<svg xmlns="http://www.w3.org/2000/svg" viewBox="0 0 48 48"><path d="m 41.844 7.594 c 27.22 41.539 -47.13 57.62 -41.21 14.879 c 2.414 -17.43 30.793 -30.773 41.21 -14.879" fill="#ff8c00"/><g fill="#fff"><path d="m 17.375 28.48 l 4.082 -4.293 l -2.473 -2.609 c -0.602 -0.625 -1.01 -1.051 -1.219 -1.273 c -0.199 -0.234 -0.355 -0.465 -0.465 -0.688 c -0.109 -0.238 -0.164 -0.5 -0.164 -0.793 c 0 -0.703 0.234 -1.285 0.707 -1.746 c 0.469 -0.457 1 -0.688 1.59 -0.688 c 0.57 0 1.02 0.078 1.352 0.234 c 0.328 0.156 0.668 0.461 1.02 0.91 l 2.551 3.121 l 2.551 -3.121 c 0.371 -0.449 0.715 -0.754 1.035 -0.91 c 0.32 -0.156 0.766 -0.234 1.336 -0.234 c 0.59 0 1.121 0.227 1.59 0.676 c 0.473 0.449 0.707 1.035 0.707 1.758 c 0 0.293 -0.055 0.555 -0.164 0.793 c -0.109 0.223 -0.27 0.453 -0.48 0.688 c -0.199 0.223 -0.602 0.648 -1.203 1.273 l -2.473 2.609 l 4.082 4.293 c 0.258 0.273 0.477 0.574 0.66 0.895 c 0.188 0.313 0.285 0.684 0.285 1.113 c 0 0.715 -0.238 1.289 -0.707 1.73 c -0.469 0.43 -1.051 0.645 -1.742 0.645 c -0.449 0 -0.82 -0.094 -1.109 -0.277 c -0.281 -0.188 -0.621 -0.492 -1.02 -0.922 l -3.348 -3.871 l -3.348 3.871 c -0.348 0.391 -0.68 0.688 -0.988 0.891 c -0.313 0.207 -0.691 0.309 -1.141 0.309 c -0.691 0 -1.273 -0.215 -1.742 -0.645 c -0.469 -0.441 -0.707 -1.016 -0.707 -1.73 c 0 -0.418 0.082 -0.773 0.242 -1.07 c 0.172 -0.293 0.406 -0.605 0.707 -0.938"/><path d="m 9.539 11.238 v 37.24 m 34.907 -37.425 v 37.968" transform="matrix(0.71775 0 0 0.62615 4.982 5.819)" stroke="#fff" stroke-linejoin="round" stroke-linecap="round" stroke-width="3.789"/></g></svg>