<svg xmlns="http://www.w3.org/2000/svg" viewBox="0 0 48 48"><path d="m 0.38 24.1 c -3.61 -31.66 47.98 -31.2 47.4 0.56 c 1.7 29.56 -50.2 32.2 -47.4 -0.56" style="fill:#ff8c00"/><path d="m 28.71 26.43 c 0 -0.96 0.18 -1.86 0.54 -2.67 c 0.36 -0.82 0.87 -1.46 1.52 -1.93 c 0.66 -0.47 1.4 -0.7 2.24 -0.7 c 0.44 0 0.9 0.06 1.37 0.18 c 0.47 0.11 0.86 0.32 1.18 0.6 c 0.32 0.29 0.48 0.67 0.48 1.16 c 0 0.39 -0.1 0.71 -0.3 0.97 c -0.2 0.26 -0.45 0.39 -0.74 0.39 c -0.14 0 -0.29 -0.03 -0.43 -0.08 c -0.13 -0.05 -0.27 -0.11 -0.41 -0.17 c -0.13 -0.07 -0.28 -0.12 -0.43 -0.16 c -0.15 -0.04 -0.34 -0.06 -0.57 -0.06 c -0.42 0 -0.77 0.11 -1.06 0.34 c -0.28 0.22 -0.5 0.52 -0.64 0.89 c -0.14 0.37 -0.21 0.79 -0.21 1.25 c 0 0.45 0.07 0.87 0.21 1.25 c 0.14 0.38 0.34 0.69 0.6 0.91 c 0.27 0.23 0.58 0.34 0.95 0.34 c 0.41 0 0.82 -0.09 1.24 -0.26 c 0.42 -0.18 0.66 -0.27 0.75 -0.27 c 0.19 0 0.37 0.07 0.53 0.19 c 0.16 0.13 0.29 0.3 0.38 0.5 c 0.1 0.2 0.14 0.41 0.14 0.62 c 0 0.45 -0.17 0.83 -0.52 1.14 c -0.34 0.31 -0.75 0.54 -1.22 0.68 c -0.48 0.14 -0.91 0.22 -1.29 0.22 c -0.64 0 -1.22 -0.14 -1.75 -0.4 c -0.52 -0.27 -0.98 -0.64 -1.37 -1.14 c -0.39 -0.5 -0.68 -1.07 -0.89 -1.71 c -0.2 -0.65 -0.3 -1.34 -0.3 -2.07 m -9.11 3.59 v -11.55 c 0 -0.44 0.12 -0.8 0.36 -1.09 c 0.24 -0.29 0.54 -0.44 0.91 -0.44 c 0.37 0 0.68 0.14 0.92 0.44 c 0.24 0.29 0.36 0.66 0.36 1.09 v 3.48 c 0.29 -0.27 0.59 -0.48 0.9 -0.62 c 0.31 -0.14 0.72 -0.21 1.21 -0.21 c 0.73 0 1.39 0.24 1.99 0.71 c 0.61 0.47 1.09 1.11 1.43 1.93 c 0.35 0.81 0.53 1.7 0.53 2.66 c 0 0.75 -0.1 1.43 -0.3 2.07 c -0.19 0.63 -0.47 1.2 -0.84 1.69 c -0.37 0.5 -0.79 0.88 -1.27 1.16 c -0.47 0.27 -0.99 0.4 -1.55 0.4 c -0.48 0 -0.89 -0.09 -1.24 -0.27 c -0.35 -0.17 -0.66 -0.45 -0.95 -0.86 c -0.11 0.26 -0.26 0.48 -0.46 0.66 c -0.2 0.18 -0.44 0.27 -0.73 0.27 c -0.38 0 -0.68 -0.15 -0.92 -0.44 c -0.23 -0.3 -0.35 -0.66 -0.35 -1.09 m 4.3 -6.07 c -0.54 0 -0.97 0.23 -1.29 0.71 c -0.31 0.48 -0.46 1.06 -0.46 1.77 c 0 0.45 0.07 0.87 0.21 1.25 c 0.14 0.38 0.34 0.69 0.6 0.91 c 0.27 0.23 0.58 0.34 0.95 0.34 c 0.55 0 0.98 -0.23 1.29 -0.71 c 0.31 -0.48 0.46 -1.08 0.46 -1.79 c 0 -0.71 -0.15 -1.3 -0.46 -1.77 c -0.31 -0.47 -0.74 -0.71 -1.29 -0.71 m -5.39 -1.12 v 7.19 c 0 0.44 -0.12 0.8 -0.36 1.09 c -0.24 0.29 -0.55 0.44 -0.92 0.44 c -0.29 0 -0.54 -0.09 -0.75 -0.27 c -0.2 -0.18 -0.34 -0.4 -0.45 -0.66 c -0.29 0.4 -0.61 0.69 -0.96 0.86 c -0.35 0.18 -0.76 0.27 -1.24 0.27 c -0.73 0 -1.39 -0.23 -2 -0.7 c -0.6 -0.47 -1.07 -1.12 -1.42 -1.93 c -0.35 -0.82 -0.52 -1.71 -0.52 -2.68 c 0 -0.96 0.17 -1.85 0.52 -2.66 c 0.35 -0.82 0.83 -1.46 1.43 -1.93 c 0.61 -0.47 1.27 -0.71 1.99 -0.71 c 0.49 0 0.9 0.09 1.24 0.25 c 0.35 0.17 0.66 0.46 0.96 0.87 c 0.09 -0.25 0.24 -0.46 0.45 -0.65 c 0.2 -0.19 0.45 -0.28 0.75 -0.28 c 0.37 0 0.68 0.14 0.92 0.44 c 0.24 0.29 0.36 0.64 0.36 1.07 m -4.31 1.12 c -0.55 0 -0.98 0.23 -1.29 0.71 c -0.31 0.48 -0.46 1.06 -0.46 1.77 c 0 0.45 0.07 0.87 0.21 1.25 c 0.14 0.38 0.34 0.69 0.6 0.91 c 0.27 0.23 0.58 0.34 0.95 0.34 c 0.55 0 0.98 -0.23 1.29 -0.71 c 0.31 -0.48 0.46 -1.08 0.46 -1.79 c 0 -0.71 -0.16 -1.3 -0.46 -1.77 c -0.31 -0.47 -0.74 -0.71 -1.29 -0.71" style="fill:#f4f4f4"/><g style="stroke:#fff;stroke-linecap:round;stroke-linejoin:round"><path d="m 42.89 22.5 l 7.85 -7 l 7.97 7.11" transform="matrix(0.477 0 0 0.543 8.78 7.6)" style="fill:#ff8c00;stroke-width:3.77"/><g style="fill-rule:evenodd;stroke-width:3.25"><path d="m 8.1 16.45 c 0 0.89 -0.73 1.62 -1.62 1.62 c -0.89 0 -1.62 -0.73 -1.62 -1.62 c 0 -0.89 0.73 -1.62 1.62 -1.62 c 0.89 0 1.62 0.73 1.62 1.62" transform="matrix(0.477 0 0 0.543 8.78 8.77)" style="fill:#f4f4f4"/><path d="m 8.1 16.45 c 0 0.89 -0.72 1.62 -1.62 1.62 c -0.89 0 -1.62 -0.73 -1.62 -1.62 c 0 -0.89 0.73 -1.62 1.62 -1.62 c 0.9 0 1.62 0.73 1.62 1.62" transform="matrix(0.477 0 0 0.543 13.85 8.77)" style="fill:#fff"/></g></g></svg>