<svg xmlns="http://www.w3.org/2000/svg" viewBox="0 0 48 48"><path d="m 11.656 44.5 c -42.25 -36.27 44.621 -71.14 35.695 -15.05 c -1.957 12.301 -24.309 24.824 -35.695 15.05" fill="#ff8c00"/><g fill="#fff"><path d="m 19.11 10.188 c -1.125 0 -2.043 0.121 -2.824 0.43 c -0.777 0.313 -1.387 0.855 -1.742 1.488 c -0.703 1.27 -0.629 2.754 -0.629 4.625 v 14.949 c 0 1.867 -0.078 3.352 0.629 4.621 c 0.355 0.633 0.961 1.18 1.742 1.488 c 0.781 0.313 1.703 0.43 2.824 0.43 h 10.395 c 1.125 0 2.047 -0.117 2.824 -0.43 c 0.781 -0.309 1.391 -0.852 1.742 -1.488 c 0.707 -1.27 0.629 -2.754 0.629 -4.621 v -14.949 c 0 -1.871 0.078 -3.355 -0.629 -4.625 c -0.352 -0.633 -0.961 -1.176 -1.742 -1.488 c -0.777 -0.313 -1.699 -0.43 -2.824 -0.43 m -10.395 1.867 h 10.395 c 0.953 0 1.594 0.117 1.98 0.273 c 0.391 0.156 0.559 0.313 0.727 0.613 c 0.336 0.598 0.41 1.918 0.41 3.789 v 14.949 c 0 1.867 -0.074 3.188 -0.41 3.789 c -0.164 0.301 -0.336 0.457 -0.727 0.613 c -0.387 0.152 -1.027 0.27 -1.98 0.27 h -10.395 c -0.949 0 -1.59 -0.113 -1.98 -0.27 c -0.387 -0.156 -0.559 -0.316 -0.727 -0.613 c -0.336 -0.602 -0.41 -1.922 -0.41 -3.789 v -14.949 c 0 -1.871 0.078 -3.191 0.41 -3.789 c 0.168 -0.301 0.34 -0.457 0.727 -0.613 c 0.391 -0.156 1.031 -0.273 1.98 -0.273"/><path d="m 18.07 13.926 v 7.477 h 12.473 v -7.477" fill-rule="evenodd"/><path d="m 24.305 23.27 c -3.434 0 -6.238 2.52 -6.238 5.605 c 0 3.086 2.805 5.609 6.238 5.609 c 3.43 0 6.234 -2.523 6.234 -5.609 c 0 -3.086 -2.805 -5.605 -6.234 -5.605 m 0 1.867 c 2.305 0 4.156 1.664 4.156 3.738 c 0 2.074 -1.852 3.738 -4.156 3.738 c -2.309 0 -4.156 -1.664 -4.156 -3.738 c 0 -2.074 1.848 -3.738 4.156 -3.738"/></g></svg>