
<svg xmlns="http://www.w3.org/2000/svg" xmlns:xlink="http://www.w3.org/1999/xlink" width="48px" height="48px" viewBox="0 0 48 48" version="1.1">
<g id="surface1">
<path style=" stroke:none;fill-rule:nonzero;fill:rgb(66.27451%,66.27451%,66.27451%);fill-opacity:1;" d="M 44.5 11.65625 C 8.234375 -30.59375 -26.636719 56.277344 29.449219 47.351562 C 41.75 45.394531 54.273438 23.042969 44.5 11.65625 Z M 44.5 11.65625 "/>
<path style="fill-rule:nonzero;fill:rgb(0%,0%,0%);fill-opacity:1;stroke-width:4.525;stroke-linecap:round;stroke-linejoin:round;stroke:rgb(100%,100%,100%);stroke-opacity:1;stroke-miterlimit:4;" d="M 15.407628 1.03052 C 15.176787 1.123837 25.029663 9.093162 24.780101 9.078963 C 24.536211 9.078912 34.613867 1.470272 34.387745 1.372614 C 34.161624 1.274956 35.490064 13.874017 35.314041 13.698564 C 35.145013 13.520284 47.647547 15.264337 47.556789 15.037976 C 47.470189 14.801713 39.497064 24.658658 39.509911 24.406855 C 39.508768 24.160707 47.117558 34.237372 47.213215 34.009636 C 47.318703 33.786145 34.715514 35.116082 34.89833 34.943535 C 35.074151 34.773815 33.324095 47.277446 33.554936 47.184129 C 33.785777 47.090811 23.932901 39.121486 24.182463 39.135685 C 24.429189 39.14281 14.355692 46.741549 14.574818 46.842034 C 14.80094 46.939692 13.4725 34.340632 13.648523 34.516084 C 13.817551 34.694364 1.315017 32.950311 1.405775 33.176673 C 1.49937 33.410108 9.468336 23.563064 9.452653 23.807794 C 9.453796 24.053941 1.845006 13.977276 1.749349 14.205013 C 1.653692 14.43275 14.24705 13.098566 14.06707 13.278188 C 13.891249 13.447907 15.641306 0.944276 15.407628 1.03052 Z M 15.407628 1.03052 " transform="matrix(0.480534,0.192097,-0.192667,0.475194,16.013403,8.538818)"/>
<path style="fill-rule:nonzero;fill:rgb(100%,100%,100%);fill-opacity:1;stroke-width:7.44;stroke-linecap:round;stroke-linejoin:round;stroke:rgb(100%,100%,100%);stroke-opacity:1;stroke-miterlimit:4;" d="M 15.410863 1.03317 C 17.34713 0.277498 22.751181 6.568909 24.829456 6.612445 C 26.904619 6.648221 32.488645 0.549684 34.382778 1.379999 C 36.287699 2.214971 35.66016 10.484744 37.108126 11.982336 C 38.545305 13.475272 46.803706 13.112474 47.559888 15.043003 C 48.319181 16.981292 42.019878 22.386125 41.979956 24.467151 C 41.941489 26.529556 48.046905 32.122664 47.210926 34.02054 C 46.374946 35.918417 38.104443 35.294239 36.605021 36.738949 C 35.117843 38.169693 35.47934 46.436403 33.550749 47.188971 C 31.614482 47.944643 26.210431 41.653232 24.124479 41.6128 C 22.056993 41.57392 16.472967 47.672457 14.571157 46.845245 C 12.666236 46.010274 13.301452 37.737397 11.853486 36.239805 C 10.416307 34.746869 2.157906 35.109667 1.401724 33.179138 C 0.642431 31.240849 6.941734 25.836016 6.973979 23.758093 C 7.017012 21.684826 0.914707 16.099477 1.750686 14.201601 C 2.583555 12.295965 10.857169 12.927902 12.348914 11.486295 C 13.840658 10.044689 13.482272 1.785738 15.410863 1.03317 Z M 15.410863 1.03317 " transform="matrix(0.437857,0.175122,-0.175554,0.43321,16.628939,9.943478)"/>
<path style=" stroke:none;fill-rule:nonzero;fill:rgb(0%,0%,0%);fill-opacity:0.509804;" d="M 23.195312 13.089844 C 24.175781 13.101562 25.4375 16.773438 26.339844 17.15625 C 27.242188 17.535156 30.757812 15.871094 31.441406 16.5625 C 32.128906 17.257812 30.402344 20.730469 30.773438 21.632812 C 31.140625 22.53125 34.820312 23.820312 34.8125 24.789062 C 34.804688 25.761719 31.097656 27 30.714844 27.894531 C 30.335938 28.78125 32.027344 32.273438 31.328125 32.949219 C 30.628906 33.625 27.117188 31.90625 26.207031 32.269531 C 25.304688 32.628906 24.011719 36.273438 23.035156 36.261719 C 22.054688 36.25 20.792969 32.578125 19.886719 32.195312 C 18.988281 31.816406 15.472656 33.480469 14.785156 32.789062 C 14.097656 32.09375 15.828125 28.621094 15.457031 27.71875 C 15.089844 26.820312 11.410156 25.53125 11.417969 24.5625 C 11.425781 23.589844 15.132812 22.351562 15.511719 21.457031 C 15.894531 20.566406 14.203125 17.078125 14.902344 16.402344 C 15.601562 15.722656 19.113281 17.445312 20.019531 17.082031 C 20.925781 16.71875 22.21875 13.078125 23.195312 13.089844 Z M 23.195312 13.089844 "/>
<path style="fill-rule:evenodd;fill:rgb(100%,100%,100%);fill-opacity:1;stroke-width:8;stroke-linecap:butt;stroke-linejoin:miter;stroke:rgb(100%,100%,100%);stroke-opacity:1;stroke-miterlimit:4;" d="M 24.037455 4.056636 C 10.058411 4.056636 10.040137 15.049673 10.040137 15.049673 L 10.040137 33.050888 C 10.040137 33.050888 9.884815 43.997697 24.000908 43.997697 C 37.979953 43.997697 38.034773 33.050888 38.034773 33.050888 L 38.034773 15.049673 C 38.034773 15.049673 38.144412 4.056636 24.037455 4.056636 Z M 24.037455 4.056636 " transform="matrix(0.427537,0,0,0.422498,19.144967,18.418894)"/>
<path style=" stroke:none;fill-rule:evenodd;fill:rgb(0%,0%,0%);fill-opacity:1;" d="M 29.421875 20.132812 C 23.445312 20.132812 23.4375 24.777344 23.4375 24.777344 L 23.4375 32.382812 C 23.4375 32.382812 23.371094 37.007812 29.40625 37.007812 C 35.382812 37.007812 35.40625 32.382812 35.40625 32.382812 L 35.40625 24.777344 C 35.40625 24.777344 35.453125 20.132812 29.421875 20.132812 Z M 29.421875 20.132812 "/>
<path style=" stroke:none;fill-rule:evenodd;fill:rgb(100%,100%,100%);fill-opacity:1;" d="M 33.679688 25.601562 C 33.679688 23.488281 32.398438 21.800781 30.261719 21.800781 L 30.261719 25.601562 Z M 33.679688 25.601562 "/>
<path style=" stroke:none;fill-rule:evenodd;fill:rgb(100%,100%,100%);fill-opacity:1;" d="M 25.128906 27.292969 L 33.679688 27.292969 L 33.679688 31.9375 C 33.679688 31.9375 34.101562 35.320312 29.40625 35.320312 C 24.738281 35.320312 25.128906 31.9375 25.128906 31.9375 Z M 25.128906 27.292969 "/>
<path style=" stroke:none;fill-rule:evenodd;fill:rgb(100%,100%,100%);fill-opacity:1;" d="M 25.128906 25.601562 C 25.128906 23.488281 26.414062 21.800781 28.550781 21.800781 L 28.550781 25.601562 Z M 25.128906 25.601562 "/>
</g>
</svg>
