<svg xmlns="http://www.w3.org/2000/svg" viewBox="0 0 48 48"><path d="m 29.348 0.559 c 19.508 2.977 24.73 29.41 10.805 41.08 c -10.348 10.277 -30.15 7.719 -36.938 -4.883 c -9.08 -14.477 2.148 -35.566 20.227 -36.719 c 1.98 -0.117 3.984 0.051 5.906 0.52" fill="#ff8c00"/><g fill="#fff"><path d="m 11 9.984 h 1.773 v 1.828 h -1.773"/><path d="m 14.547 9.984 h 1.777 v 1.828 h -1.777"/><path d="m 18.1 9.984 h 1.773 v 1.828 h -1.773"/><path d="m 21.645 9.984 h 1.773 v 1.828 h -1.773"/><path d="m 25.19 9.984 h 1.773 v 1.828 h -1.773"/><path d="m 28.738 9.984 h 1.777 v 1.828 h -1.777"/><path d="m 32.29 9.984 h 1.773 v 1.828 h -1.773"/><path d="m 35.836 9.984 h 1.773 v 1.828 h -1.773"/><path d="m 11 13.641 h 1.773 v 1.828 h -1.773"/><path d="m 11 17.297 h 1.773 v 1.828 h -1.773"/><path d="m 11 20.953 h 1.773 v 1.828 h -1.773"/><path d="m 11 24.609 h 1.773 v 1.828 h -1.773"/><path d="m 11 28.27 h 1.773 v 1.828 h -1.773"/><path d="m 11 31.922 h 1.773 v 1.828 h -1.773"/><path d="m 11 35.578 h 1.773 v 1.828 h -1.773"/><path d="m 35.836 13.641 h 1.773 v 1.828 h -1.773"/><path d="m 35.836 17.297 h 1.773 v 1.828 h -1.773"/><path d="m 35.836 20.953 h 1.773 v 1.828 h -1.773"/><path d="m 35.836 24.609 h 1.773 v 1.828 h -1.773"/><path d="m 35.836 28.27 h 1.773 v 1.828 h -1.773"/><path d="m 35.836 31.922 h 1.773 v 1.828 h -1.773"/><path d="m 35.836 35.578 h 1.773 v 1.828 h -1.773"/><path d="m 14.547 35.578 h 1.777 v 1.828 h -1.777"/><path d="m 18.1 35.578 h 1.773 v 1.828 h -1.773"/><path d="m 21.645 35.578 h 1.773 v 1.828 h -1.773"/><path d="m 25.19 35.578 h 1.773 v 1.828 h -1.773"/><path d="m 28.738 35.578 h 1.777 v 1.828 h -1.777"/><path d="m 32.29 35.578 h 1.773 v 1.828 h -1.773"/><path d="m 16.324 15.469 h 15.965 v 16.453 h -15.965"/></g><path d="m 18.965 18.11 h 10.68 v 11.367 h -10.68" fill="#ffdeac"/></svg>