<svg xmlns="http://www.w3.org/2000/svg" viewBox="0 0 48 48"><path d="m 10.164 40.19 c 35.672 31 57.641 -41.04 11.527 -40.04 c -19.06 0.543 -30.625 25.285 -11.527 40.04" fill="#ff8c00"/><g stroke="#fff"><g fill="none" stroke-width="3.052" transform="matrix(0.46341 0 0 0.64764 10.304 8.04)"><path d="m 4.746 16.864 l 35.648 -0.229"/><path d="m 4.746 27.05 l 35.648 -0.229"/><path d="m 4.755 37.23 l 20.374 -0.235"/><path d="m 4.746 6.683 l 35.648 -0.229"/></g><g transform="matrix(0.48346 0 0 0.51756 18.329 14.203)"><g fill="#ff8c00"><g stroke-width="2.816"><path d="m 19.641 20.347 c -0.081 0 -0.137 0.106 -0.137 0.242 v 18.318 c 0 0.136 0.057 0.249 0.137 0.249 h 7.724 c 0.073 0 0.129 -0.113 0.129 -0.249 v -18.318 c 0 -0.136 -0.057 -0.242 -0.129 -0.242"/><path d="m 28.14 20.347 c -0.073 0 -0.137 0.106 -0.137 0.242 v 18.318 c 0 0.136 0.065 0.249 0.137 0.249 h 7.724 c 0.073 0 0.137 -0.113 0.137 -0.249 v -18.318 c 0 -0.136 -0.065 -0.242 -0.137 -0.242"/><path d="m 11.674 19.668 c -0.073 0 -0.137 0.106 -0.137 0.242 v 18.325 c 0 0.136 0.065 0.242 0.137 0.242 h 7.724 c 0.073 0 0.137 -0.106 0.137 -0.242 v -18.325 c 0 -0.136 -0.065 -0.242 -0.137 -0.242"/></g><path d="m 9.824 37.691 l -1.842 4.03 h 31.907 l -1.858 -4.03" fill-rule="evenodd" stroke-linejoin="round" stroke-linecap="round" stroke-width="1.606"/></g><g fill="none" stroke-width="2.776"><path d="m 11.513 38.16 v -17.291"/><path d="m 19.73 38.16 v -17.291"/><path d="m 28.15 38.16 v -17.291"/><path d="m 36.36 38.16 v -17.291"/></g><g fill="#ff8c00" fill-rule="evenodd"><path d="m 9.84 14.06 c -0.259 0 -0.477 0.279 -0.477 0.634 v 5.728 c 0 0.355 0.218 0.634 0.477 0.634 h 28.19 c 0.267 0 0.485 -0.287 0.485 -0.634 v -5.728 c 0 -0.355 -0.218 -0.634 -0.485 -0.634" stroke-width="1.606"/><path d="m 8.297 14.06 h 31.28 l -15.489 -6.536 l -15.788 6.536" stroke-linejoin="round" stroke-linecap="round" stroke-width="2.01"/></g></g></g></svg>