<svg xmlns="http://www.w3.org/2000/svg" viewBox="0 0 48 48"><path d="M 41.84375 7.59375 C 69.0625 49.132812 -5.285156 65.210938 0.636719 22.472656 C 3.050781 5.042969 31.429688 -8.300781 41.84375 7.59375 Z M 41.84375 7.59375 " fill="#ff8c00"/><g stroke-linejoin="round" stroke-linecap="round" transform="matrix(0.489 0 0 0.471 9.64 9.86)"><path d="M 6.682417 4.690915 C 5.579761 4.690915 4.684851 5.586217 4.684851 6.697054 L 4.684851 53.302469 C 4.684851 54.413306 5.579761 55.316897 6.682417 55.316897 L 53.321584 55.316897 C 54.424241 55.316897 55.31116 54.413306 55.31116 53.302469 L 55.31116 6.697054 C 55.31116 5.586217 54.424241 4.690915 53.321584 4.690915 Z M 6.682417 4.690915 " fill="none" stroke="#fff" stroke-width="8.13"/><path d="M 6.682417 4.690915 C 5.579761 4.690915 4.684851 5.586217 4.684851 6.697054 L 4.684851 53.302469 C 4.684851 54.413306 5.579761 55.316897 6.682417 55.316897 L 53.321584 55.316897 C 54.424241 55.316897 55.31116 54.413306 55.31116 53.302469 L 55.31116 6.697054 C 55.31116 5.586217 54.424241 4.690915 53.321584 4.690915 Z M 6.682417 4.690915 " fill="#fff" fill-rule="evenodd" stroke="#ff8c00" stroke-width="3.13"/></g><path d="M 28.492188 25.894531 C 28.492188 25.257812 28.636719 24.671875 28.917969 24.132812 C 29.199219 23.59375 29.59375 23.167969 30.101562 22.859375 C 30.609375 22.550781 31.191406 22.398438 31.847656 22.398438 C 32.191406 22.398438 32.546875 22.4375 32.910156 22.519531 C 33.273438 22.59375 33.582031 22.726562 33.832031 22.914062 C 34.082031 23.105469 34.207031 23.359375 34.207031 23.679688 C 34.207031 23.933594 34.128906 24.148438 33.96875 24.320312 C 33.816406 24.492188 33.621094 24.578125 33.390625 24.578125 C 33.277344 24.578125 33.167969 24.5625 33.058594 24.523438 C 32.953125 24.488281 32.847656 24.449219 32.742188 24.410156 C 32.636719 24.367188 32.523438 24.332031 32.40625 24.304688 C 32.289062 24.277344 32.140625 24.261719 31.960938 24.261719 C 31.636719 24.261719 31.363281 24.335938 31.140625 24.484375 C 30.917969 24.628906 30.753906 24.824219 30.640625 25.070312 C 30.53125 25.316406 30.480469 25.589844 30.480469 25.894531 C 30.480469 26.191406 30.535156 26.46875 30.640625 26.722656 C 30.75 26.976562 30.90625 27.175781 31.109375 27.324219 C 31.316406 27.472656 31.5625 27.546875 31.84375 27.546875 C 32.164062 27.546875 32.484375 27.488281 32.808594 27.375 C 33.132812 27.257812 33.324219 27.199219 33.386719 27.199219 C 33.539062 27.199219 33.675781 27.242188 33.800781 27.324219 C 33.925781 27.410156 34.023438 27.519531 34.09375 27.65625 C 34.167969 27.789062 34.203125 27.925781 34.203125 28.0625 C 34.203125 28.359375 34.070312 28.609375 33.796875 28.8125 C 33.53125 29.019531 33.214844 29.167969 32.847656 29.257812 C 32.476562 29.355469 32.140625 29.402344 31.84375 29.402344 C 31.347656 29.402344 30.894531 29.316406 30.484375 29.136719 C 30.078125 28.960938 29.722656 28.710938 29.421875 28.386719 C 29.117188 28.058594 28.886719 27.683594 28.730469 27.257812 C 28.574219 26.832031 28.492188 26.375 28.492188 25.894531 Z M 21.394531 28.265625 L 21.394531 20.644531 C 21.394531 20.355469 21.488281 20.113281 21.675781 19.921875 C 21.863281 19.730469 22.101562 19.636719 22.386719 19.636719 C 22.675781 19.636719 22.917969 19.730469 23.105469 19.921875 C 23.292969 20.117188 23.382812 20.355469 23.382812 20.644531 L 23.382812 22.945312 C 23.609375 22.761719 23.84375 22.628906 24.082031 22.535156 C 24.328125 22.445312 24.644531 22.398438 25.03125 22.398438 C 25.59375 22.398438 26.113281 22.554688 26.582031 22.867188 C 27.054688 23.175781 27.425781 23.597656 27.695312 24.140625 C 27.972656 24.675781 28.109375 25.261719 28.109375 25.894531 C 28.109375 26.386719 28.03125 26.839844 27.878906 27.257812 C 27.726562 27.671875 27.511719 28.046875 27.222656 28.375 C 26.9375 28.703125 26.609375 28.957031 26.238281 29.136719 C 25.867188 29.3125 25.464844 29.402344 25.03125 29.402344 C 24.65625 29.402344 24.335938 29.34375 24.0625 29.226562 C 23.792969 29.113281 23.546875 28.925781 23.324219 28.660156 C 23.238281 28.835938 23.121094 28.980469 22.960938 29.101562 C 22.808594 29.214844 22.617188 29.273438 22.386719 29.273438 C 22.097656 29.273438 21.859375 29.179688 21.671875 28.988281 C 21.488281 28.792969 21.398438 28.550781 21.398438 28.265625 Z M 24.75 24.261719 C 24.324219 24.261719 23.988281 24.417969 23.746094 24.730469 C 23.503906 25.042969 23.382812 25.429688 23.382812 25.894531 C 23.382812 26.191406 23.4375 26.46875 23.546875 26.722656 C 23.652344 26.976562 23.808594 27.175781 24.011719 27.324219 C 24.21875 27.472656 24.464844 27.546875 24.746094 27.546875 C 25.175781 27.546875 25.507812 27.390625 25.75 27.078125 C 25.992188 26.761719 26.113281 26.367188 26.113281 25.894531 C 26.113281 25.425781 25.992188 25.039062 25.75 24.730469 C 25.507812 24.417969 25.175781 24.261719 24.746094 24.261719 Z M 20.546875 23.519531 L 20.546875 28.265625 C 20.546875 28.554688 20.453125 28.796875 20.265625 28.988281 C 20.082031 29.179688 19.84375 29.273438 19.550781 29.273438 C 19.320312 29.273438 19.128906 29.214844 18.972656 29.09375 C 18.816406 28.976562 18.699219 28.832031 18.621094 28.660156 C 18.398438 28.925781 18.148438 29.113281 17.875 29.226562 C 17.605469 29.34375 17.28125 29.402344 16.910156 29.402344 C 16.339844 29.402344 15.820312 29.246094 15.351562 28.9375 C 14.886719 28.625 14.515625 28.203125 14.242188 27.664062 C 13.972656 27.125 13.835938 26.535156 13.835938 25.894531 C 13.835938 25.261719 13.972656 24.675781 14.242188 24.140625 C 14.515625 23.597656 14.886719 23.175781 15.355469 22.867188 C 15.828125 22.554688 16.34375 22.398438 16.910156 22.398438 C 17.285156 22.398438 17.609375 22.453125 17.875 22.566406 C 18.144531 22.675781 18.394531 22.867188 18.621094 23.136719 C 18.695312 22.972656 18.8125 22.832031 18.972656 22.710938 C 19.128906 22.585938 19.320312 22.523438 19.550781 22.523438 C 19.839844 22.523438 20.082031 22.621094 20.265625 22.8125 C 20.453125 23 20.546875 23.234375 20.546875 23.519531 Z M 17.191406 24.261719 C 16.765625 24.261719 16.429688 24.417969 16.1875 24.730469 C 15.945312 25.042969 15.824219 25.429688 15.824219 25.894531 C 15.824219 26.191406 15.878906 26.46875 15.988281 26.722656 C 16.09375 26.976562 16.25 27.175781 16.453125 27.324219 C 16.660156 27.472656 16.90625 27.546875 17.1875 27.546875 C 17.617188 27.546875 17.949219 27.390625 18.191406 27.078125 C 18.433594 26.761719 18.554688 26.367188 18.554688 25.894531 C 18.554688 25.425781 18.433594 25.039062 18.191406 24.730469 C 17.949219 24.417969 17.617188 24.261719 17.1875 24.261719 Z M 17.191406 24.261719 " fill="#ff8c00"/><g stroke="#ff8c00" stroke-linejoin="round" stroke-linecap="round" stroke-width="4.11"><path d="M 10.437715 9.974878 L 16.824799 3.588111 L 23.306429 10.06207 " transform="matrix(0.372 0 0 0.358 25.35 18)" fill="none"/><g fill="#ff8c00" fill-rule="evenodd"><path d="M 8.094508 16.450288 C 8.094508 17.344 7.369658 18.074228 6.476727 18.074228 C 5.583796 18.074228 4.858946 17.344 4.858946 16.450288 C 4.858946 15.556577 5.583796 14.837248 6.476727 14.837248 C 7.369658 14.837248 8.094508 15.556577 8.094508 16.450288 Z M 8.094508 16.450288 " transform="matrix(0.372 0 0 0.358 12.97 14.24)"/><path d="M 8.095642 16.450288 C 8.095642 17.344 7.370792 18.074228 6.477861 18.074228 C 5.58493 18.074228 4.86008 17.344 4.86008 16.450288 C 4.86008 15.556577 5.58493 14.837248 6.477861 14.837248 C 7.370792 14.837248 8.095642 15.556577 8.095642 16.450288 Z M 8.095642 16.450288 " transform="matrix(0.372 0 0 0.358 16.92 14.24)"/></g></g></svg>