<svg xmlns="http://www.w3.org/2000/svg" viewBox="0 0 48 48"><path d="m 39.27 41.04 c -42.563 29.949 -56.11 -47.938 -10.883 -40.21 c 17.992 4.094 27.938 28.21 10.883 40.21" fill="#ff8c00"/><g fill="#fff"><path d="m 22.21 16.375 h 16.727 v 4.117 h -16.727"/><path d="m 22.21 28.727 h 16.727 v 4.117 h -16.727"/><path d="m 18.04 18.434 c 0 2.273 -1.875 4.117 -4.184 4.117 c -2.309 0 -4.18 -1.844 -4.18 -4.117 c 0 -2.273 1.871 -4.117 4.18 -4.117 c 2.309 0 4.184 1.844 4.184 4.117"/><path d="m 18.04 30.785 c 0 2.277 -1.875 4.117 -4.184 4.117 c -2.309 0 -4.18 -1.84 -4.18 -4.117 c 0 -2.273 1.871 -4.117 4.18 -4.117 c 2.309 0 4.184 1.844 4.184 4.117"/></g></svg>