<svg xmlns="http://www.w3.org/2000/svg" viewBox="0 0 48 48"><path d="m 24.08 0.586 c 31.664 -3.602 31.23 47.984 -0.563 47.38 c -29.563 1.699 -32.23 -50.18 0.563 -47.37" fill="#ff8c00"/><path d="m 21.43 37.855 c -1.504 -0.359 -2.965 -1.16 -3.852 -2.109 c -1.301 -1.391 -1.941 -3.617 -1.668 -5.793 c 0.07 -0.559 0.309 -1.07 0.27 -1.141 c -0.039 -0.07 -0.91 -0.164 -1.125 -0.191 c 0.055 -0.754 0.059 -0.977 0.059 -1.898 l 1.117 -0.07 c 1.051 -0.066 1.414 0.145 1.918 -0.332 c 0.723 -0.676 2.172 -1.785 4.172 -2.652 c 1.172 -0.684 2.539 -0.883 2.813 -1.715 c 0 -0.059 -2.258 -0.141 -5.01 -0.18 l -5.01 -0.074 c 0 -0.621 0 -1.242 0 -1.863 l 6.04 -0.039 c 5.04 -0.031 6.07 -0.07 6.199 -0.238 c 0.277 -0.367 0.316 -1.688 0.078 -2.582 c -0.164 -0.629 -0.371 -1 -0.848 -1.523 c -0.855 -0.934 -1.875 -1.285 -3.734 -1.285 c -1.605 0 -2.473 0.152 -4.176 0.742 c -0.738 0.254 -1.336 0.387 -1.398 0.316 c -0.063 -0.07 -0.266 -0.578 -0.449 -1.133 c -0.398 -1.207 -0.402 -1.203 1.168 -1.715 c 1.828 -0.598 2.559 -0.711 4.648 -0.715 c 2.242 -0.004 3.133 0.176 4.473 0.91 c 2.176 1.191 3.137 2.914 3.172 5.684 l 0.02 1.434 c 0.391 0.047 0.785 0.098 1.18 0.145 c 0 0.621 0 1.242 0 1.863 c -0.613 0.031 -1.223 0.059 -1.836 0.09 l -0.746 0.84 c -1.188 1.34 -2.02 1.891 -4.426 2.957 c -0.836 0.367 -1.82 0.738 -1.848 0.875 c -0.035 0.203 0.84 0.191 4.621 0.223 l 4.234 0.039 c 0 0.621 0 1.242 0 1.867 l -6.145 0.07 l -6.141 0.07 c -0.965 1.613 -0.852 3.355 -0.156 4.602 c 0.809 1.43 2.238 2.164 4.516 2.313 c 1.516 0.102 3.652 -0.215 5.398 -0.797 c 0.668 -0.223 1.305 -0.43 1.414 -0.461 c 0.359 -0.07 0.195 1.469 0.195 2.641 l -0.523 0.203 c -1.422 0.551 -2.773 0.773 -5.109 0.836 c -1.988 0.055 -2.535 0.02 -3.504 -0.211" fill="#fff"/></svg>