<svg xmlns="http://www.w3.org/2000/svg" viewBox="0 0 48 48"><path d="m 29.23 0.152 c 2.828 0.25 5.914 0.965 8.191 1.895 c 7.961 3.25 11.672 9.848 10.223 18.19 c -0.777 4.484 -3 9.555 -6.539 14.918 c -4.227 6.402 -10.754 11.254 -16.801 12.484 c -1.273 0.262 -3.688 0.352 -4.973 0.191 c -4.305 -0.543 -7.891 -2.871 -11.18 -7.266 c -3.148 -4.203 -5.48 -8.477 -6.797 -12.457 c -2.703 -8.18 -1.066 -15.477 4.66 -20.762 c 4.02 -3.711 9.473 -6.078 16.16 -7.02 c 1 -0.141 6.02 -0.262 7.05 -0.168" fill="#7f007f"/><path d="m 116.21 158.54 v -22.1 l -33.04 -71.5 h 14.563 l 7.542 17.688 c 4.146 9.729 9.729 22.875 12.417 29.23 c 2.667 6.354 4.979 11.542 5.104 11.542 c 0.125 0.021 5.813 -13 12.625 -28.917 c 6.833 -15.917 12.542 -29.08 12.688 -29.25 c 0.167 -0.167 3.438 -0.271 7.292 -0.208 l 7.02 0.104 l -16.334 34.979 l -16.355 34.959 v 22.813 l -0.021 22.792 h -13.479 v -22.13" transform="scale(0.1875 0.1875)" fill="#fff" stroke="#fff" stroke-width="0.818"/></svg>