<svg xmlns="http://www.w3.org/2000/svg" viewBox="0 0 48 48"><path d="m 11.29 5.24 c 24.54 -17.27 49.4 14.61 29.42 34.95 c -18.84 19.2 -48.1 1.4 -38.98 -22.45 c 1.91 -4.97 5 -9.34 9.55 -12.5" style="fill:#ff8c00"/><path d="m 11.23 14.52 l 11.85 11.1 l 0.91 0.85 l 0.91 -0.85 l 11.85 -11.1 m -25.52 0 v 19.55 l 8.96 -9.77 m 16.57 -9.79 l -8.96 9.79 l 8.96 9.77 m -15.2 -8.23 l -10.22 8.23 h 25.2 l -10.22 -8.23 l -2.39 2.2" style="fill:#fff;fill-rule:evenodd"/><path d="m 40.1 30.73 c -1.56 -0.14 -2.24 -1.44 -1.29 -2.43 c 0.86 -0.89 0.84 -1.2 -0.13 -2.08 c -0.94 -0.92 -0.71 -0.79 -1.72 -0.02 c -1.27 0.97 -2.48 0.47 -2.64 -1.09 c -0.1 -1 -0.2 -1.09 -1.3 -1.09 c -1.1 0 -1.2 0.09 -1.36 1.14 c -0.13 0.88 -0.39 1.22 -1.1 1.46 c -0.76 0.26 -1.07 0.19 -1.72 -0.41 c -0.48 -0.56 -0.72 -0.8 -1.6 0.12 c -0.68 0.7 -0.75 0.94 -0.4 1.4 c 0.76 1.03 0.84 1.42 0.46 2.23 c -0.28 0.6 -0.64 0.8 -1.42 0.8 c -1 0 -0.7 -0.01 -0.94 1.24 c 0.1 1.12 0.21 1.25 1.18 1.34 c 1.3 0.12 1.85 1.43 0.98 2.35 c -0.7 0.75 -1.22 1.06 0.09 2.11 c 0.8 0.71 1.05 0.69 1.94 -0.13 c 0.64 -0.58 0.86 -0.62 1.63 -0.28 c 0.71 0.31 0.89 0.63 0.89 1.52 c 0 1.09 0.03 1.12 1.27 1.02 c 1.17 -0.09 1.28 -0.2 1.38 -1.19 c 0.15 -1.54 1.52 -2.05 2.66 -1 c 1 0.98 0.77 0.78 1.72 -0.14 c 1.03 -0.97 1.08 -0.7 0.14 -1.67 c -0.66 -0.68 -0.71 -0.9 -0.36 -1.64 c 0.28 -0.61 0.7 -0.88 1.45 -0.95 c 0.95 -0.09 1.07 -0.22 1.16 -1.31 c 0.1 -1.16 0.05 -1.22 -1.01 -1.32" style="fill:#dc133c"/><path d="m 36.43 32.1 c 0 1.81 -1.48 3.27 -3.31 3.27 c -1.83 0 -3.31 -1.46 -3.31 -3.27 c 0 -1.81 1.48 -3.27 3.31 -3.27 c 1.83 0 3.31 1.46 3.31 3.27" style="fill:#fff"/></svg>