
<svg xmlns="http://www.w3.org/2000/svg" xmlns:xlink="http://www.w3.org/1999/xlink" width="48px" height="48px" viewBox="0 0 48 48" version="1.1">
<g id="surface1">
<path style=" stroke:none;fill-rule:nonzero;fill:rgb(100%,54.901961%,0%);fill-opacity:1;" d="M 0.703125 28.988281 C 4.417969 53.714844 41.429688 54.457031 47.019531 30.421875 C 52.777344 10.960938 31.933594 -4.945312 16.339844 1.429688 C 5.898438 4.441406 -2.535156 16.769531 0.703125 28.988281 Z M 0.703125 28.988281 "/>
<path style=" stroke:none;fill-rule:nonzero;fill:rgb(100%,100%,100%);fill-opacity:1;" d="M 14.339844 37.238281 C 14.027344 37.101562 13.589844 36.855469 13.371094 36.683594 C 12.75 36.210938 11.9375 35.058594 11.605469 34.179688 C 11.339844 33.484375 11.300781 33.210938 11.300781 31.988281 C 11.300781 30.695312 11.328125 30.527344 11.671875 29.667969 C 12.496094 27.597656 14.429688 26.304688 16.332031 26.542969 C 16.925781 26.621094 16.96875 26.605469 17.089844 26.273438 C 17.183594 26.027344 17.222656 24.144531 17.222656 19.953125 C 17.222656 15.617188 17.257812 13.957031 17.351562 13.882812 C 17.539062 13.742188 33.605469 10.210938 33.675781 10.296875 C 33.796875 10.445312 33.800781 27.945312 33.679688 28.929688 C 33.371094 31.449219 31.859375 33.335938 29.820312 33.753906 C 28.007812 34.125 25.984375 32.960938 25.058594 31.011719 C 24.113281 29.015625 24.328125 26.445312 25.585938 24.75 C 26.585938 23.398438 27.667969 22.835938 29.257812 22.839844 C 30.046875 22.84375 30.207031 22.804688 30.300781 22.589844 C 30.363281 22.441406 30.410156 20.734375 30.410156 18.496094 C 30.410156 15.027344 30.390625 14.660156 30.222656 14.660156 C 29.960938 14.660156 21.167969 16.597656 20.828125 16.730469 L 20.546875 16.839844 L 20.488281 25.113281 L 20.433594 33.382812 L 20.066406 34.308594 C 19.628906 35.414062 18.703125 36.527344 17.785156 37.050781 C 16.960938 37.523438 15.214844 37.617188 14.339844 37.234375 Z M 14.339844 37.238281 "/>
</g>
</svg>
