<svg xmlns="http://www.w3.org/2000/svg" viewBox="0 0 48 48"><path d="m 12.43 5.67 c 11 -10.96 21.2 -2.93 29.55 5.79 c 6.8 7.1 7.12 13.68 2.61 20.66 c -11.79 18.23 -27.1 24.98 -43.1 -3.29 c -3.94 -9.32 4.39 -17.99 10.94 -23.2" style="fill:#ff8c00"/><path d="m 13.32 34.89 l -1.15 -1.16 l 0.99 -1.04 c 0.54 -0.57 2.54 -2.61 4.44 -4.54 c 3.28 -3.32 3.44 -3.52 3.25 -3.89 c -0.11 -0.21 -2.15 -2.35 -4.53 -4.74 l -4.33 -4.35 l 2.41 -2.39 l 1.2 1.16 c 0.66 0.64 2.75 2.68 4.64 4.55 l 3.45 3.39 l 4.62 -4.64 l 4.62 -4.65 l 1.19 1.2 l 1.2 1.2 l -1.84 1.96 c -1 1.07 -3.04 3.14 -4.5 4.6 c -1.46 1.46 -2.66 2.72 -2.65 2.82 c 0.01 0.09 2.08 2.18 4.61 4.64 l 4.59 4.47 l -1.16 1.2 c -0.64 0.66 -1.22 1.2 -1.29 1.2 c -0.06 0 -2.18 -2.03 -4.69 -4.5 l -4.57 -4.5 l -4.59 4.58 c -2.52 2.52 -4.63 4.58 -4.67 4.58 c -0.05 0 -0.61 -0.52 -1.23 -1.16" style="fill:#fff;stroke:#fff;stroke-linecap:round;stroke-width:0.23"/></svg>