<svg xmlns="http://www.w3.org/2000/svg" viewBox="0 0 48 48"><path d="m 36.719 5.129 c -24.551 -17.188 -49.43 14.555 -29.422 34.801 c 18.848 19.07 48.13 1.391 38.973 -22.348 c -1.906 -4.953 -5.04 -9.297 -9.551 -12.453" fill="#7a68ed"/><g fill="#fff"><path d="m 14.258 16.758 c -2.141 0 -3.867 1.727 -3.867 3.867 v 5.93 c 0 2.145 1.727 3.867 3.867 3.867 h 1.355 v -2.719 c 0 -1.238 1 -2.238 2.238 -2.238 h 9.855 c 1.238 0 2.238 1 2.238 2.238 v 2.719 h 1.352 c 2.145 0 3.867 -1.723 3.867 -3.867 v -5.93 c 0 -2.141 -1.723 -3.867 -3.867 -3.867 h -2.508 v 0.984 c 0 0.891 -0.711 1.602 -1.598 1.602 h -8.824 c -0.887 0 -1.598 -0.711 -1.598 -1.602 v -0.984"/><path d="m 18.367 26.473 h 8.828 c 0.883 0 1.598 0.715 1.598 1.602 v 5.77 c 0 0.887 -0.715 1.602 -1.598 1.602 h -8.828 c -0.883 0 -1.602 -0.715 -1.602 -1.602 v -5.77 c 0 -0.887 0.719 -1.602 1.602 -1.602"/><path d="m 19.02 11.04 h 7.52 c 0.754 0 1.367 0.609 1.367 1.363 v 4.918 c 0 0.754 -0.613 1.367 -1.367 1.367 h -7.52 c -0.754 0 -1.363 -0.613 -1.363 -1.367 v -4.918 c 0 -0.754 0.609 -1.363 1.363 -1.363"/></g><path d="m 41.35 31.914 c 0 5.5 -4.375 9.961 -9.766 9.961 c -5.395 0 -9.766 -4.461 -9.766 -9.961 c 0 -5.496 4.375 -9.957 9.766 -9.957 c 5.391 0 9.766 4.457 9.766 9.957" fill="#4b0081" fill-rule="evenodd"/><path d="m 35.742 37.867 l -3.297 -1.531 l -2.797 2.293 l -0.828 -3.461 l -3.586 -0.695 l 2.266 -2.789 l -1.676 -3.16 l 3.656 -0.016 l 1.492 -3.246 l 2.293 2.77 l 3.539 -0.887 l -0.797 3.469 l 2.922 2.141 l -3.285 1.555" fill="#fff"/></svg>