<svg xmlns="http://www.w3.org/2000/svg" viewBox="0 0 48 48"><path d="m 1.688 18.754 c 14.602 -44.602 72.79 3.281 31.703 25.953 c -16.07 9.719 -39.21 -3.01 -31.703 -25.953" fill="#ff8c00"/><g stroke="#fff"><g fill="none" transform="matrix(0.52159 0 0 0.56498 7.2 8.457)"><path d="m 19.747 52.39 l 12.896 -18.301"/><path d="m 21.44 8.947 l 0.24 15.473 l -14.342 4.923"/><path d="m 21.04 24.828 l 10.964 9.348"/></g><g fill="#fff"><path d="m -173.99 -4.501 c 0 5.253 -4.257 9.498 -9.506 9.498 c -5.249 0 -9.494 -4.244 -9.494 -9.498 c 0 -5.24 4.245 -9.498 9.494 -9.498 c 5.249 0 9.506 4.258 9.506 9.498" transform="matrix(0 0.32299 0.29818 0 19.557 81.71)"/><path d="m -174 -4.499 c 0 5.24 -4.245 9.498 -9.494 9.498 c -5.249 0 -9.506 -4.258 -9.506 -9.498 c 0 -5.253 4.257 -9.498 9.506 -9.498 c 5.249 0 9.494 4.244 9.494 9.498" transform="matrix(0 0.32299 0.29818 0 20.04 72.826)"/><path d="m -174 -4.506 c 0 5.253 -4.257 9.511 -9.506 9.511 c -5.237 0 -9.494 -4.258 -9.494 -9.511 c 0 -5.24 4.257 -9.498 9.494 -9.498 c 5.249 0 9.506 4.258 9.506 9.498" transform="matrix(0 0.32299 0.29818 0 18.422 97.65)"/><path d="m -174 -4.504 c 0 5.253 -4.257 9.498 -9.506 9.498 c -5.249 0 -9.494 -4.244 -9.494 -9.498 c 0 -5.24 4.245 -9.498 9.494 -9.498 c 5.249 0 9.506 4.258 9.506 9.498" transform="matrix(0 0.32299 0.29818 0 12.07 84.35)"/></g><g fill="none" transform="matrix(0.52159 0 0 0.56498 7.2 8.457)"><path d="m 32.561 33.775 l 11.286 -9.113 l 3.707 -16.6"/><path d="m 44.25 24.1 l 14.11 -2.337"/><path d="m 32.883 33.851 l 9.841 19.428"/></g><g fill="#fff"><path d="m -173.99 -4.502 c 0 5.253 -4.257 9.498 -9.506 9.498 c -5.249 0 -9.494 -4.244 -9.494 -9.498 c 0 -5.24 4.245 -9.498 9.494 -9.498 c 5.249 0 9.506 4.258 9.506 9.498" transform="matrix(0 0.32299 0.29818 0 31.24 81.71)"/><path d="m -174 -4.503 c 0 5.253 -4.257 9.498 -9.506 9.498 c -5.249 0 -9.494 -4.244 -9.494 -9.498 c 0 -5.24 4.245 -9.498 9.494 -9.498 c 5.249 0 9.506 4.258 9.506 9.498" transform="matrix(0 0.32299 0.29818 0 30.698 97.55)"/><path d="m -174 -4.504 c 0 5.253 -4.245 9.498 -9.494 9.498 c -5.249 0 -9.506 -4.244 -9.506 -9.498 c 0 -5.24 4.257 -9.498 9.506 -9.498 c 5.249 0 9.494 4.258 9.494 9.498" transform="matrix(0 0.32299 0.29818 0 33.35 72.55)"/><path d="m -174 -4.506 c 0 5.253 -4.245 9.511 -9.494 9.511 c -5.249 0 -9.506 -4.258 -9.506 -9.511 c 0 -5.24 4.257 -9.498 9.506 -9.498 c 5.249 0 9.494 4.258 9.494 9.498" transform="matrix(0 0.32299 0.29818 0 38.644 79.885)"/><path d="m -174 -4.498 c 0 5.24 -4.257 9.498 -9.506 9.498 c -5.249 0 -9.494 -4.258 -9.494 -9.498 c 0 -5.253 4.245 -9.498 9.494 -9.498 c 5.249 0 9.506 4.244 9.506 9.498" transform="matrix(0 0.32299 0.29818 0 25.548 86.85)"/></g></g></svg>