<svg xmlns="http://www.w3.org/2000/svg" viewBox="0 0 48 48"><path d="m 43.05 36.797 c 17.262 -24.387 -14.613 -49.09 -34.945 -29.22 c -19.16 18.719 -1.398 47.805 22.441 38.711 c 4.973 -1.898 9.336 -5.01 12.504 -9.488" fill="#ff8c00"/><g fill="#fff"><path d="m 12.11 17.223 v 3.504 h 1.957 v -1.527 h 1.527 v -1.977 m 2.508 0 v 1.977 h 2.508 v -1.977 m 2.508 0 v 1.977 h 2.504 v -1.977 m 2.258 0 v 1.977 h 1.531 v 1.527 h 1.957 v -3.504 m -19.234 5.867 v 2.512 h 1.957 v -2.512 m 15.344 0 v 2.512 h 1.957 v -2.512 m -19.258 5.02 v 2.512 h 1.957 v -2.512 m 15.344 0 v 2.512 h 1.957 v -2.512 m -19.258 5.03 v 3.5 h 3.484 v -1.977 h -1.527 v -1.523 m 15.344 0 v 1.523 h -1.527 v 1.977 h 3.484 v -3.504 m -13.266 1.527 v 1.977 h 2.508 v -1.977 m 2.508 0 v 1.977 h 2.504 v -1.977"/><path d="m 27.855 11.91 h 8.773 v 8.855 h -8.773"/></g></svg>