<svg xmlns="http://www.w3.org/2000/svg" viewBox="0 0 48 48"><path d="m 2.094 16.398 c -9.316 23.891 16.789 36.14 33.04 30.05 c 11.344 -4.25 16.996 -21.19 8.941 -34.879 c -10.168 -17.277 -34.801 -13.602 -41.984 4.824" fill="#ff8c00"/><path d="m 16.07 39.707 c -0.086 -0.086 -0.156 -0.297 -0.156 -0.465 c 0 -0.168 -0.117 -0.523 -0.254 -0.789 c -0.141 -0.266 -0.285 -0.637 -0.324 -0.828 c -0.055 -0.266 -0.172 -0.371 -0.492 -0.441 c -0.656 -0.141 -1.316 -0.523 -1.734 -1 c -0.367 -0.418 -0.516 -0.727 -0.777 -1.594 c -0.094 -0.32 -0.207 -0.406 -0.602 -0.469 c -0.266 -0.043 -0.586 -0.172 -0.707 -0.285 c -0.125 -0.113 -0.426 -0.227 -0.668 -0.25 c -0.887 -0.086 -0.871 -0.918 0.016 -0.996 c 0.254 -0.02 0.563 -0.152 0.688 -0.293 c 0.219 -0.242 0.219 -0.266 0 -0.504 c -0.125 -0.141 -0.434 -0.273 -0.688 -0.297 c -0.902 -0.078 -0.902 -0.91 0 -0.988 c 0.254 -0.023 0.563 -0.156 0.688 -0.297 c 0.219 -0.242 0.219 -0.262 0 -0.504 c -0.125 -0.141 -0.434 -0.273 -0.688 -0.293 c -0.914 -0.082 -0.895 -0.883 0.023 -1.031 c 0.266 -0.043 0.578 -0.176 0.691 -0.289 c 0.191 -0.195 0.191 -0.234 -0.027 -0.477 c -0.145 -0.16 -0.402 -0.266 -0.648 -0.266 c -0.477 0 -0.719 -0.199 -0.719 -0.598 c 0 -0.305 0.227 -0.445 0.711 -0.445 c 0.164 0 0.438 -0.109 0.602 -0.246 c 0.301 -0.246 0.305 -0.254 0.063 -0.523 c -0.137 -0.148 -0.387 -0.273 -0.559 -0.273 c -0.48 0 -0.816 -0.234 -0.816 -0.574 c 0 -0.328 0.215 -0.469 0.711 -0.469 c 0.164 0 0.438 -0.109 0.602 -0.246 c 0.301 -0.246 0.305 -0.254 0.063 -0.523 c -0.137 -0.148 -0.387 -0.273 -0.559 -0.273 c -0.48 0 -0.816 -0.234 -0.816 -0.574 c 0 -0.32 0.215 -0.465 0.691 -0.469 c 0.156 -0.004 0.426 -0.117 0.605 -0.254 c 0.309 -0.242 0.313 -0.262 0.098 -0.484 c -0.129 -0.129 -0.477 -0.293 -0.781 -0.363 c -0.492 -0.121 -0.547 -0.176 -0.547 -0.523 c 0 -0.344 0.055 -0.398 0.453 -0.465 c 0.516 -0.086 1.035 -0.34 1.035 -0.504 c 0 -0.203 -0.422 -0.465 -0.957 -0.598 c -0.477 -0.117 -0.531 -0.172 -0.531 -0.523 c 0 -0.348 0.051 -0.398 0.453 -0.453 c 0.504 -0.074 1.035 -0.379 1.035 -0.598 c 0 -0.184 -0.492 -0.449 -1.051 -0.563 c -0.77 -0.156 -0.594 -1.059 0.207 -1.059 c 0.148 0 0.5 -0.117 0.781 -0.258 c 0.277 -0.145 0.641 -0.262 0.801 -0.262 c 0.219 0 0.316 -0.094 0.371 -0.359 c 0.266 -1.246 0.949 -2.02 2.152 -2.43 c 0.809 -0.281 0.824 -0.293 0.895 -0.828 c 0.039 -0.301 0.168 -0.648 0.281 -0.777 c 0.113 -0.129 0.227 -0.438 0.25 -0.688 c 0.082 -0.859 1.016 -0.613 1.016 0.266 c 0 0.188 0.117 0.449 0.262 0.582 c 0.254 0.23 0.266 0.23 0.453 -0.012 c 0.184 -0.242 0.27 -0.496 0.352 -1.031 c 0.051 -0.352 0.613 -0.43 0.84 -0.121 c 0.09 0.129 0.168 0.391 0.168 0.582 c 0 0.188 0.121 0.453 0.27 0.59 c 0.262 0.238 0.273 0.238 0.516 -0.078 c 0.133 -0.176 0.246 -0.449 0.246 -0.605 c 0.008 -0.48 0.148 -0.695 0.469 -0.695 c 0.336 0 0.574 0.336 0.574 0.82 c 0 0.172 0.121 0.422 0.266 0.559 c 0.266 0.238 0.273 0.238 0.516 -0.078 c 0.137 -0.176 0.25 -0.449 0.25 -0.605 c 0.004 -0.473 0.148 -0.695 0.445 -0.695 c 0.395 0 0.594 0.242 0.594 0.723 c 0 0.25 0.105 0.508 0.273 0.656 c 0.266 0.246 0.273 0.242 0.52 -0.059 c 0.133 -0.168 0.246 -0.441 0.246 -0.605 c 0 -0.488 0.137 -0.715 0.441 -0.715 c 0.395 0 0.594 0.242 0.594 0.723 c 0 0.25 0.105 0.508 0.273 0.656 c 0.266 0.246 0.273 0.242 0.516 -0.059 c 0.137 -0.168 0.25 -0.441 0.25 -0.605 c 0 -0.488 0.137 -0.715 0.441 -0.715 c 0.379 0 0.594 0.238 0.594 0.664 c 0 0.191 0.117 0.488 0.258 0.656 l 0.262 0.309 l 0.258 -0.309 c 0.141 -0.168 0.258 -0.465 0.258 -0.656 c 0 -0.426 0.215 -0.664 0.598 -0.664 c 0.301 0 0.441 0.227 0.441 0.715 c 0 0.164 0.117 0.438 0.258 0.605 l 0.258 0.309 l 0.262 -0.309 c 0.141 -0.168 0.258 -0.465 0.258 -0.656 c 0 -0.426 0.215 -0.664 0.594 -0.664 c 0.305 0 0.441 0.227 0.441 0.715 c 0 0.164 0.113 0.438 0.25 0.605 c 0.242 0.301 0.25 0.305 0.516 0.059 c 0.168 -0.148 0.273 -0.406 0.273 -0.656 c 0 -0.48 0.199 -0.723 0.594 -0.723 c 0.293 0 0.441 0.223 0.441 0.66 c 0 0.137 0.117 0.438 0.258 0.672 c 0.145 0.234 0.262 0.59 0.262 0.789 c 0 0.387 0.121 0.465 1.141 0.742 c 0.938 0.254 1.629 1.129 2.043 2.578 c 0.027 0.09 0.152 0.164 0.281 0.164 c 0.129 0 0.434 0.109 0.684 0.242 c 0.25 0.133 0.668 0.281 0.93 0.328 c 0.324 0.063 0.508 0.18 0.563 0.359 c 0.113 0.352 -0.082 0.535 -0.742 0.695 c -0.719 0.18 -0.922 0.52 -0.512 0.859 c 0.168 0.141 0.469 0.254 0.664 0.254 c 0.414 0 0.691 0.27 0.629 0.613 c -0.031 0.156 -0.246 0.281 -0.652 0.383 c -0.336 0.086 -0.672 0.191 -0.746 0.238 c -0.395 0.246 0.16 0.852 0.785 0.852 c 0.805 0 0.813 0.844 0.012 0.988 c -0.617 0.113 -0.934 0.277 -0.934 0.492 c 0 0.285 0.453 0.602 0.859 0.602 c 0.438 0 0.699 0.207 0.699 0.543 c 0 0.27 -0.371 0.5 -0.805 0.504 c -0.336 0.008 -0.754 0.277 -0.754 0.492 c 0 0.223 0.543 0.547 0.91 0.547 c 0.391 0 0.648 0.219 0.648 0.543 c 0 0.266 -0.371 0.5 -0.805 0.504 c -0.328 0.008 -0.754 0.277 -0.754 0.48 c 0 0.246 0.48 0.559 0.859 0.559 c 0.438 0 0.699 0.203 0.699 0.543 c 0 0.27 -0.375 0.5 -0.816 0.5 c -0.172 0 -0.418 0.117 -0.547 0.262 c -0.227 0.25 -0.227 0.27 0 0.52 c 0.141 0.156 0.398 0.262 0.645 0.262 c 0.453 0 0.719 0.199 0.719 0.543 c 0 0.27 -0.375 0.5 -0.816 0.5 c -0.172 0 -0.418 0.117 -0.547 0.262 c -0.223 0.25 -0.223 0.27 -0.004 0.512 c 0.125 0.141 0.434 0.273 0.688 0.297 c 0.902 0.078 0.902 0.91 0 0.988 c -0.254 0.023 -0.563 0.156 -0.688 0.297 c -0.219 0.238 -0.219 0.262 0 0.504 c 0.125 0.141 0.434 0.273 0.688 0.293 c 0.887 0.078 0.902 0.91 0.016 0.996 c -0.242 0.023 -0.543 0.137 -0.668 0.25 c -0.125 0.113 -0.438 0.238 -0.695 0.281 c -0.434 0.07 -0.484 0.129 -0.621 0.672 c -0.32 1.262 -0.984 1.953 -2.254 2.332 c -0.684 0.203 -0.738 0.25 -0.809 0.676 c -0.039 0.25 -0.172 0.598 -0.293 0.77 c -0.121 0.172 -0.219 0.465 -0.219 0.648 c 0 0.391 -0.215 0.652 -0.539 0.652 c -0.266 0 -0.496 -0.371 -0.5 -0.809 c -0.004 -0.328 -0.273 -0.758 -0.477 -0.758 c -0.246 0 -0.559 0.48 -0.559 0.863 c 0 0.438 -0.199 0.703 -0.539 0.703 c -0.27 0 -0.496 -0.379 -0.496 -0.82 c 0 -0.172 -0.117 -0.422 -0.258 -0.551 c -0.25 -0.227 -0.27 -0.227 -0.52 0 c -0.141 0.129 -0.258 0.379 -0.258 0.551 c 0 0.453 -0.23 0.82 -0.52 0.82 c -0.289 0 -0.52 -0.367 -0.52 -0.82 c 0 -0.313 -0.352 -0.746 -0.602 -0.746 c -0.176 0 -0.418 0.504 -0.461 0.965 c -0.082 0.824 -0.906 0.77 -0.988 -0.066 c -0.043 -0.441 -0.336 -0.898 -0.578 -0.898 c -0.215 0 -0.473 0.438 -0.477 0.805 c -0.004 0.367 -0.297 0.762 -0.57 0.762 c -0.277 0 -0.469 -0.301 -0.469 -0.723 c 0 -0.379 -0.32 -0.844 -0.578 -0.844 c -0.184 0 -0.449 0.445 -0.457 0.758 c -0.004 0.438 -0.234 0.809 -0.5 0.809 c -0.344 0 -0.539 -0.266 -0.539 -0.723 c 0 -0.789 -0.816 -1.121 -0.969 -0.395 c -0.035 0.184 -0.098 0.477 -0.133 0.652 c -0.078 0.371 -0.512 0.555 -0.785 0.328 c -0.102 -0.086 -0.188 -0.348 -0.188 -0.578 c 0 -0.41 -0.32 -0.852 -0.621 -0.852 c -0.191 0 -0.359 0.34 -0.469 0.938 c -0.145 0.816 -0.984 0.793 -0.984 -0.027 c 0 -0.465 -0.406 -0.98 -0.688 -0.871 c -0.117 0.043 -0.242 0.246 -0.285 0.445 c -0.176 0.867 -0.59 1.277 -0.941 0.926 m 18.68 -4.809 l 0.34 -0.27 v -9.816 c 0 -9.473 -0.008 -9.828 -0.246 -10.125 l -0.25 -0.309 h -19.609 l -0.313 0.367 l -0.313 0.363 v 9.566 c 0 6.754 0.039 9.664 0.145 9.887 c 0.078 0.176 0.266 0.379 0.418 0.453 c 0.184 0.09 3.551 0.141 9.883 0.145 c 9.527 0.008 9.605 0.008 9.945 -0.262 m -17.09 -11.379 c -0.176 -0.129 -0.242 -0.352 -0.25 -0.824 c -0.02 -1.145 -0.316 -1.082 5.227 -1.082 c 3.625 0 4.922 0.039 5.04 0.156 c 0.086 0.086 0.156 0.457 0.156 0.828 c 0 1.152 0.23 1.102 -5.203 1.102 c -3.789 0 -4.773 -0.035 -4.969 -0.18 m 0.109 -3.074 c -0.367 -0.156 -0.527 -1.016 -0.281 -1.531 l 0.172 -0.363 l 3.367 -0.035 c 3.797 -0.039 3.691 -0.066 3.691 0.945 c 0 1.055 0.047 1.039 -3.52 1.07 c -1.734 0.016 -3.277 -0.023 -3.43 -0.086" fill="#fff"/></svg>