<svg xmlns="http://www.w3.org/2000/svg" viewBox="0 0 48 48"><path d="m 47.16 15.254 c 8.336 67.62 -87.51 11.57 -26.19 -13.262 c 10.77 -3.809 22.891 -0.504 26.19 13.262" fill="#ff8c00"/><g fill="#fff" stroke="#ffdeac"><path d="m 41.947 25.501 c 0 2.396 -1.992 4.341 -4.448 4.341 c -2.456 0 -4.448 -1.945 -4.448 -4.341 c 0 -2.396 1.992 -4.341 4.448 -4.341 c 2.456 0 4.448 1.945 4.448 4.341" transform="matrix(-0.72368 0 0 0.78106 38.965 4.809)" stroke-width="0.982"/><path d="m 9.405 12.345 l -5.187 5.185 l 5.657 5.657 l -6.467 6.471 l 5.187 5.185 l 6.467 -6.465 l 6.407 6.403 l 5.187 -5.185 l -6.407 -6.408 l 5.597 -5.594 l -5.193 -5.185 l -5.592 5.594" transform="matrix(-0.72368 0 0 0.75341 40.775 6.644)"/></g></svg>