
<svg xmlns="http://www.w3.org/2000/svg" xmlns:xlink="http://www.w3.org/1999/xlink" width="48px" height="48px" viewBox="0 0 48 48" version="1.1">
<g id="surface1">
<path style=" stroke:none;fill-rule:nonzero;fill:rgb(100%,54.901961%,0%);fill-opacity:1;" d="M 36.34375 4.027344 C 78.59375 39.863281 -8.277344 74.320312 0.648438 18.898438 C 2.605469 6.746094 24.957031 -5.628906 36.34375 4.027344 Z M 36.34375 4.027344 "/>
<path style="fill:none;stroke-width:2;stroke-linecap:square;stroke-linejoin:miter;stroke:rgb(100%,100%,100%);stroke-opacity:1;stroke-miterlimit:4;" d="M 10.998687 36.99858 L 36.999251 36.99858 " transform="matrix(1.035885,0,0,1.086523,-1.4715,-4.832625)"/>
<path style="fill:none;stroke-width:2;stroke-linecap:square;stroke-linejoin:miter;stroke:rgb(100%,100%,100%);stroke-opacity:1;stroke-miterlimit:4;" d="M 10.998687 33.000736 L 10.998687 17.469543 " transform="matrix(1.035885,0,0,1.086523,-1.4715,-4.832625)"/>
<path style="fill:none;stroke-width:2;stroke-linecap:square;stroke-linejoin:miter;stroke:rgb(100%,100%,100%);stroke-opacity:1;stroke-miterlimit:4;" d="M 13.001051 33.000736 L 13.001051 20.680042 " transform="matrix(1.035885,0,0,1.086523,-1.4715,-4.832625)"/>
<path style="fill:none;stroke-width:2;stroke-linecap:square;stroke-linejoin:miter;stroke:rgb(100%,100%,100%);stroke-opacity:1;stroke-miterlimit:4;" d="M 14.999644 33.000736 L 14.999644 23.58495 " transform="matrix(1.035885,0,0,1.086523,-1.4715,-4.832625)"/>
<path style="fill:none;stroke-width:2;stroke-linecap:square;stroke-linejoin:miter;stroke:rgb(100%,100%,100%);stroke-opacity:1;stroke-miterlimit:4;" d="M 16.998237 33.000736 L 16.998237 26.533001 " transform="matrix(1.035885,0,0,1.086523,-1.4715,-4.832625)"/>
<path style="fill:none;stroke-width:2;stroke-linecap:square;stroke-linejoin:miter;stroke:rgb(100%,100%,100%);stroke-opacity:1;stroke-miterlimit:4;" d="M 19.000601 33.000736 L 19.000601 29.693167 " transform="matrix(1.035885,0,0,1.086523,-1.4715,-4.832625)"/>
<path style="fill:none;stroke-width:2;stroke-linecap:square;stroke-linejoin:miter;stroke:rgb(100%,100%,100%);stroke-opacity:1;stroke-miterlimit:4;" d="M 20.999194 33.000736 L 20.999194 31.674113 " transform="matrix(1.035885,0,0,1.086523,-1.4715,-4.832625)"/>
<path style="fill:none;stroke-width:2;stroke-linecap:square;stroke-linejoin:miter;stroke:rgb(100%,100%,100%);stroke-opacity:1;stroke-miterlimit:4;" d="M 23.001558 33.000736 L 23.001558 30.843626 " transform="matrix(1.035885,0,0,1.086523,-1.4715,-4.832625)"/>
<path style="fill:none;stroke-width:2;stroke-linecap:square;stroke-linejoin:miter;stroke:rgb(100%,100%,100%);stroke-opacity:1;stroke-miterlimit:4;" d="M 25.000151 33.000736 L 25.000151 29.268935 " transform="matrix(1.035885,0,0,1.086523,-1.4715,-4.832625)"/>
<path style="fill:none;stroke-width:2;stroke-linecap:square;stroke-linejoin:miter;stroke:rgb(100%,100%,100%);stroke-opacity:1;stroke-miterlimit:4;" d="M 26.998744 33.000736 L 26.998744 27.70503 " transform="matrix(1.035885,0,0,1.086523,-1.4715,-4.832625)"/>
<path style="fill:none;stroke-width:2;stroke-linecap:square;stroke-linejoin:miter;stroke:rgb(100%,100%,100%);stroke-opacity:1;stroke-miterlimit:4;" d="M 29.001108 33.000736 L 29.001108 26.248981 " transform="matrix(1.035885,0,0,1.086523,-1.4715,-4.832625)"/>
<path style="fill:none;stroke-width:2;stroke-linecap:square;stroke-linejoin:miter;stroke:rgb(100%,100%,100%);stroke-opacity:1;stroke-miterlimit:4;" d="M 30.999701 33.000736 L 30.999701 24.192536 " transform="matrix(1.035885,0,0,1.086523,-1.4715,-4.832625)"/>
<path style="fill:none;stroke-width:2;stroke-linecap:square;stroke-linejoin:miter;stroke:rgb(100%,100%,100%);stroke-opacity:1;stroke-miterlimit:4;" d="M 32.998294 33.000736 L 32.998294 23.106791 " transform="matrix(1.035885,0,0,1.086523,-1.4715,-4.832625)"/>
<path style="fill:none;stroke-width:2;stroke-linecap:square;stroke-linejoin:miter;stroke:rgb(100%,100%,100%);stroke-opacity:1;stroke-miterlimit:4;" d="M 35.000658 33.000736 L 35.000658 21.765787 " transform="matrix(1.035885,0,0,1.086523,-1.4715,-4.832625)"/>
<path style="fill:none;stroke-width:2;stroke-linecap:square;stroke-linejoin:miter;stroke:rgb(100%,100%,100%);stroke-opacity:1;stroke-miterlimit:4;" d="M 36.999251 33.000736 L 36.999251 20.784302 " transform="matrix(1.035885,0,0,1.086523,-1.4715,-4.832625)"/>
</g>
</svg>
