<svg xmlns="http://www.w3.org/2000/svg" viewBox="0 0 48 48"><path d="m 6.082 35.668 c -16.977 -19.293 8.152 -39.719 22.875 -34.699 c 14.723 5.02 24.609 19.19 14.996 31.613 c -9.613 12.422 -19.06 24.406 -36.04 5.109" fill="#ff8c00"/><path d="m 19.625 12.926 l 4.918 -4.965 l 4.918 4.965 h -9.836 m 9.836 21.391 l -4.918 4.965 l -4.918 -4.965 h 9.836 m -10.379 -7.176 h -4.371 l -1.09 4.105 h -3.578 l 4.668 -15.258 h 4.531 l 4.734 15.258 h -3.715 l -1.18 -4.105 m -3.875 -2.48 h 3.375 l -0.949 -3.242 l -0.402 -1.477 l -0.367 -1.473 h -0.047 l -0.344 1.488 l -0.359 1.496 l -0.906 3.207 m 10.176 6.566 v -1.887 l 7.18 -10.348 v -0.086 h -6.512 v -2.898 h 10.938 v 2.023 l -7.02 10.207 v 0.09 h 7.137 v 2.898" fill="#fff"/></svg>