<svg xmlns="http://www.w3.org/2000/svg" viewBox="0 0 48 48"><path d="m 0.703 28.988 c 3.715 24.727 40.727 25.469 46.32 1.434 c 5.758 -19.461 -15.09 -35.37 -30.68 -28.992 c -10.441 3.01 -18.875 15.34 -15.637 27.559" fill="#ff8c00"/><path d="m 34.15 13.598 h -1.48 v -1.246 c 0 -0.684 -0.664 -1.242 -1.48 -1.242 c -0.813 0 -1.477 0.559 -1.477 1.242 v 1.246 h -11.844 v -1.246 c 0 -0.684 -0.668 -1.242 -1.48 -1.242 c -0.813 0 -1.48 0.559 -1.48 1.242 v 1.246 h -1.48 c -1.641 0 -2.945 1.117 -2.945 2.484 l -0.016 17.398 c 0 1.367 1.32 2.484 2.961 2.484 h 20.723 c 1.629 0 2.961 -1.117 2.961 -2.484 v -17.398 c 0 -1.367 -1.332 -2.484 -2.961 -2.484 m 0 19.883 h -20.723 v -12.43 h 20.723" fill="#fff"/></svg>