<svg xmlns="http://www.w3.org/2000/svg" viewBox="0 0 256 256"><g transform="translate(0 -796.36)"><path d="m 3.25 953.66 c 49.981 239.91 393.86 -17.642 187.29 -139.59 -80.25 -52.27 -213 16.2 -187.29 139.59 z" fill="#708090" color="#000"/><g transform="matrix(4.32304 0 0 4.0288 28.565 819.61)"><path d="M 29,12 29.062,12.062 29.219,12 29,12 Z m 2,2 11,11 0,-11 -11,0 z" fill-opacity="0.196"/><path d="m 29 1 l 13 13 h -11 c -0.971 0 -2 -1.029 -2 -2 v -11" fill-opacity="0.392" fill="#fff"/></g><path d="m 102.18 985.96 c -25.512 -7.109 -42.612 -33.04 -38.76 -58.767 1.67 -11.154 7.393 -21.927 15.924 -29.975 10.897 -10.279 21.994 -14.742 36.713 -14.764 28.47 -0.042 52.31 23.319 52.41 51.34 0.068 20.676 -11.225 39.26 -29.23 48.09 -8.169 4.01 -16.532 5.974 -18.496 4.344 -1.784 -1.481 -1.786 -30.672 -0.003 -31.29 11.06 -3.842 13.595 -5.218 18.315 -9.938 6.7 -6.7 9.714 -14.228 9.842 -24.584 0.081 -6.589 -0.315 -8.347 -3.207 -14.224 -3.758 -7.636 -8.782 -12.303 -17.579 -16.331 -5.02 -2.301 -6.758 -2.582 -13.93 -2.267 -13.162 0.579 -22.268 6.37 -28.392 18.06 -2.456 4.686 -2.771 6.359 -2.784 14.784 -0.013 8.234 0.343 10.262 2.666 15.22 4.604 9.823 10.357 14.336 24.594 19.292 0.977 0.34 1.211 4.131 1 16.216 -0.313 17.944 0.06 17.337 -9.08 14.789 z m 6.641 -37.477 c -5.34 -1.272 -12.1 -5.861 -15.83 -10.741 -14.738 -19.301 -1.448 -45.698 22.998 -45.679 8.06 0.01 14.77 2.846 20.16 8.541 11.355 11.989 11.09 28.25 -0.654 39.991 -7.734 7.734 -16.476 10.319 -26.677 7.889 z" transform="matrix(1.0648 0 0 1.04662 -5.05 -43.09)" fill="#9acd32"/></g></svg>