<svg xmlns="http://www.w3.org/2000/svg" viewBox="0 0 256 256"><g transform="translate(0 -796.36)"><path d="m 3.25 953.66 c 49.981 239.91 393.86 -17.642 187.29 -139.59 -80.25 -52.27 -213 16.2 -187.29 139.59 z" fill="#ff7111" color="#000"/><g transform="matrix(4.32304 0 0 4.0288 28.565 819.61)"><path d="M 29,12 29.062,12.062 29.219,12 29,12 Z m 2,2 11,11 0,-11 -11,0 z" fill-opacity="0.196"/><path d="m 29 1 l 13 13 h -11 c -0.971 0 -2 -1.029 -2 -2 v -11" fill-opacity="0.392" fill="#fff"/></g><path d="m 0.833 -5.725 c -0.647 0 -0.648 0.633 -0.648 0.633 v 7.613 c 0 0 0.001 0.633 0.648 0.633 h 6.474 c 0 0 0.648 0.001 0.648 -0.633 v -7.613 c 0 0 -0.001 -0.633 -0.648 -0.633 h -6.474 z m 3.237 1.11 c 1.533 0 2.775 1.242 2.775 2.775 0 1.533 -1.242 2.775 -2.775 2.775 h -2.775 v -2.775 c 0 -1.533 1.242 -2.775 2.775 -2.775 z m 0 1.11 c -0.916 0 -1.665 0.749 -1.665 1.665 0 0.916 0.749 1.665 1.665 1.665 0.916 0 1.665 -0.749 1.665 -1.665 0 -0.916 -0.749 -1.665 -1.665 -1.665 z" fill="#fff" transform="matrix(11.26336 0 0 11.1017 66.43 954.33)"/></g></svg>