<svg xmlns="http://www.w3.org/2000/svg" viewBox="0 0 256 256"><g transform="translate(0 -796.36)"><path d="m 3.25 953.66 c 49.981 239.91 393.86 -17.642 187.29 -139.59 -80.25 -52.27 -213 16.2 -187.29 139.59 z" fill="#e4e4e4" color="#000"/><g transform="matrix(4.32304 0 0 4.0288 28.565 819.61)"><path d="M 29,12 29.062,12.062 29.219,12 29,12 Z m 2,2 11,11 0,-11 -11,0 z" fill-opacity="0.196"/><path d="m 29 1 l 13 13 h -11 c -0.971 0 -2 -1.029 -2 -2 v -11" fill-opacity="0.392" fill="#fff"/><g transform="matrix(3.22612 0 0 3.17573 -7.456 -4.644)"><path d="m 8.835 7.894 c 0 0 -0.527 0.915 -0.9 1.28 c -0.229 0.224 -0.505 0.406 -0.798 0.536 -0.617 0.276 -1.964 0.5 -1.964 0.5 l 0.346 0.473 l -0.385 0.849 c 0 0 1.21 0.153 1.792 0.324 0.294 0.086 0.595 0.38 0.849 0.552 0.437 0.295 1.106 1.131 1.106 1.131 l 0.266 -0.532 l 0.94 -0.059 c 0 0 -0.347 -1.168 -0.426 -1.769 c -0.04 -0.304 -0.076 -0.618 -0.021 -0.92 0.094 -0.519 0.589 -1.467 0.589 -1.467 l -0.907 -0.045 z m -0.281 1.597 c 0.048 0.005 0.079 0.015 0.094 0.022 0.037 0.029 0.076 0.055 0.117 0.08 0.077 0.046 0.157 0.083 0.237 0.109 0.095 0.101 0.269 0.388 0.287 1.142 c 0.018 0.76 -0.18 1.053 -0.289 1.156 -0.112 0.057 -0.216 0.133 -0.31 0.225 -0.103 0.041 -0.397 -0.014 -1.017 -0.387 -0.671 -0.404 -0.771 -0.843 -0.785 -0.944 c 0.01 -0.123 0.003 -0.046 -0.016 -0.166 l 0.004 0.008 c 0 0 -0.055 -0.329 0.713 -0.864 c 0.515 -0.359 0.82 -0.395 0.965 -0.381 z" fill="#0c49a0"/><g fill="#246dd4"><circle r="1.5" cy="10.5" cx="5.5"/><circle r="1.5" cy="8.5" cx="9.5"/><circle r="1.5" cy="13.5" cx="9.5"/></g></g></g></g></svg>