<svg xmlns="http://www.w3.org/2000/svg" viewBox="0 0 256 256"><g transform="translate(0 -796.36)"><path d="m 3.25 953.66 c 49.981 239.91 393.86 -17.642 187.29 -139.59 -80.25 -52.27 -213 16.2 -187.29 139.59 z" fill="#b0e0e6" color="#000"/><g transform="matrix(4.32304 0 0 4.0288 28.565 819.61)"><path d="M 29,12 29.062,12.062 29.219,12 29,12 Z m 2,2 11,11 0,-11 -11,0 z" fill-opacity="0.196"/><path d="m 29 1 l 13 13 h -11 c -0.971 0 -2 -1.029 -2 -2 v -11" fill-opacity="0.392" fill="#fff"/></g><path d="m 86.23 949.17 c -1.615 -1.298 -1.615 -1.307 -1.83 -19.55 -0.258 -21.954 -1.195 -23.831 3.409 -24.942 2.042 -0.493 4.36 -0.605 4.727 -1.594 0.298 -0.8 0.864 -5.842 1.259 -11.205 0.262 -7.68 1.675 -9.935 5.08 -15.533 1.562 -2.628 3.996 -3.847 9.424 -4.723 8.589 -1.385 20.01 -0.622 24.711 1.65 4.737 2.289 6.392 7.284 7.096 21.421 0.529 10.631 -0.081 9.694 6.896 10.598 4.046 0.099 3.608 1.027 4.01 4.72 0.572 5.306 0.051 36.996 -0.632 38.504 -0.276 0.609 -1.638 1.294 -3.03 1.523 -1.388 0.228 -15.345 0.418 -31.01 0.422 -27.03 0.008 -28.573 -0.059 -30.11 -1.292 z m 34.508 -15.998 c 0.007 -0.561 0.38 -3.191 1.309 -5.105 2.057 -2.859 1.832 -7.903 -0.935 -9.829 -2.501 -1.741 -6.458 -1.114 -9.641 1.528 -1.686 1.4 -1.399 6.59 0.089 7.836 2.167 1.816 2.752 3.917 2.886 8.467 0.183 6.208 -0.282 6.393 3.166 5.958 3.218 0.391 3.577 -1.983 3.127 -8.856 z m 8.693 -37.39 c 0.662 -6.838 -0.758 -12.13 -5.693 -14.335 -4.741 -0.716 -9.419 -1.185 -13.6 0.255 -3.079 2 -3.97 5.933 -3.97 15.169 v 7.357 c 7.754 0 15.509 0 23.263 0 z" fill="#5593e1"/><rect width="113.98" height="31.774" x="58.5" y="965.61" rx="0.266" ry="7.955" fill="#fff"/><g fill="#5593e1" transform="translate(0 796.36)"><path d="m 55.4 207.17 l -2.143 -0.193 v -22.611 v -22.611 l 27.361 -0.185 c 15.05 -0.102 43.3 -0.101 62.791 0.001 l 35.43 0.185 v 22.558 v 22.558 l -13.995 0.332 c -14.361 0.341 -105.59 0.312 -109.44 -0.035 z m 12.569 -8.535 c 0.507 -0.459 0.922 -1.268 0.922 -1.798 0 -1.804 0.959 -2.818 2.993 -3.161 1.564 -0.264 2.218 -0.712 3.02 -2.063 1.276 -2.163 3.378 -2.427 3.866 -0.485 0.171 0.682 1.076 1.691 2.01 2.243 1.066 0.629 1.811 1.529 1.998 2.416 0.567 2.685 0.904 2.918 4.452 3.076 l 3.352 0.149 v -13.64 v -13.64 c -2.473 0 -4.947 0 -7.42 0 l -0.296 6.43 c -0.163 3.537 -0.51 7.111 -0.772 7.943 -0.551 2.322 -0.577 0.932 -0.855 -0.664 -0.51 -2.929 -1.329 -3.623 -4.274 -3.623 -2.742 0 -4.03 0.889 -4.03 2.774 0 0.654 -0.357 1.545 -0.793 1.981 -1.986 1.986 -2.685 0.414 -3.178 -7.144 -0.235 -3.607 -0.586 -6.814 -0.78 -7.128 -1.58 -0.751 -2.946 -0.57 -4.729 -0.57 l -0.364 6.795 c -0.53 9.892 -0.147 19.873 0.784 20.463 1.153 0.729 3.09 0.563 4.102 -0.353 z m 31.618 0.384 c 0.777 -0.492 1.528 -3.822 1.561 -6.92 l 0.022 -2.075 c 5.484 -0.752 10.17 -0.641 15.635 -0.641 0 -5.884 0 -11.768 0 -17.652 h -10.843 h -10.843 v 13.264 c 0 9.644 0.165 13.429 0.605 13.869 0.701 0.701 2.865 0.788 3.864 0.155 z m 43.821 0.133 c 1.119 -0.3 1.135 -0.418 1.135 -8.747 v -8.443 c -3.113 -0.342 -6.303 -0.639 -9.371 -0.648 -5.393 0.191 -5.759 -0.643 -5.759 -1.951 0 -1.316 0.58 -1.468 7.152 -1.873 7.643 -0.472 7.979 -0.618 7.979 -3.477 v -2.282 c -7.733 0 -15.466 0 -23.2 0 -0.08 5.516 0.056 11.03 0.191 16.54 l 7.01 0.308 c 3.752 0.165 6.908 -0.855 7.06 1.658 0.191 2.975 -2.603 2.027 -6.757 2.095 -3.723 0.061 -7 -0.216 -7.583 0.671 -0.24 0.367 -0.377 1.683 -0.304 2.924 0.194 3.334 0.853 3.527 11.983 3.528 5.132 0 9.841 -0.136 10.465 -0.304 z m 25.784 0.003 l 1.576 -0.315 v -13.554 v -13.554 c -7.901 0 -15.803 0 -23.704 0 v 13.381 v 13.381 l 1.135 0.456 c 1.288 0.518 18.585 0.686 20.993 0.205 z"/><path d="m 102.3 180.79 c -1.304 -0.524 -1.52 -2.25 -0.337 -2.704 1.035 -0.397 6.952 -0.397 7.987 0 1.263 0.485 0.955 2.181 -0.496 2.732 -1.59 0.605 -5.619 0.589 -7.154 -0.028 z"/><path d="m 155.13 184.59 v -6.809 h 3.783 h 3.783 v 6.809 v 6.809 h -3.783 h -3.783 v -6.809 z"/></g></g></svg>