<svg xmlns="http://www.w3.org/2000/svg" viewBox="0 0 256 256"><path d="m 52.781 231.02 c 192.46 127.95 311 -280.09 62.2 -226.07 c -102.82 23.02 -165.22 167.39 -62.2 226.07" fill="#ff8c00"/><path d="m 132.23 41.637 c -42.14 0 -76.31 36.777 -76.31 82.14 c 0 45.37 34.17 82.14 76.31 82.14 c 42.15 0 76.32 -36.773 76.32 -82.14 c 0 -45.36 -34.17 -82.14 -76.32 -82.14 m -32.703 46.938 c 6.04 0 10.898 5.27 10.898 11.734 c 0 6.469 -4.859 11.734 -10.898 11.734 c -6.04 0 -10.902 -5.266 -10.902 -11.734 c 0 -6.465 4.859 -11.734 10.902 -11.734 m 49.06 11.688 h 32.707 c 3.02 0 5.449 2.617 5.449 5.867 c 0 3.25 -2.43 5.867 -5.449 5.867 h -32.707 c -3.02 0 -5.453 -2.617 -5.453 -5.867 c 0 -3.25 2.434 -5.867 5.453 -5.867 m -47.16 44.945 c 8.168 8.801 19.254 13.762 30.809 13.773 c 11.559 -0.012 22.645 -4.961 30.813 -13.773 l 7.707 8.293 c -10.215 11.01 -24.07 17.203 -38.52 17.215 c -14.453 -0.012 -28.3 -6.207 -38.516 -17.215" fill="#fff"/></svg>