<svg xmlns="http://www.w3.org/2000/svg" viewBox="0 0 256 256"><path d="m 154.72 3.699 c 1.297 0.199 6.816 1.047 12.262 1.883 c 12.73 1.949 28.961 6.828 38.953 11.711 c 16.66 8.145 31.727 22.496 38.883 37.04 c 6.504 13.215 8.285 21.15 8.285 36.953 c 0 19.12 -3.383 33.508 -13.148 55.938 c -11.609 26.66 -27.01 50.13 -44.46 67.742 c -25.15 25.391 -48.746 38.2 -75.51 41.01 c -21.914 2.293 -40.727 -3.414 -58.22 -17.664 c -18.445 -15.03 -45.813 -57.781 -55.16 -86.18 c -4.926 -14.961 -5.656 -20.14 -5.656 -40.11 c 0 -17.1 0.16 -18.793 2.473 -26.12 c 5.137 -16.285 13.805 -30.41 25.684 -41.852 c 23.254 -22.398 58.08 -36.934 95.9 -40.03 c 11.07 -0.906 25.01 -1.063 29.719 -0.336" fill="#ff8c00"/><path d="m 122.78 54.07 c -36.988 0 -66.973 30.875 -66.973 68.965 c 0 38.09 29.984 68.965 66.973 68.965 c 36.988 0 66.973 -30.879 66.973 -68.965 c 0 -38.09 -29.984 -68.965 -66.973 -68.965 m -28.703 39.41 c 5.301 0 9.566 4.426 9.566 9.852 c 0 5.43 -4.266 9.855 -9.566 9.855 c -5.301 0 -9.566 -4.426 -9.566 -9.855 c 0 -5.426 4.266 -9.852 9.566 -9.852 m 57.41 0 c 5.301 0 9.566 4.426 9.566 9.852 c 0 5.43 -4.266 9.855 -9.566 9.855 c -5.301 0 -9.566 -4.426 -9.566 -9.855 c 0 -5.426 4.266 -9.852 9.566 -9.852 m -47.25 44.3 c 7.227 -0.996 15.348 1.941 22.723 9.547 c 5.609 5.762 9.438 6.395 13.156 5.852 c 3.723 -0.543 7.816 -2.906 11.664 -6.156 c 5.883 -7.793 15.711 4.434 7.176 8.926 c -4.488 3.793 -10.121 7.883 -17.348 8.926 c -7.223 1.055 -15.602 -1.598 -23.02 -9.242 c -5.645 -5.82 -9.223 -6.66 -12.859 -6.156 c -3.633 0.5 -7.93 3.02 -11.957 6.461 c -5.887 7.793 -15.711 -4.434 -7.176 -8.926 c 4.668 -4 10.418 -8.246 17.641 -9.242" fill="#fff"/></svg>