<svg xmlns="http://www.w3.org/2000/svg" viewBox="0 0 32 32"><path d="m 15.691 31.879 c 21.05 2.402 21.551 -31.988 0.348 -31.582 c -19.68 -1.133 -22.254 33.457 -0.348 31.582" fill="#3d8fdf"/><path d="m 11.08 26.777 c -0.25 -0.066 -0.453 -0.367 -0.453 -0.668 c -0.004 -0.109 0.094 -0.637 0.215 -1.18 c 0.117 -0.539 0.242 -1.211 0.277 -1.488 c 0.035 -0.277 0.121 -0.824 0.188 -1.219 c 0.207 -1.18 0.344 -3.871 0.277 -5.426 c -0.105 -2.352 -0.27 -3.672 -0.746 -5.977 c -0.32 -1.563 -0.227 -1.891 0.547 -1.891 c 0.582 0 0.672 -0.109 0.707 -0.863 c 0.051 -1.02 -0.219 -0.949 3.609 -0.949 c 3.867 0 3.641 -0.055 3.641 0.934 c 0 0.742 0.105 0.879 0.688 0.879 c 0.82 0 0.906 0.316 0.547 2.082 c -0.203 1 -0.445 2.438 -0.555 3.301 c -0.234 1.859 -0.211 5.691 0.043 7.406 c 0.313 2.078 0.395 2.566 0.551 3.258 c 0.238 1.031 0.234 1.465 -0.012 1.672 c -0.184 0.152 -0.406 0.16 -4.746 0.172 c -2.504 0.008 -4.656 -0.012 -4.777 -0.043 m 8.04 -1.414 c 0.098 -0.086 0.129 -0.199 0.09 -0.313 c -0.223 -0.645 -0.586 -2.977 -0.691 -4.414 c -0.164 -2.297 -0.063 -6.32 0.191 -7.375 c 0.047 -0.188 0.125 -0.68 0.18 -1.094 c 0.055 -0.418 0.16 -0.961 0.238 -1.211 c 0.23 -0.746 0.336 -0.719 -2.984 -0.75 c -3.098 -0.031 -3.77 0.008 -3.855 0.215 c -0.031 0.07 -0.004 0.305 0.055 0.516 c 0.063 0.211 0.172 0.781 0.242 1.27 c 0.07 0.488 0.168 1.133 0.215 1.434 c 0.047 0.301 0.133 1.383 0.191 2.41 c 0.117 2.027 0.016 4.758 -0.227 6.215 c -0.07 0.414 -0.152 0.926 -0.18 1.133 c -0.031 0.211 -0.121 0.715 -0.207 1.125 c -0.148 0.723 -0.148 0.75 0.02 0.863 c 0.141 0.094 0.781 0.117 3.371 0.117 c 2.852 0 3.219 -0.016 3.352 -0.141 m -3.801 -1.887 c -0.477 -0.344 -0.176 -1.086 0.445 -1.086 c 0.215 0 0.676 0.43 0.676 0.629 c 0 0.203 -0.461 0.633 -0.676 0.633 c -0.113 0 -0.316 -0.078 -0.445 -0.176 m 1.152 -5.715 c -0.477 -0.176 -0.484 -0.242 -0.484 -3.219 c 0 -2.262 0.023 -2.805 0.133 -3 c 0.227 -0.41 0.707 -0.465 1.055 -0.125 l 0.219 0.215 l 0.027 2.625 c 0.016 1.441 0.004 2.742 -0.023 2.891 c -0.098 0.488 -0.516 0.766 -0.926 0.613 m 1.277 -8.887 c 0.16 -0.055 0.195 -0.328 0.055 -0.41 c -0.07 -0.039 -2.781 -0.07 -4.01 -0.043 c -0.195 0.004 -0.293 0.242 -0.16 0.391 c 0.082 0.09 0.508 0.117 2.035 0.117 c 1.066 0 2 -0.023 2.078 -0.055" fill="#fff"/></svg>