
<svg xmlns="http://www.w3.org/2000/svg" xmlns:xlink="http://www.w3.org/1999/xlink" width="32px" height="32px" viewBox="0 0 32 32" version="1.1">
<g id="surface1">
<path style=" stroke:none;fill-rule:nonzero;fill:rgb(0%,39.215686%,0%);fill-opacity:1;" d="M 26.539062 5.472656 C 42.777344 18.578125 19.007812 42.238281 4.640625 27.125 C -9.761719 14.117188 12.710938 -11.128906 26.539062 5.472656 Z M 26.539062 5.472656 "/>
<path style="fill-rule:nonzero;fill:rgb(100%,100%,100%);fill-opacity:1;stroke-width:1;stroke-linecap:butt;stroke-linejoin:miter;stroke:rgb(100%,100%,100%);stroke-opacity:1;stroke-miterlimit:4;" d="M 126.9263 315.917624 C 102.266884 309.138772 83.157042 292.24234 73.508862 268.422253 C 69.022825 257.487236 68.347938 246.33795 68.448723 187.924029 L 68.579788 133.456658 L 61.583931 132.87182 C 57.728569 132.587492 53.889963 131.757769 53.004504 130.985063 C 51.66925 129.87984 51.432242 126.672916 51.410856 108.873684 C 51.426218 84.946324 51.022451 85.934015 60.725762 85.941451 C 67.637636 85.912983 68.669664 84.733527 68.397935 77.196166 C 68.08906 69.106373 68.248952 68.305874 70.01967 66.511005 C 71.349476 65.151395 76.145008 64.956131 107.399549 64.929893 C 134.54072 64.91419 143.348882 64.640479 143.684614 63.753422 C 143.905475 62.906126 144.894299 63.309019 146.510574 64.779482 C 148.656186 66.811881 148.939024 67.998733 149.25234 76.472414 L 149.600177 85.936251 L 156.066697 85.959154 C 166.977068 85.95991 166.424716 84.737871 166.44206 108.833776 C 166.445271 133.037353 166.781003 132.150296 156.533414 132.947931 L 149.942332 133.456348 L 149.667324 189.438158 C 149.492668 224.186859 149.805973 247.280999 150.434433 250.429514 C 150.950646 253.180067 151.894648 257.683979 152.417927 260.380697 C 153.492749 265.558788 156.207669 271.608112 160.717329 278.603617 C 163.756475 283.435832 173.067117 292.700907 175.698663 293.53731 C 179.85806 294.846982 197.334495 274.896867 199.034155 266.959794 C 199.325676 265.57414 200.232133 262.845058 201.086504 260.93055 C 202.173243 258.498797 202.807362 252.831969 203.16107 242.200286 C 203.81034 223.886275 203.651257 223.427439 195.649012 224.244437 C 191.202535 224.704307 189.969836 224.488606 188.374759 222.856635 C 186.578202 221.088843 186.419927 219.370672 186.426805 201.356097 C 186.408443 189.799704 186.845325 181.040662 187.439064 179.858741 C 188.304942 178.274284 189.6083 177.951628 194.76702 177.913299 C 198.273327 177.933021 201.51981 177.425995 202.211664 176.749708 C 202.971553 175.972788 203.405201 172.251085 203.396928 166.883694 C 203.412477 160.917072 203.815237 157.848435 204.736834 157.092627 C 206.701966 155.487416 281.058963 155.393827 282.984523 157.014188 C 284.024625 157.861842 284.440098 160.544484 284.436056 166.841158 C 284.437263 172.262385 284.880191 175.989019 285.603942 176.740612 C 286.280856 177.431331 289.56186 177.914462 293.068167 177.934183 C 298.273724 177.956728 299.546193 178.287138 300.379566 179.874418 C 300.999952 180.995823 301.418449 189.921303 301.448318 201.807749 C 301.405302 221.350837 301.395611 221.842396 299.221934 223.365621 C 297.536007 224.514461 295.693621 224.766741 292.189939 224.309296 C 284.643548 223.32403 284.41118 223.841275 284.412176 240.542679 C 284.426906 250.45585 283.968627 256.036118 283.022399 258.650491 C 282.254635 260.740582 281.305782 263.792679 280.925029 265.440474 C 278.461238 277.11086 264.77819 295.311155 251.940231 304.148604 C 236.576915 314.682395 226.850788 317.355135 206.921893 316.724492 C 193.768802 316.266648 189.304561 315.190967 179.805963 310.282013 C 176.989694 308.764394 176.497503 308.754891 173.831634 310.268614 C 170.638245 312.042012 163.893529 314.556426 158.443289 315.980409 C 154.127632 317.114458 131.052993 317.058751 126.9263 315.917624 Z M 158.700498 302.324422 C 163.189371 301.541537 163.394283 299.980301 159.552854 296.248021 C 153.52604 290.368633 147.233955 281.497664 143.505381 273.563732 C 136.813571 259.38378 136.434236 255.172624 136.448015 189.902559 L 136.418988 132.895405 L 109.357359 133.140526 L 82.288663 133.439483 L 82.406114 191.44383 C 82.447855 254.202263 82.754715 258.130165 88.039603 269.662305 C 96.247957 287.325755 113.269522 300.499767 131.305761 303.018876 C 137.120197 303.832774 152.085594 303.432069 158.700498 302.324422 Z M 222.123302 302.829307 C 226.422202 302.240653 231.05421 301.202666 232.40703 300.503159 C 233.813752 299.81069 237.567367 297.946161 240.793461 296.341307 C 251.297042 291.086917 264.891865 275.229709 266.951081 265.806349 C 267.360098 263.943211 268.259489 261.267964 269.00343 259.777104 C 270.988752 255.92944 272.190584 227.557291 270.436423 225.466484 C 269.398946 224.181106 265.428712 223.936539 243.992355 223.930453 C 225.738888 223.901864 218.508039 224.271994 217.626213 225.14251 C 216.805355 225.966229 216.431868 230.900469 216.446597 240.81364 C 216.422564 252.693047 216.035753 256.475624 214.344776 261.840192 C 210.021034 275.567589 202.160905 288.668995 193.216263 297.08387 C 191.710617 298.530039 190.453288 300.172904 190.429465 300.772135 C 190.412709 301.31753 192.997418 302.093059 196.184749 302.454442 C 199.318177 302.808788 202.38357 303.263768 202.908467 303.441816 C 205.061954 304.161044 214.638887 303.878189 222.123302 302.829307 Z M 287.092199 209.680369 C 287.622345 208.98297 287.756399 204.61981 287.49456 199.93117 L 286.91173 191.422301 L 244.505568 191.197252 C 211.202721 190.956062 201.909434 191.166433 201.28299 192.17981 C 199.908164 194.300158 200.247517 209.676782 201.700268 210.304521 C 202.379807 210.557517 221.643295 210.827493 244.556225 210.862087 C 276.788082 210.908689 286.418918 210.632872 287.092199 209.680369 Z M 271.019298 175.493522 C 271.357655 174.168741 271.295679 172.134593 270.951873 170.99454 C 270.2899 168.936814 269.91258 168.887551 243.612656 169.177362 C 218.688565 169.427772 216.914214 169.579418 216.580298 171.288086 C 216.399208 172.250092 216.529219 174.183606 216.844762 175.539002 L 217.464339 177.919743 L 243.944545 177.92726 L 270.370848 177.92774 Z M 151.873962 118.321469 C 153.090712 117.82323 153.431694 116.060726 153.431296 109.380164 C 153.45472 102.100372 153.178948 100.859685 151.484948 99.981414 C 150.154134 99.260079 135.388401 98.974995 107.726775 99.196537 L 65.917985 99.43279 L 65.63837 107.829058 C 65.468987 112.461396 65.550544 116.852706 65.836006 117.601834 C 66.294684 118.702127 74.270481 118.922083 108.31646 118.931748 C 131.398165 118.933619 150.95499 118.639553 151.873962 118.321469 Z M 135.306245 84.562842 C 136.148301 83.577616 136.195946 82.379155 135.451806 80.529734 L 134.483173 77.884388 L 108.183249 78.174199 L 81.944293 78.417213 L 81.579489 80.778948 C 80.840188 85.993976 80.408966 85.937676 108.265005 85.90579 C 129.0943 85.942134 134.396155 85.648702 135.306245 84.562842 Z M 135.306245 84.562842 " transform="matrix(0.0712475,-0.00931375,0.00935125,0.0713363,2.303375,4.87625)"/>
</g>
</svg>
