<svg xmlns="http://www.w3.org/2000/svg" viewBox="0 0 32 32"><path d="m 1.508 10.05 c -12.02 38.902 52.57 19.449 22.363 -7.207 c -6.05 -5.34 -19.12 -3.281 -22.363 7.207" fill="#1488e0"/><path d="m 15.848 9.551 c -3.03 0.004 -5.535 2.508 -5.715 5.719 c -1.73 0.195 -3.074 1.719 -3.074 3.609 c 0 2.02 1.535 3.648 3.437 3.648 h 10.707 c 2.328 0 4.203 -1.988 4.203 -4.461 c 0 -2.453 -1.852 -4.43 -4.156 -4.457 c -0.809 -2.43 -2.973 -4.055 -5.402 -4.059" fill-opacity="0.102"/><path d="m 15.09 8.738 c -3.03 0.004 -5.535 2.508 -5.719 5.719 c -1.73 0.195 -3.074 1.723 -3.074 3.609 c 0 2.023 1.535 3.652 3.441 3.652 h 10.703 c 2.328 0 4.203 -1.992 4.203 -4.461 c 0 -2.457 -1.848 -4.434 -4.156 -4.461 c -0.809 -2.43 -2.973 -4.055 -5.398 -4.059" fill="#00629a"/><path d="m 15.09 10.363 c -2.324 0 -4.207 1.996 -4.207 4.461 c 0 0.41 0.055 0.82 0.164 1.215 h -1.309 c -1.059 0 -1.914 0.906 -1.914 2.027 c 0 1.125 0.855 2.027 1.914 2.027 h 10.703 c 1.48 0 2.676 -1.266 2.676 -2.836 c 0 -1.574 -1.195 -2.84 -2.676 -2.84 c -1.148 0 -1.938 0.738 -2.332 1.457 h -0.004 c -0.141 0.242 -0.387 0.391 -0.652 0.391 c -0.426 0 -0.766 -0.363 -0.766 -0.813 c -0.02 -0.18 0.094 -0.32 0.133 -0.457 c 0.488 -0.875 1.242 -1.547 2.137 -1.906 c -0.656 -1.652 -2.18 -2.727 -3.867 -2.727" fill="#f9f9f9"/></svg>