<svg xmlns="http://www.w3.org/2000/svg" viewBox="0 0 32 32"><path d="m 21.21 30.742 c -15.93 6.211 -24.1 -11.195 -20.04 -22.03 c 2.832 -7.563 14.13 -11.328 23.254 -5.957 c 11.52 6.777 9.07 23.2 -3.215 27.988" fill="#778799"/><g fill="#5d422c"><path d="m 11.07 19.965 c -0.059 -0.074 -0.121 -0.383 -0.137 -0.695 c -0.105 -1.898 -0.293 -4.848 -0.32 -5.03 c -0.035 -0.211 -0.023 -0.219 0.48 -0.266 c 0.285 -0.027 1.84 -0.262 3.461 -0.52 c 1.621 -0.262 2.965 -0.453 2.984 -0.43 c 0.023 0.02 0.004 0.973 -0.043 2.113 c -0.078 1.973 -0.066 3.453 0.039 3.621 c 0.023 0.043 -0.07 0.078 -0.215 0.078 c -0.211 0 -5.316 1.039 -5.965 1.215 c -0.105 0.027 -0.219 -0.008 -0.285 -0.086"/><path d="m 17.801 22.621 c 0.031 -0.406 0.078 -1.41 0.109 -2.227 c 0.031 -0.816 0.086 -1.441 0.121 -1.387 c 0.043 0.074 0.66 -0.023 2.402 -0.387 c 1.289 -0.266 2.367 -0.461 2.398 -0.43 c 0.063 0.063 -0.172 1.996 -0.375 3.094 l -0.141 0.762 l -0.789 0.219 c -2.438 0.684 -3.477 0.98 -3.617 1.035 c -0.152 0.063 -0.156 0.031 -0.109 -0.68"/></g><g fill="#c78e62"><path d="m 9.816 12.309 c -1.027 -1.875 -1.492 -2.656 -1.68 -2.824 c -0.125 -0.109 -0.133 -0.156 -0.047 -0.227 c 0.059 -0.051 1.082 -0.223 2.27 -0.383 c 1.191 -0.16 2.34 -0.324 2.555 -0.363 l 0.395 -0.078 l 0.426 0.488 c 0.672 0.773 2.598 2.66 2.715 2.66 c 0.289 0.359 0.824 0.797 0.938 1.121 c -0.363 0.133 -6.04 1.047 -6.484 1.047 l -0.297 -0.004"/><path d="m 14.527 9.215 l -0.668 -0.613 l 0.293 -0.051 c 0.434 -0.078 2.172 -0.289 3.191 -0.391 l 0.902 -0.09 l 1.727 1.227 l -0.973 0.105 c -0.535 0.055 -1.496 0.176 -2.137 0.266 c -1.684 0.234 -1.566 0.254 -2.336 -0.453"/><path d="m 17.609 18.266 v -0.402 l 0.801 -0.148 c 0.961 -0.176 2.082 -0.449 2.262 -0.555 c 0.07 -0.039 0.152 -0.188 0.176 -0.324 c 0.023 -0.141 0.066 -0.367 0.094 -0.508 l 0.047 -0.258 l 0.559 0.574 c 0.305 0.316 0.672 0.66 0.813 0.762 c 0.141 0.105 0.254 0.254 0.254 0.332 c 0 0.113 -0.063 0.133 -0.332 0.113 c -0.188 -0.016 -1.176 0.156 -2.277 0.395 c -1.07 0.234 -2.047 0.422 -2.172 0.422 c -0.215 0 -0.223 -0.016 -0.223 -0.402"/></g><path d="m 22.711 17.664 c 0.004 -0.102 -0.34 -0.496 -0.902 -1.051 l -0.906 -0.891 l -0.094 0.582 c -0.055 0.324 -0.109 0.598 -0.125 0.617 c -0.152 0.156 -3.074 0.777 -3.172 0.676 c -0.031 -0.031 -0.012 -1.137 0.039 -2.453 c 0.09 -2.242 0.086 -2.402 -0.043 -2.48 c -0.074 -0.047 -0.355 -0.297 -0.621 -0.559 c -0.324 -0.316 -0.457 -0.5 -0.402 -0.559 c 0.082 -0.086 2.02 -0.426 2.43 -0.426 c 0.145 0 0.391 0.125 0.66 0.336 c 0.238 0.184 0.477 0.332 0.531 0.332 c 0.125 0 0.215 -0.684 0.227 -1.664 l 0.008 -0.703 c -0.141 -0.199 0.277 -0.219 0.441 -0.18 c 0 0.324 0.012 0.336 1.363 1.336 c 1.051 0.777 1.082 0.793 1.527 0.793 h 0.449 l -0.105 0.938 c -0.168 1.496 -0.668 5.172 -0.715 5.25 c -0.02 0.035 -0.121 0.066 -0.219 0.066 c -0.098 0 -0.223 0.047 -0.277 0.102 c -0.074 0.078 -0.094 0.063 -0.094 -0.063 m -1.355 -5.93 l 0.719 -0.133 l -0.184 -0.207 c -0.102 -0.117 -0.465 -0.43 -0.805 -0.699 l -0.617 -0.488 l -0.043 0.352 c -0.023 0.195 -0.055 0.57 -0.07 0.836 c -0.035 0.563 -0.082 0.547 1 0.34" fill="#a6a4af"/><g fill="#0d1127"><path d="m 11.188 25.03 c -0.297 -0.531 -0.57 -1.227 -1.555 -3.941 l -0.828 -2.293 l -0.164 -1.418 c -0.086 -0.777 -0.16 -1.512 -0.16 -1.625 c 0.004 -0.262 0.047 -0.164 1.25 2.617 c 0.492 1.141 0.949 2.105 1.012 2.141 c 0.066 0.035 1.41 -0.203 3.074 -0.547 c 1.629 -0.336 3.137 -0.641 3.355 -0.672 l 0.398 -0.059 l -0.004 0.531 c -0.004 1.32 -0.16 3.402 -0.273 3.668 c -0.172 0.414 -0.355 0.535 -1.141 0.773 c -0.77 0.23 -4.551 1.219 -4.668 1.219 c -0.039 0 -0.172 -0.18 -0.297 -0.395"/><path d="m 10.03 18.27 c -1.762 -4.078 -1.672 -3.824 -1.645 -4.586 c 0.02 -0.637 -0.09 -2.273 -0.207 -3.063 c -0.031 -0.219 -0.02 -0.305 0.035 -0.25 c 0.047 0.047 0.531 0.895 1.082 1.883 l 1 1.801 l 0.145 2.328 c 0.078 1.281 0.129 2.484 0.113 2.68 c -0.027 0.344 -0.039 0.328 -0.523 -0.793"/></g><path d="m 19.512 11.277 l -0.48 -0.375 l -0.523 0.055 c -0.285 0.027 -0.879 0.125 -1.32 0.215 c -0.438 0.086 -0.848 0.16 -0.902 0.16 c -0.059 0 -0.281 -0.176 -0.5 -0.387 c -1.078 -0.973 -0.25 -0.414 -0.676 -0.695 c -0.023 -0.043 0.109 -0.094 0.297 -0.121 c 2.836 -0.367 4.633 -0.57 4.676 -0.523 c 0.027 0.027 0.02 0.504 -0.02 1.051 l -0.07 1" fill="#675853"/></svg>