<svg xmlns="http://www.w3.org/2000/svg" viewBox="0 0 32 32"><path d="m 3.559 6.703 c -11.336 15.523 9.602 33.473 22.961 21.11 c 12.582 -11.648 0.914 -31.887 -14.742 -26.883 c -3.27 1.043 -6.137 2.93 -8.219 5.777" fill="#266994"/><g fill="#fff"><path d="m 252.71 147.63 c 0 44.493 -35.05 80.54 -78.25 80.54 c -43.23 0 -78.25 -36.05 -78.25 -80.54 c 0 -44.52 35.02 -80.57 78.25 -80.57 c 43.2 0 78.25 36.05 78.25 80.57" transform="matrix(0.15381 0 0 0.14706 -10.592 -5.788)" stroke="#fff" stroke-width="2.079"/><path d="m 252.71 147.62 c 0 44.501 -35.04 80.55 -78.26 80.55 c -43.19 0 -78.23 -36.05 -78.23 -80.55 c 0 -44.501 35.04 -80.58 78.23 -80.58 c 43.22 0 78.26 36.08 78.26 80.58" transform="matrix(0.14126 0 0 0.13632 -8.451 -4.136)" stroke="#e51926" stroke-width="2.492"/></g><g transform="matrix(0.11377 0 0 0.11581 1.554 1.108)"><g fill="#203d97" stroke="#203d97"><g stroke-width="1.706"><path d="m 77.39 191.88 c -7.04 -4.722 -14.867 -12.11 -19.949 -18.856 c -4.567 -6.04 -9.511 -15.584 -8.584 -16.528 c 0.412 -0.405 3.056 -0.641 5.871 -0.506 l 5.15 0.27 l 2.301 6.274 c 3.674 10.153 7.108 15.719 15.279 24.894 c 4.223 4.722 7.348 8.601 6.936 8.601 c -0.412 0 -3.571 -1.855 -7 -4.149"/><path d="m 91.78 194.51 c -2.987 -3.103 -6.661 -7.691 -8.172 -10.254 c -3.571 -5.97 -7.348 -17 -8.03 -23.376 l -0.515 -5.06 h 10.541 l 0.927 10.524 c 1.064 12.514 3.228 19.463 8.721 27.896 c 2.094 3.238 3.365 5.903 2.884 5.903 c -0.515 0 -3.365 -2.53 -6.352 -5.633"/><path d="m 98.72 192.05 c -4.876 -9.445 -4.807 -24.657 0.137 -33.12 c 1.305 -2.26 2.094 -2.732 4.979 -2.935 c 1.888 -0.135 3.434 -0.034 3.434 0.27 c 0 0.27 -1.27 2.968 -2.85 6 c -5.219 10.119 -6.489 17.743 -4.429 27.22 c 1.064 4.992 0.549 6.04 -1.27 2.564"/><path d="m 159.49 194 c 0.309 -1.383 0.858 -3.339 1.236 -4.385 c 1.133 -3.07 0.79 -13.459 -0.584 -18.249 c -0.721 -2.462 -2.575 -6.746 -4.12 -9.512 c -1.545 -2.766 -2.781 -5.228 -2.781 -5.464 c 0 -0.742 4.258 -1.45 5.871 -0.911 c 0.996 0.304 2.507 2.395 3.743 5.161 c 3.056 6.78 3.537 18.316 1.133 26.07 c -0.961 3.103 -2.472 6.544 -3.399 7.691 l -1.648 2.058"/><path d="m 162.24 199.77 c 0 -0.304 1.064 -2.125 2.369 -3.98 c 6.386 -9.344 8.927 -17.372 9.683 -30.898 l 0.515 -9.07 h 5.15 c 6.558 0 6.73 0.54 4.086 10.963 c -2.438 9.58 -5.871 16.866 -10.987 23.17 c -3.674 4.52 -10.816 10.996 -10.816 9.816"/><path d="m 180.37 190.63 c 3.434 -3.575 7.348 -7.961 8.721 -9.782 c 3.331 -4.385 7.829 -13.459 10.09 -20.407 l 1.82 -5.633 l 4.944 0.439 c 2.678 0.236 5.219 0.776 5.631 1.181 c 1.167 1.147 -4.361 11.604 -9.683 18.316 c -5.665 7.084 -11.503 12.481 -19.19 17.641 c -8.481 5.667 -9.06 5.228 -2.335 -1.754"/><path d="m 109.19 197.07 c -0.858 -1.99 -1.339 -5.667 -1.373 -10.457 c -0.069 -6.544 0.206 -7.961 2.266 -12.244 c 4.807 -9.883 11.297 -14.74 19.777 -14.808 c 8.03 -0.067 14.249 4.453 19.06 13.83 c 2.85 5.566 3.605 16.697 1.476 22.263 c -0.755 2.024 -1.717 3.677 -2.094 3.677 c -0.652 0 -2.197 -3.778 -4.086 -9.984 c -0.515 -1.653 -2.404 -4.689 -4.223 -6.746 c -5.322 -6.105 -12.12 -6.847 -18.644 -2.125 c -3.296 2.361 -7.485 9.512 -7.485 12.717 c 0 2.496 -1.648 6.949 -2.61 6.949 c -0.412 0 -1.373 -1.383 -2.06 -3.07 m 39.933 -9.04 c 0 -6.476 -4.635 -14.606 -10.404 -18.249 c -3.228 -2.058 -4.704 -2.462 -8.927 -2.462 c -4.395 0 -5.665 0.371 -9.06 2.665 c -4.395 2.935 -9.374 10.254 -9.305 13.695 c 0.034 2.361 -0.137 2.53 4.635 -4.318 c 1.476 -2.125 4.086 -4.52 5.974 -5.464 c 4.429 -2.26 11.331 -2.395 14.97 -0.27 c 3.537 2.058 7.623 7.556 9.408 12.615 c 1.614 4.486 2.713 5.228 2.713 1.788"/></g><g stroke-width="1.124"><path d="m 116.54 196.03 c 0.412 -5.33 3.777 -10.659 8.275 -13.02 c 2.61 -1.383 7.245 -1.079 10.507 0.708 c 4.12 2.226 7 7.185 6.421 10.996 c -0.137 0.978 -0.618 0.54 -2.747 -2.361 c -3.262 -4.554 -5.15 -5.701 -9.202 -5.701 c -5.803 0 -8.103 1.754 -10.507 8.06 c -1.991 5.195 -3.09 5.734 -2.747 1.316"/><path d="m 121.34 196.53 c 0.721 -1.923 1.408 -2.732 3.949 -4.587 c 3.537 -2.564 7.726 -1.889 10.816 1.754 c 0.755 0.911 1.408 2.327 1.408 3.103 c 0 1.417 -0.034 1.383 -2.301 -0.843 c -1.339 -1.282 -3.056 -2.429 -4.086 -2.631 c -2.301 -0.439 -5.94 0.944 -7.966 3.07 c -1.923 1.99 -2.575 2.058 -1.82 0.135"/></g><path d="m 134.67 205.44 c 0 3.137 -1.957 5.667 -4.326 5.667 c -2.404 0 -4.326 -2.53 -4.326 -5.667 c 0 -3.137 1.923 -5.667 4.326 -5.667 c 2.369 0 4.326 2.53 4.326 5.667" stroke-width="2.079"/></g><g fill="#f51722" stroke="#f51722" stroke-width="1.124"><path d="m 110.08 139.29 c -3.674 -3.845 -7.04 -10.09 -8.309 -15.381 c -1.064 -4.351 -0.824 -12.986 0.481 -17.844 c 2.438 -9.07 3.983 -11.975 14.455 -27.05 c 10.404 -14.943 10.713 -15.719 11.743 -27.22 l 0.687 -7.488 l 2.026 3.441 c 5.288 8.871 6.421 21.12 3.09 33.36 c -1.339 4.891 -2.026 6.24 -8.927 17.675 c -12.09 20.07 -13.46 24.523 -11.365 37.31 c 1.373 8.23 1.099 8.433 -3.88 3.204"/><path d="m 123.75 142.76 c -0.858 -2.631 -1.442 -7.353 -1.408 -11.3 c 0.034 -7.286 1.614 -11.06 11.194 -26.58 c 9.511 -15.381 11.4 -20.272 11.88 -30.459 c 0.412 -9.04 0.515 -9.276 2.472 -5.498 c 2.644 5.228 3.674 10.423 3.674 18.15 c -0.034 10.76 -1.682 17.574 -5.94 24.59 c -0.961 1.552 -4.429 6.105 -7.691 10.119 c -7.417 8.972 -9.271 11.84 -11.125 17.1 c -1.408 3.98 -2.541 5.397 -3.056 3.879"/><path d="m 135.77 141.99 c -0.549 -1.214 -0.446 -1.788 0.824 -4.216 c 0.79 -1.518 3.193 -4.722 5.288 -7.117 c 7.657 -8.568 12.807 -16.36 15.657 -23.511 c 0.652 -1.619 1.751 -5.599 2.438 -8.838 c 1.202 -5.701 1.579 -6.78 2.163 -6.207 c 0.824 0.81 2.404 8.23 2.953 13.56 c 1.064 11.03 -1.133 19.564 -6.936 26.816 c -2.369 3 -4.429 4.216 -8.206 4.992 c -1.614 0.337 -5.356 1.821 -8.241 3.272 l -5.288 2.631"/></g></g></svg>