<svg xmlns="http://www.w3.org/2000/svg" viewBox="0 0 32 32"><path d="m 30.527 23.566 c -6.297 15.12 -30.688 8.375 -30.527 -8.09 c -0.242 -14.969 19.15 -20.645 27.648 -9.984 c 4.25 4.613 5.734 12.25 2.879 18.08" fill="#999"/><path d="m 6.969 22.05 c -0.227 -0.227 -0.25 -0.418 -0.25 -2.188 c 0 -1.77 0.023 -1.957 0.25 -2.188 c 0.246 -0.246 0.418 -0.25 9.188 -0.25 c 8.773 0 8.941 0.004 9.188 0.25 c 0.23 0.23 0.25 0.418 0.25 2.188 c 0 1.77 -0.02 1.961 -0.25 2.188 c -0.246 0.246 -0.414 0.25 -9.188 0.25 c -8.77 0 -8.941 -0.004 -9.188 -0.25 m 7 -9 c -0.227 -0.227 -0.25 -0.418 -0.25 -2.188 c 0 -1.77 0.023 -1.957 0.25 -2.188 c 0.23 -0.227 0.418 -0.25 2.188 -0.25 c 2.574 0 2.438 -0.137 2.438 2.438 c 0 1.77 -0.02 1.961 -0.25 2.188 c -0.227 0.23 -0.414 0.25 -2.188 0.25 c -1.77 0 -1.957 -0.02 -2.188 -0.25" fill="#595959"/></svg>