<svg xmlns="http://www.w3.org/2000/svg" xmlns:xlink="http://www.w3.org/1999/xlink" viewBox="0 0 32 32"><defs><g id="3" clip-path="url(#2)"><path d="m 220.44 139.39 c 7.298 43.561 -27.906 83.989 -78.63 90.25 c -50.69 6.264 -97.73 -23.96 -105.03 -67.55 c -7.298 -43.587 27.875 -83.989 78.6 -90.28 c 50.721 -6.264 97.73 23.96 105.06 67.55" transform="matrix(0.12738 0 0 0.14967 -0.381 -5.858)" fill="#191c19" stroke="#727272" stroke-width="7.735"/></g><g id="6" clip-path="url(#5)"><path d="m 220.45 139.36 c 7.293 43.588 -27.902 84.01 -78.63 90.28 c -50.724 6.27 -97.75 -23.985 -105.04 -67.54 c -7.293 -43.588 27.865 -84.01 78.59 -90.28 c 50.724 -6.27 97.75 23.955 105.08 67.54" transform="matrix(0.10766 0 0 0.12833 2.153 -2.655)" stroke-dasharray="30.9408 7.73521" fill="#191c19" stroke="#727272" stroke-width="7.735"/></g><g id="9" clip-path="url(#8)"><path d="m 11.32 17.191 c 0.789 -0.453 2.668 -0.477 2.848 -0.879 c 0.117 -0.262 -0.531 -0.293 -0.605 -0.406 c -0.066 -0.086 -0.109 -0.102 -0.102 -0.031 c 0.023 0.262 -1.867 0.219 -3.02 0.48 c -1.23 0.281 -3.332 0.539 -2.01 1.746 c 1.484 1.352 0.805 0.289 2.887 -0.91" fill="#fff"/></g><g id="C" clip-path="url(#B)"><path d="m 20.602 9.688 c 1.543 2.191 -0.863 3.332 -1.926 4.641 l -0.875 1.078 l -0.055 -0.625 c -0.035 -0.391 0.023 -0.703 0.156 -0.836 c 0.113 -0.117 0.809 -0.332 1.07 -0.969 c 0.766 -1.867 0.684 -4.625 1.629 -3.289" fill="#fff"/></g><g id="F" clip-path="url(#E)"><path d="m 12.12 24.14 c -1.664 -1.844 0.023 -3.766 0.969 -5.289 l 0.902 -1.453 l 0.098 0.668 c 0.063 0.422 0.039 0.773 -0.059 0.941 c -0.09 0.148 -0.723 0.809 -0.891 1.551 c -0.484 2.176 -0.402 4.266 -1.02 3.582" fill="#fff"/></g><g id="I" clip-path="url(#H)"><path d="m 13.02 12.418 c 0.676 0.645 1.125 2.426 1.559 2.504 c 0.281 0.051 0.109 -0.57 0.188 -0.668 c 0.063 -0.082 0.063 -0.129 0 -0.105 c -0.238 0.086 -0.793 -1.715 -1.406 -2.746 c -0.648 -1.102 -1.555 -3.03 -2.27 -1.492 c -0.805 1.715 0.148 0.813 1.93 2.508" fill="#fff"/></g><g id="L" clip-path="url(#K)"><path d="m 17.445 21.555 c -0.379 -0.828 -0.969 -2.348 -0.902 -2.785 c 0.047 -0.281 0.125 -0.438 0.254 -0.488 c 0.102 -0.039 0.148 -0.027 0.105 0.027 c -0.168 0.207 0.57 1.727 1.414 2.566 c 0.902 0.898 1.871 1.5 1.664 2 c -0.793 1.938 -1.156 1.684 -2.535 -1.324" fill="#fff"/></g><g id="O" clip-path="url(#N)"><path d="m 21.01 18.609 c -0.816 -0.387 -2.496 -1.816 -2.723 -2.191 c -0.145 -0.246 -0.184 -0.414 -0.117 -0.539 c 0.055 -0.098 0.098 -0.121 0.098 -0.047 c 0.004 0.266 1.488 1.129 2.668 1.219 c 1.262 0.102 2.789 0.23 2.953 0.75 c 0.625 2 0.094 2.215 -2.879 0.809" fill="#fff"/></g><g id="R" clip-path="url(#Q)"><path d="m 15.555 17.723 c -0.324 -0.137 -0.465 -0.156 -0.578 -0.078 c -0.133 0.086 -0.148 0.059 -0.148 -0.223 c 0 -0.188 -0.094 -0.477 -0.223 -0.695 c -0.203 -0.34 -0.215 -0.406 -0.129 -0.773 c 0.078 -0.324 0.07 -0.449 -0.035 -0.672 l -0.133 -0.27 h 0.289 c 0.156 0 0.469 -0.102 0.695 -0.223 c 0.387 -0.207 0.426 -0.211 0.762 -0.082 c 0.195 0.074 0.477 0.113 0.625 0.09 c 0.258 -0.043 0.27 -0.027 0.324 0.332 c 0.031 0.207 0.133 0.508 0.23 0.672 c 0.141 0.242 0.152 0.328 0.07 0.492 c -0.059 0.113 -0.082 0.41 -0.063 0.688 c 0.039 0.477 0.035 0.488 -0.191 0.488 c -0.125 0 -0.41 0.102 -0.633 0.227 c -0.219 0.125 -0.41 0.223 -0.418 0.219 c -0.012 -0.004 -0.211 -0.09 -0.445 -0.191" fill="#fff"/></g><clipPath id="B"><path d="M 0,0 H32 V32 H0 z"/></clipPath><clipPath id="H"><path d="M 0,0 H32 V32 H0 z"/></clipPath><clipPath id="E"><path d="M 0,0 H32 V32 H0 z"/></clipPath><clipPath id="8"><path d="M 0,0 H32 V32 H0 z"/></clipPath><clipPath id="5"><path d="M 0,0 H32 V32 H0 z"/></clipPath><clipPath id="K"><path d="M 0,0 H32 V32 H0 z"/></clipPath><clipPath id="Q"><path d="M 0,0 H32 V32 H0 z"/></clipPath><clipPath id="2"><path d="M 0,0 H32 V32 H0 z"/></clipPath><clipPath id="N"><path d="M 0,0 H32 V32 H0 z"/></clipPath><filter id="0" filterUnits="objectBoundingBox" x="0" y="0" width="32" height="32"><feColorMatrix type="matrix" in="SourceGraphic" values="0 0 0 0 1 0 0 0 0 1 0 0 0 0 1 0 0 0 1 0"/></filter><mask id="D"><g filter="url(#0)"><path fill-opacity="0.902" d="M 0,0 H32 V32 H0 z"/></g></mask><mask id="M"><g filter="url(#0)"><path fill-opacity="0.902" d="M 0,0 H32 V32 H0 z"/></g></mask><mask id="P"><g filter="url(#0)"><path fill-opacity="0.902" d="M 0,0 H32 V32 H0 z"/></g></mask><mask id="1"><g filter="url(#0)"><path fill-opacity="0.902" d="M 0,0 H32 V32 H0 z"/></g></mask><mask id="4"><g filter="url(#0)"><path fill-opacity="0.902" d="M 0,0 H32 V32 H0 z"/></g></mask><mask id="J"><g filter="url(#0)"><path fill-opacity="0.902" d="M 0,0 H32 V32 H0 z"/></g></mask><mask id="A"><g filter="url(#0)"><path fill-opacity="0.902" d="M 0,0 H32 V32 H0 z"/></g></mask><mask id="7"><g filter="url(#0)"><path fill-opacity="0.902" d="M 0,0 H32 V32 H0 z"/></g></mask><mask id="G"><g filter="url(#0)"><path fill-opacity="0.902" d="M 0,0 H32 V32 H0 z"/></g></mask></defs><path d="m 26.598 5.59 c 16.211 13.09 -7.52 36.707 -21.863 21.617 c -14.375 -12.984 8.06 -38.19 21.863 -21.617" fill="#191c19"/><use xlink:href="#3" mask="url(#1)"/><use xlink:href="#6" mask="url(#4)"/><path d="m 8.516 15.23 v 1.559 h -1.07 v -1.559" fill="#7cfb00"/><use xlink:href="#9" mask="url(#7)"/><use xlink:href="#C" mask="url(#A)"/><use xlink:href="#F" mask="url(#D)"/><use xlink:href="#I" mask="url(#G)"/><use xlink:href="#L" mask="url(#J)"/><use xlink:href="#O" mask="url(#M)"/><path d="m 15.426 19.277 c -0.773 -0.25 -0.84 -0.25 -1.176 -0.051 l -0.355 0.211 v -0.527 c 0 -0.656 -0.418 -1.508 -0.832 -1.699 c -0.273 -0.125 -0.316 -0.227 -0.316 -0.801 c 0 -0.359 0.125 -1.059 0.273 -1.555 c 0.27 -0.895 0.273 -0.902 1.035 -1.285 c 0.422 -0.215 0.832 -0.504 0.906 -0.645 c 0.078 -0.141 0.152 -0.277 0.164 -0.305 c 0.016 -0.023 0.188 0.066 0.383 0.207 c 0.195 0.137 0.688 0.387 1.09 0.551 l 0.73 0.301 l 0.383 -0.367 l 0.379 -0.371 v 0.672 c 0 0.746 0.465 1.848 0.871 2.066 c 0.223 0.121 0.219 0.168 -0.074 1.098 l -0.309 0.965 l 0.266 0.383 c 0.301 0.426 0.305 0.422 -0.637 0.582 c -0.25 0.043 -0.723 0.25 -1.051 0.461 c -0.703 0.449 -0.668 0.449 -1.73 0.109" fill="#ce9bcf"/><use xlink:href="#R" mask="url(#P)"/><g fill="#7cfb00"><path d="m 15.551 7.82 h 1.551 v 1.074 h -1.551"/><path d="m 15.188 24.375 h 1.551 v 1.074 h -1.551"/><path d="m 24.434 15.18 v 1.559 h -1.074 v -1.559"/></g></svg>