<svg xmlns="http://www.w3.org/2000/svg" viewBox="0 0 32 32"><path d="m 225.58 1004.71 c 62.28 -95.22 12.03 -181.97 -58.53 -202.56 c -94.88 -27.688 -223.72 45.06 -138.81 195 c 33.719 59.59 152.94 75.38 197.34 7.563" transform="matrix(0 -0.125 0.125 0 -99.34 31.968)" fill="#546a2f" stroke="#546a2f"/><g transform="scale(0.125)"><path d="m 68.66 156.63 v -23.969 c -4.844 0 -9.688 0 -14.5 0 c 0 -4.469 0 -8.938 0 -13.406 c 4.844 0 9.688 0 14.531 0 l -0.281 -20.375 l -0.313 -20.375 l -6.969 -0.313 c -6.563 -0.313 -6.969 -0.5 -6.969 -3.063 c 0 -2.656 0.25 -2.75 7.719 -2.75 c 4.281 0 8.06 -0.5 8.438 -1.125 c 9.188 -1.688 16.25 -1.094 26.25 -1.094 v 11.06 c 0 14.03 0.438 14.594 11.781 14.594 c 7.563 0 8.313 0.188 8.313 2.219 c 0 1.875 0.719 2.25 4.438 2.25 c 3.75 0 4.469 -0.375 4.469 -2.25 c 0 -1.844 0.75 -2.219 4.469 -2.219 c 4.219 0 5.656 2.563 5.656 5.719 c 0.781 4.969 -4.719 1.594 -8.781 2.344 c -4.469 0.813 -11.09 -0.625 -14.594 -0.188 c -6.719 0.531 -8.688 0.594 -9.406 6.719 c -0.719 5.938 0.094 13.03 1.625 13.969 c 1.469 -0.344 0.469 0.688 2.094 0.188 c 0.969 2.375 1.594 2.5 13.344 2.5 c 11.06 0 12.531 -0.25 14.688 -2.375 c 4.03 -4.03 4.344 -20.75 0.375 -19.219 c -3.5 0.25 0.063 -2.531 1.25 -3 c 2.406 -0.906 2.781 -1.594 2.219 -3.875 c -0.688 -2.75 -0.656 -2.781 7.156 -2.781 c 7.06 0 7.813 0.219 7.813 2.219 c 0 1.875 0.75 2.25 4.469 2.25 c 3.719 0 4.469 -0.375 4.469 -2.25 c 0 -1.875 0.75 -2.219 4.781 -2.219 c 4.5 0 4.781 0.188 4.75 3.063 c -0.063 3.25 3.156 4.563 3.438 1.406 c 0.094 -0.938 0.219 -2.313 0.281 -3.063 c 0.094 -1.063 4.063 -1.406 15.75 -1.406 h 15.625 c 0 14.13 0 28.28 0 42.41 c -3.906 0.125 -7.813 0.25 -11.719 0.375 c 0.125 3 1.031 3.03 0.563 8.563 v 6.688 c 3.719 0 7.438 0 11.156 0 c 0 6 0 11.969 0 17.969 c -43.41 0.156 -86.84 -0.469 -130.28 -0.156 c -4.625 0.063 -4.75 0.125 -5.438 4.5 c -1.656 10.344 -2.656 2.969 -2.656 -19.531 m 103.16 2.438 c 3.781 -2.781 3.813 -21.563 0.031 -20.09 c -1.188 0.438 -1.469 0.094 -0.969 -1.188 c -8.5 -2.969 -19.09 -1.813 -22.813 -2.125 c -4.406 -0.625 -3.094 3.656 -5.625 3.688 c -2.188 0 -2.344 0.594 -2.344 8.094 c 0 4.438 0.5 8.844 1.094 9.75 c 1.313 1.656 1.313 -0.344 2.344 1.406 c 0.969 1.688 2.906 1.969 13.688 1.969 c 8.719 0 13.188 -0.469 14.594 -1.5 m 5.094 -25.875 c 0 -2.219 -0.563 -2.781 -2.781 -2.781 c -2.25 0 -2.781 0.563 -2.781 2.781 c 0 2.25 0.531 2.813 2.781 2.813 c 2.219 0 2.781 -0.563 2.781 -2.813 m -5.094 -7.625 c 3.781 -2.75 3.813 -21.531 0.031 -20.09 c -1.125 0.438 -1.469 0.125 -1.031 -1 c 0.781 -2.063 -3.375 -1.281 -13.12 -1.281 c -9.813 0 -14.531 -0.781 -13.75 1.281 c 0.469 1.219 0.063 1.5 -1.625 1.063 c -2.094 -0.531 -2.219 -0.063 -2.219 7.969 c 0 4.688 0.5 9.313 1.094 10.219 c 1.313 1.625 1.313 -0.344 2.344 1.406 c 0.969 1.656 2.906 1.938 13.688 1.938 c 8.719 0 13.188 -0.438 14.594 -1.469 m 23.469 -0.813 c 1.156 1.844 2.656 1.375 4.5 -1.469 c 1.75 -2.625 1.219 -6.844 -0.688 -5.656 c -0.563 0.344 -3.75 -0.938 -5.875 -1.125 c -3.313 -0.25 -4.563 0.969 -5.156 3.344 c 1.531 8.406 4.25 5.313 7.219 4.906 m -111.56 -17.219 c 1.219 -1.063 5.156 2.469 7.969 -0.688 c 2.031 -2.438 2.906 -4.656 0.594 -6.344 c -1.906 -1.406 -3.875 -2.75 -2.031 -4.813 c 2.781 -3.063 1.656 -9.594 -0.563 -9.875 c -3.03 -0.344 -3.375 -1.438 -6.125 -0.063 c -8.438 -0.375 0.438 0.781 -8.75 0.844 c -2.688 5.594 -1.438 5.875 -1.688 8.156 c 2.813 6.594 19.563 -2.469 19.375 5.563 c -6.094 0.875 -11.656 0.625 -15.844 0.594 c -2.969 0 -3.531 -1.406 -3.531 1.563 c 0.75 8.531 0.719 4.719 10.594 5.063 m 115.66 0.656 c 0.406 -4.25 0.781 -7.656 -1.125 -8.219 c -3.844 -0.188 -3.438 2.344 -6.219 0.313 c -4.531 2.188 -2.5 8.281 -1.563 9 c 3.438 0.531 7.313 0.844 8.906 -1.094" fill="#02812a" stroke="#02812a" stroke-width="0.084"/><path d="m 76.34 174.06 h 123.5 c 1.594 0 2.875 1.156 2.875 2.563 v 3.344 c 0 1.406 -1.281 2.563 -2.875 2.563 h -123.5 c -1.594 0 -2.875 -1.156 -2.875 -2.563 v -3.344 c 0 -1.406 1.281 -2.563 2.875 -2.563" fill="#efe58c" stroke="#546a2f" stroke-width="0.073"/></g><g fill="#dcdcdc" stroke="#546a2f" stroke-width="0.037" transform="matrix(0 0.125 -0.125 0 0 0)"><path d="m 140.13 -64.62 h 28.19 c 1.594 0 2.875 1.125 2.875 2.563 v 3.375 c 0 1.406 -1.281 2.531 -2.875 2.531 h -28.19 c -1.563 0 -2.844 -1.125 -2.844 -2.531 v -3.375 c 0 -1.438 1.281 -2.563 2.844 -2.563"/><path d="m 85.22 -63.781 h 28.19 c 1.563 0 2.844 1.125 2.844 2.563 v 3.375 c 0 1.406 -1.281 2.531 -2.844 2.531 h -28.19 c -1.563 0 -2.844 -1.125 -2.844 -2.531 v -3.375 c 0 -1.438 1.281 -2.563 2.844 -2.563"/></g></svg>