<svg xmlns="http://www.w3.org/2000/svg" viewBox="0 0 32 32"><path d="m 10.05 1.512 c 38.902 -12.02 19.445 52.56 -7.207 22.359 c -5.34 -6.05 -3.285 -19.12 7.207 -22.359" fill="#546a2f"/><path d="m 10.273 7.395 c 0.789 -0.543 1.664 -0.973 2.598 -1.273 c -0.227 0.586 -0.453 1.203 -0.676 1.848 c -0.625 -0.211 -1.27 -0.402 -1.922 -0.574 m 3.375 -1.383 l 1.758 1.512 c -0.035 0.035 -0.074 0.07 -0.113 0.109 c -0.313 0.293 -0.629 0.617 -0.922 0.965 c -0.043 0.051 -0.082 0.102 -0.125 0.152 c -0.441 -0.191 -0.91 -0.375 -1.406 -0.555 c 0.242 -0.703 0.492 -1.375 0.742 -2.01 c 0.023 -0.059 0.043 -0.117 0.066 -0.172 m 0.113 3.273 c -0.543 0.184 -1.055 0.438 -1.523 0.746 c 0.125 -0.406 0.254 -0.801 0.383 -1.191 c 0.398 0.145 0.777 0.293 1.141 0.445 m -2.25 0.793 c -0.527 0.031 -1.059 0.082 -1.594 0.156 c -0.078 -0.797 -0.082 -1.543 -0.031 -2.23 c 0.715 0.176 1.41 0.383 2.09 0.609 c -0.137 0.41 -0.27 0.824 -0.402 1.25 c -0.02 0.07 -0.043 0.145 -0.063 0.215 m -4.363 0.766 c 0.508 -0.926 1.156 -1.758 1.922 -2.477 c -0.027 0.625 -0.008 1.289 0.063 1.992 c -0.367 0.066 -0.734 0.145 -1.098 0.234 c -0.301 0.074 -0.598 0.156 -0.883 0.25 m 4.145 -0.066 c -0.406 0.387 -0.77 0.828 -1.07 1.305 c -0.09 -0.391 -0.164 -0.781 -0.223 -1.172 c 0.434 -0.059 0.867 -0.102 1.293 -0.133 m -1.703 2.051 c -0.473 0.289 -0.938 0.598 -1.387 0.93 c -0.039 0.031 -0.078 0.059 -0.121 0.09 c -0.367 -0.527 -0.684 -1.059 -0.953 -1.59 c -0.102 -0.203 -0.195 -0.398 -0.277 -0.59 c 0.426 -0.16 0.875 -0.297 1.344 -0.414 c 0.336 -0.082 0.676 -0.156 1.016 -0.219 c 0.09 0.598 0.215 1.195 0.379 1.793 m -3.676 2.988 c 0 -0.051 0 -0.105 0 -0.156 c 0 -1.074 0.168 -2.113 0.484 -3.086 c 0.008 0.016 0.016 0.031 0.02 0.043 c 0.293 0.578 0.637 1.152 1.039 1.723 c -0.57 0.469 -1.086 0.961 -1.543 1.477 m 3.57 -2.113 c -0.152 0.496 -0.246 1.02 -0.277 1.559 c -0.258 -0.285 -0.496 -0.574 -0.719 -0.863 c 0.039 -0.031 0.078 -0.059 0.121 -0.09 c 0.285 -0.211 0.578 -0.414 0.875 -0.605 m -0.617 2.367 c -0.305 0.453 -0.594 0.914 -0.855 1.387 c -0.637 -0.359 -1.191 -0.727 -1.672 -1.094 c 0.445 -0.512 0.957 -1 1.523 -1.473 c 0.305 0.398 0.641 0.789 1 1.18 m -2 3.855 c -0.41 -0.871 -0.699 -1.816 -0.844 -2.805 c 0.473 0.352 1.012 0.699 1.617 1.043 c -0.293 0.574 -0.551 1.164 -0.773 1.762 m 2.41 -3.234 c 0.086 0.57 0.246 1.121 0.469 1.633 c -0.047 -0.02 -0.094 -0.039 -0.137 -0.059 c -0.352 -0.16 -0.68 -0.32 -0.996 -0.484 c 0.207 -0.367 0.43 -0.734 0.664 -1.09 m 0.469 2.504 c -0.066 0.438 -0.117 0.941 -0.148 1.52 c -0.836 -0.035 -1.563 -0.129 -2.191 -0.27 c 0.234 -0.668 0.512 -1.32 0.832 -1.961 c 0.332 0.172 0.676 0.34 1.043 0.504 c 0.152 0.07 0.309 0.137 0.469 0.207 m 0.531 4.734 c 1.609 1.102 3.555 1.746 5.652 1.746 c 5.531 0 10.01 -4.484 10.01 -10.02 c 0 -5.531 -4.48 -10.02 -10.01 -10.02 c -0.52 0 -1.031 0.043 -1.527 0.117 l 2.059 1.77 l -0.316 0.258 c -0.02 0.016 -0.055 0.043 -0.105 0.086 c -0.086 0.074 -0.18 0.16 -0.281 0.254 c -0.285 0.266 -0.57 0.559 -0.836 0.875 c 0.328 -0.051 0.664 -0.078 1.01 -0.078 c 3.719 0 6.734 3.02 6.734 6.734 c 0 3.719 -3.02 6.734 -6.734 6.734 c -1.266 0 -2.453 -0.348 -3.465 -0.957 c -0.797 0.066 -1.539 0.094 -2.219 0.09 c -0.016 0.703 -0.008 1.504 0.031 2.406 m -0.703 -0.527 c -0.734 -0.605 -1.379 -1.309 -1.914 -2.098 c 0.566 0.105 1.203 0.176 1.906 0.203 c -0.016 0.57 -0.012 1.199 0.012 1.895 m 0.813 -3.914 c 0.313 0.449 0.672 0.855 1.078 1.215 c -0.414 0.02 -0.813 0.027 -1.191 0.027 c 0.027 -0.465 0.066 -0.875 0.113 -1.242" fill="#42af3e"/></svg>