<svg xmlns="http://www.w3.org/2000/svg" xmlns:xlink="http://www.w3.org/1999/xlink" viewBox="0 0 32 32"><defs><g id="3" clip-path="url(#2)"><path d="m 16.18 8.797 l -3.324 8.93 h 6.66 m -4.719 -11.32 h 2.777 l 6.902 17.945 h -2.551 l -1.648 -4.605 h -8.164 l -1.652 4.605 h -2.582"/></g><g id="6" clip-path="url(#5)"><path d="m 16.05 8.672 l -3.324 8.93 h 6.66 m -4.719 -11.324 h 2.777 l 6.902 17.949 h -2.547 l -1.652 -4.605 h -8.164 l -1.652 4.605 h -2.582" fill="#000036"/></g><clipPath id="2"><path d="M 0,0 H32 V32 H0 z"/></clipPath><clipPath id="5"><path d="M 0,0 H32 V32 H0 z"/></clipPath><filter id="0" filterUnits="objectBoundingBox" x="0" y="0" width="32" height="32"><feColorMatrix type="matrix" in="SourceGraphic" values="0 0 0 0 1 0 0 0 0 1 0 0 0 0 1 0 0 0 1 0"/></filter><mask id="4"><g filter="url(#0)"><path fill-opacity="0.8" d="M 0,0 H32 V32 H0 z"/></g></mask><mask id="1"><g filter="url(#0)"><path fill-opacity="0.263" d="M 0,0 H32 V32 H0 z"/></g></mask></defs><path d="m 16.301 31.828 c -3.297 -0.254 -7.16 -1.832 -9.852 -4.02 c -3.277 -2.664 -5.668 -6.75 -6.313 -10.777 c -0.766 -5.316 2.32 -11.04 5.809 -13.746 c 1.754 -1.324 4.074 -2.375 6.25 -2.832 c 5.66 -1.199 11.566 1.066 15.617 5.992 c 2.43 2.953 3.684 5.93 3.992 9.453 c 0.367 4.219 -1.301 8.746 -4.352 11.793 c -3.465 2.875 -7.03 4.434 -11.152 4.141" fill="#d7d7d7"/><path d="m 16.582 7.348 c -5.145 0 -9.316 4.133 -9.316 9.23 c 0 5.098 4.172 9.234 9.316 9.234 c 5.148 0 9.32 -4.137 9.32 -9.234 c 0 -5.098 -4.172 -9.23 -9.32 -9.23 m 0 5.848 c 1.887 0 3.418 1.516 3.418 3.383 c 0 1.871 -1.531 3.387 -3.418 3.387 c -1.887 0 -3.418 -1.516 -3.418 -3.387 c 0 -1.867 1.531 -3.383 3.418 -3.383" fill-opacity="0.102"/><path d="m 13.09 17.801 l -4.949 3.172 c 1.715 2.629 4.656 4.219 7.816 4.223 c 1.531 0 3.035 -0.375 4.387 -1.09 l -2.777 -5.16 c -0.496 0.266 -1.047 0.402 -1.605 0.402 c -1.16 0 -2.242 -0.582 -2.871 -1.547" fill="#a8cf36"/><path d="m 15.961 6.73 c -5.145 0 -9.316 4.133 -9.316 9.234 c 0 1.859 0.566 3.676 1.625 5.211 l 4.875 -3.305 c -0.391 -0.563 -0.598 -1.227 -0.602 -1.906 c 0 -1.871 1.531 -3.387 3.418 -3.387 c 1.887 0 3.418 1.516 3.418 3.387 h 5.902 c 0 -5.102 -4.172 -9.234 -9.32 -9.234" fill="#e38c53"/><path d="m 19.32 15.348 c 0.039 0.203 0.059 0.41 0.059 0.617 c 0 1.867 -1.531 3.383 -3.418 3.383 v 5.848 c 5.148 0 9.32 -4.133 9.32 -9.23 c -0.004 -0.207 -0.016 -0.41 -0.031 -0.617" fill="#59a3c8"/><use xlink:href="#3" mask="url(#1)"/><use xlink:href="#6" mask="url(#4)"/></svg>