<svg xmlns="http://www.w3.org/2000/svg" viewBox="0 0 32 32"><path d="m 17.344 0.422 c -19.01 -1.816 -24.13 28.836 -4.605 31.21 c 17.945 2.949 27.19 -24.832 9.355 -30.391 c -1.508 -0.609 -3.156 -0.598 -4.75 -0.824" fill="#8ebb8e"/><path d="m 22.11 17.441 c 0 3.035 -2.641 5.496 -5.898 5.496 c -3.258 0 -5.898 -2.461 -5.898 -5.496 c 0 -3.035 2.641 -5.496 5.898 -5.496 c 3.258 0 5.898 2.461 5.898 5.496" fill="#fff"/><path d="m 10.277 25.09 c -0.336 -0.156 -0.773 -0.609 -0.898 -0.934 c -0.043 -0.113 -0.473 -2.766 -0.957 -5.891 c -0.48 -3.129 -0.914 -5.895 -0.961 -6.152 c -0.145 -0.793 0.066 -1.484 0.563 -1.855 c 0.414 -0.309 -0.406 -0.152 7.469 -1.414 c 2.824 -0.449 5.301 -0.82 5.504 -0.82 c 0.773 0 1.414 0.555 1.566 1.348 c 0.039 0.223 0.215 1.316 0.387 2.43 c 0.168 1.113 0.59 3.777 0.938 5.918 c 0.582 3.637 0.621 3.922 0.535 4.316 c -0.133 0.602 -0.656 1.125 -1.242 1.242 c -0.828 0.172 -12.12 1.957 -12.355 1.957 c -0.133 -0.004 -0.379 -0.066 -0.547 -0.145 m 3.07 -4.621 l 0.152 -0.211 l -0.164 -1.066 c -0.094 -0.59 -0.156 -1.082 -0.141 -1.098 c 0.016 -0.012 0.254 0.219 0.531 0.516 c 0.809 0.871 1.074 0.828 1.566 -0.258 c 0.168 -0.367 0.32 -0.668 0.344 -0.668 c 0.023 -0.004 0.117 0.453 0.207 1.012 c 0.09 0.563 0.215 1.102 0.281 1.199 c 0.238 0.371 0.828 0.301 1.031 -0.121 c 0.078 -0.164 0.066 -0.363 -0.055 -1.125 c -0.082 -0.508 -0.133 -0.938 -0.113 -0.957 c 0.016 -0.02 0.234 0.18 0.477 0.445 c 0.359 0.383 0.492 0.48 0.68 0.48 c 0.348 0 0.457 -0.125 0.813 -0.898 c 0.176 -0.383 0.332 -0.664 0.348 -0.621 c 0.016 0.043 0.094 0.512 0.18 1.047 c 0.098 0.637 0.203 1.039 0.297 1.168 c 0.258 0.352 0.781 0.309 0.98 -0.078 c 0.113 -0.223 0.102 -0.363 -0.191 -2.277 c -0.355 -2.313 -0.395 -2.414 -0.922 -2.453 c -0.523 -0.039 -0.629 0.082 -1.133 1.34 c -0.25 0.625 -0.477 1.133 -0.504 1.133 c -0.027 0.004 -0.387 -0.402 -0.801 -0.895 c -0.793 -0.949 -0.91 -1.051 -1.223 -1.051 c -0.512 0 -0.602 0.121 -1.199 1.598 c -0.207 0.516 -0.398 0.93 -0.426 0.922 c -0.027 -0.008 -0.387 -0.414 -0.797 -0.898 c -0.867 -1.016 -1.051 -1.141 -1.465 -0.98 c -0.539 0.207 -0.543 0.246 -0.168 2.582 c 0.379 2.379 0.422 2.488 0.945 2.449 c 0.234 -0.02 0.352 -0.078 0.469 -0.234 m 1.898 -9.254 c 3.242 -0.516 5.938 -0.977 5.992 -1.023 c 0.285 -0.238 -0.043 -0.922 -0.441 -0.922 c -0.203 0 -11.207 1.734 -11.621 1.832 c -0.316 0.074 -0.5 0.336 -0.453 0.637 c 0.059 0.371 0.188 0.508 0.43 0.457 c 0.109 -0.023 2.852 -0.465 6.094 -0.98" fill="#373637"/><path d="m 8.871 12.09 c -0.082 -0.105 -0.156 -0.414 -0.129 -0.543 c 0.039 -0.168 0.156 -0.305 0.313 -0.375 c 0.191 -0.082 7.25 -1.223 10.863 -1.754 l 0.922 -0.137 l 0.129 0.063 c 0.172 0.086 0.32 0.328 0.336 0.547 c 0.008 0.109 -0.004 0.195 -0.031 0.227 c -0.051 0.066 -0.277 0.117 -1.281 0.293 c -1.918 0.336 -10.762 1.762 -10.934 1.762 c -0.086 0 -0.137 -0.023 -0.188 -0.086" fill="#05b1e4"/></svg>