<svg xmlns="http://www.w3.org/2000/svg" viewBox="0 0 32 32"><path d="m 28.734 24.398 c 11.402 -16.12 -9.656 -32.449 -23.09 -19.316 c -12.652 12.375 -0.922 31.602 14.828 25.59 c 3.285 -1.254 6.168 -3.313 8.262 -6.27" fill="#2c2c2c"/><path d="m 8.926 21.449 c -1.516 -0.406 -2.574 -1.508 -2.863 -2.984 c -0.316 -1.598 0.551 -3.27 2.086 -4.02 c 0.426 -0.207 0.496 -0.285 0.641 -0.707 c 0.227 -0.66 0.887 -1.289 1.555 -1.48 c 0.609 -0.176 0.875 -0.18 1.422 -0.02 c 0.52 0.152 0.633 0.098 0.996 -0.465 c 1 -1.559 3.02 -2.484 4.797 -2.207 c 2.281 0.355 4 2.078 4.262 4.262 c 0.043 0.371 0.125 0.723 0.18 0.789 c 0.055 0.066 0.324 0.148 0.59 0.184 c 1.047 0.133 2.098 0.922 2.59 1.938 c 0.352 0.961 0.402 2.02 -0.016 2.855 c -0.359 0.715 -0.973 1.297 -1.734 1.645 l -0.633 0.289 l -6.723 0.02 c -5.113 0.016 -6.828 -0.008 -7.148 -0.094" fill="#fff"/><path d="m 9.594 20.852 c -1.355 -0.344 -2.305 -1.289 -2.566 -2.551 c -0.281 -1.367 0.496 -2.797 1.871 -3.441 c 0.383 -0.176 0.445 -0.242 0.574 -0.605 c 0.203 -0.563 0.793 -1.102 1.391 -1.266 c 0.547 -0.148 0.781 -0.152 1.273 -0.016 c 0.465 0.129 0.566 0.086 0.891 -0.398 c 0.898 -1.332 2.699 -2.125 4.293 -1.887 c 2.047 0.305 3.586 1.777 3.816 3.648 c 0.039 0.313 0.113 0.617 0.164 0.672 c 0.047 0.055 0.285 0.125 0.527 0.156 c 0.938 0.113 1.879 0.789 2.32 1.656 c 0.313 0.82 0.355 1.727 -0.016 2.441 c -0.32 0.609 -0.871 1.109 -1.555 1.41 l -0.566 0.246 l -6.02 0.016 c -4.578 0.012 -6.109 -0.008 -6.398 -0.082"/></svg>