<svg xmlns="http://www.w3.org/2000/svg" viewBox="0 0 32 32" xmlns:xlink="http://www.w3.org/1999/xlink"><defs><linearGradient id="2" gradientUnits="userSpaceOnUse" y1="22.969" x2="0" y2="41.03" xlink:href="#1"/><linearGradient id="1" gradientUnits="userSpaceOnUse" x1="7.649" x2="41.862" gradientTransform="matrix(0 0.3705 -0.36175 0 33.508 6.167)"><stop stop-color="#fff"/><stop offset="1" stop-color="#fff" stop-opacity="0"/></linearGradient><radialGradient id="0" gradientUnits="userSpaceOnUse" cx="48.42" cy="-48.03" r="38.21" gradientTransform="matrix(0 0.55726 -0.9984 0.00051 -33.04 -22.676)"><stop stop-color="#fafafa"/><stop offset="1" stop-color="#e5e5e5"/></radialGradient></defs><path d="m 3.277 24.648 c -16.996 -35.25 47.605 -30.26 22.434 2.184 c -5.04 6.504 -17.852 7.32 -22.434 -2.184" fill="#778799"/><g fill-opacity="0.051"><path d="m 13.438 5.723 c -0.324 0 -0.637 0.117 -0.867 0.324 c -0.23 0.207 -0.359 0.488 -0.355 0.781 v 2.152 h -0.699 c -0.48 0 -0.918 0.258 -1.113 0.652 c -0.195 0.398 -0.113 0.859 0.211 1.184 l 3.051 3.121 c -0.035 0.059 -0.105 0.133 -0.133 0.188 c -0.117 0.258 -0.148 0.453 -0.148 0.66 v 0.07 l -0.059 -0.051 c -0.168 -0.152 -0.363 -0.289 -0.656 -0.391 c -0.152 -0.055 -0.32 -0.098 -0.586 -0.086 c -0.262 0.012 -0.637 0.113 -0.887 0.34 l -0.922 0.832 c -0.25 0.223 -0.363 0.559 -0.375 0.797 c -0.016 0.234 0.035 0.391 0.094 0.527 c 0.117 0.266 0.266 0.441 0.434 0.59 l 0.055 0.055 h -0.074 c -0.23 0 -0.445 0.027 -0.734 0.133 c -0.145 0.055 -0.324 0.117 -0.512 0.289 c -0.184 0.172 -0.375 0.496 -0.375 0.832 v 1.188 c 0 0.336 0.191 0.66 0.375 0.832 c 0.188 0.172 0.367 0.234 0.512 0.289 c 0.285 0.105 0.504 0.137 0.734 0.137 h 0.074 l -0.055 0.051 c -0.168 0.148 -0.316 0.324 -0.434 0.594 c -0.059 0.133 -0.109 0.289 -0.094 0.523 c 0.012 0.238 0.125 0.574 0.375 0.801 l 0.922 0.828 c 0.25 0.227 0.625 0.328 0.887 0.34 c 0.262 0.012 0.434 -0.031 0.586 -0.082 c 0.297 -0.105 0.492 -0.242 0.656 -0.391 l 0.059 -0.051 v 0.066 c 0 0.207 0.031 0.402 0.148 0.66 c 0.063 0.133 0.133 0.293 0.32 0.461 c 0.191 0.164 0.555 0.34 0.926 0.34 h 1.316 c 0.371 0 0.734 -0.176 0.926 -0.34 c 0.188 -0.168 0.262 -0.328 0.32 -0.461 c 0.117 -0.258 0.148 -0.453 0.148 -0.66 v -0.066 l 0.059 0.051 c 0.168 0.148 0.359 0.285 0.66 0.391 c 0.148 0.051 0.32 0.094 0.582 0.082 c 0.262 -0.012 0.637 -0.113 0.887 -0.34 l 0.922 -0.832 c 0.25 -0.223 0.363 -0.559 0.375 -0.797 c 0.016 -0.234 -0.035 -0.391 -0.094 -0.523 c -0.117 -0.27 -0.266 -0.445 -0.434 -0.594 l -0.055 -0.051 h 0.074 c 0.23 0 0.445 -0.031 0.734 -0.137 c 0.145 -0.055 0.324 -0.117 0.512 -0.289 c 0.184 -0.172 0.375 -0.496 0.375 -0.832 v -1.188 c 0 -0.336 -0.191 -0.66 -0.375 -0.832 c -0.188 -0.172 -0.367 -0.234 -0.512 -0.289 c -0.285 -0.105 -0.504 -0.133 -0.734 -0.133 h -0.074 l 0.055 -0.055 c 0.168 -0.148 0.316 -0.324 0.434 -0.594 c 0.059 -0.133 0.109 -0.289 0.094 -0.523 c -0.012 -0.238 -0.125 -0.574 -0.375 -0.797 l -0.922 -0.832 c -0.25 -0.227 -0.625 -0.328 -0.887 -0.34 c -0.262 -0.012 -0.434 0.031 -0.586 0.086 c -0.297 0.105 -0.492 0.238 -0.656 0.391 l -0.059 0.051 v -0.07 c 0 -0.207 -0.031 -0.402 -0.152 -0.66 c -0.055 -0.121 -0.137 -0.273 -0.301 -0.426 l 2.848 -2.883 c 0.32 -0.324 0.402 -0.785 0.207 -1.184 c -0.195 -0.395 -0.633 -0.652 -1.113 -0.652 h -0.695 v -2.152 c 0 -0.293 -0.129 -0.574 -0.359 -0.781 c -0.227 -0.207 -0.539 -0.324 -0.867 -0.324 m -1.617 13.188 c 0.254 0 0.449 0.176 0.449 0.406 c 0 0.23 -0.195 0.406 -0.449 0.406 c -0.258 0 -0.453 -0.176 -0.453 -0.406 c 0 -0.23 0.195 -0.406 0.453 -0.406"/><path d="m 13.383 6.301 c -0.301 0.023 -0.531 0.254 -0.527 0.527 v 2.73 h -1.34 c -0.227 0 -0.43 0.121 -0.523 0.309 c -0.094 0.184 -0.059 0.402 0.09 0.559 l 3.484 3.547 c -0.098 0.031 -0.207 0.051 -0.266 0.102 c -0.102 0.086 -0.152 0.176 -0.188 0.254 c -0.07 0.156 -0.094 0.309 -0.094 0.457 v 0.898 c -0.148 0.051 -0.289 0.109 -0.43 0.172 l -0.715 -0.645 c -0.121 -0.109 -0.254 -0.191 -0.434 -0.258 c -0.09 -0.031 -0.199 -0.055 -0.34 -0.051 c -0.141 0.008 -0.324 0.055 -0.453 0.172 l -0.922 0.832 c -0.129 0.117 -0.184 0.281 -0.191 0.406 c -0.004 0.129 0.023 0.227 0.059 0.305 c 0.07 0.164 0.16 0.285 0.281 0.391 l 0.719 0.648 c -0.07 0.125 -0.137 0.254 -0.191 0.387 h -0.996 c -0.168 0 -0.336 0.023 -0.508 0.086 c -0.09 0.031 -0.188 0.078 -0.285 0.172 c -0.098 0.09 -0.188 0.25 -0.188 0.422 v 1.188 c 0 0.172 0.09 0.332 0.188 0.426 c 0.098 0.09 0.195 0.137 0.285 0.168 c 0.172 0.066 0.34 0.086 0.508 0.086 h 0.996 c 0.055 0.137 0.121 0.262 0.191 0.391 l -0.719 0.645 c -0.121 0.109 -0.211 0.227 -0.281 0.391 c -0.035 0.082 -0.063 0.18 -0.059 0.305 c 0.008 0.125 0.063 0.293 0.191 0.406 l 0.922 0.832 c 0.129 0.117 0.313 0.164 0.453 0.172 c 0.141 0.004 0.25 -0.02 0.34 -0.051 c 0.18 -0.066 0.313 -0.148 0.434 -0.258 l 0.715 -0.641 c 0.141 0.063 0.281 0.121 0.434 0.168 v 0.902 c 0 0.148 0.023 0.301 0.094 0.457 c 0.035 0.078 0.086 0.164 0.188 0.254 c 0.102 0.09 0.281 0.172 0.473 0.172 h 1.316 c 0.191 0 0.371 -0.082 0.473 -0.172 c 0.102 -0.086 0.152 -0.176 0.188 -0.254 c 0.074 -0.156 0.094 -0.309 0.094 -0.457 v -0.902 c 0.152 -0.047 0.293 -0.105 0.434 -0.168 l 0.719 0.645 c 0.117 0.109 0.254 0.191 0.434 0.254 c 0.09 0.031 0.199 0.059 0.336 0.051 c 0.141 -0.004 0.324 -0.051 0.453 -0.168 l 0.926 -0.836 c 0.129 -0.117 0.18 -0.281 0.188 -0.406 c 0.008 -0.129 -0.02 -0.227 -0.055 -0.305 c -0.074 -0.164 -0.168 -0.281 -0.285 -0.391 l -0.719 -0.648 c 0.07 -0.125 0.137 -0.25 0.191 -0.391 h 0.996 c 0.168 0 0.336 -0.02 0.508 -0.082 c 0.09 -0.035 0.184 -0.078 0.285 -0.172 c 0.098 -0.09 0.188 -0.25 0.188 -0.422 v -1.191 c 0 -0.172 -0.09 -0.332 -0.188 -0.422 c -0.102 -0.09 -0.195 -0.137 -0.285 -0.168 c -0.172 -0.066 -0.34 -0.086 -0.508 -0.086 h -0.996 c -0.055 -0.137 -0.121 -0.262 -0.191 -0.391 l 0.719 -0.645 c 0.117 -0.109 0.211 -0.227 0.281 -0.391 c 0.035 -0.078 0.063 -0.18 0.059 -0.305 c -0.008 -0.125 -0.063 -0.293 -0.191 -0.406 l -0.922 -0.832 c -0.129 -0.113 -0.313 -0.164 -0.453 -0.168 c -0.141 -0.008 -0.25 0.02 -0.34 0.051 c -0.18 0.063 -0.313 0.145 -0.434 0.254 l -0.715 0.645 c -0.141 -0.063 -0.281 -0.121 -0.434 -0.172 v -0.898 c 0 -0.148 -0.023 -0.301 -0.094 -0.457 c -0.035 -0.078 -0.086 -0.168 -0.188 -0.254 c -0.102 -0.09 -0.281 -0.172 -0.473 -0.172 h -0.094 l 3.41 -3.477 c 0.148 -0.156 0.184 -0.371 0.09 -0.559 c -0.09 -0.188 -0.297 -0.305 -0.52 -0.309 h -1.34 v -2.73 c 0 -0.141 -0.059 -0.277 -0.172 -0.375 c -0.109 -0.098 -0.258 -0.152 -0.414 -0.152 h -3.617 c -0.02 0 -0.035 0 -0.055 0 m 2.055 12.03 c 0.602 0 1.09 0.441 1.09 0.984 c 0 0.543 -0.488 0.984 -1.09 0.984 c -0.605 0 -1.094 -0.441 -1.094 -0.984 c 0 -0.543 0.488 -0.984 1.094 -0.984"/></g><path d="m 13.438 6.828 v 3.258 h -1.922 l 3.73 3.801 l 3.73 -3.801 h -1.922 v -3.258 m -2.277 7.602 c -0.105 0 -0.172 0.16 -0.172 0.355 v 1.238 c -0.418 0.086 -0.813 0.242 -1.168 0.441 l -0.98 -0.883 c -0.152 -0.137 -0.32 -0.199 -0.395 -0.133 l -0.922 0.828 c -0.074 0.066 -0.004 0.219 0.152 0.359 l 0.977 0.879 c -0.223 0.32 -0.395 0.676 -0.488 1.055 h -1.375 c -0.219 0 -0.395 0.059 -0.395 0.152 v 1.188 c 0 0.094 0.176 0.152 0.395 0.152 h 1.375 c 0.094 0.379 0.266 0.734 0.488 1.055 l -0.977 0.879 c -0.156 0.141 -0.227 0.293 -0.152 0.359 l 0.922 0.832 c 0.074 0.063 0.242 0 0.395 -0.137 l 0.98 -0.883 c 0.355 0.199 0.75 0.355 1.168 0.441 v 1.238 c 0 0.195 0.066 0.355 0.172 0.355 h 1.316 c 0.105 0 0.172 -0.16 0.172 -0.355 v -1.238 c 0.418 -0.086 0.813 -0.242 1.168 -0.441 l 0.98 0.883 c 0.152 0.137 0.32 0.199 0.395 0.137 l 0.922 -0.832 c 0.074 -0.066 0.004 -0.219 -0.148 -0.359 l -0.98 -0.879 c 0.223 -0.32 0.395 -0.676 0.488 -1.055 h 1.375 c 0.219 0 0.398 -0.059 0.398 -0.152 v -1.188 c 0 -0.094 -0.18 -0.152 -0.398 -0.152 h -1.375 c -0.094 -0.379 -0.266 -0.734 -0.488 -1.055 l 0.98 -0.879 c 0.152 -0.141 0.223 -0.293 0.148 -0.359 l -0.922 -0.828 c -0.074 -0.066 -0.242 -0.004 -0.395 0.133 l -0.98 0.883 c -0.355 -0.199 -0.75 -0.355 -1.168 -0.441 v -1.238 c 0 -0.195 -0.066 -0.355 -0.172 -0.355 m -0.656 3.375 c 0.922 0 1.676 0.684 1.676 1.512 c 0 0.832 -0.758 1.512 -1.676 1.512 c -0.922 0 -1.68 -0.684 -1.68 -1.512 c 0 -0.832 0.758 -1.512 1.68 -1.512" fill="url(#0)"/><g fill="none"><path d="m 28.923 15.469 l -4.924 5.712 l -5.04 -5.683 h 2.54 v -5.999 h 5 v 5.999" transform="matrix(0.60286 0 0 0.54303 0.779 1.94)" stroke="url(#1)" stroke-width="0.998"/><path d="m 23.441 23.468 c -0.013 0.058 -0.032 0.101 -0.032 0.187 v 2.28 c 0 0.23 -0.156 0.424 -0.376 0.475 c -0.641 0.144 -1.238 0.403 -1.782 0.748 c -0.188 0.115 -0.434 0.094 -0.596 -0.065 l -1.62 -1.626 c -0.058 -0.05 -0.084 -0.065 -0.13 -0.094 l -1.218 1.223 c 0.026 0.036 0.039 0.072 0.097 0.122 l 1.62 1.626 c 0.156 0.158 0.188 0.403 0.065 0.59 c -0.343 0.547 -0.603 1.144 -0.752 1.784 c -0.045 0.216 -0.24 0.374 -0.467 0.374 h -2.281 c -0.084 0 -0.136 0.022 -0.188 0.029 v 1.755 c 0.052 0.007 0.097 0.029 0.188 0.029 h 2.281 c 0.227 0 0.421 0.158 0.467 0.374 c 0.149 0.64 0.408 1.237 0.752 1.784 c 0.123 0.187 0.091 0.432 -0.065 0.59 l -1.62 1.626 c -0.058 0.058 -0.071 0.086 -0.097 0.129 l 1.218 1.216 c 0.045 -0.029 0.071 -0.043 0.13 -0.094 l 1.62 -1.626 c 0.162 -0.158 0.408 -0.18 0.596 -0.065 c 0.544 0.345 1.14 0.604 1.782 0.755 c 0.22 0.043 0.376 0.245 0.376 0.468 v 2.28 c 0 0.086 0.019 0.129 0.032 0.187 h 1.749 c 0.006 -0.058 0.026 -0.101 0.026 -0.187 v -2.28 c 0 -0.223 0.156 -0.424 0.376 -0.468 c 0.641 -0.151 1.238 -0.41 1.782 -0.755 c 0.188 -0.115 0.434 -0.094 0.596 0.065 l 1.626 1.626 c 0.052 0.05 0.084 0.065 0.123 0.094 l 1.218 -1.216 c -0.026 -0.043 -0.039 -0.072 -0.091 -0.129 l -1.626 -1.626 c -0.156 -0.158 -0.181 -0.403 -0.065 -0.59 c 0.343 -0.547 0.603 -1.144 0.752 -1.784 c 0.045 -0.216 0.24 -0.374 0.467 -0.374 h 2.281 c 0.091 0 0.136 -0.022 0.188 -0.029 v -1.755 c -0.052 -0.007 -0.097 -0.029 -0.188 -0.029 h -2.281 c -0.227 0 -0.421 -0.158 -0.467 -0.374 c -0.149 -0.64 -0.408 -1.237 -0.752 -1.784 c -0.117 -0.187 -0.091 -0.432 0.065 -0.59 l 1.626 -1.626 c 0.052 -0.05 0.065 -0.086 0.091 -0.122 l -1.218 -1.223 c -0.039 0.029 -0.071 0.043 -0.123 0.094 l -1.626 1.626 c -0.162 0.158 -0.408 0.18 -0.596 0.065 c -0.544 -0.345 -1.14 -0.604 -1.782 -0.748 c -0.22 -0.05 -0.376 -0.245 -0.376 -0.475 v -2.28 c 0 -0.086 -0.019 -0.129 -0.026 -0.187 m -0.875 5.28 c 1.788 0 3.246 1.46 3.246 3.251 c 0 1.791 -1.458 3.251 -3.246 3.251 c -1.795 0 -3.253 -1.46 -3.253 -3.251 c 0 -1.791 1.458 -3.251 3.253 -3.251" transform="matrix(0.60286 0 0 0.54303 0.779 1.94)" stroke="url(#2)"/></g></svg>