<svg xmlns="http://www.w3.org/2000/svg" viewBox="0 0 32 32"><path d="m 26.21 28.516 c -19.2 14.828 -39.12 -22.1 -15.355 -27.5 c 14.965 -5.535 29.578 16.508 15.355 27.5" fill="#86cefa"/><g fill="#fff"><path d="m 15.184 8.422 c -0.785 -0.125 -1.48 0.301 -1.828 0.961 c -0.992 1.328 -1.941 1.902 -2.566 2.141 c -0.453 0.176 -0.746 0.641 -0.746 1.152 c 0 0.668 0.504 1.207 1.125 1.207 h 1.934 c 0.008 0 0.016 0.008 0.016 0.02 v 7.82 c 0 1.051 0.734 2 1.711 2.047 c 1.027 0.047 1.875 -0.828 1.875 -1.922 v -11.434 c 0 -0.965 -0.629 -1.848 -1.52 -1.988"/><path d="m 18.609 21.695 c 0 1.098 0.867 1.984 1.938 1.984 c 1.07 0 1.938 -0.887 1.938 -1.984 c 0 -1.094 -0.867 -1.984 -1.938 -1.984 c -1.07 0 -1.938 0.891 -1.938 1.984"/></g></svg>