<svg xmlns="http://www.w3.org/2000/svg" viewBox="0 0 32 32"><path d="m 10.191 0.563 c 45.08 -5.559 7.715 58.34 -8.84 17.461 c -2.539 -7.184 -0.336 -15.262 8.84 -17.461" fill="#f4f4f4"/><path d="m 110.84 252.06 c -15.09 -3 -31.19 -11.438 -45.34 -23.75 c -22.875 -19.844 -49.625 -65.06 -58.28 -98.41 c -2.625 -10.219 -2.875 -12.531 -2.844 -29.25 c 0.031 -18.875 0.719 -23.375 5.594 -36.656 c 9.688 -26.375 31.844 -46.41 62.09 -56.16 c 9.188 -2.938 17.875 -4.125 38.09 -5.188 l 13.781 -0.719 v 251.63 l -3.281 -0.094 c -1.781 -0.063 -6.219 -0.688 -9.844 -1.406" transform="scale(0.125)" fill="#bbb" stroke="#bbb"/><path d="m 14.621 27.13 c -0.863 -0.188 -1.789 -0.629 -2.168 -1.035 c -0.137 -0.148 -0.383 -0.523 -0.547 -0.836 c -0.379 -0.723 -0.414 -1.633 -0.098 -2.379 l 0.203 -0.473 l -0.313 -0.555 c -0.668 -1.184 -1.043 -1.988 -1.199 -2.563 c -0.297 -1.109 -0.418 -1.754 -0.418 -2.25 c -0.004 -0.633 -0.168 -0.805 -0.609 -0.621 c -0.777 0.316 -1.203 0.328 -2.055 0.047 c -0.715 -0.234 -0.879 -0.336 -1.465 -0.898 c -0.602 -0.586 -0.656 -0.672 -0.656 -1.035 c 0 -0.492 0.207 -0.766 0.988 -1.324 c 0.699 -0.496 1.633 -0.832 2.305 -0.828 c 0.387 0.004 0.652 0.09 1.293 0.43 c 0.445 0.238 0.848 0.395 0.887 0.355 c 0.043 -0.043 -0.059 -0.379 -0.223 -0.746 c -0.379 -0.84 -0.453 -1.602 -0.238 -2.445 c 0.176 -0.688 0.289 -0.875 0.531 -0.875 c 0.246 0 0.445 0.277 0.613 0.848 c 0.242 0.832 0.625 1.441 1.133 1.813 c 0.609 0.441 0.859 0.477 1.594 0.238 c 0.828 -0.27 2.09 -0.27 2.672 -0.004 c 0.551 0.25 0.879 0.242 1.438 -0.043 c 0.754 -0.387 1.352 -1.207 1.488 -2.047 c 0.129 -0.777 0.676 -0.941 0.898 -0.273 c 0.242 0.746 0.25 1.594 0.023 2.34 c -0.117 0.375 -0.273 0.734 -0.348 0.797 c -0.184 0.152 -0.176 0.469 0.008 0.543 c 0.082 0.031 0.223 -0.016 0.316 -0.098 c 0.094 -0.086 0.469 -0.293 0.832 -0.465 c 0.703 -0.324 1.602 -0.43 1.871 -0.215 c 0.074 0.059 0.336 0.176 0.582 0.258 c 0.555 0.188 1.461 0.852 1.711 1.258 c 0.125 0.203 0.172 0.402 0.141 0.594 c -0.07 0.41 -0.949 1.215 -1.746 1.598 c -0.848 0.406 -1.445 0.461 -2.121 0.191 c -0.473 -0.188 -0.531 -0.191 -0.738 -0.055 c -0.207 0.137 -0.23 0.219 -0.23 0.895 c -0.004 1.344 -0.523 2.902 -1.488 4.457 c -0.344 0.559 -0.348 0.641 -0.086 1.352 c 0.234 0.629 0.152 1.633 -0.184 2.262 c -0.262 0.496 -0.871 1.207 -1.035 1.207 c -0.051 0 -0.211 0.086 -0.359 0.191 c -0.242 0.176 -1.945 0.594 -2.297 0.566 c -0.078 -0.008 -0.488 -0.086 -0.906 -0.176 m 2.133 -0.969 c 0.645 -0.168 1.254 -0.664 1.551 -1.262 c 0.449 -0.891 0.406 -1.203 -0.379 -2.82 c -0.656 -1.344 -1.059 -2.625 -1.059 -3.352 c 0 -0.332 0.293 -1.484 0.449 -1.766 c 0.18 -0.32 1.051 -1.156 1.535 -1.469 c 0.277 -0.18 0.504 -0.391 0.504 -0.473 c 0 -0.398 -0.602 -1.094 -1.355 -1.563 c -0.402 -0.25 -1.836 -0.594 -2.473 -0.594 c -0.742 0 -1.941 0.32 -2.465 0.656 c -0.691 0.449 -1.262 1.102 -1.262 1.445 c 0 0.234 0.094 0.336 0.613 0.68 c 1.176 0.762 1.641 1.527 1.746 2.852 c 0.09 1.113 -0.148 2.027 -0.918 3.52 c -0.363 0.707 -0.703 1.688 -0.703 2.035 c 0 0.645 0.84 1.742 1.555 2.035 c 0.617 0.25 1.855 0.285 2.66 0.074 m -2.594 -1.813 c -0.285 -0.301 -0.336 -0.641 -0.105 -0.73 c 0.227 -0.086 0.52 0.113 0.66 0.449 c 0.238 0.578 -0.105 0.754 -0.555 0.281 m 2.172 0.137 c -0.082 -0.219 0.23 -0.723 0.484 -0.789 c 0.484 -0.121 0.582 0.227 0.176 0.652 c -0.277 0.293 -0.578 0.355 -0.66 0.137 m -3.48 -6.133 c 0.441 -0.441 0.074 -1.156 -0.594 -1.156 c -0.422 0 -0.84 0.336 -0.84 0.676 c 0 0.109 0.105 0.309 0.234 0.438 c 0.301 0.305 0.918 0.328 1.199 0.043 m 6.734 0.043 c 0.211 -0.215 0.191 -0.77 -0.043 -1 c -0.234 -0.238 -0.82 -0.258 -1.125 -0.043 c -0.281 0.199 -0.27 0.539 0.035 0.902 c 0.195 0.234 0.32 0.297 0.613 0.297 c 0.207 0 0.434 -0.066 0.52 -0.152 m 3.707 -2.945 c 0.676 -0.137 1.383 -0.699 1.281 -1.02 c -0.109 -0.344 -0.66 -0.688 -1.266 -0.789 c -0.309 -0.051 -0.629 -0.117 -0.715 -0.152 c -0.094 -0.039 -0.273 0.039 -0.461 0.199 c -0.266 0.227 -0.289 0.277 -0.168 0.398 c 0.105 0.109 0.211 0.117 0.484 0.039 c 0.309 -0.082 0.383 -0.066 0.605 0.125 c 0.25 0.219 0.25 0.223 0.059 0.328 c -0.137 0.074 -0.301 0.074 -0.547 0.008 c -0.438 -0.125 -0.98 0.031 -1.063 0.301 c -0.078 0.246 0.008 0.375 0.371 0.531 c 0.367 0.164 0.734 0.172 1.418 0.031 m -14.03 -0.102 c 0.156 -0.07 0.242 -0.188 0.242 -0.328 c 0 -0.266 -0.52 -0.473 -0.953 -0.379 c -0.348 0.078 -0.672 -0.016 -0.672 -0.191 c 0 -0.172 0.457 -0.531 0.684 -0.531 c 0.199 0 0.242 -0.242 0.055 -0.313 c -0.285 -0.113 -1.27 0.133 -1.598 0.402 c -0.434 0.352 -0.461 0.543 -0.133 0.887 c 0.457 0.48 1.77 0.734 2.375 0.457 m -3.086 -5.309 c -0.063 -0.063 -0.113 -0.176 -0.113 -0.25 c 0 -0.258 0.496 -1.773 0.695 -2.125 c 0.746 -1.32 1.996 -2.309 3.422 -2.707 c 0.93 -0.262 1.121 -0.254 1.254 0.039 c 0.18 0.398 -0.059 0.625 -0.863 0.832 c -0.887 0.227 -1.672 0.707 -2.324 1.418 c -0.59 0.648 -0.875 1.176 -1.09 2.047 c -0.086 0.344 -0.223 0.676 -0.309 0.742 c -0.195 0.152 -0.523 0.156 -0.672 0.004 m 2.098 0.031 c -0.199 -0.129 -0.156 -0.492 0.129 -1.105 c 0.367 -0.781 1.137 -1.547 1.926 -1.906 c 0.695 -0.316 1.035 -0.313 1.137 0.02 c 0.102 0.316 -0.184 0.633 -0.727 0.816 c -0.762 0.254 -1.617 1.168 -1.617 1.727 c 0 0.203 -0.344 0.535 -0.547 0.535 c -0.094 -0.004 -0.227 -0.039 -0.301 -0.086 m 13.863 -0.141 c -0.059 -0.074 -0.172 -0.348 -0.246 -0.605 c -0.188 -0.633 -0.793 -1.227 -1.488 -1.465 c -0.637 -0.219 -0.914 -0.578 -0.648 -0.848 c 0.152 -0.152 0.195 -0.152 0.691 0.004 c 0.922 0.293 1.93 1.305 2.297 2.301 c 0.133 0.367 0.145 0.488 0.051 0.602 c -0.148 0.18 -0.512 0.184 -0.656 0.012 m 2.023 0.012 c -0.051 -0.066 -0.145 -0.383 -0.211 -0.699 c -0.332 -1.586 -1.762 -3.051 -3.352 -3.438 c -0.707 -0.172 -0.992 -0.371 -0.938 -0.648 c 0.063 -0.32 0.336 -0.355 1.152 -0.141 c 1.965 0.512 3.473 2.082 3.949 4.109 c 0.121 0.516 0.129 0.684 0.039 0.793 c -0.141 0.172 -0.516 0.188 -0.641 0.023" fill="#2e2e2e"/></svg>