<svg xmlns="http://www.w3.org/2000/svg" viewBox="0 0 32 32"><path d="m 28.703 24.48 c 11.508 -16.367 -9.742 -32.949 -23.297 -19.613 c -12.773 12.563 -0.934 32.09 14.961 25.98 c 3.316 -1.273 6.223 -3.363 8.336 -6.367" fill="#283345"/><g fill="#fff"><path d="m 2.945 19.258 c -0.102 -0.02 -0.184 -0.07 -0.184 -0.109 c 0 -0.086 1.43 -2.883 1.547 -3.03 c 0.059 -0.07 0.246 -0.098 0.563 -0.082 l 0.48 0.027 l 0.801 1.563 c 0.785 1.535 0.797 1.566 0.613 1.617 c -0.414 0.117 -0.566 0.074 -0.863 -0.25 l -0.293 -0.324 h -0.742 c -0.73 0 -0.742 0.004 -1.043 0.277 c -0.316 0.285 -0.57 0.375 -0.879 0.313 m 2.059 -1.66 c 0.094 -0.113 0.039 -0.371 -0.074 -0.371 c -0.191 0 -0.32 0.117 -0.32 0.289 c 0 0.215 0.238 0.266 0.395 0.082"/><path d="m 7.805 19.09 c -0.316 -0.355 -1.508 -2.691 -1.508 -2.949 c 0 -0.129 0.418 -0.176 0.676 -0.074 c 0.07 0.027 0.387 0.48 0.695 1.01 c 0.391 0.66 0.605 0.949 0.691 0.934 c 0.07 -0.012 0.332 -0.383 0.586 -0.824 c 0.617 -1.066 0.711 -1.168 1.117 -1.168 c 0.234 0 0.328 0.035 0.328 0.117 c 0 0.066 -0.336 0.781 -0.746 1.586 l -0.746 1.469 l -0.484 0.023 c -0.383 0.02 -0.508 -0.008 -0.609 -0.121"/><path d="m 10.773 17.676 l 0.023 -1.656 l 0.297 0.004 c 0.523 0 0.535 0.023 0.566 1.316 l 0.031 1.168 h 2.313 v 0.723 h -0.863 c -0.477 0 -1.207 0.023 -1.629 0.051 l -0.762 0.051"/><path d="m 14.25 17.941 c -0.211 -0.105 -0.223 -0.52 -0.016 -0.586 c 0.086 -0.027 0.52 -0.051 0.969 -0.051 h 0.816 l -0.031 0.297 c -0.023 0.242 -0.078 0.309 -0.27 0.355 c -0.371 0.086 -1.281 0.074 -1.469 -0.016"/><path d="m 16.719 19.238 c -0.184 -0.152 -0.188 -0.176 -0.188 -1.609 c 0.004 -1.602 0.004 -1.605 0.5 -1.605 c 0.348 -0.004 0.508 0.172 0.934 1.02 c 0.195 0.387 0.426 0.793 0.516 0.902 l 0.16 0.199 l 0.238 -0.379 c 0.133 -0.207 0.375 -0.684 0.543 -1.063 l 0.305 -0.684 h 0.836 l 0.051 0.301 c 0.027 0.168 0.051 0.867 0.051 1.563 c 0 1.035 -0.02 1.281 -0.125 1.383 c -0.25 0.254 -0.543 0.125 -0.625 -0.273 c -0.023 -0.113 -0.063 -0.301 -0.09 -0.422 c -0.023 -0.121 -0.078 -0.223 -0.121 -0.223 c -0.043 0 -0.199 0.195 -0.352 0.43 c -0.488 0.766 -0.965 0.789 -1.418 0.074 c -0.133 -0.211 -0.285 -0.383 -0.34 -0.383 c -0.051 0 -0.121 0.156 -0.156 0.352 c -0.098 0.578 -0.34 0.723 -0.719 0.418"/><path d="m 21.363 19.34 c -0.125 -0.125 -0.023 -0.297 0.547 -0.965 c 0.332 -0.387 0.602 -0.727 0.602 -0.758 c 0 -0.031 -0.27 -0.352 -0.602 -0.715 c -0.332 -0.359 -0.602 -0.707 -0.602 -0.77 c 0 -0.082 0.117 -0.113 0.473 -0.113 c 0.465 0 0.484 0.008 0.859 0.402 c 0.211 0.223 0.449 0.402 0.527 0.402 c 0.082 0 0.344 -0.18 0.59 -0.402 c 0.418 -0.379 0.469 -0.402 0.879 -0.402 c 0.238 0 0.457 0.035 0.48 0.078 c 0.027 0.039 -0.223 0.379 -0.555 0.75 c -0.332 0.375 -0.605 0.727 -0.605 0.789 c 0.004 0.059 0.258 0.43 0.566 0.824 c 0.309 0.391 0.551 0.754 0.535 0.801 c -0.016 0.051 -0.184 0.102 -0.367 0.117 c -0.324 0.023 -0.367 -0.004 -0.926 -0.547 l -0.59 -0.57 l -0.563 0.566 c -0.508 0.508 -0.598 0.563 -0.883 0.563 c -0.172 0 -0.34 -0.023 -0.367 -0.051"/><path d="m 25.805 19.313 c -0.102 -0.063 -0.125 -0.359 -0.145 -1.684 l -0.027 -1.609 h 1.535 c 0.906 0 1.602 0.035 1.691 0.086 c 0.203 0.105 0.199 0.414 -0.012 0.602 c -0.137 0.125 -0.344 0.16 -1.164 0.199 c -0.941 0.047 -1.172 0.09 -1.051 0.211 c 0.027 0.027 0.539 0.086 1.137 0.133 l 1.086 0.082 v 0.309 c 0 0.359 0.008 0.355 -1.141 0.422 c -0.805 0.051 -1.027 0.094 -1.027 0.207 c 0 0.094 0.313 0.145 1.242 0.207 c 0.992 0.066 1.121 0.121 1.051 0.461 c -0.082 0.426 -0.184 0.453 -1.688 0.453 c -0.754 0 -1.422 -0.035 -1.488 -0.078"/><path d="m 19.246 14.156 c -0.074 -0.113 -0.063 -3.02 0.02 -4.488 l 0.051 -0.934 l -0.406 -0.137 c -0.516 -0.172 -0.734 -0.434 -0.734 -0.887 c 0 -0.27 0.051 -0.398 0.234 -0.594 c 0.129 -0.137 0.309 -0.25 0.398 -0.25 c 0.281 0 0.391 -0.301 0.445 -1.242 c 0.086 -1.434 0.332 -1.301 0.418 0.223 l 0.055 0.922 l 0.293 0.09 c 0.461 0.137 0.688 0.43 0.688 0.891 c 0 0.48 -0.246 0.785 -0.688 0.855 l -0.293 0.047 l -0.051 1.328 c -0.031 0.73 -0.059 1.891 -0.063 2.582 c -0.004 0.688 -0.031 1.336 -0.063 1.445 c -0.063 0.227 -0.207 0.301 -0.305 0.148"/><path d="m 15.613 14.11 c -0.047 -0.09 -0.086 -0.473 -0.086 -0.852 v -0.688 l -0.438 -0.191 c -0.379 -0.172 -0.445 -0.234 -0.52 -0.504 c -0.117 -0.441 0.016 -0.871 0.316 -1.027 c 0.125 -0.066 0.285 -0.121 0.352 -0.121 c 0.066 0 0.141 -0.035 0.168 -0.082 c 0.027 -0.043 0.082 -1.316 0.117 -2.828 c 0.07 -2.699 0.137 -3.332 0.336 -3.133 c 0.098 0.098 0.219 2.621 0.227 4.652 l 0.004 1.305 l 0.328 0.098 c 0.484 0.145 0.66 0.41 0.613 0.941 c -0.039 0.492 -0.145 0.609 -0.68 0.754 l -0.344 0.09 l -0.008 0.605 c -0.012 0.719 -0.074 1.063 -0.207 1.109 c -0.051 0.016 -0.133 -0.043 -0.18 -0.129"/><path d="m 11.992 14.05 c -0.043 -0.117 -0.078 -1.422 -0.078 -3.129 c 0 -2.582 -0.016 -2.926 -0.121 -2.926 c -0.07 0 -0.266 -0.07 -0.438 -0.16 c -0.398 -0.203 -0.551 -0.59 -0.41 -1.059 c 0.09 -0.301 0.254 -0.43 0.738 -0.574 c 0.148 -0.047 0.23 -0.387 0.23 -0.93 c 0 -0.207 0.051 -0.445 0.113 -0.531 c 0.188 -0.258 0.352 -0.023 0.41 0.59 c 0.074 0.766 0.098 0.809 0.457 0.953 c 0.23 0.094 0.355 0.207 0.434 0.395 c 0.254 0.609 0.035 1.094 -0.563 1.242 l -0.344 0.086 l -0.055 3 c -0.027 1.648 -0.074 3.055 -0.102 3.125 c -0.07 0.188 -0.184 0.152 -0.273 -0.082"/><path d="m 12.832 27.336 c -0.238 -0.031 -0.43 -0.113 -0.43 -0.184 c 0 -0.121 0.555 -0.859 1.762 -2.344 l 0.637 -0.785 l -0.938 -1.395 c -0.52 -0.766 -0.926 -1.492 -0.902 -1.609 c 0.133 -0.75 1.332 0.129 2.375 1.734 c 0.293 0.457 0.578 0.828 0.633 0.828 c 0.051 0 0.551 -0.574 1.105 -1.281 c 0.555 -0.707 1.07 -1.285 1.145 -1.285 c 0.188 0 0.34 0.035 -0.57 1.363 c -0.852 1.238 -1.27 1.898 -0.676 2.418 c 0.645 0.688 1.066 1.367 1.711 2.461 c -0.105 0.113 -5.137 0.184 -5.852 0.078 m 3.531 -0.941 c 0 -0.281 -0.766 -1.523 -0.996 -1.621 c -0.535 -0.219 -0.359 0.656 0.262 1.332 c 0.465 0.496 0.734 0.605 0.734 0.289"/></g></svg>