<svg xmlns="http://www.w3.org/2000/svg" viewBox="0 0 32 32"><path d="m 8.223 29.22 c 6.793 5.922 14.188 1.492 19.84 -4.566 c 4.602 -4.934 4.848 -9.371 1.863 -13.965 c -7.793 -11.996 -18 -16.734 -29.16 1.715 c -2.695 6.363 3.094 13.492 7.453 16.816" fill="#689686"/><path d="m 11.656 25.371 c -0.453 -0.109 -1.195 -0.539 -1.535 -0.883 c -0.277 -0.277 -0.488 -0.625 -1.746 -2.832 c -0.25 -0.438 -0.859 -1.5 -1.348 -2.359 c -0.488 -0.859 -0.969 -1.75 -1.063 -1.984 c -0.094 -0.23 -0.191 -0.445 -0.219 -0.473 c -0.066 -0.066 -0.066 -1.344 0 -1.41 c 0.027 -0.027 0.129 -0.25 0.227 -0.492 c 0.098 -0.242 0.398 -0.828 0.672 -1.301 c 0.867 -1.512 1.219 -2.121 1.707 -2.984 c 1.68 -2.957 1.754 -3.051 2.703 -3.512 l 0.594 -0.289 h 8.359 l 0.59 0.289 c 0.953 0.461 1.02 0.547 2.703 3.512 c 0.906 1.594 1.348 2.363 1.719 3 c 0.828 1.43 0.82 1.414 0.82 2.484 c 0 1.152 0.32 0.461 -2.559 5.52 c -1.668 2.93 -1.711 2.98 -2.668 3.465 l -0.598 0.297 l -4.03 0.016 c -2.273 0.008 -4.16 -0.02 -4.332 -0.063 m 7.09 -3.285 c 0.484 -0.262 1.02 -0.832 1.246 -1.336 c 0.168 -0.363 0.172 -0.469 0.195 -4.328 c 0.023 -4.27 0.02 -4.32 -0.387 -4.531 c -0.34 -0.18 -0.609 -0.145 -0.863 0.117 l -0.23 0.234 v 1.91 c 0 1.477 -0.027 1.945 -0.109 2.059 c -0.25 0.352 -0.285 0.074 -0.285 -2.203 c 0 -2.379 -0.043 -2.684 -0.383 -2.871 c -0.203 -0.109 -0.609 -0.109 -0.805 -0.004 c -0.363 0.199 -0.391 0.41 -0.391 2.832 c 0 2.297 -0.023 2.5 -0.281 2.285 c -0.094 -0.082 -0.113 -0.574 -0.113 -3.172 v -3.078 l -0.23 -0.234 c -0.137 -0.141 -0.313 -0.234 -0.438 -0.234 c -0.27 0 -0.645 0.199 -0.75 0.395 c -0.051 0.098 -0.082 1.262 -0.082 3.191 c 0 2.563 -0.016 3.051 -0.113 3.133 c -0.254 0.215 -0.281 0.012 -0.281 -2.367 v -2.363 l -0.23 -0.234 c -0.355 -0.363 -1.027 -0.281 -1.238 0.152 c -0.039 0.074 -0.086 1.883 -0.105 4.02 c -0.035 3.359 -0.055 3.883 -0.156 3.883 c -0.117 0 -0.492 -0.547 -1.418 -2.078 c -0.539 -0.898 -0.824 -1.137 -1.223 -1.035 c -0.285 0.07 -0.594 0.473 -0.594 0.77 c 0 0.172 0.254 0.676 0.844 1.656 c 1.316 2.203 1.793 2.898 2.188 3.195 c 0.617 0.469 0.773 0.488 3.434 0.469 l 2.406 -0.016" fill="#fff"/></svg>