<svg xmlns="http://www.w3.org/2000/svg" viewBox="0 0 32 32"><path d="m 6.598 3.121 c 24.05 -15.992 38.875 35.01 7.773 28.26 c -12.852 -2.879 -20.652 -20.926 -7.773 -28.26" fill="#9acd31"/><path d="m 24.773 25.664 c -0.215 -0.094 -1.313 -1.01 -2.863 -2.395 c -1.387 -1.234 -2.57 -2.246 -2.633 -2.246 c -0.063 0 -0.277 0.102 -0.477 0.23 c -0.871 0.559 -2.168 1.027 -3.406 1.23 c -0.902 0.148 -2.77 0.066 -3.645 -0.16 c -1.617 -0.414 -2.832 -1.066 -4.01 -2.152 c -0.82 -0.758 -1.422 -1.543 -1.855 -2.422 c -0.297 -0.598 -0.695 -1.848 -0.695 -2.18 c 0 -0.129 -0.039 -0.234 -0.086 -0.234 c -0.105 0 -0.121 -2.047 -0.016 -2.16 c 0.043 -0.043 0.121 -0.324 0.18 -0.629 c 0.328 -1.758 1.563 -3.629 3.168 -4.82 c 1.746 -1.289 3.813 -1.902 6.04 -1.789 c 1.266 0.063 2.145 0.273 3.289 0.785 c 1.371 0.613 2.418 1.41 3.379 2.57 c 0.41 0.496 1.063 1.664 1.309 2.344 c 0.371 1.02 0.516 2.414 0.371 3.535 c -0.137 1.07 -0.305 1.625 -0.75 2.512 l -0.387 0.762 l 0.375 0.336 c 0.203 0.18 1.375 1.223 2.605 2.313 c 2.504 2.227 2.625 2.375 2.563 3.184 c -0.09 1.16 -1.336 1.863 -2.457 1.387 m -9.121 -4.938 c 3.332 -0.805 5.57 -3.613 5.402 -6.773 c -0.078 -1.402 -0.438 -2.391 -1.281 -3.535 c -1.027 -1.391 -2.629 -2.367 -4.41 -2.687 c -3.559 -0.641 -6.965 1.223 -8.141 4.449 c -0.82 2.262 -0.258 4.703 1.52 6.582 c 0.969 1.027 2.66 1.863 4.223 2.094 c 0.668 0.098 2.023 0.035 2.688 -0.129 m -3.934 -1.805 c -0.082 -0.051 -0.105 -0.313 -0.086 -1.035 l 0.023 -0.969 l 0.563 -0.023 c 0.309 -0.012 0.613 -0.063 0.672 -0.113 c 0.16 -0.121 0.16 -2.203 0 -2.324 c -0.059 -0.051 -0.363 -0.102 -0.672 -0.113 l -0.563 -0.023 l -0.023 -0.922 c -0.016 -0.613 0.008 -0.965 0.074 -1.039 c 0.141 -0.152 3.621 -0.164 3.844 -0.012 c 0.129 0.09 0.148 0.352 0.168 2.297 l 0.02 2.191 l 0.566 0.043 l 0.563 0.039 l 0.027 0.855 c 0.012 0.469 0.004 0.934 -0.023 1.035 l -0.051 0.184 l -2.492 -0.004 c -1.375 0 -2.547 -0.031 -2.609 -0.066 m 1.148 -7.719 c -1.254 -0.547 -0.969 -2.01 0.441 -2.285 c 1.355 -0.266 2.496 0.375 2.359 1.324 c -0.102 0.715 -0.625 1.051 -1.703 1.09 c -0.594 0.023 -0.816 -0.004 -1.098 -0.129" fill="#fff"/></svg>