<svg xmlns="http://www.w3.org/2000/svg" viewBox="0 0 32 32"><path d="m 24.555 3.609 c -25.496 -17.734 -36.734 39.27 -5.063 26.12 c 10.422 -4.203 18.359 -20.375 5.063 -26.12" fill="#ff7110"/><path d="m 9.887 27.52 c -0.039 -0.227 1.477 -4.809 2.203 -6.309 c -0.066 -0.289 -0.645 -0.668 -1.332 -1 c 0.598 -1.668 0.953 -2.176 1.316 -3.465 c -0.637 -0.34 -1.141 -0.527 -1.777 -0.875 c 0.762 -1.617 1.32 -3.211 2 -4.996 c 0.699 -1.836 1.324 -3.398 1.387 -3.469 c 0.105 -0.117 0.355 -0.09 3.551 0.375 l 3.438 0.5 c 1.285 -0.199 -0.621 2.484 -1.297 3.547 c -1.871 2.664 -1.27 1.973 0.523 2.492 c -1.383 1.609 -1.934 2.48 -2.684 3.664 c 0.074 0.605 1.148 0.535 1.043 1.273 c -1.484 1.84 -3.527 3.98 -4.672 5.137 c -1.273 1.23 -2.023 1.723 -3.699 3.129" fill="#ffc91b"/></svg>