<svg xmlns="http://www.w3.org/2000/svg" viewBox="0 0 32 32"><path d="m 5.793 28.5 c 19.2 14.891 39.12 -22.2 15.355 -27.617 c -14.965 -5.559 -29.578 16.578 -15.355 27.617" fill="#dcdcdc"/><path d="m 12.809 27.734 c -1.102 -0.195 -2.57 -0.977 -2.789 -1.484 c -0.102 -0.238 -0.113 -0.578 -0.031 -0.816 c 0.152 -0.441 1.09 -1.129 1.539 -1.133 c 0.617 0 0.543 -1.492 -0.086 -1.844 c -0.508 -0.281 -0.613 -0.504 -0.617 -1.281 c 0 -0.563 -0.121 -0.793 -0.684 -1.332 c -0.574 -0.555 -0.684 -0.77 -0.684 -1.367 c 0 -0.551 -0.148 -0.906 -0.68 -1.625 c -0.785 -1.051 -0.812 -1.203 -0.328 -1.855 l 0.355 -0.48 l -0.355 -0.781 c -0.195 -0.426 -0.355 -0.859 -0.355 -0.961 c 0 -0.102 0.285 -0.574 0.633 -1.051 c 0.492 -0.672 0.625 -1 0.586 -1.473 c -0.063 -0.762 0.402 -1.625 1.012 -1.895 c 0.281 -0.125 0.777 -0.152 1.266 -0.074 l 0.805 0.125 l -0.121 -0.938 c -0.145 -1.109 0.168 -1.645 0.965 -1.645 c 0.266 0 0.484 -0.082 0.484 -0.18 c 0 -0.418 0.469 -0.105 1.109 0.73 c 0.375 0.492 0.785 0.895 0.914 0.898 c 0.133 0 0.535 -0.285 0.898 -0.633 c 0.898 -0.863 1.566 -0.867 2.039 -0.016 c 0.188 0.34 0.531 0.75 0.762 0.91 c 0.246 0.172 0.418 0.465 0.418 0.719 c 0 0.477 0.281 0.652 1.043 0.652 c 0.309 0 0.668 0.172 0.926 0.441 c 0.352 0.375 0.418 0.621 0.418 1.531 c 0 0.594 0.082 1.137 0.18 1.203 c 0.344 0.227 0.484 0.945 0.316 1.602 c -0.129 0.496 -0.109 0.77 0.094 1.184 c 0.309 0.637 0.34 1.309 0.07 1.598 c -0.145 0.152 -0.145 0.414 0 1.031 c 0.16 0.664 0.148 0.949 -0.043 1.438 c -0.133 0.34 -0.328 0.668 -0.43 0.738 c -0.102 0.066 -0.188 0.426 -0.188 0.797 c 0 0.371 -0.121 0.855 -0.266 1.078 c -0.16 0.242 -0.223 0.555 -0.156 0.781 c 0.082 0.266 -0.039 0.578 -0.414 1.074 c -0.633 0.832 -0.656 1.125 -0.137 1.566 c 0.578 0.488 0.656 0.707 0.434 1.223 c -0.258 0.598 -1.641 1.324 -2.965 1.555 c -1.191 0.207 -4.75 0.199 -5.938 -0.012" fill="#a3a1a1"/><path d="m 13.508 26.957 c -0.852 -0.258 -1.492 -0.742 -1.492 -1.133 c 0 -0.129 0.168 -0.359 0.371 -0.512 c 0.324 -0.238 0.348 -0.332 0.172 -0.742 c -0.113 -0.258 -0.203 -0.703 -0.203 -0.988 c 0 -0.77 -0.156 -1.074 -0.703 -1.375 c -0.426 -0.234 -0.488 -0.375 -0.488 -1.051 c 0 -0.691 -0.078 -0.844 -0.684 -1.363 c -0.605 -0.516 -0.684 -0.668 -0.684 -1.355 c 0 -0.57 -0.102 -0.879 -0.383 -1.16 c -0.211 -0.211 -0.531 -0.672 -0.707 -1.027 c -0.305 -0.602 -0.309 -0.664 -0.043 -0.977 c 0.352 -0.414 0.355 -0.809 0.008 -1.773 l -0.273 -0.758 l 0.699 -0.938 c 0.52 -0.699 0.676 -1.047 0.602 -1.355 c -0.098 -0.422 0.316 -1.508 0.676 -1.777 c 0.105 -0.074 0.625 -0.09 1.156 -0.027 c 0.848 0.098 0.992 0.066 1.148 -0.242 c 0.125 -0.254 0.117 -0.52 -0.027 -0.93 c -0.281 -0.793 -0.02 -1.18 0.852 -1.25 c 0.609 -0.047 0.758 0.027 1.34 0.68 c 0.359 0.402 0.766 0.734 0.898 0.734 c 0.137 0 0.562 -0.27 0.945 -0.602 c 0.387 -0.332 0.797 -0.66 0.91 -0.734 c 0.285 -0.176 0.898 0.195 0.898 0.543 c 0 0.156 0.238 0.52 0.531 0.809 c 0.344 0.344 0.492 0.629 0.422 0.82 c -0.172 0.477 0.227 0.793 0.992 0.793 c 0.391 0 0.879 0.129 1.086 0.281 c 0.328 0.242 0.379 0.449 0.379 1.469 c 0 1 0.059 1.23 0.375 1.504 c 0.355 0.305 0.363 0.367 0.145 1.07 c -0.207 0.672 -0.199 0.813 0.082 1.367 c 0.277 0.547 0.289 0.703 0.094 1.332 c -0.164 0.535 -0.172 0.809 -0.031 1.09 c 0.309 0.613 0.219 1.309 -0.246 1.895 c -0.313 0.398 -0.406 0.68 -0.34 1.023 c 0.063 0.309 -0.023 0.66 -0.246 1.016 c -0.188 0.301 -0.34 0.836 -0.344 1.191 c 0 0.457 -0.125 0.773 -0.426 1.074 c -0.234 0.234 -0.426 0.629 -0.426 0.879 c 0 0.695 -0.625 1.52 -1.598 2.094 c -0.789 0.469 -1.066 0.527 -2.754 0.586 c -1.23 0.043 -2.152 -0.02 -2.684 -0.18" fill="#666060"/><path d="m 14.172 26.28 c -0.266 -0.223 -0.449 -0.555 -0.449 -0.816 c 0 -0.43 -0.438 -1.047 -0.848 -1.191 c -0.117 -0.043 -0.25 -0.469 -0.305 -0.949 c -0.078 -0.758 -0.172 -0.926 -0.664 -1.234 c -0.508 -0.32 -0.574 -0.449 -0.574 -1.129 c 0 -0.676 -0.078 -0.836 -0.68 -1.348 c -0.605 -0.516 -0.684 -0.672 -0.684 -1.363 c 0 -0.559 -0.102 -0.871 -0.359 -1.121 c -0.195 -0.191 -0.469 -0.578 -0.609 -0.859 c -0.223 -0.457 -0.219 -0.551 0.02 -0.832 c 0.344 -0.402 0.34 -0.906 -0.02 -1.852 c -0.281 -0.746 -0.277 -0.766 0.086 -1.023 c 0.203 -0.145 0.371 -0.41 0.371 -0.59 c 0 -0.184 0.078 -0.383 0.172 -0.441 c 0.094 -0.063 0.168 -0.441 0.168 -0.844 c 0 -0.82 0.43 -1.73 0.891 -1.887 c 0.168 -0.059 0.563 -0.004 0.879 0.117 c 0.496 0.191 0.629 0.176 1.016 -0.125 c 0.59 -0.457 0.645 -0.656 0.352 -1.258 c -0.352 -0.723 -0.191 -0.988 0.605 -0.988 c 0.586 0 0.75 0.098 1.227 0.727 c 0.727 0.961 1.227 0.961 2.109 0 c 0.734 -0.797 1.199 -0.922 1.367 -0.363 c 0.059 0.199 0.301 0.605 0.535 0.902 c 0.273 0.344 0.391 0.664 0.324 0.879 c -0.152 0.516 0.324 0.816 1.25 0.781 c 1.176 -0.043 1.469 0.34 1.305 1.719 c -0.113 0.949 -0.09 1.063 0.273 1.352 c 0.363 0.293 0.379 0.367 0.188 0.934 c -0.285 0.832 -0.27 0.973 0.168 1.598 c 0.375 0.539 0.375 0.543 0.055 1.18 c -0.313 0.613 -0.313 0.66 -0.023 1.176 c 0.359 0.648 0.234 1.527 -0.25 1.805 c -0.246 0.141 -0.328 0.383 -0.328 0.973 c 0 0.48 -0.102 0.875 -0.258 1.012 c -0.152 0.137 -0.254 0.531 -0.254 0.988 c 0 0.621 -0.098 0.855 -0.512 1.25 c -0.289 0.273 -0.512 0.664 -0.512 0.902 c 0 0.52 -0.594 1.133 -1.371 1.414 c -0.324 0.117 -0.773 0.363 -0.996 0.547 c -0.621 0.508 -3.043 0.48 -3.664 -0.043" fill="#971245"/><path d="m 14.172 26.28 c -0.266 -0.223 -0.449 -0.555 -0.449 -0.816 c 0 -0.453 -0.535 -1.164 -0.875 -1.164 c -0.125 0 -0.16 -0.219 -0.102 -0.609 c 0.117 -0.758 -0.391 -1.746 -0.898 -1.746 c -0.484 0 -0.484 -0.898 0.004 -1.035 c 0.289 -0.082 0.188 -0.215 -0.66 -0.871 c -0.93 -0.719 -1.012 -0.84 -1.094 -1.621 c -0.055 -0.531 -0.242 -1.027 -0.492 -1.332 c -0.551 -0.66 -0.879 -1.309 -0.734 -1.453 c 0.066 -0.063 0.156 -0.016 0.199 0.109 c 0.039 0.125 0.297 0.227 0.574 0.227 c 0.609 0 0.676 -0.465 0.105 -0.742 c -0.254 -0.121 -0.457 -0.453 -0.578 -0.945 c -0.105 -0.418 -0.246 -0.945 -0.313 -1.172 c -0.125 -0.41 -0.125 -0.41 0.449 -0.102 c 1.199 0.637 1.172 0.633 1.172 0.262 c 0 -0.191 -0.242 -0.566 -0.539 -0.832 c -0.535 -0.477 -0.539 -0.488 -0.258 -0.996 c 0.156 -0.281 0.285 -0.672 0.285 -0.867 c 0 -0.465 0.453 -1.609 0.699 -1.77 c 0.105 -0.07 0.496 -0.02 0.871 0.109 c 0.73 0.258 1.043 0.156 1.438 -0.477 c 0.188 -0.297 0.18 -0.445 -0.031 -0.887 c -0.363 -0.738 -0.207 -1 0.594 -1 c 0.586 0 0.754 0.098 1.227 0.723 c 0.73 0.965 1.227 0.965 2.109 0 c 0.734 -0.797 1.199 -0.918 1.367 -0.359 c 0.059 0.199 0.297 0.598 0.523 0.887 c 0.23 0.293 0.398 0.707 0.371 0.941 c -0.055 0.527 0.711 0.965 1.629 0.93 c 0.895 -0.035 1.094 0.441 0.816 1.941 c -0.227 1.23 -0.168 1.465 0.328 1.328 c 0.359 -0.102 0.496 0.367 0.168 0.582 c -0.293 0.191 -0.188 0.988 0.207 1.551 c 0.375 0.539 0.375 0.547 0.055 1.18 c -0.309 0.613 -0.313 0.66 -0.023 1.18 c 0.359 0.645 0.238 1.527 -0.25 1.805 c -0.246 0.137 -0.328 0.383 -0.328 0.973 c 0 0.445 -0.102 0.875 -0.234 0.992 c -0.129 0.113 -0.281 0.598 -0.344 1.078 c -0.074 0.609 -0.234 0.988 -0.531 1.262 c -0.234 0.219 -0.426 0.582 -0.426 0.816 c 0 0.523 -0.59 1.133 -1.371 1.418 c -0.324 0.117 -0.773 0.363 -0.996 0.547 c -0.617 0.504 -3.039 0.477 -3.664 -0.043 m 1.086 -0.793 c 0 -0.043 -0.078 -0.129 -0.172 -0.191 c -0.094 -0.063 -0.172 -0.023 -0.172 0.082 c 0 0.105 0.078 0.191 0.172 0.191 c 0.094 0 0.172 -0.039 0.172 -0.082 m 1.477 -1.629 c -0.059 -0.156 -0.184 -0.281 -0.285 -0.281 c -0.293 0 -0.41 0.566 -0.152 0.734 c 0.301 0.199 0.57 -0.078 0.438 -0.453 m -1.563 -0.477 c 0 -0.512 -0.5 -0.695 -0.664 -0.246 c -0.125 0.348 0.195 0.848 0.477 0.746 c 0.102 -0.035 0.188 -0.262 0.188 -0.5 m 3.496 -0.43 c 0 -0.316 -0.281 -0.523 -0.504 -0.379 c -0.227 0.152 -0.023 0.641 0.266 0.641 c 0.133 0 0.238 -0.117 0.238 -0.262 m -1.879 -1.359 c 0 -0.367 -0.395 -0.797 -0.566 -0.613 c -0.18 0.191 -0.133 0.691 0.082 0.922 c 0.254 0.266 0.484 0.121 0.484 -0.309 m -2.043 -0.281 c 0 -0.148 -0.117 -0.273 -0.258 -0.273 c -0.141 0 -0.254 0.125 -0.254 0.273 c 0 0.148 0.113 0.273 0.254 0.273 c 0.141 0 0.258 -0.125 0.258 -0.273 m 4.391 -0.5 c -0.109 -0.348 -0.813 -0.398 -0.813 -0.055 c 0 0.184 0.156 0.281 0.441 0.281 c 0.277 0 0.414 -0.082 0.371 -0.227 m 1.746 -0.305 c 0 -0.215 -0.332 -0.441 -0.453 -0.313 c -0.121 0.129 0.094 0.484 0.293 0.484 c 0.09 0 0.16 -0.078 0.16 -0.172 m -6.855 -1.387 c 0.031 -0.227 -0.145 -0.508 -0.473 -0.766 c -0.871 -0.684 -1.215 -0.031 -0.426 0.805 c 0.48 0.512 0.824 0.496 0.898 -0.039 m 2.965 0.039 c 0.098 0.063 0.246 0.004 0.328 -0.133 c 0.215 -0.363 0.188 -0.523 -0.094 -0.523 c -0.137 0 -0.316 -0.129 -0.398 -0.285 c -0.094 -0.176 -0.316 -0.266 -0.563 -0.227 c -0.563 0.082 -0.594 0.938 -0.039 1.023 c 0.262 0.039 0.348 0.148 0.285 0.363 c -0.074 0.262 -0.063 0.262 0.105 -0.016 c 0.109 -0.18 0.277 -0.27 0.375 -0.203 m -5.488 -0.563 c 0 -0.289 -0.598 -0.383 -0.754 -0.117 c -0.125 0.215 0.07 0.387 0.441 0.387 c 0.172 0 0.313 -0.121 0.313 -0.273 m 8.109 0.082 c 0.059 -0.105 0.016 -0.434 -0.098 -0.727 c -0.148 -0.379 -0.324 -0.531 -0.613 -0.531 c -0.484 0 -0.504 0.152 -0.109 0.891 c 0.309 0.57 0.617 0.711 0.82 0.367 m 2.238 -0.816 c 0.133 -0.371 -0.137 -0.652 -0.438 -0.453 c -0.258 0.172 -0.141 0.738 0.152 0.738 c 0.102 0 0.227 -0.129 0.285 -0.285 m -7 -1.574 c -0.055 -0.223 -0.105 -0.629 -0.105 -0.906 c -0.004 -0.559 -0.129 -0.609 -0.598 -0.25 c -0.305 0.238 -0.305 0.273 -0.023 0.906 c 0.332 0.738 0.898 0.934 0.727 0.25 m -2.199 -0.445 c 0.066 -0.207 -0.859 -0.777 -1.262 -0.777 c -0.125 0 -0.227 0.16 -0.227 0.359 c 0 0.246 0.168 0.406 0.551 0.523 c 0.641 0.195 0.852 0.172 0.938 -0.105 m 5.121 0.016 c 0.508 -0.145 0.477 -0.414 -0.129 -1.043 c -0.422 -0.438 -0.547 -0.488 -0.766 -0.297 c -0.305 0.27 -0.313 0.371 -0.094 0.988 c 0.172 0.48 0.332 0.539 0.988 0.352 m 2.461 -0.402 c 0.098 -0.707 0 -0.934 -0.406 -0.934 c -0.277 0 -0.328 0.082 -0.246 0.406 c 0.059 0.227 0.105 0.551 0.105 0.727 c 0.004 0.523 0.469 0.355 0.547 -0.199 m -7.648 -2.336 c 0.238 -0.938 0.266 -1.305 0.105 -1.41 c -0.27 -0.176 -0.676 0.266 -0.676 0.738 c 0 0.859 0.402 1.332 0.57 0.672 m 2.09 -0.004 c 0.102 -0.074 0.234 -0.395 0.293 -0.711 c 0.086 -0.48 0.043 -0.598 -0.246 -0.699 c -0.512 -0.172 -0.719 0.152 -0.59 0.902 c 0.117 0.656 0.211 0.746 0.543 0.508 m 3.48 -0.41 c 0 -0.102 -0.109 -0.23 -0.238 -0.285 c -0.133 -0.055 -0.277 -0.254 -0.328 -0.445 c -0.129 -0.527 -0.629 -0.445 -0.629 0.102 c 0 0.363 0.086 0.453 0.426 0.453 c 0.234 0 0.43 0.082 0.43 0.18 c 0 0.102 0.074 0.184 0.168 0.184 c 0.094 0 0.172 -0.086 0.172 -0.188 m 1.793 -0.523 c -0.059 -0.207 -0.227 -0.379 -0.363 -0.379 c -0.156 0 -0.207 0.09 -0.133 0.227 c 0.398 0.742 0.703 0.836 0.496 0.152 m -8.785 -2.043 c 0 -0.422 -0.051 -0.527 -0.188 -0.383 c -0.105 0.109 -0.137 0.371 -0.074 0.582 c 0.164 0.543 0.262 0.469 0.262 -0.199 m 5.086 -0.262 c -0.078 -0.438 -0.621 -0.539 -0.766 -0.145 c -0.07 0.199 0.004 0.402 0.203 0.559 c 0.371 0.289 0.652 0.078 0.563 -0.414 m 2.59 0.125 c 0 -0.367 -0.445 -0.637 -0.602 -0.367 c -0.137 0.238 0.242 0.934 0.438 0.805 c 0.09 -0.059 0.164 -0.254 0.164 -0.438 m -5.152 0.137 c 0.305 -0.324 0.25 -0.457 -0.246 -0.59 c -0.516 -0.137 -0.836 0.105 -0.688 0.523 c 0.121 0.336 0.645 0.371 0.934 0.066" fill="#890638"/><path d="m 14.172 26.28 c -0.266 -0.223 -0.449 -0.555 -0.449 -0.816 c 0 -0.438 -0.531 -1.164 -0.855 -1.164 c -0.094 0 -0.168 -0.164 -0.168 -0.363 c 0 -0.266 0.113 -0.359 0.426 -0.359 c 0.34 0 0.426 -0.094 0.426 -0.457 c 0 -0.395 -0.055 -0.441 -0.422 -0.344 c -0.344 0.09 -0.461 0.023 -0.633 -0.379 c -0.18 -0.418 -0.168 -0.512 0.082 -0.66 c 0.16 -0.094 0.289 -0.289 0.289 -0.434 c 0 -0.414 -0.551 -0.988 -0.949 -0.988 c -0.48 0 -1.777 -1.01 -1.777 -1.383 c 0 -0.234 0.047 -0.25 0.246 -0.078 c 0.133 0.121 0.461 0.191 0.723 0.16 c 0.383 -0.047 0.48 -0.148 0.48 -0.512 c 0 -0.422 -0.051 -0.449 -0.723 -0.395 c -0.629 0.051 -0.746 0 -0.879 -0.371 c -0.086 -0.234 -0.273 -0.535 -0.422 -0.664 c -0.32 -0.281 -0.828 -1.309 -0.711 -1.434 c 0.047 -0.047 0.133 0.047 0.191 0.211 c 0.059 0.164 0.191 0.297 0.289 0.297 c 0.102 0 0.359 0.176 0.57 0.387 c 0.449 0.445 0.918 0.34 0.918 -0.207 c 0 -0.465 -0.727 -1.266 -1.148 -1.266 c -0.301 0 -0.359 -0.148 -0.801 -1.992 c -0.102 -0.43 -0.098 -0.434 0.086 -0.066 c 0.25 0.508 1.465 1.105 1.711 0.844 c 0.094 -0.105 0.152 -0.461 0.121 -0.793 c -0.051 -0.535 -0.133 -0.625 -0.695 -0.766 c -0.75 -0.188 -0.789 -0.387 -0.215 -1.121 c 0.406 -0.516 0.438 -0.527 0.672 -0.211 c 0.133 0.184 0.383 0.305 0.555 0.27 c 0.238 -0.047 0.32 -0.258 0.363 -0.922 c 0.051 -0.844 0.043 -0.859 -0.461 -0.859 c -0.609 0 -0.797 -0.234 -0.438 -0.547 c 0.211 -0.188 0.395 -0.184 0.949 0.012 c 0.746 0.262 1.059 0.16 1.453 -0.473 c 0.188 -0.301 0.18 -0.445 -0.031 -0.887 c -0.363 -0.738 -0.207 -1 0.594 -1 c 0.586 0 0.754 0.098 1.227 0.727 c 0.73 0.961 1.227 0.961 2.113 0 c 0.73 -0.797 1.195 -0.922 1.363 -0.363 c 0.059 0.203 0.297 0.602 0.523 0.891 c 0.234 0.297 0.398 0.707 0.371 0.949 c -0.031 0.328 0.086 0.484 0.516 0.688 c 0.363 0.168 0.594 0.426 0.656 0.723 c 0.172 0.844 0.23 0.945 0.535 0.879 c 0.207 -0.043 0.297 -0.23 0.297 -0.629 c 0 -0.742 0.18 -0.914 0.43 -0.414 c 0.219 0.438 0.094 1.828 -0.211 2.348 c -0.105 0.18 -0.129 0.535 -0.059 0.836 l 0.125 0.523 l 0.332 -0.434 c 0.379 -0.496 0.668 -0.359 0.355 0.168 c -0.305 0.52 -0.25 1.031 0.172 1.637 c 0.375 0.539 0.375 0.547 0.055 1.18 c -0.313 0.613 -0.313 0.66 -0.023 1.18 c 0.359 0.645 0.238 1.527 -0.25 1.805 c -0.246 0.137 -0.328 0.383 -0.328 0.973 c 0 0.445 -0.102 0.875 -0.234 0.992 c -0.129 0.113 -0.281 0.598 -0.344 1.078 c -0.074 0.609 -0.234 0.988 -0.531 1.262 c -0.234 0.219 -0.426 0.582 -0.426 0.816 c 0 0.523 -0.59 1.133 -1.371 1.418 c -0.324 0.117 -0.773 0.363 -0.996 0.547 c -0.617 0.504 -3.039 0.477 -3.664 -0.043 m 1.426 -0.781 c 0 -0.258 -0.586 -0.516 -0.758 -0.332 c -0.242 0.254 -0.059 0.582 0.332 0.582 c 0.25 0 0.426 -0.105 0.426 -0.25 m 1.875 -0.082 c 0 -0.234 -0.203 -0.395 -0.367 -0.285 c -0.176 0.117 -0.023 0.438 0.207 0.438 c 0.09 0 0.16 -0.07 0.16 -0.152 m 1.988 -0.672 c 0.055 -0.152 0.059 -0.324 0.008 -0.379 c -0.148 -0.156 -0.82 0.297 -0.711 0.484 c 0.156 0.27 0.59 0.203 0.703 -0.105 m -2.438 -0.535 c 0.113 -0.316 -0.301 -0.684 -0.68 -0.605 c -0.406 0.086 -0.473 0.418 -0.152 0.758 c 0.293 0.309 0.691 0.234 0.832 -0.152 m -1.699 -0.559 c 0.145 -0.402 -0.07 -0.801 -0.434 -0.801 c -0.418 0 -0.566 0.41 -0.328 0.887 c 0.199 0.391 0.605 0.348 0.762 -0.086 m 3.516 -0.625 c 0 -0.426 -0.453 -0.676 -0.719 -0.395 c -0.266 0.281 -0.031 0.762 0.371 0.762 c 0.234 0 0.348 -0.117 0.348 -0.367 m 1.797 -0.191 c 0.16 -0.277 -0.188 -0.598 -0.504 -0.469 c -0.156 0.063 -0.223 0.227 -0.164 0.387 c 0.117 0.32 0.5 0.371 0.668 0.082 m -3.52 -0.684 l 0.344 -0.516 l -0.402 -0.406 c -0.789 -0.785 -1.484 0.008 -0.871 0.996 c 0.348 0.57 0.504 0.559 0.93 -0.074 m -2.203 -0.859 c 0 -0.344 -0.09 -0.434 -0.426 -0.434 c -0.457 0 -0.59 0.477 -0.234 0.855 c 0.289 0.305 0.66 0.066 0.66 -0.422 m 4.336 0 c 0.402 -0.164 0.328 -0.785 -0.113 -0.961 c -0.477 -0.191 -0.98 0.066 -0.98 0.504 c 0 0.547 0.43 0.727 1.094 0.457 m 1.891 -0.777 c 0 -0.395 -0.547 -0.688 -0.789 -0.43 c -0.156 0.164 -0.152 0.281 0.023 0.5 c 0.262 0.336 0.766 0.289 0.766 -0.074 m -3.727 -0.797 c 0.191 -0.203 0.348 -1.191 0.223 -1.406 c -0.086 -0.148 -0.48 -0.242 -1.039 -0.25 c -0.832 -0.008 -0.914 0.031 -1.066 0.488 c -0.141 0.418 -0.102 0.57 0.246 0.965 c 0.34 0.387 0.523 0.453 0.992 0.375 c 0.316 -0.055 0.609 -0.133 0.645 -0.172 m -2.934 -0.547 c 0.156 -0.465 0.113 -0.566 -0.422 -1.039 c -0.703 -0.617 -0.871 -0.641 -1.258 -0.191 c -0.203 0.246 -0.254 0.492 -0.172 0.863 c 0.18 0.797 0.406 0.996 1.074 0.934 c 0.496 -0.043 0.641 -0.148 0.781 -0.566 m 5.535 -0.598 c 0.426 -0.578 0.453 -0.973 0.066 -0.973 c -0.156 0 -0.539 -0.098 -0.852 -0.215 c -0.832 -0.32 -1.035 -0.027 -0.637 0.926 c 0.367 0.887 0.887 0.984 1.422 0.262 m 1.859 -0.598 c 0.074 -0.527 -0.234 -0.895 -0.504 -0.605 c -0.246 0.262 -0.039 1.188 0.242 1.09 c 0.113 -0.039 0.23 -0.258 0.262 -0.484 m -6.379 -1.035 c 0.059 -0.164 -0.012 -0.484 -0.152 -0.719 c -0.145 -0.23 -0.262 -0.66 -0.262 -0.957 c 0 -0.73 -0.281 -0.863 -0.781 -0.367 c -0.438 0.438 -0.516 0.945 -0.25 1.68 c 0.227 0.641 1.25 0.898 1.445 0.363 m 2.379 -0.621 c 0.551 -0.461 0.594 -1.238 0.09 -1.723 c -0.723 -0.695 -0.738 -0.965 -0.078 -1.262 c 0.336 -0.148 0.605 -0.367 0.605 -0.492 c 0 -0.313 -0.988 -1.402 -1.27 -1.402 c -0.125 0 -0.41 0.309 -0.629 0.68 c -0.543 0.93 -0.551 0.953 -0.273 0.953 c 0.133 0 0.375 0.152 0.535 0.344 c 0.281 0.324 0.27 0.371 -0.227 0.973 c -0.684 0.828 -0.676 1.379 0.031 1.887 c 0.691 0.496 0.672 0.496 1.211 0.043 m -4.973 -0.262 c 0.254 -0.598 0.039 -0.828 -0.879 -0.941 c -0.699 -0.086 -1.199 0.148 -1.199 0.566 c 0 0.191 1.164 0.758 1.664 0.809 c 0.121 0.012 0.305 -0.184 0.414 -0.434 m 7.438 0.059 c 0.371 -0.395 0.246 -1.375 -0.215 -1.695 c -0.617 -0.43 -0.828 -0.188 -0.688 0.801 c 0.063 0.461 0.152 0.902 0.195 0.977 c 0.117 0.203 0.477 0.164 0.707 -0.082 m -7.445 -3.328 c 0.148 -1.449 -0.031 -1.699 -0.707 -0.984 c -0.41 0.438 -0.441 1.219 -0.07 1.781 c 0.414 0.629 0.656 0.383 0.777 -0.797 m 1.805 0.637 c 0.383 -0.141 0.547 -0.34 0.625 -0.746 c 0.172 -0.91 0.129 -1.02 -0.438 -1.152 c -0.695 -0.164 -0.992 0.23 -0.992 1.309 c 0 0.848 0.035 0.875 0.805 0.59 m 5.633 -0.379 c 0.145 -0.156 0.129 -0.348 -0.078 -0.77 c -0.332 -0.691 -0.574 -0.871 -0.848 -0.629 c -0.137 0.121 -0.16 0.316 -0.059 0.578 c 0.078 0.215 0.188 0.535 0.238 0.711 c 0.109 0.363 0.457 0.414 0.746 0.109 m -3.809 -2.25 c 0.398 -0.422 0.328 -0.934 -0.176 -1.285 c -0.84 -0.582 -1.438 0.34 -0.734 1.133 c 0.453 0.512 0.555 0.531 0.91 0.152 m 2.391 -0.246 c 0.391 -0.461 0.281 -0.992 -0.223 -1.07 c -0.555 -0.082 -0.73 0.164 -0.602 0.844 c 0.125 0.656 0.395 0.73 0.824 0.227 m -4.926 -0.203 c 0.395 -0.465 0.188 -0.906 -0.523 -1.105 c -0.84 -0.238 -1.238 0.461 -0.652 1.145 c 0.367 0.434 0.781 0.422 1.176 -0.039 m -2.484 11.34 c 0 -0.141 0.07 -0.305 0.152 -0.359 c 0.188 -0.121 0.57 0.34 0.418 0.504 c -0.203 0.215 -0.57 0.125 -0.57 -0.145" fill="#6e062e"/><path d="m 14.172 26.28 c -0.27 -0.227 -0.449 -0.555 -0.449 -0.824 c 0 -0.246 -0.191 -0.637 -0.426 -0.867 c -0.516 -0.508 -0.547 -0.715 -0.086 -0.559 c 0.262 0.086 0.379 0 0.52 -0.391 c 0.262 -0.727 0.07 -1.363 -0.398 -1.324 c -0.625 0.055 -0.652 0.016 -0.375 -0.559 c 0.254 -0.52 0.246 -0.578 -0.125 -1.078 c -0.234 -0.316 -0.559 -0.531 -0.816 -0.539 c -0.516 -0.016 -1.227 -0.379 -1.316 -0.672 c -0.043 -0.129 0.156 -0.238 0.496 -0.273 c 0.52 -0.051 0.566 -0.105 0.566 -0.691 v -0.633 l -0.801 0.051 c -0.688 0.047 -0.828 -0.004 -1.01 -0.359 c -0.109 -0.23 -0.309 -0.48 -0.434 -0.563 c -0.266 -0.164 -0.316 -0.668 -0.066 -0.668 c 0.09 0 0.246 0.16 0.348 0.359 c 0.098 0.199 0.32 0.363 0.488 0.363 c 0.172 0 0.449 -0.164 0.617 -0.363 c 0.391 -0.457 0.637 -0.457 1.023 0 c 0.453 0.531 0.723 0.449 1.098 -0.336 c 0.293 -0.609 0.305 -0.742 0.098 -1.059 c -0.285 -0.43 -1.715 -0.707 -2.063 -0.402 c -0.133 0.117 -0.52 0.145 -0.996 0.07 c -0.719 -0.113 -0.777 -0.164 -0.777 -0.648 c 0 -0.594 0.109 -0.637 0.641 -0.242 c 0.297 0.223 0.453 0.238 0.742 0.07 c 0.328 -0.188 0.355 -0.313 0.273 -1.285 c -0.086 -1.012 -0.066 -1.094 0.32 -1.277 c 0.363 -0.18 0.41 -0.316 0.41 -1.258 c 0 -0.938 0.039 -1.059 0.34 -1.059 c 0.246 0 0.344 0.121 0.344 0.426 c 0 0.523 0.719 1.387 1.152 1.387 c 0.176 0 0.488 -0.246 0.695 -0.543 c 0.473 -0.68 0.293 -1.148 -0.563 -1.449 c -0.531 -0.184 -0.59 -0.273 -0.57 -0.82 c 0.012 -0.336 -0.078 -0.738 -0.195 -0.891 c -0.371 -0.473 -0.09 -0.824 0.66 -0.824 c 0.586 0 0.754 0.098 1.227 0.723 c 0.73 0.965 1.227 0.965 2.113 0 c 0.73 -0.797 1.195 -0.918 1.363 -0.359 c 0.059 0.199 0.289 0.59 0.508 0.867 c 0.543 0.688 0.5 1.484 -0.082 1.488 c -0.746 0.004 -0.895 0.223 -0.762 1.148 c 0.086 0.621 0.195 0.84 0.406 0.84 c 0.371 0 1.207 -0.918 1.207 -1.32 c 0 -0.172 0.078 -0.309 0.172 -0.309 c 0.094 0 0.172 0.109 0.172 0.242 c 0 0.137 0.121 0.504 0.266 0.816 c 0.285 0.605 0.848 0.766 1.234 0.355 c 0.352 -0.375 0.246 0.664 -0.117 1.141 c -0.273 0.359 -0.363 0.387 -0.59 0.184 c -0.148 -0.129 -0.313 -0.383 -0.367 -0.563 c -0.129 -0.43 -0.543 -0.59 -0.938 -0.367 c -0.355 0.203 -0.367 1.27 -0.02 1.961 c 0.16 0.316 0.141 0.484 -0.094 0.867 c -0.234 0.379 -0.25 0.539 -0.09 0.813 c 0.109 0.188 0.203 0.512 0.203 0.719 c 0 0.207 0.078 0.535 0.176 0.727 c 0.172 0.344 0.188 0.344 0.672 -0.039 c 0.273 -0.215 0.539 -0.496 0.586 -0.629 c 0.137 -0.383 -0.27 -1.398 -0.711 -1.77 c -0.43 -0.355 -0.367 -0.535 0.242 -0.73 c 0.277 -0.09 0.398 -0.031 0.477 0.238 c 0.059 0.195 0.277 0.383 0.484 0.414 c 0.523 0.082 0.586 0.797 0.117 1.328 c -0.367 0.414 -0.367 0.422 -0.035 0.609 c 0.398 0.227 0.547 0.105 0.547 -0.453 c 0 -0.297 0.074 -0.387 0.258 -0.316 c 0.57 0.234 0.098 1.527 -0.758 2.082 c -0.434 0.277 -0.5 0.402 -0.363 0.676 c 0.09 0.18 0.121 0.508 0.07 0.723 c -0.074 0.301 -0.023 0.391 0.238 0.391 c 0.348 0 0.727 -0.664 0.727 -1.277 c 0 -0.195 0.078 -0.352 0.172 -0.352 c 0.094 0 0.172 0.359 0.172 0.801 c 0 0.645 -0.07 0.828 -0.344 0.918 c -0.188 0.063 -0.34 0.211 -0.344 0.332 c 0 0.117 -0.07 0.328 -0.152 0.465 c -0.125 0.211 -0.238 0.184 -0.633 -0.148 l -0.484 -0.402 l -0.367 0.488 c -0.328 0.434 -0.43 0.473 -0.859 0.313 c -0.602 -0.223 -1.188 -0.012 -1.336 0.48 c -0.133 0.453 -0.473 0.48 -0.863 0.07 c -0.305 -0.324 -0.32 -0.301 0.492 -0.871 c 0.141 -0.102 0.305 -0.523 0.367 -0.945 c 0.113 -0.738 0.098 -0.766 -0.492 -1.027 c -0.688 -0.305 -1.789 -0.199 -2.066 0.199 c -0.148 0.211 -0.27 0.207 -0.789 -0.023 c -0.34 -0.152 -0.664 -0.398 -0.719 -0.551 c -0.129 -0.363 -0.613 -0.355 -1.117 0.016 c -0.348 0.262 -0.383 0.398 -0.293 1.117 c 0.059 0.449 0.191 0.926 0.297 1.059 c 0.262 0.336 1.586 0.316 1.855 -0.027 c 0.293 -0.371 0.477 -0.344 1.125 0.184 c 0.551 0.445 0.559 0.465 0.289 0.961 c -0.352 0.652 -0.18 1.758 0.316 2.043 c 0.293 0.164 0.438 0.113 0.887 -0.316 c 0.297 -0.281 0.637 -0.633 0.754 -0.777 c 0.168 -0.207 0.258 -0.215 0.422 -0.039 c 0.168 0.176 0.129 0.246 -0.172 0.328 c -0.297 0.082 -0.379 0.238 -0.379 0.715 c 0 0.703 0.395 1.02 0.98 0.781 c 0.449 -0.18 0.492 -0.641 0.117 -1.211 c -0.145 -0.223 -0.191 -0.402 -0.098 -0.402 c 0.09 0 0.406 -0.254 0.695 -0.563 c 0.492 -0.523 0.57 -0.547 1.039 -0.34 c 0.395 0.172 0.559 0.176 0.754 0.004 c 0.176 -0.152 0.152 -0.012 -0.078 0.492 c -0.281 0.621 -0.383 0.699 -0.809 0.633 c -0.305 -0.047 -0.57 0.027 -0.707 0.203 c -0.184 0.234 -0.148 0.355 0.211 0.738 c 0.352 0.375 0.414 0.574 0.336 1.094 c -0.113 0.723 -0.395 0.863 -0.395 0.195 c 0 -0.668 -0.273 -0.719 -0.941 -0.18 c -0.473 0.383 -0.559 0.539 -0.406 0.734 c 0.109 0.137 0.422 0.25 0.695 0.25 c 0.645 0 0.484 0.273 -0.332 0.555 c -0.348 0.121 -0.82 0.371 -1.043 0.559 c -0.617 0.508 -3.039 0.48 -3.664 -0.039 m 1.59 -0.613 c 0.113 -0.145 0.164 -0.34 0.109 -0.43 c -0.164 -0.285 -0.938 -0.355 -1.246 -0.117 c -0.25 0.191 -0.258 0.273 -0.066 0.52 c 0.285 0.363 0.93 0.375 1.203 0.027 m 2 -0.215 c 0.063 -0.176 -0.008 -0.387 -0.176 -0.52 c -0.156 -0.121 -0.285 -0.395 -0.285 -0.605 c 0 -0.406 -0.547 -1.113 -0.863 -1.113 c -0.098 0 -0.32 0.078 -0.492 0.176 c -0.258 0.145 -0.332 0.102 -0.414 -0.25 c -0.137 -0.57 -0.59 -0.734 -0.98 -0.355 c -0.402 0.387 -0.402 0.645 0.008 1.18 c 0.309 0.406 0.34 0.41 0.652 0.109 c 0.395 -0.379 0.555 -0.398 0.555 -0.07 c 0 0.133 0.195 0.48 0.434 0.77 c 0.238 0.289 0.508 0.625 0.602 0.75 c 0.246 0.324 0.836 0.281 0.961 -0.07 m -2.711 -3.977 c 0.074 -0.793 -0.332 -1.121 -0.902 -0.727 c -0.5 0.352 -0.535 0.59 -0.137 1.055 c 0.438 0.516 0.977 0.348 1.039 -0.328 m 4.973 -2.426 c 0.266 -0.148 0.691 -1.043 0.691 -1.449 c 0 -0.238 -0.871 -0.547 -1.531 -0.547 c -0.379 0 -0.781 0.125 -0.934 0.285 c -0.246 0.262 -0.242 0.34 0.031 0.863 c 0.164 0.316 0.363 0.676 0.445 0.801 c 0.184 0.27 0.863 0.297 1.297 0.047 m -4.32 -1.996 c 0.293 -0.777 0.477 -0.863 0.992 -0.445 c 0.184 0.145 0.461 0.266 0.617 0.266 c 0.504 0 1.164 -0.711 1.285 -1.379 c 0.09 -0.527 0.047 -0.688 -0.25 -0.91 c -0.488 -0.363 -0.457 -0.789 0.098 -1.258 c 0.438 -0.371 0.449 -0.41 0.188 -0.824 c -0.551 -0.871 -1 -1.246 -1.508 -1.246 c -0.371 0 -0.504 0.086 -0.504 0.328 c 0 0.828 -0.816 1.012 -0.965 0.215 c -0.098 -0.512 -0.148 -0.543 -0.914 -0.543 c -0.77 0 -0.813 0.027 -0.914 0.566 c -0.207 1.102 -0.129 2.105 0.18 2.23 c 0.176 0.07 0.348 0.008 0.438 -0.16 c 0.176 -0.336 0.75 -0.371 0.855 -0.055 c 0.051 0.148 0.191 0.078 0.41 -0.207 c 0.285 -0.367 0.387 -0.398 0.707 -0.219 c 0.496 0.281 0.477 0.371 -0.234 1.195 c -0.492 0.57 -0.641 0.656 -0.766 0.445 c -0.086 -0.145 -0.16 -0.367 -0.16 -0.488 c -0.004 -0.418 -0.785 -0.234 -1.266 0.297 c -0.402 0.449 -0.457 0.621 -0.355 1.133 c 0.168 0.824 0.391 1.242 0.668 1.242 c 0.125 0 0.324 0.121 0.438 0.27 c 0.359 0.457 0.672 0.309 0.961 -0.453 m -2.703 -3.125 c 0.176 -0.23 0.234 -1.523 0.098 -2.281 c -0.063 -0.359 -0.145 -0.406 -0.535 -0.309 c -0.617 0.16 -0.887 0.574 -0.887 1.363 c 0 1.109 0.824 1.879 1.324 1.227 m 3.871 -3.207 c 0.363 -0.746 0.336 -0.871 -0.293 -1.277 c -0.746 -0.484 -1.094 -0.453 -1.379 0.121 c -0.211 0.43 -0.199 0.539 0.125 1.078 c 0.48 0.805 1.176 0.844 1.547 0.078 m 3.758 12.492 c 0.059 -0.102 0.137 -0.18 0.18 -0.18 c 0.043 0 0.074 0.078 0.074 0.18 c 0 0.098 -0.082 0.18 -0.18 0.18 c -0.098 0 -0.133 -0.082 -0.074 -0.18 m -10.875 -11.176 c -0.398 -0.109 -0.375 -0.34 0.074 -0.676 c 0.395 -0.293 0.824 -0.109 0.824 0.352 c 0 0.184 -0.445 0.52 -0.57 0.43 c -0.016 -0.012 -0.164 -0.059 -0.328 -0.105 m 1.207 -3.078 c 0.121 -0.051 0.27 -0.047 0.324 0.016 c 0.059 0.059 -0.043 0.102 -0.223 0.094 c -0.199 -0.008 -0.238 -0.051 -0.102 -0.109" fill="#540523"/><path d="m 14.172 26.28 c -0.25 -0.207 -0.453 -0.555 -0.453 -0.77 c 0 -0.219 -0.074 -0.516 -0.16 -0.66 c -0.109 -0.184 -0.055 -0.336 0.191 -0.52 c 0.438 -0.328 0.676 -0.02 0.543 0.699 c -0.164 0.863 1.012 1.602 1.617 1.016 c 0.23 -0.223 0.508 -0.262 1.184 -0.176 c 0.727 0.09 0.902 0.055 0.992 -0.188 c 0.07 -0.195 0.309 -0.297 0.695 -0.297 c 0.664 0 0.633 0.262 -0.055 0.445 c -0.254 0.066 -0.648 0.281 -0.879 0.473 c -0.629 0.523 -3.039 0.508 -3.676 -0.023 m 4.063 -6.699 c -0.16 -0.277 0.063 -0.457 0.281 -0.227 c 0.121 0.133 0.125 0.23 0.008 0.309 c -0.094 0.063 -0.227 0.027 -0.289 -0.082 m -6.422 -0.113 c 0.125 -0.055 0.27 -0.047 0.328 0.012 c 0.055 0.063 -0.043 0.105 -0.223 0.098 c -0.199 -0.008 -0.242 -0.055 -0.105 -0.109 m -1.758 -1.871 c -0.137 -0.23 0.344 -0.438 0.605 -0.266 c 0.145 0.098 0.137 0.172 -0.035 0.285 c -0.305 0.207 -0.441 0.203 -0.57 -0.02 m 6.05 -0.359 c 0 -0.102 0.074 -0.184 0.168 -0.184 c 0.094 0 0.172 0.082 0.172 0.184 c 0 0.098 -0.078 0.18 -0.172 0.18 c -0.094 0 -0.168 -0.082 -0.168 -0.18 m -4.945 -0.184 c 0 -0.098 0.117 -0.18 0.266 -0.18 c 0.145 0 0.219 0.082 0.16 0.18 c -0.059 0.102 -0.18 0.184 -0.266 0.184 c -0.09 0 -0.16 -0.082 -0.16 -0.184 m 9.465 -0.18 c -0.27 -0.461 0.418 -0.723 0.938 -0.359 c 0.227 0.156 0.227 0.199 0 0.355 c -0.332 0.23 -0.805 0.234 -0.938 0.004 m -2.305 -0.16 c 0 -0.086 0.121 -0.266 0.27 -0.395 c 0.223 -0.195 0.293 -0.195 0.414 0.012 c 0.082 0.141 0.109 0.316 0.063 0.398 c -0.113 0.195 -0.746 0.184 -0.746 -0.016 m 2.598 -2.047 c 0.105 -0.336 0.473 -0.395 0.473 -0.074 c 0 0.16 -0.121 0.289 -0.27 0.289 c -0.148 0 -0.238 -0.098 -0.203 -0.215 m -11.637 -0.254 c 0 -0.32 0.367 -0.266 0.473 0.07 c 0.039 0.121 -0.055 0.215 -0.203 0.215 c -0.148 0 -0.27 -0.129 -0.27 -0.285 m 9.25 -0.473 c 0.105 -0.336 0.473 -0.391 0.473 -0.07 c 0 0.156 -0.121 0.285 -0.27 0.285 c -0.148 0 -0.242 -0.098 -0.203 -0.215 m -6.352 -3.047 c 0 -0.098 0.078 -0.18 0.172 -0.18 c 0.094 0 0.172 0.082 0.172 0.18 c 0 0.102 -0.078 0.184 -0.172 0.184 c -0.094 0 -0.172 -0.082 -0.172 -0.184 m 5.05 0.031 c -0.063 -0.102 -0.027 -0.238 0.074 -0.309 c 0.266 -0.172 0.434 0.066 0.215 0.297 c -0.125 0.133 -0.219 0.133 -0.289 0.012 m -3.129 -1.828 c -0.738 -0.438 -1.082 -0.75 -0.988 -0.906 c 0.039 -0.07 -0.039 -0.363 -0.18 -0.648 c -0.359 -0.73 -0.199 -0.992 0.598 -0.992 c 0.59 0 0.754 0.098 1.227 0.723 c 0.73 0.965 1.227 0.965 2.113 0 c 0.793 -0.859 1.164 -0.91 1.445 -0.195 c 0.113 0.293 0.352 0.672 0.531 0.844 c 0.668 0.645 0.234 1.25 -1.027 1.434 c -0.645 0.094 -0.941 0.055 -1.234 -0.164 c -0.488 -0.363 -1.059 -0.367 -1.336 -0.016 c -0.27 0.344 -0.461 0.332 -1.148 -0.078" fill="#2a1a18"/></svg>