<svg xmlns="http://www.w3.org/2000/svg" viewBox="0 0 32 32"><path d="m 4.109 24.41 c -19.234 -31 43.19 -32.461 23.852 -0.508 c -5.117 8.223 -18.441 12.234 -23.852 0.508" fill="#39a5c8"/><g fill="#fff"><path d="m 12.621 17.387 l 5.469 0.004 l 4.168 0.004 c 1.504 0 2.043 0.703 1.199 1.559 l -6.211 6.285 c -0.844 0.855 -2.262 0.871 -3.148 0.035 l -6.77 -6.375 c -0.887 -0.836 -0.383 -1.52 1.125 -1.52"/><path d="m 10.664 8.01 c -1.074 0.836 -1.809 1.934 -2.152 3.246 l 3.59 0.008 c 0 0 -0.254 0.383 -0.336 0.863 c -0.082 0.477 -0.086 1.512 0.008 1.957 c 0.094 0.441 0.328 0.68 0.328 0.68 h -3.566 c 0.816 2.973 3.652 5.164 7.02 5.164 c 3.367 0 6.203 -2.191 7.02 -5.16 c -1.082 0.008 -2.094 0 -3.266 -0.004 c -0.129 -0.023 -0.316 -0.094 -0.34 -0.355 c 0 -0.871 -0.004 -1.949 0.004 -2.82 c 0.047 -0.242 0.223 -0.32 0.355 -0.34 h 0.004 c 0.348 0 2.59 -0.008 3.227 -0.012 c -0.387 -1.289 -1.184 -2.398 -2.238 -3.223 c -3.352 0 -6.215 -0.004 -9.66 -0.004 m 3.543 2.84 c 1.18 0.004 2.352 0.012 3.613 0.004 c 0.168 0.008 0.438 0.137 0.438 0.391 l -0.008 3.531 c 0 0.27 -0.25 0.402 -0.43 0.402 c -1.176 0 -2.438 0 -3.613 0 c -0.73 0.008 -1.324 -0.582 -1.324 -1.602 v -1.203 c 0.035 -0.707 0.684 -1.52 1.324 -1.523"/></g><path d="m 20.824 13 c 0 -0.246 -0.219 -0.445 -0.488 -0.445 c -0.273 0 -0.492 0.199 -0.492 0.445 c 0 0.246 0.219 0.441 0.492 0.441 c 0.27 0 0.488 -0.195 0.488 -0.441" fill="#fcfdfd"/><g fill="#fff"><path d="m 22.508 13 c 0 -0.246 -0.219 -0.445 -0.488 -0.445 c -0.273 0 -0.492 0.199 -0.492 0.445 c 0 0.246 0.219 0.441 0.492 0.441 c 0.27 0 0.488 -0.195 0.488 -0.441"/><path d="m 14.348 12.316 c 0 -0.227 0.195 -0.367 0.348 -0.367 c 0.727 0 1.488 0.004 2.227 0.004 c 0.148 0 0.348 -0.004 0.348 0.277 v 1.613 c 0 0.27 -0.277 0.266 -0.277 0.266 c -0.277 0 -1.613 0 -2.297 0 c -0.156 0 -0.348 -0.141 -0.348 -0.422 c 0 -0.527 0 -0.867 0 -1.371"/></g></svg>