<svg xmlns="http://www.w3.org/2000/svg" viewBox="0 0 32 32"><path d="m 30.605 10.934 c 6.211 15.926 -11.195 24.09 -22.03 20.04 c -7.563 -2.832 -11.332 -14.12 -5.961 -23.254 c 6.777 -11.516 23.2 -9.07 27.988 3.219" fill="#4390be"/><path d="m 8.758 24.379 c -0.75 -0.262 -1.34 -0.813 -1.609 -1.512 c -0.156 -0.406 -0.164 -0.602 -0.164 -6.418 c 0 -5.953 0.004 -6 0.176 -6.449 c 0.234 -0.605 0.84 -1.191 1.473 -1.418 c 0.461 -0.164 0.516 -0.168 6.691 -0.168 c 6.066 0 6.242 0.004 6.672 0.16 c 0.559 0.203 1.082 0.645 1.391 1.18 l 0.238 0.418 v 12.559 l -0.215 0.391 c -0.258 0.469 -0.707 0.891 -1.203 1.141 l -0.363 0.184 l -6.398 0.02 c -5.094 0.012 -6.457 -0.004 -6.688 -0.086 m 7.371 -1.965 c 1.961 -1.016 3.383 -2.254 4.047 -3.527 c 0.484 -0.926 0.496 -1.043 0.496 -4.793 c 0 -3.313 -0.008 -3.422 -0.164 -3.574 c -0.156 -0.152 -0.27 -0.156 -5.203 -0.152 c -2.77 0 -5.078 0.027 -5.129 0.059 c -0.258 0.164 -0.273 0.414 -0.273 3.676 c 0 2.059 0.031 3.43 0.086 3.688 c 0.129 0.594 0.648 1.586 1.121 2.137 c 0.449 0.523 1.395 1.313 2.18 1.824 c 0.715 0.461 1.801 1.016 1.996 1.016 c 0.09 0 0.469 -0.16 0.844 -0.355 m -0.781 -5.941 l 0.02 -4.504 l 1.801 -0.023 l 1.797 -0.02 l 0.051 0.188 c 0.027 0.105 0.035 1.379 0.023 2.832 l -0.027 2.645 l -0.258 0.504 c -0.305 0.594 -0.879 1.234 -1.594 1.781 c -0.52 0.398 -1.648 1.102 -1.77 1.102 c -0.035 0 -0.055 -2.027 -0.043 -4.504" fill="#fff"/></svg>