<svg xmlns="http://www.w3.org/2000/svg" xmlns:xlink="http://www.w3.org/1999/xlink" viewBox="0 0 32 32"><defs><g id="3" clip-path="url(#2)"><path d="m 17.01 12.965 c 0 -2.082 -1.641 -3.766 -3.668 -3.766 c -2.027 0 -3.672 1.684 -3.672 3.766 c 0 2.078 1.645 3.762 3.672 3.762 c 2.027 0 3.668 -1.684 3.668 -3.762" fill="#fff"/><path d="m 13.34 9.199 c -2.609 -0.082 -4.102 1.637 -3.891 3.781 c 0 0.23 0.242 0.438 0.277 0.656 c 2.762 -4.93 6.879 -1.531 7.188 0.18 c 0.063 -0.273 0.094 -0.559 0.094 -0.852 c 0 -2.082 -1.641 -3.766 -3.668 -3.766" fill="#abc0c7"/></g><clipPath id="2"><path d="M 0,0 H32 V32 H0 z"/></clipPath><filter id="0" filterUnits="objectBoundingBox" x="0" y="0" width="32" height="32"><feColorMatrix type="matrix" in="SourceGraphic" values="0 0 0 0 1 0 0 0 0 1 0 0 0 0 1 0 0 0 1 0"/></filter><mask id="1"><g filter="url(#0)"><path fill-opacity="0.4" d="M 0,0 H32 V32 H0 z"/></g></mask></defs><path d="m 27.41 6 c 19.965 28.379 -31.957 37.41 -26.809 7.258 c 2.73 -11.992 18.809 -18.625 26.809 -7.258" fill="#e62969"/><path d="m 20.07 10.84 c -0.215 -1.043 -1.391 -0.969 -1.391 -0.969 l -1.098 -0.734 c 0 0 -0.039 -0.898 -1.367 -0.898 c -1.328 0 -1.367 0.875 -1.367 0.875 c 0 0 -0.469 0.316 -1.098 0.758 c -1.445 0.082 -1.391 0.969 -1.391 0.969 c 0 0 -1.078 0.73 -1.301 0.871 c -0.219 0.141 -0.227 0.281 -0.227 0.281 v 4.02 c 0 0.098 0.059 0.152 0.059 0.152 c 0 0 5.066 3.652 5.324 3.652 c 0.258 0 5.359 -3.59 5.359 -3.707 v -4.117 c -0.051 -0.262 -0.895 -0.723 -1.504 -1.152" fill="#7e3c9a"/><path d="m 15.258 10.04 v 0.234 c 0 0 0.133 0.543 0.957 0.543 c 0.824 0 0.957 -0.496 0.957 -0.496 v -0.305 c 0 0 -0.348 0.305 -0.957 0.305 c -0.609 0 -0.957 -0.281 -0.957 -0.281 m 0.945 -0.191 c 0.547 0 0.992 -0.258 0.992 -0.578 c 0 -0.32 -0.445 -0.578 -0.992 -0.578 c -0.547 0 -0.992 0.258 -0.992 0.578 c 0 0.32 0.445 0.578 0.992 0.578 m 1.082 2.035 v -1.02 c -0.168 0.227 -0.785 0.379 -1.07 0.379 c -0.633 0 -1.094 -0.379 -1.094 -0.379 v 1.02 c 0 0 0.504 -0.402 1.094 -0.402 c 0.59 0 1.07 0.402 1.07 0.402 m -1.082 0.047 c -0.547 0 -0.992 0.258 -0.992 0.578 c 0 0.32 0.445 0.578 0.992 0.578 c 0.547 0 0.992 -0.258 0.992 -0.578 c 0 -0.32 -0.445 -0.578 -0.992 -0.578 m 2.484 -0.449 c 0.551 0 0.992 -0.262 0.992 -0.578 c 0 -0.32 -0.441 -0.582 -0.992 -0.582 c -0.547 0 -0.992 0.262 -0.992 0.582 c 0 0.316 0.445 0.578 0.992 0.578 m -0.969 0.164 v 0.262 c 0 0 0.324 0.52 1 0.52 c 0.68 0 0.914 -0.473 0.914 -0.473 v -0.309 c 0 0 -0.223 0.309 -0.914 0.309 c -0.691 0 -1 -0.309 -1 -0.309 m 0.094 -1.582 l -0.207 -0.117 v 0.281 c 0.027 -0.066 0.207 -0.164 0.207 -0.164 m -1.277 5.695 l 0.023 3.117 l 4.379 -3.02 v -3.145 m -8.145 -1.063 v 0.285 c 0 0 0.148 0.496 0.957 0.496 c 0.813 0 0.961 -0.52 0.961 -0.52 v -0.262 c 0 0 -0.355 0.285 -0.961 0.285 c -0.75 0 -0.957 -0.285 -0.957 -0.285 m 2.465 1.656 v 0.258 c 0 0 0.215 0.52 0.957 0.52 c 0.742 0 0.957 -0.52 0.957 -0.52 v -0.281 c 0 0 -0.355 0.281 -0.957 0.281 c -0.602 0 -0.957 -0.258 -0.957 -0.258 m -3.742 2.551 l 4.355 3.02 v -3.141 l -4.379 -3.051 m 2.246 -1.203 c 0.551 0 0.992 -0.262 0.992 -0.578 c 0 -0.32 -0.441 -0.582 -0.992 -0.582 c -0.547 0 -0.992 0.262 -0.992 0.582 c 0 0.316 0.445 0.578 0.992 0.578 m 1.086 -1.254 v -0.281 l -0.207 0.141 c 0.145 0.066 0.207 0.141 0.207 0.141 m 5.266 1.441 c 0 0.563 -0.344 1.199 -1.367 1.207 c -0.523 0 -1.117 -0.355 -1.117 -0.355 v 1.039 c 0 0.223 -0.336 0.969 -1.391 0.969 c -1.055 0 -1.391 -0.84 -1.391 -0.945 v -1.109 c 0 0 -0.258 0.402 -1.098 0.402 c -1.418 0 -1.391 -1.207 -1.391 -1.207 l -0.547 0.402 l 4.426 3.074 l 4.449 -3.074 c 0 0 -0.281 -0.184 -0.574 -0.402" fill="#ad79c3" fill-rule="evenodd"/><path d="m 24.75 14.219 c -0.215 -1.043 -1.391 -0.969 -1.391 -0.969 l -1.094 -0.734 c 0 0 -0.043 -0.895 -1.371 -0.895 c -1.324 0 -1.367 0.871 -1.367 0.871 c 0 0 -0.469 0.316 -1.094 0.758 c -1.445 0.082 -1.391 0.969 -1.391 0.969 c 0 0 -1.082 0.734 -1.301 0.875 c -0.223 0.141 -0.23 0.277 -0.23 0.277 v 4.02 c 0 0.094 0.063 0.152 0.063 0.152 c 0 0 5.066 3.652 5.32 3.652 c 0.258 0 5.363 -3.594 5.363 -3.711 v -4.117 c -0.051 -0.262 -0.895 -0.719 -1.508 -1.152" fill="#7e3c9a"/><path d="m 19.938 13.414 v 0.238 c 0 0 0.137 0.543 0.957 0.543 c 0.824 0 0.961 -0.496 0.961 -0.496 v -0.309 c 0 0 -0.348 0.309 -0.961 0.309 c -0.609 0 -0.957 -0.285 -0.957 -0.285 m 0.945 -0.188 c 0.551 0 0.992 -0.258 0.992 -0.578 c 0 -0.32 -0.441 -0.578 -0.992 -0.578 c -0.547 0 -0.992 0.258 -0.992 0.578 c 0 0.32 0.445 0.578 0.992 0.578 m 1.086 2.031 v -1.016 c -0.172 0.223 -0.789 0.379 -1.074 0.379 c -0.633 0 -1.094 -0.379 -1.094 -0.379 v 1.016 c 0 0 0.504 -0.402 1.094 -0.402 c 0.594 0 1.074 0.402 1.074 0.402 m 1.402 -0.402 c 0.547 0 0.992 -0.258 0.992 -0.578 c 0 -0.32 -0.445 -0.578 -0.992 -0.578 c -0.547 0 -0.992 0.258 -0.992 0.578 c 0 0.32 0.445 0.578 0.992 0.578 m -2.488 0.449 c -0.547 0 -0.992 0.262 -0.992 0.582 c 0 0.316 0.445 0.578 0.992 0.578 c 0.551 0 0.992 -0.262 0.992 -0.578 c 0.004 -0.32 -0.441 -0.582 -0.992 -0.582 m 1.609 -1.867 l -0.203 -0.117 v 0.285 c 0.027 -0.07 0.203 -0.168 0.203 -0.168 m -0.09 1.586 v 0.258 c 0 0 0.324 0.52 1 0.52 c 0.68 0 0.91 -0.473 0.91 -0.473 v -0.305 c 0 0 -0.219 0.305 -0.91 0.305 c -0.691 0 -1 -0.305 -1 -0.305 m -4.926 0 v 0.281 c 0 0 0.145 0.496 0.957 0.496 c 0.809 0 0.957 -0.52 0.957 -0.52 v -0.258 c 0 0 -0.352 0.281 -0.957 0.281 c -0.75 0 -0.957 -0.281 -0.957 -0.281 m -1.277 4.203 l 4.355 3.03 v -3.145 l -4.379 -3.047 m 5.04 3.07 l 0.023 3.121 l 4.379 -3.03 v -3.141 m -5.68 0.59 v 0.262 c 0 0 0.215 0.52 0.957 0.52 c 0.746 0 0.961 -0.52 0.961 -0.52 v -0.285 c 0 0 -0.359 0.285 -0.961 0.285 c -0.598 0 -0.957 -0.262 -0.957 -0.262 m -0.434 -3.07 v -0.285 l -0.203 0.141 c 0.141 0.066 0.203 0.145 0.203 0.145 m -1.082 1.25 c 0.547 0 0.992 -0.258 0.992 -0.578 c 0 -0.32 -0.445 -0.578 -0.992 -0.578 c -0.547 0 -0.992 0.258 -0.992 0.578 c 0 0.32 0.445 0.578 0.992 0.578 m 6.352 0.191 c 0 0.563 -0.348 1.199 -1.367 1.203 c -0.523 0 -1.117 -0.355 -1.117 -0.355 v 1.043 c 0 0.219 -0.34 0.969 -1.395 0.969 c -1.051 0 -1.391 -0.844 -1.391 -0.945 v -1.113 c 0 0 -0.258 0.402 -1.094 0.402 c -1.422 0 -1.391 -1.203 -1.391 -1.203 l -0.551 0.402 l 4.426 3.07 l 4.449 -3.07 c 0 -0.004 -0.281 -0.184 -0.57 -0.402" fill="#ad79c3" fill-rule="evenodd"/><path d="m 15.387 14.219 c -0.215 -1.043 -1.391 -0.969 -1.391 -0.969 l -1.094 -0.734 c 0 0 -0.043 -0.895 -1.371 -0.895 c -1.324 0 -1.367 0.871 -1.367 0.871 c 0 0 -0.469 0.316 -1.094 0.758 c -1.445 0.082 -1.391 0.969 -1.391 0.969 c 0 0 -1.082 0.734 -1.301 0.875 c -0.223 0.141 -0.23 0.277 -0.23 0.277 v 4.02 c 0 0.094 0.063 0.152 0.063 0.152 c 0 0 5.066 3.652 5.324 3.652 c 0.258 0 5.359 -3.594 5.359 -3.711 v -4.117 c -0.051 -0.262 -0.895 -0.719 -1.508 -1.152" fill="#7e3c9a"/><path d="m 11.523 15.305 c -0.551 0 -0.992 0.262 -0.992 0.582 c 0 0.316 0.441 0.578 0.992 0.578 c 0.547 0 0.992 -0.262 0.992 -0.578 c 0 -0.32 -0.445 -0.582 -0.992 -0.582 m 0 -2.078 c 0.547 0 0.992 -0.258 0.992 -0.578 c 0 -0.32 -0.445 -0.578 -0.992 -0.578 c -0.551 0 -0.992 0.258 -0.992 0.578 c 0 0.32 0.441 0.578 0.992 0.578 m 1.082 2.031 v -1.016 c -0.172 0.223 -0.789 0.379 -1.074 0.379 c -0.633 0 -1.094 -0.379 -1.094 -0.379 v 1.016 c 0 0 0.504 -0.402 1.094 -0.402 c 0.594 0 1.074 0.402 1.074 0.402 m -2.031 -1.844 v 0.238 c 0 0 0.137 0.543 0.957 0.543 c 0.824 0 0.961 -0.496 0.961 -0.496 v -0.309 c 0 0 -0.348 0.309 -0.961 0.309 c -0.609 0 -0.957 -0.285 -0.957 -0.285 m 3.434 1.441 c 0.547 0 0.992 -0.258 0.992 -0.578 c 0 -0.32 -0.445 -0.578 -0.992 -0.578 c -0.547 0 -0.992 0.258 -0.992 0.578 c 0 0.32 0.445 0.578 0.992 0.578 m -0.969 0.168 v 0.258 c 0 0 0.324 0.52 1 0.52 c 0.68 0 0.91 -0.473 0.91 -0.473 v -0.305 c 0 0 -0.219 0.305 -0.91 0.305 c -0.691 0 -1 -0.305 -1 -0.305 m 0.09 -1.586 l -0.203 -0.117 v 0.285 c 0.027 -0.07 0.203 -0.168 0.203 -0.168 m -1.277 5.695 l 0.023 3.121 l 4.379 -3.03 v -3.141 m -5.68 0.59 v 0.262 c 0 0 0.215 0.52 0.957 0.52 c 0.746 0 0.961 -0.52 0.961 -0.52 v -0.285 c 0 0 -0.359 0.285 -0.961 0.285 c -0.598 0 -0.957 -0.262 -0.957 -0.262 m -3.738 2.551 l 4.355 3.03 v -3.145 l -4.379 -3.047 m 1.301 -1.039 v 0.281 c 0 0 0.145 0.496 0.957 0.496 c 0.809 0 0.957 -0.52 0.957 -0.52 v -0.258 c 0 0 -0.352 0.281 -0.957 0.281 c -0.75 0 -0.957 -0.281 -0.957 -0.281 m 0.945 -0.168 c 0.547 0 0.992 -0.258 0.992 -0.578 c 0 -0.32 -0.445 -0.578 -0.992 -0.578 c -0.547 0 -0.992 0.258 -0.992 0.578 c 0 0.32 0.445 0.578 0.992 0.578 m 1.082 -1.25 v -0.285 l -0.203 0.141 c 0.141 0.066 0.203 0.145 0.203 0.145 m 5.27 1.441 c 0 0.563 -0.344 1.199 -1.367 1.203 c -0.523 0 -1.117 -0.355 -1.117 -0.355 v 1.043 c 0 0.219 -0.34 0.969 -1.395 0.969 c -1.051 0 -1.391 -0.844 -1.391 -0.945 v -1.113 c 0 0 -0.258 0.402 -1.094 0.402 c -1.422 0 -1.391 -1.203 -1.391 -1.203 l -0.547 0.402 l 4.422 3.07 l 4.449 -3.07 c 0 -0.004 -0.281 -0.184 -0.57 -0.402" fill="#ad79c3" fill-rule="evenodd"/><path d="m 20.07 17.598 c -0.215 -1.039 -1.391 -0.969 -1.391 -0.969 l -1.098 -0.73 c 0 0 -0.039 -0.898 -1.367 -0.898 c -1.328 0 -1.367 0.875 -1.367 0.875 c 0 0 -0.469 0.316 -1.098 0.754 c -1.445 0.082 -1.391 0.969 -1.391 0.969 c 0 0 -1.078 0.734 -1.301 0.875 c -0.219 0.141 -0.227 0.281 -0.227 0.281 v 4.02 c 0 0.098 0.059 0.152 0.059 0.152 c 0 0 5.066 3.652 5.324 3.652 c 0.258 0 5.359 -3.59 5.359 -3.711 v -4.113 c -0.051 -0.262 -0.895 -0.723 -1.504 -1.156" fill="#9654b2"/><path d="m 15.258 16.797 v 0.234 c 0 0 0.133 0.543 0.957 0.543 c 0.824 0 0.957 -0.496 0.957 -0.496 v -0.305 c 0 0 -0.348 0.305 -0.957 0.305 c -0.609 0 -0.957 -0.281 -0.957 -0.281 m 0.945 -0.191 c 0.547 0 0.992 -0.258 0.992 -0.578 c 0 -0.32 -0.445 -0.578 -0.992 -0.578 c -0.547 0 -0.992 0.258 -0.992 0.578 c 0 0.32 0.445 0.578 0.992 0.578 m 1.082 2.035 v -1.016 c -0.168 0.223 -0.785 0.375 -1.07 0.375 c -0.633 0 -1.094 -0.375 -1.094 -0.375 v 1.016 c 0 0 0.504 -0.402 1.094 -0.402 c 0.59 0 1.07 0.402 1.07 0.402 m 1.402 -0.402 c 0.551 0 0.992 -0.262 0.992 -0.578 c 0 -0.32 -0.441 -0.582 -0.992 -0.582 c -0.547 0 -0.992 0.262 -0.992 0.582 c 0 0.316 0.445 0.578 0.992 0.578 m -0.875 -1.418 l -0.207 -0.121 v 0.285 c 0.027 -0.066 0.207 -0.164 0.207 -0.164 m -0.094 1.582 v 0.262 c 0 0 0.324 0.52 1 0.52 c 0.68 0 0.914 -0.473 0.914 -0.473 v -0.309 c 0 0 -0.223 0.309 -0.914 0.309 c -0.691 0 -1 -0.309 -1 -0.309 m -1.516 0.285 c -0.547 0 -0.992 0.258 -0.992 0.578 c 0 0.32 0.445 0.578 0.992 0.578 c 0.547 0 0.992 -0.258 0.992 -0.578 c 0 -0.32 -0.445 -0.578 -0.992 -0.578 m -3.41 -0.285 v 0.285 c 0 0 0.148 0.496 0.957 0.496 c 0.813 0 0.961 -0.52 0.961 -0.52 v -0.262 c 0 0 -0.355 0.285 -0.961 0.285 c -0.75 0 -0.957 -0.285 -0.957 -0.285 m -1.277 4.207 l 4.355 3.02 v -3.141 l -4.379 -3.051 m 5.04 3.074 l 0.023 3.117 l 4.379 -3.02 v -3.145 m -6.113 -2.48 v -0.281 l -0.207 0.141 c 0.145 0.066 0.207 0.141 0.207 0.141 m -1.086 1.254 c 0.551 0 0.992 -0.262 0.992 -0.578 c 0 -0.32 -0.441 -0.582 -0.992 -0.582 c -0.547 0 -0.992 0.262 -0.992 0.582 c 0 0.316 0.445 0.578 0.992 0.578 m 1.52 1.82 v 0.258 c 0 0 0.215 0.52 0.957 0.52 c 0.742 0 0.957 -0.52 0.957 -0.52 v -0.281 c 0 0 -0.355 0.281 -0.957 0.281 c -0.602 0 -0.957 -0.258 -0.957 -0.258 m 4.832 -1.633 c 0 0.563 -0.344 1.199 -1.367 1.207 c -0.523 0 -1.117 -0.355 -1.117 -0.355 v 1.039 c 0 0.223 -0.336 0.969 -1.391 0.969 c -1.055 0 -1.391 -0.844 -1.391 -0.945 v -1.109 c 0 0 -0.258 0.402 -1.098 0.402 c -1.418 0 -1.391 -1.207 -1.391 -1.207 l -0.547 0.402 l 4.426 3.07 l 4.449 -3.07 c 0 0 -0.281 -0.184 -0.574 -0.402" fill="#622e78" fill-rule="evenodd"/><path d="m 9.742 10.223 h 7.652 v 2.91 h -7.652" fill="#fff"/><path d="m 9.02 10.688 h -0.383 c -0.148 0.094 -0.289 0.152 -0.508 0.195 v 0.332 h 0.367 v 1.027 h -0.418 v 0.434 h 1.293 v -0.434 h -0.352 m 1.652 -1.555 h -0.383 c -0.148 0.094 -0.289 0.152 -0.508 0.195 v 0.332 h 0.367 v 1.027 h -0.418 v 0.434 h 1.289 v -0.434 h -0.348 m 1.652 -1.555 h -0.383 c -0.148 0.094 -0.289 0.152 -0.508 0.195 v 0.332 h 0.363 v 1.027 h -0.414 v 0.434 h 1.289 v -0.434 h -0.348 m 1.336 -1.59 c -0.43 0 -0.723 0.34 -0.723 1.02 c 0 0.68 0.293 1.043 0.723 1.043 c 0.426 0 0.723 -0.363 0.723 -1.043 c -0.004 -0.676 -0.297 -1.02 -0.723 -1.02 m 0 1.648 c -0.125 0 -0.227 -0.102 -0.227 -0.629 c 0 -0.527 0.102 -0.605 0.227 -0.605 c 0.121 0 0.227 0.078 0.227 0.605 c 0 0.527 -0.105 0.629 -0.227 0.629 m 1.652 -1.648 c -0.43 0 -0.723 0.34 -0.723 1.02 c 0 0.68 0.293 1.043 0.723 1.043 c 0.426 0 0.723 -0.363 0.723 -1.043 c 0 -0.676 -0.297 -1.02 -0.723 -1.02 m 0 1.648 c -0.125 0 -0.227 -0.102 -0.227 -0.629 c 0 -0.527 0.105 -0.605 0.227 -0.605 c 0.121 0 0.227 0.078 0.227 0.605 c 0 0.527 -0.105 0.629 -0.227 0.629 m 1.652 -1.648 c -0.43 0 -0.723 0.34 -0.723 1.02 c 0 0.68 0.293 1.043 0.723 1.043 c 0.426 0 0.719 -0.363 0.719 -1.043 c 0 -0.676 -0.293 -1.02 -0.719 -1.02 m 0 1.648 c -0.125 0 -0.227 -0.102 -0.227 -0.629 c 0 -0.527 0.102 -0.605 0.227 -0.605 c 0.121 0 0.227 0.078 0.227 0.605 c 0 0.527 -0.105 0.629 -0.227 0.629" fill="#b8174c" fill-rule="evenodd"/><path d="m 25.484 20.324 l -5.996 -4.273 c -0.426 -0.301 -0.953 -0.34 -1.398 -0.145 c 1.141 -2.395 0.449 -5.359 -1.734 -6.918 c -2.406 -1.711 -5.723 -1.082 -7.395 1.406 c -0.809 1.207 -1.113 2.664 -0.863 4.105 c 0.25 1.441 1.031 2.691 2.195 3.52 c 1.164 0.828 2.574 1.141 3.973 0.875 c 1.137 -0.215 2.152 -0.793 2.93 -1.652 c -0.02 0.496 0.199 0.992 0.625 1.293 l 5.996 4.273 c 0.66 0.473 1.57 0.297 2.031 -0.387 c 0.461 -0.688 0.297 -1.625 -0.363 -2.098 m -9.121 -4.648 c -1.164 1.734 -3.477 2.172 -5.156 0.977 c -1.676 -1.195 -2.09 -3.578 -0.926 -5.316 c 1.168 -1.734 3.48 -2.176 5.156 -0.977 c 0.813 0.578 1.355 1.449 1.531 2.453 c 0.176 1 -0.039 2.02 -0.605 2.863" fill-opacity="0.302"/><path d="m 25.496 19.621 l -5.996 -4.277 c -0.426 -0.301 -0.953 -0.34 -1.395 -0.145 c 1.141 -2.395 0.449 -5.359 -1.734 -6.914 c -2.406 -1.715 -5.723 -1.086 -7.395 1.402 c -0.809 1.207 -1.117 2.664 -0.863 4.105 c 0.25 1.441 1.031 2.691 2.195 3.52 c 1.16 0.832 2.574 1.141 3.969 0.875 c 1.141 -0.215 2.156 -0.793 2.934 -1.648 c -0.02 0.496 0.199 0.988 0.625 1.289 l 5.992 4.273 c 0.664 0.473 1.574 0.301 2.035 -0.387 c 0.461 -0.684 0.297 -1.621 -0.367 -2.094 m -9.117 -4.652 c -1.168 1.734 -3.48 2.172 -5.156 0.977 c -1.676 -1.195 -2.094 -3.578 -0.926 -5.316 c 1.164 -1.734 3.48 -2.172 5.156 -0.977 c 0.809 0.578 1.352 1.449 1.527 2.453 c 0.176 1.01 -0.035 2.023 -0.602 2.863" fill="#fff"/><use xlink:href="#3" mask="url(#1)"/></svg>