<svg xmlns="http://www.w3.org/2000/svg" viewBox="0 0 32 32"><path d="m 29.668 7.77 c -24.18 -28.16 -47.43 29.75 -10.04 23.797 c 8.199 -1.305 16.547 -16.207 10.04 -23.797" fill="#f8f8ff"/><path d="m 351.58 -56.2 c -7.188 -4.094 -17.406 -15.16 -17.406 -18.844 c 0 -2 3.281 -6.563 7.281 -10.188 c 8.469 -7.656 11.25 -6.906 21.25 5.563 c 7.5 9.406 8.094 14.813 1.688 15.75 c -2.969 0.438 -4.844 2.375 -5.25 5.438 c -0.75 5.313 -1.688 5.594 -7.563 2.281" transform="matrix(0.125 0 0 0.125 -27.92 28.803)" fill="#0000d9" stroke="#0000d9" stroke-width="1.111"/><g transform="scale(0.125)"><g stroke-width="0.508"><g fill="#69ce69" stroke="#69ce69"><path d="m 55.938 110.75 h 24.563 c 2.219 0 4 3.344 4 7.5 c 0 4.125 -1.781 7.5 -4 7.5 h -24.563 c -2.219 0 -4.03 -3.375 -4.03 -7.5 c 0 -4.156 1.813 -7.5 4.03 -7.5"/><path d="m 92.91 110.75 h 24.563 c 2.219 0 4 3.344 4 7.5 c 0 4.125 -1.781 7.5 -4 7.5 h -24.563 c -2.219 0 -4.03 -3.375 -4.03 -7.5 c 0 -4.156 1.813 -7.5 4.03 -7.5"/><path d="m 165.97 110.75 h 24.563 c 2.219 0 4 3.344 4 7.5 c 0 4.125 -1.781 7.5 -4 7.5 h -24.563 c -2.219 0 -4.03 -3.375 -4.03 -7.5 c 0 -4.156 1.813 -7.5 4.03 -7.5"/></g><g fill="#4581b3" stroke="#4581b3"><path d="m 166.84 90.5 h 24.563 c 2.219 0 4.03 3.375 4.03 7.5 c 0 4.156 -1.813 7.5 -4.03 7.5 h -24.563 c -2.219 0 -4 -3.344 -4 -7.5 c 0 -4.125 1.781 -7.5 4 -7.5"/><path d="m 130.75 90.5 h 24.563 c 2.219 0 4.03 3.375 4.03 7.5 c 0 4.156 -1.813 7.5 -4.03 7.5 h -24.563 c -2.219 0 -4 -3.344 -4 -7.5 c 0 -4.125 1.781 -7.5 4 -7.5"/><path d="m 93.78 90.5 h 24.563 c 2.219 0 4.03 3.375 4.03 7.5 c 0 4.156 -1.813 7.5 -4.03 7.5 h -24.563 c -2.219 0 -4 -3.344 -4 -7.5 c 0 -4.125 1.781 -7.5 4 -7.5"/><path d="m 55.06 90.5 h 24.563 c 2.219 0 4 3.375 4 7.5 c 0 4.156 -1.781 7.5 -4 7.5 h -24.563 c -2.219 0 -4.03 -3.344 -4.03 -7.5 c 0 -4.125 1.813 -7.5 4.03 -7.5"/></g><g fill="#ed699d" stroke="#ed699d"><path d="m 55.06 70.25 h 24.563 c 2.219 0 4 3.375 4 7.5 c 0 4.156 -1.781 7.5 -4 7.5 h -24.563 c -2.219 0 -4.03 -3.344 -4.03 -7.5 c 0 -4.125 1.813 -7.5 4.03 -7.5"/><path d="m 92.91 69.38 h 24.563 c 2.219 0 4 3.375 4 7.5 c 0 4.125 -1.781 7.5 -4 7.5 h -24.563 c -2.219 0 -4.03 -3.375 -4.03 -7.5 c 0 -4.125 1.813 -7.5 4.03 -7.5"/><path d="m 129.88 70.25 h 24.563 c 2.219 0 4.03 3.375 4.03 7.5 c 0 4.156 -1.813 7.5 -4.03 7.5 h -24.563 c -2.219 0 -4 -3.344 -4 -7.5 c 0 -4.125 1.781 -7.5 4 -7.5"/><path d="m 167.72 70.25 h 24.563 c 2.219 0 4.03 3.375 4.03 7.5 c 0 4.156 -1.813 7.5 -4.03 7.5 h -24.563 c -2.219 0 -4 -3.344 -4 -7.5 c 0 -4.125 1.781 -7.5 4 -7.5"/></g></g><path d="m 143.19 210 c -3.156 -1.906 -8.375 -7.656 -8.375 -9.219 c 0 -0.625 1.656 -2.781 3.656 -4.813 l 3.656 -3.719 h 48 l 3.25 3.75 c 4.375 5.094 5.375 7.75 3.313 8.906 c -0.875 0.469 -2.781 2.188 -4.281 3.781 l -2.688 2.938 h -21.969 c -19.688 0 -22.19 -0.156 -24.563 -1.625" stroke="#000" stroke-width="0.47"/></g></svg>