<svg xmlns="http://www.w3.org/2000/svg" viewBox="0 0 32 32"><path d="m 6.598 28.879 c 24.06 15.992 38.875 -35.01 7.773 -28.26 c -12.852 2.875 -20.652 20.922 -7.773 28.26" fill="#ffa400"/><path d="m 20.465 16.641 c 0.828 -0.102 1.582 -0.039 2.051 -1.211 c 0.656 -1.629 -1.137 -3.203 -2.535 -3.773 l 0.961 -2.344 l -1.398 -0.57 l -0.961 2.34 l -1.398 -0.574 l 0.961 -2.34 l -1.398 -0.574 l -0.961 2.34 l -2.793 -1.148 l -0.48 1.172 c 1.133 0.465 1.297 0.82 0.918 1.742 l -2.141 5.223 c -0.191 0.461 -0.535 0.516 -1.039 0.313 l -1.098 0.914 l 2.793 1.148 l -0.961 2.34 l 1.398 0.574 l 0.961 -2.344 l 1.398 0.574 l -0.961 2.34 l 1.398 0.574 l 0.961 -2.34 c 1.398 0.574 4.395 1.23 5.23 -0.813 c 0.688 -1.668 0.066 -2.785 -0.906 -3.563 m -3.758 -4.961 c 1.965 0.805 3.633 1.492 3.152 2.66 c -0.48 1.172 -2.324 0.414 -4.113 -0.32 m -0.48 1.168 c 1.398 0.574 4.191 1.723 3.473 3.477 c -0.719 1.754 -2.816 0.895 -4.914 0.035" fill="#fffaef"/></svg>