<svg xmlns="http://www.w3.org/2000/svg" viewBox="0 0 32 32"><path d="m 8.34 28.11 c 12.781 11.32 26.316 -5.434 22.988 -15.25 c -3.324 -9.813 -12.715 -16.406 -20.945 -9.996 c -8.234 6.406 -16.17 12.707 -3.387 24.03" fill="#f4f4f4"/><g fill="#999"><path d="m 9.246 11.43 h 4.188 c 0.461 0 0.836 0.375 0.836 0.84 v 2.824 c 0 0.461 -0.375 0.836 -0.836 0.836 h -4.188 c -0.465 0 -0.84 -0.375 -0.84 -0.836 v -2.824 c 0 -0.465 0.375 -0.84 0.84 -0.84"/><path d="m 15.965 11.43 h 4.184 c 0.465 0 0.84 0.375 0.84 0.84 v 2.824 c 0 0.461 -0.375 0.836 -0.84 0.836 h -4.184 c -0.465 0 -0.84 -0.375 -0.84 -0.836 v -2.824 c 0 -0.465 0.375 -0.84 0.84 -0.84"/><path d="m 9.168 16.883 h 4.188 c 0.461 0 0.84 0.375 0.84 0.84 v 2.824 c 0 0.465 -0.379 0.84 -0.84 0.84 h -4.188 c -0.461 0 -0.836 -0.375 -0.836 -0.84 v -2.824 c 0 -0.465 0.375 -0.84 0.836 -0.84"/><path d="m 15.887 16.883 h 4.184 c 0.465 0 0.84 0.375 0.84 0.84 v 2.824 c 0 0.465 -0.375 0.84 -0.84 0.84 h -4.184 c -0.465 0 -0.84 -0.375 -0.84 -0.84 v -2.824 c 0 -0.465 0.375 -0.84 0.84 -0.84"/><path d="m 17.93 6.922 c -2.254 0.012 -4.426 0.887 -6.098 2.465 h 2.953 c 0.984 -0.484 2.059 -0.734 3.148 -0.742 c 4.121 -0.004 7.469 3.469 7.473 7.754 v 0.008 c 0 4.289 -3.344 7.762 -7.465 7.762 c -1.094 -0.004 -2.176 -0.254 -3.164 -0.738 h -2.957 c 1.676 1.582 3.855 2.457 6.121 2.461 c 5.04 0 9.121 -4.246 9.121 -9.484 v -0.012 c -0.008 -5.234 -4.094 -9.477 -9.133 -9.473"/></g></svg>