<svg xmlns="http://www.w3.org/2000/svg" viewBox="0 0 32 32"><path d="m 31.594 19.758 c -6.246 29.754 -49.23 -2.188 -23.41 -17.313 c 10.03 -6.48 26.625 2.01 23.41 17.313" fill="#0b7879"/><path d="m 19.66 21 c 4.832 4.871 5.01 6.199 4.891 6.316 c 0.078 1.258 -1.84 -1.512 -2.363 -1.793 c -0.828 -0.445 -3.754 -3.01 -4.746 -4.168 c -1.211 -1.922 -0.27 -3.551 2.219 -0.355" fill="#fff"/><path d="m 21.672 24.04 c -0.43 -0.398 -1.383 -2 -2.125 -2.75 c -0.738 -0.746 -1.852 -1.449 -1.754 -1.254 c 0.094 0.199 0.789 1.723 1.645 2.57 c 1.578 1.566 2.01 2.547 0.938 1.883 c -2.902 -1.797 -5.992 -4.98 -8.398 -8.926 c -1.223 -2.01 -4.289 -7.453 -4.801 -7.926 c -0.391 -0.359 -0.449 -0.699 -0.148 -0.82 c 0.113 -0.043 0.668 -0.012 1.234 0.066 c 0.824 0.121 1.199 0.281 1.852 0.797 c 1.207 0.957 3.766 3.445 7.508 7.305 c 3.051 3.145 3.367 3.527 3.887 4.688 c 0.309 0.695 0.73 2.043 0.934 2.992 c 0.461 2.184 0.336 2.406 -0.77 1.375" fill="#9edbdf"/><path d="m 15.992 18.598 c -1.07 -1.09 -2.234 -2.652 -3.621 -4.879 c -1.66 -2.656 -3.816 -5.719 -4.5 -6.395 c -0.277 -0.273 -0.504 -0.555 -0.504 -0.633 c 0 -0.207 1.137 -0.148 1.793 0.098 c 0.32 0.121 1.152 0.703 1.848 1.297 c 1.238 1.055 7.73 7.813 8.52 8.867 c 0.82 0.688 1.504 4.03 -1.027 2.246 c -0.117 0 -0.996 -0.855 -1.953 -1.898 c -4.285 -4.676 -4.129 -4.516 -3.539 -3.582 c 0.293 0.465 1.246 1.855 2.121 3.094 c 0.871 1.238 1.555 2.281 1.52 2.32 c -0.039 0.035 -0.332 -0.203 -0.66 -0.535" fill="#4eb5ce"/></svg>