<svg xmlns="http://www.w3.org/2000/svg" viewBox="0 0 32 32"><path d="m 3.5 24.875 c -17.98 -26 39.82 -37.457 26.48 -5.164 c -4.262 10.625 -20.66 18.719 -26.48 5.164" fill="#eff8ff"/><path d="m 13.699 22.09 c 0 -0.059 0.109 -0.523 0.242 -1.031 l 0.238 -0.922 l 4.04 -0.023 c 2.227 -0.012 4.04 0.004 4.04 0.031 c 0 0.133 -0.461 1.848 -0.523 1.945 c -0.055 0.086 -0.949 0.113 -4.059 0.113 c -3.141 0 -3.984 -0.023 -3.984 -0.113 m 1.01 -3.914 c 0 -0.148 0.449 -1.824 0.52 -1.93 c 0.055 -0.082 0.949 -0.109 4.02 -0.109 c 2.199 0 3.965 0.035 3.988 0.078 c 0.02 0.043 -0.074 0.52 -0.215 1.055 l -0.254 0.977 h -4.03 c -2.215 0 -4.03 -0.031 -4.03 -0.07 m 1.012 -3.949 c 0 -0.035 0.109 -0.48 0.246 -0.988 l 0.246 -0.922 l 4.04 -0.023 c 2.219 -0.012 4.04 0.008 4.04 0.043 c 0 0.039 -0.109 0.484 -0.238 0.992 l -0.238 0.922 l -4.047 0.023 c -2.223 0.012 -4.04 -0.008 -4.04 -0.047" fill="#4c4c4e"/><path d="m 10.313 22.438 c -0.027 -0.086 -0.406 -1.473 -0.844 -3.086 c -0.438 -1.613 -0.855 -2.977 -0.926 -3.02 c -0.074 -0.051 -0.621 -0.094 -1.219 -0.094 l -1.086 -0.004 v -2.078 l 1.254 0.012 c 0.691 0.008 1.523 0.051 1.855 0.094 l 0.602 0.078 l 0.602 2.047 c 0.332 1.129 0.645 2.051 0.703 2.051 c 0.055 0 0.227 -0.453 0.379 -1.01 c 0.152 -0.555 0.707 -2.578 1.234 -4.496 c 0.527 -1.914 1.01 -3.609 1.066 -3.758 l 0.105 -0.277 h 5.867 c 5.531 0 5.863 0.012 5.813 0.215 c -0.031 0.117 -0.141 0.586 -0.25 1.039 l -0.191 0.824 h -4.945 c -4.594 0 -4.949 0.016 -5.05 0.215 c -0.148 0.309 -1.703 5.93 -3.094 11.188 c -0.051 0.18 -0.195 0.215 -0.945 0.215 c -0.613 0 -0.902 -0.047 -0.934 -0.152" fill="#00bfff"/></svg>