<svg xmlns="http://www.w3.org/2000/svg" viewBox="0 0 32 32"><path d="m 15.469 0.363 c -5.328 1.016 -10.477 5.02 -13.191 10.25 c -2.273 4.383 -2.625 8.66 -1.027 12.422 c 1.207 2.832 3.938 5.473 7.332 7.086 c 3.617 1.719 6.98 2.113 10.461 1.223 c 8.582 -2.195 14.871 -13.684 12.316 -22.496 c -1.25 -4.309 -4.563 -7.223 -9.441 -8.305 c -2.121 -0.176 -4.363 -0.543 -6.449 -0.18" fill="#ff8c00"/><path d="m 124.44 208 c -7.938 -3.938 -11.531 -12.438 -8.906 -21.12 c 1.188 -3.969 5.844 -9.03 9.688 -10.563 c 1.75 -0.688 3.438 -1.656 3.719 -2.125 c 0.313 -0.469 0.563 -7.094 0.563 -14.719 l 0.031 -13.875 l -2.063 -0.844 c -1.125 -0.469 -3.875 -1.656 -6.094 -2.594 l -4.063 -1.781 l -18.906 18.813 c -10.406 10.344 -18.719 19.13 -18.438 19.563 c 0.25 0.406 0.781 2.5 1.188 4.656 c 2.813 14.688 -13.719 25.813 -26.594 17.938 c -9.625 -5.938 -11.188 -18.813 -3.219 -26.969 c 5.969 -6.156 14.875 -7.25 22.19 -2.75 l 2.563 1.531 l 37.13 -36.875 l -2.094 -4.375 c -1.75 -3.75 -2.063 -5.344 -2.063 -10.688 c 0 -5.438 0.313 -6.844 2.094 -10.313 l 2.063 -4 l -22 -21.938 l -4.594 0.469 c -3.875 0.406 -5 0.219 -7.531 -1.188 c -9.406 -5.25 -7.594 -18.656 2.906 -21.469 c 8.281 -2.219 16.25 5.875 14 14.188 l -0.844 3.094 l 11.188 11.09 l 11.156 11.06 l 4.719 -2.094 c 6.469 -2.875 13.344 -2.938 19.531 -0.125 c 2.375 1.094 4.719 1.969 5.188 1.969 c 0.438 0 7.156 -6.281 14.906 -14 l 14.09 -14 l -0.875 -2.906 c -2.063 -6.781 -0.563 -13 4.313 -18 c 10 -10.25 26.781 -5.281 29.813 8.781 c 2.969 13.844 -12.281 25.5 -25.03 19.06 c -2 -1 -4 -1.844 -4.406 -1.844 c -1.031 0 -27.906 26.813 -27.906 27.844 c 0 0.438 0.906 2.75 2 5.125 c 2.813 6.125 2.781 12.969 -0.125 19.406 l -2.125 4.656 l 11.156 11.09 l 11.188 11.09 l 3.094 -0.813 c 8.375 -2.25 16.5 5.688 14.281 13.906 c -2.813 10.438 -16.313 12.25 -21.625 2.875 c -1.406 -2.5 -1.594 -3.625 -1.188 -7.5 l 0.469 -4.531 l -22.19 -22 l -2.469 1.5 c -1.375 0.844 -3.938 1.906 -5.656 2.375 l -3.188 0.813 v 29.594 l 2.719 1.125 c 12.656 5.25 15.844 19.969 6.344 29.13 c -5.719 5.5 -13.09 6.719 -20.09 3.25 m -55.656 -10.906 c 4.875 -2.031 7.906 -8.375 6.469 -13.531 c -0.969 -3.563 -4.875 -7.469 -8.406 -8.406 c -5.281 -1.438 -11.625 1.563 -13.688 6.406 c -4.188 9.969 5.594 19.688 15.625 15.531 m 115.06 -24.469 c 3.438 -3.656 1.281 -9.281 -3.625 -9.438 c -5.219 -0.125 -7.906 5.781 -4.219 9.438 c 2.406 2.375 5.563 2.375 7.844 0 m -46 -34.531 c 3.969 -1.188 9.09 -5.813 10.656 -9.656 c 1.625 -3.906 1.719 -10.406 0.188 -13.938 c -1.469 -3.438 -5.969 -7.906 -9.406 -9.375 c -3.563 -1.5 -10.125 -1.406 -14.03 0.188 c -1.75 0.719 -4.469 2.719 -6.03 4.5 c -11.938 13.469 1.219 33.469 18.625 28.28 m -49.25 -60.12 c 3.438 -3.625 1.281 -9.281 -3.625 -9.406 c -5.219 -0.156 -7.875 5.781 -4.219 9.438 c 2.406 2.375 5.563 2.375 7.844 -0.031" transform="scale(0.125)" fill="#fff" stroke="#fff" stroke-width="0.742"/></svg>