<svg xmlns="http://www.w3.org/2000/svg" viewBox="0 0 32 32"><path d="m 1.508 21.949 c -12.02 -38.902 52.57 -19.445 22.363 7.207 c -6.05 5.34 -19.12 3.281 -22.363 -7.207" fill="#d0e7f4"/><g fill="#0f75bb"><path d="m 100.06 206.69 c -18.406 -2.656 -37.19 -12.75 -50.06 -27 c -12.688 -14.03 -18.563 -30.31 -18.563 -51.5 c 0 -36.938 20.875 -66.41 55.5 -78.37 c 16.375 -3.313 32.844 -4.719 47.688 0.531 c 13.625 4.875 22.281 10.594 33.594 22.22 c 7.594 7.781 11.156 12.344 13.75 17.656 c 3.406 6.875 3.438 7.188 1.594 8.594 c -2.438 1.875 -16.688 6.813 -19.625 6.813 c -1.594 0 -3.344 -1.688 -5.938 -5.719 c -11.781 -16.938 -30.531 -28.688 -49.875 -28.906 c -14.563 0 -24.844 4.719 -36.781 16.938 c -12.219 12.531 -17.281 28.938 -14.719 47.688 c 3.563 26.22 26.656 45 58.22 47.31 c 10.313 0.75 17.75 -1.094 26.469 -6.531 c 6.156 -3.844 14.156 -12.03 18.719 -19.12 l 2.906 -4.5 c -2.25 -2.375 -4.469 -4.75 -6.688 -7.125 l 6.125 -3.188 c 8 -4.156 23.13 -10.594 24.906 -10.594 c 1 0 2 4.063 3.625 14.938 c 3.281 21.906 3.188 22.406 -3.156 19.03 c -3.094 -1.688 -3.25 -1.656 -4.781 0.75 c -3.281 5.156 -12.469 15.688 -18.969 21.75 c -8.313 7.75 -22.375 15.25 -32.719 17.469 c -10.344 0.875 -21 2.188 -31.22 0.875" transform="scale(0.125)" stroke="#d0e7f4" stroke-width="3.952"/><path d="m 10.453 20.652 c -0.633 -0.398 -0.957 -0.988 -0.848 -1.547 c 0.234 -1.207 3.348 -5.648 4.867 -6.941 c 1.141 -0.973 2.25 -1.078 3.293 -0.313 c 0.535 0.391 0.547 0.953 0.035 1.813 c -0.563 0.953 -1.01 1.258 -1.832 1.258 c -0.613 0 -0.961 -0.051 -1.293 0.301 c -0.59 0.625 -1.391 1.691 -1.391 1.992 c 0 0.152 0.277 0.836 0.328 1.18 c 0.113 0.777 -0.203 1.504 -0.945 2.156 c -0.648 0.566 -1.422 0.602 -2.215 0.102"/><path d="m 22.922 16.02 c -0.539 -0.059 -1.109 -0.559 -1.109 -0.973 c 0 -0.516 0.844 -1.25 1.801 -1.578 c 0.52 -0.176 0.941 -0.363 0.941 -0.418 c 0 -0.051 -0.57 -1.559 -1.266 -3.348 c -0.699 -1.785 -1.242 -3.309 -1.207 -3.383 c 0.035 -0.07 0.348 0.035 0.695 0.242 c 0.348 0.203 1.336 0.613 2.191 0.906 c 2.465 0.84 2.656 1.02 3.371 3.176 c 0.504 1.508 0.379 1.914 -0.371 1.203 c -0.758 -0.719 -2.918 -1.332 -3.273 -0.926 c -0.055 0.059 0.125 0.809 0.402 1.664 c 0.68 2.094 0.664 2.355 -0.172 2.91 c -0.723 0.477 -1.227 0.609 -2 0.523 m 4.168 -6.238 c 0 -0.16 -0.309 -0.453 -0.688 -0.652 c -0.742 -0.391 -2.395 -0.797 -2.621 -0.637 c -0.238 0.168 0.625 0.703 1.832 1.141 c 1.395 0.508 1.477 0.516 1.477 0.148"/></g></svg>