<svg xmlns="http://www.w3.org/2000/svg" xmlns:xlink="http://www.w3.org/1999/xlink" viewBox="0 0 32 32"><defs><g id="7" clip-path="url(#6)"><path d="m 18.496 15.871 c 0 1.727 -1.387 3.125 -3.094 3.125 c -1.711 0 -3.098 -1.398 -3.098 -3.125 c 0 -1.727 1.387 -3.125 3.098 -3.125 c 1.707 0 3.094 1.398 3.094 3.125" fill="#d5c5aa" fill-rule="evenodd"/></g><g id="E" clip-path="url(#D)"><path d="m 18.496 27.13 c 0 1.727 -1.387 3.125 -3.094 3.125 c -1.711 0 -3.098 -1.398 -3.098 -3.125 c 0 -1.727 1.387 -3.125 3.098 -3.125 c 1.707 0 3.094 1.398 3.094 3.125" fill="#d5c5aa" fill-rule="evenodd"/></g><g id="P" clip-path="url(#O)"><path d="m 18.496 4.617 c 0 1.727 -1.387 3.125 -3.094 3.125 c -1.711 0 -3.098 -1.398 -3.098 -3.125 c 0 -1.727 1.387 -3.125 3.098 -3.125 c 1.707 0 3.094 1.398 3.094 3.125" fill="#d5c5aa" fill-rule="evenodd"/></g><g id="Z" clip-path="url(#Y)"><path d="m 18.227 12.688 l 1.07 -0.543 c 0.102 -0.051 0.25 0.016 0.336 0.145 l 7.941 12.08 c 0.086 0.129 0.074 0.273 -0.023 0.324 l -1.074 0.543 c -0.098 0.051 -0.246 -0.016 -0.332 -0.145 l -7.941 -12.07 c -0.086 -0.133 -0.074 -0.277 0.023 -0.328" fill="url(#U)"/><path d="m 18.227 12.688 c -0.098 0.051 -0.109 0.195 -0.023 0.328 l 1.289 1.961 l 1.43 -0.727 l -1.289 -1.961 c -0.086 -0.129 -0.234 -0.195 -0.336 -0.145" fill="url(#V)"/><path d="m 26.477 25.23 c -0.098 0.051 -0.246 -0.012 -0.332 -0.145 l -1.289 -1.961 l 1.43 -0.723 l 1.289 1.961 c 0.086 0.129 0.074 0.273 -0.023 0.324" fill="url(#W)"/><path d="m 18.227 12.688 l 1.07 -0.543 c 0.102 -0.051 0.25 0.016 0.336 0.145 l 7.941 12.08 c 0.086 0.129 0.074 0.273 -0.023 0.324 l -1.074 0.543 c -0.098 0.051 -0.246 -0.016 -0.332 -0.145 l -7.941 -12.07 c -0.086 -0.133 -0.074 -0.277 0.023 -0.328" fill="url(#X)"/><path d="m 18.227 12.688 c -0.098 0.051 -0.109 0.195 -0.023 0.328 l 7.941 12.07 c 0.086 0.133 0.234 0.195 0.332 0.145 l 1.074 -0.543 c 0.098 -0.051 0.109 -0.195 0.023 -0.324 l -7.941 -12.08 c -0.086 -0.129 -0.234 -0.195 -0.336 -0.145 m -0.945 0.691 l 1.027 -0.523 c 0.016 0.008 0.051 0.031 0.074 0.066 l 7.941 12.08 c 0.023 0.035 0.031 0.074 0.031 0.09 l -1.027 0.52 c -0.02 -0.008 -0.051 -0.031 -0.074 -0.066 l -7.945 -12.08 c -0.023 -0.035 -0.027 -0.07 -0.027 -0.086" fill-opacity="0.2"/></g><clipPath id="O"><path d="M 0,0 H32 V32 H0 z"/></clipPath><clipPath id="G"><path d="m 12 24 h 6 v 1 h -6"/></clipPath><clipPath id="D"><path d="M 0,0 H32 V32 H0 z"/></clipPath><clipPath id="F"><path d="m 15 23 h 3 v 2 h -3"/></clipPath><clipPath id="H"><path d="m 15 22 h 1 v 3 h -1"/></clipPath><clipPath id="M"><path d="m 9 7 h 13 v 3 h -13"/></clipPath><clipPath id="Q"><path d="m 12 7 h 6 v 1 h -6"/></clipPath><clipPath id="L"><path d="m 11 7 h 8 v 2 h -8"/></clipPath><clipPath id="J"><path d="m 11 7 h 9 v 2 h -9"/></clipPath><clipPath id="K"><path d="m 10.04 9.617 c -0.23 0 -0.414 -0.191 -0.414 -0.434 v -2.066 h 11.555 v 2.066 c 0 0.242 -0.184 0.434 -0.414 0.434"/></clipPath><clipPath id="R"><path d="m 15 7 h 1 v 3 h -1"/></clipPath><clipPath id="Y"><path d="M 0,0 H32 V32 H0 z"/></clipPath><clipPath id="6"><path d="M 0,0 H32 V32 H0 z"/></clipPath><clipPath id="B"><path d="m 9 22 h 13 v 3 h -13"/></clipPath><clipPath id="A"><path d="m 11 23 h 8 v 2 h -8"/></clipPath><clipPath id="8"><path d="m 11 23 h 9 v 2 h -9"/></clipPath><clipPath id="9"><path d="m 10.04 22.12 c -0.23 0 -0.414 0.195 -0.414 0.438 v 2.063 h 11.555 v -2.063 c 0 -0.242 -0.184 -0.438 -0.414 -0.438"/></clipPath><filter id="4" filterUnits="objectBoundingBox" x="0" y="0" width="32" height="32"><feColorMatrix type="matrix" in="SourceGraphic" values="0 0 0 0 1 0 0 0 0 1 0 0 0 0 1 0 0 0 1 0"/></filter><linearGradient id="U" gradientUnits="userSpaceOnUse" x1="48" x2="55.08" gradientTransform="matrix(0.17866 -0.09055 0.10315 0.15683 7.821 14.616)"><stop stop-color="#000"/><stop offset="0.3" stop-color="#a4a4a4"/><stop offset="0.6" stop-color="#4c4c4c"/><stop offset="1" stop-color="#000"/></linearGradient><linearGradient id="X" gradientUnits="userSpaceOnUse" y1="96" x2="0" y2="31.678" gradientTransform="matrix(0.17866 -0.09055 0.10315 0.15683 7.821 14.616)"><stop stop-color="#000" stop-opacity="0.302"/><stop offset="1" stop-color="#000" stop-opacity="0"/></linearGradient><linearGradient id="V" gradientUnits="userSpaceOnUse" x1="48" x2="56.15" gradientTransform="matrix(0.17866 -0.09055 0.10315 0.15683 7.821 14.616)"><stop stop-color="#a4a4a4"/><stop offset="0.3" stop-color="#fff"/><stop offset="0.6" stop-color="#a4a4a4"/><stop offset="1" stop-color="#626262"/></linearGradient><linearGradient id="W" gradientUnits="userSpaceOnUse" x1="48" x2="55.869" gradientTransform="matrix(0.17866 -0.09055 0.10315 0.15683 7.821 14.616)" xlink:href="#V"/><linearGradient id="I" gradientUnits="userSpaceOnUse" y1="90.43" x2="0" y2="52.39" gradientTransform="matrix(0.2063 0 0 0.20839 5.5 5.867)"><stop stop-color="#0236ff" stop-opacity="0.6"/><stop offset="1" stop-color="#0136b1" stop-opacity="0"/></linearGradient><linearGradient id="0" gradientUnits="userSpaceOnUse" y1="90" x2="0" y2="5.988" gradientTransform="matrix(0.2063 0 0 0.20839 5.5 5.867)"><stop stop-color="#000"/><stop offset="1" stop-color="#515151"/></linearGradient><mask id="5"><g filter="url(#4)"><path fill-opacity="0.6" d="M 0,0 H32 V32 H0 z"/></g></mask><mask id="N"><g filter="url(#4)"><path fill-opacity="0.6" d="M 0,0 H32 V32 H0 z"/></g></mask><mask id="C"><g filter="url(#4)"><path fill-opacity="0.6" d="M 0,0 H32 V32 H0 z"/></g></mask><radialGradient id="1" gradientUnits="userSpaceOnUse" cx="48" cy="48" r="28" gradientTransform="matrix(0.23577 0 0 0.17862 4.085 6.671)"><stop stop-color="#69aaff"/><stop offset="1" stop-color="#006bff"/></radialGradient><radialGradient id="2" gradientUnits="userSpaceOnUse" cx="48" cy="48" r="28" gradientTransform="matrix(0.23577 0 0 0.17862 4.085 17.924)" xlink:href="#1"/><radialGradient id="3" gradientUnits="userSpaceOnUse" cx="48" cy="48" r="28" gradientTransform="matrix(0.23577 0 0 -0.17862 4.085 13.815)" xlink:href="#1"/><radialGradient id="T" gradientUnits="userSpaceOnUse" cx="29.09" cy="31.602" r="7.245" gradientTransform="matrix(0.38776 0.22865 -0.22388 0.39603 17.377 -10.08)"><stop stop-color="#ffe375"/><stop offset="1" stop-color="#ffa500"/></radialGradient><radialGradient id="S" gradientUnits="userSpaceOnUse" cx="48" cy="90.17" r="42" gradientTransform="matrix(0.23875 0 0 0.20754 3.942 5.908)"><stop stop-color="#fff" stop-opacity="0.149"/><stop offset="1" stop-color="#fff" stop-opacity="0"/></radialGradient><radialGradient id="a" gradientUnits="userSpaceOnUse" cx="29.09" cy="31.602" r="7.245" gradientTransform="matrix(-0.5402 0.09908 -0.11443 -0.53109 40.658 22.975)" xlink:href="#T"/></defs><path d="m 7.52 28.703 c 16.367 11.508 32.953 -9.742 19.617 -23.297 c -12.566 -12.77 -32.09 -0.93 -25.984 14.961 c 1.273 3.316 3.363 6.227 6.367 8.336" fill="#4581b3"/><path d="m 7.977 7.117 c -0.688 0 -1.238 0.559 -1.238 1.25 v 15 c 0 0.695 0.551 1.25 1.238 1.25 h 14.852 c 0.688 0 1.238 -0.555 1.238 -1.25 v -15 c 0 -0.691 -0.551 -1.25 -1.238 -1.25 m -15.266 0.836 h 1.238 v 0.832 h -1.238 m 14.441 -0.832 h 1.238 v 0.832 h -1.238 m -14.441 0.832 h 1.238 v 0.836 h -1.238 m 14.441 -0.836 h 1.238 v 0.836 h -1.238 m -14.441 0.832 h 1.238 v 0.836 h -1.238 m 14.441 -0.836 h 1.238 v 0.836 h -1.238 m -14.441 0.832 h 1.238 v 0.832 h -1.238 m 14.441 -0.832 h 1.238 v 0.832 h -1.238 m -14.441 0.836 h 1.238 v 0.832 h -1.238 m 14.441 -0.832 h 1.238 v 0.832 h -1.238 m -14.441 0.832 h 1.238 v 0.836 h -1.238 m 14.441 -0.836 h 1.238 v 0.836 h -1.238 m -14.441 0.832 h 1.238 v 0.836 h -1.238 m 14.441 -0.836 h 1.238 v 0.836 h -1.238 m -14.441 0.832 h 1.238 v 0.832 h -1.238 m 14.441 -0.832 h 1.238 v 0.832 h -1.238 m -14.441 0.836 h 1.238 v 0.832 h -1.238 m 14.441 -0.832 h 1.238 v 0.832 h -1.238 m -14.441 0.836 h 1.238 v 0.832 h -1.238 m 14.441 -0.832 h 1.238 v 0.832 h -1.238" fill="url(#0)"/><path d="m 10.04 10.867 h 10.727 c 0.227 0 0.414 0.199 0.414 0.438 v 9.129 c 0 0.242 -0.188 0.438 -0.414 0.438 h -10.727 c -0.227 0 -0.414 -0.195 -0.414 -0.438 v -9.129 c 0 -0.238 0.188 -0.438 0.414 -0.438" fill="url(#1)"/><path d="m 10.04 22.12 c -0.23 0 -0.414 0.195 -0.414 0.438 v 2.063 h 11.555 v -2.063 c 0 -0.242 -0.184 -0.438 -0.414 -0.438" fill="url(#2)"/><path d="m 10.04 9.617 c -0.23 0 -0.414 -0.191 -0.414 -0.434 v -2.066 h 11.555 v 2.066 c 0 0.242 -0.184 0.434 -0.414 0.434" fill="url(#3)"/><g fill-rule="evenodd"><path d="m 19.32 15.871 c 0 2.188 -1.758 3.961 -3.922 3.961 c -2.164 0 -3.918 -1.773 -3.918 -3.961 c 0 -2.188 1.754 -3.961 3.918 -3.961 c 2.164 0 3.922 1.773 3.922 3.961" fill="#005bff"/><path d="m 18.91 15.871 c 0 1.957 -1.57 3.543 -3.508 3.543 c -1.938 0 -3.508 -1.586 -3.508 -3.543 c 0 -1.957 1.57 -3.543 3.508 -3.543 c 1.938 0 3.508 1.586 3.508 3.543" fill="#08f"/></g><use xlink:href="#7" mask="url(#5)"/><path d="m 15.617 12.746 c 0 0 -0.004 0.004 -0.004 0.004 c -0.004 0.004 -0.004 0.004 -0.008 0.008 c 0 0 -0.004 0.004 -0.004 0.008 c -0.004 0 -0.004 0.004 -0.008 0.004 c 0 0.004 0 0.004 0 0.008 v 2.941 c 0.004 0.008 0.004 0.012 0.008 0.016 c 0 0 0 0.004 0 0.004 c 0 0.004 0.004 0.008 0.008 0.008 c 0 0 0.004 0 0.004 0 c 0.004 0.004 0.008 0.004 0.012 0.008 c 0.004 0 0.004 0 0.008 0 c 0 -0.004 0.004 -0.004 0.004 -0.008 l 0.164 -0.098 c 0.391 -0.234 0.934 -0.57 1.379 -0.848 c 0.223 -0.141 0.418 -0.27 0.559 -0.363 c 0.07 -0.047 0.129 -0.082 0.168 -0.109 c 0.023 -0.012 0.039 -0.023 0.051 -0.031 c 0.004 -0.004 0.008 -0.008 0.012 -0.012 c 0 -0.004 0.004 -0.004 0.004 -0.008 c 0.004 0 0.008 0.004 0.008 0 c 0 0 0 -0.004 0 -0.004 c 0 -0.004 0.008 -0.016 0.008 -0.016 c 0 -0.02 -0.012 -0.031 -0.02 -0.051 c -0.008 -0.02 -0.023 -0.039 -0.035 -0.066 c -0.031 -0.047 -0.074 -0.102 -0.121 -0.164 c -0.098 -0.129 -0.219 -0.27 -0.313 -0.367 c -0.445 -0.449 -1.039 -0.758 -1.598 -0.82 c -0.078 -0.008 -0.172 -0.023 -0.207 -0.031 l -0.063 -0.012 c -0.004 0 -0.004 0 -0.008 0 c 0 0 -0.004 0 -0.004 0" fill="#f2ece2" fill-opacity="0.6"/><path d="m 59.49 48 c 0 6.336 -5.15 11.49 -11.493 11.49 c -6.343 0 -11.493 -5.155 -11.493 -11.49 c 0 -6.354 5.15 -11.509 11.493 -11.509 c 6.343 0 11.493 5.155 11.493 11.509" transform="matrix(0.2063 0 0 0.20839 5.5 5.867)" stroke-opacity="0.502" fill="none" stroke="#2a1100" stroke-linejoin="round"/><g fill="#2a1100" fill-rule="evenodd" fill-opacity="0.502"><path d="m 15.402 10.867 v 10 h 0.207 v -10"/><path d="m 21.18 15.66 h -11.555 v 0.211 h 11.555"/><path d="m 18.07 14.27 l -2.746 1.602 l 0.078 0.137 l 2.754 -1.609 c -0.027 -0.043 -0.059 -0.086 -0.086 -0.129"/></g><path d="m 16.527 16.508 c 0 0.328 -0.109 0.586 -0.32 0.773 c -0.203 0.168 -0.473 0.254 -0.805 0.254 c -0.324 0 -0.59 -0.086 -0.793 -0.254 c -0.219 -0.184 -0.328 -0.438 -0.328 -0.758 c 0 -0.051 0.004 -0.105 0.008 -0.16 h 0.77 c -0.008 0.047 -0.012 0.09 -0.012 0.133 c 0 0.113 0.031 0.207 0.094 0.277 c 0.066 0.07 0.152 0.105 0.27 0.105 c 0.105 0 0.195 -0.039 0.262 -0.113 c 0.066 -0.078 0.098 -0.172 0.098 -0.281 c 0 -0.121 -0.035 -0.215 -0.109 -0.285 c -0.074 -0.07 -0.168 -0.102 -0.285 -0.102 v -0.566 c 0.109 0 0.199 -0.027 0.27 -0.094 c 0.078 -0.066 0.113 -0.148 0.113 -0.258 c 0 -0.102 -0.031 -0.188 -0.098 -0.254 c -0.066 -0.063 -0.152 -0.094 -0.258 -0.094 c -0.102 0 -0.184 0.031 -0.25 0.09 c -0.059 0.059 -0.094 0.141 -0.098 0.242 h -0.707 c 0 -0.297 0.105 -0.531 0.309 -0.711 c 0.195 -0.168 0.441 -0.254 0.738 -0.254 c 0.293 0 0.539 0.086 0.738 0.25 c 0.219 0.176 0.328 0.406 0.328 0.695 c 0 0.293 -0.105 0.508 -0.316 0.645 c 0.254 0.145 0.383 0.383 0.383 0.719" fill="#20120a"/><g clip-path="url(#8)"><g clip-path="url(#9)"><path d="m 19.32 27.13 c 0 2.188 -1.758 3.961 -3.922 3.961 c -2.164 0 -3.918 -1.773 -3.918 -3.961 c 0 -2.188 1.754 -3.961 3.918 -3.961 c 2.164 0 3.922 1.773 3.922 3.961" fill="#005bff" fill-rule="evenodd"/></g></g><g clip-path="url(#A)"><g clip-path="url(#9)"><path d="m 18.91 27.13 c 0 1.953 -1.57 3.539 -3.508 3.539 c -1.938 0 -3.508 -1.586 -3.508 -3.539 c 0 -1.957 1.57 -3.543 3.508 -3.543 c 1.938 0 3.508 1.586 3.508 3.543" fill="#08f" fill-rule="evenodd"/></g></g><g clip-path="url(#B)"><g clip-path="url(#9)"><use xlink:href="#E" mask="url(#C)"/></g></g><g clip-path="url(#F)"><g clip-path="url(#9)"><path d="m 15.617 23.996 c 0 0.004 -0.004 0.004 -0.004 0.008 c -0.004 0.004 -0.004 0.004 -0.008 0.008 c 0 0 -0.004 0.004 -0.004 0.004 c -0.004 0.004 -0.004 0.004 -0.008 0.008 c 0 0.004 0 0.004 0 0.008 v 2.941 c 0.004 0.008 0.004 0.012 0.008 0.016 c 0 0 0 0.004 0 0.004 c 0 0.004 0.004 0.004 0.008 0.008 c 0 0 0.004 0 0.004 0 c 0.004 0.004 0.008 0.004 0.012 0.008 c 0.004 0 0.004 0 0.008 0 c 0 -0.004 0.004 -0.004 0.004 -0.008 l 0.164 -0.098 c 0.391 -0.234 0.934 -0.57 1.379 -0.848 c 0.223 -0.141 0.418 -0.27 0.559 -0.363 c 0.07 -0.047 0.129 -0.082 0.168 -0.109 c 0.023 -0.012 0.039 -0.023 0.051 -0.031 c 0.004 -0.004 0.008 -0.008 0.012 -0.012 c 0 -0.004 0.004 -0.004 0.004 -0.008 c 0.004 0 0.008 0.004 0.008 0 c 0 0 0 -0.008 0 -0.008 c 0 0 0.008 -0.012 0.008 -0.012 c 0 -0.02 -0.012 -0.035 -0.02 -0.051 c -0.008 -0.02 -0.023 -0.043 -0.035 -0.066 c -0.031 -0.047 -0.074 -0.102 -0.121 -0.168 c -0.098 -0.125 -0.219 -0.27 -0.313 -0.367 c -0.445 -0.445 -1.039 -0.754 -1.598 -0.816 c -0.078 -0.008 -0.172 -0.023 -0.207 -0.031 l -0.063 -0.016 c -0.004 0 -0.004 0 -0.008 0 c 0 0 -0.004 0 -0.004 0" fill="#f2ece2" fill-opacity="0.6"/></g></g><g clip-path="url(#G)"><g clip-path="url(#9)"><path d="m 59.49 48.01 c 0 6.336 -5.15 11.49 -11.493 11.49 c -6.343 0 -11.493 -5.155 -11.493 -11.49 c 0 -6.354 5.15 -11.509 11.493 -11.509 c 6.343 0 11.493 5.155 11.493 11.509" transform="matrix(0.2063 0 0 0.20839 5.5 17.12)" stroke-opacity="0.502" fill="none" stroke="#2a1100" stroke-linejoin="round"/></g></g><g clip-path="url(#H)"><g clip-path="url(#9)"><path d="m 15.402 22.12 v 10 h 0.207 v -10" fill="#2a1100" fill-rule="evenodd" fill-opacity="0.502"/></g></g><path d="m 9.625 15.871 v 4.563 c 0 0.242 0.184 0.438 0.414 0.438 h 10.727 c 0.23 0 0.414 -0.191 0.414 -0.438 v -4.563 m -11.141 6.25 c -0.23 0 -0.414 0.195 -0.414 0.438 v 2.063 h 11.555 v -2.063 c 0 -0.242 -0.184 -0.438 -0.414 -0.438" fill="url(#I)"/><g clip-path="url(#J)"><g clip-path="url(#K)"><path d="m 19.32 4.617 c 0 2.188 -1.758 3.961 -3.922 3.961 c -2.164 0 -3.918 -1.773 -3.918 -3.961 c 0 -2.187 1.754 -3.957 3.918 -3.957 c 2.164 0 3.922 1.77 3.922 3.957" fill="#005bff" fill-rule="evenodd"/></g></g><g clip-path="url(#L)"><g clip-path="url(#K)"><path d="m 18.91 4.617 c 0 1.957 -1.57 3.543 -3.508 3.543 c -1.938 0 -3.508 -1.586 -3.508 -3.543 c 0 -1.957 1.57 -3.543 3.508 -3.543 c 1.938 0 3.508 1.586 3.508 3.543" fill="#08f" fill-rule="evenodd"/></g></g><g clip-path="url(#M)"><g clip-path="url(#K)"><use xlink:href="#P" mask="url(#N)"/></g></g><g clip-path="url(#Q)"><g clip-path="url(#K)"><path d="m 59.49 48 c 0 6.354 -5.15 11.49 -11.493 11.49 c -6.343 0 -11.493 -5.136 -11.493 -11.49 c 0 -6.354 5.15 -11.509 11.493 -11.509 c 6.343 0 11.493 5.155 11.493 11.509" transform="matrix(0.2063 0 0 0.20839 5.5 -5.386)" stroke-opacity="0.502" fill="none" stroke="#2a1100" stroke-linejoin="round"/></g></g><g clip-path="url(#R)"><g clip-path="url(#K)"><path d="m 15.402 -0.383 v 10 h 0.207 v -10" fill="#2a1100" fill-rule="evenodd" fill-opacity="0.502"/></g></g><path d="m 7.977 24.621 c -0.688 0 -1.238 -0.555 -1.238 -1.25 v -15 c 0 -0.07 0.008 -0.137 0.02 -0.199 c 0.008 -0.063 0.02 -0.125 0.039 -0.184 c 0 -0.008 0.004 -0.016 0.004 -0.02 c 0.023 -0.063 0.051 -0.113 0.078 -0.172 c 0.031 -0.055 0.066 -0.109 0.105 -0.16 c 0.035 -0.051 0.074 -0.098 0.121 -0.145 c 0.09 -0.09 0.195 -0.168 0.309 -0.227 c 0.059 -0.031 0.117 -0.051 0.18 -0.074 c -0.051 0.023 -0.098 0.051 -0.148 0.078 c 0 0.004 -0.004 0 -0.004 0 c -0.008 0.004 -0.012 0.012 -0.02 0.016 c -0.023 0.016 -0.047 0.031 -0.07 0.051 c -0.023 0.016 -0.047 0.035 -0.066 0.051 c -0.035 0.035 -0.07 0.074 -0.102 0.113 c -0.023 0.027 -0.047 0.055 -0.066 0.082 c -0.004 0.008 -0.008 0.02 -0.012 0.027 c -0.016 0.023 -0.027 0.043 -0.039 0.066 c -0.02 0.039 -0.043 0.086 -0.059 0.129 c 0 0.004 -0.004 0.008 -0.008 0.012 c -0.004 0.02 -0.004 0.039 -0.012 0.059 c -0.004 0.023 -0.016 0.043 -0.02 0.066 c -0.016 0.07 -0.023 0.145 -0.023 0.223 v 15 c 0 0.578 0.457 1.043 1.031 1.043 h 14.852 c 0.574 0 1.031 -0.465 1.031 -1.043 v -15 c 0 -0.078 -0.012 -0.152 -0.023 -0.223 c -0.012 -0.043 -0.02 -0.082 -0.035 -0.125 c 0 -0.004 -0.004 -0.008 -0.004 -0.012 c -0.016 -0.035 -0.031 -0.074 -0.047 -0.109 c -0.008 -0.02 -0.016 -0.035 -0.023 -0.055 c -0.012 -0.02 -0.027 -0.039 -0.039 -0.059 c -0.02 -0.027 -0.043 -0.055 -0.066 -0.082 c -0.027 -0.035 -0.063 -0.074 -0.098 -0.105 c 0 0 -0.004 -0.004 -0.004 -0.008 c -0.031 -0.023 -0.059 -0.047 -0.09 -0.07 c -0.023 -0.016 -0.043 -0.031 -0.066 -0.047 c 0 0 -0.004 0.004 -0.008 0 c -0.047 -0.027 -0.094 -0.055 -0.148 -0.078 c 0.063 0.023 0.125 0.043 0.184 0.074 c 0.113 0.059 0.219 0.137 0.309 0.227 c 0.043 0.047 0.082 0.094 0.121 0.145 c 0.039 0.051 0.074 0.105 0.105 0.164 c 0.027 0.055 0.055 0.109 0.074 0.168 c 0.004 0.008 0.008 0.012 0.008 0.02 c 0.02 0.059 0.027 0.121 0.039 0.184 c 0.012 0.066 0.02 0.129 0.02 0.199 v 15 c 0 0.695 -0.551 1.25 -1.238 1.25" fill="url(#S)"/><path d="m 21.586 12.91 l -0.426 -3.395 l -3.32 -0.434 l 3.32 -0.434 l 0.426 -3.391 l 0.422 3.391 l 3.324 0.434 l -3.324 0.434" fill="url(#T)"/><use xlink:href="#Z"/><path d="m 18.234 5.641 l 3.129 2.715 l 3.395 -2.219 l -2.695 2.996 l 2.348 3.375 l -3.125 -2.711 l -3.398 2.219 l 2.699 -2.996" fill="url(#a)"/></svg>