<svg xmlns="http://www.w3.org/2000/svg" viewBox="0 0 32 32"><path d="m 0.469 19.328 c 2.477 16.48 27.15 16.977 30.879 0.953 c 3.836 -12.973 -10.06 -23.578 -20.453 -19.328 c -6.961 2.01 -12.586 10.227 -10.426 18.371" fill="#6c3"/><path d="m 20.711 16 c 0 2.602 -2.109 4.711 -4.711 4.711 c -2.602 0 -4.711 -2.109 -4.711 -4.711 c 0 -2.602 2.109 -4.711 4.711 -4.711 c 2.602 0 4.711 2.109 4.711 4.711" fill="#d6b7e3"/><g fill="none" stroke-linecap="round" stroke-width="10" transform="matrix(0.125 0 0 0.125 0 -99.55)"><path d="m 128 924.36 l 72.34 -41.75" stroke="#d6b7e3"/><path d="m 128 924.36 l -79.47 -79.47" stroke="#fff"/></g><path d="m 18.555 16 c 0 1.41 -1.145 2.555 -2.555 2.555 c -1.41 0 -2.555 -1.145 -2.555 -2.555 c 0 -1.41 1.145 -2.551 2.555 -2.551 c 1.41 0 2.555 1.141 2.555 2.551" fill="#fff"/><path d="m 14.805 20.512 c -2.816 -0.762 -4.285 -3.934 -3.01 -6.508 c 0.445 -0.902 0.352 -0.898 1.215 -0.047 l 0.75 0.746 l -0.137 0.309 c -0.324 0.73 -0.219 1.715 0.258 2.43 c 0.285 0.426 0.617 0.711 1.102 0.934 c 0.484 0.223 1.555 0.223 2.039 0 c 1.32 -0.609 1.91 -2.152 1.32 -3.445 c -0.578 -1.258 -2.082 -1.832 -3.387 -1.289 l -0.273 0.117 l -0.738 -0.734 c -0.406 -0.402 -0.719 -0.758 -0.699 -0.789 c 0.078 -0.133 0.965 -0.566 1.465 -0.719 c 0.418 -0.129 0.711 -0.164 1.293 -0.164 c 1.285 0 2.336 0.43 3.258 1.328 l 0.492 0.48 l 2.531 -1.465 c 2.652 -1.531 2.805 -1.598 3.137 -1.328 c 0.215 0.172 0.227 0.598 0.023 0.801 c -0.078 0.078 -1.238 0.773 -2.582 1.547 c -1.344 0.773 -2.465 1.43 -2.492 1.457 c -0.027 0.023 0.02 0.242 0.105 0.477 c 0.125 0.355 0.152 0.598 0.152 1.332 c 0 0.797 -0.02 0.961 -0.199 1.473 c -0.262 0.758 -0.605 1.309 -1.156 1.852 c -0.527 0.523 -1.18 0.93 -1.832 1.141 c -0.684 0.219 -1.945 0.25 -2.633 0.066" fill="#9f6"/></svg>