<svg xmlns="http://www.w3.org/2000/svg" xmlns:xlink="http://www.w3.org/1999/xlink" viewBox="0 0 32 32"><defs><g id="1" clip-path="url(#0)"><path d="m 16.223 22.652 h 0.727 v 4.68 l -0.363 0.363 l -0.363 -0.363" fill="#f4c111"/><path d="m 16.223 22.652 h 0.727 v 1.441 h -0.727" fill="#e5a40a"/><path d="m 16.586 27.695 l -5.258 -1.441 l 1.27 -1.621" fill="#e5a40a"/><path d="m 8.605 21.57 l 2.723 4.684 l 1.27 -1.621" fill="#f4c111"/><path d="m 16.586 27.695 l -2.719 -4.684 l -1.27 1.621" fill="#f5d22d"/><path d="m 8.605 21.57 l 5.262 1.441 l -1.27 1.621" fill="#f8e45b"/><path d="m 8.605 21.57 l 4.309 2.656 l -0.316 0.406" fill="#f9ef6a"/><path d="m 8.605 21.57 l 3.672 3.469 l 0.32 -0.406" fill="#f5d22d"/><path d="m 16.586 27.695 l -3.672 -3.469 l -0.316 0.406" fill="#f8e45b"/><path d="m 16.586 27.695 l 5.262 -1.441 l -1.27 -1.621" fill="#e5a40a"/><path d="m 24.57 21.57 l -2.723 4.684 l -1.27 -1.621" fill="#f4c111"/><path d="m 16.586 27.695 l 2.723 -4.684 l 1.27 1.621" fill="#f5d22d"/><path d="m 24.57 21.57 l -5.262 1.441 l 1.27 1.621" fill="#f8e45b"/><path d="m 24.57 21.57 l -4.309 2.656 l 0.316 0.406" fill="#f9ef6a"/><path d="m 24.57 21.57 l -3.676 3.469 l -0.316 -0.406" fill="#f5d22d"/><path d="m 16.586 27.695 l 3.676 -3.469 l 0.316 0.406" fill="#f8e45b"/><path d="m 11.688 6.082 c 1.09 1.082 3.262 5.156 3.266 7.02 c 0 2.984 -2.434 3.781 -5.441 3.781 h -1.086 c 0.848 3.996 3.508 6.48 7.617 6.484 c 4.809 0 8.707 -3.871 8.707 -8.645 c 0 -4.773 -3.898 -8.645 -8.707 -8.645" fill="#c01b28"/><path d="m 11.688 6.082 c 1.09 1.082 3.262 5.156 3.266 7.02 c 0 2.984 -2.434 3.781 -5.441 3.781 h -1.086 c 1.449 3.602 3.508 5.398 7.617 5.406 c 4.809 0 7.98 -3.063 8.707 -7.566 c 0 -4.773 -3.898 -8.645 -8.707 -8.645" fill="#ec333b"/><path d="m 17.13 11.484 h 1.086 v 3.242 h -1.086 m 2.176 -3.242 h 1.09 v 3.242 h -1.09 m 1.742 0.758 l 0.867 0.648 c -1.707 2.262 -3.508 2.93 -4.785 2.918 c -1.371 -0.016 -2.25 -1.055 -2.18 -2.164 v -1.078 h 1.09 v 1.078 c -0.031 0.457 0.281 1.074 1.09 1.082 c 0.895 0.008 2.363 -0.426 3.918 -2.484" fill="#231f30"/></g><clipPath id="0"><path d="M 0,0 H32 V32 H0 z"/></clipPath></defs><path d="m 5.461 5.473 c -16.234 13.11 7.535 36.766 21.902 21.652 c 14.398 -13.01 -8.07 -38.25 -21.902 -21.652" fill="#218b21"/><use xlink:href="#1"/></svg>