<svg xmlns="http://www.w3.org/2000/svg" viewBox="0 0 32 32"><path d="m 22.855 0.387 c -46.02 -3.148 -11.527 57.62 8.02 17.605 c 2.695 -6.164 1.105 -16.238 -8.02 -17.605" fill="#1e1b1b"/><path d="m 17.858 126.91 c -1.252 -0.837 -3.478 -2.737 -4.904 -4.251 c -4.347 -3.478 -2.365 -8.76 -2.156 -13.687 c 0.383 -9.05 -1.287 -11.272 -0.07 -12.914 c 0.8 -1.095 3.686 -2.673 3.965 -3.51 c 0.696 -2.061 7.199 -4.96 11.06 -4.96 c 3.547 0 9.04 2.126 12.764 4.96 c 3.478 2.641 5.878 2.48 7.79 -0.58 c 2.052 -3.22 5.356 -4.476 6.782 -2.512 c 0.835 1.127 1.739 1.353 4.521 1.031 c 1.913 -0.225 4.626 -0.966 5.982 -1.642 c 3.234 -1.61 4.03 -1.61 7.686 0.258 c 1.635 0.87 4.417 1.546 6.156 1.546 c 1.704 0 4.486 -0.676 6.121 -1.546 c 1.669 -0.837 3.826 -1.514 4.799 -1.514 c 2.539 0 6.504 2.641 7.825 5.249 c 1.635 3.124 3.03 3.414 5.982 1.224 c 3.826 -2.834 10.364 -5.829 13.598 -6.28 c 3.791 -0.483 10.433 2.254 13.737 5.732 c 1.948 2.029 2.887 2.512 4.243 2.093 c 2.608 -0.837 2.852 -1.642 2.852 -9.694 v -7.407 l 3.895 -0.547 c 2.156 -0.29 4.104 -0.322 4.382 -0.064 c 0.243 0.258 0.696 3.897 0.974 8.05 c 0.313 4.154 0.765 7.955 1.078 8.438 c 0.278 0.483 1.635 0.87 2.991 0.87 c 1.982 -0.032 2.678 -0.483 3.617 -2.448 c 2.295 -4.799 12.555 -6.795 18.19 -3.543 c 1.6 0.934 3.373 2.319 3.895 3.059 c 1.982 2.705 3.269 3.575 4.73 3.188 c 2.121 -0.547 3.13 -4.122 3.13 -10.756 c 0 -6.505 0.383 -6.86 5.773 -6.05 c 3.13 0.451 3.478 0.709 3.478 2.576 c 0.035 4.187 -3.095 5.443 9.877 6.05 c 1.495 0.064 7.303 -0.515 7.408 0.193 c 0.8 8.02 4.556 -0.064 5.773 -0.032 c 15.407 0.483 17.598 0.709 20.345 2.158 c 1.704 0.87 3.721 2.287 4.486 3.156 c 1.669 1.836 2.434 8.47 1.53 12.753 c -0.278 4.219 -2.887 2.963 -6.782 2.898 c -6.782 -0.161 -11.79 0.773 -12.764 2.319 c -0.383 0.547 -0.661 2.834 -0.661 5.088 c -0.035 5.249 2.226 7.826 6.782 7.826 c 3.721 0 4.66 -1.063 5.252 -6.119 c 0.417 -3.575 0.626 -3.929 2.087 -3.543 c 3.93 0.547 5.843 0.644 5.843 3.607 c 0 1.964 -0.626 4.058 -1.669 5.571 c -3.13 4.541 -4.278 5.056 -11.407 5.088 c -7.651 0 -9.807 -0.87 -11.894 -4.831 c -2.121 -3.993 -4.03 -4.283 -8.347 -1.224 c -1.982 1.385 -3.582 2.77 -3.582 3.092 c 0 0.322 -0.522 1.095 -1.182 1.771 c -0.939 0.934 -2.887 1.192 -8.382 1.192 h -7.199 l -0.835 -2.448 c -1.704 -4.895 -6.26 -7.987 -8.973 -6.183 c -0.487 0.322 -1.774 2.061 -2.921 3.865 c -2.713 4.315 -4.73 5.02 -13.146 4.573 c -5.53 -0.322 -7.06 -0.644 -7.686 -1.739 c -1.391 -2.448 -3.408 -4.154 -5.46 -4.67 c -2.365 -0.58 -3.373 0.547 -3.373 3.768 c -0.035 2.609 -1.322 3.188 -5.808 2.512 l -3.443 -0.515 v -3.253 c 0 -5.668 -3.443 -6.86 -7.443 -2.609 c -1.287 1.353 -2.852 2.898 -3.408 3.414 c -0.591 0.515 -1.495 1.449 -2.052 2.126 c -0.765 0.902 -2.643 1.159 -8.486 1.159 h -7.512 l -2.956 -3.03 c -3.652 -3.768 -7.164 -5.378 -8.173 -3.8 c -0.348 0.58 -0.696 1.997 -0.696 3.156 c 0 2.544 -1.878 3.671 -5.982 3.671 h -3.03 l -0.487 -8.18 c -0.278 -4.509 -0.487 -11.948 -0.487 -16.521 v -8.341 h -3.408 c -2.643 0 -3.86 0.483 -5.738 2.222 l -2.4 2.254 v 27.793 c -2.782 0 -5.599 0 -8.382 0 v -13.848 c -0.035 -16.296 -0.452 -17.906 -4.904 -18.26 c -2.434 -0.225 -3.269 0.129 -5.147 2.126 c -2.747 2.963 -3.339 6.86 -2.956 20.45 l 0.243 9.919 h -3.826 c -3.826 0 -3.86 0 -3.721 -2.448 c 0.104 -2.802 -0.939 -3.317 -5.112 -2.415 c -1.53 0.322 -3.443 1.481 -4.417 2.737 c -1.635 2.029 -2.087 2.158 -8.834 2.383 c -3.234 -0.097 -7.164 0.129 -9.425 -1.256 m 101.55 -3.8 c 0.487 -0.322 1.913 -2.287 3.13 -4.412 c 2.156 -3.671 2.434 -3.865 6.33 -4.348 c 3.652 -0.451 5.391 -1.449 5.425 -3.124 c 0.07 -3.03 -20.45 -3.51 -22.362 -0.515 c -0.939 1.481 -0.869 9.694 0.104 11.497 c 0.556 1.063 1.6 1.481 3.652 1.481 c 1.565 0 3.234 -0.258 3.721 -0.58 m 50.08 -0.386 c 0.417 -0.515 1.01 -2.673 1.287 -4.799 l 0.522 -3.832 l 3.582 0.258 c 6.26 0.419 9.738 -1.964 6.643 -4.541 c -1.6 -1.32 -17.667 -1.385 -20.1 -0.064 c -3.373 1.803 -3.721 10.628 -0.487 12.979 c 1.704 1.256 7.512 1.256 8.555 0 m -136.99 -3.671 c 3.791 -2.866 3.03 -5.507 2.991 -9.79 c -0.035 -5.99 -0.243 -7.02 -2.121 -9.694 c -1.843 -3.865 -3.373 -4.315 -7.234 -4.154 c -6.191 -0.451 -5.738 1.868 -7.443 6.924 c -2.087 6.28 -2.191 6.956 -1.217 10.02 c 1.669 5.249 2.956 7.375 5.182 8.599 c 3.791 2.061 6.469 1.546 9.842 -1.9 m 167.01 1.675 c 0.556 -0.354 1.078 -1.288 1.217 -2.093 c 0.209 -1.481 3.965 -3.253 7.06 -3.349 c 2.574 -0.064 4.173 -2.609 4.939 -7.826 c 1.182 -8.116 0.939 -11.755 -0.904 -14.11 c -1.6 -2.029 -1.808 -2.093 -8.521 -1.836 c -8.868 0.354 -10.12 1.514 -10.955 10.209 c -0.591 6.538 0.139 17.23 1.322 18.711 c 0.869 1.063 4.313 1.256 5.808 0.29 m -79.26 -16.392 c 2.608 -2.415 2.4 -6.28 -0.452 -9.146 c -2.678 -2.673 -4.834 -2.834 -6.956 -0.547 c -1.913 2.061 -3.304 6.634 -0.383 9.661 c 1.426 2.48 6.26 1.385 7.79 0.032 m 48.52 0.483 c 1.356 -0.934 1.704 -1.932 1.669 -4.799 c -0.035 -5.443 -1.461 -6.763 -7.03 -6.409 c -3.165 0.161 -4.486 2.029 -4.486 6.28 c 0 4.283 1.739 6.119 5.773 6.119 c 1.287 0 3.13 -0.515 4.069 -1.192 m 62.914 0.064 c 1.948 -1.353 3.06 -7.246 1.808 -9.597 c -1.287 -2.383 -7.13 -2.19 -9.634 0.322 c -5.182 5.153 1.843 13.462 7.825 9.275" transform="matrix(0.11232 0 0 0.12129 1.682 0.892)" fill="#fbcd06" stroke="#fbcd06" stroke-width="1.403"/></svg>