<svg xmlns="http://www.w3.org/2000/svg" viewBox="0 0 32 32"><path d="m 16.05 0.391 c 21.11 -2.402 20.816 31.992 -0.375 31.582 c -19.707 1.133 -21.488 -33.453 0.375 -31.582" fill="#707f8f"/><path d="m 10.996 7.594 h 9.945 c 0.688 0 1.242 0.582 1.242 1.305 v 14.691 c 0 0.723 -0.555 1.305 -1.242 1.305 h -9.945 c -0.684 0 -1.242 -0.582 -1.242 -1.305 v -14.691 c 0 -0.723 0.559 -1.305 1.242 -1.305" fill="#a9a9a9"/><path d="m 10.852 21.652 h 7.129 c 0.031 0 0.063 0.027 0.063 0.063 v 2.035 c 0 0.035 -0.031 0.063 -0.063 0.063 h -7.129 c -0.035 0 -0.063 -0.027 -0.063 -0.063 v -2.035 c 0 -0.035 0.027 -0.063 0.063 -0.063" fill="#4bad4e"/><path d="m 19.14 15.16 h 1.945 c 0.035 0 0.063 0.027 0.063 0.063 v 8.523 c 0 0.035 -0.027 0.063 -0.063 0.063 h -1.945 c -0.035 0 -0.063 -0.027 -0.063 -0.063 v -8.523 c 0 -0.035 0.027 -0.063 0.063 -0.063" fill="#de564c"/><g fill="#f4f4f4"><path d="m 10.852 18.406 h 2.984 c 0.035 0 0.063 0.027 0.063 0.063 v 2.039 c 0 0.035 -0.027 0.063 -0.063 0.063 h -2.984 c -0.035 0 -0.063 -0.027 -0.063 -0.063 v -2.039 c 0 -0.035 0.027 -0.063 0.063 -0.063"/><path d="m 10.852 15.16 h 2.984 c 0.035 0 0.063 0.027 0.063 0.063 v 2.035 c 0 0.035 -0.027 0.063 -0.063 0.063 h -2.984 c -0.035 0 -0.063 -0.027 -0.063 -0.063 v -2.035 c 0 -0.035 0.027 -0.063 0.063 -0.063"/><path d="m 14.996 15.16 h 2.984 c 0.031 0 0.063 0.027 0.063 0.063 v 2.035 c 0 0.035 -0.031 0.063 -0.063 0.063 h -2.984 c -0.035 0 -0.063 -0.027 -0.063 -0.063 v -2.035 c 0 -0.035 0.027 -0.063 0.063 -0.063"/><path d="m 14.996 18.406 h 2.984 c 0.031 0 0.063 0.027 0.063 0.063 v 2.039 c 0 0.035 -0.031 0.063 -0.063 0.063 h -2.984 c -0.035 0 -0.063 -0.027 -0.063 -0.063 v -2.039 c 0 -0.035 0.027 -0.063 0.063 -0.063"/><path d="m 10.852 8.672 h 10.234 c 0.035 0 0.063 0.031 0.063 0.063 v 5.285 c 0 0.031 -0.027 0.063 -0.063 0.063 h -10.234 c -0.035 0 -0.063 -0.031 -0.063 -0.063 v -5.285 c 0 -0.031 0.027 -0.063 0.063 -0.063"/></g></svg>