<svg xmlns="http://www.w3.org/2000/svg" viewBox="0 0 32 32"><path d="m 23.781 29.391 c -41.18 16.688 -21.832 -53.48 5.059 -19.41 c 4.684 6.113 5.05 16.379 -5.059 19.41" fill="#931233"/><g fill="#ff874f" stroke="#ff874f"><path d="m 252.02 116.25 c -0.406 -0.969 -1.031 -4.813 -1.375 -8.531 c -0.594 -6.313 -1 -7.094 -6.06 -12.156 c -9.813 -9.844 -13.969 -21.969 -14.09 -41.16 c -0.063 -9.719 -1.5 -12.156 -7.75 -13.12 c -8.75 -1.375 -9.844 -1.844 -11.594 -5.063 c -1.438 -2.563 -1.531 -3.813 -0.5 -6.688 c 1.594 -4.531 2.469 -5 10.438 -5.625 l 6.625 -0.531 l 4.594 -6.625 c 2.531 -3.625 5.25 -7 6.06 -7.469 c 0.813 -0.5 4.25 -0.875 7.625 -0.906 c 10.844 -0.031 13.656 5.094 14.656 26.594 c 0.656 14.03 2.813 19.563 9.156 23.438 c 8.75 5.344 18.813 5.906 32.875 1.781 c 3.656 -1.063 7.06 -1.688 7.594 -1.375 c 1.719 0.969 -0.063 17.03 -2.563 23.25 c -4.125 10.188 -15.688 19.906 -26.22 22 c -4.063 0.813 -8.03 4.875 -8.03 8.25 c 0 1.25 -0.688 3.156 -1.563 4.25 c -1.719 2.219 -1.375 2.906 -3.469 -6.5 c -0.906 -4.03 -2.5 -5.438 -6.03 -5.438 c -3.906 0 -6.562 2.406 -6.594 6 c -0.031 6.188 -2.219 9.469 -3.781 5.625 m 30.28 -18.09 c 8.563 -2.438 16.563 -9.531 20.969 -18.656 c 4.344 -8.969 1.875 -12.781 -7.406 -11.438 c -5.344 0.781 -6.531 1.719 -9.688 7.5 c -3.125 5.75 -6.406 8.75 -12.06 10.969 c -4.531 1.75 -9.938 1.281 -9.188 -0.844 c 0.25 -0.688 2.875 -2.344 5.875 -3.688 c 7.219 -3.219 10.375 -6.125 10.375 -9.531 c 0 -2.438 -0.813 -3.125 -5.875 -5.03 c -7.625 -2.938 -13.469 -7.5 -16.313 -12.875 c -4.062 -7.563 -6.06 -8.938 -13.06 -8.938 c -3.531 0 -7.125 0.625 -8.281 1.406 c -4.344 3 -3.125 23.19 2.063 34.03 c 7.06 14.813 25.06 22.03 42.562 17.09 m -27.16 -62.56 c 0.531 -1.813 0.656 -6.344 0.219 -10.09 c -1.344 -11.781 -8.625 -16.625 -15.219 -10.156 c -3.813 3.781 -5.219 7.531 -5.219 14.06 c 0 9 3.469 11.344 14.844 10 c 3.781 -0.438 4.5 -0.969 5.375 -3.813 m -28.969 -0.375 c 3.188 -1.594 2.781 -5.969 -0.625 -6.781 c -6.719 -1.563 -11.625 2.625 -7.125 6.03 c 2.75 2.094 4.719 2.281 7.75 0.75" transform="matrix(0.125 0 0 0.125 -20.698 12.16)" stroke-width="2.236"/><path d="m 153.59 182.09 c -2.156 -4.03 0.469 -6.781 16.344 -17.16 c 8.406 -5.469 18.656 -12.438 22.781 -15.469 c 6.375 -4.719 7.5 -6 7.5 -8.594 c 0 -3.781 1.344 -2.875 -52.25 -36.19 c -22.19 -13.813 -42.31 -26.469 -44.656 -28.12 c -4.594 -3.188 -10.656 -4 -12.563 -1.688 c -0.563 0.688 -1.375 4.875 -1.781 9.281 c -0.406 4.375 -1.281 8.688 -1.906 9.594 c -1.063 1.438 -1.438 1.438 -3.594 -0.094 c -2.313 -1.625 -2.406 -2.188 -2.094 -11.656 c 0.406 -11.219 1.844 -14.313 7.969 -17.281 c 7 -3.406 6.906 -3.438 66.969 33.688 c 45.906 28.406 53.34 33.875 54.625 40.31 c 1.125 5.656 -2.375 11.469 -10.531 17.469 c -11.09 8.156 -42.41 28.13 -44.09 28.13 c -0.844 0 -2.063 -1 -2.719 -2.219" transform="scale(0.125)" stroke-width="0.229"/></g></svg>