<svg xmlns="http://www.w3.org/2000/svg" viewBox="0 0 32 32"><path d="m 15.441 31.777 c 19.09 1.816 22.809 -28.836 3.18 -31.21 c -18.09 -2.949 -26.05 24.832 -7.969 30.391 c 1.539 0.609 3.184 0.598 4.789 0.824" fill="#f5f4f4"/><path d="m 15.16 26.566 c -1.57 -0.27 -2.875 -0.734 -4.066 -1.449 c -3.305 -1.973 -5.375 -6.082 -4.93 -9.781 c 0.602 -5.02 4.281 -8.668 9.332 -9.266 c 2.234 -0.266 4.879 0.41 6.902 1.762 c 3.047 2.035 4.879 5.945 4.457 9.516 c -0.355 3.01 -1.805 5.527 -4.191 7.289 c -0.762 0.563 -2.01 1.227 -2.723 1.449 c -1.695 0.531 -3.469 0.707 -4.781 0.48" fill="#6bd6e8"/><path d="m 14.391 26.719 c -4.156 -0.75 -7.504 -3.852 -8.566 -7.93 c -0.398 -1.539 -0.398 -3.605 0 -5.145 c 0.984 -3.793 3.957 -6.754 7.758 -7.738 c 0.914 -0.234 1.309 -0.277 2.582 -0.273 c 1.27 0 1.676 0.043 2.582 0.277 c 5.195 1.344 8.594 6.188 8.01 11.422 c -0.391 3.547 -2.453 6.605 -5.594 8.305 c -1.941 1.051 -4.594 1.473 -6.773 1.082 m 1.27 -1.711 c 0.031 -1.012 0.121 -1.23 0.496 -1.23 c 0.41 0 0.492 0.203 0.492 1.195 c 0 0.516 0.035 0.957 0.082 0.984 c 0.164 0.102 1.98 -0.258 2.805 -0.559 c 0.469 -0.172 1.184 -0.504 1.59 -0.742 c 0.793 -0.461 1.762 -1.254 1.762 -1.441 c 0 -0.063 -0.266 -0.395 -0.594 -0.734 c -0.621 -0.652 -0.719 -0.957 -0.41 -1.297 c 0.285 -0.313 0.488 -0.234 1.164 0.449 c 0.352 0.352 0.691 0.645 0.75 0.645 c 0.133 0 0.676 -0.805 1.137 -1.684 c 0.422 -0.813 0.836 -2.188 0.879 -2.93 l 0.031 -0.59 l -0.91 -0.031 c -0.5 -0.016 -0.973 -0.086 -1.051 -0.152 c -0.094 -0.074 -0.137 -0.297 -0.113 -0.609 l 0.031 -0.492 l 1.059 -0.031 l 1.063 -0.031 l -0.074 -0.613 c -0.16 -1.348 -1 -3.398 -1.762 -4.309 l -0.313 -0.371 l -0.773 0.746 l -0.777 0.746 l -0.313 -0.348 c -0.172 -0.195 -0.316 -0.426 -0.316 -0.52 c 0 -0.094 0.293 -0.465 0.648 -0.828 c 0.355 -0.363 0.645 -0.695 0.645 -0.738 c 0 -0.109 -1 -0.848 -1.758 -1.305 c -0.852 -0.512 -2.266 -1 -3.387 -1.184 c -0.699 -0.113 -0.953 -0.117 -1.012 -0.027 c -0.043 0.07 -0.078 0.512 -0.082 0.988 c 0 0.91 -0.09 1.121 -0.484 1.121 c -0.395 0 -0.484 -0.211 -0.484 -1.125 c 0 -0.48 -0.051 -0.922 -0.113 -0.984 c -0.133 -0.129 -1.418 0.055 -2.359 0.344 c -1.203 0.367 -3.445 1.699 -3.621 2.148 c -0.039 0.102 0.16 0.391 0.543 0.793 c 0.332 0.348 0.605 0.723 0.605 0.836 c 0 0.238 -0.461 0.777 -0.664 0.777 c -0.074 0 -0.445 -0.305 -0.82 -0.672 l -0.684 -0.672 l -0.348 0.398 c -0.742 0.848 -1.617 3.039 -1.699 4.27 l -0.035 0.48 l 1.02 0.055 c 0.988 0.051 1.023 0.063 1.121 0.34 c 0.07 0.195 0.055 0.387 -0.039 0.613 l -0.137 0.332 h -0.887 c -0.582 0 -0.926 0.047 -0.996 0.137 c -0.109 0.133 -0.031 0.898 0.168 1.688 c 0.258 1.016 1.355 3.141 1.742 3.379 c 0.078 0.047 0.379 -0.172 0.793 -0.578 c 0.707 -0.699 0.852 -0.758 1.16 -0.477 c 0.355 0.316 0.246 0.676 -0.41 1.336 c -0.391 0.398 -0.582 0.668 -0.543 0.777 c 0.188 0.484 2.211 1.738 3.516 2.18 c 0.762 0.258 2.293 0.574 2.527 0.52 c 0.059 -0.012 0.121 -0.449 0.141 -0.973 m -1.172 -2.359 c -2.16 -0.59 -3.844 -2.207 -4.555 -4.383 c -0.223 -0.684 -0.273 -1.051 -0.273 -1.949 c 0 -1.285 0.168 -2.043 0.688 -3.102 c 0.98 -1.988 3.242 -3.484 5.262 -3.484 c 0.742 0 0.934 0.109 0.934 0.543 c 0 0.406 -0.211 0.535 -1.059 0.641 c -1.379 0.172 -2.426 0.695 -3.367 1.68 c -2.746 2.867 -1.539 7.598 2.262 8.883 c 1.102 0.371 2.551 0.367 3.609 -0.004 c 2.246 -0.789 3.715 -2.816 3.715 -5.121 c 0 -1.566 -0.629 -2.996 -1.785 -4.051 l -0.527 -0.48 l -0.066 0.613 c -0.07 0.668 -0.227 0.941 -0.531 0.941 c -0.441 0 -0.531 -0.27 -0.531 -1.609 c 0 -1.641 -0.031 -1.609 1.492 -1.609 c 1.352 0 1.555 0.09 1.5 0.648 c -0.023 0.262 -0.105 0.402 -0.277 0.477 c -0.133 0.059 -0.242 0.137 -0.242 0.176 c 0 0.039 0.195 0.305 0.438 0.594 c 1.762 2.109 1.992 5.234 0.563 7.637 c -0.797 1.34 -2.359 2.516 -3.918 2.953 c -0.73 0.203 -2.594 0.211 -3.328 0.008 m 2.555 -4.754 l -1.367 -1.379 l 0.031 -2.402 l 0.027 -2.402 h 0.859 l 0.031 2.145 l 0.027 2.141 l 1.234 1.246 c 0.68 0.684 1.234 1.305 1.234 1.375 c 0 0.148 -0.48 0.656 -0.617 0.656 c -0.051 0 -0.707 -0.621 -1.461 -1.379" fill="#0d4c55"/></svg>