<svg xmlns="http://www.w3.org/2000/svg" viewBox="0 0 32 32"><path d="m 3.801 8.313 c -7.309 7.391 -1.957 14.211 3.852 19.816 c 4.734 4.563 9.125 4.77 13.777 1.746 c 12.148 -7.898 16.652 -18.16 -2.191 -28.895 c -6.215 -2.645 -11.996 2.941 -15.438 7.332" fill="#f4f4f4"/><path d="m 13.809 20.676 c -0.965 -0.652 -1.82 -1.184 -1.902 -1.188 c -0.082 0 -0.336 0.16 -0.563 0.352 c -0.617 0.535 -2.242 1.547 -2.332 1.457 c -0.043 -0.043 -0.059 -0.906 -0.035 -1.914 l 0.043 -1.832 l -0.355 -0.332 c -0.195 -0.184 -1.031 -0.766 -1.855 -1.297 c -1.508 -0.969 -1.859 -1.262 -1.742 -1.445 c 0.07 -0.117 0.141 -0.164 4.805 -3.293 c 1.957 -1.316 3.73 -2.508 3.938 -2.648 c 1.01 -0.691 1.828 -1.172 2 -1.172 c 1.633 0.801 3.047 1.871 4.469 2.813 c 1.301 0.848 2.734 1.84 3.906 2.637 c 0.355 0.355 2.273 1.266 2.313 1.789 c 0 0.145 -0.379 0.477 -1.031 0.91 c -0.566 0.375 -1.652 1.105 -2.406 1.621 c -4.945 3.367 -7.03 4.73 -7.25 4.73 c -0.141 0 -1.039 -0.535 -2 -1.188 m 2.141 -3.227 c 1.066 -0.992 2.531 -1.363 3.516 -2.445 c 0.266 -0.324 0.184 -0.742 -0.188 -0.973 c -0.723 -0.438 -3.359 -2.227 -3.699 -2.504 c -0.383 -0.316 -0.824 -0.375 -1.059 -0.141 c -0.195 0.195 -0.211 6 -0.02 6.359 c 0.203 0.379 0.656 0.285 1.449 -0.297" fill="#33c8ff"/><path d="m 110.02 197.48 c -18.09 -11.813 -29 -19.906 -28.969 -21.5 c 0 -1.781 11.594 -9.688 14.156 -9.688 c 1.125 0.031 7.75 3.781 14.75 8.406 c 8.281 5.469 13.781 8.375 15.844 8.375 c 2.188 0 9.406 -4.125 23.09 -13.219 c 20.09 -13.344 29.563 -19.219 30.906 -19.219 c 0.406 0 0.75 4.469 0.75 9.969 v 9.969 l -4.188 3.281 c -4.281 3.344 -37.781 25.781 -45.16 30.25 c -2.219 1.344 -4.75 2.438 -5.656 2.438 c -0.906 0 -7.875 -4.094 -15.531 -9.06" transform="matrix(0.125 0 0 0.125 0.076 0.378)" fill="#5572ff" stroke="#5572ff" stroke-width="2.329"/></svg>