<svg xmlns="http://www.w3.org/2000/svg" viewBox="0 0 32 32"><defs><linearGradient id="2" gradientUnits="userSpaceOnUse" y1="3.792" x2="0" y2="44.42"><stop stop-color="#fff" stop-opacity="0.502"/><stop offset="0.424" stop-color="#fff" stop-opacity="0.118"/><stop offset="0.821" stop-color="#fff" stop-opacity="0.079"/><stop offset="1" stop-color="#fff" stop-opacity="0.197"/></linearGradient><linearGradient id="1" gradientUnits="userSpaceOnUse" y1="36" x2="0" y2="9.763" gradientTransform="matrix(0 0.51322 0.52924 0 3.367 4)"><stop stop-color="#0068df"/><stop offset="1" stop-color="#00abf4"/></linearGradient><radialGradient id="0" gradientUnits="userSpaceOnUse" cx="23.896" cy="3.99" r="20.397" gradientTransform="matrix(1.5287 0 0 -1.95682 -31.536 24.13)"><stop stop-color="#fff"/><stop offset="0.262" stop-color="#ddd"/><stop offset="0.661" stop-color="#ababad"/><stop offset="1" stop-color="#88888b"/></radialGradient></defs><path d="m 30.762 11.668 c 5.895 16.563 -15.285 24.617 -23.25 17.875 c -7.953 -6.742 -10.672 -18.301 -1.66 -24.11 c 9.01 -5.816 19.01 -10.324 24.906 6.238" fill="#0082e7"/><path d="m 5.219 16.324 c 0 -5.809 4.863 -10.523 10.852 -10.523 c 5.984 0 10.848 4.715 10.848 10.523 c 0 5.805 -4.863 10.52 -10.848 10.52 c -5.988 0 -10.852 -4.715 -10.852 -10.52" fill="url(#0)"/><path d="m 5.219 16.324 c 0 -5.809 4.863 -10.523 10.852 -10.523 c 5.984 0 10.848 4.715 10.848 10.523 c 0 5.805 -4.863 10.52 -10.848 10.52 c -5.988 0 -10.852 -4.715 -10.852 -10.52" fill="url(#1)"/><g fill="none" stroke-linejoin="round" stroke-linecap="round"><path d="m 43.504 24 c 0 10.769 -8.73 19.5 -19.5 19.5 c -10.77 0 -19.5 -8.732 -19.5 -19.5 c 0 -10.776 8.73 -19.5 19.5 -19.5 c 10.77 0 19.5 8.724 19.5 19.5" transform="matrix(0 0.51322 0.52924 0 3.367 4)" stroke="url(#2)"/><path d="m 24 3.498 c -11.318 0 -20.505 9.189 -20.505 20.504 c 0 11.308 9.187 20.497 20.505 20.497 c 11.31 0 20.497 -9.189 20.497 -20.497 c 0 -11.315 -9.187 -20.504 -20.497 -20.504" transform="matrix(0 0.51322 0.52924 0 3.367 4)" stroke="#fbfbfb" stroke-width="1.8"/></g><g fill="#fff"><g fill-rule="evenodd"><path d="m 6.762 17.07 l 0.031 0.344 l 0.926 -0.078 l -0.031 -0.344"/><path d="m 6.895 18.02 l 0.074 0.336 l 0.906 -0.184 l -0.074 -0.34"/><path d="m 7.121 18.938 l 0.109 0.328 l 0.887 -0.27 l -0.113 -0.328"/><path d="m 7.441 19.855 l 0.168 0.309 l 0.824 -0.41 l -0.168 -0.309"/><path d="m 7.809 20.508 l 0.367 0.605 l 1.953 -1.086 l -0.367 -0.602"/><path d="m 8.359 21.457 l 0.211 0.285 l 0.754 -0.52 l -0.211 -0.281"/><path d="m 8.973 22.21 l 0.246 0.258 l 0.68 -0.602 l -0.242 -0.254"/><path d="m 9.652 22.891 l 0.27 0.23 l 0.621 -0.66 l -0.27 -0.234"/><path d="m 10.414 23.527 l 0.309 0.184 l 0.492 -0.754 l -0.305 -0.184"/><path d="m 11.08 23.91 l 0.633 0.348 l 1.109 -1.883 l -0.633 -0.344"/><path d="m 16.875 25.402 l 0.359 -0.043 l -0.113 -0.883 l -0.359 0.043"/><path d="m 17.859 25.25 l 0.352 -0.082 l -0.223 -0.863 l -0.352 0.082"/><path d="m 18.805 24.996 l 0.34 -0.113 l -0.309 -0.84 l -0.34 0.117"/><path d="m 19.754 24.66 l 0.316 -0.168 l -0.453 -0.777 l -0.316 0.168"/><path d="m 20.422 24.289 l 0.621 -0.371 l -1.195 -1.836 l -0.617 0.371"/><path d="m 21.43 23.668 l 0.297 -0.199 l -0.531 -0.73 l -0.297 0.199"/><path d="m 22.22 23.09 l 0.27 -0.23 l -0.617 -0.664 l -0.27 0.23"/><path d="m 22.938 22.445 l 0.246 -0.254 l -0.684 -0.602 l -0.242 0.254"/><path d="m 23.613 21.723 l 0.195 -0.289 l -0.777 -0.484 l -0.199 0.293"/><path d="m 24.02 21.09 l 0.367 -0.602 l -1.949 -1.09 l -0.367 0.605"/><path d="m 10.863 8.879 l -0.305 0.188 l 0.508 0.746 l 0.305 -0.188"/><path d="m 10.05 9.434 l -0.277 0.223 l 0.598 0.68 l 0.277 -0.223"/><path d="m 9.316 10.05 l -0.254 0.25 l 0.664 0.621 l 0.254 -0.25"/><path d="m 8.621 10.758 l -0.207 0.285 l 0.762 0.508 l 0.207 -0.285"/><path d="m 8.191 11.375 l -0.387 0.594 l 1.914 1.145 l 0.387 -0.594"/><path d="m 15.422 7.211 l -0.363 0.027 l 0.082 0.887 l 0.359 -0.031"/><path d="m 14.43 7.332 l -0.352 0.074 l 0.195 0.867 l 0.352 -0.07"/><path d="m 13.477 7.551 l -0.344 0.105 l 0.281 0.848 l 0.344 -0.105"/><path d="m 12.52 7.859 l -0.324 0.16 l 0.43 0.789 l 0.32 -0.16"/><path d="m 11.836 8.211 l -0.629 0.348 l 1.129 1.875 l 0.629 -0.352"/><path d="m 7.629 12.457 l -0.152 0.313 l 0.84 0.379 l 0.156 -0.316"/><path d="m 7.246 13.34 l -0.109 0.328 l 0.883 0.277 l 0.109 -0.332"/><path d="m 6.969 14.242 l -0.078 0.336 l 0.906 0.191 l 0.078 -0.336"/><path d="m 6.785 15.215 l -0.027 0.344 l 0.922 0.07 l 0.031 -0.344"/><path d="m 6.766 15.969 v 0.676 h 2.816 v -0.676"/><path d="m 12.04 24.43 l 0.324 0.156 l 0.41 -0.797 l -0.324 -0.156"/><path d="m 12.945 24.816 l 0.344 0.117 l 0.305 -0.84 l -0.34 -0.113"/><path d="m 13.879 25.11 l 0.352 0.086 l 0.223 -0.867 l -0.352 -0.082"/><path d="m 14.891 25.305 l 0.359 0.035 l 0.098 -0.883 l -0.359 -0.035"/><path d="m 15.68 25.34 l 0.703 0.016 l 0.063 -2.699 l -0.699 -0.016"/><path d="m 25.547 15.563 l -0.016 -0.348 l -0.93 0.043 l 0.02 0.348"/><path d="m 25.457 14.609 l -0.059 -0.34 l -0.914 0.148 l 0.059 0.344"/><path d="m 25.27 13.688 l -0.094 -0.336 l -0.898 0.234 l 0.098 0.336"/><path d="m 24.988 12.758 l -0.152 -0.316 l -0.84 0.379 l 0.152 0.313"/><path d="m 24.648 12.09 l -0.336 -0.621 l -2 1.01 l 0.34 0.617"/><path d="m 24.73 20.11 l 0.156 -0.313 l -0.844 -0.379 l -0.152 0.316"/><path d="m 25.12 19.223 l 0.109 -0.328 l -0.883 -0.277 l -0.109 0.332"/><path d="m 25.395 18.32 l 0.078 -0.336 l -0.906 -0.191 l -0.078 0.336"/><path d="m 25.578 17.348 l 0.027 -0.344 l -0.922 -0.07 l -0.031 0.344"/><path d="m 25.598 16.594 v -0.676 h -2.816 v 0.676"/><path d="m 24 11.121 l -0.195 -0.289 l -0.777 0.484 l 0.199 0.289"/><path d="m 23.422 10.344 l -0.234 -0.266 l -0.707 0.574 l 0.23 0.266"/><path d="m 22.77 9.641 l -0.262 -0.242 l -0.645 0.637 l 0.258 0.242"/><path d="m 22.03 8.977 l -0.297 -0.195 l -0.523 0.73 l 0.297 0.195"/><path d="m 21.387 8.566 l -0.617 -0.367 l -1.188 1.836 l 0.617 0.367"/><path d="m 20.238 8.02 l -0.328 -0.145 l -0.395 0.805 l 0.328 0.148"/><path d="m 19.316 7.648 l -0.344 -0.105 l -0.285 0.848 l 0.344 0.105"/><path d="m 18.375 7.383 l -0.352 -0.074 l -0.199 0.867 l 0.352 0.074"/><path d="m 17.359 7.207 l -0.359 -0.027 l -0.074 0.887 l 0.359 0.027"/><path d="m 16.57 7.191 h -0.699 v 2.695 h 0.699"/><path d="m 14.902 14.629 l 0.887 -0.305 l 2.652 7.164 l -0.273 0.594 l -0.641 -0.34"/><path d="m 14.52 18.32 l 0.543 0.32 l 5.305 -9.668 l -0.199 -0.465 l -0.516 0.145"/><path d="m 17.699 16.14 l -6.379 1.105 c 0 0.023 0 0.047 0 0.074 c 0 0.582 -0.492 1.051 -1.102 1.051 c -0.5 0 -0.922 -0.316 -1.055 -0.754 l -2.707 0.473 l -0.113 -0.051 l 0.07 -0.09 l 2.707 -0.527 c -0.004 -0.035 -0.004 -0.066 -0.004 -0.102 c 0 -0.582 0.496 -1.055 1.102 -1.055 c 0.492 0 0.91 0.309 1.051 0.734 l 6.355 -1.246 m -6.902 1.547 c 0 -0.27 -0.23 -0.488 -0.508 -0.488 c -0.281 0 -0.508 0.219 -0.508 0.488 c 0 0.27 0.227 0.488 0.508 0.488 c 0.277 0 0.508 -0.219 0.508 -0.488"/></g><path d="m 15.03 16.15 c 0.094 -0.477 0.539 -0.805 1.023 -0.758 c 0.484 0.051 0.852 0.461 0.848 0.945 c -0.004 0.488 -0.379 0.891 -0.863 0.934 c -0.484 0.043 -0.922 -0.293 -1.01 -0.773"/></g></svg>