<svg xmlns="http://www.w3.org/2000/svg" viewBox="0 0 32 32"><path d="m 4.055 23.828 c -11.316 -12.785 5.434 -26.316 15.25 -22.992 c 9.816 3.328 16.406 12.715 10 20.949 c -6.41 8.23 -12.711 16.17 -24.03 3.383" fill="#ffa400"/><path d="m 6.05 15.941 c -0.004 0.094 -0.008 0.188 -0.012 0.281 c 0 5.344 4.52 9.676 10.1 9.676 c 5.574 0 10.09 -4.332 10.09 -9.676 c -0.004 -0.066 -0.008 -0.137 -0.012 -0.203 c -0.16 5.23 -4.625 9.395 -10.08 9.395 c -5.492 -0.004 -9.973 -4.211 -10.09 -9.473" fill-opacity="0.2"/><path d="m 16.14 6.06 c -5.578 0 -10.1 4.336 -10.1 9.68 c 0 5.344 4.52 9.676 10.1 9.676 c 5.574 0 10.09 -4.332 10.09 -9.676 c 0 -5.344 -4.52 -9.68 -10.09 -9.68" fill="#c13529"/><path d="m 15.633 17.191 v 8.164 c 0.168 0.039 0.336 0.059 0.508 0.059 c 0.168 0 0.336 -0.016 0.504 -0.047 v -8.176" fill="#ffc300"/><g fill-opacity="0.2"><path d="m 16.14 6.06 c -5.578 0 -10.1 4.336 -10.1 9.68 c 0.004 0.066 0.008 0.133 0.012 0.203 c 0.156 -5.23 4.625 -9.395 10.09 -9.398 c 5.488 0.004 9.969 4.215 10.08 9.477 c 0.004 -0.094 0.008 -0.188 0.012 -0.281 c 0 -5.344 -4.52 -9.68 -10.09 -9.68" fill="#fff"/><path d="m 19.297 10.164 l -0.449 0.871 c 2.051 0.98 3.348 2.988 3.348 5.188 c 0 2.199 -1.297 4.207 -3.348 5.191 l 0.449 0.859 c 2.395 -1.145 3.906 -3.488 3.91 -6.05 c 0 -2.566 -1.516 -4.91 -3.906 -6.06 m -6.316 0.004 c -2.395 1.148 -3.906 3.488 -3.91 6.05 c 0 2.566 1.512 4.91 3.906 6.06 l 0.453 -0.871 c -2.051 -0.98 -3.348 -2.992 -3.352 -5.188 c 0 -2.199 1.297 -4.211 3.352 -5.191 m 4.961 0.863 l -0.449 0.867 c 1.367 0.656 2.23 1.996 2.234 3.461 c -0.004 1.465 -0.867 2.805 -2.234 3.461 l 0.449 0.859 c 1.711 -0.816 2.789 -2.488 2.793 -4.32 c 0 -1.832 -1.082 -3.508 -2.789 -4.328 m -4.512 0.004 c -1.711 0.82 -2.793 2.492 -2.793 4.324 c 0 1.832 1.082 3.508 2.789 4.324 l 0.453 -0.867 c -1.367 -0.652 -2.23 -1.992 -2.234 -3.457 c 0 -1.465 0.867 -2.805 2.234 -3.461"/></g><path d="m 19.297 9.68 l -0.449 0.871 c 2.051 0.98 3.348 2.988 3.348 5.188 c 0 2.199 -1.297 4.207 -3.348 5.191 l 0.449 0.859 c 2.395 -1.145 3.906 -3.488 3.91 -6.05 c 0 -2.566 -1.516 -4.91 -3.906 -6.06 m -6.316 0.004 c -2.395 1.148 -3.906 3.488 -3.91 6.05 c 0 2.566 1.512 4.91 3.906 6.06 l 0.453 -0.871 c -2.051 -0.98 -3.348 -2.988 -3.352 -5.188 c 0 -2.199 1.297 -4.211 3.348 -5.191 l -0.445 -0.859 m 5.41 1.723 l -0.449 0.867 c 1.367 0.656 2.23 1.996 2.234 3.461 c -0.004 1.465 -0.867 2.805 -2.234 3.461 l 0.449 0.859 c 1.711 -0.816 2.789 -2.488 2.793 -4.32 c 0 -1.832 -1.082 -3.508 -2.789 -4.328 m -4.512 0.004 c -1.711 0.82 -2.793 2.492 -2.793 4.324 c 0 1.832 1.078 3.508 2.789 4.328 l 0.453 -0.871 c -1.367 -0.652 -2.234 -1.992 -2.234 -3.457 c 0 -1.465 0.863 -2.805 2.234 -3.461 l -0.453 -0.863" fill="#ffc300"/><path d="m 18.16 16.223 c 0 1.066 -0.902 1.934 -2.02 1.934 c -1.117 0 -2.02 -0.867 -2.02 -1.934 c 0 -1.07 0.902 -1.938 2.02 -1.938 c 1.113 0 2.02 0.867 2.02 1.938" fill-opacity="0.2"/><path d="m 18.16 15.738 c 0 1.07 -0.902 1.934 -2.02 1.934 c -1.117 0 -2.02 -0.863 -2.02 -1.934 c 0 -1.07 0.902 -1.938 2.02 -1.938 c 1.113 0 2.02 0.867 2.02 1.938" fill="#ffc300"/></svg>