<svg xmlns="http://www.w3.org/2000/svg" viewBox="0 0 32 32"><path d="m 28.703 24.535 c 11.508 -16.254 -9.742 -32.719 -23.297 -19.477 c -12.773 12.477 -0.934 31.859 14.961 25.797 c 3.316 -1.262 6.223 -3.34 8.336 -6.32" fill="#30302f"/><g stroke-width="2.608" transform="scale(0.125)"><g fill="#f50c30" stroke="#f50c30"><path d="m 135.16 214.44 c 0 -2.188 0.5 -4.375 1.125 -4.875 c 0.625 -0.469 4.75 -1.781 9.188 -2.875 c 16.75 -4.125 28.781 -10.875 40.06 -22.438 c 16.563 -17.03 23.969 -38.34 21.563 -62.12 c -2.063 -20.469 -11.906 -38.813 -28.594 -53.41 c -1.875 -1.656 -3.406 -3.375 -3.406 -3.813 c 0 -1.469 4.625 -7.906 6.094 -8.469 c 2.906 -1.125 16.219 11.531 22.75 21.594 c 5.438 8.406 10.563 19.563 12.938 28.16 c 1.75 6.438 1.906 8.844 1.563 24.938 c -0.344 17.813 -0.344 17.844 -3.594 26.594 c -9.406 25.469 -27.875 44.875 -52.47 55.22 c -6.188 2.594 -18.219 5.406 -23.375 5.438 l -3.844 0.031"/><path d="m 110.28 193.78 c -2.969 -0.938 -5.875 -2.156 -6.531 -2.688 c -1.5 -1.25 -0.219 -5.03 3.063 -8.813 l 2.469 -2.875 l 5.438 1.375 c 7.03 1.781 20.13 1.844 27.969 0.125 c 6.03 -1.313 6.25 -1.281 8.03 0.594 c 1 1.094 2.625 3.469 3.563 5.344 l 1.75 3.375 l -2.531 1.313 c -8.688 4.469 -32.5 5.719 -43.22 2.25"/><path d="m 163.75 179.91 c -1.75 -2.75 -3.188 -5.25 -3.188 -5.563 c 0 -0.313 2.469 -3.313 5.5 -6.625 c 16.531 -18.19 20.406 -39.438 10.875 -59.781 c -6.75 -14.438 -20.719 -26.12 -34.969 -29.31 c -6.656 -1.5 -19.938 -1.25 -27.5 0.469 c -3.656 0.844 -7.219 1.281 -7.938 1 c -1.75 -0.656 -6.781 -8.625 -6.781 -10.688 c 0 -5.938 31.09 -9.938 46.28 -5.938 c 13.156 3.469 26.656 12.563 36.25 24.438 c 9.813 12.09 13.938 24 13.938 40.19 c 0.031 15.313 -2.969 26.06 -10.313 36.844 c -4.094 6.03 -12.594 15.438 -16.375 18.13 l -2.563 1.844"/></g><g fill="#f26c19" stroke="#f26c19"><path d="m 118.34 218.75 c -0.969 -0.219 -4.063 -0.813 -6.781 -1.344 c -28.28 -5.406 -52.31 -24.09 -64.938 -50.47 c -9.469 -19.813 -11.188 -42.563 -4.813 -64.47 c 1.063 -3.594 2.625 -7.188 3.531 -8 c 1.469 -1.344 1.906 -1.281 5.344 0.469 c 2.094 1.063 4.03 2.594 4.344 3.375 c 0.313 0.813 -0.375 5.188 -1.531 9.719 c -2.563 10.09 -3.438 26.719 -1.906 35.625 c 2.875 16.719 11.03 31.5 24.13 43.719 c 11.156 10.438 24.563 17.16 40.22 20.19 c 4.844 0.938 5.875 1.469 6.625 3.469 c 1.094 2.844 0.219 8.313 -1.281 8.156 c -0.625 -0.031 -1.938 -0.25 -2.938 -0.438"/><path d="m 88.5 183.06 c -1.406 -0.906 -5.156 -4.219 -8.375 -7.344 c -6.656 -6.531 -6.625 -6.813 1.438 -11.219 l 4.5 -2.438 l 12.188 11.563 l -2.938 5.125 c -1.625 2.813 -3.25 5.313 -3.625 5.531 c -0.375 0.25 -1.813 -0.313 -3.188 -1.219"/><path d="m 157.38 57.25 c -3 -1.156 -9.219 -2.969 -13.844 -4.03 c -9.125 -2.156 -10.188 -3.03 -10.188 -8.5 c 0 -5.188 0.688 -6.03 4.938 -6.03 c 7.719 0 28.813 6.688 31.906 10.09 c 1.281 1.406 1.344 2.094 0.406 4.313 c -1.5 3.594 -4.313 6.5 -6.219 6.375 c -0.844 -0.063 -4 -1.063 -7 -2.219"/></g><g fill="#eccc02" stroke="#eccc02"><path d="m 65.16 152.44 c -2.938 -6.875 -3.03 -7.563 -3.344 -21.344 c -0.375 -16.531 0.219 -19.531 6.75 -32.531 c 3.125 -6.281 5.938 -10.219 11.06 -15.594 c 9.406 -9.844 9.5 -9.875 13.09 -4.75 c 4.906 6.938 4.906 6.875 -1.563 14.469 c -7.594 8.938 -11 15.03 -13.188 23.656 c -2.656 10.313 -2.313 18.06 1.5 34.438 c 0.313 1.406 -0.656 2.5 -4.156 4.781 c -7.094 4.625 -6.781 4.719 -10.156 -3.125"/><path d="m 55.719 86.94 c -5.094 -3.125 -5.281 -3.906 -2.063 -8.844 c 4.594 -7.06 20.438 -22.281 27.531 -26.5 c 11.938 -7.06 30.906 -13.281 38.688 -12.719 c 3.313 0.219 4.03 0.656 4.75 2.75 c 0.563 1.531 0.563 3.75 0.031 5.875 c -0.75 3.063 -1.25 3.531 -4.469 4.219 c -24.03 5.156 -37.09 12.281 -51.719 28.22 c -4.375 4.781 -8.438 8.656 -9 8.656 c -0.563 0 -2.25 -0.75 -3.75 -1.656"/><path d="m 89.88 124.09 c -1.031 -0.656 -1.063 -1.594 -0.188 -5.25 c 1.5 -6.188 5.344 -12.594 10.969 -18.19 c 15.719 -15.688 40.531 -15.625 56.56 0.156 c 5.438 5.344 10.688 14.813 10.906 19.656 c 0.125 2.625 -0.188 3.063 -2.781 3.844 c -3.875 1.125 -6.844 -0.844 -9.188 -6.125 c -2.531 -5.75 -8.563 -11.875 -14.531 -14.813 c -4.375 -2.156 -6.219 -2.5 -12.844 -2.5 c -6.563 0 -8.469 0.375 -12.844 2.531 c -6.094 2.969 -10.625 7.719 -14.313 15 c -2.656 5.313 -4.25 6.5 -8.688 6.469 c -1 0 -2.375 -0.344 -3.063 -0.781"/><path d="m 81.72 177.97 c -4.063 -3.844 -7.375 -7.5 -7.375 -8.188 c 0 -1.375 4.313 -4.844 8.969 -7.188 l 3.094 -1.563 l 6.375 6.406 l 6.406 6.375 l -3.281 5.281 c -1.875 3.03 -4 5.375 -5.03 5.531 c -1.156 0.188 -4.25 -2.031 -9.156 -6.656"/></g><path d="m 120.75 144.75 c -16.594 -8.219 -10.594 -33.438 7.938 -33.438 c 5.531 0 8.844 1.156 12.25 4.344 c 5.688 5.344 7.469 13.75 4.281 20.594 c -4.25 9.281 -15.219 13.06 -24.469 8.5" fill="#f26b19" stroke="#f26b19"/><path d="m 120.97 168.5 c -7.5 -1.125 -17.06 -6.719 -22.375 -13.12 c -5.281 -6.344 -8.813 -13.313 -8.813 -17.469 c 0 -2.469 0.375 -2.938 2.75 -3.469 c 3.844 -0.844 6.438 1.125 9.375 7.156 c 3.219 6.5 10.844 13.531 17 15.563 c 3.406 1.156 6.625 1.438 12.03 1.156 c 11.563 -0.656 17.969 -4.688 24.344 -15.406 c 4.469 -7.531 6.563 -9.156 10.656 -8.344 c 2.813 0.563 2.906 0.719 2.344 3.875 c -2.094 11.344 -13.781 24.22 -25.875 28.5 c -5 1.75 -15.188 2.5 -21.438 1.563" fill="#f3551f" stroke="#f3551f"/></g></svg>