<svg xmlns="http://www.w3.org/2000/svg" viewBox="0 0 32 32"><path d="m 26.645 6.281 c 21.539 27.773 -31.19 37.13 -26.04 6.98 c 2.73 -11.992 18.05 -18.348 26.04 -6.98" fill="#4c091f"/><path d="m 7.758 23.23 c -0.57 -0.105 -1.113 -0.383 -1.543 -0.781 c -0.363 -0.34 -0.84 -0.707 -1.055 -0.816 c -0.531 -0.266 -1.637 -2.156 -2.102 -3.59 c -0.27 -0.824 -0.367 -1.551 -0.332 -2.43 c 0.047 -1.113 0.105 -1.281 0.52 -1.512 c 0.262 -0.145 0.727 -0.797 1.063 -1.488 c 0.809 -1.668 1.063 -1.941 1.73 -1.875 c 0.418 0.043 0.605 -0.047 0.762 -0.379 c 0.543 -1.129 2.01 -1.734 2.602 -1.066 c 0.32 0.367 1.457 0.906 2.422 1.148 c 0.227 0.059 0.414 0.184 0.414 0.281 c 0 0.094 0.227 0.172 0.508 0.176 c 0.91 0.004 1.305 0.219 1.602 0.875 c 0.703 1.578 0.043 2.395 -2.086 2.586 c -1.01 0.09 -1.363 0.047 -1.703 -0.207 c -1.035 -0.77 -2.648 -0.184 -3.613 1.316 c -0.715 1.113 -0.727 1.195 -0.242 1.641 c 0.391 0.352 0.496 1.117 0.188 1.324 c -0.535 0.348 0.211 1.367 1.512 2.074 c 0.598 0.324 1.109 0.375 3.965 0.375 c 1.805 0 3.469 0.055 3.699 0.121 c 0.984 0.281 0.066 1.246 -1.191 1.246 c -0.43 0 -1.391 0.211 -2.137 0.473 c -1.543 0.535 -3.688 0.754 -4.98 0.508" fill="#e51209"/><g fill="#fffbef"><path d="m 19.14 22.707 c 0 -0.117 0.09 -0.91 0.199 -1.77 c 0.109 -0.859 0.184 -1.578 0.164 -1.598 c -0.844 -0.113 -1.879 0.012 -2.781 -0.09 c -0.316 -0.039 -0.039 -0.148 -0.109 -0.355 c -0.043 -0.125 -0.059 -0.266 -0.043 -0.313 c 0.059 -0.145 0.48 -0.188 1.742 -0.172 c 0.453 0.063 0.984 -0.063 1.367 -0.078 c 0.207 -0.488 0.332 -1.363 0.367 -1.922 c 0.078 -1.289 0.164 -2.195 0.207 -2.238 c 0.344 0.398 0.547 0.75 0.859 1.227 l -0.008 0.781 c 0.016 0.695 -0.117 1.387 -0.145 2.074 c 0.012 0.012 0.918 0.039 1.789 0.094 c 0.871 0.059 1.656 0.031 1.781 0.055 c 0.285 0.047 0.797 0.016 0.273 0.332 c -0.664 0.406 0.016 0.199 -1.715 0.324 c -1.609 0.117 -2.227 0.066 -2.324 0.313 c -0.102 0.266 -0.25 0.883 -0.363 1.535 c -0.109 0.645 0.109 0.754 -0.602 1.406 l -0.656 0.602"/><path d="m 17.14 16.559 c 0.023 -0.133 0.379 -0.188 0.746 -0.121 c 0.359 0.07 1.07 1.113 1.07 1.438 c 0 0.148 0.23 0.152 -0.355 0.145 l -0.598 -0.004 c -0.293 -0.496 -0.68 -0.906 -0.863 -1.457"/><path d="m 18.922 16.453 c -0.195 -0.086 -0.695 -0.707 -1.047 -1.168 c -0.227 -0.301 -0.172 -0.379 0.309 -0.414 c 0.895 -0.066 0.652 0.066 1.035 0.516 c 0.32 0.383 0.59 0.844 0.59 1.031 c 0 0.246 -0.262 0.07 -0.887 0.035"/><path d="m 23.535 20.18 c -0.957 -0.066 -1.785 0.078 -1.832 0.031 c -0.031 -0.031 0.188 -0.391 0.23 -0.465 c 0.152 -0.289 0.094 -0.293 1.422 -0.355 l 1.273 -0.059 c 0.367 -0.305 1.484 -0.879 1.563 -1.258 c 0 -0.043 -0.234 -0.051 -0.699 -0.02 c -0.754 0.047 -2.977 0.082 -3.246 -0.023 c -0.246 -0.063 -0.113 -0.258 0.035 -0.387 c 0.109 -0.094 0.266 -0.223 0.344 -0.289 c 0.184 -0.148 0.148 -0.242 -0.152 -0.402 c -0.242 -0.129 -0.242 -0.129 -0.207 -0.453 c 0.059 -0.496 0.289 -1.344 0.398 -1.453 c 0.082 -0.078 0.387 -0.105 1.602 -0.141 c 1.43 -0.039 3.609 -0.016 3.906 0.047 c 0.328 0.063 0.211 0.484 -0.18 0.641 c -0.168 0.066 -0.465 0.098 -0.891 0.098 h -0.637 l -0.039 0.203 c -0.031 0.418 -0.113 0.859 -0.219 1.207 c 0.25 0.031 0.516 0.07 0.762 0.043 c 0.035 -0.02 0.016 -0.125 -0.043 -0.238 c -0.195 -0.379 -0.098 -0.953 0.16 -0.953 c 0.203 0 0.738 0.184 0.797 0.27 c 0.082 0.133 0.063 0.855 -0.027 0.98 c -0.133 0.18 -1.016 0.254 -2.449 0.203 c -1.238 -0.043 -1.625 -0.016 -1.5 0.105 c 0.113 0.113 1.145 0.188 2.59 0.188 h 1.441 v 0.152 c 0 0.242 -0.219 0.461 -0.809 0.82 c -0.301 0.18 -0.629 0.41 -0.727 0.508 c -0.355 0.266 -0.793 0.445 -1.113 0.652 c -0.863 0.453 -1.125 0.391 -1.754 0.348 m 0.313 -3.336 c 0.078 -0.078 0.109 -0.863 0.039 -1.047 c -0.059 -0.148 -0.262 -0.129 -0.379 0.039 c -0.117 0.164 -0.137 0.77 -0.035 0.961 c 0.078 0.141 0.258 0.164 0.375 0.047 m 1.563 -0.047 c 0.16 -0.16 0.223 -0.496 0.148 -0.785 c -0.047 -0.191 -0.086 -0.227 -0.273 -0.242 c -0.125 -0.012 -0.234 0.012 -0.266 0.059 c -0.074 0.125 -0.141 0.809 -0.094 0.961 c 0.055 0.172 0.313 0.176 0.484 0.008"/><path d="m 12.867 19.563 c 0.145 -0.258 0.301 -0.512 0.348 -0.566 c 0.16 -0.191 0.293 -0.523 0.301 -0.75 c 0.008 -0.188 -0.027 -0.262 -0.191 -0.387 c -0.254 -0.199 -0.309 -0.445 -0.172 -0.77 c 0.063 -0.145 0.129 -0.566 0.156 -0.984 c 0.063 -0.895 0.125 -1.016 0.586 -1.113 c 0.426 -0.094 2.25 -0.094 2.512 0 c 0.23 0.078 0.238 0.105 0.113 0.523 c -0.086 0.277 -0.234 1.199 -0.332 2.066 l -0.043 0.367 l -0.559 0.039 c -0.793 0.063 -0.906 0.09 -0.883 0.219 c 0.012 0.063 0.07 0.391 0.133 0.738 c 0.121 0.695 0.125 0.695 0.676 0.699 c 0.438 0.004 0.777 0.07 0.777 0.16 c 0 0.16 -0.34 0.227 -1.133 0.227 c -0.848 0 -1 -0.051 -1 -0.32 c 0 -0.164 -0.066 -0.324 -0.137 -0.324 c -0.031 0 -0.219 0.145 -0.414 0.324 c -0.328 0.293 -0.383 0.32 -0.676 0.32 h -0.32 m 1.68 -2.633 c 0.035 -0.094 0.059 -0.277 0.047 -0.402 c -0.016 -0.207 -0.039 -0.234 -0.223 -0.25 c -0.184 -0.02 -0.203 0 -0.242 0.199 c -0.063 0.336 0.066 0.598 0.301 0.621 c 0.027 0.004 0.082 -0.07 0.117 -0.168 m 1.117 0.02 c 0.051 -0.129 -0.063 -0.566 -0.16 -0.629 c -0.141 -0.09 -0.238 -0.066 -0.313 0.066 c -0.16 0.305 -0.027 0.652 0.254 0.652 c 0.102 0 0.199 -0.039 0.219 -0.09 m 0.16 -1.152 c 0.188 -0.188 0.02 -0.828 -0.219 -0.828 c -0.168 0 -0.289 0.527 -0.184 0.805 c 0.047 0.121 0.293 0.137 0.402 0.023 m -1.191 -0.176 c 0.137 -0.145 0.117 -0.449 -0.031 -0.543 c -0.059 -0.035 -0.18 -0.043 -0.273 -0.02 c -0.16 0.039 -0.172 0.07 -0.172 0.363 c 0 0.313 0.004 0.324 0.184 0.324 c 0.102 0 0.234 -0.055 0.293 -0.125"/><path d="m 10.488 20.01 c -0.023 -0.059 0.078 -0.492 0.219 -0.961 c 0.461 -1.52 0.5 -1.895 0.191 -1.938 c -0.324 -0.047 -0.148 -0.672 0.234 -0.855 c 0.168 -0.074 0.781 -0.176 1.563 -0.254 c 0.109 -0.012 0.133 0.031 0.148 0.305 c 0.023 0.363 0.008 0.379 -0.488 0.523 c -0.258 0.078 -0.344 0.137 -0.367 0.246 c -0.359 1.879 -0.438 2.445 -0.363 2.57 c 0.113 0.18 0.207 -0.035 0.457 -1.027 c 0.309 -1.242 0.484 -1.555 0.773 -1.371 c 0.078 0.051 0.074 0.188 -0.051 1.02 c -0.078 0.527 -0.172 1.137 -0.211 1.355 l -0.07 0.395 l -0.207 -0.047 c -0.113 -0.023 -0.266 -0.082 -0.336 -0.129 c -0.113 -0.07 -0.176 -0.059 -0.406 0.059 c -0.148 0.074 -0.441 0.156 -0.656 0.176 c -0.324 0.035 -0.395 0.023 -0.43 -0.066"/><path d="m 11.352 15.656 c -0.105 -0.105 -0.043 -0.348 0.121 -0.457 c 0.133 -0.086 0.32 -0.113 0.828 -0.113 l 0.652 -0.004 v 0.195 c 0 0.164 -0.035 0.203 -0.227 0.266 c -0.285 0.094 -1.313 0.18 -1.375 0.113"/><path d="m 15.699 18.953 c 0.027 -0.422 0.098 -0.598 0.234 -0.613 c 0.137 -0.016 0.223 0.133 0.25 0.445 c 0.035 0.336 0 0.422 -0.188 0.473 c -0.32 0.086 -0.324 0.078 -0.297 -0.305"/><path d="m 15.184 19.336 c -0.02 -0.023 -0.047 -0.238 -0.063 -0.48 c -0.02 -0.375 -0.012 -0.445 0.063 -0.5 c 0.133 -0.098 0.211 -0.074 0.301 0.09 c 0.109 0.203 0.105 0.609 -0.008 0.777 c -0.09 0.137 -0.23 0.188 -0.293 0.113"/></g><path d="m 8.01 22.965 c -0.504 -0.098 -0.984 -0.355 -1.367 -0.727 c -0.32 -0.316 -0.742 -0.656 -0.93 -0.758 c -0.473 -0.246 -1.449 -1.996 -1.863 -3.328 c -0.234 -0.766 -0.32 -1.438 -0.289 -2.254 c 0.043 -1.031 0.094 -1.188 0.457 -1.398 c 0.23 -0.137 0.641 -0.742 0.938 -1.383 c 0.719 -1.547 0.941 -1.801 1.531 -1.738 c 0.375 0.043 0.539 -0.043 0.676 -0.348 c 0.477 -1.051 1.781 -1.613 2.297 -0.992 c 0.289 0.34 1.293 0.844 2.145 1.066 c 0.199 0.055 0.363 0.168 0.363 0.258 c 0 0.09 0.203 0.16 0.449 0.164 c 0.809 0.004 1.156 0.203 1.418 0.813 c 0.621 1.461 0.039 2.223 -1.844 2.398 c -0.891 0.082 -1.207 0.043 -1.508 -0.195 c -0.914 -0.711 -2.34 -0.168 -3.191 1.223 c -0.633 1.035 -0.645 1.109 -0.215 1.52 c 0.344 0.328 0.438 1.039 0.164 1.23 c -0.473 0.324 0.188 1.27 1.34 1.926 c 0.523 0.301 0.98 0.344 3.504 0.348 c 1.598 0 3.066 0.051 3.27 0.109 c 0.871 0.262 0.059 1.156 -1.051 1.156 c -0.383 0 -1.23 0.199 -1.891 0.438 c -1.367 0.496 -3.262 0.699 -4.402 0.473" fill="#ffd600"/></svg>