<svg xmlns="http://www.w3.org/2000/svg" viewBox="0 0 32 32"><path d="m 28.598 23.742 c 15.746 -26.32 -34.473 -33.914 -27.824 -3.773 c 2.832 12.445 20.602 17.691 27.824 3.773" fill="#fffacd"/><path d="m 13.418 25.594 c -2.098 -0.301 -3.832 -1.141 -5.402 -2.617 c -1.949 -1.836 -2.996 -4.25 -2.996 -6.918 c 0 -4.191 2.742 -7.883 6.789 -9.137 c 1.52 -0.469 2.684 -0.602 3.98 -0.445 c 2.172 0.254 3.887 0.973 5.504 2.305 c 0.336 0.277 0.523 0.508 0.523 0.645 c 0 0.148 -0.953 1.145 -3.18 3.324 c -2.066 2.023 -3.18 3.184 -3.18 3.309 c 0 0.129 1.113 1.285 3.18 3.309 c 2.113 2.07 3.18 3.18 3.18 3.313 c 0 0.375 -1.266 1.359 -2.535 1.977 c -0.98 0.477 -1.863 0.746 -3.082 0.938 c -1.086 0.152 -2.02 0.105 -2.781 0 m 1.766 -7.797 c 0.203 -0.035 0.371 -0.086 0.371 -0.121 c 0 -0.031 -0.246 -0.363 -0.547 -0.73 c -0.301 -0.367 -0.547 -0.746 -0.547 -0.844 c 0 -0.098 0.715 -0.859 1.605 -1.715 c 2.207 -2.121 4.656 -4.695 4.648 -4.887 c -0.008 -0.223 -1.066 -1.07 -1.805 -1.445 c -2.57 -1.301 -5.457 -1.313 -8.07 -0.027 c -1.164 0.57 -2.063 1.246 -2.688 2.023 c -0.469 0.586 -1.141 1.754 -1.141 1.988 c 0 0.074 0.172 0.574 0.383 1.117 c 0.91 2.355 2.695 3.91 5.176 4.508 c 0.762 0.184 1.934 0.242 2.617 0.133 m -2.918 -3.859 c -0.184 -0.121 -0.379 -0.344 -0.434 -0.496 c -0.086 -0.238 -0.066 -0.305 0.172 -0.504 c 0.406 -0.301 0.18 -0.465 -0.125 -0.664 c -0.469 -0.301 -0.5 -0.512 -0.141 -0.93 c 0.5 -0.578 1.586 -0.516 2.023 0.422 c 0.203 0.43 0.242 0.73 0.203 1.211 c -0.035 0.492 -0.406 0.766 -0.633 0.957 c -0.422 0.258 -0.789 0.18 -1.066 0.004 m 8.398 3.785 c -0.707 -0.305 -1.152 -1.219 -0.992 -2.055 c 0.074 -0.387 0.543 -0.961 0.961 -1.172 c 0.43 -0.215 1.262 -0.176 1.727 0.082 c 1.164 0.645 1.137 2.48 -0.043 3.063 c -0.504 0.25 -1.18 0.281 -1.652 0.082 m 1.57 -1.117 c 0.516 -0.469 0.313 -1.105 -0.047 -1.434 c -0.41 -0.367 -0.789 -0.426 -1.266 -0.184 c -0.387 0.195 -0.598 0.512 -0.598 0.902 c 0 0.633 0.414 0.984 1.168 0.992 c 0.328 0.004 0.492 -0.059 0.742 -0.277 m 2.969 1.082 c -0.188 -0.094 -0.48 -0.336 -0.648 -0.543 c -0.27 -0.332 -0.305 -0.445 -0.305 -1.031 c 0 -0.57 0.039 -0.699 0.285 -1.02 c 0.414 -0.531 0.813 -0.738 1.434 -0.738 c 1.094 0 1.73 0.59 1.793 1.664 c 0.031 0.566 0.004 0.695 -0.227 1.055 c -0.457 0.711 -1.559 1 -2.332 0.613 m 1.563 -1.043 c 0.551 -0.457 0.492 -1.23 -0.121 -1.605 c -0.543 -0.328 -1.23 -0.195 -1.594 0.313 c -0.176 0.246 -0.203 0.777 -0.051 1.051 c 0.277 0.512 1.277 0.645 1.766 0.242" fill="#fb9a09"/></svg>