<svg xmlns="http://www.w3.org/2000/svg" viewBox="0 0 32 32"><path d="m 26.02 28.26 c -18.844 14.688 -38.41 -21.895 -15.08 -27.24 c 14.695 -5.484 29.05 16.355 15.08 27.24" fill="#0b4751"/><g fill="#fff" stroke="#fff" stroke-width="1.222" transform="scale(0.125)"><path d="m 66.72 169.69 c -2.969 -0.75 -4.375 -2.688 -4.375 -6.03 c 0 -2.625 0.063 -2.719 1.906 -2.719 c 2.344 0 4.344 0.969 4.344 2.125 c 0 0.469 0.5 1.469 1.125 2.25 c 2.219 2.75 5.219 -0.125 4.219 -4.063 c -0.219 -0.938 -2.281 -3 -5.344 -5.313 c -5.781 -4.406 -6.875 -6.125 -6.875 -10.938 c 0 -4.313 1.5 -6.094 5.969 -7.06 c 6.719 -1.406 14.313 2.188 13.06 6.156 c -0.594 1.875 -3.875 1.563 -6.781 -0.656 c -2.75 -2.063 -4.344 -1.781 -5.03 1 c -0.531 2.156 0.813 4.156 4.5 6.688 c 1.594 1.094 3.875 2.875 5.094 3.969 c 2.188 1.969 2.219 2.063 2.219 7 c 0 6.75 -0.844 7.688 -7.281 7.938 c -2.5 0.125 -5.563 -0.031 -6.75 -0.344"/><path d="m 91.94 169.41 c -4.625 -2.031 -5.875 -7.219 -4.75 -20.12 c 0.75 -8.531 1.469 -9.844 6.156 -11.188 c 5.969 -1.75 11.188 0.156 13.344 4.906 c 1.219 2.688 1.594 7 0.719 8.375 c -0.25 0.438 -2.531 1.063 -5.03 1.438 c -5 0.688 -6.594 1.344 -7.188 2.844 c -0.625 1.625 -0.438 8.375 0.25 9.688 c 1.438 2.656 4.531 0.75 5.719 -3.563 c 0.781 -2.938 1.281 -3.281 3.844 -2.781 c 1.781 0.375 2 0.656 2.156 2.875 c 0.188 3.03 -1.469 6.531 -3.625 7.625 c -2.031 1.031 -9.156 0.969 -11.594 -0.094 m 7.938 -21.75 c 1 -3.844 -1.625 -6.906 -4.156 -4.813 c -1.125 0.938 -1.188 5.063 -0.125 6.125 c 1.344 1.344 3.75 0.594 4.281 -1.313"/><path d="m 118.09 169.56 c -1.594 -0.781 -1.813 -2.313 -2.375 -15.5 c -0.219 -5.469 -0.156 -7.875 -1.375 -9.5 c -2.688 -3.594 -1.031 -4.938 0.313 -7.688 c 2.5 -5.156 6.594 -5.25 9.406 -0.188 c 1.531 2.719 2.75 3.656 0.438 7.688 c -1.938 3.438 -1.063 20.25 0.156 21.719 c 0.469 0.563 0.75 1.656 0.625 2.438 c -0.156 1.25 -0.594 1.469 -3 1.563 c -1.406 -0.063 -2.906 -0.063 -4.188 -0.531"/><path d="m 134.91 170.06 c -1.969 -1.5 -3.281 -5.375 -3.281 -18.844 v -13.406 h 6.75 l 0.406 10.156 c 0.219 5.594 0.563 11.5 0.75 13.13 c 0.563 4.719 3 6.281 5 3.188 c 0.906 -1.375 1.125 -3.688 1.344 -14.344 l 0.281 -12.75 h 6.875 l -0.438 15.781 c -0.25 8.656 0.063 13.13 0.188 13.375 c 3.125 6.313 -16.719 4.594 -17.875 3.719"/><path d="m 161.84 174.81 c -1.219 -0.813 -1.594 -8.094 -1.125 -22.313 c 0.969 -14.688 -4.063 -13.656 9.563 -14.25 c 7.656 -0.344 9.25 -0.25 10.03 0.531 c 0.781 0.781 1 3.313 1.156 13.25 c 0.313 18.938 0.063 19.625 -7.094 18.219 c -4.625 -0.938 -5.625 -0.469 -6.281 2.906 c -0.375 2 -0.531 2.125 -2.969 2.125 c -1.438 0 -2.906 -0.219 -3.281 -0.469 m 12.09 -10.156 c 1.156 -2.188 0.813 -19.969 -0.406 -21.438 c -1.063 -1.281 -2.781 -1.313 -3.813 -0.094 c -1.969 2.375 -1.938 20.16 0.031 22.5 c 1.125 1.375 3.219 0.906 4.188 -0.969"/><path d="m 67.22 118.69 c -3.563 -1.469 -4.813 -4.656 -5.594 -14.375 c -0.875 -10.688 -0.469 -18.813 1.125 -21.531 c 1.781 -3.125 5.219 -4.563 10.844 -4.563 c 7.844 0 10.03 2.313 10.938 11.438 l 0.438 4.469 h -3.813 c -4.25 0 -4.03 0.281 -4.719 -5.813 c -0.438 -3.906 -1.313 -5.438 -3.125 -5.438 c -2.813 0 -3.156 1.281 -3.344 13.06 c -0.219 12.625 0.281 17.406 1.938 18.406 c 0.938 0.563 1.375 0.406 2.594 -0.969 c 0.781 -0.938 1.656 -2.844 1.875 -4.25 c 0.594 -3.5 1.688 -4.375 5.438 -4.375 h 3.125 l -0.406 3.281 c -0.656 4.969 -1.5 7.125 -3.531 8.844 c -3.375 2.844 -9.406 3.656 -13.781 1.813"/><path d="m 93.28 116.38 c -1.906 -1.906 -2.406 -5.875 -2.125 -16.719 c 0.188 -5.969 0.5 -8.75 1.156 -9.781 c 3.156 -4.969 13.625 -5.188 17.406 -0.375 c 1.344 1.719 1.375 2.156 1.188 13.563 c -0.656 4.531 1.781 10.09 -1.938 13.281 c -1.594 1.375 -2.281 1.5 -8 1.5 c -5.719 0 -6.344 -0.125 -7.688 -1.469 m 10.09 -2.938 c 0.844 -1.625 1.125 -16.281 0.406 -19.906 c -0.531 -2.625 -2.906 -3.875 -4.469 -2.313 c -1.344 1.344 -1.875 13.156 -0.813 18.813 c 0.938 5.188 3.188 6.75 4.875 3.406"/><path d="m 120.41 86.63 h 9.406 c 4.03 0.438 8.563 -0.313 10.281 3.844 c 0.688 1.625 0.906 3.5 0.906 13.156 c 0 6.969 -0.219 12.969 -0.469 13.375 c -0.25 0.406 -1.906 0.813 -3.656 0.938 l -3.188 0.219 l -0.375 -12.344 c -0.219 -6.813 -0.719 -12.906 -1.063 -13.594 c -0.813 -1.5 -2.844 -1.594 -3.406 -0.125 c -0.406 1.094 -1.5 17.06 -1.563 22.75 v 2.906 c -2.563 0.125 -5.094 0.281 -7.656 0.406 c 1.063 -10.75 0.781 -22.563 0.781 -31.531"/><path d="m 148.66 116.59 l -1.406 -0.563 v -37.5 c 2.688 0 5.406 0 8.125 0 v 3.03 c 0 3.063 -0.188 12.25 0.375 12.813 c 0.156 0.156 2.969 -4.125 4.781 -6.06 c 3.188 -3.406 6.094 -3.813 6.938 -2.438 c 0.25 0.375 -0.469 4.156 -1.719 7.25 l -3.063 5.656 l 2.469 8.219 c 1.313 4.313 2.375 7.438 2.531 8.188 c 0.281 1.281 0.063 1.406 -2.219 1.406 c -3.688 0 -4.313 -0.406 -5.406 -3.719 c -1.063 -3.188 -3.03 -5.563 -3.719 -4.438 c -0.781 2.563 -0.75 5.063 -1.906 7.531 c -1.156 0.969 -4.219 1.281 -5.781 0.625"/><path d="m 174.88 121.81 c -0.594 -0.25 -0.438 -0.844 0.531 -2.219 c 1.219 -1.656 2.969 -2.375 2.594 -6.656 c -0.219 -2.625 -2.969 -9.75 -4.125 -15.875 l -2.063 -11.125 l 2.844 0.188 c 3.531 0.25 4.063 1.156 5.03 8.625 c 0.875 6.531 1.719 9.375 2.844 9.375 c 1.469 0 2.188 -2.25 3.125 -9.75 c 0.5 -3.969 1.063 -7.469 1.25 -7.781 c 0.656 -1.063 4.563 -0.656 5.188 0.5 c 0.688 1.344 -0.063 8.5 -2.125 20.719 c -1.781 10.531 -2.875 13.313 -5.563 13.875 c -2.313 0.469 -8.469 0.563 -9.531 0.125"/></g></svg>