<svg xmlns="http://www.w3.org/2000/svg" viewBox="0 0 32 32"><path d="m 0.371 19.648 c 1.984 12.918 19.609 16.375 27.387 7.152 c 6.852 -6.848 5.145 -19.961 -3.254 -24.457 c -9.652 -6.02 -23.715 1.422 -24.48 13.395 c -0.078 1.313 0.031 2.637 0.348 3.91" fill="#7889d6"/><path d="m 11.77 24.18 c -0.996 -0.5 -2.73 -2.141 -3.172 -3.01 c -0.594 -0.879 -0.844 -2.027 -1.168 -2.828 c -0.313 -1.723 0 -3.719 0.488 -4.996 c 0.812 -2.094 2.945 -4.184 5.04 -4.926 c 2.289 -0.824 4.578 -0.652 6.414 0 c 2.406 0.855 4.672 3.309 5.313 5.758 c 0.559 2.863 -0.113 5.332 -0.953 6.992 c -1.766 2.297 -3.395 3.297 -5.824 4.03 c -2.586 0.262 -3.934 0.086 -6.137 -1.02 m 0.367 -1.395 c 0.035 -0.504 0.355 -0.824 0.879 -0.879 c 0.441 -0.051 0.73 0.02 2.137 0.512 c 1.426 0.504 2.582 0.664 3.898 0.547 c 0.973 -0.086 1.973 -0.332 2.422 -0.594 c 0.371 -0.219 1.145 -1.133 1.145 -1.355 c 0 -0.027 -0.16 0.023 -0.359 0.105 c -0.863 0.363 -1.535 0.453 -2.926 0.398 c -2.742 -0.109 -4.422 -0.57 -7.367 -2.02 c -0.559 -0.277 -1.492 -0.539 -1.91 -0.539 c -0.398 0 -1.152 0.289 -1.223 0.465 c -0.07 0.184 0.645 1.469 1.18 2.113 c 0.57 0.684 1.766 1.688 1.965 1.652 c 0.098 -0.02 0.145 -0.137 0.16 -0.41 m 11.43 -3.477 c 0.18 -0.297 0.418 -1.281 0.352 -1.449 c -0.023 -0.07 -0.215 -0.168 -0.418 -0.219 c -0.207 -0.051 -0.668 -0.246 -1.027 -0.438 c -0.816 -0.43 -3.406 -2.344 -4.543 -3.352 c -1.492 -1.328 -2.641 -2.242 -3.211 -2.563 c -0.625 -0.355 -1.672 -0.648 -2.281 -0.645 c -0.648 0.008 -1.602 0.238 -1.898 0.461 c -0.734 0.551 -2.098 2.867 -1.684 2.867 c 0.039 0 0.16 -0.07 0.273 -0.156 c 0.109 -0.086 0.41 -0.246 0.664 -0.355 c 0.387 -0.164 0.594 -0.195 1.223 -0.184 c 0.797 0.008 1.293 0.145 2.117 0.578 c 0.434 0.227 1.996 1.348 3.398 2.438 c 2.094 1.625 4.164 2.734 5.547 2.973 c 0.391 0.066 0.793 0.156 0.898 0.199 c 0.32 0.125 0.441 0.094 0.59 -0.156 m 0.273 -4.5 c 0.074 -0.121 -0.355 -1.289 -0.742 -1.996 c -0.875 -1.617 -2.398 -2.906 -4.191 -3.543 c -0.578 -0.207 -1.5 -0.41 -2.285 -0.5 c -0.5 -0.059 -1.887 0.074 -2.457 0.238 c -0.695 0.199 -0.449 0.27 0.922 0.27 c 1.492 0 2.02 0.113 2.945 0.633 c 0.273 0.152 0.598 0.332 0.723 0.398 c 0.512 0.277 1.473 1.246 2.617 2.633 c 0.922 1.125 1.301 1.52 1.625 1.707 c 0.43 0.242 0.75 0.305 0.844 0.16" fill="#d6afff"/><path d="m 14.06 27.352 c -4.438 -0.895 -7.871 -4.496 -8.602 -9.02 c -0.199 -1.25 -0.078 -3.363 0.266 -4.578 c 0.684 -2.422 2.332 -4.762 4.324 -6.129 c 4.215 -2.902 9.926 -2.375 13.574 1.25 c 5.594 5.555 3.684 14.996 -3.629 17.922 c -1.684 0.672 -4.172 0.902 -5.934 0.551 m 4.898 -1.418 c 1.734 -0.551 2.844 -1.25 4.305 -2.711 c 0.82 -0.824 1.078 -1.168 1.547 -2.086 c 1.516 -3.039 1.297 -6.426 0.105 -8.805 c -1.016 -2.02 -3.01 -3.879 -4.98 -4.652 c -2.359 -0.77 -4.539 -1.047 -6.637 -0.359 c -3.262 1.074 -5.641 3.473 -6.652 6.703 c -0.41 3 -0.438 4.672 0.855 7.223 c 1.199 2.066 3.258 3.789 5.441 4.547 c 2.219 0.594 3.988 0.777 6.02 0.141" fill="#2567ff"/></svg>