<svg xmlns="http://www.w3.org/2000/svg" xmlns:xlink="http://www.w3.org/1999/xlink" viewBox="0 0 32 32"><defs><g id="3" clip-path="url(#2)"><path d="m 15.797 8.941 c -0.156 0 -0.313 0.012 -0.465 0.035 c -0.004 3.875 0 10.117 0 14.578 h 5.473 v -3.047 c 0.016 -0.129 0.035 -0.258 0.043 -0.359 l 0.039 -0.418 l 0.344 -0.152 l 0.34 -0.152 l 0.496 0.449 c 0.273 0.246 0.551 0.445 0.617 0.445 c 0.164 0 1.324 -1.328 1.324 -1.516 c 0 -0.078 -0.176 -0.395 -0.391 -0.699 l -0.395 -0.563 l 0.125 -0.32 c 0.066 -0.176 0.141 -0.344 0.16 -0.371 c 0.023 -0.023 0.344 -0.102 0.715 -0.172 l 0.676 -0.121 l 0.02 -1.031 c 0.008 -0.617 -0.008 -1.059 -0.047 -1.102 c -0.031 -0.035 -0.352 -0.117 -0.711 -0.176 l -0.648 -0.109 l -0.145 -0.398 l -0.145 -0.395 l 0.395 -0.566 c 0.215 -0.309 0.391 -0.609 0.391 -0.664 c 0 -0.121 -1.219 -1.535 -1.32 -1.535 c -0.039 0 -0.313 0.203 -0.609 0.453 l -0.535 0.453 l -0.328 -0.152 l -0.316 -0.148 c -0.004 0 -0.008 0 -0.012 -0.004 l -0.098 -0.727 c -0.059 -0.402 -0.133 -0.77 -0.168 -0.82 c -0.051 -0.07 -0.484 -0.102 -0.918 -0.098 c -0.43 0.004 -0.863 0.039 -0.914 0.109 c -0.039 0.051 -0.102 0.348 -0.152 0.691 c -0.734 -0.891 -1.762 -1.395 -2.84 -1.398" fill="#f2f2f2"/><path d="m 15.488 8.977 c -1.07 0.148 -2.039 0.785 -2.676 1.766 c -0.422 -0.176 -0.867 -0.266 -1.32 -0.266 c -2.148 0 -3.891 1.957 -3.891 4.375 c 0 1.766 0.945 3.355 2.391 4.04 v 4.668 h 5.496" fill="#f2f2f2"/></g><clipPath id="2"><path d="M 0,0 H32 V32 H0 z"/></clipPath><filter id="0" filterUnits="objectBoundingBox" x="0" y="0" width="32" height="32"><feColorMatrix type="matrix" in="SourceGraphic" values="0 0 0 0 1 0 0 0 0 1 0 0 0 0 1 0 0 0 1 0"/></filter><mask id="1"><g filter="url(#0)"><path fill-opacity="0.612" d="M 0,0 H32 V32 H0 z"/></g></mask></defs><path d="m 5.566 6.05 c 12.945 -16.813 36.32 5.836 21.387 20.715 c -12.852 14.906 -37.789 -6.402 -21.387 -20.715" fill="#cf4f4f"/><use xlink:href="#3" mask="url(#1)"/></svg>