<svg xmlns="http://www.w3.org/2000/svg" xmlns:xlink="http://www.w3.org/1999/xlink" viewBox="0 0 32 32"><defs><g id="3" clip-path="url(#2)"><path d="m 60.936 176.54 c -4.063 -1.688 -4.063 -1.719 -4 -49.594 l 0.063 -44.937 l 1.906 -1.563 c 2.875 -2.313 7.781 -2.031 10.937 0.625 c 1.438 1.188 2.594 2.625 2.594 3.188 c 0 0.563 0.5 1.719 1.094 2.531 c 1.031 1.375 1.438 1.219 5.875 -2.406 c 3.813 -3.094 10 -6.344 12.09 -6.344 c 0.156 0 0.313 3.531 0.313 7.875 v 7.906 l -3.469 0.531 c -5.406 0.875 -7.906 2.625 -11.469 7.969 l -3.313 4.969 l -0.594 30.625 c -0.313 16.844 -0.813 31.875 -1.063 33.406 c -0.781 4.25 -6.625 7.06 -10.969 5.219" transform="matrix(0.125 0 0 0.125 -0.105 0.316)" fill="#d81f53" stroke="#d7164f" stroke-width="1.684"/></g><g id="6" clip-path="url(#5)"><path d="m 183.97 176.57 c -0.906 -0.375 -2.375 -1.469 -3.25 -2.437 c -1.438 -1.625 -1.656 -4.125 -2.313 -28.938 c -1 -37.906 -1.188 -40.12 -4.125 -44.75 c -3 -4.719 -5.656 -6.5 -10.5 -7.06 l -3.781 -0.406 v -15.12 l 3.156 0.531 c 10.5 1.813 12.13 2.406 17 6.06 c 5.094 3.844 12.313 12.531 13.13 15.781 c 0.219 1 0.313 17.875 0.188 37.531 l -0.219 35.75 l -2.875 1.937 c -3.063 2.063 -3.781 2.188 -6.406 1.125" transform="matrix(0.125 0 0 0.125 -0.105 0.316)" fill="#08aff2" stroke="#08aff2" stroke-width="1.684"/></g><clipPath id="2"><path d="M 0,0 H32 V32 H0 z"/></clipPath><clipPath id="5"><path d="M 0,0 H32 V32 H0 z"/></clipPath><filter id="0" filterUnits="objectBoundingBox" x="0" y="0" width="32" height="32"><feColorMatrix type="matrix" in="SourceGraphic" values="0 0 0 0 1 0 0 0 0 1 0 0 0 0 1 0 0 0 1 0"/></filter><mask id="4"><g filter="url(#0)"><path fill-opacity="0.949" d="M 0,0 H32 V32 H0 z"/></g></mask><mask id="1"><g filter="url(#0)"><path fill-opacity="0.949" d="M 0,0 H32 V32 H0 z"/></g></mask></defs><path d="m 0.254 16.09 c -2.402 21.25 31.992 20.953 31.582 -0.379 c 1.133 -19.844 -33.453 -21.633 -31.582 0.379" fill="#3d8fdf"/><path d="m 7.438 22.414 c -0.512 -0.277 -0.504 -0.172 -0.504 -6.094 c 0 -3.391 0.043 -5.703 0.109 -5.824 c 0.059 -0.105 0.258 -0.258 0.445 -0.332 c 0.625 -0.254 1.395 0.109 1.512 0.715 c 0.039 0.207 0.137 0.379 0.211 0.379 c 0.078 0 0.355 -0.219 0.621 -0.48 c 0.391 -0.387 0.645 -0.527 1.324 -0.723 c 0.902 -0.266 1.188 -0.254 2.43 0.082 c 0.598 0.16 0.789 0.285 1.516 0.992 l 0.828 0.813 l 0.457 -0.496 c 1.113 -1.203 2.379 -1.613 4.168 -1.352 c 0.551 0.082 1.16 0.227 1.355 0.324 c 0.586 0.297 1.641 1.332 1.934 1.895 l 0.277 0.531 v 9.168 l -0.313 0.262 c -0.172 0.148 -0.414 0.266 -0.539 0.266 c -0.34 0 -0.82 -0.281 -0.965 -0.566 c -0.09 -0.176 -0.148 -1.461 -0.18 -4.09 c -0.027 -2.109 -0.102 -4.047 -0.16 -4.305 c -0.129 -0.547 -0.629 -1.207 -1.098 -1.445 c -0.398 -0.199 -1.582 -0.203 -2.285 -0.008 c -0.531 0.145 -1.363 0.891 -1.605 1.434 c -0.078 0.172 -0.133 1.703 -0.156 4.215 c -0.027 2.746 -0.078 4.02 -0.172 4.199 c -0.32 0.617 -1.258 0.746 -1.773 0.246 c -0.375 -0.367 -0.348 -0.082 -0.328 -3.676 c 0.012 -2.859 -0.109 -4.426 -0.418 -5.332 c -0.168 -0.496 -0.27 -0.625 -0.699 -0.859 c -0.434 -0.234 -0.641 -0.273 -1.512 -0.27 c -1.402 0.004 -1.906 0.234 -2.422 1.105 l -0.379 0.645 l -0.055 4.051 c -0.031 2.23 -0.094 4.109 -0.137 4.176 c -0.113 0.172 -0.801 0.48 -1.055 0.477 c -0.117 0 -0.309 -0.055 -0.434 -0.121" fill="#fdc712"/><use xlink:href="#3" mask="url(#1)"/><use xlink:href="#6" mask="url(#4)"/></svg>