<svg xmlns="http://www.w3.org/2000/svg" viewBox="0 0 32 32"><path d="m 31.629 19.648 c -1.984 12.918 -19.609 16.375 -27.391 7.152 c -6.848 -6.848 -5.145 -19.961 3.258 -24.457 c 9.652 -6.02 23.711 1.422 24.48 13.395 c 0.078 1.313 -0.035 2.637 -0.348 3.91" fill="#f4f4f4"/><path d="m 13.711 23.391 l -1.922 -1.109 v -1.039 c 0 -0.57 -0.027 -1.105 -0.059 -1.191 c -0.09 -0.23 -0.324 -0.184 -0.949 0.191 c -0.313 0.184 -0.738 0.422 -0.945 0.527 l -0.371 0.188 l -1.977 -1.133 l -1.977 -1.129 l -0.027 -2.141 c -0.016 -1.555 0.008 -2.137 0.086 -2.137 c 0.063 0 0.957 0.48 1.992 1.07 c 1.313 0.746 1.934 1.047 2.059 1 c 0.094 -0.035 1.059 -0.574 2.145 -1.191 c 1.563 -0.891 1.969 -1.164 1.945 -1.305 c -0.016 -0.117 -0.367 -0.375 -0.973 -0.719 l -0.949 -0.539 v -0.992 c 0 -0.914 0.012 -0.984 0.168 -0.902 c 0.094 0.051 0.977 0.551 1.965 1.109 c 0.984 0.563 1.816 1.02 1.848 1.02 c 0.031 0 0.934 -0.496 2 -1.105 l 1.945 -1.105 l 0.027 0.883 c 0.016 0.484 0.008 0.934 -0.016 1 c -0.027 0.063 -0.465 0.359 -0.977 0.66 c -0.613 0.355 -0.934 0.598 -0.934 0.707 c 0 0.117 0.574 0.496 1.875 1.242 c 1.027 0.59 1.988 1.125 2.133 1.188 c 0.246 0.109 0.387 0.047 2.215 -0.996 l 1.953 -1.109 v 4.387 l -1.988 1.125 l -1.984 1.129 l -0.938 -0.547 c -0.512 -0.297 -1.01 -0.527 -1.102 -0.512 c -0.145 0.027 -0.176 0.191 -0.219 1.211 l -0.047 1.176 l -1.945 1.105 c -1.07 0.609 -1.992 1.105 -2.043 1.098 c -0.055 -0.004 -0.965 -0.508 -2.02 -1.117 m 4.258 -4.48 c 1.203 -0.695 2.043 -1.234 2.043 -1.32 c 0 -0.152 -3.977 -2.496 -4.234 -2.5 c -0.16 0 -3.949 2.141 -4.18 2.363 c -0.125 0.121 -0.125 0.156 0 0.277 c 0.227 0.219 4.02 2.359 4.18 2.359 c 0.082 0 1.066 -0.531 2.191 -1.18" fill="#344555"/></svg>