<svg xmlns="http://www.w3.org/2000/svg" viewBox="0 0 32 32"><path d="m 22.855 0.387 c -46.02 -3.18 -11.527 58.21 8.02 17.785 c 2.695 -6.227 0.727 -15.516 -8.02 -17.785" fill="#d88e04"/><path d="m 19.359 10.91 c -2.531 0 -4.582 1.969 -4.582 4.395 c 0.113 2.395 -0.977 5.148 -0.703 7.77 c 0 0 1.504 -0.016 3.523 -0.762 v 0.086 l 0.68 -0.219 c 0.012 0.078 0.023 0.152 0.023 0.219 c 0 0.676 -0.703 2.027 -0.703 2.027 c 0 0 0 0.676 2.113 0.676 c 2.113 0 2.113 -0.676 2.113 -0.676 c 0 0 -0.16 -0.559 -0.289 -1 c 0.355 -0.215 0.613 -0.484 0.777 -0.699 c 0.477 0.582 0.922 1.027 0.922 1.027 c 0 0 -0.793 -3.488 -0.699 -5.281 c 0.754 0.367 1.883 0.895 2.813 1.227 c -0.484 -0.984 -0.703 -1.352 -1.406 -2.703 c 0.723 0.352 1.406 0 1.406 0 l -1.406 -2.027 c 0 -2.703 -2.668 -4 -4.582 -4.055 m 1.98 10.293 c 0.094 0.215 0.203 0.434 0.34 0.648 c -0.18 -0.074 -0.367 -0.129 -0.559 -0.129 h -0.137 c -0.047 -0.125 -0.09 -0.242 -0.137 -0.363" fill-opacity="0.102"/><path d="m 18.656 10.234 c -2.531 0 -4.582 1.969 -4.582 4.395 c 0.113 2.395 -0.977 5.148 -0.707 7.77 c 0 0 3.527 0 7.05 -2.703 c 0 1.352 2.113 3.379 2.113 3.379 c 0 0 -0.797 -3.488 -0.703 -5.281 c 0.758 0.367 1.883 0.895 2.816 1.227 c -0.484 -0.984 -0.703 -1.352 -1.41 -2.703 c 0.723 0.352 1.41 0 1.41 0 l -1.41 -2.027 c 0 -2.703 -2.664 -4 -4.578 -4.055" fill="#5c4521"/><path d="m 19.711 19.695 c 0.707 1.352 1.41 4.055 1.41 4.055 c 0 0 0 0.676 -2.113 0.676 c -2.113 0 -2.113 -0.676 -2.113 -0.676 c 0 0 0.703 -1.352 0.703 -2.027 c 0 -0.676 -0.703 -2.027 -0.703 -2.027" fill="#f9f9f9"/><path d="m 19.01 20.371 l 0.703 0.676 h 0.707 c 0.703 0 1.406 0.676 1.406 0.676 c 0 0 -0.703 1.352 -2.113 1.352 c -1.41 0 -2.113 -2.703 -2.113 -2.703" fill="#ccc"/><path d="m 19.711 19.02 l 1.41 1.352 l -4.227 1.352 v -3.379" fill="#2d2d2d"/><path d="m 16.188 15.641 c 0 0 0 -2.027 2.82 -2.027 c 2.816 0 2.816 2.027 2.816 2.027 c 0 0 0 3.379 -2.816 3.379 c -2.82 0 -2.82 -3.379 -2.82 -3.379" fill="#fffbca"/><g fill="#2d2d2d"><path d="m 17.598 15.98 c 0 -0.563 0.316 -1.016 0.703 -1.016 c 0.391 0 0.707 0.453 0.707 1.016 c 0 0.559 -0.316 1.012 -0.707 1.012 c -0.387 0 -0.703 -0.453 -0.703 -1.012"/><path d="m 20.418 15.98 c 0 -0.563 0.156 -1.016 0.352 -1.016 c 0.195 0 0.352 0.453 0.352 1.016 c 0 0.559 -0.156 1.012 -0.352 1.012 c -0.195 0 -0.352 -0.453 -0.352 -1.012"/></g><g fill="#5c4521"><path d="m 15.484 16.316 c 3.523 -1.352 4.934 -1.352 7.05 -0.676 c -0.402 -0.676 -2.113 -2.703 -2.113 -2.703 h -4.23 c 0 0 0 1.73 -0.703 3.379"/><path d="m 15.484 14.965 c 1.41 0.676 2.113 2.027 2.113 2.027 h -1.41 c 2.113 0.676 2.82 2.027 2.82 2.027 c 0 0 -2.113 0.676 -3.523 2.027 c 0 -0.676 -0.707 -4.055 -0.707 -4.055 c 0 0 0 -1.352 0.707 -2.027"/></g><g fill="#2d2d2d"><path d="m 20.05 17.504 c 0 -0.09 -0.074 -0.16 -0.168 -0.16 c -0.094 0 -0.172 0.07 -0.172 0.16 c 0 0.09 0.078 0.164 0.172 0.164 c 0.094 0 0.168 -0.074 0.168 -0.164"/><path d="m 11.961 12.938 h 1.406 v 4.055 h -1.406"/><path d="m 17.598 10.91 c 0 2.613 -2.207 4.73 -4.934 4.73 c -2.723 0 -4.934 -2.117 -4.934 -4.73 c 0 -2.613 2.211 -4.73 4.934 -4.73 c 2.727 0 4.934 2.117 4.934 4.73"/></g><g fill="#f9f9f9"><path d="m 10.551 11.586 c 0 0.375 -0.316 0.676 -0.707 0.676 c -0.387 0 -0.703 -0.301 -0.703 -0.676 c 0 -0.371 0.316 -0.676 0.703 -0.676 c 0.391 0 0.707 0.305 0.707 0.676"/><path d="m 14.07 11.586 c 0 0.375 -0.316 0.676 -0.707 0.676 c -0.387 0 -0.703 -0.301 -0.703 -0.676 c 0 -0.371 0.316 -0.676 0.703 -0.676 c 0.391 0 0.707 0.305 0.707 0.676"/></g><path d="m 12.664 16.316 c 0 0 2.113 0.676 3.523 2.027 c -1.41 2.703 -1.41 5.406 -1.41 5.406 c 0 0 0 0.676 -2.113 0.676 c -2.113 0 -2.113 -0.676 -2.113 -0.676 c 0 0 0 -2.703 -1.41 -5.406 c 1.41 -1.352 3.523 -2.027 3.523 -2.027" fill="#4a4a4a"/><path d="m 11.254 16.992 l 1.41 4.055 l 1.41 -4.055" fill="#2d2d2d"/><path d="m 11.254 16.992 l 1.41 4.055 l 1.41 -4.055 h 0.703 l -2.113 4.73 l -2.113 -4.73" fill="#ccc"/><path d="m 12.664 16.316 l 2.113 -0.676 v 2.027 l -2.113 -0.676 l -2.113 0.676 v -2.027" fill="#f9f9f9"/></svg>