<svg xmlns="http://www.w3.org/2000/svg" viewBox="0 0 32 32"><path d="m 26.316 27.2 c 25.1 -32.898 -43.973 -37.574 -21.809 -3.992 c 5.05 7.656 15.16 12.703 21.809 3.992" fill="#54696c"/><path d="m 15.328 18.836 c -1.145 -1.293 -3.215 -2.992 -3.223 -4.336 c 0 -0.957 0.398 -1.719 1.035 -1.977 c 0.703 -0.285 1.578 -0.188 2.102 0.234 c 0.617 0.496 0.934 0.496 1.715 0 c 1.059 -0.68 2.063 -0.52 2.699 0.426 c 0.969 2.492 -2.586 5.703 -3.402 6.18 c -0.305 0.125 -0.469 0.031 -0.926 -0.527" fill="#e88bb5"/><g fill="#d2c2b3"><path d="m 4.891 14.293 c -0.016 -0.027 0.039 -0.254 0.129 -0.508 c 0.148 -0.434 0.152 -0.488 0.102 -0.855 c -0.145 -1.07 -0.617 -2.531 -0.902 -2.789 c -0.211 -0.188 -0.129 -0.363 0.176 -0.363 c 0.066 0 0.344 -0.109 0.613 -0.242 c 0.715 -0.355 0.879 -0.391 1.141 -0.254 c 0.43 0.223 0.664 0.688 0.664 1.316 c 0 0.727 -0.332 1.371 -0.77 1.488 c -0.18 0.051 -0.211 0.082 -0.211 0.207 c 0 0.172 0.211 0.641 0.367 0.824 c 0.152 0.176 0.305 0.16 0.387 -0.043 c 0.113 -0.273 0.328 -0.152 0.223 0.125 c -0.098 0.258 -0.359 0.43 -0.816 0.535 c -0.395 0.094 -0.586 0.195 -0.793 0.418 c -0.176 0.191 -0.258 0.227 -0.309 0.141 m 1.168 -2.625 l 0.164 -0.086 l -0.031 -0.395 c -0.035 -0.477 -0.203 -1.035 -0.391 -1.316 c -0.121 -0.18 -0.164 -0.207 -0.313 -0.191 c -0.172 0.016 -0.172 0.02 -0.188 0.352 c -0.016 0.348 0.133 1.172 0.281 1.523 c 0.09 0.23 0.207 0.254 0.477 0.113"/><path d="m 7.375 12.02 c 0 -0.066 0.059 -0.254 0.133 -0.418 c 0.09 -0.215 0.113 -0.418 0.074 -0.707 c -0.105 -0.773 -0.453 -2.219 -0.578 -2.391 c -0.07 -0.094 -0.125 -0.195 -0.125 -0.223 c 0 -0.066 1.086 -0.566 1.133 -0.523 c 0.016 0.016 -0.012 0.137 -0.059 0.262 c -0.117 0.285 -0.059 0.75 0.242 2.01 c 0.246 1.023 0.398 1.293 0.727 1.293 c 0.305 0 0.262 0.293 -0.047 0.301 c -0.359 0.012 -0.926 0.172 -1.23 0.352 c -0.215 0.129 -0.27 0.137 -0.27 0.043"/><path d="m 11.355 10.82 c -0.121 -0.117 -0.285 -0.578 -0.336 -0.957 c -0.137 -1 -0.211 -1.215 -0.457 -1.34 c -0.398 -0.199 -0.492 -0.16 -0.445 0.18 c 0.086 0.625 0.215 1.023 0.387 1.203 c 0.152 0.156 0.16 0.195 0.059 0.258 c -0.207 0.125 -0.77 0.086 -1.02 -0.074 c -0.145 -0.09 -0.203 -0.172 -0.145 -0.203 c 0.199 -0.121 0.012 -2.461 -0.254 -3.105 l -0.16 -0.391 l 0.227 0.039 c 0.125 0.023 0.395 -0.008 0.602 -0.07 c 0.484 -0.141 0.703 -0.137 0.992 0.004 c 0.496 0.25 0.617 0.926 0.281 1.598 l -0.137 0.277 l 0.297 0.316 c 0.238 0.25 0.309 0.406 0.355 0.762 c 0.031 0.25 0.035 0.551 0.012 0.676 c -0.063 0.301 0.016 0.566 0.168 0.566 c 0.066 0 0.141 -0.07 0.164 -0.156 c 0.027 -0.09 0.078 -0.16 0.117 -0.16 c 0.133 0 0.078 0.371 -0.078 0.504 c -0.156 0.137 -0.516 0.18 -0.629 0.074 m -0.707 -3.316 c 0 -0.633 -0.137 -0.938 -0.422 -0.938 c -0.242 0 -0.324 0.309 -0.242 0.871 c 0.086 0.602 0.117 0.648 0.418 0.648 h 0.246"/><path d="m 12.348 9.09 c -0.262 -0.262 -0.266 -0.27 -0.266 -1.074 v -0.812 l 0.383 -0.164 c 0.473 -0.199 0.605 -0.355 0.609 -0.727 c 0 -0.34 -0.199 -0.551 -0.523 -0.551 c -0.176 0 -0.219 0.035 -0.219 0.18 c 0 0.102 0.059 0.266 0.133 0.367 c 0.121 0.168 0.121 0.195 0.004 0.313 c -0.203 0.191 -0.387 -0.004 -0.387 -0.418 c 0 -0.266 0.063 -0.414 0.297 -0.707 c 0.168 -0.203 0.367 -0.391 0.449 -0.414 c 0.086 -0.027 0.316 0.059 0.559 0.203 l 0.41 0.246 l 0.063 1.094 c 0.031 0.598 0.113 1.25 0.184 1.441 c 0.113 0.32 0.109 0.395 -0.016 0.781 c -0.078 0.234 -0.156 0.426 -0.176 0.426 c -0.023 0 -0.176 -0.09 -0.344 -0.199 c -0.406 -0.266 -0.57 -0.258 -0.641 0.039 c -0.07 0.309 -0.191 0.301 -0.52 -0.023 m 0.875 -1.215 c 0.02 -0.328 -0.012 -0.527 -0.098 -0.637 c -0.117 -0.152 -0.129 -0.152 -0.266 -0.023 c -0.105 0.102 -0.141 0.254 -0.133 0.582 c 0.016 0.531 0.059 0.617 0.293 0.582 c 0.16 -0.02 0.184 -0.082 0.203 -0.504"/><path d="m 15.512 9.438 c 0 -0.051 0.117 -0.27 0.262 -0.484 l 0.262 -0.391 l -0.063 -1.012 c -0.082 -1.383 -0.141 -1.734 -0.293 -1.734 c -0.176 0 -0.395 0.469 -0.465 0.988 c -0.047 0.375 -0.027 0.492 0.117 0.738 c 0.164 0.273 0.164 0.391 -0.004 0.391 c -0.148 0 -0.305 -0.563 -0.355 -1.285 c -0.027 -0.414 -0.066 -0.828 -0.086 -0.926 c -0.031 -0.148 0.008 -0.184 0.234 -0.215 c 1.555 -0.227 2.164 -0.289 2.223 -0.23 c 0.039 0.039 0.094 0.5 0.121 1.023 c 0.043 0.785 0.031 0.984 -0.074 1.113 c -0.156 0.199 -0.293 0.09 -0.156 -0.121 c 0.055 -0.086 0.102 -0.238 0.102 -0.34 c 0 -0.301 -0.238 -0.984 -0.41 -1.188 c -0.152 -0.176 -0.168 -0.18 -0.305 -0.051 c -0.133 0.129 -0.137 0.219 -0.039 1.227 c 0.156 1.66 0.367 2.168 0.754 1.828 c 0.207 -0.18 0.301 -0.098 0.184 0.148 c -0.094 0.207 -0.418 0.289 -1.098 0.293 c -0.223 0 -0.477 0.063 -0.641 0.16 c -0.16 0.094 -0.27 0.121 -0.27 0.066"/><path d="m 18.902 9.586 l -0.305 -0.121 l -0.055 -0.613 c -0.031 -0.336 -0.109 -0.945 -0.18 -1.352 c -0.066 -0.406 -0.109 -0.801 -0.098 -0.879 c 0.016 -0.074 0.262 -0.352 0.547 -0.609 c 0.598 -0.543 0.52 -0.574 1.047 0.391 l 0.324 0.594 l -0.34 0.352 c -0.555 0.582 -0.848 1.301 -0.594 1.453 c 0.051 0.027 0.219 0.027 0.375 0 c 0.234 -0.043 0.297 -0.094 0.34 -0.289 c 0.059 -0.297 0.164 -0.363 0.23 -0.156 c 0.031 0.094 -0.043 0.41 -0.18 0.758 c -0.227 0.594 -0.234 0.602 -0.523 0.598 c -0.156 -0.004 -0.426 -0.059 -0.59 -0.125 m 0.508 -2.324 c 0 -0.27 -0.242 -0.738 -0.379 -0.738 c -0.137 0 -0.141 0.078 -0.031 0.559 c 0.133 0.57 0.145 0.59 0.289 0.477 c 0.066 -0.055 0.121 -0.188 0.121 -0.297"/><path d="m 21.03 11.809 c -0.184 -0.137 -0.18 -0.367 0.051 -1.855 c 0.074 -0.496 0.082 -0.508 0.207 -0.293 c 0.07 0.121 0.129 0.266 0.129 0.316 c 0 0.055 0.094 0.215 0.211 0.355 c 0.172 0.211 0.281 0.262 0.582 0.262 c 0.203 0 0.445 -0.059 0.535 -0.129 c 0.191 -0.141 0.227 -0.707 0.066 -1.023 c -0.094 -0.184 -0.164 -0.207 -0.648 -0.207 c -0.457 0 -0.59 -0.035 -0.82 -0.219 c -0.148 -0.121 -0.316 -0.305 -0.367 -0.406 c -0.156 -0.301 -0.105 -0.828 0.113 -1.188 c 0.238 -0.387 0.66 -0.582 1.277 -0.582 c 0.234 0 0.559 -0.039 0.715 -0.082 c 0.285 -0.082 0.289 -0.078 0.207 0.18 c -0.043 0.145 -0.113 0.422 -0.152 0.621 l -0.07 0.359 l -0.262 -0.383 c -0.266 -0.395 -0.539 -0.516 -0.949 -0.418 c -0.328 0.078 -0.508 0.59 -0.316 0.891 c 0.129 0.199 0.219 0.234 0.707 0.27 c 0.98 0.074 1.48 0.672 1.309 1.566 c -0.121 0.637 -0.555 0.938 -1.559 1.074 c -0.73 0.102 -0.902 0.184 -0.902 0.43 c 0 0.23 0.109 0.301 0.289 0.191 c 0.188 -0.117 0.285 -0.043 0.199 0.156 c -0.094 0.223 -0.34 0.273 -0.551 0.113"/><path d="m 7.934 22.297 c -0.195 -0.059 -0.441 -0.074 -0.602 -0.043 c -0.367 0.082 -0.395 -0.008 -0.105 -0.359 c 0.258 -0.316 0.285 -0.402 0.414 -1.477 c 0.125 -1.02 0.105 -1.691 -0.051 -1.91 c -0.09 -0.121 -0.105 -0.207 -0.051 -0.262 c 0.055 -0.055 0.102 -0.051 0.141 0.008 c 0.031 0.047 0.309 0.086 0.637 0.086 c 0.367 0 0.688 0.047 0.867 0.129 c 0.602 0.277 0.984 1.43 0.785 2.371 c -0.133 0.625 -0.477 1.234 -0.797 1.426 c -0.281 0.164 -0.75 0.176 -1.238 0.031 m 1.07 -0.406 c 0.184 -0.375 0.293 -1.059 0.293 -1.836 c 0 -0.797 -0.113 -1.199 -0.383 -1.371 c -0.184 -0.113 -0.219 -0.117 -0.328 -0.012 c -0.176 0.168 -0.277 0.973 -0.281 2.195 c 0 0.852 0.023 1.078 0.129 1.18 c 0.215 0.203 0.418 0.148 0.57 -0.156"/><path d="m 11.918 24.13 c -0.051 -0.059 -0.184 -0.234 -0.293 -0.395 c -0.195 -0.281 -0.363 -0.367 -0.414 -0.211 c -0.012 0.039 -0.039 0.148 -0.063 0.242 c -0.02 0.09 -0.074 0.164 -0.125 0.164 c -0.133 0 -0.801 -0.738 -0.766 -0.848 c 0.016 -0.051 0.086 -0.242 0.156 -0.426 c 0.07 -0.188 0.148 -0.539 0.18 -0.789 l 0.051 -0.453 l 0.484 -0.07 c 0.578 -0.086 0.602 -0.098 0.715 -0.359 c 0.184 -0.426 0.039 -0.863 -0.328 -0.996 c -0.344 -0.125 -0.477 0.121 -0.262 0.484 c 0.113 0.191 0.129 0.266 0.074 0.352 c -0.09 0.141 -0.297 0.164 -0.402 0.047 c -0.129 -0.152 -0.102 -0.738 0.043 -0.926 c 0.172 -0.223 0.891 -0.633 1.031 -0.59 c 0.063 0.02 0.207 0.148 0.32 0.289 c 0.113 0.141 0.297 0.336 0.41 0.438 l 0.203 0.18 l -0.094 0.336 c -0.051 0.184 -0.152 0.773 -0.223 1.316 c -0.121 0.906 -0.125 0.996 -0.031 1.176 c 0.137 0.262 0.129 0.34 -0.066 0.559 c -0.094 0.105 -0.207 0.281 -0.254 0.391 c -0.094 0.219 -0.207 0.246 -0.348 0.09 m -0.25 -1.273 c 0.078 -0.145 0.145 -0.844 0.098 -1.023 c -0.039 -0.16 -0.273 -0.203 -0.383 -0.066 c -0.141 0.164 -0.266 1.059 -0.164 1.156 c 0.086 0.082 0.395 0.039 0.449 -0.066"/><path d="m 13.988 24.875 c -0.523 -0.137 -0.633 -0.148 -0.746 -0.078 c -0.109 0.066 -0.141 0.066 -0.184 0 c -0.066 -0.102 0.027 -0.258 0.25 -0.41 c 0.121 -0.082 0.203 -0.215 0.25 -0.398 c 0.121 -0.457 0.258 -1.785 0.258 -2.473 v -0.656 l 0.488 0.043 c 0.27 0.023 0.551 0.059 0.633 0.078 l 0.145 0.039 l -0.184 0.223 c -0.211 0.258 -0.281 0.551 -0.418 1.766 c -0.137 1.172 -0.129 1.34 0.066 1.66 c 0.09 0.148 0.141 0.293 0.109 0.316 c -0.027 0.027 -0.328 -0.023 -0.668 -0.109"/><path d="m 15.41 26.16 c -0.176 -0.234 -0.141 -0.625 0.113 -1.254 c 0.117 -0.293 0.215 -0.656 0.215 -0.805 c 0 -0.414 0.156 -0.301 0.254 0.188 c 0.098 0.473 0.262 0.754 0.512 0.875 c 0.273 0.137 0.508 0.047 0.672 -0.254 c 0.176 -0.32 0.184 -0.609 0.023 -0.891 c -0.109 -0.191 -0.156 -0.215 -0.5 -0.258 c -0.438 -0.055 -0.59 -0.18 -0.785 -0.66 c -0.266 -0.641 0.004 -1.391 0.59 -1.645 c 0.223 -0.094 0.32 -0.102 0.895 -0.043 c 0.355 0.035 0.668 0.082 0.695 0.109 c 0.027 0.023 -0.027 0.188 -0.121 0.367 c -0.094 0.176 -0.168 0.383 -0.172 0.453 c 0 0.07 -0.027 0.172 -0.063 0.219 c -0.074 0.102 -0.066 0.117 -0.238 -0.426 c -0.129 -0.414 -0.293 -0.559 -0.602 -0.531 c -0.641 0.055 -0.75 1.203 -0.117 1.203 c 0.273 0 0.75 0.25 0.93 0.484 c 0.148 0.199 0.172 0.301 0.176 0.742 c 0.004 0.664 -0.086 0.895 -0.484 1.203 c -0.32 0.246 -0.324 0.25 -0.734 0.215 c -0.23 -0.023 -0.539 -0.055 -0.695 -0.074 c -0.336 -0.047 -0.531 0.082 -0.5 0.332 c 0.02 0.121 0.07 0.164 0.223 0.188 c 0.258 0.039 0.297 0.141 0.113 0.301 c -0.188 0.164 -0.25 0.156 -0.398 -0.039"/><path d="m 19.406 24.766 c -0.172 -0.031 -0.477 -0.043 -0.676 -0.027 c -0.199 0.02 -0.359 0.016 -0.359 -0.012 c 0 -0.023 0.125 -0.219 0.277 -0.438 l 0.277 -0.395 l 0.074 -1.316 c 0.066 -1.176 0.063 -1.336 -0.027 -1.508 c -0.055 -0.109 -0.102 -0.219 -0.102 -0.246 c 0 -0.031 0.25 -0.051 0.551 -0.047 c 0.305 0.004 0.602 -0.016 0.66 -0.035 c 0.16 -0.063 0.137 0.043 -0.082 0.422 c -0.191 0.328 -0.195 0.336 -0.262 1.699 l -0.07 1.367 l 0.199 0.273 c 0.109 0.148 0.199 0.285 0.199 0.301 c 0 0.043 -0.297 0.023 -0.66 -0.039"/><path d="m 21.13 23.547 c -0.281 -0.215 -0.527 -0.418 -0.551 -0.449 c -0.02 -0.035 0 -0.207 0.047 -0.387 c 0.086 -0.313 0.188 -1.207 0.266 -2.313 l 0.039 -0.539 l 0.293 -0.113 c 0.16 -0.066 0.457 -0.199 0.66 -0.301 c 0.199 -0.098 0.391 -0.164 0.422 -0.148 c 0.137 0.082 0.551 1.633 0.48 1.809 c -0.02 0.043 -0.227 0.207 -0.465 0.359 c -0.484 0.305 -0.77 0.586 -0.898 0.891 c -0.086 0.199 -0.082 0.207 0.125 0.375 c 0.23 0.184 0.563 0.23 0.68 0.098 c 0.035 -0.043 0.074 -0.156 0.086 -0.258 c 0.027 -0.23 0.199 -0.246 0.227 -0.02 c 0.023 0.188 -0.094 0.434 -0.438 0.895 c -0.133 0.18 -0.242 0.363 -0.242 0.406 c 0 0.172 -0.238 0.07 -0.73 -0.305 m 0.848 -2.313 c 0.121 -0.148 0.121 -0.16 0.012 -0.566 c -0.129 -0.484 -0.18 -0.586 -0.262 -0.508 c -0.07 0.066 -0.148 1 -0.098 1.133 c 0.059 0.141 0.207 0.117 0.348 -0.059"/><path d="m 23.793 22.941 c -0.281 -0.211 -0.293 -0.473 -0.066 -1.234 c 0.113 -0.379 0.203 -0.789 0.199 -0.918 c -0.008 -0.391 0.156 -0.242 0.375 0.344 c 0.223 0.605 0.402 0.82 0.707 0.855 c 0.234 0.027 0.438 -0.141 0.574 -0.484 c 0.07 -0.18 0.07 -0.309 -0.008 -0.559 c -0.117 -0.371 -0.359 -0.566 -0.691 -0.559 c -0.398 0.008 -0.742 -0.379 -0.891 -1 c -0.113 -0.484 -0.035 -0.816 0.273 -1.172 c 0.27 -0.313 0.555 -0.371 1.152 -0.242 c 0.258 0.055 0.563 0.082 0.68 0.055 c 0.113 -0.023 0.215 -0.027 0.219 -0.008 c 0.004 0.023 -0.059 0.223 -0.145 0.445 c -0.086 0.227 -0.156 0.492 -0.16 0.594 c -0.008 0.242 -0.145 0.203 -0.203 -0.059 c -0.086 -0.359 -0.277 -0.656 -0.516 -0.801 c -0.301 -0.18 -0.387 -0.156 -0.621 0.176 c -0.176 0.25 -0.18 0.297 -0.094 0.598 c 0.09 0.301 0.121 0.336 0.359 0.406 c 0.145 0.043 0.402 0.141 0.574 0.223 c 0.887 0.426 1.031 1.844 0.246 2.453 c -0.25 0.195 -0.504 0.227 -1.039 0.125 c -0.719 -0.137 -1.078 0 -0.938 0.355 c 0.039 0.102 0.109 0.133 0.25 0.117 c 0.211 -0.023 0.301 0.121 0.18 0.289 c -0.102 0.145 -0.219 0.145 -0.418 0"/></g><path d="m 21.629 14.438 c 0.148 -0.242 0.438 -0.383 1.117 -0.539 c 0.57 -0.129 0.766 -0.195 0.766 -0.254 c 0 -0.023 -0.047 -0.082 -0.109 -0.129 c -0.605 -0.465 -1.105 -1.125 -1.105 -1.465 c 0 -0.125 0.215 -0.418 0.348 -0.469 c 0.277 -0.105 0.746 0.141 1.254 0.648 c 0.164 0.164 0.316 0.285 0.344 0.27 c 0.027 -0.012 0.059 -0.109 0.074 -0.211 c 0.031 -0.234 0.23 -0.773 0.379 -1.02 c 0.164 -0.277 0.43 -0.445 0.691 -0.441 c 0.188 0 0.223 0.02 0.297 0.133 c 0.156 0.254 0.082 0.523 -0.277 0.977 c -0.145 0.184 -0.254 0.348 -0.238 0.367 c 0.012 0.016 0.246 -0.012 0.516 -0.063 c 0.684 -0.129 1.77 -0.133 2.035 -0.004 c 0.438 0.211 0.484 0.703 0.102 1.066 c -0.336 0.32 -0.43 0.344 -1.465 0.379 c -0.637 0.102 -0.855 0.066 -0.527 0.391 c 1.117 0.738 1.641 1.41 1.422 1.816 c -0.063 0.113 -0.25 0.184 -0.391 0.148 c -0.211 -0.051 -0.684 -0.398 -1.117 -0.824 c -0.242 -0.234 -0.453 -0.426 -0.469 -0.426 c -0.039 0 -0.082 0.348 -0.082 0.664 c 0 0.293 -0.148 0.676 -0.418 1.07 c -0.289 0.422 -0.516 0.586 -0.813 0.586 c -0.262 0 -0.43 -0.121 -0.465 -0.332 c -0.027 -0.18 0.07 -0.563 0.285 -1.141 c 0.094 -0.246 0.164 -0.465 0.156 -0.492 c -0.008 -0.027 -0.195 0.008 -0.426 0.078 c -0.547 0.164 -1.445 0.188 -1.637 0.043 c -0.305 -0.227 -0.402 -0.566 -0.246 -0.828" fill="#fff"/><path d="m 23.992 13.453 c 0.441 -0.609 0.961 -0.773 1.305 -0.41 c 0.281 0.297 -0.035 1.125 -0.59 1.555 c -0.559 0.422 -0.961 0.242 -0.961 -0.43 c 0 -0.293 0.051 -0.438 0.246 -0.715" fill="#ecad5d"/></svg>