<svg xmlns="http://www.w3.org/2000/svg" viewBox="0 0 32 32"><path d="m 28.5 24.875 c 17.98 -26 -39.82 -37.457 -26.48 -5.164 c 4.262 10.625 20.66 18.719 26.48 5.164" fill="#3e51b4"/><g fill="#fff"><path d="m 15.414 19.09 c -0.922 -0.824 -4.492 -4.246 -5.324 -5.105 l -0.762 -0.785 l 0.207 -0.055 c 0.117 -0.031 0.934 -0.078 1.82 -0.105 l 1.605 -0.051 l 0.051 -2.691 c 0.039 -2.262 0.063 -2.707 0.152 -2.773 c 0.258 -0.191 5.555 -0.18 5.82 0.012 c 0.113 0.086 0.125 0.332 0.148 2.785 l 0.023 2.688 l 1.461 0.008 c 1.555 0.004 2.01 0.047 2.063 0.195 c 0.07 0.223 -6.316 6.406 -6.609 6.402 c -0.043 -0.004 -0.34 -0.238 -0.656 -0.52 m 0.609 -3.426 c 0.469 -0.23 0.566 -0.477 0.656 -1.645 c 0.039 -0.539 0.074 -1.32 0.074 -1.738 c 0 -0.422 0.02 -0.934 0.047 -1.145 l 0.047 -0.383 h 0.672 c 0.371 0 0.684 -0.023 0.699 -0.055 c 0.012 -0.027 0.012 -0.34 -0.004 -0.688 l -0.023 -0.637 h -0.852 c -1.164 0 -1.109 -0.07 -1.176 1.586 c -0.027 0.703 -0.055 1.477 -0.059 1.719 l -0.004 0.434 l -0.355 -0.023 c -0.43 -0.031 -1.066 0.141 -1.344 0.363 c -0.238 0.188 -0.473 0.66 -0.473 0.969 c -0.004 0.648 0.395 1.188 1.012 1.371 c 0.387 0.117 0.645 0.086 1.082 -0.129"/><path d="m 10.285 21.859 h 11.723 v 1.668 h -11.723"/></g></svg>