<svg xmlns="http://www.w3.org/2000/svg" viewBox="0 0 32 32"><path d="m 6.609 28.879 c 24.06 15.992 38.875 -35.01 7.777 -28.26 c -12.855 2.879 -20.652 20.926 -7.777 28.26" fill="#ff7f4f"/><path d="m 16.379 7.277 c -2.652 0 -5.01 1.316 -6.531 3.352 l 1.043 0.691 c 1.301 -1.668 3.289 -2.734 5.504 -2.734 c 3.918 0 7.102 3.332 7.102 7.445 c 0 4.105 -3.184 7.441 -7.102 7.441 c -2.207 0 -4.188 -1.059 -5.488 -2.723 l -1.043 0.695 c 1.527 2.027 3.875 3.336 6.531 3.336 c 4.598 0 8.328 -3.918 8.328 -8.75 c 0 -4.824 -3.73 -8.746 -8.328 -8.746 m -8.414 3.641 v 10.207 l 8.465 -5.156 m -0.063 -5.277 c -1.5 0 -2.844 0.68 -3.777 1.758 l 1.082 0.707 c 0.695 -0.723 1.648 -1.164 2.699 -1.164 c 2.125 0 3.852 1.824 3.852 4.066 c 0 2.25 -1.723 4.07 -3.852 4.07 c -1.07 0 -2.039 -0.457 -2.734 -1.199 l -1.043 0.691 c 0.934 1.082 2.277 1.762 3.773 1.762 c 2.816 0 5.102 -2.398 5.102 -5.352 c 0 -2.953 -2.285 -5.348 -5.102 -5.348" fill="#fff" fill-rule="evenodd"/></svg>