<svg xmlns="http://www.w3.org/2000/svg" viewBox="0 0 32 32" xmlns:xlink="http://www.w3.org/1999/xlink"><defs><linearGradient id="2" gradientUnits="userSpaceOnUse" y1="38.25" x2="0" y2="1" gradientTransform="matrix(2.74482 0 0 2.7313 -1.9 -1.597)"><stop stop-color="#781235"/><stop offset="1" stop-color="#dd3b27"/></linearGradient><linearGradient id="3" gradientUnits="userSpaceOnUse" y1="0.306" x2="0" y2="42.26" gradientTransform="matrix(2.7324 0 0 2.7514 -5.892 2.158)"><stop stop-color="#fff" stop-opacity="0.4"/><stop offset="1" stop-color="#fff" stop-opacity="0"/></linearGradient><linearGradient id="0" gradientUnits="userSpaceOnUse" y1="40.885" x2="0" y2="35.3" gradientTransform="matrix(2.46814 0 0 1.96643 6.467 29.516)"><stop stop-color="#ededed"/><stop offset="1" stop-color="#d8d8d9"/></linearGradient><radialGradient id="1" gradientUnits="userSpaceOnUse" cx="38.81" cy="15.69" r="20.714" gradientTransform="matrix(0.12595 7.96672 -11.80343 0 204.85 -326.98)"><stop stop-color="#f8b17e"/><stop offset="0.312" stop-color="#e35c4e"/><stop offset="0.571" stop-color="#c6262e"/><stop offset="1" stop-color="#690a53"/></radialGradient><radialGradient id="4" gradientUnits="userSpaceOnUse" cx="17.949" cy="25.435" r="13.428" gradientTransform="matrix(-0.00244 -0.55463 0.87851 -0.00341 -3.152 26.08)" xlink:href="#0"/><radialGradient id="5" gradientUnits="userSpaceOnUse" cx="63" cy="107" r="52.5" gradientTransform="matrix(1.58107 0 0 0.19048 -36.607 89.62)"><stop stop-color="#000" stop-opacity="0.102"/><stop offset="1" stop-color="#000" stop-opacity="0"/></radialGradient></defs><path d="m 26.21 3.504 c -19.2 -14.891 -39.12 22.19 -15.355 27.617 c 14.965 5.555 29.578 -16.582 15.355 -27.617" fill="#191970"/><g stroke-linecap="round"><path d="m 117.51 119.49 h -103.3 c -0.951 0 -1.712 -0.859 -1.712 -1.94 l -1.997 -15.1 c 0 -1.081 0.761 -1.94 1.712 -1.94 h 105.17" transform="matrix(0.12323 0 0 0.12284 8.089 8.572)" fill="url(#0)" stroke="#791235" stroke-linejoin="round"/><g transform="matrix(0.12323 0 0 0.12284 8.089 8.572)"><path d="m 117.45 118.5 c 0 0 -2.504 -10.462 -0.951 -16.503" fill="none" stroke="#666"/><path d="m 17.571 2.502 c -0.983 0 -1.743 1.113 -1.743 2.512 l -5.325 93.96 c 0 1.399 0.824 2.512 1.807 2.512 h 103.37 c 0.983 0 1.838 -1.113 1.838 -2.512 l -5.959 -93.96 c 0 -1.399 -0.761 -2.512 -1.743 -2.512" fill="url(#1)" stroke="url(#2)" stroke-linejoin="round"/></g></g><g fill="none" transform="matrix(0.12323 0 0 0.12284 8.089 8.572)"><path d="m 13.577 118.47 l -2.092 -15.995" stroke-opacity="0.302" stroke="#000" stroke-linecap="square"/><path d="m 18.775 3.488 c -0.983 0 -1.775 1.145 -1.775 2.607 l -5.515 91.8 c 0 1.463 0.888 2.607 1.87 2.607 h 101.27 c 1.014 0 1.87 -1.145 1.87 -2.607 l -6.149 -91.8 c 0 -1.463 -0.792 -2.607 -1.807 -2.607" stroke="url(#3)" stroke-linejoin="round" stroke-linecap="round"/></g><path d="m 12.785 14.988 c 0.641 0 1.285 0 1.93 0 c -0.32 -0.801 -0.645 -1.602 -0.965 -2.402 c -0.324 0.801 -0.645 1.602 -0.965 2.402 m -1.488 1.836 c 0.016 -0.113 -0.031 -0.285 0.02 -0.359 c 0.148 0 0.297 0 0.441 0 c 0.625 -1.566 1.25 -3.133 1.875 -4.699 c 0.199 0 0.395 0 0.594 0 c 0.625 1.566 1.25 3.133 1.879 4.699 c 0.172 0 0.344 0 0.516 0 c -0.016 0.109 0.031 0.281 -0.02 0.359 c -0.633 0 -1.262 0 -1.895 0 c 0.016 -0.113 -0.031 -0.285 0.023 -0.359 c 0.188 0 0.375 0 0.563 0 c -0.148 -0.371 -0.293 -0.742 -0.441 -1.113 c -0.738 0 -1.473 0 -2.211 0 c -0.148 0.371 -0.297 0.742 -0.441 1.113 c 0.191 0 0.387 0 0.578 0 c -0.016 0.109 0.031 0.281 -0.023 0.359 c -0.484 0 -0.973 0 -1.457 0 m 8.129 -1.133 c 0 -0.254 0 -0.508 0 -0.762 c -0.434 0.016 -0.875 -0.047 -1.301 0.063 c -0.57 0.168 -0.637 0.98 -0.25 1.348 c 0.457 0.406 1.363 0.242 1.516 -0.379 c 0.027 -0.09 0.035 -0.18 0.035 -0.27 m 0.648 -1.117 c 0 0.629 0 1.258 0 1.891 c 0.195 0 0.387 0 0.578 0 c -0.016 0.109 0.031 0.281 -0.02 0.355 c -0.402 0 -0.805 0 -1.207 0 c 0 -0.129 0 -0.258 0 -0.387 c -0.461 0.563 -1.379 0.625 -2 0.277 c -0.707 -0.414 -0.688 -1.594 0.078 -1.941 c 0.598 -0.293 1.277 -0.18 1.922 -0.203 c 0.02 -0.348 -0.008 -0.762 -0.363 -0.957 c -0.406 -0.223 -1 -0.227 -1.344 0.113 c -0.152 0.207 -0.133 0.5 -0.465 0.406 c -0.113 -0.016 -0.02 -0.234 -0.051 -0.336 c 0 -0.129 0 -0.262 0 -0.391 c 0.715 -0.293 1.598 -0.434 2.297 -0.031 c 0.422 0.254 0.586 0.746 0.574 1.203" fill="#7a1234"/><path d="m 12.785 15.11 c 0.641 0 1.285 0 1.93 0 c -0.32 -0.801 -0.645 -1.602 -0.965 -2.406 c -0.324 0.805 -0.645 1.605 -0.965 2.406 m -1.488 1.832 c 0.016 -0.109 -0.031 -0.285 0.02 -0.359 c 0.148 0 0.297 0 0.441 0 c 0.625 -1.566 1.25 -3.133 1.875 -4.695 c 0.199 0 0.395 0 0.594 0 c 0.625 1.563 1.25 3.129 1.879 4.695 c 0.172 0 0.344 0 0.516 0 c -0.016 0.113 0.031 0.285 -0.02 0.359 c -0.633 0 -1.262 0 -1.895 0 c 0.016 -0.109 -0.031 -0.285 0.023 -0.359 c 0.188 0 0.375 0 0.563 0 c -0.148 -0.371 -0.293 -0.742 -0.441 -1.109 c -0.738 0 -1.473 0 -2.211 0 c -0.148 0.367 -0.297 0.738 -0.441 1.109 c 0.191 0 0.387 0 0.578 0 c -0.016 0.113 0.031 0.285 -0.023 0.359 c -0.484 0 -0.973 0 -1.457 0 m 8.129 -1.133 c 0 -0.254 0 -0.508 0 -0.762 c -0.434 0.02 -0.875 -0.047 -1.301 0.066 c -0.57 0.164 -0.637 0.977 -0.25 1.344 c 0.457 0.406 1.363 0.246 1.516 -0.379 c 0.027 -0.086 0.035 -0.176 0.035 -0.27 m 0.648 -1.117 c 0 0.629 0 1.262 0 1.891 c 0.195 0 0.387 0 0.578 0 c -0.016 0.109 0.031 0.285 -0.02 0.359 c -0.402 0 -0.805 0 -1.207 0 c 0 -0.129 0 -0.262 0 -0.391 c -0.461 0.563 -1.379 0.625 -2 0.277 c -0.707 -0.414 -0.688 -1.59 0.078 -1.938 c 0.598 -0.293 1.277 -0.184 1.922 -0.207 c 0.02 -0.348 -0.008 -0.758 -0.363 -0.957 c -0.406 -0.219 -1 -0.223 -1.344 0.117 c -0.152 0.207 -0.133 0.496 -0.465 0.406 c -0.113 -0.02 -0.02 -0.238 -0.051 -0.336 c 0 -0.133 0 -0.262 0 -0.395 c 0.715 -0.293 1.598 -0.434 2.297 -0.031 c 0.422 0.254 0.586 0.746 0.574 1.203" fill="url(#4)"/><g fill="none" transform="matrix(0.12323 0 0 0.12284 8.089 8.572)"><g stroke="#000" stroke-linecap="square"><path d="m 14.56 118.41 l -2.092 -15.995" stroke-opacity="0.149"/><path d="m 15.542 118.47 l -2.124 -15.995" stroke-opacity="0.051"/></g><path d="m 11.485 103.49 h 104 m -104 2 h 104 m -104 2 h 104 m -104 2 h 104 m -104 2 h 104 m -104 2 h 104 m -104 2 h 104 m -104 1.971 h 104" stroke="url(#5)"/></g></svg>