<svg xmlns="http://www.w3.org/2000/svg" viewBox="0 0 32 32"><path d="m 3.43 8.207 c 23.02 -29.21 46.29 31.805 8.789 22.711 c -9.34 -2.266 -16.574 -12.828 -8.789 -22.711" fill="#b0c3de"/><path d="m 25.871 22.316 v -11.07 c 0 -1.805 -1.563 -3.266 -3.488 -3.266 h -11.219 c -1.926 0 -3.488 1.461 -3.488 3.266 v 11.07 c 0 1.805 1.563 3.266 3.488 3.266 h 11.219 c 1.926 0 3.488 -1.461 3.488 -3.266" fill="#268bcf"/><path d="m 24.19 21.285 v -9.02 c 0 -1.469 -1.273 -2.66 -2.844 -2.66 h -9.141 c -1.57 0 -2.844 1.191 -2.844 2.66 v 9.02 c 0 1.469 1.273 2.656 2.844 2.656 h 9.141 c 1.57 0 2.844 -1.188 2.844 -2.656" fill-opacity="0.149"/><path d="m 17.715 22.04 c -1.363 -0.262 -2.266 -1.074 -2.605 -2.355 c -0.055 -0.215 -0.102 -0.512 -0.105 -0.66 v -0.27 h -1.902 c -1.609 0 -1.906 -0.016 -1.906 -0.105 c 0 -0.066 0.113 -0.117 0.344 -0.148 c 0.66 -0.09 0.59 0.277 0.59 -3.242 v -3.129 l -0.465 -0.051 c -0.332 -0.035 -0.469 -0.078 -0.469 -0.152 c 0 -0.16 3.813 -0.148 4.586 0.012 c 0.992 0.207 1.656 0.633 2.078 1.34 c 0.246 0.41 0.453 1.09 0.453 1.484 v 0.238 h 0.59 c 0.605 0.004 1.172 0.066 1.883 0.215 l 0.398 0.082 v 0.719 c 0 0.66 -0.008 0.715 -0.137 0.715 c -0.094 0 -0.148 -0.063 -0.18 -0.215 c -0.023 -0.117 -0.059 -0.316 -0.082 -0.434 c -0.031 -0.16 -0.117 -0.258 -0.313 -0.355 c -0.418 -0.215 -1.094 -0.367 -1.641 -0.367 h -0.5 l -0.043 0.488 c -0.109 1.273 -0.781 2.223 -1.859 2.625 l -0.406 0.152 l 0.035 0.406 c 0.164 1.949 1.09 2.836 2.852 2.738 c 0.363 -0.023 0.836 -0.102 1.055 -0.172 l 0.395 -0.137 v -2.094 l -0.449 -0.063 c -0.301 -0.043 -0.449 -0.098 -0.449 -0.164 c 0 -0.078 0.25 -0.098 1.293 -0.098 c 1.055 0 1.293 0.02 1.293 0.098 c 0 0.105 -0.211 0.188 -0.484 0.191 c -0.16 0 -0.16 0.004 -0.16 1.156 c 0 1.344 0.109 1.188 -1.027 1.434 c -0.941 0.207 -1.957 0.25 -2.66 0.113 m -2.664 -4.211 c 0.09 -0.691 0.402 -1.391 0.816 -1.844 c 0.277 -0.301 1.043 -0.766 1.266 -0.766 c 0.16 0 0.18 -0.121 0.098 -0.625 c -0.258 -1.648 -1.348 -2.395 -3.5 -2.402 l -0.664 -0.004 v 6.129 l 0.305 0.027 c 0.168 0.016 0.598 0.035 0.953 0.039 l 0.648 0.016 m 1.527 -0.637 c 0.297 -0.301 0.547 -0.777 0.656 -1.258 c 0.09 -0.387 0.098 -0.777 0.016 -0.777 c -0.035 0 -0.207 0.156 -0.387 0.344 c -0.359 0.387 -0.605 0.957 -0.676 1.57 c -0.055 0.48 0.012 0.5 0.391 0.121" fill="#fff"/></svg>