<svg xmlns="http://www.w3.org/2000/svg" viewBox="0 0 32 32"><path d="m 30.965 11.602 c 5.977 16.676 -15.496 24.785 -23.563 17.996 c -8.07 -6.789 -10.824 -18.422 -1.688 -24.277 c 9.137 -5.855 19.273 -10.395 25.25 6.285" fill="#cc4912"/><g fill-rule="evenodd"><path d="m 16.848 6.406 c -5.773 0 -10.414 4.672 -10.414 10.492 c 0 5.816 4.641 10.574 10.414 10.574 c 5.777 0 10.418 -4.758 10.418 -10.488 c 0 -5.73 -4.641 -10.578 -10.418 -10.578 m 3.852 2.559 c 0.875 0 1.488 0.703 1.488 1.496 c 0 0.793 -0.699 1.5 -1.488 1.5 c -0.785 0 -1.488 -0.707 -1.488 -1.5 c 0 -0.793 0.703 -1.496 1.488 -1.496 m -3.762 1.32 c 0.613 0 1.227 0.09 1.75 0.266 c 0.086 1.059 0.961 1.938 2.01 1.938 c 0.352 0 0.613 -0.086 0.875 -0.176 c 1.141 1.145 1.84 2.555 1.926 4.23 h -2.363 c -0.262 -2.203 -2.098 -3.879 -4.289 -3.879 c -0.609 0 -1.223 0.176 -1.75 0.355 l -1.223 -2.027 c 0.961 -0.441 2.01 -0.707 3.063 -0.707 m 1.75 7.758 l 0.352 0.703 l -0.613 0.617 v 0.531 h -0.875 l 0.699 -0.969 l -0.262 -0.266 l -0.703 0.527 v 0.352 h -0.875 l 0.527 -0.527 l 0.523 -0.617 l -0.348 -0.527 l -0.438 0.262 l -0.703 0.18 l -0.523 -0.09 l -0.352 0.527 l -0.086 0.793 h -0.875 l 0.613 -0.703 l -0.176 -0.441 l -0.176 -0.883 l -0.438 -1.055 l 0.789 -1.5 l 0.699 -0.441 l 0.789 -0.793 l -0.266 0.531 h 0.09 l 0.875 -0.883 l -0.352 1.059 l 0.262 0.793 l -0.523 0.703 l 0.789 0.617 l 1.137 0.441 l 0.789 -0.441 l 0.438 -0.703 l 0.785 -0.266 l -0.176 1.059 l -0.523 0.176 l -0.352 -0.09 l -0.699 0.355 m -9.188 1.41 c -0.879 0 -1.488 -0.707 -1.488 -1.5 c 0 -0.793 0.699 -1.5 1.488 -1.5 c 0.875 0 1.484 0.707 1.484 1.5 c 0 0.793 -0.609 1.5 -1.484 1.5 m 1.137 0.176 c 0.523 -0.352 0.875 -0.969 0.875 -1.676 c 0 -0.703 -0.352 -1.32 -0.875 -1.676 c 0.438 -1.586 1.398 -2.996 2.711 -3.879 l 1.227 2.027 c -1.137 0.797 -1.836 2.117 -1.836 3.527 c 0 1.41 0.699 2.734 1.75 3.527 l -1.141 2.027 c -1.313 -0.883 -2.273 -2.293 -2.711 -3.879 m 10.238 6.348 c -0.875 0 -1.488 -0.707 -1.488 -1.5 c 0 -0.883 0.703 -1.5 1.488 -1.5 c 0.789 0 1.488 0.707 1.488 1.5 c 0.09 0.793 -0.613 1.5 -1.488 1.5 m 0.965 -3.352 c -0.262 -0.176 -0.613 -0.266 -0.965 -0.266 c -1.137 0 -2.01 0.883 -2.01 2.027 c -0.613 0.18 -1.227 0.266 -1.84 0.266 c -1.047 0 -2.098 -0.266 -2.973 -0.703 l 1.137 -2.027 c 0.523 0.262 1.137 0.438 1.836 0.438 c 2.277 0 4.117 -1.762 4.289 -3.965 h 2.363 c 0 1.586 -0.699 3.172 -1.836 4.23" fill-opacity="0.2"/><path d="m 15.973 5.523 c -5.773 0 -10.414 4.672 -10.414 10.492 c 0 5.816 4.641 10.578 10.414 10.578 c 5.777 0 10.418 -4.762 10.418 -10.492 c 0 -5.727 -4.641 -10.578 -10.418 -10.578 m 3.852 2.559 c 0.875 0 1.488 0.703 1.488 1.5 c 0 0.793 -0.699 1.496 -1.488 1.496 c -0.785 0 -1.488 -0.703 -1.488 -1.496 c 0 -0.797 0.703 -1.5 1.488 -1.5 m -3.762 1.32 c 0.613 0 1.223 0.09 1.75 0.266 c 0.086 1.059 0.961 1.941 2.01 1.941 c 0.352 0 0.613 -0.09 0.875 -0.18 c 1.141 1.148 1.84 2.559 1.926 4.234 h -2.363 c -0.262 -2.207 -2.098 -3.879 -4.289 -3.879 c -0.609 0 -1.223 0.176 -1.75 0.352 l -1.223 -2.027 c 0.961 -0.441 2.01 -0.707 3.063 -0.707 m 1.75 7.758 l 0.352 0.707 l -0.613 0.617 v 0.527 h -0.875 l 0.699 -0.969 l -0.262 -0.266 l -0.703 0.531 v 0.352 h -0.875 l 0.527 -0.531 l 0.523 -0.617 l -0.348 -0.527 l -0.438 0.266 l -0.703 0.176 l -0.523 -0.09 l -0.352 0.531 l -0.086 0.793 h -0.875 l 0.613 -0.707 l -0.176 -0.441 l -0.176 -0.879 l -0.438 -1.059 l 0.789 -1.5 l 0.699 -0.438 l 0.789 -0.797 l -0.266 0.531 h 0.09 l 0.875 -0.883 l -0.352 1.059 l 0.262 0.793 l -0.523 0.707 l 0.789 0.617 l 1.137 0.438 l 0.789 -0.438 l 0.438 -0.707 l 0.785 -0.266 l -0.176 1.059 l -0.523 0.176 l -0.352 -0.086 l -0.699 0.352 m -9.191 1.41 c -0.875 0 -1.484 -0.703 -1.484 -1.5 c 0 -0.793 0.699 -1.496 1.484 -1.496 c 0.879 0 1.488 0.703 1.488 1.496 c 0 0.797 -0.609 1.5 -1.488 1.5 m 1.141 0.176 c 0.523 -0.352 0.875 -0.969 0.875 -1.676 c 0 -0.703 -0.352 -1.32 -0.875 -1.672 c 0.438 -1.59 1.398 -3 2.711 -3.879 l 1.227 2.027 c -1.137 0.793 -1.836 2.113 -1.836 3.523 c 0 1.41 0.699 2.734 1.75 3.527 l -1.141 2.027 c -1.313 -0.883 -2.273 -2.293 -2.711 -3.879 m 10.238 6.348 c -0.875 0 -1.488 -0.707 -1.488 -1.5 c 0 -0.879 0.703 -1.496 1.488 -1.496 c 0.789 0 1.488 0.703 1.488 1.496 c 0.09 0.793 -0.613 1.5 -1.488 1.5 m 0.965 -3.352 c -0.266 -0.176 -0.613 -0.262 -0.965 -0.262 c -1.137 0 -2.01 0.879 -2.01 2.027 c -0.613 0.176 -1.227 0.262 -1.84 0.262 c -1.047 0 -2.098 -0.262 -2.973 -0.703 l 1.137 -2.027 c 0.523 0.266 1.137 0.441 1.836 0.441 c 2.277 0 4.113 -1.766 4.289 -3.969 h 2.363 c 0 1.586 -0.699 3.176 -1.836 4.23" fill="#fff"/></g></svg>