<svg xmlns="http://www.w3.org/2000/svg" xmlns:xlink="http://www.w3.org/1999/xlink" viewBox="0 0 32 32"><defs><g id="5" clip-path="url(#4)"><path d="m 16.875 14.719 h 4.613 c 0.699 0 1.266 0.629 1.266 1.398 v 6.676 c 0 0.77 -0.566 1.398 -1.266 1.398 h -4.613 c -0.699 0 -1.266 -0.629 -1.266 -1.398 v -6.676 c 0 -0.77 0.566 -1.398 1.266 -1.398"/><path d="m 20.969 21.43 c 0 1.09 -0.801 1.973 -1.785 1.973 c -0.988 0 -1.789 -0.883 -1.789 -1.973 c 0 -1.09 0.801 -1.973 1.789 -1.973 c 0.984 0 1.785 0.883 1.785 1.973"/><path d="m 20.254 17.09 c 0 0.656 -0.48 1.184 -1.07 1.184 c -0.594 0 -1.074 -0.527 -1.074 -1.184 c 0 -0.652 0.48 -1.184 1.074 -1.184 c 0.59 0 1.07 0.531 1.07 1.184"/></g><clipPath id="9"><path d="m 14 11 h 5 v 5 h -5"/></clipPath><clipPath id="6"><path d="m 10 9 h 13 v 17 h -13"/></clipPath><clipPath id="8"><path d="m 13 17 h 7 v 7 h -7"/></clipPath><clipPath id="7"><path d="m 30.359 17.457 c 0 8.254 -6.309 14.938 -14.08 14.938 c -7.773 0 -14.08 -6.684 -14.08 -14.938 c 0 -8.25 6.309 -14.934 14.08 -14.934 c 7.773 0 14.08 6.684 14.08 14.934"/></clipPath><clipPath id="4"><path d="M 0,0 H32 V32 H0 z"/></clipPath><clipPath id="0"><path d="m 10 9 h 18 v 20 h -18"/></clipPath><clipPath id="1"><path d="m 27.05 19.06 c 0 5.01 -3.684 9.07 -8.223 9.07 c -4.535 0 -8.219 -4.063 -8.219 -9.07 c 0 -5.02 3.684 -9.08 8.219 -9.08 c 4.539 0 8.223 4.063 8.223 9.08"/></clipPath><filter id="2" filterUnits="objectBoundingBox" x="0" y="0" width="32" height="32"><feColorMatrix type="matrix" in="SourceGraphic" values="0 0 0 0 1 0 0 0 0 1 0 0 0 0 1 0 0 0 1 0"/></filter><mask id="3"><g filter="url(#2)"><path fill-opacity="0.102" d="M 0,0 H32 V32 H0 z"/></g></mask></defs><path d="m 10.602 31.06 c 41.82 9.363 11.348 -57.38 -8.152 -18.516 c -3.367 6.949 -1.926 17.277 8.152 18.516" fill="#d2d2d2"/><g clip-path="url(#0)"><g clip-path="url(#1)"><use xlink:href="#5" mask="url(#3)"/></g></g><g clip-path="url(#6)"><g clip-path="url(#7)"><path d="m 12.324 9.668 h 7.902 c 1.199 0 2.168 1.027 2.168 2.301 v 10.98 c 0 1.273 -0.969 2.301 -2.168 2.301 h -7.902 c -1.199 0 -2.172 -1.027 -2.172 -2.301 v -10.98 c 0 -1.273 0.973 -2.301 2.172 -2.301" fill="#ff6636"/></g></g><g clip-path="url(#8)"><g clip-path="url(#7)"><path d="m 19.336 20.707 c 0 1.793 -1.367 3.246 -3.059 3.246 c -1.691 0 -3.063 -1.453 -3.063 -3.246 c 0 -1.793 1.371 -3.25 3.063 -3.25 c 1.691 0 3.059 1.457 3.059 3.25" fill="#f9f9f9"/></g></g><g clip-path="url(#9)"><g clip-path="url(#7)"><path d="m 18.11 13.563 c 0 1.074 -0.824 1.949 -1.836 1.949 c -1.016 0 -1.84 -0.875 -1.84 -1.949 c 0 -1.074 0.824 -1.949 1.84 -1.949 c 1.012 0 1.836 0.875 1.836 1.949" fill="#f9f9f9"/></g></g></svg>