<svg xmlns="http://www.w3.org/2000/svg" viewBox="0 0 32 32"><path d="m 5.461 5.473 c -16.234 13.11 7.535 36.766 21.902 21.652 c 14.398 -13.01 -8.07 -38.25 -21.902 -21.652" fill="#e5e5fa"/><path d="m 26.305 16.543 c 0 5.242 -4.613 9.492 -10.305 9.492 c -5.691 0 -10.305 -4.25 -10.305 -9.492 c 0 -5.242 4.613 -9.492 10.305 -9.492 c 5.691 0 10.305 4.25 10.305 9.492" fill="#00008b"/><g fill="#fff"><path d="m 10.387 19.59 c -0.43 -0.082 -0.988 -0.383 -1.301 -0.691 c -0.484 -0.484 -0.746 -1.113 -0.809 -1.934 c -0.137 -1.797 1.094 -3.164 2.844 -3.164 c 0.777 0 1.441 0.262 1.688 0.668 c 0.145 0.238 0.152 0.672 0.012 0.848 c -0.215 0.266 -0.633 0.34 -0.965 0.168 c -0.172 -0.09 -0.172 -0.094 -0.172 -0.613 v -0.523 l -0.27 -0.074 c -0.809 -0.227 -1.648 0.43 -1.887 1.48 c -0.25 1.094 0 2.184 0.633 2.75 c 0.395 0.355 0.746 0.461 1.426 0.43 c 0.453 -0.02 0.605 -0.051 0.945 -0.211 c 0.223 -0.105 0.418 -0.191 0.43 -0.191 c 0.012 0 0.023 0.121 0.023 0.27 v 0.27 l -0.43 0.199 c -0.699 0.328 -1.516 0.449 -2.168 0.32"/><path d="m 13.93 19.336 c 0 -0.184 0.016 -0.199 0.223 -0.234 c 0.121 -0.02 0.293 -0.035 0.379 -0.039 c 0.352 0 0.344 0.082 0.344 -3.797 v -3.535 h -0.945 v -0.168 c 0 -0.168 0.016 -0.176 0.758 -0.387 c 0.414 -0.117 0.852 -0.215 0.973 -0.215 h 0.223 v 3.922 c 0 4.297 -0.012 4.18 0.344 4.18 c 0.086 0.004 0.258 0.02 0.379 0.039 c 0.207 0.035 0.223 0.051 0.223 0.234 v 0.199 h -2.898"/><path d="m 17.418 21.879 c 0 -0.215 0.09 -0.27 0.434 -0.273 c 0.094 0 0.219 -0.027 0.281 -0.059 c 0.109 -0.063 0.113 -0.16 0.113 -3.461 v -3.398 h -0.836 l 0.02 -0.16 c 0.02 -0.148 0.066 -0.172 0.758 -0.383 c 0.406 -0.121 0.828 -0.223 0.934 -0.227 c 0.191 0 0.191 0 0.191 0.297 c 0 0.16 0.012 0.293 0.027 0.293 c 0.012 0 0.191 -0.102 0.398 -0.23 c 1.102 -0.688 2.137 -0.621 2.902 0.188 c 0.512 0.543 0.781 1.309 0.773 2.203 c -0.008 0.645 -0.09 1 -0.328 1.492 c -0.488 0.988 -1.605 1.559 -2.887 1.473 c -0.277 -0.02 -0.59 -0.051 -0.695 -0.074 l -0.191 -0.035 v 0.922 c 0 0.848 0.008 0.934 0.117 1.043 c 0.07 0.07 0.199 0.117 0.316 0.117 c 0.113 0 0.285 0.02 0.387 0.039 c 0.164 0.031 0.184 0.059 0.184 0.234 v 0.199 h -2.898 m 3.766 -3.105 c 0.508 -0.246 0.875 -0.77 1.027 -1.457 c 0.109 -0.488 0.047 -1.406 -0.121 -1.852 c -0.176 -0.461 -0.641 -0.938 -1.012 -1.039 c -0.355 -0.098 -0.957 -0.039 -1.383 0.129 l -0.355 0.141 l -0.031 4.102 l 0.344 0.07 c 0.188 0.039 0.367 0.078 0.398 0.09 c 0.172 0.066 0.852 -0.043 1.133 -0.184"/></g></svg>