<svg xmlns="http://www.w3.org/2000/svg" viewBox="0 0 32 32"><path d="m 27.41 6 c 19.965 28.379 -31.957 37.41 -26.809 7.258 c 2.73 -11.992 18.809 -18.625 26.809 -7.258" fill="#9370db"/><path d="m 15.09 24.24 c -0.293 0.027 -0.59 0.043 -0.887 0.043 c -4.883 0 -8.844 -4.145 -8.844 -9.262 c 0 -5.113 3.961 -9.262 8.844 -9.262 c 0.301 0 0.594 0.016 0.887 0.047 c -4.473 0.465 -7.965 4.414 -7.965 9.215 c 0 4.805 3.492 8.754 7.965 9.219" fill="#f69304"/><path d="m 24.2 13.406 c 0.059 0.332 0.098 0.672 0.113 1.016 h -16.512 c 0.02 -0.344 0.059 -0.684 0.113 -1.016 m 16.05 -1.02 c -1.039 -3.543 -4.188 -6.113 -7.906 -6.113 c -3.723 0 -6.871 2.57 -7.91 6.113 m 16.05 4.074 c 0.059 -0.332 0.098 -0.672 0.113 -1.02 h -16.512 c 0.02 0.348 0.059 0.688 0.113 1.02 m 16.05 1.02 c -1.039 3.539 -4.188 6.113 -7.906 6.113 c -3.723 0 -6.871 -2.574 -7.91 -6.113" fill="#2a2355"/><path d="m 21.746 17.461 c -0.875 2.395 -3.09 4.098 -5.684 4.098 c -2.594 0 -4.809 -1.703 -5.684 -4.098" fill="#473d8e"/><path d="m 42.998 32.501 c 0 -4.416 -7.611 -7.997 -16.997 -7.997 c -9.394 0 -17 3.581 -17 7.997 c 0 4.416 7.611 7.997 17 7.997 c 9.386 0 16.997 -3.581 16.997 -7.997" transform="matrix(0.48654 0 0 0.50946 5.357 5.763)" fill="#3b2f76" stroke="#fff"/><path d="m 13.629 25.12 v -4.449 h 0.98 c 0.504 0 0.895 0.133 1.176 0.391 c 0.281 0.262 0.418 0.625 0.418 1.094 c 0 0.441 -0.129 0.805 -0.395 1.09 c -0.262 0.281 -0.598 0.426 -1.01 0.426 c -0.18 0 -0.379 -0.043 -0.598 -0.125 v 1.574 m 0.395 -3.902 h -0.398 v 1.813 c 0.172 0.09 0.355 0.137 0.543 0.137 c 0.262 0 0.477 -0.094 0.645 -0.285 c 0.168 -0.191 0.25 -0.434 0.25 -0.734 c 0 -0.191 -0.039 -0.359 -0.117 -0.508 c -0.078 -0.148 -0.188 -0.254 -0.324 -0.32 c -0.137 -0.07 -0.336 -0.102 -0.598 -0.102 m 2.461 -2.207 h 0.566 v 1.906 c 0.238 -0.297 0.531 -0.445 0.883 -0.445 c 0.188 0 0.359 0.051 0.512 0.148 c 0.152 0.098 0.262 0.23 0.336 0.402 c 0.074 0.172 0.109 0.43 0.109 0.77 v 1.668 h -0.563 v -1.813 c 0 -0.215 -0.055 -0.387 -0.156 -0.516 c -0.102 -0.133 -0.238 -0.199 -0.406 -0.199 c -0.125 0 -0.238 0.035 -0.352 0.102 c -0.109 0.066 -0.23 0.176 -0.363 0.328 v 2.098 h -0.566 m 3.379 1.66 v -4.449 h 0.984 c 0.504 0 0.895 0.133 1.176 0.391 c 0.277 0.262 0.418 0.625 0.418 1.094 c 0 0.441 -0.133 0.805 -0.395 1.09 c -0.266 0.281 -0.602 0.426 -1.01 0.426 c -0.18 0 -0.379 -0.043 -0.602 -0.125 v 1.574 m 0.395 -3.902 h -0.395 v 1.813 c 0.172 0.09 0.352 0.137 0.543 0.137 c 0.262 0 0.477 -0.094 0.645 -0.285 c 0.164 -0.191 0.25 -0.434 0.25 -0.734 c 0 -0.191 -0.039 -0.359 -0.121 -0.508 c -0.078 -0.148 -0.184 -0.254 -0.32 -0.32 c -0.137 -0.07 -0.336 -0.102 -0.602 -0.102" fill="#fff"/></svg>