<svg xmlns="http://www.w3.org/2000/svg" viewBox="0 0 32 32"><path d="m 7.473 3.578 c 11.906 -10.465 30.22 6.05 22.816 19.867 c -7.488 13.973 -32.27 10.246 -30.16 -6.914 c 0.629 -5.105 3.461 -9.535 7.348 -12.953" fill="#fc010a"/><path d="m 9.863 25.375 c -0.094 -0.105 -0.133 -0.328 -0.133 -0.789 c 0 -0.906 0.051 -0.934 1.566 -0.934 c 1.445 0 1.531 0.051 1.531 0.914 c 0 0.93 -0.039 0.957 -1.547 0.957 c -1.051 0 -1.305 -0.027 -1.418 -0.148 m 3.703 0.023 c -0.117 -0.09 -0.152 -0.254 -0.156 -0.68 c -0.004 -0.711 0.063 -0.941 0.305 -1.01 c 0.102 -0.031 0.652 -0.059 1.223 -0.059 c 0.566 0 1.117 0.027 1.223 0.059 c 0.238 0.066 0.309 0.297 0.301 1.01 c -0.004 0.781 -0.043 0.805 -1.523 0.805 c -0.863 0 -1.262 -0.035 -1.371 -0.125 m 3.613 -0.086 c -0.203 -0.316 -0.18 -1.238 0.039 -1.473 c 0.219 -0.238 1.066 -0.266 1.355 -0.043 c 0.168 0.125 0.191 0.23 0.191 0.789 c 0 0.844 -0.082 0.938 -0.859 0.938 c -0.516 0 -0.609 -0.027 -0.727 -0.211 m 2.324 0.063 c -0.098 -0.105 -0.133 -0.328 -0.133 -0.789 c 0 -0.906 0.051 -0.934 1.566 -0.934 c 1.445 0 1.531 0.051 1.531 0.914 c 0 0.93 -0.043 0.957 -1.551 0.957 c -1.047 0 -1.301 -0.027 -1.414 -0.148 m -12.82 -2.969 c -0.117 -0.094 -0.156 -0.258 -0.16 -0.684 c -0.004 -0.711 0.066 -0.938 0.305 -1.01 c 0.105 -0.031 0.656 -0.055 1.223 -0.055 c 0.566 0 1.117 0.023 1.223 0.055 c 0.238 0.07 0.309 0.297 0.305 1.01 c -0.004 0.426 -0.043 0.59 -0.16 0.684 c -0.215 0.172 -2.52 0.172 -2.734 0 m 4.129 0 c -0.117 -0.094 -0.152 -0.258 -0.156 -0.684 c -0.008 -0.945 0.086 -1.063 0.836 -1.063 c 0.754 0 0.844 0.117 0.84 1.063 c -0.004 0.699 -0.117 0.805 -0.84 0.805 c -0.297 0 -0.594 -0.051 -0.68 -0.121 m 2.754 0 c -0.117 -0.094 -0.152 -0.258 -0.156 -0.684 c -0.004 -0.711 0.063 -0.938 0.305 -1.01 c 0.102 -0.031 0.652 -0.055 1.223 -0.055 c 0.566 0 1.117 0.023 1.223 0.055 c 0.238 0.07 0.309 0.297 0.301 1.01 c -0.004 0.785 -0.043 0.805 -1.523 0.805 c -0.863 0 -1.262 -0.035 -1.371 -0.121 m 4.133 0 c -0.117 -0.094 -0.156 -0.258 -0.156 -0.684 c -0.008 -0.945 0.086 -1.063 0.836 -1.063 c 0.754 0 0.844 0.117 0.84 1.063 c -0.008 0.699 -0.117 0.805 -0.84 0.805 c -0.297 0 -0.594 -0.051 -0.68 -0.121"/><g fill="#ff0"><path d="m 9.668 12.844 c -0.176 -0.125 -0.191 -0.324 -0.16 -2.031 c 0.02 -1.043 0.074 -1.938 0.125 -1.984 c 0.129 -0.125 1.508 -0.18 2.32 -0.098 c 0.563 0.059 0.715 0.117 0.758 0.277 c 0.09 0.34 -0.23 0.477 -1.23 0.535 c -0.902 0.051 -0.949 0.066 -0.984 0.316 c -0.059 0.391 0.246 0.543 1.09 0.543 c 0.777 0 1.035 0.137 0.961 0.508 c -0.031 0.16 -0.195 0.203 -0.957 0.266 c -0.508 0.043 -0.969 0.121 -1.027 0.176 c -0.055 0.055 -0.086 0.238 -0.066 0.41 l 0.039 0.309 l 0.988 0.051 c 0.543 0.031 1.051 0.094 1.129 0.141 c 0.207 0.133 0.164 0.484 -0.078 0.609 c -0.313 0.164 -2.668 0.145 -2.906 -0.027"/><path d="m 14.02 12.82 c -0.113 -0.129 -0.125 -0.582 -0.066 -2.07 c 0.043 -1.043 0.105 -1.926 0.137 -1.957 c 0.031 -0.031 0.664 -0.074 1.406 -0.094 c 1.145 -0.031 1.375 -0.012 1.531 0.141 c 0.227 0.223 0.23 0.32 0.008 0.535 c -0.125 0.121 -0.391 0.168 -0.98 0.168 c -0.984 0 -1.156 0.059 -1.156 0.383 c 0 0.348 0.301 0.477 1.113 0.477 c 0.797 0 1.16 0.207 0.969 0.551 c -0.086 0.16 -0.242 0.203 -0.738 0.215 c -0.977 0.02 -1.281 0.113 -1.324 0.398 c -0.063 0.441 0.156 0.555 1.074 0.555 c 0.957 0 1.258 0.137 1.199 0.547 c -0.035 0.262 -0.039 0.262 -1.535 0.289 c -1.246 0.027 -1.52 0.004 -1.637 -0.137"/><path d="m 18.715 12.91 c -0.191 -0.074 -0.195 -3.91 -0.004 -4.098 c 0.16 -0.156 1 -0.168 1.902 -0.023 c 0.879 0.137 1.266 0.523 1.266 1.266 c -0.004 0.953 -0.406 1.305 -1.68 1.473 c -0.582 0.078 -0.742 0.258 -0.742 0.836 c 0 0.523 -0.281 0.73 -0.742 0.547 m 1.953 -2.398 c 0.473 -0.465 0.16 -0.969 -0.602 -0.969 c -0.332 0 -0.496 0.051 -0.543 0.172 c -0.109 0.277 -0.074 0.742 0.066 0.883 c 0.211 0.203 0.832 0.152 1.078 -0.086"/><path d="m 15.215 19.449 c -0.164 -0.195 -0.016 -0.496 0.387 -0.781 l 0.289 -0.207 l -0.563 -1.453 c -0.309 -0.801 -0.559 -1.531 -0.559 -1.625 c 0 -0.246 0.406 -0.34 0.688 -0.16 c 0.133 0.086 0.332 0.441 0.461 0.824 c 0.129 0.367 0.277 0.676 0.34 0.68 c 0.059 0.004 0.195 -0.18 0.301 -0.41 c 0.484 -1.031 0.582 -1.176 0.816 -1.207 c 0.52 -0.074 0.484 0.266 -0.195 2.02 c -0.797 2.066 -0.844 2.152 -1.281 2.328 c -0.445 0.184 -0.523 0.184 -0.684 -0.008"/><path d="m 12.141 18.14 c -0.32 -0.219 -0.668 -0.949 -0.668 -1.414 c -0.004 -0.465 0.23 -0.98 0.594 -1.309 c 0.246 -0.223 0.406 -0.27 0.965 -0.27 c 0.637 0 0.68 0.02 1.039 0.426 c 0.797 0.898 0.645 1.262 -0.57 1.371 c -0.941 0.082 -1.164 0.195 -0.973 0.488 c 0.129 0.191 0.41 0.207 1.332 0.07 c 0.477 -0.07 0.535 -0.02 0.402 0.324 c -0.184 0.461 -1.598 0.672 -2.121 0.313 m 1.246 -1.855 c 0.145 -0.23 -0.078 -0.453 -0.418 -0.418 c -0.262 0.023 -0.355 0.09 -0.379 0.273 c -0.031 0.211 0.012 0.242 0.348 0.242 c 0.215 0 0.414 -0.043 0.449 -0.098"/><path d="m 7.949 18.227 c -0.297 -0.094 -0.328 -0.27 -0.328 -1.977 c -0.004 -1.941 0.074 -2.266 0.52 -2.215 c 0.281 0.031 0.309 0.082 0.406 0.703 c 0.07 0.473 0.148 0.672 0.262 0.672 c 0.086 0 0.461 -0.313 0.832 -0.699 c 0.563 -0.578 0.734 -0.695 1.031 -0.695 c 0.508 0 0.457 0.195 -0.25 0.984 c -0.332 0.375 -0.602 0.777 -0.602 0.895 c 0 0.121 0.344 0.637 0.766 1.152 c 0.695 0.844 0.754 0.949 0.598 1.098 c -0.094 0.094 -0.219 0.168 -0.277 0.168 c -0.277 0 -0.738 -0.352 -1.129 -0.855 c -0.715 -0.918 -1.168 -1.07 -1.168 -0.395 c -0.004 0.953 -0.207 1.309 -0.66 1.164"/><path d="m 18.641 18.14 c -0.371 -0.254 -0.605 -0.789 -0.605 -1.391 c 0 -1.059 0.641 -1.715 1.605 -1.633 c 0.625 0.055 1 0.344 1.316 1.035 c 0.199 0.434 0.203 0.484 0.039 0.602 c -0.098 0.07 -0.578 0.156 -1.074 0.195 c -0.492 0.035 -0.918 0.086 -0.945 0.113 c -0.027 0.027 -0.016 0.148 0.023 0.27 c 0.09 0.281 0.539 0.398 0.895 0.238 c 0.281 -0.125 1.035 -0.168 1.035 -0.059 c 0 0.184 -0.27 0.492 -0.551 0.637 c -0.422 0.215 -1.422 0.211 -1.738 -0.008 m 1.277 -2.01 c -0.027 -0.176 -0.121 -0.25 -0.352 -0.277 c -0.363 -0.039 -0.566 0.109 -0.473 0.352 c 0.043 0.109 0.207 0.168 0.465 0.168 c 0.348 0 0.391 -0.031 0.359 -0.242"/><path d="m 22.16 18.14 c -0.227 -0.152 -0.246 -0.254 -0.246 -1.223 c 0 -0.578 0.031 -1.199 0.066 -1.375 c 0.063 -0.316 0.082 -0.324 0.852 -0.383 c 0.563 -0.039 0.828 -0.016 0.934 0.082 c 0.223 0.207 0.059 0.57 -0.348 0.773 c -0.48 0.242 -0.512 0.309 -0.512 1.184 c -0.004 0.559 -0.051 0.82 -0.176 0.941 c -0.215 0.211 -0.27 0.211 -0.57 0"/></g></svg>