<svg xmlns="http://www.w3.org/2000/svg" viewBox="0 0 32 32"><path d="m 0.406 19.5 c 6.246 28.789 49.23 -2.117 23.41 -16.75 c -10.03 -6.27 -26.625 1.945 -23.41 16.75" fill="#00000b"/><g fill="#fff"><path d="m 2.578 16.746 c -0.617 -0.148 -0.797 -0.277 -1.078 -0.793 c -0.176 -0.316 -0.211 -0.543 -0.18 -1.082 c 0.035 -0.578 0.094 -0.742 0.375 -1.066 c 1.133 -1.313 3.316 -0.211 3.02 1.52 c -0.18 1.059 -1.098 1.664 -2.137 1.422"/><path d="m 4.516 16.809 c -0.184 -0.125 -0.105 -0.375 0.168 -0.508 c 0.137 -0.066 0.492 -0.148 0.797 -0.18 c 0.938 -0.098 1.441 -0.582 1.555 -1.504 c 0.16 -1.293 -0.77 -2.211 -1.953 -1.934 c -0.52 0.121 -0.535 0.117 -0.648 -0.105 c -0.152 -0.301 -0.102 -0.703 0.098 -0.754 c 0.086 -0.023 0.504 -0.023 0.93 -0.008 c 0.957 0.043 1.496 0.324 1.93 1 c 0.902 1.406 0.367 3.414 -1.051 3.957 c -0.488 0.188 -1.563 0.203 -1.824 0.031"/><path d="m 8.461 16.82 c -0.098 -0.148 -0.152 -0.719 -0.148 -1.617 c 0.004 -1.125 0.039 -1.422 0.203 -1.547 c 0.422 -0.336 0.563 -0.105 0.656 1.102 c 0.121 1.555 -0.023 2.277 -0.465 2.285 c -0.051 0 -0.16 -0.102 -0.246 -0.223"/><path d="m 10.32 16.996 c -0.469 -0.172 -0.676 -0.387 -0.598 -0.609 c 0.051 -0.133 0.133 -0.156 0.375 -0.102 c 0.797 0.176 0.902 0.176 1.066 0.004 c 0.148 -0.156 0.152 -0.191 0.02 -0.344 c -0.078 -0.09 -0.402 -0.32 -0.719 -0.504 c -0.68 -0.402 -0.852 -0.734 -0.645 -1.25 c 0.25 -0.629 1.094 -0.902 1.637 -0.531 c 0.383 0.262 0.262 0.406 -0.434 0.52 c -0.766 0.125 -0.793 0.281 -0.137 0.711 c 0.266 0.176 0.602 0.434 0.746 0.574 c 0.77 0.754 -0.234 1.926 -1.313 1.531"/><path d="m 13.258 16.977 c -0.414 -0.215 -0.758 -0.762 -0.867 -1.379 c -0.199 -1.113 0.516 -2.074 1.543 -2.07 c 0.559 0 0.895 0.191 0.895 0.504 c 0 0.242 -0.016 0.246 -0.645 0.215 c -0.586 -0.031 -0.668 -0.012 -0.891 0.223 c -0.426 0.449 -0.301 1.367 0.246 1.793 c 0.234 0.184 0.281 0.184 0.785 0.047 c 0.457 -0.125 0.547 -0.125 0.59 -0.008 c 0.09 0.242 -0.043 0.426 -0.461 0.641 c -0.488 0.246 -0.77 0.254 -1.195 0.035"/><path d="m 16.316 16.918 c -0.176 -0.125 -0.453 -0.398 -0.613 -0.613 c -0.262 -0.336 -0.301 -0.461 -0.297 -1 c 0 -1.09 0.59 -1.777 1.531 -1.777 c 0.93 0 1.59 0.707 1.59 1.699 c 0 1.406 -1.262 2.375 -2.211 1.695 m 1.117 -0.656 c 0.297 -0.25 0.422 -0.555 0.422 -1.027 c 0 -0.859 -0.941 -1.336 -1.496 -0.758 c -0.191 0.203 -0.234 0.344 -0.234 0.813 c 0 0.488 0.035 0.602 0.281 0.859 c 0.32 0.336 0.715 0.383 1.027 0.113"/><path d="m 19.781 16.656 c -0.305 -0.625 -0.969 -2.805 -0.906 -2.977 c 0.156 -0.426 0.465 -0.074 0.945 1.082 c 0.16 0.391 0.34 0.727 0.398 0.746 c 0.055 0.02 0.266 -0.34 0.465 -0.797 c 0.387 -0.895 0.582 -1.188 0.789 -1.188 c 0.191 0 0.16 0.254 -0.164 1.293 c -0.535 1.703 -0.824 2.23 -1.238 2.23 c -0.055 0 -0.184 -0.176 -0.289 -0.391"/><path d="m 22.898 16.988 c -0.684 -0.375 -0.914 -0.797 -0.914 -1.676 c 0 -1.109 0.551 -1.789 1.449 -1.789 c 0.688 0 1.215 0.527 1.367 1.363 c 0.09 0.496 -0.023 0.57 -0.973 0.652 c -0.477 0.043 -0.914 0.105 -0.969 0.145 c -0.156 0.098 -0.129 0.305 0.074 0.566 c 0.172 0.223 0.211 0.23 0.777 0.133 c 0.434 -0.078 0.633 -0.074 0.746 0.012 c 0.199 0.152 0.098 0.305 -0.359 0.551 c -0.449 0.242 -0.813 0.254 -1.199 0.043 m 1.066 -2.199 c 0.07 -0.188 -0.109 -0.527 -0.352 -0.664 c -0.352 -0.195 -0.965 0.277 -0.828 0.645 c 0.078 0.219 1.102 0.238 1.18 0.02"/><path d="m 25.551 16.953 c -0.102 -0.066 -0.133 -0.398 -0.133 -1.43 c 0 -0.742 0.031 -1.496 0.07 -1.68 c 0.059 -0.285 0.102 -0.328 0.277 -0.273 c 0.113 0.035 0.453 0.09 0.75 0.125 c 0.426 0.043 0.555 0.098 0.594 0.246 c 0.035 0.137 -0.035 0.234 -0.23 0.34 c -0.387 0.211 -0.574 0.648 -0.727 1.695 c -0.137 0.98 -0.27 1.195 -0.602 0.977"/><path d="m 27.602 18.551 c -0.078 -0.137 0.09 -0.344 0.492 -0.605 c 0.559 -0.363 0.574 -0.762 0.094 -2.402 c -0.445 -1.516 -0.5 -1.898 -0.289 -1.984 c 0.195 -0.078 0.277 0.051 0.652 1.023 c 0.352 0.902 0.438 1.016 0.598 0.777 c 0.066 -0.098 0.23 -0.469 0.371 -0.824 c 0.27 -0.699 0.488 -1.012 0.707 -1.012 c 0.191 0 0.109 0.41 -0.422 2.094 c -0.527 1.672 -1.012 2.781 -1.27 2.926 c -0.25 0.141 -0.852 0.145 -0.934 0.008"/></g></svg>