<svg xmlns="http://www.w3.org/2000/svg" viewBox="0 0 32 32"><path d="m 0.359 19.43 c -0.422 -3.227 0.348 -7.258 1.973 -10.285 c 1.973 -3.68 5.539 -6.797 9.41 -8.219 c 5.129 -1.797 11.445 0.039 14.855 2.855 c 1.676 1.426 3.195 3.445 4.098 5.449 c 2.355 5.211 1.316 11.344 -2.746 16.223 c -2.434 2.922 -5.133 4.727 -8.57 5.723 c -4.121 1.191 -8.961 0.488 -12.617 -1.84 c -3.566 -2.766 -5.848 -5.887 -6.402 -9.906" fill="#546a2f"/><path d="m 10.605 23.1 c -1.32 -1.141 -1.98 -2.141 -2.582 -3.93 c -0.34 -1.01 -0.477 -1.785 -0.469 -2.656 c 0.004 -0.766 0.031 -1.012 0.234 -2.117 c 0.266 -1.441 1.344 -3 2.566 -3.703 c 0.535 -0.309 1.426 -0.523 2.578 -0.617 c 0.563 -0.047 1.199 -0.105 1.414 -0.129 l 0.387 -0.047 l 0.039 -0.59 c 0.063 -0.93 0.445 -1.445 0.902 -1.203 c 0.168 0.086 0.18 0.137 0.125 0.438 c -0.086 0.441 -0.098 1.176 -0.023 1.25 c 0.031 0.031 0.246 0.012 0.48 -0.043 c 0.887 -0.207 2.656 0.078 3.836 0.621 c 0.738 0.34 1.711 1.211 2.203 1.977 c 0.867 1.285 1.016 2.879 0.984 3.875 c -0.047 1.449 -0.176 2.078 -0.742 3.695 c -0.25 0.996 -0.832 1.73 -1.246 2.574 c -3.926 4.305 -9.152 1.934 -10.688 0.605 m 2.297 -11.04 c 0.734 -0.426 -0.301 -0.707 -0.449 -0.66 c -2.344 0.016 -2.398 2.191 -1.477 1.449 c 0.164 -0.133 1.707 -0.66 1.926 -0.785" fill="#e0e29d"/><path d="m 13.543 24.453 c -2.074 -0.758 0.098 -1.703 0.211 -2.512 c 0.746 -1.195 0.227 -1.941 -0.551 -2.156 c -0.117 0.043 -0.703 -0.523 -0.703 -0.684 c 0.16 -0.324 0.348 -0.555 0.227 -0.805 c -0.313 -1.152 -0.066 -0.465 -0.797 -0.172 c -0.031 -0.027 -0.066 -0.375 -0.074 -0.77 c -0.16 -0.234 0.012 -1.684 0.332 -0.926 c 0.418 0.832 0.777 -0.25 0.465 -0.633 c -0.148 -0.145 0.066 -1.012 0.262 -1.063 c 0.082 -0.02 0.199 -0.129 0.262 -0.242 c 1.383 -1.75 2.871 -2.254 4.32 -2.867 c 0.867 -0.652 2.031 0.328 1.27 -0.371 c -0.18 -0.633 0.539 -1.168 0.941 -0.848 c 0.191 0.156 0.371 0.223 0.656 0.238 c 1.066 0.051 1.887 0.918 2.531 2.668 c 0.168 0.457 0.656 1.086 0.66 1.996 c -0.199 2.617 -0.637 5.406 -2.402 7.316 c -1.203 1.063 -1.18 1.453 -2.539 1.766 c -0.813 0.184 -2.266 0.414 -3.148 0.25" fill="#798218"/><path d="m 15.719 9.484 c -0.25 -0.27 -0.082 -0.773 0.566 -1.707 c 0.668 -0.965 1.012 -1.199 2.457 -1.672 c 1.047 -0.344 1.699 -0.473 2.375 -0.473 c 0.457 0 0.574 0.027 0.703 0.152 c 0.129 0.121 0.145 0.199 0.102 0.449 c -0.066 0.414 -0.211 0.66 -0.613 1.086 c -0.777 0.812 -2.145 1.496 -4.105 2.051 c -1 0.281 -1.309 0.305 -1.484 0.113" fill="#9acd31"/><path d="m 15.523 9.871 c -0.164 -0.059 -0.402 -0.09 -0.535 -0.066 l -0.238 0.039 l 0.031 -0.473 c 0.078 -1.234 0.27 -1.965 0.594 -2.262 c 0.184 -0.168 0.477 -0.195 0.684 -0.07 c 0.121 0.078 0.129 0.129 0.086 0.703 c -0.027 0.375 -0.109 0.797 -0.203 1.059 c -0.168 0.465 -0.199 0.816 -0.09 1.051 c 0.078 0.168 0.066 0.168 -0.328 0.02" fill="#8b4512"/><path d="m 10.871 22.266 c -0.816 -0.926 -1.367 -2.332 -1.379 -3.516 c 0 -0.484 -0.113 -0.941 -0.32 -1.305 c -0.422 -0.734 -0.305 -1.941 0.219 -2.262 c 0.188 -0.113 0.473 -0.441 0.637 -0.723 c 0.277 -0.586 0.984 -0.457 1.094 -0.945 c 0.422 -0.906 0.563 0.109 1.105 -0.34 c 0.16 -0.137 0.629 -0.363 1.039 -0.508 c 0.648 -0.227 0.801 -0.363 1.188 -1.063 c 0.527 -1.191 0.074 -1.77 0.863 -0.969 c 0.426 0.426 1.227 0.414 1.777 -0.027 c 2.332 -1.063 1.434 0.074 1.469 0.551 c 0.066 0.309 0.027 0.344 -0.273 0.273 c -1.594 0.461 -2.961 1.66 -3.953 1.797 c -0.688 0.285 -0.828 1.02 -1.273 1.453 c -0.52 0.496 -0.563 0.594 -0.539 1.324 c -0.094 1.258 -0.168 0.375 -0.676 0.359 c -0.23 0 -0.277 0.551 -0.117 1.453 c 0.059 0.906 1.516 -0.281 0.762 1.133 c -0.207 0.34 -0.016 0.664 0.594 0.996 c 0.305 0.168 0.539 0.41 0.539 0.559 c 0 0.145 0.141 0.301 0.309 0.352 c 0.723 0.41 -0.891 2.262 -1.488 2.551 c -0.926 0.473 -0.977 -0.449 -1.574 -1.145" fill="#a8ad42"/><path d="m 13.668 23.04 c 0.871 -0.113 2.184 -0.52 2.918 -1.223 c 1.039 -0.563 1.234 -0.516 2.055 -1.332 c 0.273 -0.273 0.336 -0.406 0.336 -0.727 c 0.672 -0.586 0.25 -0.969 -0.125 -1.602 c -0.289 -0.035 -0.555 -0.418 -0.73 -0.488 c -0.398 -0.156 -0.496 -0.066 -0.277 0.25 c 0.5 0.922 -0.918 0.059 -1.066 0.266 c -0.219 -1.293 -0.863 0.211 -1.668 -0.621 c -0.168 -0.18 -0.465 -0.438 -0.664 -0.57 c -0.055 -0.867 0.191 -1.137 -0.102 -1.945 l 0.352 -0.375 c 0.293 -0.199 0.289 -0.613 0.504 -0.809 c 0.332 -0.234 -0.371 -0.695 0.188 -0.609 c 0.555 0.184 0.859 -0.105 1.367 -0.363 l 0.309 0.281 c 0.371 0.344 0.484 0.352 0.777 0.051 c 0.199 -0.207 0.246 -0.219 0.352 -0.094 c 0.477 0.211 0.672 -0.484 1.141 -0.711 c 0.895 -0.449 0.16 -1.449 0.559 -1.078 c 0.086 0.082 0.266 0.148 0.406 0.148 c 0.332 0 0.668 0.488 0.609 0.891 c 0.055 0.617 0.598 1.01 0.875 1.527 c -0.57 0.965 -0.066 0.902 -0.055 1.922 c 0.02 0.266 -0.719 1.191 -0.855 1.234 c -0.641 0.227 -1.371 0.773 -0.543 0.984 c 0.727 0.18 0.848 0.262 1.195 0.82 c 0.285 0.453 0.316 0.57 0.266 0.953 c -0.086 0.602 -0.734 1.805 -1.395 2.594 c -0.305 0.359 -0.637 0.809 -0.734 0.996 c -0.23 0.422 -0.66 0.602 -2.051 0.844 c -0.957 0.164 -1.32 0.445 -2.07 0.328 c -1.496 0.332 -4.34 -1.121 -1.871 -1.543" fill="#5b6110"/></svg>