<svg xmlns="http://www.w3.org/2000/svg" viewBox="0 0 32 32"><path d="m 0.254 16.08 c -2.402 -21.11 31.992 -20.816 31.582 0.375 c 1.133 19.711 -33.453 21.488 -31.582 -0.375" fill="#2f2f2f"/><path d="m -117.11 -25.361 c -3.156 -0.188 -6.688 -0.531 -7.875 -0.813 l -2.125 -0.469 v -64.781 h 45.75 v 65.5 l -5 0.594 c -4.875 0.594 -19.25 0.563 -30.75 -0.031 m 28.13 -33.656 v -24.781 h -30.5 v 49.563 h 30.5" transform="matrix(0.125 0 0 0.125 27.764 15.729)" fill="#fdd004" stroke="#fdd004" stroke-width="3.68"/><g fill="#fff"><path d="m 4.113 17.18 c -0.07 -0.609 0.02 -2.355 0.141 -2.746 c 0.047 -0.148 0.117 -0.273 0.16 -0.273 c 0.043 0 0.258 0.234 0.48 0.52 c 0.953 1.238 1.047 1.348 1.125 1.27 c 0.043 -0.043 0.102 -0.406 0.133 -0.809 c 0.027 -0.402 0.098 -0.793 0.152 -0.871 c 0.094 -0.125 0.117 -0.117 0.242 0.074 c 0.156 0.238 0.297 1.188 0.301 2.027 c 0.004 0.313 0.031 0.566 0.066 0.566 c 0.035 0 0.191 -0.379 0.352 -0.844 c 0.305 -0.902 0.582 -1.531 0.789 -1.805 c 0.125 -0.164 0.129 -0.168 0.309 -0.008 c 0.098 0.09 0.25 0.332 0.34 0.535 c 0.254 0.57 0.676 1.992 0.73 2.461 c 0.051 0.41 0.047 0.418 -0.172 0.418 c -0.172 0 -0.289 -0.09 -0.496 -0.379 c -0.395 -0.563 -0.941 -0.621 -1.195 -0.129 c -0.184 0.355 -0.453 0.508 -0.879 0.508 c -0.41 0 -0.52 -0.09 -1.379 -1.176 c -0.199 -0.258 -0.418 -0.465 -0.484 -0.465 c -0.078 0 -0.148 0.137 -0.191 0.379 c -0.184 1.051 -0.246 1.262 -0.352 1.262 c -0.074 0 -0.133 -0.172 -0.172 -0.516 m 4.254 -1.16 c 0 -0.172 -0.109 -0.344 -0.223 -0.344 c -0.066 0 -0.117 0.086 -0.117 0.211 c 0 0.152 0.047 0.211 0.172 0.211 c 0.09 0 0.168 -0.035 0.168 -0.078"/><path d="m 20.676 17.422 c -0.277 -0.617 -0.785 -0.75 -1.156 -0.305 c -0.121 0.145 -0.219 0.293 -0.219 0.332 c 0 0.043 -0.148 0.117 -0.328 0.164 c -0.602 0.164 -0.887 -0.008 -1.609 -0.957 l -0.629 -0.832 l -0.066 0.414 c -0.145 0.902 -0.246 1.285 -0.363 1.383 c -0.184 0.152 -0.285 0.008 -0.344 -0.488 c -0.066 -0.555 -0.141 -0.68 -0.316 -0.531 c -0.074 0.059 -0.133 0.156 -0.133 0.215 c 0 0.055 -0.164 0.277 -0.363 0.492 c -0.363 0.391 -0.367 0.391 -0.918 0.391 c -0.637 0 -0.879 -0.148 -1.34 -0.816 c -0.141 -0.203 -0.277 -0.355 -0.301 -0.332 c -0.023 0.023 -0.086 0.266 -0.137 0.531 c -0.074 0.363 -0.137 0.496 -0.254 0.52 c -0.086 0.016 -0.191 -0.004 -0.234 -0.051 c -0.047 -0.043 -0.113 -0.613 -0.156 -1.266 c -0.039 -0.652 -0.117 -1.266 -0.168 -1.359 c -0.102 -0.191 -0.539 -0.242 -0.641 -0.07 c -0.035 0.055 -0.109 0.676 -0.164 1.379 c -0.055 0.703 -0.125 1.32 -0.16 1.371 c -0.074 0.121 -0.441 0.121 -0.516 0 c -0.031 -0.051 -0.094 -0.531 -0.137 -1.07 c -0.141 -1.742 -0.125 -1.684 -0.453 -1.82 c -0.188 -0.078 -0.289 -0.176 -0.289 -0.285 c 0 -0.238 0.387 -0.281 1.852 -0.215 l 1.254 0.059 l 0.055 0.473 c 0.082 0.734 0.098 0.746 0.441 0.258 c 0.445 -0.629 0.68 -0.777 1.289 -0.824 l 0.516 -0.035 l 0.578 0.598 c 0.316 0.332 0.598 0.602 0.621 0.602 c 0.027 0 0.047 -0.105 0.047 -0.23 c 0 -0.129 0.039 -0.375 0.086 -0.547 c 0.16 -0.574 0.391 -0.418 1.418 0.973 c 0.25 0.336 0.391 0.465 0.449 0.406 c 0.047 -0.047 0.113 -0.426 0.141 -0.844 c 0.031 -0.414 0.074 -0.773 0.094 -0.797 c 0.023 -0.023 0.113 -0.051 0.203 -0.07 c 0.223 -0.039 0.289 0.254 0.355 1.488 c 0.031 0.555 0.082 1.059 0.113 1.121 c 0.035 0.07 0.168 -0.195 0.332 -0.672 c 0.367 -1.055 0.738 -1.816 0.934 -1.922 c 0.266 -0.145 0.48 0.199 0.848 1.363 c 0.23 0.73 0.375 1.078 0.461 1.078 c 0.066 0 0.121 -0.031 0.121 -0.063 c 0 -0.211 0.18 -2.035 0.215 -2.191 c 0.051 -0.227 0.332 -0.254 0.414 -0.043 c 0.051 0.129 0.203 1.828 0.211 2.34 c 0 0.125 0.137 0.227 0.516 0.395 c 0.859 0.379 0.582 0.523 -1.121 0.586 l -0.898 0.031 m -6.121 -1 c 0.379 -0.512 0.133 -1.789 -0.379 -1.953 c -0.652 -0.207 -1.117 1.473 -0.57 2.059 c 0.25 0.266 0.715 0.215 0.949 -0.105 m 5.523 -0.855 c 0 -0.234 -0.203 -0.289 -0.285 -0.078 c -0.086 0.223 -0.059 0.289 0.117 0.289 c 0.121 0 0.168 -0.059 0.168 -0.211"/><path d="m 4.719 22.13 c -1.035 -0.461 -1.387 -1.953 -0.68 -2.898 c 0.434 -0.582 1.508 -0.844 1.891 -0.461 c 0.281 0.277 0.148 0.426 -0.441 0.492 c -0.738 0.082 -0.938 0.277 -0.988 0.949 c -0.043 0.59 0.074 0.945 0.387 1.191 c 0.445 0.352 0.699 0.188 0.816 -0.527 c 0.039 -0.234 0.094 -0.316 0.211 -0.316 c 0.27 0 0.422 0.324 0.422 0.906 c 0 0.531 -0.004 0.535 -0.293 0.656 c -0.344 0.145 -1 0.148 -1.324 0.008"/><path d="m 9.625 22.1 c -0.359 -0.184 -0.832 -0.859 -0.902 -1.293 c -0.027 -0.184 -0.074 -0.344 -0.105 -0.363 c -0.031 -0.02 -0.262 0.035 -0.516 0.121 l -0.461 0.156 v 0.406 c 0 0.375 0.02 0.406 0.254 0.477 c 0.375 0.109 0.656 0.254 0.691 0.359 c 0.047 0.152 -0.281 0.195 -1.035 0.141 l -0.695 -0.047 l -0.059 -0.801 c -0.035 -0.438 -0.043 -1.16 -0.02 -1.602 c 0.051 -0.957 0.105 -1.027 0.863 -1.027 c 0.605 0 0.902 0.152 0.727 0.367 c -0.063 0.074 -0.238 0.18 -0.391 0.234 c -0.328 0.121 -0.5 0.414 -0.352 0.602 c 0.105 0.133 0.578 0.313 0.816 0.313 c 0.086 0 0.203 -0.137 0.301 -0.355 c 0.293 -0.652 0.813 -1.117 1.297 -1.16 c 0.566 -0.047 0.68 0 1.191 0.508 c 0.547 0.539 0.703 0.605 0.789 0.332 c 0.203 -0.645 1.695 -1.121 2.102 -0.672 c 0.242 0.27 0.109 0.406 -0.465 0.473 c -0.359 0.039 -0.59 0.117 -0.742 0.25 c -0.207 0.176 -0.223 0.238 -0.223 0.879 c 0 0.668 0.008 0.691 0.273 0.934 c 0.504 0.449 0.781 0.309 0.902 -0.449 c 0.063 -0.371 0.293 -0.43 0.504 -0.129 c 0.137 0.195 0.18 1.035 0.063 1.219 c -0.094 0.148 -0.492 0.277 -0.867 0.277 c -0.414 0 -0.824 -0.207 -1.422 -0.719 c -0.41 -0.355 -0.469 -0.379 -0.547 -0.246 c -0.484 0.828 -1.293 1.164 -1.973 0.816 m 0.945 -0.727 c 0.25 -0.23 0.348 -0.645 0.293 -1.23 c -0.059 -0.598 -0.246 -0.84 -0.645 -0.84 c -0.438 0 -0.617 0.215 -0.664 0.797 c -0.051 0.59 0.027 0.98 0.242 1.254 c 0.215 0.273 0.492 0.281 0.773 0.02"/><path d="m 15.04 22.05 c -0.125 -0.191 -0.133 -2.68 -0.012 -3.051 c 0.098 -0.297 0.145 -0.34 0.402 -0.363 c 0.824 -0.078 1.465 0.25 1.566 0.801 c 0.043 0.223 0.004 0.43 -0.156 0.816 c -0.23 0.563 -0.223 0.82 0.031 1.148 c 0.156 0.199 0.168 0.203 0.281 0.055 c 0.066 -0.086 0.262 -0.559 0.434 -1.055 c 0.355 -1.012 0.555 -1.449 0.758 -1.648 c 0.129 -0.129 0.152 -0.129 0.305 0.008 c 0.191 0.176 0.328 0.473 0.656 1.426 c 0.297 0.867 0.461 1.184 0.543 1.051 c 0.031 -0.055 0.082 -0.609 0.109 -1.238 c 0.059 -1.391 0.07 -1.41 0.867 -1.363 c 0.434 0.023 0.641 0.082 0.906 0.262 l 0.344 0.227 l 0.254 -0.27 c 0.242 -0.258 0.258 -0.262 0.414 -0.121 c 0.09 0.082 0.211 0.328 0.266 0.543 c 0.129 0.512 0.215 0.605 0.555 0.605 c 0.332 0 0.539 -0.242 0.539 -0.641 c 0 -0.145 0.074 -0.355 0.164 -0.465 c 0.156 -0.191 0.168 -0.191 0.316 -0.047 c 0.137 0.137 0.152 0.301 0.141 1.531 c -0.012 1.645 -0.043 1.813 -0.324 1.813 c -0.227 0 -0.246 -0.055 -0.332 -0.801 c -0.055 -0.477 -0.203 -0.633 -0.602 -0.633 c -0.348 0 -0.422 0.109 -0.496 0.711 c -0.082 0.668 -0.109 0.723 -0.383 0.723 c -0.301 0 -0.34 -0.109 -0.398 -1.113 l -0.043 -0.816 l -0.348 0.281 c -0.191 0.156 -0.504 0.359 -0.691 0.457 c -0.406 0.203 -0.453 0.297 -0.453 0.871 v 0.422 l -0.684 -0.031 c -0.602 -0.027 -0.703 -0.055 -0.82 -0.227 c -0.41 -0.586 -0.566 -0.711 -0.801 -0.656 c -0.129 0.035 -0.324 0.203 -0.457 0.387 c -0.27 0.387 -0.496 0.508 -0.938 0.508 c -0.398 0 -0.684 -0.211 -0.887 -0.664 c -0.172 -0.387 -0.254 -0.383 -0.332 0.016 c -0.098 0.527 -0.504 0.844 -0.695 0.543 m 3.563 -1.543 c 0.031 -0.07 -0.008 -0.191 -0.082 -0.266 c -0.125 -0.125 -0.141 -0.121 -0.188 0.008 c -0.066 0.168 0.008 0.391 0.133 0.391 c 0.047 0 0.109 -0.059 0.137 -0.133 m -2.492 -0.508 c 0.102 -0.266 -0.004 -0.664 -0.18 -0.664 c -0.125 0 -0.215 0.543 -0.125 0.77 c 0.07 0.184 0.215 0.137 0.305 -0.105 m 5.04 -0.016 c 0.066 -0.168 0.07 -0.305 0.012 -0.465 c -0.152 -0.395 -0.512 -0.227 -0.512 0.238 c 0 0.473 0.332 0.625 0.5 0.227"/><path d="m 27.3 22.15 c -0.34 -0.133 -0.754 -0.582 -1.035 -1.125 l -0.266 -0.508 l -0.047 0.707 c -0.039 0.559 -0.082 0.727 -0.207 0.82 c -0.215 0.156 -0.266 0.148 -0.418 -0.07 c -0.191 -0.273 -0.191 -2.887 0 -3.164 c 0.313 -0.445 0.566 -0.098 0.629 0.867 l 0.043 0.672 l 0.238 -0.48 c 0.531 -1.074 1.66 -1.645 2.199 -1.105 c 0.25 0.25 0.121 0.402 -0.426 0.5 c -0.617 0.109 -0.676 0.141 -0.848 0.477 c -0.094 0.184 -0.125 0.414 -0.098 0.805 c 0.031 0.48 0.066 0.57 0.293 0.773 c 0.184 0.168 0.387 0.246 0.73 0.289 c 0.258 0.035 0.496 0.102 0.527 0.152 c 0.031 0.051 -0.047 0.18 -0.172 0.289 c -0.246 0.211 -0.75 0.258 -1.145 0.102"/></g></svg>