<svg xmlns="http://www.w3.org/2000/svg" viewBox="0 0 32 32"><path d="m 24.23 2.684 c 28.16 23.891 -29.75 46.863 -23.797 9.914 c 1.305 -8.102 16.207 -16.352 23.797 -9.914" fill="#00707d"/><path d="m 161.14 34.36 c -44.25 16.215 -88.73 31.87 -132.74 48.739 c 8.679 20.795 14.953 42.524 23.02 63.6 c 9.717 27.01 19.528 54.02 29.811 80.84 c 48.774 -18.318 98.07 -35.19 146.65 -53.879 c -9.151 -22.57 -16.13 -45.935 -24.811 -68.74 c -9.151 -25.281 -18.396 -50.51 -27.736 -75.75 c -4.717 1.729 -9.481 3.458 -14.198 5.187" transform="matrix(0.08281 0 0 0.08359 5.05 5.643)" fill="#5b4e0a" stroke="#adadad" stroke-linejoin="round" stroke-linecap="round" stroke-width="9.204"/><path d="m 13.98 6.336 c -0.418 -0.051 -2.176 0.281 -2.152 0.863 c 0.023 0.566 0.832 1.676 1.5 2.801 c 0.664 1.125 2.301 3.375 2.629 3.918 c 0.309 0.512 0.113 0.848 -0.465 0.758 c -0.566 -0.086 -2.617 -0.395 -4.914 0.691 c -2.266 1.066 -3.539 3.266 -3.461 5.465 c 0.082 2.203 0.898 3.965 2.957 4.902 c 2.059 0.934 5.262 0.793 7.03 -0.293 c 1.781 -1.098 2.719 -2.215 3.422 -3.457 c 0.539 -0.961 1.09 -2.797 0.699 -3.03 c -0.391 -0.23 -1.063 1.398 -1.871 2.289 c -0.813 0.887 -2.141 2.043 -3.613 2.258 c -1.516 0.219 -2.91 -0.367 -3.492 -1.75 c -0.582 -1.387 0.074 -3.18 1.191 -3.949 c 1.117 -0.773 2.637 -1.012 3.531 -1.063 c 0.852 -0.051 1.383 0.754 0.637 1.105 c -0.797 0.375 -1.832 0.344 -2.461 0.945 c -0.633 0.605 -0.793 1.164 -0.422 1.793 c 0.375 0.625 1.566 0.793 2.652 0.16 c 1.086 -0.633 2.01 -1.422 2.73 -2.207 c 0.742 -0.809 0.77 -1.418 0.227 -2.531 c -0.574 -1.168 -3.301 -4.789 -3.559 -5.254 c -0.238 -0.434 -0.246 -0.621 0.207 -0.613 c 0.496 0.008 1.422 0.34 2.648 0.582 c 1.188 0.238 2.691 0.453 3.03 1.656 c 0.34 1.199 -0.563 4.03 -0.094 4.18 c 0.43 0.137 1.539 -4.34 1.613 -5.258 c 0.07 -0.875 -0.305 -1.504 -1.254 -1.98 c -0.914 -0.457 -3.938 -0.961 -5.457 -1.59 c -1.469 -0.609 -3.098 -1.348 -3.484 -1.395" fill="#0697c0"/></svg>