<svg xmlns="http://www.w3.org/2000/svg" viewBox="0 0 32 32"><path d="m 30.527 23.566 c -6.297 15.12 -30.688 8.375 -30.527 -8.09 c -0.242 -14.969 19.15 -20.645 27.648 -9.984 c 4.25 4.613 5.734 12.25 2.879 18.08" fill="#69594c"/><path d="m 29.06 22.629 c -5.633 13.641 -27.438 7.555 -27.29 -7.305 c -0.219 -13.508 17.12 -18.633 24.715 -9.01 c 3.801 4.16 5.129 11.05 2.578 16.313" fill="#fff4ed"/><g transform="matrix(0.12063 0 0 0.11913 1.362 1.085)"><path d="m 84.981 100.94 h 76.29 c 7.351 0 13.309 8.03 13.309 17.937 v 37.775 c 0 9.903 -5.958 17.937 -13.309 17.937 h -76.29 c -7.351 0 -13.309 -8.03 -13.309 -17.937 v -37.775 c 0 -9.903 5.958 -17.937 13.309 -17.937" fill="#d4c1b2" stroke="#d4c1b2" stroke-width="2.127"/><g fill="#69594c" stroke="#69594c" stroke-width="2.169"><path d="m 71.7 182.82 c -1.457 -0.393 -3.659 -2.099 -4.89 -3.771 c -2.234 -2.984 -2.267 -4.066 -2.267 -49.32 c 0 -52.24 -0.227 -50.662 8.355 -56.34 l 4.501 -2.984 h 44.33 c 38.21 0 44.46 0.23 45.34 1.607 c 1.619 2.591 1.231 6.03 -0.907 7.968 c -1.781 1.607 -6.379 1.804 -43.13 1.836 c -45.37 0 -46.31 0.131 -46.89 6.165 l -0.324 3.41 l 48.06 0.459 c 26.424 0.23 49.12 0.82 50.45 1.279 c 4.695 1.64 6.185 5.706 6.638 18.13 c 0.389 11.28 0.324 11.674 -2.364 14.395 c -3.53 3.509 -5.408 3.509 -8.225 -0.098 c -1.878 -2.361 -2.234 -4.394 -2.234 -11.936 v -9.05 h -91.12 v 66.14 h 91.12 l 0.097 -5.148 c 0.162 -7.772 1.198 -10.329 4.534 -11.215 c 5.116 -1.377 7.221 1.508 7.901 10.952 c 0.777 10.132 -1.295 15.02 -7.124 17.02 c -4.145 1.41 -96.95 1.836 -101.88 0.459"/><path d="m 138.93 144.88 c -1.911 -3.607 -1.36 -6.394 1.813 -8.886 c 2.882 -2.295 3.562 -2.328 20.336 -1.607 c 20.304 0.918 24.805 2 25.291 6.066 c 0.615 5.312 -1.49 5.837 -24.805 6.263 c -20.628 0.328 -21.502 0.262 -22.635 -1.836"/></g></g></svg>