<svg xmlns="http://www.w3.org/2000/svg" xmlns:xlink="http://www.w3.org/1999/xlink" viewBox="0 0 32 32"><defs><g id="3" clip-path="url(#2)"><path d="m 11.945 22.04 c -0.07 -0.043 -0.09 -0.184 -0.082 -0.531 c 0.012 -0.602 0.035 -0.766 0.309 -2.043 c 0.23 -1.098 0.262 -1.375 0.156 -1.375 c -0.035 0 -0.34 0.348 -0.676 0.77 c -0.336 0.422 -0.664 0.785 -0.723 0.809 c -0.082 0.035 -0.211 -0.059 -0.48 -0.34 l -0.363 -0.383 l -0.734 0.605 c -1.074 0.898 -1.484 1.109 -1.484 0.773 c 0 -0.117 0.105 -0.25 0.402 -0.496 c 0.488 -0.406 0.957 -0.926 1.289 -1.441 c 0.199 -0.305 0.246 -0.441 0.246 -0.688 c 0 -0.328 -0.176 -0.637 -0.313 -0.551 c -0.039 0.023 -0.313 0.34 -0.605 0.703 c -1.195 1.488 -2.121 2.266 -3 2.535 c -1.207 0.367 -1.98 -0.391 -1.879 -1.84 c 0.09 -1.348 0.746 -2.324 2.145 -3.195 c 0.348 -0.219 0.648 -0.43 0.66 -0.473 c 0.016 -0.039 -0.133 -0.18 -0.328 -0.309 c -0.422 -0.281 -0.578 -0.563 -0.57 -1.055 c 0.004 -0.734 0.594 -1.492 1.508 -1.949 c 1.215 -0.609 2.656 -0.609 3.113 0.004 c 0.113 0.152 0.113 0.184 0.023 0.395 c -0.129 0.309 -0.539 0.695 -1.117 1.055 c -0.578 0.363 -1.34 0.691 -1.531 0.66 c -0.121 -0.02 -0.012 -0.152 0.707 -0.891 c 0.465 -0.48 0.879 -0.938 0.922 -1.02 c 0.301 -0.57 -0.836 -0.121 -1.602 0.629 c -0.688 0.68 -0.887 1.301 -0.555 1.75 c 0.234 0.32 0.508 0.445 0.973 0.449 c 0.301 0 0.422 0.031 0.504 0.121 c 0.172 0.191 0.063 0.316 -0.402 0.469 c -1.285 0.422 -2.215 1.227 -2.797 2.418 c -0.27 0.559 -0.402 1.086 -0.328 1.336 c 0.082 0.281 0.246 0.449 0.48 0.484 c 0.582 0.094 1.313 -0.387 2.652 -1.75 l 1.02 -1.035 l -0.039 -0.551 c -0.031 -0.434 -0.02 -0.578 0.055 -0.68 c 0.094 -0.125 0.102 -0.125 0.371 -0.004 c 0.391 0.18 0.645 0.438 0.648 0.656 c 0 0.313 0.07 0.477 0.199 0.477 c 0.086 0 0.289 -0.254 0.672 -0.832 c 0.301 -0.461 0.59 -0.852 0.641 -0.871 c 0.168 -0.063 0.559 0.086 0.613 0.234 c 0.113 0.305 -0.039 0.617 -0.91 1.859 c -0.762 1.094 -0.988 1.621 -0.738 1.719 c 0.359 0.137 1.625 -1.379 2.504 -2.996 c 0.551 -1.012 0.766 -1.246 1.18 -1.293 c 0.16 -0.02 0.367 -0.016 0.457 0.008 c 0.141 0.035 0.164 0.078 0.164 0.289 c 0 0.297 0.074 0.367 0.43 0.41 c 0.344 0.047 0.602 0.219 0.711 0.48 c 0.07 0.168 0.074 0.34 0.02 0.867 c -0.035 0.363 -0.055 0.668 -0.043 0.684 c 0.016 0.012 0.195 -0.152 0.398 -0.367 c 0.305 -0.316 0.367 -0.418 0.328 -0.531 c -0.129 -0.406 -0.117 -0.496 0.09 -0.688 c 0.246 -0.227 0.66 -0.332 1.34 -0.332 c 0.605 0 0.766 0.074 0.715 0.324 c -0.02 0.102 -0.27 0.703 -0.555 1.336 c -0.57 1.277 -0.648 1.512 -0.516 1.512 c 0.164 0 1.188 -1.129 1.641 -1.813 c 0.563 -0.844 0.895 -1.215 1.23 -1.367 c 0.34 -0.156 0.516 -0.148 0.91 0.035 c 0.973 0.453 0.805 0.937 -0.797 2.316 c -0.332 0.281 -0.617 0.582 -0.637 0.668 c -0.051 0.199 0.188 0.547 0.375 0.547 c 0.191 0 0.996 -0.848 2.051 -2.164 c 0.48 -0.605 0.977 -1.164 1.098 -1.246 c 0.211 -0.141 0.531 -0.188 0.742 -0.109 c 0.145 0.059 0.133 0.473 -0.023 1.031 c -0.137 0.465 -0.176 1.094 -0.074 1.156 c 0.121 0.074 0.59 -0.363 1.227 -1.148 c 0.699 -0.859 0.977 -1.078 1.383 -1.078 c 0.422 0 0.445 0.133 0.211 1.063 c -0.172 0.672 -0.199 0.98 -0.102 1.133 c 0.07 0.109 0.063 0.117 0.766 -0.504 c 0.73 -0.645 0.676 -0.398 -0.105 0.473 c -0.504 0.566 -0.645 0.805 -0.723 1.219 c -0.152 0.813 -0.504 1.285 -1.063 1.41 c -0.422 0.094 -0.859 0.035 -1.145 -0.156 c -0.52 -0.352 -0.156 -1.063 0.82 -1.613 l 0.387 -0.215 l -0.004 -0.484 c -0.004 -0.543 -0.063 -0.836 -0.168 -0.836 c -0.113 0 -1.152 1.047 -1.316 1.324 c -0.082 0.145 -0.195 0.449 -0.254 0.68 c -0.133 0.531 -0.363 0.922 -0.641 1.094 c -0.266 0.164 -0.891 0.289 -1.172 0.238 c -0.227 -0.043 -0.746 -0.449 -0.746 -0.582 c 0 -0.16 0.512 -0.727 0.914 -1.012 c 0.715 -0.508 0.727 -0.523 0.68 -1 c -0.055 -0.512 -0.137 -0.738 -0.266 -0.738 c -0.055 0 -0.238 0.195 -0.406 0.43 c -1.156 1.621 -1.602 2.156 -1.992 2.387 c -0.324 0.195 -0.539 0.199 -0.766 0.023 c -0.227 -0.18 -0.332 -0.398 -0.453 -0.938 c -0.059 -0.246 -0.117 -0.512 -0.137 -0.594 c -0.016 -0.078 -0.074 -0.145 -0.121 -0.145 c -0.051 0 -0.328 0.277 -0.617 0.613 c -0.715 0.836 -1.246 1.277 -1.516 1.25 l -0.199 -0.02 l 0.012 -0.582 c 0.012 -0.566 0.156 -1.402 0.387 -2.211 c 0.059 -0.223 0.09 -0.426 0.066 -0.449 c -0.07 -0.07 -0.375 0.242 -1.145 1.172 c -0.824 1 -1.422 1.574 -1.852 1.785 c -0.266 0.129 -0.402 0.152 -0.848 0.145 c -0.633 -0.012 -0.547 -0.113 -0.992 1.148 c -0.48 1.371 -0.598 1.547 -0.895 1.355 m 11.816 -2.703 c 0.18 -0.148 0.246 -0.586 0.117 -0.758 c -0.082 -0.109 -0.113 -0.117 -0.266 -0.047 c -0.152 0.07 -0.359 0.41 -0.359 0.594 c 0 0.082 0.238 0.324 0.316 0.324 c 0.031 0 0.117 -0.051 0.191 -0.113 m 2.793 -0.098 c 0.172 -0.188 0.16 -0.715 -0.02 -0.746 c -0.188 -0.035 -0.5 0.332 -0.5 0.586 c 0 0.121 0.02 0.238 0.043 0.262 c 0.09 0.094 0.348 0.039 0.477 -0.102 m -12.344 -0.324 c 0.527 -0.355 1.16 -2.402 0.895 -2.895 c -0.172 -0.32 -0.422 -0.066 -0.871 0.875 c -0.391 0.82 -0.68 1.59 -0.68 1.809 c 0 0.184 0.156 0.359 0.32 0.359 c 0.063 0 0.215 -0.066 0.336 -0.148 m 7.07 -2.059 c 0.184 -0.219 0.422 -0.656 0.422 -0.77 c 0 -0.039 -0.066 -0.063 -0.145 -0.051 c -0.176 0.023 -0.633 0.656 -0.633 0.871 c 0 0.211 0.152 0.188 0.355 -0.051" fill="#fff"/></g><clipPath id="2"><path d="M 0,0 H32 V32 H0 z"/></clipPath><filter id="0" filterUnits="objectBoundingBox" x="0" y="0" width="32" height="32"><feColorMatrix type="matrix" in="SourceGraphic" values="0 0 0 0 1 0 0 0 0 1 0 0 0 0 1 0 0 0 1 0"/></filter><mask id="1"><g filter="url(#0)"><path fill-opacity="0.902" d="M 0,0 H32 V32 H0 z"/></g></mask></defs><path d="m 25.434 5.03 c 26.26 27.773 -36.895 41.02 -23.516 5.05 c 3.332 -8.957 14.637 -14.449 23.516 -5.05" fill="#131313"/><use xlink:href="#3" mask="url(#1)"/></svg>