<svg xmlns="http://www.w3.org/2000/svg" viewBox="0 0 32 32"><path d="m 13 31.391 c -2.922 -1.254 -6.984 -3.098 -7.344 -3.336 c -0.223 -0.145 -0.594 -0.52 -0.828 -0.828 c -0.668 -0.883 -4.262 -7.188 -4.418 -7.75 c -0.145 -0.52 -0.078 -2.422 0.141 -4.141 c 0.504 -5.082 0.25 -4.961 0.914 -6.05 c 0.141 -0.293 1.57 -1.977 3.18 -3.734 c 3.094 -3.379 3.422 -3.652 4.727 -3.906 c 3.52 -0.609 5.734 -1.363 8.891 -1.547 c 2.805 1.203 5.832 2.461 8.484 3.969 c 0.414 0.359 1.027 1.293 2.41 3.66 c 2.828 4.848 2.602 4.316 2.586 6.02 c -0.285 2.645 -0.27 7.05 -1.18 8.922 c -0.316 0.59 -4.438 5.266 -5.742 6.512 c -0.645 0.621 -1.297 0.898 -2.805 1.215 c -1.523 0.57 -5.105 1.164 -6.332 1.387 c -0.711 0.168 -1.535 0.109 -2.688 -0.387" fill="#9370db"/><path d="m 125.53 213.27 c -2.17 -0.804 -12.495 -4.262 -22.96 -7.686 c -18.725 -6.149 -19.07 -6.288 -22.61 -9.782 c -1.995 -1.991 -5.425 -4.926 -7.665 -6.603 c -3.22 -2.376 -4.935 -4.472 -8.01 -9.852 c -2.17 -3.738 -6.755 -10.271 -10.185 -14.533 c -3.465 -4.262 -6.755 -8.489 -7.385 -9.432 c -0.98 -1.502 -1.015 -5.03 -0.315 -31.476 l 0.77 -29.765 l 8.08 -12.646 c 10.675 -16.734 19.775 -29.73 21.7 -31.02 c 0.875 -0.559 9.66 -3.493 19.53 -6.533 c 9.87 -3.039 21.665 -6.708 26.18 -8.14 c 4.55 -1.467 9.45 -2.62 10.92 -2.62 c 1.435 0 8.715 2.166 16.13 4.821 c 7.455 2.655 18.06 6.428 23.59 8.384 c 5.53 1.956 10.57 3.773 11.2 4.052 c 1.82 0.734 20.02 24.909 33.32 44.19 l 2.59 3.773 l -1.82 52.682 l -5.845 9.258 c -3.22 5.101 -7.7 12.996 -9.975 17.537 c -4.305 8.629 -11.27 17.677 -14.77 19.18 c -0.98 0.419 -5.845 1.956 -10.78 3.424 c -4.935 1.467 -16.765 5.275 -26.32 8.489 c -9.555 3.214 -18.305 5.834 -19.39 5.799 c -1.12 -0.035 -3.815 -0.699 -5.985 -1.502" transform="matrix(0.11161 0 0 0.11182 1.111 2.126)" fill="#3f2fa2" stroke="#3f2fa2" stroke-width="1.046"/><path d="m 13.527 20.414 l -1.074 -3.02 l -1.094 -3.371 l 2.426 -1.859 l 2.758 -1.973 l 2.578 1.863 l 2.793 2.152 l -0.832 3.01 l -1.031 3.305 h -3.09" fill="#9c9cff"/><path d="m 10.402 23.73 c -0.047 -0.059 -0.371 -0.336 -0.715 -0.621 c -0.559 -0.461 -0.691 -0.609 -1.164 -1.32 c -0.293 -0.438 -0.75 -1.07 -1.012 -1.406 c -0.262 -0.336 -0.566 -0.73 -0.676 -0.875 l -0.203 -0.262 v -1.168 c 0.004 -1.426 0.109 -4.988 0.148 -5.03 c 0.02 -0.016 0.859 0.203 1.871 0.488 l 1.836 0.516 l 0.621 1.855 c 0.758 2.262 1.766 5 1.867 5.066 c 0.055 0.031 0.031 0.09 -0.082 0.215 c -0.398 0.434 -2.328 2.555 -2.367 2.598 c -0.023 0.023 -0.082 0 -0.125 -0.055" fill="#3754ff"/><path d="m 9 13 c -0.984 -0.277 -1.832 -0.516 -1.879 -0.523 c -0.121 -0.027 2.324 -3.656 2.719 -4.03 c 0.191 -0.184 0.676 -0.352 3.359 -1.164 c 2.238 -0.68 2.73 -0.809 2.797 -0.734 c 0.043 0.047 0.445 2.961 0.414 2.984 c -0.645 0.422 -3.555 2.473 -4.367 3.074 c -0.617 0.457 -1.152 0.848 -1.184 0.867 c -0.035 0.016 -0.871 -0.195 -1.859 -0.477" fill="#5b85ff"/><path d="m 21.02 12.816 c -0.734 -0.555 -1.906 -1.406 -2.598 -1.891 c -0.695 -0.488 -1.277 -0.91 -1.297 -0.941 c -0.031 -0.047 -0.457 -3.133 -0.457 -3.293 c 0 -0.059 0.352 0.059 2.891 0.934 c 1.07 0.371 1.988 0.703 2.035 0.742 c 0.117 0.09 1.141 1.371 1.809 2.262 c 1.242 1.652 1.848 2.531 1.773 2.559 c -0.164 0.063 -2.641 0.641 -2.727 0.641 c -0.051 -0.004 -0.691 -0.457 -1.43 -1.012" fill="#7571e3"/><path d="m 21.438 22.15 l -0.863 -1.297 l 0.57 -1.758 c 0.309 -0.969 0.75 -2.406 0.973 -3.199 l 0.41 -1.441 l 0.707 -0.168 c 0.391 -0.09 1.023 -0.242 1.41 -0.336 c 0.387 -0.094 0.711 -0.16 0.723 -0.148 c 0.023 0.023 -0.102 3.922 -0.152 4.641 l -0.031 0.5 l -0.535 0.84 c -0.297 0.465 -0.75 1.23 -1.012 1.699 c -0.488 0.879 -0.754 1.289 -1.121 1.719 l -0.215 0.246" fill="#6b19d1"/><path d="m 13.57 24.996 c -1.09 -0.367 -2.094 -0.707 -2.238 -0.758 l -0.262 -0.09 l 1.418 -1.57 l 1.414 -1.574 l 0.73 0.039 c 0.402 0.023 1.781 0.059 3.063 0.082 l 2.332 0.043 l 0.879 1.316 c 0.48 0.727 0.879 1.332 0.879 1.344 c 0 0.016 -0.074 0.047 -0.168 0.07 c -0.094 0.023 -1.344 0.418 -2.785 0.879 c -1.613 0.516 -2.742 0.848 -2.949 0.859 c -0.297 0.023 -0.57 -0.055 -2.313 -0.641" fill="#2a1a90"/><g fill="#3f2fa2"><path d="m 14.43 16.469 c 0 -1.102 -0.02 -2 -0.043 -2 c -0.023 0 -0.125 0.059 -0.23 0.133 c -0.328 0.234 -0.797 0.445 -0.852 0.383 c -0.027 -0.031 -0.074 -0.129 -0.102 -0.211 c -0.039 -0.133 0.004 -0.184 0.305 -0.336 c 0.195 -0.098 0.527 -0.32 0.742 -0.492 c 0.23 -0.191 0.457 -0.316 0.563 -0.316 h 0.176 v 4.848 h -0.559"/><path d="m 16.918 18.242 c 0.086 -0.559 0.363 -0.996 1.191 -1.871 c 0.621 -0.66 0.82 -0.918 0.879 -1.145 c 0.102 -0.379 0 -0.766 -0.258 -0.969 c -0.332 -0.262 -1.105 -0.168 -1.504 0.184 c -0.102 0.086 -0.129 0.078 -0.238 -0.09 c -0.16 -0.246 -0.09 -0.355 0.355 -0.586 c 0.484 -0.25 1.266 -0.254 1.699 -0.004 c 0.43 0.246 0.609 0.57 0.609 1.09 c 0 0.563 -0.176 0.852 -1.113 1.844 c -0.672 0.711 -0.957 1.09 -0.957 1.281 c 0 0.047 0.387 0.074 1.125 0.074 h 1.121 v 0.492 h -2.957"/></g></svg>