<svg xmlns="http://www.w3.org/2000/svg" viewBox="0 0 32 32"><path d="m 0.121 15.945 c -2.422 -21.473 32.26 -21.18 31.852 0.383 c 1.145 20.05 -33.742 21.859 -31.852 -0.383" fill="#b0c3de"/><path d="m 7.086 12.578 h 4.164 c 0.074 0 0.137 0.059 0.137 0.133 v 6.262 c 0 0.074 -0.063 0.133 -0.137 0.133 h -4.164 c -0.074 0 -0.137 -0.059 -0.137 -0.133 v -6.262 c 0 -0.074 0.063 -0.133 0.137 -0.133" fill="#e6e7ef"/><path d="m 27.391 21.13 c -0.059 -0.063 -2.273 -0.383 -3.367 -0.488 c -2.59 -0.371 -5.484 -0.734 -7.59 -1.152 c -0.996 -0.074 -0.633 -1.246 -0.633 -1.988 c 0 -1.84 0.004 -1.879 0.238 -1.996 c 0.207 -0.109 1.188 -0.348 3.293 -0.813 c 0.793 -0.176 2 -0.445 2.902 -0.648 c 0.375 -0.086 0.969 -0.199 1.316 -0.25 c 0.902 -0.137 3.34 -0.66 3.66 -0.789 c 0.637 -0.25 1.246 4.129 0.891 6.375 c -0.199 1.277 -0.484 1.973 -0.711 1.75" fill="#3b58fb"/><path d="m 21.01 25.1 c -1.832 -0.93 -3.574 -1.898 -5.453 -2.852 c -2.535 -1.57 -1.168 -0.867 0.449 -2.785 c 0.055 -0.035 0.473 0.008 0.926 0.09 c 0.453 0.082 1.324 0.227 1.934 0.32 c 5.109 0.77 5.125 0.773 5.03 1.086 c -0.555 1.734 -1.41 3.59 -1.891 4.105 c -0.27 0.289 -0.422 0.293 -0.992 0.035" fill="#1c2577"/><path d="m 16.11 15.422 c -0.258 -0.031 -0.258 -0.023 -0.387 -1.641 c -0.004 -0.988 -0.855 -2.141 0.16 -2.527 c 0.246 -0.09 1.012 -0.414 1.703 -0.719 c 1.984 -0.871 3.133 -1.293 3.531 -1.293 c 0.313 0 0.387 0.039 0.609 0.313 c 0.629 0.77 1.41 2.867 1.418 3.809 l 0.004 0.582 l -2.922 0.684 c -2.961 0.695 -3.719 0.84 -4.121 0.793" fill="#8c9dff"/><path d="m 8.691 21.2 c -2.672 -0.016 -3.145 -0.035 -3.516 -0.16 c -0.508 -0.168 -0.938 -0.535 -1.18 -1 c -0.176 -0.332 -0.18 -0.414 -0.203 -4.148 c -0.027 -4.313 -0.059 -4.098 0.625 -4.754 c 0.387 -0.504 0.875 -0.398 1.465 -0.43 c 1.375 -0.082 8.04 0.023 8.582 0.133 c 0.531 0.102 1.027 0.523 1.199 1.012 c 0.152 0.445 0.227 3.03 0.148 5.266 c -0.031 0.871 -0.039 1.809 -0.016 2.082 c 0.035 0.449 0.016 0.543 -0.199 0.906 c -0.316 0.527 -0.621 0.758 -1.289 0.969 c -1.18 0.418 -3.773 0.16 -5.617 0.129 m 0.215 -2.859 c 0.242 -0.453 -0.121 -1.582 0.305 -1.848 c 0.074 -0.039 0.41 -0.066 0.746 -0.059 c 0.766 0.016 0.887 -0.066 0.887 -0.609 v -0.395 l -0.379 -0.055 c -0.207 -0.027 -0.609 -0.051 -0.895 -0.051 h -0.516 c 0 -0.27 0 -0.539 0 -0.813 l 0.879 -0.043 c 1.098 -0.051 1.234 -0.117 1.23 -0.586 c 0 -0.609 0.02 -0.602 -1.598 -0.598 c -1.613 0.004 -1.855 0.043 -1.938 0.301 c -0.094 0.305 -0.059 4.449 0.039 4.637 c 0.047 0.094 0.168 0.188 0.27 0.211 c 0.238 0.051 0.891 -0.012 0.969 -0.094" fill="#5562b7"/></svg>