<svg xmlns="http://www.w3.org/2000/svg" viewBox="0 0 32 32"><defs><linearGradient id="0" gradientUnits="userSpaceOnUse" x1="8.954" y1="964.04" x2="91.58" y2="1030.38" gradientTransform="matrix(0.18195 0 0 0.16839 6.903 -152.51)"><stop stop-color="#00f"/><stop offset="1" stop-color="#19007f"/></linearGradient></defs><path d="m 16.08 31.609 c -21.289 2.371 -20.996 -31.578 0.379 -31.18 c 19.879 -1.117 21.672 33.03 -0.379 31.18" fill="#0000cd"/><path d="m 6.902 7.852 h 18.2 v 16.84 h -18.2" fill="url(#0)"/><g fill="#2a0000"><path d="m 6.902 22.332 h 18.2 v 1.18 h -18.2"/><path d="m 6.902 23.512 h 18.2 v 1.18 h -18.2"/></g><g fill="#007f7f"><path d="m 7.629 23.512 h 2.914 v 1.18 h -2.914"/><path d="m 11.27 23.5 h 2.91 v 1.191 h -2.91"/><path d="m 14.906 23.5 h 2.914 v 1.191 h -2.914"/><path d="m 22.19 23.512 h 2.91 v 1.18 h -2.91"/><path d="m 18.547 23.5 h 2.91 v 1.191 h -2.91"/></g><g fill="#54ddff"><path d="m 6.902 21.66 h 18.2 v 0.672 h -18.2"/><path d="m 6.902 8.355 h 0.727 v 13.473 h -0.727"/><path d="m 6.902 7.852 h 18.2 v 0.672 h -18.2"/><path d="m 24.371 8.355 h 0.727 v 13.473 h -0.727"/><path d="m 15.637 8.355 h 0.727 v 13.473 h -0.727"/><path d="m 6.902 19.469 h 18.2 v 0.508 h -18.2"/><path d="m 12.727 8.355 h 0.543 v 11.11 h -0.543"/><path d="m 21.457 8.355 h 0.547 v 11.11 h -0.547"/><path d="m 8.176 10.715 h 4 v 0.504 h -4"/><path d="m 8.176 11.895 h 4 v 0.504 h -4"/><path d="m 8.176 13.07 h 4 v 0.508 h -4"/><path d="m 8.176 14.25 h 4 v 0.504 h -4"/><path d="m 8.176 15.43 h 4 v 0.504 h -4"/><path d="m 13.816 10.715 h 1.273 v 0.504 h -1.273"/><path d="m 13.816 11.895 h 1.273 v 0.504 h -1.273"/><path d="m 13.816 13.07 h 1.273 v 0.508 h -1.273"/><path d="m 13.816 14.25 h 1.273 v 0.504 h -1.273"/><path d="m 13.816 15.43 h 1.273 v 0.504 h -1.273"/><path d="m 16.91 10.715 h 4 v 0.504 h -4"/><path d="m 16.91 11.895 h 4 v 0.504 h -4"/><path d="m 16.91 13.07 h 4 v 0.508 h -4"/><path d="m 22.551 10.715 h 1.273 v 0.504 h -1.273"/><path d="m 22.551 11.895 h 1.273 v 0.504 h -1.273"/><path d="m 22.551 13.07 h 1.273 v 0.508 h -1.273"/></g><g fill="#ff0"><path d="m 8.902 9.03 h 2.914 v 0.504 h -2.914"/><path d="m 13.816 9.03 h 1.457 v 0.504 h -1.457"/><path d="m 17.637 9.03 h 2.91 v 0.504 h -2.91"/><path d="m 22.551 9.03 h 1.453 v 0.504 h -1.453"/></g><g fill="#54ddff"><path d="m 7.996 20.566 h 3.637 v 0.504 h -3.637"/><path d="m 12.18 20.566 h 0.547 v 0.504 h -0.547"/><path d="m 13.27 20.566 h 1.637 v 0.504 h -1.637"/><path d="m 16.727 20.566 h 3.641 v 0.504 h -3.641"/><path d="m 20.914 20.566 h 0.543 v 0.504 h -0.543"/><path d="m 22 20.566 h 1.637 v 0.504 h -1.637"/></g><g fill="#e5e5e5"><path d="m 6.902 22.332 h 0.727 v 1.18 h -0.727"/><path d="m 7.539 22.922 h 0.82 v 0.59 h -0.82"/></g></svg>