<svg xmlns="http://www.w3.org/2000/svg" viewBox="0 0 32 32"><path d="m 24.488 3.305 c -31.805 -17.266 -33.3 45.797 -0.52 24.09 c 8.438 -5.734 12.551 -19.449 0.52 -24.09" fill="#283f70"/><path d="m 8.02 25.629 c -1.414 -0.805 -2.129 -1.508 -2.719 -2.68 c -0.461 -0.918 -0.484 -1.016 -0.484 -2.238 c 0 -1.227 0.023 -1.324 0.484 -2.242 c 0.621 -1.23 1.809 -2.359 2.895 -2.762 c 0.902 -0.328 2.895 -0.637 4.145 -0.637 h 0.922 l 0.063 -1.934 c 0.074 -2.285 0.32 -3.109 1.262 -4.246 c 1.203 -1.453 2.652 -2.125 4.598 -2.121 c 1.098 0 1.219 0.027 2.125 0.488 c 1.246 0.629 2.359 1.672 2.867 2.68 c 1.539 3.063 -0.238 6.715 -3.699 7.598 c -0.414 0.109 -1.313 0.227 -1.996 0.266 c -0.68 0.039 -1.477 0.098 -1.77 0.133 l -0.535 0.063 l -0.059 2.063 c -0.055 1.996 -0.07 2.09 -0.469 2.922 c -0.527 1.105 -1.629 2.18 -2.824 2.758 c -0.813 0.391 -0.992 0.426 -2.309 0.461 l -1.426 0.039 m 2.648 -3.086 c 0.695 -0.348 1.277 -1.039 1.434 -1.699 c 0.102 -0.422 0.18 -3.453 0.09 -3.477 c -0.02 -0.004 -0.762 -0.059 -1.648 -0.121 c -1.398 -0.098 -1.707 -0.086 -2.25 0.102 c -0.742 0.254 -1.547 0.973 -1.824 1.625 c -0.527 1.234 0.02 2.938 1.16 3.621 c 0.594 0.355 2.281 0.328 3.039 -0.051 m 8.273 -8.09 c 1.25 -0.281 2.105 -1.426 2.125 -2.844 c 0.016 -0.883 -0.203 -1.363 -0.941 -2.086 c -0.465 -0.457 -0.566 -0.496 -1.488 -0.582 c -1.551 -0.141 -2.605 0.367 -3.18 1.531 c -0.305 0.617 -0.5 2.656 -0.336 3.52 c 0.086 0.434 0.113 0.457 0.699 0.5 c 1.281 0.102 2.574 0.082 3.121 -0.039" fill="#3768ab"/><path d="m 8.773 25.758 c -0.527 -0.223 -0.883 -0.641 -0.992 -1.16 c -0.063 -0.285 0.008 -0.453 0.328 -0.805 c 0.398 -0.434 0.426 -0.441 1.711 -0.531 c 1.504 -0.102 2.18 -0.363 2.773 -1.078 c 0.496 -0.598 0.609 -1.129 0.613 -2.875 l 0.004 -1.453 l -0.41 -0.078 c -0.223 -0.043 -0.859 -0.078 -1.41 -0.078 c -0.926 0 -1.031 -0.027 -1.344 -0.344 c -0.563 -0.563 -0.672 -0.984 -0.387 -1.516 c 0.359 -0.68 0.91 -0.891 2.328 -0.891 h 1.188 l 0.066 -1.906 c 0.074 -2.266 0.316 -3.047 1.289 -4.203 c 1.383 -1.633 3.586 -2.426 5.625 -2.02 c 0.895 0.176 1.406 0.688 1.398 1.391 c -0.008 0.867 -0.617 1.238 -2.023 1.238 c -0.895 0 -1.164 0.055 -1.766 0.344 c -1.234 0.602 -1.688 1.582 -1.684 3.645 c 0.004 1.555 -0.074 1.48 1.578 1.582 c 1.41 0.086 1.426 0.094 1.813 0.516 c 0.512 0.559 0.52 1.09 0.02 1.664 c -0.371 0.422 -0.371 0.422 -1.859 0.516 c -0.816 0.051 -1.496 0.098 -1.504 0.102 c -0.008 0.004 -0.043 0.926 -0.074 2.047 c -0.055 1.973 -0.07 2.066 -0.469 2.883 c -0.543 1.105 -1.625 2.145 -2.828 2.715 c -0.832 0.391 -1.027 0.43 -2.219 0.457 c -0.949 0.023 -1.434 -0.02 -1.766 -0.16" fill="#fff"/></svg>