<svg xmlns="http://www.w3.org/2000/svg" viewBox="0 0 32 32"><path d="m 14.727 31.777 c 19.01 1.816 24.13 -28.836 4.605 -31.21 c -17.949 -2.949 -27.19 24.832 -9.359 30.391 c 1.508 0.609 3.156 0.598 4.754 0.824" fill="#6b7f8e"/><path d="m 7.598 13.777 h 16.727 c 0.207 0 0.375 0.168 0.375 0.375 v 4.266 c 0 0.207 -0.168 0.375 -0.375 0.375 h -16.727 c -0.207 0 -0.375 -0.168 -0.375 -0.375 v -4.266 c 0 -0.207 0.168 -0.375 0.375 -0.375" fill="#fff"/><path d="m 8.535 14.613 h 7.426 v 3.344 h -7.426 c -0.242 0 -0.438 -0.188 -0.438 -0.418 v -2.508 c 0 -0.234 0.195 -0.418 0.438 -0.418" fill="#456986"/><path d="m 14.648 10.01 c -0.242 0 -0.438 0.188 -0.438 0.418 c 0 0.234 0.195 0.418 0.438 0.418 h 0.453 c 0.23 0.008 0.414 0.184 0.422 0.406 v 10.06 c -0.008 0.219 -0.191 0.395 -0.422 0.402 h -0.453 c -0.242 0 -0.438 0.188 -0.438 0.418 c 0 0.23 0.195 0.418 0.438 0.418 h 2.621 c 0.242 0 0.438 -0.188 0.438 -0.418 c 0 -0.23 -0.195 -0.418 -0.438 -0.418 h -0.438 c -0.238 0 -0.434 -0.188 -0.434 -0.418 v -10.04 c 0 -0.23 0.195 -0.418 0.434 -0.418 h 0.438 c 0.242 0 0.438 -0.184 0.438 -0.418 c 0 -0.23 -0.195 -0.418 -0.438 -0.418" fill="#d4d8dc"/></svg>