<svg xmlns="http://www.w3.org/2000/svg" viewBox="0 0 32 32"><path d="m 25.402 3.121 c -24.06 -15.992 -38.875 35.01 -7.773 28.26 c 12.852 -2.879 20.652 -20.926 7.773 -28.26" fill="#524939"/><g transform="scale(0.125)"><path d="m 62.969 185.31 c -14.656 -4.875 -15.813 -5.813 -15.75 -13.281 c 0.094 -11.969 4.219 -20.594 22.656 -47.28 c 1.219 -1.75 10.344 -7.906 20.281 -13.656 c 9.969 -5.781 19.219 -11.75 20.594 -13.25 c 3.094 -3.406 6.656 -12.594 9.125 -23.5 c 1.031 -4.531 3.219 -9.813 4.875 -11.75 l 3 -3.469 l 3.156 3.688 c 2.375 2.75 3.156 5.969 3.156 12.656 c 0 20.906 7.563 26.594 20.22 15.188 l 3.594 -3.25 l 6.5 6.625 c 3.594 3.656 7.281 6.375 8.25 6.094 c 0.969 -0.313 4.063 -4.03 6.875 -8.281 c 2.844 -4.25 10.281 -15.219 11.125 -15.5 c 0.938 -0.313 2.219 4.875 0.844 11.625 l -3.688 17.938 l 8.688 8 c 13.13 12.06 11.906 14.563 -8.688 17.938 c -13.719 2.281 -15.313 3.563 -34.75 28.438 c -17.344 22.19 -25.938 26.06 -60.06 27.19 c -17.813 0.594 -22.75 0.219 -30 -2.156 m 59.656 -21.719 c 5.219 -7.03 0.313 -13 -10.688 -13 c -6.188 0 -8.188 0.688 -10.156 3.469 c -3.219 4.531 -3.125 8 0.281 10.969 c 5.406 4.75 16.531 3.969 20.563 -1.438" fill="#d0ccc8" stroke="#dfd9db" stroke-width="3.144"/><path d="m 107.63 165.06 c -5.125 -1.531 -6.594 -6.219 -3.156 -10.06 c 1.656 -1.813 2.438 -2.156 5.813 -2.406 c 6.875 -0.5 12.25 1.938 12.25 5.531 c 0 0.875 -0.938 2.656 -2.063 3.938 c -2.906 3.313 -7.906 4.469 -12.844 3" fill="#546a2f" stroke="#546a2f" stroke-width="1.33"/></g></svg>