<svg xmlns="http://www.w3.org/2000/svg" viewBox="0 0 32 32"><path d="m 0.371 19.645 c 1.984 12.922 19.609 16.379 27.387 7.156 c 6.852 -6.852 5.145 -19.969 -3.254 -24.465 c -9.652 -6.02 -23.715 1.422 -24.48 13.398 c -0.078 1.313 0.031 2.637 0.348 3.91" fill="#191970"/><path d="m 8.555 23.93 c -0.016 -0.051 -0.035 -0.867 -0.043 -1.813 l -0.016 -1.719 l -0.461 -0.047 v -11.59 l 0.23 -0.023 c 0.211 -0.023 0.23 -0.047 0.262 -0.293 l 0.027 -0.266 h 14.672 l 0.031 0.266 c 0.027 0.246 0.047 0.27 0.258 0.293 l 0.23 0.023 v 11.59 l -0.23 0.023 l -0.227 0.023 l -0.031 1.793 l -0.031 1.797 l -7.32 0.02 c -5.828 0.016 -7.328 0 -7.352 -0.078 m 6.754 -1.43 v -0.805 h -6.199 l -0.02 0.824 l -0.016 0.82 l 6.234 -0.039 m 7.395 -0.805 v -0.84 l -3.113 0.02 l -3.117 0.02 l -0.016 0.723 c -0.012 0.395 -0.004 0.766 0.012 0.82 c 0.027 0.082 0.617 0.102 3.133 0.102 h 3.102 m 0.477 -8.766 l 0.016 -5.746 h -14.609 v 5.715 c 0 3.145 0.02 5.738 0.043 5.766 c 0.023 0.027 3.301 0.043 7.289 0.031 l 7.246 -0.02 m -12.918 -1.785 c -0.18 -0.039 -0.219 -0.082 -0.234 -0.258 c -0.016 -0.156 -0.055 -0.207 -0.156 -0.211 c -0.348 0 -0.41 -0.07 -0.41 -0.465 v -0.371 h 0.938 c 0.516 0.004 1.258 0.051 1.652 0.109 c 0.496 0.074 0.477 0.328 1.109 0.324 c 0.547 0 0.996 -0.375 1.672 -0.398 c 0.676 -0.023 1.43 -0.063 1.672 -0.082 c 0.414 -0.039 0.445 -0.055 0.445 -0.219 c 0 -0.223 0.141 -0.262 1.168 -0.344 c 0.422 -0.031 0.773 -0.063 0.781 -0.07 c 0.008 -0.004 0.016 -0.09 0.016 -0.191 c 0 -0.145 0.043 -0.191 0.199 -0.234 c 0.18 -0.047 1.113 -0.168 1.43 -0.188 c 0.086 -0.004 0.145 -0.082 0.184 -0.254 l 0.059 -0.25 l 0.617 -0.051 c 0.336 -0.027 0.688 -0.035 0.785 -0.012 c 0.16 0.039 0.168 0.059 0.152 0.395 c -0.016 0.316 -0.035 0.359 -0.172 0.379 c -0.367 0.051 -0.43 0.094 -0.43 0.285 c 0 0.148 -0.031 0.188 -0.148 0.188 c -0.082 0 -0.168 0.035 -0.188 0.078 c -0.023 0.043 -0.223 0.078 -0.449 0.078 c -0.555 0 -0.688 0.051 -0.688 0.266 c 0 0.133 -0.047 0.184 -0.199 0.227 c -0.199 0.051 -1.156 0.172 -1.473 0.188 c -0.137 0.004 -0.168 0.039 -0.168 0.195 c 0 0.281 -0.172 0.344 -0.941 0.344 c -0.383 0 -0.871 0.023 -1.078 0.051 c -0.34 0.043 -0.375 0.066 -0.375 0.227 c 0 0.098 -0.055 0.211 -0.121 0.254 c -0.129 0.086 -5.266 0.098 -5.648 0.012 m 4.141 -4.273 c -0.031 -0.043 -0.125 -0.086 -0.207 -0.102 c -0.168 -0.027 -0.332 -0.531 -0.301 -0.926 c 0.016 -0.223 0.039 -0.246 0.262 -0.281 c 0.215 -0.035 0.25 -0.066 0.277 -0.27 c 0.027 -0.203 0.055 -0.227 0.246 -0.227 c 0.188 0 0.219 0.023 0.246 0.227 c 0.023 0.188 0.063 0.234 0.215 0.258 c 0.242 0.031 0.336 0.141 0.336 0.383 c 0 0.281 -0.063 0.375 -0.277 0.402 c -0.156 0.023 -0.188 0.066 -0.211 0.297 c -0.031 0.25 -0.047 0.266 -0.277 0.289 c -0.137 0.012 -0.273 -0.012 -0.309 -0.051 m 2.273 0 c -0.23 -0.047 -0.25 -0.07 -0.289 -0.355 c -0.113 -0.797 -0.035 -1.031 0.34 -1.031 c 0.113 0 0.16 -0.043 0.172 -0.172 c 0.016 -0.129 0.066 -0.176 0.223 -0.195 c 0.176 -0.02 0.199 0 0.199 0.168 c 0 0.215 0.059 0.281 0.332 0.348 c 0.168 0.043 0.188 0.082 0.188 0.313 c 0 0.234 -0.02 0.27 -0.184 0.305 c -0.16 0.035 -0.188 0.074 -0.215 0.344 c -0.031 0.297 -0.039 0.305 -0.277 0.316 c -0.133 0.004 -0.355 -0.012 -0.488 -0.039" fill="#fff"/></svg>