<svg xmlns="http://www.w3.org/2000/svg" viewBox="0 0 32 32"><path d="m 6.633 30.02 c 47.34 13.758 17.16 -54.21 -4.02 -20.12 c -3.871 6.266 -4.141 16.898 4.02 20.12" fill="#382f68"/><path d="m 15.652 17.1 l -1.457 -1.328 l 2.324 -2.098 c 1.508 -1.363 2.402 -2.117 2.551 -2.152 c 0.434 -0.094 0.664 0.035 1.688 0.965 c 1.023 0.93 1.168 1.141 1.063 1.531 c -0.035 0.137 -0.859 0.934 -2.387 2.309 l -2.328 2.105" fill="#0d6789"/><g fill="#fccf20"><path d="m 23.02 21.773 l -0.824 -1.789 l 1.516 -1.258 c 0.832 -0.691 1.543 -1.227 1.582 -1.184 c 0.23 0.25 1.574 3.402 1.512 3.559 c -0.086 0.227 -2.664 2.461 -2.84 2.461 c -0.066 0 -0.492 -0.805 -0.945 -1.789"/><path d="m 13.156 13.422 l -0.961 -2.113 l 1.367 -1.25 c 0.754 -0.684 1.434 -1.27 1.512 -1.301 c 0.109 -0.043 2.039 3.781 2.039 4.04 c 0 0.031 -0.676 0.66 -1.5 1.398 l -1.5 1.344"/></g><path d="m 13.12 19.379 l -3.141 -2.824 l 0.363 -0.238 c 0.723 -0.469 1.5 -0.594 2.668 -0.426 l 1.07 0.156 l 1.391 1.238 l 1.391 1.242 l 0.168 0.875 c 0.145 0.75 0.137 0.984 -0.051 1.613 c -0.117 0.406 -0.328 0.84 -0.469 0.961 c -0.238 0.219 -0.391 0.102 -3.391 -2.598" fill="#2fbaf1"/><g fill="#caa822"><path d="m 9.645 10.57 c -1.656 -0.629 -1.914 -0.762 -1.879 -0.988 c 0.02 -0.145 0.574 -0.75 1.234 -1.344 c 0.941 -0.855 1.277 -1.082 1.586 -1.082 c 0.324 0 3.809 1.215 4.02 1.402 c 0.09 0.078 -2.754 2.762 -2.914 2.75 c -0.074 -0.004 -0.996 -0.336 -2.051 -0.738"/><path d="m 19.598 19.1 c -1.137 -0.395 -2.051 -0.758 -2.031 -0.813 c 0.059 -0.172 2.91 -2.633 3.047 -2.633 c 0.074 -0.004 1.09 0.359 2.262 0.801 l 2.133 0.801 l -1.449 1.254 c -0.797 0.691 -1.551 1.266 -1.672 1.277 c -0.125 0.016 -1.152 -0.297 -2.289 -0.688"/></g><g fill="#fccf20"><path d="m 12.699 24.563 c -1.133 -0.184 -2.59 -0.859 -3.531 -1.633 c -0.902 -0.746 -1.824 -2.445 -1.906 -3.516 c -0.039 -0.484 -0.031 -0.52 0.133 -0.684 c 0.23 -0.227 0.531 -0.23 0.711 -0.004 c 0.082 0.105 0.148 0.324 0.176 0.582 c 0.066 0.594 0.211 1.063 0.52 1.68 c 0.215 0.426 0.395 0.656 0.859 1.102 c 0.98 0.945 1.957 1.402 3.277 1.535 c 0.832 0.082 1.043 0.176 1.043 0.457 c 0 0.398 -0.543 0.602 -1.281 0.48"/><path d="m 12.563 22.2 c -1.336 -0.305 -2.504 -1.418 -2.723 -2.598 c -0.145 -0.766 0.605 -0.992 0.871 -0.262 c 0.43 1.184 1.043 1.762 2.168 2.051 c 1.102 0.285 0.801 1.059 -0.316 0.809"/></g></svg>