<svg xmlns="http://www.w3.org/2000/svg" viewBox="0 0 32 32"><defs><clipPath id="0"><path d="m 10 10 h 14 v 13 h -14"/></clipPath><clipPath id="1"><path d="m 28.527 15.863 c 0 6.633 -5.434 12.01 -12.12 12.01 c -6.691 0 -12.12 -5.375 -12.12 -12.01 c 0 -6.633 5.43 -12.01 12.12 -12.01 c 6.691 0 12.13 5.375 12.13 12.01"/></clipPath><clipPath id="2"><path d="m 10 9 h 13 v 14 h -13"/></clipPath></defs><path d="m 6.598 28.879 c 24.05 15.992 38.875 -35.01 7.773 -28.26 c -12.852 2.875 -20.652 20.922 -7.773 28.26" fill="#38699f"/><g clip-path="url(#0)"><g clip-path="url(#1)"><path d="m 12.473 10.121 c -1.031 0 -1.867 0.828 -1.867 1.848 v 8.832 c 0 1.02 0.836 1.848 1.867 1.848 h 8.914 c 1.031 0 1.867 -0.828 1.867 -1.848 v -8.832 c 0 -1.02 -0.836 -1.848 -1.867 -1.848 m -7.09 2.086 l 6.324 4.18 l -6.324 4.176" fill-opacity="0.098"/></g></g><g clip-path="url(#2)"><g clip-path="url(#1)"><path d="m 11.945 9.598 c -1.031 0 -1.867 0.828 -1.867 1.852 v 8.828 c 0 1.023 0.836 1.852 1.867 1.852 h 8.914 c 1.031 0 1.867 -0.828 1.867 -1.852 v -8.828 c 0 -1.023 -0.836 -1.852 -1.867 -1.852 m -7.09 2.09 l 6.324 4.176 l -6.324 4.176" fill="#e5e5e5"/></g></g></svg>