<svg xmlns="http://www.w3.org/2000/svg" viewBox="0 0 32 32"><defs><radialGradient id="0" gradientUnits="userSpaceOnUse" cx="270.58" cy="33.9" r="19.571" gradientTransform="matrix(0.29286 0.07089 -0.1972 0.80065 -58.902 -32.09)"><stop stop-color="#ff380f"/><stop offset="1" stop-color="#ff1000"/></radialGradient><radialGradient id="1" gradientUnits="userSpaceOnUse" cx="282.65" cy="29.15" r="19.571" gradientTransform="matrix(0.16251 0.25173 -0.27141 0.1722 -21.13 -60.08)"><stop stop-color="#306bab"/><stop offset="1" stop-color="#002ca8"/></radialGradient></defs><path d="m 22.855 0.387 c -46.02 -3.18 -11.527 58.21 8.02 17.785 c 2.695 -6.227 0.727 -15.516 -8.02 -17.785" fill="#b0c3de"/><g fill-rule="evenodd"><path d="m 8.07 8.434 v 14.453 h 3.25 v -5.656 h 2.301 v -2.23 h -2.301 v -2.406 h 5.664 v -4.152" fill="url(#0)"/><path d="m 22.539 12.742 l -1.891 1.074 l -0.836 -0.289 l -0.797 -2.02 l -1.254 0.063 l -0.57 2.086 l -0.801 0.383 l -1.996 -0.867 l -0.84 0.93 l 1.082 1.875 l -0.293 0.824 l -2.039 0.789 l 0.074 1.242 l 2.105 0.57 l 0.383 0.793 l -0.883 1.973 l 0.938 0.836 l 1.891 -1.074 l 0.84 0.297 l 0.789 2.02 l 1.266 -0.07 l 0.563 -2.09 l 0.801 -0.379 l 2 0.875 l 0.844 -0.93 l -1.086 -1.875 l 0.293 -0.832 l 2.031 -0.785 l -0.063 -1.25 l -2.105 -0.559 l -0.383 -0.793 l 0.875 -1.984 l -0.938 -0.836 m -2.832 3.074 l 0.387 0.227 l 0.336 0.301 l 0.27 0.359 l 0.195 0.402 l 0.113 0.434 l 0.02 0.441 l -0.066 0.441 l -0.148 0.422 l -0.234 0.391 l -0.293 0.328 l -0.363 0.266 l -0.406 0.191 l -0.438 0.113 l -0.449 0.027 l -0.445 -0.066 l -0.426 -0.145 l -0.391 -0.23 l -0.328 -0.301 l -0.273 -0.355 l -0.195 -0.402 l -0.109 -0.438 l -0.027 -0.445 l 0.066 -0.441 l 0.148 -0.422 l 0.23 -0.383 l 0.297 -0.336 l 0.363 -0.266 l 0.406 -0.191 l 0.441 -0.113 l 0.449 -0.016 l 0.445 0.063" fill="url(#1)"/></g></svg>