<svg xmlns="http://www.w3.org/2000/svg" viewBox="0 0 32 32"><path d="m 3.273 25.14 c -15.805 -23.707 34.598 -38.31 27.926 -7.664 c -2.844 12.664 -20.676 20.352 -27.926 7.664" fill="#7f0000"/><path d="m 101.44 207.03 c -1.375 -1.313 -8.5 -8.03 -15.844 -14.938 l -13.281 -12.563 l 10.813 -10.313 l 10.844 -10.313 c -3.844 -3.406 -7.375 -7.406 -11.5 -10.438 c -5.844 4.344 -11.594 10.25 -17.06 15.688 c -1.281 1.438 -3.03 2.531 -4.219 3.813 c -4.313 -2.375 -6.563 -4.594 -10.5 -9.25 c 0 -0.188 0.438 -0.688 0.969 -1.094 c 10.688 -9.125 19.16 -19.25 29 -27.28 l 1.875 -1.5 l 10.03 9.563 c 5.531 5.25 10.406 9.844 10.844 10.219 l 0.781 0.656 l 5.406 -5.125 c 13.375 -15.563 9.938 -5.03 26.406 -5.656 c -3.156 2.531 -6 5.625 -8.75 8.156 c -4.5 3.719 -7.438 7.688 -11.813 11.06 c -0.156 0 -0.469 0.281 -0.719 0.656 c -0.375 0.625 0.063 1.156 4.813 5.563 c 5.281 4.969 6.156 5.594 7.06 5.063 c 0.281 -0.156 5.156 -4.688 10.813 -10.09 l 10.344 -9.813 c 3.156 2.688 5.375 6.406 9 8.625 c 0.375 0 0.906 0.688 0.906 1.188 c -1.281 1.594 -3.25 2.844 -4.469 4.156 c -13.219 12.344 -16.25 15.563 -25.844 24.469 c -0.531 0.406 -0.938 0.938 -1.469 1.344 c -8.25 -6.281 -13.156 -14.12 -22.22 -20 c -0.344 0.125 -0.594 0.344 -0.594 0.5 c -5.094 5.594 -3.563 3.469 -9.75 10.09 c 7.06 8.03 12 12.156 20.969 20.656 c -3.75 3.219 -6.5 6.25 -10.188 9.313 c -0.063 -0.031 -1.25 -1.094 -2.656 -2.406" transform="scale(0.125)" stroke="#000" stroke-width="0.397"/><path d="m 70.68 87.47 l 109.56 -0.004 l -0.012 77.45 l -109.53 0.011" transform="matrix(0.12184 -0.02795 0.02383 0.12271 0 0)" fill="#fff" stroke="#fff" stroke-width="0.978"/><path d="m 14.219 17.766 c 0.043 -0.063 0.133 -0.125 0.195 -0.141 c 0.063 -0.012 0.762 -0.734 1.551 -1.598 c 0.793 -0.867 1.457 -1.559 1.48 -1.539 c 0.02 0.023 0.168 0.602 0.324 1.289 l 0.285 1.25 l -1.957 0.426 c -0.422 0.016 -2.219 0.594 -1.879 0.313 m 6.156 -1.34 c 0.008 -0.281 -0.031 -0.574 -0.184 -1.301 c -0.137 -0.652 -0.234 -1.188 -0.215 -1.191 c 0.02 -0.004 0.891 0.363 1.941 0.816 c 1.051 0.449 1.961 0.809 2.023 0.797 c 0.066 -0.012 0.172 0.008 0.238 0.047 c 0.078 0.047 -0.559 0.219 -1.855 0.5 c -0.152 -0.047 -1.934 0.426 -1.949 0.332 m -8.23 -0.262 c -0.023 -0.125 -0.27 -1.059 -0.07 -1 c 0.012 0.059 0.445 0.004 1.164 -0.152 l 1.148 -0.242 l -0.957 1.055 c -0.527 0.582 -0.98 1.137 -1.01 1.23 c -0.039 0.141 -0.09 -0.023 -0.277 -0.891 m 13.379 -1.984 c -0.055 -0.09 -0.668 -0.41 -1.367 -0.715 l -1.27 -0.551 l 1.09 -0.332 c 0.809 -0.246 1.039 -0.277 1.125 -0.285 c 0 0 0.137 0.066 0.316 1.01 c 0.133 0.68 0.168 0.977 0.105 0.875 m -14.488 -3.289 c -0.125 -0.605 -0.184 -1.01 -0.145 -1.016 c 0.035 -0.012 0.074 0.027 0.086 0.078 c 0.012 0.055 0.586 0.34 1.281 0.637 c 0.691 0.297 1.266 0.574 1.273 0.613 c 0.008 0.039 -0.461 0.176 -1.043 0.301 c -0.578 0.129 -1.098 0.27 -1.148 0.313 c -0.082 0.07 -0.121 -0.047 -0.305 -0.926 m 12.262 -1.719 c -0.613 0.117 -1.125 0.184 -1.133 0.145 c -0.008 -0.039 0.406 -0.527 0.918 -1.09 c 0.367 -0.348 0.707 -0.848 0.957 -1.223 c 0.043 -0.008 0.152 0.379 0.277 0.98 c 0.113 0.547 0.184 0.988 0.156 0.984 c -0.031 -0.008 -0.559 0.086 -1.176 0.203 m -4.508 -0.719 c -0.188 -0.891 -0.281 -1.227 -0.348 -1.246 c -0.285 -0.074 0.164 -0.207 1.953 -0.574 c 1.133 -0.23 2.07 -0.457 1.965 -0.391 c -0.102 0.066 -1.012 0.941 -1.828 1.828 l -1.484 1.609 m -4.629 -0.168 c -0.738 -0.402 -1.461 -0.781 -2.219 -1.016 c -0.078 -0.043 0.57 -0.219 1.898 -0.512 c 1.809 -0.395 2.02 -0.422 2.01 -0.281 c -0.008 0.086 0.098 0.668 0.227 1.289 c 0.176 0.84 0.215 1.133 0.152 1.141 c -0.047 0.008 -1.035 -0.168 -2.066 -0.621" fill="#00227c"/><g fill="#ce132a" stroke="#ce132a"><path d="m 103.72 189.83 c 0 -1.024 -0.106 -12.579 -0.207 -25.697 c -0.112 -13.07 -0.214 -23.866 -0.256 -23.929 c -0.041 -0.063 -18.491 -0.297 -41.01 -0.488 c -22.532 -0.139 -41.31 -0.39 -41.728 -0.479 c -0.682 -0.146 -0.802 -1.896 -0.799 -12.674 c 0.048 -6.888 0.115 -12.586 0.242 -12.667 c 0.127 -0.081 17.414 -0.311 38.36 -0.458 c 48.669 -0.405 44.587 -0.309 44.774 -1.185 c 0.088 -0.412 0.306 -11.683 0.429 -25.08 c 0.178 -22.11 0.299 -25.75 0.625 -25.734 c 0.052 0.011 4.061 0.008 8.889 0.018 c 4.829 0.011 8.773 0.047 8.815 0.11 c 0.041 0.063 0.211 11.578 0.334 25.616 c 0.134 13.987 0.292 25.553 0.375 25.679 c 0.03 0.114 18.754 0.353 41.548 0.549 c 22.795 0.195 41.507 0.486 41.631 0.674 c 0.29 0.439 0.256 24.953 -0.009 25.17 c -0.127 0.081 -18.886 0.265 -41.653 0.453 c -22.82 0.177 -41.463 0.332 -41.526 0.372 c -0.064 0.04 -0.22 11.539 -0.382 25.624 c -0.163 18.45 -0.382 25.624 -0.804 25.803 c -0.296 0.098 -3.936 0.181 -8.102 0.15 c -4.113 -0.019 -7.953 -0.033 -8.458 0.02 c -0.884 0.026 -1.039 -0.276 -1.086 -1.849" transform="matrix(0.07116 -0.01553 0.01524 0.07248 8.458 4.582)" stroke-width="0.514"/><g stroke-width="0.352" transform="matrix(0.1029 -0.0001 0.00009 0.11182 6.812 0.209)"><path d="m 72.5 95.07 c -2.049 -0.736 -10.322 -3.922 -18.367 -7.143 l -14.648 -5.813 l -0.681 -2.9 c -0.416 -1.572 -0.378 -2.027 -0.302 -2.096 c 0.19 -0.209 38.745 14.568 43.34 16.703 l 2.504 1.19 l -1.101 0.558 c -0.76 0.384 -1.975 0.592 -4.02 0.695 c -2.847 0.102 -3.113 0.067 -6.718 -1.194"/><path d="m 124.33 86.46 c 0.874 -1.222 18.657 -19.546 27.21 -27.993 l 6.649 -6.597 l 3.683 -0.66 c 2.05 -0.382 3.759 -0.625 3.835 -0.555 c 0.19 0.21 -28.574 29.21 -31.993 32.25 c -3.343 3 -5.166 3.978 -8.05 4.29 l -2.01 0.208"/></g><path d="m 189.69 180.34 c -33.14 -23.429 -43.22 -30.925 -42.585 -31.597 c 0.638 -0.672 4.964 -0.877 7.483 -0.337 c 3.307 0.708 9.496 4.621 31.34 20.03 l 18.219 12.849 l -0.068 2.626 c -0.109 4.611 -0.283 6.191 -0.587 6.072 c -0.157 -0.034 -6.363 -4.381 -13.801 -9.639" transform="matrix(0.07116 -0.01553 0.01524 0.07248 8.458 4.582)" stroke-width="0.514"/><path d="m 67.63 150.34 c 5.13 -5.27 11.589 -11.762 14.287 -14.45 c 10.943 -10.715 12.386 -11.901 15.652 -12.422 c 3.151 -0.486 3.189 -0.207 0.567 2.83 c -2.01 2.304 -27.853 28.865 -30.398 31.24 c -0.798 0.768 -1.557 1.012 -4.633 1.638 c -2.01 0.382 -3.949 0.695 -4.252 0.73 c -0.38 0 2.774 -3.456 8.778 -9.599" transform="matrix(0.1029 -0.0001 0.00009 0.11182 6.812 0.209)" stroke-width="0.352"/></g></svg>