<svg xmlns="http://www.w3.org/2000/svg" viewBox="0 0 32 32"><path d="m 22.855 31.879 c -46.02 3.18 -11.527 -58.21 8.02 -17.785 c 2.695 6.227 0.727 15.516 -8.02 17.785" fill="#ffb5c1"/><g fill-rule="evenodd"><g fill="#ff4500" fill-opacity="0.4"><path d="m 24.25 19.602 l -2.91 4.59 h -11.641 l 2.91 -4.59"/><path d="m 24.21 18.15 l -5.738 -10.809 h -5.738 l 5.738 10.809"/><path d="m 11.797 8.309 l -5.695 9.715 l 2.668 5.648 l 5.547 -10.277"/></g><path d="m 18.09 17.398 c -0.203 -0.383 -1.473 -2.777 -2.828 -5.328 c -1.352 -2.547 -2.461 -4.645 -2.461 -4.656 c 0 -0.016 1.266 -0.023 2.813 -0.023 h 2.813 l 1.871 3.527 c 1.031 1.941 2.309 4.352 2.844 5.352 l 0.973 1.82 h -5.66" fill="#ffd600"/><path d="m 9.777 24.23 c 0.004 -0.027 0.633 -1.047 1.398 -2.273 l 1.398 -2.223 l 5.758 -0.016 l 5.762 -0.016 l -1.426 2.285 l -1.426 2.289 h -5.734 c -3.152 0 -5.73 -0.02 -5.73 -0.047" fill="#4069e0"/><path d="m 8.715 23.469 c -0.035 -0.066 -0.633 -1.32 -1.324 -2.785 l -1.254 -2.66 l 2.812 -4.797 c 1.547 -2.641 2.824 -4.801 2.844 -4.805 c 0.02 0 0.586 1.121 1.262 2.488 l 1.227 2.488 l -2.582 4.777 c -1.418 2.629 -2.656 4.926 -2.746 5.098 c -0.148 0.285 -0.176 0.309 -0.238 0.195" fill="#6a8e22"/></g><path d="m 223.36 183.48 c 0 24.652 -21.572 44.627 -48.18 44.627 c -26.606 0 -48.22 -19.975 -48.18 -44.627 c -0.039 -24.615 21.572 -44.59 48.18 -44.59 c 26.606 0 48.18 19.975 48.18 44.59" transform="matrix(0.10086 0 0 0.10775 5.072 2.827)" fill="#ff4500" stroke="#ff4500" fill-opacity="0.984" stroke-width="1.841"/><path d="m 24.441 19.703 l -1.746 1.629 l -1.746 -1.629 l -1.5 1.395 l 1.75 1.629 l -1.75 1.629 l 1.5 1.395 l 1.746 -1.629 l 1.746 1.629 l 1.496 -1.395 l -1.746 -1.629 l 1.746 -1.629" fill="#fff"/></svg>