<svg xmlns="http://www.w3.org/2000/svg" viewBox="0 0 32 32"><path d="m 30.445 23.465 c -6.191 14.906 -30.16 8.254 -30 -7.984 c -0.238 -14.758 18.813 -20.355 27.17 -9.84 c 4.176 4.547 5.637 12.08 2.828 17.824" fill="#ffe4b4" fill-opacity="0.996"/><path d="m 14.211 25.328 c -0.918 -0.262 -2.027 -0.75 -2.742 -1.207 l -0.473 -0.305 l 0.563 -0.059 c 0.727 -0.078 8.08 -0.078 9.305 0 l 0.941 0.059 l -0.473 0.305 c -0.652 0.418 -1.953 1.016 -2.629 1.207 c -0.391 0.109 -1.039 0.172 -2.113 0.195 c -1.426 0.031 -1.621 0.016 -2.379 -0.195" fill="#d90c18"/><path d="m 9.988 22.285 c -0.566 -0.031 -0.652 -0.063 -0.867 -0.32 c -0.371 -0.441 -1.027 -1.59 -0.953 -1.668 c 0.086 -0.082 14.906 -0.145 15.824 -0.063 c 0.422 0.035 0.68 0.102 0.68 0.168 c 0 0.105 -0.766 1.324 -1.078 1.715 c -0.148 0.188 -0.27 0.191 -6.563 0.195 c -3.527 0.004 -6.695 -0.008 -7.04 -0.027" fill="#ec8d03"/><path d="m 8.105 18.699 l -0.445 -0.035 l -0.137 -0.492 c -0.074 -0.27 -0.164 -0.672 -0.199 -0.895 l -0.063 -0.406 l 9.07 0.027 c 4.992 0.016 9.09 0.051 9.117 0.078 c 0.059 0.063 -0.109 1.277 -0.219 1.563 l -0.086 0.23 l -8.301 -0.02 c -4.563 -0.008 -8.496 -0.031 -8.742 -0.051" fill="#f9e701"/><path d="m 11.605 8.152 c 0 -0.094 1.527 -0.812 2.234 -1.047 c 0.629 -0.215 0.93 -0.254 2.23 -0.293 c 1.375 -0.039 1.582 -0.023 2.398 0.191 c 0.988 0.254 2.176 0.73 2.539 1.012 c 0.234 0.18 0.199 0.18 -4.582 0.184 c -2.652 0 -4.82 -0.02 -4.82 -0.047" fill="#622280"/><path d="m 7.918 13.449 l -0.445 0.035 l -0.137 0.488 c -0.074 0.273 -0.164 0.676 -0.199 0.898 l -0.063 0.406 l 9.07 -0.027 c 4.992 -0.016 9.09 -0.051 9.117 -0.078 c 0.059 -0.063 -0.109 -1.277 -0.219 -1.563 l -0.086 -0.23 l -8.301 0.02 c -4.563 0.008 -8.496 0.031 -8.742 0.051" fill="#099340"/><path d="m 10.08 9.656 c -0.566 0.031 -0.652 0.063 -0.867 0.32 c -0.371 0.441 -1.027 1.59 -0.949 1.668 c 0.082 0.086 14.902 0.145 15.82 0.063 c 0.422 -0.035 0.68 -0.102 0.68 -0.168 c 0 -0.105 -0.766 -1.324 -1.078 -1.715 c -0.148 -0.188 -0.266 -0.188 -6.563 -0.195 c -3.527 -0.004 -6.695 0.008 -7.04 0.027" fill="#011efa"/></svg>