<svg xmlns="http://www.w3.org/2000/svg" viewBox="0 0 32 32"><path d="m 0.406 19.664 c 6.246 29.988 49.23 -2.207 23.41 -17.449 c -10.03 -6.535 -26.625 2.023 -23.41 17.449" fill="#3d8fdf"/><path d="m 18.04 5.57 l 0.438 0.902 l 6.531 13.52 l -0.824 0.41 l -12.387 6.129 l -0.438 -0.902 l -4.789 -9.914 l -0.305 -0.629 l 0.008 -0.004 l -0.012 -0.004 l 1.285 -4.313 l 0.012 0.004 l -0.004 -0.008 l 0.578 -0.285 l 9.91 -4.906 m -0.391 1.313 l -2.48 1.227 l 1.742 3.605 l 0.438 0.898 l -6.609 3.27 l -0.434 -0.898 l -1.742 -3.605 l -0.242 0.117 l -1.055 3.547 l 0.125 0.266 l 4.793 9.914 l 1.648 -0.816 l -3.047 -6.313 l 0.824 -0.406 l 6.609 -3.27 l 0.824 -0.41 l 3.051 6.309 l 1.648 -0.816 l -6.098 -12.617 m -3.301 1.633 l -3.223 1.594 l 1.742 3.605 l 3.223 -1.594 m 2.566 3.195 l -6.605 3.27 l 2.613 5.41 l 6.605 -3.27" fill="#fff"/></svg>