<svg xmlns="http://www.w3.org/2000/svg" viewBox="0 0 32 32"><path d="m 29.25 6.703 c -6.066 -11.02 -25.08 -6.742 -28.29 2.328 c -3.832 10.809 6.141 31.33 23.04 19.309 c 5.691 -4.199 11.328 -10.621 5.258 -21.637" fill="#010100"/><g fill="#ed0100"><path d="m 8.883 21.277 c -0.363 -0.086 -0.238 -0.465 -0.465 -0.672 c -0.258 -0.223 -0.176 -0.672 0.145 -0.82 c 0.219 -0.098 0.66 -0.852 0.66 -1.121 c 0 -0.039 -0.125 -0.105 -0.277 -0.145 c -0.684 -0.184 -0.633 -1.262 0.078 -1.617 c 0.211 -0.105 0.445 -0.328 0.523 -0.492 c 0.074 -0.164 0.199 -0.363 0.277 -0.441 c 0.219 -0.227 0.156 -0.465 -0.141 -0.539 c -0.301 -0.078 -0.762 -0.781 -0.586 -0.891 c 0.184 -0.121 0.27 -1.055 0.137 -1.551 c -0.137 -0.52 -0.02 -0.82 0.332 -0.82 c 0.105 0 0.289 -0.094 0.41 -0.207 c 0.207 -0.191 0.246 -0.191 0.527 0 c 0.43 0.293 0.668 0.262 0.828 -0.113 c 0.078 -0.18 0.273 -0.355 0.43 -0.398 c 0.156 -0.039 0.285 -0.152 0.285 -0.246 c 0 -0.305 0.758 -1.109 0.902 -0.957 c 0.07 0.074 0.281 0.133 0.465 0.133 c 0.395 0 0.563 0.195 0.273 0.313 c -0.18 0.07 -0.172 0.113 0.07 0.383 l 0.27 0.301 l -0.375 0.445 c -0.375 0.445 -0.473 0.891 -0.266 1.234 c 0.203 0.332 -0.402 1.422 -0.648 1.164 c -0.07 -0.07 -0.281 -0.129 -0.469 -0.129 c -0.34 0 -0.344 0.012 -0.344 0.766 c 0 0.734 0.012 0.77 0.305 0.77 c 0.258 0 0.309 0.059 0.309 0.367 c 0 0.203 -0.086 0.441 -0.188 0.527 c -0.16 0.141 -0.164 0.195 -0.02 0.367 c 0.094 0.113 0.262 0.402 0.371 0.641 c 0.16 0.348 0.172 0.477 0.055 0.641 c -0.516 0.715 -1.102 0.836 -1.621 0.332 c -0.398 -0.387 -0.563 -0.402 -0.563 -0.063 c -0.004 0.258 0.242 0.277 0.246 0.496 c 0.027 0.301 0.277 0.453 0.367 0.707 c 0.004 0.465 -1.254 1.012 -1.309 1.203 c -0.066 0.266 -0.594 0.496 -0.996 0.434 m 1.535 -7.613 c -0.023 -0.121 -0.605 -0.277 -0.703 -0.277 c -0.102 0 -0.199 0.102 -0.223 0.223 c -0.031 0.156 0.152 1.176 0.328 1.117 c 0.91 -0.309 0.625 -0.902 0.598 -1.063"/><path d="m 10.527 7.172 c -0.691 -0.566 -0.688 -1.012 0.012 -1.355 c 0.34 -0.168 0.48 -0.18 0.66 -0.063 c 0.199 0.121 0.469 0.129 0.602 0.266 c 0 0.066 0.031 0.203 0.07 0.305 c 0.078 0.215 -0.621 1.113 -0.863 1.113 c -0.086 0 -0.301 -0.121 -0.48 -0.266"/></g><g fill="#0002ec"><path d="m 12.785 9.152 c 0 -0.211 -0.063 -0.449 -0.137 -0.527 c -0.199 -0.203 -0.043 -0.391 0.574 -0.695 c 0.484 -0.297 0.551 -0.262 0.969 0.07 c 0.48 0.316 0.41 0.355 0.16 0.844 c -0.301 0.59 -0.633 0.75 -0.938 0.461 c -0.195 -0.18 -0.234 -0.18 -0.422 0.016 c -0.195 0.207 -0.207 0.195 -0.207 -0.168"/><path d="m 17.227 8.473 c -0.738 -0.395 -0.797 -0.707 -0.266 -1.336 c 0.336 -0.48 0.375 -0.438 0.855 -0.195 c 0.59 0.297 0.816 0.656 0.551 0.883 c -0.098 0.086 -0.18 0.227 -0.18 0.312 c -0.254 0.633 -0.535 0.563 -0.961 0.336"/><path d="m 15.02 15.398 c -0.574 -0.52 -0.617 -0.902 -0.148 -1.402 l 0.383 -0.406 l -0.398 -0.367 c -0.547 -0.512 -0.441 -0.898 0.332 -1.246 c 0.316 -0.141 0.707 -0.363 0.871 -0.492 c 0.262 -0.215 0.273 -0.262 0.113 -0.449 c -0.16 -0.184 -0.145 -0.266 0.152 -0.719 c 0.344 -0.531 0.887 -0.746 1.16 -0.457 c 0.215 0.219 0.402 0.16 0.555 -0.184 c 0.074 -0.176 0.211 -0.32 0.305 -0.32 c 0.199 0 0.699 -0.531 0.699 -0.742 c 0 -0.082 0.18 -0.227 0.398 -0.32 c 0.508 -0.215 0.957 -0.055 1.23 0.441 c 0.277 0.508 0.02 1.043 -0.551 1.133 c -0.25 0.039 -0.449 0.172 -0.535 0.352 c -0.176 0.371 -0.543 0.789 -0.828 0.949 c -0.168 0.094 -0.289 0.07 -0.465 -0.098 c -0.18 -0.168 -0.273 -0.188 -0.379 -0.078 c -0.102 0.105 -0.023 0.277 0.316 0.668 l 0.453 0.52 l -0.375 0.391 c -0.434 0.449 -0.477 0.898 -0.125 1.262 c 0.461 0.531 -0.902 0.363 -0.984 0.855 c 0 0.105 -0.156 0.168 -0.418 0.168 c -0.348 0 -0.461 0.074 -0.672 0.449 c -0.305 0.539 -0.57 0.563 -1.09 0.094"/><path d="m 13.547 20.19 c -0.316 -0.34 -0.395 -0.527 -0.395 -0.961 c 0 -0.336 -0.063 -0.566 -0.168 -0.609 c -0.133 -0.055 -0.129 -0.145 0.031 -0.5 c 0.258 -0.563 0.676 -0.813 1 -0.602 c 0.133 0.086 0.348 0.152 0.484 0.152 c 0.137 0 0.25 0.078 0.25 0.176 c 0 0.098 0.242 0.41 0.539 0.695 l 0.539 0.516 l -0.352 0.152 c -0.195 0.082 -0.383 0.258 -0.422 0.387 c -0.074 0.238 -0.855 1.016 -1.023 1.016 c -0.051 0 -0.27 -0.188 -0.488 -0.422"/></g><g fill="#01c930"><path d="m 17.336 21.16 c -0.082 -0.375 -0.539 -0.309 -0.809 -0.211 c -0.133 0.051 -0.43 -0.523 -0.43 -0.828 c 0 -0.102 0.227 -0.402 0.504 -0.668 c 0.605 -0.582 0.609 -0.93 0.012 -0.988 c -0.227 -0.023 -0.484 0.023 -0.578 0.102 c -0.191 0.168 -0.488 0.043 -0.844 -0.363 c -0.219 -0.258 -0.219 -0.27 0.043 -0.617 c 0.148 -0.195 0.441 -0.414 0.656 -0.484 c 0.371 -0.125 0.395 -0.168 0.402 -0.773 c 0.008 -0.355 0.051 -0.809 0.098 -1.01 c 0.086 -0.348 0.105 -0.359 0.652 -0.273 c 0.313 0.051 0.66 0.152 0.777 0.227 c 0.164 0.105 0.34 0.078 0.75 -0.125 c 1.031 -0.504 1.277 -1.184 0.426 -1.184 c -0.309 0 -0.492 -0.09 -0.676 -0.336 c -0.27 -0.355 -0.227 -0.574 0.191 -0.969 c 0.211 -0.195 0.258 -0.195 0.68 0.02 c 0.25 0.129 0.664 0.281 0.922 0.344 c 0.355 0.086 0.512 0.211 0.652 0.523 c 0.152 0.344 0.246 0.41 0.559 0.391 c 0.453 -0.027 0.68 0.102 0.594 0.336 c -0.035 0.098 -0.461 0.66 -0.387 0.707 c 0.07 0.047 0.586 -0.055 0.586 0.32 c 0 0.559 -0.055 0.734 -0.305 0.984 c -0.223 0.219 -0.305 0.438 -0.309 0.797 c 0 0.363 -0.098 0.605 -0.371 0.93 c -0.238 0.332 -0.453 0.668 -0.754 0.848 c -0.387 0.23 -0.391 0.23 -0.734 -0.117 c -0.191 -0.191 -0.387 -0.465 -0.43 -0.605 c -0.133 -0.438 -0.559 -0.723 -1.027 -0.688 c -0.375 0.027 -0.438 0.078 -0.473 0.398 c -0.031 0.285 0.066 0.48 0.426 0.863 c 0.254 0.273 0.555 0.496 0.66 0.496 c 0.109 0 0.375 0.191 0.594 0.43 c 0.355 0.379 0.379 0.445 0.207 0.594 c -0.246 0.223 -0.273 0.012 -0.383 -0.191 c -0.098 -0.18 -0.266 -0.258 -0.555 -0.258 c -0.359 0 -0.445 0.066 -0.648 0.496 c -0.125 0.27 -0.258 0.746 -0.293 1.059 c -0.266 1.508 -0.496 -0.961 -0.387 -0.172"/><path d="m 23.477 13.203 c -0.27 -0.281 -0.223 -0.652 0.121 -0.977 c 0.195 -0.184 0.273 -0.191 0.594 -0.043 c 0.527 0.242 0.691 0.684 0.379 1.012 c -0.309 0.32 -0.789 0.324 -1.094 0.008"/></g><g fill="#ff0"><path d="m 9.668 25.316 c -0.172 -0.227 -0.164 -0.238 -0.34 -0.031 c -0.188 0.215 -0.289 0.234 -0.41 0.07 c -0.078 -0.117 -0.246 -0.188 -0.598 -0.266 c -0.199 -0.039 -0.207 -0.102 -0.043 -0.316 c 0.117 -0.156 0.137 -0.16 0.465 -0.121 c 0.191 0.023 0.52 0.043 0.73 0.047 c 0.324 0.004 0.418 -0.02 0.59 -0.145 c 0.258 -0.195 0.379 -0.434 0.383 -0.75 c 0 -0.367 0.051 -0.496 0.215 -0.57 c 0.188 -0.082 0.184 -0.207 -0.004 -0.293 c -0.086 -0.039 -0.164 -0.137 -0.188 -0.23 c -0.117 -0.516 -0.219 -0.582 -0.633 -0.398 c -0.238 0.105 -0.539 0.461 -0.539 0.633 c -0.063 0.223 -0.438 0.492 -0.266 0.617 c 0.168 0.125 0.508 0.059 0.66 -0.129 c 0.133 -0.125 0.285 -0.207 0.391 -0.324 c 0.137 -0.191 0.324 -0.234 0.383 -0.09 c 0.051 0.129 -0.02 0.266 -0.137 0.266 c -0.152 0 -0.246 0.121 -0.246 0.313 c 0 0.238 -0.102 0.398 -0.262 0.398 c -0.074 0 -0.242 0.051 -0.371 0.117 c -0.328 0.164 -0.508 0.148 -0.738 -0.063 c -0.184 -0.168 -0.195 -0.207 -0.195 -0.57 c 0 -0.344 0.02 -0.406 0.18 -0.59 c 0.184 -0.246 0.246 -0.551 0.422 -0.766 c 0.191 -0.23 0.293 -0.297 0.496 -0.336 c 0.371 -0.07 1.41 -0.117 1.594 -0.07 c 0.363 0.098 0.129 0.891 0.117 1.211 c 0.102 1 -0.18 1.406 -0.789 1.969 l -0.688 0.633"/><path d="m 12.766 25.391 c -0.16 -0.242 -0.156 -0.215 -0.352 -0.023 c -0.164 0.164 -0.207 0.18 -0.316 0.121 c -0.07 -0.039 -0.203 -0.18 -0.301 -0.316 c -0.273 -0.387 -0.219 -0.711 0.121 -0.711 c 0.125 0 0.156 0.027 0.152 0.137 c -0.008 0.129 0.016 0.137 0.555 0.152 c 0.691 0.023 0.738 0.008 1.051 -0.266 l 0.254 -0.219 l -0.223 -0.211 c -0.168 -0.164 -0.281 -0.16 -0.094 -0.316 c 0.074 -0.063 0.164 -0.121 0.203 -0.137 c 0.094 -0.031 0.066 -0.469 -0.035 -0.574 c -0.129 -0.133 -0.195 -0.047 -0.227 0.301 c -0.02 0.219 -0.063 0.336 -0.137 0.379 c -0.059 0.031 -0.215 0.16 -0.348 0.281 c -0.234 0.215 -0.25 0.219 -0.527 0.168 c -0.594 -0.004 -0.582 -0.121 -0.566 -0.707 v -0.727 l 0.367 -0.34 c 0.613 -0.566 0.793 -0.648 1.453 -0.68 c 0.332 -0.016 0.637 0 0.73 0.039 c 0.297 0.074 0.164 0.477 0.164 0.734 v 0.672 l -0.191 0.18 c -0.23 0.188 -0.176 0.191 0.035 0.371 l 0.223 0.191 l -0.18 0.133 c -0.113 0.086 -0.203 0.227 -0.242 0.379 c -0.09 0.34 -0.457 0.699 -0.797 0.789 c -0.164 0.043 -0.32 0.133 -0.41 0.242 c -0.168 0.238 -0.23 0.133 -0.363 -0.043 m 0.266 -2.137 c 0.215 -0.199 0.41 -0.387 0.438 -0.418 c 0.332 -0.363 0.398 -0.453 0.371 -0.523 c -0.063 -0.168 -0.422 -0.094 -0.727 0.152 c -0.508 0.41 -0.75 0.77 -0.684 1.023 c 0.051 0.203 0.184 0.152 0.602 -0.234"/><path d="m 16.07 25.16 c -0.383 -0.23 -0.605 -0.633 -0.898 -0.914 c -0.223 -0.121 -0.207 -0.594 0.027 -0.922 c 0.098 -0.137 0.195 -0.863 0.215 -0.973 c 0.047 -0.234 0.383 -0.203 0.766 -0.605 c 0.309 -0.32 0.344 -0.332 0.488 -0.129 c 0.129 0.188 0.168 0.188 0.32 0 c 0.711 -0.48 0.863 1.035 0.852 1.422 c -0.02 0.613 -0.035 0.703 -0.164 0.828 c -0.23 0.359 -0.258 0.887 -0.59 0.895 c -0.105 0 -0.246 0.074 -0.34 0.18 c -0.16 0.188 -0.512 0.297 -0.676 0.219 m 0.145 -0.766 c 0.059 -0.074 0.219 -0.156 0.359 -0.18 c 0.352 -0.059 0.414 -0.195 0.414 -0.891 c 0 -0.496 -0.02 -0.609 -0.129 -0.742 c -0.184 -0.227 -0.457 -0.141 -0.746 0.23 c -0.227 0.289 -0.23 0.305 -0.23 0.891 c 0 0.84 0.09 1.02 0.332 0.691"/><path d="m 18.816 22.344 c 0.215 -0.324 0.285 -1.68 0.598 -1.371 c 0.27 0.242 0.34 0.004 0.586 -0.156 c 0.227 0 0.258 0.602 0.043 0.875 c -0.164 0.211 -0.242 0.559 -0.184 0.84 c 0.055 0.27 0.191 0.246 0.273 -0.043 c 0.121 -0.566 0.367 -0.168 0.695 -0.191 c 0.547 -0.078 0.609 0.664 0.367 0.977 c -0.063 0.07 -0.148 0.242 -0.191 0.379 c -0.18 0.465 -0.535 0.512 -0.645 0.895 c -0.141 0.527 -0.836 0.262 -1.156 0.273 l -0.586 -0.168 c -0.113 -0.613 -0.383 -1.621 0.199 -2.309 m 1.281 1.531 c 0.32 -0.332 0.461 -0.59 0.438 -0.785 c -0.355 -0.301 -0.438 0.168 -0.75 -0.082 l -0.203 -0.168 c -0.18 0.207 -0.461 0.469 -0.465 0.73 c 0 0.23 0.031 0.293 0.277 0.602 c 0.328 0.316 0.461 -0.043 0.703 -0.297"/><path d="m 21.895 24.625 c -0.098 -0.051 -0.121 -0.152 -0.121 -0.504 c 0 -0.406 0.016 -0.449 0.219 -0.629 l 0.219 -0.195 l -0.254 -0.18 c -0.293 -0.184 -0.25 -0.18 -0.008 -0.383 c 0.191 -0.16 0.246 -0.254 0.246 -0.426 c 0 -0.352 0.137 -0.426 0.754 -0.406 c 0.684 0.023 0.793 0.129 0.453 0.441 c -0.211 0.191 -0.227 0.234 -0.227 0.637 c 0 0.551 -0.082 0.813 -0.316 0.977 c -0.242 0.137 -0.152 0.148 0.043 0.293 c 0.273 0.203 0.246 0.344 -0.078 0.398 c -0.332 0.063 -0.789 0.047 -0.93 -0.027"/><path d="m 22.41 21.293 c -0.148 -0.148 -0.199 -0.477 -0.105 -0.676 c 0.129 -0.281 0.715 -0.598 0.836 -0.449 c 0.082 0.098 0.117 0.09 0.133 -0.027 c 0.293 -0.074 0.137 0.699 0.078 0.875 c -0.125 0.352 -0.168 0.387 -0.484 0.387 c -0.191 0.004 -0.395 -0.047 -0.457 -0.109"/></g></svg>