<svg xmlns="http://www.w3.org/2000/svg" viewBox="0 0 32 32"><path d="m 22.855 0.387 c -46.02 -3.18 -11.527 58.21 8.02 17.785 c 2.695 -6.227 0.727 -15.516 -8.02 -17.785" fill="#dcdcdc"/><g fill="#597078"><path d="m 21.965 24.84 c 0 0.863 -2.773 1.566 -6.195 1.566 c -3.418 0 -6.191 -0.703 -6.191 -1.566 c 0 -0.867 2.773 -1.57 6.191 -1.57 c 3.422 0 6.195 0.703 6.195 1.57"/><path d="m 98.95 173.02 l -93.99 -86.73 l 75.03 17.18" transform="matrix(0.08258 0 0 0.08368 7.513 6.03)" fill-rule="evenodd" stroke="#000" stroke-width="6.25"/></g><g fill-rule="evenodd" stroke="#000" stroke-width="6.25" transform="matrix(0.08258 0 0 0.08368 7.513 6.03)"><g fill="#a1c1c1"><path d="m 4.958 85.4 l 94.89 -80.43 l -19.868 99.38"/><path d="m 99.85 4.976 l 94.89 84.957 l -115.66 14.424"/></g><path d="m 193.85 89.93 l -93.99 84.91 l -21.666 -71.37 l 115.66 -13.584" fill="#374f4f"/></g></svg>