<svg xmlns="http://www.w3.org/2000/svg" viewBox="0 0 32 32"><path d="m 4.055 8.387 c -11.316 12.785 5.434 26.316 15.25 22.992 c 9.816 -3.328 16.406 -12.719 10 -20.949 c -6.41 -8.23 -12.711 -16.17 -24.03 -3.387" fill="#1c95d2"/><g fill="#fff" stroke="#fff" stroke-width="2.618" transform="matrix(0.11814 0 0 0.11927 0.645 0.082)"><path d="m 64.44 186.94 c -21.393 -10.09 -26.782 -35.83 -11.209 -53.55 c 5.125 -5.83 13.722 -10.153 20.2 -10.153 h 4.827 l -0.331 33.05 l -0.364 33.05 l -3.273 0.328 c -1.785 0.197 -6.216 -1.048 -9.853 -2.751"/><path d="m 93.27 190.22 l -6.547 -0.884 v -66.747 h 40.802 c 22.451 0 41.26 0.459 41.86 1.048 c 1.124 1.146 1.455 64.52 0.331 65.63 c -1.091 1.114 -69.07 1.932 -76.45 0.95"/><path d="m 86.1 110.96 c 0 -12.05 12.399 -29.31 25.13 -34.913 c 9.39 -4.159 25.2 -4.323 33.759 -0.393 c 12.432 5.731 24.832 22.435 24.865 33.505 v 4.913 h -83.79 v -3.111"/><path d="m 178.51 187.92 c -1.058 -2.718 -0.992 -53.45 0.033 -59.771 c 0.76 -4.552 1.157 -4.913 5.29 -4.913 c 8.894 0 21.69 9.825 25.89 19.913 c 5.489 13.166 0.496 31.572 -10.68 39.498 c -9.721 6.845 -19.01 9.236 -20.533 5.273"/></g></svg>