<svg xmlns="http://www.w3.org/2000/svg" viewBox="0 0 32 32"><path d="m 27.41 6 c 19.965 28.379 -31.957 37.41 -26.809 7.258 c 2.73 -11.992 18.809 -18.625 26.809 -7.258" fill="#e62969"/><path d="m 13.305 25.879 c -0.012 -1.414 0.434 -3.01 0.766 -4.383 c 0.191 -0.859 0.305 -1.473 0.445 -2.277 l -0.32 -0.199 c -0.891 -0.551 -1.469 -1.691 -1.473 -2.914 c -0.004 -1.344 0.559 -2.273 1.777 -2.941 c 0.973 -0.441 2 -0.457 2.867 -0.051 c 0.738 0.348 1.328 0.93 1.684 1.66 c 0.406 0.926 0.41 1.902 0.035 2.672 c -0.477 0.793 -0.988 1.297 -1.645 1.824 c 0.094 0.531 0.176 1.07 0.293 1.602 c 0.215 1.512 0.91 3.379 0.852 4.695 l -0.023 0.34 c -1.789 0.406 -3.559 0.359 -5.258 -0.027 m -3.086 -1.418 c -2.188 -1.758 -3.953 -4.52 -3.957 -6.184 c -0.211 -2.379 -0.336 -4.402 0.684 -6.508 c 1.102 -2.195 3.23 -4.148 5.465 -5.01 c 2.754 -0.867 5.84 -0.813 8.219 0.453 c 1.898 1.031 3.551 2.758 4.492 4.707 c 1.09 1.699 0.879 4.04 0.82 5.793 c 0 1.395 -1.258 3.883 -2.766 5.477 c -0.594 0.629 -1.66 1.5 -2.059 1.684 c -0.523 -1.012 -1.105 -3.238 -1.359 -4.852 c 0.918 -1.141 1.496 -2.629 1.496 -3.805 c -0.199 -2.434 -1.16 -3.895 -2.969 -4.789 c -1.605 -0.746 -3.301 -0.734 -4.672 0 c -1.246 0.68 -1.789 1.242 -2.363 2.445 c -0.336 0.699 -0.488 1.422 -0.488 2.309 c 0 1.324 0.344 2.355 1.133 3.402 c 0.328 0.434 0.367 0.688 0.215 1.363 c -0.168 0.707 -0.738 3.957 -1.219 3.98 c -0.273 -0.152 -0.473 -0.309 -0.672 -0.469" fill="#fff"/></svg>