<svg xmlns="http://www.w3.org/2000/svg" viewBox="0 0 32 32"><path d="m 0.371 19.566 c 1.984 13 19.609 16.484 27.387 7.199 c 6.852 -6.895 5.145 -20.09 -3.254 -24.621 c -9.652 -6.05 -23.715 1.43 -24.48 13.484 c -0.078 1.32 0.031 2.656 0.348 3.938" fill="#d9cfdf"/><path d="m 8.973 22.2 c -0.703 -0.309 -0.789 -0.66 -0.789 -3.188 v -2.258 h 2.32 c 1.297 0 2.422 -0.055 2.551 -0.121 c 0.129 -0.07 0.297 -0.324 0.379 -0.563 c 0.078 -0.242 0.211 -0.441 0.293 -0.441 c 0.082 0 0.422 0.82 0.75 1.82 c 0.504 1.52 0.656 1.844 0.914 1.965 c 0.219 0.098 0.371 0.102 0.52 0.008 c 0.117 -0.07 0.527 -0.875 0.914 -1.785 c 0.391 -0.91 0.762 -1.711 0.828 -1.777 c 0.082 -0.082 0.227 0.02 0.414 0.293 c 0.406 0.578 0.453 0.598 1.379 0.602 c 0.641 0 0.871 -0.051 1.031 -0.227 c 0.461 -0.512 0.176 -0.93 -0.691 -1.02 l -0.664 -0.066 l -0.438 -0.824 c -0.535 -1.012 -0.719 -1.238 -1 -1.238 c -0.332 0 -0.504 0.273 -1.191 1.848 c -0.344 0.797 -0.691 1.469 -0.77 1.496 c -0.086 0.027 -0.379 -0.668 -0.746 -1.789 c -0.676 -2.051 -0.914 -2.375 -1.465 -2.02 c -0.184 0.121 -0.422 0.539 -0.633 1.109 c -0.582 1.582 -0.391 1.477 -2.699 1.477 h -1.996 v -2.254 c 0 -2.547 0.086 -2.887 0.816 -3.191 c 0.629 -0.266 13.738 -0.266 14.367 0 c 0.813 0.34 0.816 0.359 0.816 6.07 c 0 5.715 -0.004 5.734 -0.816 6.074 c -0.621 0.258 -13.797 0.254 -14.395 -0.008" fill="#764e8d"/></svg>