<svg xmlns="http://www.w3.org/2000/svg" viewBox="0 0 32 32"><path d="m 20.398 30.965 c -16.676 5.973 -24.785 -15.496 -17.996 -23.566 c 6.789 -8.07 18.422 -10.82 24.277 -1.684 c 5.855 9.137 10.395 19.273 -6.285 25.25" fill="#a8a995"/><path d="m 8.727 22.973 c -0.172 -0.066 -0.359 -0.258 -0.426 -0.426 c -0.063 -0.164 -0.086 -2.996 -0.047 -6.285 l 0.07 -5.98 l 0.348 -0.27 c 0.328 -0.254 0.516 -0.266 3.051 -0.227 c 2.699 0.039 2.703 0.039 2.969 0.375 c 0.148 0.184 0.414 0.496 0.59 0.699 l 0.316 0.367 h 3.684 c 3.5 0 3.691 0.012 3.953 0.266 c 0.258 0.258 0.273 0.469 0.305 4.574 c 0.055 7.098 0.078 6.5 -0.289 6.793 c -0.305 0.242 -0.625 0.254 -7.27 0.246 c -3.832 -0.004 -7.086 -0.063 -7.254 -0.133 m 0.746 -7.762 c 0.098 -0.094 0.879 -0.176 2.023 -0.215 c 2.063 -0.074 1.813 0.027 2.754 -1.113 c 0.215 -0.262 0.406 -0.277 3.891 -0.348 c 2.02 -0.039 3.723 -0.125 3.797 -0.188 c 0.074 -0.07 -1.52 -0.117 -3.758 -0.117 h -3.887 l -0.426 0.5 c -0.234 0.273 -0.488 0.574 -0.563 0.668 c -0.098 0.117 -0.629 0.164 -1.773 0.164 c -2.199 0 -2.438 0.125 -2.41 1.266 l 0.016 0.805 l 0.09 -0.633 c 0.051 -0.348 0.164 -0.703 0.25 -0.789" fill="#c5c7b2"/><g fill="#606158"><path d="m 8.281 23.13 c -0.281 -0.277 -0.289 -0.477 -0.289 -6.457 c 0 -6.02 0.008 -6.176 0.297 -6.543 l 0.301 -0.375 h 5.469 l 0.727 0.781 l 0.723 0.785 h 3.914 c 2.953 0 3.945 0.043 4.059 0.176 c 0.094 0.113 0.164 2.254 0.195 5.844 c 0.047 5.477 0.039 5.676 -0.23 5.871 c -0.23 0.168 -1.5 0.203 -7.578 0.203 c -7.109 0 -7.309 -0.008 -7.586 -0.285 m 14.543 -0.555 c 0.129 -0.117 0.223 -2.363 0.277 -6.488 l 0.039 -3.129 l -9.195 -0.078 l -0.539 0.703 l -0.543 0.703 l -1.918 0.047 c -2.742 0.066 -2.523 -0.332 -2.523 4.527 v 3.938 l 7.148 -0.063 c 3.934 -0.035 7.195 -0.105 7.254 -0.16 m -13.13 -10.281 c 0.293 -0.016 0.785 -0.043 1.102 -0.063 c 0.316 -0.02 3.176 -0.039 6.359 -0.043 c 3.34 -0.004 5.781 -0.063 5.781 -0.137 c 0 -0.238 -0.895 -0.305 -4.219 -0.309 c -3.695 -0.008 -3.77 -0.023 -4.395 -0.938 l -0.379 -0.551 l -5.555 -0.078 l 0.066 1.469 c 0.078 1.762 0.223 2.125 0.512 1.27 c 0.184 -0.551 0.242 -0.602 0.727 -0.621"/><path d="m 119.81 168.88 c -0.531 -4.969 -5.281 -7.156 -8.938 -4.094 c -3.25 2.75 -4.406 2.688 -7.625 -0.406 l -2.688 -2.563 l 2.625 -2.938 c 3.563 -4.094 1.719 -7.969 -4.03 -8.469 c -3.688 -0.313 -4 -0.625 -4 -4.125 c 0 -3.531 0.313 -3.844 4.219 -4.344 c 3.25 -0.438 4.5 -1.25 5.375 -3.531 c 0.969 -2.438 0.719 -3.406 -1.5 -5.5 l -2.656 -2.531 l 3.094 -2.594 c 2.594 -2.156 3.469 -2.375 5.188 -1.281 c 3.781 2.438 5.219 2.688 8.188 1.469 c 2.219 -0.875 2.969 -2.063 2.969 -4.531 c 0 -3.219 0.188 -3.344 4.531 -3.03 c 4.125 0.313 4.594 0.656 4.938 3.781 c 0.438 4.156 5.25 5.906 8.656 3.125 c 2.75 -2.219 5.313 -2.125 7.75 0.313 c 2.594 2.563 2.531 3.344 -0.469 6.219 c -2.125 2.031 -2.281 2.75 -1 5.219 c 1.156 2.281 2.281 2.875 5.563 2.875 c 4.03 0 4.125 0.094 3.75 4.063 c -0.344 3.719 -0.688 4.094 -4.375 4.406 c -5.656 0.5 -7.531 4.875 -3.688 8.531 l 2.719 2.594 l -3.25 2.906 l -3.219 2.906 l -2.906 -2.438 c -2.5 -2.125 -3.313 -2.281 -6.03 -1.156 c -2.219 0.906 -3.25 2.25 -3.5 4.656 c -0.344 3.03 -0.813 3.406 -4.844 3.719 c -4.25 0.313 -4.469 0.156 -4.844 -3.25 m 13.688 -9.844 c 12.625 -7.531 9.688 -24.406 -4.813 -27.906 c -15.281 -3.688 -27.375 12.219 -18.219 23.938 c 4.938 6.344 15.875 8.219 23.03 3.969" transform="scale(0.125)" stroke="#606158"/></g></svg>