<svg xmlns="http://www.w3.org/2000/svg" viewBox="0 0 32 32"><path d="m 5.496 26.535 c -16.234 -13 7.535 -36.477 21.902 -21.48 c 14.398 12.902 -8.07 37.949 -21.902 21.48" fill="#707f8f"/><path d="m 10.801 22.98 c 0.02 -0.121 0.063 -0.219 0.098 -0.219 c 0.035 0 0.063 -0.098 0.063 -0.215 c 0 -0.117 0.035 -0.234 0.074 -0.258 c 0.039 -0.023 0.07 -0.105 0.07 -0.176 c 0 -0.074 0.051 -0.152 0.109 -0.176 c 0.129 -0.051 0.16 -0.844 0.035 -0.844 c -0.133 0 -0.426 -0.344 -0.477 -0.559 c -0.027 -0.113 -0.07 -0.223 -0.094 -0.242 c -0.137 -0.109 -0.227 -0.402 -0.227 -0.723 c 0 -0.199 -0.031 -0.363 -0.07 -0.363 c -0.047 0 -0.074 -0.398 -0.074 -1.051 c 0 -0.656 0.027 -1.055 0.074 -1.055 c 0.039 0 0.07 -0.219 0.07 -0.512 c 0 -0.469 0.078 -0.77 0.223 -0.867 c 0.031 -0.02 0.063 -0.148 0.07 -0.289 c 0.023 -0.473 0.012 -0.508 -0.203 -0.504 c -0.152 0 -0.227 0.059 -0.324 0.254 c -0.07 0.141 -0.129 0.336 -0.129 0.434 c 0 0.098 -0.031 0.18 -0.07 0.18 c -0.039 0 -0.074 0.066 -0.074 0.145 c 0 0.082 -0.031 0.145 -0.07 0.145 c -0.043 0 -0.074 0.16 -0.074 0.359 c 0 0.195 -0.035 0.367 -0.078 0.383 c -0.047 0.012 -0.098 0.246 -0.121 0.512 c -0.02 0.27 -0.066 0.488 -0.102 0.488 c -0.035 0 -0.063 0.148 -0.063 0.328 c 0 0.18 -0.031 0.324 -0.07 0.324 c -0.043 0 -0.074 0.234 -0.074 0.559 c 0 0.305 -0.031 0.656 -0.07 0.777 c -0.039 0.125 -0.094 0.453 -0.121 0.73 c -0.031 0.281 -0.066 0.43 -0.078 0.328 c -0.016 -0.098 -0.055 -0.246 -0.086 -0.328 c -0.184 -0.441 -0.227 -0.563 -0.227 -0.691 c 0 -0.102 -0.047 -0.141 -0.184 -0.141 h -0.188 l 0.039 -0.563 c 0.023 -0.309 0.063 -0.93 0.086 -1.379 l 0.043 -0.816 h -0.223 c -0.125 0 -0.227 0.031 -0.227 0.074 c 0 0.039 -0.047 0.07 -0.109 0.07 c -0.09 0 -0.105 -0.133 -0.105 -0.762 v -0.762 h 0.18 c 0.145 0 0.18 -0.035 0.18 -0.18 c 0 -0.102 0.035 -0.184 0.074 -0.184 c 0.039 0 0.074 -0.047 0.074 -0.109 c 0 -0.059 0.027 -0.105 0.063 -0.105 c 0.035 0 0.086 -0.117 0.113 -0.254 c 0.027 -0.141 0.078 -0.254 0.117 -0.254 c 0.035 0 0.066 -0.082 0.066 -0.184 c 0 -0.098 0.035 -0.18 0.074 -0.18 c 0.039 0 0.074 -0.066 0.074 -0.145 c 0 -0.082 0.027 -0.148 0.063 -0.148 c 0.035 0 0.082 -0.129 0.109 -0.289 c 0.023 -0.16 0.078 -0.289 0.117 -0.289 c 0.039 0 0.07 -0.148 0.07 -0.328 v -0.324 h -0.324 c -0.363 0 -0.359 0.008 -0.328 -0.617 c 0.02 -0.398 0.078 -0.469 0.387 -0.473 c 0.27 0 0.398 -0.141 0.457 -0.496 c 0.07 -0.441 -0.016 -0.758 -0.227 -0.855 c -0.113 -0.055 -0.195 -0.059 -0.223 -0.016 c -0.027 0.043 -0.082 0.035 -0.145 -0.016 c -0.121 -0.098 -0.145 -0.902 -0.031 -0.973 c 0.039 -0.027 0.074 -0.109 0.074 -0.188 c 0 -0.078 0.031 -0.141 0.07 -0.141 c 0.039 0 0.074 -0.051 0.074 -0.109 c 0 -0.07 0.07 -0.109 0.215 -0.109 c 0.121 0 0.219 0.035 0.219 0.074 c 0 0.039 0.043 0.07 0.098 0.07 c 0.254 0 0.523 0.434 0.34 0.547 c -0.098 0.059 -0.098 0.398 0 0.398 c 0.039 0 0.07 0.066 0.07 0.148 c 0 0.082 0.047 0.199 0.105 0.254 c 0.109 0.109 0.668 0.141 0.816 0.047 c 0.047 -0.031 0.094 -0.23 0.109 -0.445 c 0.012 -0.215 0.059 -0.402 0.102 -0.418 c 0.043 -0.016 0.18 0.066 0.305 0.184 c 0.305 0.281 0.512 0.234 0.984 -0.234 c 0.438 -0.43 0.863 -0.723 1.168 -0.801 c 0.121 -0.031 0.75 -0.055 1.398 -0.051 c 0.738 0.008 1.18 -0.02 1.18 -0.063 c 0 -0.09 1.137 -0.098 1.191 -0.012 c 0.02 0.035 0.219 0.082 0.438 0.105 c 0.223 0.023 0.445 0.082 0.504 0.137 c 0.055 0.051 0.203 0.176 0.324 0.277 c 0.125 0.098 0.227 0.223 0.227 0.273 c 0 0.105 0.289 0.234 0.523 0.234 c 0.137 0 0.145 -0.031 0.105 -0.379 c -0.027 -0.211 -0.078 -0.395 -0.117 -0.406 c -0.098 -0.031 0.078 -0.305 0.195 -0.305 c 0.051 0 0.09 -0.031 0.09 -0.07 c 0 -0.039 0.082 -0.074 0.184 -0.074 c 0.098 0 0.18 -0.031 0.18 -0.07 c 0 -0.039 0.113 -0.074 0.254 -0.074 c 0.254 0 0.254 0.004 0.254 0.328 c 0 0.18 -0.031 0.324 -0.07 0.324 c -0.109 0 -0.09 0.289 0.027 0.406 c 0.117 0.117 0.695 0.141 0.695 0.031 c 0 -0.039 0.051 -0.074 0.109 -0.074 c 0.059 0 0.109 -0.031 0.109 -0.07 c 0 -0.043 0.063 -0.074 0.137 -0.074 c 0.074 0 0.156 -0.051 0.184 -0.113 c 0.078 -0.211 0.043 -0.602 -0.066 -0.711 c -0.137 -0.133 -0.137 -0.176 -0.004 -0.305 c 0.059 -0.059 0.242 -0.105 0.434 -0.105 c 0.313 0 0.332 -0.012 0.34 -0.199 c 0.008 -0.145 0.02 -0.16 0.039 -0.055 c 0.02 0.082 0.066 0.215 0.109 0.301 c 0.047 0.09 0.059 0.293 0.031 0.473 c -0.184 1.176 -0.117 1.586 0.254 1.586 c 0.148 0 0.207 -0.043 0.242 -0.184 c 0.035 -0.145 0.063 -0.164 0.141 -0.094 c 0.063 0.059 0.098 0.328 0.109 0.801 c 0.016 0.617 0.004 0.703 -0.094 0.664 c -0.063 -0.023 -0.113 -0.07 -0.113 -0.105 c 0 -0.039 -0.086 -0.066 -0.191 -0.066 h -0.191 l 0.043 0.488 c 0.027 0.27 0.078 0.5 0.121 0.516 c 0.039 0.012 0.074 0.066 0.074 0.121 c 0 0.066 -0.109 0.109 -0.309 0.121 c -0.359 0.027 -0.426 0.164 -0.203 0.402 c 0.184 0.199 0.184 0.254 0.004 0.383 c -0.109 0.078 -0.148 0.188 -0.148 0.414 c 0 0.172 0.035 0.313 0.074 0.313 c 0.039 0 0.074 0.063 0.074 0.141 c 0 0.078 0.031 0.16 0.07 0.184 c 0.039 0.027 0.074 0.125 0.074 0.223 c 0 0.098 0.027 0.176 0.066 0.176 c 0.035 0 0.09 0.109 0.117 0.238 c 0.027 0.129 0.074 0.25 0.102 0.27 c 0.078 0.063 0.293 0.559 0.293 0.684 c 0 0.063 0.035 0.117 0.074 0.117 c 0.039 0 0.07 0.047 0.07 0.109 c 0 0.059 0.035 0.105 0.074 0.105 c 0.039 0 0.07 0.066 0.07 0.148 c 0 0.078 0.035 0.145 0.074 0.145 c 0.039 0 0.074 0.047 0.074 0.109 c 0 0.059 0.047 0.105 0.105 0.105 c 0.09 0 0.109 0.125 0.109 0.695 c 0 0.742 0.012 0.73 -0.348 0.391 c -0.203 -0.191 -0.449 -0.531 -0.449 -0.621 c 0 -0.094 -0.336 -0.18 -0.484 -0.121 c -0.074 0.027 -0.098 0.332 -0.098 1.348 c 0 0.992 -0.02 1.293 -0.082 1.23 c -0.125 -0.125 -0.32 0.012 -0.418 0.281 c -0.043 0.125 -0.078 0.438 -0.078 0.691 c 0 0.258 -0.031 0.461 -0.074 0.461 c -0.039 0 -0.07 0.047 -0.07 0.109 c 0 0.059 -0.035 0.109 -0.074 0.109 c -0.039 0 -0.07 0.051 -0.07 0.113 c 0 0.063 -0.051 0.16 -0.109 0.223 c -0.066 0.066 -0.109 0.246 -0.109 0.465 c 0 0.309 -0.02 0.359 -0.145 0.359 c -0.082 0 -0.145 0.031 -0.145 0.07 c 0 0.039 0.059 0.074 0.137 0.074 c 0.113 0 0.141 0.063 0.164 0.344 c 0.035 0.418 -0.008 0.742 -0.094 0.742 c -0.035 0 -0.063 -0.047 -0.063 -0.105 c 0 -0.063 -0.035 -0.109 -0.074 -0.109 c -0.039 0 -0.07 0.047 -0.07 0.109 c 0 0.09 -0.207 0.105 -1.414 0.105 h -1.418 v -0.18 c 0 -0.102 0.035 -0.18 0.074 -0.18 c 0.039 0 0.07 -0.051 0.07 -0.109 c 0 -0.063 0.035 -0.109 0.074 -0.109 c 0.039 0 0.074 -0.066 0.074 -0.145 c 0 -0.082 -0.035 -0.148 -0.074 -0.148 c -0.176 0 -0.363 0.301 -0.363 0.582 v 0.289 h -7.301 m 9.984 -1.668 c 0 -0.094 0.035 -0.125 0.109 -0.098 c 0.082 0.031 0.109 -0.012 0.109 -0.18 c 0 -0.121 -0.031 -0.242 -0.074 -0.266 c -0.039 -0.023 -0.07 0.023 -0.07 0.105 c 0 0.098 -0.047 0.148 -0.145 0.148 c -0.113 0 -0.145 0.047 -0.145 0.203 c 0 0.113 0.02 0.227 0.043 0.254 c 0.078 0.074 0.172 -0.02 0.172 -0.168 m -1.016 -0.289 c 0 -0.082 -0.031 -0.145 -0.07 -0.145 c -0.039 0 -0.074 0.063 -0.074 0.145 c 0 0.078 0.035 0.145 0.074 0.145 c 0.039 0 0.07 -0.066 0.07 -0.145 m -0.797 -0.398 c 0 -0.141 0.031 -0.254 0.074 -0.254 c 0.039 0 0.07 -0.098 0.07 -0.219 c 0 -0.121 0.031 -0.219 0.074 -0.219 c 0.039 0 0.07 -0.047 0.07 -0.109 c 0 -0.141 -0.336 -0.145 -0.477 -0.004 c -0.117 0.121 -0.137 0.332 -0.031 0.332 c 0.039 0 0.074 0.082 0.074 0.18 c 0 0.102 -0.035 0.184 -0.074 0.184 c -0.039 0 -0.07 0.082 -0.07 0.18 c 0 0.133 0.039 0.184 0.145 0.184 c 0.117 0 0.145 -0.051 0.145 -0.254 m 1.016 0.18 c 0 -0.039 -0.031 -0.07 -0.074 -0.07 c -0.039 0 -0.07 0.031 -0.07 0.07 c 0 0.039 0.031 0.074 0.07 0.074 c 0.043 0 0.074 -0.035 0.074 -0.074 m 1.383 -0.527 c 0.027 -1.02 -0.027 -3.504 -0.074 -3.535 c -0.039 -0.023 -0.078 -0.301 -0.09 -0.617 c -0.02 -0.52 -0.035 -0.582 -0.172 -0.602 c -0.273 -0.039 -0.34 0.246 -0.465 2.02 c -0.035 0.527 -0.094 0.914 -0.141 0.93 c -0.117 0.039 -0.094 0.445 0.035 0.574 c 0.09 0.09 0.105 0.195 0.066 0.461 c -0.043 0.316 -0.031 0.359 0.133 0.465 c 0.098 0.066 0.195 0.184 0.219 0.262 c 0.023 0.102 0.098 0.141 0.258 0.141 c 0.133 0 0.227 -0.039 0.23 -0.09 m -0.875 -0.273 c 0 -0.172 -0.047 -0.184 -0.188 -0.043 c -0.141 0.141 -0.129 0.188 0.043 0.188 c 0.098 0 0.145 -0.047 0.145 -0.145 m -6.699 -0.98 c 0.066 -0.066 0.242 -0.109 0.457 -0.109 c 0.445 0 0.566 -0.121 0.438 -0.434 c -0.078 -0.195 -0.121 -0.219 -0.406 -0.219 c -0.176 0 -0.316 -0.031 -0.316 -0.07 c 0 -0.043 -0.082 -0.074 -0.18 -0.074 c -0.098 0 -0.195 -0.031 -0.219 -0.074 c -0.027 -0.039 -0.117 -0.07 -0.207 -0.07 c -0.184 0 -0.988 -0.371 -0.992 -0.461 c 0 -0.066 -0.188 -0.266 -0.25 -0.266 c -0.027 0 -0.129 -0.082 -0.227 -0.18 c -0.102 -0.102 -0.262 -0.184 -0.359 -0.184 c -0.18 0 -0.18 0.008 -0.18 0.691 c 0 0.41 0.031 0.688 0.074 0.688 c 0.039 0 0.07 0.164 0.07 0.363 v 0.363 h 0.254 c 0.141 0 0.254 -0.035 0.254 -0.078 c 0 -0.156 0.215 -0.285 0.469 -0.285 c 0.141 0 0.258 0.031 0.258 0.07 c 0 0.043 0.035 0.074 0.074 0.074 c 0.074 0 0.207 0.094 0.383 0.27 c 0.121 0.125 0.477 0.113 0.605 -0.016 m 4.01 -0.035 c 0.16 0 0.215 -0.043 0.254 -0.195 c 0.059 -0.227 0.484 -0.676 0.645 -0.676 c 0.059 0 0.211 -0.059 0.336 -0.125 c 0.18 -0.105 0.234 -0.109 0.285 -0.031 c 0.035 0.055 0.148 0.086 0.27 0.07 c 0.191 -0.02 0.211 -0.051 0.23 -0.332 c 0.016 -0.168 0.055 -0.309 0.094 -0.309 c 0.035 0 0.066 -0.289 0.066 -0.648 c 0 -0.355 0.031 -0.668 0.074 -0.691 c 0.094 -0.059 0.094 -0.59 -0.004 -0.77 c -0.09 -0.168 -0.434 -0.191 -0.434 -0.031 c 0 0.063 -0.031 0.109 -0.07 0.109 c -0.043 0 -0.074 0.133 -0.074 0.293 c 0 0.16 -0.027 0.348 -0.063 0.418 c -0.379 0.766 -0.422 0.809 -0.887 0.863 c -0.332 0.039 -0.422 0.094 -0.77 0.434 c -0.219 0.211 -0.457 0.387 -0.539 0.387 c -0.199 0 -0.715 0.273 -0.766 0.406 c -0.023 0.063 0 0.191 0.051 0.289 c 0.086 0.16 0.129 0.172 0.43 0.133 c 0.266 -0.035 0.363 -0.016 0.496 0.102 c 0.137 0.121 0.145 0.148 0.051 0.188 c -0.094 0.035 -0.098 0.059 -0.02 0.145 c 0.051 0.055 0.105 0.074 0.117 0.039 c 0.016 -0.039 0.117 -0.066 0.227 -0.066 m -4.16 -3.914 c 0 -0.082 -0.672 0.285 -0.734 0.285 c -0.059 0 -0.637 -0.797 -0.637 -0.719 c 0 0.082 0.578 -0.574 0.637 -0.574 c 0.063 0 0.734 1.09 0.734 1.01 m 2.23 1.387 c 0 -0.039 -1.52 0.023 -1.559 0.023 c -0.039 0 0.453 0.418 0.453 0.457 c 0 0.043 0.801 -0.215 0.844 -0.215 c 0.039 0 0.262 -0.223 0.262 -0.266 m 1.613 -2.395 c 0 -0.063 -1.137 -0.191 -1.18 -0.164 c -0.039 0.023 -0.438 0.988 -0.414 1.023 c 0.063 0.102 1.16 0.418 1.16 0.293 m -0.336 -1.164 c 0 -0.039 -0.031 -0.07 -0.07 -0.07 c -0.043 0 -0.074 0.031 -0.074 0.07 c 0.305 -0.023 0.543 0.004 0.145 0" fill="#fff" fill-rule="evenodd"/></svg>