<svg xmlns="http://www.w3.org/2000/svg" viewBox="0 0 32 32" xmlns:xlink="http://www.w3.org/1999/xlink"><defs><radialGradient id="0" gradientUnits="userSpaceOnUse" cx="15.816" cy="32.19" r="4.816" gradientTransform="matrix(0.5962 0 0 0.6098 1.259 1.334)"><stop stop-color="#4cadc3"/><stop offset="1" stop-color="#3fa9c0"/></radialGradient><radialGradient id="1" gradientUnits="userSpaceOnUse" cx="21.854" cy="26.15" r="6.854" gradientTransform="matrix(0.5962 0 0 0.60987 1.259 1.33)" xlink:href="#0"/><radialGradient id="2" gradientUnits="userSpaceOnUse" cx="29" cy="19" r="8" gradientTransform="matrix(0.5962 0 0 0.61004 1.259 1.326)" xlink:href="#0"/></defs><path d="m 28.703 24.48 c 11.508 -16.367 -9.742 -32.949 -23.297 -19.613 c -12.773 12.563 -0.934 32.09 14.961 25.98 c 3.316 -1.273 6.223 -3.363 8.336 -6.367" fill="#acd7e5"/><path d="m 19.14 8.645 c -2.633 0 -4.77 2.188 -4.77 4.883 c 0 2.695 2.137 4.879 4.77 4.879 c 2.633 0 4.77 -2.184 4.77 -4.879 c 0 -2.695 -2.137 -4.883 -4.77 -4.883 m -5.359 5.063 c -1.77 0.535 -2.984 2.199 -2.988 4.09 c 0 2.359 1.871 4.27 4.176 4.27 c 1.848 0 3.473 -1.242 4 -3.055 c -2.824 -0.098 -5.09 -2.414 -5.188 -5.301 m -3.512 4.926 c -1.125 0.465 -1.859 1.582 -1.859 2.82 c 0 1.684 1.332 3.051 2.98 3.051 c 1.215 0 2.309 -0.754 2.762 -1.906 c -1.984 -0.352 -3.535 -1.941 -3.883 -3.969" fill-opacity="0.102"/><path d="m 9.676 18.02 c -1.121 0.465 -1.859 1.582 -1.859 2.824 c 0 1.684 1.336 3.051 2.98 3.051 c 1.215 0 2.309 -0.758 2.762 -1.91 c -1.98 -0.352 -3.535 -1.938 -3.883 -3.965" fill="url(#0)"/><path d="m 13.188 13.1 c -1.77 0.535 -2.984 2.199 -2.984 4.09 c 0 2.359 1.867 4.27 4.172 4.27 c 1.848 0 3.477 -1.242 4 -3.055 c -2.824 -0.098 -5.09 -2.414 -5.188 -5.305" fill="url(#1)"/><path d="m 23.316 12.918 c 0 2.695 -2.133 4.879 -4.77 4.879 c -2.633 0 -4.77 -2.184 -4.77 -4.879 c 0 -2.695 2.137 -4.883 4.77 -4.883 c 2.637 0 4.77 2.188 4.77 4.883" fill="url(#2)"/></svg>