<svg xmlns="http://www.w3.org/2000/svg" viewBox="0 0 32 32"><path d="m 15.984 31.773 c -21.22 2.402 -20.926 -32.01 0.375 -31.602 c 19.813 -1.133 21.598 33.477 -0.375 31.602" fill="#2cbfeb"/><path d="m 16.227 7.887 h -7.953 c -0.492 0 -0.887 0.391 -0.887 0.875 v 7.871 h 8.84" fill="#6654e4"/><g fill="#2cbfeb"><path d="m 16.227 7.887 h 7.953 c 0.492 0 0.887 0.391 0.887 0.875 v 7.871 h -8.84"/><path d="m 16.227 25.379 h -7.953 c -0.492 0 -0.887 -0.391 -0.887 -0.875 v -7.871 h 8.84"/></g><path d="m 16.227 25.379 h 7.953 c 0.492 0 0.887 -0.391 0.887 -0.875 v -7.871 h -8.84" fill="#f6c73c"/><g fill-opacity="0.2"><path d="m 8.273 7.887 c -0.492 0 -0.887 0.391 -0.887 0.875 v 0.438 c 0 -0.484 0.395 -0.875 0.887 -0.875 h 15.906 c 0.492 0 0.887 0.391 0.887 0.875 v -0.438 c 0 -0.484 -0.395 -0.875 -0.887 -0.875" fill="#fff"/><path d="m 8.273 25.816 c -0.492 0 -0.887 -0.391 -0.887 -0.875 v -0.438 c 0 0.484 0.395 0.875 0.887 0.875 h 15.906 c 0.492 0 0.887 -0.391 0.887 -0.875 v 0.438 c 0 0.484 -0.395 0.875 -0.887 0.875"/></g><path d="m 10.04 10.512 h 12.375 v 12.242 h -12.375" fill="#3e3e3e"/><g fill="none" stroke-linecap="round" stroke-width="2" transform="matrix(0.44193 0 0 0.43729 5.62 6.138)"><path d="m 16 32.996 h 7.999" stroke-opacity="0.2" stroke="#010101"/><path d="m 16 31.996 h 7.999" stroke="#fff"/><path d="m 16 20.999 h 3.995 m 0 4 v -8 m -3.995 8 v -8" stroke-opacity="0.2" stroke="#010101"/><path d="m 16 19.999 h 3.995 m 0 4 v -8 m -3.995 8 v -8" stroke="#fff"/><g stroke-linejoin="bevel"><path d="m 24 20.999 c 0 0 4 -0.465 4 2 c 0 2.465 -4 2 -4 2 m 0 -8 v 8 m 0 -3.975 c 0 0 4 0.465 4 -2 c 0 -2.465 -4 -2 -4 -2 m 0 7.995 v -7.995" stroke-opacity="0.2" stroke="#010101"/><path d="m 24 19.999 c 0 0 4 -0.465 4 2 c 0 2.465 -4 2 -4 2 m 0 -8 v 8 m 0 -3.975 c 0 0 4 0.465 4 -2 c 0 -2.465 -4 -2 -4 -2 m 0 7.995 v -7.995" stroke="#fff"/></g></g></svg>