<svg xmlns="http://www.w3.org/2000/svg" viewBox="0 0 32 32"><path d="m 16.05 0.254 c 21.11 -2.391 20.816 31.855 -0.375 31.449 c -19.707 1.129 -21.488 -33.31 0.375 -31.449" fill="#e31b1b"/><path d="m 13.332 8.617 c -1.852 0 -4.32 1.82 -4.629 5.461 h 1.234 c 0.617 -2.73 2.16 -3.035 2.469 -3.035 c 0.309 0 0.617 0.609 0.617 2.43 c 0 1.82 -0.617 6.07 -1.852 9.711 h 2.469 c 0.711 -2.098 1.207 -4.582 1.508 -6.676 h 1.758 c -0.117 1.01 -0.184 1.871 -0.184 2.43 c 0 1.82 0.309 4.246 2.16 4.246 c 1.852 0 4.32 -1.82 4.629 -5.461 h -1.234 c -0.617 2.73 -2.16 3.035 -2.469 3.035 c -0.309 0 -0.617 -0.609 -0.617 -2.43 c 0 -1.82 0.617 -6.07 1.852 -9.711 h -2.469 c -0.574 1.703 -1.012 3.664 -1.32 5.461 h -1.824 c 0.035 -0.469 0.063 -0.898 0.063 -1.211 c 0 -1.824 -0.309 -4.25 -2.16 -4.25" fill-opacity="0.102"/><path d="m 83.34 181.91 c 0 -0.406 1.469 -5.906 3.219 -12.188 c 10.688 -38.06 14.06 -76.53 7.281 -83.31 c -4.313 -4.313 -15.969 5.406 -19.75 16.469 c -2 5.906 -2.125 6.03 -6.156 6.03 c -3.625 0 -4.125 -0.313 -4.125 -2.625 c 0 -3.969 3.75 -15.16 6.875 -20.438 c 5.563 -9.531 16.375 -17.219 26.25 -18.719 c 5.03 -0.719 10.625 1.719 13.688 5.969 c 3.188 4.438 5.25 14.875 5.25 26.313 v 10.688 l 7.875 -0.344 l 7.844 -0.313 l 2.969 -14.09 c 1.656 -7.75 4 -17.406 5.219 -21.406 l 2.219 -7.344 h 9.25 c 8.313 0 9.188 0.188 8.688 1.906 c -11.344 38.531 -16.5 75.19 -12.563 89.38 c 1.688 6.125 3.313 6.875 9.06 4.344 c 5.813 -2.563 10.75 -8.875 13.344 -17.12 c 1.781 -5.688 1.906 -5.813 5.969 -5.813 c 3.594 0 4.156 0.313 4.156 2.5 c 0 3.688 -3.125 13.531 -6.156 19.563 c -5.625 11.06 -18.781 20.344 -29.09 20.5 c -8.25 0.125 -13.531 -5.281 -15.813 -16.25 c -1.281 -6.25 -1.531 -27.28 -0.406 -33.375 l 0.719 -3.781 h -15.281 l -1.094 5.688 c -0.625 3.125 -2.125 10.875 -3.344 17.219 c -1.219 6.344 -3.438 15.75 -4.938 20.906 c -1.5 5.156 -2.719 9.594 -2.719 9.875 c 0 0.313 -4.125 0.531 -9.219 0.531 c -5.063 0 -9.219 -0.344 -9.219 -0.75" transform="scale(0.125)" fill="#ead8d8" stroke="#ead8d8" stroke-width="0.029"/></svg>