<svg xmlns="http://www.w3.org/2000/svg" viewBox="0 0 32 32"><path d="m 24.23 3.977 c 28.34 26.344 -30.15 42.941 -23.699 7.969 c 3.184 -9.23 14.602 -16.43 23.699 -7.969" fill="#00bfff"/><path d="m 11.05 14.461 c -0.707 0 -1.281 0.535 -1.281 1.191 c 0 0.102 0.016 0.207 0.047 0.313 c 0.047 0.164 0.02 0.34 -0.074 0.484 c -0.094 0.148 -0.246 0.25 -0.426 0.289 c -1.121 0.23 -1.934 1.176 -1.934 2.242 c 0 1.27 1.109 2.305 2.473 2.305 h 11.867 c 0.031 -0.008 0.066 -0.016 0.098 -0.02 c 0.734 -0.086 1.391 -0.496 1.754 -1.094 c 0.012 -0.02 0.023 -0.035 0.035 -0.055 c 0.254 -0.332 0.387 -0.727 0.387 -1.137 c 0 -0.859 -0.59 -1.617 -1.469 -1.879 c -0.023 -0.008 -0.043 -0.016 -0.063 -0.023 c -0.297 -0.121 -0.613 -0.18 -0.941 -0.18 c -0.012 0 -0.023 0 -0.035 0 c -0.004 0 -0.004 0 -0.008 0 c -0.188 0 -0.363 -0.07 -0.492 -0.199 c -0.129 -0.129 -0.191 -0.301 -0.176 -0.477 c 0.012 -0.117 0.016 -0.215 0.016 -0.301 c 0 -1.969 -1.723 -3.574 -3.84 -3.574 c -1.687 0 -3.16 1 -3.668 2.5 c -0.078 0.23 -0.289 0.398 -0.547 0.434 c -0.258 0.031 -0.512 -0.078 -0.652 -0.277 c -0.238 -0.34 -0.637 -0.543 -1.07 -0.543 m 10.855 8.07 h -12.05 c -2.102 0 -3.813 -1.594 -3.813 -3.551 c 0 -0.809 0.305 -1.602 0.852 -2.23 c 0.41 -0.469 0.941 -0.832 1.535 -1.059 c 0 -0.012 0 -0.027 0 -0.039 c 0 -1.344 1.176 -2.438 2.621 -2.438 c 0.504 0 0.984 0.133 1.398 0.375 c 0.895 -1.52 2.613 -2.488 4.539 -2.488 c 2.777 0 5.05 2.047 5.172 4.602 c 0.277 0.043 0.547 0.117 0.809 0.223 c 1.418 0.438 2.367 1.664 2.367 3.055 c 0 0.66 -0.211 1.293 -0.613 1.832 c -0.543 0.871 -1.48 1.484 -2.539 1.66 c -0.086 0.035 -0.18 0.059 -0.277 0.059" fill="#fff"/></svg>