<svg xmlns="http://www.w3.org/2000/svg" viewBox="0 0 32 32"><path d="m 15.91 31.664 c -20.938 2.398 -20.648 -31.973 0.375 -31.563 c 19.551 -1.133 21.313 33.434 -0.375 31.563" fill="#75bc1c"/><g transform="scale(0.125)"><path d="m 104.13 192.84 c 35.03 -3.969 49.47 -8.25 78.72 -12.906 c -1.063 -33.625 -1.844 -69.09 -1.844 -101.94 c -34.563 -9.5 -36.531 -7.344 -81.69 -17.938 v 66.969 c 0 36.813 0.281 66.938 0.594 66.875 c 0.344 -0.031 2.25 -0.5 4.219 -1.063" fill="#46a8e8" stroke="#46a8e8" stroke-width="3.107"/><path d="m 97.47 125.47 c 0 -37.438 -0.375 -66.06 -0.844 -65.66 c -7.906 7.594 -13.781 13.438 -22.03 21.531 c 0.031 34.375 0.031 68.75 0.031 103.13 c 7.344 2.344 14.656 4.781 22.03 7.094 c 0.813 -26.375 0.813 -44.5 0.813 -66.09" fill="#2e6bdc" stroke="#2e6bdc" stroke-width="3.478"/></g><g fill="#fff"><path d="m 14.84 22.555 c -0.121 -0.09 -0.148 -0.414 -0.133 -1.695 c 0.016 -1.656 0.051 -1.805 0.438 -1.859 c 0.281 -0.039 0.402 0.094 0.477 0.516 c 0.031 0.195 0.059 0.836 0.109 0.84 c 0.051 0.004 0.258 -0.617 0.398 -0.797 c 0.262 -0.332 0.555 -0.453 0.871 -0.355 c 0.23 0.066 0.184 0.363 -0.098 0.645 c -0.125 0.125 -0.27 0.402 -0.324 0.613 c -0.109 0.445 -0.039 0.613 0.551 1.32 c 0.32 0.383 0.375 0.496 0.285 0.602 c -0.078 0.09 -0.219 0.117 -0.492 0.09 c -0.313 -0.031 -0.418 -0.082 -0.574 -0.277 c -0.289 -0.363 -0.492 -0.746 -0.586 0.117 c -0.012 0.086 -0.059 0.195 -0.105 0.242 c -0.234 0.094 -0.625 0.129 -0.816 0"/><path d="m 19.57 22.16 c -0.125 -0.133 -0.563 -1.219 -0.543 -1.34 c -0.273 -0.445 -0.387 -0.828 -0.656 -1.238 c -0.238 -0.359 -0.164 -0.617 0.184 -0.629 c 0.387 -0.016 0.563 0.102 0.773 0.52 c 0.102 0.195 0.223 0.691 0.277 0.695 c 0.051 0.008 0.223 -0.449 0.371 -0.613 c 0.441 -0.492 0.953 -0.691 1.063 -0.41 c 0.078 0.215 -0.008 0.457 -0.27 0.742 c -0.195 0.211 -0.309 0.496 -0.477 1.191 c -0.27 1.141 -0.438 1.391 -0.723 1.082"/><path d="m 151.19 164.95 c 0.193 -0.341 1.124 -1.676 2.055 -2.98 c 0.963 -1.273 1.701 -2.545 1.701 -2.824 c 0 -0.248 0.706 -1.428 1.541 -2.576 c 0.835 -1.117 1.509 -2.359 1.509 -2.7 c 0 -0.341 -0.674 -1.273 -1.509 -2.079 l -1.477 -1.428 l -1.573 1.086 c -0.867 0.621 -2.6 2.048 -3.852 3.166 c -1.926 1.738 -2.279 2.328 -2.279 3.973 v 1.955 h -8.25 l 2.215 -2.39 c 1.188 -1.335 2.376 -2.483 2.6 -2.576 c 0.514 -0.217 6.517 -7.946 6.517 -8.38 c 0 -0.186 -0.738 -0.931 -1.637 -1.676 c -3.403 -2.886 -3.178 -2.855 -6.549 -0.869 c -1.701 0.962 -3.339 1.8 -3.692 1.8 c -0.321 0.031 -1.733 0.559 -3.146 1.179 c -2.408 1.055 -2.697 1.086 -5.586 0.435 c -1.669 -0.372 -3.114 -0.497 -3.21 -0.279 c -0.064 0.248 -0.963 1.676 -1.99 3.197 c -1.509 2.235 -1.958 3.569 -2.536 7.232 c -0.385 2.483 -0.77 4.593 -0.867 4.687 c -0.128 0.124 -1.99 0.124 -4.173 0.062 c -3.884 -0.155 -3.949 -0.186 -3.05 -1.086 c 1.733 -1.707 5.361 -6.549 5.361 -7.139 c 0 -0.341 -0.321 -1.707 -0.77 -3.073 c -0.417 -1.366 -1.091 -4.5 -1.509 -7.01 c -0.417 -2.483 -1.541 -6.549 -2.504 -9.06 c -2.889 -7.604 -3.02 -8.256 -2.343 -9.746 c 0.642 -1.397 0.931 -1.955 4.334 -8.38 c 1.188 -2.204 2.311 -4.78 2.504 -5.649 c 0.353 -1.583 2.376 -3.662 3.531 -3.693 c 0.931 0 3.884 -2.452 8.154 -6.766 c 2.793 -2.793 3.916 -3.662 3.627 -2.793 c -1.509 4.531 0.161 4.252 5.01 -0.869 c 2.151 -2.266 3.916 -3.973 3.916 -3.787 c 0 0.217 -0.738 2.514 -1.605 5.09 l -1.573 4.718 l 2.247 8.939 l -2.376 3.662 c -1.284 2.02 -2.632 4.066 -2.953 4.562 c -0.546 0.776 -0.385 1.148 1.156 2.421 c 0.995 0.838 2.6 2.048 3.563 2.7 c 0.995 0.652 2.247 1.614 2.825 2.173 c 1.027 0.962 3.21 1.986 10.561 4.935 l 3.435 1.397 l 1.445 -1.024 c 0.77 -0.59 2.568 -1.552 3.981 -2.142 c 2.247 -0.962 2.985 -1.676 5.81 -5.804 c 2.825 -4.097 3.531 -4.78 5.297 -5.276 c 1.124 -0.341 2.697 -0.807 3.531 -1.055 c 0.803 -0.248 1.573 -0.372 1.701 -0.248 c 0.225 0.217 -0.706 7.48 -1.22 9.653 c -0.193 0.683 -1.188 1.428 -2.921 2.111 c -2.183 0.9 -2.953 0.993 -4.494 0.59 c -1.766 -0.497 -2.119 -0.372 -5.586 1.738 l -3.692 2.297 l 0.128 4.656 c 0.161 5.03 0.578 6.921 2.44 10.522 l 1.188 2.359 l -7.255 7.139 l 0.321 2.793 l 0.321 2.762 h -4.334 c -3.371 0 -4.302 -0.155 -4.01 -0.621" transform="matrix(0.12168 0 0 0.12586 0.064 -2.424)" fill-rule="evenodd" stroke="#fff" stroke-width="0.578"/></g></svg>