<svg xmlns="http://www.w3.org/2000/svg" viewBox="0 0 32 32"><path d="m 8.328 28.41 c 7.391 7.309 14.211 1.957 19.816 -3.855 c 4.566 -4.73 4.773 -9.121 1.75 -13.773 c -7.902 -12.148 -18.16 -16.652 -28.895 2.191 c -2.648 6.215 2.938 11.996 7.328 15.438" fill="#212121"/><path d="m 21.18 22.875 h -9.902 l -4.953 -8.367 l 4.953 -8.367 h 9.902 l 4.949 8.367" fill="#ff3838"/><path d="m 20.914 22.43 h -9.383 l -4.691 -7.926 l 4.691 -7.93 h 9.383 l 4.691 7.93" fill="#212121"/><path d="m 16 9.285 l -4.785 7.84 l 1.258 -0.68 l 3.527 -5.781 m 0.438 -1.379 v 1.379 l 3.531 5.781 l 1.254 0.68 m -8.609 -0.266 l -1.273 0.688 h 9.754 l -1.273 -0.688" fill="#ff3838"/><path d="m 15.96 49.5 h 13.08 c 0.252 0 0.459 0.257 0.459 0.588 v 17.818 c 0 0.331 -0.206 0.588 -0.459 0.588 h -13.08 c -0.252 0 -0.459 -0.257 -0.459 -0.588 v -17.818 c 0 -0.331 0.206 -0.588 0.459 -0.588" transform="matrix(0.51083 0 0 -0.4251 4.707 48.747)" fill="none" stroke="#fff"/><g fill="#fff"><path d="m 14.03 20.691 v 3.93 h -0.641 l 1.277 2.02 l 1.277 -2.02 h -0.641 v -3.93"/><path d="m 17.09 20.691 v 3.93 h -0.637 l 1.277 2.02 l 1.277 -2.02 h -0.641 v -3.93"/></g></svg>