<svg xmlns="http://www.w3.org/2000/svg" viewBox="0 0 32 32"><path d="m 0.469 12.672 c 2.477 -16.48 27.15 -16.977 30.879 -0.953 c 3.836 12.973 -10.06 23.578 -20.453 19.328 c -6.961 -2.01 -12.586 -10.227 -10.426 -18.371" fill="#707f8f"/><path d="m 23.402 14.367 c 0.473 3.871 -2.422 7.375 -6.469 7.828 c -4.04 0.453 -7.707 -2.32 -8.18 -6.191 c -0.473 -3.871 2.426 -7.375 6.469 -7.828 c 4.047 -0.453 7.707 2.316 8.18 6.188" fill="#fff"/><path d="m 15.11 25.281 c -2.25 -0.34 -3.586 -0.945 -5.03 -2.27 c -1.148 -1.059 -1.969 -2.402 -2.355 -3.855 c -0.355 -1.344 -0.43 -4.07 -0.148 -5.363 c 0.613 -2.84 2.781 -5.188 5.656 -6.133 c 1.715 -0.473 3.348 -0.563 4.844 -0.195 c 3.375 0.844 5.758 3.309 6.414 6.637 c 0.137 0.68 0.102 3.965 -0.047 4.633 c -0.375 1.699 -1.129 3.01 -2.402 4.172 c -1.039 0.949 -2.57 1.785 -3.887 2.125 c -0.895 0.234 -2.367 0.352 -3.047 0.25 m 2.91 -4.04 c 2.594 -0.875 4.277 -3.125 4.277 -5.715 c 0 -1.734 -0.656 -3.191 -1.98 -4.395 c -2.539 -2.313 -6.457 -2.199 -8.887 0.254 c -1.184 1.195 -1.77 2.719 -1.688 4.402 c 0.051 1 0.188 1.512 0.645 2.398 c 0.633 1.223 1.633 2.168 2.918 2.77 c 1.648 0.633 3.281 0.766 4.715 0.285" fill="#1c72d7"/><path d="m 14.355 17.672 c -0.105 -0.105 -0.121 -0.395 -0.113 -2.07 c 0.004 -1.074 0.027 -2.035 0.059 -2.137 c 0.109 -0.398 0.25 -0.383 1.203 0.105 c 0.488 0.25 1.328 0.738 1.867 1.082 c 1.145 0.734 1.203 0.836 0.691 1.211 c -0.473 0.348 -2.324 1.449 -2.867 1.711 c -0.531 0.25 -0.672 0.27 -0.84 0.098" fill="#195fb3"/><g fill="#7fb2d2"><path d="m 15.11 25.05 c -1.426 -0.199 -2.434 -0.543 -3.523 -1.195 c -0.805 -0.48 -2.102 -1.785 -2.59 -2.609 c -0.363 -0.609 -0.898 -1.891 -0.852 -2.039 c 0.016 -0.043 0.207 0.223 0.43 0.582 c 0.492 0.801 1.797 2.141 2.578 2.645 c 1.059 0.68 2.398 1.219 3.508 1.402 c 0.875 0.148 2.488 0.113 3.539 -0.07 c 0.508 -0.09 1.055 -0.301 1.063 -0.289 c 0 0.281 -0.297 0.742 -0.32 1.039 c -0.5 0.211 -0.887 0.289 -1.395 0.387 c -0.629 0.121 -2.039 0.207 -2.438 0.148"/><path d="m 20.469 23.09 c 0.094 -0.203 0.023 -0.023 0.957 -0.961 c 1.402 -1.402 2.055 -2.313 2.578 -3.598 c 0.141 -0.344 0.273 -0.645 0.297 -0.668 c 0.078 -0.07 -0.074 0.887 -0.23 1.48 c -0.207 0.773 -0.75 1.879 -1.223 2.48 c -0.578 0.742 -2.359 2.184 -2.633 2.184 c -0.059 0 0.09 -0.555 0.254 -0.918"/></g></svg>