<svg xmlns="http://www.w3.org/2000/svg" viewBox="0 0 32 32"><path d="m 24.648 27.29 c 8.777 -9.117 8.996 -21.309 1.414 -25.15 c -10.141 -4.125 -29.441 -1.922 -24.941 14.734 c 4.531 13.758 14.03 19.945 23.527 10.418" fill="#9370db"/><path d="m 15.16 25.789 c -3.293 -1.918 -4.941 -3.16 -6.168 -4.652 c -1.316 -1.602 -1.746 -3.824 -1.863 -9.605 l -0.051 -2.559 l 0.84 -0.305 c 1.625 -0.59 4.414 -1.539 6.211 -2.113 l 1.82 -0.582 l 0.402 0.137 c 0.223 0.074 1.711 0.574 3.309 1.109 c 3.03 1.012 4.098 1.383 4.809 1.668 l 0.422 0.168 l -0.055 1.805 c -0.129 4.379 -0.348 6.648 -0.77 8.07 c -0.719 2.395 -2.434 4.04 -7.02 6.727 c -0.512 0.301 -0.988 0.543 -1.059 0.543 c -0.074 0 -0.445 -0.184 -0.828 -0.406" fill="#f4f4f4"/><path d="m 15.297 23.703 c -2.461 -1.5 -3.691 -2.469 -4.609 -3.637 c -0.984 -1.25 -1.305 -2.984 -1.391 -7.504 l -0.039 -1.996 l 0.629 -0.238 c 1.211 -0.461 3.297 -1.203 4.641 -1.652 l 1.359 -0.457 l 0.301 0.109 c 0.164 0.059 1.277 0.449 2.473 0.867 c 2.266 0.793 3.063 1.082 3.594 1.301 l 0.316 0.133 l -0.039 1.41 c -0.098 3.422 -0.262 5.195 -0.578 6.301 c -0.535 1.875 -1.816 3.156 -5.246 5.258 c -0.383 0.234 -0.738 0.426 -0.793 0.426 c -0.051 0 -0.332 -0.145 -0.617 -0.32" fill="#cfa8f4"/><path d="m 19.02 17.945 c -0.469 -0.539 -0.961 -0.914 -1.375 -1.043 c -0.586 -0.184 -0.504 -0.242 0.484 -0.344 c 0.27 -0.027 0.531 -0.086 0.582 -0.125 c 0.363 -0.293 -0.488 -2.43 -1.449 -3.652 c -0.266 -0.332 -0.461 -0.605 -0.441 -0.605 c 0.152 0 0.523 0.281 0.883 0.672 c 0.52 0.563 0.93 1.258 1.375 2.32 c 0.488 1.176 0.832 1.535 1.957 2.074 c 0.473 0.23 0.848 0.422 0.836 0.434 c -0.016 0.012 -0.367 -0.012 -0.785 -0.051 c -0.988 -0.098 -1.109 -0.063 -1.363 0.398 c -0.113 0.207 -0.227 0.375 -0.258 0.375 c -0.027 0 -0.227 -0.203 -0.445 -0.453" fill="#fff"/><path d="m 15.352 23.672 c -0.73 -0.402 -2.281 -1.449 -2.973 -2.01 c -0.863 -0.691 -1.758 -1.676 -2.074 -2.273 c -0.652 -1.246 -0.914 -3.164 -0.965 -7.133 l -0.023 -1.68 l 1.387 -0.512 c 1.805 -0.668 5.113 -1.801 5.148 -1.766 c 0.016 0.016 0.02 3.543 0.008 7.836 l -0.02 7.805" fill="#845faa"/><path d="m 12.844 13.301 c 0.473 0.539 0.965 0.91 1.379 1.043 c 0.582 0.184 0.5 0.242 -0.488 0.34 c -0.27 0.027 -0.527 0.086 -0.582 0.129 c -0.359 0.293 0.488 2.43 1.453 3.648 c 0.262 0.332 0.461 0.605 0.438 0.605 c -0.152 0 -0.52 -0.281 -0.883 -0.672 c -0.52 -0.563 -0.93 -1.254 -1.375 -2.32 c -0.488 -1.172 -0.828 -1.535 -1.953 -2.074 c -0.477 -0.227 -0.852 -0.422 -0.836 -0.434 c 0.016 -0.012 0.367 0.012 0.781 0.051 c 0.992 0.098 1.109 0.063 1.363 -0.398 c 0.113 -0.203 0.23 -0.371 0.258 -0.375 c 0.027 0 0.23 0.207 0.445 0.457" fill="#fff"/><path d="m 15.742 5.609 h 0.379 c 0.121 0 0.223 0.133 0.223 0.297 v 20.17 c 0 0.164 -0.102 0.301 -0.223 0.301 h -0.379 c -0.125 0 -0.223 -0.137 -0.223 -0.301 v -20.17 c 0 -0.164 0.098 -0.297 0.223 -0.297" fill="#9370db"/></svg>