<svg xmlns="http://www.w3.org/2000/svg" viewBox="0 0 32 32"><path d="m 7.148 3.418 c 16.03 -11.457 33.23 9.703 20.297 23.2 c -12.191 12.719 -32.06 0.93 -26.422 -14.895 c 1.176 -3.305 3.184 -6.199 6.125 -8.305" fill="#fd4c6c"/><path d="m 7.906 23.809 l -0.238 -0.293 v -14.1 l 0.238 -0.293 l 0.234 -0.293 h 15.828 l 0.469 0.586 v 14.1 l -0.234 0.293 l -0.234 0.289 h -15.828 m 15.574 -7.633 v -6.734 l -7.641 0.023 l -7.641 0.027 l -0.023 6.586 c -0.012 3.621 -0.004 6.641 0.02 6.707 c 0.031 0.102 1.637 0.125 7.66 0.125 h 7.625"/><g fill="#fff"><path d="m 14.09 19.652 c -0.422 -0.125 -0.523 -0.414 -0.586 -1.73 c -0.027 -0.637 -0.078 -1.152 -0.105 -1.152 c -0.031 0 -0.461 0.449 -0.961 1 c -1.031 1.148 -1.262 1.316 -1.484 1.094 c -0.129 -0.133 -0.145 -0.383 -0.145 -2.387 c 0 -2.328 0.027 -2.523 0.363 -2.523 c 0.07 0 0.598 0.469 1.176 1.039 c 0.574 0.57 1.047 1 1.047 0.957 c 0.012 -0.457 0.34 -2.457 0.414 -2.535 c 0.125 -0.125 2.668 -0.199 4.848 -0.141 c 1.379 0.039 1.613 0.063 1.742 0.195 c 0.141 0.141 0.152 0.379 0.152 2.996 c 0 2.547 -0.016 2.859 -0.141 2.988 c -0.109 0.109 -0.387 0.16 -1.145 0.211 c -1.367 0.094 -4.836 0.082 -5.176 -0.016 m 3.855 -1.238 c 0.906 -0.324 1.496 -1.629 1.207 -2.676 c -0.098 -0.359 -0.66 -0.949 -1.145 -1.211 c -0.465 -0.25 -1.309 -0.25 -1.777 0 c -0.707 0.379 -1.141 1.098 -1.141 1.898 c -0.004 0.656 0.117 1.02 0.469 1.434 c 0.625 0.73 1.395 0.91 2.387 0.555"/><path d="m 16.547 17.531 c -0.363 -0.184 -0.703 -0.703 -0.703 -1.07 c 0 -0.273 0.477 -0.949 0.773 -1.102 c 0.594 -0.313 1.313 -0.004 1.645 0.707 c 0.191 0.402 0.105 0.777 -0.281 1.211 c -0.398 0.453 -0.875 0.539 -1.434 0.254"/><path d="m 9.207 13.305 c -0.07 -0.07 -0.07 -2.297 -0.004 -2.555 c 0.047 -0.168 0.113 -0.191 0.656 -0.215 c 0.879 -0.035 1.809 0.047 1.93 0.168 c 0.211 0.207 -0.07 0.297 -1.063 0.344 l -0.98 0.043 v 1 c 0 0.551 -0.023 1.066 -0.055 1.137 c -0.051 0.137 -0.375 0.188 -0.484 0.078"/><path d="m 22.816 13.305 c 0.07 -0.07 0.07 -2.297 0.004 -2.555 c -0.047 -0.168 -0.113 -0.191 -0.656 -0.215 c -0.879 -0.035 -1.809 0.047 -1.934 0.168 c -0.207 0.207 0.074 0.297 1.066 0.344 l 0.98 0.043 v 1 c 0 0.551 0.023 1.066 0.051 1.137 c 0.055 0.137 0.379 0.188 0.488 0.078"/><path d="m 22.898 19.523 c 0.07 0.07 0.074 2.297 0.004 2.559 c -0.043 0.168 -0.113 0.188 -0.652 0.211 c -0.883 0.035 -1.813 -0.043 -1.934 -0.168 c -0.207 -0.207 0.074 -0.297 1.066 -0.34 l 0.98 -0.043 v -1 c 0 -0.551 0.023 -1.063 0.051 -1.137 c 0.051 -0.133 0.379 -0.188 0.484 -0.078"/><path d="m 9.207 19.523 c -0.07 0.07 -0.07 2.297 -0.004 2.559 c 0.047 0.168 0.113 0.188 0.656 0.211 c 0.879 0.035 1.809 -0.043 1.93 -0.168 c 0.211 -0.207 -0.07 -0.297 -1.063 -0.34 l -0.98 -0.043 v -1 c 0 -0.551 -0.023 -1.063 -0.055 -1.137 c -0.051 -0.133 -0.375 -0.188 -0.484 -0.078"/></g></svg>