<svg xmlns="http://www.w3.org/2000/svg" viewBox="0 0 32 32"><path d="m 10.797 30.742 c 15.926 6.211 24.09 -11.195 20.04 -22.03 c -2.832 -7.562 -14.12 -11.332 -23.254 -5.961 c -11.516 6.777 -9.07 23.2 3.219 27.988" fill="#d7bfd7"/><path d="m 9.25 9.246 h 13.668 v 13.855 h -13.668" fill="#fff"/><g fill="none" stroke-linejoin="round" stroke-linecap="round" stroke-width="2" transform="matrix(0.97613 0 0 0.98993 8.275 8.254)"><path d="m 0.999 7.998 v -5.398 c 0 -1.2 0.4 -1.598 1.601 -1.598 h 10.801 c 1.201 0 1.601 0.399 1.601 1.598 v 1.401" stroke="#4255e3"/><path d="m 15 7.998 v 5.402 c 0 1.2 -0.4 1.598 -1.601 1.598 h -10.801 c -1.201 0 -1.601 -0.399 -1.601 -1.598 v -1.401" stroke="#c36fff"/><path d="m 7.998 4 v 7.999" stroke="#4255e3"/></g><path d="m 18.04 18.15 c 0 1.094 -0.871 1.98 -1.953 1.98 c -1.078 0 -1.949 -0.887 -1.949 -1.98 c 0 -1.094 0.871 -1.98 1.949 -1.98 c 1.082 0 1.953 0.887 1.953 1.98" fill="#c36fff"/><path d="m 4 4 v 7.999" transform="matrix(0.97613 0 0 0.98993 8.275 8.254)" fill="none" stroke="#4255e3" stroke-linejoin="round" stroke-linecap="round" stroke-width="2"/><path d="m 14.13 14.195 c 0 1.094 -0.875 1.977 -1.953 1.977 c -1.078 0 -1.953 -0.883 -1.953 -1.977 c 0 -1.094 0.875 -1.98 1.953 -1.98 c 1.078 0 1.953 0.887 1.953 1.98" fill="#c36fff"/><path d="m 12 4 v 7.999" transform="matrix(0.97613 0 0 0.98993 8.275 8.254)" fill="none" stroke="#4255e3" stroke-linejoin="round" stroke-linecap="round" stroke-width="2"/><path d="m 21.941 15.184 c 0 1.094 -0.875 1.98 -1.953 1.98 c -1.078 0 -1.953 -0.887 -1.953 -1.98 c 0 -1.094 0.875 -1.98 1.953 -1.98 c 1.078 0 1.953 0.887 1.953 1.98" fill="#c36fff"/></svg>