<svg xmlns="http://www.w3.org/2000/svg" viewBox="0 0 32 32"><path d="m 30.965 11.602 c 5.977 16.676 -15.496 24.785 -23.563 17.996 c -8.07 -6.789 -10.824 -18.422 -1.688 -24.277 c 9.137 -5.855 19.273 -10.395 25.25 6.285" fill="#19406f"/><path d="m 17.715 8.418 c -1.234 0 -2.23 0.715 -2.23 1.598 c 0 0.879 0.996 1.598 2.23 1.598 c 1.23 0 2.23 -0.719 2.23 -1.598 c 0 -0.883 -1 -1.598 -2.23 -1.598 m -2.977 3.727 c -0.824 0 -1.488 0.473 -1.488 1.063 c 0 0.59 0.664 1.066 1.488 1.066 h 1.488 v 6.508 c 0 0.5 -0.219 1.031 -0.742 1.422 c -0.043 -0.859 -1.031 -1.543 -2.234 -1.539 c -1.23 0 -2.23 0.715 -2.23 1.594 c 0 0.883 1 1.598 2.23 1.598 c 3.719 0 5.953 0 5.953 -3.074 v -8.637" fill-opacity="0.2"/><g fill="#fff"><path d="m 16.227 11.613 h 2.977 v 8.637 c 0 3.074 -2.234 3.074 -5.953 3.074 v -1.066 c 2.234 0 2.977 -1.063 2.977 -2.01"/><path d="m 19.945 9.48 c 0 0.883 -1 1.598 -2.23 1.598 c -1.234 0 -2.23 -0.715 -2.23 -1.598 c 0 -0.879 0.996 -1.594 2.23 -1.594 c 1.23 0 2.23 0.715 2.23 1.594"/><path d="m 15.484 21.727 c 0 0.883 -1 1.598 -2.234 1.598 c -1.23 0 -2.23 -0.715 -2.23 -1.598 c 0 -0.883 1 -1.598 2.23 -1.598 c 1.234 0 2.234 0.715 2.234 1.598"/><path d="m 14.738 11.613 h 1.488 c 0.82 0 1.488 0.477 1.488 1.063 c 0 0.59 -0.668 1.066 -1.488 1.066 h -1.488 c -0.82 0 -1.488 -0.477 -1.488 -1.066 c 0 -0.586 0.668 -1.063 1.488 -1.063"/></g></svg>