<svg xmlns="http://www.w3.org/2000/svg" viewBox="0 0 32 32"><path d="m 16.05 31.879 c 21.11 2.402 20.816 -31.988 -0.375 -31.582 c -19.707 -1.133 -21.488 33.457 0.375 31.582" fill="#b10303"/><g fill="#fff"><path d="m 10.08 24.551 c -0.328 -0.055 -0.363 -0.109 -0.363 -0.52 c 0 -1.035 -0.426 -0.965 5.563 -0.949 c 2.996 0.008 5.664 0.063 5.934 0.121 l 0.484 0.105 v 1.281 l -5.629 0.012 c -3.094 0.008 -5.789 -0.016 -5.988 -0.051"/><path d="m 11.449 22.496 l -0.449 -0.043 l -0.063 -0.465 c -0.031 -0.258 -0.059 -0.531 -0.059 -0.605 c 0 -0.117 0.824 -0.137 4.852 -0.137 h 4.852 l -0.063 0.582 c -0.035 0.32 -0.082 0.605 -0.102 0.629 c -0.051 0.059 -8.387 0.098 -8.969 0.039"/><path d="m 12.06 20.441 l -0.512 -0.059 l 0.301 -0.383 l 0.301 -0.379 h 7.152 l 0.301 0.379 l 0.301 0.383 l -0.563 0.063 c -0.691 0.082 -6.578 0.078 -7.281 -0.004"/><path d="m 12.43 16.14 v -2.898 l 1.129 -0.074 c 1.313 -0.086 5.277 -0.02 5.449 0.09 c 0.168 0.109 0.168 5.504 0 5.613 c -0.066 0.039 -1.57 0.094 -3.348 0.121 l -3.23 0.043 v -2.898"/><path d="m 11.813 11.926 l -0.258 -0.379 l 0.512 -0.066 c 0.664 -0.086 6.66 -0.086 7.324 0 l 0.512 0.066 l -0.258 0.379 l -0.262 0.383 h -7.309"/><path d="m 10.961 10.1 c -0.02 -0.371 -0.012 -0.977 0.016 -1.344 l 0.047 -0.664 l 0.523 -0.031 c 0.293 -0.02 0.57 0.016 0.629 0.082 c 0.063 0.063 0.133 0.395 0.156 0.742 l 0.051 0.629 l 1.176 0.027 c 1.328 0.031 1.293 0.055 1.297 -0.844 c 0 -0.227 0.055 -0.469 0.117 -0.535 c 0.152 -0.16 1.359 -0.16 1.512 0 c 0.066 0.066 0.117 0.266 0.117 0.445 c 0 0.176 0.027 0.465 0.063 0.641 l 0.063 0.32 l 1.176 -0.027 l 1.172 -0.027 l 0.051 -0.609 c 0.027 -0.336 0.086 -0.668 0.129 -0.738 c 0.078 -0.129 0.805 -0.172 1.074 -0.063 c 0.129 0.051 0.156 0.27 0.156 1.371 v 1.309 h -9.492 l -0.031 -0.68"/></g></svg>