<svg xmlns="http://www.w3.org/2000/svg" viewBox="0 0 32 32"><path d="m 9.145 31.879 c 46.02 3.18 11.527 -58.21 -8.02 -17.785 c -2.695 6.227 -0.727 15.516 8.02 17.785" fill="#dcdcdc"/><g fill="#5b5b5b"><path d="m 12.945 20.16 c -0.152 -0.473 0.434 -1.758 1.539 -3.387 c 0.801 -1.176 1.219 -1.98 1.141 -2.187 c -0.207 -0.527 -1.641 0.523 -2.719 1.996 c -0.816 1.109 -1.082 1.262 -1.34 0.77 c -0.133 -0.258 -0.172 -0.27 -0.703 -0.27 c -1.039 0 -1.797 -0.387 -2.172 -1.105 l -0.219 -0.418 l 0.324 -0.938 c 0.18 -0.516 0.754 -1.855 1.281 -2.977 c 1.277 -2.73 1.336 -2.891 1.461 -4.219 l 0.109 -1.125 h 0.426 c 0.43 0 1.125 0.199 1.77 0.504 l 0.344 0.164 l 0.441 -0.469 c 0.73 -0.777 1.172 -0.633 1.848 0.613 c 0.336 0.621 0.41 0.668 1.383 0.863 c 0.953 0.187 1.582 0.527 2.355 1.27 c 1.105 1.059 2.176 2.953 2.723 4.801 c 0.285 0.965 0.309 1.219 0.391 4.551 l 0.043 1.746 h -5.184 c -5.109 0 -5.184 -0.004 -5.242 -0.184 m 9.199 -1 c 0.23 -0.25 0.273 -1.102 0.137 -2.633 c -0.16 -1.77 -0.445 -2.836 -1.07 -3.965 c -0.754 -1.359 -2.301 -3 -3.219 -3.422 c -0.668 -0.301 -1.418 -0.375 -1.633 -0.164 c -0.262 0.262 -0.141 0.422 0.52 0.684 c 1.773 0.711 3.094 2.25 3.859 4.512 c 0.344 1.012 0.363 1.125 0.441 2.738 c 0.074 1.594 0.148 2.051 0.379 2.324 c 0.145 0.172 0.391 0.141 0.586 -0.074 m -12.383 -3.531 c 0.359 -0.383 0.301 -0.879 -0.09 -0.762 c -0.461 0.137 -0.797 0.664 -0.57 0.887 c 0.125 0.125 0.488 0.055 0.66 -0.125 m 2.879 -4.328 c 0.723 -0.543 1.031 -0.957 0.895 -1.207 c -0.121 -0.227 -0.52 -0.371 -0.809 -0.301 c -0.57 0.141 -1.383 1.129 -1.254 1.527 c 0.027 0.082 0.066 0.207 0.09 0.285 c 0.082 0.254 0.492 0.141 1.078 -0.305"/><path d="m 7.598 27.29 c -0.656 -0.137 -0.332 -0.664 0.234 -0.875 c 0.383 -0.141 0.344 -0.449 0.395 -1.816 c 0.047 -1.148 0.078 -1.371 0.207 -1.516 c 0.121 -0.129 0.191 -0.152 0.309 -0.09 c 0.258 0.141 0.348 0.691 0.301 1.859 c -0.055 1.324 -0.164 1.793 -0.492 2.07 c -0.258 0.215 -0.637 0.434 -0.953 0.367"/><path d="m 8.219 22.27 c -0.184 -0.223 -0.184 -0.234 0.082 -0.523 c 0.262 -0.289 0.273 -0.289 0.477 -0.09 c 0.246 0.246 0.262 0.43 0.047 0.664 c -0.215 0.234 -0.383 0.219 -0.605 -0.051"/><path d="m 9.848 25.793 c -0.031 -0.098 -0.059 -0.945 -0.066 -1.883 c -0.012 -1.859 0.031 -2.082 0.406 -2.082 c 0.258 0 0.344 0.211 0.43 1.059 c 0.074 0.777 0.172 0.824 0.77 0.395 c 0.453 -0.324 0.852 -0.449 0.945 -0.297 c 0.07 0.113 -0.086 0.359 -0.578 0.914 c -0.203 0.23 -0.371 0.445 -0.371 0.48 c 0 0.031 0.262 0.352 0.582 0.707 c 0.32 0.355 0.57 0.691 0.555 0.742 c -0.09 0.273 -0.613 0.105 -1.293 -0.41 c -0.199 -0.152 -0.41 -0.277 -0.469 -0.277 c -0.055 0 -0.125 0.129 -0.156 0.285 c -0.086 0.469 -0.637 0.734 -0.754 0.367"/><path d="m 13.05 25.828 c -0.195 -0.188 -0.203 -3.535 -0.012 -3.813 c 0.156 -0.219 0.449 -0.242 0.645 -0.047 c 0.176 0.176 0.172 3.113 -0.008 3.645 c -0.125 0.383 -0.371 0.469 -0.625 0.215"/><path d="m 15.04 25.848 c -0.438 -0.199 -0.629 -0.727 -0.633 -1.742 c -0.004 -1.09 0.195 -1.453 0.566 -1.043 c 0.129 0.141 0.195 0.438 0.352 1.559 c 0.043 0.324 0.227 0.52 0.484 0.52 c 0.293 0 0.52 -0.352 0.578 -0.895 c 0.121 -1.148 0.129 -1.18 0.34 -1.277 c 0.168 -0.074 0.23 -0.066 0.348 0.051 c 0.121 0.121 0.141 0.32 0.137 1.461 c -0.004 0.723 -0.023 1.336 -0.051 1.363 c -0.023 0.023 -0.449 0.063 -0.945 0.086 c -0.699 0.035 -0.965 0.016 -1.176 -0.082"/><path d="m 18.16 25.898 l -0.289 -0.055 l -0.023 -1.738 c -0.031 -2.141 -0.012 -2.273 0.316 -2.273 c 0.184 0 0.273 0.055 0.367 0.242 c 0.07 0.133 0.125 0.34 0.125 0.453 c 0 0.246 0.211 0.379 0.598 0.379 c 0.406 0 0.824 0.137 1.145 0.375 l 0.281 0.207 l 0.063 -0.438 c 0.02 -0.129 0.293 -0.105 0.371 -0.309 c 0.168 -0.449 0.336 -0.664 0.523 -0.664 c 0.148 0 0.414 0.246 0.414 0.387 c 0 0.195 0.32 0.348 0.867 0.402 c 0.887 0.094 0.918 0.117 1.281 0.906 c 0.207 0.441 0.375 0.703 0.453 0.703 c 0.078 0 0.266 -0.273 0.48 -0.707 c 0.25 -0.504 0.402 -0.719 0.535 -0.754 c 0.492 -0.121 0.555 0.207 0.219 1.148 c -0.477 1.324 -0.816 1.801 -1.285 1.801 c -0.301 0 -0.535 -0.32 -0.973 -1.336 c -0.43 -0.988 -0.52 -1.078 -0.961 -0.977 c -0.484 0.105 -0.648 0.352 -0.578 0.863 c 0.066 0.504 0.117 0.57 0.539 0.695 c 0.676 0.203 0.582 0.664 -0.148 0.734 c -0.52 0.051 -0.895 -0.086 -1.043 -0.383 c -0.059 -0.117 -0.156 -0.531 -0.215 -0.918 c -0.184 -1.242 -0.367 -1.297 -0.484 -0.145 c -0.121 1.168 -0.375 1.41 -1.535 1.438 c -0.414 0.008 -0.883 -0.008 -1.043 -0.039 m 1.434 -0.855 c 0.254 -0.133 0.305 -0.23 0.305 -0.602 c 0 -0.578 -0.52 -0.898 -0.961 -0.586 c -0.234 0.16 -0.305 0.566 -0.16 0.91 c 0.105 0.254 0.172 0.297 0.57 0.363 c 0.035 0.008 0.148 -0.031 0.246 -0.086"/></g></svg>