<svg xmlns="http://www.w3.org/2000/svg" viewBox="0 0 32 32"><path d="m 24.23 2.332 c 28.16 24.18 -29.75 47.43 -23.797 10.04 c 1.305 -8.199 16.207 -16.547 23.797 -10.04" fill="#4581b3"/><path d="m 7.934 13.152 h 14.504 c 0.039 0 0.07 0.035 0.07 0.078 v 10.422 c 0 0.043 -0.031 0.078 -0.07 0.078 h -14.504 c -0.039 0 -0.07 -0.035 -0.07 -0.078 v -10.422 c 0 -0.043 0.031 -0.078 0.07 -0.078" fill="#fff"/><path d="m 7.301 24.266 l -0.332 -0.336 v -12.06 l 0.359 -0.281 c 0.352 -0.277 0.473 -0.281 8.07 -0.281 h 7.715 l 0.332 0.332 l 0.332 0.336 v 5.953 c 0 5.816 -0.004 5.961 -0.277 6.309 l -0.281 0.359 h -15.586 l -0.332 -0.332 m 14.375 -4.281 v -2.508 h -1.219 l -0.039 1.867 l -0.035 1.863 h -3.52 v 0.586 c 0 0.324 0.043 0.633 0.094 0.684 c 0.051 0.051 1.137 0.074 2.406 0.055 l 2.313 -0.035 m -11.05 -5.625 v -1.758 l 1.73 -0.039 l 1.727 -0.039 l 0.043 -0.711 l 0.039 -0.711 h -4.895 v 2.418 c 0 1.328 0.043 2.457 0.09 2.508 c 0.051 0.051 0.355 0.09 0.68 0.09 h 0.586" fill="#35c3e5"/><path d="m 8.191 10.03 c 0 -0.488 0.066 -0.656 0.355 -0.883 c 0.352 -0.273 0.488 -0.281 6.707 -0.281 c 4.363 0 6.449 0.047 6.676 0.152 c 0.387 0.176 0.633 0.645 0.633 1.211 v 0.398 h -14.371" fill="#2fb0ce"/><path d="m 9.609 8.223 c 0.219 -0.879 0 -0.848 5.641 -0.848 c 2.816 0 5.219 0.039 5.34 0.086 c 0.219 0.082 0.617 0.723 0.617 0.992 c 0 0.098 -1.855 0.145 -5.844 0.145 h -5.848" fill="#239bb5"/></svg>