<svg xmlns="http://www.w3.org/2000/svg" viewBox="0 0 32 32"><path d="m 2.332 24.23 c 24.18 28.16 47.43 -29.75 10.04 -23.797 c -8.199 1.305 -16.547 16.207 -10.04 23.797" fill="#ccc"/><path d="m 57.24 180.73 c -0.156 -0.438 -0.219 -2.438 -0.125 -4.469 l 0.188 -3.656 l 21.469 -0.156 l 21.5 -0.156 l -0.188 -4.438 l -0.156 -4.438 l -18.906 -0.281 l -18.938 -0.281 l -0.188 -2.125 c -0.156 -2 -0.313 -2.125 -2.375 -2.313 l -2.219 -0.156 v -86.66 l 2.219 -0.156 c 2.063 -0.188 2.219 -0.313 2.375 -2.313 l 0.188 -2.125 h 124.28 l 0.188 2.125 c 0.188 2 0.313 2.125 2.406 2.313 l 2.219 0.156 v 86.66 l -2.219 0.156 c -2.094 0.188 -2.219 0.313 -2.406 2.313 l -0.188 2.125 l -37.813 0.563 l -0.188 4.438 l -0.156 4.438 l 21.469 0.156 l 21.5 0.156 v 8.594 l -66.813 0.156 c -55.875 0.125 -66.844 0 -67.12 -0.625 m 73.75 -9.375 l 2.25 -0.344 v -6.563 l -2.781 -0.375 c -1.531 -0.219 -4.344 -0.375 -6.219 -0.375 c -1.906 0 -4.688 0.156 -6.219 0.375 l -2.781 0.375 v 3.313 c 0 3.188 0.063 3.344 1.625 3.563 c 2.75 0.406 11.719 0.438 14.13 0.031 m 55.688 -56.41 v -43.625 h -124.88 v 87.22 h 124.88 m -76.63 -5.406 c -0.188 -0.438 -0.25 -1.438 -0.125 -2.156 c 0.188 -1.313 0.313 -1.344 7.094 -1.344 h 6.906 v 4.03 l -6.781 0.156 c -5.469 0.125 -6.813 0 -7.094 -0.656 m 62.5 -13.688 c -0.188 -0.406 -0.25 -6.563 -0.156 -13.656 l 0.156 -12.906 h 9 v 26.969 l -4.344 0.188 c -3.188 0.125 -4.438 -0.031 -4.656 -0.594 m -105.34 -29.12 v -29.28 h 3.594 v 58.53 h -3.594 m 105.34 -32.25 c -0.188 -0.438 -0.25 -6.563 -0.156 -13.656 l 0.156 -12.906 h 9 v 26.969 l -4.344 0.188 c -3.188 0.094 -4.438 -0.063 -4.656 -0.594 m -100.56 -29.12 v -1.75 h 90.06 v 3.469 h -90.06" transform="matrix(0.125 0 0 0.125 0.974 0.365)" stroke="#000"/><path d="m 79 83.69 l 46.09 0.344 h 44.813 c -0.5 29.16 -0.063 1.156 -0.25 57.5 l -45.781 0.938 h -44.844 c 0.688 -46.37 -0.031 -19.563 -0.031 -58.781" transform="scale(0.125)" fill="#9f9" stroke="#9f9" stroke-width="1.1"/></svg>