<svg xmlns="http://www.w3.org/2000/svg" viewBox="0 0 32 32"><path d="m 0.492 19.676 c 6.215 29.738 48.961 -2.188 23.281 -17.301 c -9.977 -6.48 -26.477 2.01 -23.281 17.301" fill="#234900"/><path d="m 9.785 24.2 l 0.32 -0.422 l -0.828 -0.879 c -2.516 -2.707 -1.652 -4.23 1.398 -5.05 c -1.469 -4.344 -4.328 -6.078 -3.043 -9.168 c 0.82 -1.715 3.363 -3.82 5.152 -4.262 c 0.594 -0.148 0.773 -0.141 1.043 0.051 c 0.363 0.254 0.309 0.684 -0.152 1.188 c -0.348 0.375 -0.379 0.445 -0.32 0.77 c 0.035 0.195 0.191 0.516 0.348 0.707 c 0.523 0.637 0.648 0.668 2.754 0.684 c 1.137 0.012 2.098 0.066 2.402 0.141 c 1.082 0.125 2.109 1.094 2.637 0.676 c 0.23 -0.184 1.063 -0.809 1.316 -0.73 c 0.371 0.109 0.938 1.777 0.945 2.383 c 0 0.324 0.09 0.52 0.465 1.039 c 1.086 1.512 0.938 5.05 -0.398 8.477 c 1.215 6.52 -13.195 8.922 -14.04 4.402" fill="#8cc600"/><path d="m 10.789 29.445 c -1.063 -0.203 -1.625 -0.879 -1.816 -2.195 c -0.363 -4.316 2.754 -3.203 3.02 -3.176 c 0.965 0.262 1.059 0.258 1.133 -0.047 c 0.039 -0.164 0.086 -0.297 0.105 -0.297 c 0.023 0 1.363 -0.191 2.984 -0.426 c 3.191 -0.457 4.48 -0.832 5.809 -1.688 c 0.887 -0.57 2.246 -1.91 2.766 -2.727 c 0.43 -0.68 0.578 -0.723 1.063 -0.313 c 0.664 0.566 0.336 1.988 -0.879 3.816 c -1.199 1.797 -2.582 2.859 -4.453 3.418 c -0.531 0.16 -2.01 0.445 -3.289 0.641 c -3.094 0.469 -4.867 0.281 -4.949 1.059 c -0.078 0.738 1.398 1.441 0.914 1.711 c -0.473 0.266 -1.625 0.371 -2.406 0.223" fill="#936620"/><path d="m 12.438 24.08 c 0.098 -0.363 -0.352 -0.262 -0.293 -0.813 c 0.09 -0.805 -0.082 -1.094 -1.063 -1.773 c -0.449 -0.313 -1.035 -0.762 -1.297 -0.996 c -0.262 -0.238 -0.516 -0.391 -0.559 -0.348 c -0.102 0.105 0.621 0.961 1.418 1.684 c 0.652 0.594 0.844 1.98 0.051 1.984 c -0.875 0.164 -1.117 -0.551 -2.102 -1.605 c -0.672 -0.719 -1.277 -1.934 -1.488 -2.371 c -0.324 -0.68 -0.109 -1.301 0.023 -1.813 c 0.148 -0.559 0.168 -0.574 0.738 -0.574 c 0.324 0 0.934 0.121 1.359 0.273 c 0.426 0.148 0.773 0.23 0.773 0.18 c 0 -0.051 -1.645 -1.359 -1.832 -1.656 c -1.367 -2.137 -2.34 -6.06 -1.742 -6.254 c 0.75 -0.246 0.629 2.633 1.793 4.559 c 0.211 0.348 1.863 2.516 2.039 1.727 c 0.18 -0.828 0.32 -0.953 0.559 -0.5 c 0.082 0.152 0.293 0.375 0.473 0.496 c 0.262 0.176 0.375 0.184 0.59 0.047 c 0.215 -0.137 0.375 -0.125 0.832 0.059 c 0.309 0.129 1.352 0.34 1.352 0.277 c 0 -0.281 -1.328 -0.715 -2.059 -0.805 c -0.695 -0.086 -0.828 -0.152 -1.063 -0.539 c -0.188 -0.305 -0.246 -0.574 -0.191 -0.859 c 0.207 -1.09 0.219 -1.316 0.074 -1.859 c -0.09 -0.34 -0.234 -0.582 -0.352 -0.582 c -0.152 0 -0.164 0.074 -0.063 0.355 c 0.199 0.535 0.168 0.621 -0.219 0.621 c -0.762 0 -1.602 -1.379 -1.77 -2.902 l -0.098 -0.883 l 0.93 0.723 c 0.891 0.688 0.938 0.707 1.043 0.418 c 0.145 -0.398 0.91 -0.723 3.035 -1.273 c 1.48 -0.535 1.84 -0.441 3.273 -0.07 c 2.152 0.559 2.934 0.883 3.113 1.281 c 0.082 0.184 0.195 0.336 0.25 0.336 c 0.059 0 0.461 -0.277 0.898 -0.617 c 0.902 -0.699 1.043 -0.641 0.859 0.363 c -0.25 1.371 -1.074 2.625 -1.727 2.625 c -0.32 0 -0.336 -0.035 -0.254 -0.488 c 0.07 -0.387 0.047 -0.488 -0.121 -0.488 c -0.117 0 -0.219 0.078 -0.227 0.172 c -0.008 0.098 -0.035 0.445 -0.066 0.777 c -0.035 0.414 0.035 0.773 0.223 1.156 c 0.391 0.797 -0.234 1.27 -0.586 1.785 l 0.234 0.512 c 0.238 0.508 0.215 1.27 -0.281 2.547 c -0.191 0.488 -0.313 0.922 -0.266 0.969 c 0.043 0.043 0.672 -0.027 1.395 -0.156 c 1.867 -0.34 1.965 -0.121 0.66 1.441 c -0.805 0.965 -1.293 3.215 -2 2.715 l -1.043 -0.734 l 0.836 -1.156 c 0.543 -0.754 0.836 -0.773 0.125 -0.461 c -1.086 0.477 -1.707 0.645 -2.133 0.574 c -0.297 -0.051 -0.648 0.027 -1.078 0.238 c -0.348 0.176 -0.656 0.258 -0.68 0.184 c -0.023 -0.07 -0.598 -0.039 -1.23 -0.207 c -0.512 -0.137 -0.125 -0.035 -0.059 0.75 c 0.059 0.711 0.871 1.727 1.117 1.879 c 0.953 0.586 -0.848 1.598 -1.781 0.781 c -0.418 -0.551 -0.664 -0.547 -0.348 -1.703 m 5.516 -8.02 c -0.211 0 -1.258 0.227 -1.402 0.348 c -0.762 0.629 0.465 0.094 0.609 0.121 c 2.793 -0.406 2.02 -0.465 0.793 -0.469" fill="#a97d37"/><g fill="#dfb1b1"><path d="m 13.988 22.06 c -0.371 -0.102 -1.066 -2.031 -0.945 -2.613 c 0.32 -1.527 2.047 -2.566 3.066 -1.852 c 0.895 0.629 1.387 2.367 0.941 3.328 c -0.094 0.195 -0.371 0.547 -0.617 0.781 c -0.523 0.633 -1.824 0.488 -2.445 0.355"/><path d="m 15.84 15.383 c 0 0.684 -0.301 1.238 -0.676 1.238 c -0.375 0 -0.68 -0.555 -0.68 -1.238 c 0 -0.688 0.305 -1.242 0.68 -1.242 c 0.375 0 0.676 0.555 0.676 1.242"/></g><g fill="#ffb700"><path d="m 14.645 13.406 c 0 0.875 -0.715 1.586 -1.598 1.586 c -0.883 0 -1.598 -0.711 -1.598 -1.586 c 0 -0.875 0.715 -1.582 1.598 -1.582 c 0.883 0 1.598 0.707 1.598 1.582"/><path d="m 19 13.211 c 0 0.871 -0.715 1.582 -1.598 1.582 c -0.883 0 -1.598 -0.711 -1.598 -1.582 c 0 -0.875 0.715 -1.586 1.598 -1.586 c 0.883 0 1.598 0.711 1.598 1.586"/></g><path d="m 18.551 13.23 c 0 0.574 -0.492 1.039 -1.098 1.039 c -0.605 0 -1.098 -0.465 -1.098 -1.039 c 0 -0.574 0.492 -1.039 1.098 -1.039 c 0.605 0 1.098 0.465 1.098 1.039"/><path d="m 14.199 13.492 c 0 0.574 -0.492 1.039 -1.098 1.039 c -0.605 0 -1.098 -0.465 -1.098 -1.039 c 0 -0.574 0.492 -1.039 1.098 -1.039 c 0.605 0 1.098 0.465 1.098 1.039"/><g fill="#fff"><path d="m 13.08 12.813 c 0 0.293 -0.254 0.527 -0.566 0.527 c -0.316 0 -0.57 -0.234 -0.57 -0.527 c 0 -0.289 0.254 -0.523 0.57 -0.523 c 0.313 0 0.566 0.234 0.566 0.523"/><path d="m 17.418 12.605 c 0 0.301 -0.23 0.547 -0.516 0.547 c -0.281 0 -0.512 -0.246 -0.512 -0.547 c 0 -0.301 0.23 -0.543 0.512 -0.543 c 0.285 0 0.516 0.242 0.516 0.543"/></g></svg>