<svg xmlns="http://www.w3.org/2000/svg" viewBox="0 0 32 32"><g fill="#546a2f"><path d="m 26.445 4.824 c 25.01 33.16 -43.824 37.867 -21.734 4.02 c 5.04 -7.719 15.11 -12.805 21.734 -4.02"/><g stroke="#fff" stroke-linejoin="round" stroke-linecap="round"><g stroke-width="2.5" transform="matrix(0.39346 0 0 0.39062 5.981 5.3)"><path d="m 25.13 52.19 c 8.171 5.98 15.795 -1.15 19.429 -4.02" stroke-dasharray="2.5 2.5"/><path d="m 52.53 39.09 l -6.662 4.95 m 9.541 -0.9 l -6.562 4.88"/><path d="m 46.49 42.01 c -0.625 -0.84 -1.529 -1.22 -2.035 -0.84 c 0 0 -4.845 3.7 -4.875 3.74 c -2.075 1.89 -2.482 5.03 -0.764 7.32 c 1.718 2.3 4.875 2.84 7.277 1.39 l 4.984 -3.59 c 0.496 -0.38 0.397 -1.35 -0.228 -2.19" fill-rule="evenodd"/></g><g fill-rule="evenodd" stroke-width="2.527" transform="matrix(0.38928 0 0 0.38646 5.984 5.408)"><path d="m 13.287 32.543 c -7.03 -6.742 -11.09 2.618 -8.138 5.741 c 2.037 2.547 6.382 3.305 3.924 4.225 c -5.66 2.527 -3.623 7.207 -1.074 8.834 c 5.74 3.942 7.857 -3.528 8.79 -2.072 c 0.201 1.9 -1.646 5.58 3.492 6.57 c 8.61 1.435 15.654 -12.948 16.989 -32.962"/><path d="m 12.935 33.584 c -6.663 -3.649 -7.717 -13.524 -3.773 -22.965 c 5.69 -10.896 27.766 3.922 28.408 10.08 c 1.224 2.527 -3.131 13.625 -10.727 14.828 c -6.141 1.375 -11.61 -0.708 -13.908 -1.941"/><path d="m 16.357 36.687 c -2.91 0 -7.847 2.173 -6.392 5.812 c 1.014 2.759 3.924 4.205 3.924 4.205"/><path d="m 23.18 46.704 c -4.064 -1.01 -6.232 1.173 -6.372 3.053"/><path d="m 27.827 35.36 c -6.242 3.336 -1.887 6.984 -0.291 8.01"/><path d="m 15.334 11.711 c 2.469 -5.226 2.619 -9.148 -3.482 -6.964 c -5.078 2.749 -5.529 4.933 -3.783 9.289"/><path d="m 30.727 18.968 c -5.66 -5.802 -5.519 -11.614 1.746 -11.179 c 4.646 0.152 12.874 4.993 5.03 12.544"/></g></g></g><g fill-rule="evenodd" stroke="#fff" transform="matrix(0.39346 0 0 0.39062 5.891 5.3)"><g fill="#fff"><path d="m 16.747 21.243 c 0 1.59 -1.261 2.89 -2.81 2.89 c -1.549 0 -2.81 -1.3 -2.81 -2.89 c 0 -1.6 1.261 -2.89 2.81 -2.89 c 1.549 0 2.81 1.29 2.81 2.89" stroke-width="0.874"/><path d="m 26.05 24.04 c 0 1.63 -1.261 2.96 -2.8 2.96 c -1.549 0 -2.81 -1.33 -2.81 -2.96 c 0 -1.64 1.261 -2.96 2.81 -2.96 c 1.549 0 2.8 1.32 2.8 2.96" stroke-width="0.876"/></g><path d="m 17.581 28.763 c 0 0.75 -0.328 1.37 -0.725 1.37 c -0.407 0 -0.735 -0.62 -0.735 -1.37 c 0 -0.76 0.328 -1.37 0.735 -1.37 c 0.397 0 0.725 0.61 0.725 1.37" fill="#546a2f" stroke-width="2.067"/></g></svg>