<svg xmlns="http://www.w3.org/2000/svg" viewBox="0 0 32 32"><path d="m 21.988 3.93 c -1.887 -1.566 -5.484 -3.18 -7.66 -3.438 c -3.137 -0.379 -6.766 0.582 -8.988 2.367 c -2.969 2.391 -5.02 7.332 -5.121 12.328 c -0.074 3.59 0.879 8.43 2.148 10.926 c 1.082 2.121 2.707 3.664 4.801 4.551 c 2.836 1.199 5.637 1.34 8.445 0.422 c 5.988 -1.453 10.1 -5.04 13.391 -8.273 c 7.383 -8.227 -1.141 -14.11 -7.02 -18.883" fill="#ff4500"/><path d="m 9.547 9.77 c -0.613 0 -1.109 0.063 -1.539 0.254 c -0.43 0.191 -0.781 0.547 -0.984 0.98 c -0.398 0.863 -0.348 1.867 -0.363 3.242 v 4.379 c 0.016 1.371 -0.035 2.375 0.363 3.242 c 0.203 0.43 0.555 0.785 0.984 0.977 c 0.43 0.191 0.926 0.254 1.539 0.254 h 3.676 c 0.613 0 1.109 -0.063 1.539 -0.254 c 0.43 -0.191 0.781 -0.547 0.98 -0.977 c 0.348 -0.754 0.352 -1.656 0.355 -2.77 l 2.297 -0.004 l 0.664 -0.66 l 0.59 0.668 l 0.59 -0.668 l 0.59 0.668 l 0.594 -0.668 l 1.18 1.332 l 2.949 -3.332 l -2.359 -2.664 h -7.098 c 0 -1.113 -0.012 -2.02 -0.355 -2.766 c -0.199 -0.434 -0.551 -0.789 -0.98 -0.98 c -0.43 -0.191 -0.922 -0.254 -1.539 -0.254 m -3.672 1.332 h 3.676 c 0.531 0 0.891 0.07 1.105 0.164 c 0.211 0.094 0.285 0.18 0.367 0.359 c 0.168 0.355 0.215 1.258 0.23 2.637 v 0.844 l 7.773 -0.004 l 1.184 1.336 l -1.285 1.445 l -1.18 -1.332 l -0.59 0.668 l -0.59 -0.668 l -0.59 0.668 l -0.539 -0.609 l -1.16 1.152 l -3.02 0.008 v 0.84 c -0.016 1.379 -0.063 2.281 -0.23 2.641 c -0.082 0.176 -0.156 0.262 -0.367 0.355 c -0.215 0.094 -0.574 0.164 -1.105 0.164 h -3.676 c -0.531 0 -0.895 -0.07 -1.105 -0.164 c -0.211 -0.094 -0.285 -0.176 -0.371 -0.355 c -0.164 -0.359 -0.215 -1.262 -0.23 -2.633 v -4.363 c 0.016 -1.371 0.066 -2.273 0.23 -2.629 c 0.082 -0.18 0.156 -0.266 0.371 -0.359 c 0.211 -0.094 0.574 -0.164 1.105 -0.164 m 0.656 4 c -0.652 0 -1.18 0.598 -1.18 1.332 c 0 0.738 0.527 1.336 1.18 1.336 c 0.652 0 1.18 -0.598 1.18 -1.336 c 0 -0.734 -0.527 -1.332 -1.18 -1.332" fill="#fff"/></svg>