<svg xmlns="http://www.w3.org/2000/svg" viewBox="0 0 32 32"><path d="m 28.09 25.355 c 12.379 -13.391 -8.531 -33.41 -22.277 -21.621 c -15.41 12.938 5.102 38.29 20.625 23.883 c 0.938 -0.754 1.102 -1.508 1.648 -2.262" fill="#7f7f7f"/><g transform="scale(0.125)"><path d="m 69.59 72.66 h 118.31 c 0.469 0 0.844 0.375 0.844 0.844 v 119.88 c 0 0.438 -0.375 0.813 -0.844 0.813 h -118.31 c -0.438 0 -0.813 -0.375 -0.813 -0.813 v -119.87 c 0 -0.469 0.375 -0.844 0.813 -0.844" stroke="#000" stroke-width="2.891"/><path d="m 91.78 178.88 c -1.438 -0.906 -2.094 -3.344 -3.03 -11.281 c -1.813 -15.625 -4.625 -35.906 -3.781 -61.781 c 0.719 -3.688 -1.313 -16.25 2.813 -17.469 c 1.656 -0.25 3.125 0.813 4.094 2.906 c 0.75 1.594 1.031 4.125 1.625 14.531 c 0.719 11.875 1.438 19.844 1.906 20.281 c 0.094 0.125 4.344 -4 9.438 -9.125 c 9.688 -9.813 13.156 -12.594 22.594 -18.09 c 3.844 -2.25 4.875 -2.656 6.03 -2.406 c 1.25 0.281 4.125 3.03 4.125 3.969 c 0 1.031 -2.5 3.281 -5.125 4.563 c -4.594 2.219 -10.03 6.75 -19.25 16 c -9.281 9.313 -14 14.875 -13.969 16.5 c 0 1.313 2.094 2.688 15.969 10.375 c 5.906 3.281 13.5 7.594 16.906 9.594 c 3.375 2 7.5 4.219 9.125 4.938 c 5.563 2.406 9.09 6.344 8.25 8.563 c -0.875 2.313 -10.719 0.125 -21.938 -6.06 c -6.781 -3.75 -25.688 -13.313 -28.25 -14.313 c -1.688 -0.688 -2.031 -0.688 -2.406 -0.125 c -0.594 1 -0.5 4.75 0.281 10.75 c 0.969 7.313 1.063 16.13 0.188 17 c -0.875 0.875 -4.563 1.313 -5.594 0.688" fill="#fff" stroke="#fff" stroke-width="1.386"/></g></svg>