<svg xmlns="http://www.w3.org/2000/svg" viewBox="0 0 32 32"><path d="m 0.371 19.684 c 1.984 12.883 19.609 16.328 27.387 7.133 c 6.852 -6.828 5.145 -19.906 -3.254 -24.387 c -9.652 -5.996 -23.715 1.418 -24.48 13.355 c -0.078 1.309 0.031 2.629 0.348 3.898"/><path d="m 8.313 24.676 c -0.344 -0.152 -0.508 -0.309 -0.688 -0.664 c -0.152 -0.297 -0.152 -0.348 -0.098 -6.922 c 0.031 -3.641 0.078 -7.04 0.109 -7.543 l 0.051 -0.918 l 0.344 -0.328 l 0.348 -0.324 l 0.652 -0.004 c 0.359 0 3.758 -0.004 7.551 -0.004 h 6.895 l 0.324 0.266 c 0.258 0.211 0.344 0.344 0.41 0.621 c 0.094 0.41 0.246 14.453 0.16 14.84 c -0.105 0.457 -0.441 0.863 -0.848 1.02 c -0.141 0.051 -2.547 0.078 -7.582 0.074 c -6.395 -0.004 -7.402 -0.016 -7.629 -0.113 m 1.117 -1.078 c 0.164 -0.086 0.191 -0.293 0.055 -0.426 c -0.047 -0.051 -0.258 -0.09 -0.469 -0.09 c -0.207 0 -0.418 0.039 -0.465 0.09 c -0.117 0.113 -0.117 0.301 0 0.414 c 0.109 0.109 0.684 0.117 0.879 0.012 m 13.891 -0.027 c 0.051 -0.063 0.078 -0.188 0.066 -0.281 c -0.023 -0.145 -0.074 -0.176 -0.355 -0.195 c -0.48 -0.035 -0.672 0.031 -0.672 0.234 c 0 0.094 0.039 0.211 0.086 0.258 c 0.129 0.129 0.766 0.113 0.875 -0.016 m -13.863 -1.555 c 0.082 -0.059 0.121 -0.168 0.105 -0.277 c -0.023 -0.164 -0.07 -0.188 -0.434 -0.227 c -0.504 -0.055 -0.582 -0.027 -0.645 0.211 c -0.031 0.137 -0.008 0.219 0.09 0.289 c 0.176 0.129 0.711 0.133 0.883 0.004 m 13.852 0.008 c 0.133 -0.133 0.109 -0.414 -0.039 -0.492 c -0.145 -0.07 -0.703 -0.059 -0.832 0.02 c -0.125 0.078 -0.094 0.398 0.051 0.48 c 0.18 0.105 0.715 0.102 0.82 -0.008 m -6.01 -0.359 c 1.047 -0.25 2.086 -0.832 2.844 -1.594 c 2.094 -2.094 2.277 -5.418 0.426 -7.746 c -0.371 -0.469 -1.02 -1.027 -1.594 -1.379 c -1.586 -0.965 -3.695 -1.09 -5.426 -0.324 c -2.184 0.965 -3.633 3.25 -3.512 5.535 c 0.051 0.906 0.277 1.727 0.715 2.563 c 1.203 2.309 3.988 3.559 6.547 2.945 m -7.871 -1.191 c 0.164 -0.086 0.191 -0.367 0.055 -0.504 c -0.113 -0.113 -0.82 -0.113 -0.934 0 c -0.125 0.125 -0.113 0.324 0.027 0.465 c 0.133 0.133 0.637 0.156 0.852 0.039 m 13.824 0 c 0.18 -0.094 0.199 -0.48 0.027 -0.547 c -0.379 -0.145 -0.996 0.016 -0.996 0.258 c 0 0.285 0.629 0.473 0.969 0.289 m -13.758 -1.668 c 0.051 -0.059 0.078 -0.184 0.066 -0.277 c -0.023 -0.16 -0.059 -0.172 -0.547 -0.172 c -0.484 0 -0.52 0.012 -0.543 0.172 c -0.039 0.277 0.113 0.387 0.543 0.387 c 0.25 0 0.426 -0.039 0.48 -0.109 m 13.902 -0.039 c 0.059 -0.105 0.059 -0.191 0 -0.297 c -0.066 -0.125 -0.156 -0.148 -0.512 -0.148 c -0.52 0 -0.676 0.117 -0.543 0.41 c 0.078 0.164 0.129 0.184 0.531 0.184 c 0.367 0 0.457 -0.027 0.523 -0.148 m -13.914 -1.504 c 0.117 -0.113 0.117 -0.375 0 -0.492 c -0.047 -0.047 -0.258 -0.086 -0.469 -0.086 c -0.406 0 -0.555 0.086 -0.555 0.332 c 0 0.246 0.148 0.336 0.555 0.336 c 0.211 0 0.422 -0.039 0.469 -0.09 m 13.871 -0.027 c 0.277 -0.277 0.039 -0.551 -0.477 -0.551 c -0.5 0 -0.695 0.195 -0.52 0.523 c 0.102 0.188 0.816 0.207 0.996 0.027 m -13.859 -1.551 c 0.051 -0.063 0.078 -0.203 0.066 -0.316 c -0.023 -0.207 -0.031 -0.211 -0.547 -0.211 c -0.512 0 -0.52 0.004 -0.543 0.211 c -0.035 0.316 0.102 0.422 0.543 0.422 c 0.25 0 0.426 -0.039 0.48 -0.105 m 13.859 -0.012 c 0.137 -0.137 0.145 -0.215 0.039 -0.41 c -0.063 -0.117 -0.156 -0.141 -0.504 -0.141 c -0.234 0 -0.469 0.039 -0.52 0.086 c -0.121 0.125 -0.109 0.324 0.031 0.465 c 0.156 0.156 0.797 0.156 0.953 0 m -13.871 -1.563 c 0.191 -0.133 0.215 -0.344 0.047 -0.512 c -0.141 -0.141 -0.848 -0.16 -0.98 -0.027 c -0.156 0.156 -0.109 0.504 0.078 0.578 c 0.262 0.109 0.676 0.09 0.855 -0.039 m 13.824 0 c 0.195 -0.137 0.211 -0.344 0.043 -0.512 c -0.16 -0.164 -0.906 -0.133 -1.016 0.039 c -0.102 0.164 -0.008 0.496 0.152 0.539 c 0.285 0.074 0.664 0.043 0.82 -0.066 m -13.75 -1.609 c 0.121 -0.121 0.113 -0.395 -0.016 -0.5 c -0.063 -0.051 -0.289 -0.078 -0.566 -0.066 c -0.508 0.027 -0.637 0.148 -0.508 0.488 c 0.055 0.148 0.113 0.168 0.531 0.168 c 0.266 0 0.508 -0.039 0.559 -0.09 m 13.824 0 c 0.051 -0.051 0.09 -0.16 0.09 -0.246 c 0 -0.246 -0.148 -0.336 -0.566 -0.336 c -0.516 0 -0.621 0.051 -0.621 0.293 c 0 0.297 0.129 0.379 0.594 0.379 c 0.227 0 0.457 -0.039 0.504 -0.09 m -13.809 -1.617 c 0.199 -0.375 -0.004 -0.602 -0.547 -0.602 c -0.434 0 -0.566 0.09 -0.566 0.375 c 0 0.289 0.133 0.371 0.605 0.371 c 0.348 0 0.445 -0.027 0.508 -0.145 m 13.809 0.055 c 0.125 -0.125 0.113 -0.398 -0.027 -0.539 c -0.133 -0.133 -0.707 -0.156 -0.93 -0.039 c -0.16 0.086 -0.195 0.438 -0.055 0.578 c 0.051 0.051 0.277 0.09 0.508 0.09 c 0.227 0 0.457 -0.039 0.504 -0.09 m -14 -1.543 c 0.223 -0.086 0.309 -0.316 0.199 -0.523 c -0.07 -0.129 -0.156 -0.152 -0.563 -0.152 c -0.395 0 -0.488 0.027 -0.555 0.145 c -0.109 0.207 -0.094 0.285 0.074 0.453 c 0.16 0.16 0.535 0.195 0.844 0.078 m 13.93 -0.047 c 0.18 -0.125 0.219 -0.395 0.074 -0.539 c -0.113 -0.113 -0.895 -0.113 -1.012 0 c -0.262 0.266 0.039 0.656 0.508 0.656 c 0.145 0 0.34 -0.051 0.43 -0.117" fill="#55595b"/><g stroke="#fff"><path d="m 168.29 132.83 c 0 21.56 -18.816 39.05 -42.08 39.05 c -23.24 0 -42.08 -17.485 -42.05 -39.05 c -0.028 -21.56 18.816 -39.05 42.05 -39.05 c 23.263 0 42.08 17.485 42.08 39.05" transform="matrix(0.14055 0 0 0.14857 -1.781 -3.738)" fill="#407aba" stroke-width="2"/><path d="m 88.5 246.35 c -1.414 -2.581 -1.852 -35.77 -0.539 -40.698 c 1.044 -3.889 3.603 -3.554 14.11 2.01 c 14.514 7.711 26.536 16.326 26.536 19.01 c 0 2.816 -28.893 20.11 -35.83 21.455 c -2.458 0.469 -3.199 0.168 -4.277 -1.777" transform="matrix(0.116 0 0 0.11652 3.793 -10.259)" fill="#fff" stroke-width="1.941"/></g></svg>