<svg xmlns="http://www.w3.org/2000/svg" viewBox="0 0 32 32"><path d="m 5.402 26.586 c -16.07 -12.969 7.457 -36.38 21.676 -21.426 c 14.246 12.871 -7.992 37.852 -21.676 21.426" fill="#4581b3"/><path d="m 25.281 16.266 c 0 5.23 -4.199 9.469 -9.383 9.469 c -5.18 0 -9.383 -4.238 -9.383 -9.469 c 0 -5.227 4.203 -9.465 9.383 -9.465 c 5.184 0 9.383 4.238 9.383 9.465" fill="#54a9ff"/><path d="m 15.828 10.41 c -2.191 0 -3.953 1.754 -3.953 3.938 v 7.727 h 0.879 v -7.727 c 0 -1.699 1.371 -3.063 3.074 -3.063 c 1.703 0 3.074 1.363 3.074 3.063 v 7.727 h 0.875 v -7.727 c 0 -2.184 -1.762 -3.938 -3.949 -3.938" fill="#e3e6ea"/><path d="m 10.93 22.07 h 9.875 v -6.402 h -9.875" fill="#f1c30f"/><path d="m 15.828 16.953 c -0.441 0 -0.793 0.359 -0.793 0.801 c 0 0.316 0.184 0.605 0.473 0.734 v 2.305 h 0.637 v -2.305 c 0.289 -0.129 0.477 -0.418 0.477 -0.734 c 0 -0.441 -0.355 -0.801 -0.793 -0.801" fill="#1f262d"/></svg>