<svg xmlns="http://www.w3.org/2000/svg" viewBox="0 0 32 32"><path d="m 10.461 0.762 c -9.52 1.359 -11.1 10.477 -10.148 19.32 c 0.773 7.199 4.184 10.516 9.969 11.313 c 15.12 2.094 25.754 -2.871 19.77 -24.988 c -3.258 -6.656 -13.867 -6.852 -19.59 -5.645" fill="#121a1a"/><g stroke="#c00"><path d="m 47.06 70.66 h 161.31 v 117.38 h -161.31" transform="scale(0.125)" fill="#fff" stroke-width="2.495"/><g fill="#c00" stroke-linejoin="round" stroke-linecap="round" transform="matrix(0.20263 0 0 0.19476 5.685 6.376)"><path d="m 0.436 12.329 h 4.395 l -0.405 0.301 c -0.598 0.501 -0.925 1.183 -0.925 2.01 c 0 1.103 0.501 1.885 1.542 2.407 c 0.424 0.221 1.793 0.221 45.496 0.261 c 32.33 0.02 45.21 0 45.67 -0.1 c 2.159 -0.441 2.892 -3.01 1.292 -4.493 l -0.405 -0.381 h 3.778 v 76.02 h -1.754 c -1.677 0 -1.774 -0.02 -1.581 -0.221 c 0.617 -0.662 0.81 -1.925 0.443 -2.768 c -0.251 -0.562 -1 -1.264 -1.581 -1.444 c -0.366 -0.12 -9.06 -0.16 -45.747 -0.16 h -45.28 l -0.521 0.261 c -1.504 0.923 -1.774 2.327 -1.137 3.851 l 0.347 0.481 h -3.624 m 40.908 -5.275 c 0.578 -0.521 0.019 -1.063 -0.174 -1.825 c -0.077 -0.261 0.675 -1.023 0.694 -1.384 c 0 -0.582 -0.039 -0.742 -0.308 -0.983 c -0.308 -0.301 -0.328 -0.301 -2.352 -0.301 c -2.024 0 -2.043 0 -2.352 0.301 c -0.501 1.404 -0.501 2.768 0 4.272 c 0.694 0.361 1.523 0.261 2.082 0.1 c 0.887 0.261 1.716 0.14 2.41 -0.181 m 23.654 0.1 c 0.636 -0.401 0.752 -0.802 0.655 -2.567 c -0.077 -1.825 -0.443 -2.066 -2.988 -2.046 c -0.945 0.02 -1.812 0.06 -1.909 0.1 c -0.424 0.16 -0.559 0.682 -0.559 2.367 c 0 2.146 0.154 2.427 1.253 2.427 c 0.27 0 0.598 -0.08 0.771 -0.221 c 1.176 -0.301 1.986 0.361 2.776 -0.06 m 7.653 -0.04 c 1.349 -0.923 1.272 -3.731 -0.116 -4.453 c -0.154 -0.08 -0.868 0.842 -1.909 0.862 c -1.696 0 -1.889 -0.943 -2.198 -0.662 c -0.521 1.384 -0.521 2.748 0 4.272 c 0.347 0.361 1.157 0.421 1.581 0.14 c 0.174 -0.12 0.289 -0.14 0.386 -0.04 c 0.463 0.341 1.677 0.301 2.275 -0.12 m -65.68 0.04 c 0.174 -0.16 0.308 -0.441 0.308 -0.602 c 0 -0.16 0.058 -0.301 0.116 -0.301 c 0.077 0 0.135 0.14 0.135 0.301 c 0 0.481 0.521 0.883 1.137 0.883 c 0.578 0 0.848 -0.14 1.08 -0.542 c 0.212 -0.361 0.212 -3.43 0 -3.771 c -0.174 -0.341 -5.533 -0.201 -5.803 -0.201 c -0.27 0 4.55 0.662 5.147 -1 l 0.308 -0.602 v -53.53 l -0.347 -0.642 c -0.81 -1.484 -2.911 -1.885 -4.222 -0.782 c -0.231 0.201 -0.559 0.582 -0.713 0.842 l -0.27 0.481 v 26.876 c 0 25.974 0.019 26.876 0.231 27.28 c 0.135 0.221 0.386 0.562 0.559 0.742 c 0.308 0.321 0.308 0.361 0.328 2.286 c -0.135 1.925 0.366 2.868 2 2.286 m 7.769 0.14 c 0.578 -1.063 0.174 -0.1 0.289 0 c 0.174 0.16 2.41 0.221 2.795 0.08 c 0.482 -0.181 0.752 -1.424 0.386 -1.905 c -0.116 -0.963 0.039 -2.206 -0.81 -2.708 c -1.465 -0.341 -2.834 -0.401 -4.222 0.1 c -0.27 0.281 -0.289 0.401 -0.289 2.146 c 0 1.805 0.019 1.865 0.308 2.146 c 0.559 0.401 0.945 0.281 1.542 0.14 m 8.193 0.04 c 0.848 0.1 1.774 0.06 2.429 -0.16 c 0.752 -0.461 0.906 -0.943 0.81 -2.347 c -0.096 -1.264 -0.289 -1.745 -0.829 -2.066 c -1.6 -0.321 -2.718 -0.481 -4.28 0.08 c -0.308 0.301 -0.308 0.341 -0.308 2.166 c 0 1.825 0 1.845 0.308 2.146 c 0.675 0.421 1.195 -0.742 1.986 -0.802 m 8.81 0.782 c 0.848 0.642 1.581 0.04 2.043 -0.461 c -0.116 -1.284 0.559 -3.951 -1.292 -4.072 c -0.79 0.08 -0.636 0.08 -1.986 0 c -1.909 -0.12 -2 0.02 -2 2.407 c 0 1.183 0.039 1.705 0.174 1.946 c 0.231 0.421 0.347 0.461 1.041 0.481 c 0.829 -0.201 1.427 -1.725 2.024 -0.301 m 14.536 0.06 l 0.154 -1.564 l 0.54 1.564 c 0.81 0.421 1.542 0.181 2.159 -0.12 c 0.906 -1.043 0.617 -1.925 0.521 -3.189 c -0.039 -0.903 -0.366 -1.324 -1.08 -1.324 c -1.33 -0.02 -2.815 -0.1 -3.913 0.281 c -0.54 1.404 -0.54 2.788 -0.019 4.312 c 0.405 0.381 1.234 0.401 1.639 0.04 m 7.904 0.02 c 0.231 -0.221 0.251 -0.221 0.463 0 c 0.154 0.16 0.386 0.221 0.79 0.221 c 0.79 0 0.983 -0.201 1.677 -1.865 c 0.694 -1.584 0.752 -2.266 0.27 -2.728 c -1.619 -0.481 -3.046 -0.542 -4.877 0 c 0.501 1.625 0.771 3.329 0 4.312 c 0.636 0.361 1.195 0.201 1.677 0.06 m 23.693 -0.04 c 0.135 -0.14 0.308 -0.421 0.347 -0.602 c 0.096 -1.544 1 0.682 1.484 0.822 c 1.889 0.02 3.644 -0.221 3.798 -2.186 c 0.096 -1.905 -0.945 -3.01 -2.448 -2.587 c -1.677 0.14 -3.393 -0.241 -4.839 0.221 c -0.308 0.301 -0.308 0.341 -0.308 2.166 c 0 1.805 0 1.865 0.308 2.146 c 0.424 0.401 1.272 0.401 1.658 0.02 m 17.466 -3.971 c 0.598 -0.241 1.099 -0.702 1.446 -1.304 l 0.27 -0.481 v -53.732 l -0.27 -0.481 c -0.154 -0.261 -0.463 -0.642 -0.713 -0.842 c -1.311 -1.103 -3.412 -0.702 -4.222 0.782 l -0.347 0.642 v 53.53 c 0.366 0.842 1 1.544 1.581 1.825 c 0.771 0.261 1.581 0.221 2.256 0.06 m -63.68 -17.931 c 1.388 -0.201 3.509 -0.923 3.952 -1.324 l 0.366 -0.361 c 0.096 -1.484 -0.039 -3.209 -0.675 -4.132 c -2.872 0.14 -4.993 1.304 -7.865 0.762 c -1.195 -0.361 -2.043 -1.284 -2.39 -2.587 l -0.077 -0.321 h 5.475 c 5.321 0 5.494 -0.02 5.822 -0.241 c 1.465 -2.788 -0.077 -7.381 -2.043 -9.306 c -1.215 -1.183 -2.333 -1.785 -3.894 -2.086 c -1.157 -0.241 -3.316 -0.241 -4.357 0 c -6.458 2.106 -8.521 9.567 -5.764 15.08 c 2.448 4.192 4.762 6.097 11.451 4.513 m 19.01 -1 l 0.366 0.421 c 1.349 0.903 3.701 0.562 4.607 -0.301 c 0.251 -0.602 0.251 -24.17 0 -24.77 c -1.619 -1.264 -2.448 -0.782 -4.685 -0.782 l -0.405 0.341 c -0.887 0.822 -0.443 2.567 -0.463 3.751 l -0.019 3.39 l -0.54 -0.221 c -1.446 -0.622 -3.894 -0.802 -5.591 -0.421 c -3.509 0.782 -5.783 3.53 -6.342 7.702 c -0.405 2.988 0.154 6.418 1.388 8.424 c 0.578 0.923 2 2.266 2.911 2.728 c 3.2 1.083 6.01 1.023 8.771 -0.261 m 24.984 1 c 1.137 -0.181 1.966 -0.542 2.198 -0.963 c 0.154 -1.424 0.54 -3.03 -0.559 -3.951 c -1.311 -0.341 -2.564 0.241 -3.971 -0.12 c -0.829 -1.203 -0.366 -3.41 -0.386 -4.954 l -0.039 -4.653 h 1.793 c 3.01 0 3.2 -0.14 3.2 -2.407 c 0 -1.605 -0.077 -1.905 -0.636 -2.246 c -1.658 -0.381 -2.371 -0.241 -4.338 -0.241 v -1.304 c 0 -2.206 -0.289 -2.507 -2.352 -2.507 c -1.812 0 -1.87 0.06 -2.525 2.066 c -0.27 1.444 -0.733 1.865 -1.793 2.387 c -1.504 0.682 -1.619 0.862 -1.562 2.367 c 0.039 0.983 0.077 1.063 0.443 1.424 c 0.752 0.501 1.137 0.421 2.043 0.501 v 4.713 c 0 5.094 0.058 5.716 0.675 7 c 0.347 0.742 1.369 1.825 2.121 2.226 c 2.043 0.762 4.01 0.903 5.687 0.662 m -11.837 -0.562 l 0.366 -0.381 v -17.75 c -0.733 -1 -1.851 -0.782 -2.815 -0.782 c -1.292 -0.14 -2 -0.06 -2.815 0.782 v 17.71 l 0.27 0.341 c 0.154 0.16 0.386 0.361 0.54 0.421 c 1.754 0.301 3.142 0 4.453 -0.341 m -1.215 -19.255 c 0.598 -0.241 1.33 -0.903 1.6 -1.444 c 0.308 -0.662 0.308 -2.206 -0.019 -2.868 c -1 -1.484 -2.333 -1.725 -3.913 -1.444 c -2 0.883 -2.564 3.751 -1.06 5.175 c 1.06 0.521 2.39 0.963 3.393 0.582" stroke-width="1.023"/><g stroke-width="0.03"><path d="m 26.17 48.43 c 0 -0.02 0.077 -0.181 0.135 -0.321 c 0.366 -0.862 1 -1.464 1.793 -1.665 c 0.501 -0.12 1.292 -0.12 1.774 0 c 0.308 0.06 0.713 0.281 0.925 0.461 c 0.386 0.361 0.617 0.802 0.81 1.484 l 0.019 0.12 h -5.475 l 0.019 -0.06"/><path d="m 45.855 56.47 c -1.292 -0.241 -2.043 -1.304 -2.333 -3.229 c -0.174 -1.163 -0.135 -2.768 0.077 -3.851 c 0.251 -1.344 0.848 -2.307 1.639 -2.728 c 0.424 -0.221 0.733 -0.281 1.369 -0.281 c 0.848 0 1.542 0.181 2.024 0.501 c 0.868 0.602 1.272 1.765 1.388 3.931 c 0.039 0.702 0.019 1.845 -0.039 2.387 c -0.039 0.461 -0.154 1.063 -0.27 1.404 c -0.347 1.083 -0.906 1.584 -2 1.825 c -0.386 0.08 -1.484 0.12 -1.831 0.04"/></g><path d="m 62.13 80.923 c 0 0 0 -0.02 0 -0.02 c 0.019 0.02 0.019 0.02 0 0.02" stroke-width="0.004"/></g></g><path d="m 179.78 87.01 l -2.957 -16.07 l -14.187 -8.15 l 14.386 -7.799 l 3.354 -16.02 l 11.876 11.285 l 16.249 -1.755 l -7.06 14.771 l 6.684 14.921 l -16.2 -2.132" transform="matrix(0.15722 0 0 0.15576 -5.593 0.618)" fill="#ffd733" stroke="#121a1a" stroke-width="2.079"/></svg>