<svg xmlns="http://www.w3.org/2000/svg" viewBox="0 0 32 32"><path d="m 13.52 0.363 c -5.199 1.016 -9.852 5.02 -11.914 10.25 c -1.727 4.383 -1.547 8.66 0.523 12.422 c 1.555 2.832 4.617 5.473 8.211 7.086 c 3.832 1.719 7.246 2.113 10.613 1.223 c 8.309 -2.195 13.168 -13.684 9.512 -22.496 c -1.785 -4.309 -5.465 -7.223 -10.477 -8.305 c -2.141 -0.176 -4.43 -0.543 -6.469 -0.18" fill="#ff4500"/><g fill="#d7bfd7" stroke="#fff" stroke-linejoin="round" stroke-linecap="round"><path d="m 62.722 58.07 c -2.388 0 -4.333 1.913 -4.333 4.283 c 0 2.359 1.945 4.272 4.333 4.272 c 2.4 0 4.333 -1.913 4.333 -4.272 c 0 -2.371 -1.933 -4.283 -4.333 -4.283 m 0 0.126 c 2.331 0 4.208 1.855 4.208 4.157 c 0 2.291 -1.876 4.157 -4.208 4.157 c -2.32 0 -4.208 -1.867 -4.208 -4.157 c 0 -2.302 1.888 -4.157 4.208 -4.157" transform="matrix(0.34348 0 0 0.34106 -5.364 -5.47)" stroke-width="1.907"/><path d="m 63.39 37.29 c -13.636 0 -24.69 11.06 -24.69 24.704 c 0 13.641 11.05 24.693 24.69 24.693 c 13.647 0 24.701 -11.06 24.701 -24.693 c 0 -13.641 -11.05 -24.704 -24.701 -24.704 m 0 15.725 c 4.958 0 8.984 4.02 8.984 8.979 c 0 4.948 -4.03 8.968 -8.984 8.968 c -4.958 0 -8.973 -4.02 -8.973 -8.968 c 0 -4.959 4.01 -8.979 8.973 -8.979" transform="matrix(0.34348 0 0 0.34106 -5.56 -5.284)" stroke-width="2"/></g><path d="m 18.07 23.52 l -2.262 -2.34 l 0.961 -0.996 l 0.961 -0.992 l 1.273 1.32 c 1.121 1.16 1.281 1.32 1.328 1.32 c 0.051 0 0.387 -0.34 2.891 -2.934 l 2.832 -2.934 l 0.957 0.992 l 0.961 0.992 l -7.641 7.914" fill="#0c0"/></svg>