<svg xmlns="http://www.w3.org/2000/svg" viewBox="0 0 32 32"><path d="m 24.17 2.613 c 27.844 23.887 -29.406 46.859 -23.523 9.914 c 1.289 -8.102 16.02 -16.352 23.523 -9.914" fill="#b7d0ec"/><path d="m 26.11 16.723 c 0 5.539 -4.594 10.03 -10.266 10.03 c -5.668 0 -10.266 -4.488 -10.266 -10.03 c 0 -5.539 4.598 -10.03 10.266 -10.03 c 5.672 0 10.266 4.488 10.266 10.03" fill="#5a89c6"/><g fill="#2d4c88"><path d="m 14.02 21.04 c -0.23 -0.055 -0.754 -0.176 -1.168 -0.27 c -0.645 -0.145 -3.082 -1.625 -2.855 -1.668 c 0.93 -0.172 3.367 0.09 4.805 -0.148 c 2.668 -0.445 4.469 -1.27 6.355 -2.902 c 1.727 -1.5 2.434 -1.77 3.445 -1.32 c 0.238 0.105 0.617 0.191 0.844 0.191 c 0.371 0 0.43 0.051 0.559 0.469 c 0.129 0.41 0.117 0.488 -0.07 0.633 c -1.512 0.625 -1.551 3.332 -2.738 4.03 c -2.168 1.488 -3.434 1.418 -5.773 1.383 c -1.656 -0.008 -3.172 -0.336 -3.402 -0.395"/><path d="m 5.805 18.05 l -0.07 -0.508 c -0.191 -3.359 1.211 -6.301 2.367 -7.05 c 0.023 0.023 -0.102 0.426 -0.277 0.887 c -0.43 1.137 -0.52 2.07 -0.34 3.535 c 0.152 1.219 0.547 2.406 1.059 3.18 c 0.148 0.223 1.07 0.703 1.113 1.012 c -1.41 0.57 -2.855 -0.203 -3.852 -1.055"/></g><g fill="#fff"><path d="m 8.453 15.484 c -0.277 -0.453 -0.453 -1.145 -0.379 -1.516 c 0.105 -0.527 1.086 -2.121 1.781 -2.895 l 0.617 -0.688 h 0.828 c 1 0.004 1.691 0.109 1.691 0.258 c 0 0.063 -0.195 0.348 -0.434 0.637 c -0.238 0.285 -0.953 1.285 -1.586 2.219 c -1.168 1.711 -1.48 2.047 -2.039 2.18 c -0.246 0.059 -0.344 0.02 -0.48 -0.195"/><path d="m 13.09 9.859 c -1.137 -0.301 -2.391 -0.133 -2.859 -0.23 c -1.125 0.152 -0.617 -0.18 0.59 -0.855 c 1.164 -0.652 2.246 -1.07 3.332 -1.289 c 0.859 -0.176 1.172 -0.184 2.375 -0.059 c 1.586 0.156 2.863 0.418 3.172 0.645 c 0.184 0.137 0.094 0.168 -0.707 0.242 c -1.633 0.152 -2.953 0.488 -4.063 1.027 c -1.691 0.824 -1.313 0.684 -1.84 0.52"/><path d="m 7.914 12.676 c 0.035 -0.934 0.207 -1.844 0.672 -2.324 c 0.219 -0.227 0.684 -0.109 0.914 -0.109 c 0.16 0 0.305 0.031 0.328 0.07 c 0.023 0.035 -0.129 0.273 -0.344 0.523 c -0.723 0.855 -0.875 1.059 -1.172 1.555 c -0.371 0.621 -0.414 0.691 -0.398 0.285"/></g><path d="m 22.266 10.664 c 0.535 0.762 0.457 1.738 -0.172 2.18 c -0.633 0.441 -1.574 0.18 -2.109 -0.582 c -0.535 -0.766 -0.457 -1.742 0.172 -2.184 c 0.633 -0.441 1.578 -0.18 2.109 0.586" fill="#d7ddee"/></svg>