<svg xmlns="http://www.w3.org/2000/svg" viewBox="0 0 32 32"><path d="m 21.922 31.14 c -45.27 5.535 -7.746 -58.09 8.883 -17.383 c 2.551 7.148 0.336 15.195 -8.883 17.383" fill="#7f0000"/><g fill-opacity="0.902"><g fill="#fff"><path d="m 21.289 17.422 c 0 2.961 -2.488 5.355 -5.559 5.355 c -3.07 0 -5.563 -2.395 -5.563 -5.355 c 0 -2.957 2.492 -5.355 5.563 -5.355 c 3.07 0 5.559 2.398 5.559 5.355"/><path d="m 23.863 17.422 c 0 4.531 -3.641 8.203 -8.133 8.203 c -4.496 0 -8.137 -3.672 -8.137 -8.203 c 0 -4.531 3.641 -8.203 8.137 -8.203 c 4.492 0 8.133 3.672 8.133 8.203"/></g><g fill="#ff4500"><path d="m 15.684 16.68 c -0.215 -0.711 -1.934 -8.766 -1.934 -9.06 c 0 -0.195 0.402 -0.242 2.102 -0.242 c 1.566 0 2.102 0.055 2.102 0.215 c 0 0.117 -0.371 1.859 -0.824 3.871 c -0.457 2.01 -0.93 4.125 -1.059 4.695 l -0.23 1.039"/><path d="m 17.898 17.289 c 0.008 0.754 -0.391 1.457 -1.043 1.836 c -0.656 0.379 -1.461 0.379 -2.113 0 c -0.656 -0.379 -1.055 -1.082 -1.047 -1.836 c -0.008 -0.758 0.391 -1.457 1.047 -1.836 c 0.652 -0.379 1.457 -0.379 2.113 0 c 0.652 0.379 1.051 1.078 1.043 1.836"/></g></g></svg>