<svg xmlns="http://www.w3.org/2000/svg" viewBox="0 0 32 32"><path d="m 0.371 19.391 c 1.984 12.621 19.609 16 27.387 6.988 c 6.852 -6.691 5.145 -19.5 -3.254 -23.891 c -9.652 -5.875 -23.715 1.387 -24.48 13.08 c -0.078 1.281 0.031 2.578 0.348 3.82" fill="#9fcf00"/><path d="m 42.546 170.15 c -0.207 -0.604 -0.311 -19 -0.173 -40.859 l 0.207 -39.773 h 10.03 l 0.415 34.539 l 0.415 34.499 l 44.2 0.886 v 11.352 l -27.321 0.242 c -21.442 0.161 -27.459 -0.04 -27.77 -0.886 m 78.61 0.523 c -0.311 -0.362 -0.553 -3.1 -0.553 -6.119 v -5.475 l -5.222 -0.282 l -5.222 -0.242 v -57.686 l 10.375 -0.483 l 0.484 -10.869 h 33.373 l 0.484 10.869 l 5.187 0.242 l 5.153 0.242 v 10.507 h -9.995 l -0.242 -5.475 l -0.277 -5.435 h -34.1 v 58.53 h 34.1 l 0.277 -5.475 l 0.242 -5.475 h 9.995 v 10.507 l -5.153 0.242 l -5.187 0.282 l -0.242 5.837 l -0.242 5.877 l -16.323 0.242 c -8.992 0.121 -16.6 -0.04 -16.911 -0.362 m 56.58 -0.523 c -0.242 -0.604 -0.311 -19 -0.207 -40.859 l 0.207 -39.773 h 32.543 l 0.242 5.435 l 0.277 5.435 l 5.568 0.242 l 5.602 0.242 l 0.484 10.869 l 5.187 0.242 l 5.187 0.282 v 34.942 l -5.187 0.242 l -5.187 0.282 l -0.242 5.394 l -0.242 5.435 l -5.602 0.242 l -5.602 0.282 l -0.242 5.837 l -0.242 5.877 l -16.08 0.242 c -12.415 0.161 -16.15 -0.04 -16.462 -0.886 m 33.13 -16.626 l 0.242 -5.475 l 11.274 -0.483 v -35.666 l -5.637 -0.282 l -5.637 -0.242 l -0.242 -5.475 l -0.242 -5.515 l -10.997 0.242 l -11.03 0.242 l -0.207 27.978 c -0.138 15.378 -0.035 28.42 0.173 29.02 c 0.311 0.805 3.285 1.127 11.24 1.127 h 10.825" transform="matrix(0.11295 0 0 0.09704 1.183 3.169)" fill="#122100" stroke="#122100" stroke-width="0.854"/></svg>