<svg xmlns="http://www.w3.org/2000/svg" viewBox="0 0 32 32"><path d="m 30.402 13.05 c -13.91 -35.01 -49.17 12.391 -15.406 18.773 c 9.422 0.336 19.875 -7.531 15.406 -18.773" fill="#ececec"/><g transform="matrix(0.11718 0 0 0.10805 -0.551 1.143)"><g fill="#807e7d" stroke="#807e7d"><path d="m 95.28 216.13 c -8.434 -1.482 -10.301 -2.241 -10.934 -4.411 c -1.667 -5.64 -0.733 -80.18 1.2 -94.57 c 1.067 -7.881 1.933 -14.714 1.933 -15.22 c 0.033 -0.47 4.8 -0.904 10.667 -0.904 h 10.601 v 7.809 c 0 7.267 0.233 7.881 3.4 8.966 c 3.7 1.265 51.803 1.338 58.3 0.108 c 3.867 -0.759 3.967 -0.94 4.367 -8.857 l 0.4 -8.098 l 10.201 0.325 l 10.234 0.362 l 1.567 10.737 c 0.933 6.471 1.567 28.921 1.633 56.25 l 0.1 45.48 l -6.967 1.591 c -10.801 2.494 -83.34 2.82 -96.71 0.434" stroke-width="2.518"/><path d="m 113.94 90.9 c -0.833 -1.482 -1.833 -7.267 -2.2 -12.87 c -0.667 -9.942 -0.6 -10.231 2.467 -10.99 c 4.134 -1.048 49.4 -1.048 56.04 0 l 5.167 0.795 l -0.633 11.46 c -0.367 6.29 -1.067 12.11 -1.6 12.87 c -0.633 1.012 -9.467 1.446 -29.3 1.446 c -27.735 0 -28.435 -0.072 -29.935 -2.711" stroke-width="2.57"/></g><path d="m 137.28 198.2 c -0.467 -2.061 -0.533 -4.194 -0.133 -4.808 c 1.1 -1.699 22.301 -2.82 36.07 -1.916 c 11.834 0.795 12.467 0.976 12.467 3.651 c 0 6.797 0.167 6.76 -24.568 6.76 h -22.968" fill="#ececec" stroke="#ececec" stroke-width="2.57"/></g><path d="m 163.79 144.82 c 0 3.277 -2.917 5.955 -6.489 5.955 c -3.599 0 -6.517 -2.678 -6.517 -5.955 c 0 -3.308 2.917 -5.986 6.517 -5.986 c 3.572 0 6.489 2.678 6.489 5.986" transform="matrix(0.14326 0 0 0.12399 -2.415 0.47)" fill="#ececec" stroke="#ececec" stroke-width="2"/></svg>