<svg xmlns="http://www.w3.org/2000/svg" viewBox="0 0 32 32"><g fill="#fff"><path d="m 11.441 15.512 v 6.238 c 0 3.742 0.641 3.742 6.414 3.742 h 1.285 c 5.773 0 6.418 0 6.418 -3.742 v -6.238 c 0 -3.738 -0.645 -3.738 -6.418 -3.738 h -1.285 c -5.773 0 -6.414 0 -6.414 3.738 m 6.414 -2.492 h 1.285 c 5.133 0 5.133 0 5.133 2.492 v 4.367 c 0 2.492 0 2.492 -5.133 2.492 h -1.285 c -5.133 0 -5.133 0 -5.133 -2.492 v -4.367 c 0 -2.492 0 -2.492 5.133 -2.492"/><path d="m 14.01 19.992 v -2.418 l 2.246 -2.27 l 2.809 2.836 l 1.121 -1.133 l 2.809 2.832 v 0.152 c 0 1.133 -0.188 1.133 -2.246 1.133 h -4.492 c -2.059 0 -2.246 0 -2.246 -1.133"/><path d="m 22.988 15.512 c 0 0.691 -0.574 1.25 -1.281 1.25 c -0.711 0 -1.285 -0.559 -1.285 -1.25 c 0 -0.688 0.574 -1.246 1.285 -1.246 c 0.707 0 1.281 0.559 1.281 1.246"/><path d="m 15.289 9.277 c -5.773 0 -6.414 0 -6.414 3.742 v 6.234 c 0 2.027 0.188 2.961 1.281 3.387 v -9.621 c 0 -2.258 0.039 -2.469 3.852 -2.488 v -0.008 h 8.668 c -0.566 -1.246 -2.098 -1.246 -6.102 -1.246"/><path d="m 12.723 6.781 c -5.773 0 -6.414 0 -6.414 3.742 v 6.238 c 0 2.027 0.188 2.957 1.281 3.383 v -9.621 c 0 -2.258 0.039 -2.465 3.852 -2.488 v -0.004 h 8.668 c -0.566 -1.246 -2.098 -1.25 -6.102 -1.25"/></g><path d="m 24.48 3.297 c -16.367 -11.508 -32.949 9.742 -19.613 23.297 c 12.563 12.773 32.08 0.934 25.98 -14.961 c -1.273 -3.316 -3.363 -6.227 -6.367 -8.336" fill="#b0c3de"/><g fill="#778799"><path d="m 7.637 15.09 h 15.965 c 0.25 0 0.449 0.137 0.449 0.309 v 2.785 c 0 0.168 -0.199 0.305 -0.449 0.305 h -15.965 c -0.25 0 -0.449 -0.137 -0.449 -0.305 v -2.785 c 0 -0.172 0.199 -0.309 0.449 -0.309"/><path d="m 13.219 11.277 h 5.04 c 0.613 0 1.113 0.34 1.113 0.762 v 2.238 c 0 0.422 -0.5 0.762 -1.113 0.762 h -5.04 c -0.617 0 -1.113 -0.34 -1.113 -0.762 v -2.238 c 0 -0.422 0.496 -0.762 1.113 -0.762"/><path d="m 8.988 20.04 h 13.82 c 0.484 0 0.879 0.246 0.879 0.551 c 0 0.305 -0.395 0.555 -0.879 0.555 h -13.82 c -0.488 0 -0.883 -0.25 -0.883 -0.555 c 0 -0.305 0.395 -0.551 0.883 -0.551"/><path d="m 10.949 11.426 h 3.328 c 0.406 0 0.734 0.223 0.734 0.5 v 1.871 c 0 0.277 -0.328 0.504 -0.734 0.504 h -3.328 c -0.406 0 -0.734 -0.227 -0.734 -0.504 v -1.871 c 0 -0.277 0.328 -0.5 0.734 -0.5"/><path d="m 12.09 12.211 h 12.406 c 0.434 0 0.789 0.238 0.789 0.539 v 0.023 c 0 0.301 -0.355 0.543 -0.789 0.543 h -12.406 c -0.434 0 -0.789 -0.242 -0.789 -0.543 v -0.023 c 0 -0.301 0.355 -0.539 0.789 -0.539"/><g fill-rule="evenodd" stroke="#778799"><path d="m 86.78 164.89 c 0 2.984 -2.199 5.422 -4.895 5.422 c -2.676 0 -4.874 -2.438 -4.874 -5.422 c 0 -3 2.199 -5.422 4.874 -5.422 c 2.696 0 4.895 2.417 4.895 5.422" transform="matrix(0.18833 0 0 0.18589 -6.711 -10.826)"/><path d="m 86.78 164.89 c 0 2.984 -2.178 5.422 -4.874 5.422 c -2.696 0 -4.895 -2.438 -4.895 -5.422 c 0 -3 2.199 -5.422 4.895 -5.422 c 2.696 0 4.874 2.417 4.874 5.422" transform="matrix(0.18833 0 0 0.18589 7.829 -10.826)"/><path d="m 86.78 164.88 c 0 3 -2.199 5.422 -4.895 5.422 c -2.676 0 -4.874 -2.417 -4.874 -5.422 c 0 -3 2.199 -5.422 4.874 -5.422 c 2.696 0 4.895 2.417 4.895 5.422" transform="matrix(0.18833 0 0 0.18589 5.066 -10.974)"/><path d="m 86.77 164.88 c 0 3 -2.178 5.422 -4.874 5.422 c -2.696 0 -4.874 -2.417 -4.874 -5.422 c 0 -3 2.178 -5.422 4.874 -5.422 c 2.696 0 4.874 2.417 4.874 5.422" transform="matrix(0.18833 0 0 0.18589 2.158 -10.974)"/><path d="m 86.78 164.88 c 0 3 -2.178 5.422 -4.874 5.422 c -2.696 0 -4.895 -2.417 -4.895 -5.422 c 0 -3 2.199 -5.422 4.895 -5.422 c 2.696 0 4.874 2.417 4.874 5.422" transform="matrix(0.18833 0 0 0.18589 -0.749 -10.974)"/><path d="m 86.79 164.89 c 0 2.984 -2.199 5.422 -4.895 5.422 c -2.696 0 -4.874 -2.438 -4.874 -5.422 c 0 -3 2.178 -5.422 4.874 -5.422 c 2.696 0 4.895 2.417 4.895 5.422" transform="matrix(0.18833 0 0 0.18589 -3.657 -10.826)"/></g></g></svg>