<svg xmlns="http://www.w3.org/2000/svg" viewBox="0 0 32 32"><path d="m 16.301 31.828 c -3.297 -0.254 -7.16 -1.832 -9.852 -4.02 c -3.277 -2.664 -5.668 -6.75 -6.313 -10.777 c -0.766 -5.316 2.32 -11.04 5.809 -13.746 c 1.754 -1.324 4.074 -2.375 6.25 -2.832 c 5.66 -1.199 11.566 1.066 15.617 5.992 c 2.43 2.953 3.684 5.93 3.992 9.453 c 0.367 4.219 -1.301 8.746 -4.352 11.793 c -3.465 2.875 -7.03 4.434 -11.152 4.141" fill="#9fb0d4"/><path d="m 8.289 19.957 c -1.152 -1.297 -1.609 -3.094 -1.609 -4.01 c 0 -2.188 3.703 -7.098 5.574 -7.098 c 2.426 0 2.445 0.785 0.082 3.34 c -2.594 2.801 -2.695 5.289 -0.555 6.527 c 1.215 0.699 2.297 0.316 4.555 -1.879 c 3.477 -3.379 4.5 -3.551 5.219 -1.527 c 0.352 0.988 -0.406 2.262 -2.492 4.211 c -3.941 3.68 -7.758 3.832 -10.773 0.434" fill="#00005a"/><path d="m 18.32 22.352 c 0 -0.293 0.973 -1.66 2.164 -3.039 c 2.313 -2.672 2.516 -3.977 0.805 -5.688 c -0.98 -0.984 -2.367 -1.316 -4.094 0.547 c -3.035 3.277 -4.324 4.145 -5.113 3.434 c -1.188 -1.063 -0.84 -2.699 1.012 -4.746 c 3.02 -3.711 8.07 -5.246 11.06 -1.238 c 2.703 3.324 1.984 8.05 -1.574 10.313 c -1.598 1.023 -4.262 1.281 -4.262 0.418" fill="#0060cd"/></svg>