<svg xmlns="http://www.w3.org/2000/svg" viewBox="0 0 32 32"><path d="m 24.516 4.203 c 9.25 10.465 9.797 20.621 1.492 24.48 c -11.453 5.324 -29.375 5.547 -24.938 -11.344 c 4.477 -14.05 15.293 -22.355 23.445 -13.14" fill="#dcdcdc"/><path d="m 17.602 20.367 l -0.719 0.285 c -4.941 1.977 -8.01 0.23 -8.258 -4.316 l -0.078 -1.48 l 0.93 0.227 c 1.488 1.359 2.867 3.219 4.09 3.145 c 1.336 -0.086 2.449 -0.617 3.691 -1.754 c 3.152 -2.746 0.637 -4.145 -1.727 -5.379 c -0.578 -0.328 -0.578 -0.852 -0.523 -0.941 c 1.75 -0.172 5.992 0.578 7.375 1.832 c 0.891 0.836 0.832 2.531 -0.141 4.07 c -0.285 0.445 -0.516 0.879 -0.516 0.957 c 1.098 0.719 1.574 0.563 2.852 1.145 c 0.504 1.945 0.32 6.613 -1.262 7.09 c -2.316 -1.836 -3.617 -3.254 -5.715 -4.879" fill="#f4f4f4"/><path d="m 19.03 23.22 c -1.926 -1.758 -1.969 -1.785 -2.348 -1.578 c -0.195 0.109 -1.09 0.383 -1.727 0.535 c -0.719 0.168 -2.629 0.168 -3.23 -0.004 c -0.969 -0.273 -1.34 -0.449 -1.887 -0.902 c -0.77 -0.637 -1.203 -1.422 -1.68 -3.051 c -0.266 -0.898 -0.227 -3.102 0.066 -3.879 c 0.191 -0.5 0.445 -0.895 0.578 -0.895 c 0.109 0.004 0.512 0.375 2.492 2.297 c 1.785 1.73 1.949 1.855 2.43 1.855 c 0.641 0 2.035 -0.762 2.984 -1.637 c 0.73 -0.672 1.32 -1.598 1.32 -2.07 c 0 -0.379 -0.18 -0.508 -2.988 -2.152 c -0.637 -0.375 -1.227 -0.762 -1.875 -1.129 c -0.242 -0.137 -0.441 -0.273 -0.441 -0.301 c 0 -0.098 0.473 -0.324 1.02 -0.484 c 0.535 -0.16 0.625 -0.168 2.133 -0.164 c 1.75 0.004 2.148 0.047 3.652 0.414 c 1.383 0.336 2.754 0.91 3.316 1.387 c 1.133 0.961 1.391 2.527 0.699 4.277 c -0.164 0.422 -0.215 0.629 -0.16 0.695 c 0.426 0.297 0.852 0.406 1.313 0.672 c 0.121 0.102 0.16 1.531 0.043 1.563 c -0.047 0.012 -0.762 -0.297 -1.59 -0.691 c -1.086 -0.516 -1.508 -0.746 -1.508 -0.828 c 0 -0.066 0.035 -0.137 0.078 -0.156 c 0.121 -0.063 0.598 -0.77 0.801 -1.199 c 0.273 -0.57 0.508 -1.453 0.508 -1.926 c 0 -0.492 -0.242 -1.18 -0.547 -1.547 c -0.809 -0.98 -3.559 -1.816 -6.492 -1.977 c -0.656 -0.039 -0.793 -0.027 -0.898 0.059 c -0.215 0.18 -0.066 0.344 0.699 0.777 c 3.02 1.711 3.109 1.789 3.152 2.621 c 0.031 0.676 -0.098 1.047 -0.621 1.777 c -0.684 0.953 -1.957 1.977 -3.059 2.461 c -0.594 0.258 -1.414 0.422 -1.848 0.363 c -0.73 -0.094 -0.945 -0.242 -2.551 -1.797 c -0.832 -0.805 -1.551 -1.473 -1.598 -1.488 c -0.047 -0.012 -0.137 0.012 -0.199 0.055 c -0.086 0.063 -0.109 0.258 -0.109 0.918 c 0.004 1.91 0.641 3.711 1.602 4.508 c 0.965 0.801 2.676 1.031 4.5 0.602 c 0.648 -0.148 1.734 -0.563 2.238 -0.852 c 0.129 -0.07 0.289 -0.129 0.363 -0.129 c 0.07 0 0.813 0.609 1.652 1.352 c 0.836 0.746 2.102 1.871 2.809 2.496 c 0.711 0.629 1.289 1.184 1.289 1.234 c 0 0.051 -0.074 0.09 -0.172 0.09 c -0.531 0.141 -1.117 0.176 -1.586 0.176 c -0.879 -0.777 -1.758 -1.559 -2.625 -2.348" fill="#696969"/></svg>