<svg xmlns="http://www.w3.org/2000/svg" viewBox="0 0 32 32"><path d="m 28.3 26.313 c 7.789 -11.902 1.504 -22.746 -7.313 -25.316 c -11.863 -3.461 -27.965 5.633 -17.355 24.375 c 4.219 7.449 19.12 9.422 24.668 0.941" fill="#f8f8ff"/><path d="m 328.9 152.62 c -2.172 -1.634 -6.16 -3.694 -8.83 -4.581 c -2.67 -0.888 -6.48 -2.308 -8.474 -3.125 c -1.994 -0.817 -4.593 -1.456 -5.804 -1.456 c -1.211 0 -6.658 1.598 -12.11 3.551 l -9.899 3.587 l -5.127 -0.746 c -2.813 -0.391 -7.121 -1.279 -9.578 -1.953 c -6.409 -1.776 -13.851 -1.492 -23.5 0.852 c -6.445 1.563 -8.937 1.882 -11.964 1.492 c -2.101 -0.284 -5.377 -0.604 -7.228 -0.675 c -4.7 -0.178 -4.985 -1.882 -0.605 -3.729 l 3.24 -1.385 l -2.528 -1.563 c -5.092 -3.125 -2.564 -4.404 5.59 -2.77 c 6.338 1.279 28.09 1.705 28.09 0.568 c 0 -0.355 -1.282 -1.527 -2.849 -2.664 c -3.739 -2.699 -10.219 -11.258 -12.783 -16.87 c -3.561 -7.813 -5.02 -15.449 -4.7 -24.434 c 0.285 -8.311 0.712 -9.98 6.374 -24.19 c 2.564 -6.499 4.629 -15.982 3.703 -17.05 c -0.285 -0.355 -2.35 0.71 -4.629 2.308 c -9.4 6.712 -26.06 13.03 -35 13.283 c -6.409 0.178 -5.661 -0.071 -8.51 2.557 c -1.994 1.811 -2.599 2.06 -3.454 1.314 c -3.525 -3.054 2.136 -11.862 10.967 -17.08 c 6.338 -3.729 24.284 -9.944 28.841 -9.98 c 2.991 -0.036 9.151 -3.02 11.679 -5.682 c 3.276 -3.445 5.982 -5.363 9.721 -6.89 c 1.674 -0.675 3.596 -1.705 4.237 -2.273 c 1.852 -1.669 1.495 -5.824 -0.89 -10.583 c -1.816 -3.587 -2.065 -4.652 -1.709 -7.6 c 0.356 -2.699 0.178 -3.8 -0.855 -5.363 c -0.712 -1.065 -1.531 -2.735 -1.816 -3.694 c -1.424 -4.901 -4.522 -5.753 -12.961 -3.552 c -5.59 1.456 -6.445 1.527 -8.261 0.604 c -2.92 -1.456 -2.564 -2.948 1.033 -4.12 c 1.709 -0.533 3.561 -1.172 4.095 -1.35 c 0.57 -0.213 -0.249 -0.604 -1.816 -0.923 c -3.881 -0.781 -5.804 -1.918 -5.555 -3.374 c 0.178 -0.994 1.211 -1.208 6.02 -1.314 c 3.205 -0.071 8.973 -0.462 12.818 -0.852 c 5.911 -0.604 7.584 -1.065 10.86 -3.02 c 3.988 -2.38 12.427 -4.866 16.628 -4.901 c 5.59 -0.071 9.4 4.866 11.964 15.307 c 1.495 6.109 1.638 7.636 1.033 10.726 c -1.033 5.256 0.926 18.01 4.13 27.03 c 2.457 6.783 10.504 13.389 26.634 21.806 c 16.842 8.772 21.756 12.537 29.411 22.588 c 5.02 6.57 6.552 10.548 5.448 14.06 c -1.211 3.836 -2.849 3.338 -8.118 -2.415 c -3.774 -4.155 -6.124 -5.895 -13.922 -10.299 c -9.97 -5.647 -15.738 -9.838 -25.14 -18.18 c -5.697 -5.079 -8.189 -6.925 -8.189 -6.109 c 0 0.213 0.712 1.918 1.638 3.765 c 5.875 12.146 10.148 29.939 10.183 42.23 c 0.071 11.471 -2.599 19.391 -9.471 28.2 c -1.745 2.202 -2.991 4.404 -2.813 4.901 c 0.178 0.533 1.994 1.136 3.988 1.421 c 1.994 0.284 6.516 1.279 10.04 2.237 c 7.727 2.095 8.403 2.131 13.424 0.32 c 4.736 -1.705 7.869 -1.847 7.869 -0.391 c 0 1.385 -2.706 3.48 -6.445 4.972 c -3.917 1.563 -4.02 3.054 -0.427 5.398 c 2.777 1.776 3.774 3.196 3.062 4.368 c -0.783 1.279 -2.92 0.568 -6.765 -2.308 m -41.3 -9.767 c 6.16 -4.084 14.812 -15.769 17.447 -23.617 c 1.958 -5.718 1.994 -6.925 0.285 -7.849 c -2.101 -1.208 -3.133 -0.923 -6.124 1.669 c -1.531 1.35 -3.881 2.841 -5.234 3.303 c -3.24 1.101 -8.01 0.32 -10.361 -1.74 c -2.92 -2.522 -6.267 -4.12 -7.727 -3.623 c -0.712 0.249 -2.564 1.527 -4.13 2.877 c -3.81 3.338 -6.552 3.338 -10.112 -0.036 c -1.852 -1.74 -3.276 -2.486 -4.807 -2.486 c -1.211 0 -3.561 -0.355 -5.27 -0.817 c -1.78 -0.462 -3.311 -0.533 -3.667 -0.178 c -0.926 0.959 2.243 8.453 5.875 14.03 c 4.202 6.393 9.186 10.939 17.09 15.485 c 9.543 5.54 12.177 6 16.735 2.983 m -19.512 -32.28 c 0.285 -0.426 1.887 -1.705 3.596 -2.841 c 4.273 -2.841 7.228 -2.77 11.501 0.284 c 6.73 4.83 11.216 4.155 18.302 -2.735 l 4.736 -4.581 l -0.855 -2.948 c -1.602 -5.611 -10.54 -21.771 -19.19 -34.627 c -1.495 -2.237 -2.742 -4.581 -2.742 -5.221 c 0 -0.604 1.531 -3.836 3.383 -7.174 c 1.887 -3.338 3.418 -6.641 3.418 -7.352 c 0.036 -2.735 -2.35 -0.675 -6.445 5.505 c -5.555 8.417 -5.946 8.63 -8.902 5.04 c -1.282 -1.563 -2.35 -3.516 -2.35 -4.368 c -0.036 -2.06 5.59 -9.944 8.332 -11.684 c 1.175 -0.746 3.561 -1.563 5.27 -1.776 c 5.199 -0.71 6.16 -1.065 6.16 -2.131 c 0 -0.888 -1.638 -1.065 -10.29 -1.065 c -9.899 0 -13.495 0.639 -12.533 2.202 c 0.214 0.391 1.175 1.03 2.065 1.385 c 0.926 0.355 1.994 1.456 2.421 2.415 c 0.677 1.492 0.392 2.451 -1.958 6.961 c -2.955 5.611 -5.02 7.387 -7.228 6.18 c -1.353 -0.781 -1.353 -1.563 -0.071 -8.275 c 0.356 -1.776 0.214 -2.308 -0.57 -2.308 c -0.605 0 -2.35 3.02 -4.451 7.671 c -4.558 10.09 -5.661 13.638 -6.302 20.492 c -0.392 4.368 -1.139 6.996 -3.062 11.187 c -2.101 4.581 -2.67 6.783 -3.276 12.998 c -0.605 6.073 -0.57 7.671 0.178 8.63 c 1.389 1.74 4.38 3.161 8.261 3.942 c 2.101 0.391 4.415 1.492 5.946 2.806 c 2.528 2.166 5.804 2.841 6.658 1.385 m 5.341 -10.05 c -0.641 -1.065 -2.457 -4.368 -3.739 -6.854 c -0.677 -1.279 -0.677 -2.557 0.036 -6.215 c 0.855 -4.51 0.855 -4.617 -1.389 -9.66 l -2.279 -5.114 l 1.104 -6.783 c 0.605 -3.729 1.424 -7.103 1.816 -7.494 c 0.961 -0.994 4.878 6.357 4.842 9.09 c 0 1.172 -0.427 2.948 -0.961 3.907 c -1.389 2.557 -1.282 5.434 0.463 10.512 c 1.353 3.836 1.424 4.723 0.677 6.854 c -0.712 2.095 -0.677 3.196 0.32 6.854 c 0.819 3.054 0.926 4.581 0.427 5.114 c -0.498 0.533 -0.89 0.462 -1.282 -0.178 m 11.252 -72.948 c 2.742 -0.533 5.305 -1.314 5.697 -1.705 c 1.674 -1.776 -0.463 -2.273 -9.543 -2.273 c -7.691 0 -9.507 0.213 -10.54 1.172 c -1.46 1.385 -1.602 2.841 -0.392 3.338 c 1.745 0.746 9.899 0.426 14.777 -0.533 m 5.697 -13.709 c -0.142 -2.699 -0.961 -7.387 -1.887 -10.477 c -0.926 -3.054 -1.674 -6.251 -1.674 -7.103 c 0 -2.735 -1.424 -6.961 -2.777 -8.417 c -1.958 -2.024 -6.836 -1.882 -9.258 0.32 l -1.887 1.669 l 1.602 2.344 c 2.92 4.262 1.852 10.974 -1.887 11.826 c -5.448 1.243 -6.979 3.02 -6.979 8.03 c 0 3.338 1.495 5.647 4.13 6.357 c 1.104 0.284 6.267 0.497 11.43 0.462 l 9.4 -0.071 m -18.943 -20.315 c 1.068 -1.101 1.033 -2.131 -0.071 -3.694 c -0.855 -1.208 -1.033 -1.208 -3.774 0.284 c -1.567 0.852 -3.03 1.811 -3.205 2.166 c -1.033 1.705 5.483 2.841 7.05 1.243" transform="matrix(0.10971 0 0 0.10999 -14.06 8.323)" stroke="#000" stroke-width="0.932"/></svg>