<svg xmlns="http://www.w3.org/2000/svg" viewBox="0 0 32 32"><path d="m 28.75 24.516 c 11.348 -16.293 -9.613 -32.801 -22.98 -19.527 c -12.598 12.508 -0.918 31.941 14.754 25.867 c 3.273 -1.27 6.141 -3.352 8.227 -6.34" fill="#dcdcdc"/><g stroke-opacity="0.996" fill-opacity="0.996"><path d="m 117.66 990.67 c -12 -4.313 -23.09 -20.719 -25.844 -45.906 c -0.75 -6.781 8.719 -27.969 8.625 -33.563 c -0.5 -24.688 4.125 -34.844 12.5 -40.656 c 3.594 -2.5 6.06 -3.313 10.219 -3.344 c 6.219 -0.031 11.531 3.469 16.875 11.125 c 18.969 27.28 16.344 87.69 -4.719 107.59 c -1.594 1.531 -4.125 3.313 -5.625 4 c -3.313 1.531 -8.906 1.875 -12 0.75" transform="matrix(0.125 0 0 0.125 0 -99.55)" fill="#fff" stroke="#fff" stroke-width="0.539"/><g stroke="#4e4e4e"><g fill="#4e4e4e"><path d="m 181.07 972.24 l -3.02 -3.13 l -15.03 -0.566 c -8.225 -0.302 -16.377 -0.867 -18.09 -1.245 c -7.242 -0.189 -14.448 2.829 -20.344 2.074 c -15.758 -2.112 -38.941 -14.822 -41.524 -22.817 c -1.019 -3.055 0.291 -4.978 4.185 -6.03 c 4.076 -1.131 7.825 -4.752 9.317 -8.976 c 1.456 -4.186 3.967 -5.996 8.334 -5.996 c 1.674 0 4 -0.415 5.168 -0.943 c 2.329 -1.018 6.296 -5.318 6.296 -6.864 c -0.728 -2.414 -5.786 -6.072 -4.076 -7.958 c 0.255 -0.302 0.51 -2.678 0.546 -5.355 c -0.619 -4.224 2.184 -7.807 2.256 -11.729 c 0 -1.395 0.255 -3.583 0.619 -4.865 c 0.837 -3.02 -0.036 -4.073 -3.567 -4.073 c -2.548 0 -18.852 -8.41 -18.852 -9.994 c 0 -0.302 16.522 6.638 19.689 6.864 l 5.714 0.453 l 2.729 -2.866 c 3.13 -2.753 2.948 -6.902 5.131 -10.03 c 2.22 -3.13 2.147 -6.939 -0.182 -8.9 c -3.494 -2.904 -7.461 -7.316 -8.08 -8.976 c -0.801 -2.187 -0.764 -6.713 0.036 -8.297 c 0.91 -1.773 5.532 -3.47 9.353 -2.451 c 3.02 1.395 8.298 1.81 11.464 1.094 c 4.986 -1.32 14.157 -1.999 16.814 -1.245 c 6.04 0.867 0.036 4.375 10.7 4.601 c 5.095 0 7.606 -3.545 6.806 -9.617 c -0.728 -5.355 -1.383 -5.582 -17.25 -5.393 l -13.393 0.189 c -7.679 0.981 -8.844 8.03 -13.32 12.295 c -4.476 3.998 -6.987 2.074 1.201 -11.239 c 0.837 -1.32 1.929 -2.791 2.548 -3.243 c 3.348 -3.922 5.059 -9.315 8.407 -12.446 c 8.443 -5.77 18.01 -7.656 22.05 -7.618 c 5.677 -2.602 12.883 3.47 17.18 6.751 c 10.736 5.921 9.389 29.681 10.772 39.599 c 3.02 7.995 11.06 14.331 11.5 22.855 c 2.147 5.846 4.367 12.219 6.15 17.725 c 2.984 9.202 4.44 14.784 5.605 21.346 c 1.419 7.995 1.601 12.596 0.655 16.707 c -0.546 2.451 -0.437 2.866 1.165 4.601 c 2.256 2.451 4.804 3.809 7.133 3.847 c 2.839 0 6.987 2.753 7.242 4.752 c 0.218 1.923 -0.946 3.47 -8.37 11.352 c -9.899 10.484 -25.402 18.895 -34.792 18.895 c -3.748 0 -3.967 -0.075 -6.878 -3.13 m 19.18 -1.886 c 2.038 -1.735 4.913 -1.848 6.915 -3.47 c 0.437 -0.566 1.71 -1.509 2.802 -2.074 c 3.093 -1.659 5.277 -3.432 11.282 -9.315 c 6.223 -6.03 7.097 -7.58 6.04 -10.824 c -0.655 -1.999 -1.092 -2.301 -4.404 -3.055 c -3.712 -0.83 -6 -2.715 -11.901 -9.843 c -1.092 -1.358 -1.856 -1.509 -6.733 -1.509 c -4.804 0 -5.786 -0.226 -7.97 -1.773 c -1.347 -0.943 -3.057 -2.489 -3.748 -3.394 c -2.147 -2.791 -4.222 -1.961 -6.733 2.791 c -2.184 3.885 -2.766 8.636 -4 12.295 c -1.71 4.941 -1.783 5.808 -1.674 15.991 c 0.036 5.959 0.4 11.616 0.764 12.634 c 0.837 2.225 5.02 4.677 7.279 4.224 c 3.967 -0.905 8.807 -0.264 12.08 -2.678 m -65.22 -2.866 c 1.783 -0.528 4 -4.149 4.549 -7.166 c 0.255 -1.471 0.073 -2.979 -0.546 -4.224 c -1.929 -4.337 -0.364 -9.919 -2.984 -13.728 c -0.728 -1.018 -1.529 -2.715 -1.783 -3.734 c -0.51 -2.074 -3.676 -8.448 -6.696 -13.539 c -2.074 -3.432 -5.786 -6.977 -7.351 -6.977 c -0.437 0 -2.62 1.81 -4.877 4.04 l -4.076 4.04 l -4.44 0.038 c -2.475 0 -4.767 0.226 -5.168 0.49 c -1.165 0.867 -4.84 6.449 -4.84 7.354 c 0 1.546 -4.586 6.185 -6.551 6.6 c -5.568 1.282 -6.842 5.695 -2.766 9.579 c 2.802 2.715 9.863 7.618 10.918 7.618 c 0.4 0 1.71 0.754 2.911 1.659 c 2.22 1.961 5.459 1.999 7.715 3.734 c 2.948 1.923 6.514 1.584 9.608 3.206 c 3.312 1.81 12.774 2.15 16.377 1.018 m 32.28 -8.712 c 2.802 -1.131 8.04 -5.921 10.04 -9.127 c -1.31 -2.527 1.783 -10.862 1.31 -13.426 c -0.328 -1.584 -0.946 -2.037 -3.785 -2.866 c -6.442 -1.848 -9.899 -2.678 -12.628 -2.942 c -3.821 -0.415 -4.476 -1.433 -3.457 -5.393 c 4.549 -6.826 2.184 -14.935 11.1 -11.955 c 2.293 1.999 6.733 -3.357 9.499 -3.357 c 3.13 0 8.516 -2.715 8.298 -4.45 c 10.7 -17.725 -6.15 -25.419 -6.878 -43.26 c -0.146 -0.453 -1.237 -0.905 -2.402 -1.018 c -5.059 0.339 -5.823 6.449 -8.589 3.507 c -9.1 -3.583 -11.719 6.826 -24.565 2.829 c -3.385 -1.169 -3.457 -1.169 -5.714 0.264 c -1.274 0.792 -2.329 1.961 -2.366 2.602 c -0.036 0.603 -0.109 2.489 -0.182 4.149 c -0.328 9.315 -0.437 9.956 -1.929 12.257 c -2.511 3.809 -4.586 13.2 -6.951 15.689 c -2.074 2.829 -2.074 6.524 -2.62 9.768 c -0.801 4.714 -0.182 7.05 3.494 12.747 c 3.567 5.544 7.934 14.482 8.589 17.575 c 0.91 3.507 2.693 6.788 3.203 10.258 c 0.437 2.979 0.655 3.281 3.457 4.563 c 5.896 3.093 6.223 -3.998 9.972 -0.339 c 2.875 2.829 8.771 3.734 13.1 1.923 m 10.518 -31.944 c 0.218 -2.074 -0.036 -3.696 -0.255 -5.846 c -3.603 0.151 -10.7 -1.81 -10.7 -0.49 c 1.456 1.961 5.968 -5.28 7.57 -3.507 c 1.601 0.641 3.166 10.56 3.385 9.843 m -48.11 -44.16 c -0.073 -2.829 -3.348 -2.338 -3.785 -2.489 c -0.801 -0.264 -9.353 31.755 -8.698 32.66 c 3.239 4.413 12.628 -25.457 12.483 -30.17 m 3.057 -5.02 c 4.404 -7.467 -0.655 -10.07 -1.638 -10.07 c -1.055 0 -1.71 1.433 -1.71 3.658 c 0 3.055 1.82 9.01 3.348 6.411 m 25.366 -12.144 c 3.967 -2.15 4.84 -6.638 3.348 -9.05 c -0.473 -0.83 -1.892 0.792 -10.663 0.943 c -6.26 0.189 -16.01 -1.433 -19.579 -4.79 c -3.93 -2.225 2.038 -4.224 5.968 -0.075 c 1.347 1.622 1.456 1.622 12.628 1.433 l 11.537 -2.225 l -0.109 -1.471 c -0.218 -3.319 0.036 -3.696 -2.548 -6.562 c -2.548 -2.866 -2.911 -3.055 -6.04 -3.055 c -1.892 0 -5.35 0.717 -7.934 1.659 c -2.511 0.905 -5.859 1.659 -7.424 1.697 c -4.149 0 -11.537 -0.226 -13.247 -1.358 c -2.511 -1.735 -3.13 -1.358 -3.13 4.677 c -0.51 6.977 5.423 11.955 13.72 13.539 c 5.677 1.886 11.537 5.619 17.723 5.959 c 2 0.075 4.04 -0.415 5.75 -1.32 m -58.56 37.525 c -3.457 -2.301 -5.168 -6.03 -7.752 -8.825 c -1.565 -1.622 -6 -13.275 -4.731 -13.275 c 0.873 0 6.442 10.334 6.442 11.729 c 6 7.203 28.387 17.989 19.325 20.554 c -4.112 -1.056 -9.426 -8.448 -13.283 -10.183 m -10.59 -25.758 c -0.473 -0.603 -1.929 5.393 -2.475 4.827 c -5.241 -5.318 6.66 -8.75 7.825 -8.297 c 2.402 2.225 -5.059 3.847 -5.35 3.47" transform="matrix(0.10734 0 0 0.10358 -1.369 -75.74)"/><g stroke-width="0.844" transform="matrix(0.125 0 0 0.125 0 -99.55)"><path d="m 129.22 882.8 c 0 -0.719 -0.906 -1.313 -2 -1.313 c -1.125 0 -2 0.594 -2 1.313 c 0 0.75 0.875 1.344 2 1.344 c 1.094 0 2 -0.594 2 -1.344"/><path d="m 113.75 882.33 c 0 -0.719 -0.906 -1.313 -2 -1.313 c -1.094 0 -2 0.594 -2 1.313 c 0 0.719 0.906 1.313 2 1.313 c 1.094 0 2 -0.594 2 -1.313"/></g></g><g fill="#ffd600" stroke-width="0.245" transform="matrix(0.125 0 0 0.125 0 -99.55)"><path d="m 148.59 995.92 c -2.438 -0.938 -3.625 -2.094 -3.906 -3.844 c -0.094 -0.688 -0.281 -4.656 -0.375 -8.844 c -0.156 -8.563 -0.094 -9.313 1.406 -13.813 c 0.531 -1.594 1.125 -3.656 1.344 -4.594 c 0.594 -2.813 2.125 -5.969 3.719 -7.719 c 1.156 -1.25 1.688 -1.125 4.03 1.094 c 3.406 3.156 4.781 3.625 10.125 3.625 c 1.594 0 3.25 0.125 3.688 0.25 c 0.438 0.156 1.25 0.875 1.906 1.625 c 2.094 2.5 5.563 5.719 6.875 6.406 c 0.719 0.375 2.188 0.906 3.281 1.188 c 2.438 0.625 2.969 1.156 3.125 3.156 c 0.125 1.5 -0.188 2.188 -2 4.281 c -2 2.313 -8.969 8.375 -11.281 9.813 c -2.188 1.375 -4.344 3.063 -6.656 4 c -5.25 2.125 -10.313 5.219 -15.281 3.375"/><path d="m 95.75 992.11 c -2 -0.344 -3.438 -0.719 -4.438 -1.219 c -2.781 -1.125 -5.656 -1.344 -8.406 -2.75 c -3.719 -1.375 -6.313 -3.125 -9.719 -4.719 c -3.531 -1.656 -9.06 -5.906 -9.969 -7.656 c -1.219 -2.281 -0.063 -4.313 2.906 -5.188 c 1.594 -0.469 2.5 -1.063 4.281 -2.813 c 1 -1.031 1.781 -2.125 2.281 -3.188 c 0.844 -1.813 2.688 -4.563 3.656 -5.438 c 0.594 -0.531 0.813 -0.563 4.531 -0.656 l 3.906 -0.063 l 2.875 -2.688 c 1.563 -1.5 3.281 -3 3.781 -3.375 c 0.875 -0.625 0.938 -0.656 1.625 -0.313 c 1.156 0.563 3.469 2.938 4.813 4.938 c 1.563 2.313 4.969 8.781 5.813 11.03 c 0.375 0.969 1.094 2.531 1.625 3.5 c 1.063 1.844 1.375 3.188 1.656 6.781 c 0.375 3.25 1.906 6.844 0.781 9.563 c -0.781 1.781 -2.281 3.688 -3.313 4.156 c -0.906 0.406 -6.469 0.469 -8.688 0.094"/><path d="m 116.44 907.58 c -2.906 -0.719 -5.438 -1.625 -8.344 -2.938 c -1.313 -0.594 -2.938 -1.25 -3.625 -1.438 c -1.469 -0.438 -5.625 -2.469 -7.656 -3.75 c -2.25 -1.469 -3.125 -2.531 -3.313 -4.156 c -0.219 -1.719 0 -6.344 0.313 -6.625 c 0.156 -0.156 0.688 0 1.469 0.375 c 1.469 0.719 3.344 1 7.938 1.219 c 4.156 0.188 5.844 -0.031 10.25 -1.344 c 3.438 -1.031 6.813 -1.594 8.219 -1.313 c 0.656 0.094 1.375 0.563 2.406 1.531 c 2.031 1.844 2.656 2.906 2.844 5 l 0.156 1.688 l -4.188 0.813 c -3.625 0.688 -4.844 0.813 -8.688 0.906 c -2.5 0 -5.313 0.469 -7.188 -1.156 c -1.438 -1.281 -2.531 -1.75 -4.344 -1.875 c -1.313 -0.094 -1.594 -0.031 -2.063 0.406 c -0.75 0.719 -0.656 1.156 0.531 2.188 c 1.875 1.688 5.156 2.938 9.813 3.75 c 3.313 0.594 11.25 0.594 14.188 0.031 c 1.219 -0.25 2.063 -0.313 2.219 -0.188 c 0.594 1.344 0.25 2.875 -0.25 3.875 c -1.75 3.25 -5.531 4.313 -10.688 3"/></g></g><path d="m 505.77 740.21 l 0.463 -0.019 c 3.772 -0.007 6.834 3.048 6.808 6.823 l 0.008 106.05 c 0.016 3.792 -3.034 6.823 -6.805 6.83 l -0.476 -0.01 c -3.772 0.007 -6.834 -3.048 -6.837 -6.811 l 0.021 -106.06 c -0.003 -3.763 3.034 -6.823 6.818 -6.801" transform="matrix(0.1159 0.04683 -0.05095 0.11415 0 -99.55)" fill="#7f7f7f" stroke="#fff" stroke-width="3.546"/></g></svg>