<svg xmlns="http://www.w3.org/2000/svg" viewBox="0 0 32 32"><path d="m 24.23 2.684 c 28.16 23.891 -29.75 46.863 -23.797 9.914 c 1.305 -8.102 16.207 -16.352 23.797 -9.914" fill="#544c3c"/><g transform="scale(0.125)"><g fill="#fff" stroke="#fff" stroke-width="1.216"><path d="m 72.34 159.41 c -0.281 -4.969 -0.406 -23.844 -0.219 -41.906 c 0.344 -32.438 0.375 -32.906 2.219 -37.06 c 1.219 -2.813 2.906 -5 4.969 -6.5 c 3.438 -2.5 9.03 -4.344 10.03 -3.313 c 0.344 0.344 0.875 16.594 1.125 36.06 l 0.5 35.406 c -8 8.5 -11.688 17.188 -17.813 26.344 c -0.125 0 -0.5 -4.063 -0.813 -9.03"/><path d="m 102.34 133.38 c -1 -2.625 3.469 -10.906 7.375 -13.688 c 3.906 -2.813 6.688 -3.25 24.03 -3.844 c 18.344 -0.625 19.625 -0.969 23.22 -6.188 c 3.875 -6.563 2.219 -16.406 -2.938 -20.469 c -2.656 -2.031 -3.094 -2.094 -21.719 -3.03 c -10.469 -0.531 -19.906 -1.313 -21 -1.75 c -3.688 -1.469 -8.656 -8.25 -8.656 -11.844 c 0 -2.313 4.844 -2.688 30 -2.313 c 20.344 0.313 21.813 0.438 26.25 2.188 c 6.594 2.563 13.656 9.688 16.09 16.16 c 6.188 16.531 -0.125 32.25 -16.219 40.41 c -2.969 1.5 -5.406 1.719 -25.563 2.438 c -14.156 0.5 -23.781 1.219 -26.375 1.906 c -3.438 0.938 -4.125 0.938 -4.5 0.031"/></g><g fill="#f36a29" stroke="#f26828"><path d="m 89.5 164.78 c 1.031 -2.906 5.75 -9.938 8.469 -12.594 c 6.938 -6.813 12.06 -8.03 30.03 -7.125 c 22.625 1.125 28.781 4.219 38.656 1.469 c 5.344 -1.469 13.875 -7.406 18.375 -11.5 c 5.344 -4.844 5.5 -4.125 1.156 5.406 c -4.469 9.844 -11.09 17.313 -19.19 21.688 c -5.813 3.125 -6.625 3.344 -13.5 3.625 c -6.156 0.25 -9.188 -0.125 -18.563 -2.25 c -20.03 -9.06 -26.75 -8.03 -44.875 2.156 c -0.75 0.375 -0.906 0.125 -0.563 -0.875" stroke-width="1.168"/><path d="m 139.16 208.03 c -39.656 -15.03 -43.844 -18.313 -75.62 -1.344 c -0.219 -0.188 0.906 -2.938 2.5 -6.094 c 3.719 -7.5 12.969 -17.594 18.938 -20.594 c 2.344 -1.219 6.188 -2.563 8.5 -3.03 c 5.594 -1.125 21.281 3.5 39.03 5.656 c 31.719 3.844 39.594 0.875 61.59 -19.281 c 3.063 -2.781 5.375 -5 5.375 -4.625 c 0 0.344 -0.688 2.531 -1.5 4.844 c -8.03 22.469 -23.844 39.75 -40.12 43.844 c -4.313 1.063 -13.5 1.375 -18.688 0.625" stroke-width="1.18"/></g></g></svg>