<svg xmlns="http://www.w3.org/2000/svg" viewBox="0 0 32 32"><path d="m 29.379 25.375 c -6.109 10.98 -25.26 6.719 -28.5 -2.32 c -3.863 -10.77 6.188 -31.22 23.2 -19.242 c 5.734 4.184 11.41 10.586 5.297 21.563" fill="#dcb82f"/><g fill="#fff" fill-rule="evenodd"><path d="m 9.828 23.715 c -0.918 -0.031 -1.672 -0.105 -1.672 -0.156 c 0 -0.055 0.133 -0.238 0.301 -0.402 c 0.277 -0.277 0.301 -0.844 0.301 -7.125 v -6.824 l -0.418 -0.402 l -0.414 -0.402 l 1.703 0.008 c 1.449 0.004 1.656 0.035 1.402 0.211 c -0.168 0.113 -0.301 0.352 -0.301 0.527 c 0 0.176 -0.098 0.348 -0.215 0.383 c -0.313 0.098 -0.313 13.07 0 13.164 c 0.117 0.035 0.215 0.148 0.215 0.254 c 0 0.395 1.145 0.563 3.852 0.563 c 2.676 0 3.848 -0.152 4.395 -0.57 c 0.152 -0.117 0.332 -0.207 0.402 -0.207 c 0.074 0 0.277 -0.16 0.453 -0.352 c 0.266 -0.289 0.324 -0.305 0.328 -0.09 c 0.004 0.145 -0.109 0.367 -0.25 0.496 c -0.145 0.129 -0.258 0.395 -0.258 0.594 v 0.363 l -4.074 0.012 c -2.242 0.008 -4.828 -0.012 -5.75 -0.043"/><path d="m 11.594 20.395 c -0.051 -0.078 0 -0.172 0.121 -0.207 c 0.164 -0.051 0.215 -0.871 0.215 -3.441 v -3.375 c 0.473 0.055 -0.191 -0.078 0.047 -0.07 c 0.734 0.023 1.383 0.039 1.371 -0.125 c -0.027 -0.395 0.203 1.117 0.066 0.074 c -0.047 -0.344 -1.555 -3.063 -1.207 -3.418 c 2.063 0.809 5.359 2.492 7.246 3.305 c 0.355 0.168 1.047 0.234 2.445 0.234 h 1.953 v 7.164 h -6.078 c -3.492 0 -6.121 -0.059 -6.18 -0.141"/><path d="m 9.445 23.496 c -0.953 -0.031 -1.734 -0.102 -1.734 -0.156 c 0 -0.055 0.141 -0.234 0.313 -0.398 c 0.285 -0.277 0.309 -0.844 0.309 -7.117 v -6.82 l -0.43 -0.402 l -0.434 -0.398 l 1.77 0.004 c 1.508 0.004 1.723 0.035 1.453 0.211 c -0.168 0.113 -0.309 0.352 -0.309 0.527 c 0 0.176 -0.102 0.348 -0.223 0.387 c -0.324 0.094 -0.242 12.395 0.082 12.492 c 0.121 0.035 0.055 0.293 0.055 0.398 c 0 0.395 1.438 0.199 4.25 0.199 c 2.777 0 4.531 0.211 5.102 -0.207 c 0.156 -0.113 0.219 -0.172 0.293 -0.172 c 0.074 0 -0.172 0.137 0.012 -0.059 c 0.273 -0.285 1.066 -1.18 1.07 -0.965 c 0.004 0.145 0.004 0.207 -0.141 0.336 c -0.148 0.129 -0.766 1.762 -0.918 1.895 l -0.324 0.277 l -4.23 0.016 c -2.324 0.008 -5.01 -0.012 -5.965 -0.047"/></g></svg>