<svg xmlns="http://www.w3.org/2000/svg" viewBox="0 0 32 32"><path d="m 1.43 23.504 c 5.422 14.887 29.875 8.246 30.598 -7.973 c 1.035 -14.742 -17.82 -20.332 -26.785 -9.832 c -4.445 4.543 -6.32 12.06 -3.809 17.805" fill="#47d0cc" fill-opacity="0.996"/><path d="m 12.895 13.703 c -0.445 -0.344 -0.898 -0.57 -1.242 -1.01 l 0.551 -0.66 c 0.383 -0.457 1.645 -1.281 2.891 -1.996 c 0.648 -0.371 2.063 -0.707 3.03 -0.719 c 1.285 -0.016 3.094 0.398 4.129 0.941 c 0.477 0.254 1.313 0.699 1.531 0.887 c 0.813 0.406 -0.289 1.473 -0.504 1.754 c -0.141 0.02 -0.938 -0.41 -1.414 -0.637 c -1.277 -0.609 -2.84 -0.742 -3.875 -0.57 c -1.371 0.23 -2.609 0.844 -3.617 1.797 c -0.414 0.391 -0.777 0.707 -0.809 0.707 c -0.035 0 -0.336 -0.223 -0.668 -0.496" fill="#66b014"/><path d="m 10.559 11.652 c -0.02 -0.035 -0.293 0.184 -0.43 0.145 c -0.461 -0.199 -0.738 -0.672 -1.148 -0.965 c -0.301 -0.004 -0.012 -0.645 0.301 -0.707 c 2.684 -2.25 5.152 -3.703 8.816 -3.828 c 2.383 -0.137 4.672 0.895 6.387 1.91 c 1.371 0.867 1.488 0.5 1.086 1.262 c -0.246 0.371 -0.59 0.676 -0.688 0.859 c -0.098 0.184 -0.18 0.289 -0.18 0.238 c 0 -0.207 -1.289 -1.07 -2.371 -1.586 c -0.906 -0.414 -1.719 -0.461 -2.699 -0.676 c -1.238 -0.273 -2.508 -0.211 -3.926 0.195 c -1.238 0.352 -2.121 1.098 -3.164 1.715 c -0.848 0.215 -1.043 1.043 -1.707 1.406 c -0.211 0.109 -0.227 0.109 -0.277 0.031" fill="#cdb82f"/><path d="m 11.801 12.836 c -0.465 -0.176 -1 -0.672 -1.34 -0.926 c -0.281 -0.426 0.773 -0.984 0.988 -1.199 c 0.695 -0.695 1.328 -1.191 1.848 -1.449 c 1.598 -0.805 3.344 -1.383 4.883 -1.418 c 2.043 -0.07 4.18 0.848 5.629 1.742 c 1.18 0.773 1.117 0.406 0.734 1.02 c -0.234 0.301 -0.316 0.973 -0.52 1.172 c 0 -0.184 -1.27 -1.012 -2.191 -1.473 c -1.695 -0.715 -4.04 -0.898 -5.645 -0.426 c -0.617 0.184 -1.074 0.41 -1.531 0.758 c -0.707 0.57 -1.699 0.941 -2.199 1.594 c -0.137 0.238 -0.566 0.531 -0.656 0.605" fill="#7817a3"/><path d="m 5.762 17.832 c -0.051 -0.449 -0.023 -0.555 0.25 -0.961 c 0.258 -0.379 0.301 -0.52 0.25 -0.836 c -0.047 -0.301 0.008 -0.508 0.246 -0.984 c 0.195 -0.395 0.301 -0.758 0.301 -1.043 c 0 -0.383 0.113 -0.609 0.898 -1.801 c 0.496 -0.746 0.969 -1.445 1.051 -1.551 c 0.145 -0.184 0.223 -0.137 1.684 0.961 c 0.848 0.633 1.844 1.441 2.215 1.793 c 0.375 0.352 0.844 0.707 1.039 0.789 c 0.301 0.125 3.902 2.82 4.359 3.25 c -1.223 0.844 -1.215 1.453 -1.09 2.719 c -6.43 -1.195 -8.5 -1.641 -11.203 -2.336" fill="#127086"/><path d="m 6.434 25.21 c -0.066 -0.074 -0.203 -0.496 -0.313 -0.938 c -0.242 -0.973 -0.906 -4.605 -0.906 -4.957 c 0 -0.141 0.113 -0.406 0.254 -0.59 c 0.137 -0.18 0.25 -0.453 0.25 -0.598 c 0 -0.148 0.035 -0.27 0.078 -0.27 c 0.082 0 11.06 2.211 11.188 2.25 c 0.043 0.016 -0.094 0.223 -0.301 0.457 l -0.375 0.434 l -1.402 0.219 c -1.223 0.188 -1.43 0.25 -1.605 0.465 c -0.688 0.832 -0.695 0.836 -1.305 0.934 c -0.539 0.086 -0.656 0.152 -1.203 0.695 l -0.609 0.598 l -1.039 0.156 c -0.574 0.09 -1.051 0.176 -1.059 0.191 c -0.012 0.016 -0.191 0.27 -0.398 0.563 c -0.344 0.48 -0.418 0.531 -0.762 0.531 c -0.207 0 -0.43 -0.063 -0.492 -0.141" fill="#368d9f"/><path d="m 17.898 17.5 c -0.336 -0.309 -2.992 -2.426 -3.652 -2.863 c -0.234 -0.152 -0.426 -0.316 -0.426 -0.359 c 0 -0.086 0.988 -0.953 1.473 -1.293 c 1.266 -0.887 2.973 -1.328 4.352 -1.133 c 1.121 0.199 2.145 0.625 3.184 1.07 c 0.348 0.035 -0.004 0.57 -0.004 0.57 c -0.621 0.961 -1.559 2.422 -2.082 3.242 c -0.523 0.824 -0.629 0.855 -0.797 1.145 c -0.641 -0.668 -1.684 -0.473 -2.047 -0.379" fill="#30869f"/><path d="m 20.06 18.09 c -0.121 -0.086 -0.219 -0.191 -0.219 -0.238 c 0 -0.082 5.648 -8.828 5.824 -9.02 c 0.043 -0.051 0.133 0.102 0.195 0.336 c 0.086 0.324 0.211 0.488 0.523 0.688 c 0.406 0.258 0.535 0.457 0.648 1 c 0.043 0.199 0.211 0.383 0.555 0.594 l 0.492 0.305 l 0.168 1.031 c 0.207 1.262 0.215 1.801 0.023 1.996 c -0.082 0.078 -0.523 0.207 -0.98 0.277 l -0.832 0.129 l -0.211 0.445 c -0.258 0.535 -0.426 0.617 -1.785 0.848 l -1.031 0.176 l -0.352 0.516 c -0.348 0.512 -0.355 0.52 -1.297 0.738 c -1.473 0.344 -1.488 0.348 -1.723 0.18" fill="#127086"/></svg>