<svg xmlns="http://www.w3.org/2000/svg" viewBox="0 0 32 32"><path d="m 3.918 6.934 c 1.023 -1.547 2.398 -3.105 3.656 -4.137 c 4.383 -3.594 9.418 -3.742 13.879 -0.41 c 2.395 1.789 4.691 4.586 6.75 8.227 c 2.461 4.344 3.293 9.547 2.141 13.387 c -0.242 0.813 -0.934 2.223 -1.43 2.914 c -1.656 2.309 -4.137 3.668 -7.746 4.238 c -3.449 0.543 -6.688 0.602 -9.438 0.164 c -5.656 -0.902 -9.445 -4.03 -10.777 -8.898 c -0.938 -3.426 -0.645 -7.262 0.875 -11.383 c 0.227 -0.617 1.711 -3.539 2.086 -4.102" fill="#b22121"/><path d="m 19.18 6.953 l -11.215 2.137 c -0.324 0.063 -0.539 0.371 -0.477 0.684 l 3.41 16.883 c 0.063 0.316 0.379 0.52 0.707 0.457 l 11.215 -2.141 c 0.328 -0.063 0.539 -0.367 0.477 -0.68 l -3.406 -16.883 c -0.066 -0.316 -0.383 -0.52 -0.711 -0.457" fill="#fff" fill-rule="evenodd"/><path d="m 16.13 19.957 c 0.273 -0.504 1.801 -3.684 1.793 -3.734 c -0.012 -0.078 -3.113 -3.035 -3.172 -3.02 c -0.055 0.012 -1.926 3.828 -1.918 3.914 c 0.008 0.074 3.07 3 3.148 3 c 0.031 0.004 0.098 -0.07 0.148 -0.164" fill="#d65151"/></svg>