<svg xmlns="http://www.w3.org/2000/svg" viewBox="0 0 32 32" xmlns:xlink="http://www.w3.org/1999/xlink"><defs><linearGradient id="4" gradientUnits="userSpaceOnUse" y1="3.109" x2="0" y2="44.643"><stop stop-color="#2f5a55"/><stop offset="1" stop-color="#000"/></linearGradient><linearGradient id="5" gradientUnits="userSpaceOnUse" y1="4.894" x2="0" y2="38.22" gradientTransform="matrix(0.99857 0 0 1.03455 -0.813 0.605)"><stop stop-color="#fff" stop-opacity="0.502"/><stop offset="1" stop-color="#fff" stop-opacity="0"/></linearGradient><linearGradient id="6" gradientUnits="userSpaceOnUse" x1="8.211" y1="-5.714" x2="31.743" y2="25.487" gradientTransform="matrix(0.41772 0 0 0.40268 7.26 5.348)"><stop stop-color="#fff" stop-opacity="0.988"/><stop offset="1" stop-color="#fff" stop-opacity="0"/></linearGradient><linearGradient id="1" gradientUnits="userSpaceOnUse" y1="366.65" x2="0" y2="609.51" gradientTransform="matrix(0.02657 0 0 0.01177 6.33 18.556)"><stop stop-color="#000" stop-opacity="0"/><stop offset="0.5" stop-color="#000" stop-opacity="0.502"/><stop offset="1" stop-color="#000" stop-opacity="0"/></linearGradient><radialGradient id="3" gradientUnits="userSpaceOnUse" cx="-2102.81" cy="30.33" r="1280" gradientTransform="matrix(0.02612 0 0 0.02516 78.79 13.98)"><stop stop-color="#05b9b9"/><stop offset="0.526" stop-color="#124c4c"/><stop offset="1" stop-color="#001a1a"/></radialGradient><radialGradient id="2" gradientUnits="userSpaceOnUse" cx="605.71" cy="486.65" r="117.14" gradientTransform="matrix(-0.02657 0 0 0.01177 25.53 18.556)" xlink:href="#0"/><radialGradient id="0" gradientUnits="userSpaceOnUse" cx="605.71" cy="486.65" r="117.14" gradientTransform="matrix(0.02657 0 0 0.01177 6.335 18.556)"><stop stop-color="#000" stop-opacity="0.502"/><stop offset="1" stop-color="#000" stop-opacity="0"/></radialGradient></defs><path d="m 3.121 25.402 c -15.992 -24.06 35.01 -38.875 28.26 -7.773 c -2.875 12.852 -20.922 20.652 -28.26 7.773" fill="#53abab"/><path d="m 22.348 22.871 c 0 0 0 2.855 0 2.855 c 1.367 0.004 3.309 -0.641 3.309 -1.43 c 0 -0.789 -1.527 -1.43 -3.309 -1.43" fill="url(#0)"/><path d="m 9.516 22.871 h 12.832 v 2.855 h -12.832" fill="url(#1)"/><path d="m 9.516 22.871 c 0 0 0 2.855 0 2.855 c -1.367 0.004 -3.305 -0.641 -3.305 -1.43 c 0 -0.789 1.527 -1.43 3.305 -1.43" fill="url(#2)"/><path d="m 6.5 3.496 h 34.997 c 1.663 0 3 1.349 3 3 v 34.999 c 0 1.655 -1.34 3 -3 3 h -34.997 c -1.654 0 -3 -1.349 -3 -3 v -34.999 c 0 -1.655 1.349 -3 3 -3" transform="matrix(0.4227 0 0 0.40827 5.788 6.131)" fill="url(#3)" stroke="url(#4)"/><path d="m 6.51 4.51 h 34.978 c 1.109 0 1.996 0.899 1.996 2 v 34.98 c 0 1.1 -0.887 2 -1.996 2 h -34.978 c -1.1 0 -1.996 -0.899 -1.996 -2 v -34.98 c 0 -1.1 0.896 -2 1.996 -2" transform="matrix(0.4227 0 0 0.40827 5.788 6.131)" fill="none" stroke="url(#5)" stroke-width="1.024"/><path d="m 14.664 7.766 h 8.645 c 0.539 0 1.078 0.414 1.078 1.02 v 13.676 h -5.391" fill="url(#6)"/><path d="m 7.477 8.988 v 0.816 h 16.91 v -0.816 m -16.91 1.633 v 0.816 h 16.91 v -0.816 m -16.91 1.633 v 0.816 h 16.91 v -0.816 m -16.91 1.633 v 0.816 h 16.91 v -0.816 m -16.91 1.633 v 0.82 h 16.91 v -0.82 m -16.91 1.637 v 0.816 h 16.91 v -0.816 m -16.91 1.633 v 0.816 h 16.91 v -0.816 m -16.91 1.633 v 0.816 h 16.91 v -0.816 m -16.91 1.633 v 0.816 h 16.91 v -0.816" fill="#fff" fill-opacity="0.102"/><path d="m 16.672 12.258 c -0.355 0.035 -0.688 0.254 -0.844 0.563 l -1.086 2.102 l -0.367 -0.828 c -0.152 -0.348 -0.52 -0.598 -0.91 -0.621 c -0.391 -0.023 -0.785 0.18 -0.98 0.504 l -0.965 1.543 h -4.04 v 2.035 h 4.652 c 0.363 0.004 0.723 -0.191 0.91 -0.496 l 0.199 -0.316 l 0.449 1.02 c 0.152 0.359 0.543 0.617 0.945 0.625 c 0.406 0.012 0.805 -0.223 0.98 -0.574 l 1.031 -2 l 1.258 3.133 c 0.137 0.355 0.504 0.621 0.898 0.656 c 0.398 0.031 0.801 -0.172 1 -0.504 l 0.961 -1.539 l 3.621 0.023 v -2.039 l -4.227 -0.023 c -0.367 0 -0.727 0.195 -0.91 0.496 l -0.148 0.23 l -1.332 -3.336 c -0.164 -0.418 -0.637 -0.695 -1.098 -0.652" fill="#0ff" fill-opacity="0.204"/><path d="m 4.504 25.502 h 10.498 l 2.994 -5 l 3 7 l 5 -9.998 l 5 12.993 l 3 -4.994 h 9.5" transform="matrix(0.4227 0 0 0.40827 5.788 6.131)" fill="none" stroke="#72ffff" stroke-linejoin="round" stroke-linecap="square"/></svg>