<svg xmlns="http://www.w3.org/2000/svg" viewBox="0 0 32 32"><path d="m 26.441 4.848 c 25.02 33.16 -43.824 37.867 -21.734 4.02 c 5.04 -7.715 15.11 -12.805 21.734 -4.02" fill="#09f"/><path d="m 12.383 24.316 c -0.594 -0.77 -1.047 -2.01 -1.867 -5.105 c -0.855 -3.242 -1.09 -3.59 -2.633 -3.984 c -1.656 -0.422 -1.848 -1.035 -0.707 -2.262 c 1.465 -1.566 2.559 -1.855 3.375 -0.891 c 0.563 0.668 0.871 1.641 1.422 4.496 c 0.617 3.203 1.195 4.02 2.18 3.063 c 0.219 -0.211 1.16 -1.512 2.098 -2.891 c 2.457 -3.621 4.215 -4.953 5.797 -4.391 c 1.016 0.359 2.508 2.039 3.145 3.527 c 0.477 1.129 1.832 6.086 1.832 6.715 c 0 0.137 -0.125 0.25 -0.277 0.25 c -0.332 0 -1.664 -2.098 -2.813 -4.438 c -0.98 -1.996 -1.91 -2.898 -2.734 -2.652 c -0.563 0.168 -1.574 1.352 -4.461 5.23 c -1.949 2.617 -3.105 3.824 -3.668 3.824 c -0.172 0 -0.48 -0.223 -0.688 -0.492 m -2.414 -10.391 c 0.352 -0.344 0.395 -0.5 0.23 -0.82 c -0.301 -0.586 -1.285 -0.641 -1.535 -0.086 c -0.16 0.359 -0.129 0.531 0.172 0.887 c 0.461 0.547 0.59 0.547 1.133 0.02" fill="#fff"/></svg>