<svg xmlns="http://www.w3.org/2000/svg" viewBox="0 0 32 32"><path d="m 21.73 1.574 c -15.711 -6.727 -24.43 10.41 -20.723 21.375 c 2.59 7.656 13.75 11.793 23.04 6.719 c 11.723 -6.402 9.801 -22.902 -2.316 -28.09" fill="#d53e3e"/><g fill="#fff"><path d="m 24.1 26.66 c -0.492 -0.117 -1.102 -0.625 -1.102 -0.914 c 0 -0.156 0.164 -0.422 0.262 -0.422 c 0.035 0 0.238 0.141 0.457 0.316 c 0.359 0.293 0.418 0.316 0.73 0.316 c 0.293 0 0.367 -0.023 0.527 -0.184 c 0.367 -0.367 0.137 -0.789 -0.523 -0.953 c -0.188 -0.047 -0.461 -0.145 -0.609 -0.211 c -1.066 -0.496 -0.973 -1.859 0.152 -2.188 c 0.652 -0.188 1.293 0.031 1.656 0.574 c 0.117 0.168 0.207 0.332 0.207 0.363 c 0 0.07 -0.234 0.309 -0.305 0.309 c -0.031 0 -0.219 -0.129 -0.422 -0.285 c -0.301 -0.234 -0.418 -0.285 -0.633 -0.285 c -0.297 0 -0.641 0.18 -0.688 0.359 c -0.082 0.32 0.156 0.52 0.789 0.66 c 0.512 0.113 0.813 0.301 1.051 0.656 c 0.438 0.648 0.199 1.438 -0.523 1.758 c -0.313 0.137 -0.758 0.195 -1.027 0.129"/><path d="m 11.762 21.273 c -1.105 -0.273 -1.594 -0.637 -2.01 -1.5 c -0.207 -0.426 -0.215 -0.637 -0.246 -4.844 l -0.031 -4.395 h 3.629 v 10.863 l -0.438 -0.008 c -0.242 -0.004 -0.652 -0.055 -0.906 -0.117"/><path d="m 13.934 15.934 l 0.063 -5.461 c 1.379 -0.012 2.422 0.047 3.762 0.121 v 10.805 h -3.824"/><path d="m 18.48 15.902 v -5.43 h 3.93 v 10.863 h -3.93"/><path d="m 9.613 7.938 v -1.855 l 0.75 -0.055 c 0.414 -0.031 1.355 0.234 2.094 0.199 c 0.738 -0.031 2.832 -0.531 3.875 -0.645 c 2.754 -0.293 3.563 -0.18 4.367 0.238 c 1.09 0.563 1.734 1.828 1.734 3.402 v 0.566 h -12.82"/><path d="m 5.723 26.5 c -0.086 -0.137 -0.109 -0.426 -0.137 -1.832 c -0.035 -1.762 0 -2.078 0.238 -2.207 c 0.266 -0.141 0.367 0 1.074 1.512 c 0.25 0.531 0.508 1.059 0.574 1.168 l 0.125 0.199 l 0.246 -0.5 c 0.137 -0.277 0.43 -0.898 0.652 -1.383 c 0.426 -0.934 0.586 -1.125 0.82 -1 c 0.074 0.039 0.152 0.148 0.18 0.246 c 0.027 0.094 0.051 0.93 0.047 1.855 c 0 1.367 -0.016 1.723 -0.094 1.875 c -0.117 0.234 -0.316 0.273 -0.477 0.094 c -0.105 -0.117 -0.129 -0.266 -0.156 -1.098 l -0.035 -0.965 l -0.477 0.918 c -0.262 0.504 -0.523 0.945 -0.578 0.977 c -0.055 0.035 -0.176 0.043 -0.266 0.02 c -0.141 -0.031 -0.246 -0.195 -0.633 -0.977 l -0.461 -0.938 l -0.035 0.93 c -0.023 0.68 -0.059 0.961 -0.129 1.051 c -0.207 0.262 -0.332 0.277 -0.48 0.055"/><path d="m 11.01 26.566 c -0.406 -0.148 -0.703 -0.531 -0.789 -1.012 c -0.09 -0.508 -0.086 -0.715 0.02 -1 c 0.125 -0.352 0.352 -0.602 0.703 -0.785 c 0.68 -0.348 1.453 -0.082 1.836 0.629 c 0.121 0.234 0.137 0.359 0.137 1.172 c 0 0.836 -0.008 0.918 -0.125 1 c -0.078 0.055 -0.18 0.074 -0.254 0.051 c -0.16 -0.055 -0.465 -0.059 -0.922 -0.004 c -0.242 0.031 -0.43 0.016 -0.605 -0.051 m 0.914 -0.711 c 0.195 -0.137 0.328 -0.461 0.328 -0.809 c 0 -0.246 -0.031 -0.309 -0.258 -0.512 c -0.316 -0.285 -0.598 -0.309 -0.879 -0.066 c -0.434 0.363 -0.344 1.227 0.148 1.43 c 0.211 0.086 0.504 0.066 0.66 -0.043"/><path d="m 14.03 26.594 c -0.199 -0.043 -0.348 -0.125 -0.496 -0.289 c -0.355 -0.383 -0.184 -0.699 0.305 -0.551 c 0.141 0.043 0.367 0.109 0.5 0.152 c 0.305 0.09 0.582 0.027 0.582 -0.133 c 0 -0.152 -0.09 -0.223 -0.477 -0.348 c -0.656 -0.215 -0.984 -0.551 -0.984 -1.01 c 0 -0.637 0.969 -1.031 1.688 -0.684 c 0.324 0.156 0.543 0.504 0.414 0.66 c -0.105 0.129 -0.367 0.129 -0.66 0.008 c -0.398 -0.168 -0.785 -0.094 -0.699 0.129 c 0.016 0.047 0.273 0.18 0.57 0.289 c 0.406 0.156 0.578 0.258 0.703 0.418 c 0.281 0.371 0.176 0.938 -0.234 1.234 c -0.195 0.141 -0.809 0.199 -1.211 0.121"/><path d="m 16.699 26.598 c -0.684 -0.207 -0.988 -0.723 -0.531 -0.898 c 0.125 -0.047 0.215 -0.027 0.43 0.102 c 0.309 0.18 0.742 0.211 0.863 0.063 c 0.137 -0.16 0.031 -0.262 -0.5 -0.477 c -0.855 -0.34 -1.102 -0.762 -0.766 -1.305 c 0.266 -0.441 0.953 -0.602 1.488 -0.355 c 0.344 0.156 0.492 0.336 0.469 0.559 c -0.02 0.145 -0.059 0.184 -0.207 0.199 c -0.102 0.012 -0.289 -0.023 -0.418 -0.082 c -0.316 -0.145 -0.734 -0.109 -0.734 0.059 c 0 0.094 0.125 0.168 0.535 0.328 c 0.594 0.234 0.797 0.391 0.898 0.699 c 0.09 0.266 -0.008 0.648 -0.207 0.836 c -0.309 0.289 -0.879 0.41 -1.32 0.273"/><path d="m 19.852 26.563 c -0.473 -0.25 -0.652 -0.395 -0.852 -0.688 c -0.59 -0.859 -0.527 -2.168 0.133 -2.883 c 0.488 -0.531 1.199 -0.746 1.887 -0.57 c 1.023 0.262 1.578 1.086 1.52 2.258 c -0.063 1.223 -0.73 1.898 -1.984 2.01 c -0.336 0.031 -0.434 0.012 -0.703 -0.129 m 1.211 -0.707 c 1.01 -0.422 1.066 -2.133 0.086 -2.633 c -0.438 -0.223 -1.078 -0.133 -1.453 0.211 c -0.422 0.391 -0.52 1.227 -0.215 1.828 c 0.191 0.371 0.367 0.527 0.754 0.668 c 0.262 0.094 0.477 0.074 0.828 -0.074"/></g></svg>