<svg xmlns="http://www.w3.org/2000/svg" viewBox="0 0 32 32"><path d="m 28.3 26.313 c 7.789 -11.902 1.504 -22.746 -7.313 -25.316 c -11.863 -3.461 -27.965 5.633 -17.355 24.375 c 4.219 7.449 19.12 9.422 24.668 0.941" fill="#455530"/><g fill="#138819"><path d="m 14.707 7.551 c -0.211 -0.09 -0.547 -0.398 -0.746 -0.691 c -0.391 -0.57 -0.445 -0.609 -1.418 -1.016 c -0.883 -0.371 -1.148 -0.984 -1.266 -2.898 c -0.125 -2.02 -0.102 -2.07 0.945 -2.254 c 0.473 -0.082 0.922 -0.148 1 -0.148 c 0.078 0 0.219 0.32 0.309 0.711 c 0.254 1.098 0.418 1.281 1.246 1.383 c 1.441 0.176 3.297 0.047 3.711 -0.254 c 0.172 -0.125 0.258 -0.418 0.301 -0.988 l 0.059 -0.813 l 0.832 0.176 c 0.457 0.094 0.934 0.215 1.063 0.262 c 0.324 0.125 0.516 0.785 0.516 1.781 c 0 0.996 -0.227 1.332 -1 1.477 c -0.445 0.086 -0.699 0.066 -2.152 -0.16 c -0.281 -0.043 -0.789 -0.035 -1.125 0.012 c -0.738 0.113 -0.789 0.211 -0.977 1.969 c -0.168 1.59 -0.395 1.84 -1.297 1.453"/><path d="m 1.273 19.879 c -0.352 -1.074 -0.375 -1.254 -0.223 -1.629 c 0.418 -0.996 0.309 -1.555 -0.504 -2.641 c -0.336 -0.449 -0.34 -0.492 -0.258 -2.102 c 0.113 -2.234 0.66 -4.43 1.195 -4.805 c 0.383 -0.211 0.066 -1.145 0.461 -1.246 c 0.023 0 0.211 0.063 0.414 0.141 c 0.199 0.078 1.012 0.203 1.805 0.285 c 0.789 0.078 2.086 0.129 2.09 0.242 c 0.043 1.375 -0.98 0.57 -2.145 0.762 c -0.621 0.098 -1.484 0.324 -1.918 0.496 l -0.734 1.148 l -0.031 1.523 c -0.078 3.754 0.215 4.176 1.883 4.637 c 0.504 0.141 1.461 0.258 1.621 0.41 c 0.441 0.414 0.504 1.586 0.57 2.281 c 0.105 1.191 -0.629 1.465 -0.844 0.313 c -0.133 -0.691 -0.563 -1.488 -0.902 -1.672 c -0.188 -0.098 -0.594 -0.121 -1.148 -0.063 l -0.859 0.094 l -0.078 3.03"/><path d="m 19.73 30.633 c -0.152 -0.52 -0.387 -0.961 -0.629 -1.188 c -0.215 -0.199 -0.43 -0.563 -0.484 -0.809 c -0.125 -0.59 -0.441 -0.707 -0.781 -0.285 c -0.277 0.305 -0.641 0.512 -0.883 0.766 c -1.117 1.199 -2.188 -0.105 -1.656 -2.02 c 0.176 -0.629 0.438 -0.723 2.566 -0.945 l 1.625 -0.164 l 1.078 0.973 c 0.59 0.535 1.121 0.973 1.176 0.973 c 0.496 -1.57 -0.254 -11.227 -1.109 -5.73 c -0.57 3.148 -0.777 3.32 -4.01 3.398 c -1.973 0.051 -2.164 0.031 -2.586 -0.227 c -0.523 -0.324 -1.113 -1.324 -1.258 -2.121 c -0.16 -0.914 -0.293 -0.984 -0.398 -0.219 c -0.074 0.551 0.199 1.676 -0.211 2.148 c -0.441 0.375 -0.934 0.129 -1.176 0.559 c -0.223 0.383 -0.219 0.457 0.016 1.41 c 0.316 1.262 0.188 1.742 -0.668 2.531 c -0.645 0.598 -0.781 0.637 -1.254 0.371 c -0.309 -0.168 -0.305 -0.172 0.172 -0.398 c 1.234 -0.59 1.344 -2.289 0.184 -2.887 c -0.242 -0.129 -1.035 -0.273 -1.855 -0.344 c -1.66 -0.145 -1.969 -0.297 -2.352 -1.164 c -0.383 -0.867 -0.176 -1.012 0.676 -0.469 c 0.832 0.539 1.91 0.762 3.055 0.637 c 0.984 -0.105 1.402 -0.324 1.27 -0.668 c -0.121 -0.313 -0.539 -0.445 -2.199 -0.691 c -2.277 -0.336 -2.574 -0.547 -2.844 -1.988 c -0.141 -0.75 0.121 -0.742 0.68 0.023 c 0.68 0.926 1.133 1.141 2.285 1.098 c 0.719 -0.031 1.336 -0.844 1.844 -2.434 c 0.488 -1.527 0.609 -1.652 1.609 -1.648 c 1.195 0.004 1.602 -0.273 2.148 2.465 c 0.211 1.07 0.129 2.453 0.246 2.637 c 0.344 0.52 0.941 -0.012 2.766 -0.004 c 2.688 0.016 2.746 0.492 3.047 -2.543 c -0.973 -4.254 8.02 -3.582 7.777 -1.879 c 0.086 1.578 -5.01 0.445 -4.91 4.879 c 0.094 4.07 0.129 4.199 1.254 4.758 l 0.715 0.352 l -1.188 0.555 c -1.012 0.477 -2.949 1.117 -3.363 1.117 c -0.07 0 -0.238 -0.371 -0.371 -0.828 m -7.402 -9.305 c 0.055 -0.867 -0.34 -1.527 -0.906 -1.527 c -0.609 0 -0.551 0.605 0.121 1.32 c 0.457 0.488 0.762 0.566 0.785 0.207"/><path d="m 30.723 16.656 c -0.984 -0.457 -0.434 -1.355 -0.867 -1.41 c -0.434 -0.055 -1.246 -0.246 -1.809 -0.426 c -0.848 -0.27 -1.488 -0.348 -3.734 -0.457 c -3.664 -0.18 -4.566 -0.297 -5.09 -0.672 c -0.383 -0.273 -0.707 -0.324 -2.918 -0.469 c -2.805 -0.184 -3.285 0.664 -3.437 -0.148 c -0.047 -0.266 0.129 -1.77 0.176 -2.18 c 0.094 -0.789 -0.086 -1.727 -0.363 -1.906 c -3.309 -0.93 -4.051 0.645 -3 -1.23 c 0.055 -0.125 0.129 -1.09 0.16 -2.141 c 0.059 -1.855 0.051 -1.918 -0.262 -2.281 c -0.344 -0.402 -1.332 0.23 -2.441 0.207 c -1.055 0.055 -0.105 -0.953 0.43 -1.238 c 1.086 -0.57 1.465 -0.516 2.535 0.367 c 0.469 0.383 0.57 0.848 0.668 3.02 l 0.094 2.035 h 0.758 c 0.91 0 1.379 0.266 1.949 1.109 c 0.391 0.578 0.395 0.605 0.34 2.129 l -0.059 1.543 l 1.301 -0.086 c 0.711 -0.047 1.855 -0.086 2.539 -0.086 h 1.238 l 0.047 -1.32 c 0.082 -2.301 0.891 -3.43 2.598 -3.637 l 0.785 -0.094 l -0.105 -0.422 c -0.145 -0.551 -0.082 -2.387 0.109 -3.34 c 0.156 -0.785 0.473 -1.441 0.738 -1.543 c 0.086 -0.035 0.484 0.129 0.887 0.367 c 0.852 0.508 1.5 1.355 0.473 1.445 c -1.07 0.098 -1.707 -0.688 -1.707 0.918 c 0 1.227 0.016 1.289 0.395 1.668 c 0.219 0.219 0.492 0.398 0.605 0.398 c 0.355 0 1.168 0.82 1.539 1.547 c 0.191 0.379 0.551 1.34 0.793 2.133 c 0.523 1.699 0.871 2.422 1.285 2.672 c 0.453 0.273 1.996 0.836 2.297 0.836 c 0.484 0 1.184 -0.766 1.371 -1.5 c 0.633 -1.047 0.566 1.051 0.188 1.559 c -0.273 0.355 -0.32 0.492 -0.184 0.535 c 1.141 0.496 0.125 3.453 -0.32 2.094 m -6.457 -3.504 c 1.32 -0.414 1.273 -0.281 0.723 -2.094 c -0.691 -3.988 -4.582 -3.406 -5.16 -0.754 c -0.309 1.484 -0.012 2.57 0.797 2.922 c 0.668 0.289 2.609 0.25 3.641 -0.074"/></g><path d="m 8.477 24.23 c -0.562 -0.125 -0.625 -0.559 -0.586 -3.848 l 0.039 -3.121 c 1.07 -0.766 0.945 -0.188 1.199 0.684 c 0.332 1.098 0.508 2.824 0.313 3.098 c -0.238 0.336 0.113 1.246 0.559 1.445 c 0.191 0.086 0.602 0.156 0.914 0.156 c 0.898 0 1.309 0.254 1.309 0.816 c 0 0.797 -0.211 0.895 -1.883 0.867 c -0.844 -0.012 -1.684 -0.055 -1.863 -0.098 m 11.305 -0.098 c -0.359 -0.215 -0.363 -0.23 -0.434 -3.133 c -0.082 -3.293 -0.141 -3.484 -1.031 -3.484 c -0.703 0 -0.797 0.203 -0.902 1.934 c -0.047 0.734 -0.16 1.445 -0.258 1.582 c -0.227 0.32 -2.359 0.348 -2.57 0.031 c -0.082 -0.117 -0.227 -0.852 -0.328 -1.633 c -0.102 -0.781 -0.277 -1.531 -0.395 -1.668 c -0.258 -0.301 -1.262 -0.324 -1.469 -0.031 c -0.082 0.121 -0.242 0.637 -0.352 1.156 c -0.156 0.719 -0.293 0.988 -0.586 1.156 c -0.902 0.512 -1.563 -0.281 -1.563 -1.875 c 0 -1.113 -0.395 -1.965 -0.977 -2.109 c -0.223 -0.055 -0.547 -0.133 -0.723 -0.176 c -0.273 -0.063 -0.324 -0.223 -0.402 -1.227 c -0.047 -0.637 -0.113 -1.465 -0.148 -1.844 c -0.082 -0.918 0.082 -1.359 0.961 -1.555 c 1.023 -0.227 1.766 -0.352 1.691 -0.617 c -0.039 -0.137 -0.469 -0.25 -1.176 -0.309 c -0.617 -0.051 -1.187 -0.176 -1.27 -0.273 c -0.191 -0.891 -0.102 -1.59 -0.066 -2.539 l 2 -0.047 c 2.328 -0.055 3.102 -0.332 2.875 1.613 l -0.145 1.227 l -1.117 0.262 c -1 0.234 -0.977 0.25 -0.762 0.559 c 0.164 0.23 0.422 0.234 1.543 0.191 c 0.973 -0.035 0.781 -0.063 0.652 0.883 c -0.105 0.746 0.18 1.719 0.488 2.082 c 0.18 0.207 1.449 -0.363 2.563 -0.363 c 1.164 0 1.852 -0.004 1.957 0.215 c 0.105 0.23 -0.086 0.684 1.594 0.711 c 1.602 0.031 2.129 0.102 2.531 0.34 c 0.277 0.164 0.891 -0.078 1.27 0.109 l 0.766 0.383 v 4.129 c 0 2.984 -0.051 4.188 -0.176 4.336 c -0.242 0.285 -3.555 0.273 -4.04 -0.016 m -9.66 -2.039 c -0.512 -0.285 -0.441 -1.406 0.707 -1.617 c 0.969 -0.18 1.168 0.082 1.152 1.094 c -0.02 1.418 -1.578 0.676 -1.859 0.523 m 11.16 -7.785 c -0.363 -0.188 0.23 -0.852 0.102 -1.434 c -0.484 -2.203 -0.758 -2.805 -1.48 -3.215 c -0.246 -0.145 -0.887 0.027 -0.879 -0.043 c 0.012 -0.07 -0.227 -0.465 -0.145 -0.93 l -0.059 -1.203 l 2.816 -0.012 l 2.145 0.051 l -0.016 2.91 c -0.008 1.883 0.039 3.563 -0.074 3.805 c -0.203 0.445 -1.684 0.441 -2.41 0.07 m -2.813 -0.871 c -0.141 -0.043 -0.055 -1.035 -0.02 -1.563 c 0.082 -1.141 0.102 -1.422 1 -1.422 c 0.746 0 0.926 0.602 1.184 1.953 c 0.219 1.156 0.25 1.809 -1.188 1.809 c -1.367 0 0.41 -0.34 -0.977 -0.777" fill="#050505"/></svg>