<svg xmlns="http://www.w3.org/2000/svg" viewBox="0 0 32 32"><path d="m 30.527 23.566 c -6.297 15.12 -30.688 8.375 -30.527 -8.09 c -0.242 -14.969 19.15 -20.645 27.648 -9.984 c 4.25 4.613 5.734 12.25 2.879 18.08" fill="#86cefa" fill-opacity="0.996"/><path d="m 10.438 7.793 h 11.68 c 1.676 0 3.03 1.355 3.03 3.03 v 11.68 c 0 1.676 -1.355 3.03 -3.03 3.03 h -11.68 c -1.676 0 -3.035 -1.355 -3.035 -3.03 v -11.68 c 0 -1.676 1.359 -3.03 3.035 -3.03" fill="#ec624c"/><path d="m 16.496 16.664 v -8.918 h 3.281 c 2.547 0 3.379 0.039 3.695 0.168 c 0.637 0.258 1.352 0.965 1.637 1.617 c 0.258 0.582 0.262 0.668 0.227 7.219 c -0.035 7.41 0.016 6.973 -0.926 8.01 c -0.66 0.723 -1.234 0.82 -4.91 0.82 l -3 0.004" fill="#389be0"/><path d="m 17.414 19.449 c -1.977 1 -3.961 1.148 -5.742 0.293 c -1 -0.484 -2.117 -1.566 -2.586 -2.512 c -0.539 -1.566 -0.707 -3.402 -0.043 -4.703 c 0.453 -0.883 1.219 -1.758 2 -2.289 c 1.477 -1 3.703 -1.172 5.359 -0.41 c 1.684 0.777 2.898 2.402 3.16 4.211 c 0.18 1.27 -0.16 2.875 -0.801 3.801 c 0.434 0.773 2.172 2.117 2.926 2.75 c 1.281 1.137 2.434 2.496 1.395 3.484 c -2.137 1.16 -4.234 -3.316 -5.672 -4.625 m -1.656 -0.551 c 0.867 -0.273 1.801 -1.152 2.313 -2.172 c 0.617 -1.289 0.52 -2.676 0 -3.727 c -0.449 -0.895 -1.211 -1.668 -2.055 -2.082 c -1.168 -0.305 -2.582 -0.469 -3.613 0.066 c -0.801 0.418 -1.707 1.293 -2.145 2.07 c -0.477 1.168 -0.656 2.66 -0.078 3.754 c 0.633 1.164 1.801 2.07 2.98 2.313 c 0.875 0.039 1.805 0.016 2.598 -0.223" fill="#fff"/></svg>