<svg xmlns="http://www.w3.org/2000/svg" viewBox="0 0 32 32"><path d="m 9.313 31.465 c 45.18 3.137 11.316 -57.44 -7.879 -17.551 c -2.645 6.145 -0.711 15.313 7.879 17.551" fill="#ffd9b9"/><path d="m 18.828 20.473 c -0.066 -0.09 -0.676 -1.188 -1.352 -2.438 c -0.676 -1.25 -1.273 -2.297 -1.324 -2.328 c -0.051 -0.031 -0.125 0.117 -0.164 0.332 c -0.043 0.219 -0.27 1.227 -0.508 2.242 l -0.43 1.848 h -0.813 c -0.73 0 -2.02 -0.176 -2.129 -0.289 c -0.047 -0.047 2.441 -9.05 2.859 -10.344 c 0.133 -0.418 0.281 -0.758 0.324 -0.754 c 0.043 0 0.645 1.07 1.34 2.379 c 1.676 3.164 2.266 4.18 2.387 4.105 c 0.055 -0.035 0.82 -1.332 1.695 -2.883 c 0.875 -1.551 1.711 -3 1.859 -3.223 l 0.262 -0.402 l 0.25 0.766 c 0.281 0.875 2.582 9.414 2.691 9.992 c 0.066 0.359 0.047 0.383 -0.375 0.453 c -0.242 0.043 -0.902 0.113 -1.465 0.152 l -1.023 0.078 l -0.465 -2.105 c -0.254 -1.16 -0.5 -2.152 -0.547 -2.207 c -0.047 -0.051 -0.637 0.879 -1.316 2.074 c -1.484 2.617 -1.586 2.766 -1.758 2.547" fill="#007dd5"/><g fill="#fb8800"><path d="m 12.93 26.26 c -0.07 -0.191 -0.199 -0.621 -0.285 -0.945 c -0.215 -0.836 -0.605 -1.285 -1.43 -1.652 l -0.711 -0.316 l -1.012 0.594 c -0.559 0.324 -1.133 0.594 -1.277 0.594 c -0.145 0 -0.477 -0.227 -0.734 -0.5 l -0.465 -0.504 l 0.582 -0.934 c 0.621 -0.996 0.68 -1.289 0.422 -2.094 c -0.242 -0.754 -0.379 -0.848 -1.633 -1.117 c -0.633 -0.133 -1.199 -0.32 -1.254 -0.41 c -0.168 -0.27 -0.129 -1.059 0.066 -1.316 c 0.102 -0.129 0.535 -0.316 0.973 -0.418 c 1.164 -0.273 1.48 -0.488 1.906 -1.301 l 0.387 -0.734 l -0.645 -0.953 c -0.352 -0.523 -0.641 -1.066 -0.641 -1.203 c -0.004 -0.141 0.227 -0.434 0.508 -0.656 l 0.512 -0.406 l 1.01 0.508 l 1.01 0.504 l 1.148 -0.422 c 0.633 -0.23 1.184 -0.383 1.227 -0.34 c 0.043 0.043 -0.012 0.371 -0.117 0.723 c -0.176 0.57 -0.293 0.688 -1.109 1.109 c -1.117 0.574 -1.613 1.301 -2.113 2.281 c -0.531 1.324 -0.695 2.523 -0.109 3.684 c 0.703 1.379 1.734 2.555 3.129 2.93 c 2.023 0.543 3.867 0.074 5.422 -1.375 l 0.527 -0.492 l 0.324 0.453 c 0.336 0.469 0.672 0.574 0.945 0.293 c 0.113 -0.117 0.285 0.109 0.621 0.816 c 0.512 1.07 0.496 1.145 -0.309 1.738 l -0.398 0.293 l -1.012 -0.523 c -1.121 -0.586 -1.523 -0.633 -2.484 -0.293 c -0.629 0.223 -0.668 0.27 -0.828 1 c -0.387 1.773 -0.359 1.738 -1.234 1.738 c -0.691 0 -0.801 -0.043 -0.914 -0.355"/><path d="m 13.09 22.539 c -1.676 -0.43 -2.715 -1.254 -3.344 -2.641 c -0.313 -0.691 -0.367 -0.992 -0.336 -1.824 c 0.031 -0.758 0.102 -1.086 0.344 -1.582 c 0.289 -0.598 0.914 -1.332 1.504 -1.777 c 0.457 -0.34 1.094 -0.602 1.094 -0.445 c 0 0.074 0.141 0.355 -0.23 0.59 c -0.68 0.426 -1.176 1.035 -1.609 1.797 c -0.492 0.875 -0.508 1.656 -0.172 2.707 c 0.391 1.211 1.465 2.145 2.801 2.523 c 0.48 0.137 1.465 0.098 1.996 -0.051 c 0.867 -0.242 1.332 -0.586 1.973 -1.145 c 0.512 -0.445 0.746 -0.102 0.746 -0.047 c 0 0.027 -0.129 0.199 -0.289 0.379 c -0.664 0.762 -1.785 1.355 -2.941 1.563 c -0.559 0.078 -1.109 0.063 -1.535 -0.047"/></g></svg>