<svg xmlns="http://www.w3.org/2000/svg" viewBox="0 0 32 32"><path d="m 0.469 19.328 c 2.477 16.48 27.15 16.977 30.879 0.953 c 3.836 -12.973 -10.06 -23.578 -20.453 -19.328 c -6.961 2.01 -12.586 10.227 -10.426 18.371" fill="#707f8f"/><g stroke="#fffafa" transform="scale(0.125)"><path d="m 104.97 61.906 h 42.813 c 13.594 0 24.594 3.219 24.594 7.219 v 122.09 c 0 3.969 -11 7.219 -24.594 7.219 h -42.813 c -13.594 0 -24.625 -3.25 -24.625 -7.219 v -122.09 c 0 -4 11.03 -7.219 24.625 -7.219" fill="#fff" stroke-width="2.168"/><g fill="#707f8f"><g stroke-width="2"><path d="m 99.72 82.969 h 53.844 c 1.625 0 2.906 2.688 2.906 5.969 c 0 3.313 -1.281 5.969 -2.906 5.969 h -53.844 c -1.594 0 -2.906 -2.656 -2.906 -5.969 c 0 -3.281 1.313 -5.969 2.906 -5.969"/><path d="m 99.19 103.88 h 53.844 c 1.594 0 2.906 2.656 2.906 5.969 c 0 3.281 -1.313 5.969 -2.906 5.969 h -53.844 c -1.625 0 -2.906 -2.688 -2.906 -5.969 c 0 -3.313 1.281 -5.969 2.906 -5.969"/><path d="m 99.19 123.13 h 53.844 c 1.594 0 2.906 2.656 2.906 5.969 c 0 3.281 -1.313 5.969 -2.906 5.969 h -53.844 c -1.625 0 -2.906 -2.688 -2.906 -5.969 c 0 -3.313 1.281 -5.969 2.906 -5.969"/></g><path d="m 99.31 143.34 h 37.28 c 1.625 0 2.906 2.719 2.906 6.094 c 0 3.375 -1.281 6.125 -2.906 6.125 h -37.28 c -1.625 0 -2.906 -2.75 -2.906 -6.125 c 0 -3.375 1.281 -6.094 2.906 -6.094" stroke-width="1.72"/></g></g></svg>