<svg xmlns="http://www.w3.org/2000/svg" viewBox="0 0 32 32"><path d="m 24.57 27.387 c 28.426 -33.08 -38.992 -37.785 -21 -4.01 c 4.102 7.699 13.469 12.777 21 4.01" fill="#6a8e22"/><path d="m 15.176 25.297 c -0.84 -0.457 -2.41 -1.754 -3.285 -2.711 c -2.48 -2.715 -4.328 -6.875 -4.91 -11.06 l -0.09 -0.633 l 1.75 -0.672 c 2.223 -0.855 4.141 -1.77 5.758 -2.746 l 1.277 -0.77 l 1.324 0.625 c 1.383 0.656 4.04 1.824 6.414 2.82 c 0.773 0.32 1.402 0.648 1.402 0.723 c 0 0.5 -0.652 3.207 -1.105 4.582 c -1.324 4.01 -3.758 7.516 -6.523 9.391 c -1.082 0.73 -1.371 0.797 -2.01 0.449 m 1.348 -3.32 l 1.047 -0.09 v -2.035 c 0 -1.121 0.039 -2.516 0.086 -3.098 l 0.09 -1.063 h 1.332 c 1.492 0 1.5 -0.004 1.5 -1.016 c 0 -0.566 -0.035 -0.609 -1.527 -1.895 c -2.234 -1.922 -3.121 -2.629 -3.305 -2.629 c -0.156 0 -1.777 1.355 -3.758 3.145 c -0.992 0.898 -0.996 0.906 -0.957 1.547 l 0.043 0.641 l 2.484 0.25 l 0.086 3.03 c 0.047 1.668 0.121 3.09 0.164 3.164 c 0.098 0.156 1.207 0.176 2.715 0.047" fill="#fff"/></svg>