<svg xmlns="http://www.w3.org/2000/svg" viewBox="0 0 32 32"><path d="m 14.453 31.652 c -5.273 -1.02 -10.203 -5.02 -12.629 -10.25 c -2.035 -4.387 -2.152 -8.664 -0.344 -12.426 c 1.359 -2.828 4.234 -5.469 7.715 -7.082 c 3.715 -1.723 7.102 -2.117 10.531 -1.227 c 8.461 2.195 14.12 13.684 11.08 22.496 c -1.488 4.309 -4.961 7.227 -9.898 8.309 c -2.129 0.172 -4.395 0.543 -6.457 0.18" fill="#fdc006"/><path d="m 9.203 22.02 c -0.078 -0.207 -0.086 -0.477 -0.086 -4.988 c 0 -4.422 0.008 -4.785 0.082 -4.941 c 0.613 -0.793 5.773 -0.367 6.832 -0.363 h 6.508 l 0.141 0.16 c 0.086 0.098 0.297 3.422 0.328 3.574 c 0.039 0.18 0.453 -1.688 0.539 1.707 c 0.078 3.094 -0.656 1.566 -0.73 1.723 c -0.043 0.094 -0.137 3.383 -0.203 3.438 l -0.125 0.098 h -6.48 c -1.035 -0.199 -6.172 1.16 -6.805 -0.406" fill="#04a9f3"/><g fill="#ffa400"><path d="m 7.758 24.395 c -0.895 -0.988 -2.344 -3.18 -2.195 -3.32 c 0.047 -0.043 3.01 -1.539 3.047 -1.539 c 0.016 0 0.043 0.645 0.055 1.434 c 0.027 1.547 0.016 1.508 0.52 2.234 c -0.211 0.609 -0.582 0.898 -1.199 1.398 c -0.023 0 -0.125 -0.094 -0.227 -0.207"/><path d="m 11.301 26.371 c -0.039 -0.102 1.355 -3.121 1.496 -3.25 c 0.105 -0.094 2.07 -0.16 2.922 -0.098 l 0.688 0.051 v 2.102 c 0 1.156 -0.02 2.219 -0.043 2.359 c -0.039 0.258 -0.039 0.258 -0.348 0.258 c -0.934 -0.129 -4.313 -0.809 -4.715 -1.418"/><path d="m 20.871 25.22 c -0.473 -1.023 -0.859 -1.898 -0.859 -1.949 c 0 -0.137 0.387 -0.195 1.336 -0.195 c 1.027 0 1.363 -0.086 1.805 -0.469 l 0.336 -0.293 l 0.871 0.941 c 0.48 0.516 0.875 0.992 0.875 1.063 c 0 0.129 -0.934 1.01 -1.652 1.555 c -0.48 0.367 -1.734 1.203 -1.801 1.203 c -0.027 0 -0.438 -0.836 -0.91 -1.855"/><path d="m 25.277 20.01 c -0.879 -0.441 -1.605 -0.813 -1.621 -0.828 c -0.012 -0.012 0.066 -0.156 0.176 -0.313 c 0.293 -0.426 0.348 -0.836 0.293 -2.168 l -0.043 -1.141 h 0.855 c 0.469 0 1.395 0.02 2.055 0.043 l 1.199 0.043 c -0.105 1.473 -0.422 3.078 -0.961 4.43 c -0.141 0.352 -0.281 0.66 -0.309 0.688 c -0.664 -0.266 -1.121 -0.492 -1.645 -0.754"/><path d="m 23.2 11.988 c 0 -0.031 -0.105 -0.164 -0.234 -0.297 c -0.27 -0.277 -0.668 -0.48 -0.957 -0.48 c -0.242 -0.004 -0.301 -0.07 -0.41 -0.473 l -0.082 -0.309 l 1.594 -1.598 c 0.879 -0.875 1.625 -1.586 1.66 -1.574 c 0.117 0.039 1 1.156 1.414 1.789 c 0.504 0.77 0.695 1.137 0.625 1.207 c -0.086 0.082 -3.453 1.789 -3.535 1.789 c -0.039 0 -0.074 -0.027 -0.074 -0.055"/><path d="m 18.66 8.973 c -0.477 -0.867 -1.191 -1.145 -2.086 -0.801 c -0.094 0.035 -0.105 -0.16 -0.105 -2.242 v -2.277 c 0.254 -0.012 0.637 -0.008 0.801 0.063 c 0.844 0.184 1.938 0.316 2.824 0.605 c 0.734 0.246 1.5 0.578 1.5 0.652 c 0 0.027 -0.453 0.984 -1.01 2.125 c -1.055 2.168 -1.031 2.133 -1.5 2.223 c -0.328 -0.063 -0.309 -0.133 -0.426 -0.348"/><path d="m 10.758 9.785 c -0.453 -0.625 -2.469 -2.086 -2.477 -2.719 c 0.168 -0.203 1.191 -1.031 1.656 -1.344 c 0.555 -0.375 1.215 -0.754 1.246 -0.719 c 0.148 0.16 2.289 4.66 2.246 4.727 c -0.027 0.043 -1.715 0.902 -1.773 0.902 c -0.016 0 -0.422 -0.383 -0.898 -0.848"/><path d="m 4.363 15.12 c 0.289 -1.441 0.523 -3.01 1.164 -4.371 l 0.211 -0.434 l 0.469 0.195 c 0.258 0.109 0.977 0.445 1.594 0.746 c 1.016 0.492 1.121 0.559 1.082 0.684 c -0.148 0.445 -0.172 0.727 -0.172 2.074 l -0.004 1.488 h -4.367 c 0.008 -0.129 0.016 -0.258 0.023 -0.383"/><path d="m 15.719 11.297 c -0.539 -0.012 -0.996 -0.035 -1.01 -0.051 c -0.039 -0.035 0.094 -0.078 1.219 -0.395 c 2.746 -0.77 3.906 -1.066 4.164 -1.066 c 0.211 0 0.484 0.191 0.609 0.426 c 0.102 0.188 0.285 0.809 0.285 0.957 c 0 0.059 -0.027 0.086 -0.102 0.102 c -0.172 0.031 -4.105 0.055 -5.168 0.027"/></g><g fill="#fff"><path d="m 9.559 22.75 c -0.125 -0.059 -0.305 -0.195 -0.398 -0.305 c -0.348 -0.398 -0.32 0.039 -0.32 -5.313 c 0 -4.422 0.008 -4.813 0.078 -4.969 c 0.121 -0.266 0.293 -0.469 0.543 -0.629 l 0.23 -0.148 l 0.801 -0.016 l 0.797 -0.016 l 0.09 -0.223 l 0.094 -0.219 l 2.473 -1.23 c 1.359 -0.68 2.621 -1.293 2.809 -1.363 c 0.398 -0.152 0.66 -0.16 0.969 -0.023 c 0.289 0.129 0.484 0.32 0.684 0.68 c 0.086 0.16 0.199 0.352 0.25 0.422 c 0.102 0.148 0.125 0.148 0.902 -0.016 c 0.434 -0.09 0.52 -0.098 0.734 -0.047 c 0.262 0.059 0.539 0.242 0.742 0.496 c 0.082 0.105 0.188 0.367 0.313 0.789 c 0.102 0.348 0.203 0.648 0.223 0.668 c 0.02 0.02 0.168 0.055 0.328 0.074 c 0.516 0.063 0.875 0.316 1.125 0.777 c 0.098 0.184 0.102 0.246 0.125 1.508 l 0.023 1.313 l 0.133 0.105 c 0.238 0.18 0.414 0.387 0.527 0.609 c 0.102 0.215 0.105 0.246 0.105 1.434 c -0.004 1.098 -0.012 1.234 -0.086 1.375 c -0.129 0.242 -0.371 0.523 -0.539 0.629 l -0.152 0.094 l -0.039 2.688 l -0.125 0.254 c -0.125 0.258 -0.363 0.492 -0.645 0.633 c -0.133 0.066 -0.711 0.074 -6.355 0.074 h -6.211 m 12.273 -0.492 c 0.207 -0.039 0.422 -0.211 0.531 -0.418 c 0.051 -0.098 0.063 -0.379 0.063 -1.336 v -1.219 l -0.234 -0.023 c -0.133 -0.012 -1.266 -0.031 -2.52 -0.043 c -2.277 -0.016 -2.281 -0.016 -2.496 -0.121 c -0.277 -0.133 -0.527 -0.383 -0.672 -0.672 c -0.113 -0.223 -0.117 -0.234 -0.117 -1.367 c 0 -1.316 0.031 -1.473 0.32 -1.805 c 0.098 -0.113 0.285 -0.266 0.414 -0.34 l 0.234 -0.133 l 5.07 -0.063 v -1.203 c 0 -1.363 -0.008 -1.402 -0.355 -1.648 l -0.191 -0.137 h -6.02 c -3.313 0 -6.102 0.016 -6.191 0.035 c -0.199 0.043 -0.414 0.211 -0.523 0.41 c -0.07 0.133 -0.074 0.488 -0.074 4.828 c 0 4.652 0 4.688 0.09 4.863 c 0.117 0.223 0.277 0.344 0.504 0.387 c 0.238 0.047 11.934 0.051 12.172 0.004 m 1.035 -3.668 c 0.078 -0.043 0.199 -0.164 0.27 -0.266 l 0.125 -0.188 v -1.086 c 0 -1.301 -0.031 -1.434 -0.379 -1.637 l -0.211 -0.121 l -2.379 -0.016 c -2.574 -0.016 -2.871 0.004 -3.117 0.191 c -0.246 0.188 -0.27 0.324 -0.27 1.559 c 0 1.176 0.012 1.25 0.238 1.457 c 0.23 0.207 0.285 0.211 3.01 0.199 c 2.363 -0.012 2.578 -0.02 2.715 -0.094 m -2.125 -7.406 c 0.09 -0.035 0.078 -0.125 -0.07 -0.648 c -0.148 -0.512 -0.277 -0.691 -0.594 -0.832 c -0.238 -0.109 -0.301 -0.098 -2.836 0.594 c -2.512 0.684 -2.844 0.785 -2.824 0.844 c 0.012 0.035 0.457 0.059 1.363 0.078 c 1.441 0.027 4.859 0.004 4.961 -0.035 m -8.27 -0.035 c 0.52 -0.094 4.383 -1.141 5.258 -1.43 c 0.281 -0.09 0.289 -0.094 0.262 -0.227 c -0.031 -0.148 -0.242 -0.531 -0.387 -0.703 c -0.121 -0.145 -0.367 -0.234 -0.633 -0.234 c -0.203 0 -0.387 0.082 -1.813 0.793 c -1.992 0.992 -3.414 1.734 -3.414 1.781 c 0 0.094 0.266 0.098 0.727 0.02"/><path d="m 18.254 17.313 c -0.078 -0.348 0.031 -0.77 0.234 -0.918 c 0.094 -0.063 0.309 -0.109 0.531 -0.109 c 0.543 0 0.727 0.199 0.727 0.777 c 0 0.23 -0.043 0.477 -0.09 0.547 c -0.082 0.113 -0.547 0.27 -0.727 0.246 c -0.395 -0.02 -0.609 -0.262 -0.676 -0.543"/></g><path d="m 12.05 11.266 c -0.051 -0.02 -0.035 -0.039 0.109 -0.129 c 0.227 -0.137 2.707 -1.406 3.762 -1.926 c 0.973 -0.477 1.18 -0.555 1.402 -0.523 c 0.363 0.047 0.535 0.191 0.758 0.637 c 0.184 0.363 0.18 0.383 -0.121 0.48 c -0.566 0.184 -1.863 0.547 -3.336 0.941 c -1.844 0.492 -2.371 0.602 -2.574 0.52" fill="#f44336"/></svg>