<svg xmlns="http://www.w3.org/2000/svg" viewBox="0 0 32 32"><path d="m 28.703 24.48 c 11.508 -16.367 -9.742 -32.949 -23.297 -19.613 c -12.773 12.563 -0.934 32.09 14.961 25.98 c 3.316 -1.273 6.223 -3.363 8.336 -6.367" fill="#ffa400"/><g fill="#fbc996"><path d="m 26.301 16.16 c 0 1.602 -1.258 2.898 -2.809 2.898 c -1.551 0 -2.809 -1.297 -2.809 -2.898 c 0 -1.598 1.258 -2.895 2.809 -2.895 c 1.551 0 2.809 1.297 2.809 2.895"/><path d="m 10.836 16.16 c 0 1.602 -1.258 2.898 -2.809 2.898 c -1.551 0 -2.805 -1.297 -2.805 -2.898 c 0 -1.598 1.254 -2.895 2.805 -2.895 c 1.551 0 2.809 1.297 2.809 2.895"/></g><g fill="#d74e51"><path d="m 9.633 16.16 c 0 0.914 -0.719 1.656 -1.605 1.656 c -0.883 0 -1.602 -0.742 -1.602 -1.656 c 0 -0.914 0.719 -1.656 1.602 -1.656 c 0.887 0 1.605 0.742 1.605 1.656"/><path d="m 25.1 16.16 c 0 0.914 -0.719 1.656 -1.605 1.656 c -0.883 0 -1.602 -0.742 -1.602 -1.656 c 0 -0.914 0.719 -1.656 1.602 -1.656 c 0.887 0 1.605 0.742 1.605 1.656"/></g><path d="m 23.871 16.16 c 0 4.629 -3.637 8.383 -8.121 8.383 c -4.484 0 -8.121 -3.754 -8.121 -8.383 c 0 -4.629 3.637 -8.379 8.121 -8.379 c 4.484 0 8.121 3.75 8.121 8.379" fill="#762e33"/><path d="m 22.441 15.02 c 0 -1.887 -1.48 -3.414 -3.309 -3.414 c -1.484 0 -2.738 1.01 -3.16 2.395 c -0.418 -1.387 -1.672 -2.395 -3.156 -2.395 c -1.828 0 -3.309 1.527 -3.309 3.414 c 0 1.609 1.082 2.957 2.539 3.316 c -0.496 0.77 -0.785 1.691 -0.785 2.684 c 0 2.688 2.109 4.863 4.715 4.863 c 2.602 0 4.711 -2.176 4.711 -4.863 c 0 -0.992 -0.289 -1.914 -0.785 -2.684 c 1.457 -0.359 2.539 -1.707 2.539 -3.316" fill="#fbc996"/><path d="m 12.08 8.688 c 0 0 2.867 -1.734 6.977 -3.184 l -2.176 2.359 l 3.078 -0.766 l -0.535 1.59 h 1.262 v 1.266" fill="#762e33"/><path d="m 16.352 22.473 c 0 0.379 -0.203 0.688 -0.453 0.688 c -0.25 0 -0.453 -0.309 -0.453 -0.688 c 0 -0.379 0.203 -0.688 0.453 -0.688 c 0.25 0 0.453 0.309 0.453 0.688" fill="#d74e51"/><path d="m 15.14 15.02 c 0 1.32 -1.035 2.391 -2.316 2.391 c -1.277 0 -2.313 -1.07 -2.313 -2.391 c 0 -1.32 1.035 -2.391 2.313 -2.391 c 1.281 0 2.316 1.07 2.316 2.391" fill="#f28f69"/><path d="m 14.18 15.02 c 0 0.773 -0.605 1.402 -1.359 1.402 c -0.75 0 -1.359 -0.629 -1.359 -1.402 c 0 -0.777 0.609 -1.402 1.359 -1.402 c 0.754 0 1.359 0.625 1.359 1.402" fill="#3d1c14"/><path d="m 13.863 15.02 c 0 0.594 -0.465 1.074 -1.043 1.074 c -0.574 0 -1.039 -0.48 -1.039 -1.074 c 0 -0.594 0.465 -1.078 1.039 -1.078 c 0.578 0 1.043 0.484 1.043 1.078" fill="#762e33"/><path d="m 13.707 14.645 c 0 0.469 -0.367 0.852 -0.82 0.852 c -0.457 0 -0.824 -0.383 -0.824 -0.852 c 0 -0.469 0.367 -0.848 0.824 -0.848 c 0.453 0 0.82 0.379 0.82 0.848" fill="#3d1c14"/><path d="m 13.863 14.602 c 0 0.289 -0.227 0.523 -0.508 0.523 c -0.281 0 -0.508 -0.234 -0.508 -0.523 c 0 -0.289 0.227 -0.527 0.508 -0.527 c 0.281 0 0.508 0.238 0.508 0.527" fill="#f9f5ea"/><path d="m 21.594 15.02 c 0 1.32 -1.039 2.391 -2.316 2.391 c -1.277 0 -2.316 -1.07 -2.316 -2.391 c 0 -1.32 1.039 -2.391 2.316 -2.391 c 1.277 0 2.316 1.07 2.316 2.391" fill="#f28f69"/><path d="m 20.637 15.02 c 0 0.773 -0.609 1.402 -1.359 1.402 c -0.75 0 -1.359 -0.629 -1.359 -1.402 c 0 -0.777 0.609 -1.402 1.359 -1.402 c 0.75 0 1.359 0.625 1.359 1.402" fill="#3d1c14"/><path d="m 20.32 15.02 c 0 0.594 -0.469 1.074 -1.043 1.074 c -0.574 0 -1.043 -0.48 -1.043 -1.074 c 0 -0.594 0.469 -1.078 1.043 -1.078 c 0.574 0 1.043 0.484 1.043 1.078" fill="#762e33"/><path d="m 20.16 14.645 c 0 0.469 -0.367 0.852 -0.824 0.852 c -0.453 0 -0.82 -0.383 -0.82 -0.852 c 0 -0.469 0.367 -0.848 0.82 -0.848 c 0.457 0 0.824 0.379 0.824 0.848" fill="#3d1c14"/><path d="m 20.32 14.602 c 0 0.289 -0.227 0.523 -0.508 0.523 c -0.281 0 -0.512 -0.234 -0.512 -0.523 c 0 -0.289 0.23 -0.527 0.512 -0.527 c 0.281 0 0.508 0.238 0.508 0.527" fill="#f9f5ea"/><path d="m 16.695 18.73 c 0 0.121 -0.375 0.215 -0.84 0.215 c -0.461 0 -0.84 -0.094 -0.84 -0.215 c 0 -0.117 0.379 -0.215 0.84 -0.215 c 0.465 0 0.84 0.098 0.84 0.215" fill="#f28f69"/></svg>