<svg xmlns="http://www.w3.org/2000/svg" viewBox="0 0 32 32"><path d="m 24.23 2.332 c 28.16 24.18 -29.75 47.43 -23.797 10.04 c 1.305 -8.199 16.207 -16.547 23.797 -10.04" fill="#769c1a"/><g transform="scale(0.125)"><path d="m 41.38 208.25 c 2.875 -7.313 28.406 -43.656 45.969 -65.37 c 16.344 -20.25 25.875 -30.594 53.44 -57.906 c 13.25 -13.156 23.594 -23.906 22.969 -23.906 c -2.813 0.063 -14.12 6.938 -21.813 13.25 c -12.438 10.188 -42.25 40.844 -58.16 59.781 c -7.656 9.156 -14.406 16.344 -14.969 16 c -1.438 -0.875 -0.031 -11.03 2.063 -15.03 c 0.969 -1.844 5.625 -6.375 10.344 -10.03 c 18.406 -14.344 21.594 -18.625 31.625 -42.03 c 7.06 -16.563 12.875 -22.438 27.25 -27.5 c 8.531 -3.03 12.03 -3.656 20.25 -3.656 c 9.25 0 9.906 0.156 9.906 2.375 v 2.406 l 3.969 -2.406 c 8.813 -5.344 22.469 -1.406 27.406 7.875 c 2.25 4.219 2.688 6.875 2.688 15.75 c 0 7.719 -0.469 11.156 -1.656 12.344 c -0.938 0.906 -9 3.625 -17.906 6.03 c -18.781 5.094 -18.09 4.625 -36.28 25.344 c -17.563 19.969 -26.375 26.844 -46.12 36.03 c -12.563 5.844 -19.531 7.594 -22.969 5.781 c -2.844 -1.5 -3.063 -1.219 -18.375 22.281 c -7.094 10.938 -13.438 19.281 -16.03 21.25 c -2.906 2.156 -4.094 2.625 -3.594 1.344" fill="#fff" stroke="#fff" stroke-width="0.575"/><path d="m 51.53 208.25 c 0 -0.656 0.5 -1.469 1.094 -1.844 c 0.625 -0.375 3.531 -4.906 6.469 -10.09 c 3.188 -5.531 5.75 -8.813 6.281 -7.969 c 1.094 1.781 1.063 1.781 19 -11.719 c 8.094 -6.094 18.563 -10.844 23.844 -13.688 c 13.969 -7.438 23.781 -12.09 33.438 -24.875 c 15.719 -14.5 6.469 -7.469 30.375 -25.781 l 12.531 6.375 c 6.719 9.125 3.063 8.625 7.094 14.03 c 2.188 2.906 -11.469 10.625 -13.625 11.406 c -1.25 0.469 -9.625 6.094 -18.656 12.5 c -24.438 17.375 -35.938 22.09 -63.47 25.938 c -7.469 1.063 -14.781 2.719 -16.25 3.656 c -1.469 0.969 -7.906 6.594 -14.313 12.5 c -11.188 10.313 -13.813 12.13 -13.813 9.563" fill="#5d7822" stroke="#5d7822" stroke-width="0.617"/></g></svg>