<svg xmlns="http://www.w3.org/2000/svg" viewBox="0 0 32 32"><path d="m 7.52 28.703 c 16.367 11.508 32.953 -9.742 19.617 -23.297 c -12.566 -12.77 -32.09 -0.93 -25.984 14.961 c 1.273 3.316 3.363 6.227 6.367 8.336" fill="#b0dfe5"/><path d="m 21.25 8.789 l -2.254 2.094 v 1.16 l 0.262 0.145 l 0.246 -0.922 l 1.746 -1.555 m 3.551 0.758 l -2.395 2.098 v 1.047 l 0.875 0.379 l -2.398 2.352 v 3.398 l 2.781 -3.129 l -0.262 -1.426 l 1.781 -1.844 m -5.559 -1.031 l -2.52 2.223 v 2.602 l 0.77 -2.223 l 1.75 -1.57" fill="#333"/><path d="m 18.996 10.883 l -2.762 -1.301 l 2.516 -2.01 l 2.5 1.219 m 1.156 3.777 l -2.902 -1.301 l 2.375 -2.082 l 2.922 1.285 m -3.918 5.875 l -3.01 -1.43 l 2.52 -2.223 l 2.887 1.301 m -6.176 0.543 l -2.762 -1.301 l 2.379 -2.223 l 2.902 1.301" fill="#999"/><path d="m 19.258 12.188 l 0.246 -0.922 l 2.902 1.301 v 1.047 l -2.01 -0.922 l -0.77 0.652 v -1.031 m -4.406 0 l 1.016 -2.73 l 2.762 1.301 v 1.16 l -2.273 -1.031 m -3.355 4.68 l 0.977 -2.457 l 2.762 1.301 v 2.602 l 0.77 -2.223 l 3.01 1.43 v 3.398" fill="#ccc"/><g transform="matrix(0.17485 0 0 0.18075 7.823 7.36)"><g fill="none"><path d="m 76.19 36.09 c -1.497 -2.183 -4.289 -2.183 -5.094 -0.8 c -0.693 1.405 3.597 2.918 1.497 5.01 c -0.693 0.8 -4.289 0 -5.094 -2.096 m 13.695 -25.2 l -2.904 4.992 l 4.401 -0.8 v 3.696 l 5.719 -3.696 m -25.2 -7.802 l 0.693 2.896 m 2.189 -5.813 c -1.385 -1.426 -4.401 -1.426 -6.501 0.713 c -1.497 1.513 0 3.609 2.904 3.609 c 2.212 0 5 -2.096 3.597 -4.322 m -16.599 20.92 l 4.401 2.096 m -7.998 -0.692 l 8.601 -2.896 l -2.1 6.591" stroke="#111" stroke-width="1.5"/><path d="m 42.3 27.402 l 5.809 -15.11 l 14.387 -11.13 l 14.298 6.743 v 5.1 m -24.396 43.893 l 5.094 -15.11 l 14.41 -12.297 l 16.51 7.197 l 2.189 14.501 l -15.906 17.311 l -42.983 -22.411 l 5.585 -13.594 l 13.605 -12.297 l 16.599 7.197 v 5.705 m -2.1 -6.397 l 1.407 -5.1 l 13.583 -11.519 l 16.711 7.11 l 2.189 15.906 l -10.187 10.201" stroke="#212121"/></g><g fill="#444" stroke="#333"><path d="m 19.893 46.4 c -18.967 -11.195 0.804 -24.1 -3.686 -32.892 c -5.607 -7 -11.773 -4.906 -16.219 -6.375 l -0.335 -2.982 c 10.187 0.54 16.443 2.55 19.548 8.558 c 6.3 8.104 -15.281 21.892 4.111 31.985 c 0 0.605 -3.418 1.707 -3.418 1.707"/><path d="m 44.892 46.4 c 10.299 5.1 17.11 15.409 20.509 25.609 c 1.206 5.684 2.301 17.09 -7.998 21.59 c -9.09 4.603 -18.207 5.705 -29.512 -2.204 c -9.09 -7.996 -18.632 -19.385 -22.05 -23.902 c -2.279 -3.501 -3.284 -5.684 -2.837 -10.287 c 0 -3.415 1.81 -4.495 8.4 -7.413 c 15.303 -6.894 19.905 -5.792 25.602 -5.792 c 4.49 0 7.886 2.399 7.886 2.399" stroke-width="1.5"/></g><g stroke="#ccc"><path d="m 55.19 53.789 c 1.117 3.415 -13.695 8.02 -13.695 8.02 c 0 0 -7.998 -12.02 -18.19 -16.511 c 0 0 7.998 -1.297 12.488 -1.297 c 3.396 0 6.903 0.692 12.511 4.711 c 3.485 2.788 6.881 5.079 6.881 5.079 m -48.32 -2.291 c 7.328 2.291 13.02 10.309 15.326 12.491 c 2.212 2.312 3.396 2.312 6.814 2.312 c 5.697 -1.102 12.488 -4.495 12.488 -4.495 c 0 0 -9.09 -12.02 -19.302 -16.511 c -3.396 1.102 -10.79 4.495 -15.326 6.202" fill="#626262"/><path d="m 26.707 47.5 c -2.301 2.291 5.697 8.601 7.998 6.289 c 2.301 -2.291 -4.602 -7.391 -7.998 -6.289" fill="#333" stroke-width="1.5"/></g><path d="m 44.892 46.4 c 10.299 5.1 17.11 15.409 20.509 25.609 c 1.206 5.684 2.301 17.09 -7.998 21.59 c -9.09 4.603 -18.207 5.705 -29.512 -2.204 c -9.09 -7.996 -18.632 -19.385 -22.05 -23.902 c -2.279 -3.501 -3.284 -5.684 -2.837 -10.287 c 0 -3.415 1.81 -4.495 8.4 -7.413 c 15.303 -6.894 19.905 -5.792 25.602 -5.792 c 4.49 0 7.886 2.399 7.886 2.399" fill="none" stroke="#212121" stroke-width="1.5"/></g><path d="m 12.297 19.957 c 1.383 2.895 4.582 4.32 6.77 1.031 c -1.801 3.902 -5.98 2.676 -6.77 -1.031" fill="#ccc"/></svg>