<svg xmlns="http://www.w3.org/2000/svg" viewBox="0 0 32 32"><path d="m 1.508 21.949 c -12.02 -38.902 52.57 -19.445 22.363 7.207 c -6.05 5.34 -19.12 3.281 -22.363 -7.207" fill="#3e4f80"/><path d="m 13.148 23.355 c -1.422 -0.348 -2.832 -1.145 -3.898 -2.211 c -1.293 -1.293 -1.789 -2.219 -2.32 -4.332 c -0.77 -4.879 1.816 -7.125 3.992 -8.484 c 0.922 -0.516 1.723 -0.785 3.078 -1.035 c 2.359 -0.434 5.48 0.793 7.25 2.848 c 0.727 0.844 1.559 2.527 1.797 3.641 c 0.371 1.723 0.109 3.613 -0.75 5.387 c -0.602 1.246 -2.102 2.824 -3.281 3.449 c -1.684 0.895 -4.02 1.188 -5.867 0.734 m -0.777 -3.957 c 1.605 -0.652 2.547 -1.098 5.03 -2.379 c 2.813 -1.445 3.125 -1.641 2.941 -1.824 c -0.305 -0.297 -5.04 -2.809 -7.188 -3.813 c -2.02 -0.941 -1.852 -1.297 -1.797 3.801 c 0.035 3.828 0.066 4.531 0.199 4.531 c 0.02 0 0.383 -0.141 0.813 -0.316" fill="#8fb2e3"/></svg>