<svg xmlns="http://www.w3.org/2000/svg" viewBox="0 0 32 32"><path d="m 5.605 27.359 c -25.23 -33.3 44.2 -38.03 21.918 -4.04 c -5.078 7.75 -15.238 12.855 -21.918 4.04" fill="#2f4d4d"/><g fill="#bcc7c7" fill-rule="evenodd" stroke="#bcc7c7" stroke-width="5.95"><g transform="matrix(0.125 0 0 0.125 0.133 1.353)"><path d="m 206.12 135.52 c -0.656 -2.531 -1.625 -6.094 -2.156 -7.875 c -0.5 -1.781 -1.563 -6.313 -2.313 -10.06 c -1.625 -9.469 -6.563 -20.531 -7.125 -27.781 l -0.656 -8.344 h 2.813 c 2.625 0 2.813 0.406 3.531 7.06 c 0.5 9.03 5.5 18.16 6.531 26.13 c 0.5 4 1.25 5.938 2.25 5.938 c 2.344 -1.594 1.094 -4.5 2.375 -6.5 c 2.281 -8.5 5.03 -17.719 6.781 -26.375 c 1.063 -5.563 1.5 -6.25 3.844 -6.25 c 1.656 0 2.625 0.625 2.625 1.719 c 0 2.438 -2.344 11.688 -3.281 12.969 c -1.469 6.594 -4.125 13.875 -5.281 20.09 c -1 6.03 -3.406 12.281 -4.5 17.688 c -1.469 7.563 -3.719 8.25 -5.438 1.625"/><path d="m 34.874 130.65 c 1.438 -9.25 3.406 -18.688 3.969 -26.406 c 0.625 -8.625 1.5 -15.938 2 -16.25 c 3.531 -5.969 3.281 -5.094 3.906 0.781 c 0.688 9.344 5.375 18.625 6.188 26.656 c -0.938 7.594 3.938 9.344 4.125 1.625 c 0 -1.656 0.5 -3 1.094 -3 c 0.594 0 1.094 -1.219 1.094 -2.688 c 2.625 -10.719 4.313 -16.531 4.344 -22.313 c 0 -6.125 2.844 -5.938 3.594 0.281 c 2.125 17.469 4.5 32.969 5.156 33.406 c 0.406 0.313 0.969 4.344 1.281 8.969 c 0.5 8.313 0.469 8.438 -2.094 8.438 c -2.031 0 -2.531 -0.531 -2.313 -2.438 c 0.469 -4.125 -1.438 -20.375 -2.469 -21 c -1.5 -2.094 -0.156 -9.09 -2.625 -9.188 c -3.03 2.688 -1.219 7.219 -3.188 11.156 c -0.875 1.656 -2.063 6.406 -2.625 10.531 c -0.563 4.125 -1.5 8.344 -2.094 9.375 c -0.875 1.594 -1.219 1.344 -2.219 -1.813 c -0.625 -2.031 -1.469 -6.03 -1.875 -8.875 c -0.563 -1.531 -5.313 -20.16 -6 -20.375 c -1.906 5.094 -3.281 10.344 -3.688 15.219 c -1.156 15.219 -1.688 17.406 -4.125 17.406 c -3.313 -4.219 -1.813 -4.469 -1.406 -9.5"/><path d="m 77.905 152.12 c 0 -1.594 0.719 -2.188 2.719 -2.188 c 5.594 -0.938 5.156 -10.813 4.281 -14.219 c -0.906 -3.25 -2.219 -8.938 -2.906 -12.688 c -2.906 -5.438 -2.125 -10.156 -5.281 -17.656 c -0.563 0 -1 -1.219 -1 -2.719 c 0 -1.906 0.594 -2.719 2.031 -2.719 c 1.438 0 2.688 1.719 4.344 6.094 c 1.281 3.344 2.313 7.25 2.313 8.688 c 1.969 3.5 2.969 15.688 5.063 12.938 c 0.813 -1.125 1.469 -3.125 1.469 -4.5 c 0.781 -3.313 2.25 -6.344 2.656 -9.344 c 1.906 -14.625 1.625 -13.875 5.188 -13.875 c 2.656 0 3.125 0.344 2.5 1.906 c -1.938 4.719 -1.219 10.219 -3.875 14.406 c -3.406 8.625 -4.219 22.563 -7.594 29.344 c -1.875 1.906 -1.5 5.313 -3.844 6.531 c -1.906 0.875 -2.688 2.156 -4.813 2.156 c -2.531 0 -3.25 -0.469 -3.25 -2.156"/></g><g transform="matrix(0.125 0 0 0.125 0.133 -98.19)"><path d="m 112.56 931.07 c -0.531 0 -0.969 -6.594 -0.969 -14.688 c 0 -12.313 -0.25 -14.656 -1.625 -14.656 c -2.094 0 -2.094 -4.219 0.031 -7 c 0.875 -1.156 1.594 -3.219 1.594 -4.531 c 1.719 -8.594 3.531 -5.313 4.344 -5.875 c 0.594 0 1.094 2.688 1.094 6 v 5.969 h 3.813 c 3.313 0 3.781 0.344 3.781 2.719 c 0 2.375 -0.469 2.719 -3.781 2.719 h -3.813 v 13.03 c 0 7.969 0.406 13.03 1.094 13.03 c 8.406 8.938 7.875 1.563 7.594 8.719 c -9.75 0.813 -9.344 -1.844 -13.156 -5.438"/><path d="m 134.4 908.26 v -29.344 h 2.719 c 2.719 0 2.719 0.031 2.813 10.594 c 0.063 5.813 0.344 9.969 0.625 9.219 c 0.375 -0.875 2.938 -1.344 7.438 -1.344 c 6.719 0 6.875 0.063 8.06 3.406 c 0.656 1.938 1.188 10.813 1.188 20.13 c 0 14.09 -0.25 16.688 -1.625 16.688 c -1.375 0 -1.625 -2.344 -1.625 -14.688 c 0 -8.06 -0.438 -14.656 -0.969 -14.656 c -2.781 -3.594 -3.281 -5.438 -7.094 -5.438 c -3.344 0 -4.969 0.5 -5.438 1.719 c -0.344 0.938 -0.656 8.781 -0.656 17.375 v 15.688 c -1.813 0 -3.625 0 -5.438 0"/></g><path d="m 171.37 115.15 v -25 h -11.969 v -8.688 h 31.531 v 8.688 h -14.12 v 50 h -5.438" transform="matrix(0.125 0 0 0.125 0.133 1.353)"/></g></svg>