<svg xmlns="http://www.w3.org/2000/svg" viewBox="0 0 32 32"><path d="m 6.703 28.891 c 23.949 15.926 38.699 -34.863 7.738 -28.14 c -12.793 2.863 -20.559 20.832 -7.738 28.14" fill="#5f9d9f"/><path d="m 9.598 9.715 h 6.508 l 0.863 1.262 h 5.992 c 0.805 0 1.449 0.648 1.449 1.457 v 6.375 c 0 0.805 -0.645 1.453 -1.449 1.453 h -13.363 c -0.805 0 -1.453 -0.648 -1.453 -1.453 v -7.641 c 0 -0.805 0.648 -1.453 1.453 -1.453" fill="#b0dfe5"/><path d="m 9.598 11.918 h 13.363 c 0.801 0 1.449 0.652 1.449 1.453 v 7.168 c 0 0.801 -0.648 1.453 -1.449 1.453 h -13.363 c -0.801 0 -1.453 -0.652 -1.453 -1.453 v -7.168 c 0 -0.801 0.652 -1.453 1.453 -1.453" fill="#fff"/><g fill="#b2b2b2" fill-rule="evenodd"><path d="m 370.44 503.41 l 18.69 -0.005 l 0.002 35.699 l -18.697 -0.002" transform="matrix(0.30109 0.25945 -0.25825 0.30002 39.449 -233.9)" stroke="#fff" stroke-width="0.121"/><path d="m 22.273 17.11 l 2.375 2.078 l -6.344 7.336 l -2.375 -2.078"/></g><g fill="#fff"><path d="m 14.695 26.22 c -1.477 -1.289 -2.672 -2.375 -2.652 -2.414 c 0.066 -0.133 2.199 -2.648 2.25 -2.652 c 0.129 -0.012 5.324 4.703 5.309 4.82 c -0.012 0.137 -2.063 2.598 -2.164 2.598 c -0.027 0 -1.262 -1.059 -2.742 -2.352"/><path d="m 17.559 23.699 c -0.363 -0.328 -0.855 -0.77 -1.098 -0.988 l -0.441 -0.395 l 3.051 -3.59 c 1.68 -1.973 3.082 -3.602 3.117 -3.617 c 0.07 -0.027 2.23 1.855 2.23 1.945 c 0 0.066 -6.06 7.191 -6.141 7.219 c -0.035 0.012 -0.359 -0.246 -0.723 -0.574"/></g><path d="m 19.05 25.13 c -0.582 -0.516 -0.77 -0.734 -0.668 -0.793 c 0.109 -0.066 2.188 -2.484 6.094 -7.098 c 0.188 -0.219 0.18 -0.227 -1.027 -1.301 c -0.668 -0.594 -1.227 -1.063 -1.242 -1.043 c -0.012 0.02 -1.332 1.578 -2.93 3.461 c -1.598 1.883 -3 3.559 -3.125 3.719 l -0.215 0.297 l -0.711 -0.645 c -0.449 -0.402 -0.688 -0.691 -0.641 -0.77 c 0.063 -0.105 5.859 -6.934 6.348 -7.477 c 0.156 -0.172 0.313 -0.055 2.852 2.203 c 1.477 1.309 2.672 2.422 2.656 2.473 c -0.031 0.098 -6.254 7.402 -6.453 7.574 c -0.094 0.086 -0.332 -0.066 -0.938 -0.602" fill="#d2d2d2"/></svg>