<svg xmlns="http://www.w3.org/2000/svg" viewBox="0 0 32 32"><path d="m 22.855 0.387 c -46.02 -3.18 -11.527 58.21 8.02 17.785 c 2.695 -6.227 0.727 -15.516 -8.02 -17.785" fill="#0089bf"/><g fill="#fff"><path d="m 10.254 13.367 c 0 0.352 -0.313 0.637 -0.699 0.637 c -0.383 0 -0.695 -0.285 -0.695 -0.637 c 0 -0.352 0.313 -0.633 0.695 -0.633 c 0.391 0 0.699 0.281 0.699 0.633"/><path d="m 10.371 15.11 c 0 0.352 -0.313 0.637 -0.695 0.637 c -0.387 0 -0.699 -0.285 -0.699 -0.637 c 0 -0.352 0.313 -0.633 0.699 -0.633 c 0.383 0 0.695 0.277 0.695 0.633"/><path d="m 10.801 16.965 c 0 0.352 -0.316 0.637 -0.699 0.637 c -0.387 0 -0.695 -0.285 -0.695 -0.637 c 0 -0.352 0.309 -0.633 0.695 -0.633 c 0.383 -0.004 0.699 0.277 0.699 0.633"/><path d="m 11.754 18.621 c 0 0.352 -0.313 0.637 -0.699 0.637 c -0.383 0 -0.695 -0.285 -0.695 -0.637 c 0 -0.348 0.313 -0.637 0.695 -0.637 c 0.387 -0.004 0.699 0.285 0.699 0.637"/><path d="m 19.223 20.941 c 0 0.352 -0.316 0.637 -0.699 0.637 c -0.383 0 -0.695 -0.285 -0.695 -0.637 c 0 -0.352 0.313 -0.637 0.695 -0.637 c 0.383 0 0.699 0.285 0.699 0.637"/><path d="m 20.488 19.57 c 0 0.352 -0.313 0.637 -0.695 0.637 c -0.387 0 -0.699 -0.285 -0.699 -0.637 c 0 -0.352 0.313 -0.637 0.699 -0.637 c 0.383 0 0.695 0.285 0.695 0.637"/><path d="m 16.813 9.895 c 0 0.352 -0.313 0.637 -0.699 0.637 c -0.383 0 -0.695 -0.285 -0.695 -0.637 c 0 -0.352 0.313 -0.637 0.695 -0.637 c 0.387 0 0.699 0.285 0.699 0.637"/><path d="m 14.98 9.309 c 0 0.352 -0.316 0.637 -0.699 0.637 c -0.387 0 -0.695 -0.285 -0.695 -0.637 c 0 -0.352 0.309 -0.637 0.695 -0.637 c 0.383 0 0.699 0.285 0.699 0.637"/></g><path d="m 19.922 9.84 c 2.57 0 4.652 1.898 4.652 4.242 c 0 2.344 -2.082 4.242 -4.652 4.242 c -2.566 0 -4.648 -1.898 -4.648 -4.242 c 0 -2.344 2.082 -4.242 4.648 -4.242" fill="#66b045"/><path d="m 19.922 18.438 c -2.633 0 -4.773 -1.953 -4.773 -4.355 c 0 -2.398 2.141 -4.355 4.773 -4.355 c 2.633 0 4.777 1.957 4.777 4.355 c 0 2.402 -2.145 4.355 -4.777 4.355 m 0 -8.48 c -2.492 0 -4.523 1.852 -4.523 4.125 c 0 2.277 2.031 4.129 4.523 4.129 c 2.496 0 4.523 -1.852 4.523 -4.129 c 0 -2.273 -2.027 -4.125 -4.523 -4.125" fill="#fff"/><path d="m 13.555 19.258 c 2.102 0 3.801 1.555 3.801 3.469 c 0 1.914 -1.699 3.469 -3.801 3.469 c -2.102 0 -3.801 -1.555 -3.801 -3.469 c 0 -1.918 1.699 -3.469 3.801 -3.469" fill="#66b045"/><path d="m 13.555 26.309 c -2.168 0 -3.93 -1.605 -3.93 -3.582 c 0 -1.977 1.762 -3.582 3.93 -3.582 c 2.168 0 3.926 1.605 3.926 3.582 c 0 1.977 -1.762 3.582 -3.926 3.582 m 0 -6.941 c -2.027 0 -3.68 1.508 -3.68 3.355 c 0 1.852 1.652 3.355 3.68 3.355 c 2.027 0 3.68 -1.504 3.68 -3.355 c 0 -1.848 -1.652 -3.355 -3.68 -3.355" fill="#fff"/><path d="m 10.422 7.504 c 1.398 0 2.535 1.035 2.535 2.313 c 0 1.277 -1.137 2.313 -2.535 2.313 c -1.402 0 -2.539 -1.035 -2.539 -2.313 c 0 -1.277 1.137 -2.313 2.539 -2.313" fill="#66b045"/><path d="m 10.422 12.242 c -1.469 0 -2.664 -1.086 -2.664 -2.426 c 0 -1.336 1.195 -2.426 2.664 -2.426 c 1.465 0 2.66 1.09 2.66 2.426 c 0 1.34 -1.195 2.426 -2.66 2.426 m 0 -4.625 c -1.332 0 -2.414 0.984 -2.414 2.199 c 0 1.215 1.086 2.203 2.414 2.203 c 1.328 0 2.41 -0.992 2.41 -2.203 c 0 -1.211 -1.082 -2.199 -2.41 -2.199" fill="#fff"/></svg>