<svg xmlns="http://www.w3.org/2000/svg" viewBox="0 0 32 32"><path d="m 11.762 0.48 c 33.992 -3.48 19.328 44.02 -5.223 28.12 c -10.02 -6.484 -7.777 -26.789 5.223 -28.12" fill="#d1b77d"/><g fill="#fff"><path d="m 17.258 5.504 c 0.137 0.031 0.555 0.121 0.926 0.195 c 2.977 0.602 5.871 3.102 7.04 6.07 c 2.152 5.484 -0.949 11.641 -6.66 13.234 c -5.188 1.445 -10.605 -1.617 -12.168 -6.883 c -0.289 -0.969 -0.34 -1.371 -0.34 -2.715 c 0 -1.344 0.051 -1.746 0.34 -2.715 c 1 -3.371 3.559 -5.93 6.891 -6.883 c 0.906 -0.258 3.355 -0.449 3.973 -0.305 m -4.04 1.5 c -2.375 0.801 -4.098 2.316 -5.172 4.551 c -0.715 1.484 -0.883 2.23 -0.879 3.914 c 0.004 2.477 0.789 4.336 2.582 6.141 c 0.914 0.918 1.27 1.18 2.277 1.668 c 1.547 0.746 2.914 1.031 4.473 0.926 c 4 -0.262 7.227 -3.035 8.09 -6.953 c 0.289 -1.309 0.203 -3.316 -0.195 -4.492 c -1.066 -3.172 -3.367 -5.258 -6.625 -6.01 c -1.211 -0.277 -3.305 -0.16 -4.547 0.258"/><path d="m 17.441 11.766 c 0.945 0.371 1.902 1.344 2.258 2.293 c 0.754 2.01 -0.121 4.188 -2.066 5.145 c -0.914 0.449 -2.371 0.441 -3.344 -0.02 c -2.563 -1.219 -3.164 -4.57 -1.164 -6.508 c 0.793 -0.773 1.574 -1.105 2.68 -1.145 c 0.73 -0.027 1.105 0.027 1.637 0.234 m -2.719 1.102 c -0.281 0.129 -0.711 0.469 -0.957 0.754 c -0.789 0.922 -0.945 2.035 -0.438 3.121 c 0.867 1.867 3.285 2.281 4.715 0.809 c 0.906 -0.93 1.051 -2.461 0.34 -3.609 c -0.719 -1.164 -2.383 -1.652 -3.66 -1.074"/><path d="m 16.594 8.828 c 0.191 1.578 0.348 2.969 0.348 3.086 c 0 0.117 -0.383 0.211 -0.848 0.211 c -0.707 0 -0.828 -0.086 -0.734 -0.535 c 0.059 -0.297 0.219 -1.504 0.352 -2.684 c 0.133 -1.18 0.309 -2.328 0.387 -2.551 c 0.082 -0.219 0.305 0.891 0.496 2.473"/><path d="m 16.805 19.293 c -0.016 0.488 -0.781 5.41 -0.805 5.18 c -0.023 -0.266 -0.617 -4.133 -0.754 -4.898 c -0.098 -0.574 -0.031 -0.629 0.73 -0.629 c 0.543 0 0.836 0.125 0.828 0.348"/><path d="m 12.898 15.496 c 0 1.234 -0.066 1.551 -0.336 1.555 c -0.73 0.012 -5.879 -1.43 -5.879 -1.43 c -0.082 -0.129 1.285 -0.559 3.035 -0.957 l 3.18 -0.719"/><path d="m 22.324 14.773 c 3.422 0.793 3.43 0.875 0.156 1.562 c -1.285 0.27 -2.488 0.555 -2.676 0.633 c -0.316 0.133 -0.34 0.043 -0.34 -1.348 c 0 -1.016 0.063 -1.484 0.188 -1.461 c 0.105 0.02 1.309 0.297 2.672 0.613"/></g><g stroke-width="0.668" transform="matrix(-0.1454 0 0 -0.15061 27.23 145.24)"><path d="m 77.28 861.66 c -4.245 -3.709 -6.931 -6.977 -6.233 -7.599 c 2.418 -2.179 48.12 -28.426 48.626 -27.933 c 0.725 0.674 -32.749 42.15 -33.957 42.07 c -0.537 -0.026 -4.325 -2.957 -8.436 -6.536" fill="#ff4500" stroke="#ff4500"/><path d="m 47.621 884.48 c 6.286 -8.403 13.782 -18.466 16.683 -22.409 c 2.875 -3.916 5.534 -7.106 5.883 -7.106 c 1.021 0 14.883 12.475 14.856 13.383 c -0.027 1.323 -46.18 31.383 -48.14 31.383 c -0.376 0 4.433 -6.873 10.719 -15.25" fill="#eadec1" stroke="#eadec1"/></g><path d="m 137.76 129.07 c 0 4.193 -3.635 7.614 -8.126 7.614 c -4.491 0 -8.157 -3.421 -8.157 -7.614 c 0 -4.193 3.666 -7.586 8.157 -7.586 c 4.491 0 8.126 3.393 8.126 7.586" transform="matrix(-0.12787 0 0 -0.1416 32.455 33.753)" fill="#ca8152" stroke="#fff" stroke-width="0.499"/></svg>