<svg xmlns="http://www.w3.org/2000/svg" viewBox="0 0 32 32"><path d="m 24.438 27.914 c -32.957 19.844 -31.691 -43.672 0.352 -23.68 c 7.98 4.98 10.797 16.965 -0.352 23.68" fill="#858efc"/><path d="m 10.461 29.746 c -3.371 -0.895 -6.04 -3.16 -7.535 -7.109 c -0.578 -1.539 -1.145 -4.668 -1.148 -5.746 v -0.59 h 14.277 c 11.328 0 14.273 0.047 14.273 0.227 c 0 0.461 -0.402 2.949 -0.77 3.73 c -1.031 2.188 -2.414 3.973 -4.477 5.477 c -2.578 1.883 -7.184 3.664 -9.695 4.105 c -1.387 0.246 -3.828 0.199 -4.926 -0.094" fill="#43ab43"/><path d="m 20.09 17.992 c -2.52 1.027 -5.01 2.273 -7.199 3.617 c -1.84 1.125 -3.805 1.887 -3.875 1.824 c -0.066 -0.066 0.27 -1.508 0.695 -3.266 c 0.836 -3.438 1.125 -3.676 0.246 -7.477 c -0.793 -3.43 -0.75 -4.242 -0.457 -4.078 c 0.195 0.109 2.309 1.16 3.926 2.27 c 1.82 1.246 4.383 2.688 6.73 3.781 l 3.789 1.762" fill="#f00"/></svg>