<svg xmlns="http://www.w3.org/2000/svg" viewBox="0 0 32 32"><path d="m 15.945 31.879 c -21.473 2.422 -21.18 -32.26 0.383 -31.852 c 20.05 -1.145 21.859 33.742 -0.383 31.852" fill="#fbc3a5"/><path d="m 9.598 24.418 c -0.539 -0.113 -1.371 -0.582 -1.805 -1.023 c -0.254 -0.254 -0.492 -0.598 -0.641 -0.922 c -0.23 -0.496 -0.238 -0.547 -0.238 -1.5 c -0.082 -0.645 0.148 -1.27 0.258 -1.836 c 0.051 -0.258 0.219 -0.75 0.375 -1.086 c 0.316 -0.688 0.336 -0.848 0.168 -1.301 l -0.117 -0.313 l 0.492 -1.59 c 0.66 -2.121 0.898 -2.773 1.16 -3.195 c 0.289 -0.465 0.668 -0.887 1.098 -1.227 c 0.27 -0.211 0.348 -0.324 0.348 -0.488 c 0 -0.297 0.254 -1.059 0.445 -1.348 c 0.281 -0.414 0.703 -0.641 1.289 -0.68 c 0.621 -0.043 0.934 0.051 1.363 0.414 c 0.301 0.254 0.336 0.266 0.758 0.223 c 0.332 -0.031 0.477 -0.086 0.59 -0.219 c 0.418 -0.508 1.109 -0.477 1.41 0.063 c 0.035 0.063 0.254 0.125 0.547 0.152 c 0.398 0.039 0.508 0.023 0.586 -0.074 c 0.055 -0.07 0.23 -0.215 0.395 -0.324 c 0.355 -0.242 1.176 -0.328 1.617 -0.172 c 0.621 0.219 1.102 0.934 1.246 1.859 c 0.043 0.289 0.109 0.383 0.48 0.688 c 0.469 0.387 0.828 0.82 1.125 1.371 c 0.246 0.461 1.445 4.262 1.441 4.574 c 0 0.133 -0.051 0.332 -0.109 0.438 c -0.16 0.301 -0.133 0.48 0.176 1.148 c 0.156 0.336 0.324 0.828 0.375 1.086 c 0.051 0.258 0.129 0.555 0.176 0.656 c 0.047 0.113 0.082 0.598 0.082 1.18 c 0 0.953 -0.008 1 -0.234 1.5 c -1.051 2.27 -4.523 2.766 -6.195 0.883 c -0.203 -0.23 -0.461 -0.621 -0.57 -0.871 c -0.195 -0.441 -0.195 -0.473 -0.195 -2.055 c 0 -0.883 0.043 -2 0.098 -2.488 c 0.055 -0.484 0.078 -0.973 0.055 -1.078 c -0.027 -0.113 -0.203 -0.32 -0.414 -0.48 c -0.594 -0.453 -0.887 -1.121 -1.18 -2.703 c -0.195 -1.035 -0.266 -1.016 -0.469 0.105 c -0.273 1.5 -0.602 2.203 -1.23 2.645 c -0.191 0.133 -0.367 0.324 -0.391 0.426 c -0.023 0.098 0 0.582 0.051 1.074 c 0.055 0.492 0.098 1.617 0.098 2.5 c 0.004 1.582 0 1.613 -0.195 2.055 c -0.395 0.895 -1.254 1.625 -2.23 1.898 c -0.465 0.129 -1.543 0.148 -2.086 0.035" fill="#979797"/><path d="m 9.617 24.14 c -1.07 -0.305 -1.871 -0.961 -2.293 -1.875 c -0.223 -0.48 -0.242 -0.578 -0.238 -1.266 c 0.008 -0.801 0.105 -1.121 0.508 -1.629 c 0.453 -0.574 1.457 -1.086 2.316 -1.184 c 0.68 -0.078 1.719 -0.027 2.074 0.129 c 0.148 0.066 0.535 0.16 0.555 0.137 c 0.047 -0.047 -0.422 -0.27 -1.195 -0.566 c -0.648 -0.25 -0.691 -0.25 -1.836 0.066 c -0.699 0.191 -1.207 0.449 -1.645 0.832 l -0.32 0.281 c 0.07 -0.406 0.242 -0.809 0.395 -1.133 c 0.332 -0.699 0.348 -0.84 0.102 -1.086 c -0.102 -0.102 -0.184 -0.25 -0.184 -0.324 c 0 -0.148 0.91 -2.98 1.219 -3.785 c 0.211 -0.559 0.43 -0.828 0.676 -0.828 c 0.223 0 2.66 -0.77 2.789 -0.883 c 0.055 -0.047 0.145 -0.191 0.199 -0.324 c 0.188 -0.445 0.219 -0.469 0.426 -0.324 c 0.168 0.117 0.238 0.121 0.824 0.012 c 0.352 -0.066 0.684 -0.156 0.734 -0.203 c 0.051 -0.047 0.145 -0.309 0.211 -0.586 c 0.078 -0.422 0.305 -0.766 0.5 -1.133 c 0.012 -0.039 0.074 -0.082 0.133 -0.098 c 0.094 -0.02 0.117 0.137 0.148 0.953 c 0.031 0.852 0.051 0.98 0.164 1 c 0.117 0.023 0.129 -0.063 0.129 -1 c 0 -0.883 0.016 -1.031 0.121 -1.074 c 0.215 -0.09 0.625 0.617 0.656 1.125 c 0.02 0.266 0.199 0.809 0.27 0.809 c 0.012 0 0.297 0.051 0.637 0.117 c 0.547 0.102 0.633 0.102 0.742 0 c 0.188 -0.184 0.363 -0.141 0.633 0.164 c 0.172 0.195 0.676 0.5 1.672 1.016 c 0.785 0.406 1.445 0.738 1.469 0.738 c 0.023 0 0.043 -0.074 0.043 -0.168 c 0 -0.16 0.008 -0.164 0.145 -0.031 c 0.078 0.078 0.246 0.406 0.375 0.73 c 0.242 0.621 1.242 3.672 1.242 3.785 c 0 0.035 -0.102 0.191 -0.223 0.34 c -0.262 0.32 -0.262 0.34 0.16 1.254 c 0.156 0.34 0.285 0.688 0.285 0.77 c 0 0.125 -0.047 0.109 -0.313 -0.121 c -0.563 -0.488 -1.211 -0.77 -2.359 -1.02 l -0.5 -0.109 l -0.75 0.293 c -0.41 0.156 -0.824 0.332 -0.918 0.383 c -0.273 0.156 -0.242 0.344 0.07 0.195 c 0.238 -0.117 0.668 -0.445 1.703 -0.445 c 1.152 0 1.227 0.152 1.633 0.328 c 0.867 0.375 1.422 0.867 1.766 1.574 c 0.102 0.207 0.137 0.457 0.141 1.02 c 0.004 0.688 -0.016 0.785 -0.234 1.262 c -0.566 1.23 -1.914 2.027 -3.422 2.027 c -1.348 -0.004 -2.551 -0.73 -3.109 -1.879 c -0.203 -0.426 -0.207 -0.453 -0.219 -1.875 c -0.008 -0.98 0.02 -1.609 0.09 -1.961 c 0.109 -0.543 0.141 -1.941 0.047 -2.09 c -0.027 -0.047 -0.129 -0.113 -0.223 -0.145 c -0.227 -0.074 -0.633 -0.465 -0.82 -0.781 c -0.234 -0.406 -0.438 -1.176 -0.594 -2.25 c -0.152 -1.07 -0.195 -1.242 -0.297 -1.242 c -0.109 0 -0.191 0.316 -0.277 1.066 c -0.047 0.387 -0.148 0.98 -0.23 1.316 c -0.266 1.078 -0.594 1.598 -1.211 1.898 l -0.293 0.148 l -0.02 0.758 c -0.016 0.48 0.02 0.949 0.09 1.277 c 0.078 0.363 0.113 0.938 0.113 1.906 v 1.387 l -0.246 0.547 c -0.684 1.512 -2.484 2.266 -4.234 1.77 m 12.695 -1.387 c 0.941 -0.371 1.629 -1.219 1.629 -2.02 c 0 -1.254 -2.027 -2.273 -3.625 -1.828 c -1.113 0.309 -1.977 1.293 -1.855 2.109 c 0.238 1.586 2.105 2.426 3.852 1.734 m -10.484 0.051 c 0.773 -0.313 1.262 -0.852 1.461 -1.605 c 0.113 -0.43 0.074 -0.602 -0.23 -1.094 c -0.402 -0.648 -1.277 -1.152 -2.184 -1.254 c -0.801 -0.094 -1.906 0.238 -2.387 0.723 c -0.656 0.652 -0.777 1.137 -0.461 1.855 c 0.168 0.383 0.66 0.941 1.012 1.141 c 0.703 0.406 2.082 0.52 2.789 0.234 m -0.93 -5.613 c 0.027 -0.152 0.066 -0.328 0.09 -0.391 c 0.023 -0.066 -0.172 -0.277 -0.234 -0.277 c -0.098 0 -0.199 0.43 -0.199 0.77 c -0.004 0.215 0.297 0.16 0.344 -0.102 m 10.23 -0.641 c -0.387 -0.227 -0.285 0.137 -0.238 0.395 c 0.098 0.512 0.313 0.559 0.336 0.238 c 0.016 -0.168 0.145 -0.738 -0.098 -0.633 m -9.738 -0.918 c 0.078 -0.332 0.133 -0.734 0.121 -0.891 c -0.02 -0.277 -0.031 -0.285 -0.34 -0.309 c -0.371 -0.031 -0.672 0.145 -0.672 0.383 c 0.066 0.422 0.086 0.773 0.207 1.195 c 0.223 0.414 0.605 -0.063 0.684 -0.379 m 9.145 -1.113 c -0.02 -0.02 -0.07 0.121 -0.113 0.148 c -0.051 0.035 0.164 1.406 0.316 1.422 l 0.313 0.016 l 0.215 -1.105 c 0.117 -0.586 -0.711 -0.457 -0.73 -0.48 m -9.621 -4.371 c -0.066 -0.176 0.203 -1.027 0.422 -1.328 c 0.34 -0.477 0.664 -0.629 1.328 -0.629 c 0.516 0 0.633 0.027 0.941 0.219 c 0.195 0.121 0.371 0.27 0.391 0.324 c 0.02 0.059 -0.133 0.301 -0.344 0.543 c -0.371 0.422 -0.398 0.441 -0.758 0.441 c -0.441 0 -0.98 0.145 -1.438 0.379 c -0.387 0.199 -0.488 0.207 -0.543 0.051 m 9.496 -0.035 c -0.398 -0.227 -1.172 -0.414 -1.523 -0.375 c -0.305 0.039 -0.324 0.023 -0.68 -0.402 c -0.203 -0.242 -0.359 -0.492 -0.348 -0.555 c 0.012 -0.063 0.164 -0.223 0.34 -0.352 c 0.289 -0.219 0.367 -0.238 0.922 -0.238 c 0.547 0 0.641 0.02 0.969 0.234 c 0.418 0.277 0.758 0.891 0.82 1.48 c 0.031 0.316 0.02 0.359 -0.102 0.355 c -0.074 0 -0.254 -0.07 -0.398 -0.148" fill="#5b5b5b"/><path d="m 8.5 23.66 c -0.426 -0.234 -0.883 -0.766 -1.129 -1.309 c -0.313 -0.809 -0.313 -1.73 0.051 -2.344 c 0.344 -0.582 0.723 -0.93 1.348 -1.242 c 0.695 -0.348 1.098 -0.52 2.121 -0.43 c 0.723 0.063 1.094 0.191 1.563 0.438 c 0.691 0.359 1.266 0.965 1.441 1.512 c 0.254 0.777 0.133 1.738 -0.262 2.125 c -0.129 0.125 -0.305 0.551 -0.426 0.68 c -0.832 0.859 -1.434 1.234 -2.613 1.219 c -0.668 -0.043 -1.484 -0.32 -2.094 -0.648 m 3.328 -0.574 c 0.762 -0.34 1.262 -0.918 1.461 -1.68 c 0.113 -0.438 0.074 -0.613 -0.227 -1.109 c -0.445 -0.727 -1.57 -1.324 -2.488 -1.324 c -1.074 0 -2.047 0.535 -2.598 1.43 c -0.285 0.461 -0.035 1.355 0.547 1.98 c 0.598 0.641 1.176 0.875 2.16 0.883 c 0.602 0 0.805 -0.031 1.145 -0.18 m 8.06 0.93 c -0.777 -0.426 -1.059 -0.391 -1.738 -1.359 c -0.258 -0.207 -0.375 -0.895 -0.379 -1.535 c -0.008 -1.043 0.563 -1.852 1.688 -2.414 c 0.387 -0.191 0.805 -0.383 1.402 -0.422 c 1.07 -0.07 1.516 0.156 2.148 0.473 c 0.637 0.32 1.016 0.668 1.359 1.25 c 0.387 0.777 0.375 1.629 0.051 2.344 c -0.242 0.539 -0.703 1.074 -1.121 1.305 c -0.367 0.203 -1.254 0.637 -2.203 0.633 c -0.594 -0.004 -0.84 -0.125 -1.207 -0.273 m 2.359 -0.926 c 1.34 -0.531 2.051 -1.906 1.473 -2.852 c -0.332 -0.543 -0.773 -0.848 -1.723 -1.188 c -0.621 -0.223 -1.391 -0.191 -2.059 0.082 c -0.852 0.348 -1.582 1.379 -1.48 2.078 c 0.238 1.625 2.102 2.547 3.789 1.879 m -8.77 -3.781 c -0.508 -0.582 -0.934 -0.891 -1.566 -1.137 c -0.254 -0.098 -0.488 -0.219 -0.527 -0.266 c -0.078 -0.102 0.086 -1.023 0.227 -1.285 c 0.094 -0.172 0.344 -1.531 0.352 -1.883 c 0 -0.168 -0.047 -0.23 -0.23 -0.301 c -0.48 -0.18 -0.875 -0.109 -1.648 0.301 c -1.012 0.539 -1.273 0.867 -1.68 2.141 c -0.07 0.211 -0.48 0.023 -0.48 -0.215 c 0 -0.148 0.328 -1.164 0.523 -1.621 c 0.117 -0.281 1.07 -1.113 1.617 -1.41 c 0.543 -0.301 1.211 -0.543 1.961 -0.715 c 0.383 -0.086 0.668 -0.199 0.773 -0.309 c 0.094 -0.094 0.191 -0.168 0.223 -0.168 c 0.031 0 0.34 -0.148 0.688 -0.328 c 0.441 -0.23 0.738 -0.332 0.984 -0.34 c 0.375 -0.012 0.406 -0.043 0.281 -0.293 c -0.117 -0.242 -0.012 -0.512 0.246 -0.633 c 0.129 -0.059 0.258 -0.121 0.289 -0.141 c 0.027 -0.02 0.031 0.078 0.008 0.215 l -0.043 0.242 h 0.449 c 0.465 0 0.512 -0.039 0.371 -0.328 c -0.082 -0.379 0.164 -0.074 0.355 0.012 c 0.047 0 0.137 0.086 0.203 0.191 c 0.105 0.176 0.105 0.215 0 0.438 c -0.066 0.137 -0.109 0.25 -0.098 0.254 c 0.012 0.004 0.188 0.016 0.387 0.027 c 0.25 0.012 0.574 0.125 1.01 0.352 c 0.352 0.18 0.684 0.332 0.742 0.332 c 0.059 0 0.152 0.074 0.207 0.164 c 0.078 0.125 0.27 0.207 0.727 0.309 c 1.152 0.266 1.984 0.637 2.676 1.199 c 0.809 0.66 0.863 0.746 1.266 1.973 c 0.184 0.559 0.188 0.582 0.059 0.734 c -0.18 0.219 -0.316 0.199 -0.41 -0.059 c -0.426 -1.184 -0.703 -1.535 -1.527 -1.953 c -0.934 -0.469 -1.582 -0.566 -1.938 -0.281 c -0.121 0.098 -0.121 0.148 0.027 1.02 c 0.086 0.504 0.191 0.965 0.238 1.027 c 0.047 0.063 0.125 0.367 0.176 0.676 c 0.105 0.676 0.105 0.676 -0.586 0.957 c -0.617 0.246 -1.07 0.582 -1.43 1.047 c -0.148 0.195 -0.316 0.355 -0.367 0.355 c -0.117 0 -0.125 -0.742 -0.016 -1.277 c 0.094 -0.453 0.219 -1.918 0.172 -2 c -0.02 -0.035 -0.102 -0.02 -0.184 0.035 c -0.121 0.082 -0.199 0.066 -0.488 -0.102 c -0.629 -0.359 -0.984 -1.215 -1.168 -2.824 c -0.152 -1.301 -0.219 -1.555 -0.398 -1.555 c -0.184 0 -0.266 0.23 -0.324 0.887 c -0.195 2.184 -0.633 3.297 -1.402 3.574 c -0.227 0.082 -0.281 0.074 -0.414 -0.055 c -0.172 -0.043 -0.121 0.547 -0.113 0.73 c 0.023 0.48 0.094 1.191 0.16 1.578 c 0.07 0.383 0.113 0.813 0.098 0.953 l -0.023 0.258 m -2.941 -9.707 c -0.023 -0.063 0.035 -0.324 0.129 -0.582 c 0.156 -0.426 0.207 -0.484 0.59 -0.691 c 0.535 -0.289 1.109 -0.313 1.621 -0.07 c 0.191 0.094 0.348 0.219 0.348 0.277 c 0 0.059 -0.094 0.207 -0.207 0.324 c -0.203 0.215 -0.484 0.266 -0.77 0.145 c -0.066 -0.199 0.227 -0.227 0.391 -0.398 c 0 -0.223 -0.758 -0.227 -1.086 -0.012 c -0.27 0.18 -0.297 0.277 -0.109 0.391 c 0.156 0.098 0.113 0.141 -0.441 0.477 c -0.336 0.199 -0.434 0.23 -0.465 0.141 m 9.316 -0.219 c -0.402 -0.254 -0.461 -0.344 -0.273 -0.418 c 0.367 -0.152 -0.215 -0.543 -0.766 -0.512 c -0.539 0.031 -0.563 0.176 -0.07 0.418 c 0.488 0.219 0.387 0.191 -0.086 0.195 c -0.43 0.004 -0.504 -0.016 -0.715 -0.227 c -0.293 -0.293 -0.297 -0.367 -0.016 -0.523 c 0.582 -0.328 1.418 -0.297 1.926 0.066 c 0.383 0.273 0.758 1.25 0.477 1.246 c -0.051 0 -0.266 -0.113 -0.477 -0.246" fill="#2f2f2f"/><g fill="#e04c27" stroke="#f99c78" stroke-width="4.04" transform="matrix(0.07345 0 0 0.07834 5.809 5.691)"><path d="m 55.945 225.57 c -3.935 -0.997 -8.934 -2.942 -11.01 -4.388 c -7.924 -5.285 -15.316 -17.501 -15.369 -25.23 c -0.053 -6.681 8.509 -16.554 19.09 -22.09 c 6.06 -3.141 8.668 -3.74 15.954 -3.789 c 7.818 -0.1 9.679 0.399 17.443 4.487 c 12.444 7.878 23.19 18.648 18.294 30.714 c -7.179 17.651 -23.985 25.329 -44.41 20.293"/><path d="m 192.83 225.17 c -11.966 -5.435 -21.751 -20.343 -19.358 -29.468 c 1.383 -5.086 8.562 -15.606 12.923 -18.897 c 11.221 -8.476 26.644 -9.324 40.63 -2.144 c 4.361 2.194 8.881 4.936 10.05 6.083 c 3.882 3.74 8.668 13.06 8.668 16.853 c 0 9.374 -8.722 20.842 -20.315 26.626 c -9.573 4.787 -23.293 5.186 -32.6 0.947"/></g></svg>