<svg xmlns="http://www.w3.org/2000/svg" viewBox="0 0 32 32"><path d="m 1.508 21.949 c -12.02 -38.902 52.57 -19.445 22.363 7.207 c -6.05 5.34 -19.12 3.281 -22.363 -7.207" fill="#a2946e"/><path d="m 15.93 25.14 c -1.77 -0.227 -3.344 -0.781 -4.395 -1.555 c -0.945 -0.695 -1.383 -1.363 -1.453 -2.219 c -0.137 -1.664 1.82 -3.246 4.793 -3.875 c 1.449 -0.305 3.762 -0.266 5.211 0.094 c 2.77 0.684 4.395 2.027 4.398 3.641 c 0 0.539 -0.074 0.797 -0.363 1.246 c -0.723 1.117 -2.391 2.066 -4.367 2.48 c -0.801 0.168 -3.098 0.281 -3.824 0.188" fill="#ffe6ac"/><path d="m 12.242 25.699 c 0.07 -0.234 0.199 -0.387 0.391 -0.461 c 0.586 -0.23 0.328 -0.434 -0.887 -0.707 c -0.449 -0.102 -1.117 -0.289 -1.48 -0.422 c -0.363 -0.133 -0.961 -0.273 -1.324 -0.313 c -1.16 -0.125 -1.867 -0.559 -2.465 -1.516 c -0.273 -0.434 -0.293 -0.535 -0.293 -1.523 c 0 -0.988 0.02 -1.09 0.293 -1.527 c 0.16 -0.254 0.461 -0.629 0.664 -0.824 l 0.371 -0.363 v -1.98 c 0 -1.898 0.008 -1.984 0.203 -2.035 c 0.227 -0.063 0.227 -0.059 0.469 -1.484 c 0.207 -1.191 0.16 -1.547 -0.363 -2.926 c -0.508 -1.332 -0.52 -1.613 -0.078 -2.063 c 0.73 -0.75 2.457 -1.01 7.184 -1.078 c 3.398 -0.047 3.637 -0.039 4.539 0.176 c 1.188 0.277 1.969 0.602 2.707 1.121 c 1.52 1.074 2.563 3.039 2.75 5.184 c 0.035 0.426 0.129 0.91 0.211 1.07 c 0.105 0.215 0.141 0.742 0.141 2.02 c 0 0.953 -0.023 1.766 -0.051 1.813 c -0.027 0.043 -0.121 0.887 -0.207 1.875 c -0.188 2.094 -0.387 2.859 -0.965 3.641 c -0.738 1.01 -1.652 1.484 -3.094 1.617 c -1.152 0.105 -1.277 0.371 -0.395 0.852 l 0.367 0.199 l -0.637 0.004 l -0.641 0.004 v -0.375 c 0 -0.293 -0.035 -0.367 -0.172 -0.34 c -0.094 0.02 -0.211 0.188 -0.258 0.375 l -0.086 0.34 h -2.75 v -0.309 c 0 -0.43 -0.262 -0.547 -1.148 -0.508 l -0.738 0.031 l 0.031 0.332 c 0.016 0.18 -0.02 0.363 -0.082 0.402 c -0.141 0.09 -0.613 -0.223 -0.613 -0.41 c 0 -0.078 -0.063 -0.199 -0.145 -0.266 c -0.18 -0.156 -0.926 0.176 -0.926 0.414 c 0 0.199 -0.148 0.309 -0.418 0.313 c -0.195 0 -0.207 -0.027 -0.105 -0.352 m 5.668 -3.605 c 1.344 -0.789 1.402 -0.813 2.148 -0.848 c 0.805 -0.16 1.023 0.215 1.586 0.758 c 0.777 0.758 0.836 0.793 1.297 0.797 c 0.391 0 0.547 -0.059 0.816 -0.305 c 0.332 -0.305 0.336 -0.316 0.348 -1.313 c 0.016 -1.215 0.023 -1.211 -1.246 -0.523 c -0.629 0.34 -0.91 0.445 -0.961 0.355 c -0.043 -0.066 -0.105 -0.363 -0.137 -0.66 c -0.055 -0.473 -0.035 -0.566 0.191 -0.805 c 0.137 -0.152 0.25 -0.305 0.25 -0.344 c 0 -0.043 -1.113 -0.07 -2.473 -0.066 c -1.957 0.004 -2.434 0.031 -2.285 0.129 c 0.602 0.395 0.605 0.398 0.473 1.082 c -0.164 0.867 -0.219 0.938 -0.578 0.797 c -0.156 -0.063 -0.461 -0.137 -0.672 -0.168 c -0.32 -0.043 -0.383 -0.023 -0.383 0.137 c 0 0.426 -0.617 0.93 -0.91 0.746 c -0.082 -0.051 -0.035 -0.137 0.145 -0.258 c 0.285 -0.191 0.488 -0.605 0.402 -0.828 c -0.07 -0.191 -0.594 -0.492 -0.859 -0.492 c -0.121 0 -0.41 -0.113 -0.645 -0.254 c -1.129 -0.668 -1.602 -0.512 -1.602 0.52 c 0 0.738 0.172 1.141 0.723 1.703 c 0.422 0.375 0.621 0.316 2.137 0.551 c 0.363 0.039 0.703 0.074 0.758 0.086 c 0.051 0.008 0.715 -0.352 1.477 -0.797" fill="#310536"/><path d="m 15.543 18.52 c -0.563 -0.129 -0.727 -0.516 -0.773 -1.809 c -0.055 -1.68 0.039 -2.27 0.422 -2.629 c 0.617 -0.613 1.738 -0.297 2.551 -0.297 c 1.234 0 3.121 0.031 4.195 0.07 c 1.828 0.066 2.07 -0.063 2.324 0.16 c 0.555 0.445 0.414 1.512 0.414 2.172 c 0 1.777 -0.055 1.898 -0.285 2.129 c -0.695 0.582 -3.457 0.254 -4.488 0.258 c -2.234 0.008 -4.195 -0.016 -4.359 -0.055 m 0.824 -0.586 c 0.16 -0.121 0.176 -0.188 0.086 -0.34 c -0.145 -0.238 -0.449 -0.246 -0.594 -0.016 c -0.078 0.125 -0.07 0.219 0.027 0.34 c 0.168 0.203 0.227 0.207 0.48 0.016 m 7.688 -0.191 c 0.027 -0.246 -0.008 -0.285 -0.227 -0.285 c -0.273 0 -0.371 0.148 -0.293 0.449 c 0.078 0.309 0.48 0.184 0.52 -0.164 m -0.035 -2.863 c 0 -0.383 -0.297 -0.469 -0.469 -0.137 c -0.105 0.195 -0.094 0.254 0.066 0.375 c 0.266 0.195 0.402 0.117 0.402 -0.238 m -7.613 0.121 c 0.168 -0.203 -0.047 -0.629 -0.27 -0.539 c -0.086 0.031 -0.176 0.059 -0.199 0.059 c -0.023 0 -0.043 0.141 -0.043 0.316 c 0 0.238 0.047 0.313 0.195 0.313 c 0.105 0 0.25 -0.066 0.316 -0.148" fill="#fff"/><path d="m 19 16.73 l -0.969 -0.695 l 0.055 -0.293 c 0.047 -0.266 1.012 0.27 1.137 0.355 c 0.332 0.23 0.715 0.195 1.703 -0.148 c 0.484 -0.172 0.902 -0.281 0.93 -0.246 c 0.039 0.051 -0.891 0.906 -1.758 1.617 c -0.07 0.059 -0.563 -0.207 -1.098 -0.59" fill="#a9a9a9"/><path d="m 7.887 17.375 c -0.086 -0.105 -0.094 -2.484 -0.008 -2.758 c 0.055 -0.176 0.387 -0.203 2.68 -0.199 c 1.438 0 2.859 0.035 3.156 0.078 l 0.535 0.082 c -0.016 0.938 -0.035 1.879 -0.055 2.816 l -3.121 0.035 c -1.715 0.02 -3.148 -0.004 -3.187 -0.055" fill="#4c2051"/><g fill="#fff"><path d="m 16.508 21.05 c 0.105 0.715 -0.449 1.375 -1.246 1.477 c -0.793 0.098 -1.527 -0.406 -1.633 -1.125 c -0.109 -0.715 0.445 -1.375 1.242 -1.473 c 0.793 -0.098 1.527 0.402 1.637 1.121"/><path d="m 21.22 21.13 c -0.094 0.695 0.402 1.336 1.113 1.43 c 0.711 0.098 1.363 -0.391 1.461 -1.086 c 0.098 -0.695 -0.398 -1.336 -1.109 -1.434 c -0.711 -0.094 -1.367 0.395 -1.465 1.09"/></g><g fill="#1a0000"><path d="m 16.05 21.11 c 0.063 0.504 -0.258 0.965 -0.715 1.031 c -0.461 0.07 -0.879 -0.281 -0.941 -0.781 c -0.063 -0.5 0.258 -0.961 0.715 -1.031 c 0.457 -0.066 0.879 0.281 0.941 0.781"/><path d="m 23.07 21.277 c 0.051 0.457 -0.211 0.879 -0.582 0.941 c -0.375 0.063 -0.719 -0.258 -0.77 -0.715 c -0.051 -0.457 0.211 -0.879 0.586 -0.941 c 0.371 -0.063 0.715 0.258 0.766 0.715"/></g></svg>