<svg xmlns="http://www.w3.org/2000/svg" viewBox="0 0 32 32"><path d="m 30.965 20.398 c 5.977 -16.676 -15.496 -24.785 -23.563 -17.996 c -8.07 6.789 -10.824 18.422 -1.688 24.277 c 9.137 5.852 19.273 10.395 25.25 -6.285" fill="#d6edf4"/><path d="m 28.805 19.574 c 5.05 -14.11 -13.11 -20.965 -19.934 -15.223 c -6.824 5.742 -9.152 15.582 -1.426 20.535 c 7.73 4.953 16.305 8.793 21.359 -5.316" fill="#36abc8"/><g fill="#d6edf4"><path d="m 12.809 23.57 c -0.941 -0.293 -2.215 -1.098 -3.01 -1.906 c -2.391 -2.43 -2.906 -6.469 -1.238 -9.691 c 0.598 -1.152 2.059 -2.652 3.199 -3.277 c 3.355 -1.848 7.422 -1.285 10.05 1.391 c 2.305 2.414 2.828 4.938 2.832 7.293 c 0.004 2.469 -0.113 3.18 -0.738 4.527 l -0.34 0.742 l -1.137 -0.766 c -0.625 -0.418 -1.328 -0.926 -1.559 -1.121 l -0.426 -0.359 l 0.215 -0.629 c 0.301 -0.859 0.391 -2.652 0.195 -3.754 c -0.352 -1.961 -1.855 -3.66 -3.723 -4.203 c -1.594 -0.461 -3.445 0.035 -4.559 1.227 c -0.727 0.773 -1.082 1.566 -1.164 2.594 c -0.18 2.27 1.238 4.09 3.184 4.074 c 0.457 -0.004 1.348 -0.387 1.934 -0.836 l 0.422 -0.32 c 1.367 0.809 1.93 0.988 3.348 1.988 l -0.992 0.961 c -1.25 1.211 -2.109 1.742 -3.777 2.059 c -0.922 0.113 -1.934 0.242 -2.715 0.008"/><path d="m 16.258 18.262 c -0.82 -0.609 -1.941 -1.5 -1.941 -1.969 c 0 -0.309 0.348 -0.785 0.734 -0.984 c 0.98 -0.512 1.762 0.07 2.082 1.551 c 0.188 0.879 0.09 1.777 -0.195 1.777 c -0.098 0 -0.406 -0.168 -0.68 -0.375"/></g></svg>