<svg xmlns="http://www.w3.org/2000/svg" viewBox="0 0 32 32"><path d="m 6.598 28.879 c 24.05 15.992 38.875 -35.01 7.773 -28.26 c -12.852 2.875 -20.652 20.922 -7.773 28.26" fill="#4d5145"/><path d="m 16.06 7.563 l -7.594 4.277 v 7.332 l 3.164 1.797 c 1.191 0.656 2.531 -0.375 2.531 -1.184 v -7.336 h -1.266 v 6.723 c 0 0.594 -0.535 0.875 -1.207 0.516 c -0.016 -0.012 -0.039 -0.008 -0.059 -0.02 l -1.898 -1.105 v -6.113 l 6.328 -3.664 l 6.332 3.664 v 6.113 l -6.332 3.664 l -1.543 -0.898 l -1.305 0.516 l 2.848 1.605 l 7.598 -4.277 v -7.332 m -5.695 0.609 c -1.902 0 -3.168 0.613 -3.168 1.836 c 0 1.219 1.266 1.832 3.168 1.832 c 0.633 0 1.898 0 1.898 0.609 c 0 0.613 -0.633 0.918 -1.898 0.918 c -1.266 0 -1.902 -0.543 -1.902 -0.918 h -1.266 c 0 1.223 1.266 1.836 3.168 1.836 c 1.898 0 3.164 -0.613 3.164 -1.836 c 0 -1.223 -1.898 -1.832 -3.164 -1.832 c -0.633 0 -1.902 0 -1.902 -0.609 c 0 -0.613 0.637 -0.918 1.902 -0.918 c 1.266 0 1.898 0.57 1.898 0.918 h 1.266 c 0 -1.223 -1.266 -1.836 -3.164 -1.836" fill="#7fb243"/></svg>