<svg xmlns="http://www.w3.org/2000/svg" viewBox="0 0 32 32"><path d="m 3.11 6.59 c -15.99 24.1 35 38.88 28.3 7.78 c -2.88 -12.85 -20.93 -20.65 -28.3 -7.78" style="fill:#c0c0c0"/><path d="m 9.24 10 h 14.1 c 0.82 0 1.49 0.59 1.49 1.32 v 9.1 c 0 0.73 -0.67 1.32 -1.49 1.32 h -14.1 c -0.82 0 -1.49 -0.59 -1.49 -1.32 v -9.1 c 0 -0.73 0.67 -1.32 1.49 -1.32" style="fill:#a35266"/><path d="m 16.74 21.71 c 0.43 0 0.85 0 1.27 0 c -0.02 -0.31 0.07 -0.8 -0.14 -1.04 c -1.07 -0.45 -1.13 0.26 -1.13 1.04" style="fill:#d4719a"/><path d="m 20.2 23.73 c -2.38 -2.23 -2.57 -2.41 -4.49 -4.4 l -1.42 -1.47 l 0.15 -0.45 c 0.14 -0.44 0.65 -0.78 1.16 -0.78 c 0.11 0 1.29 1.11 2.62 2.47 c 1.33 1.36 2.48 2.48 2.55 2.48 c 0.07 0 0.29 0.22 0.49 0.48 c 0.2 0.26 0.78 0.94 1.3 1.52 c 1 1.13 1.11 1.41 0.66 1.84 c -0.56 0.52 -0.77 0.41 -3 -1.69" style="fill:#788890"/><path d="m 13.17 16.77 c -0.66 -0.7 -1.25 -1.41 -1.3 -1.58 c -0.14 -0.46 0.31 -1.02 0.85 -1.07 c 0.39 -0.04 0.57 0.09 1.69 1.22 c 1.26 1.26 1.42 1.48 1.08 1.48 c -0.3 0 -0.89 0.55 -0.89 0.82 c 0 0.53 -0.27 0.37 -1.43 -0.87" style="fill:#fff"/><g style="fill:#ffd600"><path d="m 9.86 14.26 c -0.05 -0.14 -0.19 -0.51 -0.3 -0.83 l -0.2 -0.58 l -0.73 -0.24 c -0.78 -0.25 -1.09 -0.45 -0.86 -0.53 c 1.25 -0.44 1.65 -0.69 1.75 -1.09 c 0.03 -0.12 0.14 -0.41 0.24 -0.64 c 0.23 -0.53 0.34 -0.46 0.63 0.38 c 0.12 0.34 0.26 0.67 0.31 0.73 c 0.05 0.06 0.4 0.22 0.77 0.36 c 0.37 0.14 0.69 0.3 0.71 0.36 c 0.02 0.06 -0.31 0.23 -0.75 0.41 l -0.79 0.3 l -0.28 0.72 c -0.34 0.89 -0.4 0.96 -0.52 0.64"/><path d="m 17 15.1 c -0.11 -0.34 -0.25 -0.7 -0.31 -0.79 c -0.07 -0.09 -0.45 -0.29 -0.86 -0.45 c -0.41 -0.16 -0.74 -0.33 -0.75 -0.38 c 0 -0.05 0.32 -0.21 0.71 -0.36 c 0.39 -0.15 0.76 -0.3 0.81 -0.34 c 0.05 -0.04 0.21 -0.38 0.35 -0.77 c 0.14 -0.39 0.28 -0.74 0.32 -0.78 c 0.06 -0.07 0.13 0.07 0.51 1.02 c 0.21 0.54 0.25 0.57 0.95 0.82 c 0.32 0.12 0.66 0.25 0.76 0.29 c 0.16 0.08 0.16 0.09 0 0.2 c -0.09 0.06 -0.42 0.21 -0.73 0.32 c -0.68 0.25 -0.77 0.34 -1.09 1.14 c -0.14 0.34 -0.3 0.64 -0.36 0.66 c -0.06 0.02 -0.19 -0.22 -0.31 -0.59"/><path d="m 10.38 19.3 c -0.3 -0.54 -0.46 -0.69 -0.96 -0.88 c -0.21 -0.08 -0.36 -0.19 -0.33 -0.24 c 0.03 -0.05 0.27 -0.18 0.55 -0.3 c 0.44 -0.2 0.52 -0.27 0.72 -0.72 c 0.13 -0.28 0.27 -0.5 0.32 -0.5 c 0.05 0 0.18 0.23 0.31 0.5 c 0.2 0.45 0.27 0.52 0.72 0.72 c 0.28 0.12 0.5 0.27 0.5 0.32 c 0 0.05 -0.22 0.19 -0.49 0.31 c -0.53 0.23 -0.58 0.29 -0.78 0.82 c -0.08 0.2 -0.18 0.37 -0.23 0.39 c -0.05 0.02 -0.2 -0.17 -0.34 -0.41"/></g><g style="fill:#d4719a"><path d="m 8.22 21.74 c -0.34 -0.1 -0.45 -0.42 -0.45 -1.36 c 0 -1.04 0.07 -1.2 0.54 -1.2 c 0.48 0 0.73 0.31 0.73 0.92 v 0.44 c 0.95 0.08 1.18 -0.38 1.18 0.58 c 0 0.58 0 0.58 -0.29 0.64 c -0.36 0.07 -1.41 0.06 -1.71 -0.02"/><path d="m 7.93 17.73 c -0.24 -0.29 -0.25 -0.95 0.06 -1.09 c 0.23 -0.1 0.82 -0.04 0.91 0.09 c 0.08 0.29 0.21 0.73 0.01 0.95 c -0.17 0.17 -0.73 0.2 -0.98 0.05"/><path d="m 7.88 15.1 c -0.06 -0.07 -0.11 -0.31 -0.11 -0.55 c 0 -0.5 0.14 -0.62 0.71 -0.62 c 0.28 0 0.39 0.04 0.47 0.19 c 0.13 0.23 0.04 0.74 -0.14 0.89 c -0.2 0.16 -0.8 0.22 -0.93 0.08"/><path d="m 7.79 11.43 c 0.01 -1.35 0.84 -1.43 2.12 -1.4 c -0.6 1.52 -0.59 1.5 -1.58 1.86 l -0.6 0.22 c 0.02 -0.23 0.04 -0.45 0.06 -0.68"/><path d="m 12 11.15 c -0.39 -0.15 -0.52 -0.94 -0.19 -1.12 c 0.28 -0.14 0.88 -0.11 1.05 0.06 c 0.16 0.16 0.14 0.78 -0.03 0.95 c -0.11 0.11 -0.66 0.18 -0.84 0.11"/><path d="m 14.57 11.21 c -0.23 -0.38 -0.13 -0.64 -0.1 -1.11 c 0.38 -0.02 0.75 -0.04 1.13 -0.05 v 0.58 c 0 0.58 0 0.59 -0.29 0.64 c -0.41 0.08 -0.57 0.07 -0.75 -0.06"/><path d="m 19.96 11.1 c -0.25 -0.15 -0.31 -0.27 -0.31 -0.59 c 0 -0.39 0.2 -0.57 0.64 -0.57 c 0.54 0 0.71 0.13 0.71 0.53 c 0 0.19 -0.05 0.41 -0.11 0.5 c -0.14 0.2 -0.69 0.28 -0.93 0.14"/><path d="m 23.86 12.39 c -0.18 -0.18 -0.22 -0.32 -0.22 -0.68 c 0.01 -0.39 0.08 -0.46 -0.31 -0.46 c -0.17 0 -0.43 -0.03 -0.59 -0.06 c -0.47 -0.3 -0.28 -0.61 -0.28 -1.21 h 0.99 c 1.38 0 1.41 0.02 1.45 1.34 c 0.02 0.83 0 1.02 -0.12 1.14 c -0.22 0.22 -0.65 0.19 -0.91 -0.07"/><path d="m 23.82 15 c -0.22 -0.22 -0.24 -0.74 -0.04 -0.95 c 0.39 -0.2 0.69 -0.14 1.13 -0.14 c -0.03 0.32 0.1 1.02 -0.18 1.18 c -0.29 0.15 -0.71 0.11 -0.91 -0.09"/><path d="m 23.77 17.68 c -0.11 -0.11 -0.14 -0.25 -0.11 -0.51 c 0.06 -0.46 0.14 -0.52 0.65 -0.58 c 0.52 -0.06 0.59 0.02 0.59 0.72 v 0.52 c -0.34 -0.03 -0.89 0.08 -1.14 -0.15"/><path d="m 22.51 21.7 c -0.14 -0.1 -0.16 -0.2 -0.12 -0.55 c 0.03 -0.24 0.11 -0.47 0.17 -0.51 c 0.07 -0.04 0.34 -0.08 0.6 -0.08 h 0.48 v -0.44 c 0 -0.61 0.25 -0.92 0.73 -0.92 c 0.46 0 0.54 0.18 0.54 1.28 c 0 0.93 -0.07 1.11 -0.46 1.25 c -0.41 0.14 -1.73 0.13 -1.93 -0.02"/><path d="m 20.37 21.1 c -0.42 -0.46 -0.4 -0.61 0.1 -0.57 c 0.37 0.04 0.6 0.37 0.5 0.74 c -0.04 0.13 -0.1 0.24 -0.14 0.24 c -0.04 0 -0.25 -0.19 -0.46 -0.42"/><path d="m 14.35 21.71 c 0.43 0 0.85 0 1.27 0 c -0.02 -0.31 0.08 -0.8 -0.14 -1.04 c -1.07 -0.45 -1.13 0.26 -1.13 1.04"/><path d="m 17.1 11.17 c -0.23 -0.38 -0.13 -0.64 -0.1 -1.11 c 0.38 -0.02 0.75 -0.04 1.13 -0.05 c -0.01 0.45 0.08 1.15 -0.29 1.22 c -0.41 0.08 -0.57 0.07 -0.75 -0.06"/><path d="m 11.92 20.58 c -0.23 0.38 -0.13 0.64 -0.1 1.11 c 0.38 0.02 0.75 0.04 1.13 0.05 c -0.01 -0.45 0.08 -1.15 -0.28 -1.22 c -0.41 -0.08 -0.57 -0.07 -0.75 0.06"/></g></svg>