<svg xmlns="http://www.w3.org/2000/svg" viewBox="0 0 32 32"><path d="m 21.949 1.77 c -38.906 -11.918 -19.449 52.12 7.207 22.17 c 5.34 -6 3.281 -18.961 -7.207 -22.17" fill="#bb2e11"/><path d="m 99.4 239.53 c -6.224 -1.367 -10.547 -5.515 -11.83 -11.171 c -0.903 -4.242 0.238 -4.666 3.848 -1.555 c 6.271 5.421 3.421 5.609 70.22 -4.431 c 64.14 -9.663 63.995 -9.616 67.18 -14.706 c 3.326 -5.373 4.941 1.414 1.758 7.4 c -3.516 6.599 -2.518 6.363 -66.18 15.884 c -68.41 10.228 -61.714 9.333 -64.992 8.579 m -12.4 -18.901 c -0.333 -2.498 -0.095 -2.922 1.378 -2.922 c 0.95 0 32.781 -4.666 70.69 -10.37 c 37.912 -5.75 69.6 -10.181 70.46 -9.851 c 1.093 0.377 1.235 0.801 0.57 1.414 c -0.523 0.518 -32.401 5.656 -70.836 11.454 c -53.97 8.154 -70.12 10.841 -70.931 11.878 c -0.808 1.084 -1.045 0.848 -1.33 -1.603 m -3.278 -17.958 c 0 -0.754 1.045 -1.414 2.756 -1.744 c 20.999 -3.535 139.68 -20.834 140.67 -20.504 c 4.086 1.508 -4.703 3.205 -59.671 11.407 c -32.21 4.808 -61.714 9.238 -65.56 9.851 c -13.06 2.121 -18.2 2.404 -18.2 0.99 m -2.565 -16.921 c 0 -0.896 0.475 -1.603 1.045 -1.603 c 0.57 -0.047 32.591 -4.761 71.07 -10.558 c 38.53 -5.798 70.36 -10.37 70.788 -10.134 c 3.041 1.791 -1.378 2.734 -41.808 8.767 c -23.422 3.535 -45.609 6.882 -49.41 7.447 c -3.753 0.613 -12.21 1.885 -18.814 2.828 c -6.556 0.99 -16.391 2.498 -21.759 3.347 c -12.02 1.885 -11.12 1.885 -11.12 -0.094 m -2.565 -16.214 c 0 -1.084 0.713 -1.838 2.185 -2.168 c 1.188 -0.283 33.21 -5.185 71.17 -10.935 c 66.18 -9.945 72.4 -10.652 69.55 -7.919 c -0.57 0.518 -15.963 2.97 -62.57 9.945 c -4.466 0.66 -13.11 1.933 -19.241 2.875 c -6.081 0.896 -14.775 2.215 -19.241 2.875 c -4.466 0.66 -10.404 1.555 -13.255 2.027 c -2.803 0.424 -10.07 1.555 -16.201 2.498 c -6.081 0.896 -11.355 1.838 -11.735 2.074 c -0.38 0.236 -0.665 -0.33 -0.665 -1.273 m -2.898 -17.628 c -0.285 -0.707 -0.523 -1.414 -0.523 -1.508 c 0 -0.141 1.045 -0.236 2.328 -0.283 c 1.283 -0.047 32.876 -4.713 70.17 -10.323 c 37.29 -5.609 68.56 -10.228 69.46 -10.228 c 2.28 0 2.09 2.31 -0.285 2.828 c -1.045 0.236 -8.267 1.32 -16.01 2.451 c -7.791 1.131 -16.438 2.404 -19.241 2.875 c -2.803 0.424 -10.119 1.555 -16.248 2.451 c -6.129 0.896 -13.445 1.98 -16.248 2.451 c -2.803 0.424 -10.119 1.508 -16.248 2.404 c -6.129 0.943 -13.398 2.027 -16.248 2.451 c -18.01 2.875 -37.39 5.703 -38.815 5.703 c -0.855 0 -1.853 -0.566 -2.138 -1.273 m -3.041 -17.06 c 0 -0.66 0.143 -1.226 0.38 -1.226 c 0.19 0 32.02 -4.761 70.69 -10.558 c 38.672 -5.845 70.836 -10.605 71.5 -10.605 c 0.665 0 1.045 0.66 0.855 1.414 c -0.19 1.178 -2.423 1.744 -12.21 3.205 c -17.578 2.64 -28.03 4.195 -37.2 5.562 c -11.925 1.791 -23.327 3.535 -32.07 4.808 c -4.228 0.66 -18.766 2.875 -32.31 4.902 c -27.22 4.148 -29.646 4.336 -29.646 2.498 m -2.565 -16.309 c 0 -0.66 0.475 -1.414 1.093 -1.65 c 0.618 -0.236 32.639 -5.138 71.17 -10.935 c 66.09 -9.945 73.829 -10.841 70.883 -8.249 c -0.808 0.707 -4.276 1.273 -29.03 4.996 c -6.129 0.896 -13.398 1.98 -16.248 2.451 c -5.891 0.896 -13.11 2.027 -61.809 9.333 c -19.431 2.922 -35.489 5.326 -35.679 5.326 c -0.238 0 -0.38 -0.566 -0.38 -1.273 m -2.898 -14.05 c -0.855 -1.367 -3.088 -15.932 -3.088 -20.362 c 0 -2.357 0.523 -5.468 1.14 -6.929 c 1.71 -3.818 6.176 -7.589 10.262 -8.579 c 3.183 -0.801 24.325 -4.054 96.59 -14.848 c 25.08 -3.724 26.843 -3.724 32.02 0.424 c 3.421 2.781 5.04 6.787 6.984 17.393 c 1.71 9.663 1.663 11.218 -0.665 11.878 c -0.808 0.236 -32.21 4.996 -69.838 10.652 c -37.627 5.609 -69.41 10.417 -70.65 10.652 c -1.235 0.236 -2.47 0.141 -2.756 -0.283" transform="matrix(0.08222 0 0 0.08287 2.651 3.481)" fill="#fbea5b" stroke="#fbea5b" stroke-width="2.514"/></svg>