<svg xmlns="http://www.w3.org/2000/svg" viewBox="0 0 32 32"><path d="m 24.23 2.684 c 28.16 23.891 -29.75 46.863 -23.797 9.914 c 1.305 -8.102 16.207 -16.352 23.797 -9.914" fill="#b0dfe5"/><g fill="#11558b"><path d="m 6.914 14.473 c -1.699 -1.152 -1.789 -3.277 -0.195 -4.648 c 0.707 -0.609 1.184 -0.758 2.414 -0.758 c 1.883 -0.004 2.742 0.496 3.164 1.836 c 0.211 0.664 0.211 0.742 -0.004 1.535 c -0.16 0.586 -0.371 1 -0.719 1.395 c -0.738 0.84 -1.129 0.977 -2.77 0.977 c -1.297 0 -1.434 -0.023 -1.891 -0.336 m 3.223 -0.953 c 0.633 -0.395 0.977 -1.145 0.906 -1.988 c -0.066 -0.809 -0.324 -1.141 -1.035 -1.332 c -0.566 -0.152 -1.648 -0.059 -2.082 0.18 c -0.563 0.309 -0.863 0.859 -0.914 1.676 c -0.039 0.652 -0.004 0.832 0.238 1.137 c 0.813 0.719 1.992 0.867 2.887 0.328"/><path d="m 14.918 14.688 c -1.539 -0.477 -2.332 -2.34 -1.641 -3.855 c 1.152 -1.863 2.285 -1.84 4.066 -1.848 c 1.855 0 1.879 -0.031 1.34 0.664 c -0.473 0.609 -0.48 0.332 -1.664 0.395 c -1.035 0.059 -1.883 0.176 -2.387 1.113 c -0.27 0.516 -0.242 1.383 0.055 1.875 c 0.324 0.523 0.867 0.676 2.457 0.676 c 0.68 0 1.27 0.051 1.309 0.113 c 0.039 0.063 -0.16 0.32 -0.441 0.574 c -0.5 0.453 -0.527 0.461 -1.563 0.453 c -0.578 -0.008 -1.27 -0.078 -1.531 -0.16"/><path d="m 19.07 14.836 c -0.031 -0.055 0.746 -0.961 1.73 -2.01 c 1.906 -2.031 2.234 -2.438 2.09 -2.582 c -1.063 -0.137 -1.773 -0.148 -3.01 -0.125 c 0.113 -0.359 0.398 -0.781 0.672 -1.055 l 2.25 0.004 c 1.234 0 2.332 0.055 2.43 0.117 c 0.293 0.184 0.082 0.484 -1.754 2.488 c -0.934 1.02 -1.664 1.914 -1.621 1.984 c 0.699 0.277 2.918 -0.074 3.258 0.27 c -0.227 0.422 -0.52 0.66 -0.867 1.01 h -2.559 c -1.406 0 -2.586 -0.043 -2.621 -0.098"/><path d="m 7.563 25.719 l 1.34 -1.461 c 0.738 -0.801 2.316 -2.453 3.512 -3.672 l 2.168 -2.211 c 0.344 0.02 2.254 -0.07 2.211 0.188 c -0.023 0.098 -1.59 1.777 -3.488 3.73 l -3.445 3.555 c -0.871 0.012 -1.512 0.043 -2.297 -0.129"/><path d="m 15.73 25.719 l 3.492 -3.598 c 1.922 -1.977 3.578 -3.629 3.68 -3.668 c 0.836 -0.102 1.488 -0.07 2.367 -0.07 l -1.324 1.426 c -0.727 0.785 -2.328 2.465 -3.555 3.73 l -2.234 2.309 c -0.824 0.051 -1.715 -0.031 -2.426 -0.129"/></g><g fill="#36b2e5"><path d="m 6.16 22.945 c 0.336 -0.371 1.863 -1.969 3.395 -3.555 l 2.777 -2.887 c 0.617 -0.008 1.344 -0.258 1.941 -0.059 c 0.273 0.102 0.055 0.355 -3.055 3.559 l -3.352 3.449 c -0.773 0.09 -1.629 0.16 -2.316 0.16"/><path d="m 14.301 23.543 c -0.363 -0.078 -0.258 -0.199 2.953 -3.535 c 1.809 -1.879 3.449 -3.676 3.602 -3.668 c 0.922 0.039 1.629 -0.078 1.898 0.023 c 0.281 0.105 -0.117 0.422 -3.316 3.719 l -3.422 3.531 c -0.559 -0.023 -1.168 0.043 -1.715 -0.07"/></g></svg>