<svg xmlns="http://www.w3.org/2000/svg" viewBox="0 0 32 32"><path d="m 1.266 20.777 c -5.934 -16.77 15.383 -24.922 23.391 -18.1 c 8 6.828 10.742 18.527 1.672 24.414 c -9.07 5.887 -19.949 8.328 -25.06 -6.316" fill="#c00"/><path d="m 60.5 200.98 c -36.28 -42.19 -35.406 -84.938 -15.469 -119.03 c 17.344 -28.781 49.969 -45.906 84.66 -45.906 c 44.34 0 83.59 28.688 95.63 70.938 c 4.594 21.719 3.03 48.563 -8.438 68.66 c -15.563 31.625 -49.37 50.563 -85.59 52.31 c -25.625 1.219 -55.37 -12.719 -70.781 -26.969 m 80.25 21.16 c 27.719 -3.844 50.22 -17.5 65.31 -39.594 c 34.906 -51.22 9.5 -120.44 -50.875 -138.5 c -18 -3.406 -34.34 -4.938 -51 0 c -32.12 9.625 -56.38 34.75 -64.69 66.969 c -2.375 15 -2.563 30.625 0.969 43.781 c 11.875 43.75 56.19 73.5 100.28 67.34 m -53.688 -27.438 c -0.438 -1.156 4.03 -9.969 15.625 -30.75 c 10.25 -18.344 15.438 -27.969 15.438 -28.563 c 0 -0.313 -5.438 -0.563 -12.09 -0.563 c -11.594 0 -15.281 -0.688 -17 -3.188 c -0.406 -0.563 -0.719 -4.75 -0.719 -9.25 l -0.031 -8.219 c -3.5 -0.344 -9.281 0.969 -11.938 -1.469 c -2.375 -2.313 -2.969 -6.094 -1.406 -8.813 c 1.281 -2.188 2 -2.438 8.594 -2.656 c 8.25 -0.313 16.313 -1.156 16.313 -1.75 c 0 -0.219 -1.531 -1.813 -2.406 -4.094 c -2.031 -5.375 -1.938 -7.781 -0.5 -10.531 c 3.5 -6.656 7.813 -9.25 14.563 -9.25 c 7.03 0.031 11.781 3.656 15.219 8.781 l 2.313 3.469 l 1.688 -2.719 c 0.938 -1.469 3.531 -5.594 5.469 -7.03 c 6.5 -4.813 18.469 -2.406 22.344 5.719 c 1.75 3.656 2.531 8.688 0.031 11.813 c -2.938 3.656 -2.438 4.438 2.813 4.438 c 4.969 0 7.125 1.25 8.281 4.813 c 0.594 1.781 1.094 1.906 6.094 1.313 c 2.969 -0.375 5.938 -1.094 6.563 -1.594 c 0.656 -0.5 6.781 -5.125 8.03 -4.969 c 3.094 2.469 2.875 28.09 1.188 33.719 c -0.438 1.156 -4.125 -2.156 -8.188 -2.688 c -3.625 -0.063 -6.938 -2.156 -10.06 -2.844 c -2.781 -0.563 -3.156 -0.375 -3.719 1.781 c -1.156 4.5 -3.563 5.219 -17 5.219 c -6.75 0 -12.281 0.375 -12.281 0.844 c 0 0.938 5.281 13.719 6.688 16.219 c 4.219 9.03 8.406 18.844 12.25 27.313 c 3.594 7.875 6.03 14.469 5.719 15.313 c -1.719 4.344 -5.594 -0.906 -19.16 -25.875 c -3.656 -6.719 -8.156 -14.06 -11.281 -19.875 c -2.563 -4.781 -5.094 -8.844 -5.625 -9.03 c -0.563 -0.156 -4.156 4.438 -8.03 10.281 c -17.938 26.969 -28.625 42.719 -30.06 44.25 c -1.813 1.906 -3.125 2.094 -3.75 0.469 m 46.5 -95.53 c -1.594 -2.063 -2.938 -5.03 -4.563 -6.625 c -0.594 0 -3.563 4.125 -4.875 6.781 c 2.938 1.094 6.688 1.031 9.438 -0.156" transform="matrix(0.125 0 0 0.125 -0.059 -0.177)" stroke="#000" stroke-width="0.951"/><g fill="#ff9f79"><path d="m 14.852 11.07 c 0 0.523 -0.445 0.941 -0.996 0.941 c -0.551 0 -0.996 -0.418 -0.996 -0.941 c 0 -0.52 0.445 -0.941 0.996 -0.941 c 0.551 0 0.996 0.422 0.996 0.941"/><path d="m 19.03 11.05 c 0 0.52 -0.445 0.941 -0.996 0.941 c -0.551 0 -0.996 -0.422 -0.996 -0.941 c 0 -0.523 0.445 -0.945 0.996 -0.945 c 0.551 0 0.996 0.422 0.996 0.945"/></g></svg>