<svg xmlns="http://www.w3.org/2000/svg" xmlns:xlink="http://www.w3.org/1999/xlink" viewBox="0 0 32 32"><defs><g id="6" clip-path="url(#5)"><path d="m 29.11 95.61 h 10.225 v -55.609 h -6.166 l -21 10.725 l 3.847 7.246 l 13.1 -5.894" transform="matrix(0.14823 0 0 0.13585 4.849 7.152)" stroke="#000" stroke-linejoin="round" stroke-width="2.646"/><path d="m 33.17 33.388 c -1.028 0 -2.055 0.259 -2.978 0.719 l -21.03 10.725 c -1.581 0.805 -2.767 2.185 -3.294 3.882 c -0.527 1.696 -0.369 3.537 0.448 5.089 l 3.847 7.275 c 1.634 3.077 5.376 4.371 8.565 2.933 l 3.768 -1.696 v 33.3 c 0 3.652 2.951 6.613 6.614 6.613 h 10.225 c 3.663 0 6.614 -2.962 6.614 -6.613 v -55.58 c 0 -3.68 -2.951 -6.642 -6.614 -6.642" transform="matrix(0.14823 0 0 0.13585 4.849 7.152)" fill="#fff" stroke="#000" stroke-linejoin="round" stroke-width="2.646"/><path d="m 72.41 96.24 c 11.753 0 19.817 -7.648 19.817 -18.833 c 0 -10.15 -6.641 -16.878 -16.391 -16.878 c -5.982 0 -11.02 2.473 -14.283 6.958 c 0.158 -12.939 5.429 -19.725 15.653 -19.725 c 3.742 0 8.06 0.949 11.411 2.559 l 2.714 -7.85 c -4.216 -2.157 -9.01 -3.278 -14.204 -3.278 c -16.549 0 -25.641 11.04 -25.641 29.961 c 0 17.511 7.59 27.09 20.924 27.09 m -10.383 -21.08 c 2.24 -3.997 6.219 -6.326 10.699 -6.326 c 5.824 0 9.513 3.767 9.513 9.517 c 0 5.521 -3.426 9.259 -8.96 9.259 c -6.06 0 -9.909 -4.399 -11.252 -12.45" transform="matrix(0.14823 0 0 0.13585 4.849 7.152)" stroke="#000" stroke-linejoin="round" stroke-width="2.646"/><path d="m 77.13 32.612 c -9.75 0 -18.42 3.537 -24.09 10.207 c -5.666 6.671 -8.169 15.814 -8.169 26.367 c 0 9.69 2.029 17.971 6.852 24.15 c 4.796 6.182 12.438 9.517 20.687 9.517 c 7.3 0 14.05 -2.444 18.868 -7.04 c 4.822 -4.601 7.563 -11.214 7.563 -18.402 c 0 -6.527 -2.24 -12.565 -6.43 -16.849 c -1.528 -1.581 -3.32 -2.76 -5.27 -3.795 c 3.294 0.748 6.614 -1.093 7.721 -4.284 l 2.714 -7.821 c 1.08 -3.134 -0.29 -6.556 -3.241 -8.05 c -5.191 -2.674 -11.07 -3.997 -17.208 -3.997 m -4.401 42.842 c 1.502 0 1.95 0.374 2.24 0.661 c 0.29 0.288 0.659 0.776 0.659 2.243 c 0 1.38 -0.369 1.898 -0.58 2.157 c -0.237 0.23 -0.501 0.489 -1.766 0.489 c -1.423 0 -1.739 -0.173 -2.477 -1.01 c -0.474 -0.518 -1 -1.696 -1.502 -3.22 c 0.949 -0.776 2.029 -1.323 3.426 -1.323" transform="matrix(0.14823 0 0 0.13585 4.849 7.152)" fill="#fff" stroke="#000" stroke-linejoin="round" stroke-width="2.646"/><path d="m 113.07 95.61 h 10.225 v -55.609 h -6.14 l -21.03 10.725 l 3.847 7.246 l 13.1 -5.894" transform="matrix(0.14823 0 0 0.13585 4.849 7.152)" stroke="#000" stroke-linejoin="round" stroke-width="2.646"/><path d="m 117.13 33.388 c -1.028 0 -2.055 0.259 -2.978 0.719 l -21.03 10.725 c -1.581 0.805 -2.767 2.185 -3.294 3.882 c -0.527 1.696 -0.369 3.537 0.448 5.089 l 3.847 7.275 c 1.634 3.077 5.376 4.371 8.565 2.933 l 3.768 -1.696 v 33.3 c 0 3.652 2.951 6.613 6.614 6.613 h 10.225 c 3.663 0 6.614 -2.962 6.614 -6.613 v -55.58 c 0 -3.68 -2.951 -6.642 -6.614 -6.642" transform="matrix(0.14823 0 0 0.13585 4.849 7.152)" fill="#fff" stroke="#000" stroke-linejoin="round" stroke-width="2.646"/></g><clipPath id="5"><path d="M 0,0 H32 V32 H0 z"/></clipPath><filter id="3" filterUnits="objectBoundingBox" x="0" y="0" width="32" height="32"><feColorMatrix type="matrix" in="SourceGraphic" values="0 0 0 0 1 0 0 0 0 1 0 0 0 0 1 0 0 0 1 0"/></filter><mask id="4"><g filter="url(#3)"><path fill-opacity="0.2" d="M 0,0 H32 V32 H0 z"/></g></mask></defs><path d="m 12.672 0.82 c -16.48 2.449 -16.977 26.848 -0.953 30.535 c 12.973 3.793 23.578 -9.949 19.328 -20.227 c -2.01 -6.883 -10.227 -12.445 -18.371 -10.309" fill="#696969"/><use xlink:href="#6" mask="url(#4)"/><path d="m 9.164 20.14 h 1.516 v -7.555 h -0.914 l -3.113 1.457 l 0.57 0.984 l 1.941 -0.801" id="0"/><path d="m 9.766 11.688 c -0.152 0 -0.305 0.035 -0.441 0.098 l -3.117 1.457 c -0.234 0.109 -0.41 0.297 -0.488 0.527 c -0.078 0.23 -0.055 0.48 0.066 0.691 l 0.57 0.988 c 0.242 0.418 0.797 0.594 1.27 0.398 l 0.559 -0.23 v 4.523 c 0 0.496 0.438 0.898 0.98 0.898 h 1.516 c 0.543 0 0.98 -0.402 0.98 -0.898 v -7.551 c 0 -0.5 -0.438 -0.902 -0.98 -0.902" fill="#fff"/><path d="m 15.582 20.227 c 1.742 0 2.938 -1.039 2.938 -2.559 c 0 -1.379 -0.984 -2.293 -2.43 -2.293 c -0.887 0 -1.633 0.336 -2.117 0.945 c 0.023 -1.758 0.805 -2.68 2.32 -2.68 c 0.555 0 1.195 0.129 1.691 0.348 l 0.402 -1.066 c -0.625 -0.293 -1.336 -0.445 -2.105 -0.445 c -2.453 0 -3.801 1.5 -3.801 4.07 c 0 2.379 1.125 3.68 3.102 3.68 m -1.539 -2.863 c 0.332 -0.543 0.922 -0.859 1.586 -0.859 c 0.863 0 1.41 0.512 1.41 1.293 c 0 0.75 -0.508 1.258 -1.328 1.258 c -0.898 0 -1.469 -0.598 -1.668 -1.691" id="1"/><path d="m 16.281 11.582 c -1.445 0 -2.73 0.48 -3.57 1.387 c -0.84 0.906 -1.211 2.148 -1.211 3.582 c 0 1.316 0.301 2.441 1.016 3.281 c 0.711 0.84 1.844 1.293 3.066 1.293 c 1.082 0 2.082 -0.332 2.797 -0.957 c 0.715 -0.625 1.121 -1.523 1.121 -2.5 c 0 -0.887 -0.332 -1.707 -0.953 -2.289 c -0.227 -0.215 -0.492 -0.375 -0.781 -0.516 c 0.488 0.102 0.98 -0.148 1.145 -0.582 l 0.402 -1.063 c 0.16 -0.426 -0.043 -0.891 -0.48 -1.094 c -0.77 -0.363 -1.641 -0.543 -2.551 -0.543 m -0.652 5.82 c 0.223 0 0.289 0.051 0.332 0.09 c 0.043 0.039 0.098 0.105 0.098 0.305 c 0 0.188 -0.055 0.258 -0.086 0.293 c -0.035 0.031 -0.074 0.066 -0.262 0.066 c -0.211 0 -0.258 -0.023 -0.367 -0.137 c -0.07 -0.07 -0.148 -0.23 -0.223 -0.438 c 0.141 -0.105 0.301 -0.18 0.508 -0.18" fill="#fff"/><path d="m 21.609 20.14 h 1.516 v -7.555 h -0.91 l -3.117 1.457 l 0.57 0.984 l 1.941 -0.801" id="2"/><path d="m 22.21 11.688 c -0.152 0 -0.305 0.035 -0.441 0.098 l -3.117 1.457 c -0.234 0.109 -0.41 0.297 -0.488 0.527 c -0.078 0.23 -0.055 0.48 0.066 0.691 l 0.57 0.988 c 0.242 0.418 0.797 0.594 1.27 0.398 l 0.559 -0.23 v 4.523 c 0 0.496 0.438 0.898 0.98 0.898 h 1.516 c 0.543 0 0.98 -0.402 0.98 -0.898 v -7.551 c 0 -0.5 -0.438 -0.902 -0.98 -0.902" fill="#fff"/><use xlink:href="#0"/><use xlink:href="#1"/><use xlink:href="#2"/></svg>