<svg xmlns="http://www.w3.org/2000/svg" viewBox="0 0 32 32"><path d="m 0.664 15.496 c -3.102 15.08 20.52 22.23 28.813 9.258 c 8.383 -13.12 -7.367 -31.949 -21.246 -21.754 c -4.129 3.035 -6.555 7.578 -7.566 12.496" fill="#2f4e4e"/><path d="m 17.207 22.13 c -0.738 -0.188 -0.137 -0.348 0.148 -0.617 c 1.324 -1.246 2.875 -2.555 3.945 -4.113 c 0.609 -0.891 1.582 -2.602 1.961 -3.438 c 0.18 -0.402 0.199 -0.422 0.34 -0.301 c 0.082 0.066 0.215 0.156 0.293 0.199 c 0.191 0.102 0.313 0.727 0.313 1.633 c 0 1.75 -0.699 3.27 -2.094 4.563 c -0.773 0.719 -1.363 1.098 -2.371 1.523 c -0.949 0.398 -2.336 0.602 -2.535 0.551 m -4.41 -0.656 c -0.383 -0.18 -0.91 -0.465 -1.168 -0.641 c -0.262 -0.172 -0.512 -0.313 -0.563 -0.313 c -0.059 0 -0.09 -0.555 -0.09 -1.652 l 0.145 -2.027 c 5.656 -3.906 3.719 -2.691 7.914 -5.637 c 0.105 -0.023 0.902 0.754 0.902 0.879 c 0 0.043 -0.117 0.156 -0.262 0.25 c -0.336 0.219 -0.359 0.492 -0.285 0.707 c 0.379 0.547 0.789 0.871 1.285 1.371 l 0.207 0.457 l -0.508 0.875 c -1.375 1.848 -4.953 6.918 -7.578 5.73 m -4.16 -6.516 c -0.074 -0.105 0.102 -1.01 0.301 -1.535 c 0.379 -0.988 0.926 -1.773 1.781 -2.563 c 1 -0.926 2.328 -1.617 3.715 -1.934 c 0.781 -0.18 3.277 -0.086 3.371 0.047 c 0.031 0.043 -2.02 1.25 -4.266 2.941 c -3.922 2.941 -4.113 3.074 -4.473 3.098 c -0.207 0.012 -0.402 -0.012 -0.43 -0.055 m 12.512 -1.66 c -0.102 -0.121 -0.188 -0.254 -0.188 -0.289 c 0 -0.039 0.18 -0.199 0.395 -0.355 c 0.301 -0.215 0.441 -0.438 0.41 -0.328 c -0.027 0.078 -0.148 0.5 -0.211 0.707 c -0.141 0.5 -0.184 0.531 -0.406 0.266 m -0.488 -2.402 c -0.605 -0.57 -0.648 -0.637 -0.586 -0.98 c 0.031 -0.168 0.102 -0.305 0.152 -0.305 c 0.203 -0.121 2.195 1.363 1.414 1.438 c -0.262 0.094 -0.344 0.066 -0.574 0.223" fill="#0000cd"/><g fill="#009f35" stroke="#009f35"><path d="m 11.843 197.42 v -56.788 l 2.655 -4.792 c 5.676 -10.135 16.02 -16.03 26.14 -14.927 c 4.852 0.551 6.225 0.165 10.208 -2.809 c 6.225 -4.627 63.765 -53.32 80.43 -68.08 c 7.416 -6.555 15.01 -12.669 16.891 -13.605 c 6.729 -3.195 15.06 -1.157 20.05 4.957 c 2.151 2.644 2.472 4.02 2.06 9.09 c -0.504 5.783 -0.366 6.224 4.669 12.283 c 6.821 8.262 8.24 9.03 12.13 6.775 c 3.067 -1.763 3.113 -1.763 3.799 1.928 c 1.327 7.546 0.778 9.198 -4.715 14.817 c -2.975 3.03 -5.402 6.224 -5.402 7.16 c 0 0.881 3.662 5.728 8.148 10.741 c 9.109 10.19 10.437 12.338 9.476 15.15 c -0.961 2.864 -5.951 5.398 -8.468 4.296 c -3.159 -1.322 -25.27 -28.862 -25.27 -31.396 c 0 -1.212 1.694 -4.076 3.754 -6.334 c 2.06 -2.258 3.754 -4.682 3.754 -5.398 c 0 -1.542 -8.194 -11.292 -10.849 -12.889 c -1.465 -0.936 -11.123 6.72 -49.3 39.11 l -47.42 40.26 v 113.96 c -25.18 1.212 -16.296 0.11 -52.733 1.212" transform="matrix(0.08534 0 0 0.07092 5.478 6.339)" stroke-width="1.018"/><path d="m 199.18 103.68 c -1.611 -1.294 -1.71 -1.679 -0.855 -3.532 c 0.526 -1.154 0.756 -2.413 0.493 -2.798 c -0.23 -0.385 -0.099 -0.734 0.329 -0.734 c 0.427 0 0.888 -0.595 1.052 -1.329 c 0.23 -1.119 0.723 -0.909 2.762 1.224 c 2.893 3.043 3.124 4.861 0.789 7.03 c -2.071 1.958 -2.335 1.958 -4.57 0.14" transform="matrix(0.1188 0 0 0.1117 0.17 1.81)" stroke-width="0.688"/></g><path d="m 66.41 227.32 v -25.723 l 3.067 3.801 c 4.486 5.508 9.476 7.932 17.486 8.593 c 6.271 1.652 9.613 -2.699 14.557 -4.517 c 16.07 -5.783 37.948 -24.511 54.11 -46.32 c 6.454 -8.703 19.958 -30.735 24.49 -39.878 l 1.923 -3.911 l 3.799 3.801 c 4.349 4.241 8.835 4.847 12.176 1.597 c 4.44 -4.296 3.982 -6.775 -2.884 -15.753 l -6.363 -8.317 l 2.243 -9.03 c 1.556 -6.389 2.289 -12.944 2.335 -22.308 c 0.137 -12.834 0.046 -13.385 -3.159 -18.782 c -3.662 -6.169 -10.254 -10.52 -17.349 -11.567 c -2.38 -0.33 -6.912 -1.707 -10.02 -3.085 c -7.05 -3.085 -9.02 -3.085 -14.236 -0.055 c -3.296 1.873 -4.898 2.093 -7.645 1.212 c -7.828 -2.424 -16.11 -0.881 -12.359 -3.14 c 21.56 -17.19 37.627 -26.824 49.44 -29.688 c 11.123 -2.809 14.14 -4.02 21.881 -1.102 c 3.067 0 9.842 4.627 13.412 9.198 c 6.363 8.207 7 11.181 7 32.663 c 0 18.562 -0.183 20.16 -4.12 37.01 c -8.697 37.07 -32.409 79.59 -66.47 119.19 c -6.5 9.584 -16.616 15.202 -23.849 21.04 c -13.183 8.648 -39.09 30.57 -55.846 30.845 h -3.662" transform="matrix(0.08534 0 0 0.07092 5.478 6.339)" fill="#7f002f" stroke="#7f002f" stroke-width="1.019"/></svg>