<svg xmlns="http://www.w3.org/2000/svg" viewBox="0 0 32 32"><path d="m 30.605 10.934 c 6.211 15.926 -11.195 24.09 -22.03 20.04 c -7.563 -2.832 -11.332 -14.12 -5.961 -23.254 c 6.777 -11.516 23.2 -9.07 27.988 3.219" fill="#3f63d7" fill-opacity="0.804"/><g stroke="#ff9f79" transform="matrix(0.11395 0 0 0.10848 1.968 2.61)"><path d="m 135.79 180.82 c 0 -7.85 0 -7.922 -2.64 -8.498 c -1.474 -0.36 -26.26 -0.864 -55.12 -1.188 l -52.45 -0.612 c 0.309 -3.205 -0.891 -9 1.611 -11.162 c 1.303 -1.044 11.621 -1.332 55.6 -1.62 l 53.993 -0.288 l 0.034 -4.897 c 0.034 -2.665 0.377 -6.481 0.72 -8.426 l 0.686 -3.565 l 3.6 2.917 c 7.713 6.193 20.74 14.223 25.2 15.519 c 8.193 2.377 18.238 -0.9 30.442 -9.902 c 2.811 -2.088 5.245 -3.781 5.451 -3.781 c 0.206 0 0.686 2.232 1.028 4.969 c 1.097 8.354 0.206 7.778 12.341 7.778 c 14.981 0 21.529 -3.169 17.964 9.686 l -0.857 3.061 h -27.734 l -0.617 2.953 c -0.309 1.62 -0.583 4.321 -0.583 6.01 c 0 4.321 -1.063 8.966 -2.023 8.966 c -0.48 0 -4.559 -3.421 -9.119 -7.598 c -9.359 -8.606 -14.295 -11.234 -21.255 -11.27 c -7.03 0 -10.593 1.26 -15.735 5.689 c -5.01 4.321 -18.238 13.179 -19.643 13.179 c -0.48 0 -0.891 -3.565 -0.891 -7.922" fill="#ff0" fill-opacity="0.992" stroke-width="0.04"/><path d="m 55.58 108.09 c -6.274 -0.324 -9.976 -0.792 -10.524 -1.368 c -1.097 -1.08 -1.508 -18.904 -0.857 -37.02 l 0.48 -13.215 h 105.24 v 51.49 h -19.54 c -10.764 0 -29.825 0.144 -42.34 0.288 c -12.513 0.18 -27.12 0.072 -32.465 -0.18" fill="#3dc201" stroke-width="0.03"/><g stroke-width="0.035"><path d="m 41.07 110.39 c -2.16 -0.288 -4.388 -0.792 -4.937 -1.116 c -0.754 -0.504 -0.994 -6.373 -0.96 -24.917 c 0 -13.359 0.206 -26.18 0.48 -28.446 l 0.514 -4.177 h 122.42 v 58.33 l -5.314 0.504 c -6.822 0.648 -106.89 0.468 -112.2 -0.18 m 18.958 -15.879 c 2.297 -0.9 2.605 -2.809 0.823 -5.365 c -0.823 -1.152 -1.474 -5.04 -1.954 -11.45 c -0.926 -12.387 -1.131 -13.03 -4.457 -14.12 c -2.263 -0.756 -3.085 -0.684 -4.662 0.36 c -2.365 1.548 -2.331 1.332 -0.377 5.01 c 1.988 3.709 2.263 16.02 0.411 19.19 c -2.263 3.925 -2.297 4.177 -0.446 5.653 c 1.988 1.62 7.336 1.98 10.662 0.72 m 17.689 -0.36 c 4.834 -2.485 7.302 -7.274 7.302 -14.08 c 0 -5.941 -1.474 -10.514 -4.491 -14.04 c -3.462 -4.03 -6.171 -4.249 -10.08 -0.792 c -7.61 6.661 -7.268 23.369 0.549 28.374 c 3.02 1.944 3.908 2.02 6.719 0.54 m 30.339 -0.108 c 1.303 -0.684 3.805 -2.521 5.554 -4.105 c 7.885 -7.13 8.982 -17.18 2.605 -23.549 c -3.84 -3.853 -5.999 -4.213 -9.873 -1.656 c -7.885 5.221 -8.193 11.414 -1.028 19.804 l 2.674 3.133 l -2.605 0.828 c -1.783 0.576 -2.64 1.404 -2.811 2.665 c -0.617 4.141 1.2 5.077 5.485 2.881 m 28.831 -1.152 c 7.096 -4.393 6.788 -14.619 -0.583 -19.876 l -2.4 -1.728 l 3.428 -1.656 c 3.737 -1.8 4.834 -4.213 2.743 -5.977 c -1.92 -1.584 -6.136 -0.36 -9.325 2.773 c -5.04 4.897 -4.731 9.434 0.788 12.03 c 2.537 1.188 2.982 1.8 3.188 4.429 c 0.309 3.673 -0.891 5.257 -3.942 5.257 c -3.668 0 -7.782 2.052 -7.782 3.889 c 0 0.864 0.617 1.98 1.371 2.449 c 2.091 1.296 9.359 0.36 12.513 -1.584 m -39.698 -0.18 c 1.303 -2.088 -1.097 -4.249 -3.394 -3.02 c -0.926 0.504 -1.68 1.548 -1.68 2.377 c 0 2.629 3.531 3.061 5.074 0.648"/><path d="m 73.2 87.02 c -0.583 -0.684 -0.823 -3.709 -0.686 -8.39 c 0.171 -5.905 0.48 -7.49 1.577 -8.174 c 2.331 -1.476 3.36 0.612 3.668 7.238 c 0.377 8.606 -1.68 12.819 -4.559 9.326"/><path d="m 108.03 77.949 c -1.2 -2.196 -1.063 -5.04 0.274 -6.877 c 2.263 -3.02 5.554 1.44 4.422 5.977 c -0.617 2.557 -3.531 3.097 -4.697 0.9"/><path d="m 169.7 158.61 c -1.543 -0.324 -3.805 -1.01 -5.074 -1.512 c -3.085 -1.26 -14.775 -8.93 -20.809 -13.647 c -2.743 -2.124 -5.416 -3.637 -6.03 -3.421 c -1.268 0.504 -2.125 5.437 -2.125 12.315 c 0 4.645 0 4.645 -2.365 4.645 h -2.365 l 0.034 -8.102 c 0.069 -9.686 0.926 -15.555 2.4 -16.492 c 3.462 -2.196 9.427 0.828 19.712 9.902 c 3.702 3.277 8.228 6.769 10.08 7.742 c 3.188 1.728 3.394 1.728 4.731 0.396 c 1.303 -1.296 -1.063 -3.745 0.24 -33.09 l -0.891 -29.13 h -9.667 c -4.971 -0.648 -0.686 -5.04 -0.686 -9.04 l 10.319 0.252 h 7.782 l 0.583 34.891 c 0.309 19.16 0.754 35.396 0.994 36.01 c 0.309 0.792 1.028 1.01 2.125 0.648 c 2.64 -0.792 11.347 -6.805 18.615 -12.855 c 10.696 -8.93 12.924 -8.39 13.918 3.349 c 0.686 8.282 -0.103 15.483 -1.783 16.13 c -1.954 0.756 -3.874 -2.521 -4.457 -7.634 c -0.411 -3.565 -0.857 -4.789 -1.885 -5.01 c -0.72 -0.144 -3.84 1.512 -6.891 3.709 c -6.342 4.501 -16.867 9.614 -20.98 10.19 c -1.508 0.216 -4.01 0.108 -5.519 -0.252"/><path d="m 200 195.84 c -3.84 -2.593 -11.519 -8.642 -17.07 -13.467 c -5.588 -4.825 -10.764 -8.75 -11.519 -8.75 c -1.988 0 -6.856 3.277 -19.13 12.963 c -5.862 4.609 -12.478 9.29 -14.638 10.406 l -3.977 2.02 l -1.371 -1.692 c -1.166 -1.44 -1.371 -3.421 -1.371 -12.747 c 0 -10.118 0.103 -11.05 1.371 -10.802 c 1.166 0.216 2.057 -2.377 2.571 3.817 c 0.343 4.141 0.343 11.739 0.686 12.1 c 0.686 0.648 12.684 -6.913 19.883 -12.567 c 5.965 -4.645 9.393 -5.941 15.975 -5.941 c 7.371 -0.036 11.45 1.98 21.632 10.766 c 10.04 8.642 10.49 8.894 11.381 6.553 c 0.377 -1.01 0.926 -4.681 1.234 -8.21 c 0.651 -7.202 1.166 -8.534 3.291 -8.102 c 1.988 0.36 2.468 3.097 2.605 14.655 c 0.103 10.19 -0.72 13.683 -3.154 13.683 c -0.788 0 -4.559 -2.088 -8.399 -4.681"/></g><path d="m 76.01 155.91 c -1.577 -0.504 -2.845 -1.368 -2.845 -1.944 c 0 -1.476 5.588 -3.889 9.05 -3.889 l 2.091 -0.288 l 0.034 -11.486 c 0 -6.661 -1.097 -18.04 0 -24.413 c -0.754 -11.486 7.816 -11.306 8.09 -4.177 c 0 3.997 0.274 14.727 0.583 23.837 l 0.583 16.528 h 2.948 c 3.874 0 9.325 2.593 8.845 4.213 c -0.206 0.684 -1.508 1.548 -2.914 1.872 c -3.977 0.972 -23.277 0.792 -26.465 -0.252" stroke-width="0.041"/></g></svg>