<svg xmlns="http://www.w3.org/2000/svg" viewBox="0 0 32 32"><path d="m 29.668 7.77 c -24.18 -28.16 -47.43 29.75 -10.04 23.797 c 8.199 -1.305 16.547 -16.207 10.04 -23.797" fill="#012537"/><path d="m 121.75 169.66 c -1.344 -1.188 -7.469 -7.03 -13.563 -13.03 c -6.125 -5.969 -16.09 -15.656 -22.16 -21.5 c -6.06 -5.875 -10.906 -10.813 -10.719 -10.969 c 0.344 -0.375 41.06 -1.375 53.906 -1.344 c 16.344 0.031 48.34 1 48.781 1.469 c 0.781 0.813 -44.531 45.06 -47.47 46.41 c -3.844 1.719 -5.875 1.5 -8.781 -1" transform="scale(0.125)" fill="#d2ecb8" stroke="#d2ecb8" stroke-width="1.753"/><g transform="matrix(0.06211 0 0 0.06954 8.144 6.504)"><path d="m 44.666 104.65 c -11.509 -15.896 -10.06 -40.11 3.459 -56.956 c 10.314 -12.919 23.71 -20.783 35.16 -20.783 c 7.924 0 27.421 9.437 31.886 15.447 c 2.704 3.707 5.849 2.921 15.283 -3.82 c 17.04 -12.133 27.798 -13.93 48.05 -8.145 c 21.321 6.122 33.71 28.534 33.899 61.56 l 0.063 14.773 l -19.308 1.18 c -22.767 1.404 -25.22 0.506 -51.26 -18.311 c -10.251 -7.414 -20.943 -13.481 -23.71 -13.481 c -2.767 -0.056 -10.629 4.213 -17.484 9.437 c -6.855 5.224 -15.03 11.234 -18.239 13.368 c -3.145 2.078 -5.094 5.224 -4.277 6.965 c 1.572 3.539 -6.101 5.842 -19.56 5.898 c -6.981 0 -9.748 -1.404 -13.962 -7.134 m 49.999 -23.14 c 7.107 -4.157 7.799 -13.425 1.509 -19.266 c -6.101 -5.673 -14.654 -4.943 -20.44 1.741 c -4.214 4.774 -4.465 6.628 -1.761 12.08 c 2.704 5.561 5.22 7.19 13.396 8.65 c 0.755 0.169 4.03 -1.292 7.296 -3.202 m 61.32 0 c 7.736 -4.55 8.239 -17.637 0.755 -21.01 c -8.239 -3.707 -15.534 -2.752 -20 2.64 c -5.597 6.684 -5.22 12.02 1.132 17.356 c 6.415 5.392 10.251 5.617 18.11 1.011" fill="#fff" stroke="#fff" stroke-width="7.32"/><path d="m 12.09 250.46 c -2.264 -3.089 -2.893 -5.617 -3.962 -16.233 c -0.692 -6.909 -1.321 -14.829 -1.321 -17.581 c -0.126 -6.572 -3.02 -11.07 -8.05 -12.357 c -2.075 -0.506 -5.03 -1.91 -6.604 -3.033 c -1.572 -1.18 -3.711 -2.078 -4.78 -2.078 c -1.887 0 -2.01 -1.011 -2.01 -12.919 c 0 -12.02 0.126 -12.919 2.138 -13.368 c 1.132 -0.281 2.453 -1.348 2.83 -2.359 c 0.377 -1.011 2.327 -3.707 4.277 -6.01 c 5.157 -6.066 5.597 -7.751 4.03 -17.356 c -0.818 -4.662 -1.447 -12.133 -1.447 -16.57 c -0.063 -7.414 0.126 -8.257 2.641 -10.448 c 2.39 -2.134 3.836 -2.415 12.893 -2.64 c 5.535 -0.169 10.566 -0.562 11.132 -0.843 c 1.321 -0.786 1.321 -5.785 0 -7.02 c -1.509 -1.46 -4.34 -17.862 -4.277 -25.333 c 0 -8.201 1.635 -18.873 3.899 -26.12 c 1.635 -5.224 7.296 -17.356 9.06 -19.491 c 16.16 -19.716 29.12 -28.14 55.911 -36.23 c 17.17 -2.696 20.88 -4.269 37.484 -4.269 c 22.704 2.584 30.377 3.314 39.434 5.392 c 3.082 0.73 8.05 2.64 17.484 6.797 c 2.579 1.123 6.792 3.595 9.371 5.448 c 2.579 1.854 5.094 3.314 5.535 3.314 c 1.195 0 18.365 16.514 18.365 17.637 c 0 0.281 1.384 2.415 3.02 4.718 c 3.899 5.448 8.113 14.548 10.503 22.693 c 2.641 8.931 2.641 30.893 0 39.993 c -2.893 9.942 -2.956 10.391 -1.95 11.796 c 0.629 0.899 3.711 1.46 8.931 1.629 c 12.201 0.393 15.346 3.202 14.277 12.694 c -0.252 2.415 -1.069 9.212 -1.761 15.222 c -0.755 6.46 -0.88 11.07 -0.314 11.459 c 0.943 0.618 4.214 5.111 8.302 11.402 c 1.384 2.134 1.761 5.392 1.761 16.177 v 13.537 l -8.49 3.707 c -9.748 4.269 -8.49 1.123 -11.384 28.31 c -1.01 9.04 -2.327 18.03 -3.082 19.996 l -1.321 3.539 l -109.94 0.225 l -109.94 0.281 m 209.37 -9.942 c 0.943 -1.629 1.635 -4.606 1.635 -6.572 c 0 -1.966 1.01 -8.762 2.201 -15.11 c 3.208 -16.514 3.145 -16.514 -5.786 -17.918 c -6.352 -0.955 -7.736 -1.573 -10.377 -4.55 c -2.138 -2.415 -3.082 -4.55 -3.082 -7.246 c 1.698 -6.516 6.352 -11.627 14.591 -14.604 c 2.201 -0.73 5.786 -2.359 7.862 -3.595 l 3.836 -2.247 l 1.95 -15.84 c 1.069 -8.762 2.01 -17.02 2.075 -18.367 c 0.189 -4.213 -3.585 -2.752 -10 3.988 c -3.27 3.314 -17.233 16.795 -31.13 29.882 c -13.836 13.09 -25.471 24.546 -25.912 25.557 c -0.503 1.292 1.321 3.707 7.421 9.38 c 8.805 8.313 11.01 11.178 8.742 11.178 c -1.572 0 -7.17 -3.37 -15.346 -9.156 c -7.484 -5.28 -9.371 -5.055 -17.04 2.247 c -7.924 7.527 -18.11 15.166 -22.515 16.795 c -1.824 0.674 -5.157 1.236 -7.484 1.236 c -7.862 0.056 -13.836 -3.426 -28.742 -17.02 c -4.717 -4.269 -9.623 -8.313 -10.943 -8.987 c -3.082 -1.517 -3.774 -1.123 -16.855 8.369 c -10.503 7.695 -19.56 13.481 -21.07 13.481 c -1.824 0 -1.824 -0.169 -0.189 -3.202 c 1.01 -1.741 2.327 -3.707 3.02 -4.325 c 6.289 -6.516 11.824 -12.526 18.553 -19.322 c 2.453 -2.528 4.528 -5.561 4.528 -6.797 c 0 -1.517 -8.428 -9.549 -29.12 -27.635 c -16.04 -14.04 -29.937 -26.456 -31.01 -27.579 c -2.075 -2.359 -4.591 -2.752 -5.346 -0.843 c -0.252 0.674 0.126 5.111 0.818 9.83 c 0.755 4.718 1.698 12.919 2.138 18.255 c 0.755 9.38 0.88 9.717 4.465 12.638 c 3.711 2.977 8.994 4.044 12.641 6.179 c 13.333 7.92 13.333 18.367 0 23.423 c -3.27 1.573 -7.484 1.348 -10.06 2.808 c -1.069 1.236 -1.132 3.595 -0.063 11.796 c 0.692 5.673 1.509 12.751 1.824 15.784 c 0.818 7.976 1.824 8.594 15.22 8.538 c 26.1 -0.056 184.34 1.685 184.78 2.078 c 1.069 1.011 2.264 0.169 3.774 -2.528 m -66.23 -50.553 c 3.082 -2.752 10.818 -9.493 17.17 -14.997 c 6.289 -5.505 14.214 -12.47 17.547 -15.503 c 8.176 -7.358 28.427 -24.939 33.459 -28.984 c 8.176 -6.628 9.308 -6.46 -48.43 -7.19 c -28.49 -0.393 -55.03 -0.955 -59.06 -1.348 c -5.346 -0.506 -7.673 -0.281 -8.931 0.674 c -1.384 1.067 -10.629 1.348 -46.48 1.236 c -44.654 -0.056 -44.717 -0.056 -44.654 2.022 c 0 1.236 1.824 3.37 4.528 5.28 c 2.516 1.741 6.981 5.336 9.937 7.976 c 6.352 5.673 27.358 23.984 31.949 27.916 c 1.761 1.46 9.937 8.65 18.18 15.896 c 25.534 22.468 33.899 29.377 36.23 29.882 c 16.918 1.011 27.61 -13.2 38.553 -22.861 m -75.974 -77.35 c 1.824 -0.674 1.824 -0.843 0.189 -2.134 c -4.03 -4.157 -3.774 -7.19 0.818 -9.998 c 2.327 0 14.968 -8.594 22.08 -14.997 c 11.509 -10.335 14.591 -10.56 24.591 -1.685 c 2.39 2.584 6.101 4.213 8.616 6.235 c 4.03 4.494 34.15 24.15 37.3 22.299 c 2.01 -3.314 35.22 0 37.861 -3.033 c 2.704 -3.202 -0.503 -28.422 1.132 -31.624 c -9.685 -26.18 -1.447 -27.411 -23.27 -44.04 c -2.39 -2.584 -14.528 -3.876 -17.358 -5.224 c -13.02 -6.403 -34.717 -1.123 -48.3 11.739 c -5.157 4.887 -7.736 4.437 -15.346 -2.64 c -4.03 -3.763 -8.931 -7.077 -13.522 -9.099 c -6.667 -2.921 -7.736 -3.146 -15.723 -2.696 c -10.566 0.618 -18.679 4.157 -27.17 11.796 c -15.597 14.1 -22.264 30.781 -19.497 48.924 c 1.321 8.762 6.163 19.828 10.629 24.265 l 2.767 2.752 l 16.1 -0.056 c 8.868 -0.056 16.981 -0.393 18.05 -0.786 m 61.63 -29.26 c -5.849 -2.191 -10.44 -8.706 -9.245 -13.144 c 0.377 -1.292 2.516 -4.213 4.78 -6.516 c 4.843 -4.943 9.06 -5.505 15.16 -2.134 c 5.409 3.033 6.415 4.662 6.415 10.391 c 0 4.494 -0.44 5.505 -3.459 8.201 c -3.836 3.426 -9.497 4.718 -13.648 3.202 m -64.53 -1.966 c -7.04 -5.224 -8.05 -14.885 -1.509 -14.885 c 1.195 0 1.95 -0.786 1.95 -1.854 c 0 -2.471 3.333 -5.168 6.352 -5.168 c 1.321 0 4.277 0.955 6.541 2.134 c 7.987 4.213 8.931 13.762 1.95 19.322 c -4.214 3.258 -11.132 3.483 -15.283 0.449 m 87.23 27.355 c -1.321 -0.225 -3.459 -0.225 -4.78 0 c 1.384 0.674 3.27 0.393 4.78 0" fill="#62625d" stroke="#62625d" stroke-width="1.034"/><path d="m 123.72 122.51 c -0.189 -0.169 -6.918 -1.123 -14.968 -2.134 c -11.698 -1.46 -15.346 -2.134 -17.861 -3.202 c -1.761 -0.786 -3.208 -1.629 -3.208 -1.854 c -1.258 -1.573 -2.767 -2.808 -3.648 -4.494 c 0 -1.573 1.572 -3.539 2.956 -3.876 c 2.579 -0.562 10.503 -5.168 18.05 -10.335 c 9.06 -6.291 10.44 -6.965 13.585 -6.965 c 1.95 0 3.396 0.618 8.05 3.707 c 8.176 5.448 11.698 7.471 16.541 9.437 c 2.893 3.258 12.327 7.471 12.453 11.122 c 0 1.123 0.314 1.573 1.258 1.629 c 0.692 0 -2.264 0.562 -6.541 1.236 c -10.692 1.685 -15.346 2.696 -20.503 4.437 c -4.465 1.517 -5.535 1.741 -6.163 1.292" fill="#ff0" stroke="#e3e671" stroke-width="1.835"/></g><path d="m 132.41 188.16 c -14.281 -0.219 -32.31 -0.438 -40.03 -0.469 c -10.656 -0.063 -14.344 -0.281 -15.12 -0.844 c -0.813 -0.594 -1.25 -2.313 -1.844 -7.469 c -0.438 -3.656 -0.813 -7.625 -0.813 -8.781 c -0.031 -2 0.094 -2.156 2.563 -2.844 c 3.781 -1.063 6.156 -2.688 7.06 -4.906 c 1.656 -3.969 -0.719 -7.719 -7.125 -11.156 c -4.938 -2.625 -5.188 -3.25 -6.25 -14.281 c -0.531 -5.281 -0.813 -9.75 -0.625 -9.938 c 0.188 -0.156 7.313 6.688 15.844 15.25 c 14.13 14.188 15.438 15.688 14.844 16.781 c -0.375 0.688 -3.125 4.094 -6.094 7.594 c -5.125 6 -7.406 9.594 -6.625 10.375 c 0.844 0.844 3.531 -0.75 10.531 -6.219 c 4.125 -3.219 7.781 -5.844 8.094 -5.844 c 0.313 0 3.438 2.688 6.938 6 c 7.281 6.844 10.125 8.594 13.844 8.594 c 3.813 0 6.06 -1.313 12.469 -7.375 c 3.625 -3.438 6.219 -5.469 7.03 -5.469 c 0.688 0 3 1.281 5.125 2.844 c 4.594 3.375 5.938 4.094 6.969 3.75 c 1 -0.375 -0.156 -2.125 -4.719 -7.313 l -3.469 -3.906 l 1.594 -1.938 c 2.438 -2.938 27.406 -29.75 29.22 -31.406 l 1.625 -1.469 l -0.406 4.094 c -0.188 2.25 -0.656 6.75 -1.031 10.03 l -0.656 5.969 l -4.156 2.156 c -6.219 3.219 -8.75 6.06 -8.656 9.688 c 0.094 3.844 2.563 5.906 8.438 7.188 c 1.375 0.281 1.625 0.625 1.625 2.25 c 0 2.406 -2.125 17.313 -2.656 18.656 c -0.438 1.156 3.5 1.125 -43.5 0.406" transform="scale(0.125)" fill="#d2ecb8" stroke="#d2ecb8" stroke-width="1.753"/></svg>