<svg xmlns="http://www.w3.org/2000/svg" viewBox="0 0 32 32"><path d="m 30.965 11.602 c 5.977 16.676 -15.496 24.785 -23.563 17.996 c -8.07 -6.789 -10.824 -18.422 -1.688 -24.277 c 9.137 -5.855 19.273 -10.395 25.25 6.285" fill="#95b1cf"/><path d="m 16.785 8.04 c -1.164 2.418 -4.66 4.84 -7.57 6.05 v 1.211 h 1.164 v 8.469 h 12.813 v -8.469 h 1.164 v -1.211 c -3.496 -1.207 -6.406 -3.629 -7.57 -6.05" fill-opacity="0.102"/><path d="m 9.797 14.688 h 12.813 v 8.469 h -12.813" fill="#0373be"/><path d="m 16.203 7.43 c -1.164 2.418 -4.66 4.84 -7.57 6.05 v 1.211 h 15.14 v -1.211 c -3.496 -1.207 -6.406 -3.629 -7.57 -6.05" fill="#1062a9"/><path d="m 16.203 14.688 c 0.512 2.953 1.336 5.82 2.91 8.469 l 2.332 -2.418 m -5.242 -6.05 l -5.242 6.05 l 2.328 2.418 c 1.539 -2.445 2.441 -5.316 2.914 -8.469" fill="#f9f9f9"/><path d="m 16.203 14.688 l 2.91 8.469 h -5.824" fill="#1f313d"/></svg>