<svg xmlns="http://www.w3.org/2000/svg" viewBox="0 0 32 32"><path d="m 1.508 21.949 c -12.02 -38.902 52.57 -19.445 22.363 7.207 c -6.05 5.34 -19.12 3.281 -22.363 -7.207" fill="#ff8c00"/><g fill="#ff0"><path d="m 14.988 12.602 c 0.008 0.043 0.016 0.082 0.027 0.125 l 0.262 -0.18"/><path d="m 20.637 7.04 c 0 0.004 0 0.004 0 0.008 l 0.695 -0.137"/></g><path d="m 9.609 25.09 c -0.07 -0.051 -3.18 -16.32 -3.129 -16.379 c 0.023 -0.027 2.621 -0.516 7.164 -1.34 l 7.121 -1.297 l 1.578 8.172 c 1.258 6.52 1.57 8.176 1.535 8.195 c -0.105 0.059 -14.227 2.676 -14.27 2.645" fill="#8b4512"/><path d="m 7.926 16.914 l -1.57 -8.203 l 1.156 -0.215 l 1.16 -0.215 l 1.574 8.207 l 1.57 8.203 l -1.156 0.215 l -1.16 0.215 m 7.199 -5.03 c -0.336 0.023 -0.801 0.008 -1.164 -0.039 c -1.395 -0.188 -2.719 -1.117 -3.41 -2.383 c -0.301 -0.551 -0.418 -0.875 -0.527 -1.438 c -0.32 -1.672 0.254 -3.32 1.555 -4.473 c 0.211 -0.188 0.719 -0.512 1.09 -0.695 c 0.23 -0.113 0.371 -0.152 1.047 -0.277 c 0.863 -0.16 1.01 -0.16 1.754 -0.012 c 0.652 0.125 1.145 0.34 1.742 0.754 c 0.797 0.555 1.367 1.281 1.738 2.211 c 0.148 0.383 0.301 1.121 0.313 1.535 c 0.016 0.512 -0.098 1.246 -0.262 1.711 c -0.551 1.547 -1.762 2.637 -3.344 3 c -0.207 0.051 -0.445 0.094 -0.531 0.102 m -2.367 -1.254 c 0.23 -0.172 0.445 -0.32 0.477 -0.324 c 0.129 -0.027 0.625 -0.441 0.77 -0.648 c 0.152 -0.219 0.152 -0.227 0.121 -0.527 c -0.043 -0.453 -0.102 -0.602 -0.297 -0.781 c -0.156 -0.141 -0.285 -0.336 -0.398 -0.602 c -0.023 -0.055 -0.082 -0.113 -0.129 -0.129 c -0.223 -0.074 -0.402 -0.488 -0.309 -0.723 c 0.039 -0.098 0.035 -0.129 -0.09 -0.43 c -0.168 -0.422 -0.281 -0.984 -0.25 -1.285 c 0.066 -0.68 0.563 -1.129 1.383 -1.238 c 0.359 -0.051 0.531 -0.023 0.75 0.109 c 0.063 0.039 0.18 0.07 0.262 0.07 c 0.211 0 0.508 0.211 0.648 0.465 c 0.156 0.273 0.25 0.816 0.23 1.301 c -0.016 0.348 -0.012 0.379 0.063 0.457 c 0.09 0.094 0.156 0.395 0.121 0.527 c -0.016 0.051 -0.074 0.16 -0.133 0.238 c -0.066 0.094 -0.098 0.184 -0.086 0.246 c 0.023 0.129 -0.07 0.531 -0.16 0.695 c -0.07 0.125 -0.07 0.16 0.008 0.559 c 0.059 0.305 0.102 0.449 0.16 0.527 c 0.129 0.164 0.551 0.344 1.035 0.441 c 0.242 0.051 0.605 0.137 0.805 0.195 c 0.203 0.059 0.391 0.102 0.422 0.098 c 0.07 -0.016 0.344 -0.484 0.527 -0.902 c 0.215 -0.496 0.359 -1.207 0.363 -1.785 c 0 -0.328 -0.188 -1.309 -0.309 -1.59 c -0.457 -1.098 -1.219 -1.934 -2.223 -2.438 c -0.379 -0.195 -0.961 -0.371 -1.414 -0.438 c -0.777 -0.113 -1.953 0.105 -2.637 0.488 c -1.43 0.801 -2.293 2.262 -2.328 3.938 c -0.008 0.379 0.195 1.375 0.352 1.727 c 0.223 0.512 0.566 1.035 0.91 1.391 c 0.293 0.305 0.805 0.711 0.879 0.695 c 0.031 -0.004 0.246 -0.152 0.477 -0.328" fill="#ffdeac"/></svg>