<svg xmlns="http://www.w3.org/2000/svg" viewBox="0 0 32 32"><g fill="#fff"><path d="m 11.883 15.52 v 6.234 c 0 3.742 0.641 3.742 6.414 3.742 h 1.285 c 5.773 0 6.414 0 6.414 -3.742 v -6.234 c 0 -3.742 -0.641 -3.742 -6.414 -3.742 h -1.285 c -5.773 0 -6.414 0 -6.414 3.742 m 6.414 -2.492 h 1.285 c 5.133 0 5.133 0 5.133 2.492 v 4.367 c 0 2.492 0 2.492 -5.133 2.492 h -1.285 c -5.133 0 -5.133 0 -5.133 -2.492 v -4.367 c 0 -2.492 0 -2.492 5.133 -2.492"/><path d="m 14.449 20 v -2.418 l 2.246 -2.27 l 2.809 2.836 l 1.121 -1.137 l 2.809 2.836 v 0.152 c 0 1.133 -0.188 1.133 -2.246 1.133 h -4.492 c -2.059 0 -2.246 0 -2.246 -1.133"/><path d="m 23.43 15.52 c 0 0.688 -0.574 1.246 -1.281 1.246 c -0.711 0 -1.285 -0.559 -1.285 -1.246 c 0 -0.688 0.574 -1.246 1.285 -1.246 c 0.707 0 1.281 0.559 1.281 1.246"/><path d="m 15.73 9.285 c -5.773 0 -6.414 0 -6.414 3.742 v 6.234 c 0 2.027 0.188 2.957 1.281 3.383 v -9.617 c 0 -2.262 0.039 -2.469 3.852 -2.488 v -0.008 h 8.668 c -0.566 -1.246 -2.098 -1.246 -6.102 -1.246"/><path d="m 13.164 6.789 c -5.773 0 -6.418 0 -6.418 3.742 v 6.234 c 0 2.031 0.191 2.961 1.285 3.387 v -9.621 c 0 -2.258 0.039 -2.469 3.852 -2.488 v -0.008 h 8.668 c -0.566 -1.246 -2.098 -1.246 -6.102 -1.246"/></g><path d="m 26.613 4.695 c 25.01 33.16 -43.824 37.867 -21.734 4.02 c 5.04 -7.719 15.11 -12.805 21.734 -4.02" fill="#82a395"/><path d="m 9.582 25.402 c -1.168 -0.52 -1.223 -0.422 2.645 -4.355 c 1.984 -2.02 3.754 -3.684 4 -3.77 c 0.285 -0.098 0.441 -0.266 0.441 -0.465 c 0 -0.176 0.164 -0.496 0.359 -0.715 c 0.348 -0.387 0.34 -0.387 -0.172 0.031 c -0.551 0.445 -0.641 0.438 -1.301 -0.113 l -0.398 -0.336 l 0.359 0.41 c 0.195 0.223 0.359 0.559 0.359 0.742 c 0 0.414 -7.176 7.434 -7.602 7.434 c -0.156 0 -0.391 -0.223 -0.535 -0.504 c -0.215 -0.43 -0.27 -1.477 -0.344 -6.641 c -0.059 -3.953 -0.035 -6.344 0.07 -6.727 c 0.191 -0.711 0.551 -1.152 0.937 -1.152 c 0.172 0 0.305 -0.137 0.336 -0.355 c 0.031 -0.223 0.262 -0.465 0.609 -0.637 c 0.5 -0.25 1.18 -0.277 6.926 -0.277 c 5.742 0 6.422 0.027 6.926 0.277 c 0.344 0.172 0.574 0.414 0.605 0.637 c 0.035 0.23 0.16 0.355 0.363 0.355 c 0.176 0 0.445 0.223 0.629 0.52 c 0.309 0.496 0.316 0.746 0.273 7.121 c -0.039 6.01 -0.066 6.645 -0.324 7.04 c -0.156 0.234 -0.402 0.43 -0.555 0.43 c -0.148 0 -1.02 -0.734 -1.938 -1.629 c -1.945 -1.906 -1.84 -1.633 0.184 0.457 c 0.844 0.875 1.367 1.539 1.316 1.672 c -0.254 0.664 -0.516 0.691 -7.242 0.73 c -5.086 0.027 -6.551 -0.008 -6.926 -0.176 m 7.168 -2.523 c 0.785 -1.629 0.762 -1.711 -0.402 -1.711 c -0.531 0 -0.957 0.07 -0.957 0.156 c 0 0.09 0.203 0.16 0.445 0.16 c 0.754 0 0.859 0.266 0.441 1.094 c -0.559 1.117 -0.637 1.449 -0.332 1.449 c 0.16 0 0.461 -0.426 0.805 -1.148 m -5.063 -2.547 c 1.773 -1.77 3.227 -3.332 3.227 -3.469 c 0 -0.27 -6.227 -6.508 -6.496 -6.508 c -0.086 0 -0.199 0.113 -0.254 0.25 c -0.133 0.344 -0.121 12.707 0.012 12.84 c 0.059 0.059 0.145 0.105 0.195 0.105 c 0.051 0 1.543 -1.445 3.316 -3.219 m -1.988 -2.055 c -0.305 -0.301 -0.254 -0.406 0.531 -1.172 c 0.402 -0.387 0.699 -0.797 0.66 -0.906 c -0.035 -0.113 -0.328 -0.199 -0.676 -0.199 c -0.68 0 -0.855 -0.234 -0.473 -0.617 c 0.328 -0.328 1.332 -0.336 1.793 -0.012 c 0.5 0.352 0.477 1.172 -0.043 1.66 c -0.492 0.461 -0.5 0.602 -0.039 0.664 c 0.234 0.035 0.355 0.16 0.355 0.371 c 0 0.277 -0.121 0.324 -0.957 0.363 c -0.605 0.031 -1.027 -0.027 -1.152 -0.152 m 14.672 5.02 c 0.156 -0.402 0.109 -12.523 -0.047 -12.77 c -0.211 -0.332 -0.66 0.051 -3.992 3.391 l -2.945 2.953 l 3.34 3.336 c 1.84 1.836 3.387 3.34 3.445 3.34 c 0.059 0 0.148 -0.113 0.199 -0.254 m -3.641 -4.891 c -0.477 -0.348 -0.207 -0.738 0.441 -0.633 c 0.398 0.066 0.566 0.023 0.637 -0.156 c 0.113 -0.297 -0.238 -0.617 -0.633 -0.578 c -0.664 0.07 -0.707 0.016 -0.656 -0.84 l 0.047 -0.836 h 1.035 c 0.922 0 1.035 0.035 1.035 0.309 c 0 0.199 -0.145 0.355 -0.398 0.422 c -0.219 0.063 -0.32 0.117 -0.227 0.129 c 0.402 0.035 0.863 0.68 0.863 1.203 c 0 0.957 -1.34 1.57 -2.145 0.98 m -3.328 -6.387 c 0.34 -0.516 0.09 -1.188 -0.438 -1.188 c -0.328 0 -0.332 0.016 -0.086 0.289 c 0.457 0.504 0.23 1.141 -0.41 1.141 c -0.383 0 -0.531 -0.418 -0.332 -0.941 c 0.105 -0.285 0.105 -0.508 -0.004 -0.68 c -0.223 -0.352 0.125 -0.758 0.672 -0.781 c 0.293 -0.012 0.332 -0.043 0.129 -0.094 c -0.883 -0.227 -1.656 0.633 -1.469 1.637 c 0.133 0.711 0.473 1.02 1.129 1.02 c 0.406 0 0.609 -0.102 0.809 -0.406" fill="#fff"/><path d="m 8.902 7.602 h 14.988 v 18.941 h -14.988" fill="#82a395"/><path d="m 9.469 25.527 c -0.168 -0.203 0.016 -0.477 1.105 -1.656 c 0.719 -0.781 2.359 -2.461 3.645 -3.73 l 2.336 -2.316 l 3.598 3.668 c 1.98 2.02 3.598 3.762 3.598 3.875 c 0 0.113 -0.113 0.25 -0.254 0.301 c -0.141 0.055 -3.313 0.102 -7.04 0.102 c -5.816 0 -6.813 -0.035 -6.984 -0.242 m 7.078 -0.531 c 0.207 -0.137 1.363 -2.73 1.363 -3.063 c 0 -0.352 -0.824 -0.566 -1.758 -0.449 c -0.766 0.094 -0.855 0.145 -0.809 0.457 c 0.039 0.277 0.176 0.359 0.656 0.398 c 0.336 0.027 0.609 0.086 0.609 0.129 c 0 0.039 -0.219 0.508 -0.484 1.035 c -0.27 0.527 -0.488 1.066 -0.488 1.195 c 0 0.348 0.559 0.527 0.91 0.297 m -3.414 -5.102 c 1.242 -1.316 2.281 -2.449 2.305 -2.516 c 0.063 -0.176 -6.578 -6.715 -6.891 -6.781 c -0.141 -0.031 -0.32 0.039 -0.395 0.16 c -0.078 0.121 -0.148 2.184 -0.16 4.582 c -0.027 6.066 -0.242 7.504 -0.328 2.184 c -0.098 -6.25 -0.082 -6.637 0.234 -7.234 c 0.152 -0.289 0.371 -0.527 0.484 -0.527 c 0.234 0 7.578 7.293 7.578 7.531 c 0 0.086 -0.641 0.773 -1.422 1.527 c -3.148 3.043 -3.559 3.355 -1.406 1.074 m 6.03 -0.379 c -1.137 -1.117 -2.066 -2.105 -2.066 -2.203 c 0 -0.25 7.332 -7.547 7.578 -7.547 c 0.113 0 0.316 0.215 0.453 0.477 c 0.199 0.383 0.242 1.094 0.23 3.598 c -0.008 1.715 -0.074 3.301 -0.145 3.523 c -0.078 0.234 -0.141 -0.953 -0.148 -2.828 c -0.02 -3.492 -0.078 -3.961 -0.477 -3.961 c -0.27 0 -6.645 6.16 -6.914 6.676 c -0.125 0.242 0.184 0.625 1.777 2.219 c 1.063 1.059 1.895 1.957 1.852 2 c -0.039 0.039 -1 -0.836 -2.141 -1.953 m 2.152 -0.738 c -0.395 -0.176 -0.391 -0.184 0.227 -0.273 c 1.18 -0.172 1.168 -1.141 -0.012 -1.141 c -0.555 0 -0.559 -0.004 -0.508 -0.688 l 0.051 -0.688 h 0.852 c 0.953 0 1.18 0.293 0.289 0.371 c -0.695 0.063 -0.777 0.469 -0.125 0.605 c 0.645 0.133 0.926 0.313 0.988 0.629 c 0.109 0.57 -0.133 1.027 -0.648 1.207 c -0.602 0.207 -0.59 0.207 -1.113 -0.023 m -11.309 -0.215 c -0.063 -0.168 0.148 -0.508 0.609 -0.973 c 0.59 -0.598 0.68 -0.77 0.531 -1 c -0.109 -0.168 -0.383 -0.277 -0.688 -0.277 c -0.531 0 -0.691 -0.301 -0.25 -0.469 c 0.766 -0.293 1.691 0.141 1.691 0.793 c 0 0.215 -0.219 0.641 -0.488 0.941 c -0.266 0.305 -0.484 0.59 -0.484 0.633 c 0 0.043 0.223 0.125 0.496 0.18 c 0.746 0.148 0.41 0.426 -0.512 0.426 c -0.586 0 -0.836 -0.07 -0.906 -0.254 m 2.656 -5.418 c -2.34 -2.266 -3.684 -3.684 -3.684 -3.887 c 0 -0.719 0.664 -0.785 7.547 -0.785 c 6.887 0 7.551 0.066 7.551 0.785 c 0 0.332 -7.215 7.457 -7.551 7.457 c -0.098 0 -1.836 -1.605 -3.859 -3.57 m 4.742 -0.223 c 1.078 -0.555 0.617 -2.027 -0.586 -1.879 c -0.297 0.035 -0.445 -0.328 -0.195 -0.484 c 0.125 -0.078 0.43 -0.145 0.684 -0.145 c 0.664 -0.004 0.461 -0.395 -0.238 -0.457 c -1.184 -0.102 -1.938 1.172 -1.379 2.336 c 0.23 0.48 0.68 0.82 1.125 0.855 c 0.07 0.004 0.336 -0.098 0.59 -0.227 m -0.906 -0.652 c -0.129 -0.34 0.051 -0.727 0.336 -0.727 c 0.324 0 0.461 0.262 0.336 0.648 c -0.121 0.379 -0.535 0.426 -0.672 0.078" fill="#fff"/></svg>