<svg xmlns="http://www.w3.org/2000/svg" viewBox="0 0 32 32"><path d="m 3.059 24.48 c -11.05 -16.367 10.672 -32.949 23.852 -19.613 c 12.418 12.563 0.023 32.09 -15.695 25.98 c -3.281 -1.273 -6.129 -3.363 -8.156 -6.367" fill="#282828"/><g stroke="#fff" stroke-width="0.897"><path d="m 65.977 56.728 c 0 4.738 -4.25 8.568 -9.487 8.568 c -5.237 0 -9.487 -3.83 -9.487 -8.568 c 0 -4.738 4.25 -8.596 9.487 -8.596 c 5.237 0 9.487 3.858 9.487 8.596" transform="matrix(0.13052 0 0 0.13769 -0.03 -0.268)" fill="#ff4500"/><path d="m 190.69 150.26 c 0 20.955 -17.592 37.955 -39.31 37.955 c -21.718 0 -39.31 -17 -39.31 -37.955 c 0 -20.969 17.592 -37.97 39.31 -37.97 c 21.718 0 39.31 17 39.31 37.97" transform="matrix(0.25847 0 0 0.27067 -22.916 -24.431)"/><path d="m 190.7 150.26 c 0 20.965 -17.606 37.955 -39.32 37.955 c -21.714 0 -39.32 -16.99 -39.32 -37.955 c 0 -20.965 17.606 -37.955 39.32 -37.955 c 21.714 0 39.32 16.99 39.32 37.955" transform="matrix(0.23009 0 0 0.23681 -18.619 -19.399)" fill="#696969"/><path d="m 190.7 150.27 c 0 20.953 -17.609 37.943 -39.31 37.943 c -21.724 0 -39.33 -16.99 -39.33 -37.943 c 0 -20.974 17.609 -37.964 39.33 -37.964 c 21.702 0 39.31 16.99 39.31 37.964" transform="matrix(0.18323 0 0 0.18531 -11.47 -11.604)" fill="#2e2e2e"/><path d="m 190.68 150.26 c 0 20.964 -17.589 37.958 -39.3 37.958 c -21.714 0 -39.3 -16.994 -39.3 -37.958 c 0 -20.964 17.589 -37.958 39.3 -37.958 c 21.714 0 39.3 16.994 39.3 37.958" transform="matrix(0.13636 0 0 0.13677 -4.318 -4.367)" fill="#131313"/><path d="m 190.68 150.25 c 0 20.987 -17.611 37.969 -39.3 37.969 c -21.693 0 -39.3 -16.981 -39.3 -37.969 c 0 -20.944 17.611 -37.969 39.3 -37.969 c 21.693 0 39.3 17.02 39.3 37.969" transform="matrix(0.08806 0 0 0.08971 2.994 2.591)" fill="#b0c3de"/><path d="m 190.67 150.28 c 0 20.956 -17.543 37.928 -39.25 37.928 c -21.78 0 -39.32 -16.972 -39.32 -37.928 c 0 -20.956 17.543 -38 39.32 -38 c 21.706 0 39.25 17.05 39.25 38" transform="matrix(0.05255 0 0 0.05294 8.426 8.06)" fill="#707f8f"/></g></svg>