<svg xmlns="http://www.w3.org/2000/svg" viewBox="0 0 32 32"><path d="m 3.363 24.59 c -11.395 -16.367 9.648 -32.949 23.07 -19.613 c 12.648 12.563 0.922 32.08 -14.816 25.98 c -3.281 -1.273 -6.164 -3.363 -8.254 -6.367" fill="#e0b821"/><path d="m 77.03 191.96 c 23.322 34.34 26.911 0.106 26.911 0.106" transform="matrix(-0.16112 0 0 0.14721 26.923 -17.18)" fill="none" stroke="#000" stroke-width="2.269"/><path d="m 14.766 10.195 l -0.02 -0.141 c -0.012 -0.078 -0.145 -0.125 -0.297 -0.109 l -3.594 0.414 c -0.152 0.02 -0.27 0.094 -0.258 0.172 l 0.02 0.141 c 0.012 0.078 0.145 0.125 0.297 0.105 l 3.594 -0.41 c 0.152 -0.02 0.266 -0.098 0.258 -0.172" fill="#ddd"/><g fill-opacity="0.302"><path d="m 14.734 10.03 c 0.004 0.008 0.008 0.016 0.008 0.027 c -0.047 -0.047 -0.148 -0.07 -0.266 -0.059 l -3.598 0.418 c -0.152 0.016 -0.266 0.094 -0.254 0.168 l 0.02 0.141 c -0.016 -0.016 -0.027 -0.031 -0.031 -0.051 l -0.016 -0.141 c -0.012 -0.078 0.102 -0.152 0.254 -0.172 l 3.598 -0.414 c 0.133 -0.016 0.25 0.02 0.285 0.082"/><path d="m 14.734 10.03 c 0.004 0.008 0.008 0.016 0.008 0.027 l 0.02 0.137 c 0.012 0.078 -0.102 0.156 -0.254 0.172 l -3.598 0.414 c -0.152 0.02 -0.285 -0.027 -0.293 -0.105 v -0.004 c 0.047 0.047 0.148 0.07 0.266 0.059 l 3.598 -0.414 c 0.152 -0.02 0.266 -0.094 0.254 -0.172 l -0.02 -0.141 c 0.008 0.008 0.016 0.016 0.02 0.027" fill="#fff"/></g><path d="m 14.691 9.469 l -0.02 -0.137 c -0.012 -0.078 -0.145 -0.129 -0.297 -0.109 l -3.594 0.414 c -0.152 0.016 -0.27 0.094 -0.258 0.172 l 0.02 0.141 c 0.012 0.074 0.145 0.125 0.297 0.105 l 3.594 -0.414 c 0.152 -0.016 0.27 -0.094 0.258 -0.172" fill="#ddd"/><g fill-opacity="0.302"><path d="m 14.66 9.305 c 0.008 0.008 0.012 0.016 0.012 0.027 c -0.051 -0.047 -0.152 -0.07 -0.266 -0.059 l -3.598 0.414 c -0.152 0.02 -0.266 0.098 -0.258 0.172 l 0.02 0.141 c -0.016 -0.016 -0.023 -0.031 -0.027 -0.051 l -0.02 -0.141 c -0.012 -0.078 0.102 -0.156 0.254 -0.172 l 3.598 -0.414 c 0.137 -0.016 0.254 0.02 0.285 0.082"/><path d="m 14.66 9.305 c 0.008 0.008 0.012 0.016 0.012 0.027 l 0.02 0.137 c 0.012 0.078 -0.105 0.156 -0.258 0.172 l -3.598 0.414 c -0.152 0.02 -0.281 -0.027 -0.293 -0.105 v -0.004 c 0.047 0.047 0.152 0.07 0.266 0.059 l 3.598 -0.414 c 0.152 -0.02 0.266 -0.094 0.254 -0.172 l -0.02 -0.141 c 0.012 0.008 0.016 0.016 0.02 0.027" fill="#fff"/></g><path d="m 8.586 16.984 l 0.484 -1.773 c 0.063 -0.238 -0.23 -0.434 -0.496 -0.43 c -0.266 0.008 -0.492 0.211 -0.465 0.453 l 0.191 1.715 c 0.008 0.082 0.262 0.156 0.285 0.035" fill="#90b0e7"/><path d="m 8.06 15.13 c 0 0.27 0.238 0.484 0.535 0.484 c 0.293 0 0.531 -0.215 0.531 -0.484 c 0 -0.27 -0.238 -0.488 -0.531 -0.488 c -0.273 0 -0.504 0.191 -0.531 0.441" fill-opacity="0.302"/><path d="m 8.06 14.961 c 0 0.27 0.238 0.484 0.535 0.484 c 0.293 0 0.531 -0.215 0.531 -0.484 c 0 -0.27 -0.238 -0.488 -0.531 -0.488 c -0.273 0 -0.504 0.191 -0.531 0.441" fill="#235cc3"/><path d="m 8.52 13.363 c 0.195 0.004 0.406 0.023 0.613 0.059 c 0.723 0.121 1.316 0.398 1.43 0.668 c 0.008 0.02 0.016 0.043 0.02 0.074 c 0.004 0.109 -0.047 0.309 -0.121 0.672 c -0.059 0.297 -0.801 0.422 -1.66 0.281 c -0.855 -0.145 -1.504 -0.5 -1.445 -0.797 c 0.063 -0.305 0.086 -0.496 0.117 -0.609 c 0 -0.004 0 -0.008 0 -0.012 c 0.043 -0.215 0.457 -0.348 1.047 -0.336" fill="#f9de69"/><path d="m 7.473 13.699 c 0.059 -0.297 0.801 -0.422 1.66 -0.277 c 0.855 0.141 1.504 0.496 1.445 0.793 c -0.059 0.297 -0.805 0.422 -1.66 0.281 c -0.859 -0.145 -1.504 -0.5 -1.445 -0.797" fill="#292929"/><path d="m 14.684 9.422 l -0.035 -0.215 c -0.02 -0.121 -0.105 -0.211 -0.191 -0.199 l -2.051 0.258 c -0.086 0.012 -0.141 0.117 -0.117 0.238 l 0.031 0.219 c 0.02 0.121 0.105 0.211 0.195 0.199 l 2.047 -0.258 c 0.086 -0.012 0.141 -0.117 0.121 -0.242" fill="#c1c1c1"/><g fill-opacity="0.302"><path d="m 14.637 9.164 c 0.004 0.012 0.008 0.027 0.012 0.043 v 0.004 c -0.035 -0.078 -0.102 -0.125 -0.168 -0.117 l -2.047 0.258 c -0.086 0.012 -0.141 0.117 -0.121 0.238 l 0.035 0.219 c -0.012 -0.027 -0.02 -0.055 -0.027 -0.086 l -0.035 -0.219 c -0.02 -0.121 0.035 -0.227 0.121 -0.238 l 2.051 -0.258 c 0.074 -0.012 0.148 0.059 0.18 0.156"/><path d="m 14.637 9.164 c 0.004 0.012 0.008 0.027 0.012 0.043 l 0.035 0.219 c 0.02 0.121 -0.035 0.227 -0.121 0.238 l -2.047 0.258 c -0.09 0.012 -0.176 -0.078 -0.195 -0.199 c 0.039 0.074 0.102 0.125 0.168 0.117 l 2.047 -0.262 c 0.086 -0.008 0.141 -0.117 0.121 -0.238 l -0.035 -0.215 c 0.008 0.012 0.012 0.023 0.016 0.039" fill="#fff"/></g><path d="m 16.965 8.496 l 5.43 7.887 l -5.258 2.488 l -2.652 -7.855" fill="#f9de69" fill-rule="evenodd"/><path d="m 14.781 10.164 l -0.031 -0.215 c -0.023 -0.121 -0.109 -0.215 -0.195 -0.203 l -2.047 0.258 c -0.086 0.012 -0.141 0.121 -0.121 0.242 l 0.035 0.215 c 0.02 0.121 0.105 0.211 0.191 0.203 l 2.047 -0.258 c 0.09 -0.012 0.141 -0.121 0.121 -0.242" fill="#c1c1c1"/><g fill-opacity="0.302"><path d="m 14.738 9.902 c 0.004 0.016 0.008 0.031 0.008 0.047 h 0.004 c -0.039 -0.074 -0.102 -0.125 -0.168 -0.117 l -2.047 0.258 c -0.086 0.012 -0.141 0.117 -0.121 0.242 l 0.035 0.215 c -0.012 -0.023 -0.023 -0.051 -0.027 -0.082 l -0.035 -0.219 c -0.02 -0.121 0.035 -0.23 0.121 -0.238 l 2.047 -0.258 c 0.078 -0.012 0.152 0.055 0.184 0.152"/><path d="m 14.738 9.902 c 0.004 0.016 0.008 0.031 0.008 0.047 l 0.039 0.219 c 0.02 0.121 -0.035 0.227 -0.125 0.238 l -2.047 0.258 c -0.086 0.012 -0.172 -0.078 -0.191 -0.199 v -0.004 c 0.035 0.078 0.102 0.125 0.168 0.117 l 2.047 -0.258 c 0.086 -0.012 0.141 -0.117 0.121 -0.238 l -0.035 -0.219 c 0.004 0.012 0.012 0.027 0.016 0.039" fill="#fff"/></g><path d="m 15.328 23.23 c 0 0.898 1.934 1.629 4.316 1.629 c 2.383 0 4.313 -0.73 4.313 -1.629 c 0 -1.789 0.434 -1.129 -4.25 -1.176 c -4.844 -0.047 -4.379 -0.488 -4.379 1.176" fill="#292929"/><path d="m 15.328 22.305 c 0 -0.902 1.934 -1.633 4.316 -1.633 c 2.383 0 4.313 0.73 4.313 1.633 c 0 0.898 -1.93 1.629 -4.313 1.629 c -2.383 0 -4.316 -0.73 -4.316 -1.629" fill="#1b1b1b"/><path d="m 18.332 19.949 h 3.035 c 0 0 -0.004 1.059 0.156 1.203 c 0.012 0.012 0.023 0.02 0.035 0.027 c 0.246 0.074 0.457 0.164 0.629 0.262 c 0.047 0.012 0.082 0.023 0.082 0.023 l -0.023 0.012 c 0.277 0.172 0.426 0.371 0.43 0.574 c 0 0.613 -1.316 1.113 -2.941 1.113 c -1.625 0 -2.941 -0.5 -2.941 -1.113 c 0.004 -0.301 0.332 -0.59 0.91 -0.801 c 0.094 -0.043 0.184 -0.078 0.262 -0.102 c 0.332 -0.102 0.332 -0.363 0.332 -0.363" fill="#f9de69" fill-rule="evenodd"/><path d="m 16.03 8.691 c 1.133 0 2.051 0.836 2.051 1.871 c 0 1.035 -0.918 1.871 -2.051 1.875 c -1.133 -0.004 -2.051 -0.84 -2.051 -1.875 c 0 -1.035 0.918 -1.871 2.051 -1.871 m 4.03 6.125 c 1.98 0 3.59 1.469 3.59 3.281 c 0 1.813 -1.609 3.281 -3.59 3.281 c -1.984 0 -3.594 -1.469 -3.594 -3.281 c 0 -1.813 1.609 -3.281 3.594 -3.281" fill-opacity="0.302"/><path d="m 16.03 8.273 c 1.133 0 2.051 0.836 2.051 1.871 c 0 1.035 -0.918 1.875 -2.051 1.875 c -1.133 0 -2.051 -0.84 -2.051 -1.875 c 0 -1.035 0.918 -1.871 2.051 -1.871 m 4.03 6.125 c 1.98 0 3.59 1.469 3.59 3.281 c 0 1.813 -1.609 3.281 -3.594 3.281 c -1.98 0 -3.59 -1.469 -3.59 -3.281 c 0 -1.812 1.609 -3.281 3.59 -3.281" fill="#ffc82d"/><path d="m 14.742 10.23 c 0 0.648 0.578 1.176 1.289 1.176 c 0.711 0 1.289 -0.527 1.289 -1.176 c 0 -0.652 -0.578 -1.18 -1.289 -1.18 c -0.711 0 -1.289 0.527 -1.289 1.18"/><path d="m 17.59 17.848 c 0 1.242 1.105 2.25 2.465 2.25 c 1.363 0 2.469 -1.01 2.469 -2.25 c 0 -1.246 -1.105 -2.254 -2.469 -2.254 c -1.359 0 -2.465 1.01 -2.465 2.254"/><path d="m 9.824 10.863 l -0.219 -0.039 c -0.125 -0.02 -0.242 0.051 -0.27 0.164 l -0.566 2.672 c -0.027 0.113 0.055 0.223 0.18 0.242 l 0.219 0.039 c 0.125 0.023 0.246 -0.051 0.27 -0.164 l 0.57 -2.668 c 0.023 -0.113 -0.059 -0.223 -0.184 -0.246" fill="#ddd"/><g fill-opacity="0.302"><path d="m 9.559 10.82 c 0.016 0 0.031 0 0.047 0.004 c -0.086 0.016 -0.156 0.078 -0.176 0.164 l -0.57 2.672 c -0.023 0.113 0.055 0.223 0.18 0.242 l 0.223 0.039 c -0.031 0.008 -0.059 0.008 -0.09 0 l -0.223 -0.039 c -0.125 -0.02 -0.203 -0.129 -0.18 -0.242 l 0.57 -2.672 c 0.02 -0.098 0.113 -0.168 0.219 -0.168"/><path d="m 9.559 10.82 c 0.016 0 0.031 0 0.047 0.004 l 0.223 0.039 c 0.125 0.023 0.203 0.133 0.18 0.246 l -0.57 2.668 c -0.023 0.113 -0.145 0.188 -0.266 0.164 h -0.004 c 0.09 -0.016 0.16 -0.078 0.18 -0.164 l 0.57 -2.668 c 0.023 -0.113 -0.059 -0.223 -0.18 -0.246 l -0.223 -0.039 c 0.016 -0.004 0.027 -0.004 0.043 -0.004" fill="#fff"/></g><path d="m 112.55 189.2 c 11.225 6.474 5.697 8.12 3.831 10.402 c -1.867 2.309 -1.115 10.826 -1.115 10.826" transform="matrix(-0.16112 0 0 0.14721 26.923 -17.18)" fill="none" stroke="#000" stroke-linecap="round" stroke-width="2.269"/><path d="m 8.27 10.5 c 0 0.703 0.625 1.277 1.398 1.277 c 0.77 0 1.395 -0.574 1.395 -1.277 c 0 -0.703 -0.625 -1.277 -1.395 -1.277 c -0.773 0 -1.398 0.574 -1.398 1.277" fill-opacity="0.302"/><path d="m 8.27 10.25 c 0 0.703 0.625 1.273 1.398 1.273 c 0.77 0 1.395 -0.57 1.395 -1.273 c 0 -0.703 -0.625 -1.277 -1.395 -1.277 c -0.773 0 -1.398 0.574 -1.398 1.277" fill="#3d3d3d"/><g fill-opacity="0.302"><path d="m 8.273 10.156 c 0.043 0.672 0.652 1.199 1.395 1.203 c 0.73 0 1.336 -0.516 1.391 -1.184 c 0.004 0.023 0.004 0.051 0.004 0.074 c 0 0.703 -0.625 1.273 -1.395 1.273 c -0.773 0 -1.398 -0.57 -1.398 -1.273 c 0 -0.031 0.004 -0.063 0.004 -0.094"/><path d="m 9.668 8.973 c 0.77 0 1.395 0.57 1.395 1.277 c 0 0.016 0 0.031 0 0.047 c -0.023 -0.688 -0.641 -1.238 -1.395 -1.238 c -0.75 0 -1.367 0.539 -1.395 1.227 c 0 -0.012 -0.004 -0.023 -0.004 -0.035 c 0 -0.707 0.625 -1.277 1.398 -1.277" fill="#fff"/></g><path d="m 9.305 9.809 c 0.391 0 0.711 0.293 0.711 0.652 c 0 0.363 -0.32 0.652 -0.711 0.652 c -0.395 0 -0.715 -0.289 -0.715 -0.652 c 0 -0.359 0.32 -0.652 0.715 -0.652 m 0 0.273 c -0.23 0 -0.418 0.172 -0.418 0.379 c 0 0.211 0.188 0.379 0.418 0.379 c 0.227 0 0.414 -0.168 0.414 -0.379 c 0 -0.207 -0.188 -0.379 -0.414 -0.379" fill="#ffc82d"/><g fill="#235cc3"><path d="m 11.449 16.332 l -0.711 -1.352 c -0.125 -0.242 -0.445 -0.348 -0.711 -0.23 c -0.262 0.117 -0.375 0.406 -0.246 0.648 l 0.711 1.355 c 0.125 0.242 0.445 0.344 0.707 0.227 c 0.266 -0.113 0.379 -0.406 0.25 -0.648"/><path d="m 6.102 15.84 l 0.879 -1.266 c 0.16 -0.227 0.488 -0.297 0.734 -0.152 c 0.25 0.145 0.32 0.445 0.164 0.672 l -0.879 1.266 c -0.16 0.227 -0.488 0.297 -0.734 0.152 c -0.25 -0.145 -0.324 -0.445 -0.164 -0.672"/></g><path d="m 6.645 16.06 c 0.23 0.004 0.449 0.113 0.488 0.316 l 0.434 2.23 c 0.039 0.148 -0.289 0.18 -0.344 0.09 l -1.164 -1.852 c -0.164 -0.262 -0.016 -0.594 0.281 -0.727 c 0.094 -0.039 0.199 -0.059 0.305 -0.055 m 4.266 0.309 c 0.105 0 0.211 0.02 0.305 0.059 c 0.297 0.129 0.445 0.465 0.281 0.727 l -1.164 1.852 c -0.055 0.09 -0.383 0.059 -0.344 -0.09 l 0.434 -2.234 c 0.039 -0.203 0.258 -0.309 0.488 -0.313" fill="#000205" fill-opacity="0.302"/><path d="m 6.645 15.645 c 0.23 0.004 0.449 0.109 0.488 0.316 l 0.434 2.23 c 0.039 0.148 -0.289 0.18 -0.344 0.09 l -1.164 -1.852 c -0.164 -0.262 -0.016 -0.594 0.281 -0.727 c 0.094 -0.039 0.199 -0.059 0.305 -0.059 m 4.266 0.313 c 0.105 0 0.211 0.02 0.305 0.059 c 0.297 0.129 0.445 0.465 0.281 0.727 l -1.164 1.852 c -0.055 0.09 -0.383 0.059 -0.344 -0.09 l 0.434 -2.234 c 0.039 -0.203 0.258 -0.309 0.488 -0.313" fill="#90b0e7"/><path d="m 17.59 17.512 c 0 1.246 1.105 2.254 2.465 2.254 c 1.363 0 2.469 -1.01 2.469 -2.254 c 0 -1.242 -1.105 -2.25 -2.469 -2.25 c -1.359 0 -2.465 1.01 -2.465 2.25" fill="#3d3d3d"/><path d="m 20.05 15.262 c 1.363 0 2.469 1.01 2.469 2.25 c 0 0.051 -0.004 0.098 -0.008 0.148 c -0.059 -1.203 -1.145 -2.148 -2.457 -2.148 c -1.301 0 -2.375 0.922 -2.461 2.105 c -0.004 -0.035 -0.004 -0.07 -0.008 -0.105 c 0 -1.242 1.105 -2.25 2.469 -2.25" fill="#fff" fill-opacity="0.302"/><path d="m 14.742 9.98 c 0 0.648 0.578 1.176 1.289 1.176 c 0.711 0 1.289 -0.527 1.289 -1.176 c 0 -0.652 -0.578 -1.18 -1.289 -1.18 c -0.711 0 -1.289 0.527 -1.289 1.18" fill="#3d3d3d"/><path d="m 16.03 8.797 c 0.711 0 1.289 0.527 1.289 1.18 c 0 0.031 0 0.063 -0.004 0.09 c -0.043 -0.617 -0.605 -1.102 -1.285 -1.102 c -0.676 0 -1.234 0.473 -1.289 1.09 c 0 -0.027 -0.004 -0.051 -0.004 -0.078 c 0 -0.652 0.578 -1.18 1.293 -1.18" fill="#fff" fill-opacity="0.302"/><path d="m 34.944 235.32 c -34.984 -18.866 -36.535 31.895 -9.867 16.05" transform="matrix(-0.16112 0 0 0.14721 26.923 -17.18)" fill="none" stroke="#000" stroke-linecap="round" stroke-width="2.269"/></svg>