<svg xmlns="http://www.w3.org/2000/svg" xmlns:xlink="http://www.w3.org/1999/xlink" viewBox="0 0 32 32"><defs><g id="3" clip-path="url(#2)"><path d="m 74.38 168.31 c -0.781 -1.531 -0.469 -73.78 0.313 -77.44 c 2.625 -6.219 1.938 -6.219 7.594 -9.594 l 43.34 -0.281 c 23.844 -0.156 44.594 -0.031 46.16 0.25 c 1.531 0.313 3.938 1.531 5.313 2.75 c 4.125 3.594 5.344 7.625 5.625 17.03 l 0.156 5.25 c -20.22 -0.438 -40.03 6.813 -57.19 15.313 c -19.688 10.188 -35.03 25.22 -46.16 43.906 c -3.406 5.75 -4.344 4.344 -5.156 2.813" transform="scale(0.125)" fill="#d2d2d2" stroke="#2f2a34" stroke-width="0.794"/></g><clipPath id="2"><path d="M 0,0 H32 V32 H0 z"/></clipPath><filter id="0" filterUnits="objectBoundingBox" x="0" y="0" width="32" height="32"><feColorMatrix type="matrix" in="SourceGraphic" values="0 0 0 0 1 0 0 0 0 1 0 0 0 0 1 0 0 0 1 0"/></filter><mask id="1"><g filter="url(#0)"><path fill-opacity="0.161" d="M 0,0 H32 V32 H0 z"/></g></mask></defs><path d="m 7.184 28.703 c 16.06 11.508 33.21 -9.742 20.234 -23.297 c -12.223 -12.773 -32.06 -0.93 -26.383 14.961 c 1.184 3.316 3.199 6.227 6.145 8.336" fill="#38353e"/><g stroke="#2f2a34" transform="scale(0.125)"><path d="m 72.938 67.66 h 110.78 c 7 0 12.688 7.688 12.688 17.188 v 87.47 c 0 9.469 -5.688 17.16 -12.688 17.16 h -110.78 c -7.03 0 -12.688 -7.688 -12.688 -17.16 v -87.47 c 0 -9.5 5.656 -17.188 12.688 -17.188" fill="#b7b7b7" stroke-width="1.133"/><path d="m 84.5 78.34 h 87.66 c 7 0 12.688 7.688 12.688 17.16 v 66.13 c 0 9.5 -5.688 17.188 -12.688 17.188 h -87.66 c -7 0 -12.688 -7.688 -12.688 -17.188 v -66.12 c 0 -9.469 5.688 -17.16 12.688 -17.16" fill="#312d36" stroke-width="0.937"/></g><use xlink:href="#3" mask="url(#1)"/><g fill="#fff" stroke="#2f2a34" transform="scale(0.125)"><path d="m 120.91 131.69 c 0 7.219 -0.125 7.156 16.563 7.5 c 19.781 0.438 19.375 0.563 19.375 -6.375 v -5.531 h -35.969" stroke-width="0.84"/><path d="m 83.03 126.28 c -0.906 -3.594 0.344 -9.281 2.375 -10.906 c 1.031 -0.813 4.469 -2.719 7.594 -4.281 c 3.156 -1.531 5.75 -3.156 5.75 -3.594 c 0 -0.438 -2.844 -2.125 -6.281 -3.75 c -8.625 -4.03 -9.125 -4.625 -9.219 -10.281 c -0.031 -2.625 0.188 -5.094 0.469 -5.438 c 0.906 -1.125 7.438 1.406 19.531 7.531 l 11.688 5.938 l -0.25 6.375 l -0.25 6.406 l -13.156 6.438 c -16.875 8.25 -17.5 8.438 -18.25 5.563" stroke-width="0.844"/></g></svg>