<svg xmlns="http://www.w3.org/2000/svg" viewBox="0 0 32 32"><path d="m 6.805 4.32 c 13.391 -12.953 33.41 7.262 21.621 21.527 c -12.938 15.977 -38.29 -3.633 -23.887 -19.781" fill="#dc133c"/><g transform="scale(0.125)"><path d="m 76.31 69.906 h 114.16 c 9.156 0 16.594 7.406 16.594 16.594 v 87.41 c 0 9.156 -7.438 16.594 -16.594 16.594 h -114.16 c -9.188 0 -16.594 -7.438 -16.594 -16.594 v -87.41 c 0 -9.188 7.406 -16.594 16.594 -16.594" fill="#4c4c4c" stroke="#4c4c4c" stroke-width="4.083"/><path d="m 71.59 190.5 c -6.25 -2.219 -10.719 -7.438 -11.938 -13.969 c -0.344 -1.938 -0.625 -13.75 -0.625 -27.19 v -23.719 h 148.81 l -0.188 25.875 c -0.188 24.781 -0.25 26.03 -1.5 28.781 c -1.906 4.25 -4.844 7.313 -8.844 9.344 l -3.531 1.75 l -59.44 0.156 c -56.31 0.125 -59.62 0.094 -62.75 -1.031" fill="#5f5f5f" stroke="#5f5f5f" stroke-width="2.515"/></g><g fill="#5884f4"><path d="m 10.656 11.699 h 10.613 v 0.676 h -10.613"/><path d="m 10.656 12.73 h 5.01 v 0.676 h -5.01"/></g><g fill="#c339c3"><path d="m 14.375 13.801 h 5.523 v 0.676 h -5.523"/><path d="m 14.375 14.871 h 4.582 v 0.676 h -4.582"/></g><g fill="#8c59d8"><path d="m 11.125 14.871 h 2.547 v 0.676 h -2.547"/><path d="m 11.125 13.801 h 2.586 v 0.676 h -2.586"/></g><g fill="#f22c42"><path d="m 11.05 15.902 h 2.586 v 0.676 h -2.586"/><path d="m 11.05 17.01 h 2.586 v 0.676 h -2.586"/></g><g fill="#76c12a"><path d="m 14.336 17.01 h 4.582 v 0.676 h -4.582"/><path d="m 14.336 15.941 h 5.875 v 0.676 h -5.875"/></g><g fill="#b2b2b2"><path d="m 14.375 18.04 h 5.875 v 0.676 h -5.875"/><path d="m 11.05 20.14 h 4.543 v 0.676 h -4.543"/><path d="m 11.09 19.07 h 9.09 v 0.676 h -9.09"/></g></svg>