<svg xmlns="http://www.w3.org/2000/svg" xmlns:xlink="http://www.w3.org/1999/xlink" viewBox="0 0 32 32"><defs><g id="7" clip-path="url(#6)"><path d="m 26.07 41.23 c 0 1.017 0.816 1.834 1.829 1.834 c 1.013 0 1.829 -0.817 1.829 -1.834 c 0 -1.01 -0.816 -1.826 -1.829 -1.826 c -1.013 0 -1.829 0.817 -1.829 1.826" transform="matrix(0.47407 0 0 0.4493 4.427 6.395)" stroke-opacity="0.522" fill="#fff" stroke="#fff" stroke-linejoin="round" stroke-linecap="round"/></g><g id="C" clip-path="url(#B)"><path d="m 10.759 13.857 c 0 1.01 -0.816 1.826 -1.829 1.826 c -1.01 0 -1.829 -0.817 -1.829 -1.826 c 0 -1.01 0.824 -1.826 1.829 -1.826 c 1.013 0 1.829 0.817 1.829 1.826" transform="matrix(0.47407 0 0 0.4493 4.427 6.395)" stroke-opacity="0.522" fill="#fff" stroke="#fff" stroke-linejoin="round" stroke-linecap="round"/></g><g id="G" clip-path="url(#F)"><path d="m 8.765 34.628 c 1.01 0 1.829 -0.817 1.829 -1.826 c 0 -1.017 -0.824 -1.834 -1.829 -1.834 c -1.013 0 -1.829 0.817 -1.829 1.834 c 0 1.01 0.816 1.826 1.829 1.826" transform="matrix(0.47407 0 0 0.4493 4.427 6.395)" stroke-opacity="0.522" fill="#fff" stroke="#fff" stroke-linejoin="round" stroke-linecap="round"/></g><g id="L" clip-path="url(#K)"><path d="m 42.927 19.804 c 0 -1.01 -0.816 -1.834 -1.829 -1.834 c -1.01 0 -1.829 0.826 -1.829 1.834 c 0 1.01 0.824 1.826 1.829 1.826 c 1.013 0 1.829 -0.817 1.829 -1.826" transform="matrix(0.47407 0 0 0.4493 4.427 6.395)" stroke-opacity="0.522" fill="#fff" stroke="#fff" stroke-linejoin="round" stroke-linecap="round"/></g><clipPath id="B"><path d="M 0,0 H32 V32 H0 z"/></clipPath><clipPath id="K"><path d="M 0,0 H32 V32 H0 z"/></clipPath><clipPath id="F"><path d="M 0,0 H32 V32 H0 z"/></clipPath><clipPath id="6"><path d="M 0,0 H32 V32 H0 z"/></clipPath><filter id="4" filterUnits="objectBoundingBox" x="0" y="0" width="32" height="32"><feColorMatrix type="matrix" in="SourceGraphic" values="0 0 0 0 1 0 0 0 0 1 0 0 0 0 1 0 0 0 1 0"/></filter><linearGradient id="D" gradientUnits="userSpaceOnUse" x1="36.646" y1="7.628" x2="8.305" y2="37.797" xlink:href="#3"/><linearGradient id="I" gradientUnits="userSpaceOnUse" x1="4.808" x2="44.13" xlink:href="#2"/><linearGradient id="9" gradientUnits="userSpaceOnUse" x1="36.815" y1="37.714" x2="7.561" y2="13.03" xlink:href="#3"/><linearGradient id="8" gradientUnits="userSpaceOnUse" x1="17.617" y1="16.687" x2="10.915" y2="9.386" xlink:href="#2"/><linearGradient id="M" gradientUnits="userSpaceOnUse" x1="34.987" y1="24" x2="45.583" y2="23.842" xlink:href="#2"/><linearGradient id="2" gradientUnits="userSpaceOnUse" x1="23.1" y1="33.14" x2="23.02" y2="44.81"><stop stop-color="#fff" stop-opacity="0.133"/><stop offset="1" stop-color="#fff" stop-opacity="0"/></linearGradient><linearGradient id="1" gradientUnits="userSpaceOnUse" y1="3.791" x2="0" y2="44.42"><stop stop-color="#fff" stop-opacity="0.502"/><stop offset="0.424" stop-color="#fff" stop-opacity="0.118"/><stop offset="0.821" stop-color="#fff" stop-opacity="0.079"/><stop offset="1" stop-color="#fff" stop-opacity="0.197"/></linearGradient><linearGradient id="3" gradientUnits="userSpaceOnUse" y1="3.888" x2="0" y2="44.11"><stop stop-color="#fff" stop-opacity="0.107"/><stop offset="1" stop-color="#fff" stop-opacity="0"/></linearGradient><linearGradient id="H" gradientUnits="userSpaceOnUse" x1="16.533" y1="30.483" x2="8.476" y2="38.02" xlink:href="#2"/><mask id="J"><g filter="url(#4)"><path fill-opacity="0.8" d="M 0,0 H32 V32 H0 z"/></g></mask><mask id="A"><g filter="url(#4)"><path fill-opacity="0.8" d="M 0,0 H32 V32 H0 z"/></g></mask><mask id="E"><g filter="url(#4)"><path fill-opacity="0.8" d="M 0,0 H32 V32 H0 z"/></g></mask><mask id="5"><g filter="url(#4)"><path fill-opacity="0.8" d="M 0,0 H32 V32 H0 z"/></g></mask><radialGradient id="0" gradientUnits="userSpaceOnUse" cx="3.972" cy="8.45" r="20" gradientTransform="matrix(0 1.12272 -1.25319 0 26.395 0.888)"><stop stop-color="#8fdbec"/><stop offset="0.262" stop-color="#42b9ea"/><stop offset="0.705" stop-color="#3688e5"/><stop offset="1" stop-color="#2a629f"/></radialGradient></defs><path d="m 4.109 7.172 c 1.047 -1.543 2.453 -3.102 3.73 -4.133 c 4.477 -3.594 9.613 -3.746 14.168 -0.414 c 2.445 1.793 4.789 4.59 6.895 8.23 c 2.508 4.344 3.355 9.547 2.184 13.387 c -0.25 0.809 -0.957 2.223 -1.461 2.91 c -1.688 2.309 -4.223 3.668 -7.906 4.238 c -3.52 0.547 -6.828 0.605 -9.633 0.168 c -5.777 -0.902 -9.641 -4.03 -11 -8.898 c -0.957 -3.426 -0.652 -7.262 0.895 -11.387 c 0.234 -0.617 1.75 -3.535 2.133 -4.102" fill="#0044a4"/><path d="m 15.805 7.934 c -5.363 0 -9.719 4.129 -9.719 9.211 c 0 5.082 4.355 9.211 9.719 9.211 c 5.363 0 9.719 -4.129 9.719 -9.211 c 0 -5.082 -4.355 -9.211 -9.719 -9.211" fill="url(#0)"/><g fill="none" stroke-linejoin="round" stroke-linecap="round"><path d="m 43.496 24 c 0 10.763 -8.726 19.501 -19.495 19.501 c -10.769 0 -19.504 -8.738 -19.504 -19.501 c 0 -10.772 8.734 -19.501 19.504 -19.501 c 10.769 0 19.495 8.729 19.495 19.501" transform="matrix(0.47407 0 0 0.4493 4.427 6.395)" stroke="url(#1)"/><path d="m 23.984 4.346 c -4.441 0.043 -8.149 7.668 -8.602 17.675 c -0.445 10.01 2.513 19.16 6.864 21.22" transform="matrix(0.47407 0 0 0.4493 4.427 6.395)" stroke="url(#2)"/><path d="m 27.692 41.809 c 3.691 -3.912 5.685 -13.09 4.796 -22.09 c -0.882 -8.998 -4.417 -15.389 -8.495 -15.371" transform="matrix(0.47407 0 0 0.4493 4.427 6.395)" stroke="url(#3)"/></g><use xlink:href="#7" mask="url(#5)"/><g fill="none" stroke-linejoin="round" stroke-linecap="round"><path d="m 12.564 8.91 c 5.05 -0.887 13.629 4.06 19.99 11.537 c 6.361 7.468 8.495 15.11 4.977 17.797" transform="matrix(0.47407 0 0 0.4493 4.427 6.395)" stroke="url(#8)"/><path d="m 37.918 37.897 c -2.966 2.965 -10.283 0.722 -17.419 -5.33 c -7.127 -6.06 -12.03 -14.198 -11.659 -19.353" transform="matrix(0.47407 0 0 0.4493 4.427 6.395)" stroke="url(#9)"/></g><use xlink:href="#C" mask="url(#A)"/><path d="m 38.09 10.58 c -2.34 -3.078 -8.536 -1.878 -15.244 2.965 c -6.707 4.843 -12.327 12.172 -13.818 18.02" transform="matrix(0.47407 0 0 0.4493 4.427 6.395)" fill="none" stroke="url(#D)" stroke-linejoin="round" stroke-linecap="round"/><use xlink:href="#G" mask="url(#E)"/><g fill="none" stroke-linejoin="round" stroke-linecap="round"><path d="m 9.985 38.02 c 3.279 3.226 11.733 0.139 19.265 -7.05 c 7.531 -7.181 11.528 -15.962 9.1 -20.01" transform="matrix(0.47407 0 0 0.4493 4.427 6.395)" stroke="url(#H)"/><path d="m 40.76 19.448 c -4.697 -3.373 -13.966 -4.912 -22.536 -3.747 c -8.569 1.165 -14.263 4.747 -13.843 8.703" transform="matrix(0.47407 0 0 0.4493 4.427 6.395)" stroke="url(#I)"/></g><use xlink:href="#L" mask="url(#J)"/><path d="m 4.48 24.951 c 1.121 4.486 9.83 7.851 20.05 7.729 c 10.209 -0.113 18.515 -3.669 19.11 -8.181" transform="matrix(0.47407 0 0 0.4493 4.427 6.395)" fill="none" stroke="url(#M)" stroke-linejoin="round" stroke-linecap="round"/></svg>