<svg xmlns="http://www.w3.org/2000/svg" viewBox="0 0 32 32"><path d="m 7.77 2.684 c -28.16 23.891 29.75 46.863 23.797 9.914 c -1.305 -8.102 -16.207 -16.352 -23.797 -9.914" fill="#778799"/><path d="m 18.504 26.586 c -0.18 -0.125 -0.484 -0.715 -0.672 -1.301 c -0.402 -1.672 0.07 -2.453 1.027 -1.055 c 0.785 1.105 2.301 0.629 1.859 -0.793 c -0.383 -1.246 -0.078 -1.547 0.688 -1.559 c 0.191 -0.004 0.813 0.41 0.582 0.941 c -0.402 0.922 -0.379 1.355 0.078 1.648 c 0.77 0.488 0.973 0.469 1.52 -0.52 c 0.895 -1.188 1.148 -0.641 1.121 0.332 c -0.016 0.602 -0.309 1.273 -0.457 1.641 c -0.773 1.18 -0.844 0.758 -2.762 0.844 c -1.488 0.031 -2.801 -0.047 -2.984 -0.18" fill="#ffd600"/><g fill="#36456c"><path d="m 8.02 20.594 c -0.09 -0.16 0.301 -1.512 1.395 -4.824 c 0.836 -2.531 1.613 -4.746 1.727 -4.922 c 0.293 -0.449 0.891 -0.43 1.41 0.047 c 0.344 0.32 0.625 1.047 1.945 5.01 c 0.848 2.555 1.539 4.703 1.539 4.777 c 0 0.074 -0.242 0.133 -0.539 0.133 c -0.457 0 -0.574 -0.063 -0.789 -0.418 c -0.391 -0.477 -0.316 -1.449 -0.855 -1.77 c -0.418 -0.227 -3.563 -0.09 -3.723 0.164 c -0.305 0.699 -0.473 1.273 -0.715 2.023 c -0.379 -0.035 -1.191 0.121 -1.395 -0.223 m 5.188 -3.691 c 0.223 -0.145 0.168 -0.492 -0.336 -2.129 c -0.383 -1.23 -0.746 -1.836 -0.969 -1.609 c -0.074 0.074 -0.379 0.898 -0.68 1.828 c -0.504 1.559 -0.527 1.707 -0.32 1.863 c 0.258 0.195 2.02 0.23 2.305 0.047"/><path d="m 17.215 20.301 c -0.121 -0.191 -0.219 -0.414 -0.219 -0.492 c 0 -0.086 0.645 -0.133 1.645 -0.125 c 1.867 0.02 2.582 -0.207 3.219 -1.016 c 0.645 -0.82 0.641 -2.102 -0.008 -2.555 c -0.605 -0.422 -2.164 -0.313 -3.359 0.23 c -0.543 0.25 -1.059 0.453 -1.148 0.453 c -0.379 -0.18 -0.578 -0.465 -0.871 -0.789 l 0.473 -1.254 c 0.258 -0.688 0.453 -1.426 0.43 -1.641 c -0.039 -0.359 -0.094 -0.395 -0.711 -0.43 c -0.563 -0.031 -0.73 -0.109 -1.039 -0.492 c -0.465 -0.574 -0.332 -0.68 0.879 -0.68 c 1.141 -0.004 1.387 -0.141 1.492 -0.828 c 0.145 -0.895 0.266 -1.01 0.703 -0.66 c 0.258 0.203 0.391 0.453 0.422 0.781 c 0.023 0.27 0.113 0.535 0.199 0.594 c 0.086 0.059 1.01 0.105 2.051 0.105 c 2.172 0.004 2.914 0.203 2.84 0.762 c -0.043 0.309 -0.086 0.316 -2.59 0.387 c -1.398 0.039 -2.617 0.117 -2.699 0.176 c -0.195 0.137 -0.582 1.328 -0.582 1.793 c 0 0.273 0.047 0.324 0.234 0.246 c 0.129 -0.055 0.727 -0.133 1.328 -0.176 c 0.93 -0.066 1.176 -0.035 1.676 0.223 c 1.438 0.742 2.168 2.195 1.785 3.555 c -0.887 2.457 -2.891 2.488 -4.539 2.492 c -1.332 0 -1.402 -0.32 -1.609 -0.66"/></g></svg>