<svg xmlns="http://www.w3.org/2000/svg" viewBox="0 0 32 32"><path d="m 8.176 3.645 c 7.391 -7.344 14.211 -1.965 19.816 3.875 c 4.563 4.758 4.773 9.168 1.746 13.84 c -7.898 12.211 -18.16 16.734 -28.895 -2.199 c -2.645 -6.246 2.941 -12.05 7.332 -15.516" fill="#b0c3de"/><path d="m 14.609 25.06 c -0.555 -0.367 -1.754 -1.176 -2.66 -1.789 c -0.906 -0.613 -2.234 -1.512 -2.953 -1.996 c -0.719 -0.484 -1.391 -0.965 -1.488 -1.07 l -0.184 -0.191 v -7.879 l 0.285 -0.254 c 0.156 -0.141 2.02 -1.441 4.125 -2.891 c 3.367 -2.305 3.879 -2.633 4.148 -2.633 c 0.262 0 0.699 0.27 3.246 1.984 c 1.621 1.094 3.324 2.242 3.789 2.555 c 0.465 0.313 1 0.699 1.184 0.859 l 0.336 0.293 l -0.004 3.953 l -0.008 3.949 l -0.199 0.191 c -0.109 0.105 -1.969 1.406 -4.137 2.891 c -3.195 2.191 -3.992 2.703 -4.207 2.703 c -0.195 0 -0.523 -0.172 -1.273 -0.676 m -1.926 -15.406 c 0.039 -0.133 0.02 -0.145 -0.113 -0.074 c -0.086 0.047 -0.137 0.117 -0.109 0.16 c 0.078 0.125 0.18 0.086 0.223 -0.086" fill="#9fa3f5"/><path d="m 14.563 24.875 c -4.762 -3.18 -6.699 -4.496 -6.891 -4.676 l -0.219 -0.215 l -0.012 -3.867 c -0.008 -2.508 0.02 -3.926 0.07 -4.02 c 0.047 -0.086 0.703 -0.578 1.457 -1.09 c 0.754 -0.516 2.563 -1.754 4.02 -2.754 c 2.051 -1.406 2.703 -1.813 2.895 -1.813 c 0.188 0 0.621 0.25 1.715 0.988 c 0.805 0.547 2.543 1.723 3.863 2.617 c 1.324 0.895 2.508 1.734 2.629 1.867 l 0.227 0.238 v 3.727 c 0 2.383 -0.031 3.813 -0.086 3.965 c -0.066 0.18 -0.367 0.434 -1.203 1.01 c -0.613 0.422 -2.414 1.656 -4 2.746 c -2.344 1.613 -2.93 1.98 -3.148 1.98 c -0.203 0 -0.523 -0.172 -1.316 -0.699 m 3.234 -4.848 c 0.918 -0.629 1.734 -1.203 1.813 -1.27 c 0.125 -0.109 0.145 -0.324 0.16 -1.902 l 0.016 -1.777 l 0.047 1.73 c 0.027 1.227 0.066 1.723 0.133 1.711 c 0.113 -0.02 3.336 -2.223 3.598 -2.457 c 0.176 -0.164 0.18 -0.207 0.18 -1.875 c 0 -0.938 -0.02 -1.766 -0.047 -1.836 c -0.043 -0.109 -3.645 -2.57 -3.91 -2.672 c -0.051 -0.02 -0.543 0.273 -1.086 0.652 c -1.688 1.172 -2.684 1.813 -2.824 1.813 c -0.137 0 -1.512 -0.984 -1.77 -1.266 c -0.117 -0.129 -0.148 -0.344 -0.176 -1.195 c -0.02 -0.813 -0.051 -1.043 -0.145 -1.059 c -0.063 -0.012 -0.516 0.246 -1 0.57 c -2.848 1.902 -4.563 3.098 -4.582 3.199 c -0.012 0.066 0.707 0.586 1.832 1.32 c 1.02 0.66 1.934 1.289 2.035 1.391 c 0.098 0.105 0.977 0.723 1.957 1.375 l 1.777 1.184 v 1.723 c 0.004 0.949 0.012 1.754 0.02 1.793 c 0.039 0.145 0.348 -0.035 1.977 -1.152" fill="#810cf6"/><path d="m 14.484 11.254 c -1.789 -1.277 -2.078 -1.52 -2.02 -1.676 c 0.027 -0.074 0.254 -0.281 0.504 -0.461 c 0.254 -0.184 0.832 -0.609 1.285 -0.953 c 0.453 -0.34 1.016 -0.719 1.246 -0.84 l 0.422 -0.215 l 0.453 0.27 c 0.453 0.27 2.719 1.813 3.07 2.09 c 0.156 0.121 0.164 0.168 0.059 0.301 c -0.258 0.32 -3.387 2.449 -3.602 2.449 c -0.035 0 -0.676 -0.434 -1.418 -0.965" fill="#ff7070"/><path d="m 15.949 19.414 v -1.742 l -1.82 -1.238 c -1 -0.684 -1.844 -1.277 -1.871 -1.32 c -0.043 -0.07 0.676 -0.574 2.902 -2.023 l 0.789 -0.516 l 0.453 0.27 c 0.371 0.215 2.957 1.93 3.328 2.199 c 0.137 0.102 0.063 3.492 -0.078 3.664 c -0.188 0.23 -3.469 2.445 -3.625 2.445 c -0.043 0 -0.078 -0.781 -0.078 -1.738" fill="#ffd400"/><path d="m 16.328 23.16 v -1.828 c 0.848 -0.504 1.703 -1.082 2.426 -1.582 c 0.684 -0.477 1.301 -0.902 1.371 -0.945 c 0.102 -0.063 0.129 0.305 0.129 1.711 v 1.793 l -1.965 1.344 l -1.961 1.34" fill="#006900"/><path d="m 14.11 23.914 c -0.973 -0.641 -1.836 -1.234 -1.922 -1.32 c -0.242 -1.188 -0.211 -2.047 -0.051 -3.621 l 1.809 1.207 c 0.996 0.664 1.895 1.238 2 1.27 c 0.172 0.055 0.188 0.219 0.188 1.852 c 0 1.363 -0.031 1.785 -0.129 1.781 c -0.074 -0.004 -0.926 -0.531 -1.895 -1.168" fill="#00822c"/><path d="m 9.797 21.06 c -1.043 -0.699 -1.934 -1.332 -1.98 -1.41 c -0.105 -0.188 -0.172 -3.387 -0.07 -3.449 c 0.09 -0.055 0.973 0.461 2.441 1.422 c 1.309 0.863 1.648 1.031 1.707 0.867 c 0.023 -0.07 0.055 -0.816 0.074 -1.664 c 0.016 -0.844 0.055 -1.563 0.09 -1.594 c 0.035 -0.035 0.898 0.48 1.922 1.141 l 1.859 1.207 l 0.008 1.742 c 0.004 1.719 0.004 1.742 -0.195 1.637 c -0.113 -0.059 -0.914 -0.559 -1.781 -1.117 c -0.867 -0.555 -1.676 -1.043 -1.801 -1.082 l -0.227 -0.066 v 1.82 c 0 1 -0.031 1.816 -0.074 1.816 c -0.039 -0.004 -0.93 -0.574 -1.973 -1.27" fill="#d54a28"/><path d="m 20.22 17.941 c -0.035 -0.207 -0.063 -0.977 -0.063 -1.715 v -1.344 l 0.406 -0.348 c 0.762 -0.648 3.258 -2.395 3.324 -2.328 c 0.109 0.113 0.137 3.289 0.031 3.5 c -0.082 0.156 -3.461 2.605 -3.598 2.605 c -0.023 0 -0.07 -0.168 -0.102 -0.371" fill="#56acff"/></svg>