<svg xmlns="http://www.w3.org/2000/svg" viewBox="0 0 32 32"><path d="m 26.06 26.645 c 17.03 -12.949 -5.828 -36.754 -20.742 -21.629 c -15.04 12.926 6.477 38.33 20.742 21.629" fill="#b2b2c2"/><path d="m 18.262 12.707 c 0.141 1.898 3.508 2.82 4.07 4.508 c -3.199 2.125 5.758 1.711 0.824 0.82 c -3.164 -1.672 -6.473 -7.652 -10.461 -4.203 c 1.01 3.246 5.422 5.539 7.52 7.883 c 1.965 0.008 5.398 -0.855 1.492 -1.711 c -4.547 -0.758 -7.527 -4.848 -11.816 -5.03 c -4.566 0.449 1.695 3.465 2.469 5.387 c 1.754 2.527 8.59 1.766 3.707 -0.891 c -2.336 -3.156 -12.898 -3.922 -7.02 1.215 c 0.703 1.891 6.684 3.332 5.168 0.863 c -4.094 -1.438 -6.539 -0.031 -4.03 2.711 c 1.691 1.574 6.672 -0.699 2.32 -0.91 c 2.047 4.23 -7.543 -2.047 -4.141 2.039 c 1.648 1.25 8.262 -0.055 3.301 0.711 c 2.57 1.645 2.199 -1.781 2.551 -1.52 c -1.504 -2.246 -8.207 -0.301 -2.754 0.555 c 4.867 1.16 3.348 -5.05 -0.824 -3.387 c 1.074 2.215 8.06 0.957 3.195 -0.695 c -1.465 -1.949 1.051 -2.586 -2.219 -2.898 c -2.32 -1.355 -6.141 -0.402 -1.902 1.242 c 2.527 1.316 5.582 4.375 8.773 1.512 c -2.539 -1.961 -6.625 -7.918 -10.691 -5.137 c 3.129 2.234 7.527 3.445 10.945 5.707 c 3.359 1.797 6.754 0.145 3.137 -2.191 c 0.098 -1.672 -4.273 -4.461 -5.898 -5.977 c -3.957 0.402 1.105 4.285 2.531 5.02 c 2.398 -0.043 2.586 0.414 2.043 0.445 c 1.898 2.645 8.352 -0.715 4.57 -3.984 c -1.063 -2.605 -4.469 -2.625 -6.867 -2.086" fill="#7a68ed"/><path d="m 21.625 5.52 c -0.102 -0.277 -0.574 -0.289 -0.73 -0.004 c 0 0 -3.199 5.473 -4.652 8.301 c -0.063 0.008 -0.129 0.02 -0.184 0.039 l 0.137 0.309 l -0.191 0.184 l -1.438 3.398 c -0.629 -0.004 -1.398 0.258 -2.047 0.773 c -1.887 1.5 -2.227 4.07 -2.227 4.07 c 2.621 -1.652 5.109 -1.516 5.469 -3.609 c 0.055 -0.332 -0.004 -0.598 -0.145 -0.797 l 2.133 -3.211 l 0.023 -0.238 l 0.371 -0.121 c -0.031 -0.043 -0.07 -0.086 -0.117 -0.129 c 1.73 -2.879 3.617 -8.828 3.617 -8.828 c 0 -0.051 -0.004 -0.094 -0.02 -0.137 m -6.04 12.621 c -0.207 -0.258 -0.563 -0.387 -0.988 -0.395 c 0.398 -0.094 0.801 0.09 0.988 0.395" fill="#fff"/></svg>