<svg xmlns="http://www.w3.org/2000/svg" viewBox="0 0 32 32"><path d="m 25.324 1.887 c -47.668 -13.902 -17.281 54.781 4.04 20.328 c 3.898 -6.332 4.172 -17.08 -4.04 -20.328" fill="#382f68"/><g transform="matrix(0.125 0 0 0.125 -0.727 -1.662)"><path d="m 174.03 210.14 c -3.813 -2.656 -23.375 -33.594 -32.688 -51.719 c -1.375 -2.688 -3.063 -3.813 -8.188 -5.375 c -8.188 -2.5 -15.09 -6.438 -18.656 -10.656 c -2.813 -3.344 -3.625 -6.875 -1.781 -8 c 0.531 -0.344 6.844 1.188 13.969 3.375 c 15.219 4.719 14.656 4.938 18.781 -7.281 c 2.156 -6.469 2.469 -8.563 1.438 -9.813 c -2.031 -2.438 -13.938 -7.688 -19.281 -8.469 c -5.594 -0.844 -6.094 -2.531 -1.563 -5.188 c 10.969 -6.438 28.03 -1.156 34.16 10.594 c 2.469 4.719 2 12.438 -1.25 20.25 c -1.531 3.781 -2.813 7.313 -2.813 7.844 c 0 0.531 3.094 5.625 6.875 11.313 c 8.969 13.5 26.438 42.938 26.438 44.563 c 0 1.688 -9.531 10.375 -11.375 10.375 c -0.813 0 -2.625 -0.813 -4.063 -1.813 m 3.219 -4.531 c 0 -0.75 -2.5 -5.125 -18.19 -31.531 l -4.469 -7.563 l 3.125 -2.656 c 3.625 -3.094 3.03 -4.531 -1.188 -3.063 c -5.594 2 -5.781 4.125 -1.156 13.09 c 5.594 10.781 19.531 32.563 20.844 32.563 c 0.563 0 1.031 -0.375 1.031 -0.844 m -30 -50.44 c 0 -0.313 -0.813 -2.156 -1.813 -4.063 c -1.688 -3.281 -1.688 -3.563 0.094 -4.625 c 4.25 -2.563 5.594 -3.781 4.844 -4.469 c -0.844 -0.875 -12 4.875 -12 6.156 c 0 1.625 5.75 7.625 7.313 7.625 c 0.875 0 1.563 -0.281 1.563 -0.625" fill="#fff" stroke="#382f68" fill-opacity="0.976" stroke-width="1.13"/><g stroke-opacity="0.988" fill-opacity="0.988" stroke-width="0.78"><path d="m 102.32 95.2 c -1.938 -2.563 -7.656 -12.719 -9.844 -16.438 c -5.688 -9.75 -3.5 -7.969 3.344 -20.281 l 4.219 -7.563 c 10.406 0.125 20.16 -0.063 30.563 0.063 l 6.375 9.125 c 3.5 5.03 6.219 9.531 6.03 10.03 c -0.563 1.5 -12.719 26 -13.281 26.03 c -6.156 -0.938 -27.969 1.656 -27.406 -0.969" fill="#03cfd6" stroke="#03cfd6"/><path d="m 64.1 148.36 c -1.938 -2.531 -7.656 -12.688 -9.844 -16.406 c -5.688 -9.781 -3.5 -8 3.344 -20.281 l 4.219 -7.594 c 10.406 0.156 20.16 -0.063 30.563 0.094 l 6.375 9.125 c 3.5 5 6.219 9.5 6.03 10 c -0.563 1.5 -12.719 26.03 -13.281 26.06 c -6.156 -0.969 -27.969 1.625 -27.406 -1" fill="#ffa400" stroke="#ffa400"/><path d="m 180.41 164.98 c -1.906 -2.563 -7.656 -12.688 -9.844 -16.406 c -5.688 -9.781 -3.5 -8 3.344 -20.313 l 4.219 -7.563 c 10.406 0.156 20.16 -0.063 30.563 0.094 l 6.375 9.125 c 3.531 5 6.25 9.5 6.03 10 c -0.563 1.5 -12.719 26 -13.281 26.03 c -6.156 -0.938 -27.969 1.656 -27.406 -0.969" fill="#7fff00" stroke="#7fff00"/><path d="m 101.47 204.86 c -1.906 -2.531 -7.656 -12.688 -9.813 -16.406 c -5.688 -9.781 -3.531 -8 3.313 -20.281 l 4.219 -7.594 c 10.406 0.156 20.16 -0.063 30.594 0.094 l 6.375 9.125 c 3.5 5 6.219 9.5 6.03 10 c -0.594 1.5 -12.75 26.03 -13.313 26.06 c -6.125 -0.969 -27.938 1.625 -27.406 -1" fill="#1e8fff" stroke="#1e8fff"/></g></g></svg>