<svg xmlns="http://www.w3.org/2000/svg" viewBox="0 0 32 32"><path d="m 15.809 31.828 c -3.293 -0.254 -7.105 -1.832 -9.73 -4.02 c -3.191 -2.664 -5.457 -6.75 -5.973 -10.777 c -0.602 -5.316 2.668 -11.04 6.238 -13.746 c 1.793 -1.324 4.145 -2.375 6.336 -2.832 c 5.699 -1.199 11.535 1.066 15.434 5.992 c 2.336 2.953 3.496 5.93 3.695 9.453 c 0.234 4.219 -1.578 8.746 -4.719 11.793 c -3.559 2.875 -7.172 4.434 -11.285 4.141" fill="#3cb270"/><path d="m 25.496 16.09 c 0 5.672 -4.438 10.273 -9.906 10.273 c -5.473 0 -9.91 -4.602 -9.91 -10.273" fill="#2c8252"/><path d="m 5.68 16.09 c 0 -5.676 4.438 -10.273 9.91 -10.273 c 5.469 0 9.906 4.598 9.906 10.273" fill="#2c704a"/><path d="m 16.05 14.594 c -0.59 -1.746 -2.168 -2.996 -4.03 -2.996 c -2.367 0 -4.281 2.01 -4.281 4.496 c 0 2.484 1.914 4.496 4.281 4.496 c 1.859 0 3.438 -1.254 4.03 -3 h 3.102 v 3 h 2.852 v -3 h 1.426 v -2.996 m -11.406 2.996 c -0.789 0 -1.43 -0.668 -1.43 -1.496 c 0 -0.828 0.641 -1.5 1.43 -1.5 c 0.785 0 1.426 0.672 1.426 1.5 c 0 0.828 -0.641 1.496 -1.426 1.496" fill="#fff"/></svg>