<svg xmlns="http://www.w3.org/2000/svg" viewBox="0 0 32 32"><path d="m 27.402 26.13 c 20 -28.13 -32.02 -37.08 -26.855 -7.191 c 2.734 11.891 18.844 18.461 26.855 7.191" fill="#62e4ff"/><path d="m 16.06 31.945 c -0.109 -0.18 0.891 -2.707 2.18 -5.492 c 0.527 -1.184 1.324 -5.93 1.746 -4.406 c 0.035 0.129 0.102 0.234 0.152 0.234 c 0.051 -0.004 0.586 -0.754 1.191 -1.668 c 1.836 -2.781 3.824 -5.164 6.859 -8.23 c 1.578 -1.594 2.875 -2.969 2.879 -3.059 c 0.02 -0.352 0.551 1.398 0.809 2.668 c 0.336 1.684 0.363 4.512 0.055 6.277 c -1.01 5.785 -4.809 10.5 -10.219 12.672 c -1.695 0.68 -5.441 1.344 -5.652 1" fill="#fdd162"/><path d="m 10.242 20.742 c -0.68 -0.984 -1.785 -2.504 -2.465 -3.371 c -1.281 -1.645 -5.488 -5.914 -6.418 -6.52 c -0.641 -0.418 -0.633 -0.586 0.102 -2.262 c 0.715 -1.629 1.301 -2.523 2.473 -3.762 c 0.977 -1.031 2.375 -2.188 2.637 -2.184 c 0.133 0 1.863 2.434 2.723 3.824 c 1.34 2.172 3.57 7 4.352 9.426 c 0.094 0.285 0.227 0.52 0.293 0.52 c -0.477 1.734 -1.637 3.418 -2.047 5.281 c -0.086 0.414 -0.219 0.773 -0.289 0.797 c -0.074 0.023 -0.684 -0.766 -1.359 -1.75" fill="#6b62ff"/><path d="m 19.82 22.254 c -0.223 -1.184 -0.695 -2.391 -1.18 -3.395 c -0.75 -1.543 -0.809 -1.723 -0.633 -1.996 c 0.105 -0.168 0.457 -1.047 0.781 -1.957 c 1.379 -3.879 3.367 -7.66 5.895 -11.211 l 0.613 -0.863 l 0.824 0.559 c 1.066 0.723 2.488 2.055 3.254 3.043 c 0.629 0.816 1.711 2.695 1.715 2.977 c 0 0.09 -1.289 1.488 -2.867 3.109 c -3.422 3.512 -4.824 5.152 -6.715 7.867 c -0.777 1.117 -1.465 2.031 -1.523 2.035 c -0.059 0 -0.133 -0.074 -0.164 -0.168" fill="#ff6262"/><path d="m 13.777 16.457 c -0.148 0.059 -0.523 -0.961 -0.648 -1.34 c -0.344 -1.055 -1.68 -4.113 -2.633 -6.03 c -1.066 -2.145 -1.727 -3.25 -3 -5.03 c -0.453 -0.637 -0.867 -1.227 -0.922 -1.313 c -0.129 -0.211 1.707 -1.156 3.246 -1.664 c 4.715 -1.477 8.402 -1.027 11.957 0.137 c 1.418 0.469 3.469 1.426 3.469 1.617 c 0 0.074 -0.293 0.547 -0.648 1.051 c -2.332 3.293 -4.383 7.254 -5.809 11.223 c -0.207 0.578 -0.688 1.809 -0.734 1.797 c -1.664 -1.02 -2.77 -1.039 -4.273 -0.449" fill="#303943"/><path d="m 15.273 31.773 c -0.934 -2.285 -1.824 -4.297 -2.918 -6.551 c -0.992 -2.039 -1.063 -2.246 -1.059 -3.121 c 0.004 -0.66 0.039 -0.844 0.355 -1.691 c 0.191 -0.527 0.656 -1.563 1.027 -2.305 c 1.781 -3.535 1.863 -3.77 1.871 -5.211 c 0.012 -1.703 -0.32 -2.426 -1.453 -3.164 c -1.066 -0.691 -1.055 -0.594 -0.184 -1.465 c 0.414 -0.414 0.875 -0.953 1.023 -1.203 c 0.152 -0.246 0.383 -0.574 0.512 -0.723 c 0.129 -0.148 0.117 -0.09 0.117 -0.156 c 0 -0.07 -0.02 -0.832 -0.469 -1.043 c -1.113 -0.523 -0.723 -1.145 -0.516 -1.336 c 0.148 -0.137 0.645 -0.141 0.797 0.016 c 0.25 0.313 0.105 0.602 0.184 0.887 c 0.176 0.656 0.453 1.117 0.688 1.148 c 0.305 0.043 0.527 -0.211 0.285 -1.203 c -0.223 -0.906 -0.707 -1.539 0.258 -1.547 c 0.742 -0.004 0.457 0.586 0.273 1.512 c -0.207 1.055 -0.02 1.254 0.301 1.254 c 0.234 0 0.461 -0.359 0.711 -1.133 c 0.125 -0.387 0.027 -0.746 0.258 -1.086 c 0.383 -0.555 1.352 0.207 1.051 0.758 c -0.219 0.391 -0.555 0.332 -0.898 0.684 c -0.34 0.352 -0.5 0.918 -0.5 1 c 0 0.086 -0.012 0.129 0.125 0.348 c 0.383 0.629 0.516 1.164 0.512 2.039 c -0.004 0.805 -0.066 1.133 -0.461 2.344 c -0.207 0.637 -0.23 0.816 -0.234 2 c -0.004 1.57 0.086 1.891 0.973 3.5 c 1.949 3.527 2.141 3.941 2.328 5.078 c 0.176 1.043 0.063 1.395 -1.293 4.03 c -1.051 2.035 -2.289 4.707 -2.676 5.758 l -0.273 0.742 c -0.277 -0.07 -0.691 0.051 -0.715 -0.16" fill="#fff"/></svg>