<svg xmlns="http://www.w3.org/2000/svg" viewBox="0 0 32 32"><path d="m 28.879 6.598 c 15.992 24.05 -35.01 38.875 -28.26 7.773 c 2.879 -12.852 20.926 -20.652 28.26 -7.773" fill="#dcdcdc"/><path d="m 10.05 23.309 c -0.129 -0.043 -0.32 -0.215 -0.426 -0.379 c -0.195 -0.309 -0.242 -0.695 -0.27 -2.313 c -0.016 -0.848 0.133 -1.043 0.891 -1.184 c 1.242 -0.227 1.445 -0.293 1.652 -0.531 c 0.16 -0.184 0.188 -0.27 0.129 -0.426 c -0.164 -0.406 -0.191 -1.133 -0.059 -1.438 l 0.133 -0.293 l 1.727 -0.258 c 0.949 -0.141 2.379 -0.348 3.172 -0.461 c 2.465 -0.348 2.594 -0.371 2.594 -0.488 c 0 -0.266 -1.293 -0.777 -2.441 -0.965 c -1.016 -0.168 -2.094 -0.031 -3.03 0.383 c -0.777 0.34 -1.184 0.645 -1.762 1.309 c -0.961 1.098 -1.938 1.543 -3.605 1.645 c -1.098 0.07 -1.613 -0.039 -1.797 -0.375 c -0.137 -0.258 -0.281 -0.324 -0.684 -0.324 c -0.238 0 -0.301 -0.035 -0.344 -0.203 c -0.109 -0.414 0.02 -0.582 0.695 -0.93 c 1.316 -0.68 2.293 -1.371 3.047 -2.16 c 0.992 -1.398 1.266 -1.262 2.391 -1.676 c 0.184 -0.145 0.293 -0.953 0.293 -1.199 c 0 -0.117 0.215 -0.023 0.262 -0.023 c 0.047 0 0.082 0.203 0.082 0.449 c 0 0.355 0.039 0.48 0.18 0.59 c 0.207 0.184 0.336 0.535 0.57 0.547 c 0.32 -0.129 1.02 -0.344 1.402 -0.434 c 0.52 -0.117 2.488 -0.121 3.02 0 c 1.918 0.434 3.199 1.09 4.547 2.336 l 0.652 0.602 l 0.418 -0.055 c 0.227 -0.031 0.547 -0.066 0.707 -0.082 c 0.16 -0.016 0.5 -0.066 0.754 -0.117 c 0.598 -0.117 0.672 -0.047 0.824 0.738 c 0.246 1.246 0.246 1.461 -0.004 1.93 c -0.219 0.414 -0.227 0.473 -0.207 1.586 c 0.02 1.07 -0.145 1.289 -0.324 1.629 c -0.379 0.703 -0.508 0.992 -1.262 1.082 c -0.379 0.047 -0.828 -0.324 -1.176 -0.469 c -0.66 -0.277 -1.406 0.055 -6.01 0.547 c -3.887 0.41 -4.152 0.504 -5.04 1.25 c -0.691 0.582 -1.324 0.297 -1.695 0.16" fill="#86694c"/><path d="m 9.887 22.902 c -0.18 -0.172 -0.227 -0.32 -0.289 -0.898 c -0.023 -0.199 -0.066 -0.484 -0.098 -0.629 c -0.051 -0.23 -0.031 -0.273 0.156 -0.34 c 0.117 -0.043 0.238 -0.121 0.273 -0.172 c 0.355 -0.086 0.684 -0.055 0.934 -0.242 c 0.363 -0.277 0.379 -0.281 0.68 -0.148 c 0.352 0.148 0.492 -0.281 0.777 -0.16 c 0.16 0.07 0.496 0.387 0.617 0.277 c 0.211 -0.152 0.227 -0.43 0.406 -0.582 c 0.27 -0.215 0.336 0.082 0.59 0 c 0.254 -0.086 0.457 -0.023 0.988 0.316 c 0.469 0.203 0.316 -0.145 0.559 -0.332 c 0.082 -0.027 0.207 -0.098 0.281 -0.16 c 0.117 -0.094 0.16 -0.086 0.289 0.051 c 0.23 0.199 0.715 0.324 0.965 0.313 c 0.734 -0.031 0.75 -0.348 0.891 -0.457 c 1.199 -0.184 0.68 0.223 1.055 -0.219 c 0.285 -0.313 0.301 -0.32 0.418 -0.168 c 0.066 0.09 0.121 0.188 0.121 0.227 c 0 0.035 0.109 0.063 0.246 0.063 c 0.207 0 0.266 -0.051 0.383 -0.324 c 0.074 -0.18 0.137 -0.418 0.137 -0.527 c 0 -0.316 0.141 -0.313 0.309 0.012 c 0.176 0.383 0.344 0.34 0.613 0.129 c 0.207 -0.168 0.293 -0.313 0.328 -0.566 c 0.055 -0.445 -0.27 -0.48 -0.633 -0.379 c -0.129 0.035 -0.465 0.074 -0.746 0.082 c -0.82 0.02 -2.41 0.242 -3.699 0.512 c -0.434 0.109 -0.891 0.043 -1.313 0.16 c -0.418 -0.023 -1.484 0.703 -1.609 0.543 c -0.098 -0.129 -0.141 -0.133 -0.313 -0.047 c -0.711 0.047 -1.523 0.441 -2.219 0.27 c 0.207 -0.188 0.652 -0.273 0.891 -0.504 c 0.676 -0.555 -0.047 -1.156 0.371 -1.852 c 0.465 -0.484 1.23 -0.387 1.777 -0.473 c 1.371 0.066 4.508 -0.914 5.66 -0.738 c 0.355 0.078 0.316 -0.191 -0.086 -0.59 c -0.406 -0.398 -1.605 -0.855 -2.629 -1 c -1.09 -0.156 -2.266 0.047 -3.367 0.582 c -0.195 0.094 -0.758 0.563 -1.25 1.039 c -0.492 0.477 -1.027 0.961 -1.191 1.078 c -0.57 0.41 -1.867 0.715 -3.07 0.719 c -0.648 0.004 -0.969 -0.117 -1.172 -0.445 c -0.254 -0.367 -0.543 -0.246 -0.883 -0.406 c -0.031 -0.117 0.953 -0.547 1.297 -0.57 c 0.383 -0.043 0.672 -0.297 1 -0.41 c 0.039 0.039 0.285 -0.246 0.699 -0.809 c 0.332 -0.496 1.023 -0.676 1.277 -1.188 c 0.305 -0.559 1.082 -0.488 1.48 -0.848 c 0.215 -0.199 0.414 -0.469 0.602 -0.656 c 0.184 -0.348 0.215 -0.371 0.387 -0.281 c 0.094 0.047 0.168 0.168 0.168 0.281 c 0.074 0.258 0.102 0.375 -0.051 0.57 c -0.25 0.316 -0.461 0.914 -0.461 1.316 c 0 0.262 0.012 0.273 0.336 0.273 c 0.184 0 0.359 -0.039 0.387 -0.082 c 0.031 -0.047 0.133 -0.082 0.227 -0.082 c 0.387 -0.051 0.738 -0.234 1.094 -0.363 c 0.211 -0.078 0.426 -0.477 0.504 -0.516 c 0.57 -0.148 1.316 0.496 1.836 0.191 c 0.148 -0.09 0.203 -0.09 0.34 0.008 c 0.273 0.102 0.738 0.188 0.926 0.082 c 0.121 -0.078 0.32 -0.176 0.438 -0.219 c 0.359 -0.07 0.285 0.309 0.539 0.363 c 0.391 -0.152 0.523 -0.336 0.523 -0.086 c 0.18 0.918 1.23 0.066 1.23 0.84 c 0 0.613 0.332 0.664 0.977 0.148 c 0.383 -0.402 0.633 -0.223 0.508 0.219 c -0.043 0.148 -0.078 0.297 -0.078 0.328 c 0 0.117 0.445 0.063 0.543 -0.063 c 0.082 -0.109 0.156 -0.113 0.477 -0.035 c 0.352 0.09 0.711 0.102 1.063 0.156 c 0.047 0.012 0.172 0.02 0.277 0.016 c 0.164 -0.012 0.188 -0.043 0.141 -0.215 c 0.023 -0.371 0.262 -0.016 0.484 0.039 c 0.203 0 0.285 0.164 0.422 0.84 c 0.18 0.496 0.035 0.703 -0.203 1.141 c -0.348 0.652 -0.313 0.969 -0.129 1.832 c 0.098 0.449 0.008 0.637 -0.336 1.285 c -0.188 0.359 -0.027 0.621 -0.23 0.801 c -0.355 0.305 -0.734 0.367 -1.367 0.156 c -0.18 -0.145 -0.27 -0.344 -0.453 -0.477 c -0.219 -0.086 -1.582 -0.043 -2.598 0.082 c -0.875 0.129 -1.77 0.145 -2.641 0.297 c -0.234 0.039 -0.922 0.129 -1.531 0.199 c -1.414 0.156 -3.266 0.492 -3.832 0.695 c -0.242 0.086 -0.426 0.492 -0.609 0.656 c -0.164 0.145 -0.477 0.313 -0.832 0.453 c -0.375 0.145 -0.793 -0.203 -0.98 -0.383 m 0.785 -1.355 c 1.223 0.711 1.355 0.313 0.441 -0.379 c -0.09 -0.219 -1.383 0.016 -1.316 0.473 c 0.039 0.258 0.242 -0.273 0.875 -0.094 m 14.13 -1.688 c -0.074 -0.254 -0.676 -0.461 -0.91 -0.461 c -0.625 0 -1.273 0.527 -1.012 1.082 c 0.035 0.082 0.441 -0.523 0.688 -0.559 c 0.207 -0.031 0.43 -0.004 0.617 0.074 c 0.664 0.188 0.68 0.074 0.617 -0.137 m -1.984 -0.77 c 0.285 0.141 0.469 -0.117 0.762 -0.059 c 0.387 -0.012 0.422 -0.363 0.758 -0.367 c 0.531 0 0.555 -0.168 0.621 -1.117 c 0.055 -0.773 0.156 -0.848 -0.047 -1.043 c -0.266 -0.254 -0.324 -0.254 -0.66 0.035 c -0.234 0.199 -0.258 0.254 -0.164 0.359 c 0.277 0.543 -0.488 0.605 -0.672 0.641 c -1.652 0.32 -1.77 0.371 -1.621 0.746 c 0.047 0.113 0.184 0.359 0.305 0.539 c 0.188 0.285 0.176 0.863 0.316 0.789 c 0.145 -0.039 0.309 -0.578 0.402 -0.523" fill="#3e2f23"/><path d="m 5.637 16.398 c 0.047 -0.418 0.188 -1.105 0.32 -1.523 l 0.242 -0.766 l 1.301 -0.664 c 1.359 -0.691 2.176 -1.422 3.094 -2.766 c 0.367 -0.539 0.531 -0.664 0.863 -0.664 c 1.082 0 1.273 1.586 0.332 2.684 c -0.113 0.129 -0.441 0.273 -0.734 0.324 c -0.438 0.074 -0.656 0.246 -1.262 0.992 c -0.75 0.926 -1.738 1.703 -3.34 2.629 l -0.895 0.516" fill="#9b9b9b"/></svg>