<svg xmlns="http://www.w3.org/2000/svg" viewBox="0 0 32 32"><path d="m 3.984 7.828 c 26.344 -28.34 42.941 30.15 7.969 23.699 c -9.227 -3.184 -16.43 -14.602 -7.969 -23.699"/><g fill-rule="evenodd" stroke="#fff"><path d="m 141.54 161.45 c 0 17.03 -14.475 30.848 -32.35 30.848 c -17.875 0 -32.35 -13.817 -32.35 -30.848 c 0 -17.03 14.475 -30.827 32.35 -30.827 c 17.875 0 32.35 13.795 32.35 30.827" transform="matrix(0.1827 0 0 0.18349 -6.68 -10.265)" fill="#00f"/><path d="m 141.54 161.44 c 0 17.04 -14.494 30.864 -32.33 30.864 c -17.88 0 -32.373 -13.825 -32.373 -30.864 c 0 -16.995 14.494 -30.82 32.373 -30.82 c 17.835 0 32.33 13.825 32.33 30.82" transform="matrix(0.08652 0 0 0.08872 11.786 -6.02)" fill="#47d0cc"/></g></svg>