<svg xmlns="http://www.w3.org/2000/svg" viewBox="0 0 32 32"><path d="m 10.05 30.496 c 38.902 11.969 19.445 -52.34 -7.207 -22.266 c -5.34 6.02 -3.285 19.04 7.207 22.266" fill="#3e4f80"/><path d="m 6.793 23.578 c -0.73 -0.223 -0.816 -0.305 -0.676 -0.648 c 1 -2.496 1.391 -3.703 1.484 -4.613 c 0.082 -0.789 0.07 -1.051 -0.059 -1.348 c -0.086 -0.203 -0.215 -0.348 -0.285 -0.324 c -0.074 0.023 -0.191 0.438 -0.27 0.961 c -0.133 0.918 -0.434 2.168 -0.531 2.125 c -0.496 -0.203 -0.344 -0.672 -0.227 -1.156 c 0.223 -0.934 0.832 -2.531 0.832 -3.574 c 0 -1.816 0.973 -3.656 2.289 -4.336 c 0.52 -0.27 0.621 -0.281 1.941 -0.27 c 2.48 0.023 3.848 0.027 4.449 0.008 l 0.371 0.039 l -0.035 0.641 c -0.039 0.715 0.691 2.527 1.531 2.75 c 0.078 0.023 -0.289 -0.676 -0.469 -0.961 c -0.844 -1.34 -0.867 -2.551 -0.07 -3.273 c 0.234 -0.211 0.426 -0.449 1.01 -0.48 c 0.652 -0.035 1.074 0.105 1.754 0.449 c 0.414 0.211 0.871 0.574 1.371 0.719 c 2.277 0.664 3.184 1.613 4.07 4.254 c 0.184 0.559 0.344 0.867 0.422 0.895 c 0.074 0.031 0.285 0.043 0.496 -0.004 c 0.215 -0.047 0.867 -0.051 0.594 0.121 c -0.199 0.125 -0.398 0.332 -0.602 0.367 c -0.207 0.039 -0.398 0.199 -0.426 0.246 c -0.031 0.043 0.039 0.34 0.152 0.996 c 0.301 1.719 0.422 2.992 0.449 4.598 c 0.02 1.246 0 1.418 -0.156 1.449 c -0.141 0.027 -0.176 -0.047 -0.176 -0.355 c 0 -1 -0.945 -4.598 -1.625 -6.203 c -0.438 -1.031 -0.66 -1.285 -1.113 -1.285 c -0.199 0 -0.605 -0.098 -0.906 -0.211 c -0.68 -0.262 -0.672 -0.004 -0.742 0.258 c -0.051 0.191 -0.293 -0.047 -1.223 -0.047 c -0.648 0 -1.051 0.043 -1.098 0.117 c -0.043 0.066 -0.098 0.43 -0.125 0.813 c -0.059 0.82 0.102 1.355 0.977 3.223 c 0.32 0.688 0.684 1.547 0.805 1.914 c 0.156 0.469 0.371 0.824 0.707 1.176 c 0.316 0.328 0.461 0.563 0.418 0.672 c -0.113 0.281 -0.641 0.473 -1.316 0.473 c -0.707 0 -0.867 -0.129 -0.867 -0.691 c 0 -0.32 -1.227 -2.422 -2.594 -4.445 l -0.887 -1.313 l -0.492 -0.031 c -0.355 -0.023 -0.777 0.074 -1.551 0.352 c -0.684 0.246 -1.391 0.418 -1.977 0.477 c -0.773 0.078 -0.945 0.133 -1.148 0.355 c -0.129 0.145 -0.539 0.387 -0.91 0.535 c -1.426 0.574 -1.316 0.488 -1.523 1.211 c -0.105 0.367 -0.227 0.715 -0.27 0.77 c -0.172 0.219 -0.641 1.805 -0.672 2.258 c -0.027 0.418 -0.059 0.473 -0.297 0.492 c -0.148 0.012 -0.508 -0.055 -0.805 -0.141 m 15.914 -10.945 c 0 -0.137 -0.078 -0.172 -0.215 -0.207 c -0.434 -0.109 -0.691 0.008 -0.691 0.148 c 0 0.141 0.367 0.715 0.691 0.531 c 0.125 -0.07 0.215 -0.332 0.215 -0.473 m -13.324 11.05 c -0.039 -0.039 -0.07 -0.262 -0.07 -0.5 c -0.004 -0.234 -0.121 -0.805 -0.27 -1.266 c -0.313 -0.992 -0.156 -0.965 0.063 -1.695 c 0.156 -0.527 0.055 -0.41 0.492 -0.594 c 0.266 -0.109 0.527 -0.383 0.582 -0.383 c 0.055 0 0.098 0.293 0.098 0.652 c 0.004 0.855 0.516 2.578 0.902 3.02 c 0.324 0.379 0.313 0.516 -0.055 0.699 c -0.27 0.137 -1.617 0.184 -1.742 0.063 m 6.246 -0.094 c -0.117 -0.137 -0.105 -0.219 0.059 -0.492 c 0.281 -0.469 0.609 -3.098 0.473 -3.801 c -0.121 -0.617 -0.016 -1.73 0.16 -1.73 c 0.109 0 1.398 1.965 1.555 2.359 c 0.035 0.094 -0.039 0.766 -0.242 1.422 l -0.371 1.195 l 0.262 0.504 c 0.145 0.277 0.234 0.551 0.199 0.605 c -0.035 0.055 -0.492 0.102 -1.012 0.102 c -0.727 0 -0.977 -0.039 -1.082 -0.164" fill="#f4f4f4"/></svg>