<svg xmlns="http://www.w3.org/2000/svg" viewBox="0 0 32 32"><path d="m 4.672 5.961 c -8.254 11.84 -2.676 22.625 5.816 25.18 c 11.43 3.445 27.672 -5.602 18.281 -24.25 c -3.734 -7.41 -18.215 -9.371 -24.1 -0.938" fill="#7f7f7f"/><path d="m 14.41 24.59 c -2.281 -0.156 -3.309 -0.34 -4.656 -0.832 c -0.941 -0.34 -1.359 -0.582 -1.836 -1.066 c -0.59 -0.602 -0.762 -1.18 -0.473 -2.078 c 0.141 -0.434 0.246 -0.469 0.207 -1.191 c -0.027 -0.57 -0.012 -0.898 0.047 -1.023 c 0.047 -0.098 0.574 -0.602 1.168 -1.113 l 1.121 -0.516 l -0.043 -0.844 c -0.02 -0.344 -0.039 -0.473 -0.199 -0.656 c -0.156 -0.184 -0.234 -0.426 -0.375 -1.195 c -0.152 -0.824 -0.18 -1.234 -0.188 -2.734 c -0.004 -1.207 0.02 -1.797 0.078 -1.859 c 0.059 -0.066 0.715 -0.094 2.105 -0.094 c 1.113 0 2.48 -0.035 3.043 -0.074 c 0.563 -0.043 1.328 -0.047 1.301 -0.016 c -0.082 0.098 -1.121 0.285 -2.281 0.512 c -1.324 0.262 -1.449 0 -1.098 0.07 c 2.184 0.469 3.305 0.254 5.355 0.355 c 0.246 0.012 2.09 -0.055 2.645 -0.215 c -0.125 -0.23 0.211 0.078 -2.23 -0.43 c -0.699 -0.145 -1.68 -0.211 -1.68 -0.246 c 0 -0.039 0.676 -0.215 0.996 -0.289 c 0.324 -0.078 0.863 -0.215 1.203 -0.301 c 1.121 -0.293 2.809 -0.176 3.676 0.254 c 0.383 0.188 0.863 0.434 0.543 0.313 c -0.219 -0.086 -1.328 -0.074 -1.418 0.02 c -0.133 0.145 0.168 0.215 0.914 0.215 c 0.465 0 0.805 0.035 0.855 0.094 c 0.055 0.059 0.102 0.688 0.129 1.68 c 0.039 1.445 0.027 1.645 -0.117 2.246 c -0.09 0.363 -0.184 0.879 -0.211 1.145 c -0.047 0.422 -0.086 0.516 -0.305 0.699 c -0.219 0.184 -0.254 0.266 -0.254 0.563 c 0 0.395 -0.313 0.633 -0.047 0.828 c 0.105 0.078 0.988 0.473 1.461 0.879 c 0.969 0.836 0.91 0.672 0.926 2.043 c 0.004 0.43 0.055 0.793 0.156 1.086 c 0.277 0.801 0.172 1.301 -0.391 1.871 c -0.805 0.813 -2.508 1.418 -4.906 1.734 c -0.898 0.117 -4.328 0.227 -5.223 0.168 m -0.605 -4.03 c 0 -0.066 -0.148 -0.246 -0.516 -0.625 c -0.102 -0.102 -0.32 -0.512 -0.449 -0.473 c -0.484 0.063 -0.781 -0.168 -1.242 -0.215 c -0.34 0.023 -0.516 0.844 -0.516 0.977 c 0 0.082 0.406 0.223 0.906 0.313 c 0.547 0.098 1.816 0.113 1.816 0.023 m 6.57 -0.02 c 0.793 -0.098 1.719 -0.395 1.719 -0.551 c -0.543 -1.18 -1.055 -0.953 -1.703 -0.77 c -1.02 0.051 -0.766 0.387 -0.949 0.727 c -0.191 -0.027 -0.746 0.48 -0.672 0.613 c 0.055 0.098 0.723 0.09 1.605 -0.02 m 0.449 -11.141 c 0.039 -0.301 -1.77 -0.074 -1.844 -0.055 c -0.074 0.023 1.031 0.117 1.156 0.117 c 0.125 0.004 0.68 0 0.688 -0.063 m -7.098 -0.277 c -0.066 -0.016 -0.848 -0.059 -1.742 -0.094 c -1.41 -0.051 -1.602 -0.074 -1.445 -0.172 c 0.348 -0.219 1.445 -0.516 2.449 -0.379 c 0.938 0.125 1.828 0.328 1.914 0.422 c 0.047 0.051 -0.996 0.277 -1.176 0.223" fill="#cecdcc"/><path d="m 13.617 23.02 c -2.406 -0.199 -4.434 -0.746 -5.359 -1.449 c -0.555 -0.422 -0.672 -0.668 -0.645 -1.34 c 0.027 -0.629 0.078 -0.727 0.289 -0.59 c 0.082 0.055 0.168 0.098 0.195 0.098 c 0.094 0 -0.039 -1.117 -0.156 -1.297 c -0.234 -0.371 -0.121 -0.563 0.816 -1.395 c 0.438 -0.383 0.465 -0.391 0.941 -0.238 c 0.156 0.051 0.172 0.031 0.172 -0.246 c 0 -0.168 0.066 -0.418 0.148 -0.559 c 0.098 -0.164 0.152 -0.395 0.152 -0.641 c 0 -0.211 0.031 -0.402 0.074 -0.43 c 0.102 -0.066 1.094 0.141 1.121 0.25 c 0.016 0.051 -0.113 0.336 -0.066 0.578 c 0.07 0.344 0.156 0.512 0.406 0.781 c 0.277 0.297 0.395 0.363 0.887 0.48 c 0.313 0.074 0.766 0.137 1.01 0.137 c 0.387 0 0.559 0.086 0.75 -0.113 c 0.25 -0.254 0.23 -0.48 0.07 -0.867 c -0.105 -0.27 -3.188 -0.457 -3.598 -0.77 c -0.254 -0.195 -1.195 -0.582 3.922 0.07 c 1.238 0.156 4.438 -0.184 5.375 -0.148 l 0.617 0.02 l -0.348 0.406 c -0.117 0.137 -1.984 0.188 -2.152 0.191 c -0.797 0.023 -1.148 0.133 -0.988 0.477 c 0.168 0.367 -0.176 0.684 0.324 0.777 c 0.512 0.098 1.719 -0.191 2.055 -0.398 c 0.23 -0.145 0.734 -0.176 0.734 -0.609 c 0 -0.418 -0.219 -0.449 -0.398 -0.547 c -1.504 -0.012 -0.508 -0.16 0.254 -0.387 c 0.258 -0.078 0.297 -0.164 0.332 -0.289 c 0.031 -0.109 0.109 -0.398 0.176 -0.645 c 0.141 -0.469 0.48 -0.621 0.797 -0.926 v -1.551 c 0 -1.281 -0.02 -1.566 -0.113 -1.645 c -0.063 -0.055 -0.113 -0.145 -0.113 -0.199 c 0 -0.16 0.82 -0.453 1.285 -0.461 l 0.418 -0.004 l 0.02 0.664 c 0.008 0.363 0.051 0.832 0.094 1.039 c 0.109 0.547 0.094 1.32 -0.039 1.645 c -0.063 0.156 -0.133 0.555 -0.16 0.891 c -0.043 0.563 -0.063 0.621 -0.305 0.84 c -0.23 0.211 -0.258 0.273 -0.258 0.664 c -0.004 0.234 0.031 0.551 0.074 0.699 c 0.141 0.469 -0.063 0.973 0.328 0.902 c 0.223 -0.043 0.297 0.004 0.777 0.469 c 0.289 0.285 0.645 0.621 0.785 0.754 l 0.258 0.234 l -0.246 0.711 c -0.168 0.48 0.164 0.434 0.289 0.469 c 0.152 0.039 0.238 0.352 0.238 0.852 c 0 1.207 -1.703 2.043 -5.141 2.523 c -1.035 0.145 -4.871 0.219 -6.098 0.121 m 0.816 -1.953 c 0.035 -0.031 0.098 -0.309 0.141 -0.613 c 0.086 -0.59 0.078 -0.582 0.609 -0.672 c 0.398 -0.07 0.406 -0.156 0.039 -0.383 c -0.176 -0.105 -0.422 -0.305 -0.543 -0.438 c -0.145 -0.152 -0.27 -0.227 -0.355 -0.199 c -0.211 -0.215 -0.418 -0.691 -0.82 -0.824 c -0.344 -0.102 -1.813 -0.191 -2.063 -0.129 c -0.105 0.027 -0.469 0.336 -0.809 0.688 l -0.617 0.633 l -0.488 -0.055 l -0.492 -0.055 v 0.52 c 0 0.285 0.035 0.586 0.078 0.668 c 0.27 0.52 4.898 1.27 5.32 0.859 m 5.844 -0.051 c 0.762 -0.117 1.527 -0.219 2.246 -0.5 l -0.055 -0.648 c -0.055 -0.703 -0.047 -0.723 0.457 -1.031 c 0.121 -0.074 0.082 -0.148 -0.352 -0.703 c -0.574 -0.734 -0.469 -0.711 -2.184 -0.438 c -1.254 0.199 -1.668 0.375 -2.01 0.836 c -0.219 0.305 -1.039 0.898 -1.379 1.01 c -0.27 0.082 -0.203 0.176 0.172 0.234 c 0.398 0.059 0.453 0.148 0.527 0.848 c 0.039 0.367 0.082 0.465 0.215 0.52 c 0.195 0.082 1.102 0.031 2.359 -0.125 m -4.727 -6.758 c -0.527 -0.047 -0.719 -0.164 -0.844 -0.516 c -0.055 -0.148 -0.133 -0.375 -0.168 -1.648 c -0.035 -1.5 -0.066 -1.293 0.098 -1.355 c 0.488 -0.191 2.75 -0.156 2.969 0.02 c 0.418 0.328 -0.039 2.613 -0.098 2.867 c -0.156 0.695 -0.789 0.742 -1.957 0.633 m -5.719 0.117 c -0.277 -0.246 -0.375 -1.379 -0.422 -1.762 c -0.008 -0.078 -0.059 -0.469 -0.082 -1.219 c -0.023 -0.754 0.117 -1.578 0.07 -1.715 c -0.148 -0.43 -0.031 -0.461 0.863 -0.219 c 0.98 0.27 1.242 0.398 1.117 0.555 c -0.059 0.07 -0.234 0.113 -0.488 0.113 c -0.484 0 -0.473 -0.039 -0.488 1.563 c -0.004 0.621 -0.055 1.207 -0.055 1.309 c 0.063 1.852 0.172 1.977 -0.516 1.375" fill="#535254"/><path d="m 110.17 202.52 c -16.1 -0.615 -29.703 -3.073 -41.515 -7.41 c -6.971 -2.595 -10.885 -4.883 -14.834 -8.775 c -5.357 -5.327 -6.73 -10.551 -4.567 -17.38 l 0.961 -3 l 0.412 3 c 0.378 2.698 0.687 3.244 3.537 6.04 c 7.932 7.683 27.505 13.18 52.4 14.648 c 16.1 0.956 44.4 -0.068 56.04 -2.01 c 22.11 -3.688 35.33 -9.356 38.596 -16.561 l 1.03 -2.288 l 0.687 2.663 c 1.167 4.507 0.893 7.717 -0.893 10.858 c -4.739 8.263 -18.508 14.478 -39.97 18.06 c -10.439 1.741 -35.712 2.8 -51.885 2.151" transform="matrix(0.11376 0 0 0.1144 1.858 1.363)" fill="#6a9cd4" stroke="#86cefa" stroke-width="1.847"/><path d="m 125.72 63.53 c -11.5 0.438 -19.344 2.5 -19.344 2.813 c 0 0.25 7.906 1.094 9.938 1.688 c 5.844 1.625 9 3.75 14.281 2.656 c 10.281 -2.406 24.5 -3.969 24.563 -4.156 c -6.313 -0.969 -24.406 -3.188 -29.438 -3" transform="scale(0.125)" fill="#cecdcc" stroke="#cecdcc" stroke-width="0.64"/></svg>