<svg xmlns="http://www.w3.org/2000/svg" viewBox="0 0 32 32"><path d="m 3.684 29.3 c -2.133 -4.781 -4.84 -15.918 -3.449 -21.13 c 1.074 -3.965 4.16 -6.867 8.242 -7.754 c 6.691 -1.449 16.512 3.863 20.332 7.848 c 7.484 9.121 -1.352 16.98 -8.434 20.32 c -3.988 1.578 -13.07 6.113 -16.691 0.715" fill="#efe58c"/><path d="m 113 191.84 c -4.094 -2.813 -14.219 -10.5 -18.219 -13.813 c -5.281 -4.406 -6.594 -5.313 -8.531 -5.844 c -6.906 -1.969 -14.625 1.156 -21.25 -1.969 c -11.125 -4.813 -18.313 -17.938 -21.469 -23.969 c -1.781 -17.281 3.813 -38.656 10.469 -49.19 c 1.594 -6.25 17 -19.313 18.781 -20.656 c 9.5 -5.406 22.344 -10.03 32.09 -10.531 c 9.969 -0.563 20.03 0.781 26.969 5.875 c 8.688 6.03 11.938 26.75 12.03 32.34 l 0.031 9.75 c -12.656 23.688 -16.719 43.44 -23.875 45.44 c -5.063 5.594 -9.781 5.969 -10.906 7.594 c 1.156 3.406 2.219 1.438 4.531 4.469 c 5.25 1.781 13.344 11.438 14.938 12.06 c 11.406 8.594 -0.813 14.719 -15.594 8.406 m -21.19 -31.03 c 14.531 -5.531 13.188 -3.281 20.938 -12.719 c 5.094 -6.156 8.781 -14.656 11.469 -26.25 c 1.469 -6.344 1.844 -9.875 1.75 -15.969 c -2.281 -21.625 -5.156 -28 -25.563 -27.375 c -17.5 0.75 -25.25 14.719 -37.09 27.09 c -4 19.688 -7.094 30.656 -3.063 41.563 c 12.281 11.875 14.594 16.375 31.563 13.656" transform="scale(0.125)" fill="#fb1b12" stroke="#fb1b12" stroke-width="0.327"/><path d="m 150.07 148.65 c -0.133 -6.719 -1.11 -7.126 -6.774 -2.76 c -5.486 4.258 -5.863 4.408 -9.55 3.852 c -9.639 -0.086 -10.639 -3.338 -9.439 -13.203 c 0.422 -3.06 0.644 -8.516 0.999 -9.822 c 2.599 -15.749 4.886 -13.502 8.995 -19.622 c 4.775 -4.943 19.08 -8.07 22.943 -8.088 c 8.662 0.043 11.505 0.428 12.882 1.776 c 1.31 1.284 1.199 3.295 -0.311 5.371 c -1.954 3.83 -1.755 7.768 -3.42 11.812 c -0.755 1.755 -3.665 15.193 -4.175 19.237 c -0.244 2.054 -0.155 2.632 0.489 3.295 c 1.222 1.198 3.953 0.556 7.685 -1.776 c 3.465 -2.183 4.153 -2.375 4.575 -1.305 c 2.354 7.81 -6.73 8.195 -9.75 9.822 c -7.507 2.867 -11.905 4.215 -15.15 1.412 m -8.195 -7.297 c 3.887 -2.611 9.306 -5.071 11.194 -8.816 c 1.222 -2.482 3.842 -12.839 5.13 -20.285 c 0.777 -4.429 0.755 -4.601 -0.067 -5.499 c -1.222 -1.327 -4.04 -1.926 -7.285 -1.562 c -3.798 0.407 -5.353 1.134 -7.729 3.573 c -4.753 4.857 -8.973 17.653 -8.973 27.2 c 0 3.959 0.067 4.301 1.199 5.392 c 1.599 1.562 3.776 1.562 6.53 0" transform="matrix(0.17588 0 0 0.18255 -6.418 -5.195)" fill="#0dad0c" stroke="#0dad0c" stroke-width="0.452"/></svg>