<svg xmlns="http://www.w3.org/2000/svg" viewBox="0 0 32 32"><path d="m 7.598 3.773 c 11.844 -10.398 30.07 6 22.699 19.727 c -7.449 13.879 -32.11 10.18 -30.01 -6.863 c 0.621 -5.07 3.441 -9.473 7.309 -12.867" fill="#86cefa"/><g fill="#fff" stroke="#fff" stroke-width="1.086" transform="scale(0.125)"><path d="m 56.13 173.31 c -3.813 -3.813 -2.688 -4.844 8.594 -7.969 c 6.875 -1.906 10.25 -3.625 11.438 -5.813 c 0.688 -1.344 10.156 -56.03 10.156 -58.813 c 0 -0.375 -3.188 -0.281 -7.03 0.156 c -8.781 1.031 -13.188 0.344 -13.188 -2.063 c 0 -3.688 22.469 -10.125 35.38 -10.125 c 8.406 0 9.625 0.469 9.625 3.656 c 0 3.313 -1.594 4.563 -7.531 5.875 l -4.844 1.063 l -4.844 27.09 c -2.688 14.875 -4.656 27.969 -4.375 29.09 c 0.313 1.344 1.531 2.313 3.406 2.813 c 1.594 0.406 3.344 1.469 3.875 2.375 c 2.844 4.594 -16 13.13 -31.25 14.13 c -6.75 0.438 -7.625 0.281 -9.406 -1.469"/><path d="m 135.41 179.19 c -2.844 -2.844 -2.875 -5.625 -0.063 -9.75 c 3.344 -4.906 4.125 -8.781 6.125 -30.22 c 3 -32.31 3.188 -37.03 1.438 -38.469 c -1.281 -1.063 -2.125 -0.813 -6.03 1.688 c -5.75 3.688 -7.781 3.438 -8.156 -1 c -0.281 -3.531 -0.563 -3.219 8.375 -9.969 c 4.375 -3.313 9.938 -4.188 25.906 -4.063 c 13.656 0.094 23.375 2.219 31.563 6.906 c 6.219 3.563 8.344 7.813 8.344 16.875 c 0.031 23.906 -20.844 51.34 -46.781 61.53 c -3.03 1.188 -7.313 3.625 -9.531 5.438 c -4.75 3.906 -8.03 4.219 -11.188 1.031 m 27.09 -15.313 c 3.938 -1.969 8.531 -5.594 14.281 -11.25 c 7.406 -7.313 9.03 -9.5 12.656 -17.09 c 4.781 -10.09 6.563 -16.844 5.906 -22.625 c -0.813 -7.125 -4.156 -9.438 -17.906 -12.219 c -10.906 -2.219 -18.813 -2.469 -20.344 -0.594 c -1.156 1.375 -1.688 5.906 -4.625 38.719 c -1 11.156 -2.25 21.469 -2.813 22.906 c -0.531 1.438 -0.781 3.156 -0.5 3.813 c 0.844 2.188 7.25 1.375 13.344 -1.656"/></g></svg>