<svg xmlns="http://www.w3.org/2000/svg" viewBox="0 0 32 32"><path d="m 7.77 2.684 c -28.16 23.891 29.75 46.863 23.797 9.914 c -1.305 -8.102 -16.207 -16.352 -23.797 -9.914" fill="#79c1e0"/><path d="m 553.92 565.57 c 0 140.07 -113.65 253.62 -253.66 253.62 c -140.15 0 -253.66 -113.55 -253.66 -253.62 c 0 -140.07 113.51 -253.62 253.66 -253.62 c 140.01 0 253.66 113.55 253.66 253.62" transform="matrix(0.02801 0 0 0.02518 7.425 0.937)" fill="#343486" fill-rule="evenodd" stroke="#343486" stroke-linejoin="round" fill-opacity="0.498" stroke-linecap="round" stroke-width="116.17"/><path d="m 15.984 21.504 c -0.031 -2.41 0.305 -3.074 2.273 -4.426 c 3.01 -2.141 3.684 -2.977 3.684 -4.699 c 0 -2.559 -2.363 -4.277 -5.867 -4.277 c -3.469 0 -5.988 1.523 -5.988 3.641 c 0 1.082 0.859 1.895 1.996 1.895 c 0.984 0 1.75 -0.594 1.75 -1.355 c 0 -0.492 -0.305 -0.91 -0.891 -1.301 c -0.461 -0.297 -0.492 -0.348 -0.492 -0.543 c 0 -0.641 1.352 -1.23 2.828 -1.23 c 2.18 0 3.438 1.133 3.438 3.03 c 0 1.01 -0.367 1.941 -0.98 2.656 c -2.273 2.484 -2.273 2.484 -2.672 3.344 c -0.309 0.688 -0.43 1.328 -0.43 2.484 v 0.785 h 1.352" fill="#fff"/><path d="m 15.359 23.887 c -0.918 0 -1.648 0.656 -1.648 1.457 c 0 0.824 0.73 1.484 1.621 1.484 c 0.918 0 1.652 -0.66 1.652 -1.484 c 0 -0.801 -0.734 -1.457 -1.625 -1.457" fill="#343486"/><path d="m 470.76 484.87 l -194.99 -195.04" transform="matrix(0.03638 0 0 0.03271 6.952 7.267)" fill="none" stroke="#343486" stroke-linecap="round" stroke-width="90"/><path d="m 15.984 21.504 c -0.031 -2.41 0.305 -3.074 2.273 -4.426 c 3.01 -2.141 3.684 -2.977 3.684 -4.699 c 0 -2.559 -2.363 -4.277 -5.867 -4.277 c -3.469 0 -5.988 1.523 -5.988 3.641 c 0 1.082 0.859 1.895 1.996 1.895 c 0.984 0 1.75 -0.594 1.75 -1.355 c 0 -0.492 -0.305 -0.91 -0.891 -1.301 c -0.461 -0.297 -0.492 -0.348 -0.492 -0.543 c 0 -0.641 1.352 -1.23 2.828 -1.23 c 2.18 0 3.438 1.133 3.438 3.03 c 0 1.01 -0.367 1.941 -0.98 2.656 c -2.273 2.484 -2.273 2.484 -2.672 3.344 c -0.309 0.688 -0.43 1.328 -0.43 2.484 v 0.785 h 1.352" fill="#fff" fill-opacity="0.498"/></svg>