<svg xmlns="http://www.w3.org/2000/svg" viewBox="0 0 32 32"><path d="m 28.28 26.449 c 7.785 -11.973 1.504 -22.875 -7.309 -25.465 c -11.855 -3.477 -27.949 5.668 -17.344 24.516 c 4.215 7.488 19.11 9.473 24.652 0.945" fill="#fff"/><path d="m 8.352 25.15 c -0.25 -0.289 -0.258 -16.77 -0.008 -17.02 c 0.129 -0.129 2.184 -0.168 8.387 -0.168 c 6.938 0 8.25 0.031 8.422 0.203 c 0.48 0.488 0.035 0.773 -1.297 0.824 l -1.109 0.039 l -0.035 6.316 l -0.035 6.313 h 1.137 c 0.797 0 1.199 0.063 1.34 0.203 c 0.48 0.488 0.035 0.773 -1.297 0.824 l -1.109 0.043 l -0.039 1.121 c -0.051 1.348 -0.332 1.805 -0.813 1.313 c -0.145 -0.141 -0.203 -0.547 -0.203 -1.355 v -1.152 l -6.23 0.035 l -6.23 0.039 l -0.039 1.121 c -0.051 1.348 -0.371 1.844 -0.84 1.305 m 13.34 -9.848 v -6.348 l -6.23 0.035 l -6.23 0.039 l -0.035 6.313 l -0.039 6.313 h 12.535 m -5.574 -2.152 c -0.359 -0.406 -0.855 -0.648 -1.562 -0.766 c -0.547 -0.094 -0.941 -0.383 -1.594 -1.172 c -0.16 -0.191 -0.211 -0.645 -0.211 -1.867 v -1.613 l 0.766 -0.699 c 0.754 -0.684 1.172 -0.859 2.02 -0.859 c 0.633 0 1.578 0.539 2.102 1.199 c 0.457 0.57 0.465 0.609 0.465 2.01 v 1.43 l -0.539 0.746 c -0.496 0.684 -0.523 0.766 -0.32 0.973 c 0.125 0.125 0.227 0.383 0.227 0.574 c 0 0.305 -0.063 0.344 -0.543 0.344 c -0.371 0 -0.625 -0.094 -0.809 -0.297 m 0.184 -2.164 c 0.621 -0.691 0.789 -1.648 0.438 -2.488 c -0.32 -0.754 -0.531 -0.898 -1.309 -0.898 c -1.117 0 -1.262 0.176 -1.32 1.641 c -0.051 1.191 -0.035 1.25 0.344 1.652 c 0.512 0.543 1.402 0.586 1.848 0.094 m -6.254 -4.906 c -0.051 -0.141 0.008 -0.305 0.145 -0.41 c 0.313 -0.23 0.328 -1.43 0.023 -1.547 c -0.277 -0.109 -0.27 -0.609 0.012 -0.719 c 0.434 -0.168 0.895 -0.086 1.039 0.188 c 0.082 0.152 0.148 0.645 0.148 1.094 c 0 0.594 0.063 0.859 0.23 0.984 c 0.141 0.105 0.199 0.27 0.148 0.41 c -0.07 0.18 -0.277 0.234 -0.875 0.234 c -0.594 0 -0.805 -0.055 -0.871 -0.234 m 0.555 12.719 c -0.094 -0.113 -0.176 -0.34 -0.176 -0.508 c 0 -0.168 -0.141 -0.418 -0.313 -0.559 c -0.266 -0.219 -0.285 -0.289 -0.121 -0.488 c 0.105 -0.129 0.398 -0.23 0.668 -0.23 c 0.383 0 0.504 0.074 0.613 0.367 c 0.199 0.527 0.172 1.191 -0.063 1.426 c -0.25 0.254 -0.383 0.254 -0.609 -0.008 m 1.656 0.07 c 0 -0.078 -0.102 -0.141 -0.223 -0.141 c -0.176 0 -0.203 -0.098 -0.125 -0.465 c 0.211 -1.02 0.359 -1.176 1.121 -1.176 c 0.602 0 0.719 0.047 0.875 0.355 c 0.098 0.195 0.18 0.629 0.18 0.961 c 0 0.551 -0.031 0.609 -0.348 0.609 c -0.266 0 -0.371 -0.094 -0.434 -0.395 c -0.172 -0.77 -0.223 -0.895 -0.352 -0.813 c -0.074 0.043 -0.133 0.234 -0.133 0.418 c 0 0.184 -0.039 0.438 -0.086 0.563 c -0.094 0.246 -0.477 0.313 -0.477 0.082 m 11.125 -12.988 c 0 -0.305 0.145 -0.582 0.492 -0.934 c 0.27 -0.273 0.492 -0.555 0.492 -0.629 c 0 -0.07 -0.207 -0.148 -0.457 -0.172 c -0.383 -0.039 -0.457 -0.102 -0.457 -0.402 c 0 -0.328 0.055 -0.359 0.75 -0.398 c 0.656 -0.039 0.758 -0.008 0.824 0.25 c 0.043 0.16 0.133 0.293 0.199 0.293 c 0.07 0 0.125 0.16 0.125 0.355 c 0 0.195 -0.063 0.355 -0.141 0.355 c -0.078 0 -0.141 0.125 -0.141 0.281 c 0 0.152 -0.109 0.34 -0.242 0.414 c -0.215 0.121 -0.199 0.16 0.141 0.316 c 0.426 0.195 0.5 0.484 0.16 0.613 c -0.121 0.051 -0.566 0.09 -0.984 0.09 c -0.758 0 -0.762 -0.004 -0.762 -0.434" fill="#696969"/></svg>