<svg xmlns="http://www.w3.org/2000/svg" viewBox="0 0 32 32"><path d="m 7.77 2.332 c -28.16 24.18 29.75 47.43 23.797 10.04 c -1.305 -8.199 -16.207 -16.547 -23.797 -10.04" fill="#5b5b5b"/><path d="m 147.56 216.14 c -0.166 -0.794 -0.25 -2.804 -0.677 -14.14 c -0.209 -5.276 -0.512 -5.891 -3.916 -7.906 c -6.718 -3.96 -6.353 -9.385 0.808 -12.474 c 6.452 -2.792 8.59 -4.778 7.084 -6.602 c -1.653 -1.959 -3.225 -1.877 -23.705 1.318 c -10.921 1.708 -19.369 2.518 -21.938 2.063 c -12.172 -2.04 -17.613 -17.534 -10.118 -28.838 c 1.569 -2.369 3.821 -7.448 4.985 -11.253 c 1.198 -3.835 3.843 -9.169 5.936 -11.878 c 3.607 -4.737 3.741 -5.323 3.74 -14.156 c -0.002 -7.423 -0.287 -9.228 -1.603 -9.222 c -2.881 -0.006 -5.227 5.067 -4.475 9.722 c 0.88 5.54 -1.021 6.791 -4.39 2.868 c -4.443 -5.185 -2.277 -15.03 4.148 -18.827 c 3.751 -2.222 3.626 -5.02 -0.259 -5.467 c -5.406 -0.646 -7.339 2.482 -11.942 19.211 c -6.183 22.542 -11.287 30.436 -19.557 30.443 c -3.979 0.014 -9.803 -4.199 -12.363 -8.975 c -1.669 -3.119 -3.01 -4.18 -5.949 -4.691 c -4.862 -0.828 -8.469 -3.075 -12.239 -7.557 c -1.653 -1.959 -3.968 -3.869 -5.163 -4.262 c -1.166 -0.36 -2.119 -1.552 -2.139 -2.65 c -0.003 -2.287 2.776 -4.95 3.682 -3.511 c 0.338 0.555 4.293 2.293 8.82 3.913 l 8.199 2.901 l 2.812 -2.223 c 3.373 -2.655 5.575 -2.788 8.806 -0.535 c 2.034 1.421 2.418 2.7 2.394 8.179 c 0.007 5.01 0.399 6.636 1.804 7.169 c 2.718 1.029 4.127 -1.758 7.915 -15.692 c 5.384 -19.965 6.593 -23.05 10.62 -27.505 c 8.529 -9.449 22.01 -7.79 29.17 3.622 c 1.582 2.549 5.504 7.104 8.718 10.08 c 3.183 2.97 6.942 7.608 8.327 10.301 c 1.686 3.339 5.112 6.89 10.829 11.284 c 4.586 3.535 8.64 6.125 9.01 5.743 c 0.368 -0.351 0.349 -2.388 -0.072 -4.515 c -0.576 -3.077 -1.561 -4.271 -4.981 -6.04 c -4.846 -2.456 -5.328 -3.678 -2.111 -5.404 c 6.4 -3.422 16.554 7.66 14.502 15.822 c -0.731 2.958 1 4.202 3.829 2.669 c 5.327 -2.836 3.46 -9.07 -6.095 -20.2 c -8.365 -9.74 -13.148 -16.388 -15.07 -20.903 c -4.859 -11.571 3.446 -22.35 15.199 -19.68 c 2.839 0.63 4.136 0.435 5.125 -0.751 c 2.114 -2.551 8.468 -5.287 16.998 -7.313 c 4.391 -1.02 8.133 -1.708 8.308 -1.508 c 0.206 0.202 0.54 1.289 0.745 2.43 c 0.246 1.457 -0.81 2.733 -3.58 4.332 c -12.932 7.399 -12.999 7.457 -12.365 11.07 c 0.777 4.281 -2.186 8.278 -6.164 8.292 c -1.565 -0.011 -5.03 -1.591 -7.718 -3.526 c -4.989 -3.593 -7.244 -3.588 -7.232 -0.048 c -0.013 1.127 5.173 8.304 11.486 15.963 c 6.346 7.631 12.481 16.06 13.683 18.68 c 2.842 6.173 2.103 12.04 -2.106 17.335 c -4.481 5.618 -9.257 7.708 -17.624 7.772 c -3.885 0.02 -9.945 0.709 -13.446 1.538 c -3.694 0.91 -8.573 1.271 -11.681 0.905 c -4.538 -0.525 -6.7 -0.044 -15.12 3.587 c -9.739 4.168 -9.804 4.195 -7.458 6.107 c 3.087 2.525 5.944 2.436 10.39 -0.335 c 5.521 -3.387 8.05 -0.523 3.666 4.162 c -3.544 3.802 -8.706 4.645 -16.182 2.638 c -3.569 -0.96 -6.828 -1.399 -7.229 -1.019 c -0.37 0.382 -0.384 1.979 -0.017 3.507 c 1.263 4.971 4.925 5.468 20.731 2.836 c 18.592 -3.071 29.618 -3.081 33.482 -0.002 c 3.451 2.707 6.105 7.489 6.117 11.03 c -0.001 1.409 -1.416 4.759 -3.166 7.492 c -2.665 4.237 -3.045 5.683 -2.532 10.166 c 0.434 3.788 -0.119 7.352 -1.902 12.902 c -1.379 4.198 -2.655 8.278 -2.831 9.02 c -0.379 1.447 -4.639 1.912 -4.954 0.544 m -31.566 -76.887 c 6.777 -3.898 7.927 -11.212 1.525 -9.638 c -3.441 0.865 -7.372 4.359 -9.459 8.384 c -3.163 6.05 -1.025 6.383 7.934 1.254 m 31.758 -5.098 c -0.017 -3.01 -8.649 -8.318 -13.536 -8.302 c -3.193 -0.027 -4.72 2.658 -3.08 5.274 c 2.178 3.467 16.599 6.07 16.615 3.03 m -21.14 -14.859 c 1.714 -5.46 -3.656 -17.817 -6.892 -15.811 c -1.766 1.103 -1.563 9.73 0.295 14.239 c 1.808 4.319 5.447 5.159 6.597 1.571" transform="matrix(0.12472 -0.00839 0.00839 0.12472 -0.447 1.255)" fill="#3dfb3d" stroke="#3dfb3d" stroke-width="1.085"/></svg>