<svg xmlns="http://www.w3.org/2000/svg" viewBox="0 0 32 32"><path d="m 15.809 31.633 c 21.06 2.398 21.48 -31.914 0.281 -31.504 c -19.688 -1.133 -22.18 33.375 -0.281 31.504" fill="#365473"/><path d="m 7.07 10.707 h 6.57 c 0.195 0 0.352 0.16 0.352 0.355 v 11.926 c 0 0.195 -0.156 0.352 -0.352 0.352 h -6.57 c -0.195 0 -0.352 -0.156 -0.352 -0.352 v -11.926 c 0 -0.195 0.156 -0.355 0.352 -0.355" fill="#f4f4f4"/><path d="m 6.363 23.633 l -0.254 -0.039 l -0.031 -6.781 c -0.016 -3.73 -0.016 -6.801 0.004 -6.828 c 0.016 -0.027 0.988 -0.063 2.156 -0.078 l 2.129 -0.031 v 0.969 h -1.543 c -0.848 0 -1.594 0.035 -1.664 0.078 c -0.09 0.059 -0.113 0.465 -0.094 1.688 l 0.027 1.613 l 3.273 0.055 v 0.852 h -3.367 l 0.027 1.641 c 0.02 0.902 0.051 1.664 0.078 1.691 c 0.027 0.023 0.77 0.063 1.652 0.082 l 1.609 0.039 v 0.738 h -3.324 l 0.023 1.691 l 0.027 1.691 l 1.637 0.023 l 1.637 0.027 v 0.949 l -1.875 -0.016 c -1.031 -0.008 -1.988 -0.031 -2.129 -0.055" fill="#006f9f"/><path d="m 14.18 23.633 l 0.25 -0.039 l 0.027 -6.781 c 0.016 -3.73 0.012 -6.801 -0.004 -6.828 c -0.016 -0.027 -0.965 -0.063 -2.102 -0.078 l -2.074 -0.031 v 0.969 h 1.504 c 0.824 0 1.555 0.035 1.617 0.078 c 0.09 0.059 0.113 0.465 0.094 1.688 l -0.023 1.613 l -1.598 0.027 l -1.594 0.027 v 0.852 h 3.281 l -0.027 1.641 c -0.016 0.902 -0.051 1.664 -0.074 1.691 c -0.027 0.023 -0.754 0.063 -1.613 0.082 l -1.566 0.039 v 0.738 h 3.238 l -0.047 3.383 l -1.598 0.023 l -1.594 0.027 v 0.949 l 1.824 -0.016 c 1.01 -0.008 1.941 -0.031 2.078 -0.055" fill="#36b24a"/><path d="m 18.84 10.523 h 6.574 c 0.191 0 0.352 0.156 0.352 0.352 v 11.926 c 0 0.195 -0.16 0.355 -0.352 0.355 h -6.574 c -0.195 0 -0.352 -0.16 -0.352 -0.355 v -11.926 c 0 -0.195 0.156 -0.352 0.352 -0.352" fill="#f4f4f4"/><path d="m 18.1 23.516 l -0.25 -0.039 l -0.027 -6.781 c -0.016 -3.73 -0.016 -6.801 0 -6.828 c 0.02 -0.027 0.965 -0.063 2.105 -0.078 l 2.074 -0.035 v 0.969 l -1.504 0.004 c -0.828 0 -1.555 0.035 -1.621 0.078 c -0.09 0.059 -0.109 0.461 -0.09 1.688 l 0.023 1.613 l 1.594 0.027 l 1.598 0.023 v 0.855 h -3.285 l 0.031 1.641 c 0.016 0.902 0.051 1.664 0.074 1.688 c 0.023 0.027 0.75 0.066 1.613 0.086 l 1.566 0.035 v 0.742 h -3.242 l 0.027 1.691 l 0.023 1.691 l 1.594 0.023 l 1.598 0.027 v 0.949 l -1.828 -0.016 c -1 -0.008 -1.938 -0.031 -2.074 -0.055" fill="#36b24a"/><path d="m 25.895 23.516 l 0.254 -0.039 l 0.031 -6.781 c 0.016 -3.73 0.012 -6.801 -0.004 -6.828 c -0.02 -0.027 -0.988 -0.063 -2.16 -0.078 l -2.125 -0.035 v 0.969 l 1.543 0.004 c 0.848 0 1.594 0.035 1.66 0.078 c 0.094 0.059 0.117 0.461 0.094 1.688 l -0.023 1.613 l -1.637 0.027 l -1.637 0.023 v 0.855 h 3.367 l -0.031 1.641 c -0.016 0.902 -0.051 1.664 -0.074 1.688 c -0.027 0.027 -0.77 0.066 -1.656 0.086 l -1.605 0.035 v 0.742 h 3.324 l -0.027 1.691 l -0.023 1.691 l -1.637 0.023 l -1.637 0.027 v 0.949 l 1.875 -0.016 c 1.027 -0.008 1.988 -0.031 2.129 -0.055" fill="#006f9f"/><path d="m 19.297 16.613 c 0 1.93 -1.527 3.492 -3.414 3.492 c -1.883 0 -3.414 -1.563 -3.414 -3.492 c 0 -1.926 1.531 -3.488 3.414 -3.488 c 1.887 0 3.414 1.563 3.414 3.488" fill="#04335a"/><path d="m 16.03 18.766 c -0.027 -0.066 -0.051 -0.332 -0.051 -0.598 v -0.477 h -1.078 c -1.57 0 -1.457 0.074 -1.457 -0.934 v -0.848 c 0.836 0.008 1.734 -0.051 2.434 -0.094 l 0.113 -0.523 c 0.063 -0.289 0.16 -0.535 0.215 -0.551 c 0.227 -0.066 2.223 1.781 2.223 2.055 c 0 0.266 -1.992 2.086 -2.281 2.086 c -0.035 0 -0.086 -0.055 -0.117 -0.121" fill="#fff"/><g fill="#04335a"><path d="m 7.684 12.246 h 2.383 v 0.605 h -2.383"/><path d="m 7.641 16.535 h 2.379 v 0.605 h -2.379"/><path d="m 7.641 20.824 h 2.379 v 0.605 h -2.379"/><path d="m 11.434 21.11 c 0 0.203 -0.16 0.371 -0.355 0.371 c -0.195 0 -0.352 -0.168 -0.352 -0.371 c 0 -0.207 0.156 -0.375 0.352 -0.375 c 0.195 0 0.355 0.168 0.355 0.375"/><path d="m 12.402 21.11 c 0 0.203 -0.156 0.371 -0.352 0.371 c -0.195 0 -0.355 -0.168 -0.355 -0.371 c 0 -0.207 0.16 -0.375 0.355 -0.375 c 0.195 0 0.352 0.168 0.352 0.375"/><path d="m 11.434 16.863 c 0 0.203 -0.16 0.371 -0.355 0.371 c -0.195 0 -0.352 -0.168 -0.352 -0.371 c 0 -0.207 0.156 -0.375 0.352 -0.375 c 0.195 0 0.355 0.168 0.355 0.375"/><path d="m 11.387 12.527 c 0 0.203 -0.156 0.371 -0.352 0.371 c -0.195 0 -0.352 -0.168 -0.352 -0.371 c 0 -0.207 0.156 -0.375 0.352 -0.375 c 0.195 0 0.352 0.168 0.352 0.375"/><path d="m 12.359 12.48 c 0 0.207 -0.16 0.371 -0.355 0.371 c -0.191 0 -0.352 -0.164 -0.352 -0.371 c 0 -0.207 0.16 -0.375 0.352 -0.375 c 0.195 0 0.355 0.168 0.355 0.375"/><path d="m 19.637 16.535 h 2.379 v 0.605 h -2.379"/><path d="m 19.637 20.777 h 2.379 v 0.605 h -2.379"/><path d="m 19.59 12.293 h 2.383 v 0.605 h -2.383"/></g></svg>