<svg xmlns="http://www.w3.org/2000/svg" viewBox="0 0 32 32"><path d="m 21.21 1.531 c -15.93 -6.195 -24.1 11.164 -20.04 21.973 c 2.832 7.543 14.13 11.305 23.254 5.945 c 11.52 -6.762 9.07 -23.14 -3.215 -27.922" fill="#8b0000"/><g fill="none" transform="matrix(0.27313 0 0 0.26205 15.941 16.212)"><path d="m 21.997 -0.006 c 0 12.164 -9.84 22 -21.996 22 c -12.157 0 -21.996 -9.838 -21.996 -22 c 0 -12.149 9.84 -21.987 21.996 -21.987 c 12.157 0 21.996 9.838 21.996 21.987" stroke="#fff" stroke-width="35"/><g stroke="#000"><g stroke-width="5"><path d="m 40 -0.006 c 0 22.09 -17.906 40.01 -40 40.01 c -22.1 0 -40 -17.918 -40 -40.01 c 0 -22.09 17.906 -39.994 40 -39.994 c 22.1 0 40 17.903 40 39.994"/><path d="m 5.01 -0.006 c 0 2.773 -2.245 5.01 -5.01 5.01 c -2.76 0 -5.01 -2.236 -5.01 -5.01 c 0 -2.758 2.245 -4.994 5.01 -4.994 c 2.76 0 5.01 2.236 5.01 4.994"/></g><g stroke-dasharray="2 2"><path d="m 14 -0.006 c 0 7.736 -6.264 14.01 -14 14.01 c -7.737 0 -14 -6.276 -14 -14.01 c 0 -7.722 6.264 -13.997 14 -13.997 c 7.737 0 14 6.276 14 13.997"/><path d="m 30.993 -0.006 c 0 17.13 -13.873 31.01 -30.992 31.01 c -17.12 0 -31.01 -13.878 -31.01 -31.01 c 0 -17.11 13.887 -30.99 31.01 -30.99 c 17.12 0 30.992 13.878 30.992 30.99"/></g></g><path d="m 12.672 8.446 l 0.429 -0.76 l 12.285 5.247 l 1.974 -0.03 l 0.758 -0.611 l -0.1 -0.954 l 2.832 0.045 l 1.988 -0.358 l 0.715 -0.805 l -8.395 -3.086 l 1.259 -0.492 l 7.837 0.701 l 0.329 -1.953 l -0.329 -1.014 l -0.129 -0.999 l -0.172 -0.969 l 0.486 -0.954 l -4.677 -0.939 l 0.429 -0.865 l 0.4 -0.879 l 2.374 -1.088 l -4.748 -0.373 l 0.543 -0.909 l -0.358 -0.775 l 0.529 -1.804 l 4.534 -2.057 l -0.901 -0.745 l -1.573 -0.507 l 0.329 -1.103 l -3.046 0.149 l -14.717 5.187 l -1.731 -2.996 l 9.654 -7.796 l 3.661 -3.92 l 0.415 -1.565 l -0.329 -1.014 l -14.802 12.641 l 12.185 -12.79 l 0.529 -1.923 l -0.443 -0.984 l -6.464 6.097 l 0.1 -1.312 l 4 -6.633 l -1.659 -1.118 l -1.087 -0.164 l -0.958 -0.298 l -0.973 -0.283 l -0.672 -0.835 l -0.801 -0.611 l -0.815 -0.611 l -0.844 -0.581 l -1.802 1.908 l -0.815 -0.522 l -0.644 -1.118 l -0.872 -0.477 l -1.058 0.179 l -1.23 1.073 l -1.23 1.55 l -0.944 0.283 l -0.83 -0.343 l -0.872 -0.089 l -0.844 -0.298 l -0.872 -0.253 l -0.887 -0.462 l -0.887 0.209 l -0.887 0.462 l -0.887 -0.164 l -0.072 8.124 l 0.315 7.438 l -0.872 0.134" stroke="#dd2100" stroke-width="1.572"/></g></svg>