<svg xmlns="http://www.w3.org/2000/svg" viewBox="0 0 32 32"><path d="m 14.926 31.828 c -3.277 -0.254 -7 -1.832 -9.504 -4.02 c -3.043 -2.664 -5.082 -6.75 -5.375 -10.777 c -0.305 -5.316 3.281 -11.04 7 -13.746 c 1.871 -1.324 4.281 -2.375 6.496 -2.832 c 5.766 -1.199 11.477 1.066 15.1 5.992 c 2.172 2.953 3.172 5.93 3.172 9.453 c 0 4.219 -2.063 8.746 -5.375 11.793 c -3.719 2.875 -7.422 4.434 -11.516 4.141" fill="#f4f4f4"/><path d="m 14.211 28.06 c -3.344 -0.574 -6.484 -2.926 -8.172 -6.125 c -0.441 -0.836 -0.973 -2.422 -1.125 -3.34 c -0.465 -1.492 -0.223 -3.098 0 -4.422 c 0.152 -0.922 0.684 -2.504 1.125 -3.344 c 1.688 -3.195 4.828 -5.551 8.172 -6.121 c 1.918 -0.477 2.703 -0.277 4.301 0 c 3.344 0.57 6.484 2.926 8.172 6.121 c 1.332 2.469 1.445 5.637 1.125 7.766 c -0.152 0.918 -0.684 2.504 -1.125 3.34 c -1.688 3.199 -4.84 5.559 -8.172 6.121 c -1.777 0.406 -2.781 0.266 -4.301 0 m 4.211 -0.953 c 4.379 -0.91 7.746 -4.457 8.52 -8.98 c 0.207 -1.227 0.125 -3.27 -0.18 -4.473 c -1.703 -6.652 -8.793 -10.117 -14.898 -7.281 c -2.23 1.035 -4.305 3.152 -5.32 5.426 c -2.359 5.277 -0.289 11.5 4.742 14.262 c 2.078 1.137 4.789 1.535 7.137 1.047 m -7.375 -6.766 c -0.109 -0.043 -0.285 -0.195 -0.395 -0.336 c -0.191 -0.25 -0.195 -0.336 -0.195 -3.25 c 0 -1.672 0.039 -3.094 0.086 -3.227 c 0.184 -0.488 0.465 -0.57 2.125 -0.625 l 1.527 -0.047 l 0.258 -0.492 l 0.258 -0.496 h 3.668 l 0.262 0.496 l 0.258 0.492 l 1.293 0.047 c 1.387 0.051 1.625 0.129 1.789 0.563 c 0.047 0.133 0.117 1.52 0.148 3.082 c 0.066 3.074 0.039 3.355 -0.391 3.695 c -0.23 0.184 -0.355 0.191 -5.367 0.184 c -2.82 -0.004 -5.219 -0.043 -5.324 -0.086 m 6.598 -1.738 c 0.855 -0.445 1.293 -1.199 1.297 -2.223 c 0.008 -2.297 -2.75 -3.348 -4.242 -1.613 c -0.363 0.422 -0.645 1.125 -0.645 1.621 c 0 0.789 0.633 1.863 1.309 2.219 c 0.695 0.367 1.57 0.367 2.281 -0.004 m -1.91 -0.578 c -0.645 -0.328 -0.984 -0.895 -0.984 -1.637 c 0 -0.617 0.203 -1.023 0.719 -1.449 c 0.656 -0.434 1.609 -0.445 2.145 -0.004 c 1.074 0.883 0.941 2.48 -0.254 3.09 c -0.605 0.309 -1.02 0.309 -1.629 0 m 4.137 -3.145 c 0.359 -0.363 0.129 -0.941 -0.375 -0.941 c -0.324 0 -0.547 0.223 -0.547 0.543 c 0 0.527 0.559 0.77 0.922 0.398 m -7.836 -2.828 c 0.047 -0.215 0.648 -0.184 1.066 -0.184 c 0.348 0 0.379 0.027 0.387 0.164 c 0.023 0.445 0.031 0.492 -0.414 0.426 c -0.496 -0.074 -1.215 0.418 -1.039 -0.406" fill="#050505"/></svg>