<svg xmlns="http://www.w3.org/2000/svg" viewBox="0 0 32 32"><path d="m 10.191 31.418 c 45.08 5.555 7.715 -58.34 -8.84 -17.465 c -2.539 7.184 -0.336 15.262 8.84 17.465" fill="#a9a9a9"/><path d="m 7.07 22.922 c -0.672 -0.273 -0.809 -0.398 -1.156 -1.094 c -0.281 -0.57 -0.285 -0.598 -0.285 -1.809 c 0.004 -1.191 0.016 -1.262 0.309 -1.98 c 1.309 -3.25 4.262 -5.281 8.313 -5.727 c 1.281 -0.141 1.266 -0.105 1.27 -1.02 l 0.043 -11.07 c 0.355 0 0.508 0.105 0.863 0.105 l 0.219 10.938 c 0.008 0.41 0.066 0.789 0.113 0.848 c 0.047 0.055 0.441 0.129 0.875 0.16 c 0.828 0.063 2.188 0.352 3.148 0.676 c 2.789 0.938 5.05 3.258 5.703 5.836 c 0.145 0.582 0.133 2.02 -0.023 2.531 c -0.488 1.586 -1.625 2.086 -3.863 1.699 c -1.047 -0.18 -1.594 -0.352 -2.824 -0.895 c -1.809 -0.789 -2.137 -0.867 -3.691 -0.867 c -1.555 0 -1.895 0.078 -3.691 0.875 c -1.242 0.547 -1.711 0.695 -2.789 0.883 c -1.125 0.195 -1.906 0.168 -2.531 -0.086 m 14.273 -2.301 c 0.32 -0.316 0.309 -0.676 -0.027 -1.01 c -0.34 -0.332 -0.656 -0.332 -0.996 0 c -0.332 0.328 -0.352 0.719 -0.043 1.023 c 0.305 0.297 0.754 0.289 1.066 -0.016 m -10.566 0.039 c 0.711 -0.207 1.344 -0.953 1.469 -1.73 c 0.191 -1.164 -0.848 -2.375 -2.059 -2.402 c -1.406 -0.027 -2.477 1.23 -2.184 2.566 c 0.262 1.199 1.551 1.93 2.773 1.566 m -0.965 -1.258 c -0.898 -0.379 -0.641 -1.629 0.336 -1.629 c 0.82 0 1.184 1.043 0.523 1.504 c -0.328 0.227 -0.547 0.262 -0.859 0.125 m 12.813 0.133 c 0.52 -0.313 0.492 -0.98 -0.051 -1.246 c -0.703 -0.348 -1.391 0.422 -0.941 1.055 c 0.133 0.188 0.406 0.348 0.613 0.359 c 0.051 0.004 0.223 -0.074 0.379 -0.168 m -3.145 -0.395 c 0.605 -0.594 -0.109 -1.582 -0.855 -1.188 c -0.094 0.051 -0.234 0.207 -0.309 0.352 c -0.379 0.715 0.586 1.406 1.164 0.836 m 5 -0.703 c 0.484 -0.473 0.117 -1.277 -0.586 -1.277 c -0.262 0 -0.711 0.461 -0.711 0.734 c 0 0.117 0.102 0.34 0.23 0.488 c 0.297 0.352 0.746 0.371 1.066 0.055 m -3.316 -0.672 c 0.129 -0.148 0.23 -0.328 0.23 -0.398 c 0 -0.242 -0.254 -0.613 -0.488 -0.719 c -0.336 -0.152 -0.445 -0.133 -0.754 0.121 c -0.211 0.176 -0.277 0.301 -0.277 0.531 c 0 0.695 0.836 0.996 1.289 0.465 m -4.113 -1.082 c 0.523 -0.215 0.602 -0.832 0.156 -1.23 c -0.211 -0.184 -1.199 -0.293 -1.758 -0.191 c -0.879 0.164 -1.031 1.191 -0.219 1.484 c 0.277 0.098 1.531 0.059 1.82 -0.063 m 5.66 -0.051 c 0.652 -0.391 0.383 -1.344 -0.379 -1.344 c -0.762 0 -1.027 0.953 -0.375 1.344 c 0.355 0.215 0.398 0.215 0.754 0" fill="#2e2e2e"/></svg>