<svg xmlns="http://www.w3.org/2000/svg" viewBox="0 0 32 32"><path d="m 16.18 0.375 c 21.305 -2.395 21.01 31.879 -0.379 31.473 c -19.887 1.129 -21.684 -33.34 0.379 -31.473" fill="#cd853e"/><path d="m 12.996 9.133 c -0.246 0.152 -0.242 0.223 -0.434 0.352 c -0.438 0.293 -2.238 1.688 -2.148 1.695 c 0.852 0.035 1.488 0.023 2.238 -0.012 l 0.051 1.273 c 0.074 1.742 -0.039 0.953 0.039 1.105 c 1.199 0.063 4.281 0.023 5.238 0.098 c 0.188 -0.16 0.012 0.461 0.035 -0.516 c 0.035 -1.668 0.047 -1.785 0.184 -1.867 c 0.109 -0.066 0.395 -0.09 1.086 -0.09 c 0.512 0 0.934 -0.023 0.934 -0.051 c 0 -0.027 -0.477 -0.449 -1.063 -0.934 c -1.309 -1.156 -1.281 -0.992 -1.727 -1.051 c -1.43 0.012 -3.824 -0.016 -4.434 -0.004" fill="#ffd600"/><g fill="#9f522d"><path d="m 9.887 20.19 c -0.266 -0.023 -0.633 -0.051 -0.82 -0.063 l -0.336 -0.02 l -0.031 -0.5 c -0.016 -0.277 -0.047 -1.047 -0.066 -1.719 l -0.035 -1.215 l 1.344 0.004 c 2.01 0.004 4.926 0.066 4.965 0.105 c 0.016 0.016 -0.023 0.113 -0.09 0.215 c -0.262 0.398 -0.563 0.969 -0.688 1.313 c -0.113 0.316 -0.133 0.457 -0.156 1.09 l -0.027 0.73 l -0.27 0.031 c -0.48 0.051 -3.293 0.074 -3.789 0.027"/><path d="m 8.875 22.797 c -0.055 -0.09 -0.121 -0.852 -0.121 -1.406 v -0.559 l 2.586 -0.031 c 1.836 -0.023 2.602 -0.02 2.648 0.02 c 0.035 0.027 0.074 0.121 0.094 0.203 c 0.137 0.699 0.297 1.305 0.402 1.504 c 0.07 0.133 0.133 0.258 0.145 0.277 c 0.023 0.059 -5.719 0.047 -5.754 -0.008"/><path d="m 7.129 16.14 c 0.031 -0.125 0.652 -1.102 0.973 -1.527 l 0.242 -0.324 l 0.434 -0.031 c 0.578 -0.043 10.68 -0.051 12.176 -0.012 l 1.18 0.031 l 0.184 0.199 c 0.207 0.219 0.445 0.598 0.402 0.637 c -0.016 0.016 -0.164 -0.047 -0.332 -0.141 c -0.551 -0.305 -1.238 -0.457 -2.258 -0.5 c -1.145 -0.047 -2.063 0.102 -2.793 0.445 c -0.504 0.238 -1.281 0.762 -1.578 1.066 l -0.25 0.258 h -8.406"/><path d="m 9.164 13.738 c -0.109 -0.027 -0.141 -0.059 -0.129 -0.129 c 0.039 -0.219 0.867 -1.535 1 -1.586 c 0.047 -0.016 0.129 0 0.184 0.035 c 0.164 0.109 0.988 0.836 1.391 1.23 c 0.301 0.293 0.359 0.375 0.301 0.406 c -0.094 0.055 -2.551 0.09 -2.746 0.043"/><path d="m 18.949 13.68 c 0.102 -0.113 1.207 -1.109 1.563 -1.41 c 0.117 -0.098 0.242 -0.18 0.27 -0.18 c 0.031 0 0.121 0.148 0.195 0.328 c 0.074 0.176 0.254 0.535 0.398 0.797 c 0.145 0.258 0.246 0.488 0.227 0.504 c -0.016 0.02 -0.645 0.043 -1.391 0.051 l -1.355 0.02"/><path d="m 23.891 14.04 c -0.516 -0.117 -1.043 -0.211 -1.172 -0.215 c -0.219 0 -0.238 -0.012 -0.289 -0.16 c -0.031 -0.086 -0.215 -0.465 -0.41 -0.848 c -0.195 -0.379 -0.344 -0.699 -0.332 -0.711 c 0.039 -0.039 1.488 0.441 1.789 0.594 c 0.16 0.082 0.68 0.563 1.25 1.16 c 0.465 0.484 0.5 0.477 -0.836 0.18"/><path d="m 6.664 14.09 c 0.516 -0.113 1.043 -0.211 1.172 -0.211 c 0.219 -0.004 0.238 -0.016 0.289 -0.16 c 0.031 -0.086 0.215 -0.469 0.41 -0.848 c 0.195 -0.379 0.344 -0.699 0.332 -0.711 c -0.039 -0.043 -1.488 0.438 -1.789 0.594 c -0.16 0.082 -0.68 0.563 -1.25 1.156 c -0.465 0.484 -0.5 0.477 0.836 0.18"/></g><path d="m 20.609 25.801 c -1.195 -0.086 -2.598 -0.613 -3.574 -1.348 c -1.188 -0.891 -2.055 -2.262 -2.289 -3.609 c -0.277 -1.781 0.844 -3.695 2.105 -4.605 c 0.637 -0.441 1.477 -0.797 2.266 -0.949 c 2.055 -0.402 4.195 0.359 5.664 2.01 c 0.883 0.988 1.336 1.988 1.449 3.168 c 0.133 1.414 -0.473 2.93 -1.578 3.949 c -1.258 0.965 -2.551 1.488 -4.04 1.387"/><g fill="#fff"><path d="m 20.07 21.949 c -0.203 -0.137 -0.227 -0.336 0.07 -0.754 c 0.605 -0.848 0.813 -1.207 1.156 -1.922 c 0.254 -0.527 0.414 -0.484 0.563 -0.344 c 0.148 0.133 0.203 0.727 -0.145 1.379 c -0.461 0.867 -0.902 1.418 -1.344 1.668 c -0.098 0.055 -0.168 0.063 -0.301 -0.027"/><path d="m 17.617 23.652 c -0.07 -0.082 -0.352 -0.973 -0.32 -1.02 c 0.047 -0.07 0.23 -0.051 0.891 0.098 c 0.664 0.152 0.918 0.176 0.918 0.09 c 0 -0.027 -0.254 -0.281 -0.563 -0.566 c -0.809 -0.734 -1.238 -1.355 -1.316 -1.898 c -0.145 -1.02 0.379 -2.27 1.203 -2.871 c 0.91 -0.539 2.195 -0.801 3.078 -0.492 c 0.789 0.281 1.625 0.941 2.031 1.609 c 0.324 0.523 0.422 0.863 0.422 1.453 c 0 0.59 -0.078 0.863 -0.492 1.703 c -0.258 0.52 -0.281 0.594 -0.199 0.594 c 0.051 0 0.258 -0.141 0.457 -0.313 c 0.414 -0.359 0.574 -0.469 0.617 -0.426 c 0.039 0.039 -0.152 0.723 -0.289 1.023 c -0.113 0.254 -0.172 0.273 -0.777 0.484 c -0.426 0.195 -0.563 0.293 -0.949 0.313 c -0.117 0 -0.113 -0.277 0.039 -0.441 c 0.098 -0.105 0.215 -0.371 0.379 -0.855 c 0.344 -1.023 0.371 -1.133 0.406 -1.637 c 0.055 -0.805 -0.156 -1.426 -0.652 -1.902 c -0.32 -0.313 -0.59 -0.465 -1.059 -0.602 c -0.305 -0.086 -0.441 -0.102 -0.82 -0.082 c -0.582 0.031 -0.938 0.16 -1.285 0.461 c -0.488 0.426 -0.668 0.934 -0.613 1.723 c 0.063 0.871 0.613 2.293 1.164 3.01 c 0.277 0.359 0.375 0.563 0.27 0.57 c -0.328 0.035 -2.508 0.012 -2.539 -0.027"/></g></svg>