<svg xmlns="http://www.w3.org/2000/svg" viewBox="0 0 32 32" xmlns:xlink="http://www.w3.org/1999/xlink"><path d="m 31.434 17.809 c -1.543 18.234 -24.438 16.574 -28.93 6.715 c -4.488 -9.859 -2.129 -21.973 8.617 -23.523 c 10.746 -1.547 21.855 -1.43 20.313 16.809" fill="#ff8c00"/><path d="m 7.609 15.406 l 6.504 -7.266" fill="#000002" fill-rule="evenodd" fill-opacity="0.2" id="0"/><path d="m 20.617 8.141 l 6.5 7.266" fill="#000002" fill-rule="evenodd" fill-opacity="0.2" id="1"/><use xlink:href="#0"/><use xlink:href="#1"/><path d="m 24.68 9.5 c 1.199 2.738 -1.465 7.832 -5.953 11.371 c -4.488 3.539 -9.105 4.188 -10.305 1.449 c -1.203 -2.734 1.461 -7.828 5.949 -11.367 c 4.488 -3.539 9.105 -4.191 10.309 -1.453 m -1.73 14.395 c -2.934 1.02 -8.18 -1.727 -11.715 -6.133 c -3.535 -4.406 -4.02 -8.809 -1.086 -9.832 c 2.934 -1.023 8.18 1.723 11.715 6.129 c 3.535 4.406 4.02 8.813 1.086 9.836" fill="#fff" fill-rule="evenodd" fill-opacity="0.451"/><g fill="none" stroke="#000" stroke-width="11.1"><path d="m 148.82 80.26 c 0.004 38.16 -28.555 69.13 -63.766 69.12 c -35.23 -0.036 -63.786 -30.933 -63.79 -69.09 c -0.004 -38.16 28.555 -69.13 63.789 -69.09 c 35.21 0.004 63.763 30.901 63.767 69.06" transform="matrix(0.12747 -0.10052 0.03152 0.07178 2.759 18.698)"/><path d="m 148.83 80.27 c -0.001 38.19 -28.568 69.11 -63.803 69.1 c -35.21 0.015 -63.758 -30.937 -63.765 -69.08 c -0.007 -38.15 28.559 -69.07 63.77 -69.09 c 35.24 0.017 63.79 30.929 63.797 69.08" transform="matrix(0.10037 0.12515 -0.07692 0.02681 13.768 3.117)"/></g><path d="m 11.855 16.16 l 3.098 -3.01" fill="#000002" fill-rule="evenodd" fill-opacity="0.2" id="2"/><use xlink:href="#2"/><path d="m 49.48 55.07 h 54.43 c 2.474 0 4.493 2.375 4.493 5.322 v 26.24 c 0 2.947 -2.02 5.322 -4.493 5.322 h -54.43 c -2.474 0 -4.465 -2.375 -4.465 -5.322 v -26.24 c 0 -2.947 1.991 -5.322 4.465 -5.322" transform="matrix(0.13735 0 0 0.13653 5.43 5.919)" fill="#fff" fill-rule="evenodd" stroke="#000" stroke-width="2.513"/><path d="m 17.773 16.352 v 1.023 h -0.527 v -2.867 h 1.469 c 0.227 0 0.406 0.078 0.539 0.234 c 0.129 0.156 0.195 0.383 0.195 0.688 c 0 0.297 -0.066 0.527 -0.195 0.684 c -0.133 0.156 -0.313 0.238 -0.539 0.238 m -0.941 -1.352 v 0.859 h 0.703 c 0.113 0 0.211 -0.031 0.281 -0.102 c 0.074 -0.07 0.109 -0.18 0.109 -0.328 c 0 -0.145 -0.035 -0.254 -0.109 -0.32 c -0.07 -0.07 -0.164 -0.109 -0.281 -0.109 m -3.617 -0.492 h 2.203 v 0.492 h -0.84 v 2.375 h -0.523 v -2.375 h -0.84 m -0.25 0 h -0.785 c -0.121 0 -0.219 0.02 -0.293 0.051 c -0.035 0.012 -0.066 0.027 -0.094 0.043 c -0.027 0.016 -0.055 0.043 -0.078 0.074 c -0.07 0.074 -0.121 0.164 -0.152 0.273 l -0.02 0.086 l -0.004 0.102 v 0.078 h 1.426 v 0.469 h -1.426 v 1.199 h -0.531 v -1.434 c 0 -0.125 0.004 -0.234 0.012 -0.328 c 0.004 -0.094 0.016 -0.18 0.031 -0.25 c 0.043 -0.234 0.137 -0.43 0.277 -0.578 c 0.086 -0.098 0.191 -0.168 0.32 -0.211 c 0.125 -0.043 0.285 -0.066 0.477 -0.066 h 0.84"/></svg>