<svg xmlns="http://www.w3.org/2000/svg" viewBox="0 0 32 32"><path d="m 6.523 29.539 c 12.777 9.09 31.465 -8.941 23.609 -22.348 c -5.75 -11.461 -23.12 -8.156 -28.04 2.398 c -3.848 6.516 -2.578 16.15 4.43 19.949" fill="#82a37d"/><path d="m 89.6 165.22 c -3.649 -0.33 -0.334 -5.157 -0.669 -5.487 c -0.334 -0.36 -0.912 -3.718 -1.277 -7.466 c -0.547 -5.727 -1.034 -6.926 -2.858 -7.256 c -3.74 -0.69 -4.926 -2.459 -4.926 -7.346 c 0 -5.097 2.068 -8.126 5.564 -8.126 c 1.459 0 2.098 -0.78 2.098 -2.519 c 4.074 -9.06 7.115 -2.549 8.179 -12.354 c 0.73 -6.896 0.943 -7.286 4.5 -8.785 c 4.713 -1.829 4.196 -7.976 8.879 -8.096 c 1.885 0 2.524 -0.6 2.524 -2.489 c 1.733 -7.496 7.632 -3.058 7.662 -9.535 c -0.578 -5.367 1 -7.106 5.838 -7.106 c 3.223 0 9.243 -1.619 12.923 -1.229 c 10.06 -1.919 11.646 7.976 19.46 19.97 c 10 -3.658 18.365 21.469 19 26.296 c 4.622 22.04 -11.129 35.412 -23.595 34.482 c -27.12 5.247 -41.839 9.835 -63.31 7.05" transform="matrix(0.12847 0 0 0.13028 -0.687 -0.368)" fill="#87cc7a" stroke="#87cc7a" stroke-width="3.349"/><g transform="matrix(0.12847 0 0 0.13028 -0.687 -0.939)"><path d="m 108.36 167.77 c 0 -2.189 0.669 -2.249 22.349 -2.279 c 12.284 0 22.896 -0.39 23.565 -0.84 c 0.669 -0.45 1.551 -2.189 1.946 -3.898 c 0.669 -2.729 1.247 -3.058 5.412 -3.088 c 7.237 -7.136 11.798 -7.706 13.379 -7.796 c 1.459 -6.447 5.656 -8.785 1.247 -10.704 c -3.71 -1.559 -3.892 -1.919 -3.892 -7.226 c 0 -5.817 -2.554 -10.04 -6.05 -10.04 c -1.307 0 -1.672 -1.589 -1.672 -7.556 c -0.03 -12.593 -0.851 -15.622 -4.5 -16.341 c -2.22 -0.45 -6.112 -1.109 -6.629 -3.208 c 0.912 -5.937 -4.591 -4.887 -5.716 -8.635 c -0.547 -2.039 -0.091 -2.279 4.257 -2.279 c 4.835 0 4.865 0 4.865 3.928 c -0.487 5.01 0.943 3.838 5.26 3.268 c 6.841 -0.9 11.311 0.81 11.311 4.348 c 0 2.039 0.821 2.908 3.588 3.688 c 3.284 0.96 3.618 1.469 3.862 6.03 c 0.487 8.336 1.095 9.715 4.5 10.405 c 3.162 0.63 3.162 0.69 3.801 11.03 c 0.334 5.727 0.274 14.183 -0.122 18.8 c -0.699 8.096 -0.851 8.396 -3.77 8.755 c -2.311 0.27 -3.223 1.139 -3.892 3.838 c -0.699 2.669 -1.733 3.748 -4.378 4.438 c -2.676 0.69 -3.527 1.589 -3.801 3.958 l -0.334 3.058 l -32.29 0.3 c -31.744 0.3 -32.29 0.27 -32.29 -1.949" fill="#27cc7a" stroke="#27cc7a" stroke-width="3.401"/><path d="m 86.78 177.55 c -0.365 -0.36 -0.669 -2.129 -0.669 -3.928 c 0 -3.058 -0.243 -3.298 -3.74 -3.598 c -3.527 -0.3 -3.77 -0.51 -4.074 -3.988 c -0.274 -3.478 -0.517 -3.718 -3.983 -4.02 c -3.466 -0.27 -3.71 -0.51 -4.01 -3.988 c -0.274 -3.478 -0.517 -3.718 -3.983 -3.988 l -3.71 -0.33 v -38.98 l 3.71 -0.33 l 3.71 -0.3 l 0.304 -7.676 l 0.274 -7.706 l 3.71 -0.3 c 3.466 -0.3 3.71 -0.54 3.983 -4.02 c 0.304 -3.448 0.547 -3.688 4.01 -3.988 c 3.466 -0.3 3.71 -0.54 4.01 -3.988 l 0.304 -3.688 l 15.386 -0.6 l 0.304 -3.718 l 0.304 -3.688 h 55 l 0.304 3.688 l 0.304 3.718 l 15.386 0.6 l 0.304 3.688 c 0.274 3.448 0.517 3.688 4.01 3.988 c 3.466 0.3 3.71 0.54 3.983 3.988 c 0.304 3.478 0.547 3.718 4.01 4.02 l 3.679 0.3 l 0.304 7.706 l 0.274 7.676 l 3.71 0.3 l 3.71 0.33 v 38.98 l -3.679 0.33 c -3.466 0.27 -3.71 0.51 -4.01 3.988 c -0.274 3.478 -0.517 3.718 -3.983 3.988 c -3.466 0.3 -3.71 0.54 -4.01 4.02 c -0.274 3.478 -0.517 3.718 -3.983 3.988 c -3.497 0.3 -3.74 0.54 -4.01 4.02 l -0.304 3.688 l -43.09 0.27 c -23.686 0.12 -43.36 -0.06 -43.724 -0.42 m 85.958 -8.486 c 0.73 -0.6 1.338 -2.399 1.338 -3.988 c 0 -2.489 0.395 -2.878 2.797 -2.878 c 3.558 0 5.199 -1.649 5.199 -5.217 c 0 -2.399 0.426 -2.789 2.828 -2.789 c 4.926 0 5.199 -1.019 5.199 -20 c 0 -18.98 -0.274 -20 -5.199 -20 c -2.797 0 -2.828 -0.03 -2.828 -6.806 c 0 -7.526 -0.943 -9.205 -5.199 -9.205 c -2.402 0 -2.797 -0.39 -2.797 -2.878 c 0 -4.288 -1.946 -5.307 -9.669 -5.01 l -6.811 0.24 l 0.304 -3.088 c 0.182 -1.679 -0.122 -3.328 -0.669 -3.688 c -0.547 -0.33 -13.196 -0.81 -28.06 -1.079 l -27.06 -0.48 v 7.976 h -16.02 v 4.02 c 0 3.988 0 3.988 -3.983 3.988 h -4.01 v 16.01 h -7.997 v 39.999 h 4.01 c 3.983 0 3.983 0 3.983 3.988 c 0 4.02 0 4.02 4.01 4.02 c 3.983 0 3.983 0 3.983 3.928 v 3.958 l 42.66 0.06 c 30.25 0.03 43.02 -0.27 43.998 -1.079 m -62.42 -50.614 l 0.274 -11.754 l 3.74 -0.33 l 3.77 -0.3 v 24.14 h -8.06 m 32.05 -12.02 v -11.994 h 7.997 v 24.02 h -7.997" fill="#2f2f2f" stroke="#2f2f2f"/></g></svg>