<svg xmlns="http://www.w3.org/2000/svg" viewBox="0 0 32 32"><path d="m 28.5 24.875 c 17.98 -26 -39.82 -37.457 -26.48 -5.164 c 4.262 10.625 20.66 18.719 26.48 5.164"/><path d="m 132.09 179.38 c -5.531 -0.406 -7.719 -1.063 -10.03 -3 c -3.156 -2.656 -6.938 -10.344 -10 -20.281 c -1.906 -6.188 -3.063 -8.656 -5.03 -10.625 l -2.563 -2.531 l -11.5 0.156 c -10.25 0.125 -11.781 0 -14.12 -1.375 c -1.438 -0.844 -2.75 -2.281 -2.875 -3.188 c -0.375 -2.5 4.719 -7.06 12.188 -10.938 c 11.969 -6.188 16.938 -10.906 15.875 -15.09 c -0.781 -3.125 -4.438 -4.375 -15.06 -5.156 c -12.03 -0.875 -16.531 -1.75 -20.469 -3.938 c -4 -2.25 -4.531 -5.094 -1.406 -7.313 c 2.813 -1.969 3.531 -2.156 14.5 -4.03 c 6.06 -1.031 11 -2.375 14.281 -3.906 c 6.594 -3.094 26.438 -16.25 30.844 -20.469 c 4.75 -4.531 9.844 -6.656 17.09 -7.06 c 4.969 -0.313 6.469 -0.094 9.375 1.313 c 1.906 0.906 3.656 2.219 3.906 2.875 c 0.906 2.281 -3.813 9.156 -11.875 17.344 c -7.75 7.875 -16.563 14.531 -19.219 14.531 c -0.688 0 -1.813 0.969 -2.5 2.125 c -1.375 2.313 -4.5 12 -4.5 13.844 c 0 1.5 2.188 1.125 10.781 -1.906 c 8.219 -2.906 13.906 -3.531 22.875 -2.594 c 10.06 1.094 11.844 2.625 11.844 10.219 c 0 8.406 -1.906 9.25 -22.06 9.906 c -21.12 0.688 -21.281 0.781 -21.281 15.344 c -0.031 10.03 0.875 14.5 3.594 17.625 c 1.563 1.844 2.406 2.125 6 2.125 c 3.531 0 4.875 -0.438 8.469 -2.844 c 2.375 -1.563 7.094 -5.469 10.563 -8.688 c 11.03 -10.313 16.688 -12.688 20.03 -8.469 c 2.531 3.25 3.375 7.03 3 13.375 c -0.656 10.844 -4.656 15.313 -17.313 19.375 c -6.938 2.219 -17.5 3.688 -23.375 3.25" transform="scale(0.125)" fill="#fff" stroke="#fff" stroke-width="0.622"/></svg>