<svg xmlns="http://www.w3.org/2000/svg" viewBox="0 0 32 32"><path d="m 6.629 29.539 c 12.727 9.09 31.34 -8.941 23.512 -22.348 c -5.723 -11.461 -23.03 -8.156 -27.922 2.398 c -3.832 6.516 -2.566 16.15 4.41 19.949" fill="#3ca2e4"/><path d="m 15.969 5.355 v 11 h 11.164 c 0 -6.078 -4.996 -11 -11.164 -11 m 0 11 h -11.164 c 0 6.078 5 11.01 11.164 11.01" fill-opacity="0.2"/><path d="m 15.969 4.805 v 11 h 11.164 c 0 -6.078 -4.996 -11 -11.164 -11 m 0 11 h -11.164 c 0 6.082 5 11.01 11.164 11.01" fill="#ccc"/><g fill-opacity="0.2"><path d="m 15.969 4.805 v 0.551 c 5.945 0.008 10.84 4.602 11.137 10.453 h 0.027 c 0 -6.078 -4.996 -11 -11.164 -11 m -11.164 11 c 0.004 0.184 0.016 0.367 0.027 0.551 h 11.137 v -0.551" fill="#fff"/><path d="m 24.902 16.359 c 0 4.863 -4 8.805 -8.934 8.805 c -4.934 0 -8.93 -3.941 -8.93 -8.805 c 0 -4.863 3.996 -8.805 8.93 -8.805 c 4.934 0 8.934 3.941 8.934 8.805"/></g><path d="m 24.902 15.809 c 0 4.863 -4 8.809 -8.934 8.809 c -4.934 0 -8.93 -3.945 -8.93 -8.809 c 0 -4.859 3.996 -8.805 8.93 -8.805 c 4.934 0 8.934 3.945 8.934 8.805" fill="#fff"/><path d="m 22.668 15.809 c 0 3.648 -3 6.605 -6.699 6.605 c -3.699 0 -6.699 -2.957 -6.699 -6.605 c 0 -3.645 3 -6.602 6.699 -6.602 c 3.699 0 6.699 2.957 6.699 6.602" fill="#3ca2e4"/><g fill="none" stroke-linejoin="round" stroke-linecap="round" stroke-width="4" transform="matrix(0.55824 0 0 0.55033 2.572 2.602)"><path d="m 19.997 17.999 h 8.01 v 6.999 h -8.01 v 7.01 h 8.01" stroke-opacity="0.2" stroke="#000"/><path d="m 19.997 16.998 h 8.01 v 6.999 h -8.01 v 7.01 h 8.01" stroke="#ffc24c"/></g><path d="m 13.734 10.855 c -0.348 -0.004 -0.676 0.152 -0.891 0.422 c -0.215 0.27 -0.289 0.625 -0.203 0.957 c 0.129 -0.492 0.582 -0.832 1.094 -0.828 h 4.469 c 0.617 0 1.117 0.496 1.117 1.102 v -0.551 c 0 -0.605 -0.5 -1.102 -1.117 -1.102 m -4.469 3.855 c -0.613 0 -1.113 0.492 -1.113 1.098 v 0.551 c 0 -0.605 0.5 -1.098 1.113 -1.098 h 3.352 v -0.551 m -2.234 3.852 v 0.551 h 3.352 c 0.512 -0.008 0.965 0.332 1.094 0.824 c 0.09 -0.332 0.012 -0.684 -0.203 -0.953 c -0.215 -0.27 -0.543 -0.426 -0.891 -0.422" fill="#fff" fill-rule="evenodd" fill-opacity="0.2"/></svg>