<svg xmlns="http://www.w3.org/2000/svg" viewBox="0 0 32 32"><path d="m 6.598 28.879 c 24.05 15.992 38.875 -35.01 7.773 -28.26 c -12.852 2.879 -20.652 20.926 -7.773 28.26" fill="#7697a1"/><path d="m 72.63 169.66 l -7.75 -18.594 l 2.594 -23.281 c 1.469 -12.781 3.875 -31.813 5.375 -42.28 l 2.75 -19.03 l 60.844 6.875 l 60.875 6.844 l -9.75 86.5 l -8.531 11.813 c -9.594 13.313 -13.531 18.375 -14.25 18.313 c -0.469 -0.031 -4.313 -8.281 -11.719 -25.19 c -2.313 -5.25 -4.75 -9.594 -5.438 -9.688 c -0.688 -0.063 -5.094 5.03 -9.781 11.313 c -4.719 6.313 -10.06 13.406 -11.875 15.781 l -3.313 4.344 l -7.313 -16.969 c -4.03 -9.375 -7.688 -17.563 -8.094 -18.219 c -1.469 -2.344 -3.625 -0.406 -11.313 10.25 c -13.688 18.938 -14.469 19.969 -15 19.906 c -0.281 -0.031 -4.03 -8.438 -8.313 -18.688" transform="scale(0.125)" fill="#fff" stroke="#fff" stroke-width="0.143"/></svg>