<svg xmlns="http://www.w3.org/2000/svg" viewBox="0 0 32 32"><path d="m 7.52 3.297 c 16.367 -11.504 32.953 9.742 19.617 23.301 c -12.566 12.77 -32.09 0.93 -25.984 -14.961 c 1.273 -3.316 3.363 -6.227 6.367 -8.34" fill="#ff8c00"/><g fill-opacity="0.102"><path d="m 10.27 16.66 c -1.086 0 -1.086 1.137 0 1.137 h 10.996 c 0.531 0 0.969 0.457 0.969 1.012 v 3.664 c 0 0.555 -0.438 1.012 -0.969 1.012 h -10.996 c -1.086 0 -1.086 1.137 0 1.137 h 12.09 c 0.531 0 0.969 -0.457 0.969 -1.016 v -5.934 c 0 -0.559 -0.438 -1.012 -0.969 -1.012"/><path d="m 12.32 18.934 h 7.863 c 0.531 0 0.965 0.453 0.965 1.01 v 1.398 c 0 0.555 -0.434 1.01 -0.965 1.01 h -7.863 c -0.531 0 -0.961 -0.453 -0.961 -1.01 v -1.398 c 0 -0.555 0.43 -1.01 0.961 -1.01"/><path d="m 12.445 9.84 c -1.086 0 -1.086 1.137 0 1.137 h 8.82 c 0.531 0 0.969 0.453 0.969 1.012 v 2.523 c 0 0.559 -0.438 1.012 -0.969 1.012 h -8.82 c -1.086 0 -1.086 1.137 0 1.137 h 9.91 c 0.531 0 0.969 -0.453 0.969 -1.012 v -4.797 c 0 -0.559 -0.438 -1.016 -0.969 -1.016"/><path d="m 12.32 12.11 h 7.863 c 0.531 0 0.965 0.453 0.965 1.01 v 0.262 c 0 0.555 -0.434 1 -0.965 1 h -7.863 c -0.531 0 -0.961 -0.449 -0.961 -1 v -0.262 c 0 -0.555 0.43 -1.01 0.961 -1.01"/></g><g fill="#f9f9f9"><path d="m 9.727 16.09 c -1.09 0 -1.09 1.137 0 1.137 h 10.996 c 0.531 0 0.969 0.453 0.969 1.012 v 3.66 c 0 0.559 -0.438 1.012 -0.969 1.012 h -10.996 c -1.09 0 -1.09 1.137 0 1.137 h 12.08 c 0.535 0 0.969 -0.453 0.969 -1.012 v -5.934 c 0 -0.559 -0.434 -1.012 -0.969 -1.012"/><path d="m 11.777 18.367 h 7.859 c 0.535 0 0.965 0.449 0.965 1.01 v 1.395 c 0 0.559 -0.43 1.01 -0.965 1.01 h -7.859 c -0.535 0 -0.965 -0.449 -0.965 -1.01 v -1.395 c 0 -0.559 0.43 -1.01 0.965 -1.01"/><path d="m 11.902 9.27 c -1.09 0 -1.09 1.137 0 1.137 h 8.82 c 0.531 0 0.969 0.453 0.969 1.012 v 2.523 c 0 0.559 -0.438 1.012 -0.969 1.012 h -8.82 c -1.09 0 -1.09 1.137 0 1.137 h 9.906 c 0.535 0 0.973 -0.453 0.973 -1.012 v -4.797 c 0 -0.559 -0.438 -1.016 -0.973 -1.016"/><path d="m 11.777 11.543 h 7.859 c 0.535 0 0.965 0.453 0.965 1.01 v 0.262 c 0 0.555 -0.43 1 -0.965 1 h -7.859 c -0.535 0 -0.965 -0.449 -0.965 -1 v -0.262 c 0 -0.555 0.43 -1.01 0.965 -1.01"/></g></svg>