<svg xmlns="http://www.w3.org/2000/svg" viewBox="0 0 32 32"><path d="m 14.664 31.922 c 19.41 1.844 24.633 -29.28 4.703 -31.699 c -18.328 -2.996 -27.766 25.22 -9.555 30.863 c 1.539 0.617 3.223 0.605 4.852 0.836" fill="#ff6e29"/><g transform="matrix(0.12046 0 0 0.11738 7.06 5.19)"><path d="m -30.677 186.9 c -4.086 -4.792 -10.864 -15.674 -13.879 -22.2 c -7.556 -16.44 -15.05 -35.841 -15.01 -55.38 c 0.032 -24.992 5.091 -46.989 16.12 -70.38 c 22.278 -47.26 65.51 -76.41 111.23 -82.03 c 13.166 -1.631 36.547 0.233 52.02 4.127 c 17.09 4.26 35.444 13.378 46.21 22.896 l 2.108 1.864 l -97.58 102.2 c -53.669 56.21 -97.77 102.23 -98 102.23 c -0.195 0 -1.654 -1.498 -3.21 -3.328" fill="#527294" stroke="#527294" stroke-width="0.623"/><g stroke-opacity="0.996" fill="#fff" stroke="#fff"><path d="m 48.999 65.5 c -0.973 -0.3 -2.367 -1.331 -3.113 -2.263 c -1.265 -1.631 -1.2 -2.23 1.297 -11.714 c 1.654 -6.19 2.692 -12.01 2.724 -15.208 c 0.065 -4.859 -0.097 -5.325 -2.562 -7.887 c -5.189 -5.424 -5.48 -8.719 -0.876 -10.716 c 5.286 -2.263 16.571 0.266 19.489 4.393 c 1.362 1.93 1.33 2.263 -0.973 10.35 c -3.081 10.749 -7.718 24.327 -9.891 28.886 c -1.881 3.96 -3.437 5.03 -6.097 4.16" stroke-width="0.748"/><path d="m 26.01 64.07 c -2.919 -1.165 -2.919 -1.198 -2.724 -5.691 c 0.13 -2.496 1.719 -9.884 3.6 -16.373 l 3.34 -11.847 l -4.572 -3.494 c -5.675 -4.326 -7.588 -6.789 -6.842 -8.719 c 0.778 -1.963 5.351 -4.16 8.561 -4.16 c 8.367 0.033 18.387 8.852 16.409 14.443 c -0.227 0.666 -1.427 4.03 -2.692 7.488 c -1.265 3.461 -3.243 10.02 -4.443 14.576 c -3.567 13.811 -5.253 15.974 -10.637 13.777" stroke-width="0.779"/><path d="m 0.162 62.61 c -4.216 -1.897 -4.313 -4.726 -0.649 -16.639 c 0.973 -3.095 1.816 -7.92 1.881 -10.716 c 0.097 -4.36 -0.292 -5.857 -2.659 -10.649 c -2.4 -4.792 -2.627 -5.79 -1.816 -7.288 c 1.265 -2.33 5.48 -3.694 11.48 -3.694 c 8.918 0 12.842 2.995 11.707 8.885 c -0.292 1.531 -2.497 7.687 -4.897 13.678 c -2.497 6.256 -4.735 13.311 -5.253 16.539 c -0.486 3.095 -1.2 6.323 -1.557 7.122 c -1.362 2.995 -5.03 4.226 -8.237 2.762" stroke-width="0.746"/></g></g><path d="m 207.92 175.07 c 0 18.845 -15.797 34.17 -35.27 34.17 c -19.444 0 -35.24 -15.321 -35.24 -34.17 c 0 -18.88 15.797 -34.17 35.24 -34.17 c 19.475 0 35.27 15.286 35.27 34.17" transform="matrix(0.12636 0 0 0.11193 -0.73 0.58)" stroke="#000" stroke-width="1.01"/><path d="m 109.95 -125.47 l 12.08 0.005 l -0.014 281.21 l -12.05 0.019" transform="matrix(0.08704 0.08114 -0.08201 0.08598 7.06 5.19)" fill="#fff" stroke="#fff" stroke-width="1.16"/><path d="m 92.55 165.64 c -9.566 -9.385 -12.453 -10.849 -14.723 -15.11 c -2.659 -10.782 -10.05 -18.836 -3.794 -29.09 c 6.551 -21.03 15.177 -21.17 34.05 -32.18 c 2.497 -1.764 3.308 -1.997 7.718 -2.196 c 6.291 -0.266 12.68 0.666 16.506 2.429 c 2.01 0.899 12.258 2.829 19.749 12.812 l 10.41 13.844 l 0.649 7.521 c 0.357 4.127 0.551 9.551 0.422 12.05 c -0.454 7.221 -4.281 9.651 -7.426 16.373 c -1.686 3.627 -5.48 8.286 -12.517 15.341 l -5.578 5.558 l -17.09 3.03 l -17.09 -3.03 c -2.692 -2.662 -8.594 -4.692 -11.285 -7.355 m 52.631 -11.415 c 2.238 -3.993 -0.195 -6.556 -5.351 -5.624 c -1.2 0.2 -4.572 1.364 -7.491 2.562 c -6.097 2.496 -13.166 3.295 -17.511 1.997 c -1.362 -0.433 -7.232 -3.161 -13.04 -6.09 c -11.577 -5.89 -15.371 -6.889 -15.793 -4.26 c -0.324 2.296 2.983 6.722 10.701 14.177 c 7.296 7.06 19.1 7.954 21.597 8.519 c 14.593 -1.797 10.993 2.13 26.916 -11.281 m -3.178 -30.28 c 1.167 -0.998 1.297 -1.697 1.103 -5.058 c -0.486 -8.153 -4.67 -12.247 -10.215 -10.05 c -1.265 0.499 -2.821 1.631 -3.405 2.463 c -2.821 4.093 -1.232 11.182 2.951 13.178 c 2.756 1.331 7.718 1.032 9.566 -0.566 m -32.558 -1.431 c 1.848 -1.73 1.589 -2.895 -1.135 -5.358 c -3.956 -3.528 -10.831 -5.191 -15.08 -3.661 c -1.913 0.666 -2.14 2.396 -0.519 3.76 c 2.01 1.664 12.582 6.19 14.982 6.423 c 0.259 0.033 1.038 -0.499 1.751 -1.165 m 1.557 -18.836 c 1.784 -1.231 0.876 -3.727 -1.654 -4.559 c -7.167 -2.363 -17.674 1.797 -11.22 4.459 c 2.724 1.098 11.318 1.165 12.874 0.1" transform="matrix(0.12046 0 0 0.11738 7.06 5.19)" fill="#d4bf0a" stroke="#d4bf0a" stroke-width="0.625"/></svg>