<svg xmlns="http://www.w3.org/2000/svg" viewBox="0 0 32 32"><path d="m 30.527 23.566 c -6.297 15.12 -30.688 8.375 -30.527 -8.09 c -0.242 -14.969 19.15 -20.645 27.648 -9.984 c 4.25 4.613 5.734 12.25 2.879 18.08" fill="#626266"/><path d="m 7.285 15.609 c 0 -5.305 7.105 -8.648 12.922 -6.074 c 2.078 0.918 4.254 2.828 4.254 3.734 c 0 0.773 -2.164 0.48 -4.078 -0.551 c -3.137 -1.684 -9.934 -0.645 -9.934 1.523 c 0 0.211 3.301 0.438 7.34 0.508 c 6.57 0.117 7.395 0.207 7.492 0.945 c 0.191 1.469 -0.527 0.816 -8.926 0.816 c -8.668 0 -9.07 -0.039 -9.07 -0.902" fill="#9ca9c1"/><path d="m 25.434 17.734 c 0 5.305 -7.105 8.645 -12.922 6.074 c -2.078 -0.918 -4.254 -2.832 -4.254 -3.738 c 0 -0.77 2.164 -0.477 4.078 0.551 c 3.133 1.688 9.934 0.645 9.934 -1.52 c 0 -0.211 -3.305 -0.441 -7.34 -0.512 c -6.574 -0.113 -7.379 -0.207 -7.492 -0.941 c -0.242 -1.57 0.523 -0.816 8.922 -0.816 c 8.672 0 9.07 0.039 9.07 0.902" fill="#d6deea"/></svg>