<svg xmlns="http://www.w3.org/2000/svg" viewBox="0 0 32 32"><path d="m 15.945 31.879 c -21.473 2.422 -21.18 -32.26 0.383 -31.852 c 20.05 -1.145 21.859 33.742 -0.383 31.852" fill="#ffd2bf"/><path d="m 82.79 224.01 c -52.67 -6.641 -94.99 -46.2 -105.38 -98.47 c -1.822 -9.249 -1.822 -35.772 0 -45.02 c 4.845 -24.405 16.439 -45.998 34.08 -63.48 c 17.722 -17.642 37.39 -28.19 62.52 -33.572 c 9.689 -2.078 33.83 -2.404 43.519 -0.57 c 31.345 5.948 58.798 22.857 77.18 47.51 c 10.724 14.382 19.875 36.1 22.774 53.943 c 1.491 9.09 1.242 30.19 -0.455 39.806 c -4.348 24.853 -17.598 49.3 -36.397 67.18 c -16.77 15.93 -38.01 26.931 -60.16 31.13 c -10.393 1.996 -28.323 2.689 -37.681 1.548 m 33.871 -9.452 c 44.72 -7.782 81.08 -42.41 90.93 -86.54 c 8.364 -37.16 -2.609 -76.19 -28.944 -103.32 c -13.209 -13.608 -27.12 -22.531 -44.513 -28.601 c -23.644 -8.271 -51.925 -8.108 -75.61 0.448 c -37.14 13.445 -65.05 46.16 -72.63 85.15 c -2.236 11.612 -2.236 31.01 0 42.617 c 7.578 39.03 35.445 71.71 72.63 85.19 c 17.14 6.193 40.16 8.189 58.14 5.05 m 8.116 -70.974 c -3.975 -3.341 -4.472 -5.704 -2.07 -9.656 c 1.698 -2.73 1.781 -3.585 0.704 -5.582 c -0.994 -1.874 -0.994 -2.811 0.083 -4.767 c 1.118 -2.119 1.035 -2.73 -0.828 -5.134 c -1.781 -2.241 -2.153 -4.074 -2.195 -10.797 v -8.108 l -4.431 -2.689 c -6.211 -3.789 -9.814 -9.615 -10.31 -16.827 c -0.538 -7.01 0.994 -12.02 5.05 -16.664 c 11.842 -13.445 33.33 -8.841 38.3 8.189 c 3.064 10.634 -1.159 20.17 -11.842 26.809 l -2.733 1.711 v 39.561 l -6.708 6.519 m 4.679 -73.34 c 1.118 -1.182 2.029 -3.01 2.029 -4.03 c 0 -2.485 -4.389 -6.763 -6.956 -6.763 c -2.857 0 -6.05 3.504 -6.05 6.682 c 0 5.867 6.915 8.474 10.973 4.115 m -84.39 67.63 c -1.325 -1.304 -1.573 -4.522 -1.573 -19.475 v -17.886 l 2.981 -2.241 c 2.816 -2.078 3.02 -2.608 3.02 -8.882 c 0 -8.474 2.07 -14.423 6.749 -19.19 c 9.896 -10.145 26.09 -8.515 33.954 3.382 c 2.36 3.545 2.816 5.46 3.271 13.649 c 0.373 6.845 0.911 9.697 1.905 10.02 c 0.745 0.244 2.195 1.304 3.23 2.322 c 1.698 1.67 1.905 3.585 1.905 18.66 c 0 13.567 -0.331 17.193 -1.573 18.986 c -1.532 2.2 -1.863 2.241 -26.915 2.241 c -21.739 0 -25.631 -0.244 -26.956 -1.589 m 29.441 -14.382 c 0 -1.63 0.497 -4.03 1.077 -5.378 c 2.153 -4.726 -3.271 -9.04 -6.874 -5.46 c -1.532 1.507 -1.573 5.46 -0.124 6.356 c 0.621 0.367 0.87 1.915 0.538 3.422 c -0.621 3.3 -0.083 4.03 3.02 4.03 c 1.946 0 2.36 -0.53 2.36 -2.974 m 8.364 -27.623 c 0.952 -2.445 0.704 -9.493 -0.414 -13.608 c -2.236 -7.986 -11.842 -10.593 -18.14 -4.93 c -2.981 2.648 -3.271 3.463 -3.644 9.982 c -0.58 10.471 -0.952 10.145 11.18 10.145 c 8.571 0 10.517 -0.285 11.01 -1.589" transform="matrix(0.09434 0 0 0.09588 6.753 6.636)" fill="#e6521e" stroke="#e6521e"/></svg>