<svg xmlns="http://www.w3.org/2000/svg" viewBox="0 0 32 32"><g fill="#c0c0c0"><path d="m 15.766 0.426 c -13.988 -2.77 -19.301 16.242 -13.238 26.563 c 4.828 8.227 21.375 5.875 27.543 -5.227 c 6.172 -11.11 -3.074 -19.11 -14.305 -21.336"/><path d="m 4.547 43.514 h 38.545 v -38.96 h -38.545" transform="matrix(0.44965 0 0 0.43123 4.115 5.946)" stroke="#696969" stroke-width="0.971"/><path d="m 34.834 34.939 c 0.087 -1.105 1.034 -1.866 2.085 -1.866 c 1.164 0 2.128 0.942 2.128 2.01 c 0 0.48 -0.182 0.951 -0.539 1.332 l -3.944 4.248 v 0.136 h 4.952 v -0.435 h -4.066 l 3.397 -3.66 c 0.452 -0.462 0.652 -1.042 0.652 -1.621 c 0 -1.304 -1.164 -2.446 -2.571 -2.446 c -1.234 0 -2.406 0.915 -2.554 2.174 l 0.46 0.127" transform="matrix(0.44965 0 0 0.43123 4.165 5.847)" stroke="#000" stroke-width="0.929"/></g><g stroke="#696969"><g fill="#696969" stroke-width="0.638" transform="matrix(0.44965 0 0 0.43123 4.165 5.847)"><path d="m 16.886 5.01 h 0.669 v 37.864 h -0.669"/><path d="m 29.717 4.901 h 0.669 v 37.855 c 0 0 0 0.009 0 0.009 h -0.669 c -0.009 0 -0.009 -0.009 -0.009 -0.009 v -37.855 c 0 0 0 0 0.009 0"/></g><path d="m 139.64 173.15 c 0 12.217 -9.456 22.08 -21.1 22.08 c -11.672 0 -21.1 -9.865 -21.1 -22.08 c 0 -12.185 9.456 -22.08 21.1 -22.08 c 11.64 0 21.1 9.898 21.1 22.08" transform="matrix(0.12517 0 0 0.11958 0.029 0.963)" fill="#c0c0c0" stroke-width="2.7"/></g><g fill="#c0c0c0"><g stroke="#000" transform="matrix(0.44965 0 0 0.43123 4.165 5.847)"><path d="m 22.872 39.631 c -0.313 -0.226 -0.547 -0.544 -0.669 -0.924 l -0.347 0.172 c 0.304 0.87 1.112 1.467 2.01 1.467 c 1.294 0 2.337 -1.078 2.337 -2.4 c 0 -1.332 -1.042 -2.41 -2.337 -2.41 c -0.452 0 -0.886 0.145 -1.294 0.453 l 0.009 -2.618 h 3.136 v -0.39 h -3.527 v 3.805 l 0.156 0.027 c 0.252 -0.471 0.903 -0.861 1.52 -0.888 c 1.077 0 1.955 0.906 1.955 2.01 c 0 1.114 -0.877 2.01 -1.955 2.01 c -0.339 0 -0.695 -0.127 -0.99 -0.326" stroke-width="0.806"/><path d="m 34.478 22.14 c 0.096 -1.051 1.025 -1.785 2.059 -1.785 c 1.147 0 2.094 0.897 2.094 1.929 c 0 0.462 -0.182 0.915 -0.53 1.277 l -3.875 4.085 v 0.127 h 4.865 v -0.417 h -4 l 3.353 -3.515 c 0.434 -0.444 0.634 -0.996 0.634 -1.558 c 0 -1.25 -1.147 -2.346 -2.528 -2.346 c -1.208 0 -2.372 0.879 -2.511 2.092 l 0.443 0.109" stroke-width="0.903"/></g><path d="m 139.64 173.18 c 0 12.185 -9.456 22.08 -21.1 22.08 c -11.672 0 -21.13 -9.898 -21.13 -22.08 c 0 -12.217 9.456 -22.12 21.13 -22.12 c 11.64 0 21.1 9.898 21.1 22.12" transform="matrix(0.12517 0 0 0.11958 -5.69 -10.03)" stroke="#696969" stroke-width="2.7"/><path d="m 11.135 15.4 v -7.301 l -0.591 0.67 v 6.622 h 0.591" transform="matrix(0.44965 0 0 0.43123 4.165 5.847)" stroke="#000" stroke-width="0.999"/><g stroke="#696969" stroke-width="2.7"><path d="m 139.65 173.16 c 0 12.217 -9.456 22.08 -21.13 22.08 c -11.64 0 -21.1 -9.865 -21.1 -22.08 c 0 -12.217 9.456 -22.08 21.1 -22.08 c 11.672 0 21.13 9.865 21.13 22.08" transform="matrix(0.12517 0 0 0.11958 -5.789 -4.414)"/><path d="m 139.63 173.17 c 0 12.185 -9.425 22.08 -21.1 22.08 c -11.64 0 -21.1 -9.898 -21.1 -22.08 c 0 -12.217 9.456 -22.08 21.1 -22.08 c 11.672 0 21.1 9.865 21.1 22.08" transform="matrix(0.12517 0 0 0.11958 -0.02 -4.656)"/></g><g stroke="#000" transform="matrix(0.44965 0 0 0.43123 4.165 5.847)"><path d="m 8.981 22.574 c 0.078 -0.996 0.947 -1.694 1.903 -1.694 c 1.06 0 1.929 0.851 1.929 1.83 c 0 0.435 -0.165 0.87 -0.486 1.214 l -3.588 3.877 v 0.118 h 4.5 v -0.39 h -3.701 l 3.101 -3.333 c 0.4 -0.426 0.591 -0.951 0.591 -1.477 c 0 -1.196 -1.06 -2.237 -2.337 -2.237 c -1.121 0 -2.189 0.833 -2.328 1.984 l 0.417 0.109" stroke-width="0.846"/><path d="m 23.853 27.29 v -7.301 l -0.591 0.67 v 6.631 h 0.591" stroke-width="0.999"/></g></g><g stroke="#696969"><g fill="#696969" stroke-width="0.43" transform="matrix(0 0.43123 -0.44965 0 4.165 5.847)"><path d="m 29.431 -43.37 h 0.915 c 0 0 0 0.009 0 0.009 v 12.709 c 0 0.009 0 0.009 0 0.009 h -0.915 c 0 0 0 0 0 -0.009 v -12.709 c 0 0 0 -0.009 0 -0.009"/><path d="m 16.74 -43.04 h 0.915 c 0 0 0 0.009 0 0.009 v 12.709 c 0 0.009 0 0.009 0 0.009 h -0.915 c 0 0 0 0 0 -0.009 v -12.709 c 0 0 0 -0.009 0 -0.009"/></g><g fill-rule="evenodd" stroke-width="1.152"><path d="m 52.11 177.54 v -18.493 h 39.34 v 36.986 h -39.34" transform="matrix(0.1249 0 0 0.13307 0.007 -1.775)"/><path d="m 52.12 177.55 v -18.488 h 39.33 v 36.976 h -39.33" transform="matrix(0.12394 0 0 0.12128 5.872 -10.806)"/><path d="m 52.11 177.54 v -18.491 h 39.34 v 36.983 h -39.34" transform="matrix(0.12402 0 0 0.11492 11.733 -9.844)" fill="#dcdcdc"/></g><path d="m 48.31 63.38 h 1.125 v 134.47 h -1.125" transform="scale(0.125)" fill="#696969" stroke-width="2.331"/></g></svg>