<svg xmlns="http://www.w3.org/2000/svg" viewBox="0 0 32 32"><path d="m 0.398 15.926 c -2.77 -13.785 16.238 -19.02 26.563 -13.05 c 8.227 4.762 5.875 21.07 -5.23 27.14 c -11.1 6.078 -19.11 -3.03 -21.332 -14.1" fill="#a9a9a9"/><g stroke="#7f7f7f"><g fill="#d2d2d2"><path d="m 4.556 -43.511 h 38.955 v 38.956 h -38.955" transform="matrix(0.42687 0 0 -0.42736 5.7 5.186)" stroke-width="0.976"/><g transform="matrix(0.42687 0 0 0.42736 5.7 5.186)"><path d="m 8.875 34.819 c 0.092 -1.106 1.098 -1.865 2.215 -1.865 c 1.235 0 2.251 0.932 2.251 2.01 c 0 0.475 -0.201 0.941 -0.567 1.325 l -4.182 4.259 v 0.128 h 5.243 v -0.43 h -4.31 l 3.605 -3.665 c 0.476 -0.466 0.686 -1.042 0.686 -1.618 c 0 -1.307 -1.226 -2.45 -2.718 -2.45 c -1.309 0 -2.553 0.914 -2.709 2.175 l 0.485 0.119" stroke-width="0.956"/><path d="m 33.12 11.821 c -0.357 0.512 -0.531 1.06 -0.549 1.636 c -0.027 1.499 1.162 2.961 2.855 3.01 c 1.482 0.037 2.983 -1.133 3.03 -2.861 c 0.027 -1.49 -1.199 -2.98 -2.864 -3.02 c -0.384 -0.009 -0.76 0.064 -1.135 0.21 l 2.37 -3.291 l -0.604 -0.018 l -3.093 4.333 m 0.375 0.274 c 0.531 -0.704 1.309 -1.042 2.077 -1.024 c 1.418 0.037 2.407 1.271 2.379 2.523 c -0.027 1.435 -1.263 2.431 -2.498 2.404 c -1.409 -0.037 -2.434 -1.271 -2.407 -2.532 c 0.009 -0.475 0.156 -0.96 0.448 -1.371"/><path d="m 18.06 4.08 v 14.09 h -14.08 v 0.356 h 14.08 v 11.05 h -14.08 v 0.347 h 14.08 v 14.09 h 0.357 v -14.09 h 11.05 v 14.09 h 0.357 v -14.09 h 14.08 v -0.347 h -14.08 v -11.05 h 14.08 v -0.356 h -14.08 v -14.09 h -0.357 v 14.09 h -11.05 v -14.09 m 0 14.442 h 11.05 v 11.05 h -11.05"/></g></g><g fill="#7f7f7f" fill-rule="evenodd"><path d="m -194.12 -854.2 h 134.59 v 3.125 h -134.59" transform="matrix(-0.125 0 0 -0.125 0 -99.55)" stroke-width="1.779"/><path d="m -987.2 194.28 h 136.06 v 3.125 h -136.06" transform="matrix(0 -0.125 0.125 0 0 -99.55)" stroke-width="1.787"/><path d="m 59.03 986.36 h 138.09 v 3.094 h -138.09" transform="matrix(0.125 0 0 0.125 0 -99.55)" stroke-width="1.797"/><path d="m 853.05 -61.12 h 133.22 v 2.625 h -133.22" transform="matrix(0 0.125 -0.125 0 0 -99.55)" stroke-width="1.619"/></g></g><g fill-rule="evenodd" stroke="#000" transform="matrix(0.125 0 0 0.125 0 -99.55)"><path d="m 62.47 896.3 v -40.938 h 43.25 v 81.88 h -43.25" stroke-width="0.866"/><path d="m 149.06 942.92 v -42.594 h 43.22 v 85.22 h -43.22" stroke-width="0.883"/></g></svg>