<svg xmlns="http://www.w3.org/2000/svg" viewBox="0 0 32 32"><path d="m 8.414 3.781 c 7.254 -7.309 13.949 -1.957 19.449 3.855 c 4.48 4.734 4.684 9.125 1.715 13.773 c -7.754 12.152 -17.82 16.656 -28.359 -2.191 c -2.594 -6.215 2.887 -11.992 7.195 -15.438" fill="#ff8c00"/><g stroke="#000" stroke-width="10"><path d="m 126.31 -67.1 l 121.98 0.005 l -0.026 121.93 l -121.96 0.018" transform="matrix(0.07955 0.08508 -0.08024 0.0844 0.967 0.718)" fill="#fff"/><path d="m 94.69 166.47 c 10.339 -12.09 18.745 -25.18 11.152 -25.18 c -2.61 0 -11.152 -4.385 -11.152 -9.368 c 15.322 -17.739 43.762 -34.781 58.676 -45.843 c 15.593 -11.461 37.965 -29.731 39.592 -17.407 c 0.847 6.245 -4.407 12.424 -15.932 23.984 c -26.372 26.509 -24.372 27.11 -6.068 37.31 c 6.61 3.687 2.407 8.67 -33.965 31.19 c -39.728 30.1 -89.29 59.26 -42.3 5.315" transform="matrix(0.11524 0 0 0.11759 0.967 0.718)" fill="#ff9400"/></g><path d="m 16.305 5.05 l 0.809 0.789 l -10.418 11.133 l -0.809 -0.789"/></svg>