<svg xmlns="http://www.w3.org/2000/svg" viewBox="0 0 32 32"><path d="m 3.438 25.23 c -15.859 -24.367 31.773 -37.609 27.988 -7.879 c -2.848 13.02 -20.723 20.926 -27.988 7.879" fill="#778799"/><g fill="#fff"><path d="m 7.969 23.05 c -0.793 -0.805 -1.504 -2.43 -1.789 -4.094 c -0.039 -0.234 -0.063 -0.586 -0.066 -0.949 c 0 -0.52 0.008 -0.613 0.098 -0.914 c 0.117 -0.387 0.168 -0.664 0.199 -1.082 c 0.039 -0.434 0.117 -0.766 0.309 -1.25 c 0.43 -1.09 0.957 -1.883 1.82 -2.742 c 0.609 -0.605 1.34 -1.168 1.836 -1.414 c 0.496 -0.246 0.535 -0.25 0.73 -0.043 c 0.293 0.309 0.48 0.281 0.941 -0.152 c 0.301 -0.277 0.434 -0.348 0.371 -0.188 c -0.016 0.047 -0.082 0.191 -0.148 0.324 c -0.164 0.344 -0.148 0.469 0.074 0.582 c 0.172 0.09 0.723 0.199 1.121 0.227 l 0.355 0.023 l 0.316 -0.168 c 0.176 -0.094 0.504 -0.27 0.73 -0.398 c 0.227 -0.125 0.504 -0.254 0.617 -0.289 c 0.113 -0.031 0.289 -0.117 0.398 -0.188 c 0.105 -0.07 0.273 -0.152 0.375 -0.184 c 0.266 -0.078 0.777 -0.105 1.035 -0.055 c 0.223 0.047 0.953 0.398 1.352 0.656 c 1.133 0.719 2.23 1.828 2.902 2.926 c 0.637 1.047 1.043 2.309 1.059 3.301 c 0.008 0.34 -0.027 0.504 -0.105 0.504 c -0.027 0 -0.18 -0.117 -0.336 -0.262 c -0.191 -0.18 -0.309 -0.258 -0.375 -0.258 c -0.051 0 -0.23 0.066 -0.395 0.148 c -0.164 0.082 -0.309 0.148 -0.324 0.148 c -0.094 -0.004 -0.133 -0.09 -0.16 -0.34 c -0.035 -0.305 -0.086 -0.367 -0.289 -0.367 c -0.148 0 -0.328 0.082 -0.363 0.168 c -0.039 0.105 -0.023 0.164 0.074 0.313 c 0.098 0.145 0.164 0.496 0.113 0.617 c -0.02 0.055 -0.035 0.055 -0.137 -0.02 c -0.063 -0.047 -0.156 -0.082 -0.207 -0.082 c -0.203 0 -0.691 0.492 -1.145 1.164 c -0.152 0.219 -0.445 0.574 -0.668 0.805 c -0.512 0.523 -0.523 0.543 -0.375 0.691 c 0.063 0.063 0.102 0.133 0.09 0.156 c -0.008 0.027 -0.172 0.16 -0.363 0.297 c -0.188 0.137 -0.449 0.336 -0.586 0.438 c -0.25 0.195 -0.535 0.348 -0.723 0.391 c -0.098 0.023 -0.133 0 -0.309 -0.18 c -0.355 -0.367 -0.691 -1.172 -0.84 -2.031 c -0.125 -0.707 -0.184 -1 -0.305 -1.508 l -0.113 -0.473 l -0.117 -0.02 c -0.066 -0.008 -0.359 -0.027 -0.648 -0.039 c -0.734 -0.031 -0.848 -0.066 -1.219 -0.422 c -0.512 -0.484 -0.891 -1 -0.891 -1.215 c 0 -0.129 0.305 -0.449 0.824 -0.859 c 0.734 -0.586 1.059 -0.941 1.301 -1.418 c 0.188 -0.371 0.207 -0.672 0.066 -0.949 c -0.078 -0.156 -0.102 -0.25 -0.098 -0.426 c 0.004 -0.332 -0.09 -0.398 -0.348 -0.246 c -0.098 0.059 -0.238 0.086 -0.59 0.109 c -0.602 0.047 -0.699 0.066 -0.855 0.156 c -0.109 0.063 -0.168 0.074 -0.359 0.055 c -0.266 -0.027 -0.367 0 -0.551 0.164 c -0.074 0.063 -0.266 0.164 -0.43 0.219 c -0.367 0.129 -1.57 0.723 -1.977 0.969 c -0.367 0.227 -0.637 0.465 -0.824 0.723 c -0.188 0.266 -0.316 0.398 -0.379 0.398 c -0.027 0 -0.109 -0.043 -0.18 -0.098 c -0.176 -0.133 -0.285 -0.082 -0.41 0.191 c -0.121 0.262 -0.277 0.949 -0.277 1.223 c 0 0.406 0.082 0.477 0.996 0.852 c 0.742 0.305 1.066 0.465 1.398 0.699 c 0.34 0.242 1.012 0.918 1.152 1.16 c 0.105 0.184 0.109 0.211 0.063 0.301 c -0.027 0.055 -0.102 0.121 -0.16 0.145 c -0.133 0.055 -0.277 0.277 -0.543 0.824 c -0.246 0.508 -0.34 0.609 -0.637 0.664 c -0.402 0.078 -0.715 0.387 -1.01 0.996 c -0.23 0.48 -0.223 0.605 0.059 1.219 c 0.121 0.262 0.211 0.504 0.207 0.539 c -0.027 0.129 -0.117 0.086 -0.363 -0.164 m 8.762 -8.684 c 0.5 -0.129 0.871 -0.395 0.977 -0.707 c 0.121 -0.359 0.047 -0.387 -0.344 -0.133 c -0.34 0.223 -0.504 0.285 -0.887 0.34 c -0.344 0.047 -0.496 0.117 -0.527 0.25 c -0.035 0.129 0.02 0.207 0.176 0.262 c 0.176 0.063 0.34 0.059 0.605 -0.012 m -1.117 -0.273 c 0.059 -0.023 0.098 -0.066 0.098 -0.109 c 0 -0.164 -0.438 -0.527 -0.633 -0.527 c -0.059 0 -0.156 0.066 -0.293 0.203 c -0.184 0.18 -0.199 0.211 -0.16 0.281 c 0.023 0.047 0.098 0.105 0.16 0.133 c 0.141 0.059 0.688 0.07 0.828 0.02"/><path d="m 12.84 10.535 c -0.066 -0.176 0.207 -0.496 0.594 -0.688 c 0.172 -0.086 0.281 -0.117 0.43 -0.117 c 0.219 0 0.273 0.051 0.203 0.18 c -0.09 0.168 -0.93 0.68 -1.113 0.68 c -0.051 0 -0.102 -0.023 -0.113 -0.055"/><path d="m 13.688 26.18 c -0.789 -0.078 -1.574 -0.266 -1.871 -0.441 c -0.133 -0.086 -0.168 -0.125 -0.18 -0.223 c -0.016 -0.164 0.07 -0.191 0.258 -0.086 c 0.301 0.168 1.01 0.258 2.375 0.297 c 1.094 0.035 1.43 0.074 1.535 0.18 c 0.051 0.051 0.051 0.063 -0.016 0.109 c -0.207 0.145 -1.367 0.234 -2.102 0.164"/><path d="m 20.996 21.59 c -0.203 -0.105 -0.418 -0.238 -0.477 -0.301 l -0.113 -0.109 l -0.012 -0.824 c -0.012 -0.777 -0.008 -0.82 0.055 -0.805 c 0.039 0.012 0.145 0.031 0.238 0.043 c 0.359 0.051 0.734 0.145 0.898 0.227 c 0.09 0.047 0.281 0.102 0.426 0.125 c 0.352 0.055 0.367 0.074 0.301 0.387 c -0.063 0.309 -0.273 0.828 -0.43 1.07 c -0.133 0.207 -0.332 0.375 -0.445 0.375 c -0.043 0 -0.242 -0.086 -0.441 -0.188"/><path d="m 21.1 18.543 c -0.164 -0.164 -0.188 -0.262 -0.078 -0.363 c 0.063 -0.055 0.113 -0.059 0.336 -0.039 c 0.285 0.027 0.246 0.047 0.488 -0.238 c 0.09 -0.113 0.113 -0.125 0.168 -0.082 c 0.086 0.07 0.074 0.293 -0.027 0.469 c -0.129 0.223 -0.328 0.363 -0.547 0.387 c -0.18 0.016 -0.195 0.008 -0.34 -0.133"/><path d="m 13.727 27.09 c -2.027 -0.188 -3.699 -0.906 -5.258 -2.254 c -1.332 -1.156 -2.219 -2.477 -2.793 -4.168 c -0.254 -0.742 -0.297 -1.047 -0.32 -2.207 c -0.031 -1.449 0.047 -2.414 0.254 -3.113 c 0.316 -1.094 1.082 -2.473 1.844 -3.344 c 1.27 -1.441 3.297 -2.676 4.949 -3.02 c 1.223 -0.25 2.953 -0.25 4.04 0.004 c 0.871 0.199 2.18 0.77 2.957 1.285 c 2.32 1.543 3.801 3.961 4.098 6.684 c 0.066 0.613 0.031 1.84 -0.074 2.43 c -0.277 1.57 -0.965 3.086 -1.949 4.313 c -1.355 1.68 -3.477 2.91 -5.656 3.277 c -0.664 0.113 -1.555 0.16 -2.086 0.109 m 1.871 -0.41 c 2.332 -0.27 4.402 -1.477 5.844 -3.402 c 1.012 -1.348 1.523 -2.582 1.723 -4.145 c 0.074 -0.59 0.063 -2.07 -0.023 -2.625 c -0.285 -1.887 -1.059 -3.363 -2.527 -4.832 c -1.426 -1.426 -2.926 -2.207 -4.762 -2.48 c -0.535 -0.082 -1.965 -0.113 -2.563 -0.059 c -1.07 0.102 -1.91 0.363 -2.953 0.918 c -1.027 0.551 -1.953 1.285 -2.66 2.125 c -0.855 1.012 -1.629 2.48 -1.879 3.574 c -0.148 0.641 -0.172 0.945 -0.172 2.168 c 0 1.301 0.039 1.715 0.227 2.355 c 0.75 2.574 2.723 4.813 5.145 5.84 c 0.75 0.32 1.715 0.582 2.281 0.625 c 0.535 0.035 1.75 0.008 2.32 -0.059"/></g><path d="m 17.04 10.707 c 0.844 5.871 9.25 6.05 10.52 0.34 c 1.309 -4.621 -3.426 -8.402 -6.969 -6.887 c -2.371 0.715 -4.285 3.645 -3.551 6.547" fill="#af75c8"/><path d="m 23.938 9.52 c 0 0.926 -0.719 1.68 -1.605 1.68 c -0.887 0 -1.605 -0.75 -1.605 -1.68 c 0 -0.926 0.719 -1.676 1.605 -1.676 c 0.887 0 1.605 0.75 1.605 1.676" fill="#d6b7e3"/><g fill="none" stroke-linecap="round" stroke-width="10" transform="matrix(0.04259 0 0 0.04453 16.88 -31.64)"><path d="m 128.02 924.34 l 72.28 -41.757" stroke="#d6b7e3"/><path d="m 128.02 924.34 l -79.52 -79.48" stroke="#fff"/></g><path d="m 23.2 9.52 c 0 0.504 -0.391 0.91 -0.871 0.91 c -0.48 0 -0.871 -0.406 -0.871 -0.91 c 0 -0.5 0.391 -0.91 0.871 -0.91 c 0.48 0 0.871 0.41 0.871 0.91" fill="#fff"/></svg>