<svg xmlns="http://www.w3.org/2000/svg" viewBox="0 0 32 32"><path d="m 27.992 5.824 c 8.145 11.902 2.184 22.746 -6.559 25.316 c -11.758 3.461 -28.13 -5.633 -18.08 -24.375 c 3.996 -7.449 18.836 -9.422 24.641 -0.941" fill="#26a57d"/><path d="m 8.43 23.578 l -0.371 -0.352 l -0.055 -2.102 c -0.059 -2.52 0 -4.195 0.156 -4.254 c 0.16 -0.063 0.82 0.082 0.887 0.191 c 0.105 0.344 0.121 0.625 0.16 0.996 c 0.383 0.035 0.766 0.07 1.145 0.105 l 0.043 0.504 c 0.055 0.715 0.137 0.648 0.855 0.648 c 0.711 0 0.84 0.059 0.84 -0.676 v -0.488 h 0.809 c 0.938 0 0.906 -0.027 0.906 0.84 l 0.004 0.488 h 0.66 c 0.867 0 0.977 -0.094 0.977 -0.82 v -0.508 h 0.918 l 0.031 0.504 c 0.047 0.715 0.164 0.824 0.891 0.824 c 0.711 0 0.813 -0.105 0.813 -0.84 v -0.488 h 1.621 l 0.047 0.293 c 0.027 0.16 0.047 0.461 0.051 0.664 v 0.371 h 0.656 c 0.609 0 0.668 -0.016 0.813 -0.195 c 0.094 -0.121 0.172 -0.383 0.207 -0.703 l 0.051 -0.508 h 0.535 c 0.578 0 0.625 -0.035 0.625 -0.492 c 0.004 -0.398 0.164 -0.625 0.508 -0.723 c 0.172 -0.051 0.355 -0.074 0.406 -0.055 c 0.211 0.078 0.254 0.668 0.254 3.457 l 0.004 2.852 l -0.414 0.406 l -0.41 0.406 h -14.246" fill="#03708e"/><path d="m 10.82 19.422 c -0.023 -0.059 -0.066 -0.582 -0.098 -1.164 c -0.035 -0.625 -0.098 -1.102 -0.152 -1.172 c -0.066 -0.074 -0.344 -0.129 -0.891 -0.168 c -0.438 -0.027 -0.82 -0.066 -0.848 -0.086 c -0.094 -0.059 -0.16 -3.785 -0.086 -4.621 c 0.094 -0.977 0.352 -1.598 0.906 -2.148 c 0.531 -0.531 1.156 -0.828 1.941 -0.918 c 0.773 -0.09 7.336 -0.09 8.484 -0.004 c 1.012 0.078 1.547 0.313 2.184 0.945 c 0.797 0.789 0.852 1.066 0.855 4.301 c 0 1.766 -0.023 2.332 -0.098 2.395 c -0.055 0.043 -0.441 0.105 -0.859 0.137 c -0.516 0.039 -0.789 0.094 -0.852 0.168 c -0.082 0.098 -0.195 1.227 -0.215 2.109 l -0.004 0.254 c -0.402 0.027 -0.852 0.117 -1.246 0.063 c -0.047 -0.402 0.031 -0.836 -0.012 -1.238 l -0.891 -0.035 c -1.035 -0.039 -1.094 0.008 -1.105 0.156 c -0.039 0.375 -0.074 0.676 -0.113 1.055 c -0.305 0 -0.848 -0.066 -1.152 -0.066 c -0.039 -0.352 -0.043 -0.738 -0.082 -1.09 c -0.176 -0.027 -0.488 -0.082 -1.07 0.039 c -0.039 0.352 -0.078 0.637 -0.113 0.988 c -0.016 0.137 -0.254 0.082 -0.66 0.113 l -0.715 0.055 c -0.047 -0.402 0.043 -0.844 -0.008 -1.25 l -0.969 -0.02 c -1.211 -0.027 -0.797 0.215 -0.871 1.01 c -0.16 0.211 -0.887 0.402 -1.262 0.195 m 1.969 -2.492 c 0.418 -0.141 0.75 -0.41 0.957 -0.77 c 0.25 -0.438 0.219 -0.598 -0.168 -0.766 c -0.445 -0.195 -2.09 -0.668 -2.91 -0.84 c -0.793 -0.16 -0.855 -0.129 -0.84 0.477 c 0.02 0.809 0.621 1.707 1.32 1.969 c 0.355 0.133 1.152 0.098 1.641 -0.07 m 8.168 -0.078 c 0.43 -0.195 0.609 -0.391 0.906 -0.984 c 0.223 -0.438 0.293 -1.086 0.141 -1.289 c -0.105 -0.137 -0.152 -0.141 -0.574 -0.059 c -0.699 0.141 -2.484 0.633 -2.98 0.828 c -0.547 0.211 -0.605 0.398 -0.258 0.879 c 0.238 0.324 0.777 0.746 1.063 0.828 c 0.348 0.102 1.285 -0.012 1.703 -0.203 m -5.516 -0.066 l 0.488 -0.164 l 0.543 0.164 c 0.676 0.207 0.84 0.207 0.949 0.012 c 0.102 -0.195 0.016 -0.375 -0.324 -0.66 c -0.293 -0.25 -0.949 -0.59 -1.129 -0.59 c -0.23 0 -1.125 0.488 -1.324 0.723 c -0.18 0.215 -0.25 0.52 -0.137 0.629 c 0.094 0.098 0.438 0.055 0.934 -0.113" fill="#fff"/><g fill="#d0b28b"><path d="m 8.387 15.938 c -0.141 -0.078 -0.277 -3.172 -0.313 -3.277 c -0.09 -0.305 -0.047 -2.836 0.059 -3.273 c 0.109 -0.457 0.398 -0.746 0.844 -0.84 c 0.16 -0.035 1.281 -0.063 2.496 -0.063 h 2.203 l 0.176 0.219 c 0.117 0.145 0.289 0.238 0.523 0.281 c 0.254 0.051 -0.063 0.07 -1.152 0.078 c -1.805 0.008 -2.363 0.109 -3.051 0.555 c -0.93 0.602 -1.375 1.465 -1.48 2.871 l -0.016 3.609"/><path d="m 21.21 18.08 c 0.063 -0.785 0.102 -0.953 0.238 -1 c 0.063 -0.023 0.418 -0.082 0.793 -0.129 c 0.371 -0.047 0.723 -0.121 0.777 -0.168 c 0.078 -0.063 0.102 -0.621 0.102 -2.477 c 0 -3.191 -0.059 -3.48 -0.871 -4.273 c -0.773 -0.758 -1.484 -0.953 -3.539 -0.973 c -0.688 -0.008 -1.141 -0.027 -1.012 -0.047 c 0.285 -0.043 0.426 -0.152 0.426 -0.332 c 0 -0.211 0.184 -0.25 1.406 -0.289 c 1.504 -0.051 3.328 0.074 3.703 0.254 c 0.512 0.242 0.551 0.398 0.551 2.336 c 0.008 0.77 0.012 1.531 -0.039 2.297 c -0.023 0.371 -0.5 0.297 -0.453 1.43 c 0.031 0.781 0.527 0.844 0.688 0.973 c 0.199 0.16 -0.156 0.605 -0.215 0.91 c -0.031 0.168 -0.102 0.211 -0.453 0.285 c -0.602 0.125 -0.512 0.352 -0.512 0.77 c 0 0.398 -0.012 0.414 -0.477 0.48 c -0.699 0.133 -1.176 0.77 -1.113 -0.043"/><path d="m 10.633 18.523 c -0.605 -0.605 -1.309 0.023 -1.391 -0.359 c -0.102 -0.508 -0.074 -1.211 -0.422 -1.211 c -0.363 0 -0.66 0.082 -0.809 -0.18 c -0.117 -0.207 -0.332 -1.316 0.426 -1.254 c 0.238 0.02 0.23 0.133 0.273 0.289 c 0.023 0.094 0.047 0.367 0.047 0.609 v 0.438 l 0.449 0.051 c 0.984 0.109 1.164 0.137 1.262 0.195 c 0.102 0.066 0.289 1.387 0.207 1.473 c -0.023 0.023 -0.043 0 -0.043 -0.051"/></g><g fill="#d61313"><path d="m 11.06 16.883 c -0.707 -0.32 -1.344 -1.488 -1.176 -2.152 c 0.039 -0.156 0.098 -0.199 0.285 -0.199 c 0.555 0 3.41 0.844 3.586 1.059 c 0.266 0.316 -0.391 1.105 -1.09 1.316 c -0.559 0.164 -1.215 0.156 -1.605 -0.023"/><path d="m 18.875 16.789 c -0.414 -0.273 -0.832 -0.789 -0.832 -1.016 c 0 -0.082 0.082 -0.195 0.176 -0.258 c 0.328 -0.207 3.102 -0.984 3.52 -0.984 c 0.449 0 0.371 0.93 -0.148 1.711 c -0.305 0.461 -0.867 0.715 -1.691 0.766 c -0.625 0.035 -0.656 0.031 -1.023 -0.219"/></g><path d="m 15.461 21.633 c -0.027 -1.207 -0.027 -2.477 -0.004 -2.824 l 0.047 -0.629 c 0.32 0 0.641 0 0.961 0 v 5.645 h -0.957 m -3.289 -5.586 c 0.531 0 1.066 0 1.598 0 c -0.012 0.316 0.133 0.816 0.063 1.113 c 0.109 0.16 -0.727 -0.012 -1.117 0.027 c -1.027 0.129 -0.617 -0.395 -0.543 -1.141 m 5.477 1.129 c -0.063 -0.34 0.203 -0.781 0.238 -1.129 h 1.789 c -0.012 0.316 0.215 0.898 0.145 1.195 c -0.422 -0.055 -1.977 0.285 -2.172 -0.066 m 3.57 -0.102 c -0.129 -0.125 -0.16 -1 0.242 -1.145 c 0.07 -0.027 0.617 -0.039 0.855 0.008 c 0.586 0.156 0.129 0.578 -0.102 1.027 c -0.125 0.121 -0.91 0.195 -0.996 0.109 m -11.605 -0.09 c -0.113 -0.344 -0.152 -0.629 -0.223 -0.996 c 0.379 0 1.297 0 1.297 0 l -0.008 0.484 c -0.012 0.477 0.301 0.625 -0.059 0.66 c -0.215 0.02 -0.977 -0.094 -1.01 -0.148 m 4.797 -2.91 c 0.027 -0.094 0.449 -0.473 0.766 -0.637 l 0.75 -0.301 l 0.781 0.434 c 0.313 0.176 0.57 0.375 0.598 0.469 c 0.09 0.316 0.281 1.109 -1.047 0.469 c -0.316 -0.156 -1.047 0.035 -1.375 0.164 c -0.723 0.281 -0.531 -0.418 -0.473 -0.598 m -6.867 -0.984 c -0.227 -0.219 -0.254 -0.359 -0.211 -1.152 c 0.035 -0.715 0.094 -0.934 0.281 -1.066 c 0.289 -0.207 0.703 -0.219 0.902 -0.027 c 0.199 0.195 0.199 2.16 0 2.355 c -0.227 0.223 -0.684 0.172 -0.973 -0.109 m 15.789 0.109 c -0.094 -0.09 -0.148 -0.531 -0.148 -1.176 c 0 -1.129 0.094 -1.32 0.633 -1.32 c 0.52 0 0.723 0.387 0.723 1.387 c 0 0.676 -0.047 0.898 -0.227 1.055 c -0.262 0.234 -0.77 0.262 -0.98 0.055 m -9.223 -6.422 c -0.27 -0.105 -0.184 -0.848 0.121 -1.055 c 0.391 -0.27 2.996 -0.27 3.391 0 c 0.332 0.227 0.383 0.945 0.078 1.062 c -0.23 0.086 -3.367 0.078 -3.59 -0.008" fill="#1c4c55"/><path d="m 17.996 21.387 h 3.652 c 0.023 0 0.047 0.02 0.047 0.047 v 1.625 c 0 0.023 -0.023 0.047 -0.047 0.047 h -3.652 c -0.027 0 -0.047 -0.023 -0.047 -0.047 v -1.625 c 0 -0.027 0.02 -0.047 0.047 -0.047" fill="#ccc"/></svg>