<svg xmlns="http://www.w3.org/2000/svg" viewBox="0 0 32 32"><path d="m 28.3 5.824 c 7.789 11.902 1.504 22.746 -7.313 25.316 c -11.863 3.461 -27.965 -5.633 -17.355 -24.375 c 4.219 -7.449 19.12 -9.422 24.668 -0.941" fill="#fc8600"/><path d="m 12.383 21.01 c 0 1.723 -1.414 3.121 -3.156 3.121 c -1.746 0 -3.16 -1.398 -3.16 -3.121 c 0 -1.727 1.414 -3.125 3.16 -3.125 c 1.742 0 3.156 1.398 3.156 3.125" fill="#b3e3ec"/><path d="m 11.758 12.844 c -0.492 -0.52 -0.559 -0.93 -0.559 -3.512 c -0.004 -2.355 0.004 -2.426 0.219 -2.273 c 0.68 0.488 1.742 3.168 1.758 4.422 c 0.004 0.422 -0.035 0.887 -0.086 1.031 c -0.824 1.242 -0.23 1.398 -1.332 0.332" fill="#eea495"/><path d="m 16.664 24.754 c -1.535 -0.273 -0.703 -1.18 -1.703 -2.059 c -0.473 -0.418 -1.988 -0.063 -2.031 -0.617 c -0.117 -1.41 -1.883 -3.766 -1.762 -4.086 c 1.398 -3.707 5.504 0.969 8.01 0.609 c 2.23 -0.324 1.23 -2.883 2.875 -2.453 c 1.258 0.332 1.676 2.355 1.238 3.781 c -0.23 0.766 -1.414 2.313 -1.371 2.523 c 0.156 0.781 -0.641 2.156 -1.605 2.039 c -1.039 -0.125 -3.145 0.352 -3.648 0.262" fill="#ffdeac"/><path d="m 16.273 24.855 c -0.418 -0.148 -0.414 -0.145 -0.914 -1.168 c -0.164 -0.34 -0.332 -0.656 -0.375 -0.707 c -0.145 -0.184 -2.051 -0.574 -2.309 -0.473 c -0.074 0.027 -0.211 0.199 -0.301 0.379 c -0.598 1.172 -2.262 1.965 -3.637 1.727 c -2.672 -0.461 -3.949 -3.59 -2.332 -5.727 c 0.914 -1.211 2.488 -1.723 3.934 -1.281 c 0.32 0.098 0.617 0.152 0.66 0.125 c 0.047 -0.027 0.188 -0.258 0.316 -0.516 c 0.453 -0.91 0.387 -1.914 -0.191 -2.883 c -0.57 -0.949 -0.883 -1.672 -0.922 -2.137 c -0.043 -0.469 0.094 -1.145 0.508 -2.539 c 0.301 -1.016 0.281 -1.707 -0.098 -3.355 c -0.035 -0.152 -0.008 -0.184 0.148 -0.184 c 0.352 0 1.051 0.398 1.555 0.879 c 0.613 0.59 0.977 1.203 1.617 2.75 c 0.277 0.664 0.586 1.332 0.688 1.477 c 0.168 0.25 0.211 0.27 0.625 0.27 c 0.246 0 0.902 -0.051 1.465 -0.109 c 0.637 -0.066 1.328 -0.086 1.848 -0.051 c 0.824 0.055 0.832 0.055 0.965 -0.148 c 0.223 -0.344 0.445 -1.07 0.703 -2.328 c 0.266 -1.273 0.52 -2.01 0.875 -2.527 c 0.238 -0.344 0.469 -0.527 0.551 -0.441 c 0.031 0.027 0.105 0.488 0.168 1.023 c 0.164 1.391 0.309 1.891 0.828 2.926 c 0.422 0.836 0.465 0.965 0.465 1.453 c 0 0.574 -0.109 0.852 -0.668 1.699 c -0.281 0.426 -0.285 0.449 -0.184 0.762 c 0.078 0.23 0.094 0.563 0.055 1.137 l -0.051 0.809 l 0.457 0.609 c 0.25 0.336 0.555 0.813 0.672 1.059 c 0.195 0.41 0.215 0.551 0.223 1.48 l 0.008 1.027 c 0.762 -0.008 1.402 -0.07 2.156 -0.133 l 0.125 0.309 c 0.18 0.43 0.07 0.941 -0.215 1.023 c -0.113 0.031 -0.742 0.059 -1.402 0.063 c -0.973 0.008 -1.223 0.035 -1.324 0.137 c -0.074 0.074 -0.129 0.18 -0.129 0.238 c -0.211 0.363 -0.852 0.613 -0.781 0.988 c 0.18 0.918 0.172 0.973 -0.211 1.336 c -0.984 0.938 -1.5 1.098 -2.523 0.793 c -0.531 -0.16 -0.895 -0.121 -1.512 0.164 c -0.539 0.246 -0.969 0.266 -1.535 0.066 m 1.359 -0.426 c 0.465 -0.215 1.602 -0.578 1.797 -0.578 c 0.039 0 0.055 0.082 0.043 0.18 c -0.031 0.207 0.168 0.293 0.711 0.305 c 0.246 0.008 0.434 -0.063 0.773 -0.289 c 0.648 -0.434 0.816 -0.605 0.816 -0.852 c 0 -0.383 -0.16 -0.473 -1.398 -0.797 l -1.195 -0.309 l -1.016 0.512 c -0.559 0.281 -1.109 0.512 -1.227 0.512 c -0.551 0 -1.289 -0.555 -1.762 -1.324 c -0.098 -0.168 -0.262 -0.32 -0.363 -0.348 c -0.102 -0.023 -0.57 0.02 -1.039 0.098 l -0.859 0.145 v 0.48 l 0.816 0.109 c 0.727 0.098 0.824 0.094 0.906 -0.02 c 0.172 -0.238 0.828 0.637 1.09 1.453 c 0.055 0.172 0.215 0.426 0.352 0.563 c 0.473 0.477 0.793 0.508 1.555 0.16 m 0.793 -1.16 c 0 -0.152 0.426 -0.336 0.883 -0.379 c 0.516 -0.047 0.703 0.059 0.492 0.27 c -0.129 0.129 -1.375 0.23 -1.375 0.109 m -7.859 0.477 c 0.848 -0.441 1.387 -1.113 1.617 -2.02 c 0.348 -1.359 -0.352 -2.781 -1.672 -3.406 c -0.453 -0.211 -0.621 -0.246 -1.188 -0.246 c -0.926 0.004 -1.484 0.234 -2.133 0.887 c -0.684 0.684 -0.875 1.203 -0.832 2.223 c 0.027 0.664 0.063 0.801 0.316 1.27 c 0.34 0.621 0.855 1.086 1.516 1.367 c 0.809 0.262 1.656 0.289 2.375 -0.074 m 7.195 -1.539 c 0.91 -0.461 1.234 -0.777 1.234 -1.215 c 0 -0.316 -0.023 -0.355 -0.426 -0.613 c -0.449 -0.289 -1.168 -1.023 -1.609 -1.641 c -0.266 -0.375 -1.031 -0.824 -1.77 -1.047 c -0.266 -0.078 -0.328 -0.133 -0.297 -0.254 c 0.031 -0.121 -0.078 -0.211 -0.563 -0.445 c -0.551 -0.27 -0.645 -0.293 -1.117 -0.25 c -0.883 0.074 -1.547 0.48 -1.758 1.07 c -0.043 0.117 0.027 0.246 0.289 0.512 c 0.191 0.195 0.391 0.355 0.441 0.355 c 0.051 0 0.145 -0.117 0.199 -0.258 c 0.215 -0.516 1.141 -0.785 1.297 -0.379 c 0.039 0.102 0.188 0.297 0.332 0.43 c 0.141 0.137 0.438 0.531 0.656 0.875 c 0.543 0.781 0.73 0.5 0.68 1.23 l -0.047 0.688 l 0.379 0.52 c 0.625 0.848 1.055 0.934 2.078 0.422 m 4.063 -0.23 c 0.355 -0.258 0.527 -0.492 0.664 -0.891 c 0.07 -0.211 0.059 -0.363 -0.066 -0.781 c -0.172 -0.563 -0.203 -0.934 -0.082 -1 c 0.039 -0.027 0.098 0.059 0.125 0.191 c 0.07 0.316 0.238 0.449 0.488 0.387 c 0.262 -0.066 0.332 -0.32 0.32 -1.117 c -0.012 -0.941 -0.191 -1.426 -0.758 -2.035 l -0.48 -0.516 l -0.496 0.137 c -0.398 0.113 -0.48 0.164 -0.406 0.25 c 0.047 0.063 0.195 0.109 0.324 0.109 c 0.57 0.027 -0.422 0.637 -0.109 0.656 c 0.039 0 0.059 0.355 0.047 0.785 c -0.016 0.629 -0.055 0.84 -0.191 1.063 c -0.223 0.363 -0.945 1.023 -1.355 1.238 c -0.313 0.164 -0.32 0.176 -0.32 0.613 c 0 0.441 0.004 0.449 0.328 0.605 c 0.441 0.211 1.355 0.539 1.52 0.539 c 0.07 0.004 0.273 -0.102 0.449 -0.23 m -6.805 -0.938 c 0.195 -0.543 -0.973 -2.41 -1.609 -2.57 c -0.211 -0.055 -0.273 -0.023 -0.512 0.254 c -0.363 0.422 -0.398 0.617 -0.215 1.129 c 0.137 0.387 0.176 0.43 0.414 0.453 c 0.281 0.027 0.355 -0.105 0.168 -0.297 c -0.27 -0.27 0.766 0.055 1.059 0.336 c 0.16 0.148 0.184 0.23 0.141 0.488 c -0.055 0.309 -0.055 0.309 0.234 0.309 c 0.156 0 0.301 -0.043 0.32 -0.102 m 5.336 -3.141 c 0.047 -0.125 -0.422 -0.945 -0.543 -0.945 c -0.035 0 -0.047 0.141 -0.023 0.313 c 0.051 0.371 -0.02 0.445 -0.586 0.617 l -0.41 0.121 l 0.758 0.008 c 0.605 0.008 0.77 -0.016 0.805 -0.113 m -3.93 -1.527 c 0.418 -0.105 0.52 -0.285 0.297 -0.512 c -0.16 -0.156 -0.164 -0.156 -0.383 0.016 c -0.316 0.25 -0.652 0.227 -0.941 -0.063 c -0.129 -0.133 -0.238 -0.324 -0.238 -0.43 c 0 -0.145 0.023 -0.164 0.098 -0.086 c 0.141 0.141 0.469 0.121 0.527 -0.031 c 0.066 -0.168 -0.051 -0.277 -0.391 -0.363 c -0.152 -0.039 -0.355 -0.098 -0.457 -0.129 c -0.148 -0.043 -0.199 -0.012 -0.266 0.172 c -0.199 0.523 0.215 1.262 0.797 1.418 c 0.418 0.113 0.543 0.113 0.957 0.008 m 2.813 -0.598 l -0.004 -0.258 l -0.152 0.289 c -0.164 0.312 -0.141 0.477 0.047 0.324 c 0.063 -0.055 0.113 -0.215 0.109 -0.355 m 2.285 0.156 c 0.141 -0.074 0.297 -0.219 0.344 -0.328 c 0.117 -0.254 0.02 -0.758 -0.16 -0.852 c -0.184 -0.094 -0.664 0.043 -0.727 0.207 c -0.059 0.156 0.184 0.363 0.352 0.301 c 0.156 -0.063 0.145 0.133 -0.02 0.316 c -0.152 0.168 -0.445 0.191 -0.691 0.063 c -0.121 -0.066 -0.195 -0.063 -0.281 0.008 c -0.145 0.121 -0.152 0.375 -0.016 0.438 c 0.18 0.082 0.934 -0.012 1.199 -0.152 m -5.137 -0.332 c 0 -0.125 -0.219 -0.262 -0.293 -0.184 c -0.023 0.02 -0.016 0.098 0.012 0.172 c 0.066 0.172 0.281 0.18 0.281 0.012 m 1.988 -0.137 c 0.121 -0.195 0.008 -0.281 -0.156 -0.117 c -0.07 0.074 -0.184 0.133 -0.246 0.133 c -0.066 0 -0.117 0.039 -0.117 0.086 c 0 0.137 0.422 0.055 0.52 -0.102 m 2.344 -0.09 c -0.012 -0.098 -0.121 -0.078 -0.156 0.027 c -0.02 0.055 0.012 0.082 0.063 0.066 c 0.055 -0.02 0.098 -0.059 0.094 -0.094 m -3.762 -0.715 c -0.16 -0.25 -0.391 -0.48 -0.563 -0.57 c -0.383 -0.195 -1.152 -0.426 -1.152 -0.344 c 0 0.035 0.254 0.203 0.566 0.375 c 0.309 0.172 0.742 0.469 0.957 0.664 c 0.219 0.191 0.41 0.336 0.426 0.32 c 0.016 -0.016 -0.09 -0.219 -0.234 -0.445 m 0.926 -0.098 c 0.246 -0.391 -0.34 -0.91 -0.68 -0.605 c -0.211 0.195 -0.211 0.379 0.004 0.609 c 0.199 0.215 0.543 0.211 0.676 -0.004 m 1.883 -0.031 c 0.07 -0.07 0.129 -0.238 0.129 -0.371 c 0 -0.188 -0.051 -0.262 -0.207 -0.324 c -0.281 -0.105 -0.328 -0.102 -0.48 0.051 c -0.176 0.172 -0.16 0.379 0.039 0.594 c 0.195 0.211 0.348 0.227 0.52 0.051 m 1.355 -0.395 c 0.543 -0.258 0.52 -0.391 -0.215 -1.27 c -0.48 -0.578 -0.699 -0.773 -0.922 -0.836 c -0.43 -0.121 -0.488 -0.102 -0.203 0.074 c 0.313 0.191 0.609 0.559 0.555 0.695 c -0.02 0.055 0.02 0.238 0.086 0.402 c 0.156 0.375 0.156 0.711 0 0.918 c -0.063 0.086 -0.117 0.191 -0.117 0.227 c 0 0.098 0.383 -0.004 0.816 -0.211 m -8.863 -1.098 c -0.094 -0.328 -0.09 -0.699 0.004 -0.73 c 0.047 -0.012 0.156 0.094 0.246 0.238 c 0.297 0.477 0.398 0.355 0.473 -0.555 c 0.055 -0.652 0.043 -0.898 -0.055 -1.191 c -0.07 -0.203 -0.234 -0.828 -0.371 -1.383 c -0.262 -1.055 -0.723 -2.09 -1 -2.238 c -0.082 -0.043 -0.152 -0.07 -0.152 -0.059 c -0.031 0.684 -0.078 2.773 -0.074 3.598 c 0.004 1.285 0.121 1.828 0.496 2.258 c 0.313 0.359 0.523 0.387 0.434 0.063 m 2.789 -0.426 c 0.457 -0.32 0.563 -0.359 1.145 -0.41 l 0.641 -0.059 l -0.395 -0.066 c -0.219 -0.039 -0.621 -0.043 -0.895 -0.016 c -0.418 0.043 -0.547 0.098 -0.789 0.328 c -0.336 0.324 -0.578 0.461 -0.813 0.461 c -0.211 0 -0.215 -0.125 -0.004 -0.531 c 0.23 -0.461 0.199 -0.746 -0.168 -1.398 c -0.176 -0.316 -0.32 -0.555 -0.32 -0.531 c 0 0.02 0.07 0.273 0.16 0.559 c 0.176 0.559 0.203 1.172 0.086 1.695 c -0.043 0.176 -0.063 0.344 -0.047 0.371 c 0.02 0.031 0.227 0.031 0.465 0.004 c 0.336 -0.039 0.551 -0.129 0.934 -0.406 m 7.391 -0.273 c 0.422 -0.656 0.391 -1.086 -0.148 -2.238 c -0.234 -0.496 -0.484 -1.117 -0.559 -1.375 c -0.07 -0.262 -0.172 -0.473 -0.219 -0.473 c -0.141 0 -0.016 1.086 0.219 1.93 c 0.242 0.871 0.254 1.152 0.07 1.73 c -0.125 0.406 -0.125 0.449 0.004 0.645 c 0.199 0.309 0.328 0.266 0.633 -0.219" fill="#141819"/><path d="m 21.785 12.836 c -0.105 -0.145 -0.109 -0.293 -0.016 -0.742 c 0.16 -0.766 0.148 -1.055 -0.082 -2.121 c -0.109 -0.508 -0.23 -1.23 -0.262 -1.602 l -0.059 -0.676 l 0.781 1.852 c 0.855 2.039 0.645 2.01 0.277 2.781 c -0.316 0.668 -0.441 0.766 -0.641 0.508" fill="#eea495"/></svg>