<svg xmlns="http://www.w3.org/2000/svg" viewBox="0 0 32 32"><path d="m 29.555 8.941 c -23.703 -28.992 -46.5 25.648 -9.836 22.418 c 8.04 -0.707 16.227 -14.605 9.836 -22.418" fill="#958d77"/><g transform="matrix(0.10735 0 0 0.10841 2.649 2.222)"><path d="m 74.78 208.52 c 0.582 -22.916 -0.4 -55.31 -0.4 -85.07 c 0 -64.14 0.146 -75.16 1.019 -75.847 c 0.764 -0.613 8.66 -0.757 30.966 -0.577 c 32.822 0.252 32.785 0.252 42.03 4.684 c 5.422 2.594 14.264 8.251 18.12 11.602 c 4.367 3.819 9.279 10.954 11.353 16.431 c 4.257 15.1 1.747 34.807 1.747 50.841 v 46.12 l -1.747 4.72 c -3.639 9.693 -12.481 19.17 -22.09 23.673 c -9.461 4.432 -11.498 4.648 -40.572 4.864 c -14.373 0.108 -30.784 -1.73 -40.43 -1.441" fill="#c0b79c" stroke="#c0b79c"/><g fill="#636053" stroke="#636053" stroke-width="1.114"><path d="m 86.17 97.69 c -0.546 -0.865 1.164 -33.726 1.856 -35.564 c 0.509 -1.369 1.346 -1.585 7.278 -2.054 c 11.1 -0.829 10.189 -1.621 10.662 9.801 c 0.4 10.774 0.801 11.782 4.694 12.503 c 1.346 0.252 -0.509 -1.477 7.751 1.766 c 6.877 2.702 -4.33 8.936 -8.296 12.539 c -4 0.793 -16.629 0.144 -20.887 1.045 c -1.456 0.324 -2.838 0.324 -3.057 -0.036"/><path d="m 128.7 122.19 c -3.712 -3.03 -0.691 -5.837 -5.895 -11.494 c -1.383 -1.153 -1.856 -6.234 -0.582 -11.06 c 1.601 -5.909 2.984 -9.188 10.225 -17.836 c 9.388 -11.17 11.28 -10.485 12.554 -8.684 c 3.129 3.927 7.787 5.801 10.407 10.05 c -4.949 6.666 -9.643 10.99 -15.792 17.259 c 2.329 5.153 5.131 10.161 7.168 15.422 c 0 0.288 3.712 5.837 2.802 5.837 c -7.933 -0.324 -17.43 3.531 -20.887 0.504"/><path d="m 132.27 136.42 c -2.038 0 -3.202 -9.512 -2.911 -10.702 c 0.218 -0.793 -2 -3.927 -1.674 -3.711 c 7.096 -8.251 7.096 -4.432 19.322 -3.891 l 9.715 -0.54 c 9.897 -0.577 13.06 0.108 13.973 0.865 c 0.982 0.793 1.201 2.414 1.201 9.08 v 8.143 l -11.79 0.216 c -11.171 0.216 -12.881 -0.324 -13.536 1.874 l -4.439 14.521 c -3.639 -4.216 -4.585 -15.674 -9.861 -15.854"/><path d="m 137.76 181.5 c -1.929 -1.585 -4.294 -3.531 -5.276 -4.288 l -1.747 -1.369 l 2.729 -2.234 c 1.528 -1.261 4.621 -4.612 6.877 -7.459 l 4.112 -5.153 l 5.094 5.117 c 2.838 2.847 5.131 5.693 5.131 6.342 c 0 1.189 -9.1 9.729 -11.899 11.206 c -1.274 0.649 -2 0.324 -5.02 -2.162"/><path d="m 86.2 194.76 c -0.291 -3.03 -0.291 -12.07 0 -20.07 l 0.509 -14.557 l 3.675 -0.036 c 10.152 -0.036 17.575 -2.594 26.563 -9.188 l 4.221 -3.135 l 5.822 6.99 c 6.477 7.783 -11.244 16.899 -18.558 20.718 c -3.857 1.982 -2.147 0.288 -2.511 2.666 c 0.837 10.954 -0.655 14.989 -0.655 22.12 c -5.458 0 -13.1 0 -18.558 0"/></g></g><g stroke-width="0.961" transform="scale(0.125)"><path d="m 112.34 126.13 c -6.625 -8.094 -7.125 -9.09 -6.781 -13.188 c 0.438 -4.938 3.125 -9.406 9.688 -16 c 5.03 -5.063 14.625 -12.09 23.469 -17.16 c 8.594 -4.938 8.719 -4.125 0.656 4.313 c -11.125 11.594 -14.313 17.469 -14.438 26.469 c -0.094 6.06 0.406 7.406 4.406 11.969 c 1.375 1.594 4.03 5.5 4.03 5.844 c 0 1.813 -8.156 4.063 -13.625 4.063 c -2.594 0 -3.969 -2.063 -7.406 -6.313" fill="#51bb17" stroke="#51bb17"/><path d="m 139.69 137.09 c 6.594 8.125 7.125 9.125 6.75 13.219 c -0.406 4.938 -3.125 9.375 -9.656 15.969 c -5.03 5.094 -14.625 12.09 -23.5 17.188 c -8.594 4.938 -8.719 4.125 -0.625 -4.344 c 11.09 -11.594 14.281 -17.438 14.438 -26.469 c 0.063 -6.03 -0.438 -7.406 -4.406 -11.969 c -1.375 -1.594 -3.656 -5.844 -3.656 -6.188 c 0 -1.844 8.156 -4.875 13.594 -4.875 c 2.625 0 3.625 3.25 7.06 7.469" fill="#dcdcdc" stroke="#dcdcdc"/></g></svg>