<svg xmlns="http://www.w3.org/2000/svg" viewBox="0 0 32 32"><path d="m 6.848 28.707 c 23.68 15.773 38.27 -34.516 7.652 -27.859 c -12.652 2.836 -20.332 20.629 -7.652 27.859" fill="#c0c0c0"/><g fill="#f4f4f4"><path d="m 23.684 24.621 v -0.367 h -0.699 v -0.73 h 1.398 v -0.734 h 0.695 v -0.773 h -1.395 v -0.691 h 1.395 v -0.73 h 0.699 v -1.508 h 0.699 v -1.508 h -2.094 v 0.773 h -2.055 v -0.773 h -4.887 v 1.508 h 0.695 v 1.465 h -0.695 v -0.734 h -0.656 v -2.238 h -4.891 v 2.238 h -0.652 v -2.238 h -4.891 v 2.238 h -0.656 v -5.172 h 0.656 v 2.242 h 4.891 v -2.242 h 0.652 v 2.242 h 4.891 v -2.242 h 0.656 v -0.73 h 0.695 v 1.465 h -0.695 v 1.508 h 4.887 v -0.734 h 2.055 v 0.734 h 2.094 v -1.508 h -0.699 v -1.465 h -0.699 v -0.734 h -1.395 v -0.73 h 1.395 v -0.777 h -0.695 v -0.73 h -1.398 v -0.691 h 0.699 v -0.773 h 0.699 v 0.773 h 0.695 v 0.734 h 0.656 v 1.465 h 0.699 v 2.195 h 0.699 v 5.172 h -0.699 v 2.199 h -0.699 v 1.508 h -0.656 v 0.73 h -0.695 v 0.734 h -0.699"/><path d="m 12.637 12.492 v -0.734 h 0.699 v 0.734 h 1.352 v 0.73 h -2.051"/><path d="m 16.13 7.664 v -1.121 h -2.094 v -0.688 h 4.844 v 0.688 h -2.094 v 2.242 h -0.656"/><path d="m 16.828 10.617 v -0.367 h -1.395 v -0.734 h 1.395 v -0.73 h 4.805 v 0.73 h -4.148 v 1.469 h -0.656"/><path d="m 18.879 6.953 v -0.367 h 2.055 v 0.734 h -2.055"/><path d="m 20.977 7.688 v -0.367 h 1.352 v 0.73 h -1.352"/><path d="m 22.371 8.418 v -0.367 h 0.656 v 0.734 h -0.656"/><path d="m 23.03 9.152 v -0.367 h 0.699 v 0.73 h -0.699"/><path d="m 21.676 9.883 v -0.367 h 1.352 v 0.734 h -1.352"/><path d="m 14.04 10.637 v -0.344 h 1.352 v 0.688 h -1.352"/><path d="m 13.336 11.371 v -0.348 h 0.699 v 0.691 h -0.699"/><path d="m 11.941 11.371 v -0.348 h 0.695 v 0.691 h -0.695"/><path d="m 11.285 10.637 v -0.344 h 0.656 v 0.688 h -0.656"/><path d="m 10.586 9.883 v -0.367 h 0.656 v 0.734 h -0.656"/><path d="m 9.188 9.152 v -0.367 h 0.699 v -0.734 h 0.656 v 1.465 h -1.355"/><path d="m 10.586 7.688 v -0.367 h 1.355 v 0.73 h -1.355"/><path d="m 11.941 6.953 v -0.367 h 2.094 v 0.734 h -2.094"/><path d="m 8.492 9.883 v -0.367 h 0.652 v 0.734 h -0.652"/><path d="m 7.793 10.637 v -0.344 h 0.699 v 0.688 h -0.699"/><path d="m 7.094 11.758 v -0.73 h 0.699 v 1.465 h -0.699"/><path d="m 6.395 13.59 v -1.098 h 0.699 v 2.195 h -0.699"/><path d="m 11.941 13.957 v -0.734 h 0.695 v 1.465 h -0.695"/><path d="m 15.43 14.324 v -0.367 h 1.355 v 0.73 h -1.355"/><path d="m 14.734 13.59 v -0.367 h 0.652 v 0.734 h -0.652"/><path d="m 17.484 11.758 v -0.73 h 0.699 v 1.465 h -0.699"/><path d="m 18.18 13.223 v -0.73 h 2.051 v 0.73 h -0.656 v 0.734 h -1.395"/><path d="m 19.578 14.324 v -0.367 h 0.656 v 0.73 h -0.656"/><path d="m 20.277 15.05 v -0.367 h 0.656 v 0.734 h -0.656"/><path d="m 20.977 15.809 v -0.344 h 1.352 v 0.688 h -1.352"/><path d="m 20.277 12.13 v -0.367 h 3.449 v 0.734 h -3.449"/><path d="m 18.18 21.348 v -0.711 h 1.395 v 0.73 h 0.656 v 0.691 h -2.051"/><path d="m 19.578 20.227 v -0.367 h 0.656 v 0.73 h -0.656"/><path d="m 20.277 19.492 v -0.367 h 0.656 v 0.734 h -0.656"/><path d="m 20.977 18.762 v -0.367 h 1.352 v 0.73 h -1.352"/><path d="m 20.277 22.445 v -0.344 h 3.449 v 0.688 h -3.449"/><path d="m 16.828 25.395 v -0.363 h -1.395 v -0.734 h 1.395 v -0.73 h 0.656 v 1.465 h 4.145 v 0.73 h -4.801"/><path d="m 14.04 28.371 v -0.367 h 2.094 v -2.199 h 0.656 v 2.199 h 2.094 v 0.73 h -4.844"/><path d="m 11.941 27.617 v -0.344 h 2.094 v 0.688 h -2.094"/><path d="m 12.637 22.08 v -0.711 h 2.051 v 0.691 h -1.352 v 0.73 h -0.699"/><path d="m 11.941 20.59 v -0.73 h 0.695 v 1.465 h -0.695"/><path d="m 14.734 20.98 v -0.344 h 0.652 v 0.688 h -0.652"/><path d="m 15.43 20.227 v -0.367 h 1.355 v 0.73 h -1.355"/><path d="m 6.395 20.957 v -1.098 h 0.699 v 2.195 h -0.699"/><path d="m 7.094 22.832 v -0.73 h 0.699 v 1.465 h -0.699"/><path d="m 7.793 23.93 v -0.363 h 0.699 v 0.73 h -0.699"/><path d="m 8.492 24.664 v -0.367 h 0.652 v 0.734 h -0.652"/><path d="m 9.887 26.13 v -0.367 h -0.699 v -0.73 h 1.355 v 1.465 h -0.656"/><path d="m 10.586 24.664 v -0.367 h 0.656 v 0.734 h -0.656"/><path d="m 11.285 23.93 v -0.363 h 0.656 v 0.73 h -0.656"/><path d="m 11.941 23.2 v -0.367 h 0.695 v 0.734 h -0.695"/><path d="m 13.336 23.2 v -0.367 h 0.699 v 0.734 h -0.699"/><path d="m 14.04 23.93 v -0.363 h 1.352 v 0.73 h -1.352"/><path d="m 17.484 22.832 v -0.73 h 0.699 v 1.465 h -0.699"/><path d="m 21.676 24.664 v -0.367 h 1.352 v 0.734 h -1.352"/><path d="m 23.03 25.395 v -0.363 h 0.699 v 0.73 h -0.699"/><path d="m 22.371 26.15 v -0.344 h 0.656 v 0.691 h -0.656"/><path d="m 20.977 26.883 v -0.344 h 1.352 v 0.688 h -1.352"/><path d="m 18.879 27.617 v -0.344 h 2.055 v 0.688 h -2.055"/><path d="m 10.586 26.883 v -0.344 h 1.355 v 0.688 h -1.355"/></g></svg>