<svg xmlns="http://www.w3.org/2000/svg" viewBox="0 0 32 32"><path d="m 1.035 20.398 c -5.973 -16.676 15.5 -24.785 23.566 -17.996 c 8.07 6.789 10.82 18.422 1.684 24.277 c -9.137 5.852 -19.273 10.395 -25.25 -6.285" fill="#a69069"/><g fill="none" stroke="#4a3e36" stroke-linecap="round" stroke-width="10" transform="matrix(0.03678 -0.04364 0.02313 0.02081 3.866 6.129)"><path d="m -163.6 496.78 l -44.05 -73.995"/><path d="m -163.63 504.42 l -44 73.855"/></g><path d="m 9.203 23.461 l 10.891 -12.922 l 0.5 0.445 l -10.895 12.926" fill="#4a3e36" fill-rule="evenodd"/><g stroke-linecap="round"><g fill="none" stroke="#4a3e36" stroke-width="10"><g transform="matrix(0.03678 -0.04364 0.02313 0.02081 5.618 4.051)"><path d="m -163.62 496.73 l -44.01 -73.899"/><path d="m -163.65 504.37 l -43.958 73.951"/></g><g transform="matrix(0.03678 -0.04364 0.02313 0.02081 4.742 5.09)"><path d="m -163.61 496.76 l -44.05 -73.995"/><path d="m -163.64 504.4 l -43.958 73.951"/></g><g transform="matrix(0.03678 -0.04364 0.02313 0.02081 6.494 3.01)"><path d="m -163.64 496.73 l -43.957 -73.98"/><path d="m -163.62 504.29 l -44.01 74.03"/></g></g><path d="m 202.05 400.54 l 362.86 -0.009 l 23.857 94.2 l -23.842 94.45 l -362.86 0.009 c 0 0 23.845 -63 23.842 -94.45 c -0.002 -31.441 -23.857 -94.2 -23.857 -94.2" transform="matrix(0.02389 -0.02772 0.02733 0.02423 -2.809 10.4)" fill="#ebf4df" stroke="#000" stroke-linejoin="round" stroke-width="5"/></g><g stroke="#000"><path d="m 152.22 422.41 l 190.52 119.83 l 167.26 -74.33" transform="matrix(0.02036 -0.03048 0.03005 0.02065 -2.809 10.4)" fill="none" stroke-width="2"/><path d="m 12.07 432.37 c 0.825 6.339 -4.172 12.07 -11.254 12.867 c -7.03 0.751 -13.486 -3.757 -14.359 -10.1 c -0.825 -6.339 4.172 -12.12 11.254 -12.867 c 7.082 -0.798 13.486 3.71 14.359 10.1" transform="matrix(0.08052 0 0 0.08319 20.407 -25.18)" fill="#ff000a" stroke-linejoin="round" stroke-linecap="round" stroke-width="3.052"/></g></svg>