<svg xmlns="http://www.w3.org/2000/svg" viewBox="0 0 32 32"><path d="m 30.527 23.566 c -6.297 15.12 -30.688 8.375 -30.527 -8.09 c -0.242 -14.969 19.15 -20.645 27.648 -9.984 c 4.25 4.613 5.734 12.25 2.879 18.08" fill="#f2b105"/><g stroke="#fff" stroke-linecap="round"><g fill="none" stroke-width="35" transform="matrix(-0.01334 -0.02373 0.0231 -0.0137 3.715 0.155)"><path d="m -427.73 -63.98 c 64.34 111.55 64.28 248.83 -0.084 360.31"/><path d="m -472.54 -20.01 c 43.626 85.56 43.6 186.84 -0.04 272.4"/><path d="m -520.44 18.456 c 27.673 62.14 27.666 133.16 -0.063 195.45"/></g><g transform="matrix(0.02667 0 0 0.0274 3.715 0.155)"><path d="m 580.08 420.38 l -114.38 98.81 h -108.23 v 127.33 h 106.61 l 115.99 100.38" fill="#c8c8c8" fill-rule="evenodd" stroke-linejoin="round" stroke-width="33.33"/><g fill="none" stroke-width="35"><path d="m 780.72 405.55 c 64.44 111.36 64.44 248.81 0 360.17"/><path d="m 736.05 449.47 c 43.642 85.55 43.642 186.78 0 272.33"/><path d="m 688.16 487.97 c 27.679 62.17 27.679 133.17 0 195.34"/></g></g><g fill="none" stroke-width="35" transform="matrix(-0.01334 0.02373 -0.0231 -0.0137 3.715 0.155)"><path d="m 582.98 -875.85 c 64.36 111.48 64.43 248.76 0.084 360.31"/><path d="m 538.21 -831.91 c 43.64 85.57 43.665 186.85 0.04 272.4"/><path d="m 490.3 -793.43 c 27.852 62.21 27.859 133.23 0.063 195.45"/></g></g></svg>