<svg xmlns="http://www.w3.org/2000/svg" viewBox="0 0 32 32" xmlns:xlink="http://www.w3.org/1999/xlink"><path d="m 29.25 6.703 c -6.066 -11.02 -25.08 -6.742 -28.29 2.328 c -3.832 10.809 6.141 31.33 23.04 19.309 c 5.691 -4.199 11.328 -10.621 5.258 -21.637" fill="#546a2f"/><g fill-rule="evenodd" stroke="#000" stroke-width="0.576" transform="scale(0.125)"><path d="m 59.719 155.47 v -11.844 h 4.563 v 23.688 h -4.563"/><path d="m 64.28 169.84 v -2 h 4.531 v 4.03 h -4.531"/><path d="m 73.34 174.63 v -2.25 h 4.531 v 4.531 h -4.531"/><path d="m 77.875 169.84 v -2 h 4.563 v 4.03 h -4.563"/><path d="m 82.41 165.06 v -2.281 h 4.563 v 4.563 h -4.563"/><path d="m 91.5 145.88 v -2.25 h 9.06 v 4.531 h -9.06"/><path d="m 100.59 141.34 v -2.25 h 4.531 v 4.531 h -4.531"/><path d="m 105.13 134.03 v -4.531 h 4.531 v 9.09 h -4.531"/><path d="m 100.59 127.22 v -2.25 h 4.531 v 4.531 h -4.531"/><path d="m 82.41 134.03 v -4.531 h -4.531 v -4.531 h 4.531 v -5.063 h 4.563 v 18.656 h -4.563"/><path d="m 86.969 117.66 v -2.281 h 4.531 v 4.531 h -4.531"/><path d="m 91.5 112.63 v -2.281 h 4.531 v 4.531 h -4.531"/><path d="m 96.03 105.53 v -4.781 h 4.563 v 9.594 h -4.563"/><path d="m 86.969 91.16 v -4.531 h 4.531 v 9.09 h -4.531"/><path d="m 82.41 98.47 v -2.25 h 4.563 v 4.531 h -4.563"/><path d="m 77.875 103.03 v -2.281 h 4.563 v 4.531 h -4.563"/><path d="m 73.34 98.47 v -2.25 h 4.531 v 4.531 h -4.531"/><path d="m 82.41 84.38 v -2.281 h 4.563 v 4.531 h -4.563"/><path d="m 68.813 79.31 v -2.25 h 13.625 v 4.531 h -13.625"/><path d="m 64.28 84.38 v -2.281 h 4.531 v 4.531 h -4.531"/><path d="m 59.719 95.97 v -9.344 h 4.563 v 18.656 h -4.563"/><path d="m 100.59 74.53 v -21.19 h 9.06 v 4.531 h 4.531 v 5.063 h 4.563 v 4.531 h 31.25 v 4.531 h -18.16 v 5.063 h -8.563 v 4.531 h -4.563 v -9.563 h -4.531 v -4.563 h -4.531 v -5.03 h -4.531 v 33.28 h -4.563 v -21.19"/><path d="m 150.5 74.78 v -2.281 h 4.063 v 4.563 h -4.063"/><path d="m 159.59 79.31 v -2.25 h 4.03 v 4.531 h -4.03"/><path d="m 164.13 84.38 v -2.281 h 22.22 v 4.531 h -22.22"/><path d="m 173.22 74.78 v -2.281 h 4.03 v 4.563 h -4.03"/><path d="m 172.84 69.75 c 0 -1.406 0.094 -1.906 0.219 -1.125 c 0.125 0.75 0.125 1.875 0 2.5 c -0.125 0.625 -0.219 0 -0.219 -1.375"/><path d="m 164.13 65.19 v -2.25 h 4.03 v 4.531 h -4.03"/><path d="m 168.66 60.16 v -2.281 h 17.656 v 4.531 h -17.656"/><path d="m 186.81 65.19 v -2.25 h 4.063 v 4.531 h -4.063"/><path d="m 191.38 72.25 v -4.781 h 4.03 v 9.594 h -4.03"/><path d="m 186.81 79.31 v -2.25 h 4.063 v 4.531 h -4.063"/></g><path d="m 164.13 141.34 v -25.969 h 4.03 v 51.938 h -4.03" transform="scale(0.125)" fill-rule="evenodd" stroke="#000" stroke-width="0.576" id="0"/><use xlink:href="#0"/><g fill-rule="evenodd" stroke-width="0.576" transform="scale(0.125)"><g stroke="#000"><path d="m 159.59 179.19 v -2.281 h 4.03 v 4.531 h -4.03"/><path d="m 155.06 184.22 v -2.281 h 4.03 v 4.563 h -4.03"/><path d="m 150.5 188.75 v -2.25 h 4.063 v 4.531 h -4.063"/><path d="m 145.97 193.81 v -2.281 h 4.03 v 4.531 h -4.03"/><path d="m 141.44 198.34 v -2.281 h 4.03 v 4.563 h -4.03"/><path d="m 132.34 203.38 v -2.25 h 8.594 v 4.531 h -8.594"/><path d="m 109.66 198.59 v -7.06 h 4.531 v 14.13 h -4.531"/><path d="m 114.19 174.63 v -11.844 h 4.563 v 23.719 h -4.563"/></g><path d="m 114.69 196.06 v -4.531 h 3.906 l 0.313 -3.406 c 0.188 -1.875 0.313 -8.344 0.344 -14.375 v -10.969 h 4.03 v -47.41 h 4.531 v -5.03 h 8.594 v 5.03 h 5.03 v -5.03 h 4.531 v -4.563 h 4.563 v -5.03 h 4.03 v 5.03 h 4.531 v 9.594 h 4.531 v 47.41 h -4.531 v 14.13 h -4.531 v 9.06 h -4.531 v 5.063 h -4.563 v 4.438 l -4.531 0.344 l -4.531 0.375 v 4.406 h -21.688 v -4.531" fill="#00ba00" stroke="#00ba00"/><g fill="#005d00" stroke="#005d00"><path d="m 119.06 162.44 c -0.188 -0.188 -0.344 -10.844 -0.344 -23.688 v -23.375 h 3.531 v 47.41 h -1.406 c -0.781 0 -1.594 -0.156 -1.781 -0.344"/><path d="m 114.19 189.16 c 0 -2.125 0.031 -2.156 1.781 -2.156 c 1.719 0 1.75 0.063 1.75 1.969 c 0 1.844 -0.063 1.969 -1.75 2.156 l -1.781 0.188"/><path d="m 114.69 203.63 v -2 h 12.625 v 4.03 h -12.625"/><path d="m 136.88 198.91 c 0 -1.625 0.125 -1.719 2.031 -1.906 l 2.031 -0.188 v 1.906 c 0 1.875 -0.031 1.906 -2.031 1.906 c -1.969 0 -2.031 -0.063 -2.031 -1.719"/><path d="m 155.06 179.69 c 0 -1.719 0.031 -1.781 2 -1.781 c 1.969 0 2.031 0.063 2.031 1.781 c 0 1.719 -0.063 1.75 -2.031 1.75 c -1.969 0 -2 -0.031 -2 -1.75"/><path d="m 159.59 172.13 v -4.281 h 4.03 v 8.563 h -4.03"/><path d="m 159.59 165.56 c 0 -1.719 0.031 -1.781 2.031 -1.781 c 1.969 0 2 0.063 2 1.781 c 0 1.719 -0.031 1.75 -2 1.75 c -1.969 0 -2.031 -0.031 -2.031 -1.75"/><path d="m 159.59 112.63 v -2.281 h 4.03 v 4.531 h -4.03"/></g><g fill="#396" stroke="#396"><path d="m 123.28 96.22 v -14.12 h 13.13 v 4.531 h 4.531 v 4.531 h -4.531 v 5.063 h 4.531 v 9.06 h -8.594 v -4.531 h -5.03 v 9.594 h -4.03"/><path d="m 141.44 93.44 v -2.281 h 4.03 v 4.563 h -4.03"/></g><path d="m 118.75 96.22 v -14.12 h 4.03 v 28.25 h -4.03" fill="#194c33" stroke="#194c33"/></g><path d="m 127.81 103.28 c 0 -2.031 0 -2.031 2.031 -2.031 c 2 0 2 0 2 2.031 c 0 2.031 0 2.031 -2 2.031 c -2.031 0 -2.031 0 -2.031 -2.031" transform="scale(0.125)" fill="#194c33" fill-rule="evenodd" stroke="#194c33" stroke-width="0.576" id="1"/><g fill-rule="evenodd" transform="scale(0.125)"><g stroke-width="0.576"><g fill="#194c33" stroke="#194c33"><path d="m 136.88 93.69 c 0 -2.031 0 -2.031 2.031 -2.031 c 2.031 0 2.031 0 2.031 2.031 c 0 2.031 0 2.031 -2.031 2.031 c -2.031 0 -2.031 0 -2.031 -2.031"/><path d="m 141.44 100.75 v -4.531 h 4.03 v 9.06 h -4.03"/><path d="m 145.97 93.44 v -2.281 h 4.03 v 4.563 h -4.03"/></g><g fill="#002f00" stroke="#002f00"><path d="m 136.88 112.63 c 0 -2.281 0.031 -2.281 1.781 -2.281 c 1.75 0 1.75 0 1.75 2.281 c 0 2.25 0 2.25 -1.75 2.25 c -1.75 0 -1.781 0 -1.781 -2.25"/><path d="m 127.81 108.06 v -2.25 h 8.563 v 4.531 h -8.563"/><path d="m 123.28 112.88 c 0 -1.969 0.031 -2.031 1.75 -2.031 c 1.75 0 1.781 0.031 1.781 2.031 c 0 1.969 -0.031 2 -1.781 2 c -1.719 0 -1.75 -0.031 -1.75 -2"/></g></g><path d="m 117.78 113 c 0 -1.063 1.469 -1.5 3.25 -0.969 c 1.781 0.531 1.781 1.406 0 1.938 c -1.781 0.531 -3.25 0.094 -3.25 -0.969" fill="#002f00" stroke="#002f00" stroke-width="2.262"/></g><use xlink:href="#1"/><g fill-rule="evenodd" transform="scale(0.125)"><g stroke-width="0.576"><path d="m 150.16 93.44 c 0 -1.375 0.094 -1.906 0.219 -1.125 c 0.094 0.781 0.094 1.906 0 2.531 c -0.125 0.625 -0.219 -0.031 -0.219 -1.406" fill="#194c33" stroke="#194c33"/><g fill="#26724c" stroke="#26724c"><path d="m 141.44 88.66 c 0 -2.031 0 -2.031 2 -2.031 c 2.031 0 2.031 0 2.031 2.031 c 0 2 0 2 -2.031 2 c -2 0 -2 0 -2 -2"/><path d="m 136.88 84.13 c 0 -2.031 0 -2.031 2.031 -2.031 c 2.031 0 2.031 0 2.031 2.031 c 0 2 0 2 -2.031 2 c -2.031 0 -2.031 0 -2.031 -2"/><path d="m 150 98.47 v -2.313 l 2.156 0.156 c 2.125 0.156 2.125 0.156 2.125 2.156 c 0 2.031 0 2.031 -2.125 2.188 l -2.156 0.156"/></g></g><g fill="#26724c" stroke="#26724c" stroke-width="0.746"><path d="m 146.03 100.91 v -4.656 l 1.781 0.313 c 1.813 0.313 1.813 0.313 1.813 4.344 c 0 4.063 0 4.063 -1.813 4.375 l -1.781 0.313"/><path d="m 141.63 106.16 h 4.656 l -0.313 1.781 c -0.313 1.781 -0.313 1.813 -4.344 1.813 c -4.063 0 -4.063 -0.031 -4.375 -1.813 l -0.313 -1.781"/></g></g></svg>