<svg xmlns="http://www.w3.org/2000/svg" viewBox="0 0 32 32"><defs><clipPath id="6"><path d="m 15 18 h 7 v 4 h -7"/></clipPath><clipPath id="5"><path d="m 4 20 h 18 v 3 h -18"/></clipPath><clipPath id="3"><path d="m 26.391 16 c 0 6.414 -4.801 11.609 -10.719 11.609 c -5.918 0 -10.723 -5.195 -10.723 -11.609 c 0 -6.414 4.805 -11.613 10.723 -11.613 c 5.918 0 10.719 5.199 10.719 11.613"/></clipPath><clipPath id="4"><path d="m 10 9 h 17 v 3 h -17"/></clipPath><clipPath id="7"><path d="m 10 10 h 6 v 4 h -6"/></clipPath><clipPath id="2"><path d="m 12 12 h 7 v 8 h -7"/></clipPath><linearGradient id="0" gradientUnits="userSpaceOnUse" x1="394.57" x2="421.57" gradientTransform="matrix(0.6969 0 0 0.75485 -268.78 -379.73)"><stop stop-color="#4accc7"/><stop offset="1" stop-color="#7cd9d6"/></linearGradient><linearGradient id="1" gradientUnits="userSpaceOnUse" x1="396.57" x2="420.57" gradientTransform="matrix(0.6969 0 0 0.75485 -268.78 -379.73)"><stop stop-color="#00959d"/><stop offset="1" stop-color="#00c6d1"/></linearGradient></defs><path d="m 28.28 5.84 c 7.785 11.969 1.504 22.875 -7.309 25.461 c -11.855 3.48 -27.949 -5.664 -17.344 -24.512 c 4.215 -7.492 19.11 -9.473 24.652 -0.949" fill="#2f4e4e"/><path d="m 15.949 5.969 c -4.859 0 -8.797 4.266 -8.797 9.527 c 0.004 0.652 0.07 1.301 0.195 1.938 c 0.18 -3.734 3.02 -6.664 6.477 -6.668 c 3.586 0 6.492 3.148 6.492 7.03 c -0.004 1.316 -0.348 2.605 -0.992 3.719 c 1.031 0.109 2.355 0.082 3.617 -0.254 c 1.168 -1.656 1.801 -3.68 1.801 -5.766 c 0 -5.262 -3.938 -9.527 -8.793 -9.527" fill="url(#0)"/><path d="m 9.426 14.703 c -0.781 1.105 -1.207 2.414 -1.211 3.727 c 0 1.813 0.824 3.613 2.242 4.895 c 1.418 1.281 3.406 2.023 5.41 2.023 c 1.223 0 2.441 -0.27 3.527 -0.781 c 1.086 -0.508 2.027 -1.258 2.73 -2.16 c -1.223 0.156 -2.496 -0.035 -3.605 -0.539 c -1.109 -0.508 -2.047 -1.324 -2.66 -2.32 c -0.789 -1.047 -1.188 -2.34 -1.113 -3.613 c 0.074 -1.273 0.621 -2.52 1.527 -3.48 c -3.02 -0.676 -5.227 0.141 -6.848 2.25" fill="url(#1)"/><g clip-path="url(#2)"><g clip-path="url(#3)"><path d="m 12.875 12.973 v 6.06 h 5.594 v -6.06 m -4.195 1.516 h 2.797 v 3.03 h -2.797" fill="#edf4d6"/></g></g><g clip-path="url(#4)"><g clip-path="url(#3)"><path d="m 10.08 9.945 v 1.516 h 16.777 v -1.516" fill="#edf4d6"/></g></g><g clip-path="url(#5)"><g clip-path="url(#3)"><path d="m 4.484 20.547 v 1.516 h 16.781 v -1.516" fill="#edf4d6"/></g></g><g clip-path="url(#6)"><g clip-path="url(#3)"><path d="m 18.469 19.03 l 2.797 1.516 v 0.504 h -2.797 v -0.504 l -2.797 -1.516 v -0.504 h 2.797" fill="#edf4d6"/></g></g><g clip-path="url(#7)"><g clip-path="url(#3)"><path d="m 12.875 11.461 l 2.797 1.512 v 0.508 h -2.797 v -0.508 l -2.797 -1.512 v -0.504 h 2.797" fill="#edf4d6"/></g></g></svg>