<svg xmlns="http://www.w3.org/2000/svg" viewBox="0 0 32 32"><path d="m 2.641 25.406 c 6.117 11.06 25.289 6.77 28.535 -2.34 c 3.863 -10.855 -6.195 -31.465 -23.23 -19.391 c -5.742 4.215 -11.422 10.664 -5.301 21.73" fill="#6395ec"/><path d="m 25.5 15.867 c 0 4.859 -4.07 8.797 -9.09 8.797 c -5.02 0 -9.09 -3.938 -9.09 -8.797 c 0 -4.859 4.066 -8.797 9.09 -8.797 c 5.02 0 9.09 3.937 9.09 8.797" fill="#03c8fb"/><path d="m 202.8 122.33 c 0 13.459 -10.913 24.373 -24.372 24.373 c -13.459 0 -24.372 -10.913 -24.372 -24.373 c 0 -13.459 10.913 -24.373 24.372 -24.373 c 13.459 0 24.372 10.913 24.372 24.373" transform="matrix(0.14425 0 0 0.1396 -9.327 -1.209)" fill="#0070e4" stroke="#fff" stroke-width="1.229"/><g fill="#fff"><path d="m 18.961 15.867 c 0 1.363 -1.141 2.469 -2.551 2.469 c -1.41 0 -2.555 -1.105 -2.555 -2.469 c 0 -1.363 1.145 -2.473 2.555 -2.473 c 1.41 0 2.551 1.109 2.551 2.473"/><path d="m 64.01 13.268 c 28.02 0 50.711 22.717 50.711 50.738 c 0 28.02 -22.712 50.716 -50.711 50.716" transform="matrix(0.17732 0 0 0.17161 5.06 4.883)" stroke="#ef8614" stroke-linejoin="round" stroke-linecap="square" stroke-width="1.412"/></g><g fill="#ef8614" stroke="#fff" stroke-linejoin="round" stroke-width="2.052"><path d="m 64.01 59.807 c -1.913 0.005 -3.59 1.256 -4.089 3.113 c -0.483 1.829 0.337 3.782 1.986 4.697 l 44.37 25.616 c 2.01 1.158 4.567 0.491 5.72 -1.506 c 4.853 -8.405 7.468 -18.03 7.453 -27.726 c -0.006 -1.113 -0.456 -2.187 -1.229 -2.965 c -0.801 -0.795 -1.855 -1.219 -2.958 -1.227" transform="matrix(0.06098 0.10228 -0.10562 0.05905 19.769 7.358)"/><path d="m 64.01 59.818 c -1.894 -0.014 -3.565 1.256 -4.069 3.075 c -0.487 1.847 0.305 3.796 1.964 4.747 l 44.38 25.627 c 1.991 1.142 4.557 0.462 5.726 -1.549 c 4.853 -8.378 7.433 -18 7.405 -27.724 c 0.02 -1.119 -0.432 -2.157 -1.199 -2.974 c -0.779 -0.772 -1.852 -1.222 -2.993 -1.213" transform="matrix(0.10562 0.05905 -0.06098 0.10228 14.926 6.871)"/><path d="m 63.994 59.819 c -1.89 -0.033 -3.555 1.257 -4.068 3.076 c -0.48 1.852 0.32 3.804 1.986 4.73 l 44.36 25.632 c 2.02 1.158 4.58 0.463 5.733 -1.521 c 4.869 -8.401 7.431 -18.03 7.431 -27.749 c 0 -1.091 -0.448 -2.15 -1.217 -2.944 c -0.801 -0.794 -1.858 -1.224 -2.979 -1.224" transform="matrix(0.12196 0 0 0.11811 10.481 8.794)"/><path d="m 64.01 59.805 c -1.922 -0.002 -3.575 1.259 -4.085 3.103 c -0.466 1.832 0.332 3.781 1.968 4.726 l 44.38 25.624 c 1.997 1.153 4.576 0.465 5.734 -1.54 c 4.845 -8.392 7.439 -18.01 7.423 -27.718 c 0.008 -1.103 -0.449 -2.169 -1.216 -2.955 c -0.794 -0.802 -1.876 -1.236 -2.989 -1.229" transform="matrix(0.10562 -0.05905 0.06098 0.10228 7.624 12.612)"/><path d="m 63.993 59.811 c -1.884 -0.022 -3.544 1.27 -4.046 3.113 c -0.502 1.843 0.31 3.778 1.958 4.713 l 44.38 25.602 c 2.01 1.169 4.553 0.478 5.724 -1.529 c 4.857 -8.389 7.435 -18.01 7.449 -27.712 c -0.022 -1.097 -0.455 -2.178 -1.242 -2.945 c -0.774 -0.811 -1.868 -1.251 -2.971 -1.243" transform="matrix(0.06098 -0.10228 0.10562 0.05905 7.121 17.302)"/><path d="m 64.01 59.823 c -1.918 -0.032 -3.572 1.249 -4.068 3.075 c -0.496 1.858 0.331 3.78 1.984 4.74 l 44.35 25.624 c 2.02 1.153 4.564 0.448 5.722 -1.537 c 4.862 -8.392 7.442 -18.03 7.442 -27.738 c 0 -1.089 -0.43 -2.178 -1.224 -2.947 c -0.794 -0.801 -1.852 -1.217 -2.977 -1.217" transform="matrix(0 -0.11811 0.12196 0 9.107 21.606)"/></g></svg>