<svg xmlns="http://www.w3.org/2000/svg" viewBox="0 0 32 32"><path d="m 28.28 26.449 c 7.785 -11.973 1.504 -22.875 -7.309 -25.465 c -11.855 -3.477 -27.949 5.668 -17.344 24.516 c 4.215 7.488 19.11 9.473 24.652 0.945" fill="#d2d2d2"/><path d="m 8.891 25.09 v -0.594 l 0.398 -0.027 l 0.395 -0.027 l 0.004 -0.555 c 0.004 -0.547 0.008 -0.555 0.281 -0.531 c 0.465 0.039 0.551 -0.145 0.504 -1.047 c -0.031 -0.527 -0.008 -0.816 0.066 -0.82 c 0.063 -0.004 0.23 -0.016 0.379 -0.023 c 0.262 -0.012 0.266 -0.016 0.297 -0.93 l 0.027 -0.918 h 0.371 c 0.352 0 0.367 -0.016 0.367 -0.301 v -0.297 h 1.602 v -0.637 c 0 -0.355 -0.051 -0.66 -0.113 -0.691 c -0.063 -0.031 -0.281 -0.031 -0.488 0 c -0.301 0.047 -0.367 0.094 -0.355 0.242 c 0.039 0.359 0.004 0.406 -0.242 0.359 c -0.328 -0.059 -0.48 0.039 -0.523 0.344 c -0.031 0.219 -0.074 0.25 -0.32 0.227 c -0.316 -0.027 -0.438 0.078 -0.453 0.402 c -0.008 0.188 -0.07 0.23 -0.383 0.266 l -0.371 0.043 l -0.063 1.742 l -0.344 0.023 c -0.301 0.023 -0.348 0.063 -0.395 0.328 c -0.039 0.223 -0.105 0.301 -0.266 0.309 c -0.117 0.004 -0.273 0.012 -0.348 0.02 c -0.09 0.008 -0.133 0.195 -0.133 0.605 v 0.594 l -0.398 0.027 c -0.367 0.023 -0.402 0.047 -0.402 0.281 c 0 0.227 -0.035 0.258 -0.316 0.258 c -0.32 0 -0.32 0 -0.32 -0.516 v -0.512 l 0.371 -0.043 l 0.375 -0.043 l 0.063 -1.141 l 0.34 -0.027 c 0.301 -0.023 0.348 -0.063 0.395 -0.324 c 0.047 -0.258 0.094 -0.301 0.344 -0.305 c 0.16 0 0.32 -0.027 0.359 -0.059 c 0.039 -0.031 0.063 -0.441 0.051 -0.91 l -0.016 -0.852 l 0.402 -0.027 c 0.371 -0.023 0.41 -0.051 0.438 -0.301 c 0.031 -0.234 0.078 -0.273 0.375 -0.297 c 0.297 -0.023 0.344 -0.063 0.371 -0.305 c 0.031 -0.254 0.066 -0.277 0.402 -0.277 c 0.344 0 0.363 -0.016 0.363 -0.293 c 0 -0.277 0.023 -0.297 0.402 -0.32 c 0.391 -0.027 0.398 -0.035 0.398 -0.371 v -0.34 l -0.773 -0.023 l -0.77 -0.027 v -0.285 c 0 -0.301 -0.137 -0.391 -0.594 -0.391 c -0.18 0 -0.254 -0.043 -0.242 -0.148 c 0.039 -0.387 -0.012 -0.449 -0.391 -0.449 c -0.344 0 -0.375 -0.02 -0.375 -0.254 v -0.258 h 1.371 l 0.035 0.277 c 0.031 0.254 0.07 0.281 0.426 0.305 c 0.371 0.023 0.398 0.043 0.426 0.34 c 0.035 0.309 0.047 0.316 0.461 0.316 c 0.426 0 0.426 0 0.426 -0.344 c 0 -0.332 -0.012 -0.34 -0.395 -0.367 l -0.395 -0.023 l -0.031 -0.617 c -0.027 -0.543 -0.055 -0.613 -0.246 -0.625 c -0.117 -0.008 -0.27 -0.016 -0.344 -0.02 c -0.098 -0.008 -0.137 -0.395 -0.16 -1.484 l -0.027 -1.473 l -0.695 -0.055 v -1.953 c 0 -1.07 -0.027 -2.01 -0.063 -2.086 c -0.055 -0.109 0.016 -0.133 0.371 -0.133 c 0.43 0 0.438 -0.008 0.438 -0.301 c 0 -0.277 0.027 -0.297 0.324 -0.297 h 0.324 l -0.031 0.875 c -0.027 0.859 -0.035 0.875 -0.273 0.848 c -0.398 -0.047 -0.504 0.098 -0.488 0.664 c 0.008 0.285 0.035 0.543 0.066 0.566 c 0.031 0.023 0.191 0.051 0.359 0.063 l 0.309 0.02 l 0.051 2.133 l 0.055 2.133 h 0.426 c 0.402 0 0.43 -0.016 0.461 -0.277 c 0.027 -0.238 0.074 -0.277 0.324 -0.277 c 0.16 0 0.344 0.043 0.406 0.094 c 0.168 0.133 0.301 -0.07 0.141 -0.223 c -0.066 -0.066 -0.105 -0.207 -0.09 -0.313 c 0.031 -0.156 0.105 -0.191 0.41 -0.195 c 0.352 -0.004 0.375 -0.023 0.406 -0.32 c 0.031 -0.293 0.051 -0.313 0.371 -0.297 c 0.32 0.016 0.344 -0.004 0.375 -0.305 c 0.027 -0.289 0.063 -0.32 0.34 -0.32 c 0.266 0 0.309 0.035 0.34 0.277 c 0.031 0.254 0.066 0.281 0.434 0.305 c 0.363 0.023 0.398 0.047 0.398 0.277 v 0.25 h -0.801 c -0.668 0 -0.797 0.023 -0.797 0.141 c 0 0.121 0.125 0.133 1.039 0.098 c 0.57 -0.027 1.105 -0.059 1.191 -0.078 c 0.164 -0.031 0.184 0.035 0.207 0.781 l 0.012 0.426 h 0.738 l 0.031 0.578 l 0.031 0.574 l 0.906 0.055 v -0.305 c 0 -0.289 0.016 -0.305 0.371 -0.305 c 0.367 0 0.395 -0.023 0.418 -0.383 c 0.008 -0.129 0.102 -0.184 0.383 -0.215 l 0.371 -0.043 l 0.031 -0.922 c 0.027 -0.852 0.047 -0.922 0.227 -0.875 c 0.43 0.109 0.543 -0.023 0.543 -0.645 v -0.59 h 0.359 c 0.199 0 0.383 -0.047 0.402 -0.105 c 0.023 -0.063 0.016 -0.492 -0.012 -0.961 l -0.059 -0.855 l -0.32 -0.043 c -0.309 -0.043 -0.32 -0.063 -0.371 -0.598 c -0.055 -0.551 -0.055 -0.555 -0.391 -0.582 c -0.336 -0.027 -0.34 -0.027 -0.375 -0.578 l -0.035 -0.547 h 0.348 c 0.324 0 0.348 0.016 0.348 0.297 c 0 0.285 0.016 0.301 0.371 0.301 h 0.375 v 0.543 c 0 0.566 0.141 0.785 0.453 0.691 c 0.09 -0.027 0.188 -0.016 0.223 0.023 c 0.031 0.043 0.066 0.844 0.074 1.777 l 0.02 1.703 l -0.719 0.086 l -0.031 0.918 l -0.027 0.918 h -0.363 c -0.332 0 -0.367 0.023 -0.395 0.277 c -0.031 0.238 -0.078 0.277 -0.32 0.277 c -0.355 0 -0.449 0.078 -0.457 0.367 c -0.004 0.188 -0.059 0.234 -0.27 0.246 c -0.148 0.004 -0.328 0.016 -0.402 0.02 c -0.078 0.004 -0.133 0.129 -0.133 0.309 c 0 0.281 -0.016 0.297 -0.363 0.297 c -0.348 0 -0.371 0.02 -0.402 0.32 c -0.027 0.285 -0.063 0.316 -0.352 0.328 c -0.176 0.008 -0.355 0.02 -0.398 0.023 c -0.047 0.008 -0.082 0.168 -0.082 0.355 v 0.34 h 0.48 c 0.477 0 0.48 0 0.48 -0.297 c 0 -0.285 0.016 -0.301 0.371 -0.301 c 0.363 0 0.375 -0.008 0.375 -0.34 v -0.344 h 1.598 v -0.598 h 0.691 c 0.621 0 0.695 0.02 0.695 0.172 c 0 0.094 0 0.199 0.004 0.234 c 0 0.035 -0.156 0.082 -0.348 0.105 c -0.313 0.039 -0.352 0.074 -0.348 0.32 v 0.277 h -0.707 c -0.797 0 -1.016 0.117 -0.902 0.469 c 0.063 0.203 0.043 0.215 -0.363 0.215 c -0.418 0 -0.43 0.008 -0.43 0.297 v 0.297 l -2.289 0.047 v 0.684 l 3.875 0.047 l 0.035 0.277 c 0.023 0.203 0.086 0.277 0.246 0.285 c 0.117 0.008 0.27 0.02 0.34 0.023 c 0.07 0.004 0.141 0.133 0.16 0.285 c 0.027 0.246 0.074 0.281 0.379 0.305 l 0.348 0.027 l 0.016 2.258 c 0.008 1.242 0.02 2.305 0.027 2.363 c 0.004 0.066 -0.121 0.109 -0.313 0.109 h -0.316 l -0.031 -2.109 l -0.027 -2.109 l -0.344 -0.027 c -0.277 -0.02 -0.352 -0.07 -0.383 -0.238 c -0.051 -0.293 -0.207 -0.43 -0.508 -0.43 c -0.195 0 -0.254 -0.043 -0.254 -0.199 c 0 -0.363 -0.191 -0.402 -1.773 -0.379 l -1.477 0.023 v 0.684 l 1.52 0.023 c 1.406 0.023 1.516 0.035 1.516 0.188 c 0 0.324 0.125 0.43 0.492 0.43 h 0.363 v 4.785 h -0.367 c -0.387 0 -0.555 0.18 -0.426 0.449 c 0.051 0.105 -0.023 0.141 -0.344 0.164 c -0.391 0.023 -0.41 0.043 -0.441 0.348 l -0.035 0.316 h -2.223 v -0.504 l 0.77 -0.023 l 0.773 -0.027 l 0.031 -0.313 c 0.031 -0.297 0.059 -0.32 0.43 -0.344 c 0.355 -0.023 0.391 -0.047 0.391 -0.281 c 0 -0.227 0.043 -0.262 0.375 -0.301 l 0.371 -0.043 v -3.672 l -0.371 -0.043 c -0.332 -0.035 -0.379 -0.074 -0.406 -0.32 l -0.035 -0.277 h -3.289 v 1.195 h -0.32 c -0.281 0 -0.32 -0.027 -0.32 -0.25 c 0 -0.137 -0.035 -0.27 -0.082 -0.293 c -0.043 -0.02 -0.434 -0.066 -0.867 -0.102 c -0.645 -0.051 -0.773 -0.043 -0.734 0.059 c 0.027 0.063 0.191 0.117 0.363 0.121 c 0.266 0.004 0.309 0.035 0.309 0.234 c 0 0.129 -0.035 0.23 -0.078 0.23 c -0.047 0 -0.371 0 -0.723 0 h -0.637 v -1.203 l -0.453 0.023 c -0.426 0.027 -0.457 0.047 -0.488 0.301 c -0.027 0.238 -0.074 0.277 -0.371 0.297 l -0.34 0.027 l -0.031 0.926 c -0.031 0.91 -0.035 0.926 -0.266 0.879 c -0.457 -0.09 -0.535 0.043 -0.547 0.941 l -0.008 0.84 l -0.375 0.043 l -0.371 0.043 v 1.145 l -0.375 0.027 c -0.348 0.023 -0.375 0.047 -0.406 0.344 c -0.031 0.293 -0.063 0.32 -0.348 0.32 h -0.313 m 7.06 -6.191 c -0.039 -0.129 -0.801 -0.105 -0.855 0.027 c -0.035 0.082 0.07 0.105 0.418 0.086 c 0.254 -0.016 0.453 -0.066 0.438 -0.113 m 0.719 -0.555 c 0 -0.047 -0.02 -0.086 -0.047 -0.086 c -0.027 0 -0.078 0.039 -0.113 0.086 c -0.035 0.047 -0.016 0.086 0.047 0.086 c 0.063 0 0.113 -0.039 0.113 -0.086 m 0 -1.879 c 0 -0.051 -0.441 -0.086 -1.113 -0.086 c -0.625 0 -1.141 0.039 -1.18 0.086 c -0.039 0.055 0.355 0.086 1.113 0.086 c 0.715 0 1.18 -0.035 1.18 -0.086 m -2.133 -0.641 c 0 -0.07 -0.043 -0.129 -0.098 -0.129 c -0.137 0 -0.23 0.137 -0.145 0.203 c 0.117 0.098 0.242 0.059 0.242 -0.074 m -0.832 -3.227 c -0.02 -0.035 -0.078 -0.043 -0.133 -0.016 c -0.117 0.059 -0.137 2.543 -0.02 2.641 c 0.074 0.059 0.223 -2.484 0.152 -2.621 m -5.516 1.309 c -0.023 -0.02 -0.043 -0.125 -0.043 -0.234 c 0 -0.188 0.035 -0.199 0.699 -0.199 h 0.699 l -0.035 0.234 c -0.031 0.227 -0.055 0.234 -0.656 0.234 c -0.34 0 -0.641 -0.016 -0.664 -0.035" fill="#020202"/></svg>