<svg xmlns="http://www.w3.org/2000/svg" viewBox="0 0 32 32"><path d="m 3.059 24.488 c -17.41 -31.805 46.19 -33.3 24.301 -0.52 c -5.781 8.438 -19.613 12.551 -24.301 0.52" fill="#9f9f9f"/><g transform="matrix(0.11159 0 0 0.10788 -24.689 6.311)"><path d="m 407.15 120.45 c -2.905 -0.362 -5.01 -2.136 -5.01 -4.2 c 0 -1.702 -3.745 -9.559 -5.741 -12.06 c -1.855 -2.317 -3.255 -2.209 -4.761 0.362 c -0.7 1.195 -2.555 3.911 -4.131 6.083 c -1.575 2.173 -3.43 5.069 -4.096 6.409 c -1.12 2.281 -1.47 2.426 -5.181 2.426 c -4.796 0 -5.671 -1.267 -3.29 -4.744 c 6.441 -9.415 13.617 -22.05 13.617 -23.935 c -1.715 -5.902 -4.796 -9.451 -7.911 -14.919 c -4.516 -9.704 -4.481 -10.07 1.19 -9.668 c 3.08 0.181 3.64 0.507 4.936 2.824 c 1.855 3.44 4.586 6.119 6.301 9.632 c 0.315 0.941 0.805 1.195 1.505 0.797 c 1.085 -0.688 7 -8.04 9.206 -11.442 c 1.085 -1.666 1.82 -1.955 4.761 -1.955 c 1.925 0 3.71 0.362 3.991 0.797 c 0.42 0.76 -0.56 3.404 -3.886 10.428 c -1.785 5.178 -7.736 9.234 -7.946 14.919 c 0 1.159 1.435 4.888 3.22 8.256 c 1.75 3.368 3.22 6.337 3.22 6.554 c 2.415 3.838 5.531 6.192 7.841 10.284 c -1.715 3.911 -4.621 3.585 -7.841 3.15 m -79.15 -1.412 c -1.575 -1.195 -1.575 -1.231 -1.575 -26.18 c 0 -18.358 0.21 -25.2 0.84 -25.89 c 1.4 -1.485 18.622 -1.231 21.493 0.326 c 5.391 2.933 8.366 7.568 8.366 12.963 c 0 5.649 -0.735 8.07 -3.64 11.66 c -1.54 1.883 -2.765 3.911 -2.765 4.49 c 3.675 5.576 6.441 10.61 9.836 15.969 c 1.715 2.68 2.94 5.359 2.73 5.975 c -0.455 1.304 -5.531 1.557 -7.561 0.362 c -0.735 -0.435 -1.82 -1.738 -2.38 -2.897 c -5.776 -11.949 -9.03 -16 -13.337 -16.765 c -5.286 -0.905 -5.741 -0.145 -5.741 9.958 c 0 8.256 -0.105 8.908 -1.575 10.03 c -1.785 1.485 -3.08 1.231 -4.691 0 m 16.977 -29.366 c 2.905 -1.629 4.306 -4.128 4.306 -7.604 c 0 -4.454 -2.765 -7.097 -8.09 -7.785 c -6.406 -0.797 -6.931 -0.253 -6.931 7.894 c 0 4.237 0.315 7.133 0.875 7.713 c 1.19 1.304 7.351 1.159 9.836 -0.217 m -57.13 28.715 c -7.106 -2.897 -8.09 -3.802 -7.736 -7.097 c 0.35 -3.259 2.135 -4.02 5.356 -2.317 c 2.87 1.521 12.357 2.535 15.472 1.702 c 3.22 -0.869 6.196 -4.237 6.196 -6.989 c -0.14 -5.83 -7.281 -8 -11.447 -8.618 c -4.656 -0.652 -8.331 -2.535 -12.147 -6.264 c -6.266 -6.156 -3.991 -15.06 5.356 -21.328 c 3.36 -2.209 13.13 -1.992 17.957 0.435 c 1.995 1.014 3.851 2.426 4.096 3.15 c 0.805 2.281 0.49 4.816 -0.7 5.902 c -0.945 0.869 -1.54 0.76 -3.886 -0.688 c -5.426 -3.404 -14.772 -1.811 -17.08 2.933 c -1.89 3.766 1.05 6.373 8.611 7.713 c 6.266 1.086 11.902 4.309 14.772 8.401 c 2.065 3.01 2.31 3.947 2.31 8.365 c 0 7.423 -2.205 11.04 -8.576 14.194 c -3.816 1.847 -14.492 2.173 -18.552 0.507" fill="#ed0101" stroke="#ed0101" stroke-width="0.744"/><path d="m 409.81 98.65 c -2.205 -2.281 -4.271 -8.365 -4.271 -10.1 c 0 -1.738 3.71 -5.504 7.246 -11.732 c 1.645 -4.635 2.345 -5.106 3.43 -9.632 c 1.75 -3.223 -1.68 -3.802 -7.281 -3.911 c -3.605 -0.109 -4.796 0.435 -8.331 3.802 c -2.24 2.173 -4.866 3.947 -5.811 3.947 c -0.91 0 -3.5 -1.738 -5.706 -3.838 c -3.325 -3.186 -4.691 -3.838 -8.121 -3.838 c -5.811 0 -6.861 0.797 -6.02 4.49 l 0.7 3.15 c -5.986 0 -12.01 0 -18.03 0 l -1.96 -4.237 c -1.82 -3.947 -1.855 -4.454 -0.105 -7.459 l 1.855 -3.186 h 26.533 c 14.597 0 27.339 -0.253 28.319 -0.579 c 0.98 -0.29 1.785 -1.086 1.785 -1.702 c 0 -0.652 -4.061 -5.794 -9.03 -11.442 c -5.01 -5.649 -9.07 -10.972 -9.07 -11.841 c 0 -2.173 6.721 -9.02 8.506 -8.654 c 1.75 0.326 41.13 37.586 42.741 40.41 c 1.015 1.811 -0.595 3.766 -13.897 16.765 c -23.698 23.17 -21.633 21.473 -23.488 19.59" fill="#fff" stroke="#fff" stroke-width="1.026"/></g></svg>