<svg xmlns="http://www.w3.org/2000/svg" viewBox="0 0 32 32"><path d="m 16.1 31.88 c 21.1 2.4 20.82 -31.99 -0.38 -31.58 c -19.71 -1.13 -21.49 33.46 0.38 31.58" style="fill:#99e73e"/><path d="m 11.23 25.2 c -1.39 -0.08 -1.52 -0.21 -1.67 -0.95 c -0.11 -0.5 -0.23 -0.61 -0.17 -7.46 c 0.04 -4.55 0.11 -7.15 0.19 -7.42 c 0.07 -0.23 0.29 -0.54 0.5 -0.69 c 0.37 -0.28 0.38 -0.28 4.58 -0.33 c 3.21 -0.04 4.29 -0.02 4.56 0.09 c 1.3 1.04 2.16 2 3.37 3.27 v 12.68 c -0.29 0.49 -0.37 0.58 -0.88 0.8 l -2.02 0.08 c -2.35 0.09 -6.66 0.03 -8.44 -0.08" style="fill:#212f09"/><g style="fill:#99e73e"><path d="m 17.1 17.46 c -0.57 -0.34 -0.79 -0.69 -0.79 -1.27 c 0 -0.99 0.46 -1.31 1.66 -1.45 c 0.81 -0.09 0.95 -0.09 0.67 -0.54 c -0.1 -0.16 -0.86 -0.16 -1.5 -0.05 c -0.48 0.13 -0.36 -0.07 -0.36 -0.49 c 0 -0.53 0.01 -0.55 0.21 -0.65 c 0.28 -0.14 1.71 -0.2 2.08 -0.09 c 0.36 0.11 0.88 0.66 0.98 1.05 c 0.05 0.16 0.08 0.97 0.08 1.81 c -0.1 1.04 0.3 1.48 -0.52 1.68 c -0.33 0.11 -0.8 0.18 -1.32 0.2 c -0.79 0.04 -0.81 0.03 -1.2 -0.2 m 1.65 -0.96 c 0.11 -0.3 0.06 -0.54 0.04 -0.85 c -0.35 -0.03 -0.78 -0.05 -1 0.14 c -0.26 0.24 -0.18 0.54 0.1 0.7 c 0.27 0.14 0.74 0.15 0.86 0.01"/><path d="m 11.82 17.37 c 0 -0.5 0.02 -0.88 0.09 -1.35 l 0.54 0.19 c 1.04 0.36 1.96 0.28 2.03 -0.18 c 0.04 -0.3 -0.13 -0.46 -0.97 -0.9 c -0.97 -0.5 -1.25 -0.72 -1.47 -1.14 c -0.22 -0.43 -0.22 -1.21 0 -1.64 c 0.21 -0.41 0.62 -0.75 1.07 -0.88 c 0.43 -0.13 1.84 -0.12 2.15 0.01 c 0.25 0.11 0.3 0.26 0.31 0.87 c 0 0.3 -0.03 0.44 -0.09 0.44 c -0.05 0 -0.36 -0.06 -0.68 -0.13 c -0.72 -0.16 -1.23 -0.1 -1.5 0.17 c -0.16 0.16 -0.17 0.21 -0.09 0.36 c 0.13 0.24 0.24 0.32 0.98 0.68 c 1.2 0.59 1.58 0.99 1.66 1.79 c 0.06 0.62 -0.08 1.03 -0.51 1.45 c -0.47 0.45 -0.93 0.6 -1.83 0.59 c -0.61 0.04 -1.18 -0.15 -1.68 -0.31"/><path d="m 12.1 23.3 c -0.19 -0.08 -0.29 -0.32 -0.22 -0.54 c 0.04 -0.14 0.12 -0.16 0.65 -0.16 c 0.35 0.03 1.07 -0.11 0.79 -0.44 c -0.08 -0.1 -0.36 -0.32 -0.64 -0.5 c -0.78 -0.51 -0.98 -0.95 -0.73 -1.54 c 0.16 -0.39 0.57 -0.61 1.23 -0.65 c 0.52 -0.03 0.57 -0.02 0.75 0.16 c 0.38 0.38 0.16 0.68 -0.41 0.56 c -0.44 -0.09 -0.95 0.18 -0.8 0.42 c 0.03 0.04 0.33 0.26 0.68 0.49 c 0.35 0.23 0.67 0.5 0.72 0.61 c 0.05 0.11 0.09 0.38 0.09 0.61 c 0 0.36 -0.03 0.45 -0.23 0.64 c -0.13 0.13 -0.36 0.27 -0.52 0.31 c -0.34 0.1 -1.13 0.1 -1.36 0"/><path d="m 14.8 23.27 c -0.15 -0.07 -0.19 -0.16 -0.19 -0.36 v -0.27 c 0.46 -0.04 0.95 -0.02 1.39 -0.14 c 0.23 -0.14 0.09 -0.36 -0.43 -0.7 c -0.29 -0.19 -0.64 -0.47 -0.77 -0.63 c -0.23 -0.26 -0.25 -0.32 -0.21 -0.69 c 0.05 -0.68 0.54 -1.02 1.42 -1.02 c 0.41 0 0.51 0.02 0.67 0.18 c 0.35 0.35 0.17 0.63 -0.35 0.56 c -0.37 -0.05 -0.83 0.07 -0.89 0.22 c -0.06 0.16 0.15 0.37 0.67 0.69 c 0.66 0.4 0.83 0.64 0.83 1.15 c 0 0.36 -0.03 0.45 -0.25 0.69 c -0.16 0.17 -0.36 0.3 -0.55 0.34 c -0.44 0.1 -1.12 0.09 -1.34 -0.03"/><path d="m 17.27 23.27 c -0.05 -0.13 0.2 -1.12 0.65 -2.65 c 0.17 -0.57 0.31 -1.04 0.31 -1.06 c 0.36 -0.03 0.64 0 1.02 0.02 l 0.22 0.69 c 0.48 1.53 0.82 2.76 0.82 2.93 c 0 0.16 -0.04 0.18 -0.29 0.18 c -0.38 0 -0.48 -0.08 -0.64 -0.48 l -0.13 -0.33 c -0.32 -0.01 -0.65 -0.03 -0.98 -0.04 l -0.19 0.41 c -0.17 0.38 -0.21 0.41 -0.47 0.43 c -0.2 0.02 -0.3 -0.01 -0.33 -0.09 m 1.82 -1.6 c -0.07 -0.21 -0.23 -1.25 -0.39 -1.02 c -0.06 0.08 -0.27 0.85 -0.27 0.97 c 0.1 0.14 0.57 0.17 0.67 0.05"/></g></svg>