<svg xmlns="http://www.w3.org/2000/svg" viewBox="0 0 32 32"><path d="m 2.641 25.406 c 6.117 11.06 25.289 6.77 28.535 -2.34 c 3.863 -10.855 -6.195 -31.465 -23.23 -19.391 c -5.742 4.215 -11.422 10.664 -5.301 21.73" fill="#9acd31"/><g fill-opacity="0.149"><path d="m 17.1 7.258 c -0.305 0 -0.551 0.395 -0.551 0.875 v 1 c 0 0.484 0.25 0.875 0.551 0.875 h 0.27 c 0.25 0 0.449 0.016 0.578 0.039 c 0.008 0.004 0.02 0.004 0.027 0.004 c 0.051 0.004 0.02 -0.008 0.035 -0.004 c 0.004 0.043 0.004 0.035 0.004 0.109 v 7.621 c -1.633 0 -3.289 0.004 -4.523 0 c -0.598 0 -1.039 0 -1.441 0 c 0.305 -0.734 0.699 -1.672 1.102 -2.621 c 0.617 -1.469 0.969 -2.289 1.238 -2.93 l 2.01 3.898 c 0.105 0.203 0.262 0.324 0.426 0.324 h 0.277 c 0.426 0 0.691 -0.742 0.473 -1.324 l -2.484 -6.566 c -0.098 -0.266 -0.277 -0.426 -0.473 -0.426 h -2.203 c -0.176 0 -0.34 0.129 -0.441 0.352 l -5.789 12.25 c -0.281 0.59 0 1.434 0.465 1.402 l 11.363 -0.742 v 0.449 c 0 0.066 0 0.066 -0.004 0.113 c -0.023 0.008 -0.012 0.004 -0.051 0.012 c -0.148 0.012 -0.34 0.02 -0.59 0.02 h -0.27 c -0.305 0 -0.551 0.395 -0.551 0.875 v 1.023 c 0 0.484 0.246 0.875 0.551 0.875 h 8.82 c 0.305 0 0.551 -0.391 0.551 -0.875 v -1.023 c 0 -0.48 -0.246 -0.875 -0.551 -0.875 h -0.254 c -0.254 0 -0.453 -0.008 -0.598 -0.02 c -0.035 -0.008 -0.031 -0.008 -0.055 -0.016 c -0.004 -0.047 -0.008 -0.047 -0.008 -0.109 v -0.906 l 1.766 -0.113 l -0.023 -3.066 c 0 0 -1.398 0.004 -1.742 0.004 v -7.609 c 0 -0.066 0.004 -0.055 0.004 -0.098 c 0.02 -0.004 0 -0.004 0.035 -0.008 c 0.012 0 0.02 0 0.031 -0.004 c 0.129 -0.02 0.332 -0.035 0.59 -0.035 h 0.254 c 0.305 0 0.551 -0.395 0.551 -0.879 v -1 c 0 -0.48 -0.246 -0.875 -0.551 -0.875 h -8.82 m 0.938 1.051 l 0.027 0.004 c -0.004 -0.004 -0.016 -0.004 -0.023 -0.004 c 0 0 -0.004 0 -0.004 0 m 2.539 0 c -0.004 0 -0.004 0 -0.004 0 c -0.008 0 -0.02 0 -0.023 0.004 m 1.898 -0.004 l 0.031 0.004 c -0.008 -0.004 -0.02 -0.004 -0.027 -0.004 c 0 0 -0.004 0 -0.004 0 m 2.539 0 c -0.004 0 -0.004 0 -0.004 0 c -0.008 0 -0.02 0 -0.023 0.004 m -6.344 0.234 l 0.063 0.059 c -0.016 -0.016 -0.031 -0.004 -0.043 -0.02 c -0.008 -0.008 -0.012 -0.031 -0.02 -0.039 m 1.383 0 c -0.004 0.004 -0.008 0.02 -0.012 0.023 c -0.008 0.008 -0.016 0.004 -0.027 0.012 m 3.066 -0.035 l 0.063 0.059 c -0.016 -0.016 -0.027 -0.004 -0.043 -0.02 c -0.008 -0.008 -0.012 -0.031 -0.02 -0.039 m 1.383 0 c -0.004 0.004 -0.008 0.02 -0.012 0.023 c -0.008 0.008 -0.016 0.004 -0.027 0.012 m -5.512 0.434 h 0.898 c -0.066 0.133 -0.168 0.215 -0.199 0.371 c -0.051 0.266 -0.063 0.508 -0.063 0.773 v 7.094 c -0.102 0 -0.273 0.004 -0.375 0.004 v -7.098 c 0 -0.266 -0.012 -0.508 -0.066 -0.773 c -0.027 -0.152 -0.129 -0.238 -0.195 -0.371 m 4.41 0 h 0.898 c -0.066 0.133 -0.168 0.215 -0.195 0.371 c -0.055 0.266 -0.066 0.508 -0.066 0.773 v 7.086 c -0.125 0 -0.242 0.004 -0.375 0.004 v -7.09 c 0 -0.266 -0.012 -0.508 -0.066 -0.773 c -0.027 -0.152 -0.129 -0.238 -0.195 -0.371 m -10.578 0.875 h 1.621 c -0.172 0.02 -0.328 0.16 -0.422 0.387 c 0 0 -0.828 1.949 -1.656 3.91 c -0.414 0.98 -0.828 1.965 -1.141 2.707 c -0.152 0.371 -0.281 0.688 -0.375 0.91 c -0.047 0.113 -0.082 0.203 -0.109 0.273 c -0.016 0.031 -0.023 0.063 -0.035 0.094 c -0.008 0.016 -0.012 0.031 -0.023 0.059 c -0.004 0.016 -0.012 0.035 -0.02 0.074 c -0.008 0.02 -0.012 0.043 -0.02 0.086 c -0.008 0.043 -0.023 0.25 -0.023 0.25 c 0 0 0.406 0.848 0.441 0.859 c 0.035 0.012 0.047 0.012 0.059 0.016 c 0.02 0 0.027 0 0.035 0.004 c 0.016 0 0.031 0 0.047 0 c 0.035 0.004 0.082 0.004 0.141 0.004 c 0.117 0.004 0.285 0.004 0.5 0.008 c 0.434 0.004 1.047 0.004 1.781 0.004 c 1.477 0.004 3.437 0 5.402 0 c 0.465 0 0.473 0 0.934 -0.004 l -12.06 0.789 m 13.492 -10.305 h 0.523 c 0.25 0 0.449 0.012 0.578 0.035 c 0.008 0.004 0.02 0.004 0.027 0.004 c 0.051 0.004 0.023 -0.008 0.035 -0.004 c 0.004 0.043 0.008 0.035 0.008 0.109 v 7.617 c -0.73 0 -0.957 0 -1.832 0.004 v -7.621 c 0 -0.066 0.004 -0.055 0.008 -0.098 c 0.016 -0.008 0 -0.004 0.035 -0.008 c 0.008 0 0.016 0 0.027 -0.004 c 0.129 -0.023 0.332 -0.039 0.59 -0.039 m 1.172 11.1 v 0.738 c 0 0.066 -0.004 0.066 -0.008 0.113 c -0.023 0.008 -0.012 0.004 -0.051 0.012 c -0.145 0.012 -0.34 0.02 -0.59 0.02 h -0.523 c -0.254 0 -0.453 -0.008 -0.598 -0.02 c -0.035 -0.008 -0.031 -0.008 -0.055 -0.016 c -0.004 -0.047 -0.008 -0.047 -0.008 -0.109 v -0.617 l 1.828 -0.121 m 1.48 0.43 v 0.309 c 0 0.285 0.012 0.539 0.063 0.809 c 0 0.008 0 0.016 0.004 0.023 c 0.031 0.148 0.121 0.215 0.184 0.336 h -0.875 c 0.063 -0.121 0.156 -0.188 0.184 -0.336 c 0.004 -0.008 0.004 -0.016 0.008 -0.023 c 0.047 -0.27 0.059 -0.523 0.059 -0.809 v -0.285 m -4.04 0.266 v 0.02 c 0 0.285 0.012 0.535 0.059 0.805 c 0.004 0.012 0.004 0.02 0.008 0.027 c 0.031 0.148 0.121 0.215 0.184 0.336 h -0.875 c 0.063 -0.121 0.156 -0.188 0.184 -0.336 c 0.004 -0.008 0.004 -0.016 0.008 -0.027 c 0.047 -0.266 0.059 -0.52 0.059 -0.801 m -0.48 1.609 l -0.023 0.02 c 0.004 -0.004 0.004 -0.012 0.008 -0.012 c 0.004 -0.004 0.008 -0.004 0.016 -0.008 m 4.41 0 l -0.023 0.02 c 0.004 -0.004 0.004 -0.012 0.008 -0.012 c 0.004 -0.004 0.008 -0.004 0.016 -0.008"/><path d="m 17.1 7.695 c -0.152 0 -0.273 0.195 -0.273 0.437 v 1 c 0 0.242 0.121 0.438 0.273 0.438 h 0.27 c 0.258 0 0.461 0.016 0.605 0.043 c 0.008 0 0.012 0 0.016 0 c 0.137 0.012 0.207 0.063 0.215 0.07 c 0.012 0.012 0.02 0.02 0.031 0.027 c 0.027 0.023 0.023 0.016 0.027 0.047 l 0.004 0.012 c 0.008 0.055 0.023 0.188 0.023 0.387 v 7.973 c 0 0.027 0 0.059 0.004 0.086 c -1.742 0.004 -3.492 0.004 -4.805 0.004 c -0.734 -0.004 -1.348 -0.004 -1.777 -0.008 c -0.074 0 -0.113 0 -0.176 0 c 0.074 -0.184 0.145 -0.352 0.246 -0.594 c 0.309 -0.742 0.723 -1.723 1.137 -2.703 c 0.723 -1.715 1.277 -3.02 1.445 -3.422 l 2.25 4.359 c 0.051 0.102 0.129 0.16 0.211 0.16 h 0.277 c 0.215 0 0.348 -0.371 0.234 -0.664 l -2.48 -6.566 c -0.051 -0.129 -0.141 -0.211 -0.234 -0.211 h -2.207 c -0.086 0 -0.168 0.066 -0.223 0.176 l -5.789 12.254 c -0.141 0.297 0 0.715 0.234 0.699 l 11.656 -0.758 c -0.004 0.02 -0.004 0.043 -0.004 0.066 v 0.84 c 0 0.207 -0.012 0.352 -0.027 0.426 c 0 0.012 0.008 0.012 -0.027 0.035 c -0.004 0.004 -0.008 0.008 -0.008 0.012 c -0.02 0.016 -0.109 0.063 -0.25 0.086 c -0.152 0.016 -0.355 0.023 -0.609 0.023 h -0.266 c -0.152 0 -0.277 0.195 -0.277 0.438 v 1.02 c 0 0.242 0.125 0.438 0.277 0.438 h 8.82 c 0.148 0 0.273 -0.195 0.273 -0.438 v -1.02 c 0 -0.242 -0.125 -0.438 -0.273 -0.438 h -0.258 c -0.266 0 -0.473 -0.008 -0.625 -0.023 c -0.129 -0.023 -0.219 -0.066 -0.254 -0.098 c -0.035 -0.027 -0.027 -0.023 -0.027 -0.035 c -0.016 -0.074 -0.027 -0.223 -0.027 -0.43 v -1.219 c 0 -0.035 -0.004 -0.07 -0.008 -0.105 l 2.035 -0.133 l -0.012 -2.188 c 0 0 -1.566 0.004 -2.02 0.004 c 0.004 -0.027 0.004 -0.055 0.004 -0.086 v -7.965 c 0 -0.195 0.016 -0.332 0.023 -0.383 l 0.004 -0.012 c 0.008 -0.031 0 -0.023 0.027 -0.047 c 0.008 -0.004 0.012 -0.012 0.02 -0.016 c 0.027 -0.027 0.102 -0.07 0.227 -0.082 c 0.004 0 0.008 0 0.016 0 c 0.145 -0.027 0.352 -0.043 0.617 -0.043 h 0.258 c 0.148 0 0.273 -0.195 0.273 -0.438 v -1 c 0 -0.242 -0.125 -0.437 -0.273 -0.437 m -8.547 0.875 h 8.27 v 0.129 c -0.262 0 -0.477 0.012 -0.648 0.039 c 0 0 0 0.004 0 0.004 c -0.176 0.016 -0.332 0.07 -0.473 0.203 c -0.137 0.117 -0.25 0.324 -0.297 0.563 c -0.039 0.195 -0.051 0.402 -0.051 0.648 v 7.523 c -0.273 0 -0.586 0 -0.926 0.004 v -7.527 c 0 -0.246 -0.012 -0.453 -0.051 -0.648 c -0.043 -0.234 -0.156 -0.438 -0.293 -0.555 c -0.141 -0.145 -0.297 -0.199 -0.477 -0.215 c -0.176 -0.027 -0.391 -0.043 -0.652 -0.043 h -0.523 c -0.273 0 -0.492 0.016 -0.668 0.043 c 0 0 0 0.004 0 0.004 c -0.176 0.016 -0.332 0.07 -0.473 0.203 c -0.137 0.117 -0.254 0.324 -0.297 0.563 c -0.039 0.195 -0.051 0.402 -0.051 0.648 v 7.531 c -0.32 0 -0.602 0.004 -0.926 0.004 v -7.535 c 0 -0.246 -0.012 -0.453 -0.051 -0.648 c -0.043 -0.234 -0.16 -0.438 -0.293 -0.555 c -0.141 -0.145 -0.297 -0.199 -0.477 -0.215 c -0.176 -0.027 -0.387 -0.039 -0.648 -0.043 v -0.125 m -4.82 0.879 h 1.91 l 1.211 3.199 l -1.117 -2.164 c -0.117 -0.227 -0.336 -0.211 -0.441 0.031 c 0 0 -0.828 1.953 -1.652 3.91 c -0.414 0.98 -0.828 1.965 -1.137 2.707 c -0.156 0.371 -0.289 0.684 -0.379 0.906 c -0.047 0.109 -0.078 0.199 -0.105 0.266 c -0.016 0.031 -0.023 0.059 -0.035 0.086 c -0.004 0.012 -0.008 0.023 -0.012 0.039 c -0.004 0.008 -0.008 0.016 -0.012 0.039 c -0.004 0.008 -0.008 0.02 -0.012 0.043 c -0.004 0.023 -0.012 0.125 -0.012 0.125 c 0 0 0.207 0.426 0.223 0.43 c 0.02 0.008 0.023 0.008 0.031 0.008 c 0.012 0 0.016 0.004 0.02 0.004 c 0.016 0 0.027 0 0.043 0 c 0.031 0.004 0.078 0.004 0.133 0.004 c 0.117 0.004 0.289 0.004 0.504 0.008 c 0.43 0 1.043 0.004 1.781 0.004 c 1.473 0.004 3.434 0 5.398 0 c 3.789 -0.008 7.32 -0.016 7.582 -0.016 v 0.453 l -19.277 1.258 m 14.06 -11.215 h 0.523 c 0.258 0 0.461 0.016 0.605 0.039 c 0.008 0 0.012 0.004 0.016 0.004 c 0.137 0.012 0.207 0.059 0.215 0.066 c 0.012 0.012 0.02 0.02 0.031 0.031 c 0.027 0.023 0.023 0.012 0.027 0.043 l 0.004 0.012 c 0.008 0.055 0.023 0.188 0.023 0.387 v 7.965 c 0 0.027 0 0.059 0.004 0.086 c -0.91 0.004 -1.234 0.004 -2.391 0.004 c 0.004 -0.027 0.008 -0.055 0.008 -0.086 v -7.969 c 0 -0.199 0.012 -0.332 0.023 -0.387 l 0.004 -0.012 c 0.004 -0.031 -0.004 -0.023 0.027 -0.047 c 0.004 -0.004 0.012 -0.008 0.02 -0.016 c 0.027 -0.027 0.102 -0.07 0.227 -0.082 c 0.004 0 0.008 0 0.012 0 c 0.148 -0.023 0.355 -0.043 0.621 -0.043 m 1.449 11.08 c -0.004 0.023 -0.004 0.047 -0.004 0.07 v 1.125 c 0 0.207 -0.012 0.352 -0.027 0.43 c 0 0.008 0.008 0.008 -0.027 0.035 c -0.004 0.004 -0.008 0.004 -0.008 0.008 c -0.02 0.016 -0.109 0.063 -0.25 0.09 c -0.152 0.012 -0.355 0.02 -0.609 0.02 h -0.523 c -0.266 0 -0.473 -0.008 -0.625 -0.02 c -0.129 -0.027 -0.219 -0.07 -0.254 -0.098 c -0.035 -0.027 -0.027 -0.027 -0.027 -0.039 c -0.016 -0.074 -0.027 -0.219 -0.027 -0.426 v -0.934 c 0 -0.035 -0.004 -0.07 -0.008 -0.105 m 3.867 0.273 v 0.766 c 0 0.262 0.012 0.48 0.047 0.684 l 0.004 0.012 c 0.047 0.238 0.168 0.438 0.301 0.551 c 0.133 0.105 0.281 0.156 0.453 0.188 c 0.004 0.004 0.012 0.004 0.016 0.004 c 0.164 0.016 0.383 0.023 0.645 0.023 v 0.145 h -8.27 v -0.145 c 0.262 0 0.48 -0.008 0.645 -0.023 c 0.008 0 0.012 0 0.016 0 c 0.18 -0.031 0.324 -0.082 0.457 -0.199 c 0.133 -0.113 0.25 -0.305 0.301 -0.539 v -0.012 c 0.039 -0.207 0.051 -0.426 0.051 -0.688 v -0.418 l 0.926 -0.059 v 0.477 c 0 0.262 0.012 0.48 0.051 0.688 v 0.012 c 0.051 0.238 0.168 0.438 0.305 0.547 c 0.129 0.109 0.277 0.16 0.449 0.191 c 0.008 0 0.012 0 0.016 0.004 c 0.168 0.012 0.391 0.02 0.668 0.02 h 0.523 c 0.266 0 0.48 -0.008 0.652 -0.02 c 0.004 0 0.008 -0.004 0.012 -0.004 c 0.18 -0.031 0.324 -0.078 0.457 -0.199 c 0.133 -0.109 0.25 -0.305 0.301 -0.539 v -0.012 c 0.039 -0.203 0.051 -0.426 0.051 -0.684 v -0.707 l 0.926 -0.059"/></g><path d="m 17.1 8.133 v 1 h 0.27 c 0.262 0 0.477 0.012 0.637 0.043 c 0.16 0.012 0.281 0.059 0.355 0.145 c 0.086 0.066 0.141 0.172 0.168 0.313 c 0.023 0.125 0.035 0.297 0.035 0.52 v 7.973 c 0.738 0 0.758 0 1.48 -0.004 v -7.969 c 0 -0.223 0.012 -0.395 0.039 -0.52 c 0.023 -0.141 0.078 -0.246 0.164 -0.313 c 0.086 -0.086 0.203 -0.133 0.355 -0.145 c 0.164 -0.031 0.379 -0.043 0.652 -0.043 h 0.523 c 0.262 0 0.477 0.012 0.637 0.043 c 0.16 0.012 0.281 0.059 0.355 0.145 c 0.086 0.066 0.141 0.172 0.168 0.313 c 0.023 0.125 0.035 0.297 0.035 0.52 v 7.965 c 0.539 0 1.109 0 1.48 -0.004 v -7.965 c 0 -0.223 0.012 -0.395 0.039 -0.52 c 0.023 -0.137 0.078 -0.242 0.164 -0.313 c 0.086 -0.082 0.203 -0.129 0.355 -0.145 c 0.164 -0.027 0.379 -0.043 0.652 -0.043 h 0.254 v -1 m -13.504 0.875 l -5.789 12.254 l 20.12 -1.313 v -1.313 c 0 0 -15.711 0.043 -15.711 0 c 0 -0.074 3.309 -7.875 3.309 -7.875 l 2.48 4.813 h 0.273 l -2.48 -6.566 m 9.836 11.617 l -1.477 0.098 v 1.125 c 0 0.234 -0.016 0.422 -0.039 0.563 c -0.027 0.125 -0.082 0.223 -0.168 0.293 c -0.074 0.066 -0.195 0.117 -0.355 0.145 c -0.16 0.012 -0.371 0.02 -0.637 0.02 h -0.523 c -0.27 0 -0.488 -0.008 -0.648 -0.02 c -0.152 -0.027 -0.273 -0.078 -0.359 -0.145 c -0.082 -0.07 -0.141 -0.168 -0.164 -0.293 c -0.023 -0.141 -0.039 -0.328 -0.039 -0.563 v -0.934 l -1.477 0.094 v 0.84 c 0 0.234 -0.016 0.422 -0.039 0.563 c -0.023 0.125 -0.082 0.223 -0.164 0.293 c -0.078 0.066 -0.195 0.117 -0.359 0.145 c -0.16 0.012 -0.371 0.02 -0.637 0.02 h -0.266 v 1.023 h 8.82 v -1.023 h -0.258 c -0.27 0 -0.488 -0.008 -0.648 -0.02 c -0.152 -0.027 -0.273 -0.078 -0.355 -0.145 c -0.086 -0.07 -0.141 -0.168 -0.168 -0.293 c -0.023 -0.141 -0.035 -0.328 -0.035 -0.563 v -1.223" fill="#fff"/></svg>