<svg xmlns="http://www.w3.org/2000/svg" xmlns:xlink="http://www.w3.org/1999/xlink" viewBox="0 0 32 32"><defs><g id="3" clip-path="url(#2)"><path d="m 14.754 11.04 c 1.051 -0.863 2.504 -1 3.848 -0.945 c 1.816 0.094 3.418 0.473 4.875 1.508 c 1.52 1.219 1.422 2.531 0.891 3.371 c 0 0 -0.262 -0.551 -0.52 -0.863 c -1.07 -1.18 -2.258 -1.012 -3.398 -1.281 c -0.168 0.281 -0.098 0.063 -0.266 0.34 l 2.266 0.59 l -0.281 0.414 c 0 0 -1.34 -0.375 -3.145 -0.594 c -0.746 -0.379 -2.648 1.078 -1.691 1.18 c 1.699 0.457 3.262 0.984 4.617 2.176 c 1.855 1.734 2.418 3.992 1.375 6.188 c -0.426 0.777 -1.129 2.082 -3.801 2.566 c -2.227 0.164 -4.703 -0.078 -6.05 -1.32 c -1.125 -1.102 -1.145 -3.074 -0.418 -4.152 c 1.375 -2.184 4.938 -1.531 4.785 -1.527 c -0.07 0.07 -2.281 0.418 -2.691 0.848 c -1.016 0.688 -1.258 2.145 -0.488 3.074 c 0.953 1.117 3.57 1.305 4.98 0.52 c 1.273 -0.629 1.785 -1.648 1.5 -2.871 c -0.137 -0.973 -1.828 -1.867 -2.801 -2.277 c -1.016 -0.523 -1.184 -0.578 -2.313 -0.652 c -1.508 -0.305 -3.082 -1.148 -3.637 -2.555 c -0.391 -1.125 0.512 -2.152 1.34 -2.871 c 0.332 -0.297 0.66 -0.594 1.02 -0.863 m 5.105 0.754 c 1.051 -0.145 -0.359 -0.91 -0.941 -0.742 c -1.563 0.211 0.484 0.934 0.941 0.742" fill="#faefe5"/><path d="m 20.793 10.449 c 0.008 -0.457 0.027 -1.207 0.027 -1.207 c -0.84 -0.426 -2.266 -0.332 -2.266 -0.332 c 0 0 0.422 0.969 0.418 1.207 c 0.176 0.598 1.258 0.223 1.82 0.332" fill="#faefe5"/><path d="m 17.641 10.234 c -0.219 -0.445 -0.438 -0.883 -0.656 -1.328 c -0.734 0.012 -1.805 0.078 -2.055 0.445 l 0.965 1.211 c 0.363 -0.016 1.379 -0.313 1.746 -0.328" fill="#faefe5"/><path d="m 15.32 10.813 l -1.355 -0.781 c -1.051 0.125 -2.074 1.336 -2.074 1.336 c 0 0 1.23 0.371 1.387 0.566 c 0.195 0.121 0.398 0.813 0.613 0.492 c 0.359 -0.313 1.07 -1.301 1.43 -1.613" fill="#faefe5"/><path d="m 13.27 12.367 c -0.543 0.082 -1.09 0.164 -1.633 0.246 c -0.797 1.281 -0.355 2.094 -0.355 2.094 c 0 0 1.281 -0.434 1.813 -0.582 c 0.059 -0.586 0.117 -1.172 0.176 -1.758" fill="#faefe5"/><path d="m 13.277 14.652 c -0.582 0.324 -1.328 0.461 -1.586 1.098 c 0.242 0.406 0.547 0.969 1.113 1.559 c 0.215 -0.645 0.777 -1.031 0.988 -1.23 c -0.117 -0.324 -0.398 -1.102 -0.516 -1.426" fill="#faefe5"/></g><clipPath id="2"><path d="M 0,0 H32 V32 H0 z"/></clipPath><filter id="0" filterUnits="objectBoundingBox" x="0" y="0" width="32" height="32"><feColorMatrix type="matrix" in="SourceGraphic" values="0 0 0 0 1 0 0 0 0 1 0 0 0 0 1 0 0 0 1 0"/></filter><mask id="1"><g filter="url(#0)"><path fill-opacity="0.102" d="M 0,0 H32 V32 H0 z"/></g></mask></defs><path d="m 29.352 8.219 c 16.957 41.18 -54.36 21.832 -19.734 -5.059 c 6.215 -4.684 16.648 -5.05 19.734 5.059" fill="#dc133c"/><use xlink:href="#3" mask="url(#1)"/><g fill="#faefe5"><path d="m 14.05 10.391 c 1.047 -0.867 2.504 -1.01 3.848 -0.949 c 1.816 0.094 3.418 0.473 4.871 1.508 c 1.523 1.219 1.426 2.531 0.891 3.371 c 0 0 -0.258 -0.551 -0.516 -0.863 c -1.07 -1.18 -2.262 -1.012 -3.398 -1.277 c -0.168 0.277 -0.098 0.059 -0.266 0.34 l 2.266 0.59 l -0.281 0.41 c 0 0 -1.344 -0.371 -3.145 -0.594 c -0.75 -0.379 -2.652 1.078 -1.691 1.18 c 1.699 0.457 3.262 0.984 4.613 2.176 c 1.859 1.738 2.418 3.996 1.379 6.188 c -0.43 0.777 -1.129 2.082 -3.805 2.566 c -2.227 0.168 -4.699 -0.074 -6.04 -1.32 c -1.125 -1.102 -1.145 -3.074 -0.418 -4.152 c 1.375 -2.18 4.934 -1.531 4.781 -1.527 c -0.066 0.07 -2.281 0.418 -2.688 0.848 c -1.016 0.688 -1.258 2.148 -0.492 3.078 c 0.953 1.117 3.574 1.301 4.984 0.516 c 1.273 -0.625 1.785 -1.648 1.5 -2.871 c -0.141 -0.973 -1.828 -1.867 -2.801 -2.277 c -1.016 -0.523 -1.184 -0.578 -2.313 -0.648 c -1.508 -0.309 -3.082 -1.152 -3.641 -2.559 c -0.387 -1.125 0.516 -2.152 1.344 -2.871 c 0.332 -0.293 0.66 -0.594 1.02 -0.863 m 5.105 0.754 c 1.047 -0.141 -0.363 -0.91 -0.945 -0.738 c -1.559 0.211 0.488 0.93 0.945 0.738"/><path d="m 20.09 9.797 c 0.008 -0.457 0.027 -1.207 0.027 -1.207 c -0.84 -0.426 -2.27 -0.332 -2.27 -0.332 c 0 0 0.426 0.969 0.422 1.211 c 0.172 0.594 1.258 0.219 1.82 0.328"/><path d="m 16.938 9.582 c -0.215 -0.441 -0.434 -0.883 -0.652 -1.324 c -0.734 0.012 -1.809 0.074 -2.055 0.441 l 0.965 1.211 c 0.363 -0.016 1.379 -0.313 1.742 -0.328"/><path d="m 14.621 10.16 l -1.355 -0.777 c -1.051 0.121 -2.074 1.332 -2.074 1.332 c 0 0 1.23 0.371 1.387 0.566 c 0.195 0.121 0.398 0.813 0.613 0.492 c 0.359 -0.309 1.066 -1.301 1.43 -1.613"/><path d="m 12.57 11.715 c -0.547 0.082 -1.09 0.164 -1.633 0.246 c -0.797 1.285 -0.359 2.098 -0.359 2.098 c 0 0 1.285 -0.438 1.816 -0.586 c 0.059 -0.586 0.117 -1.172 0.176 -1.758"/><path d="m 12.578 14 c -0.582 0.324 -1.332 0.461 -1.586 1.098 c 0.242 0.41 0.547 0.969 1.109 1.563 c 0.219 -0.648 0.777 -1.035 0.992 -1.234 c -0.117 -0.32 -0.398 -1.102 -0.516 -1.426"/></g></svg>