<svg xmlns="http://www.w3.org/2000/svg" viewBox="0 0 32 32"><path d="m 4.04 4.816 c -18.301 28.17 31.688 39.07 27.707 10.09 c -1.625 -11.82 -20.703 -20.867 -27.707 -10.09" fill="#db7e3f"/><g fill="#fff"><path d="m 25.887 21.305 l -0.633 -1.453 c -0.09 -0.203 -0.305 -0.332 -0.543 -0.332 h -2.18 c 0.285 0 0.547 -0.133 0.695 -0.352 c 1.078 -1.559 1.078 -3.539 0 -5.098 c -0.148 -0.219 -0.41 -0.348 -0.695 -0.348 h -0.727 v -1.828 h 0.375 c 0.23 0 0.422 -0.172 0.422 -0.383 v -0.418 c 0 -0.211 -0.191 -0.383 -0.422 -0.383 h -3.098 c -0.23 0 -0.422 0.172 -0.422 0.383 v 0.418 c 0 0.211 0.191 0.383 0.422 0.383 h 0.375 v 1.828 h -2.496 v -3.242 c 0 -0.289 -0.262 -0.527 -0.582 -0.527 h -8.422 c -0.324 0 -0.582 0.234 -0.582 0.527 v 0.809 c 0 0.293 0.258 0.531 0.582 0.531 h 0.648 v 7.699 h -0.648 c -0.324 0 -0.582 0.234 -0.582 0.527 v 1.453 c 0 0.293 0.258 0.531 0.582 0.531 h 1.266 v -0.004 c 0 -1.793 1.605 -3.254 3.586 -3.254 c 1.977 0 3.586 1.461 3.586 3.254 v 0.004 h 1.734 c 0.332 -1.043 1.395 -1.805 2.645 -1.805 c 1.254 0 2.313 0.762 2.645 1.805 h 1.926 c 0.191 0 0.375 -0.09 0.48 -0.234 c 0.109 -0.145 0.133 -0.328 0.063 -0.488 m -11.01 -4.57 c 0 0.273 -0.242 0.496 -0.547 0.496 h -3.246 c -0.301 0 -0.547 -0.223 -0.547 -0.496 v -2.484 c 0 -1.086 0.973 -1.969 2.172 -1.969 c 1.195 0 2.168 0.883 2.168 1.969"/><path d="m 20.773 21.04 c -0.984 0 -1.793 0.695 -1.852 1.578 c -0.379 0 -3.199 0 -3.574 0 c 0.055 -0.188 0.082 -0.387 0.082 -0.594 c 0 -1.313 -1.176 -2.379 -2.621 -2.379 c -1.449 0 -2.625 1.066 -2.625 2.379 c 0 1.316 1.176 2.379 2.625 2.379 c 0.836 0 1.582 -0.355 2.063 -0.91 c 1.527 0 2.648 0 4.254 0 c 0.309 0.543 0.93 0.91 1.648 0.91 c 1.027 0 1.855 -0.75 1.855 -1.68 c 0 -0.93 -0.828 -1.684 -1.855 -1.684"/></g></svg>