<svg xmlns="http://www.w3.org/2000/svg" viewBox="0 0 32 32"><defs><linearGradient id="0" gradientUnits="userSpaceOnUse" y1="47" x2="0" y2="1" gradientTransform="matrix(0.44104 0 0 0.45962 5.65 5.595)"><stop stop-color="#0a4c14"/><stop offset="1" stop-color="#0c5f19"/></linearGradient></defs><path d="m 26.395 4.641 c 25.23 33.3 -44.2 38.03 -21.918 4.04 c 5.082 -7.75 15.238 -12.855 21.918 -4.04" fill="#6a8e22"/><path d="m 21.664 7.895 c 2.586 1.867 4.273 4.977 4.273 8.5 c 0 5.711 -4.441 10.344 -9.926 10.344 c -3.379 0 -6.367 -1.762 -8.156 -4.453 c 0.457 0.836 1.016 1.609 1.668 2.285 c 1.801 1.703 4.195 2.742 6.82 2.742 c 5.602 0 10.145 -4.734 10.145 -10.57 c 0 -2.738 -0.996 -5.234 -2.633 -7.109 c -0.648 -0.68 -1.387 -1.262 -2.191 -1.738 m 2.191 1.738 c 1.699 1.887 2.742 4.426 2.742 7.223 c 0 5.84 -4.539 10.57 -10.145 10.57 c -2.68 0 -5.117 -1.086 -6.93 -2.855 c 1.832 1.902 4.355 3.086 7.152 3.086 c 5.602 0 10.145 -4.734 10.145 -10.57 c 0 -2.914 -1.137 -5.543 -2.965 -7.453" fill-opacity="0.051"/><path d="m 23.855 9.633 c 1.637 1.875 2.633 4.371 2.633 7.109 c 0 5.836 -4.539 10.57 -10.145 10.57 c -2.625 0 -5.02 -1.039 -6.82 -2.742 c 1.813 1.77 4.25 2.855 6.934 2.855 c 5.602 0 10.141 -4.73 10.141 -10.57 c 0 -2.793 -1.043 -5.336 -2.742 -7.223" fill-opacity="0.102"/><path d="m 19.434 6.688 c 3.797 1.449 6.504 5.246 6.504 9.711 c 0 5.711 -4.441 10.34 -9.922 10.34 c -4.281 0 -7.926 -2.816 -9.316 -6.777 c 1.539 4.938 6.289 7.98 11.211 7.18 c 4.922 -0.801 8.559 -5.207 8.582 -10.398 c -0.008 -4.594 -2.859 -8.656 -7.06 -10.05" fill-opacity="0.2"/><path d="m 6.09 16.625 c 0 -5.836 4.543 -10.57 10.145 -10.57 c 5.602 0 10.145 4.734 10.145 10.57 c 0 5.84 -4.543 10.57 -10.145 10.57 c -5.602 0 -10.145 -4.73 -10.145 -10.57" fill="url(#0)"/><g fill-opacity="0.102"><path d="m 14.473 6.219 c -0.148 0.027 -0.297 0.055 -0.441 0.09 v 10.316 h -4.41 v -8.01 c -0.152 0.133 -0.301 0.273 -0.441 0.418 v 7.59 h -3.09 c 0 0.156 0.008 0.309 0.012 0.461 h 6.164 v 5.977 h -4.078 c 0.117 0.156 0.238 0.309 0.359 0.457 h 4.16 v -6.434 h 1.324 v 9.859 c 0.145 0.031 0.293 0.063 0.441 0.09 v -9.949 h 3.527 v 9.949 c 0.148 -0.027 0.293 -0.059 0.441 -0.09 v -9.859 h 1.32 v 6.434 h 4.16 c 0.125 -0.148 0.242 -0.301 0.359 -0.457 h -4.078 v -5.977 h 6.164 c 0.008 -0.152 0.012 -0.305 0.012 -0.461 h -3.086 v -7.59 c -0.145 -0.145 -0.293 -0.285 -0.441 -0.418 v 8.01 h -4.41 v -10.316 c -0.148 -0.035 -0.293 -0.063 -0.441 -0.09 v 10.406 h -3.527 v -10.406" fill="#fff"/><path d="m 23.305 9.05 c 1.637 1.879 2.633 4.375 2.633 7.113 c 0 5.836 -4.543 10.57 -10.145 10.57 c -2.625 0 -5.02 -1.039 -6.82 -2.746 c 1.84 1.973 4.414 3.203 7.262 3.203 c 5.602 0 10.145 -4.73 10.145 -10.57 c 0 -2.969 -1.18 -5.648 -3.074 -7.57"/></g><path d="m 16.234 10.652 c -3.164 0 -5.734 2.672 -5.734 5.973 c 0 3.301 2.57 5.977 5.734 5.977 c 3.168 0 5.734 -2.676 5.734 -5.977 c 0 -3.301 -2.566 -5.973 -5.734 -5.973 m 0 1.379 c 2.438 0 4.41 2.055 4.41 4.594 c 0 2.539 -1.973 4.598 -4.41 4.598 c -2.434 0 -4.41 -2.059 -4.41 -4.598 c 0 -2.539 1.977 -4.594 4.41 -4.594" fill="#d5e592"/><path d="m 14.15 10.719 c -1.621 0.699 -2.91 2.039 -3.582 3.727 l 0.824 0.336 c -0.293 0.73 -0.445 1.512 -0.449 2.305 c 0 3.301 2.566 5.977 5.734 5.977 c 3.168 0 5.734 -2.676 5.734 -5.977 c 0 -3.301 -2.566 -5.977 -5.734 -5.977 c -0.762 0 -1.512 0.16 -2.215 0.465 l -0.316 -0.852 m 2.527 1.77 c 2.438 0 4.41 2.055 4.41 4.594 c 0 2.539 -1.973 4.598 -4.41 4.598 c -2.434 0 -4.41 -2.059 -4.41 -4.598 c 0 -2.539 1.977 -4.594 4.41 -4.594 m 0 0.457 c -2.191 0 -3.969 1.852 -3.969 4.137 c 0 2.285 1.777 4.137 3.969 4.137 c 2.195 0 3.973 -1.852 3.973 -4.137 c 0 -2.285 -1.777 -4.137 -3.973 -4.137 m -2.203 1.379 h 4.41 v 0.461 h -0.883 v 4.598 h 0.883 v 0.457 h -4.41 v -0.457 h 0.883 v -4.598 h -0.883 m 1.762 0 v 4.598 h 0.883 v -4.598" fill-opacity="0.102"/><g fill="#d9f279"><path d="m 13.707 10.262 c -1.621 0.695 -2.906 2.035 -3.582 3.723 l 2.02 0.828 c 0.582 -1.461 0.891 -1.977 2.297 -2.582"/><path d="m 16.234 12.488 c -2.191 0 -3.969 1.852 -3.969 4.137 c 0 2.285 1.777 4.137 3.969 4.137 c 2.191 0 3.969 -1.852 3.969 -4.137 c 0 -2.285 -1.777 -4.137 -3.969 -4.137 m -2.203 1.379 h 4.41 v 0.461 h -0.883 v 4.598 h 0.883 v 0.457 h -4.41 v -0.457 h 0.879 v -4.598 h -0.879 m 1.762 0 v 4.598 h 0.883 v -4.598"/><path d="m 16.234 10.652 c -3.164 0 -5.734 2.672 -5.734 5.973 c 0 3.301 2.57 5.977 5.734 5.977 c 3.168 0 5.734 -2.676 5.734 -5.977 c 0 -3.301 -2.566 -5.973 -5.734 -5.973 m 0 1.379 c 2.438 0 4.41 2.055 4.41 4.594 c 0 2.539 -1.973 4.598 -4.41 4.598 c -2.434 0 -4.41 -2.059 -4.41 -4.598 c 0 -2.539 1.977 -4.594 4.41 -4.594"/></g></svg>