<svg xmlns="http://www.w3.org/2000/svg" viewBox="0 0 32 32"><path d="m 3.406 9.84 c -10.06 13.488 6.906 25.2 22.14 20.828 c 11.355 -3.184 6.789 -34.465 -9.699 -30.02 c -4.902 1.32 -9.16 4.793 -12.441 9.195" fill="#5b1958"/><path d="m 15.582 10.934 v 2.098 c 0 0 -0.379 0.891 -1.363 2.098 c -1.367 0 -3.414 -2.797 -4.094 -5.59 c -0.684 3.492 1.363 6.285 2.727 6.984 c -0.578 0.688 -0.723 0.742 -1.363 1.398 c -0.684 0.699 -2.73 0.699 -2.73 2.098 c 0 0.484 0.176 0.969 0.449 1.395 h 3.645 l -3.211 0.551 c 0.508 0.508 1.176 0.848 1.848 0.848 c 2.73 0 4.094 -0.699 6.141 -0.699 c 2.73 0 7.508 2.098 7.508 2.098 l -2.047 -3.492 l 2.047 -1.398 l -2.047 -1.398 c 0 0 2.047 -3.492 2.047 -5.59 c -1.363 0.699 -4.094 1.398 -4.094 1.398 v -2.797 l -4.094 2.098 m -3.414 3.492 h 2.047 v 0.699 h -0.68 v 2.098 h -0.684 v -2.098 h -0.684" fill-opacity="0.102"/><path d="m 14.902 10.238 v 2.094 c 0 0 -0.383 0.891 -1.367 2.098 c -1.363 0 -3.41 -2.797 -4.094 -5.59 c -0.684 3.492 1.363 6.289 2.73 6.984 c -0.578 0.688 -0.723 0.742 -1.367 1.398 c -0.68 0.699 -2.727 0.699 -2.727 2.098 c 0 0.484 0.172 0.969 0.445 1.398 h 3.648 l -3.215 0.547 c 0.508 0.508 1.18 0.848 1.848 0.848 c 2.73 0 4.098 -0.699 6.145 -0.699 c 2.727 0 7.504 2.098 7.504 2.098 l -2.047 -3.492 l 2.047 -1.398 l -2.047 -1.398 c 0 0 2.047 -3.492 2.047 -5.59 c -1.363 0.699 -4.094 1.398 -4.094 1.398 v -2.793 l -4.094 2.094 m -3.414 3.492 h 2.051 v 0.699 h -0.684 v 2.098 h -0.684 v -2.098 h -0.684" fill="#f296f5"/></svg>