<svg xmlns="http://www.w3.org/2000/svg" viewBox="0 0 32 32"><path d="m 0.281 15.965 c -2.402 -21.22 32.01 -20.922 31.602 0.379 c 1.133 19.813 -33.477 21.598 -31.602 -0.379" fill="#a04"/><path d="m 7.969 11.03 l 0.453 11 l 7.09 4.512 l 7.898 -4.793 l 0.066 -10.625 l -2.855 -1.723 l -9.621 -0.355" fill="#d41919" fill-rule="evenodd"/><path d="m 3.344 11.805 h 24.953 v 8.711 h -24.953" fill="#ffc82d"/><path d="m 11.258 7.508 h 8.582 v 4.59 h -8.582" fill="#fff"/><path d="m 15.23 26.766 c -0.254 -0.07 -3.137 -1.824 -3.289 -2.01 c -0.07 -0.086 -0.504 -0.375 -0.965 -0.648 c -0.457 -0.27 -0.887 -0.551 -0.953 -0.625 c -0.086 -0.102 -0.141 -0.078 -0.199 0.082 c -0.047 0.121 -0.168 0.219 -0.266 0.219 c -0.148 0 -0.176 -0.063 -0.141 -0.32 c 0.043 -0.332 0.023 -0.355 -1.141 -1.102 c -0.215 -0.137 -0.285 -0.266 -0.285 -0.508 c 0 -0.305 -0.023 -0.32 -0.461 -0.301 c -0.254 0.012 -0.504 0.031 -0.551 0.047 c -0.047 0.016 -0.988 0.02 -2.086 0.012 l -1.996 -0.016 l 0.035 -1.125 c 0.02 -0.621 0.039 -2.934 0.043 -5.145 l 0.008 -4.02 h 0.895 c 0.488 0 0.867 -0.035 0.836 -0.078 c -0.082 -0.125 0.152 -0.406 0.387 -0.461 c 0.137 -0.027 0.281 0.063 0.406 0.254 c 0.109 0.16 0.316 0.309 0.461 0.324 c 0.148 0.016 0.266 0.07 0.266 0.121 c 0 0.145 0.332 0.117 0.395 -0.031 c 0.031 -0.07 0.266 -0.129 0.527 -0.129 c 0.445 0 0.473 -0.016 0.527 -0.371 c 0.039 -0.262 0.137 -0.422 0.336 -0.539 c 0.301 -0.176 0.895 -0.559 1.707 -1.098 c 0.277 -0.184 0.652 -0.422 0.832 -0.527 l 0.332 -0.195 v -1.645 h 9.746 v 0.965 c 0 0.594 0.039 0.965 0.094 0.965 c 0.051 0 0.262 0.113 0.469 0.254 c 0.207 0.137 0.461 0.219 0.566 0.176 c 0.137 -0.051 0.191 -0.016 0.191 0.133 c 0 0.27 0.273 0.473 0.512 0.383 c 0.125 -0.047 0.191 -0.016 0.191 0.102 c 0 0.219 0.93 0.867 1.063 0.746 c 0.055 -0.051 0.242 -0.004 0.418 0.105 c 0.324 0.195 0.973 0.188 3.578 -0.047 l 0.887 -0.082 l 0.055 1.145 c 0.113 2.324 0.34 9.07 0.305 9.121 c -0.02 0.027 -0.578 0.094 -1.238 0.141 c -1.016 0.074 -1.203 0.121 -1.207 0.293 c -0.004 0.184 -0.016 0.18 -0.117 -0.012 c -0.102 -0.199 -0.227 -0.211 -1.293 -0.102 c -0.648 0.063 -1.188 0.121 -1.199 0.121 c -0.012 0.004 -0.023 0.141 -0.023 0.309 c 0 0.246 -0.094 0.367 -0.504 0.629 c -0.875 0.563 -3.266 2.027 -3.313 2.027 c -0.023 0 -0.313 0.18 -0.637 0.398 c -0.328 0.223 -0.871 0.563 -1.211 0.762 c -0.34 0.199 -0.852 0.523 -1.141 0.719 c -0.289 0.195 -0.547 0.363 -0.57 0.371 c -0.027 0.008 -0.184 0.078 -0.352 0.16 c -0.293 0.141 -0.543 0.156 -0.93 0.055 m 0.75 -1.273 c 0.004 -0.402 0.145 -0.363 0.254 0.063 l 0.086 0.355 l 0.02 -0.355 c 0.008 -0.195 0.023 -0.426 0.031 -0.516 c 0.004 -0.086 -0.035 -0.234 -0.098 -0.324 c -0.059 -0.09 -0.086 -0.242 -0.063 -0.332 c 0.055 -0.207 -0.188 -0.52 -0.312 -0.406 c -0.051 0.047 -0.09 0.539 -0.09 1.137 c 0 0.727 0.027 0.992 0.086 0.859 c 0.047 -0.105 0.086 -0.324 0.086 -0.48 m -0.965 -0.887 c 0 -0.801 -0.02 -0.938 -0.113 -0.797 c -0.082 0.121 -0.105 0.43 -0.078 1.035 c 0.051 1.16 0.191 0.98 0.191 -0.238 m 0.699 0.047 l -0.008 -1.059 l -0.117 0.551 c -0.063 0.301 -0.094 0.777 -0.07 1.059 c 0.082 0.891 0.199 0.555 0.195 -0.551 m -1.109 0.621 c 0.121 0.07 0.148 0 0.148 -0.383 c 0 -0.258 -0.059 -0.672 -0.129 -0.918 c -0.07 -0.242 -0.09 -0.445 -0.043 -0.445 c 0.047 0 0.082 -0.117 0.082 -0.266 c 0 -0.207 -0.035 -0.246 -0.176 -0.184 c -0.098 0.047 -0.172 0.023 -0.172 -0.055 c 0 -0.078 0.035 -0.137 0.082 -0.137 c 0.047 0 0.066 -0.082 0.039 -0.184 c -0.027 -0.109 0.023 -0.215 0.133 -0.266 c 0.102 -0.047 0.184 -0.156 0.184 -0.242 c 0 -0.137 0.207 -0.172 0.594 -0.102 c 0.176 0.031 0.125 0.25 -0.078 0.348 c -0.141 0.066 -0.16 0.113 -0.07 0.191 c 0.063 0.059 0.148 0.078 0.188 0.043 c 0.043 -0.039 0.195 -0.027 0.34 0.02 c 0.184 0.059 0.254 0.145 0.223 0.266 c -0.031 0.121 0.012 0.18 0.133 0.18 c 0.105 0 0.164 0.066 0.141 0.164 c -0.023 0.086 -0.082 0.148 -0.133 0.133 c -0.051 -0.016 -0.137 0.055 -0.195 0.16 c -0.078 0.133 -0.078 0.188 -0.012 0.188 c 0.055 0 0.102 -0.066 0.102 -0.148 c 0 -0.082 0.027 -0.109 0.066 -0.055 c 0.035 0.055 0.063 0.16 0.063 0.234 c 0 0.078 0.051 0.164 0.113 0.195 c 0.066 0.031 0.09 -0.023 0.055 -0.152 c -0.082 -0.313 0.195 -0.25 0.355 0.078 c 0.109 0.238 0.113 0.316 0.016 0.484 c -0.121 0.211 -0.25 0.652 -0.188 0.652 c 0.02 0 0.137 -0.07 0.262 -0.152 c 0.277 -0.184 0.289 -0.57 0.039 -1.289 c -0.148 -0.426 -0.16 -0.547 -0.066 -0.637 c 0.078 -0.07 0.168 -0.023 0.266 0.148 c 0.152 0.273 0.336 0.34 0.336 0.125 c 0 -0.07 0.059 -0.125 0.133 -0.125 c 0.07 0 0.129 -0.059 0.129 -0.129 c 0 -0.344 0.289 -0.059 0.613 0.598 c 0.418 0.859 0.461 0.754 0.094 -0.227 c -0.289 -0.77 -0.336 -1.145 -0.133 -1.145 c 0.156 0 0.152 0.008 0.043 -0.465 l -0.09 -0.371 l -1.074 0.094 c -1.234 0.109 -1.223 0.109 -2.75 0.023 l -1.148 -0.066 l -0.156 0.98 c -0.086 0.539 -0.145 1 -0.125 1.023 c 0.016 0.023 0.277 0.25 0.578 0.5 l 0.547 0.453 l 0.055 -0.305 c 0.059 -0.348 0.297 -0.551 0.297 -0.25 c 0 0.105 -0.063 0.227 -0.137 0.27 c -0.113 0.063 -0.117 0.098 -0.023 0.188 c 0.086 0.082 0.074 0.109 -0.059 0.113 c -0.152 0.008 -0.141 0.051 0.09 0.328 c 0.145 0.18 0.191 0.285 0.109 0.238 c -0.105 -0.055 -0.156 -0.016 -0.156 0.117 c 0 0.223 0.195 0.363 0.273 0.191 c 0.027 -0.063 0.117 -0.074 0.195 -0.031 m 0.777 -0.023 c 0.016 -0.117 0.016 -0.523 0 -0.902 c -0.023 -0.488 -0.066 -0.691 -0.152 -0.691 c -0.156 0 -0.164 0.211 -0.016 0.313 c 0.09 0.059 0.09 0.09 0 0.148 c -0.16 0.113 -0.148 1.34 0.016 1.34 c 0.07 0 0.137 -0.094 0.152 -0.207 m -1.332 -0.324 c 0 -0.191 -0.352 -0.582 -0.797 -0.887 c -0.379 -0.262 -0.457 -0.277 -0.523 -0.117 c -0.125 0.281 -0.121 0.285 0.484 0.711 c 0.559 0.395 0.836 0.492 0.836 0.293 m -1.621 -1.348 c -0.215 -0.313 -0.234 -0.242 -0.141 0.449 c 0.004 0.027 0.063 -0.023 0.137 -0.109 c 0.109 -0.137 0.109 -0.184 0.004 -0.34 m -0.398 -0.082 c 0 -0.25 -0.137 -0.363 -1.031 -0.863 c -0.57 -0.313 -1.133 -0.648 -1.254 -0.738 c -0.27 -0.203 -0.527 -0.215 -0.527 -0.023 c 0 0.078 0.055 0.113 0.117 0.074 c 0.066 -0.035 0.164 0.047 0.223 0.18 c 0.055 0.137 0.141 0.246 0.191 0.246 c 0.047 0 0.453 0.25 0.898 0.555 c 1.465 1 1.383 0.969 1.383 0.57 m -2.371 -1.391 c 0 -0.074 0.039 -0.102 0.086 -0.055 c 0.051 0.043 0.09 0.102 0.09 0.133 c 0 0.031 -0.039 0.059 -0.09 0.059 c -0.047 0 -0.086 -0.063 -0.086 -0.137 m 3.07 0.762 c 0.004 -0.328 -0.246 -0.395 -0.355 -0.094 c -0.074 0.211 -0.063 0.297 0.066 0.434 c 0.176 0.188 0.289 0.055 0.289 -0.34 m -0.523 -0.078 c 0 -0.055 0.059 -0.371 0.129 -0.707 l 0.125 -0.613 h -1 c -0.555 0 -1.01 0.047 -1.01 0.098 c 0 0.117 1.492 1.305 1.648 1.313 c 0.059 0.004 0.109 -0.035 0.109 -0.09 m 7.992 -0.102 c 0 -0.039 -0.074 -0.285 -0.164 -0.547 c -0.09 -0.262 -0.145 -0.551 -0.125 -0.637 c 0.027 -0.109 -0.051 -0.164 -0.227 -0.164 c -0.203 0 -0.258 0.051 -0.219 0.195 c 0.027 0.105 0.102 0.191 0.16 0.191 c 0.059 0 0.18 0.234 0.266 0.516 c 0.137 0.434 0.309 0.688 0.309 0.445 m -0.996 -0.801 c -0.172 -0.516 -0.199 -0.547 -0.559 -0.547 h -0.375 l 0.141 0.426 c 0.148 0.465 0.391 0.684 0.746 0.676 l 0.23 -0.008 m -6.527 -0.277 c 0.051 -0.191 -0.07 -0.422 -0.227 -0.426 c -0.117 -0.004 -0.164 0.43 -0.055 0.531 c 0.164 0.152 0.219 0.133 0.281 -0.105 m 9.07 -0.355 c 0.008 -0.328 -0.023 -0.422 -0.113 -0.371 c -0.07 0.035 -0.125 0.125 -0.125 0.199 c 0 0.074 -0.055 0.063 -0.129 -0.031 c -0.109 -0.129 -0.133 -0.121 -0.133 0.051 c 0 0.121 0.07 0.207 0.18 0.207 c 0.098 0 0.199 0.086 0.227 0.195 c 0.074 0.273 0.086 0.246 0.094 -0.25 m -0.723 0.102 c 0.074 0.039 0.133 0.023 0.133 -0.043 c 0 -0.063 -0.078 -0.152 -0.176 -0.195 c -0.094 -0.047 -0.176 -0.137 -0.176 -0.203 c 0 -0.066 -0.098 -0.121 -0.219 -0.121 c -0.219 0 -0.223 0.008 -0.082 0.398 c 0.113 0.32 0.16 0.363 0.262 0.242 c 0.07 -0.086 0.188 -0.121 0.258 -0.078 m 1.102 -0.023 c 0 -0.055 -0.059 -0.215 -0.129 -0.352 c -0.133 -0.254 -0.18 -0.113 -0.082 0.254 c 0.055 0.211 0.211 0.285 0.211 0.098 m 0.098 -0.445 c -0.074 -0.105 -0.098 -0.09 -0.098 0.055 c 0 0.254 0.117 0.426 0.16 0.234 c 0.02 -0.078 -0.008 -0.211 -0.063 -0.289 m -4.449 -1.246 c 0.59 -0.199 0.598 -0.25 0.531 -3.219 c -0.066 -2.984 -0.137 -3.707 -0.367 -3.957 c -0.113 -0.125 -0.43 -0.168 -1.109 -0.152 c -0.52 0.012 -0.973 -0.016 -1 -0.059 c -0.027 -0.043 -0.285 -0.078 -0.566 -0.078 h -0.512 v 0.609 c 0 1.043 -0.109 2.734 -0.176 2.734 c -0.035 0 -0.09 -0.594 -0.125 -1.32 c -0.09 -2.102 -0.066 -2.023 -0.629 -2.023 c -0.309 0 -0.492 0.055 -0.516 0.16 c -0.02 0.086 -0.086 1.027 -0.145 2.09 l -0.113 1.93 l -0.109 -1.93 c -0.059 -1.063 -0.109 -2 -0.113 -2.09 c -0.004 -0.109 -0.176 -0.16 -0.547 -0.16 h -0.539 l 0.063 0.609 c 0.141 1.477 0.578 6.496 0.578 6.664 c 0 0.145 0.137 0.188 0.605 0.188 h 0.609 l 0.063 -1.254 c 0.035 -0.691 0.09 -1.516 0.121 -1.832 c 0.055 -0.512 0.07 -0.426 0.125 0.707 c 0.035 0.707 0.086 1.531 0.117 1.832 l 0.047 0.547 h 1.176 l 0.191 -2.348 c 0.109 -1.293 0.199 -2.523 0.207 -2.734 c 0.02 -0.988 0.148 0.797 0.207 2.926 l 0.063 2.285 l 0.762 -0.004 c 0.414 0 0.914 -0.055 1.105 -0.121 m -0.777 -1.645 c -0.023 -0.266 -0.074 -1.367 -0.105 -2.445 c -0.051 -1.754 -0.043 -1.961 0.086 -1.961 c 0.117 0 0.141 0.18 0.148 1.125 c 0.004 0.621 0.035 1.66 0.066 2.316 c 0.031 0.656 0.047 1.25 0.027 1.32 c -0.063 0.281 -0.176 0.102 -0.223 -0.355 m -11.121 1.41 c 0.18 -0.215 0.191 -0.328 0.184 -1.742 c -0.008 -0.926 -0.051 -1.605 -0.117 -1.758 c -0.055 -0.137 -0.281 -0.383 -0.504 -0.551 c -0.367 -0.277 -0.449 -0.293 -1.078 -0.184 c -0.375 0.066 -0.68 0.168 -0.68 0.227 c 0 0.141 0.273 0.43 0.859 0.91 l 0.465 0.379 l -0.023 0.863 c -0.035 1.113 -0.191 1.07 -0.246 -0.066 l -0.047 -0.871 h -1.051 l -0.027 1.191 c -0.023 1.121 -0.012 1.211 0.195 1.512 c 0.203 0.297 0.281 0.32 1.047 0.32 c 0.664 0 0.867 -0.047 1.023 -0.23 m 1.668 -1.508 c 0 -1.457 0.023 -1.734 0.133 -1.734 c 0.109 0 0.133 0.277 0.133 1.734 v 1.738 h 1.055 v -0.613 c 0.004 -1.141 0.004 -6.27 0 -6.559 c 0 -0.27 -0.043 -0.289 -0.527 -0.289 h -0.527 v 2.297 l 0.504 -0.051 l 0.504 -0.047 l -0.473 0.109 c -0.258 0.063 -0.504 0.188 -0.547 0.285 c -0.055 0.129 -0.109 0.137 -0.227 0.035 c -0.094 -0.082 -0.359 -0.109 -0.641 -0.066 l -0.484 0.074 l -0.023 2.414 l -0.023 2.41 h 1.145 m 4.01 -0.27 c 0.152 -0.254 0.164 -0.508 0.164 -3.473 c 0 -3.883 0.082 -3.637 -1.184 -3.699 c -0.836 -0.043 -0.879 -0.031 -1.094 0.281 c -0.188 0.273 -0.223 0.449 -0.223 1.043 c 0 0.648 0.016 0.715 0.195 0.73 l 0.199 0.02 l -0.203 0.055 l -0.203 0.059 l 0.027 2.379 c 0.035 2.957 -0.004 2.875 1.297 2.875 c 0.758 0 0.875 -0.031 1.023 -0.27 m -1.195 -3.461 c 0 -2.09 0.02 -2.445 0.133 -2.445 c 0.07 0 0.129 0.113 0.129 0.25 c 0 0.172 0.074 0.266 0.242 0.301 l 0.242 0.055 l -0.484 0.039 v 2.121 c 0 1.801 -0.02 2.121 -0.129 2.121 c -0.113 0 -0.133 -0.355 -0.133 -2.441 m -0.461 -1.758 c 0.059 -0.035 0.16 -0.035 0.219 0 c 0.059 0.035 0.012 0.063 -0.109 0.063 c -0.121 0 -0.172 -0.027 -0.109 -0.063 m 10.922 5.301 c 0.191 -0.113 0.34 -0.629 0.34 -1.172 v -0.441 h -0.559 c -0.508 0 -0.566 0.027 -0.613 0.285 c -0.125 0.695 -0.219 -0.121 -0.277 -2.375 c -0.043 -1.609 -0.035 -2.414 0.027 -2.414 c 0.137 0 0.168 0.234 0.184 1.352 c 0.008 0.566 0.035 1.477 0.066 2.027 l 0.055 0.996 h 1.141 l -0.055 -0.676 c -0.027 -0.371 -0.074 -1.504 -0.109 -2.516 c -0.074 -2.41 -0.074 -2.406 -1.195 -2.406 c -0.641 0 -0.875 0.051 -1.059 0.23 c -0.23 0.219 -0.238 0.27 -0.238 1.348 c 0 0.621 0.039 2.078 0.09 3.246 c 0.09 2.059 0.102 2.133 0.328 2.43 c 0.215 0.285 0.281 0.301 0.984 0.238 c 0.41 -0.035 0.813 -0.105 0.891 -0.152 m 2.273 -2 c 0.043 -1.84 0.074 -1.871 0.223 -0.227 l 0.051 0.613 h 1.371 l 0.098 -1.512 c 0.055 -0.832 0.125 -2.121 0.16 -2.863 c 0.086 -1.848 0.176 -1.164 0.254 1.961 l 0.063 2.414 h 0.988 l -0.02 -0.867 l -0.02 -0.871 l 0.168 0.82 c 0.094 0.449 0.18 0.836 0.195 0.852 c 0.016 0.016 0.297 0.07 0.629 0.117 l 0.605 0.086 l -0.055 -1.258 c -0.027 -0.691 -0.078 -2.148 -0.109 -3.238 l -0.059 -1.977 l -0.43 0.063 c -0.234 0.031 -0.453 0.094 -0.48 0.137 c -0.027 0.043 -0.047 0.672 -0.039 1.398 c 0.012 0.727 -0.004 1.289 -0.027 1.254 c -0.027 -0.039 -0.145 -0.645 -0.258 -1.348 l -0.211 -1.281 l -1.043 0.047 c -0.574 0.027 -1.063 0.07 -1.082 0.102 c -0.023 0.027 -0.063 0.961 -0.09 2.074 l -0.047 2.023 l -0.117 -1.285 c -0.063 -0.707 -0.152 -1.633 -0.203 -2.059 l -0.086 -0.773 l -0.5 0.066 l -0.5 0.063 l -0.055 1.672 c -0.027 0.922 -0.063 1.703 -0.074 1.738 c -0.012 0.035 -0.094 -0.707 -0.18 -1.648 c -0.086 -0.938 -0.168 -1.73 -0.188 -1.754 c -0.016 -0.027 -0.254 -0.008 -0.523 0.039 l -0.492 0.082 l 0.316 2.754 c 0.277 2.398 0.34 2.77 0.492 2.855 c 0.148 0.082 0.152 0.102 0.023 0.109 c -0.184 0.008 -0.184 0.051 -0.059 0.906 l 0.094 0.656 l 0.586 -0.039 l 0.586 -0.035 m -0.938 -1.57 c 0.063 -0.035 0.137 -0.031 0.168 0.012 c 0.027 0.043 -0.023 0.074 -0.117 0.066 c -0.102 -0.004 -0.121 -0.035 -0.051 -0.078 m 2.563 1.344 c 0 -0.09 0.027 -0.379 0.055 -0.645 l 0.055 -0.48 h -1.383 l 0.031 0.641 l 0.027 0.645 h 0.609 c 0.426 0 0.605 -0.047 0.605 -0.16 m 1.668 -0.469 c 0 -0.547 -0.109 -0.652 -0.68 -0.656 c -0.281 0 -0.285 0.012 -0.285 0.578 v 0.578 h 0.965 m 1.172 -0.082 c 0.395 -0.078 0.41 -0.098 0.41 -0.516 v -0.43 h -1.246 l 0.063 0.418 c 0.102 0.684 0.078 0.668 0.773 0.527 m -22.828 -4.086 c 0.047 -0.016 0.074 -0.359 0.059 -0.762 c -0.016 -0.594 0.004 -0.73 0.117 -0.73 c 0.109 0 0.137 0.152 0.137 0.723 v 0.727 l 0.332 -0.078 c 0.18 -0.047 0.418 -0.082 0.523 -0.082 c 0.191 -0.004 0.199 -0.051 0.199 -1 c 0 -0.547 -0.031 -1.059 -0.066 -1.137 c -0.145 -0.316 -0.484 -0.438 -1.207 -0.438 c -0.684 0 -0.773 0.027 -0.969 0.316 c -0.195 0.281 -0.219 0.418 -0.219 1.391 c 0 0.594 0.023 1.109 0.047 1.145 c 0.039 0.063 0.836 0.004 1.047 -0.074 m 2.531 -0.418 l 0.328 -0.078 v -2.281 h -1.141 v 2.441 h 0.242 c 0.133 0 0.391 -0.035 0.57 -0.082 m 3.426 -3.859 c 0.219 -0.059 0.242 -0.117 0.242 -0.637 c 0 -0.383 -0.043 -0.598 -0.129 -0.645 c -0.066 -0.039 -0.102 -0.152 -0.078 -0.254 c 0.027 -0.102 0.004 -0.184 -0.047 -0.184 c -0.055 0 -0.098 0.059 -0.098 0.129 c 0 0.07 -0.031 0.121 -0.066 0.109 c -0.035 -0.012 -0.184 0.055 -0.328 0.148 c -0.148 0.094 -0.316 0.156 -0.375 0.145 c -0.059 -0.016 -0.109 0.031 -0.109 0.102 c 0 0.07 -0.137 0.168 -0.309 0.211 c -0.184 0.051 -0.281 0.141 -0.246 0.223 c 0.035 0.086 0 0.105 -0.09 0.055 c -0.098 -0.055 -0.188 0.027 -0.281 0.27 c -0.078 0.191 -0.117 0.246 -0.094 0.121 c 0.027 -0.121 0.008 -0.223 -0.039 -0.223 c -0.047 0 -0.082 0.023 -0.082 0.051 c 0 0.031 -0.023 0.141 -0.051 0.246 c -0.031 0.121 0.012 0.219 0.109 0.258 c 0.176 0.074 1.688 -0.016 2.07 -0.125 m 2.938 -0.254 c 0.137 -0.148 0.293 -0.406 0.355 -0.574 c 0.102 -0.293 0.109 -0.281 0.109 0.234 c 0 0.48 0.023 0.547 0.199 0.551 c 0.109 0 0.285 0.035 0.395 0.078 c 0.191 0.078 0.199 0.055 0.199 -0.965 v -1.047 h -0.375 c -0.352 0 -0.383 -0.031 -0.523 -0.52 c -0.199 -0.707 -0.539 -0.895 -1.594 -0.895 c -0.676 0 -0.84 0.039 -0.883 0.203 c -0.07 0.273 -0.066 2.805 0.004 3.082 c 0.051 0.188 0.176 0.211 0.965 0.168 c 0.742 -0.043 0.949 -0.098 1.148 -0.316 m -1.203 -1.398 c 0 -0.691 0.004 -0.707 0.25 -0.707 c 0.262 0 0.539 0.336 0.539 0.656 c 0 0.375 -0.266 0.758 -0.531 0.758 c -0.254 0 -0.258 -0.012 -0.258 -0.707 m 3.512 1.148 c 0 -0.586 0.004 -0.586 0.285 -0.547 c 0.258 0.035 0.293 0.094 0.363 0.586 l 0.082 0.547 h 0.41 c 0.227 0 0.434 -0.031 0.461 -0.066 c 0.059 -0.09 -0.105 -1.242 -0.207 -1.426 c -0.133 -0.246 0.172 -0.949 0.414 -0.949 c 0.211 0 0.211 0.012 0.211 1.219 v 1.223 h 0.969 v -2.441 h 0.352 c 0.352 0 0.352 0 0.352 -0.516 v -0.516 h -1.188 c -0.758 0 -1.184 0.047 -1.184 0.133 c 0 0.094 -0.055 0.094 -0.172 0 c -0.094 -0.074 -0.605 -0.133 -1.141 -0.133 h -0.973 v 1.652 c 0 0.906 0.027 1.688 0.059 1.734 c 0.031 0.047 0.25 0.086 0.484 0.086 h 0.422 m 0 -2.316 c 0 -0.23 0.047 -0.266 0.285 -0.23 c 0.184 0.023 0.285 0.109 0.285 0.23 c 0 0.125 -0.102 0.211 -0.285 0.234 c -0.238 0.035 -0.285 0 -0.285 -0.234 m -7.551 2.059 c 0 -0.07 -0.02 -0.125 -0.039 -0.125 c -0.023 0 -0.066 0.055 -0.094 0.125 c -0.031 0.074 -0.012 0.129 0.039 0.129 c 0.051 0 0.094 -0.055 0.094 -0.129 m 13.633 0 c 0.223 -0.02 0.191 -0.336 -0.043 -0.449 c -0.109 -0.051 -0.219 -0.102 -0.242 -0.117 c -0.074 -0.035 -0.738 -0.477 -0.879 -0.582 c -0.07 -0.055 -0.211 -0.055 -0.305 -0.004 c -0.098 0.051 -0.324 0.066 -0.508 0.039 l -0.328 -0.055 v 1.32 l 1.078 -0.07 c 0.59 -0.035 1.145 -0.074 1.227 -0.082 m 0.594 -0.047 c 0 -0.027 -0.078 -0.082 -0.176 -0.117 c -0.098 -0.035 -0.176 -0.016 -0.176 0.051 c 0 0.063 0.078 0.113 0.176 0.113 c 0.098 0 0.176 -0.02 0.176 -0.047 m -7.914 -2.398 c 0.102 -0.285 0.184 -0.574 0.184 -0.645 c 0 -0.07 -0.195 -0.125 -0.438 -0.125 h -0.441 l 0.223 0.645 c 0.121 0.352 0.238 0.641 0.254 0.641 c 0.02 0 0.117 -0.23 0.219 -0.516 m 4.605 16.652 c -0.027 -0.109 -0.012 -0.262 0.043 -0.336 c 0.125 -0.188 0.375 -0.027 0.316 0.203 c -0.074 0.281 -0.301 0.363 -0.359 0.133 m 4.227 -0.316 c -0.082 -0.199 0.031 -0.324 0.145 -0.16 c 0.063 0.094 0.066 0.164 0.004 0.219 c -0.047 0.043 -0.113 0.02 -0.148 -0.059 m -0.918 -0.945 c 0 -0.027 0.059 -0.082 0.133 -0.125 c 0.07 -0.039 0.129 -0.016 0.129 0.051 c 0 0.07 -0.059 0.125 -0.129 0.125 c -0.074 0 -0.133 -0.023 -0.133 -0.051 m -15.633 -1.234 c 0 -0.07 0.109 -0.129 0.242 -0.129 c 0.188 0.004 0.211 0.031 0.109 0.129 c -0.172 0.16 -0.352 0.16 -0.352 0 m 17.09 -0.246 c -0.027 -0.066 -0.012 -0.156 0.031 -0.199 c 0.047 -0.039 0.109 -0.02 0.137 0.047 c 0.027 0.066 0.012 0.156 -0.031 0.199 c -0.047 0.039 -0.109 0.02 -0.137 -0.047 m 0.363 0.031 c -0.117 -0.172 -0.055 -0.43 0.102 -0.43 c 0.207 0 0.277 0.109 0.219 0.336 c -0.051 0.188 -0.223 0.238 -0.32 0.094 m 1.258 -0.688 c 0 -0.07 0.043 -0.129 0.094 -0.129 c 0.051 0 0.066 0.059 0.039 0.129 c -0.031 0.07 -0.074 0.129 -0.094 0.129 c -0.023 0 -0.039 -0.059 -0.039 -0.129 m -2.063 -12.223 c -0.031 -0.07 -0.016 -0.129 0.035 -0.129 c 0.055 0 0.094 0.059 0.094 0.129 c 0 0.07 -0.016 0.129 -0.039 0.129 c -0.02 0 -0.063 -0.059 -0.09 -0.129 m -1.449 -0.129 c 0 -0.07 0.039 -0.129 0.086 -0.129 c 0.047 0 0.09 0.059 0.09 0.129 c 0 0.07 -0.043 0.129 -0.09 0.129 c -0.047 0 -0.086 -0.059 -0.086 -0.129"/><path d="m 12.527 7.344 c -0.676 0 -0.84 0.039 -0.883 0.203 c -0.039 0.152 -0.055 0.977 -0.051 1.742 c 0.004 -0.598 0.02 -1.137 0.051 -1.254 c 0.043 -0.164 0.207 -0.203 0.883 -0.203 c 1.055 0 1.391 0.188 1.594 0.898 c 0.141 0.484 0.172 0.516 0.523 0.516 h 0.371 v -0.484 h -0.242 c -0.078 0.203 -0.145 0.359 -0.16 0.359 c -0.012 0 -0.078 -0.156 -0.156 -0.371 c -0.184 -0.027 -0.227 -0.129 -0.336 -0.508 c -0.203 -0.707 -0.539 -0.898 -1.598 -0.898 m 1.613 0 l 0.168 0.488 h 0.27 c 0.137 0 0.258 0.02 0.336 0.047 c 0.063 -0.195 0.105 -0.359 0.105 -0.41 c 0 -0.066 -0.199 -0.125 -0.441 -0.125 m 0.531 0 v 0.488 h 0.973 c 0.531 0 1.047 0.059 1.141 0.133 c 0.117 0.094 0.168 0.094 0.168 0 c 0 -0.086 0.43 -0.133 1.188 -0.133 h 1.184 v -0.488 h -1.184 c -0.758 0 -1.188 0.051 -1.188 0.133 c 0 0.094 -0.051 0.094 -0.168 0 c -0.094 -0.07 -0.609 -0.133 -1.141 -0.133 m 0.133 1.402 c -0.117 0.008 -0.141 0.07 -0.141 0.242 c 0 0.234 0.043 0.27 0.285 0.234 c 0.184 -0.023 0.285 -0.109 0.285 -0.234 c 0 -0.121 -0.102 -0.207 -0.285 -0.23 c -0.059 -0.008 -0.109 -0.012 -0.145 -0.012 m -5.402 0.27 c -0.051 0 -0.094 0.059 -0.094 0.129 c 0 0.07 -0.031 0.121 -0.066 0.109 c -0.039 -0.012 -0.188 0.055 -0.332 0.148 c -0.145 0.094 -0.313 0.16 -0.371 0.145 c -0.063 -0.016 -0.109 0.031 -0.109 0.102 c 0 0.07 -0.141 0.168 -0.309 0.215 c -0.184 0.051 -0.281 0.137 -0.25 0.219 c 0.039 0.086 0.004 0.105 -0.086 0.055 c -0.102 -0.055 -0.188 0.027 -0.285 0.27 c -0.074 0.191 -0.117 0.246 -0.09 0.121 c 0.027 -0.121 0.008 -0.223 -0.039 -0.223 c -0.047 0 -0.086 0.023 -0.086 0.055 c 0 0.027 -0.02 0.141 -0.051 0.246 c -0.023 0.09 0 0.172 0.059 0.223 c 0.012 -0.02 0.043 -0.035 0.078 -0.035 c 0.027 0 0.043 0.031 0.051 0.082 c 0.023 0.004 0.051 0.004 0.086 0.008 c 0.094 -0.23 0.18 -0.313 0.277 -0.258 c 0.09 0.051 0.125 0.031 0.086 -0.055 c -0.031 -0.082 0.066 -0.172 0.25 -0.223 c 0.168 -0.043 0.309 -0.141 0.309 -0.211 c 0 -0.07 0.047 -0.117 0.109 -0.102 c 0.059 0.016 0.227 -0.051 0.371 -0.145 c 0.145 -0.094 0.293 -0.16 0.332 -0.148 c 0.035 0.012 0.066 -0.039 0.066 -0.109 c 0 -0.07 0.043 -0.129 0.094 -0.129 c 0.055 0 0.078 0.082 0.051 0.184 c -0.027 0.102 0.008 0.215 0.078 0.254 c 0.066 0.035 0.109 0.184 0.121 0.438 c 0.004 -0.074 0.004 -0.168 0.004 -0.281 c 0 -0.379 -0.039 -0.598 -0.125 -0.645 c -0.07 -0.039 -0.105 -0.152 -0.078 -0.254 c 0.027 -0.102 0.004 -0.184 -0.051 -0.184 m 2.496 0.281 c -0.086 0.27 -0.289 0.492 -0.488 0.492 c -0.223 0 -0.254 -0.008 -0.258 -0.461 c 0 0.07 0 0.148 0 0.242 c 0 0.695 0.004 0.707 0.258 0.707 c 0.262 0 0.531 -0.383 0.531 -0.758 c 0 -0.074 -0.016 -0.152 -0.043 -0.223 m 4.18 0.07 c -0.055 0.172 -0.074 0.348 -0.02 0.445 c 0.063 0.113 0.145 0.578 0.188 0.949 c 0.008 -0.004 0.016 -0.008 0.016 -0.012 c 0.059 -0.086 -0.082 -1.109 -0.184 -1.383 m 3.359 0 c -0.055 0 -0.113 0.012 -0.16 0.039 c -0.098 0.051 -0.324 0.066 -0.508 0.039 l -0.328 -0.055 v 0.488 l 0.328 0.055 c 0.184 0.027 0.41 0.012 0.508 -0.039 c 0.094 -0.051 0.234 -0.051 0.305 0.004 c 0.141 0.105 0.805 0.547 0.879 0.582 c 0.02 0.012 0.102 0.051 0.176 0.086 c 0.016 0 0.102 -0.008 0.109 -0.008 c 0.223 -0.02 0.191 -0.336 -0.043 -0.449 c -0.109 -0.051 -0.219 -0.102 -0.242 -0.113 c -0.074 -0.039 -0.738 -0.48 -0.879 -0.586 c -0.035 -0.027 -0.09 -0.039 -0.145 -0.043 m 2.949 0.137 c -0.051 0 -0.066 0.059 -0.035 0.129 c 0.027 0.07 0.07 0.129 0.09 0.129 c 0.023 0 0.039 -0.059 0.039 -0.129 c 0 -0.07 -0.043 -0.129 -0.094 -0.129 m -1.32 0.875 c -0.047 0 -0.078 0.027 -0.078 0.066 c 0 0.063 0.078 0.117 0.176 0.117 c 0.098 0 0.176 -0.023 0.176 -0.051 c 0 -0.027 -0.078 -0.078 -0.176 -0.117 c -0.035 -0.012 -0.07 -0.02 -0.098 -0.016 m -13.992 0.055 c -0.023 0 -0.066 0.059 -0.094 0.129 c -0.031 0.07 -0.012 0.129 0.039 0.129 c 0.051 0 0.09 -0.059 0.09 -0.129 c 0 -0.07 -0.016 -0.129 -0.035 -0.129 m 19.336 1.129 l -0.43 0.059 c -0.234 0.035 -0.453 0.098 -0.48 0.137 c -0.027 0.043 -0.043 0.605 -0.039 1.273 c 0.004 -0.434 0.02 -0.754 0.039 -0.785 c 0.027 -0.043 0.246 -0.105 0.48 -0.137 l 0.43 -0.059 l 0.055 1.977 c 0.031 1.086 0.082 2.543 0.113 3.234 l 0.035 0.77 l 0.02 0.004 l -0.055 -1.262 c -0.031 -0.691 -0.082 -2.148 -0.113 -3.234 m -1.504 -1.754 l -1.043 0.043 c -0.57 0.027 -1.059 0.07 -1.078 0.102 c -0.023 0.027 -0.063 0.961 -0.09 2.074 l -0.051 2.027 l -0.113 -1.289 c -0.063 -0.707 -0.156 -1.633 -0.203 -2.059 l -0.086 -0.773 l -0.5 0.066 l -0.5 0.063 l -0.055 1.676 c -0.031 0.918 -0.063 1.699 -0.074 1.734 c -0.016 0.035 -0.094 -0.703 -0.18 -1.645 c -0.086 -0.941 -0.168 -1.734 -0.188 -1.758 c -0.02 -0.023 -0.254 -0.008 -0.523 0.039 l -0.492 0.082 l 0.055 0.48 l 0.438 -0.074 c 0.27 -0.047 0.504 -0.066 0.523 -0.039 c 0.02 0.023 0.102 0.813 0.188 1.754 c 0.086 0.941 0.164 1.684 0.18 1.648 c 0.012 -0.035 0.043 -0.816 0.074 -1.738 l 0.055 -1.672 l 0.5 -0.063 l 0.5 -0.066 l 0.086 0.773 c 0.047 0.426 0.141 1.352 0.203 2.059 l 0.113 1.285 l 0.051 -2.023 c 0.027 -1.113 0.066 -2.047 0.09 -2.074 c 0.02 -0.031 0.508 -0.074 1.078 -0.102 l 1.043 -0.047 l 0.211 1.281 c 0.117 0.703 0.234 1.309 0.258 1.348 c 0.023 0.035 0.039 -0.453 0.031 -1.098 c -0.004 0.379 -0.012 0.633 -0.031 0.609 c -0.023 -0.039 -0.141 -0.645 -0.258 -1.348 m -6.574 -0.895 c -0.641 0 -0.875 0.051 -1.063 0.23 c -0.227 0.219 -0.234 0.273 -0.234 1.352 c 0 0.023 0 0.07 0 0.098 c 0.004 -0.703 0.039 -0.773 0.234 -0.961 c 0.188 -0.18 0.422 -0.23 1.063 -0.23 c 1.121 0 1.121 -0.004 1.195 2.406 c 0.031 1.012 0.082 2.145 0.109 2.516 l 0.016 0.188 h 0.035 l -0.051 -0.676 c -0.027 -0.371 -0.078 -1.504 -0.109 -2.516 c -0.074 -2.41 -0.074 -2.406 -1.195 -2.406 m -15.04 0.066 c -0.684 0 -0.777 0.027 -0.973 0.316 c -0.191 0.285 -0.215 0.418 -0.215 1.391 c 0 0.059 0 0.105 0 0.16 c 0.008 -0.68 0.047 -0.816 0.215 -1.066 c 0.195 -0.285 0.289 -0.313 0.973 -0.313 c 0.723 0 1.063 0.121 1.207 0.438 c 0.031 0.07 0.059 0.531 0.063 1.039 c 0 -0.109 0 -0.234 0 -0.391 c 0 -0.547 -0.027 -1.059 -0.066 -1.137 c -0.141 -0.313 -0.484 -0.438 -1.203 -0.438 m 1.625 0 v 0.488 h 1.141 v -0.488 m 0.262 0 v 0.488 h 0.527 c 0.488 0 0.527 0.02 0.531 0.289 c 0 0.129 0.004 1.383 0.004 2.672 c 0 -1.551 0 -3.01 -0.004 -3.16 c -0.004 -0.27 -0.043 -0.289 -0.531 -0.289 m 3.402 0 l 0.047 0.488 h 0.492 c 0.371 0 0.543 0.051 0.547 0.16 c 0 0.09 0.055 1.027 0.113 2.09 l 0.109 1.93 l 0.109 -1.93 c 0.063 -1.063 0.129 -2 0.148 -2.09 c 0.02 -0.102 0.207 -0.16 0.512 -0.16 c 0.563 0 0.539 -0.078 0.633 2.023 c 0.031 0.727 0.086 1.32 0.121 1.32 c 0.066 0 0.176 -1.691 0.18 -2.734 v -0.609 h 0.512 c 0.281 0 0.535 0.035 0.566 0.078 c 0.031 0.043 0.48 0.07 1 0.059 c 0.676 -0.016 0.992 0.027 1.109 0.152 c 0.23 0.25 0.297 0.973 0.367 3.957 c 0.012 0.574 0.023 1.035 0.023 1.414 c 0.008 -0.445 -0.004 -1.051 -0.023 -1.902 c -0.07 -2.98 -0.137 -3.707 -0.367 -3.957 c -0.117 -0.125 -0.434 -0.168 -1.109 -0.152 c -0.523 0.012 -0.973 -0.012 -1 -0.059 c -0.031 -0.043 -0.285 -0.078 -0.566 -0.078 h -0.512 v 0.609 c -0.004 1.047 -0.113 2.734 -0.18 2.734 c -0.035 0 -0.09 -0.594 -0.121 -1.316 c -0.094 -2.102 -0.07 -2.027 -0.633 -2.027 c -0.305 0 -0.492 0.059 -0.512 0.16 c -0.02 0.09 -0.086 1.031 -0.148 2.09 l -0.109 1.93 l -0.109 -1.93 c -0.059 -1.059 -0.113 -2 -0.113 -2.09 c -0.004 -0.109 -0.176 -0.16 -0.547 -0.16 m -2.238 0.004 c -0.375 0 -0.438 0.063 -0.602 0.301 c -0.184 0.27 -0.223 0.445 -0.223 1.039 c 0 0.109 0 0.195 0.004 0.27 c 0.012 -0.422 0.059 -0.586 0.219 -0.824 c 0.215 -0.313 0.262 -0.324 1.098 -0.281 c 1.094 0.055 1.18 -0.117 1.184 2.355 c 0.004 -2.949 -0.027 -2.785 -1.184 -2.844 c -0.211 -0.012 -0.371 -0.016 -0.496 -0.016 m -5.293 1.996 c -0.008 0.102 -0.008 0.246 0 0.438 c 0.004 -0.121 0.004 -0.266 0 -0.418 c 0 -0.008 0 -0.012 0 -0.02 m 5.875 0.023 v 0.395 l 0.484 -0.039 l -0.242 -0.055 c -0.168 -0.035 -0.242 -0.129 -0.242 -0.301 m -1.402 0.18 l -0.016 0.004 l 0.008 0.484 l 0.195 -0.055 l 0.203 -0.055 l -0.195 -0.02 c -0.137 -0.012 -0.18 -0.055 -0.195 -0.359 m 10.465 0.031 c -0.004 0.402 0.004 1.01 0.023 1.824 c 0.063 2.254 0.156 3.07 0.281 2.379 c 0.047 -0.262 0.105 -0.289 0.613 -0.289 h 0.559 c 0 -0.016 0 -0.027 0 -0.043 v -0.086 h -1.117 l -0.016 -0.219 c -0.016 0.035 -0.027 0.086 -0.039 0.148 c -0.125 0.695 -0.223 -0.125 -0.281 -2.379 c -0.012 -0.539 -0.02 -0.98 -0.023 -1.336 m -2.816 0.086 c -0.008 0.285 0.004 0.75 0.027 1.543 c 0.031 1.078 0.078 2.18 0.105 2.445 c 0.047 0.457 0.16 0.637 0.223 0.355 c 0.008 -0.039 0.008 -0.238 0 -0.508 c 0 0.004 0 0.016 0 0.02 c -0.063 0.281 -0.176 0.102 -0.223 -0.355 c -0.027 -0.266 -0.074 -1.363 -0.105 -2.445 c -0.012 -0.441 -0.023 -0.785 -0.027 -1.055 m -6.863 0.113 c -0.039 0 -0.078 0.008 -0.109 0.027 c -0.059 0.035 -0.008 0.063 0.109 0.063 c 0.121 0 0.172 -0.027 0.113 -0.063 c -0.031 -0.02 -0.07 -0.027 -0.113 -0.027 m -2.195 0.145 c -0.004 0.004 -0.004 0.008 -0.008 0.016 c -0.055 0.129 -0.113 0.137 -0.23 0.035 c -0.008 -0.008 -0.016 -0.012 -0.023 -0.016 v 0.156 l -0.328 0.078 c -0.184 0.047 -0.441 0.082 -0.574 0.082 h -0.199 l -0.02 2.121 l -0.023 2.41 h 0.004 l 0.02 -1.922 l 0.023 -2.414 l 0.48 -0.074 c 0.285 -0.043 0.551 -0.016 0.641 0.066 c 0.117 0.102 0.176 0.094 0.23 -0.035 c 0.039 -0.098 0.285 -0.223 0.547 -0.285 l 0.473 -0.113 l -0.504 0.051 l -0.508 0.051 m -2.926 0.148 c -0.043 0 -0.086 0.004 -0.141 0.008 c -0.008 0.188 -0.027 0.316 -0.055 0.324 c -0.172 0.063 -0.727 0.113 -0.949 0.098 c 0.039 0.059 0.105 0.137 0.191 0.223 c 0.117 -0.035 0.27 -0.07 0.434 -0.102 c 0.629 -0.109 0.711 -0.094 1.078 0.184 c 0.219 0.168 0.445 0.414 0.504 0.551 c 0.066 0.152 0.109 0.832 0.113 1.758 c 0 0.082 0 0.145 0.004 0.219 c 0 -0.191 0 -0.418 -0.004 -0.707 c -0.004 -0.926 -0.047 -1.605 -0.113 -1.758 c -0.059 -0.137 -0.285 -0.383 -0.504 -0.551 c -0.023 -0.016 -0.043 -0.031 -0.066 -0.047 c -0.016 0.004 -0.031 0.008 -0.047 0.008 l -0.328 0.082 v -0.281 c -0.035 -0.004 -0.074 -0.008 -0.117 -0.008 m 5.473 1.039 c 0 0.086 0 0.156 0 0.246 c 0 2.086 0.02 2.445 0.133 2.445 c 0.113 0 0.133 -0.324 0.133 -2.125 v -0.488 c 0 1.805 -0.02 2.125 -0.133 2.125 c -0.105 0 -0.129 -0.344 -0.133 -2.199 m 15.902 0.434 l 0.02 0.871 l 0.008 0.379 h 0.012 l -0.02 -0.867 l -0.008 -0.32 m -22.633 -0.035 l -0.023 1.191 c -0.008 0.363 -0.012 0.609 -0.008 0.797 c 0.004 -0.094 0.004 -0.191 0.008 -0.309 l 0.023 -1.191 h 1.055 l 0.043 0.871 c 0.059 1.137 0.215 1.18 0.246 0.066 l 0.027 -0.863 l -0.016 -0.012 l -0.012 0.387 c -0.031 1.113 -0.188 1.07 -0.246 -0.066 l -0.027 -0.551 l -0.164 -0.137 c -0.078 -0.066 -0.152 -0.125 -0.219 -0.184 m 16.828 1.223 l 0.008 0.09 v -0.09 m 3.598 0.129 l -0.023 0.359 h -1.316 l 0.004 0.129 h 1.309 c 0 -0.004 0 -0.004 0 -0.008 l 0.055 -0.48 m -3.09 0.035 c 0 0.074 0.012 0.191 0.035 0.352 c 0.023 -0.027 0.059 -0.035 0.109 -0.035 c 0.133 -0.008 0.129 -0.027 -0.02 -0.109 c -0.047 -0.027 -0.086 -0.082 -0.125 -0.207 m 6.148 0.094 l 0.016 0.367 l -0.605 -0.086 c -0.234 -0.035 -0.438 -0.07 -0.547 -0.094 l 0.035 0.23 c 0.004 0.027 0.004 0.043 0.008 0.07 h 1.172 c 0 -0.02 0 -0.035 0 -0.055 v -0.434 m -5.715 0.117 c -0.031 -0.004 -0.066 0.008 -0.098 0.023 c -0.07 0.043 -0.047 0.074 0.055 0.078 c 0.09 0.008 0.145 -0.023 0.113 -0.066 c -0.012 -0.023 -0.039 -0.035 -0.07 -0.035 m 4.09 0.012 v 0.102 h -0.918 c -0.004 0.063 -0.004 0.133 -0.004 0.219 v 0.488 c 0 -0.566 0.008 -0.578 0.285 -0.578 c 0.57 0.004 0.684 0.109 0.684 0.656 v -0.488 c 0 -0.172 -0.012 -0.305 -0.047 -0.398 m 2.484 2.129 c -0.031 0.027 -0.582 0.09 -1.234 0.137 c -1.02 0.074 -1.203 0.121 -1.207 0.293 c -0.004 0.184 -0.016 0.18 -0.117 -0.012 c -0.102 -0.199 -0.227 -0.211 -1.293 -0.102 c -0.648 0.066 -1.188 0.121 -1.199 0.121 c -0.012 0.004 -0.023 0.145 -0.023 0.309 c 0 0.25 -0.094 0.367 -0.504 0.633 c -0.875 0.563 -3.266 2.023 -3.313 2.023 c -0.023 0 -0.313 0.18 -0.637 0.398 c -0.328 0.223 -0.875 0.563 -1.211 0.762 c -0.34 0.199 -0.852 0.523 -1.141 0.719 c -0.293 0.195 -0.547 0.363 -0.574 0.371 c -0.023 0.008 -0.18 0.078 -0.352 0.16 c -0.289 0.145 -0.539 0.156 -0.926 0.055 c -0.258 -0.066 -3.137 -1.824 -3.289 -2 c -0.07 -0.086 -0.508 -0.379 -0.965 -0.648 c -0.461 -0.273 -0.887 -0.555 -0.953 -0.629 c -0.086 -0.102 -0.141 -0.078 -0.203 0.082 c -0.043 0.121 -0.164 0.219 -0.266 0.219 c -0.145 0 -0.172 -0.063 -0.137 -0.32 c 0.043 -0.332 0.02 -0.352 -1.141 -1.102 c -0.215 -0.137 -0.289 -0.266 -0.289 -0.504 c 0 -0.309 -0.023 -0.324 -0.461 -0.305 c -0.254 0.012 -0.5 0.035 -0.547 0.047 c -0.051 0.016 -0.988 0.023 -2.086 0.012 l -1.984 -0.012 l -0.016 0.484 l 2 0.016 c 1.098 0.008 2.035 0.004 2.086 -0.012 c 0.047 -0.016 0.293 -0.035 0.547 -0.047 c 0.438 -0.02 0.461 -0.004 0.461 0.301 c 0 0.242 0.074 0.371 0.289 0.508 c 1.16 0.746 1.184 0.77 1.141 1.102 c -0.035 0.258 -0.008 0.32 0.137 0.32 c 0.102 0 0.223 -0.098 0.266 -0.219 c 0.063 -0.16 0.117 -0.184 0.203 -0.082 c 0.066 0.074 0.492 0.355 0.953 0.629 c 0.457 0.27 0.895 0.563 0.965 0.648 c 0.152 0.18 3.035 1.934 3.289 2 c 0.387 0.102 0.637 0.086 0.926 -0.055 c 0.172 -0.082 0.328 -0.152 0.352 -0.164 c 0.027 -0.008 0.281 -0.172 0.574 -0.367 c 0.289 -0.195 0.801 -0.52 1.141 -0.719 c 0.336 -0.195 0.875 -0.535 1.203 -0.758 c -0.008 -0.098 0.012 -0.211 0.051 -0.273 c 0.094 -0.137 0.254 -0.086 0.309 0.039 c 0.156 -0.098 0.27 -0.168 0.285 -0.168 c 0.047 0 2.438 -1.465 3.313 -2.027 c 0.41 -0.262 0.504 -0.383 0.504 -0.629 c 0 -0.168 0.012 -0.305 0.023 -0.309 c 0.012 0 0.551 -0.059 1.199 -0.121 c 1.066 -0.109 1.191 -0.102 1.293 0.098 c 0.102 0.195 0.113 0.199 0.117 0.016 c 0.004 -0.172 0.188 -0.219 1.207 -0.293 c 0.66 -0.047 1.219 -0.113 1.238 -0.141 c 0.004 -0.008 0.004 -0.207 -0.004 -0.484 m -10.691 0.445 l 0.137 0.422 c 0.008 0.023 0.016 0.043 0.023 0.063 h 0.215 c 0.355 0 0.387 0.031 0.559 0.547 l 0.02 0.066 l 0.16 -0.004 l -0.18 -0.547 c -0.172 -0.52 -0.203 -0.547 -0.559 -0.547 m 1.035 0 c -0.199 0 -0.254 0.047 -0.215 0.191 c 0.027 0.105 0.098 0.191 0.16 0.191 c 0.023 0 0.059 0.039 0.094 0.105 c 0.148 0.008 0.215 0.063 0.191 0.16 c -0.02 0.082 0.027 0.34 0.109 0.586 c 0.094 0.203 0.18 0.277 0.18 0.109 c 0 -0.039 -0.074 -0.285 -0.164 -0.547 c -0.09 -0.262 -0.148 -0.551 -0.125 -0.637 c 0.027 -0.105 -0.051 -0.16 -0.23 -0.16 m 1.086 0 c -0.219 0 -0.219 0.004 -0.082 0.395 c 0.012 0.035 0.023 0.063 0.035 0.094 c 0.016 0 0.031 -0.004 0.047 -0.004 c 0.117 0 0.215 0.051 0.223 0.113 c 0.066 -0.055 0.156 -0.074 0.219 -0.039 c 0.074 0.043 0.133 0.023 0.133 -0.039 c 0 -0.066 -0.078 -0.156 -0.176 -0.199 c -0.098 -0.047 -0.176 -0.137 -0.176 -0.203 c 0 -0.066 -0.102 -0.117 -0.223 -0.117 m 1.574 0.023 c -0.023 -0.008 -0.035 0.031 -0.035 0.121 c 0 0.254 0.121 0.43 0.164 0.238 c 0.016 -0.082 -0.012 -0.215 -0.066 -0.293 c -0.027 -0.039 -0.047 -0.063 -0.063 -0.066 m -0.273 0.031 c -0.035 0.012 -0.031 0.156 0.031 0.383 c 0.055 0.211 0.207 0.285 0.207 0.102 c 0 -0.059 -0.059 -0.219 -0.129 -0.355 c -0.047 -0.094 -0.086 -0.137 -0.109 -0.129 m -3.977 0.008 l -1.078 0.098 c -1.23 0.109 -1.219 0.109 -2.746 0.02 l -1.148 -0.066 l -0.156 0.98 c -0.086 0.539 -0.145 1 -0.129 1.023 c 0.004 0.008 0.023 0.023 0.043 0.043 c 0.023 -0.168 0.051 -0.363 0.086 -0.578 l 0.156 -0.98 l 1.148 0.066 c 1.527 0.086 1.516 0.086 2.746 -0.023 l 1.078 -0.094 l 0.082 0.348 c 0.117 0 0.105 -0.031 0.004 -0.461 m 3.668 -0.363 c -0.008 0 -0.02 0.004 -0.031 0.012 c -0.066 0.039 -0.121 0.129 -0.121 0.199 c 0 0.074 -0.059 0.063 -0.133 -0.031 c -0.109 -0.129 -0.133 -0.121 -0.133 0.051 c 0 0.125 0.074 0.207 0.18 0.207 c 0.063 0 0.125 0.035 0.172 0.09 c 0.012 -0.012 0.023 -0.02 0.035 -0.027 c 0.063 -0.035 0.094 -0.004 0.109 0.121 c 0 -0.066 0.004 -0.137 0.008 -0.238 c 0.004 -0.285 -0.02 -0.395 -0.086 -0.383 m -10.391 0.055 c -0.551 0 -1 0.043 -1 0.094 c 0 0.043 0.18 0.211 0.414 0.41 c 0.168 -0.012 0.371 -0.02 0.59 -0.02 h 0.906 l 0.102 -0.484 m 0.172 0.258 c -0.117 -0.004 -0.164 0.422 -0.063 0.527 c 0.02 -0.023 0.039 -0.039 0.063 -0.039 c 0.063 0 0.121 0.043 0.164 0.102 c 0.02 -0.031 0.039 -0.086 0.059 -0.164 c 0.051 -0.191 -0.07 -0.422 -0.223 -0.426 m -3.254 0.004 c -0.098 -0.004 -0.16 0.039 -0.16 0.137 c 0 0.078 0.051 0.113 0.117 0.078 c 0.063 -0.039 0.16 0.043 0.219 0.18 c 0.059 0.133 0.145 0.242 0.191 0.242 c 0.047 0 0.438 0.242 0.875 0.539 c 0.121 0.07 0.246 0.141 0.375 0.211 c 0.594 0.328 0.852 0.492 0.961 0.637 c 0.086 0.004 0.07 -0.098 0.07 -0.262 c 0 -0.063 -0.008 -0.121 -0.039 -0.176 c -0.16 -0.094 -0.461 -0.32 -0.758 -0.555 c -0.074 -0.043 -0.148 -0.082 -0.234 -0.133 c -0.566 -0.313 -1.129 -0.645 -1.25 -0.738 c -0.137 -0.102 -0.266 -0.156 -0.363 -0.16 m 0.313 0.293 c 0.016 0 0.031 0.008 0.051 0.023 c 0.047 0.043 0.086 0.105 0.086 0.137 c 0 0.031 -0.039 0.055 -0.086 0.055 c -0.051 0 -0.09 -0.063 -0.09 -0.137 c 0 -0.047 0.016 -0.074 0.039 -0.078 m 16.215 0.188 c -0.051 0 -0.09 0.059 -0.09 0.129 c 0 0.07 0.016 0.129 0.035 0.129 c 0.023 0 0.066 -0.059 0.094 -0.129 c 0.031 -0.07 0.012 -0.129 -0.039 -0.129 m -10.766 0.34 c 0 0.023 0.02 0.051 0.055 0.078 c 0.063 0.059 0.148 0.078 0.188 0.043 c 0.012 -0.012 0.031 -0.016 0.059 -0.02 c -0.012 -0.035 -0.047 -0.066 -0.102 -0.074 c -0.074 -0.016 -0.141 -0.023 -0.199 -0.027 m -2.625 0.035 c -0.055 0.023 -0.109 0.082 -0.145 0.184 c -0.07 0.195 -0.066 0.281 0.039 0.406 c 0.09 -0.148 0.219 -0.145 0.281 -0.012 c 0.02 -0.07 0.035 -0.172 0.035 -0.301 c 0 -0.008 0 -0.012 0 -0.02 c -0.039 0 -0.09 -0.035 -0.156 -0.098 c -0.031 -0.031 -0.051 -0.09 -0.055 -0.16 m 12.11 0.016 c -0.133 0.039 -0.176 0.27 -0.07 0.426 c 0.102 0.145 0.273 0.094 0.324 -0.094 c 0.047 -0.188 0.008 -0.293 -0.125 -0.324 c -0.039 0.02 -0.086 0.02 -0.129 -0.008 m -6.566 0.152 c -0.094 0.082 -0.059 0.363 0.109 0.855 c 0.422 0.859 0.465 0.754 0.094 -0.223 c -0.094 -0.254 -0.164 -0.465 -0.203 -0.633 m 6.223 0.023 c -0.02 -0.004 -0.039 0.004 -0.055 0.02 c -0.047 0.043 -0.059 0.129 -0.031 0.199 c 0.027 0.066 0.09 0.086 0.133 0.047 c 0.047 -0.043 0.063 -0.133 0.031 -0.199 c -0.016 -0.043 -0.047 -0.066 -0.078 -0.066 m -9.711 0.27 c -0.023 0.004 -0.051 0.012 -0.086 0.027 c -0.02 0.012 -0.039 0.016 -0.055 0.02 c -0.008 0.031 -0.008 0.063 0.004 0.094 c 0.023 0.102 0.008 0.184 -0.039 0.184 c -0.047 0 -0.086 0.059 -0.086 0.137 c 0 0.078 0.074 0.102 0.176 0.055 c 0.031 -0.016 0.059 -0.023 0.078 -0.023 c 0.004 -0.008 0.008 -0.016 0.016 -0.016 c 0.047 0 0.082 -0.117 0.082 -0.266 c 0 -0.152 -0.02 -0.215 -0.09 -0.211 m -7.223 0.066 c -0.133 0 -0.242 0.059 -0.242 0.129 c 0 0.16 0.18 0.16 0.352 0 c 0.105 -0.098 0.082 -0.125 -0.109 -0.129 m 4.914 0.285 c -0.047 0.004 -0.039 0.156 0.004 0.488 c 0.02 0 0.055 0.035 0.098 0.09 c 0.016 -0.016 0.035 -0.039 0.055 -0.063 c 0.059 -0.07 0.086 -0.117 0.086 -0.164 c -0.023 -0.016 -0.043 -0.035 -0.066 -0.059 c -0.086 -0.09 -0.117 -0.156 -0.113 -0.25 c -0.027 -0.031 -0.047 -0.047 -0.063 -0.043 m 4.445 0.074 c -0.004 0.004 -0.008 0.004 -0.012 0.008 c -0.094 0.09 -0.082 0.211 0.066 0.637 c 0.07 0.207 0.121 0.387 0.148 0.543 c 0.066 -0.223 0.016 -0.551 -0.148 -1.027 c -0.02 -0.059 -0.039 -0.113 -0.055 -0.16 m -0.773 0.055 c -0.016 0.02 -0.031 0.043 -0.047 0.066 c -0.074 0.133 -0.074 0.188 -0.008 0.188 c 0.055 0 0.098 -0.066 0.098 -0.148 c 0 -0.012 0.004 -0.02 0.004 -0.027 c -0.027 -0.02 -0.043 -0.043 -0.047 -0.078 m -0.23 0.063 l -0.117 0.551 c -0.063 0.301 -0.098 0.773 -0.07 1.059 c 0.012 -0.203 0.035 -0.41 0.07 -0.57 l 0.117 -0.551 l 0.004 0.832 c 0 -0.082 0.004 -0.164 0.004 -0.258 m 0.359 -1.027 c 0.023 0.059 0.039 0.133 0.039 0.191 c 0 0.031 0.012 0.066 0.023 0.098 c 0.035 -0.02 0.07 -0.066 0.082 -0.125 c 0.023 -0.098 -0.031 -0.164 -0.137 -0.164 c -0.004 0 -0.008 0 -0.008 0 m -0.848 0.027 c -0.152 0 -0.16 0.211 -0.012 0.313 c 0.086 0.059 0.086 0.09 0 0.148 c -0.012 0.008 -0.02 0.02 -0.027 0.035 c 0.012 -0.004 0.023 -0.008 0.039 -0.008 c 0.09 0 0.133 0.203 0.156 0.691 c 0.004 0.098 0.008 0.199 0.008 0.293 c 0.008 -0.176 0.004 -0.484 -0.008 -0.781 c -0.023 -0.484 -0.066 -0.691 -0.156 -0.691 m -0.266 0.105 c -0.016 -0.004 -0.035 0.012 -0.059 0.047 c -0.074 0.109 -0.102 0.383 -0.086 0.895 c 0.012 -0.207 0.039 -0.34 0.086 -0.406 c 0.082 -0.121 0.105 -0.031 0.113 0.5 c 0 -0.063 0 -0.125 0 -0.191 c 0 -0.598 -0.012 -0.828 -0.055 -0.844 m -2.125 0.059 c -0.051 0 -0.078 0.035 -0.109 0.102 c -0.078 0.188 -0.102 0.254 0.063 0.398 c 0.07 -0.043 0.188 0.016 0.465 0.207 c 0.203 0.141 0.387 0.301 0.527 0.449 c 0.109 0.047 0.184 0.063 0.227 0.039 c -0.031 -0.063 -0.016 -0.082 0.043 -0.094 c -0.004 -0.047 -0.023 -0.105 -0.063 -0.172 l -0.027 0.152 l -0.547 -0.453 c -0.305 -0.25 -0.563 -0.473 -0.582 -0.5 c -0.004 -0.008 0 -0.059 0.004 -0.129 m 3.113 0.133 c -0.016 0 -0.035 0.008 -0.051 0.023 c -0.016 0.016 -0.035 0.086 -0.047 0.191 c 0.008 -0.023 0.023 -0.051 0.039 -0.082 c 0.031 -0.055 0.07 -0.098 0.105 -0.125 c -0.016 -0.008 -0.031 -0.012 -0.047 -0.008 m -1.324 0.023 c -0.012 0.023 -0.027 0.039 -0.043 0.039 c -0.047 0 -0.027 0.203 0.043 0.449 c 0.055 0.184 0.098 0.457 0.117 0.695 c 0.008 -0.066 0.012 -0.152 0.012 -0.27 c 0 -0.258 -0.059 -0.668 -0.129 -0.914 m 1.387 0.066 c -0.02 0 -0.027 0.031 -0.027 0.082 c 0 0.082 -0.047 0.148 -0.102 0.148 c -0.02 0 -0.035 -0.004 -0.043 -0.016 c -0.02 0.211 -0.031 0.516 -0.031 0.855 c 0 0.094 0 0.184 0 0.262 c 0.008 -0.488 0.043 -0.871 0.09 -0.91 c 0.125 -0.113 0.367 0.199 0.312 0.406 c -0.023 0.094 0.004 0.242 0.063 0.332 c 0.031 0.047 0.059 0.109 0.074 0.172 c 0.008 -0.141 0.016 -0.273 0.02 -0.332 c 0.008 -0.09 -0.035 -0.238 -0.094 -0.328 c -0.039 -0.063 -0.066 -0.148 -0.07 -0.23 c -0.051 -0.035 -0.09 -0.109 -0.09 -0.18 c 0 -0.074 -0.027 -0.18 -0.066 -0.234 c -0.012 -0.02 -0.023 -0.027 -0.035 -0.027 m -1.754 0.16 c -0.035 -0.008 -0.082 0.027 -0.129 0.09 c 0.008 0.008 0.016 0.016 0.023 0.023 c 0.086 0.082 0.07 0.109 -0.059 0.117 c -0.012 0 -0.023 0 -0.035 0.004 c -0.016 0.035 -0.027 0.074 -0.035 0.113 c 0.02 0.031 0.047 0.066 0.082 0.117 c 0.016 -0.016 0.039 -0.031 0.07 -0.051 c 0.074 -0.043 0.137 -0.164 0.137 -0.27 c 0 -0.094 -0.023 -0.137 -0.055 -0.145 m 8.691 0.133 c -0.02 0 -0.043 0.004 -0.07 0.02 c -0.074 0.043 -0.133 0.098 -0.133 0.125 c 0 0.027 0.059 0.051 0.133 0.051 c 0.07 0 0.129 -0.055 0.129 -0.125 c 0 -0.043 -0.023 -0.066 -0.059 -0.07 m -7.82 0.02 c -0.031 0.191 -0.035 0.453 -0.02 0.676 c 0.012 -0.211 0.047 -0.387 0.105 -0.426 c 0.086 -0.059 0.086 -0.09 0 -0.148 c -0.043 -0.027 -0.07 -0.063 -0.086 -0.102 m 1.512 0.09 c -0.117 0.219 -0.238 0.629 -0.176 0.629 c 0.012 0 0.074 -0.035 0.145 -0.078 c 0.012 -0.031 0.027 -0.059 0.043 -0.086 c 0.098 -0.164 0.094 -0.242 -0.012 -0.465 m 7.07 0.746 c -0.063 -0.004 -0.098 0.098 -0.043 0.234 c 0.035 0.078 0.102 0.102 0.148 0.059 c 0.063 -0.055 0.059 -0.125 -0.004 -0.219 c -0.035 -0.051 -0.07 -0.074 -0.102 -0.074 m -9.555 0.02 c 0.023 0.082 0.074 0.145 0.125 0.164 c -0.023 -0.035 -0.055 -0.078 -0.094 -0.129 c -0.012 -0.012 -0.023 -0.023 -0.031 -0.035 m 5.527 0.125 c -0.059 0.051 -0.121 0.066 -0.172 0.035 c -0.012 0.012 -0.02 0.02 -0.031 0.035 c -0.051 0.074 -0.07 0.227 -0.039 0.336 c 0.059 0.23 0.285 0.148 0.355 -0.133 c 0.035 -0.129 -0.027 -0.238 -0.113 -0.273" fill="#fff" fill-opacity="0.2"/></svg>