<svg xmlns="http://www.w3.org/2000/svg" viewBox="0 0 32 32"><path d="m 24.23 3.977 c 28.34 26.344 -30.15 42.941 -23.699 7.969 c 3.184 -9.23 14.602 -16.43 23.699 -7.969" fill="#d2d2d2"/><path d="m 6.77 25.715 c -0.082 -0.105 -0.094 -1.82 -0.051 -8.957 c 0.027 -4.855 0.074 -8.863 0.102 -8.906 c 0.063 -0.102 17.727 -0.105 17.789 -0.004 c 0.023 0.043 0.07 4.051 0.098 8.906 c 0.047 7.145 0.035 8.855 -0.051 8.961 c -0.094 0.113 -1.059 0.129 -8.941 0.129 c -7.883 0 -8.848 -0.016 -8.941 -0.129 m 6.836 -2.777 c 0.172 -0.051 0.461 -0.227 0.641 -0.391 l 0.328 -0.301 l 1.121 0.02 c 0.969 0.02 1.23 -0.008 1.918 -0.184 c 1.59 -0.41 2.805 -1.293 3.363 -2.438 c 0.227 -0.461 0.273 -0.668 0.297 -1.238 c 0.023 -0.539 0.008 -0.688 -0.082 -0.688 c -0.063 0 -0.719 0.617 -1.465 1.371 l -1.352 1.371 l -1.313 -0.047 l -0.023 -0.27 l -0.027 -0.27 h -2.148 c -1.18 -0.004 -2.191 -0.031 -2.242 -0.063 c -0.148 -0.098 -0.215 -0.484 -0.113 -0.676 c 0.09 -0.168 0.145 -0.172 2.297 -0.172 c 1.211 0 2.262 -0.023 2.332 -0.051 c 0.074 -0.027 0.133 -0.105 0.133 -0.168 c 0 -0.082 -0.121 -0.113 -0.449 -0.113 c -0.414 0 -0.457 -0.02 -0.504 -0.215 c -0.031 -0.117 -0.012 -0.305 0.039 -0.414 c 0.086 -0.195 0.117 -0.203 0.945 -0.203 c 0.918 0 1.117 -0.035 1.117 -0.211 c 0 -0.078 -0.145 -0.117 -0.473 -0.137 c -0.426 -0.02 -0.477 -0.043 -0.5 -0.219 c -0.016 -0.105 -0.004 -0.285 0.023 -0.395 c 0.043 -0.184 0.09 -0.199 0.57 -0.199 c 0.559 0 0.625 0.051 0.625 0.465 c 0 0.109 0.027 0.199 0.063 0.199 c 0.035 0 0.387 -0.328 0.785 -0.734 l 0.723 -0.73 l -0.355 -0.313 c -0.438 -0.379 -1.484 -0.895 -2.199 -1.078 c -0.891 -0.234 -2.277 -0.258 -3.242 -0.055 c -2.664 0.555 -4.355 2.539 -3.863 4.547 c 0.254 1.051 0.891 1.836 2.035 2.523 c 0.305 0.184 0.559 0.387 0.559 0.453 c 0 0.203 -0.23 0.578 -0.488 0.801 c -0.137 0.117 -0.25 0.234 -0.25 0.258 c 0 0.082 0.844 0.051 1.176 -0.043 m -1.078 -4.695 l 0.023 -0.395 h 3.445 v 0.746 l -3.492 0.047 m 0.039 -1.281 c -0.023 -0.063 -0.031 -0.242 -0.016 -0.395 l 0.023 -0.277 h 4.512 v 0.746 l -2.238 0.023 c -1.871 0.016 -2.242 0 -2.281 -0.098" fill="#c9c9c9"/><path d="m 6.809 25.668 c -0.059 -0.094 0.012 -10.609 0.098 -14.785 l 0.051 -2.406 l 0.75 -0.012 c 0.41 -0.004 0.914 -0.02 1.117 -0.027 c 0.203 -0.008 0.59 0.023 0.863 0.066 c 0.27 0.047 1.082 0.086 1.805 0.09 c 1.031 0.004 1.344 -0.023 1.469 -0.117 c 0.121 -0.094 0.426 -0.121 1.301 -0.121 c 1.07 0 1.141 0.008 1.184 0.164 c 0.039 0.148 0.109 0.164 0.777 0.164 c 0.613 0 0.773 -0.027 0.945 -0.164 c 0.184 -0.148 0.332 -0.164 1.305 -0.164 c 1.094 0 1.102 0 1.191 0.207 c 0.09 0.195 0.125 0.207 0.828 0.207 c 0.664 0 0.758 -0.02 0.977 -0.207 c 0.23 -0.195 0.301 -0.207 1.215 -0.207 c 0.535 0 1.031 0.02 1.102 0.047 c 0.07 0.031 0.129 0.141 0.129 0.25 c 0 0.172 0.039 0.199 0.277 0.199 h 0.277 l 0.051 2.508 c 0.027 1.379 0.063 5.172 0.07 8.434 l 0.023 5.926 l -8.875 0.02 c -6.438 0.016 -8.887 -0.004 -8.93 -0.07 m 7.06 -2.746 c 0.137 -0.07 0.352 -0.23 0.484 -0.352 c 0.23 -0.219 0.25 -0.219 1.559 -0.242 c 1.078 -0.02 1.434 -0.059 1.934 -0.207 c 1.504 -0.453 2.711 -1.379 3.219 -2.465 c 0.219 -0.469 0.273 -0.691 0.297 -1.262 c 0.02 -0.441 -0.004 -0.723 -0.063 -0.785 c -0.066 -0.066 -0.457 0.277 -1.504 1.336 l -1.414 1.426 h -1.262 l -0.023 -0.27 l -0.027 -0.27 l -2.191 -0.02 c -2.125 -0.023 -2.195 -0.027 -2.281 -0.195 c -0.051 -0.094 -0.07 -0.262 -0.043 -0.371 l 0.051 -0.199 h 2.242 c 2.059 0 2.262 -0.016 2.434 -0.152 c 0.27 -0.223 0.133 -0.348 -0.375 -0.348 c -0.367 0 -0.449 -0.027 -0.492 -0.164 c -0.027 -0.09 -0.027 -0.242 0 -0.332 c 0.047 -0.152 0.125 -0.164 0.961 -0.164 h 0.91 l 0.957 -0.953 c 0.523 -0.527 0.996 -0.953 1.051 -0.953 c 0.352 0 -0.449 -0.691 -1.305 -1.125 c -0.859 -0.438 -1.621 -0.625 -2.742 -0.676 c -2.01 -0.09 -3.766 0.547 -4.871 1.77 c -1.355 1.496 -1.27 3.434 0.211 4.836 c 0.285 0.27 0.742 0.613 1.012 0.766 c 0.273 0.148 0.492 0.324 0.492 0.387 c 0.004 0.188 -0.297 0.621 -0.57 0.824 c -0.137 0.102 -0.227 0.227 -0.199 0.277 c 0.082 0.129 1.254 0.039 1.551 -0.117 m -1.27 -4.703 v -0.336 l 1.66 0.023 l 1.66 0.02 v 0.582 l -1.66 0.023 l -1.66 0.02 m 0 -1.496 v -0.332 l 2.195 0.02 l 2.191 0.023 l 0.027 0.313 l 0.023 0.309 h -4.438 m 4.953 -0.113 c -0.023 -0.066 -0.035 -0.207 -0.02 -0.316 c 0.027 -0.176 0.066 -0.191 0.52 -0.191 h 0.492 v 0.582 l -0.473 0.023 c -0.355 0.02 -0.484 -0.004 -0.52 -0.098" fill="#b4b4b4"/><path d="m 6.859 23.293 c 0.004 -1.309 0.043 -3.484 0.086 -4.828 c 0.047 -1.344 0.109 -3.332 0.145 -4.418 c 0.051 -1.578 0.086 -1.992 0.184 -2.051 c 0.152 -0.098 16.727 -0.102 16.879 -0.004 c 0.086 0.059 0.129 0.57 0.184 2.34 c 0.039 1.246 0.105 3.332 0.148 4.633 c 0.043 1.297 0.082 3.34 0.082 4.535 l 0.004 2.176 h -17.715 m 6.715 -2.613 c 0.242 -0.074 0.57 -0.254 0.742 -0.414 l 0.313 -0.285 l 0.852 0.051 c 2.664 0.156 5.156 -1.184 5.805 -3.125 c 0.234 -0.711 0.227 -1.816 -0.016 -1.816 c -0.047 0 -0.738 0.652 -1.535 1.453 l -1.445 1.453 l -0.57 -0.023 l -0.566 -0.023 l -0.039 -0.293 l -0.043 -0.289 l -2.215 -0.039 l -2.211 -0.043 l -0.055 -0.539 h 2.133 c 2.129 0 2.406 -0.031 2.664 -0.289 c 0.227 -0.227 0.16 -0.281 -0.375 -0.309 c -0.5 -0.023 -0.516 -0.031 -0.543 -0.262 c -0.016 -0.137 0.023 -0.273 0.082 -0.313 c 0.063 -0.039 0.48 -0.07 0.938 -0.07 c 0.938 0 0.742 0.109 1.984 -1.113 l 0.758 -0.746 l 0.246 0.148 c 0.594 0.352 -0.047 -0.438 -0.766 -0.949 c -2.383 -1.691 -6.207 -1.461 -8.172 0.492 c -0.34 0.336 -0.664 0.762 -0.832 1.09 c -0.266 0.516 -0.277 0.574 -0.277 1.449 c 0 0.875 0.012 0.934 0.277 1.453 c 0.348 0.672 1.188 1.52 1.875 1.887 c 0.281 0.152 0.512 0.305 0.512 0.34 c 0 0.129 -0.473 0.723 -0.684 0.863 c -0.121 0.078 -0.219 0.18 -0.219 0.219 c 0 0.191 0.809 0.215 1.383 0.043 m -0.918 -4.566 c -0.094 -0.098 -0.059 -0.422 0.059 -0.52 c 0.078 -0.066 0.578 -0.086 1.621 -0.07 l 1.504 0.02 v 0.582 l -1.563 0.023 c -0.859 0.012 -1.59 -0.004 -1.617 -0.035 m -0.027 -1.227 c -0.023 -0.066 -0.031 -0.188 -0.016 -0.27 c 0.027 -0.141 0.168 -0.152 2.199 -0.152 c 2.023 0 2.172 0.012 2.199 0.152 c 0.07 0.367 -0.047 0.387 -2.254 0.387 c -1.738 0 -2.09 -0.02 -2.129 -0.117 m 5.03 0.066 c -0.031 -0.031 -0.059 -0.164 -0.059 -0.293 c 0 -0.23 0.008 -0.234 0.457 -0.234 h 0.453 l -0.023 0.27 c -0.023 0.254 -0.043 0.27 -0.398 0.293 c -0.203 0.016 -0.398 0 -0.43 -0.035 m -8.977 -6.164 c -0.355 -0.145 -0.336 -0.773 0.027 -0.914 c 0.586 -0.227 0.973 0.637 0.398 0.898 c -0.113 0.055 -0.219 0.098 -0.227 0.094 c -0.008 -0.004 -0.098 -0.039 -0.199 -0.078 m 4.297 -0.188 c -0.109 -0.148 -0.32 -0.465 -0.465 -0.707 l -0.262 -0.438 l 0.297 -0.43 c 0.598 -0.867 0.48 -0.809 1.598 -0.809 c 0.676 0 0.992 0.031 0.992 0.094 c 0 0.051 -0.129 0.309 -0.289 0.57 c -0.156 0.262 -0.285 0.523 -0.285 0.574 c 0 0.055 0.168 0.34 0.379 0.637 c 0.215 0.305 0.355 0.586 0.328 0.656 c -0.039 0.098 -0.242 0.121 -1.07 0.121 h -1.023 m 4.121 -0.188 c -0.32 -0.359 -0.785 -1.207 -0.719 -1.32 c 0.031 -0.059 0.227 -0.34 0.434 -0.625 l 0.371 -0.52 h 1.01 c 0.586 0 1.012 0.035 1.012 0.078 c 0 0.043 -0.129 0.297 -0.289 0.563 c -0.156 0.262 -0.285 0.527 -0.285 0.59 c 0 0.059 0.164 0.344 0.367 0.633 c 0.203 0.285 0.371 0.559 0.371 0.605 c 0 0.148 -0.238 0.184 -1.184 0.184 c -0.852 0 -0.934 -0.012 -1.086 -0.188 m 4.285 0.059 c -0.258 -0.262 -0.801 -1.273 -0.738 -1.379 c 0.031 -0.059 0.227 -0.34 0.434 -0.625 l 0.371 -0.52 h 1.01 c 0.555 0 1.01 0.031 1.01 0.066 c 0 0.039 -0.129 0.285 -0.285 0.551 c -0.156 0.266 -0.285 0.535 -0.285 0.598 c 0 0.066 0.164 0.367 0.363 0.668 c 0.492 0.738 0.457 0.77 -0.781 0.77 c -0.77 0 -0.992 -0.027 -1.094 -0.129 m -12.945 -1.785 c -0.164 -0.094 -0.191 -0.488 -0.047 -0.637 c 0.129 -0.129 0.496 -0.129 0.625 0 c 0.137 0.137 0.121 0.445 -0.031 0.598 c -0.148 0.148 -0.34 0.164 -0.547 0.039" fill="#969696"/><path d="m 6.941 25.281 c 0 -0.168 0.035 -0.719 0.074 -1.219 c 0.043 -0.504 0.117 -3.246 0.168 -6.094 c 0.051 -2.848 0.109 -5.34 0.133 -5.531 l 0.043 -0.355 h 16.711 l 0.043 0.438 c 0.023 0.238 0.086 2.84 0.133 5.781 c 0.051 2.941 0.125 5.719 0.164 6.176 c 0.043 0.453 0.074 0.891 0.078 0.973 c 0.004 0.137 -0.469 0.145 -8.773 0.145 h -8.777 m 6.891 -2.582 c 0.203 -0.09 0.461 -0.25 0.574 -0.359 c 0.195 -0.188 0.258 -0.195 1.352 -0.195 c 1.77 0 2.992 -0.371 4.184 -1.281 c 1.105 -0.84 1.734 -2.18 1.563 -3.328 c -0.039 -0.277 -0.09 -0.375 -0.195 -0.375 c -0.074 0 -0.766 0.633 -1.531 1.406 l -1.391 1.41 h -0.598 c -0.563 0 -0.594 -0.012 -0.598 -0.188 c 0 -0.387 -0.008 -0.387 -2.297 -0.41 l -2.168 -0.023 l -0.055 -0.539 h 4.492 l 0.23 -0.242 c 0.125 -0.133 0.203 -0.281 0.172 -0.332 c -0.027 -0.047 -0.273 -0.09 -0.539 -0.09 c -0.488 0 -0.488 0 -0.488 -0.246 v -0.25 h 1.746 l 0.969 -0.965 l 0.965 -0.965 l 0.336 0.27 c 0.188 0.148 0.363 0.246 0.391 0.219 c 0.094 -0.098 -0.43 -0.746 -0.926 -1.152 c -2.379 -1.945 -6.457 -1.793 -8.547 0.316 c -0.418 0.426 -0.672 0.766 -0.859 1.168 c -0.246 0.527 -0.266 0.637 -0.266 1.402 c 0 0.777 0.016 0.867 0.277 1.406 c 0.348 0.715 1.148 1.543 1.875 1.934 c 0.285 0.152 0.512 0.328 0.512 0.398 c 0 0.07 -0.207 0.332 -0.461 0.582 c -0.258 0.254 -0.43 0.488 -0.391 0.527 c 0.207 0.199 1.113 0.145 1.672 -0.098 m -1.133 -4.773 l 0.027 -0.227 h 3.113 v 0.414 l -1.582 0.023 l -1.586 0.02 m 0.043 -1.285 c -0.027 -0.07 -0.027 -0.184 0 -0.254 c 0.039 -0.105 0.328 -0.121 2.121 -0.102 l 2.07 0.023 v 0.414 l -2.07 0.02 c -1.793 0.02 -2.082 0.008 -2.121 -0.102 m 4.973 -0.133 c 0 -0.246 0.008 -0.25 0.348 -0.227 c 0.313 0.023 0.352 0.051 0.375 0.254 c 0.023 0.219 0.012 0.227 -0.348 0.227 c -0.363 0 -0.375 -0.008 -0.375 -0.254 m -9 -6.01 c -0.246 -0.176 -0.238 -0.496 0.023 -0.668 c 0.188 -0.125 0.219 -0.125 0.41 0 c 0.258 0.172 0.27 0.492 0.02 0.668 c -0.098 0.07 -0.199 0.129 -0.227 0.129 c -0.023 0 -0.129 -0.059 -0.227 -0.129 m 4.121 -0.453 c -0.203 -0.316 -0.367 -0.641 -0.367 -0.715 c 0 -0.168 0.617 -0.992 0.789 -1.059 c 0.07 -0.027 0.477 -0.047 0.902 -0.047 c 0.77 0 0.777 0 0.723 0.184 c -0.031 0.105 -0.125 0.305 -0.211 0.445 c -0.219 0.371 -0.199 0.48 0.223 1.074 c 0.207 0.293 0.352 0.566 0.324 0.613 c -0.031 0.051 -0.453 0.086 -1.035 0.086 h -0.977 m 3.855 -0.633 c -0.461 -0.727 -0.457 -0.766 0.141 -1.418 l 0.324 -0.352 h 0.832 c 0.461 0 0.836 0.02 0.836 0.043 c 0 0.023 -0.094 0.227 -0.207 0.453 c -0.266 0.531 -0.258 0.648 0.07 1.086 c 0.344 0.457 0.473 0.703 0.406 0.77 c -0.027 0.027 -0.492 0.051 -1.027 0.051 h -0.973 m 4.176 -0.145 c -0.07 -0.078 -0.262 -0.379 -0.43 -0.664 l -0.309 -0.52 l 0.301 -0.414 c 0.453 -0.625 0.535 -0.66 1.453 -0.66 c 0.441 0 0.801 0.02 0.801 0.043 c 0 0.023 -0.109 0.262 -0.242 0.531 l -0.242 0.488 l 0.402 0.602 c 0.223 0.328 0.387 0.633 0.363 0.668 c -0.023 0.039 -0.48 0.07 -1.012 0.07 c -0.816 0 -0.984 -0.023 -1.086 -0.145 m -12.898 -1.809 c -0.176 -0.18 -0.023 -0.469 0.227 -0.434 c 0.301 0.043 0.266 0.555 -0.043 0.563 c -0.027 0 -0.113 -0.059 -0.184 -0.129" fill="#858586"/><path d="m 7.184 24.15 c 0 -1.703 0.16 -7.848 0.207 -8.07 c 0.043 -0.184 0.047 -0.188 1.805 -0.188 c 0.969 0 1.762 0.02 1.762 0.043 c 0 0.023 -0.109 0.238 -0.242 0.48 c -1.031 1.848 -0.313 4.047 1.699 5.199 c 0.277 0.156 0.508 0.344 0.508 0.41 c 0.004 0.066 -0.203 0.32 -0.461 0.563 c -0.543 0.52 -0.516 0.613 0.207 0.668 c 0.617 0.043 1.27 -0.145 1.68 -0.492 l 0.316 -0.262 l 1.242 -0.02 c 1.465 -0.02 2.145 -0.168 3.195 -0.719 c 0.859 -0.445 1.813 -1.375 2.145 -2.09 c 0.285 -0.613 0.414 -1.379 0.32 -1.875 c -0.125 -0.641 -0.242 -0.574 -1.832 1.035 l -1.434 1.453 h -0.555 c -0.555 0 -0.555 0 -0.555 -0.23 c 0 -0.426 -0.035 -0.434 -2.355 -0.434 h -2.156 v -0.414 h 2.16 c 2.117 0 2.168 -0.004 2.441 -0.188 c 0.191 -0.133 0.277 -0.258 0.277 -0.395 c 0 -0.191 -0.031 -0.207 -0.469 -0.23 c -0.406 -0.02 -0.473 -0.047 -0.473 -0.188 c 0 -0.145 0.059 -0.16 0.699 -0.16 c 0.418 0 0.805 -0.047 0.965 -0.113 c 0.145 -0.066 0.633 -0.496 1.082 -0.953 c 0.449 -0.461 0.852 -0.84 0.891 -0.84 c 0.039 0 0.199 0.113 0.352 0.25 c 0.551 0.484 0.688 0.262 0.234 -0.379 c -0.156 -0.227 -0.285 -0.449 -0.285 -0.496 c 0 -0.047 0.176 -0.262 0.391 -0.477 c 0.547 -0.543 0.73 -0.531 1.391 0.109 c 0.281 0.273 0.516 0.551 0.516 0.621 c 0 0.098 0.117 0.121 0.57 0.121 c 0.527 0 0.574 0.016 0.613 0.188 c 0.047 0.207 0.207 6.559 0.207 8.207 v 1.055 h -17.06 m 5.578 -7.125 c 0 -0.16 0.055 -0.168 1.516 -0.168 c 1.465 0 1.52 0.008 1.52 0.168 c 0 0.16 -0.055 0.164 -1.52 0.164 c -1.461 0 -1.516 -0.004 -1.516 -0.164 m 0 -1.16 c 0 -0.164 0.055 -0.168 2.051 -0.168 c 1.996 0 2.051 0.004 2.051 0.168 c 0 0.16 -0.055 0.164 -2.051 0.164 c -1.996 0 -2.051 -0.004 -2.051 -0.164 m 5 0 c 0 -0.137 0.055 -0.168 0.285 -0.168 c 0.234 0 0.289 0.031 0.289 0.168 c 0 0.133 -0.055 0.164 -0.289 0.164 c -0.23 0 -0.285 -0.031 -0.285 -0.164 m -9.141 -6.102 c -0.172 -0.172 -0.16 -0.309 0.031 -0.484 c 0.191 -0.176 0.398 -0.145 0.547 0.082 c 0.094 0.145 0.094 0.195 -0.016 0.352 c -0.148 0.215 -0.379 0.234 -0.563 0.051 m 4.27 -0.305 c -0.477 -0.758 -0.477 -0.762 -0.289 -1 c 0.16 -0.207 0.199 -0.219 1.01 -0.219 h 0.844 l -0.035 0.238 c -0.027 0.184 0.051 0.355 0.34 0.758 c 0.211 0.281 0.379 0.551 0.379 0.59 c 0 0.039 -0.445 0.074 -0.984 0.074 h -0.984 l -0.273 -0.438 m 4.262 0 c -0.496 -0.789 -0.5 -0.797 -0.289 -1.02 c 0.172 -0.188 0.242 -0.203 1.016 -0.203 h 0.832 l -0.035 0.25 c -0.027 0.199 0.035 0.348 0.305 0.707 c 0.551 0.734 0.578 0.703 -0.559 0.703 h -0.996 m 4.168 -0.145 c -0.07 -0.082 -0.246 -0.363 -0.395 -0.629 l -0.266 -0.48 l 0.191 -0.203 c 0.176 -0.188 0.242 -0.203 1.02 -0.203 h 0.832 l -0.035 0.246 c -0.027 0.188 0.051 0.359 0.344 0.777 c 0.207 0.293 0.375 0.555 0.375 0.586 c 0 0.027 -0.438 0.051 -0.969 0.051 c -0.824 0 -0.992 -0.023 -1.098 -0.145" fill="#777"/><path d="m 17.273 20 c 0 -0.113 -0.043 -0.297 -0.094 -0.414 c -0.086 -0.188 -0.059 -0.246 0.316 -0.66 c 0.227 -0.25 0.934 -0.965 1.57 -1.586 l 1.16 -1.137 l 0.32 0.293 c 0.176 0.164 0.414 0.359 0.531 0.434 c 0.117 0.078 0.211 0.168 0.211 0.199 c 0 0.031 -0.672 0.734 -1.496 1.563 l -1.496 1.508 l -0.512 0.004 c -0.488 0 -0.512 -0.012 -0.512 -0.203 m 4.102 -3.98 l -0.527 -0.539 l 0.242 -0.258 c 0.43 -0.457 0.484 -0.457 0.945 -0.02 c 0.613 0.574 0.625 0.625 0.273 1.02 c -0.164 0.184 -0.324 0.332 -0.352 0.332 c -0.031 0 -0.293 -0.242 -0.582 -0.535 m -12.684 -5.137 c -0.082 -0.215 0.035 -0.391 0.234 -0.363 c 0.266 0.039 0.266 0.43 0 0.469 c -0.109 0.016 -0.203 -0.027 -0.234 -0.105 m 4.41 -0.094 c -0.051 -0.113 -0.094 -0.227 -0.094 -0.246 c 0 -0.023 0.363 -0.039 0.805 -0.039 c 0.738 0 0.82 0.016 0.984 0.191 c 0.098 0.105 0.18 0.219 0.18 0.25 c 0 0.031 -0.402 0.055 -0.891 0.055 c -0.871 0 -0.891 -0.004 -0.984 -0.211 m 4.266 0 c -0.051 -0.113 -0.094 -0.227 -0.094 -0.246 c 0 -0.023 0.363 -0.039 0.805 -0.039 c 0.738 0 0.82 0.016 0.984 0.191 c 0.098 0.105 0.18 0.219 0.18 0.25 c 0 0.031 -0.402 0.055 -0.891 0.055 c -0.871 0 -0.891 -0.004 -0.984 -0.211 m 4.25 0 c -0.043 -0.117 -0.078 -0.23 -0.078 -0.25 c 0 -0.02 0.359 -0.035 0.805 -0.035 c 0.734 0 0.82 0.016 0.984 0.191 c 0.098 0.105 0.176 0.219 0.176 0.25 c 0 0.031 -0.406 0.055 -0.902 0.055 c -0.895 0 -0.906 0 -0.984 -0.211" fill="#5b5b5b"/></svg>