<svg xmlns="http://www.w3.org/2000/svg" viewBox="0 0 32 32"><path d="m 28.891 6.598 c 15.996 24.06 -35.01 38.875 -28.26 7.773 c 2.879 -12.852 20.922 -20.652 28.26 -7.773" fill="#b0c3de"/><path d="m 20.453 8.297 c 0.535 0 0.859 0.07 1.051 0.297 c 0.195 0.23 0.27 0.621 0.266 1.246 c -0.008 0.586 -0.125 1.016 -0.402 1.383 c -0.277 0.367 -0.723 0.676 -1.402 0.996 c -0.531 0.254 -0.953 0.516 -1.277 0.773 c -0.328 0.258 -0.547 0.5 -0.648 0.719 c -0.102 0.215 -0.094 0.41 0.051 0.539 c 0.148 0.133 0.426 0.211 0.84 0.211 c 0.465 0 0.754 0.078 0.93 0.332 c 0.176 0.254 0.227 0.684 0.227 1.352 c 0 0.383 -0.008 0.68 -0.051 0.91 c -0.043 0.23 -0.117 0.395 -0.246 0.508 c -0.258 0.227 -0.734 0.262 -1.609 0.262 c -0.398 0 -0.727 0.012 -1.016 0.07 c -0.293 0.059 -0.543 0.148 -0.773 0.297 c -0.461 0.297 -0.863 0.805 -1.383 1.648 c -0.344 0.555 -0.84 1.172 -1.383 1.73 c -0.543 0.559 -1.117 1.059 -1.594 1.352 c -0.477 0.289 -1.066 0.559 -1.609 0.75 c -0.547 0.195 -1.055 0.316 -1.402 0.316 c -0.516 0 -0.828 -0.086 -1.016 -0.332 c -0.188 -0.25 -0.246 -0.664 -0.246 -1.348 c 0 -0.637 0.066 -1.055 0.227 -1.316 c 0.164 -0.262 0.426 -0.367 0.824 -0.367 c 0.348 0 0.672 -0.074 0.98 -0.246 c 0.309 -0.168 0.609 -0.449 0.945 -0.875 c 0.672 -0.852 1.457 -2.297 2.629 -4.672 c 0.516 -1.047 1.059 -1.977 1.629 -2.785 c 0.566 -0.809 1.164 -1.492 1.766 -2.051 c 0.605 -0.555 1.223 -0.992 1.84 -1.277 c 0.621 -0.285 1.238 -0.422 1.855 -0.422" fill="#fff"/></svg>