<svg xmlns="http://www.w3.org/2000/svg" viewBox="0 0 32 32"><path d="m 16.871 31.777 c -19.06 1.816 -23.258 -28.836 -3.664 -31.21 c 18.04 -2.949 26.441 24.832 8.441 30.391 c -1.527 0.609 -3.176 0.598 -4.777 0.824" fill="#a5cda5"/><path d="m 12.945 27.28 c -0.402 -0.07 -0.871 -0.246 -0.871 -0.328 c 0 -0.121 0.5 -0.574 0.906 -0.816 c 0.527 -0.32 1.406 -0.406 1.746 -0.172 c 0.332 0.23 0.324 0.418 -0.031 0.77 c -0.23 0.227 -1.289 0.664 -1.465 0.605 c -0.023 -0.008 -0.152 -0.031 -0.285 -0.059 m 5.105 -0.129 c -0.953 -0.328 -1.285 -0.832 -0.777 -1.188 c 0.512 -0.352 1.68 -0.031 2.387 0.656 c 0.34 0.328 0.336 0.387 -0.047 0.516 c -0.629 0.211 -0.992 0.215 -1.563 0.016 m -8.06 -1 l -0.484 -0.156 l 0.402 -0.371 c 0.348 -0.328 1.281 -0.742 1.645 -0.734 c 0.293 0.004 1.01 0.434 1.01 0.605 c 0 0.668 -1.418 1.027 -2.57 0.656 m 5.789 0.055 c -0.309 -0.328 0.02 -0.898 0.391 -0.688 c 0.297 0.168 0.164 0.809 -0.168 0.809 c -0.059 0 -0.16 -0.055 -0.223 -0.121 m 4.23 -0.086 c -0.375 -0.211 -0.688 -0.59 -0.605 -0.73 c 0.059 -0.098 0.891 -0.5 1.047 -0.5 c 0.363 -0.008 1.297 0.406 1.645 0.73 l 0.398 0.371 l -0.547 0.168 c -0.73 0.227 -1.492 0.211 -1.938 -0.039 m -6.141 -0.941 c -0.414 -0.152 -0.887 -0.66 -1.219 -1.309 c -0.297 -0.582 -0.352 -0.832 -0.184 -0.832 c 0.051 0 0.406 0.129 0.785 0.285 c 0.902 0.371 1.441 0.957 1.441 1.563 c 0 0.387 -0.02 0.414 -0.266 0.406 c -0.148 -0.004 -0.398 -0.055 -0.559 -0.113 m 3.441 -0.293 c 0 -0.605 0.539 -1.191 1.445 -1.563 c 0.375 -0.156 0.73 -0.285 0.785 -0.285 c 0.168 0 0.109 0.25 -0.188 0.832 c -0.465 0.914 -1.125 1.43 -1.813 1.43 c -0.203 0 -0.23 -0.047 -0.23 -0.414 m -9.113 -0.18 c -0.402 -0.215 -0.727 -0.461 -0.727 -0.543 c 0 -0.078 0.16 -0.227 0.363 -0.328 c 0.199 -0.098 0.363 -0.219 0.363 -0.27 c 0 -0.047 -0.234 -0.113 -0.523 -0.145 c -0.285 -0.031 -0.688 -0.148 -0.895 -0.262 c -0.434 -0.234 -1.203 -0.91 -1.203 -1.055 c 0 -0.055 0.121 -0.145 0.27 -0.203 c 0.145 -0.055 0.332 -0.129 0.41 -0.16 c 0.094 -0.035 -0.078 -0.176 -0.484 -0.395 c -0.348 -0.188 -0.738 -0.473 -0.875 -0.637 c -0.402 -0.484 -0.676 -0.93 -0.609 -0.996 c 0.121 -0.129 1.078 -0.066 1.449 0.098 c 0.438 0.191 0.961 0.688 1.172 1.113 c 0.141 0.289 0.137 0.313 -0.102 0.531 l -0.25 0.23 l 0.301 0.109 c 0.164 0.063 0.359 0.113 0.426 0.113 c 0.18 0 0.793 0.457 1.016 0.754 c 0.137 0.184 0.172 0.34 0.129 0.57 c -0.063 0.32 -0.063 0.32 0.375 0.32 c 0.461 0 1.152 0.336 1.48 0.723 c 0.176 0.207 0.176 0.215 -0.063 0.469 c -0.184 0.191 -0.379 0.27 -0.77 0.309 c -0.469 0.043 -0.609 0.004 -1.254 -0.348 m 14 0.324 c -0.113 -0.027 -0.305 -0.16 -0.43 -0.301 c -0.215 -0.242 -0.215 -0.254 -0.043 -0.457 c 0.324 -0.383 1.016 -0.719 1.477 -0.719 h 0.434 l -0.055 -0.336 c -0.039 -0.23 -0.008 -0.402 0.109 -0.559 c 0.207 -0.281 0.859 -0.75 1.039 -0.75 c 0.074 0 0.254 -0.047 0.395 -0.105 c 0.246 -0.098 0.254 -0.117 0.105 -0.293 c -0.086 -0.102 -0.16 -0.285 -0.16 -0.406 c 0 -0.32 0.656 -1.043 1.148 -1.266 c 0.402 -0.184 1.371 -0.266 1.5 -0.125 c 0.066 0.066 -0.203 0.512 -0.609 0.996 c -0.133 0.164 -0.527 0.449 -0.875 0.633 l -0.629 0.34 l 0.273 0.113 c 0.148 0.063 0.336 0.113 0.41 0.113 c 0.262 0 0.141 0.289 -0.273 0.668 c -0.559 0.512 -1.016 0.746 -1.609 0.828 c -0.277 0.039 -0.527 0.109 -0.555 0.16 c -0.027 0.047 0.117 0.168 0.32 0.27 c 0.199 0.102 0.367 0.25 0.367 0.328 c 0 0.082 -0.297 0.305 -0.664 0.5 c -0.629 0.34 -1.23 0.469 -1.676 0.367 m -11.156 -0.938 c -0.141 -0.156 -0.313 -0.43 -0.387 -0.613 c -0.145 -0.371 -0.184 -2.039 -0.043 -2.129 c 0.125 -0.086 0.742 0.68 1.023 1.27 c 0.281 0.586 0.316 1.191 0.094 1.527 c -0.199 0.301 -0.387 0.289 -0.688 -0.055 m 9.234 0.055 c -0.223 -0.336 -0.184 -0.941 0.094 -1.527 c 0.285 -0.59 0.898 -1.355 1.027 -1.27 c 0.137 0.09 0.102 1.758 -0.047 2.129 c -0.164 0.41 -0.586 0.895 -0.777 0.895 c -0.082 0 -0.215 -0.102 -0.297 -0.227 m -11.125 -1.184 c -0.277 -0.344 -0.398 -0.836 -0.34 -1.391 c 0.086 -0.852 0.223 -1.422 0.383 -1.59 c 0.133 -0.137 0.164 -0.129 0.309 0.109 c 0.207 0.328 0.438 1.238 0.438 1.715 c 0.004 0.379 -0.355 1.246 -0.539 1.305 c -0.055 0.02 -0.168 -0.047 -0.25 -0.148 m 13.316 0.043 c -0.195 -0.25 -0.402 -0.883 -0.402 -1.223 c 0 -0.457 0.238 -1.371 0.438 -1.691 c 0.145 -0.238 0.18 -0.246 0.309 -0.109 c 0.152 0.16 0.285 0.695 0.383 1.527 c 0.059 0.512 -0.09 1.152 -0.332 1.453 c -0.18 0.215 -0.254 0.223 -0.395 0.043 m -14.992 -1.672 c -0.109 -0.117 -0.152 -0.367 -0.152 -0.91 c 0 -0.652 0.043 -0.832 0.332 -1.406 c 0.395 -0.789 0.586 -0.875 0.73 -0.328 c 0.242 0.926 0.066 2.043 -0.402 2.574 c -0.246 0.277 -0.305 0.285 -0.508 0.07 m 16.551 -0.07 c -0.473 -0.531 -0.648 -1.648 -0.402 -2.574 c 0.141 -0.551 0.332 -0.461 0.727 0.34 c 0.285 0.578 0.332 0.766 0.332 1.398 c 0 0.574 -0.039 0.766 -0.176 0.898 c -0.227 0.215 -0.234 0.215 -0.48 -0.063 m -19.04 -2.211 c -0.469 -0.348 -1.156 -1.297 -1.156 -1.598 c 0 -0.086 0.215 -0.07 1.098 0.09 c 0.266 0.051 0.504 0.211 0.848 0.574 c 0.734 0.777 0.777 1.32 0.109 1.32 c -0.277 0 -0.512 -0.102 -0.898 -0.387 m 20.695 0.234 c -0.105 -0.293 0.066 -0.664 0.543 -1.168 c 0.344 -0.363 0.578 -0.523 0.848 -0.574 c 0.879 -0.16 1.098 -0.176 1.098 -0.09 c 0 0.301 -0.688 1.25 -1.156 1.598 c -0.574 0.422 -1.223 0.535 -1.332 0.234 m -18.988 -0.691 c -0.23 -0.352 -0.188 -1.137 0.09 -1.758 c 0.336 -0.746 0.66 -1.148 0.859 -1.066 c 0.133 0.051 0.16 0.215 0.16 0.895 c 0 1.074 -0.262 1.766 -0.793 2.063 c -0.121 0.07 -0.203 0.039 -0.316 -0.133 m 18.14 0.012 c -0.445 -0.371 -0.637 -0.945 -0.641 -1.922 c 0 -0.699 0.027 -0.863 0.16 -0.914 c 0.199 -0.082 0.523 0.32 0.859 1.066 c 0.293 0.652 0.324 1.441 0.07 1.777 l -0.172 0.223 m -19.98 -1.75 c -0.168 -0.109 -0.395 -0.32 -0.512 -0.477 c -0.352 -0.473 -0.762 -2.207 -0.52 -2.207 c 0.133 0 0.539 0.324 1.02 0.809 c 0.539 0.555 0.824 1.328 0.652 1.797 c -0.113 0.32 -0.242 0.336 -0.641 0.078 m 21.09 -0.078 c -0.168 -0.469 0.113 -1.242 0.656 -1.797 c 0.477 -0.484 0.887 -0.809 1.02 -0.809 c 0.266 0 -0.25 1.91 -0.629 2.34 c -0.227 0.258 -0.668 0.535 -0.848 0.535 c -0.055 0 -0.145 -0.121 -0.199 -0.27 m -20.01 -1.039 c -0.031 -0.035 -0.059 -0.332 -0.059 -0.668 c 0 -0.688 0.191 -1.039 0.961 -1.781 c 0.473 -0.453 0.473 -0.66 0.004 -0.66 c -0.262 0 -0.285 -0.031 -0.285 -0.363 c 0 -0.508 0.238 -0.867 1.074 -1.621 c 0.086 -0.078 0.359 -0.211 0.613 -0.301 c 0.379 -0.133 0.469 -0.137 0.512 -0.023 c 0.09 0.25 -0.625 1.664 -0.992 1.961 c -0.281 0.227 -0.332 0.324 -0.285 0.543 c 0.074 0.363 -0.199 1.824 -0.402 2.156 c -0.289 0.465 -0.98 0.926 -1.141 0.758 m 19.07 -0.145 c -0.223 -0.113 -0.492 -0.363 -0.602 -0.551 c -0.25 -0.43 -0.516 -1.742 -0.441 -2.168 c 0.051 -0.277 0.012 -0.359 -0.277 -0.59 c -0.367 -0.301 -1.09 -1.703 -1 -1.949 c 0.051 -0.133 0.113 -0.133 0.516 0.008 c 0.254 0.09 0.531 0.223 0.613 0.301 c 0.836 0.754 1.074 1.113 1.074 1.621 c 0 0.332 -0.023 0.363 -0.285 0.363 c -0.469 0 -0.465 0.207 0.008 0.66 c 0.77 0.746 0.957 1.094 0.957 1.793 c 0 0.34 -0.035 0.641 -0.082 0.672 c -0.043 0.027 -0.262 -0.043 -0.48 -0.16 m -19.969 -1.449 c -0.352 -0.414 -0.453 -0.734 -0.457 -1.465 c -0.004 -0.875 0.105 -1.492 0.266 -1.492 c 0.063 0 0.281 0.277 0.48 0.617 c 0.34 0.578 0.363 0.668 0.363 1.434 c 0 0.602 -0.039 0.855 -0.152 0.977 c -0.203 0.211 -0.262 0.203 -0.5 -0.07 m 20.879 0.07 c -0.113 -0.121 -0.152 -0.375 -0.152 -0.977 c 0 -0.766 0.02 -0.855 0.363 -1.434 c 0.516 -0.875 0.578 -0.844 0.754 0.383 c 0.082 0.598 -0.113 1.512 -0.406 1.879 c -0.281 0.355 -0.348 0.371 -0.559 0.148 m -20.13 -3.133 c -0.164 -0.344 -0.199 -0.563 -0.168 -1.063 c 0.047 -0.672 0.344 -1.617 0.531 -1.684 c 0.223 -0.078 0.508 0.836 0.531 1.711 c 0.02 0.699 -0.008 0.871 -0.18 1.113 c -0.301 0.43 -0.48 0.41 -0.715 -0.078 m 19.262 0.223 c -0.262 -0.305 -0.332 -0.75 -0.25 -1.563 c 0.078 -0.797 0.324 -1.469 0.516 -1.402 c 0.184 0.063 0.48 1.016 0.523 1.68 c 0.031 0.496 -0.004 0.719 -0.164 1.055 c -0.223 0.465 -0.375 0.52 -0.625 0.23 m -17.73 -1.258 c -0.094 -0.055 -0.172 -0.168 -0.172 -0.25 c 0 -0.332 0.531 -1.301 0.859 -1.574 c 0.59 -0.48 1.09 -0.766 1.18 -0.672 c 0.121 0.137 -0.16 1.156 -0.465 1.68 c -0.371 0.633 -1.055 1.031 -1.402 0.816 m 16.316 0 c -0.418 -0.176 -0.844 -0.582 -1.012 -0.965 c -0.246 -0.543 -0.445 -1.426 -0.348 -1.531 c 0.09 -0.098 0.598 0.199 1.18 0.687 c 0.336 0.281 0.855 1.23 0.855 1.563 c 0 0.082 -0.082 0.195 -0.188 0.254 c -0.215 0.121 -0.18 0.121 -0.488 -0.008" fill="#2f8d2f"/><path d="m 12.531 27.2 c -0.234 -0.105 -0.227 -0.113 0.195 -0.238 c 0.242 -0.066 0.527 -0.176 0.637 -0.234 c 0.27 -0.152 1.41 -0.281 1.41 -0.16 c 0 0.172 -0.336 0.434 -0.77 0.598 c -0.484 0.184 -1.113 0.199 -1.473 0.035 m 5.402 -0.043 c -0.223 -0.086 -0.508 -0.273 -0.637 -0.422 l -0.23 -0.273 l 0.684 0.078 c 0.375 0.043 0.77 0.125 0.875 0.188 c 0.105 0.059 0.391 0.168 0.633 0.234 l 0.441 0.129 l -0.277 0.117 c -0.363 0.156 -0.996 0.137 -1.488 -0.051 m -7.789 -0.953 l -0.488 -0.168 l 0.488 -0.086 c 0.266 -0.051 0.73 -0.137 1.027 -0.191 c 0.301 -0.059 0.715 -0.105 0.922 -0.105 h 0.375 l -0.215 0.246 c -0.422 0.48 -1.25 0.598 -2.109 0.305 m 10.117 0.043 c -0.172 -0.066 -0.414 -0.23 -0.535 -0.359 l -0.219 -0.234 h 0.461 c 0.25 0 0.645 0.047 0.875 0.102 c 0.227 0.059 0.656 0.141 0.949 0.191 l 0.539 0.086 l -0.531 0.176 c -0.605 0.203 -1.09 0.215 -1.539 0.039 m -6.34 -1.055 c -0.426 -0.168 -0.922 -0.699 -1.246 -1.336 l -0.266 -0.527 l 0.34 0.25 c 0.543 0.398 1.371 1.148 1.617 1.469 c 0.203 0.262 0.207 0.289 0.051 0.281 c -0.098 -0.008 -0.32 -0.07 -0.496 -0.137 m 3.719 -0.172 c 0.254 -0.324 1 -1 1.609 -1.453 l 0.332 -0.25 l -0.27 0.531 c -0.34 0.676 -0.82 1.176 -1.293 1.352 c -0.578 0.215 -0.66 0.176 -0.379 -0.18 m -8.715 0.035 c -0.543 -0.215 -1.367 -0.68 -1.367 -0.77 c 0 -0.133 0.859 -0.043 1.672 0.176 c 0.305 0.082 0.645 0.148 0.758 0.148 c 0.305 0 0.246 0.16 -0.129 0.352 c -0.332 0.168 -0.66 0.203 -0.934 0.094 m 13.184 -0.09 c -0.359 -0.199 -0.41 -0.355 -0.109 -0.355 c 0.113 0 0.453 -0.066 0.754 -0.148 c 0.816 -0.219 1.672 -0.309 1.672 -0.176 c 0 0.152 -1.238 0.758 -1.656 0.809 c -0.199 0.023 -0.473 -0.027 -0.66 -0.129 m -11.01 -0.801 c -0.34 -0.402 -0.516 -0.883 -0.516 -1.43 c 0 -0.676 0.234 -0.734 0.395 -0.098 c 0.059 0.238 0.145 0.508 0.191 0.602 c 0.047 0.094 0.125 0.309 0.18 0.48 c 0.051 0.172 0.125 0.398 0.16 0.496 c 0.102 0.27 -0.164 0.234 -0.41 -0.051 m 9.383 0.051 c 0.039 -0.098 0.203 -0.594 0.367 -1.094 c 0.344 -1.055 0.555 -1.203 0.555 -0.387 c 0 0.547 -0.172 1.027 -0.516 1.43 c -0.242 0.285 -0.512 0.32 -0.406 0.051 m -13.699 -1.07 c -0.469 -0.262 -1.039 -0.797 -0.953 -0.891 c 0.039 -0.043 0.5 0.09 1.023 0.297 c 0.523 0.203 1.055 0.402 1.176 0.441 c 0.398 0.117 0.176 0.309 -0.379 0.328 c -0.348 0.012 -0.641 -0.047 -0.867 -0.176 m 17.03 0.141 c -0.137 -0.148 -0.047 -0.234 0.398 -0.383 c 0.254 -0.086 0.781 -0.285 1.176 -0.441 c 0.391 -0.152 0.742 -0.246 0.777 -0.207 c 0.086 0.094 -0.496 0.633 -0.973 0.898 c -0.352 0.195 -1.238 0.281 -1.379 0.133 m -14.824 -0.664 c -0.086 -0.23 -0.152 -0.57 -0.148 -0.758 c 0.008 -0.5 0.234 -1.574 0.34 -1.609 c 0.051 -0.02 0.105 0.566 0.121 1.375 c 0.035 1.492 -0.039 1.727 -0.313 0.992 m 13.621 0.348 c 0.027 -0.051 0.066 -0.688 0.082 -1.422 c 0.016 -0.773 0.07 -1.313 0.121 -1.293 c 0.113 0.039 0.34 1.133 0.336 1.637 c 0 0.516 -0.215 1.09 -0.422 1.133 c -0.094 0.02 -0.148 -0.004 -0.117 -0.055 m -17.03 -1.746 c -0.434 -0.285 -0.918 -0.762 -1.059 -1.043 c -0.09 -0.176 -0.074 -0.191 0.176 -0.121 c 0.363 0.098 2.086 1.184 2.086 1.313 c 0 0.203 -0.824 0.102 -1.203 -0.148 m 19.648 0.129 c 0.059 -0.191 2 -1.363 2.191 -1.32 c 0.141 0.027 0.109 0.109 -0.199 0.473 c -0.508 0.602 -1.125 0.969 -1.625 0.969 c -0.262 0 -0.391 -0.043 -0.367 -0.121 m -17.801 -0.148 c -0.035 -0.09 -0.059 -0.453 -0.059 -0.809 c 0 -0.652 0.285 -1.453 0.656 -1.848 c 0.129 -0.137 0.137 -0.121 0.074 0.16 c -0.082 0.359 -0.32 1.691 -0.406 2.27 c -0.063 0.414 -0.168 0.504 -0.266 0.227 m 16.875 -0.172 c -0.266 -1.609 -0.375 -2.25 -0.426 -2.43 c -0.047 -0.188 -0.039 -0.191 0.09 -0.055 c 0.375 0.402 0.656 1.199 0.656 1.848 c 0 0.66 -0.063 0.977 -0.191 0.977 c -0.043 0 -0.102 -0.156 -0.129 -0.34 m -19.04 -1.863 c -0.582 -0.285 -1.527 -1.457 -1.18 -1.457 c 0.23 0 2.02 1.398 2.02 1.578 c 0 0.152 -0.402 0.094 -0.84 -0.121 m 20.633 0.121 c 0 -0.18 1.785 -1.578 2.02 -1.578 c 0.367 0 -0.609 1.18 -1.215 1.465 c -0.465 0.223 -0.801 0.27 -0.801 0.113 m -19.246 -0.906 c -0.102 -0.281 -0.066 -0.832 0.082 -1.285 c 0.137 -0.406 0.727 -1.309 0.805 -1.227 c 0.02 0.023 -0.027 0.223 -0.102 0.445 c -0.078 0.223 -0.238 0.816 -0.359 1.316 c -0.219 0.906 -0.313 1.07 -0.426 0.75 m 18.273 -0.75 c -0.121 -0.5 -0.281 -1.094 -0.359 -1.316 c -0.078 -0.223 -0.121 -0.426 -0.098 -0.449 c 0.07 -0.074 0.711 0.938 0.828 1.313 c 0.176 0.555 0.129 1.367 -0.078 1.367 c -0.043 0 -0.172 -0.41 -0.293 -0.914 m -20.05 -0.84 c -0.305 -0.297 -0.691 -1.227 -0.793 -1.902 l -0.055 -0.363 l 0.371 0.52 c 0.207 0.285 0.547 0.859 0.758 1.277 c 0.332 0.668 0.359 0.762 0.199 0.762 c -0.098 0 -0.316 -0.133 -0.48 -0.293 m 21.973 -0.469 c 0.211 -0.418 0.551 -0.992 0.754 -1.277 l 0.371 -0.52 l -0.055 0.363 c -0.16 1.066 -0.816 2.195 -1.273 2.195 c -0.156 0 -0.129 -0.102 0.203 -0.762 m -1.238 -0.906 c -0.145 -0.098 -1.176 -2.01 -1.121 -2.078 c 0.074 -0.09 0.855 0.672 1.082 1.051 c 0.27 0.465 0.301 1.203 0.039 1.027 m -19.406 -0.32 c 0 -0.41 0.371 -1.027 0.875 -1.457 c 0.219 -0.188 0.418 -0.324 0.434 -0.301 c 0.02 0.02 -0.156 0.391 -0.391 0.82 c -0.234 0.43 -0.469 0.891 -0.523 1.02 c -0.145 0.352 -0.395 0.301 -0.395 -0.082 m -1.059 -1.121 c -0.098 -0.215 -0.211 -0.563 -0.246 -0.773 c -0.07 -0.41 0.02 -1.234 0.133 -1.234 c 0.141 0 0.309 0.586 0.395 1.379 c 0.047 0.449 0.113 0.863 0.145 0.922 c 0.035 0.055 -0.008 0.102 -0.09 0.102 c -0.082 0 -0.234 -0.176 -0.336 -0.395 m 21.34 0.125 c 0.051 -0.148 0.094 -0.469 0.094 -0.711 c 0 -0.473 0.258 -1.422 0.387 -1.422 c 0.117 0 0.199 0.734 0.133 1.199 c -0.078 0.547 -0.387 1.203 -0.566 1.203 c -0.113 0 -0.121 -0.059 -0.047 -0.27 m -19.598 -1.699 c 0 -0.328 0.406 -0.98 0.844 -1.344 c 0.367 -0.309 0.91 -0.531 0.91 -0.375 c 0 0.082 -1.016 1.234 -1.492 1.691 l -0.262 0.254 m 17.328 -0.922 c -0.469 -0.508 -0.852 -0.961 -0.852 -1.012 c 0 -0.188 0.551 0.059 0.969 0.43 c 0.488 0.438 0.809 0.973 0.766 1.289 c -0.023 0.172 -0.188 0.039 -0.883 -0.707 m -18.15 -0.594 c -0.191 -0.414 -0.195 -1.203 -0.004 -1.691 c 0.254 -0.652 0.34 -0.449 0.34 0.82 c 0 0.668 -0.039 1.203 -0.09 1.203 c -0.051 0 -0.16 -0.148 -0.246 -0.332 m 19.543 -0.813 c 0 -0.629 0.043 -1.172 0.094 -1.203 c 0.148 -0.098 0.391 0.648 0.391 1.195 c 0 0.492 -0.227 1.152 -0.395 1.152 c -0.051 0 -0.09 -0.512 -0.09 -1.145 m -18.06 -0.379 c -0.09 -0.094 0.293 -0.996 0.539 -1.285 c 0.207 -0.242 0.883 -0.742 1 -0.742 c 0.102 0 -0.363 0.754 -0.863 1.41 c -0.504 0.652 -0.578 0.723 -0.676 0.617 m 16.391 -0.387 c -0.504 -0.641 -1.086 -1.551 -1.027 -1.613 c 0.074 -0.078 0.652 0.324 0.957 0.668 c 0.383 0.43 0.73 1.398 0.492 1.391 c -0.039 -0.004 -0.23 -0.203 -0.422 -0.445" fill="#006300"/></svg>