<svg xmlns="http://www.w3.org/2000/svg" viewBox="0 0 32 32"><path d="m 25.16 27.438 c -37.26 22.586 -29.484 -48.941 1.867 -19.746 c 5.492 5.262 7.441 15.238 -1.867 19.746" fill="#4581b3"/><g transform="scale(0.125)"><path d="m 70.13 48.844 h 11.375 c 1.656 0 3.03 1.75 3.03 3.906 v 151.06 c 0 2.156 -1.375 3.906 -3.03 3.906 h -11.375 c -1.688 0 -3.03 -1.75 -3.03 -3.906 v -151.06 c 0 -2.156 1.344 -3.906 3.03 -3.906" fill="#313131" stroke="#313131" stroke-width="1.699"/><g stroke-width="1.565"><path d="m 150.34 99.63 c -21.406 -9.25 -41.5 -20.938 -61.53 -30.969 l -13 -6.406 l 3.969 -5.844 c 2.188 -3.188 4.156 -5.813 4.406 -5.813 c 0.25 0 25.813 12.719 56.844 28.313 c 31 15.563 58.25 29.22 60.53 30.375 l 4.125 2.063 l -3.969 5.813 c -2.188 3.188 -4.219 5.781 -4.531 5.781 c -0.313 -0.031 -21.406 -10.5 -46.844 -23.313" fill="#f36b00" stroke="#f36b00"/><path d="m 81.31 201.13 c -2.219 -3.25 -3.906 -6.03 -3.75 -6.188 c 0.375 -0.375 19.375 -9.938 72.63 -36.531 c 24.688 -12.344 45.22 -22.688 45.656 -23.03 c 2.344 -1.781 3.594 -1 7.438 4.656 l 3.906 5.813 l -10.375 5.313 c -5.688 2.938 -32.5 16.406 -59.56 29.938 c -27.06 13.5 -49.563 24.875 -49.969 25.25 c -1.344 1.219 -1.906 0.719 -5.969 -5.219" fill="#2f3faa" stroke="#2f3faa"/></g><path d="m 85.47 128.91 v -60.813 l 4.25 2.094 c 2.313 1.156 12.188 6.281 21.969 11.406 c 9.75 5.094 21.625 11.125 26.375 13.375 c 4.781 2.25 19.969 9.688 33.781 16.531 l 25.09 12.469 v 9.781 l -6.188 3.156 c -3.406 1.75 -17.188 8.688 -30.625 15.438 c -46.5 23.344 -74.03 37.13 -74.34 37.25 c -0.156 0.063 -0.313 -27.25 -0.313 -60.688" fill="#fff" stroke="#fff" stroke-width="0.784"/><path d="m 52.28 186.25 c -2.219 -1.688 -2.875 -3.344 -2.563 -6.688 c 0.406 -4.625 1.031 -5.125 15.281 -12.06 c 9.688 -4.719 13.5 -9.594 17.344 -22.19 c 6.719 -21.875 14.813 -30.719 32.719 -35.688 c 5.469 -1.531 11 -2.781 12.281 -2.781 c 4.563 0 5.313 -4.813 2.344 -15.406 c -1.5 -5.406 -2.375 -10.438 -1.938 -11.188 c 0.469 -0.875 2.438 -0.625 5.25 0.656 c 6.563 2.969 11.563 2.5 15.969 -1.5 c 5.188 -4.75 6.438 -4.438 7.375 1.75 c 0.438 2.906 1.094 7.06 1.469 9.25 c 0.469 2.594 -0.063 4.875 -1.5 6.594 c -2.469 2.969 -2.719 6.156 -1.313 15.594 c 0.938 6.281 0.781 6.688 -5.094 13.875 c -7.375 9.03 -8.5 12 -8.5 22.688 c 0 7.625 0.438 8.875 4.656 13.938 c 4.563 5.5 4.906 8.5 0.969 8.5 c -3.25 0 -12.09 -10.469 -12.09 -14.313 c 0 -4.438 -2.25 -6.781 -6.5 -6.781 c -3.75 0 -7.594 3.844 -10.875 10.906 l -2.125 4.563 h 3.781 c 2.063 0 4.531 1.031 5.5 2.313 c 1.625 2.125 -0.219 2.25 -23.469 1.625 c -24.281 -0.656 -25.563 -0.563 -33.656 2.719 c -4.625 1.875 -9.531 4.563 -10.906 6 c -2.313 2.5 -2.344 2.844 -0.281 6.25 c 2.594 4.281 0.563 4.938 -4.156 1.375" stroke="#000" stroke-width="2.701"/></g></svg>