<svg xmlns="http://www.w3.org/2000/svg" viewBox="0 0 32 32"><path d="m 11.676 30.977 c 16.617 5.91 24.695 -15.328 17.934 -23.309 c -6.766 -7.977 -18.359 -10.703 -24.19 -1.664 c -5.832 9.04 -10.355 19.06 6.262 24.973" fill="#000602"/><path d="m 8.766 27.434 c 0 -0.023 0.957 -1.816 2.129 -3.984 c 1.172 -2.168 2.414 -4.484 2.762 -5.145 l 0.629 -1.199 l -0.133 -4.219 l -1.402 -0.059 c -0.77 -0.035 -1.703 -0.063 -2.074 -0.063 h -0.676 l -0.043 -1.297 c -0.027 -0.711 -0.031 -1.328 -0.008 -1.367 c 0.023 -0.039 2.918 -0.07 6.438 -0.07 h 6.398 l -0.031 1.313 c -0.016 0.723 -0.063 1.348 -0.105 1.391 c -0.043 0.043 -0.953 0.094 -2.023 0.109 c -1.91 0.027 -1.945 0.035 -1.992 0.234 c -0.027 0.113 -0.078 0.949 -0.113 1.859 l -0.066 1.652 l 0.445 0.895 c 0.844 1.695 4.02 7.711 5.02 9.496 l 0.277 0.496 h -2.621 l -2.375 -4.359 l -2.672 0.066 c -2.02 0.051 -2.691 0.098 -2.766 0.188 c -0.055 0.07 -0.559 1.02 -1.121 2.113 l -1.023 1.988 h -1.426 c -0.781 0 -1.422 -0.016 -1.422 -0.039 m 9.336 -6.512 c 0 -0.027 -0.344 -0.75 -0.766 -1.605 c -0.766 -1.547 -0.773 -1.555 -0.934 -1.344 c -0.223 0.297 -1.289 2.641 -1.289 2.836 c 0 0.145 0.152 0.16 1.496 0.16 c 0.82 0 1.492 -0.023 1.492 -0.047 m -1.332 -5.105 l 1.129 -0.063 l 0.133 -3.445 l 1.941 -0.031 c 1.07 -0.016 1.969 -0.055 1.996 -0.082 c 0.027 -0.031 0.063 -0.41 0.078 -0.848 c 0.023 -0.711 0.008 -0.797 -0.137 -0.789 c -0.09 0.004 -2.664 0.012 -5.723 0.023 l -5.555 0.016 v 1.574 l 0.488 0.063 c 0.27 0.031 1.152 0.059 1.961 0.059 c 1.352 0 1.473 0.016 1.563 0.184 c 0.055 0.105 0.098 0.844 0.098 1.727 c 0 0.852 0.027 1.578 0.063 1.609 c 0.078 0.082 0.539 0.082 1.965 0.004" fill="#a3ff37"/><g fill="#fff"><path d="m 10.93 9.176 c -0.695 -0.031 -0.898 -0.07 -1.117 -0.207 c -0.887 -0.551 -1.117 -1.973 -0.488 -2.969 c 0.133 -0.215 0.32 -0.363 0.629 -0.508 c 0.422 -0.199 0.484 -0.207 1.824 -0.207 c 1.156 0 1.445 0.023 1.75 0.141 c 0.391 0.152 0.984 0.742 0.984 0.98 c 0 0.254 -0.719 0.313 -1.012 0.086 c -0.449 -0.352 -0.641 -0.398 -1.66 -0.395 c -1.395 0.004 -1.824 0.223 -1.926 0.988 c -0.055 0.398 0.078 0.781 0.367 1.059 l 0.234 0.223 l 1.293 0.023 l 1.289 0.023 l 0.332 -0.277 c 0.293 -0.242 0.379 -0.273 0.688 -0.254 c 0.293 0.02 0.359 0.051 0.379 0.18 c 0.031 0.238 -0.539 0.848 -0.93 0.988 c -0.367 0.137 -1.379 0.184 -2.637 0.125"/><path d="m 15.09 8.219 c -0.102 -0.102 -0.207 -0.27 -0.23 -0.375 c -0.066 -0.25 0.133 -0.625 0.418 -0.793 c 0.211 -0.125 0.223 -0.16 0.188 -0.488 c -0.055 -0.449 0.121 -0.629 0.648 -0.676 c 0.484 -0.039 0.895 0.16 0.93 0.461 c 0.031 0.293 -0.133 0.332 -0.527 0.133 c -0.496 -0.254 -0.527 -0.098 -0.098 0.449 c 0.203 0.258 0.398 0.473 0.434 0.473 c 0.035 0 0.168 -0.082 0.297 -0.191 c 0.398 -0.332 0.609 -0.219 0.398 0.219 c -0.121 0.258 -0.121 0.281 0.043 0.543 c 0.262 0.426 0.098 0.551 -0.41 0.309 c -0.246 -0.117 -0.289 -0.117 -0.582 0 c -0.18 0.07 -0.531 0.125 -0.816 0.125 c -0.43 0 -0.531 -0.027 -0.691 -0.184 m 1.305 -0.5 c 0.023 -0.039 -0.117 -0.215 -0.313 -0.398 l -0.355 -0.328 l -0.102 0.188 c -0.059 0.102 -0.105 0.277 -0.105 0.395 c -0.004 0.207 0.008 0.211 0.414 0.211 c 0.23 0 0.437 -0.031 0.461 -0.066"/><path d="m 19.13 9.08 c -0.387 -0.125 -0.871 -0.645 -0.992 -1.059 c -0.156 -0.516 -0.125 -1.313 0.066 -1.746 c 0.199 -0.453 0.34 -0.613 0.73 -0.82 c 0.289 -0.152 0.422 -0.164 1.891 -0.164 h 1.578 l 0.363 0.211 c 0.598 0.352 0.953 0.965 0.629 1.09 c -0.262 0.098 -0.641 0.043 -0.852 -0.133 c -0.414 -0.336 -0.637 -0.379 -1.852 -0.348 c -1.266 0.035 -1.375 0.07 -1.633 0.531 c -0.207 0.367 -0.203 0.723 0.012 1.152 c 0.258 0.512 0.441 0.574 1.715 0.574 c 1.215 0 1.391 -0.031 1.73 -0.32 c 0.18 -0.148 0.336 -0.207 0.578 -0.211 c 0.184 -0.004 0.359 0.016 0.391 0.047 c 0.094 0.098 -0.039 0.437 -0.285 0.719 c -0.449 0.508 -0.547 0.531 -2.262 0.551 c -1 0.008 -1.633 -0.016 -1.809 -0.074"/></g></svg>