<svg xmlns="http://www.w3.org/2000/svg" viewBox="0 0 32 32"><path d="m 28.703 24.48 c 11.508 -16.367 -9.742 -32.949 -23.297 -19.613 c -12.773 12.563 -0.934 32.09 14.961 25.98 c 3.316 -1.273 6.223 -3.363 8.336 -6.367" fill="#738ec2"/><g fill="#b9c8e8"><path d="m 16.219 20.309 c -0.332 -0.094 -0.332 -0.172 -0.02 -0.922 c 0.344 -0.828 0.344 -4.773 -0.004 -5.887 c -0.133 -0.43 -0.242 -0.855 -0.246 -0.945 c 0 -0.301 0.766 -0.531 1.754 -0.527 c 1.324 0 1.457 0.109 1.074 0.867 c -0.605 1.207 -0.578 6.07 0.039 6.52 c 0.59 0.43 1.883 0.172 2.805 -0.559 c 0.32 -0.258 0.641 -0.465 0.715 -0.465 c 0.184 0 0.168 1.418 -0.016 1.707 c -0.121 0.191 -0.652 0.238 -2.988 0.262 c -1.563 0.016 -2.961 -0.008 -3.113 -0.051"/><path d="m 12.1 20.281 c -0.148 -0.098 -0.156 -0.316 -0.035 -0.969 c 0.09 -0.461 0.117 -1.344 0.059 -1.953 c -0.055 -0.613 -0.059 -1.285 -0.004 -1.492 c 0.098 -0.387 1.09 -1.043 1.285 -0.848 c 0.141 0.141 0.344 2.469 0.355 4.109 l 0.012 1.281 l -0.738 -0.004 c -0.406 0 -0.824 -0.059 -0.934 -0.125"/><path d="m 11.785 13.926 c -0.188 -0.391 0.098 -1.336 0.504 -1.652 c 0.828 -0.656 1.789 0.793 1.051 1.582 c -0.391 0.418 -1.367 0.461 -1.555 0.07"/><path d="m 23.656 19.609 c 0.219 -1.363 0.109 -5.152 -0.18 -6.145 c -0.375 -1.293 -0.258 -1.363 2.223 -1.363 c 2.227 0 2.703 0.145 3.184 0.973 c 0.363 0.617 0.383 1.844 0.047 2.496 c -0.355 0.684 -0.934 1.07 -1.926 1.285 c -0.484 0.102 -0.977 0.262 -1.09 0.348 c -0.258 0.199 -0.172 1.66 0.137 2.387 c 0.117 0.273 0.156 0.551 0.09 0.617 c -0.066 0.07 -0.684 0.148 -1.367 0.18 l -1.25 0.059 l 0.137 -0.836 m 3.234 -3.883 c 0.391 -0.313 0.422 -0.406 0.355 -1.191 c -0.055 -0.648 -0.156 -0.926 -0.422 -1.141 c -0.43 -0.348 -0.539 -0.352 -0.852 -0.039 c -0.25 0.246 -0.352 1.934 -0.148 2.461 c 0.129 0.34 0.563 0.305 1.066 -0.09"/><path d="m 5.109 20.277 c -0.164 -0.102 -0.133 -0.25 0.133 -0.703 c 0.313 -0.527 0.34 -0.781 0.336 -3.035 c -0.004 -2.535 -0.09 -2.969 -0.656 -3.273 c -0.23 -0.125 -0.523 -0.07 -1.266 0.23 c -0.527 0.215 -0.984 0.391 -1.012 0.391 c -0.188 0 0.004 -0.965 0.246 -1.262 c 0.293 -0.367 0.32 -0.367 3.531 -0.367 c 3.531 0 3.934 0.082 3.934 0.793 c 0 0.52 -0.262 0.992 -0.555 0.992 c -0.129 0 -0.492 -0.176 -0.809 -0.387 c -0.313 -0.215 -0.656 -0.391 -0.766 -0.391 c -0.332 0 -0.434 0.766 -0.434 3.262 c 0 2.059 0.043 2.484 0.293 2.941 c 0.277 0.512 0.277 0.539 0.008 0.734 c -0.313 0.23 -2.648 0.289 -2.988 0.074"/></g></svg>