<svg xmlns="http://www.w3.org/2000/svg" viewBox="0 0 32 32"><path d="m 15.945 31.879 c -21.18 2.422 -20.883 -32.26 0.379 -31.852 c 19.773 -1.145 21.559 33.742 -0.379 31.852" fill="#9aa3a9"/><path d="m 15.32 15.781 h 1.523 c 1.02 0 1.848 1.043 1.848 2.328 v 4.305 c 0 1.285 -0.828 2.328 -1.848 2.328 h -1.523 c -1.023 0 -1.852 -1.043 -1.852 -2.328 v -4.305 c 0 -1.285 0.828 -2.328 1.852 -2.328" fill="#fff"/><path d="m 11.172 26.504 c -0.242 -0.059 -0.547 -0.27 -0.762 -0.535 l -0.359 -0.434 l -0.086 -5.84 c -0.074 -5.203 -0.066 -5.875 0.098 -6.207 c 0.215 -0.441 0.793 -0.977 1.156 -1.07 c 0.246 -0.066 0.266 -0.148 0.336 -1.348 c 0.043 -0.707 0.074 -1.551 0.074 -1.879 c 0 -0.813 0.273 -1.367 0.859 -1.727 c 0.48 -0.297 0.496 -0.297 3.523 -0.297 h 3.047 l 0.469 0.359 c 0.258 0.195 0.535 0.48 0.617 0.633 c 0.09 0.172 0.168 0.992 0.207 2.18 l 0.059 1.902 l 0.516 0.273 c 0.285 0.148 0.633 0.457 0.777 0.684 l 0.258 0.41 v 5.816 c 0 6.617 0.027 6.418 -0.922 6.93 c -0.5 0.27 -0.551 0.273 -4.984 0.262 c -2.465 -0.008 -4.664 -0.059 -4.883 -0.113 m 5.305 -2.563 c 0.309 -0.258 0.344 -0.633 0.09 -0.969 c -0.172 -0.23 -0.23 -0.492 -0.23 -1.027 c 0 -0.688 0.02 -0.73 0.457 -1.102 c 0.293 -0.25 0.504 -0.555 0.59 -0.867 c 0.078 -0.266 0.207 -0.543 0.293 -0.617 c 0.164 -0.145 0.203 -0.684 0.066 -0.898 c -0.137 -0.207 -0.465 -0.293 -0.832 -0.215 c -0.32 0.066 -0.344 0.113 -0.344 0.594 c 0 0.371 0.059 0.559 0.199 0.645 c 0.184 0.109 0.188 0.152 0.031 0.449 c -0.098 0.184 -0.246 0.355 -0.332 0.387 c -0.133 0.043 -0.148 -0.176 -0.105 -1.254 c 0.035 -0.836 0.105 -1.328 0.188 -1.355 c 0.215 -0.074 0.156 -0.422 -0.16 -0.914 c -0.336 -0.516 -0.438 -0.488 -0.871 0.254 c -0.234 0.398 -0.238 0.434 -0.055 0.578 c 0.164 0.125 0.211 0.426 0.266 1.664 c 0.039 0.828 0.035 1.602 -0.008 1.719 c -0.07 0.199 -0.09 0.199 -0.305 -0.004 c -0.266 -0.258 -0.285 -0.633 -0.051 -0.961 c 0.094 -0.129 0.168 -0.34 0.168 -0.473 c 0 -0.629 -0.855 -0.926 -1.195 -0.414 c -0.234 0.352 -0.223 0.574 0.051 0.941 c 0.121 0.168 0.223 0.402 0.227 0.523 c 0.004 0.379 0.359 0.891 0.766 1.094 c 0.457 0.23 0.488 0.492 0.137 1.234 c -0.234 0.492 -0.238 0.535 -0.055 0.828 c 0.211 0.344 0.699 0.418 1.016 0.16 m 4.352 -9.523 c -0.258 -0.23 -0.465 -0.238 -4.855 -0.238 c -4.43 0 -5.03 0.043 -5.03 0.367 c 0 0.07 1.891 0.113 5.078 0.109 c 5.066 -0.004 5.082 -0.004 4.809 -0.238 m -0.98 -3.293 l -0.078 -2.688 c -0.227 -0.223 -0.453 -0.445 -0.684 -0.664 h -6.297 c -0.215 0.191 -0.43 0.387 -0.641 0.582 l -0.07 5.461 h 7.848" fill="#17628b"/><path d="m 12.16 10.973 c 0 -3.66 -0.359 -3.344 3.793 -3.344 c 3.129 0 3.184 0.004 3.457 0.316 c 0.254 0.293 0.285 0.555 0.371 3.035 l 0.098 2.719 h -7.719" fill="#d2d9dc"/><g fill="#737f85"><path d="m 13.316 12.328 c -0.18 -0.109 -0.23 -0.324 -0.23 -0.988 c 0 -0.48 0.07 -0.922 0.16 -1.016 c 0.086 -0.09 0.496 -0.164 0.91 -0.164 c 0.879 0 0.918 0.051 0.918 1.234 c 0 0.652 -0.051 0.824 -0.258 0.941 c -0.324 0.176 -1.195 0.176 -1.5 -0.008"/><path d="m 16.93 12.262 c -0.242 -0.246 -0.285 -1.422 -0.07 -1.836 c 0.199 -0.387 1.645 -0.387 1.844 0 c 0.215 0.414 0.172 1.59 -0.07 1.836 c -0.281 0.289 -1.422 0.289 -1.703 0"/></g></svg>