<svg xmlns="http://www.w3.org/2000/svg" viewBox="0 0 32 32"><defs><linearGradient id="6" gradientUnits="userSpaceOnUse" x1="40.33" y1="19.813" x2="42.02" y2="22.625" gradientTransform="matrix(-0.28351 0.07487 -0.07597 -0.2794 21.91 21.763)"><stop stop-color="#c1c1c1"/><stop offset="1" stop-color="#ababab"/></linearGradient><linearGradient id="5" gradientUnits="userSpaceOnUse" x1="43.24" y1="17.376" x2="45.32" y2="22.251" gradientTransform="matrix(-0.28351 0.07487 -0.07597 -0.2794 21.91 21.763)"><stop stop-color="#ffd0d0"/><stop offset="0.5" stop-color="#ff1c1c"/><stop offset="1" stop-color="#6f0000"/></linearGradient><linearGradient id="8" gradientUnits="userSpaceOnUse" x1="19.893" y1="31.17" x2="19.689" y2="30.828" gradientTransform="matrix(-0.28351 0.07487 -0.07597 -0.2794 21.91 21.763)"><stop stop-color="#000"/><stop offset="1" stop-color="#c8c8c8"/></linearGradient><linearGradient id="0" gradientUnits="userSpaceOnUse" x1="26.21" y1="14.09" x2="26.13" y2="67.03"><stop stop-color="#fff" stop-opacity="0.482"/><stop offset="1" stop-color="#fff" stop-opacity="0"/></linearGradient><radialGradient id="7" gradientUnits="userSpaceOnUse" cx="29.05" cy="27.641" r="3.241" gradientTransform="matrix(-0.82886 0.21888 -0.15419 -0.56711 41.481 24.945)"><stop stop-color="#e6e2b8"/><stop offset="1" stop-color="#e6e2b8" stop-opacity="0"/></radialGradient><radialGradient id="2" gradientUnits="userSpaceOnUse" cx="45.15" cy="35.915" r="21.627" gradientTransform="matrix(1.66971 0 0 1.22048 -30.24 -11.799)"><stop stop-color="#fff27e"/><stop offset="1" stop-color="#ecd400"/></radialGradient><radialGradient id="3" gradientUnits="userSpaceOnUse" cx="43.875" cy="35.901" r="20.22" gradientTransform="matrix(10.88255 0 0 11.39737 -433.6 -381.38)"><stop stop-color="#fff" stop-opacity="0.467"/><stop offset="1" stop-color="#fff" stop-opacity="0"/></radialGradient><radialGradient id="4" gradientUnits="userSpaceOnUse" cx="23.563" cy="40.44" r="19.563" gradientTransform="matrix(0.16912 0 0 0.02763 14.463 16.893)"><stop stop-color="#000" stop-opacity="0.2"/><stop offset="1" stop-color="#000" stop-opacity="0"/></radialGradient><radialGradient id="1" gradientUnits="userSpaceOnUse" cx="39.907" cy="31.781" r="5.259" gradientTransform="matrix(0.27427 0 0 0.09767 11.312 16.874)"><stop stop-color="#000" stop-opacity="0.467"/><stop offset="1" stop-color="#000" stop-opacity="0"/></radialGradient></defs><path d="m 16.05 0.391 c 21.11 -2.402 20.816 31.992 -0.375 31.582 c -19.707 1.133 -21.488 -33.453 0.375 -31.582" fill="#eaf81c"/><g fill-opacity="0.976"><g fill="#96c023"><path d="m 15.949 6.996 c -3.01 0 -5.457 2 -5.457 4.477 c 0 0.168 0.008 0.336 0.027 0.5 h 10.859 c 0.023 -0.164 0.031 -0.332 0.031 -0.5 c 0 -2.473 -2.445 -4.477 -5.461 -4.477"/><path d="m 10.449 12.316 v 8.05 c 0 0.66 0.723 1.188 1.617 1.188 h 7.699 c 0.895 0 1.617 -0.527 1.617 -1.188 v -8.05"/><path d="m 13.156 19.367 h 1.574 c 0.254 0 0.461 0.16 0.461 0.359 v 5.348 c 0 0.199 -0.207 0.363 -0.461 0.363 h -1.574 c -0.254 0 -0.461 -0.164 -0.461 -0.363 v -5.348 c 0 -0.199 0.207 -0.359 0.461 -0.359"/><path d="m 17.223 19.367 h 1.578 c 0.254 0 0.461 0.16 0.461 0.359 v 5.348 c 0 0.199 -0.207 0.363 -0.461 0.363 h -1.578 c -0.254 0 -0.461 -0.164 -0.461 -0.363 v -5.348 c 0 -0.199 0.207 -0.359 0.461 -0.359"/><path d="m 12.668 5.598 l 1.031 1.996 c 0.016 0.031 0.008 0.074 -0.02 0.094 l -0.262 0.156 c -0.027 0.02 -0.063 0.004 -0.082 -0.031 l -1.027 -1.992 c -0.02 -0.035 -0.012 -0.078 0.016 -0.094 l 0.262 -0.16 c 0.027 -0.016 0.066 -0.004 0.082 0.031"/><path d="m 19.258 5.656 l -1.031 1.941 c -0.016 0.035 -0.008 0.074 0.02 0.09 l 0.262 0.156 c 0.027 0.016 0.063 0.004 0.082 -0.031 l 1.027 -1.941 c 0.02 -0.031 0.012 -0.074 -0.02 -0.09 l -0.258 -0.156 c -0.027 -0.016 -0.066 0 -0.082 0.031"/><path d="m 13.941 9.484 c 0 0.266 -0.223 0.484 -0.496 0.484 c -0.273 0 -0.492 -0.219 -0.492 -0.484 c 0 -0.27 0.219 -0.488 0.492 -0.488 c 0.273 0 0.496 0.219 0.496 0.488"/><path d="m 18.965 9.484 c 0 0.266 -0.219 0.484 -0.492 0.484 c -0.273 0 -0.492 -0.219 -0.492 -0.484 c 0 -0.27 0.219 -0.488 0.492 -0.488 c 0.273 0 0.492 0.219 0.492 0.488"/></g><g fill="#fff"><path d="m 13.941 9.484 c 0 0.266 -0.223 0.484 -0.496 0.484 c -0.273 0 -0.492 -0.219 -0.492 -0.484 c 0 -0.27 0.219 -0.488 0.492 -0.488 c 0.273 0 0.496 0.219 0.496 0.488"/><path d="m 18.965 9.484 c 0 0.266 -0.219 0.484 -0.492 0.484 c -0.273 0 -0.492 -0.219 -0.492 -0.484 c 0 -0.27 0.219 -0.488 0.492 -0.488 c 0.273 0 0.492 0.219 0.492 0.488"/></g></g><g fill-rule="evenodd"><g fill-opacity="0.047"><path d="m 13.12 21.12 c -0.602 0 -1.086 0.477 -1.086 1.066 c 0 0.586 0.484 1.063 1.086 1.063 h 10 c 0.602 0 1.086 -0.477 1.086 -1.063 c 0 -0.59 -0.484 -1.066 -1.086 -1.066"/><path d="m 13.12 21.19 c -0.563 0 -1.012 0.441 -1.012 0.992 c 0 0.547 0.449 0.992 1.012 0.992 h 10 c 0.559 0 1.012 -0.445 1.012 -0.992 c 0 -0.551 -0.453 -0.992 -1.012 -0.992"/><path d="m 13.12 21.262 c -0.52 0 -0.941 0.41 -0.941 0.922 c 0 0.508 0.422 0.918 0.941 0.918 h 10 c 0.52 0 0.941 -0.41 0.941 -0.918 c 0 -0.512 -0.422 -0.922 -0.941 -0.922"/><path d="m 13.12 21.332 c -0.48 0 -0.867 0.379 -0.867 0.852 c 0 0.469 0.387 0.848 0.867 0.848 h 10 c 0.48 0 0.867 -0.379 0.867 -0.848 c 0 -0.473 -0.387 -0.852 -0.867 -0.852"/><path d="m 13.12 21.402 c -0.441 0 -0.797 0.348 -0.797 0.781 c 0 0.43 0.355 0.777 0.797 0.777 h 10 c 0.441 0 0.797 -0.348 0.797 -0.777 c 0 -0.434 -0.355 -0.781 -0.797 -0.781"/><path d="m 13.12 21.473 c -0.402 0 -0.723 0.316 -0.723 0.711 c 0 0.391 0.32 0.707 0.723 0.707 h 10 c 0.398 0 0.723 -0.316 0.723 -0.707 c 0 -0.395 -0.324 -0.711 -0.723 -0.711"/><path d="m 13.12 21.543 c -0.359 0 -0.652 0.285 -0.652 0.641 c 0 0.352 0.293 0.637 0.652 0.637 h 10 c 0.359 0 0.652 -0.285 0.652 -0.637 c 0 -0.355 -0.293 -0.641 -0.652 -0.641"/><path d="m 13.12 21.613 c -0.32 0 -0.578 0.254 -0.578 0.57 c 0 0.313 0.258 0.566 0.578 0.566 h 10 c 0.32 0 0.578 -0.254 0.578 -0.566 c 0 -0.316 -0.258 -0.57 -0.578 -0.57"/></g><path d="m 10.299 14.597 l 28.656 0.347 c 0.755 0 1.239 0.578 1.367 1.199 c 0 0 4.401 19.813 4.401 19.813 c 0 0 0.014 6.344 0.014 6.344 c 0 0.665 -0.612 1.199 -1.367 1.199 h -37.486 c -0.755 0 -1.367 -0.535 -1.367 -1.199 l -0.014 -6.156 l 4.415 -20.348 c 0.313 -0.665 0.627 -1.199 1.382 -1.199" transform="matrix(0.27427 0 0 0.2703 11.312 10.847)" fill="#ecd400" stroke="#c39f00"/><path d="m 12.77 20.566 h 10.602 c 0.031 0 0.055 0.023 0.055 0.055 v 1.801 c 0 0.031 -0.023 0.055 -0.055 0.055 h -10.602 c -0.031 0 -0.055 -0.023 -0.055 -0.055 v -1.801 c 0 -0.031 0.023 -0.055 0.055 -0.055" fill="#f47800" fill-opacity="0.373"/><path d="m 12.699 20.723 c 0 0 0.043 -0.145 0.195 -0.156 h 10.301 c 0.207 0 0.223 0.203 0.223 0.203 c 0 0 0.008 -0.438 -0.352 -0.438 h -9.988 c -0.277 0.023 -0.379 0.211 -0.379 0.391" fill="#fff" fill-opacity="0.165"/></g><path d="m 10.314 15.594 c -0.157 0 -0.1 -0.029 -0.157 0.029 c -0.057 0.058 -0.157 0.275 -0.285 0.535 c -0.014 0.029 -0.014 0.029 -0.028 0.058 l -4.344 19.914 v 6.185 c 0 0.043 0.071 0.188 0.37 0.188 h 37.5 c 0.313 0 0.385 -0.145 0.385 -0.188 c 0 0 -0.028 -6.07 -0.028 -6.258 c 0 0 0 -0.087 0 -0.087 c -0.1 -0.419 -4.387 -19.596 -4.387 -19.596 c -0.057 -0.26 -0.171 -0.434 -0.399 -0.434" transform="matrix(0.27427 0 0 0.2703 11.312 10.847)" fill="none" stroke="url(#0)"/><g fill-rule="evenodd"><path d="m 23.434 20.492 c -0.105 -0.34 -0.242 -1.027 -0.242 -1.027 l -2.449 0.859 c 1.574 0 2.352 -0.07 2.691 0.168" fill="url(#1)"/><path d="m 8.79 16.433 l -4.145 18.02 c 0 0 21.477 0.13 29.28 0.13 c 7.976 0 11.152 -2.977 11.152 -2.977 c 0 0 -1.011 -0.448 -2.322 -4.957 c 0 0 -2.407 -10.506 -2.407 -10.506 c -0.456 -1.185 -0.855 -1.662 -1.752 -1.647 h -27.787 c -1.738 0.029 -1.738 0.824 -2.022 1.937" transform="matrix(0.27427 0 0 0.2703 11.312 10.847)" fill="url(#2)" stroke="#c39f00"/></g><path d="m 10.812 15.493 c -0.641 0.029 -0.712 0.101 -0.755 0.159 c -0.043 0.058 -0.142 0.419 -0.313 1.041 l -3.831 16.778 c 1.681 0 20.566 0.116 28.03 0.116 c 3.86 0 6.509 -0.708 8.189 -1.402 c 1.054 -0.434 1.111 -0.578 1.424 -0.809 c -0.484 -0.795 -1.097 -2.124 -1.78 -4.437 c 0 -0.029 0 -0.043 0 -0.072 c 0 0 -2.293 -10.03 -2.364 -10.333 c -0.214 -0.549 -0.385 -0.853 -0.47 -0.939 c -0.085 -0.087 -0.071 -0.101 -0.342 -0.101" transform="matrix(0.27427 0 0 0.2703 11.312 10.847)" fill="none" stroke="url(#3)"/><g fill-rule="evenodd"><g fill="#fff" fill-opacity="0.263"><path d="m 12.699 21.262 c 0 0 0.043 -0.141 0.195 -0.156 h 10.301 c 0.207 0 0.223 0.203 0.223 0.203 c 0 0 0.008 -0.438 -0.352 -0.438 h -9.988 c -0.277 0.023 -0.379 0.211 -0.379 0.391"/><path d="m 12.699 21.805 c 0 0 0.043 -0.145 0.195 -0.156 h 10.301 c 0.207 0 0.223 0.203 0.223 0.203 c 0 0 0.008 -0.438 -0.352 -0.438 h -9.988 c -0.277 0.023 -0.379 0.211 -0.379 0.391"/><path d="m 12.699 22.344 c 0 0 0.043 -0.145 0.195 -0.156 h 10.301 c 0.207 0 0.223 0.203 0.223 0.203 c 0 0 0.008 -0.438 -0.352 -0.438 h -9.988 c -0.277 0.023 -0.379 0.211 -0.379 0.391"/></g><path d="m 21.758 18.01 c 0 0.297 -1.48 0.539 -3.309 0.539 c -1.828 0 -3.309 -0.242 -3.309 -0.539 c 0 -0.301 1.48 -0.543 3.309 -0.543 c 1.828 0 3.309 0.242 3.309 0.543" fill="url(#4)"/><path d="m 17.344 32.502 l 5.626 -5.623 l 20.09 -9.759 c 3.253 -1.239 5.186 3.375 2.309 5.01 l -20.02 9.37" transform="matrix(-0.28351 0.07487 -0.07597 -0.2794 21.91 21.763)" fill="#ca8f21" stroke="#5b400b" stroke-width="0.934"/><path d="m 9.523 19.04 c 0 0 -0.414 0.082 -0.668 -0.223 c -0.262 -0.316 -0.203 -0.742 -0.203 -0.742 l -1.238 1.066 c 0 0 -0.344 0.355 0.031 0.844 c 0.367 0.48 0.848 0.121 0.848 0.121" fill="url(#5)"/><path d="m 9.523 19.04 c 0 0 -0.414 0.082 -0.668 -0.223 c -0.262 -0.316 -0.203 -0.742 -0.203 -0.742 l -0.492 0.43 c 0 0 -0.133 0.43 0.145 0.766 c 0.281 0.348 0.727 0.199 0.727 0.199 l 0.492 -0.426" fill="url(#6)"/><path d="m 14.176 14.289 l -0.934 1.594 c -0.488 -0.113 -0.813 -0.434 -0.816 -0.898" fill="url(#7)"/><path d="m 13.902 14.781 l 0.34 -0.566 l -0.641 0.262 c -0.008 0.219 0.133 0.285 0.301 0.305" fill="url(#8)"/><g fill-opacity="0.365"><path d="m 13.242 15.891 l -0.539 -0.23 l -3.805 3.195 c 0.191 0.207 0.434 0.211 0.629 0.184" fill="#fff"/><path d="m 12.422 14.969 l 0.004 0.223 l -3.777 3.133 c 0 0 -0.016 -0.18 0.008 -0.227"/></g></g><g fill="#96c023" fill-opacity="0.976"><path d="m 22.14 12.453 h 1.574 c 0.254 0 0.461 0.164 0.461 0.367 v 6.828 c 0 0.199 -0.207 0.363 -0.461 0.363 h -1.574 c -0.254 0 -0.461 -0.164 -0.461 -0.363 v -6.828 c 0 -0.203 0.207 -0.367 0.461 -0.367"/><path d="m 7.992 12.371 h 1.578 c 0.254 0 0.461 0.164 0.461 0.363 v 6.832 c 0 0.199 -0.207 0.363 -0.461 0.363 h -1.578 c -0.254 0 -0.461 -0.164 -0.461 -0.363 v -6.832 c 0 -0.199 0.207 -0.363 0.461 -0.363"/></g></svg>