<svg xmlns="http://www.w3.org/2000/svg" viewBox="0 0 32 32"><path d="m 27.895 5.063 c 18.15 27.695 -31.418 38.41 -27.469 9.922 c 1.609 -11.621 20.527 -20.52 27.469 -9.922" fill="#ffdeac"/><path d="m 18.965 24.59 c -0.305 -0.18 -0.922 -0.457 -1.375 -0.617 c -0.449 -0.164 -1.176 -0.477 -1.613 -0.699 c -1.668 -0.848 -2.18 -1.086 -2.316 -1.086 c -0.074 0 -0.512 -0.203 -0.969 -0.449 c -0.461 -0.246 -1.129 -0.539 -1.488 -0.656 c -1.832 -0.586 -3.512 -1.293 -3.645 -1.531 c -0.059 -0.105 -0.109 -0.766 -0.109 -1.469 c -0.004 -0.879 -0.098 -1.578 -0.301 -2.219 c -0.188 -0.582 -0.281 -1.223 -0.254 -1.707 c 0.043 -0.766 0.047 -0.77 0.621 -0.852 c 0.453 -0.063 0.621 -0.176 0.77 -0.523 c 0.164 -0.387 0.27 -0.445 0.844 -0.445 c 0.477 0 0.934 -0.164 1.699 -0.617 l 1.051 -0.617 l 3.469 -0.039 c 2.512 -0.027 3.574 0.016 3.859 0.16 c 0.359 0.184 0.434 0.156 0.867 -0.313 c 0.586 -0.633 0.754 -0.637 1.031 -0.039 c 0.301 0.652 0.906 1.145 1.406 1.145 c 0.684 0 1.219 0.414 1.563 1.207 c 0.27 0.617 0.293 0.813 0.16 1.238 c -0.086 0.281 -0.156 0.801 -0.156 1.16 c 0 0.355 -0.082 0.895 -0.176 1.191 c -0.141 0.426 -0.141 0.609 0 0.859 c 0.211 0.379 0.238 2.84 0.031 2.98 c -0.082 0.055 -0.145 0.32 -0.145 0.59 c 0 1.188 -1.098 2.074 -2.746 2.23 c -0.797 0.074 -0.945 0.137 -0.984 0.41 c -0.156 1.188 -0.215 1.227 -1.094 0.707 m 0.504 -1.633 c -0.102 -0.559 -0.227 -1.445 -0.281 -1.977 l -0.102 -0.965 l -0.969 -0.285 c -0.984 -0.285 -3.07 -1.242 -4.383 -2.01 c -0.398 -0.23 -1.211 -0.707 -1.809 -1.055 c -0.754 -0.441 -1.453 -0.703 -2.313 -0.867 c -0.676 -0.129 -1.41 -0.316 -1.633 -0.418 c -0.219 -0.102 -0.441 -0.137 -0.496 -0.078 c -0.051 0.059 0.055 0.602 0.234 1.211 c 0.281 0.965 0.305 1.203 0.16 1.801 c -0.254 1.043 -0.145 1.117 3.688 2.543 c 0.715 0.27 2.246 0.938 3.398 1.488 c 2.73 1.305 4.375 1.941 4.547 1.762 c 0.086 -0.09 0.07 -0.523 -0.043 -1.152" fill="#ac9759"/><path d="m 18.965 24.59 c -0.305 -0.18 -0.922 -0.457 -1.375 -0.617 c -0.449 -0.164 -1.176 -0.477 -1.613 -0.699 c -1.668 -0.848 -2.18 -1.086 -2.316 -1.086 c -0.074 0 -0.512 -0.203 -0.969 -0.449 c -0.461 -0.246 -1.129 -0.539 -1.488 -0.656 c -1.832 -0.586 -3.512 -1.293 -3.645 -1.531 c -0.059 -0.105 -0.109 -0.766 -0.109 -1.469 c -0.004 -0.879 -0.098 -1.578 -0.301 -2.219 c -0.188 -0.582 -0.281 -1.223 -0.254 -1.707 c 0.043 -0.766 0.047 -0.77 0.621 -0.852 c 0.453 -0.063 0.621 -0.176 0.77 -0.523 c 0.164 -0.387 0.27 -0.445 0.844 -0.445 c 0.477 0 0.934 -0.164 1.699 -0.617 l 1.051 -0.617 l 3.469 -0.039 c 2.512 -0.027 3.574 0.016 3.859 0.16 c 0.359 0.184 0.434 0.156 0.867 -0.313 c 0.586 -0.633 0.754 -0.637 1.031 -0.039 c 0.301 0.652 0.906 1.145 1.406 1.145 c 0.684 0 1.219 0.414 1.563 1.207 c 0.27 0.617 0.293 0.813 0.16 1.238 c -0.086 0.281 -0.156 0.801 -0.156 1.16 c 0 0.355 -0.082 0.895 -0.176 1.191 c -0.141 0.426 -0.141 0.609 0 0.859 c 0.211 0.379 0.238 2.84 0.031 2.98 c -0.082 0.055 -0.145 0.32 -0.145 0.59 c 0 1.188 -1.098 2.074 -2.746 2.23 c -0.797 0.074 -0.945 0.137 -0.984 0.41 c -0.156 1.188 -0.215 1.227 -1.094 0.707 m 0.504 -1.633 c -0.102 -0.559 -0.227 -1.445 -0.281 -1.977 l -0.102 -0.965 l -0.969 -0.285 c -0.984 -0.285 -3.07 -1.242 -4.383 -2.01 c -0.398 -0.23 -1.211 -0.707 -1.809 -1.055 c -0.754 -0.441 -1.453 -0.703 -2.313 -0.867 c -0.676 -0.129 -1.41 -0.316 -1.633 -0.418 c -0.219 -0.102 -0.441 -0.137 -0.496 -0.078 c -0.051 0.059 0.055 0.602 0.234 1.211 c 0.281 0.965 0.305 1.203 0.16 1.801 c -0.254 1.043 -0.145 1.117 3.688 2.543 c 0.715 0.27 2.246 0.938 3.398 1.488 c 2.73 1.305 4.375 1.941 4.547 1.762 c 0.086 -0.09 0.07 -0.523 -0.043 -1.152 m 3.957 -8.363 c 0.078 -0.766 0.051 -1.059 -0.133 -1.371 c -0.285 -0.488 -0.52 -0.52 -0.52 -0.066 c 0 0.184 -0.098 0.445 -0.223 0.582 c -0.199 0.223 -0.191 0.305 0.074 0.805 c 0.16 0.309 0.293 0.664 0.293 0.789 c 0 0.129 0.094 0.234 0.203 0.234 c 0.141 0 0.234 -0.301 0.305 -0.973 m -2.199 -0.242 c -0.055 -0.387 0.008 -0.715 0.219 -1.113 c 0.281 -0.531 0.285 -0.566 0.043 -0.652 c -0.145 -0.051 -0.41 -0.27 -0.59 -0.488 l -0.332 -0.395 l -0.363 0.316 c -0.199 0.176 -0.461 0.316 -0.586 0.316 c -0.18 0 -0.188 0.043 -0.051 0.199 c 0.098 0.109 0.402 0.176 0.68 0.148 c 0.473 -0.047 0.504 -0.02 0.504 0.441 c 0 0.27 -0.074 0.664 -0.16 0.883 c -0.133 0.324 -0.113 0.449 0.109 0.707 c 0.387 0.449 0.621 0.289 0.527 -0.363 m -12.477 -0.023 c 0.199 -0.152 0.574 -0.48 0.84 -0.734 c 0.445 -0.426 0.566 -0.461 1.52 -0.43 c 0.57 0.02 1.281 -0.055 1.582 -0.168 c 0.641 -0.238 5.02 -0.324 5.652 -0.109 c 0.395 0.133 0.406 0.125 0.242 -0.219 c -0.098 -0.199 -0.137 -0.531 -0.09 -0.738 l 0.086 -0.375 l -3.41 0.059 l -3.406 0.055 l -0.691 0.496 c -0.5 0.359 -0.863 0.496 -1.328 0.5 c -0.699 0 -0.848 0.078 -1.086 0.563 c -0.086 0.176 -0.359 0.398 -0.605 0.488 c -0.598 0.223 -0.688 0.344 -0.469 0.637 c 0.242 0.324 0.719 0.313 1.164 -0.023" fill="#718f43"/><path d="m 18.965 24.59 c -0.305 -0.18 -0.922 -0.457 -1.375 -0.617 c -0.449 -0.164 -1.176 -0.477 -1.613 -0.699 c -1.668 -0.848 -2.18 -1.086 -2.316 -1.086 c -0.074 0 -0.512 -0.203 -0.969 -0.449 c -0.461 -0.246 -1.129 -0.539 -1.488 -0.656 c -1.832 -0.586 -3.512 -1.293 -3.645 -1.531 c -0.059 -0.105 -0.109 -0.766 -0.109 -1.469 c -0.004 -0.879 -0.098 -1.578 -0.301 -2.219 c -0.188 -0.582 -0.281 -1.223 -0.254 -1.707 c 0.043 -0.766 0.047 -0.77 0.621 -0.852 c 0.453 -0.063 0.621 -0.176 0.77 -0.523 c 0.164 -0.387 0.27 -0.445 0.844 -0.445 c 0.477 0 0.934 -0.164 1.699 -0.617 l 1.051 -0.617 l 3.469 -0.039 c 2.512 -0.027 3.574 0.016 3.859 0.16 c 0.359 0.184 0.434 0.156 0.867 -0.313 c 0.586 -0.633 0.754 -0.637 1.031 -0.039 c 0.301 0.652 0.906 1.145 1.406 1.145 c 0.684 0 1.219 0.414 1.563 1.207 c 0.27 0.617 0.293 0.813 0.16 1.238 c -0.086 0.281 -0.156 0.801 -0.156 1.16 c 0 0.355 -0.082 0.895 -0.176 1.191 c -0.141 0.426 -0.141 0.609 0 0.859 c 0.211 0.379 0.238 2.84 0.031 2.98 c -0.082 0.055 -0.145 0.32 -0.145 0.59 c 0 1.188 -1.098 2.074 -2.746 2.23 c -0.797 0.074 -0.945 0.137 -0.984 0.41 c -0.156 1.188 -0.215 1.227 -1.094 0.707 m 0.504 -1.633 c -0.102 -0.559 -0.227 -1.445 -0.281 -1.977 l -0.102 -0.965 l -0.969 -0.285 c -0.984 -0.285 -3.07 -1.242 -4.383 -2.01 c -0.398 -0.23 -1.211 -0.707 -1.809 -1.055 c -0.754 -0.441 -1.453 -0.703 -2.313 -0.867 c -0.676 -0.129 -1.41 -0.316 -1.633 -0.418 c -0.219 -0.102 -0.441 -0.137 -0.496 -0.078 c -0.051 0.059 0.055 0.602 0.234 1.211 c 0.281 0.965 0.305 1.203 0.16 1.801 c -0.254 1.043 -0.145 1.117 3.688 2.543 c 0.715 0.27 2.246 0.938 3.398 1.488 c 2.73 1.305 4.375 1.941 4.547 1.762 c 0.086 -0.09 0.07 -0.523 -0.043 -1.152 m 0.637 -5.785 c 0.051 -0.094 0.461 -0.371 0.91 -0.609 c 0.477 -0.254 0.836 -0.559 0.867 -0.73 c 0.039 -0.234 -0.012 -0.273 -0.254 -0.188 c -0.363 0.129 -0.402 -0.168 -0.07 -0.578 c 0.18 -0.223 0.191 -0.352 0.063 -0.621 c -0.195 -0.414 -0.098 -0.832 0.289 -1.227 c 0.383 -0.383 0.512 -0.199 0.285 0.41 c -0.156 0.422 -0.145 0.59 0.07 1.129 c 0.141 0.344 0.227 0.816 0.188 1.043 c -0.074 0.434 0.141 0.551 0.426 0.23 c 0.199 -0.223 0.473 -0.047 0.473 0.305 c 0 0.184 0.047 0.215 0.156 0.094 c 0.082 -0.094 0.188 -0.816 0.23 -1.605 c 0.074 -1.305 0.055 -1.477 -0.23 -1.875 c -0.199 -0.281 -0.508 -0.473 -0.848 -0.535 c -1.043 -0.188 -1.164 -0.242 -1.57 -0.723 c -0.227 -0.266 -0.457 -0.484 -0.512 -0.484 c -0.055 0 -0.277 0.18 -0.492 0.402 c -0.215 0.223 -0.52 0.406 -0.676 0.406 c -0.238 0 -0.27 0.066 -0.18 0.441 c 0.063 0.246 0.133 0.992 0.168 1.656 c 0.074 1.551 0.152 1.938 0.398 1.938 c 0.344 0 0.379 -0.461 0.078 -1.027 c -0.254 -0.484 -0.266 -0.613 -0.105 -1.16 c 0.102 -0.336 0.277 -0.648 0.387 -0.688 c 0.164 -0.059 0.184 0.063 0.105 0.609 c -0.078 0.539 -0.035 0.793 0.211 1.234 c 0.285 0.52 0.289 0.582 0.074 0.953 c -0.129 0.219 -0.395 0.516 -0.594 0.66 c -0.199 0.145 -0.359 0.363 -0.359 0.484 c 0 0.266 0.375 0.301 0.512 0.055 m -11.355 -2.844 c 0.195 -0.152 0.574 -0.48 0.84 -0.734 c 0.445 -0.426 0.563 -0.461 1.52 -0.43 c 0.57 0.02 1.281 -0.055 1.582 -0.168 c 0.641 -0.238 5.02 -0.324 5.652 -0.109 c 0.395 0.133 0.406 0.125 0.238 -0.219 c -0.094 -0.199 -0.133 -0.531 -0.086 -0.738 l 0.086 -0.375 l -3.41 0.059 l -3.406 0.055 l -0.691 0.496 c -0.5 0.359 -0.867 0.496 -1.328 0.5 c -0.699 0 -0.848 0.078 -1.086 0.563 c -0.086 0.176 -0.359 0.398 -0.609 0.488 c -0.594 0.223 -0.684 0.344 -0.465 0.637 c 0.242 0.324 0.719 0.313 1.164 -0.023" fill="#67615b"/><path d="m 19.539 24.34 c 0 -0.086 0.063 -0.16 0.145 -0.16 c 0.078 0 0.145 0.074 0.145 0.16 c 0 0.09 -0.066 0.164 -0.145 0.164 c -0.082 0 -0.145 -0.074 -0.145 -0.164 m 0.094 -2.301 c -0.129 -0.555 -0.254 -1.332 -0.273 -1.73 c -0.035 -0.676 -0.07 -0.73 -0.543 -0.863 c -1.188 -0.34 -2.41 -0.828 -3.148 -1.262 c -0.434 -0.254 -0.891 -0.465 -1.012 -0.465 c -0.125 0 -0.82 -0.395 -1.543 -0.875 c -1.492 -0.996 -2.188 -1.293 -3.609 -1.543 c -0.547 -0.098 -1.18 -0.285 -1.402 -0.414 c -0.227 -0.129 -0.543 -0.234 -0.703 -0.234 c -0.25 0 -0.297 -0.102 -0.297 -0.645 c 0 -0.355 0.063 -0.648 0.145 -0.648 c 0.078 0 0.145 0.141 0.145 0.313 c 0 0.172 0.102 0.426 0.227 0.566 c 0.395 0.438 0.949 0.293 1.871 -0.488 c 0.84 -0.715 0.891 -0.734 1.668 -0.652 c 0.504 0.055 1.063 0 1.5 -0.148 c 0.391 -0.129 1.68 -0.281 2.891 -0.34 c 1.875 -0.09 2.254 -0.066 2.648 0.16 c 0.641 0.371 0.82 0.344 0.691 -0.098 c -0.059 -0.199 -0.117 -0.672 -0.129 -1.051 c -0.023 -0.715 0.164 -0.883 0.492 -0.441 c 0.23 0.313 0.418 0.305 0.746 -0.027 c 0.152 -0.152 0.266 -0.188 0.266 -0.082 c 0 0.102 -0.262 0.332 -0.578 0.512 c -0.648 0.367 -0.648 0.367 -0.406 0.859 c 0.094 0.195 0.18 0.992 0.191 1.773 c 0.023 1.504 0.18 1.934 0.57 1.57 c 0.281 -0.262 0.285 -0.715 0.004 -0.973 c -0.25 -0.23 -0.277 -0.766 -0.074 -1.363 c 0.207 -0.613 0.43 -0.508 0.336 0.156 c -0.059 0.391 0 0.746 0.18 1.121 c 0.219 0.453 0.234 0.621 0.094 0.965 c -0.094 0.23 -0.332 0.488 -0.531 0.574 c -0.258 0.105 -0.363 0.273 -0.363 0.559 c 0 0.504 0.047 0.508 0.621 0.023 c 0.254 -0.211 0.711 -0.48 1.016 -0.602 c 0.82 -0.32 1.133 -1.211 0.352 -0.988 c -0.32 0.086 -0.32 0.082 -0.066 -0.242 c 0.199 -0.25 0.242 -0.473 0.168 -0.898 c -0.105 -0.641 0.117 -1.242 0.461 -1.242 c 0.207 0 0.207 0.035 0.004 0.379 c -0.188 0.32 -0.195 0.473 -0.043 0.965 c 0.098 0.324 0.227 0.637 0.281 0.699 c 0.055 0.063 0.059 0.355 0.012 0.648 c -0.086 0.516 0.098 0.746 0.301 0.375 c 0.156 -0.281 0.473 -0.172 0.555 0.188 c 0.063 0.27 0.129 0.309 0.273 0.172 c 0.156 -0.141 0.199 -0.039 0.223 0.5 c 0.016 0.371 0.07 1.285 0.117 2.027 c 0.055 0.879 0.031 1.414 -0.07 1.527 c -0.086 0.094 -0.156 0.344 -0.156 0.551 c 0 1.227 -1.227 2.141 -2.867 2.141 h -0.996 m 3.863 -3.793 c 0 -0.133 -0.059 -0.242 -0.137 -0.242 c -0.18 0 -0.313 0.254 -0.195 0.383 c 0.164 0.18 0.332 0.109 0.332 -0.141 m -2.602 -0.609 c 0 -0.07 -0.098 -0.168 -0.219 -0.219 c -0.117 -0.051 -0.215 -0.23 -0.215 -0.398 c 0 -0.387 0.523 -0.414 0.883 -0.051 c 0.426 0.434 0.574 0.113 0.23 -0.496 c -0.359 -0.625 -0.484 -0.668 -0.922 -0.328 c -0.352 0.273 -0.977 1.617 -0.859 1.832 c 0.094 0.164 1.102 -0.148 1.102 -0.34 m 2.457 -0.73 c 0 -0.074 -0.094 -0.273 -0.207 -0.445 c -0.16 -0.242 -0.246 -0.27 -0.379 -0.121 c -0.242 0.266 -0.059 0.695 0.293 0.695 c 0.16 0 0.293 -0.059 0.293 -0.129 m 0.438 -4.109 c 0 -0.355 0.043 -0.453 0.129 -0.305 c 0.113 0.199 0.055 0.828 -0.074 0.828 c -0.031 0 -0.055 -0.234 -0.055 -0.523 m -3.473 -3.27 c 0.18 -0.242 0.434 -0.191 0.434 0.09 c 0 0.082 -0.137 0.152 -0.305 0.152 c -0.258 0 -0.277 -0.043 -0.129 -0.242" fill="#612828"/></svg>