<svg xmlns="http://www.w3.org/2000/svg" viewBox="0 0 32 32"><path d="m 30.605 10.934 c 6.211 15.926 -11.195 24.09 -22.03 20.04 c -7.563 -2.832 -11.332 -14.12 -5.961 -23.254 c 6.777 -11.516 23.2 -9.07 27.988 3.219" fill="#908f8c"/><path d="m 9.992 22.797 c -0.129 -0.078 -0.152 -0.672 -0.168 -4.254 c -0.012 -2.289 0.004 -4.285 0.031 -4.438 l 0.055 -0.273 l 1.133 0.027 l 1.129 0.027 l 0.02 3.355 c 0.016 1.992 0.063 3.461 0.125 3.617 c 0.098 0.246 0.148 0.266 0.703 0.266 c 0.355 0 0.641 0.047 0.699 0.121 c 0.063 0.074 0.082 0.418 0.051 0.84 c -0.047 0.648 -0.074 0.719 -0.293 0.773 c -0.129 0.031 -0.375 0.012 -0.543 -0.047 c -0.168 -0.059 -0.523 -0.086 -0.789 -0.063 c -1.328 0.113 -2.01 0.129 -2.152 0.047 m 15.15 0.004 l -2.129 -0.051 v -8.863 l 2 -0.027 l 2 -0.023 l 0.059 0.227 c 0.031 0.125 0.043 0.492 0.027 0.813 l -0.031 0.59 l -0.711 0.047 c -0.391 0.027 -0.766 0.086 -0.836 0.129 c -0.176 0.109 -0.172 1.484 0.004 1.625 c 0.074 0.059 0.426 0.121 0.785 0.137 l 0.656 0.031 v 1.477 l -0.66 0.047 c -0.359 0.027 -0.715 0.086 -0.785 0.129 c -0.141 0.09 -0.18 1.707 -0.047 1.91 c 0.051 0.074 0.406 0.125 0.961 0.137 l 0.887 0.02 v 0.871 c 0 0.48 -0.012 0.863 -0.027 0.852 c -0.012 -0.012 -0.984 -0.047 -2.152 -0.074 m -20.15 -0.172 c -0.066 -0.25 -0.074 -8.41 -0.008 -8.617 c 0.047 -0.156 0.227 -0.172 1.813 -0.172 c 0.969 0 1.879 0.043 2.027 0.098 c 0.254 0.094 0.262 0.121 0.234 0.813 l -0.031 0.711 l -0.707 0.031 c -0.387 0.016 -0.762 0.078 -0.836 0.137 c -0.172 0.137 -0.172 1.363 -0.004 1.582 c 0.09 0.117 0.316 0.172 0.785 0.191 l 0.66 0.031 v 1.477 l -0.688 0.047 c -0.457 0.035 -0.719 0.098 -0.785 0.199 c -0.141 0.219 -0.121 1.605 0.027 1.797 c 0.098 0.125 0.324 0.172 0.938 0.191 l 0.813 0.027 v 1.578 l -2.094 0.023 c -1.934 0.027 -2.102 0.016 -2.145 -0.145 m 9.301 0.047 c -0.027 -0.066 -0.039 -2.074 -0.023 -4.457 l 0.027 -4.332 h 2.332 v 8.859 l -1.145 0.031 c -0.855 0.02 -1.152 -0.004 -1.191 -0.102 m 4.379 0.059 c -0.039 -0.039 -0.07 -1.602 -0.07 -3.473 c 0 -1.973 -0.043 -3.469 -0.098 -3.555 c -0.063 -0.094 -0.32 -0.164 -0.734 -0.195 l -0.637 -0.051 v -1.574 l 1.672 0.016 c 0.922 0.008 1.766 0.016 1.875 0.02 c 0.113 0 0.566 -0.004 1.016 -0.016 l 0.809 -0.02 v 1.574 l -0.625 0.031 c -0.352 0.016 -0.672 0.082 -0.734 0.156 c -0.07 0.082 -0.117 1.316 -0.133 3.613 l -0.027 3.484 l -1.121 0.031 c -0.613 0.012 -1.152 -0.004 -1.191 -0.043 m -13.191 -9.699 c -0.027 -0.074 -0.059 -0.617 -0.074 -1.215 c -0.027 -1.016 -0.043 -1.09 -0.254 -1.18 c -0.211 -0.09 -0.328 -0.438 -0.152 -0.449 c 0.039 -0.004 0.395 -0.012 0.785 -0.02 c 0.629 -0.012 0.711 0.008 0.738 0.18 c 0.016 0.121 -0.055 0.227 -0.203 0.289 c -0.219 0.09 -0.234 0.164 -0.281 1.277 c -0.051 1.137 -0.063 1.184 -0.281 1.215 c -0.125 0.016 -0.25 -0.027 -0.277 -0.098 m 1.598 0.051 c -0.094 -0.039 -0.129 -0.426 -0.129 -1.469 c 0 -1.066 0.031 -1.426 0.129 -1.434 c 0.066 -0.008 0.375 -0.004 0.684 0.008 c 0.418 0.012 0.598 0.066 0.734 0.219 c 0.219 0.25 0.227 0.75 0.016 0.977 c -0.148 0.16 -0.148 0.195 0 0.402 c 0.098 0.133 0.16 0.426 0.16 0.734 c 0 0.426 -0.035 0.523 -0.203 0.578 c -0.324 0.098 -0.406 -0.027 -0.406 -0.648 c 0 -0.449 -0.035 -0.605 -0.16 -0.648 c -0.234 -0.09 -0.324 0.121 -0.266 0.613 c 0.066 0.582 -0.141 0.832 -0.559 0.668 m 0.934 -2.152 c 0 -0.199 -0.055 -0.301 -0.176 -0.324 c -0.141 -0.027 -0.176 0.035 -0.176 0.324 c 0 0.289 0.035 0.352 0.176 0.328 c 0.121 -0.023 0.176 -0.125 0.176 -0.328 m 1.496 2.094 c -0.309 -0.145 -0.344 -0.32 -0.309 -1.699 l 0.031 -1.18 h 0.508 l 0.023 1.082 c 0.027 1.266 0.078 1.527 0.281 1.527 c 0.082 0 0.156 -0.012 0.164 -0.027 c 0.008 -0.012 0.043 -0.598 0.074 -1.305 l 0.063 -1.277 h 0.508 l 0.027 1.301 c 0.027 1.195 0.012 1.316 -0.176 1.5 c -0.23 0.223 -0.809 0.262 -1.195 0.078 m 2.027 0.059 c -0.18 -0.074 -0.18 -2.852 0 -2.91 c 0.07 -0.02 0.332 -0.035 0.582 -0.035 c 0.391 0.004 0.461 0.039 0.488 0.219 c 0.023 0.16 -0.027 0.223 -0.203 0.246 c -0.18 0.027 -0.242 0.105 -0.266 0.355 c -0.027 0.266 0.012 0.336 0.227 0.414 c 0.336 0.125 0.336 0.355 0.004 0.438 c -0.23 0.055 -0.258 0.109 -0.23 0.43 c 0.027 0.297 0.078 0.371 0.266 0.398 c 0.281 0.039 0.41 0.297 0.211 0.418 c -0.148 0.094 -0.863 0.109 -1.078 0.027 m 2.555 -0.18 c -0.234 -0.223 -0.25 -0.309 -0.25 -1.281 c 0 -0.977 0.016 -1.059 0.25 -1.285 c 0.566 -0.551 1.574 -0.168 1.574 0.594 c 0 0.633 -0.613 0.582 -0.707 -0.059 c -0.035 -0.211 -0.109 -0.336 -0.203 -0.336 c -0.125 0 -0.16 0.203 -0.184 1.117 c -0.023 1.023 -0.012 1.113 0.152 1.082 c 0.109 -0.02 0.199 -0.152 0.23 -0.328 c 0.047 -0.246 0.105 -0.301 0.383 -0.324 c 0.309 -0.031 0.328 -0.012 0.328 0.273 c 0 0.453 -0.391 0.789 -0.91 0.789 c -0.305 0 -0.48 -0.063 -0.664 -0.242 m 2.285 0.047 c -0.18 -0.176 -0.203 -0.328 -0.203 -1.324 c 0 -1.035 0.02 -1.148 0.223 -1.332 c 0.32 -0.289 0.93 -0.27 1.25 0.043 c 0.234 0.227 0.25 0.309 0.25 1.285 c 0 0.973 -0.016 1.059 -0.25 1.281 c -0.32 0.313 -0.973 0.336 -1.27 0.047 m 0.855 -0.715 c 0.09 -0.727 -0.055 -1.699 -0.25 -1.699 c -0.121 0 -0.156 0.191 -0.18 0.98 c -0.031 1.066 0 1.234 0.223 1.234 c 0.102 0 0.168 -0.156 0.211 -0.516 m 1.234 0.844 c -0.039 -0.035 -0.066 -0.695 -0.066 -1.465 c 0 -1.508 0.004 -1.52 0.563 -1.52 c 0.273 0 0.449 0.254 0.449 0.656 c 0.004 0.152 0.047 0.344 0.102 0.426 c 0.09 0.133 0.113 0.133 0.203 0 c 0.055 -0.082 0.098 -0.305 0.098 -0.496 c 0.004 -0.402 0.152 -0.586 0.473 -0.586 c 0.539 0 0.543 0.016 0.543 1.539 c 0 1.176 -0.023 1.43 -0.152 1.477 c -0.32 0.121 -0.453 -0.152 -0.453 -0.918 c 0 -0.918 -0.148 -0.859 -0.313 0.121 c -0.184 1.105 -0.414 1.129 -0.594 0.055 c -0.148 -0.918 -0.313 -0.992 -0.313 -0.148 c 0 0.668 -0.098 0.926 -0.355 0.926 c -0.066 0 -0.148 -0.027 -0.184 -0.063 m 2.945 0.008 c -0.039 -0.043 -0.074 -0.707 -0.074 -1.477 c 0 -1.141 0.027 -1.41 0.148 -1.457 c 0.25 -0.09 1.207 0.051 1.398 0.211 c 0.199 0.172 0.23 0.59 0.063 0.945 c -0.09 0.191 -0.082 0.285 0.051 0.469 c 0.199 0.273 0.215 0.867 0.031 1.113 c -0.102 0.129 -0.316 0.188 -0.836 0.223 c -0.387 0.027 -0.738 0.016 -0.781 -0.027 m 0.988 -0.879 c 0 -0.293 -0.043 -0.398 -0.176 -0.426 c -0.148 -0.027 -0.176 0.043 -0.176 0.426 c 0 0.383 0.027 0.453 0.176 0.422 c 0.133 -0.023 0.176 -0.129 0.176 -0.422 m 0.031 -1.27 c -0.02 -0.195 -0.094 -0.316 -0.207 -0.336 c -0.141 -0.027 -0.176 0.035 -0.176 0.301 c 0 0.387 0.059 0.477 0.266 0.398 c 0.098 -0.035 0.137 -0.164 0.117 -0.363 m 1.09 2.113 c -0.082 -0.129 0.262 -2.688 0.379 -2.84 c 0.055 -0.066 0.27 -0.121 0.477 -0.121 c 0.211 0 0.426 0.055 0.48 0.121 c 0.145 0.176 0.531 2.766 0.43 2.871 c -0.152 0.156 -0.59 -0.027 -0.625 -0.262 c -0.039 -0.285 -0.418 -0.305 -0.473 -0.023 c -0.059 0.309 -0.523 0.484 -0.668 0.254 m 1.043 -1.234 c 0.043 -0.352 -0.066 -0.766 -0.18 -0.695 c -0.121 0.07 -0.242 0.805 -0.156 0.938 c 0.113 0.184 0.301 0.051 0.336 -0.242 m 1.586 1.211 c -0.023 -0.074 -0.059 -0.621 -0.074 -1.215 c -0.023 -1.023 -0.039 -1.09 -0.258 -1.18 c -0.148 -0.066 -0.223 -0.168 -0.203 -0.297 c 0.027 -0.176 0.113 -0.199 0.867 -0.211 l 0.836 -0.016 v 0.277 c 0 0.219 -0.039 0.266 -0.188 0.227 c -0.324 -0.082 -0.414 0.188 -0.445 1.352 c -0.027 1.086 -0.035 1.129 -0.258 1.16 c -0.125 0.016 -0.25 -0.027 -0.277 -0.098" fill="#51514c"/></svg>