<svg xmlns="http://www.w3.org/2000/svg" xmlns:xlink="http://www.w3.org/1999/xlink" viewBox="0 0 32 32"><defs><g id="3" clip-path="url(#2)"><path d="m 48.18 24.617 c -2.077 -7.753 -12.309 -11.763 -22.8 -8.952 c -10.504 2.814 -17.347 11.4 -15.269 19.15 c 2.077 7.753 12.3 11.779 22.804 8.965 c 10.491 -2.811 17.343 -11.412 15.266 -19.17" transform="matrix(0.29008 0.07658 -0.07773 0.28581 10.222 5.673)" fill="#fff" stroke="#fff" stroke-width="1.08"/></g><g id="6" clip-path="url(#5)"><path d="m 39.1 37.36 c -1.231 0.33 -2.503 -0.395 -2.834 -1.632 c -0.331 -1.237 0.407 -2.501 1.638 -2.831 c 1.231 -0.33 2.503 0.395 2.834 1.632 c 0.331 1.237 -0.407 2.501 -1.638 2.831 m -1.975 -7.371 c -1.231 0.33 -2.506 -0.408 -2.838 -1.645 c -0.328 -1.224 0.407 -2.501 1.638 -2.831 c 1.231 -0.33 2.506 0.408 2.834 1.632 c 0.331 1.237 -0.404 2.514 -1.635 2.844 m -5.4 9.347 c -1.244 0.333 -2.503 -0.395 -2.834 -1.632 c -0.331 -1.237 0.395 -2.498 1.638 -2.831 c 1.231 -0.33 2.49 0.399 2.822 1.636 c 0.344 1.234 -0.395 2.498 -1.626 2.827 m -1.975 -7.371 c -1.244 0.333 -2.506 -0.408 -2.838 -1.645 c -0.328 -1.224 0.395 -2.498 1.638 -2.831 c 1.231 -0.33 2.506 0.408 2.838 1.645 c 0.328 1.224 -0.407 2.501 -1.638 2.831 m -5.413 9.35 c -1.231 0.33 -2.49 -0.399 -2.834 -1.632 c -0.331 -1.237 0.407 -2.501 1.638 -2.831 c 1.244 -0.333 2.503 0.395 2.834 1.632 c 0.331 1.237 -0.395 2.498 -1.638 2.831 m -1.975 -7.371 c -1.231 0.33 -2.494 -0.412 -2.834 -1.632 c -0.331 -1.237 0.404 -2.514 1.635 -2.844 c 1.244 -0.333 2.506 0.408 2.838 1.645 c 0.328 1.224 -0.395 2.498 -1.638 2.831 m 14.423 -14.17 c 0.331 1.237 -0.407 2.501 -1.638 2.831 c -1.231 0.33 -2.503 -0.395 -2.834 -1.632 c -0.331 -1.237 0.407 -2.501 1.638 -2.831 c 1.231 -0.33 2.503 0.395 2.834 1.632 m -7.375 1.976 c 0.331 1.237 -0.407 2.501 -1.638 2.831 c -1.244 0.333 -2.503 -0.395 -2.834 -1.632 c -0.331 -1.237 0.395 -2.498 1.638 -2.831 c 1.231 -0.33 2.503 0.395 2.834 1.632 m -7.388 1.98 c 0.331 1.237 -0.395 2.498 -1.638 2.831 c -1.231 0.33 -2.503 -0.395 -2.834 -1.632 c -0.331 -1.237 0.407 -2.501 1.638 -2.831 c 1.244 -0.333 2.503 0.395 2.834 1.632" transform="matrix(0.29008 0.07658 -0.07773 0.28581 10.222 5.673)" fill="#fff" stroke="#fff" stroke-width="0.655"/></g><g id="9" clip-path="url(#8)"><use xlink:href="#3" mask="url(#4)"/><use xlink:href="#6" mask="url(#7)"/><path d="m 22.02 23.714 c 0.331 1.237 -0.391 2.51 -1.635 2.844 c -1.231 0.33 -2.506 -0.408 -2.838 -1.645 c -0.328 -1.224 0.407 -2.501 1.638 -2.831 c 1.244 -0.333 2.506 0.408 2.834 1.632" transform="matrix(0.29008 0.07658 -0.07773 0.28581 10.222 5.673)" fill="#fff" stroke="#fff"/><path d="m 29.404 21.735 c 0.331 1.237 -0.404 2.514 -1.635 2.844 c -1.231 0.33 -2.506 -0.408 -2.838 -1.645 c -0.328 -1.224 0.407 -2.501 1.638 -2.831 c 1.231 -0.33 2.506 0.408 2.834 1.632" transform="matrix(0.29008 0.07658 -0.07773 0.28581 10.222 5.673)" fill="#fff" stroke="#fff"/><path d="m 36.779 19.758 c 0.331 1.237 -0.391 2.51 -1.635 2.844 c -1.231 0.33 -2.506 -0.408 -2.838 -1.645 c -0.328 -1.224 0.407 -2.501 1.638 -2.831 c 1.231 -0.33 2.506 0.408 2.834 1.632" transform="matrix(0.29008 0.07658 -0.07773 0.28581 10.222 5.673)" fill="#fff" stroke="#fff"/><path d="m 22.369 33.925 c -1.244 0.333 -2.503 -0.395 -2.834 -1.632 c -0.331 -1.237 0.395 -2.498 1.638 -2.831 c 1.231 -0.33 2.49 0.399 2.822 1.636 c 0.331 1.237 -0.395 2.498 -1.626 2.827" transform="matrix(0.29008 0.07658 -0.07773 0.28581 10.222 5.673)" fill="#fff" stroke="#fff"/><path d="m 24.347 41.31 c -1.244 0.333 -2.503 -0.395 -2.834 -1.632 c -0.331 -1.237 0.395 -2.498 1.635 -2.844 c 1.231 -0.33 2.494 0.412 2.825 1.648 c 0.331 1.237 -0.395 2.498 -1.626 2.827" transform="matrix(0.29008 0.07658 -0.07773 0.28581 10.222 5.673)" fill="#fff" stroke="#fff"/><path d="m 29.744 31.949 c -1.231 0.33 -2.503 -0.395 -2.834 -1.632 c -0.331 -1.237 0.407 -2.501 1.638 -2.831 c 1.231 -0.33 2.503 0.395 2.834 1.632 c 0.331 1.237 -0.407 2.501 -1.638 2.831" transform="matrix(0.29008 0.07658 -0.07773 0.28581 10.222 5.673)" fill="#fff" stroke="#fff"/><path d="m 31.722 39.33 c -1.231 0.33 -2.506 -0.408 -2.834 -1.632 c -0.331 -1.237 0.404 -2.514 1.635 -2.844 c 1.231 -0.33 2.506 0.408 2.838 1.645 c 0.328 1.224 -0.407 2.501 -1.638 2.831" transform="matrix(0.29008 0.07658 -0.07773 0.28581 10.222 5.673)" fill="#fff" stroke="#fff"/><path d="m 37.12 29.973 c -1.231 0.33 -2.503 -0.395 -2.834 -1.632 c -0.331 -1.237 0.407 -2.501 1.638 -2.831 c 1.231 -0.33 2.503 0.395 2.834 1.632 c 0.331 1.237 -0.407 2.501 -1.638 2.831" transform="matrix(0.29008 0.07658 -0.07773 0.28581 10.222 5.673)" fill="#fff" stroke="#fff"/><path d="m 39.1 37.36 c -1.231 0.33 -2.503 -0.395 -2.834 -1.632 c -0.331 -1.237 0.407 -2.501 1.638 -2.831 c 1.231 -0.33 2.503 0.395 2.834 1.632 c 0.331 1.237 -0.407 2.501 -1.638 2.831" transform="matrix(0.29008 0.07658 -0.07773 0.28581 10.222 5.673)" fill="#fff" stroke="#fff"/><path d="m 48.11 24.349 c -2.077 -7.753 -12.312 -11.776 -22.804 -8.965 c -10.504 2.814 -17.343 11.412 -15.266 19.17 c 2.077 7.753 12.296 11.767 22.8 8.952 c 10.491 -2.811 17.347 -11.4 15.269 -19.15 m 17.527 -4.696 c 0.195 0.727 -0.054 1.408 -0.054 1.408 c 0 0 -3.203 10.261 -13.968 7.979 c -0.156 1.176 -0.448 2.348 -0.88 3.502 l -0.031 0.036 c -0.15 0.396 -0.312 0.794 -0.503 1.187 c 2.656 0.313 5.191 1.684 5.786 3.903 c 1.216 4.54 -9.704 28.06 -14.09 22.867 c -2.757 -3.252 4.655 -13.234 3.955 -15.848 c -0.338 -1.262 -1.227 -2.118 -1.871 -3.162 c -2.837 2.277 -6.341 4.077 -10.299 5.138 c -4.686 1.256 -9.35 1.289 -13.463 0.314 c -1.719 3.085 -4.235 6.861 -6.55 7.468 c -4.02 1.077 -5.576 -0.556 -6.092 -2.482 c -0.516 -1.926 0.039 -6.188 3.519 -7.121 c 0.704 -0.189 1.593 -0.386 2.549 -0.587 c -2.71 -1.72 -4.829 -4.05 -6.06 -6.849 c -1.627 -0.343 -2.86 -0.874 -3.39 -1.292 c 0.249 -0.627 1.052 -1.703 2.289 -2.814 c -0.334 -3.054 0.34 -6.118 1.823 -8.976 c -0.925 0.316 -1.794 0.59 -2.498 0.779 c -3.493 0.936 -6.095 -2.494 -6.608 -4.407 c -0.516 -1.926 0.011 -4.13 4.03 -5.208 c 2.312 -0.619 6.376 1.38 9.41 3.205 c 3.074 -2.901 7.117 -5.201 11.816 -6.46 c 3.958 -1.06 7.879 -1.25 11.488 -0.7 c 0.032 -1.239 0.374 -2.424 0.032 -3.699 c -0.7 -2.614 -12.11 -7.552 -11.349 -11.747 c 1.197 -6.69 22.428 8.218 23.645 12.758 c 0.595 2.219 -0.925 4.69 -3.059 6.273 c 1.378 0.97 2.589 2.122 3.581 3.414 c 8.182 -7.359 16.1 -0.089 16.1 -0.089 c 0 0 0.559 0.479 0.754 1.206" transform="matrix(0.29008 0.07658 -0.07773 0.28581 10.222 5.673)" fill="#fff" stroke="#fff"/></g><clipPath id="8"><path d="M 0,0 H32 V32 H0 z"/></clipPath><clipPath id="5"><path d="M 0,0 H32 V32 H0 z"/></clipPath><clipPath id="2"><path d="M 0,0 H32 V32 H0 z"/></clipPath><filter id="0" filterUnits="objectBoundingBox" x="0" y="0" width="32" height="32"><feColorMatrix type="matrix" in="SourceGraphic" values="0 0 0 0 1 0 0 0 0 1 0 0 0 0 1 0 0 0 1 0"/></filter><mask id="1"><g filter="url(#0)"><path fill-opacity="0.6" d="M 0,0 H32 V32 H0 z"/></g></mask><mask id="7"><g filter="url(#0)"><use xlink:href="#6"/></g></mask><mask id="4"><g filter="url(#0)"><use xlink:href="#3"/></g></mask></defs><path d="m 2.504 9.125 c 2.605 -3.492 7.906 -6.887 12.641 -8.094 c 3.754 -0.957 6.547 -0.891 9.391 0.227 c 3.98 1.563 6.199 4.699 6.996 9.898 c 0.805 6.01 0.484 13.77 -3.477 17.301 c -1.578 1.398 -2.961 2.152 -4.84 2.645 c -3.84 1 -8.324 0.379 -12.758 -1.785 c -2.512 -1.227 -4.32 -2.531 -6.223 -4.5 c -3.246 -3.359 -4.598 -7.109 -3.945 -10.938 c 0.207 -1.203 1.266 -3.48 2.215 -4.754" fill="#fd8b01"/><use xlink:href="#9" mask="url(#1)"/></svg>