<svg xmlns="http://www.w3.org/2000/svg" viewBox="0 0 32 32"><path d="m 21.21 30.742 c -15.93 6.211 -24.1 -11.195 -20.04 -22.03 c 2.832 -7.562 14.13 -11.332 23.254 -5.961 c 11.52 6.777 9.07 23.2 -3.215 27.988" fill="#92a2b2"/><path d="m 263.55 40.845 c -0.541 -0.875 0.223 -13.469 3.596 -60.844 c 1.05 -14.969 1.018 -16.406 -0.573 -18.16 c -2.514 -2.813 -1.209 -6.06 2.45 -6.06 c 3.659 0 4.964 3.25 2.45 6.03 c -1.877 2.063 -2 -1.906 2.068 56.813 c 0.796 11.75 1.209 21.75 0.923 22.25 c -0.732 1.188 -10.151 1.156 -10.914 -0.031 m -51.581 -12.375 c -11.392 -9.406 -20.715 -22.25 -25.934 -35.781 c -4.01 -10.469 -6.46 -25 -5.569 -33.31 l 0.7 -6.406 l 4.805 -0.344 l 4.837 -0.344 l 0.7 7.906 c 2 23 12.856 44.09 29.402 57.09 c 3.373 2.625 6.11 5.063 6.11 5.406 c 0 1.125 -7.03 11.09 -7.828 11.09 c -0.445 0 -3.691 -2.406 -7.223 -5.313 m 102.53 -0.156 c -1.909 -3 -3.468 -5.625 -3.468 -5.844 c 0 -0.219 2.737 -2.563 6.11 -5.188 c 16.515 -13 27.398 -34.09 29.402 -57.09 l 0.7 -7.906 l 4.805 0.344 l 4.837 0.344 l 0.7 6.406 c 0.891 8.313 -1.559 22.844 -5.569 33.31 c -3.278 8.5 -8.814 17.656 -15.369 25.531 c -4.105 4.938 -16.292 15.563 -17.82 15.563 c -0.445 0 -2.387 -2.469 -4.328 -5.469 m -86.68 -24.781 c -10.533 -9.906 -17.15 -23.313 -18.488 -37.37 c -0.318 -3.375 -0.255 -7.781 0.095 -9.75 c 0.573 -3 1.114 -3.625 3.15 -3.625 c 2.164 0 2.45 0.438 2.45 3.844 c 0 5.75 3.468 18.13 7.06 25.281 c 1.973 3.906 5.855 9 10.06 13.219 c 3.787 3.781 6.873 7.375 6.873 8.03 c 0 1.813 -2.959 5.625 -4.359 5.625 c -0.7 0 -3.787 -2.375 -6.841 -5.25 m 72.806 2.781 c -0.859 -1.344 -1.591 -2.875 -1.591 -3.406 c 0 -0.5 3.087 -4 6.841 -7.781 c 4.232 -4.219 8.114 -9.313 10.09 -13.219 c 3.596 -7.156 7.06 -19.531 7.06 -25.281 c 0 -3.406 0.286 -3.844 2.45 -3.844 c 2.037 0 2.577 0.625 3.15 3.625 c 1.909 10.156 -2.164 25.563 -9.737 36.875 c -4.55 6.813 -13.333 15.5 -15.624 15.5 c -0.573 0 -1.75 -1.125 -2.641 -2.469 m -56.895 -20.5 c -1.877 -1.625 -4.9 -5.781 -6.746 -9.25 c -2.8 -5.281 -3.405 -7.594 -3.755 -14.406 c -0.286 -5.344 -0.064 -8.344 0.668 -8.813 c 0.764 -0.438 1.114 0.438 1.114 2.656 c 0 5.094 2.832 14.844 5.41 18.781 c 1.273 1.906 4.01 5.156 6.11 7.156 c 2.45 2.375 3.564 4.25 3.15 5.25 c -0.859 2.281 -2.132 1.969 -5.95 -1.375 m 44.867 1.281 c -0.445 -1.125 0.541 -2.813 3.02 -5.25 c 2.037 -1.969 4.741 -5.156 6.01 -7.06 c 2.577 -3.938 5.378 -13.688 5.378 -18.781 c 0 -2.219 0.382 -3.094 1.146 -2.656 c 0.732 0.469 0.955 3.469 0.668 8.813 c -0.35 6.813 -0.955 9.125 -3.755 14.406 c -3.087 5.75 -8.878 12.219 -10.978 12.219 c -0.477 0 -1.146 -0.75 -1.496 -1.688" transform="matrix(0.12276 0 0 0.125 -17.227 18.847)" fill="#364754" stroke="#364754" stroke-width="4"/></svg>