<svg xmlns="http://www.w3.org/2000/svg" xmlns:xlink="http://www.w3.org/1999/xlink" viewBox="0 0 32 32"><defs><g id="3" clip-path="url(#2)"><path d="m 89.999 104.01 c -31 -6.02 -61.01 -24.01 -86.01 -51.998 c -0.994 -2.01 0.994 0 6 3.98 c 62.997 56.997 129.01 56.997 185.01 0 c 7.99 -8.979 14.985 -8.979 14.985 0 c 0 4.999 -0.994 6.02 -9.978 13.02 c -36.01 27.989 -76.03 40.98 -110.01 34.994" transform="matrix(0.10609 0 0 -0.12268 4.729 21.908)" fill="#950d00" stroke="#950d00"/><path d="m 85.986 92 c -19.993 -4.01 -46.981 -17 -65.979 -32.988 c -13.991 -12 -13.991 -12 2.982 0 c 14.03 8.979 41.02 22.99 45.03 22.99 c 0.994 0 -1.031 -2.993 -3.02 -7.01 c -12.997 -27 8.984 -58.02 38.991 -56.01 c 27.03 2.01 43.999 32 31.996 56.01 c -0.994 4.01 -2.982 7.01 -1.988 7.01 c 5.01 0 25 -14.998 32.99 -24.996 c 12 -13.02 9.02 -19.997 -12.997 -34.994 c -37 -24.01 -87.997 -20.03 -132.99 7.992 c -7.99 4.999 -6.996 3.98 0.994 -2.01 c 35.01 -24.996 75.994 -31.01 115.02 -19.01 c 14.985 4.999 32.99 14.998 35.972 19.997 c 3.02 3.02 4.01 3.02 8.03 -0.987 c 3.976 -4.01 7.99 -4.01 12 0 c 12.997 12.991 -28.02 51.998 -66.02 62.983 c -6.996 2.01 -32.99 2.01 -41.02 1.019 m 21.02 -21.02 c 12.997 -6.973 8.984 -27 -6 -27 c -16.02 0 -21.02 21.02 -6.996 27 c 6 3.02 7.99 2.01 12.997 0 m -30.01 -10.985 c 4.01 0 5.01 0 5.01 -2.01 c 0 -2.01 0 -4.01 0.994 -4.999 c 0.994 -2.993 0.994 -2.993 -6 -5.986 c -8.984 -4.01 -10.01 -3.02 -11.01 8.979 v 6.02 l 3.02 -1.019 c 1.988 0 6 0 7.99 -0.987" transform="matrix(0.10609 0 0 -0.12268 4.729 21.908)" fill="#950d00" stroke="#950d00"/></g><clipPath id="2"><path d="M 0,0 H32 V32 H0 z"/></clipPath><filter id="0" filterUnits="objectBoundingBox" x="0" y="0" width="32" height="32"><feColorMatrix type="matrix" in="SourceGraphic" values="0 0 0 0 1 0 0 0 0 1 0 0 0 0 1 0 0 0 1 0"/></filter><mask id="1"><g filter="url(#0)"><path fill-opacity="0.902" d="M 0,0 H32 V32 H0 z"/></g></mask></defs><path d="m 0.406 19.664 c 6.246 29.988 49.23 -2.207 23.41 -17.449 c -10.03 -6.535 -26.625 2.023 -23.41 17.449" fill="#ff8c00"/><use xlink:href="#3" mask="url(#1)"/></svg>