<svg xmlns="http://www.w3.org/2000/svg" viewBox="0 0 32 32"><path d="m 29.668 7.77 c -24.18 -28.16 -47.43 29.75 -10.04 23.797 c 8.199 -1.305 16.547 -16.207 10.04 -23.797" fill="#5b4d4c"/><path d="m 6.195 13.574 l 5.449 12.965 l 0.582 -0.289 l -0.297 -0.699 l 1.164 -0.578 l 0.297 0.699 l 0.582 -0.289 l 8.148 -4.04 l 0.582 -0.289 l -0.293 -0.703 l 1.164 -0.578 l 0.293 0.703 l 0.582 -0.289 l -5.449 -12.965 l -0.582 0.289 l 0.297 0.699 l -1.164 0.578 l -0.297 -0.699 l -8.73 4.332 l -0.582 0.289 l 0.293 0.703 l -1.164 0.578 l -0.293 -0.703 m 2.039 -0.164 l 8.152 -4.047 l 2.281 5.434 l -8.148 4.04 m -3.59 -3.512 l 1.164 -0.578 l 0.441 1.051 l -1.164 0.578 m 10.04 -6.254 l 1.164 -0.578 l 0.441 1.055 l -1.164 0.574 m -10.04 6.254 l 1.164 -0.578 l 0.445 1.051 l -1.168 0.578 m 10.04 -6.254 l 1.164 -0.574 l 0.441 1.051 l -1.164 0.578 m -10.04 6.25 l 1.164 -0.578 l 0.074 0.176 l 0.293 0.699 l 0.074 0.176 l -1.164 0.578 m 10.04 -6.25 l 1.164 -0.578 l 0.441 1.051 l -1.164 0.578 m -8.805 4.156 l 8.148 -4.04 l 2.285 5.43 l -8.152 4.047 m -3.512 -3.34 l 1.164 -0.578 l 0.441 1.051 l -1.164 0.578 m 10.04 -6.25 l 1.164 -0.578 l 0.441 1.051 l -1.164 0.578 m -10.04 6.25 l 1.164 -0.578 l 0.441 1.051 l -1.164 0.578 m 10.04 -6.25 l 1.168 -0.578 l 0.441 1.051 l -1.164 0.578" fill="#fff"/></svg>