<svg xmlns="http://www.w3.org/2000/svg" viewBox="0 0 32 32"><path d="m 31.723 16.281 c 2.797 13.992 -16.367 19.305 -26.773 13.242 c -8.293 -4.832 -5.922 -21.379 5.27 -27.547 c 11.195 -6.168 19.262 3.078 21.504 14.305" fill="#64d9af" fill-opacity="0.992"/><path d="m 7.531 22.715 v -1.961 l 1.91 -0.07 l 1.914 -0.07 l 0.07 -0.77 c 0.039 -0.422 0.324 -1.023 0.637 -1.332 c 0.543 -0.543 0.566 -0.695 0.566 -3.676 c 0 -3 -0.02 -3.129 -0.578 -3.688 c -0.492 -0.488 -0.582 -0.801 -0.582 -2.01 c 0 -1.238 0.063 -1.434 0.438 -1.434 c 0.297 0 0.477 0.234 0.574 0.754 c 0.125 0.648 0.234 0.742 0.773 0.676 c 0.453 -0.055 0.672 -0.25 0.766 -0.691 c 0.082 -0.375 0.324 -0.645 0.617 -0.687 c 0.371 -0.059 0.512 0.09 0.621 0.676 c 0.121 0.629 0.25 0.75 0.82 0.75 c 0.551 0 0.727 -0.145 0.93 -0.762 c 0.285 -0.863 0.762 -0.844 0.957 0.039 c 0.168 0.766 1.309 0.992 1.539 0.309 c 0.496 -1.465 1.238 -1.23 1.238 0.395 c 0 0.965 -0.113 1.273 -0.695 1.859 l -0.691 0.707 v 3.254 c 0 3.207 0.008 3.266 0.594 3.754 c 0.328 0.273 0.676 0.809 0.77 1.188 c 0.168 0.668 0.223 0.688 1.953 0.758 c 2.043 0.082 2.094 0.152 1.969 2.523 l -0.07 1.465 h -17.04" fill="#b2332f"/><path d="m 7.531 22.711 v -1.957 l 1.91 -0.07 l 1.914 -0.074 l 0.07 -0.766 c 0.039 -0.426 0.324 -1.023 0.637 -1.336 c 0.543 -0.539 0.566 -0.691 0.566 -3.672 c 0 -3 -0.02 -3.133 -0.578 -3.688 c -0.492 -0.488 -0.582 -0.801 -0.582 -2.01 c 0 -1.234 0.063 -1.43 0.438 -1.43 c 0.297 0 0.477 0.234 0.574 0.754 c 0.125 0.648 0.234 0.742 0.773 0.676 c 0.453 -0.055 0.672 -0.254 0.766 -0.691 c 0.082 -0.375 0.324 -0.645 0.617 -0.691 c 0.371 -0.055 0.512 0.094 0.621 0.676 c 0.121 0.633 0.25 0.75 0.82 0.75 c 0.551 0 0.727 -0.145 0.93 -0.758 c 0.285 -0.867 0.762 -0.848 0.957 0.039 c 0.168 0.766 1.309 0.992 1.539 0.305 c 0.496 -1.465 1.238 -1.227 1.238 0.395 c 0 0.965 -0.113 1.273 -0.695 1.863 l -0.691 0.707 v 6.465 l 0.691 0.656 c 0.418 0.391 0.695 0.898 0.695 1.262 c 0 0.598 -0.023 0.602 -2.375 0.672 l -2.375 0.07 l -0.07 1.906 l -0.066 1.902 h -8.324" fill="#6e1c1c"/><path d="m 11.09 20.246 c 0 -0.438 0.242 -0.953 0.621 -1.316 c 0.602 -0.578 0.621 -0.715 0.621 -3.828 c 0 -3.109 -0.02 -3.246 -0.621 -3.824 c -0.523 -0.508 -0.621 -0.832 -0.621 -2.086 c 0 -1.281 0.063 -1.484 0.465 -1.484 c 0.324 0 0.832 -0.012 0.938 0.527 c 0.129 0.672 -0.07 1.027 0.512 0.957 c 0.484 -0.059 0.719 -0.262 0.82 -0.719 c 0.09 -0.387 0.348 -0.668 0.66 -0.715 c 0.402 -0.059 0.742 0.031 0.859 0.637 c 0.125 0.656 0.074 0.844 0.688 0.844 c 0.59 0 0.59 -0.469 0.805 -1.105 c 0.305 -0.898 1.01 -0.562 1.219 0.359 c 0.18 0.793 1.215 0.711 1.461 0 c 0.531 -1.523 1.52 -0.957 1.52 0.727 c 0 1 -0.125 1.32 -0.746 1.93 l -0.746 0.734 v 6.707 l 0.746 0.68 c 1.336 1.219 1.102 1.348 -2.797 1.531 c -1.949 0.09 -4.188 0.164 -4.973 0.168 c -1.402 0 -1.43 -0.016 -1.43 -0.723" fill="#1c222e"/></svg>