<svg xmlns="http://www.w3.org/2000/svg" xmlns:xlink="http://www.w3.org/1999/xlink" viewBox="0 0 32 32"><defs><g id="2" clip-path="url(#1)"><path d="m 479.04 350.3 h 77.866 l -148.26 382.43 h -85.22" transform="matrix(0.03241 0 0 0.02985 4.187 0.342)" fill="#c00" fill-rule="evenodd" stroke="#c00" stroke-width="0.713"/></g><g id="5" clip-path="url(#4)"><path d="m 591.51 284.07 c 0 -162.67 -131.83 -294.58 -294.36 -294.58 c -162.54 0 -294.36 131.91 -294.36 294.58 c 0 162.67 131.83 294.46 294.36 294.46 c 162.54 0 294.36 -131.79 294.36 -294.46" transform="matrix(0.03384 0 0 0.03252 5.75 6.42)" fill="#039" stroke="#69f" stroke-width="42.866"/><path d="m 252.67 350.3 h -77.861 l 148.21 382.43 h 85.37" transform="matrix(0.03432 0 0 0.03014 3.306 0.238)" fill="#69f" fill-rule="evenodd" stroke="#69f" stroke-width="0.713"/><use xlink:href="#2" mask="url(#3)"/></g><clipPath id="4"><path d="M 0,0 H32 V32 H0 z"/></clipPath><clipPath id="1"><path d="M 0,0 H32 V32 H0 z"/></clipPath><filter id="0" filterUnits="objectBoundingBox" x="0" y="0" width="32" height="32"><feColorMatrix type="matrix" in="SourceGraphic" values="0 0 0 0 1 0 0 0 0 1 0 0 0 0 1 0 0 0 1 0"/></filter><mask id="3"><g filter="url(#0)"><use xlink:href="#2"/></g></mask></defs><path d="m 27.41 26.13 c 19.965 -28.375 -31.957 -37.41 -26.809 -7.254 c 2.73 11.992 18.809 18.625 26.809 7.254" fill="#039"/><use xlink:href="#5"/></svg>