<svg xmlns="http://www.w3.org/2000/svg" viewBox="0 0 32 32"><path d="m 30.527 23.566 c -6.297 15.12 -30.688 8.375 -30.527 -8.09 c -0.242 -14.969 19.15 -20.645 27.648 -9.984 c 4.25 4.613 5.734 12.25 2.879 18.08" fill="#b0dfe5" fill-opacity="0.996"/><g transform="matrix(0.125 0 0 0.125 -0.546 -0.874)"><g stroke-width="0.777"><g fill="#6262cc" stroke="#6262cc"><path d="m 96.46 214.61 c -1.969 -5.656 -5.688 -22.688 -5.688 -25.969 v -4.188 l 6.219 -1.594 c 5.469 -1.438 3.625 -3.969 4.781 -6.469 c 1.406 -2.906 2.469 -3.906 10.469 -4.938 c 3.594 -0.469 5.406 -0.063 6.906 4.03 c 0.406 1.094 1.313 1.781 2.594 1.781 c 1.594 0 3.03 1.531 6.563 7.06 c 5.719 8.906 7 12 7 16.906 c 0 3.03 -0.375 4.125 -1.719 4.844 c -1.563 0.844 -34.438 9.594 -36.09 9.625 c -0.375 0 -0.844 -0.5 -1.063 -1.094"/><path d="m 166.34 194.14 c -1.438 -1.281 -4.875 -5.094 -7.656 -8.469 c -4.531 -5.563 -5 -6.594 -5 -10.25 l 4.781 -5.375 l 1.969 -6.313 c 2.063 -6.625 6.5 -3.03 10.188 -4.313 c 2.438 -0.813 3.313 6.25 6.938 5.438 c 3.063 -0.719 4.25 -0.75 4.781 0.375 c 1.188 2.656 1 3.844 7.625 9.09 c 6.875 5.438 7.375 6.06 7.375 9.06 c 0 3.938 -1.375 5.219 -8.281 7.656 c -4.438 1.531 -18.875 5.5 -19.813 5.406 c -0.156 -0.031 -1.469 -1.063 -2.906 -2.344"/></g><path d="m 93.4 171.96 c 0 -0.75 -1.25 -0.906 -4.375 -0.531 c -6.563 0.781 -11.875 -1.813 -13.09 -6.375 c -2.25 -8.406 -2.781 -13.469 -1.75 -16.625 c 0.906 -2.719 0.688 -4.563 -1.625 -14 c -1.469 -6 -3.094 -14.813 -3.594 -19.625 c -0.531 -4.813 -0.063 -10.03 0.375 -11.563 c 1.844 1.531 4.438 -2.813 6.438 -3.375 c 13.531 -1.969 65.06 -4.625 91.38 -8.25 c 0.531 0.438 4.656 -0.344 6.906 2.156 c 2.969 3.375 6.281 2.656 6.281 5.719 c 0 4.563 4.688 10.06 8.25 11.125 c 9.313 2.813 13.13 1.563 13.13 3.313 c 0 2.688 -3.5 29.375 -4.25 32.34 c -0.594 2.469 -1.094 2.719 -9.06 4.688 c -7.125 1.781 -8.5 2.375 -8.719 3.938 c -0.188 1.469 -0.969 1.906 -3.75 2.094 c -3.188 0.25 -77.47 14.531 -81.03 15.563 c -0.844 0.281 -1.5 0 -1.5 -0.594" fill="#b1b1c8" stroke="#b1b1c8"/></g><path d="m 90.93 172.18 c 0 -0.5 0.406 -1.156 0.906 -1.469 c 1.063 -0.625 1.219 -4.969 0.344 -9.09 c -0.406 -1.969 -1 -2.625 -2.063 -2.344 c -3.719 0.969 -13.09 1.5 -13.09 0.75 c 0 -0.469 3.344 -1.531 7.406 -2.344 l 7.406 -1.531 v -3.313 c 0 -1.813 -0.25 -4.531 -0.563 -6.03 l -0.594 -2.719 l -7.969 -0.031 c -8.25 0 -9.03 -1.094 -1.531 -2.156 c 2.031 -0.281 4.906 -0.75 6.406 -1.031 l 2.656 -0.469 l -0.531 -6.5 c -0.281 -3.594 -1 -7.094 -1.625 -7.781 c -0.75 -0.875 -3.03 -1.25 -7.406 -1.25 c -9.688 0.5 -9.875 -6.156 -12.906 -12.531 c -3.594 -27.22 49.09 -21.531 58.41 -21.531 c 39.844 0 40.688 0.031 40.688 1.719 c 0 2 11.5 -0.906 16.406 -0.031 c 4.25 0.75 15.688 12 17.688 17.188 c 2.5 7.5 -8.938 -0.156 -7.688 2.75 l 0.281 7.094 l 0.25 7.094 h 3.281 c 3.813 0 3.469 1.281 -0.531 2.031 c -2.875 0.531 -3.125 1.063 -4.094 7.781 c -0.469 3.281 -0.438 3.281 2.969 3.344 l 3.406 0.063 l -2.938 1.031 c -3.875 1.344 -4.281 1.781 -5.531 6.094 l -1.094 3.656 l -0.063 -3.813 l -0.094 -3.844 l -4.344 0.563 c -2.375 0.313 -4.438 0.688 -4.594 0.813 c -0.156 0.156 -0.563 3.03 -0.906 6.406 l -0.594 6.125 l -41.813 7.719 c -22.969 4.281 -42.719 7.906 -43.875 8.125 c -1.125 0.219 -2.063 -0.031 -2.063 -0.531 m 13.594 -3.781 l 4.219 -1 l -0.5 -4.781 c -0.313 -2.594 -0.781 -4.969 -1.063 -5.25 c -0.281 -0.25 -2.906 -0.125 -5.844 0.313 l -5.313 0.813 l -0.313 3.406 c -0.656 7.5 0.625 8.438 8.813 6.5 m 15.06 -1.688 l 4.688 -0.938 l -0.031 -5.406 c 0 -7.25 -0.5 -7.781 -6.188 -7.06 c -2.563 0.313 -5.125 0.844 -5.719 1.188 c -1.313 0.75 -2.375 7.969 -1.594 10.906 c 0.656 2.563 1.844 2.719 8.844 1.313 m 13.906 -2.719 l 4.75 -1.031 l -0.281 -5.719 l -0.25 -5.75 l -3.719 0.25 c -7.844 0.469 -7.875 0.5 -7.875 6.625 c 0 7.344 -0.094 7.25 7.375 5.625 m 17.406 -3.531 c 0.688 -0.531 1.156 -2.938 1.156 -6 v -5.156 h -3.188 c -1.75 0 -4.25 0.406 -5.563 0.875 c -2.188 0.781 -2.375 1.219 -2.375 6.438 v 5.594 l 4.406 -0.469 c 2.438 -0.219 4.938 -0.813 5.563 -1.313 m 12.969 -1.906 c 0.75 -0.281 1.156 -2.375 1.156 -6.125 c 0 -5.688 0 -5.719 -2.625 -5.719 c -1.469 0 -3.906 0.438 -5.469 0.938 c -2.563 0.844 -2.844 1.344 -3.406 6.125 c -0.344 2.844 -0.406 5.531 -0.156 5.938 c 0.469 0.688 7.469 -0.094 10.5 -1.188 m 11.875 -4 c 1 -0.781 1.344 -2.406 1.125 -5.531 l -0.25 -4.469 l -3.656 0.219 c -2.031 0.125 -4.063 0.594 -4.563 1.063 c -0.5 0.469 -1.094 3.094 -1.344 5.813 l -0.438 4.969 l 3.875 -0.5 c 2.125 -0.25 4.5 -0.969 5.25 -1.563 m -68.47 -0.938 c 1.344 -1.031 1.563 -4.469 0.656 -9.719 c -0.438 -2.469 -0.969 -3.219 -2.094 -2.906 c -0.813 0.219 -3.875 0.625 -6.813 0.938 l -5.313 0.594 v 5.094 c 0 7.906 0.25 8.188 6.75 7.531 c 3.063 -0.281 6.125 -0.969 6.813 -1.531 m 28.344 -5 c 2.375 -0.875 2.531 -1.281 2.531 -6.156 v -5.188 l -3.469 0.406 c -9.594 1.188 -9.5 1.156 -9.469 3.656 c 0 1.313 0.281 3.875 0.594 5.75 c 0.563 3.281 0.656 3.344 3.938 2.906 c 1.813 -0.25 4.469 -0.875 5.875 -1.375 m 11.563 -0.969 c 3.75 -0.031 5.813 -2.969 5.813 -8.281 c 0 -4.75 -0.031 -4.781 -2.563 -4.406 c -1.406 0.188 -4.094 0.594 -6 0.875 l -3.5 0.531 v 6.156 c 0 6 0.094 6.156 2.094 5.656 c 1.156 -0.281 3.03 -0.531 4.188 -0.531 m 17.531 -2.938 c 0.25 -0.25 0.688 -2.813 0.969 -5.719 c 0.594 -6.281 -0.313 -7.03 -6.625 -5.344 c -4.375 1.125 -5.188 2.625 -5.188 9.406 v 3.063 l 5.219 -0.5 c 2.844 -0.281 5.375 -0.688 5.625 -0.906 m 23.844 -4.344 c 1.125 -0.781 1.844 -2.719 2.156 -5.688 l 0.469 -4.5 h -4.719 c -3.563 0 -4.938 0.375 -5.563 1.5 c -1.156 2.125 -2.125 8.563 -1.375 9.281 c 1.063 1 7.313 0.594 9.03 -0.594 m -87.78 -0.688 c 5.094 -0.844 5.969 -1.25 6.469 -3.125 c 0.813 -3.03 -0.438 -11.875 -1.781 -12.688 c -0.625 -0.344 -4 -0.656 -7.531 -0.688 h -6.375 l 0.625 8 c 0.656 7.844 1 9.469 2.156 9.469 c 0.313 0 3.219 -0.438 6.438 -0.969 m 20.875 -3.5 c 1.5 -0.75 1.719 -1.781 1.469 -7.594 l -0.281 -6.719 l -2.719 -0.281 c -1.5 -0.156 -4.5 -0.063 -6.719 0.25 l -3.969 0.563 v 7.25 c 0 3.969 0.313 7.5 0.688 7.875 c 0.844 0.813 9.188 -0.156 11.531 -1.344 m 14.75 -1.75 c 2.875 -1.375 3.219 -12.313 0.438 -14.09 c -1.594 -1.031 -9.219 0.25 -10.5 1.781 c -1.188 1.438 -1.563 8.75 -0.625 12.09 c 0.469 1.625 1.031 1.781 4.875 1.406 c 2.375 -0.25 5 -0.781 5.813 -1.188 m 15.438 -3.188 c 0.75 -0.938 1.094 -3.469 0.938 -6.75 l -0.281 -5.25 l -3.625 -0.281 c -1.969 -0.156 -4.594 -0.031 -5.781 0.25 c -2.031 0.469 -2.188 0.938 -2.188 6.906 c 0 3.5 0.344 6.688 0.719 7.03 c 1.188 1.156 8.969 -0.281 10.219 -1.906 m 12.938 -1.438 c 0.625 -0.531 1.406 -3.438 1.75 -6.438 l 0.594 -5.438 h -11.375 v 14 l 3.938 -0.563 c 2.156 -0.281 4.438 -1 5.094 -1.563 m 13.531 -1.375 c 1.344 -1.25 2.5 -10.781 1.438 -11.781 c -1.031 -0.969 -7 -1.125 -9.406 -0.25 c -1.344 0.5 -1.625 1.75 -1.625 7.313 v 6.688 l 4.344 -0.563 c 2.406 -0.313 4.781 -0.938 5.25 -1.406 m 12.375 -2.313 c 0.813 -1.031 1.156 -3.406 1 -6.438 l -0.281 -4.813 l -4.344 -0.25 l -4.313 -0.25 l -0.563 4.188 c -0.313 2.313 -0.75 5.5 -0.969 7.125 l -0.375 2.969 l 4.281 -0.469 c 2.719 -0.281 4.781 -1.063 5.563 -2.063" fill="#606067" stroke="#9999ac" stroke-width="0.8"/><g fill="#810000" stroke="#810000" stroke-width="0.777"><path d="m 167.87 137.39 v -6.563 l 4.063 -0.563 c 7.219 -0.969 6.875 -1.281 6.875 6 v 6.563 h -2.75 c -1.5 0 -3.938 0.25 -5.438 0.531 l -2.75 0.563"/><path d="m 110.18 149.77 c 0 -2.813 -0.219 -6.25 -0.5 -7.688 l -0.531 -2.563 l 6.406 -0.938 c 3.531 -0.5 7.188 -1.219 8.094 -1.594 c 1.469 -0.594 1.594 -0.438 0.938 1.438 c -0.406 1.156 -0.625 4.75 -0.531 8 l 0.188 5.906 h -4.625 c -2.531 0 -5.719 0.563 -7.03 1.25 l -2.406 1.25"/></g></g><g fill="#0000b3"><g fill-rule="evenodd"><path d="m 10.941 11.699 l -1.848 0.723 v -2.266 l 1.848 -0.391"/><path d="m 13.234 12.453 v -2.281 l -2.293 -0.406 v 1.934"/><path d="m 13.234 12.453 l -1.766 1.039 l -2.371 -1.07 l 1.844 -0.723"/><path d="m 13.234 10.172 l -1.766 0.563 l -2.371 -0.578 l 1.844 -0.391"/></g><g stroke="#b1b1c8" stroke-width="0.646" transform="matrix(0.125 0 0 0.125 -0.546 -0.874)"><path d="m 96.12 114.93 v -22.06 l -18.969 -4.625 v 18.16"/><path d="m 110.24 106.61 l -14.12 8.313 v -22.06 l 14.13 -4.5"/></g><g fill-rule="evenodd"><path d="m 20.711 11.18 l -1.711 0.664 v -2.078 l 1.711 -0.359"/><path d="m 22.832 11.871 v -2.09 l -2.121 -0.375 v 1.773"/><path d="m 22.832 11.871 l -1.633 0.953 l -2.195 -0.98 l 1.707 -0.664"/><path d="m 22.832 9.781 l -1.633 0.516 l -2.195 -0.531 l 1.707 -0.355"/></g><g stroke="#b1b1c8" stroke-width="0.594" transform="matrix(0.125 0 0 0.125 -0.546 -0.874)"><path d="m 173.96 109.58 v -20.22 l -17.563 -4.25 v 16.625"/><path d="m 187.02 101.96 l -13.06 7.625 v -20.22 l 13.06 -4.125"/></g><g fill-rule="evenodd"><path d="m 16.04 11.48 l -1.723 0.688 v -2.152 l 1.723 -0.375"/><path d="m 18.18 12.195 v -2.168 l -2.137 -0.387 v 1.84"/><path d="m 18.18 12.195 l -1.645 0.988 l -2.215 -1.016 l 1.723 -0.688"/><path d="m 18.18 10.03 l -1.645 0.535 l -2.215 -0.547 l 1.723 -0.375"/></g><g stroke="#b1b1c8" stroke-width="0.608" transform="matrix(0.125 0 0 0.125 -0.546 -0.874)"><path d="m 136.65 112.46 v -20.969 l -17.719 -4.406 v 17.25"/><path d="m 149.81 104.55 l -13.156 7.906 v -20.969 l 13.156 -4.281"/></g></g></svg>