<svg xmlns="http://www.w3.org/2000/svg" viewBox="0 0 32 32"><path d="m 21.465 30.926 c -42.637 8.199 -10.152 -56.91 8.707 -18.07 c 3.25 6.941 1.547 17.1 -8.707 18.07" fill="#616161"/><g fill="#fff" stroke="#fff"><path d="m 232.74 87.03 c -1.486 -0.405 -2.443 -1.824 -2.443 -3.547 c 0 -2.568 1.354 -3.041 11.655 -4.054 c 12.712 -1.284 114.51 -1.216 117.25 0.304 c 4.193 2.331 6.207 6.115 -3.929 7.06 c -11.953 1.081 -118.7 1.318 -122.53 0.236" transform="matrix(0.11831 0 0 0.11563 -19.214 15.16)" stroke-width="1.305"/><g stroke-width="1.085"><g transform="matrix(0.11831 0 0 0.11563 1.063 0.99)"><path d="m 83.73 195.79 l -18.985 -0.642 c 0 -2.534 0 -5.068 0 -7.601 l 9.773 -0.845 c 11.953 -1.081 107.44 -0.541 108.56 0.574 c 0.858 0.845 1.156 7.03 0.363 7.77 c -0.825 0.811 -80.53 1.419 -99.71 0.743"/><path d="m 104.37 181.6 c -2.179 -1.351 -3.104 -13.649 -3.104 -41.79 c 0 -25.878 0.925 -40.03 2.707 -41.824 c 0.726 -0.743 2.575 -0.946 4.49 -0.541 c 4.259 0.946 4.49 2.263 5.25 30.979 c 0.528 19.932 -0.627 51.42 -1.915 52.5 c -1.255 1.081 -6.075 1.52 -7.429 0.676"/><path d="m 71.61 181.91 c -2.873 -0.743 -3.599 -9.628 -3.566 -44.26 c 0 -34.12 0.495 -39.09 3.797 -40.13 c 2.873 -0.946 6.108 0.203 7.03 2.466 c 2.212 5.405 1.519 79.05 -0.759 81.01 c -0.891 0.777 -4.854 1.351 -6.505 0.912"/><path d="m 139.33 181.84 c -1.552 -0.27 -2.741 -1.486 -3.236 -3.311 c -1.057 -3.784 -1.09 -73.61 -0.033 -77.36 c 0.825 -2.939 4.656 -4.73 7.66 -3.581 c 0.891 0.338 1.915 2.128 2.278 3.953 c 1.09 5.54 0.759 75.67 -0.396 77.84 c -1.255 2.331 -2.939 3.01 -6.273 2.466"/><path d="m 172.52 181.84 c -2.807 -0.574 -3.17 -2.669 -4.094 -23.04 c -1.057 -23.547 0.132 -57.803 2.08 -60.17 c 1.75 -2.128 5.877 -2.128 7.627 0 c 2.873 3.446 3.302 73.72 0.495 80.979 c -0.726 1.926 -3.269 2.838 -6.108 2.23"/><path d="m 72.34 91.7 c -7.561 -0.676 -7.594 -0.709 -7.594 -3.953 v -3.243 l 11.953 -0.878 c 13.603 -0.98 105.33 -0.473 106.38 0.608 c 0.958 0.946 0.925 6.115 -0.033 7.095 c -36.815 -0.338 -73.928 2.736 -110.71 0.372"/></g><path d="m 235.87 -46.42 c -3.137 -0.236 -5.679 -0.845 -5.679 -1.318 c 0 -0.912 19.844 -4.831 47.18 -12.09 c 19.25 -5.135 17.301 -5.608 39.589 0.642 c 17.533 4.899 42.626 10.236 43.25 10.844 c 0.264 0.27 0.132 0.878 -0.297 1.318 c -0.858 0.845 -113.75 1.385 -124.05 0.608" transform="matrix(0.11831 0 0 0.11563 -19.214 15.16)"/></g></g></svg>