<svg xmlns="http://www.w3.org/2000/svg" viewBox="0 0 32 32"><g fill="#fff"><path d="m 11.578 16.527 v 6.234 c 0 3.742 0.641 3.742 6.414 3.742 h 1.285 c 5.773 0 6.414 0 6.414 -3.742 v -6.234 c 0 -3.742 -0.641 -3.742 -6.414 -3.742 h -1.285 c -5.773 0 -6.414 0 -6.414 3.742 m 6.414 -2.492 h 1.285 c 5.133 0 5.133 0 5.133 2.492 v 4.367 c 0 2.492 0 2.492 -5.133 2.492 h -1.285 c -5.133 0 -5.133 0 -5.133 -2.492 v -4.367 c 0 -2.492 0 -2.492 5.133 -2.492"/><path d="m 14.14 21.01 v -2.418 l 2.246 -2.27 l 2.809 2.836 l 1.121 -1.133 l 2.809 2.832 v 0.152 c 0 1.133 -0.188 1.133 -2.246 1.133 h -4.492 c -2.059 0 -2.246 0 -2.246 -1.133"/><path d="m 23.13 16.527 c 0 0.688 -0.574 1.246 -1.281 1.246 c -0.711 0 -1.285 -0.559 -1.285 -1.246 c 0 -0.688 0.574 -1.246 1.285 -1.246 c 0.707 0 1.281 0.559 1.281 1.246"/><path d="m 15.426 10.293 c -5.773 0 -6.414 0 -6.414 3.742 v 6.234 c 0 2.027 0.188 2.957 1.281 3.383 v -9.617 c 0 -2.262 0.039 -2.469 3.852 -2.488 v -0.008 h 8.668 c -0.566 -1.246 -2.098 -1.246 -6.102 -1.246"/><path d="m 12.859 7.797 c -5.773 0 -6.418 0 -6.418 3.742 v 6.234 c 0 2.031 0.191 2.961 1.285 3.387 v -9.621 c 0 -2.258 0.039 -2.469 3.852 -2.488 v -0.008 h 8.668 c -0.566 -1.246 -2.098 -1.246 -6.102 -1.246"/></g><path d="m 5.691 4.891 c -25.01 33.16 43.824 37.867 21.734 4.02 c -5.04 -7.719 -15.11 -12.805 -21.734 -4.02" fill="#2f5319"/><path d="m 20.98 26.512 c -0.348 -0.129 -1.102 -0.328 -1.668 -0.449 l -1.711 -0.355 c 2.824 -1.047 0.117 0.23 -0.543 0.379 c -1.23 0.273 -2.059 0.07 -2.199 -0.535 c -0.066 -0.297 -0.277 -0.484 -0.664 -0.598 c -0.707 -0.207 -0.711 -0.355 -0.02 -0.711 c 0.523 -0.266 0.547 -0.316 0.465 -1.133 c -0.043 -0.473 -0.137 -0.91 -0.207 -0.977 c -0.066 -0.07 1.262 -1.715 -1.488 0.258 c -0.723 0.52 -1.996 -0.945 -2.414 -1.844 c -1.34 -1.375 -0.711 -0.625 -1.445 -1.664 c -1.176 -1.691 -1.207 -1.762 -1.504 -3.563 c -0.168 -1.031 -0.379 -1.734 -0.59 -1.969 c -0.727 -1.551 0.586 -1.633 -0.777 -1.918 c -0.996 -0.199 -0.914 -0.18 -0.914 -0.41 c 0 -0.156 1.203 -0.957 1.965 -1.039 c 1.293 -0.137 -1.34 1.102 0.957 -0.883 c 1.652 -1.422 0.57 -2.437 1.73 -1.672 c 0.781 0.516 2.637 1.961 2.852 2.301 c 0.074 0.121 0.02 0.441 -0.125 0.719 c -0.141 0.273 0.254 -0.777 0.309 -0.574 c 0.156 0.586 -1 1.773 -2.082 2.246 c -0.551 0.238 -0.926 1.41 -1 1.527 c -0.242 0.359 0.066 2.254 0.504 3.066 c 0.227 0.43 0.418 0.871 0.418 0.98 c 0 0.398 1.406 1.965 1.766 1.965 c 0.246 0 0.609 -0.398 1.223 -1.34 c 0.758 -1.172 0.871 -1.461 0.871 -2.25 c 0 -0.496 -0.133 -1.18 -0.301 -1.523 c -0.25 -0.52 -0.262 -0.68 -0.074 -0.977 c 0.285 -0.449 -0.02 -1.297 -0.52 -1.453 c -0.184 -0.055 -0.332 -0.188 -0.332 -0.289 c 0 -0.125 0.355 -0.148 1.078 -0.074 c 0.594 0.059 1.547 0.109 2.117 0.109 h 1.039 l -0.363 0.457 c -0.418 0.527 -0.449 0.797 -0.145 1.277 c 0.176 0.281 0.156 0.504 -0.098 1.219 c -0.395 1.09 -0.281 1.457 0.703 2.313 c 0.422 0.367 0.926 0.973 1.117 1.34 c 0.191 0.371 0.457 0.672 0.59 0.672 c 0.313 0 1.23 -1.035 1.664 -1.871 c 0.184 -0.359 0.516 -1.359 0.734 -2.23 l 0.395 -1.574 l -0.398 -0.93 c -0.219 -0.512 -0.707 -1.246 -1.082 -1.629 c -0.66 -0.676 -2.688 -2.129 -2.32 -2.355 c 1.359 -0.387 0.938 0.809 0.027 -0.031 c 0 -0.211 1.688 -0.754 2.355 -1.094 c 0.488 -0.254 0.563 -0.246 0.973 0.055 c 0.246 0.18 0.789 0.887 1.207 1.566 c 0.73 1.191 0.766 1.305 0.871 3.02 c 0.203 3.375 -0.484 5.598 -2.535 8.195 c -1.609 2.043 -2.176 2.652 -3.133 1.988 c -1.316 -0.918 -1.285 -1.637 -1.082 0.805 l 0.059 0.676 l 1.836 -0.066 c 1.188 -0.043 1.977 -0.152 2.219 -0.309 c 0.207 -0.137 0.707 -0.711 1.109 -1.277 c 0.699 -0.98 1.246 -1.391 0.977 -0.73 c -0.066 0.164 -0.188 1.109 -0.27 2.094 c -0.172 2.047 -0.41 2.902 -0.875 3.148 c -0.395 0.211 -0.449 0.207 -1.246 -0.082 m -10.16 -17.418 c 0 -0.098 -0.078 -0.176 -0.172 -0.176 c -0.098 0 -1.309 1.09 -1.871 1.293 c -0.785 0.285 1.754 1.188 2.121 0.172 c 0.031 -0.09 -0.078 -1.195 -0.078 -1.289" fill="#007f00"/><path d="m 21.332 26.613 c -0.723 -0.254 -1.555 -0.473 -2.711 -0.711 c -0.691 -0.145 -0.691 -0.145 -0.848 -0.086 c -0.695 0.27 -1.109 0.359 -1.664 0.359 c -0.652 0 -1.01 -0.156 -1.18 -0.52 c -0.055 -0.117 -0.109 -0.242 -0.121 -0.285 c -0.012 -0.043 -0.082 -0.129 -0.16 -0.191 c -0.125 -0.109 -0.238 -0.164 -0.648 -0.309 c -0.09 -0.035 -0.203 -0.094 -0.25 -0.133 l -0.086 -0.074 l 0.082 -0.098 c 0.047 -0.055 0.242 -0.191 0.434 -0.305 c 0.418 -0.246 0.484 -0.32 0.504 -0.586 c 0.016 -0.254 -0.078 -1.059 -0.152 -1.297 c -0.055 -0.172 -0.059 -0.406 -0.059 -2.68 v -2.488 l 0.098 -0.254 c 0.098 -0.25 0.102 -0.27 0.102 -0.848 c 0 -0.711 -0.063 -1.043 -0.305 -1.629 c -0.188 -0.457 -0.195 -0.582 -0.047 -0.895 c 0.098 -0.211 0.105 -0.246 0.09 -0.504 c -0.027 -0.477 -0.23 -0.793 -0.629 -0.984 c -0.238 -0.113 -0.352 -0.234 -0.281 -0.305 c 0.055 -0.059 0.801 -0.047 1.664 0.023 c 0.406 0.031 1.066 0.055 1.586 0.055 c 0.488 0 0.887 0.008 0.887 0.016 c 0 0.008 -0.121 0.172 -0.27 0.363 c -0.453 0.582 -0.492 0.801 -0.234 1.297 c 0.137 0.266 0.141 0.277 0.121 0.527 c -0.012 0.168 -0.066 0.391 -0.156 0.66 c -0.305 0.895 -0.309 1.258 -0.02 1.68 l 0.086 0.121 l -0.008 3.066 c 0 1.684 -0.004 3.125 -0.004 3.199 c 0 0.074 0.012 0.316 0.023 0.535 l 0.027 0.398 h 0.328 c 0.488 0 1.965 -0.063 2.43 -0.102 c 0.484 -0.043 0.992 -0.125 1.176 -0.191 c 0.254 -0.086 0.574 -0.43 1.262 -1.332 c 0.453 -0.594 0.879 -1.055 0.98 -1.055 c 0.066 0 0.066 0.02 0.004 0.207 c -0.082 0.254 -0.148 0.707 -0.273 1.926 c -0.141 1.41 -0.223 1.984 -0.336 2.41 c -0.164 0.613 -0.34 0.883 -0.676 1.039 c -0.23 0.105 -0.414 0.102 -0.766 -0.023" fill="#9f0c12"/></svg>