<svg xmlns="http://www.w3.org/2000/svg" viewBox="0 0 32 32"><path d="m 31.734 16.43 c 0.008 -3.285 -1.262 -7.133 -3.234 -9.816 c -2.402 -3.262 -6.297 -5.645 -10.273 -6.285 c -5.258 -0.766 -11.219 2.313 -14.211 5.785 c -1.461 1.746 -2.699 4.055 -3.332 6.223 c -1.648 5.641 0.148 11.523 4.75 15.559 c 2.758 2.418 5.633 3.668 9.129 3.973 c 4.195 0.367 8.852 -1.297 12.145 -4.332 c 3.148 -3.453 4.996 -7 5.03 -11.11" fill="#374660"/><path d="m 4.559 16.383 c 0.074 -2.273 1.074 -4.934 2.547 -6.789 c 1.789 -2.254 4.621 -3.902 7.465 -4.348 c 3.762 -0.527 7.93 1.602 9.969 4 c 0.996 1.211 1.82 2.805 2.219 4.305 c 1.031 3.898 -0.395 7.969 -3.77 10.758 c -2.023 1.672 -4.102 2.535 -6.598 2.746 c -2.992 0.254 -6.266 -0.895 -8.531 -2.992 c -2.156 -2.391 -3.379 -4.844 -3.305 -7.68" fill="#0095a2"/><path d="m 18.207 16.512 c -0.953 -0.18 -2.059 -0.758 -2.059 -1.078 c 0 -0.34 1.219 -4.266 1.371 -4.426 c 0.098 -0.102 0.418 -0.035 0.922 0.188 c 1.109 0.488 2.387 0.594 3.438 0.277 c 1.086 -0.324 1.352 -0.32 1.352 0.004 c 0 0.512 -1.113 4.094 -1.359 4.379 c -0.141 0.16 -0.391 0.367 -0.559 0.457 c -1.016 0.258 -2.137 0.363 -3.105 0.199" fill="#8fc549"/><path d="m 9.934 15.07 c -0.266 -0.164 0.988 -4.402 1.402 -4.758 c 0.391 -0.328 1.609 -0.605 2.676 -0.605 c 0.926 0 2.453 0.688 2.531 1.137 c 0.082 0.453 -1.191 4.398 -1.422 4.398 c -0.109 0 -0.508 -0.113 -0.879 -0.246 c -1.012 -0.367 -1.723 -0.52 -2.121 -0.434 c -0.242 0.051 -1.992 0.633 -2.188 0.508" fill="#e75b2c"/><path d="m 8.238 21.16 c -0.262 -0.168 0.988 -4.406 1.406 -4.758 c 0.387 -0.328 1.609 -0.605 2.676 -0.605 c 0.926 0 2.449 0.684 2.531 1.137 c 0.082 0.449 -1.195 4.395 -1.422 4.395 c -0.113 0 -0.508 -0.109 -0.879 -0.246 c -1.016 -0.367 -1.586 -0.574 -2.125 -0.43 c -0.238 0.063 -1.988 0.633 -2.184 0.508" fill="#4069e0"/><path d="m 16.398 22.59 c -0.949 -0.18 -2.059 -0.758 -2.055 -1.078 c 0 -0.34 1.219 -4.266 1.371 -4.426 c 0.098 -0.102 0.418 -0.035 0.922 0.188 c 1.109 0.488 2.387 0.594 3.438 0.277 c 1.086 -0.324 1.352 -0.32 1.352 0.004 c 0 0.512 -1.113 4.09 -1.359 4.379 c -0.141 0.16 -0.391 0.367 -0.559 0.457 c -1.016 0.258 -2.141 0.363 -3.109 0.199" fill="#fbd442"/></svg>