<svg xmlns="http://www.w3.org/2000/svg" viewBox="0 0 32 32"><defs><linearGradient id="0" gradientUnits="userSpaceOnUse" y1="644.51" x2="0" y2="614.51" gradientTransform="matrix(0.51183 0 0 0.44797 -266.93 -263.75)"><stop stop-color="#b9e6ff"/><stop offset="1" stop-color="#f4fbff"/></linearGradient></defs><path d="m 6.914 28.996 c 23.508 15.992 37.984 -35.01 7.598 -28.26 c -12.555 2.875 -20.18 20.922 -7.598 28.26" fill="#00bfff"/><path d="m 19.375 23.27 c 0.004 -0.934 0.008 -2.359 0.008 -3.168 v -1.473 h -0.043 c -0.02 0 -1.785 -0.016 -3.922 -0.035 c -2.137 -0.023 -3.961 -0.039 -4.059 -0.039 h -0.172 v 2.5 c 0 1.371 0 2.496 0.004 2.496 c 0 0 1.832 0.32 4.066 0.707 c 2.238 0.391 4.078 0.707 4.086 0.711 c 0.02 0 0.023 -0.16 0.031 -1.699 m -8.887 -2.281 c 0.004 -1.34 0.008 -2.441 0.004 -2.441 c 0 0 -4.863 -0.051 -5.02 -0.051 h -0.098 v 4.04 l 0.031 0.008 c 0.02 0.004 5.04 0.879 5.066 0.883 c 0.004 0 0.012 -1.098 0.016 -2.441 m -2.453 -3.01 c 1.156 -0.012 2.184 -0.02 2.281 -0.02 h 0.18 v -4.891 l -0.035 0.004 c -0.02 0.004 -1.168 0.203 -2.559 0.445 l -2.523 0.438 v 2.023 l -0.004 2.023 h 0.281 c 0.152 0 1.227 -0.012 2.383 -0.023 m 7.398 -0.07 c 2.164 -0.02 3.938 -0.039 3.938 -0.043 c 0.004 0 0.004 -1.43 0.004 -3.172 l -0.004 -3.168 l -3.723 0.645 c -2.047 0.355 -3.887 0.676 -4.09 0.711 l -0.371 0.063 l -0.004 2.504 l -0.004 2.5 h 0.16 c 0.09 0 1.934 -0.016 4.094 -0.039" fill="url(#0)"/><g fill="#effaff"><path d="m 22.977 6.719 l -4.563 0.094 l 2.254 4.387 l 2.375 4.313 l 2.309 -4.328 l 2.191 -4.402"/><path d="m 23.16 21.637 l -2.633 0.008 l 1.23 -0.84 l 1.301 -0.832 l 1.398 0.809 l 1.332 0.82"/></g><path d="m 23.05 14.313 c 0.203 0 0.367 0.164 0.367 0.367 v 5.441 c 0 0.203 -0.164 0.367 -0.367 0.367 c -0.203 0 -0.371 -0.164 -0.371 -0.367 v -5.441 c 0 -0.203 0.168 -0.367 0.371 -0.367" fill="#eefaff"/></svg>