<svg xmlns="http://www.w3.org/2000/svg" viewBox="0 0 32 32"><path d="m 24.371 28.648 c -11.801 10.469 -29.965 -6.05 -22.621 -19.871 c 7.426 -13.977 31.996 -10.254 29.906 6.914 c -0.621 5.109 -3.43 9.539 -7.281 12.957" fill="#ff8c00"/><path d="m 9.637 23.344 c -0.383 -0.156 -0.395 -0.273 -0.398 -3.555 c 0 -1.703 0.027 -3.199 0.063 -3.328 c 0.039 -0.145 0.152 -0.266 0.293 -0.32 c 0.145 -0.055 2.457 -0.113 6.332 -0.16 c 3.629 -0.043 6.289 -0.105 6.555 -0.16 c 0.563 -0.109 1.148 -0.52 1.383 -0.965 c 0.234 -0.445 0.25 -1.859 0.031 -2.27 c -0.184 -0.34 -0.594 -0.684 -1.066 -0.895 c -0.355 -0.156 -0.645 -0.086 -5.938 -0.148 c -6.332 -0.074 -7.289 0.121 -7.469 -0.031 c -0.207 -0.172 -0.352 -0.719 -0.254 -0.996 c 0.066 -0.195 -0.027 -0.344 0.23 -0.414 c 0.508 -0.137 12.629 -0.117 13.332 0.02 c 1.949 0.375 3.098 2.043 2.844 4.129 c -0.148 1.242 -0.719 2.07 -1.875 2.734 l -0.656 0.375 l -5.316 0.059 c -6.203 0.07 -6.828 0.102 -6.949 0.328 c -0.051 0.09 -0.105 1.176 -0.133 2.523 c -0.027 1.301 -0.082 2.5 -0.125 2.668 c -0.059 0.238 -0.137 0.328 -0.34 0.398 c -0.301 0.105 -0.301 0.105 -0.543 0.008" fill="#fff" fill-rule="evenodd"/></svg>