<svg xmlns="http://www.w3.org/2000/svg" viewBox="0 0 32 32"><path d="m 6.465 28.617 c 11.04 10.449 30.535 -6.04 24.23 -19.828 c -6.371 -13.945 -31.31 -10.23 -30.539 6.898 c 0.23 5.098 2.707 9.52 6.309 12.93" fill="#295f44"/><g stroke-width="1.316" transform="scale(0.125)"><path d="m 96.78 144.44 c -6.06 -19.16 -17.375 -54.34 -18.5 -57.59 c -0.438 -1.281 1.219 -1.594 6.875 -1.313 l 7.438 0.406 l 5.906 20.25 c 3.25 11.156 7.188 24.969 8.75 30.719 c 4.938 18.06 6.469 16.25 21.938 -26.12 l 9.06 -24.844 h 4.344 c 4.219 0 4.438 0.281 7.438 9.156 c 13.625 40.469 18.06 51.625 20.375 51.625 c 2.906 0 7.188 -10.563 16.563 -40.844 c 4.375 -14.09 7 -20.594 8.281 -20.594 c 2.594 0 2.406 0.625 -11.563 39.22 c -15.656 43.28 -13.813 39.469 -18.969 39 l -4.281 -0.438 l -9.281 -27 c -8.25 -24.06 -12.219 -32.469 -15.281 -32.469 c -1.281 0 -5.594 10.125 -14.06 33.09 c -9.438 25.719 -10.156 27.03 -15 27.03 c -3.875 0 -3.969 -0.156 -10.03 -19.281" fill="#00854b" stroke="#00854b"/><path d="m 86.41 151.84 c -6.06 -19.16 -17.375 -54.34 -18.5 -57.59 c -0.438 -1.313 1.219 -1.625 6.875 -1.313 l 7.438 0.375 l 5.906 20.281 c 3.25 11.156 7.188 24.969 8.75 30.719 c 4.938 18.06 6.469 16.25 21.938 -26.16 l 9.06 -24.844 h 4.344 c 4.219 0 4.438 0.313 7.438 9.156 c 13.656 40.469 18.06 51.656 20.375 51.656 c 2.906 0 7.188 -10.563 16.563 -40.875 c 4.375 -14.06 7 -20.594 8.281 -20.594 c 2.594 0 2.406 0.625 -11.563 39.25 c -15.656 43.25 -13.813 39.469 -18.969 38.969 l -4.281 -0.406 l -9.281 -27 c -8.25 -24.09 -12.219 -32.5 -15.25 -32.5 c -1.313 0 -5.625 10.125 -14.06 33.13 c -9.469 25.719 -10.188 27.03 -15.03 27.03 c -3.875 0 -3.969 -0.188 -10.03 -19.281" fill="#cee6ce" stroke="#cee6ce"/><path d="m 77.78 156.97 c -6.094 -19.16 -17.375 -54.34 -18.5 -57.59 c -0.438 -1.313 1.188 -1.625 6.844 -1.313 l 7.438 0.375 l 5.906 20.281 c 3.25 11.156 7.188 24.969 8.781 30.719 c 4.938 18.03 6.438 16.219 21.906 -26.16 l 9.06 -24.844 h 4.344 c 4.219 0 4.469 0.313 7.438 9.156 c 13.656 40.469 18.06 51.656 20.406 51.656 c 2.906 0 7.188 -10.563 16.563 -40.875 c 4.344 -14.06 6.969 -20.594 8.281 -20.594 c 2.563 0 2.375 0.625 -11.594 39.25 c -15.656 43.25 -13.813 39.469 -18.938 38.969 l -4.313 -0.406 l -9.25 -27 c -8.281 -24.09 -12.219 -32.5 -15.281 -32.5 c -1.313 0 -5.594 10.125 -14.06 33.13 c -9.438 25.719 -10.188 27.03 -15.03 27.03 c -3.844 0 -3.938 -0.188 -10 -19.281" fill="#fff" stroke="#fff"/></g></svg>