<svg xmlns="http://www.w3.org/2000/svg" viewBox="0 0 32 32"><path d="m 6.664 2.582 c 14.816 -10.352 33.398 12.961 21.328 25.15 c -11.375 11.492 -32.617 -3.355 -27.09 -17.652 c 1.152 -2.984 3.047 -5.602 5.766 -7.5" fill="#778799"/><g fill="#fff"><path d="m 6.598 13.258 h 8.668 v 1.406 h -8.668"/><path d="m 6.598 10.773 h 8.668 v 1.406 h -8.668"/><path d="m 6.598 8.293 h 8.738 v 1.406 h -8.738"/><path d="m 16.05 18.492 h 8.668 v 1.406 h -8.668"/><path d="m 16.05 16.01 h 8.668 v 1.406 h -8.668"/><path d="m 16.05 13.523 h 8.738 v 1.406 h -8.738"/><path d="m 16.05 23.434 h 8.668 v 1.406 h -8.668"/><path d="m 16.05 20.949 h 8.668 v 1.406 h -8.668"/><path d="m 16.05 18.465 h 8.738 v 1.406 h -8.738"/></g></svg>