<svg xmlns="http://www.w3.org/2000/svg" viewBox="0 0 32 32"><path d="m 1.293 20.359 c -5.883 -16.535 15.266 -24.574 23.21 -17.844 c 7.945 6.73 10.66 18.27 1.66 24.07 c -9 5.805 -18.988 10.309 -24.875 -6.227" fill="#e58e8e"/><path d="m 10.738 19.863 c -0.57 -0.477 -0.586 -0.547 -0.418 -1.914 c 0.094 -0.777 0.852 -0.191 0.117 -2.52 c -0.273 -0.867 0.043 -1.207 0.484 -1.672 c 0.473 -0.504 0.699 -0.563 2.023 -0.52 c 1.176 0.039 1.504 0.129 1.559 0.426 c 0.039 0.223 -0.117 0.426 -0.379 0.5 c -0.336 0.094 -0.449 0.313 -0.449 0.887 c 0 0.512 -0.191 0.977 -0.586 1.414 c -0.551 0.605 -0.559 0.648 -0.141 0.648 c 0.738 0 1.602 0.875 1.602 1.625 c 0 1.492 -2.492 2.227 -3.813 1.125 m 2.609 -0.93 c 0.336 -0.336 -0.328 -0.676 -1.184 -0.605 c -0.895 0.07 -1.129 0.555 -0.418 0.855 c 0.535 0.223 1.234 0.113 1.602 -0.25 m -0.801 -3.883 c 0.086 -0.641 -0.367 -1.039 -0.773 -0.68 c -0.305 0.27 -0.375 0.941 -0.129 1.203 c 0.305 0.324 0.832 0.016 0.902 -0.523 m -6.516 2.836 c 0 -0.211 0.246 -0.723 0.547 -1.141 c 0.68 -0.949 0.68 -1.141 -0.02 -2.117 c -0.965 -1.336 -0.313 -1.996 0.75 -0.762 l 0.602 0.699 l 0.629 -0.699 c 0.348 -0.383 0.715 -0.695 0.816 -0.695 c 0.457 0 0.387 0.77 -0.133 1.492 c -0.316 0.438 -0.57 0.883 -0.57 0.988 c 0 0.105 0.305 0.586 0.676 1.066 c 0.641 0.824 0.727 1.551 0.184 1.551 c -0.133 0 -0.547 -0.363 -0.918 -0.813 l -0.68 -0.809 l -0.629 0.809 c -0.672 0.863 -1.254 1.063 -1.254 0.43 m 9.563 -0.023 c -1.633 -1.984 -0.527 -5.207 1.582 -4.625 c 0.387 0.109 0.434 0.004 0.434 -0.996 c 0 -0.617 0.059 -1.285 0.133 -1.484 c 0.172 -0.477 0.871 -0.477 1.043 0 c 0.262 0.715 0.148 7.01 -0.125 7.195 c -0.145 0.094 -0.82 0.203 -1.5 0.242 c -0.961 0.055 -1.313 -0.02 -1.566 -0.332 m 1.906 -2.141 c 0 -1.199 -0.031 -1.277 -0.539 -1.277 c -0.816 0 -1.266 0.984 -0.891 1.953 c 0.234 0.602 0.398 0.727 0.859 0.668 c 0.535 -0.066 0.57 -0.145 0.57 -1.344 m 3.422 2.25 c -0.129 -0.164 -0.531 -1.184 -0.891 -2.262 c -0.574 -1.715 -0.613 -2 -0.336 -2.297 c 0.441 -0.473 0.809 -0.023 1.297 1.578 c 0.207 0.68 0.453 1.148 0.547 1.043 c 0.09 -0.109 0.332 -0.734 0.531 -1.395 c 0.367 -1.195 0.879 -1.691 1.293 -1.25 c 0.258 0.273 -1.016 4.406 -1.445 4.695 c -0.395 0.266 -0.73 0.227 -0.996 -0.113 m 3.238 -2.242 c 0 -1.934 0.063 -2.367 0.352 -2.484 c 0.578 -0.234 0.98 0.32 0.922 2.516 c -0.051 1.965 -0.316 2.168 -0.781 2.238 c -0.48 0.07 -0.492 0.027 -0.492 -2.27 m -0.148 -3.848 c -0.32 -0.414 0.207 -1.098 0.723 -0.992 c 0.504 0.102 1.063 0.813 0.141 1.305 c -0.172 0.094 -0.73 -0.145 -0.863 -0.313" fill="#c90000"/></svg>