<svg xmlns="http://www.w3.org/2000/svg" viewBox="0 0 32 32"><path d="m 24.23 2.684 c 28.16 23.891 -29.75 46.863 -23.797 9.914 c 1.305 -8.102 16.207 -16.352 23.797 -9.914" fill="#2e2828"/><g fill="#f00" stroke="#fff"><g stroke-width="0.033"><path d="m 36.01 202.73 c -2.207 -1.531 -2.677 -29.594 -2.03 -33.563 c 0.294 -1.844 2.736 -2.688 3.589 -1.406 c 0.206 0.313 0.5 5.813 0.647 12.219 c 0.177 7.719 0.677 11.906 0.824 12.688 c 0.736 3.656 3.354 3.313 5.855 3.594 c 3.501 0.375 2.265 0.75 2.619 3.469 c 0.382 2.781 -0.412 3.219 -6.267 3.438 c -3.619 0.125 -4.943 0 -5.237 -0.438" transform="matrix(0.13277 0 0 0.125 -1.395 -4.122)"/><g transform="matrix(0.13277 0 0 0.125 0.265 -3.185)"><path d="m 44.549 194.89 c -3.089 -0.969 -3.148 -1.313 -3.295 -17.16 c -0.147 -15.406 -0.118 -15.688 2.383 -17.531 c 1.736 -1.281 6.59 -1.625 9 -0.625 c 1.353 0.563 1.824 1.094 2.236 2.531 c 1.854 6.719 1.912 24.06 0.118 29.344 c -0.53 1.563 -1.353 3.094 -1.824 3.438 c -0.971 0.75 -6.355 0.75 -8.621 0 m 6.296 -8.125 c 1.118 -0.469 1.736 -1.125 2.089 -2.25 c 0.824 -2.656 1.089 -7.563 0.588 -11.313 c -0.382 -2.938 -0.677 -3.75 -1.706 -4.625 c -1.648 -1.438 -4.06 -1.406 -5.767 0.031 c -1.295 1.125 -1.324 1.281 -1.501 7.25 c -0.235 7.625 0.294 9.938 2.442 10.875 c 1.912 0.844 1.912 0.844 3.854 0.031"/><path d="m 69.17 195.45 c -4.443 -0.875 -5.266 -3.281 -5.237 -15.313 c 0 -10.375 0.559 -14.906 2.207 -18 c 1.559 -2.844 2.854 -3.656 5.914 -3.656 c 2.883 0 4.619 1.406 5.826 4.75 c 0.853 2.375 0.853 2.531 0.088 3.094 c -0.441 0.344 -2.354 0.75 -4.237 0.938 c -5.502 0.531 -5.266 1.813 -5.796 8.094 c -0.412 4.625 -1.089 8.719 0.5 10.531 c 0.883 1.063 1.501 1.313 3.178 1.313 c 1.236 0 2.619 -0.375 3.413 -0.906 c 1.324 -0.844 1.353 -0.969 1 -3.531 c -0.206 -1.5 -0.382 -3.531 -0.412 -4.594 c -0.059 -1.719 0.059 -1.906 1.206 -2.031 c 3.795 -0.438 4.266 8.25 0.824 15.781 c -1.854 4.094 -3.06 4.594 -8.473 3.531"/><path d="m 105.54 195.29 c -1.265 -0.344 -2.501 -0.844 -2.795 -1.125 c -0.294 -0.281 -0.441 -1.75 -0.353 -3.281 c 0.147 -2.844 -0.53 -8.188 -0.5 -11.03 l -4.678 2.688 c -3.383 1.938 -3.678 -3.625 -5.325 -2.313 c -1 0.813 -1.118 1.375 -1.383 7 c -0.147 3.438 -0.53 6.594 -0.883 7.188 c -0.53 1 -3.325 1.281 -3.442 0.469 c -0.235 -1.531 -1.059 -34.469 1.059 -35.563 c 1.03 -0.531 2.118 0.531 4.413 4.5 c 1.353 2.375 2.854 4.344 3.678 4.813 c 1.295 0.781 1.471 0.781 2.589 0.031 c 0.706 -0.438 1.883 -2.25 2.766 -4.188 c 1.765 -3.875 2.619 -4.813 4.03 -4.344 c 0.941 0.281 0.971 0.625 0.971 12.06 l 0.471 9.906 c 1.501 11.406 -3.06 20.531 4.59 1.75 c 0.088 -7.219 0 -14.313 4.354 -20.281 c 0.029 -4.03 -0.53 -4.625 3.413 -4.625 c 3.413 -0.219 3.207 2.469 2.942 3.094 c -0.206 2.719 -0.088 3.375 0.971 5.344 c 3.178 2.75 2.736 7.5 2.736 11.969 c 0 3.469 0.147 4.219 1.648 7.25 c 1.618 3.281 1.912 5.03 1.236 7.469 c -0.53 1.906 -1.677 1.625 -3.825 -0.938 c -1.589 -2.5 -2.501 -2.406 -5.266 -2.406 c -3.854 0 -5.208 0.531 -6.355 2.469 c -0.471 0.781 -1.559 1.75 -2.442 2.094 c -1.854 0.781 -1.677 0.781 -4.619 0 m 15.446 -15.344 c 0.794 -2.031 0.118 -4.906 -0.059 -10.188 c -0.794 -2.5 -1.795 -2.469 -3.383 -0.938 c -1.648 1.656 -2.177 4.594 -1.412 7.938 c 1.03 4.531 2.589 5.563 4.855 3.188"/><path d="m 139.14 194.35 c -0.736 -0.781 -1.147 -1.563 -0.971 -2 c 0.147 -0.406 0.265 -1.063 0.265 -1.5 c 0 -0.406 1.383 -2.063 3.06 -3.656 c 2.56 -2.438 3.03 -3.125 2.795 -4.094 c -0.53 -2.188 -3.648 -3.063 -5.796 -4.688 c -1.971 -1.438 -4.884 -5.688 -5.502 -7.938 c -0.235 -4.5 3.56 -7.375 4.59 -8.781 c 2.824 -4 7.679 -3.125 8.709 1.563 c 0.471 2.156 -0.736 3.625 -3.295 4 c -3.354 0.5 -4.796 2.438 -4.472 5.906 c 1.265 3.188 4.502 2.656 7.179 5.188 c 1.736 1.625 4.619 6.625 4.619 7.938 c 0 0.531 -2 3.75 -4.884 7.938 c -0.382 0.563 -1.412 0.969 -2.795 1.125 c -1.706 0.063 -2.677 -0.219 -3.501 -1"/><path d="m 161.06 194.01 c -0.177 -0.813 -0.324 -5.25 -0.324 -9.844 c 0 -4.594 -0.206 -9.813 -0.412 -11.563 c -0.412 -3.094 -0.5 -3.281 -3.325 -5.938 c -2.148 -2.063 -4.531 -2.625 -4.531 -3.594 c 0 -3.03 5.149 -4.594 12.475 -3.813 c 3.442 0.375 4.649 0.719 5.414 1.5 c 1 0.969 1 1 0.118 2.969 c -0.5 1.063 -1.442 2.313 -2.089 2.719 c -3.737 2.281 -2.442 2.094 -3.148 16.906 c -0.265 5.594 -1.795 10.406 -1.942 11.03 c -0.412 1.656 -1.883 1.438 -2.236 -0.375"/><path d="m 178.51 194.82 c -0.824 -0.625 -2.324 -1.438 -2.501 -9.625 c -0.147 -8.125 -1.618 -23.406 1.206 -25.19 l 1.677 -1.063 c 5.855 0.594 9.591 -2.406 11.269 3 c 1.324 4.188 -2.383 5.531 -5.855 5.531 c -0.53 0 -1.559 0.594 -2.295 1.281 c -2.619 2.531 -1.089 5.875 3.178 6.969 c 1.854 0.469 2.883 -1.281 2.53 1.625 c -0.088 0.781 1.265 3.219 -1.177 2.5 c -4.354 -1.281 -5.855 0.906 -5.855 3.281 c 0 1.5 1.589 5.25 4.237 5.938 c 5.59 1.406 5.796 5.344 2.648 6 c -2.795 0.594 -8.091 0.438 -9.03 -0.25"/><path d="m 210.28 194.92 c -0.53 -0.594 -1.942 -2.625 -3.148 -4.5 c -2.619 -4.125 -4.119 -5.281 -5.826 -4.5 c -1.559 0.719 -2.118 2.313 -2.118 6.06 c 0 3.25 1.383 2.906 -2.118 3.03 c -2.972 0.094 -1.412 -2.031 -1.412 -17.16 c 1.53 -10 -4.855 -18.969 5.561 -18.844 c 7.179 0.063 7.473 0.188 9 3.25 c 1.471 3 3.825 7.844 3.383 11.281 c -0.177 1.25 -2.207 4.219 -2.824 5.5 c -1.736 3.5 -1.471 5.063 1.824 10.875 c 2.236 4 2.295 5.75 0.118 5.938 c -1.03 0.125 -1.736 -0.156 -2.442 -0.938 m -3.325 -19.875 c 2.265 -1.031 2.824 -3.938 1.147 -5.906 c -2.207 -2.563 -6.855 -1.938 -8 1.063 c -0.559 1.469 0.206 4.188 1.383 4.875 c 1.089 0.625 4.06 0.594 5.472 -0.031"/></g></g><g transform="matrix(0.13277 0 0 0.125 -1.395 -4.122)"><path d="m 102.33 145.17 c 0.029 -2.469 2.648 -9.281 6.03 -15.594 l 3.884 -7.25 l -4.384 -8.844 c -2.413 -4.844 -4.678 -10.219 -5.03 -11.906 l -0.647 -3.063 h 5.03 l 3.325 0.313 l 1.736 2.938 c -0.265 2.875 1.912 4.875 2.501 7.219 c 0.5 2.188 1.118 2.813 2.648 2.594 c 1.442 -0.219 2.707 -2.063 4.59 -6.688 c 2.589 -6.313 2.648 -6.375 6.355 -6.375 c 3.148 0 3.766 0.313 3.766 1.969 c 0 1.844 -7.473 19.313 -8.974 21.03 c -0.382 0.438 0.794 3.625 2.589 7.094 c 1.795 3.5 4.148 8.781 5.237 11.781 l 1.971 5.438 h -4.119 c -4.09 -0.031 -4.207 -0.094 -7.238 -5.938 c -3.737 -7.125 -5.708 -7.844 -7.944 -2.875 c -3.619 8.156 -3.766 8.313 -7.62 8.625 c -2.03 0.156 -3.707 -0.031 -3.707 -0.469" stroke-width="0.068"/><path d="m 139.16 122.23 v -2.969 h 29.657 v 5.938 h -29.657" stroke-width="0.104"/></g></g></svg>