<svg xmlns="http://www.w3.org/2000/svg" viewBox="0 0 32 32"><path d="m 0.238 16.07 c -1.238 -10.871 5.633 -15.699 15.762 -15.684 c 11.504 0.02 16.05 5.746 15.855 16.06 c 0.57 9.922 -5.574 15.359 -16.215 15.434 c -10.441 0.07 -16.336 -4.914 -15.402 -15.809" fill="#002525"/><path d="m 5.695 8.777 h 20.266 v 14.555 h -20.266" fill="#00cdcd"/><g fill="#0000ed"><path d="m 15.488 8.777 h 10.473 v 6.668 h -10.473"/><path d="m 5.695 8.699 h 6.781 v 5.113 h -6.781"/><path d="m 20.09 17.383 h 5.84 v 4.578 h -5.84"/></g><path d="m 5.688 21.22 h 20.266 v 1.145 h -20.266" fill="#ffd600"/><path d="m 5.625 14.598 h 8.379 v 3.137 h -8.379" fill="#005a7c"/><path d="m 19.922 15.48 h 6.01 v 2.039 h -6.01" fill="#00ba13"/><path d="m 5.688 17.672 h 10.223 v 3.578 h -10.223" fill="#0094d6"/><path d="m 9.93 21.22 h 4.566 v 1.145 h -4.566" fill="#003737"/></svg>