<svg xmlns="http://www.w3.org/2000/svg" viewBox="0 0 32 32"><path d="m 3.059 7.512 c -17.41 31.809 46.19 33.31 24.301 0.52 c -5.781 -8.434 -19.613 -12.551 -24.301 -0.52" fill="#cea8f8"/><g transform="scale(0.125)"><path d="m 201.94 180.88 c -1.656 -0.313 -22.875 -2.125 -39.656 -3.406 c -29.438 -2.219 -58.62 -4.03 -90.69 -5.688 c -25.563 -1.313 -32.438 -2 -32.75 -3.25 c -0.219 -0.906 7.469 -4.625 15.75 -7.625 c 9.188 -3.344 17.719 -5.875 26 -7.719 c 8.406 -1.875 11.281 -2.781 12.156 -4.375 c 42.656 14.844 62.63 19.906 110.56 31.781 c 1.344 0.469 0.531 0.625 -1.375 0.281" fill="#86709b" stroke="#86709b" stroke-width="1.896"/><path d="m 212.78 182.03 c -3.531 -0.781 -9.469 -1.906 -11.688 -2.219 c -1.375 -0.188 -2.75 -0.719 -3.03 -1.188 c -0.313 -0.531 -7.781 -2.875 -19.906 -6.281 c -10.688 -2.969 -25.75 -7.344 -33.469 -9.688 c -23.656 -7.188 -60.31 -20.313 -61.31 -22 c -0.719 -1.156 -5.406 -3 -20.469 -8.03 c -13.906 -4.656 -17.469 -6.156 -18.12 -7.656 c -0.75 -1.688 0.313 -4.875 2.219 -6.719 c 4 -3.844 28.28 -19.5 35 -22.563 c 3.438 -1.594 7.281 -1.813 9.09 -0.563 c 2.469 1.719 3.156 0.875 4.219 -5.094 c 0.719 -3.969 1.719 -6.281 3.094 -7.03 c 3.594 -2 28.25 0.688 31.969 3.469 c 6.938 5.188 82.906 76.5 90.22 84.69 c 1.156 1.281 2.5 3.344 3 4.531 c 1.781 4.219 0.063 6.125 -5.781 6.406 c -2.125 0.094 -4.406 0.063 -5.03 -0.063 m -1.688 -11.531 c -12.313 -13.12 -75.28 -73.47 -80.41 -77.06 c -2.719 -1.875 -9.438 -3.156 -18.75 -3.531 l -7.969 -0.313 l -1.281 1.563 c -0.781 0.938 -1.594 2.906 -2 4.781 c -0.406 1.75 -1.156 4.438 -1.688 6.03 c -1.688 4.875 -2.156 4.344 8.719 10.313 c 34.594 19.06 79.22 44.44 95 54 c 7.5 4.563 9.781 5.688 8.375 4.219 m -8.625 0.094 c -0.375 -0.188 -4.813 -2.125 -9.813 -4.281 c -24.719 -10.688 -64.53 -31.09 -85.969 -44.06 c -4.063 -2.469 -8.5 -4.969 -9.875 -5.563 c -2.625 -1.125 -5.719 -3.844 -5.719 -5.03 c 0 -0.406 0.625 -1.844 1.406 -3.219 c 1.656 -3 1.75 -4.063 0.375 -5.625 c -1.844 -2.094 -4.125 -2.563 -6.969 -1.406 c -5.25 2.063 -27.906 16 -30.906 18.969 c -0.969 1 -1.031 1.219 -0.406 1.969 c 0.844 1.031 7.938 3.563 22.469 8 c 15.344 4.719 21.375 6.875 44 15.938 c 26.938 10.781 37.19 14.344 53.813 18.75 c 12.188 3.25 30.594 6.938 27.594 5.563" fill="#fff" stroke="#fff" fill-opacity="0.996" stroke-width="2.063"/></g></svg>