<svg xmlns="http://www.w3.org/2000/svg" viewBox="0 0 24 24"><path d="m 18.17 1.75 c 21.13 18.13 -22.313 35.566 -17.848 7.523 c 0.98 -6.148 12.156 -12.41 17.848 -7.523" fill="#9782c1"/><g fill="#fff" stroke="#fff"><path d="m 110.75 85.54 c -12.167 12.833 -24.333 25.708 -36.542 38.542 c 0 -12.625 0 -25.292 -0.042 -37.917 c -3.583 -0.542 -14.833 -3.625 -13.708 3.042 c 0 28.625 0 57.25 0 85.88 c 3.583 0.583 14.875 3.625 13.708 -3.042 c 0 -10.5 0 -21.04 0 -31.542 c 4.292 -3.333 9.25 -13.08 12.13 -3.625 c 8.667 12.917 16.583 26.542 25.667 39 c 4.5 -0.958 12.04 1.792 14.833 -1.25 c -11.583 -17.5 -23.5 -34.792 -35.21 -52.21 c 11.208 -12 23.21 -23.583 33.917 -35.875 c -4.208 -1.5 -10.125 -1 -14.75 -1" transform="scale(0.09375)" stroke-width="1.01"/><path d="m 137.68 108.23 c -3.25 -0.583 -6.958 1.583 -4.04 5.04 c 7.542 20.917 17.208 41.33 23.833 62.46 c -2.208 4.917 -3.917 11.625 -9.04 14.292 c -3.5 2.042 -10.292 -1.375 -11.458 2.667 c -2.083 7.75 2.208 10.375 9.5 8.25 c 6.417 0.708 12.583 -2.042 15.708 -7.833 c 9.417 -16.542 14.333 -35.25 21.917 -52.625 c 3.708 -10.375 8.75 -20.625 11.75 -31.08 c -3.375 -2.458 -9 -0.542 -12.625 -0.125 c -6.375 16.333 -11.958 33.25 -19.292 49 c -6.958 -16.5 -12.5 -34 -19.833 -50.08 c -2.125 0.042 -4.292 0 -6.417 0.042" transform="matrix(0.09375 0 0 0.09375 0.077 0.123)" stroke-width="1.087"/></g></svg>