<svg xmlns="http://www.w3.org/2000/svg" viewBox="0 0 24 24"><path d="m 12.04 23.91 c 15.832 1.801 15.613 -23.992 -0.281 -23.688 c -14.781 -0.848 -16.12 25.09 0.281 23.688" fill="#2d4564"/><path d="m 7.195 19.234 c -0.434 -0.148 -0.801 -0.426 -1.121 -0.84 c -0.453 -0.586 -0.449 -0.512 -0.426 -5.965 c 0.02 -4.883 0.02 -4.93 0.172 -5.254 c 0.215 -0.465 0.676 -0.934 1.141 -1.16 l 0.395 -0.191 h 5.703 l 0.395 0.191 c 0.465 0.227 0.926 0.695 1.141 1.16 c 0.152 0.324 0.152 0.348 0.152 5.402 c 0 5.05 0 5.074 -0.152 5.402 c -0.215 0.461 -0.676 0.93 -1.141 1.156 l -0.395 0.195 l -2.746 0.016 c -2.516 0.016 -2.777 0.008 -3.117 -0.113 m 5.73 -1.273 c 0.219 -0.105 0.34 -0.223 0.445 -0.445 c 0.145 -0.297 0.145 -0.363 0.129 -5.03 c -0.02 -4.652 -0.023 -4.734 -0.164 -4.922 c -0.316 -0.418 -0.477 -0.484 -1.215 -0.484 h -0.684 l -0.035 0.527 l -0.035 0.523 h -2.32 l -0.035 -0.523 l -0.035 -0.527 h -0.684 c -0.738 0 -0.898 0.066 -1.215 0.484 c -0.141 0.188 -0.145 0.27 -0.164 4.824 c -0.012 2.547 -0.004 4.734 0.02 4.855 c 0.051 0.281 0.348 0.641 0.629 0.762 c 0.164 0.07 0.785 0.094 2.641 0.098 c 2.305 0 2.438 -0.008 2.723 -0.145 m -5.01 -0.926 c -0.02 -0.055 -0.027 -0.328 -0.016 -0.613 l 0.02 -0.52 h 4.574 v 1.188 l -2.27 0.02 c -1.863 0.016 -2.277 0.004 -2.309 -0.074 m 7.887 2.246 c -0.023 -0.059 -0.031 -0.336 -0.02 -0.621 l 0.02 -0.52 l 0.738 -0.035 c 0.871 -0.043 1.125 -0.156 1.344 -0.602 c 0.137 -0.281 0.141 -0.406 0.121 -3.898 c -0.02 -3.52 -0.023 -3.613 -0.164 -3.801 c -0.313 -0.414 -0.477 -0.48 -1.285 -0.516 l -0.754 -0.035 v -1.191 l 0.879 0.004 c 0.777 0 0.922 0.02 1.215 0.164 c 0.496 0.242 0.938 0.664 1.16 1.113 l 0.195 0.398 v 7.91 l -0.195 0.395 c -0.227 0.461 -0.699 0.922 -1.164 1.133 c -0.426 0.191 -2.027 0.27 -2.09 0.102 m -0.004 -2.246 c -0.02 -0.055 -0.027 -0.328 -0.016 -0.613 l 0.02 -0.52 h 1.199 v 1.188 l -0.582 0.023 c -0.445 0.016 -0.594 -0.004 -0.621 -0.078" fill="#f3f3f3"/></svg>