<svg xmlns="http://www.w3.org/2000/svg" viewBox="0 0 48 48"><path d="m 39.594 6.961 c 37.844 49.945 -66.3 57.04 -32.879 6.06 c 7.621 -11.621 22.855 -19.285 32.879 -6.06" fill="#a9a9a9"/><path d="m 28.28 14.07 l 0.051 0.047 l 0.137 -0.047 m 1.523 1.48 l 9.406 8.148 v -8.148" fill-opacity="0.196"/><g fill="#fff"><path d="m 28.28 5.734 l 11.12 9.629 h -9.406 c -0.832 0 -1.711 -0.762 -1.711 -1.48" fill-opacity="0.392"/><path d="m 21.523 17.84 c -1.129 0.18 -2.223 1.254 -2.223 1.254 l 0.02 0.039 l 0.336 8.648 c -1.109 -0.977 -3.25 -1.43 -4.914 -0.355 c -2.145 1.387 -2.723 3.855 -1.914 5.813 c 0.809 1.957 3.195 2.414 5.344 1.023 c 1.691 -1.094 2.84 -3.02 2.809 -4.746 c -0.004 -0.055 -0.008 -0.105 -0.012 -0.156 l -0.438 -7.973 c 0.051 -0.063 0.574 -0.266 2.16 -0.18 c 1.68 0.094 3.305 -2.961 3.305 -2.961 c 0 0 -1.996 0.609 -3.367 -0.215 c -0.344 -0.207 -0.73 -0.254 -1.105 -0.191"/><g stroke="#fff" stroke-width="1.442" transform="scale(0.1875)"><path d="m 135.67 183.88 c -2.771 -0.917 -4.479 -2.333 -5.792 -4.854 l -1.208 -2.271 l -0.146 -19.292 l -0.125 -19.271 l 1.688 -0.292 c 0.917 -0.167 2.229 -0.396 2.896 -0.542 l 1.208 -0.229 v 11.125 h 13.708 v 4.854 h -13.792 l 0.167 10.708 c 0.167 11.438 0.292 12.208 2.563 14.25 c 1.333 1.208 6.271 1.479 9.125 0.5 c 1.146 -0.396 2.125 -0.708 2.188 -0.708 c 0.104 0 1.063 4.208 1.063 4.625 c 0 0.083 -0.938 0.479 -2.104 0.896 c -2.833 1 -9.08 1.271 -11.438 0.5"/><path d="m 163.96 184 c -2.375 -0.563 -5.563 -3.375 -6.625 -5.813 c -0.75 -1.729 -0.833 -3.521 -0.958 -20.938 l -0.146 -19.08 l 2.833 -0.479 c 1.542 -0.271 2.958 -0.5 3.104 -0.5 c 0.167 0 0.313 2.5 0.313 5.521 v 5.542 h 13.688 v 4.854 h -13.688 l 0.021 10.5 c 0.021 11.396 0.271 12.896 2.313 14.417 c 1.646 1.208 6.396 1.5 9.125 0.563 c 1.083 -0.396 2.042 -0.625 2.125 -0.542 c 0.104 0.083 0.438 1.167 0.75 2.417 l 0.604 2.25 l -2.271 0.708 c -2.771 0.875 -8.688 1.188 -11.188 0.583"/></g></g></svg>