<svg xmlns="http://www.w3.org/2000/svg" viewBox="0 0 48 48"><path d="m 43.13 37.645 c 23.465 -51.39 -51.32 -45.03 -42.39 -11.66 c 4.316 19.277 31.387 30.977 42.39 11.66" fill="#c19553"/><path d="m 29.848 12.941 l 0.055 0.051 l 0.137 -0.051 m 1.547 1.535 l 9.566 8.43 v -8.43" fill-opacity="0.196"/><path d="m 29.848 4.512 l 11.305 9.965 h -9.566 c -0.844 0 -1.738 -0.789 -1.738 -1.535" fill="#fff" fill-opacity="0.392"/><path d="m 15.469 30.57 v 7.664 c 0 0.742 0.566 1.531 1.098 1.531 h 17.516 c 0.531 0 1.094 -0.789 1.094 -1.531 v -7.664" fill-opacity="0.196"/><g fill="#fff"><path d="m 20.285 4.512 v 3.066 h 3.477 v -3.066 m -3.477 3.066 h -3.48 v 3.066 h 3.48 m 0 0 v 3.066 h 3.477 v -3.066 m -3.477 3.066 h -3.48 v 3.062 h 3.48 m 0 0 v 3.066 h 3.477 v -3.066 m -6.957 4.602 v 6.129 h 6.957 v -6.129"/><path d="m 31.05 33.05 c -0.348 0.418 -0.668 0.813 -0.961 1.18 c -0.293 0.367 -0.563 0.719 -0.813 1.051 c -0.254 0.328 -0.492 0.648 -0.719 0.961 c -0.219 0.301 -0.43 0.602 -0.633 0.902 h 3.234 v 0.969 h -4.965 v -0.676 c 0.18 -0.273 0.371 -0.559 0.574 -0.855 c 0.203 -0.301 0.43 -0.625 0.68 -0.969 c 0.254 -0.34 0.523 -0.711 0.816 -1.109 c 0.301 -0.398 0.629 -0.832 0.984 -1.301 h -2.895 v -0.969 h 4.695 v 0.816"/><path d="m 23.301 38.11 c -0.137 -0.32 -0.305 -0.68 -0.504 -1.07 c -0.191 -0.391 -0.398 -0.785 -0.613 -1.176 c -0.207 0.371 -0.414 0.762 -0.621 1.168 c -0.207 0.398 -0.387 0.758 -0.535 1.078 h -1.43 c 0.07 -0.168 0.176 -0.375 0.313 -0.617 c 0.141 -0.238 0.297 -0.496 0.461 -0.777 c 0.172 -0.277 0.352 -0.563 0.535 -0.852 c 0.188 -0.297 0.367 -0.582 0.539 -0.852 l -1.742 -2.77 h 1.43 l 1.051 1.875 l 1.105 -1.875 h 1.332 l -1.695 2.738 c 0.191 0.273 0.383 0.559 0.57 0.855 c 0.184 0.297 0.355 0.586 0.516 0.871 c 0.164 0.277 0.305 0.539 0.43 0.785 c 0.121 0.242 0.215 0.445 0.289 0.617 h -1.43"/></g></svg>