
<svg xmlns="http://www.w3.org/2000/svg" xmlns:xlink="http://www.w3.org/1999/xlink" width="48px" height="48px" viewBox="0 0 48 48" version="1.1">
<g id="surface1">
<path style=" stroke:none;fill-rule:nonzero;fill:rgb(86.27451%,86.27451%,86.27451%);fill-opacity:1;" d="M 0.609375 29.492188 C 9.980469 74.476562 74.457031 26.1875 35.726562 3.320312 C 20.679688 -6.480469 -4.210938 6.359375 0.609375 29.492188 Z M 0.609375 29.492188 "/>
<path style=" stroke:none;fill-rule:nonzero;fill:rgb(0%,0%,0%);fill-opacity:0.196078;" d="M 28.863281 13.425781 L 28.914062 13.472656 L 29.039062 13.425781 Z M 30.484375 14.933594 L 39.398438 23.246094 L 39.398438 14.933594 Z M 30.484375 14.933594 "/>
<path style=" stroke:none;fill-rule:nonzero;fill:rgb(100%,100%,100%);fill-opacity:0.392157;" d="M 28.863281 5.113281 L 39.398438 14.933594 L 30.484375 14.933594 C 29.695312 14.933594 28.863281 14.15625 28.863281 13.425781 L 28.863281 5.113281 "/>
<path style=" stroke:none;fill-rule:nonzero;fill:rgb(53.333333%,53.333333%,53.333333%);fill-opacity:1;" d="M 21.859375 17.257812 C 16.878906 17.257812 12.839844 21.234375 12.839844 26.136719 C 12.839844 31.039062 16.878906 35.011719 21.859375 35.011719 C 26.84375 35.011719 30.882812 31.039062 30.882812 26.136719 C 30.882812 21.234375 26.84375 17.257812 21.859375 17.257812 Z M 21.859375 19.035156 C 25.847656 19.035156 29.078125 22.214844 29.078125 26.136719 C 29.078125 30.058594 25.847656 33.234375 21.859375 33.234375 C 17.875 33.234375 14.644531 30.058594 14.644531 26.136719 C 14.644531 22.214844 17.875 19.035156 21.859375 19.035156 Z M 21.859375 19.035156 "/>
<path style=" stroke:none;fill-rule:nonzero;fill:rgb(53.333333%,53.333333%,53.333333%);fill-opacity:1;" d="M 22.003906 22.640625 C 21.058594 22.640625 20.328125 22.953125 19.808594 23.574219 C 19.292969 24.195312 19.03125 25.058594 19.03125 26.167969 C 19.03125 28.480469 20.023438 29.632812 22.003906 29.632812 C 22.835938 29.632812 23.84375 29.453125 25.027344 29.089844 L 25.027344 30.929688 C 24.054688 31.285156 22.96875 31.464844 21.769531 31.464844 C 20.046875 31.464844 18.730469 31.007812 17.820312 30.09375 C 16.90625 29.179688 16.449219 27.867188 16.449219 26.15625 C 16.449219 25.078125 16.675781 24.136719 17.121094 23.328125 C 17.570312 22.515625 18.214844 21.894531 19.050781 21.464844 C 19.890625 21.03125 20.878906 20.8125 22.003906 20.8125 C 23.15625 20.8125 24.3125 21.054688 25.472656 21.542969 L 24.660156 23.328125 C 24.21875 23.144531 23.773438 22.984375 23.324219 22.84375 C 22.878906 22.707031 22.4375 22.640625 22.003906 22.640625 "/>
</g>
</svg>
