<svg xmlns="http://www.w3.org/2000/svg" viewBox="0 0 256 256"><defs><clipPath><path transform="matrix(15.33333 0 0 11.5 415 -125.5)" d="m -24 13 c 0 1.105 -0.672 2 -1.5 2 -0.828 0 -1.5 -0.895 -1.5 -2 0 -1.105 0.672 -2 1.5 -2 0.828 0 1.5 0.895 1.5 2 z"/></clipPath></defs><path d="m 232.03 196.64 c 87.42 -129.19 -87.27 -260.11 -191.94 -154.83 c -98.62 99.18 1.624 253.28 127.04 205.1 26.17 -10.05 48.851 -26.557 64.899 -50.27 z" fill="#ff8c00" color="#000"/><g fill="#fff" stroke="#fff" stroke-width="3.669"><path d="m -29.874 254.86 c -1.547 -1.547 -2.455 -3.597 -2.455 -5.545 0 -1.948 0.907 -3.998 2.455 -5.545 l 2.455 -2.455 h 59.09 h 59.09 l 2.455 2.455 c 3.247 3.247 3.247 7.844 0 11.09 l -2.455 2.455 h -59.09 h -59.09 l -2.455 -2.455 z m -33.683 -31.879 c -11.925 -4.083 -22.316 -12.972 -27.853 -23.826 -4.827 -9.461 -5.01 -12.608 -4.686 -80.65 0.341 -71.72 0.023 -68.57 8.105 -80.43 4.983 -7.312 14.02 -14.556 22.338 -17.914 l 5.824 -2.35 h 91.5 h 91.5 l 5.824 2.35 c 12.858 5.187 24.571 17.532 28.41 29.941 1.612 5.212 1.766 11.422 1.766 71.21 0 59.787 -0.154 65.998 -1.766 71.21 -3.839 12.409 -15.552 24.754 -28.41 29.941 l -5.824 2.35 l -90 0.235 l -90 0.235 l -6.728 -2.304 z m 186.73 -16.1 c 7.108 -2.732 15.617 -11.471 18.09 -18.58 1.8 -5.173 1.91 -9.04 1.91 -66.99 0 -71.45 0.383 -68.28 -9.42 -78.08 -10.04 -10.04 -3.37 -9.42 -102.08 -9.42 -98.71 0 -92.04 -0.615 -102.08 9.42 -9.803 9.803 -9.42 6.626 -9.42 78.08 0 56.695 0.141 61.904 1.804 66.67 1.983 5.685 7.917 13.07 13.06 16.243 8.08 4.997 8.09 4.997 98.64 4.78 80.69 -0.193 84.73 -0.289 89.5 -2.124 z" fill="#fff" stroke="#fff" stroke-width="3.669" transform="matrix(0.60574 0 0 0.56518 109.13 61.01)"/></g></svg>