<svg xmlns="http://www.w3.org/2000/svg" viewBox="0 0 256 256"><defs><clipPath><path transform="matrix(15.33333 0 0 11.5 415 -125.5)" d="m -24 13 c 0 1.105 -0.672 2 -1.5 2 -0.828 0 -1.5 -0.895 -1.5 -2 0 -1.105 0.672 -2 1.5 -2 0.828 0 1.5 0.895 1.5 2 z"/></clipPath></defs><g transform="matrix(0.99489 0 0 0.99234 0.429 0.511)"><path transform="matrix(0.99342 0 0 0.99342 1.684 -789.44)" d="M 237.33,858.53 C 43.92,633.19 -142.06,1096.51 157.07,1048.9 222.66,1038.462 289.45,919.25 237.33,858.53 z" fill="#9370db" color="#000"/><g transform="matrix(0.66585 0 0 0.65104 46.932 47.4)" fill="#ff8c00"><g stroke="#fff"><path d="m 159.61,25.564 a 16.448,15.6 4.611 0 0 -10.253,-3.272 l -28.473,-0.094 a 16.448,15.6 4.611 0 0 -16.233,15.431 l 0.275,52.08 -54.867,-0.18 A 16.448,15.6 4.611 0 0 33.825,104.96 l 0.143,27.02 a 16.448,15.6 4.611 0 0 16.397,15.539 l 54.867,0.18 0.275,52.08 a 16.448,15.6 4.611 0 0 16.397,15.539 l 28.473,0.094 a 16.448,15.6 4.611 0 0 16.233,-15.431 l -0.275,-52.08 54.867,0.18 a 16.448,15.6 4.611 0 0 16.233,-15.431 l -0.143,-27.02 A 16.448,15.6 4.611 0 0 220.89,90.09 l -54.872,-0.185 -0.275,-52.07 a 16.448,15.6 4.611 0 0 -6.139,-12.271 z" fill-rule="evenodd" stroke-width="15.13"/><g transform="matrix(0.96209 0 0 0.94679 0.069 13.587)" fill="#9370db" color="#000"><path d="m 125.94,98.87 c -0.009,-0.686 -0.684,-1.278 -1.424,-1.248 l -15.76,0.631 -56.29,2.253 -45.591,1.825 c -1.046,0.042 -1.959,0.935 -1.947,1.905 l 1.78,138.8 c 0.012,0.97 0.947,1.789 1.993,1.748 l 101.88,-4.078 c 1.046,-0.04 1.959,-0.936 1.947,-1.905 l -0.98,-76.45 13.79,-0.554 c 0.74,-0.03 1.399,-0.675 1.39,-1.361 l -0.79,-61.57 z" stroke-width="6.181"/><path d="m 126.53,174.82 c -0.002,-0.732 -0.683,-1.311 -1.583,-1.351 l -18.629,-0.82 -0.189,-62.785 c -0.002,-0.674 -0.752,-1.314 -1.583,-1.351 l -97.25,-4.279 c -0.829,-0.037 -1.577,0.538 -1.575,1.212 l 0.419,138.89 c 0.002,0.674 0.753,1.314 1.583,1.351 l 70.73,3.112 c 0.21,0.543 0.539,1.048 1.266,1.081 l 45.47,2 c 0.9,0.04 1.577,-0.481 1.575,-1.212 l -0.229,-75.854 z" stroke-width="6.906"/><g fill="#fff" stroke="none"><rect width="7.872" height="80.3" x="122.38" y="174.05" ry="4.101" rx="3.936"/><rect rx="3.936" ry="4.101" y="95.38" x="122.38" height="68.89" width="7.872"/></g></g></g><path d="m 42.05 231.12 c -10.785 -2.472 -19.441 -9.35 -23.36 -18.562 -1.186 -2.787 -1.981 -5.549 -1.767 -6.137 0.22 -0.604 3.337 -1.537 7.167 -2.145 3.728 -0.591 7.58 -1.278 8.56 -1.527 1.466 -0.372 2.01 0.132 3.085 2.839 1.76 4.445 4.939 7.837 9.33 9.955 5 2.412 19.682 2.633 25.22 0.381 5.65 -2.3 8.252 -5.643 8.634 -11.09 0.595 -8.49 -4.04 -12.522 -18.434 -16.03 -21.22 -5.175 -29.554 -8.743 -34.42 -14.739 -7.265 -8.953 -7.06 -24.57 0.444 -33.561 6.47 -7.754 16.1 -11 32.353 -10.91 19.1 0.107 28.556 4.864 33.858 17.03 2.945 6.757 2.603 7.287 -5.471 8.469 -10.414 1.525 -10.369 1.531 -11.623 -1.636 -2.784 -7.03 -10.626 -10.649 -21.234 -9.803 -10.335 0.825 -15 4.842 -15 12.917 0 7.641 4.64 10.67 23.12 15.1 20.619 4.941 28.28 9.305 32.571 18.563 3.038 6.55 3.19 17.12 0.344 23.965 -3.453 8.309 -11.22 14.206 -22.361 16.978 -6.186 1.539 -24.2 1.508 -31.01 -0.054 z" stroke="none"/></g></g></svg>