<svg xmlns="http://www.w3.org/2000/svg" viewBox="0 0 256 256"><g color="#000"><path d="m 202.58 811.44 c -381.34 -111.21 -138.25 438.25 32.359 162.63 31.19 -50.643 33.36 -136.61 -32.359 -162.63 z" transform="translate(0 -796.36)" fill="#393068"/></g><path d="m 92.34 204.82 c -0.171 -0.267 4.962 -4.795 11.408 -10.06 6.445 -5.267 12.982 -10.657 14.526 -11.978 1.544 -1.32 3.734 -3.19 4.867 -4.155 1.133 -0.965 3.849 -3.129 6.04 -4.809 6.04 -4.638 5.499 -5.211 -5.349 -5.705 -3.527 -0.161 -5.148 -0.726 -5.148 -1.794 0 -0.68 3.372 -5.692 7.543 -11.211 1.511 -2 4.866 -6.61 7.455 -10.246 2.589 -3.636 10.292 -14.33 17.12 -23.766 6.826 -9.436 12.259 -17.393 12.07 -17.682 -0.186 -0.289 -8.487 -0.526 -18.447 -0.526 -11.428 0 -18.267 -0.246 -18.537 -0.666 -0.322 -0.501 11.363 -22.04 16.13 -29.741 0.338 -0.545 2.679 -4.561 5.203 -8.924 2.524 -4.363 4.706 -8.06 4.849 -8.215 0.143 -0.156 1.415 0.331 2.826 1.081 1.412 0.75 3.339 1.587 4.283 1.861 0.944 0.273 3.547 1.966 5.785 3.761 2.238 1.795 5.804 4.108 7.925 5.138 6.079 2.955 16 13.965 20.918 23.21 7.72 14.518 10.01 35.38 5.661 51.53 -1.677 6.226 -6.107 15.64 -10.404 22.11 -6.692 10.07 -21.19 21.616 -32.358 25.767 -2.604 0.968 -5.352 2.026 -6.107 2.351 -5.582 2.402 -20.868 4.154 -30.89 3.542 l -6.864 -0.42 l -10.1 5.02 c -5.553 2.76 -10.237 4.8 -10.408 4.533 z m 78.33 -41.797 c 10.294 -5.685 10.294 -19.404 0 -25.09 -7.381 -4.076 -16.11 -1.744 -20.398 5.447 -5.735 9.629 1.492 21.627 13.03 21.627 2.94 0 4.571 -0.439 7.37 -1.985 z m -86.69 19.538 c -5.255 -3.48 -8.174 -5.96 -13.386 -11.371 -6.361 -6.604 -13.572 -19.556 -16.295 -29.27 -1.575 -5.617 -1.776 -7.603 -1.815 -17.886 -0.034 -8.972 0.233 -12.662 1.186 -16.443 1.525 -6.05 5.555 -16.17 7.667 -19.252 0.871 -1.272 2.665 -3.95 3.987 -5.949 9.781 -14.802 30.799 -27.679 49.07 -30.06 3.9 -0.508 4.105 -0.309 2.846 2.763 -0.832 2.03 -2.233 4.985 -10.434 22.01 -1.664 3.454 -5.568 11.783 -8.676 18.508 -5.79 12.531 -8.02 17.195 -10.807 22.564 -2.874 5.545 -4.049 5.199 17.632 5.199 12.447 0 19.22 0.235 19.22 0.666 0 1.618 -18.621 36.35 -19.488 36.35 -0.522 0 -2.718 -2.082 -4.881 -4.627 -2.162 -2.545 -4.311 -4.627 -4.776 -4.627 -0.591 0 -1.09 2.831 -1.66 9.419 -1.877 21.681 -2.36 25.614 -3.145 25.614 -0.435 0 -3.245 -1.625 -6.245 -3.612 z" fill="#fff"/></svg>