<svg xmlns="http://www.w3.org/2000/svg" viewBox="0 0 48 48"><path d="m 36.34 3.5 c 42.25 36.27 -44.621 71.14 -35.695 15.05 c 1.957 -12.301 24.309 -24.824 35.695 -15.05" fill="#9782c1"/><g fill="#fff" stroke="#fff" stroke-width="1.087"><path d="m 99.14 82.68 c -15.313 -0.708 -29.729 10.08 -33.29 25 c -3.958 16.917 -4.625 36.04 3.688 51.792 c 5.979 10.396 17.604 17.08 29.708 15.896 c 6.771 -0.104 14.188 -0.771 19.938 -4.271 c -0.688 -4.208 2.688 -16.708 -5.04 -10.417 c -10.25 6.708 -26.479 5.813 -32.521 -6.06 c -6.583 -13.729 -5.604 -29.917 -2.708 -44.5 c 1.771 -9.604 10.396 -17.333 20.458 -16.521 c 6.792 -0.625 12.792 3.583 18.813 5.458 c 1.813 -3.667 0.625 -8.917 -0.083 -12.625 c -6.04 -2.479 -12.396 -4.063 -18.958 -3.75" transform="matrix(0.1875 0 0 0.1875 -0.195 -0.072)"/><path d="m 134.63 105.91 c -3.063 -0.542 -6.854 1 -4.104 4.563 c 7.583 21.375 14.271 43.21 22.896 64.17 c 4.04 2.938 9.854 0.104 14.458 0.792 c 8.792 -21.667 15.979 -44.583 23.854 -66.854 c 0.813 -4.313 -6.708 -2.02 -9.04 -2.688 c -5.833 0.896 -4.896 10.479 -7.813 14.958 c -4.625 13.271 -8.875 26.667 -13.896 39.771 c -7.688 -17.813 -12.479 -37.15 -19.979 -54.729 c -2.125 0.021 -4.25 -0.021 -6.375 0.021" transform="matrix(0.1875 0 0 0.1875 0.518 -0.607)"/></g></svg>