<svg xmlns="http://www.w3.org/2000/svg" viewBox="0 0 48 48"><path d="m 45.906 32.01 c 9.316 -23.891 -16.789 -36.14 -33.04 -30.05 c -11.344 4.25 -16.996 21.19 -8.941 34.879 c 10.168 17.277 34.801 13.602 41.988 -4.824" fill="#d53e3e"/><path d="m 9.961 14.277 v 19.801 c 0 1.98 1.941 3.961 3.883 3.961 h 19.418 c 1.941 0 3.887 -1.98 3.887 -3.961 v -19.801 c 0 -1.98 -1.945 -3.961 -3.887 -3.961 h -19.418 c -1.941 0 -3.883 1.98 -3.883 3.961 m 3.883 3.961 c 0 -3.961 0 -5.941 3.883 -5.941 h 11.652 c 3.883 0 3.883 1.98 3.883 5.941 v 9.898 c 0 3.961 -1.941 3.961 -5.824 3.961 h -7.77 c -3.883 0 -5.824 0 -5.824 -3.961" fill="#fff"/><path d="m 15.973 18.18 c 0 -2.531 0 -3.797 2.469 -3.797 h 7.406 c 2.469 0 2.469 1.266 2.469 3.797 v 6.324 c 0 2.531 -1.234 2.531 -3.703 2.531 h -4.938 c -2.469 0 -3.703 0 -3.703 -2.531" fill="#f2f2f2"/></svg>