<svg xmlns="http://www.w3.org/2000/svg" viewBox="0 0 48 48"><path d="m 2.48 33.99 c 13.1 26.61 52 11.78 44.59 -15.2 c -6.99 -25.43 -42.54 -24.7 -46.69 -0.05 c -0.86 5.14 -0.31 10.37 2.1 15.24" style="fill:#2f4e4e"/><path d="m 27.7 47.68 c 11.32 -2.28 21.1 -9.69 20.2 -24.39 c -24.73 16.91 -33.3 -13.18 -47.98 -0.11 c 1.84 21.43 17.68 25.78 27.81 24.51" style="fill:#008b8b"/><path d="m 38.2 32.8 c 4.64 -8.29 1.89 -18.88 -6.16 -23.66 c -8 -4.79 -18.33 -1.95 -22.98 6.34 c -4.65 8.29 -1.89 18.88 6.16 23.66 c 8 4.79 18.33 1.95 22.98 -6.34 m -4.55 -2.71 c -2.42 4.31 -6.96 6.79 -11.57 6.32 l -0.43 2.8 l -5.27 -5.63 l 6.83 -4.21 l -0.43 2.94 c 3.04 0.26 5.93 -1.35 7.53 -4.2 c 1.65 -2.95 1.44 -6.64 -0.52 -9.21 l 3.13 -2.59 c 2.94 3.85 3.24 9.38 0.76 13.8 m -2.83 -15.43 l -6.72 4.28 l 0.43 -2.94 c -3 -0.26 -5.99 1.34 -7.58 4.17 c -1.66 2.96 -1.48 6.57 0.46 9.18 l -3.13 2.59 c -2.9 -3.92 -3.19 -9.34 -0.71 -13.77 c 2.41 -4.29 7.1 -6.78 11.63 -6.28 l 0.48 -2.77 l 5.1 5.54" style="fill:#fff"/></svg>