<svg xmlns="http://www.w3.org/2000/svg" viewBox="0 0 48 48"><path d="m 43.45 11.285 c 16.492 24.547 -16.16 49.42 -35.867 29.418 c -18.566 -18.844 0.109 -48.12 23.66 -38.973 c 4.914 1.91 9.18 5.05 12.207 9.555" fill="#ff8c00"/><g fill="#fff"><path d="m 21.01 9.156 c -5.398 0 -9.773 4.137 -9.773 9.238 c 0.004 3.672 2.305 6.992 5.863 8.461 v 10.02 l 3.91 3.695 l 1.953 -1.848 v -9.242 h 1.984 c 0.004 -0.516 0.109 -1.01 0.254 -1.484 l -0.281 -0.27 v -0.871 c 0.391 -0.164 0.77 -0.355 1.137 -0.566 c 0.59 -0.785 1.379 -1.422 2.309 -1.832 c 1.555 -1.68 2.414 -3.832 2.418 -6.066 c 0 -5.102 -4.375 -9.238 -9.773 -9.238 m 0 1.848 c 2.16 0 3.91 1.652 3.91 3.695 c 0 2.043 -1.75 3.695 -3.91 3.695 c -2.16 0 -3.91 -1.652 -3.91 -3.695 c 0 -2.043 1.75 -3.695 3.91 -3.695 m -1.953 16.633 h 1.953 v 7.395 h -1.953"/><path d="m 30.781 25.789 c -2.164 0 -3.91 1.684 -3.91 3.754 v 1.793 h -1.953 v 7.391 h 11.727 v -7.391 h -1.953 v -1.793 c 0 -2.07 -1.742 -3.754 -3.91 -3.754 m 0 1.848 c 1.082 0 1.953 0.816 1.953 1.848 v 1.852 h -3.906 v -1.852 c 0 -1.031 0.871 -1.848 1.953 -1.848"/></g></svg>