<svg xmlns="http://www.w3.org/2000/svg" viewBox="0 0 48 48"><path d="m 40.39 40.39 c -51.52 35.16 -54.29 -67.53 -4.691 -32.574 c 11.305 7.969 18.336 23.262 4.691 32.574" fill="#ff8c00"/><path d="m 15.277 11.512 c -0.598 -0.012 -1.18 0.215 -1.609 0.629 c -0.43 0.414 -0.672 0.98 -0.672 1.57 v 20.11 c 0 0.785 0.426 1.512 1.113 1.906 c 0.691 0.391 1.539 0.391 2.23 0 l 17.648 -10.05 c 0.688 -0.395 1.113 -1.121 1.113 -1.906 c 0 -0.785 -0.426 -1.512 -1.113 -1.906 l -17.648 -10.05 c -0.324 -0.184 -0.688 -0.285 -1.063 -0.297 m 2.457 6.422 l 10.242 5.836 l -10.242 5.84 m 16.594 -1.246 c -0.973 -0.004 -1.934 0.246 -2.777 0.719 c -2.375 1.332 -3.383 4.156 -2.367 6.629 l 2.805 -1.566 c -0.184 -0.957 0.273 -1.922 1.141 -2.406 c 0.234 -0.129 0.488 -0.219 0.754 -0.266 l 0.723 1.211 l 1.246 -0.699 l 2.797 -1.566 c -1.043 -1.285 -2.633 -2.039 -4.32 -2.047 m 5.113 3.363 l -2.801 1.566 c 0.184 0.961 -0.273 1.926 -1.141 2.414 c -0.234 0.129 -0.488 0.219 -0.754 0.266 l -0.723 -1.207 l -1.246 0.695 l -1.488 0.836 l -1.313 0.734 c 1.699 2.094 4.723 2.66 7.102 1.332 c 2.375 -1.336 3.383 -4.16 2.363 -6.633" fill="#fff"/></svg>