<svg xmlns="http://www.w3.org/2000/svg" viewBox="0 0 48 48"><path d="m 42.45 8.734 c 11.684 17.855 2.254 34.12 -10.973 37.977 c -17.789 5.191 -41.945 -8.449 -26.03 -36.563 c 6.324 -11.172 28.676 -14.13 37 -1.414" fill="#fc8600"/><path d="m 11.05 35.602 c -0.824 -0.199 -1.313 -0.598 -1.605 -1.297 c -0.266 -0.633 -0.266 -15.258 0 -16.01 c 0.227 -0.633 0.785 -1.215 1.313 -1.359 c 0.223 -0.063 1.68 -0.113 3.238 -0.113 h 2.836 l 0.223 -0.316 c 0.121 -0.172 0.363 -0.594 0.535 -0.934 c 0.434 -0.863 1.34 -1.785 1.996 -2.039 c 0.477 -0.184 0.957 -0.203 4.438 -0.203 c 3.855 0 3.91 0.004 4.445 0.266 c 0.707 0.348 1.457 1.191 2.059 2.316 l 0.484 0.91 h 2.82 c 1.586 0 3 0.051 3.246 0.117 c 0.57 0.16 1.109 0.629 1.367 1.191 c 0.195 0.434 0.211 0.934 0.211 7.965 c 0 5.07 -0.039 7.645 -0.125 7.957 c -0.156 0.578 -0.582 1.145 -1.055 1.402 c -0.344 0.184 -1.219 0.199 -13.227 0.219 c -7.07 0.008 -13.01 -0.023 -13.199 -0.07 m 14.668 -5.609 c 0.852 -0.328 1.883 -1.27 2.352 -2.152 c 1.512 -2.824 -0.215 -6.262 -3.398 -6.773 c -2.504 -0.402 -4.863 1.32 -5.316 3.879 c -0.387 2.191 1.02 4.441 3.23 5.176 c 0.844 0.277 2.219 0.223 3.133 -0.129" fill="#fff"/><path d="m -2.156 324.79 c -4.896 -1.141 -9.198 -4.049 -12.09 -8.209 l -2.745 -3.865 v -130.61 l 3.19 -4.417 c 5.86 -8.172 5.192 -7.988 35.976 -8.54 l 27.22 -0.479 l 4.673 -8.135 c 5.934 -10.307 10.681 -15.571 16.653 -18.405 c 4.71 -2.245 5.081 -2.282 39.05 -2.282 c 33.973 0 34.31 0.037 39.02 2.282 c 5.971 2.834 10.719 8.098 16.653 18.405 l 4.673 8.135 l 26.741 0.479 c 25.517 0.479 26.889 0.589 30.3 2.65 c 2 1.178 4.896 3.976 6.49 6.221 l 2.856 4.086 v 129.65 l -2.782 4.528 c -1.558 2.466 -4.451 5.485 -6.49 6.7 l -3.672 2.209 l -111.3 0.147 c -61.23 0.11 -112.71 -0.147 -114.42 -0.552 m 225.68 -10.97 c 1.632 -1.583 2.559 -3.865 3 -7.473 c 0.371 -2.834 0.519 -31.657 0.334 -64.05 l -0.297 -58.898 l -2.782 -2.319 l -2.819 -2.319 h -27.594 c -31.859 0 -28.22 1.178 -35.01 -11.522 c -4.673 -8.798 -9.532 -14.688 -13.945 -16.859 c -4.04 -2.025 -65.28 -2.025 -69.32 0 c -4.562 2.245 -9.754 8.614 -14.427 17.596 c -2.448 4.675 -5.04 8.982 -5.823 9.608 c -1 0.81 -9.754 1.215 -29.559 1.399 l -28.15 0.258 l -2.077 2.724 c -2.077 2.687 -2.114 3.129 -2.114 66.08 v 63.39 l 2.782 2.319 l 2.819 2.319 h 222.64 m -118.42 -24.995 c -20.25 -2.908 -37.16 -17.375 -42.17 -36 c -8.382 -30.995 16.17 -61.916 49.18 -61.916 c 27.705 0 50.663 22.2 50.663 48.959 c 0 14.14 -4.414 24.442 -14.91 34.713 c -11.46 11.227 -27.19 16.491 -42.763 14.246 m 19.212 -10.528 c 19.434 -5.816 32.23 -25.731 28.632 -44.541 c -5.155 -26.982 -34.418 -41.34 -59.49 -29.23 c -14.761 7.141 -24.738 24.516 -22.661 39.535 c 3.523 25.584 28.632 41.67 53.52 34.23" transform="matrix(0.10532 0 0 0.10612 12.598 0.202)" fill="#ff8c00" stroke="#fa7039" stroke-width="0.977"/></svg>