<svg xmlns="http://www.w3.org/2000/svg" viewBox="0 0 48 48"><path d="m 3.742 11.855 c 35.836 -41.938 70.29 44.29 14.871 35.426 c -12.152 -1.941 -24.527 -24.12 -14.871 -35.426" fill="#192338"/><g fill="#fff"><path d="m 24.19 10.902 c -7.738 0 -14.01 6.27 -14.01 14 c 0 7.73 6.273 14 14.01 14 c 1.18 -0.004 2.359 -0.16 3.5 -0.465 v -7.996 c 0 -1.129 0.902 -2.039 2.02 -2.039 h 8.03 c 0.301 -1.145 0.457 -2.32 0.461 -3.5 c 0 -7.734 -6.27 -14 -14.01 -14 m -3.504 7.824 l 5.254 3.086 l 5.254 3.094 l -5.254 3.09 l -5.254 3.086 v -6.176" fill-opacity="0.302"/><path d="m 29.441 30.16 v 10.5 h 3.5 v -10.5 m 1.754 0 v 10.5 h 3.5 v -10.5" fill-rule="evenodd"/></g></svg>