<svg xmlns="http://www.w3.org/2000/svg" xmlns:xlink="http://www.w3.org/1999/xlink" viewBox="0 0 256 256"><defs><path d="m 245.46 129.52 l -97.89 -96.9 c -5.556 -5.502 -16.222 -11.873 -23.7 -14.16 l -39.518 -12.08 c -7.479 -2.286 -18.1 0.391 -23.599 5.948 l -13.441 13.578 c -5.5 5.559 -14.502 14.653 -20 20.21 l -13.44 13.579 c -5.5 5.558 -8.07 16.206 -5.706 23.658 l 12.483 39.39 c 2.363 7.456 8.843 18.06 14.399 23.556 l 97.89 96.9 c 5.558 5.502 14.605 5.455 20.1 -0.101 l 36.26 -36.63 c 5.504 -5.559 14.503 -14.651 20 -20.21 l 36.26 -36.629 c 5.502 -5.56 5.455 -14.606 -0.101 -20.11 z m -178.09 -50.74 c -7.198 0 -13.03 -5.835 -13.03 -13.03 0 -7.197 5.835 -13.03 13.03 -13.03 7.197 0 13.03 5.835 13.03 13.03 -0.001 7.198 -5.836 13.03 -13.03 13.03 z" id="0"/><use id="1" xlink:href="#0"/><clipPath id="2"><use xlink:href="#0"/></clipPath><clipPath clip-path="url(#2)"><use xlink:href="#1"/></clipPath><clipPath clip-path="url(#2)"><use xlink:href="#1"/></clipPath><filter id="3"><feGaussianBlur stdDeviation="0.11"/></filter><linearGradient xlink:href="#8" id="B" gradientUnits="userSpaceOnUse" x1="40.956" y1="42.22" x2="14.793" y2="35.15"/><linearGradient y2="35.763" x2="22.504" y1="16.268" x1="19.12" gradientUnits="userSpaceOnUse" id="C"><stop stop-color="#a6a8a4"/><stop offset="1" stop-color="#888a84"/></linearGradient><linearGradient gradientUnits="userSpaceOnUse" y2="40.39" x2="13.357" y1="36.18" x1="37.857" id="E"><stop stop-color="#babdb6"/><stop offset="1" stop-color="#eeeeec"/></linearGradient><linearGradient gradientUnits="userSpaceOnUse" y2="30.814" x2="15.526" y1="9.777" x1="17.24" id="A"><stop stop-color="#d3d7cf"/><stop offset="1" stop-color="#d3d7cf" stop-opacity="0.38"/></linearGradient><linearGradient y2="13.843" x2="39.778" y1="15.358" x1="24.5" gradientUnits="userSpaceOnUse" id="D"><stop stop-color="#f5f5f4"/><stop offset="1" stop-color="#d3d7cf"/></linearGradient><linearGradient id="8"><stop stop-color="#fff"/><stop offset="1" stop-color="#fff" stop-opacity="0.179"/></linearGradient><linearGradient gradientUnits="userSpaceOnUse" y2="28.14" x2="33.892" y1="21.571" x1="29.75" id="4" xlink:href="#6"/><linearGradient id="6"><stop stop-color="#d3d7cf"/><stop offset="1" stop-color="#d3d7cf" stop-opacity="0"/></linearGradient><linearGradient xlink:href="#8" id="5" gradientUnits="userSpaceOnUse" x1="27.739" y1="38.38" x2="14.655" y2="6.964"/><linearGradient gradientUnits="userSpaceOnUse" y2="34.652" x2="0" y1="29.31" id="7" xlink:href="#6"/><linearGradient gradientUnits="userSpaceOnUse" y2="36" x2="13.357" y1="42.86" x1="8.122" id="9"><stop stop-color="#babdb6"/><stop offset="1" stop-color="#9a9c97" stop-opacity="0"/></linearGradient><radialGradient gradientUnits="userSpaceOnUse" gradientTransform="matrix(0.50204 0.06472 -0.57187 4.43594 19.879 -72.31)" r="2.5" cy="20.443" cx="11.97" id="F"><stop stop-color="#25e9eb"/><stop offset="1" stop-color="#5ccbe5"/></radialGradient></defs><g fill="#808080" color="#000"><path d="m 128.42 795.13 c 168.87 -19.553 166.53 260.33 -3.01 257.01 -157.67 9.224 -171.9 -272.26 3.01 -257.01 z" transform="matrix(0 1 -0.98305 0 1035.6 1.093)"/></g><g transform="matrix(3.75862 0 0 3.17944 44.21 51.36)"><g fill-rule="evenodd"><path d="M 5,42 19,38.575404 35,38 43,39 16.474618,46.404061 7.4746186,44 5,42 z" opacity="0.272" filter="url(#3)"/><path d="m 6.5,34.5 -1,7 9,3 25,-6 L 40,33 37,31 6.5,34.5 z" fill="url(#E)" stroke="#848680"/><path d="m 11.5,3.5 7,-1 23,9 -2,21 -24.5,4 -7.5,-2 4,-31 z" fill="url(#D)" stroke="url(#C)" stroke-linejoin="round" stroke-linecap="round"/><path d="M 39.5,15 38,31.5 20,34 20.5,28.5 c 6,-1.5 13,-10 19,-13.5 z" fill="url(#4)"/><path d="m 16,7 c 0.554,0 1,0.446 1,1 l -3,23 c 0,0.554 -0.446,1 -1,1 -0.554,0 -1,-0.446 -1,-1 L 15,8 c 0,-0.554 0.446,-1 1,-1 z" fill="url(#F)"/></g><path d="m 10.5,13.5 2,0 -1.5,11 -2,0" fill="none" stroke="#babdb6" stroke-linejoin="round"/><g fill-rule="evenodd"><g fill="#babdb6"><path d="m 8.714 28.886 l 1.971 0.164 l -0.297 2 l -1.945 -0.164"/><path d="m 11.277 9.08 l 2.204 -0.101 l -0.284 1.994 l -2.16 0.101"/><path d="m 11.657 6.133 l 2.255 -0.183 l -0.278 2 l -2.223 0.177"/></g><path d="m 19.848 27 l -0.899 7.101 l -3.051 0.551 l 0.601 -5.652 c 1.324 0.297 2.218 -2.01 3.348 -2 z" fill="url(#7)"/><path d="m 6.05 41.15 l 8.449 2.848 l 0.5 -6.982 l -8.05 -2.155 l -0.899 6.288 z" fill="url(#9)"/></g><g fill="none"><g stroke-linecap="round"><path transform="translate(-0.125 0.031)" d="m 18.375 3.531 l -5.969 0.875 l -3.781 29.344 l 6.406 1.719 l 23.531 -3.844 l 1.875 -19.469 l -22.06 -8.625 z" stroke="url(#5)" stroke-linejoin="round"/><path d="m 6.556 40.854 l 7.944 2.646 l 24.05 -5.798 l 0.404 -4.146" opacity="0.364" stroke="url(#B)"/></g><path d="M 18.473165,4 15,35" stroke="url(#A)"/></g><g fill="#a2a49f" stroke="#a2a49f"><g transform="matrix(0.26605 0 0 0.31452 -11.763 -16.15)"><path d="m 88.36 159.7 c -0.549 -0.084 -0.564 -0.124 -0.623 -1.683 l -0.06 -1.597 l -0.651 1.378 c -0.592 1.253 -0.7 1.369 -1.186 1.276 -0.411 -0.079 -0.617 -0.325 -0.889 -1.066 -0.195 -0.53 -0.501 -1.291 -0.681 -1.691 l -0.328 -0.727 l -0.064 1.528 c -0.061 1.461 -0.084 1.522 -0.522 1.405 -0.252 -0.067 -0.528 -0.124 -0.614 -0.126 -0.086 -0.002 -0.156 -1.037 -0.156 -2.302 0 -2.092 0.033 -2.289 0.364 -2.191 0.2 0.059 0.611 0.167 0.913 0.239 0.463 0.11 0.64 0.383 1.12 1.724 0.314 0.876 0.649 1.68 0.745 1.786 0.1 0.111 0.452 -0.423 0.824 -1.246 0.357 -0.792 0.666 -1.458 0.686 -1.481 0.02 -0.023 0.43 0.059 0.912 0.181 l 0.876 0.222 v 2.26 c 0 1.243 -0.023 2.246 -0.052 2.229 -0.029 -0.017 -0.305 -0.07 -0.615 -0.117 z" stroke-width="0.136"/><g stroke-width="0.111"><path d="m 90.87 160.28 c -0.254 -0.066 -0.296 -0.292 -0.296 -1.596 0 -1.438 0.018 -1.514 0.338 -1.423 l 0.675 0.192 c 0.303 0.086 0.338 0.24 0.338 1.52 0 1.535 -0.032 1.575 -1.055 1.308 z"/><path d="m 91.04 156.56 c -0.399 -0.06 -0.464 -0.149 -0.464 -0.632 v -0.562 l 0.675 0.171 c 0.592 0.15 0.675 0.232 0.675 0.658 0 0.29 -0.085 0.476 -0.211 0.461 -0.116 -0.014 -0.42 -0.057 -0.675 -0.096 z"/><path d="m 93.96 157.21 c -0.322 -0.089 -0.435 -0.246 -0.476 -0.665 -0.051 -0.523 -0.032 -0.543 0.422 -0.434 0.69 0.165 0.729 0.205 0.729 0.753 0 0.524 -0.011 0.53 -0.675 0.347 z"/></g></g><path d="m 13.156 34.522 c -0.096 -0.022 -0.101 -0.047 -0.101 -0.504 0 -0.472 0.002 -0.48 0.101 -0.448 0.056 0.018 0.126 0.032 0.157 0.033 0.041 0.001 0.056 0.132 0.056 0.479 0 0.351 -0.015 0.476 -0.056 0.471 -0.031 -0.004 -0.102 -0.018 -0.157 -0.03 z" stroke-width="0.032"/></g></g></svg>