<svg xmlns="http://www.w3.org/2000/svg" viewBox="0 0 256 256"><defs><clipPath><path d="m -24 13 c 0 1.105 -0.672 2 -1.5 2 -0.828 0 -1.5 -0.895 -1.5 -2 0 -1.105 0.672 -2 1.5 -2 0.828 0 1.5 0.895 1.5 2 z" transform="matrix(15.33333 0 0 11.5 415 -125.5)"/></clipPath></defs><g fill="#01a5bc"><path d="M 204.11,26.52 C 415.06,211.44 -92.34,398.44 15.15,97.13 41.92,22.09 132.75,-36.04 204.11,26.52" transform="matrix(0.16344 -0.98777 1.0056 0 -20.02 254.43)"/></g><g fill="#444"><path d="m 82.44 178.73 c -0.387 -0.597 -0.649 -35.64 -0.304 -40.677 0.223 -3.261 0.368 -3.874 0.994 -4.208 1.114 -0.594 16.12 -0.858 22.295 -0.392 4.706 0.356 5.667 0.542 7.452 1.446 3.739 1.893 5.726 6.11 5.731 12.164 0.004 4.26 -0.708 5.92 -4.073 9.492 -2.42 2.569 -2.489 2.695 -2.281 4.193 0.118 0.85 1.576 5.03 3.241 9.282 1.665 4.256 2.94 7.966 2.833 8.244 -0.107 0.279 -0.815 0.622 -1.572 0.764 -1.773 0.332 -8.335 -0.054 -8.799 -0.517 -0.195 -0.195 -1.752 -3.723 -3.458 -7.841 -1.707 -4.118 -3.374 -7.899 -3.704 -8.402 -0.571 -0.869 -0.783 -0.915 -4.262 -0.915 h -3.661 l -0.265 7.336 c -0.347 9.617 -0.401 9.856 -2.284 10.19 -2.564 0.454 -7.548 0.352 -7.88 -0.16 z m 22.277 -26.17 c 1.339 -0.598 1.89 -1.127 2.515 -2.414 1.264 -2.603 1.08 -4.338 -0.699 -6.581 l -1.499 -1.891 h -6.088 h -6.088 l -0.182 4.398 c -0.227 5.487 -0.063 6.703 0.964 7.145 0.435 0.188 2.72 0.289 5.077 0.225 3.342 -0.091 4.662 -0.285 5.999 -0.882 z"/><path d="m 126.94 178.45 c -0.604 -0.371 -0.649 -1.452 -0.612 -14.59 0.022 -7.804 0.148 -15.192 0.279 -16.418 l 0.239 -2.229 l 2.794 -0.215 c 6.377 -0.492 6.116 -1.087 6.273 14.313 0.125 12.248 -0.079 17.799 -0.689 18.784 -0.41 0.662 -7.306 0.958 -8.285 0.356 z"/><path d="m 143.87 187.15 c -0.124 -0.46 -0.227 -10.326 -0.23 -21.925 l -0.006 -21.09 l 0.956 -0.362 c 1.265 -0.48 5.981 -0.464 6.893 0.022 0.396 0.211 0.721 0.597 0.721 0.858 0 0.26 0.236 0.795 0.525 1.189 0.509 0.694 0.577 0.678 2.222 -0.499 2.572 -1.841 4.048 -2.318 7.303 -2.36 2.535 -0.033 3.177 0.096 4.584 0.918 4.769 2.786 6.962 7.954 6.964 16.412 0.002 6.395 -1.151 10.155 -4.088 13.331 -3.226 3.489 -7.999 4.476 -12.819 2.65 -1.83 -0.694 -2.65 -0.853 -2.837 -0.551 -0.231 0.373 -0.467 2.166 -1.354 10.293 l -0.213 1.95 h -4.198 c -4.04 0 -4.207 -0.032 -4.423 -0.836 z m 16.942 -17.1 c 1.703 -1.142 2.554 -3.092 3.047 -6.986 0.717 -5.662 -0.535 -11.553 -2.79 -13.13 -1.069 -0.746 -3.367 -0.745 -4.817 0.002 -0.769 0.397 -1.443 1.259 -2.104 2.693 -0.829 1.798 -0.996 2.761 -1.133 6.525 -0.194 5.326 0.27 7.734 1.862 9.659 1.868 2.259 3.806 2.662 5.936 1.234 z"/></g><g fill="#fff"><path d="m 144.39 137.47 c -1.089 -0.17 -2.094 -0.423 -2.234 -0.562 -0.417 -0.416 -0.533 -23.783 -0.143 -28.909 0.199 -2.616 0.479 -4.873 0.622 -5.01 3.112 -0.079 6.739 -0.82 9.553 0.719 l -0.114 16.487 c -0.077 11.08 -0.245 16.617 -0.513 16.884 -0.544 0.542 -4.75 0.774 -7.17 0.396 z"/><path d="m 165.49 136.42 c -4.02 -2.07 -6.296 -6.202 -7.178 -13 -0.973 -7.509 1.424 -14.82 6.06 -18.47 2.643 -2.082 4.04 -2.379 9.714 -2.066 5.663 0.312 5.35 0.576 5.715 -4.822 0.137 -2.031 0.437 -4.436 0.667 -5.344 l 0.417 -1.652 l 3.934 0.254 c 2.164 0.139 4.01 0.325 4.092 0.411 0.507 0.505 0.831 16.515 0.603 29.814 l -0.262 15.333 l -4.52 -0.104 c -4.282 -0.099 -4.54 -0.148 -4.888 -0.94 -0.489 -1.111 -1.016 -1.057 -3.49 0.354 -1.799 1.026 -2.523 1.21 -5.262 1.337 -3.01 0.14 -3.299 0.084 -5.598 -1.101 z m 10.843 -6.723 c 2.33 -1.547 2.756 -3.02 2.756 -9.56 0 -7.903 -0.992 -10.401 -4.131 -10.401 -2.982 0 -5.066 3.807 -5.587 10.204 -0.386 4.739 0.821 8.511 3.198 9.995 1.291 0.806 2.285 0.743 3.764 -0.239 z"/><path d="m 143.1 98.39 c -0.892 -0.889 -0.928 -1.302 -0.377 -4.329 0.681 -3.742 0.861 -3.876 5.205 -3.876 3.68 0 3.731 0.012 4.099 0.976 0.205 0.537 0.468 2.166 0.584 3.622 0.312 3.893 0.078 4.1 -4.823 4.257 -3.562 0.115 -3.979 0.057 -4.688 -0.65 z"/><path d="m 64.63 136.9 c -1.807 -0.231 -1.859 -0.272 -1.735 -1.353 0.377 -3.287 10.491 -34.477 13.14 -40.526 l 1.482 -3.381 c 4.576 0.083 8.764 -1.707 11.797 -0.016 0.589 0.737 2.684 6.778 7.953 22.937 2.698 8.274 4.703 15.394 5.507 17.34 -4.74 -0.303 -6.736 -0.252 -11.923 0.042 l -1.098 -2.616 c -0.641 -1.528 -1.333 -1.665 -7.612 -1.715 -4.899 -0.039 -6.271 0.245 -6.952 1.436 -0.175 0.306 -0.922 2.024 -1.661 3.816 -0.739 1.792 -1.626 3.41 -1.972 3.595 -0.896 0.478 -4.734 0.723 -6.927 0.442 z m 19.703 -18.812 c 1.728 -0.112 1.419 -0.468 1.233 -2.029 -0.271 -2.28 -2.544 -9.03 -3.099 -9.201 -0.494 -0.153 -1.956 3.355 -3.104 7.447 -1.186 4.229 -0.579 4.691 4.969 3.783 z"/><path d="m 119.06 138 c -5.929 -4.462 -7.08 -6.646 -13.185 -6.714 l -0.712 -3.569 c -0.458 -2.298 -1.426 -7.315 -1.159 -10.02 0.528 -5.35 1.877 -8.248 5.495 -11.795 3.893 -3.818 7.307 -5.04 13.164 -4.727 3.741 0.202 6.882 1.673 9.553 4.472 2.076 2.176 3.725 5.441 3.551 7.03 -1.608 2.56 -5.352 2.427 -8.779 2.475 l -0.946 -2.287 c -1.582 -3.823 -3.357 -4.692 -6.517 -3.188 -1.967 0.936 -2.844 2.841 -3.501 7.605 -0.5 3.626 -0.152 6.809 1.031 9.422 1.721 3.802 7 2.917 9.749 -1.636 0.978 -1.62 1.091 -1.686 2.906 -1.699 1.039 -0.007 2.757 0.256 3.819 0.587 2.263 0.704 2.21 0.439 1.384 6.983 -8.576 4.953 -9.529 8.299 -15.854 7.06 z"/></g><path d="m 127.87 141.43 c -0.714 -0.101 -1.378 -0.483 -1.618 -0.93 -0.525 -0.978 -0.302 -7.552 0.276 -8.127 0.691 -0.687 7.918 -0.549 8.635 0.166 1.124 1.121 1.022 8.094 -0.125 8.533 -0.794 0.304 -5.787 0.554 -7.167 0.359 z" fill="#444"/></svg>