<svg xmlns="http://www.w3.org/2000/svg" viewBox="0 0 256 256"><path d="m 193.83 815.03 c 225.34 193.41 -237.98 379.39 -190.37 80.26 10.438 -65.59 129.65 -132.38 190.37 -80.26 z" fill="#ffdead" color="#000" transform="translate(0 -796.36)"/><g transform="matrix(2.69266 0 0 2.72866 45.723 55.05)" fill="#ff8c00" stroke="#ff8c00" stroke-width="3.5"><path d="m 7.291 7.833 h 10 v 10 h -10 z"/><path fill="#ffdead" d="m 22.625 7.833 h 10 v 10 h -10 z"/><path d="m 37.38 7.833 h 10 v 10 h -10 z"/><path d="m 7.291 22.75 h 10 v 10 h -10 z"/><path d="m 22.625 22.75 h 10 v 10 h -10 z"/><g fill="#ffdead"><path d="m 37.38 22.75 h 10 v 10 h -10 z"/><path d="m 7.291 37.625 h 10 v 10 h -10 z"/><path d="m 22.625 37.625 h 10 v 10 h -10 z"/><path d="m 37.38 37.625 h 10 v 10 h -10 z"/></g></g></svg>