<svg xmlns="http://www.w3.org/2000/svg" viewBox="0 0 256 256"><defs><clipPath><circle cx="128" cy="924.36" r="128" fill="#b40000"/></clipPath><clipPath><circle r="128" cy="924.36" cx="112" fill="#009fe0" stroke-width="2.05"/></clipPath><clipPath><circle cx="128" cy="924.36" r="128" fill="#ff3b38"/></clipPath><clipPath><circle r="128" cy="924.36" cx="128" fill="#009fe0" stroke-width="2.05"/></clipPath><clipPath><circle cx="128" cy="924.36" r="128" fill="#900"/></clipPath><clipPath><circle cx="102.65" cy="924.36" r="128" fill="#80b4ff"/></clipPath><clipPath><circle cx="128" cy="924.36" r="128" fill="#557ae6"/></clipPath><clipPath><circle cx="128" cy="924.36" r="128" fill="#ff3b38"/></clipPath><clipPath><circle cx="128" cy="924.36" r="128" fill="#0f9d58"/></clipPath><clipPath><circle cx="128" cy="924.36" r="128" fill="#0f9d58"/></clipPath><clipPath><path d="m 88.12 249.44 c -42.02 -14.14 -73.35 -47.748 -83.985 -90.07 -2.796 -11.124 -3.211 -15.198 -3.208 -31.471 0.002 -10.417 0.209 -15.875 0.732 -19.348 2.808 -18.628 10.519 -37.903 21.385 -53.45 c 3.959 -5.666 8.345 -10.931 9.102 -10.926 0.328 0.002 10.489 18.31 22.579 40.683 12.09 22.373 22.375 41.33 22.854 42.14 0.479 0.802 0.925 2.441 0.99 3.643 0.343 6.316 2.524 14.21 5.642 20.423 2.954 5.887 5.065 8.733 10.435 14.07 6.714 6.67 12.889 10.286 21.732 12.729 3.166 0.874 5.105 1.05 11.575 1.05 8.826 0 12.602 -0.762 19.264 -3.887 2.046 -0.96 3.937 -1.665 4.202 -1.568 0.265 0.097 -11.06 17.665 -25.16 39.04 l -25.639 38.861 l -3.094 0.112 c -2.555 0.093 -4.195 -0.258 -9.409 -2.01 z" transform="translate(0 796.36)"/><path d="m 112.36 1051.52 c -10 -1.449 -12.156 -1.82 -12.532 -2.156 -0.249 -0.222 1.738 -3.747 4.55 -8.07 7.166 -11.02 49.772 -74.65 50.26 -75.05 3.575 -2.992 8.635 -8.04 10.575 -10.554 3.362 -4.353 7.558 -12.914 9.07 -18.494 6.193 -22.925 -2.593 -47.15 -21.7 -59.837 l -2.961 -1.966 l 17.02 0.296 c 9.364 0.163 31.17 0.434 48.46 0.603 l 31.435 0.307 l 1.546 4.189 c 2.246 6.086 4.678 15.09 5.935 21.982 1.525 8.36 1.925 28.859 0.739 37.828 -3.081 23.278 -12.813 45.72 -27.802 64.11 -20.476 25.12 -51.46 42.2 -84.15 46.39 -5.312 0.681 -26.646 0.986 -30.446 0.436 z"/><path d="m 67.99 108.87 c -26.706 -49.3 -34.7 -63.724 -35.756 -64.53 -0.582 -0.443 0.578 -1.795 6.462 -7.529 14.74 -14.365 30.11 -23.775 49.14 -30.08 13.848 -4.588 24.743 -6.299 40.11 -6.299 c 21.31 0 37.805 3.81 56.835 13.13 25.294 12.383 46.19 33.579 58.52 59.35 1.611 3.369 2.93 6.372 2.93 6.675 0 0.56 -10.549 0.495 -71.17 -0.437 l -24.288 -0.374 l -3.931 -1.764 c -6.757 -3.033 -10.646 -3.84 -18.658 -3.868 -5.03 -0.018 -7.979 0.208 -10.316 0.788 -14.508 3.604 -26.28 12.948 -33.29 26.419 -3.585 6.891 -5.247 13.08 -6.332 23.583 l -0.337 3.267 l -9.927 -18.326 z" transform="translate(0 796.36)"/></clipPath><clipPath><circle cx="128" cy="924.36" r="128" fill="#0f9d58"/></clipPath><clipPath><circle cx="127" cy="930.44" r="128" fill="#9d5fad"/></clipPath><clipPath><circle cx="128" cy="933.49" r="128" fill="#4285f4"/></clipPath><clipPath><circle cx="128" cy="924.36" r="128" fill="#4285f4"/></clipPath><clipPath><circle cx="128" cy="924.36" r="128" fill="#4285f4"/></clipPath><clipPath><circle cx="128" cy="128" r="128" fill="#292929" fill-opacity="0.26"/></clipPath><clipPath><circle cx="128" cy="924.36" r="128" fill="#4285f4"/></clipPath></defs><path d="m 125.73 798.56 c -111.92 -22.351 -154.42 130.95 -105.92 214.2 38.644 66.33 171.02 47.37 220.37 -42.17 49.35 -89.54 -24.617 -154.09 -114.45 -172.03 z" transform="translate(0 -796.36)" fill="#009fe0" color="#000"/><path d="m 33.805 816.4 c -2.458 -0.001 -2.499 0.364 -0.476 4.274 2.938 5.682 20.253 21.752 28.887 26.812 3.797 2.225 6.599 4.347 6.226 4.72 -0.819 0.819 -12.181 -4.817 -18.06 -8.963 -5.264 -3.709 -6.481 -2.731 -3.582 2.875 2.873 5.556 5.846 8.166 16.804 14.759 9.249 5.565 9.274 7.07 0.047 3.213 -4.682 -1.954 -5.242 -1.93 -5.242 0.184 0 4.153 11.01 13.591 19.279 16.527 9.07 3.22 10.433 5.34 2.629 4.074 -2.957 -0.48 -5.289 -0.209 -5.289 0.6 0 2.558 6.636 7.587 12.468 9.455 6.805 2.179 7.429 3.691 1.138 2.767 -2.494 -0.366 -4.535 -0.468 -4.535 -0.231 0 0.238 1.835 2.121 4.074 4.197 3.756 3.483 3.879 3.988 1.676 6.488 -4 4.543 -9.687 17.02 -21 46.03 -10.619 27.23 -13.224 36.594 -11.438 41.25 1.307 3.407 3.378 2.878 7.06 -1.799 2.936 -3.733 3.395 -3.875 4.72 -1.506 2.086 3.727 4.675 3.265 9.424 -1.691 2.275 -2.375 6.782 -5.117 10.02 -6.088 10.01 -2.998 16.05 -14.921 17.711 -34.945 l 0.938 -11.33 l 10.7 -5.289 c 12.486 -6.174 27.364 -20.15 32.28 -30.32 1.801 -3.72 4.702 -12.474 6.442 -19.463 3.966 -15.935 7.413 -22.75 14.467 -28.564 5.394 -4.446 7.724 -5.096 30.06 -8.409 2.494 -0.37 -2.356 -0.332 -10.762 0.079 -13.952 0.681 -16.08 0.41 -24.506 -3.136 -9.708 -4.086 -18.13 -4.935 -23.01 -2.321 -4.465 2.389 -8.978 12.572 -8.978 20.278 0 5.091 -0.578 6.872 -2.26 6.872 -1.247 0 -2.275 -0.885 -2.275 -1.968 0 -3.243 -11.555 -26.14 -17.895 -35.452 -6.405 -9.405 -11.826 -14.97 -13.221 -13.575 -0.483 0.483 -0.063 4.81 0.938 9.624 1.326 6.386 1.352 8.907 0.123 9.316 -2.546 0.849 -2.023 6.887 1.322 15.374 1.65 4.187 2.696 7.61 2.321 7.61 -0.375 0 -7.333 -4.321 -15.466 -9.609 c -36.4 -23.665 -51.25 -32.714 -53.746 -32.715 z m 119.81 31.05 c 1.177 -0.125 2.275 0.564 2.275 2.183 0 1.235 -1.253 2.488 -2.783 2.783 -2.02 0.389 -2.649 -0.225 -2.26 -2.245 0.318 -1.654 1.59 -2.596 2.767 -2.721 z" transform="translate(15.186 -770.33)" fill="#fff" stroke-width="16.13"/></svg>