<svg xmlns="http://www.w3.org/2000/svg" viewBox="0 0 256 256"><defs><clipPath><path d="M 0,64 H64 V128 H0 z"/></clipPath></defs><g fill="#90a5c6" color="#000"><path d="m -1364.44 1637.2 c 46.11 -98.28 -115.29 -141.94 -177.55 -101.93 -62.25 40.01 -83.52 108.58 -13.01 143.08 70.51 34.501 139.38 67.53 185.49 -30.762 z" transform="matrix(0.95802 -0.34548 -0.47187 -1.20264 2304.19 1564.67)"/></g><g transform="matrix(5.69481 0 0 5.98577 -10.574 -15.578)"><path d="m 24.5 13 c -0.277 0 -0.5 0.223 -0.5 0.5 v 0.5 h -3.5 c -0.277 0 -0.5 0.223 -0.5 0.5 0 0.277 0.223 0.5 0.5 0.5 h 3.5 v 1 h -1 l -1 5 v 1 h -1 v -2 h -1 v 2 h -1 v 1.334 l -6 0.666 v 5 l 2 1 l 7 -2 l 0.924 4.154 l -5.924 0.846 v 3 l 1 1 h 5 l 0.818 -0.818 l 0.182 0.818 h 2 l 0.182 -0.818 l 0.818 0.818 h 5 l 1 -1 v -3 l -5.924 -0.846 l 0.924 -4.154 l 7 2 l 2 -1 v -5 l -6 -0.666 v -1.334 h -1 v -2 h -1 v 2 h -1 v -1 l -1 -5 h -1 v -1 h 3.5 c 0.277 0 0.5 -0.223 0.5 -0.5 0 -0.277 -0.223 -0.5 -0.5 -0.5 h -3.5 v -0.5 c 0 -0.277 -0.223 -0.5 -0.5 -0.5 z" opacity="0.1"/><path d="M 23.5,12 C 23.223,12 23,12.223 23,12.5 v 3 c 0,0.277 0.223,0.5 0.5,0.5 h 1 c 0.277,0 0.5,-0.223 0.5,-0.5 v -3 C 25,12.223 24.777,12 24.5,12 h -1 z M 23,31 16,32 v 3 l 1,1 h 5 l 1,-1 v -4 z m 2,0 v 4 l 1,1 h 5 l 1,-1 v -3 l -7,-1 z" fill="#bf160b"/><rect rx="0.088" paint-order="stroke fill markers" height="1" width="10" y="13" x="19" ry="0.084" fill="#808080" stroke-width="1.118"/><path d="m 23 31 l -0.322 0.047 l 0.322 1.453 v -1.5 z m 2 0 v 4 l 1 1 h 0.223 l 1.039 -4.678 l -2.262 -0.322 z" opacity="0.1"/><path d="m 22,15 -1,5 v 7 l 2,9 h 2 l 2,-9 v -7 l -1,-5 h -4 z" fill="#e61a0d"/><rect rx="0.176" paint-order="stroke fill markers" height="5" width="2" y="25" x="23" ry="0.167" fill="#1bcee4"/><path paint-order="stroke fill markers" d="m 19 19 v 2 h -1 v 5 h 3 v -5 h -1 v -2 h -1 z m 9 0 v 2 h -1 v 5 h 3 v -5 h -1 v -2 h -1 z" fill="#436799"/><path d="m 25,22 c -0.745,0 -3,1 -3,1 l -1,0.111 V 27 L 21.27,28.209 22,28 c 0,0 1,-2 3,-2 0.852,0 1.511,0.366 2,0.783 V 22.59 C 26.282,22.304 25.44,22 25,22 z" opacity="0.1"/><path d="m 24,21 c -0.74536,0 -3,1 -3,1 l -9,1 v 5 l 2,1 7,-2 c 0,0 1,-2 3,-2 2,0 3,2 3,2 l 7,2 2,-1 v -5 l -9,-1 c 0,0 -2.2546,-1 -3,-1 z" fill="#f23328"/><path d="m 14 25 v 4 l 1 -0.285 v -2.715 h 5 v 1.285 l 1 -0.285 v -2 h -7 z m 13 0 v 2 l 1 0.285 v -1.285 h 5 v 2.715 l 1 0.285 v -4 h -7 z m -9 8 v 3 h 1 v -2 h 2 v 2 h 1 v -3 h -4 z m 8 0 v 3 h 1 v -2 h 2 v 2 h 1 v -3 h -4 z" opacity="0.2"/></g></svg>