<svg xmlns="http://www.w3.org/2000/svg" viewBox="0 0 256 256" xmlns:xlink="http://www.w3.org/1999/xlink"><defs><path id="0" d="m 150.63 105.37 a 5.255 4.087 0 1 1 -10.509 0 5.255 4.087 0 1 1 10.509 0 z"/><clipPath><path d="m -24 13 c 0 1.105 -0.672 2 -1.5 2 -0.828 0 -1.5 -0.895 -1.5 -2 0 -1.105 0.672 -2 1.5 -2 0.828 0 1.5 0.895 1.5 2 z" transform="matrix(15.33333 0 0 11.5 415 -125.5)"/></clipPath></defs><g color="#000"><path d="M 225.57,1004.7 C 287.88,909.48 237.6,822.73 167.06,802.15 72.17,774.466 -56.66,847.22 28.23,997.16 c 33.741,59.59 152.95,75.37 197.34,7.545 z" transform="matrix(-1 0 0 1 255.19 -794.19)" fill="#fd8600"/></g><g transform="matrix(0.79875 0 0 0.82835 29.727 20.527)"><path d="m 147.37 251.44 c -7.05 -2.434 -9.245 -4.577 -9.258 -9.03 -0.006 -1.977 -0.722 -5.845 -1.591 -8.595 -0.869 -2.75 -1.734 -8.911 -1.922 -13.69 -0.485 -12.336 -0.858 -12.81 -10.08 -12.81 -10.945 0 -11.399 0.402 -11.399 10.09 0 4.41 -0.663 11.03 -1.473 14.715 -0.81 3.684 -1.598 8.497 -1.75 10.697 -0.26 3.748 -0.619 4.173 -5.706 6.75 -5.755 2.915 -10.888 3.533 -12.871 1.55 -2.024 -2.024 -1.381 -3.692 3.388 -8.79 l 4.588 -4.905 l 0.699 -12.803 c 0.384 -7.04 1.015 -13.314 1.401 -13.939 -1.084 -17.929 -4.57 -45.03 -21.96 -45.671 -2.099 0.444 -7.641 0.8 -12.316 0.79 -7.095 -0.015 -9.45 -0.46 -14.25 -2.695 -7.796 -3.63 -7.395 -5.781 1.082 -5.793 6.23 -0.009 11.447 -2.038 15.396 -5.987 4.641 -4.641 5.124 -7.646 1.023 -6.366 -1.513 0.472 -6.125 0.856 -10.25 0.853 -5.685 -0.004 -8.321 -0.488 -10.894 -2 -6.105 -3.587 -6.133 -4.765 -0.242 -10.06 9.639 -8.667 13.771 -20.301 14.817 -41.722 l 0.624 -12.789 l -3.653 -3.346 c -4.761 -4.361 -4.8 -7.494 -0.153 -12.279 2.223 -2.289 3.5 -4.576 3.5 -6.269 0 -8.883 6.473 -21.44 15.299 -29.679 10.898 -10.173 23.311 -14.821 42.712 -15.993 19.847 -1.198 35.31 3.762 46.38 14.876 8.238 8.269 14.553 21.648 14.594 30.92 0.008 1.85 1.132 3.552 3.712 5.621 3.084 2.474 3.7 3.594 3.7 6.726 0 3.585 -2.158 6.586 -5.549 7.716 -0.828 0.276 -0.825 2.891 0.013 9.999 1.515 12.845 1.422 22.329 -0.329 33.785 -1.644 10.751 -4.674 20.435 -7.869 25.15 -3.117 4.6 -4.483 4.646 -4.852 0.162 l -0.314 -3.812 l -3.128 5.5 c -1.72 3.03 -4.083 6.357 -5.25 7.405 -1.167 1.048 -5.513 3.834 -5.513 4.478 -8.489 13.627 -17.463 34.602 -11.437 50.994 0.564 1.443 1.365 8.132 1.78 14.865 l 0.754 12.242 l 4.647 4.328 c 4.996 4.652 5.919 7.937 2.713 9.653 -2.472 1.323 -2.571 1.313 -8.818 -0.845 z" fill="#f8c664"/><path d="m 121.49 127.16 c -0.713 -0.757 0.961 -0.997 1.444 -1.771 0 -1.028 -1.149 -1.633 -6.385 -3.363 -6.813 -2.251 -10.967 -4.27 -16.702 -8.116 -3.278 -1.366 -3.887 -5.645 -7.214 -6.1 -1.683 -0.543 -1.822 -2.836 -2.639 -4.07 -2.306 -3.477 -4.546 -7.527 -6.32 -11.425 -1.895 -2.803 -2.638 -5.083 -3.234 -6.462 -0.173 -0.334 -0.936 -1.265 -1.695 -2.069 -3.411 -3.609 -3.879 -5.02 -2.541 -7.675 0.664 -1.317 2.861 -3.927 3.972 -4.718 l 0.56 -0.399 c 0.125 1.214 0.331 2.883 1.401 2.495 0.358 -0.274 1.792 -1.537 3.187 -2.807 3.73 -3.397 6.3 -5.261 9.05 -6.561 3.605 -1.707 3.496 -0.994 -0.478 3.133 -3.03 3.143 -3.302 3.945 -1.358 3.945 1.713 0 3.935 -0.796 8.924 -3.197 1.862 -0.896 1.278 -0.906 2.96 -2.064 l 3.444 -2.37 l -0.673 2.945 c -0.097 0.424 0.634 0.622 0.812 0.621 0.656 -0.004 2.362 -0.984 6.709 -3.856 4.992 -3.298 8.545 -5.188 10.08 -5.363 2.389 -0.315 -0.077 2.258 -0.47 2.688 -1.514 1.641 -1.97 2.263 -1.97 2.687 0 0.957 2.031 0.451 6.289 -1.566 5.068 -2.401 7.228 -3.136 9.18 -3.125 1.82 0.01 2.796 0.464 6.104 2.837 5.54 3.976 14.712 8.229 17.807 8.257 1.831 0.097 1.012 -0.902 0.376 -1.753 -0.583 -0.775 -1.06 -1.534 -1.06 -1.687 0 -0.668 1.987 0.026 5.122 1.789 2.852 1.604 5.02 3.137 6.887 4.873 1.245 0.617 3.062 1.623 3.082 -0.874 0 -0.676 0.065 -1.228 0.145 -1.226 0.278 0.004 3.499 2.809 4.219 3.674 1.189 1.428 1.502 2.337 1.392 4.046 -0.156 2.428 -1.134 4.073 -3.13 5.267 -3.316 3.63 -3.856 4.701 -4.411 6.264 -1.909 5.1 -5.361 11.1 -8.959 15.572 -1.327 1.649 -2.542 3.272 -2.701 3.605 -1.267 1.276 -3.429 1.316 -5.03 2.504 -1.282 1.222 -1.659 2.251 -1.286 3.804 -1.168 0.4 -5.14 1.668 -6.318 2.237 -5.08 2.465 -8.04 3.618 -12.558 4.886 -2.862 0.804 -3.926 1.556 -3.92 2.771 0.274 1.866 2.159 0.32 1.194 1.662 -4.518 3.465 -10.873 2.746 -13.283 0.053 z m 8.259 -13.359 c 2.251 -1.111 4.738 -4.091 4.22 -5.058 -0.474 -0.886 -1.299 -1.092 -5.843 -1.459 -1.951 -0.158 -4.61 -0.477 -5.909 -0.708 -2.787 -0.497 -2.959 -0.439 -2.959 0.991 0 2.307 2.814 5.639 5.626 6.662 1.349 0.491 3.361 0.314 4.864 -0.428 z" transform="matrix(1.25195 0 0 1.20722 -37.22 -24.781)" fill="#dcad92"/><path transform="matrix(1.42463 0 0 1.64182 -17.985 -63.778)" d="m 121.44 84.06 a 8.466 7.298 0 1 1 -16.932 0 8.466 7.298 0 1 1 16.932 0 z" fill="#fff" id="1"/><use transform="translate(-40.2 -0.705)" xlink:href="#1"/><path d="m 91.83 249.87 c -0.997 -1.189 -0.33 -2.393 3.664 -6.616 l 4.882 -5.163 l 0.505 -10.634 l 0.505 -10.634 l 3.535 -0.295 c 1.944 -0.162 4.396 0.33 5.449 1.093 1.799 1.304 1.836 1.862 0.61 9.295 -0.717 4.349 -1.578 10.382 -1.914 13.407 -0.608 5.476 -0.634 5.512 -6.094 8.25 -6.135 3.077 -9.338 3.449 -11.142 1.297 z m 53.52 -0.595 c -5.357 -2.435 -6.05 -3.339 -6.085 -7.952 -0.015 -1.925 -0.698 -5.975 -1.518 -9 -0.82 -3.03 -1.496 -7.589 -1.503 -10.143 -0.013 -5.106 0.821 -5.857 6.504 -5.857 3.052 0 3.371 0.303 3.946 3.75 0.344 2.063 0.631 6.783 0.637 10.489 0.011 6.689 0.049 6.781 5.12 12.325 2.81 3.072 4.934 6.114 4.719 6.761 -0.66 1.99 -7.07 1.788 -11.82 -0.373 z m -41.19 -35.658 c -1.83 -0.349 -2.273 -1.101 -2.273 -3.864 0 -2.969 -0.331 -3.43 -2.461 -3.43 -1.354 0 -5.558 -2.1 -9.343 -4.667 -10.243 -6.948 -16.611 -9.613 -19.959 -8.352 -3.295 1.24 -8.323 1.333 -9.05 0.168 -0.293 -0.469 2.294 -3.968 5.748 -7.776 13.564 -14.955 24.475 -29.597 29.869 -40.08 3.328 -6.468 3.205 -6.589 -5.85 -5.795 -10.986 0.963 -14.821 -0.334 -16.222 -5.488 -0.576 -2.118 -1.555 -4.02 -2.175 -4.223 -0.72 -0.238 -1.17 -4.02 -1.245 -10.462 -0.1 -8.618 0.163 -10.399 1.807 -12.205 2.271 -2.497 6.326 -2.736 9.466 -0.559 2.782 1.93 2.855 4.172 0.224 6.944 -1.929 2.033 -1.95 2.367 -0.459 7.337 0.859 2.864 1.316 5.6 1.017 6.08 -0.953 1.526 2.558 2.137 6.396 1.114 2.039 -0.543 6.254 -1.163 9.367 -1.377 3.113 -0.214 6.178 -0.706 6.81 -1.093 1.637 -1 7.986 1.273 9.111 3.264 1.376 2.435 14.94 2.437 16.316 0.003 1.034 -1.83 6.312 -3.363 8.01 -2.326 0.585 0.358 3.664 0.786 6.842 0.952 3.179 0.166 7.635 0.627 9.904 1.025 3.132 0.549 4.149 0.398 4.227 -0.628 0.056 -0.743 0.657 -3.322 1.334 -5.73 1.154 -4.102 1.087 -4.487 -1.051 -6.084 -3.055 -2.281 -2.351 -5.145 1.765 -7.182 7.04 -3.483 10.306 0.632 10.306 12.973 0 5.669 -0.413 8.267 -1.45 9.119 -0.798 0.655 -1.744 2.514 -2.102 4.131 -0.982 4.426 -3.59 5.272 -14.313 4.638 -5.173 -0.306 -9.404 -0.254 -9.402 0.114 0.021 3.727 17.09 23.18 31.91 36.38 6.89 6.133 12.527 11.712 12.527 12.4 0 1.807 -4.955 5.394 -7.459 5.399 -1.175 0.002 -4.182 1.36 -6.681 3.02 -5.555 3.681 -15.02 6.705 -23.758 7.592 l -6.542 0.664 v 3.303 c 0 3.788 -0.221 3.996 -5.239 4.928 -3.575 0.664 -3.786 0.539 -5.845 -3.458 -1.175 -2.281 -2.827 -4.409 -3.67 -4.729 -0.843 -0.32 -4.8 -0.186 -8.792 0.299 -7.07 0.858 -7.307 0.978 -9.109 4.631 -1.878 3.806 -2.793 4.133 -8.502 3.044 z m 12.69 -44.608 l 0.801 -3.198 l -4.336 -0.302 c -3.673 -0.256 -3.867 0.496 -4.17 4.128 l -0.317 3.814 l 3.852 -0.314 c 3.669 -0.299 3.867 -0.496 4.17 -4.128 z m 19.36 3.324 c 1.452 -0.769 1.704 -1.606 1.129 -3.75 -0.615 -2.294 -1.368 -2.812 -4.46 -3.07 -3.618 -0.302 -3.721 -0.217 -3.721 3.083 0 1.867 0.303 3.694 0.673 4.06 0.987 0.978 4.234 0.813 6.378 -0.324 z m -10.863 -3.257 c 0 -3.558 -3.676 -3.02 -4.092 0.585 -0.265 2.295 0.025 2.77 1.515 2.486 1.195 -0.228 2.577 -1.46 2.577 -3.071 z m 1.074 -21.767 c 0.238 -0.267 0.72 -1.674 1.071 -3.126 0.508 -2.102 0.126 -2.973 -1.878 -4.273 -2.328 -1.51 -2.705 -1.51 -5.04 0.006 -2.815 1.826 -2.927 2.232 -1.584 5.729 0.733 1.909 1.611 2.418 3.97 2.301 1.666 -0.083 3.224 -0.369 3.462 -0.636 z m -13.423 -11.986 c 0 -0.55 -0.682 -1 -1.515 -1 -0.833 0 -1.515 0.45 -1.515 1 0 0.55 0.682 1 1.515 1 0.833 0 1.515 -0.45 1.515 -1 z m 22.22 0.622 c 0 -0.208 -0.682 -0.938 -1.515 -1.622 -1.241 -1.02 -2.16 -0.181 -2.16 1.148 0 0.892 1.327 0.852 2.16 0.852 0.833 0 1.515 -0.17 1.515 -0.378 z m -20.278 -25.546 c -1.624 -1.608 -2.952 -3.91 -2.952 -5.117 0 -1.909 0.521 -3.02 2.939 -2.364 1.528 0.415 5.433 0.56 8.678 0.7 7.786 0.335 8.696 2.745 4.761 6.642 -4.219 4.177 -9.293 4.23 -13.425 0.138 z m -23.08 -22.569 c -12.31 -2.759 -26.341 -10.767 -28.44 -16.235 c -1.713 -4.461 0.36 -6.273 7.176 -6.273 4.235 0 9.04 -1.032 16.282 -3.5 16.438 -5.599 26.542 -4.661 33.754 3.134 l 3.371 3.643 l 2.705 -3.182 c 6.949 -8.176 17.693 -9.299 34.18 -3.573 7.242 2.515 11.732 3.478 16.211 3.478 9.316 0 11.11 3.124 5.45 9.503 -4.171 4.704 -17.324 10.887 -27.83 13.08 -9.583 2 -18.333 1.121 -26.18 -2.639 l -4.538 -2.175 l -5.83 2.59 c -7.441 3.306 -17.481 4.125 -26.315 2.145 z m 21.456 -16.834 c -0.957 -4.482 -4.858 -6.344 -8.135 -6.964 -6.181 -1.17 -12.384 3.884 -12.384 10.09 0 3.454 2.573 10.738 9.1 10.123 11.07 0.528 13.13 -6.477 11.423 -13.249 z m 41.649 2.431 c 0.045 -2.823 -3.677 -6.822 -5.972 -7.904 -4.285 -2.02 -5.863 -2.158 -9.155 -0.796 -7.092 2.934 -8.561 12.07 -3.369 17.21 9.701 5.824 18.791 0.284 18.497 -8.51 z" fill="#d32b29"/><path d="m 115.63 104.47 c 1.513 0.458 5.101 0.871 7.974 0.916 6.24 0.099 4.775 1.492 2.359 4.162 -12.05 4.58 -12.596 -5.738 -10.333 -5.078 z m -15.06 -23.643 c -4.139 -3.256 -4.311 -5.595 -0.664 -9 1.75 -1.635 4.234 -2.972 5.519 -2.972 5.097 0 7.222 8.192 2.91 11.213 -2.968 2.079 -4.674 3.192 -7.765 0.761 z m 40.06 0.05 c -3.816 -3 -3.994 -5.481 -0.645 -8.985 4.758 -4.979 9.93 -3.418 11.148 3.365 0.389 2.168 -0.073 3.499 -1.824 5.25 -2.864 2.864 -5.371 2.971 -8.679 0.37 z" fill="#3b3639"/><g fill="#3286bc" transform="matrix(1.25195 0 0 1.20722 -37.22 -24.781)"><path d="m 139.26 197.33 c -0.774 -0.379 -3.779 -5.079 -4.531 -7.087 -0.794 -0.842 -1.243 -1.443 -1.298 -2.505 -0.062 -1.41 0.065 -1.78 0.622 -1.803 0.385 -0.016 2.959 -0.174 5.72 -0.351 3.576 -0.23 5.102 -0.189 5.307 0.142 0.535 0.865 0.445 8.917 -0.11 9.926 -0.811 1.472 -4.134 2.449 -5.709 1.678 z"/><path d="m 130.6 157.16 c -4.662 0.584 -8.126 0.219 -13.703 -0.087 l 0.565 -3.159 c 0.645 -3.603 0.416 -8.977 -0.492 -11.551 -0.83 -2.353 -2.259 -4.403 -3.81 -5.465 -1.279 -0.877 -1.65 -0.906 -9.971 -0.79 -7.923 0.11 -8.778 0.052 -10.274 -0.7 -1.87 -0.939 -2.938 -2.746 -3.36 -5.686 -0.213 -1.482 -0.144 -2.01 0.282 -2.148 1.906 -0.566 4.105 -0.95 5.332 -2.21 0.588 -0.44 1.16 0.923 1.841 1.652 0.639 0.444 3.945 0.384 5.623 -0.102 2.571 -0.745 6.73 -1.283 7.911 -1.023 0.719 0.158 1.87 1.134 3.077 2.609 2.028 1.727 2.559 3.133 5.322 2.994 0.255 -0.771 3.437 -4.202 4.6 -3.568 1.458 0.794 6.662 -0.499 8.942 0.003 2.632 1.238 2.299 4.342 5.717 4.374 1.055 0.203 2.213 -1.287 3.28 -3.309 0.541 -1.025 1.378 -2.01 1.86 -2.188 0.482 -0.178 3.132 -0.111 5.888 0.149 2.756 0.26 6.317 0.531 7.913 0.602 2.221 -0.024 4.348 0.794 6.471 1.021 1.2 0 1.228 0.044 0.959 1.555 -0.152 0.855 -0.646 2.433 -1.099 3.506 -1.16 2.753 -2.128 3 -10.46 2.685 -9.165 -0.348 -11.669 0.292 -11.989 3.065 -0.064 0.552 -0.533 1.844 -1.043 2.87 -0.882 1.775 -0.913 2.173 -0.642 8.187 l 0.284 6.322 h -3.34 c -1.838 -0.246 -4.111 0.663 -5.686 0.395 z m 0.993 -16.74 c 0.559 -2.046 -0.02 -3.401 -1.925 -4.51 -1.149 -0.669 -1.544 -0.715 -2.55 -0.298 -2.164 0.896 -3.074 2.245 -2.815 4.173 0.339 2.526 1.239 3.301 3.836 3.301 2.277 0.085 2.93 -0.783 3.454 -2.665 z"/><path d="m 113.89 197.4 c -1.992 -0.471 -2.221 -0.854 -2.454 -4.118 -0.115 -1.612 -0.345 -2.932 -0.51 -2.932 0.057 -1.572 0.587 -2.726 1.116 -4.353 l 3.275 -0.131 c 4.328 -0.173 7.498 0.23 7.789 0.989 0.127 0.33 0.067 1.028 -0.131 1.551 0.279 2.901 -2.408 4.152 -3.333 6.261 -1.317 3.078 -2.304 3.547 -5.752 2.732 z"/></g><g fill="#ef9985"><use transform="matrix(1.39106 0 0 1.55214 -55.25 -63.943)" xlink:href="#0"/><use transform="matrix(1.39106 0 0 1.55214 -104.22 -64.65)" xlink:href="#0"/></g><use transform="matrix(1.46061 0 0 1.20722 -88.38 -35.35)" fill="#eb9481" xlink:href="#0"/></g><path d="m 116.08 165.3 c 0.379 7.937 -6.02 13.932 -5.636 17.709 0.211 1.785 0.211 1.785 3.908 2.065 10.223 1.434 21.81 0.142 31.802 -0.585 -2.297 -5.116 -4.051 -14.585 -5.509 -19.245 -8.183 0.222 -16.398 -0.389 -24.566 0.056 z" fill="#ef6708"/></svg>