<svg xmlns="http://www.w3.org/2000/svg" viewBox="0 0 256 256"><path d="m 123.75 1.875 c -42.614 4.089 -83.82 32.2 -105.52 71.967 -18.2 33.35 -21.02 67.29 -8.215 98.61 c 9.634 23.556 31.487 46.756 58.63 62.24 28.948 16.516 55.865 22.23 83.69 17.76 68.66 -11.03 118.98 -98.16 98.53 -170.61 -9.994 -35.413 -36.498 -61.26 -75.52 -73.63 -16.971 -2.994 -34.908 -7.656 -51.595 -6.338 z" fill="#3295dd"/><g fill="#fff"><path d="m 59.44 142.68 c -0.405 -1.656 -0.567 -18.668 -0.36 -37.804 l 0.376 -34.793 h 64.46 c 35.452 0 64.959 0.501 65.57 1.113 1.388 1.386 2.337 57.811 1.135 67.43 l -0.882 7.06 h -64.781 h -64.781 l -0.736 -3.01 z m 96.26 -16.536 c 1.771 -0.68 2.113 -3.466 2.096 -17.06 -0.011 -8.937 -0.558 -17.1 -1.215 -18.14 -1.455 -2.298 -35.998 -3.691 -54.12 -2.181 l -11.558 0.963 v 17.723 c 0 9.747 0.401 18.12 0.892 18.615 1.115 1.115 61.01 1.19 63.901 0.08 z"/><path d="m 69.45 175.03 c -1.37 -0.382 -2.04 -1.255 -2.44 -3.178 -0.523 -2.515 0.214 -7.981 1.21 -8.978 0.739 -0.738 86.86 -1.096 100.38 -0.417 l 12.253 0.616 v 5.709 c 0 5.437 -0.091 5.734 -1.915 6.242 -2.487 0.692 -107 0.697 -109.48 0.006 z"/><path d="m 72.881 196.64 c -2.098 -0.195 -4.074 -0.763 -4.392 -1.263 -0.318 -0.499 -0.583 -3.049 -0.589 -5.665 l -0.012 -4.757 l 3.045 -0.82 c 1.997 -0.538 13.869 -0.746 34.489 -0.604 26.956 0.185 31.548 0.38 32.17 1.365 1.128 1.785 0.916 9.629 -0.287 10.628 -1.066 0.884 -56.57 1.846 -64.43 1.116 z"/></g></svg>