<svg xmlns="http://www.w3.org/2000/svg" viewBox="0 0 256 256"><g fill="#412468" color="#000"><path d="m -1363.8 1650.47 c 92.76 -229.28 -405.65 -114.61 -172.57 42.475 46.699 31.473 147.56 19.349 172.57 -42.475 z" transform="matrix(-1.03665 0 0 -1.35742 -1401.71 2320.79)"/></g><path d="m 109.26 202.09 c -16.95 -9.703 -44.18 -25.816 -52.47 -31.05 c -6.369 -4.02 -8.465 -5.768 -8.465 -7.06 0 -1.834 22.387 -39.659 53.736 -90.79 17.258 -28.15 22.397 -35.8 24.05 -35.8 2.189 0 8.356 9.774 48.788 77.33 15.962 26.672 29.02 49.05 29.02 49.737 0 0.805 -1.596 2.253 -4.527 4.107 -15.21 9.622 -59.992 35.877 -68.39 40.1 -2.295 1.153 -4.719 2.096 -5.386 2.096 -0.667 0 -8.03 -3.9 -16.355 -8.668 z m 13.811 -12.827 c 0.516 -12.705 1.244 -17.306 3.118 -19.688 0.733 -0.932 4.652 -3.859 8.71 -6.505 4.756 -3.101 8.786 -6.372 11.344 -9.205 3.911 -4.333 3.986 -4.378 5.335 -3.157 0.753 0.681 1.368 1.854 1.368 2.607 0 3.095 -5.184 8.47 -13.148 13.632 -6.623 4.293 -8.848 6.24 -9.603 8.405 -0.761 2.182 -1.025 24.446 -0.313 26.302 0.513 1.337 3.751 -0.401 28.429 -15.268 23.745 -14.304 33.534 -20.525 33.534 -21.312 0 -0.359 -7.666 -4.392 -17.04 -8.964 -13.393 -6.534 -17.395 -8.787 -18.714 -10.534 -0.923 -1.222 -2.616 -5.482 -3.761 -9.465 -1.145 -3.984 -2.815 -8.689 -3.711 -10.457 -2.056 -4.057 -7.979 -9.509 -12.816 -11.798 -3.998 -1.891 -4.958 -3.133 -3.645 -4.715 2.135 -2.573 9.533 0.141 15.667 5.747 4.375 3.998 7.152 9.1 10.205 18.739 2.173 6.863 2.557 7.568 5.169 9.48 4.586 3.358 28.28 14.584 29.08 13.78 0.526 -0.526 -5.663 -11.136 -36.26 -62.16 l -25.543 -42.588 l -0.415 5.03 c -0.228 2.767 -0.464 10.312 -0.524 16.767 -0.06 6.455 -0.374 15.394 -0.699 19.863 -0.836 11.497 -1.885 13.311 -11.1 19.2 -10.424 6.656 -13.636 10.284 -16.15 18.243 -1.957 6.195 -2.531 7.07 -4.338 6.595 -2.958 -0.773 -2.543 -6.821 0.952 -13.894 2.903 -5.874 6.982 -10.1 13.717 -14.223 7.423 -4.541 9.319 -6.507 10.193 -10.574 0.94 -4.376 0.626 -45.46 -0.35 -45.751 -0.75 -0.221 -2.517 2.593 -27.84 44.35 -18.593 30.659 -33.385 55.52 -34.03 57.2 -0.517 1.346 0.679 0.931 14.585 -5.07 11.892 -5.131 17.16 -6.405 21.727 -5.258 0.903 0.227 4.994 3.657 9.09 7.622 4.157 4.02 9.269 8.249 11.566 9.559 4.581 2.614 5.12 3.369 3.539 4.95 -2.99 2.99 -8.07 0.402 -18.337 -9.337 -5.708 -5.415 -8.579 -7.688 -9.712 -7.688 -2.566 0 -31.03 12.208 -32.94 14.13 -0.48 0.481 -0.197 1.073 0.913 1.912 2.625 1.983 21.875 13.671 42.31 25.687 16.395 9.641 19.17 11.06 19.546 10.04 0.244 -0.658 0.644 -6.162 0.891 -12.23 z" fill="#fff" stroke="#fff" stroke-width="0.671"/></svg>