<svg xmlns="http://www.w3.org/2000/svg" viewBox="0 0 256 256"><path d="m 5.458 87.67 c -52.587 349.37 463.21 67.45 143.76 -76.07 -57.05 -24.658 -138.76 -7.954 -143.76 76.07 z" fill="#c00610" color="#000"/><g transform="matrix(0.81369 0 0 0.81139 -145.03 78.33)" fill="#fff"><path d="m 340.47 130.7 c -3.465 -0.637 -3.681 -0.928 -4.337 -5.845 -0.885 -6.633 -1.086 -114.07 -0.222 -118.36 0.646 -3.209 0.701 -3.234 7.182 -3.234 7.159 0 7.796 0.542 7.796 6.639 0 1.851 0.288 3.651 0.639 4 0.352 0.349 3.069 -1.187 6.04 -3.414 9.31 -6.981 14.42 -8.765 25.12 -8.771 8.524 -0.005 10.05 0.311 16.35 3.393 16.312 7.976 24.412 26.856 21.698 50.579 -2.398 20.965 -16.67 36.936 -35.04 39.22 -8.089 1 -19.708 -1.807 -26.08 -6.31 -2.787 -1.968 -5.395 -3.578 -5.795 -3.578 -0.4 0 -0.87 9.974 -1.045 22.17 -0.175 12.191 -0.552 22.394 -0.839 22.674 -3.698 0.974 -7.822 1.453 -11.461 0.847 z m 50.658 -53.51 c 4.082 -2.503 5.805 -4.519 8.732 -10.218 4.554 -11.226 6.185 -25.874 1.089 -36.23 -3.894 -7.805 -9.488 -12.64 -16.232 -14.03 -12.307 -2.537 -22.586 2.176 -28.07 12.872 -3.034 5.913 -3.148 6.633 -3.124 19.662 0.028 15.1 1.145 18.63 7.958 25.11 5.283 5.03 9.723 6.597 17.668 6.252 4.758 -0.338 8.981 -1.601 11.982 -3.418 z"/><path d="m 235.73 30.822 c -2.658 -8.873 1.571 -16.229 10.721 -18.647 6.654 -1.759 13.262 1.062 17.361 7.409 5.078 7.866 1.135 18.696 -8.02 22.03 -9.04 2.943 -17.713 -3.23 -20.06 -10.79 z"/><path d="m 235.58 101.05 c -2.658 -8.873 1.571 -16.229 10.721 -18.647 6.654 -1.759 13.262 1.062 17.361 7.409 5.078 7.866 1.135 18.696 -8.02 22.03 -9.04 2.943 -17.713 -3.23 -20.06 -10.79 z"/><rect width="50.587" height="16.456" x="269.23" y="54.27" rx="0.308" ry="0.332"/></g></svg>