<svg xmlns="http://www.w3.org/2000/svg" viewBox="0 0 256 256"><path d="m 65.748 235.09 c 329.42 133.81 174.65 -428.98 -40.478 -155.7 -37.47 49.03 -40.36 131.36 40.478 155.7 z" fill="#babfca" color="#000"/><path d="m -156.32 136.07 c 1.921 0 2.625 -4.531 2.625 -16.884 0 -9.88 0.156 -10.732 2.205 -12.01 1.568 -0.979 2.314 -1.049 2.583 -0.241 0.576 1.727 3.03 1.357 4.06 -0.614 0.505 -0.963 0.944 -5.575 0.976 -10.25 0.05 -7.434 0.316 -8.672 2.117 -9.872 1.576 -1.05 2.059 -2.439 2.059 -5.917 0 -5.34 0.583 -5.286 1.296 0.119 0.278 2.107 1.441 4.826 2.584 6.04 1.662 1.769 2.02 3.249 1.769 7.385 -0.337 5.637 0.451 7.916 2.336 6.751 0.801 -0.495 1.129 -3.154 0.973 -7.878 -0.447 -13.539 -0.551 -13.212 6.542 -20.558 l 6.5 -6.733 v -6.337 c 0 -7.836 0.747 -7.559 1.18 0.438 0.311 5.749 0.496 6.096 6.57 12.353 6.783 6.987 6.754 6.898 6.378 19.705 -0.211 7.18 0.76 10.305 2.81 9.04 0.713 -0.44 1.078 -3 0.947 -6.639 -0.174 -4.817 0.177 -6.339 1.881 -8.161 1.161 -1.242 2.273 -4.02 2.496 -6.24 l 0.402 -4 l 0.168 4.076 c 0.121 2.944 0.882 4.746 2.738 6.49 2.361 2.218 2.517 2.871 1.92 8.02 -0.721 6.212 0.856 13.914 2.848 13.914 0.694 0 1.791 -0.529 2.438 -1.176 0.902 -0.902 1.65 -0.748 3.205 0.659 1.82 1.647 1.994 2.821 1.696 11.426 -0.183 5.275 -0.06 10.683 0.273 12.02 0.805 3.226 2.813 3.776 3.223 0.883 0.312 -2.201 0.654 -2.291 7.531 -1.97 8.858 0.413 9.761 -0.04 7.767 -3.896 l -1.522 -2.943 h 3.03 c 1.664 0 3.03 -0.165 3.03 -0.366 0 -0.201 -1.996 -4.589 -4.436 -9.75 -2.44 -5.161 -5.42 -12.759 -6.624 -16.884 -3.14 -10.763 -7.576 -32.371 -8.868 -43.2 -1.5 -12.568 -3.165 -20.797 -4.209 -20.797 -0.475 0 -0.853 -2.813 -0.841 -6.25 l 0.022 -6.25 l 2.01 4.426 c 1.104 2.435 2.188 6.485 2.407 9 0.917 10.504 13.576 39.1 25.26 57.06 5.373 8.259 21.849 26.01 24.14 26.01 1.372 0 1.39 -0.639 1.528 -54 l 0.107 -41.5 l 2.75 -0.316 c 1.943 -0.224 2.75 -0.884 2.75 -2.25 0 -1.543 0.707 -1.934 3.5 -1.934 2.767 0 3.5 0.396 3.5 1.893 0 1.041 0.584 2.117 1.298 2.391 1.234 0.474 0.407 22.415 0.575 49.865 0.017 2.814 0.362 3.358 1.866 3 0.959 -0.228 0.611 28.12 0.611 28.12 -3.01 -0.242 -1.106 1.747 -0.947 8.884 l 0.29 12.985 l 3.601 -0.32 l 3.601 -0.32 l 0.485 -27.5 c 1.573 -89.21 1.795 -94.81 3.772 -95.33 1.417 -0.371 1.848 -1.437 1.848 -4.577 v -4.094 c 3 0 6 0 9 0 v 3.941 c 0 2.168 0.45 4.219 1 4.559 0.589 0.364 1.57 6.336 1 14.476 -1.015 14.482 -0.165 13.972 3.741 13.751 0.956 -0.054 -0.263 11.318 -0.592 39.705 -0.463 39.937 -2.799 36.454 2.664 36.669 0.563 0.022 0.196 5.605 0.196 11.563 0 10.564 -0.781 11.336 0.241 11.349 1.238 0.008 3.307 0.297 4.598 0.642 7.509 1.601 6.366 8.862 6.152 13.344 h -94.5 h -94.5 c -0.117 -1.975 0.005 -4.04 1.375 -5 z m 105.63 -13.498 c 0 -0.274 -1.514 -2.636 -3.364 -5.25 -3.814 -5.389 -7.745 -13.02 -9.599 -18.638 -0.691 -2.094 -1.921 -5 -2.734 -6.461 l -1.477 -2.653 l 0.644 3 c 1.294 6.02 8.336 22.21 12.286 28.25 1.278 1.952 4.243 3.176 4.243 1.752 z m 4.872 -1.387 c -0.755 -1.037 -3.45 -4.749 -5.99 -8.25 -2.54 -3.501 -6.25 -9.515 -8.244 -13.365 -1.994 -3.85 -3.628 -6.272 -3.632 -5.382 -0.01 2.467 8.37 18.347 12.628 23.93 2.077 2.723 4.414 4.952 5.193 4.952 1.206 0 1.213 -0.28 0.044 -1.885 z m 3.513 -3.365 c -6.479 -6.74 -10.317 -11.825 -14.372 -19.05 -3.338 -5.944 -5.081 -7.229 -2.825 -2.084 4.173 9.52 17.381 26.379 20.665 26.379 0.998 0 -0.277 -1.931 -3.468 -5.25 z m 2.461 -3.5 c -4.737 -4.812 -10.24 -11.163 -12.229 -14.11 -3.86 -5.723 -4.649 -6.06 -1.98 -0.838 2.529 4.946 10.87 15.07 16.12 19.57 8.095 6.935 7.103 4.542 -1.914 -4.619 z m 9.654 3.467 c -8.665 -6.738 -24.1 -25.15 -28.05 -33.467 -2.056 -4.327 -2.863 -4.173 -1.037 0.197 1.973 4.722 8.882 14.844 14.994 21.967 5.812 6.773 16.513 16 17.457 15.05 0.349 -0.351 -1.165 -2.038 -3.365 -3.749 z m -37.817 -30.905 c -0.319 -0.798 -0.556 -0.561 -0.604 0.604 -0.043 1.054 0.193 1.645 0.525 1.313 0.332 -0.332 0.368 -1.195 0.079 -1.917 z" transform="translate(186.74 57.01)"/></svg>