<svg xmlns="http://www.w3.org/2000/svg" viewBox="0 0 256 256"><g fill="#2bc700" color="#000"><path d="M 219.27,843.52 C 378.99,1071.5 -36.39,1144.06 4.81,901.81 26.646,805.46 155.29,752.19 219.27,843.52 z" transform="matrix(1 0 0 0.99181 0 -788.75)"/></g><g transform="matrix(4.94813 0 0 5.11665 5.611 4.223)" fill="#fff"><path d="m 16.955 15.253 c -3.07 0.219 -4.969 0.5 -4.969 0.5 c -1.093 0.131 -1.985 1.138 -1.985 2.238 v 16.02 c 0 1.093 0.889 2.101 1.987 2.238 0 0 5.076 0.753 12.138 0.753 7.06 0 11.884 -0.745 11.884 -0.745 c 1.113 -0.136 1.991 -1.146 1.991 -2.246 v -16.02 c 0 -1.093 -0.889 -2.103 -1.985 -2.241 0 0 -2.182 -0.328 -5.677 -0.55 -0.685 1.052 -1.611 1.934 -2.7 2.565 c 3.158 1.397 5.362 4.559 5.362 8.235 c 0 4.971 -4.03 9 -9 9 -4.971 0 -9 -4.03 -9 -9 0 -3.519 2.02 -6.567 4.964 -8.05 -1.219 -0.629 -2.256 -1.563 -3.01 -2.701 z"/><path d="m 22.875 17.667 c -0.325 -1 0.975 -7.667 7.475 -7.667 c 0 0 0.325 7 -7.475 7.667 z"/><path d="m 22.55 13.667 c 0 0 -1.419 1.667 -0.975 4 0 0 -3.575 -1.333 -3.575 -5.667 0 0 2.925 0 4.55 1.667 z"/><path d="m 28.26 24.41 c 1.428 0.844 1.438 2.207 0 3.056 l -4.67 2.76 c -1.428 0.844 -2.586 0.194 -2.586 -1.467 v -5.641 c 0 -1.654 1.148 -2.317 2.586 -1.467 l 4.67 2.76 z"/></g></svg>