<svg xmlns="http://www.w3.org/2000/svg" viewBox="0 0 256 256"><path d="m 81.5 251.3 c 360.6 44.5 61.71 -466.7 -70.7 -139.7 c -20.31 57.4 -2.68 122.1 70.7 139.7" style="fill:#808080"/><path d="m 76.6 210.5 l -6.66 -8.17 c -7.32 1.51 -12.1 7.63 -14.6 1.04 -0.71 -1.96 -0.22 -3.8 2.11 -7.96 1.85 -3.29 3.55 -8.6 4.35 -13.58 2.12 -13.2 5.77 -22.63 13.69 -35.4 9.22 -11.81 11.4 -26.36 12.88 -38.92 1.2 -10.3 2.91 -21.49 3.81 -24.87 9.7 -24.92 33.42 -35.63 56.63 -24.51 10.69 6.16 14.62 11.22 19.27 24.92 4.22 15.24 4.14 30.91 8.98 46.5 0.91 2.7 5.38 10.94 9.94 18.31 9.61 15.53 11.1 19.1 12.91 31.2 0.79 5.27 2.58 11.46 4.38 15.1 2.28 4.66 2.87 7.09 2.37 9.72 -4.55 5.98 -16.33 -4 -22.29 4.43 -4.8 9.38 -17.57 2.51 -27.1 2.68 -10.51 0.27 -34.81 0.65 -47.79 0.36 -11.29 -3.06 -14.3 3.71 -32.83 -0.9 z" style="fill:#f5f5f5"/><path d="m 118 215.1 c -7.69 -4.91 -16.87 -1.6 -27.75 -0.48 -10.52 1.08 -13 0.45 -15.56 -3.9 -2.85 -4.9 -6 -5.82 -12.97 -3.72 -5.64 1.7 -5.81 1.68 -7.73 -0.73 -2.69 -3.37 -2.47 -6.38 0.8 -11.17 1.94 -2.84 3.25 -7.11 4.39 -14.22 2.23 -14 4.77 -20.2 14.27 -34.88 9.63 -14.86 10.98 -18.64 12.55 -35 2.65 -27.64 4.74 -34.46 14 -45.79 3.89 -4.75 7.59 -7.83 12.35 -10.31 11.86 -4.89 25.2 -5.74 35.3 -0.19 3.34 1.83 8.56 6 11.61 9.29 10.1 10.83 14 22.52 15.1 44.65 0.78 16.81 2.78 23.87 9.37 33 11.84 16.42 17.56 29.2 17.56 39.4 0 4.71 0.7 6.99 3.48 11.4 3.82 6.1 4.56 11.76 1.86 14.5 -1.52 1.54 -2.38 1.52 -8.53 -0.22 -7.56 -2.51 -6.44 -2.41 -11.35 3.41 -4.88 7 -6.33 5.21 -14.47 4.62 -16.2 -3.32 -25.1 -0.73 -29.46 0.56 -4.57 1.33 -21.44 1.21 -24.85 -0.18 z m -19.2 -12 c -1.77 -1.99 -1.67 -2.73 2.04 -14.22 2.15 -6.66 4.63 -13.37 5.5 -14.9 1.45 -2.55 1.59 -1.65 1.62 10.38 0.02 7.3 -0.48 14.16 -1.14 15.4 -1.75 3.32 0.15 4.9 9.77 8.15 12.59 4.26 23.79 3.65 19.92 -1.09 -1.02 -1.25 -1.03 -7.1 -0.03 -25.83 0.7 -13.32 1.49 -24.43 1.74 -24.69 0.68 -0.69 2.47 4.46 6.69 19.32 7.18 15.1 4.86 27.1 5.63 30.1 6.24 -0.63 8.28 -0.37 12.9 1.65 3 1.32 8.1 2.68 11.2 3 5.69 0.61 5.72 0.59 7.6 -3.41 2.89 -9.25 -4.72 -19.4 -5.08 -31 0 -3.18 2.81 0.79 6.48 9.18 5.7 12 2.51 10.37 9.46 15.4 3.61 0.6 7.42 1.43 8.48 1.86 2.87 1.14 2.49 -3.09 -0.72 -8.13 -1.83 -2.88 -3 -7.1 -3.85 -13.63 -1.47 -11.5 -5.87 -21.5 -15.88 -36.1 -8.17 -11.89 -10 -18.53 -11 -39.71 -0.95 -19.54 -3.41 -26.9 -12.54 -37.64 -3.18 -3.73 -7.41 -7.11 -11.54 -9.21 -5.62 -2.85 -7.75 -3.31 -15.41 -3.31 -13.46 -0.07 -27.38 8.32 -33.71 20.31 -2.89 5.74 -4.94 15.75 -6.43 31.51 -1.74 18.33 -4.37 26.77 -11.7 37.64 -10.69 15.84 -13.84 23.61 -15.71 38.7 -0.69 5.58 -1.84 9.22 -3.82 12.1 -3.64 5.34 -3.8 8.47 -0.37 7.49 10.44 -2.97 16 -1.71 18.82 4.25 1.77 3.8 2.14 3.99 7.35 3.99 6.2 -0.14 16.7 -4.36 13.75 -7.66 z" style="fill:#a9a9a9"/><g style="fill:#2a2b29"><path d="m 109.2 106 c -4.11 -1.82 -7.14 -8.4 -6.07 -13.16 0.72 -3.21 2.79 -6.82 4.74 -8.26 2.17 -1.6 7.22 -1.6 9.39 0 6.53 6.1 6.12 15.95 0.09 20.52 -2.53 1.14 -5.85 1.84 -8.13 0.9 z"/><path d="m 137.4 106.2 c -2.37 -0.72 -4.62 -3.21 -5.92 -6.56 -1.78 -4.56 -1.24 -8.16 1.91 -12.73 3.89 -4.97 9.72 -4.52 13 -0.88 2.82 3.13 3.85 5.69 3.83 9.57 -0.42 4.13 -2 7.28 -5.59 9.73 -2.34 1.02 -5.14 1.48 -7.26 0.88 z"/></g></svg>