<svg xmlns="http://www.w3.org/2000/svg" viewBox="0 0 256 256"><defs><clipPath><path transform="matrix(15.33333 0 0 11.5 415 -125.5)" d="m -24 13 c 0 1.105 -0.672 2 -1.5 2 -0.828 0 -1.5 -0.895 -1.5 -2 0 -1.105 0.672 -2 1.5 -2 0.828 0 1.5 0.895 1.5 2 z"/></clipPath></defs><path d="m 229.63 196.22 c 92.05 -130.1 -77.948 -261.93 -186.39 -155.91 -102.17 99.87 -7.449 255.05 119.69 206.54 c 26.526 -10.12 49.802 -26.743 66.7 -50.625 z" fill="#f00407" color="#000"/><g fill="#fff"><path d="m 85.72 179.72 c -0.747 -1.747 -1.373 -5.081 -1.392 -7.41 -0.04 -4.986 2.088 -8.957 13.16 -24.559 8.01 -11.285 9.665 -14.665 8.603 -17.555 -0.398 -1.081 -4.347 -6.721 -8.776 -12.532 c -9.444 -12.392 -13.431 -18.925 -13.431 -22.01 c 0 -3.063 2.365 -11.175 3.666 -12.571 0.676 -0.726 1.776 -0.928 3 -0.55 2.251 0.693 46.587 46.64 46.587 48.28 0 2.396 -46.795 52.08 -49.05 52.08 -0.555 0 -1.621 -1.429 -2.368 -3.176 z"/><path d="m 134.64 178.5 c -1.031 -3.594 -1.502 -6.836 -1.165 -8.02 0.648 -2.286 7.967 -13.956 15.284 -24.372 5.718 -8.14 7.55 -12.142 6.869 -15.01 -0.262 -1.106 -3.338 -5.833 -6.834 -10.504 -9.317 -12.447 -12.293 -16.954 -14.187 -21.487 -1.489 -3.563 -1.581 -4.56 -0.76 -8.183 1.171 -5.168 3.678 -9.619 5.417 -9.619 1.385 0 30.13 29.609 41.41 42.654 l 6.503 7.521 l -9.37 10.697 c -15.72 17.946 -38.889 42.36 -40.2 42.36 -0.818 0 -1.822 -2.04 -2.967 -6.03 z"/></g></svg>