<svg xmlns="http://www.w3.org/2000/svg" viewBox="0 0 256 256"><defs><clipPath><path d="M 0,64 H64 V128 H0 z"/></clipPath></defs><g fill="#93a1b5" color="#000"><path d="m -1364.44 1637.2 c 46.11 -98.28 -115.29 -141.94 -177.55 -101.93 -62.25 40.01 -83.52 108.58 -13.01 143.08 70.51 34.501 139.38 67.53 185.49 -30.762 z" transform="matrix(-0.95802 -0.34548 0.47187 -1.20264 -2047.26 1564.67)"/></g><path d="m 110.05 237.39 c -17.03 -3.885 -33.49 -11.81 -48.26 -23.24 -8.399 -6.496 -20.718 -19.602 -26.14 -27.808 -5.321 -8.06 -11.836 -22.418 -13.839 -30.508 c -2.281 -9.211 -2.938 -23.05 -1.524 -32.07 2.149 -13.696 1.599 -13.567 11.666 -2.741 24.435 26.28 57.15 41.935 90.58 43.35 15.12 0.642 21.93 -0.334 36.02 -5.159 27.2 -9.316 52.761 -26.07 69.03 -45.26 2.821 -3.326 5.445 -5.739 5.832 -5.362 0.387 0.377 1.624 4.202 2.749 8.501 2.788 10.646 2.826 26.436 0.09 36.859 -4.463 17 -12.386 30.2 -27.362 45.57 -16.87 17.314 -35.499 28.812 -60.66 37.44 -7.07 2.423 -28.36 2.654 -38.18 0.413 z" fill="#2e5082"/><path d="m 80.905 186.73 c -9.742 -1.637 -10.588 -5.282 -9.875 -42.54 0.523 -27.324 1.087 -31.798 5.34 -42.34 6.409 -15.885 18.347 -28.04 33.536 -34.14 11.816 -3.34 22.13 -4.766 33.658 -0.743 19.583 6.968 32.02 21.303 39.596 45.641 3.16 14.08 2.133 24.585 2.133 36.802 v 29.951 c -3.259 6.782 -7.557 7.664 -15.03 7.497 -30.351 2.459 -60.716 3.315 -89.35 -0.132 z m 84.87 -54.708 c 1.995 -2.083 2.128 -6.374 0.429 -13.895 -3.399 -15.05 -12.243 -26.06 -25.351 -31.557 -9.975 -3.285 -20.877 -2.324 -28.69 1.945 -6.683 3.674 -12.419 9.49 -16.277 16.504 -4.832 8.785 -7.328 23.755 -4.425 26.535 1.6 1.532 27.297 2.685 53.39 2.395 17.381 -0.193 19.443 -0.383 20.923 -1.927 z" fill="#fff"/></svg>