<svg xmlns="http://www.w3.org/2000/svg" viewBox="0 0 256 256"><g color="#000"><path d="m -461.56 1509.46 c -102.66 -72.48 -252.13 71.24 -188.42 177.65 55.11 98.31 215.88 55.803 236.4 -48.33 13.01 -47.39 -5.347 -103.13 -47.986 -129.32 z" transform="matrix(0.83572 0.52642 -0.48833 0.9228 1367.08 -1082.5)" fill="#41bc16" fill-opacity="0.996"/></g><rect width="140.02" height="37.903" x="60.15" y="139.54" rx="7.88" ry="17.857" fill="#fff"/><path d="m 57.38 185.65 c -5.05 -2.938 -9.05 -13.598 -9.05 -24.15 0 -12.371 19.882 -72.64 25.753 -78.07 4.045 -3.739 7.114 -4.085 41.64 -4.706 l 37.27 -0.67 l 4.513 6.696 c 5.996 8.896 15.24 14.03 25.542 14.186 7.456 0.113 8.339 0.595 7.693 4.197 -0.402 2.238 2.369 13.204 6.157 24.369 5.658 16.677 6.887 23.12 6.887 36.1 0 14 -0.512 16.278 -4.498 20.02 -4.441 4.172 -5.344 4.224 -71.41 4.166 -43.966 -0.039 -68.14 -0.773 -70.5 -2.142 z m 94.09 -15.54 c 0.57 -7.293 -29.968 -4.124 -45.17 -4.194 -31.883 -0.021 -41.12 -1.993 -39.2 3.87 1.671 4.754 23.533 4.271 36.947 4.01 40.747 -0.805 46.09 -1.58 47.43 -3.682 z m 45.49 -21.91 c 0 -7.936 0.944 -6.987 -69.35 -6.987 -66.29 0 -62.42 -0.506 -66.45 3.528 -3.323 3.323 -2.429 6.79 -0.282 8.15 1.462 0.926 28.332 -0.065 67.61 -0.049 67.48 0.028 68.48 -1.338 68.48 -4.643 z" transform="matrix(0.98129 0 0 1 4.644 0.832)" fill="#4276ad"/><path d="m 214.78 74.847 a 29.831 28.2 0 1 1 -59.661 0 29.831 28.2 0 1 1 59.661 0 z" transform="translate(0.369 -4.702)" fill="#02ff01"/><path transform="matrix(0.57683 0 0 0.41619 79.18 25.822)" d="m 214.78 74.847 a 29.831 28.2 0 1 1 -59.661 0 29.831 28.2 0 1 1 59.661 0 z" fill="#fff"/><rect width="26.62" height="8.319" x="165.86" y="166.05" rx="4.972" ry="3.316" fill="#00bfff"/></svg>