<svg xmlns="http://www.w3.org/2000/svg" viewBox="0 0 256 256"><path d="m 193.83 815.03 c 225.34 193.41 -237.98 379.39 -190.37 80.26 10.438 -65.59 129.65 -132.38 190.37 -80.26 z" fill="#fd9208" color="#000" transform="translate(0 -796.36)"/><g transform="matrix(1.99118 0 0 1.94213 -104.66 -114.88)"><path d="m 147.05 154.33 c -2.053 2.563 -3.145 3.085 -4.245 3.521 -0.632 0.25 -3.685 1.245 -4.611 0.164 -1.081 -1.261 -1.591 -4.814 -1.591 -6.01 0 -0.608 0.485 -1.08 1.833 -2.431 2 -2 4.527 -2.769 7.264 -4.203 2.584 -1.353 5.487 -2.811 6.676 -2.811 0 0 -4.03 9.499 -5.326 11.766 z" fill="#d63c00"/><g fill="#fff"><path d="m 146.35 144.5 c 0.736 -2.678 4.911 -6.896 9.09 -12.22 2.871 -3.663 4.95 -5.683 6.489 -6.305 0.884 -0.358 1.039 -0.273 2.334 1.271 1.511 1.803 2.894 5.01 2.894 6.72 0 0.869 -0.455 1.544 -2.341 3.474 -4.045 3.308 -10.698 10.894 -15.45 11.16 -1.2 0 -3.212 -3.364 -3.01 -4.099 z"/><path d="m 163.26 196.53 c -8.834 -1.145 -21.762 -6.694 -27.16 -11.658 -1.827 -1.68 -3.545 -3.054 -3.817 -3.054 -0.272 0 -4.04 1.72 -8.38 3.822 -10.05 4.873 -15.22 6.264 -23.261 6.264 -7.269 -0.001 -12.572 -1.311 -19.14 -4.728 -8.578 -4.463 -14.14 -11.85 -18.499 -24.578 -2.431 -7.096 -2.386 -10.739 0.243 -19.337 6.076 -19.876 11.393 -35.25 29.423 -51.8 26.346 -24.19 56.943 -36.513 70.63 -29.888 7.07 3.42 10.553 13.941 9.912 29.906 -0.56 13.968 -3.16 23.962 -13.451 51.715 -3.01 20.668 -17.213 34.886 0.349 41.1 2.756 -1.359 7.446 0.275 7.737 0.275 0.778 0 7.293 8.261 7.06 8.954 -0.77 2.311 -6.209 3.718 -11.646 3.01 z m -47.27 -36.971 c 12.12 -3.158 22.307 -15.395 28.25 -33.942 1.906 -5.949 3.35 -13.944 3.341 -18.487 -0.019 -9.229 -4.091 -15.234 -9.96 -14.688 -8.44 0.785 -28.58 15.214 -37.3 26.722 -6.433 8.489 -9.636 17.744 -8.318 24.03 1.577 7.519 6.792 14.87 11.6 16.351 3.371 1.038 8.434 1.044 12.389 0.014 z" transform="matrix(0.50222 0 0 0.5149 52.56 59.15)"/></g><path d="m 167.72 134.74 c -1.02 0.396 -1.199 0.303 -2.693 -1.406 -1.744 -1.995 -3.339 -5.547 -3.339 -7.435 0 -0.961 3.589 -5.735 5.765 -7.871 7.588 -7.894 10.125 -6.779 12.349 2.508 1.055 4.405 -2.283 10.33 -12.08 14.204 z" fill="#b12601"/></g><path d="m 99.2 255.38 c -16.984 -1.249 -37.24 -5.578 -51.31 -13.979 -19.01 -11.351 -29.489 -25.321 -39.35 -48.613 -3.684 -8.705 -7.167 -24.97 -7.167 -27.464 c 0 -1.252 0.203 -1.276 1.49 -0.177 36.12 30.881 75.93 48.647 120.38 53.718 10.607 1.21 35.678 1.201 46.17 -0.016 12.231 -1.419 26.26 -4.321 38.07 -7.877 16.403 -4.937 14.878 -4.703 12.11 -1.861 -4.324 4.442 -19.672 16.03 -28.12 21.23 -22.328 13.745 -47.12 22.289 -71.69 24.709 -9.185 0.905 -12.13 0.952 -20.595 0.33 z" fill="#f35a03"/></svg>