<svg xmlns="http://www.w3.org/2000/svg" viewBox="0 0 256 256"><path d="m 73.17 255.04 c 368.15 25.429 92.2 -465.65 -64.2 -142.29 -21.558 49.828 -5.804 124.13 64.2 142.29 z" fill="#182441" color="#000"/><path d="m 0.348 145.67 l -11.173 -6.295 l -4.699 2.601 c -2.584 1.431 -6 3.337 -7.593 4.237 l -2.894 1.636 l -17.646 -9.866 c -9.705 -5.426 -18.809 -10.654 -20.23 -11.616 l -2.584 -1.75 l 0.25 -22.454 l 0.25 -22.454 l 9.803 -5.612 c 5.392 -3.087 10.578 -6.164 11.526 -6.839 1.582 -1.128 1.764 -3.346 2.241 -27.322 0.285 -14.352 0.771 -26.463 1.079 -26.914 0.818 -1.197 64.62 -35.708 66.01 -35.708 1.299 0 57.802 32.555 62.746 36.15 l 3.087 2.246 l -0.575 35.18 c -0.316 19.351 -0.743 36.01 -0.947 37.01 -0.268 1.316 -7.431 5.646 -25.6 15.473 l -25.23 13.645 l -0.034 10.01 c -0.019 5.507 -0.343 10.458 -0.72 11 -1 1.448 -23.22 14.04 -24.667 13.975 -0.675 -0.029 -6.256 -2.884 -12.401 -6.346 z m 8.178 -20.06 c -0.406 -0.375 -3.575 -2.191 -7.04 -4.03 l -6.302 -3.352 v 8.05 v 8.05 l 6.769 3.661 l 6.769 3.661 l 0.272 -7.679 c 0.15 -4.223 -0.06 -7.986 -0.467 -8.361 z m 21.939 0.935 l 0.27 -8.334 l -6.805 3.677 l -6.805 3.677 l -0.27 8.334 l -0.27 8.334 l 6.805 -3.677 l 6.805 -3.677 l 0.27 -8.334 z m -59.56 -6.181 v -16.229 l -14.179 -7.663 c -7.798 -4.215 -14.521 -7.799 -14.938 -7.966 -0.867 -0.346 -1.025 25.05 -0.187 29.884 0.523 3.02 1.28 3.581 14.228 10.628 7.522 4.094 13.991 7.473 14.376 7.509 0.385 0.036 0.7 -7.237 0.7 -16.16 z m 12.891 13.838 l 4.186 -2.391 l -0.583 -10.124 c -0.32 -5.568 -0.239 -10.655 0.18 -11.305 0.42 -0.649 4.927 -3.517 10.02 -6.373 l 9.254 -5.192 l 0.28 -5.232 c 0.154 -2.877 0.038 -5.232 -0.257 -5.232 -0.296 0 -6.829 3.541 -14.518 7.87 l -13.981 7.87 v 16.25 c 0 8.938 0.278 16.25 0.618 16.25 0.34 0 2.502 -1.076 4.804 -2.391 z m 35.545 -17.777 c 8.472 -4.64 8.446 -4.26 0.596 -8.695 l -7.07 -3.996 l -6.975 3.869 c -3.836 2.128 -6.66 4.169 -6.274 4.535 1.423 1.353 11.947 7 13.192 7.081 0.708 0.045 3.649 -1.212 6.536 -2.793 z m 40.86 -19.215 l 21.511 -11.623 l 0.614 -22.509 c 0.338 -12.38 0.615 -26.466 0.616 -31.3 l 0.002 -8.795 l -27.309 14.862 l -27.309 14.862 v 25.728 v 25.728 l 4.201 2.503 c 2.311 1.377 4.643 2.428 5.183 2.335 0.54 -0.092 10.661 -5.398 22.492 -11.79 z m -39.812 -21.511 v -23.577 l -26.947 -15.11 c -14.821 -8.308 -27.21 -15.11 -27.543 -15.11 -0.328 0 -0.596 8.982 -0.596 19.96 v 19.96 l 4.083 -2.225 c 2.741 -1.494 4.671 -1.996 5.87 -1.529 0.983 0.383 10.07 5.359 20.19 11.06 11.378 6.407 18.443 10.924 18.505 11.832 0.055 0.808 0.02 4.382 -0.077 7.943 -0.166 6.06 -0.013 6.599 2.36 8.419 1.395 1.07 2.901 1.945 3.345 1.945 0.444 0 0.808 -10.609 0.808 -23.577 z m -31.19 14.247 c 7.382 -4.13 13.429 -7.726 13.438 -7.991 0.037 -1.077 -28.38 -16.406 -29.581 -15.957 -2.824 1.056 -27.356 15.25 -27.356 15.827 0 0.837 27.22 15.582 28.809 15.609 0.697 0.012 7.306 -3.358 14.688 -7.488 z m 62.687 -58.09 c 14.767 -8.05 26.963 -14.744 27.1 -14.88 0.464 -0.453 -53.12 -31.469 -54.37 -31.469 -1.778 0 -53.916 28.562 -54.05 29.609 -0.082 0.647 52.878 31.26 54.25 31.357 0.122 0.008 12.303 -6.569 27.07 -14.617 z" fill="#e8e8e8" transform="matrix(0.92248 0 0 0.87809 115.53 77.35)"/></svg>