<svg xmlns="http://www.w3.org/2000/svg" viewBox="0 0 256 256"><path d="m 25.471 80.3 c -12.13 20.256 -22.614 40.5 -21.08 60.57 4.755 65.31 62.33 112.42 117.62 113.01 74.51 -6.08 147.14 -59.01 130.79 -124.9 -11.874 -47.24 -41.32 -79.22 -67.804 -104.77 -54.756 -47.698 -102.86 -20.821 -159.52 56.09 z" fill="#0071c5"/><g transform="matrix(0.90019 0 0 0.93309 12.867 6.374)" fill="#fff"><path d="m 87.44 188.26 c -16.915 -13.05 -46.22 -37.794 -46.22 -39.02 c 0 -0.782 5.492 -7.969 12.203 -15.971 43.11 -51.39 71.27 -84.39 73.75 -86.42 1.957 -1.598 7.419 4.345 43.674 47.51 10.739 12.786 25.26 30.07 32.27 38.4 7.01 8.334 12.746 15.765 12.746 16.514 0 1.154 -14.268 13.165 -46.28 38.958 -10.202 7.451 -33.577 26.595 -40.883 31.965 -15.265 -8.882 -29.05 -22.432 -41.26 -31.941 z m 52.32 4.998 c 3.664 -3.42 4.438 -6.098 3.963 -12.555 0.591 -2.866 5.01 -7.353 15.532 -15.767 7.607 -6.083 6.815 -5.815 16.236 -5.504 7.785 0.257 11.13 -1.334 13.846 -6.586 2.399 -4.639 3.69 -8.916 0.965 -14.257 -2.893 -5.672 -6.748 -8.971 -14.304 -8.154 l -7.565 0.818 l -9.67 -10.576 c -14.762 -16.15 -15.579 -17.288 -15.579 -21.785 0 -9.717 -4.758 -16.867 -12.04 -18.1 -9.09 -1.535 -16.585 4.079 -17.78 13.312 -1.02 7.881 -2.353 9.972 -15.16 23.778 l -12.744 14.19 l -6.672 -0.739 c -6.691 -0.742 -7.853 0.996 -10.613 4.085 -5.797 6.488 -4.03 17.837 3.459 22.263 5.865 2.501 9.973 1.798 16.02 0.411 l 12.548 10.312 c 14.02 11.518 15.393 11.989 13.698 17.472 1.708 11.957 19.553 13.734 25.864 7.381 z"/><path d="m 111.84 165.42 c -3.648 -2.686 -9.07 -7.233 -12.05 -10.11 -5.305 -5.113 -5.418 -5.357 -5.418 -11.655 v -6.433 l 13.812 -13.417 l 13.812 -13.417 l 0.895 4.193 c 0.492 2.306 0.744 15.316 0.561 28.912 -0.278 20.538 -0.609 24.892 -1.961 25.746 -2.386 1.507 -2.437 1.486 -9.649 -3.822 z"/><path d="m 134.23 167.46 l -2.975 -1.559 v -16.07 c 0 -22.276 1.131 -39.18 2.621 -39.18 0.664 0 7.423 6.231 15.02 13.846 13.258 13.287 13.815 14.03 13.815 18.352 0 2.478 -0.294 5.271 -0.652 6.207 -0.678 1.766 -18.858 16.872 -22.677 18.843 -1.597 0.824 -2.97 0.708 -5.153 -0.436 z"/></g></svg>