<svg xmlns="http://www.w3.org/2000/svg" xmlns:xlink="http://www.w3.org/1999/xlink" viewBox="0 0 256 256"><defs><path d="m 245.46 129.52 l -97.89 -96.9 c -5.556 -5.502 -16.222 -11.873 -23.7 -14.16 l -39.518 -12.08 c -7.479 -2.286 -18.1 0.391 -23.599 5.948 l -13.441 13.578 c -5.5 5.559 -14.502 14.653 -20 20.21 l -13.44 13.579 c -5.5 5.558 -8.07 16.206 -5.706 23.658 l 12.483 39.39 c 2.363 7.456 8.843 18.06 14.399 23.556 l 97.89 96.9 c 5.558 5.502 14.605 5.455 20.1 -0.101 l 36.26 -36.63 c 5.504 -5.559 14.503 -14.651 20 -20.21 l 36.26 -36.629 c 5.502 -5.56 5.455 -14.606 -0.101 -20.11 z m -178.09 -50.74 c -7.198 0 -13.03 -5.835 -13.03 -13.03 0 -7.197 5.835 -13.03 13.03 -13.03 7.197 0 13.03 5.835 13.03 13.03 -0.001 7.198 -5.836 13.03 -13.03 13.03 z" id="0"/><use id="1" xlink:href="#0"/><clipPath id="2"><use xlink:href="#0"/></clipPath><clipPath clip-path="url(#2)"><use xlink:href="#1"/></clipPath><clipPath clip-path="url(#2)"><use xlink:href="#1"/></clipPath></defs><g fill="#708090" color="#000"><path d="M 212.32,840.15 C 342.21,945 152.05,1134.27 37.11,1013.36 -78.08,909.3 101.7,707.34 212.32,840.15 z" transform="matrix(1 0 0 -1 0 1052.37)"/></g><g transform="matrix(0.91936 0 0 0.92633 7.342 5.485)"><g fill="#133cc4" stroke="#133cc4" stroke-width="2.169"><path d="m 70.785 134.48 c -2.027 -2.239 -2.352 -14.277 -1.093 -40.511 0.687 -14.318 0.082 -16.639 2.412 -16.193 9.354 -3.348 15.4 -1.476 22.308 -1.455 12.09 0.048 15.967 0.437 18.686 1.877 4.213 2.231 7.436 6.206 9.08 11.201 1.107 3.355 0.917 4.459 -1.687 9.78 -2.494 4.5 -3.577 5.31 -0.234 8.896 3.885 4.168 5.135 7.06 5.135 11.887 0 5.674 -3.694 11.01 -9.73 14.06 -4.466 2.256 -6.277 2.441 -23.959 2.441 -17.15 0 -19.313 -0.205 -20.923 -1.984 z m 33.823 -15.861 c 0.443 -3.895 -1.688 -7.698 -6.656 -7.698 -5.556 0 -9.282 1.628 -9.282 5.488 0 1.925 0.682 6.867 1.106 7.291 0.424 0.424 5.153 0.292 8.458 0.116 3.969 -0.462 6.06 -2.608 6.373 -5.197 z m -2.208 -20.338 c 0.512 -0.873 1.302 -2.205 1.302 -3.31 0 -2.554 -6.939 -5.441 -10.65 -4.51 -2.182 0.548 -4.381 1.017 -4.381 3.841 0 1.924 0.325 5.502 0.723 5.9 1.235 1.235 10.627 2.136 13.01 -1.921 z" opacity="0.95"/><path d="m 131.63 135.35 c -2.197 -1.349 -2.37 -7.205 -1.182 -40.02 l 0.717 -19.785 l 19.08 0.361 c 17.18 0.325 19.525 0.599 23.554 2.75 5.219 2.786 9.699 7.765 12.484 13.873 2.802 6.147 2.799 22.422 -0.005 28.964 -2.433 5.677 -8.32 11.12 -13.94 12.884 -5.507 1.731 -38.2 2.513 -40.708 0.973 z m 34.541 -17.44 c 1.561 -1.725 2.156 -4.322 2.444 -10.663 0.342 -7.536 0.123 -8.681 -2.166 -11.334 -2.023 -2.344 -3.8 -3.079 -8.636 -3.575 -4.062 -0.416 -6.348 -0.206 -6.866 0.633 -1.24 2.01 -2.051 16.686 -1.226 22.19 l 0.754 5.03 h 6.816 c 5.549 0 7.2 -0.424 8.88 -2.28 z" opacity="0.95"/></g><path d="m 110.75 187.72 c -1.861 -1.973 -1.865 -2.285 -0.073 -6.784 1.319 -3.312 3.252 -5.623 6.496 -7.764 4.786 -4.052 15.04 -10.03 14.52 -16.16 -0.427 -4.18 -3.835 -4.702 -7.34 -1.124 -3.197 3.264 -9.62 3.65 -12.363 0.743 -1.044 -6.224 5.241 -8.955 8.457 -11.626 7.496 -6.716 22.556 -1.614 24.913 8.859 1.057 4.696 -0.828 9.313 -6.316 15.476 -2.727 3.062 -4.959 5.868 -4.959 6.236 0 0.368 1.879 0.669 4.176 0.669 5.164 0 7.77 2.49 7.77 7.426 0 5.782 -0.982 6.116 -17.968 6.116 -4.856 -0.905 -14.1 1.206 -17.313 -2.068 z" opacity="0.95" fill="#f5f5f5" stroke="#dcdcdc" stroke-width="2.127"/><g fill="#060606" stroke="#060606" stroke-width="0.647"><path d="m 83.72 190.34 c -3.75 -0.277 -6.486 -1.503 -9.434 -4.226 -3.705 -3.422 -5.714 -7.474 -5.714 -11.523 -0.053 -1.796 -0.372 -2.149 1.384 -2.391 9.152 -2.096 10.764 7.785 17.368 8.08 4.76 -0.655 4.05 -4.01 4.05 -4.656 -3.944 -4.731 -11.369 -5.03 -15.864 -8.456 -4.496 -3.632 -6.82 -9.409 -5.775 -14.355 0.555 -2.627 1.507 -4.39 3.356 -6.217 3.079 -3.041 7.883 -4.573 14.387 -4.589 6.14 -0.015 9.911 1.488 13.711 5.465 3.774 3.95 4.801 7.754 2.665 9.863 -1.085 1.071 -2.01 2.985 -4.288 1.441 -1.667 -1.131 -5.242 -4.895 -8.988 -6.594 -2.068 -0.018 -4.944 -2.613 -6.19 2.632 0.319 3.207 5.874 6.05 3.363 4.88 7.149 4.294 13.68 1.379 17.998 9.09 0.886 5.272 1.833 8.426 -0.366 12.704 -1.55 3.02 -4.513 5.898 -7.622 7.415 -4.775 2.131 -10.378 1.711 -14.04 1.441 z" opacity="0.95"/><path d="m 166.79 190.38 c -3.75 -0.277 -6.486 -1.503 -9.434 -4.226 -3.705 -3.422 -5.714 -7.474 -5.714 -11.523 -0.053 -1.796 -0.372 -2.149 1.384 -2.391 9.152 -2.096 10.764 7.785 17.368 8.08 4.76 -0.655 4.05 -4.01 4.05 -4.656 -3.944 -4.731 -11.369 -5.03 -15.864 -8.456 -4.495 -3.632 -6.82 -9.409 -5.775 -14.355 0.555 -2.627 1.507 -4.39 3.356 -6.217 3.079 -3.041 7.883 -4.573 14.387 -4.589 6.14 -0.015 9.911 1.488 13.711 5.465 3.774 3.95 4.801 7.754 2.665 9.863 -1.085 1.071 -2.01 2.985 -4.288 1.441 -1.667 -1.131 -5.242 -4.895 -8.988 -6.594 -2.068 -0.018 -4.944 -2.613 -6.19 2.632 0.319 3.207 5.874 6.05 3.363 4.88 7.149 4.294 13.68 1.379 17.998 9.09 0.886 5.272 1.833 8.426 -0.366 12.704 -1.55 3.02 -4.513 5.898 -7.622 7.415 -4.775 2.131 -10.378 1.711 -14.04 1.441 z" opacity="0.95"/></g></g></svg>