<svg xmlns="http://www.w3.org/2000/svg" viewBox="0 0 256 256"><defs><clipPath><path d="m -24 13 c 0 1.105 -0.672 2 -1.5 2 -0.828 0 -1.5 -0.895 -1.5 -2 0 -1.105 0.672 -2 1.5 -2 0.828 0 1.5 0.895 1.5 2 z" transform="matrix(15.33333 0 0 11.5 415 -125.5)"/></clipPath></defs><g fill="#58585b" color="#000"><path d="M 225.57,1004.7 C 287.88,909.48 237.6,822.73 167.06,802.15 72.17,774.466 -56.66,847.22 28.23,997.16 c 33.741,59.59 152.95,75.37 197.34,7.545 z" transform="matrix(0 1 -1 0 1050.73 1.354)"/></g><path d="m 158.78 151.14 a 34.403 47.965 0 1 1 -0.001 -0.326 l -34.402 0.326 z" transform="matrix(1.54901 0 0 1.18688 -74.901 -37.507)" fill="#ebecec" stroke="#f2f2f3" stroke-width="1.678"/><g transform="matrix(0.90174 0 0 0.87313 -117.81 104.87)"><path d="m 224.47 97.48 c -6.917 -4.607 -12.949 -9.857 -17.387 -15.13 -4.704 -5.59 -9.873 -13.8 -11.05 -17.542 -4.218 -11.438 -8.636 -30.28 -4.557 -41.994 1.392 -6.254 3.944 -12.367 6.645 -17.748 5.314 -10.654 14.369 -21.321 25.662 -30.23 5.71 -4.503 17.05 -11.07 21.542 -12.473 2.703 -1.514 6.01 -2.206 8.486 -3.404 5.03 -1.328 9.788 -3.927 15.05 -4.02 1.215 0 5.331 -0.618 9.147 -1.373 12.07 -2.388 16.13 -0.949 10.677 3.784 -2.214 1.922 -2.546 2.611 -2.546 5.28 0 3.695 1.065 4.32 4.809 2.825 1.437 -0.574 4.329 -1.232 6.426 -1.461 10.994 -2.969 21.711 -6.946 30.904 -11.614 5.11 -2.609 17.678 -12.309 17.412 -13.438 -0.097 -0.412 0.44 -0.749 1.194 -0.749 1.083 0 1.471 0.635 1.85 3.03 0.584 3.694 -0.118 14.16 -1.438 21.421 -1.936 9.02 -2.427 17.928 -5.393 25.904 -1.682 4.262 -2.879 8.711 -4.515 12.95 -1.898 4.891 -1.874 5.593 0.393 11.891 4.307 12.213 5.27 27.574 2.907 38.526 -0.861 3.78 -2 7.85 -2.533 9.04 -4.454 10 -5.856 12.553 -10.836 19.714 -2.759 3.968 -12.36 12.936 -17.29 16.15 -6.186 4.339 -14.08 6.779 -20.456 9.501 -23.683 6.126 -46.17 3.01 -65.11 -8.846 z m 44.783 -15.11 c 2.467 -0.613 7.091 -3.274 7.598 -4.372 3.266 -3.405 8.099 -10.198 6.148 -13.154 -3.158 -4.664 -9.495 -1.622 -17.706 1.267 -6.982 2.457 -13.482 4.072 -16.347 4.063 -3.363 -0.011 -4.967 1.22 -3.609 2.77 1.477 1.686 7.806 6.346 10.414 7.668 5.651 2.864 7.881 3.155 13.503 1.759 z m -15.821 -46.952 c 7.405 -1.349 20.635 -8.635 27.406 -15.09 3.815 -3.681 8.38 -8.879 7.954 -13.323 -0.397 -3.919 -1.203 -4.77 -6.217 -6.568 c -7.177 -2.573 -8.08 -2.729 -17.99 -3.093 -7.743 -0.89 -9.278 -0.823 -15.08 3.488 -4.719 3.504 -13.14 12.493 -14.08 15.04 c -2.604 4.932 -5.46 10.229 -6.267 15.782 -0.596 4.234 0.982 3.875 4.333 4.612 2.168 0.488 15.799 -0.091 19.948 -0.847 z" fill="#008ed0" stroke="#0098da"/><path d="m 333.94 69.847 c -0.007 -2.506 -0.237 -3.547 -1.104 -5.03 -1.476 -2.521 -5.03 -6.146 -8.116 -8.284 -3.03 -2.097 -10.993 -5.359 -18.18 -7.449 l -5.201 -1.512 l 4.897 -4.346 c 5.312 -4.714 19.482 -18.3 22.929 -21.983 2.504 -2.676 5.771 -7.531 7.31 -10.862 l 1.088 -2.355 l 2.271 6.089 c 4.234 11.352 5.52 19.467 4.582 28.917 -0.911 9.176 -3.035 16.361 -7.235 24.478 -3.102 5.995 -3.227 6.085 -3.24 2.334 z" fill="#3b3c3d" stroke="#727577" stroke-width="0.735"/></g></svg>