<svg xmlns="http://www.w3.org/2000/svg" viewBox="0 0 256 256"><g color="#000"><path d="M 219.27,843.52 C 378.99,1071.5 -36.39,1144.06 4.81,901.81 26.646,805.46 155.29,752.19 219.27,843.52 z" transform="matrix(1 0 0 -0.99576 0 1048.99)" fill="#eee8aa"/></g><g transform="matrix(0.52703 0 0 0.56164 9.458 15.02)"><path d="m 186.77 332.72 c -12.264 -6.521 -34.806 -16.34 -35.91 -26.326 -7.244 -21.82 1.155 -44.691 12.253 -49.22 10.03 -5.057 17.91 -7.138 23.305 -11.775 18.312 -11.726 88.71 -2.238 94.95 27.03 2.779 7.208 7.679 12.719 7.722 19.16 -1.143 31.09 -32.679 30.39 -43.632 41.13 -9.138 3.64 -53.822 4.942 -58.688 0 z" fill="#ff0"/><path d="m 187.7 336.63 c -2.386 -2.49 -3.663 -3 -7.52 -3 -7.788 -0.182 -9.122 -7.969 -15.549 -8 -8.01 -1.408 -15.391 -8.477 -15.431 -15.431 0 -4.02 -0.408 -4.803 -4 -7.689 -5.371 -3.126 -4 -6.877 -4 -12.38 -0.565 -6.159 -0.704 -8.6 4 -12.38 3.592 -2.886 4 -3.671 4 -7.689 0 -4.088 0.473 -4.948 5.478 -9.953 4.03 -3.672 25.39 -13.467 25.642 -13.478 4.381 0 5.057 -0.338 8 -4 5.566 -7.962 19.242 -4 28.38 -4 10.02 1.123 21.86 -4.113 28.38 4 5.13 5.917 12.13 3.213 16 8 6.177 5.303 12.763 5.09 17.372 9.393 5.369 5.04 5.749 5.694 5.749 9.953 0 4.117 0.388 4.872 4 7.774 5.371 3.126 4 6.877 4 12.38 0.565 6.159 0.704 8.6 -4 12.38 -5.472 6.438 -4.832 12.978 -9.478 17.642 -5.01 5.01 -5.865 5.478 -9.953 5.478 -4.02 0 -4.803 0.408 -7.689 4 -4.251 6.03 -11.246 2.745 -15.38 7 -6.431 6.577 -20.02 3 -29 3 -9.396 -1.546 -22.14 4.156 -29 -3 z m 64.27 -18 c 4.298 0 4.762 -0.325 14.833 -10.395 l 10.395 -10.395 v -7.709 v -7.709 l -10.395 -10.395 c -10.07 -10.07 -10.534 -10.395 -14.833 -10.395 -6.417 -0.817 -7.158 -3.385 -10.866 -8 h -24.406 h -24.406 c -3.145 4.535 -7.148 7.984 -11.214 8 -7.52 -0.057 -7.543 5.951 -13.753 8.195 -4.566 1.88 -3.262 7.22 -8.126 7.959 -2.45 0.339 -2.506 0.541 -2.787 10.163 l -0.287 9.818 l 10.432 10.432 c 10.11 10.11 10.57 10.432 14.87 10.432 6.417 0.817 7.158 3.385 10.866 8 h 24.406 h 24.406 c 3 -4.243 6.861 -7.98 10.866 -8 z m 22.16 -66.58 c -1.839 -2.216 -0.003 -4.832 3.67 -5.231 2.195 -0.238 6.359 -3.755 17.15 -14.487 l 14.25 -14.173 v -12.09 c 0 -16.696 0.3 -16.437 -19.11 -16.437 -9.933 0 -14.863 -0.377 -15.686 -1.2 -1.655 -4.197 -1.527 -8.403 0 -12.6 0.824 -0.824 5.783 -1.2 15.826 -1.2 14.04 0 14.714 -0.094 16.823 -2.339 l 2.198 -2.339 l -12.02 -11.675 l -12.02 -11.675 c 0 -5.597 0 -11.194 0 -16.791 l 9.59 -9.59 l 9.59 -9.59 c 8.214 0 16.427 0 24.641 0 l 9.59 9.59 l 9.59 9.59 c 0 5.597 0 11.194 0 16.791 l -12.02 11.675 l -12.02 11.675 l 2.198 2.339 c 10.08 4.106 14.686 2.339 27.849 2.339 0 5 0 10 0 15 -7.692 1.036 -23.05 -2.664 -27.826 2.314 -3.696 9.732 -2.174 14.09 -2.174 26.21 l 15 14.975 c 12.1 12.08 15 15.509 15 17.738 0 2.647 -0.208 2.762 -4.985 2.762 h -4.985 l -11.653 -12 c -11.265 -11.6 -11.794 -12 -15.877 -12 -4.083 0 -4.612 0.4 -15.877 12 l -11.653 12 c -4.766 -0.24 -11.311 0.831 -15.04 -1.584 z m 59.07 -105.86 c -0.467 -5.599 1.399 -14.34 -2.174 -18.243 -2.039 -2.17 -2.923 -2.314 -14.186 -2.314 -10.956 0 -12.215 0.191 -14.326 2.174 -3.641 6.664 -2.314 10.04 -2.314 18.272 4.755 4.38 10.645 12.503 16.444 12.554 8.463 -2.295 10.03 -5.973 16.556 -12.442 z m -235 87.94 c 0 -3.285 0.201 -3.5 3.263 -3.5 2.866 0 4.995 -1.735 17.5 -14.263 l 14.237 -14.263 v -12.06 c 0 -16.745 0.402 -16.412 -19.814 -16.412 h -15.186 c 0 -5 0 -10 0 -15 h 15.326 c 14.774 0 15.405 -0.084 17.523 -2.339 l 2.198 -2.339 l -12.02 -11.675 l -12.02 -11.675 c 0 -5.597 0 -11.194 0 -16.791 6.393 -6.393 12.786 -12.786 19.18 -19.18 8.214 0 16.427 0 24.641 0 6.393 6.393 12.786 12.786 19.18 19.18 0 5.597 0 11.194 0 16.791 l -12.02 11.675 l -12.02 11.675 l 2.198 2.339 c 9.774 5.452 16.604 -0.351 28.649 3.539 1.557 1.557 1.557 11.04 0 12.6 -8.327 3.677 -22.689 -2.677 -28.626 3.514 -1.984 2.111 -2.174 3.369 -2.174 14.339 v 12.03 l 16.12 15.851 c 17.906 17.602 18.433 18.719 9.09 19.27 l -5.084 0.3 l -11.701 -12.05 c -11.314 -11.651 -11.841 -12.05 -15.925 -12.05 -4.083 0 -4.612 0.4 -15.877 12 l -11.653 12 c -4.99 0 -9.98 0 -14.97 0 z m 59 -103.94 c -0.467 -5.599 1.399 -14.34 -2.174 -18.243 -2.039 -2.17 -2.923 -2.314 -14.186 -2.314 -10.956 0 -12.215 0.191 -14.326 2.174 -3.641 6.664 -2.314 10.04 -2.314 18.272 4.755 4.38 10.645 12.503 16.444 12.554 8.463 -2.295 10.03 -5.973 16.556 -12.442 z m 28.93 97.86 c -1.839 -2.216 -0.003 -4.832 3.67 -5.231 2.195 -0.238 6.359 -3.755 17.15 -14.487 l 14.25 -14.173 v -12.09 c 0 -16.696 0.3 -16.437 -19.11 -16.437 -9.933 0 -14.863 -0.377 -15.686 -1.2 -1.557 -1.557 -1.557 -11.04 0 -12.6 0.824 -0.824 5.783 -1.2 15.826 -1.2 14.04 0 14.714 -0.094 16.823 -2.339 l 2.198 -2.339 l -12.02 -11.675 l -12.02 -11.675 c 0 -5.597 0 -11.194 0 -16.791 6.393 -6.393 12.786 -12.786 19.18 -19.18 8.214 0 16.427 0 24.641 0 6.393 6.393 12.786 12.786 19.18 19.18 0 5.597 0 11.194 0 16.791 l -12.02 11.675 l -12.02 11.675 l 2.198 2.339 c 2.079 2.213 2.88 2.339 14.823 2.339 8.487 0 13.02 0.393 13.826 1.2 1.557 1.557 1.557 11.04 0 12.6 -0.807 0.807 -5.339 1.2 -13.826 1.2 -11.905 0 -12.75 0.132 -14.8 2.314 -1.984 2.111 -2.174 3.369 -2.174 14.339 v 12.03 l 16.12 15.851 c 17.906 17.602 18.433 18.719 9.09 19.27 l -5.084 0.3 l -11.701 -12.05 c -11.314 -11.651 -11.841 -12.05 -15.925 -12.05 -4.083 0 -4.612 0.4 -15.877 12 l -11.653 12 h -6.863 c -5.04 0 -7.212 -0.42 -8.177 -1.584 z m 59.07 -105.86 c -0.467 -5.599 1.399 -14.34 -2.174 -18.243 -2.039 -2.17 -2.923 -2.314 -14.186 -2.314 -10.956 0 -12.215 0.191 -14.326 2.174 -3.641 6.664 -2.314 10.04 -2.314 18.272 4.755 4.38 10.645 12.503 16.444 12.554 8.463 -2.295 10.03 -5.973 16.556 -12.442 z"/></g></svg>