<svg xmlns="http://www.w3.org/2000/svg" viewBox="0 0 256 256" xmlns:xlink="http://www.w3.org/1999/xlink"><defs><clipPath><path d="m -24 13 c 0 1.105 -0.672 2 -1.5 2 -0.828 0 -1.5 -0.895 -1.5 -2 0 -1.105 0.672 -2 1.5 -2 0.828 0 1.5 0.895 1.5 2 z" transform="matrix(15.33333 0 0 11.5 415 -125.5)"/></clipPath></defs><path d="m 231.89 202.25 c 88.82 -107.31 -94.3 -267.79 -195.34 -173.28 -113.47 103.7 70.61 306.9 183.86 191.43 c 6.929 -6.05 7.648 -12.1 11.47 -18.14" fill="#2c2d2d"/><g transform="matrix(0.93911 0 0 0.94101 7.822 8.294)"><path d="m 68.53 145.52 c -4.342 -2.149 -11.988 -9.44 -12.582 -12.186 -1.366 -6.32 0.066 -88.22 0.885 -89.94 0.984 -2.064 3.867 -2.024 4.988 0.069 0.485 0.907 1.156 3.709 1.49 6.227 0.763 5.749 1.308 6.55 13.924 20.434 5.703 6.276 11.285 13.12 12.405 15.22 2.034 3.802 2.575 9.361 1.242 12.758 c -0.548 1.396 -0.947 0.974 -2.215 -2.345 -0.85 -2.227 -2.953 -5.692 -4.672 -7.701 -3.224 -3.766 -16.489 -12.859 -18.76 -12.859 c -1.799 0 -2.449 5.908 -2.321 21.1 0.148 17.672 0.178 17.768 5.969 19.07 11.01 2.48 20.685 14.203 17.945 21.754 -2.079 5.728 -7.485 10.233 -12.292 10.243 -1.241 0.003 -3.943 -0.83 -6.01 -1.851 z" fill="#ff8a80"/><path d="m 172.73 223.47 c -1 -1.205 -1.292 -9.47 -1.519 -43.08 -0.154 -22.874 -0.024 -43.72 0.29 -46.32 0.484 -4.02 1.231 -5.457 4.915 -9.488 4.786 -5.236 10.916 -8.784 15.178 -8.784 3.164 0 9.905 4.695 11.718 8.161 1.332 2.547 0.72 8.981 -1.21 12.713 -1.518 2.935 -7.637 8.281 -11.671 10.195 -1.635 0.776 -4.79 1.411 -7.01 1.411 -3.799 0 -4.07 0.166 -4.6 2.819 -0.738 3.691 -0.73 33.11 0.01 36.815 0.67 3.351 1.226 3.253 7.284 -1.284 2.377 -1.78 6.113 -4.539 8.302 -6.132 5.773 -4.2 7.682 -8.46 8.06 -17.992 0.289 -7.232 0.447 -7.808 1.924 -7.02 2.173 1.163 2.776 2.915 3.686 10.702 0.736 6.295 0.642 6.898 -1.841 11.816 -1.439 2.851 -5.753 8.595 -9.588 12.764 -12.911 14.04 -18.374 22.328 -18.395 27.906 -0.009 2.345 -2.241 6.291 -3.558 6.291 -0.407 0 -1.298 -0.671 -1.979 -1.491 z" fill="#b1e3fb"/><path d="m 59.02 181.69 c -6.72 -8.818 -10.404 -16.747 -10.404 -22.395 0 -5.423 0.427 -6.107 3.817 -6.107 2.869 0 4.447 1.437 6.35 5.783 2.939 6.712 4.566 10.599 7.28 2.479 1.632 -4.883 5.782 -4.189 8.344 -0.826 3.069 4.03 2.923 9.87 8.293 -3.424 1.868 -4.626 2.991 -5.79 5.71 -5.37 4.759 0.736 5.387 8.127 1.23 14.485 -1.747 2.672 -4.191 7.503 -5.432 10.737 -2.477 6.456 -7.098 10.981 -10.776 3.916 -2.255 -4.332 -5.414 -1.538 -7.813 0.826 -3.519 3.468 -3.883 3.462 -6.6 -0.103 z" fill="#917d94"/><path d="m 172.88 108.34 c -5.147 -2.436 -3.379 -6.578 0.675 -14.15 2.563 -10.429 5.755 -14.669 11.737 -9.566 3.195 2.725 3.431 6.335 6.01 4.698 1.628 -1.035 4.612 -5.979 5.865 -6.774 3.575 -2.268 7.269 -0.116 11.265 6.563 4.287 7.166 9.572 16.885 3.261 18.417 -2.673 0.649 -4.914 -3.217 -6.346 -6.06 -3.109 -6.175 -5.291 -3.344 -8.308 0.289 -2.834 3.413 -6.542 4.093 -9.562 1.054 -3.46 -3.482 -3.176 -5.8 -5.529 -0.266 -2.734 6.43 -6.263 8.61 -9.06 5.791 z" fill="#7baaa1"/><path d="m 136.69 166.81 c -1.581 -0.69 -3.898 -1.91 -5.148 -2.712 -2.778 -1.783 -3.857 -3.834 -3.857 -7.334 0 -3.108 0.979 -4.963 3.224 -6.112 2.696 -1.379 4.714 -0.703 8.619 2.888 2.059 1.892 0.417 5.398 1.681 5.292 1.068 -0.089 3.656 -3.648 4.082 -4.411 0.527 -0.944 0.486 -1.196 -0.535 -3.284 -1.493 -3.051 -5.541 -7.04 -8.875 -8.741 l -2.616 -1.336 l -1.605 0.724 c -2.146 0.968 -5.103 4.29 -5.933 6.667 -2.982 5.124 -6.855 11.07 -9.616 14.296 -3.072 3.583 -4.102 4.213 -6.888 4.213 -3.16 0 -3.661 -2.077 -1.721 -7.145 0.65 -1.697 1.92 -3.432 5.249 -7.165 2.435 -5.199 8.773 -12.549 8.172 -15.399 -0.286 -1.302 -1.895 -3.038 -8.838 -9.533 -4.73 -4.425 -6.183 -7.677 -6.183 -13.834 0 -7.424 3.674 -12.13 12.985 -16.632 3.253 -2.067 4.03 -1.679 7.2 0.022 7.03 3.777 9.538 3.932 9.789 7.52 0.128 1.827 -1.489 4.225 -2.248 5.356 -2.75 4.101 -8.827 4.736 -10.906 0.661 -1.588 -3.114 -4.248 -4.086 -6.102 -2.231 -0.527 0.527 -0.958 1.325 -0.958 1.772 0 1.35 1.421 3.709 3.746 6.221 2.424 2.618 7.287 5.371 10.172 5.758 l 1.574 0.211 l 1.289 -2.288 c 1.611 -2.86 4.639 -7.379 7.121 -10.63 1.044 -1.368 2.399 -3.479 3.01 -4.691 1.202 -2.38 3.945 -5.186 6.907 -7.07 2.086 -1.323 3.247 -1.463 4.625 -0.56 1.122 0.735 2.334 3.665 1.979 4.784 -4.07 7.861 -10.878 15.324 -15.1 21.73 -0.917 1.472 -0.938 3.392 -0.049 4.385 0.376 0.42 2.111 1.93 3.856 3.355 6.261 5.115 9.611 9.632 10.912 14.71 0.84 3.277 0.608 7.779 -0.512 9.951 -5.868 5.265 -11.369 14.57 -18.505 10.586 z" fill="#f8edb8"/><path d="m 160.77 126.63 c 0 3.468 -2.624 6.28 -5.861 6.28 -3.237 0 -5.861 -2.812 -5.861 -6.28 0 -3.468 2.624 -6.28 5.861 -6.28 3.237 0 5.861 2.812 5.861 6.28 z" transform="translate(0.837 -3.349)" fill="#f8edb8" id="0"/><use transform="translate(-47.727 16.746)" xlink:href="#0"/></g></svg>