<svg xmlns="http://www.w3.org/2000/svg" viewBox="0 0 256 256"><path d="m 226.22 211.58 c 62.27 -95.76 12.03 -183 -58.47 -203.69 -94.83 -27.843 -223.59 45.32 -138.75 196.1 c 33.72 59.925 152.85 75.79 197.21 7.587 z" fill="#d3d3d3" color="#000"/><path d="m 95.64 149.17 c -1.765 -1.816 -2.306 -3.953 -2.306 -9.115 0 -5.212 -0.548 -7.343 -2.415 -9.387 -2.987 -3.271 -2.074 -7.278 1.892 -8.302 2.277 -0.588 2.577 -1.112 1.652 -2.89 -2.144 -4.122 -1.156 -7.598 3.501 -12.32 2.526 -2.561 4.592 -5.657 4.592 -6.88 0 -1.223 1.887 -4 4.194 -6.177 3.974 -3.745 4.101 -4.09 2.411 -6.571 -0.981 -1.44 -2.868 -3.4 -4.194 -4.356 -1.328 -0.957 -2.411 -3.04 -2.411 -4.635 0 -1.799 -1.748 -4.696 -4.611 -7.641 -3.855 -3.965 -4.612 -5.528 -4.612 -9.525 0 -3.1 -0.592 -5.01 -1.685 -5.446 -2.696 -1.064 -3.354 -5.109 -1.226 -7.529 1.256 -1.427 1.488 -2.436 0.68 -2.95 -1.81 -1.151 -1.493 -6.05 0.501 -7.756 0.951 -0.812 1.729 -2.478 1.729 -3.703 0 -1.225 1.038 -3.294 2.306 -4.599 2.022 -2.08 3.843 -2.372 14.809 -2.372 11.04 0 12.747 0.278 14.59 2.372 1.397 1.588 3.551 2.372 6.519 2.372 4.809 0 9.04 3.193 9.04 6.819 0 1.141 4.14 6.345 9.199 11.563 5.971 6.159 9.207 10.424 9.223 12.156 0.017 1.846 0.717 2.668 2.271 2.668 1.236 0 3.635 1.324 5.333 2.943 3.351 3.195 5.102 2.975 5.102 -0.641 0 -1.266 1.038 -3.369 2.306 -4.674 1.921 -1.977 2.306 -3.953 2.306 -11.86 0 -7.906 0.384 -9.883 2.306 -11.86 2.948 -3.03 7.428 -3.03 10.376 0 3.186 3.277 3.186 12.14 0 15.417 -3.047 3.135 -3.047 9.616 0 12.453 1.268 1.181 2.306 3.367 2.306 4.858 0 1.491 0.419 2.977 0.931 3.303 0.512 0.325 5.311 -3.901 10.664 -9.393 9.452 -9.697 9.891 -9.986 15.209 -10.01 7.432 -0.033 10.09 2.722 10.09 10.465 0 4.24 -0.604 6.309 -2.306 7.893 -1.268 1.181 -2.306 3.211 -2.306 4.511 0 1.301 -1.847 4.21 -4.103 6.464 -3.917 3.914 -4.01 4.201 -2.127 6.346 1.087 1.236 2.934 2.247 4.103 2.247 1.17 0 3.165 1.067 4.433 2.372 1.944 2 2.306 3.953 2.306 12.453 0 8.499 -0.362 10.453 -2.306 12.453 -2.948 3.03 -7.428 3.03 -10.376 0 -1.268 -1.305 -3.473 -2.384 -4.9 -2.399 -1.603 -0.017 -5.172 -2.676 -9.343 -6.963 -6.01 -6.18 -6.606 -7.211 -5.436 -9.461 0.723 -1.389 0.857 -2.525 0.299 -2.525 -1.835 0 -4.831 4.287 -4.831 6.913 0 1.416 -1.038 3.642 -2.306 4.947 -1.268 1.305 -2.306 3.172 -2.306 4.151 0 0.978 1.038 2.846 2.306 4.151 1.855 1.908 2.302 3.938 2.288 10.377 -0.019 8.58 -0.531 10.1 -3.821 11.352 -1.528 0.581 -3.353 -0.491 -6.629 -3.895 l -4.52 -4.696 v -10.04 c 0 -9.08 -0.255 -10.248 -2.666 -12.202 -2.116 -1.715 -4.254 -2.08 -10.361 -1.765 -6.809 0.351 -7.497 0.6 -5.981 2.16 3.826 3.936 2.113 7.07 -11.872 21.739 -13.837 14.511 -15.972 15.829 -21.08 13.02 -1.733 -0.954 -2.23 -0.841 -2.23 0.508 0 4.151 -3.343 5.463 -13.917 5.463 -8.756 0 -10.638 -0.354 -12.599 -2.372 z m 28.01 -12.1 c 0.761 -0.498 2.471 -0.913 3.799 -0.923 2.989 -0.023 6.367 -3.731 7.931 -8.707 0.867 -2.758 2.184 -4.067 4.929 -4.898 2.061 -0.624 3.747 -1.916 3.747 -2.872 0 -0.955 0.859 -2.713 1.908 -3.906 1.775 -2.02 1.775 -2.169 0 -2.169 -1.049 0 -2.946 -1.067 -4.214 -2.372 -1.998 -2.056 -2.306 -3.953 -2.306 -14.231 0 -10.811 -0.191 -11.86 -2.165 -11.86 -1.191 0 -2.818 0.811 -3.618 1.801 -1.187 1.472 -1.089 2.215 0.539 4.066 2.463 2.8 1.479 6.742 -1.965 7.866 -1.957 0.639 -3.262 -0.151 -6.203 -3.754 -3.676 -4.504 -3.755 -4.535 -6.109 -2.344 -1.311 1.221 -2.384 3.167 -2.384 4.324 0 1.157 -3.113 5.469 -6.917 9.582 -3.804 4.113 -6.925 8.553 -6.935 9.868 -0.024 3.275 -1.291 5.05 -4.464 6.259 l -2.687 1.023 l 3.584 3.48 c 2.095 2.034 3.584 4.675 3.584 6.355 0 4.528 3.166 7.21 8.537 7.231 2.597 0.01 5.496 0.522 6.442 1.138 1.285 0.836 1.957 0.464 2.651 -1.467 0.512 -1.423 1.553 -2.994 2.314 -3.491 z m 94.15 -30.887 c -0.044 -1.719 -2.134 -4.245 -9.361 -11.32 l -5.204 -5.093 l 0.495 3.47 c 0.275 1.929 -0.112 3.857 -0.873 4.34 -0.933 0.593 0.024 2.336 3.01 5.477 3.333 3.511 5.278 4.607 8.175 4.607 2.293 0 3.786 -0.588 3.763 -1.482 z m -56.14 -11.539 c 0.881 -1.294 1.369 -3.955 1.087 -5.93 -0.496 -3.477 -0.693 -3.582 -6.721 -3.582 h -6.21 v 4.151 c 0 3.27 0.459 4.151 2.165 4.151 1.191 0 2.81 0.801 3.6 1.779 1.966 2.437 4.173 2.23 6.079 -0.569 z m 23.643 -5.712 c 1.509 -2.338 1.35 -2.854 -1.92 -6.217 -1.961 -2.02 -4.09 -3.335 -4.731 -2.927 -1.29 0.82 -1.621 12.783 -0.389 14.05 1.023 1.052 4.97 -1.698 7.04 -4.906 z m -65.873 -7.95 c 0.951 -0.978 3.687 -1.779 6.08 -1.779 2.886 0 5.05 -0.798 6.437 -2.372 1.148 -1.305 3.196 -2.372 4.552 -2.372 1.786 0 2.769 -1.061 3.568 -3.854 0.829 -2.898 2.033 -4.136 4.85 -4.989 2.061 -0.624 3.747 -1.677 3.747 -2.34 0 -2.101 -14.254 -16.09 -16.395 -16.09 -1.128 0 -4.126 -2.135 -6.662 -4.744 -4.56 -4.691 -4.708 -4.744 -13.258 -4.744 h -8.647 v 4.659 c 0 2.563 -0.778 5.46 -1.729 6.438 -2.159 2.221 -2.159 2.862 0 5.083 0.951 0.978 1.729 2.808 1.729 4.066 0 1.258 1.038 3.355 2.306 4.659 1.268 1.305 2.306 3.357 2.306 4.56 0 1.203 1.038 3.154 2.306 4.335 1.268 1.181 2.306 3.223 2.306 4.538 0 2.091 2.961 6.729 4.296 6.729 0.264 0 1.258 -0.801 2.209 -1.779 z m 91.69 -0.184 c 1.16 -1.08 2.108 -3.132 2.108 -4.56 0 -1.429 1.038 -3.563 2.306 -4.744 2.584 -2.406 3.061 -5.344 0.865 -5.322 -0.793 0.008 -4.225 2.788 -7.627 6.177 -5.837 5.815 -6.05 6.226 -3.747 7.282 1.342 0.616 2.439 1.572 2.439 2.124 0 1.55 1.339 1.199 3.656 -0.958 z" transform="matrix(0.961 0 0 0.96516 -18.218 46.5)"/></svg>