<svg xmlns="http://www.w3.org/2000/svg" xmlns:xlink="http://www.w3.org/1999/xlink" viewBox="0 0 256 256"><defs><path fill="none" stroke-width="2.083" d="m 160.43 166.76 c 3.643 -0.305 5.768 -2.751 6.378 -7.336 -2.983 -2.285 -8.565 -6.965 -7.289 -11.184" id="A"/><path fill="none" stroke-width="2.083" d="m 136.63 180.57 c -2.073 3.01 -5.251 3.643 -9.534 1.894 -0.503 -3.723 -1.795 -10.892 -6.091 -11.877" id="B"/><path d="m 152.75 204.49 c -14.767 -3.908 -24.5 -32.25 -10.465 -40.4 14.15 -8.207 35.28 12.141 30.892 29.08 -9.654 2.231 -13.513 4.231 -20.427 11.315 z" id="C"/><path d="m 168 207.23 c -6.337 3.676 -14.02 2.272 -17.15 -3.132 l -0.109 -0.196 l 22.943 -13.31 l 0.116 0.191 c 3.136 5.405 0.54 12.771 -5.796 16.447 z" id="D"/><path fill="none" stroke-width="2.083" d="m 169.69 201.41 c 13.592 -0.025 11.466 0.155 12.434 -13.342" id="E"/><path d="m 288.26 220.99 l 0.58 0.413 c 1.323 0.943 1.632 2.791 0.691 4.114 l -11.865 16.652 c -0.943 1.323 -2.791 1.632 -4.113 0.691 l -4.671 -3.328 l -34.926 -23.753 c -2.628 -1.772 -3.295 -5.565 -1.671 -8.83 -5.728 5.643 -12.151 8.06 -16.42 5.53 -0.255 -0.119 -0.47 -0.301 -0.671 -0.445 -10.377 7.316 -23.04 11.32 -36.38 10.618 -31.821 -1.685 -55.54 -29.556 -53.03 -62.18 2.542 -32.636 30.366 -57.761 62.15 -56.05 31.808 1.727 55.55 29.551 53.04 62.2 -0.215 2.324 -0.523 4.595 -0.928 6.868 4.636 3.381 4.687 12.419 0.391 21.695 2.453 -2.315 5.927 -2.894 8.433 -1.192 l 39.509 26.834 l -0.123 0.172 z m -143.91 -85.5 c 15.733 -22.24 46.05 -27.852 67.71 -12.539 21.658 15.316 26.467 45.768 10.733 68.01 -15.73 22.24 -46.05 27.852 -67.71 12.531 -21.658 -15.313 -26.463 -45.764 -10.734 -68 z" id="F"/><clipPath id="9"><path d="m 136.44 179.39 c -0.542 -1.563 -1.01 -3.161 -1.393 -4.791 0.859 -4.487 3.371 -8.405 7.363 -10.721 8.14 -4.722 19.336 -1.01 25.01 8.297 0.507 0.832 0.95 1.684 1.336 2.543 -5.757 -8.949 -16.704 -12.457 -24.702 -7.818 -4.507 2.615 -7.128 7.274 -7.61 12.489 z"/></clipPath><clipPath id="8"><path d="m 230.6 147.69 c 0.493 1.506 0.914 3.043 1.263 4.607 -1.01 4.46 -3.652 8.293 -7.722 10.476 -8.291 4.449 -19.358 0.366 -24.715 -9.122 -0.48 -0.848 -0.895 -1.714 -1.251 -2.585 5.456 9.135 16.281 13 24.428 8.631 4.528 -2.431 7.294 -6.902 7.997 -12.01 z"/></clipPath><clipPath id="7"><path d="m 183.38 113.46 c 27.428 0 49.671 22.244 49.671 49.671 0 27.428 -22.244 49.671 -49.671 49.671 -27.428 0 -49.671 -22.244 -49.671 -49.671 0 -27.428 22.244 -49.671 49.671 -49.671 z"/></clipPath><linearGradient y2="180.92" x2="151.91" y1="185.2" x1="154.93" gradientUnits="userSpaceOnUse" id="6"><stop stop-color="#fff"/><stop stop-opacity="0" stop-color="#fff" offset="1"/></linearGradient><linearGradient xlink:href="#6" y2="145.44" x2="215.21" y1="141.06" x1="212.33" gradientUnits="userSpaceOnUse" id="5"/><mask id="3"><path d="m 141.39 163.08 h 24.05 v 39.956 h -24.05 z" fill="url(#6)"/></mask><mask id="2"><path d="m 202.38 122.92 h 22.787 v 40.663 h -22.787 z" fill="url(#5)"/></mask><mask id="4"><path d="m 141.39 163.08 h 24.05 v 39.956 h -24.05 z" fill="url(#6)"/></mask><radialGradient r="26.85" cy="174.01" cx="134.92" gradientUnits="userSpaceOnUse" id="0"><stop stop-color="#f4cebf"/><stop stop-color="#f0b29c" offset="0.071"/><stop stop-color="#e99881" offset="0.459"/><stop stop-color="#e07e68" offset="0.62"/><stop stop-color="#ca7e6c" offset="1"/></radialGradient><radialGradient r="26.85" cy="174.01" cx="134.92" gradientUnits="userSpaceOnUse" id="1"><stop stop-color="#ecb19f"/><stop stop-color="#e88d74" offset="0.071"/><stop stop-color="#de674e" offset="0.459"/><stop stop-color="#cf3529" offset="0.62"/><stop stop-color="#af2926" offset="1"/></radialGradient><radialGradient xlink:href="#0" id="G" gradientUnits="userSpaceOnUse" cx="134.92" cy="174.01" r="26.85"/></defs><path d="m 44.834 37.13 c -201.82 266.38 353.59 304.22 175.35 32.31 c -40.634 -61.991 -121.89 -102.86 -175.35 -32.31 z" fill="#b22222" color="#000"/><g transform="matrix(1.10865 0 0 1.11223 -96.54 -61.37)" fill-rule="evenodd"><use xlink:href="#F" width="1" height="1" fill="#969594"/><path d="m 183.38 113.46 c 27.428 0 49.671 22.244 49.671 49.671 0 27.428 -22.244 49.671 -49.671 49.671 -27.428 0 -49.671 -22.244 -49.671 -49.671 0 -27.428 22.244 -49.671 49.671 -49.671 z" fill="#fff" id="H"/><g clip-path="url(#7)"><g><g><g stroke="#1f1a17"><use xlink:href="#B" width="1" height="1"/><path d="m 139.89 194.16 c -2.29 2.636 -5.323 3.518 -9.1 2.65 -0.02 -2.889 -0.357 -8.413 -4.233 -8.675" fill="none" stroke-width="2.083"/><use xlink:href="#E" width="1" height="1"/><use xlink:href="#A" width="1" height="1"/><g fill="none" stroke-width="2.083"><path d="m 170.61 176.33 c 3.425 -0.679 5.696 -2.874 6.816 -6.58 -2.499 -1.45 -7.127 -4.486 -5.431 -7.981"/><path d="m 162.46 205.38 c -6.768 11.786 -5.557 10.03 -17.753 4.17"/></g></g><use xlink:href="#D" width="1" height="1" fill="#1f1a17"/><path d="m 152.17 207.33 c -16.997 -4.256 -27.854 -36.417 -11.544 -45.88 16.441 -9.537 40.569 13.362 35.27 32.719 -11.174 2.67 -15.655 5 -23.731 13.161 z" fill="#9f2b29"/><use xlink:href="#C" width="1" height="1" fill="url(#1)"/><path d="m 160.41,201.73 5.62,-3.6 -7.07,-5.64" fill="#1f1a17"/></g><g clip-path="url(#9)"><path d="m 468.75 489.76 h -634.04 v -627.92 h 634.04" fill="#fff"/><g><use xlink:href="#F" width="1" height="1" fill="#b7b6b5"/><use id="I" xlink:href="#H"/></g><g><g><use xlink:href="#B" width="1" height="1" stroke="#706e6d"/><path id="S" d="m 139.89 194.16 c -2.29 2.636 -5.323 3.518 -9.1 2.65 -0.02 -2.889 -0.357 -8.413 -4.233 -8.675" fill="none" stroke="#706e6d" stroke-width="2.083"/></g><use xlink:href="#E" width="1" height="1" stroke="#706e6d"/><g><use xlink:href="#A" width="1" height="1" stroke="#706e6d"/><path id="T" d="m 170.61 176.33 c 3.425 -0.679 5.696 -2.874 6.816 -6.58 -2.499 -1.45 -7.127 -4.486 -5.431 -7.981" fill="none" stroke="#706e6d" stroke-width="2.083"/></g><path id="J" d="m 162.46 205.38 c -6.768 11.786 -5.557 10.03 -17.753 4.17" fill="none" stroke="#706e6d" stroke-width="2.083"/><use xlink:href="#D" width="1" height="1" fill="#706e6d"/><path id="K" d="m 152.17 207.33 c -16.997 -4.256 -27.854 -36.417 -11.544 -45.88 16.441 -9.537 40.569 13.362 35.27 32.719 -11.174 2.67 -15.655 5 -23.731 13.161 z" fill="#be8171"/><use xlink:href="#C" width="1" height="1" fill="url(#G)"/><path id="L" d="m 160.41,201.73 5.62,-3.6 -7.07,-5.64" fill="#706e6d"/></g></g><path d="M 164.41,201.99 142.439,164.118" mask="url(#4)" fill="none" stroke="#1f1a17" stroke-width="2.083"/><g><g fill="none" stroke="#1f1a17" stroke-width="2.083"><path d="m 230.47 146.29 c 2.172 -2.941 5.369 -3.467 9.592 -1.578 0.38 3.738 1.433 10.946 5.694 12.07" id="M"/><path d="m 227.66 132.6 c 2.378 -2.558 5.437 -3.34 9.18 -2.348 -0.077 2.889 0.077 8.42 3.943 8.812" id="N"/><path d="m 198.12 124.36 c -13.586 -0.426 -11.456 -0.535 -12.869 12.921" id="O"/><path d="m 206.22 159.3 c -3.651 0.183 -5.856 2.557 -6.618 7.12 2.906 2.383 8.33 7.245 6.914 11.419" id="P"/><path d="m 196.37 149.4 c -3.446 0.566 -5.79 2.683 -7.03 6.351 2.45 1.533 6.974 4.719 5.163 8.157" id="Q"/><path d="m 205.48 120.64 c 7.155 -11.556 5.887 -9.841 17.881 -3.58" id="R"/></g><path d="m 200,118.61 c 6.455,-3.464 14.09,-1.806 17.04,3.699 l 0.103,0.2 -23.372,12.542 -0.11,-0.196 c -2.954,-5.505 -0.116,-12.781 6.338,-16.245 z" fill="#1f1a17"/><path d="m 215.82 119.02 c 16.846 4.818 26.631 37.32 10.02 46.24 -16.748 8.988 -40.1 -14.698 -34.17 -33.869 11.257 -2.298 15.814 -4.478 24.15 -12.367 z" fill="#9f2b29"/><path d="m 207.41,124.35 -5.75,3.41 6.89,5.88" fill="#1f1a17"/></g><g clip-path="url(#8)"><path d="m 532.32 464.57 h -634.15 v -627.52 h 634.15" fill="#fff"/><g><use xlink:href="#F" width="1" height="1" fill="#b7b6b5"/><use xlink:href="#I" width="1" height="1"/></g><g><g><g><use xlink:href="#B" width="1" height="1" stroke="#706e6d"/><use xlink:href="#S" width="1" height="1"/></g><use xlink:href="#E" width="1" height="1" stroke="#706e6d"/><g><use xlink:href="#A" width="1" height="1" stroke="#706e6d"/><use xlink:href="#T" width="1" height="1"/></g><use xlink:href="#J" width="1" height="1"/><use xlink:href="#D" width="1" height="1" fill="#706e6d"/><use xlink:href="#K" width="1" height="1"/><use xlink:href="#C" width="1" height="1" fill="url(#G)"/><use xlink:href="#L" width="1" height="1"/><path d="M 164.41,201.99 142.439,164.118" mask="url(#3)" fill="none" stroke="#706e6d" stroke-width="2.083"/></g><g><g fill="none" stroke="#706e6d" stroke-width="2.083"><use xlink:href="#M"/><use xlink:href="#N"/><use xlink:href="#O"/><use xlink:href="#P"/><use xlink:href="#Q"/><use xlink:href="#R"/></g><path d="m 200,118.61 c 6.455,-3.464 14.09,-1.806 17.04,3.699 l 0.103,0.2 -23.372,12.542 -0.11,-0.196 c -2.954,-5.505 -0.116,-12.781 6.338,-16.245 z" fill="#706e6d"/><path d="m 215.82 119.02 c 16.846 4.818 26.631 37.32 10.02 46.24 -16.748 8.988 -40.1 -14.698 -34.17 -33.869 11.257 -2.298 15.814 -4.478 24.15 -12.367 z" fill="#be8171"/><path d="m 207.41,124.35 -5.75,3.41 6.89,5.88" fill="#706e6d"/></g></g></g><path d="m 203.42,123.96 20.703,38.579" mask="url(#2)" fill="none" stroke="#1f1a17" stroke-width="2.083"/></g></g></g></svg>