<svg xmlns="http://www.w3.org/2000/svg" viewBox="0 0 256 256" xmlns:xlink="http://www.w3.org/1999/xlink"><defs><path id="0" d="m 386.38 386.17 c 0 7.532 -5.54 13.637 -12.374 13.637 -6.834 0 -12.374 -6.106 -12.374 -13.637 0 -7.532 5.54 -13.637 12.374 -13.637 6.834 0 12.374 6.106 12.374 13.637 z"/></defs><path d="m 3.74 101.39 c 19.829 -131.87 217.21 -135.83 247.04 -7.636 30.702 103.78 -80.47 188.63 -163.63 154.63 -55.684 -16.07 -100.67 -81.83 -83.41 -146.99 z" fill="#ffdead" color="#000"/><g transform="matrix(0.45683 0 0 0.45469 -81.02 -180.8)"><path fill="#f6bc8e" d="m 377.48 515.54 h 156.55 v 359.39 h -156.55 z"/><g transform="matrix(3.15692 0 0 3.15692 -764.25 -561.67)"><g><use fill="#fff" xlink:href="#0"/><use transform="matrix(0.27778 0 0 0.27778 269.51 278.65)" xlink:href="#0"/></g><g><use transform="translate(25)" fill="#fff" xlink:href="#0"/><use transform="matrix(0.27778 0 0 0.27778 294.52 278.65)" xlink:href="#0"/></g></g><path d="m 498.81 813.05 c 0.973 -3.198 1.505 -6.597 1.505 -10.05 0 -22.02 -21.03 -39.837 -46.929 -39.837 -25.902 0 -46.858 17.822 -46.858 39.837 0 3.456 0.46 6.855 1.433 10.05" fill="none" stroke="#000" stroke-width="8"/><path transform="matrix(3.15692 0 0 3.15692 -763.15 -570.08)" d="m 399.52 410.92 c 0 8.368 -6.219 15.15 -13.89 15.15 -7.671 0 -13.89 -6.784 -13.89 -15.15 0 -8.368 6.219 -15.15 13.89 -15.15 7.671 0 13.89 6.784 13.89 15.15 z" fill="#fc833c"/><path d="m 398.9 479.22 c -26.6 17.724 -30.391 52.06 -19.491 75.883 -0.377 -13.518 0.059 -23.871 11.706 -35 16.642 14.422 13.13 43.79 6.18 67.861 13.325 -16.353 21.01 -36.984 17.946 -58.65 1.73 -3.065 4.066 -6.111 7.309 -9.211 16.642 14.422 13.13 43.79 6.18 67.861 13.325 -16.353 21.02 -36.984 17.946 -58.65 1.73 -3.065 4.066 -6.111 7.309 -9.211 16.642 14.422 13.13 43.79 6.18 67.861 13.325 -16.353 21.01 -36.984 17.946 -58.65 1.73 -3.065 4.066 -6.111 7.309 -9.211 16.642 14.422 13.13 43.79 6.18 67.861 13.325 -16.353 21.02 -36.984 17.946 -58.65 1.73 -3.065 4.066 -6.111 7.309 -9.211 16.642 14.422 13.13 43.79 6.18 67.861 13.862 -17.01 21.635 -38.641 17.53 -61.26 -2.966 -16.16 -11.08 -24.684 -15.15 -34.703 -1.487 -4.06 -1.818 -9.516 -0.773 -12.776 -11.145 7.426 -18.31 17.802 -22.05 29.06 -3.089 -5.921 -6.429 -10.906 -8.616 -16.282 -1.487 -4.06 -1.818 -9.516 -0.773 -12.776 -11.141 7.424 -18.249 17.806 -21.986 29.06 -3.093 -5.931 -6.485 -10.899 -8.676 -16.282 -1.487 -4.06 -1.818 -9.516 -0.773 -12.776 -11.163 7.438 -18.255 17.84 -21.986 29.12 -3.099 -5.952 -6.42 -10.945 -8.616 -16.341 -1.487 -4.06 -1.878 -9.516 -0.832 -12.776 -11.163 7.438 -18.255 17.84 -21.986 29.12 -3.099 -5.952 -6.42 -10.945 -8.616 -16.341 -1.487 -4.06 -1.878 -9.516 -0.832 -12.776 z" fill="#fc5f10"/></g></svg>