<svg xmlns="http://www.w3.org/2000/svg" viewBox="0 0 256 256"><defs><clipPath><path transform="matrix(15.33333 0 0 11.5 415 -125.5)" d="m -24 13 c 0 1.105 -0.672 2 -1.5 2 -0.828 0 -1.5 -0.895 -1.5 -2 0 -1.105 0.672 -2 1.5 -2 0.828 0 1.5 0.895 1.5 2 z"/></clipPath></defs><path d="m 229.63 992.2 c 92.05 -130.93 -77.948 -263.6 -186.39 -156.91 -102.17 100.51 -7.449 256.68 119.69 207.86 c 26.526 -10.185 49.802 -26.914 66.7 -50.948 z" fill="#add8e6" color="#000" transform="translate(0 -796.36)"/><path d="m 225.49 132.4 a 79.76 75.997 0 1 1 -159.51 0 79.76 75.997 0 1 1 159.51 0 z" transform="matrix(1.02094 0 0 1.07692 -2.217 -11.02)" fill="#e8e8e8"/><path d="m 117.47 225.65 c 0 -1.237 0.848 -3.137 1.962 -4.395 2.273 -2.567 2.54 -9.285 0.627 -9.982 -1.944 -0.709 -5.214 6.225 -5.806 8.977 -0.694 3.225 -2.075 4.596 -4.63 4.596 -2.691 0 -3.722 -1.136 -4.056 -4.47 -0.184 -1.837 -0.694 -2.678 -1.736 -2.866 -1.68 -0.303 -3.02 1.237 -2.422 2.782 0.221 0.57 -0.144 1.828 -0.811 2.796 -1.01 1.463 -1.878 1.759 -5.17 1.759 -6.633 0 -6.993 -0.441 -6.993 -8.556 0 -3.984 -0.347 -7.216 -0.804 -7.485 -0.442 -0.26 -1.757 0.559 -2.921 1.82 -1.882 2.038 -2.596 2.292 -6.439 2.292 -4.124 0 -4.476 -0.157 -7.672 -3.418 -3.01 -3.07 -3.35 -3.794 -3.35 -7.112 0 -2.223 0.625 -4.859 1.569 -6.617 1.658 -3.087 2.02 -5.219 0.891 -5.219 -0.796 0 -4.241 2.505 -6.84 4.975 -1 0.954 -2.549 1.735 -3.431 1.735 -2.296 0 -4.744 -2.626 -4.744 -5.089 0 -1.283 -0.767 -2.791 -1.962 -3.858 -1.692 -1.51 -1.962 -2.401 -1.962 -6.467 0 -4.924 -0.053 -4.988 -3.947 -4.756 -1.519 0.09 -5.706 2.158 -10.04 -2.089 -6.184 -6.06 -4.408 -11.11 -1.315 -13.667 1.079 -0.891 1.962 -2.096 1.962 -2.677 0 -0.581 -1.785 -2.581 -3.966 -4.444 l -3.966 -3.388 l 0.091 -7.163 c 0.05 -3.94 0.069 -7.758 0.043 -8.484 -0.027 -0.726 -0.931 -1.703 -2.01 -2.17 l -1.962 -0.849 c 0.897 -7.134 0.12 -2.567 9.146 -8.911 7.817 -0.579 -6.656 -10.565 -8.361 -15.452 -4.192 1.911 -0.741 -1.922 0.872 -2.038 0.911 -0.065 2.249 -0.627 2.972 -1.249 0.769 -0.662 2.029 -0.953 3.037 -0.702 1.355 0.337 7.151 -1.435 7.785 -3.02 1.129 -2.821 -5.798 -4.635 -8.213 -4.312 -1.508 0.202 -1.745 -0.109 -1.745 -2.293 0 -3.077 3.067 -6.141 6.146 -6.141 3.945 -0.902 4.355 -5.952 3.043 -8.483 -1.085 -2.066 -1.102 -2.451 -0.125 -2.738 0.625 -0.184 1.674 -0.495 2.33 -0.69 6.641 2.065 9.195 3.797 11.212 3.737 2.122 0 -5.05 -9.93 -6.452 -11.962 -1.819 -2.637 -1.557 -3.863 1.456 -6.81 4.705 -2.923 0.182 -8.01 3.149 -10.936 2.85 -2.708 7.49 -1 7.49 2.752 0 1.561 0.606 2.989 1.65 3.886 1.942 1.67 3.843 4.954 3.843 6.641 1.764 3.681 5.062 5.849 7.466 9.319 2.01 2.954 6.525 7.455 7.472 7.455 0.345 0 25.621 22.547 24.421 20.447 -4.907 -8.585 -15.777 -29.429 -8.48 -26.836 1.416 0.503 3.03 1.585 3.709 2.099 1.358 1.026 7 8.46 7 9.224 0 0.538 5.601 8.444 7.67 10.827 4.543 5.232 17.68 17.226 19.901 18.17 1.452 0.618 3.552 1.814 4.667 2.66 10.546 3.484 -1.262 7.282 11.03 13.277 14.562 -0.465 16.519 -8.394 20.767 -12.07 5.262 -2.819 13.6 -7.214 23.733 -3.906 4.447 1.279 4.891 1.289 6.565 0.144 0.987 -0.676 4.224 -2.778 7.192 -4.671 4.272 -3.039 14.01 -7.877 10.194 -11.963 -1.628 -1.434 -0.289 -3.849 -0.289 -7.206 0 -2.781 0.388 -4.351 1.243 -5.02 1.886 -1.487 3.813 0.072 4.103 3.319 0.154 1.724 0.81 3.078 1.766 3.645 1.454 0.863 1.519 1.935 1.473 24.394 l -0.048 23.492 l -3.436 2.609 c -3.999 3.037 -4.246 4.046 -1.569 6.402 1.523 1.341 1.962 2.465 1.962 5.02 0 1.814 0.215 4.318 0.478 5.566 0.442 2.098 -0.064 2.762 -6.684 8.784 -13.467 3.738 -10.626 16.2 -14.319 16.314 -3.118 0.01 -5.37 1.072 -5.37 3.692 0 0.932 -1.052 2.575 -2.354 3.677 -4.355 6.097 -8.605 10.729 -18.467 11.01 -8.124 -3.653 -5.962 -7.393 -11.296 -10.656 -1.76 -3.81 -6.801 -4.953 -8.717 -0.164 -0.415 1.037 -0.754 5.884 -0.754 10.772 0 8.616 -1.163 15.619 -2.594 15.619 -0.385 0 -1.724 -1.042 -2.976 -2.315 -1.805 -1.836 -2.277 -3 -2.277 -5.629 0 -1.822 -0.57 -4.361 -1.267 -5.642 l -1.267 -2.329 c -2.81 2.965 -3.087 6.217 -2.974 8.642 0.306 3.675 -3.057 5.785 -3.122 9.211 0 3.119 -2.129 4.351 -6.543 3.789 -3.503 -0.446 -6.01 0.441 -6.01 2.128 0 0.838 -1.097 1.092 -4.708 1.092 -4.681 0 -4.708 -0.013 -4.708 -2.179 z" fill="#96a7d6"/><path d="m 119.83 225.33 c 0 -1.651 0.684 -3.202 2.01 -4.566 1.735 -1.779 1.942 -2.492 1.494 -5.141 -0.61 -3.608 -1.477 -21.452 -2.799 -21.06 -0.512 0.152 -2.956 6.161 -3.202 17.547 -0.723 1.352 -2.02 3.082 -2.881 3.845 -0.861 0.762 -1.809 2.113 -2.106 3 -1.353 4.841 -4.504 7.332 -5.076 0.697 0 -2.18 0.761 -25.998 -1.219 -25.998 -5.179 3.036 -5.637 28.493 -11.07 28.806 -3.051 0.17 -4.104 -0.053 -4.464 -0.946 -0.259 -0.642 -0.514 -4.98 -0.565 -9.64 -0.083 -7.531 5.495 -22.769 4.326 -22.479 -0.723 0.18 -7.924 15.875 -8.994 17.36 -2.974 4.125 -3.787 4.673 -6.907 4.655 -4.594 -0.026 -8.345 -3.729 -9.174 -9.06 -0.489 -3.144 -0.344 -3.644 1.5 -5.167 1.72 -1.421 10.642 -9.477 10.642 -12.819 0 -3.898 0.916 -9.7 -1.368 -9.7 -1.278 0 -12.234 13.32 -12.667 13.832 -4.03 4.764 -5.892 6.524 -6.905 6.524 -0.966 0 -1.01 -0.21 -0.223 -1.109 -1.357 -1.711 -3.294 -3.332 -5.485 -5.859 -3.133 -3.39 -3.279 -7.655 -0.345 -10.08 1.522 -1.257 4.21 -3.816 5.588 -5 9.805 -8.457 9.148 -10.497 6.566 -10.262 -1.511 0.137 -16.854 9.97 -17.745 10.756 -0.891 0.785 -2.161 1.428 -2.823 1.428 -7.449 -6.642 -11.09 -5.083 -7.327 -10.438 -1.123 -1.778 -2.536 -1.469 -0.392 -3.355 1.633 -1.233 1.3 -4.124 3.139 -4.63 0.863 -0.214 20.681 -7.195 20.681 -7.921 -4.895 -4.1 -24.1 7.701 -27.78 4.264 l -2.469 -2.323 l -0.125 -10.125 l -0.125 -10.125 l 4.712 -0.423 c 2.592 -0.233 10.966 -0.335 18.609 -0.226 12.05 0.171 14.07 0.034 15.196 -1.034 1.209 -1.146 1.17 -1.308 -0.557 -2.334 -1.021 -0.607 -3.736 -1.298 -6.03 -1.536 -3.132 -0.325 -4.858 -1 -6.893 -2.698 -1.493 -1.246 -3.144 -2.267 -3.669 -2.269 -0.524 -0.002 -6.578 2.513 -8.196 2.086 -4.442 -1.172 -7.512 -16.742 -2.645 -16.267 12.566 1.227 30.373 13.202 30.978 12.667 1.456 -1.289 -27.565 -23.544 -30.585 -25.01 -6.309 -3.058 6.534 -12.279 16.01 -1.081 c 4.03 4.763 23.15 15.05 21.03 13.04 -0.768 -0.73 -5.109 -8.635 -8.753 -10.403 -9.7 -4.707 -20.676 -36.27 -12.145 -29.894 c 10.424 7.79 27.627 36.09 42.704 45.996 3.84 2.524 7.724 4.761 8.632 4.971 0.907 0.21 4.869 6.607 5.301 6.916 0.432 0.309 -2.088 -16.344 0.241 -15.691 2.329 0.653 7.771 13.62 9.758 14.8 1.987 1.181 8.972 10.282 10.267 10.882 1.295 0.6 1.055 -5.08 4.724 -3.278 6.355 3.121 6.985 3.275 13.34 3.267 7.591 0.052 12.287 -2.29 17.641 -7.516 7.1 -7.04 9.619 -10.695 23.541 -7.67 4.408 0.958 5.389 0.688 6.899 -0.354 0.961 -0.663 3.035 -2.023 4.608 -3.02 7.01 -4.452 16.978 -8.247 16.978 -9.76 -0.723 -2.702 -2.177 -10.02 0.865 -10.03 2.431 0 3.336 1.056 1.463 1.709 -0.785 0.273 0.888 2.689 1.672 3.48 0.735 0.741 6.237 4.176 6.237 19.453 0 18.724 -7.04 20.18 -8.301 20.625 -2.197 0.78 -8.04 5.654 -8.04 6.706 0 0.528 0.078 3.144 1.049 4.061 1.833 1.73 -10.22 5.7 -10.162 9.885 -7.982 8.198 -14.963 1.833 -10.84 9.751 -2.165 5.27 4.079 10.703 1.881 12.7 -1.534 1.423 -3.406 2.587 -4.16 2.587 -0.755 0 -2.448 0.755 -3.763 1.677 -3.286 2.305 -12.92 2.25 -17.772 -0.102 -5.108 -2.476 -8.739 -2.11 -13.337 1.343 l -3.887 2.919 l -0.554 6.04 c -0.305 3.321 4.463 11.681 4.755 13.906 0.545 4.142 -5.637 7.767 -6.962 7.767 -0.374 0 -1.72 -1.081 -2.99 -2.403 -1.787 -1.859 -2.31 -3.11 -2.31 -5.526 0 -1.718 -0.528 -5.745 -1.173 -8.95 -0.645 -3.205 -1 -6.505 -0.792 -7.335 0.221 -0.876 -0.031 -0.677 -0.602 0.475 -0.541 1.091 -6.329 1.645 -7.02 2.399 -1.804 1.961 0.962 9.244 0.645 13.952 0.058 2.909 -1.13 5.83 -1.417 8.506 -0.226 2.202 -0.313 2.242 -5.556 2.609 -5.424 0.38 -6.799 1.168 -6.825 3.914 -2.088 1.141 -5.458 1.578 -5.505 -1.196 z m 23.541 -45.587 c 0 -1.145 -2.556 -1.869 -4.708 -1.334 -1.891 0.47 -1.78 4.5 -0.079 5.404 1.654 0.879 4.787 -2.873 4.787 -4.07 z m -11.77 -4.473 c -0.537 -0.615 -1.474 -1.118 -2.082 -1.118 -1.182 -0.616 -4.789 -3.516 -4.98 -1.545 -0.478 5.303 0.744 8.08 2.743 8.08 1.646 0 5.143 -4.475 4.32 -5.418 z m -11.336 -8.509 c -0.764 -1.174 -5.417 -1.234 -5.417 0.007 0 1.254 4.305 10.825 5.506 4.02 0.086 -0.486 0.201 -3.58 -0.089 -4.03 z m -7 -8.349 c -1.044 -2.242 -2.465 -4.524 -3.157 -5.07 -0.693 -0.546 -1.26 -2.098 -1.26 -3.448 0 -3.686 -12.384 -7.879 -14.948 -8.531 -2.451 -0.623 -6.448 -3.796 -7.877 -2.956 -1.158 0.68 3.02 5.67 6.078 7.255 1.609 0.834 1.785 1.333 1.36 3.858 -0.481 2.859 -6.179 5.539 -3.188 6.303 1.668 0.426 10.797 -1.649 13.279 -1.4 3.961 0.398 4.513 0.651 4.523 2.077 0.02 2.97 0.942 4.979 2.285 4.979 4.509 1.206 4.884 1.225 2.906 -3.065 z" fill="#5d78c3"/><path d="m 158.63 172.91 c -1.266 -2.296 -1.563 -4.142 -1.563 -9.731 0 -9.973 1.312 -16.869 7.07 -10.706 6.076 3.663 9.561 8.166 13.605 10.736 3.237 1.877 7.317 0.867 11.272 1.439 8.775 1.269 9.965 -1.524 9.416 -0.201 -0.271 0.653 -0.766 4.827 -1.1 9.275 -0.661 8.791 -1.186 10.07 -5.158 12.591 -3.365 2.132 -10.964 2.315 -16.402 0.395 -10.452 -0.34 -13.08 -2.421 -17.14 -13.798 z" fill="#d2b48c"/><path d="m 223.48 166.89 c -5.498 -2.2 -10.565 -5.746 -15.1 -8.913 -9.522 -6.509 -10.536 -7.375 -10.744 -9.182 0.818 -3.511 13.323 -3.829 15.443 -2.365 0.486 0 2.822 3.824 5.193 8.498 0.215 1.304 11.327 18.08 5.203 11.962 z"/><path d="m 189.55 142.43 c -2.104 -1.014 -4.413 -4.511 -4.413 -6.685 0 -5.3 4.756 -6.935 7.757 -2.667 3.635 5.17 1.333 11.606 -3.345 9.352 z"/></svg>