<svg xmlns="http://www.w3.org/2000/svg" viewBox="0 0 256 256"><defs><clipPath><path transform="matrix(15.33333 0 0 11.5 415 -125.5)" d="m -24 13 c 0 1.105 -0.672 2 -1.5 2 -0.828 0 -1.5 -0.895 -1.5 -2 0 -1.105 0.672 -2 1.5 -2 0.828 0 1.5 0.895 1.5 2 z"/></clipPath></defs><path d="m 26.373 195.84 c -92.05 -130.93 77.948 -263.6 186.39 -156.91 102.17 100.51 7.449 256.68 -119.69 207.86 -26.526 -10.185 -49.802 -26.914 -66.7 -50.948 z" fill="#ff8c00" color="#000"/><g transform="matrix(3.61838 0 0 3.53427 39.27 42.858)"><path d="M 24 14 A 10 10 0 0 0 14 24 10 10 0 0 0 24 34 10 10 0 0 0 34 24 10 10 0 0 0 24 14 z m 0 6 c 2.209 0 4 1.791 4 4 0 2.209 -1.791 4 -4 4 -2.209 0 -4 -1.791 -4 -4 0 -2.209 1.791 -4 4 -4 z" fill="#848484"/><path d="M 24,4 C 12.92,4 4,12.92 4,24 4,35.08 12.92,44 24,44 35.08,44 44,35.08 44,24 44,12.92 35.08,4 24,4 z m 0,12 a 8,8 0 0 1 8,8 8,8 0 0 1 -8,8 8,8 0 0 1 -8,-8 8,8 0 0 1 8,-8 z" fill="#e4e4e4"/><path d="m 23.981 4 c 11.07 0 19.982 8.92 19.982 20 0 0.168 -0.008 0.333 -0.012 0.5 -0.264 -10.846 -9.07 -19.5 -19.97 -19.5 -10.902 0 -19.706 8.654 -19.97 19.5 -0.003 -0.167 -0.011 -0.332 -0.011 -0.5 0 -11.08 8.912 -20 19.982 -20 z m 3.946 20.5 c 0.021 0.166 0.051 0.329 0.051 0.5 0 2.209 -1.789 4 -3.996 4 -2.207 0 -3.996 -1.791 -3.996 -4 0 -0.171 0.03 -0.334 0.051 -0.5 0.248 1.971 1.91 3.5 3.946 3.5 2.036 0 3.697 -1.529 3.946 -3.5 z" opacity="0.2" fill="#fff"/><path d="M 4.0117,24.5 C 4.0076,24.667 4,24.832 4,25 4,36.08 12.92,45 24,45 35.08,45 44,36.08 44,25 44,24.832 43.992,24.667 43.988,24.5 43.724,35.346 34.912,44 24,44 13.088,44 4.276,35.346 4.012,24.5 z" opacity="0.2"/><circle r="11" cy="37" cx="36" opacity="0.2"/><circle r="11" cy="36" cx="36" fill="#ff5722"/><path d="M 37.545,29.911 C 33.454,31.547 31,35.381 31,38.092 c 0,2.679 2.147,4.853 4.815,4.904 -1.333,-0.026 -2.406,-1.111 -2.406,-2.45 0,-1.355 1.227,-3.273 3.273,-4.091 0,2.864 2.196,3.277 1.636,4.909 -0.317,0.925 -1.092,1.627 -2.434,1.635 0.008,0 0.017,10e-4 0.025,10e-4 2.711,0 4.27,-1.412 4.909,-3.273 1.12,-3.263 -3.273,-4.091 -3.273,-9.817 z" fill="#fff"/></g></svg>