<svg xmlns="http://www.w3.org/2000/svg" viewBox="0 0 256 256"><path d="m 123.75 2.898 c -42.614 8.141 -83.82 40.17 -105.52 82 -18.2 35.08 -21.02 69.29 -8.215 99.39 c 9.634 22.64 31.487 43.762 58.63 56.669 28.948 13.764 55.865 16.918 83.69 9.803 68.66 -17.561 118.98 -109.47 98.53 -179.98 -9.994 -34.463 -36.498 -57.785 -75.52 -66.45 -16.971 -1.38 -34.908 -4.337 -51.595 -1.432 z" fill="#ff8c00"/><path d="m 124.44 208.01 c -7.948 -3.935 -11.544 -12.451 -8.924 -21.14 1.191 -3.949 5.865 -9.03 9.715 -10.559 1.745 -0.694 3.42 -1.647 3.722 -2.118 0.302 -0.471 0.554 -7.102 0.56 -14.735 l 0.011 -13.878 l -2.046 -0.84 c -1.126 -0.462 -3.87 -1.631 -6.098 -2.597 l -4.052 -1.756 l -18.923 18.8 c -10.408 10.34 -18.711 19.14 -18.451 19.56 0.26 0.418 0.808 2.516 1.217 4.662 2.801 14.672 -13.743 25.822 -26.597 17.926 -9.638 -5.92 -11.185 -18.81 -3.235 -26.967 5.981 -6.138 14.892 -7.245 22.2 -2.758 l 2.541 1.56 l 18.562 -18.441 l 18.562 -18.441 l -2.071 -4.395 c -1.759 -3.732 -2.07 -5.342 -2.065 -10.679 0.005 -5.42 0.292 -6.837 2.085 -10.303 l 2.079 -4.02 l -11.01 -10.955 l -11.01 -10.955 l -4.575 0.466 c -3.902 0.397 -5.01 0.222 -7.547 -1.194 -9.413 -5.256 -7.593 -18.665 2.915 -21.476 8.273 -2.213 16.252 5.879 13.998 14.197 l -0.834 3.078 l 11.168 11.09 l 11.168 11.09 l 4.704 -2.098 c 6.479 -2.889 13.36 -2.933 19.531 -0.126 2.384 1.084 4.716 1.972 5.182 1.972 0.466 0 7.182 -6.3 14.925 -14 l 14.08 -14 l -0.876 -2.905 c -2.045 -6.781 -0.552 -13 4.319 -18 9.992 -10.253 26.773 -5.308 29.808 8.783 2.982 13.845 -12.284 25.476 -25.02 19.06 -2.01 -1.015 -3.999 -1.847 -4.413 -1.848 -1.031 -0.004 -27.898 26.792 -27.898 27.824 0 0.455 0.893 2.765 1.984 5.134 2.825 6.131 2.781 12.967 -0.127 19.404 l -2.111 4.674 l 11.168 11.09 l 11.168 11.09 l 3.098 -0.829 c 8.372 -2.24 16.517 5.687 14.29 13.906 -2.829 10.439 -16.326 12.247 -21.616 2.896 -1.425 -2.518 -1.601 -3.621 -1.202 -7.498 l 0.469 -4.545 l -11.09 -11 l -11.09 -11 l -2.49 1.515 c -1.37 0.833 -3.913 1.891 -5.653 2.351 l -3.163 0.835 v 14.796 v 14.796 l 2.705 1.123 c 12.652 5.252 15.856 19.974 6.339 29.13 -5.721 5.503 -13.1 6.693 -20.08 3.237 z m -55.666 -10.924 c 4.867 -2.02 7.915 -8.382 6.484 -13.532 -0.99 -3.562 -4.897 -7.472 -8.403 -8.41 -5.301 -1.418 -11.651 1.561 -13.697 6.427 -4.191 9.966 5.586 19.679 15.616 15.515 z m 115.06 -24.47 c 3.445 -3.643 1.289 -9.279 -3.603 -9.417 -5.245 -0.148 -7.903 5.783 -4.229 9.434 2.395 2.38 5.572 2.373 7.831 -0.017 z m -45.978 -34.525 c 3.958 -1.178 9.08 -5.813 10.659 -9.654 1.609 -3.904 1.692 -10.412 0.178 -13.952 -1.462 -3.417 -5.975 -7.9 -9.414 -9.353 -3.563 -1.505 -10.113 -1.422 -14.04 0.177 -1.746 0.71 -4.45 2.731 -6.01 4.49 -11.949 13.487 1.213 33.476 18.629 28.29 z m -49.27 -60.11 c 3.445 -3.643 1.289 -9.279 -3.603 -9.417 -5.245 -0.148 -7.903 5.783 -4.229 9.434 2.395 2.38 5.572 2.373 7.831 -0.017 z" fill="#fff" stroke="#fff" stroke-width="0.742"/></svg>