<svg xmlns="http://www.w3.org/2000/svg" viewBox="0 0 256 256"><g transform="translate(0 -796.36)"><path d="m 229.63 992.2 c 92.05 -130.93 -77.948 -263.6 -186.39 -156.91 -102.17 100.51 -7.449 256.68 119.69 207.86 c 26.526 -10.185 49.802 -26.914 66.7 -50.948 z" fill="#2c3e50" color="#000"/><path d="m 14.677 13.835 v 1.129 v 0.011 a 8.471 8.471 0 0 1 0.34 -0.011 8.471 8.471 0 0 1 8.471 8.471 8.471 8.471 0 0 1 -5.422 7.902 v -1.69 h -4.518 v 4.518 h 4.518 v -1.635 a 9.6 9.6 0 0 0 0.152 -0.06 h 11.217 a 2.259 2.259 0 0 0 2.184 1.694 2.259 2.259 0 0 0 2.259 -2.259 2.259 2.259 0 0 0 -2.259 -2.259 2.259 2.259 0 0 0 -2.186 1.694 h -8.996 a 9.6 9.6 0 0 0 4.18 -7.906 9.6 9.6 0 0 0 -5.1 -8.471 h 10.972 v -1.129 h -15.812 z m 0 16.942 h 2.259 v 2.259 h -2.259 v -2.259 z m 16.942 0 a 1.129 1.129 0 0 1 1.129 1.129 1.129 1.129 0 0 1 -1.129 1.129 1.129 1.129 0 0 1 -1.129 -1.129 1.129 1.129 0 0 1 1.129 -1.129 z" fill="#ecf0f1" transform="matrix(5.69432 0 0 5.10352 -5.678 803.79)"/></g></svg>