<svg xmlns="http://www.w3.org/2000/svg" viewBox="0 0 256 256"><path d="m -1374.42 1658.71 c 127.95 -192.46 -280.09 -311 -226.07 -62.2 23.02 102.82 167.39 165.22 226.07 62.2 z" fill="#d4dfe8" color="#000" transform="matrix(0 1 -1 0 1711.48 1605.44)"/><path d="m 235.64 -4.517 c -35.489 -8.01 -60.62 -37.657 -63.21 -74.56 c -2.715 -38.72 23.47 -74.57 61.4 -84.06 8.139 -2.036 25.1 -2.436 32.817 -0.774 31.12 6.704 54.1 28.711 62.6 59.97 1.396 5.131 1.674 8.376 1.694 19.74 0.02 11.707 -0.226 14.546 -1.773 20.399 -2.208 8.358 -7.573 20.12 -12.172 26.68 -4.41 6.293 -12.89 14.936 -19.07 19.43 -6.327 4.604 -17.934 10.146 -25.787 12.31 -9.122 2.514 -27.28 2.943 -36.501 0.862 z m 27.897 -29.29 c 14.26 -3.682 27.05 -14.01 33.2 -26.818 4.188 -8.715 5.625 -14.646 5.625 -23.21 0 -20.22 -10.474 -37.19 -28.651 -46.43 -7.079 -3.597 -17.506 -5.917 -22.986 -5.115 -8.821 1.291 -12.265 12.603 -5.582 18.334 2.515 2.157 2.685 2.21 11.1 3.497 2.913 0.445 6.905 1.603 8.87 2.572 5.04 2.485 10.642 8.354 13.351 13.981 2.112 4.387 2.311 5.523 2.311 13.2 0 8.03 -0.117 8.619 -2.661 13.401 -3.1 5.826 -7.66 10.384 -13.556 13.548 -3.824 2.053 -4.915 2.25 -12.434 2.25 -7.292 0 -8.758 -0.246 -12.714 -2.136 -5.818 -2.779 -11.134 -8.273 -14.02 -14.488 -1.27 -2.736 -2.31 -5.425 -2.31 -5.975 0 -0.73 2.02 -1 7.492 -1 6.909 0 7.643 -0.153 9.419 -1.964 3.835 -3.908 2.581 -5.962 -13.331 -21.836 -10.671 -10.645 -12.552 -12.2 -14.765 -12.2 -2.237 0 -4.138 1.63 -16.09 13.791 -11.881 12.09 -13.549 14.11 -13.549 16.342 0 4.727 2.105 5.749 12.486 6.06 l 6.599 0.201 l 1.691 6.4 c 4.961 18.768 19.09 33.11 36.97 37.517 6.224 1.534 17.731 1.57 23.528 0.074 z" fill="#dc4713" transform="translate(-124.37 214.35)"/></svg>