<svg xmlns="http://www.w3.org/2000/svg" viewBox="0 0 256 256"><defs><clipPath><path transform="matrix(15.33333 0 0 11.5 415 -125.5)" d="m -24 13 c 0 1.105 -0.672 2 -1.5 2 -0.828 0 -1.5 -0.895 -1.5 -2 0 -1.105 0.672 -2 1.5 -2 0.828 0 1.5 0.895 1.5 2 z"/></clipPath></defs><path d="m 229.63 992.2 c 92.05 -130.93 -77.948 -263.6 -186.39 -156.91 -102.17 100.51 -7.449 256.68 119.69 207.86 c 26.526 -10.185 49.802 -26.914 66.7 -50.948 z" fill="#f8d967" color="#000" transform="translate(0 -796.36)"/><g transform="matrix(4.93772 0 0 5.11506 8.098 5.963)"><path d="m 19 18 c -3 0 -3.781 0.52 -5 1 -2.024 0.798 -4 3 -4 6 0 2.913 1 6 3 7 4.645 2.323 10 -1 12 -1 2 0 7.355 3.323 12 1 2 -1 3 -4.087 3 -7 0 -3 -1.976 -5.202 -4 -6 -1.219 -0.48 -2 -1 -5 -1 -2.86 0 -5.375 1 -6 1 -0.625 0 -3.14 -1 -6 -1 z m 0 4 c 4.03 0 4 2 4 3 0 4 -1.969 4 -5 4 -2.969 0 -4 -1 -4 -3 0 -2 1.025 -4 5 -4 z m 12 0 c 3.975 0 5 2 5 4 0 2 -1.031 3 -4 3 -3.03 0 -5 0 -5 -4 0 -1 -0.025 -3 4 -3 z" opacity="0.909" fill-opacity="0.1"/><path d="m 18 17 c -3 0 -3.781 0.52 -5 1 -2.024 0.798 -4 3 -4 6 0 2.913 1 6 3 7 4.645 2.323 10 -1 12 -1 2 0 7.355 3.323 12 1 2 -1 3 -4.087 3 -7 0 -3 -1.976 -5.202 -4 -6 -1.219 -0.48 -2 -1 -5 -1 -2.86 0 -5.375 1 -6 1 -0.625 0 -3.14 -1 -6 -1 z m 0 4 c 4.03 0 4 2 4 3 0 4 -1.969 4 -5 4 -2.969 0 -4 -1 -4 -3 0 -2 1.025 -4 5 -4 z m 12 0 c 3.975 0 5 2 5 4 0 2 -1.031 3 -4 3 -3.03 0 -5 0 -5 -4 0 -1 -0.025 -3 4 -3 z" opacity="0.909" fill="#cc1517"/></g></svg>