<svg xmlns="http://www.w3.org/2000/svg" xmlns:xlink="http://www.w3.org/1999/xlink" viewBox="0 0 256 256"><defs><path d="M 464.46 272.16 A 29.587 29.587 0 1 1 405.28 272.16 A 29.587 29.587 0 1 1 464.46 272.16 z" id="J"/><path d="M 194.83 366.22 A 18.701 10.467 0 1 1 157.42 366.22 A 18.701 10.467 0 1 1 194.83 366.22 z" id="K"/><linearGradient xlink:href="#6" id="B" gradientUnits="userSpaceOnUse" gradientTransform="matrix(1.16689 0 0 0.85698 0.975 4.769)" x1="253.33" y1="452.09" x2="274.49" y2="421.26"/><linearGradient id="C" gradientUnits="userSpaceOnUse" x1="434.1" y1="304.04" x2="437.72" y2="240.66"><stop stop-color="#063256"/><stop stop-opacity="0" stop-color="#0030e4" offset="1"/></linearGradient><linearGradient y2="464.36" x2="135.07" y1="505.44" x1="127.88" gradientTransform="matrix(0.58028 -0.80923 0.43189 0.33137 -174.23 50.75)" gradientUnits="userSpaceOnUse" id="A" xlink:href="#I"/><linearGradient xlink:href="#I" id="D" gradientUnits="userSpaceOnUse" x1="438.52" y1="264.73" x2="418.76" y2="325.45"/><linearGradient xlink:href="#G" id="E" gradientUnits="userSpaceOnUse" gradientTransform="matrix(1.21086 0.59139 -0.34454 0.65114 313.76 -4.738)" x1="127.88" y1="505.44" x2="135.07" y2="464.36"/><linearGradient xlink:href="#I" id="H" gradientUnits="userSpaceOnUse" x1="443.35" y1="252.42" x2="418.76" y2="325.45"/><linearGradient xlink:href="#I" id="F" gradientUnits="userSpaceOnUse" x1="434.1" y1="304.04" x2="437.72" y2="240.66"/><linearGradient id="G"><stop stop-opacity="0.624" stop-color="#000fc2"/><stop stop-opacity="0" stop-color="#fff" offset="1"/></linearGradient><linearGradient id="9" gradientUnits="userSpaceOnUse" x1="78.31" y1="46.661" x2="48.22" y2="70.47"><stop stop-color="#fff"/><stop stop-color="#c2c2c2" offset="1"/></linearGradient><linearGradient id="I"><stop stop-color="#595a5a"/><stop stop-color="#fff" offset="1"/></linearGradient><linearGradient y2="421.26" x2="274.49" y1="452.09" x1="253.33" gradientTransform="matrix(0.14398 -0.85017 0.62437 0.10574 -205.9 279.81)" gradientUnits="userSpaceOnUse" id="2" xlink:href="#6"/><linearGradient id="4" gradientTransform="matrix(1.33663 0 0 0.74815 2.089 4.417)" x1="117.78" x2="145.76" gradientUnits="userSpaceOnUse"><stop stop-color="#fff"/><stop stop-color="#1a47c2" offset="1"/></linearGradient><linearGradient xlink:href="#G" id="3" gradientTransform="matrix(1.25663 0 0 0.79578 2.089 4.417)" x1="122.29" x2="158.02" gradientUnits="userSpaceOnUse"/><linearGradient id="8" gradientUnits="userSpaceOnUse" x1="24.863" y1="96.7" x2="101.99" y2="21.308"><stop stop-color="#fff"/><stop stop-color="#d7d7d7" offset="0.494"/><stop stop-color="#fff" offset="1"/><stop stop-color="#c2c2c2" offset="1"/></linearGradient><linearGradient id="7" gradientUnits="userSpaceOnUse" x1="91.13" y1="39.724" x2="39.779" y2="74.864"><stop stop-color="#fff"/><stop stop-color="#9b9b9b" offset="1"/></linearGradient><linearGradient id="5" gradientUnits="userSpaceOnUse" gradientTransform="matrix(0.89241 0 0 1.12057 121.4 134.49)" x1="117.37" y1="46.795" x2="100.39" y2="149.29"><stop stop-color="#f5b22d"/><stop stop-color="#f5f7ff" offset="1"/></linearGradient><linearGradient id="6"><stop stop-color="#fff"/><stop stop-opacity="0" stop-color="#fff" offset="1"/></linearGradient><radialGradient id="1" gradientUnits="userSpaceOnUse" gradientTransform="matrix(1.33663 0 0 0.74815 2.089 4.417)" cx="132.65" cy="484.58" fx="132.52" fy="484.69" r="19.523"><stop stop-color="#fff"/><stop stop-opacity="0.57" stop-color="#4d69cc" offset="1"/></radialGradient><radialGradient id="0" gradientUnits="userSpaceOnUse" gradientTransform="matrix(1.33663 0 0 0.74815 2.089 4.417)" cx="132.65" cy="484.58" fx="132.52" fy="484.69" r="19.523"><stop stop-color="#fff"/><stop stop-opacity="0.569" stop-color="#93a0cc" offset="1"/></radialGradient></defs><g color="#000" fill="#a16884"><path d="m -461.56 1509.46 c -102.66 -72.48 -252.13 71.24 -188.42 177.65 55.11 98.31 215.88 55.803 236.4 -48.33 13.01 -47.39 -5.347 -103.13 -47.986 -129.32 z" transform="matrix(0.83572 -0.52642 -0.48833 -0.9228 1367.08 1338.5)" fill-opacity="0.996"/></g><g transform="matrix(1.32279 0 0 1.34734 48.643 43.909)"><path d="m 118.42,52.593 c 3.963,14.68 1.463,29.14 -6.77,40.919 -8.233,11.778 -21.02,18.716 -36.1,20.414 -14.548,1.409 -29.877,-2.69 -42.766,-11.7 C 19.895,93.216 10.624,80.451 7.105,66.086 3.142,51.406 5.642,36.946 13.875,25.167 22.108,13.389 35.055,6.228 49.975,4.753 c 14.548,-1.409 29.877,2.69 42.766,11.7 12.889,9.01 22.16,21.775 25.679,36.14 z m -45.21,14.05 c 2.951,-4.222 0.703,-11.417 -5.075,-15.456 -5.778,-4.04 -13.152,-3.901 -16.259,0.544 -3.107,4.444 -0.703,11.417 5.075,15.456 5.778,4.04 13.152,3.901 16.259,-0.544 z"/><path d="m 115.02,53.19 c 3.385,13.614 1.439,26.809 -6.02,37.476 -7.456,10.667 -19.335,17.249 -33.13,18.524 C 62.077,110.465 47.948,106.543 35.73,97.999 23.508,89.455 14.97,77.533 11.43,64.142 8.045,50.528 9.991,37.333 17.45,26.666 24.906,15.999 36.785,9.417 50.58,8.142 c 13.793,-1.275 27.922,2.647 40.14,11.191 12.222,8.544 20.76,20.466 24.3,33.857 z M 75.292,67.432 c 3.883,-5.556 1.279,-13.661 -5.387,-18.321 -6.667,-4.66 -15.329,-4.099 -19.06,1.234 -3.728,5.333 -1.279,13.661 5.387,18.321 6.667,4.66 15.329,4.099 19.06,-1.234 z" fill="url(#7)"/><path d="m 90.23,20.981 c 24.22,16.932 31.972,47.49 17.681,67.935 C 93.465,109.583 62.259,112.58 38.036,95.648 13.816,78.716 5.906,48.378 20.355,27.713 34.646,7.269 66.007,4.049 90.23,20.981 z M 54.679,70.893 c 7.778,5.437 17.95,4.608 22.61,-2.058 4.66,-6.667 1.944,-16.505 -5.834,-21.942 -7.778,-5.437 -17.95,-4.608 -22.61,2.058 -4.66,6.667 -2.166,16.349 5.834,21.942 z" fill="url(#8)"/><path d="m 76.74,39.34 c 12.667,8.854 17.208,24.6 9.752,35.27 C 79.191,85.054 62.911,86.576 50.022,77.566 37.355,68.712 32.814,52.966 40.27,42.296 47.571,31.852 63.851,30.33 76.74,39.34 z M 56.391,68.45 c 7.333,5.126 16.218,4.72 20.1,-0.835 3.883,-5.556 1.212,-14.04 -6.121,-19.16 -7.333,-5.126 -16.218,-4.72 -20.1,0.835 -3.883,5.556 -1.212,14.04 6.121,19.16 z" opacity="0.79" fill="url(#9)"/><path d="m 59.38,45.724 c 10.684,-0.14 16.999,10.229 17.601,13.627 0.602,3.398 -1.083,8.175 -5.968,11.376 7.506,-2.693 8.302,-8.091 7.855,-11.711 C 77.664,52.22 68.974,43.83 59.535,45.502 l -0.155,0.222 z" fill="#afafaf"/><path d="m 245.24,155.37 1,1 -1,-1 z" transform="matrix(0.51728 0 0 0.51728 -74.55 -21.286)" opacity="0.3" stroke-opacity="0.573" stroke="#000" stroke-width="9.666"/><path d="m 66.55 71.907 c -10.684 0.14 -16.932 -9.851 -17.13 -14.293 -0.224 -3.465 0.772 -7.73 5.879 -10.777 -7.506 2.693 -7.702 8.179 -6.945 11.355 0.803 4.531 7.806 14.388 18.578 13.648 l -0.378 0.067 z" fill="#fff" stroke="none"/><g transform="matrix(0.54678 0 0 0.55551 -84.959 -28.903)"><path d="m 245.24,155.37 1,1 -1,-1 z" fill="#ad40d6"/><path d="m 176.29,183.23 11.987,49.5 -3.998,-0.163 c -2.373,-0.097 -5.664,0.777 -7.997,1.666 -2.333,0.889 -4.169,2.224 -6,3.501 -1.833,1.278 -4.705,3.659 -6.667,6.667 -1.886,2.892 -1.641,2.534 -2.499,4.665 -0.915,2.273 -0.779,6.06 -0.834,7.335 -0.056,1.278 0.502,4.647 1.499,7.166 1.054,2.663 1.806,4.139 3.501,5.834 1.776,1.776 2.833,2.806 4,3.667 1.167,0.861 6.497,3.03 8.163,3.332 1.667,0.305 3.668,0.111 5.501,0.167 1.833,0.055 7.985,-1.165 9.837,-1.833 1.998,-0.721 3.295,-0.714 6.836,-3.669 3.52,-2.938 3.859,-3.584 5.163,-5.664 1.259,-2.01 0.972,-1.833 1.5,-3 0.528,-1.167 1.333,-2.333 1.667,-4 0.333,-1.667 0.333,-3.997 0.333,-6 v -5 l -0.667,-3 -0.667,-4 -6.5,-38 33,-12.823 4.159,25.485 c 0.029,0.176 -1.667,-0.344 -3.832,-0.163 -2.33,0.195 -2.533,0.148 -4.665,0.668 -2.164,0.527 -2.274,0.45 -4.166,1.167 -1.832,0.694 -2.717,1.144 -4.997,2.665 -2.164,1.443 -2.999,1.723 -4.499,3.5 -1.5,1.778 -2.781,3.504 -3.837,5.504 -1.056,2 -2.314,6.852 -1.501,12.488 0.84,5.82 3.867,9.347 7.168,11.843 3.333,2.519 4.673,2.557 6.839,3.168 2.167,0.611 4.827,0.997 6.493,0.997 1.667,0 3.668,-0.193 5.668,-0.499 2,-0.306 2.565,-0.335 5.169,-1.501 2.663,-1.192 4.998,-2.194 5.831,-2.832 0.833,-0.639 1.723,-1.224 2.668,-2.168 0.944,-0.944 1.715,-1.358 2.999,-3.499 1.498,-2.496 2.49,-4.904 2.663,-5.992 l 0.504,-3.18 0.166,-4.828 -8.666,-76.49 -71.32,27.319 z" fill="#190f1d"/><path d="m 183.38,186.5 c 0,0 11.877,51.975 10.828,52.5 l -2.164,-0.499 -4.747,-0.75 c -1.399,-0.039 -2.554,0.11 -4.252,0.251 -0.557,0.046 -2.988,0.411 -5.639,1.676 -2.514,1.2 -2.797,1.427 -4.734,2.833 -1.937,1.406 -2.852,2.039 -4.068,3.751 -1.139,1.603 -2.247,3.495 -2.745,7.247 -0.494,3.726 -0.487,5.249 0.687,8.496 1.156,3.197 2.845,5.176 4.494,6.659 1.823,1.639 5.139,3.218 8.683,3.837 3.705,0.647 4.678,0.451 7.155,-0.168 2.321,-0.58 2.668,-0.695 4.332,-1.331 1.52,-0.581 4.04,-1.766 6.986,-4.491 2.864,-2.649 3.443,-4.597 4.18,-6.176 0.737,-1.579 1.324,-2.878 1.833,-6 0.2,-2.406 -0.089,-4.688 -0.667,-7 l -7.999,-48.665 c 0,0 41.3,-16.09 42.16,-15.834 0,0 6.134,38.17 5.166,38.497 l -3.16,-1.163 c 0,0 -2.973,-0.542 -4.504,-0.334 -1.531,0.208 -4.302,0.813 -6.163,1.498 -1.861,0.685 -3.624,1.518 -5.32,2.66 -1.697,1.142 -3.468,2.44 -4.859,4.192 -1.392,1.752 -2.715,3.629 -3.491,6.317 -0.79,2.737 -0.475,5.41 0.167,7.833 0.632,2.387 2.073,4.406 3.667,6 1.594,1.594 3.71,3.316 7.172,4 3.427,0.677 5.708,0.748 8.499,0.332 2.772,-0.413 3.833,-0.945 5.166,-1.501 1.333,-0.556 2.925,-1.441 4.163,-2.165 1.238,-0.724 2.08,-1.747 3,-2.667 0.92,-0.92 1.941,-1.911 2.667,-3 0.947,-1.421 1.587,-3.351 2,-5 0.395,-1.581 0.468,-3.378 0.333,-5 l -8.666,-69.33" fill="#fff"/><path d="m 183.35,186.45 c 0,0 11.877,51.975 10.828,52.5 l -2.164,-0.499 -4.747,-0.75 c -1.399,-0.039 -2.554,0.11 -4.252,0.251 -0.557,0.046 -2.988,0.411 -5.639,1.676 -2.514,1.2 -2.797,1.427 -4.734,2.833 -1.937,1.406 -2.852,2.039 -4.068,3.751 -1.139,1.603 -2.247,3.495 -2.745,7.247 -0.494,3.726 -0.487,5.249 0.687,8.496 1.156,3.197 2.845,5.176 4.494,6.659 1.823,1.639 5.139,3.218 8.683,3.837 3.705,0.647 4.678,0.451 7.155,-0.168 2.321,-0.58 2.668,-0.695 4.332,-1.331 1.52,-0.581 4.04,-1.766 6.986,-4.491 2.864,-2.649 3.443,-4.597 4.18,-6.176 0.737,-1.579 1.324,-2.878 1.833,-6 0.201,-2.406 -0.089,-4.688 -0.667,-7 l -7.999,-48.665 c 0,0 41.3,-16.09 42.16,-15.834 0,0 6.134,38.17 5.166,38.497 l -3.16,-1.163 c 0,0 -2.973,-0.542 -4.504,-0.334 -1.531,0.208 -4.302,0.813 -6.163,1.498 -1.861,0.685 -3.624,1.518 -5.32,2.66 -1.697,1.142 -3.468,2.44 -4.859,4.192 -1.392,1.752 -2.715,3.629 -3.491,6.317 -0.79,2.737 -0.475,5.41 0.167,7.833 0.632,2.387 2.073,4.406 3.667,6 1.594,1.594 3.71,3.316 7.172,4 3.427,0.677 5.708,0.748 8.499,0.332 2.772,-0.413 3.833,-0.945 5.166,-1.501 1.333,-0.556 2.925,-1.441 4.163,-2.165 1.238,-0.724 2.08,-1.747 3,-2.667 0.92,-0.92 1.941,-1.911 2.667,-3 0.947,-1.421 1.587,-3.351 2,-5 0.395,-1.581 0.468,-3.378 0.333,-5 l -8.666,-69.33" fill="url(#5)"/></g><g fill-rule="evenodd"><g transform="matrix(0.12339 -0.72858 0.72858 0.12339 -213.33 277.01)" stroke-width="7.5" stroke-miterlimit="0" stroke="#000" stroke-linejoin="round" stroke-linecap="round"><path d="m 321.74 395.43 c -2.661 5.03 -12.41 5.403 -21.762 0.836 -9.352 -4.567 -14.782 -12.356 -12.12 -17.385 1.33 -2.514 1.363 -6.098 5.302 -6.25 3.939 -0.151 11.784 3.13 16.46 5.414 4.676 2.284 14.512 1.186 16.706 4.332 2.194 3.147 -3.255 10.538 -4.585 13.05 z" fill="url(#E)"/><path d="m 323.73 391.25 c -2.661 5.03 -12.41 5.403 -21.762 0.836 -9.352 -4.567 -14.782 -12.356 -12.12 -17.385 1.33 -2.514 2.479 -6.098 6.418 -6.25 3.939 -0.151 10.668 3.13 15.344 5.414 4.676 2.284 10.883 4.814 13.08 7.961 2.194 3.147 0.374 6.909 -0.956 9.424 z" fill="url(#B)"/><use xlink:href="#K" transform="matrix(0.9059 0.44245 -0.46053 0.87034 318.09 -17.601)" width="1" height="1" fill="url(#3)"/><path transform="matrix(1.2362 0.49414 -0.27638 0.69143 -145.28 -37.679)" d="m 464.46 272.16 a 29.59 29.59 0 1 1 -59.18 0 29.59 29.59 0 1 1 59.18 0 z" fill="url(#C)"/><use xlink:href="#J" transform="matrix(1.2362 0.49414 -0.27638 0.69143 -142.49 -42.915)" width="1" height="1" fill="#fff"/><use xlink:href="#J" transform="matrix(1.06874 0.46288 -0.26981 0.56634 -70.66 4.377)" width="1" height="1" fill="url(#D)"/><use xlink:href="#K" transform="matrix(0.9059 0.44245 -0.46053 0.87034 325.63 -30.16)" width="1" height="1" fill="url(#1)"/></g><g transform="translate(-4.148 -2.766)"><path d="m 118.31 94.31 c 3.336 2.559 2.405 9.709 -2.076 15.958 -4.482 6.25 -10.826 9.245 -14.161 6.686 -1.668 -1.28 -4.275 -1.745 -3.899 -4.634 0.376 -2.888 3.734 -8.2 5.975 -11.325 2.241 -3.125 2.655 -10.427 5.218 -11.637 2.563 -1.21 7.276 3.671 8.944 4.951 z" fill="url(#A)"/><path d="m 115.5 92.35 c 3.336 2.559 2.406 9.709 -2.076 15.958 -4.482 6.25 -10.826 9.245 -14.162 6.686 -1.668 -1.28 -4.137 -2.559 -3.761 -5.447 0.376 -2.888 3.597 -7.386 5.837 -10.511 2.241 -3.125 4.85 -7.335 7.414 -8.545 2.563 -1.21 5.08 0.58 6.748 1.86 z" fill="url(#2)"/><use xlink:href="#K" transform="matrix(0.43413 -0.60543 0.57728 0.44292 -183.07 46.01)" width="1" height="1" fill="url(#4)"/><use xlink:href="#J" transform="matrix(0.51255 -0.83969 0.46966 0.28668 -254.87 381.14)" width="1" height="1" fill="url(#F)"/><use xlink:href="#J" transform="matrix(0.51255 -0.83969 0.46966 0.28668 -258.34 378.46)" width="1" height="1" fill="#fff"/><use xlink:href="#J" transform="matrix(0.46911 -0.72155 0.37933 0.26646 -215.02 331.96)" width="1" height="1" fill="url(#H)"/><use xlink:href="#K" transform="matrix(0.43413 -0.60543 0.57728 0.44292 -191.29 38.969)" width="1" height="1" fill="url(#0)"/></g></g></g></svg>