<svg xmlns="http://www.w3.org/2000/svg" viewBox="0 0 256 256" xmlns:xlink="http://www.w3.org/1999/xlink"><defs><path id="0" d="m 138.03 132.5 c 0 6.152 -5.313 11.139 -11.866 11.139 -6.553 0 -11.866 -4.987 -11.866 -11.139 0 -6.152 5.313 -11.139 11.866 -11.139 6.523 0 11.822 4.942 11.866 11.07 l -11.866 0.074 z" stroke-width="0.075"/></defs><path d="m 3.74 950.97 c 19.829 131.87 217.21 135.83 247.04 7.636 30.702 -103.78 -80.47 -188.63 -163.63 -154.63 -55.684 16.07 -100.67 81.83 -83.41 146.99 z" fill="#d2b48c" color="#000" transform="translate(0 -796.36)"/><g transform="matrix(1.07391 0 0 1.06656 -8.02 -1.167)"><rect width="115.22" height="116.9" x="67.932" y="65.07" rx="9.932" ry="10" fill="#e6cf8d" stroke="#33332f" stroke-width="0.075"/><g fill="#3d3637" stroke="#3d3635"><path d="m 146.86 187.19 l 0.336 -17.985 l -0.181 -17.467 h 17.987 h 17.987 c -0.033 10.06 -0.066 20.12 -0.1 30.19 l -2.591 4.177 l -4.143 1.589 l -11.676 -0.096 c -6.379 -0.287 -11.801 0.481 -17.62 -0.404 z" transform="translate(-0.678 -6.105)" stroke-width="0.051"/><path d="m 68.35 88.82 v -16.333 l 2.115 -4.74 l 5.22 -2.152 h 15.03 h 15.03 l -0.199 18.622 c -0.134 12.524 0.343 20.422 -0.14 20.929 -0.472 0.497 -7.561 -0.66 -19.274 -0.396 l -17.781 0.401 z" stroke-width="0.05"/></g><path d="m 71.46 185.76 l -2.429 -5.653 v -13.841 v -13.841 h 18.993 h 18.993 v 16.918 c 0 10.444 -0.257 17.08 -0.672 17.334 -0.37 0.228 -7.01 0.573 -14.754 0.765 l -14.08 0.349 z m 22.556 -4.54 c 4.071 -1.629 6.219 -5.453 6.219 -11.07 0 -7.216 -2.688 -11.149 -8.34 -12.205 -1.745 -0.326 -4.475 -0.341 -6.07 -0.033 -2.517 0.137 -4.353 1.087 -5.989 2.456 -3.911 3.291 -4.272 9.276 -3.921 13.3 0.37 4.238 5.886 7.449 7.586 8.452 1.814 1.07 6.617 0.659 10.511 -0.899 z" transform="translate(-0.678 -6.105)" fill="#f4570d" stroke="#f4570d" stroke-width="0.051"/><path d="m 146.19 65.777 l 0.341 19.19 l -0.183 18.64 h 18.227 h 18.227 c -0.034 -10.738 -0.067 -21.476 -0.101 -32.21 l -2.625 -4.457 l -4.198 -1.696 l -11.832 0.103 c -6.464 0.306 -11.958 -0.513 -17.855 0.431 z" fill="#e51c10" stroke="#3d3635" stroke-width="0.053"/><path fill="#3d3637" stroke="#be1108" stroke-width="0.075" d="m 106.36 105.57 h 39.716 v 39.23 h -39.716 z"/><use transform="matrix(1.34521 0 0 1.38934 -43.02 -59.15)" fill="#6996af" stroke="#5489a8" xlink:href="#0"/><use transform="matrix(1.28426 0 0 1.3027 3.172 -87.86)" fill="#f9818f" stroke="#f9818f" xlink:href="#0"/><use transform="matrix(0.5932 0 0 0.61004 51.614 44.595)" fill="#d0da36" stroke="#f0e68c" xlink:href="#0"/></g></svg>