<svg xmlns="http://www.w3.org/2000/svg" viewBox="0 0 256 256"><path d="m 2.967 157.19 c 15.875 103.35 156.87 131.01 219.1 57.23 54.798 -54.8 41.16 -159.7 -26.05 -195.67 -77.21 -48.12 -189.69 11.369 -195.83 107.16 -0.632 10.494 0.26 21.1 2.771 31.28 z" fill="#e1e7d7" color="#000"/><path d="m 132.55 128.34 c 0 -100.46 0.229 -126.27 1.121 -126.25 0.617 0.009 5.361 0.554 10.542 1.211 10.156 1.287 21.915 4.231 30.784 7.705 7.78 3.048 23.628 11.618 30.793 16.653 39.04 27.43 57.999 81.29 45.925 130.44 -5.279 21.493 -14.822 38.14 -31.969 55.78 -16.263 16.728 -31.25 26.461 -51.7 33.566 -9.04 3.143 -27.26 7.144 -32.581 7.156 l -2.916 0.007 v -126.27 z" fill="#ffef00"/><path d="m 124.97 128.34 c 0 -89.75 0.218 -112.8 1.068 -112.78 0.587 0.008 5.103 0.495 10.04 1.081 9.668 1.15 20.863 3.779 29.31 6.883 7.407 2.723 22.494 10.379 29.31 14.876 37.16 24.504 55.21 72.62 43.721 116.53 -5.03 19.2 -14.11 34.07 -30.435 49.83 -15.483 14.943 -29.754 23.638 -49.22 29.985 -8.609 2.807 -25.951 6.382 -31.02 6.392 l -2.776 0.007 v -112.8 z" fill="#cd2209"/><path d="m 323.59 235.79 c 0 -5.419 -0.289 -12.619 -0.642 -16 -0.586 -5.609 -0.849 -6.147 -3 -6.147 -1.94 0 -2.358 -0.519 -2.358 -2.93 0 -2.263 0.505 -3 2.217 -3.25 1.516 -0.219 2.508 -1.341 3.139 -3.55 1.53 -5.357 0.013 -6.163 -12.201 -6.487 l -10.655 -0.283 l -0.291 -7.692 l -0.291 -7.692 l -3.709 -0.308 l -3.709 -0.308 l -0.292 -7.75 l -0.292 -7.75 l 2.792 -0.015 c 3.712 -0.02 5.02 -0.978 5.441 -3.985 0.323 -2.304 0.936 -2.578 7.836 -3.5 l 7.485 -1 l 0.868 -4 c 0.478 -2.2 1.084 -7.04 1.347 -10.75 0.446 -6.29 0.64 -6.75 2.838 -6.75 1.297 0 2.637 -0.45 2.977 -1 0.34 -0.55 2.391 -1 4.559 -1 h 3.941 v 6.878 c 0 4.847 0.436 7.24 1.477 8.104 1.092 0.906 4.941 1.061 14.75 0.592 7.3 -0.349 15.519 -0.278 18.265 0.158 4.527 0.718 5.04 1.07 5.504 3.781 0.43 2.51 1.032 3.039 3.757 3.302 3.745 0.362 5.724 3.15 4.813 6.78 -0.505 2.01 -1.225 2.407 -4.385 2.407 -4.123 0 -6.181 1.398 -6.181 4.2 0 1.094 -0.736 1.8 -1.878 1.8 -3.37 0 -4.434 2.529 -3.72 8.844 1.045 9.234 1.147 9.156 -11.928 9.156 -6.221 0 -11.939 0.241 -12.707 0.535 -1.155 0.443 -1.319 4.405 -0.953 23 l 0.443 22.465 h -2.594 c -3.01 0 -4.664 2.462 -4.664 6.934 0 2.91 -0.203 3.066 -4 3.066 h -4 v -9.853 z m -1.2 -55.35 c 1.558 -1.558 1.558 -12.04 0 -13.6 -0.698 -0.698 -4.044 -1.2 -8 -1.2 h -6.8 v 7.333 c 0 4.03 0.3 7.633 0.667 8 1.165 1.165 12.877 0.723 14.13 -0.533 z m 24.664 0.258 c 0.32 -0.518 0.864 -5.229 1.208 -10.468 0.699 -10.636 -0.026 -12.59 -4.672 -12.59 -3.17 0 -4.663 1.448 -5.154 5 -0.247 1.784 -1.062 2.6 -2.846 2.851 -1.375 0.193 -2.831 0.868 -3.235 1.5 -1.198 1.874 -0.866 12.149 0.435 13.449 1.419 1.419 13.413 1.636 14.264 0.258 z m -5.677 -44.06 c -0.371 -2.531 -0.108 -3 1.687 -3 2.6 0 4.527 1.788 4.527 4.2 0 1.318 -0.774 1.8 -2.887 1.8 -2.443 0 -2.954 -0.461 -3.327 -3 z m -5.04 -4.716 c -3.938 -0.597 -3.754 -3.909 0.25 -4.497 2.73 -0.401 3 -0.186 3 2.387 0 1.555 -0.113 2.759 -0.25 2.677 -0.137 -0.082 -1.488 -0.337 -3 -0.566 z" fill="#0a0605" transform="matrix(1.49088 0 0 1.40117 -364.08 -120.79)"/></svg>