<svg xmlns="http://www.w3.org/2000/svg" xmlns:xlink="http://www.w3.org/1999/xlink" viewBox="0 0 256 256"><defs><path d="m 245.46 129.52 l -97.89 -96.9 c -5.556 -5.502 -16.222 -11.873 -23.7 -14.16 l -39.518 -12.08 c -7.479 -2.286 -18.1 0.391 -23.599 5.948 l -13.441 13.578 c -5.5 5.559 -14.502 14.653 -20 20.21 l -13.44 13.579 c -5.5 5.558 -8.07 16.206 -5.706 23.658 l 12.483 39.39 c 2.363 7.456 8.843 18.06 14.399 23.556 l 97.89 96.9 c 5.558 5.502 14.605 5.455 20.1 -0.101 l 36.26 -36.63 c 5.504 -5.559 14.503 -14.651 20 -20.21 l 36.26 -36.629 c 5.502 -5.56 5.455 -14.606 -0.101 -20.11 z m -178.09 -50.74 c -7.198 0 -13.03 -5.835 -13.03 -13.03 0 -7.197 5.835 -13.03 13.03 -13.03 7.197 0 13.03 5.835 13.03 13.03 -0.001 7.198 -5.836 13.03 -13.03 13.03 z" id="0"/><use id="1" xlink:href="#0"/><clipPath id="2"><use xlink:href="#0"/></clipPath><clipPath clip-path="url(#2)"><use xlink:href="#1"/></clipPath><clipPath clip-path="url(#2)"><use xlink:href="#1"/></clipPath></defs><g color="#000" fill="#b02e13"><path d="m 128.42 795.13 c 168.87 -19.553 166.53 260.33 -3.01 257.01 -157.67 9.224 -171.9 -272.26 3.01 -257.01 z" transform="matrix(1 0 0 0.98305 0 -778.52)"/></g><g transform="matrix(5.0428 0 0 5.30354 7.168 0.562)"><path d="m 13,15 v 16 l 11,6 11,-6 V 15 h -6 l -5,-3 -5,3 z" fill="#0f4c8a"/><path d="m 13,15 v 18 l 12,6 12,-6 V 15 h -7 l -5,-3 -5,3 z m 2,2 h 5.553968 L 25,14.332381 29.446032,17 H 35 v 14.763932 l -10,5 -10,-5 z m 4,4 h 1 l 1,2 h 1 l 1,-3 h 4 l 1,3 h 1 l 1,-2 h 1 v 3 l -1,2 v 4 H 20 v -4 l -1,-2 z" opacity="0.1"/><path d="m 12,14 v 18 l 12,6 12,-6 V 14 h -7 l -5,-3 -5,3 z m 2,2 h 5.553968 L 24,13.332381 28.446032,16 H 34 v 14.763932 l -10,5 -10,-5 z m 4,4 h 1 l 1,2 h 1 l 1,-3 h 4 l 1,3 h 1 l 1,-2 h 1 v 3 l -1,1 v 5 H 19 v -5 l -1,-1 z" fill="#e6c419"/><path d="m 18,23 1,2 10,0 1,-2 z m 6,3 1,1 -1,1 -1,-1 z" fill="#e6a219"/></g></svg>