<svg xmlns="http://www.w3.org/2000/svg" viewBox="0 0 256 256"><defs><clipPath><path d="m 27.643 3.295 l 13.09 13.09 h -11.07 c -0.978 0 -2.01 -1.035 -2.01 -2.01 v -11.07 z"/></clipPath><clipPath><path d="m 47.41 6.348 v -1.75 c 0 -2.054 -1.664 -3.719 -3.719 -3.719 h -39.37 c -2.054 0 -3.719 1.664 -3.719 3.719 v 1.75" transform="matrix(0.99561 0 0 0.99561 0.105 0.016)"/></clipPath></defs><path d="m -1752.83 1917.57 c -135.66 -329.42 434.9 -174.65 157.85 40.478 -49.706 37.47 -133.17 40.36 -157.85 -40.478 z" fill="#235883" color="#000" transform="translate(1774.03 -1727.32)"/><path d="m 54.976 201.98 c 1.184 -4.958 8.092 -46.769 10.947 -66.27 l 2.97 -20.28 l -2.819 -7.365 c -1.55 -4.051 -3.823 -10.785 -5.05 -14.965 -2.105 -7.166 -4.02 -10.213 -14.658 -23.299 c -2.48 -3.051 -0.959 -6.03 1.694 -3.321 0.827 0.845 4.382 4.481 7.9 8.08 10.808 11.06 12.12 6.736 3.44 -11.367 -6.215 -12.967 -7.122 -16.188 -4.555 -16.188 1.996 0 6.294 6.552 11.392 17.366 6.65 14.11 9.04 13.644 5.511 -1.066 -1.238 -5.164 -2.538 -12.668 -2.89 -16.675 -0.593 -6.761 -0.49 -7.259 1.426 -6.901 1.647 0.307 2.671 2.752 5.057 12.07 4.755 18.575 5.131 19.66 6.818 19.66 1.292 0 1.584 -2.135 1.584 -11.563 0 -13.232 0.755 -18.209 2.762 -18.209 1.691 0 2.332 2.959 3.229 14.886 1.527 20.306 3.372 27.569 7.561 29.766 2.191 1.149 3.078 1.027 6.167 -0.851 1.985 -1.206 5.318 -3.94 7.406 -6.075 4.259 -4.354 8.546 -6.836 10.579 -6.125 2.377 0.831 1.506 2.469 -5.03 9.461 -3.514 3.758 -8.217 10.29 -10.453 14.517 -2.235 4.227 -5.872 10.08 -8.08 13 -5.827 7.709 -6.249 8.742 -7.634 18.65 -3.664 26.21 -2.667 17.879 -6.073 48.706 l -2.96 26.743 h -13.404 c -13.347 0 -13.402 -0.011 -12.833 -2.392 z" opacity="0.95" fill="#f6bd7e" stroke="#f6bd7e" stroke-width="2.148"/><g stroke-width="2.169"><path d="m 120.71 191.08 l -4.429 -13.289 l -12.886 -13.288 c -7.087 -7.308 -13.433 -13.287 -14.1 -13.287 -2.153 -2.279 -4.271 -5.05 -6.64 -6.84 -7.784 -5.811 -7.156 -7.854 2.041 -6.634 3.919 0.52 5.506 1.248 5.886 2.699 0.687 2.629 7.04 6.426 10.76 6.432 4.895 0.007 6.538 -3.788 5.717 -13.206 -1.207 -13.845 -2.839 -25.14 -3.925 -27.17 -0.758 -1.416 -0.518 -2.867 0.859 -5.198 1.051 -1.779 2.195 -3.234 2.543 -3.234 1.029 0 2.936 6.328 5.393 17.898 2.223 10.466 3.537 13.653 5.02 12.17 0.386 -0.386 1.015 -8.03 1.398 -16.982 0.69 -16.15 1.458 -19.271 4.311 -17.508 1.1 0.68 1.621 5.23 2.046 17.891 0.61 18.16 1.737 20.857 4.308 10.321 3.129 -12.821 5.756 -20.24 7.83 -22.12 2.026 -1.834 2.223 -1.842 2.883 -0.121 0.39 1.016 -0.885 8.372 -2.833 16.347 -1.948 7.975 -3.235 15.3 -2.859 16.279 1.268 3.304 4.419 1.093 8.529 -5.984 6.784 -11.682 9.513 -13.779 9.168 -7.05 -0.113 2.204 -0.762 3.794 -1.55 3.797 -0.746 0.003 -1.356 0.981 -1.356 2.174 0 1.193 -0.512 2.169 -1.138 2.169 -1.495 0 -5.316 8.483 -5.347 11.868 2.633 12.204 0.633 12.379 -2.34 21.962 -1.731 5.56 -1.774 6.804 -0.421 11.999 1.801 6.914 5.557 16.726 7.632 19.938 1.162 1.798 1.232 3.155 0.319 6.132 -1.36 4.432 -3.376 5.119 -15.02 5.119 h -7.368 z" opacity="0.95" fill="#c58a48" stroke="#bd884b"/><path d="m 148.21 202.55 c 2.623 -6.834 2.847 -12.11 1.076 -25.27 -2.082 -15.473 -3.153 -19.07 -7.909 -26.569 -3.304 -5.21 -4.465 -10.349 -2.337 -10.349 0.581 0 3.281 3.858 6 8.574 5.484 9.507 7.317 11.495 9.743 10.564 2.176 -0.835 2.096 -2.15 -0.995 -16.296 -4.357 -19.942 -4.259 -19.11 -2.276 -19.11 2.334 0 4.509 5.424 7.33 18.279 4.066 18.529 5.752 17.532 6.795 -4.02 0.785 -16.216 1.455 -19.511 3.683 -18.13 0.772 0.477 1.21 5.305 1.218 13.427 0.015 16.267 0.739 20.817 3.311 20.817 2.147 0 2.464 -0.766 4.264 -10.305 2.179 -11.549 4.309 -17.898 6 -17.898 2.068 0 2.042 3.387 -0.122 15.729 -0.941 5.369 -1.794 13.831 -1.895 18.804 -0.168 8.297 0.027 9.212 2.369 11.11 3.262 2.645 6.237 1.932 14.667 -3.517 6.159 -3.981 11.766 -5.323 13.12 -3.139 0.348 0.563 -2.918 3.655 -7.258 6.872 -4.34 3.217 -13.437 11.787 -20.22 19.04 l -12.326 13.196 h -12.468 c -11.202 0 -12.398 -0.184 -11.773 -1.812 z" opacity="0.95" fill="#ffb380" stroke="#ffb380"/></g><path d="m 97.57 250.23 c -9.756 -0.887 -18.267 -3.124 -26.586 -6.985 -13.275 -6.162 -23.541 -15.457 -31.444 -28.468 -0.939 -1.546 -1.92 -3.296 -2.18 -3.887 l -0.473 -1.076 h 78.58 c 73.21 0 78.55 0.037 78.11 0.542 -1.128 1.299 -13 11.154 -18.652 15.477 -13.415 10.269 -25.784 16.555 -40.65 20.657 -12.53 3.458 -25.399 4.769 -36.705 3.741 z" opacity="0.95" fill="#4682b4" stroke="#4682b4" stroke-width="0.669"/></svg>