<svg xmlns="http://www.w3.org/2000/svg" viewBox="0 0 256 256"><defs><clipPath><path d="M 0,64 H64 V128 H0 z"/></clipPath></defs><g fill="#fffaf0" color="#000"><path d="m -1364.44 1637.2 c 46.11 -98.28 -115.29 -141.94 -177.55 -101.93 -62.25 40.01 -83.52 108.58 -13.01 143.08 70.51 34.501 139.38 67.53 185.49 -30.762 z" transform="matrix(-0.95802 -0.34548 0.47187 -1.20264 -2047.26 1564.67)"/></g><path d="m 106.75 200.9 c -8.395 -1.85 -22.806 -9.264 -30.404 -15.641 -6.926 -5.814 -14.92 -15.972 -13.903 -17.666 0.997 -1.661 19.07 -15.337 20.271 -15.337 0.551 0 4.503 3.577 8.783 7.949 9.125 9.323 17.577 11.694 29.536 14.12 l 7.816 1.585 l -0.34 14.456 l -0.088 13.417 c -7.143 -0.057 -14.751 -1.407 -21.671 -2.882 z" fill="#7361fa"/><g stroke-width="2.434"><path d="m 75.02 126.54 c -3.939 -4.429 -7.712 -8.984 -11.316 -13.684 l 2.643 -2.243 c 29.2 -24.773 46.2 -38.807 55.2 -45.553 l 4.068 -3.049 l -0.021 18.841 l -0.021 18.841 l -21.12 17.08 c -11.614 9.397 -21.54 17.08 -22.06 17.08 -0.518 0 -3.839 -3.295 -7.38 -7.322 z" fill="#ff28c3" stroke="#ff28c3"/><path d="m 149.56 116.84 l -21.776 -17.995 v -18.292 c 0 -10.06 0.213 -18.292 0.473 -18.292 1.522 0 54.34 43.02 59.07 48.11 3.125 3.366 3.03 3.556 -8.39 16.11 l -7.598 8.355 l -21.776 -17.995 z" fill="#ffa62a" stroke="#ffa62a"/><path d="m 129.96 177.29 c -0.173 -1.536 13.409 -0.35 24.26 -9.511 2.464 -1.552 7.481 -5.7 11.149 -9.217 l 6.669 -6.396 l 9.331 8.324 c 5.132 4.578 9.331 8.69 9.331 9.137 0 1.701 -6.957 9.459 -13.38 14.921 -11.475 9.758 -31.14 16.751 -43.908 17.648 l -3.607 0.253 c 0.474 -8.302 -0.318 -16.857 0.156 -25.16 z" fill="#55b1fa" stroke="#55b1fa"/></g></svg>