<svg xmlns="http://www.w3.org/2000/svg" viewBox="0 0 256 256"><defs><clipPath><path d="M 0,64 H64 V128 H0 z"/></clipPath></defs><g fill="#09a8c7" color="#000"><path d="m -1364.44 1637.2 c 46.11 -98.28 -115.29 -141.94 -177.55 -101.93 -62.25 40.01 -83.52 108.58 -13.01 143.08 70.51 34.501 139.38 67.53 185.49 -30.762 z" transform="matrix(-0.95802 -0.34548 0.47187 -1.20264 -2046.17 1564.67)"/></g><g transform="translate(0 -3.272)"><g fill="#17699a"><path d="m 58.17 206.82 c -5.452 -3.091 -4.214 -5.02 6.396 -9.943 8.663 -4.02 15.781 -10.917 18.982 -18.385 2.492 -5.814 5.478 -20.01 5.478 -26.04 0 -5.101 2.133 -8.871 4.504 -7.961 0.863 0.331 2.236 2.622 3.051 5.091 1.803 5.463 0.504 15.582 -3.713 28.931 -3.325 10.527 -7.02 15.848 -15.569 22.427 -9.256 7.123 -14.24 8.655 -19.13 5.884 z"/><path d="m 182.51 203.28 c -8.913 -4.459 -15.632 -11.167 -19.371 -19.337 -6.885 -15.05 -8.431 -37.698 -2.78 -40.723 3.475 -1.86 4.748 0.566 6.681 12.726 2.448 15.394 4.564 22.519 8.374 28.19 3.455 5.145 11.866 11.598 16.421 12.598 4.15 0.911 7.82 4.583 7.416 7.418 -0.58 4.07 -7.591 3.704 -16.74 -0.873 z"/><path d="m 88.84 214.3 c -3.207 -1.755 -4.366 -4 -3.02 -5.849 0.578 -0.79 4.427 -3.445 8.554 -5.9 10.281 -6.115 13.788 -11.568 16.768 -26.07 1.143 -5.566 2.498 -6.86 7.179 -6.86 4.987 -0.798 2.572 5.079 2.389 8.634 -0.278 5.416 -1.114 10.508 -2.243 13.662 -4.937 13.8 -21.899 26.614 -29.63 22.384 z"/><path d="m 154.75 212.08 c -13.656 -6.824 -20.567 -18.08 -22.759 -37.06 -0.583 -5.982 -2.276 -5.891 3.633 -5.082 2.358 0.323 4.75 1.081 5.315 1.684 0.565 0.603 1.707 4.285 2.538 8.181 0.831 3.897 2.443 8.702 3.581 10.678 2.687 4.664 8.891 10.343 14.292 13.08 7.921 4.02 9.438 8.252 3.675 10.261 -3.857 1.345 -4.213 1.284 -10.275 -1.745 z"/></g><path d="m 116.49 158.28 l -3.1 -0.61 l 0.318 -7.68 c 0.397 -9.583 -1.382 -13.937 -9.828 -24.05 l -5.791 -6.936 l 4.402 -12.547 c 2.421 -6.901 5.345 -15.535 6.497 -19.19 7.744 -24.552 12.656 -42.29 14.03 -42.29 1.137 0 0.72 8.507 0.383 24.359 -0.345 16.26 -0.605 18.855 -2.255 22.539 -2.989 6.673 -2.931 10.1 0.235 13.858 5.614 6.672 15.474 2.923 15.474 -5.883 0 -1.409 -0.823 -4.916 -1.828 -7.793 -1.564 -4.475 -1.852 -7.616 -1.993 -21.751 -0.22 -22.1 -1.057 -35.28 4.452 -17.687 1.754 5.601 5.633 24.687 6.625 27.12 0.992 2.435 2.553 6.819 3.468 9.741 2.868 9.162 7.58 22.88 9.1 26.484 l 1.457 3.459 l -5.638 5.84 c -8.06 8.345 -9.625 11.837 -10.254 22.815 -0.284 4.952 -0.765 9.254 -1.071 9.558 -0.824 0.822 -21.09 1.351 -24.684 0.644 z" fill="#fff"/></g><path d="m 134.61 97.48 a 5.756 5.313 0 1 1 -11.512 0 5.756 5.313 0 1 1 11.512 0 z" transform="matrix(1.47247 0 0 1.71658 -61.694 -71.22)" fill="#00738f"/></svg>