<svg xmlns="http://www.w3.org/2000/svg" viewBox="0 0 256 256"><path d="m 44.834 218.87 c -201.82 -266.38 353.59 -304.22 175.35 -32.31 -40.634 61.991 -121.89 102.86 -175.35 32.31 z" fill="#ff8c00" color="#000"/><path d="m 335.1 290.36 c -3.85 -0.423 -8.675 -1.112 -10.722 -1.531 -4.203 -0.86 -0.377 4.678 -37.31 -54.01 -11.422 -18.15 -22.22 -35.25 -24 -38 -1.779 -2.75 -10.304 -16.235 -18.944 -29.967 -17.642 -28.04 -16.94 -25.823 -12.373 -39.03 15.12 -43.718 49.01 -73.48 94.67 -83.14 14.291 -3.02 43.954 -2.01 54.43 1.86 3.325 1.229 8.755 10.197 8.755 14.46 0 4.044 -2.738 6.371 -21 17.845 -8.525 5.356 -25.18 15.81 -37 23.23 -24.08 15.11 -25 15.789 -25 18.445 0 1.708 15.198 26.771 18.825 31.04 0.817 0.963 2.23 1.75 3.141 1.75 0.911 0 11.754 -6.36 24.1 -14.13 12.341 -7.774 24.554 -15.448 27.14 -17.05 2.585 -1.606 6.276 -3.176 8.204 -3.489 2.947 -0.478 3.951 -0.111 6.312 2.305 3.596 3.679 26.937 41.04 27.783 44.46 0.95 3.854 -2.708 7.539 -15.21 15.322 -5.934 3.694 -17.09 10.754 -24.788 15.689 -7.7 4.935 -14.974 9.461 -16.17 10.06 -4.101 2.055 -3.456 4.374 4.898 17.598 36.12 57.18 34.955 54.731 27.517 57.752 -7.03 2.853 -12.998 4.629 -23.484 6.981 -7.635 1.713 -30.26 2.594 -39.766 1.549 z m 24.929 -13.611 c 0.864 -0.864 1.571 -2.113 1.571 -2.776 0 -1.154 -4.497 -8.721 -13.463 -22.653 -14.941 -23.22 -29.671 -47.2 -29.25 -47.622 0.274 -0.274 15.284 -9.824 33.36 -21.22 33.867 -21.361 35.578 -22.775 32.31 -26.712 -2.315 -2.789 -0.365 -3.87 -52.45 29.06 -13.826 8.74 -18.268 11.1 -19.16 10.187 -3.037 -3.132 -51.35 -81.07 -50.65 -81.71 0.443 -0.399 19.212 -12.396 41.806 -26.509 43.713 -27.305 45.71 -28.05 45.71 -30.39 0 -1.89 -12.793 -0.598 -14.274 -0.598 -0.727 0 -8.17 5.803 -23.935 15.967 -3.575 2.305 -18.512 11.755 -33.19 21 -14.682 9.245 -26.943 17.457 -27.25 18.249 -0.804 2.094 -10.322 -13.347 81.24 131.79 11.797 18.7 21.955 34.33 22.575 34.735 1.766 1.151 3.35 0.899 5.055 -0.806 z" fill="#fed329" transform="matrix(0.57375 0 0 0.58273 -70.29 30.21)"/></svg>