<svg xmlns="http://www.w3.org/2000/svg" viewBox="0 0 256 256"><path d="m 252.75 156.48 c -49.858 235.77 -392.89 -17.337 -186.83 -137.18 80.05 -51.37 212.47 15.92 186.83 137.18 z" fill="#d40005" color="#000"/><g fill="#ffdeb9"><path d="m 49.627 125.95 c -2.987 -2.57 -3.155 -3.264 -3.155 -13.03 0 -9.766 0.168 -10.46 3.155 -13.03 2.686 -2.31 4.434 -2.714 11.747 -2.714 7.542 0 9.03 0.369 12.18 3.02 3.477 2.926 3.588 3.319 3.588 12.724 0 9.406 -0.111 9.798 -3.588 12.724 -3.15 2.65 -4.638 3.02 -12.18 3.02 -7.313 0 -9.06 -0.404 -11.747 -2.714 z"/><path d="m 88.83 163.8 c -3.477 -0.301 -5.569 -1.247 -7.122 -3.221 -2.693 -3.424 -3.992 -13.517 -2.55 -19.815 1.673 -7.304 4.369 -8.746 16.344 -8.746 15.191 0 15.744 -0.635 15.744 -18.08 0 -17.441 -0.553 -18.08 -15.744 -18.08 -11.975 0 -14.671 -1.443 -16.344 -8.746 -1.527 -6.667 -0.128 -16.611 2.82 -20.04 2.166 -2.518 3.758 -2.942 13.803 -3.676 14.634 -1.07 15.13 -1.543 15.816 -15.02 0.83 -16.357 2.835 -18.409 17.985 -18.41 10.753 -0.001 12.9 2.128 13.538 13.426 0.516 9.132 -1.071 14.481 -4.919 16.576 -1.355 0.738 -7.388 1.674 -13.406 2.08 -14.04 0.947 -14.13 1.055 -14.13 17.757 0 11.885 0.175 12.833 2.862 15.521 2.597 2.597 3.797 2.862 12.918 2.862 9.559 0 10.224 0.168 13.464 3.409 3.163 3.163 3.409 4.04 3.409 12.18 0 7.59 -0.379 9.212 -2.814 12.04 -2.628 3.056 -3.552 3.313 -13.994 3.897 -8.06 0.45 -11.702 1.146 -13.05 2.495 -1.225 1.225 -2.239 5.441 -2.936 12.204 -0.586 5.683 -1.327 11.507 -1.646 12.942 -1.106 4.963 -8.733 7.411 -20.04 6.432 z"/><path d="m 149.28 163.15 c -3.931 -2.217 -4.9 -3.543 -6.158 -8.429 -1.897 -7.363 -0.867 -14.87 2.591 -18.891 2.493 -2.898 3.556 -3.184 14.02 -3.768 15.859 -0.886 16.734 -2.207 15.859 -23.956 -0.411 -10.202 -2.034 -11.467 -15.858 -12.36 -8.303 -0.536 -11.649 -1.24 -13.392 -2.817 -5.38 -4.869 -5.756 -20.553 -0.616 -25.693 4.987 -4.987 19.01 -5.057 24.613 -0.123 2.558 2.252 2.929 3.742 3.608 14.482 0.416 6.585 1.41 12.866 2.209 13.959 1.144 1.565 3.976 2.118 13.337 2.605 11.222 0.584 12.04 0.801 14.697 3.891 2.424 2.82 2.813 4.463 2.813 11.888 0 7.425 -0.389 9.07 -2.813 11.888 -2.656 3.09 -3.475 3.307 -14.697 3.891 -9.912 0.516 -12.155 0.988 -13.514 2.847 -4.729 11.163 4.18 24.422 -4.194 30.827 -15.1 1.453 -11.356 0.736 -22.509 -0.24 z"/></g><path d="m 136.56 254.08 c -34.04 -5.366 -65.41 -21.714 -92.13 -48.02 -8.264 -8.133 -20.403 -22.523 -20.403 -24.19 0 -0.852 24.603 -8.744 33.82 -10.848 4.838 -1.105 16.862 -1.951 33.24 -2.339 23.965 -0.568 26.914 -0.402 44.73 2.526 l 19.07 3.134 c 39.573 -17.587 39.496 16.16 91.59 -9.863 2.085 0.351 3.79 1 3.79 1.45 0 1.889 -7.431 22.955 -10.546 29.899 -7.611 16.963 -21.843 34.711 -34.935 43.567 -12.972 8.774 -26.1 13.376 -43.32 15.19 -12.962 1.365 -13 1.364 -24.905 -0.512 z" fill="#ffe5ca"/><path d="m 193.26 101.01 a 36.15 59.48 0 1 1 -0.001 -0.013" transform="matrix(1.32026 0 0 0.77731 -1.806 113.7)" fill="#105432"/><path d="m 196.25 227.13 c -0.508 -1.336 -1.236 -4.094 -1.618 -6.128 -0.501 -2.668 -1.508 -4.119 -3.62 -5.211 -2.158 -1.116 -2.926 -2.253 -2.926 -4.33 0 -4.115 -1.638 -5.337 -4.893 -3.648 -1.821 0.945 -3.01 1.056 -3.713 0.35 -0.572 -0.571 -1.185 -5.47 -1.363 -10.888 -0.248 -7.528 0.032 -10.329 1.187 -11.881 1.503 -2.02 1.524 -2.02 3.935 0.247 3 2.822 4.847 1.474 4.847 -3.546 0 -4.443 2.088 -8.341 6.583 -12.287 3.425 -3.01 4.115 -3.197 11.65 -3.197 7.226 0 8.329 0.269 11.278 2.75 3.83 3.222 6.987 9.609 7.02 14.197 0.026 3.793 1.306 4.975 3.078 2.841 1.655 -1.994 5.703 -1.936 6.482 0.094 1.271 3.313 0.654 19.276 -0.824 21.297 -1.416 1.937 -1.491 1.932 -4.528 -0.314 -1.698 -1.256 -3.335 -2.283 -3.637 -2.283 -0.302 0 -0.549 1.804 -0.549 4.01 0 3.389 -0.55 4.429 -3.554 6.72 -1.954 1.491 -3.556 3.456 -3.559 4.367 -0.003 0.911 -0.481 3.37 -1.063 5.464 -0.768 2.765 -1.609 3.807 -3.072 3.807 -2.336 0 -2.849 -1.046 -3.81 -7.767 -0.625 -4.367 -0.988 -4.924 -3.208 -4.924 -2.19 0 -2.634 0.637 -3.541 5.077 -0.57 2.792 -1.407 5.648 -1.859 6.346 -1.327 2.05 -3.725 1.46 -4.722 -1.161 z" fill="#3ddc84"/><g fill="#d40005"><path d="m 119.1 220.4 c -0.49 -0.794 1.679 -1.932 6.845 -3.594 2.566 -0.825 5.01 -1.827 5.437 -2.226 0.931 -0.876 0.187 -1.109 -5.924 -1.857 -2.321 -0.284 -4.415 -0.856 -4.897 -1.338 -0.758 -0.758 -0.691 -0.9 0.66 -1.414 0.827 -0.314 3.648 -0.572 6.269 -0.572 6.333 -0.001 8.534 -1.011 8.782 -4.03 0.203 -2.467 -1.033 -4.2 -2.996 -4.2 -1.065 0 -1.338 0.362 -1.624 2.148 -0.25 1.564 -0.66 2.23 -1.506 2.452 -1.763 0.461 -2.166 -0.405 -0.923 -1.985 1.416 -1.801 1.399 -2.352 -0.106 -3.406 -1.873 -1.312 -2.521 -1.045 -3.233 1.332 -0.795 2.653 -2.419 4.333 -3.32 3.432 -1.254 -1.254 1.453 -16.214 3.168 -17.51 0.466 -0.352 2.989 -0.785 5.607 -0.961 2.618 -0.177 5.81 -0.661 7.094 -1.076 1.986 -0.642 2.887 -0.64 6.04 0.013 5.295 1.098 7.27 1.821 7.27 2.664 0 0.829 -1.335 1.162 -6.788 1.695 l -3.769 0.368 l 0.332 2.421 c 0.463 3.379 1.221 4.572 2.904 4.572 1.27 0 1.388 -0.166 1.108 -1.566 -0.38 -1.902 0.428 -2.824 2.477 -2.824 1.481 0 1.528 0.088 1.399 2.607 -0.125 2.457 -0.049 2.617 1.334 2.777 2.406 0.278 4.345 4.565 2.936 6.491 -0.942 1.289 -1.985 0.719 -2.693 -1.471 -0.517 -1.598 -0.901 -1.924 -2.448 -2.072 l -1.835 -0.176 l 0.188 2.371 c 0.177 2.236 0.111 2.362 -1.16 2.22 -1.613 -0.18 -2.2 -0.977 -2.211 -3 -0.011 -2.042 -0.876 -1.898 -3.086 0.514 -2.096 2.288 -2.771 3.874 -1.984 4.661 0.861 0.861 4.499 1.521 8.455 1.535 2.02 0.007 4.345 0.27 5.172 0.584 1.399 0.532 1.44 0.634 0.594 1.48 -0.61 0.61 -2.729 1.126 -6.445 1.571 -7.972 0.953 -7.983 1.351 -0.109 4.084 8.511 2.954 5.776 4.448 -3.979 2.173 -6.01 -1.402 -7.102 -1.382 -14.765 0.274 -7.06 1.526 -7.804 1.602 -8.271 0.847 z m 9.976 -22.414 c 0.363 -0.231 0.982 -1.4 1.374 -2.598 0.971 -2.965 2.663 -3.03 3.35 -0.12 0.553 2.337 1.48 2.596 3.094 0.864 1.19 -1.277 2.02 -4.394 1.422 -5.356 -0.433 -0.7 -8.471 -0.778 -9.553 -0.093 -0.902 0.571 -2.344 5.809 -1.911 6.939 0.337 0.878 1.195 1.019 2.223 0.365 z"/><path d="m 77.44 219.98 c -1.542 -0.23 -1.568 -0.292 -1.303 -3.073 0.361 -3.793 1.985 -15.526 2.481 -17.931 0.297 -1.439 0.841 -2.127 2.168 -2.744 1.955 -0.908 2.229 -1.701 0.954 -2.759 -1.403 -1.165 -0.604 -1.878 2.763 -2.463 1.764 -0.307 3.305 -0.853 3.426 -1.215 0.218 -0.653 -0.439 -0.879 -4.387 -1.514 -2.42 -0.389 -2.684 -1.161 -0.549 -1.607 5.381 -1.125 29.31 -1.87 30.747 -0.958 0.539 0.342 0.466 0.655 -0.319 1.365 -0.787 0.712 -2.718 1.022 -8.507 1.365 -4.119 0.244 -9.305 0.265 -9.529 0.489 -0.784 0.784 2.863 1.792 6.131 1.804 5.985 0.022 10.702 0.656 10.702 1.437 0 1.423 -2.258 1.87 -11.24 2.224 -5.01 0.198 -12.11 -0.921 -12.606 0.918 -1.035 2.927 4.975 2.182 9.567 2.393 8.205 0.377 12.517 -0.881 15.24 -0.152 0.203 0.203 -0.335 0.929 -1.195 1.615 -1.434 1.144 -1.597 1.651 -1.977 6.15 -0.227 2.697 -0.836 7.188 -1.353 9.98 l -0.94 5.077 l -14.349 -0.082 c -7.892 -0.045 -15.06 -0.188 -15.923 -0.317 z m 25.854 -4.173 c 0.375 -1.85 -20.973 -2.424 -21.316 0 -0.284 2.01 5.622 1.741 9.933 1.741 4.311 0 10.901 0.639 11.383 -1.741 z m 0.284 -6.03 c -0.704 -1.095 -20.759 -1.73 -21.05 0.544 -0.209 1.625 6.22 1.271 10.586 1.266 4.564 -0.006 11.746 0.182 10.465 -1.81 z m 0.458 -4.457 c 1.146 -1.051 -0.757 -1.492 -9.585 -1.492 -6.444 0 -10.725 -0.526 -10.275 1.562 0.151 0.703 -0.361 0.723 0.658 0.956 4.464 1.13 14.451 1.791 19.2 -1.026 z"/></g></svg>