<svg xmlns="http://www.w3.org/2000/svg" viewBox="0 0 256 256"><path d="m 223.46 217.48 c 146.42 -225.37 -253.5 -312.59 -221.64 -80.74 12.991 94.56 165.63 166.95 221.64 80.74 z" fill="#0372b8" color="#000"/><path d="m 14.821 173.36 c -10 -18.09 -13.875 -35.36 -13.875 -61.868 0 -21.657 2.94 -36.542 10.37 -52.5 13.671 -29.366 39.714 -48.65 75.24 -55.719 c 39.19 -7.797 81.73 1.473 117.61 25.631 7.628 5.136 26.14 23.07 30.803 29.831 l 2.918 4.235 l -109.08 57.88 c -59.995 31.834 -109.45 58.01 -109.9 58.16 c -0.448 0.153 -2.289 -2.388 -4.091 -5.647 z" fill="#004c8c"/><g fill="#fff"><path d="m 51.735 160.13 c -1.039 -0.831 0.527 -1.649 0.828 -5.783 1.634 -22.443 -0.63 -51.49 -2.249 -57.07 -0.304 -1.046 1.459 -0.874 3.682 -1.529 2.697 -0.795 11.126 -0.417 12.61 0.599 0.513 0.351 -0.769 2.389 -1.211 7.196 -0.339 3.689 -1.487 17.15 -0.675 30.907 l 1.513 25.634 l -6.538 0.488 c -3.766 0.281 -7.163 0.198 -7.959 -0.439 z"/><path d="m 130.2 156.41 c -1.693 -1.113 -4.957 -4.106 -7.255 -6.651 -3.959 -4.388 -20.574 -24.756 -26.17 -32.08 -4.467 -5.849 -4.598 -5.452 -4.55 13.841 0.04 16.01 0.114 16.997 1.465 19.58 1.693 3.234 1.366 4.512 -1.303 5.093 -2.665 0.581 -9.01 -0.236 -10.835 -1.395 l -1.476 -0.939 l 1.476 -2.74 c 1.429 -2.653 1.481 -3.389 1.662 -23.18 0.168 -18.434 0.063 -20.902 -1.065 -25.13 -1.631 -6.111 -1.085 -7.06 3.957 -6.845 6.266 0.264 7.821 1.199 12.711 7.639 6.119 8.06 23.832 29.436 26.307 31.75 1.117 1.045 2.256 1.678 2.529 1.407 0.273 -0.271 0.596 -6.741 0.717 -14.377 0.212 -13.379 0.018 -15.581 -1.954 -22.18 -1.126 -3.771 -0.462 -4.256 5.926 -4.326 6.776 -0.075 7.134 0.28 5.634 5.585 -1.022 3.615 -1.136 6.691 -0.978 26.478 0.243 30.398 0.331 28.835 -1.685 29.747 -2.09 0.945 -1.531 1.084 -5.112 -1.27 z"/><path d="m 172.79 157.29 c -4.314 -1.194 -8.929 -3.341 -11.56 -5.378 -6.164 -4.772 -11.172 -12.198 -12.864 -19.07 -0.834 -3.39 -0.805 -10.1 0.062 -13.917 2.191 -9.662 8.792 -18.257 17.665 -23 4.935 -2.639 7.223 -5.34 15.462 -5.345 9 -0.005 12.02 3.103 18.258 7.48 3.834 2.691 9.199 8.646 10.63 11.8 3.35 7.382 3.743 8.867 3.731 14.13 -0.017 7.31 -1.4 12.301 -5.145 18.561 -3.154 5.272 -2.797 5.721 4.157 5.23 4.739 -0.335 6.384 0.028 6.814 1.505 0.145 0.498 0.038 1.367 -0.238 1.932 -0.922 1.884 -5.391 6.593 -6.694 7.05 -0.807 0.285 -7.738 0.417 -18.574 0.353 l -17.287 -0.102 c -1.472 -0.407 -2.944 -0.815 -4.416 -1.223 z m 14.495 -9.118 c 7.61 -2.225 11.983 -9.236 13.419 -15.333 1.208 -5.189 1.249 -8.283 0.17 -12.934 -1.967 -8.478 -5.454 -13.218 -12.544 -17.05 -3.609 -1.952 -4.094 -2.097 -6.885 -2.052 -7.212 0.115 -14.765 4.385 -18.14 10.256 -1.719 2.99 -2.416 5.932 -2.637 11.132 -0.579 13.596 5.307 23.661 15.208 26 3.465 0.82 8.172 0.812 11.411 -0.02 z"/></g></svg>