<svg xmlns="http://www.w3.org/2000/svg" viewBox="0 0 256 256"><g color="#000" fill="#808080"><path d="m -1363.8 1650.47 c 92.76 -229.28 -405.65 -114.61 -172.57 42.475 46.699 31.473 147.56 19.349 172.57 -42.475 z" transform="matrix(-1.03665 0 0 1.35742 -1401.71 -2064.79)"/></g><g transform="matrix(2.58595 1.85489 -1.71749 2.55229 105.79 14.176)"><path d="M 9,6 H 39 V 20 H 9 z" fill="#b7b7b7"/><rect ry="0.644" rx="0.635" y="18" x="4" height="24" width="40" fill="#4f4f4f"/><path opacity="0.4" d="M 12,23 H36 V27 H12 z"/><path opacity="0.4" d="M 14,29 H34 V33 H14 z"/><path opacity="0.4" d="M 16,35 H32 V39 H16 z"/><path d="M 9,6 V 7 H 39 V 6 H 9 z" opacity="0.2" fill="#fff"/><path d="m 4,40 v 1 c 0,1.108 0.892,2 2,2 h 36 c 1.108,0 2,-0.892 2,-2 v -1 c 0,1.108 -0.892,2 -2,2 H 6 C 4.892,42 4,41.108 4,40 z" opacity="0.2"/><circle r="11" cy="37" cx="36" transform="matrix(1.21795 -0.01342 -0.01226 1.2084 -6.582 -5.104)" opacity="0.2"/><circle r="11" cy="36" cx="36" transform="matrix(1.12157 0.00087 0.00079 1.12219 -3.718 -1.591)" fill="#3c92d2"/><path opacity="0.5" d="M 12,9 H18 V13 H12 z"/><path opacity="0.5" d="M 30,9 H36 V13 H30 z"/><path d="m 28.809 38.865 c 0.073 4.695 3.892 8.565 8.53 8.645 4.591 0.079 8.256 -3.588 8.26 -8.215 a 1.433 1.384 55.22 0 0 0.006 -0.141 1.433 1.384 55.22 0 0 -1.422 -1.441 1.433 1.384 55.22 0 0 -1.378 1.393 c 0.048 3.13 -2.419 5.624 -5.511 5.571 -3.092 -0.053 -5.638 -2.633 -5.686 -5.763 -0.049 -3.13 2.419 -5.624 5.511 -5.571 l 0.044 2.833 l 5.533 -4.154 l -5.664 -4.346 l 0.044 2.833 c -4.638 -0.08 -8.339 3.662 -8.266 8.356 z" fill="#fff"/></g></svg>