<svg xmlns="http://www.w3.org/2000/svg" viewBox="0 0 256 256"><g fill="#380f0d" color="#000"><path d="m -1363.8 1650.47 c 92.76 -229.28 -405.65 -114.61 -172.57 42.475 46.699 31.473 147.56 19.349 172.57 -42.475 z" transform="matrix(-1.02336 0 0 1.34235 -1382.1 -2040.66)"/></g><g transform="matrix(0.92368 0 0 0.91128 -38.807 55.6)" fill="#ffc0cb" stroke="#ffc0cb" stroke-width="0.361"><path d="m 93.51 191.53 c -2.715 -0.983 -4.209 -5.216 -5.686 -16.11 -1.898 -13.991 -4.758 -13.361 -6.82 1.503 -0.718 5.175 -1.467 10.174 -1.665 11.11 -0.439 2.077 -3.595 3.617 -7.412 3.617 -4.096 0 -4.671 -2.123 -4.261 -15.709 l 0.339 -11.209 l -4.415 -0.552 c -2.434 -0.304 -4.599 -1.032 -4.826 -1.621 -0.226 -0.588 1.12 -7.998 2.99 -16.465 3.474 -15.726 4.822 -27.819 4.883 -43.786 0.054 -14.06 2.532 -19.822 10.11 -23.489 7.552 -3.656 10.57 -2.218 26.476 12.616 l 8.325 7.764 h 5.826 c 5.094 0 6.078 0.252 7.834 2.01 5.634 5.634 -1.707 12.04 -12.216 10.655 -2.301 -0.302 -6.284 -1.385 -8.85 -2.405 l -4.665 -1.855 l -0.243 4.184 c -0.449 7.714 5.543 1.409 10.535 18.286 2.728 9.225 0.263 30.907 0.264 31.919 0.002 1.603 -0.421 1.841 -3.27 1.841 -2.211 0 -3.818 0.545 -4.954 1.681 -1.519 1.519 -1.621 2.25 -1.059 7.568 0.975 9.222 0.742 16.02 -0.592 17.283 -1.722 1.636 -4.154 2.06 -6.641 1.16 z" transform="translate(54.816 -49.907)"/><path d="m 133.44 21.1 c -6.66 -3.297 -9.458 -9.361 -7.07 -15.327 3.679 -9.195 14.384 -10.846 21.23 -3.272 2.877 3.185 3.02 3.612 2.677 7.799 -0.43 5.181 -2.287 8.08 -6.849 10.688 -4.312 1.975 -7.213 1.463 -9.983 0.113 z"/><path d="m 193 140.31 c -3.81 -1.409 -4.551 -6.01 -1.612 -10.01 3.399 -4.624 4.088 -7.473 3.561 -14.718 -0.554 -7.605 -4.203 -29.823 -5.591 -34.04 -1.401 -4.258 -6.96 -9.887 -9.766 -9.887 -2.237 0 -2.317 0.147 -2.555 4.696 -0.273 5.226 -1.862 6.504 -4.79 3.854 -3.708 -3.356 -2.606 -10.728 2.025 -13.553 4.106 -2.504 7.905 -2.02 12.468 1.588 3.965 3.134 34.713 34.657 41.15 42.19 5.219 6.104 5.792 7.259 7.02 14.15 1.597 8.959 1.517 12.805 -0.299 14.449 -2.239 2.026 -6.398 1.716 -8.768 -0.654 -2.538 -2.538 -2.52 -3.716 0.115 -7.569 1.813 -2.65 2.055 -3.693 1.658 -7.132 -0.256 -2.215 -0.758 -4.321 -1.117 -4.679 -0.734 -0.734 -13.646 1.739 -19.861 3.803 -5.361 1.781 -6.514 3.513 -5.953 8.946 0.253 2.449 0.056 5 -0.46 5.965 -1.134 2.119 -4.888 3.474 -7.227 2.608 z"/><path d="m 211.25 87.1 c -3.203 -1.953 -8.54 -8.166 -8.54 -9.941 0 -3.187 5.912 -5.934 10.272 -4.772 5.791 1.543 8.519 8.499 5.328 13.588 -1.905 3.038 -3.504 3.293 -7.06 1.126 z"/><path d="m 237.89 118.16 c -2.22 -2.362 -4.914 -5.731 -5.988 -7.486 l -1.952 -3.191 l 1.869 -1.514 c 3.3 -2.672 6.77 -1.987 10.514 2.074 5.95 6.455 7.321 10.869 4.082 13.14 -2.891 2.025 -4.23 1.55 -8.525 -3.02 z"/></g><path d="m 62.801 62.989 c 5.296 -5.37 11.338 -4.626 15.35 1.141 2.306 5.314 -10.179 13.231 -14.679 13.226 -6.615 -1.69 -3.364 -9.758 -0.671 -14.367 z" fill="#ffc0cb" stroke="#ffc0cb" stroke-width="0.107"/></svg>