<svg xmlns="http://www.w3.org/2000/svg" viewBox="0 0 256 256"><defs><clipPath id="0"><path transform="translate(0 0.38)" d="m 0 0 v 190.62 h 329.68 v -190.62 h -329.68"/></clipPath></defs><path d="m 196.86 43.769 c -32.359 -35.889 -91.17 -50.49 -131.14 -28.706 -55.975 44.731 -75.24 89.71 -57.47 181.74 c 5.203 18.45 17.312 36.2 28.768 44.27 20.571 13.166 42.555 17.745 66.27 13.805 49.775 -4.349 88.05 -28.24 119.27 -50.21 56.29 -55.49 34.23 -98.58 -25.702 -160.9 z" fill="#ffc0cb"/><g clip-path="url(#0)" transform="matrix(0.63561 0 0 0.72655 21.634 63.03)"><g transform="matrix(0.9804 0 0 0.95276 2.467 4.067)" fill="#db7093" stroke="#ff69b4" stroke-width="4.397"><path transform="translate(5.163 5.429)" d="m 13.584,148.5 200.05,28.687 -55.32,-174.84 -156.2,40.15 11.463,106 m 202.85,31.06 -1.537,-0.219 -203.09,-29.12 -11.808,-109.18 159.62,-41.03 0.278,0.88 56.53,178.68"/><path transform="translate(85.21 5.998)" d="M 130.409,176.089 0,98.7409 78.162,0 79.691,1.21093 2.916,98.202 l 128.489,76.209 -0.996,1.678 z"/><path transform="translate(17.283 103.68)" d="M 1.1514,51.893 0,50.319 68.8066,0 69.957,1.574 1.1514,51.893 z"/><path transform="translate(5.657 46.4)" d="M 80.44,58.862 0,1.592 1.132,0.003 l 80.44,57.27 -1.133,1.59"/></g><path d="m 16.282 48.52 c 0 3.328 -3.226 6 -7.348 6 c -4.01 0 -7.348 -2.673 -7.348 -6 0 -3.255 3.336 -5.973 7.348 -5.973 c 4.122 0 7.348 2.717 7.348 5.973" fill="#fff"/><path d="m 9.688 44.822 c -2.493 0 -4.598 1.937 -4.598 4.231 0 2.351 2.062 4.263 4.598 4.263 2.579 0 4.598 -1.872 4.598 -4.263 0 -2.334 -2.062 -4.231 -4.598 -4.231 m 0 12.883 c -5.176 0 -9.387 -3.883 -9.387 -8.653 0 -4.754 4.211 -8.62 9.387 -8.62 5.176 0 9.387 3.867 9.387 8.62 0 4.852 -4.122 8.653 -9.387 8.653" fill="#ec6894"/><path d="m 163.11 3.827 c 3.308 0 6.092 2.898 6.092 6.354 0 3.564 -2.784 6.417 -6.092 6.417 -3.427 0 -6.225 -2.852 -6.225 -6.417 0 -3.456 2.798 -6.354 6.225 -6.354 z" fill="#fff"/><path d="m 162.67 6.103 c -2.79 0 -5.146 2.049 -5.146 4.475 0 2.504 2.309 4.541 5.146 4.541 2.745 0 4.971 -2.037 4.971 -4.541 0 -2.425 -2.279 -4.475 -4.971 -4.475 m 0 13.675 c -5.728 0 -10.39 -4.127 -10.39 -9.201 0 -5.04 4.663 -9.135 10.39 -9.135 5.541 0 10.224 4.183 10.224 9.135 0 5.072 -4.587 9.201 -10.224 9.201" fill="#ec6894"/><path d="m 20.27 147.63 c 3.03 0 5.54 2.289 5.54 5.15 0 3.091 -2.512 5.382 -5.54 5.382 -3.066 0 -5.541 -2.289 -5.541 -5.382 0 -2.861 2.473 -5.15 5.541 -5.15" fill="#fff"/><path d="m 21.17 148.52 c -2.577 0 -4.672 1.784 -4.672 3.975 0 2.425 2.01 4.251 4.672 4.251 2.619 0 4.671 -1.867 4.671 -4.251 0 -2.192 -2.095 -3.975 -4.671 -3.975 m 0 12.561 c -5.348 0 -9.538 -3.771 -9.538 -8.585 0 -4.581 4.277 -8.31 9.538 -8.31 5.258 0 9.536 3.728 9.536 8.31 0 4.815 -4.188 8.585 -9.536 8.585" fill="#ec6894"/><path d="m 216.59 172.17 c 3.879 0 7.212 3.02 7.212 6.663 0 3.744 -3.333 6.858 -7.212 6.858 -4.07 0 -7.192 -3.115 -7.192 -6.858 0 -3.644 3.122 -6.663 7.192 -6.663 z" fill="#fff"/><path d="m 217.08 173.73 c -2.648 0 -4.722 1.853 -4.722 4.22 0 2.473 2.075 4.409 4.722 4.409 2.525 0 4.741 -2.06 4.741 -4.409 0 -2.249 -2.215 -4.22 -4.741 -4.22 m 0 13.12 c -5.316 0 -9.641 -3.995 -9.641 -8.905 0 -4.804 4.326 -8.715 9.641 -8.715 5.237 0 9.661 3.992 9.661 8.715 0 4.827 -4.425 8.905 -9.661 8.905" fill="#ec6894"/><g fill="#0b0f07"><path transform="translate(40.494 84.24)" d="m 7.941,7.564 c 0.824,-0.488 2.762,-1.07 7.305,-1.07 h 9.182 c 1.072,0 1.299,0.247 1.359,0.323 0.08,0.094 0.29,0.584 0.29,1.71 0,1.264 0.308,2.185 0.941,2.816 l 0.074,0.068 c 0.637,0.525 1.404,0.804 2.22,0.804 0.983,0 3.27,-0.369 3.27,-3.79 0,-2.426 -0.52,-4.416 -1.542,-5.909 -1.138,-1.694 -3.165,-2.517 -6.194,-2.517 h -9.601 c -5.05,0 -8.861,0.816 -11.323,2.425 C 1.321,4.112 0,7.402 0,12.201 v 16.17 c 0,4.783 1.37,8.06 4.045,9.735 2.479,1.661 6.493,2.469 12.274,2.469 h 8.526 c 2.963,0 5.05,-0.848 6.194,-2.528 1.037,-1.543 1.542,-3.472 1.542,-5.898 0,-3.484 -2.287,-3.86 -3.27,-3.86 -0.837,0 -1.62,0.316 -2.249,0.899 -0.645,0.574 -0.986,1.535 -0.986,2.779 0,1.01 -0.155,1.54 -0.308,1.824 -0.145,0.089 -0.561,0.244 -1.342,0.244 h -8.107 c -4.257,0 -7.03,-0.358 -8.26,-1.068 C 7.028,32.381 6.506,30.786 6.506,28.225 V 12.304 c 0,-2.547 0.491,-4.146 1.434,-4.74"/><path transform="translate(106.82 88.26)" d="M 23.342,0 C 22.151,0 21.14,0.586 20.356,1.717 L 13.193,11.646 6.143,1.788 C 5.191,0.311 3.968,0.001 3.113,0.001 1.608,0.001 0,0.929 0,3.532 v 25.03 c 0,2.153 1.261,3.543 3.214,3.543 1.543,0 3.191,-0.975 3.191,-3.713 V 12.095 l 4.273,6.06 0.127,0.158 c 0.619,0.679 1.465,1.053 2.382,1.053 1.321,0 2.096,-0.606 2.515,-1.114 L 20.048,12.1 v 16.297 c 0,2.738 1.649,3.713 3.192,3.713 1.98,0 3.259,-1.39 3.259,-3.543 V 3.537 c 0,-2.606 -1.701,-3.531 -3.157,-3.531"/><path transform="translate(146.54 88.26)" d="m 23.341,0 c -1.19,0 -2.201,0.586 -2.988,1.721 l -7.12,9.924 -7.08,-9.857 C 5.388,0.602 4.368,0.001 3.123,0.001 c -1.441,0 -3.124,0.925 -3.124,3.531 v 25.03 c 0,2.153 1.253,3.543 3.191,3.543 1.56,0 3.226,-0.975 3.226,-3.713 V 12.076 l 4.308,6.077 0.072,0.094 c 0.418,0.508 1.181,1.114 2.436,1.114 0.986,0 1.805,-0.36 2.433,-1.071 l 4.381,-6.194 v 16.296 c 0,2.741 1.701,3.713 3.158,3.713 2,0 3.294,-1.39 3.294,-3.543 V 3.532 c 0,-2.606 -1.701,-3.531 -3.158,-3.531"/><path transform="translate(212.69 88.26)" d="M 20.673,0 H 3.563 C 2.462,0 1.605,0.333 0.919,1.042 c -0.602,0.65 -0.921,1.429 -0.921,2.251 0,0.793 0.361,1.626 0.91,2.172 0.666,0.731 1.534,1.088 2.655,1.088 h 5.152 v 22.13 c 0,1.117 0.39,2.059 1.098,2.665 0.576,0.537 1.404,0.832 2.344,0.832 0.825,0 1.634,-0.288 2.288,-0.81 1.209,-0.848 1.209,-2.227 1.209,-2.687 V 6.553 h 5.02 c 2.628,0 3.565,-1.666 3.565,-3.226 C 24.239,1.719 23.302,0 20.674,0"/><path transform="translate(249.66 88.26)" d="M 3.293,0 C 1.323,0 0,1.405 0,3.497 v 25.52 c 0,2.051 1.297,3.43 3.227,3.43 2.031,0 3.294,-1.314 3.294,-3.43 V 3.497 C 6.521,1.373 5.253,0 3.293,0"/><path transform="translate(297.79 83.956)" d="M 28.588,0 C 27.655,0 25.486,0.369 25.486,3.79 V 28.76 L 6.191,1.785 C 5.286,0.567 4.261,0 2.965,0 1.858,0 0,0.471 0,3.621 v 33.413 c 0,3.141 1.986,3.61 3.17,3.61 2.025,0 3.235,-1.286 3.235,-3.44 v -25.27 l 19.787,27.802 c 0.448,0.594 1.324,0.909 2.533,0.909 1.982,0 3.167,-1.35 3.167,-3.61 V 3.622 c 0,-3.15 -2.071,-3.621 -3.304,-3.621"/></g><path transform="translate(80.02 96.71)" d="m 14.655,7.305 c 0,4.092 -3.256,7.383 -7.349,7.383 -4.02,0 -7.307,-3.291 -7.307,-7.383 C -0.001,3.295 3.29,0 7.306,0 c 4.093,0 7.349,3.291 7.349,7.305" fill="#fff"/><path transform="translate(77.3 93.99)" d="m 10.03,5.438 c -2.529,0 -4.587,2.057 -4.587,4.586 0,2.572 2.058,4.665 4.587,4.665 2.596,0 4.63,-2.049 4.63,-4.665 0,-2.529 -2.077,-4.586 -4.63,-4.586 m 0,14.688 C 4.502,20.126 0,15.594 0,10.026 0,4.498 4.497,0.006 10.03,0.006 c 5.551,0 10.07,4.496 10.07,10.02 0,5.57 -4.517,10.1 -10.07,10.1" fill="#0b0f07"/><path transform="translate(187.27 96.71)" d="m 14.642,7.305 c 0,4.092 -3.29,7.383 -7.338,7.383 C 3.294,14.688 0,11.397 0,7.305 0,3.295 3.29,0 7.304,0 c 4.048,0 7.338,3.291 7.338,7.305" fill="#fff"/><path transform="translate(184.55 93.99)" d="m 10.02,5.438 c -2.528,0 -4.586,2.057 -4.586,4.586 0,2.572 2.058,4.665 4.586,4.665 2.547,0 4.619,-2.093 4.619,-4.665 0,-2.529 -2.072,-4.586 -4.619,-4.586 m 0,14.688 C 4.493,20.126 0,15.594 0,10.026 0,4.498 4.496,0.006 10.02,0.006 c 5.546,0 10.06,4.496 10.06,10.02 0,5.57 -4.511,10.1 -10.06,10.1" fill="#0b0f07"/><path transform="translate(268.68 96.71)" d="m 14.675,7.3051 c 0,4.092 -3.255,7.383 -7.338,7.383 C 3.324,14.6881 0,11.3971 0,7.3051 0,3.2911 3.324,0 7.337,0 c 4.083,0 7.338,3.2911 7.338,7.3051 z" fill="#fff"/><path transform="translate(265.96 93.99)" d="m 10.06,5.438 c -2.503,0 -4.619,2.1 -4.619,4.586 0,2.572 2.073,4.665 4.619,4.665 2.59,0 4.62,-2.049 4.62,-4.665 0,-2.529 -2.073,-4.586 -4.62,-4.586 m 0,14.688 C 4.516,20.126 0,15.594 0,10.026 0,4.498 4.512,0.006 10.06,0.006 c 5.545,0 10.06,4.496 10.06,10.02 0,5.57 -4.512,10.1 -10.06,10.1" fill="#0b0f07"/></g></svg>