<svg xmlns="http://www.w3.org/2000/svg" xmlns:xlink="http://www.w3.org/1999/xlink" viewBox="0 0 256 256"><defs><path d="m 245.46 129.52 l -97.89 -96.9 c -5.556 -5.502 -16.222 -11.873 -23.7 -14.16 l -39.518 -12.08 c -7.479 -2.286 -18.1 0.391 -23.599 5.948 l -13.441 13.578 c -5.5 5.559 -14.502 14.653 -20 20.21 l -13.44 13.579 c -5.5 5.558 -8.07 16.206 -5.706 23.658 l 12.483 39.39 c 2.363 7.456 8.843 18.06 14.399 23.556 l 97.89 96.9 c 5.558 5.502 14.605 5.455 20.1 -0.101 l 36.26 -36.63 c 5.504 -5.559 14.503 -14.651 20 -20.21 l 36.26 -36.629 c 5.502 -5.56 5.455 -14.606 -0.101 -20.11 z m -178.09 -50.74 c -7.198 0 -13.03 -5.835 -13.03 -13.03 0 -7.197 5.835 -13.03 13.03 -13.03 7.197 0 13.03 5.835 13.03 13.03 -0.001 7.198 -5.836 13.03 -13.03 13.03 z" id="0"/><use id="1" xlink:href="#0"/><clipPath id="2"><use xlink:href="#0"/></clipPath><clipPath clip-path="url(#2)"><use xlink:href="#1"/></clipPath><clipPath clip-path="url(#2)"><use xlink:href="#1"/></clipPath></defs><g fill="#9794b1" color="#000"><path d="M 212.32,840.15 C 342.21,945 152.05,1134.27 37.11,1013.36 -78.08,909.3 101.7,707.34 212.32,840.15 z" transform="matrix(1 0 0 0.98791 0 -783.64)"/></g><g transform="matrix(0.90446 0 0 0.91941 11.443 21.345)" fill="#4f4d6b" stroke="#4f4d6b" stroke-width="1.547"><path d="m 51.819 110.71 c -11.65 -6.072 -15.542 -19.03 -9.256 -30.827 c 3.051 -5.725 11.04 -13.477 14.637 -14.196 4.205 -0.841 8.815 -0.568 12.69 0.753 2.899 0.988 4.094 1.068 5.611 0.377 1.06 -0.483 2.249 -0.679 2.643 -0.436 0.946 0.584 0.927 13.279 -0.02 13.865 -0.405 0.25 -1.98 -1.491 -3.502 -3.869 -5.309 -8.3 -13.694 -9.652 -20.306 -3.274 -3.43 3.309 -5.141 8.849 -5.109 16.548 0.044 10.555 4.678 17.373 12.541 18.455 5.231 0.719 8.356 -0.437 12.447 -4.605 3.409 -3.473 4.664 -3.804 4.664 -1.229 0 1.671 -5.528 7.4 -8.747 9.06 -1.245 0.644 -4.747 1.352 -7.782 1.574 -5.149 0.376 -5.853 0.229 -10.511 -2.199 z"/><path d="m 94.09 112.36 c -5.728 -1.719 -10.628 -8.387 -10.543 -14.349 0.053 -3.751 1.884 -8.386 5.133 -12.995 2.891 -4.102 6.833 -5.591 12.561 -4.746 8.03 1.185 12.03 6.352 11.975 15.471 -0.049 8.099 -3.311 13.506 -9.779 16.208 -3.119 1.303 -5.959 1.428 -9.347 0.411 z m 9.09 -5.665 c 3.509 -3.509 3.242 -12.685 -0.567 -19.463 -1.449 -2.579 -2.193 -3.133 -4.466 -3.325 -3.5 -0.296 -5.117 1.434 -6.05 6.473 -1.205 6.521 0.619 13.644 4.22 16.476 2.707 2.129 4.616 2.085 6.862 -0.161 z"/><path d="m 116.76 110.53 c 0 -0.586 0.548 -1.52 1.218 -2.076 1.904 -1.58 1.309 -20.801 -0.713 -23.03 -1.762 -1.944 -1.092 -3.222 1.69 -3.222 1.157 0 2.898 -0.557 3.87 -1.237 1.626 -1.139 1.882 -1.133 3.209 0.068 1.342 1.215 1.859 1.22 7.409 0.072 8.849 -1.83 9.7 -0.702 10.46 13.861 0.289 5.531 0.78 10.675 1.093 11.432 0.891 2.155 3.081 2.993 5.461 2.088 l 2.082 -0.791 l -0.331 -18.09 c -0.244 -13.371 -0.595 -18.409 -1.344 -19.312 -1.3 -1.566 -0.543 -3.561 1.352 -3.561 0.807 0 2.319 -0.67 3.36 -1.489 3.594 -2.827 4.07 -1.451 4.592 13.258 0.261 7.355 0.522 13.513 0.58 13.686 0.24 0.714 3.339 -2.716 5.507 -6.094 1.279 -1.992 3.171 -4.076 4.206 -4.63 2.339 -1.252 7.535 -1.484 7.933 -0.355 0.162 0.461 -2.325 2.989 -5.528 5.618 -3.403 2.793 -5.823 5.371 -5.823 6.202 0 1.921 6.988 11.04 10.826 14.12 4.812 3.867 4.231 4.552 -3.864 4.552 -6.503 0 -6.962 -0.105 -6.962 -1.586 0 -2.894 -4.497 -10.02 -6.323 -10.02 -1.312 0 -0.626 5.995 0.908 7.947 0.851 1.082 1.547 2.347 1.547 2.812 0 0.581 -4.587 0.845 -14.698 0.845 -12.01 0 -14.698 -0.196 -14.698 -1.071 0 -0.589 0.783 -1.584 1.741 -2.212 1.693 -1.109 1.728 -1.398 1.273 -10.51 -0.506 -10.143 -1.121 -11.735 -4.536 -11.735 -4.105 0 -5.05 2.25 -5.05 11.988 0 7.231 0.233 8.99 1.354 10.23 2.536 2.806 1.741 3.31 -5.222 3.31 -5.069 0 -6.575 -0.244 -6.575 -1.066 z"/><path d="m 185.08 125.37 c -1.972 -0.953 -2.918 -2.894 -1.905 -3.908 0.388 -0.388 2.227 -1.045 4.087 -1.461 4.833 -1.08 6.685 -2.554 7.633 -6.074 0.727 -2.702 0.572 -3.744 -1.241 -8.318 -2.832 -7.148 -8.583 -18.626 -10.827 -21.613 l -1.848 -2.459 l 4.445 -0.471 c 2.445 -0.259 5.389 -0.621 6.543 -0.804 2.642 -0.419 3.329 0.656 2.185 3.417 -0.791 1.909 -0.532 2.944 2.224 8.909 1.823 3.945 3.454 6.542 3.926 6.25 1.182 -0.731 3.04 -5.44 4.574 -11.599 1.267 -5.084 1.517 -5.468 4.229 -6.501 4.73 -1.8 5.11 -0.401 1.812 6.66 -1.546 3.31 -5.097 11.581 -7.892 18.381 -5.574 13.565 -7.17 16.346 -10.814 18.842 -2.655 1.819 -4.511 2.01 -7.132 0.747 z"/><path d="m 44.26 164.41 l -4.04 -0.283 l 0.48 -3.635 c 0.582 -4.406 1.52 -7.116 2.463 -7.116 0.385 0 1.658 1.255 2.829 2.79 2.677 3.51 6.637 5.249 10.365 4.553 3.549 -0.663 4.71 -1.651 4.71 -4.01 0 -3.192 -1.345 -4.707 -8.382 -9.439 -11.04 -7.424 -13.519 -11.401 -10.61 -17.03 1.484 -2.869 6.128 -6.887 8.71 -7.535 1.137 -0.285 3.48 -0.083 5.207 0.449 3.229 0.994 5.086 1.161 7.782 0.699 1.369 -0.234 1.575 0.225 1.789 3.99 0.286 5.03 -0.421 9.502 -1.406 8.894 -0.385 -0.238 -1.63 -2.143 -2.768 -4.233 -2.427 -4.459 -6.096 -6.441 -9.904 -5.349 -2.607 0.748 -3.541 1.875 -3.558 4.297 -0.015 2.12 2.632 4.588 10.428 9.723 7.328 4.826 9.673 7.923 9.673 12.772 0 4.314 -1.745 7.326 -5.451 9.408 -2.922 1.642 -6.749 1.862 -18.316 1.05 z"/><path d="m 74.72 177.57 c -2.694 -0.284 -2.917 -0.475 -2.343 -2 0.768 -2.044 0.898 -32.768 0.147 -34.953 -0.438 -1.277 0.087 -1.856 3.01 -3.312 3.215 -1.604 3.659 -1.656 4.866 -0.563 1.153 1.044 2.051 1.078 6.822 0.26 5.1 -0.875 5.613 -0.834 7.155 0.561 3.044 2.755 4.122 5.845 4.167 11.95 0.037 4.964 -0.26 6.318 -2.058 9.376 -2.523 4.292 -5.885 6.096 -11.36 6.096 h -3.944 v 3.508 c 0 1.956 0.564 4.369 1.275 5.455 0.744 1.135 0.986 2.218 0.58 2.599 -0.983 0.922 -4.818 1.396 -8.314 1.027 z m 16.287 -19.944 c 1.706 -3.577 0.778 -10.439 -1.831 -13.539 -2.267 -2.694 -4.282 -2.933 -6.45 -0.766 -1.306 1.306 -1.547 2.579 -1.547 8.158 0 5.967 0.183 6.793 1.878 8.489 1.665 1.665 2.154 1.782 4.313 1.029 1.528 -0.533 2.883 -1.788 3.637 -3.37 z"/><path d="m 107.47 163.24 c -5.809 -3.948 -7.509 -12.887 -3.84 -20.19 3.541 -7.05 7.435 -8.711 15.05 -6.416 5.206 1.569 8.628 8.64 5.096 10.53 -0.823 0.44 -4.652 0.801 -8.509 0.801 -7 0 -7.01 0.003 -7.01 1.972 0 2.651 1.84 6.05 4.344 8.02 2.785 2.191 3.674 2.055 7.158 -1.092 4.671 -4.22 6.134 -3.165 3.451 2.489 -2.623 5.528 -10.475 7.471 -15.738 3.893 z m 9.295 -19.747 c 0 -1.538 -2.588 -4.04 -4.179 -4.04 -2.031 0 -4.731 2.594 -3.974 3.819 0.579 0.936 8.153 1.141 8.153 0.221 z"/><path d="m 133.72 163.22 c -4.268 -2.876 -6.131 -6.324 -6.111 -11.313 0.021 -5.306 1.847 -9.503 5.876 -13.505 2.958 -2.937 3.071 -2.975 7.518 -2.519 7.129 0.732 11.06 4.506 8.506 8.159 -1.646 2.35 -3.188 1.972 -6.429 -1.574 -3.26 -3.566 -4.859 -3.697 -7.179 -0.586 -3.792 5.085 0.13 17.682 5.506 17.682 0.421 0 2.399 -1.247 4.396 -2.772 4.455 -3.4 5.691 -2.652 3.248 1.967 -3.148 5.953 -10.111 7.979 -15.331 4.461 z"/><path d="m 158.06 163.08 c -1.429 -1 -1.649 -2.196 -2.086 -11.322 -0.343 -7.16 -0.84 -10.74 -1.669 -12 -1.638 -2.5 -1.486 -3.326 0.772 -4.184 1.074 -0.408 2.684 -1.981 3.577 -3.495 1.918 -3.251 2.942 -3.15 4.14 0.407 0.484 1.438 1.378 2.753 1.987 2.924 0.609 0.17 2.28 0.837 3.715 1.481 2.337 1.05 2.926 1.047 5.676 -0.034 2.407 -0.945 3.381 -1.01 4.519 -0.3 1.097 0.685 2.255 0.691 4.758 0.023 3.749 -1 5.26 -0.305 5.26 2.422 0 2.51 -1.484 3.541 -5.093 3.541 -3.897 0 -4.164 0.62 -4.18 9.691 -0.008 4.437 0.34 6.711 1.219 7.965 2.091 2.986 0.944 4.01 -4.493 3.992 -2.673 -0.007 -5.381 -0.362 -6.02 -0.789 -0.989 -0.663 -0.886 -1.01 0.697 -2.334 1.817 -1.523 1.847 -1.744 1.366 -10.14 -0.27 -4.721 -0.887 -9.06 -1.372 -9.645 -0.501 -0.603 -2.341 -1.061 -4.267 -1.061 h -3.386 v 8.896 c 0 8.07 0.13 8.896 1.399 8.896 0.77 0 2.01 0.447 2.757 0.993 1.282 0.938 1.266 1.11 -0.295 3.094 -1.901 2.417 -6.255 2.893 -8.983 0.982 z"/><path d="m 197.99 164.38 c -5.219 -2.552 -8.509 -7.593 -8.509 -13.04 0 -3.996 3.191 -10.37 6.762 -13.505 2.571 -2.258 3.108 -2.417 6.857 -2.03 5.81 0.6 9.03 2.375 11.189 6.179 3.686 6.477 1.691 16.646 -4.105 20.933 -2.213 1.637 -9.94 2.562 -12.194 1.46 z m 8.931 -5.174 c 1.549 -1.549 1.899 -2.671 1.899 -6.091 0 -7.369 -3.086 -13.67 -6.695 -13.67 -3.572 0 -4.909 2.477 -4.905 9.09 0.003 6.602 1.592 10.47 4.837 11.775 2.552 1.026 2.79 0.972 4.865 -1.103 z"/></g></svg>