<svg xmlns="http://www.w3.org/2000/svg" viewBox="0 0 256 256"><g fill="#808080" color="#000"><path d="m 59.778 1025.68 c 95.24 84.46 241.79 -48.767 182.53 -160.27 -59.906 -112.74 -258.16 -82.69 -241.3 55.767 5.02 41.2 27.695 76.954 58.764 104.51 z" transform="matrix(1 0 0 -0.99013 0.505 1043.5)"/></g><g transform="matrix(1.16434 0 0 1.42055 49.699 33.2)"><path d="m 7.638,96.6 c -1.775,-7.592 5.334,-8.237 6.292,-13.681 1.275,-7.251 0.16,-15.718 2.911,-16.344 6.813,-1.55 29.645,-6.795 41.43,-9.329 2.721,-0.585 4.19,-10.124 3.939,-20.915 -0.167,-7.173 -10.125,-13.526 1.987,-19.368 3.547,-1.711 1.451,39.03 3.084,38.894 12.1,-0.99 35.05,7.896 40.504,13.303 1.63,1.616 0.829,15.702 2.474,16.733 3.253,2.04 15.492,7.4 11.671,13.536 C 109.215,119.849 11.03,115.88 7.64,96.6 z" fill="#fff"/><g transform="matrix(0.253 0 0 0.253 -25.414 -26.18)"><path d="m 159.78 371.38 c -5.472 53.49 -2.946 90.1 10.938 125.28 113.46 14.817 255.14 35 367.84 -12.875 -0.277 -36.97 0.055 -56.55 -10.844 -102.06 -102.92 17.401 -265.29 -6.296 -367.94 -10.344 z m 17.78 11.406 c 98.54 4.887 230.88 25.484 333.72 11.06 2.074 9.402 3.641 17.654 4.813 25.313 -106.75 20.747 -213.31 3.387 -340.1 -8.313 0.191 -8.781 0.708 -18.07 1.563 -28.06 z m -1.656 37 c 116.74 11.674 237.06 28.973 341.25 7.188 0.953 7.563 1.533 14.657 1.906 21.844 -110.41 24.96 -224.96 12.603 -341.75 -3.313 -0.892 -8.115 -1.354 -16.621 -1.406 -25.719 z m 2.656 35.09 c 123.36 12.761 235.77 31.5 340.91 4.438 0.139 5.248 1.707 10.651 1.748 16.469 -102.25 33.26 -223.37 23.546 -334.75 10.531 -3.559 -10.1 -6.169 -20.429 -7.906 -31.438 z"/><path transform="matrix(3.9526 0 0 3.9526 100.45 103.46)" d="m 64.41,12.781 c -8.84,7.324 -9.433,16.21 -3.25,21.938 0.035,0.893 0.109,1.864 0.219,2.813 -0.64,-0.004 -1.276,0.014 -1.844,0.063 1.097,6.565 0.258,14.475 -0.281,19.969 l 8.469,0.813 c 0.563,-5.634 0.771,-14.266 0.719,-20.313 -0.431,-0.032 -1.168,-0.1 -2.031,-0.188 0.02,-0.791 0.046,-1.631 0.031,-2.5 8.174,-6.721 2.785,-14.916 -2.031,-22.594 z m -1.462,4.827 c 6.943,18.653 -11.246,11.737 0,0 z m 2.962,22.33 v 14.688 l -2.25,1 0.5,-14.156 z"/><path d="m 151.86 432.79 c -108.05 103.01 132.34 125.29 226 124.57 86.34 3.638 297.56 -33.769 166.71 -114.71 l -0.968 9.733 c 89.97 63.11 -83.58 91.68 -165.53 88.38 -88.89 0.648 -282.24 -20.1 -224.53 -96.97 z"/><path d="m 528.36 376.15 c -30.368 -22.951 -44.04 -46.28 -106.93 -60.929 -69.19 0 -167.24 28.543 -258.93 51.21 119.73 6.392 257.75 13.446 365.86 9.714 z"/></g></g></svg>