<svg xmlns="http://www.w3.org/2000/svg" viewBox="0 0 256 256" xmlns:xlink="http://www.w3.org/1999/xlink"><defs><path id="0" d="m 72.25 76.47 a 2.529 21.312 0 1 1 -5.057 0 2.529 21.312 0 1 1 5.057 0 z" stroke-width="2.1"/></defs><path d="m 81.54 3.766 c 360.62 -44.46 61.711 466.7 -70.74 139.69 -20.313 -57.45 -2.679 -122.09 70.74 -139.69 z" fill="#2f4f4f" color="#000"/><g fill="#2e9a1e"><path d="m 139.6 244.66 c -8.714 -40.02 -15.238 -67.01 -22.968 -110.01 -0.041 -6.244 -3.925 -14.08 -7.742 -15.618 -10.785 -5.986 -19.879 -13.539 -30.513 -19.598 -2.695 -1.509 -2.745 -1.483 -4.799 2.544 -2.289 7.16 -4.305 11.988 -5.575 21.286 -1.124 9.167 -3.757 16.11 -5.645 24.669 -1.517 6.982 -3.858 8.951 -6.441 5.418 -1.687 -2.307 -1.955 -114.36 -0.281 -117.48 1.204 -2.25 5.198 -2.564 6.877 -0.54 0.637 0.767 2.604 1.641 4.372 1.942 20.09 4.137 42.42 13.579 59.862 13.664 7.621 0 12.03 -0.42 13.14 -1.25 1.337 -1 1.722 -3.331 1.941 -11.75 l 0.273 -10.5 h 3 h 3 l 0.273 10.5 c 0.219 8.419 0.604 10.748 1.941 11.75 3.689 2.764 23.453 0.442 31.11 -3.656 11.04 -1.333 21.319 -8.545 32.6 -9.09 1.383 0 4.287 -0.924 6.453 -2.053 4.863 -2.535 9.96 -1.626 11.863 2.115 0.953 1.873 1.184 16.08 1 61.44 l -0.24 59 l -2.689 0.311 c -4.311 0.498 -6.804 -2.801 -6.846 -9.06 -1.707 -6.546 -2.341 -18.399 -4.601 -22.318 -1.941 -9.02 -1.528 -19.935 -4.198 -28.83 -1.081 -0.668 -9.166 3.322 -9.166 4.523 -5.349 3.959 -12.11 8.402 -17.5 11.365 -4.426 2.182 -8.288 5.328 -12.57 7.699 -0.536 0.179 -1.351 2.711 -1.812 5.628 -13.374 55.19 -27.05 124.7 -31.23 128 -2.469 -5.719 -2.825 -5.396 -2.89 -10.09 z" transform="matrix(0.76273 0 0 0.76176 16.546 25.25)"/></g><path d="m 128.06 161.04 a 2.878 20.14 0 1 1 -5.755 0 2.878 20.14 0 1 1 5.755 0 z" transform="matrix(1.63556 0 0 1.05508 -78.83 -11.748)" fill="#38356d" stroke="#38366c" stroke-width="2.1"/><g fill="#3c5a38" stroke="#3c5a38"><use transform="matrix(0.88143 0 0 1.0057 12.24 0.843)" xlink:href="#0"/><use transform="matrix(0.88187 0 0 1.0029 117.69 0.498)" xlink:href="#0"/></g><use transform="matrix(0.89272 0 0 0.93642 64.914 16.421)" fill="#2e3d2b" stroke="#2e3d2b" xlink:href="#0"/></svg>