<svg xmlns="http://www.w3.org/2000/svg" viewBox="0 0 256 256"><g color="#000" fill="#0d4d19"><path d="m 244.84 882.37 c 49.681 128.5 -89.55 194.42 -176.23 161.67 -60.5 -22.859 -90.65 -113.97 -47.683 -187.62 54.22 -92.93 185.6 -73.16 223.92 25.949 z" transform="matrix(1 0 0 0.99153 0 -787.44)"/></g><g fill="#dfd85e" stroke="#dfd85e"><g stroke-width="2"><path transform="matrix(0 1 -1 0 0 0)" d="m 200.44 -178.16 h 6.896 v 108.81 h -6.896 z"/><path d="m 47.51 73.63 h 6.897 v 108.81 h -6.897 z"/></g><path stroke-width="2.144" d="m 193.17 75.23 h 7.933 v 108.67 h -7.933 z"/></g><g transform="translate(27.441 -2.839)"><g stroke-width="2"><path fill="#669600" stroke="#669600" d="M 31.562,66.5 H162.592 V198.3 H31.562 z"/><path fill="#dfd85e" stroke="#ded65a" d="m 44.589 93.32 h 103.45 v 77.39 h -103.45 z"/></g><path fill="#dfd85e" stroke="#ded65a" stroke-width="1.774" d="m 41.41 55.663 h 109.8 v 8.655 h -109.8 z"/><path d="m 39.598 207.59 c 0 -3.727 -0.353 -6.05 -1 -6.588 -0.55 -0.456 -2.925 -0.938 -5.276 -1.071 l -4.275 -0.242 l -0.391 -4.683 l -0.391 -4.683 l -5.862 -0.39 l -5.862 -0.39 l -0.2 -57.53 l -0.2 -57.53 l 6.06 -0.228 l 6.06 -0.228 l 0.391 -4.683 l 0.391 -4.683 l 4.275 -0.242 c 2.351 -0.133 4.726 -0.615 5.276 -1.071 0.622 -0.515 1 -2.714 1 -5.808 v -4.978 h 57.45 h 57.45 v 4.918 c 0 2.784 0.407 5.324 0.938 5.854 0.516 0.515 2.961 0.937 5.434 0.937 h 4.496 l 0.233 4.879 l 0.233 4.879 l 5.45 0.235 c 3.141 0.135 5.702 0.631 6.05 1.171 0.328 0.515 0.601 26.1 0.608 56.847 0.01 44.675 -0.19 56.08 -0.995 56.745 -0.554 0.459 -3.28 0.941 -6.06 1.071 l -5.05 0.237 l -0.391 4.683 l -0.391 4.683 l -4.275 0.242 c -2.351 0.133 -4.726 0.615 -5.276 1.071 -0.648 0.537 -1 2.861 -1 6.588 v 5.759 h -57.45 h -57.45 z m 13.623 2.19 c 1.45 -1.448 1.628 -5.868 0.29 -7.204 -0.516 -0.515 -1.852 -0.937 -2.97 -0.937 -2.682 0 -3.911 1.342 -3.896 4.254 0.014 2.693 0.632 3.897 2.333 4.544 2.01 0.762 2.971 0.612 4.243 -0.658 z m 8.598 0 c 1.45 -1.448 1.628 -5.868 0.29 -7.204 -0.516 -0.515 -1.852 -0.937 -2.97 -0.937 -2.682 0 -3.911 1.342 -3.896 4.254 0.014 2.693 0.632 3.897 2.333 4.544 2.01 0.762 2.971 0.612 4.243 -0.658 z m 8.598 0 c 1.45 -1.448 1.628 -5.868 0.29 -7.204 -0.516 -0.515 -1.852 -0.937 -2.97 -0.937 -2.682 0 -3.911 1.342 -3.896 4.254 0.014 2.693 0.632 3.897 2.333 4.544 2.01 0.762 2.971 0.612 4.243 -0.658 z m 7.816 0 c 1.538 -1.536 1.602 -6.078 0.103 -7.321 -0.619 -0.513 -2.114 -0.819 -3.322 -0.681 -1.997 0.229 -2.219 0.568 -2.445 3.736 -0.187 2.624 0.091 3.732 1.126 4.488 1.817 1.327 3.046 1.267 4.538 -0.223 z m 8.598 0 c 1.45 -1.448 1.628 -5.868 0.29 -7.204 -0.516 -0.515 -1.852 -0.937 -2.97 -0.937 -2.682 0 -3.911 1.342 -3.896 4.254 0.014 2.693 0.632 3.897 2.333 4.544 2.01 0.762 2.971 0.612 4.243 -0.658 z m 8.598 0 c 1.45 -1.448 1.628 -5.868 0.29 -7.204 -0.516 -0.515 -1.852 -0.937 -2.97 -0.937 -2.682 0 -3.911 1.342 -3.896 4.254 0.014 2.693 0.632 3.897 2.333 4.544 2.01 0.762 2.971 0.612 4.243 -0.658 z m 7.816 0 c 1.538 -1.536 1.602 -6.078 0.103 -7.321 -0.619 -0.513 -2.114 -0.819 -3.322 -0.681 -1.997 0.229 -2.219 0.568 -2.445 3.736 -0.187 2.624 0.091 3.732 1.126 4.488 1.817 1.327 3.046 1.267 4.538 -0.223 z m 8.598 0 c 1.45 -1.448 1.628 -5.868 0.29 -7.204 -0.516 -0.515 -1.852 -0.937 -2.97 -0.937 -2.682 0 -3.911 1.342 -3.896 4.254 0.013 2.693 0.632 3.897 2.333 4.544 2.01 0.762 2.971 0.612 4.243 -0.658 z m 8.598 0 c 1.45 -1.448 1.628 -5.868 0.29 -7.204 -0.516 -0.515 -1.852 -0.937 -2.97 -0.937 -2.682 0 -3.911 1.342 -3.896 4.254 0.013 2.693 0.632 3.897 2.333 4.544 2.01 0.762 2.971 0.612 4.243 -0.658 z m 7.816 0 c 1.538 -1.536 1.602 -6.078 0.103 -7.321 -0.619 -0.513 -2.114 -0.819 -3.322 -0.681 -1.997 0.229 -2.219 0.568 -2.445 3.736 -0.187 2.624 0.091 3.732 1.126 4.488 1.817 1.327 3.046 1.267 4.538 -0.223 z m 8.598 0 c 1.45 -1.448 1.628 -5.868 0.29 -7.204 -0.516 -0.515 -1.852 -0.937 -2.97 -0.937 -2.682 0 -3.911 1.342 -3.896 4.254 0.013 2.693 0.632 3.897 2.333 4.544 2 0.762 2.971 0.612 4.243 -0.658 z m 8.598 0 c 1.45 -1.448 1.628 -5.868 0.29 -7.204 -0.516 -0.515 -1.852 -0.937 -2.97 -0.937 -2.682 0 -3.911 1.342 -3.896 4.254 0.013 2.693 0.632 3.897 2.333 4.544 2.01 0.762 2.971 0.612 4.243 -0.658 z m -100.08 -0.789 c 1.428 -3.716 -0.44 -8.468 -2.514 -6.396 -1.726 1.724 -0.925 7.631 1.035 7.631 0.553 0 1.219 -0.556 1.48 -1.235 z m 106.3 0 c 0.706 -1.838 0.552 -5.241 -0.297 -6.571 -0.577 -0.904 -1.064 -0.975 -2.138 -0.311 -2.606 1.613 -2.209 8.116 0.495 8.116 0.806 0 1.678 -0.556 1.939 -1.235 z m 9.435 -12.918 c 0.259 -0.258 0.686 -121.53 0.449 -127.52 -0.02 -0.515 -22.04 -0.733 -64.711 -0.641 l -64.68 0.14 l 0.119 63.3 c 0.066 34.816 0.337 63.868 0.603 64.56 0.441 1.148 6.084 1.227 64.17 0.889 35.03 -0.203 63.85 -0.531 64.05 -0.728 z m -119.43 -23.05 c -0.746 -0.745 -0.623 -80.07 0.127 -81.25 0.493 -0.776 12.152 -0.939 55.68 -0.781 l 55.06 0.2 l 0.202 41.18 l 0.202 41.18 h -55.37 c -30.455 0 -55.607 -0.234 -55.894 -0.52 z m 105.59 -4.03 c 0.774 -0.491 0.941 -8.469 0.782 -37.26 l -0.203 -36.636 l -49.24 -0.215 c -27.08 -0.119 -50.03 -0.024 -51 0.21 l -1.759 0.425 v 36.615 c 0 34.22 0.09 36.638 1.368 36.972 2.449 0.639 99.04 0.533 100.06 -0.11 z m -85.8 -24.556 c -4.466 -2.358 -6.625 -6.435 -6.549 -12.364 0.108 -8.361 5.213 -13.912 12.814 -13.933 6.301 -0.018 10.53 3.787 11.421 10.272 l 0.252 4.731 l -9.834 0.805 c -7.244 0.593 -10.656 -0.548 -10.928 0.16 -0.637 1.659 1.78 5.493 3.988 6.937 2.301 1.506 7.624 1.616 12.817 0.598 2.739 -0.537 3.346 0.719 3.068 1.57 -1.036 3.162 -11.9 3.943 -17.05 1.224 z m 13.59 -15.01 c 1.694 -1.691 0.182 -5.566 -2.933 -7.519 -4.532 -2.841 -11.1 -0.45 -13.12 4.775 -1.152 2.983 0.873 3.926 8.43 3.926 4.708 0 6.757 -0.318 7.622 -1.182 z m 18.86 15.742 c -6.719 -3.085 -9.429 -12.654 -5.667 -20.01 2.732 -5.339 5.1 -6.651 12.01 -6.651 4.255 0 6.02 0.306 6.532 1.134 1.146 1.852 0.46 3.679 -2.915 2.824 -4.01 -1.016 -8.518 -1.271 -11.178 1.557 -1.687 1.793 -1.907 2.734 -1.907 8.146 0 5.412 0.22 6.353 1.907 8.146 2.691 2.86 7.338 2.407 11.02 1.277 3.23 -0.99 4.627 1.471 2.67 3.093 -1.798 1.49 -9.62 1.792 -12.474 0.482 z m 27.804 -0.271 c -3.549 -1.866 -5.546 -4.963 -6.369 -9.359 -1.931 -10.321 3.86 -17.952 12.82 -17.18 7.137 0.614 11.01 5.473 11.01 13.812 0 5.716 -1.515 9.226 -5.149 11.931 -2.944 2.191 -8.925 2.578 -12.313 0.796 z m 10.33 -3.173 c 2.519 -2.276 3.684 -5.374 3.684 -9.791 0 -9.756 -8.886 -14.823 -14.439 -8.233 -2.48 2.943 -3.047 5.178 -2.57 10.13 0.796 8.268 8.114 12.603 13.326 7.893 z m -105.22 43.836 c 0.578 -1.504 -0.987 -2.629 -3.656 -2.629 -2.669 0 -4.234 1.126 -3.656 2.629 0.331 0.862 1.465 1.25 3.656 1.25 2.191 0 3.325 -0.388 3.656 -1.25 z m 146.95 0 c 0.578 -1.504 -0.987 -2.629 -3.656 -2.629 -2.669 0 -4.234 1.126 -3.656 2.629 0.331 0.862 1.465 1.25 3.656 1.25 2.191 0 3.325 -0.388 3.656 -1.25 z m -146.39 -4.669 c 1.504 -3.914 -0.315 -6.571 -4.499 -6.571 -3.609 0 -5.867 4.473 -3.468 6.869 1.427 1.425 7.391 1.202 7.967 -0.298 z m 146.48 0.298 c 1.315 -1.314 1.167 -4.187 -0.29 -5.642 -2.732 -2.728 -8.151 -0.756 -8.151 2.966 0 2.488 1.46 3.613 4.69 3.613 1.548 0 3.236 -0.422 3.752 -0.937 z m -146.48 -8.884 c 1.504 -3.914 -0.315 -6.571 -4.499 -6.571 -3.609 0 -5.867 4.473 -3.468 6.869 1.427 1.425 7.391 1.202 7.967 -0.298 z m 146.48 0.298 c 1.315 -1.314 1.167 -4.187 -0.29 -5.642 -2.732 -2.728 -8.151 -0.756 -8.151 2.966 0 2.488 1.46 3.613 4.69 3.613 1.548 0 3.236 -0.422 3.752 -0.937 z m -146.3 -9.722 c 0.802 -3.191 -0.541 -4.563 -4.466 -4.563 -3 0 -3.503 0.254 -4.153 2.1 -1.07 3.039 0.478 4.535 4.691 4.535 3.035 0 3.464 -0.226 3.928 -2.072 z m 146.3 1.136 c 0.516 -0.515 0.938 -1.674 0.938 -2.576 0 -2.39 -1.499 -3.513 -4.69 -3.513 -3.191 0 -4.69 1.123 -4.69 3.513 0 2.39 1.499 3.513 4.69 3.513 1.548 0 3.236 -0.422 3.752 -0.937 z m -146.48 -8.104 c 1.504 -3.914 -0.315 -6.571 -4.499 -6.571 -3.609 0 -5.867 4.473 -3.468 6.869 1.427 1.425 7.391 1.202 7.967 -0.298 z m 146.48 0.298 c 1.315 -1.314 1.167 -4.187 -0.29 -5.642 -2.732 -2.728 -8.151 -0.756 -8.151 2.966 0 2.488 1.46 3.613 4.69 3.613 1.548 0 3.236 -0.422 3.752 -0.937 z m -146.48 -8.884 c 1.504 -3.914 -0.315 -6.571 -4.499 -6.571 -3.609 0 -5.867 4.473 -3.468 6.869 1.427 1.425 7.391 1.202 7.967 -0.298 z m 146.48 0.298 c 1.315 -1.314 1.167 -4.187 -0.29 -5.642 -2.732 -2.728 -8.151 -0.756 -8.151 2.966 0 2.488 1.46 3.613 4.69 3.613 1.548 0 3.236 -0.422 3.752 -0.937 z m -146.48 -8.884 c 1.504 -3.914 -0.315 -6.571 -4.499 -6.571 -3.609 0 -5.867 4.473 -3.468 6.869 1.427 1.425 7.391 1.202 7.967 -0.298 z m 146.48 0.298 c 1.315 -1.314 1.167 -4.187 -0.29 -5.642 -2.732 -2.728 -8.151 -0.756 -8.151 2.966 0 2.488 1.46 3.613 4.69 3.613 1.548 0 3.236 -0.422 3.752 -0.937 z m -146.48 -8.884 c 1.504 -3.914 -0.315 -6.571 -4.499 -6.571 -3.609 0 -5.867 4.473 -3.468 6.869 1.427 1.425 7.391 1.202 7.967 -0.298 z m 146.48 0.298 c 1.315 -1.314 1.167 -4.187 -0.29 -5.642 -2.732 -2.728 -8.151 -0.756 -8.151 2.966 0 2.488 1.46 3.613 4.69 3.613 1.548 0 3.236 -0.422 3.752 -0.937 z m -146.48 -8.884 c 1.504 -3.914 -0.315 -6.571 -4.499 -6.571 -3.609 0 -5.867 4.473 -3.468 6.869 1.427 1.425 7.391 1.202 7.967 -0.298 z m 146.48 0.298 c 1.315 -1.314 1.167 -4.187 -0.29 -5.642 -2.732 -2.728 -8.151 -0.756 -8.151 2.966 0 2.488 1.46 3.613 4.69 3.613 1.548 0 3.236 -0.421 3.752 -0.937 z m -146.3 -9.722 c 0.802 -3.191 -0.541 -4.563 -4.466 -4.563 -3 0 -3.503 0.254 -4.153 2.1 -1.07 3.039 0.478 4.535 4.691 4.535 3.035 0 3.464 -0.226 3.928 -2.072 z m 146.3 1.136 c 0.516 -0.515 0.938 -1.674 0.938 -2.576 0 -2.39 -1.499 -3.513 -4.69 -3.513 -3.191 0 -4.69 1.123 -4.69 3.513 0 2.39 1.499 3.513 4.69 3.513 1.548 0 3.236 -0.421 3.752 -0.937 z m -146.48 -8.104 c 1.504 -3.914 -0.315 -6.571 -4.499 -6.571 -3.609 0 -5.867 4.473 -3.468 6.869 1.427 1.425 7.391 1.202 7.967 -0.298 z m 146.48 0.298 c 1.315 -1.314 1.167 -4.187 -0.29 -5.642 -2.732 -2.728 -8.151 -0.756 -8.151 2.966 0 2.488 1.46 3.613 4.69 3.613 1.548 0 3.236 -0.422 3.752 -0.937 z m -146.48 -8.884 c 1.504 -3.914 -0.315 -6.571 -4.499 -6.571 -3.609 0 -5.867 4.473 -3.468 6.869 1.427 1.425 7.391 1.202 7.967 -0.298 z m 146.48 0.298 c 1.315 -1.314 1.167 -4.187 -0.29 -5.642 -2.732 -2.728 -8.151 -0.756 -8.151 2.966 0 2.488 1.46 3.613 4.69 3.613 1.548 0 3.236 -0.422 3.752 -0.937 z m -146.48 -8.884 c 1.504 -3.914 -0.315 -6.571 -4.499 -6.571 -3.609 0 -5.867 4.473 -3.468 6.869 1.427 1.425 7.391 1.202 7.967 -0.298 z m 146.48 0.298 c 2.5 -2.496 0.111 -6.869 -3.752 -6.869 -3.863 0 -6.251 4.373 -3.752 6.869 1.213 1.212 6.29 1.212 7.504 0 z m -146.79 -9.211 c 0 -1.353 -0.521 -1.561 -3.908 -1.561 -2.736 0 -3.908 0.312 -3.908 1.041 0 1.685 0.845 2.082 4.429 2.082 2.866 0 3.387 -0.24 3.387 -1.561 z m 146.8 -0.195 c 0.219 -1.156 -0.352 -1.366 -3.706 -1.366 -2.783 0 -3.965 0.31 -3.965 1.041 0 1.731 0.965 2.166 4.264 1.923 2.263 -0.167 3.221 -0.616 3.408 -1.598 z m -128.04 -18.929 c 0 -3.02 -2.042 -5.249 -3.174 -3.462 -1.012 1.597 -0.9 5.716 0.185 6.8 1.412 1.41 2.989 -0.352 2.989 -3.338 z m 7.66 3.356 c 1.031 -1.029 1.248 -5.211 0.34 -6.536 -2.197 -3.204 -7.218 -1.088 -7.218 3.041 0 1.407 0.422 2.979 0.938 3.495 1.209 1.207 4.731 1.207 5.94 0 z m 8.598 0 c 1.031 -1.029 1.248 -5.211 0.34 -6.536 -2.197 -3.204 -7.218 -1.088 -7.218 3.041 0 1.407 0.422 2.979 0.938 3.495 1.209 1.207 4.731 1.207 5.94 0 z m 8.598 0 c 0.516 -0.515 0.984 -6.785 1.041 -7.88 0.08 -1.547 0.211 3.571 0.586 5.694 0.402 2.272 0.853 2.774 2.68 2.984 1.208 0.138 2.703 -0.168 3.322 -0.681 1.238 -1.026 1.493 -5.198 0.42 -6.888 -0.953 -1.502 -4.84 -1.34 -6 0.25 -0.804 1.098 -1.08 1.138 -1.624 0.234 -2.099 -3.487 -7.299 -1.497 -7.299 2.793 0 1.407 0.422 2.979 0.938 3.495 1.209 1.207 4.731 1.207 5.94 0 z m 16.414 0 c 1.031 -1.029 1.248 -5.211 0.34 -6.536 -2.197 -3.204 -7.218 -1.088 -7.218 3.041 0 1.407 0.422 2.979 0.938 3.495 1.209 1.207 4.731 1.207 5.94 0 z m 8.598 0 c 1.031 -1.029 1.248 -5.211 0.34 -6.536 -2.197 -3.204 -7.218 -1.088 -7.218 3.041 0 1.407 0.422 2.979 0.938 3.495 1.209 1.207 4.731 1.207 5.94 0 z m 8.598 0 c 1.031 -1.029 1.248 -5.211 0.34 -6.536 -2.197 -3.204 -7.218 -1.088 -7.218 3.041 0 1.407 0.422 2.979 0.938 3.495 1.209 1.207 4.731 1.207 5.94 0 z m 8.598 0 c 0.516 -0.515 0.984 -5.606 1.041 -6.701 0.08 -1.547 0.211 2.392 0.586 4.515 0.402 2.272 0.846 2.852 2.68 2.984 4.412 0.316 4.889 -5.735 5.02 -8.382 0.084 -1.671 -0.279 3.172 0.115 5.398 0.402 2.272 0.853 2.774 2.68 2.984 1.208 0.138 2.703 -0.168 3.322 -0.681 1.238 -1.026 1.493 -5.198 0.42 -6.888 -0.953 -1.502 -4.84 -1.34 -6 0.25 -0.91 1.243 -1.013 1.243 -1.71 0 -0.423 -0.754 -1.686 -1.323 -2.94 -1.323 -1.209 0 -2.634 0.595 -3.167 1.323 -0.804 1.098 -1.08 1.138 -1.624 0.234 -2.099 -3.487 -7.299 -1.497 -7.299 2.793 0 1.407 0.422 2.979 0.938 3.495 1.209 1.207 4.731 1.207 5.94 0 z m 24.23 0 c 1.031 -1.029 1.248 -5.211 0.34 -6.536 -2.197 -3.204 -7.218 -1.088 -7.218 3.041 0 1.407 0.422 2.979 0.938 3.495 1.209 1.207 4.731 1.207 5.94 0 z m 8.598 0 c 1.031 -1.029 1.248 -5.211 0.34 -6.536 -2.197 -3.204 -7.218 -1.088 -7.218 3.041 0 1.407 0.422 2.979 0.938 3.495 1.209 1.207 4.731 1.207 5.94 0 z m 5.935 -0.298 c 0.706 -1.838 0.552 -5.241 -0.297 -6.571 -1.158 -1.815 -3.48 0.064 -3.776 3.057 -0.378 3.814 2.878 6.624 4.073 3.514 z" stroke="#000" stroke-width="0.781"/></g></svg>