<svg xmlns="http://www.w3.org/2000/svg" viewBox="0 0 256 256"><g fill="#8b4513" color="#000"><path d="M 227.99,995.36 C 371.85,787.37 -90.55,695.71 16.15,954.06 c 34.09,84.998 165.28,149.74 211.84,41.3 z" transform="matrix(-1 -0.04847 0 -0.97793 256 1038.48)"/></g><path d="m 14,1 v 4 h 4 v 4 h -4 v 4 h 4 v 4 h -4 v 4 h 4 v 4 2 h -4 v 8 h 8 v -8 h -4 v -2 h 4 v -4 h -4 v -4 h 4 V 13 H 18 V 9 h 4 V 5 H 18 V 1 z" fill="#fff" transform="matrix(3.33594 0 0 -3.2608 23.02 177.33)"/><g transform="matrix(0.81448 0 0 0.83601 13.234 28.21)" fill="#ff8c00"><g fill="#4682b4"><path d="m 158.42 223.27 c -7.28 -7.214 -14.916 -17.431 -13.796 -18.459 0.132 -0.122 2.14 0.41 4.462 1.181 4.972 1.651 6.258 2.753 7.984 6.841 1.373 3.252 3.553 11.375 3.152 11.743 -0.138 0.127 -0.949 -0.461 -1.802 -1.306 z"/><path d="m 127.88 178.41 c -4.714 -10.814 -8.407 -20.962 -9.988 -27.453 -1.559 -12.13 -4.134 -24.337 0.706 -35.01 3.174 -6.81 9.896 -13.889 16.09 -16.949 11.704 -5.777 30.609 -6.357 50.954 -1.562 18.405 4.338 39.41 13.716 60.5 27.01 8.941 5.638 19.234 13.01 18.801 13.461 -0.149 0.156 -3.681 -0.724 -7.85 -1.955 -27.753 -8.197 -64.37 -14.523 -84.7 -14.633 -7.774 -0.042 -10.478 0.428 -13.894 2.246 -7.302 4.802 -10.839 11 -12.11 19.926 -0.581 4.306 0.087 25.846 1.154 37.18 -6.861 0.987 -18.863 -0.515 -19.667 -2.261 z"/></g><path d="m 170.48 209.99 c -7.498 -1.776 -15.597 -4.318 -17.997 -5.649 -10.468 0.077 -23.02 -10.987 -31.82 -16.06 -11.592 -6.655 -19.478 -12.408 -17.542 -12.796 1.935 -0.389 11.364 1.488 20.954 4.17 14.759 4.127 21.928 4.756 46.672 4.089 39.04 -1.051 39.03 -1.041 38.03 -33.06 l -0.728 -23.333 l 9.792 1.513 c 5.386 0.832 9.882 1.671 9.992 1.865 0.11 0.194 2.934 9.194 6.276 20 9.468 30.614 5.701 47.23 -12.875 56.79 -10.74 5.527 -33.22 6.619 -50.754 2.465 z"/><path d="m 209.83 103.87 c -4.931 -1.838 -2.865 -2.737 -3.849 -11.769 l -0.894 -8 l 6.59 10.356 c 9.183 14.43 9.04 15.16 -1.847 9.414 z"/></g></svg>