<svg xmlns="http://www.w3.org/2000/svg" viewBox="0 0 256 256"><path d="m 2.967 157.36 c 15.875 103.17 156.87 130.77 219.1 57.13 54.798 -54.702 41.16 -159.42 -26.05 -195.32 -77.21 -48.03 -189.69 11.349 -195.83 106.97 -0.632 10.475 0.26 21.06 2.771 31.23 z" fill="#139d8d" color="#000"/><path d="m 135.59 198.18 c -3.957 0.336 -6.906 3.856 -6.583 7.854 0.324 3.995 3.816 6.967 7.793 6.631 19.92 -1.671 38.513 -10.887 52.01 -25.797 13.459 -14.909 20.854 -34.415 20.672 -54.59 c -0.189 -21.18 -8.737 -41.45 -23.729 -56.32 -15.02 -14.835 -35.28 -23.08 -56.3 -22.885 -21.02 0.19 -41.13 8.805 -55.878 23.915 -14.72 15.14 -22.9 35.56 -22.708 56.74 c 0.034 4.01 3.296 7.236 7.274 7.198 3.981 -0.034 7.179 -3.319 7.146 -7.331 -0.158 -17.328 6.542 -34.04 18.582 -46.42 12.07 -12.355 28.519 -19.407 45.716 -19.563 17.194 -0.156 33.774 6.594 46.06 18.728 12.259 12.168 19.256 28.745 19.411 46.07 0.148 16.492 -5.872 32.462 -16.921 44.66 -11.03 12.199 -26.25 19.713 -42.564 21.1 m -62.6 -34.24 c -1.884 -3.533 -6.256 -4.861 -9.761 -2.966 -3.505 1.899 -4.823 6.305 -2.939 9.838 8.03 15.04 20.648 27.14 35.961 34.442 3.596 1.732 7.904 0.194 9.613 -3.431 1.709 -3.625 0.175 -7.973 -3.421 -9.705 -12.562 -5.989 -22.853 -15.85 -29.453 -28.18 m 53.52 -42.853 h -11.319 q -1.035 -4.525 -2.98 -6.352 -1.941 -1.828 -5.484 -1.828 -5.356 0 -7.429 3.828 -2.245 4.44 -2.245 10.881 0 6.529 2.548 10.317 2.548 3.788 7.04 3.788 3.543 0 5.487 -1.872 1.941 -1.872 3.064 -6.223 h 11.319 q -0.866 8.703 -6.913 13.493 -5.268 4.263 -13.04 4.263 -10.884 0 -16.499 -7.05 -4.924 -6.094 -4.924 -16.455 0 -12.535 6.478 -18.976 5.615 -5.659 15.205 -5.659 9.155 0 14.511 5.309 4.577 4.701 5.184 12.535 m 26.948 16.717 l 9.414 -33.603 h 12.181 l -18.832 54.49 q -1.985 5.833 -5.268 8.05 -3.283 2.218 -9.761 2.218 -5.959 0 -8.292 -1.566 l 1.813 -8.098 q 3.111 0.785 5.184 0.785 3.02 0 5.181 -2.045 2.161 -2.045 2.161 -4.83 v -0.958 l -17.02 -48.07 h 13.04 l 10.179 33.603" fill="#fff" fill-rule="evenodd"/></svg>