<svg xmlns="http://www.w3.org/2000/svg" viewBox="0 0 256 256" xmlns:xlink="http://www.w3.org/1999/xlink"><defs><clipPath><path transform="matrix(15.33333 0 0 11.5 415 -125.5)" d="m -24 13 c 0 1.105 -0.672 2 -1.5 2 -0.828 0 -1.5 -0.895 -1.5 -2 0 -1.105 0.672 -2 1.5 -2 0.828 0 1.5 0.895 1.5 2 z"/></clipPath></defs><path d="m 26.41 195.63 c -88.37 -128.79 83.51 -259.3 188.72 -154.35 99.13 98.87 1.451 252.49 -123.67 204.47 -26.1 -10.02 -48.829 -26.474 -65.05 -50.12 z" fill="#404040" color="#000"/><path d="m 207.01 133.14 a 65.58 64.4 0 1 1 -131.16 0 65.58 64.4 0 1 1 131.16 0 z" transform="matrix(1.12491 0 0 1.10267 -28.737 -15.644)" fill="#c0c0c0" stroke="#696969" stroke-width="1.841"/><path d="m 199.88 104 a 26.447 33.963 0 1 1 -52.894 0 26.447 33.963 0 1 1 52.894 0 z" transform="matrix(1.10073 0 0 1.16041 -21.449 -18.353)" fill="#979797" stroke="#696969" stroke-width="1.841" id="0"/><use transform="translate(-74.61 -1.114)" xlink:href="#0"/><rect width="71.08" height="15.74" x="94.74" y="159.27" rx="9.574" ry="6.697" fill="#3b3b3b" stroke="#696969" stroke-width="1.813"/><path d="m 192.09 119.59 a 16.425 16.15 0 1 1 -32.85 0 16.425 16.15 0 1 1 32.85 0 z" transform="translate(-6.165 -4.454)" stroke="#696969" stroke-width="1.841" id="1"/><use transform="translate(-76.876 -26.17)" xlink:href="#1"/><path d="m 120.29 91.74 c -1.525 -0.903 -4.36 -2.327 -6.299 -3.165 -28.432 -9.433 -22.895 -6.03 -45.948 -1.673 -0.142 -0.161 0.791 -2.564 2.074 -5.339 3.122 -6.755 8.668 -13.08 14.15 -16.15 7.176 -3.527 14.982 -3.341 20.824 0.014 5.229 3.02 10.943 9.756 14.13 16.663 2.201 4.766 4.349 10.737 3.998 11.12 -0.088 0.096 -1.409 -0.564 -2.934 -1.466 z" fill="#696969" stroke="#696969" stroke-width="1.21"/></svg>