<svg xmlns="http://www.w3.org/2000/svg" xmlns:xlink="http://www.w3.org/1999/xlink" viewBox="0 0 256 256"><defs><path d="m 245.46 129.52 l -97.89 -96.9 c -5.556 -5.502 -16.222 -11.873 -23.7 -14.16 l -39.518 -12.08 c -7.479 -2.286 -18.1 0.391 -23.599 5.948 l -13.441 13.578 c -5.5 5.559 -14.502 14.653 -20 20.21 l -13.44 13.579 c -5.5 5.558 -8.07 16.206 -5.706 23.658 l 12.483 39.39 c 2.363 7.456 8.843 18.06 14.399 23.556 l 97.89 96.9 c 5.558 5.502 14.605 5.455 20.1 -0.101 l 36.26 -36.63 c 5.504 -5.559 14.503 -14.651 20 -20.21 l 36.26 -36.629 c 5.502 -5.56 5.455 -14.606 -0.101 -20.11 z m -178.09 -50.74 c -7.198 0 -13.03 -5.835 -13.03 -13.03 0 -7.197 5.835 -13.03 13.03 -13.03 7.197 0 13.03 5.835 13.03 13.03 -0.001 7.198 -5.836 13.03 -13.03 13.03 z" id="0"/><use id="1" xlink:href="#0"/><clipPath id="2"><use xlink:href="#0"/></clipPath><clipPath clip-path="url(#2)"><use xlink:href="#1"/></clipPath><clipPath clip-path="url(#2)"><use xlink:href="#1"/></clipPath></defs><path d="m 255.03 128.43 c 19.386 171.78 -258.1 169.4 -254.81 -3.059 -9.145 -160.39 269.93 -174.86 254.81 3.059 z" fill="#ffa500" color="#000"/><g fill="#fff"><path d="m 243.12 284.59 l -4.627 -4.627 l -5.491 2.686 c -8.08 3.951 -15.172 5.543 -24.769 5.556 -16.07 0.022 -28.04 -4.97 -39.463 -16.448 -21.811 -21.926 -21.845 -55.53 -0.08 -77.04 3.896 -3.85 8.363 -4.546 10.245 -5.595 61.39 -0.638 -0.038 0.1 61.999 -0.327 21.483 15.33 28.57 44.744 16.689 69.27 l -2.589 5.344 c 3.08 3.127 6.16 6.254 9.239 9.38 0 5.477 0 10.954 0 16.431 -5.509 0 -11.02 0 -16.526 0 -1.542 -1.542 -3.085 -3.085 -4.627 -4.627 z m -22.439 -18.273 l 2.908 -1.171 l -10.658 -10.815 c 0.648 -14.557 4.084 -12.335 15.457 -17.439 3.907 3.867 7.815 7.733 11.722 11.6 l 0.71 -4.734 c 1.5 -9.999 -1.827 -21.08 -7.852 -26.15 -2.816 -2.37 -3.089 -2.396 -24.942 -2.396 h -22.09 l -4.106 4.285 c -4.83 5.04 -6.551 10.02 -6.551 18.959 0 7.914 1.788 12.486 7.163 18.317 7.943 8.617 15.314 11.601 27.337 11.07 4.4 -0.196 9.308 -0.883 10.908 -1.527 z" fill="#fff" transform="matrix(1.12604 0 0 1.1442 -108.16 -143.13)"/></g></svg>