<svg xmlns="http://www.w3.org/2000/svg" viewBox="0 0 256 256"><defs><clipPath><path transform="matrix(15.33333 0 0 11.5 415 -125.5)" d="m -24 13 c 0 1.105 -0.672 2 -1.5 2 -0.828 0 -1.5 -0.895 -1.5 -2 0 -1.105 0.672 -2 1.5 -2 0.828 0 1.5 0.895 1.5 2 z"/></clipPath></defs><g color="#000" fill="#3f51b5"><path d="m 227.99 995.36 c 143.86 -207.99 -318.54 -299.65 -211.84 -41.3 34.09 84.998 165.28 149.74 211.84 41.3 z" transform="translate(0 -796.36)"/></g><g transform="matrix(1.04342 0 0 1.04494 -157.7 27.865)" fill="#fff"><path d="m 125.72 159.23 c -7.07 -6.308 -34.437 -32.515 -40.826 -39.1 l -5.826 -6 l 1.599 -0.428 c 0.879 -0.235 7.149 -0.602 13.932 -0.814 l 12.333 -0.387 l 0.366 -20.613 c 0.307 -17.291 0.499 -20.711 1.192 -21.22 1.977 -1.463 42.589 -1.376 44.603 0.096 0.875 0.639 0.976 2.539 1.137 21.303 l 0.176 20.601 l 11.213 0.032 c 11.933 0.034 15.421 0.37 15.805 1.523 0.562 1.686 -48.41 49.04 -50.67 48.988 -0.324 -0.007 -2.589 -1.797 -5.03 -3.977 z m 4.671 -26.21 c 3.602 -1.772 4.35 -3.642 5.03 -12.58 0.315 -4.125 0.575 -10.125 0.578 -13.333 0.003 -3.208 0.164 -7.146 0.357 -8.75 l 0.35 -2.917 h 5.168 c 2.842 0 5.25 -0.188 5.351 -0.417 0.101 -0.229 0.097 -2.604 -0.008 -5.278 l -0.191 -4.861 h -6.54 c -8.906 0 -8.499 -0.547 -9.01 12.12 -0.218 5.404 -0.415 11.326 -0.437 13.159 l -0.04 3.333 l -2.738 -0.19 c -3.271 -0.227 -8.157 1.09 -10.3 2.775 -1.83 1.439 -3.601 5.073 -3.614 7.415 -0.027 4.969 3.02 9.1 7.756 10.517 2.96 0.887 4.957 0.648 8.289 -0.992 z" transform="translate(143.59 -39.763)"/><path d="M 230,140.682 H319.883 V153.46 H230 z"/></g></svg>