<svg xmlns="http://www.w3.org/2000/svg" viewBox="0 0 256 256"><path d="m 246.73 157.39 c -77.49 236.77 -386.3 -17.411 -168.26 -137.76 85.27 -51.586 208.13 15.985 168.26 137.76 z" fill="#b0c4de" color="#000"/><g transform="matrix(0.77835 0 0 0.76479 16.374 29.29)"><path d="m 79.83 191.28 c -1.93 -0.262 -5.246 -1.454 -7.37 -2.648 -2.702 -1.52 -5.545 -2.406 -9.475 -2.953 -7.089 -0.986 -8.287 -2.156 -9.486 -9.261 -1.272 -7.54 -0.544 -25.27 1.382 -33.627 0.844 -3.667 2.139 -10.826 2.877 -15.907 0.738 -5.082 1.715 -10.06 2.171 -11.06 0.824 -1.808 2.517 -2.53 8.408 -3.585 2.443 -0.437 2.593 -0.636 3.775 -5 0.809 -2.989 1.985 -5.347 3.435 -6.883 l 2.204 -2.337 l 9.826 -0.506 l 9.826 -0.506 l 3.16 -6.06 l 3.16 -6.06 l 6.771 -0.2 l 6.771 -0.2 l 0.414 -5.415 c 0.631 -8.244 2.338 -18.739 3.501 -21.522 1.01 -2.413 1.16 -2.492 4.781 -2.492 6.911 0 7.698 1.522 9.608 18.593 l 1.177 10.521 l 2.775 0.493 c 1.526 0.271 4.1 0.511 5.72 0.533 l 2.945 0.04 l 3.867 6.45 l 3.867 6.45 l 6.875 -0.17 l 6.875 -0.17 l 1.892 2.408 c 1.04 1.324 2.778 2.625 3.86 2.892 3.333 0.82 5.03 2.365 5.942 5.404 0.807 2.694 1.259 3.091 5.95 5.229 2.792 1.272 5.387 2.894 5.767 3.603 0.973 1.819 4.732 20.686 6.121 30.722 1.395 10.08 0.998 26.19 -0.803 32.607 l -1.136 4.049 l -7.125 0.491 c -7.443 0.513 -8.389 0.818 -13.197 4.263 l -2.939 2.106 l -45.33 0.093 c -24.932 0.051 -46.91 -0.121 -48.84 -0.383 z" fill="#708090"/><path d="m 89.54 182.47 c -10.468 -0.408 -12.376 0.232 -14.218 -4.712 -2.587 -6.946 -4.217 -17.891 -2.529 -22.951 0.331 -9.27 1.075 -9.767 4.506 -11.989 0.131 -0.92 0.814 -1.814 1.899 -2.483 1.536 -0.948 5.237 -1.064 39.565 -1.248 20.828 -0.111 41.02 -0.012 44.878 0.224 8.188 0.498 8.434 0.667 8.937 6.14 0.178 1.942 3.54 4.723 4.167 7.178 1.929 7.552 1.474 15.07 -1.481 23.573 -1.058 3.046 -4.563 4.964 -5.276 5.254 -3.199 1.3 -56.03 1.966 -80.45 1.015 z m 81.85 -7.343 c 2.456 -5.206 2.932 -7.417 2.712 -12.589 -0.232 -5.441 -1.383 -9.222 -3.156 -10.366 -2.412 -1.556 -10.287 -1.998 -35.07 -1.97 -30.884 0.035 -55.41 0.779 -57.17 1.734 -3.23 1.75 -4.377 12.593 -2.055 19.422 1.46 4.295 2.782 5.55 6.445 6.118 1.552 0.241 21.741 0.476 44.864 0.522 l 42.04 0.085 l 1.394 -2.956 z" fill="#fff"/></g><g fill="#228b22" stroke="#fff"><path d="m 155.1 158.62 a 54.2 55.08 0 1 1 -108.39 0 54.2 55.08 0 1 1 108.39 0 z" transform="matrix(0 -0.6575 0.65936 0 76.49 171.53)" stroke-width="2.802"/></g><g fill="#fff" stroke="none"><path transform="matrix(0.76143 0.64825 -0.64318 0.76571 0 0)" d="m 205.73 -62.5 h 11.487 v 38.16 h -11.487 z"/><path transform="matrix(-0.61486 0.78864 0.79405 0.60785 0 0)" d="m -20.93 190.13 h 11.461 v 28.05 h -11.461 z"/></g></svg>