<svg xmlns="http://www.w3.org/2000/svg" viewBox="0 0 256 256"><path d="m 149.64 252.51 c -34.24 -5.666 -78.908 -30.488 -106.45 -59.16 -21.834 -22.731 -32.832 -42.46 -36.943 -66.26 -5.754 -33.32 6.349 -59.968 38.19 -84.09 37.27 -27.04 91 -52.55 131.09 -37.55 15.898 6.01 26.652 12.936 37.672 24.27 c 22.533 23.17 36.67 56.656 40.23 95.28 2.02 21.884 0.593 39.15 -4.905 59.45 -9.369 34.595 -29.16 57.41 -57.697 66.53 -8.979 2.868 -28.697 3.604 -41.19 1.536 z" fill="#d6e8ea"/><path d="m 241.49 265.43 c -2.132 -1.372 -17.727 -16.244 -34.656 -33.05 -28.3 -28.09 -31.04 -31.07 -33.999 -36.97 -3.868 -7.71 -5.318 -8.205 -12.951 -4.429 -12.291 6.081 -23.272 8.379 -36.843 7.709 -17.02 -0.841 -32.475 -7.545 -44.846 -19.456 -9.686 -9.326 -15.432 -18.993 -18.899 -31.791 -2.131 -7.867 -2.365 -26.643 -0.423 -33.864 5.424 -20.17 18.02 -35.883 36.18 -45.16 4.087 -2.087 9.197 -4.29 11.354 -4.895 16.535 -3.368 26.389 -3.952 40.974 0.061 15.916 4.371 32.882 18.422 41.543 34.406 10.466 19.316 10.246 44.36 -0.576 65.57 -3.687 7.227 -3.226 10.338 1.532 10.338 1.127 0 3.108 0.557 4.402 1.238 4.238 2.228 70.49 68.797 71.5 71.843 1.564 4.711 -1.085 10.972 -6.805 16.09 -6.323 5.652 -11.331 6.328 -17.494 2.362 z m -104.23 -81.59 c 12.856 -2.267 26.717 -10.577 34.37 -20.607 7.454 -9.768 10.544 -17.942 11.234 -29.709 0.645 -11.02 -0.394 -15.985 -5.631 -26.908 -3.291 -6.865 -5.076 -9.327 -11 -15.172 -7.896 -7.787 -12.436 -10.711 -21.692 -13.971 -11.821 -2.937 -23.411 -3.826 -34.22 -0.061 -15.351 5.414 -28.08 16.854 -34.902 31.36 -5.864 12.475 -6.327 27.831 -1.232 40.902 6.654 17.07 18.17 27.72 35.389 32.731 9.855 2.867 17.362 3.256 27.69 1.435 z m -18.861 -12.598 c -1.366 -0.787 -1.526 -2.546 -1.526 -16.775 v -15.895 c -10.316 -0.157 -20.632 -0.314 -30.948 -0.471 -0.189 -5.623 -1.115 -11.486 -0.235 -17.02 0.625 -1.312 2.502 -1.517 15.729 -1.725 l 15.02 -0.236 c 0.705 -9.848 -0.62 -20.02 0.094 -29.87 3.284 -1.047 18.275 -0.589 19.19 0.431 2.863 9.279 0.801 15.179 1.613 28.988 10.741 1.376 19.06 1.129 30.536 1.313 -0.51 5.484 1.806 13.04 -0.621 17.814 -10.703 1.035 -18.941 0.721 -30.33 0.731 v 15.928 c 0 14.864 -0.113 15.987 -1.686 16.821 -2.162 1.145 -14.836 1.116 -16.839 -0.039 z m 60.54 9.09 c 0.832 -1.806 0.749 -2.444 -0.471 -3.651 -2.51 -2.484 -5.994 0.998 -4.598 4.596 0.794 2.048 3.963 1.457 5.069 -0.945 z" fill="#636466" transform="matrix(0.6546 0 0 0.67216 31.34 23.725)"/></svg>