<svg xmlns="http://www.w3.org/2000/svg" viewBox="0 0 256 256" xmlns:xlink="http://www.w3.org/1999/xlink"><path d="m 62.68 31.801 c -226.71 210.75 241.2 343.53 189.6 63.746 c -25.452 -73.816 -116.81 -131.42 -189.6 -63.746 z" fill="#5088c9" color="#000"/><g transform="matrix(0.42143 0 0 0.41675 27.2 28.78)"><g transform="matrix(0.91595 0 0 0.91595 30.06 20.968)" fill-opacity="0.101"><path d="m 373.05 243.91 l -124.46 -101.94 l -124.53 101.99 v 145.73 c 0 3.764 3.288 6.783 7.358 6.783 h 77.83 v -111.75 c 0 -3.764 2.36 -6.834 6.43 -6.805 l 66.66 0.886 c 4.069 0.054 7.395 2.599 7.334 6.362 l -1.809 111.31 h 77.855 c 4.069 0 7.334 -3.02 7.334 -6.783 z" id="0"/><path d="m 247.86 86.17 l -176.63 144.64 l 18.606 19.413 l 158.74 -130.01 l 158.71 130.01 l 18.569 -19.413 l -176.59 -144.64 l -0.686 0.735 l -0.723 -0.735 z" id="1"/><path d="m 375.92 109.64 h -44.775 l 0.39 24.527 l 44.39 37.08 v -61.61 z" id="2"/></g><g transform="matrix(0.91595 0 0 0.91595 23.737 5.815)" stroke-opacity="0.185" fill="#fff" stroke="#000" fill-opacity="1"><use xlink:href="#0"/><use xlink:href="#1"/><use xlink:href="#2"/></g></g></svg>