<svg xmlns="http://www.w3.org/2000/svg" viewBox="0 0 256 256"><defs><clipPath><path d="M 0,64 H64 V128 H0 z"/></clipPath></defs><g fill="#252525" color="#000"><path d="m -1360.14 1641.33 c 46.11 -98.28 -119.59 -146.07 -181.85 -106.06 -62.25 40.01 -83.52 108.58 -13.01 143.08 70.51 34.501 148.75 61.26 194.86 -37.03 z" transform="matrix(1.03372 0 0 -1.34975 1653.03 2308.4)"/></g><g fill="#a43217"><path d="m 128.03 146.64 c -0.341 -0.867 -1.574 -1.505 -2.907 -1.505 -1.273 0 -2.528 -0.423 -2.787 -0.941 -0.348 -0.693 -1.26 -0.597 -3.466 0.363 -2.971 1.295 -3 1.287 -3.746 -0.972 -0.414 -1.252 -1.813 -2.771 -3.109 -3.375 -1.998 -0.931 -2.478 -2.262 -3.155 -8.753 -0.439 -4.211 -1.398 -8.136 -2.132 -8.724 -0.764 -0.612 -0.905 -1.371 -0.33 -1.777 1.01 -0.713 -0.305 -9.271 -1.549 -10.1 -1.576 -1.048 -2.322 1.163 -3.113 9.222 -0.463 4.725 -0.879 9.731 -0.923 11.125 -0.044 1.394 -0.544 2.343 -1.111 2.11 -1.232 -0.506 -2.424 1.321 -2.424 3.714 0 2.246 -1.135 2.942 -3.061 1.879 -1.185 -0.654 -1.546 -0.563 -1.546 0.39 0 0.683 0.648 1.266 1.44 1.294 0.792 0.028 0.214 0.443 -1.283 0.922 -2.238 0.715 -2.979 0.637 -4.158 -0.435 -2.01 -1.829 -2.909 -1.627 -2.909 0.655 0 1.078 -0.496 1.756 -1.101 1.507 -0.606 -0.249 -0.809 -0.958 -0.453 -1.577 0.357 -0.618 0.075 -1.124 -0.626 -1.124 -0.701 0 -1.275 1.186 -1.275 2.635 0 1.449 -0.518 2.848 -1.152 3.108 -0.685 0.281 -1.152 -0.621 -1.152 -2.225 0 -1.884 -0.672 -2.938 -2.228 -3.491 -2.851 -1.014 -7.788 -1.023 -8.725 -0.014 -1.126 1.211 -2.503 0.244 -3.266 -2.294 -0.624 -2.075 -1.136 -2.313 -4.971 -2.313 h -4.275 l 3.221 -2.235 c 1.771 -1.229 2.911 -2.569 2.532 -2.976 -0.379 -0.408 0.083 -1.167 1.026 -1.688 2.514 -1.387 2.125 -2.046 -1.74 -2.941 -3.987 -0.924 -4.469 -2.095 -1.152 -2.795 2.979 -0.629 2.979 -3.2 0 -3.829 -2.653 -0.56 -3.109 -1.914 -0.644 -1.914 2.43 0 3.355 -1.431 1.754 -2.714 -1.121 -0.898 -1.029 -1.115 0.477 -1.115 2.81 0 2.247 -1.988 -1.051 -3.713 -2.82 -1.475 -2.839 -1.544 -0.576 -2.02 2.463 -0.52 3.02 -2.327 1.276 -4.156 -0.615 -0.646 -0.589 -1.86 0.064 -3 0.96 -1.678 0.493 -2.327 -3.739 -5.194 l -4.836 -3.276 l 3.043 -0.922 c 4.121 -1.248 5.105 -4.972 2.65 -10.03 -1.03 -2.121 -1.873 -4.28 -1.873 -4.798 0 -0.518 -1.97 -2.977 -4.378 -5.464 -2.408 -2.487 -4.726 -4.905 -5.152 -5.373 -0.536 -0.589 1.164 -0.806 5.53 -0.705 5.39 0.125 6.304 -0.054 6.304 -1.236 0 -1.189 0.44 -1.271 3.143 -0.588 2.05 0.518 3.275 0.531 3.523 0.037 0.209 -0.417 3.07 1.254 6.358 3.713 5.81 4.345 10.01 5.795 10.01 3.458 0 -1.675 2.026 -1.405 2.879 0.383 0.807 1.69 2.833 2.083 2.96 0.574 0.045 -0.526 0.826 0.421 1.737 2.106 0.911 1.685 2.576 3.58 3.701 4.212 2.452 1.378 4.21 4.288 6.01 9.955 1.986 6.247 2.33 6.892 3.668 6.892 0.806 0 0.954 -1.345 0.435 -3.949 -0.564 -2.826 -0.375 -4.119 0.662 -4.545 1.16 -0.477 1.146 -0.974 -0.072 -2.487 -0.837 -1.04 -1.16 -2.281 -0.718 -2.757 0.443 -0.476 0.79 -2.939 0.772 -5.473 -0.031 -4.222 0.154 -4.567 2.21 -4.133 1.715 0.362 2.244 0.111 2.244 -1.065 0 -2.047 1.856 -2.727 2.867 -1.05 0.443 0.735 1.228 13.225 1.745 27.756 0.771 21.659 1.289 27.08 2.879 30.06 2.112 3.961 3.785 5.137 5.178 3.638 0.492 -0.529 1.47 -0.725 2.175 -0.436 1.51 0.621 1.486 1.053 1.849 -32.493 0.246 -22.691 1.321 -37.1 2.584 -34.652 0.87 1.686 3.757 1.048 3.757 -0.83 0 -2.705 1.224 -2.979 4.096 -0.919 3.546 2.544 5.537 6.88 4.522 9.847 -1.133 3.312 -1.065 6.893 0.573 30.383 0.779 11.161 1.82 20.783 2.313 21.38 0.494 0.598 1.228 -5.778 1.631 -14.167 0.403 -8.39 1.232 -20.08 1.841 -25.975 1.089 -10.537 0.657 -16.1 -1.312 -16.911 -1.8 -0.74 -1.117 -2.811 0.768 -2.33 1.191 0.304 2.173 -0.23 3.02 -1.641 l 1.256 -2.091 l 1.534 2.297 c 0.844 1.264 1.558 2.728 1.586 3.255 0.064 1.18 1.478 1.234 3.153 0.121 2 -1.331 5.708 0.448 6.513 3.125 0.617 2.052 1.066 2.283 3.607 1.859 1.861 -0.311 2.903 -0.163 2.903 0.41 0 0.513 0.604 0.646 1.419 0.311 0.781 -0.321 2.336 -0.628 3.455 -0.683 2.044 -0.1 2.691 1.56 2.171 5.579 -0.143 1.104 0.413 1.723 1.548 1.723 2.241 0 2.229 1.131 -0.06 5.597 -1.634 3.189 -2.074 3.486 -4.095 2.767 -1.245 -0.443 -2.883 -0.655 -3.64 -0.471 -0.757 0.184 -3.072 -0.506 -5.146 -1.535 -5.951 -2.951 -7.686 -2.219 -8.09 3.413 -0.216 3.02 0.11 4.779 0.886 4.779 0.736 0 0.938 0.769 0.504 1.92 -0.46 1.219 -0.011 2.644 1.231 3.905 1.607 1.631 2.656 1.93 5.886 1.68 l 3.93 -0.305 l -0.066 4.25 c -0.036 2.337 -0.425 5.456 -0.864 6.93 -0.817 2.746 -1.079 2.833 -9.44 3.126 -1.431 0.05 -1.615 0.949 -1.057 5.168 0.371 2.809 1.039 5.645 1.484 6.303 1.055 1.559 9.1 3.553 9.676 2.399 0.229 -0.456 1.138 -0.645 2.02 -0.419 1.05 0.268 1.897 -0.343 2.448 -1.766 l 0.843 -2.176 l 0.837 2.651 c 0.46 1.458 0.491 5.421 0.069 8.807 -0.704 5.639 -0.977 6.156 -3.256 6.156 -1.368 0 -2.875 0.255 -3.349 0.568 -0.474 0.312 -1.557 0.184 -2.408 -0.285 -1.212 -0.669 -1.546 -0.496 -1.546 0.799 0 1.396 -0.345 1.529 -2.228 0.86 -2.942 -1.047 -3.531 -1 -3.531 0.274 0 1.299 -3.824 2.409 -4.393 1.274 -0.566 -1.129 -2.515 -1.016 -2.526 0.148 -0.006 0.526 -1.27 1.346 -2.81 1.821 -3.239 0.998 -4.083 0.217 -4.104 -3.798 -0.018 -3.345 -1.289 -8.17 -2.154 -8.169 -0.392 0 -2.145 1.697 -3.896 3.769 -1.751 2.073 -4.934 5.162 -7.07 6.865 -3.412 2.715 -3.964 2.911 -4.483 1.591 z m 34.896 -17.669 c 0 -0.376 -1.037 -0.684 -2.303 -0.684 -2.245 0 -3 0.812 -1.615 1.734 0.923 0.613 3.918 -0.189 3.918 -1.05 z m -77.17 -2.981 c 0 -0.421 0.648 -0.771 1.44 -0.778 5.05 -0.041 6.917 -6.495 5.828 -20.16 c -0.604 -7.583 -1.138 -9.477 -3.255 -11.552 -1.393 -1.365 -2.886 -3.732 -3.317 -5.261 -0.431 -1.529 -1.317 -2.999 -1.968 -3.266 -1.945 -0.799 -4.404 2.133 -4.537 5.41 l -0.124 3.063 l -1.352 -2.464 c -0.744 -1.355 -2.259 -3.066 -3.368 -3.802 -1.919 -1.274 -2.02 -1.01 -2.02 5.502 0 8.717 2.293 27.775 3.626 30.14 0.784 1.39 1.371 1.612 2.547 0.963 1.176 -0.649 1.829 -0.403 2.836 1.065 1.293 1.886 3.661 2.625 3.661 1.143 z m 19.579 -18.762 c 0 -1.053 0.027 -2.173 0.061 -2.489 0.033 -0.316 -0.744 -0.686 -1.728 -0.822 -1.353 -0.187 -1.788 0.419 -1.788 2.489 0 1.922 0.514 2.736 1.728 2.736 1.075 0 1.728 -0.723 1.728 -1.914 z m 0 -5.315 c 0 -1.497 -2.232 -2.313 -3.686 -1.347 -0.65 0.432 -0.833 1.16 -0.408 1.618 1.129 1.215 4.093 1.018 4.093 -0.271 z m 0 -4.163 c 0 -0.965 -3.381 -2.696 -4.201 -2.15 -1.179 0.784 0.581 2.822 2.437 2.822 0.97 0 1.764 -0.302 1.764 -0.672 z m 34.27 -29.635 c -1.133 -0.754 -3.175 0.403 -3.175 1.799 0 1.169 0.151 1.167 1.947 -0.027 1.071 -0.712 1.624 -1.51 1.228 -1.772 z"/><path d="m 183.14 143.56 c 0 -2.54 -1.273 -4.476 -2.556 -3.886 -0.726 0.334 -0.887 -1.177 -0.44 -4.132 3.02 -19.984 4.998 -59.718 3.206 -64.49 -1.108 -2.95 -0.95 -3.665 1.307 -5.95 3.083 -3.12 8.941 -5.688 9.06 -3.97 0.75 11.01 0.562 22.18 -0.386 23.07 -0.732 0.683 -0.893 3.733 -0.419 7.965 0.533 4.757 0.319 7.592 -0.696 9.251 -1.067 1.745 -1.106 2.482 -0.143 2.721 0.726 0.18 1.046 1.109 0.711 2.064 -0.381 1.085 0.212 2.199 1.582 2.972 1.863 1.05 1.908 1.24 0.303 1.264 -2.294 0.034 -3.426 4.282 -2.587 9.708 0.936 6.05 1.256 6.434 3.917 4.64 1.317 -0.888 2.309 -1.125 2.309 -0.553 0 1.975 3.583 0.958 4.879 -1.386 1.044 -1.887 1.423 -2.07 1.807 -0.869 0.593 1.859 4.476 2.02 5.402 0.217 0.369 -0.717 1.738 -1.303 3.041 -1.303 1.427 0 2.425 -0.605 2.508 -1.521 0.076 -0.836 0.47 -0.348 0.875 1.086 0.521 1.843 1.848 2.971 4.528 3.85 2.708 0.888 3.792 1.819 3.792 3.258 0 1.109 0.04 2.309 0.088 2.667 0.048 0.358 -1.527 1 -3.5 1.429 -1.974 0.428 -3.588 1.371 -3.588 2.098 0 0.726 -0.878 2.803 -1.951 4.614 -1.735 2.929 -2.111 3.131 -3.394 1.824 -1.344 -1.369 -1.617 -1.353 -3.977 0.238 -2.371 1.598 -2.607 1.611 -3.663 0.206 -1.708 -2.273 -4.513 -1.857 -4.513 0.67 0 2.664 -0.82 2.718 -4.3 0.283 -2.673 -1.87 -2.727 -1.872 -5.325 -0.217 -1.444 0.92 -3.806 2.164 -5.25 2.766 -2.322 0.967 -2.625 0.9 -2.625 -0.581 z"/></g><g fill="#822306"><path d="m 123.95 228.15 c -4.747 -0.229 -8.726 -0.51 -8.841 -0.626 -0.116 -0.115 0.189 -0.683 0.678 -1.262 2.44 -2.891 3.376 -10.926 3.393 -29.13 0.018 -19.12 -1.025 -27.611 -3.658 -29.789 -1.407 -1.164 -0.862 -1.255 10.448 -1.736 8.616 -0.367 11.173 -0.218 11.731 0.683 0.106 0.171 -0.249 0.818 -0.79 1.439 -1.445 1.659 -1.736 2.354 -2.505 5.998 -0.657 3.112 -0.698 4.477 -0.699 23.24 -0.001 18.781 0.039 20.12 0.698 23.24 0.794 3.755 1.08 4.42 2.575 6 1.038 1.098 1.05 1.145 0.406 1.618 -0.365 0.268 -1.287 0.489 -2.05 0.492 -0.763 0.003 -1.694 0.061 -2.07 0.129 -0.376 0.069 -4.567 -0.063 -9.314 -0.292 z"/><path d="m 157.25 216.95 c -4.108 -0.213 -7.552 -0.475 -7.652 -0.582 -0.1 -0.107 0.164 -0.635 0.586 -1.173 2.112 -2.688 2.922 -10.158 2.936 -27.08 0.015 -17.775 -0.887 -25.671 -3.166 -27.696 -1.218 -1.082 -0.746 -1.167 9.04 -1.614 7.457 -0.341 9.669 -0.203 10.152 0.635 0.092 0.159 -0.216 0.761 -0.683 1.338 -1.251 1.542 -1.502 2.188 -2.168 5.577 -0.569 2.893 -0.604 4.162 -0.605 21.603 -0.001 17.462 0.034 18.707 0.604 21.603 0.688 3.491 0.935 4.109 2.229 5.58 0.899 1.021 0.909 1.065 0.352 1.505 -0.316 0.249 -1.114 0.455 -1.774 0.457 -0.66 0.003 -1.466 0.056 -1.792 0.12 -0.325 0.064 -3.953 -0.058 -8.06 -0.271 z"/><path d="m 91.98 215.99 c -4.108 -0.213 -7.552 -0.475 -7.652 -0.582 -0.1 -0.107 0.164 -0.635 0.586 -1.173 2.112 -2.688 2.922 -10.158 2.936 -27.08 0.015 -17.775 -0.887 -25.671 -3.166 -27.696 -1.218 -1.082 -0.746 -1.167 9.04 -1.614 7.457 -0.341 9.669 -0.203 10.152 0.635 0.092 0.159 -0.216 0.761 -0.683 1.338 -1.251 1.542 -1.502 2.188 -2.168 5.577 -0.569 2.893 -0.604 4.162 -0.605 21.603 -0.001 17.462 0.034 18.707 0.604 21.603 0.688 3.491 0.935 4.109 2.229 5.58 0.899 1.021 0.909 1.065 0.352 1.505 -0.316 0.249 -1.114 0.455 -1.774 0.457 -0.66 0.003 -1.466 0.056 -1.792 0.12 -0.325 0.064 -3.953 -0.058 -8.06 -0.271 z"/></g></svg>