<svg xmlns="http://www.w3.org/2000/svg" viewBox="0 0 256 256"><defs><linearGradient id="0" gradientUnits="userSpaceOnUse" x2="0" y1="47" y2="1"><stop stop-color="#75a45e" stop-opacity="0.996"/><stop offset="1" stop-color="#80ab6b" stop-opacity="0.996"/></linearGradient></defs><path d="m 193.89 224.63 c 226.71 -210.75 -241.2 -343.53 -189.6 -63.746 25.452 73.816 116.81 131.42 189.6 63.746 z" fill="#b8d1a8" color="#000"/><g transform="matrix(3.45258 0 0 3.47399 39.781 40.96)"><g><path d="m 36.31,5 c 5.859,4.062 9.688,10.831 9.688,18.5 0,12.426 -10.07,22.5 -22.5,22.5 -7.669,0 -14.438,-3.828 -18.5,-9.688 1.037,1.822 2.306,3.499 3.781,4.969 4.085,3.712 9.514,5.969 15.469,5.969 12.703,0 23,-10.298 23,-23 0,-5.954 -2.256,-11.384 -5.969,-15.469 C 39.81,7.306 38.132,6.037 36.31,5 z m 4.969,3.781 c 3.854,4.113 6.219,9.637 6.219,15.719 0,12.703 -10.297,23 -23,23 -6.081,0 -11.606,-2.364 -15.719,-6.219 4.16,4.144 9.883,6.719 16.219,6.719 12.703,0 23,-10.298 23,-23 0,-6.335 -2.575,-12.06 -6.719,-16.219 z" opacity="0.05"/><path d="m 41.28 8.781 c 3.712 4.085 5.969 9.514 5.969 15.469 0 12.703 -10.297 23 -23 23 -5.954 0 -11.384 -2.256 -15.469 -5.969 4.113 3.854 9.637 6.219 15.719 6.219 12.703 0 23 -10.298 23 -23 0 -6.081 -2.364 -11.606 -6.219 -15.719 z" opacity="0.1"/><path d="M 31.25,2.375 C 39.865,5.529 46,13.792 46,23.505 c 0,12.426 -10.07,22.5 -22.5,22.5 -9.708,0 -17.971,-6.135 -21.12,-14.75 a 23,23 0 0 0 44.875,-7 23,23 0 0 0 -16,-21.875 z" opacity="0.2"/></g><path d="M 24,1 C 36.703,1 47,11.297 47,24 47,36.703 36.703,47 24,47 11.297,47 1,36.703 1,24 1,11.297 11.297,1 24,1 z" fill="url(#0)"/><path d="m 40.03,7.531 c 3.712,4.084 5.969,9.514 5.969,15.469 0,12.703 -10.297,23 -23,23 C 17.045,46 11.615,43.744 7.53,40.031 11.708,44.322 17.54,47 23.999,47 c 12.703,0 23,-10.298 23,-23 0,-6.462 -2.677,-12.291 -6.969,-16.469 z" opacity="0.1"/><path d="m 24.11 9.01 c -2.037 0.092 -4.01 1.12 -5.217 2.818 -0.201 0.282 -0.376 0.573 -0.537 0.867 a 14 14 0 0 0 -7.356 12.308 14 14 0 0 0 0.146 1.91 c -1.907 2.532 -1.317 6.306 0.969 8.352 1.557 1.393 3.606 1.884 5.629 1.691 a 14 14 0 0 0 7.256 2.047 14 14 0 0 0 8.459 -2.859 c 0.745 0.07 1.495 0 2.203 -0.262 3.762 -1.39 4.76 -4.467 4.223 -7.621 -0.154 -0.902 -0.474 -1.745 -0.922 -2.514 a 14 14 0 0 0 0.037 -0.745 14 14 0 0 0 -9.203 -13.13 c -0.193 -0.287 -0.411 -0.558 -0.652 -0.805 h -0.002 c -0.432 -0.441 -0.914 -0.835 -1.444 -1.154 -1.122 -0.676 -2.367 -0.957 -3.589 -0.902 z" opacity="0.1"/><circle r="14" cx="24" cy="24" fill="#b8d1a8"/><g color="#000"><path d="m 24 10 a 14 14 0 0 0 -3.943 0.576 c -0.438 0.362 -0.835 0.777 -1.17 1.248 -2.42 3.394 -1.872 7.775 0.646 10.848 0.945 1.153 2.509 2.287 2.686 4.543 0.333 4.266 -2.025 5.98 -5.117 6.4 -1.866 0.254 -3.764 -0.813 -3.965 -2.761 -0.226 -2.192 0.98 -4.083 3.109 -4.295 1.955 -0.195 3.115 1.942 1.793 3.503 -1.234 1.458 -3.746 -1.199 -3.656 0.754 0.083 1.8 2.89 1.879 4.33 1.086 2.257 -1.241 2.35 -4.551 0.549 -6.201 -2.295 -2.102 -6.068 -1.28 -7.961 1 -0.306 0.368 -0.549 0.768 -0.744 1.186 a 14 14 0 0 0 7.908 8.967 c 1.553 -0.275 3.056 -0.941 4.267 -1.916 2.368 -1.907 2.615 -5.257 4.256 -7.657 2.035 -2.974 6.891 -2.712 8.95 0.117 0.565 0.778 0.761 1.721 0.677 2.633 a 14 14 0 0 0 1.364 -5.613 c -2.148 -2.421 -5.688 -3.685 -8.862 -2.891 -1.471 0.368 -3 0.896 -4.508 0.366 -3.463 -1.224 -4.725 -5.979 -2.394 -8.729 1.204 -1.421 3.867 -1.396 5.256 -0.295 1.767 1.401 1.355 4.235 -0.623 5.391 -1.478 0.864 -3.995 -1 -2.881 -2.35 0.759 -0.917 2.317 -3.069 0.156 -2.379 -2.186 0.698 -2.587 3.707 -1.305 5.412 1.613 2.145 4.987 1.647 6.696 -0.185 2.027 -2.18 1.58 -5.685 -0.381 -7.696 h -0.002 c -0.043 -0.043 -0.093 -0.08 -0.137 -0.123 A 14 14 0 0 0 24 10 z m 7.922 16.402 c -2.271 -0.111 -3.933 2.034 -3.934 4.241 -0.001 2.263 1.645 4.198 3.692 5.056 a 14 14 0 0 0 2.814 -2.451 c -0.003 0.001 -0.005 0.003 -0.008 0.004 -2.229 0.998 -5.148 -1.133 -4.685 -3.51 0.316 -1.606 3.39 -2.139 3.678 -0.461 0.171 0.999 0.897 3.139 1.712 1.533 0.964 -1.896 -0.843 -4.01 -2.808 -4.359 -0.157 -0.028 -0.31 -0.045 -0.461 -0.053 z" opacity="0.1"/><path white-space="normal" mix-blend-mode="normal" d="m 28.13 10.06 c 1.961 2.01 2.408 5.516 0.38 7.695 -1.709 1.832 -5.082 2.331 -6.694 0.186 -1.282 -1.706 -0.881 -4.715 1.305 -5.412 2.161 -0.69 0.603 1.462 -0.156 2.38 -1.114 1.348 1.402 3.214 2.881 2.35 1.979 -1.156 2.389 -3.99 0.622 -5.391 -1.389 -1.101 -4.051 -1.127 -5.255 0.294 -2.331 2.75 -1.069 7.505 2.394 8.728 1.504 0.531 3.038 0.003 4.509 -0.365 4.586 -1.148 9.941 2 10.747 6.732 0.537 3.154 -0.46 6.23 -4.22 7.62 -3.343 1.236 -7.659 -1.571 -7.657 -5.236 0.001 -2.353 1.891 -4.637 4.395 -4.187 1.965 0.353 3.772 2.462 2.809 4.358 -0.815 1.605 -1.542 -0.534 -1.714 -1.533 -0.288 -1.679 -3.361 -1.145 -3.678 0.461 -0.463 2.376 2.456 4.508 4.685 3.51 2.052 -0.918 2.867 -3.909 1.452 -5.854 -2.058 -2.83 -6.915 -3.092 -8.95 -0.117 -1.641 2.399 -1.888 5.751 -4.255 7.658 -2.966 2.387 -7.671 2.962 -10.619 0.324 -2.347 -2.101 -2.913 -6.03 -0.814 -8.562 1.893 -2.28 5.668 -3.103 7.962 -1 1.801 1.65 1.708 4.961 -0.549 6.202 -1.44 0.793 -4.247 0.714 -4.33 -1.086 -0.09 -1.953 2.422 0.705 3.656 -0.753 1.322 -1.562 0.161 -3.698 -1.794 -3.504 -2.129 0.212 -3.336 2.103 -3.11 4.294 0.201 1.948 2.1 3.01 3.965 2.761 3.093 -0.42 5.45 -2.133 5.117 -6.399 -0.176 -2.256 -1.739 -3.39 -2.684 -4.543 -2.519 -3.072 -3.067 -7.454 -0.647 -10.848 1.937 -2.717 5.811 -3.717 8.802 -1.915 0.529 0.319 1.011 0.711 1.442 1.153 z" isolation="auto" fill="#587e3f"/></g></g></svg>