<svg xmlns="http://www.w3.org/2000/svg" viewBox="0 0 256 256"><g color="#000"><path d="m 202.58 811.44 c -381.34 -111.21 -138.25 438.25 32.359 162.63 31.19 -50.643 33.36 -136.61 -32.359 -162.63 z" transform="matrix(0.98359 0.03245 0.03293 -0.99208 -27.409 1041.53)" fill="#393068"/></g><path d="m 69.944 203.54 c -1.042 -1.308 -1.554 -3.25 -1.554 -5.898 0 -7.482 3.724 -13.682 11.507 -19.16 3.735 -2.628 4.781 -3.829 4.391 -5.04 -2.307 -7.16 -1.809 -31.606 0.878 -43.08 2.2 -9.394 6.545 -18.423 12.521 -26.02 l 5.635 -7.163 l -2.639 -5.074 c -3.552 -6.832 -4.875 -14.618 -3.636 -21.405 1.812 -9.925 7.648 -17.305 13.685 -17.305 c 6.208 0 12.821 8.781 12.821 17.02 0 3.714 -0.771 4.347 -2.362 1.942 -0.549 -0.83 -1.728 -1.379 -2.62 -1.219 -2.418 0.434 -2.714 8.167 -0.451 11.777 1.877 2.994 6.722 5.14 9.576 4.241 5.734 -1.806 8.881 -9.8 4.781 -12.144 -1.075 -0.614 -2.35 -2.207 -2.834 -3.54 -1.087 -2.993 -0.237 -4.485 4.565 -8.02 6.511 -4.788 16.14 -1.544 19.496 6.567 3.217 7.773 0.822 15.857 -6.228 21.02 -2.047 1.5 -3.714 2.965 -3.704 3.254 0.01 0.29 1.446 1.843 3.192 3.451 7.535 6.945 14.455 19.12 17.795 31.3 2.346 8.556 3.607 27.83 2.465 37.666 -0.984 8.469 -0.675 9.872 2.434 11.06 3.03 1.161 9.161 7.643 11.07 11.705 2.123 4.517 2.473 10.7 0.77 13.621 -1.049 1.801 -2.236 1.892 -24.541 1.892 h -23.439 l -1.96 -2.859 c -1.628 -2.376 0.679 -3.795 0.993 -7.292 -2.643 -7.812 -12.562 -3.423 -13.589 -0.106 -1.458 4.797 1.654 6.267 -0.309 8.389 l -2.18 2.356 h -22.488 c -21.452 0 -22.56 -0.09 -24.04 -1.95 z" fill="#fff" stroke="#fff" stroke-width="2.338"/><g transform="matrix(0.79471 0 0 0.77511 24.888 44.01)"><path d="m 109.15 170.26 c -3.325 -2.337 -8.65 -8.03 -11.832 -12.66 -7.637 -12.297 -9.503 -30.13 -2.039 -39.13 8.01 -9.598 21.967 -18.04 29.825 -18.04 7.728 -0.002 24.08 6.543 29.23 11.698 4.103 4.106 4.582 16.623 0.921 24.04 -3.67 7.438 -13.458 12.843 -23.355 12.896 -7.212 0.039 -9.247 -0.813 -12.302 -5.149 -4.44 -6.303 -4.613 -10.386 -0.678 -15.972 3.854 -5.471 7.303 -5.608 3.824 -0.152 -6.853 10.749 6.84 21.688 18.959 15.15 12.297 -6.637 10.952 -24.618 -2.378 -31.788 -10.683 -5.746 -29.967 0.169 -38.534 11.821 -8.775 11.935 -3.01 30.11 13.877 43.747 8.63 6.97 9.07 7.654 4.996 7.72 -2.46 0.04 -7.194 -1.84 -10.519 -4.177 z" fill="#c14d7a" stroke="#c14d7a" stroke-width="4.772"/><path d="m 109.41 72.831 l 16.05 -4.454 l 17.336 4.454 c -3.629 3.94 -10.11 13.965 -14.677 14.554 -10.66 -4.897 -13.886 -7.04 -18.713 -14.554 z" fill="#e96b22" stroke="#e96b22" stroke-width="3.129"/><g fill="#fff" stroke="#fff" stroke-width="3.071"><path d="m 37.715 144.96 c -11.996 -26.15 45.622 -77.52 32.957 -42.879 c -2.605 6.694 -4.245 18.615 -9.613 29.915 -9.06 5.198 -13.877 10.965 -23.344 12.964 z"/><path d="m 214.75 143.63 c 11.996 -26.15 -45.622 -77.52 -32.957 -42.879 2.605 6.694 4.245 18.615 9.613 29.915 9.06 5.198 13.877 10.965 23.344 12.964 z"/></g></g></svg>