<svg xmlns="http://www.w3.org/2000/svg" viewBox="0 0 256 256" xmlns:xlink="http://www.w3.org/1999/xlink"><defs><path id="0" d="m 146.86 135.98 a 18.264 18.637 0 1 1 -36.529 0 18.264 18.637 0 1 1 36.529 0 z" stroke-width="3.865" stroke="#e6e6a7" fill="#e6e6a7"/><clipPath><path d="M 0,64 H64 V128 H0 z"/></clipPath></defs><path d="m 5.04 103.75 c 9.972 -23.444 24.645 -56.01 26.541 -58.914 c 1.158 -1.772 4.123 -4.757 6.588 -6.633 7.04 -5.358 57.23 -34.2 61.698 -35.455 4.145 -1.164 19.29 -0.642 32.972 1.136 40.43 4.03 39.489 1.981 48.18 7.31 2.351 1.136 15.726 12.625 29.723 25.53 26.908 24.81 29.08 27.459 31.12 37.926 4.838 28.23 10.826 46.01 12.308 71.32 -9.595 22.521 -19.607 46.803 -31.607 68.08 -2.842 3.32 -10.278 8.257 -29.13 19.342 -38.605 22.7 -34.37 20.867 -47.897 20.733 -21.03 -2.28 -56.09 -2.14 -71 -9.448 -4.704 -2.528 -41.94 -35.609 -51.849 -46.06 -4.93 -5.2 -7.167 -10.411 -9.666 -22.507 -4.538 -12.243 -9.263 -40.976 -11.05 -50.825 -1.317 -5.684 -0.849 -12.324 3.072 -21.544 z" fill="#3d3925"/><use transform="translate(0 -7.455)" xlink:href="#0"/><use transform="matrix(0.64997 0 0 0.63697 19.293 -6.548)" xlink:href="#0"/><use transform="matrix(0.64997 0 0 0.63697 102.04 43.4)" xlink:href="#0"/><use transform="matrix(0.64997 0 0 0.63697 9.602 89.62)" xlink:href="#0"/><g fill="#a0b18a" stroke="#a0b18a" stroke-width="2.881"><path d="m 136.65 170.16 c -19.585 -9.869 -69.63 -37.547 -82.37 -45.553 -6.01 -3.776 -6.938 -4.669 -8.946 -8.596 -1.883 -3.683 -2.241 -5.246 -2.241 -9.8 0 -5.063 0.252 -5.908 3.85 -12.89 c 12.604 -24.462 18.14 -29.981 30.13 -30.06 c 6.369 -0.04 9.892 1.724 10.229 5.121 0.338 3.406 -1.282 4.248 -8.868 4.611 -6.488 0.31 -6.71 0.382 -9.293 3.02 -3.585 3.663 -8.815 11.671 -13.207 20.223 -3.176 6.183 -3.597 7.528 -3.319 10.592 0.423 4.669 3.1 8.06 9.795 12.411 2.93 1.904 22.05 13.526 42.49 25.826 36.01 21.673 44.549 27.439 43.39 29.31 -0.3 0.485 -0.777 0.875 -1.06 0.866 -0.283 -0.009 -5.04 -2.298 -10.579 -5.087 z"/><path d="m 78.997 123.33 c -1.796 -1.796 0.448 -3.396 27.459 -19.576 69.58 -41.682 66.963 -40.27 74.921 -40.28 10.925 -0.003 17.198 6.262 28.632 28.594 4.248 8.297 4.539 9.192 4.489 13.791 -0.061 5.654 -1.803 10.242 -5.476 14.426 -3.189 3.632 -4.942 4.116 -7.207 1.988 -2.43 -2.283 -2.276 -3.791 0.913 -8.957 2.487 -4.03 2.675 -4.72 2.253 -8.28 c -0.876 -7.394 -11.44 -25.62 -17.512 -30.21 -5.979 -4.521 -8.898 -3.543 -37.898 12.701 -25.603 14.341 -55.01 30.482 -61.4 33.699 c -4.904 2.47 -8.08 3.197 -9.173 2.101 z"/><path d="m 113.54 217.07 c -8.736 -1.718 -17.892 -10.684 -17.892 -17.521 0 -7.149 5.863 -7.503 8.98 -0.541 0.72 1.607 2.579 4.329 4.132 6.05 l 2.824 3.126 l 16.819 -0.246 c 24.422 -0.357 24.346 -0.293 25.398 -21.628 0.37 -7.511 1.026 -28.25 1.458 -46.08 1.053 -43.523 1.471 -51.44 2.716 -51.44 0.543 0 1.341 0.661 1.773 1.47 1.136 2.123 2.393 52.703 2.112 85.01 -0.229 26.395 -0.286 27.311 -1.898 30.565 -2.657 5.366 -9.186 9.776 -16.536 11.17 -4.402 0.835 -25.749 0.887 -29.886 0.074 z"/></g></svg>