<svg xmlns="http://www.w3.org/2000/svg" viewBox="0 0 256 256"><path d="m 193.83 817.84 c 225.34 191.12 -237.98 374.9 -190.37 79.31 10.438 -64.81 129.65 -130.81 190.37 -79.31 z" fill="#e6e6fa" color="#000" transform="translate(0 -796.36)"/><g transform="matrix(0.87072 0 0 0.82143 -24.563 3.678)"><path d="m 137.14 257.85 c -17.39 -5.556 -35.457 -25.812 -45.541 -51.06 -4.443 -11.123 -7.932 -25.589 -9.61 -39.842 -1.881 -15.972 -1.877 -23.276 0.018 -34.957 3.02 -18.635 7.867 -28.683 19.41 -40.25 8.119 -8.137 13.351 -11.62 23.909 -15.916 15.654 -6.371 44.15 -10.357 58.02 -8.117 33.28 5.37 70.784 31.488 84.53 58.86 4.04 8.05 5.915 17.486 5.163 26.01 -1.807 20.478 -10.901 39.17 -23.874 49.06 -6.442 4.912 -9.627 6.534 -17.09 8.704 -10.474 3.045 -16.912 -0.898 -20.01 -12.256 -3.504 -12.831 -4.699 -16.15 -6.759 -18.769 -2.149 -2.732 -2.187 -2.739 -12.236 -2.244 -24.604 1.21 -31.2 12.603 -20.646 35.667 4.997 10.922 5.59 14.316 3.738 21.406 -3.173 12.15 -10.595 20.339 -21.486 23.702 -7.773 2.401 -10.02 2.401 -17.531 0.001 z m 13.1 -20.02 c 11.7 -7.133 8.149 -24.25 -5.346 -25.768 -9.253 -1.043 -16.07 5.616 -15.18 14.837 0.989 10.293 11.976 16.14 20.526 10.931 z" fill="#a9a9a9"/><path d="m 107.4 188.44 c -2.501 -0.727 -6.895 -5.099 -8.54 -8.496 -2.367 -4.89 -1.125 -10.489 3.313 -14.926 4.174 -4.174 10.447 -5.523 15.333 -3.298 2.742 1.249 6.56 5.247 7.765 8.13 4.221 10.1 -6.981 21.756 -17.871 18.59 z" fill="#f0dd1e"/><g transform="translate(42.688 20.751)"><path d="m 65.722 118.18 c -10.08 -5.098 -10.05 -19.788 0.042 -24.818 5.448 -2.715 11 -1.816 15.478 2.505 3.284 3.169 4.545 5.959 4.545 10.05 0 10.06 -11.05 16.819 -20.06 12.26 z" fill="#1f2dbc"/><path d="m 105.8 86.87 c -7.526 -2.808 -11.403 -11.507 -8.227 -18.459 c 1.372 -3 5.727 -7.03 8.644 -7.994 5.876 -1.939 13.711 1.461 16.704 7.249 3.276 6.336 0.177 15.171 -6.544 18.656 -2.442 1.266 -7.895 1.549 -10.577 0.548 z" fill="#f00"/><path d="m 150.41 86.34 c -1.141 -0.379 -3.283 -1.899 -4.759 -3.379 -6.768 -6.784 -4.904 -17.07 3.828 -21.14 5.04 -2.348 10.334 -1.637 14.526 1.951 3.112 2.663 4.404 6.159 4.091 11.07 -0.29 4.55 -2.165 7.82 -5.902 10.293 -2.786 1.844 -8.196 2.398 -11.784 1.208 z" fill="#406f1e"/><path d="m 187.29 114.61 c -3.183 -1.586 -4.409 -2.929 -6.565 -7.188 -2.316 -4.577 -1.197 -9.741 3.099 -14.305 2.732 -2.902 5.732 -4.246 9.474 -4.246 5.726 0 10.238 2.852 12.626 7.98 5.538 11.892 -6.804 23.655 -18.634 17.76 z" fill="#d45f1e"/><path d="m 192.42 161.01 c -6.454 -2.411 -11.227 -10.02 -9.925 -15.814 0.754 -3.357 1.823 -5.271 4.181 -7.49 3.337 -3.14 5.664 -4.045 10.363 -4.03 5.901 0.016 9.185 2.028 11.914 7.299 3.01 5.824 2.258 11.681 -2.103 16.286 -3.516 3.713 -10.01 5.402 -14.43 3.751 z" fill="#020000"/></g></g></svg>