<svg xmlns="http://www.w3.org/2000/svg" viewBox="0 0 256 256"><path d="m 3.25 953.66 c 49.981 239.91 393.86 -17.642 187.29 -139.59 -80.25 -52.27 -213 16.2 -187.29 139.59 z" fill="#332f2b" color="#000" transform="translate(0 -796.36)"/><path d="m 110.68 202.25 c -2.628 -2.15 -7.295 -5.541 -10.371 -7.537 -4.952 -3.212 -5.593 -4.11 -5.593 -7.829 0 -3.769 0.698 -4.701 6.794 -9.07 10.588 -7.589 11.248 -8.98 11.167 -23.507 -0.038 -6.81 -0.066 -15.07 -0.436 -15.697 -0.37 -0.628 -2.615 2.256 -4.616 3.751 -2.663 1.99 -5.654 2.829 -11.155 3.128 -8.966 0.488 -17.863 -2.02 -21.01 -6.439 -2.886 -4.057 -6.462 -16.546 0.229 -25.934 3.81 -5.347 2.99 -4.624 -0.995 -12.241 -2.035 -3.891 -3.588 -9.639 -3.978 -11.247 -1.834 -7.562 4.359 -13.788 9.239 -17.498 6.109 -4.645 13.495 -3.673 24.304 1.093 11.904 5.249 23.296 5.256 34.661 0.021 4.499 -2.072 10.03 -3.702 12.569 -3.702 6.33 0 13.701 1.465 17.943 9.97 3.692 7.401 6.829 11.285 -1.263 23.553 l -4.164 6.312 l 2.686 6.02 c 2.184 4.893 5.314 6.03 4.78 11.455 -1.299 13.204 -6.277 18.899 -21.08 18.899 -8.155 0 -11.637 -0.893 -13.533 -3.531 -4.321 -6.01 -6.69 -2.303 -6.69 12.212 0 10.663 1.313 16.1 7.596 20.534 7.598 5.357 12.841 10.796 12.841 13.319 0 2.5 -6.085 6.801 -18.08 12.779 -13.953 12.06 -11.23 9.228 -21.847 1.188 z m -12.704 -67.43 c 7.103 -3.297 10.686 -5.239 9.219 -8.116 -1.414 -2.773 -14.15 -8.783 -18.19 -8.783 -6.179 0 -6.891 12.02 -1 16.879 3.667 3.03 3.498 3.03 9.976 0.019 z m 58.26 -0.671 c 1.287 -1.718 2.669 -4.207 3.069 -5.531 1.02 -3.371 -1.408 -8.865 -4.745 -10.74 -2.445 -1.373 -3.548 -1.213 -8.539 1.241 -7.522 3.697 -13.468 8.178 -11.822 10.917 1.668 2.776 12.852 7.161 16.61 7.203 2.369 -0.462 4.25 -1.564 5.426 -3.089 z m -21.796 -20.294 c 3.034 -2.107 4.654 -4.074 4.426 -5.373 -0.409 -2.329 -11.344 -10.144 -16.843 -11.02 -2.789 -0.444 -5.961 2.04 -11.483 5.509 -3.973 2.496 -7.05 5.112 -6.835 5.814 0.213 0.702 3.205 3.083 6.647 5.291 5.535 3.551 5.791 6.447 11.559 6.04 4.29 -0.546 9.651 -4.302 12.53 -6.264 z m 22.996 -16.05 c 2.83 -3.776 3.123 -10.382 0.579 -13.05 -3.912 -4.105 -11.779 -3.893 -18.645 0.502 -5.841 3.739 -5.091 6.127 3.745 11.916 7.177 4.702 11.141 4.877 14.321 0.634 z m -60.55 -0.491 c 2.973 -1.266 13.645 -5.682 10.842 -9.336 -4.425 -5.613 -17.434 -8.139 -20.945 -4.068 -2.57 2.98 -3.601 10.03 -1.942 13.287 1.644 3.223 4.074 3.247 12.05 0.117 z" fill="#fff"/></svg>