<svg xmlns="http://www.w3.org/2000/svg" viewBox="0 0 256 256"><path d="m 3.25 100.28 c 49.981 -237.51 393.86 17.466 187.29 138.19 -80.25 51.748 -213 -16.04 -187.29 -138.19 z" fill="#03a9f4" color="#000"/><g transform="matrix(1.45281 0 0 1.52273 -120.82 -336.69)" fill="#fff"><path d="m 115.75 298.81 c 0 -4.363 0.762 -8.243 1.913 -9.741 0.841 -1.094 1.147 -1.137 7.269 -1.031 6.983 0.121 10.371 0.467 11.446 1.167 1.364 0.889 -0.595 1.96 -4.581 2.505 -6.13 0.837 -6.871 1.013 -7.625 1.807 -1.639 1.727 0.391 2.914 5.954 3.48 1.713 0.174 3.828 0.556 4.699 0.849 1.404 0.471 1.568 0.713 1.438 2.125 -0.135 1.468 -0.316 1.62 -2.303 1.934 -1.186 0.188 -5.768 0.358 -10.183 0.379 -8.448 0.155 -7.938 0.89 -8.03 -3.473 z"/><path d="m 117.84 281.37 c 0.164 -1.133 0.456 -2.234 0.649 -2.447 0.51 -0.564 16.346 -0.476 17.714 0.098 1.274 0.535 2.089 1.864 2.089 3.407 0 0.983 -0.183 1 -10.375 1 h -10.375 l 0.298 -2.059 z"/><path d="m 88.52 82.03 c 0.314 -3.246 1.905 -3.625 16.678 -3.971 16.774 -0.393 38.886 0.22 41.36 1.147 1.783 0.669 3.074 2.617 2.268 3.423 -0.764 0.764 -14.377 1.23 -37.04 1.27 l -23.453 0.041 l 0.185 -1.91 z" transform="matrix(0.81346 0 0 0.82256 70.66 214.38)"/><path d="m 142.1 301.97 c -3.309 -0.376 -3.833 -0.652 -3.833 -2.02 0 -1.117 0.354 -1.409 2.516 -2.072 1.384 -0.425 5.272 -0.933 8.64 -1.129 4.403 -0.256 6.322 -0.576 6.828 -1.135 0.864 -0.955 0.891 -1.807 0.097 -3.01 -0.49 -0.74 -1.769 -1 -6.609 -1.348 -6.069 -0.435 -8.118 -1.053 -8.118 -2.448 0 -1.26 2.235 -1.585 10.302 -1.499 6.03 0.065 8.229 0.291 10.302 1.06 3.124 0.713 2.663 1.776 2.775 5.03 0.42 3.265 0.21 3.989 -1.935 5.933 -1.141 1.034 -3.036 2.125 -4.212 2.424 -1.987 0.506 -12.941 0.644 -16.753 0.21 z"/><path d="m 168.5 301.5 c -0.921 -0.751 -1.01 -1.251 -0.996 -5.689 0.013 -4.434 0.116 -5 1.16 -6.382 0.985 -1.304 1.636 -1.586 4.643 -2.01 1.924 -0.27 6.616 -0.337 10.428 -0.147 6.809 0.338 6.93 0.365 6.93 1.542 0 1.402 -0.415 1.515 -9.09 2.472 -3.124 0.345 -5.841 0.787 -6.04 0.982 -0.197 0.195 -0.73 2.174 -1.184 4.397 -0.455 2.223 -1.086 4.405 -1.402 4.849 -0.745 1.045 -3.162 1.036 -4.453 -0.017 z"/><path d="m 197.37 300.59 c -0.227 -0.604 -0.573 -3.685 -0.768 -6.847 l -0.355 -5.749 l 2.817 0.342 c 5.426 0.658 5.138 0.392 4.778 4.403 -0.45 5.02 -1.288 7.61 -2.7 8.332 -1.852 0.948 -3.304 0.762 -3.771 -0.482 z"/><path d="m 197.09 283.98 c -1.615 -0.205 -1.797 -0.398 -1.797 -1.899 0 -3.478 0.588 -3.656 11.229 -3.394 10.609 0.261 11.772 0.591 11.772 3.336 0 1.387 -0.242 1.713 -1.497 2.02 -1.567 0.381 -16.598 0.335 -19.706 -0.06 z"/><path d="m 211.79 300.94 c -0.206 -1.894 0.182 -9.839 0.55 -11.272 0.29 -1.129 0.647 -1.409 1.974 -1.55 0.891 -0.094 1.932 0.131 2.312 0.502 0.914 0.89 1.698 4.686 1.674 8.108 -0.025 3.628 -0.887 4.712 -4.01 5.04 -2.154 0.229 -2.392 0.149 -2.499 -0.832 z"/><path d="m 91.2 143.07 a 3.299 2.329 0 1 1 -6.598 0 3.299 2.329 0 1 1 6.598 0 z" transform="matrix(0.81346 0 0 1.16529 73.62 148.77)"/><path d="m 135.06 144.42 a 3.299 2.911 0 1 1 -6.598 0 3.299 2.911 0 1 1 6.598 0 z" transform="matrix(0.86131 0 0 0.97103 61.28 175.38)"/></g><g fill="#fff"><path d="m 44.23 176.91 c -4.874 -1.385 -8.146 -5.775 -8.672 -11.636 -0.547 -6.093 1.755 -11.03 6.339 -13.585 3.402 -1.899 9.612 -2.06 13.415 -0.348 3.053 1.374 6.318 5.436 5.329 6.628 -1.046 1.261 -2.731 0.924 -6.971 -1.395 -3.797 -2.076 -4.095 -2.144 -6.387 -1.458 -3.116 0.934 -4.819 3.33 -5.202 7.322 -0.394 4.101 0.815 7.422 3.321 9.126 2.828 1.923 4.713 1.686 8.342 -1.051 3.843 -2.897 5.707 -3.481 6.715 -2.101 1.08 1.477 0.432 2.995 -2.389 5.595 -3.656 3.37 -8.57 4.4 -13.84 2.902 z"/><path d="m 66.83 175.49 c -1.134 -1.731 -1.846 -14.169 -1.136 -19.852 0.621 -4.968 1.236 -5.505 5.421 -4.732 2.492 0.46 4.329 0.459 6.583 -0.006 3.487 -0.719 5.121 -0.168 5.121 1.728 0 0.772 -1.084 1.656 -3.534 2.881 -4.687 2.344 -5.821 4.449 -7.01 13.02 -0.5 3.597 -1.077 6.977 -1.282 7.511 -0.579 1.508 -3.02 1.186 -4.16 -0.548 z"/><path d="m 88.47 177.06 c -1.371 -0.66 -2.297 -6.508 -2.533 -16.01 -0.23 -9.225 0.21 -10.547 3.509 -10.547 3.208 0 3.463 0.866 3.458 11.752 -0.005 12.703 -1.113 16.403 -4.434 14.804 z"/><path d="m 105.79 176.5 c -2.648 -1.21 -7.08 -5.729 -8.01 -8.18 -0.73 -1.906 -0.196 -7.199 1.021 -10.125 1.336 -3.211 3.73 -5.973 6 -6.922 3.01 -1.26 10.141 -1.075 13.354 0.347 3.317 1.467 4.847 3.678 3.933 5.684 -0.363 0.797 -0.945 1.449 -1.294 1.449 -0.349 0 -2.383 -0.928 -4.519 -2.062 -2.137 -1.134 -4.737 -2.062 -5.778 -2.062 -6.207 0 -8.47 12.08 -3.185 16.999 2.485 2.315 4.856 1.695 11.06 -2.894 2.171 -1.605 4.43 -1.346 4.697 0.54 0.267 1.885 -5.355 7.386 -8.111 7.938 -3.347 0.669 -6.718 0.408 -9.168 -0.712 z"/><path d="m 129.49 174.8 c -1.681 -3.164 -1.681 -18.926 0 -22.09 0.897 -1.688 1.595 -2.209 2.958 -2.209 3.438 0 3.766 1.094 3.585 11.957 -0.199 11.904 -0.84 14.551 -3.523 14.551 -1.434 0 -2.107 -0.492 -3.02 -2.209 z"/><path d="m 141.96 176.97 c -1.131 -0.699 -1.472 -5.275 -1.217 -16.309 l 0.235 -10.161 h 9.376 c 10.966 0 13.01 0.539 14.367 3.79 1.979 4.735 2.522 19.833 0.79 21.921 -0.86 1.037 -3.131 1.022 -4 -0.026 -0.375 -0.452 -1.046 -4.097 -1.49 -8.1 -0.855 -7.706 -2.137 -11.95 -3.895 -12.891 -1.745 -0.934 -4.597 -0.655 -5.82 0.568 -1.516 1.516 -2.241 4.347 -3.02 11.803 -0.356 3.411 -0.913 6.904 -1.236 7.762 -0.606 1.607 -2.752 2.469 -4.09 1.642 z"/><path d="m 175.05 177.05 c -0.611 -0.387 -0.973 -2.657 -1.336 -8.385 -0.681 -10.748 -0.837 -11.427 -3.243 -14.09 l -2.11 -2.335 l 2.218 -1.917 c 1.257 -1.087 2.638 -3.053 3.187 -4.539 1.189 -3.218 4.366 -5.272 8.178 -5.286 3.803 -0.015 3.96 1.384 0.497 4.431 l -2.787 2.453 l 2.829 2.401 l 2.829 2.401 l -2.209 2.037 c -1.215 1.12 -2.224 2.134 -2.242 2.252 -0.018 0.118 -0.26 4.191 -0.537 9.05 -0.277 4.86 -0.674 9.264 -0.883 9.787 -0.208 0.523 -1.039 1.252 -1.846 1.62 -1.734 0.79 -1.504 0.779 -2.545 0.12 z"/><path d="m 196.75 177.04 c -2.439 -0.739 -4.527 -2.338 -6.427 -4.921 -1.713 -2.329 -1.769 -2.613 -1.769 -8.871 v -6.465 l 2.631 -2.521 c 5.245 -5.03 13.586 -5.707 19.08 -1.559 5.943 4.487 6.365 15.712 0.809 21.526 -2.625 2.746 -9.855 4.165 -14.325 2.81 z m 9.179 -5.475 c 3.745 -3.231 3.214 -14.155 -0.793 -16.299 -1.856 -0.993 -5.498 -0.746 -7.563 0.513 -4.26 2.598 -4.26 13.364 0 15.962 2.613 1.593 6.398 1.514 8.356 -0.176 z"/></g></svg>