<svg xmlns="http://www.w3.org/2000/svg" viewBox="0 0 256 256"><defs><clipPath><path transform="matrix(15.33333 0 0 11.5 415 -125.5)" d="m -24 13 c 0 1.105 -0.672 2 -1.5 2 -0.828 0 -1.5 -0.895 -1.5 -2 0 -1.105 0.672 -2 1.5 -2 0.828 0 1.5 0.895 1.5 2 z"/></clipPath></defs><path d="m 130.42 1050.99 c -26.397 -2.048 -57.29 -14.657 -78.83 -32.17 -26.2 -21.308 -45.35 -53.989 -50.5 -86.2 -6.136 -42.554 18.578 -88.29 46.47 -109.99 14.03 -10.568 32.581 -18.979 49.988 -22.658 45.3 -9.582 92.56 8.559 124.96 47.965 19.418 23.62 29.473 47.43 31.924 75.6 2.939 33.769 -10.415 69.981 -34.795 94.36 -27.743 22.988 -56.27 35.463 -89.22 33.11 z" fill="#3fb277" transform="translate(0 -796.36)"/><g fill="#fff"><path d="m 50.43 174.45 c -1.533 -1.121 -1.456 -1.22 1.317 -1.681 1.62 -0.269 6.72 -0.883 11.333 -1.364 10.963 -1.142 14.341 -2.938 17.632 -9.374 1.899 -3.713 2.452 -5.994 2.56 -10.556 l 0.138 -5.819 l -16.893 -0.969 c -19.574 -1.122 -22.86 -1.992 -29.26 -7.749 -5.559 -4.998 -7.436 -9.09 -7.46 -16.259 -0.036 -10.687 5.97 -18.227 17.543 -22.02 5.01 -1.645 7.937 -1.9 25.378 -2.215 10.842 -0.195 20.965 -0.12 22.496 0.167 l 2.784 0.522 l 0.627 29.25 c 0.616 28.734 0.595 29.31 -1.166 32.935 -2.457 5.058 -7.917 10.777 -12.185 12.765 -5.04 2.348 -13.21 3.564 -23.941 3.564 -6.646 0 -9.733 -0.337 -10.9 -1.191 z m 30.414 -35.452 c 1.769 -1.159 2.047 -2.179 2.6 -9.551 0.719 -9.59 -0.117 -26.444 -1.373 -27.696 -0.497 -0.495 -5.418 -0.854 -11.587 -0.846 -12.245 0.016 -13.78 0.536 -19.313 6.538 -4.246 4.606 -5.702 8.77 -5.101 14.59 0.918 8.894 6.207 15.349 14.952 18.246 3.398 1.126 17.544 0.211 19.822 -1.281 z"/><path d="m 110.58 143.36 c -1.431 -1.074 -1.547 -2.802 -1.534 -22.984 0.01 -14.933 0.312 -22.12 0.958 -22.765 0.646 -0.645 7.917 -0.942 23.07 -0.941 19.14 0.001 22.717 0.206 26.495 1.524 5.271 1.838 11.704 7.288 13.403 11.354 1.521 3.64 2.907 15.193 2.916 24.308 0.009 9.16 -0.967 10.535 -7.481 10.535 -7.714 0 -7.62 0.192 -8.474 -17.327 -0.491 -10.08 -1.169 -16.237 -2.01 -18.242 -1.647 -3.941 -5.676 -6.351 -12.458 -7.451 -6.792 -1.102 -17.713 -1.144 -19.406 -0.075 -1.047 0.661 -1.345 4.314 -1.718 21.06 -0.248 11.144 -0.738 20.548 -1.088 20.899 -1.243 1.243 -11.05 1.325 -12.678 0.106 z"/><path d="m 201.3 144.73 c -8.07 -2.169 -13.875 -7.213 -15.961 -13.862 -1.253 -3.992 -2.06 -32.835 -1.24 -44.31 l 0.662 -9.255 l 3.167 -0.656 c 3.862 -0.8 9.102 0.18 10.02 1.873 0.371 0.685 0.918 4.957 1.214 9.494 0.636 9.737 0.499 9.6 10.432 10.428 6.207 0.518 8.632 1.351 7.43 2.553 -0.233 0.233 -3.94 0.754 -8.237 1.157 -4.297 0.403 -8.09 1.175 -8.42 1.715 -1.146 1.854 -1.651 14.754 -0.883 22.55 1.102 11.191 3.257 13.707 12.824 14.979 2.144 0.285 4.614 1.065 5.49 1.734 1.382 1.056 1.425 1.328 0.325 2.064 -1.839 1.23 -11.507 0.961 -16.824 -0.468 z"/></g></svg>