<svg xmlns="http://www.w3.org/2000/svg" viewBox="0 0 256 256"><g color="#000" fill="#e2ae8e"><path d="m 19.797 180.53 c -115.45 -282.64 402.78 -200.23 171.77 49.41 -42.45 45.869 -135.3 34.542 -171.77 -49.41 z"/></g><g transform="matrix(0.97909 0 0 0.94001 3.453 12.233)"><path d="m 109.92 220.95 c -19.606 -20.17 -36.844 -50.54 -49.12 -81.57 -6.811 -19.274 -8.288 -21.876 -14.847 -42.663 -3.488 -13.96 -6.7 -29.592 -6.23 -30.32 c 0.709 -1.093 4.092 -0.797 8.765 0.768 5.574 1.866 23.457 2.682 30.373 1.386 3.242 -0.608 4.772 -0.637 5.333 -0.103 36.676 -25.16 42.29 -15.291 68.18 -2.679 14.871 6.777 28.71 5.681 41.98 1.272 4.322 -1.436 7.02 -1.687 7.651 -0.712 0.564 0.87 -2.614 27.585 -5.602 38.01 -6.858 15.396 -6.826 18.882 -10.34 26.848 0.398 3.253 -7.163 18.07 -14.299 32.3 -11.07 21.913 -22.95 40.694 -39.3 57.824 -7.07 7.209 -17.854 4.45 -22.539 -0.365 z" fill="#f1dfae"/><g fill="#d02028"><path d="m 111.54 225.37 c -13.11 -13.382 -29.03 -36.37 -34.01 -49.1 -6.387 -12.399 -17 -30.21 -19.16 -43.3 c 0 -1.781 3.251 1.811 5.594 6.425 3.967 9.02 8.393 18.603 12.375 26.437 8.934 17.388 18.851 31.918 23.809 38.509 4.261 5.124 6.558 12.02 12.315 15.777 1.686 1.058 3.2 1.789 3.365 1.625 0.165 -0.164 -1.35 -2.34 -3.368 -4.835 c -16.363 -20.233 -29.653 -41.978 -38.995 -63.807 -6.04 -14.12 -14.37 -37.632 -17.668 -49.886 -1.502 -5.582 -3.046 -11.182 -3.431 -12.444 c -0.385 -1.262 -1.649 -5.998 -2.809 -10.525 -1.16 -4.527 -2.266 -8.08 -2.457 -7.885 -0.191 0.19 0.065 3.894 0.57 8.231 0.505 4.337 3.768 20.498 3.617 23.02 -0.415 3.677 -0.443 4.878 -2.521 0.448 -1.548 -3.3 -8.01 -29.451 -9.808 -39.16 -1.232 -6.642 -0.691 -7.767 2.703 -5.616 1.994 1.263 14.618 2.797 23.17 2.815 6.305 0.013 11.169 -0.906 8.07 0.236 -1.043 0.384 -4.58 2.786 -5.215 3.02 -2.402 0.899 3.926 0.506 9.853 -0.612 10.543 -1.988 20.511 -6.855 29.11 -14.213 4.326 -3.7 5.077 -4.91 2.256 -3.632 -1.098 0.497 -1.305 0.477 -4.586 0.479 -4.807 0.004 5.172 -4.03 8.379 -8.112 3.207 -4.079 5.528 -8.123 6.15 -9.317 1.716 -3.298 4.138 -3.713 6.087 -1.043 0.879 1.204 3.329 4.208 5.444 6.676 8.611 10.05 13.282 9.49 12.11 10.246 -0.6 0.388 -6.824 0.795 -7.881 0.575 -1.594 -0.332 -1.194 0.289 2.331 3.627 7.05 6.671 16.411 14.699 25.393 15.222 l 10.92 -0.317 l -7.254 -4.425 c 5.275 -0.829 25.1 1.957 27.755 1.248 3.124 -0.698 6.888 -1.77 8.364 -2.383 1.476 -0.613 4.978 -1.385 5.138 -1.385 1.023 0 -5.447 27.1 -8.855 40.37 -4.07 15.847 -4.465 0.24 -1.85 -18.28 1.234 -8.738 1.163 -10.704 -0.213 -5.951 -0.457 1.579 -1.745 5.625 -2.862 8.99 -1.117 3.365 -2.323 8.138 -2.681 10.607 -0.358 2.469 -8.216 30.28 -9.124 30.26 -2.941 -0.04 -0.772 2.698 -4.298 -0.368 -2.166 -1.884 4.51 -21.533 0.954 -23.502 -12.197 -7.892 -41.547 -15.13 -52.34 -15.03 -7.463 0.063 -16.326 1.32 -18.304 2.597 -5.565 3.591 -14.283 7.285 -17.193 7.285 -4.305 0 -5.375 0.923 -8.08 6.972 -2.49 5.567 -4.3 7.599 -8.486 9.53 -4.102 1.892 -5.473 3.357 -5.473 5.845 0 3.513 1.246 5.03 7.461 9.06 6.511 4.226 9.811 4.819 12.201 2.194 1.01 -1.11 2.245 -1.533 4.158 -1.423 5.04 0.29 6.326 -0.049 8.374 -2.197 2.724 -2.858 12.467 -4.588 18.543 -3.292 2.177 0.464 5.066 0.849 6.42 0.856 1.354 0.006 2.975 0.334 3.603 0.729 0.959 0.603 0.82 1.056 -0.877 2.856 -2.406 2.552 -4.557 6.728 -6.418 12.464 -2.359 7.269 -4.04 9.942 -6.567 10.445 -1.401 0.279 -2.281 0.932 -2.284 1.696 -0.002 0.684 -1.041 1.829 -2.308 2.546 -3.061 1.732 -3.176 4.44 -0.187 4.416 6.03 -0.048 14.01 -7.124 18.224 -16.16 l 2.517 -5.402 l 7.17 -2.94 c 11.714 -4.804 19.217 -10.851 22.433 -18.08 1.756 -3.947 1.721 -3.951 9.01 0.889 7.189 4.77 10.841 8.3 10.821 10.459 -0.031 3.359 -2.801 8.216 -4.998 8.764 -2.836 0.708 -10.917 -0.154 -19.834 -2.115 l -7.541 -1.658 c -3.926 1.774 -7.701 4.147 -11.843 5.377 -3.628 1.032 -3.051 3.325 1.362 5.422 5.302 2.518 20.04 5.437 25.74 5.971 3.046 0.286 6.921 -19.977 13.932 -14.191 0.518 1.341 -10.472 27.644 -16.896 39.724 -7.833 14.73 -17.793 29.853 -27.1 41.14 -2.519 3.057 -4.395 5.743 -4.168 5.968 1.206 1.199 5.891 -3.437 10.963 -10.849 10.733 -15.685 17.418 -24.22 26.748 -42.616 2.925 -5.768 6.02 -13.98 7.887 -16.497 1.864 -2.517 4.508 -6.746 5.877 -9.397 1.368 -2.651 2.605 -4.294 2.748 -3.651 0.347 1.56 -5.848 16.182 -10.647 25.13 -2.118 3.949 -4.709 9.455 -5.758 12.236 -4.667 12.373 -20.352 35.827 -33.503 50.1 -2.827 4.086 -6.663 5.828 -10.925 8.07 -4.725 -1.542 -8.197 -4.855 -11.268 -7.989 z m 14.576 -22.285 c 2.137 -0.425 2.399 -0.731 1.995 -2.333 -0.974 -3.856 5.059 -8.491 7.954 -6.111 0.83 0.682 1.335 0.492 2.308 -0.868 0.685 -0.958 3.375 -3.939 5.978 -6.624 7.772 -8.02 9.699 -15.847 6.252 -25.404 -0.94 -2.606 -1.544 -4.902 -1.343 -5.102 0.201 -0.2 3.221 0.458 6.711 1.463 3.49 1 6.863 1.629 7.497 1.387 1.425 -0.544 1.521 -4.373 0.137 -5.515 -1.446 -1.193 -9.914 -3.01 -16.679 -3.584 -4.468 -0.377 -6.108 -0.234 -7.27 0.636 -1.433 1.073 -1.44 1.205 -0.17 2.934 6.286 8.56 7.429 11.433 7.436 18.69 0.006 6.315 -3.239 13.04 -6.15 12.757 -2.157 -0.213 -6.154 -4.394 -6.154 -6.437 0 -0.732 0.397 -2.198 0.882 -3.257 1.077 -2.349 0.261 -3.551 -3.671 -5.406 -2.376 -1.121 -2.879 -1.143 -4 -0.178 -0.707 0.607 -2.088 1.298 -3.069 1.536 -2.32 0.562 -6.294 -0.829 -6.294 -2.203 0 -1.397 -1.054 -1.354 -4.077 0.164 -4.778 2.4 -7.763 6.411 -4.77 6.411 1.573 0 1.517 4.091 -0.088 6.528 -0.683 1.037 -1.874 1.885 -2.647 1.885 -0.773 0 -1.633 0.366 -1.911 0.814 -0.769 1.238 0.232 5.38 1.996 8.255 1.471 2.398 1.667 2.486 2.948 1.334 2.955 -2.659 9.631 2.219 7.77 5.677 -0.693 1.287 -0.541 1.648 0.939 2.238 2.165 0.864 4.276 0.952 7.494 0.312 z m -7.569 -15.762 c -1.77 -4.704 -1.742 -4.9 1.076 -7.359 1.507 -1.315 3.079 -2.392 3.494 -2.392 0.415 0 1.989 1.126 3.499 2.501 2.925 2.211 2.724 2.556 1.444 5.736 -1.283 3.189 -1.355 3.234 -5.084 3.234 -3.217 0 -3.879 -0.257 -4.429 -1.721 z m -14.938 -26.614 c 1.665 -4.117 3.685 -7.574 5.566 -9.522 6.708 -6.95 12.437 -17.846 12.637 -24.03 0.096 -2.961 -0.11 -3.499 -1.342 -3.499 -1.749 0 -2.163 0.736 -4.299 7.648 -1.937 6.268 -7.616 16.282 -11.06 19.508 -9.483 8.872 -9.724 9.162 -9.683 11.671 0.04 2.469 0.042 2.47 1.248 0.751 1.779 -2.536 2.558 -2.109 2.558 1.402 0 4.689 1.404 3.431 4.378 -3.925 z m -15.917 -18.306 c 0 -1.117 -1.629 -7.78 -2.386 -9.762 -0.747 -1.955 -3.12 -2.272 -4.513 -0.603 -0.721 0.864 -0.729 1.733 -0.034 3.825 1.293 3.895 6.933 9.216 6.933 6.54 z m 15.511 -3.149 c -0.822 -1.429 -1.906 -3.889 -2.408 -5.466 -0.707 -2.22 -1.313 -2.868 -2.683 -2.868 -0.973 0 -2.19 0.504 -2.705 1.121 -1.301 1.558 1.794 7.03 5.308 9.381 3.339 2.236 4.46 1.259 2.488 -2.168 z m 26.06 -69.931 c 2.734 -6.663 1.23 -0.935 1.787 -0.382 1.306 1.299 1.838 0.972 4.37 -2.686 2.78 -4.02 2.552 -5.694 -0.774 -5.694 -2.606 0 -5.587 1.096 -1.425 2.23 1.326 0.361 0.637 1.854 -0.482 3.552 l -1.902 3.748 l -0.553 -3.482 c -0.358 -2.252 -2.719 -1.187 -3.123 -1.846 -0.387 -0.632 1.944 -1.663 1.136 -2.742 -1.411 -1.884 -2.497 -1.154 -4.02 1 -1.426 2.024 -1.562 5.28 -0.274 6.56 1.291 1.283 4.563 1.432 5.258 -0.262 z m -3.448 -1.814 c -0.248 -0.398 -0.122 -0.926 0.278 -1.172 0.401 -0.246 0.931 -0.122 1.179 0.277 0.248 0.398 0.122 0.926 -0.278 1.172 -0.401 0.246 -0.931 0.122 -1.179 -0.277 z m -14.777 1.044 c 0.245 -3.329 -0.11 -8.679 -1.402 -7.474 -1.592 1.483 -1.174 8.787 -0.106 8.438 0.472 -0.154 1.376 0.822 1.508 -0.964 z m 9.563 -1.269 c 2.425 -3.987 -1.472 -8.727 -4.87 -5.923 -1.448 1.194 -2.45 4.211 1.375 4.396 0.822 0.04 -0.179 2.374 -0.179 2.984 0 1.738 2.28 0.833 3.674 -1.457 z m -34.418 51.41 c -1.761 -0.011 -1.806 -0.101 -0.628 -1.272 1.088 -1.082 2.627 -2.352 4.651 -1.519 1.297 0.534 1.334 2.675 1.334 3.255 -1.347 1.958 -3.111 -0.423 -5.357 -0.463 z m 60.746 0.798 c 0 -0.396 0.351 -0.935 0.78 -1.199 3.046 -3.339 3.888 -8.07 3.587 -11.425 -0.239 -2.546 -0.668 -5.403 -0.952 -6.35 -0.717 -2.383 1.46 -2.297 3.928 0.156 1.555 1.546 2.912 2.428 2.912 5.951 0 5.02 -2.228 7.875 -6.01 11.177 -1.266 0.784 -4.167 3.403 -4.244 1.688 z m -42.06 -5.924 c -2.243 -0.639 -3.629 -2.303 -1.644 -3.334 0.979 -0.499 3.167 -2.233 4.862 -3.853 1.695 -1.62 3.945 -3.043 5 -3.161 1.604 -0.18 1.96 0.145 2.171 1.98 0.377 3.275 0.979 5.481 -0.946 6.692 -2.02 1.272 -7.081 2.143 -9.443 1.676 z m 2.729 -17.13 c -1.691 -0.468 -0.114 -1.212 1.125 -1.685 2.233 -0.853 5.118 -1.656 6.154 -0.415 0.807 0.967 1.695 2.979 0.157 2.914 -1 -0.042 -6.377 -0.521 -7.435 -0.814 z"/><path d="m 118.12 63.34 c 0 0.396 -0.321 0.718 -0.718 0.718 -0.396 0 -0.718 -0.321 -0.718 -0.718 0 -0.396 0.321 -0.718 0.718 -0.718 0.396 0 0.718 0.321 0.718 0.718 z"/></g></g></svg>