<svg xmlns="http://www.w3.org/2000/svg" viewBox="0 0 256 256"><g fill="#bc8f8f" color="#000"><path d="m 244.84 882.37 c 49.681 128.5 -89.55 194.42 -176.23 161.67 -60.5 -22.859 -90.65 -113.97 -47.683 -187.62 54.22 -92.93 185.6 -73.16 223.92 25.949 z" transform="matrix(-1 0 0 0.99153 256.01 -787.44)"/></g><g transform="matrix(3.2746 0 0 3.59874 -106.15 120.27)"><ellipse cx="71.784" cy="3.74" rx="20.282" ry="18.616" fill="#fff"/><path d="m 62.792 22.438 c -3.565 -1.378 -6.331 -3.317 -8.835 -6.193 -3.264 -3.749 -4.846 -7.96 -4.846 -12.897 0 -6.522 2.904 -12.11 8.424 -16.2 4.062 -3.01 8.625 -4.472 13.975 -4.472 7.07 0 13.12 2.68 17.553 7.775 3.991 4.824 5.629 10.799 4.529 16.689 -1.69 8.384 -8.954 15.11 -17.874 16.555 -4.402 0.839 -9.654 0 -12.927 -1.256 z m 20.959 -24.18 c 0.534 -1.341 2.289 -5.967 2.289 -6.03 -1.96 -0.106 -3.459 -0.07 -5.574 -0.07 c -1.968 5.681 -3.587 10.285 -5.49 15.776 l -4.117 -11.429 l -7.04 -0.049 l -7.04 -0.049 v 3.334 h 9.64 c 0.332 0.742 0.57 1.315 0.808 2.035 h -8.04 v 3.144 h 4.602 c 5.05 0 4.778 -0.062 5.094 1.156 l 0.132 0.509 h -12.433 v 3.144 h 13.778 c 0.559 1.56 1.184 3.256 1.701 4.624 h 5.545 c 2.01 -5.471 4.217 -11.199 6.147 -16.09" fill="#c3252b"/></g></svg>