<svg xmlns="http://www.w3.org/2000/svg" viewBox="0 0 256 256"><g color="#000"><path d="m 244.84 882.37 c 49.681 128.5 -89.55 194.42 -176.23 161.67 -60.5 -22.859 -90.65 -113.97 -47.683 -187.62 54.22 -92.93 185.6 -73.16 223.92 25.949 z" transform="translate(0 -796.36)" fill="#46951c" fill-opacity="0.996"/></g><path d="m 114.47 85.15 c -2.653 -0.976 -7.415 -7.954 -8.43 -11.08 -2.221 -6.826 6.693 -17.15 14.728 -18.15 3.544 -0.438 9.525 2.31 9.525 4.377 0 1.188 -0.003 1.188 -3.633 -0.096 -6.05 -2.14 -11.64 -1.245 -14.791 9.887 -1.227 4.334 1.914 12.1 2.223 9.651 0.089 -0.704 -0.555 -7.221 0.202 -9.56 3.73 -11.52 4.327 -5.417 5.211 -1.842 0.751 3.034 3.303 3.056 6.085 0.052 2.434 -2.628 7.494 -4.799 7.494 -3.214 0 0.544 -1.298 2.219 -2.885 3.722 -2.581 2.446 -2.785 3.02 -1.938 5.492 0.521 1.517 0.703 3.01 0.403 3.31 -1.26 1.278 -3.848 0.39 -5.268 -1.808 -2.175 -3.367 -4.508 -2.927 -7.283 1.371 -2.73 4.231 -2.234 5.26 3.054 6.333 2.641 0.536 5.696 -1.013 4.975 0.256 -1.186 2.087 -7.729 2.01 -9.674 1.291 z" fill="#bae263" transform="matrix(5.65671 0 0 5.24194 -549.88 -242.23)"/></svg>