<svg xmlns="http://www.w3.org/2000/svg" xmlns:xlink="http://www.w3.org/1999/xlink" viewBox="0 0 256 256"><defs><clipPath><circle r="36" cx="344" cy="92" fill="none"/></clipPath><clipPath><rect width="84" height="84" rx="6" x="6" y="6" fill="#fff"/></clipPath><clipPath><path d="m -7.03 52.33 c 0.08 0.3 0.096 1.542 -1.032 2.158 -0.841 0.459 -3.324 0.836 -5.03 -1.063 -1.766 -1.97 -0.597 -4.263 0.719 -5.414 0.685 -0.599 1.48 -0.841 1.77 -0.667 0.307 0.184 0.316 0.555 0.071 0.73 -0.589 0.419 -1.114 1.609 -0.532 2.434 0.687 0.974 1.855 0.571 2.46 0.496 0.5 -0.062 1.283 0.242 1.571 1.327 z"/></clipPath><clipPath><rect y="6" x="6" rx="6" height="84" width="84" fill="#fff"/></clipPath><clipPath id="0"><rect width="84" height="84" rx="6" x="6" y="6" fill="#fff"/></clipPath><clipPath><rect width="84" height="84" rx="6" x="6" y="6" fill="#fff"/></clipPath><clipPath><rect width="84" height="84" rx="6" x="6" y="6" fill="#fff"/></clipPath><clipPath><path d="m 448.51 0 l 156.34 -0.243 c 4.682 -0.007 8.451 -4.915 8.451 -11.02 v -56.894 c 0 -6.105 -3.769 -11.02 -8.451 -11.02 h -134.86 c -4.682 0 -41.33 10.325 -40.05 15.581 l 13.282 54.767 c 1.275 5.256 0.603 8.836 5.285 8.828 z"/></clipPath><clipPath><path transform="matrix(15.33333 0 0 11.5 415 -125.5)" d="m -24 13 c 0 1.105 -0.672 2 -1.5 2 -0.828 0 -1.5 -0.895 -1.5 -2 0 -1.105 0.672 -2 1.5 -2 0.828 0 1.5 0.895 1.5 2 z"/></clipPath><clipPath><path d="m 37.484 80.86 h 543.33 v 370.25 h -543.33 z"/></clipPath><clipPath><path d="m -1079.36 253.94 h 401.09 v 346.09 h -401.09 z"/></clipPath><clipPath><path d="m 241.4 87.72 c 1.022 3.84 1.233 19.768 -13.225 27.663 -10.776 5.884 -42.604 10.711 -64.43 -13.626 -22.638 -25.25 -7.646 -54.641 9.211 -69.39 8.776 -7.679 18.963 -10.785 22.682 -8.555 3.94 2.363 4.052 7.116 0.908 9.35 -7.552 5.367 -14.274 20.627 -6.814 31.2 8.807 12.477 23.779 7.323 31.527 6.358 6.402 -0.798 16.438 3.106 20.14 17 z"/></clipPath><clipPath><path d="m 0.624 42.632 h 618.24 v 447.92 h -618.24 z"/></clipPath><clipPath><path d="m -1078.46 254.84 h 401.1 v 346.09 h -401.1 z"/></clipPath><filter x="-0.192" y="-0.192" width="1.384" height="1.384" id="2" color-interpolation-filters="sRGB"><feGaussianBlur stdDeviation="5.28"/></filter><filter x="-0.3" y="-0.075" width="1.6" height="1.15" id="1" color-interpolation-filters="sRGB"><feGaussianBlur stdDeviation="2.32638"/></filter><linearGradient x2="99.36" x1="80.74" gradientUnits="userSpaceOnUse" id="I" xlink:href="#G"/><linearGradient y2="138.66" x2="0" y1="20.221" gradientUnits="userSpaceOnUse" id="H" xlink:href="#J"/><linearGradient id="G"><stop stop-color="#fff"/><stop offset="1" stop-color="#989898"/></linearGradient><linearGradient x2="88" x1="82" gradientTransform="matrix(2.06789 0 0 4.65275 66.27 -160.42)" gradientUnits="userSpaceOnUse" id="F" xlink:href="#C"/><linearGradient id="J"><stop stop-color="#fff"/><stop offset="1" stop-color="#fff" stop-opacity="0"/></linearGradient><linearGradient y2="77.75" x2="0" y1="108.81" gradientUnits="userSpaceOnUse" id="K" xlink:href="#8"/><linearGradient x2="88" x1="82" gradientTransform="matrix(2.06789 0 0 4.65275 66.27 -272.09)" gradientUnits="userSpaceOnUse" id="O" xlink:href="#C"/><linearGradient y2="106.34" x2="102.46" y1="103.24" x1="86.948" gradientUnits="userSpaceOnUse" id="E" xlink:href="#8"/><linearGradient y2="124.95" x2="0" y1="87.73" gradientUnits="userSpaceOnUse" id="N" xlink:href="#G"/><linearGradient x2="-38.1" x1="-236.62" gradientUnits="userSpaceOnUse" id="L"><stop stop-color="#808080"/><stop offset="1" stop-color="#d0d0d0"/></linearGradient><linearGradient y2="90.24" x2="0" y1="6.132" gradientTransform="matrix(3.17569 0 0 -3.13876 -9.652 292.67)" gradientUnits="userSpaceOnUse" id="M" xlink:href="#9"/><linearGradient y1="92.54" x2="0" y2="7.02" id="9" gradientUnits="userSpaceOnUse" gradientTransform="matrix(1.0059 0 0 0.99417 100 0)"><stop/><stop offset="1" stop-opacity="0.588"/></linearGradient><linearGradient id="6"><stop/><stop offset="1" stop-opacity="0"/></linearGradient><linearGradient y2="31.894" x2="0" y1="242.82" gradientUnits="userSpaceOnUse" id="7" xlink:href="#6"/><linearGradient x2="-31.894" x1="-242.82" gradientUnits="userSpaceOnUse" id="5" xlink:href="#6"/><linearGradient y2="-9.441" x2="0" y1="-270.33" gradientUnits="userSpaceOnUse" id="3" xlink:href="#9"/><linearGradient y2="149.76" x2="105.56" y1="150.88" x1="80.74" gradientUnits="userSpaceOnUse" id="D" xlink:href="#J"/><linearGradient y2="7.04" x2="0" y1="267.63" gradientUnits="userSpaceOnUse" id="4"><stop stop-color="#b9b9b9"/><stop offset="1" stop-color="#dedede"/></linearGradient><linearGradient y2="186.65" x2="0" y1="7.08" gradientUnits="userSpaceOnUse" id="B" xlink:href="#J"/><linearGradient id="C"><stop stop-color="#dadada"/><stop offset="0.391" stop-color="#fff"/><stop offset="1" stop-color="#b9b9b9"/></linearGradient><linearGradient y2="311.67" x2="0" y1="34.996" gradientUnits="userSpaceOnUse" id="A" xlink:href="#J"/><linearGradient id="8"><stop stop-color="#e4e4e4"/><stop offset="1" stop-color="#989898"/></linearGradient><radialGradient r="42" cy="90.17" cx="48" gradientTransform="matrix(3.58979 0 0 3.08914 -29.529 -10.92)" gradientUnits="userSpaceOnUse" id="S" xlink:href="#J"/><radialGradient r="9.306" cy="152.87" cx="158.29" gradientUnits="userSpaceOnUse" id="T" xlink:href="#J"/><radialGradient xlink:href="#J" id="U" gradientUnits="userSpaceOnUse" cx="158.29" cy="171.48" r="9.306"/><radialGradient r="9.306" cy="152.87" cx="183.11" gradientUnits="userSpaceOnUse" id="Q" xlink:href="#J"/><radialGradient r="9.306" cy="171.48" cx="183.11" gradientUnits="userSpaceOnUse" id="V" xlink:href="#J"/><radialGradient r="9.306" cy="134.26" cx="158.29" gradientUnits="userSpaceOnUse" id="P" xlink:href="#J"/><radialGradient r="9.306" cy="134.26" cx="183.11" gradientUnits="userSpaceOnUse" id="R" xlink:href="#J"/></defs><path d="m 27.14 199.54 c -126.21 -192.19 276.27 -298.27 222.99 -55.36 -22.706 100.37 -165.11 157.99 -222.99 55.36 z" fill="#dcdcdc" color="#000"/><g transform="matrix(0.48298 0 0 0.47473 61.731 67.4)"><g fill="url(#M)"><path d="m 31.12 283.24 c -17.09 0 -31.12 -14.02 -31.12 -31.12 v -220.23 c 0 -17.09 14.02 -31.12 31.12 -31.12 h 223.33 c 17.09 0 31.12 14.02 31.12 31.12 v 220.23 c 0 17.09 -14.02 31.12 -31.12 31.12 h -223.33 z" opacity="0.08"/><path d="m 31.12 276.94 c -13.676 0 -24.815 -11.138 -24.815 -24.815 v -220.23 c 0 -13.676 11.138 -24.815 24.815 -24.815 h 223.33 c 13.676 0 24.815 11.138 24.815 24.815 v 220.23 c 0 13.676 -11.138 24.815 -24.815 24.815 h -223.33 z" opacity="0.2"/></g><rect transform="scale(1 -1)" y="-270.74" x="12.504" rx="18.611" height="260.55" width="260.55" opacity="0.45" fill="url(#3)"/><rect y="7.08" x="12.504" rx="18.611" height="260.55" width="260.55" fill="url(#4)"/><path d="m 31.12 7.08 c -10.311 0 -18.611 8.301 -18.611 18.611 v 6.204 v 210.92 v 6.204 c 0 1.038 0.128 2.02 0.291 3 0.151 0.917 0.301 1.852 0.582 2.714 0.031 0.094 0.065 0.197 0.097 0.291 0.307 0.893 0.729 1.698 1.163 2.52 0.448 0.848 0.979 1.661 1.551 2.423 0.572 0.762 1.159 1.469 1.842 2.133 1.365 1.328 2.925 2.527 4.653 3.393 0.864 0.433 1.779 0.766 2.714 1.066 -0.795 -0.311 -1.51 -0.733 -2.229 -1.163 -0.023 -0.014 -0.074 0.014 -0.097 0 -0.099 -0.06 -0.193 -0.132 -0.291 -0.194 -0.373 -0.238 -0.717 -0.507 -1.066 -0.775 -0.329 -0.251 -0.662 -0.5 -0.969 -0.775 -0.552 -0.501 -1.078 -1.071 -1.551 -1.648 -0.334 -0.404 -0.677 -0.823 -0.969 -1.26 -0.078 -0.119 -0.119 -0.266 -0.194 -0.388 -0.201 -0.32 -0.404 -0.634 -0.582 -0.969 -0.313 -0.604 -0.638 -1.289 -0.872 -1.939 -0.025 -0.068 -0.073 -0.126 -0.097 -0.194 -0.099 -0.285 -0.111 -0.58 -0.194 -0.872 -0.094 -0.331 -0.218 -0.63 -0.291 -0.969 -0.226 -1.059 -0.388 -2.166 -0.388 -3.296 v -6.204 v -210.92 v -6.204 c 0 -8.629 6.88 -15.509 15.509 -15.509 h 6.204 h 210.92 h 6.204 c 8.629 0 15.509 6.88 15.509 15.509 v 6.204 v 210.92 v 6.204 c 0 1.13 -0.162 2.236 -0.388 3.296 -0.137 0.642 -0.274 1.233 -0.485 1.842 -0.024 0.068 -0.072 0.126 -0.097 0.194 -0.195 0.539 -0.429 1.14 -0.679 1.648 -0.129 0.257 -0.245 0.527 -0.388 0.775 -0.169 0.302 -0.393 0.584 -0.582 0.872 -0.292 0.437 -0.636 0.856 -0.969 1.26 -0.444 0.541 -0.94 1.076 -1.454 1.551 -0.035 0.032 -0.062 0.066 -0.097 0.097 -0.429 0.389 -0.884 0.727 -1.357 1.066 -0.318 0.227 -0.634 0.476 -0.969 0.679 -0.023 0.014 -0.074 -0.014 -0.097 0 -0.72 0.43 -1.435 0.852 -2.229 1.163 0.935 -0.3 1.85 -0.633 2.714 -1.066 1.728 -0.866 3.288 -2.065 4.653 -3.393 0.682 -0.664 1.27 -1.371 1.842 -2.133 0.572 -0.762 1.102 -1.575 1.551 -2.423 0.435 -0.822 0.857 -1.628 1.163 -2.52 0.032 -0.095 0.066 -0.195 0.097 -0.291 0.281 -0.863 0.431 -1.797 0.582 -2.714 0.163 -0.987 0.291 -1.967 0.291 -3 v -6.204 v -210.92 v -6.204 c 0 -10.311 -8.301 -18.611 -18.611 -18.611 h -223.33 z" opacity="0.5" fill="url(#B)"/><path d="m 31.12 267.63 c -10.311 0 -18.611 -8.301 -18.611 -18.611 v -6.204 v -210.92 v -6.204 c 0 -1.038 0.128 -2.02 0.291 -3 0.151 -0.917 0.301 -1.852 0.582 -2.714 0.031 -0.094 0.065 -0.197 0.097 -0.291 0.307 -0.893 0.729 -1.698 1.163 -2.52 0.448 -0.848 0.979 -1.661 1.551 -2.423 0.572 -0.762 1.159 -1.469 1.842 -2.133 1.365 -1.328 2.925 -2.527 4.653 -3.393 0.864 -0.433 1.779 -0.766 2.714 -1.066 -0.795 0.311 -1.51 0.733 -2.229 1.163 -0.023 0.014 -0.074 -0.014 -0.097 0 -0.099 0.06 -0.193 0.132 -0.291 0.194 -0.373 0.238 -0.717 0.507 -1.066 0.775 -0.329 0.251 -0.662 0.5 -0.969 0.775 -0.552 0.501 -1.078 1.071 -1.551 1.648 -0.334 0.404 -0.677 0.823 -0.969 1.26 -0.078 0.119 -0.119 0.266 -0.194 0.388 -0.201 0.32 -0.404 0.634 -0.582 0.969 -0.313 0.604 -0.638 1.289 -0.872 1.939 -0.025 0.068 -0.073 0.126 -0.097 0.194 -0.099 0.285 -0.111 0.58 -0.194 0.872 -0.094 0.331 -0.218 0.63 -0.291 0.969 -0.226 1.059 -0.388 2.166 -0.388 3.296 v 6.204 v 210.92 v 6.204 c 0 8.629 6.88 15.509 15.509 15.509 h 6.204 h 210.92 h 6.204 c 8.629 0 15.509 -6.88 15.509 -15.509 v -6.204 v -210.92 v -6.204 c 0 -1.13 -0.162 -2.236 -0.388 -3.296 -0.137 -0.642 -0.274 -1.233 -0.485 -1.842 -0.024 -0.068 -0.072 -0.126 -0.097 -0.194 -0.195 -0.539 -0.429 -1.14 -0.679 -1.648 -0.129 -0.257 -0.245 -0.527 -0.388 -0.775 -0.169 -0.302 -0.393 -0.584 -0.582 -0.872 -0.292 -0.437 -0.636 -0.856 -0.969 -1.26 -0.444 -0.541 -0.94 -1.076 -1.454 -1.551 -0.035 -0.032 -0.062 -0.066 -0.097 -0.097 -0.429 -0.389 -0.884 -0.727 -1.357 -1.066 -0.318 -0.227 -0.634 -0.476 -0.969 -0.679 -0.023 -0.014 -0.074 0.014 -0.097 0 -0.72 -0.43 -1.435 -0.852 -2.229 -1.163 0.935 0.3 1.85 0.633 2.714 1.066 1.728 0.866 3.288 2.065 4.653 3.393 0.682 0.664 1.27 1.371 1.842 2.133 0.572 0.762 1.102 1.575 1.551 2.423 0.435 0.822 0.857 1.628 1.163 2.52 0.032 0.095 0.066 0.195 0.097 0.291 0.281 0.863 0.431 1.797 0.582 2.714 0.163 0.987 0.291 1.967 0.291 3 v 6.204 v 210.92 v 6.204 c 0 10.311 -8.301 18.611 -18.611 18.611 h -223.33 z" opacity="0.25" fill="url(#S)"/><path d="m 34.22 233.51 c 0 6.837 5.57 12.407 12.407 12.407 h 192.31 c 6.837 0 12.407 -5.57 12.407 -12.407 v -186.11 c 0 -6.837 -5.57 -12.407 -12.407 -12.407 h -192.31 c -6.837 0 -12.407 5.57 -12.407 12.407 v 186.11 z" opacity="0.1" fill="url(#7)"/><rect transform="matrix(0 -1 1 0 0 0)" y="37.32" x="-242.82" rx="9.306" height="210.92" width="204.72" opacity="0.2" fill="url(#5)"/><g transform="matrix(0 -1 1 0 0 0)"><rect y="40.42" x="-239.72" rx="6.204" height="204.72" width="204.72"/><path d="m -236.62 43.523 h 198.52 v 198.52 h -198.52 z" fill="url(#L)"/></g><rect y="59.811" x="232.73" rx="6.204" height="43.43" width="18.611"/><path d="m 43.523 38.1 v 198.52 h 198.52 v -198.52 h -198.52 z m 6.204 6.204 h 186.11 v 186.11 h -186.11 v -186.11 z" opacity="0.5" fill="url(#A)"/><rect y="62.913" x="235.84" rx="3.102" height="37.22" width="12.407" fill="url(#O)"/><rect y="171.48" x="232.73" rx="6.204" height="43.43" width="18.611"/><rect y="174.58" x="235.84" rx="3.102" height="37.22" width="12.407" fill="url(#F)"/><path d="m 235.84 81.52 h 12.408 v 3.102 h -12.408 z" opacity="0.2"/><path d="m 235.84 193.19 h 12.408 v 3.102 h -12.408 z" opacity="0.2"/><g fill="#fff"><path d="m 238.94 62.913 c -1.718 0 -3.102 1.383 -3.102 3.102 v 3.102 c 0 -1.718 1.383 -3.102 3.102 -3.102 h 6.204 c 1.718 0 3.102 1.383 3.102 3.102 v -3.102 c 0 -1.718 -1.383 -3.102 -3.102 -3.102 h -6.204 z"/><path d="m 238.94 174.58 c -1.718 0 -3.102 1.383 -3.102 3.102 v 3.102 c 0 -1.718 1.383 -3.102 3.102 -3.102 h 6.204 c 1.718 0 3.102 1.383 3.102 3.102 v -3.102 c 0 -1.718 -1.383 -3.102 -3.102 -3.102 h -6.204 z"/></g><rect y="15" x="15" rx="12" height="66" width="66" transform="matrix(3.10184 0 0 3.10184 -6.107 -11.531)" opacity="0.1" fill="url(#H)" filter="url(#2)" stroke="#fff" stroke-linecap="round" stroke-width="0.5" clip-path="url(#0)"/><rect y="118.75" x="93.15" rx="3.102" height="74.44" width="18.611" opacity="0.1" filter="url(#1)" stroke-width="3.102"/><path d="m 90.05 128.05 a 21.713 21.713 0 0 0 0 -43.43 21.713 21.713 0 1 0 0 43.43 z"/><path d="m 90.05 128.05 a 18.611 18.611 0 0 0 0 -37.22 18.611 18.611 0 1 0 0 37.22 z" opacity="0.4"/><rect y="78.42" x="133.48" rx="6.204" height="31.02" width="74.44" fill="url(#K)"/><rect y="83.07" x="138.13" rx="3.102" height="21.713" width="65.14" stroke-width="3.102" stroke="#000" fill="#fff"/><rect transform="scale(1 -1)" y="-131.15" x="136.58" rx="1.551" height="12.407" width="18.611"/><path d="m 136.58 129.6 v 3.102 c 0 0.859 0.692 1.551 1.551 1.551 h 15.509 c 0.859 0 1.551 -0.692 1.551 -1.551 v -3.102 c 0 0.859 -0.692 1.551 -1.551 1.551 h -15.509 c -0.859 0 -1.551 -0.692 -1.551 -1.551 z" opacity="0.2"/><g fill="#000"><rect transform="scale(1 -1)" y="-131.15" x="161.39" rx="1.551" height="12.407" width="18.611"/><path d="m 161.39 129.6 v 3.102 c 0 0.859 0.692 1.551 1.551 1.551 h 15.509 c 0.859 0 1.551 -0.692 1.551 -1.551 v -3.102 c 0 0.859 -0.692 1.551 -1.551 1.551 h -15.509 c -0.859 0 -1.551 -0.692 -1.551 -1.551 z" opacity="0.2"/><rect transform="scale(1 -1)" y="-131.15" x="186.21" rx="1.551" height="12.407" width="18.611"/><path d="m 186.21 129.6 v 3.102 c 0 0.859 0.692 1.551 1.551 1.551 h 15.509 c 0.859 0 1.551 -0.692 1.551 -1.551 v -3.102 c 0 0.859 -0.692 1.551 -1.551 1.551 h -15.509 c -0.859 0 -1.551 -0.692 -1.551 -1.551 z" opacity="0.2"/><rect transform="scale(1 -1)" y="-149.76" x="136.58" rx="1.551" height="12.407" width="18.611"/><path d="m 136.58 148.21 v 3.102 c 0 0.859 0.692 1.551 1.551 1.551 h 15.509 c 0.859 0 1.551 -0.692 1.551 -1.551 v -3.102 c 0 0.859 -0.692 1.551 -1.551 1.551 h -15.509 c -0.859 0 -1.551 -0.692 -1.551 -1.551 z" opacity="0.2"/><rect transform="scale(1 -1)" y="-149.76" x="161.39" rx="1.551" height="12.407" width="18.611"/><path d="m 161.39 148.21 v 3.102 c 0 0.859 0.692 1.551 1.551 1.551 h 15.509 c 0.859 0 1.551 -0.692 1.551 -1.551 v -3.102 c 0 0.859 -0.692 1.551 -1.551 1.551 h -15.509 c -0.859 0 -1.551 -0.692 -1.551 -1.551 z" opacity="0.2"/><rect transform="scale(1 -1)" y="-149.76" x="186.21" rx="1.551" height="12.407" width="18.611"/><path d="m 186.21 148.21 v 3.102 c 0 0.859 0.692 1.551 1.551 1.551 h 15.509 c 0.859 0 1.551 -0.692 1.551 -1.551 v -3.102 c 0 0.859 -0.692 1.551 -1.551 1.551 h -15.509 c -0.859 0 -1.551 -0.692 -1.551 -1.551 z" opacity="0.2"/><rect transform="scale(1 -1)" y="-168.38" x="136.58" rx="1.551" height="12.407" width="18.611"/><path d="m 136.58 166.82 v 3.102 c 0 0.859 0.692 1.551 1.551 1.551 h 15.509 c 0.859 0 1.551 -0.692 1.551 -1.551 v -3.102 c 0 0.859 -0.692 1.551 -1.551 1.551 h -15.509 c -0.859 0 -1.551 -0.692 -1.551 -1.551 z" opacity="0.2"/><rect transform="scale(1 -1)" y="-168.38" x="161.39" rx="1.551" height="12.407" width="18.611"/><path d="m 161.39 166.82 v 3.102 c 0 0.859 0.692 1.551 1.551 1.551 h 15.509 c 0.859 0 1.551 -0.692 1.551 -1.551 v -3.102 c 0 0.859 -0.692 1.551 -1.551 1.551 h -15.509 c -0.859 0 -1.551 -0.692 -1.551 -1.551 z" opacity="0.2"/><rect transform="scale(1 -1)" y="-168.38" x="186.21" rx="1.551" height="12.407" width="18.611"/><path d="m 186.21 166.82 v 3.102 c 0 0.859 0.692 1.551 1.551 1.551 h 15.509 c 0.859 0 1.551 -0.692 1.551 -1.551 v -3.102 c 0 0.859 -0.692 1.551 -1.551 1.551 h -15.509 c -0.859 0 -1.551 -0.692 -1.551 -1.551 z" opacity="0.2"/><rect transform="scale(1 -1)" y="-186.99" x="136.58" rx="1.551" height="12.407" width="18.611"/><path d="m 136.58 185.44 v 3.102 c 0 0.859 0.692 1.551 1.551 1.551 h 15.509 c 0.859 0 1.551 -0.692 1.551 -1.551 v -3.102 c 0 0.859 -0.692 1.551 -1.551 1.551 h -15.509 c -0.859 0 -1.551 -0.692 -1.551 -1.551 z" opacity="0.2"/><rect transform="scale(1 -1)" y="-186.99" x="161.39" rx="1.551" height="12.407" width="18.611"/><path d="m 161.39 185.44 v 3.102 c 0 0.859 0.692 1.551 1.551 1.551 h 15.509 c 0.859 0 1.551 -0.692 1.551 -1.551 v -3.102 c 0 0.859 -0.692 1.551 -1.551 1.551 h -15.509 c -0.859 0 -1.551 -0.692 -1.551 -1.551 z" opacity="0.2"/><rect transform="scale(1 -1)" y="-186.99" x="186.21" rx="1.551" height="12.407" width="18.611"/><path d="m 186.21 185.44 v 3.102 c 0 0.859 0.692 1.551 1.551 1.551 h 15.509 c 0.859 0 1.551 -0.692 1.551 -1.551 v -3.102 c 0 0.859 -0.692 1.551 -1.551 1.551 h -15.509 c -0.859 0 -1.551 -0.692 -1.551 -1.551 z" opacity="0.2"/></g><path d="m 90.05 124.95 a 18.611 18.611 0 0 0 0 -37.22 18.611 18.611 0 1 0 0 37.22 z" fill="url(#N)"/><g fill="#000"><path d="m 93.15 93.93 c -5.822 0 -10.682 3.994 -12.02 9.402 -1.961 0.285 -3.49 1.69 -3.49 3.49 v 79.68 c 0 2 1.877 3.586 4.168 3.586 h 3.102 h 13.377 h 3.102 c 2.291 0 4.168 -1.582 4.168 -3.586 v -79.68 c 0 -0.07 0.004 -0.125 0 -0.194 0.002 -0.097 0 -0.193 0 -0.291 0 -6.852 -5.555 -12.407 -12.407 -12.407 z" opacity="0.15"/><path d="m 81.81 103.24 c -0.235 0 -0.455 0.064 -0.679 0.097 -0.237 0.957 -0.388 1.974 -0.388 3 0 0.097 -0.002 0.194 0 0.291 -0.004 0.069 0 0.124 0 0.194 v 79.68 c 0 2 1.877 3.586 4.168 3.586 h 13.377 c 2.291 0 4.168 -1.582 4.168 -3.586 v -79.68 c 0 -2 -1.877 -3.587 -4.168 -3.587 h -16.478 z" opacity="0.4"/></g><rect y="112.54" x="80.74" rx="3.102" height="74.44" width="18.611" fill="url(#I)"/><path d="m 102.46 106.34 a 12.407 12.407 0 0 1 -24.815 0 12.407 12.407 0 1 1 24.815 0 z" fill="url(#E)"/><path d="m 80.939 114.77 c -0.089 0.29 -0.194 0.552 -0.194 0.872 v 68.24 c 0 1.718 1.383 3.102 3.102 3.102 h 12.407 c 1.718 0 3.102 -1.383 3.102 -3.102 v -68.24 c 0 -0.32 -0.105 -0.582 -0.194 -0.872 -0.842 0.911 -1.827 1.603 -2.908 2.229 v 65.33 c 0 0.859 -0.692 1.551 -1.551 1.551 h -9.306 c -0.859 0 -1.551 -0.692 -1.551 -1.551 v -65.33 c -1.081 -0.626 -2.066 -1.318 -2.908 -2.229 z" fill="url(#D)"/><path d="m 90.05 93.93 c -6.852 0 -12.407 5.555 -12.407 12.407 0 0.528 0.13 1.041 0.194 1.551 0.766 -6.117 5.889 -10.856 12.213 -10.856 6.325 0 11.447 4.739 12.213 10.856 0.064 -0.51 0.194 -1.023 0.194 -1.551 0 -6.852 -5.555 -12.407 -12.407 -12.407 z" opacity="0.2" fill="#000"/><path d="m 155.19 124.95 v 9.306 h -6.204 v 3.102 h 6.204 v 6.204 h 6.204 v -6.204 h 6.204 v -3.102 h -6.204 v -9.306 h -6.204 z" opacity="0.4" fill="url(#P)"/><path d="m 180 124.95 v 9.306 h -6.204 v 3.102 h 6.204 v 6.204 h 6.204 v -6.204 h 6.204 v -3.102 h -6.204 v -9.306 h -6.204 z" opacity="0.4" fill="url(#R)"/><path d="m 155.19 143.56 v 9.305 h -6.204 v 3.102 h 6.204 v 6.204 h 6.204 v -6.204 h 6.204 v -3.102 h -6.204 v -9.305 h -6.204 z" opacity="0.4" fill="url(#T)"/><path d="m 180 143.56 v 9.305 h -6.204 v 3.102 h 6.204 v 6.204 h 6.204 v -6.204 h 6.204 v -3.102 h -6.204 v -9.305 h -6.204 z" opacity="0.4" fill="url(#Q)"/><path d="m 155.19 162.17 v 9.305 h -6.204 v 3.102 h 6.204 v 6.204 h 6.204 v -6.204 h 6.204 v -3.102 h -6.204 v -9.305 h -6.204 z" opacity="0.4" fill="url(#U)"/><path d="m 180 162.17 v 9.305 h -6.204 v 3.102 h 6.204 v 6.204 h 6.204 v -6.204 h 6.204 v -3.102 h -6.204 v -9.305 h -6.204 z" opacity="0.4" fill="url(#V)"/><g fill="#000"><path d="m 234.91 81.17 h 14.622 v 4.636 h -14.622 z"/><path d="m 234.91 192.04 h 14.622 v 4.636 h -14.622 z"/></g><path d="m 135.07 112.06 a 1.864 1.952 0 1 1 -3.727 0 1.864 1.952 0 1 1 3.727 0 z" transform="matrix(2.07048 0 0 2.10646 -127.08 -141.98)" fill="#000" stroke="#000" stroke-width="2.136"/></g></svg>