<svg xmlns="http://www.w3.org/2000/svg" viewBox="0 0 256 256"><path d="m 3.25 953.66 c 49.981 239.91 393.86 -17.642 187.29 -139.59 -80.25 -52.27 -213 16.2 -187.29 139.59 z" fill="#c4c4c4" color="#000" transform="translate(0 -796.36)"/><g stroke="#c4c4c4"><path d="m 347.64 233.06 c -3.518 -0.3 -7.656 -1.126 -9.195 -1.834 -7.159 -0.883 -13.168 -5.499 -19.879 -5.597 -2.754 0 -3.36 0.366 -4.803 2.905 -1.31 2.305 -2.152 2.905 -4.077 2.905 -1.334 0 -2.989 -0.654 -3.677 -1.453 -3.368 -3.909 -6.987 -9.767 -7.707 -12.473 -0.5 -1.881 -2.726 -5.085 -5.917 -8.516 -6.841 -7.357 -6.935 -11.593 -0.255 -11.593 4.643 0 6.103 -3.314 4.259 -9.672 -1.578 -5.444 -1.396 -11.976 0.476 -17.09 1.127 -5.225 3.265 -10.394 5.253 -14.743 7.204 -14.249 20.291 -24.94 30.24 -31.702 26.16 -19.1 53.35 -22.38 85.25 -28.01 4.548 -1.438 60.31 -0.418 66.59 1.219 2.037 0.531 12.894 0.59 12.894 4.77 0 3.689 -10.959 4.758 -12.11 4.802 -14.05 1.138 -28.761 1.747 -42.18 5.212 -6.163 2.439 -26.21 2.115 -32.03 5.249 -1.539 0.859 -36.516 15.363 -39.12 15.942 -6.563 1.46 31.767 -7.716 44.14 -10.398 12.254 -0.4 25.979 -2.025 34.454 -1.764 10.646 -0.199 20.513 4.07 27.729 3.837 l 21.597 2.175 l -1.1 3.68 l -12.09 3.953 l -17.391 1.035 c -11.868 0.706 -19.04 1.522 -22.589 2.57 -2.859 0.844 -7.353 1.804 -9.989 2.134 -11.54 1.776 -20.909 6.172 -31.369 9.01 -8.168 2.066 -30.17 12.287 -38.603 17.936 -4.32 2.745 -8.982 5.693 -12.686 8.615 -2.36 1.87 -5.213 4.03 -6.34 4.807 -3.03 2.077 -3.6 3.632 -2.554 6.924 0.741 2.33 0.669 3.656 -0.372 6.911 -1.669 5.218 -3.907 7.309 -9.04 8.452 -7.04 1.568 -6.142 3.093 2.879 4.882 7.313 1.45 22.08 0.388 29.542 -2.127 7.408 -1.39 10.745 -3.418 16.787 -6.111 1.325 0 10.998 -6.969 14.972 -10.787 0.44 -0.422 3.138 -3.762 5.997 -7.422 4.134 -5.292 5.636 -6.658 7.342 -6.674 2.592 -0.025 2.934 0.956 2.993 8.597 0.39 5.802 -2.123 9.604 -4.359 14.625 -2.948 6.653 -5 10.122 -8.468 14.287 -14.11 15.361 -37.35 21.907 -55.48 20.538 z m 18.791 -9.147 c 3.298 -0.946 7.796 -2.484 9.995 -3.417 5.683 -1.842 11.502 -4.226 15.653 -7.66 11.181 -9.366 22.583 -27.882 17.17 -27.882 -0.544 0 -2.73 2.254 -4.859 5.01 -3.965 5.132 -15.507 14.399 -19.919 15.993 -6.177 4.134 -14.714 4.04 -20.04 6.653 -2.946 1.573 -4.522 1.702 -19.99 1.626 -15.583 -0.076 -17.16 -0.224 -21.976 -2.055 -3.681 -1.401 -5.536 -2.627 -6.397 -4.227 -1.133 -2.106 -1.071 -2.542 0.93 -6.609 1.407 -2.492 1.914 -6.355 4.601 -7.26 5.132 -1.519 -0.835 -12.1 11.718 -11.621 0.316 0 2.463 -1.774 4.771 -3.943 6.997 -6.575 35.14 -25.885 37.782 -25.925 8.103 -5.687 23.579 -8.785 30.21 -12.853 9.812 -4.185 21.11 -3.877 31.515 -7.093 1.539 -0.507 7.476 -1.246 13.193 -1.642 10.346 -0.718 13.193 -1.257 13.193 -2.5 0 -1.24 -2.822 -1.764 -12.11 -2.249 -5.819 -0.304 -11.11 -0.123 -14.06 0.48 -15.11 3.388 -31.613 2.01 -46.46 6.736 -9.663 4.194 -31.669 7.616 -38.27 12.446 -2.117 1.54 -4.724 2.23 -6.492 3.754 -2.547 2.201 -5.165 2.603 -7.199 0 -6.561 -6.152 10.276 -10.586 13.231 -12.04 5.04 -4.907 12.805 -6.143 18.06 -9.991 7.535 -3.466 17.822 -10.445 24.779 -11.592 6.375 -4.138 13.914 -4.899 20.598 -6.681 7.578 -2.168 23.913 -4.678 34.949 -5.37 9.884 -0.62 14.412 -1.73 13 -3.188 -13.458 -0.41 -34.968 -1.697 -46.809 0.467 -30.14 3.489 -53.29 13.749 -78.29 24.733 -15.06 8.394 -31.54 27.585 -36.438 41.501 -2.249 6.823 -2.548 8.684 -2.229 13.855 0.215 3.473 0.904 6.82 1.646 7.996 2.565 4.065 1.677 12.903 -1.516 15.07 -2.54 1.728 -2.415 3.757 0.389 6.311 1.74 1.585 2.44 3.135 2.865 6.346 1.025 7.739 4.358 9.116 6.44 2.662 1.273 -3.946 3.693 -4.01 14.1 -0.398 5.62 2.632 12.424 2.558 17.868 4.604 5.727 2.194 16.635 2.169 24.388 -0.055 z m -28.651 -27.546 c 3.193 -2.671 1.494 -7.789 -2.746 -7.789 -3.129 0 -6.607 2.313 -5.933 5.101 0.388 1.604 3.492 3.725 5.207 3.725 1.227 0 2.789 -0.467 3.471 -1.038 z" fill="#282828" fill-opacity="0.949" transform="matrix(0.92802 0 0 0.93312 -232.3 -19.218)"/></g></svg>