<svg xmlns="http://www.w3.org/2000/svg" viewBox="0 0 256 256"><defs><clipPath><path transform="matrix(15.33333 0 0 11.5 415 -125.5)" d="m -24 13 c 0 1.105 -0.672 2 -1.5 2 -0.828 0 -1.5 -0.895 -1.5 -2 0 -1.105 0.672 -2 1.5 -2 0.828 0 1.5 0.895 1.5 2 z"/></clipPath></defs><path d="m 130.42 1.393 c -26.397 2.048 -57.29 14.657 -78.83 32.17 -26.2 21.308 -45.35 53.989 -50.5 86.2 -6.136 42.554 18.578 88.29 46.47 109.99 14.03 10.568 32.581 18.979 49.988 22.658 45.3 9.582 92.56 -8.559 124.96 -47.965 19.418 -23.62 29.473 -47.43 31.924 -75.6 2.939 -33.769 -10.415 -69.981 -34.795 -94.36 -27.743 -22.988 -56.27 -35.463 -89.22 -33.11 z" fill="#ff2921"/><path d="m 228.54 432.66 c -15.802 -0.534 -16.752 -0.684 -22.461 -3.557 -4.568 -2.299 -6.174 -3.701 -6.875 -6 -1.303 -4.275 -5.476 -8.372 -9.682 -9.505 -6.31 -1.863 -10.252 -9.214 -9.256 -15.343 0.332 -1.737 -0.509 -4.377 -2.54 -7.976 -2.964 -5.252 -3.042 -5.734 -3.29 -20.411 l -0.254 -15.03 l 3.294 -5.133 c 3.138 -4.89 3.261 -5.44 2.601 -11.606 -0.61 -5.699 -0.385 -7.146 1.885 -12.1 1.418 -3.098 2.578 -6.758 2.578 -8.135 1.617 -8.567 8.105 -15.827 10.633 -23.558 1.172 -3.642 30.04 -32.577 33.32 -33.401 5.53 -1.658 9.736 -4.831 15.363 -6.296 2.795 0 12.587 -4.957 13.626 -6.897 2.55 -4.765 1.358 -7.383 -8.695 -19.09 -3.178 -3.701 -5.25 -7.06 -5.25 -8.516 0 -3.822 1.687 -10.751 4.296 -11.406 2.954 -0.741 8.778 7.393 14.941 16.41 8.05 11.77 10.679 14.316 15.985 15.454 7.02 1.507 9.518 1.305 11.777 -0.954 2.597 -2.597 2.573 -7.451 -0.066 -13.416 -1.136 -2.569 -2.478 -8.588 -2.982 -13.377 -0.815 -7.751 -0.715 -14.567 0.916 -16.793 4.089 -5.58 10.131 2.812 10.131 10.291 0.178 5.547 3.222 10.485 3.52 15.716 0.195 4.052 0.762 5.426 3.053 7.397 l 2.814 2.42 l 3.614 -4.239 c 1.988 -2.331 9.398 -20.979 10.39 -23.8 4.171 -11.864 12.06 -9.03 12.06 -0.128 0 5.03 -2.304 11.869 -6.372 15.739 -5.886 5.6 -7.16 20.502 -0.739 20.502 2.892 0 8.75 -13.583 10.114 -18.07 0.827 -2.722 7.162 -7.238 10.154 -7.238 1.18 0 2.744 0.722 3.477 1.604 1.118 1.348 1.058 2.08 -0.378 4.581 -2.893 5.04 -2.203 7.824 3.656 14.746 2.951 3.486 6.118 6.76 7.04 7.275 2.553 1.429 7.356 -0.055 11.254 -3.477 4.181 -3.671 8.04 -3.176 7.07 3.19 -0.513 3.38 -4.366 5.725 -8.05 9.252 -5.17 4.953 -11.418 11.126 -8.174 14.06 2.846 2.576 12.05 -1.476 18.825 -7.259 3.208 -2.737 6.926 -5.252 8.263 -5.587 3.162 -0.794 10.828 2.533 10.828 6.05 0 3.759 -8.74 8.407 -18.86 13.472 -14.292 7.153 -25.573 14.4 -25.56 20.745 0.012 5.919 18.212 20.14 27.336 22.909 3.208 0.972 9.608 6.213 10.632 8.01 4.068 7.122 -3.1 6.333 -6.289 7.307 -4.327 1.321 -13.716 -1.825 -18.703 -6.489 -5.781 -5.407 -9.608 -6.161 -11.807 -2.327 -2.931 5.109 -1 9.104 9.381 19.419 9.755 9.692 18.981 12.742 15.562 15.579 -0.862 0.715 1.704 7.385 -8.611 5.097 -4.079 -0.905 -10.738 -4.132 -14.359 -7.403 -4.225 -3.816 -8.08 -4.791 -9.887 -2.5 -0.542 0.688 -1.291 3.247 -1.664 5.688 -0.968 5.68 -3.974 10.193 -5.595 15.563 -2.26 6.02 -8.833 9.109 -10.525 15.614 -0.731 3.327 -8.886 11.634 -13.508 13.76 -1.943 0.894 -5.543 3.258 -8 5.255 -5.173 4.204 -21.02 11.958 -29.447 14.408 -3.19 0.927 -7.65 2.526 -9.91 3.552 -6.182 2.277 -13.196 1.864 -18.76 4.4 -2.942 1.37 -5.799 2.408 -6.349 2.307 -0.55 -0.101 -8.425 -0.434 -17.5 -0.74 z" fill="#2e0402" transform="matrix(0.60457 0 0 0.60227 -42.17 -61.955)"/></svg>