<svg xmlns="http://www.w3.org/2000/svg" viewBox="0 0 256 256"><g color="#000"><path d="m -1036.21 1968.79 c 102.23 72.72 251.73 -71.53 188.89 -178.76 -45.994 -91.69 -185.01 -65.25 -224.33 19.19 -30.774 52.1 -20.627 129.19 35.437 159.57 z" transform="matrix(1 0 0 0.99483 1088.39 -1722.21)" fill="#ffba00"/></g><g transform="matrix(0.87548 0 0 0.899 17.189 13.493)"><path d="m 53.28 152.3 c 0.268 -44.991 0.338 -46.786 2.06 -52.8 3.114 -10.875 7.702 -18.374 16.509 -26.984 6.336 -6.195 9.102 -8.259 14.746 -11 13.481 -6.56 13.443 -6.557 67.55 -6.557 h 47.678 v 42.2 c 0 24.334 -0.359 44.995 -0.847 48.806 -1.718 13.401 -7.945 25.676 -17.921 35.33 -6.566 6.352 -12.345 10.111 -20.488 13.329 -10.356 4.093 -12.426 4.233 -62.737 4.248 l -46.83 0.014 l 0.277 -46.574 z" fill="#fbdd02"/><path d="m 53.3 152.3 c 40.34 -97.08 23.733 -108.51 72.914 -27.562 c 1.392 1.945 -0.611 6.17 16.782 -35.403 7.435 -17.772 13.934 -33.477 14.862 -34.26 1.479 -1.255 3.83 -0.117 22.807 -0.117 h 21.16 v 42.2 c 0 24.334 -0.359 44.995 -0.847 48.806 -1.718 13.401 -7.945 25.676 -17.921 35.33 -6.566 6.352 -12.345 10.111 -20.488 13.329 -10.356 4.093 -12.426 4.233 -62.742 4.248 l -46.835 0.014 l 0.311 -46.574 z" fill="#fdaf04"/><path d="m 127.64 126.9 l 2.567 -1.713 c 44.889 -45.834 66.03 -47.975 70.19 20.84 -1.654 14.03 -7.1 25.356 -17.337 35.26 -6.566 6.352 -12.345 10.111 -20.488 13.329 -10.356 4.093 -12.426 4.233 -62.742 4.248 l -46.835 0.014 c 27.461 -113.68 12.99 -166.97 74.64 -71.975 z" fill="#a8339b"/><path d="m 127.64 126.9 l 2.567 -1.713 c 1.412 -0.942 17.724 -16.482 36.25 -34.532 l 33.682 -32.819 l 0.503 19.548 c 0.747 28.997 0.517 66.792 -0.437 71.841 -0.46 2.436 -1.294 4.842 -1.853 5.345 -0.777 0.7 -9.01 -2.343 -34.932 -12.917 -18.654 -7.608 -34.28 -13.856 -34.733 -13.886 -0.536 -0.035 -0.736 11.803 -0.579 34.455 0.131 18.98 -0.056 34.796 -0.415 35.15 -110.77 -2.102 -44.93 -132.21 -0.053 -70.47 z" fill="#f04c29"/><path d="m 53.3 152.43 c 51.17 -95.22 22.06 -114.44 74.44 -26.374 1.297 24.897 1.012 39.612 -0.047 71.31 -0.363 0.355 -17.32 0.899 -37.682 1.208 l -37.02 0.562 z" fill="#3b55ac"/><path d="m 53.3 151.84 c 0.347 -51.42 0.252 -50.46 6.213 -62.827 1.716 -3.56 4.59 -8.278 6.387 -10.485 5.561 -6.829 19.17 -17.715 28.18 -20.826 2.862 -0.988 3.183 0.653 3.957 2.066 0.463 0.846 6.714 15.407 13.891 32.358 7.177 16.951 16.779 33.32 16.07 34.471 l -0.275 0.445 l -35.829 35.06 c -19.706 19.283 -36.522 35.24 -37.37 35.455 -1.497 0.383 -1.531 -0.868 -1.228 -45.718 z" fill="#60d300"/><path d="m 54.05 128.58 c 26.05 0.433 49.869 -0.218 72.56 -1.149 0.62 0.577 -71.17 71.17 -72.815 71.59 -0.296 -19.702 -1.334 -24.41 0.258 -70.44 z" fill="#019763"/></g></svg>