<svg xmlns="http://www.w3.org/2000/svg" viewBox="0 0 256 256"><path d="m 157.29 252.75 c 239.91 -49.981 -17.642 -393.86 -139.59 -187.29 -52.27 80.25 16.2 213 139.59 187.29 z" fill="#0b73b2" color="#000"/><g transform="matrix(1.40167 0 0 1.33472 -45.938 -25.368)"><path d="m 127.13 179.76 c -14.219 -2.069 -28.3 -12.592 -34.909 -26.09 -6.902 -14.09 -6.475 -32.05 1.068 -44.815 1.629 -2.758 1.619 -3.069 -0.201 -6.449 -1.876 -3.483 -1.876 -3.619 -0.028 -7.05 1.927 -3.578 4.246 -4.424 6.353 -2.317 1.742 1.742 2.839 0.042 1.429 -2.215 -1.664 -2.665 -1.634 -2.74 2.038 -4.979 4.245 -2.588 5.985 -2.504 9.51 0.462 2.804 2.359 3.088 2.399 7.567 1.051 17.665 -5.316 36.06 -0.416 48.38 12.89 13.861 14.972 16.726 34.838 7.731 53.607 -8.73 18.216 -28.791 28.836 -48.933 25.905 z" fill="#51abd4"/><path d="m 123.5 174.07 c -14 -3.291 -25.716 -14.34 -30.589 -28.852 -2.802 -8.343 -2.296 -20.517 1.164 -28.01 1.966 -4.256 2.483 -4.815 3.02 -3.268 2.199 6.32 2.557 6.523 11.829 6.705 9.196 0.181 13.07 1.735 13.789 5.531 0.184 0.973 1.172 2.558 2.196 3.524 1.347 1.271 1.715 2.488 1.33 4.406 -0.494 2.466 -0.256 2.724 3.413 3.713 2.189 0.59 7.592 0.889 12.144 0.673 l 8.2 -0.39 l 4.628 -4.553 c 3.597 -3.538 4.511 -5.02 4.104 -6.637 -0.69 -2.746 2.313 -4.389 6.564 -3.593 2.954 0.553 3.222 0.39 4.141 -2.528 0.541 -1.716 1.144 -4.17 1.341 -5.453 0.323 -2.112 0.544 -1.935 2.325 1.867 10.08 21.521 -2.96 48.652 -26.968 56.11 -6.06 1.884 -16.347 2.223 -22.632 0.746 z m 18.04 -55.69 c 0 -0.452 -9.448 -7.142 -4.764 -10.138 l 3.14 -5.977 l 7.572 -0.874 l 1.654 10.459 c 0.436 2.755 -2.844 6.805 -5.03 7.06 -1.414 0.162 -2.571 -0.074 -2.571 -0.526 z m -39.32 -5.561 c -1.652 -1.388 -3.571 -3.88 -4.264 -5.538 -0.694 -1.658 -1.688 -3.278 -2.21 -3.6 -1.342 -0.828 -1.124 -5.301 0.352 -7.244 1.419 -1.867 3.456 -2.111 4.974 -0.595 0.572 0.571 1.498 0.757 2.057 0.412 1.291 -0.797 1.315 -3.58 0.042 -4.851 -1.236 -1.234 0.658 -2.907 4.555 -4.02 2.275 -0.651 3.146 -0.457 4.462 0.995 1.254 1.383 1.379 2.061 0.536 2.903 -1.784 1.782 -1.31 3.169 2.64 7.727 2.057 2.373 3.739 5.097 3.739 6.05 0 3.234 -8.902 10.285 -12.986 10.285 -0.491 0 -2.245 -1.136 -3.896 -2.524 z m 51.26 -0.51 c -2.267 -3.502 -2.727 -8.01 -1.134 -11.08 0.792 -1.53 1.18 -3.601 0.862 -4.602 -0.885 -2.785 1.613 -2.275 6.252 1.276 3.629 2.778 4.01 3.445 3.746 6.473 -0.165 1.857 0.121 4.162 0.636 5.122 1.429 2.666 -0.16 4.177 -4.796 4.563 -3.55 0.295 -4.417 0.022 -5.565 -1.751 z m -31.965 -10.815 c -0.605 -0.217 -3.379 -4.511 -4.729 -6.278 -2.27 -2.972 -5.843 -6.706 -4.155 -6.706 1.107 0 5.935 3.305 7.547 5.03 5.823 6.228 3.135 8.598 1.337 7.954 z" fill="#1474b3"/><path d="m 86.08 103.9 c -0.176 -0.481 -0.479 -2.243 -0.673 -3.916 -0.495 -4.258 -1.558 -4.277 -8.147 -0.147 -2.875 1.801 -5.597 3.193 -6.05 3.092 -0.628 -0.14 -0.036 -1.802 2.505 -7.03 1.83 -3.765 3.328 -7.197 3.328 -7.625 0 -1.099 -1.049 -1.409 -7.098 -2.095 -2.932 -0.333 -5.813 -0.755 -6.401 -0.94 -1.058 -0.332 -1.058 -0.345 0 -1.201 0.588 -0.476 3.135 -1.884 5.658 -3.127 l 4.588 -2.261 l -1.063 -1.585 c -1.854 -2.763 -3.473 -6.533 -3.087 -7.188 0.245 -0.416 1.576 -0.503 3.888 -0.254 3.452 0.371 3.516 0.353 3.516 -1.029 0 -0.774 -0.758 -2.92 -1.684 -4.769 -0.926 -1.849 -1.61 -3.989 -1.519 -4.755 0.158 -1.341 0.374 -1.249 5.689 2.423 3.038 2.099 5.929 3.821 6.423 3.826 1.172 0.012 1.838 -0.919 2.692 -3.762 1.175 -3.913 1.608 -4.535 2.569 -3.698 0.459 0.4 1.54 2.195 2.402 3.988 2.451 5.099 2.467 5.104 8.313 2.339 5.732 -2.711 7.951 -3.332 8.51 -2.384 0.211 0.359 -0.149 2.334 -0.8 4.389 -0.651 2.055 -1.105 4.464 -1.01 5.352 0.151 1.38 0.52 1.696 2.524 2.162 2.696 0.628 3.067 1.936 1.243 4.385 -0.594 0.798 -1.086 1.929 -1.093 2.514 -0.006 0.585 -0.199 0.963 -0.427 0.84 -4.423 -2.391 -5.89 -0.835 -9.89 1.643 -2.576 1.596 -2.881 -0.049 -1.191 -1.951 0.779 -0.877 1.687 -2.148 2.02 -2.823 0.706 -1.444 2.472 -10.09 2.134 -10.45 -0.128 -0.134 -1.821 0.546 -3.763 1.511 -4.41 2.191 -6.127 2.238 -7.646 0.211 -1.121 -1.497 -1.181 -1.51 -1.956 -0.435 -0.44 0.61 -0.807 1.305 -0.817 1.544 -0.04 0.998 -2.741 0.317 -5.177 -1.305 -1.437 -0.957 -2.814 -1.74 -3.059 -1.74 -0.245 0 -0.264 1.24 -0.042 2.756 0.222 1.516 0.301 2.936 0.176 3.157 -0.126 0.221 -1.362 0.58 -2.748 0.798 -2.249 0.354 -2.48 0.529 -2.152 1.629 1.022 3.431 0.99 4 -0.282 5.01 -1.72 1.362 -1.121 2.895 1.131 2.895 3.982 0 4.65 1.717 2.644 6.798 -0.662 1.677 -1.059 3.202 -0.882 3.387 0.177 0.186 1.33 -0.203 2.563 -0.863 2.656 -1.423 4.109 -1.518 5.05 -0.331 0.378 0.479 0.875 0.87 1.105 0.87 0.496 0 5.693 -7.386 6.225 -8.847 0.203 -0.558 0.73 -1.015 1.171 -1.015 0.44 0 1.132 -0.132 1.536 -0.293 0.474 -0.189 1.103 0.648 1.768 2.348 1.198 3.066 0.932 6.122 -0.996 4.795 -0.758 -0.522 -1.838 -2.049 -2.4 -2.049 -1.328 0 -3.711 1.318 -4.757 3.946 -0.775 1.949 -0.745 2.26 0.498 5.076 1.266 2.869 1.277 3 0.258 3 -0.615 0 -1.413 0.706 -1.888 1.67 -0.697 1.415 -1.864 2.391 -2.859 2.391 -0.137 0 -0.392 -0.394 -0.568 -0.875 z" fill="#eaf81d" stroke="#ff4500" stroke-width="1.132"/></g><path d="m 67.68 95.33 c 0.366 -1.021 0.67 -3.716 0.676 -5.987 l 0.011 -4.13 l -3.659 -0.896 c -3.341 -0.818 -3.533 -1 -2.207 -2.101 1.118 -0.928 1.343 -1.995 0.98 -4.648 -0.466 -3.402 -0.435 -3.452 2.625 -4.208 2.879 -0.711 3.114 -1.01 3.347 -4.18 l 0.25 -3.415 l 3.858 1.953 c 4.704 2.381 5.41 2.408 7.339 0.276 1.42 -1.569 1.617 -1.588 3.05 -0.29 1.91 1.728 5.162 1.673 9.755 -0.164 1.949 -0.78 3.785 -1.176 4.081 -0.881 0.295 0.295 0.056 2.503 -0.533 4.907 -1.358 5.548 -5.745 12.295 -8.01 12.314 -2.347 0.02 -2.897 0.533 -7.378 6.879 -2.189 3.1 -4.132 5.637 -4.317 5.637 -0.185 0 -1.23 -0.407 -2.323 -0.905 -1.523 -0.694 -2.712 -0.602 -5.099 0.396 -3.091 1.292 -3.108 1.288 -2.448 -0.556 z" fill="#f00407" stroke="#ff4500" stroke-width="1.67"/></svg>