<svg xmlns="http://www.w3.org/2000/svg" viewBox="0 0 256 256"><defs><clipPath><path d="m -24 13 c 0 1.105 -0.672 2 -1.5 2 -0.828 0 -1.5 -0.895 -1.5 -2 0 -1.105 0.672 -2 1.5 -2 0.828 0 1.5 0.895 1.5 2 z" transform="matrix(15.33333 0 0 11.5 415 -125.5)"/></clipPath></defs><path d="m 44.517 207.83 c 103.58 134.49 290.55 -46.712 171.1 -165.72 -102.79 -119.27 -302.3 51.19 -171.1 165.72" fill="#2c2c2c"/><g transform="translate(1.348 -2.688)"><path d="m 108.71 204.25 c -10.383 -1.434 -12.928 -7.476 -12.721 -17.958 l -3.982 -8.475 l 9.807 2.308 c 4.476 1.053 6.109 -0.629 7.797 -3.248 1.942 -3.01 1.905 -3.682 -0.509 -9.228 -2.714 -6.233 -9.503 -11.89 -16.283 -13.567 -5.618 -1.389 -10.151 2.296 -10.151 8.252 0 4.17 -0.264 4.573 -2.02 3.09 -3.562 -3 -4.446 0.409 -1.651 6.375 2.738 5.843 7.121 11.847 7.838 3.44 0.162 -1.904 -1.017 -7.832 4.357 1.29 2.526 4.288 3.771 3.514 1.036 3.554 -1.593 0.023 -4.343 1.626 -6.11 3.563 -2.509 2.75 -4.03 3.356 -6.936 2.767 -2.228 -0.451 -4.733 -0.001 -6.238 1.119 -3.366 2.507 -5.975 0.269 -6.107 -5.239 -0.055 -2.292 -0.849 -6.265 -1.765 -8.829 -1.504 -4.212 -1.753 -4.386 -2.568 -1.803 -0.496 1.573 -0.812 3.371 -0.702 3.996 0.531 3.01 -0.334 4.467 -2.655 4.467 -3.7 0 -4.534 -2.321 -2.157 -6.01 1.144 -1.774 2.08 -4.361 2.08 -5.749 0 -1.388 1.695 -5.755 3.767 -9.705 2.072 -3.95 4.182 -9.693 4.691 -12.764 l 0.924 -5.582 l -5.138 -1.406 c -7.753 -2.121 -9.956 -5.324 -9.195 -13.369 0.441 -4.662 8.855 -7.152 -1.141 -8.193 -2.308 -1.946 -2.284 -8.407 0.038 -10.365 0.997 -0.841 3.617 -1.389 5.823 -1.218 4.215 0.326 9.409 -3.232 9.409 -6.445 0 -2.735 -5.842 -2.137 -8.522 0.873 -2.593 2.911 -7.258 3.445 -11.23 1.285 -3.851 -2.094 -3.456 -9.937 0.639 -12.663 2.622 -1.746 4.049 -1.852 8.194 -0.608 6.749 2.025 22.06 0.176 22.06 -2.664 0 -3.176 -10.207 -4.751 -18.853 -2.908 -6.604 1.408 -7.546 1.317 -9.77 -0.943 -4.914 -4.993 1.574 -12.964 7.406 -9.1 1.574 1.043 6.992 2.265 12.04 2.716 5.05 0.451 10.8 1.209 12.783 1.684 2.254 0.54 3.605 0.318 3.605 -0.593 0 -2.486 -6.1 -5.669 -12.701 -6.629 -6.16 -0.895 -6.31 -1.027 -6.31 -5.563 0 -4.052 0.451 -4.699 3.523 -5.06 2.6 -0.305 4.101 0.482 5.728 3 1.212 1.88 6.067 5.291 10.788 7.581 l 8.584 4.163 l 6.781 -2.172 c 9.656 -3.093 40.852 -3.062 49.39 0.049 l 6.135 2.234 l 8.626 -4.315 c 5.798 -2.9 9.279 -5.596 10.615 -8.222 2.578 -5.065 7.867 -5.39 10.01 -0.616 1.952 4.354 -0.046 6.778 -6.473 7.85 -5.575 0.93 -13.414 5.397 -13.414 7.645 0 0.971 1.283 1.192 3.605 0.621 1.983 -0.487 7.803 -1.316 12.934 -1.841 5.131 -0.526 10.26 -1.741 11.4 -2.702 3.233 -2.726 7.893 -1.369 9.298 2.708 2.176 6.314 -0.451 7.765 -12.374 6.831 -6.993 -0.548 -11.583 -0.266 -14.303 0.879 -7.789 3.278 -4.179 5.359 9.299 5.359 5.04 0 10.337 -0.642 11.78 -1.427 5.349 -2.909 12.791 6.465 9.43 11.878 -0.699 1.125 -2.881 2.591 -4.849 3.258 -2.917 0.988 -4.489 0.572 -8.499 -2.252 -8.28 -5.831 -13.02 -3.423 -6.162 3.127 2.421 2.311 4.062 2.841 6.709 2.166 6.56 -1.673 11.451 7.03 6.363 11.319 -1.563 1.318 -6.05 -3.144 -1.266 7.252 2.792 6.069 -2.359 11.854 -9.447 14.863 -3.409 1.447 -4.265 2.446 -3.571 4.168 0.502 1.245 1.442 4.123 2.089 6.394 0.647 2.271 2.331 5.191 3.742 6.489 1.411 1.297 3.25 4.535 4.087 7.193 0.837 2.659 2.704 6.153 4.148 7.764 3.063 3.416 2.238 7.06 -1.597 7.06 -2.06 0 -2.663 -0.868 -2.663 -3.833 0 -2.108 -0.885 -4.58 -1.967 -5.492 -2.062 -1.739 -2.147 -1.287 -2.507 13.321 -0.102 4.153 -0.473 4.624 -3.393 4.313 -4.642 -0.495 -5.4 -0.46 -10.04 0.461 -3.352 0.665 -4.426 0.287 -5.618 -1.976 -1.048 -1.99 -2.745 -2.798 -5.876 -2.798 -4.645 0 -6.272 1.963 -5.171 6.239 0.932 3.622 -1.547 12.229 -5.03 14.446 -8.07 3.604 -16.585 3.478 -28.23 0.629 -5.474 -1.527 -14.227 2.354 -21.495 1.478 z m -32.598 -23.21 c 0 -3.791 -3.66 -10.567 -5.44 -9.449 -0.733 0.46 -0.939 2.406 -0.46 4.344 1.633 6.61 5.901 10.657 5.901 5.104 z m 113.8 -8.03 c -0.214 -1.467 -1.024 -2.879 -1.799 -3.138 -1.652 -0.552 -4.756 8.74 -3.57 10.689 1.217 2 5.819 -4.472 5.369 -7.551 z m -23.939 3.664 l 5 -3.451 l 0.531 5.683 c 0.321 3.433 4.34 0.326 6.04 -1.445 2.594 -2.708 4.921 -11.735 3.29 -12.76 -0.693 -0.435 -4.427 1.472 -5.478 2.358 -1.602 1.351 0.399 -0.598 0.399 -4.089 0 -4.766 -3.936 -9.488 -7.908 -9.488 -8.833 0 -19.624 10.134 -19.624 18.43 0 2.759 0.708 5.735 1.573 6.614 2.736 2.78 10.796 1.857 16.18 -1.852 z m -4.639 -4.385 c 0 -0.733 0.59 -1.703 1.311 -2.155 0.721 -0.453 1.311 -0.224 1.311 0.509 0 0.733 -0.59 1.703 -1.311 2.155 -0.721 0.453 -1.311 0.224 -1.311 -0.509 z m -75.34 -31.616 c 3.173 -2.113 4.438 -5.841 1.982 -5.841 -3.162 0 -7.928 3.332 -7.928 5.542 0 3.02 1.731 3.105 5.946 0.299 z m 89.76 0.12 c 0 -1.826 -4.815 -4.63 -7.952 -4.63 -2.491 0 -1.116 2.64 2.38 4.567 4.62 2.547 5.572 2.558 5.572 0.063 z m -81.26 30.705 c -1.034 -1.266 -1.134 -2.03 -0.264 -2.03 1.584 0 3.432 2.527 2.523 3.451 -0.33 0.335 -1.346 -0.304 -2.258 -1.421 z" fill="#4a871f"/><ellipse ry="27.01" rx="21.941" cy="135.2" cx="129.23" fill="#ff0"/><ellipse cx="129.57" cy="134.87" rx="18.221" ry="21.258" fill="#f357f9"/><g fill="#183306"><ellipse cx="138.7" cy="36.745" rx="7.779" ry="10.147" transform="matrix(0.87301 0.4877 -0.4877 0.87301 0 0)"/><ellipse transform="matrix(-0.87301 0.4877 0.4877 0.87301 0 0)" ry="10.147" rx="7.779" cy="160.79" cx="-83.36"/><ellipse cx="-127.34" cy="82.73" rx="9.132" ry="6.765" transform="matrix(-1 0 -0.00002 1 0 0)"/></g></g><path d="m 152.45 177.55 c -4.113 -1.719 -4.523 -10.953 -0.749 -16.883 5.463 -8.585 18.3 -13.145 23.06 -8.192 2.665 2.771 2.71 8.709 0.108 14 -2.038 4.145 -3.821 5.417 -3.821 2.726 0 -2.681 -2.908 -4.354 -5.995 -3.449 -4.814 1.411 -6.8 6.04 -4.23 9.853 1.08 1.604 1.073 1.858 -0.067 2.313 -1.826 0.729 -6.138 0.537 -8.308 -0.37 z" fill="#fff"/><path d="m 112.96 197.85 c -4.177 -0.867 -5.04 -0.796 -8.47 -5.945 -10.982 -16.498 2.601 -4.614 4.437 -5.417 3.02 -1.319 6.13 -0.696 17.15 3.43 5.864 2.196 6.851 2.115 11.937 -0.978 3.341 -2.031 4.244 -3.228 7.104 -2.521 10.363 2.56 17.978 -2.061 17.973 -0.337 -2.683 6.258 -7.301 11.281 -11.892 11.842 -2.371 0.287 -6.773 0.364 -10.295 0.18 -3.476 0.025 -5.609 0.277 -7.867 -2.206 -0.942 -1.036 -2.092 -1.885 -2.555 -1.885 -0.463 0 -2.307 0.756 -4.098 1.679 -4.742 2.446 -8.854 3.107 -13.422 2.159 z" fill="#b0e888"/><path d="m 109.4 176.71 c 4.227 -1.719 4.648 -10.953 0.77 -16.883 -5.614 -8.585 -18.808 -13.145 -23.703 -8.192 -2.739 2.771 -2.786 8.709 -0.111 14 2.095 4.145 3.928 5.417 3.928 2.726 0 -2.681 2.989 -4.354 6.161 -3.449 4.947 1.411 6.989 6.04 4.347 9.853 -1.11 1.604 -1.103 1.858 0.069 2.313 1.877 0.729 6.309 0.537 8.539 -0.37 z" fill="#fff"/></svg>