<svg xmlns="http://www.w3.org/2000/svg" viewBox="0 0 256 256"><g transform="translate(0 -796.36)"><path d="m 195.78 1025.02 c -93.6 84.22 -237.63 -48.626 -179.39 -159.81 58.874 -112.41 253.71 -82.45 237.14 55.606 c -4.934 41.08 -27.22 76.73 -57.752 104.21 z" fill="#00bfff" color="#000"/><g transform="matrix(1.05179 0 0 1.03456 7.155 -33.599)" fill="#fff" stroke="#fff" stroke-width="3.2"><path d="m 77.54 993.17 c -1.84 -1.817 -1.332 -4.873 1.304 -7.835 1.49 -1.674 1.34 -2.047 -1.933 -4.812 -2.094 -1.769 -4.183 -2.741 -5.099 -2.371 -9.656 3.897 -13.451 4.796 -16.208 3.839 -2.3 -0.798 -2.928 -1.649 -2.928 -3.963 0 -2.544 0.937 -3.5 6.861 -7 4.645 -2.745 7.783 -5.496 9.718 -8.518 7.464 -9.825 0.744 1.864 5.698 -18.884 1.209 -4.01 2.443 -7.915 2.742 -8.686 0.829 -2.134 -4.139 -1.76 -10.06 0.757 -5.982 2.541 -9.842 1.993 -11.516 -1.634 -2.554 -5.534 5.122 -10.83 19.03 -13.13 l 7.325 -1.211 l 5.535 -17.856 c 3.044 -9.821 6.939 -20.689 8.655 -24.15 4.143 -8.36 11.248 -15.981 17.89 -19.19 6.444 -3.112 18.551 -5.765 25.913 -5.678 2.917 0.035 9.26 -0.215 14.1 -0.555 8.296 -0.583 9.113 -0.452 14.477 2.326 17.64 9.136 22.861 35.26 11.655 58.32 -4.155 8.551 -15.7 19.679 -23.327 22.483 -7 2.574 -15 2.781 -20.907 0.541 -6.463 -2.453 -8.391 -2.709 -10.804 -1.434 -2.229 1.177 -2.22 1.212 1.35 5.113 4.795 5.24 6.131 7.904 5.402 10.773 -0.611 2.404 -3.927 4.189 -6.809 3.665 -0.853 -0.155 -3.296 -1.946 -5.429 -3.98 -2.373 -2.264 -4.229 -3.321 -4.785 -2.726 -0.499 0.534 -2.187 4.821 -3.75 9.525 -2.01 6.05 -3.411 8.7 -4.783 9.05 -5.81 0.308 -8.515 3.685 -1.027 3.455 2.964 -0.091 -2.599 10.566 -8.406 16.306 -7.968 7.878 -16.292 10.999 -19.88 7.456 z" stroke-width="6.469"/><path d="m 146.09 924.35 c -5.394 -1.865 -10.647 -7.343 -12.507 -13.04 -1.327 -4.067 -1.287 -16.18 0.067 -20.298 3.182 -9.686 10.493 -19.05 17.408 -22.292 5.712 -2.679 13.493 -1.53 18.537 2.736 2.504 2.118 5.174 6.492 6.738 11.04 1.208 3.511 1.412 4.957 1.427 10.07 0.03 10.362 -2.846 17.728 -9.539 24.432 -4.266 4.273 -7.533 6.275 -12.236 7.5 -3.935 1.025 -6.612 0.984 -9.894 -0.15 z m 21.319 -16.06 c 2.946 -3.177 4.523 -12.592 2.184 -13.04 -2.246 -0.427 -5.38 4.928 -5.914 10.1 -0.444 4.304 1.235 5.624 3.731 2.933 z m -13.82 -3.777 c 3.248 -3.248 5.04 -12.175 3.056 -15.206 -2.03 -3.098 -5.353 -1.753 -7.764 3.144 -1.404 2.851 -1.672 3.989 -1.689 7.166 -0.018 3.297 0.139 3.947 1.239 5.118 1.655 1.763 3.242 1.695 5.159 -0.222 z" stroke-width="3.2"/></g><g transform="matrix(0.98852 0 0 0.98561 13.977 10.726)"><path d="m 79.7 990.95 c -1.779 -1.779 -1.288 -4.771 1.26 -7.672 1.44 -1.639 1.295 -2 -1.868 -4.712 -2.024 -1.732 -4.044 -2.684 -4.93 -2.322 -9.335 3.816 -13 4.696 -15.67 3.759 -2.223 -0.782 -2.83 -1.614 -2.83 -3.88 0 -2.491 0.906 -3.427 6.632 -6.856 4.491 -2.688 7.524 -5.382 9.395 -8.341 1.519 -2.404 2.929 -4.37 3.133 -4.37 0.204 0 12.327 8.737 15.763 9.176 19.16 2.445 6.374 -1.374 -5.79 -6.679 -2.114 -1.399 -7.086 -3.931 -8.02 -5.902 -1.627 -3.43 -1.609 -3.889 0.424 -10.717 1.168 -3.923 2.361 -7.751 2.651 -8.506 0.802 -2.089 -4 -1.723 -9.73 0.741 -5.783 2.488 -9.515 1.951 -11.133 -1.601 -2.469 -5.42 4.952 -10.605 18.402 -12.857 l 7.081 -1.186 l 5.351 -17.486 c 2.943 -9.617 6.708 -20.26 8.367 -23.651 4.01 -8.186 10.874 -15.65 17.296 -18.791 6.23 -3.048 17.934 -5.646 25.05 -5.56 2.82 0.034 8.952 -0.211 13.627 -0.544 8.02 -0.571 8.81 -0.443 13.996 2.278 17.05 8.946 22.1 34.528 11.268 57.11 -4.02 8.374 -15.179 19.27 -22.551 22.02 -6.77 2.521 -14.505 2.724 -20.21 0.53 -6.249 -2.402 -8.113 -2.652 -10.445 -1.404 -2.155 1.153 -2.146 1.187 1.305 5.01 4.636 5.131 5.927 7.74 5.222 10.549 -0.591 2.354 -3.797 4.102 -6.583 3.589 -0.825 -0.152 -3.187 -1.906 -5.249 -3.898 -2.294 -2.217 -4.089 -3.252 -4.626 -2.67 -0.483 0.523 -2.114 4.721 -3.626 9.328 -1.944 5.924 -3.298 8.52 -4.624 8.867 -5.617 0.302 -8.232 3.608 -0.993 3.383 2.866 -0.089 -2.513 10.347 -8.126 15.968 -7.704 7.714 -15.75 10.771 -19.22 7.301 z" fill="#1c86ee"/><path d="m 146.09 924.35 c -5.394 -1.865 -10.647 -7.343 -12.507 -13.04 -1.327 -4.067 -1.287 -16.18 0.067 -20.298 3.182 -9.686 10.493 -19.05 17.408 -22.292 5.712 -2.679 13.493 -1.53 18.537 2.736 2.504 2.118 5.174 6.492 6.738 11.04 1.208 3.511 1.412 4.957 1.427 10.07 0.03 10.362 -2.846 17.728 -9.539 24.432 -4.266 4.273 -7.533 6.275 -12.236 7.5 -3.935 1.025 -6.612 0.984 -9.894 -0.15 z m 21.319 -16.06 c 2.946 -3.177 4.523 -12.592 2.184 -13.04 -2.246 -0.427 -5.38 4.928 -5.914 10.1 -0.444 4.304 1.235 5.624 3.731 2.933 z m -13.82 -3.777 c 3.248 -3.248 5.04 -12.175 3.056 -15.206 -2.03 -3.098 -5.353 -1.753 -7.764 3.144 -1.404 2.851 -1.672 3.989 -1.689 7.166 -0.018 3.297 0.139 3.947 1.239 5.118 1.655 1.763 3.242 1.695 5.159 -0.222 z" fill="#ff8b00" stroke="#ff8b00" stroke-width="0.623"/></g></g></svg>