<svg xmlns="http://www.w3.org/2000/svg" viewBox="0 0 256 256"><g color="#000"><path d="m -429.05 1690.33 c 145.2 -221.6 -385.23 -232.05 -202.66 -3.617 48.21 58.77 163.57 87.45 202.66 3.617 z" transform="matrix(0 0.95355 1.14823 0 -1744.98 640.81)" fill="#add8e6"/></g><g transform="matrix(0.90194 0.18151 -0.11829 0.90255 16.862 -12.06)"><path d="m 106.16 207.97 c -22.811 -26.864 -56.62 -53.32 -72.71 -82.929 c -3.989 -5.961 -4.456 -12.914 -3.863 -18.9 0.583 -5.442 1.275 -7.283 3.831 -10.195 5.36 -6.105 12.1 -8.375 42.623 -14.362 20.846 -5.065 42.986 -9.296 61.5 -14.785 8.631 -2.641 22.01 -5.3 29.23 -5.807 7.74 -0.544 14.293 2.165 22.326 9.231 10.962 9.641 53.625 52.24 55.651 55.57 2.479 4.072 3.75 12.281 2.786 17.987 -0.538 3.182 -1.924 5.31 -6.201 9.519 -11.789 10.87 -27.92 15.554 -41.29 24.392 -8.818 5.244 -17.274 8.71 -26.5 14.02 -10.318 5.99 -14.36 8.154 -28 14.99 -13.61 6.821 -14.209 7.02 -21.5 7.02 -7.14 0.516 -12.13 -2.551 -17.88 -5.751 z m 26.671 -11.124 c 13.397 -8.32 27.503 -14.04 40.21 -21.284 18.443 -10.04 38.02 -22.853 55.3 -30.543 9.233 -3.924 12.242 -9.153 9.906 -11.488 -5.264 0.058 -25.03 8.272 -29.709 11.211 -24.741 13.182 -44.915 20.737 -67.5 33.872 -6.254 3.725 -37.05 11.928 -28.5 17.266 8.05 4.884 13.229 5.13 20.291 0.966 z m -31.447 -21.04 c 1.7 -3.853 1.69 -3.96 -0.558 -6.394 -10.261 -11.11 -22.02 -25.887 -29.524 -33.527 -4.951 -5.04 -12.715 -15.23 -16.637 -19.56 -3.921 -4.33 -9.438 -7.747 -9.941 -7.188 -1.837 2.041 -0.017 6.848 3.128 10.15 5.677 5.961 10.132 11.693 14.869 17.441 5.377 7.801 28.28 34.416 36.38 42.98 0.307 0.008 1.335 -1.748 2.286 -3.903 z m 71.16 -31.964 c 8.285 -3.01 16.5 -7.03 16.5 -8.07 0 -0.539 -1.077 -1.558 -2.393 -2.263 -2.691 -1.441 -11.607 -11.06 -11.607 -12.524 0 -1.595 3.296 -3.94 7.386 -5.254 2.137 -0.687 5.371 -2.257 7.186 -3.488 1.815 -1.232 5.186 -2.541 7.491 -2.91 3.883 -0.621 12.937 -5.073 12.937 -6.361 0 -0.877 -11.04 -12.341 -15.5 -16.1 -2.2 -1.853 -4.45 -4.168 -5 -5.145 -1.106 -1.965 -10.754 -10.02 -14.184 -11.84 -3.213 -1.707 -10.39 -1.416 -18.587 0.753 -12.839 3.397 -21.07 5.327 -28.672 6.724 -11.434 2.101 -18.79 4.41 -20.67 6.488 3.954 5.61 35.914 36.33 44.904 45.07 5.573 5.43 11.524 11.402 12.08 12.985 1.167 3.348 1.279 4.425 8.133 1.934 z m -22.859 -24.346 c -3.503 -2.645 -0.668 -4.29 7.786 -7.777 9.212 -3.8 13.01 -4.921 14.534 -2.067 1.516 2.832 0.336 4.814 -4.578 7.694 -5.351 3.136 -14.903 4.293 -17.742 2.15 z m -12.891 -11.805 c -4.798 -2.92 1.431 -7.89 10.667 -9.704 13.13 -1.972 24.836 -11.816 38.12 -12.262 3.846 0 5.909 2.458 4.37 5.208 -1.277 2.281 -10.787 6.484 -17.465 7.719 -3.04 0.562 -6.97 1.698 -8.733 2.525 -5.442 2.552 -18.02 6.695 -21.705 7.148 -1.925 0.237 -4.287 -0.049 -5.25 -0.634 z m -14.75 -17.867 c 0 -2.094 3.251 -3.69 5.353 -3.69 13.06 -2.816 26.875 -7.797 37.478 -10.129 8.752 -1.921 12.669 -1.098 12.669 2.661 0 1.926 -0.779 2.624 -4 3.582 -2.2 0.654 -7.825 2.353 -12.5 3.776 -6.822 2.394 -14.421 3.212 -21 5.705 -3.909 1.182 -17.716 5.668 -18 -1.905 z m 37.37 53.08 c -35.776 -36.17 -33.748 -37.457 -53.918 -52.2 -10.311 4.211 -33.425 9.578 -45.19 14.02 c -5.187 0 -6.493 3.469 -2.264 7.32 1.513 1.378 7.421 9.785 13.746 17.14 16.09 18.72 32.887 40.932 35.48 39.22 1.378 -0.91 51.963 -23.357 52.15 -25.501 z m -116.46 -38.623 c 13.93 -5.511 65.895 -15.602 61.25 -20.949 -2.489 -2.863 -63.49 17.09 -64.19 17.939 c -1.055 1.272 -2.869 4.982 -1.517 7.817 3.817 6.703 2.94 -2.027 4.463 -4.807 z" fill="#789"/><path d="m 111.94 136.21 c 3.197 -2.436 9.874 -5.306 13.485 -3.805 6.194 1.389 3.456 1.149 5.424 5.097 2.349 2.702 -0.721 5.687 -3.168 7.351 -8.87 2.01 -24.25 -2.47 -15.741 -8.643 z" fill="#fff"/><path d="m 90.29 130.14 c -7.553 -10.387 -9.179 -18.277 3.044 -21.16 9.361 -8.38 23.729 3.607 26.52 6.942 2.366 4.186 5.01 11.587 8.02 16.884 -1.26 3.457 -2.526 -2.382 -6.217 1.4 -3.86 6.112 -11.876 6.565 -15.646 4.665 -6.06 -1.886 -5.758 -0.472 -15.721 -8.731 z" fill="#ffb6c1"/><g fill="#4d4c4a"><path d="m 107.61 183.36 c -2.246 -2.01 -2.968 -3.364 -2.527 -4.752 0.967 -3.046 0.001 -2.581 35.639 -17.18 22.504 -9.455 38.877 -15.742 56.42 -26.27 5.877 -3.739 34.867 -15.03 36.531 -14.502 2.876 0.913 3.577 4.278 1.394 6.69 -2.477 2.737 -32.695 14.891 -49.39 22.992 -26.03 14.01 -50.773 25.593 -72.975 35.834 -1.068 0 -3.356 -1.264 -5.085 -2.809 z m -7.407 -24.905 c -8.07 -8.535 -7.44 -7.216 -3.257 -16.696 2.441 -5.694 3.751 -7.094 12.577 -2.338 4.86 2.619 3.739 4.402 7.12 3.236 1.97 -0.679 0.701 -4.383 0.701 -5.158 0 -2.147 3.033 -0.686 5.396 0.969 3.957 2.772 8.164 -0.718 4.855 -4.03 -0.637 -0.637 -1.601 -2.75 -1.237 -4.204 0.531 -2.116 1.99 -2.069 4.714 -2.069 6.534 0 14.704 4.739 19.725 9.439 8.759 7.242 0.067 8.475 -5.707 9.94 -9.907 6.531 -21.2 8.87 -30.987 14.695 -5.596 3.457 -7.908 2.4 -13.901 -3.787 z m 83.84 -32.633 c -6.704 -6.144 -0.749 -9.604 6.132 -3.562 2.912 2.557 3.344 3.421 2.5 5 -1.513 2.828 -4.524 2.326 -8.632 -1.438 z m 14.681 -2.1 c -1.375 -0.751 -3.507 -2.732 -4.737 -4.402 -2.025 -2.749 -2.09 -3.183 -0.679 -4.594 2.408 -2.408 6.705 -1.856 11.265 1.448 4.66 3.376 4.77 3.663 2.593 6.771 -1.759 2.512 -4.762 2.788 -8.443 0.777 z m -100.69 -14.02 c -5.613 -0.579 -8.709 1.042 -10.735 6.674 -2.924 8.128 -9.281 2.904 -11.275 -1.27 -1.736 -3.633 -0.279 -8.02 3.515 -10.584 2.6 -1.757 5.01 -5.192 12.186 -5.288 8.03 -0.108 8.847 -0.591 15.355 2.527 8.794 5.983 -6.125 8.41 -9.05 7.941 z m 113.94 5.942 c -2.763 -1.954 -3.685 -6.389 -1.066 -7.22 2.451 -0.778 9.931 4.667 9.565 6.742 -0.371 2.101 -5.774 2.404 -8.498 0.478 z"/><path d="m 107.66 119 c -1.732 -0.75 -1.159 -2.598 1.27 -4.097 1.453 -0.896 3.634 -0.471 4.312 0.841 0.499 1.353 -0.37 1.944 -1.399 2.718 -1.123 0.573 -3.42 0.868 -4.183 0.538 z"/><path d="m 95.3 124.29 c -1.732 -0.75 -1.159 -2.598 1.27 -4.097 1.453 -0.896 3.634 -0.471 4.312 0.841 0.499 1.353 -0.37 1.944 -1.399 2.718 -1.123 0.573 -3.42 0.868 -4.183 0.538 z"/><path d="m 104.03 121.58 c 0.831 -1.472 2.876 -0.986 4.536 1.079 0.992 1.235 0.521 3.089 -0.931 3.666 -1.498 0.424 -2.153 -0.315 -3.01 -1.189 -0.634 -0.954 -0.961 -2.908 -0.595 -3.556 z"/><path d="m 113.75 126.83 c 2.492 -0.597 2.268 0.89 -0.496 3.298 -1.653 1.44 -4.642 2.511 -5.91 2.118 -1.043 -0.528 -0.07 -1.423 1.061 -2.528 1.312 -1.039 4.248 -2.625 5.345 -2.888 z"/></g></g></svg>