<svg xmlns="http://www.w3.org/2000/svg" viewBox="0 0 256 256"><path d="m 182.83 5.295 c -368.15 -40.17 -92.2 461.96 64.2 144.86 21.558 -48.965 5.804 -123.9 -64.2 -144.86 z" fill="#d5ff7b" color="#000"/><g transform="matrix(1.18873 0 0 1.25781 -25.851 -1039.93)"><path d="m 98.68 873.91 c -19.645 -0.155 -37.25 16.198 -37.83 35.26 -1.398 13.428 2.02 27.832 12.726 37.14 17.386 16.626 37.861 29.775 57 44.36 11.08 -7.416 21.262 -17.315 32.05 -25.631 12.37 -11.202 28.2 -20.545 35.06 -36.19 5.266 -13.305 3.542 -28.996 -5.972 -40.13 -13.495 -16.11 -39.22 -18.301 -57.26 -8.337 -5.925 4.546 -11.411 -2.669 -17.55 -3.629 -5.843 -1.955 -12.03 -3.01 -18.224 -2.84 z" fill="#ff4500"/><g fill="#fff"><path d="m 128.92 972.05 c -0.956 -3.081 -2.871 -10.556 -4.792 -18.705 -1.209 -5.131 -1.277 -5.26 -3.202 -6.132 -2.809 -1.273 -6.268 -4.411 -8.179 -7.42 l -1.646 -2.591 l -4.287 -0.818 c -4.14 -0.79 -21.844 -4.884 -23.511 -5.436 -0.705 -0.234 -0.694 -0.333 0.08 -0.719 1.012 -0.505 12.784 -3.319 18.996 -4.541 8.298 -1.632 7.852 -1.412 9.74 -4.819 1.939 -3.5 4.936 -6.46 8.668 -8.563 l 2.544 -1.434 l 2.536 -10.525 c 2.751 -11.417 3.709 -14.641 4.353 -14.641 0.649 0 1.319 2.32 4.095 14.179 l 2.582 11.03 l 3.396 2.153 c 3.653 2.316 7.334 6.06 9.09 9.238 l 1.09 1.977 l 10.155 2.073 c 11.596 2.368 16.968 3.75 16.968 4.366 0 0.235 -0.797 0.654 -1.771 0.931 -1.5 0.427 -24.781 5.382 -25.286 5.382 -0.095 0 -0.648 0.829 -1.229 1.841 -1.719 2.993 -5.752 6.599 -9.216 8.239 -2.972 1.407 -3.263 1.693 -3.592 3.521 -0.654 3.633 -5.892 23.437 -6.304 23.833 -0.223 0.214 -0.797 -0.876 -1.277 -2.421 z m 6.652 -28.934 c 2.604 -1.197 5.994 -4.08 7.137 -6.072 1.328 -2.312 2.317 -7.299 1.899 -9.572 -1.273 -6.927 -6.321 -10.759 -14.188 -10.768 -3.042 -0.003 -4.43 0.255 -6.652 1.238 -9.92 4.392 -11.51 16.314 -3.058 22.924 1.354 1.059 3.487 2.261 4.739 2.672 2.781 0.912 7.665 0.708 10.123 -0.421 z"/><path d="m 136.43 135.58 a 4.804 8.327 0 1 1 -9.608 0 4.804 8.327 0 1 1 9.608 0 z" transform="matrix(1.68247 0 0 0.85619 -91.41 814.41)"/></g></g></svg>