<svg xmlns="http://www.w3.org/2000/svg" viewBox="0 0 256 256"><path d="m 245.32 151.57 c -25.504 170.71 -287.7 112.4 -238.11 -52.797 c 33.26 -156.96 301.63 -114.45 238.11 52.797" fill="#f4c123"/><g transform="matrix(5.28115 0 0 5.26759 3.039 0.49)"><circle r="15" cy="25" cx="25" opacity="0.1"/><circle r="15" cy="24" cx="24" fill="#f3e830"/><path d="m 24.98,15 c -5.515,0.011 -9.981,4.485 -9.981,10 0,5.523 4.477,10 10,10 5.523,0 10,-4.477 10,-10 h -12 v 3 h 8.324 c -1.159,2.443 -3.621,4 -6.324,4 -3.866,0 -7,-3.134 -7,-7 0,-3.83 3.077,-6.949 6.906,-7 0.031,0 0.063,0 0.094,0 1.831,0.001 3.589,0.719 4.897,2 h 3.762 C 31.872,16.907 28.572,15.001 25,15 z" opacity="0.1"/><path d="m 23.98,14 c -5.515,0.011 -9.981,4.485 -9.981,10 0,5.523 4.477,10 10,10 5.523,0 10,-4.477 10,-10 h -12 v 3 h 8.324 c -1.159,2.443 -3.621,4 -6.324,4 -3.866,0 -7,-3.134 -7,-7 0,-3.83 3.077,-6.949 6.906,-7 0.031,0 0.063,0 0.094,0 1.831,0.001 3.589,0.719 4.897,2 h 3.762 C 30.872,15.907 27.572,14.001 24,14 z" fill="#333"/></g></svg>