<svg xmlns="http://www.w3.org/2000/svg" xmlns:xlink="http://www.w3.org/1999/xlink" viewBox="0 0 256 256"><defs><path d="m 245.46 129.52 l -97.89 -96.9 c -5.556 -5.502 -16.222 -11.873 -23.7 -14.16 l -39.518 -12.08 c -7.479 -2.286 -18.1 0.391 -23.599 5.948 l -13.441 13.578 c -5.5 5.559 -14.502 14.653 -20 20.21 l -13.44 13.579 c -5.5 5.558 -8.07 16.206 -5.706 23.658 l 12.483 39.39 c 2.363 7.456 8.843 18.06 14.399 23.556 l 97.89 96.9 c 5.558 5.502 14.605 5.455 20.1 -0.101 l 36.26 -36.63 c 5.504 -5.559 14.503 -14.651 20 -20.21 l 36.26 -36.629 c 5.502 -5.56 5.455 -14.606 -0.101 -20.11 z m -178.09 -50.74 c -7.198 0 -13.03 -5.835 -13.03 -13.03 0 -7.197 5.835 -13.03 13.03 -13.03 7.197 0 13.03 5.835 13.03 13.03 -0.001 7.198 -5.836 13.03 -13.03 13.03 z" id="0"/><use id="1" xlink:href="#0"/><clipPath id="2"><use xlink:href="#0"/></clipPath><clipPath clip-path="url(#2)"><use xlink:href="#1"/></clipPath><clipPath clip-path="url(#2)"><use xlink:href="#1"/></clipPath></defs><path d="m 128.43 255.04 c 171.78 19.304 169.4 -257.01 -3.059 -253.73 c -160.39 -9.106 -174.86 268.79 3.059 253.73 z" fill="#020301" fill-opacity="0.988" color="#000"/><path d="m 140.53 205.75 c -1.824 -0.375 -4.193 -3.71 -4.193 -5.904 0 -1.133 1.463 -1.128 5.402 0.016 1.306 0.379 7.681 0.742 7.681 -4.881 -4.938 1.068 -9.351 2.21 -12.655 -1.928 -1.9 -2.397 -2.438 -3.94 -2.693 -7.726 -0.309 -4.573 -0.225 -4.821 2.494 -7.386 3.182 -3 6.893 -3.53 10.07 -1.434 1.358 0.898 2.082 0.997 2.739 0.377 1.743 -1.645 5.943 -0.98 7.8 1.234 1.622 1.935 1.72 2.724 1.433 11.583 -0.33 10.183 -1.032 12.232 -5.04 14.71 -1.985 1.227 -9.711 2.02 -13.03 1.338 z m 6.692 -15.186 c 2.589 -1.631 3.663 -7.433 1.519 -8.209 -0.661 -0.239 -2.088 -0.225 -3.171 0.031 -2.533 0.6 -4.468 5.76 -2.85 7.6 1.53 0.984 3.249 1.321 4.503 0.579 z m -45.2 7.37 c -2.851 -0.635 -3.801 -1.538 -4.601 -4.374 -0.668 -2.367 -0.136 -2.907 3.62 -1.765 7.943 2.414 10.257 -1.601 4.496 -3.065 -6.967 -1.77 -11.294 -9.733 -5.887 -12.371 3.832 -1.869 11.975 -1.204 14.688 1.2 2.87 2.543 2.433 5.01 -0.808 4.576 -4.225 -0.572 -6.761 -0.451 -6.831 0.325 -0.038 0.415 0.488 2.402 2.041 2.751 1.731 0.389 4.661 0.45 6.445 2.312 2.429 2.536 2.829 3.417 2.423 5.332 -0.66 3.112 -1.733 4.164 -5.165 5.063 -3.337 0.874 -6.542 0.879 -10.421 0.015 z m -44.713 -2.01 c -1.341 -2.763 -1.849 -18.392 -0.515 -19.65 0.747 -0.705 5.264 -1.334 1.902 -2.492 -0.699 -0.241 -2.387 -2.764 -2.387 -3.927 0 -1.816 0.318 -2.114 2.261 -2.114 4.078 0 7.868 3.804 2.164 6.596 -1.483 0.726 0.833 2.932 2.401 3.5 1.027 0.372 1.188 1.995 1 10.08 l -0.224 9.64 l -2.801 0.212 c -2.378 0.18 -2.952 -0.1 -3.801 -1.849 z m 13.925 0.193 c -1.042 -1.5 -1.32 -3.816 -1.32 -10.986 v -9.09 h 2.241 c 1.232 0 2.632 0.369 3.109 0.819 0.624 0.589 1.558 0.483 3.321 -0.377 3.812 -1.859 6.899 -1.511 10.1 1.138 3.572 2.959 4.607 6.308 4.291 13.896 l -0.251 6.04 c -3.136 0.43 -6.03 0.212 -7.158 -1.807 -0.778 -1.419 -1.245 -4.25 -1.245 -7.548 0 -5.483 -0.57 -6.532 -3.134 -5.764 -2.157 0.646 -2.717 2.224 -3.223 9.08 -0.413 3.56 1.016 5.905 -2.927 6.268 -1.921 0.177 -2.78 -0.201 -3.801 -1.672 z m 51.646 -0.064 c -1.292 -2.674 -1.518 -18.558 -0.224 -19.779 0.747 -0.705 4.788 -0.427 0.238 -3.399 -0.613 -0.4 -0.96 -1.857 -0.96 -3.02 0 -1.816 0.318 -2.114 2.261 -2.114 4.078 0 7.985 2.629 4.541 5.689 -3 2.669 -1.544 3.386 0.024 3.954 1.027 0.372 1.188 2.448 1 10.537 l -0.224 9.64 l -2.855 0.226 c -2.411 0.191 -3 -0.078 -3.801 -1.734 z m 41.87 -0.377 c -1 -1.833 -1.199 -4.665 -1.021 -14.91 l 0.219 -12.647 l 2.152 -0.234 c 2.669 -0.291 5.502 2.193 6.217 5.45 0.487 2.221 0.676 2.321 3.908 2.077 8.479 0.08 10.579 8.113 10.361 14.34 l -0.229 7.81 l -2.897 0.228 c -3.508 0.277 -3.989 -0.636 -4.654 -8.832 -0.525 -6.479 -1.964 -8.208 -4.807 -5.78 -1.375 1.174 -1.647 2.313 -1.647 6.89 0 7.121 -0.349 7.872 -3.666 7.872 -2.184 0 -2.93 -0.429 -3.935 -2.263 z m 32.28 1.351 c -2.374 -1.742 -3.483 -7.308 -3.486 -10.855 -0.002 -2.073 -1.818 -3.923 -2.789 -5.427 -2 -3.1 -2.02 -4.436 -0.05 -5.428 0.851 -0.43 2.85 -1.942 2.989 -3.084 0.202 -1.652 -0.469 -1.9 1.349 -2.096 2.405 -0.259 4.93 0.438 4.93 2.324 0 0.543 2.055 3.01 3.114 3.257 2.63 0.623 5.442 3.577 4.832 5.076 -0.298 0.733 -1.644 1.299 -3.424 1.439 l -2.932 0.23 c -0.071 2.703 -0.832 6.939 0.56 8.709 1.933 0.05 5.612 3.49 5.313 4.968 -0.233 1.153 -1.119 1.464 -4.682 1.643 -2.71 0.136 -4.904 -0.153 -5.724 -0.755 z m -157.34 -8.892 c -0.546 -0.825 -0.993 -2.369 -0.993 -3.432 0 -1.901 0.084 -1.929 5.32 -1.709 4.628 0.194 5.517 0.474 6.839 2.148 2.596 3.289 1.297 4.492 -4.849 4.492 -4.445 0 -5.488 -0.248 -6.317 -1.5 z m 64.787 -45.15 c 1.537 -2.653 6.694 -3.452 10.174 -5.604 l 3.528 -2.212 l 14.879 -0.196 c 15.582 -0.206 25.03 -1.521 35.613 -4.954 8.767 -2.845 7.55 -1.185 -2.727 3.72 -6.66 3.179 -15.894 6.22 -24.409 8.04 -6.366 1.359 -35.36 2.304 -37.06 1.207 z m -27.947 -5.095 c -24.514 -8.938 -37.759 -27.01 -34.556 -43.755 1.454 -7.604 4.276 -12.188 11.85 -19.251 10.09 -9.407 22.851 -15.305 41.11 -18.996 c 20.01 -2.884 41.623 -2.488 59.996 3.625 8.765 2.969 20.592 8.855 19.625 9.766 -0.158 0.149 -2.79 -0.528 -5.849 -1.504 -8.342 -2.662 -18.14 -4.375 -27.968 -4.888 -35.801 -1.87 -66.17 9.02 -75.04 26.913 -2.141 4.316 -2.351 5.388 -2.02 10.289 0.479 7.04 3.227 11.95 9.914 17.723 8.496 7.336 23.15 13.534 29.383 12.426 6.666 -1.185 10.123 -5.282 10.758 -12.748 0.227 -2.673 0.163 -4.86 -0.143 -4.86 -0.306 0 -1.886 0.993 -3.511 2.206 -8.912 6.656 -23.01 2.971 -27.946 -7.03 -2.498 -5.061 -2.124 -12.482 0.245 -18.453 4.02 -10.133 18.14 -14.581 27.27 -8.51 1.942 1.291 3.675 2.348 3.852 2.348 0.177 0 0.436 -0.73 0.577 -1.622 0.316 -2.01 2.385 -3.313 4.203 -2.655 1.25 0.452 1.343 2.312 1.109 22.2 -0.243 20.725 -0.335 21.85 -2.028 24.836 -2.607 4.598 -8.02 7.627 -13.799 10.156 -8.818 3.856 -22.738 3.347 -27.02 1.784 z m 30.592 -25.895 c 6.291 -3.345 8.663 -16.497 4.253 -23.575 c -6.539 -10.492 -21.799 -6.329 -23.486 6.407 -1.861 14.05 8.203 23.03 19.233 17.17 z m 19.97 4.969 c -0.213 -0.523 -0.292 -11.479 -0.175 -24.347 l 0.212 -23.396 c 1.601 0 5.579 -0.227 7.179 -0.227 0.487 16.15 -0.749 32.31 -0.766 48.47 -1.869 0.116 -5.09 0.434 -6.45 -0.497 z m 25.23 -13.92 c -0.007 -8.222 -0.287 -15.357 -0.622 -15.855 -3.991 -1.443 -7.302 -1.178 -11.77 -1.359 l -0.246 -3.208 l -0.246 -3.208 h 16.898 h 16.898 c -0.164 2.139 -0.328 4.278 -0.492 6.417 -3.735 0.252 -7.469 0.503 -11.204 0.755 -0.267 10.317 -0.296 20.862 -0.563 31.18 -2.801 0.152 -5.84 0.077 -8.641 0.23 -0.004 -4.983 -0.009 -9.966 -0.012 -14.949 z m 28.02 -4.341 v -19.29 h 14.851 h 14.851 c -0.164 2.139 -0.328 4.278 -0.492 6.417 l -10 0.377 l -10 0.377 v 3.775 v 3.775 l 7.203 0.189 c 10.494 0.275 10.804 0.389 10.804 3.978 v 3.01 h -7.85 c -5.04 0 -8.328 0.338 -9.183 0.944 -1.049 0.742 -1.399 2.473 -1.553 8.116 l -0.221 8.08 c -2.801 0.152 -5.602 -0.603 -8.403 -0.451 z" fill="#86c540" stroke="#86c540" stroke-width="0.899" transform="matrix(0.98739 0 0 0.98578 2.654 2.936)"/></svg>