<svg xmlns="http://www.w3.org/2000/svg" xmlns:xlink="http://www.w3.org/1999/xlink" viewBox="0 0 256 256"><defs><clipPath><path d="M 0,64 H64 V128 H0 z"/></clipPath></defs><g fill="#b0e0e6" color="#000"><path d="m -1360.14 1641.33 c 46.11 -98.28 -119.59 -146.07 -181.85 -106.06 -62.25 40.01 -83.52 108.58 -13.01 143.08 70.51 34.501 148.75 61.26 194.86 -37.03 z" transform="matrix(-1.03665 0 0 1.35742 -1401.7 -2064.8)"/></g><g transform="matrix(0.72297 0 0 0.77144 38.25 57.936)" fill="#4d88bc"><path d="m 124.88 0.488 c -68.58 0 -124.16 23.952 -124.16 53.47 c 0 27.772 49.21 50.587 112.16 53.19 -42.37 -2.518 -75 -18.16 -75 -37.09 0 -14.635 19.505 -27.306 47.938 -33.469 4.55 -17.327 20.308 -30.09 39.06 -30.09 18.755 0 34.513 12.767 39.06 30.09 28.449 6.16 47.969 18.829 47.969 33.469 0 18.929 -32.626 34.576 -75 37.09 62.945 -2.601 112.16 -25.415 112.16 -53.19 0 -29.517 -55.605 -53.47 -124.19 -53.47 z m 0 10.219 c -19.967 0 -36.16 16.189 -36.16 36.16 0 19.967 16.189 36.16 36.16 36.16 19.967 0 36.16 -16.189 36.16 -36.16 0 -19.967 -16.189 -36.16 -36.16 -36.16 z m 5.906 14.938 c 6.728 0 12.188 5.459 12.188 12.188 0 6.728 -5.459 12.188 -12.188 12.188 -6.728 0 -12.188 -5.459 -12.188 -12.188 0 -6.728 5.459 -12.188 12.188 -12.188 z"/><path d="m 31.684 191.14 l -1.17 -0.36 q -0.63 -0.27 -0.72 -0.99 v -6.84 q 0 -0.45 -0.81 -1.71 -0.72 -0.9 -1.53 -0.99 h -2.7 q -0.81 0 -1.62 1.17 -0.45 0.99 -0.63 1.89 v 6.84 l 0.27 1.53 l 0.45 1.53 q 2.34 5.31 8.46 5.31 3.87 0 6.57 -2.43 2.7 -2.43 2.7 -6.48 v -44.91 q 0 -2.07 -0.72 -3.6 -0.72 -1.62 -2.07 -2.79 -0.63 -0.54 -1.26 -0.9 -0.54 -0.36 -1.98 -0.99 -1.44 -0.63 -3.24 -0.63 -1.8 0 -3.42 0.63 -1.62 0.54 -2.97 1.62 -0.54 0.54 -1.08 1.17 -0.45 0.54 -0.99 1.62 -0.45 0.99 -0.63 1.71 -0.09 0.63 -0.09 1.62 v 24.48 q 0 2.52 1.89 4.59 1.98 1.89 4.23 2.7 l 0.99 0.18 l 1.62 0.27 q 0.99 0.18 1.44 0.45 0.45 0.27 0.63 0.81 v 12.51 q 0 0.45 -0.63 0.72 l -0.99 0.27 z m -0.18 -47.79 l 1.08 0.18 q 0.54 0 0.72 0.81 v 23.58 q 0 0.54 -0.63 0.81 l -0.99 0.18 l -1.17 -0.27 q -0.45 -0.27 -0.63 -1.08 v -22.86 q 0 -0.54 0.54 -0.99 l 1.08 -0.36 z"/><path d="m 53.39 113.56 q -1.26 0 -1.8 0.18 -0.54 0.09 -1.53 0.54 -1.62 0.54 -2.79 1.71 -1.08 1.08 -2.07 2.79 -0.72 1.62 -0.72 3.33 v 50.94 q 0 1.44 1.08 2.52 1.17 0.9 2.61 0.9 0.99 0 2.25 -0.72 1.26 -0.81 1.35 -2.16 v -50.94 q 0 -0.81 0.63 -1.17 l 1.26 -0.36 l 1.08 0.27 q 0.54 0.09 0.63 0.72 v 50.4 q 0 1.53 1.08 2.88 1.08 1.08 2.88 1.08 1.35 0 2.43 -0.9 1.17 -0.99 1.17 -2.52 v -50.76 q 0 -1.89 -0.81 -3.6 -0.72 -1.8 -2.07 -2.79 -1.26 -0.99 -3.15 -1.62 -1.8 -0.72 -3.51 -0.72 z"/><path d="m 75.539719,135.789 q -2.97,0 -5.22,1.44 -2.16,1.35 -3.33,4.23 l -0.36,1.26 -0.18,0.99 0,25.38 q 0,0.9 0.36,1.71 l 0.81,1.53 q 0.81,1.35 1.98,2.25 0.54,0.36 0.9,0.54 0.45,0.18 1.8,0.72 l 3.06,0.45 2.97,0.18 2.34,-0.09 q 1.08,0 1.89,-0.27 0.9,-0.36 1.62,-1.17 0.54,-0.81 0.54,-2.34 0,-1.26 -0.9,-2.43 -0.9,-1.17 -2.34,-1.17 l -6.48,0 q -0.54,0 -0.9,-0.72 l -0.27,-1.17 q 0,-1.26 1.17,-1.53 l 2.25,-0.36 q 2.97,-0.45 5.22,-2.61 2.25,-2.16 2.25,-5.31 l 0,-13.59 -0.18,-0.99 -0.36,-1.26 q -1.08,-2.79 -3.42,-4.23 -2.34,-1.44 -5.22,-1.44 z m 0,7.56 1.08,0.27 q 0.54,0.09 0.63,0.9 l 0,12.15 q 0,0.63 -0.72,0.99 l -1.08,0.18 -1.08,-0.27 q -0.54,-0.27 -0.54,-0.9 l 0,-12.33 q 0,-0.72 0.63,-0.81 l 1.08,-0.18 z" id="0"/><path d="m 91.85 135.7 q -1.44 0 -2.52 0.99 -1.08 0.81 -1.08 2.43 v 29.16 q 0 1.8 0.81 3.42 0.81 1.35 2.16 2.43 1.35 1.08 3.06 1.71 1.71 0.63 3.51 0.63 h 11.25 q 1.62 0 3.15 -0.54 1.62 -0.63 2.79 -1.71 1.26 -1.17 1.98 -2.7 0.81 -1.53 0.81 -3.24 v -29.7 q 0 -1.44 -1.08 -2.07 -1.08 -0.63 -2.52 -0.81 -1.17 0 -2.43 0.81 -1.17 0.72 -1.35 2.25 v 28.98 q 0 0.45 -0.81 0.9 l -1.17 0.27 q -0.81 -0.18 -1.26 -0.36 -0.36 -0.27 -0.36 -0.81 v -28.8 q 0 -1.35 -1.17 -2.16 -1.08 -0.9 -2.52 -1.08 -1.08 0 -2.34 0.72 -1.26 0.72 -1.35 2.16 v 28.98 q 0 0.72 -0.72 1.08 l -1.17 0.27 l -1.08 -0.18 q -0.45 -0.27 -0.63 -0.81 v -28.35 q 0 -1.62 -1.17 -2.7 -1.08 -1.17 -2.79 -1.17 z"/><path d="m 124.89 152.53 q -1.35 0 -2.52 0.72 -1.08 0.72 -1.08 2.34 v 12.51 q 0 1.8 0.81 3.33 0.81 1.53 1.98 2.7 1.26 1.08 2.97 1.71 0.81 0.27 1.62 0.45 0.81 0.18 1.8 0.18 3.78 0 6.48 -2.52 2.79 -2.61 2.79 -6.57 v -17.55 q 0 -2.25 -0.9 -3.69 -0.81 -1.53 -2.25 -2.61 -1.35 -1.08 -3.24 -1.62 -1.8 -0.54 -3.69 -0.81 l -0.63 -0.54 l -0.36 -0.81 v -17.28 q 0 -0.63 0.63 -0.99 l 1.26 -0.36 l 0.9 0.27 q 0.63 0.27 0.72 0.72 v 11.97 q 0 0.81 0.72 2.07 0.81 1.26 1.89 1.35 h 2.43 q 0.99 0 1.62 -1.17 0.72 -1.26 0.9 -2.43 v -11.25 q 0 -4.05 -2.79 -6.57 -2.79 -2.52 -6.75 -2.52 -1.08 0 -1.62 0.09 -0.54 0.09 -1.89 0.63 -1.35 0.45 -2.61 1.71 -1.17 0.99 -2.07 2.61 -0.72 1.62 -0.72 3.33 v 19.17 q 0 1.89 0.81 3.24 0.9 1.26 2.52 2.43 l 3.24 1.44 l 3.33 0.72 q 0.45 0.18 0.54 0.36 l 0.36 0.54 v 18.09 q 0 0.54 -0.63 0.81 l -0.9 0.18 l -1.26 -0.27 q -0.54 -0.27 -0.72 -1.08 v -12.15 q 0 -1.53 -1.08 -2.07 -1.08 -0.63 -2.61 -0.81 z"/><path d="m 174.33 135.79 q -3.51 0 -5.76 1.8 -2.25 1.8 -3.33 5.22 l -0.18 0.54 v 0.45 v 29.61 q 0 1.35 1.08 2.25 1.17 0.81 2.52 0.81 1.08 0 2.25 -0.72 1.26 -0.81 1.44 -2.34 v -28.89 q 0 -0.63 0.63 -0.9 l 1.17 -0.27 l 1.08 0.18 q 0.54 0.09 0.72 0.81 v 28.71 q 0 1.44 1.17 2.52 1.17 0.72 2.7 0.9 1.17 0 2.25 -0.72 1.08 -0.72 1.26 -2.16 l 0.18 -28.71 q 0 -2.07 -0.72 -3.6 -0.63 -1.53 -1.89 -2.79 -1.26 -1.35 -3.06 -1.98 -1.71 -0.72 -3.51 -0.72 z"/><path d="m 187.03566,167.289 q 0,4.05 2.61,6.66 2.7,2.52 6.57,2.52 3.42,0 6.12,-2.16 2.43,-2.16 2.97,-5.85 l 0,-1.35 0.09,-2.07 0,-2.16 0.09,-1.44 q 0,-3.33 -1.89,-5.49 -1.89,-2.16 -5.13,-3.24 l -1.71,-0.09 q -0.81,0 -1.53,-0.45 l -0.45,-0.45 -0.36,-0.54 0,-6.84 q 0,-0.54 0.63,-0.81 l 1.08,-0.18 q 0.99,0 1.53,0.9 l 0.63,1.8 q 0.36,1.08 0.9,1.89 0.63,0.81 2.52,0.81 1.71,0 2.61,-1.08 0.99,-1.17 0.99,-2.97 0,-3.78 -2.7,-6.3 -2.7,-2.61 -6.48,-2.61 -2.88,0 -5.13,1.44 -2.25,1.35 -3.42,4.23 l -0.36,1.26 -0.18,0.9 0,8.55 0.18,1.17 0.36,1.08 q 0.54,1.62 1.53,2.61 l 2.16,1.44 2.52,0.9 2.97,0.54 q 0.45,0.27 0.72,0.45 0.27,0.18 0.36,0.72 l 0,6.66 q 0,0.63 -0.72,0.99 l -1.17,0.18 q -0.9,0 -1.35,-0.81 l -0.54,-1.89 q -0.27,-0.99 -0.99,-1.8 -0.63,-0.9 -2.43,-0.9 -1.71,0 -2.7,1.08 -0.9,1.08 -0.9,2.7 z"/><use height="1" width="1" transform="translate(76.82)" xlink:href="#0"/><use xlink:href="#0" transform="translate(142.56)" width="1" height="1"/></g></svg>