<svg xmlns="http://www.w3.org/2000/svg" viewBox="0 0 256 256"><path d="m 4.206 157.25 c 15.797 103.29 156.1 130.92 218.03 57.2 54.53 -54.765 40.958 -159.6 -25.922 -195.54 -76.83 -48.08 -188.76 11.362 -194.87 107.09 c -0.629 10.487 0.259 21.09 2.757 31.26 z" fill="#09c" color="#000"/><g transform="matrix(0.96308 0 0 0.93572 5.962 8.4)"><rect width="114.61" height="121.5" x="72.12" y="72.4" rx="0.088" ry="0.093" fill="#fff" stroke="#fff" stroke-width="2.092"/><path d="m 73.22 198.66 c -4.981 -1.321 -9.59 -5.166 -12.05 -10.06 l -1.529 -3.036 v -54.924 v -54.924 l 1.593 -3.163 c 2.02 -4.01 4.5 -6.5 8.489 -8.527 l 3.149 -1.6 h 54.678 h 54.678 l 3.02 1.536 c 3.862 1.963 6.643 4.77 8.632 8.713 l 1.577 3.126 v 54.883 v 54.883 l -1.537 2.898 c -1.992 3.757 -4.671 6.553 -8.316 8.679 l -2.929 1.709 l -54.06 0.077 c -29.734 0.042 -54.66 -0.082 -55.39 -0.276 z m 34.09 -18.793 c 0.9 -0.904 1.065 -1.783 1.065 -5.677 v -4.607 l 6.336 0.382 c 5.952 0.359 6.402 0.316 7.429 -0.715 1.563 -1.57 2.373 -5.157 2.073 -9.179 -0.518 -6.946 -1.638 -7.781 -9.491 -7.08 -3.052 0.272 -5.728 0.398 -5.948 0.278 -0.22 -0.119 -0.399 -2.203 -0.399 -4.631 0 -7.484 -1.284 -7.905 -9.94 -3.257 -14.62 7.851 -24.15 14.209 -24.15 16.11 0 1.628 5.387 5.514 15.979 11.528 8.655 4.914 14.441 7.912 15.269 7.912 0.391 0 1.189 -0.482 1.775 -1.07 z m 49.4 -16.608 c 8.406 -4.473 19.13 -10.94 21.843 -13.169 1.245 -1.024 2.264 -2.309 2.264 -2.856 0 -0.547 -0.823 -1.675 -1.83 -2.506 -4.601 -3.798 -27.25 -16.754 -29.29 -16.757 -2.309 -0.003 -2.971 1.455 -2.971 6.542 v 4.772 l -4.927 -0.423 c -6.666 -0.572 -7.699 -0.501 -8.926 0.614 -2.892 2.629 -2.858 12.91 0.052 15.555 1.195 1.086 2.381 1.151 9.548 0.523 l 4.253 -0.373 v 4.676 c 0 5.02 0.687 6.633 2.835 6.633 0.589 0 3.805 -1.455 7.146 -3.232 z m -49.16 -31.13 c 0.589 -0.844 0.829 -2.476 0.829 -5.626 v -4.437 l 6.559 0.352 l 6.559 0.352 l 1.129 -1.441 c 1.369 -1.748 1.996 -6.127 1.477 -10.305 -0.291 -2.34 -0.733 -3.391 -1.933 -4.597 -1.401 -1.407 -1.808 -1.534 -4.078 -1.269 -1.387 0.162 -4.14 0.444 -6.117 0.627 l -3.595 0.333 v -4.775 c 0 -4.073 -0.154 -4.915 -1.051 -5.73 -1.545 -1.405 -3.02 -0.91 -11.984 4.03 -14.737 8.116 -21.05 12.446 -21.05 14.434 0 0.537 0.823 1.655 1.83 2.486 4.721 3.896 27.306 16.758 29.427 16.758 0.645 0 1.546 -0.535 2 -1.189 z m 48.15 -15.753 c 12.629 -6.84 22.22 -12.798 24.23 -15.05 1.864 -2.09 0.697 -3.435 -7.378 -8.508 -5.915 -3.716 -20.7 -11.824 -22.291 -12.225 -0.931 -0.235 -1.635 -0.007 -2.424 0.786 -0.954 0.959 -1.111 1.766 -1.111 5.711 v 4.595 l -6.35 -0.381 c -6.293 -0.377 -6.362 -0.369 -7.68 0.956 -1.565 1.572 -2.218 4.973 -1.808 9.419 0.592 6.42 1.897 7.301 9.73 6.571 2.92 -0.272 5.489 -0.386 5.709 -0.253 0.22 0.133 0.399 2.257 0.399 4.72 0 7.081 1.518 7.7 8.973 3.663 z" fill="#01cafd"/><path d="m 79.74 191.17 c -4.384 -1.175 -8.439 -4.596 -10.607 -8.947 l -1.346 -2.701 v -48.872 v -48.872 l 1.402 -2.815 c 1.776 -3.566 3.96 -5.784 7.471 -7.588 l 2.771 -1.424 h 48.12 h 48.12 l 2.66 1.367 c 3.399 1.746 5.846 4.245 7.597 7.753 l 1.388 2.782 v 48.836 v 48.836 l -1.353 2.579 c -1.753 3.343 -4.111 5.831 -7.319 7.723 l -2.578 1.521 l -47.575 0.068 c -26.17 0.037 -48.1 -0.073 -48.746 -0.246 z m 98.22 -5.548 c 1.422 -0.893 2.834 -2.327 3.713 -3.771 l 1.419 -2.33 v -48.871 v -48.871 l -1.419 -2.33 c -0.879 -1.444 -2.291 -2.878 -3.713 -3.771 l -2.294 -1.441 h -48.08 h -48.08 l -1.875 1.025 c -2.173 1.188 -3.52 2.585 -4.75 4.926 -0.838 1.595 -0.875 3.738 -0.875 50.46 v 48.796 l 1.315 2.272 c 1.412 2.44 4.062 4.519 6.529 5.123 0.842 0.206 22.744 0.34 48.673 0.298 l 47.14 -0.076 l 2.294 -1.441 z" fill="#09c" stroke="#09c"/></g></svg>