<svg xmlns="http://www.w3.org/2000/svg" xmlns:xlink="http://www.w3.org/1999/xlink" viewBox="0 0 256 256"><defs><clipPath><path d="m -24 13 c 0 1.105 -0.672 2 -1.5 2 -0.828 0 -1.5 -0.895 -1.5 -2 0 -1.105 0.672 -2 1.5 -2 0.828 0 1.5 0.895 1.5 2 z" transform="matrix(15.33333 0 0 11.5 415 -125.5)"/></clipPath></defs><g fill="#fe6606" color="#000"><path d="M 225.57,1004.7 C 287.88,909.48 237.6,822.73 167.06,802.15 72.17,774.466 -56.66,847.22 28.23,997.16 c 33.741,59.59 152.95,75.37 197.34,7.545 z" transform="matrix(1 0 0 -1 0.804 1051.28)"/></g><g transform="matrix(3.56985 0 0 3.64151 43.03 -3622.46)"><path d="m 23.941 1008.22 c -8.429 0 -15.257 6.751 -15.257 15.05 0 8.301 6.828 15.03 15.257 15.03 7.468 0 13.669 -5.296 14.988 -12.274 h -3.464 h -0.86 h -12.463 v 3.518 h 10.771 c -1.998 2.764 -5.261 4.576 -8.972 4.576 -6.092 0 -11.04 -4.846 -11.04 -10.846 0 -6 4.947 -10.872 11.04 -10.872 3.955 0 7.427 2.052 9.374 5.13 h 4.701 c -2.291 -5.454 -7.714 -9.311 -14.07 -9.311 z m -1.8 12.221 v 3.571 h 17 c 0.124 -1.191 -0.039 -2.512 -0.242 -3.571 z" fill="#f0bb63"/><rect id="0" rx="0.265" ry="0.277" y="1042.43" x="1.401" height="2.901" width="2.901" fill="#000080" stroke="#fff" stroke-width="0.21"/><use xlink:href="#0" width="1" height="1"/><g fill="#000080" stroke="#fff" stroke-width="0.21"><rect width="2.901" height="2.901" x="1.401" y="1045.33" ry="0.277" rx="0.265"/><rect width="2.901" height="2.901" x="1.401" y="1048.23" ry="0.277" rx="0.265"/><rect width="2.901" height="2.901" x="-7.203" y="1045.33" transform="scale(-1 1)" ry="0.277" rx="0.265"/><rect width="2.901" height="2.901" x="7.203" y="1042.43" ry="0.277" rx="0.265"/><rect width="2.901" height="2.901" x="7.203" y="1048.23" ry="0.277" rx="0.265"/><g transform="scale(-1 1)"><rect width="2.901" height="2.901" x="-13.552" y="1042.43" ry="0.277" rx="0.265"/><rect width="2.901" height="2.901" x="-13.552" y="1045.33" ry="0.277" rx="0.265"/><rect width="2.901" height="2.901" x="-13.552" y="1048.23" ry="0.277" rx="0.265"/></g><rect width="2.901" height="2.901" x="13.552" y="1045.33" ry="0.277" rx="0.265"/><g transform="scale(-1 1)"><rect width="2.901" height="2.901" x="-19.354" y="1042.43" ry="0.277" rx="0.265"/><rect width="2.901" height="2.901" x="-19.354" y="1045.33" ry="0.277" rx="0.265"/><rect width="2.901" height="2.901" x="-19.354" y="1048.23" ry="0.277" rx="0.265"/></g><rect width="2.901" height="2.901" x="19.98" y="1045.33" ry="0.277" rx="0.265"/><rect width="2.901" height="2.901" x="19.98" y="1048.23" ry="0.277" rx="0.265"/><g transform="scale(-1 1)"><rect width="2.901" height="2.901" x="-25.782" y="1042.43" ry="0.277" rx="0.265"/><rect width="2.901" height="2.901" x="-25.782" y="1045.33" ry="0.277" rx="0.265"/></g><rect width="2.901" height="2.901" x="25.782" y="1045.33" ry="0.277" rx="0.265"/><rect width="2.901" height="2.901" x="25.782" y="1048.23" ry="0.277" rx="0.265"/><rect width="2.901" height="2.901" x="-31.8" y="1042.43" transform="scale(-1 1)" ry="0.277" rx="0.265"/><rect width="2.901" height="2.901" x="31.8" y="1042.43" ry="0.277" rx="0.265"/><rect width="2.901" height="2.901" x="31.8" y="1045.33" ry="0.277" rx="0.265"/><rect width="2.901" height="2.901" x="31.8" y="1048.23" ry="0.277" rx="0.265"/><rect width="2.901" height="2.901" x="-37.602" y="1042.43" transform="scale(-1 1)" ry="0.277" rx="0.265"/><rect width="2.901" height="2.901" x="37.896" y="1045.33" ry="0.277" rx="0.265"/><rect width="2.901" height="2.901" x="37.896" y="1048.23" ry="0.277" rx="0.265"/><g transform="scale(-1 1)"><rect width="2.901" height="2.901" x="-43.698" y="1042.43" ry="0.277" rx="0.265"/><rect width="2.901" height="2.901" x="-43.698" y="1045.33" ry="0.277" rx="0.265"/></g><rect width="2.901" height="2.901" x="43.698" y="1045.33" ry="0.277" rx="0.265"/><rect width="2.901" height="2.901" x="43.698" y="1048.23" ry="0.277" rx="0.265"/></g></g></svg>