<svg xmlns="http://www.w3.org/2000/svg" viewBox="0 0 256 256"><g fill="#547b9a" color="#000"><path d="m -1363.8 1650.47 c 92.76 -229.28 -405.65 -114.61 -172.57 42.475 46.699 31.473 147.56 19.349 172.57 -42.475 z" transform="matrix(0 1.03665 -1.35742 0 2320.78 1657.7)"/></g><path d="m 319.9 60.64 l -3.676 -0.413 l -0.65 -6.194 c -0.917 -8.735 -0.174 -86.35 0.836 -87.36 1.09 -1.088 108.24 -1.087 109.33 0.001 0.458 0.458 0.833 21.248 0.833 46.2 0 35.874 -0.272 45.639 -1.299 46.667 -1.029 1.03 -11.751 1.323 -51.5 1.407 -27.611 0.059 -51.855 -0.079 -53.877 -0.306 z m 90.99 -19.06 c 0.323 -3.349 0.11 -3.547 -5 -4.663 -2.149 -0.469 -2.75 -1.236 -3 -3.834 l -0.313 -3.247 l -18 -0.76 c -9.9 -0.418 -18.563 -0.967 -19.25 -1.219 -0.688 -0.252 -1.25 -1.589 -1.25 -2.971 0 -2.492 -0.709 -2.903 -6.5 -3.773 -1.438 -0.216 -2.14 -1.28 -2.5 -3.789 -0.444 -3.098 -0.892 -3.545 -4 -3.989 -2.898 -0.414 -3.553 -0.961 -3.809 -3.177 -0.467 -4.04 -2.318 -4.956 -9.353 -4.623 l -6.337 0.3 l -0.271 19.762 l -0.271 19.761 l 39.771 -0.261 l 39.771 -0.261 l 0.314 -3.257 z m -7.814 -44.24 v -8 h -8 h -8 v 8 v 8 h 8 h 8 v -8 z" fill="#c9d8e4" transform="matrix(1.12705 0 0 1.12758 -289.78 115.58)"/></svg>