<svg xmlns="http://www.w3.org/2000/svg" viewBox="0 0 256 256"><defs><clipPath><path d="m -24 13 c 0 1.105 -0.672 2 -1.5 2 -0.828 0 -1.5 -0.895 -1.5 -2 0 -1.105 0.672 -2 1.5 -2 0.828 0 1.5 0.895 1.5 2 z" transform="matrix(15.33333 0 0 11.5 415 -125.5)"/></clipPath></defs><path d="m 30.866 188.43 c 86.25 98.99 177.22 63.784 201.17 32.21 c 48.38 -63.804 36.772 -244.54 -139.51 -213.93 -74.15 13.03 -127.11 106.62 -61.66 181.73 z" fill="#007c8a" color="#000"/><rect width="61.46" height="53.965" x="153.55" y="153" rx="6.393" ry="7.114" fill="#ffed29"/><g fill="#012538"><path d="m 176.7 197.64 c -2.095 -5.689 6.076 -13.05 2.039 -17.927 -2.033 -2.416 -2.224 -7.363 -0.38 -9.833 4.535 -6.074 13.535 -3.777 14.247 3.636 0.282 2.939 -0.456 5.247 -2.218 6.935 -3.919 4.723 3.316 11.08 2.173 16.191 -1.666 4.622 -12.246 3.302 -15.862 0.998 z"/><path d="m 160.74 144.5 c 0.303 -7.402 2.255 -12.1 7.07 -17.03 4.435 -4.54 9.645 -6.724 16.03 -6.72 6.376 0.004 12.556 0.878 17.549 5.285 5.794 5.113 8.287 13.426 7.482 21.394 0.999 6.846 -8.835 3.153 -13.44 2.999 l -0.492 -4.208 c -0.576 -4.925 -1.584 -10 -4.353 -11.951 -2.415 -1.701 -9.07 -0.802 -11.663 0.802 -2.643 1.634 -4.16 7.01 -4.534 11.802 l -0.304 3.894 c -4.534 0 -9.07 0 -13.603 0 z"/></g><g transform="matrix(1.04561 0 0 1.11332 -414.81 175.67)"><path d="m 466.91 -26.05 c -0.742 -0.198 -6.87 -0.382 -13.619 -0.41 l -12.27 -0.05 v -30.21 v -30.21 l 8.225 -0.265 c 9.204 -0.296 86.28 -0.294 112.73 0.004 l 17.12 0.193 v 30.18 v 30.18 l -14.697 0.306 c -22.636 0.471 -95.97 0.673 -97.49 0.269 z m 107.37 -4.513 c 1.01 -0.506 1.043 -1.329 1.043 -26.17 0 -23.24 -0.084 -25.708 -0.892 -26.335 -0.747 -0.58 -11.202 -0.672 -64.26 -0.571 -46.21 0.088 -63.56 0.276 -64.1 0.692 -0.604 0.469 -0.736 5.168 -0.736 26.21 0 23.883 0.065 25.671 0.944 26.15 1.322 0.72 126.56 0.742 128 0.023 z" fill="#252525"/><g fill="#fff" stroke="#fff" stroke-width="3.093" transform="matrix(0.87774 0 0 0.7491 402.07 -139.08)"><path d="m 62.745 136.62 c -1.296 -0.993 -1.373 -2.713 -1.156 -25.678 0.191 -20.14 0.436 -24.859 1.353 -25.961 0.979 -1.179 2.282 -1.311 10.4 -1.057 10.743 0.336 13.504 1.321 16.813 5.999 3.388 5.97 4.02 13.847 0.271 18.394 -1.538 1.84 -2.796 3.953 -2.796 4.695 0 0.742 1.441 3.569 3.202 6.283 4.352 6.708 7.752 14.13 7.449 16.258 -0.138 0.967 -0.888 1.879 -1.667 2.028 -2.218 0.423 -4.968 -2.767 -8.346 -9.681 -1.709 -3.499 -3.798 -7.239 -4.642 -8.311 -3.526 -4.483 -12.738 -6.712 -14.458 -3.499 -0.439 0.82 -0.803 5.066 -0.809 9.437 -1 5.856 -0.846 14.507 -5.614 11.09 z m 20.849 -30.731 c 2.93 -3.805 3.14 -9.38 0.511 -12.153 -2.69 -2.807 -8.689 -4.72 -12.763 -4.068 l -2.971 0.475 l 0.012 7.798 c 0.007 4.289 0.266 8.179 0.578 8.646 0.99 1.483 2.75 1.829 7.786 1.531 3.989 -0.236 5.272 -0.653 6.847 -2.229 z"/><path d="m 109.78 137.18 c -0.741 -0.194 -1.608 -1.28 -1.926 -2.414 -0.318 -1.134 -0.578 -12.496 -0.578 -25.25 0 -18.52 0.213 -23.443 1.057 -24.46 1.606 -1.934 15.56 -1.782 22.362 0.244 8.01 2.385 11.786 5.19 14.615 10.851 3.176 9.999 5.149 20.826 -0.379 30.16 -3.571 5.878 -7.443 8.665 -14.162 10.193 -4.896 1.114 -17.733 1.527 -20.989 0.676 z m 19.17 -6.776 c 12.776 -3.794 17.226 -24.752 7.363 -34.677 -3.338 -3.359 -4.79 -4 -12.345 -5.459 -9.02 -1.74 -9.07 -1.695 -9.719 7.959 -0.51 7.615 0.124 31.454 0.871 32.743 4.487 0.613 9.521 0.626 13.831 -0.566 z"/><path d="m 160.43 136.16 c -1.313 -1.451 -1.367 -3.04 -0.884 -26 0.456 -21.651 0.664 -24.566 1.812 -25.418 0.84 -0.624 4.03 -0.957 9.05 -0.946 9.147 0.02 12.203 1.116 17.257 6.192 4 2.993 3.268 5.3 3.082 9.996 -0.446 11.234 -4.14 14.89 -16.362 16.192 -3.346 0.356 -6.459 1.023 -6.917 1.481 -0.458 0.458 -1.023 4.828 -1.254 9.711 -0.315 6.639 -0.708 9.06 -1.557 9.596 -1.712 1.083 -2.682 0.898 -4.222 -0.804 z m 17.639 -27.26 c 4.433 -1.852 5.862 -4.04 5.862 -8.985 0 -3.704 -0.313 -4.685 -2.044 -6.416 -2.684 -2.684 -9.297 -4.628 -12.727 -3.742 l -2.563 0.662 l -0.233 7.272 c -0.128 3.999 -0.026 8.398 0.228 9.775 0.453 2.465 0.527 2.504 4.688 2.504 2.254 -0.247 4.707 -0.242 6.79 -1.071 z"/></g></g></svg>