<svg xmlns="http://www.w3.org/2000/svg" viewBox="0 0 256 256"><path d="m 62.17 237.33 c -225.34 -193.41 237.98 -379.39 190.37 -80.26 -10.438 65.59 -129.65 132.38 -190.37 80.26 z" fill="#7078b7" color="#000"/><g transform="matrix(1.05526 0 0 0.88853 43.828 -9.746)" fill="#fff"><path d="m 49.33 229.38 c -2.668 -0.676 -5.292 -2.54 -6.302 -4.475 -2.166 -4.15 -2.477 -134.65 -0.333 -139.57 1.237 -2.84 5.936 -1.975 7.478 -0.629 0.317 0.277 -1.97 27.974 -1.4 65.56 0.851 56.17 -1.878 69.21 6.957 69.62 2.207 0.101 8.404 1.824 33.12 1.824 17.07 0 31.03 0.33 31.03 0.732 0 2.705 2.197 5.827 -2.521 6.971 -6.694 1.623 -61.6 1.596 -68.04 -0.034 z m 33.966 -17.798 c -5.468 -1.094 -11.243 -1.687 -15.953 -7.194 -4.375 -5.115 -3.925 -19.12 2.045 -22.946 5.232 -7.365 9.68 -4.901 9.721 -14.749 0.027 -23.21 0.137 -25.889 0.741 -43.32 0 -29.384 0.165 -31.25 2.966 -33.699 3.57 -3.117 6.408 -3.282 9.532 -0.555 2.51 2.191 2.621 4.187 2.399 43.27 -0.172 22.864 0.684 21.11 -0.23 37.05 0.274 2.568 -1.601 5.233 1.602 5.934 12.95 5.394 10.911 13.302 10.718 21.551 -0.548 7.399 -9.259 17.512 -23.542 14.656 z m -27.58 -69.11 c 0 -1.726 1.029 -4.102 17.748 -2.863 3.187 6.445 -0.462 6.683 -5.475 7.094 -11.285 0.548 -12.272 -2.505 -12.272 -4.231 z m 0.348 -15.12 c 0.63 -3.566 10.702 -2.732 15.74 -2.732 4.245 0 2.181 3.398 1.247 5 0 0 -18.02 3.562 -16.987 -2.272 z m -0.247 -17.653 c 0.258 -1.671 12.846 -1.818 15.898 -1.261 4.495 0.821 5.408 4.851 -1.067 5.393 -4.114 0.344 -15.811 2.207 -14.831 -4.132 z m 0.56 -15.501 c 0.766 -1.4 2.266 -1.734 14.947 -1.7 6.747 -1.224 2.277 6.223 -0.274 6.412 -15.336 0.581 -15.547 -3.115 -14.673 -4.711 z"/><g stroke="#2f4f4f" stroke-width="0.007"><path d="m 59.56 158.91 c -2.206 -0.576 -3.423 -1.418 -3.829 -2.647 -0.637 -1.931 0.705 -3.135 4.103 -3.681 1.99 -0.319 8.13 -0.382 11.29 -0.114 l 2.071 0.175 l 0.407 1.125 c 0.959 2.65 0.776 3.951 -0.658 4.693 -1.945 1.01 -10.194 1.283 -13.384 0.45 z"/><path d="m 58.74 172.87 c -2.206 -0.576 -3.423 -1.418 -3.829 -2.647 -0.637 -1.931 0.705 -3.135 4.103 -3.681 1.99 -0.319 8.13 -0.382 11.29 -0.114 l 2.071 0.175 l 0.407 1.125 c 0.959 2.65 0.776 3.951 -0.658 4.693 -1.945 1.01 -10.194 1.283 -13.384 0.45 z"/></g></g></svg>