<svg xmlns="http://www.w3.org/2000/svg" viewBox="0 0 256 256"><path d="m 224.7 193.82 c -210.75 226.71 -343.53 -241.2 -63.746 -189.6 73.816 25.452 131.42 116.81 63.746 189.6 z" color="#000"/><path d="m 161.77 189.89 c -0.555 -0.122 -2.454 -0.524 -4.219 -0.894 -1.972 -0.413 -3.924 -1.984 -5.062 -4.074 -1.729 -3.176 -1.692 -3.717 0.566 -8.147 3.03 -5.944 3.02 -6.711 -0.193 -10.834 l -2.612 -3.355 l 2.798 -5.01 l 2.798 -5.01 l -2.582 -4.911 c -2.427 -4.617 -2.474 -5.156 -0.782 -9 0.99 -2.251 1.509 -4.542 1.152 -5.091 -0.357 -0.549 -14.816 -0.997 -32.13 -0.997 h -31.481 l 1.168 5.613 c 0.972 4.672 0.81 6.367 -0.967 10.111 -2.01 4.236 -2.02 4.683 -0.163 7.671 2.527 4.064 2.501 7.901 -0.083 12.223 -1.958 3.274 -1.958 3.602 0 6.876 1.131 1.891 2.056 5.126 2.056 7.19 0 5.171 -3.403 7.226 -11.964 7.226 -5.471 0 -7.21 -0.473 -9.229 -2.511 -2.834 -2.86 -2.551 -8.654 0.584 -11.943 2.402 -2.521 2.286 -4.15 -0.537 -7.56 -2.998 -3.621 -2.963 -6.217 0.156 -11.489 l 2.506 -4.235 l -2.506 -3.343 c -3.17 -4.229 -3.168 -7.259 0.006 -11.338 l 2.512 -3.228 l -2.512 -4.044 c -3.165 -5.095 -3.156 -7.434 0.05 -12.725 l 2.562 -4.229 l -2.562 -3.418 c -3.205 -4.275 -3.241 -7.403 -0.133 -11.549 2.555 -3.408 2.308 -6.476 -0.712 -8.857 -2.461 -1.94 -2.119 -6.111 0.909 -11.11 l 2.626 -4.334 l -2.626 -2.655 c -7.434 -7.517 2.399 -17.61 13.953 -14.322 c 7.06 2.01 9.214 8.687 4.602 14.255 -2.304 2.782 -2.304 2.817 0 7.106 2.905 5.409 2.912 8.538 0.029 12.692 -2.244 3.234 -2.244 3.306 0.008 6.31 2.473 3.299 2.87 7.443 1.233 12.863 l -1.044 3.459 l 11.324 0.712 c 14.506 0.913 27.567 0.911 41.14 -0.004 l 10.792 -0.728 l -0.765 -6.426 c -0.595 -4.993 -0.341 -7 1.137 -9.01 2.413 -3.273 2.403 -5.287 -0.039 -7.85 -2.397 -2.516 -2.348 -8.02 0.103 -11.576 2.482 -3.598 2.313 -6.03 -0.626 -8.997 -2.948 -2.98 -2.29 -7.967 1.479 -11.207 3.379 -2.905 13.904 -2.87 17.309 0.057 3.062 2.632 3.269 8.525 0.457 13.05 -1.904 3.062 -1.904 3.42 0 6.482 2.485 3.997 2.619 10.517 0.253 12.382 -2.209 1.741 -2.195 4.384 0.037 7.188 2.322 2.917 2.178 9.04 -0.307 13.03 -1.651 2.655 -1.761 3.629 -0.585 5.194 3.623 4.82 3.852 6.957 1.344 12.496 l -2.447 5.404 l 2.65 4.374 l 2.65 4.374 l -2.598 5.097 l -2.598 5.097 l 2.599 4.737 l 2.599 4.737 l -2.65 4.745 c -2.569 4.6 -2.588 4.858 -0.621 8.472 4.04 7.417 1.473 13.757 -5.894 14.574 -2.15 0.238 -4.364 0.334 -4.919 0.212 z" fill="#00bf08" stroke="#000" stroke-width="1.145"/></svg>