<svg xmlns="http://www.w3.org/2000/svg" viewBox="0 0 256 256"><g fill="#9048d3" color="#000"><path d="m 59.778 1025.68 c 95.24 84.46 241.79 -48.767 182.53 -160.27 -59.906 -112.74 -258.16 -82.69 -241.3 55.767 5.02 41.2 27.695 76.954 58.764 104.51 z" transform="matrix(0.98937 0 -0.13355 0.99293 123.46 -788.92)"/></g><path d="m 71.02 180.75 c -1.017 -32.14 -3.726 -67.04 -3.726 -101.52 c 36.444 0 68.31 -5.198 104.76 -5.198 3.56 31.706 7.628 59.774 12.713 97.72 -32.24 1.895 -75.51 12.245 -113.74 8.999 z" fill="#fff"/><g transform="matrix(0.71725 0 0 0.68008 22.933 33.918)"><path d="m 145.83 152.99 c -3.515 -6.87 -2.897 -0.229 -7.397 0.334 l -4.819 0.602 v -21.791 c 0 -21.419 0.032 -21.791 1.87 -21.791 2.631 0 5.293 -1.517 9.179 -5.23 2.818 -2.693 3.576 -3.02 4.743 -2.054 1.657 1.375 3.303 5.02 1.028 5.02 -2.551 0 -8.672 1.247 -8.672 3.572 0 3.343 2.067 4.473 5.879 3.215 4.404 -1.453 9.916 -0.69 13.359 1.934 3.989 3.04 1.909 10.611 1.909 10.611 9.15 0.846 -10.469 20.59 -10.756 27.11 0.475 0.475 -3.738 2.885 -5.04 2.885 -0.429 0 -0.576 -3.052 -1.28 -4.427 z" transform="matrix(1.39422 0 0 1.47041 -26.18 -53.695)" fill="#7120f2"/><path d="m 141.68 181.98 c -1.342 -0.821 -1.825 -11.06 -2.073 -43.906 l -0.322 -42.836 h 7.189 c 9.537 0 10.319 -19.969 21.815 -3.075 1.503 2.209 -5.754 15.05 -6.388 15.05 -0.634 0 -1.318 15.12 -1.521 33.61 l -0.369 33.61 l -3.612 0.404 c -1.986 0.222 -5.367 2.169 -7.513 4.326 -4.238 4.262 -4.602 4.404 -7.207 2.811 z" fill="#24ddd3"/><path d="m 138.11 176.61 c -0.872 -4.119 -4.736 -12.13 -12.03 -10.242 l -11.25 0.674 l 4.118 -31.933 c 2.33 -18.07 -1.575 -36.19 -0.983 -36.17 0.592 0.024 4.388 4.052 5.919 5.146 3.647 2.147 10.787 3.096 10.842 -1.139 0 -4.02 3.381 -8.412 5.52 -7.163 2.194 1.281 2.373 84.84 0.182 84.84 -0.809 0 -1.852 -1.806 -2.32 -4.01 z" fill="#50fb69"/><path d="m 93.56 151.83 c -2.853 -1.042 -3 -1.547 -1.16 -3.98 2.651 -3.505 1.774 -4.641 -4.724 -6.122 -9.96 -2.271 -12.9 -3.821 -12.9 -6.805 0 -1.545 0.89 -3.382 2.263 -4.672 3.01 -2.824 2.853 -4.143 -0.622 -5.355 -3.096 -0.793 -1.607 -9.692 -0.567 -10.385 2 -1.31 2.729 -1.273 9.138 0.469 8.22 2.234 11.987 1.8 11.201 -1.292 -1.794 -7.06 -1.798 -7.01 0.818 -9.745 2.792 -2.914 5.02 -3.368 6.688 -1.36 0.785 0.946 0.556 -0.027 -0.149 1.29 1.404 19.826 3.351 46.23 -5.494 47.01 -1.245 0.02 -3.123 1.446 -4.493 0.946 z" transform="matrix(1.39422 0 0 1.47041 -26.18 -53.695)" fill="#fd604a"/><path d="m 144.26 278.52 c -3.58 -25.456 5.434 -38.07 6.891 -39.92 1.551 -1.967 8.872 -19.29 23.286 -9.775 4.32 2.851 5.101 14.686 3.274 20.461 -3.884 12.279 -10.06 22.257 -16.837 27.19 -15.379 2.422 -16.216 11.344 -16.614 2.04 z" fill="#ff0"/><path d="m 189.73 193.69 c -9.02 -4.125 -12.3 -6.14 -12.3 -7.556 0 -0.521 0.86 -2.857 1.91 -5.191 1.051 -2.333 3.429 -7.86 5.284 -12.281 5.099 -12.146 16.593 -35.31 20.377 -41.06 1.845 -2.806 6.553 -11.563 10.461 -19.46 8.342 -16.857 22.637 -43.28 29.342 -54.23 7.465 -12.196 15.483 -19.216 18.713 -16.383 2.801 2.457 0.011 15.388 -7.494 34.718 -8.475 21.832 -30.41 72.8 -41.951 97.48 -10.712 22.904 -13.243 27.707 -14.592 27.696 -0.898 -0.009 -5.286 -1.684 -9.751 -3.726 z" fill="#ce0512"/><g fill="#9b632c" transform="matrix(1.39422 0 0 1.47041 -26.18 -53.695)"><path d="m 66.11 195.77 c -2.407 -1.047 -2.711 -2.694 -7.143 -38.78 -5.96 -48.53 -8.66 -73.95 -7.986 -75.21 c 0.661 -1.236 3.965 -4.087 5.606 -4.839 1.026 -0.47 10.06 -1.329 30.699 -2.92 42.03 -3.24 70.59 -5.36 76.87 -5.706 5.388 -0.297 5.474 -0.286 6.829 0.854 0.968 0.814 1.54 1.866 1.943 3.566 0.913 3.861 4.477 21.693 4.831 24.18 0.178 1.247 0.487 2.474 0.686 2.726 0.449 0.569 -5.849 12.11 -6.417 11.755 -0.224 -0.138 -0.403 -0.699 -0.397 -1.245 0.018 -1.789 -3.34 -24.769 -3.705 -25.357 -0.276 -0.444 -3.306 -0.556 -13.407 -0.496 -29.16 0.537 -35.34 0.925 -53.13 1.221 -20.13 0.337 -31.2 0.888 -31.898 1.585 -1.171 1.171 1.129 78.79 2.371 80.03 0.649 0.649 37.51 -1.052 63.04 -2.908 8.239 -1.536 12.32 -1.977 11.124 -0.763 -2.657 8.098 -5.406 18.265 -7.752 24.283 -7.279 1.764 -30.362 4.323 -32.843 4.632 -35.388 4.407 -36.717 4.522 -39.31 3.393 z"/><path d="m 152.33 186.21 c 4.337 -7.498 9.894 -14.648 13.915 -22.08 0.771 -2.282 0.963 -2.145 5.972 -2.182 2.765 -0.03 5.245 -0.81 5.895 -1.854 0.581 -0.933 -1.378 -10.352 -2.01 -15.922 1.797 -2.572 7.172 -18.983 7.896 -13.415 0.203 1.334 1.287 8.24 2.408 15.348 4.887 30.981 4.903 31.16 2.957 33.1 -1.801 1.801 -4.311 2.422 -19.18 4.746 -12.877 2.01 -16.189 2.617 -17.871 3.262 -0.848 0.325 -0.847 0.3 0.022 -1 z"/></g><path d="m 164.24 227.83 c 0 -4.392 17.544 -56.37 20.293 -59.33 0.908 -0.981 23.859 10.512 24.506 12.271 0.793 2.158 -22.798 42.921 -28.752 49.579 -5.11 3.877 -8.592 7.319 -16.05 -2.516 z" fill="#cecece"/></g></svg>