<svg xmlns="http://www.w3.org/2000/svg" viewBox="0 0 256 256"><path d="m 226.7 204 c 142.6 -277.2 -340.4 -256.5 -199.7 4.88 30.85 57.3 161.3 69.82 199.7 -4.88" style="fill:#9883c1;color:#000"/><g transform="matrix(1.248 0 0 1.186 42.77 -142)"><rect height="105.8" width="105.8" y="177.9" x="13.23" paint-order="normal" rx="15" style="fill:#e3163c"/><path d="m 120.4 168.5 c -1.36 -0.27 -3.15 -1.56 -3.99 -2.85 -3.23 -5 -30.97 -64.9 -30.97 -66.85 0 -2.63 4.95 -6.56 8.26 -6.56 5 0 8.59 5.3 18.28 27.1 5.17 11.63 9.85 21.62 10.41 22.2 1.81 1.84 3.77 -1.58 13.54 -23.61 11.46 -25.85 13.81 -28.4 22.2 -24 2.4 1.24 3.2 2.42 3.2 4.73 0 3.16 -27.53 62.5 -31.1 66.97 -2.1 2.65 -5.77 3.74 -9.88 2.92 z" transform="matrix(0.802 0 0 0.843 -32.54 120.7)" style="fill:#fff"/></g></svg>