<svg xmlns="http://www.w3.org/2000/svg" viewBox="0 0 256 256"><g fill="#808080" color="#000"><path d="m -461.56 1509.46 c -102.66 -72.48 -252.13 71.24 -188.42 177.65 55.11 98.31 215.88 55.803 236.4 -48.33 13.01 -47.39 -5.347 -103.13 -47.986 -129.32 z" transform="matrix(0.83572 0.52252 -0.48833 0.91597 1367.08 -1072.59)" fill-opacity="0.996"/></g><g transform="matrix(7.78639 0 0 7.82522 33.493 36.976)"><path d="M 12,1.781 C 9.274,1.781 6.806,2.858 5,4.625 4.979,4.645 4.959,4.667 4.937,4.688 4.895,4.729 4.853,4.771 4.812,4.813 4.628,4.995 4.445,5.179 4.281,5.376 2.944,6.981 2.129,9.032 2,11.251 c -0.011,0.197 -0.031,0.394 -0.031,0.594 0,0.2 0.02,0.397 0.031,0.594 0.135,2.312 1.033,4.403 2.469,6.03 0.029,0.033 0.064,0.061 0.094,0.094 0.113,0.124 0.225,0.256 0.344,0.375 0.101,0.098 0.21,0.187 0.313,0.281 1.65,1.519 3.798,2.486 6.188,2.625 0.197,0.011 0.394,0.031 0.594,0.031 0.2,0 0.397,-0.02 0.594,-0.031 2.405,-0.14 4.564,-1.12 6.219,-2.656 0.091,-0.084 0.191,-0.163 0.281,-0.25 0.16,-0.16 0.32,-0.33 0.469,-0.5 1.419,-1.624 2.304,-3.704 2.438,-6 0.011,-0.197 0.031,-0.394 0.031,-0.594 0,-0.2 -0.02,-0.397 -0.031,-0.594 C 21.874,9.031 21.059,6.98 19.722,5.375 19.529,5.145 19.313,4.93 19.097,4.719 19.066,4.687 19.035,4.656 19.003,4.625 17.197,2.858 14.729,1.781 12.003,1.781 z"/><path d="m 11.25,2.906 c -0.097,0 -0.375,0.028 -0.594,0.063 C 8.893,3.244 7.301,4.006 5.937,5.219 L 5.718,5.407 5.937,5.595 C 6.309,5.923 6.591,6.155 6.968,6.408 7.174,6.545 7.359,6.645 7.374,6.627 7.389,6.609 7.535,6.414 7.687,6.189 8.046,5.658 8.683,4.899 9.125,4.501 9.639,4.038 10.393,3.47 10.938,3.157 c 0.469,-0.27 0.486,-0.251 0.313,-0.25 z m 1.563,0 c -0.133,-0.013 -0.188,0.013 -0.188,0.031 0,0.018 0.199,0.14 0.438,0.281 1.284,0.76 2.576,2 3.344,3.219 0.073,0.115 0.162,0.219 0.188,0.219 0.13,0 1.656,-1.152 1.656,-1.25 0,-0.015 -0.148,-0.137 -0.313,-0.281 C 16.683,4.02 15.125,3.265 13.469,3 13.162,2.951 12.946,2.92 12.813,2.906 z M 11.407,4.187 11.282,4.25 C 11.06,4.365 10.441,4.831 10.032,5.188 9.585,5.577 8.921,6.296 8.563,6.813 L 8.344,7.126 8.563,7.22 c 0.626,0.271 1.608,0.556 2.375,0.656 0.243,0.032 0.431,0.059 0.438,0.063 0.006,0.003 0.031,-0.841 0.031,-1.875 V 4.189 z M 12.626,4.25 V 6.094 7.907 L 12.97,7.876 C 13.812,7.8 15.645,7.273 15.595,7.126 15.54,6.966 14.917,6.216 14.501,5.782 14.023,5.283 13.187,4.554 12.813,4.344 L 12.625,4.25 z m -7.594,2 -0.094,0.094 C 4.678,6.677 4.306,7.286 4.094,7.688 3.516,8.785 3.257,9.62 3.063,11.094 L 3.032,11.25 H 4.501 5.939 L 6.002,10.719 C 6.095,9.788 6.377,8.709 6.721,7.906 L 6.846,7.625 6.408,7.312 C 6.169,7.152 5.762,6.841 5.502,6.624 L 5.033,6.249 z m 13.938,0 -0.438,0.375 C 18.05,7.038 17.73,7.255 17.344,7.5 l -0.25,0.156 0.094,0.188 c 0.346,0.79 0.624,1.922 0.719,2.875 l 0.063,0.531 h 1.5 1.469 V 11 C 20.808,9.845 20.526,8.865 20.033,7.875 19.796,7.398 19.307,6.671 19.064,6.375 L 18.97,6.25 z M 7.845,8.125 7.657,8.5 C 7.359,9.224 7.158,10.03 7.063,10.813 7.038,11.019 7.032,11.2 7.032,11.219 c 0,0.019 0.984,0.031 2.188,0.031 h 2.188 V 10.125 9 L 11.22,8.969 C 11.129,8.956 10.94,8.953 10.782,8.938 10.026,8.864 8.97,8.587 8.219,8.282 L 7.844,8.126 z m 8.25,0.031 c -0.03,0 -0.198,0.052 -0.375,0.125 -0.7,0.289 -1.82,0.59 -2.531,0.656 -0.17,0.016 -0.371,0.019 -0.438,0.031 l -0.125,0.031 v 1.125 1.125 h 2.125 2.125 V 10.968 C 16.823,10.462 16.641,9.63 16.532,9.249 16.375,8.7 16.156,8.155 16.094,8.155 z m -13.03,4.281 v 0.219 c 0.115,0.957 0.287,1.658 0.563,2.375 0.318,0.827 0.836,1.726 1.375,2.406 0.101,0.128 0.175,0.219 0.188,0.219 0.012,0 0.161,-0.091 0.313,-0.219 0.331,-0.28 0.93,-0.739 1.219,-0.906 0.115,-0.067 0.239,-0.138 0.25,-0.156 C 6.984,16.357 6.891,16.147 6.785,15.906 6.375,14.97 6.111,13.943 6.004,12.937 l -0.063,-0.5 H 4.503 3.065 z m 4.281,0 c -0.29,0.01 -0.313,0.057 -0.313,0.094 0.002,0.206 0.121,1.02 0.219,1.406 0.142,0.558 0.24,0.845 0.5,1.438 0.116,0.265 0.217,0.468 0.219,0.469 0.002,0 0.193,-0.072 0.406,-0.156 0.727,-0.285 1.728,-0.547 2.438,-0.625 0.134,-0.015 0.315,-0.018 0.406,-0.031 l 0.188,-0.031 V 13.72 12.439 H 9.221 c -1.027,0 -1.585,-0.01 -1.875,0 z m 5.281,0 v 1.281 1.281 l 0.156,0.031 c 0.079,0.012 0.26,0.017 0.406,0.031 0.667,0.065 1.745,0.332 2.406,0.594 0.182,0.072 0.356,0.155 0.375,0.156 0.098,0.007 0.543,-1.241 0.688,-1.906 0.082,-0.377 0.216,-1.238 0.219,-1.406 0.001,-0.043 -0.457,-0.063 -2.125,-0.063 h -2.125 z m 5.313,0 v 0.188 c -0.001,0.257 -0.109,0.996 -0.219,1.5 -0.098,0.451 -0.439,1.503 -0.625,1.906 l -0.125,0.25 0.313,0.188 c 0.357,0.212 0.886,0.597 1.281,0.938 l 0.281,0.25 0.188,-0.25 c 1.032,-1.275 1.702,-2.921 1.906,-4.719 v -0.25 h -1.5 -1.5 z m -6.563,3.688 c -0.027,-0.027 -0.948,0.102 -1.313,0.188 -0.612,0.144 -1.5,0.463 -1.5,0.531 0,0.016 0.139,0.21 0.313,0.438 0.571,0.749 1.367,1.514 2.156,2.031 l 0.344,0.219 v -1.688 c 0.006,-0.929 0.007,-1.711 0,-1.719 z m 1.25,0 v 1.656 1.656 l 0.188,-0.094 c 0.517,-0.314 1.352,-1.049 1.781,-1.531 0.415,-0.467 0.818,-1.026 0.781,-1.063 -0.068,-0.067 -0.755,-0.266 -1.219,-0.375 -0.423,-0.099 -0.642,-0.158 -1.375,-0.25 h -0.156 z m 3.781,1.156 c -0.039,-0.01 -0.044,-0.002 -0.063,0.031 -0.137,0.244 -0.799,1.067 -1.188,1.469 -0.692,0.716 -1.465,1.318 -2.188,1.719 -0.188,0.104 -0.343,0.219 -0.344,0.25 0,0.04 0.057,0.047 0.156,0.031 0.079,-0.012 0.253,-0.048 0.375,-0.063 1.64,-0.193 3.448,-0.996 4.656,-2.063 l 0.219,-0.188 -0.125,-0.125 c -0.386,-0.337 -0.84,-0.668 -1.281,-0.938 -0.107,-0.065 -0.18,-0.115 -0.219,-0.125 z m -8.875,0.063 c -0.076,0 -0.874,0.565 -1.25,0.875 l -0.313,0.25 0.281,0.219 c 1.336,1.12 2.971,1.847 4.688,2.063 0.17,0.021 0.358,0.028 0.406,0.031 0.048,0.003 -0.125,-0.106 -0.375,-0.25 C 9.858,19.889 8.873,19.026 8.064,18.001 7.919,17.817 7.744,17.59 7.689,17.501 7.634,17.412 7.562,17.345 7.533,17.345 z" fill="#e6e6e6"/></g></svg>