<svg xmlns="http://www.w3.org/2000/svg" viewBox="0 0 256 256"><g color="#000" fill="#6d549a"><path d="m 59.778 1025.68 c 95.24 84.46 241.79 -48.767 182.53 -160.27 -59.906 -112.74 -258.16 -82.69 -241.3 55.767 c 5.02 41.2 27.695 76.954 58.764 104.51 z" transform="translate(0 -796.36)"/></g><g transform="matrix(0.90899 0 0 0.89318 11.137 7.577)"><path d="m 48.961 173.01 l 0.243 -45.843 l 0.243 -45.843 l 2.718 -2.299 c 66.13 -41.07 8.03 -4.945 69.57 -42.729 2.205 -2.482 2.784 -2.715 6.755 -2.715 3.784 0 4.834 0.369 8.162 2.871 63.26 38.81 3.731 3.936 71.09 43.37 l 2.237 2.37 l 0.4 46.37 c 0.309 35.815 0.184 46.632 -0.547 47.524 -79.66 43.01 -5.098 3.807 -81.892 45.33 -83.79 -50.886 -5.675 -2.792 -78.986 -48.4 z" fill="#c6c8c5" stroke="#c6c8c5" stroke-width="0.695"/><path d="m 126.42 183.38 c -6.675 -0.366 -7.713 -0.602 -9.323 -2.122 l -1.812 -1.71 v -25.681 v -25.681 c 1.371 -1.375 2.742 -2.75 4.114 -4.124 h 9.233 c 8.877 0 9.3 0.067 10.969 1.74 l 1.736 1.74 l -0.184 26.579 l -0.184 26.579 l -1.759 1.279 c -2.351 1.709 -3.958 1.885 -12.788 1.401 z m -48.701 -67.11 c -5.508 -0.659 -6.071 -1.845 -5.799 -12.209 0.25 -9.543 0.903 -11.42 4.313 -12.4 1.161 -0.333 25.448 -0.647 53.972 -0.696 l 51.861 -0.09 l 0.795 1.489 c 2.036 5.441 -14.364 19.869 -18.726 22.973 -1.851 1.216 -4.403 1.295 -42.473 1.318 -22.277 0.014 -42.05 -0.16 -43.943 -0.387 z" fill="#50387e"/></g></svg>