<svg xmlns="http://www.w3.org/2000/svg" xmlns:xlink="http://www.w3.org/1999/xlink" viewBox="0 0 256 256"><defs><path d="m 245.46 129.52 l -97.89 -96.9 c -5.556 -5.502 -16.222 -11.873 -23.7 -14.16 l -39.518 -12.08 c -7.479 -2.286 -18.1 0.391 -23.599 5.948 l -13.441 13.578 c -5.5 5.559 -14.502 14.653 -20 20.21 l -13.44 13.579 c -5.5 5.558 -8.07 16.206 -5.706 23.658 l 12.483 39.39 c 2.363 7.456 8.843 18.06 14.399 23.556 l 97.89 96.9 c 5.558 5.502 14.605 5.455 20.1 -0.101 l 36.26 -36.63 c 5.504 -5.559 14.503 -14.651 20 -20.21 l 36.26 -36.629 c 5.502 -5.56 5.455 -14.606 -0.101 -20.11 z m -178.09 -50.74 c -7.198 0 -13.03 -5.835 -13.03 -13.03 0 -7.197 5.835 -13.03 13.03 -13.03 7.197 0 13.03 5.835 13.03 13.03 -0.001 7.198 -5.836 13.03 -13.03 13.03 z" id="0"/><use id="1" xlink:href="#0"/><clipPath id="2"><use xlink:href="#0"/></clipPath><clipPath clip-path="url(#2)"><use xlink:href="#1"/></clipPath><clipPath clip-path="url(#2)"><use xlink:href="#1"/></clipPath></defs><g fill="#2f4f4f" color="#000"><path d="m 128.42 795.13 c 168.87 -19.553 166.53 260.33 -3.01 257.01 -157.67 9.224 -171.9 -272.26 3.01 -257.01 z" transform="matrix(0 -1.0105 -0.97965 0 1032.9 257.98)"/></g><rect width="134.13" height="102.53" x="62.17" y="65.32" rx="10.847" fill="#fff"/><path d="m 129.56 117.53 v -52.577 c 22.255 -1.648 43.905 1.425 65.864 4.341 5.166 33.12 4.52 63.831 0.969 96.47 -17.757 4.341 -44.717 4.341 -66.833 4.341 z" fill="#f2e1df"/><path d="m 129.8 226.82 c 0.271 -8.211 -3.952 -21.276 0.915 -27.726 0.87 -0.334 23.384 -0.607 50.03 -0.607 38.431 0 49.12 -0.279 51.684 -1.351 4.295 -1.795 9.46 -7.812 10.195 -11.878 0.325 -1.799 0.46 -35.03 0.299 -73.85 l -0.292 -70.58 l -2.884 -3.781 c -5.48 -7.183 -7.274 -7.516 -40.666 -7.541 -30.11 -0.022 -31.95 0.195 -31.95 3.777 0 3.146 -3.551 8.538 -7.225 10.968 -9.738 3.338 -16.83 5.313 -28.21 2.839 l -2.569 -0.645 c 0 -9.624 0 -19.248 0 -28.871 l 3.25 -0.609 c 1.787 -0.335 24.896 -0.468 51.35 -0.295 l 48.1 0.313 l 6.859 3.5 c 7.125 3.635 13.598 10.53 14.952 15.925 0.353 1.405 1.168 2.88 1.812 3.278 1.759 1.087 1.681 147.96 -0.079 148.55 -0.688 0.229 -1.25 1.191 -1.25 2.138 0 2.689 -5.314 10.401 -9.607 13.942 -7.802 6.435 -11.698 7.169 -38.18 7.185 -28.05 0.017 -28.99 0.272 -30.694 8.321 -0.33 1.56 -2.152 6.327 -3.48 7.655 -13.09 0.515 -25.871 2.67 -42.37 -0.657 z" fill="#03618e" transform="matrix(0.59706 0 0 0.57584 51 52.25)"/><path d="m 64.963 199.47 c -5.178 -0.353 -9 -3.424 -11.978 -9.622 -2.023 -4.213 -1.687 -6.98 1.137 -9.346 2.01 -1.684 2.695 -1.917 7.625 -2.588 3.46 -0.471 20.872 -0.338 29.823 0.228 l 6.414 0.405 c 1.184 2.404 2.314 5.02 4.125 6.98 l 1.55 1.643 h 12.07 h 14.02 c 0.145 4.3 0.88 7.706 0.296 11.945 l -32.31 0.713 c -16.09 0.355 -30.838 -0.226 -32.773 -0.358 z" fill="#2999ff"/><path d="m 130.93 187.07 l 13.692 -0.554 c 11.259 -0.455 11.812 -0.058 13.382 -1.437 2.362 -2.949 3.275 -6.521 6.194 -6.979 1.553 -0.237 5.853 -0.471 9.557 -0.519 3.704 -0.048 9.909 -0.319 13.789 -0.601 10.894 -0.792 17.553 0.537 19.271 3.846 1.234 2.378 1.184 7.172 -0.102 9.715 -1.45 2.866 -4.635 6.091 -7.439 7.53 -2.251 1.156 -4.132 1.222 -34.794 1.222 h -33.805 c 0.822 -4.22 -0.219 -8.88 0.253 -12.222 z" fill="#3e7eff"/><path d="m 100.1 175.43 c -0.648 -0.346 -7.936 -0.821 -16.194 -1.055 -12.435 -0.354 -15.482 -0.627 -17.731 -1.589 -4.197 -1.796 -7.229 -4.407 -9.907 -8.529 l -2.45 -3.772 v -42.3 v -42.3 l 1.728 -3.079 c 2.29 -4.081 5.665 -7.358 9.356 -9.09 2.975 -1.393 3.394 -1.41 33.484 -1.41 h 30.472 v 8.304 v 8.304 l -7.536 -0.002 c -9.02 -0.003 -10.768 -0.754 -13.291 -5.713 -1.048 -2.06 -2.159 -3.338 -3.106 -3.575 -0.811 -0.203 -9.418 -0.279 -19.13 -0.171 l -17.652 0.198 c -1.853 1.542 -4.247 2.894 -5.501 4.977 -0.625 1.088 -0.852 10.931 -0.993 42.966 l -0.182 41.554 c 1.407 2.165 3.05 4.401 5.124 5.828 l 2.164 1.452 h 30.554 h 30.554 c -0.448 4.071 -0.751 8.297 -0.495 12.269 2.965 8.091 4.181 4.757 -7.725 4.853 l -16.511 0.125 c -2.51 -2.203 -3.112 -6.329 -5.04 -8.249 z" fill="#0085a9"/><path d="m 124.38 157.19 c -16.647 -2.792 -29.351 -17.437 -29.351 -33.835 0 -9.01 3.089 -16 10.19 -23.05 5.919 -5.878 12.05 -9.14 19.2 -10.211 2.585 -0.387 4.791 -0.607 4.903 -0.488 0.458 5.307 0.487 9.371 0.663 15.07 l -1.718 0.646 c -2.331 0.876 -4.475 4.414 -3.316 7.201 0.439 1.055 2.324 2.924 3.17 3.476 2.098 1.369 1.958 3.281 -0.327 4.458 -1.769 0.911 -1.889 1.239 -2.315 6.334 -0.735 8.792 0.504 14.456 3.361 15.359 1 0.317 1.139 1.223 1.139 7.554 0 4.057 -0.28 7.399 -0.641 7.663 -3.401 0.487 -1.477 0.413 -4.962 -0.171 z" fill="#2999ff"/><path d="m 129.78 150.34 l 0.025 -7.506 l 2.06 -1.29 c 1.764 -1.105 2.131 -1.794 2.553 -4.791 -0.121 -4.67 1.576 -12.277 -1.611 -15.797 -0.743 -0.791 -1.7 -1.437 -2.126 -1.437 -1.77 -1.326 -0.95 -3.146 0.487 -3.443 1.373 -0.274 2.11 -0.983 2.848 -2.744 1.335 -3.181 0.387 -6.482 -2.317 -8.07 l -1.943 -1.143 c 0 -4.873 0 -9.747 0 -14.62 h 2.751 c 7.362 0 16.06 3.991 22.304 10.233 7.159 7.158 10.22 14.169 10.22 23.406 0 10.04 -2.946 17.296 -9.735 23.965 -6.298 6.187 -16.332 10.747 -23.647 10.747 h -1.893 l 0.025 -7.506 z" fill="#3e7eff"/></svg>