<svg xmlns="http://www.w3.org/2000/svg" xmlns:xlink="http://www.w3.org/1999/xlink" viewBox="0 0 256 256"><defs><linearGradient id="8" gradientUnits="userSpaceOnUse" x1="93.87" x2="169.44"><stop stop-color="#28ac3b"/><stop stop-color="#0fa123" offset="0.5"/><stop stop-color="#63da74" offset="1"/></linearGradient><linearGradient y2="233.02" x2="190.63" y1="161.36" x1="181.04" gradientUnits="userSpaceOnUse" id="5" xlink:href="#3"/><linearGradient y2="88.14" x2="0" y1="15.432" gradientUnits="userSpaceOnUse" id="7" xlink:href="#1"/><linearGradient y2="87.62" x2="190.63" y1="15.951" x1="181.04" gradientUnits="userSpaceOnUse" id="6" xlink:href="#3"/><linearGradient y2="160.85" x2="0" y1="88.14" gradientUnits="userSpaceOnUse" id="4" xlink:href="#1"/><linearGradient id="3"><stop stop-color="#76e99d"/><stop stop-color="#00561c" offset="1"/></linearGradient><linearGradient y2="233.55" x2="0" y1="160.84" gradientUnits="userSpaceOnUse" id="0" xlink:href="#1"/><linearGradient y2="160.32" x2="45.22" y1="88.66" x1="35.634" gradientUnits="userSpaceOnUse" id="2" xlink:href="#3"/><linearGradient id="1"><stop stop-color="#5acc6b"/><stop stop-color="#229e33" offset="0.5"/><stop stop-color="#196f26" offset="1"/></linearGradient></defs><g color="#000"><path d="m 251.51 174.46 c 44.46 -360.62 -466.7 -61.711 -139.69 70.74 57.45 20.313 122.09 2.679 139.69 -70.74 z" fill="#1f8c2e"/><path d="m 241.99 170.83 c 40.832 -332.49 -428.62 -56.898 -128.29 65.22 52.763 18.729 112.13 2.47 128.29 -65.22 z" fill="#000511"/></g><g transform="matrix(0.59949 0 0 0.56195 51.976 60.47)" enable-background="new"><g transform="matrix(1.024 0 0 1.024 -10.168 -10.168)" fill="none" stroke="url(#8)" stroke-width="7.272"><path d="m 94.87 131.48 c 37.32 0 37.38 -70.41 73.57 -70.41"/><path d="m 94.87 131.89 c 36.708 0 37.03 70.985 73.57 70.985"/></g><g fill="url(#4)" fill-rule="evenodd" stroke="none"><rect rx="17.08" y="88.65" x="15.944" height="71.68" width="71.68" ry="18.222"/><rect rx="17.08" y="88.65" x="15.944" height="71.68" width="71.68" ry="18.222" opacity="0.5"/></g><rect rx="16.831" y="89.16" x="16.456" height="70.66" width="70.66" ry="17.955" fill="none" stroke="url(#2)" stroke-linejoin="round" stroke-linecap="round" stroke-width="2.048"/><g fill-rule="evenodd" stroke="none"><g fill="url(#0)"><rect rx="17.08" y="161.35" x="161.35" height="71.68" width="71.68" ry="18.222"/><rect rx="17.08" y="161.35" x="161.35" height="71.68" width="71.68" ry="18.222" opacity="0.5"/></g><g fill="url(#7)"><rect rx="17.08" y="15.944" x="161.35" height="71.68" width="71.68" ry="18.222"/><rect rx="17.08" y="15.944" x="161.35" height="71.68" width="71.68" ry="18.222" opacity="0.5"/></g></g><g fill="none" stroke-linejoin="round" stroke-linecap="round" stroke-width="2.048"><rect rx="16.831" y="16.456" x="161.86" height="70.66" width="70.66" ry="17.955" stroke="url(#6)"/><rect rx="16.831" y="161.86" x="161.86" height="70.66" width="70.66" ry="17.955" stroke="url(#5)"/></g></g></svg>