<svg xmlns="http://www.w3.org/2000/svg" viewBox="0 0 256 256" xmlns:xlink="http://www.w3.org/1999/xlink"><defs><path id="0" d="m 54.55 79.892 a 4.675 4.156 0 1 1 -9.351 0 4.675 4.156 0 1 1 9.351 0 z"/></defs><g fill="#4b5aa7" color="#000"><path d="m 224.14 44.41 c 146.93 229.2 -260.32 305.82 -218.37 59.31 22.23 -98.04 150.45 -139.27 218.37 -59.31 z" transform="matrix(1 0 0.02182 1 -2.817 0)"/></g><g transform="matrix(0.81454 0 0 0.8492 8.471 11.58)"><rect ry="13.503" rx="12.198" y="69.71" x="39.22" height="146.19" width="210.47" fill="#a3abcc"/><rect width="190.43" height="111.63" x="50.15" y="95.41" rx="12.836" ry="11.667" fill="#fff"/><g fill="#4b5aa7"><path d="m 73.51 195.26 c -4.403 -1.829 -7.495 -5.99 -7.491 -10.08 0.004 -3.992 2.419 -8.382 5.492 -9.984 1.124 -0.586 4.37 -1.474 7.214 -1.974 l 5.171 -0.91 l 12.313 -13.09 l 12.313 -13.09 l 0.034 -5.075 c 0.055 -8.386 4.517 -13.11 12.384 -13.11 4.886 0 8.547 3.212 10.604 9.304 1.44 4.266 2.154 5.05 8.593 9.474 3.862 2.652 10.09 6.592 13.841 8.754 l 6.819 3.932 l 6.256 -1.01 c 7.266 -1.169 7.9 -1.726 21.445 -18.855 l 7.88 -9.965 l 0.003 -5.682 c 0.003 -6.819 2.049 -10.67 6.639 -12.499 3.899 -1.554 6.975 -1.543 10.173 0.034 4.392 2.166 6.242 5.217 6.242 10.293 0 3.957 -0.376 4.94 -2.882 7.538 -2.32 2.405 -3.926 3.176 -8.23 3.952 -4.682 0.844 -5.695 1.392 -8.131 4.4 -1.531 1.89 -6.601 8.194 -11.268 14.01 l -8.485 10.572 l -0.015 5.498 c -0.018 6.624 -2.116 10.508 -6.651 12.315 -3.925 1.564 -6.132 1.536 -9.8 -0.124 -3.577 -1.619 -5.661 -4.471 -7.02 -9.612 -0.903 -3.412 -1.716 -4.308 -7.179 -7.92 -3.388 -2.24 -9.466 -5.984 -13.506 -8.32 l -7.345 -4.248 l -7.358 0.585 l -7.358 0.585 l -12.443 13.27 l -12.443 13.27 l -0.621 5.535 c -0.747 6.657 -3.037 10.563 -7.153 12.203 -3.692 1.471 -4.553 1.474 -8.03 0.028 z"/><path d="m 121.29 85.83 c -6.102 -0.305 -6.549 -0.464 -7.03 -2.501 -0.882 -3.698 0.028 -4.533 5.603 -5.146 6.533 -0.719 110.77 -0.77 114.16 -0.057 1.361 0.286 2.957 1.336 3.548 2.332 0.923 1.555 0.823 2.075 -0.708 3.688 -1.777 1.871 -1.947 1.877 -55.42 1.944 -29.5 0.037 -56.57 -0.08 -60.15 -0.259 z"/></g></g><g fill="#f0582f"><use transform="matrix(1.38889 0 0 1.5 -17.06 -37.868)" xlink:href="#0"/><use transform="matrix(1.38889 0 0 1.5 0.087 -38.39)" xlink:href="#0"/><use transform="matrix(1.38889 0 0 1.5 17.749 -38.39)" xlink:href="#0"/><use transform="matrix(1.38889 0 0 1.5 76.71 35.609)" xlink:href="#0"/></g><use transform="matrix(1.38889 0 0 1.5 37.535 9.888)" fill="#9acd32" xlink:href="#0"/><use transform="matrix(1.38889 0 0 1.5 2.317 48.667)" fill="#00bfff" xlink:href="#0"/></svg>