<svg xmlns="http://www.w3.org/2000/svg" viewBox="0 0 256 256"><defs><clipPath><path d="m 27.707 56.824 h 82.29 v 139.69 h -82.29"/></clipPath><clipPath><path d="m 74 56.824 h 129 v 139.69 h -129"/></clipPath><clipPath><path d="m 148 97 h 77.63 v 24 h -77.62"/></clipPath><clipPath><path d="m 171 132 h 54.625 v 24 h -54.625"/></clipPath></defs><path d="m 57.2 27.353 c 128.24 -91.66 265.88 77.62 162.36 185.6 c -97.52 101.74 -256.46 7.417 -211.36 -119.18 9.409 -26.414 25.458 -49.591 48.998 -66.42 z" fill="#fe4c6d" color="#000"/><g transform="matrix(0.72443 0 0 0.72779 45.69 30.771)"><path d="m 24.22 219.41 l -2.59 -3.206 v -77.49 v -77.49 l 2.59 -3.206 l 2.59 -3.206 h 87.41 h 87.41 l 2.59 3.206 l 2.59 3.206 v 77.49 v 77.49 l -2.59 3.206 l -2.59 3.206 h -87.41 h -87.41 l -2.59 -3.206 z m 174.62 -80.7 v -74.04 l -84.39 0.28 l -84.39 0.28 l -0.23 72.39 c -0.126 39.812 -0.039 73 0.194 73.76 0.334 1.083 18.08 1.371 84.62 1.371 h 84.2 v -74.04 z"/><g fill="#fff"><path d="m 92.5 173.74 c -4.695 -1.356 -5.783 -4.554 -6.478 -19.04 -0.334 -6.967 -0.871 -12.667 -1.192 -12.667 -0.322 0 -5.085 4.974 -10.586 11.05 -11.417 12.618 -13.942 14.467 -16.401 12.01 -1.441 -1.441 -1.61 -4.19 -1.61 -26.23 0 -25.579 0.308 -27.711 4.01 -27.711 0.792 0 6.635 5.136 12.984 11.414 6.35 6.277 11.556 11.01 11.569 10.526 0.139 -5.03 3.768 -27.04 4.596 -27.872 1.376 -1.379 29.443 -2.193 53.51 -1.553 15.244 0.405 17.81 0.69 19.257 2.139 1.536 1.537 1.67 4.177 1.67 32.947 0 28.01 -0.164 31.441 -1.567 32.844 -1.186 1.186 -4.257 1.748 -12.631 2.313 -15.1 1.017 -53.41 0.898 -57.13 -0.178 z m 42.542 -13.589 c 10.04 -3.587 16.538 -17.921 13.34 -29.435 -1.093 -3.935 -7.275 -10.443 -12.621 -13.285 -5.169 -2.749 -14.471 -2.751 -19.648 -0.005 -7.815 4.145 -12.579 12.03 -12.605 20.869 -0.021 7.191 1.301 11.19 5.21 15.757 6.876 8.03 15.39 10.01 26.324 6.099 z"/><path d="m 119.67 150.43 c -4.01 -2.039 -7.766 -7.739 -7.766 -11.785 0 -2.972 5.232 -10.402 8.522 -12.1 6.582 -3.404 14.49 -0.029 18.19 7.762 2.103 4.432 1.144 8.548 -3.11 13.339 -4.432 4.992 -9.679 5.916 -15.833 2.787 z"/><path d="m 38.616 103.99 c -0.77 -0.77 -0.808 -25.26 -0.044 -28.11 0.496 -1.851 1.249 -2.095 7.238 -2.339 9.719 -0.397 19.981 0.485 21.328 1.832 2.289 2.29 -0.794 3.275 -11.77 3.76 l -10.826 0.478 v 11.02 c 0 6.06 -0.256 11.686 -0.568 12.5 -0.565 1.472 -4.167 2.047 -5.358 0.856 z"/><path d="m 188.88 103.99 c 0.77 -0.77 0.808 -25.26 0.044 -28.11 -0.496 -1.851 -1.249 -2.095 -7.238 -2.339 -9.719 -0.397 -19.981 0.485 -21.328 1.832 -2.289 2.29 0.794 3.275 11.77 3.76 l 10.826 0.478 v 11.02 c 0 6.06 0.256 11.686 0.568 12.5 0.565 1.472 4.167 2.047 5.358 0.856 z"/><path d="m 189.82 172.32 c 0.77 0.77 0.808 25.26 0.044 28.11 -0.496 1.851 -1.249 2.095 -7.238 2.339 -9.719 0.397 -19.981 -0.485 -21.328 -1.832 -2.289 -2.29 0.794 -3.275 11.77 -3.76 l 10.826 -0.478 v -11.02 c 0 -6.06 0.256 -11.686 0.568 -12.5 0.565 -1.472 4.167 -2.047 5.358 -0.856 z"/><path d="m 38.616 172.32 c -0.77 0.77 -0.808 25.26 -0.044 28.11 0.496 1.851 1.249 2.095 7.238 2.339 9.719 0.397 19.981 -0.485 21.328 -1.832 2.289 -2.29 -0.794 -3.275 -11.77 -3.76 l -10.826 -0.478 v -11.02 c 0 -6.06 -0.256 -11.686 -0.568 -12.5 -0.565 -1.472 -4.167 -2.047 -5.358 -0.856 z"/></g></g></svg>