<svg xmlns="http://www.w3.org/2000/svg" viewBox="0 0 256 256"><path d="m 3.25 953.66 c 49.981 239.91 393.86 -17.642 187.29 -139.59 -80.25 -52.27 -213 16.2 -187.29 139.59 z" fill="#f5f5f5" color="#000" transform="translate(0 -796.36)"/><path d="m 142.99 178.8 c -1.205 -2.023 0.299 -7.367 3.343 -11.875 3.044 -4.508 5.534 -11.77 5.534 -16.14 0 -4.368 2.398 -10.01 5.328 -12.529 2.931 -2.523 5.328 -6.669 5.328 -9.213 0 -2.544 -2.398 -6.69 -5.328 -9.213 -2.931 -2.523 -5.328 -8.213 -5.328 -12.645 0 -4.431 -2.347 -11.276 -5.215 -15.21 -6.563 -9 -6.755 -12.681 -0.664 -12.681 7.254 0 16.183 11.992 18.718 25.14 1.483 7.691 5.489 13.359 11.587 16.391 11.471 5.704 12.02 14.361 1.226 19.273 -5.01 2.279 -9.445 8.889 -11.639 17.338 -5.075 19.552 -17.218 30.885 -22.89 21.363 z"/><path d="m 103.06 180.19 c 1.205 -2.023 -0.299 -7.367 -3.343 -11.875 -3.044 -4.508 -5.534 -11.77 -5.534 -16.14 0 -4.368 -2.398 -10.01 -5.328 -12.529 -2.931 -2.523 -5.328 -6.669 -5.328 -9.213 0 -2.544 2.398 -6.69 5.328 -9.213 2.931 -2.523 5.328 -8.213 5.328 -12.645 0 -4.431 2.347 -11.276 5.215 -15.21 6.563 -9 6.755 -12.681 0.664 -12.681 -7.254 0 -16.183 11.992 -18.718 25.14 -1.483 7.691 -5.489 13.359 -11.587 16.391 -11.471 5.704 -12.02 14.361 -1.226 19.273 5.01 2.279 9.445 8.889 11.639 17.338 5.075 19.552 17.218 30.885 22.89 21.363 z"/></svg>