<svg xmlns="http://www.w3.org/2000/svg" viewBox="0 0 256 256"><defs><clipPath><path d="m 74 56.824 h 129 v 139.69 h -129"/></clipPath><clipPath><path d="m 56.05 88.05 v 59.937 h 70.875 v -59.937 h -24.406 v 2.156 c -6.249 -1.879 -13.204 -1.849 -19.438 0.094 v -2.25 h -27.03 z"/></clipPath><clipPath><path d="m 27.707 56.824 h 82.29 v 139.69 h -82.29"/></clipPath><clipPath><path d="m 171 132 h 54.625 v 24 h -54.625"/></clipPath><clipPath><path d="m -24 13 c 0 1.105 -0.672 2 -1.5 2 -0.828 0 -1.5 -0.895 -1.5 -2 0 -1.105 0.672 -2 1.5 -2 0.828 0 1.5 0.895 1.5 2 z" transform="matrix(15.33333 0 0 11.5 415 -125.5)"/></clipPath><clipPath><path d="m 148 97 h 77.63 v 24 h -77.62"/></clipPath></defs><g color="#000"><path d="m 200.4 48.739 c 222.02 292.61 -325.38 257.35 -171.14 9.206 35.16 -56.57 112.33 -86.7 171.14 -9.206 z" fill="#800000"/><g transform="matrix(-0.52023 0.37276 -0.37069 -0.52314 585.18 589.76)" fill="#ff4500"><path d="m 228.58 875.89 c -0.463 -0.082 -3.063 0.861 -5.778 2.098 -4.644 2.116 -4.961 2.336 -5.374 3.722 -0.379 1.273 -0.726 1.6 -2.55 2.398 -1.162 0.508 -2.216 1.2 -2.343 1.538 -0.127 0.338 0.098 1.3 0.5 2.139 0.402 0.839 0.669 1.69 0.594 1.891 -0.076 0.201 -1.22 0.9 -2.542 1.553 -2.349 1.16 -2.426 1.245 -3.354 3.709 l -0.949 2.521 l 1.268 2.986 l 1.268 2.986 l -1.426 3.789 l -1.426 3.789 l -2.875 1.281 c -1.581 0.704 -2.959 1.504 -3.061 1.776 -0.103 0.272 0.157 1.349 0.575 2.392 l 0.762 1.897 l -2.411 1.329 c -1.326 0.731 -2.461 1.462 -2.521 1.623 -0.061 0.162 0.559 1.895 1.378 3.852 1.479 3.535 1.483 3.574 0.659 5.762 -0.456 1.212 -1.113 2.331 -1.459 2.488 -0.347 0.157 -1.432 -0.017 -2.412 -0.385 -0.981 -0.369 -2.036 -0.522 -2.344 -0.339 -0.327 0.194 -2.397 4.902 -4.962 11.293 -5.744 14.309 -5.413 13.742 -8.328 14.268 -2.901 0.523 -7.391 2.723 -10.201 5 -6.612 5.355 -23.22 26.11 -26.565 33.19 -2.461 5.215 -1.899 7.25 2.735 9.907 9.43 5.406 13.314 7.17 27.785 12.63 14.475 5.461 17.977 6.544 28.971 8.959 5.563 1.222 6.468 1.145 8.221 -0.697 1.666 -1.752 2.614 -5.094 3.439 -12.13 1.31 -11.172 1.669 -27.716 0.745 -34.32 -0.404 -2.887 -2.587 -8.674 -3.789 -10.05 l -0.791 -0.902 l 14.04 -37.616 c 10.656 -28.554 14.02 -37.902 13.964 -38.83 -0.073 -1.228 -5.273 -14.03 -6.288 -15.482 -0.665 -0.951 -2.02 -1.818 -3.154 -2.02 z m -29.963 130.65 c 3.01 1.615 5.687 3.131 5.957 3.371 0.905 0.804 0.827 2.753 -0.222 5.539 -1.425 3.786 -2.291 4.358 -5.62 3.716 -7.321 -1.412 -10.683 -2.439 -22.17 -6.772 -11.451 -4.321 -15.756 -6.289 -22.2 -10.147 -1.744 -1.044 -1.931 -2.606 -0.698 -5.88 1.029 -2.733 2.271 -4.299 3.418 -4.307 0.953 -0.01 8.927 1.795 13.181 2.978 6.443 1.791 22.07 8.131 28.348 11.501 z" fill="#dcdcdc"/><path d="m 145.32 861.34 c -0.462 0.086 -2.563 1.885 -4.668 3.999 -3.601 3.616 -3.82 3.934 -3.718 5.377 0.095 1.325 -0.116 1.753 -1.542 3.143 -0.908 0.885 -1.651 1.904 -1.651 2.265 0 0.361 0.55 1.182 1.222 1.826 0.672 0.644 1.222 1.346 1.222 1.561 0 0.215 -0.825 1.272 -1.832 2.349 -1.79 1.913 -1.832 2.02 -1.832 4.653 v 2.694 l 2.239 2.348 l 2.239 2.348 v 4.049 v 4.049 l -2.239 2.212 c -1.232 1.216 -2.239 2.45 -2.239 2.741 0 0.291 0.622 1.207 1.381 2.036 l 1.381 1.507 l -1.788 2.093 c -0.984 1.151 -1.788 2.235 -1.788 2.407 0 0.173 1.191 1.576 2.647 3.119 2.629 2.787 2.647 2.822 2.647 5.16 0 1.295 -0.22 2.574 -0.489 2.843 -0.269 0.269 -1.346 0.489 -2.393 0.489 -1.048 0 -2.089 0.229 -2.313 0.509 -0.238 0.297 -0.516 5.432 -0.665 12.317 -0.335 15.415 -0.225 14.768 -2.768 16.287 -2.531 1.512 -5.958 5.152 -7.786 8.273 -4.302 7.341 -12.537 32.613 -13.169 40.42 -0.466 5.749 0.777 7.454 6.05 8.308 10.73 1.737 14.986 2.02 30.453 2.033 15.471 0.011 19.13 -0.209 30.27 -1.822 5.637 -0.816 6.457 -1.207 7.448 -3.548 0.942 -2.227 0.652 -5.688 -1.055 -12.564 -2.71 -10.917 -8.202 -26.527 -11.393 -32.38 -1.395 -2.56 -5.477 -7.207 -7.086 -8.07 l -1.058 -0.566 l -0.115 -40.15 c -0.087 -30.477 -0.234 -40.42 -0.611 -41.26 -0.501 -1.123 -9.879 -11.275 -11.339 -12.274 -0.958 -0.656 -2.53 -0.99 -3.664 -0.78 z m 17.986 132.83 c 3.383 0.452 6.426 0.927 6.763 1.056 1.13 0.434 1.744 2.285 1.744 5.262 0 4.045 -0.609 4.886 -3.95 5.458 -7.349 1.258 -10.857 1.481 -23.13 1.471 -12.239 -0.01 -16.961 -0.335 -24.352 -1.675 -2 -0.363 -2.725 -1.759 -2.725 -5.257 0 -2.92 0.611 -4.824 1.681 -5.235 0.89 -0.341 8.987 -1.465 13.385 -1.857 6.661 -0.594 23.521 -0.166 30.582 0.777 z" fill="#ff0"/></g></g><path d="m 105.68 135.06 c -7.04 -1.538 -14.825 -6.868 -19.353 -13.248 -7.394 -10.42 -8.607 -23.851 -3.187 -35.29 2.29 -4.833 9.05 -11.824 14.458 -14.955 8 -4.215 19.555 -4.822 26.28 -2.505 5.785 2 9.338 4.27 13.773 8.783 7.395 7.523 10.255 14.856 9.839 25.23 -0.17 4.253 -0.431 5.803 -1.532 9.114 -1.771 5.325 -4.725 12.391 -9.427 15.07 -10.191 6.587 -11.179 5.525 -12.696 -0.508 l 10.163 -9.321 c 4.86 -8.814 6.18 -21.652 2.316 -29.04 -1.966 -3.57 -6.756 -8.364 -10.184 -10.192 -7.476 -3.986 -16.339 -4.072 -24.26 -0.236 -6.01 2.911 -11.627 9.888 -13.379 16.614 -0.869 3.336 -0.872 9.929 -0.007 13.193 3.048 11.507 12.33 20.07 26.21 20.14 2.093 0.293 0.951 1.663 5.742 6.61 l -8.11 1.172 c -2.134 0.308 -5.146 -0.302 -6.644 -0.629 z" fill="#cd5c5c"/></svg>