<svg xmlns="http://www.w3.org/2000/svg" viewBox="0 0 256 256" xmlns:xlink="http://www.w3.org/1999/xlink"><path d="m 194.09 31.09 c 225.99 211.43 -240.44 344.63 -189 63.951 25.371 -74.05 116.44 -131.84 189 -63.951 z" fill="#556b2f" color="#000"/><g transform="matrix(0.62607 0 0 0.64492 40.671 50.55)" fill="#fff"><path d="m 232.08 232.17 c -1.1 -0.647 -5.727 -5.04 -10.282 -9.753 l -8.282 -8.577 l -27.757 -33.384 c 12.199 -9.995 4.169 9.137 -41.68 17.245 -4.925 1.636 -26.27 2.206 -34.5 0.92 -10.241 -1.599 -26.849 -6.925 -30.5 -9.782 -6.86 -5.367 -20.284 -15.11 -22.315 -16.199 -1.202 -0.643 -2.185 -1.785 -2.185 -2.538 0 -0.753 -2.925 -5.02 -6.5 -9.486 -3.575 -4.464 -6.5 -8.535 -6.5 -9.05 0 -0.511 -1.716 -4.889 -3.813 -9.729 -3.089 -7.131 -4.066 -11.01 -5.15 -20.444 -0.737 -6.416 -1.039 -14.186 -0.672 -17.305 1 -8.546 3.774 -21.927 4.761 -23 0.48 -0.522 0.873 -1.837 0.873 -2.921 0 -1.084 0.619 -2.682 1.374 -3.55 0.756 -0.868 3.505 -5.712 6.108 -10.763 7.737 -15.01 25.01 -32.05 40.25 -39.702 28.16 -14.14 62.29 -14.15 89.97 -0.033 7.259 3.703 13.881 8.332 21.15 14.786 2.87 2.549 6.04 4.634 7.04 4.634 2.709 0 6.861 12.805 6.861 13.839 0 0.496 0.381 -3.275 -0.686 -3.275 -1.068 0 -2.186 -6.167 -2.486 -5.681 -0.75 1.214 3.049 5.863 5.402 6.61 1.192 0.378 1.705 1.179 1.349 2.107 -0.536 1.398 4.613 13.06 7.242 16.401 0.649 0.825 1.455 3.525 1.791 6 0.336 2.475 1.042 6.75 1.568 9.5 1.55 8.105 1.266 28.737 -0.506 36.803 -0.897 4.081 -3.938 11.929 -7.02 18.12 -13.866 35.45 -8.226 6.201 -10.355 18.12 -0.297 1.128 -2.453 3.768 -4.791 5.866 -2.338 2.098 0.142 2.033 0.142 2.773 0 1.209 5.248 6.62 45.624 42.714 9.943 8.888 8.529 13.858 8.795 16.734 l -4.081 5.748 l -8.801 1.692 c -6.555 1.26 -9.618 -3.562 -10.801 -4.257 z m -25.392 -25.378 c -172.44 74.45 -86.22 37.23 0 0 z m -51.38 -18.372 c 17.566 -4.601 38.29 -18.463 49.15 -32.873 11.173 -14.828 16.66 -29.634 17.789 -48 1.013 -16.481 -4.251 -35.12 -14.04 -49.71 -6.194 -9.231 -20.21 -22.632 -29.16 -27.875 -13.12 -7.687 -33.844 -13.415 -48.544 -13.415 -8.866 0 -25.349 3.215 -34.34 6.698 -18.231 7.06 -32.412 18.364 -43.657 34.802 -4.222 6.171 -6.217 10.473 -10.202 22 -2.937 8.494 -3.113 9.843 -3.137 24 -0.028 16.237 1.271 22.602 7.348 36.01 11.6 25.589 41.2 47.08 69.57 50.51 10.614 1.283 30.25 0.214 39.22 -2.136 z" id="0" fill="#fff"/><path d="m 94.96 112.38 c -8.388 -4.082 -15.533 -5.196 -25.27 -3.94 -4.183 0.54 -7.78 0.808 -7.993 0.595 -2.365 -2.365 10.1 -5.692 21.324 -5.691 3.436 0 8.572 0.596 11.413 1.324 l 5.166 1.323 l 6.01 -2.821 c 5.199 -2.438 7.137 -2.861 14.292 -3.118 5.486 -0.197 9.6 0.119 12.199 0.937 l 3.921 1.234 l -2.614 0.61 c -1.438 0.335 -5.056 1.178 -8.04 1.872 -7.965 1.854 -14.498 4.485 -19.508 7.856 -2.438 1.64 -4.491 2.951 -4.562 2.913 -0.072 -0.038 -2.928 -1.431 -6.347 -3.095 z" transform="matrix(1.5466 0 0 1.47096 -51.978 -58.1)" id="1" fill="#fff" fill-rule="evenodd"/><path d="m 140.34 89.85 c -2.74 -2.101 -11.636 -4.563 -19.12 -5.294 -5.104 -0.498 -6.384 -0.85 -4.788 -1.315 4.122 -1.201 12.357 -0.805 19.11 0.918 6.331 1.616 7.223 1.645 14.03 0.448 6.659 -1.171 7.406 -1.156 8.872 0.17 1.891 1.711 0.749 2.849 -2.879 2.871 -1.243 0.007 -4.539 0.798 -7.325 1.756 -6.06 2.084 -5.778 2.068 -7.894 0.446 z" transform="matrix(1.5466 0 0 1.47096 -51.978 -58.1)" fill-rule="evenodd"/></g><g fill="#fff"><g transform="matrix(0.61383 0 0 0.63351 42.24 52.24)"><use xlink:href="#0"/><use xlink:href="#1"/><path d="m 172.66 75.34 c -4.967 -4.379 -21.09 -9.512 -34.666 -11.04 -9.253 -1.039 -11.573 -1.771 -8.68 -2.74 7.472 -2.503 22.402 -1.678 34.634 1.914 11.477 3.37 13.09 3.429 25.437 0.933 12.07 -2.44 13.425 -2.41 16.08 0.355 3.427 3.567 1.358 5.939 -5.219 5.984 -2.253 0.015 -8.229 1.663 -13.279 3.66 -10.98 4.344 -10.474 4.311 -14.309 0.93 z" fill-rule="evenodd"/></g><g fill-rule="evenodd"><path d="m 60.37 136.32 h 89.58 v 4.889 h -89.58 z"/><path d="m 60.37 146.44 h 89.21 v 4.896 h -89.21 z"/><path d="m 61.13 156.62 h 88.83 v 4.903 h -88.83 z"/><path d="m 60.47 166.65 h 69.7 v 5.277 h -69.7 z"/><path d="m 60.47 176.53 h 69.7 v 5.277 h -69.7 z"/><path d="m 60.47 186.23 h 70.08 v 5.269 h -70.08 z"/><path d="m 60.47 195.79 h 69.7 v 5.277 h -69.7 z"/></g></g></svg>