<svg xmlns="http://www.w3.org/2000/svg" viewBox="0 0 256 256"><g color="#000" fill="#ff8c00"><path d="m -461.56 1509.46 c -102.66 -72.48 -252.13 71.24 -188.42 177.65 55.11 98.31 215.88 55.803 236.4 -48.33 13.01 -47.39 -5.347 -103.13 -47.986 -129.32 z" transform="matrix(0.83572 -0.52642 -0.48833 -0.9228 1367.08 1338.5)" fill-opacity="0.996"/></g><g transform="matrix(4.33559 0 0 4.33361 26.658 26.17)"><path d="M 44 24 A 20 20 0 0 1 24 44 20 20 0 0 1 4 24 20 20 0 0 1 24 4 20 20 0 0 1 44 24 z" fill="#3f3f3f"/><path d="M 23.424 5.02 A 20 20 0 0 0 17.572 6.088 11 11 0 0 0 13 15 11 11 0 0 0 13.789 19.08 11 11 0 0 0 4.227 27.859 20 20 0 0 0 5.01 31.19 8 8 0 0 1 5 31 a 8 8 0 0 1 8 -8 8 8 0 0 1 6.82 3.83 L 21.19 26.04 A 3 3 0 0 1 21 25 3 3 0 0 1 23.5 22.04 V 20.975 A 8 8 0 0 1 16 13 8 8 0 0 1 23.424 5.02 z m 1.383 0.02 A 8 8 0 0 1 32 13 8 8 0 0 1 24.5 20.982 v 1.064 A 3 3 0 0 1 27 25 3 3 0 0 1 26.869 25.875 l 1.404 0.811 A 8 8 0 0 1 35 23 a 8 8 0 0 1 8 8 8 8 0 0 1 -0.012 0.236 20 20 0 0 0 0.789 -3.428 11 11 0 0 0 -9.568 -8.736 A 11 11 0 0 0 35 15 11 11 0 0 0 30.402 6.072 20 20 0 0 0 24.807 5.04 z M 26.418 26.77 A 3 3 0 0 1 24 28 3 3 0 0 1 21.688 26.908 L 20.285 27.719 A 8 8 0 0 1 21 31 8 8 0 0 1 13 39 8 8 0 0 1 8.488 37.607 20 20 0 0 0 11.1 40.28 11 11 0 0 0 15 41 11 11 0 0 0 24 36.31 11 11 0 0 0 33 41 11 11 0 0 0 36.869 40.28 20 20 0 0 0 39.52 37.592 8 8 0 0 1 35 39 8 8 0 0 1 27 31 8 8 0 0 1 27.787 27.561 z" opacity="0.2"/><path d="M 24,4 C 12.921,4 4.002,12.92 4.002,24 c 0,0.16772 -0.004,0.33329 0,0.5 C 4.2662,13.654 13.089,5 24,5 c 10.911,0 19.734,8.6536 19.998,19.5 0.004,-0.16671 0,-0.33228 0,-0.5 C 43.998,12.92 35.079,4 24,4 z" opacity="0.1" fill="#fff"/><path d="m 24 14 c -2.261 0.002 -4.467 0.701 -6.316 2 0.438 0.92 1.069 1.728 1.846 2.373 c 1.32 -0.893 2.877 -1.372 4.471 -1.375 c 1.597 0.001 3.158 0.48 4.48 1.375 0.772 -0.644 1.4 -1.449 1.836 -2.365 c -1.849 -1.303 -4.054 -2.01 -6.316 -2.01 z m -10.945 10 c -0.033 0.331 -0.052 0.663 -0.055 0.996 c 0.002 4.096 2.281 7.852 5.912 9.746 0.537 -0.848 0.895 -1.818 1.025 -2.863 c -2.437 -1.437 -3.934 -4.054 -3.938 -6.883 c 0.003 -0.1 0.009 -0.201 0.016 -0.301 -0.912 -0.437 -1.917 -0.686 -2.961 -0.695 z m 21.896 0 c -1.043 0.009 -2.048 0.258 -2.961 0.695 0.005 0.1 0.008 0.2 0.01 0.301 -0.004 2.829 -1.502 5.447 -3.939 6.883 0.131 1.044 0.489 2.01 1.025 2.861 c 3.632 -1.894 5.91 -5.648 5.914 -9.744 -0.001 -0.333 -0.017 -0.665 -0.049 -0.996 z" opacity="0.2"/><path d="m 24 13 c -2.261 0.002 -4.467 0.701 -6.316 2 0.438 0.92 1.069 1.728 1.846 2.373 c 1.32 -0.893 2.877 -1.372 4.471 -1.375 c 1.597 0.001 3.158 0.48 4.48 1.375 0.772 -0.644 1.4 -1.449 1.836 -2.365 c -1.849 -1.303 -4.054 -2.01 -6.316 -2.01 z m -10.945 10 c -0.033 0.331 -0.052 0.663 -0.055 0.996 c 0.002 4.096 2.281 7.852 5.912 9.746 0.537 -0.848 0.895 -1.818 1.025 -2.863 c -2.437 -1.437 -3.934 -4.054 -3.938 -6.883 c 0.003 -0.1 0.009 -0.201 0.016 -0.301 -0.912 -0.437 -1.917 -0.686 -2.961 -0.695 z m 21.896 0 c -1.043 0.009 -2.048 0.258 -2.961 0.695 0.005 0.1 0.008 0.2 0.01 0.301 -0.004 2.829 -1.502 5.447 -3.939 6.883 0.131 1.044 0.489 2.01 1.025 2.861 c 3.632 -1.894 5.91 -5.648 5.914 -9.744 -0.001 -0.333 -0.017 -0.665 -0.049 -0.996 z" fill="#ffd737"/><path d="M 23.424 4.02 A 20 20 0 0 0 17.572 5.088 11 11 0 0 0 13 14 11 11 0 0 0 13.789 18.08 11 11 0 0 0 4.227 26.859 20 20 0 0 0 5.01 30.19 8 8 0 0 1 5 30 a 8 8 0 0 1 8 -8 8 8 0 0 1 6.82 3.83 L 21.19 25.04 A 3 3 0 0 1 21 24 3 3 0 0 1 23.5 21.04 v -1.066 A 8 8 0 0 1 16 12 8 8 0 0 1 23.424 4.02 z m 1.383 0.02 A 8 8 0 0 1 32 12 8 8 0 0 1 24.5 19.982 v 1.064 A 3 3 0 0 1 27 24 3 3 0 0 1 26.869 24.875 l 1.404 0.811 A 8 8 0 0 1 35 22 a 8 8 0 0 1 8 8 8 8 0 0 1 -0.012 0.236 20 20 0 0 0 0.789 -3.428 11 11 0 0 0 -9.568 -8.736 A 11 11 0 0 0 35 14 11 11 0 0 0 30.402 5.072 20 20 0 0 0 24.807 4.04 z M 26.418 25.77 A 3 3 0 0 1 24 27 3 3 0 0 1 21.688 25.908 L 20.285 26.719 A 8 8 0 0 1 21 30 8 8 0 0 1 13 38 8 8 0 0 1 8.488 36.607 20 20 0 0 0 11.1 39.28 11 11 0 0 0 15 40 11 11 0 0 0 24 35.31 11 11 0 0 0 33 40 11 11 0 0 0 36.869 39.28 20 20 0 0 0 39.52 36.592 8 8 0 0 1 35 38 8 8 0 0 1 27 30 8 8 0 0 1 27.787 26.561 l -1.369 -0.791 z" fill="#ff950a"/><g fill="#fff"><path d="m 24 13 c -2.261 0.002 -4.467 0.701 -6.316 2 0.121 0.255 0.26 0.498 0.41 0.734 c 1.762 -1.125 3.809 -1.734 5.906 -1.736 c 2.099 0.004 4.146 0.615 5.908 1.744 0.149 -0.236 0.287 -0.48 0.408 -0.734 c -1.849 -1.303 -4.054 -2.01 -6.316 -2.01 z m -10.945 10 c -0.033 0.331 -0.052 0.663 -0.055 0.996 c 0 0.203 0.01 0.404 0.021 0.605 0.009 -0.201 0.013 -0.402 0.033 -0.602 1.044 0.009 2.049 0.258 2.961 0.695 c -0.007 0.1 -0.012 0.2 -0.016 0.301 c 0.003 2.758 1.434 5.306 3.764 6.764 0.074 -0.287 0.136 -0.58 0.174 -0.881 c -2.437 -1.437 -3.934 -4.054 -3.938 -6.883 c 0.003 -0.1 0.009 -0.201 0.016 -0.301 -0.912 -0.437 -1.917 -0.686 -2.961 -0.695 z m 21.896 0 c -1.043 0.009 -2.048 0.258 -2.961 0.695 0.005 0.1 0.008 0.2 0.01 0.301 -0.004 2.829 -1.502 5.447 -3.939 6.883 0.038 0.301 0.099 0.593 0.174 0.881 c 2.331 -1.457 3.762 -4.01 3.766 -6.764 c -0.001 -0.1 -0.005 -0.201 -0.01 -0.301 0.913 -0.438 1.917 -0.686 2.961 -0.695 0.018 0.191 0.019 0.383 0.027 0.574 c 0.01 -0.192 0.021 -0.384 0.022 -0.578 -0.001 -0.333 -0.017 -0.665 -0.049 -0.996 z" opacity="0.2"/><path d="M 23.424 4.02 A 20 20 0 0 0 17.572 5.088 11 11 0 0 0 13 14 11 11 0 0 0 13.02 14.406 11 11 0 0 1 17.572 6.088 20 20 0 0 1 19.18 5.625 8 8 0 0 1 23.424 4.02 z m 1.383 0.02 A 8 8 0 0 1 28.814 5.625 20 20 0 0 1 30.402 6.072 11 11 0 0 1 34.977 14.549 11 11 0 0 0 35 14 11 11 0 0 0 30.402 5.072 20 20 0 0 0 24.807 4.04 z m 7.172 8.383 A 8 8 0 0 1 24.5 19.982 v 1 A 8 8 0 0 0 32 13 8 8 0 0 0 31.979 12.424 z m -15.953 0.063 A 8 8 0 0 0 16 13 a 8 8 0 0 0 7.5 7.975 v -1 a 8 8 0 0 1 -7.475 -7.488 z m 18.512 5.633 a 11 11 0 0 1 -0.328 0.953 11 11 0 0 1 9.463 8.326 20 20 0 0 0 0.105 -0.59 11 11 0 0 0 -9.24 -8.689 z m -21.07 0.014 a 11 11 0 0 0 -9.238 8.727 20 20 0 0 0 0.105 0.539 11 11 0 0 1 9.457 -8.318 11 11 0 0 1 -0.324 -0.947 z m 7.58 6.369 A 3 3 0 0 0 21 25 a 3 3 0 0 0 0.004 0.146 l 0.184 -0.105 a 3 3 0 0 1 -0.143 -0.539 z m 5.908 0 A 3 3 0 0 1 26.869 24.875 l 0.129 0.074 a 3 3 0 0 0 -0.045 -0.447 z M 26.418 25.77 A 3 3 0 0 1 24 27 3 3 0 0 1 21.688 25.908 l -1.402 0.811 a 8 8 0 0 1 0.314 0.818 L 21.688 26.908 A 3 3 0 0 0 24 28 3 3 0 0 0 26.418 26.77 l 1.043 0.604 a 8 8 0 0 1 0.326 -0.813 l -1.369 -0.791 z m -5.443 4.742 A 8 8 0 0 1 13 38 8 8 0 0 1 8.488 36.607 20 20 0 0 0 10.264 38.508 8 8 0 0 0 13 39 8 8 0 0 0 21 31 8 8 0 0 0 20.975 30.512 z m 6.05 0.076 A 8 8 0 0 0 27 31 8 8 0 0 0 35 39 8 8 0 0 0 37.691 38.518 20 20 0 0 0 39.52 36.592 8 8 0 0 1 35 38 8 8 0 0 1 27.02 30.588 z" opacity="0.2"/></g></g></svg>