<svg xmlns="http://www.w3.org/2000/svg" viewBox="0 0 256 256"><defs><clipPath><rect fill="#f0f" y="18" x="6" rx="6" height="72" width="84"/></clipPath><clipPath><rect fill="#fff" y="6" x="6" rx="6" height="84" width="84"/></clipPath><clipPath><path d="m 27.707 56.824 h 82.29 v 139.69 h -82.29"/></clipPath><clipPath><path d="m 171 132 h 54.625 v 24 h -54.625"/></clipPath><clipPath><path d="m 148 97 h 77.63 v 24 h -77.62"/></clipPath><clipPath><path d="m 74 56.824 h 129 v 139.69 h -129"/></clipPath></defs><path d="m 60.17 27.353 c 130.93 -91.66 263.6 77.62 156.91 185.6 -100.51 101.74 -256.68 7.417 -207.86 -119.18 10.185 -26.414 26.914 -49.591 50.948 -66.42 z" color="#000"/><g transform="matrix(1.506 0 0 1.5094 63.752 41.757)" fill="#ffd700" stroke="#ffd700"><path d="m 56.922,63.18 0.043,7.714 -8.119,-7.736 z m -17.815,-0.132 17.844,17.609 0.017,2.23 -7.709,-0.136 -20.05,-19.592 m -15.14,-0.088 h 4.934 L 39.033,82.647 29.066,82.685 9.118,63.181 m -7.209,3.129 0.185,0.132 16.507,16.242 -9.654,0.022 -7.07,-6.92 -0.043,-9.388"/><path d="m 38.793 45.759 c 0.002 -11.683 0.038 -12.906 0.427 -14.707 1.818 -8.415 9.667 -15.13 19.641 -16.809 8.775 -1.288 18.653 1.739 24.11 7.271 6.711 6.595 5.766 15.424 5.783 23.499 l 0.096 12.278 c -1.829 0.021 -9.189 0.613 -10.635 0.15 -0.055 -26.416 -3.12 -36.38 -19.483 -33.391 -13.12 6.702 -7.03 20.369 -9.423 34.19 -2.047 0 -8.477 0.262 -10.524 0.262 0 -4.438 0.004 -8.944 0.003 -12.743 z" stroke-width="0.436"/><rect width="57.999" height="45.726" x="0.37" y="49.84" rx="3.184" ry="2.223" stroke-width="2.437"/><g fill="#000" stroke="#000" stroke-width="0.471" transform="matrix(1.16832 0 0 1.16434 -97.17 -107.5)"><path d="m 87.83 160.97 l -2.897 -2.759 l 0.068 -4.243 l 0.068 -4.243 l 7.07 7 l 7.07 7 l -4.243 -0.003 l -4.243 -0.003 l -2.897 -2.759 z"/><path d="m 99.51 155.48 c -4.634 -4.547 -8.426 -8.363 -8.426 -8.482 0 -0.122 1.856 -0.211 4.302 -0.205 l 4.302 0.011 l 8.603 8.467 l 8.603 8.467 l -4.478 0.005 l -4.478 0.005 l -8.426 -8.267 z"/><path d="m 116.83 155.52 c -6.266 -6.194 -8.446 -8.487 -8.171 -8.592 0.206 -0.079 2.128 -0.144 4.271 -0.144 h 3.896 l 7.457 7.345 l 7.457 7.345 l 0.071 1.259 l 0.071 1.259 l -3.253 -0.011 l -3.253 -0.011 l -8.546 -8.448 z"/><path d="m 128.54 150.42 c -1.744 -1.631 -3.255 -3.116 -3.359 -3.3 -0.159 -0.283 0.346 -0.335 3.241 -0.335 h 3.429 v 3.3 c 0 1.815 -0.032 3.3 -0.07 3.3 -0.039 0 -1.497 -1.334 -3.241 -2.965 z"/></g></g></svg>