<svg xmlns="http://www.w3.org/2000/svg" viewBox="0 0 256 256"><defs><clipPath><rect fill="#fff" y="6" x="6" rx="6" height="84" width="84"/></clipPath></defs><path d="m 32.12 178.68 c -13.16 -14.571 -27.28 -42.784 -30.07 -60.07 -4.03 -24.955 2.48 -54.3 16.12 -72.67 18.201 -24.52 57.2 -42.579 97.28 -45.06 c 28.77 -1.777 67.922 4.221 88.36 13.536 17.389 7.926 30.3 20.417 38.09 36.836 10.547 22.256 12.576 44.6 6.119 67.36 -9.734 48.35 -37.22 82.42 -62.06 109.82 c -63.64 61.771 -113.61 -4.408 -153.82 -49.757 z" fill="#c5a78e"/><g transform="matrix(1.80878 0 0 1.75616 36.897 41.08)" stroke-linecap="round" stroke-miterlimit="5"><g fill="#c00"><g transform="matrix(0.94179 0 0 0.97788 2.838 4.414)" stroke="#c00"><path d="m 35.16,48.07 c -0.243,-0.518 -0.269,-0.659 -0.3,-1.583 -0.038,-1.144 0.087,-1.816 0.456,-2.446 l 0.219,-0.374 h 15.401 15.401 l 0.216,0.485 c 0.455,1.02 0.489,2.595 0.083,3.834 l -0.214,0.653 H 50.924 35.426 L 35.16,48.07 z"/><path d="m 35.22,59.05 c -0.508,-1.149 -0.502,-3.02 0.015,-4.111 l 0.229,-0.485 15.426,0.021 15.426,0.021 0.246,0.492 c 0.223,0.447 0.249,0.589 0.285,1.568 0.046,1.264 -0.071,2.071 -0.375,2.59 l -0.214,0.365 H 50.841 35.424 L 35.22,59.05 z"/><path d="M 36.39,70.21 C 35.919,70.18 35.478,70.109 35.409,70.052 35.341,69.995 35.197,69.751 35.09,69.509 34.933,69.154 34.889,68.882 34.863,68.1 c -0.035,-1.035 0.075,-1.718 0.395,-2.465 l 0.172,-0.4 15.403,0.001 15.403,10e-4 0.176,0.273 c 0.352,0.545 0.414,0.885 0.414,2.295 0,1.402 -0.067,1.785 -0.397,2.254 L 66.266,70.291 51.757,70.278 C 43.777,70.271 36.862,70.24 36.391,70.21 z"/><path d="M 49.714,97.69 C 47.523,97.02 40.216,93.018 33.956,89.06 30.557,86.911 26.202,83.96 24.785,82.846 L 24.303,82.467 25,82.413 c 0.384,-0.03 1.74,-0.097 3.01,-0.149 2.844,-0.117 5.217,-0.254 5.414,-0.313 0.25,-0.074 0.296,-0.28 0.397,-1.76 0.158,-2.324 0.349,-2.867 1.298,-3.686 l 0.464,-0.4 15.49,0.003 15.49,0.003 0.522,0.417 c 0.921,0.735 1.134,1.287 1.333,3.453 0.138,1.497 0.227,1.899 0.447,2.01 0.201,0.104 1.03,0.163 4.228,0.304 1.553,0.069 3.144,0.15 3.535,0.181 l 0.712,0.057 -0.375,0.335 c -1.586,1.415 -9.447,6.449 -14.996,9.603 -3.387,1.925 -8.04,4.304 -9.761,4.989 -0.981,0.391 -1.741,0.46 -2.5,0.228 z"/></g><rect width="55.719" height="33.889" x="42.12" y="6.513" rx="4.631" ry="4.754" fill="#c00" stroke="#000" stroke-width="1.112" stroke-miterlimit="4"/></g><g transform="translate(0 3.536)" fill="#fff"><g stroke="#fff"><path d="m 50.599,21.387 c 0,-10.389 0,-10.396 -0.175,-10.618 L 50.249,10.547 H 48.401 46.553 V 9.452 8.357 h 5.267 5.267 v 1.095 1.095 h -1.802 c -1.649,0 -1.819,0.014 -2,0.161 l -0.199,0.161 -0.022,10.457 -0.022,10.457 H 51.821 50.6 V 21.387"/><path d="m 59.38,31.9 c -0.336,-0.171 -0.583,-0.504 -0.764,-1.029 -0.12,-0.349 -0.139,-1.284 -0.162,-8.21 l -0.026,-7.816 h 1.011 1.011 l 0.024,7.06 c 0.024,6.95 0.027,7.06 0.199,7.39 0.096,0.183 0.317,0.448 0.492,0.59 0.283,0.229 0.379,0.257 0.879,0.257 0.769,0 1.37,-0.302 2.178,-1.097 l 0.616,-0.606 v -6.795 -6.795 h 1.011 1.011 v 8.469 8.469 h -1.011 -1.011 v -0.791 c 0,-0.916 -0.103,-1.121 -0.603,-1.201 -0.297,-0.048 -0.34,-0.019 -1.161,0.757 -1.108,1.049 -1.838,1.435 -2.782,1.469 -0.465,0.017 -0.711,-0.014 -0.913,-0.117 z"/><path d="m 76.7,31.871 c -0.561,-0.179 -0.954,-0.447 -1.507,-1.026 -0.344,-0.361 -0.434,-0.411 -0.737,-0.411 -0.513,0 -0.682,0.209 -0.682,0.843 v 0.506 H 72.721 71.668 V 20.07 8.357 h 1.053 1.053 v 3.783 c 0,3.586 0.008,3.793 0.16,3.98 0.12,0.148 0.245,0.197 0.504,0.197 0.313,0 0.396,-0.052 0.915,-0.572 0.722,-0.723 1.421,-1.087 2.109,-1.101 1.429,-0.027 2.287,0.815 2.596,2.548 0.145,0.813 0.172,11.693 0.032,12.569 -0.181,1.124 -0.747,1.914 -1.541,2.15 -0.56,0.166 -1.251,0.152 -1.848,-0.039 z m 0.367,-1.525 c 0.353,-0.18 0.667,-0.556 0.842,-1.01 0.09,-0.233 0.12,-1.359 0.143,-5.393 0.03,-5.307 -0.008,-6.133 -0.31,-6.726 -0.252,-0.494 -0.758,-0.903 -1.266,-1.025 -0.836,-0.2 -1.617,0.031 -2.331,0.689 l -0.371,0.342 v 6.071 6.071 l 0.379,0.363 c 0.859,0.823 2.026,1.07 2.915,0.616 z"/><path d="m 87.26,32.15 c -1.136,-0.304 -1.983,-1.01 -2.488,-2.075 -0.547,-1.152 -0.555,-1.262 -0.526,-7.05 0.026,-5.138 0.028,-5.197 0.215,-5.691 0.279,-0.739 0.571,-1.193 1.11,-1.723 0.852,-0.839 1.782,-1.188 3.168,-1.19 2.062,-0.002 3.262,0.794 3.89,2.58 0.232,0.662 0.233,0.668 0.262,3.335 l 0.029,2.672 -3.089,0.024 -3.089,0.024 -0.21,0.244 -0.21,0.244 0.033,2.537 c 0.038,2.903 0.086,3.175 0.67,3.809 0.746,0.809 2.324,0.831 3.112,0.044 0.418,-0.418 0.581,-0.992 0.64,-2.264 l 0.048,-1.032 h 1.053 1.053 l -0.049,1.117 c -0.027,0.614 -0.104,1.312 -0.171,1.551 -0.563,2.01 -1.944,2.983 -4.228,2.971 -0.417,-0.002 -0.967,-0.06 -1.222,-0.128 z m 3.373,-10.798 c 0.176,-0.224 0.182,-0.289 0.146,-1.833 -0.04,-1.721 -0.112,-2.075 -0.534,-2.628 -0.37,-0.485 -0.808,-0.657 -1.679,-0.657 -0.653,-0.001 -0.81,0.029 -1.134,0.21 -0.847,0.475 -1.099,1.231 -1.099,3.293 0,1.292 0.014,1.421 0.175,1.626 l 0.175,0.222 h 1.884 1.884 z"/></g><g stroke="#000"><path d="M 6.879,33.02 6.696,32.825 v -5.01 -5.01 L 4.463,15.228 C 3.235,11.06 2.23,7.589 2.23,7.514 2.23,7.439 2.309,7.277 2.405,7.155 L 2.58,6.933 h 2.143 c 2.02,0 2.152,0.009 2.309,0.166 0.092,0.092 0.187,0.253 0.212,0.358 0.321,1.359 1.828,7.553 1.859,7.64 0.023,0.065 0.059,0.1 0.08,0.079 0.021,-0.021 0.439,-1.777 0.93,-3.904 0.491,-2.126 0.929,-3.934 0.973,-4.02 0.158,-0.295 0.377,-0.324 2.477,-0.324 h 2.074 l 0.207,0.207 c 0.114,0.114 0.207,0.265 0.207,0.336 0,0.071 -0.986,3.445 -2.191,7.496 l -2.191,7.367 v 5.259 5.259 l -0.195,0.183 c -0.19,0.178 -0.255,0.183 -2.303,0.183 -2.094,0 -2.109,-0.001 -2.291,-0.195 z"/><path d="M 19.06,33.64 C 16.716,33.211 15.155,31.602 14.738,29.184 14.625,28.53 14.61,27.605 14.632,22.833 l 0.026,-5.586 0.23,-0.681 c 0.581,-1.72 1.905,-2.915 3.729,-3.366 0.794,-0.196 2.262,-0.202 2.991,-0.011 1.859,0.485 3.22,1.848 3.765,3.771 0.142,0.499 0.153,0.984 0.152,6.355 -10e-4,5.746 -0.004,5.822 -0.188,6.475 -0.547,1.935 -1.801,3.227 -3.608,3.717 -0.594,0.161 -2.106,0.237 -2.668,0.134 z m 1.633,-4.632 c 0.08,-0.098 0.169,-0.377 0.198,-0.619 0.029,-0.242 0.041,-2.705 0.027,-5.473 L 20.892,17.886 20.7,17.694 c -0.253,-0.253 -0.925,-0.271 -1.19,-0.031 -0.177,0.16 -0.177,0.176 -0.177,5.671 v 5.51 l 0.217,0.217 c 0.189,0.189 0.268,0.211 0.608,0.173 0.259,-0.029 0.439,-0.104 0.536,-0.223 z"/><path d="m 29.542,33.455 c -0.875,-0.141 -1.559,-0.662 -1.964,-1.497 -0.447,-0.921 -0.436,-0.694 -0.467,-9.529 -0.016,-4.519 -0.008,-8.302 0.019,-8.408 0.026,-0.105 0.123,-0.267 0.214,-0.358 0.156,-0.156 0.287,-0.166 2.053,-0.166 1.732,0 1.903,0.013 2.086,0.161 l 0.199,0.161 0.042,7.527 c 0.039,6.967 0.053,7.529 0.184,7.554 0.203,0.039 0.619,-0.196 1.048,-0.591 l 0.37,-0.341 v -7.06 -7.06 l 0.222,-0.175 c 0.209,-0.165 0.328,-0.175 2.068,-0.175 h 1.846 l 0.207,0.207 0.207,0.207 v 9.43 c 0,9.413 0,9.431 -0.175,9.652 l -0.175,0.222 h -1.932 c -1.82,0 -1.942,-0.01 -2.101,-0.169 -0.112,-0.112 -0.169,-0.281 -0.169,-0.506 0,-0.185 -0.021,-0.337 -0.047,-0.337 -0.026,0 -0.263,0.146 -0.527,0.325 -1.177,0.798 -2.19,1.09 -3.209,0.926 z"/></g></g></g></svg>