<svg xmlns="http://www.w3.org/2000/svg" viewBox="0 0 256 256"><defs><clipPath><path d="M 0,64 H64 V128 H0 z"/></clipPath></defs><path d="m -141.77 114.19 c -23.375 -9.972 -55.848 -24.645 -58.74 -26.541 -1.767 -1.158 -4.743 -4.123 -6.613 -6.588 -5.342 -7.04 -34.1 -57.23 -35.35 -61.698 -1.161 -4.145 -0.64 -19.29 1.133 -32.972 4.02 -40.43 1.975 -39.489 7.288 -48.18 1.133 -2.351 12.588 -15.726 25.455 -29.723 24.737 -26.908 27.378 -29.08 37.814 -31.12 28.15 -4.838 45.87 -10.826 71.11 -12.308 22.454 9.595 46.665 19.607 67.882 31.607 3.31 2.842 8.233 10.278 19.285 29.13 22.633 38.605 20.805 34.37 20.672 47.897 -2.273 21.03 -2.134 56.09 -9.42 71 -2.521 4.704 -35.504 41.94 -45.926 51.849 -5.185 4.93 -10.38 7.167 -22.44 9.666 -12.207 4.538 -40.855 9.263 -50.675 11.05 -5.667 1.317 -12.288 0.849 -21.48 -3.072 z" fill="#abb2a8" transform="translate(245.16 136.31)"/><g transform="translate(-2.335 1.168)"><path d="m 180.99 130.47 a 58.39 56.634 0 1 1 -116.77 0 58.39 56.634 0 1 1 116.77 0 z" transform="matrix(1.15 0 0 1.19588 -11.969 -29.643)" fill="#cfc"/><path d="m 63.18 190.46 c -7.827 -20.565 -17.894 -40.34 -25.22 -61.09 l -1.066 -3.184 c 9.172 -19.96 16.265 -40.931 25.89 -60.682 21.16 -11.483 34.794 -16.18 64.43 -28.09 c 1.651 -0.412 63.17 24.11 65.02 25.922 0.541 0.528 6.921 14.915 14.178 31.972 l 13.194 31.01 l -1.683 4.486 c -4.064 10.834 -24.11 58.25 -25.02 59.18 -1.021 1.049 -61.13 25.968 -64.09 26.57 -23.594 -8.252 -40.927 -15.898 -65.64 -26.09 z m 97.01 -18.968 c 2.399 -1.465 4.388 -3.513 5.588 -5.752 1.781 -3.324 1.863 -4.217 1.863 -20.16 0 -11.924 -0.274 -16.954 -0.961 -17.631 -2.879 -1.237 -5.406 -0.947 -8.56 -0.947 l -0.243 17.825 c -1.218 6.385 2.856 15.199 -2.489 19.728 -4.83 4.093 -12.428 1.58 -13.666 -4.52 -0.274 -1.35 -0.498 -8.936 -0.498 -16.858 0 -16.279 -0.054 -16.43 -5.744 -16.03 l -3.461 0.246 l -0.224 16.966 c -0.248 18.753 0.241 21.505 4.542 25.567 5.261 4.969 17.01 5.74 23.852 1.565 z m -42.26 0.093 c 7.47 -4.338 9.03 -12.961 3.504 -19.329 -2.411 -2.777 -2.646 -3.377 -1.634 -4.188 3.994 -3.201 5.066 -9.964 2.291 -14.451 -2.408 -3.894 -5.81 -5.383 -16.591 -6.369 -5.206 -0.477 -12.12 0.44 -13.382 0.713 -2.075 0.449 -2.07 -0.465 -2.549 3.314 -0.729 5.752 -0.134 40.06 0.717 41.36 0.54 0.825 3.338 0.997 12.808 0.789 10.368 -0.228 12.509 -0.494 14.835 -1.845 z m -15.926 -5.833 c -3.539 -3.423 -2.24 -6.31 -2.472 -11.922 h 5.915 c 6.309 0 7.749 0.74 8.942 4.594 1.78 5.75 -4.517 9.476 -12.385 7.328 z m -1.906 -20.304 c -2.053 -3.596 -0.326 -5.726 -0.095 -10.163 6.101 -0.054 13.09 0.092 13.208 5.996 0 2.195 -0.473 3.316 -1.779 4.218 -3.05 0.912 -8.728 1.612 -11.333 -0.051 z m 60.07 -22.867 c 2.422 -1.479 4.409 -3.52 5.612 -5.767 1.782 -3.326 1.863 -4.207 1.851 -20.12 -0.006 -9.155 -0.312 -17.11 -0.678 -17.679 -0.44 -0.683 -1.987 -0.951 -4.558 -0.789 -3.373 0.213 -3.967 0.509 -4.446 2.218 -0.304 1.085 -0.589 8.78 -0.633 17.1 -0.044 8.319 -0.304 15.701 -0.577 16.403 -5.01 5.811 -10.917 2.693 -15.11 -1.016 l -0.215 -15.651 c -0.118 -8.608 -0.4 -16.468 -0.626 -17.467 -0.373 -1.649 -0.79 -1.794 -4.54 -1.578 -3.975 0.229 -4.158 0.341 -4.872 3 -0.408 1.519 -0.559 9.404 -0.336 17.523 0.354 12.877 0.62 15.193 2.083 18.15 2.99 6.04 8.479 8.618 17.502 8.222 4.724 -0.207 6.487 -0.678 9.544 -2.544 z m -60.735 -4.735 c 0.215 -5.949 0.399 -6.55 2.656 -8.68 2.028 -1.914 2.543 -2.095 3.142 -1.105 3.775 5.787 6.757 10.183 10.781 16.177 3.566 0.008 7.594 0.779 10.959 -0.229 0.42 -0.414 -1.552 -4.098 -4.773 -8.918 -7.08 -10.589 -9.787 -15.182 -9.787 -16.577 2.243 -6.05 13.12 -14.15 13.608 -20.01 -3.577 -0.656 -6.406 -0.434 -10.319 -0.434 -2.52 3.344 -14.207 18.211 -15.419 17.681 -0.373 -0.227 -0.678 -3.737 -0.678 -7.799 0 -4.062 -0.219 -7.947 -0.486 -8.634 -0.358 -0.92 -1.596 -1.248 -4.703 -1.248 -4.083 0 -4.233 0.079 -4.717 2.466 -0.873 4.305 -0.573 40.906 0.35 42.605 2.98 2.326 5.16 1.32 9.156 1.092 z" fill="#3a1d1d"/></g></svg>