<svg xmlns="http://www.w3.org/2000/svg" viewBox="0 0 256 256"><g fill="#a2c440" color="#000"><path d="m -1363.8 1650.47 c 92.76 -229.28 -405.65 -114.61 -172.57 42.475 46.699 31.473 147.56 19.349 172.57 -42.475 z" transform="matrix(-1.01761 0 0 -1.33249 -1373.15 2281)"/></g><g fill="#1d2d44"><path d="m 102.86 146.04 c -6.617 -9.908 -8.131 -23.483 -3.667 -32.89 5.301 -11.173 11.433 -16.525 22.904 -19.99 25.26 -7.629 49.749 16 42.928 41.42 -2.574 9.591 -9.921 18.484 -18.704 22.642 -14.294 5.708 -33.2 3.598 -43.46 -11.179 z"/><path d="m 69.938 133.72 c -11.761 -16.1 -2.052 -38.771 17.921 -41.839 l 3.812 -0.585 l 2.645 5.742 c 2.463 5.347 2.553 5.923 1.315 8.369 -2.637 5.209 -4.795 12.702 -5.343 18.544 l -0.558 5.957 l -4.623 1.089 c -2.542 0.599 -6.149 2.306 -8.02 3.793 -1.866 1.487 -3.619 2.704 -3.895 2.704 -0.276 0 -1.743 -1.699 -3.259 -3.775 z"/><path d="m 85.41 160.35 c -4 -1.586 -8.182 -7.49 -8.182 -11.565 0 -6.206 5.48 -12.177 11.183 -12.185 2.087 -0.003 2.8 0.606 3.955 3.378 0.775 1.86 2.799 5.666 4.499 8.458 1.7 2.792 3.091 5.701 3.091 6.464 0 3.113 -10.506 7.05 -14.545 5.451 z"/><path d="m 53.918 160.12 c -7.02 -1.765 -14.626 -8.945 -17.09 -16.13 -3.131 -9.113 -0.608 -18.219 6.954 -25.1 4.837 -4.404 6.434 -5.301 10.839 -6.089 2.907 -0.52 3.363 -0.347 3.851 1.459 0.304 1.127 0.559 3.7 0.566 5.717 0.019 5.482 2.369 12.307 5.929 17.211 1.743 2.402 3.745 5.178 4.449 6.17 0.704 0.992 1.561 4.701 1.903 8.243 l 0.623 6.44 c -7.04 2.327 -12.938 3.127 -18.02 2.082 z"/><path d="m 76.32 84.53 c 0.004 -3.774 2.578 -8.619 5.366 -10.1 2.854 -1.515 9.749 -2.215 10.467 -1.063 0.342 0.549 0.145 3.404 -0.438 6.343 l -1.06 5.345 c -4.523 0.814 -8.972 2.328 -13.541 2.854 -0.439 0 -0.796 -1.522 -0.794 -3.381 z"/><path d="m 99.85 94.93 c -1.567 -2.904 -2.083 -13.178 -0.882 -17.579 1.508 -5.529 6.183 -11.07 11.788 -13.975 6.895 -2.797 13.54 -3.98 20.817 -1.122 6.784 2.803 13.689 11.673 15.06 19.342 0.923 5.169 0.1 5.631 -8.191 4.6 -12.566 -1.563 -22.946 0.891 -32.17 7.603 -2.361 1.719 -4.53 3.125 -4.82 3.125 -0.29 0 -1.012 -0.898 -1.604 -1.995 z"/><path d="m 160.16 97.58 c -7.635 -7.612 -8.35 -9.09 -6.6 -13.656 0.769 -2.01 1.256 -2.225 3.864 -1.733 6.633 1.251 13.871 6.814 17.205 13.223 2.645 5.084 2.01 6.951 -2.858 8.388 -2.25 0.664 -4.1 1.214 -4.111 1.222 -0.011 0.007 -3.386 -3.342 -7.5 -7.444 z"/><path d="m 175.17 160.9 c -4.342 -1.064 -9.964 -3.893 -11.585 -5.83 -0.993 -1.186 -1.023 -1.803 -0.145 -2.996 0.608 -0.826 2.533 -4.361 4.278 -7.855 3.978 -7.964 5.161 -16.09 3.77 -25.878 -1.281 -9.01 -1.048 -9.248 9.195 -9.234 6.436 0.008 8.624 0.388 11.747 2.034 5.699 3 9.575 6.729 12.09 11.622 3.083 8.145 3.769 17.955 -0.245 24.804 -5.914 9.978 -18.771 15.868 -29.11 13.335 z"/><path d="m 209.27 158.21 c -2.611 -1.041 -2.584 -1.386 0.651 -8.17 1.483 -3.11 2.959 -7.394 3.281 -9.519 0.782 -5.172 2.112 -6.165 6.06 -4.528 8.778 3.638 10.235 13.985 2.872 20.397 -2.492 2.17 -3.966 2.738 -6.99 2.693 -2.108 -0.031 -4.752 -0.424 -5.877 -0.873 z"/><path d="m 165.64 202.75 c -1.4 0.454 -16.06 0.782 -32.564 0.73 -29.68 -0.095 -30.06 -0.07 -33.379 2.208 -8.095 5.55 -17.199 5.931 -24.95 1.053 -2.458 -1.547 -5.724 -5.8 -4.973 -6.474 4.136 -1.297 15.221 0.543 18.09 -1.392 1.93 -1.728 2.206 -11.574 0.384 -13.342 -4.287 -1.667 -19.673 -0.088 -18.11 -2.653 3.594 -5.706 11.531 -9.407 18.896 -8.815 5.364 0.432 8.865 1.887 12.1 5.03 l 2.602 2.529 l 31.09 0.378 c 23.19 -0.79 36.928 -4.151 39.833 9.02 0.965 5.414 -3.664 9.995 -9.01 11.729 z m 2.349 -8.503 c 2.193 -4.322 -2.32 -9.318 -7.159 -7.57 -2.457 0.886 -3.864 2.11 -4.604 4.142 -1.854 5.081 3.698 8.01 7.113 6.793 3.404 -0.553 3.127 -1.082 4.648 -3.365 z" stroke="#1d2d44" color="#000" stroke-width="0.752"/></g></svg>