<svg xmlns="http://www.w3.org/2000/svg" viewBox="0 0 256 256"><path d="m 223.71 217.79 c 145.24 -223.56 -251.46 -310.08 -219.86 -80.09 12.887 93.8 164.3 165.61 219.86 80.09 z" fill="#96b6ca" color="#000"/><g transform="matrix(0.76283 0 0 0.78227 30.23 23.852)" stroke="#fff"><path d="m 451.1 -21.01 c 0 28.15 -48.23 50.977 -107.73 50.977 -59.49 0 -107.73 -22.823 -107.73 -50.977 0 -28.15 48.23 -50.977 107.73 -50.977 59.49 0 107.73 22.823 107.73 50.977 z" transform="matrix(1.10071 0 0 1.33546 -250.51 158.05)" fill="#24a6d6" stroke-width="4.475"/><g fill="#fff"><g stroke-width="1.924"><path d="m 36.1 150.79 c -1.19 -0.229 -2.174 -0.928 -2.187 -1.552 0.017 -33.761 -4.01 -43.851 2.474 -42.975 5.379 0 5.395 0.008 4.847 2.645 -1.332 14.833 -2.308 35.24 -0.508 36.35 0.563 0.348 3.606 1.21 7.941 1.076 12.635 -0.388 12.201 1.026 12.201 2.639 0 0.722 -0.974 1.573 -2.164 1.892 -2.39 0.64 -19.18 0.587 -22.603 -0.073 z"/><path d="m 66.64 149.25 c 0 -1.221 2.573 -9.853 5.717 -19.18 3.144 -9.328 7.599 -18.819 7.953 -20.701 0.25 -5.999 6.375 -3.104 11.05 -3.104 l 6.47 19.823 c 3.558 10.903 6.545 20.966 6.636 22.363 0.293 4.462 -2.55 2.887 -5.399 -2.991 l -2.681 -5.531 h -10.531 h -10.531 l -2.913 5.771 c -2.975 5.894 -5.771 7.614 -5.771 3.55 z m 26.11 -17.978 c -0.447 -3.154 -5.37 -13.98 -6.743 -14.828 -1.698 -1.049 -8.559 15.696 -7.05 17.206 0.321 0.321 3.633 0.459 7.359 0.305 6.616 -0.272 6.767 -0.335 6.434 -2.683 z"/><path d="m 193.81 106.26 h 14.401 c 11.07 0 14.308 0.277 14 1.199 -0.515 1.546 -0.393 4.436 -9.154 4.505 -6.715 0.053 -12.395 -0.175 -13.02 2.304 -2.467 9.829 -0.699 10.23 12.07 10.252 6.833 0.011 8.416 0.285 8.416 1.457 0 0.794 0.211 3.698 0.078 3.728 -0.132 0.03 -4.395 0.07 -9.863 0.479 -6.892 0.516 -10.844 -0.75 -11.443 0.198 -1.147 1.813 -1.111 13.48 0.047 15.313 0.673 1.065 5.04 0.877 11.275 1.08 4.648 0.151 7.621 1.19 8.943 1.53 1.974 0.507 4.094 2.975 0.145 3.555 -6.385 0.938 -21.521 0.073 -25.734 0.777 -0.583 -15.516 -0.602 -27.27 -0.166 -46.38 z"/></g><rect width="6.868" height="47.914" x="176.1" y="105.41" rx="0.08" ry="0.055" stroke-width="2.178"/><path d="m 131.52 161.06 c -10.285 -3.262 -17.08 -10.94 -20.09 -22.716 -4.615 -18.01 1.555 -35.13 15.64 -43.38 3.782 -2.216 5.765 -2.648 13.595 -2.963 10.09 -0.405 15.371 0.622 20.317 3.956 3.263 2.199 4.369 4.445 3.415 6.931 -0.4 1.043 -1.883 0.733 -7.05 -1.473 -10.491 -4.475 -22.856 -3.522 -30.562 2.356 -7.923 6.916 -8.68 18.01 -8.687 24.13 0.666 12.979 3.954 25.458 16.669 29.31 5.819 1.616 13.634 1.104 20.842 -1.366 4.466 -1.53 7.06 -1.985 7.695 -1.351 1.773 1.763 -3.904 5.381 -10.962 6.986 -7.624 1.415 -15.12 1.34 -20.813 -0.418 z" stroke-width="1.924"/></g></g></svg>