<svg xmlns="http://www.w3.org/2000/svg" viewBox="0 0 256 256"><path d="m 209.92 195.74 c 15.418 -12.373 33.874 -38.08 39.3 -54.739 7.838 -24.04 5.76 -54.05 -5.132 -74.31 c -14.537 -27.04 -50.925 -50.906 -90.76 -59.54 -28.597 -6.193 -68.791 -6.302 -90.71 -0.247 -18.651 5.152 -33.505 15.507 -43.81 30.535 -13.963 20.372 -19.393 42.14 -16.372 65.63 2.422 49.29 24.826 87.2 45.59 118.12 54.47 70.868 114.66 13.162 161.89 -25.461 z" fill="#a8a9ae"/><path d="m 90.73 190.23 c -0.082 -5.99 -0.157 -12.7 -0.168 -14.911 l -0.02 -4.02 l -14.573 -0.335 c -15.957 -0.367 -16.3 -0.453 -19.667 -4.949 -1.363 -1.82 -1.389 -2.588 -1.568 -47.04 -0.178 -44.21 -0.152 -45.25 1.177 -47.843 1.078 -2.107 1.948 -2.833 4.215 -3.519 4.171 -1.261 127.24 -1.261 131.41 0 2.267 0.685 3.137 1.411 4.215 3.519 1.329 2.598 1.355 3.633 1.177 47.843 -0.179 44.45 -0.204 45.22 -1.568 47.04 -0.762 1.018 -2.221 2.472 -3.241 3.232 -1.799 1.34 -2.848 1.392 -34.684 1.717 l -32.829 0.335 l -6.348 5.7 c -3.491 3.135 -10.738 9.845 -16.1 14.911 -5.366 5.066 -10.1 9.211 -10.516 9.211 -0.528 0 -0.805 -3.324 -0.908 -10.89 z" fill="#2345ef"/><path d="m 82.41 155.15 c -1.892 -1.862 -1.233 -22.895 0.779 -24.876 1.032 -1.015 3.896 -1.846 6.364 -1.846 3.756 0 4.406 -0.563 3.987 -3.452 -0.355 -2.454 -1.83 -3.677 -5.102 -4.231 -10.22 -1.73 -4.063 -3.887 13.203 -4.626 17.02 -0.728 18.01 -0.949 18.469 -4.133 0.418 -2.888 -0.355 -3.431 -5.473 -3.846 l -5.96 -0.483 v -13.08 v -13.08 h 14.855 h 14.855 l 0.462 11.297 c 0.522 12.765 -0.716 15.228 -8.01 15.924 -3.763 0.359 -4.966 1.219 -4.966 3.551 0 2.863 1.303 3.131 18.765 3.846 11.286 0.463 18.633 1.382 18.435 2.308 -0.181 0.846 -2.644 1.885 -5.473 2.308 -3.841 0.574 -5.144 1.549 -5.144 3.846 0 2.332 1.203 3.192 4.966 3.551 7.29 0.695 8.529 3.159 8.01 15.924 l -0.462 11.297 h -14.855 h -14.855 v -13.08 v -13.08 l 5.96 -0.483 c 5.118 -0.415 5.891 -0.958 5.473 -3.846 -0.476 -3.288 -1.012 -3.363 -23.942 -3.363 -22.413 0 -23.456 0.137 -23.456 3.077 0 2.436 1.303 3.237 6.255 3.846 l 6.255 0.769 v 13.08 v 13.08 l -14.15 0.438 c -7.782 0.241 -14.643 -0.047 -15.246 -0.641 z" fill="#000622"/></svg>