<svg xmlns="http://www.w3.org/2000/svg" viewBox="0 0 256 256"><defs><clipPath><path d="M 0,64 H64 V128 H0 z"/></clipPath></defs><g color="#000" fill="#f5f5f5"><path d="m 8.294 92.82 c -47.8 133.41 123.97 198.28 188.51 143.97 64.53 -54.31 86.58 -147.39 13.487 -194.22 -73.09 -46.832 -154.2 -83.16 -202 50.27 z"/></g><path d="m 49.11 204.03 l -2.141 -1.801 l 0.223 -12.177 c 0.218 -11.891 0.265 -12.184 2.033 -12.452 1.794 -0.272 2.915 -0.339 2.915 10.318 0 12.932 -0.825 13.612 6.106 13.612 4.636 0 5.869 0.784 5.072 3.226 -0.237 0.727 -2.246 1.075 -6.209 1.075 -4.727 0 -6.271 -0.348 -7.999 -1.801 z m 17.239 0.956 c -0.908 -0.772 -0.661 -5.674 -0.661 -10.316 0 -6.516 0.893 -8.547 1.779 -8.91 2.282 -0.936 2.937 1.664 2.702 10.725 -0.192 7.402 -0.45 8.941 -1.537 9.164 -0.719 0.147 -1.659 -0.131 -2.284 -0.662 z m 8.551 0.271 c -0.295 -0.315 -0.536 -6.521 -0.536 -13.79 0 -11.325 0.184 -13.292 1.288 -13.745 1.395 -0.572 2.783 1.091 2.639 3.163 -0.279 4.02 -0.011 4.301 4.08 4.301 7.323 0 9.691 2.523 9.691 10.322 0 5.182 -1.172 8.113 -3.747 9.367 -2.113 1.029 -12.532 1.326 -13.415 0.382 z m 12.335 -5.448 c 2.089 -2.234 2.068 -6.391 -0.044 -8.649 -1.251 -1.337 -2.475 -1.704 -5.03 -1.505 l -3.375 0.262 l -0.247 4.629 c -0.136 2.546 -0.057 5.158 0.176 5.806 0.674 1.878 6.607 1.5 8.518 -0.543 z m 8.384 3.91 c -0.273 -1.161 -0.338 -5.094 -0.145 -8.739 0.299 -5.654 0.626 -6.867 2.229 -8.254 2.518 -2.18 6.829 -1.802 6.829 0.599 0 1.035 -0.634 1.827 -1.609 2.01 -2.809 0.523 -2.673 2.399 -2.673 9.465 0 6.122 -1.088 7.03 -2.541 7.03 -1.021 0 -1.772 -0.759 -2.089 -2.112 z m 16.766 1.152 c -4.609 -1.423 -6.404 -8.176 -3.758 -14.14 1.793 -4.04 7.093 -6.23 11.589 -4.79 3.872 1.24 5.634 3.754 5.634 8.04 v 3.249 h -6.461 c -5.124 0 -6.561 0.279 -6.945 1.348 -0.789 2.198 0.958 3.183 5.569 3.138 4.94 -0.048 6.681 0.751 5.968 2.738 -0.564 1.572 -7.095 1.808 -11.596 0.418 z m 9.442 -12.825 c 0 -2.477 -3.489 -3.741 -6.954 -2.518 -1.818 0.642 -2.7 1.493 -2.7 2.606 0 1.448 0.601 1.654 4.827 1.654 4.31 0 4.827 -0.186 4.827 -1.742 z m 9.354 12.47 c -0.761 -2.119 -0.582 -24.749 0.205 -26.08 0.523 -0.882 2.71 -1.086 9.219 -0.86 7.604 0.264 8.732 0.51 10.363 2.256 1.465 1.568 1.831 2.914 1.831 6.741 0 4.173 -0.287 5.05 -2.257 6.858 -1.871 1.721 -3.127 2.076 -7.343 2.076 -5.916 0 -6.679 0.655 -7.04 6.04 -0.229 3.435 -0.486 3.882 -2.366 4.116 -1.375 0.17 -2.285 -0.229 -2.615 -1.146 z m 15.637 -14.2 c 1.074 -0.615 1.556 -1.804 1.556 -3.841 0 -3.566 -1.631 -4.731 -6.624 -4.731 -4.058 0 -5.443 1.12 -5.443 4.403 0 4.37 0.677 5.059 4.966 5.059 2.194 0 4.689 -0.401 5.545 -0.89 z m 10.137 14.94 c -0.295 -0.315 -0.536 -4.526 -0.536 -9.357 0 -6.758 0.278 -9.03 1.207 -9.854 0.963 -0.854 1.312 -0.667 2.413 0 1.862 1.127 1.522 3.167 1.522 9.225 0 4.398 -0.536 8.451 -0.804 9.199 -0.492 1.371 -2.808 1.85 -3.802 0.787 z m 8.801 -0.787 c -0.636 -1.772 -0.636 -23.893 0 -25.665 0.632 -1.76 3.219 -1.76 3.85 0 0.636 1.772 0.636 23.893 0 25.665 -0.269 0.748 -1.135 1.361 -1.925 1.361 -0.79 0 -1.657 -0.612 -1.925 -1.361 z m 10.416 -0.664 c -1.78 -1.903 -2.055 -2.942 -2.055 -7.758 0 -3.058 0.225 -6.187 0.5 -6.952 1.874 -5.223 18.04 -5.223 19.917 0 0.275 0.766 0.5 3.834 0.5 6.818 0 8.187 -1.238 9.406 -9.94 9.788 -6.473 0.284 -6.982 0.176 -8.92 -1.896 z m 13.574 -3.628 c 0.712 -0.762 1.264 -2.8 1.264 -4.67 0 -1.869 -0.552 -3.908 -1.264 -4.67 -1.526 -1.632 -9.199 -1.862 -10.642 -0.32 -0.531 0.568 -0.965 2.813 -0.965 4.989 0 2.176 0.434 4.421 0.965 4.989 1.443 1.543 9.116 1.312 10.642 -0.32 z m 13.13 4.746 c -1.151 -0.735 -1.408 -2.139 -1.408 -7.707 0 -5.928 -0.208 -6.928 -1.609 -7.729 -0.885 -0.506 -1.609 -1.474 -1.609 -2.15 0 -0.676 0.724 -1.644 1.609 -2.15 0.911 -0.521 1.609 -1.801 1.609 -2.949 0 -1.115 0.453 -2.206 1.01 -2.424 1.79 -0.704 3.02 0.304 3.02 2.478 0 1.594 0.612 2.352 2.454 3.038 2.763 1.03 2.978 3.499 0.352 4.03 -2.226 0.452 -2.782 1.679 -2.782 6.147 0 4.231 0.376 5.114 2.791 6.545 0.885 0.525 1.609 1.492 1.609 2.15 0 1.483 -5.04 1.998 -7.04 0.72 z m -45.822 -23.22 c -1.182 -1.522 -0.203 -4.26 1.825 -4.26 0.996 0 2.047 1.39 2.193 2.418 0.474 3.345 -2.802 3.409 -4.02 1.843 z m -90.67 -0.128 c -1.102 -1.014 -0.505 -2.966 -0.043 -3.461 1.081 -1.156 5.02 -0.937 4.109 3.16 -0.328 1.47 -3.02 1.264 -4.067 0.302 z" fill="#f36515" stroke="#f36515"/><g stroke-width="2.978"><g fill="#47adc5" stroke="#47adc5"><path d="m 109.84 160.02 c 0 -10.699 0.329 -19.2 0.743 -19.2 1.057 0 19.44 16.01 19.871 17.306 0.359 1.081 -14.05 16.378 -18.325 19.451 l -2.289 1.646 v -19.2 z"/><path d="m 126.73 143.45 c -39.815 -33.738 -73.45 -63.715 -72.27 -64.41 1.633 -0.953 18.354 -2.317 28.323 -2.31 c 20.48 0.014 37.889 2.96 49.09 8.307 4.552 2.172 8.193 5.3 22.291 19.15 l 16.85 16.552 l -15.971 15.866 c -8.784 8.726 -16.353 15.866 -16.82 15.866 -0.467 0 -5.641 -4.06 -11.498 -9.02 z"/></g><g fill="#feb103" stroke="#feb103"><path d="m 160 98.86 c -7.439 -7.284 -13.526 -13.656 -13.526 -14.16 0 -0.504 5.955 -6.863 13.234 -14.13 l 13.234 -13.215 l 0.549 6.981 c 0.302 3.84 0.433 16.16 0.292 27.375 l -0.256 20.394 l -13.526 -13.244 z"/><path d="m 181.12 69.858 c -0.712 -2.658 -0.62 -10.839 0.135 -12.03 0.43 -0.676 2.978 1.161 7.895 5.688 3.993 3.677 7.261 7.03 7.261 7.449 0 0.42 -3.327 0.763 -7.394 0.763 -6.965 0 -7.424 -0.109 -7.896 -1.873 z"/></g></g></svg>