<svg xmlns="http://www.w3.org/2000/svg" viewBox="0 0 256 256"><path d="m 260.02 66.64 c -48.541 -88.14 -200.63 -53.931 -226.36 18.64 -30.66 86.45 49.14 250.63 184.3 154.45 45.527 -33.585 90.6 -84.949 42.05 -173.09 z" transform="translate(-26.04 -13.02)" fill="#1c1007" color="#000"/><g transform="matrix(1.36961 0 0 1.26981 -37.556 -36.42)"><path d="m 107.71 187.28 c -10.639 -0.335 -12.215 -0.791 -13.864 -4.01 -2.377 -4.645 -2.6 -9.721 -1.808 -41.24 0.896 -35.69 1.297 -37.39 10.828 -45.882 4.546 -4.052 5.362 -5.308 5.328 -8.202 -0.098 -8.177 1.154 -12.354 4.865 -16.228 3.281 -3.426 3.474 -3.912 1.901 -4.8 -2.915 -1.646 -2 -3.585 2 -4.247 4.834 -0.799 18.616 -0.822 20.668 -0.035 0.87 0.334 1.582 1.41 1.582 2.391 0 1.518 -1.107 1.84 -7.433 2.159 -4.088 0.206 -7.798 0.74 -8.244 1.186 -0.446 0.446 0.716 2.057 2.583 3.581 l 3.394 2.77 l -0.54 8.656 l -0.54 8.656 l 3.832 3.035 c 2.107 1.669 4.801 4.604 5.987 6.522 4.35 7.04 4.936 12.144 4.949 43.11 0.013 31.27 -0.774 38.519 -4.434 40.839 -2.157 1.368 -16.774 2.185 -31.05 1.735 z" fill="#dfd851"/><path d="m 105.1 186.36 c -5.482 -0.343 -7.02 -0.849 -9 -2.949 -2.28 -2.424 -2.397 -3.242 -2.679 -18.707 -0.162 -8.895 0.097 -24.947 0.576 -35.672 1.017 -22.763 1.705 -24.851 10.767 -32.675 5.03 -4.343 5.524 -5.121 5.01 -7.887 -0.513 -2.733 -0.22 -3.225 2.685 -4.503 2.992 -1.317 3.326 -1.929 4.053 -7.435 0.436 -3.3 0.886 -7.463 1 -9.25 0.167 -2.614 0.636 -3.25 2.399 -3.25 1.205 0 2.469 -0.45 2.809 -1 0.34 -0.55 3.629 -0.928 7.309 -0.84 3.68 0.088 5.22 0.342 3.422 0.565 -1.798 0.223 -3.01 0.826 -2.691 1.34 0.318 0.514 -0.544 0.935 -1.916 0.935 -3.721 0 -7.624 1.753 -7.624 3.424 0 0.811 1.575 2.675 3.5 4.143 3.294 2.512 3.5 3.01 3.5 8.492 0 3.202 -0.45 6.1 -1 6.44 -2.222 1.373 -0.737 4.534 3.989 8.491 3.399 2.845 5.949 6.188 8 10.486 l 3.01 6.309 v 32.15 c 0 29.94 -0.134 32.41 -1.957 35.984 -1.077 2.11 -2.656 4.105 -3.51 4.433 -2.141 0.821 -23.58 1.485 -31.648 0.98 z m 3.444 -12.08 c 0.245 -0.412 0.77 -5.792 1.165 -11.954 l 0.719 -11.204 l -2.534 -0.636 c -1.394 -0.35 -3.532 -0.319 -4.753 0.068 -2.166 0.687 -2.204 0.964 -1.592 11.654 0.345 6.02 0.887 11.371 1.205 11.886 0.689 1.115 5.151 1.259 5.789 0.187 z m 1.914 -54.9 c 1.104 -0.683 0.929 -12.13 -0.196 -12.822 -2.204 -1.362 -6.291 0.814 -7.654 4.075 -1.504 3.6 -1.841 8.615 -0.658 9.797 0.701 0.701 6.917 -0.067 8.508 -1.051 z m 5.758 -30.29 c 0 -0.518 -0.45 -1.219 -1 -1.559 -0.55 -0.34 -1 0.084 -1 0.941 0 0.857 0.45 1.559 1 1.559 0.55 0 1 -0.423 1 -0.941 z" fill="#d49a12"/><path d="m 105.1 186.36 c -5.482 -0.343 -7.02 -0.849 -9 -2.949 -2.28 -2.424 -2.397 -3.242 -2.679 -18.707 -0.162 -8.895 0.097 -24.947 0.576 -35.672 1.017 -22.763 1.705 -24.851 10.767 -32.675 5.03 -4.343 5.524 -5.121 5.01 -7.887 -0.513 -2.733 -0.22 -3.225 2.685 -4.503 2.992 -1.317 3.326 -1.929 4.053 -7.435 0.436 -3.3 0.886 -7.463 1 -9.25 0.167 -2.614 0.636 -3.25 2.399 -3.25 1.205 0 2.469 -0.45 2.809 -1 0.34 -0.55 3.629 -0.928 7.309 -0.84 3.68 0.088 5.22 0.342 3.422 0.565 -1.798 0.223 -3.01 0.826 -2.691 1.34 0.318 0.514 -0.544 0.935 -1.916 0.935 -3.721 0 -7.624 1.753 -7.624 3.424 0 0.811 1.575 2.675 3.5 4.143 3.294 2.512 3.5 3.01 3.5 8.492 0 3.202 -0.45 6.1 -1 6.44 -2.222 1.373 -0.737 4.534 3.989 8.491 8.404 7.04 13.985 22.296 9.511 26.01 -1.263 1.048 -1.736 0.68 -2.99 -2.323 -0.82 -1.962 -2.507 -4.631 -3.75 -5.931 -1.243 -1.3 -2.71 -3.116 -3.26 -4.03 -0.55 -0.919 -2.664 -2.351 -4.698 -3.183 -3.672 -1.502 -3.71 -1.492 -5.411 1.386 -1.873 3.171 -4.097 3.1 -4.583 -0.148 -0.508 -3.401 -2.956 -4.226 -7.9 -2.662 -3.68 1.164 -4.776 2.138 -6.628 5.895 -2.417 4.901 -4.53 22.438 -2.47 20.5 0.585 -0.55 1.204 -3.01 1.376 -5.464 0.294 -4.191 0.527 -4.514 3.813 -5.281 4.468 -1.042 25.784 -1.297 28.75 -0.344 2.196 0.706 2.25 1.069 2.25 15.177 0 14.331 -0.021 14.463 -2.427 15.56 -1.93 0.879 -2.265 1.541 -1.636 3.229 0.435 1.168 1.103 4.25 1.485 6.849 0.706 4.81 1.973 6.794 2.86 4.481 0.27 -0.704 1.026 -8.689 1.679 -17.744 1.53 -21.22 1.752 -22.63 3.54 -22.63 1.259 0 1.471 3.755 1.463 25.919 -0.009 23.639 -0.18 26.25 -1.944 29.71 -1.064 2.085 -2.633 4.059 -3.487 4.387 -2.141 0.821 -23.58 1.485 -31.648 0.98 z m 13.866 -3.034 l 11.25 -0.416 v -2.824 c 0 -1.93 -0.814 -3.358 -2.572 -4.51 -2.458 -1.61 -2.542 -1.969 -1.889 -8.07 0.417 -3.893 0.225 -8.293 -0.493 -11.283 l -1.176 -4.902 l -10.996 -0.668 c -6.05 -0.367 -11.417 -0.408 -11.932 -0.09 -1.154 0.713 -0.744 31.422 0.445 33.31 0.575 0.913 1.691 1.107 3.479 0.606 1.448 -0.406 7.695 -0.926 13.883 -1.155 z m -4.592 -12.295 c 0 -1.375 0.227 -1.938 0.504 -1.25 0.277 0.688 0.277 1.813 0 2.5 -0.277 0.688 -0.504 0.125 -0.504 -1.25 z m 1.842 -81.941 c 0 -0.518 -0.45 -1.219 -1 -1.559 -0.55 -0.34 -1 0.084 -1 0.941 0 0.857 0.45 1.559 1 1.559 0.55 0 1 -0.423 1 -0.941 z" fill="#b48815"/><path d="m 109.96 186.41 c -0.963 -0.289 -1.75 -0.923 -1.75 -1.408 0 -1.495 6.866 -2.267 15.13 -1.701 7.739 0.53 7.892 0.496 8.501 -1.927 0.348 -1.388 -0.064 -4.081 -0.943 -6.156 -0.859 -2.028 -2.333 -8.293 -3.274 -13.921 -1.978 -11.829 -0.283 -10.697 -17.705 -11.826 l -9.793 -0.635 l 0.666 -12.653 c 0.366 -6.959 1.032 -13.05 1.48 -13.54 2.862 -3.119 30.15 -3.465 32.09 -0.406 1.193 1.88 1.037 24.577 -0.184 26.859 -0.666 1.245 -2.092 1.934 -4 1.934 -3.417 0 -3.461 0.13 -1.5 4.349 0.806 1.733 1.91 4.951 2.454 7.151 0.544 2.2 1.452 5.8 2.02 8 0.567 2.2 1.271 5.237 1.565 6.75 0.294 1.512 1.171 2.75 1.949 2.75 1.938 0 2.982 -3.773 1.528 -5.524 -0.749 -0.903 -0.974 -3.185 -0.612 -6.202 0.315 -2.626 0.842 -9.274 1.169 -14.774 0.328 -5.5 1.01 -10.9 1.512 -12 0.504 -1.1 1.064 -4.7 1.244 -8 0.18 -3.3 0.413 -0.263 0.517 6.75 0.118 7.959 -0.187 12.75 -0.811 12.75 -0.55 0 -0.947 2.137 -0.882 4.75 0.106 4.24 0.2 4.428 0.882 1.75 0.511 -2.01 0.802 0.398 0.882 7.29 0.097 8.402 -0.241 10.994 -1.839 14.13 -1.077 2.11 -2.656 4.105 -3.51 4.433 -2.129 0.817 -24.615 1.682 -26.783 1.03 z m -14.477 -4.081 c -2.219 -3.381 -2.798 -24.08 -1.492 -53.3 1.017 -22.763 1.705 -24.851 10.768 -32.675 5.03 -4.343 5.524 -5.121 5.01 -7.887 -0.513 -2.733 -0.22 -3.225 2.685 -4.503 2.992 -1.317 3.326 -1.929 4.053 -7.435 0.436 -3.3 0.886 -7.463 1 -9.25 0.167 -2.614 0.636 -3.25 2.399 -3.25 1.205 0 2.469 -0.45 2.809 -1 0.34 -0.55 3.629 -0.928 7.309 -0.84 3.68 0.088 5.22 0.342 3.422 0.565 -1.798 0.223 -3.01 0.826 -2.691 1.34 0.318 0.514 -0.544 0.935 -1.916 0.935 -3.721 0 -7.624 1.753 -7.624 3.424 0 0.811 1.575 2.675 3.5 4.143 3.294 2.512 3.5 3.01 3.5 8.492 0 3.202 -0.45 6.1 -1 6.44 -2.222 1.373 -0.737 4.534 3.989 8.491 5.52 4.622 11.01 14.546 11.01 19.902 0 3.339 -2.305 4.361 -3.4 1.507 -1.516 -3.95 -11.186 -15.13 -13.804 -15.964 -1.508 -0.479 -2.674 0.104 -4.418 2.207 -2.53 3.052 -2.823 2.943 -5.921 -2.202 -2.617 -4.346 -14.07 4.201 -16.502 12.314 -0.826 2.758 -0.983 11.235 -0.542 29.31 0.684 28.01 0.713 30.667 0.382 34.683 -0.125 1.512 0.126 3.762 0.556 5 1.102 3.167 -0.896 2.874 -3.079 -0.451 z m 20.727 -93.24 c 0 -0.518 -0.45 -1.219 -1 -1.559 -0.55 -0.34 -1 0.084 -1 0.941 0 0.857 0.45 1.559 1 1.559 0.55 0 1 -0.423 1 -0.941 z" fill="#a0690e"/><path d="m 110.46 186.37 c -3.155 -1.272 0.604 -2.336 8.256 -2.336 8.174 0 11.736 1.167 7.239 2.373 -2.658 0.713 -13.701 0.686 -15.495 -0.037 z m 22.406 -1.093 c -0.285 -0.461 -0.21 -1.267 0.166 -1.791 0.899 -1.252 7.184 -3.489 7.184 -2.557 0 2.532 -6.204 6.202 -7.35 4.347 z m -37.687 -3.993 c -1.823 -3.692 -2.309 -24.24 -1.199 -50.75 1.023 -24.446 1.588 -26.24 10.785 -34.18 5.03 -4.343 5.524 -5.121 5.01 -7.887 -0.513 -2.733 -1.791 -8.793 1.114 -10.07 1.851 -0.815 -0.3 1.154 -0.154 -0.376 0.09 -0.943 1.236 -1.57 1.513 -3.669 0.21 -1.588 3.757 -3.805 4.366 -5.374 0.656 -1.691 -1.629 -2.707 -1.57 -3.634 0.167 -2.614 -0.261 -1.313 1.501 -1.313 1.205 0 5.836 -0.45 6.176 -1 0.34 -0.55 4.078 -0.202 7.758 -0.114 3.68 0.088 8.587 0.826 6.789 1.049 -1.798 0.223 -0.315 1.31 0.003 1.824 0.318 0.514 -7.05 0.935 -8.426 0.935 -3.721 0 -7.624 0.058 -7.624 1.73 0 0.811 1.575 2.675 3.5 4.143 3.294 2.512 3.5 3.01 3.5 8.492 0 3.202 -0.45 6.1 -1 6.44 -2.222 1.373 -0.737 4.534 3.989 8.491 3.399 2.845 5.949 6.188 8 10.486 3.528 7.393 3.683 8.512 1.079 7.831 -1.084 -0.284 -3.169 -2.952 -4.75 -6.081 -3.555 -7.04 -7.616 -9.34 -17.09 -9.697 -11.179 -0.421 -17.797 3.643 -20.837 12.795 -1.413 4.253 -1.657 9.804 -1.633 37.09 0.015 17.648 0.349 32.874 0.742 33.837 1.138 2.792 -0.045 2.023 -1.538 -1 z m 46.12 -4.833 c 0.048 -1.165 0.285 -1.402 0.604 -0.604 0.289 0.722 0.253 1.584 -0.079 1.917 -0.332 0.332 -0.569 -0.258 -0.525 -1.313 z m -22.15 -26.821 c -0.266 -0.266 -4.184 -0.618 -8.706 -0.781 l -8.222 -0.297 v -12.72 v -12.72 l 4.162 -1.121 c 4.398 -1.184 22.599 -1.484 25.929 -0.427 1.844 0.585 1.947 1.457 1.686 14.297 l -0.278 13.674 l -7.04 0.29 c -3.874 0.159 -7.261 0.072 -7.528 -0.194 z m -13.14 -10.677 c 0.19 -4.698 -0.062 -6.866 -0.75 -6.441 -1.173 0.725 -1.444 13.523 -0.286 13.522 0.412 0 0.879 -3.187 1.036 -7.082 z m 0.198 -14.168 c 0.008 -0.413 -0.435 -0.75 -0.985 -0.75 -0.55 0 -0.993 1.013 -0.985 2.25 0.012 1.819 0.201 1.963 0.985 0.75 0.533 -0.825 0.976 -1.838 0.985 -2.25 z" fill="#6c5315"/><path d="m 116.04 148.3 c -5.872 -0.467 -7.686 -2.313 -5.521 -5.617 1.526 -2.329 1.685 -12.233 0.235 -14.58 -0.345 -0.558 0.129 -2.168 1.052 -3.577 1.634 -2.494 1.938 -2.555 11.292 -2.278 l 9.612 0.285 l 0.279 13.25 l 0.279 13.25 l -6.279 -0.18 c -3.453 -0.099 -8.381 -0.347 -10.949 -0.552 z m -9.33 -51.879 c 2.2 -1.946 5.227 -3.783 6.728 -4.084 3.88 -0.778 4.071 -1.925 2.627 -4.623 -0.84 -1.57 -1.084 -4.169 -0.294 -4.959 0.601 -0.601 1.137 -3.331 1.192 -6.658 0.102 -6.206 3.386 -10.606 3.596 -5.937 0.056 1.244 1.178 1.01 3.151 2.579 3.141 2.506 3.5 3.293 3.5 7.678 0 3.921 -0.491 5.341 -2.49 7.193 -2.491 2.309 -2.531 5.421 -0.069 5.421 0.675 0 2.989 1.594 5.143 3.542 l 3.917 3.542 l -3.5 -1.713 c -5.421 -2.653 -18.552 -2.878 -23.547 -0.403 l -3.953 1.959 l 4 -3.537 z m 4.097 -9.233 c -0.346 -0.56 -0.142 -1.319 0.454 -1.687 1.537 -0.95 2.529 0.351 1.246 1.635 -0.718 0.718 -1.278 0.735 -1.7 0.052 z" fill="#1c1007"/></g></svg>