<svg xmlns="http://www.w3.org/2000/svg" xmlns:xlink="http://www.w3.org/1999/xlink" viewBox="0 0 256 256"><defs><path d="m 245.46 129.52 l -97.89 -96.9 c -5.556 -5.502 -16.222 -11.873 -23.7 -14.16 l -39.518 -12.08 c -7.479 -2.286 -18.1 0.391 -23.599 5.948 l -13.441 13.578 c -5.5 5.559 -14.502 14.653 -20 20.21 l -13.44 13.579 c -5.5 5.558 -8.07 16.206 -5.706 23.658 l 12.483 39.39 c 2.363 7.456 8.843 18.06 14.399 23.556 l 97.89 96.9 c 5.558 5.502 14.605 5.455 20.1 -0.101 l 36.26 -36.63 c 5.504 -5.559 14.503 -14.651 20 -20.21 l 36.26 -36.629 c 5.502 -5.56 5.455 -14.606 -0.101 -20.11 z m -178.09 -50.74 c -7.198 0 -13.03 -5.835 -13.03 -13.03 0 -7.197 5.835 -13.03 13.03 -13.03 7.197 0 13.03 5.835 13.03 13.03 -0.001 7.198 -5.836 13.03 -13.03 13.03 z" id="0"/><use id="1" xlink:href="#0"/><clipPath id="2"><use xlink:href="#0"/></clipPath><clipPath clip-path="url(#2)"><use xlink:href="#1"/></clipPath><clipPath clip-path="url(#2)"><use xlink:href="#1"/></clipPath></defs><g color="#000" fill="#dcdcdc"><path d="m 128.42 795.13 c 168.87 -19.553 166.53 260.33 -3.01 257.01 -157.67 9.224 -171.9 -272.26 3.01 -257.01 z" transform="matrix(1 0 0 0.98305 0 -778.52)"/></g><path d="m 55.846 131.45 v -40.5 h 64 h 64 v 40.5 v 40.5 h -64 h -64 v -40.5 z m 85.43 19.518 c 9.77 -2.499 16.387 -5.966 20.883 -10.943 3.097 -3.428 3.687 -4.8 3.687 -8.575 0 -3.761 -0.591 -5.149 -3.623 -8.505 -4.427 -4.9 -13.942 -9.587 -23.637 -11.642 -11.08 -2.349 -34.928 -1.43 -44.18 1.703 -12.482 4.227 -20.558 11.472 -20.558 18.443 0 9.652 14.471 18.714 34.35 21.507 8.563 1.203 24.299 0.257 33.08 -1.989 z m -54.729 -15.65 c -0.386 -0.386 -0.701 -2.458 -0.701 -4.604 0 -3.475 0.246 -3.868 2.25 -3.583 1.904 0.27 2.25 0.933 2.25 4.306 0 2.804 -0.459 4.075 -1.549 4.285 -0.852 0.164 -1.864 -0.017 -2.25 -0.403 z m 5.965 -0.035 c -1.026 -1.026 -0.79 -8.333 0.27 -8.333 0.515 0 1.078 1.428 1.25 3.173 0.389 3.937 2.52 4.846 3.375 1.439 0.349 -1.392 1.266 -3.054 2.037 -3.693 1.134 -0.941 1.688 -0.478 2.902 2.427 1.98 4.739 1.97 6.29 -0.029 4.63 -1.181 -0.98 -2.104 -1.01 -4.047 -0.122 -2.847 1.297 -4.779 1.458 -5.757 0.48 z m 12.83 -1.337 c -3.683 -4.069 2.42 -9.68 6.304 -5.796 0.718 0.718 1.2 0.785 1.2 0.167 0 -0.568 1.35 -1.033 3 -1.033 3.254 0 3.675 0.591 1.775 2.492 -0.958 0.958 -0.962 1.645 -0.02 3.154 1.14 1.826 0.248 3.691 -1.113 2.329 -1.06 -1.06 -5.569 -1.233 -6.184 -0.238 -0.938 1.518 -3.02 1.066 -4.96 -1.074 z m 7.504 -2.388 c 0 -1.89 -5.072 -3.11 -6.089 -1.464 -1.174 1.9 -0.12 2.856 3.148 2.856 1.846 0 2.941 -0.518 2.941 -1.392 z m 18.223 2.835 c -1.246 -0.873 -2.223 -1.092 -2.223 -0.5 0 2.576 -1.914 0.732 -2.277 -2.193 l -0.403 -3.25 l -0.16 3.25 c -0.192 3.901 -3.16 4.683 -3.16 0.832 0 -1.33 -0.273 -3.13 -0.607 -4 -0.483 -1.258 0.114 -1.582 2.917 -1.582 1.938 0 3.694 0.511 3.902 1.136 0.273 0.82 0.955 0.776 2.451 -0.158 2.168 -1.354 5.337 -0.773 5.337 0.978 0 0.561 -0.994 0.912 -2.209 0.781 -1.477 -0.159 -2.338 0.387 -2.599 1.647 -0.322 1.553 0.067 1.798 2.209 1.389 2.884 -0.551 3.714 1.584 1.018 2.619 -2 0.769 -1.616 0.857 -4.196 -0.95 z m 7.459 0.905 c -1.073 -1.073 -0.795 -8.348 0.318 -8.348 0.55 0 1 0.505 1 1.122 0 0.768 0.482 0.723 1.524 -0.143 1.945 -1.614 3.151 -0.499 1.549 1.432 -0.887 1.069 -0.924 1.998 -0.14 3.463 0.633 1.183 0.696 2.235 0.155 2.57 -0.505 0.312 -1.146 0.002 -1.427 -0.689 -0.408 -1.01 -0.688 -1 -1.404 0.009 -0.492 0.696 -1.201 0.958 -1.576 0.583 z m 6.985 -0.015 c -0.367 -0.367 -0.667 -2.392 -0.667 -4.5 v -3.833 h 5 c 2.75 0 5 0.45 5 1 0 0.55 -0.45 1 -1 1 -0.55 0 -1 1.35 -1 3 0 1.65 -0.45 3 -1 3 -0.55 0 -1 -1.35 -1 -3 0 -2.453 -0.41 -2.994 -2.25 -2.97 -2.102 0.028 -2.127 0.102 -0.38 1.117 1.526 0.887 1.618 1.263 0.5 2.046 -1.067 0.747 -1.092 1.072 -0.114 1.469 0.691 0.28 1 0.921 0.691 1.424 -0.66 1.068 -2.819 1.209 -3.781 0.248 z" stroke="#000" transform="matrix(1.22821 0 0 1.46011 -20.99 -63.43)"/></svg>