<svg xmlns="http://www.w3.org/2000/svg" viewBox="0 0 256 256"><defs><clipPath><path d="m -24 13 c 0 1.105 -0.672 2 -1.5 2 -0.828 0 -1.5 -0.895 -1.5 -2 0 -1.105 0.672 -2 1.5 -2 0.828 0 1.5 0.895 1.5 2 z" transform="matrix(15.33333 0 0 11.5 415 -125.5)"/></clipPath></defs><g fill="#888176" color="#000"><path d="M 225.57,1004.7 C 287.88,909.48 237.6,822.73 167.06,802.15 72.17,774.466 -56.66,847.22 28.23,997.16 c 33.741,59.59 152.95,75.37 197.34,7.545 z" transform="matrix(0 -0.99128 1 0 -794.74 255.74)"/></g><g transform="matrix(1.60499 0 0 1.47796 -46.5 -29.784)" fill="#ae2b2e" stroke="#af2627"><g stroke-width="2.304" transform="matrix(0.62306 0 0 0.67661 28.972 20.15)"><path d="m 33.21 146.51 c -1.068 -0.325 -2.445 -1.145 -3.058 -1.824 -1.07 -1.183 -1.055 -1.408 0.366 -5.526 2.02 -5.851 2.02 -17.934 -0.011 -26.25 -0.746 -3.062 -1.172 -5.865 -0.946 -6.23 0.421 -0.681 7.109 -0.333 9.23 0.48 1.747 0.67 1.943 3.03 0.785 9.459 -1.457 8.093 -1.154 16.521 0.683 18.991 0.857 1.152 2.01 1.848 3.278 1.974 1.687 0.168 2.174 -0.152 3.554 -2.337 1.176 -1.862 2.234 -2.704 3.999 -3.179 3.06 -0.824 4.442 -2.139 7.951 -7.563 4.236 -6.549 9.508 -9.418 13.505 -7.351 2.668 1.38 6.928 6.446 7.672 9.125 1.733 6.24 -0.52 14.04 -5.261 18.199 -4.588 4.03 -7.953 3.421 -14.774 -2.668 -2.53 -2.258 -4.726 -4.106 -4.88 -4.106 -0.154 0 -1.139 1.521 -2.187 3.379 -3.115 5.519 -3.543 5.743 -11.25 5.89 -3.692 0.07 -7.587 -0.138 -8.655 -0.463 z m 39.831 -10.949 c 1.757 -1.757 2.143 -2.621 2.143 -4.791 0 -2.171 -0.386 -3.034 -2.143 -4.791 -2.792 -2.792 -5.402 -2.891 -7.992 -0.301 -1.545 1.545 -1.843 2.352 -1.843 4.995 0 6.623 5.41 9.312 9.835 4.888 z"/><path d="m 89.7 161.11 c -1.974 -0.35 -2.243 -0.646 -2.643 -2.912 -0.245 -1.387 -0.462 -11.209 -0.482 -21.826 l -0.036 -19.304 l 4.99 -0.435 c 7.878 -0.687 11.594 0.374 15.96 4.556 4.569 4.377 5.441 11.756 2.069 17.51 -1.869 3.189 -4.16 5.05 -9.543 7.737 -4.5 2.249 -4.875 3.164 -3.89 9.49 0.567 3.643 0.514 4.172 -0.498 4.912 -1.187 0.868 -2.287 0.919 -5.927 0.273 z m 13.574 -26.839 c 1.865 -1.865 1.958 -3.761 0.314 -6.456 -1.814 -2.974 -4.128 -4.319 -5.98 -3.476 -2.912 1.327 -3.639 7.631 -1.193 10.335 1.529 1.689 4.968 1.487 6.858 -0.403 z"/><path d="m 120.27 148.65 c -1.056 -0.42 0.308 -3.977 0.308 -4.76 0 -0.28 0.736 -0.51 1.636 -0.51 3.545 0 6.426 -2.982 5.827 -6.03 -7.512 -9.247 -7.681 -7.481 -8.225 -8.378 0.314 -5.592 1.128 -8.541 2.937 -10.642 1.408 -1.636 1.815 -1.744 6.576 -1.744 5.46 0 8.736 0.516 9.421 3.467 0.347 1.494 -1.982 1.579 -4.645 1.637 -4.668 0.1 -7.334 3.562 -5.719 7.426 3.363 4.783 8.924 4.25 9.215 6.845 0 7.236 -2.93 12.444 -9.661 12.838 -2.141 0.125 -7.149 0.058 -7.669 -0.149 z"/><path d="m 154.3 145.37 c -3.758 -2.797 -5.183 -5.855 -6.244 -13.403 -0.507 -3.605 -1.38 -7.648 -1.939 -8.985 -1.252 -2.991 -0.885 -4.948 2.01 -10.722 l 1.427 -7.923 l 3.377 -1.474 c 0.926 -0.404 -1.142 9.45 5.01 11.825 7.04 2.721 5.673 4.634 -0.491 10.604 -2.819 2.73 -3.451 3.726 -3.451 5.439 0 2.642 3.096 5.749 6.848 6.873 6.564 1.967 5.44 8.442 -1.623 9.345 -1.948 0.249 -2.856 -0.042 -4.922 -1.58 z"/></g><path d="m 143.58 119.06 c -4.607 -2.589 -7.02 -8.451 -5.504 -13.394 1.097 -3.586 4.789 -6.805 7.834 -6.83 2.261 -0.018 6.485 5.941 6.493 9.162 0.007 2.623 -0.297 3.068 -2.078 3.041 -3.294 -0.05 -4.965 1.172 -4.373 3.199 0.285 0.974 2.362 2.078 3.909 2.078 0.988 0 0.994 0.022 0.401 1.267 -0.332 0.697 -0.943 1.465 -1.359 1.706 -1.119 0.65 -3.979 0.528 -5.324 -0.228 z m 4.547 -9.537 c 1.901 -2.065 1.409 -4.72 -1.084 -5.852 -3.263 -1.48 -6.619 1.253 -5.566 4.533 0.875 2.726 4.663 3.477 6.651 1.318 z" stroke-width="1.496"/><path d="m 210.83 146.36 c -1.158 -0.37 -2.534 -1.329 -3.059 -2.131 -0.864 -1.319 -0.834 -1.861 0.327 -5.724 2.206 -7.346 2.284 -8.647 0.763 -12.715 -2.617 -6.998 -1.165 -8.864 6.911 -8.878 7.774 -0.014 11.966 3.231 7.854 6.08 -7.958 5.513 -9.203 9.931 -4.322 15.334 4.486 4.966 3.117 8.893 -3.06 8.773 -1.82 -0.035 -4.257 -0.367 -5.414 -0.738 z" transform="matrix(0.62306 0 0 0.67661 28.972 20.15)" stroke-width="2.304"/></g></svg>