<svg xmlns="http://www.w3.org/2000/svg" viewBox="0 0 256 256"><defs><clipPath><path d="m 74.933 37.652 c -1.836 1.419 -2.988 2.24 -3.457 2.461 -0.703 0.326 -1.452 0.488 -2.246 0.488 -1.237 0 -2.259 -0.423 -3.066 -1.27 -0.794 -0.846 -1.191 -1.96 -1.191 -3.34 0 -0.872 0.195 -1.628 0.586 -2.266 0.534 -0.885 1.458 -1.719 2.773 -2.5 1.328 -0.781 3.529 -1.732 6.602 -2.852 v -0.703 c 0 -1.784 -0.286 -3.01 -0.859 -3.672 -0.56 -0.664 -1.38 -0.996 -2.461 -0.996 -0.82 0 -1.471 0.221 -1.953 0.664 -0.495 0.443 -0.742 0.951 -0.742 1.523 l 0.039 1.133 c 0 0.599 -0.156 1.061 -0.469 1.387 -0.299 0.326 -0.697 0.488 -1.191 0.488 -0.482 0 -0.879 -0.169 -1.191 -0.508 -0.299 -0.339 -0.449 -0.801 -0.449 -1.387 0 -1.12 0.573 -2.148 1.719 -3.086 1.146 -0.937 2.754 -1.406 4.824 -1.406 1.589 0 2.891 0.267 3.906 0.801 0.768 0.404 1.335 1.035 1.699 1.895 0.234 0.56 0.352 1.706 0.352 3.438 v 6.074 c 0 1.706 0.032 2.754 0.098 3.145 0.065 0.378 0.169 0.632 0.313 0.762 0.156 0.13 0.332 0.195 0.527 0.195 0.208 0 0.391 -0.046 0.547 -0.137 0.273 -0.169 0.801 -0.645 1.582 -1.426 v 1.094 c -1.458 1.953 -2.852 2.93 -4.18 2.93 -0.638 0 -1.146 -0.221 -1.523 -0.664 -0.378 -0.443 -0.573 -1.198 -0.586 -2.266 m 0 -1.27 v -6.816 c -1.966 0.781 -3.236 1.335 -3.809 1.66 -1.029 0.573 -1.764 1.172 -2.207 1.797 -0.443 0.625 -0.664 1.309 -0.664 2.051 0 0.938 0.28 1.719 0.84 2.344 0.56 0.612 1.204 0.918 1.934 0.918 0.99 0 2.292 -0.651 3.906 -1.953"/></clipPath><linearGradient y2="984.27" x2="24.742" y1="1034.04" x1="23.454" gradientUnits="userSpaceOnUse" id="4"><stop stop-color="#abd738"/><stop stop-color="#518705" offset="0.632"/><stop stop-color="#a4d12c" offset="1"/></linearGradient><linearGradient id="0" x1="8.207" y1="1004.25" x2="47.982" y2="1010.95" gradientUnits="userSpaceOnUse"><stop stop-color="#f5f5f5"/><stop stop-opacity="0" stop-color="#f5f5f5" offset="1"/></linearGradient><linearGradient y2="1034.13" x2="68.947" y1="984.72" x1="68.954" gradientUnits="userSpaceOnUse" id="3"><stop stop-color="#f63030"/><stop stop-color="#9d0808" offset="0.361"/><stop stop-color="#f63030" offset="1"/></linearGradient><linearGradient y2="15.12" x2="29.42" y1="48.862" x1="28.435" gradientUnits="userSpaceOnUse" id="1"><stop stop-color="#ffdc5a"/><stop stop-color="#ffb41e" offset="0.58"/><stop stop-color="#fff0aa" offset="1"/></linearGradient><linearGradient y2="1001.92" x2="72.889" y1="966.94" x1="73.03" gradientUnits="userSpaceOnUse" id="2"><stop stop-color="#fff"/><stop stop-color="#056fff" offset="0.405"/><stop stop-color="#38ceff" offset="1"/></linearGradient></defs><g color="#000" fill="#ffd700"><path d="m -1036.21 1968.79 c 102.23 72.72 251.73 -71.53 188.89 -178.76 -45.994 -91.69 -185.01 -65.25 -224.33 19.19 -30.774 52.1 -20.627 129.19 35.437 159.57 z" transform="translate(1088.39 -1732.49)"/></g><g transform="matrix(1.32387 0 0 1.35074 58.42 -1227.24)"><g transform="translate(2.149 -4.776)"><g fill-rule="evenodd"><path transform="translate(0 952.36)" d="m 32.13,20.25 c -9.188,1.032 -13.17,1.284 -28.313,2 16.965,16.595 11.813,10.184 26.75,25.625 L 45.473,33.469 C 39.814,28.277 38.815,27.334 32.129,20.25 z M 37.505,49 34.099,51.531 c 0.149,0.156 0.223,0.247 0.375,0.406 1.363,-1.341 2.084,-2.02 3.03,-2.938 z" fill="url(#1)"/><path d="m 64.11 969.57 c 8.263 -0.911 16.599 -1.502 32.39 -4.302 -23.19 21.496 -19.09 17.256 -36.498 36.39 -9.158 -10.576 -6.294 -6.747 -12.983 -15.797 5.84 -4.961 7.723 -7.02 17.09 -16.289 z" fill="url(#2)"/><path d="m 63.59 1034.09 c 8.263 0.792 19.515 2.983 34.608 5.544 -22.686 -23.279 -35.37 -32.26 -51.23 -53.12 -0.321 14.352 0.264 18.911 0.278 30.08 4.649 6.203 5.919 7.386 16.343 17.496 z" fill="url(#3)"/><path d="m 29.827 1031.23 c -13.814 -1.336 -13.686 -1.366 -28.594 -2.043 19.725 -19.21 23.345 -22.642 44.38 -42.571 0.321 14.352 0.106 19.19 0.093 30.356 -5.574 5.093 -6.01 5.35 -15.88 14.258 z" fill="url(#4)"/></g><g fill="none" stroke-linejoin="round"><path d="m 96.27 965.66 c -15.79 2.8 -24.14 3.401 -32.406 4.313 -9.368 9.265 -11.254 11.32 -17.09 16.281 6.688 9.05 3.842 5.236 13 15.813 17.41 -19.13 13.309 -14.911 36.5 -36.406 z m -64.37 7.375 c -9.188 1.032 -13.17 1.284 -28.313 2 16.965 16.595 11.813 10.184 26.75 25.625 l 14.906 -14.406 c -5.659 -5.192 -6.658 -6.135 -13.344 -13.219 z m 14.844 13.906 c -0.321 14.352 0.268 18.895 0.281 30.06 4.649 6.203 5.92 7.389 16.344 17.5 8.263 0.792 19.501 2.97 34.594 5.531 -22.686 -23.279 -35.36 -32.24 -51.22 -53.09 z m -1.375 0.094 c -21.04 19.928 -24.65 23.355 -44.38 42.563 14.908 0.677 14.78 0.727 28.594 2.063 9.868 -8.908 10.301 -9.189 15.875 -14.281 0.013 -11.167 0.227 -15.992 -0.094 -30.344 z" stroke="#2d2d2d"/><path d="m 31.56 974.09 c -8.297 1.01 -11.892 1.145 -25.567 1.847 15.01 14.777 12.81 10.798 24.379 23.418 l 13.394 -13.01 c -5.04 -5.241 -6.191 -5.583 -12.206 -12.252 z m 12.832 15.227 c -19.691 18.993 -22.951 21.641 -41.03 39.467 11.498 0.306 16.873 0.845 25.731 2.064 9.134 -8.41 10.418 -9.04 15.451 -14.03 -0.151 -10.935 -0.106 -14.789 -0.107 -25.05 z" stroke="url(#0)" stroke-width="0.94"/></g></g><g fill="#1083ff" stroke="#1083ff" stroke-linejoin="miter"><path d="m 12.38 1044.97 v -8.852 h 1.642 h 1.642 v 7.645 v 7.645 h 4.31 h 4.31 v 1.207 v 1.207 h -5.953 h -5.953 v -8.852 z" stroke-width="1.546"/><g stroke-width="1.496"><path d="m 30.998 1046.25 v -7.547 h -3.051 h -3.051 v -1.282 v -1.282 h 7.991 h 7.991 v 1.282 v 1.282 h -3.051 h -3.051 v 7.547 v 7.547 h -1.889 h -1.889 v -7.547 z"/><path d="m 46.98 1052.99 l -1.889 -0.479 l -0.087 -1.307 l -0.087 -1.307 l 2.112 0.694 c 2.828 0.93 5.92 0.842 7.05 -0.199 0.536 -0.493 0.742 -0.972 0.736 -1.704 -0.016 -1.747 -0.662 -2.226 -4.059 -3.01 -2.756 -0.635 -4.68 -1.634 -5.389 -2.797 -0.695 -1.142 -0.711 -3.671 -0.032 -4.956 1.102 -2.083 4.374 -2.986 8.62 -2.377 3.225 0.462 3.193 0.443 3.193 1.886 v 1.238 l -1.235 -0.432 c -0.679 -0.238 -2.096 -0.505 -3.149 -0.594 -3.145 -0.266 -4.915 0.652 -4.915 2.552 0 1.366 1 2.01 4.213 2.717 1.598 0.351 3.415 0.923 4.04 1.272 1.952 1.093 2.661 3.302 1.91 5.951 -0.359 1.267 -1.903 2.661 -3.398 3.068 -1.619 0.44 -5.477 0.331 -7.636 -0.216 z"/><path d="m 64.42 1044.65 v -8.862 l 4.867 0.124 c 3.757 0.096 5.132 0.236 6.03 0.616 2.301 0.977 3.351 2.53 3.339 4.941 -0.01 2.07 -0.845 3.58 -2.51 4.539 -1.291 0.744 -1.689 0.819 -4.821 0.912 l -3.414 0.101 v 3.245 v 3.245 h -1.744 h -1.744 v -8.862 z m 8.966 -0.373 c 0.974 -0.494 1.495 -1.535 1.495 -2.987 0 -2.186 -1.788 -3.279 -5.085 -3.107 l -1.744 0.091 l -0.082 3.204 l -0.082 3.204 h 2.349 c 1.464 0 2.65 -0.153 3.149 -0.406 z"/></g></g></g></svg>