<svg xmlns="http://www.w3.org/2000/svg" xmlns:xlink="http://www.w3.org/1999/xlink" viewBox="0 0 256 256"><defs><path d="m 245.46 129.52 l -97.89 -96.9 c -5.556 -5.502 -16.222 -11.873 -23.7 -14.16 l -39.518 -12.08 c -7.479 -2.286 -18.1 0.391 -23.599 5.948 l -13.441 13.578 c -5.5 5.559 -14.502 14.653 -20 20.21 l -13.44 13.579 c -5.5 5.558 -8.07 16.206 -5.706 23.658 l 12.483 39.39 c 2.363 7.456 8.843 18.06 14.399 23.556 l 97.89 96.9 c 5.558 5.502 14.605 5.455 20.1 -0.101 l 36.26 -36.63 c 5.504 -5.559 14.503 -14.651 20 -20.21 l 36.26 -36.629 c 5.502 -5.56 5.455 -14.606 -0.101 -20.11 z m -178.09 -50.74 c -7.198 0 -13.03 -5.835 -13.03 -13.03 0 -7.197 5.835 -13.03 13.03 -13.03 7.197 0 13.03 5.835 13.03 13.03 -0.001 7.198 -5.836 13.03 -13.03 13.03 z" id="0"/><use id="1" xlink:href="#0"/><clipPath id="2"><use xlink:href="#0"/></clipPath><clipPath clip-path="url(#2)"><use xlink:href="#1"/></clipPath><clipPath clip-path="url(#2)"><use xlink:href="#1"/></clipPath></defs><g fill="#7aac34" color="#000"><path d="M 212.32,840.15 C 342.21,945 152.05,1134.27 37.11,1013.36 -78.08,909.3 101.7,707.34 212.32,840.15 z" transform="translate(0 -796.36)"/></g><g transform="matrix(0.79101 0 0 0.77809 24.985 30.618)"><circle r="113.61" cy="128.5" cx="130.33" fill="#f8f8f8" stroke="#cc7c13"/><circle r="103.44" cy="128.49" cx="130.33" fill="#f4eb79"/><path d="m 88.163,76.401 c 0,0 -2.977,1.984 -2.479,4.712 0.497,2.73 1.984,4.467 4.712,4.715 2.729,0.247 4.465,-0.497 4.465,-0.497 l 7.441,16.87 -8.68,8.68 c 0,0 -27.785,-19.843 -53.087,5.956 l 5.706,4.961 c 0,0 -15.381,20.588 1.735,41.923 17.116,21.332 53.83,10.169 56.807,-10.172 l 7.194,-0.246 c 0,0 1.487,1.985 4.713,2.232 l 0.249,5.21 h -2.234 l -0.496,3.72 7.938,0.247 0.248,-3.473 h -1.984 l 0.495,-6.699 c 0,0 8.435,-1.241 6.202,-10.665 l 24.807,-22.327 3.969,1.488 c 0,0 -8.682,6.699 -4.96,27.039 l 2.48,-0.494 c 0,0 2.977,14.637 17.611,21.828 14.637,7.195 31.007,2.48 34.977,-1.735 3.971,-4.218 15.878,-13.396 13.396,-33.488 -2.48,-20.094 -22.077,-26.793 -24.309,-27.04 -2.233,-0.248 -9.427,-0.991 -9.427,-0.991 l 0.247,-2.232 c 0,0 -10.419,0 -13.396,1.24 -2.977,1.239 -5.705,-16.869 -5.705,-16.869 l 2.979,-0.248 5.208,12.651 18.853,-0.744 -0.247,-25.798 c 0,0 -19.847,-3.474 -25.552,5.457 l 0.249,3.721 -3.971,0.249 0.497,-6.45 5.706,-8.434 V 62.76 c 0,0 -10.171,-2.232 -12.65,-0.249 -2.481,1.984 -2.234,3.721 -2.234,3.721 h 3.225 c 0,0 1.489,1.983 0,2.977 -1.489,0.993 -13.395,1.24 -13.395,1.24 v 2.73 l 6.449,2.977 6.945,15.379 -2.479,11.163 -11.907,15.628 0.247,3.721 -7.193,7.192 -14.635,-0.989 -2.232,-1.986 h -5.458 L 100.318,85.58 c 0,0 3.721,-2.977 5.209,-2.977 1.489,0 6.202,0 6.202,0 0,0 3.225,-3.721 1.24,-3.721 -1.984,0 -24.806,-2.481 -24.806,-2.481 z" fill="#f4a324" stroke="#cb5418" stroke-width="2"/><g fill="#f4eb79" stroke="#d97011"><path d="m 119.916,132.465 15.13,0.991 -8.433,5.954 c 0,0 -1.488,-3.475 -6.451,-3.475 l -0.246,-3.47 z"/><path d="m 112.72,133.456 -0.247,-0.656 -9.179,-24.398 -5.705,5.707 c 0,0 7.192,6.697 9.674,18.604 l 5.457,0.743 z"/><path d="m 162.58,113.61 -3.968,-3.473 4.961,-6.698 3.225,6.698 c 0,0 -1.985,1.24 -4.218,3.473 z"/><path d="m 170.023,118.573 15.132,25.799 1.737,1.735 4.961,-2.977 -6.698,-7.195 -11.162,-18.604 c 0,0 13.146,-7.193 25.552,0.993 12.401,8.186 14.635,19.35 14.386,23.318 -0.247,3.968 1.241,15.877 -12.898,23.069 -14.14,7.195 -29.52,1.739 -34.48,-2.977 -4.961,-4.712 -11.658,-17.614 -8.436,-30.265 -10e-4,0.002 5.459,-9.175 11.906,-12.896 z"/><path d="m 67.08 138.17 l -14.884 -11.906 c 0 0 -9.921 5.956 -5.953 21.09 3.967 15.13 15.628 17.857 18.11 18.852 2.482 0.991 17.365 2.977 24.559 -2.479 7.195 -5.46 9.427 -11.162 9.427 -11.162 l -26.543 -2.232 c 0 -0.002 -10.169 -3.229 -4.713 -12.16 z"/></g><path d="m 9.03 209.6 c 48.01 -37.37 107.94 -16.908 160.93 -13.979 c 30.23 1.667 65.29 -0.012 92.67 -16.797" fill="none" stroke="#e30d4c" stroke-width="5.454"/></g></svg>