<svg xmlns="http://www.w3.org/2000/svg" viewBox="0 0 256 256"><g color="#000" fill="#c0c6bb"><path d="m 227.99 995.36 c 143.86 -207.99 -318.54 -299.65 -211.84 -41.3 34.09 84.998 165.28 149.74 211.84 41.3 z" transform="translate(0 -796.36)"/></g><g fill="#000" stroke="#000"><path d="m 105.63 187.34 c -1.257 -0.705 -2.147 -1.86 -2.907 -3.772 -1.044 -2.628 -1.081 -4.482 -0.804 -40.12 l 0.291 -37.36 l 1.453 -2.631 c 2.552 -4.621 0.275 -4.411 48.32 -4.444 44.872 -0.031 44.786 -0.036 48.02 2.712 l 1.325 1.126 v 40.575 c 0 37.511 -0.076 40.673 -0.999 41.876 -2.571 3.347 1.122 3.111 -48.12 3.082 -43.19 -0.025 -44.827 -0.062 -46.575 -1.042 z m 90.06 -3.863 c 0.7 -0.633 0.92 -6.451 1.35 -35.653 0.666 -45.26 0.68 -44.08 -0.515 -44.871 -1.207 -0.799 -82.55 -1.595 -86.11 -0.842 -4.124 0.872 -4.133 0.9 -4.133 12.81 0 5.851 0.228 23.621 0.506 39.49 0.504 28.74 0.511 28.854 1.744 29.3 0.681 0.249 20.382 0.468 43.78 0.486 36.26 0.028 42.665 -0.078 43.38 -0.723 z m -83.3 -2.066 c 0 -0.395 1.325 -1.839 2.944 -3.21 2.413 -2.043 3.173 -2.415 4.215 -2.062 0.699 0.237 15.07 0.503 31.93 0.592 29.45 0.156 30.747 0.122 32.883 -0.865 4.306 -1.988 4.238 -1.44 4.04 -32.68 -0.096 -15.195 -0.392 -28.15 -0.658 -28.786 -0.401 -0.963 0.034 -1.653 2.583 -4.092 1.686 -1.614 3.297 -2.865 3.579 -2.78 0.291 0.088 0.494 15.861 0.467 36.43 -0.042 32.744 -0.139 36.37 -0.993 37.22 -0.894 0.895 -3.169 0.947 -40.969 0.947 -33.402 0 -40.02 -0.119 -40.02 -0.717 z m 16.13 -16.16 c -1.357 -0.716 -1.284 -1.65 0.47 -6.01 1.272 -2.773 1.974 -5.892 3.469 -8.525 1.58 -3.445 2.577 -7.182 4.344 -10.294 1.06 -1.796 1.581 -3.983 2.388 -5.594 0.674 -1.334 1.698 -3.373 2.274 -4.531 4.964 -9.966 4.751 -9.736 8.995 -9.736 2.097 0 2.768 0.27 4.02 1.619 1.505 1.485 1.789 3.661 2.668 5.249 1.202 2.281 2.702 4.424 3.488 6.861 0 0.345 0.503 1.601 1.118 2.79 1.735 4.571 4.504 8.778 5.878 13.535 0.543 2.026 1.618 3.513 2.286 5.533 0.011 0.325 0.559 1.694 1.218 3.043 1.591 3.256 1.334 5.663 -0.674 6.297 -0.831 0.263 -2.468 0.315 -3.637 0.117 -1.796 -0.305 -2.343 -0.747 -3.517 -2.845 -1.424 -2.354 -1.918 -5.229 -3.472 -7.412 -0.509 -0.382 -4.17 -0.62 -10.224 -0.665 l -9.432 -0.069 c -1.185 2.313 -2.347 4.716 -3.165 7.124 -0.608 1.814 -1.3 2.713 -2.531 3.289 -1.942 0.909 -4.486 1 -5.966 0.224 z m 28.05 -18.362 c 0 -0.571 -0.495 -2.051 -1.101 -3.289 -1.911 -3.906 -3.476 -7.467 -3.882 -8.829 -0.638 -2.142 -2.575 -3.67 -2.575 -2.031 0 0.33 -0.488 1.573 -1.084 2.763 -2.82 5.626 -3.44 7.02 -3.824 8.603 -0.227 0.937 -0.655 1.839 -0.95 2 -0.295 0.165 -0.537 0.641 -0.537 1.059 0 0.618 1.29 0.758 6.976 0.758 6.557 0 6.976 -0.062 6.976 -1.038 z m -96.34 -2.689 c -1.909 -0.362 -4.587 -1.639 -6.412 -3.056 l -1.308 -1.016 v -40.29 v -40.29 l 3.21 -2.906 l 3.21 -2.906 h 43.514 h 43.514 l 2.367 1.973 c 1.302 1.085 2.659 2.677 3.02 3.538 0.883 2.131 1.464 32.355 0.643 33.431 -0.514 0.674 -4.287 0.829 -25.767 1.062 -13.841 0.15 -25.607 0.466 -26.15 0.702 -0.54 0.236 -1.427 1.044 -1.971 1.796 -0.889 1.228 -0.997 3.644 -1.065 23.893 -0.064 19.11 -0.206 22.643 -0.935 23.296 -0.705 0.632 -3.852 0.798 -17.556 0.928 -9.183 0.087 -17.423 0.02 -18.312 -0.148 z m 31.23 -4.96 c 2.216 -1.228 1.358 -6.776 1.765 -11.723 -0.33 -1.076 -0.601 -5.093 -0.603 -8.928 -0.003 -6.469 -0.082 -6.973 -1.095 -6.973 -0.6 0 -1.434 0.374 -1.853 0.83 -1.87 2.04 -9.157 4.341 -11.561 3.651 -2.697 -0.775 -1.746 -3.645 1.384 -4.176 3.597 -0.611 7.406 -2.466 10.297 -5.02 2.811 -2.479 3.481 -3.675 2.097 -3.748 -0.4 -0.021 -2.262 -0.117 -4.139 -0.213 -5.299 -0.272 -5.308 -0.291 -5.308 -11.05 0 -6.806 0.194 -9.34 0.754 -9.849 0.511 -0.463 3.309 0.189 8.01 0.07 10.69 -0.27 9.249 -2.536 -2.178 -2.536 -10.367 0 -12.693 0.259 -12.693 -1.715 0 -2.115 2.065 -2.556 11.985 -2.556 10.266 0 10.11 0.051 10.11 -3.19 0 -1.173 0.454 -4.71 1.554 -4.79 3.747 -0.273 3.676 3.544 3.687 4.973 0.02 2.607 0.474 2.727 9.698 2.559 9.505 -0.173 11.57 0.214 12.142 2.279 0.601 2.169 -0.585 2.906 -4.674 2.906 -4.139 0 -4.794 0.309 -3.211 1.513 0.88 0.669 1.159 1.658 1.283 4.539 l 0.158 3.684 c 10.07 0.877 19.352 0.189 28.486 -0.526 l 0.469 -13.964 c 0.499 -14.869 0.307 -16.48 -2.061 -17.295 -0.727 -0.25 -19.894 -0.621 -42.593 -0.824 -46.753 -0.418 -45.43 -0.508 -46.5 3.189 -0.381 1.321 -0.463 8.07 -0.23 18.895 0.2 9.262 0.396 26 0.438 37.2 0.042 11.369 0.318 20.937 0.626 21.67 0.72 1.714 0.986 1.741 18.416 1.835 12.384 0.067 14.718 -0.042 15.335 -0.715 z m -29.07 -2.402 c 0 -1.03 5.5 -5.746 6.685 -5.731 0.639 0.008 1.67 0.362 2.291 0.787 0.869 0.595 3.03 0.773 9.398 0.773 5.54 0 8.341 0.193 8.485 0.584 0.177 1.482 -0.052 2.651 -0.245 4.152 h -13.307 c -9.08 0 -13.307 -0.179 -13.307 -0.564 z m 77.71 -49.774 c -0.217 -0.196 -0.394 -3.706 -0.394 -7.799 0 -5.729 -0.196 -7.677 -0.854 -8.464 -1.512 -1.809 -1.016 -3.05 2.37 -5.935 1.793 -1.528 3.397 -2.654 3.565 -2.503 0.273 0.247 0.246 24.12 -0.027 24.304 -1.499 0.381 -3.226 0.504 -4.659 0.397 z m -47.1 10.347 c 1.1 -1.271 0.158 -4.373 -2.292 -4.405 -5.952 -0.079 -3.805 4.252 -2.648 5.514 0.942 1.027 3.827 0.179 4.941 -1.108 z m 22.452 -9.845 c 0.136 -3.608 -2.698 -3.117 -6.697 -3.117 -3.999 0 -4.974 2.283 -4.991 3.117 -0.076 3.59 1.07 3.446 4.836 2.94 3.474 -0.158 7.331 -0.491 6.852 -2.94 z m -17.13 0.718 c 0.362 -1.702 -1.116 -3.122 -5.489 -3.1 -3.39 0.017 -5.886 0.69 -6.086 1.572 -0.868 3.837 2.412 3.428 7.234 3.405 3.629 -0.017 4.174 -1.095 4.34 -1.877 z m 19.772 -7.871 c -0.353 -2.46 -7.38 -1.302 -11.567 -1.147 -0.62 0.023 -2.214 1.167 -2.214 1.457 0 0.289 1.755 0.371 2.573 0.371 9.372 0 11.412 -0.383 11.208 -0.681 z" fill="#000" stroke="#000"/></g></svg>