<svg xmlns="http://www.w3.org/2000/svg" viewBox="0 0 256 256"><path d="m 11.923 231.6 c -10.309 -38.95 -16.365 -128.73 1.958 -169.66 14.1 -31.15 42.716 -52.99 76.46 -58.36 55.33 -8.805 126.16 37.535 151.05 70.851 46.909 75.71 -34.443 134.65 -95.5 158.35 -33.974 10.928 -112.68 43.28 -133.97 -1.184 z" fill="#b0b0b0"/><path d="m 51.26 229.01 c -12.979 -3.789 -20.17 -10.911 -22.816 -22.603 -4.615 -20.372 -6.864 -48 -6.24 -76.63 0.525 -24.08 2.116 -36.662 6.419 -50.759 l 2.352 -7.704 l 3 9.546 c 15.751 50.06 58.22 87.3 108.69 95.3 12.567 1.992 32.707 1.781 44.629 -0.469 5.406 -1.02 10.56 -2.131 11.453 -2.469 5.04 -1.908 -11.856 12.325 -24.22 20.403 -18.522 12.1 -36.819 19.886 -71.1 30.26 -18.782 5.684 -42.33 7.998 -52.17 5.126 z" fill="#8a8a8a" stroke="#8a8a8a" stroke-width="1.793"/><path d="m 47.27 204.31 c -1.541 -1.248 -1.863 -2.469 -2.81 -10.655 l -1.069 -9.246 l 14.951 -19.534 c 17.914 -23.405 17.943 -23.446 17.746 -25.15 -6.073 -11.124 -8.06 -20.629 -9.299 -28.326 -1.409 -8.79 -1.533 -11.326 -0.826 -16.833 2.956 -23.02 17.982 -42.628 38.873 -50.735 7.41 -2.876 20.88 -4.649 28.496 -3.751 18.572 2.189 34.708 12.271 44.747 27.957 10.554 17.524 11.645 37.992 7.06 53.908 -3.152 10.822 -3.997 12.638 -8.62 18.532 -11.154 14.219 -28.787 23.348 -46.3 23.97 -7.153 0.254 -18.05 -1.281 -23.28 -3.28 -1.765 -0.674 -3.954 -1.14 -4.865 -1.035 -1.117 0.129 -6.791 6.746 -17.436 20.334 -8.679 11.08 -16.824 20.897 -18.1 21.82 -1.764 1.274 -4.149 1.889 -9.924 2.557 -6.564 0.759 -7.839 0.687 -9.342 -0.53 z m 94.12 -62.857 c 21.292 -8.38 32.26 -28.851 27.04 -50.48 -5.05 -20.916 -25.318 -35.434 -46.12 -33.03 -10.932 1.264 -21.401 7.267 -28.339 16.249 -11.56 14.966 -12.424 35.02 -2.194 50.916 3.095 4.81 13.348 13.07 19.474 15.68 9.519 4.062 20.862 4.311 30.14 0.66 z m 10.24 -40.84 c -2.576 -0.229 -4.688 -2.144 -7.244 -6.569 -3.191 -5.522 -7.737 -9.22 -13.828 -11.247 -5.633 -1.874 -7.867 -3.932 -8.296 -7.64 -0.217 -1.878 0.291 -3.165 1.962 -4.973 2.02 -2.187 2.697 -2.444 6.515 -2.483 12.198 -0.124 30.858 18.01 28.22 27.426 -1.095 3.901 -3.648 5.814 -7.325 5.487 z" transform="matrix(0.932 0 0 0.92422 8.403 11.197)"/></svg>