<svg xmlns="http://www.w3.org/2000/svg" viewBox="0 0 256 256"><defs><clipPath><path d="M 0,64 H64 V128 H0 z"/></clipPath></defs><path d="m -141.77 114.19 c -23.375 -9.972 -55.848 -24.645 -58.74 -26.541 -1.767 -1.158 -4.743 -4.123 -6.613 -6.588 -5.342 -7.04 -34.1 -57.23 -35.35 -61.698 -1.161 -4.145 -0.64 -19.29 1.133 -32.972 4.02 -40.43 1.975 -39.489 7.288 -48.18 1.133 -2.351 12.588 -15.726 25.455 -29.723 24.737 -26.908 27.378 -29.08 37.814 -31.12 28.15 -4.838 45.87 -10.826 71.11 -12.308 22.454 9.595 46.665 19.607 67.882 31.607 3.31 2.842 8.233 10.278 19.285 29.13 22.633 38.605 20.805 34.37 20.672 47.897 -2.273 21.03 -2.134 56.09 -9.42 71 -2.521 4.704 -35.504 41.94 -45.926 51.849 -5.185 4.93 -10.38 7.167 -22.44 9.666 -12.207 4.538 -40.855 9.263 -50.675 11.05 -5.667 1.317 -12.288 0.849 -21.48 -3.072 z" fill="#f00407" transform="translate(245.16 136.31)"/><g fill="#fff" stroke="#ff4500" stroke-width="0.586"><path d="m 140.41 120.47 c -19.03 -0.295 -40.08 -0.753 -46.792 -1.019 -11.596 -0.459 -12.222 -0.562 -12.721 -2.096 -0.85 -2.614 -0.522 -22.692 0.4 -24.414 0.564 -1.054 1.905 -1.712 4.185 -2.054 4.399 -0.66 86.76 0.068 88.96 0.786 1.672 0.546 1.691 0.71 1.617 13.439 -0.041 7.087 -0.295 13.563 -0.564 14.39 -0.483 1.486 -0.915 1.498 -35.09 0.968 z"/><path d="m 109.72 164.94 c -17.363 -0.368 -27.27 -0.859 -27.905 -1.383 -1.176 -0.976 -2.097 -15.832 -1.332 -21.494 0.45 -3.33 0.809 -3.913 3.14 -5.094 2.445 -1.238 5.746 -1.319 46.33 -1.128 35.702 0.168 43.921 0.394 44.937 1.238 1.057 0.877 1.243 2.753 1.243 12.503 0 6.309 -0.212 12.529 -0.47 13.821 l -0.47 2.35 l -19.272 -0.122 c -10.6 -0.067 -31.389 -0.378 -46.2 -0.692 z"/></g></svg>