<svg xmlns="http://www.w3.org/2000/svg" xmlns:xlink="http://www.w3.org/1999/xlink" viewBox="0 0 256 256"><defs><path d="m 46 0 v 64 h 18 v -64" id="0"/><path d="M 0,0 V 64 H 18 V 18 H 41 V 0 Z" id="1"/><path id="2" d="M 23,23 V 64 H 41 V 23"/><clipPath><path d="M 0,64 H64 V128 H0 z"/></clipPath></defs><g fill="#661425" color="#000"><path d="m -1364.44 1637.2 c 46.11 -98.28 -115.29 -141.94 -177.55 -101.93 -62.25 40.01 -83.52 108.58 -13.01 143.08 70.51 34.501 139.38 67.53 185.49 -30.762 z" transform="matrix(0.34548 -0.95802 1.20264 0.47187 -1307.35 -2046.87)"/></g><g transform="matrix(0.01752 0 0 -0.01818 7.097 214.55)"><g transform="matrix(30 0 0 -30 10383.05 5104.58)" fill="#35bf5c"><use xlink:href="#1" width="1" height="1"/><use xlink:href="#2"/><use xlink:href="#0" width="1" height="1"/></g><g transform="matrix(30 0 0 -30 5980.68 5164.07)" fill="#f00"><use xlink:href="#1" width="1" height="1"/><use xlink:href="#2"/><use xlink:href="#0" width="1" height="1"/></g><g transform="matrix(30 0 0 -30 8162.03 5144.24)" fill="#ff9800"><use xlink:href="#1" width="1" height="1"/><use xlink:href="#2"/><use xlink:href="#0" width="1" height="1"/></g><path d="M 4760.98,8003.05 C 4396.59,7975.245 4057.81,7898.42 3725.62,7767.44 3599.04,7717.684 3346.6,7591.83 3225.87,7518.66 2318.56,6968.42 1720.03,6044.28 1593.44,4999.41 c -91.46,-755.85 69.51,-1517.55 457.31,-2165.84 291.22,-485.85 688.53,-885.36 1175.11,-1180.24 120.73,-73.17 373.17,-199.02 499.75,-248.78 156.58,-61.46 336.58,-117.8 482.92,-151.46 458.78,-105.37 916.09,-118.54 1371.21,-40.24 823.9,141.22 1568.04,582.44 2092.67,1239.5 98.78,122.93 231.95,314.63 223.17,321.22 -1.463,1.463 -654.14,409.02 -1449.5,905.85 -796.09,496.83 -1447.31,904.38 -1447.31,906.58 0,2.195 651.22,409.75 1447.31,906.58 795.36,496.83 1448.04,904.38 1449.5,905.85 8.78,6.585 -126.58,201.22 -229.75,329.27 -225.36,280.97 -490.97,522.44 -795.36,722.19 -462.44,302.92 -975.36,485.12 -1528.53,542.19 -133.9,13.902 -457.31,19.756 -580.97,10.976 z" fill="#ffd400" stroke-width="0.732"/></g></svg>