<svg xmlns="http://www.w3.org/2000/svg" viewBox="0 0 256 256"><path d="m 66.6 30.3 c 59.1 -58.5 113.7 -15.66 158.5 30.84 c 36.52 37.86 38.2 72.98 13.98 110.2 c -63.2 97.2 -145.2 133.2 -231.2 -17.52 c -21.2 -49.71 23.52 -96 58.64 -123.5" style="fill:#689686"/><g transform="matrix(0.759 0 0 0.719 38.94 23.1)"><path d="m 111.9 258.1 c -10 -5 -50.77 -30.69 -66.79 -42.1 -9.46 -6.71 -11.62 -8.45 -12.54 -20.28 -3.42 -43.72 -8.33 -89.7 -7.5 -105.1 0.08 -1.5 1.22 -2.92 2.99 -3.71 4 -1.81 28.2 -8.33 61.76 -16.67 l 28.79 -7.16 l 45.53 12 l 45.53 12 l -0.32 5.81 c -0.17 3.2 -0.81 17.1 -1.42 30.92 -1.76 40 -5.15 74.5 -8.15 83 -1.28 3.6 -10.1 10.1 -33.87 25 -17.33 10.86 -44.56 26.6 -47.77 27.61 -1.14 0.36 -3.95 -0.29 -6.23 -1.44 z" style="fill:#fff"/><path d="m 125.8 109.2 c -1.81 -0.34 -9.37 -2.72 -16.82 -5.29 -7.45 -2.57 -15.94 -5.49 -18.88 -6.48 -10.51 -3.57 -13.15 -6.1 -8.4 -7.9 6.5 -2.52 42.97 -11.48 46.97 -11.54 3.13 -0.05 10.68 1.58 24.61 5.31 26.5 7.09 26.86 7.24 23.85 9.97 -1.45 1.31 -13.1 5.79 -21.39 8.2 -2.03 0.59 -7.56 2.43 -12.29 4.09 -11 3.86 -13.64 4.4 -17.66 3.64 z" transform="matrix(1.317 0 0 1.391 -51.3 -32.2)" style="fill:#007"/><path d="m 79.99 222.7 c -14.78 -9.32 -27.75 -17.91 -28.83 -19.1 -1.59 -1.73 -2.29 -6 -3.68 -22.68 -4.33 -51.81 -4.93 -68.7 -2.46 -69.7 1.2 -0.49 61.79 23.6 63.2 25.1 1.28 1.36 2.24 21.78 2.3 49.2 0.08 34.94 -0.82 54.1 -2.53 54.1 -0.65 -0.02 -13.28 -7.66 -28.1 -16.98 z" style="fill:#f15050"/><path d="m 128.6 228.7 c -0.84 -10.5 -0.68 -59.72 0.25 -77.89 0.51 -9.84 1.06 -13.24 2.29 -13.96 2.86 -1.68 58.67 -23.82 60 -23.82 0.73 0 1.55 0.92 1.82 2.03 0.66 2.65 -0.95 35.4 -2.42 49.3 -0.63 5.96 -1.53 16.9 -2 24.29 -0.48 7.4 -1.32 13.9 -1.86 14.44 -1.72 1.73 -55.2 34.3 -56.4 34.3 -0.59 0 -1.38 -3.93 -1.77 -8.73 z" style="fill:#51f251"/></g></svg>