<svg xmlns="http://www.w3.org/2000/svg" viewBox="0 0 256 256"><g fill="#f3f8fe" color="#000"><path d="m 244.84 882.37 c 49.681 128.5 -89.55 194.42 -176.23 161.67 -60.5 -22.859 -90.65 -113.97 -47.683 -187.62 54.22 -92.93 185.6 -73.16 223.92 25.949 z" transform="matrix(0 -1 -0.99153 0 1044.54 257.1)"/></g><path d="m 103.01 228.65 v -128 h 128 h 128 v 128 v 128 h -128 h -128 v -128 z m 243.5 0 v -115.5 h -115.5 h -115.5 l -0.257 114.5 c -0.142 62.975 -0.043 115.06 0.22 115.75 0.38 0.998 24.06 1.202 115.76 1 l 115.28 -0.254 v -115.5 z m -180.29 48.15 c -1.975 -1.253 -3 -87.93 -1.073 -90.38 1.696 -2.148 12.302 -4.422 27.917 -5.983 14.819 -1.482 24.492 -0.216 32.999 4.319 l 5.814 3.099 l 5.733 -2.712 c 9.452 -4.472 19.746 -6.144 29.27 -4.755 14.806 2.158 24.13 9.459 28.31 22.16 2.01 6.1 2.202 9.09 2.586 39.19 0.374 29.393 0.252 32.751 -1.247 34.25 -1.362 1.362 -3.795 1.662 -13.468 1.662 -8.227 0 -12.12 -0.379 -12.84 -1.25 -0.643 -0.777 -1.165 -12.598 -1.381 -31.25 -0.311 -26.899 -0.541 -30.392 -2.224 -33.794 -3.098 -6.264 -10.132 -8.301 -18.607 -5.391 l -3.5 1.202 l 0.5 5.992 c 0.275 3.295 0.5 18.721 0.5 34.28 0 24.06 -0.224 28.429 -1.5 29.23 -1.755 1.109 -23.959 1.293 -25.65 0.213 -0.809 -0.517 -1.271 -9.623 -1.558 -30.735 -0.453 -33.29 -1.099 -37.06 -6.867 -40.04 -3.407 -1.762 -14.05 -1.939 -15.726 -0.262 -0.887 0.887 -1.2 10.243 -1.2 35.893 0 30.713 -0.181 34.763 -1.582 35.3 -2.364 0.907 -23.719 0.703 -25.21 -0.242 z" fill="#348ff5" transform="matrix(0.49852 0 0 0.46771 12.1 27.994)"/></svg>