<svg xmlns="http://www.w3.org/2000/svg" xmlns:xlink="http://www.w3.org/1999/xlink" viewBox="0 0 256 256"><defs><path d="m 245.46 129.52 l -97.89 -96.9 c -5.556 -5.502 -16.222 -11.873 -23.7 -14.16 l -39.518 -12.08 c -7.479 -2.286 -18.1 0.391 -23.599 5.948 l -13.441 13.578 c -5.5 5.559 -14.502 14.653 -20 20.21 l -13.44 13.579 c -5.5 5.558 -8.07 16.206 -5.706 23.658 l 12.483 39.39 c 2.363 7.456 8.843 18.06 14.399 23.556 l 97.89 96.9 c 5.558 5.502 14.605 5.455 20.1 -0.101 l 36.26 -36.63 c 5.504 -5.559 14.503 -14.651 20 -20.21 l 36.26 -36.629 c 5.502 -5.56 5.455 -14.606 -0.101 -20.11 z m -178.09 -50.74 c -7.198 0 -13.03 -5.835 -13.03 -13.03 0 -7.197 5.835 -13.03 13.03 -13.03 7.197 0 13.03 5.835 13.03 13.03 -0.001 7.198 -5.836 13.03 -13.03 13.03 z" id="0"/><use id="1" xlink:href="#0"/><clipPath id="2"><use xlink:href="#0"/></clipPath><clipPath clip-path="url(#2)"><use xlink:href="#1"/></clipPath><clipPath clip-path="url(#2)"><use xlink:href="#1"/></clipPath></defs><g fill="#6b4a23" color="#000"><path d="m 128.42 795.13 c 168.87 -19.553 166.53 260.33 -3.01 257.01 -157.67 9.224 -171.9 -272.26 3.01 -257.01 z" transform="matrix(1.0001 0 0 -0.9752 -1.02 1029.44)"/></g><g stroke="#d82432"><rect width="108.68" height="87.75" x="74.71" y="107.61" rx="37.08" ry="16.59" fill="#ffe57e" stroke-width="0.755"/><rect ry="16.59" rx="37.08" y="89.42" x="65.998" height="54.52" width="123.7" fill="#f7e398" stroke-width="0.635"/><rect transform="matrix(0 1 -1 0 0 0)" width="11.437" height="39.17" x="101.05" y="-147.97" rx="4.627" ry="16.59" fill="#c0c0c0" stroke-width="0.587"/><rect width="12.466" height="32.34" x="121.65" y="75.9" rx="4.627" ry="16.17" fill="#949495" stroke-width="0.557"/><rect ry="16.59" rx="4.627" y="-149.35" x="62.854" height="41.921" width="22.517" transform="matrix(0 1 -1 0 0 0)" fill="#c0c0c0" stroke-width="0.852"/></g><g fill="#8b0000" stroke="#8b0000"><path d="m 96.41 182.8 c 2.179 -1.055 2.245 -1.527 2.245 -15.966 0 -14.74 -0.021 -14.879 -2.245 -14.949 -2.143 -0.067 -2.154 -0.11 -0.249 -0.932 1.098 -0.474 3.231 -0.893 4.74 -0.932 l 2.744 -0.071 v 16.07 c 0 15.724 0.048 16.09 2.245 16.972 1.656 0.668 0.411 0.905 -4.74 0.902 -5.739 -0.004 -6.585 -0.198 -4.74 -1.092 z" stroke-width="0.675"/><g stroke-width="0.51"><path d="m 116.56 167.72 v -15.972 l -2.448 -0.079 l -2.448 -0.079 l 3.01 -0.997 c 6.271 -2.075 6.403 -1.964 6.403 5.404 0 6.401 0.03 6.509 1.695 6.02 0.932 -0.272 3.39 -0.673 5.461 -0.891 8.968 -0.945 14.845 7.07 11.01 15.01 -2.459 5.1 -6.208 6.87 -15.345 7.247 l -7.345 0.303 v -15.972 z m 13.91 13.209 c 4.536 -1.903 6.284 -8.296 3.739 -13.68 -1.458 -3.085 -4.246 -4.319 -9.06 -4.01 l -3.688 0.235 l -0.212 9.266 l -0.212 9.266 h 3.437 c 1.89 0 4.59 -0.484 6 -1.075 z"/><path d="m 147.82 182.15 c -1.954 -0.453 -2.292 -0.908 -2.494 -3.357 -0.289 -3.499 1.389 -3.892 2.621 -0.614 1.753 4.664 10.419 3.738 10.419 -1.113 0 -1.999 -0.527 -2.507 -4.896 -4.717 -6.737 -3.407 -7.67 -4.307 -7.39 -7.125 0.428 -4.311 5.874 -6.646 12.998 -5.573 3.308 0.498 3.432 0.61 3.432 3.118 0 1.808 -0.345 2.601 -1.13 2.601 -0.621 0 -1.13 -0.486 -1.13 -1.081 0 -3.347 -6.283 -4.714 -9.02 -1.963 -2.413 2.422 -1.019 4.401 5.279 7.495 3.061 1.504 5.904 3.312 6.32 4.02 1.038 1.764 -0.211 5.01 -2.621 6.81 -2.106 1.574 -8.65 2.367 -12.385 1.501 z"/></g></g></svg>