<svg xmlns="http://www.w3.org/2000/svg" viewBox="0 0 256 256"><g fill="#48d1cc" color="#000"><path d="m -1363.8 1650.47 c 92.76 -229.28 -405.65 -114.61 -172.57 42.475 46.699 31.473 147.56 19.349 172.57 -42.475 z" transform="matrix(1.03026 0 0 -1.34905 1649.04 2308.06)"/></g><g transform="matrix(3.62487 0 0 3.65713 49.97 47.2)"><path d="m 10,12 c -1.108,0 -2,0.892 -2,2 v 24 c 0,1.108 0.892,2 2,2 h 18 l 4,4 4,-4 h 6 c 1.108,0 2,-0.892 2,-2 V 14 c 0,-1.108 -0.892,-2 -2,-2 z" fill="#35454c"/><path d="m 10 12 c -1.108 0 -2 0.892 -2 2 v 1 c 0 -1.108 0.892 -2 2 -2 h 32 c 1.108 0 2 0.892 2 2 v -1 c 0 -1.108 -0.892 -2 -2 -2 z" opacity="0.1" fill="#fff"/><path d="m 8,38 v 1 c 0,1.108 0.892,2 2,2 h 18 l 4,4 4,-4 h 6 c 1.108,0 2,-0.892 2,-2 v -1 c 0,1.108 -0.892,2 -2,2 h -6 l -4,4 -4,-4 H 10 C 8.892,40 8,39.108 8,38 z" opacity="0.2"/><path d="M 5.2,5 C 4.5352,5 4,5.5352001 4,6.2 V 26.8 C 4,27.4648 4.5352,28 5.2,28 H 11 V 12 h 8 V 5 z M 20,5 v 23 h 5.8 C 26.4648,28 27,27.4648 27,26.8 V 6.2 C 27,5.5352001 26.4648,5 25.8,5 z m -8,8 v 15 h 7 V 13 z" opacity="0.2"/><path d="M 5.2,4 C 4.5352,4 4,4.5352001 4,5.2 V 25.8 C 4,26.4648 4.5352,27 5.2,27 H 11 V 11 h 8 V 4 z M 20,4 v 23 h 5.8 C 26.4648,27 27,26.4648 27,25.8 V 5.2 C 27,4.5352001 26.4648,4 25.8,4 z m -8,8 v 15 h 7 V 12 z" fill="#16a085"/><path d="M 5.199,4 C 4.534,4 4,4.534 4,5.199 v 1 C 4,5.534 4.534,5 5.199,5 H 19 V 4 H 5.199 z M 20,4 v 1 h 5.801 C 26.466,5 27,5.534 27,6.199 v -1 C 27,4.534 26.466,4 25.801,4 H 20 z m -8,8 v 1 h 7 v -1 h -7 z" opacity="0.2" fill="#fff"/></g></svg>