<svg xmlns="http://www.w3.org/2000/svg" viewBox="0 0 256 256" xmlns:xlink="http://www.w3.org/1999/xlink"><defs><path id="0" d="m 209.57 131.48 a 10.407 9.689 0 1 1 -20.814 0 10.407 9.689 0 1 1 20.814 0 z" stroke="#2a2a2a" stroke-width="3.061"/></defs><g fill="#ffdead" color="#000"><path d="m -1363.8 1650.47 c 92.76 -229.28 -405.65 -114.61 -172.57 42.475 46.699 31.473 147.56 19.349 172.57 -42.475 z" transform="matrix(1.03665 0 0 1.35742 1657.69 -2064.79)"/></g><g fill="#fff" stroke-width="3.061"><path transform="matrix(1.13494 0 0 0.85517 10.374 19.297)" d="m 181.45 81.13 a 14.1 22.564 0 1 1 -28.2 0 14.1 22.564 0 1 1 28.2 0 z" stroke="#c0c0c0"/><path d="m 181.45 81.13 a 14.1 22.564 0 1 1 -28.2 0 14.1 22.564 0 1 1 28.2 0 z" transform="matrix(1.2293 0 0 0.92395 -49.602 1.684)" stroke="#a9a9a9"/></g><g transform="translate(5.641 -1.88)"><path d="m 87.8 203.5 c -2.077 -1.083 -4.457 -0.481 -6.623 -1.655 -3.315 -0.599 -7.02 -2.178 -10 -2.317 -0.743 -0.574 -2.76 -1.541 -4.863 -1.986 -3.266 -0.742 -5.573 -3.701 -7.287 -5.813 -0.931 -0.882 -0.563 -2.795 0.537 -2.795 0.962 -1.355 0.725 -3.147 1.412 -4.761 0.761 -1.33 0.424 -2.598 -1.55 -5.833 -0.333 -0.546 -1.122 -1.948 -1.753 -3.115 -0.924 -1.724 -2.541 -3.034 -3.15 -4.746 -0.016 -1.577 -1.743 -5.963 -2.702 -6.859 -1.87 -5.306 -0.181 -5.632 -5.782 -6.615 v -6.831 c 0 -5.402 -0.239 -7.05 -1.141 -7.899 -0.991 -0.927 -1.341 -0.946 -2.654 -0.147 -0.832 0.506 -3.03 1.078 -4.875 1.27 -3.173 0.33 -3.362 0.261 -3.362 -1.224 0.197 -1.616 1.496 -1.59 2.124 -2.592 0 -0.56 1.882 -2.756 4.182 -4.882 2.3 -2.125 4.702 -4.804 5.337 -5.954 0.635 -1.149 2.576 -3.34 4.312 -4.868 2.972 -2.616 4 -4.467 2.484 -4.467 -0.37 0 -2.52 1.042 -4.778 2.316 -4.554 2.569 -8.707 3.135 -8.707 1.188 0 -1.218 6.604 -7.476 7.889 -7.476 0.428 0 3.452 -2.441 6.72 -5.425 3.268 -2.984 6.383 -5.486 6.922 -5.56 1 -0.137 7.491 -5.554 7.491 -6.252 0 -0.212 -2.867 -0.258 -6.371 -0.101 -8.628 0.386 -8.623 -0.574 0.027 -5.174 1.027 -0.546 2.795 -1.687 3.928 -2.536 1.896 -1.42 4.408 -2.94 12.217 -7.396 4.583 -2.615 3.681 -3.973 -2.64 -3.973 -3.337 0 -5.04 -0.827 -5.04 -2.45 2.858 -1.898 7.802 -2.211 10.618 -3.84 2.659 -2.042 6.756 -1.329 9.366 -3.531 0.455 -0.425 1.421 -0.773 2.147 -0.773 1.64 0 4.059 -1.169 4.059 -1.962 0 -1.302 -2.356 -2.673 -4.594 -2.673 -2.675 0 -6.72 -1.891 -6.727 -3.145 -0.003 -0.6 1.712 -0.828 6.231 -0.828 4.387 0 6.643 -0.288 7.609 -0.972 1.075 -0.76 3.891 -0.977 12.923 -0.993 10.842 -0.02 14.287 -0.501 14.287 -1.994 0 -0.331 -2.07 -2.539 -4.601 -4.906 -3.655 -3.419 -4.601 -4.72 -4.601 -6.327 0 -2.226 0.98 -2.54 3.144 -1.01 0.756 0.535 2.03 0.977 2.831 0.982 1.776 0.012 7.712 2.027 11.888 4.03 2.674 0.617 5.37 1.361 7.51 2.577 1.898 1.093 3.994 1.986 4.658 1.986 1.52 0 3.945 1.189 3.945 1.935 0 0.31 -1.437 0.765 -3.193 1.012 -2.566 0.36 -4.04 1.178 -7.484 4.164 -4.17 3.611 -4.355 3.694 -6.59 2.938 -3.542 -1.198 -4.955 -0.973 -10.869 1.728 -5.323 2.431 -6.575 3.097 -12.565 6.686 -10.373 6.215 -26.983 21.75 -37.714 35.27 -6.382 8.04 -15.02 20.05 -15.02 20.872 0 0.313 -0.749 1.607 -1.664 2.875 -0.915 1.268 -2.343 4.391 -3.172 6.941 -1.257 3.862 -1.404 5.298 -0.881 8.608 1.44 9.12 4.591 18.75 7.909 24.17 0.781 1.275 2.01 3.55 2.74 5.056 2.381 4.939 4.922 8.186 6.403 8.186 0.774 0 1.407 -0.372 1.407 -0.828 0 -1.711 -2.182 -11.407 -3.194 -14.195 -0.579 -1.595 -1.053 -5.085 -1.053 -7.754 0 -5.972 1.304 -7.945 5.683 -8.6 2.449 -0.366 3.054 -0.786 3.916 -2.715 0.561 -1.255 1.019 -2.414 1.019 -2.575 0 -0.161 -1.439 -0.945 -3.197 -1.741 -3.753 -1.699 -4.884 -3.336 -4.367 -6.317 0.5 -2.883 9.584 -17.751 15.15 -24.798 2.445 -3.095 5.322 -6.766 6.393 -8.156 5.389 -6.998 15.968 -17.661 21.766 -21.94 1.947 -1.437 3.861 -2.925 4.255 -3.308 2.634 -2.561 10.686 -6.324 13.531 -6.324 1.244 11.261 4.506 29.649 26.789 25.349 11.136 -3.322 12.32 -18.05 19.413 -13.258 0.877 0.593 -0.02 12.473 2.895 15.15 2.916 2.679 6.257 5.551 7.426 6.383 1.169 0.832 2.605 2.366 3.193 3.41 -2.238 16.586 -9.647 8.06 -23.346 1.368 -0.326 0 -1.974 -1.184 -3.662 -2.631 -2.731 -3.093 -5.893 -2.024 -9.155 -3.363 -1.539 -0.77 -6.301 0.441 -6.301 1.602 0 0.352 2.707 3.149 6.02 6.217 3.822 2.602 5.943 7.297 8.848 10.02 2.08 2.375 4.174 5.143 5.663 7.471 0 0.738 7.08 14.506 8.08 15.72 0.799 0.967 0.894 1.694 1.539 11.743 0.374 5.833 0.309 6.193 -1.811 9.909 -1.21 2.121 -2.665 4.337 -3.234 4.925 -1.412 1.459 -1.301 3.705 0.205 4.178 2.693 0.846 9.742 5.872 10.78 7.685 0.873 1.527 -1.37 4.392 -4.528 5.781 -3.475 2.548 -8.65 2.718 -11.738 4.507 -1.765 1.213 -3.84 0.914 -5.601 1.917 -0.796 0.897 -2.902 1.397 -9.06 2.151 -3.474 1.582 -7.807 1.717 -10.824 2.884 0 0.415 -4.483 0.662 -12.03 0.662 -7.55 0 -12.03 -0.247 -12.03 -0.662 0 -0.364 -1.593 -0.662 -3.539 -0.662 -1.947 0 -3.539 0.298 -3.539 0.662 0 0.414 -4.247 0.662 -11.325 0.662 -7.078 0 -11.325 -0.248 -11.325 -0.662 z m 36.02 -18.219 c 1.71 -3.454 3.51 -6.28 4 -6.28 0.491 0 1.233 0.914 1.649 2.032 0.634 1.702 1.077 1.998 2.724 1.821 1.54 -0.165 2.01 -0.599 2.187 -1.999 0.121 -0.983 -0.15 -2.437 -0.604 -3.229 -1.522 -2.661 0.833 -3.01 10.533 -1.545 2.934 0.442 3.06 0.393 2.831 -1.096 -0.299 -1.947 -3.867 -3.02 -12.134 -3.64 -7.456 -0.561 -11.04 0.295 -12.784 3.049 -1.363 2.159 -3.214 10.519 -3.256 14.705 -0.041 4.128 1.533 2.89 4.854 -3.818 z m 46.99 -13.379 c 1.796 -1.902 3.6 -4.583 4.01 -5.959 1.713 -5.77 0.389 -13.254 -3.84 -21.704 -1.276 -2.549 -2.692 -5.38 -3.147 -6.29 -1.977 -3.957 -4.081 -7.277 -5.927 -9.355 -1.092 -1.228 -4.04 -4.675 -6.545 -7.66 -4.369 -5.199 -7.255 -7.719 -10.804 -9.433 -1.473 -0.712 -1.97 -0.506 -4.955 2.046 -3.32 2.839 -3.78 3.362 -7.358 8.364 -2.877 4.02 -8.347 14.12 -8.347 15.403 0 0.621 -0.63 2.462 -1.401 4.091 -1.803 3.814 -2.537 11.208 -1.543 15.545 0.425 1.854 1.68 4.818 2.79 6.587 l 2.02 3.216 l 5.616 0.456 c 3.089 0.251 7.846 1.044 10.571 1.762 7.547 1.991 15.885 4.468 19.82 5.888 1.947 0.703 4.04 1.103 4.658 0.89 0.616 -0.213 2.589 -1.944 4.385 -3.846 z m -63.717 -17.399 c 1.65 -0.728 4.427 -2.475 6.17 -3.882 2.759 -2.228 3.169 -2.898 3.169 -5.18 0 -2.163 -0.644 -3.378 -3.684 -6.952 -4.263 -5.01 -14.311 -13.837 -16.749 -14.71 -2.365 -0.847 -3.956 -0.07 -3.956 1.933 0 1.281 1.799 3.398 7.192 8.463 7.601 7.139 9.789 9.847 9.794 12.12 0.001 0.797 -1.543 2.841 -3.601 4.766 -1.982 1.854 -3.397 3.684 -3.144 4.067 0.646 0.978 1.388 0.881 4.808 -0.627 z m 63.16 -68.866 c -1.206 -1.246 -1.626 -2.692 -3.171 -10.922 -1.195 -6.364 -2.263 -10.575 -3.02 -11.904 -1.202 -2.115 -5.061 -6.279 -5.84 -6.303 -0.389 -0.012 -8.494 -1.462 -9.02 -1.771 -0.765 -0.453 3.872 0.539 8.01 -2.279 2.472 -1.684 2.603 -8.846 2.923 -15.65 0.088 -1.877 0.347 -2.152 2.026 -2.152 1.519 0 1.928 0.314 1.942 1.49 0.029 2.435 1.319 7.168 2.171 7.966 0.894 1.317 0.751 2.874 1.5 4.118 0.389 0.225 0.708 1.176 0.708 2.113 0 1.686 2.417 6.05 3.856 6.968 0.41 0.26 0.804 1.303 0.876 2.317 0.245 3.449 1.477 7.632 2.406 8.169 0.509 0.294 1.48 0.258 2.156 -0.081 2.871 -0.707 5.838 -1.442 8.214 -2.565 2.244 -1.072 5.622 -2.418 7.507 -2.992 4.603 -1.807 8.985 -3.624 13.562 -5 1.557 -0.462 3.23 -0.979 3.716 -1.148 0.618 -0.215 0.885 0.513 0.885 2.411 0 2.371 -0.202 2.719 -1.577 2.719 -1.019 0 -3.511 1.799 -7.05 5.086 -5.181 4.818 -5.566 5.04 -7.304 4.304 -4.65 -1.982 -9.427 0.248 -12.513 5.839 -1.345 2.437 -6.263 8.81 -7.536 9.766 -1.628 1.223 -3.978 1.01 -5.436 -0.5 z" fill="#ae8321"/><path d="m 88.52 203.5 c -4.348 -1.798 -10.06 -1.803 -14.511 -3.311 -1.567 -0.892 -3.342 -0.671 -4.854 -1.655 -2.401 -0.991 -4.116 -2.098 -6.362 -3.186 -1.409 -0.667 -1.71 -2.196 -2.594 -3.105 -1.051 0 -1.343 -1.954 -0.42 -2.817 1.941 -1.816 2.603 -9.115 0.997 -10.989 -1.605 -1.975 -2.389 -4.431 -4.221 -6.06 -0.328 0 -0.601 -0.521 -0.607 -1.159 -0.098 -3.767 -3.493 -6.716 -3.529 -10.1 0 -2.865 -1.026 -3.973 -3.681 -3.973 h -1.982 v -6.905 c 0 -5.469 -0.237 -7.127 -1.141 -7.973 -0.991 -0.927 -1.341 -0.946 -2.654 -0.147 -0.832 0.506 -3.03 1.078 -4.875 1.27 -3.173 0.33 -3.362 0.261 -3.362 -1.224 0.197 -1.616 1.496 -1.59 2.124 -2.592 0 -0.56 1.91 -2.782 4.244 -4.939 4.181 -3.198 6.481 -8.36 10.494 -11.592 2.154 -1.695 2.996 -3.64 1.577 -3.64 -0.37 0 -2.52 1.042 -4.778 2.316 -4.687 2.644 -8.707 3.14 -8.707 1.075 0 -1.173 6.952 -7.364 8.27 -7.364 0.336 0 3.145 -2.384 6.241 -5.297 3.096 -2.913 6 -5.297 6.455 -5.297 0.865 0 8.06 -5.909 8.06 -6.62 0 -0.225 -2.867 -0.281 -6.371 -0.125 -8.628 0.386 -8.623 -0.574 0.027 -5.174 1.027 -0.546 2.795 -1.687 3.928 -2.536 1.896 -1.42 4.408 -2.94 12.217 -7.396 4.583 -2.615 3.681 -3.973 -2.64 -3.973 -3.337 0 -5.04 -0.827 -5.04 -2.45 0 -0.473 0.735 -0.861 1.634 -0.861 2.847 -1.275 6.431 -1.426 8.983 -2.98 2.659 -2.042 6.756 -1.329 9.366 -3.531 0.455 -0.425 1.421 -0.773 2.147 -0.773 1.64 0 4.059 -1.169 4.059 -1.962 0 -1.302 -2.356 -2.673 -4.594 -2.673 -2.675 0 -6.72 -1.891 -6.727 -3.145 -0.003 -0.6 1.712 -0.828 6.231 -0.828 4.387 0 6.643 -0.288 7.609 -0.972 1.075 -0.76 3.891 -0.977 12.923 -0.993 10.686 -0.019 14.287 -0.504 14.287 -1.924 0 -0.292 -2.07 -2.576 -4.601 -5.075 -3.411 -3.368 -4.601 -5.02 -4.601 -6.397 0 -2.055 1.035 -2.331 3.144 -0.84 0.756 0.535 2.03 0.977 2.831 0.982 1.776 0.012 7.712 2.027 11.888 4.03 2.674 0.617 5.37 1.361 7.51 2.577 1.898 1.093 3.994 1.986 4.658 1.986 1.52 0 10.593 0.714 10.593 1.46 0 0.31 -8.08 1.24 -9.841 1.486 -2.542 0.357 -4.03 1.173 -7.295 4 -3.02 2.613 -4.373 3.393 -5.124 2.948 -0.562 -0.333 -2.933 -0.609 -5.269 -0.614 -3.668 -0.008 -5.108 0.406 -10.563 3.03 -7.954 3.831 -10.501 5.339 -16.361 9.686 -5.911 4.385 -20.256 17.872 -25.632 24.1 -7.793 9.03 -19.476 24.814 -20.418 27.589 -1.611 3.02 -3.479 6.05 -4.546 9.03 -1.842 5.215 -1.641 12.274 0.578 20.247 2.929 10.526 9.819 23.659 14.528 27.692 1.625 1.392 3.91 3.403 5.078 4.47 1.866 1.882 4.592 2.338 6.562 3.464 5.371 1.637 12.03 4.845 17.01 5.074 1.286 0.012 4.521 0.485 7.188 1.053 2.668 0.568 6.393 0.94 8.279 0.828 l 3.428 -0.204 l 0.126 -8.708 c 0.069 -4.789 0.466 -9.855 0.882 -11.256 0.416 -1.401 0.758 -3.25 0.76 -4.108 0.002 -0.858 0.997 -2.733 2.212 -4.168 l 2.208 -2.608 l -1.254 -3.116 c -0.767 -2.558 -3.12 -4.892 -3.162 -7.528 0 -0.99 -0.328 -1.99 -0.729 -2.221 -0.821 -0.475 -5.287 1.832 -9.535 4.924 -3.383 2.45 -7.08 5.124 -10.05 7.303 -6.183 4.535 -12.27 5.332 -13.236 1.733 -0.342 -1.273 -0.849 -1.546 -2.725 -1.466 -2.175 0.093 -2.318 -0.042 -2.525 -2.385 -0.187 -2.112 -0.47 -2.483 -1.896 -2.483 -4.175 0 -5 -4.05 -2 -9.788 1.266 -2.42 1.945 -4.869 2.038 -7.349 0.15 -3.984 1.374 -8.731 3.803 -14.744 1.819 -4.504 7.704 -10.496 10.308 -10.496 1.55 -0.037 2.577 -1.087 3.899 -1.324 0.734 0 2.706 -1.371 4.382 -3.047 4.116 -4.116 7.64 -5.781 10.267 -4.853 3.229 1.141 9.415 8.567 9.415 11.302 0.669 1.879 1.967 3.475 2.465 5.276 0.396 1.472 1.039 2.693 1.428 2.714 0.625 0.034 3.02 -3.636 6.343 -9.737 0.975 -1.788 3.399 -4.528 7.989 -9.03 3.043 -2.986 4.801 -4.295 8.319 -6.195 2.972 -1.605 4.276 -1.9 8.14 -1.841 6.724 0.102 11.318 2.477 19.411 10.03 l 6.521 6.088 c 7.277 -3.186 10.864 -5.984 5.151 -10.342 -0.888 -0.513 -0.818 -2.282 0.09 -2.282 1.378 0 4.926 2.893 4.926 4.02 0.289 1.499 1.538 2.266 2.147 3.514 -0.696 6.819 -6.02 15.444 -19.491 3.066 0.38 -0.575 -4.289 -4.847 -5.48 -5.01 -3.37 -1.642 -6.145 -5.53 -9.737 -5.592 -1.363 -0.005 -2.919 -0.272 -3.458 -0.591 -1.157 -0.685 -5.812 0.941 -6.664 2.328 -0.311 0.507 -1.452 0.922 -2.534 0.922 -4.511 0 -19.38 19.12 -20.939 26.925 -0.279 1.397 -0.818 2.892 -1.198 3.322 -1.078 1.22 -2.348 9.342 -2.234 14.282 0.082 3.546 0.568 5.362 2.349 8.782 1.235 2.371 2.833 4.605 3.551 4.965 0.718 0.36 3.477 0.659 6.13 0.665 4.524 0.011 7.351 0.561 19.689 3.834 4.949 1.313 5.889 1.623 11.455 3.777 2.783 1.734 5.951 -0.572 7.786 0.729 0.23 0.561 1.092 1.294 1.915 1.63 3.49 1.422 10.01 6.07 11.04 7.871 0.873 1.527 -1.37 4.392 -4.528 5.781 -1.2 0.528 -3.296 1.521 -4.659 2.205 -3.715 1.441 -9.755 2.553 -12.679 4.219 -4.837 2.786 -8.204 0.537 -12.86 3.445 -2.285 1.253 -4.902 0.714 -7.02 1.591 0 0.415 -4.382 0.662 -11.73 0.662 -9.483 0 -11.933 -0.19 -12.792 -0.993 -0.584 -0.546 -1.972 -0.993 -3.084 -0.993 -1.112 0 -2.5 0.447 -3.084 0.993 -0.853 0.798 -3.23 0.993 -12.08 0.993 -6.876 0 -11.02 -0.249 -11.02 -0.662 z m 36.4 -17.05 c 1.57 -3.367 3.107 -6.123 3.416 -6.123 0.309 0 0.921 0.739 1.361 1.643 0.985 2.02 2.868 2.651 4.897 1.636 1.368 -0.685 1.491 -1.153 1.14 -4.341 -0.46 -4.166 -0.383 -4.197 6.505 -2.546 4.711 1.129 7.156 0.58 7.156 -1.606 0 -1.588 -2.689 -2.653 -9.551 -3.783 -9.987 -1.644 -14.988 -0.878 -17.295 2.65 -2.193 3.353 -4.506 17.189 -3.094 18.509 1.33 1.244 2.858 -0.444 5.467 -6.04 z m -17.1 -31.945 c 1.65 -0.728 4.427 -2.475 6.17 -3.882 2.759 -2.228 3.169 -2.898 3.169 -5.18 0 -2.158 -0.641 -3.374 -3.621 -6.877 -4.609 -5.417 -14.886 -14.442 -17.01 -14.942 -2.432 -0.571 -3.754 0.174 -3.754 2.117 0 1.257 1.318 2.977 4.778 6.236 10.397 9.793 12.21 11.93 12.21 14.393 0 1.191 -4.57 6.149 -5.668 6.149 -0.762 0 -1.503 1.973 -1.017 2.708 0.581 0.879 1.4 0.755 4.746 -0.721 z m 12.06 -19.04 c -0.224 -1.366 -0.644 -2.781 -0.932 -3.145 -0.288 -0.364 -1.066 -2.45 -1.728 -4.635 -1.411 -4.66 -6.326 -11.99 -8.375 -12.491 -2.213 -0.541 -7.581 2.77 -7.581 4.676 0 0.713 3.01 3.511 3.776 3.511 0.972 0 11.629 10.523 12.908 12.746 1.482 2.576 2.41 2.258 1.931 -0.662 z m 51.1 -49.829 c -1.206 -1.246 -1.626 -2.692 -3.171 -10.922 -1.195 -6.364 -2.263 -10.575 -3.02 -11.904 -1.202 -2.115 -5.061 -6.279 -5.84 -6.303 -8.785 -1.717 -1.696 -2.787 -1.01 -4.05 1.441 -2.621 2.603 -8.846 2.923 -15.65 0.088 -1.877 0.347 -2.152 2.026 -2.152 1.519 0 1.928 0.314 1.942 1.49 0.029 2.435 1.319 7.168 2.171 7.966 0.594 2.036 2.134 4.556 2.208 6.231 0 1.686 2.417 6.05 3.856 6.968 0.41 0.26 0.804 1.303 0.876 2.317 0.245 3.449 1.477 7.632 2.406 8.169 1.711 0.442 3.163 -0.537 4.838 -0.697 4.621 -1.076 8.353 -3.486 13.04 -4.941 1.884 -0.574 3.901 -1.487 4.481 -2.03 1.37 -0.978 2.946 -0.539 4.302 -1.183 1.071 -0.521 3.222 -1.325 4.779 -1.787 1.557 -0.462 3.23 -0.979 3.716 -1.148 1.647 1.215 1.082 5.11 -0.692 5.13 -1.019 0 -3.511 1.799 -7.05 5.086 -5.181 4.818 -5.566 5.04 -7.304 4.304 -4.65 -1.982 -9.427 0.248 -12.513 5.839 -1.345 2.437 -6.263 8.81 -7.536 9.766 -1.628 1.223 -3.978 1.01 -5.436 -0.5 z" fill="#6e511a"/><path d="m 156.02 172.75 c -11.861 -3.705 -18.05 -5.173 -24.402 -5.785 l -5.742 -0.553 l -2.333 -4.597 c -1.998 -3.938 -2.333 -5.347 -2.333 -9.832 0 -6.833 2.413 -14.458 7.246 -22.893 5.03 -8.775 9.829 -14.627 14.01 -17.07 1.554 -0.91 4.911 1.293 9.915 6.505 7.888 8.216 12.5 14.543 16.61 22.789 5.867 11.771 7.406 19.396 5.05 25.03 -1.359 3.252 -7.03 9.06 -8.743 8.955 -0.758 -0.046 -4.932 -1.194 -9.274 -2.55 z" fill="#f4dd4f" stroke="#aa9908" stroke-width="2.197"/></g><use transform="matrix(1.32224 0 0 1.45722 -65.973 -62.27)" fill="#878787" xlink:href="#0"/><g fill="#a9a9a9"><use transform="matrix(0.84805 0 0 0.87383 32.06 -22.886)" xlink:href="#0"/><use transform="matrix(0.84805 0 0 0.87383 -8.852 -32.22)" xlink:href="#0"/></g></svg>