<svg xmlns="http://www.w3.org/2000/svg" viewBox="0 0 256 256"><g fill="#001628" color="#000"><path d="M 205.08,1023.89 C 51.53,1143.02 -107.87,846.34 82.23,802.95 201.95,758.49 318.87,935.6 205.08,1023.89 z" transform="matrix(-0.84862 -0.45617 -0.42734 0.90586 626.36 -650.84)"/></g><g transform="matrix(0.9292 0 0 0.96234 5.107 0.175)" stroke="#ff4500"><g fill="#fff" stroke-width="0.067"><path d="m 73.79 200.73 c -1.461 -1.663 -2.944 -4.339 -3.297 -5.947 -0.353 -1.607 -1.204 -3.78 -1.891 -4.828 -1.485 -2.266 -0.821 -5.749 1.494 -7.844 2.949 -2.669 5.464 -1.059 6.572 4.206 1.856 3.339 5.47 3.28 7.535 6.092 2.988 4.125 3.455 7.631 1.109 8.328 -0.85 0.252 -2.67 1.035 -4.045 1.738 -3.602 1.844 -4.513 1.631 -7.478 -1.745 z"/><path d="m 81.78 215.49 c -0.607 -0.223 -1.104 -1.121 -1.104 -1.995 0 -1.474 2.055 -3.511 10.179 -10.09 1.736 -1.405 2.96 -3.065 2.72 -3.689 -0.239 -0.624 -4.134 -6.359 -8.654 -12.744 l -8.219 -11.61 l -5.297 0.417 c -6.311 0.269 -11.939 4.059 -18.07 4.136 -3.844 0 -4.544 -0.338 -7.517 -3.629 -1.803 -1.996 -4.145 -5.472 -5.203 -7.725 -1.059 -2.253 -2.655 -5.189 -3.547 -6.524 -0.973 -1.456 -1.809 -4.746 -2.087 -8.217 -0.442 -5.511 -0.337 -5.924 2.188 -8.608 10.564 -11.229 12.625 -15.932 9.133 -20.836 -1.904 -2.483 -2.179 -5.781 -4.118 -8.1 -1.292 -1.072 -1.726 -4.345 -0.576 -4.339 1.976 0.01 6.544 3.893 8 6.803 0.923 1.841 2.328 4.539 3.123 5.996 2.969 5.446 2.275 6.937 -9.394 20.19 l -4.228 4.801 l 1.033 4.279 c 0.568 2.354 1.537 4.822 2.154 5.485 1.159 1.246 1.401 0.991 4.465 -4.678 0.507 -0.939 2.169 -2.131 3.694 -2.649 1.524 -0.518 -0.92 -7.987 -0.277 -8.5 3.157 -2.515 5.9 5.829 8.492 7.152 4.19 2.138 4.611 2.831 3.368 5.558 -0.858 1.883 -0.672 2.623 1.313 5.226 3.267 4.283 3.055 5.956 -0.755 5.956 -2.484 0 -3.316 -0.482 -4.377 -2.533 -1.097 -2.122 -1.996 -2.606 -5.541 -2.983 -2.327 -0.248 -4.341 2.087 -5.19 1.734 -2.943 -1.224 -2.499 1.72 1.101 6.624 3.133 4.269 3.337 4.385 6.703 3.847 7.954 -2.677 13.695 -4.331 21.683 -5.149 l 4.569 4.274 c 2.513 2.351 6.797 7.467 9.519 11.37 2.722 3.903 5.869 8.219 6.992 9.592 1.295 1.583 2.042 3.66 2.042 5.68 0 2.649 -0.708 3.863 -4.21 7.216 -4.556 4.363 -12.332 8.917 -14.11 8.263 z"/><path d="m 106.31 198.93 c -0.91 -1.097 -0.944 -1.898 -0.155 -3.63 1.383 -3.035 1.39 -3.02 -1.909 -3.02 -1.607 0 -3.663 -0.542 -4.569 -1.204 -1.588 -1.161 -1.563 -1.348 0.706 -5.22 2.344 -4 2.347 -4.03 0.78 -7.404 -0.865 -1.864 -2.449 -4.779 -3.52 -6.479 -1.071 -1.7 -1.949 -3.935 -1.95 -4.968 -0.006 -3.383 -1.962 -4.01 -12.1 -3.853 -5.246 0.079 -10.206 0.11 -11.02 0.068 -0.854 -0.044 -3.275 -2.975 -5.714 -6.918 -2.327 -3.763 -5.534 -8.678 -7.126 -10.921 -1.661 -2.341 -2.893 -5.162 -2.891 -6.622 0.004 -3.249 2.742 -7.75 5.914 -9.721 7.697 -4.784 8.384 -7.622 2.263 -9.35 -2.58 -0.729 -4.537 -1.895 -5.111 -3.047 -1.721 -3.452 -3.487 -4.978 -8.145 -7.04 -4.661 -2.065 -5.657 -3.66 -3.436 -5.504 0.916 -0.76 1.732 -0.577 3.45 0.775 2.356 1.853 3.929 2.15 6.393 1.204 1.256 -0.482 1.102 -0.876 -1.031 -2.645 -2.472 -2.05 -2.482 -2.098 -0.741 -3.446 1.146 -0.887 3.16 -1.276 5.735 -1.107 3.439 0.225 4.147 0.622 5.297 2.973 0.73 1.492 1.818 3.28 2.418 3.973 5.289 6.111 5.531 6.681 5.531 12.983 0 6.077 -0.053 6.216 -3.444 9.143 -1.894 1.635 -4.503 3.705 -5.796 4.602 -1.294 0.896 -2.789 2.589 -3.323 3.761 -1.08 3.711 2.037 5.01 3.744 8.238 l 1.113 2.151 l 3.191 -3.6 c 2.821 -3.182 7.188 -5.558 10.216 -5.558 0.926 0 3.043 2.644 9.104 11.371 3.813 5.49 0.311 6.951 -5.339 2.228 -1.35 -1.128 -3.932 -2.298 -5.739 -2.6 -1.807 -0.302 -3.682 -0.661 -4.168 -0.799 -1.749 -0.495 -3.973 1.381 -3.973 3.35 0.754 3.072 2.771 4.666 5.02 6.817 l 15.448 -0.603 l 15.448 -0.603 l 6.966 8.739 c 9.226 11.575 12.745 16.89 12.745 19.251 0 3.059 -3.904 7.584 -9.71 11.255 -6.588 4.166 -9.02 4.852 -10.571 2.984 z m 12.169 -17.54 c -2.074 -3.869 -14.847 -18.247 -16.21 -18.247 -2.779 0 0.212 11.366 9.663 21.17 4.91 5.095 8.973 1.599 6.547 -2.927 z m -49.49 -68.38 c -0.834 -1.318 -2.147 -3.74 -2.917 -5.382 -1.808 -3.855 -5.972 -1.145 -4.767 3.22 1.209 4.377 6.942 6.817 8.223 5.536 0.714 -0.714 0.569 -1.622 -0.539 -3.374 z"/><path d="m 132.77 182.71 c 0 -0.901 -1.734 -2.862 -3.918 -4.43 -5.307 -3.811 -5.724 -5.598 -2.39 -10.241 l 2.695 -3.752 l -3.138 -3 c -1.726 -1.652 -3.436 -3.783 -3.8 -4.736 -0.944 -2.469 -0.101 -4.889 1.705 -4.889 1.486 0 7.593 6.137 10.874 10.928 1.735 2.533 5.918 3.266 5.918 1.037 0 -1.442 -13.476 -15.436 -16.15 -16.869 -9.06 1.821 -16.476 5.597 -25.831 3.647 -2.327 -0.584 -13.921 -14.754 -15.851 -19.374 -2.267 -5.426 -1.726 -7.917 2.94 -13.534 2.341 -2.817 4.964 -6.208 5.83 -7.534 1.525 -2.337 1.517 -2.501 -0.276 -5.297 -2.411 -3.188 -3.283 -7.685 -6.386 -10.304 -1.531 -1.242 -1.591 -1.613 -0.501 -3.099 1.645 -2.246 4.141 -1.245 4.141 1.661 0.007 3.045 2.616 2.25 2.649 0.136 0 -2.9 2.199 -4.671 3.973 -3.198 1.832 1.521 1.655 3.292 -0.441 4.414 -2.392 1.28 -2.221 3.679 0.441 6.18 1.74 1.635 2.202 2.928 2.184 6.113 -0.02 3.55 -0.663 4.888 -5.297 11.03 -2.901 3.847 -5.274 7.713 -5.274 8.592 0 1.876 4.119 7.884 9.712 14.167 l 3.973 4.463 l 8.829 -0.494 c 4.856 -0.272 10.02 -0.964 11.477 -1.539 2.049 -0.808 3.546 -0.801 6.612 0.031 3.241 0.879 5.314 2.508 11.369 8.93 4.073 4.32 7.67 7.855 7.993 7.855 0.323 0 0.968 -1.291 1.432 -2.869 0.663 -2.254 1.271 -2.822 2.831 -2.649 l 3.973 0.441 c 1.472 0.164 2.06 -0.294 2.269 -1.766 0.184 -1.299 -0.174 -1.986 -1.036 -1.986 -3.309 0 -10.02 -8.159 -8.602 -10.456 0.927 -1.5 3.17 -0.492 8.915 4.01 2.671 2.091 5.154 3.801 5.518 3.802 1.922 0.002 -0.035 -2.869 -6.148 -9.02 -5.253 -5.284 -6.57 -7.09 -5.763 -7.897 1.593 -1.593 4.01 -0.106 13.694 8.43 7.671 6.761 10.356 8.615 10.356 7.152 0 -0.248 -2.781 -3.45 -6.18 -7.115 -5.828 -6.285 -6.939 -8.156 -5.623 -9.472 0.957 -0.957 4.02 1.178 12.445 8.683 4.481 3.99 8.946 7.464 9.922 7.72 0.981 0.257 2.669 -0.222 3.772 -1.07 1.098 -0.844 3.388 -2.255 5.087 -3.136 10.302 -5.341 9.753 -4.903 8.715 -6.942 -0.532 -1.046 -3.355 -4.344 -6.273 -7.33 -4.888 -5 -5.848 -7.373 -2.986 -7.373 0.614 0 3.67 2.227 6.79 4.95 9.223 8.05 8.9 7.922 13.492 5.231 2.35 -2.952 8.751 -4.428 10.658 -6.271 2.719 -2.719 1.641 -5.175 -5.219 -11.899 -6.195 -6.072 -6.517 -6.573 -5.176 -8.05 1.332 -1.472 1.21 -1.847 -1.79 -5.508 -4.369 -4.201 -2.356 -5.063 0.983 -9.452 4.759 -6.255 5.887 -6.938 7.251 -4.39 0.813 1.519 0.47 2.34 -2.229 5.327 -1.755 1.942 -3.054 3.921 -2.888 4.398 0.568 1.629 16.187 15.218 19.396 16.875 3.302 1.705 8.806 1.573 11.145 -0.268 0.829 -0.652 1.104 -0.23 1.104 1.698 0 1.896 -0.669 2.962 -2.564 4.081 -3.162 1.868 -8.321 1.968 -9.796 0.19 -2.1 -2.53 -3.313 -1.449 -3.931 3.505 -0.687 5.498 -2.306 7.147 -13.1 13.353 -7.11 4.086 -10.909 6.374 -14.393 8.666 -1.41 0.928 -3.975 2.616 -5.701 3.752 -2.224 1.571 -5.106 2.354 -7.02 3.832 -2.847 2.227 -5.33 2.208 -9.191 -0.07 -1.711 -1.01 -3.522 -1.582 -4.02 -1.272 -0.502 0.31 -0.912 2.626 -0.912 5.147 0 4.219 -0.259 4.793 -3.267 7.232 -1.797 1.457 -4.479 3.269 -5.959 4.03 -2.423 1.105 -5.99 4.309 -8.213 2.89 -0.848 -0.558 -1.395 -1.549 -1.216 -2.201 0.856 -3.113 0.481 -3.841 -2.092 -4.064 -4.188 -0.364 -5.366 0.84 -4.01 4.104 2.244 5.418 -0.362 9.181 -10.153 14.656 -6.218 3.477 -8.346 3.856 -8.346 1.484 z m 10.746 -10.44 c 1.727 -1.739 2.215 -5.066 0.519 -4.501 -1.676 0.559 -11.647 3.983 -10.276 3.983 0.613 0 4.184 6.127 9.756 0.518 z m 23.838 -14.13 c 1.981 -1.793 2.088 -5 0.227 -6.863 -1.991 -1.991 -2.36 -1.732 -1.715 1.204 0.382 1.741 -4.309 3.335 -5.306 4.856 -1.747 2.666 4.171 3.176 6.794 0.803 z"/><path d="m 107.67 138.39 c -2.704 -2.046 -4.382 -2.624 -7.617 -2.624 -4.292 0 -6.543 -1.44 -5.691 -3.64 0.693 -1.791 5.94 -5.142 9.658 -6.169 4.079 -1.126 4.808 -2.932 2.273 -5.63 -1.48 -1.576 -1.995 -3.224 -2.046 -6.542 -0.075 -4.962 1.081 -6.769 6.03 -9.437 3.489 -1.879 4.33 -3.67 3.501 -7.448 -0.53 -2.412 -2.203 -3.762 -2.203 -1.777 0 0.469 -0.802 1.281 -1.783 1.806 -2.4 1.285 -6.076 -0.917 -9.778 -5.859 -1.545 -2.062 -3.946 -4.22 -5.336 -4.795 -2.846 -1.179 -3.274 -2.975 -1.012 -4.241 3.077 -1.722 10.846 4.02 10.846 8.02 0 1 0.666 1.569 1.843 1.569 1.661 0 1.784 -0.349 1.247 -3.532 -0.328 -1.942 -0.264 -3.53 0.143 -3.528 0.407 0.002 2.528 1.192 4.713 2.645 4.686 3.115 5.297 3.22 5.297 0.906 0 -1.01 -1.026 -2.277 -2.428 -3.01 -1.335 -0.695 -3.377 -2.279 -4.537 -3.52 l -2.109 -2.257 l 3.124 -3.124 c 4.087 -4.087 5.451 -4.071 4.781 0.057 -0.52 3.201 0.545 5.481 4.961 10.621 1.572 1.83 1.566 1.979 -0.205 5.284 -1.011 1.886 -1.823 5.05 -1.823 7.102 0 3.912 -1.029 5.154 -6.976 8.423 -2.27 1.248 -2.736 2.042 -2.736 4.666 0 1.739 0.642 4.141 1.426 5.338 1.402 2.139 4.196 2.911 5.121 1.414 0.259 -0.419 2.235 -1.256 4.391 -1.859 7.191 -2.01 11.06 -8.966 7.296 -13.12 -1.963 -2.169 -1.911 -4.778 0.086 -4.399 4.486 -0.475 5.695 5.6 7.284 8.147 0 1.898 5.193 7.58 6.934 7.587 0.799 0.003 2.645 0.795 4.102 1.76 1.545 1.023 4.142 1.757 6.232 1.76 1.971 0.003 4.299 0.529 5.174 1.169 1.491 1.09 1.497 1.257 0.106 2.649 -0.877 0.877 -2.876 1.485 -4.882 1.485 -3.443 0 -4.162 -0.27 -13.805 -5.188 -6.314 -3.22 -7.393 -3.371 -7.393 -1.035 0 1.049 1.555 2.793 3.973 4.457 4.01 2.757 5.03 4.948 2.718 5.834 -1.454 0.558 -4.524 -0.874 -7.309 -3.409 -1.601 -1.457 -2.811 -1.696 -6.873 -1.359 -6.501 0.539 -7.34 1.491 -4.398 4.987 2.304 2.738 2.445 2.776 10.424 2.788 9.177 0.014 12.06 0.556 12.06 2.267 0 2.035 -3.333 3.113 -11.753 3.804 l -8.112 0.666 l -5.227 -4.699 c -5.541 -4.981 -7.04 -5.593 -7.946 -3.239 -0.379 0.989 0.464 2.398 2.612 4.365 2.723 2.494 3.034 3.162 2.201 4.72 -1.293 2.416 -2.458 2.264 -6.584 -0.858 z"/><path d="m 174.71 110.17 c -2.314 -1.526 -3.574 0.585 -9.976 1.077 -6.682 0.513 -7.562 -1.873 -9.989 -3.667 l -2.661 -1.967 l -2.109 2.275 c -1.16 1.251 -2.89 2.275 -3.844 2.275 -5.324 0 -6.253 -3.67 -1.439 -5.682 2.84 -1.187 3.09 -1.593 3.09 -5.02 0 -2.262 0.587 -4.377 1.494 -5.378 1.403 -1.55 1.403 -1.804 0 -4.179 -1.882 -3.187 -0.283 -6.289 1.432 -5.594 4.886 1.979 7.953 -0.612 8.831 2.885 0.162 0.646 -3.319 2.682 -4.155 4.139 -1.18 2.056 -1.617 6.882 -0.936 8.823 0.853 2.433 1.359 3.92 8.289 4.167 8.991 0.321 11.532 -2.059 11.532 -5.447 0 -1.374 -0.966 -3.808 -2.146 -5.407 -3.576 -4.848 -1.037 -7.139 3.965 -3.577 3.871 2.757 5.158 10.341 2.355 13.884 -0.618 0.782 -0.449 1.603 0.56 2.718 1.832 2.025 1.854 4.204 0.05 4.896 -1.75 0.672 -1.262 0.809 -4.342 -1.223 z"/><path d="m 173.68 121.14 c -0.775 -2.02 0.522 -2.897 5.747 -3.888 5.603 -1.063 6.48 -1.644 12.588 -8.341 4.68 -5.132 4.763 -5.318 4.666 -10.424 -0.159 -8.321 -4.424 -13.01 -16.3 -17.901 -4 -1.649 -1.535 -5.681 2.798 -4.573 2.02 0.516 8.932 5.545 12.718 9.253 5.687 5.571 6.126 6.427 6.477 12.628 1.01 6.39 -8.391 19.416 -14.12 20.817 -1.328 0.266 -3.093 1.232 -3.921 2.147 -1.97 2.177 -9.841 2.384 -10.648 0.281 z"/><path d="m 162.11 101.63 c -0.613 -0.247 -2.091 -3.16 -2.57 -4.055 -1.856 -3.468 5.636 -9.33 8.561 -3.049 0.61 1.309 0.771 3.701 -0.929 5.51 -2.038 2.169 -2.934 2.451 -5.062 1.593 z"/><path d="m 140.2 64.38 c -2.445 -1.114 -2.485 -2.53 -0.112 -4.03 1.101 -0.694 2.217 -0.542 4.362 0.596 1.585 0.841 4.074 1.751 5.531 2.023 2.391 0.446 5.233 -1.025 7.486 -4.637 3.17 -5.082 8.449 -13.705 10.284 -9.06 0.32 0.809 -1.477 4.756 -2.209 6.364 -0.472 1.036 11.06 7.199 18.05 9.609 6.097 2.102 5.299 -3.655 6.562 -2.065 2.192 2.76 0.422 7.149 -7.103 7.211 -6 0.049 -20.729 -5.817 -23.05 -4.02 -13.492 11.475 -13.264 1.444 -19.797 -1.992 z"/><path d="m 129.55 94.71 c -0.566 -1.474 2.179 -5.415 7.07 -10.144 3.594 -3.478 4.045 -5.672 1.451 -7.06 -1.509 -0.807 -2.01 -0.527 -3.528 1.955 -0.972 1.594 -1.768 3.169 -1.77 3.501 -0.01 1.818 -3.854 1.492 -7.483 -0.635 -5.147 -3.02 -5.467 -3.645 -3.125 -6.138 l 1.941 -2.066 l -1.849 -0.989 c -1.017 -0.544 -1.849 -1.584 -1.849 -2.31 0 -2.01 2.33 -2.472 4.57 -0.903 2.991 2.095 4.213 1.73 5.64 -1.687 1.604 -3.84 4.03 -4.045 6.263 -0.529 0.894 1.409 3.712 5 6.261 7.992 2.549 2.987 4.635 5.807 4.635 6.268 0 0.46 -1.107 0.837 -2.459 0.837 -2.05 0 -3.246 1.1 -7.195 6.622 -4.685 6.551 -7.435 8.248 -8.571 5.288 z m 4.981 -19.432 c 0 -1.685 -0.184 -1.659 -3.923 0.547 -4.594 2.71 -4.255 4.932 0.391 2.561 1.942 -0.991 3.532 -2.39 3.532 -3.108 z"/><path d="m 154.99 78.34 c -4.897 -2 1.195 -5.127 10.155 -5.209 2.995 -0.027 6.074 0.191 6.842 0.486 2.04 0.783 1.706 2.924 -0.59 3.779 -3.276 1.219 -14.197 1.848 -16.407 0.944 z"/></g><path d="m 203.7 124.9 c -8.401 -7.246 -8.434 -7.361 -3.553 -12.162 4.221 -4.152 5.487 -4.656 10.614 -4.22 2.861 0.243 9.151 6.109 10.122 9.439 0.733 2.515 -1.215 6.751 -3.104 6.751 -0.764 0 -2.252 1.039 -3.307 2.309 -2.759 3.319 -4.973 2.884 -10.771 -2.117 z m 10.241 -4.232 c 0 -2.419 -0.5 -2.886 -3.094 -2.886 -1.702 0 -3.968 -0.34 -5.04 -0.755 -1.379 -0.536 -1.039 0.3 1.172 2.886 3.845 4.497 6.958 4.834 6.958 0.755 z" fill="#011efa" stroke-width="0.084"/><path d="m 177.28 138.3 c -4.129 -4.482 -3.876 -7.471 0.998 -11.786 3.222 -2.853 4.708 -3.463 7.097 -2.915 3.349 0.768 12.603 8.305 12.603 10.266 0 0.686 -2.22 2.716 -4.933 4.512 -6.646 4.397 -11.666 4.373 -15.764 -0.077 z m 11.188 -4.826 c 0 -3.401 -5.115 -6.067 -7.462 -3.889 -1.15 1.067 -0.756 1.901 1.882 3.988 4.239 3.354 5.58 3.331 5.58 -0.099 z" fill="#ff4500" stroke-width="0.086"/></g></svg>