<svg xmlns="http://www.w3.org/2000/svg" viewBox="0 0 256 256"><path d="m 182.83 799.46 c -368.15 -25.429 -92.2 465.65 64.2 142.29 21.558 -49.828 5.804 -124.13 -64.2 -142.29 z" fill="#b0e0e6" color="#000" transform="translate(0 -796.36)"/><g transform="matrix(1.15379 0 0 1.17443 73.998 69.28)"><path d="M 83,1 83,27 36,37 29,99 1,99 1,1 z" fill="#407380" stroke="#648b95" stroke-width="1.5"/><g stroke-linejoin="bevel"><path d="m 51.01 70.71 h 9.989 v 33.71 h -9.989 z m 37.958 -45.672 h 8.99 v 19.574 l -39.956 16.311 v 7.612 h -3.996 v -10.874 l 39.956 -16.311 v -11.962 h -4.994 z m -67.925 0 h 4.994 v 4.35 h -4.994 z" fill="#888" stroke="#222" stroke-width="2.084"/><path d="m 28 17 v 21 h 59 v -21 z" fill="#529bb0" stroke="#6eb3c7" stroke-width="2"/><path d="m 31 20 h 53 v 4 h -53 z" fill="#73d0e8"/></g></g></svg>