<svg xmlns="http://www.w3.org/2000/svg" viewBox="0 0 256 256"><g fill="#ff0065" color="#000"><path d="m 244.84 882.37 c 49.681 128.5 -89.55 194.42 -176.23 161.67 -60.5 -22.859 -90.65 -113.97 -47.683 -187.62 54.22 -92.93 185.6 -73.16 223.92 25.949 z" transform="matrix(0 -0.99645 -0.99153 0 1044.54 256.19)"/></g><g fill="#fff"><path d="m 117.12 230.27 c -12.01 -1.533 -26.76 -5.935 -35.478 -10.588 -15.441 -8.241 -30.369 -21.84 -39.04 -35.56 -6.919 -10.951 -9.827 -17.993 -12.74 -30.85 -5.688 -25.11 -1.226 -52.603 11.875 -73.17 9.276 -14.56 20.766 -25.816 34.914 -34.2 9.837 -5.83 16.54 -8.407 29.27 -11.252 c 20.19 -4.51 44.39 -1.867 62.726 6.849 26.45 12.572 46.07 35.679 54.19 63.814 2.461 8.529 2.637 10.26 2.646 26.08 0.011 17.976 -1.078 24.764 -6.083 37.911 -2.496 6.556 -12.837 21.912 -19.915 29.57 -6.117 6.619 -19.883 17.1 -28.57 21.751 -7.171 3.84 -23.809 8.332 -35.822 9.673 -9.285 1.036 -9.635 1.035 -17.98 -0.03 z m 22.64 -10.443 c 12.12 -1.935 24.25 -6.455 34.484 -12.854 12.133 -7.584 25.604 -21.624 31.2 -32.521 13.429 -26.14 14.654 -52.53 3.614 -77.82 c -5.575 -12.772 -15.05 -25.01 -26.633 -34.4 -21.707 -17.599 -54.79 -23.613 -82.28 -14.956 -16.12 5.077 -30.25 14.174 -40.845 26.306 -6.978 7.988 -10.791 13.974 -14.692 23.07 -11.11 25.883 -10.2 49.663 2.912 76.43 c 7.03 14.358 22.99 29.832 38.821 37.647 19.16 9.458 34.649 12.1 53.41 9.102 z"/><path d="m 75.65 137.74 c -4.02 -0.655 -4.342 -2.172 -4.02 -19.02 l 0.309 -16.01 l 2.828 -2.949 c 4.223 -4.404 7.98 -5.32 14.796 -3.609 14.1 3.539 17.665 2.865 32.92 -6.215 5.533 -3.293 9.762 -5.153 11.763 -5.171 4.661 -0.043 10.08 4.734 12.06 10.626 1.271 3.785 2.091 4.832 3.966 5.063 1.47 0.181 8.183 -2.664 17.741 -7.519 8.457 -4.296 15.903 -7.811 16.547 -7.811 1.529 0 2.349 2.254 2.349 6.458 0 2.782 -0.955 4.389 -5.336 8.983 l -5.336 5.594 l -0.056 11.555 c -0.075 15.57 -0.752 19.07 -3.835 19.835 -3.501 0.871 -7.751 -0.874 -8.792 -3.611 -0.496 -1.303 -0.901 -5.644 -0.901 -9.647 0 -4 -0.452 -8.122 -1 -9.154 -1.323 -2.473 -5.777 -2.446 -9.887 0.06 -4.307 2.626 -9.694 2.526 -12.791 -0.239 -1.345 -1.201 -3.277 -4.351 -4.293 -7 -2.842 -7.412 -3.424 -7.471 -15.03 -1.528 -11.929 6.108 -17.763 7.101 -25.876 4.407 -9.04 -3 -10.675 -0.48 -10.675 16.443 0 8.802 -1.835 11.379 -7.449 10.465 z"/><path d="m 169.24 183.99 c -0.55 -0.127 -1.485 -0.53 -2.078 -0.897 -1.638 -1.013 -5.622 -5.267 -6.178 -6.597 -0.367 -0.879 -2.034 -11.429 -2.046 -12.949 -0.001 -0.119 -0.234 -0.449 -0.519 -0.733 -0.908 -0.908 -3.311 -0.065 -5.534 1.943 -1.642 1.484 -2.152 3.676 -1.614 6.937 0.447 2.708 1.193 4.473 3.042 7.195 1.813 2.669 2.031 3.547 1.11 4.468 -0.597 0.597 -0.923 0.672 -2.171 0.501 -1.935 -0.265 -3.45 -1.509 -4.723 -3.877 -1.201 -2.235 -1.611 -4.268 -1.993 -9.893 -0.297 -4.377 -0.613 -5.429 -2.031 -6.753 -1.058 -0.988 -1.76 -0.728 -3.112 1.15 l -1.085 1.507 l 0.098 6.626 c 0.129 8.685 -0.125 9.455 -3.11 9.455 -1.539 0 -1.904 -0.614 -1.955 -3.285 -0.063 -3.261 0.213 -9.442 -1.518 -8.209 -0.504 0.359 -3.43 7.364 -5.336 8.95 -4.378 3.645 -5.946 4.455 -8.632 4.455 -1.11 0 -2.51 -0.206 -3.112 -0.457 -0.602 -0.251 -2.352 -1.664 -3.891 -3.139 -3.036 -2.912 -4.083 -7.548 -5.315 -7.548 -0.85 0 -1.163 5.02 -1.59 6.794 -0.31 1.291 -1.574 2.44 -2.685 2.44 -1.715 0 -1.805 -0.397 -1.805 -7.943 0 -7.48 -0.094 -7.932 -1.904 -9.117 -1.157 -0.758 -4.214 -0.951 -5.639 -0.356 -2.263 0.945 -2.453 1.904 -2.162 10.889 0.098 3.03 0.022 3.705 -0.554 4.988 -0.754 1.678 -1.611 2.287 -2.801 1.988 -1.609 -0.404 -2.142 -2.662 -2.698 -11.428 -0.177 -2.799 -0.323 -5.393 -0.323 -5.765 -1.406 -1.356 -3.426 -1.075 -5.856 -0.779 -2.24 0.51 -2.24 0.509 -2.443 8.25 -0.162 6.157 -0.254 7.07 -0.816 8.03 -1.261 1.657 -3.59 1.338 -4.393 -0.023 -0.559 -0.958 -0.663 -1.797 -0.77 -6.225 -0.077 -3.184 0.018 -5.8 0.251 -6.923 0.581 -2.8 2.044 -5.399 4.092 -7.271 2.528 -2.311 3.441 -2.635 6.75 -2.399 1.489 0.106 4.34 1.878 5.947 1.992 2.255 0.159 3.151 -1.515 5 -1.951 4.253 -1 6.737 -0.146 9.8 3.377 3.505 4.03 5.737 3.913 9.596 -0.503 2.01 -2.297 3.862 -3.364 6.215 -3.578 2.525 -0.229 4.754 0.469 9.472 2.965 4.893 2.589 5.426 2.617 8.716 0.467 1.324 -0.865 3.092 -1.743 3.93 -1.951 0.979 -0.243 2.06 -0.853 3.03 -1.706 2.61 -2.306 3.298 -2.731 4.421 -2.731 1.746 0 2.934 0.696 6.467 3.79 2.04 1.836 3.638 3.662 6.176 2.596 1.995 -0.855 2.946 -0.838 3.427 0.062 0.215 0.401 0.488 2.89 0.622 5.652 0.297 6.142 0.859 8.222 2.775 10.269 1.124 1.201 2.444 1.154 4.396 -0.159 2.959 -1.989 3.898 -4.612 3.964 -11.07 0.04 -3.887 0.477 -5.361 1.825 -6.148 1.561 -0.771 2.128 0.028 2.981 1.309 0.71 1.807 0.969 5.817 0.635 9.822 -0.41 4.907 -0.991 6.103 -4.688 9.653 -2.283 1.825 -5.186 4.345 -7.662 3.84 z m -43.739 -9.335 c -1.01 -2.147 -5.835 -1.123 -7.636 -0.392 -0.455 0.549 -0.565 2.388 -0.179 3.01 4.224 6.135 9.251 -3.384 7.815 -2.619 z m -0.492 -7.267 c 0 -1.062 -0.187 -1.469 -1.015 -2.209 -3.097 -2.767 -7.16 -1.468 -9.522 3.044 -1.248 2.384 -0.985 2.772 1.709 2.531 3.163 -0.387 8.41 -0.598 8.828 -3.365 z"/></g></svg>