<svg xmlns="http://www.w3.org/2000/svg" viewBox="0 0 256 256"><path d="m 4.813 155.43 c 25.15 130.81 222.69 134.73 247.35 7.574 26.517 -102.94 -88.08 -187.11 -169.87 -153.38 -55.04 15.94 -97.37 81.17 -77.48 145.8 z" fill="#6a7284" color="#000"/><g transform="matrix(8.35494 0 0 8.67753 61.16 64.26)"><path d="M 0,10.76 V 13.6 C 0,14.93 1.07,16 2.4,16 h 11.2 c 1.33,0 2.4,-1.07 2.4,-2.4 v -2.84 z" fill="#4dbb1a"/><path d="M 2.4,0 C 1.0704,0 0,1.0704 0,2.4 V 11 H 16 V 2.4 C 16,1.0704 14.9296,0 13.6,0 z" fill="#0098ff"/><path d="m 13.485 9.739 l -0.158 -0.012 l -0.449 -0.78 c -0.247 -0.429 -0.461 -0.78 -0.476 -0.78 -0.026 0 -0.019 0.126 0.037 0.679 l 0.026 0.254 l -0.246 0.262 l -0.246 0.262 l -0.186 -0.015 c -0.103 -0.009 -0.245 -0.023 -0.316 -0.032 l -0.129 -0.017 v -1.689 v -1.689 l 0.083 -0.366 l 0.083 -0.366 h 0.314 c 0.225 0 0.318 0.012 0.325 0.043 0.007 0.023 0.036 0.353 0.066 0.731 0.041 0.506 0.065 0.689 0.095 0.691 0.021 0.001 0.108 0.002 0.193 0.002 0.083 0 0.184 -0.001 0.224 -0.002 0.061 -0.002 0.112 -0.098 0.386 -0.734 l 0.315 -0.731 h 0.36 h 0.36 l -0.063 0.179 c -0.035 0.098 -0.112 0.323 -0.172 0.501 -0.067 0.201 -0.181 0.44 -0.299 0.633 -0.105 0.17 -0.2 0.343 -0.211 0.383 -0.022 0.08 0.029 0.16 0.845 1.326 0.231 0.33 0.419 0.61 0.419 0.624 0 0.013 -0.134 0.17 -0.297 0.348 l -0.297 0.322 l -0.214 -0.005 c -0.118 -0.002 -0.284 -0.011 -0.372 -0.017 z m -3.369 -0.261 c -0.007 -0.007 -0.297 -0.033 -0.646 -0.058 -0.348 -0.023 -0.644 -0.053 -0.657 -0.062 -0.013 -0.011 -0.132 -0.153 -0.264 -0.317 l -0.241 -0.299 l 0.037 -0.586 c 0.02 -0.322 0.045 -0.936 0.055 -1.365 l 0.018 -0.779 l 0.262 -0.282 l 0.262 -0.282 h 0.79 h 0.79 l 0.156 0.151 c 0.394 0.381 0.413 0.406 0.429 0.546 0.036 0.315 0.026 0.413 -0.075 0.706 -0.116 0.337 -0.083 0.319 -0.496 0.276 l -0.206 -0.022 v -0.123 c -0.001 -0.088 -0.029 -0.157 -0.101 -0.247 l -0.1 -0.125 l -0.441 -0.034 l -0.441 -0.034 l -0.088 0.092 l -0.088 0.092 l 0.02 0.731 l 0.02 0.731 l 0.116 0.129 l 0.116 0.129 h 0.441 c 0.554 0.001 0.518 0.004 0.518 -0.04 0 -0.021 0.059 -0.143 0.129 -0.272 l 0.129 -0.234 h 0.325 h 0.325 l 0.017 0.127 c 0.053 0.393 0.044 0.435 -0.15 0.711 -0.099 0.141 -0.215 0.287 -0.258 0.325 -0.043 0.037 -0.155 0.151 -0.25 0.252 -0.156 0.167 -0.186 0.184 -0.308 0.184 -0.074 0 -0.141 -0.006 -0.148 -0.013 z m -3.706 -0.244 c -0.336 -0.043 -0.655 -0.088 -0.708 -0.099 -0.074 -0.015 -0.17 -0.107 -0.388 -0.365 -0.282 -0.336 -0.29 -0.349 -0.277 -0.483 0.007 -0.076 0.034 -0.605 0.061 -1.175 0.027 -0.571 0.053 -1.09 0.06 -1.157 0.006 -0.065 0.013 -0.207 0.014 -0.315 l 0.002 -0.196 l 0.328 0.004 l 0.328 0.004 l 0.127 0.159 l 0.127 0.159 l -0.09 0.866 c -0.049 0.477 -0.106 1.046 -0.125 1.267 -0.049 0.55 -0.071 0.529 0.566 0.535 l 0.484 0.005 l 0.133 -0.124 l 0.133 -0.124 v -0.962 c 0 -0.529 0.009 -1.148 0.02 -1.376 l 0.02 -0.413 h 0.31 h 0.31 l 0.07 0.322 c 0.052 0.243 0.065 0.374 0.051 0.535 -0.011 0.118 -0.039 0.439 -0.063 0.714 -0.025 0.276 -0.045 0.703 -0.045 0.952 0 0.249 -0.013 0.505 -0.028 0.571 -0.015 0.065 -0.035 0.158 -0.045 0.207 c -0.026 0.127 -0.559 0.576 -0.679 0.571 -0.048 -0.002 -0.363 -0.039 -0.698 -0.083 m -5.401 -0.261 c 0.009 -0.061 0.045 -0.341 0.079 -0.62 0.034 -0.281 0.082 -0.663 0.106 -0.85 0.024 -0.187 0.072 -0.577 0.106 -0.867 0.07 -0.589 0.117 -0.954 0.142 -1.101 l 0.017 -0.099 l 0.462 0.022 c 0.255 0.012 0.518 0.032 0.585 0.043 0.122 0.021 0.124 0.022 0.181 0.246 0.031 0.124 0.13 0.5 0.22 0.836 0.09 0.334 0.163 0.617 0.163 0.628 0 0.01 0.207 -0.382 0.461 -0.872 l 0.461 -0.892 h 0.279 c 0.257 -0.001 0.294 0.007 0.47 0.11 0.158 0.093 0.19 0.126 0.19 0.2 0 0.048 -0.034 0.361 -0.076 0.697 c -0.042 0.334 -0.13 1.051 -0.197 1.59 -0.066 0.54 -0.129 0.991 -0.14 1 -0.011 0.012 -0.197 0.027 -0.414 0.033 l -0.395 0.011 v -0.13 c 0 -0.071 0.02 -0.375 0.045 -0.674 c 0.025 -0.299 0.045 -0.582 0.045 -0.627 0.001 -0.061 -0.07 0.033 -0.259 0.345 -0.258 0.425 -0.261 0.43 -0.436 0.495 -0.114 0.043 -0.25 0.065 -0.385 0.062 l -0.209 -0.004 l -0.104 -0.306 c -0.057 -0.168 -0.11 -0.327 -0.119 -0.353 -0.025 -0.077 -0.037 -0.036 -0.09 0.303 -0.105 0.674 -0.087 0.628 -0.314 0.763 -0.198 0.116 -0.212 0.12 -0.549 0.12 h -0.345" fill="#eaf81d"/><path d="m 13.481 9.728 l -0.169 -0.012 l -0.445 -0.779 c -0.245 -0.428 -0.456 -0.779 -0.469 -0.779 c -0.024 0 -0.042 -0.104 -0.075 -0.45 l -0.019 -0.196 h 0.257 h 0.257 l 0.522 0.779 l 0.522 0.779 h 0.391 h 0.391 l -0.3 0.34 l -0.3 0.34 l -0.197 -0.006 c -0.108 -0.004 -0.273 -0.012 -0.366 -0.018 m -1.7 -0.133 c -0.067 -0.006 -0.192 -0.02 -0.279 -0.031 l -0.159 -0.02 v -1.703 v -1.703 l 0.083 -0.337 l 0.083 -0.337 l 0.052 0.693 c 0.073 0.983 0.164 2.234 0.188 2.602 l 0.021 0.314 h 0.335 h 0.335 l -0.24 0.271 c -0.132 0.149 -0.254 0.269 -0.271 0.265 -0.017 -0.004 -0.086 -0.011 -0.151 -0.017 z m -1.647 -0.127 c -0.007 -0.007 -0.294 -0.033 -0.638 -0.057 -0.343 -0.023 -0.636 -0.053 -0.649 -0.062 -0.013 -0.011 -0.13 -0.153 -0.261 -0.317 l -0.238 -0.297 l 0.037 -0.687 c 0.069 -1.273 0.082 -1.343 0.087 -0.432 l 0.004 0.831 l 0.279 0.313 l 0.279 0.313 h 0.863 h 0.863 l 0.217 -0.263 l 0.217 -0.263 l -0.146 0.216 c -0.08 0.119 -0.181 0.246 -0.222 0.282 -0.041 0.037 -0.154 0.149 -0.249 0.251 -0.155 0.164 -0.188 0.183 -0.304 0.183 -0.072 0 -0.136 -0.006 -0.143 -0.013 z m -3.727 -0.253 c -0.368 -0.05 -0.678 -0.101 -0.691 -0.115 -0.012 -0.013 0.343 -0.024 0.789 -0.024 h 0.812 l 0.283 -0.314 l 0.283 -0.314 l -0.02 0.136 c -0.034 0.23 -0.04 0.24 -0.331 0.488 -0.207 0.177 -0.305 0.241 -0.369 0.238 -0.048 -0.002 -0.388 -0.044 -0.756 -0.094 m -4.624 -0.241 c 0 -0.059 0.02 -0.27 0.044 -0.47 0.077 -0.619 0.166 -1.465 0.166 -1.569 0 -0.055 0.011 -0.1 0.024 -0.1 0.013 0 0.099 0.223 0.192 0.494 c 0.146 0.429 0.165 0.511 0.143 0.619 -0.025 0.124 -0.148 0.85 -0.148 0.874 c 0 0.01 -0.3 0.194 -0.399 0.246 -0.013 0.006 -0.022 -0.037 -0.022 -0.095 z m 2.655 0.024 c 0 -0.042 0.014 -0.268 0.03 -0.5 0.016 -0.234 0.05 -0.768 0.075 -1.187 0.025 -0.419 0.052 -0.833 0.059 -0.916 0.007 -0.084 0.022 -0.33 0.034 -0.548 l 0.021 -0.395 l 0.176 0.106 c 0.145 0.088 0.176 0.122 0.178 0.194 0 0.048 -0.034 0.369 -0.076 0.713 c -0.042 0.344 -0.124 1.015 -0.182 1.491 -0.141 1.16 -0.125 1.075 -0.202 1.099 -0.104 0.031 -0.112 0.027 -0.112 -0.055 m -1.379 -0.492 c 0.108 -0.226 0.878 -1.669 0.887 -1.659 c 0.006 0.007 0.002 0.163 -0.01 0.347 l -0.021 0.335 l -0.267 0.448 c -0.249 0.418 -0.277 0.451 -0.408 0.501 -0.154 0.06 -0.199 0.066 -0.181 0.028 m 7.261 -0.101 c 0 -0.033 0.058 -0.159 0.128 -0.28 l 0.128 -0.22 l 0.01 0.149 c 0.008 0.133 -0.002 0.163 -0.105 0.28 -0.126 0.144 -0.162 0.16 -0.161 0.072 z m -4.436 -0.114 l -0.097 -0.138 l 0.036 -0.989 c 0.02 -0.544 0.044 -1.151 0.054 -1.348 l 0.018 -0.358 l 0.13 0.155 l 0.13 0.155 l -0.089 0.865 c -0.165 1.613 -0.167 1.651 -0.105 1.729 0.031 0.038 0.048 0.068 0.038 0.068 -0.01 0 -0.061 -0.062 -0.115 -0.138 z m -2.997 -0.576 c -0.19 -0.57 -0.736 -2.255 -0.731 -2.26 c 0.007 -0.007 0.576 0.056 0.58 0.066 0.002 0.004 0.069 0.259 0.148 0.566 0.079 0.308 0.178 0.69 0.219 0.849 l 0.075 0.289 l -0.137 0.27 c -0.086 0.169 -0.144 0.252 -0.154 0.22 m 5.02 -1.27 c -0.006 -0.522 -0.011 -0.955 -0.008 -0.96 0.002 -0.005 0.034 0.126 0.07 0.291 0.062 0.282 0.063 0.328 0.031 0.723 -0.077 0.928 -0.079 0.927 -0.092 -0.054 z m 2.589 0.671 l -0.144 -0.012 v -0.127 c 0 -0.097 -0.024 -0.157 -0.1 -0.251 l -0.1 -0.124 l -0.435 -0.034 l -0.435 -0.034 l -0.079 0.084 l -0.079 0.084 l -0.019 -0.078 c -0.011 -0.043 -0.019 -0.141 -0.019 -0.215 0 -0.115 0.019 -0.158 0.114 -0.263 l 0.114 -0.126 h 0.483 h 0.483 l 0.112 0.128 c 0.088 0.101 0.112 0.155 0.112 0.254 v 0.126 h 0.317 c 0.174 0 0.317 0.01 0.317 0.022 0 0.012 -0.043 0.149 -0.096 0.306 l -0.096 0.284 l -0.153 -0.006 c -0.085 -0.004 -0.218 -0.012 -0.296 -0.018 z m 3.03 -0.306 c 0.006 -0.013 0.118 -0.274 0.248 -0.576 0.13 -0.303 0.241 -0.547 0.246 -0.54 0.026 0.029 -0.263 0.785 -0.365 0.95 -0.064 0.106 -0.124 0.193 -0.13 0.193 -0.006 0 -0.006 -0.011 0 -0.026 z" fill="#444"/></g></svg>