<svg xmlns="http://www.w3.org/2000/svg" viewBox="0 0 256 256"><g fill="#789" color="#000"><path d="m -1363.8 1650.47 c 92.76 -229.28 -405.65 -114.61 -172.57 42.475 46.699 31.473 147.56 19.349 172.57 -42.475 z" transform="matrix(-1.02347 0 0 -1.34592 -1380.64 2303.29)" fill="#789"/></g><g transform="matrix(0.37819 0 0 0.40841 154.4 11.811)"><path d="m -217.07 440.69 c -33.982 -8.597 -51.658 -37.04 -43.986 -70.77 6.371 -28.01 38.17 -51.4 72.09 -53.02 6.079 -0.292 11.585 -0.859 12.235 -1.26 0.721 -0.446 1.181 -30.89 1.181 -78.17 v -77.44 l 4.279 -4.669 l 4.279 -4.669 l 105.71 -0.333 c 117.65 -0.371 112.88 -0.689 116.4 7.748 2.795 6.689 2.726 214.4 -0.075 226.72 -6.439 28.311 -37.02 51.54 -70.53 53.588 -28.27 1.724 -53.51 -11.74 -64.16 -34.22 -3.81 -8.04 -4.03 -9.278 -4.03 -22.877 0 -13.676 0.201 -14.8 4.135 -23.11 2.274 -4.803 6.336 -11.648 9.03 -15.213 13.404 -17.753 40.705 -30.431 65.54 -30.431 h 8.178 v -47.37 c 0 -42.04 -0.222 -47.45 -1.977 -48.12 -1.087 -0.417 -28.537 -0.759 -61 -0.759 -44.24 0 -59.4 0.376 -60.52 1.5 -1.136 1.136 -1.506 21.544 -1.526 84.06 l -0.026 82.56 l -2.918 8.266 c -7.435 21.06 -25.74 38.19 -48.806 45.656 -12.554 4.066 -32.44 5.134 -43.496 2.337 z" fill="#b7bccc"/><path d="m -214.5 438.83 c -23.324 -5.05 -41.708 -22.12 -46.09 -42.791 -2.861 -13.485 -0.855 -27.755 5.734 -40.787 5.058 -10 20.385 -24.45 32.28 -30.427 13.215 -6.639 18.612 -8.04 34.33 -8.925 l 13.13 -0.737 l 0.625 -78.18 c 0.584 -73.01 0.776 -78.41 2.91 -81.67 4.785 -7.301 1.346 -7.1 115.13 -6.736 103.66 0.332 104.29 0.349 107.8 2.954 1.941 1.441 4.224 3.973 5.073 5.625 2.353 4.578 2.17 215.17 -0.195 225.06 -5.4 22.586 -25.26 42.17 -51.35 50.624 -12.822 4.156 -32.15 4.695 -43.75 1.221 -27.563 -8.26 -44.37 -28.91 -44.37 -54.51 0 -17.17 7.829 -33.24 22.939 -47.08 14.38 -13.168 32.762 -20.388 53.25 -20.915 l 10.687 -0.275 v -48.06 v -48.06 h -61.875 h -61.875 l -0.63 85 c -0.675 91.09 -0.364 86.61 -6.911 99.55 -3.928 7.761 -12.11 17.323 -19.813 23.16 -19.711 14.939 -44.485 20.838 -67.02 15.958 z m 30.95 -17.424 c 17.778 -4.192 33.474 -15.94 40.582 -30.375 l 4.093 -8.312 l 0.625 -91.64 c 0.543 -79.63 0.871 -91.79 2.5 -92.82 2.966 -1.874 154.12 -1.606 156 0.277 1.129 1.129 1.5 17.842 1.5 67.54 0 56.802 -0.256 66.14 -1.829 66.741 -1.01 0.386 -4.803 -0.301 -8.438 -1.527 -15.748 -5.31 -38.735 -1.604 -53.74 8.664 -30.368 20.782 -31.638 57.56 -2.524 73.08 27.867 14.853 66.945 1.867 81.21 -26.986 l 4.699 -9.506 v -105.07 v -105.07 l -99.06 -0.32 l -99.06 -0.32 v 83.66 c 0 46.01 -0.341 84.55 -0.759 85.63 -0.956 2.491 -3.392 2.471 -10.491 -0.083 -8.953 -3.221 -26.11 -2.719 -37 1.083 -23.386 8.161 -37.773 24.789 -38.989 45.06 -0.715 11.919 1.618 18.94 8.927 26.869 12.216 13.253 31.385 18.221 51.765 13.416 z" fill="#4b4b4b"/></g></svg>