<svg xmlns="http://www.w3.org/2000/svg" viewBox="0 0 256 256"><g color="#000" fill="#81e4a9"><path d="m 244.84 882.37 c 49.681 128.5 -89.55 194.42 -176.23 161.67 -60.5 -22.859 -90.65 -113.97 -47.683 -187.62 54.22 -92.93 185.6 -73.16 223.92 25.949 z" transform="matrix(1 0 0 0.99153 0 -787.44)"/></g><g fill="#2e8b57"><path d="m 236.11 34.08 c -0.211 -0.345 -1.968 -0.463 -3.904 -0.26 -3.251 0.34 -3.589 0.237 -4.422 -1.337 -0.528 -0.999 -1.77 -1.91 -3 -2.201 -1.684 -0.398 -1.835 -0.56 -0.761 -0.813 2.347 -0.554 2.65 -1.456 0.735 -2.193 -2.389 -0.919 -3.079 -0.887 -3.085 0.144 -0.007 1.267 -3.239 2.542 -6.443 2.542 -2.288 0 -3.109 -0.356 -4.273 -1.854 -0.982 -1.264 -1.327 -2.427 -1.084 -3.658 0.285 -1.44 0.065 -1.881 -1.091 -2.187 -1.778 -0.471 -2.262 -0.073 -1.316 1.081 0.57 0.695 -0.082 0.869 -3.207 0.855 -2.157 -0.01 -4.02 -0.167 -4.139 -0.348 -0.119 -0.182 -0.876 -1.284 -1.681 -2.45 -0.865 -1.252 -1.318 -2.685 -1.107 -3.501 0.484 -1.871 -1.931 -3.285 -3.124 -1.83 -0.954 1.164 -2 0.724 -2 -0.841 0 -0.601 -0.487 -1.637 -1.082 -2.303 -0.595 -0.665 -1.165 -2.215 -1.266 -3.443 -0.102 -1.228 -0.253 -2.386 -0.337 -2.572 -0.084 -0.186 -0.107 -0.599 -0.05 -0.918 0.426 -2.404 -1.955 -4.146 -3.092 -2.263 -0.295 0.488 -1.565 1.309 -2.824 1.824 -2.241 0.917 -2.331 0.888 -4.354 -1.446 -1.136 -1.31 -2.669 -2.624 -3.405 -2.92 -1.063 -0.427 -1.132 -0.612 -0.335 -0.899 2.562 -0.922 1.811 -3.548 -1.015 -3.548 -0.837 0 -1.694 -0.458 -1.906 -1.017 -0.212 -0.559 -0.84 -1.017 -1.396 -1.017 -1.665 0 -3.268 -3.137 -2.804 -5.487 0.226 -1.145 0.09 -2.69 -0.303 -3.433 -0.654 -1.236 -0.591 -1.285 0.733 -0.568 1.752 0.949 2.269 0.558 1.694 -1.277 -0.458 -1.462 -3.798 -3.473 -5.768 -3.473 -1.39 0 -3.971 -3.923 -3.971 -6.04 0 -1.763 1.93 -4.941 2.706 -4.455 0.809 0.506 1.38 -0.745 0.908 -1.99 -0.541 -1.426 -1.44 -1.371 -1.777 0.108 -0.217 0.953 -0.446 0.819 -1.161 -0.678 -0.49 -1.025 -1.137 -1.864 -1.438 -1.864 -0.301 0 -1.042 -0.765 -1.647 -1.699 -0.936 -1.445 -0.974 -2.027 -0.258 -3.898 0.463 -1.21 1.608 -2.865 2.544 -3.678 1.441 -1.251 1.569 -1.642 0.831 -2.542 -0.48 -0.585 -1.485 -1.064 -2.234 -1.064 -1.277 0 -1.292 -0.077 -0.253 -1.24 0.61 -0.682 1.109 -1.917 1.109 -2.744 0 -0.827 0.754 -2.211 1.675 -3.075 0.921 -0.864 1.675 -1.917 1.675 -2.34 0 -0.423 0.42 -0.77 0.933 -0.77 0.953 0 1.746 -1.401 1.746 -3.085 0 -0.55 -0.41 -0.781 -0.988 -0.557 -1.417 0.55 -5.711 -2.327 -5.711 -3.827 0 -0.691 0.313 -2.089 0.695 -3.106 0.48 -1.277 0.48 -2.067 0 -2.553 -1.168 -1.182 -0.783 -1.71 1.147 -1.577 1.507 0.104 1.798 -0.119 1.6 -1.228 -1.206 -6.754 -0.566 -11.186 1.615 -11.186 0.545 0 1.602 -0.992 2.349 -2.203 1.263 -2.049 1.329 -2.078 0.941 -0.413 -0.572 2.454 0.639 2.984 2 0.877 1.045 -1.615 1.045 -1.924 -0.006 -4.71 -1.29 -3.419 -0.915 -5.991 1.21 -8.295 1.494 -1.62 4.434 -2.022 5.666 -0.775 0.542 0.549 0.953 0.351 1.528 -0.736 0.954 -1.804 0.418 -2.56 -0.981 -1.384 -0.637 0.535 -1.021 0.586 -1.021 0.137 0 -0.397 0.301 -0.91 0.67 -1.14 0.368 -0.23 0.67 -1.435 0.67 -2.677 0 -3.615 1.836 -5.299 5.935 -5.445 4.326 -0.154 5.515 -1.121 3.774 -3.069 -1.231 -1.377 -1.222 -1.39 0.82 -1.233 1.136 0.088 2.501 -0.208 3.035 -0.656 0.641 -0.539 2.468 -0.699 5.382 -0.472 4.452 0.346 5.924 -0.256 4.65 -1.901 -0.348 -0.45 -0.82 -1.816 -1.048 -3.035 -0.316 -1.688 -0.099 -2.538 0.911 -3.559 0.729 -0.738 1.753 -1.342 2.275 -1.342 0.522 0 1.567 -0.839 2.323 -1.864 1.329 -1.803 1.375 -1.814 1.396 -0.339 0.015 1.066 0.424 1.525 1.361 1.525 0.737 0 1.34 -0.29 1.34 -0.645 0 -0.919 4.766 -5.51 6.363 -6.129 0.812 -0.315 2.079 -0.137 3.215 0.451 1.032 0.534 2.539 0.787 3.349 0.564 1.283 -0.354 1.322 -0.31 0.301 0.338 -0.645 0.409 -1.172 1.22 -1.172 1.801 0 0.812 0.427 0.951 1.842 0.598 1.822 -0.453 4.856 -3.347 4.856 -4.631 0 -1.136 3.35 -3.871 4.741 -3.871 1.764 0 5.984 3.936 5.523 5.151 -0.386 1.018 0.354 1.207 2.09 0.532 0.833 -0.324 0.903 -0.63 0.308 -1.356 -0.612 -0.747 -0.489 -0.938 0.604 -0.938 0.755 0 1.966 -0.763 2.69 -1.695 0.724 -0.932 1.992 -1.695 2.816 -1.695 1.446 0 6.01 4.156 6.01 5.472 0 1.275 2.807 0.62 3.158 -0.737 0.34 -1.314 0.413 -1.301 1.915 0.339 0.859 0.938 2.02 1.706 2.581 1.706 0.561 0 1.487 0.915 2.059 2.034 0.572 1.119 1.333 2.034 1.692 2.034 0.359 0 0.653 0.578 0.653 1.283 0 1.334 1.679 2.393 2.74 1.73 0.335 -0.21 0.609 -0.848 0.609 -1.419 0 -2.439 5.848 -4.892 7.03 -2.95 0.228 0.373 1.311 0.678 2.408 0.678 1.813 0 1.926 0.128 1.246 1.414 -0.411 0.778 -0.564 1.6 -0.339 1.827 0.225 0.227 2.286 0.457 4.58 0.511 4.726 0.11 7.05 1.237 7.625 3.705 0.219 0.932 1.037 2.423 1.817 3.312 l 1.419 1.617 l -1.579 -0.833 c -2.266 -1.195 -3.146 0.063 -1.277 1.825 1.31 1.235 1.925 1.351 4.53 0.854 3.511 -0.67 6.369 0.593 8 3.534 1.01 1.816 1.032 1.683 -1.153 6.085 -0.126 0.254 0.436 0.823 1.249 1.263 1.336 0.724 1.443 0.663 1.108 -0.632 -0.459 -1.778 -0.151 -1.79 2 -0.077 0.937 0.746 2.068 1.356 2.514 1.356 2.488 0 4.28 5.636 2.575 8.1 -0.935 1.351 -0.939 1.629 -0.042 2.538 0.795 0.805 1.307 0.858 2.426 0.252 1.556 -0.843 1.946 0.097 0.8 1.929 -0.363 0.58 -0.307 1.598 0.14 2.593 0.553 1.228 0.529 1.976 -0.094 2.986 -0.457 0.741 -0.646 1.939 -0.42 2.662 0.232 0.739 0.099 1.314 -0.303 1.314 -0.393 0 -0.715 0.704 -0.715 1.565 0 1.422 0.3 1.565 3.293 1.565 3.794 0 5.415 1.054 5.415 3.52 0 0.956 0.678 2.482 1.507 3.391 l 1.507 1.653 l -1.51 -0.47 c -2.364 -0.735 -2.705 1.361 -0.586 3.599 0.969 1.024 1.762 2.095 1.762 2.381 0 0.286 0.452 0.977 1 1.537 1.42 1.438 1.246 4.556 -0.335 6 -0.737 0.675 -1.34 1.698 -1.34 2.275 0 0.815 -0.179 0.867 -0.804 0.234 -1.313 -1.329 -1.876 -0.942 -1.876 1.292 0 1.485 0.538 2.534 1.826 3.559 1 0.799 1.972 1.355 2.151 1.234 0.547 -0.369 1.285 2.125 1.335 4.509 0.06 2.89 -3.238 6.546 -5.307 5.882 -1.119 -0.359 -1.345 -0.126 -1.345 1.392 0 1.475 0.177 1.675 0.926 1.046 0.746 -0.626 1.01 -0.378 1.34 1.273 0.227 1.128 0.601 2.987 0.831 4.13 0.339 1.686 0.061 2.455 -1.465 4.068 -1.035 1.094 -2.562 1.989 -3.392 1.989 -2.766 0 -2.787 3.059 -0.025 3.588 1.299 0.249 1.228 0.373 -0.677 1.186 -1.17 0.5 -2.445 1.613 -2.832 2.474 -0.459 1.02 -1.281 1.565 -2.36 1.565 -0.911 0 -1.897 0.428 -2.191 0.952 -0.295 0.523 -1.286 1.057 -2.203 1.186 -1.795 0.253 -2.813 2.608 -1.127 2.608 0.543 0 1.621 1.086 2.395 2.414 1.472 2.525 1.258 3.875 -0.904 5.69 -0.573 0.481 -1.041 1.647 -1.041 2.592 0 1.62 -0.069 1.654 -1.225 0.595 -1.882 -1.724 -2.794 -1.357 -2.794 1.123 0 2.471 -2.01 7.193 -3.641 8.565 -0.573 0.481 -1.632 0.718 -2.353 0.527 -0.722 -0.191 -1.854 0.068 -2.515 0.576 -1.742 1.337 -2.063 1.185 -1.688 -0.802 0.305 -1.614 0.212 -1.702 -1.06 -1.013 -1.886 1.022 -2.07 1.423 -2.381 5.203 -0.206 2.507 -0.689 3.639 -2.06 4.833 -2.5 2.176 -7.745 2.035 -7.745 -0.208 0 -1.17 -0.655 -1.17 -2.177 -0.001 -1.524 1.171 -1.485 1.768 0.116 1.768 1.155 0 1.103 0.202 -0.502 1.958 -0.985 1.077 -2.179 2.45 -2.654 3.051 -1.276 1.614 -5.417 1.407 -7.279 -0.363 -1.298 -1.235 -1.693 -1.319 -2.602 -0.556 -0.589 0.495 -0.928 1.455 -0.752 2.133 0.339 1.312 -1.169 1.753 -1.9 0.556 -0.228 -0.373 -1.565 -0.678 -2.972 -0.678 -1.448 0 -2.917 -0.438 -3.386 -1.01 -0.455 -0.555 -1.084 -0.849 -1.397 -0.653 -0.313 0.196 -1.202 -0.284 -1.976 -1.067 -1.722 -1.743 -3.06 -1.395 -2.814 0.732 0.252 2.184 -1.676 6.05 -3.061 6.137 -0.627 0.039 -1.93 0.021 -2.895 -0.042 -1.052 -0.068 -1.915 0.31 -2.156 0.945 -0.445 1.174 -5.438 1.526 -6.107 0.431 z m 4.87 -1.577 c 0.322 -1.721 -1.708 -2.235 -3.251 -0.823 -1.901 1.741 -1.621 2.466 0.857 2.223 1.432 -0.14 2.247 -0.617 2.394 -1.401 z m -7.484 -1.532 c 0.214 -0.564 0.017 -1.479 -0.438 -2.034 -0.977 -1.191 0.052 -1.37 1.199 -0.208 0.607 0.615 1.163 0.598 2.399 -0.071 0.885 -0.479 2.188 -0.685 2.896 -0.458 1.511 0.485 6.583 -1.818 7.12 -3.234 0.204 -0.537 1.297 -1.183 2.431 -1.435 1.133 -0.252 2.357 -1.018 2.719 -1.703 0.911 -1.723 0.089 -5.424 -1.205 -5.424 -0.817 0 -0.727 -0.334 0.419 -1.569 0.801 -0.863 1.456 -2.118 1.456 -2.79 0 -1.142 0.107 -1.15 1.651 -0.126 0.908 0.602 2.114 1.095 2.679 1.095 1.27 0 1.358 -1.27 0.122 -1.751 -1.512 -0.587 2.584 -4.418 5.415 -5.064 1.866 -0.426 2.77 -0.322 3.57 0.41 1.715 1.571 2.847 1.229 2.365 -0.714 -0.348 -1.402 -0.179 -1.695 0.976 -1.695 0.768 0 1.952 -0.301 2.632 -0.669 1.795 -0.972 6.05 0.935 6.05 2.712 0 0.741 0.265 1.347 0.588 1.347 1.039 0 2.127 -1.829 1.723 -2.896 -0.216 -0.569 -0.07 -1.236 0.323 -1.482 0.394 -0.246 0.725 -1.116 0.737 -1.933 0.012 -0.817 0.443 -2.049 0.959 -2.738 0.516 -0.689 0.775 -1.68 0.577 -2.203 -0.409 -1.079 0.824 -1.31 1.457 -0.273 0.574 0.94 2.344 0.853 2.344 -0.116 0 -0.437 -0.442 -1.288 -0.982 -1.892 -0.867 -0.97 -0.829 -1.353 0.325 -3.274 0.719 -1.196 1.847 -2.175 2.508 -2.175 0.66 0 1.9 -0.496 2.756 -1.103 1.251 -0.887 1.476 -1.505 1.149 -3.161 -0.282 -1.425 -0.064 -2.442 0.707 -3.304 1.412 -1.579 2.211 -1.596 1.809 -0.039 -0.418 1.616 0.86 4.886 1.928 4.933 0.47 0.021 1.538 0.915 2.375 1.988 1.326 1.701 1.441 2.31 0.898 4.757 -0.654 2.944 -2.385 5.421 -3.79 5.421 -1.446 0 -1.601 -1.861 -0.258 -3.092 1.558 -1.427 1.69 -3.576 0.254 -4.134 -1.795 -0.697 -6.309 1.821 -6.769 3.777 -0.227 0.965 -0.748 2.183 -1.158 2.706 -0.955 1.22 -1.076 4.538 -0.268 7.354 0.652 2.271 2.823 3.436 4.901 2.629 0.564 -0.219 2.243 0.094 3.729 0.696 1.916 0.776 2.911 0.884 3.418 0.371 1.079 -1.092 0.11 -2.839 -1.619 -2.921 -1.427 -0.067 -1.406 -0.121 0.314 -0.809 1.049 -0.42 1.842 -1.257 1.842 -1.946 0 -0.665 0.748 -1.705 1.661 -2.311 0.914 -0.606 1.672 -1.757 1.684 -2.558 0.057 -3.595 0.527 -8.352 0.947 -9.592 0.665 -1.959 -1.017 -3.898 -3.461 -3.99 -1.698 -0.064 -2.135 -0.415 -2.441 -1.959 -0.221 -1.113 -0.994 -2.121 -1.894 -2.469 -1.471 -0.569 -1.455 -0.603 0.489 -1.057 3.454 -0.806 3.684 -0.955 3.684 -2.392 0 -1.212 -0.189 -1.299 -1.403 -0.641 -1.248 0.676 -1.355 0.606 -0.968 -0.628 0.239 -0.764 0.115 -1.994 -0.276 -2.734 -0.541 -1.024 -0.43 -1.917 0.465 -3.738 0.647 -1.316 1.496 -2.4 1.886 -2.409 0.39 -0.01 1.294 -0.469 2.01 -1.021 1.078 -0.832 1.139 -1.111 0.356 -1.632 -0.519 -0.345 -1.423 -0.479 -2.01 -0.297 -0.912 0.284 -0.903 0.196 0.062 -0.613 0.62 -0.52 1.332 -1.768 1.582 -2.775 0.25 -1.01 1.317 -2.452 2.371 -3.212 1.568 -1.13 2.178 -1.241 3.347 -0.608 2.164 1.172 3.107 -0.219 1.352 -1.995 -0.774 -0.783 -1.407 -1.576 -1.407 -1.763 0 -0.186 -0.603 -0.949 -1.34 -1.695 -0.737 -0.746 -1.34 -1.976 -1.34 -2.733 0 -0.757 -0.452 -1.553 -1 -1.767 -1.013 -0.394 -1.435 -1.67 -0.502 -1.521 1.382 0.221 2.177 -0.18 2.177 -1.097 0 -0.635 -0.634 -1.017 -1.685 -1.017 -1.261 0 -1.962 -0.587 -2.784 -2.331 -1.019 -2.163 -1.018 -2.454 0.011 -4.04 0.61 -0.942 1.109 -2.172 1.109 -2.733 0 -0.665 0.381 -0.872 1.096 -0.594 0.724 0.281 0.997 0.126 0.805 -0.458 -0.16 -0.486 -1.128 -0.974 -2.151 -1.084 -1.023 -0.11 -2.256 -0.533 -2.741 -0.94 -1.037 -0.871 -1.773 -4.088 -0.936 -4.088 0.317 0 0.577 0.244 0.577 0.542 0 1.034 4.76 2.37 5.559 1.56 0.406 -0.41 1.707 -0.746 2.891 -0.746 2.796 0 6.495 4.365 6.164 7.275 -0.303 2.664 -2.065 2.372 -2.981 -0.495 -0.503 -1.574 -1.173 -2.373 -1.99 -2.373 -2.452 0 -3.97 6.093 -1.941 7.797 0.553 0.464 1 1.362 1 1.995 0 1.354 2.894 4.097 5.571 5.28 1.572 0.695 2.159 0.653 3.517 -0.247 0.897 -0.595 1.63 -1.495 1.63 -2 0 -0.505 1.203 -1.614 2.674 -2.464 2.468 -1.427 3.335 -3.034 2.236 -4.147 -0.247 -0.25 -1.144 0.006 -1.994 0.57 -1.513 1 -1.537 0.982 -1.142 -1.015 0.257 -1.3 0.13 -2.039 -0.351 -2.039 -0.414 0 -0.754 -0.942 -0.754 -2.092 0 -2.179 -3.483 -6.721 -5.154 -6.721 -0.462 0 -1.303 -0.906 -1.869 -2.01 -1.525 -2.986 -3.327 -3.743 -5.354 -2.251 -0.906 0.667 -1.657 1.595 -1.669 2.061 -0.029 1.15 -1.016 1.068 -2.031 -0.169 -0.459 -0.559 -1.4 -1.017 -2.092 -1.017 -1.356 0 -1.676 -1.339 -0.585 -2.443 0.45 -0.455 0.343 -1.117 -0.324 -2 -0.98 -1.297 -1 -1.295 -1.404 0.143 l -0.408 1.462 l -2.447 -1.681 c -2.536 -1.742 -5.14 -6.03 -4.068 -6.705 0.935 -0.585 0.725 -3.01 -0.26 -3.01 -0.479 0 -1.233 0.366 -1.675 0.814 -0.625 0.633 -0.804 0.501 -0.804 -0.595 0 -0.775 -0.453 -1.789 -1.01 -2.254 -0.649 -0.546 -0.968 -1.882 -0.898 -3.765 0.092 -2.476 0.354 -2.982 1.724 -3.33 3.03 -0.77 1.234 -2.055 -2.894 -2.071 -2.177 -0.009 -4.491 -0.272 -5.141 -0.585 -0.65 -0.313 -1.775 -0.412 -2.5 -0.22 -1.141 0.302 -1.221 0.165 -0.598 -1.013 1.12 -2.119 -0.483 -3.352 -1.968 -1.514 -1.554 1.923 -5.064 1.031 -6.426 -1.634 -1.552 -3.037 -2.628 -3.666 -4.667 -2.726 -1.376 0.635 -2.143 0.618 -3.592 -0.076 l -1.842 -0.883 l 2.093 -0.579 c 3.773 -1.043 4.9 -4.665 1.445 -4.642 -1.851 0.013 -2.742 0.576 -3.738 2.362 -0.711 1.276 -0.805 1.226 -1.597 -0.847 -0.63 -1.65 -1.251 -2.203 -2.473 -2.203 -1.589 0 -1.6 0.035 -0.419 1.356 1.181 1.321 1.17 1.356 -0.432 1.356 -0.904 0 -1.97 0.329 -2.367 0.732 -1.219 1.233 -6.538 0.07 -7.281 -1.592 -0.997 -2.23 -2.573 -2.409 -2.165 -0.245 0.333 1.763 -0.35 2.418 -1.152 1.105 -0.228 -0.373 -1.341 -0.678 -2.475 -0.678 -2.759 0 -5.399 -2.804 -4.824 -5.123 0.335 -1.351 0.159 -1.656 -0.956 -1.656 -0.779 0 -1.55 0.583 -1.792 1.356 -0.234 0.746 -0.686 1.356 -1 1.356 -0.319 0 -0.777 0.629 -1.018 1.397 -0.241 0.768 -1.16 1.73 -2.042 2.137 -0.882 0.407 -1.803 1.375 -2.046 2.151 -0.439 1.399 -0.447 1.398 -0.996 -0.103 -0.815 -2.23 -2.606 -1.945 -2.606 0.415 0 2.971 -2.036 4.421 -5.5 3.916 -3.37 -0.491 -4.18 -0.072 -4.798 2.483 -0.654 2.702 -2.94 3.569 -6.81 2.583 -2.371 -0.604 -3.346 -0.606 -4.059 -0.007 -1.38 1.159 -1.141 2.134 0.402 1.639 0.769 -0.247 1.34 -0.122 1.34 0.293 0 0.398 -0.301 0.724 -0.67 0.724 -0.368 0 -0.67 0.879 -0.67 1.953 0 2.611 -3.616 5.524 -6.23 5.02 -2.123 -0.411 -2.57 1.325 -0.635 2.466 0.87 0.513 0.922 0.696 0.204 0.712 -0.532 0.011 -1.784 0.812 -2.781 1.778 -2.275 2.206 -5.918 2.627 -7.182 0.831 -1.121 -1.593 -2.384 -0.867 -1.824 1.047 0.69 2.358 1.046 4.645 1.241 7.959 0.155 2.638 0.01 3.074 -0.942 2.822 -1.832 -0.485 -2.118 1.031 -0.409 2.164 2.086 1.383 1.683 4.611 -0.959 7.679 -2.195 2.55 -2.303 3.046 -0.913 4.214 0.938 0.788 1.461 4.746 0.627 4.746 -0.208 0 -1.106 -0.875 -1.995 -1.945 -1.063 -1.279 -2.51 -2.089 -4.224 -2.367 -3.038 -0.492 -3.701 -1.164 -4.773 -4.841 -0.906 -3.108 -0.057 -6.441 1.64 -6.441 0.765 0 1.021 0.771 1.021 3.072 0 4.082 1.502 4.746 4.094 1.809 1.627 -1.843 1.856 -2.616 1.727 -5.83 -0.082 -2.038 -0.37 -3.929 -0.64 -4.203 -0.271 -0.274 -0.492 -1 -0.492 -1.623 0 -1.5 -2.68 -3.897 -4.354 -3.895 -0.737 0.001 -1.793 0.399 -2.348 0.883 -0.554 0.485 -2.603 1.096 -4.553 1.357 -2.765 0.371 -3.497 0.717 -3.328 1.571 0.138 0.695 0.884 1.085 2.041 1.068 2.05 -0.03 2.296 0.481 0.825 1.716 -0.615 0.516 -0.85 1.436 -0.613 2.393 0.212 0.855 0.072 2.146 -0.31 2.87 -0.813 1.537 0.331 6.275 1.726 7.15 0.476 0.298 0.865 1.71 0.865 3.137 0 1.427 0.386 2.919 0.857 3.315 1.013 0.851 5.061 0.853 5.581 0.003 0.199 -0.325 1.276 0.399 2.393 1.61 2.029 2.198 2.03 2.203 0.62 3.151 -1.984 1.334 -1.915 3.646 0.095 3.148 3.224 -0.798 5.687 7.314 2.856 9.409 -1.436 1.062 -0.859 2.473 0.829 2.026 0.997 -0.264 1.169 0.175 1.154 2.956 -0.02 3.759 -1.956 7.129 -3.777 6.578 -0.614 -0.186 -1.318 -0.008 -1.565 0.397 -0.628 1.029 0.903 2.707 2.06 2.258 0.526 -0.204 0.956 -0.033 0.956 0.379 0 0.413 0.466 0.75 1.035 0.75 0.569 0 1.789 0.763 2.71 1.695 0.921 0.932 2.16 1.695 2.753 1.695 0.958 0 0.947 0.146 -0.096 1.313 -1.603 1.793 -0.828 2.896 1.426 2.029 2.365 -0.91 4.899 1.388 4.899 4.443 0 2.764 1.206 4.282 3.608 4.545 1.069 0.117 2.361 0.868 2.89 1.678 0.933 1.43 0.893 1.458 -1.599 1.129 -2.164 -0.286 -2.906 -0.018 -4.853 1.754 -2.634 2.398 -3.322 2.507 -6.276 0.993 -3.02 -1.548 -4.488 -2.983 -4.488 -4.39 0 -2.01 1.242 -2.146 2.921 -0.312 1.983 2.165 3.632 2.219 4.149 0.134 0.47 -1.894 -1.285 -6.537 -2.471 -6.537 -0.456 0 -1.498 -0.637 -2.316 -1.414 -1.038 -0.987 -2.722 -1.528 -5.569 -1.789 -2.245 -0.206 -4.082 -0.588 -4.082 -0.85 0 -0.261 -0.776 -0.833 -1.725 -1.271 -1.51 -0.697 -1.697 -0.649 -1.501 0.383 0.123 0.648 0.926 1.533 1.785 1.966 1.04 0.525 1.299 0.951 0.777 1.277 -0.461 0.288 -0.611 1.184 -0.365 2.178 0.303 1.223 -0.066 2.331 -1.345 4.03 -0.97 1.287 -1.595 2.782 -1.39 3.323 0.549 1.447 2.495 1.197 2.9 -0.372 0.193 -0.746 0.652 -1.356 1.02 -1.356 0.368 0 0.508 0.628 0.309 1.395 -0.26 1.01 0.071 1.594 1.188 2.109 0.851 0.393 1.876 1.443 2.277 2.334 0.408 0.907 1.308 1.62 2.044 1.62 0.723 0 1.501 0.305 1.728 0.678 0.228 0.373 1.26 0.678 2.294 0.678 1.034 0 2.646 0.61 3.583 1.356 0.937 0.746 2.163 1.356 2.724 1.356 1.255 0 4.03 -3.805 3.607 -4.939 -0.213 -0.567 0.603 -0.829 2.617 -0.841 2.829 -0.017 3.234 0.3 2.955 2.319 -0.141 1.022 1.124 2.079 2.508 2.096 0.674 0.009 0.693 -0.307 0.089 -1.448 -0.666 -1.259 -0.616 -1.398 0.366 -1.017 0.626 0.243 1.971 0.442 2.99 0.442 1.019 0 2.547 0.61 3.397 1.356 0.85 0.746 1.806 1.356 2.125 1.356 0.319 0 0.399 0.729 0.178 1.621 -0.485 1.956 0.982 3.192 1.948 1.642 0.567 -0.91 0.951 -0.835 3.02 0.583 2.984 2.05 4.434 5.716 2.881 7.287 -1.548 1.567 0.035 3.091 1.726 1.66 1.63 -1.38 4.645 -2.624 6.358 -2.624 0.783 0 1.98 -0.51 2.66 -1.133 1.171 -1.073 1.228 -1.049 1.058 0.434 -0.251 2.182 1.315 2.518 2.233 0.479 1.079 -2.396 4.03 -2.682 6.953 -0.673 1.482 1.019 2.171 1.948 1.925 2.596 -0.247 0.652 0.024 1.01 0.766 1.01 0.703 0 1.01 -0.364 0.792 -0.939 -0.527 -1.389 2.998 -4.485 5.106 -4.485 0.993 0 1.805 0.305 1.805 0.678 0 0.373 -0.417 0.678 -0.928 0.678 -1.52 0 -2.997 2.994 -3.219 6.524 -0.199 3.161 -0.342 3.378 -3.26 4.938 -2.194 1.173 -3.571 1.5 -4.901 1.162 -2.852 -0.725 -2.057 -2.712 1.254 -3.133 3.523 -0.448 3.902 -2.184 0.883 -4.047 -2.393 -1.477 -4.904 -1.792 -5.572 -0.699 -0.228 0.373 -1.267 0.678 -2.309 0.678 -1.339 0 -2.769 0.871 -4.87 2.968 -1.636 1.633 -3.66 3.188 -4.496 3.457 -1.127 0.362 -1.326 0.686 -0.767 1.252 0.559 0.566 1.097 0.547 2.077 -0.073 0.799 -0.505 1.323 -0.564 1.323 -0.148 0 0.379 0.739 1.338 1.642 2.133 0.903 0.795 1.843 2.394 2.088 3.555 0.246 1.161 0.58 2.339 0.742 2.619 0.516 0.887 2.253 0.549 2.657 -0.517 z m 10.529 -49.48 c -0.212 -0.559 -1.047 -1.017 -1.855 -1.017 -2.07 0 -3.077 -1.265 -3.077 -3.864 0 -2.416 -0.687 -2.833 -2.01 -1.22 -0.459 0.559 -1.313 1.017 -1.899 1.017 -0.586 0 -1.718 0.829 -2.516 1.841 -1.356 1.722 -1.576 1.782 -3.374 0.928 -1.058 -0.503 -2.616 -1 -3.463 -1.107 -2.149 -0.27 -3.485 -1.557 -3.485 -3.357 0 -0.841 -0.452 -1.909 -1 -2.373 -1.387 -1.165 -1.257 -2.949 0.319 -4.392 1.632 -1.495 1.078 -2.634 -1.021 -2.101 -0.858 0.218 -1.754 0.08 -1.99 -0.307 -0.236 -0.387 -1.526 -0.617 -2.865 -0.511 -2.227 0.176 -2.539 -0.026 -3.636 -2.35 -0.66 -1.398 -1.464 -2.542 -1.786 -2.542 -1.051 0 -1.294 -2.618 -0.358 -3.867 0.502 -0.67 0.922 -1.996 0.934 -2.947 0.026 -2.152 1.163 -3.356 3.17 -3.356 1.895 0 1.959 -0.762 0.201 -2.373 -0.737 -0.675 -1.34 -1.588 -1.34 -2.03 0 -0.442 -0.769 -1.157 -1.708 -1.591 -1.645 -0.759 -1.691 -0.943 -1.252 -5.02 0.5 -4.65 1.152 -5.931 3.02 -5.931 0.679 0 1.557 -0.61 1.951 -1.356 0.864 -1.635 2.486 -1.743 4.092 -0.273 1.872 1.714 2.425 0.654 2.204 -4.224 -0.202 -4.461 -0.162 -4.584 2.338 -7.114 2.448 -2.478 2.686 -2.564 6.345 -2.294 4.426 0.326 5.116 0.647 5.116 2.378 0 0.702 0.31 1.47 0.688 1.706 0.807 0.505 4.04 -2.807 5.15 -5.283 0.676 -1.502 1.26 -1.746 4.665 -1.952 3.767 -0.227 3.983 -0.146 6.742 2.53 2.911 2.823 3.427 4.177 2.105 5.515 -1.029 1.041 -0.039 2.429 1.316 1.845 0.607 -0.262 1.914 -0.432 2.902 -0.378 0.989 0.054 1.986 -0.211 2.217 -0.588 0.678 -1.111 3.541 -0.784 4.488 0.513 0.481 0.659 1.655 1.701 2.609 2.316 1.548 0.999 1.738 1.564 1.772 5.289 0.035 3.761 -0.119 4.243 -1.566 4.911 -1.935 0.893 -2.123 2.556 -0.289 2.556 0.724 0 1.654 0.639 2.067 1.42 0.497 0.94 1.188 1.304 2.045 1.077 1.645 -0.435 3.28 1.194 3.28 3.27 0 0.881 0.29 2.375 0.645 3.319 0.529 1.41 0.35 2.072 -1 3.701 -0.907 1.091 -1.65 2.284 -1.65 2.651 0 1.541 -2 2.409 -3.727 1.614 -1.379 -0.636 -1.749 -0.585 -2.079 0.285 -0.221 0.582 -0.06 1.404 0.358 1.826 0.417 0.422 0.759 1.432 0.759 2.244 0 0.812 0.452 1.856 1 2.32 1.346 1.13 1.285 1.642 -0.689 5.867 -1.688 3.612 -2.035 3.878 -4.773 3.66 -0.794 -0.063 -1.64 0.208 -1.882 0.603 -0.748 1.224 -3.615 0.807 -4.378 -0.638 -0.955 -1.807 -2.957 -1.827 -2.492 -0.025 0.189 0.732 -0.077 1.685 -0.592 2.117 -0.515 0.432 -0.936 1.805 -0.936 3.05 0 2.063 -0.235 2.328 -2.651 2.986 -1.458 0.397 -2.832 1.019 -3.054 1.382 -0.632 1.036 -3.673 0.771 -4.1 -0.357 z m -12.969 -5.085 c 0 -0.373 -0.301 -0.678 -0.67 -0.678 -0.368 0 -0.67 0.305 -0.67 0.678 0 0.373 0.301 0.678 0.67 0.678 0.368 0 0.67 -0.305 0.67 -0.678 z m -5.02 -1.356 c 0.228 -0.373 0.095 -0.678 -0.295 -0.678 -0.39 0 -0.709 0.305 -0.709 0.678 0 0.373 0.133 0.678 0.295 0.678 0.162 0 0.482 -0.305 0.709 -0.678 z m 23.21 -0.974 c 0.929 -2.064 0.454 -3.372 -1.758 -4.839 -1.63 -1.081 -1.803 -1.077 -3.05 0.066 -1.474 1.35 -1.752 4.363 -0.519 5.611 1.447 1.465 4.507 0.983 5.327 -0.838 z m -16.474 -2.722 c 1.413 -2.183 1.033 -3.82 -1.181 -5.078 -1.69 -0.96 -1.909 -0.921 -3.547 0.637 -1.331 1.266 -1.645 2.065 -1.323 3.366 0.786 3.17 4.291 3.793 6.05 1.075 z m 32.782 -1.728 c 0.228 -0.373 0.095 -0.678 -0.295 -0.678 -0.39 0 -0.709 0.305 -0.709 0.678 0 0.373 0.133 0.678 0.295 0.678 0.162 0 0.482 -0.305 0.709 -0.678 z m -25.669 -1.678 c -0.118 -0.659 0.528 -2 1.437 -2.98 0.909 -0.98 1.858 -2.774 2.111 -3.986 0.252 -1.212 0.757 -2.203 1.121 -2.203 0.364 0 0.475 0.594 0.248 1.321 -0.312 0.996 0.069 1.573 1.548 2.348 1.079 0.565 2.14 1.496 2.358 2.069 0.217 0.573 0.99 1.042 1.716 1.042 0.727 0 1.524 0.332 1.771 0.737 0.307 0.502 0.668 0.516 1.135 0.044 0.467 -0.473 0.325 -1.058 -0.446 -1.838 -0.798 -0.808 -1 -1.726 -0.702 -3.122 0.286 -1.32 0.057 -2.552 -0.688 -3.704 -1.202 -1.856 -0.979 -2.773 0.452 -1.859 1.178 0.752 7.205 0.865 7.646 0.144 0.192 -0.314 0.934 -0.571 1.649 -0.571 0.715 0 1.3 -0.305 1.3 -0.678 0 -0.373 -0.547 -0.678 -1.216 -0.678 -0.669 0 -2.179 -1.1 -3.355 -2.445 -1.726 -1.974 -2.46 -2.363 -3.807 -2.02 -1.448 0.368 -1.669 0.198 -1.669 -1.284 0 -1.868 0.625 -2.16 1.888 -0.881 0.642 0.65 1.177 0.433 2.506 -1.017 0.929 -1.014 1.903 -1.845 2.164 -1.848 0.7 -0.006 2.928 -4.18 2.475 -4.638 -0.212 -0.215 -1.017 0.008 -1.788 0.495 -1.155 0.73 -1.692 0.729 -3.044 -0.003 -1.402 -0.759 -1.935 -0.719 -3.646 0.275 -2.426 1.409 -3.235 1.466 -3.235 0.226 0 -0.516 0.615 -1.101 1.366 -1.3 1.093 -0.289 1.279 -0.714 0.93 -2.122 -0.242 -0.977 -0.104 -2.166 0.311 -2.671 0.973 -1.186 0.19 -5.173 -1.016 -5.173 -0.507 0 -0.921 0.407 -0.921 0.903 0 0.497 -1.13 1.642 -2.512 2.545 -1.436 0.939 -2.604 2.294 -2.726 3.164 -0.118 0.837 -0.638 1.522 -1.155 1.522 -0.674 0 -0.835 -0.54 -0.566 -1.902 0.253 -1.279 0.028 -2.195 -0.687 -2.795 -0.584 -0.491 -1.063 -1.237 -1.063 -1.659 0 -0.789 -3.564 -4.491 -4.324 -4.491 -0.234 0 -0.234 1.033 0 2.295 0.256 1.383 0.135 2.477 -0.305 2.752 -0.916 0.573 -0.969 5.122 -0.06 5.122 0.368 0 0.67 0.458 0.67 1.017 0 1.509 -1.798 1.233 -2.204 -0.339 -0.227 -0.88 -0.914 -1.356 -1.954 -1.356 -0.882 0 -1.89 -0.28 -2.24 -0.622 -0.554 -0.541 -4.02 -1.01 -5.988 -0.802 -0.365 0.038 0.163 0.844 1.172 1.791 1.01 0.947 1.845 2.244 1.857 2.881 0.028 1.539 1.412 3.314 2.825 3.622 0.867 0.189 0.97 0.491 0.435 1.266 -0.529 0.765 -0.787 0.807 -1.043 0.169 -0.462 -1.151 -1.893 -1.068 -2.907 0.169 -0.459 0.559 -1.456 1.017 -2.216 1.017 -1.38 0 -4.483 2.437 -4.483 3.521 0 0.315 0.77 0.377 1.712 0.138 1.256 -0.319 2.14 -0.027 3.323 1.097 1.274 1.212 2.107 1.45 3.982 1.142 1.793 -0.295 2.371 -0.152 2.371 0.585 0 0.587 -0.665 0.974 -1.675 0.974 -1.265 0 -1.675 0.355 -1.675 1.451 0 0.798 -0.419 1.789 -0.93 2.203 -1.1 0.89 -2.101 5.837 -1.181 5.837 0.346 0 0.802 -0.458 1.014 -1.017 0.232 -0.611 1.263 -1.026 2.584 -1.039 2.316 -0.023 4.542 -1.295 4.542 -2.596 0 -0.99 1.121 -1 1.721 -0.019 0.253 0.415 0.062 1 -0.425 1.307 -0.709 0.443 -0.724 0.911 -0.077 2.348 0.444 0.987 0.649 2.055 0.454 2.373 -0.507 0.83 1.88 5.428 2.681 5.163 0.368 -0.122 0.573 -0.761 0.454 -1.42 z m 1.667 -18.435 c -0.246 -0.249 -0.447 -1.011 -0.447 -1.695 0 -1.525 1.712 -1.649 2.275 -0.165 0.651 1.717 -0.656 3.047 -1.828 1.86 z m -2.791 -3.616 c -0.228 -0.373 0.074 -0.678 0.67 -0.678 0.596 0 0.898 0.305 0.67 0.678 -0.228 0.373 -0.529 0.678 -0.67 0.678 -0.141 0 -0.442 -0.305 -0.67 -0.678 z m 24.315 20.881 c 1.383 -1.4 0.957 -4.477 -0.78 -5.629 -2.393 -1.587 -5.114 -0.353 -5.114 2.32 0 3.13 3.905 5.323 5.895 3.309 z m -40.748 -8.842 c 0.777 -1.408 0.847 -2.147 0.288 -3.051 -1.017 -1.645 -4.118 -1.896 -5.685 -0.46 -1.582 1.449 -1.626 2.842 -0.143 4.501 1.593 1.782 4.274 1.303 5.54 -0.99 z m 46.35 -7.06 c 1.776 -1.627 1.54 -4.061 -0.527 -5.432 -1.572 -1.042 -1.933 -1.059 -3.517 -0.159 -2.414 1.371 -2.464 4.62 -0.09 5.836 2.192 1.123 2.672 1.094 4.134 -0.245 z m -46.47 -8.505 c 1.932 -1.955 -0.182 -5.966 -3.144 -5.966 -1.397 0 -3.42 2.039 -3.42 3.446 0 2.753 4.592 4.516 6.564 2.52 z m 40.21 -7.05 c 2.215 -1.57 1.799 -5.093 -0.706 -5.978 -1.441 -0.51 -2.106 -0.384 -3.182 0.601 -1.891 1.732 -1.809 4.964 0.147 5.76 2.053 0.835 2.02 0.839 3.74 -0.383 z m -30.03 -5.698 c 0.737 -0.746 1.34 -1.814 1.34 -2.373 0 -1.591 -2.505 -3.729 -4.371 -3.729 -1.21 0 -1.882 0.507 -2.362 1.784 -0.858 2.283 -0.329 3.932 1.556 4.852 2.093 1.023 2.33 0.99 3.837 -0.535 z m 17.05 -4.506 c 0.833 -3.359 -2.252 -5.764 -4.945 -3.855 -3.197 2.267 -0.514 7.811 2.997 6.192 0.85 -0.392 1.726 -1.443 1.948 -2.336 z m -1.639 105.09 c 0 -0.758 -2.3 -2.234 -3.517 -2.257 -0.645 -0.012 -1.172 0.268 -1.172 0.623 0 0.354 0.528 0.955 1.172 1.335 1.316 0.776 3.517 0.962 3.517 0.299 z m -29.23 -2.417 c 0.567 -0.911 0.38 -1.521 -0.882 -2.881 -1.103 -1.189 -1.305 -1.727 -0.647 -1.73 0.525 -0.002 1.49 -0.958 2.146 -2.123 1.073 -1.908 1.092 -2.273 0.185 -3.673 -0.553 -0.855 -1.617 -1.751 -2.364 -1.99 -0.774 -0.249 -1.358 -1.026 -1.358 -1.808 0 -1.715 -6.37 -8.03 -8.101 -8.03 -0.702 0 -1.277 -0.305 -1.277 -0.678 0 -0.373 0.42 -0.678 0.933 -0.678 1.164 0 1.929 -1.84 1 -2.418 -0.376 -0.235 -1.269 0.11 -1.985 0.766 -0.716 0.656 -2.28 1.235 -3.474 1.286 -1.195 0.051 -2.819 0.453 -3.609 0.893 -1.729 0.963 -3.03 4.308 -2.189 5.646 0.325 0.52 0.596 1.447 0.601 2.06 0.012 1.28 3.531 5.326 4.633 5.326 1.165 0 0.859 0.952 -0.604 1.877 -0.737 0.466 -1.34 1.149 -1.34 1.519 0 1.028 1.873 0.799 2.482 -0.303 0.583 -1.054 7.391 -1.667 8.791 -0.791 1.471 0.92 0.787 -0.309 -1.408 -2.531 -1.206 -1.22 -2.713 -2.421 -3.349 -2.668 -1.341 -0.521 -1.547 -2.272 -0.32 -2.715 1.348 -0.487 4.04 1.256 6.149 3.988 1.933 2.498 1.948 2.58 0.955 5.374 -1.101 3.1 -0.666 5.459 1.282 6.948 1.417 1.083 2.81 0.835 3.745 -0.667 z m 42.921 -1.878 c 0.945 -0.364 1.718 -0.974 1.718 -1.356 0 -1.193 -2.414 -0.76 -3.684 0.661 -1.329 1.486 -0.683 1.714 1.966 0.695 z m 11.943 0.256 c 0.604 -0.611 -0.228 -2.355 -0.917 -1.924 -0.33 0.206 -0.6 0.815 -0.6 1.352 0 0.998 0.798 1.299 1.517 0.572 z m -3.191 -2.66 c 2.538 -0.408 6.364 -3.183 6.364 -4.614 0 -0.355 0.481 -1 1.069 -1.437 0.876 -0.648 0.578 -0.779 -1.649 -0.722 -1.495 0.038 -2.931 0.284 -3.19 0.547 -0.847 0.858 -3.598 0.509 -3.598 -0.456 0 -1.625 1.772 -2.511 5.622 -2.81 3.177 -0.247 3.934 -0.072 5.077 1.169 0.738 0.802 1.503 1.969 1.698 2.592 0.461 1.471 3.478 2.851 5.096 2.331 3.485 -1.119 2.744 -5.434 -0.842 -4.901 -1.015 0.151 -1.688 0.017 -1.496 -0.298 0.192 -0.315 0.148 -1.498 -0.097 -2.63 -0.555 -2.558 -2.913 -3.653 -5.399 -2.507 -1.225 0.565 -2.048 0.587 -2.853 0.079 -1.285 -0.812 -10.06 0.115 -11.128 1.175 -0.903 0.898 -1.786 0.784 -1.658 -0.215 0.427 -3.331 -1.075 -3.411 -1.608 -0.085 -0.217 1.351 -0.825 2.953 -1.353 3.559 -1.627 1.871 -1.898 5 -0.564 6.526 1.701 1.94 4.925 3.604 6.489 3.348 0.737 -0.121 2.545 -0.413 4.02 -0.65 z m -14.536 -0.461 c 1.172 -1.186 0.986 -1.898 -0.496 -1.898 -1.472 0 -2.333 1.021 -1.714 2.034 0.548 0.898 1.231 0.856 2.21 -0.136 z m -31.359 -4.441 c -0.026 -1.311 -1.288 -2.364 -2.342 -1.955 -0.933 0.362 -0.993 0.634 -0.321 1.455 0.859 1.048 2.68 1.39 2.663 0.5 z m 33.34 -1.017 c -0.152 -0.466 -0.991 -0.953 -1.866 -1.082 -1.388 -0.205 -1.477 -0.097 -0.703 0.847 1.049 1.279 2.966 1.454 2.569 0.235 z m -28.14 -2.034 c -0.153 -0.466 -0.847 -0.959 -1.542 -1.095 -1.093 -0.214 -1.142 -0.1 -0.365 0.847 1.063 1.296 2.304 1.457 1.906 0.248 z m -33.32 -4.158 c 0 -0.905 -3.338 -2 -4.02 -1.32 -0.455 0.456 2.052 2.258 3.141 2.258 0.482 0 0.877 -0.422 0.877 -0.938 z m 92.99 -2.336 c 0.247 -1.696 -0.876 -1.998 -1.482 -0.4 -0.637 1.679 -0.481 2.455 0.431 2.151 0.461 -0.154 0.934 -0.942 1.051 -1.751 z m -72.59 0.608 c 0.495 -0.811 -0.765 -1.615 -1.657 -1.057 -0.749 0.469 -0.257 1.688 0.681 1.688 0.325 0 0.764 -0.284 0.976 -0.631 z m 56.873 -2.42 c 0.235 -0.619 0.001 -1.017 -0.598 -1.017 -0.541 0 -0.984 0.458 -0.984 1.017 0 0.559 0.269 1.017 0.598 1.017 0.329 0 0.772 -0.458 0.984 -1.017 z m 11.139 0.009 c 0.672 -0.819 0.616 -1.091 -0.298 -1.446 -1.32 -0.513 -2.727 0.652 -2.076 1.718 0.618 1.012 1.394 0.923 2.374 -0.272 z m -90.59 -2.55 c -0.422 -1.283 -2.512 -1.465 -2.512 -0.219 0 0.629 0.573 1.067 1.395 1.067 0.819 0 1.28 -0.35 1.117 -0.847 z m 4.46 -1.087 c 0.194 -0.318 -0.08 -1.157 -0.609 -1.864 -0.911 -1.219 -0.963 -1.188 -0.983 0.578 -0.02 1.789 0.854 2.496 1.592 1.286 z m -15.68 -1.061 c 0 -1.704 -0.788 -3.106 -1.746 -3.106 -1.035 0 -1.1 0.319 -0.511 2.542 0.441 1.664 2.257 2.118 2.257 0.564 z m 103.83 -1.75 c 0 -0.373 -0.434 -0.678 -0.965 -0.678 -0.531 0 -1.152 0.305 -1.379 0.678 -0.228 0.373 0.207 0.678 0.965 0.678 0.759 0 1.379 -0.305 1.379 -0.678 z m 20.858 -4.01 c 0.87 -0.714 1.357 -1.526 1.082 -1.805 -0.757 -0.769 -3.854 0.895 -3.854 2.071 0 1.382 0.865 1.299 2.773 -0.266 z m -113.97 -6.121 c 0 -0.8 -1.306 -1.656 -1.786 -1.17 -0.48 0.486 0.366 1.808 1.156 1.808 0.347 0 0.63 -0.287 0.63 -0.638 z m 101.02 -3.387 c 0.167 -0.508 -0.084 -0.763 -0.586 -0.593 -0.484 0.163 -1.011 0.697 -1.172 1.186 -0.167 0.508 0.084 0.763 0.586 0.593 0.484 -0.163 1.011 -0.697 1.172 -1.186 z m 13.522 -3.238 c 0 -1.695 -0.085 -1.754 -1.084 -0.743 -0.596 0.603 -0.88 1.432 -0.63 1.84 0.822 1.346 1.714 0.775 1.714 -1.097 z m 5.972 -2.397 c 0.693 -1.856 0.345 -2.611 -0.969 -2.101 -1.107 0.43 -1.364 3.627 -0.292 3.627 0.38 0 0.948 -0.686 1.261 -1.525 z m -8.441 -1.495 c 0.651 -0.658 1.736 -0.862 3.261 -0.612 1.623 0.267 2.543 0.061 3.174 -0.708 0.489 -0.596 1.268 -1.083 1.731 -1.083 0.93 0 4.351 -4.229 4.351 -5.378 0 -0.939 0.873 -0.924 1.817 0.031 0.41 0.415 1.123 0.627 1.585 0.471 0.57 -0.192 0.355 -0.741 -0.667 -1.705 -1.433 -1.351 -2.846 -5.263 -2.827 -7.825 0.004 -0.653 -0.274 -1.186 -0.619 -1.186 -0.346 0 -0.628 0.41 -0.628 0.912 0 0.502 -0.586 1.449 -1.302 2.105 -0.716 0.656 -1.394 1.844 -1.507 2.64 -0.113 0.796 -0.777 1.558 -1.476 1.693 -1.11 0.214 -1.222 -0.06 -0.883 -2.175 0.213 -1.331 1.237 -3.498 2.276 -4.815 1.743 -2.211 2.166 -2.394 5.519 -2.394 4.04 0 6.081 -1.257 6.081 -3.751 0 -0.829 -0.487 -1.916 -1.081 -2.415 -0.933 -0.783 -1.311 -0.638 -2.752 1.057 -1.417 1.668 -1.76 1.804 -2.259 0.901 -1.624 -2.938 -6.03 -1.725 -6.928 1.909 -0.228 0.918 -1.159 1.956 -2.07 2.306 -0.911 0.35 -1.656 1.102 -1.656 1.671 0 0.569 -0.246 1.034 -0.546 1.034 -0.793 0 -3.473 5.318 -3.473 6.892 0 1.218 -0.096 1.243 -1.053 0.275 -1.196 -1.211 -2.043 -1.352 -2.603 -0.434 -0.212 0.347 0.147 1.034 0.798 1.525 0.651 0.492 1.595 1.809 2.099 2.928 0.503 1.119 1.182 2.564 1.507 3.211 0.825 1.641 0.777 1.752 -0.863 1.996 -1.664 0.248 -2.528 1.912 -0.993 1.912 0.557 0 1.452 -0.444 1.988 -0.987 z m -122.79 -0.329 c 0 -0.8 -1.306 -1.656 -1.786 -1.17 -0.48 0.486 0.366 1.808 1.156 1.808 0.347 0 0.63 -0.287 0.63 -0.638 z m -15.12 -2.454 c 0.639 -1.778 0.982 -1.971 3.184 -1.785 1.972 0.166 2.625 -0.089 3.249 -1.269 0.43 -0.812 0.616 -2.311 0.415 -3.33 -0.209 -1.06 0.03 -2.424 0.559 -3.189 1.104 -1.595 2.37 -10.294 1.571 -10.794 -0.308 -0.192 -0.559 -0.827 -0.559 -1.41 0 -0.861 0.187 -0.903 0.996 -0.223 1.119 0.94 3.337 0.392 2.691 -0.666 -0.229 -0.376 -0.93 -0.683 -1.556 -0.683 -0.627 0 -2.032 -0.839 -3.122 -1.864 -3.149 -2.962 -4.864 -3.668 -6.539 -2.692 -2.459 1.432 -4.484 4.148 -4.506 6.04 -0.012 1 -0.347 2.028 -0.745 2.277 -0.398 0.249 -0.541 1.19 -0.318 2.091 0.366 1.477 0.24 1.596 -1.285 1.208 -1.047 -0.266 -1.692 -0.143 -1.692 0.322 0 0.413 0.588 0.751 1.306 0.751 0.718 0 2.11 1.068 3.094 2.373 0.984 1.305 2.199 2.373 2.701 2.373 0.997 0 1.615 -2.085 1.406 -4.746 -0.101 -1.292 0.225 -1.746 1.374 -1.912 1.291 -0.186 1.518 0.106 1.584 2.034 0.185 5.384 -0.914 7.982 -3.761 8.899 -4.237 1.364 -5.966 4.94 -3.564 7.371 1.648 1.668 2.612 1.344 3.518 -1.179 z m 9.504 -0.605 c 0.205 -0.541 0.169 -1.319 -0.081 -1.728 -0.655 -1.072 -2.368 0.504 -1.898 1.745 0.474 1.25 1.502 1.241 1.978 -0.017 z m 2.033 -11.529 c -0.218 -0.575 -0.708 -1.046 -1.088 -1.046 -0.982 0 -0.859 1.86 0.146 2.224 1.138 0.411 1.413 0.067 0.941 -1.177 z m 128.17 -4.436 c 0 -0.746 -0.301 -1.356 -0.67 -1.356 -0.368 0 -0.67 0.61 -0.67 1.356 0 0.746 0.301 1.356 0.67 1.356 0.368 0 0.67 -0.61 0.67 -1.356 z m 19.22 -5.241 c -0.17 -0.66 -0.32 -0.284 -0.334 0.835 -0.014 1.119 0.125 1.658 0.309 1.199 0.183 -0.459 0.195 -1.374 0.025 -2.034 z m -12.521 -3.629 c 0 -1.652 -1.565 -1.419 -1.891 0.282 -0.128 0.669 0.214 1.13 0.837 1.13 0.621 0 1.054 -0.58 1.054 -1.412 z m -148.91 -1.03 c 0.306 -0.929 -1.597 -3.422 -2.17 -2.842 -0.729 0.737 0.313 4.058 1.181 3.765 0.424 -0.143 0.869 -0.558 0.989 -0.923 z m 153.62 -1.935 c -0.472 -0.575 -1.122 -1.046 -1.445 -1.046 -0.856 0 -0.719 1.63 0.216 2.576 1.188 1.202 2.317 -0.204 1.229 -1.531 z m -145.54 -2.792 c -0.659 -0.667 -1.847 0.357 -1.847 1.593 0 1.035 0.088 1.033 1.132 -0.024 0.623 -0.63 0.944 -1.336 0.714 -1.569 z m 137.33 0.518 c 0.146 -0.443 -0.212 -0.805 -0.795 -0.805 -0.583 0 -1.061 0.483 -1.061 1.073 0 1.197 1.442 0.989 1.856 -0.268 z m -141.85 -2.121 c 0 -1.549 -1.056 -2.409 -1.688 -1.375 -0.563 0.921 0.093 2.69 0.997 2.69 0.38 0 0.691 -0.592 0.691 -1.316 z m 10.717 -9.571 c 0 -0.351 -0.301 -0.638 -0.67 -0.638 -0.368 0 -0.67 0.476 -0.67 1.057 0 0.581 0.301 0.868 0.67 0.638 0.368 -0.23 0.67 -0.706 0.67 -1.057 z m -14.737 -2.438 c 0 -0.502 -0.42 -0.912 -0.933 -0.912 -0.98 0 -1.746 1.41 -1.746 3.211 0 0.917 0.188 0.894 1.34 -0.161 0.737 -0.675 1.34 -1.637 1.34 -2.139 z m 155.43 -4.98 c 0.235 -1.767 -0.002 -2.712 -0.68 -2.712 -0.857 0 -1.616 3.087 -1 4.088 0.544 0.891 1.486 0.121 1.685 -1.376 z m -138.81 -8.093 c 0.167 -0.508 -0.084 -0.763 -0.586 -0.593 -0.484 0.163 -1.011 0.697 -1.172 1.186 -0.167 0.508 0.084 0.763 0.586 0.593 0.484 -0.163 1.011 -0.697 1.172 -1.186 z m 130.45 0.571 c 0.506 -0.828 -1.445 -3.145 -2.094 -2.488 -0.554 0.561 0.318 3.231 1.056 3.231 0.322 0 0.789 -0.334 1.039 -0.743 z m -5.654 -0.782 c 0.044 -0.466 0.033 -1.109 -0.024 -1.429 -0.057 -0.32 0.612 -1.54 1.487 -2.712 0.875 -1.171 1.786 -3.139 2.025 -4.373 0.436 -2.253 -0.774 -7.587 -1.721 -7.587 -0.279 0 -0.507 -0.415 -0.507 -0.923 0 -0.619 0.552 -0.816 1.675 -0.599 1.232 0.238 1.675 0.032 1.675 -0.78 0 -0.899 -0.474 -1.027 -2.544 -0.692 -1.882 0.305 -2.775 0.13 -3.431 -0.67 -0.488 -0.595 -1.393 -1.082 -2.01 -1.082 -0.618 0 -1.474 -0.355 -1.903 -0.789 -0.593 -0.6 -0.682 -0.153 -0.374 1.864 0.223 1.459 0.993 3.225 1.711 3.923 1.214 1.181 1.228 1.347 0.197 2.373 -1.025 1.02 -1.205 0.984 -2.389 -0.477 -1.266 -1.562 -2.642 -5.535 -2.649 -7.647 -0.002 -0.6 1.051 -2.224 2.341 -3.608 1.289 -1.384 2.344 -3.037 2.344 -3.673 0 -1.989 -2.02 -4.265 -3.581 -4.04 -1.239 0.179 -1.425 0.61 -1.319 3.051 0.093 2.145 -0.099 2.756 -0.783 2.491 -1.408 -0.547 -4.364 1.761 -4.364 3.407 0 0.806 0.482 2.163 1.072 3.02 0.59 0.852 0.922 2.128 0.74 2.836 -0.325 1.259 0.839 5.606 1.748 6.526 0.252 0.256 0.459 1.027 0.459 1.714 0 0.687 0.614 1.78 1.363 2.429 l 1.363 1.18 l -1.481 0.358 c -0.815 0.197 -1.618 0.772 -1.784 1.278 -0.235 0.714 0.237 0.818 2.109 0.463 1.648 -0.313 3.06 -0.119 4.46 0.614 1.126 0.589 2.336 0.892 2.688 0.671 0.385 -0.241 0.477 0.424 0.232 1.667 -0.262 1.325 -0.138 2.068 0.345 2.068 0.414 0 0.789 -0.381 0.833 -0.847 z m -131.21 -6.293 c -0.8 -1.446 -1.834 -0.138 -1.204 1.523 0.296 0.78 0.624 0.888 1.134 0.372 0.475 -0.481 0.499 -1.121 0.071 -1.895 z m 5.127 1.775 c 0.547 -0.351 0.752 -1.081 0.494 -1.761 -0.358 -0.944 -0.627 -1.01 -1.437 -0.324 -1.035 0.869 -1.373 2.713 -0.494 2.695 0.276 -0.005 0.923 -0.28 1.437 -0.61 z m 132.7 -2.432 c -0.959 -1.814 -2.679 -2.302 -2.679 -0.76 0 0.936 2.767 3.22 3.294 2.719 0.154 -0.146 -0.123 -1.028 -0.616 -1.96 z m -129.32 -4.02 c 0.558 -0.68 1.433 -0.911 2.463 -0.649 0.996 0.253 1.598 0.11 1.598 -0.381 0 -0.433 0.904 -1.106 2.01 -1.496 1.105 -0.39 2.01 -0.935 2.01 -1.212 0 -0.277 0.754 -0.85 1.675 -1.275 0.921 -0.425 1.675 -1.236 1.675 -1.804 0 -1.501 1.123 -1.264 1.534 0.324 0.193 0.746 0.715 1.356 1.161 1.356 0.551 0 0.641 -0.489 0.282 -1.525 -0.291 -0.839 -0.469 -3.437 -0.395 -5.772 0.129 -4.062 0.053 -4.28 -1.726 -5.01 -1.023 -0.419 -2.614 -0.728 -3.535 -0.686 -1.456 0.066 -1.534 -0.033 -0.6 -0.757 1.164 -0.902 2.342 -3.878 1.535 -3.878 -0.822 0 -2.945 2.189 -2.945 3.036 0 0.435 -1.35 1.474 -2.999 2.308 -1.65 0.834 -3.174 1.803 -3.389 2.154 -0.66 1.08 -1.472 0.711 -1.952 -0.887 -0.305 -1.017 -0.58 -1.223 -0.823 -0.619 -0.201 0.499 -0.079 1.196 0.27 1.55 0.401 0.406 0.324 2.322 -0.209 5.19 -0.815 4.387 -0.76 6.282 0.114 3.975 0.232 -0.613 0.844 -1.114 1.36 -1.114 0.516 0 1.593 -0.763 2.394 -1.695 1.638 -1.907 2.901 -2.169 3.452 -0.717 0.447 1.178 -3.069 4.465 -6.164 5.762 -1.978 0.829 -2.359 0.779 -4.123 -0.541 -2.469 -1.847 -6.076 -1.905 -7.669 -0.124 -2.384 2.666 0.483 5.084 3.728 3.144 1.625 -0.972 1.865 -0.991 1.537 -0.124 -0.237 0.626 0.352 1.673 1.507 2.679 1.712 1.49 2.066 1.563 3.629 0.745 0.952 -0.498 2.121 -1.381 2.597 -1.961 z m 6.637 -0.016 c 0.148 -0.773 -0.093 -1.099 -0.67 -0.905 -0.496 0.167 -1.01 0.847 -1.133 1.512 -0.148 0.773 0.093 1.099 0.67 0.905 0.496 -0.167 1.01 -0.847 1.133 -1.512 z m 103.11 -3.213 c -0.414 -1.257 -1.856 -1.466 -1.856 -0.268 0 0.59 0.477 1.073 1.061 1.073 0.583 0 0.941 -0.362 0.795 -0.805 z m -84.03 -11.333 c 0.251 -1.269 -0.083 -2.957 -0.937 -4.747 -1.214 -2.543 -1.241 -2.946 -0.319 -4.751 2.04 -3.993 7.06 -6.433 7.06 -3.431 0 0.826 -0.641 1.62 -1.61 1.992 -3.665 1.41 -2.527 4.093 1.737 4.093 1.997 0 3.283 -0.538 5.265 -2.203 1.442 -1.212 2.628 -2.484 2.634 -2.828 0.006 -0.344 0.436 -1.106 0.955 -1.695 2.208 -2.506 0.748 -7.511 -2.191 -7.511 -0.572 0 -2.135 -1.082 -3.473 -2.404 -2.154 -2.129 -2.532 -2.283 -3.302 -1.343 -0.726 0.885 -0.66 1.301 0.395 2.511 1.249 1.432 1.246 1.445 -0.204 1.078 -0.933 -0.236 -1.868 0.074 -2.561 0.85 -0.601 0.672 -1.748 1.41 -2.55 1.64 -1.655 0.475 -4.419 3.766 -4.787 5.699 -0.135 0.709 -1.024 2.077 -1.975 3.04 -0.951 0.963 -1.724 2.298 -1.718 2.968 0.014 1.519 3.056 4.524 3.988 3.941 0.887 -0.555 0.875 0.064 -0.032 1.78 -0.996 1.883 -0.302 3.292 1.621 3.292 1.243 0 1.701 -0.45 2 -1.969 z m 81.18 1.261 c 0.535 -0.875 -0.953 -2.806 -1.769 -2.296 -0.327 0.204 -0.594 0.964 -0.594 1.687 0 1.389 1.629 1.809 2.363 0.608 z m -6.897 -1.701 c -0.478 -0.864 -0.768 -0.943 -1.152 -0.314 -0.291 0.477 -0.122 1.085 0.39 1.406 1.22 0.763 1.537 0.309 0.762 -1.092 z m -82.54 -0.981 c 0 -0.373 -0.603 -0.678 -1.34 -0.678 -0.737 0 -1.34 0.305 -1.34 0.678 0 0.373 0.603 0.678 1.34 0.678 0.737 0 1.34 -0.305 1.34 -0.678 z m 80.7 -0.648 c 0.218 -0.357 0.811 -0.487 1.319 -0.29 2.779 1.079 6.868 -3.979 5.03 -6.221 -0.419 -0.51 -0.658 -2.388 -0.531 -4.172 0.203 -2.87 0.075 -3.244 -1.11 -3.244 -0.99 0 -1.298 0.398 -1.18 1.525 0.198 1.89 -0.92 2.02 -1.499 0.169 -0.292 -0.932 -1.013 -1.356 -2.308 -1.356 -1.035 0 -2.226 -0.419 -2.645 -0.93 -0.798 -0.973 -5.436 -1.034 -7.618 -0.1 -0.651 0.279 -1.987 0.351 -2.968 0.161 -0.982 -0.19 -2.499 -0.016 -3.371 0.386 -1.305 0.602 -1.551 1.16 -1.386 3.15 0.161 1.944 0.507 2.462 1.763 2.642 0.859 0.123 2.065 -0.221 2.679 -0.765 2.705 -2.395 10.584 -1.312 10 1.376 -0.142 0.66 -0.693 1.094 -1.224 0.966 -4.378 -1.058 -5.319 -0.967 -5.319 0.511 0 0.81 0.66 2.375 1.466 3.478 1.102 1.508 2.01 2.01 3.645 2.01 1.198 0 2.365 0.305 2.593 0.678 0.526 0.861 2.143 0.879 2.661 0.03 z m -67.971 -1.703 c 0 -0.606 -0.393 -0.843 -1 -0.605 -0.553 0.215 -1 0.663 -1 0.996 0 0.333 0.452 0.605 1 0.605 0.553 0 1 -0.448 1 -0.996 z m 79.04 -0.288 c 0 -0.676 -1.617 -1.428 -3.069 -1.428 -0.522 0 -0.95 0.284 -0.95 0.631 0 0.543 0.645 0.783 3.517 1.311 0.276 0.051 0.502 -0.18 0.502 -0.513 z m -22.775 -0.75 c 0 -0.373 -0.47 -0.678 -1.044 -0.678 -0.574 0 -0.858 0.305 -0.63 0.678 0.228 0.373 0.698 0.678 1.044 0.678 0.347 0 0.63 -0.305 0.63 -0.678 z m -69.846 -2.249 c -0.464 -1.409 -2.154 -0.858 -2.383 0.777 -0.199 1.42 -0.078 1.501 1.213 0.802 0.789 -0.427 1.315 -1.137 1.17 -1.578 z m 51.28 -3.157 c 0.19 -0.736 1.431 -1.987 2.757 -2.779 1.326 -0.792 2.412 -1.715 2.412 -2.051 0 -1.175 1.187 -0.599 1.534 0.745 0.193 0.746 0.68 1.356 1.083 1.356 1.027 0 0.912 -1.078 -0.239 -2.243 -0.534 -0.541 -1.185 -1.859 -1.446 -2.93 -0.641 -2.632 -3.509 -6.353 -4.896 -6.353 -0.619 0 -1.445 -0.323 -1.835 -0.717 -1.89 -1.913 -8.493 -0.978 -9.951 1.409 -0.668 1.095 2.484 3.343 4.122 2.94 1.872 -0.46 2.699 0.95 1.355 2.31 -0.958 0.97 -1.421 0.918 -5.116 -0.567 -3.502 -1.408 -4.148 -1.945 -4.679 -3.894 -0.339 -1.243 -0.475 -2.634 -0.302 -3.09 0.173 -0.456 -0.452 -1.559 -1.39 -2.45 -1.422 -1.352 -2.01 -1.513 -3.53 -0.97 -2.612 0.93 -2.676 2.705 -0.154 4.258 1.161 0.715 1.82 1.481 1.465 1.703 -0.355 0.222 -0.807 1.247 -1 2.278 -0.46 2.405 1.127 4.247 3.658 4.247 1.083 0 2.409 0.588 3.059 1.356 0.631 0.746 1.665 1.356 2.298 1.356 0.633 0 1.338 0.305 1.565 0.678 0.228 0.373 1.132 0.678 2.01 0.678 0.878 0 1.793 0.323 2.034 0.718 0.259 0.424 1.303 0.533 2.551 0.268 1.727 -0.368 1.96 -0.288 1.276 0.435 -0.461 0.487 -0.837 1.282 -0.837 1.766 0 1.4 1.817 1.022 2.199 -0.457 z m -24.938 -1.712 c -0.053 -1.01 -1.551 -0.821 -1.899 0.234 -0.188 0.57 0.118 0.824 0.817 0.678 0.615 -0.129 1.101 -0.539 1.082 -0.912 z m 13.95 0.404 c 0.508 -0.325 0.707 -0.946 0.443 -1.378 -0.364 -0.596 -0.709 -0.594 -1.425 0.007 -1.766 1.483 -0.956 2.614 0.983 1.371 z m -9.296 -4.811 c 0 -1.404 -1.616 -1.871 -2.344 -0.678 -0.561 0.918 0.196 2.034 1.379 2.034 0.531 0 0.965 -0.61 0.965 -1.356 z m -25.12 -0.678 c 0 -0.696 -0.529 -0.942 -1.675 -0.781 -2.05 0.289 -2.272 0.481 -1.678 1.453 0.662 1.085 3.353 0.546 3.353 -0.672 z m 57.71 -0.368 c 0.54 -1.425 -0.06 -1.879 -1.763 -1.332 -1.141 0.366 -1.268 0.65 -0.638 1.418 1.025 1.25 1.907 1.218 2.401 -0.086 z m 12.288 -1.561 c 0 -1.048 -2.583 -2.957 -3.351 -2.477 -0.527 0.33 -0.407 0.863 0.397 1.761 1.177 1.317 2.954 1.747 2.954 0.716 z m -48.56 -1.465 c 0.669 -0.748 1.043 -1.535 0.831 -1.75 -0.637 -0.644 -3.179 1.049 -3.179 2.117 0 1.382 0.912 1.239 2.348 -0.367 z m 32.989 -2.538 c 0.186 -0.572 -0.504 -0.847 -2.125 -0.847 -1.32 0 -2.4 0.28 -2.4 0.621 0 1.489 4.048 1.691 4.525 0.226 z m -11.659 -5.232 c 0.429 -1.133 -0.568 -2.01 -1.574 -1.378 -1 0.626 -0.808 2.373 0.263 2.373 0.513 0 1.103 -0.448 1.31 -0.995 z m 77.6 67.774 c 0.014 -1.119 0.164 -1.494 0.334 -0.835 0.17 0.66 0.159 1.575 -0.025 2.034 -0.183 0.459 -0.322 -0.081 -0.309 -1.199 z" transform="matrix(1.03192 0 0 1.03124 -124.35 186.58)"/></g></svg>