<svg xmlns="http://www.w3.org/2000/svg" viewBox="0 0 256 256" xmlns:xlink="http://www.w3.org/1999/xlink"><path d="m 32.35 38.52 c -146.42 225.37 253.5 312.59 221.64 80.74 -12.991 -94.56 -165.63 -166.95 -221.64 -80.74 z" fill="#708090" color="#000"/><path d="m 120.62 213.61 c -3.721 -1.456 -6.47 -3.502 -11.408 -8.491 -1.223 -1.236 -3.808 -5.325 -5.743 -9.09 -6 -11.664 -12.33 -22.04 -13.985 -22.931 -0.87 -0.466 -2.931 -0.847 -4.579 -0.847 -3.278 0 -5.711 -1.01 -8.254 -3.412 -0.908 -0.859 -2.471 -2.209 -3.474 -2.999 -1.601 -1.262 -1.829 -2.243 -1.869 -8.05 -0.025 -3.635 0.022 -7.169 0.104 -7.854 0.212 -1.764 -3.622 -7.579 -6.715 -10.184 -1.439 -1.212 -3.609 -2.209 -4.823 -2.216 -2.982 -0.017 -4.493 -1.105 -4.137 -2.978 0.216 -1.136 1.216 -1.664 3.727 -1.966 l 3.432 -0.413 c 1.034 -5.82 0.177 -4.965 -16.351 -4.365 -1.229 0.768 -2.534 0.739 -5.955 -0.135 -8.579 -2.19 -10 -4.787 -5.575 -10.165 1.74 -2.112 3.753 -3.427 6.497 -4.243 5.214 -1.55 9.116 -3.606 9.238 -4.867 0.244 -2.522 -0.211 -17.759 -0.589 -19.705 -0.269 -1.386 0.077 -2.668 0.956 -3.548 2.829 -2.832 3.261 -1.229 2.951 10.951 -0.211 8.262 -0.026 11.703 0.626 11.703 0.508 0 3.869 -1.952 7.468 -4.337 l 6.544 -4.337 l -0.449 -3.337 c -0.331 -2.465 -0.102 -3.625 0.878 -4.439 0.742 -0.617 1.326 -2.339 1.326 -3.91 0 -2.177 -0.454 -3.02 -2.02 -3.729 -4.27 -1.947 -3.378 -6.326 2.127 -10.439 2.341 -1.749 4.061 -3.705 4.12 -4.685 0.056 -0.925 0.149 -3.819 0.206 -6.431 l 0.105 -4.748 l -2.889 -0.015 c -1.589 -0.008 -3.401 -0.34 -4.03 -0.736 -1.792 -1.136 -0.271 -2.558 2.736 -2.558 1.507 0 3.201 -0.558 3.767 -1.239 0.565 -0.682 1.911 -1.239 2.99 -1.239 1.194 0 1.962 -0.485 1.962 -1.239 0 -0.949 -1.047 -1.239 -4.472 -1.239 -7.315 0 -9.38 -1.592 -4.26 -3.283 1.553 -0.513 3.226 -1.419 3.719 -2.01 0.493 -0.595 1.76 -0.916 2.814 -0.714 1.392 0.266 2.301 -0.218 3.315 -1.768 1.721 -2.63 3.632 -2.762 3.985 -0.276 0.203 1.432 0.89 1.919 2.992 2.121 2.725 0.262 8.509 3.575 8.464 4.848 -0.013 0.37 -2.507 0.859 -5.543 1.086 -3.191 0.239 -5.655 0.826 -5.842 1.393 -0.859 2.612 8.211 4.951 12.784 3.297 1.381 -0.499 1.993 -0.33 2.372 0.659 0.774 2.02 -0.163 2.463 -6.157 2.913 l -5.505 0.413 l -0.272 2.87 c -0.15 1.578 -0.034 4.46 0.257 6.403 0.503 3.359 0.667 3.533 3.319 3.533 1.534 0 3.061 0.44 3.393 0.977 0.332 0.537 0.641 5.278 0.686 10.534 l 0.083 9.557 l 24.33 -0.079 c 13.382 -0.043 26.506 -0.371 29.16 -0.729 4.571 -0.615 4.93 -0.534 6.603 1.489 1.414 1.711 4.583 2.965 15.801 6.253 17.38 5.095 21.754 5.811 28.21 5.874 9.396 0.091 12.12 1.347 12.77 2.31 4.07 2.504 10.08 3.945 16.861 9.635 -0.315 3.478 0.98 5.86 2.867 5.652 3.153 0.167 3.383 -0.417 2.987 4.395 -0.246 2.986 -1.163 1.57 -4.267 2.163 -1.816 0.347 -8.189 0.635 -14.162 0.639 l -10.861 0.008 l -3.942 2.719 c -2.168 1.496 -4.057 3.071 -4.197 3.501 -0.14 0.43 0.835 1.402 2.166 2.161 2.92 1.663 4.553 6.722 3.734 11.572 -0.423 2.507 -0.215 3.635 0.899 4.867 2.257 2.496 0.704 4.635 -8.455 11.644 -10.592 8.106 -12.584 9.117 -16.667 8.463 -4.02 -0.644 -8.677 0.824 -10.204 3.22 -0.637 0.999 -1.747 3.304 -2.466 5.122 -1.7 4.296 -5.872 11.163 -11.443 18.833 -3.634 5 -5.649 6.858 -10.833 9.974 -6.235 3.747 -6.512 3.827 -13.206 3.789 -4.614 -0.026 -8.107 -0.535 -10.741 -1.566 z m -31.506 -132.85 c 0 -1.661 0.49 -3.295 -0.495 -3.275 -13.984 0.275 -14.13 -0.682 -13.862 3.331 0.143 2.106 14.357 2.43 14.357 -0.056 z" fill="#fff"/><rect width="112.96" height="11.511" x="80.78" y="151.06" rx="4.294" fill="#b0c4de"/><g fill="#789"><path d="m 128.07 133.53 c -0.838 -0.872 -2.091 -3.101 -2.785 -4.953 -1.585 -4.235 -3.617 -7.73 -5.04 -8.659 -0.738 -0.484 -3.301 -0.823 -7.863 -1.042 l -6.768 -0.325 l -0.355 2.448 c 2.363 11.05 -4.486 13.09 -3.946 5.829 -0.844 -3.63 -0.467 -7.141 -0.876 -8.208 -0.329 -0.857 -2.185 0.148 -7.673 -0.582 -4.532 -0.603 -7.622 -1.631 -6.986 -3.288 0.48 -1.252 6.581 -1.193 23.486 -0.959 15.64 0.217 15.692 0.221 16.939 1.392 0.688 0.646 1.382 1.589 1.543 2.096 0.161 0.507 3.205 1.778 3.756 2.072 0.831 0.445 1.473 -1.757 5.281 -3.933 4.305 -2.46 2.711 -1.413 6.932 -1.744 2.474 -0.194 9.964 -0.233 16.645 -0.085 11.552 0.255 14.644 0.319 15.332 1.301 1.827 2.608 -2.092 3.505 -9.08 4.075 -2.253 0.184 -4.498 0.628 -4.989 0.987 -0.81 0.592 -0.831 0.855 -0.219 2.824 1.022 3.294 0.983 5.942 -0.099 6.61 -0.739 0.457 -1.697 1.27 -2.474 0.323 -1.198 -2.086 -0.761 -4.875 -1.118 -7.139 -0.489 -3.092 -1.833 -3.62 -9.224 -3.62 -8.884 0 -9.426 0.313 -13.02 7.504 -4.509 9.03 -5.04 9.535 -7.401 7.08 z"/><path d="m 128.56 116.54 c -0.5 -0.483 -1.357 -2.21 -1.907 -3.838 -2.22 -6.583 5.566 -10.143 8.97 -4.514 2.995 4.953 -3.267 12.02 -7.06 8.352 z"/><path d="m 117.33 112.43 c -0.278 -0.344 -0.457 -2.465 -0.399 -4.714 0.118 -4.55 1.527 -7.814 3.257 -7.549 0.853 0.131 1.035 1.131 1.183 6.521 l 0.175 6.366 h -1.855 c -1.02 0 -2.083 -0.281 -2.36 -0.625 z"/><path d="m 117.65 136.38 c -2.02 -0.241 -2.483 -1.028 -3.194 -5.442 -0.58 -3.605 -0.078 -4.423 2.349 -3.827 2.447 0.601 6.84 5.55 6.553 7.383 -0.227 1.45 -2.648 2.25 -5.708 1.886 z"/><path d="m 147.92 112.43 c 0.278 -0.344 0.457 -2.465 0.399 -4.714 -0.118 -4.55 -1.527 -7.814 -3.257 -7.549 -0.853 0.131 -1.035 1.131 -1.183 6.521 l -0.175 6.366 h 1.855 c 1.02 0 2.083 -0.281 2.36 -0.625 z"/><path d="m 143.35 136.99 c 2.02 -0.256 2.483 -1.094 3.194 -5.793 0.58 -3.837 0.078 -4.709 -2.349 -4.074 -2.447 0.64 -6.84 5.909 -6.553 7.86 0.227 1.544 2.648 2.395 5.708 2.01 z"/><path d="m 134.19 175.05 a 1.693 3.386 0 1 1 -3.386 0 1.693 3.386 0 1 1 3.386 0 z" transform="matrix(1 0 0 1.54545 0 -93.64)"/></g><path d="m 122.81 173.67 a 2.77 2.616 0 1 1 -5.54 0 2.77 2.616 0 1 1 5.54 0 z" transform="matrix(1.11111 0 0 1.35294 -12.11 -60.987)" fill="#789" id="0"/><use transform="matrix(1.05 0 0 0.95652 16.867 7.102)" xlink:href="#0"/></svg>