<svg xmlns="http://www.w3.org/2000/svg" viewBox="0 0 256 256"><g fill="#a9a3f2" color="#000"><path d="m 244.84 882.37 c 49.681 128.5 -89.55 194.42 -176.23 161.67 -60.5 -22.859 -90.65 -113.97 -47.683 -187.62 54.22 -92.93 185.6 -73.16 223.92 25.949 z" transform="matrix(1 0 0 -0.99153 0 1045.63)"/></g><g transform="matrix(0.89408 0 0 0.87541 -94.95 119.11)" fill="#0066cb"><path d="m 233.99 122.46 c -25.06 -4.235 -44.2 -13.793 -61.34 -30.632 -17.468 -17.17 -27.439 -37.08 -31.69 -63.28 c -2.516 -15.515 -1.36 -29.342 4 -47.841 9.728 -33.569 38.646 -62.49 72.21 -72.21 18.499 -5.361 32.33 -6.517 47.841 -4 25.834 4.19 45.797 14.08 62.857 31.14 17.06 17.06 26.95 37.02 31.14 62.857 2.516 15.515 1.36 29.342 -4 47.841 -9.71 33.506 -38.709 62.51 -72.21 72.21 -18.367 5.322 -33.372 6.527 -48.812 3.918 z m 43.31 -16.344 c 8.478 -2.485 21.12 -8.629 29.609 -14.391 26.671 -18.1 42.905 -53.804 39.51 -86.89 -4.406 -42.936 -33.73 -76.25 -76.17 -86.55 -10.662 -2.586 -31.579 -2.357 -42.34 0.463 -38.539 10.1 -66.76 39.638 -73.41 76.836 -1.8 10.07 -0.849 33.913 1.712 42.933 4.568 16.09 11.832 29.02 22.64 40.32 14.493 15.14 30.904 24.269 51.64 28.713 10.14 2.173 37.36 1.342 46.815 -1.43 z"/><path d="m 239.35 104.85 c -3.931 -0.558 -11.958 -2.71 -17.837 -4.783 -21.18 -7.466 -21.21 -8.663 -0.215 -7.912 7.933 0.283 12.442 4.749 18.213 3.645 l 17.559 -3.361 c 17.542 -9.502 14.262 0.95 23.07 1.273 6.494 0.198 12.872 1.766 12.07 2.967 -14.993 9.806 -37.3 10.175 -52.863 8.172 z"/><path d="m 264.63 -8.76 c 0 -0.441 -1.628 -3.107 -3.617 -5.925 -3.11 -4.406 -5.116 11.206 -10.461 10.213 -1.741 -0.323 -1.279 -13.53 -3.54 -13.11 -2.279 0.42 -5.825 1.73 -6.528 3.762 -3.399 9.822 -12.142 9.475 -12.936 7.575 -4.529 -10.843 -8.908 -23.366 14.595 -26.494 6.777 -0.902 18.375 -2.367 18.375 -4.205 0 -0.715 2.683 -11.21 0.137 -11.424 -8.05 0.178 -7.536 10.462 -15.201 6.867 -14.816 -17.612 -2.363 -10.568 10.83 -19.488 0.614 -8.672 22.19 -1.366 23.612 -9.938 0 -2.269 2.565 -1.546 12.332 3.475 14.322 7.362 27.362 20.294 35.18 34.885 5.424 10.127 19.12 46.59 13.307 43.24 -5.228 -3.02 -6.81 -32.1 -18.57 -22.507 -3.23 2.634 0.638 2.421 1.71 8.993 3.049 18.705 -18.198 -0.424 -26.343 2.029 l -14.329 4.316 c -6.709 -3.343 -21.293 1.699 -18.551 -12.258 z m 19.977 -8.04 c 0 -6.462 -5.6 -4.656 -8.314 -6.219 -12.326 -3.654 -9.573 3.85 -6.181 10.635 12.497 1.41 14.322 1.417 14.495 -4.416 z"/><path d="m 199.36 -64.38 c 3.332 -2.202 10.784 -5.932 16.56 -8.289 20.805 -8.489 21.596 -7.605 5.227 5.844 -6.185 5.082 -12.455 4.712 -16.12 9.401 l -11.137 14.267 c -7.194 18.902 -11.401 8.803 -18.277 14.441 -5.04 4.185 -10.872 7.257 -11.03 5.812 5.07 -17.43 21.719 -32.606 34.776 -41.477 z"/></g><path d="m 131.06 170.17 c -1.948 -8.392 -0.328 -11.957 -3.534 -15.86 -3.393 -4.129 -9 -0.197 -15.433 -2.077 -9.268 -2.708 -9.673 -8.886 -9.697 -17.765 -0.01 -3.457 0.302 -6.594 0.691 -6.97 0.39 -0.376 6.536 -7.434 9.743 -6.537 4.728 1.322 15.896 -0.905 27.16 2.999 l 11.716 6.21 l 7.92 -4.937 c 2.766 -1.724 3.992 -9.709 5.904 -10.699 3.953 -2.048 0.919 3.675 13.03 11.459 3.668 2.357 5.16 7.03 5.566 9.108 0.656 3.363 0.477 3.661 -3.224 5.359 -3.823 1.754 -3.99 1.747 -6.845 -0.284 -1.61 -1.145 -6.349 -12.206 -9.82 -9.125 -0.197 0.175 6 9.664 6.102 12.866 0.172 5.489 -0.101 6.186 -4.76 12.154 -5.302 6.791 -5.462 7.313 -7.187 23.364 -6.483 19.827 -23.649 6.605 -27.332 -9.265 z" fill="#0066cb"/></svg>