<svg xmlns="http://www.w3.org/2000/svg" viewBox="0 0 256 256"><path d="m 226.22 211.58 c 62.27 -95.76 12.03 -183 -58.47 -203.69 -94.83 -27.843 -223.59 45.32 -138.75 196.1 c 33.72 59.925 152.85 75.79 197.21 7.587 z" fill="#f0ffff" color="#000"/><g transform="matrix(1.35479 0 0 1.28171 -50.03 -38.17)"><path d="m 102.62 187.02 c -0.334 -0.541 -0.339 -2.453 -0.011 -4.25 0.553 -3.03 0.268 -3.472 -3.897 -6.074 c -5.767 -3.603 -14.547 -13.09 -18.4 -19.885 -9.9 -17.454 -10.06 -39.16 -0.428 -57.09 6.291 -11.708 18.05 -22.18 30.02 -26.728 c 4.553 -1.73 5.276 -1.778 6.618 -0.436 2.273 2.273 0.99 4.03 -4.73 6.481 -28.798 12.33 -40.744 45.1 -26.631 73.06 3.365 6.665 9.308 13.658 15.352 18.06 4.61 3.36 6.24 3.553 7.1 0.842 0.349 -1.1 1.424 -2 2.388 -2 2.245 0 12.346 12.537 11.92 14.794 -0.481 2.546 -17.916 5.458 -19.297 3.223 z m 45.08 -3.569 c -2.273 -2.273 -0.99 -4.03 4.73 -6.481 28.798 -12.33 40.744 -45.1 26.631 -73.06 -3.365 -6.665 -9.308 -13.658 -15.352 -18.06 c -4.61 -3.36 -6.24 -3.553 -7.1 -0.842 c -0.349 1.1 -1.424 2 -2.388 2 -2.246 0 -12.346 -12.537 -11.918 -14.794 0.248 -1.306 2.262 -2.02 8.603 -3.048 10.447 -1.693 11.571 -1.318 10.757 3.594 -0.595 3.593 -0.436 3.864 3.858 6.555 5.762 3.612 14.541 13.11 18.386 19.885 9.9 17.454 10.06 39.16 0.428 57.09 -6.291 11.708 -18.05 22.18 -30.02 26.728 -4.553 1.73 -5.276 1.778 -6.618 0.436 z m -23.591 -18.427 c -1.085 -0.686 -1.5 -2.767 -1.5 -7.521 0 -4.755 0.415 -6.835 1.5 -7.521 2.419 -1.529 9.684 -1.152 11.429 0.593 2.145 2.145 2.145 11.712 0 13.857 -1.745 1.745 -9.01 2.121 -11.429 0.593 z m -0.29 -18.644 c -0.391 -0.391 -0.71 -3.803 -0.71 -7.583 0 -8.287 1.849 -12.377 8.498 -18.793 6.06 -5.849 7.788 -9.117 6.547 -12.383 -2.084 -5.481 -9.942 -5.972 -19.08 -1.192 -6.146 3.214 -7.961 2.39 -7.961 -3.614 0 -5.731 1.32 -7.414 7.685 -9.795 16.322 -6.107 32.21 0.337 34.02 13.795 0.836 6.235 -1.32 10.78 -8.897 18.756 -6.9 7.264 -6.966 7.387 -7.633 14.13 l -0.672 6.802 l -5.54 0.294 c -3.047 0.161 -5.859 -0.026 -6.25 -0.417 z" fill="#d5d5ae"/><path d="m 103.55 183.33 l 0.671 -3.969 l -6.895 -5.127 c -15.01 -11.161 -23.18 -27.456 -23.21 -46.27 -0.022 -15.921 5.69 -29.736 16.951 -40.997 9.197 -9.197 25.04 -17.18 25.04 -12.615 c 0 0.741 -3.487 3.066 -7.75 5.166 -31.826 15.68 -40.22 56.801 -17.11 83.8 5.478 6.398 13.764 12.01 15.547 10.534 0.722 -0.599 1.313 -1.709 1.313 -2.467 0 -3.11 3.789 -0.999 8.25 4.596 7.04 8.832 6.772 9.266 -6.613 10.628 l -6.863 0.698 l 0.671 -3.969 z m 44.556 -1.678 c 0 -0.741 3.488 -3.066 7.75 -5.166 31.826 -15.68 40.22 -56.801 17.11 -83.8 -5.478 -6.398 -13.764 -12.01 -15.547 -10.534 -0.722 0.599 -1.313 1.709 -1.313 2.467 0 3.11 -3.789 0.999 -8.25 -4.596 -7.04 -8.832 -6.772 -9.266 6.613 -10.628 l 6.863 -0.698 l -0.671 3.969 l -0.671 3.969 l 6.895 5.127 c 15.01 11.161 23.18 27.456 23.21 46.27 0.022 15.921 -5.69 29.736 -16.951 40.997 -9.197 9.197 -25.04 17.18 -25.04 12.615 z m -24.375 -18.19 c -0.901 -2.348 -0.74 -10.734 0.235 -12.272 0.56 -0.882 2.587 -1.208 6.235 -1 l 5.405 0.308 v 7 v 7 l -5.625 0.296 c -4.457 0.235 -5.755 -0.042 -6.25 -1.332 z m -0.159 -19.573 c -0.816 -2.57 0.348 -12.664 1.767 -15.321 0.566 -1.061 3.896 -4.981 7.399 -8.71 5.235 -5.574 6.369 -7.384 6.369 -10.166 0 -7.541 -9.485 -9.619 -19.787 -4.335 -2.908 1.492 -5.721 2.444 -6.25 2.117 -0.529 -0.327 -0.963 -2.843 -0.963 -5.591 v -4.996 l 5.75 -2.653 c 8.09 -3.732 18.794 -3.832 25.22 -0.234 7.946 4.449 11.348 14.615 7.428 22.2 -0.881 1.705 -4.481 6.164 -8 9.911 -6.087 6.481 -6.397 7.05 -6.397 11.769 0 7.588 -0.43 8.121 -6.54 8.121 -4.538 0 -5.425 -0.312 -5.995 -2.108 z" fill="#a0a0a0"/><path d="m 104.52 182.61 c 0.598 -3.189 0.377 -3.543 -3.728 -5.948 -9.721 -5.697 -19.489 -18.09 -23.83 -30.23 -2.647 -7.403 -3.585 -22.603 -1.898 -30.731 1.996 -9.617 8.496 -21.318 15.963 -28.738 9.315 -9.256 25.08 -17.16 25.08 -12.574 0 0.764 -3.421 3.01 -7.603 5 -9.542 4.532 -19.703 14.313 -24.273 23.366 -8.309 16.459 -8.252 34.801 0.158 50.648 3.621 6.823 13.449 17.392 18.675 20.08 3.391 1.746 3.483 1.739 4.872 -0.353 0.779 -1.173 1.923 -2.111 2.544 -2.085 1.778 0.075 9.904 10.791 9.326 12.298 -0.477 1.243 -7.554 2.624 -13.559 2.646 -2.144 0.008 -2.303 -0.304 -1.725 -3.382 z m 43.587 -0.999 c 0 -0.764 3.421 -3.01 7.603 -5 9.542 -4.532 19.703 -14.313 24.273 -23.366 8.309 -16.459 8.252 -34.801 -0.158 -50.648 -3.621 -6.823 -13.449 -17.392 -18.675 -20.08 -3.391 -1.746 -3.483 -1.739 -4.872 0.353 -0.779 1.173 -1.923 2.111 -2.544 2.085 -1.778 -0.075 -9.904 -10.791 -9.326 -12.298 0.477 -1.243 7.554 -2.624 13.559 -2.646 2.143 -0.008 2.303 0.304 1.725 3.382 -0.598 3.189 -0.377 3.543 3.728 5.948 9.721 5.697 19.489 18.09 23.83 30.23 2.647 7.403 3.585 22.603 1.898 30.731 -1.996 9.617 -8.496 21.318 -15.963 28.738 -9.315 9.256 -25.08 17.16 -25.08 12.574 z m -23.57 -18.933 c -0.302 -0.788 -0.41 -3.625 -0.24 -6.305 l 0.31 -4.873 h 5 h 5 v 6 v 6 l -4.76 0.305 c -3.423 0.219 -4.915 -0.097 -5.31 -1.127 z m 0.77 -17.878 c -1.473 -1.473 -1.548 -8.01 -0.151 -13.04 0.653 -2.352 3.617 -6.519 7.994 -11.24 7.395 -7.976 8.456 -10.936 5.453 -15.223 -3.426 -4.891 -12.09 -4.985 -20.304 -0.218 -1.819 1.056 -3.731 1.919 -4.25 1.919 -0.519 0 -0.943 -2.195 -0.943 -4.877 v -4.877 l 5.25 -2.333 c 3.937 -1.749 7.125 -2.343 12.75 -2.373 12.563 -0.068 18.945 4.755 19.791 14.954 0.546 6.581 -1.036 9.715 -9.394 18.615 -6.214 6.616 -6.397 6.965 -6.397 12.151 0 2.937 -0.54 5.88 -1.2 6.54 -1.55 1.55 -7.05 1.55 -8.6 0 z" fill="#aaa657"/><path d="m 104.53 182.54 c 0.582 -3.1 0.348 -3.61 -2.268 -4.963 c -4.915 -2.542 -14.301 -11.76 -18.368 -18.04 -3.875 -5.983 -7.096 -15.16 -8.265 -23.542 c -0.831 -5.963 0.747 -4.01 2.429 3 2.315 9.653 7.678 18.866 15.434 26.512 3.912 3.857 8.41 7.677 9.996 8.491 2.706 1.387 2.976 1.34 4.372 -0.762 0.818 -1.232 1.995 -2.219 2.616 -2.193 1.778 0.075 9.904 10.791 9.326 12.298 -0.477 1.243 -7.554 2.624 -13.559 2.646 -2.152 0.008 -2.304 -0.297 -1.713 -3.447 z m 43.574 -0.911 c 0 -0.752 2.299 -2.322 5.109 -3.49 11.15 -4.634 22.777 -15.221 28.16 -25.644 1.137 -2.2 3.089 -6.925 4.339 -10.5 2.583 -7.386 3.143 -5.309 0.895 3.32 -3.83 14.704 -14.795 27.844 -29 34.758 -6.552 3.188 -9.5 3.671 -9.5 1.554 z m -23.57 -18.955 c -0.302 -0.788 -0.41 -3.625 -0.24 -6.305 l 0.31 -4.873 h 5 h 5 v 6 v 6 l -4.76 0.305 c -3.423 0.219 -4.915 -0.097 -5.31 -1.127 z m 0.77 -17.878 c -1.473 -1.473 -1.548 -8.01 -0.151 -13.04 0.653 -2.352 3.617 -6.519 7.994 -11.24 7.395 -7.976 8.456 -10.936 5.453 -15.223 -3.426 -4.891 -12.09 -4.985 -20.304 -0.218 -1.819 1.056 -3.731 1.919 -4.25 1.919 -0.519 0 -0.943 -2.195 -0.943 -4.877 v -4.877 l 5.25 -2.333 c 3.937 -1.749 7.125 -2.343 12.75 -2.373 12.563 -0.068 18.945 4.755 19.791 14.954 0.546 6.581 -1.036 9.715 -9.394 18.615 -6.214 6.616 -6.397 6.965 -6.397 12.151 0 2.937 -0.54 5.88 -1.2 6.54 -1.55 1.55 -7.05 1.55 -8.6 0 z m 62.37 -22.05 c -0.204 -0.688 -0.937 -3.5 -1.629 -6.25 -2.363 -9.393 -7.758 -18.551 -15.326 -26.01 -3.912 -3.857 -8.41 -7.677 -9.996 -8.491 -2.706 -1.387 -2.976 -1.34 -4.372 0.762 -0.818 1.232 -1.995 2.219 -2.616 2.193 -1.778 -0.075 -9.904 -10.791 -9.326 -12.298 0.477 -1.243 7.554 -2.624 13.559 -2.646 2.152 -0.008 2.304 0.297 1.713 3.447 -0.582 3.1 -0.348 3.61 2.268 4.963 4.915 2.542 14.301 11.76 18.368 18.04 3.837 5.924 7.102 15.17 8.225 23.292 0.545 3.936 -0.017 5.874 -0.869 3 z m -111.51 -4.29 c -0.09 -3.116 2.701 -13.07 4.84 -17.262 3.096 -6.069 9.762 -14.373 14.855 -18.506 5.139 -4.17 15.674 -9.69 18.496 -9.692 3.538 -0.002 1.605 2.793 -3.359 4.856 c -11.15 4.634 -22.777 15.221 -28.16 25.644 c -1.137 2.2 -3.089 6.925 -4.339 10.5 -1.25 3.575 -2.299 5.582 -2.331 4.46 z" fill="#d25832"/><path d="m 104.53 182.54 c 0.582 -3.1 0.348 -3.61 -2.268 -4.963 c -4.915 -2.542 -14.301 -11.76 -18.368 -18.04 -3.875 -5.983 -7.096 -15.16 -8.265 -23.542 c -0.831 -5.963 0.747 -4.01 2.429 3 2.315 9.653 7.678 18.866 15.434 26.512 3.912 3.857 8.41 7.677 9.996 8.491 2.706 1.387 2.976 1.34 4.372 -0.762 0.818 -1.232 1.995 -2.219 2.616 -2.193 1.778 0.075 9.904 10.791 9.326 12.298 -0.477 1.243 -7.554 2.624 -13.559 2.646 -2.152 0.008 -2.304 -0.297 -1.713 -3.447 z m 20 -19.867 c -0.302 -0.788 -0.41 -3.625 -0.24 -6.305 l 0.31 -4.873 h 5 h 5 v 6 v 6 l -4.76 0.305 c -3.423 0.219 -4.915 -0.097 -5.31 -1.127 z m 0.77 -17.878 c -1.473 -1.473 -1.548 -8.01 -0.151 -13.04 0.653 -2.352 3.617 -6.519 7.994 -11.24 7.395 -7.976 8.456 -10.936 5.453 -15.223 -3.426 -4.891 -12.09 -4.985 -20.304 -0.218 -1.819 1.056 -3.731 1.919 -4.25 1.919 -0.519 0 -0.943 -2.195 -0.943 -4.877 v -4.877 l 5.25 -2.333 c 3.937 -1.749 7.125 -2.343 12.75 -2.373 12.563 -0.068 18.945 4.755 19.791 14.954 0.546 6.581 -1.036 9.715 -9.394 18.615 -6.214 6.616 -6.397 6.965 -6.397 12.151 0 2.937 -0.54 5.88 -1.2 6.54 -1.55 1.55 -7.05 1.55 -8.6 0 z m 62.37 -22.05 c -0.204 -0.688 -0.937 -3.5 -1.629 -6.25 -2.363 -9.393 -7.758 -18.551 -15.326 -26.01 -3.912 -3.857 -8.41 -7.677 -9.996 -8.491 -2.706 -1.387 -2.976 -1.34 -4.372 0.762 -0.818 1.232 -1.995 2.219 -2.616 2.193 -1.778 -0.075 -9.904 -10.791 -9.326 -12.298 0.477 -1.243 7.554 -2.624 13.559 -2.646 2.152 -0.008 2.304 0.297 1.713 3.447 -0.582 3.1 -0.348 3.61 2.268 4.963 4.915 2.542 14.301 11.76 18.368 18.04 3.837 5.924 7.102 15.17 8.225 23.292 0.545 3.936 -0.017 5.874 -0.869 3 z" fill="#59cd32"/><path d="m 104.41 183.25 c 0.96 -4.788 4.577 -12.252 5.913 -12.203 1.887 0.07 10.09 10.711 9.483 12.298 -0.477 1.244 -7.555 2.624 -13.573 2.646 -2.059 0.008 -2.302 -0.357 -1.823 -2.741 z m 20.13 -20.572 c -0.302 -0.788 -0.41 -3.625 -0.24 -6.305 l 0.31 -4.873 h 5 h 5 v 6 v 6 l -4.76 0.305 c -3.423 0.219 -4.915 -0.097 -5.31 -1.127 z m 0.77 -17.878 c -1.473 -1.473 -1.548 -8.01 -0.151 -13.04 0.653 -2.352 3.617 -6.519 7.994 -11.24 7.395 -7.976 8.456 -10.936 5.453 -15.223 -3.426 -4.891 -12.09 -4.985 -20.304 -0.218 -1.819 1.056 -3.731 1.919 -4.25 1.919 -0.519 0 -0.943 -2.195 -0.943 -4.877 v -4.877 l 5.25 -2.333 c 3.937 -1.749 7.125 -2.343 12.75 -2.373 12.563 -0.068 18.945 4.755 19.791 14.954 0.546 6.581 -1.036 9.715 -9.394 18.615 -6.214 6.616 -6.397 6.965 -6.397 12.151 0 2.937 -0.54 5.88 -1.2 6.54 -1.55 1.55 -7.05 1.55 -8.6 0 z m 22.941 -65.34 c -2.397 -2.996 -4.125 -6.06 -3.839 -6.803 0.477 -1.244 7.555 -2.624 13.573 -2.646 2.059 -0.007 2.302 0.357 1.823 2.741 -0.96 4.788 -4.577 12.252 -5.913 12.203 -0.707 -0.026 -3.247 -2.499 -5.644 -5.495 z" fill="#5d5d5d"/><path d="m 105.44 183.57 c 0.365 -0.951 0.68 -2.705 0.7 -3.898 0.02 -1.193 1.078 -3.442 2.351 -4.998 l 2.315 -2.83 l 4.179 5.249 c 2.299 2.887 3.828 5.592 3.399 6.01 -0.429 0.419 -3.667 1.085 -7.194 1.478 -5.828 0.651 -6.353 0.558 -5.75 -1.013 z m 20.33 -21.233 c -0.367 -0.367 -0.667 -2.842 -0.667 -5.5 v -4.833 h 4.5 h 4.5 v 5.5 v 5.5 h -3.833 c -2.108 0 -4.133 -0.3 -4.5 -0.667 z m 1.083 -18.413 c -1.092 -0.636 -1.748 -2.222 -1.744 -4.22 0.011 -6.463 2.081 -11.11 7.435 -16.7 6.913 -7.214 8.559 -9.811 8.559 -13.5 0 -8.769 -10.383 -11.917 -21.16 -6.417 -5.166 2.636 -5.836 2.447 -5.836 -1.64 0 -3.276 0.375 -3.725 4.75 -5.694 6.629 -2.984 18.332 -3.082 23.25 -0.195 5.03 2.956 8 7.836 8 13.143 0 5.624 -1.614 8.611 -8 14.802 -6.508 6.31 -8 9.169 -8 15.334 0 4.27 -0.302 5.01 -2.25 5.536 -2.868 0.769 -2.915 0.764 -5 -0.45 z m 22.368 -65.01 c -2.299 -2.887 -3.828 -5.592 -3.399 -6.01 0.429 -0.419 3.667 -1.085 7.194 -1.478 5.828 -0.651 6.353 -0.558 5.75 1.013 -0.365 0.951 -0.68 2.705 -0.7 3.898 -0.02 1.193 -1.078 3.442 -2.351 4.998 l -2.315 2.83 l -4.179 -5.249 z" fill="#0d0e0d"/></g></svg>