<svg xmlns="http://www.w3.org/2000/svg" viewBox="0 0 256 256"><g color="#000" fill="#efd0ce"><path d="m -1363.8 1650.47 c 92.76 -229.28 -405.65 -114.61 -172.57 42.475 46.699 31.473 147.56 19.349 172.57 -42.475 z" transform="matrix(-1.03665 0 0 1.35742 -1401.71 -2064.79)"/></g><g transform="matrix(1.37192 0 0 1.39931 -308.87 79.04)"><path d="m 286.21 90.65 c -4.219 -2.519 -11.225 -7.842 -11.694 -8.884 -0.177 -0.394 -1.401 -2.307 -2.72 -4.25 -2.253 -3.32 -2.282 -3.533 -0.476 -3.533 1.152 0 3.16 1.8 5.01 4.492 3.557 5.17 5.884 6.03 13.769 5.106 9.768 -1.148 10.677 -3.544 2.685 -7.078 -3.053 -1.35 -6.707 -3.364 -8.121 -4.476 -1.696 -1.334 -3.373 -1.82 -4.931 -1.429 -2.356 0.591 -5.59 -1.394 -11.193 -6.871 -2.754 -2.693 -7.676 -12.06 -8.639 -16.448 -1.179 -5.369 4.177 -13.605 13.866 -21.322 3.09 -2.461 7.39 -6.997 9.556 -10.08 3.931 -5.595 7.684 -14.555 6.566 -15.674 -0.583 -0.583 -5.02 -2.334 -11.248 -4.441 -2.619 -0.886 -3.678 -0.765 -5.87 0.672 -1.471 0.964 -2.898 2.607 -3.171 3.651 -0.794 3.036 -3.263 2.291 -3.263 -0.984 0 -3.843 6.892 -10.819 11.553 -11.694 1.856 -0.348 3.896 -1.261 4.533 -2.029 1.545 -1.862 4.199 -1.76 13.268 0.506 8.579 2.144 15.09 6.527 17.201 11.578 0.714 1.709 1.616 5.916 2 9.348 0.882 7.796 3.267 11.173 7.89 11.173 3.657 0 5.311 -1.461 6.441 -5.686 1.104 -4.129 3.544 -3.589 3.915 0.867 0.379 4.554 -3.641 11.426 -7.553 12.913 -1.47 0.559 -3.816 2.283 -5.213 3.832 -1.397 1.549 -5.69 5.206 -9.54 8.128 -6.198 4.703 -7.661 5.362 -12.766 5.75 -3.171 0.241 -5.978 0.782 -6.238 1.202 -0.26 0.42 2.56 1.085 6.266 1.478 3.706 0.393 8.538 1.338 10.738 2.101 2.2 0.763 6.972 1.393 10.604 1.401 5.657 0.013 6.988 -0.341 9.282 -2.467 2.677 -2.481 6.614 -4.962 6.614 -4.168 0 0.231 -0.644 1.663 -1.432 3.181 -2.684 5.174 -8.962 10.729 -15.377 13.607 -5.34 2.396 -7.704 2.861 -14.534 2.856 -4.486 -0.003 -9.897 -0.489 -12.02 -1.079 -4.369 -1.213 -7.753 -0.653 -10.07 1.667 -2.369 2.369 -1.104 3.233 3.907 2.669 5.513 -0.621 9.56 0.942 12.408 4.795 1.188 1.606 3.447 3.587 5.02 4.4 1.574 0.814 3.151 2.236 3.506 3.161 0.734 1.913 -1.947 5.392 -4.154 5.392 -0.792 0 -2.635 0.645 -4.095 1.434 -1.46 0.789 -4 1.757 -5.654 2.152 l -3 0.718 l 2.767 1.047 c 1.522 0.576 2.612 1.52 2.423 2.098 -0.605 1.849 -5.076 1.452 -8.818 -0.782 z m -0.621 -44.29 c 4.214 -0.705 5.092 -2.372 1.25 -2.372 -3.295 0 -3.172 -1.982 0.33 -5.337 2.681 -2.568 20.502 -9.63 24.361 -9.653 2.781 -0.017 2.999 -1.743 0.529 -4.2 -4.94 -4.913 -5.219 -5.752 -5.247 -15.799 -0.032 -11.464 -1.413 -14.534 -7.01 -15.584 -1.955 -0.367 -3.803 -0.418 -4.107 -0.114 -0.304 0.304 0.002 2.236 0.681 4.292 1.61 4.878 0.574 18.834 -1.783 24.03 -2.344 5.165 -7.839 12.994 -9.593 13.667 -1.839 0.706 -7.659 9.342 -7.659 11.366 0 1.141 0.612 1.399 2.25 0.949 1.238 -0.339 3.938 -0.899 6 -1.244 z m 19.75 44.708 c 0 -0.506 1.331 -1.213 2.958 -1.57 3.577 -0.786 9.05 -6.728 9.02 -9.794 -0.012 -1.218 -0.912 -4.177 -2 -6.574 -2.58 -5.686 -2.505 -7.141 0.367 -7.141 2.87 0 5.263 2.504 6.211 6.5 0.392 1.65 1.34 3.725 2.106 4.61 1.045 1.206 1.142 2.272 0.39 4.25 -0.552 1.452 -1.465 2.64 -2.028 2.64 -0.564 0 -1.025 0.686 -1.025 1.525 0 0.839 -1.238 1.991 -2.75 2.561 -1.512 0.57 -4.057 1.684 -5.654 2.475 -3.268 1.619 -7.596 1.915 -7.596 0.518 z m 36.2 -15.228 c -2.712 -1.737 -3.249 -2.653 -3 -5.12 0.178 -1.764 1.227 -3.614 2.541 -4.482 2.435 -1.608 2.484 -1.556 3.67 3.89 1.114 5.116 5.341 4.464 11.32 -1.745 4.072 -4.229 6.272 -9.444 6.272 -14.868 0 -6.533 -1.651 -9.85 -6.895 -13.849 -4.354 -3.321 -5.424 -3.678 -11 -3.678 -6.04 0 -12.999 2.407 -14.644 5.068 -1.156 1.87 -9.435 4.932 -13.291 4.916 -4.964 -0.021 -7 -1.374 -5.586 -3.706 1.728 -2.842 17.303 -14.09 21.286 -15.37 1.998 -0.643 4.242 -1.654 4.986 -2.247 0.744 -0.593 5.469 -1.25 10.5 -1.461 8.495 -0.356 9.494 -0.187 14.02 2.365 4.03 2.271 5.299 3.718 7.311 8.341 1.339 3.076 2.857 6.375 3.373 7.33 1.425 2.635 1.136 10.355 -0.436 11.66 -0.756 0.628 -1.951 3.199 -2.656 5.714 -0.704 2.515 -2.79 6.379 -4.635 8.587 -1.845 2.208 -3.687 4.583 -4.094 5.278 -1.237 2.111 -8.954 5.525 -12.45 5.507 -1.809 -0.009 -4.776 -0.969 -6.593 -2.132 z m -20.2 -11.692 c 0 -0.463 2.208 -2.043 4.907 -3.512 6.311 -3.435 10.82 -8.609 11.656 -13.376 1.049 -5.98 2.961 -8.271 6.901 -8.271 1.88 0 3.701 0.459 4.048 1.019 0.589 0.953 -1.958 9.48 -4.487 15.02 -1.371 3 -7.139 7 -12.525 8.681 -4.59 1.431 -10.5 1.676 -10.5 0.436 z m 21.597 -45.854 c -0.316 -0.996 -0.97 -5.706 -1.452 -10.466 -0.956 -9.427 -3.297 -14.185 -7.827 -15.908 -3.456 -1.314 -3.803 -1.234 -7.239 1.657 -2.526 2.126 -3.178 2.317 -3.656 1.073 -1.243 -3.239 0.19 -6.086 4.632 -9.204 2.505 -1.758 5.43 -3.464 6.5 -3.79 3.335 -1.017 10.644 3.474 13.945 8.57 1.65 2.547 4.227 5.084 5.728 5.638 3.344 1.235 5.657 3.419 9.118 8.609 3.943 5.914 3.42 14.518 -0.881 14.518 -0.681 0 -1.102 -1.678 -1.05 -4.19 0.073 -3.553 -0.325 -4.424 -2.619 -5.73 -2.582 -1.47 -2.841 -1.41 -5.697 1.326 -1.799 1.723 -3.113 4.108 -3.295 5.98 -0.247 2.535 -0.799 3.171 -2.967 3.422 -1.869 0.216 -2.836 -0.233 -3.239 -1.504 z m 8.403 -13.927 c 0 -1.262 -0.305 -1.369 -1.373 -0.483 -0.755 0.627 -2.105 0.859 -3 0.515 -0.899 -0.345 -1.627 -0.129 -1.627 0.483 0 0.609 1.35 1.107 3 1.107 2.101 0 3 -0.486 3 -1.622 z" fill="#dc817c"/><path d="m 286.68 91.26 c -0.559 -0.336 -2.772 -2.085 -3.826 -2.085 -1.054 0 -2.797 -0.852 -4.548 -2.777 -1.752 -1.925 -0.774 -0.379 -2.342 -1.511 -0.814 -0.587 -2.941 -2.415 -3.282 -3.377 -0.341 -0.963 -2.01 -2.873 -2.809 -3.804 -0.798 -0.931 1.682 -4.046 1.905 -4.713 0.222 -0.667 2.107 1.107 4.188 3.942 l 3.784 5.154 h 7.804 c 6.35 0 8.244 -0.373 10.165 -2 l 2.361 -2 l -2.361 -2 c -1.298 -1.1 -3.01 -2 -3.8 -2 -0.791 0 -2.852 -0.731 -4.579 -1.624 -8.06 -4.168 -7.825 -9.239 0.363 -7.855 3.144 0.531 5.309 1.751 7.858 4.428 1.935 2.032 4.756 4.46 6.268 5.396 3.758 2.325 3.549 5.108 -0.5 6.651 -1.788 0.681 -4.6 1.816 -6.25 2.523 -1.65 0.706 -3.863 1.441 -4.917 1.633 -2.98 0.542 -2.904 2.337 0.15 3.543 l 2.767 1.093 l -0.478 1.915 c -0.352 1.411 -6.105 0.561 -7.92 -0.532 z m 22.71 -2.853 c 0.722 -0.289 7.302 -5.859 6.712 -1.187 0.332 0.332 -6.898 4 -7.768 2.514 -1.165 -0.048 0.258 -1.01 1.056 -1.327 z m 4.891 -3.785 c 0.988 -1.358 2.134 -2.483 2.547 -2.5 1.337 -0.056 0.781 -8.449 -0.756 -11.396 -1.996 -3.827 -1.883 -5.636 0.351 -5.636 4.481 0 7.179 8.749 4.926 15.971 -0.929 2.976 -1.994 4.26 -4.159 5.01 -4.361 1.52 -4.883 1.259 -2.909 -1.454 z m 29.12 -10.563 c -4.487 -2.37 -5.685 -5.357 -3.235 -8.06 2.385 -2.636 3.813 -1.932 4.413 2.175 0.434 2.969 0.912 3.461 3.62 3.724 2.553 0.248 3.896 -0.48 7.381 -4 5.39 -5.445 7 -9.258 6.985 -16.522 -0.019 -8.254 -0.588 -9.573 -5.815 -13.502 -7.371 -5.54 -17.791 -6.04 -24.476 -1.184 -6.863 4.99 -10.679 6.517 -15.508 6.206 -3.334 -0.215 -4.687 -0.729 -4.687 -1.781 0 -2.524 16.762 -14.299 24.06 -16.905 16.306 -5.819 31.436 -0.978 34.02 10.884 0.3 1.375 1.19 3.694 1.979 5.154 2.02 3.732 1.801 6.05 -1.066 11.442 -1.375 2.586 -2.5 5.486 -2.5 6.444 0 0.958 -1.8 3.92 -4 6.583 -2.2 2.662 -4 5.179 -4 5.592 0 1.086 -9.607 5.793 -11.717 5.741 -0.981 -0.024 -3.439 -0.919 -5.462 -1.987 z m -69.48 -8.396 c -4.833 -3.447 -6.06 -4.926 -9.318 -11.2 -6.635 -12.788 -5.251 -16.336 12.666 -32.486 5.824 -5.249 9.851 -11.163 12.468 -18.311 1.988 -5.429 1.285 -7.547 -2.524 -7.611 -1.17 -0.019 -3.253 -0.679 -4.628 -1.465 -1.375 -0.786 -4.174 -1.445 -6.22 -1.465 -2.997 -0.029 -4.152 0.549 -5.943 2.971 -3.118 4.218 -4.743 2.195 -1.913 -2.383 4.053 -6.559 12.26 -9.853 13.427 -5.391 0.463 1.77 1.946 2.158 2.923 1.181 0.959 -0.959 -0.141 -1.68 -1.074 -2.614 -1.701 -1.701 -1.5 -2.569 0.891 -3.849 1.43 -0.765 2.931 -0.81 4.75 -0.14 1.463 0.538 5.306 1.522 8.542 2.185 10.705 2.195 16.618 10.03 16.618 22.02 0 7.7 8.213 12.768 12.975 8.01 1.086 -1.086 2.26 -3.111 2.608 -4.5 0.721 -2.871 1.916 -3.273 2.81 -0.944 1.083 2.821 0.656 4.631 -2.143 9.08 -2.064 3.284 -3.685 4.629 -6.5 5.393 -2.063 0.56 -3.779 1.564 -3.815 2.23 -0.073 1.358 -2.688 3.717 -11.36 10.249 -5.91 4.452 -5.945 4.463 -14.25 4.463 -6.307 0 -8.325 -0.326 -8.325 -1.345 0 -3.197 9.104 -7.813 22 -11.155 3.565 -0.924 6.799 -1.876 7.188 -2.116 0.389 -0.24 -1.352 -2.495 -3.868 -5.01 l -4.574 -4.574 l 0.509 -7.115 c 0.677 -9.456 -1.242 -16.11 -5.242 -18.18 -3.316 -1.715 -5.857 -1.891 -7.973 -0.552 -1.252 0.792 -1.201 1.21 0.36 2.935 2.605 2.879 2.442 16.9 -0.277 23.799 -2.198 5.575 -7.79 14.312 -9.162 14.312 -0.494 0 -2.741 2.495 -4.994 5.545 -4.554 6.165 -4.888 9.21 -0.936 8.531 6.616 -1.136 25.671 -0.347 30.25 1.253 2.632 0.919 6.809 1.671 9.282 1.671 4.884 0 11.433 -2.262 11.433 -3.949 0 -0.578 0.45 -1.051 1 -1.051 3.03 0 -1.725 6.706 -7.683 10.835 -4.179 2.896 -14.549 6.165 -19.555 6.165 -2.187 0 -7.13 -0.761 -10.984 -1.691 -6.225 -1.503 -7.301 -1.527 -9.643 -0.219 -1.984 1.109 -2.713 2.392 -2.946 5.191 -0.367 4.398 -2.052 4.716 -6.853 1.291 z m 53.11 -5.788 c 7.708 -5.983 9.683 -8.437 11.844 -14.71 1.817 -5.276 2.72 -6.593 5.05 -7.362 4.158 -1.374 5.406 0.291 3.779 5.04 -3.887 11.339 -4.298 12.03 -8.961 15.05 -2.803 1.814 -6.644 3.262 -9.655 3.642 l -5 0.63 l 2.943 -2.285 z m 16.654 -45.934 c -0.604 -1.732 -1.098 -5.602 -1.098 -8.599 0 -6.197 -2.098 -11.398 -5.762 -14.279 -3.283 -2.582 -8.399 -2.558 -10.76 0.051 -2.208 2.44 -4 1.179 -3.133 -2.2 0.553 -2.147 2.844 -3.894 9.877 -7.533 2.418 -1.251 3.199 -1.194 7 0.515 4.715 2.12 7.792 5.128 9.908 9.687 0.957 2.062 2.306 3.151 4.34 3.503 2.054 0.356 4.094 2.024 6.711 5.487 4.449 5.887 5.351 9.124 3.648 13.09 l -1.254 2.924 l -0.346 -3.724 c -0.341 -3.659 -3.875 -7.776 -6.677 -7.776 -2.053 0 -6.492 5.447 -7.159 8.786 -0.859 4.295 -3.808 4.331 -5.295 0.065 z m 8.719 -12.209 c 0.365 -3.048 -0.418 -3.313 -2.969 -1 -1.692 1.532 -1.866 1.485 -2.68 -0.713 l -0.87 -2.351 l -1.282 2.396 c -1.132 2.115 -1.027 2.603 0.9 4.163 2.931 2.373 6.471 1.095 6.901 -2.491 z" fill="#c51018"/></g></svg>