<svg xmlns="http://www.w3.org/2000/svg" viewBox="0 0 256 256"><defs><clipPath><path transform="matrix(15.33333 0 0 11.5 415 -125.5)" d="m -24 13 c 0 1.105 -0.672 2 -1.5 2 -0.828 0 -1.5 -0.895 -1.5 -2 0 -1.105 0.672 -2 1.5 -2 0.828 0 1.5 0.895 1.5 2 z"/></clipPath></defs><path d="m 291.82 921.19 c 200.11 265.25 -350.59 302.94 -173.86 32.17 40.29 -61.728 120.86 -102.43 173.86 -32.17 z" transform="translate(-80.27 -882.59)" fill="#221b15" color="#000"/><path d="m 93.36 135.74 c -5.086 -1.083 -11.12 -4.186 -12.827 -6.598 -1.935 -2.732 -2.101 -4.667 -0.641 -7.484 1.236 -2.384 1.298 -3.177 1.255 -15.883 -0.025 -7.355 -0.215 -16.654 -0.421 -20.664 -0.322 -6.255 -0.507 -7.251 -1.308 -7.01 -0.513 0.156 -2.379 0.465 -4.145 0.687 l -3.212 0.404 l -0.721 -3.443 c -0.396 -1.893 -0.721 -5.125 -0.721 -7.182 0 -2.328 -0.22 -3.588 -0.583 -3.339 -0.32 0.22 -0.583 1.052 -0.583 1.85 0 1.749 -1.021 3 -2.447 3 -0.577 0 -1.049 0.291 -1.049 0.647 0 0.356 -0.524 0.647 -1.165 0.647 -1.796 0 -1.432 -0.793 2.075 -4.508 2.671 -2.831 3.209 -3.76 3.064 -5.296 -0.134 -1.414 0.19 -2.133 1.343 -2.983 5.094 -3.759 6.141 -4.608 6.853 -5.561 0.811 -1.085 3.311 -1.461 3.658 -0.55 0.603 1.578 4.667 3.709 11.412 5.981 2.375 0.8 4.393 0.431 2.12 -0.388 -1.782 -0.642 -3.874 -1.656 -6.05 -2.933 -1.535 -0.899 -2 -1.559 -1.887 -2.667 0.334 -3.222 0.452 -3.286 5.247 -2.828 11.655 1.114 14.701 1.189 15.574 0.385 1.01 -0.931 1.149 -1.941 0.268 -1.941 -0.602 0 -3.767 -2.304 -4.913 -3.575 -1.357 -1.506 -3.193 -4.813 -3.55 -6.393 -0.21 -0.929 -0.615 -1.848 -0.9 -2.044 -0.285 -0.196 -0.518 -1.153 -0.518 -2.129 0 -0.975 -0.24 -2.05 -0.533 -2.388 -0.293 -0.338 -0.621 -1.342 -0.728 -2.232 -0.183 -1.521 -0.428 -1.629 -4.128 -1.809 -2.163 -0.105 -3.933 -0.411 -3.933 -0.679 0 -1.309 1.713 -2.041 4.777 -2.041 3.3 0 3.379 -0.042 3.37 -1.779 -0.014 -2.814 2.947 -8.446 6.163 -11.721 3.218 -3.277 11.679 -8.295 14.237 -8.445 0.481 -0.028 2.447 -0.377 4.369 -0.775 6.417 -1.329 22.339 -0.339 22.915 1.424 0.107 0.327 0.689 0.594 1.293 0.594 2.112 0 11.332 6.599 13.308 9.525 0.667 0.988 1.412 2.087 1.656 2.443 0.244 0.356 0.802 1.52 1.239 2.588 0.438 1.067 1.028 2.446 1.311 3.064 0.283 0.618 0.515 1.564 0.515 2.102 0 0.751 0.719 0.979 3.088 0.979 2.81 0 4.486 0.762 4.486 2.041 0 0.268 -1.746 0.574 -3.879 0.679 -4.14 0.204 -3.973 0.046 -4.621 4.396 -0.532 3.573 -1.721 5.939 -4.427 8.807 -3.02 3.203 -5.799 4.778 -8.427 4.778 -1.072 0 -1.95 0.166 -1.95 0.37 0 0.702 1.667 2.218 2.44 2.218 0.426 0 1.127 0.625 1.556 1.389 0.757 1.347 1.013 1.375 8.442 0.924 12.608 -0.764 12.613 -0.764 12.613 0.792 0 0.64 0.293 1.49 0.651 1.888 0.48 0.533 0.327 0.948 -0.583 1.579 -1.885 1.307 -1.473 2.032 0.877 1.543 2.468 -0.514 4.175 -1.501 5.45 -3.152 0.882 -1.142 0.952 -1.137 2.01 0.162 0.603 0.74 1.408 1.345 1.79 1.345 0.381 0 1.168 0.582 1.748 1.294 0.58 0.712 1.361 1.294 1.737 1.294 1.232 0 3.216 2.958 3.216 4.795 0 1.341 0.743 2.542 2.913 4.708 1.602 1.599 2.913 3.318 2.913 3.819 0 1 -1.777 1.236 -2.651 0.347 -0.304 -0.31 -1.247 -0.744 -2.095 -0.966 -1.691 -0.441 -2.245 0.371 -2.245 3.286 0 0.908 -0.31 2.8 -0.689 4.205 -0.623 2.308 -0.833 2.513 -2.185 2.125 -0.823 -0.236 -2.479 -0.581 -3.68 -0.768 l -2.185 -0.339 v 20.505 c 0 19.526 0.056 20.584 1.165 22.15 0.683 0.965 1.165 2.624 1.165 4.01 0 1.893 -0.439 2.836 -2.185 4.693 -3.971 4.225 -9.223 6.146 -18.497 6.766 -9.388 0.628 -19.239 -2.034 -23.933 -6.467 -2.204 -2.082 -2.468 -2.16 -7.528 -2.225 -5.01 -0.065 -5.321 0.014 -6.991 1.783 -2.328 2.464 -5.915 4.456 -10.03 5.567 -5.134 1.387 -15.421 1.686 -20.539 0.596 z m 77.76 -78.59 c 0.198 -0.356 0.098 -0.647 -0.223 -0.647 -0.32 0 -0.745 0.291 -0.943 0.647 -0.198 0.356 -0.098 0.647 0.223 0.647 0.32 0 0.745 -0.291 0.943 -0.647 z m -48.06 -18.455 c 0.481 -0.45 1.389 -0.923 2.02 -1.052 1.734 -0.353 2.48 -3.944 1.251 -6.03 l -0.966 -1.638 h -9.532 c -9.469 0 -9.539 0.011 -10.466 1.582 -1.432 2.428 -0.479 4.127 3.704 6.598 3.578 2.114 3.843 2.17 8.406 1.768 2.591 -0.228 5.105 -0.783 5.585 -1.233 z m 30.16 -0.308 c 1.049 -0.71 2.172 -2.063 2.495 -3.01 0.487 -1.424 0.369 -1.972 -0.699 -3.234 -0.707 -0.836 -1.712 -1.52 -2.233 -1.52 -0.521 0 -1.215 -0.297 -1.541 -0.66 -0.81 -0.899 -14.513 0.25 -15.668 1.314 -0.901 0.831 -1.164 4.311 -0.421 5.568 0.719 1.215 7.169 2.739 11.789 2.786 3.391 0.034 4.797 -0.245 6.277 -1.247 z" transform="translate(-0.889 67.6)" fill="#fff" stroke="#fff" stroke-width="0.921"/></svg>