<svg xmlns="http://www.w3.org/2000/svg" viewBox="0 0 256 256"><path d="m 194.63 225.66 c 239.31 -267.87 -312.28 -307.46 -164.23 -43.757 33.751 60.12 107.81 104.14 164.23 43.757 z" fill="#91d2fc" color="#000"/><g transform="matrix(0.75841 0 0 0.73604 33.784 38.828)"><path d="m 100.22 213.63 c -13.733 -14.07 -28.13 -27.926 -32 -30.795 -7.713 -5.723 -18.493 -16.715 -23.432 -23.894 -4.976 -7.233 -11.889 -22.392 -14.202 -31.14 -3.18 -12.03 -3.686 -32.11 -1.123 -44.505 4.284 -20.709 12.01 -34.775 27.726 -50.5 11.318 -11.322 19.466 -16.888 32.33 -22.08 c 23.447 -9.471 50.89 -9.471 74.34 0 12.866 5.197 21.01 10.762 32.33 22.08 15.719 15.724 23.442 29.79 27.726 50.5 2.558 12.364 2.057 32.508 -1.103 44.36 -2.364 8.865 -9.3 24.14 -14.192 31.25 -4.829 7.02 -16.583 19.04 -23.426 23.969 -3.302 2.376 -17.701 16.05 -31.997 30.375 -14.296 14.33 -26.446 26.03 -27 26.01 -0.554 -0.025 -12.244 -11.555 -25.977 -25.623 z m 54.3 -84.84 c 6.789 -7.428 9.513 -14.578 9.538 -25.04 0.016 -6.893 -0.414 -8.96 -3.02 -14.5 -13.193 -28.06 -51.984 -28.759 -65.56 -1.179 -3.02 6.131 -3.287 7.455 -3.287 16.197 0 8.171 0.37 10.309 2.606 15.08 2.619 5.585 9.627 13.943 11.691 13.943 1.041 0 7.185 -8.86 12.266 -17.687 l 2.278 -3.958 l -5.67 -9.167 c -5.787 -9.356 -6.59 -11.868 -4.47 -13.988 2.928 -2.928 5.709 -1.362 10.3 5.8 2.468 3.85 4.933 7 5.478 7 0.545 0 2.84 -2.927 5.099 -6.504 4.276 -6.771 7.602 -8.837 10.436 -6.485 2.419 2.01 1.782 4.199 -4.01 13.812 -3.03 5.02 -5.5 9.437 -5.5 9.82 0 0.383 3.037 5.565 6.75 11.514 4.127 6.613 7.391 10.822 8.4 10.83 0.907 0.007 3.913 -2.463 6.679 -5.49 z" fill="#54adf6"/><path d="m 86.31 199.92 c -21.383 -21.52 -39.833 -40.719 -41 -42.665 -3.371 -5.315 -7.65 -10.265 -9.415 -16.267 -6.578 -23.22 -6.486 -22.685 -6.547 -37.695 -0.047 -11.71 0.362 -16.188 2.128 -23.274 8.775 -35.22 34.456 -61.704 69.73 -71.915 6.985 -2.02 10.168 -2.311 25.482 -2.311 15.314 0 18.497 0.289 25.482 2.311 35.27 10.211 60.955 36.696 69.73 71.915 1.766 7.086 2.175 11.564 2.128 23.274 -0.06 15.01 0.032 14.478 -6.547 37.695 -2.082 6.92 -6.924 12.317 -10.737 17.885 -3.69 5.4 -79.18 80.51 -80.7 80.3 -0.473 -0.068 -18.356 -17.73 -39.739 -39.25 z m 73.01 -45.915 c 2.051 0.682 18.03 -13.402 20.769 -18.312 10.514 -18.812 11.227 -39.946 1.997 -59.21 -4.592 -9.582 -16.648 -22.06 -26.08 -27 -17.936 -9.389 -40.692 -9.389 -58.63 0 -9.435 4.939 -21.492 17.42 -26.08 27 -9.23 19.262 -8.517 40.4 1.997 59.21 2.676 4.788 18.697 19 20.675 18.342 29.826 10.04 36.2 11.404 65.36 -0.03 z" fill="#178efd"/><path d="m 98.97 216.31 c -14.692 -14.175 -35.916 -35.28 -47.17 -46.908 l -20.454 -21.13 l -0.746 -13.333 c -0.41 -7.333 -0.582 -15.06 -0.381 -17.16 l 0.365 -3.829 l 29.743 22.579 c 16.359 12.418 30.363 22.579 31.12 22.579 1.199 0 27.654 -38.508 29.627 -43.13 0.496 -1.161 -1.166 -4.668 -5.075 -10.707 -6.399 -9.886 -7.249 -13.17 -3.409 -13.162 1.828 0.004 3.612 1.801 7.448 7.5 2.774 4.122 5.525 7.495 6.113 7.495 0.588 0 3.367 -3.263 6.175 -7.25 3.447 -4.894 5.887 -7.354 7.51 -7.57 3.683 -0.489 3.082 3.098 -1.711 10.211 -2.263 3.359 -4.925 7.579 -5.915 9.378 l -1.8 3.269 l 14.61 21.98 c 8.04 12.09 15.227 21.981 15.982 21.981 0.754 0 14.752 -10.18 31.11 -22.623 34.405 -26.18 30.956 -25.877 29.727 -2.581 l -0.754 14.296 l -20.455 21.19 c -17.319 17.943 -72.48 71.7 -74.35 72.46 -0.329 0.133 -12.619 -11.357 -27.31 -25.532 z" fill="#555556"/><path d="m 123.77 235.54 c -5.02 -4.621 -8.618 -8.436 -12.537 -13.729 4.196 -6.387 7.958 -10.849 13.741 -18.04 3.643 3.044 15.722 17.216 15.308 19.02 -7.536 7.999 -9.376 9.163 -13.232 12.749 -2.146 1.388 -2.624 1.755 -3.281 0 z" fill="#221b15" stroke="#696969" stroke-width="0.275"/></g></svg>