<svg xmlns="http://www.w3.org/2000/svg" viewBox="0 0 256 256"><path d="m 255.2 109.49 c 2.674 -24.668 -5.437 -57.49 -20.07 -75.04 -19.534 -23.429 -60.59 -31.3 -100.79 -32.27 -28.863 -0.696 -67.68 6.626 -87.61 16.524 c -16.955 8.422 -29.19 21.17 -36.08 37.584 -9.333 22.253 -10.145 44.28 -2.45 66.41 12.366 47.16 41.704 79.62 68.04 105.64 66.992 58.37 101.53 6.318 139.26 -39.708 18.66 -21.03 30.1 -44.934 39.699 -79.14 z" fill="#789"/><path d="m 124.95 204.95 c -1.769 -2.802 -5.362 -9.357 -7.986 -14.567 l -4.77 -9.473 l -27.523 -0.983 l -22.593 -0.279 v -20.882 c 0 -25 -3.151 -21.547 9.507 -21.899 5.879 -0.164 13.821 -0.605 14.832 -0.993 1.352 -0.519 -3.721 -13.04 -16.79 -39.37 -9.771 -19.685 -17.932 -36.977 -18.14 -38.426 -0.493 -3.512 3.763 -4.377 22.398 -4.553 9.381 -0.088 15.932 0.468 18.04 1.533 2.237 1.132 6.873 8.369 14.359 22.414 11.53 21.632 7.841 22.14 17.577 25.14 4.866 1.5 15.74 -0.796 17.971 -3.262 1.088 -1.202 6.844 -12.328 12.44 -22.614 5.596 -10.287 11.412 -19.758 12.924 -21.05 2.307 -1.966 5.479 -2.341 19.678 -2.326 17.981 0.019 22.965 0.704 22.937 3.151 -0.009 0.835 -8.161 18.05 -18.11 38.25 -9.953 20.2 -18.205 40.04 -17.634 40.572 0.571 0.53 5.658 0.054 10.602 0.349 4.944 0.295 10.319 0.427 10.89 0.998 1.391 1.391 0.255 31.43 0.583 40.847 0.13 3.745 -4.892 1.331 -6.327 1.899 -1.254 0.496 -8.934 0.381 -20.583 0.798 l -21.18 0.759 l -4.752 9.436 c -6.821 13.544 -10.897 19.623 -13.158 19.623 -1.086 0 -3.422 -2.292 -5.191 -5.094 z" fill="#bababa" fill-opacity="0.995"/><g><path d="m 135.35 139.37 c -3.449 -2.478 0.396 -6.676 -4.536 -7.481 -2.715 -2.465 -1.918 -3.674 -4.998 -4.913 -2.975 -1.467 -5.567 -3.218 -8.177 -5.189 -2.683 -1.902 -2.681 -5.309 -5.559 -4.416 -0.335 0.219 -1.156 1.331 -1.824 2.471 -2.137 3.645 -2.981 7.525 -7.275 7.837 -1.256 0.091 -6.151 0.714 -8.03 0.978 -5.114 0.716 -3.846 -3.045 -5.02 -6.126 -0.378 -0.996 -1.238 -2.703 -1.912 -3.793 -0.965 -3.483 -4.749 -6.533 -4.782 -9.701 v -1.178 l 1.704 -2.184 c 1.6 -2.052 14.959 -0.387 16.703 -0.644 5.507 -2.132 10.254 -0.159 15.542 -2.054 -0.138 -2.698 7.352 -0.138 8.701 2.646 l -1.644 1.885 c -2.777 3.184 -3.539 4.511 -3.657 6.364 0.091 2.493 2.596 4.805 5.156 4.475 1.682 -0.226 3.886 -2.696 6.179 -5.432 0.848 -1.012 2.247 -0.796 3.551 0.316 0.543 0.463 2.101 0.845 3.057 1.256 2.048 0.88 3.048 2.5 6.481 4.869 3.291 2.271 6.395 3.853 7.79 4.256 1.426 0.412 1.56 3.082 1.446 3.873 -0.046 0.318 -1.863 1.71 -2.212 1.875 -0.349 0.166 -1.405 0.218 -1.278 3.046 -1.701 0.502 -2.88 -0.911 -4.114 0.168 0.426 2.609 -0.732 2.437 -2.709 3.745 -0.707 0.47 -3.086 -0.703 -3.548 0.414 -1.438 3.475 -4.138 2.903 -5.03 2.638 z" fill="#fff"/><path d="m 163.36 126.46 c -3.747 -0.193 -4.991 -0.628 -7.11 -2.489 -3.757 -2.787 -8.191 -4.79 -11.442 -6.888 -6.659 -4.313 -11.531 -6.854 -13.146 -6.854 -0.374 0 -3.423 5.03 -5.354 6.501 -1.931 1.474 -3.199 -0.611 -3.427 -0.98 -1.875 -1.88 1.971 -7.775 4.252 -9.269 0.985 -0.645 6.499 -2.557 9.208 -2.827 2.709 -0.27 5.883 -0.647 6.649 -1.04 6.168 2.963 15 3.967 22.907 4.542 6.478 0.368 12.13 1.021 12.558 1.449 0.529 0.529 0.328 1.469 -0.626 2.925 -0.773 1.18 -2.719 4.732 -4.323 7.895 -1.605 3.162 -3.522 6.091 -4.26 6.509 -0.738 0.418 -3.386 0.655 -5.884 0.526 z"/><path d="m 123.86 141.01 c 0 -1.663 -3.922 -4.739 -6.04 -4.739 -0.831 0 -2.247 -1.034 -3.146 -2.297 -0.9 -1.264 -2.248 -2.297 -2.997 -2.297 -0.748 0 -1.97 -0.674 -2.715 -1.497 -1.299 -1.436 -1.287 -1.584 0.297 -3.638 0.908 -1.177 2.293 -2.999 3.077 -4.049 1.39 -1.861 1.464 -1.873 2.977 -0.504 2.073 1.876 8.08 5.222 11.07 6.164 2.074 7.07 3.715 0.704 4.955 7.602 -1.208 2.937 -3.587 6.636 -5.364 6.639 -1.524 0.002 -2.106 -0.381 -2.106 -1.385 z"/></g><g fill="#c00"><path d="m 123.18 189.72 c -3.291 -6.83 -5.984 -12.839 -5.984 -13.353 0 -0.514 5.75 -0.935 12.777 -0.935 7.03 0 12.777 0.421 12.777 0.935 0 1.677 -11.946 25.771 -12.777 25.771 -0.445 0 -3.502 -5.588 -6.793 -12.418 z"/><path d="m 72.52 84.37 c -5.249 -10.592 -9.544 -20.03 -9.544 -20.979 c 0 -1.196 3.622 -1.383 11.869 -1.288 l 12.732 0.146 c 1.24 6.162 23.355 37.569 20.729 40.18 -0.957 0.631 -10.374 1.158 -16.01 1.171 l -10.239 0.023 l -9.544 -19.257 z"/><path d="m 91.82 141.89 c 0.373 -3.455 -0.708 -7.777 0.446 -11.641 0.866 -0.583 2.056 0.259 10.243 -1.73 3.01 -0.722 4.262 -0.327 5.768 1.824 1.121 1.371 9.1 6.747 9.682 6.763 2.695 0 5.482 2.519 5.482 4.955 0 2.656 -30.6 2.491 -31.622 -0.17 z"/><path d="m 129.76 141.53 c 0.546 -1.424 1.074 -1.674 1.409 -0.67 0.295 0.884 6.677 -0.982 9.261 -0.982 2.393 0 6.352 -1.854 7.889 -5.172 1.596 -3.447 5.01 -4.01 8.628 -6.743 1.242 -0.939 2.641 -1.068 3.712 -0.405 4.02 1.902 8.338 -0.965 8.383 1.099 0.005 2.165 -2.399 13.584 -3.233 14.13 -0.833 0.541 -9.482 0.993 -19.219 1 -16.11 0.019 -17.625 -0.184 -16.83 -2.256 z"/><path d="m 154.95 105.22 c -5.665 -0.511 -6.144 -0.821 -3.875 -2.501 1.424 -1.055 7.01 -10.654 12.402 -21.33 l 9.812 -19.412 l 12.366 -0.439 c 14.785 -0.524 14.678 -2.131 1.565 23.582 -4.805 9.421 -8.736 18.05 -8.736 19.17 0 2.059 -7.669 2.362 -23.535 0.931 z"/></g><g fill-opacity="0.995"><rect width="124.73" height="31.594" x="65.859" y="142.66" rx="0.561" ry="0.55" fill="#fff"/><path d="m 72.64 159.42 v -10.524 l 2.923 0.103 l 2.923 0.103 l 4.647 5.665 l 4.647 5.665 l 0.098 -5.754 l 0.098 -5.754 h 2.841 h 2.841 v 10.509 v 10.509 l -2.583 -0.003 l -2.583 -0.003 l -4.809 -5.904 l -4.809 -5.904 l -0.098 5.907 l -0.098 5.907 h -3.02 h -3.02 v -10.524 z"/><path d="m 100.91 169.28 c -1.074 -0.353 -2.332 -0.859 -2.795 -1.123 l -0.842 -0.481 l 1.145 -1.52 l 1.145 -1.52 l 1.749 0.685 c 2.676 1.048 5.356 1.279 6.175 0.531 0.985 -0.9 0.253 -1.468 -3.01 -2.341 -1.53 -0.409 -3.423 -1.124 -4.208 -1.589 -3.684 -2.183 -2.397 -6.972 2.249 -8.373 1.997 -0.602 6.564 -0.269 8.815 0.643 l 1.84 0.745 l -1.01 1.65 c -0.759 1.241 -1.167 1.588 -1.645 1.401 -1.878 -0.734 -4.773 -1.288 -5.663 -1.083 -1.69 0.387 -1.311 1.491 0.738 2.149 0.965 0.31 2.588 0.831 3.607 1.158 1.019 0.327 2.422 1.112 3.119 1.746 1.043 0.948 1.267 1.425 1.266 2.701 -0.002 2.08 -1.165 3.737 -3.223 4.591 -2.178 0.904 -6.754 0.919 -9.45 0.031 z"/><path d="m 123.06 170.11 c -2.665 -1.014 -4.646 -2.845 -6.165 -5.694 -1.305 -2.449 -1.362 -6.26 -0.134 -9.01 1.07 -2.393 3.703 -4.787 6.372 -5.794 2.963 -1.117 7.348 -0.888 9.932 0.52 1.014 0.553 2.264 1.442 2.776 1.977 l 0.931 0.972 l -2.029 1.532 c -1.646 1.242 -2.136 1.455 -2.598 1.127 -5.096 -3.631 -10.229 -1.445 -10.15 4.325 0.031 2.319 0.652 3.441 2.667 4.824 1.773 1.216 4.76 0.976 6.64 -0.535 l 1.348 -1.083 l 2.214 1.488 l 2.214 1.488 l -1.326 1.272 c -2.314 2.219 -4.089 2.895 -7.917 3.01 -2.358 0.073 -3.807 -0.056 -4.777 -0.425 z"/><path d="m 141.36 159.75 v -10.544 l 6.323 0.131 c 6.083 0.126 6.409 0.17 8.571 1.161 1.433 0.657 2.759 1.612 3.658 2.634 4.03 4.579 2.858 12.174 -2.35 15.226 -2.612 1.531 -4.823 1.928 -10.77 1.932 l -5.433 0.004 v -10.544 z m 12.11 4.897 c 1.686 -0.904 2.545 -2.17 2.759 -4.067 0.249 -2.212 -0.426 -4 -1.952 -5.163 -1.111 -0.848 -1.668 -0.992 -4.246 -1.101 l -2.967 -0.126 v 5.558 v 5.558 h 2.588 c 1.839 0 2.945 -0.191 3.818 -0.66 z"/><path d="m 166.65 160.15 v -10.509 h 8.906 h 8.906 v 2.316 v 2.316 h -5.878 h -5.878 v 1.781 v 1.781 h 5.344 h 5.344 v 2.138 v 2.137 h -5.344 h -5.344 v 1.959 v 1.959 h 6.06 h 6.06 v 2.316 v 2.316 h -9.08 h -9.08 v -10.509 z"/></g></svg>