<svg xmlns="http://www.w3.org/2000/svg" xmlns:xlink="http://www.w3.org/1999/xlink" viewBox="0 0 256 256"><defs><path d="m 245.46 129.52 l -97.89 -96.9 c -5.556 -5.502 -16.222 -11.873 -23.7 -14.16 l -39.518 -12.08 c -7.479 -2.286 -18.1 0.391 -23.599 5.948 l -13.441 13.578 c -5.5 5.559 -14.502 14.653 -20 20.21 l -13.44 13.579 c -5.5 5.558 -8.07 16.206 -5.706 23.658 l 12.483 39.39 c 2.363 7.456 8.843 18.06 14.399 23.556 l 97.89 96.9 c 5.558 5.502 14.605 5.455 20.1 -0.101 l 36.26 -36.63 c 5.504 -5.559 14.503 -14.651 20 -20.21 l 36.26 -36.629 c 5.502 -5.56 5.455 -14.606 -0.101 -20.11 z m -178.09 -50.74 c -7.198 0 -13.03 -5.835 -13.03 -13.03 0 -7.197 5.835 -13.03 13.03 -13.03 7.197 0 13.03 5.835 13.03 13.03 -0.001 7.198 -5.836 13.03 -13.03 13.03 z" id="0"/><use id="1" xlink:href="#0"/><clipPath id="2"><use xlink:href="#0"/></clipPath><clipPath clip-path="url(#2)"><use xlink:href="#1"/></clipPath><clipPath clip-path="url(#2)"><use xlink:href="#1"/></clipPath></defs><g fill="#cbcbcb" color="#000"><path d="M 212.32,840.15 C 342.21,945 152.05,1134.27 37.11,1013.36 -78.08,909.3 101.7,707.34 212.32,840.15 z" transform="matrix(0 0.99342 -1 0 1052.37 1.685)"/></g><g fill="#6e6e6e" transform="matrix(0.98182 0 0 0.91638 0.239 7.235)"><path d="m 59.659 131.98 l 0.218 -44.36 l 2.526 -0.711 c 1.389 -0.391 3.726 -0.502 5.192 -0.246 3.048 0.532 2.273 -1.298 14.707 34.725 3.876 11.229 7.331 20.418 7.678 20.42 0.347 0.002 0.632 -4.292 0.632 -9.543 0 -5.251 0.25 -17.567 0.555 -27.367 l 0.555 -17.819 h 4.918 h 4.918 v 44.67 v 44.67 l -5.243 -0.251 l -5.243 -0.251 l -9.609 -27.578 c -5.285 -15.168 -9.876 -27.578 -10.202 -27.578 -0.647 0 -1.696 27.687 -1.7 44.84 l -0.002 10.736 h -5.06 h -5.06 l 0.218 -44.36 z"/><path d="m 121.16 176.36 c -6.466 -1.536 -9.03 -5.739 -8.504 -13.919 l 0.273 -4.21 l 5.263 -0.251 l 5.263 -0.251 l 0.013 3.619 c 0.019 5.215 0.893 6.145 5.781 6.145 2.294 0 4.487 -0.315 4.873 -0.699 1.239 -1.235 1.299 -24.302 0.069 -26.668 -0.843 -1.622 -2.869 -2.695 -8.822 -4.675 -13.488 -4.485 -14.04 -5.569 -13.536 -26.435 0.226 -9.316 0.765 -16.341 1.335 -17.4 2.039 -3.785 4.862 -4.715 14.498 -4.775 10.152 -0.064 13.779 0.954 15.518 4.354 1.564 3.057 2.414 8.829 1.748 11.863 -0.543 2.474 -0.694 2.544 -5.435 2.544 h -4.876 l -0.435 -3.863 c -0.239 -2.124 -0.842 -4.269 -1.338 -4.765 -0.974 -0.974 -8.315 -1.149 -9.247 -0.221 -1.126 1.121 -1.086 24.317 0.045 26.446 0.785 1.477 3.045 2.7 8.427 4.558 4.045 1.397 8.592 3.573 10.1 4.835 l 2.751 2.295 l 0.255 17.998 l 0.255 17.998 l -2.541 2.435 c -3.544 3.395 -14.06 4.867 -21.737 3.043 z"/><path d="m 156 169.39 c -0.297 -3.821 -0.543 -23.922 -0.546 -44.67 l -0.005 -37.723 l 5.11 0.251 l 5.11 0.251 l 5.259 13.246 c 2.892 7.285 5.54 13.527 5.883 13.87 0.95 0.95 1.772 -0.787 6.96 -14.695 l 4.79 -12.841 h 4.917 h 4.917 v 44.629 v 44.629 h -4.918 h -4.918 l -0.555 -19.08 c -0.305 -10.495 -0.555 -23.736 -0.555 -29.423 0 -5.687 -0.327 -10.542 -0.726 -10.789 -0.399 -0.247 -2.574 5.604 -4.832 13 -2.258 7.398 -4.329 13.451 -4.602 13.451 -0.273 0 -2.533 -6.158 -5.02 -13.684 l -4.526 -13.684 l -0.598 4.21 c -0.329 2.316 -0.631 15.263 -0.671 28.772 -0.041 13.509 -0.304 25.16 -0.585 25.893 -0.376 0.98 -1.677 1.332 -4.928 1.332 h -4.416 l -0.541 -6.947 z"/></g></svg>