<svg xmlns="http://www.w3.org/2000/svg" viewBox="0 0 256 256"><path d="m 3.25 158.22 c 49.981 237.66 393.86 -17.477 187.29 -138.28 -80.25 -51.781 -213 16.05 -187.29 138.28 z" fill="#ff8c00" color="#000"/><path d="m 130.31 199.38 c -23.22 -5.919 -43.28 -5.871 -53.866 -18.688 -51.45 -75.07 94.53 -118.15 95.62 -78.48 c -0.746 35.3 19.221 51.18 -2.221 70.06 -20.931 18.43 -17.11 32.821 -39.532 27.1 z" fill="#ff9694" stroke="#ff9694" stroke-width="3.227"/><g transform="matrix(0.61107 0 0 0.58036 6.502 23.24)"><path d="m 132.62 118.14 l 0.428 -5.834 c 3.39 -0.389 6.963 -0.383 10.225 -1.332 0.443 -0.274 1.018 -2.063 1.278 -3.975 0.26 -1.912 0.652 -3.657 0.872 -3.878 6.794 -0.725 12.02 -0.643 19.303 -0.794 l 0.193 19.02 c 1.219 17.665 -7.02 15.588 -31.872 14.677 -0.434 -5.95 -0.844 -11.835 -0.427 -17.889 z" transform="matrix(1.63648 0 0 1.72306 -4.103 -37.3)" fill="#fff" stroke="#fff" stroke-width="1.222"/><g fill="#a9a9a9" stroke="#a9a9a9"><path stroke-width="3.597" d="m 235.06 175.41 h 11.601 v 21.87 h -11.601 z"/><path stroke-width="3.624" d="m 251.07 156.46 h 13.744 v 18.738 h -13.744 z"/></g><g stroke="#000"><path d="m 89.02 199.02 c 0 -6.985 -0.188 -7.201 -6.689 -7.71 l -5.534 -0.433 v -4.519 v -4.519 l 10.848 0.167 l 10.848 0.167 l 0.181 4.278 c 0.122 2.895 0.525 4.731 1.244 5.679 l 1.063 1.401 l 25.8 -0.038 l 25.8 -0.038 v 4.901 v 4.901 h -31.781 h -31.781 v -4.238 z" transform="matrix(1.63648 0 0 1.72306 -4.103 -37.3)" stroke-width="1.222"/><path d="m 246.72 292.51 c -0.347 -1.384 -0.638 -5.422 -0.646 -8.974 -0.014 -5.897 -0.248 -6.553 -2.7 -7.548 -1.477 -0.6 -9.672 -1.091 -18.21 -1.091 -17.67 0 -16.795 0.52 -16.795 -9.988 v -6.451 l 9.584 -0.727 c 5.271 -0.4 16.46 -0.739 24.866 -0.753 15.942 -0.028 22.835 -1.028 24.318 -3.527 0.483 -0.813 0.885 -5.127 0.894 -9.586 l 0.015 -8.107 h 8.376 c 12.454 0 12.564 -0.186 12.564 -21.247 v -16.774 h 6.282 h 6.282 v 27.28 v 27.28 l -7.35 0.788 c -8.82 0.946 -9.402 1.73 -9.402 12.666 v 7.783 l -9.446 0.799 c -11.193 0.946 -11.493 1.28 -11.493 12.785 v 7.901 h -8.254 c -7.674 0 -8.298 -0.177 -8.885 -2.516 z" stroke-width="2.164"/><path d="m 196 254.39 c -0.839 -3.297 -0.752 -11.596 0.137 -13.07 1.131 -1.872 7.72 -2.83 10.129 -1.472 1.852 1.044 2.106 2.133 2.106 9.05 v 7.861 h -5.884 c -5.257 0 -5.949 -0.253 -6.487 -2.369 z" stroke-width="2.053"/><path d="m 145.37 144.46 c -1.092 -1.092 -0.901 -5.123 0.298 -6.323 0.788 -0.788 1.698 -0.953 3.853 -0.698 4.252 0.504 4.508 0.141 4.877 -6.904 0.232 -4.436 0.57 -6.32 1.202 -6.711 0.484 -0.299 2.712 -0.389 4.951 -0.202 5.847 0.49 6.087 0.041 6.09 -11.416 0.002 -4.883 0.183 -12.01 0.404 -15.844 l 0.401 -6.965 l 9.05 0.348 c 4.979 0.191 9.335 0.523 9.68 0.736 0.346 0.214 0.628 2.533 0.628 5.154 v 4.766 l -4.395 0.408 c -2.417 0.225 -4.549 0.562 -4.737 0.749 -0.188 0.187 -0.43 7.854 -0.537 17.04 -0.225 19.16 0.443 17.405 -6.645 17.42 -4.58 0.01 -5.751 1.114 -5.239 4.936 0.54 4.03 0.033 4.24 -10.181 4.24 -6.162 0 -9.2 -0.23 -9.704 -0.733 z" transform="matrix(1.63648 0 0 1.72306 -4.103 -37.3)" stroke-width="1.222"/><path d="m 300.79 117.67 c -0.361 -0.513 -0.657 -4.586 -0.657 -9.05 0 -10.128 0.947 -11.02 11.764 -11.02 h 7.95 v 10.499 v 10.499 h -9.2 c -5.06 0 -9.496 -0.42 -9.857 -0.933 z" stroke-width="2.349"/></g><path d="m 117.58 252.66 c -3.109 -3.38 -16.673 2.78 -14.202 0.032 6.986 -30.15 0.551 -34.64 -19.852 -37.94 -0.027 -0.737 -0.027 -12.714 -0.001 -26.615 0.026 -13.901 -0.355 -27.05 -0.846 -29.22 -0.635 -2.805 -0.562 -3.969 0.251 -4.02 20.423 2.518 28.04 -11.04 19.613 -33.699 -0.98 -1.928 -0.642 -2.037 6.346 -2.037 9.317 0 10.692 -1.272 10.692 -9.893 0 -3.323 -0.466 -6.958 -1.035 -8.08 -1.01 -1.98 -0.512 -2.037 17.781 -2.037 23.24 0 23.262 -0.008 23.262 -10.38 0 -4.119 -0.504 -7.632 -1.2 -8.365 -0.934 -0.983 -0.878 -1.27 0.25 -1.291 39.544 -1.61 78.06 -15.522 108.72 0.059 0.625 0.339 -1.745 7.251 -1.75 9.567 0 11.85 -0.608 11.462 17.979 11.462 9.04 0 16.16 -0.435 16.5 -1.01 0.325 -0.554 1.24 -0.745 2.034 -0.424 1.25 0.505 1.246 0.79 -0.032 2.135 -1.019 1.073 -1.475 3.835 -1.475 8.944 v 7.391 l -8.752 -0.651 c -4.813 -0.358 -12.24 -0.924 -16.503 -1.257 l -7.751 -0.606 l -0.015 3.01 c -0.011 2.307 -0.236 2.638 -0.964 1.426 -1.293 -2.153 -33.2 -2.349 -35.22 -0.216 -0.764 0.805 -1.44 4.736 -1.65 9.601 l -0.355 8.238 l -8.945 0.537 c -4.92 0.295 -9.243 0.85 -9.607 1.234 -0.364 0.383 -0.847 3.77 -1.075 7.526 l -0.413 6.83 l -16.635 -0.288 l -16.635 -0.288 l -0.599 -6.599 c -0.33 -3.629 -0.93 -6.946 -1.334 -7.372 -0.95 -0.999 -14.284 -0.897 -15.247 0.116 -0.403 0.424 -0.914 3.767 -1.135 7.428 l -0.403 6.656 l -8.557 0.636 c -4.706 0.35 -9.05 1.151 -9.644 1.781 -1.244 1.309 -1.565 41.43 -0.342 42.72 0.41 0.432 4.686 1.148 9.502 1.593 4.816 0.444 8.869 0.841 9.01 0.882 0.138 0.041 0.25 2.647 0.25 5.792 0 6.943 1.618 9.03 7.01 9.03 2.125 0 5.02 0.462 6.43 1.027 2.332 0.933 2.566 1.564 2.566 6.914 0 8.545 -0.837 9.614 -8.233 10.509 -3.448 0.417 -6.6 1.294 -7 1.949 -0.404 0.654 -0.742 4.061 -0.75 7.57 -0.024 9.892 0.375 9.692 -21.27 10.672 -17.426 0.789 -18.754 0.721 -18.753 -0.973 z" fill="#636100" stroke="#636100" stroke-width="2.053"/><g stroke="#000"><path d="m 101.62 65.999 c -0.506 -3.762 -0.371 -6.717 -0.371 -10.646 h 31.781 h 31.781 c -0.205 3.52 0.509 7.64 -0.733 10.879 -0.551 0.551 -8.365 0.733 -31.41 0.733 -27.409 0 -30.716 -0.103 -31.05 -0.967 z" transform="matrix(1.63648 0 0 1.72306 -4.103 -37.3)" stroke-width="1.222"/><path d="m 122.39 97.16 c -1.026 -7.04 -0.706 -12.541 -0.706 -20.06 h 18.07 c 10.429 0 18.931 0.538 20.11 1.272 1.669 1.036 2.048 2.611 2.048 8.511 0 11.06 -0.081 11.1 -21.07 11.1 -9.759 0 -18.06 -0.369 -18.45 -0.819 z" stroke-width="2.281"/><path d="m 104.39 120.07 c -1.348 -7.721 -0.926 -13.803 -0.926 -22.08 h 11.945 c 9.767 0 7.493 1.492 7.493 11.982 0 8.694 -2.301 11 -10.975 11 -3.636 0 -7.03 -0.406 -7.537 -0.901 z" stroke-width="2.74"/><path d="m 86.19 153.45 c -0.866 -11.763 -0.606 -20.806 -0.606 -33.22 4.296 0.601 14.907 -1.812 16.935 2.112 1.31 2.678 1.357 26.302 0.06 30.03 -0.924 2.66 -1.348 2.801 -8.378 2.801 -5.831 0 -7.533 -0.367 -8.01 -1.727 z" stroke-width="2.088"/><path d="m 83.76 152.62 c -4.778 0.548 -10.159 0.11 -14.604 1.859 0.062 19.991 -3.346 40.671 -0.212 60.51 4.939 0 9.877 0 14.816 0 0 -20.79 0 -41.581 0 -62.37 z" stroke-width="2.158"/><path d="m 86.58 216.21 c 1.167 -2.116 13.381 -2.268 15.195 -0.189 1.304 1.494 3.436 34.18 2.426 37.19 -6.227 3.153 -10.479 1.806 -18.596 1.806 1.119 -13.11 -1.99 -25.733 0.975 -38.808 z" stroke-width="2.133"/><path d="m 105.78 265.73 c 0.011 -4.673 -2.569 -11.74 -2 -12.563 4.636 -2.348 11.902 0.224 17.266 -0.361 0 7.14 0 14.28 0 21.419 -5.095 0 -10.19 0 -15.284 0 0.006 -2.959 0.014 -5.963 0.019 -8.496 z" stroke-width="2.443"/><path d="m 265.79 96.67 c -0.788 -4.803 -3.183 -15.664 0.974 -18.302 1.178 -0.709 9.234 -1.26 18.41 -1.26 h 16.315 v 9.03 c 0 15.702 4.29 14.813 -17.946 12.885 -15.283 -1.325 -16.719 -0.184 -17.752 -2.355 z" stroke-width="2.297"/></g></g></svg>