<svg xmlns="http://www.w3.org/2000/svg" viewBox="0 0 256 256"><path d="m 67.6 22.915 c 326.22 -134.67 172.95 431.73 -40.08 156.7 -37.11 -49.34 -39.968 -132.2 40.08 -156.7 z" fill="#008080" color="#000"/><path d="m 95.91 256.86 c -23.909 -2.615 -44.486 -21.867 -47.545 -44.48 -2.58 -19.07 6.418 -39.15 22.329 -49.825 9.687 -6.501 17.352 -8.902 28.65 -8.976 25.955 -0.169 43.23 16.583 45.767 44.38 0.421 4.62 0.216 7.84 -0.633 9.929 -2.38 5.855 -3.346 5.997 -40.776 5.997 h -34.01 l 0.653 2.654 c 1.734 7.04 9.04 14.422 18.952 19.16 9.45 3.194 20.1 5.05 28.462 0.242 2.454 -1.432 5.454 -4.451 7.236 -7.281 3.603 -5.723 5.25 -6.772 10.63 -6.772 7.995 0.197 10.323 8.906 8.06 14.284 -6.412 14.774 -25.674 23.12 -47.784 20.699 z m 27.955 -63.23 c -0.017 -3.931 -4.447 -12.12 -8.643 -15.975 -4.865 -4.469 -7.365 -5.275 -16.369 -5.275 -8.347 0 -16.08 3.418 -21.456 9.485 -4.03 4.549 -7.828 11.648 -6.978 13.05 0.353 0.582 11.08 0.966 27.02 0.966 h 26.435 l -0.01 -2.25 z m -94.68 -40.749 c -11.712 -1.789 -24.675 -9.647 -31.815 -19.284 -8.707 -11.754 -12.535 -24.756 -11.436 -38.85 c 2.184 -28.01 24.334 -49.867 50.54 -49.867 13.918 0 24.495 4.672 35.15 15.528 13.542 13.794 18.796 32.522 14.425 51.42 -4.932 21.327 -21.91 37.75 -42.33 40.948 -7.665 1.2 -7.381 1.198 -14.53 0.106 z m 19.491 -21.839 c 12.163 -6.637 19.831 -24.795 16.769 -39.711 -2.428 -11.825 -7.973 -19.769 -17.13 -24.535 -6.616 -3.444 -17.368 -3.322 -24.1 0.274 -5.974 3.19 -11.69 9.393 -14.455 15.686 -3.119 7.098 -3.449 19.834 -0.727 28.04 6.694 20.18 23.778 28.9 39.641 20.245 z m -20.992 -14.412 c -12.658 -6.517 -12.9 -24.15 -0.432 -31.525 c 5.616 -3.324 14.452 -2.791 19.561 1.181 5.116 3.977 7.385 8.208 7.39 13.779 0.006 8.175 -2.995 13.244 -10.01 16.912 -4.883 2.552 -11.127 2.421 -16.504 -0.347 z m 102.09 31.964 c -3.759 -1.938 -4.775 -6.097 -2.312 -9.466 1.941 -2.655 2.389 -2.765 13.191 -3.248 l 11.182 -0.5 l 0.263 -23.25 l 0.263 -23.25 h -9.404 c -8.92 0 -12.781 -0.911 -14.411 -3.4 -1.392 -2.125 -0.73 -6.621 1.275 -8.665 1.914 -1.951 2.941 -2.048 18.596 -1.75 11.929 0.227 16.927 0.679 17.843 1.613 0.96 0.979 1.394 8.36 1.764 30 l 0.491 28.702 l 10.63 0.5 c 9.05 0.426 10.837 0.788 12.02 2.441 2.072 2.895 1.686 6.348 -1.019 9.104 l -2.408 2.455 l -27.764 -0.015 c -20.316 -0.011 -28.417 -0.352 -30.2 -1.271 z m 22.442 -85.21 c -3.557 -1.97 -5.338 -6.721 -4.213 -11.238 1.885 -7.572 11.494 -10.215 17.13 -4.712 2.346 2.29 2.892 3.656 2.892 7.235 0 8.196 -8.393 12.822 -15.809 8.714 z" fill="#f3f3f4" transform="matrix(0.62814 0 0 0.60254 72.938 43.593)"/></svg>