<svg xmlns="http://www.w3.org/2000/svg" viewBox="0 0 256 256"><g fill="#f0f8ff" color="#000"><path d="M 237.33,858.53 C 43.92,633.19 -142.06,1096.51 157.07,1048.9 222.66,1038.462 289.45,919.25 237.33,858.53 z" transform="matrix(0.98619 0 0 0.98965 0.884 -786.35)"/></g><path fill="#696969" stroke="#696969" stroke-width="2.207" d="m 95.88 95.35 h 1.723 v 109.05 h -1.723 z"/><g transform="translate(-11.242 9.22)"><path fill="#f00" d="m 70.46 127.64 h 138 v 4.188 h -138 z"/><path d="m 113.96 155.03 c 10.669 -8.442 20.938 -14.13 31.686 -19.573 l 11.926 -8.02 l 2.071 -4.837 c 6.094 -14.233 7.226 -16.729 12.956 -23.21 0.845 -0.956 -4.308 -6.767 -3.992 -7.23 4.536 -1.255 17.18 -4.539 21.847 -5.208 -0.301 5.516 -0.796 18.739 -0.899 19.99 0.318 5.561 -0.077 6.418 -4.308 2.248 -3.218 -0.201 -3.505 0.232 -8.616 13.04 -5.279 13.227 -4.232 11.804 -12.03 16.335 -15.452 8.975 -44.588 25.05 -45.38 25.04 -2.172 -2.733 -2.962 -5.706 -5.256 -8.565 z" transform="translate(6.598 4.713)" fill="#3382e5" stroke="#3382e5" stroke-width="1.151"/><path fill="#696969" d="m 70.914 172.34 h 137.82 v 3.761 h -137.82 z"/><path d="m 70.16 190.15 c -0.327 -7.393 -0.237 -13.11 -0.237 -20.807 3.283 -4.971 6.575 -9.936 9.853 -14.91 0.05 -0.08 1.654 1.326 3.564 3.124 3.646 3.432 5.676 4.702 6.897 4.315 9.778 -13.649 13.722 -26.42 21.773 -39.11 l 0.979 -1.51 c 1.03 2.699 3.754 6.266 3.125 9.09 -2.548 6.415 -9.987 17.65 -12.05 21.448 -1.292 1.192 -1.59 2.193 -1.395 2.971 5.476 3.824 2.478 8.08 0.641 11.446 -4.638 8.966 -9.207 18.234 -10.214 18.892 -1.546 1.499 -1.886 1.338 -5.362 -2.546 -2.603 -2.909 -4.097 -4.01 -5.439 -4.01 -1.025 0 -2.719 1.972 -5.271 6.137 -2.331 3.804 -4.801 6.716 -5.949 7.02 -0.546 0.143 -0.718 -0.151 -0.911 -1.556 z" transform="translate(6.598 4.713)" fill="#3382e5" stroke="#3382e5" stroke-width="1.151"/><path d="m 92.07 177.72 c 0 -0.921 2.757 -5.629 6.126 -10.463 l 6.126 -8.788 l 3.444 3.28 l 3.444 3.28 l -3.999 4.053 c -5.03 5.098 -15.14 10.867 -15.14 8.639 z"/><path d="m 203.26 62.56 c 2.409 2.347 2.114 5.487 -0.87 9.266 l -2.539 3.214 l -4.151 -4.221 l -4.151 -4.221 l 3.472 -2.817 c 4.046 -3.282 5.849 -3.55 8.238 -1.222 z" fill="#ffa500"/><path d="m 105.49 166.2 c -4.566 -2.137 -5.284 -4.14 -2.845 -7.942 3.091 -4.82 85.8 -89.86 87.39 -89.86 0.787 0 4.89 4.87 5.717 5.711 3.902 3.966 4.898 1.953 -27.887 36.668 -18.605 21.787 -36.633 36.02 -53.828 54.21 -2.01 3.858 -6.137 2.337 -8.552 1.218 z" fill="#ffd700"/></g><path d="m 81.52 93.3 c -2.255 -0.579 -6.04 -2.341 -8.251 -3.842 -1.684 -1.143 -3.78 -3.447 -4.527 -4.978 -0.95 -2.395 -0.849 -5.01 0.098 -6.952 0.974 -1.98 2.785 -3.915 4.268 -4.561 1.024 -0.446 1.509 -0.504 4.234 -0.504 3.833 0 4.792 0.335 6.567 2.297 2.87 3.172 4.02 7.04 1.791 10.773 -2.75 4.611 -0.42 3.989 -0.403 5.977 0.017 1.918 -1.044 1.686 -1.641 1.817 -0.752 0.294 -1.492 0.102 -2.137 -0.026 z m -2.515 -7.817 c 1.193 -0.457 1.846 -2.497 1.496 -4.671 -0.553 -3.434 -2.79 -5.086 -4.662 -3.442 -1.703 1.496 -2.345 5.05 -1.259 6.969 0.824 1.458 2.483 1.887 4.424 1.144 z"/><path d="m 90.22 87.16 c -0.358 -1.934 -0.312 -7.437 0.069 -8.349 0.363 -0.87 1.105 -1.116 2.66 -0.883 1.379 0.207 1.577 0.601 1.767 3.506 0.236 3.622 0.832 5.166 1.995 5.166 1.223 0 1.917 -1.724 2.24 -5.567 0.246 -2.924 0.355 -3.068 2.357 -3.096 2.115 -0.03 2.305 0.257 2.296 3.466 -0.009 3.595 -0.369 7.914 -0.73 8.779 -0.379 0.907 -1.03 1.177 -3.346 1.387 -4.931 0.915 -8.399 0.392 -9.308 -4.409 z"/><path d="m 110.91 91.2 c -2.221 -0.874 -4.875 -4.386 -4.875 -6.451 0 -1.845 2.35 -5.23 4.29 -6.179 1.092 -0.534 1.486 -0.605 3.365 -0.602 2.654 0.004 3.953 0.425 5.362 1.737 1.94 1.228 1.81 3.595 1.783 5.7 -0.049 2.216 -1.501 4.312 -3.755 5.422 -1.921 0.946 -4.34 1.092 -6.17 0.372 z m 3.664 -4.946 c 1.615 -1.131 0.629 -3.385 -1.481 -3.385 -0.846 0 -1.342 0.691 -1.342 1.869 0 1.264 0.486 1.869 1.502 1.869 0.45 0 1.044 -0.158 1.32 -0.352 z"/><path d="m 127.48 91.33 c -1.95 -0.695 -2.713 -1.844 -3.43 -5.168 -0.248 -1.149 -0.644 -2.491 -0.88 -2.982 -0.245 -0.511 -1.617 -1.641 -1.632 -2.324 -0.014 -0.657 0.374 -1.492 1.7 -1.619 -0.123 -0.518 0.241 -2.273 0.839 -3.44 0.92 -1.797 1.154 -2.683 2.127 -2.683 1.048 0 2.473 0.177 2.513 3.454 0.02 1.643 3.148 1.728 3.84 3.163 0.365 0.758 -0.343 1.795 -1.269 2.267 -1.978 1.01 -1.97 3.401 0.02 5.913 0.893 1.127 1.146 1.857 0.883 2.548 -0.416 1.095 -2.829 1.541 -4.71 0.87 z"/><path d="m 136.16 89.12 c -1.345 -1.62 -2.103 -3.292 -2.09 -4.61 0.021 -2.145 2.102 -4.818 4.665 -5.991 2.66 -1.218 6.301 -0.494 8.165 1.623 0.892 1.014 1.779 3.288 1.779 4.562 0.201 1.334 -1.61 0.806 -2.583 0.849 -3.796 0.168 -5.835 1.378 -4.99 2.165 0.608 0.567 2.474 1.069 4.661 0.361 1.887 0.193 3.039 -0.244 2.15 1.495 -0.835 1.424 -2.05 1.902 -5.063 1.99 -2.784 0.291 -5.189 -0.66 -6.693 -2.444 z m 7.03 -5.05 c 1.271 -0.657 1.071 -2.279 -0.337 -2.744 -1.07 -0.353 -2.187 -0.114 -2.739 0.587 -0.601 0.764 -0.568 1.087 0.193 1.848 0.74 0.74 1.824 0.856 2.883 0.309 z"/><path d="m 152.97 91.34 c -1.533 -0.567 -2.3 -1.916 -1.594 -2.804 0.204 -0.256 0.851 -0.378 2.496 -0.471 5.337 -0.3 4.682 -2.466 -0.637 -2.845 -3.099 -2.081 -2.928 -5.619 0.471 -6.97 1.037 -0.288 3.28 -0.284 5.09 0.01 1.646 0.267 2.418 0.836 2.418 1.782 0 0.577 -0.062 0.621 -0.869 0.621 -1.169 0 -3.082 0.425 -3.683 0.819 -1.907 2.246 1.286 2.483 2.737 2.427 1.075 -0.082 2.416 -0.083 2.697 0.932 0.5 1.803 0.018 3.084 -1.763 4.685 -1.921 1.727 -5.331 2.567 -7.365 1.814 z"/></svg>