<svg xmlns="http://www.w3.org/2000/svg" viewBox="0 0 256 256" xmlns:xlink="http://www.w3.org/1999/xlink"><defs><path id="0" d="m 117.8 116.98 a 11.154 14.15 0 1 1 -22.308 0 11.154 14.15 0 1 1 22.308 0 z"/></defs><g color="#000" fill="#a9a9a9"><path d="m 237.33 858.53 c -193.41 -225.34 -379.39 237.98 -80.26 190.37 65.59 -10.438 132.38 -129.65 80.26 -190.37 z" transform="translate(0 -796.36)"/></g><g fill="#e6e6e6"><path d="m 53.46 186.51 c -0.878 -29.01 -1.526 -67.57 -1.543 -91.72 l -0.017 -25.04 c 22.16 1.553 45.817 3.465 65.53 4.987 21.753 1.659 41.849 3.228 63.59 4.982 6.109 0.493 9.348 1.01 9.79 1.552 0.363 0.449 0.892 2.821 1.176 5.272 0.762 6.552 1.552 12.96 2.347 19.48 1.653 13.548 3.115 25.539 4.788 39.25 2.101 15.461 3.645 31.432 4.547 45.13 0.354 5.415 0.281 6.236 -0.579 6.574 -1.186 0.466 -12.649 -2.693 -26.11 -7.197 -13.03 -4.734 -28.01 -8.635 -39.797 -11.395 -9.139 -2.167 -25.374 -2.32 -34.71 -0.327 -14.644 3.126 -26.504 8.527 -39.967 18.201 -3.22 2.314 -6.477 4.207 -7.238 4.207 h -1.382 z m 84.43 -60.63 c 2.326 -3.118 -16.01 17.295 -17.631 18.61 -6.956 4.51 -14.951 9.621 -23.14 10.174 l -21.11 0.664 c 6.403 1.99 30.418 12.888 37.02 14.09 4.853 -11.04 23.372 -36.02 24.864 -43.536 z"/></g><g fill="#a9a9a9"><use transform="matrix(1.26347 0 0 1.25882 -27.06 -33.667)" xlink:href="#0"/><use transform="matrix(0.85645 0 0 0.8742 -9.207 14.569)" xlink:href="#0"/></g><g fill="#000"><use transform="matrix(0.62677 0 0 0.90385 36.62 9.07)" xlink:href="#0"/><use transform="matrix(0.46823 0 0 0.58654 34.18 48.23)" xlink:href="#0"/></g></svg>