<svg xmlns="http://www.w3.org/2000/svg" viewBox="0 0 256 256"><path d="m 253.97 182.37 c 25.429 -361.16 -465.65 -90.45 -142.29 62.982 49.828 21.15 124.13 5.694 142.29 -62.982 z" fill="#323232" color="#000"/><g stroke-width="0.142"><g fill="#dcdcdc" stroke="#dcdcdc"><path d="m 184.14 174.13 c -25.439 -8.974 -84.76 -31.84 -86.11 -33.19 -1.703 -1.703 -1.636 -2.285 1.956 -17.09 2.046 -8.428 4.02 -15.622 4.383 -15.987 1.025 -1.025 5.704 1.055 16.47 7.321 31.3 18.219 60.768 34.19 63.07 34.19 4.076 0 4.784 -2.696 5.34 -20.349 l 0.509 -16.17 l -4.637 -4.082 c -6.579 -5.791 -30.3 -21.584 -32.424 -21.584 -3.153 0 -4.769 3.154 -8.463 16.517 -3.857 13.955 -4.599 15.576 -7.091 15.493 -1.944 -0.065 -11.735 -6.654 -13.05 -8.786 -1.199 -1.937 8.522 -36.731 11.502 -41.17 3.051 -4.544 7.277 -4.438 14.545 0.367 7.693 5.085 32.635 25.13 39.18 31.495 9.264 9 9.258 8.975 9.254 38.07 -0.003 21.02 -0.263 25.836 -1.551 28.682 -2.942 6.504 -6.842 8.403 -12.881 6.273 z"/><path d="m 111.23 188.98 c -7.679 -5.075 -7.729 -5.135 -7.56 -9.103 0.249 -5.822 5.03 -20.788 6.869 -21.493 1.61 -0.618 13.788 3.142 16.427 5.071 1.325 0.969 1.369 1.861 0.338 6.878 -1.675 8.157 -5.792 21.09 -7.175 22.533 -0.93 0.973 -2.744 0.181 -8.898 -3.886 z"/></g><path d="m 77.17 135.88 c -2.337 -1.425 -3.926 -4.01 -7.14 -11.629 -4.421 -10.476 -6.418 -12.861 -16.805 -20.07 -3.066 -2.128 -5.58 -4.197 -5.587 -4.598 -0.021 -1.359 5.49 -0.737 11.253 1.271 7.088 2.47 10.414 2.128 20.14 -2.068 l 7.595 -3.278 l 3.579 1.924 l 3.579 1.924 l 0.006 7.279 c 0.003 4 0.347 8.372 0.763 9.708 0.596 1.912 0.029 3.555 -2.666 7.721 -1.883 2.911 -3.929 6.846 -4.547 8.745 -1.766 5.421 -4.804 6.339 -10.165 3.07 z" fill="#4d93f8" stroke="#4d93f8"/></g></svg>