<svg xmlns="http://www.w3.org/2000/svg" viewBox="0 0 256 256" xmlns:xlink="http://www.w3.org/1999/xlink"><defs><path id="0" d="m 133.09 138.57 a 39.14 40.613 0 1 1 -0.001 -0.269 l -39.14 0.269 z"/></defs><g fill="#c0c0c0" color="#000"><path d="m 244.84 882.37 c 49.681 128.5 -89.55 194.42 -176.23 161.67 -60.5 -22.859 -90.65 -113.97 -47.683 -187.62 54.22 -92.93 185.6 -73.16 223.92 25.949 z" transform="matrix(-0.99524 0 0 -0.99626 256 1049.4)"/></g><use transform="matrix(0.96532 0 0 1.01675 80.54 -33.07)" fill="#696969" stroke="#696969" stroke-width="1.855" xlink:href="#0"/><use transform="matrix(1.65504 -0.54639 0.36227 1.0599 -73.51 22.766)" fill="#808080" stroke="#808080" stroke-width="0.735" xlink:href="#0"/><use transform="matrix(1.0106 0 0 1.09283 -3.233 -20.946)" fill="#696969" stroke="#696969" stroke-width="0.926" xlink:href="#0"/><g stroke-opacity="0.902" fill="#ff0" stroke="#ff4500" stroke-width="0.022"><path d="m 161.17 193.08 c -1.132 -0.407 -2.194 -1.099 -2.359 -1.536 -0.897 -2.374 1.545 -3.657 6.969 -3.662 5.253 -0.005 10.761 -2.334 13.622 -5.76 1.995 -2.093 2.084 -4.747 2.643 -7.5 0.15 -2.278 -7.951 -0.027 -10.774 -0.024 -8.315 -0.135 -15.635 -4.855 -15.7 -13.186 0.004 -7.561 0.107 -7.941 3.355 -12.337 7.203 -7.942 10.605 -7.521 17.13 -6.123 5.079 0.922 9.207 4.786 11.132 10.42 1.209 3.539 1.707 12.453 1.027 18.39 -1.327 11.593 -7.647 19.243 -17.678 21.4 -4.163 0.895 -6.711 0.873 -9.365 -0.081 z m 14.911 -23.327 c 6.454 -1.279 7.126 -4.371 6.668 -8.517 -0.61 -4.699 -2.01 -10.391 -5.871 -12.555 -4.517 -2.449 -9.886 -1.888 -13.1 1.37 -3.683 3.729 -4.492 9.701 -1.937 14.292 0.821 1.474 2.025 3.085 2.678 3.579 3.94 2.325 7.675 2.791 11.567 1.831 z"/><path d="m 146.96 195.76 c -8.966 -4.584 -12.06 -9.9 -19 -18.485 -1.223 -1.381 -2.225 -2.76 -2.225 -3.065 0 -0.304 -0.791 -0.553 -1.758 -0.553 -1.349 0 -2.096 0.375 -3.211 1.615 -1.919 2.133 -2.199 3.748 -2.199 12.708 v 7.549 c -1.997 -0.137 -4.01 -0.266 -5.991 -0.481 -0.032 -0.036 -0.216 -11.269 -0.407 -24.962 l -0.348 -24.897 c 2.166 -0.048 4.333 -0.095 6.499 -0.143 l 0.028 10.668 c 0.031 11.796 0.324 14.682 1.487 14.682 0.417 0 2.065 -1.581 3.662 -3.512 6.843 -8.275 17.28 -18.9 19.89 -20.249 2.17 -1.122 4.336 -1.401 4.811 -0.62 0.377 0.618 -2.818 4.571 -7.134 8.827 -1.959 1.932 -5.548 5.715 -7.975 8.407 -1.735 2.372 -4.869 4.131 -3.394 7.03 0.621 6.5 10.36 11.467 15.391 16.821 -0.309 0.105 0.66 1.652 2.154 3.439 2.809 3.361 2.917 3.58 2.416 4.907 -0.326 0.862 -0.762 0.913 -2.695 0.318 z"/></g><path d="m 131.58 72.58 a 6.579 4.474 0 1 1 0 -0.03 L 125 72.58 z" transform="matrix(1.82496 0 0 1.44848 -93.38 -29.392)" fill="#696969" stroke="#696969" stroke-width="1.998"/></svg>