<svg xmlns="http://www.w3.org/2000/svg" xmlns:xlink="http://www.w3.org/1999/xlink" viewBox="0 0 256 256"><defs><path id="0" d="m 153.54 78.21 c 0 12.274 -9.95 22.22 -22.22 22.22 -12.274 0 -22.22 -9.95 -22.22 -22.22 0 -12.274 9.95 -22.22 22.22 -22.22 12.274 0 22.22 9.95 22.22 22.22 z" fill="#ff4500" color="#000"/><path id="1" d="m -1792 -659.64 c 0 486.01 -393.99 880 -880 880 -486.01 0 -880 -393.99 -880 -880 0 -486.01 393.99 -880 880 -880 486.01 0 880 393.99 880 880 z"/><filter id="2" color-interpolation-filters="sRGB"><feGaussianBlur stdDeviation="1.76009"/></filter><pattern patternUnits="userSpaceOnUse" width="2" height="1" patternTransform="matrix(20.470626,35.456163,-35.456163,20.470626,0,0)" id="3"><path d="M 0,-0.5 H1 V1.5 H0 z"/></pattern></defs><use transform="matrix(0.27568 0 0 0.19773 118.22 101.32)" xlink:href="#0" width="256" height="256"/><use transform="matrix(0.27568 0 0 0.19773 118.95 116.75)" xlink:href="#0" width="256" height="256"/><use transform="matrix(0.27568 0 0 0.19773 95.46 108.31)" xlink:href="#0" width="256" height="256"/><path d="m 146.01 148.96 c 42.807 2.885 54.33 -45.77 10.374 -49.548 -40.42 -4.683 -61.23 39.42 -21.07 48.24 3.396 0.966 7.109 0.948 10.698 1.308 z" fill="#ff8c00" color="#000"/><g transform="translate(-304.34 -334.17)"><path d="m 496.5 366.61 c 224.68 210.75 -239.04 343.53 -187.9 63.746 25.22 -73.816 115.76 -131.42 187.9 -63.746 z" fill="#818181" color="#000"/><g transform="matrix(1.34676 0 0 1.80385 -3074.21 -4902.58)"><g transform="matrix(0.31544 0 0 0.22636 1776.16 2320.04)"><use transform="matrix(0.16889 0.108 -0.108 0.16889 2976.81 3315.86)" xlink:href="#1" fill="#424242"/><use transform="matrix(0.1456 0.0931 -0.0931 0.1456 2924.39 3260.69)" xlink:href="#1" fill="#818181"/><use transform="matrix(0.14961 0.08651 -0.08651 0.14961 2939.46 3245.71)" xlink:href="#1" opacity="0.184" fill="url(#3)" filter="url(#2)"/></g><g transform="matrix(0.35155 0 0 0.25228 1675.87 2397.8)"><g stroke="#000" stroke-width="4.455"><g fill-rule="evenodd"><path d="m 2539.88 2178.11 c 3.727 -30.374 -14.901 -72.31 23.5 -84.75 25.16 -4.071 28.698 10.951 42.5 10.75 13.802 -0.201 16.465 -15.837 42.75 -12.5 33.496 5.989 26.516 59.46 8.5 81.5 l -44.25 18.5 l -17.25 25.25 l -17.75 -4 l -25.75 -30.25 l -12.25 -4.5 z" fill="#ececec"/><path d="m 2523.88 2229.36 c -1.322 29.22 -13.08 49.31 5 95.5 l 17.5 46 c 15.477 15.214 7.829 31.417 19 48.5 l 16 24 c 3.748 -25.545 23.09 -27.697 41 -32 l 24.5 -8.5 c 16.04 -15.09 36.638 -10.456 56.5 -9 15.52 1.958 30.879 4.143 62 -16 6.978 -6.667 12.11 -13.333 34.5 -20 9.853 -2.412 13.195 -15.676 19.5 -24 -23.1 -22.11 -48.09 -26.475 -74.57 -24.21 -32.09 2.751 -55.26 -21.366 -74.933 -59.29 l -15 -40.5 l -36.5 14.5 c 0 0 -19.5 12.5 -22.5 12.5 -3 0 -42 -16 -42 -16 l -13.5 -7.5 l -14.5 8.5 l -2 7.5 z" fill="#729fcf"/></g><g stroke-linejoin="round" stroke-linecap="round"><path d="m 2541.92 2306.19 c 7.482 1.913 17.723 -12.193 18.354 -25.806 16.193 -1.109 32.385 -0.877 48.578 1.312 -8.165 6.722 -15.499 13.644 8.95 28.19 0.408 1.65 5.409 -5.26 5.774 -2.282 2.133 17.385 5.876 61.71 19.471 81.8 -7.283 9.04 -14.856 17.647 -32.578 11.03 -18.378 -33.882 -22.967 -57.12 -30.32 -59.953 -12.199 -4.703 -30.732 18.401 -41.43 57.855 -11.83 7.925 -21.02 5.296 -29.548 0 0.388 -24.597 14.797 -77.11 32.75 -92.15 z" fill="#ececec"/><g fill="#494949"><path d="m 2509.25 2397.49 c 6.552 4.488 15.256 8.538 29.13 0.75 l -4.75 44.13 c -4.675 11.473 -16.598 25.372 -23.5 1.75 l -0.875 -46.625 z"/><path d="m 2610.36 2400.08 c 6.191 3.48 24.669 3.943 32.535 -10.86 7.354 13.365 14.174 27.23 16.602 45.19 2.438 11.726 0.146 28.608 -19.533 15.411 -14.213 -10.851 -20.71 -32.01 -29.604 -49.743 z"/></g><path d="m 2506.34 2212.02 c 3.277 -3.02 7.266 -5.324 10.579 -7.01 9.368 -16.858 26.346 -18.702 34.829 -19.273 20.329 2.118 21.459 13.835 28.824 22.436 l 18.753 0.664 c 9.681 -12.52 23.99 -19.486 40.726 -23.541 -1.193 0.37 20.986 -4.657 31.647 2.81 5.855 6.115 16.1 9.927 9.376 25.919 4.641 6.356 7.06 16.579 8.934 25.713 -0.146 13.944 -18.04 25.991 -21.717 30.565 -1.878 2.338 -16.912 -8.318 -20.19 -25.374 l 1.48 -5.193 c -4.558 -4.054 -4.576 -8.109 -5.573 -12.163 -13.772 21.312 -23.678 37.823 -22.407 48.793 -21.972 -9.07 -50.27 -9.76 -76.37 -2.475 l -0.891 -16.421 l -8.901 -20.16 c -3.649 2.577 -7.892 5.812 -12.91 4.74 l -2.592 0.737 c -3.042 10.145 -8.241 17.954 -16.933 21.978 -4.638 -6.509 -6.557 -9.659 -10.258 -14.931 -7.799 -8.631 3.876 -27.981 13.595 -37.817 z" fill="#2d5886"/></g><g fill="#729fcf" fill-rule="evenodd"><path d="m 2593.51 2209.22 l 7.601 0.177 c 9.467 -8.689 16.251 -26.17 65.39 -23.19 5.802 1.976 6.43 1.127 9.564 5.771 -4.528 -10.205 -4.172 -15.311 -21.706 -19.16 -17.534 -3.852 -38.12 1.01 -60.845 36.403 z"/><path d="m 2587.56 2208.97 l -6.351 -0.323 c -9.467 -8.689 -22.07 -27.597 -50.51 -16.188 -5.802 1.976 -9.43 7.877 -12.564 12.521 4.528 -10.205 9.928 -24.523 21.456 -27.913 11.598 -3.41 25.25 -3.494 47.97 31.903 z"/></g><path d="m 2556.19 2270.71 c 16.737 -1.692 30.435 -6.097 59.693 3.389 l -7.367 8.455 c -20.19 -2.711 -36.449 -2.386 -53.03 -1.945 l 0.707 -9.899 z" stroke-linejoin="round" stroke-linecap="round"/><g fill="#494949" fill-rule="evenodd"><path d="m 2631.31 2299.22 c -0.195 5.722 -8.19 9.182 -11.985 11.753 -9.335 -6.249 -21.744 -12.91 -18.203 -21.795 -0.201 -2.988 11.175 -19.652 20.18 -13.457 9.258 -16.05 18.03 -25.24 26.62 -32.01 3.101 12.865 10.436 23.913 19.665 26.408 -9.268 11.671 -21.709 16.778 -35.575 24.858 l -0.707 4.243 z"/><path d="m 2536.39 2297.22 c 0.195 5.722 4.69 7.682 8.485 10.253 9.335 -6.249 18.994 -11.04 15.453 -32.92 -4.424 -1.988 -5.925 -3.777 -13.685 -2.082 -5.706 -8.095 -15.818 -29.533 -26.959 -29.964 -3.101 12.865 -9.598 19.867 -18.827 22.362 4.518 13.421 20.959 20.03 34.825 28.11 l 0.707 4.243 z"/></g></g><path d="m 2795.5 2356.24 c -18.06 -11.697 -39.612 -27.27 -67 -27.875 -10.04 -0.215 -35.06 -8.08 -46.5 -21.75 -11.342 -13.548 -14.519 -25.742 -21.743 -34.01 -8.313 -9.51 -14.257 1.257 -14.257 1.257 0 0 12.418 28.43 20 37.5 7.582 9.07 17.625 16.847 28.5 22.5 10.875 5.653 29.949 7.386 43.75 14.25 14.1 7.01 31.625 23.625 31.625 23.625 l 25.625 -15.5 z" opacity="0.068" fill-rule="evenodd"/><path d="m 2538.25 2126.59 c 8.861 -1.829 15.438 0.113 22.23 -3.482 6.788 -3.595 10.584 -4.586 16.261 -5.149 12.939 -1.282 13.03 7.932 24.413 6.921 11.732 -1.043 8.61 -3.63 15.04 -5.362 8.369 -2.256 19.387 -2.106 28.791 4.904 8.648 2.995 17.977 1.994 28.2 5.64 l -0.401 10.59 c -12.562 -4.068 -22.287 -5.235 -29.24 -0.612 -23.625 15.714 -35.92 -0.581 -42.938 -1.085 -7.02 -0.504 -8.385 2.418 -14.13 4.431 -7.798 2.733 -17.07 4.751 -25.01 -2.664 -7.174 -3.936 -17.12 -5.332 -24.32 -2.481 l 1.108 -11.651 z"/><g fill-rule="evenodd"><path d="m 2540.48 2223.41 c -3.794 11.287 -7.413 15.405 -12.648 16.688 -5.235 1.283 -11.177 -0.819 -16.719 -4.281 -4.088 -2.14 -5.197 -1.672 -1.75 2.781 5.923 3.701 12.681 6.297 19.25 4.688 6.569 -1.61 12.412 -7.461 16.406 -19.344 2.409 -14.14 -1.867 -5.795 -4.539 -0.532 z"/><path d="m 2530.05 2202.38 c -6.282 -1.195 -8.01 -0.418 -15.209 1.148 l 1.375 4.25 c 6.729 -1.7 8.02 -2.552 13.834 -5.398 z"/><path d="m 2672.6 2202.34 c 0.877 6.334 2.959 6.659 6.746 12.983 l 3.587 -2.662 c -3.762 -5.832 -5.778 -5.722 -10.333 -10.321 z"/></g><path d="m 2537.1 2236.41 l 8.132 -16.09 c 5.682 10.194 7.721 28.595 9.192 48.614 l -7.07 1.945 l -10.253 -34.472 z" opacity="0.335"/><path d="m 2643.7 2226.87 l -2.298 -9.192 c -12.223 8.426 -25.399 33.721 -26.87 53.74 l 4.243 1.591 l 24.926 -46.14 z" opacity="0.335"/><path d="m 2652.71 2264.7 c 2.4 2.897 5.517 6.83 8.839 7.425 -9.782 11.05 -18.856 13.13 -28.638 19.09 l -6.01 -6.718 c 9.532 -5.981 19.04 -11.976 25.809 -19.799 z" opacity="0.35"/><path d="m 2519.69 2252.85 c 1.339 -2.848 1.717 -3.953 2.121 -6.718 7.07 3.639 14.17 14.47 22.893 28.991 l -3.712 6.806 c -6.202 -14.996 -19.232 -24.09 -21.302 -29.08 z" opacity="0.35"/><g fill="#fff"><path d="m 2543.37 2280.96 c 1.339 -2.848 1.805 -2.981 2.21 -5.745 4.945 -0.78 5.957 -0.763 10.04 0.034 l 2.332 4.916 c -4.08 -0.677 -10.216 -0.132 -14.584 0.796 z" opacity="0.121"/><path d="m 2617.49 2276.96 c 1.287 -0.135 2.985 1.061 4.508 2.573 -6.274 0.446 -12.05 5.861 -15.38 13.611 -2.762 0.805 -3.629 -0.419 -3.093 -3.148 3.702 -7.263 7.913 -12.59 13.966 -13.04 z" opacity="0.121"/></g><g fill-rule="evenodd"><path d="m 2652.71 2230.08 c -4.615 4.427 -3.656 6.303 -6.556 13.08 l 4.26 1.343 c 2.516 -6.469 1.244 -8.04 2.296 -14.423 z"/><path d="m 2727.53 2392.83 c 1.963 -0.818 -28.698 -26.17 -51.22 -39.32 -22.524 -13.148 -40.809 -69.66 -40.809 -69.66 l -4 9 c 14.236 34.24 17.941 53.14 27.875 63.25 9.756 9.932 30.18 22.15 37.13 36.72 h 31.02 z" opacity="0.068"/><path d="m 2596.5 2419.11 c -2.514 1.657 -17.713 -13.523 -18.08 -29.853 -0.503 -22.378 -18.16 -29.548 -23.348 -29.11 l -6.572 10.218 c 4.172 6.819 9.968 14.5 12.375 32.375 2.407 17.875 13.688 28.597 19 35.875 2.978 -8.092 11.808 -14.805 16.625 -19.5 z" opacity="0.107"/></g><path transform="matrix(1.32877 0 0 1.32877 -849.02 -700.47)" d="m 2587 2131.36 c 0 2.209 -4.085 4 -9.125 4 -5.04 0 -9.125 -1.791 -9.125 -4 0 -2.209 4.085 -4 9.125 -4 5.04 0 9.125 1.791 9.125 4 z" id="4" fill="#f7f7f7"/><use transform="translate(48.25 0.5)" xlink:href="#4"/><g fill="#c4d7ec"><path d="m 2573.2 2224.19 c -6.155 0.227 -11.296 5.088 -11.704 11.361 -0.435 6.692 4.669 12.501 11.361 12.936 6.692 0.435 12.524 -4.669 12.959 -11.361 0.435 -6.692 -4.669 -12.501 -11.362 -12.936 -0.418 -0.027 -0.844 -0.015 -1.255 0 z m 0.205 5.818 c 0.215 -0.01 0.442 -0.014 0.662 0 3.515 0.228 6.16 3.238 5.932 6.753 -0.228 3.515 -3.238 6.16 -6.753 5.932 -3.515 -0.229 -6.16 -3.238 -5.932 -6.753 0.214 -3.295 2.864 -5.817 6.091 -5.932 z"/><path d="m 2597.06 2226.04 c -3.652 -0.468 -7.01 1.996 -7.76 5.543 0 0 0 0 -0.001 0.01 -0.048 0.118 -0.08 0.242 -0.094 0.369 l -1.835 14.318 c -0.098 0.774 0.449 1.481 1.223 1.582 l 2.579 0.331 c 0.774 0.098 1.481 -0.449 1.582 -1.223 l 1.804 -14.08 c 0.015 -0.052 0.027 -0.104 0.036 -0.157 0.155 -0.839 0.913 -1.408 1.774 -1.297 0.862 0.11 1.451 0.852 1.39 1.703 0 0.031 0 0.062 0 0.094 l -0.549 4.285 c -0.098 0.774 0.449 1.481 1.223 1.582 l 2.579 0.33 c 0.774 0.098 1.481 -0.449 1.582 -1.223 l 0.54 -4.218 c 0.015 -0.052 0.027 -0.104 0.036 -0.157 0.156 -0.842 0.908 -1.409 1.769 -1.298 0.861 0.11 1.451 0.852 1.39 1.703 0 0.056 0 0.111 -0.001 0.167 l -1.804 14.08 c -0.098 0.774 0.449 1.481 1.223 1.582 l 2.574 0.33 c 0.774 0.098 1.482 -0.449 1.582 -1.223 l 1.835 -14.318 c 0.014 -0.118 0.014 -0.237 0 -0.355 0.19 -3.633 -2.445 -6.882 -6.108 -7.352 -1.61 -0.206 -3.171 0.149 -4.473 0.921 -1.066 -1.074 -2.487 -1.812 -4.096 -2.02 z"/><path d="m 2564.13 2251.28 c 0 0 11.414 -0.42 22.564 0.166 11.223 0.59 22.857 3.389 22.857 3.389 l -0.164 3.791 c 0 0 -12.09 -2.49 -22.857 -3.389 -10.696 -0.894 -22.564 -0.166 -22.564 -0.166 l 0.164 -3.791 z"/><path d="m 2564.13 2217.87 c 0 0 11.414 -0.42 22.564 0.166 11.223 0.59 27.838 3.975 27.838 3.975 l -0.164 3.791 c 0 0 -17.07 -3.075 -27.838 -3.975 -10.696 -0.894 -22.564 -0.166 -22.564 -0.166 l 0.164 -3.791 z"/></g><path d="m 2535 2403.22 c -1.787 1.041 -4.325 2.082 -6.812 2.423 l -2.765 44.27 c 2.228 -1.899 4.135 -5.084 5.657 -9.811 l 3.921 -36.881 z" opacity="0.335"/><g fill="#fff"><path d="m 2616.21 2404.88 c 2.046 0.306 4.169 0.335 6.606 -0.268 l 23.271 44.704 c -2.773 -0.94 -8.993 -6.553 -12.154 -10.382 -7.085 -10.182 -10.341 -17.286 -17.724 -34.05 z" opacity="0.223"/><g fill-rule="evenodd"><path d="m 2531.88 2185.74 c 4.416 -3.548 6.923 -5.969 15.75 -7 9.296 -0.546 12.518 4.982 18.25 8 -10.403 -6.487 -22.433 -7.204 -34 -1 z" opacity="0.403"/><path d="m 2605.77 2198.16 c 2.615 -5.03 15.07 -15.15 22.737 -19.642 8.29 -4.242 9.752 -1.363 16.214 -0.907 -12.134 -1.751 -30.86 10.214 -38.951 20.549 z" opacity="0.306"/></g></g></g></g><g fill-rule="evenodd"><path d="m 443.06 412.99 c 5.95 -13.772 8.221 -23.423 5.04 -35.652 0.139 -0.313 2.161 1.186 3.345 4.993 1.229 3.952 1.929 8.463 0.942 14.09 -0.987 5.624 -4.086 13.04 -6.419 16.03 -1.709 2.184 -2.913 0.547 -2.913 0.547 z" opacity="0.209"/><path d="m 435.98 525.26 c 0.086 -1.636 2.851 -1.043 1.915 -2.519 -5.626 -8.872 -9.517 -32.496 -10.78 -40.718 -1.229 3.952 -2.642 0.231 -5.698 -0.09 0.601 2.281 5.05 35.17 14.563 43.33 z" opacity="0.209"/></g></g></svg>