<svg xmlns="http://www.w3.org/2000/svg" viewBox="0 0 256 256"><defs><clipPath><path d="m -24 13 c 0 1.105 -0.672 2 -1.5 2 -0.828 0 -1.5 -0.895 -1.5 -2 0 -1.105 0.672 -2 1.5 -2 0.828 0 1.5 0.895 1.5 2 z" transform="matrix(15.33333 0 0 11.5 415 -125.5)"/></clipPath></defs><path d="m 67.893 235.96 c 91.96 65.866 204.25 -48.02 184.76 -136.17 -11.428 -87.07 -144.38 -135.5 -211.87 -65.66 c -48.595 51.04 -64.856 135.96 27.12 201.82" fill="#a9a9a9"/><g transform="matrix(0.6616 0 0 0.63989 38.772 26.539)"><path d="M 0.554,161.53 68.014,44.69 h 134.91 l 67.45,116.84 -67.45,116.84 H 68.014" fill="#fff" fill-rule="evenodd"/><path color-interpolation="sRGB" shape-padding="0" vector-effect="none" color-rendering="auto" solid-color="#000000" image-rendering="auto" solid-opacity="1" white-space="normal" color-interpolation-filters="linearRGB" isolation="auto" mix-blend-mode="normal" shape-rendering="auto" transform="matrix(0.26458 0 0 0.26458 0 26.07)" d="M 257.04,70.41 2.09,512 257.04,953.59 h 88.94 l 82.922,-143.62 h -88.94 l -165.41,-286.5 h 346.35 L 672.162,785 829.972,512.13 672.162,238.16 520.882,500.79 h -346.48 l 165.56,-286.76 h 88.95 L 345.992,70.41 h -88.95 z m 115.14,0 82.92,143.62 H 684.03 L 856.06,512 684.02,809.97 H 455.08 l -82.922,143.62 h 394.79 l 20.727,-35.906 234.22,-405.69 -254.95,-441.59 h -394.78 z" color="#000"/></g></svg>