<svg xmlns="http://www.w3.org/2000/svg" viewBox="0 0 256 256"><g color="#000" fill="#3e4539"><path d="m 244.84 882.37 c 49.681 128.5 -89.55 194.42 -176.23 161.67 -60.5 -22.859 -90.65 -113.97 -47.683 -187.62 54.22 -92.93 185.6 -73.16 223.92 25.949 z" transform="matrix(1 0 0 0.99153 0 -787.44)"/></g><g transform="matrix(1.0728 0 0 1.10104 -63.24 7.089)" stroke-width="1.11"><path d="m 135.97 169.8 c -7.819 -6.866 -6.35 -10.321 16.278 -38.28 8.92 -11.02 10.03 -12.06 12.333 -11.479 10.124 2.541 22.661 2.945 27.984 0.903 1.527 -0.586 18.338 18.12 24.295 27.04 4.127 6.177 3.991 10.987 -0.438 15.416 -4.917 4.231 -7.761 3.353 -13.864 3.367 l -12.328 -12.795 c -6.78 -7.04 -12.818 -12.795 -13.417 -12.795 -0.599 0 -5.077 5.42 -9.952 12.05 -12.316 16.738 -14.269 18.473 -21.54 19.13 -5.493 0.498 -6.05 0.346 -9.351 -2.552 z" fill="#317d25" stroke="#317d25"/><path d="m 119.47 133.01 c -4.465 -0.715 -8.539 -2.025 -10.324 -3.32 -6.489 -4.705 -30.377 -31.07 -31.987 -35.3 -1.597 -4.199 -1.088 -7.237 1.952 -11.656 3.59 -5.217 8.729 -7.873 13.502 -6.978 4.353 0.817 9.644 5.681 21.632 19.889 5.158 6.113 9.985 11.11 10.726 11.11 0.741 0 5.521 -5.253 10.621 -11.672 5.1 -6.42 10.596 -12.614 12.214 -13.766 5.421 -3.86 13.433 -1.936 16.482 3.959 2.853 5.518 1.231 9.02 -12.977 28.01 -4.508 6.03 -9.626 12.158 -11.374 13.629 -3.68 8.134 -7.02 7.847 -20.467 6.094 z" transform="translate(50.15 -18.682)" fill="#4bb438" stroke="#4bb338"/></g></svg>