<svg xmlns="http://www.w3.org/2000/svg" viewBox="0 0 256 256"><g color="#000" fill="#c9ddc9"><path d="m 61.66 230.53 c 96.71 80.45 209.36 -55.28 191.34 -177.11 -12.801 -90.83 -268.13 -54.3 -251.01 77.58 5.098 39.24 28.12 73.3 59.672 99.54 z"/></g><g transform="matrix(0.92163 0 0 0.93288 8.467 8.271)" fill="#338033"><path d="m 81.44 191.84 c -1.558 -0.966 -5.29 -3.679 -8.293 -6.03 l -5.459 -4.273 l 2.609 -3.176 c 3.518 -4.283 44.752 -48.04 45.27 -48.04 0.486 0 10.08 4.784 10.668 5.318 0.222 0.203 -0.67 1.533 -1.981 2.956 -6.298 6.834 -14.929 18.387 -14.39 19.26 0.728 1.178 1.431 1.032 16.439 -3.423 6.493 -1.928 18.603 -4.862 26.911 -6.521 16.595 -3.314 18.484 -4.504 12.08 -7.607 -1.966 -0.953 -21 -9.485 -42.3 -18.961 c -48.37 -21.521 -47.892 -21.288 -46.672 -22.758 c 1.93 -2.326 12.852 -8.876 14.8 -8.876 1.861 0 106.66 38.433 110.71 40.602 1.207 0.646 1.635 1.548 1.246 2.623 -1.654 4.57 -16.523 34.699 -17.389 35.23 -0.552 0.341 -4.893 0.914 -9.647 1.272 -10.986 0.829 -32.423 4.45 -45.12 7.621 -13.688 3.418 -23.21 6.624 -35.508 11.958 -5.815 2.521 -10.702 4.582 -10.862 4.58 -0.159 -0.002 -1.565 -0.794 -3.123 -1.76 z"/><path d="m 53.52 170.74 c -2.826 -2.126 -5.39 -4.252 -5.699 -4.722 -0.639 -0.976 6.821 -8.229 23.23 -22.586 25.666 -22.457 25.678 -22.464 33.389 -18.429 l 4.11 2.151 l -23.689 23.02 c -13.03 12.663 -24.25 23.34 -24.945 23.726 -0.782 0.438 -3.195 -0.756 -6.394 -3.163 z"/><path d="m 168.57 80.56 c -0.909 -0.238 -1.653 -0.967 -1.653 -1.621 0 -0.654 5.206 -6.29 11.57 -12.524 11.193 -10.966 11.685 -11.321 15.09 -10.918 3.392 0.401 3.471 0.492 2.11 2.44 -0.778 1.113 -5.901 6.805 -11.384 12.649 -9.94 10.594 -10.94 11.228 -15.737 9.974 z"/><path d="m 153.34 76.19 l -2.712 -1.158 l 6.06 -5.647 c 15.13 -14.11 18.307 -16.508 21.849 -16.508 1.86 0 3.621 0.388 3.914 0.862 0.702 1.136 -23.13 23.707 -24.971 23.652 -0.783 -0.023 -2.645 -0.564 -4.136 -1.201 z"/><path d="m 180.61 113.44 c -46.2 -15.782 -81.83 -28.27 -82.45 -28.888 c -0.772 -0.772 3.859 -4.498 9.358 -7.529 l 4.357 -2.401 l 51.84 14.682 c 28.512 8.08 52.22 15.06 52.68 15.515 0.489 0.486 -0.55 3.716 -2.491 7.738 -5.637 11.684 -1.965 11.587 -33.29 0.883 z"/></g></svg>