<svg xmlns="http://www.w3.org/2000/svg" viewBox="0 0 256 256"><g color="#000" fill="#2e2e2e"><path d="m 244.84 882.37 c 49.681 128.5 -89.55 194.42 -176.23 161.67 -60.5 -22.859 -90.65 -113.97 -47.683 -187.62 54.22 -92.93 185.6 -73.16 223.92 25.949 z" transform="matrix(1 0 0 0.99153 0 -787.44)"/></g><g transform="matrix(0.94432 0 0 0.94369 -0.726 11.03)"><path d="m 119.47 214.17 c -37.543 -6.337 -66.71 -35.32 -72.78 -72.32 -3.471 -21.16 1.435 -43.561 13.405 -61.19 14.249 -20.986 35.08 -34.34 59.74 -38.29 c 39.23 -6.291 79.11 15.46 94.5 51.54 20.381 47.786 -4.37 101.16 -54.4 117.31 -12.05 3.888 -28.01 5.05 -40.462 2.952 z" fill="#ececec"/><path d="m 124.74 209.18 c -0.594 -0.141 -3.507 -0.647 -6.475 -1.124 -10.126 -1.627 -21.985 -6.42 -31.12 -12.58 -17.554 -11.832 -29.854 -30.29 -34.472 -51.733 -1.191 -5.53 -1.191 -24.33 0 -29.86 7.152 -33.21 31.63 -57.4 65.24 -64.46 5.596 -1.177 24.621 -1.177 30.22 0 33.634 7.07 58.21 31.36 65.22 64.46 1.188 5.607 1.2 24.398 0.019 29.86 -7.07 32.69 -31.369 57.13 -63.701 64.07 -4.691 1.01 -22.354 1.973 -24.921 1.362 z m 20.08 -6.453 c 7.69 -1.232 15.452 -3.64 21.567 -6.691 3.683 -1.837 4.374 -2.532 5.829 -5.86 0.908 -2.077 1.859 -5.733 2.113 -8.126 l 0.462 -4.35 l 6.854 -6.67 c 3.846 -3.742 8.84 -9.579 11.378 -13.297 2.488 -3.645 4.947 -6.787 5.464 -6.983 0.517 -0.196 1.95 0.16 3.184 0.791 1.234 0.631 2.55 0.96 2.923 0.732 1.605 -0.98 4.31 -15.707 4.31 -23.46 0 -9.04 -3.338 -24.813 -6.02 -28.433 -0.962 -1.3 -1.067 -1.15 -1.513 2.143 -0.834 6.159 -3.476 17.429 -4.367 18.634 -0.787 1.064 -1.265 1.033 -5.808 -0.369 -7.524 -2.323 -13.11 -3.674 -18.16 -4.391 -4.464 -0.635 -7.299 -2.183 -7.299 -3.987 0 -1.538 -5.058 -16.03 -7.625 -21.845 -1.346 -3.049 -2.447 -6.17 -2.447 -6.935 0 -1.76 7.576 -7.336 15.609 -11.488 l 5.897 -3.048 l 3.096 2.835 c 1.703 1.559 5.331 4.919 8.06 7.465 5.496 5.124 4.263 2.515 -1.604 -3.395 -16.556 -16.677 -42.731 -25.17 -65.24 -21.16 -9.367 1.667 -10.539 1.977 -10.89 2.882 -0.184 0.474 1.781 3.634 4.368 7.02 2.586 3.388 5.214 7.138 5.839 8.333 l 1.137 2.173 l -9.96 10.08 c -5.478 5.542 -11.04 11.327 -12.354 12.854 l -2.394 2.777 l -13.413 0.019 l -13.413 0.019 l -0.224 -1.868 c -0.123 -1.027 0.156 -3.725 0.62 -5.996 1.786 -8.737 1.781 -8.554 0.193 -7.157 -2.041 1.797 -7.75 12.832 -9.843 19.03 -0.991 2.933 -2.325 8.33 -2.966 11.993 -1.068 6.107 -1.069 7.213 -0.022 13.288 1.579 9.157 2.91 13.328 6.186 19.385 2.242 4.144 2.818 5.966 2.818 8.91 0 5.983 1.558 10.457 5.326 15.296 7.432 9.544 16.248 16.74 26.938 21.985 6.05 2.968 7.385 3.345 13.31 3.752 4.773 0.328 7.775 0.965 10.903 2.315 5.17 2.231 10.905 2.449 21.16 0.805 z m -34.53 -17.755 c -6.935 -5.683 -19.369 -20.75 -19.369 -23.471 0 -3.725 12.828 -25.682 16.04 -27.46 1.321 -0.731 21.346 1.782 30 3.765 6.075 1.392 7.125 2.025 7.915 4.775 2.391 8.329 4.873 27.668 3.994 31.13 -0.498 1.96 -6.098 5.745 -13.222 8.937 -5.789 2.594 -16.992 6.248 -19.08 6.223 -0.855 -0.011 -3.684 -1.764 -6.287 -3.897 z" fill="#2e2e2e"/></g></svg>