<svg xmlns="http://www.w3.org/2000/svg" viewBox="0 0 256 256"><path d="m 97.93 8.842 c -237.89 78.59 17.493 391.76 138.41 170.64 51.829 -86.48 -16.06 -211.07 -138.41 -170.64 z" fill="#fff" color="#000"/><path d="m 110.26 230.13 c -19.386 -2.048 -31.353 -7.491 -43.694 -19.873 -13.968 -14.02 -16.89 -22.13 -17.717 -49.18 -0.884 -28.894 2.591 -65.15 11.293 -117.82 4.184 -25.322 5.351 -30.04 7.435 -30.04 c 0.417 0 6.455 10.605 13.416 23.566 26.714 49.737 45.06 77.43 51.29 77.43 6.813 0 28.05 -32.09 54.6 -82.5 12.137 -23.04 12.341 -23.1 15.432 -4 11.346 70.1 16.799 119.18 16.11 145 -0.341 12.773 -0.616 14.52 -3.141 19.93 -5.429 11.631 -15.14 20.52 -30.22 27.651 -19.923 9.423 -46.09 12.861 -74.81 9.828 z m 50.31 -6.252 c 17.351 -3.95 32.11 -11.273 41.544 -20.609 11.216 -11.1 13.402 -20.12 11.64 -47.985 -1.121 -17.725 -4.385 -47.934 -7.732 -71.56 -4.03 -28.457 -8.732 -58.07 -9.321 -58.711 -0.359 -0.391 -3.797 5.228 -7.641 12.487 -10.1 19.07 -23.693 42.694 -31.21 54.22 c -13.1 20.1 -21.384 28.444 -26.872 27.07 -8.469 -2.126 -25.477 -26.922 -51.72 -75.4 -5.757 -10.635 -10.716 -18.932 -11.02 -18.438 c -0.784 1.268 -7.194 40.756 -9.622 59.27 -5.453 41.587 -6.945 80.31 -3.709 96.28 4.736 23.365 25.337 40.997 52.16 44.645 10.139 1.379 45.56 0.539 53.5 -1.268 z m -52.841 -6.721 c -17.517 -1.989 -30.386 -6.01 -36.01 -11.244 -7.376 -6.871 -14.58 -34.44 -9.508 -36.39 c 1.497 -0.574 44.994 5.281 48.24 6.495 3.625 1.354 -1.214 -3.104 -23.636 -21.776 -22.475 -18.715 -24.25 -20.425 -24.19 -23.359 0.033 -1.741 1.496 -20.491 3.251 -41.666 2.848 -34.35 3.375 -38.5 4.896 -38.5 1.203 0 4.04 4.704 9.654 16 9.733 19.588 21.608 37.72 31.05 47.4 3.901 4 7.093 7.395 7.093 7.538 0 0.143 -1.35 1.673 -3 3.399 -3.745 3.919 -3.862 7.454 -0.354 10.705 1.455 1.349 3 2.452 3.437 2.452 0.435 0 2.302 1.602 4.149 3.559 6.38 6.763 15.383 6.526 23.02 -0.606 2.338 -2.184 5.263 -4.85 6.501 -5.926 3.23 -2.807 2.931 -7 -0.75 -10.527 -1.65 -1.581 -3 -3.128 -3 -3.438 0 -0.31 2.396 -3.118 5.325 -6.24 10.498 -11.191 22.02 -30.21 31.684 -52.32 5.866 -13.417 7.104 -15.312 8.684 -13.3 1.312 1.67 6.693 81.31 5.617 83.13 -0.446 0.752 -10.62 10.487 -22.61 21.635 -11.99 11.148 -21.578 20.491 -21.306 20.763 0.271 0.271 11.389 -1.423 24.705 -3.765 28.781 -5.062 27.452 -5.422 26.537 7.171 -1.644 22.632 -13.823 32.501 -46.14 37.39 -12.474 1.886 -42.25 2.677 -53.34 1.417 z m 24.841 -77.08 c 0 -2.666 -0.578 -4.562 -1.624 -5.327 -1.461 -1.069 -1.485 -1.83 -0.239 -7.61 1.539 -7.138 4.12 -8.932 4.671 -3.247 0.169 1.747 0.957 3.714 1.75 4.372 1.749 1.452 1.819 3.898 0.267 9.336 -2.172 7.608 -4.825 8.969 -4.825 2.476 z" fill="#231815" transform="matrix(0.78356 0 0 0.75768 22.8 36.936)"/></svg>