<svg xmlns="http://www.w3.org/2000/svg" xmlns:xlink="http://www.w3.org/1999/xlink" viewBox="0 0 256 256"><defs><path d="m 245.46 129.52 l -97.89 -96.9 c -5.556 -5.502 -16.222 -11.873 -23.7 -14.16 l -39.518 -12.08 c -7.479 -2.286 -18.1 0.391 -23.599 5.948 l -13.441 13.578 c -5.5 5.559 -14.502 14.653 -20 20.21 l -13.44 13.579 c -5.5 5.558 -8.07 16.206 -5.706 23.658 l 12.483 39.39 c 2.363 7.456 8.843 18.06 14.399 23.556 l 97.89 96.9 c 5.558 5.502 14.605 5.455 20.1 -0.101 l 36.26 -36.63 c 5.504 -5.559 14.503 -14.651 20 -20.21 l 36.26 -36.629 c 5.502 -5.56 5.455 -14.606 -0.101 -20.11 z m -178.09 -50.74 c -7.198 0 -13.03 -5.835 -13.03 -13.03 0 -7.197 5.835 -13.03 13.03 -13.03 7.197 0 13.03 5.835 13.03 13.03 -0.001 7.198 -5.836 13.03 -13.03 13.03 z" id="0"/><use id="1" xlink:href="#0"/><clipPath id="2"><use xlink:href="#0"/></clipPath><clipPath clip-path="url(#2)"><use xlink:href="#1"/></clipPath><clipPath clip-path="url(#2)"><use xlink:href="#1"/></clipPath></defs><g color="#000"><path d="m 212.32 840.15 c 129.89 104.85 -60.27 294.12 -175.21 173.21 -115.19 -104.06 64.59 -306.02 175.21 -173.21 z" transform="translate(0 -796.36)" fill="#e1e341"/></g><g transform="translate(-1.478 -0.739)"><path d="m 83.19 205.01 c -15.913 -10.75 -27.537 -25.871 -33.27 -43.29 -7.354 -22.323 -5.73 -44.44 4.766 -64.935 23.887 -42.963 78.04 -55.33 113.11 -35.776 c 8.144 4.524 13.938 9.03 20.638 16.06 29.18 30.595 31.21 76.6 4.858 110.26 -15.54 19.85 -39.925 31.525 -65.39 31.31 -15.891 -0.072 -33.12 -5.954 -44.709 -13.626 z" fill="#ed363d"/><path d="m 121.05 87.55 c -7.372 -6.856 -9.07 -10.305 -9.122 -18.582 l -0.045 -6.531 l -4.948 0.543 c -5.433 0.597 -20.27 4.994 -25.941 7.689 -1.979 0.941 -3.799 1.522 -4.045 1.293 -1.011 -0.945 2.764 -5.904 7.343 -9.646 6.532 -5.338 19.05 -10.864 40.08 -25.579 9.551 -6.684 10.04 6.465 15.732 7.274 9.781 1.389 31.22 11.79 33.648 15.977 2.934 5.05 -13.591 -0.707 -15.843 -1.613 -5.88 -2.367 -11.11 -3.121 -11.11 -1.603 0 0.659 0.947 2.02 2.105 3.03 2.612 2.268 15.178 8.206 18.873 8.918 1.505 0.29 2.89 0.959 3.078 1.486 0.503 1.411 -3 2.032 -11.428 2.024 -8.132 -0.008 -12.09 -1.229 -19.576 -6.04 -4.956 -3.185 -6.164 -3.283 -8.653 -0.7 -3.333 3.459 -3.568 4.385 -4.044 15.949 l -0.468 11.361 z" fill="#33b66f"/><path d="m 119.42 218.31 c -26.08 -2.254 -52.11 -19.685 -63.14 -42.28 -2.374 -4.86 -4.483 -11.355 -3.873 -11.924 0.165 -0.154 1.743 0.845 3.505 2.22 21.32 16.633 42.967 24.899 67.973 25.957 26.541 1.122 52.2 -7.139 74.67 -24.04 3.227 -2.427 6.03 -4.258 6.236 -4.068 0.203 0.19 -0.365 2.421 -1.263 4.958 -7.846 22.16 -28.17 40.11 -53.03 46.819 -5.409 1.46 -19.992 3.292 -23.766 2.985 -0.603 -0.049 -3.893 -0.331 -7.31 -0.626 z" fill="#d51a22"/></g><path d="m 117.29 157.53 c -16.44 -7.797 -16.695 -28.453 -0.463 -37.472 7.232 -4.02 58.985 -28.577 60.22 -28.577 2.285 0 -27.51 54.716 -33.492 61.51 -6.549 7.433 -16.532 9.16 -26.27 4.543 z m 17.227 -12.318 c 3.426 -3.431 3.874 -6.554 1.544 -10.77 -3.147 -5.692 -11.183 -6.39 -16.13 -1.4 -3.465 3.498 -3.393 8.221 0.186 12.2 3.927 4.366 10.02 4.353 14.398 -0.029 z" fill="#fff"/><path d="m 124.19 147.36 c -1.24 -0.54 -3.152 -2.049 -4.25 -3.354 -3.852 -4.578 -1.889 -10.444 4.369 -13.06 3.162 -1.321 4.308 -1.293 7.419 0.184 2.528 1.2 5.434 5.53 5.434 8.097 0 2.411 -3.182 6.388 -6.212 7.764 -3.581 1.626 -3.837 1.64 -6.76 0.368 z" fill="#241f31"/></svg>