<svg xmlns="http://www.w3.org/2000/svg" viewBox="0 0 256 256"><defs><clipPath id="0"><path d="m 110 135 h 44.668 v 44 h -44.668"/></clipPath><clipPath id="1"><path d="m 85.81 53.867 c -1.52 0.789 -2.73 2.164 -3.27 3.727 c -0.543 1.563 -0.438 3.293 0.316 4.711 c 0 0 6.645 34.688 14.664 50.14 c 8 15.438 32.648 41.06 32.648 41.06 c 4.809 7.938 8.957 16.711 13.289 25.06 l 10.645 -5.332 c -5.332 -7.418 -8.313 -18.375 -12.11 -25.648 c 0 0 -7.355 -34.375 -15.355 -49.793 c -7.977 -15.418 -31.957 -41.44 -31.957 -41.44 c -0.73 -1.453 -2.121 -2.578 -3.77 -3.039 c -1.648 -0.48 -3.543 -0.25 -5.105 0.563"/></clipPath></defs><path d="m 182.83 255.04 c -368.16 25.441 -92.21 -465.65 64.21 -142.29 c 21.547 49.836 5.813 124.13 -64.21 142.29" fill="#661225"/><path d="m 117.71 131.59 c 0 20.08 -16.273 36.37 -36.37 36.37 c -20.06 0 -36.35 -16.293 -36.35 -36.37 c 0 -20.09 16.273 -36.37 36.35 -36.37 c 20.09 0 36.38 16.293 36.38 36.38" fill="#ffd600"/><path d="m 163.65 131.59 c 0 20.08 -16.273 36.37 -36.35 36.37 c -20.09 0 -36.37 -16.293 -36.37 -36.37 c 0 -20.09 16.273 -36.37 36.38 -36.37 c 20.06 0 36.35 16.293 36.35 36.38" fill="#ff6245"/><path d="m 212.64 131.59 c 0 20.08 -16.293 36.37 -36.37 36.37 c -20.09 0 -36.37 -16.293 -36.37 -36.37 c 0 -20.09 16.293 -36.37 36.38 -36.37 c 20.08 0 36.37 16.293 36.37 36.38" fill="#6295ec"/><path d="m 94.04 51.625 c -1.105 0 -2.207 0.254 -3.191 0.773 c -1.539 0.789 -2.707 2.23 -3.227 3.859 c -0.5 1.625 -0.352 3.453 0.461 4.98 c 0 0 7.727 36.75 16.293 53.27 c 8.559 16.523 34.29 44.23 34.29 44.23 c 0.5 0.789 0.961 1.605 1.418 2.418 l 8.316 15.625 c 0 0.023 0 0.023 0.02 0.023 c -0.086 0.164 -0.145 0.27 -0.227 0.438 c -3.5 8.293 -3.211 22.19 7.703 30.961 c 12.582 10.08 22.23 18.645 26.02 26.414 c 3.563 7.27 7.625 -25.895 -1.168 -42.828 c -6.773 -13.04 -15.211 -19.04 -22.04 -20.08 c 0 -0.023 0 -0.043 -0.023 -0.066 l -6.98 -16.336 c -0.414 -0.875 -0.809 -1.727 -1.227 -2.523 c 0 0 -8.395 -36.457 -16.961 -52.938 c -8.543 -16.48 -33.602 -44.559 -33.602 -44.559 c -0.793 -1.563 -2.254 -2.813 -3.918 -3.336 c -0.645 -0.207 -1.289 -0.313 -1.957 -0.313" fill-opacity="0.114"/><path d="m 82.29 47.02 c -1.52 0.809 -2.707 2.227 -3.227 3.855 c -0.5 1.625 -0.336 3.457 0.48 4.98 c 0 0 7.707 36.773 16.273 53.29 c 8.578 16.52 34.29 44.23 34.29 44.23 c 5.102 8.504 9.563 17.855 14.184 26.773 l 10.648 -5.387 c -5.648 -7.957 -8.961 -19.605 -13 -27.375 c 0 0 -8.438 -36.457 -16.98 -52.938 c -8.547 -16.48 -33.605 -44.582 -33.605 -44.582 c -0.789 -1.563 -2.23 -2.789 -3.914 -3.332 c -1.688 -0.523 -3.586 -0.355 -5.148 0.457" fill="#1f282f"/><path d="m 172.21 186.41 c 8.789 16.918 4.707 50.09 1.168 42.828 c -3.793 -7.75 -13.441 -16.336 -26.02 -26.414 c -10.918 -8.773 -11.211 -22.668 -7.727 -30.961 c 4.602 -8.938 4.352 -6.559 10.207 -5.605 c 6.875 0.895 15.5 6.895 22.375 20.16" fill="#ff537d" fill-rule="evenodd"/><g clip-path="url(#0)"><g clip-path="url(#1)"><path d="m 116.04 163.59 l 53.25 -26.828 c 4.73 -2.375 10.336 -0.789 12.605 3.563 c 2.25 4.352 0.27 9.77 -4.461 12.164 l -53.25 26.828 c -4.73 2.371 -10.352 0.789 -12.602 -3.563 c -2.254 -4.375 -0.273 -9.793 4.457 -12.164" fill="#fff4eb" fill-rule="evenodd"/></g></g></svg>