<svg xmlns="http://www.w3.org/2000/svg" viewBox="0 0 256 256" xmlns:xlink="http://www.w3.org/1999/xlink"><defs><path id="0" d="m 44.19 108.27 l -5.078 -3.25 l -3.778 4.699 l 0.276 -6.02 l -5.958 -0.922 l 5.354 -2.772 l -2.18 -5.621 l 5.078 3.25 l 3.778 -4.699 l -0.276 6.02 l 5.958 0.922 l -5.354 2.772 z" fill="#db3a5a"/><path id="1" d="m 99.8 124.75 l -7.793 -11.685 l -10.771 9.01 l 4.277 -13.378 l -13.763 -2.801 l 13.13 -4.997 l -6.391 -12.507 l 12.09 7.147 l 5.794 -12.795 l 1.951 13.909 l 13.616 -3.448 l -9.658 10.198 l 11.185 8.496 l -13.995 -1.193 z" fill="#fff"/></defs><path d="m 228.89 184.69 c -194.58 236.06 -356.69 -214.13 -75.56 -181.77 74.936 20.15 138.04 105.98 75.56 181.77 z" fill="#d9e8fd" color="#000"/><g transform="matrix(0.7789 0 0 0.79562 32.792 25.914)"><path d="m 51.992 164.23 c -3.659 -0.878 -4.094 -3.441 -1.072 -6.316 1.549 -1.473 1.6 -1.696 1.6 -6.947 v -5.425 c 3.122 -3.086 5.903 -7.091 6.389 -10.293 0.48 -3.261 1.239 -4.133 4.01 -4.61 3.365 -0.579 3.743 -1.038 3.743 -4.545 0 -3.507 -0.377 -3.965 -3.743 -4.545 -2.681 -0.462 -3.656 -1.479 -4.094 -4.273 -0.427 -2.722 -2.064 -4.17 -5.314 -4.698 -3.997 -0.65 -11.356 -4.743 -11.356 -8.293 -0.006 -2.702 5.04 -2.589 6.302 -4.344 1.491 -2.049 5.04 -4.06 7.185 -4.071 2.175 -0.012 2.778 -0.755 3.254 -4.01 0.508 -3.479 0.841 -3.898 3.375 -4.247 4.892 -0.673 4.668 -0.475 4.668 -4.152 0 -3.919 -0.666 -4.844 -3.881 -5.398 -2.997 -0.516 -3.677 -1.348 -4.131 -5.058 0.831 -5.803 -7.234 -4.548 -7.513 -9.04 0 -1.443 -2.211 -3.01 -4.809 -3.406 -4.097 -0.626 -4.618 -1.08 -4.618 -4.03 0 -4.696 1.817 -10.271 4.995 -7.962 1.546 1.124 2.251 5.791 8.868 6.04 4.117 0.156 7.798 0.489 8.179 0.74 1.329 3.293 3.314 5.367 6.381 5.83 3.357 0.454 4.561 1.547 5.04 4.571 0.196 1.25 0.707 2.569 1.135 2.931 1.01 0.85 5.951 1.386 6.871 0.745 0.389 -0.271 0.858 -1.783 1.041 -3.359 0.183 -1.576 0.508 -3.155 0.723 -3.508 0.214 -0.353 1.699 -0.853 3.299 -1.111 3.374 -0.544 4.062 -1.158 4.974 -4.441 0.696 -2.415 3.562 -10.895 4.492 -12.973 1.856 -2.952 2.554 7.156 5.196 7.183 3.15 0 4.53 1.138 5.656 4.662 1.205 3.772 2.052 4.739 4.574 5.221 3.214 0.615 3.897 1.225 4.281 3.822 0.531 3.6 1.53 4.661 4.392 4.661 2.971 0 4.538 -1.3 5.01 -4.159 -0.409 -5.841 8.992 -2.713 9.162 -6.616 0 -1.29 2.446 -3.714 5.02 -4.971 2.461 -1.203 2.471 -1.22 2.747 -4.654 0.345 -4.288 1.21 -5.502 3.554 -4.987 4.03 0.885 5.715 1.959 6.748 4.293 7.06 11.934 2.098 8.125 -4.268 16.356 -1.398 1.425 -2.707 6.359 -2.707 10.208 v 3.288 l -4.575 0.009 c -5.905 0.011 -7.303 0.698 -7.483 3.678 -0.19 3.133 0.894 4.302 4.706 5.077 3.446 0.701 3.615 0.918 4.318 5.549 0.376 2.476 1.858 3.372 6.665 4.03 4.091 0.559 4.233 0.73 3.282 3.951 -1.035 3.503 8.701 3.893 9.761 6.478 1.152 2.809 -9.323 5.05 -14.508 5.784 -2.258 0.319 -4.405 0.833 -4.771 1.142 -0.366 0.309 -0.834 1.75 -1.039 3.201 -0.537 3.792 -0.852 4.152 -4.756 5.436 -3.383 1.113 -3.526 1.236 -3.685 3.164 -0.214 2.589 1.131 3.865 5.01 4.753 3.235 0.383 2.959 1.067 3.25 4.137 0.059 6.03 5.503 5.189 6.909 8.884 1.243 3.318 1.926 3.814 5.913 4.293 2.905 0.349 4.274 1.059 4.306 2.234 0.023 0.85 -3.419 5.662 -4.628 6.469 -3.346 0.932 -7.07 -1.043 -10.583 -1.335 -6.311 -0.502 -6.742 -0.707 -9.24 -4.407 -2.954 -3.851 -8.261 -3.827 -9.535 -7.493 -0.787 -2.293 -1.404 -3.116 -2.877 -3.831 -1.734 -0.843 -1.982 -0.84 -3.296 0.037 -0.947 0.633 -1.422 1.462 -1.424 2.49 -0.601 3.535 -1.882 5.659 -5.155 5.848 -2.557 -0.264 -4.143 1.225 -4.581 4.3 -0.682 4.793 -2.24 6.102 -5.165 4.341 -1.499 -0.902 -0.23 7.822 -3.515 8.665 -4.675 1.2 -7.337 -8.143 -7.823 -12.389 -0.417 -3.643 -1.478 -4.69 -5.271 -5.203 -2.944 -0.398 -3.388 -0.993 -3.422 -4.587 -0.023 -2.42 -0.638 -3.121 -3.267 -3.723 -3.607 -0.826 -5.06 0.346 -5.832 4.705 -0.423 2.386 -1.222 2.967 -4.704 3.419 -4.705 1.331 -5.456 4.503 -9.575 7.183 -1.44 0 -2.172 1.406 -2.695 5.179 -0.667 4.809 -1.599 5.489 -6.06 4.418 z m 39.481 -26.596 c 1.11 -1.384 1.295 -5.05 0.305 -6.06 -0.366 -0.373 -1.938 -0.678 -3.493 -0.678 -1.555 0 -3.127 0.305 -3.493 0.678 -1.01 2.589 -0.846 5.618 0.582 7.242 1.859 0.801 4.996 0.191 6.099 -1.184 z m 23.837 1.148 c 1.14 -0.323 2.323 -1.063 2.629 -1.646 0.6 -1.142 0.196 -4.383 -0.689 -5.531 -0.699 -0.907 -6.068 -0.929 -6.952 -0.028 -1.104 1.126 -0.821 5.379 0.444 6.668 1.269 1.293 1.712 1.346 4.568 0.537 z m -23.404 -15.529 c 2.98 -0.812 6.518 -0.001 9.269 -0.266 2.974 -0.295 7.965 -0.543 11.09 -0.551 3.126 -0.009 5.688 -0.205 5.693 -0.438 0.005 -0.233 0.245 -2.706 0.533 -5.495 1.03 -5.293 -2.152 -10.47 0.022 -15.01 1.633 -3.261 2.01 -6.964 0.895 -8.704 -0.498 -0.774 -0.905 -1.869 -0.905 -2.432 0 -2.228 -1.493 -3.371 -4.924 -3.766 -1.843 -0.213 -3.872 -0.835 -4.595 -1.41 -2.207 -1.756 -3.575 -1.9 -6.318 -0.663 -2.763 1.709 -3.269 0.528 -5.531 -1.462 -2.488 -2.19 -3.068 -3.067 -3.556 -5.386 -0.452 -2.824 -0.667 -5.839 -2.468 -7.934 -0.336 -0.228 -1.778 -0.419 -3.204 -0.424 -3.72 -0.012 -4.424 0.913 -4.222 5.548 -0.136 3.563 0.072 3.704 3.212 4.663 2.814 0.859 9.667 -1.169 9.833 0.533 0.171 1.763 -6.494 4.072 -7.99 3.714 9.778 0.542 -2.601 -0.523 -3.867 -0.706 -2.02 -0.292 -2.387 -0.17 -3 1 -0.413 0.786 -0.791 4.229 -0.923 8.403 -0.123 3.889 -0.494 7.634 -0.825 8.323 -0.126 2.623 7.06 6.415 1.091 6.924 -1.957 0.023 -1.986 1.262 -0.066 2.801 2.104 2.343 1.049 4.386 0.445 7.475 -0.06 2.282 1.982 2.333 3.641 3.575 2.887 2.653 5.04 3.198 6.671 1.691 z m -17.16 -2.591 c 0.721 -1.16 0.607 -5.821 -0.162 -6.604 -0.984 -1 -5.735 -0.856 -6.781 0.21 -1.192 1.215 -1.153 5.525 0.061 6.763 1.127 1.148 6.104 0.882 6.881 -0.368 z m 59.24 -0.295 c 2.358 -3.056 0.809 -7.562 -2.594 -7.545 -3.74 0.019 -4.892 1.204 -4.651 4.782 0.193 2.867 1.473 4.252 3.931 4.252 1.678 0 2.423 -0.335 3.314 -1.489 z m -57.06 -25.396 c 0.777 -2.398 0.285 -6.63 -0.885 -7.62 -0.796 -0.673 -6.844 -0.414 -8.05 0.345 -0.784 0.494 -0.623 6.894 0.186 7.41 0.646 0.412 5.99 1.732 7.443 1.838 0.358 0.026 0.945 -0.862 1.304 -1.973 z m 57.35 -0.366 c 1.147 -1.669 1.095 -4.557 -0.107 -5.999 -1.419 -1.703 -4.59 -2.13 -6.164 -0.831 -1.748 1.442 -1.968 5.952 -0.351 7.197 1.762 1.357 5.583 1.145 6.622 -0.366 z m -17.198 -17.15 c 0.525 -0.536 0.871 -1.865 0.871 -3.35 0 -3.106 -1.058 -4.238 -3.958 -4.238 -3.552 0 -4.36 0.729 -4.36 3.935 -0.667 4.315 4.946 5.89 7.446 3.653 z" fill="#c044cc"/><path d="m 68.43 139.67 c -0.79 -1.476 -0.684 -2.253 0.434 -3.181 2.416 -2 1.697 -3.155 -1.785 -2.855 -4.182 0.36 -5.736 -0.638 -5.736 -3.687 0 -2.107 0.463 -2.441 3.383 -2.441 2.542 0 3.513 0.497 3.906 2 0.796 3.043 6.462 2.782 7.654 -0.352 0.665 -1.748 1.621 -2.326 3.725 -2.25 2.399 0.087 2.877 0.569 3.13 3.164 0.273 2.797 -0.029 3.143 -3.5 4 -3.346 0.827 -3.799 1.296 -3.799 3.938 0 2.641 -0.381 3.037 -3.184 3.308 -2.339 0.227 -3.461 -0.21 -4.229 -1.645 z m 55.947 -0.378 c 0.343 -4.195 -0.016 -4.786 -2.912 -4.786 -3.716 0 -5.633 -2.178 -4.227 -4.805 0.569 -1.063 0.769 -2.197 0.445 -2.521 -0.324 -0.324 1.069 -0.32 3.095 0.009 3.423 0.555 3.669 0.428 3.468 -1.793 -0.481 -5.333 -0.076 -6.03 3.288 -5.704 2.659 0.261 3.332 0.857 4.03 3.563 0.46 1.787 1.386 3.314 2.058 3.392 0.672 0.078 2.337 0.19 3.7 0.25 2.803 0.123 3.875 2.876 1.999 5.135 -0.876 1.055 -1.685 1.165 -3.083 0.417 -1.647 -0.881 -1.899 -0.65 -1.927 1.771 -0.046 4.045 -2.399 6.565 -6.527 6.988 -3.226 0.331 -3.575 0.135 -3.407 -1.917 z m 4.803 -5.664 c 2.071 -1.313 1.024 -5.57 -1.457 -5.924 -2.434 -0.347 -3.666 2.541 -2.2 5.16 1.033 1.845 1.723 1.989 3.657 0.764 z m -33.16 3.899 c -2.131 -2.258 -2.735 -3.771 -2.497 -6.25 0.253 -2.629 0.708 -3.21 2.315 -2.96 1.1 0.171 4.088 0.336 6.641 0.367 l 4.641 0.057 l 0.657 4.111 c 0.522 3.267 0.299 4.373 -1.088 5.387 -0.96 0.702 -2.519 1.031 -3.464 0.731 -0.945 -0.3 -2.01 -0.077 -2.361 0.495 -0.993 1.606 -1.804 1.281 -4.843 -1.938 z m -24.932 -10.806 c -1.256 -0.26 -1.75 -1.33 -1.75 -3.789 0 -3.086 0.278 -3.427 2.8 -3.427 3.361 0 5.2 1.621 5.2 4.583 0 2.247 -2.672 3.372 -6.25 2.632 z m -5.601 -17.91 c -1.213 -0.933 -1.335 -1.476 -0.46 -2.057 0.897 -0.596 0.792 -1.61 -0.427 -4.127 -2.331 -4.812 -0.87 -6.621 5.347 -6.621 h 4.891 l 0.08 4.336 c 0.046 2.494 0.656 4.692 1.436 5.174 1.077 0.666 1.104 1.141 0.132 2.313 -1.621 1.953 -8.891 2.603 -10.999 0.983 z m 58.851 -1.319 c 0 -1.107 0.551 -2.896 1.225 -3.975 0.967 -1.548 0.967 -2.22 0 -3.186 -0.674 -0.674 -1.225 -2.035 -1.225 -3.02 0 -1.383 0.752 -1.778 3.25 -1.705 1.787 0.052 4.15 -0.061 5.25 -0.251 1.496 -0.258 2.084 0.285 2.335 2.155 0.184 1.375 0.747 2.928 1.25 3.45 1.574 1.633 1.01 3.186 -1.585 4.368 -1.375 0.626 -2.5 1.824 -2.5 2.661 0 1.108 -1.086 1.521 -4 1.521 -3.342 0 -4 -0.331 -4 -2.01 z m -55 -25.313 c 0 -3.655 -1.217 -4.673 -5.582 -4.673 -2.026 0 -2.418 -0.492 -2.418 -3.03 0 -2.01 0.587 -3.213 1.75 -3.572 3.705 -1.145 4.745 -2.251 4.554 -4.844 -0.183 -2.492 0.046 -2.646 3.5 -2.359 3.485 0.29 3.714 0.522 4.01 4.057 0.302 3.646 0.419 3.75 4.25 3.75 2.633 0 3.94 0.446 3.94 1.345 0 1.949 -3.321 4.655 -5.714 4.655 -1.131 0 -2.793 1.125 -3.694 2.5 -1.496 2.283 -1.498 2.5 -0.032 2.5 2.654 0 0.995 2.475 -1.887 2.816 -2.443 0.289 -2.673 0.019 -2.673 -3.143 z m 5.985 -8.982 c 0.008 -0.445 -0.435 -0.531 -0.985 -0.191 -0.55 0.34 -0.993 1.379 -0.985 2.309 0.013 1.457 0.149 1.484 0.985 0.191 0.533 -0.825 0.976 -1.864 0.985 -2.309 z m -3.985 -0.132 c 0 -0.793 -0.419 -1.7 -0.931 -2.02 -1.189 -0.735 -2.385 1.138 -1.569 2.457 0.92 1.488 2.5 1.209 2.5 -0.441 z m 55.28 11.191 c -0.532 -0.688 -1.252 -2.049 -1.6 -3.02 -0.47 -1.316 -1.277 -1.613 -3.124 -1.15 -2.133 0.535 -2.737 0.108 -4.212 -2.985 -2.068 -4.336 -1.029 -5.943 3.9 -6.03 3.03 -0.054 3.28 -0.32 3.569 -3.809 0.265 -3.208 0.658 -3.75 2.715 -3.75 3.03 0 4.815 3.175 3.962 7.06 -0.665 3.03 0.826 4.175 1.875 1.441 0.317 -0.825 1.666 -1.5 2.999 -1.5 1.762 0 2.597 0.694 3.062 2.546 0.853 3.398 0.036 4.454 -3.446 4.454 -3.09 0 -4.976 2.249 -4.976 5.934 0 2.334 -3.129 2.874 -4.722 0.816 z m 3.722 -9.298 c 0 -1.824 -1.32 -2.491 -2.943 -1.487 -1.821 1.125 -0.567 4.168 1.406 3.411 0.846 -0.325 1.538 -1.19 1.538 -1.924 z m -35.35 1.719 c -1.943 -2.147 -2.207 -7.089 -0.405 -7.561 c 0.688 -0.18 2.939 -0.871 5 -1.535 6.03 -1.94 7.746 -0.831 7.746 5.01 0 4.881 -0.039 4.943 -2.75 4.349 -1.513 -0.331 -3.33 -0.782 -4.04 -1 -0.708 -0.22 -1.544 0.268 -1.857 1.084 -0.752 1.959 -1.694 1.871 -3.7 -0.346 z" fill="#7412c8"/><path d="m 95.74 130.95 c -0.61 -2.993 -2.063 -4.611 -5.357 -5.961 -2.969 -1.218 -4.676 -2.935 -4.975 -5.01 -0.321 -2.227 -1.85 -3.595 -5.208 -4.66 -2.614 -0.829 -4.881 -2.044 -5.04 -2.7 -0.157 -0.656 -0.643 -2.796 -1.081 -4.756 -0.522 -2.338 -1.983 -3.856 -4.247 -4.414 -4.641 -1.143 -4.418 -4.56 0.332 -5.097 2.721 -0.307 4.323 -1.632 5.709 -4.72 1.075 -2.395 3.292 -4.629 5.02 -5.05 1.7 -0.419 4.372 -2.892 5.937 -5.496 1.565 -2.604 3.699 -4.735 4.743 -4.735 2.528 0 6.45 -4.374 6.45 -7.194 0 -3.661 5.315 -2.783 6.293 1.039 0.564 2.207 2.132 3.574 4.746 4.137 4.361 0.94 6.31 2.783 7.04 6.658 0.298 1.577 2.142 3.034 4.645 3.671 2.86 0.727 4.64 2.328 5.724 5.148 1.017 2.644 2.531 4.093 4.276 4.093 6.758 0 6.704 8.255 -0.065 9.923 -2.084 0.513 -3.635 2.309 -4.507 5.218 -0.938 3.128 -2.275 4.567 -4.535 4.881 -2.103 0.292 -3.692 1.816 -4.62 4.431 -0.918 2.584 -3.056 4.659 -6.08 5.899 -3.034 1.244 -4.664 2.83 -4.664 4.538 0 2.745 -2.502 4.264 -7.02 4.264 -1.878 0 -2.922 -1.222 -3.51 -4.108 z m 14.341 -22.11 l 8.62 -8.658 l -3.686 -2.846 c -2.027 -1.565 -5.159 -3.209 -6.96 -3.652 -2.362 -0.582 -3.162 -1.608 -2.871 -3.684 0.341 -2.436 -0.388 -2.941 -4.756 -3.296 -4.62 -0.375 -5.158 -0.088 -5.158 2.759 0 2.42 -1.066 3.486 -4.471 4.469 -6.15 1.777 -6.339 5.52 -0.612 12.12 2.561 2.953 5.393 6.736 6.293 8.407 0.9 1.671 2.389 3.037 3.308 3.036 0.919 -0.001 5.55 -3.898 10.291 -8.66 z" fill="#db3a5a"/><use transform="matrix(1.82224 0.33527 -0.32269 1.75438 -36.05 -110.53)" xlink:href="#1"/><path d="m 44.694 225.36 c -0.292 -0.292 -0.531 -1.3 -0.531 -2.238 0 -2.502 -1.779 -4.523 -4.857 -5.518 -1.929 -0.623 -2.942 -1.567 -3.509 -3.268 -1.237 -3.711 -1.774 -4.206 -5.186 -4.783 -3.264 -0.552 -3.589 -1.015 -4.153 -5.927 -0.155 -1.35 -1.196 -2.447 -3.41 -3.593 -3.82 -1.977 -4.179 -3.915 -0.797 -4.297 3 -0.339 4.113 -1.259 6.01 -4.968 0.945 -1.852 2.392 -3.262 3.879 -3.781 1.379 -0.481 3.228 -2.183 4.415 -4.064 1.194 -1.892 3.173 -3.709 4.763 -4.373 2.89 -1.208 4.442 -3.305 4.442 -6 0 -1.274 0.507 -1.646 2.247 -1.646 1.766 0 2.49 0.551 3.386 2.577 0.867 1.959 1.904 2.787 4.327 3.454 3.182 0.876 5.143 3.192 5.167 6.106 0.008 0.851 0.852 1.566 2.203 1.867 1.205 0.268 2.738 0.632 3.405 0.809 0.668 0.177 1.923 1.845 2.789 3.708 1.302 2.8 2.093 3.505 4.563 4.067 2.83 0.645 2.988 0.846 2.988 3.809 0 2.826 -0.227 3.174 -2.35 3.598 -2.922 0.584 -4.479 2.271 -5.397 5.846 -0.591 2.302 -1.192 2.884 -3.555 3.443 -2.318 0.548 -3.071 1.251 -4.074 3.805 -0.982 2.501 -1.967 3.449 -4.88 4.697 -2.944 1.262 -3.649 1.949 -3.649 3.557 0 1.154 -0.648 2.34 -1.541 2.818 -1.728 0.925 -5.879 1.107 -6.692 0.294 z m 7.965 -18.396 c 4.551 -5.01 5.04 -5.488 7.838 -7.763 l 2.39 -1.943 l -2.39 -1.995 c -1.315 -1.097 -3.939 -2.602 -5.831 -3.345 -2.99 -1.173 -3.379 -1.595 -2.97 -3.226 0.38 -1.516 0.057 -2.033 -1.687 -2.696 -3.475 -1.321 -5.385 -0.662 -5.846 2.02 -0.335 1.948 -1.029 2.583 -3.924 3.589 -1.934 0.672 -3.671 1.685 -3.859 2.25 -0.696 2.09 0.768 5.181 4.187 8.836 1.931 2.065 3.88 4.724 4.33 5.908 1.253 3.297 3.757 2.771 7.76 -1.632 z" fill="#db3a5a"/><use transform="matrix(0.93367 0 0 0.90328 -38.499 103.66)" xlink:href="#1"/><path d="m 155.45 93.87 c -0.292 -0.292 -0.531 -1.3 -0.531 -2.238 0 -2.502 -1.779 -4.523 -4.857 -5.518 -1.929 -0.623 -2.942 -1.567 -3.509 -3.268 -1.237 -3.711 -1.774 -4.206 -5.186 -4.783 -3.264 -0.552 -3.589 -1.015 -4.153 -5.927 -0.155 -1.35 -1.196 -2.447 -3.41 -3.593 -3.82 -1.977 -4.179 -3.915 -0.797 -4.297 3 -0.339 4.113 -1.259 6.01 -4.968 0.945 -1.852 2.392 -3.262 3.879 -3.781 1.379 -0.481 3.228 -2.183 4.415 -4.064 1.194 -1.892 3.173 -3.709 4.763 -4.373 2.89 -1.208 4.442 -3.305 4.442 -6 0 -1.274 0.507 -1.646 2.247 -1.646 1.766 0 2.49 0.551 3.386 2.577 0.867 1.959 1.904 2.787 4.327 3.454 3.182 0.876 5.143 3.192 5.167 6.106 0.008 0.851 0.852 1.566 2.203 1.867 1.205 0.268 2.738 0.632 3.405 0.809 0.668 0.176 1.923 1.845 2.789 3.708 1.302 2.8 2.093 3.505 4.563 4.067 2.83 0.645 2.988 0.846 2.988 3.809 0 2.826 -0.227 3.174 -2.35 3.598 -2.922 0.584 -4.479 2.271 -5.397 5.846 -0.591 2.302 -1.192 2.884 -3.555 3.443 -2.318 0.548 -3.071 1.251 -4.074 3.805 -0.982 2.501 -1.967 3.449 -4.88 4.697 -2.944 1.262 -3.649 1.949 -3.649 3.557 0 1.154 -0.648 2.34 -1.541 2.818 -1.728 0.925 -5.879 1.107 -6.692 0.294 z m 7.965 -18.396 c 4.551 -5.01 5.04 -5.488 7.838 -7.763 l 2.39 -1.943 l -2.39 -1.995 c -1.315 -1.097 -3.939 -2.602 -5.831 -3.345 -2.99 -1.173 -3.379 -1.595 -2.97 -3.226 0.381 -1.516 0.057 -2.033 -1.687 -2.696 -3.475 -1.321 -5.385 -0.662 -5.846 2.02 -0.335 1.948 -1.029 2.583 -3.924 3.589 -1.934 0.672 -3.671 1.685 -3.859 2.25 -0.696 2.09 0.768 5.181 4.187 8.836 1.931 2.065 3.88 4.724 4.33 5.908 1.253 3.297 3.757 2.771 7.76 -1.632 z" fill="#db3a5a"/><use transform="matrix(0.96669 0 0 0.96887 68.66 -32.871)" xlink:href="#1"/><path d="m 212.99 153.54 c -0.296 -0.292 -0.539 -1.3 -0.539 -2.238 0 -2.502 -1.806 -4.523 -4.929 -5.518 -1.957 -0.623 -2.986 -1.567 -3.561 -3.268 -1.255 -3.711 -1.8 -4.206 -5.262 -4.783 -3.312 -0.552 -3.642 -1.015 -4.214 -5.927 -0.157 -1.35 -1.214 -2.447 -3.46 -3.593 -3.876 -1.977 -4.241 -3.915 -0.809 -4.297 3.045 -0.339 4.174 -1.259 6.094 -4.968 0.959 -1.852 2.427 -3.262 3.937 -3.781 1.399 -0.481 3.276 -2.183 4.48 -4.064 1.212 -1.892 3.22 -3.709 4.833 -4.373 2.932 -1.208 4.508 -3.305 4.508 -6 0 -1.274 0.515 -1.646 2.28 -1.646 1.792 0 2.527 0.551 3.436 2.577 0.879 1.959 1.932 2.787 4.391 3.454 3.229 0.876 5.218 3.192 5.244 6.106 0.008 0.851 0.864 1.566 2.235 1.867 1.223 0.268 2.778 0.632 3.456 0.809 0.678 0.177 1.951 1.845 2.83 3.708 1.321 2.8 2.123 3.505 4.63 4.067 2.871 0.645 3.03 0.846 3.03 3.809 0 2.826 -0.23 3.174 -2.384 3.598 -2.965 0.584 -4.545 2.271 -5.476 5.846 -0.6 2.302 -1.21 2.884 -3.607 3.443 -2.352 0.548 -3.116 1.251 -4.134 3.805 -0.997 2.501 -1.996 3.449 -4.952 4.697 -2.988 1.262 -3.703 1.949 -3.703 3.557 0 1.154 -0.658 2.34 -1.564 2.818 -1.754 0.925 -5.965 1.107 -6.791 0.294 z m 8.08 -18.396 c 4.618 -5.01 5.113 -5.488 7.954 -7.763 l 2.426 -1.943 l -2.426 -1.995 c -1.334 -1.097 -3.997 -2.602 -5.917 -3.345 -3.034 -1.173 -3.429 -1.595 -3.01 -3.226 0.386 -1.516 0.058 -2.033 -1.711 -2.696 -3.526 -1.321 -5.464 -0.662 -5.932 2.02 -0.34 1.948 -1.044 2.583 -3.981 3.589 -1.963 0.672 -3.725 1.685 -3.916 2.25 -0.707 2.09 0.78 5.181 4.248 8.836 1.96 2.065 3.937 4.724 4.394 5.908 1.272 3.297 3.812 2.771 7.875 -1.632 z" fill="#db3a5a"/><use transform="matrix(0.93606 -0.24143 0.2419 0.93818 105.52 51.685)" xlink:href="#1"/></g><use transform="translate(13.89 7.576)" xlink:href="#0"/><use transform="translate(71.34 -56.821)" xlink:href="#0"/><use transform="translate(72.6 70.71)" xlink:href="#0"/><use transform="translate(134.48 11.364)" xlink:href="#0"/></svg>