<svg xmlns="http://www.w3.org/2000/svg" viewBox="0 0 256 256"><defs><clipPath><path transform="matrix(15.33333 0 0 11.5 415 -125.5)" d="m -24 13 c 0 1.105 -0.672 2 -1.5 2 -0.828 0 -1.5 -0.895 -1.5 -2 0 -1.105 0.672 -2 1.5 -2 0.828 0 1.5 0.895 1.5 2 z"/></clipPath></defs><path d="m 0.79 124.24 c 2.048 -26.287 14.657 -56.5 32.17 -77.11 c 21.308 -25.06 53.989 -42.46 86.2 -45.881 42.554 -3.856 88.29 23.309 109.99 52.36 10.568 14.596 18.979 33.598 22.658 51.2 9.582 45.814 -8.559 92.1 -47.965 122.39 -23.62 18.15 -47.43 26.931 -75.6 27.873 c -33.769 1.129 -69.981 -14.165 -94.36 -39.852 -22.988 -28.975 -35.463 -58.17 -33.11 -90.994 z" fill="#696969"/><g transform="matrix(1.50987 0 0 1.50932 -169.58 -138.29)"><path d="m 217.65 127.15 c 0 46.955 -38.572 85.02 -86.15 85.02 -47.581 0 -86.15 -38.06 -86.15 -85.02 0 -46.955 38.572 -85.02 86.15 -85.02 47.581 0 86.15 38.06 86.15 85.02 z" transform="matrix(0.63907 0 0 0.64488 112.87 95.87)" fill="#f5f5f5"/><path d="m 206.43 137.41 c 0 35.99 -29.538 65.17 -65.975 65.17 -36.437 0 -65.975 -29.18 -65.975 -65.17 0 -35.99 29.538 -65.17 65.975 -65.17 36.437 0 65.975 29.18 65.975 65.17 z" transform="matrix(0.67937 0 0 0.68988 101.87 83.25)" fill="#120d0e"/><g fill="#fff"><path d="m 159.71 103.22 c -4.223 -1.11 -4.92 -3.751 -2.21 -8.374 1.222 -2.085 3.935 -5.569 6.03 -7.741 4.76 -4.938 7.84 -5.324 11.471 -1.436 5.739 6.144 0.53 15.334 -10.02 17.673 -1.436 0.318 -3.809 0.264 -5.273 -0.121 z" transform="matrix(0.64759 0 0 0.64203 110.52 95.02)"/><path d="m 194.6 155.98 c -4.525 -5.376 -2.43 -14.846 3.285 -14.846 0.881 0 2.041 0.83 3.171 2.267 2.114 2.689 2.355 5.694 0.772 9.639 -1.235 3.08 -2.041 3.972 -4.048 4.482 -1.237 0.315 -1.88 0.002 -3.181 -1.543 z"/><path d="m 179.93 161.81 c 2.735 -0.713 3.186 -2.408 1.431 -5.376 -0.791 -1.339 -2.548 -3.575 -3.905 -4.97 -3.082 -3.17 -5.077 -3.418 -7.428 -0.922 -3.717 3.944 -0.343 9.845 6.487 11.346 0.93 0.204 2.467 0.169 3.415 -0.078 z"/><path d="m 171.53 181.16 c 1.568 -2.333 0.771 -3.898 -2.529 -4.963 -1.488 -0.481 -4.3 -0.997 -6.248 -1.148 -4.428 -0.343 -6.086 0.784 -6.174 4.199 -0.139 5.396 6.334 7.589 12.448 4.218 0.832 -0.459 1.958 -1.496 2.502 -2.305 z"/><path d="m 220.94 182.06 c -1.568 -2.333 -0.771 -3.898 2.529 -4.963 1.488 -0.481 4.3 -0.997 6.248 -1.148 4.428 -0.343 6.086 0.784 6.174 4.199 0.139 5.396 -6.334 7.589 -12.448 4.218 -0.832 -0.459 -1.958 -1.496 -2.502 -2.305 z"/></g><g fill="#ff0707"><path d="m 193.87 187.94 c -4.361 -0.804 -7.813 -3.413 -7.813 -5.905 0 -2.047 2.507 -5.415 4.876 -6.552 3.02 -1.448 4.132 -1.393 14.188 0.692 4.725 0.98 12.1 2.269 16.388 2.866 13.934 2.797 14.363 6.946 5.176 8.32 -4.903 0.701 -29.775 1.14 -32.815 0.58 z"/><path d="m 191.3 209.29 c -5.251 -0.672 -8.388 -3.038 -8.388 -6.329 0 -2.04 2.635 -4.343 5.624 -4.914 3.846 -0.735 14.354 -0.43 17.04 0.493 2.885 0.993 5.123 3.158 5.12 4.953 -0.003 1.848 -1.705 4.06 -3.82 4.965 -2.162 0.925 -11.11 1.402 -15.574 0.832 z"/></g></g></svg>