<svg xmlns="http://www.w3.org/2000/svg" viewBox="0 0 256 256"><defs><clipPath><path d="M 0,64 H64 V128 H0 z"/></clipPath></defs><g fill="#87cefa" color="#000"><path d="m -1360.14 1641.33 c 46.11 -98.28 -119.59 -146.07 -181.85 -106.06 -62.25 40.01 -83.52 108.58 -13.01 143.08 70.51 34.501 148.75 61.26 194.86 -37.03 z" transform="matrix(1.03665 0 0 -1.35742 1657.71 2320.79)"/></g><g transform="matrix(2.46077 0 0 2.46445 -113.8 -182.31)"><path d="m 78.932 151.87 c -3.884 -1.936 -5.765 -5.84 -6.28 -13.03 -0.446 -6.232 -0.265 -7.157 1.836 -9.393 l 2.331 -2.481 l -2.075 -1.454 c -1.584 -1.11 -2.216 -2.939 -2.669 -7.73 -0.327 -3.452 -0.873 -7.91 -1.214 -9.908 -0.413 -2.417 -0.201 -3.891 0.633 -4.406 2.136 -1.32 7.713 -0.618 11.851 1.494 3.411 1.74 10.89 9.635 14.11 14.892 0.88 1.437 1.362 1.197 3.706 -1.848 8.621 -11.197 17.07 -16.305 22.454 -13.58 1.776 0.898 2.246 1.863 2.01 4.126 -0.17 1.625 -0.547 5.782 -0.837 9.238 -0.438 5.215 -0.937 6.552 -2.936 7.862 l -2.408 1.578 l 2.574 3.059 c 2.115 2.514 2.46 3.697 1.934 6.638 c -2.031 11.354 -5.134 16.08 -10.557 16.08 c -2.485 0 -4.256 -1.149 -8.548 -5.545 -2.977 -3.05 -5.413 -5.975 -5.413 -6.5 0 -2.052 -1.799 -0.763 -4.837 3.467 -5.147 7.167 -10.815 9.862 -15.663 7.445 z" fill="#13a0e3"/><path d="m 78.932 151.87 c -3.963 -1.976 -5.8 -5.861 -6.272 -13.268 -0.403 -6.323 -0.216 -7.313 1.702 -9.04 2.857 -2.577 9.07 -4.655 10.883 -3.641 2.107 1.179 -0.212 2.403 -5.797 3.058 -4.284 0.503 -4.479 0.667 -4.387 3.697 0.157 5.194 1 6.459 3.848 5.745 2.918 -0.732 3.301 1.051 1.398 6.51 -1.32 3.787 -0.15 5.613 2.965 4.624 2.143 -0.68 8.509 -11.11 9.716 -15.919 0.691 -2.754 -0.946 -9.844 -2.859 -12.382 -0.616 -0.817 -0.554 -1.25 0.18 -1.25 2.398 0 0.928 -3.458 -3.246 -7.632 -4.18 -4.18 -6.632 -5.447 -6.632 -3.427 0 0.518 0.344 1.153 0.764 1.413 0.42 0.26 0.596 2.583 0.391 5.162 -0.36 4.522 -0.472 4.67 -3.127 4.139 -2.269 -0.454 -2.992 -0.075 -4.1 2.147 -1.312 2.63 -1.363 2.548 -2.032 -3.302 -0.377 -3.3 -1.01 -7.854 -1.405 -10.12 -0.832 -4.766 0.084 -5.757 5.145 -5.567 5.213 0.196 10.835 3.672 15.804 9.772 2.514 3.086 5.03 6.355 5.582 7.263 0.88 1.437 1.362 1.197 3.706 -1.848 8.621 -11.197 17.07 -16.305 22.454 -13.58 1.776 0.898 2.246 1.863 2.01 4.126 -0.17 1.625 -0.545 5.742 -0.833 9.15 -0.305 3.604 -1.126 6.696 -1.964 7.391 -1.164 0.966 -1.325 0.895 -0.84 -0.368 0.33 -0.86 0.096 -2.504 -0.519 -3.654 -0.893 -1.668 -1.502 -1.886 -3.01 -1.078 -3.375 1.806 -4.158 1.243 -3.458 -2.487 l 0.657 -3.5 h -4.088 c -5.277 0 -6.7 2.193 -7.507 11.572 -0.48 5.583 -0.28 7.478 0.95 9 1.49 1.843 1.533 1.81 0.987 -0.761 -0.314 -1.479 -0.09 -2.987 0.5 -3.351 0.59 -0.364 0.801 -1.368 0.47 -2.231 -0.331 -0.863 -0.024 -1.935 0.682 -2.384 1.867 -1.185 6.554 -1.026 7.342 0.249 0.372 0.602 1.764 0.886 3.094 0.632 1.33 -0.254 2.189 -0.234 1.911 0.045 -0.279 0.279 0.641 1.871 2.045 3.539 2.676 3.181 2.712 4.654 0.333 13.793 -1.337 5.134 -5.134 8.897 -8.979 8.897 -2.485 0 -4.256 -1.149 -8.548 -5.545 -2.977 -3.05 -5.413 -5.975 -5.413 -6.5 0 -2.052 -1.799 -0.763 -4.837 3.467 -5.147 7.167 -10.815 9.862 -15.663 7.445 z" fill="#5b6e9d"/><path d="m 80.932 151 c -3.641 -1.383 -5.635 -4.739 -6.777 -11.404 -0.842 -4.918 -0.839 -6.875 0.011 -7.726 0.853 -0.853 1.118 -0.387 1.055 1.853 -0.118 4.145 0.893 5.399 3.772 4.676 2.827 -0.71 3.198 1.13 1.314 6.531 -1.32 3.787 -0.15 5.613 2.965 4.624 2.143 -0.68 8.509 -11.11 9.716 -15.919 0.691 -2.754 -0.946 -9.844 -2.859 -12.382 -0.616 -0.817 -0.554 -1.25 0.18 -1.25 2.398 0 0.928 -3.458 -3.246 -7.632 -4.18 -4.18 -6.632 -5.447 -6.632 -3.427 0 0.518 0.344 1.153 0.764 1.413 0.42 0.26 0.596 2.583 0.391 5.162 -0.362 4.556 -0.454 4.674 -3.208 4.123 -2.298 -0.46 -2.985 -0.148 -3.626 1.647 -0.601 1.681 -0.964 0.65 -1.511 -4.286 -1.481 -13.364 -1.576 -12.469 1.358 -12.808 4.77 -0.552 12.291 4.191 16.718 10.541 7.439 10.671 6.778 10.146 9.142 7.267 1.129 -1.375 3.841 -4.856 6.02 -7.736 4.341 -5.723 10.585 -9.557 14.773 -9.07 2.953 0.341 3.01 0.827 1.448 11.809 -0.542 3.803 -1.01 4.947 -1.514 3.707 -0.582 -1.428 -1.128 -1.581 -2.68 -0.75 -3.434 1.838 -4.217 1.29 -3.515 -2.457 l 0.657 -3.5 h -4.088 c -5.277 0 -6.7 2.193 -7.507 11.572 -0.48 5.583 -0.28 7.478 0.95 9 1.49 1.843 1.533 1.81 0.987 -0.761 -0.314 -1.479 -0.09 -2.987 0.5 -3.351 0.59 -0.364 0.801 -1.368 0.47 -2.231 -0.331 -0.863 -0.024 -1.935 0.682 -2.384 2.644 -1.678 6.04 -0.733 10.433 2.905 l 4.53 3.75 l -0.607 5.324 c -1.856 16.272 -9.145 18.17 -19.344 5.03 -4.04 -5.206 -4.844 -5.815 -5.715 -4.346 -5.261 8.872 -11.899 14.05 -16.01 12.484 z m -2.5 -22.473 c 0 -1.302 4.926 -3.489 6.499 -2.885 1.698 0.652 1.696 0.746 -0.05 2.023 -1.728 1.263 -6.449 1.894 -6.449 0.862 z" fill="#1263d9"/><path d="m 84.05 149.87 c 1.163 -1.305 3.997 -5.639 6.299 -9.631 4.054 -7.03 4.164 -7.453 3.501 -13.5 c -1.131 -10.324 -7.04 -18.742 -13.157 -18.742 c -3.699 0 -4.433 0.744 -3 3.038 0.94 1.505 0.711 2.17 -1.309 3.813 l -2.447 1.991 l -0.808 -3.671 c -1.629 -7.397 -1.424 -8.644 1.476 -8.98 4.77 -0.552 12.291 4.191 16.718 10.541 7.439 10.671 6.778 10.146 9.142 7.267 1.129 -1.375 3.841 -4.856 6.02 -7.736 4.341 -5.723 10.585 -9.557 14.773 -9.07 2.287 0.264 2.647 0.743 2.485 3.309 -0.104 1.65 -0.521 4.575 -0.927 6.5 -0.69 3.269 -0.779 3.337 -1.35 1.026 -0.417 -1.685 -1.635 -2.767 -3.823 -3.395 -1.766 -0.507 -3.211 -1.531 -3.211 -2.276 0 -2.02 -0.815 -1.688 -4.663 1.895 -4.913 4.574 -6.303 7.729 -6.588 14.952 -0.232 5.881 0.058 6.827 4.385 14.298 4.493 7.757 7.278 10.07 8.923 7.408 1.16 -1.876 -1.84 -7.205 -3.663 -6.505 -1.966 0.754 -2.939 -2.041 -1.368 -3.934 1.017 -1.226 0.919 -1.871 -0.526 -3.469 -1.47 -1.624 -1.554 -2.229 -0.49 -3.512 1.071 -1.29 0.968 -1.793 -0.612 -3 -1.646 -1.257 -1.699 -1.582 -0.398 -2.446 2.02 -1.339 4.699 -0.377 9.342 3.35 3.825 3.071 3.864 3.171 3.247 8.432 -1.909 16.283 -9.161 18.17 -19.361 5.03 -4.04 -5.206 -4.844 -5.815 -5.715 -4.346 -3.507 5.914 -7.03 9.705 -10.75 11.584 l -4.263 2.15 l 2.114 -2.373 z m 36.39 -11.838 c 0 -0.531 -0.9 -1.446 -2 -2.035 -2.203 -1.179 -2.688 -0.088 -0.8 1.8 1.446 1.446 2.8 1.56 2.8 0.235 z m -43.29 10.199 c -0.879 -0.971 -2.089 -3.956 -2.689 -6.633 -1.123 -5.01 -0.777 -7.744 0.391 -3.091 0.494 1.97 1.193 2.529 2.87 2.297 1.725 -0.239 2.151 0.136 1.922 1.693 -0.162 1.1 -0.387 3.236 -0.5 4.748 -0.113 1.511 -0.248 2.749 -0.3 2.75 -0.052 0.001 -0.814 -0.792 -1.693 -1.764 z m 3.288 -21.234 c 1.957 -1.264 4 -1.264 4 0 0 0.55 -1.237 0.993 -2.75 0.985 -2.143 -0.012 -2.419 -0.229 -1.25 -0.985 z" fill="#1b59a8"/><path d="m 86.52 149.39 c 0.225 -0.585 2.373 -4.901 4.774 -9.59 4.135 -8.08 4.298 -8.711 3.095 -12.04 -0.698 -1.931 -0.965 -4.304 -0.594 -5.273 0.643 -1.675 0.775 -1.673 2.679 0.05 1.535 1.389 2.277 1.538 3.179 0.636 2.288 -2.288 3.033 -1.169 2.4 3.602 -0.669 5.04 -0.735 4.861 6.313 17.471 2.468 4.416 2.86 5.75 1.688 5.75 -1.346 0 -4.12 -2.904 -10.327 -10.81 l -1.814 -2.31 l -3.492 5.237 c -3.094 4.641 -8.969 10.05 -7.901 7.275 z m 29.647 -4.501 c -1.166 -2.048 -2.278 -2.897 -3.288 -2.51 -2.02 0.774 -3.02 -1.986 -1.424 -3.912 1.017 -1.226 0.919 -1.871 -0.526 -3.469 -1.453 -1.605 -1.547 -2.239 -0.516 -3.481 0.967 -1.166 0.988 -1.847 0.089 -2.93 -2.334 -2.812 0.951 -2.743 5.606 0.118 5.314 3.266 6.91 5.313 5.997 7.692 -0.597 1.555 -0.816 1.556 -3.159 0.021 -3.32 -2.175 -3.264 -0.13 0.063 2.294 2.287 1.666 2.481 2.266 1.704 5.265 -1.152 4.444 -2.395 4.693 -4.547 0.912 z m -40.07 1.443 c -0.367 -0.367 -0.667 -1.717 -0.667 -3 0 -1.667 0.571 -2.333 2 -2.333 2.02 0 2.503 1.526 1.393 4.418 -0.644 1.679 -1.631 2.01 -2.726 0.915 z m -3.187 -35.04 c -0.851 -2.037 -1.416 -4.4 -1.255 -5.25 0.346 -1.828 5.576 -2.539 7.776 -1.057 1.333 0.898 1.333 1.12 0 1.994 -0.825 0.541 -1.899 1.124 -2.386 1.295 -0.487 0.171 -0.262 1.317 0.5 2.547 1.195 1.927 1.18 2.366 -0.114 3.189 -2.379 1.513 -2.878 1.213 -4.521 -2.719 z m 44.856 1.481 c -4.092 -1.317 -4.949 -4.329 -1.815 -6.383 3.109 -2.037 7.852 -1.475 8.32 0.987 0.36 1.894 -1.678 6.706 -2.759 6.516 -0.32 -0.056 -2.01 -0.56 -3.746 -1.12 z" fill="#1428a4"/><path d="m 86.43 149.47 c 0 -0.426 2.068 -4.359 4.596 -8.741 4.159 -7.211 4.533 -8.383 3.939 -12.345 -0.769 -5.127 -0.029 -7.04 2.054 -5.31 1.078 0.895 1.744 0.895 2.822 0 2 -1.661 2.751 0.063 2.02 4.647 -0.525 3.286 0.059 5.118 4.04 12.666 2.56 4.853 4.366 9.113 4.01 9.465 -0.658 0.658 -5.04 -3.83 -9.481 -9.702 l -2.5 -3.308 l -3.5 5.256 c -3.205 4.812 -8 9.231 -8 7.372 z m 34.638 -14.97 c -0.317 -0.825 -0.14 -1.5 0.393 -1.5 0.533 0 0.969 0.675 0.969 1.5 0 0.825 -0.177 1.5 -0.393 1.5 -0.216 0 -0.652 -0.675 -0.969 -1.5 z m -48.636 -24.495 c -1.579 -3.813 -0.709 -6.01 2.385 -6.01 c 5.379 0 7.489 2.312 3.113 3.411 -1.582 0.397 -2.5 1.333 -2.5 2.549 0 3.184 -1.687 3.21 -2.998 0.045 z m 45.69 -0.07 c -3.675 -2.705 -3.734 -2.842 -1.701 -3.93 1.159 -0.62 3.322 -0.987 4.808 -0.816 2.059 0.238 2.772 0.926 3 2.897 0.504 4.337 -1.787 5.03 -6.108 1.849 z" fill="#13255d"/><path d="m 88.47 147.68 c -0.052 -1.026 4.803 -9.594 6.717 -11.856 0.925 -1.093 1.302 -3.351 1.081 -6.474 -0.319 -4.503 -0.191 -4.798 2.095 -4.822 2.21 -0.023 2.443 0.39 2.523 4.474 0.063 3.224 1.145 6.389 3.815 11.162 2.05 3.664 3.727 6.997 3.727 7.405 0 1.49 -4.273 -3.177 -6.699 -7.316 -2.77 -4.727 -4.79 -5.424 -5.661 -1.955 -0.584 2.328 -7.522 10.894 -7.599 9.382 z m 30.71 -38.519 c -3.458 -2.087 -3.458 -2.786 -0.002 -3.47 3.224 -0.638 5.608 1.214 4.68 3.634 -0.767 2 -1.113 1.988 -4.678 -0.164 z m -47.31 -1.255 c -1.249 -2.02 1.937 -4.079 4.629 -2.989 l 2.43 0.983 l -2.25 0.668 c -1.237 0.367 -2.25 1.065 -2.25 1.551 0 1.245 -1.748 1.1 -2.559 -0.213 z" fill="#090f24"/></g></svg>