<svg xmlns="http://www.w3.org/2000/svg" viewBox="0 0 256 256"><defs><clipPath><path d="M 0,64 H64 V128 H0 z"/></clipPath></defs><g fill="#759ba0" color="#000"><path d="m -1364.44 1637.2 c 46.11 -98.28 -115.29 -141.94 -177.55 -101.93 -62.25 40.01 -83.52 108.58 -13.01 143.08 70.51 34.501 139.38 67.53 185.49 -30.762 z" transform="matrix(-0.95802 -0.34548 0.47187 -1.20264 -2047.26 1564.67)"/></g><path d="m 122.18 215.29 c -3.183 -1.66 -10.902 -5.865 -17.15 -9.345 -12.289 -6.84 -12.03 -6.697 -29.395 -16.287 -6.467 -3.572 -12.966 -7.172 -14.443 -8 -1.477 -0.829 -3.383 -2.424 -4.237 -3.546 -1.429 -1.877 -1.481 -2.466 -0.647 -7.417 0.598 -3.551 0.906 -18.17 0.906 -43.05 0 -24.748 0.283 -38.28 0.825 -39.441 0.462 -0.988 3.482 -3.209 6.859 -5.04 3.318 -1.802 9.737 -5.402 14.264 -7.999 4.527 -2.597 9.289 -5.286 10.582 -5.976 1.293 -0.69 4.997 -2.788 8.231 -4.663 3.233 -1.875 6.837 -3.938 8.01 -4.584 1.171 -0.646 4.169 -2.342 6.663 -3.767 2.494 -1.426 5.593 -3.126 6.886 -3.779 1.293 -0.653 3.193 -1.821 4.221 -2.597 2.409 -1.817 7.178 -1.817 9.587 0 1.028 0.776 2.928 1.944 4.221 2.597 1.293 0.653 4.392 2.353 6.886 3.779 2.494 1.426 5.492 3.121 6.663 3.767 1.171 0.646 4.774 2.709 8.01 4.584 3.233 1.875 6.937 3.973 8.231 4.663 1.293 0.69 6.06 3.379 10.582 5.976 4.527 2.597 10.946 6.197 14.264 7.999 3.377 1.834 6.397 4.054 6.859 5.04 0.542 1.16 0.825 14.693 0.825 39.441 0 24.879 0.308 39.502 0.906 43.05 0.835 4.961 0.784 5.539 -0.66 7.451 -1.325 1.754 -8.286 5.986 -24.937 15.16 -38.773 21.367 -43.35 23.825 -45.557 24.497 -1.139 0.346 -3.476 -0.443 -7.447 -2.514 z m -6.367 -37.11 c 6.951 -3.257 11.817 -12.322 10.86 -20.234 -0.257 -2.125 -0.688 -5.179 -0.957 -6.786 -0.485 -2.896 -0.405 -3.01 8.823 -12.142 l 9.313 -9.219 l 8.611 -0.157 c 7.832 -0.143 8.943 -0.349 12.285 -2.276 3.955 -2.28 8.657 -7.375 9.998 -10.832 1.107 -2.857 1.052 -6.895 -0.111 -8.04 -1.627 -1.596 -3.129 -1.026 -6.435 2.442 -3.797 3.984 -5.772 5.091 -9.09 5.091 -3.02 0 -4.821 -0.9 -9.634 -4.822 -7.536 -6.141 -7.884 -11.6 -1.194 -18.741 1.864 -1.989 1.624 -5.137 -0.421 -5.52 -5.735 -1.072 -14.04 5.261 -16.969 12.935 -1.8 4.721 -1.806 5.073 -0.258 15.613 0.422 2.874 0.273 3.08 -8.643 11.915 l -9.07 8.991 l -8.486 0.384 c -7.919 0.359 -8.771 0.556 -12.766 2.961 -7.503 4.517 -12.292 12.358 -10.242 16.77 1.232 2.652 2.871 2.219 7.756 -2.051 3.853 -3.368 4.821 -3.844 7.823 -3.844 3.86 0 8.432 2.628 12.526 7.201 4.294 4.796 4.067 10.335 -0.605 14.725 -3.792 3.562 -2.733 8.684 1.583 7.661 1.079 -0.256 3.465 -1.169 5.302 -2.03 z m 58.04 -0.805 c 0.517 -0.507 0.918 -1.805 0.89 -2.883 -0.081 -3.106 -4.822 -11.789 -7.02 -12.85 -1.071 -0.518 -4.24 -1.944 -7.04 -3.17 -2.802 -1.225 -6.33 -3.367 -7.839 -4.759 -5 -4.613 -9.16 -7.702 -10.371 -7.702 -3.154 0 -3.377 5.239 -0.311 7.334 4.406 3.01 10.155 9.501 12.273 13.851 2.819 5.792 3.457 6.337 10.474 8.942 6.344 2.355 7.623 2.532 8.944 1.236 z m -61.13 -55.38 c 3.529 -3.484 6.416 -6.976 6.416 -7.761 0 -2.56 -2.447 -5.37 -12.626 -14.498 -13.316 -11.94 -16.12 -12.464 -23.762 -4.448 -4.355 4.566 -5.094 7.01 -3.177 10.5 1.397 2.545 19.628 19.898 22.712 21.619 2.826 1.577 3.947 0.996 10.438 -5.412 z" fill="#3b4546" transform="translate(-1.085 4.339)"/></svg>