<svg xmlns="http://www.w3.org/2000/svg" viewBox="0 0 256 256"><g fill="#60389b" color="#000"><path d="m -461.56 1509.46 c -102.66 -72.48 -252.13 71.24 -188.42 177.65 55.11 98.31 215.88 55.803 236.4 -48.33 13.01 -47.39 -5.347 -103.13 -47.986 -129.32 z" transform="matrix(-0.83368 -0.52419 0.48714 -0.91889 -1107.76 1333.91)"/></g><g transform="matrix(1.02527 0 0 1.02516 -164.45 126.92)"><path d="m 269 85.56 c -26.725 -4.848 -50.28 -22.485 -62.5 -46.79 -16.793 -33.412 -9.328 -74.76 18.2 -100.82 c 16.226 -15.356 37.22 -23.688 59.681 -23.688 35.03 0 65.938 20.981 79.29 53.829 4.721 11.615 5.631 16.776 5.645 32.02 0.012 12.884 -0.155 14.595 -2.124 21.752 -2.546 9.255 -7.607 20.12 -13.03 27.978 -4.651 6.736 -15.377 17.325 -22.353 22.07 -17.571 11.947 -42.42 17.349 -62.804 13.652 z m 24.692 -34.619 c 17.951 -2.915 33.73 -16.401 40.11 -34.29 2.693 -7.543 3.381 -21.07 1.457 -28.605 -4.758 -18.628 -17.954 -32.561 -36.14 -38.16 -8.209 -2.526 -20.501 -2.526 -28.71 0 -18.19 5.596 -31.382 19.529 -36.14 38.16 -1.925 7.536 -1.236 21.06 1.457 28.605 2.77 7.759 6.772 14.09 12.529 19.809 12.214 12.14 28.29 17.263 45.43 14.479 z" fill="#a232a2"/><path d="m 234.95 46.42 c -15.194 -16.12 -21.975 -38.808 -17.575 -58.806 9.845 -44.744 57.02 -67.69 97.11 -47.23 4.63 2.362 4.675 2.44 3.982 6.913 -2.311 14.921 -15.936 64.14 -18.474 66.731 -2.187 2.234 -17.967 0.598 -17.932 -1.859 0.014 -0.974 1.692 -8.334 3.73 -16.355 2.038 -8.02 3.462 -14.977 3.165 -15.458 -0.552 -0.893 -26.445 -1.27 -26.445 -0.385 0 2.306 -18.707 71.805 -19.556 72.65 -0.76 0.76 -3.296 -1.205 -8.01 -6.2 z m 4.782 -7.613 c 0 -0.183 3.96 -13.973 8.799 -30.644 4.84 -16.671 9.04 -31.377 9.333 -32.678 0.458 -2.032 1.536 -2.474 7.637 -3.127 7.258 -0.777 31.354 -0.119 32.357 0.884 0.305 0.305 -0.933 6.994 -2.751 14.864 -1.819 7.87 -3.306 15.25 -3.306 16.4 0 3.144 3.146 2.514 4.449 -0.892 2.501 -6.541 14.02 -47.767 14.638 -52.39 0.792 -5.929 0.277 -6.469 -9.325 -9.781 -13.643 -4.706 -32.887 -3.109 -46.665 3.873 -12.784 6.478 -24.562 20.14 -29.44 34.16 -3.558 10.222 -3.569 28.971 -0.025 39.26 2.946 8.55 10.294 20.404 12.648 20.404 0.908 0 1.651 -0.15 1.651 -0.332 z" fill="#ffe73a"/><path d="m 271.45 67.983 c -12.623 -3.576 -22.78 -8.606 -22.78 -11.282 0 -2.226 17.325 -66.782 18.734 -69.806 1.266 -2.718 1.908 -2.931 9.751 -3.234 7.098 -0.275 8.396 -0.05 8.396 1.452 0 0.977 -1.464 8.06 -3.254 15.747 -1.79 7.684 -3.254 14.878 -3.254 15.988 0 1.661 1.243 2.154 7.04 2.791 3.871 0.425 9.834 0.34 13.251 -0.19 l 6.213 -0.963 l 9.354 -34.27 c 5.145 -18.846 9.92 -34.846 10.611 -35.555 3.175 -3.258 17.189 16.388 22.09 30.962 7.866 23.414 1.482 51.07 -15.917 68.945 -13.13 13.492 -26.443 19.428 -45.04 20.08 -6.264 0.221 -13.1 -0.082 -15.186 -0.674 z m 32.368 -7.749 c 19.275 -6.954 32.7 -21.02 38.779 -40.634 4.791 -15.455 3.696 -31.422 -3.151 -45.952 -3.539 -7.509 -9.806 -15.741 -11.04 -14.502 -0.918 0.919 -4.281 12.606 -11.471 39.865 -2.987 11.324 -5.89 21.716 -6.45 23.09 -1 2.462 -1.341 2.504 -20.03 2.504 -16.488 0 -19.01 -0.23 -19.01 -1.734 0 -0.954 1.464 -7.686 3.254 -14.959 3.867 -15.716 4.073 -18.919 1.218 -18.919 -1.12 0 -2.523 0.626 -3.117 1.391 -1.607 2.069 -17.619 60.19 -17.624 63.97 -0.002 1.964 7.881 5.812 15.606 7.617 9.332 2.181 24.36 1.39 33.03 -1.739 z" fill="#2fffcb"/></g></svg>