<svg xmlns="http://www.w3.org/2000/svg" viewBox="0 0 256 256"><g fill="#221b15" color="#000"><path d="m 244.84 882.37 c 49.681 128.5 -89.55 194.42 -176.23 161.67 -60.5 -22.859 -90.65 -113.97 -47.683 -187.62 54.22 -92.93 185.6 -73.16 223.92 25.949 z" transform="matrix(0 -1 -0.99153 0 1044.54 257.1)"/></g><g fill="#fff"><path d="m -11.378 316.4 c -6.985 -1.569 -13.933 -5.614 -17.934 -10.441 -4.671 -5.635 -7.437 -15.786 -6.756 -24.792 1.327 -17.55 12.516 -28.844 29.871 -30.15 7.454 -0.562 18.621 1.43 21.525 3.841 1.476 1.225 1.879 11.853 0.45 11.853 -0.48 0 -3.01 -0.947 -5.632 -2.105 -6.236 -2.758 -17 -2.39 -21.21 0.725 -7.889 5.835 -10.422 20.731 -5.255 30.905 4.506 8.872 14.13 11.642 25.973 7.476 3.03 -1.064 5.86 -1.949 6.3 -1.967 0.44 -0.018 0.665 2.555 0.5 5.717 l -0.3 5.75 l -5.055 1.678 c -7.131 2.367 -16.01 2.965 -22.472 1.514 z m -83.27 -1.319 c -1.307 -1.307 -0.834 -60.845 0.494 -62.17 1.491 -1.491 20.305 -1.589 30.3 -0.158 13.374 1.916 19.98 8.68 19.98 20.458 0 7.972 -2.68 13.08 -8.883 16.933 -4.081 2.534 -5.901 2.982 -13.409 3.299 -14.158 0.597 -13.07 -0.336 -13.403 11.529 l -0.285 10.24 l -7.04 0.29 c -3.874 0.159 -7.362 -0.028 -7.75 -0.417 z m 29.26 -33.856 c 4.061 -2.1 5.612 -7.198 3.631 -11.938 -1.811 -4.334 -5.05 -5.783 -12.03 -5.375 l -5.064 0.296 l -0.295 7.912 c -0.162 4.351 -0.064 8.514 0.219 9.25 0.708 1.845 9.885 1.748 13.543 -0.144 z m -56.966 -74.91 c 0 -35.1 -0.574 -32.607 7.5 -32.607 8.07 0 7.5 -2.497 7.5 32.607 v 31.393 h -7.5 h -7.5 v -31.393 z m 31.607 29.811 c -0.334 -0.87 -0.607 -14.73 -0.607 -30.8 0 -21.392 0.321 -29.54 1.2 -30.418 1.492 -1.492 20.332 -1.589 30.25 -0.156 3.822 0.552 8.32 1.805 9.997 2.784 8.682 5.071 10.187 16.315 3.208 23.973 l -2.097 2.301 l 3.106 2.431 c 8.226 6.438 8.329 20.596 0.194 26.737 -5.173 3.905 -9.992 4.718 -27.999 4.724 -14.257 0.005 -16.73 -0.221 -17.25 -1.576 z m 30.26 -10.523 c 5.774 -2.01 7.133 -9.172 2.442 -12.862 -2.261 -1.779 -3.802 -2.067 -9.75 -1.823 l -7.06 0.29 l -0.299 6.91 c -0.21 4.852 0.088 7.156 1 7.735 1.875 1.189 9.967 1.041 13.671 -0.25 z m -0.094 -28.452 c 1.56 -1.093 2.223 -2.576 2.223 -4.977 0 -4.841 -3.093 -6.661 -10.655 -6.269 l -5.845 0.303 l -0.31 4.873 c -0.17 2.68 -0.072 5.493 0.219 6.25 0.76 1.981 11.475 1.847 14.369 -0.18 z m 36.21 39.35 c -0.345 -41.4 0.04 -61.2 1.204 -61.936 1.639 -1.039 15.888 -1.095 17.502 -0.068 0.658 0.418 4.258 7.688 8 16.15 3.742 8.467 7.295 15.557 7.895 15.755 0.6 0.198 4.155 -6.648 7.899 -15.215 3.744 -8.566 7.611 -16 8.593 -16.53 2.157 -1.155 15.905 -1.249 17.681 -0.122 0.985 0.625 1.206 7.654 1 31.735 l -0.265 30.932 l -6.73 0.295 l -6.73 0.295 l -0.27 -20.795 c -0.171 -13.13 -0.639 -20.748 -1.27 -20.667 -0.55 0.07 -3.827 6.37 -7.283 14 -3.456 7.63 -7.03 14.435 -7.941 15.12 -0.912 0.688 -3.061 1.25 -4.776 1.25 -1.715 0 -3.803 -0.563 -4.64 -1.25 -0.837 -0.688 -4.359 -7.662 -7.827 -15.5 -3.468 -7.838 -6.685 -14.25 -7.149 -14.25 -0.464 0 -0.966 9.338 -1.114 20.75 l -0.27 20.75 l -6.75 0.296 c -5.01 0.219 -6.753 -0.039 -6.761 -1 z" fill="#fff" transform="matrix(0.79892 0 0 0.74741 155.4 -46.13)"/></g></svg>