<svg xmlns="http://www.w3.org/2000/svg" viewBox="0 0 256 256"><path d="m 4.298 157.14 c 49.561 236.38 390.55 -17.383 185.72 -137.54 -79.58 -51.5 -211.21 15.962 -185.72 137.54 z" fill="#f4a460" color="#000"/><path d="m 71.31 207.81 c -1.795 -1.095 -4.492 -3.45 -5.992 -5.233 -6.257 -7.987 -3.233 -29.658 -3.441 -40.555 -0.392 -20.522 -0.713 -45.698 -0.713 -55.946 -0.403 -21.532 4.654 -40.514 20.716 -49.49 13.92 -7.64 19.276 -9.251 30.777 -9.258 10.666 -0.007 15.806 1.345 25.396 6.679 12.362 6.876 21.07 20.809 21.495 39.991 -3.234 25.02 -6.927 47.989 -59.04 44.694 -4.11 5.389 -4.878 1.394 -6.276 32.921 -1.259 28.395 -1.322 28.901 -3.981 32.06 -5.03 5.98 -13.05 7.732 -18.939 4.139 z m 50.663 -96.26 c 9.02 -7.318 10.908 -20.979 5.732 -28.14 -5.239 -7.196 -13.755 -9.608 -21.903 -6.204 -12.66 5.29 -15.808 25.1 -5.19 32.663 5.953 4.239 15.995 5.03 21.361 1.681 z" transform="matrix(0.80345 0 0 0.73876 24.16 32.946)" fill="#9c341c"/><g fill="#8b4513"><path d="m 147.78 184.78 c -4.277 -1.669 -6.593 -4.693 -7.539 -9.844 -0.989 -5.384 1.128 -13.618 4.888 -19.01 1.925 -2.759 6.157 -5.694 9.62 -6.67 4.34 -1.224 7.756 -0.402 10.416 2.506 2.29 2.504 1.929 3.2 3.827 -7.368 l 1.369 -7.624 h 5.541 c 5.04 0 5.517 0.088 5.282 0.97 -0.142 0.534 -2.131 11.263 -4.42 23.844 l -4.161 22.873 h -5.513 h -5.513 l 0.306 -1.525 c 0.168 -0.839 0.393 -1.837 0.501 -2.218 0.3 -1.065 -0.147 -0.855 -2.67 1.251 -2.37 1.979 -6.379 3.62 -8.733 3.576 -0.716 -0.013 -2.156 -0.357 -3.2 -0.765 z m 12.167 -10.368 c 3.3 -1.747 4.925 -4.745 4.936 -9.106 0.01 -3.94 -0.786 -5.358 -3.57 -6.363 -7.759 -2.8 -14.593 12.302 -7.166 15.834 2.228 1.059 3.228 0.997 5.8 -0.365 z"/><path d="m 115.02 184.49 c -3.347 -1.299 -6.256 -4.401 -7.723 -8.236 -3.324 -8.685 1.913 -21.07 11.05 -26.13 2.563 -1.418 4.092 -1.853 7.238 -2.057 2.194 -0.143 4.771 -0.095 5.726 0.107 3.775 0.796 9.191 6.522 7.398 7.821 -0.383 0.278 -2.233 1.558 -4.111 2.844 l -3.414 2.339 l -1.569 -1.484 c -2.845 -2.691 -7.48 -1.817 -10.293 1.941 -3.525 4.709 -2.577 12.334 1.665 13.382 1.961 0.484 5.232 -0.558 7 -2.23 l 1.431 -1.354 l 3.14 3.03 l 3.14 3.03 l -1.994 2.025 c -2.529 2.568 -6.097 4.594 -9.536 5.414 -3.723 0.888 -5.994 0.777 -9.143 -0.445 z"/></g></svg>