<svg xmlns="http://www.w3.org/2000/svg" viewBox="0 0 256 256"><path d="m 106.71 253.21 c -41.505 -8.141 -78.35 -40.17 -94.35 -82 -13.423 -35.08 -11.584 -69.29 5.319 -99.39 12.717 -22.64 37.446 -43.762 66.35 -56.669 30.822 -13.764 58.17 -16.918 85.02 -9.803 c 66.27 17.561 104.07 109.47 74.02 179.98 -14.687 34.463 -44.37 57.785 -84.57 66.45 -17.16 1.38 -35.499 4.337 -51.79 1.432 z" fill="#faf4d8"/><path d="m 68.833 190.36 c -5.982 -0.177 -6.366 -0.365 -6.366 -3.116 0 -2.546 0.804 -3.077 5.03 -3.325 l 3.578 -0.21 v -58.22 v -58.22 l -1.524 -0.496 c -2.07 -1.088 -1.524 -2.056 -1.524 -4.207 h 52.47 h 52.47 l 0.114 1.472 c 0.209 2.714 0.215 2.712 -9.785 2.945 l -9.05 0.21 c -0.077 8.121 -0.154 16.241 -0.231 24.362 l 2.592 2.542 c 1.426 1.398 2.721 3.052 2.878 3.676 -0.166 3.898 -2.103 5.244 -4.804 7.472 l -0.285 5.161 c -0.296 5.702 -0.327 11.06 -0.368 16.741 l 2.879 5.568 c 1.583 3.062 3.506 6.42 4.274 7.461 1.952 2.649 5.112 9.424 4.782 10.254 -0.378 0.952 -0.838 0.859 -2.331 -0.474 -1.246 -1.112 -3.518 -4.671 -7.855 -12.304 -2.677 -4.712 -3.29 -4.82 -5.492 -0.971 -2.01 3.512 -4.459 6.902 -6.421 10.315 -1.882 3.289 -3.199 4.426 -4.11 3.546 -0.908 -1.74 5.358 -11.393 8.5 -17.472 l 2.509 -4.792 c 0.088 -5.949 0.176 -11.897 0.265 -17.846 l -8.444 -0.221 c -8.358 -0.219 -10.326 -0.554 -10.326 -1.759 0 -1.335 1.333 -1.602 9.586 -1.919 4.562 -0.175 8.417 -0.438 8.567 -0.582 -1.131 -2.429 -4.621 -4.172 -4.656 -6.779 0.647 -3.549 2.229 -4.583 4.789 -6.57 0 -8.354 0 -16.709 0 -25.06 l -31.21 -0.293 l -31.21 -0.293 l -5.341 5.378 l -5.341 5.378 l -0.022 47.68 l -0.022 47.68 c 3.669 3.61 7.338 7.22 11.01 10.83 l 57.59 0.118 c 31.677 0.065 57.741 0.26 57.921 0.434 0.42 0.406 0.427 5.266 0.009 5.671 -0.321 0.31 -125.24 0.536 -135.09 0.244 z" fill="#232426" stroke="#232426" stroke-width="2.549"/></svg>