<svg xmlns="http://www.w3.org/2000/svg" viewBox="0 0 256 256"><g color="#000" fill="#170b1c"><path d="m 244.84 882.37 c 49.681 128.5 -89.55 194.42 -176.23 161.67 -60.5 -22.859 -90.65 -113.97 -47.683 -187.62 54.22 -92.93 185.6 -73.16 223.92 25.949 z" transform="matrix(1 0 0 0.99153 0 -787.44)"/></g><g transform="matrix(0.40768 0 0 0.41108 -3.441 -99.13)"><path transform="translate(-74.933 210.4)" d="m 572.65 350.56 c 0 101.52 -82.3 183.82 -183.82 183.82 -101.52 0 -183.82 -82.3 -183.82 -183.82 0 -101.52 82.3 -183.82 183.82 -183.82 101.52 0 183.82 82.3 183.82 183.82 z" fill="#fff"/><g stroke="#000"><path transform="translate(-69.52 218.33)" d="m 557.45 342.63 c 0 96.12 -77.918 174.03 -174.03 174.03 -96.12 0 -174.03 -77.918 -174.03 -174.03 0 -96.12 77.918 -174.03 174.03 -174.03 96.12 0 174.03 77.918 174.03 174.03 z" fill="#ffe5b7" stroke-width="4"/><path d="m 139.88 572.55 l 66.09 -89.09 l 17.191 44.617 l 32.28 -46.925 l 96.39 53.586 l 8.289 -60.839 l 38.07 30.466 l -9.517 -42.07 l 51.661 18.86 l 47.583 100.47 c 1.36 -265.49 -345.32 -246.99 -348.04 -9.07 z" stroke-width="1.033"/></g></g></svg>