<svg xmlns="http://www.w3.org/2000/svg" viewBox="0 0 256 256"><defs><clipPath><rect width="46" height="46" x="1" y="1" rx="4" fill="#1890d0"/></clipPath><clipPath><rect width="46" height="46" x="1" y="1" rx="4" fill="#1890d0"/></clipPath></defs><g transform="translate(0 -796.36)"><path d="m 28.755 857.41 c -84.15 93.8 48.589 238.14 159.69 179.78 112.33 -59 82.39 -254.26 -55.56 -237.66 -41.05 4.944 -76.67 27.28 -104.13 57.877" fill="#4f4e5c" color="#000"/><g transform="matrix(0.86076 0 0 0.85356 11.932 145.91)" fill-opacity="0"><ellipse cx="118.04" cy="873.53" rx="4.477" ry="5.419" fill="#ff8c00"/><g fill="#fff"><path d="m 136.19 870.94 a 16.493 6.597 0 0 1 -1.559 2.8"/><path d="m 117.34 872.59 a 8.953 4.01 0 0 1 -0.846 1.7"/></g></g><g transform="matrix(0.63019 0 0 0.64106 50.916 328.87)"><path d="m 131.82 1028.53 c -10.246 -2.414 -17.13 -8.983 -21.918 -20.912 -4.057 -10.111 -4.157 -18.755 -0.325 -28 4.907 -11.837 13.253 -20.693 24.282 -25.767 4.786 -2.202 7.64 -2.725 17.374 -3.184 12.194 -0.575 12.98 -0.86 18.06 -6.549 3.159 -3.536 7.561 -11.821 9.828 -18.5 2.711 -7.986 5.135 -25.948 4.304 -31.895 l -0.614 -4.395 l -18.241 0.539 c -19.11 0.565 -23.623 1.534 -26.18 5.626 -0.644 1.032 -9.125 21.39 -18.846 45.24 -9.721 23.851 -18.713 45.41 -19.982 47.919 -9.657 19.06 -38.05 32.679 -60.754 29.14 -14.517 -2.26 -23.956 -9.11 -29.547 -21.441 c -6.436 -14.194 -6.458 -21.06 -0.11 -34.378 6.65 -13.949 19.265 -23.593 34.929 -26.704 c 4.163 -0.827 9.784 -1.253 12.633 -0.957 7.27 0.754 11.476 -0.931 15.174 -6.081 6.817 -9.493 10.13 -21.991 10.1 -38.12 -0.017 -10.757 -0.865 -16.935 -4.513 -32.866 -1.708 -7.458 -1.711 -7.932 -0.067 -9.134 2.288 -1.673 57.853 -2.738 120.67 -2.314 l 46.5 0.314 l 0.063 3.105 c 0.035 1.708 1.047 4.356 2.25 5.885 3.9 4.958 4.647 2.396 -16.475 56.51 -36.577 93.71 -35.38 91.05 -45.4 101.11 -7.225 7.251 -16.988 12.731 -27.397 15.377 -6.439 1.637 -19.736 1.857 -25.805 0.427 z m 12.227 -50.1 c 2.277 -2.445 2.508 -3.403 1.039 -4.311 -0.55 -0.34 -1 -1.69 -1 -3 0 -3.172 -1.098 -3.681 -4.326 -2.01 -2.531 1.313 -2.625 1.283 -1.649 -0.539 0.569 -1.062 2.146 -2.21 3.505 -2.552 2.173 -0.545 3.642 -3.403 1.75 -3.403 -1.237 0 -12.279 11.372 -12.279 12.646 0 1.999 5.073 5.354 8.096 5.354 1.62 0 3.697 -0.934 4.865 -2.189 z m -20.461 -2.811 c 0.34 -0.55 0.141 -1 -0.441 -1 -0.582 0 -1.059 0.45 -1.059 1 0 0.55 0.198 1 0.441 1 0.243 0 0.719 -0.45 1.059 -1 z m -79.06 -12.933 c 1.672 -1.848 1.657 -1.99 -0.345 -3.241 -1.304 -0.814 -2.094 -2.349 -2.094 -4.067 0 -3.051 -0.515 -3.263 -3.583 -1.474 -4.136 2.412 -7.417 5.534 -7.417 7.06 0 3.829 10.334 5.154 13.439 1.723 z m 4.864 -12.554 c 0.108 -0.542 -0.59 -1.138 -1.553 -1.323 -1.095 -0.211 -1.75 0.28 -1.75 1.31 0 1.74 2.955 1.752 3.303 0.014 z m 51.37 -95.94 c -0.673 -1.754 -4.668 -2.192 -4.668 -0.512 0 0.586 0.494 1.989 1.098 3.117 0.988 1.846 1.251 1.897 2.637 0.512 0.847 -0.847 1.267 -2.249 0.934 -3.117 z" fill="#9f9ea1"/><path d="m 129.24 1026.49 c -8.583 -2.718 -13.629 -7.852 -18.02 -18.338 -5.68 -13.562 -4.232 -25.503 4.577 -37.745 9.257 -12.864 20.744 -18.797 36.39 -18.797 10.507 0 13.06 -1.02 18.01 -7.186 8.584 -10.705 11.922 -20.21 13.97 -39.764 1.394 -13.314 0.752 -15.749 -4.281 -16.232 -1.816 -0.174 -10.397 0.013 -19.07 0.416 -16.649 0.774 -20.36 1.741 -23.18 6.04 -0.804 1.227 -9.608 22.255 -19.565 46.729 -9.957 24.474 -19.235 46.43 -20.618 48.796 -10.144 17.338 -37.27 29.597 -58.27 26.333 -8.286 -1.288 -15.952 -4.414 -20.722 -8.45 c -3.934 -3.328 -10.861 -16.861 -12.383 -24.19 -1.457 -7.02 -0.65 -11.826 3.502 -20.846 8.397 -18.243 24.23 -27.649 47.11 -27.986 l 10.63 -0.156 l 3.867 -4.491 c 4.134 -4.802 9.09 -16.15 10.831 -24.808 2.371 -11.784 1.292 -27.89 -3.118 -46.529 -1.897 -8.02 -1.945 -8.972 -0.521 -10.396 1.397 -1.397 10.506 -1.579 83.39 -1.672 l 81.82 -0.104 v 3 c 0 1.778 0.917 3.917 2.25 5.25 4.162 4.162 5.284 0.676 -25.509 79.25 -23.721 60.53 -25.437 64.51 -30.842 71.64 -13.754 18.12 -39.559 26.793 -60.24 20.244 z m 1.065 -32.638 c -3.542 -1.181 2.311 -5.766 8.276 -6.483 2.384 -0.287 19.53 1.045 24.5 1.903 1.925 0.332 3.212 0.294 2.861 -0.085 -0.352 -0.379 -5.507 -1.566 -11.457 -2.639 -5.95 -1.073 -11.234 -2.368 -11.744 -2.877 -0.569 -0.569 0.187 -1.934 1.957 -3.535 2.602 -2.354 3.443 -2.556 8.633 -2.067 14.282 1.346 18.423 1.529 14.25 0.63 -2.2 -0.474 -7.262 -1.403 -11.25 -2.065 -8.163 -1.356 -9.176 -2.865 -4.728 -7.04 2.502 -2.351 2.597 -2.359 12.25 -1.134 16.525 2.098 18.937 2.281 16.728 1.269 -1.1 -0.504 -5.892 -1.469 -10.648 -2.144 -9.663 -1.371 -11.408 -2.08 -10.559 -4.29 0.799 -2.083 9.77 -3.088 21.1 -2.364 9.07 0.58 9.09 0.577 4.859 -0.951 -4.738 -1.709 -5.256 -3.146 -2.149 -5.958 1.497 -1.355 3.437 -1.861 6.75 -1.759 3.95 0.121 4.31 -0.015 2.399 -0.906 -2.913 -1.358 -2.836 -2.854 0.409 -7.995 3.406 -5.395 10.631 -22.647 12.419 -29.651 0.905 -3.548 1.983 -5.561 3.137 -5.863 1.261 -0.33 1.511 -0.901 0.885 -2.02 -0.557 -0.996 -0.191 -3.542 1.014 -7.04 2.269 -6.594 2.319 -7.129 0.431 -4.612 -1.307 1.743 -1.412 1.171 -1.036 -5.603 l 0.42 -7.544 l -2.965 -1.119 c -1.63 -0.615 -3.386 -2.171 -3.901 -3.456 -0.659 -1.644 -0.961 1.516 -1.019 10.663 -0.187 29.25 -5.39 48.02 -16.813 60.666 -6.376 7.06 -8.345 8 -14.637 7.01 -17.571 -2.755 -36.734 8.177 -42.978 24.518 -3.997 10.46 -3.303 16.818 1.693 15.511 1.177 -0.308 1.589 -0.743 0.916 -0.968 z m -12.4 -7.891 c 1.852 -0.496 2.204 -1.102 1.731 -2.986 -0.468 -1.863 -0.191 -2.364 1.303 -2.364 2.304 0 3.732 -1.636 6.805 -7.791 3.208 -6.426 6.71 -11.03 10.524 -13.848 3.135 -2.313 2.477 -3.289 -0.952 -1.41 -0.955 0.523 -3.536 1.738 -5.736 2.7 -6.233 2.725 -14.813 12.2 -17.351 19.16 -1.182 3.241 -2.149 6.184 -2.149 6.541 0 0.813 2.783 0.812 5.824 -0.002 z m -86.07 -5.083 c -2.063 -0.846 -3.747 -2.04 -3.743 -2.653 0.004 -0.613 1.579 -2.185 3.5 -3.493 l 3.493 -2.379 l 15.364 1.758 c 8.45 0.967 15.988 1.548 16.75 1.292 0.763 -0.256 -5.237 -1.492 -13.332 -2.746 -14.957 -2.318 -19.741 -4.03 -16.781 -6.01 0.825 -0.552 2.815 -1.01 4.421 -1.019 1.607 -0.008 3.69 -0.711 4.629 -1.561 1.542 -1.396 3.078 -1.347 15.877 0.5 7.793 1.125 15.16 2.01 16.371 1.959 4.075 -0.159 -2.196 -1.547 -15.394 -3.407 -6.822 -0.961 -12.955 -2.189 -13.628 -2.728 -0.932 -0.747 -0.606 -1.791 1.369 -4.38 3.162 -4.146 5.191 -4.268 23.355 -1.399 6.875 1.086 13.4 1.966 14.5 1.957 4.929 -0.043 -1.776 -1.874 -13.89 -3.794 -7.09 -1.123 -13.373 -2.526 -13.964 -3.116 -0.765 -0.765 -0.299 -1.848 1.618 -3.765 l 2.691 -2.691 l 9.772 1.269 c 16.349 2.123 20.95 2.426 19.293 1.271 -0.814 -0.567 -3.289 -1.327 -5.5 -1.689 -2.211 -0.362 -4.742 -1.294 -5.624 -2.071 -2.83 -2.495 -14.868 -4.202 -22.02 -3.123 -19.577 2.958 -37.02 20.1 -37.02 36.37 0 2.939 0.284 5.803 0.63 6.364 0.347 0.561 2.966 0.976 5.821 0.923 l 5.191 -0.097 l -3.75 -1.539 z m -15.476 -9.875 c 0.334 -0.334 0.113 -1.4 -0.491 -2.368 -1.812 -2.901 -0.274 -5.075 3.384 -4.782 2.997 0.239 3.446 -0.158 6.368 -5.638 1.729 -3.243 3.778 -6.398 4.554 -7.01 1.569 -1.241 6.212 -7.593 5.55 -7.593 -0.231 0 -2.17 0.788 -4.309 1.75 -5.977 2.69 -15.432 12.748 -18.07 19.221 -1.239 3.041 -2.255 5.866 -2.257 6.279 -0.005 0.894 4.399 1.013 5.27 0.142 z m 57.54 -0.913 c -1.147 -1.147 -17.272 -3.419 -18.14 -2.555 -0.539 0.539 1.466 1.172 4.96 1.567 3.225 0.364 6.314 0.818 6.864 1.01 1.632 0.562 6.878 0.547 6.312 -0.019 z m 21.19 -33.537 c 5.945 -0.545 6.215 -0.665 3.164 -1.411 -4.353 -1.063 -4.802 -2.578 -2.302 -7.76 2.36 -4.891 5.545 -14.874 7.171 -22.476 1.253 -5.856 2.688 -6.812 8.568 -5.709 2.645 0.496 3.489 0.37 2.985 -0.446 -0.387 -0.626 -1.098 -1.138 -1.579 -1.138 -0.482 0 -2.143 -0.537 -3.691 -1.193 l -2.815 -1.193 l 4.5 -0.567 l 4.5 -0.567 l -4.5 -1.49 c -2.671 -0.884 -4.5 -2.1 -4.5 -2.99 0 -1.626 2.44 -1.837 8.772 -0.76 2.075 0.353 3.535 0.258 3.245 -0.212 -0.29 -0.47 -2.299 -1.153 -4.465 -1.519 -2.165 -0.366 -4.523 -1.371 -5.238 -2.233 -1.166 -1.405 -0.679 -1.496 4.692 -0.878 4.228 0.487 5.551 0.387 4.493 -0.339 -0.825 -0.566 -2.4 -1.045 -3.5 -1.066 -1.1 -0.02 -3.99 -0.94 -6.422 -2.043 -3.387 -1.537 -4.147 -2.281 -3.247 -3.181 0.9 -0.9 2.847 -0.888 8.317 0.05 9.561 1.639 9.834 0.823 0.426 -1.27 -4.144 -0.922 -7.795 -2.098 -8.113 -2.612 -0.832 -1.346 5.098 -1.09 11.787 0.509 3.161 0.755 5.98 0.997 6.265 0.536 0.593 -0.96 -0.155 -1.2 -10.849 -3.483 -8.02 -1.712 -11.662 -3.993 -11.662 -7.298 0 -4.251 4.098 -5.396 7.587 -2.118 1.339 1.258 5.52 2.817 10.564 3.939 8.319 1.851 8.355 1.851 10.1 -0.192 2.461 -2.883 2.181 -4.676 -0.953 -6.1 l -2.703 -1.229 l 4.453 -0.791 c 2.449 -0.435 5.871 -1.041 7.605 -1.348 2.57 -0.455 3.271 -0.18 3.801 1.489 0.729 2.298 1.273 2.523 10.949 4.534 7.817 1.625 12.1 0.659 11.269 -2.539 -0.255 -0.975 0.161 -2.291 0.924 -2.924 1.483 -1.231 2.174 -1.141 15.697 2.038 6.356 1.494 9.315 1.786 10.684 1.053 4.987 -2.669 7.104 -0.09 4.474 5.452 -1.831 3.859 -1.629 4.924 0.759 4.01 0.885 -0.34 1.343 -1.471 1.121 -2.774 -0.409 -2.409 3.422 -9.798 5.42 -10.455 0.739 -0.243 1.25 0.465 1.25 1.731 0 1.317 0.428 1.878 1.112 1.455 0.612 -0.378 1.546 -0.067 2.076 0.691 0.713 1.019 1.092 1.065 1.455 0.178 0.27 -0.66 1.423 -2.385 2.563 -3.834 1.522 -1.935 2.281 -2.297 2.857 -1.364 0.626 1.013 1.13 0.984 2.488 -0.143 2.164 -1.796 8.439 -2.278 8.48 -0.652 0.017 0.656 0.508 0.372 1.092 -0.632 0.584 -1 0.757 -2.129 0.385 -2.5 -0.372 -0.371 -25.276 -0.473 -55.34 -0.227 -30.07 0.246 -59.38 0.471 -65.15 0.5 -12.182 0.061 -12.435 0.303 -9.2 8.839 1.087 2.867 2.473 7.357 3.08 9.978 1.426 6.148 1.42 24.821 -0.01 34.04 -1.346 8.681 -7.111 22.415 -12.18 29.02 -4.229 5.509 -4.707 7.308 -1.455 5.477 1.237 -0.697 5.175 -1.535 8.75 -1.862 z m 12 -79.941 c 0 -0.55 0.45 -1 1 -1 0.55 0 1 0.45 1 1 0 0.55 -0.45 1 -1 1 -0.55 0 -1 -0.45 -1 -1 z m -31 77 c 0 -0.55 -0.198 -1 -0.441 -1 -0.243 0 -0.719 0.45 -1.059 1 -0.34 0.55 -0.141 1 0.441 1 0.582 0 1.059 -0.45 1.059 -1 z m 116.3 -35.471 c 1.972 -8.522 1.754 -10.529 -1.145 -10.529 -2.305 0 -3.156 3.428 -3.156 12.708 0 8.87 1.976 7.869 4.301 -2.179 z m 26.699 0.912 c 0 -0.793 -0.45 -1.441 -1 -1.441 -0.55 0 -1 0.927 -1 2.059 0 1.132 0.45 1.781 1 1.441 0.55 -0.34 1 -1.266 1 -2.059 z m -129.8 -3.641 c -0.933 -0.933 -1.2 -0.667 -1.2 1.2 0 1.867 0.267 2.133 1.2 1.2 0.933 -0.933 0.933 -1.467 0 -2.4 z m 0.8 -3.3 c 0 -0.825 -0.45 -1.5 -1 -1.5 -0.55 0 -1 0.675 -1 1.5 0 0.825 0.45 1.5 1 1.5 0.55 0 1 -0.675 1 -1.5 z m 1 -5.893 c 0 -0.766 -0.675 -1.652 -1.5 -1.969 -1.02 -0.392 -1.5 0.054 -1.5 1.393 0 1.083 0.675 1.969 1.5 1.969 0.825 0 1.5 -0.627 1.5 -1.393 z m -1 -4.548 c 0 -0.518 -0.45 -1.219 -1 -1.559 -0.55 -0.34 -1 0.083 -1 0.941 0 0.857 0.45 1.559 1 1.559 0.55 0 1 -0.423 1 -0.941 z m 114.86 -11.939 c -0.218 -0.634 -0.913 -0.713 -1.741 -0.199 -0.758 0.471 -1.045 1.396 -0.637 2.055 0.876 1.418 2.947 -0.198 2.378 -1.856 z m -48.3 -0.601 c 2.629 -2.01 1.066 -2.957 -8.277 -5.04 -7.798 -1.735 -8.76 -1.588 -9.558 1.464 -0.738 2.82 1.059 3.879 7.306 4.307 3.01 0.206 6.171 0.458 7.03 0.56 0.857 0.102 2.432 -0.481 3.5 -1.296 z m 31.861 -1.837 c 2.743 -2.01 0.232 -3.868 -8.14 -6.04 -6.122 -1.588 -7.394 -1.647 -9.68 -0.449 -2.315 1.213 -2.472 1.598 -1.305 3.194 0.756 1.034 3.884 2.373 7.266 3.111 7.884 1.721 9.718 1.749 11.859 0.184 z m -100.6 -9.996 c 1.612 -3.364 0.23 -5.686 -3.385 -5.686 -3.135 0 -3.552 1.013 -2.214 5.374 1.342 4.374 3.593 4.499 5.599 0.312 z" fill="#6d6c8b"/><path d="m 132.86 1025.92 c -10.1 -3.247 -15.178 -8.102 -19.642 -18.786 -2.576 -6.165 -3.065 -8.629 -2.952 -14.888 0.125 -6.933 0.186 -7.132 0.804 -2.628 0.841 6.127 1.871 7.156 6.757 6.749 3.538 -0.295 3.948 -0.628 4.198 -3.407 0.46 -5.11 1.222 -7.701 2.268 -7.701 0.545 0 0.991 1.792 0.991 3.981 0 2.19 0.568 4.436 1.263 4.991 2.065 1.651 35.561 4.499 33.977 2.889 -0.249 -0.253 -5.574 -1.398 -11.834 -2.543 -14.425 -2.64 -15.809 -3.345 -11.262 -5.735 2.723 -1.431 4.817 -1.656 10.527 -1.129 14.697 1.355 16.725 1.805 16.725 3.712 0 1.83 3.599 3.076 8.881 3.076 3.092 0 2.232 -1.106 -2.135 -2.745 -3.104 -1.165 -3.02 -1.208 2.658 -1.283 10.799 -0.144 4.153 -3.01 -15.717 -6.776 -5.417 -1.027 -9.842 -2.135 -9.834 -2.462 0.008 -0.327 0.422 -1.248 0.92 -2.047 0.738 -1.185 2.36 -1.279 8.824 -0.513 6.97 0.826 7.956 1.202 8.227 3.132 0.355 2.532 3.543 3.454 11.941 3.454 5.49 0 6.422 -0.635 4.217 -2.875 -0.943 -0.958 -0.606 -1.232 1.515 -1.232 1.5 0 2.727 -0.44 2.727 -0.978 0 -1.389 -5.594 -2.835 -20.961 -5.418 -8.01 -1.346 -13.385 -2.717 -13.385 -3.415 0 -0.641 0.865 -1.961 1.922 -2.933 1.82 -1.674 2.67 -1.656 16.04 0.354 15.493 2.329 21.433 2.643 21.433 1.135 0 -1.05 -7.803 -3.676 -13.969 -4.701 -9.994 -1.661 -14.298 -2.752 -13.838 -3.508 0.991 -1.63 13.44 -2.206 22.17 -1.025 5.986 0.81 9.191 0.861 9.883 0.157 1.284 -1.305 -1.322 -2.827 -6.546 -3.823 -8.365 -1.595 -4.768 -5.622 5.02 -5.622 3.505 0 6.373 -0.392 6.373 -0.871 0 -0.479 -1.843 -1.607 -4.095 -2.506 l -4.095 -1.635 l 2.607 -4 c 3.465 -5.322 11.409 -23.777 13.08 -30.38 1.271 -5.03 1.487 -5.271 4.811 -5.346 6.328 -0.142 7.833 -2.506 2.594 -4.073 -3.909 -1.17 -4.09 -3.429 -0.879 -10.993 1.98 -4.665 2.247 -4.877 6.147 -4.877 2.242 0 4.077 -0.389 4.077 -0.864 0 -1.014 -6.849 -3.243 -9.966 -3.243 -3.489 0 -3.092 -1.786 4.559 -20.518 1.072 -2.624 1.687 -3.204 2.311 -2.179 1.308 2.151 2.969 0.459 5.689 -5.791 3.117 -7.165 4.277 -6.528 1.439 0.79 -1.227 3.163 -1.73 5.806 -1.206 6.337 1.224 1.245 2.593 -0.728 4.771 -6.875 2.165 -6.109 4.532 -9.321 4.515 -6.124 -0.006 1.109 -0.689 4.288 -1.517 7.06 -0.828 2.775 -1.344 5.211 -1.146 5.412 0.803 0.816 7.624 -15.18 7.083 -16.612 -0.411 -1.088 0.072 -1.547 1.625 -1.547 1.892 0 2.12 0.411 1.589 2.868 -0.483 2.236 -0.055 3.407 1.94 5.313 4.456 4.254 6.03 -0.722 -26.505 83.71 -11.1 28.8 -21.93 56.06 -24.07 60.58 -7.21 15.215 -20.824 26.392 -37.421 30.723 -7.347 1.917 -20.439 2.01 -26.12 0.183 z m 90 -128.45 c 1.336 -2.073 1.415 -2.87 0.405 -4.107 -1.845 -2.259 -3.929 -1.872 -5.201 0.966 -2.341 5.222 1.735 7.89 4.796 3.141 z m -187.11 117.06 c -12.259 -2.71 -18.92 -8.202 -24.265 -20.01 -4.324 -9.549 -5.67 -15.476 -4.821 -21.23 c 0.943 -6.392 2.449 -5.508 2.453 1.44 0.003 4.143 0.623 6.935 2.079 9.364 l 2.075 3.46 l 2.711 -2.433 c 3.858 -3.463 4.16 -4.059 3.275 -6.454 -0.901 -2.439 1.76 -12.12 3.895 -14.178 1.134 -1.091 1.172 -0.935 0.227 0.934 -1.423 2.815 -1.479 12.13 -0.088 14.766 0.75 1.425 2.123 1.986 4.859 1.986 2.097 0 11.06 0.919 19.915 2.041 30.628 3.883 34.858 1.872 5.449 -2.591 -16.669 -2.53 -21.17 -3.686 -21.17 -5.441 0 -2.068 2.93 -3.248 8.03 -3.235 7.455 0.019 10.152 0.847 10.152 3.117 0 1.025 0.796 2.093 1.768 2.373 3.489 1 23.03 2.926 25.507 2.51 2.437 -0.41 2.402 -0.482 -1.01 -2.082 l -3.536 -1.657 l 4.234 -0.084 c 2.328 -0.046 4.501 -0.523 4.827 -1.06 0.643 -1.058 -3.318 -2.414 -13.607 -4.659 -6.556 -1.43 -6.546 -1.431 6.06 -0.813 11.163 0.547 12.482 0.44 11.373 -0.924 -1.452 -1.787 -0.715 -2.895 1.927 -2.895 2.99 0 2.126 -1.803 -1.431 -2.987 -1.806 -0.601 -10.481 -2.216 -19.279 -3.589 -8.798 -1.373 -16.18 -2.683 -16.405 -2.912 -0.225 -0.229 0.916 -1.706 2.536 -3.284 l 2.945 -2.868 l 17.893 2.657 c 10.651 1.582 18.513 2.305 19.424 1.787 3.01 -1.713 -3.067 -3.988 -16.308 -6.103 -7.14 -1.14 -13.228 -2.324 -13.529 -2.63 -0.301 -0.306 0.027 -1.261 0.73 -2.121 1.681 -2.058 6.77 -2.02 21.977 0.174 9.182 1.323 12.654 1.483 13.501 0.622 1.395 -1.418 -2.807 -3.874 -8.482 -4.956 -4.83 -0.921 -5.357 -1.9 -2.165 -4.03 1.9 -1.265 4.308 -1.629 9.231 -1.396 7.96 0.378 9.726 -1.452 3.293 -3.411 -4.902 -1.493 -5.732 -2.893 -3.675 -6.2 1.474 -2.369 5.776 -15.724 7.821 -24.28 l 1.06 -4.432 l 6.256 0.15 c 3.441 0.082 6.825 0.113 7.519 0.069 2.027 -0.13 1.454 -1.934 -0.85 -2.678 -1.484 -0.479 -1.959 -1.281 -1.595 -2.695 0.546 -2.121 -1 -3.135 -6.899 -4.518 -5.376 -1.261 -0.741 -1.683 6.283 -0.571 7.373 1.167 9.862 0.269 6.296 -2.269 -1.366 -0.972 -2 -2.213 -1.638 -3.183 0.723 -1.915 -1.413 -3.221 -6.919 -4.229 -2.212 -0.405 -4.704 -1.168 -5.537 -1.695 -1.485 -0.94 -0.323 -0.86 12.216 0.841 l 4.64 0.629 l -0.125 -3.664 c -0.069 -2.01 -0.418 -3.961 -0.776 -4.325 -0.358 -0.364 -4.643 -1.566 -9.521 -2.671 -9.937 -2.25 -11.484 -3.147 -11.484 -6.655 0 -2.946 1.208 -3.072 4.839 -0.508 1.505 1.063 6.574 2.738 11.263 3.722 l 8.526 1.789 l 1.829 -2.295 c 1.01 -1.262 1.829 -3.383 1.829 -4.712 0 -2.562 2.578 -4.543 5.91 -4.543 2.511 0 3.329 2.081 1.613 4.107 -2.089 2.466 -2.77 6.69 -1.275 7.904 0.73 0.593 5.109 1.628 9.732 2.301 9.477 1.379 11.294 0.735 11.294 -4 0 -5.01 6.03 -6.23 10.136 -2.058 2.188 2.224 14.03 4.508 18.725 3.613 2.332 -0.445 4.157 -0.234 5.137 0.592 0.836 0.705 2.961 1.31 4.722 1.345 l 3.202 0.063 l 0.028 13.31 c 0.032 14.988 -0.984 28.595 -2.648 35.461 -1.521 6.28 -5.685 17.19 -8.231 21.562 -3.941 6.772 -13.779 16.1 -12.213 11.575 0.347 -1 1.678 -2.977 2.958 -4.391 3 -3.313 7.398 -13.236 11.604 -26.18 1.835 -5.647 3.952 -11.02 4.705 -11.944 0.828 -1.014 1.115 -2.704 0.726 -4.28 -0.354 -1.432 -0.12 -5.165 0.52 -8.297 1.037 -5.076 0.938 -6.21 -0.914 -10.464 -1.459 -3.353 -2.521 -4.598 -3.573 -4.188 -0.833 0.325 -1.928 -0.194 -2.47 -1.171 -1.56 -2.81 -3.333 -0.07 -3.911 6.04 l -0.506 5.351 l -1.48 -2.871 l -1.48 -2.871 l -19.402 0.535 c -20.325 0.561 -23.11 1.151 -27.23 5.778 -1.039 1.167 -10.397 23.316 -20.796 49.22 -10.398 25.904 -20.325 49.19 -22.06 51.754 -7.756 11.458 -23.449 21.269 -38.33 23.966 -9.596 1.739 -14.1 1.731 -22.11 -0.041 z m 29.788 -25.18 c -2.168 -1.286 -16.919 -3.512 -17.741 -2.676 -1.698 1.726 4.979 3.384 14.35 3.565 3.674 0.071 4.598 -0.171 3.39 -0.888 z m 112.68 -122 c 0.882 -1.45 -6.639 -3.348 -8.165 -2.061 -0.722 0.609 -1.063 1.517 -0.759 2.02 0.705 1.16 8.222 1.197 8.923 0.044 z m -129.2 101.28 c -8.06 -1.113 -10.181 -2.35 -5.726 -3.344 1.683 -0.376 3.565 -1.302 4.182 -2.057 1.508 -1.847 6.695 -0.437 6.328 1.72 -0.353 2.077 1.605 3.61 5.317 4.161 l 3.03 0.45 l -3.03 0.023 c -1.667 0.012 -6.213 -0.416 -10.1 -0.953 z m 99.06 -16.809 c -1.777 -1.323 -1.401 -1.461 3.99 -1.461 6.071 0 6.622 1.295 1 2.352 -1.845 0.347 -3.797 -0.002 -4.991 -0.891 z m -129.87 -1.848 c 0 -0.213 0.796 -1.022 1.768 -1.797 1.602 -1.277 1.638 -1.241 0.381 0.388 -1.32 1.71 -2.149 2.254 -2.149 1.409 z m 147.99 -0.639 c 0.343 -0.565 1.279 -1.027 2.08 -1.027 0.801 0 1.456 0.462 1.456 1.027 0 0.565 -0.936 1.027 -2.08 1.027 -1.144 0 -1.799 -0.462 -1.456 -1.027 z m -131.83 -11.294 c 0.833 -0.547 1.97 -0.995 2.525 -0.995 0.556 0 0.328 0.448 -0.505 0.995 -0.833 0.547 -1.97 0.995 -2.525 0.995 -0.556 0 -0.328 -0.448 0.505 -0.995 z m 15.15 -2.555 c 0 -1.209 1.285 -1.545 5.809 -1.521 6.416 0.034 5.614 1.31 -1.515 2.41 -3.445 0.532 -4.293 0.356 -4.293 -0.889 z m 27.27 -0.526 c -1.158 -0.76 -0.774 -0.999 1.624 -1.011 2.844 -0.014 3.569 -0.764 7.708 -7.973 4.757 -8.286 8.131 -17.19 9.334 -24.637 0.387 -2.397 1.087 -4.599 1.554 -4.892 0.976 -0.613 1.172 -18.889 0.219 -20.456 -0.347 -0.571 -0.504 -2.828 -0.349 -5.02 0.21 -2.956 -0.29 -4.598 -1.945 -6.389 -1.879 -2.033 -2.123 -3.122 -1.558 -6.95 0.433 -2.937 0.161 -6.04 -0.773 -8.796 -0.794 -2.343 -1.04 -4.509 -0.547 -4.818 1.629 -1.023 2.714 0.532 2.735 3.919 0.012 1.837 0.929 5.419 2.039 7.96 3.08 7.05 4.681 26.02 3.292 39 -1.363 12.738 -6.464 26.26 -13.273 35.18 -4.494 5.888 -6.814 7.01 -10.06 4.881 z m -7.68 -2.567 c 1.93 -1.485 3.639 -1.216 3.639 0.574 0 0.531 -1.25 0.951 -2.778 0.933 -2.632 -0.031 -2.677 -0.11 -0.861 -1.507 z m 6.18 -6.963 c 0.976 -1.571 2.028 -2.597 2.339 -2.282 0.311 0.316 -0.488 1.601 -1.774 2.856 l -2.339 2.282 l 1.774 -2.856 z m 6.991 -14.599 c 0.283 -1.129 1.251 -6.439 2.153 -11.799 1.842 -10.951 1.455 -19.08 -1.664 -34.918 -2.319 -11.78 -2.38 -13.994 -0.252 -9.241 2.554 5.705 3.589 11.972 4.07 24.642 0.486 12.797 -1.026 26.656 -3.358 30.781 -1.069 1.89 -1.325 2.034 -0.949 0.535 z m 125.53 -37.1 c -1.199 -1.219 -0.798 -4.064 1.395 -9.889 1.903 -5.05 2.384 -5.577 5.05 -5.482 1.62 0.058 2.946 0.381 2.947 0.719 0.001 0.338 -1.283 3.803 -2.855 7.701 -2.631 6.524 -4.744 8.772 -6.536 6.951 z m -6.769 -13.02 c 0 -1.304 0.568 -3.131 1.263 -4.06 1.959 -2.621 5.275 0.253 4.396 3.811 -0.889 3.599 -5.659 3.809 -5.659 0.249 z m -8.782 -1.371 c -0.39 -1.034 0.089 -2.228 1.235 -3.08 2.401 -1.785 3.507 -1.764 3.507 0.064 0 4.308 -3.43 6.489 -4.742 3.02 z m -24.553 -5.499 c 0 -0.565 1.163 -1.027 2.585 -1.027 1.466 0 2.315 0.444 1.961 1.027 -0.343 0.565 -1.507 1.027 -2.585 1.027 -1.078 0 -1.961 -0.462 -1.961 -1.027 z m -88.23 -5.512 c -0.784 -3.03 -0.426 -4.218 1.073 -3.579 0.469 0.2 0.591 1.75 0.271 3.444 l -0.582 3.08 l -0.763 -2.945 z m 37.18 -4.701 c 0.784 -1.289 30.589 -1.306 31.372 -0.017 0.376 0.618 -5.5 0.989 -15.681 0.989 -9.979 0 -16.05 -0.376 -15.691 -0.971 z m 55.909 0.27 c 0.729 -0.297 1.6 -0.26 1.936 0.081 0.336 0.341 -0.261 0.584 -1.326 0.539 -1.177 -0.049 -1.416 -0.293 -0.61 -0.62 z m 12.06 0.021 c 0.695 -0.285 1.831 -0.285 2.525 0 0.695 0.285 0.126 0.518 -1.263 0.518 -1.389 0 -1.957 -0.233 -1.263 -0.518 z" fill="#36354c"/></g></g></svg>