<svg xmlns="http://www.w3.org/2000/svg" viewBox="0 0 256 256"><g color="#000"><path d="m 237.33 858.53 c -193.41 -225.34 -379.39 237.98 -80.26 190.37 65.59 -10.438 132.38 -129.65 80.26 -190.37 z" transform="translate(0 -796.36)" fill="#ff8c00"/></g><g transform="matrix(1.04018 0 0 1.03219 -44.508 1.965)"><g stroke="#0f100e"><rect width="25.625" height="105.1" x="4.239" y="168.84" transform="matrix(0.67125 -0.74123 0.71196 0.70222 0 0)" rx="12.813" ry="11.371" fill="#ffd700" stroke-width="0.106"/><path d="m 102.02 175.31 v -14.338 l 3.686 -0.247 c 2.027 -0.136 4.064 -0.481 4.526 -0.766 0.462 -0.285 0.841 -15.1 0.841 -32.932 0 -35.616 0.048 -35.34 -6.03 -34.453 l -3.03 0.443 v -14.12 v -14.12 l 62.62 0.501 l 62.62 0.501 v 13.04 v 13.04 l -3.521 0.501 l -3.521 0.501 l -0.265 33.374 c -0.208 26.2 0.008 33.458 1.01 33.766 0.699 0.215 2.535 0.668 4.079 1.01 l 2.808 0.615 l -0.142 14.01 l -0.142 14.01 h -62.767 h -62.767 z m 97.26 9.04 c 2.904 -0.866 4.955 -2.346 6.578 -4.749 2.848 -4.214 4.125 -4.153 4.793 0.232 0.473 3.101 0.773 3.318 4.993 3.618 5.593 0.397 7.077 -1.301 7.077 -8.099 0 -6.362 -1.338 -8.769 -4.876 -8.769 -3.666 0 -8.04 -5.447 -6.429 -8.01 2.454 -40.631 2.031 -45.2 2.034 -56.35 -0.161 -4.231 -0.518 -7.901 -0.792 -8.155 -0.275 -0.254 -20.354 -0.753 -44.62 -1.109 -25.347 -0.371 -44.9 -1.062 -45.952 -1.623 -2.561 -1.367 -3.975 -1.217 -3.975 0.42 0 0.768 -0.679 1.657 -1.509 1.974 -2.25 0.861 -2.218 27.05 0.035 28.934 3.85 3.225 4.491 4.065 4.491 5.878 0 2.8 -0.34 3.438 -1.835 3.446 -2.671 0.015 -3.448 3.72 -2.98 14.206 0.256 5.738 0.946 10.913 1.534 11.499 0.674 0.672 9.27 1.159 23.25 1.319 23.961 0.273 25.287 0.552 28.919 6.079 0.901 1.371 2.217 2.493 2.924 2.493 1.911 0 2.773 2.892 2.564 8.599 -0.24 6.548 1.223 7.869 7.994 7.221 3.49 -0.334 5.368 -0.067 6.153 0.876 1.399 1.68 4.159 1.7 9.629 0.068 z m -81.37 -8.08 c 0.352 -8.07 -0.608 -9.688 -5.754 -9.688 -5.095 0 -6.113 1.419 -6.113 8.525 0 7.456 1.06 8.709 7.04 8.319 l 4.532 -0.296 z m 17.1 -0.574 c 0.336 -8.355 -0.143 -9.08 -6.05 -9.1 -4.526 -0.019 -5.819 1.872 -5.819 8.51 0 7.189 1.233 8.688 6.853 8.327 l 4.714 -0.303 z m 17.1 6.732 c 0.675 -0.673 1.207 -3.9 1.207 -7.322 0 -7.083 -1.021 -8.525 -6.04 -8.525 -5.01 0 -6.04 1.442 -6.04 8.525 0 3.421 0.532 6.649 1.207 7.322 1.562 1.557 8.095 1.557 9.656 0 z m 17.696 -0.383 c 1.078 -2.802 0.651 -13.02 -0.596 -14.26 -0.664 -0.662 -2.837 -1.204 -4.828 -1.204 -5.01 0 -6.04 1.442 -6.04 8.525 0 3.421 0.532 6.649 1.207 7.322 1.836 1.831 9.511 1.544 10.253 -0.383 z m -54.27 -95.67 c 2.422 -0.918 2.58 -1.398 2.58 -7.823 0 -7.733 -0.93 -9.252 -5.662 -9.252 -4.832 0 -6.411 2.185 -6.393 8.847 0.016 6.02 0.557 7.547 3 8.475 2.3 0.873 3.655 0.821 6.473 -0.247 z m 17.1 0 c 2.422 -0.918 2.58 -1.398 2.58 -7.823 0 -7.733 -0.93 -9.252 -5.662 -9.252 -4.767 0 -6.409 2.202 -6.409 8.597 0 7.945 3.246 10.845 9.49 8.478 z m 19.866 -1.294 c 1.252 -1.965 0.952 -13.242 -0.387 -14.578 -1.562 -1.557 -8.095 -1.557 -9.656 0 -0.703 0.701 -1.207 4.064 -1.207 8.06 0 6.158 0.229 6.948 2.263 7.797 2.756 1.151 7.908 0.419 8.987 -1.275 z m 15.339 1.294 c 2.422 -0.918 2.58 -1.398 2.58 -7.823 0 -7.596 -0.948 -9.252 -5.297 -9.252 -5.608 0 -6.775 1.436 -6.758 8.31 0.016 6.545 0.525 8.07 3 9.01 2.3 0.873 3.655 0.821 6.473 -0.247 z m 17.1 0 c 2.422 -0.918 2.58 -1.398 2.58 -7.823 0 -7.733 -0.93 -9.252 -5.662 -9.252 -4.868 0 -6.409 2.174 -6.409 9.04 0 4.949 0.357 6.139 2.236 7.45 2.608 1.822 3.747 1.913 7.255 0.583 z m 17.1 0 c 2.422 -0.918 2.58 -1.398 2.58 -7.823 0 -7.671 -0.942 -9.259 -5.482 -9.237 -4.888 0.024 -5.905 1.27 -6.38 7.816 -0.37 5.099 -0.12 6.299 1.69 8.103 2.366 2.359 3.805 2.576 7.591 1.14 z m 18.674 -1.028 c 2.576 -2.568 2.858 -12.05 0.431 -14.471 -1.866 -1.861 -7.561 -2.089 -9.283 -0.373 -0.703 0.701 -1.207 4.064 -1.207 8.06 0 6.169 0.226 6.943 2.263 7.759 3.588 1.438 5.634 1.183 7.795 -0.972 z" fill="#0f100e"/></g><path d="m 194.19 184.42 c -2.381 -0.609 -3.867 -1.744 -8.746 -6.681 l -4.232 -4.282 l 0.914 -0.61 c 1.834 -1.224 11.547 -11.781 15.694 -17.06 1.113 -1.416 1.158 -1.435 2.028 -0.834 0.489 0.338 2.748 2.427 5.02 4.641 5.454 5.315 6.65 8.02 5.661 12.821 -0.368 1.785 -0.626 2.209 -1.84 3.02 -0.777 0.518 -2.386 2.248 -3.576 3.845 -1.716 2.303 -2.584 3.113 -4.192 3.914 -2.863 1.426 -4.663 1.753 -6.731 1.224 z" fill="#ffa07a" stroke="#ffa07a" stroke-width="0.037"/><path d="m 134.49 119.63 l -4.974 4.254 l -6.524 -16.08 l -6.524 -16.08 l 11.339 4.272 c 6.236 2.35 14.06 5.256 17.385 6.459 l 6.05 2.187 l -5.888 5.368 c -3.238 2.952 -8.126 7.282 -10.861 9.622 z" fill="#fff" stroke="#fff" stroke-width="0.051"/><g fill="#556a21" stroke="#556a21"><path d="m 169.59 164.17 c -1.836 -1.917 -4.085 -3.485 -4.997 -3.485 -0.912 0 -8.666 -6.912 -17.231 -15.359 -8.565 -8.448 -16.07 -15.533 -16.672 -15.746 -0.605 -0.213 -1.1 -1.345 -1.1 -2.516 0 -4.165 15.01 -5.073 26.09 -1.58 l 6.229 1.963 l 6.385 -4.397 c 5.377 -3.703 6.47 -5.06 6.925 -8.594 0.297 -2.308 0.3 8.322 0.006 23.621 -0.294 15.3 -0.93 28.21 -1.414 28.698 -0.484 0.484 -2.383 -0.688 -4.219 -2.605 z" transform="matrix(0.96137 0 0 0.96881 42.789 -1.903)" stroke-width="0.116"/><path d="m 140.19 158.12 c -11.581 -0.511 -21.304 -1.178 -21.606 -1.482 -0.302 -0.304 -0.797 -5.323 -1.099 -11.153 -0.514 -9.912 -0.396 -10.696 1.825 -12.09 1.306 -0.822 2.375 -2.551 2.375 -3.842 0 -2.27 0.216 -2.302 6.58 -0.981 8.338 1.732 14.219 5.819 25.02 17.389 9.203 9.858 11.818 13.55 9.395 13.263 -0.788 -0.093 -10.908 -0.588 -22.489 -1.099 z" stroke-width="0.112"/></g></g></svg>