<svg xmlns="http://www.w3.org/2000/svg" viewBox="0 0 256 256"><path d="m 62.68 31.8 c -226.71 210.75 241.2 343.53 189.6 63.746 -25.452 -73.816 -116.81 -131.42 -189.6 -63.746 z" fill="#4c845b" color="#000"/><g transform="translate(353.94 13.406)"><path d="m 118.91 252.81 c -26.895 -4.258 -49.18 -12.524 -69.18 -25.662 -9.277 -6.094 -27.746 -23.892 -32.799 -31.607 c -3.889 -5.937 -3.572 -6.318 6.906 -8.298 11 -2.079 28.18 -8.01 39.732 -13.716 16.614 -8.209 25.318 -14.538 57.08 -41.511 31.11 -26.416 50.573 -39.09 78.64 -51.2 12.578 -5.428 35.27 -13.624 37.717 -13.624 1.295 0 10.55 17.383 13.336 25.05 4.537 12.483 6.352 52.37 3.205 70.44 -5.454 31.31 -20.846 56.23 -44.14 71.46 -21.12 13.813 -42.36 19.559 -71.28 19.281 -8.97 -0.086 -17.62 -0.365 -19.222 -0.618 z" transform="translate(-353.94 -13.406)" fill="#3b6846" fill-rule="evenodd"/><g transform="matrix(0.90265 0 0 0.89949 -494.53 -247.62)"><path d="m 221.87 489.76 c -1.745 -1.238 -4.664 -4.705 -6.486 -7.706 -3.188 -5.25 -3.325 -5.909 -3.651 -17.47 -0.289 -10.252 -0.646 -12.446 -2.431 -14.953 -1.26 -1.77 -2.268 -5.057 -2.534 -8.268 -0.501 -6.04 0.895 -9 6.45 -13.676 1.845 -1.553 3.364 -3.578 3.377 -4.5 0.013 -0.922 1.25 -3.918 2.75 -6.657 2.664 -4.865 3.871 -5.68 10.305 -6.96 1.452 -0.289 3.07 -1.59 3.702 -2.98 0.618 -1.357 2.938 -3.505 5.156 -4.774 2.642 -1.512 4.533 -3.552 5.484 -5.918 2.054 -5.111 10.477 -13.93 14.58 -15.267 3.02 -0.984 3.548 -1.674 4.309 -5.622 1.05 -5.45 4.595 -9.46 10.69 -12.09 2.71 -1.171 5.477 -3.373 6.955 -5.537 1.35 -1.976 3.6 -4.298 5 -5.161 4.223 -2.603 5.04 -4.319 5.089 -10.65 0.058 -7.988 2.698 -15.647 5.956 -17.278 4.072 -2.038 23.579 -1.662 30.09 0.58 27.676 9.525 54.894 34.932 80.17 74.841 5.505 8.69 6.565 11.11 7.155 16.327 0.433 3.826 0.3 6.599 -0.353 7.386 -1.529 1.842 -9.567 3.358 -27.07 5.106 -15.529 1.551 -24 3.121 -24 4.449 0 1.128 -4.845 3.03 -7.718 3.03 -1.443 0 -3.435 -0.734 -4.426 -1.63 -1.668 -1.51 -3.559 -1.434 -25.579 1.03 -31.898 3.569 -29.28 2.833 -29.28 8.22 0 7.3 -5.289 15.381 -10.07 15.381 -3.416 0 -4.932 -3.33 -4.932 -10.829 0 -6.672 -0.15 -7.171 -2.151 -7.171 -5.113 0 -29.435 3.298 -30.3 4.109 -0.523 0.49 -2.57 0.891 -4.55 0.891 -4.24 0 -5.992 1.44 -6.02 4.95 -0.012 1.402 -0.85 3.627 -1.862 4.943 -1.792 2.331 -2.562 2.425 -8.116 0.994 -1.879 -0.484 -1.562 4.316 0.495 7.485 1.873 2.887 5.505 16.318 5.505 20.358 0 3.832 -2.962 7.27 -6.264 7.27 -1.245 0 -3.692 -1.012 -5.437 -2.25 z" fill="#e1e1a8"/><path d="m 223.16,489.62 c -8.06,-4.864 -12.234,-15.1 -11.267,-27.63 0.573,-7.431 0.43,-8.255 -2.356,-13.55 -1.631,-3.101 -2.966,-6.735 -2.966,-8.08 0,-3.606 3.371,-9.543 6.886,-12.13 1.697,-1.248 3.375,-3.498 3.729,-5 1.734,-7.362 7.153,-13.231 12.217,-13.231 1.062,0 3.082,-1.509 4.489,-3.353 1.407,-1.844 3.881,-3.902 5.499,-4.572 1.9,-0.787 3.595,-2.669 4.789,-5.316 2.492,-5.526 12.318,-15.759 15.13,-15.759 2.474,0 4.259,-2.665 4.259,-6.358 0,-3.45 4.35,-8.279 10.07,-11.177 2.644,-1.34 6.01,-4.01 7.477,-5.935 1.468,-1.924 4.131,-4.403 5.919,-5.508 3.125,-1.931 3.271,-2.312 3.79,-9.888 0.318,-4.638 1.369,-9.754 2.556,-12.436 2.42,-5.472 5.562,-6.685 17.336,-6.693 29.614,-0.022 65.69,29.337 96.95,78.901 5.877,9.317 7.82,16.796 5.376,20.689 -1.522,2.424 -6.355,3.361 -32.954,6.387 -12.496,1.422 -17.281,2.341 -18.11,3.479 -0.622,0.851 -2.58,2.052 -4.351,2.67 -2.768,0.965 -3.612,0.832 -6.02,-0.947 l -2.799,-2.069 -15.368,1.912 c -8.453,1.052 -20.512,2.488 -26.798,3.192 l -11.429,1.28 -0.073,5.167 c -0.097,6.912 -4.644,13.833 -9.09,13.833 -3.904,0 -5.448,-3.213 -5.467,-11.378 l -0.015,-6.378 -4.25,0.716 c -2.338,0.394 -9.425,1.267 -15.75,1.94 -6.325,0.674 -12.483,1.759 -13.684,2.412 -1.201,0.653 -3.731,1.187 -5.622,1.187 -3.24,0 -3.475,0.231 -4.08,4.01 -0.756,4.729 -3.985,8.464 -6.441,7.45 -4.475,-1.848 -5.173,-1.74 -5.173,0.799 0,1.373 1.099,4.913 2.441,7.867 1.343,2.954 3.187,8.367 4.099,12.03 1.416,5.691 1.461,7.06 0.309,9.401 -1.995,4.057 -4.882,4.698 -9.26,2.057 z m 2.126,-10.985 c -0.301,-1.853 -1.71,-6.276 -3.131,-9.828 -1.421,-3.553 -2.584,-7.41 -2.584,-8.572 0,-4.491 -1.806,-2.941 -2.434,2.089 -0.73,5.84 0.1,8.848 4.253,15.428 3.231,5.119 4.635,5.437 3.896,0.883 z m -3.372,-29.864 c 0.636,-0.405 2.561,-0.743 4.277,-0.752 2.957,-0.015 3.147,-0.252 3.632,-4.556 0.525,-4.657 2.976,-8.459 5.453,-8.459 0.767,0 2.757,0.704 4.422,1.565 3.01,1.557 3.054,1.54 7.907,-3 2.684,-2.511 5.168,-4.565 5.519,-4.565 0.351,0 1.995,0.787 3.652,1.75 2.947,1.711 3.047,1.7 4.526,-0.5 1.044,-1.553 2.509,-2.25 4.727,-2.25 2.164,0 4.714,-1.168 7.803,-3.575 3.712,-2.892 4.954,-3.38 6.496,-2.555 3.381,1.809 4.23,3.693 5.403,11.988 0.633,4.478 1.47,8.142 1.858,8.142 0.389,0 1.265,-3.488 1.947,-7.75 0.682,-4.262 1.666,-8.273 2.187,-8.912 0.521,-0.639 3.157,-1.692 5.858,-2.34 4.167,-1 5.182,-1.733 6.7,-4.838 1.744,-3.568 1.939,-3.664 7.789,-3.84 12.947,-0.39 24.1,-1.985 28.877,-4.129 5.678,-2.55 8.486,-2.743 11.182,-0.768 1.67,1.223 1.903,2.464 1.668,8.874 -0.152,4.146 0.255,8.728 0.916,10.328 1.176,2.845 1.197,2.819 1.918,-2.406 1.525,-11.06 2.048,-12.483 6.01,-16.409 3.043,-3.01 3.926,-4.656 3.926,-7.302 0,-3.727 -1.8,-8.508 -3.204,-8.508 -0.485,0 -2.919,-2.211 -5.408,-4.912 -3.609,-3.918 -5.751,-5.28 -10.578,-6.726 -4.561,-1.366 -6.696,-2.656 -8.663,-5.235 -3.361,-4.406 -7.606,-6.127 -15.12,-6.127 -4.585,0 -6.03,-0.346 -6.03,-1.441 0,-0.793 0.45,-1.719 1,-2.059 0.55,-0.34 1,-1.023 1,-1.517 0,-1.795 -8.92,-6.068 -13.898,-6.657 -4.484,-0.531 -5.102,-0.883 -5.102,-2.906 0,-5.257 -3.976,-3.575 -13.5,5.709 -3.3,3.217 -8.138,7.82 -10.75,10.228 -5.645,5.204 -6.176,8.107 -1.649,9.01 2.779,0.556 3.564,0.106 7.545,-4.322 2.444,-2.718 5.337,-5.226 6.429,-5.572 1.671,-0.53 1.881,-1.191 1.323,-4.162 -0.632,-3.37 -0.553,-3.498 1.719,-2.785 1.31,0.411 3.455,1.585 4.767,2.609 1.642,1.282 4.04,1.862 7.685,1.862 2.915,0 6.529,0.467 8.03,1.038 2.934,1.115 14.389,10 14.395,11.165 0.002,0.387 -1.53,1.431 -3.405,2.321 -1.875,0.89 -4.195,2.486 -5.155,3.547 -1.363,1.506 -3.082,1.927 -7.841,1.919 -3.687,-0.006 -8.503,0.835 -12.191,2.13 l -6.096,2.141 -6.709,-2.684 c -17.81,-7.125 -29.422,-2.974 -34.05,12.173 -0.647,2.118 -0.405,2.249 4.13,2.235 6.297,-0.02 11.982,-2.062 14.664,-5.269 2.577,-3.082 8.467,-6.707 10.904,-6.713 2.662,-0.006 2.102,2.526 -1.454,6.576 -3.12,3.553 -3.152,3.687 -1.25,5.093 1.195,0.883 2.925,1.196 4.454,0.805 5.455,-1.394 9.632,-1.58 12.331,-0.548 4.03,1.54 2.865,3.262 -3.11,4.608 -5.812,1.309 -7.722,2.596 -9.79,6.595 -1.056,2.043 -2.428,2.937 -5.184,3.379 -2.061,0.331 -6.288,1.761 -9.393,3.179 -4.896,2.235 -6.078,2.427 -8.899,1.444 -1.789,-0.624 -6.76,-1.134 -11.05,-1.134 -7.686,0 -9.435,-0.574 -8.094,-2.658 0.834,-1.296 5.782,-3.829 9.184,-4.703 1.375,-0.353 3.319,-1.781 4.321,-3.173 1.786,-2.483 1.777,-2.566 -0.491,-4.403 -2.26,-1.83 -2.424,-1.829 -7.284,0.017 -2.734,1.039 -6,3.207 -7.263,4.817 -1.26,1.61 -4.288,3.894 -6.728,5.076 -3.668,1.776 -4.734,2.96 -6.159,6.837 -1.079,2.937 -3.343,6.12 -6.06,8.517 -5.125,4.523 -5.378,6.459 -2.135,16.339 l 2.202,6.709 0.891,-3.437 c 0.49,-1.89 1.411,-3.768 2.048,-4.173 z m 103.16,-40.42 c -2.866,-1.083 -6.341,-1.378 -12.259,-1.04 -4.542,0.26 -8.504,0.075 -8.804,-0.409 -0.3,-0.485 0.645,-2.071 2.099,-3.525 2.836,-2.836 2.12,-4.326 -2.095,-4.358 -1.132,-0.008 -2.932,-0.657 -4,-1.441 -1.872,-1.375 -1.841,-1.463 0.874,-2.5 3.619,-1.382 7.556,-1.364 11.619,0.052 2.769,0.965 3.622,0.839 5.948,-0.881 6.101,-4.511 13.576,-7.529 18.835,-7.605 5.914,-0.085 9.276,1.827 13.1,7.451 1.275,1.874 3.187,3.731 4.25,4.126 2.779,1.032 2.379,2.653 -0.817,3.309 -7.103,1.458 -11.156,2.867 -15.985,5.557 -5.889,3.281 -7.109,3.402 -12.765,1.264 z" fill="#aa9a8c"/><path d="m 222.39,488.53 c -2.343,-1.592 -4.743,-4.679 -6.732,-8.66 -2.886,-5.776 -3.091,-6.906 -3.091,-17.07 0,-9.443 -0.274,-11.252 -2.075,-13.687 -2.655,-3.591 -3.554,-10.181 -1.926,-14.11 0.692,-1.67 2.894,-4.333 4.894,-5.917 2.537,-2.01 3.996,-4.225 4.826,-7.328 1.583,-5.917 6.132,-10.756 10.113,-10.756 2.238,0 3.6,-0.799 5.206,-3.055 1.197,-1.68 3.962,-4.183 6.145,-5.561 2.367,-1.494 4.571,-3.947 5.461,-6.077 2.094,-5.01 10.804,-13.946 14.273,-14.64 2.838,-0.568 5.081,-4.408 5.081,-8.699 0,-2.108 7.366,-8.967 9.63,-8.967 0.894,0 4.159,-2.588 7.257,-5.75 3.098,-3.163 6.502,-6.233 7.566,-6.823 1.57,-0.872 2.075,-2.685 2.686,-9.652 0.911,-10.388 2.828,-15.431 6.378,-16.781 4.692,-1.784 20.631,-1.192 27.837,1.034 26.08,8.05 55.85,35.823 80.38,74.973 4.783,7.633 6.081,10.607 6.603,15.13 0.459,3.975 0.284,5.915 -0.595,6.595 -2.265,1.752 -10.05,3.153 -26.745,4.816 -18.627,1.855 -23.553,2.849 -24.345,4.913 -0.303,0.789 -2.131,1.731 -4.063,2.093 -2.726,0.511 -4.108,0.191 -6.17,-1.431 -1.462,-1.15 -2.942,-1.917 -3.29,-1.704 -0.348,0.212 -11.432,1.577 -24.632,3.034 -31.29,3.452 -28.5,2.659 -28.5,8.112 0,5.33 -2.973,11.722 -6.538,14.06 -2.349,1.539 -2.642,1.53 -4.487,-0.14 -1.622,-1.468 -1.974,-3.088 -1.974,-9.07 0,-4.01 -0.403,-7.535 -0.895,-7.839 -0.492,-0.304 -3.153,-0.125 -5.912,0.398 -2.759,0.523 -9.219,1.246 -14.355,1.607 -5.136,0.361 -10.645,1.28 -12.242,2.043 -1.597,0.763 -4.626,1.387 -6.731,1.387 -3.374,0 -3.893,0.326 -4.383,2.75 -1.712,8.467 -3.701,10.541 -7.937,8.274 -2.024,-1.083 -2.848,-1.121 -3.796,-0.173 -0.948,0.948 -0.814,2.236 0.617,5.93 2.982,7.7 6.634,20.268 6.634,22.832 0,2.547 -3.167,6.387 -5.268,6.387 -0.697,0 -2.906,-1.113 -4.909,-2.474 z m 3.891,-8.902 c -0.301,-1.857 -1.935,-6.841 -3.631,-11.08 -3.308,-8.262 -3.702,-11.474 -2,-16.345 0.944,-2.709 1.6,-3.134 5.25,-3.399 l 4.171,-0.304 0.548,-4.77 c 0.34,-2.96 1.351,-5.573 2.663,-6.885 l 2.115,-2.115 3.678,2.273 3.678,2.273 4.444,-4.638 c 5.24,-5.469 6.807,-5.884 5.856,-1.554 l -0.677,3.084 5.848,-0.709 c 6.679,-0.81 7.163,-1.044 5.531,-2.676 -2.135,-2.135 -1.246,-3.518 2.663,-4.143 2.116,-0.338 5.552,-1.971 7.638,-3.628 2.085,-1.657 4.371,-3.01 5.081,-3.01 2.883,0 5.144,4.945 6.373,13.945 0.681,4.98 1.586,9.06 2.01,9.06 0.426,0 1.335,-3.474 2.02,-7.719 0.685,-4.245 1.64,-8.757 2.122,-10.03 0.933,-2.453 1.167,-2.585 7.472,-4.195 3.163,-0.808 4.383,-1.762 5.5,-4.299 1.362,-3.095 1.681,-3.249 6.253,-3.01 2.649,0.137 5.799,-0.28 7,-0.927 1.201,-0.647 5.606,-1.289 9.789,-1.426 5.493,-0.181 9.305,-0.965 13.72,-2.823 7.13,-3 7.194,-3.01 9.732,-1.157 1.624,1.185 2.023,3.02 2.441,11.25 0.399,7.852 0.802,9.834 2,9.834 1.112,0 1.671,-1.682 2.16,-6.5 0.859,-8.455 2.03,-11.288 5.77,-13.951 1.688,-1.202 3.079,-2.942 3.091,-3.868 0.033,-2.514 3.807,-10.367 6.214,-12.932 2.515,-2.679 8.02,-3 13.333,-0.786 4.192,1.752 4.496,2.348 -6.094,-11.964 -18.897,-25.541 -44.12,-43.846 -66.807,-48.48 -9.788,-2 -13.668,0.16 -13.668,7.612 0,7.292 -1.882,13.08 -4.857,14.924 -1.453,0.903 -5.387,4.411 -8.742,7.795 -3.355,3.384 -7.528,7.208 -9.274,8.498 -3.606,2.665 -6.536,7.646 -5.73,9.744 0.335,0.872 1.996,1.41 4.357,1.41 3.19,0 4.11,-0.498 5.61,-3.038 0.987,-1.671 3.672,-4.24 5.966,-5.708 2.294,-1.469 4.379,-2.822 4.633,-3.01 0.254,-0.185 -0.074,-1.196 -0.73,-2.245 -1.784,-2.856 0.268,-3.464 4.04,-1.195 1.817,1.094 5.897,2.171 9.32,2.461 6.951,0.588 11.203,2.488 16.912,7.559 4.924,4.373 5.134,4.839 2.55,5.659 -1.133,0.36 -3.383,1.767 -4.999,3.127 -2.318,1.951 -4.27,2.536 -9.245,2.772 -3.468,0.165 -8.81,1.102 -11.871,2.082 -5.554,1.78 -5.58,1.778 -13,-0.744 -11.268,-3.829 -13.273,-4.056 -19.599,-2.217 -6.968,2.026 -11.652,6.407 -13.411,12.545 -1.664,5.808 -2.358,6.621 -6.275,7.356 -1.892,0.355 -4.732,2.128 -6.714,4.192 -1.89,1.967 -5.01,4.39 -6.936,5.383 -4.456,2.299 -6.455,4.606 -7.904,9.126 -0.676,2.109 -2.801,4.929 -5.117,6.79 -5.112,4.108 -5.655,6.598 -3.07,14.07 1.758,5.081 1.996,7.416 1.464,14.346 -0.684,8.897 0.039,11.416 5.296,18.438 3.181,4.25 4.747,4.201 4.045,-0.126 z M 256.067,422.9 c -1.65,-0.513 -5.786,-0.823 -9.192,-0.69 -3.406,0.133 -6.555,-0.12 -6.998,-0.564 -1.08,-1.08 2.292,-3.443 6.872,-4.815 2.046,-0.613 4.952,-2.401 6.458,-3.973 2.611,-2.725 2.653,-2.921 0.897,-4.205 -2.612,-1.91 -1.056,-3.649 3.273,-3.656 6.04,-0.009 10.65,-1.771 13.02,-4.972 2.629,-3.556 7.477,-6.266 10.439,-5.833 2.023,0.295 1.97,0.491 -1.068,3.943 -3.718,4.225 -3.973,5.902 -1.164,7.656 1.662,1.038 2.825,1 6.388,-0.21 3.275,-1.112 5.253,-1.231 7.968,-0.482 5.871,1.621 4.78,2.942 -3.595,4.353 -3.422,0.576 -5.356,2.198 -8.293,6.952 -0.55,0.89 -3.7,2.312 -7,3.159 -3.3,0.847 -6.997,2.193 -8.215,2.99 -2.481,1.623 -5.346,1.724 -9.785,0.345 z m 67.5,-15.559 c -3.183,-1.036 -6.648,-1.285 -11.84,-0.851 -7.88,0.659 -8.06,0.46 -3.866,-4.205 l 1.997,-2.219 -2.711,-1.031 c -1.491,-0.567 -3.619,-1.031 -4.729,-1.031 -1.167,0 -1.845,-0.527 -1.607,-1.25 0.559,-1.699 8.365,-2.154 11.891,-0.694 2.522,1.045 3.244,0.892 6.112,-1.291 6.741,-5.133 11.951,-7.155 18.577,-7.211 6.168,-0.052 6.409,0.046 9.744,3.946 1.881,2.2 4.395,5.01 5.588,6.254 1.193,1.24 1.983,2.411 1.756,2.602 -0.227,0.192 -2.663,0.896 -5.413,1.566 -2.75,0.669 -7.442,2.536 -10.428,4.148 -5.992,3.235 -8.406,3.438 -15.07,1.267 z m 35.05,-18.425 c -3.318,-4.128 -9.731,-7.849 -13.601,-7.89 -1.128,-0.012 -3.973,-2.038 -6.322,-4.503 -4.545,-4.769 -9.435,-6.763 -15.57,-6.35 -4.128,0.278 -5.301,-0.567 -3.613,-2.601 0.676,-0.814 0.933,-1.959 0.572,-2.543 -1.274,-2.061 -10.493,-6.02 -14.01,-6.02 -4.02,0 -5.536,-2.114 -3.66,-5.119 0.637,-1.02 1.158,-3.449 1.158,-5.399 0,-3.977 2.069,-5.499 4.61,-3.391 1.33,1.104 1.737,1.042 2.537,-0.388 1.232,-2.202 4.482,-2.189 5.72,0.022 0.531,0.949 1.994,1.736 3.25,1.75 1.599,0.017 2.463,0.772 2.877,2.515 0.4,1.681 0.841,2.087 1.358,1.25 0.421,-0.682 1.631,-1.24 2.688,-1.24 1.827,0 2.183,0.713 3.251,6.5 0.328,1.778 0.517,1.695 1.699,-0.75 0.889,-1.837 2.107,-2.75 3.67,-2.75 1.965,0 2.339,0.512 2.339,3.2 0,2.489 0.267,2.933 1.2,2 0.66,-0.66 2.235,-1.2 3.5,-1.2 1.815,0 2.3,0.553 2.3,2.622 0,2.208 0.235,2.427 1.487,1.388 0.818,-0.679 2.219,-0.953 3.114,-0.61 1.637,0.628 1.588,2.861 -0.154,7.04 -0.765,1.835 -0.612,1.821 2.739,-0.25 4.786,-2.958 6.813,-2.847 6.813,0.372 0,1.411 -0.472,3.447 -1.048,4.524 -0.973,1.818 -0.741,1.938 3.25,1.684 l 4.298,-0.274 -0.107,3.671 c -0.081,2.79 0.339,3.787 1.75,4.156 1.021,0.267 1.85,1.315 1.841,2.329 -0.02,2.235 -4.064,9.55 -5.549,10.04 -0.586,0.192 -2.559,-1.51 -4.385,-3.782 z m -26.316,37.23 c 14.06,-1.608 14.782,-1.799 15.1,-3.988 0.679,-4.743 -0.404,-5.411 -4.986,-3.073 -3.217,1.641 -5.371,2.028 -9.232,1.657 -4.195,-0.403 -5.668,-0.066 -8.82,2.02 -3.052,2.02 -4.635,2.408 -8.188,2.01 -3.941,-0.444 -4.522,-0.238 -5.524,1.961 -1.109,2.435 -1.083,2.451 2.884,1.781 2.202,-0.372 10.649,-1.436 18.77,-2.365 z m 48.666,-6.724 c 18.92,-2.211 21.886,-2.768 22.362,-4.197 0.553,-1.664 -5.796,-7.471 -12.761,-11.67 -8.851,-5.337 -8.777,-5.345 -16.22,1.695 -6.753,6.388 -9.78,10.973 -9.78,14.812 0,1.593 0.431,1.991 1.649,1.524 0.907,-0.348 7.545,-1.322 14.75,-2.164 z m -2.399,-6.417 c 0,-0.55 0.702,-1 1.559,-1 0.857,0 1.281,0.45 0.941,1 -0.34,0.55 -1.041,1 -1.559,1 -0.518,0 -0.941,-0.45 -0.941,-1 z" fill="#979073"/><path d="m 221.15,486.64 c -6.077,-5.731 -7.964,-11.458 -7.708,-23.383 0.2,-9.292 -0.009,-10.644 -2.241,-14.5 -4.526,-7.818 -3.997,-12.835 1.935,-18.36 2.638,-2.457 4.961,-5.697 5.51,-7.688 1.749,-6.336 5.082,-10.115 9.799,-11.11 2.794,-0.592 4.851,-1.762 5.893,-3.352 0.88,-1.344 3.31,-3.522 5.398,-4.84 2.092,-1.321 4.736,-4.238 5.889,-6.497 2.986,-5.853 9.748,-12.837 14.13,-14.588 3.743,-1.498 4.125,-2.069 5.298,-7.922 0.706,-3.525 4.375,-7.34 9.526,-9.906 1.925,-0.959 5.75,-4.048 8.5,-6.864 2.75,-2.816 5.814,-5.57 6.81,-6.12 1.429,-0.79 1.99,-2.931 2.666,-10.19 0.471,-5.05 1.462,-10.454 2.202,-12 1.701,-3.553 6.303,-5.18 14.862,-5.254 16.669,-0.144 36.792,9.705 55.4,27.11 14.444,13.514 29.65,32.29 40.989,50.625 4.575,7.396 5.667,10.03 6.06,14.59 0.412,4.843 0.21,5.709 -1.555,6.653 -1.116,0.597 -11.146,2.153 -22.289,3.457 -23.29,2.726 -25.26,3.127 -27.783,5.649 -2.286,2.286 -7.146,2.415 -8.953,0.238 -1.507,-1.816 1.065,-1.976 -33.833,2.101 -12.337,1.441 -22.799,2.849 -23.25,3.127 -0.451,0.279 -0.82,2.889 -0.82,5.8 0,3.844 -0.616,6.198 -2.25,8.597 -5.316,7.807 -8.742,6.29 -8.765,-3.881 -0.023,-10.07 0.711,-9.737 -17.14,-7.723 -8.437,0.952 -17.14,2.349 -19.34,3.106 -2.2,0.756 -5.119,1.288 -6.488,1.183 -2.194,-0.17 -2.632,0.387 -3.712,4.72 -1.623,6.508 -2.532,7.316 -6.533,5.806 -2.627,-0.991 -3.461,-0.953 -4.628,0.214 -1.232,1.232 -1.211,2.01 0.153,5.746 0.867,2.377 2.72,7.472 4.116,11.322 5.443,15 1.201,22.657 -7.834,14.14 z m 5.704,-6.936 c -0.122,-2.048 -1.584,-7.127 -3.25,-11.287 -3.271,-8.168 -3.725,-12.488 -1.725,-16.412 1.035,-2.032 2.02,-2.5 5.235,-2.5 h 3.962 l 0.527,-5.241 c 0.295,-2.935 1.259,-5.973 2.19,-6.904 1.486,-1.486 1.909,-1.506 3.973,-0.184 4.738,3.034 5.585,2.907 9.766,-1.465 l 4.02,-4.206 0.011,2.866 0.011,2.866 6.674,-0.715 c 9.256,-0.991 9.906,-1.329 7.28,-3.776 -1.711,-1.594 -1.875,-2.178 -0.802,-2.858 0.741,-0.47 2.28,-0.861 3.42,-0.87 1.14,-0.008 3.84,-1.353 6,-2.987 2.16,-1.635 4.48,-2.985 5.155,-3 2.35,-0.053 4.158,4.531 5.313,13.472 1.821,14.1 3.86,14.13 5.995,0.101 1.337,-8.789 2.366,-11.598 4.251,-11.607 0.668,-0.003 2.938,-0.484 5.04,-1.069 2.994,-0.831 4.153,-1.836 5.307,-4.599 1.448,-3.465 1.566,-3.523 5.867,-2.878 2.982,0.447 5.288,0.2 7.193,-0.771 1.623,-0.827 5.771,-1.44 9.853,-1.456 5.294,-0.021 8.587,-0.674 13.22,-2.624 7.237,-3.046 7.6,-3.084 9.659,-1.025 1.178,1.178 1.571,3.664 1.571,9.918 0,9.57 0.506,11.51 3,11.51 2.206,0 2.998,-1.933 3.01,-7.332 0.008,-6.04 1.746,-11.381 4.278,-13.154 2.881,-2.02 3.2,-0.705 1.236,5.079 -0.963,2.836 -1.24,5.087 -0.694,5.633 0.546,0.546 9.127,-0.119 21.48,-1.666 20.922,-2.62 23.694,-3.155 23.694,-4.574 0,-2.517 -20.392,-16.599 -25.37,-17.519 -2.738,-0.506 -3.814,0.055 -8.585,4.477 -3,2.781 -5.869,5.056 -6.375,5.056 -1.403,0 0.073,-5.849 2.445,-9.686 4.993,-8.08 9.823,-8.03 21.962,0.239 12.601,8.58 12.784,7.886 1.673,-6.335 -15.241,-19.507 -33.62,-37.38 -49.25,-47.905 -19.553,-13.162 -41.545,-18.521 -46.06,-11.223 -0.44,0.712 -1.091,4.966 -1.448,9.453 l -0.648,8.159 -8.679,8.399 c -4.774,4.619 -10.301,9.723 -12.282,11.342 -1.982,1.619 -4.333,4.474 -5.226,6.345 -1.537,3.222 -1.521,3.476 0.299,4.807 3.759,2.748 7.473,1.762 11.778,-3.128 2.195,-2.493 5.333,-5.228 6.973,-6.076 2.162,-1.118 2.844,-2.072 2.479,-3.466 -0.606,-2.316 1.514,-2.588 3.31,-0.424 0.839,1.011 3.096,1.5 6.926,1.5 4.051,0 7.117,0.715 10.684,2.493 5.756,2.868 11.62,8.507 9.603,9.234 -0.708,0.255 -2.626,1.591 -4.262,2.968 -2.362,1.987 -4.268,2.561 -9.241,2.783 -3.446,0.154 -8.801,1.079 -11.9,2.056 -5.528,1.743 -5.743,1.736 -11.472,-0.361 -10.335,-3.783 -14.444,-4.295 -20.966,-2.61 -7.365,1.903 -11.918,6.188 -14.414,13.567 -1.635,4.834 -2.181,5.457 -5.463,6.238 -2.083,0.495 -5.221,2.468 -7.32,4.602 -2.02,2.054 -5.571,4.775 -7.888,6.05 -3.845,2.11 -7.286,6.806 -7.286,9.944 0,0.637 -1.999,2.977 -4.443,5.201 -5.539,5.04 -6.163,7.725 -3.532,15.19 1.73,4.907 1.955,7.175 1.396,14.06 -0.714,8.796 -0.287,10.29 5.392,18.879 3.24,4.9 5.775,4.625 5.464,-0.593 z m 28.722,-57.8 c -1.925,-0.493 -5.525,-0.784 -8,-0.648 -6.088,0.336 -6.544,-1.405 -0.862,-3.292 5.407,-1.795 10.851,-7.371 9,-9.22 -1.904,-1.904 -1.296,-2.74 1.994,-2.74 5.04,0 10.948,-2.195 12.57,-4.671 1.78,-2.717 7.828,-6.652 9.412,-6.124 0.648,0.216 0.022,1.666 -1.502,3.477 -3.28,3.898 -3.293,5.643 -0.056,7.763 2.386,1.564 2.848,1.565 6.902,0.017 4.097,-1.565 8.54,-1.317 8.54,0.477 0,0.443 -1.77,1.088 -3.934,1.434 -3.049,0.488 -4.74,1.613 -7.518,5 -2.706,3.303 -4.498,4.521 -7.316,4.974 -2.053,0.33 -5.515,1.512 -7.693,2.625 -4.256,2.175 -6.081,2.321 -11.539,0.924 z m 71.5,-14.685 c -2.268,-0.857 -7.573,-1.555 -12.25,-1.613 -4.538,-0.056 -8.25,-0.145 -8.25,-0.199 0,-0.053 0.891,-1.124 1.979,-2.379 2.343,-2.702 1.941,-3.643 -2.298,-5.372 -2.832,-1.155 -2.945,-1.349 -1.077,-1.838 1.149,-0.3 3.962,0.087 6.252,0.861 4.056,1.371 4.279,1.328 8.657,-1.684 9.579,-6.59 17.776,-8.586 23.459,-5.71 2.941,1.488 8.418,9.28 7.531,10.714 -0.342,0.553 -1.382,1.01 -2.312,1.01 -0.93,0 -4.616,1.442 -8.191,3.203 -3.575,1.761 -7.175,3.499 -8,3.862 -0.825,0.363 -3.3,-0.02 -5.5,-0.851 z m 31.11,-19.833 c -3.333,-4.01 -6.633,-5.92 -11.936,-6.915 -2.627,-0.493 -4.543,-1.738 -6.379,-4.145 -3.395,-4.451 -7.2,-6.357 -13.617,-6.822 -4.795,-0.348 -5.16,-0.555 -4.914,-2.791 0.222,-2.025 -0.689,-2.923 -5.64,-5.562 -3.248,-1.731 -7.278,-3.147 -8.956,-3.147 -3.671,0 -4.509,-1.076 -3.251,-4.175 0.519,-1.279 1.218,-3.602 1.554,-5.163 0.592,-2.751 0.685,-2.789 3.034,-1.25 2.268,1.486 2.493,1.459 3.494,-0.412 1.438,-2.687 2.807,-2.519 4.188,0.514 0.781,1.713 1.693,2.341 2.862,1.969 1.231,-0.391 1.897,0.172 2.352,1.986 0.655,2.611 2.01,3.282 3.097,1.531 1.408,-2.279 3.355,-0.819 4,3 0.372,2.2 0.941,4 1.265,4 0.324,0 1.801,-1.452 3.283,-3.227 l 2.694,-3.227 0.709,3.227 c 0.71,3.234 1.893,4.098 3.05,2.227 0.34,-0.55 1.323,-1 2.184,-1 1.218,0 1.428,0.689 0.945,3.105 -0.536,2.68 -0.382,3.01 1.125,2.387 5.431,-2.236 6.078,-1.81 4.31,2.84 -1.347,3.544 -0.293,3.925 4.073,1.471 4.591,-2.58 5.556,-1.965 4.142,2.642 -0.581,1.894 -0.812,3.688 -0.514,3.986 0.299,0.299 2.274,0.266 4.389,-0.072 3.19,-0.51 3.846,-0.326 3.846,1.079 0,0.931 -0.468,2.568 -1.04,3.637 -0.872,1.63 -0.63,2.1 1.5,2.91 1.397,0.531 2.54,1.147 2.54,1.368 0,1.794 -3.286,7.632 -4.263,7.575 -0.68,-0.04 -2.537,-1.635 -4.125,-3.546 z m -79.61,45.618 c 0,-1.174 -0.769,-1.174 -3.5,0 -1.772,0.762 -1.687,0.867 0.75,0.93 1.512,0.039 2.75,-0.38 2.75,-0.93 z m 48.858,-5.05 c 22.473,-2.764 21.14,-2.369 21.14,-6.272 0,-5.07 -1.573,-5.94 -6.341,-3.507 -3.184,1.624 -5.194,1.947 -9.408,1.513 -4.598,-0.475 -5.88,-0.199 -9.03,1.94 -2.834,1.923 -4.69,2.422 -8.122,2.183 -4.098,-0.285 -4.6,-0.054 -6.364,2.94 -2.349,3.986 -3.743,3.893 18.13,1.203 z" fill="#a43b37"/><path d="m 221.15,486.64 c -6.077,-5.731 -7.964,-11.458 -7.708,-23.383 0.2,-9.292 -0.009,-10.644 -2.241,-14.5 -4.526,-7.818 -3.997,-12.835 1.935,-18.36 2.638,-2.457 4.961,-5.697 5.51,-7.688 1.749,-6.336 5.082,-10.115 9.799,-11.11 2.794,-0.592 4.851,-1.762 5.893,-3.352 0.88,-1.344 3.31,-3.522 5.398,-4.84 2.092,-1.321 4.736,-4.238 5.889,-6.497 2.986,-5.853 9.748,-12.837 14.13,-14.588 3.743,-1.498 4.125,-2.069 5.298,-7.922 0.706,-3.525 4.375,-7.34 9.526,-9.906 1.925,-0.959 5.75,-4.048 8.5,-6.864 2.75,-2.816 5.814,-5.57 6.81,-6.12 1.429,-0.79 1.99,-2.931 2.666,-10.19 0.471,-5.05 1.462,-10.454 2.202,-12 1.701,-3.553 6.303,-5.18 14.862,-5.254 16.669,-0.144 36.792,9.705 55.4,27.11 14.444,13.514 29.65,32.29 40.989,50.625 4.575,7.396 5.667,10.03 6.06,14.59 0.412,4.843 0.21,5.709 -1.555,6.653 -1.116,0.597 -11.146,2.153 -22.289,3.457 -23.29,2.726 -25.26,3.127 -27.783,5.649 -2.286,2.286 -7.146,2.415 -8.953,0.238 -1.507,-1.816 1.065,-1.976 -33.833,2.101 -12.337,1.441 -22.799,2.849 -23.25,3.127 -0.451,0.279 -0.82,2.889 -0.82,5.8 0,3.844 -0.616,6.198 -2.25,8.597 -5.316,7.807 -8.742,6.29 -8.765,-3.881 -0.023,-10.07 0.711,-9.737 -17.14,-7.723 -8.437,0.952 -17.14,2.349 -19.34,3.106 -2.2,0.756 -5.119,1.288 -6.488,1.183 -2.194,-0.17 -2.632,0.387 -3.712,4.72 -1.623,6.508 -2.532,7.316 -6.533,5.806 -2.627,-0.991 -3.461,-0.953 -4.628,0.214 -1.232,1.232 -1.211,2.01 0.153,5.746 0.867,2.377 2.72,7.472 4.116,11.322 5.443,15 1.201,22.657 -7.834,14.14 z m 6.231,-5.29 c 0.168,-1.174 -1.294,-6.407 -3.25,-11.628 -3.722,-9.938 -4.18,-12.944 -2.603,-17.09 0.781,-2.054 1.727,-2.561 5.25,-2.815 l 4.297,-0.31 0.527,-5.241 c 0.292,-2.901 1.26,-5.974 2.168,-6.882 1.521,-1.521 1.894,-1.485 5.11,0.503 4.02,2.486 5.566,2.139 8.573,-1.928 2.43,-3.286 4.366,-3.88 3.916,-1.201 -0.26,1.546 0.522,1.722 6.701,1.513 9.14,-0.31 10.282,-0.747 8.141,-3.113 -2.234,-2.469 -2.087,-2.893 1.262,-3.628 1.594,-0.35 4.632,-1.948 6.75,-3.552 2.118,-1.603 4.404,-2.928 5.078,-2.943 2.298,-0.052 4.068,4.458 5.289,13.472 1.97,14.549 3.779,14.862 5.949,1.031 1.832,-11.672 2.11,-12.147 7.714,-13.16 4.257,-0.769 5.04,-1.321 6.698,-4.716 1.83,-3.747 1.984,-3.828 6.05,-3.218 2.805,0.421 5.422,0.105 7.976,-0.962 2.091,-0.874 4.992,-1.337 6.448,-1.03 3.685,0.777 11.672,-0.796 17.864,-3.519 5.077,-2.233 5.272,-2.245 7.25,-0.455 1.749,1.583 2.033,3.062 2.033,10.613 0,6.789 0.37,9.144 1.636,10.409 2.46,2.46 3.639,0.516 4.484,-7.397 0.808,-7.561 3.093,-13.1 5.406,-13.1 1.803,0 1.813,-0.35 -0.147,5.401 -1.179,3.459 -1.321,5.057 -0.521,5.857 0.8,0.8 7.01,0.363 22.749,-1.599 11.907,-1.484 22.08,-2.964 22.603,-3.288 2.355,-1.455 -12.708,-13.42 -22.591,-17.945 l -5.635,-2.58 -5.712,5.577 c -3.142,3.067 -6.06,5.577 -6.492,5.577 -3,0 3.355,-12.822 7.292,-14.707 3.778,-1.809 8.592,-0.128 17.916,6.258 12.714,8.707 13.12,7.539 2.142,-6.199 -18.09,-22.651 -33.73,-37.889 -50.16,-48.89 -11.07,-7.408 -18.53,-10.914 -28.875,-13.565 -10.234,-2.622 -12.675,-2.467 -16.17,1.025 -2.418,2.418 -2.925,3.756 -2.934,7.75 -0.022,9.613 -0.945,12.232 -5.517,15.653 -2.333,1.746 -5.299,4.705 -6.591,6.577 -1.292,1.872 -4.4,4.665 -6.907,6.208 -4.422,2.721 -8.974,8.938 -8.974,12.256 0,1.502 1.614,2.194 6.651,2.852 1.51,0.197 3.407,-1.145 6.365,-4.503 2.317,-2.631 5.555,-5.478 7.196,-6.326 2.162,-1.118 2.844,-2.072 2.479,-3.466 -0.588,-2.249 1.494,-2.612 3.199,-0.558 0.669,0.806 3.969,1.569 8.05,1.861 4.958,0.355 8.137,1.214 11.238,3.038 5.465,3.214 9.841,7.824 8.04,8.467 -0.708,0.252 -2.595,1.559 -4.194,2.905 -2.284,1.922 -4.259,2.51 -9.213,2.745 -3.468,0.165 -8.84,1.111 -11.937,2.103 l -5.631,1.804 -7.369,-2.596 c -10.193,-3.59 -12.86,-3.968 -18.481,-2.62 -7.372,1.768 -11.09,4.669 -14,10.926 -1.408,3.02 -2.905,6.172 -3.327,6.992 -0.422,0.821 -2.272,1.924 -4.11,2.451 -1.838,0.527 -4.941,2.601 -6.896,4.609 -1.955,2.01 -5,4.397 -6.775,5.31 -4.413,2.273 -6.774,5.01 -8.106,9.415 -0.663,2.188 -2.33,4.521 -4.045,5.66 -3.29,2.185 -6.128,6.453 -6.127,9.216 0,1.015 0.902,4.218 2,7.117 1.671,4.397 1.898,6.642 1.369,13.533 -0.67,8.713 0.342,12.163 5.863,19.998 2.251,3.194 5.115,3.215 5.569,0.042 z m 29.19,-59.34 c -1.375,-0.44 -5.425,-0.86 -9,-0.932 -5.917,-0.12 -6.328,-0.262 -4.576,-1.587 1.058,-0.801 3.335,-1.72 5.06,-2.044 3.867,-0.725 9.353,-7 7.628,-8.725 -1.981,-1.981 -1.194,-2.712 2.92,-2.712 5.04,0 10.473,-2.208 11.875,-4.826 1.284,-2.399 7.635,-6.493 9.241,-5.958 0.667,0.222 -0.168,1.876 -2,3.965 -1.73,1.971 -3.146,3.831 -3.146,4.133 0,0.302 1.338,1.503 2.973,2.667 2.81,2 3.213,2.035 7.364,0.626 4.232,-1.437 9.148,-1.2 8.163,0.393 -0.263,0.425 -2.042,1.066 -3.954,1.425 -2.454,0.46 -4.524,1.932 -7.04,5 -2.879,3.513 -4.386,4.475 -7.818,4.99 -2.338,0.351 -5.71,1.525 -7.493,2.609 -3.392,2.063 -6.01,2.312 -10.193,0.971 z m 12.84,-5.078 c 6.531,-3.264 7.636,-5.292 3.828,-7.03 -3.233,-1.473 -9.637,0.378 -12.733,3.679 l -2.435,2.596 2.361,1.915 c 1.298,1.053 2.464,1.915 2.59,1.915 0.126,0 3,-1.385 6.389,-3.078 z m 54.16,-10.588 c -3.01,-0.98 -6.627,-1.288 -10.902,-0.925 l -6.402,0.544 2.257,-2.403 c 2.534,-2.698 2.084,-4.149 -1.8,-5.805 l -2.653,-1.131 2.857,-0.384 c 1.572,-0.211 4.129,0.143 5.684,0.787 2.535,1.05 3.312,0.836 7.548,-2.079 9.303,-6.401 17.773,-8.354 23.466,-5.41 2.406,1.244 7.945,8.128 7.945,9.874 0,0.243 -1.688,0.989 -3.75,1.657 -2.063,0.668 -6.325,2.503 -9.471,4.078 -6.357,3.18 -8.233,3.332 -14.779,1.197 z m 14.627,-5.471 c 3.505,-1.725 6.373,-3.525 6.373,-4 0,-1.555 -3.894,-4.798 -6.565,-5.468 -3.879,-0.973 -10.123,1.284 -14.272,5.16 -3.054,2.853 -3.414,3.587 -2.163,4.419 0.825,0.548 2.4,1.01 3.5,1.027 1.1,0.017 2.675,0.467 3.5,1 2.18,1.409 2.624,1.311 9.627,-2.137 z m 20.319,-13.485 c -3.596,-3.78 -10.04,-7.318 -13.406,-7.356 -1.078,-0.012 -3.778,-1.997 -6,-4.412 -4.169,-4.529 -8.955,-6.594 -15.31,-6.605 -2.889,-0.005 -3.204,-0.267 -2.708,-2.256 0.472,-1.893 -0.303,-2.765 -4.887,-5.5 -3.396,-2.026 -6.779,-3.25 -8.983,-3.25 -4.303,0 -5.274,-1.276 -3.211,-4.221 0.857,-1.223 1.558,-3.249 1.558,-4.502 0,-2.621 0.305,-2.729 2.989,-1.052 1.65,1.031 2.208,0.911 3.513,-0.75 1.536,-1.955 1.568,-1.952 3.147,0.275 0.877,1.238 2.44,2.25 3.473,2.25 1.033,0 1.878,0.648 1.878,1.441 0,2.088 1.862,2.918 3.5,1.559 2.075,-1.722 3.151,-0.569 3.942,4.228 l 0.705,4.272 2.749,-3.25 c 3.328,-3.934 4.104,-4.054 4.104,-0.633 0,2.01 0.403,2.503 1.75,2.122 4.672,-1.321 4.756,-1.292 4.462,1.511 -0.303,2.894 1.433,3.705 3.501,1.637 2,-2 3.26,-0.109 2.112,3.186 -1.473,4.225 -0.341,4.769 4.329,2.081 2.211,-1.272 4.292,-2.041 4.625,-1.709 0.333,0.333 0.069,2.088 -0.587,3.901 -1.706,4.718 -1.634,4.822 3.058,4.471 4.446,-0.332 4.931,0.342 3.231,4.492 -0.553,1.351 -0.201,1.951 1.389,2.367 1.198,0.313 2.13,1.361 2.13,2.393 0,2.164 -2.039,6.93 -2.964,6.93 -0.354,0 -2.194,-1.63 -4.089,-3.622 z m -80.51,46.724 c 1.269,-0.497 1.542,-0.999 0.796,-1.46 -1.51,-0.933 -6.369,0.323 -5.664,1.465 0.648,1.048 2.183,1.047 4.868,-0.004 z m 53.07,-6.439 17,-2.163 0.318,-3.882 c 0.455,-5.552 -0.816,-6.282 -6.308,-3.623 -3.738,1.81 -5.596,2.119 -9.569,1.592 -4.186,-0.555 -5.397,-0.309 -8.02,1.63 -2.243,1.658 -4.451,2.284 -8.06,2.284 -4.126,0 -5.301,0.426 -6.894,2.5 -1.056,1.375 -1.931,2.837 -1.943,3.25 -0.033,1.121 4.722,0.8 23.478,-1.587 z m -35.5,-42.16 c 2.338,-0.825 7.259,-1.5 10.935,-1.5 4.397,0 7.347,-0.511 8.624,-1.494 1.887,-1.452 1.853,-1.576 -1.207,-4.395 -3.737,-3.443 -9.543,-4.675 -15.05,-3.193 -4.865,1.31 -13.519,6.931 -13.02,8.454 0.276,0.837 4.173,3.475 5.338,3.613 0.068,0.008 2.037,-0.66 4.376,-1.485 z" fill="#2f2924"/></g></g></svg>