<svg xmlns="http://www.w3.org/2000/svg" viewBox="0 0 256 256"><defs><clipPath><path d="M 0,64 H64 V128 H0 z"/></clipPath></defs><path d="m -141.77 114.19 c -23.375 -9.972 -55.848 -24.645 -58.74 -26.541 -1.767 -1.158 -4.743 -4.123 -6.613 -6.588 -5.342 -7.04 -34.1 -57.23 -35.35 -61.698 -1.161 -4.145 -0.64 -19.29 1.133 -32.972 4.02 -40.43 1.975 -39.489 7.288 -48.18 1.133 -2.351 12.588 -15.726 25.455 -29.723 24.737 -26.908 27.378 -29.08 37.814 -31.12 28.15 -4.838 45.87 -10.826 71.11 -12.308 22.454 9.595 46.665 19.607 67.882 31.607 3.31 2.842 8.233 10.278 19.285 29.13 22.633 38.605 20.805 34.37 20.672 47.897 -2.273 21.03 -2.134 56.09 -9.42 71 -2.521 4.704 -35.504 41.94 -45.926 51.849 -5.185 4.93 -10.38 7.167 -22.44 9.666 -12.207 4.538 -40.855 9.263 -50.675 11.05 -5.667 1.317 -12.288 0.849 -21.48 -3.072 z" fill="#34344b" transform="translate(245.16 136.31)"/><g transform="matrix(4.49855 0 0 4.57182 21.247 17.07)"><path d="M 31.32,9 C 29.3,9 26.664,10.438 23.992,12.93 21.32,10.454 18.68,9.032 16.664,9.032 v 1.639 c 1.52,0 3.768,1.206 6.16,3.41 -1.024,1.078 -2.055,2.299 -3.03,3.656 -1.656,0.176 -3.232,0.447 -4.664,0.807 -0.168,-0.735 -0.297,-1.444 -0.385,-2.123 -0.344,-2.795 0.08,-4.976 1.072,-5.551 0.224,-0.136 0.504,-0.191 0.84,-0.191 V 9.04 c -0.616,0 -1.176,0.137 -1.656,0.408 -2.064,1.19 -2.529,4.887 -1.465,9.527 -4.568,1.406 -7.535,3.657 -7.535,6.03 0,2.38 2.984,4.64 7.568,6.04 -1.056,4.656 -0.584,8.361 1.48,9.551 0.48,0.28 1.03,0.408 1.646,0.408 2.02,0 4.656,-1.438 7.328,-3.93 2.672,2.476 5.312,3.898 7.328,3.898 0.616,0 1.176,-0.137 1.656,-0.408 2.064,-1.19 2.529,-4.887 1.465,-9.527 4.56,-1.398 7.527,-3.649 7.527,-6.03 0,-2.38 -2.984,-4.64 -7.568,-6.04 1.056,-4.656 0.584,-8.361 -1.48,-9.551 C 32.473,9.138 31.925,9.009 31.32,9.008 m -0.008,1.629 v 0.008 c 0.336,0 0.608,0.064 0.84,0.191 1,0.575 1.432,2.748 1.096,5.543 -0.08,0.687 -0.217,1.414 -0.377,2.156 -1.44,-0.351 -3.01,-0.623 -4.654,-0.799 -0.992,-1.358 -2.02,-2.588 -3.057,-3.666 2.388,-2.217 4.632,-3.43 6.152,-3.434 z m -7.336,4.592 c 0.68,0.703 1.367,1.485 2.039,2.348 -0.664,-0.032 -1.336,-0.047 -2.02,-0.047 -0.688,0 -1.375,0.015 -2.039,0.047 0.664,-0.862 1.344,-1.645 2.02,-2.348 z m 0.023,3.938 c 1.112,0 2.217,0.049 3.305,0.137 0.608,0.87 1.199,1.805 1.775,2.787 0.56,0.958 1.063,1.932 1.527,2.914 -0.464,0.974 -0.976,1.958 -1.52,2.924 -0.576,0.99 -1.16,1.924 -1.768,2.795 -1.096,0.096 -2.2,0.143 -3.32,0.143 -1.112,0 -2.217,-0.047 -3.305,-0.135 -0.608,-0.87 -1.199,-1.805 -1.775,-2.787 -0.56,-0.958 -1.063,-1.934 -1.527,-2.916 0.456,-0.982 0.968,-1.964 1.52,-2.922 0.576,-0.99 1.16,-1.924 1.768,-2.795 1.096,-0.096 2.2,-0.145 3.32,-0.145 m -5.455,0.375 c -0.36,0.567 -0.721,1.143 -1.057,1.734 -0.336,0.583 -0.657,1.173 -0.953,1.756 -0.4,-0.982 -0.736,-1.964 -1.016,-2.914 0.968,-0.224 1.977,-0.424 3.03,-0.576 z m 10.895,0 c 1.04,0.152 2.048,0.344 3.01,0.584 -0.272,0.942 -0.608,1.916 -0.992,2.891 -0.304,-0.583 -0.615,-1.175 -0.959,-1.758 -0.336,-0.583 -0.697,-1.158 -1.057,-1.717 z m 4.6,1.016 c 0.728,0.224 1.416,0.478 2.064,0.75 2.6,1.11 4.281,2.555 4.281,3.705 -0.024,1.142 -1.705,2.603 -4.297,3.705 -0.632,0.272 -1.319,0.513 -2.031,0.744 -0.416,-1.437 -0.968,-2.932 -1.648,-4.465 0.672,-1.525 1.215,-3.01 1.631,-4.439 z m -20.1,0.008 c 0.416,1.437 0.968,2.93 1.648,4.463 -0.672,1.525 -1.217,3.01 -1.633,4.441 -0.72,-0.232 -1.407,-0.48 -2.047,-0.752 -2.6,-1.11 -4.281,-2.555 -4.281,-3.705 0,-1.15 1.681,-2.611 4.281,-3.705 0.632,-0.272 1.319,-0.511 2.031,-0.742 z m 10.06,1.436 a 3,3 0 0 0 -3,3 3,3 0 0 0 3,3 3,3 0 0 0 3,-3 3,3 0 0 0 -3,-3 z m 7.455,4.969 c 0.4,0.982 0.738,1.964 1.018,2.914 -0.96,0.232 -1.977,0.432 -3.03,0.584 0.36,-0.567 0.721,-1.141 1.057,-1.732 0.336,-0.583 0.647,-1.175 0.951,-1.766 z m -14.92,0.039 c 0.304,0.583 0.617,1.175 0.961,1.758 0.344,0.575 0.697,1.15 1.057,1.709 -1.04,-0.152 -2.048,-0.343 -3.01,-0.574 0.272,-0.942 0.606,-1.918 0.99,-2.893 z m 16.354,4.457 c 0.16,0.743 0.287,1.454 0.375,2.133 0.344,2.795 -0.08,4.974 -1.072,5.549 -0.224,0.136 -0.504,0.193 -0.84,0.193 -1.52,0 -3.768,-1.206 -6.16,-3.41 1.024,-1.078 2.057,-2.301 3.033,-3.658 1.656,-0.176 3.232,-0.447 4.664,-0.807 z m -17.752,0.016 c 1.44,0.351 3.01,0.623 4.656,0.799 0.992,1.358 2.01,2.588 3.055,3.666 -2.392,2.22 -4.64,3.434 -6.16,3.434 -0.336,-0.008 -0.616,-0.071 -0.832,-0.199 -1,-0.575 -1.432,-2.748 -1.096,-5.543 0.08,-0.687 0.217,-1.414 0.377,-2.156 z m 6.84,0.959 c 0.664,0.032 1.336,0.047 2.02,0.047 0.688,0 1.375,-0.015 2.039,-0.047 -0.656,0.862 -1.344,1.645 -2.02,2.348 -0.68,-0.703 -1.367,-1.485 -2.039,-2.348 z" opacity="0.2"/><path d="m 42,24 c 0,-2.38 -2.984,-4.64 -7.568,-6.04 1.056,-4.656 0.584,-8.361 -1.48,-9.551 -0.48,-0.28 -1.032,-0.407 -1.64,-0.407 v 1.637 c 0.336,0 0.608,0.064 0.84,0.192 1,0.575 1.432,2.747 1.096,5.542 -0.08,0.687 -0.216,1.414 -0.376,2.156 -1.44,-0.351 -3.01,-0.623 -4.656,-0.799 -0.992,-1.358 -2.02,-2.587 -3.056,-3.666 2.392,-2.22 4.64,-3.434 6.16,-3.434 V 7.993 c -2.02,0 -4.656,1.437 -7.328,3.929 C 21.32,9.446 18.68,8.025 16.664,8.025 v 1.637 c 1.52,0 3.768,1.206 6.16,3.41 -1.024,1.078 -2.056,2.3 -3.03,3.658 -1.656,0.176 -3.232,0.447 -4.664,0.807 -0.168,-0.735 -0.296,-1.445 -0.384,-2.124 -0.344,-2.795 0.08,-4.975 1.072,-5.55 0.224,-0.136 0.504,-0.192 0.84,-0.192 V 8.034 c -0.616,0 -1.176,0.136 -1.656,0.407 -2.064,1.19 -2.528,4.887 -1.464,9.527 -4.568,1.406 -7.536,3.658 -7.536,6.03 0,2.38 2.984,4.64 7.568,6.04 -1.056,4.656 -0.584,8.361 1.48,9.551 0.48,0.28 1.032,0.407 1.648,0.407 2.02,0 4.656,-1.437 7.328,-3.929 2.672,2.476 5.312,3.897 7.328,3.897 0.616,0 1.176,-0.136 1.656,-0.407 2.064,-1.19 2.528,-4.887 1.464,-9.527 4.56,-1.398 7.528,-3.65 7.528,-6.03 M 32.45,19.121 c -0.272,0.942 -0.608,1.917 -0.992,2.891 -0.304,-0.583 -0.616,-1.174 -0.96,-1.757 -0.336,-0.583 -0.696,-1.158 -1.056,-1.717 1.04,0.152 2.048,0.343 3.01,0.583 z m -3.36,7.802 c -0.576,0.99 -1.16,1.925 -1.768,2.795 -1.096,0.096 -2.2,0.144 -3.32,0.144 -1.112,0 -2.216,-0.048 -3.304,-0.136 -0.608,-0.87 -1.2,-1.805 -1.776,-2.787 -0.56,-0.958 -1.064,-1.933 -1.528,-2.915 0.456,-0.982 0.968,-1.965 1.52,-2.923 0.576,-0.99 1.16,-1.925 1.768,-2.795 1.096,-0.096 2.2,-0.144 3.32,-0.144 1.112,0 2.216,0.048 3.304,0.136 0.608,0.87 1.2,1.805 1.776,2.787 0.56,0.958 1.064,1.933 1.528,2.915 -0.464,0.974 -0.976,1.957 -1.52,2.923 z m 2.368,-0.958 c 0.4,0.982 0.736,1.965 1.016,2.915 -0.96,0.232 -1.976,0.431 -3.02,0.583 0.36,-0.567 0.72,-1.142 1.056,-1.733 0.336,-0.583 0.648,-1.174 0.952,-1.765 z m -7.44,7.818 c -0.68,-0.703 -1.368,-1.485 -2.04,-2.348 0.664,0.032 1.336,0.048 2.02,0.048 0.688,0 1.376,-0.016 2.04,-0.048 -0.656,0.862 -1.344,1.645 -2.02,2.348 z m -5.464,-4.312 c -1.04,-0.152 -2.048,-0.343 -3.01,-0.575 0.272,-0.942 0.608,-1.917 0.992,-2.891 0.304,0.583 0.616,1.174 0.96,1.757 0.344,0.575 0.696,1.15 1.056,1.709 z m 5.424,-15.245 c 0.68,0.703 1.368,1.485 2.04,2.348 -0.664,-0.032 -1.336,-0.048 -2.02,-0.048 -0.688,0 -1.376,0.016 -2.04,0.048 0.664,-0.862 1.344,-1.645 2.02,-2.348 z m -5.432,4.312 c -0.36,0.567 -0.72,1.142 -1.056,1.733 -0.336,0.583 -0.656,1.174 -0.952,1.757 -0.4,-0.982 -0.736,-1.965 -1.016,-2.915 0.968,-0.224 1.976,-0.423 3.02,-0.575 z m -6.64,9.176 c -2.6,-1.11 -4.28,-2.556 -4.28,-3.706 0,-1.15 1.68,-2.611 4.28,-3.706 0.632,-0.272 1.32,-0.511 2.032,-0.743 0.416,1.437 0.968,2.931 1.648,4.464 -0.672,1.525 -1.216,3.01 -1.632,4.44 -0.72,-0.232 -1.408,-0.479 -2.048,-0.751 z m 3.952,10.462 c -1,-0.575 -1.432,-2.747 -1.096,-5.542 0.08,-0.687 0.216,-1.414 0.376,-2.156 1.44,0.351 3.01,0.623 4.656,0.799 0.992,1.358 2.02,2.587 3.056,3.666 -2.392,2.22 -4.64,3.434 -6.16,3.434 -0.336,-0.008 -0.616,-0.072 -0.832,-0.2 z m 17.408,-5.582 c 0.344,2.795 -0.08,4.975 -1.072,5.55 -0.224,0.136 -0.504,0.192 -0.84,0.192 -1.52,0 -3.768,-1.206 -6.16,-3.41 1.024,-1.078 2.056,-2.3 3.03,-3.658 1.656,-0.176 3.232,-0.447 4.664,-0.807 0.16,0.743 0.288,1.453 0.376,2.132 z m 2.824,-4.879 c -0.632,0.272 -1.32,0.511 -2.032,0.743 -0.416,-1.437 -0.968,-2.931 -1.648,-4.464 0.672,-1.525 1.216,-3.01 1.632,-4.44 0.728,0.224 1.416,0.479 2.064,0.751 2.6,1.11 4.28,2.556 4.28,3.706 -0.024,1.142 -1.704,2.603 -4.296,3.706 z" fill="#e1145e"/><g fill="#fff"><circle r="3" cy="24" cx="24"/><path d="M 31.32,8 C 29.3,8 26.664,9.438 23.992,11.93 21.32,9.454 18.68,8.032 16.664,8.032 v 1 c 2.02,0 4.656,1.423 7.328,3.898 C 26.664,10.438 29.304,9 31.32,9 v 0.008 c 0.605,0.001 1.153,0.13 1.631,0.408 1.245,0.718 1.901,2.362 2,4.566 0.072,-2.706 -0.576,-4.745 -2,-5.566 C 32.473,8.138 31.925,8.009 31.32,8.008 V 8 z M 16.656,8.039 C 16.04,8.039 15.48,8.176 15,8.447 13.575,9.268 12.932,11.3 13.008,13.996 13.106,11.802 13.757,10.164 15,9.447 15.48,9.175 16.04,9.039 16.656,9.039 v -1 z m 9,5.59 c -0.167,0.146 -0.332,0.285 -0.5,0.441 1.04,1.078 2.065,2.308 3.057,3.666 1.648,0.176 3.214,0.447 4.654,0.799 0.16,-0.743 0.297,-1.469 0.377,-2.156 0.098,-0.818 0.124,-1.573 0.096,-2.26 -0.016,0.404 -0.043,0.821 -0.096,1.26 -0.08,0.687 -0.217,1.414 -0.377,2.156 -1.44,-0.351 -3.01,-0.623 -4.654,-0.799 -0.832,-1.138 -1.689,-2.163 -2.557,-3.107 z m -3.336,0.012 c -0.858,0.942 -1.714,1.959 -2.531,3.096 -1.656,0.176 -3.232,0.447 -4.664,0.807 -0.168,-0.735 -0.297,-1.444 -0.385,-2.123 -0.056,-0.453 -0.085,-0.882 -0.102,-1.299 -0.029,0.697 -10e-4,1.466 0.102,2.299 0.088,0.679 0.217,1.388 0.385,2.123 1.432,-0.359 3.01,-0.631 4.664,-0.807 0.976,-1.358 2.01,-2.578 3.03,-3.656 -0.168,-0.155 -0.333,-0.294 -0.5,-0.439 z m 1.676,2.889 c -0.408,0 -0.806,0.016 -1.209,0.027 -0.278,0.329 -0.555,0.663 -0.83,1.02 0.664,-0.032 1.351,-0.047 2.039,-0.047 0.68,0 1.352,0.015 2.02,0.047 -0.278,-0.357 -0.56,-0.69 -0.842,-1.02 C 24.783,16.546 24.396,16.53 24,16.53 z m 10.611,1.498 c -0.058,0.312 -0.107,0.618 -0.18,0.939 4.262,1.299 7.138,3.344 7.521,5.537 0.029,-0.166 0.047,-0.333 0.047,-0.5 0,-2.347 -2.911,-4.575 -7.389,-5.977 z m -21.256,0.01 c -4.462,1.409 -7.355,3.628 -7.355,5.967 0,0.167 0.02,0.334 0.049,0.5 0.383,-2.185 3.241,-4.223 7.486,-5.529 -0.074,-0.321 -0.121,-0.626 -0.18,-0.938 z m 5.189,1.504 c -0.231,0.033 -0.453,0.077 -0.68,0.115 -0.125,0.207 -0.257,0.408 -0.377,0.619 -0.336,0.583 -0.657,1.173 -0.953,1.756 -0.27,-0.664 -0.5,-1.324 -0.715,-1.979 -0.099,0.022 -0.203,0.042 -0.301,0.064 0.28,0.95 0.616,1.932 1.016,2.914 0.296,-0.583 0.617,-1.173 0.953,-1.756 0.336,-0.591 0.697,-1.167 1.057,-1.734 z m 10.895,0 c 0.36,0.559 0.721,1.134 1.057,1.717 0.344,0.583 0.655,1.175 0.959,1.758 0.384,-0.974 0.72,-1.948 0.992,-2.891 -0.096,-0.024 -0.198,-0.041 -0.295,-0.064 -0.21,0.647 -0.439,1.299 -0.697,1.955 -0.304,-0.583 -0.615,-1.175 -0.959,-1.758 -0.117,-0.204 -0.247,-0.398 -0.369,-0.6 -0.23,-0.038 -0.455,-0.083 -0.688,-0.117 z m 3.172,4.953 c -0.072,0.169 -0.128,0.332 -0.203,0.502 0.68,1.533 1.232,3.03 1.648,4.465 0.712,-0.232 1.399,-0.473 2.031,-0.744 2.592,-1.102 4.273,-2.563 4.297,-3.705 0,-0.164 -0.045,-0.335 -0.111,-0.51 -0.403,1.049 -1.952,2.265 -4.186,3.215 -0.632,0.272 -1.319,0.513 -2.031,0.744 -0.37,-1.28 -0.865,-2.61 -1.445,-3.967 z m -2.252,0.008 c -0.398,0.81 -0.82,1.624 -1.271,2.426 -0.576,0.99 -1.16,1.924 -1.768,2.795 -1.096,0.096 -2.2,0.143 -3.32,0.143 -1.112,0 -2.217,-0.047 -3.305,-0.135 -0.608,-0.87 -1.199,-1.805 -1.775,-2.787 -0.465,-0.796 -0.884,-1.605 -1.281,-2.418 -0.081,0.167 -0.168,0.334 -0.246,0.502 0.464,0.982 0.967,1.958 1.527,2.916 0.576,0.982 1.167,1.917 1.775,2.787 1.088,0.088 2.193,0.135 3.305,0.135 1.12,0 2.224,-0.047 3.32,-0.143 0.608,-0.87 1.192,-1.805 1.768,-2.795 0.544,-0.966 1.056,-1.95 1.52,-2.924 -0.079,-0.168 -0.166,-0.334 -0.248,-0.502 z m -22.631,0.01 c -0.064,0.172 -0.105,0.339 -0.105,0.5 0,1.15 1.681,2.595 4.281,3.705 0.64,0.272 1.327,0.52 2.047,0.752 0.416,-1.429 0.961,-2.916 1.633,-4.441 -0.075,-0.168 -0.132,-0.331 -0.203,-0.498 -0.572,1.348 -1.06,2.669 -1.43,3.939 C 13.227,28.238 12.54,27.99 11.9,27.718 9.665,26.764 8.116,25.562 7.724,24.513 z m 24.445,4.436 c -0.659,0.153 -1.345,0.287 -2.047,0.404 -0.225,0.374 -0.448,0.75 -0.68,1.115 1.048,-0.152 2.065,-0.352 3.03,-0.584 -0.091,-0.307 -0.196,-0.622 -0.299,-0.936 z m -16.332,0.018 c -0.102,0.313 -0.208,0.628 -0.297,0.936 0.96,0.232 1.968,0.422 3.01,0.574 -0.235,-0.365 -0.461,-0.741 -0.689,-1.115 -0.691,-0.114 -1.367,-0.244 -2.02,-0.395 z m 18.811,2.01 c -0.062,0.02 -0.117,0.043 -0.18,0.063 0.33,1.44 0.496,2.773 0.529,3.984 0.054,-1.198 -0.069,-2.566 -0.35,-4.047 z m -21.264,0.01 c -0.277,1.48 -0.396,2.847 -0.342,4.045 0.032,-1.212 0.195,-2.544 0.521,-3.984 -0.063,-0.019 -0.118,-0.041 -0.18,-0.061 z m 8.588,1.459 c 0.672,0.862 1.359,1.645 2.039,2.348 0.672,-0.703 1.36,-1.485 2.02,-2.348 -0.27,0.013 -0.552,0.012 -0.828,0.02 -0.395,0.467 -0.793,0.916 -1.188,1.328 -0.399,-0.412 -0.8,-0.861 -1.199,-1.328 -0.279,-0.008 -0.563,-0.006 -0.84,-0.02 z m -7.313,2.457 c -0.084,2.171 0.348,3.798 1.191,4.283 0.216,0.128 0.496,0.191 0.832,0.199 1.52,0 3.768,-1.213 6.16,-3.434 -0.168,-0.174 -0.333,-0.376 -0.5,-0.559 -2.202,1.932 -4.247,2.992 -5.66,2.992 -0.336,-0.008 -0.616,-0.071 -0.832,-0.199 -0.707,-0.407 -1.123,-1.623 -1.191,-3.283 z m 18.701,0 c -0.067,1.643 -0.478,2.846 -1.174,3.25 -0.224,0.136 -0.504,0.193 -0.84,0.193 -1.413,0 -3.457,-1.054 -5.66,-2.973 -0.167,0.183 -0.333,0.387 -0.5,0.563 2.392,2.204 4.64,3.41 6.16,3.41 0.336,0 0.616,-0.058 0.84,-0.193 0.831,-0.482 1.258,-2.097 1.174,-4.25 z" opacity="0.2"/></g></g></svg>