<svg xmlns="http://www.w3.org/2000/svg" viewBox="0 0 256 256"><path d="m 28.06 82.34 c -12.1 15.392 -24.314 44.46 -25.997 61.893 c -2.438 25.17 5.822 54.03 20.44 71.48 19.513 23.295 59.18 38.8 98.95 38.686 28.549 -0.084 66.876 -8.598 86.5 -19.213 16.697 -9.03 28.686 -22.332 35.36 -39.22 9.04 -22.892 9.663 -45.32 1.869 -67.62 c -12.622 -47.626 -41.906 -79.85 -68.16 -105.59 -66.736 -57.54 -112.03 11.735 -148.95 59.59 z" fill="#ba3c37"/><g transform="matrix(0.94946 0 0 0.95735 -2.505 -2.785)"><path d="m 127.58 246.05 c -3.03 -0.006 -19.18 1.092 -19.563 -1.803 l -0.695 -5.306 l 12.784 -0.459 l 12.784 -0.459 v -10.547 v -10.547 l -28.31 -0.244 c -26.16 -0.225 -28.398 -0.121 -29.499 1.376 -1.094 1.489 -3.197 0.265 -5.251 -2.684 -1.86 -2.67 -4.06 -4.731 -4.06 -5.253 0 -0.613 6.078 -1.039 17.12 -1.2 l 17.12 -0.25 l 0.261 -8.942 c 0.144 -4.918 0.577 -8.942 0.962 -8.942 4.933 2.867 6.537 8.208 6.719 11.922 l 0.275 5.961 h 28.765 h 28.765 l 0.268 -7.337 c 0.258 -7.07 0.393 -7.47 3.709 -11.01 1.893 -2.02 4.557 -5.203 5.92 -7.078 l 2.478 -3.409 l 10.249 -0.259 l 10.249 -0.259 v -12.381 v -12.381 l -8.349 -0.262 c -7.739 -0.243 -8.388 -0.411 -8.891 -2.293 -1.481 -5.55 -2.903 -5.24 24.09 -5.24 h 24.655 v 3.641 v 3.641 l -11.643 0.257 l -11.643 0.257 v 12.381 v 12.381 l 8.903 0.262 c 9.582 0.282 9.96 0.532 7.85 5.182 l -1.053 2.321 l -24.287 0.244 l -24.287 0.244 v 10.547 v 10.547 l 17.12 0.25 c 11.04 0.161 17.12 0.587 17.12 1.2 -1.535 2.725 -4.457 8.348 -9.311 7.937 -1.1 -1.497 -3.336 -1.601 -29.499 -1.376 l -28.31 0.244 v 10.547 v 10.547 l 12.328 0.459 c 6.78 0.252 11.173 0.467 11.299 1.131 1.402 7.394 -0.25 6.508 -37.16 6.437 z m -77.18 -61.26 c -2.117 -4.667 -1.743 -4.914 7.844 -5.197 l 8.903 -0.262 v -12.381 v -12.381 l -11.643 -0.257 l -11.643 -0.257 v -3.641 v -3.641 h 26.581 h 26.581 l -0.629 2.517 c -1.095 4.38 -1.943 4.743 -11.754 5.02 l -9.274 0.26 v 12.381 v 12.381 l 8.864 0.262 c 8.589 0.254 8.922 0.344 10.73 2.893 1.026 1.447 1.865 3.083 1.865 3.636 0 0.701 -6.85 1 -22.682 1 h -22.682 z m 49.888 -55.56 l -0.267 -7.68 l -25.34 -0.244 c -27.427 -0.264 -26.606 -0.089 -24.296 -5.182 0.982 -2.164 1.515 -2.318 8.903 -2.565 l 7.859 -0.263 l 0.26 -9.956 c 0.164 -6.294 -0.111 -10.404 -0.748 -11.176 -0.697 -0.844 -0.722 -1.757 -0.082 -2.959 2.111 -3.961 3.526 -4.323 18.741 -4.798 l 14.702 -0.459 c 0.172 -6.536 0.345 -13.07 0.517 -19.609 l 0.14 -5.301 c 0.177 -6.689 21.914 -3.26 36.661 -3.26 14.748 0 36.704 -2.083 36.33 4.938 l -0.195 3.623 l 0.259 9.804 l 0.259 9.804 l 14.702 0.459 c 15.215 0.475 16.63 0.837 18.741 4.798 0.641 1.202 0.616 2.116 -0.082 2.959 -0.638 0.772 -0.913 4.882 -0.748 11.176 l 0.26 9.956 l 7.859 0.263 c 7.389 0.247 7.921 0.401 8.903 2.565 2.311 5.093 3.132 4.918 -24.296 5.182 l -25.34 0.244 l -0.276 4.815 c -0.152 2.648 -0.563 4.813 -0.913 4.81 -0.35 -0.003 -4.549 1.988 -6.458 -0.91 -1.909 -2.898 -1.859 -11.521 -3.406 -11.316 -3.839 0.508 -8.954 -1.141 -8.954 1.074 -2.657 2.884 -1.483 -2.335 -2.365 -5.248 0 -0.676 7.453 -1.067 23.514 -1.234 l 23.514 -0.245 v -10.547 v -10.547 h -28.765 h -28.765 l -0.276 4.815 c -0.152 2.648 -0.563 4.802 -0.913 4.786 -3.901 -2.261 -6.06 -5.474 -7.161 -9.601 h -28.699 h -28.699 v 10.547 v 10.547 l 24.2 0.459 l 24.2 0.459 l -0.317 2.293 c -0.526 3.797 -1.792 4.495 -8.666 4.776 l -6.54 0.268 l -0.28 3.382 c 0.586 14.977 -1.479 18.715 -5.173 17.387 -2.234 2.758 -2.464 -12.142 -2.498 -13.09 z m 65.48 -55.828 v -10.547 h -28.765 h -28.765 l -0.262 9.568 c -0.144 5.262 -0.052 10.117 0.205 10.789 0.378 0.988 5.915 1.175 29.03 0.979 l 28.56 -0.242 z" fill="#8b0000"/><path d="m 118.16 210.58 c -5.71 -2.557 -21.91 -15.201 -27.489 -21.456 -5.619 -6.299 -8.747 -13.234 -9.367 -20.764 -0.434 -5.277 0.088 -8.06 3.284 -17.484 2.09 -6.165 5.527 -14.835 7.638 -19.268 4.22 -8.863 3.575 -9.01 6.813 1.585 0.745 2.437 1.66 4.431 2.034 4.431 1.808 0 7.711 -7.686 12.09 -15.737 6.355 -11.693 9.834 -21.716 11.947 -34.418 0.944 -5.673 2.099 -10.315 2.568 -10.315 1.774 0 15.887 12.85 19.814 18.04 5.5 7.27 10.05 15.66 12.274 22.62 1.01 3.154 2.183 6.116 2.614 6.583 1.514 1.641 4.102 -2.476 5.288 -8.408 0.659 -3.297 1.324 -6.457 1.478 -7.02 0.463 -1.699 10.1 11.935 14.421 20.411 5.756 11.281 7.658 19.357 7.139 30.31 -0.607 12.795 -5.09 21.614 -16.405 32.27 -9.68 9.115 -21.06 17.615 -25.893 19.345 -1.896 0.678 -8.439 1.259 -14.54 1.29 -5.385 -0.222 -11.503 -0.173 -15.703 -2.01 z" fill="#fdd13d"/><path d="m 121.45 205.22 c -5.914 -2.152 -8.995 -5.933 -10.353 -12.702 -1.655 -8.249 -0.619 -13.06 5.291 -24.614 7.46 -14.577 7.556 -14.629 8.371 -4.512 0.566 7.03 0.931 8.375 2.207 8.132 2.515 -0.479 6.752 -11.04 9.344 -23.299 1.352 -6.39 2.904 -11.505 3.492 -11.505 1.369 0 8.415 9.828 11.393 15.891 7.119 14.494 7.844 38.27 1.441 47.27 -3.765 5.292 -22.501 8.5 -31.19 5.34 z" fill="#fff3cb"/></g></svg>