<svg xmlns="http://www.w3.org/2000/svg" viewBox="0 0 256 256"><g fill="#bc1407" color="#000"><path d="m -1374.42 1658.71 c 127.95 -192.46 -280.09 -311 -226.07 -62.2 23.02 102.82 167.39 165.22 226.07 62.2 z" transform="matrix(-1 0 0 -0.99153 -1349.45 1699.16)"/></g><g transform="matrix(4.0077 0 0 4.07451 -4.06 -7.251)" fill="#fff"><path d="m 32,18 c -3.878,0 -7,3.122 -7,7 0,3.878 3.122,7 7,7 3.878,0 7,-3.122 7,-7 0,-3.878 -3.122,-7 -7,-7 z m 0,14 C 24.244,32 18,38.244 18,46 H 34 V 44 H 20.18 A 11.96,11.96 0 0 1 32,34 c 0.718,0 1.414,0.076 2.09,0.208 l 0.52,-1.946"/><g transform="matrix(2 0 0 2 -769.14 -1031.6)" stroke-width="0.354"><path d="m 406.57 532.8 v 6 h 1 v -6 z"/><path d="m 402.57 537.8 h 6 v -1 h -6 z m 0 -3 h 6 v -1 h -6 z"/><path d="m 403.57 532.8 v 6 h 1 v -6 z"/></g></g></svg>