<svg xmlns="http://www.w3.org/2000/svg" xmlns:xlink="http://www.w3.org/1999/xlink" viewBox="0 0 256 256"><defs><path d="m 245.46 129.52 l -97.89 -96.9 c -5.556 -5.502 -16.222 -11.873 -23.7 -14.16 l -39.518 -12.08 c -7.479 -2.286 -18.1 0.391 -23.599 5.948 l -13.441 13.578 c -5.5 5.559 -14.502 14.653 -20 20.21 l -13.44 13.579 c -5.5 5.558 -8.07 16.206 -5.706 23.658 l 12.483 39.39 c 2.363 7.456 8.843 18.06 14.399 23.556 l 97.89 96.9 c 5.558 5.502 14.605 5.455 20.1 -0.101 l 36.26 -36.63 c 5.504 -5.559 14.503 -14.651 20 -20.21 l 36.26 -36.629 c 5.502 -5.56 5.455 -14.606 -0.101 -20.11 z m -178.09 -50.74 c -7.198 0 -13.03 -5.835 -13.03 -13.03 0 -7.197 5.835 -13.03 13.03 -13.03 7.197 0 13.03 5.835 13.03 13.03 -0.001 7.198 -5.836 13.03 -13.03 13.03 z" id="0"/><use id="1" xlink:href="#0"/><clipPath id="2"><use xlink:href="#0"/></clipPath><clipPath clip-path="url(#2)"><use xlink:href="#1"/></clipPath><clipPath clip-path="url(#2)"><use xlink:href="#1"/></clipPath></defs><g fill="#010101" color="#000"><path d="m 128.42 795.13 c 168.87 -19.553 166.53 260.33 -3.01 257.01 -157.67 9.224 -171.9 -272.26 3.01 -257.01 z" transform="matrix(1.01588 0 0 0.97129 -2.032 -768.03)"/></g><g fill="#f5f5f5"><path d="m 120.29 134.78 c -1.158 -0.387 -2.105 -2.942 -2.105 -5.676 0 -6.328 -2.84 -13.915 -5.208 -13.915 -1 0 -2.501 1.765 -3.33 3.923 -0.829 2.157 -3.544 5.683 -6.03 7.834 -6.184 8.585 -22.1 10.04 -30.29 5.888 -2.454 -1.562 -1.673 -15.23 1.617 -28.313 1.392 -5.533 2.389 -6.443 8.091 -7.39 8.355 -1.387 29.53 -1.125 35.15 0.434 2.678 0.743 5.509 3.68 7.392 7.671 3.956 8.383 7.614 8.276 9.911 -0.29 2.118 -7.897 5.055 -8.933 25.335 -8.933 14.944 0 20.373 1.733 24.305 7.76 4.884 7.485 2.124 15.487 -8.155 23.646 -8.118 6.444 -9.549 6.948 -19.743 6.948 h -10.991 l -1.136 -5.666 c -1.996 -9.958 -2.795 -11.768 -5.199 -11.768 -1.294 0 -3.296 2.942 -4.449 6.538 -1.153 3.596 -2.8 7.431 -3.66 8.524 -1.772 2.252 -8.345 3.844 -11.505 2.786 z m -30.511 -11.172 c 4.172 0 10.184 -8.484 8.714 -13.13 -1.341 -4.243 -8.337 -5.241 -12.301 -1.261 -2.738 2.749 -3.448 13.1 -1.282 15.271 2.167 1.284 1.871 1.012 4.868 -0.875 z m 80.51 -5.875 c 2.55 -7.758 1.267 -11.26 -4.124 -11.26 -5.996 0 -8.419 4.717 -5.056 15.834 1.311 4.335 7.195 1.462 9.179 -4.574 z"/><path d="m 77.39 160.6 c -1.91 -0.793 -4.887 -3.887 -6.617 -6.877 -3.035 -5.246 -3.035 -5.48 0 -6.729 5.529 -2.275 109.47 -1.567 111.79 0.761 2.819 2.831 -4.04 11.517 -10.254 12.993 -6.944 1.648 -90.9 1.517 -94.91 -0.149 z"/></g><g fill="#a9a9a9"><path d="m 50.91 74.2 c 1.188 -2.192 5.955 -7.782 10.592 -12.424 10.144 -10.153 19.13 -15.312 32.844 -18.863 c 8.04 -2.082 11.654 -2.422 29.952 -2.82 16.756 -0.365 22.392 -0.155 28.945 1.078 20.421 3.841 36.23 14.12 47.45 30.856 1.743 2.6 3.17 5.05 3.17 5.442 0 0.394 -34.901 0.716 -77.56 0.716 h -77.56 l 2.161 -3.985 z" fill-opacity="0.491"/><path d="m 99.42 215.17 c -15.253 -3.877 -31.779 -14.657 -41.476 -27.05 l -4.584 -5.86 h 72.07 h 72.07 l -3.88 4.654 c -11.127 13.346 -24.761 22.18 -42.11 27.29 -5.901 1.738 -9.806 2.094 -26.08 2.378 -16.336 0.285 -20.15 0.078 -26.01 -1.412 z" fill-opacity="0.509"/></g></svg>