<svg xmlns="http://www.w3.org/2000/svg" xmlns:xlink="http://www.w3.org/1999/xlink" viewBox="0 0 256 256"><defs><path d="m 245.46 129.52 l -97.89 -96.9 c -5.556 -5.502 -16.222 -11.873 -23.7 -14.16 l -39.518 -12.08 c -7.479 -2.286 -18.1 0.391 -23.599 5.948 l -13.441 13.578 c -5.5 5.559 -14.502 14.653 -20 20.21 l -13.44 13.579 c -5.5 5.558 -8.07 16.206 -5.706 23.658 l 12.483 39.39 c 2.363 7.456 8.843 18.06 14.399 23.556 l 97.89 96.9 c 5.558 5.502 14.605 5.455 20.1 -0.101 l 36.26 -36.63 c 5.504 -5.559 14.503 -14.651 20 -20.21 l 36.26 -36.629 c 5.502 -5.56 5.455 -14.606 -0.101 -20.11 z m -178.09 -50.74 c -7.198 0 -13.03 -5.835 -13.03 -13.03 0 -7.197 5.835 -13.03 13.03 -13.03 7.197 0 13.03 5.835 13.03 13.03 -0.001 7.198 -5.836 13.03 -13.03 13.03 z" id="0"/><use id="1" xlink:href="#0"/><clipPath id="2"><use xlink:href="#0"/></clipPath><clipPath clip-path="url(#2)"><use xlink:href="#1"/></clipPath><clipPath clip-path="url(#2)"><use xlink:href="#1"/></clipPath></defs><path d="m 253.16 127.11 c 19.1 -168.61 -254.3 -166.28 -251.05 3 -9.01 157.43 265.95 171.64 251.05 -3 z" fill="#add6ad" color="#000"/><g stroke-width="2"><g fill="#008000" stroke="#008000" transform="matrix(0.74839 -0.66326 0.66326 0.74839 0 0)"><rect ry="7.429" rx="14.189" y="143.35" x="-50.42" height="15.09" width="113.21"/><rect width="113.21" height="15.09" x="-34.818" y="202.56" rx="14.189" ry="7.429"/></g><path d="m 182.08 78.64 a 25 24.528 0 1 1 -50 0 25 24.528 0 1 1 50 0 z" transform="translate(-8.491 -10.377)" fill="#ffa500" stroke="#ffa500"/><path transform="translate(-49.06 104.72)" d="m 182.08 78.64 a 25 24.528 0 1 1 -50 0 25 24.528 0 1 1 50 0 z" fill="#545ed1" stroke="#545ed1"/></g></svg>