<svg xmlns="http://www.w3.org/2000/svg" viewBox="0 0 256 256"><g fill="#dcdcdc"><path d="m 117.3 1051.73 c 155.28 14.765 197.08 -234.25 37.632 -253.59 -146.61 -23.968 -222.12 201.75 -76.44 246.9 12.317 4.946 25.786 4.852 38.807 6.696 z" color="#000" transform="matrix(0 -1 1 0 -796.36 256)"/></g><g transform="matrix(0.9955 -0.09474 0.09474 0.9955 -49.15 143.88)" fill="#c0c0c0"><path d="m 120.53 61.5 c -1.925 -1.312 -4.063 -2.411 -4.75 -2.442 -0.985 -0.045 -1.25 -12.345 -1.25 -58.01 v -57.952 l 6.05 -3.548 l 6.05 -3.548 h 53.45 c 29.396 0 53.45 0.337 53.45 0.75 0.002 0.413 2.027 1.582 4.5 2.599 l 4.496 1.849 v 59.15 v 59.15 l -4.25 2.251 l -4.25 2.251 l -55 -0.06 l -55 -0.06 z m 110.5 -118 v -3 l -51.44 -0.259 c -30.988 -0.156 -51.813 0.113 -52.38 0.677 -0.515 0.515 -0.644 2.098 -0.288 3.518 l 0.648 2.582 l 51.729 -0.259 l 51.729 -0.259 z" fill="#636363"/><path d="m 158.62 135.96 c 0 14.995 -15.04 27.15 -33.582 27.15 -18.547 0 -33.582 -12.156 -33.582 -27.15 0 -14.995 15.04 -27.15 33.582 -27.15 18.547 0 33.582 12.156 33.582 27.15 z" transform="matrix(0.99423 0 0 1.28234 54.959 -171.79)" fill="#ffd700" stroke="#ffd700" stroke-width="3"/><path d="m 211.09 56.55 c -3.841 -3.56 -3.718 -9.63 0.277 -13.625 6.168 -6.168 16.08 -1.421 16.08 7.701 0 1.463 -1.233 3.763 -2.923 5.453 -3.854 3.854 -9.565 4.054 -13.431 0.471 z m -78.15 0.298 c -3.329 -1.821 -4.5 -4.02 -4.5 -8.448 0 -3.485 0.536 -4.671 3.077 -6.809 4.167 -3.507 9.932 -3.234 13.659 0.492 2.914 2.914 2.177 7.376 0.643 11.374 -1.401 3.652 -8.826 5.607 -12.879 3.39 z m 35.35 -14.812 c -17.458 -6.444 -28.39 -14.888 -30.349 -34.14 c -1.311 -15.742 3.03 -28.377 12.977 -37.785 7.315 -6.919 14.838 -10.299 24.265 -10.904 22.22 -1.426 42.37 12.812 44.915 35.35 1.024 11.325 -4.848 23.803 -7.661 29.472 -7.803 15.454 -32.17 21.788 -44.15 18.01 z m 23.24 -14.252 c 15.777 -7.318 22.776 -25.617 15.681 -41 -9.153 -19.849 -34.762 -25.488 -50.695 -11.162 -7.279 6.545 -10.564 13.844 -10.518 23.376 0.042 8.801 2.228 14.554 7.921 20.856 9.837 10.888 24.547 13.99 37.61 7.931 z m -19.627 -16.726 c -6.877 -3.496 -9.817 -11.09 -6.852 -17.703 1.539 -3.431 1.773 -3.601 2.133 -1.55 0.526 2.993 3.859 4.196 11.625 4.196 7.487 0 10.144 -1.509 9.411 -5.344 -0.68 -3.556 0.372 -3.353 2.655 0.512 7.15 12.1 -6.383 26.289 -18.973 19.888 z m 0.16 -25.648 c 2.438 -2.299 7.179 -2.71 10.233 -0.458 1.014 0.748 -2.27 2.037 -4.745 2.037 -2.475 0 -6.405 -0.714 -5.488 -1.579 z" fill="#252525"/></g></svg>