<svg xmlns="http://www.w3.org/2000/svg" viewBox="0 0 256 256"><path d="m 224.7 193.19 c -210.75 224.16 -343.53 -238.48 -63.746 -187.47 73.816 25.17 131.42 115.49 63.746 187.47 z" fill="#4b0082" color="#000"/><g transform="matrix(1 0 0 1.04842 4.64 -1.502)"><path d="m 100.58 189.46 c -32.894 -7.164 -56.47 -33.814 -58.35 -65.953 -1.155 -19.759 6.679 -39.955 20.889 -53.852 l 4.23 -4.136 l 1.913 4.136 c 5.346 11.56 17.192 21.906 29.977 26.18 2.765 0.925 5.157 1.81 5.317 1.966 0.16 0.157 -2.77 7.433 -6.51 16.17 -3.741 8.736 -6.654 16.03 -6.474 16.21 0.307 0.307 13.418 -2.175 16.367 -3.098 1.267 -0.397 1.353 0.959 1.353 21.17 0 11.875 0.225 23.742 0.499 26.37 l 0.499 4.778 l 1.509 -3.312 c 2.872 -6.304 27.466 -63.759 27.965 -65.33 0.498 -1.57 0.457 -1.569 -8.219 0.222 -4.796 0.99 -8.981 1.815 -9.3 1.832 -0.319 0.018 -0.58 -3.239 -0.58 -7.237 v -7.269 l 5.828 -1.297 c 14.02 -3.12 27.845 -13.673 33.637 -25.683 1.474 -3.057 2.902 -5.58 3.172 -5.607 0.27 -0.027 2.683 2.294 5.362 5.158 9.349 9.994 15.78 22.333 18.22 34.955 1.471 7.612 1.448 20.622 -0.05 27.692 -5.606 26.462 -26.506 48.06 -53.41 55.18 -9 2.384 -24.747 2.735 -33.844 0.753 z" fill="#b00fea"/><path d="m 110.09 151.7 c -0.017 -14.14 -0.292 -25.701 -0.611 -25.685 -0.319 0.015 -4.321 0.849 -8.893 1.852 -4.572 1 -8.313 1.768 -8.313 1.7 0 -0.069 6.415 -15.08 14.255 -33.365 l 14.255 -33.24 l 0.245 24.876 c 0.135 13.682 0.449 25.08 0.7 25.33 0.25 0.249 4.02 -0.273 8.377 -1.162 4.357 -0.889 8.109 -1.429 8.337 -1.201 0.371 0.371 -24.755 59.917 -27.29 64.68 -0.876 1.645 -1.035 -1.902 -1.061 -23.78 z" fill="#fff"/></g></svg>