<svg xmlns="http://www.w3.org/2000/svg" viewBox="0 0 256 256"><defs><clipPath><path transform="matrix(15.33333 0 0 11.5 415 -125.5)" d="m -24 13 c 0 1.105 -0.672 2 -1.5 2 -0.828 0 -1.5 -0.895 -1.5 -2 0 -1.105 0.672 -2 1.5 -2 0.828 0 1.5 0.895 1.5 2 z"/></clipPath></defs><path d="m 60.45 232.65 c 130.35 87.38 262.42 -87.35 156.21 -191.99 -100.06 -98.58 -255.54 1.709 -206.93 127.11 10.14 26.16 26.794 48.842 50.721 64.882 z" fill="#9bdce3" color="#000"/><path d="m 251.13 375.39 c -22.827 -3.64 -34.546 -13.763 -37.13 -32.07 -0.508 -3.603 -1.31 -6.932 -1.783 -7.396 -0.473 -0.465 -4.438 -1.686 -8.812 -2.714 -15.898 -3.735 -29.671 -11.739 -41.11 -23.888 -4.97 -5.28 -7.718 -9.383 -11.645 -17.385 -2.827 -5.761 -5.869 -13.254 -6.761 -16.65 -2.175 -8.284 -2.999 -30.28 -1.48 -39.544 5.292 -32.27 28.345 -57.16 60.832 -65.69 8.06 -2.116 11.167 -2.425 24.22 -2.403 18.12 0.029 25.644 1.68 40.13 8.81 20.31 9.997 34.772 27.863 41.16 50.85 1.767 6.358 2.118 10.164 2.142 23.278 0.025 13.403 -0.291 16.849 -2.18 23.753 -8.113 29.664 -28.24 49.969 -57.59 58.1 -10.04 2.782 -10.41 3.081 -9.6 7.862 0.99 5.839 4.693 12.282 9.279 16.14 6.261 5.271 13.949 7.222 28.19 7.153 6.452 -0.031 13.714 -0.379 16.14 -0.772 2.423 -0.394 4.923 -0.546 5.554 -0.339 1.556 0.51 1.462 7.33 -0.118 8.62 -3.234 2.64 -39.863 5.818 -49.45 4.289 z m -6.84 -55.41 c 15.365 -5.215 28.29 -19.11 34.33 -36.929 5 -14.73 6.11 -38.757 2.541 -55.02 -5.585 -25.454 -20.334 -43.04 -40.534 -48.33 -6.623 -1.734 -21.08 -1.666 -28.1 0.134 -21.594 5.532 -35.886 24.337 -40.14 52.82 -1.75 11.707 -0.776 33.15 1.98 43.589 6.548 24.809 20.943 40.715 40.914 45.21 7.846 1.765 21.519 1.073 29.01 -1.469 z m -131.47 33.28 c -7.674 -3.427 -7.559 -2.691 -7.484 -48.04 0.073 -44.04 0.12 -44.41 6.181 -47.49 4.842 -2.463 9.25 -1.864 13.328 1.81 l 3.608 3.251 l 0.278 33.04 c 0.185 21.954 0.63 33.454 1.326 34.28 0.807 0.956 6.184 1.243 23.388 1.248 20.456 0.006 22.579 0.161 25.17 1.843 5.896 3.823 7.295 11.916 2.94 17.01 -3.65 4.267 -8.639 4.9 -38.422 4.877 -23.721 -0.019 -26.668 -0.196 -30.32 -1.826 z m 170.11 0.053 c -1.106 -0.483 -3.171 -2.234 -4.588 -3.891 -4.21 -4.921 -3.136 -11.444 2.57 -15.602 2.586 -1.885 3.91 -1.992 24.632 -1.992 h 21.899 l 0.247 -86.83 c 0.18 -63.37 -0.048 -87.18 -0.843 -88.12 -0.905 -1.072 -17.663 -1.291 -98.97 -1.291 -91.53 0 -97.94 0.106 -98.81 1.633 -0.571 1 -0.719 12.153 -0.383 28.907 0.597 29.838 0.411 31.22 -4.779 35.514 -2 1.657 -4 2.356 -6.75 2.356 -3.252 0 -4.535 -0.621 -7.686 -3.721 l -3.783 -3.721 l 0.274 -37.07 c 0.266 -35.999 0.333 -37.14 2.31 -39.747 1.12 -1.474 3.728 -3.304 5.796 -4.066 2.068 -0.762 3.911 -1.742 4.096 -2.178 0.184 -0.436 0.964 -0.28 1.732 0.347 1.402 1.145 42.42 0.971 171.81 -0.728 l 46.37 -0.609 l 4.592 3.059 c 2.526 1.682 5.03 3.854 5.554 4.826 0.621 1.142 0.962 37.641 0.962 103.07 0 88.69 -0.182 101.65 -1.465 104.09 -2.774 5.276 -4.467 5.574 -34.904 6.138 -16.218 0.301 -28.707 0.15 -29.877 -0.361 z" fill="#0893ce" transform="matrix(0.50805 0 0 0.52236 13.408 1.416)"/></svg>