<svg xmlns="http://www.w3.org/2000/svg" viewBox="0 0 256 256"><g fill="#8e8f47" color="#000"><path d="m 52.929 27.335 c 198.41 -133.61 307.65 277.33 62.05 223.8 -102.8 -22.724 -165.1 -165.63 -62.05 -223.8 z" fill="#bdb76b" transform="matrix(-0.06616 -0.99772 -0.97841 0.06747 264.18 247.07)"/></g><g stroke-width="1.665"><path d="m 129.84 178.39 c 0.024 -17.01 -0.729 -20.819 -6.552 -33.16 -4.364 -9.246 -8.395 -14.274 -23.359 -29.13 c -11.276 -11.197 -17.267 -18.841 -21.299 -27.17 -1.029 -2.126 -1.665 -4.402 -1.414 -5.057 c 0.474 -1.235 8.42 -3.862 18.518 -6.121 3.205 -0.717 11.452 -1.513 18.328 -1.768 15.196 -0.564 25.817 0.886 38.691 5.281 8.934 3.05 23.826 10.04 23.05 10.817 -0.237 0.237 -1.119 0.065 -1.96 -0.383 -2.584 -1.377 -12.04 -4.327 -18.18 -5.668 -9.388 -2.053 -24.529 -2.427 -33.858 -0.837 -8.752 1.492 -20.406 5.05 -22.24 6.792 -1.728 1.644 3.287 6.272 14.904 19.549 11.192 12.792 14.425 17.489 17.903 26.02 4.04 9.91 3.136 15.692 3.01 27.52 -0.115 10.916 -1.302 18.13 -4.04 24.558 l -1.535 3.608 l 0.021 -14.845 z" fill="#fff" stroke="#fff"/><g fill="#b26859" stroke="#b26859"><path d="m 122.12 216.56 c -0.831 -0.56 0.375 -3.693 5.22 -13.556 8.06 -16.404 9.527 -21.529 10.161 -35.469 0.532 -11.684 -0.14 -17.286 -3.222 -26.886 -3.513 -10.944 -8.43 -18.801 -19.01 -30.382 -8.496 -9.3 -14.4 -17.13 -13.535 -17.958 0.962 -0.916 14.02 -4.697 19.746 -5.717 6.238 -1.112 22.511 -1.128 29.605 -0.03 10.942 1.694 35.06 10.257 36.875 13.09 5.972 6.218 23.03 21.254 24.722 28.44 0 4.143 -9.261 24.385 -16.17 35.34 -13.655 21.656 -35.839 42.869 -53.4 51.06 -4.02 1.875 -6.322 2.347 -12.426 2.549 -4.12 0.136 -7.978 -0.081 -8.573 -0.481 z"/><path d="m 79.22 103.68 c -5.05 -1.526 -10.285 -3.064 -15.232 -3.817 -3.6 -0.536 -8.222 -1.225 -10.271 -1.531 l -3.726 -0.556 l 5.829 -4.24 c 4.832 -4.047 11.06 -5.716 16.398 -8.365 3.897 -1.953 3.954 -1.957 3.954 -0.275 0 2.594 3.831 9.704 8.851 16.426 2.479 3.319 4.217 6.01 3.863 5.976 -3.384 -0.954 -6.04 -2.855 -9.666 -3.618 z"/></g><path d="m 114.11 212.99 c -5.778 -2.985 -8.369 -4.847 -18.15 -13.05 -20.08 -16.836 -38.756 -43.966 -45.951 -66.742 -3.835 -12.139 -4.756 -29.985 -1.68 -32.538 0.916 -0.76 2.77 -0.762 8.06 -0.008 20.951 2.986 33.822 8.457 45.07 19.16 14.06 13.374 21.11 23.582 25.615 37.07 1.775 5.315 1.945 7.253 1.939 22.06 -0.006 15.822 -0.066 16.389 -2.378 22.475 -2.537 6.676 -6.304 14.162 -7.112 14.13 -0.271 -0.01 -2.71 -1.163 -5.421 -2.564 z" fill="#61bf2a" stroke="#61bf2a"/><path d="m 191.01 99.85 c -13.77 -9.856 -30.27 -18.16 -44.915 -22.12 -6.079 -1.595 -10.892 -2.187 -20.81 -2.557 c -11.611 -0.434 -25.784 0.474 -29.464 1.886 -1.459 0.56 -2.415 -2.583 -3.825 -12.568 -0.517 -3.663 -1.11 -7.254 -1.319 -7.981 -0.704 -2.455 19.286 -7.639 33.36 -8.652 15.09 -1.086 33.901 2.038 49.16 8.165 17.964 7.213 31.16 18.208 37.636 31.358 1.916 3.891 3.866 9.09 4.333 11.559 0.986 5.205 -1.187 27.456 -2.122 28.03 -7.88 -10.698 -13.04 -19.01 -22.03 -27.12 z" fill="#2493cb" stroke="#2493cb"/><path d="m 74.4 79.21 c -1.829 -4.691 -3.21 -9.849 -3.219 -12.03 -0.008 -2.02 0.853 -2.678 8.451 -6.481 4.653 -2.329 8.736 -3.941 9.07 -3.581 0.825 0.88 5.477 17.796 4.878 18.395 -0.507 0.507 -16.571 5.956 -17.646 5.973 -0.355 0.005 -1.047 -1.02 -1.538 -2.279 z" fill="#2669a1" stroke="#2669a1"/><path d="m 66.776 68.01 l 3.082 -2.308 c 0.996 4.521 1.685 9.325 3.693 13.497 1.87 3.78 2.315 3.349 -7.428 7.19 c -7.03 2.771 -17.16 12.06 -17.809 10.383 2.897 -10.318 9.641 -21.855 18.462 -28.762 z" fill="#616c69" stroke="#616c69"/></g></svg>