<svg xmlns="http://www.w3.org/2000/svg" viewBox="0 0 256 256"><g fill="#b0e0e6" color="#000"><path d="M 227.99,995.36 C 371.85,787.37 -90.55,695.71 16.15,954.06 c 34.09,84.998 165.28,149.74 211.84,41.3 z" transform="matrix(1 0 0 0.98438 0 -781.92)"/></g><path d="m 32.15 145.17 c -1.46 -1.144 -1.592 -3.618 -1.362 -25.569 l 0.254 -24.303 h 13.553 c 13.53 0 13.556 0.004 15.732 2.716 2.992 3.73 4.03 13.254 2.01 18.43 -1.109 2.843 -2.495 4.237 -5.746 5.778 -2.357 1.117 -4.285 2.602 -4.285 3.3 0 0.698 1.838 3.98 4.084 7.294 7.71 11.374 7.672 11.286 5.451 12.56 -3.589 2.058 -6.311 0.231 -10.994 -7.381 -2.455 -3.99 -5.989 -9.276 -7.854 -11.747 -3.316 -4.394 -3.405 -4.439 -4.03 -2.025 -0.354 1.357 -0.686 6.634 -0.737 11.726 -0.076 7.446 -0.387 9.379 -1.589 9.873 -2.102 0.864 -2.653 0.784 -4.486 -0.651 z m 16.16 -31.12 c 4.391 -0.012 5.11 -0.314 6.06 -2.545 0.805 -1.894 0.805 -3.169 0 -5.063 -0.999 -2.349 -1.554 -2.532 -7.68 -2.532 -5.746 0 -6.742 0.277 -7.668 2.132 -0.609 1.22 -0.8 3.646 -0.445 5.671 0.53 3.03 0.918 3.453 2.686 2.945 1.136 -0.326 4.308 -0.6 7.05 -0.607 z m 23.846 31.07 c -4.991 -1.823 -6.613 -6.18 -6.615 -17.764 -0.002 -10.627 1.449 -15.354 5.287 -17.228 2.867 -1.399 19.18 -1.533 22.487 -0.184 3.066 1.249 5.305 5.941 5.305 11.12 0 3.082 -0.677 4.897 -2.757 7.392 -2.698 3.237 -2.95 3.315 -11.815 3.658 -7.964 0.309 -9.06 0.571 -9.06 2.17 0 2.539 1.825 3.049 10.914 3.049 6.866 0 8.05 0.261 8.902 1.959 1.329 2.661 1.235 3.698 -0.507 5.564 -1.83 1.961 -17.01 2.145 -22.14 0.268 z m 16.844 -23.468 c 3.157 -3.158 -5.065 -5.896 -11.851 -3.947 -2.159 0.62 -3.659 3.664 -2.66 5.396 0.774 1.341 12.935 0.127 14.511 -1.449 z" fill="#5e5e5e" transform="translate(-3.239 -7.557)"/><g fill="#2f9bee"><path d="m 103.09 139.5 c -2.432 -0.473 -2.41 -0.247 -2.41 -25.694 0 -18.1 0.147 -24.04 0.608 -24.497 0.334 -0.334 1.638 -0.608 2.898 -0.608 4.205 0 3.992 -1.259 3.986 23.552 -0.003 12.02 -0.183 22.898 -0.399 24.18 -0.34 2.01 -0.608 2.409 -1.944 2.874 -0.852 0.297 -1.572 0.51 -1.6 0.472 -0.028 -0.037 -0.54 -0.163 -1.139 -0.28 z"/><path d="m 116.94 98.31 c -1.748 -0.697 -1.997 -1.292 -2.01 -4.781 -0.01 -3.934 0.644 -4.659 4.199 -4.659 3.407 0 4.29 0.901 4.29 4.374 0 2.177 -0.223 2.769 -1.538 4.084 -1.588 1.588 -2.815 1.832 -4.946 0.981 z"/><path d="m 118.18 139.48 c -2.198 -0.487 -2.249 -0.931 -2.249 -19.422 0 -19.58 -0.267 -18.201 3.528 -18.201 1.565 0 2.121 0.265 2.833 1.353 0.803 1.227 0.886 2.904 0.886 17.976 0 14.13 -0.112 16.729 -0.75 17.328 -0.885 0.832 -2.844 1.278 -4.248 0.967 z"/><path d="m 203.64 139.4 c -1.131 -0.25 -1.46 -0.573 -1.339 -1.315 0.088 -0.541 2.277 -4.142 4.865 -8 2.588 -3.86 4.843 -7.709 5.01 -8.553 0.397 -1.986 -0.432 -3.576 -5.351 -10.264 -4.067 -5.53 -5.321 -7.682 -4.787 -8.217 0.171 -0.171 1.164 -0.466 2.205 -0.656 3.382 -0.616 4.978 0.208 9.703 5.01 2.417 2.454 4.722 4.463 5.121 4.463 0.823 0 4.933 -3.167 6.813 -5.249 2.486 -2.754 5.03 -4.248 7.227 -4.248 1.143 0 2.487 0.299 2.987 0.664 1.163 0.85 1.038 1.085 -5.02 9.457 -3.478 4.807 -4.695 6.884 -4.695 8.01 0 1.749 0.989 3.542 6.226 11.292 2.073 3.068 3.77 5.996 3.77 6.506 0 0.698 -0.502 1.01 -2.028 1.252 -3.01 0.482 -5.588 -0.942 -10.205 -5.638 -2.229 -2.267 -4.408 -4.055 -4.942 -4.055 -0.54 0 -2.771 1.858 -5.133 4.273 -3.818 3.905 -6.618 5.818 -8.289 5.664 -0.352 -0.032 -1.316 -0.208 -2.14 -0.391 z"/><path d="m 129.46 138.88 c -1.157 -0.732 -1.465 -4.963 -1.504 -20.614 l -0.037 -14.831 l 1.874 -0.664 c 1.319 -0.467 4.837 -0.664 11.871 -0.664 9.878 0 10.03 0.016 12.778 1.366 1.53 0.751 3.948 2.588 5.373 4.081 4.187 3.338 2.592 8.558 2.592 13.481 0 10.148 -0.07 10.957 -1.214 14.11 -0.668 1.84 -1.511 3.534 -1.874 3.764 -1.139 0.722 -3.751 0.472 -4.917 -0.472 -1.063 -0.861 -1.151 -1.485 -1.763 -12.62 -0.354 -6.443 -0.799 -12.11 -0.987 -12.584 -0.519 -1.316 -3.987 -2.037 -8.137 -1.692 -3.986 0.332 -5.304 0.829 -6.09 2.297 -0.512 0.957 -1.194 8.425 -1.792 19.632 l -0.313 5.873 l -2.575 -0.008 c -1.416 -0.004 -2.894 -0.21 -3.284 -0.456 z"/><path d="m 169.78 135.85 c -4.645 -4.305 -2.907 -10.53 -2.93 -16.422 -0.063 -15.972 -0.125 -15.756 4.619 -15.966 l 3.298 -0.146 l 0.351 7.643 c 0.379 8.254 1.094 16.297 1.557 17.503 0.751 1.957 8.099 3.086 11.315 1.739 3.378 -1.414 3.569 -2.129 3.913 -14.615 0.223 -8.094 0.487 -11.361 0.964 -11.936 0.474 -0.571 1.546 -0.792 3.845 -0.792 h 3.188 v 14.886 v 14.886 l -2.787 3.357 l -2.787 3.357 l -10.833 -0.012 l -10.833 -0.012 l -2.879 -3.471 z"/></g></svg>