<svg xmlns="http://www.w3.org/2000/svg" xmlns:xlink="http://www.w3.org/1999/xlink" viewBox="0 0 256 256"><defs><linearGradient id="3"><stop stop-color="#08c"/><stop stop-color="#005b88" offset="1"/></linearGradient><linearGradient gradientUnits="userSpaceOnUse" y2="761.87" x2="452.79" y1="713.38" x1="291.75" id="2" xlink:href="#3"/><linearGradient gradientUnits="userSpaceOnUse" y2="461.35" x2="439.75" y1="557.31" x1="396.45" id="0" xlink:href="#3"/><linearGradient gradientUnits="userSpaceOnUse" y2="477.08" x2="333.18" y1="532.64" x1="134.08" id="1" xlink:href="#3"/></defs><g fill="#02c8f0" color="#000"><path d="M 219.27,843.52 C 378.99,1071.5 -36.39,1144.06 4.81,901.81 26.646,805.46 155.29,752.19 219.27,843.52 z" transform="matrix(-1 0 0 0.99576 257.92 -791.9)"/></g><g transform="matrix(0.372 0 0 0.39254 13.456 -109.51)"><path d="m 154.49,579.62 167.59,-58.47 164.84,74.78 -189.5,65.01 z" fill="#6ccfff"/><g stroke-miterlimit="1.45"><g stroke="#fff" stroke-width="2.958"><path d="m 319.57,519.78 69.29,-53.42 160.99,68.71 -61.33,58.6 z" fill="url(#0)" stroke-dashoffset="2"/><path d="m 96.8,515.47 162.67,-52.814 65.66,57.43 -171,60.25 z" fill="url(#1)" stroke-dashoffset="1"/></g><g stroke-dashoffset="2"><g transform="matrix(0.91764 -0.38635 0.39753 0.89183 -0.015 20.224)" stroke="#434343"><path d="M 210.75 725.89 A 159.62 159.62 0 0 1 29.19 795.06 159.62 159.62 0 0 1 -84.67 637.63 159.62 159.62 0 0 1 37.879 486.86 159.62 159.62 0 0 1 215.26 566.14 L 74.886 642.12" fill="#ffe129" stroke-width="2.854"/><circle r="21.14" cy="548.3" cx="95.9" fill="#005c8a" stroke-width="2.183"/></g><g fill-rule="evenodd" stroke="#fff" stroke-linejoin="round" stroke-width="2.958"><path d="m 293.22,660.49 2.113,172.15 195.37,-65.01 v -173.5 z" fill="url(#2)"/><path d="m 298.74,658.26 -2.113,172.15 -146.86,-84.03 4.225,-167.16 z" fill="#08c"/></g></g></g><g fill-rule="evenodd" fill="#fff"><g transform="matrix(0.22566 -0.07958 0 0.22566 245.2 740.18)"><path d="m 339.97,309.09 c -14.471,-0.024 -26.481,2.944 -31.12,4.563 l -4.781,25.813 c -0.012,0.095 23.795,-6.349 34.28,-5.969 17.362,0.624 18.959,6.635 18.656,14.75 0.296,0.475 -4.479,-7.332 -19.5,-7.594 -18.95,-0.327 -45.693,6.709 -45.656,35.31 -0.511,32.17 24.03,41.639 40.75,41.813 15.03,-0.274 22.08,-5.691 25.938,-8.594 5.071,-5.302 10.873,-10.634 16.406,-17.03 -5.236,9.513 -9.775,16.09 -14.5,21.13 v 4.25 l 22.844,-3.844 0.156,-62.09 c -0.231,-8.788 5.04,-42.42 -43.47,-42.5 z m -3.281,54.06 c 9.469,0.13 20.328,4.797 20.344,16.03 0.049,10.218 -12.8,15.712 -21.16,15.625 -8.36,-0.087 -19.451,-6.57 -19.5,-16.531 0.16,-8.904 10.46,-15.354 20.313,-15.12 z"/><path d="m 398.5,314.83 -0.155,102.83 26.612,-5.127 0.045,-58.3 c 0.006,-8.681 12.406,-18.825 27.963,-18.663 3.302,-5.974 9.509,-21.242 11.02,-24.715 -34.756,-0.083 -35.2,9.99 -41.24,14.945 -0.063,-9.453 -0.021,-15.13 -0.021,-15.13 l -24.22,4.162 z"/><path d="m 548.27 328.33 c -0.257 -0.121 -13.879 -15.934 -41.27 -16.06 -25.652 -0.426 -54.43 9.519 -54.886 52.53 0.225 37.819 27.64 52.598 55.03 52.886 29.31 0.305 40.977 -18.329 41.676 -18.791 -3.498 -3.03 -16.598 -16.01 -16.598 -16.01 0 0 -8.182 11.651 -24.06 11.799 -15.879 0.151 -29.682 -12.273 -29.878 -29.609 -0.203 -17.336 12.689 -26.728 29.997 -27.487 14.985 -0.003 23.63 9.673 23.63 9.673 l 16.352 -18.932 z"/><path d="m 581.81,278.84 -25.12,5.906 0.188,133.94 24.75,-4.469 0.281,-63.03 c 0.053,-6.609 9.561,-16.759 25.438,-16.438 15.18,0.158 18.572,10.118 18.531,11.375 l 0.438,72.969 24.406,-4.313 0.094,-77.37 c 0.161,-7.445 -16.308,-23.17 -42.781,-23.281 -12.581,0.02 -19.548,2.868 -23.09,4.969 -6.067,4.686 -13,9.175 -19.813,14.906 6.298,-8.091 11.586,-13.685 16.75,-17.844 l -0.063,-37.31 z"/></g><g transform="matrix(0.33408 -0.11782 0.00473 0.33242 260.01 588.26)"><path d="m 400.68,629.8 7.682,-1.916 -0.929,91.21 -7.796,1.324 1.043,-90.62 z"/><path d="m 421.1,657.02 6.751,-2.987 -0.868,65.4 -6.498,1.339 0.615,-63.752 z m -1.261,-23.583 5.472,-4.415 4.423,5 -5.476,4.532 -4.419,-5.116 z"/><path d="m 440.44,655.83 7.678,-1.562 -0.157,13.672 c -0.007,0.587 4.419,-15.274 24.685,-14.921 19.68,0.11 22.684,15.346 22.529,18.762 l -0.438,48.08 -6.73,1.456 0.633,-47.49 c 0.097,-1.387 -2.881,-13.11 -16.789,-13.158 -13.905,-0.04 -23.684,10.1 -23.758,16.579 l -0.481,41.835 -7.804,2.031 0.633,-65.29 z"/><path d="m 561.53,720.2 -7.678,1.562 0.157,-13.672 c 0.007,-0.587 -4.422,15.274 -24.685,14.921 -19.68,-0.109 -22.684,-15.346 -22.529,-18.762 l 0.438,-48.08 8.157,-1.642 -0.546,47.49 c -0.015,1.297 1.368,13.3 15.276,13.343 13.905,0.04 23.766,-8.374 24.01,-21.04 l 0.431,-37.469 7.598,-1.932 -0.633,65.29 z"/><path d="m 577.45,655.29 -5.427,4.2 20.2,26.933 -22.391,31.12 5.635,4.226 21.04,-28.897 20.878,29.582 5.327,-4.201 -22.376,-31.629 18.57,-25.577 -5.532,-4.734 -16.921,23.668 -19.01,-24.687 z"/></g></g><path stroke-miterlimit="1.45" d="m 106.65,647.22 46.11,-67.923 146.48,78.5 -44.866,74.74 z" fill="#08c" stroke="#fff" stroke-width="2.958" stroke-dashoffset="1"/><path d="m 392.48 641.14 c -4.913 13.778 -7.876 22.701 -13.346 36.32 3.354 2.372 7.47 5.06 14.155 7.378 -7.187 -0.423 -12.09 -1.663 -15.754 -3.452 -7 17.08 -17.968 41.751 -40.22 89.59 17.493 -16.268 31.05 -27.28 43.691 -34.11 -0.543 -2.143 -0.851 -4.558 -0.83 -7.2 l 0.021 -0.568 c 0.278 -11.305 6.108 -21.98 13.01 -23.83 6.906 -1.85 12.274 5.822 11.997 17.13 -0.052 2.127 -0.29 4.24 -0.706 6.268 12.5 -1.963 25.916 -0.484 43.17 3.393 -3.403 -5.064 -6.44 -9.64 -9.34 -13.996 -4.569 -1.93 -9.334 -4.858 -19.05 -6.419 6.681 -0.62 11.465 -0.304 15.193 0.62 -29.489 -44.503 -31.877 -50.957 -41.989 -71.12 z" fill="#fff" fill-rule="evenodd"/></g></svg>