<svg xmlns="http://www.w3.org/2000/svg" viewBox="0 0 256 256"><defs><clipPath><path d="m -24 13 c 0 1.105 -0.672 2 -1.5 2 -0.828 0 -1.5 -0.895 -1.5 -2 0 -1.105 0.672 -2 1.5 -2 0.828 0 1.5 0.895 1.5 2 z" transform="matrix(15.33333 0 0 11.5 415 -125.5)"/></clipPath></defs><path d="m 211.03 207.29 c -103.27 134.09 -289.67 -46.572 -170.58 -165.22 102.48 -118.91 301.39 51.04 170.58 165.22" fill="#2c2c2c"/><g transform="matrix(4.92424 0 0 5.09096 8.636 10.547)"><path paint-order="normal" d="m 13,13 h 24 v 15 l -9,9 H 13 z" opacity="0.1"/><path paint-order="normal" d="m 13,12 h 24 v 15 l -9,9 H 13 z" fill="#f8c750"/><path paint-order="normal" d="m 28 27 v 9 l 9 -9 z" fill="#d99c09"/></g></svg>