<svg xmlns="http://www.w3.org/2000/svg" viewBox="0 0 256 256"><defs><clipPath><path d="M 0,64 H64 V128 H0 z"/></clipPath></defs><g color="#000" fill="#186800"><path d="m -1360.14 1641.33 c 46.11 -98.28 -119.59 -146.07 -181.85 -106.06 -62.25 40.01 -83.52 108.58 -13.01 143.08 70.51 34.501 148.75 61.26 194.86 -37.03 z" transform="matrix(1.03665 0 0 -1.35742 1657.71 2320.79)"/></g><path d="m 200.68 148.07 a 64.54 62.37 0 1 1 -129.08 0 64.54 62.37 0 1 1 129.08 0 z" transform="matrix(1.04202 0 0 1.06087 -26.873 -18.233)" fill="#6eaf00"/><g fill="#00f800"><path d="m 159.46 50.983 h 27.12 v 72.68 h -27.12 z"/><path transform="matrix(0 1 -1 0 0 0)" d="m 72.68 -208.27 h 27.12 v 72.68 h -27.12 z"/></g></svg>