<svg xmlns="http://www.w3.org/2000/svg" viewBox="0 0 256 256"><path d="m 203.22 24.966 c -192.46 -127.95 -311 280.09 -62.2 226.07 102.82 -23.02 165.22 -167.39 62.2 -226.07 z" fill="#238ea6" color="#000"/><g fill="#d1f1f4" stroke="#d1f1f4" stroke-width="1.014" transform="translate(1.014 -4.057)"><path d="m 52.857 178.52 c -3.139 -5.01 -3.057 -33.644 0.105 -36.806 1 -1 3.855 -1.446 9.318 -1.446 7.712 0 7.947 0.075 11.59 3.719 2.045 2.045 3.769 4.669 3.831 5.831 0.238 4.489 -0.393 7.265 -2.245 9.866 -2.452 3.444 -2.427 6.05 0.105 11.01 1.116 2.187 2.028 5.363 2.028 7.06 0 2.691 -0.355 3.081 -2.789 3.067 -3.734 -0.021 -4.68 -0.771 -7.173 -5.691 -1.167 -2.302 -2.825 -4.455 -3.686 -4.785 -2.547 -0.978 -4.607 0.391 -4.607 3.061 0 5.636 -4.114 8.886 -6.477 5.117 z m 15.07 -20.961 c 2.119 -4.098 1.96 -5.489 -1.036 -9.05 -2.878 -3.421 -4.691 -3.284 -6.407 0.483 -3.723 8.172 3.404 16.377 7.443 8.567 z"/><path d="m 92.85 179.15 c -7.274 -3.625 -9.691 -8.944 -8.808 -19.386 1.086 -12.846 5.281 -18.346 14.682 -19.249 4.887 -0.47 5.234 -0.324 10.13 4.255 7.755 7.254 9.241 16.354 4.443 27.2 -2.335 5.279 -4.948 7.322 -11.127 8.703 -3.73 0.833 -5.01 0.625 -9.32 -1.525 z m 11.02 -6.84 c 2.023 -2.153 2.29 -3.479 2.269 -11.237 -0.033 -11.76 -2.57 -15.859 -8.842 -14.285 -3.673 0.922 -5.509 6.02 -5.509 15.302 0 7.01 0.236 7.906 2.684 10.174 3.393 3.145 6.472 3.16 9.398 0.046 z"/><path d="m 127.57 178.6 c -2.991 -1.444 -5.753 -9.787 -5.817 -17.566 -0.069 -8.489 2.513 -13.835 8.555 -17.713 5.572 -3.575 7.836 -3.76 13.11 -1.068 7.995 4.079 11.163 11.295 9.702 22.1 -1.752 12.961 -4.319 15.498 -15.583 15.397 -4.248 -0.038 -8.734 -0.557 -9.97 -1.153 z m 14.66 -6.425 l 3.59 -3.59 l -0.55 -8.03 c -0.662 -9.661 -3.17 -14.199 -7.847 -14.199 -5.04 0 -7.099 4.267 -7.099 14.686 0 8.369 0.144 8.939 2.964 11.76 1.63 1.63 3.502 2.964 4.158 2.964 0.656 0 2.809 -1.616 4.784 -3.59 z"/><path d="m 163.61 179.1 c -0.97 -1.168 -1.439 -6.628 -1.694 -19.716 l -0.352 -18.1 h 2.551 c 4.621 0 5.645 1.104 10.677 11.505 2.74 5.665 5.684 11.212 6.543 12.327 1.555 2.02 1.57 2.02 3.928 -0.196 1.302 -1.223 4.855 -6.619 7.894 -11.991 5.706 -10.08 7.712 -12.16 10.24 -10.599 1.189 0.734 1.467 4.264 1.467 18.639 0 12.01 -0.376 18.11 -1.166 18.9 -1.687 1.689 -5.349 0.189 -5.854 -2.398 -0.238 -1.218 -0.81 -4.231 -1.27 -6.696 -0.461 -2.465 -1.397 -4.667 -2.082 -4.894 -0.71 -0.235 -2.37 1.965 -3.866 5.125 -1.442 3.045 -3.746 6.593 -5.119 7.883 l -2.497 2.346 l -2.173 -2.173 c -1.195 -1.195 -3.58 -4.783 -5.299 -7.973 -1.72 -3.19 -3.572 -5.84 -4.116 -5.887 -1.198 -0.105 -2.3 3.362 -3.086 9.711 -0.63 5.087 -2.557 6.794 -4.724 4.185 z"/><path d="m 89.76 126.86 c -2.943 -1.565 -3.761 -6.465 -3.947 -23.638 -0.164 -15.167 -0.817 -14.678 19.601 -14.678 h 16.553 l 1.113 2.789 c 0.612 1.534 1.544 4.784 2.071 7.222 0.527 2.438 1.402 4.876 1.944 5.418 1.556 1.556 4.938 -0.81 5.707 -3.993 2.57 -10.642 2.439 -10.422 6.201 -10.422 3.773 0 4.367 0.816 7.758 10.649 2.102 6.096 4 5.165 6.72 -3.296 2.175 -6.769 2.584 -7.353 5.148 -7.353 1.662 0 3.749 1.026 5.177 2.546 l 2.392 2.546 l 2.82 -2.701 c 3.064 -2.936 9.101 -4.309 15.05 -3.424 5.135 0.764 5.322 3.633 0.327 5.02 -2.126 0.59 -4.608 1.076 -5.516 1.079 -2.462 0.008 -4.265 2.625 -3.164 4.592 0.508 0.907 3.168 3.342 5.912 5.41 5.956 4.49 9.143 9.768 8.189 13.566 -1.086 4.327 -6.233 8.692 -11.08 9.396 -6.294 0.915 -12.405 -0.605 -12.405 -3.086 0 -1.676 0.896 -2.063 5.789 -2.499 3.184 -0.284 6.303 -1.03 6.931 -1.658 2.02 -2.02 0.622 -5.812 -2.927 -7.952 -1.864 -1.124 -5.911 -4.256 -8.993 -6.96 -6.74 -5.913 -7.122 -5.693 -10.307 5.93 -2.851 10.405 -5.162 15.72 -6.835 15.72 -2.273 0 -5.338 -4.158 -7.03 -9.542 -3.873 -12.301 -5.676 -13.833 -7.566 -6.431 -2.281 8.934 -6.554 15.973 -9.696 15.973 -2.188 0 -5.181 -6.867 -8.142 -18.686 -3.145 -12.549 -5.459 -16.309 -9.428 -15.315 -1.454 0.364 -4.457 0.976 -6.672 1.358 -2.848 0.492 -4.388 1.42 -5.259 3.167 -1.784 3.582 -0.08 5.932 5.279 7.282 2.502 0.63 4.842 1.62 5.2 2.199 0.97 1.57 -3.547 4.782 -6.726 4.782 -1.525 0 -3.627 0.944 -4.671 2.098 -1.733 1.915 -1.766 2.334 -0.376 4.817 1.257 2.247 2.418 2.81 6.674 3.242 5.462 0.554 9.228 2.675 7.614 4.289 -1.634 1.634 -16.59 2.052 -19.427 0.543 z"/><path d="m 70.57 121.76 c -2.254 -2.928 -5.479 -7.264 -7.165 -9.635 -5.175 -7.275 -8.124 -5.02 -8.124 6.212 0 7.03 -1.387 9.34 -3.703 6.173 -1.743 -2.384 -1.988 -34.447 -0.271 -35.508 2.055 -1.27 11.25 7.662 15.637 15.189 0.558 0.957 1.927 1.822 3.042 1.921 1.823 0.163 2.094 -0.624 2.674 -7.766 0.673 -8.289 1.685 -10.486 4.357 -9.46 1.348 0.517 1.589 2.984 1.589 16.235 0 17.11 -0.575 21.963 -2.603 21.963 -0.734 0 -3.179 -2.396 -5.434 -5.324 z"/></g></svg>