<svg xmlns="http://www.w3.org/2000/svg" viewBox="0 0 256 256"><path d="m 104.18 245.08 c -170.71 -25.504 -112.4 -287.7 52.797 -238.11 156.96 33.26 114.45 301.63 -52.797 238.11" fill="#808080"/><g transform="matrix(0.7882 0 0 0.75665 26.2 22.387)"><path d="m 78.35 225.39 c -12.926 -1.938 -24.22 -12.214 -28.22 -25.677 -1.393 -4.685 -1.507 -9.123 -1.507 -58.703 c 0 -48.43 0.139 -54.15 1.436 -58.969 3.796 -14.1 14.08 -23.752 28.23 -26.499 8.369 -1.625 101.52 -1.578 108.54 0.055 13.741 3.193 23.683 12.765 27.323 26.308 1.34 4.987 1.47 10.203 1.47 59.1 0 49.58 -0.114 54.02 -1.507 58.703 -2.729 9.179 -9.98 18.274 -17.863 22.403 -7.272 3.809 -12.677 4.15 -64.54 4.071 -26.695 -0.041 -50.707 -0.399 -53.36 -0.797 z" fill="#f8e625"/><path d="m 91.12 202.5 c -1.372 -2.636 -1.185 -37.804 0.208 -39.23 0.424 -0.434 2.103 0.29 3.733 1.608 7.268 5.878 17.728 5.361 23.05 -1.14 l 2.865 -3.501 l -0.3 -21.17 c -0.3 -21.14 -0.304 -21.17 -2.845 -21.545 -5.286 -0.771 -5.737 0.909 -5.737 21.378 0 15.544 -0.304 19.285 -1.66 20.442 -2.385 2.036 -6.895 1.744 -9.424 -0.609 -1.809 -1.683 -2.651 -1.803 -4.985 -0.71 -1.544 0.724 -3.282 1.316 -3.86 1.316 -1.504 0 -1.41 -74.58 0.095 -75.54 1.166 -0.741 49.679 27.984 51.89 30.725 0.943 1.168 0.122 1.99 -3.751 3.751 -5.544 2.521 -8.431 6.945 -8.422 12.901 0.01 6.286 3.236 10.119 12.77 15.168 7.728 4.094 8.797 5.04 9.09 8.06 0.209 2.154 -0.355 4.01 -1.523 5 -2.791 2.382 -10.06 1.787 -13.02 -1.065 -1.375 -1.328 -3.213 -2.399 -4.085 -2.379 -2.042 0.047 -5.45 2.702 -5.45 4.246 0 2.361 6.608 6.842 12.08 8.192 3.072 0.758 5.584 1.966 5.582 2.684 -0.003 1.141 -48.31 31.22 -53.19 33.12 -1.227 0.478 -2.273 -0.096 -3.112 -1.709 z m 72.52 -41.748 c -0.267 -0.468 -0.477 -2.914 -0.467 -5.434 0.031 -7.549 -2.625 -11.259 -11.04 -15.421 -9.174 -4.537 -11.329 -6.338 -11.329 -9.468 0 -5.05 5.917 -6.908 10.797 -3.393 2.221 1.6 2.687 1.6 4.909 0 1.35 -0.972 3.462 -1.75 4.693 -1.728 1.231 0.022 8.202 3.727 15.49 8.232 9.809 6.06 13.251 8.778 13.251 10.447 0 1.649 -3.264 4.311 -12.147 9.908 -12.544 7.904 -13.341 8.29 -14.159 6.856 z" fill="#070600"/></g></svg>