<svg xmlns="http://www.w3.org/2000/svg" viewBox="0 0 256 256"><defs><clipPath><path transform="matrix(15.33333 0 0 11.5 415 -125.5)" d="m -24 13 c 0 1.105 -0.672 2 -1.5 2 -0.828 0 -1.5 -0.895 -1.5 -2 0 -1.105 0.672 -2 1.5 -2 0.828 0 1.5 0.895 1.5 2 z"/></clipPath></defs><path d="m 124.56 254.63 c 26.397 -2.048 57.29 -14.657 78.83 -32.17 26.2 -21.308 45.35 -53.989 50.5 -86.2 6.136 -42.554 -18.578 -88.29 -46.47 -109.99 -14.03 -10.568 -32.581 -18.979 -49.988 -22.658 -45.3 -9.582 -92.56 8.559 -124.96 47.965 -19.418 23.62 -29.473 47.43 -31.924 75.6 -2.939 33.769 10.415 69.981 34.795 94.36 27.743 22.988 56.27 35.463 89.22 33.11 z" fill="#292728"/><path d="m 62.683 192.91 c -0.087 -0.732 3.275 -6.114 4.983 -7.976 0.803 -0.876 2.35 -1.65 4.885 -2.444 8.859 -1.524 20.577 -1.81 28.22 -5.592 1.62 -1.061 2.384 -2.859 3.817 -3.933 3.038 -0.362 9.169 -17.405 12.592 -35.01 0.935 -4.809 0.807 -5.485 -1.105 -5.848 -0.554 -0.105 -9.929 2.113 -8.792 -0.916 1.144 -2.779 6.26 -2.269 7.298 -3.69 1.038 -1.421 4.647 -2.805 5.245 -4.217 2.02 -12.09 8.42 -27.718 9.569 -37.971 0.063 -1.166 -0.084 -1.402 -0.981 -1.572 -1.419 -0.045 -2.61 0.76 -3.874 0.678 -10.437 -0.629 -19.528 4.897 -27.798 8.381 -2.477 0.981 -7.244 7.608 -7.946 11.05 -0.885 6.893 2.02 13.458 5.01 19.827 0.357 0.123 0.567 0.667 0.543 1.404 -2.72 3.103 -8.905 5.826 -13.146 6.387 -4.084 0.358 -4.762 -0.088 -6.272 -4.115 -1.978 -5.276 -2.286 -11.994 -0.799 -17.424 1.326 -4.843 6.069 -11.288 11.648 -15.826 9.953 -8.175 22.725 -15.07 34.445 -16.781 1.638 -0.159 13.34 -1.385 25.396 -2.705 20.944 -2.294 21.788 -3.944 27.388 -5.283 5.755 -1.891 15.259 -4.682 21.523 -3.613 -2.58 3.654 -6.866 11.271 -9.712 13.09 -6.54 3.674 -24.16 1.431 -32.15 1.954 -5.14 0.31 -7.269 1.184 -7.832 3.214 0.04 11.984 -6.906 23.11 -7.916 35.428 -0.023 2.21 0.139 2.263 6.49 2.151 4.986 -0.088 21.603 -1.891 22.12 -2.4 2.566 -0.081 1.887 0.884 0.586 1.877 -1.145 0.873 -3.257 2.044 -4.693 2.602 -3.098 1.204 -12.433 3.245 -18.14 3.967 -5.949 0.752 -7.716 1.449 -8.706 3.432 -0.451 0.904 -1.034 2.758 -1.295 4.12 -1.11 5.794 -5.508 21.799 -6.304 22.94 -1.165 1.671 -5.085 6.727 -6.606 8.521 -11.591 12.804 -20.705 20.698 -37.94 24.793 -6.264 1.564 -18.76 6.173 -19.76 1.502 z" fill="#e73a35"/></svg>