<svg xmlns="http://www.w3.org/2000/svg" xmlns:xlink="http://www.w3.org/1999/xlink" viewBox="0 0 256 256"><defs><clipPath><path transform="matrix(15.33333 0 0 11.5 415 -125.5)" d="m -24 13 c 0 1.105 -0.672 2 -1.5 2 -0.828 0 -1.5 -0.895 -1.5 -2 0 -1.105 0.672 -2 1.5 -2 0.828 0 1.5 0.895 1.5 2 z" fill="#1890d0"/></clipPath></defs><g transform="translate(0 -796.36)"><path d="m 60.17 822.74 c 130.93 -92.05 263.6 77.948 156.91 186.39 -100.51 102.17 -256.68 7.449 -207.86 -119.69 10.185 -26.526 26.914 -49.802 50.948 -66.7 z" fill="#450" color="#000"/><g transform="matrix(6.92769 0 0 7.44637 296.39 -2039.88)"><g><path d="m -24.338 389.95 c 2.228 -0.047 4.877 0.383 6.134 1.588 0.571 0.807 0.82 2.861 0.82 3.592 0 0.426 -0.129 0.788 -0.388 1.085 -0.251 0.289 -0.56 0.434 -0.925 0.434 -0.812 -0.131 -1.668 -0.464 -2.072 -0.828 -0.914 -0.853 -1.812 -1.279 -2.696 -1.279 -0.426 0 -0.769 0.103 -1.028 0.308 -0.473 1.038 2.851 0.819 4.508 1.599 1.942 0.944 2.913 2.334 2.913 4.169 0 1.622 -0.663 2.947 -1.988 3.975 -1.356 1.051 -3.126 1.576 -5.312 1.576 -0.975 0 -2 -0.114 -3.084 -0.343 -1.081 -0.236 -1.862 -0.51 -2.342 -0.822 -2.761 -2.182 -2.699 -4.935 -1.236 -6.63 0.19 -0.244 0.43 -0.366 0.72 -0.366 0.289 0 0.567 0.149 0.834 0.445 0.16 0.168 0.574 0.521 1.168 1.427 0.282 0.426 0.727 0.781 1.337 1.062 0.617 0.282 1.253 0.423 1.908 0.423 0.186 -0.021 1.319 -0.269 0.148 -0.543 -1.089 -0.343 -1.919 -0.655 -2.49 -0.937 -0.571 -0.289 -1.104 -0.651 -1.599 -1.085 -1.203 -1.066 -1.805 -2.277 -1.805 -3.633 0 -0.67 0.156 -1.321 0.468 -1.953 0.312 -0.64 0.754 -1.192 1.325 -1.656 1.279 -1.074 2.841 -1.611 4.683 -1.611" fill="#8a0" stroke="#000" stroke-width="0.367" id="0"/><use xlink:href="#0"/></g><path d="m -24.338 389.95 c 2.228 -0.047 4.877 0.383 6.134 1.588 0.571 0.807 0.82 2.861 0.82 3.592 0 0.426 -0.167 0.638 -0.426 0.935 -0.251 0.289 -0.522 0.208 -0.887 0.208 -0.812 -0.131 -1.668 -0.464 -2.072 -0.828 -0.914 -0.853 -1.812 -1.279 -2.696 -1.279 -0.426 0 -1.035 0.253 -1.294 0.459 -0.473 1.038 3.117 1.045 4.774 1.825 1.942 0.944 2.913 2.334 2.913 4.169 0 1.622 -0.663 2.947 -1.988 3.975 -1.356 1.051 -3.126 1.576 -5.312 1.576 -0.975 0 -2 -0.114 -3.084 -0.343 -1.081 -0.236 -1.862 -0.51 -2.342 -0.822 -2.761 -2.182 -2.888 -4.672 -1.426 -6.367 0.19 -0.244 0.43 -0.403 0.72 -0.403 0.289 0 0.567 0.149 0.834 0.445 0.16 0.168 0.46 0.408 1.054 1.314 0.282 0.426 0.955 0.856 1.564 1.138 0.617 0.282 1.442 0.423 2.097 0.423 0.186 -0.021 1.357 -0.495 0.186 -0.768 -1.089 -0.343 -2.071 -0.617 -2.642 -0.899 -0.571 -0.289 -1.104 -0.651 -1.599 -1.085 -1.203 -1.066 -1.805 -2.277 -1.805 -3.633 0 -0.67 0.156 -1.321 0.468 -1.953 0.312 -0.64 0.754 -1.192 1.325 -1.656 1.279 -1.074 2.841 -1.611 4.683 -1.611" fill="#8a0" stroke-width="0.145" transform="matrix(0.96716 0 0 0.97567 -0.77 9.741)" stroke="#bae7ae"/></g></g></svg>