<svg xmlns="http://www.w3.org/2000/svg" viewBox="0 0 256 256"><defs><clipPath><path transform="matrix(15.33333 0 0 11.5 415 -125.5)" d="m -24 13 c 0 1.105 -0.672 2 -1.5 2 -0.828 0 -1.5 -0.895 -1.5 -2 0 -1.105 0.672 -2 1.5 -2 0.828 0 1.5 0.895 1.5 2 z"/></clipPath></defs><path d="m 46.627 219.57 c -200.11 -265.25 350.59 -302.94 173.86 -32.17 -40.29 61.728 -120.86 102.43 -173.86 32.17 z" fill="#ff8c00" color="#000"/><g stroke-opacity="0.011" fill="#fff" stroke="#ff7f50" fill-rule="evenodd"><path d="m 119.66 169.01 c -6.724 -6.979 -15.891 -23.857 -19.07 -35.11 -1.651 -5.843 -4.288 -21.488 -4.288 -25.44 0 -0.597 1.711 -1.369 3.803 -1.715 2.092 -0.346 9.01 -2.887 15.363 -5.644 l 11.56 -5.01 l 6.695 3.344 c 7.758 3.875 18.428 7.685 21.521 7.685 2.01 0 2.098 0.345 1.417 5.831 -2.607 21 -13.971 46.979 -25.697 58.74 -1.853 1.858 -3.842 3.378 -4.421 3.378 -0.579 0 -3.676 -2.723 -6.882 -6.05 z" stroke-width="1.158"/><path d="m 118.35 208.1 c -10.08 -5 -15.795 -9.208 -24.09 -17.735 -12.979 -13.347 -19.377 -22.913 -26.769 -40.02 -6.865 -15.892 -10.61 -33.21 -12.276 -56.79 l -0.704 -9.963 l 7.679 -0.734 c 23.574 -2.252 43.17 -10.264 57.971 -23.7 l 6.729 -6.109 l 6.02 6.109 c 12.176 12.365 34.43 21.415 58.25 23.689 8.818 0.842 8.21 -0.863 6.458 18.09 -2.117 22.905 -5.981 37.686 -14.493 55.44 -6.412 13.377 -11.973 21.447 -21.807 31.646 -9.532 9.886 -29.873 23.618 -34.803 23.496 -0.74 -0.018 -4.414 -1.556 -8.164 -3.416 z m 17.02 -26.484 c 4.247 -3.385 9.517 -8.327 11.712 -10.981 5.741 -6.943 12.453 -19.05 16.24 -29.3 3.803 -10.291 8.243 -30.462 8.259 -37.526 0.011 -4.87 0.01 -4.871 -4.423 -5.981 -9.81 -2.457 -23.68 -7.649 -31.821 -11.913 l -8.607 -4.508 l -8.607 4.501 c -8.893 4.651 -22.269 9.643 -31.817 11.875 l -5.473 1.279 l 0.592 4.292 c 3.993 28.962 11.933 50.964 23.769 65.869 4.308 5.425 19.545 18.545 21.537 18.545 0.506 0 4.394 -2.77 8.641 -6.155 z" stroke-width="1.186"/></g></svg>