<svg xmlns="http://www.w3.org/2000/svg" viewBox="0 0 256 256"><path d="m 81.54 251.33 c 360.62 44.46 61.711 -466.7 -70.74 -139.69 -20.313 57.45 -2.679 122.09 70.74 139.69 z" fill="#927056" color="#000"/><path d="m 84.62 71.7 l 44.666 -14.09 l 42.43 14.09 c 6.705 47.12 7.823 52.616 16.204 119.99 -38.534 0.265 -80.42 0.405 -118.95 0.016 7.823 -70.11 8.94 -67.957 15.646 -120.01 z" fill="#ffc9a1"/><g fill="#31261d"><path d="m 95.33 161.32 c -6.278 -0.183 -6.308 -0.19 -6.308 -1.605 0 -0.944 0.471 -1.63 1.403 -2.044 1.264 -0.561 1.437 -1.084 1.75 -5.273 0.191 -2.558 0.52 -14.771 0.732 -27.14 l 0.385 -22.489 l 2.119 0.433 c 3 0.614 5.541 0.555 10.98 -0.259 3.544 -0.53 5.625 -0.554 8.176 -0.095 1.882 0.339 5.816 0.616 8.742 0.616 h 5.32 l 0.067 20.999 c 0.045 14 0.286 21.526 0.723 22.581 1.079 13.777 -0.898 7.741 -3.512 12.398 -0.983 2.746 -5.799 2.793 -6.532 0.063 -0.444 -1.655 -2.636 -1.583 -2.882 0.095 -0.299 2.046 -2.854 2.253 -21.16 1.72 z m 15.06 -5.093 c 0.186 -0.473 0.514 -11.51 0.728 -24.526 l 0.389 -23.666 h -2.381 h -2.381 l -0.406 8.714 c -0.598 12.84 0.337 39.753 1.403 40.39 1.03 0.62 2.203 0.214 2.648 -0.916 z m -9.385 -2.807 c 1.36 -1.324 1.36 -17.451 0 -18.775 -1.124 -1.095 -1.487 -1.112 -2.86 -0.134 -0.958 0.682 -1.072 1.699 -1.072 9.522 0 7.823 0.114 8.84 1.072 9.522 1.373 0.977 1.736 0.96 2.86 -0.134 z m 19.673 -1.173 c 0.355 -0.346 0.059 -9.284 -0.453 -13.636 -0.412 -3.504 -1.189 -4.329 -3.01 -3.191 -0.933 0.584 -1.716 5.973 -1.765 12.143 -0.035 4.461 0.914 5.935 3.427 5.321 0.84 -0.205 1.65 -0.492 1.799 -0.637 z m -18.843 -25.979 c -0.171 -3.666 -0.438 -4.781 -1.293 -5.389 -1.262 -0.898 -2.551 -0.561 -2.988 0.781 -0.473 1.452 -0.525 7.876 -0.069 8.594 0.222 0.349 1.34 0.635 2.484 0.635 h 2.081 l -0.216 -4.622 z m 18.588 2.181 c 0.198 -1.028 0.276 -3.02 0.173 -4.428 -0.172 -2.359 -0.322 -2.573 -1.918 -2.75 -2.285 -0.253 -3.256 1.101 -3.256 4.54 0 3.852 0.39 4.509 2.677 4.509 1.754 0 2 -0.2 2.325 -1.87 z m -18.853 -12.176 c 0.581 -1.474 0.405 -7.653 -0.251 -8.848 -0.685 -1.246 -2.325 -1.449 -3.383 -0.42 -0.745 0.725 -1.013 9.109 -0.313 9.79 0.769 0.749 3.593 0.375 3.947 -0.523 z m 18.853 -1.537 c 0.198 -1.028 0.276 -3.02 0.173 -4.428 -0.17 -2.328 -0.336 -2.575 -1.836 -2.743 -2.465 -0.275 -3.338 0.773 -3.338 4.01 0 3.714 0.768 5.04 2.928 5.04 1.471 0 1.764 -0.265 2.073 -1.87 z"/><path d="m 148.04 162.01 c -0.515 -0.499 -1.604 -1.205 -2.419 -1.569 -1.588 -0.708 -1.803 -0.943 -2.053 -2.239 -0.116 -0.599 -0.074 -0.857 0.147 -0.912 0.169 -0.043 0.841 -0.212 1.493 -0.377 0.652 -0.165 2.462 -0.353 4.02 -0.418 l 2.839 -0.119 l 0.302 -2.44 c 0.398 -3.214 0.555 -3.544 1.847 -3.883 1.394 -0.365 1.759 -0.808 2.071 -2.511 0.328 -1.794 0.103 -2.145 -1.38 -2.145 -2.135 0 -2.949 0.855 -2.949 3.098 0 0.748 -0.098 1.114 -0.296 1.11 -0.163 -0.004 -1.313 -0.098 -2.557 -0.212 -2.971 -0.271 -5.142 0 -5.813 0.726 -0.316 0.342 -0.861 0.58 -1.54 0.673 -0.578 0.079 -1.306 0.21 -1.617 0.291 l -0.565 0.148 l 0.113 -2.418 c 0.126 -2.702 0.641 -4.096 1.867 -5.061 0.644 -0.507 2.46 -1.016 3.622 -1.016 1.191 0 2.912 -0.654 3.182 -1.209 0.441 -0.905 0.604 -2.67 0.297 -3.207 -0.51 -0.892 -1.281 -0.983 -4.717 -0.556 -2.226 0.277 -3.28 0.326 -3.555 0.165 -0.215 -0.126 -0.509 -0.667 -0.654 -1.204 -0.24 -0.888 -0.97 -2.043 -2.23 -3.527 -0.361 -0.425 -0.525 -1.123 -0.705 -2.994 -0.221 -2.311 -0.952 -18.205 -0.95 -20.673 v -1.155 l 1.213 -0.397 c 0.731 -0.24 1.808 -0.888 2.714 -1.634 0.864 -0.712 1.918 -1.354 2.481 -1.512 0.841 -0.236 1.046 -0.421 1.448 -1.314 0.814 -1.802 0.998 -2.067 1.663 -2.389 0.837 -0.405 1.487 -0.398 1.857 0.019 0.241 0.271 0.61 4.03 0.698 7.097 0.012 0.428 0.125 0.439 3.153 0.306 1.727 -0.075 3.46 -0.257 3.851 -0.403 0.992 -0.371 1.727 -1.068 1.899 -1.801 0.203 -0.867 0.662 -1.151 1.831 -1.136 1.055 0.014 1.336 0.219 2.109 1.541 0.238 0.407 0.949 0.943 1.841 1.388 1.478 0.737 1.806 1.182 1.642 2.226 -0.053 0.337 -0.331 0.582 -0.843 0.743 -1.663 0.523 -2.128 1.618 -2.788 6.562 -0.472 3.531 -0.822 5.04 -1.247 5.369 -0.262 0.204 -0.878 0.174 -2.746 -0.133 -3.137 -0.516 -6.498 -0.676 -9.943 -0.475 l -2.775 0.162 v 2.191 c 0 3.109 -0.277 2.993 6.465 2.685 3.567 -0.163 5.687 -0.36 6.57 -0.61 1.418 -0.401 3.618 -0.356 5.866 0.121 l 1.244 0.264 l 0.01 1.59 c 0.01 1.57 0.194 3.216 0.696 6.247 0.465 2.805 -0.453 10.55 -1.429 12.05 -0.29 0.446 -1.032 0.964 -2.105 1.47 -0.912 0.43 -1.773 0.983 -1.914 1.23 -0.287 0.502 -0.348 3.407 -0.109 5.199 0.166 1.24 0.18 1.214 -1.147 2.145 -0.365 0.257 -1.106 1.029 -1.646 1.716 -1.145 1.459 -1.485 1.734 -2.38 1.924 -0.363 0.077 -1 0.466 -1.422 0.863 -0.419 0.397 -1.124 0.838 -1.567 0.979 -1.417 0.451 -1.988 0.327 -2.998 -0.651 z m 9.216 -20.84 c 0.34 -0.251 0.746 -0.854 0.902 -1.34 0.413 -1.289 0.036 -1.549 -2.438 -1.69 -1.857 -0.105 -2.01 -0.08 -2.493 0.411 -0.493 0.504 -0.64 0.961 -0.582 1.81 0.036 0.531 1.768 1.253 3.02 1.26 0.631 0.004 1.194 -0.156 1.594 -0.451 z m -1.296 -6.22 c 0.74 -0.645 0.978 -1.345 0.978 -2.871 0 -1.81 -0.204 -1.908 -4.575 -2.198 -4.997 -0.332 -7.562 -0.024 -7.839 0.942 -0.077 0.269 -0.142 1.063 -0.143 1.765 -0.005 2.096 0.002 2.099 5.922 2.563 4.38 0.344 5.061 0.32 5.658 -0.2 z m -5.15 -15.74 c 2.733 -0.262 4.229 -0.767 4.833 -1.63 0.491 -0.702 0.232 -1.093 -1.056 -1.597 -1.592 -0.622 -2.649 -1.861 -2.96 -3.469 l -0.161 -0.832 l -1.233 0.008 c -1.408 0.009 -3.823 0.453 -4.608 0.848 -0.802 0.403 -1.199 1.325 -1.479 3.434 -0.385 2.899 -0.262 3.116 1.891 3.323 1.655 0.159 2.363 0.147 4.773 -0.085 z"/></g></svg>