<svg xmlns="http://www.w3.org/2000/svg" viewBox="0 0 256 256"><path d="m 117.3 1051.73 c 155.28 14.765 197.08 -234.25 37.632 -253.59 -146.61 -23.968 -222.12 201.75 -76.44 246.9 c 12.317 4.946 25.786 4.852 38.807 6.696 z" fill="#cac160" color="#000" transform="translate(0 -796.36)"/><g transform="matrix(0.98985 -0.14215 0.14215 0.98985 -118.28 169.17)"><path fill="#608fc2" stroke="#608fc2" stroke-width="3" d="M 205.14,-64.52 H305.62 V56.05 H205.14 z"/><g fill="#fff" stroke="#fff"><path d="m 193.29 50.573 c 0.121 -4.764 0.408 -14.468 0.639 -21.563 0.321 -9.888 0.283 -14.711 -0.162 -20.657 -1.017 -13.579 -1.254 -24.42 -0.738 -33.707 0.514 -9.244 0.562 -13.216 0.242 -19.92 -0.168 -3.51 -0.047 -4.395 0.944 -6.936 1.51 -3.869 3.433 -9.297 7.39 -12.306 1.788 -1.359 4.03 -0.268 4.112 -0.167 0.086 0.101 -0.58 5.75 -1.48 12.554 -0.9 6.804 -1.582 12.413 -1.516 12.465 0.066 0.052 2.568 -0.337 5.56 -0.864 5.925 -1.045 7.14 -0.824 6.253 1.136 -0.682 1.507 -3.586 3.145 -8.599 4.847 -2.398 0.814 -2.82 2.066 -2.774 8.227 l 0.037 4.996 l 4.991 -0.534 c 4.881 -0.522 6.939 -0.214 6.948 1.04 0.005 0.725 -2.923 2.409 -6.603 3.797 -4.852 1.83 -5.286 2.573 -5.238 8.988 l 0.038 5.136 l 5.191 -0.402 c 4.048 -0.314 5.383 -0.248 6.06 0.298 1.499 1.202 0.159 2.154 -5.144 3.652 -6.565 1.854 -6.636 1.948 -6.394 8.4 0.181 4.844 0.236 5.075 1.492 6.239 1.259 1.168 1.445 1.191 5.42 0.668 2.903 -0.381 5.625 0.85 5.628 1.244 -0.229 2.677 -4.02 2.098 -7.176 2.887 -4.699 1.174 -5.343 1.145 -5.295 7.658 0.037 4.902 0.107 5.294 1.137 6.342 1.019 1.036 1.33 1.08 4.315 0.605 5.04 -0.802 5.325 -0.813 5.515 -0.215 0.099 0.31 0.618 2.729 0.235 3.188 -0.7 0.838 -2.14 1.236 -6.843 2.568 -3.713 1.052 -4.41 -0.003 -3.967 7.181 0.195 3.168 0.486 5.993 0.647 6.278 0.204 0.362 1.563 0.29 4.516 -0.24 4.682 -0.84 5.347 -1.026 5.204 0.643 -0.368 4.288 -16.264 6.091 -18.13 3.396 l -1.734 -2.502 l -0.726 -4.422 z" stroke-width="1.416"/><path d="m 130.59 165.78 c -9.735 -2.091 -18.12 -10.07 -21.307 -20.28 -0.462 -1.479 -0.959 -4.504 -1.104 -6.72 -0.22 -3.36 -0.108 -4.537 0.67 -7.08 1.311 -4.272 4.642 -9.914 7.613 -12.897 10.636 -10.675 28.623 -11.02 39.05 -0.755 7.96 7.837 8.928 22.11 2.01 29.613 -2.412 2.617 -4.409 3.178 -13.447 3.775 -6.492 0.429 -8.944 0.376 -13.613 -0.293 -3.318 -0.476 -5.978 -4.087 -6.947 -9.43 -0.955 -5.267 0.536 -10.706 3.746 -13.665 1.071 -0.987 2.506 -1.913 3.19 -2.058 0.683 -0.144 1.64 -0.346 2.127 -0.447 0.486 -0.102 4.122 -0.058 8.08 0.096 6.841 0.267 7.203 0.327 7.366 1.206 0.094 0.509 0.387 3.842 0.65 7.407 0.574 7.777 1.136 10.635 2.294 11.683 0.833 0.754 0.916 0.75 2.073 -0.107 3.082 -2.283 4.302 -5.743 3.929 -11.143 -0.996 -14.405 -16.556 -22.267 -30.676 -15.499 -5.902 2.829 -9.817 7.572 -11.1 13.449 -3.162 14.476 2.991 25.618 15.625 28.29 5.914 1.253 11.12 0.738 16.197 -1.602 3.22 -1.484 4.358 -1.44 4.358 0.169 0 2.438 -3.232 4.59 -9.178 6.111 -3.868 0.989 -7.534 1.042 -11.605 0.168 z m 7.536 -18.88 c 2.214 -1.492 3.685 -4.692 3.681 -8 -0.01 -7.463 -6.635 -10.363 -10.601 -4.64 -2.561 3.696 -1.738 9.133 1.862 12.294 1.827 1.604 3.072 1.69 5.059 0.351 z" transform="translate(123.42 -139.66)" stroke-width="1.327"/></g></g></svg>