<svg xmlns="http://www.w3.org/2000/svg" viewBox="0 0 256 256"><defs><clipPath><path d="M 0,64 H64 V128 H0 z"/></clipPath></defs><g color="#000" fill="#f5f5f5"><path d="m -1360.14 1641.33 c 46.11 -98.28 -119.59 -146.07 -181.85 -106.06 -62.25 40.01 -83.52 108.58 -13.01 143.08 70.51 34.501 148.75 61.26 194.86 -37.03 z" transform="matrix(1.03665 0 0 -1.35742 1657.71 2320.79)"/></g><g fill="#5f5f5f" stroke="#5f5f5f"><path d="m 84.71 191.68 l 4.72 -4.07 c 5.305 -4.575 6 -6.865 2.74 -8.986 -3.203 -2.622 -8.181 1 -10.968 -1.56 -0.604 -0.599 -1.274 -3.964 -1.599 -8.03 l -0.559 -7 l 2.833 -2.466 c 2.425 -2.111 2.833 -2.947 2.833 -5.809 0 -2.086 -0.545 -4.01 -1.45 -5.118 -7.472 -3.264 -11.212 -1.594 -21.18 -1.409 l -1.683 -2.344 c -1.023 -1.425 -2.524 -2.44 -3.829 -2.589 -2.853 -0.326 -2.758 -2.31 0.147 -3.081 2.616 -0.694 3.577 -1.865 3.595 -4.379 0.008 -1.24 -4.883 -4.414 -3.754 -4.414 2.763 0 8.175 4.979 5.456 7.09 -1.362 1.057 -2.477 2.598 -2.477 3.425 4.344 2.173 14.64 3.03 21.678 0.706 1.967 -0.742 2.091 -1.057 1.757 -4.485 l -2.31 -6.104 l 6.743 2.671 l 4.792 0.253 l 4.144 -5.128 l 4.144 -5.128 h 4.303 c 4.192 0 4.303 -0.057 4.303 -2.191 0 -1.205 -0.502 -2.872 -1.115 -3.705 -0.998 -1.355 -2.409 -1.555 -13.436 -1.904 -11.03 -0.349 -12.438 -0.549 -13.436 -1.904 -0.836 -1.135 -1.115 -4.23 -1.115 -12.366 0 -10.438 0.075 -10.941 1.966 -13.169 1.957 -2.194 2.053 -4.428 2.247 -7.154 0.062 -0.796 3.83 -5.444 8.372 -10.329 7.669 -8.248 8.468 -8.883 11.175 -8.887 2.387 -0.004 3.315 -0.5 5.113 -2.734 2.742 -3.826 7.425 -2 9.669 -5.069 1.299 -1.809 2.283 -2.34 4.335 -2.34 2.813 0 5.104 -2.178 5.104 -4.853 0 -2.581 2.946 -1.621 3.91 1.274 0.926 2.782 2.069 3.579 5.13 3.579 3.473 0.961 5.346 4.645 8.574 4.68 2.223 0 3.204 0.539 4.967 2.73 1.789 2.223 2.73 2.73 5.066 2.73 2.644 0 3.524 0.696 11.209 8.866 8.06 8.568 8.339 8.985 8.339 12.409 0.204 4.275 1.976 5.192 4.949 7.673 l -0.547 11.07 c -0.404 8.169 -0.853 11.375 -1.714 12.238 -0.893 0.895 -3.901 1.261 -12.823 1.56 -12.996 0.435 -14.249 0.889 -14.249 5.165 v 2.634 h 3.882 c 3.79 0 3.989 0.12 8.399 5.069 l 4.517 5.069 h 4.58 h 4.58 v -3.402 c 0 -2.524 0.558 -4.114 2.163 -6.157 1.19 -1.515 2.584 -3.406 3.098 -4.202 0.874 -1.354 1.067 -1.284 3.01 1.088 2.571 3.145 3.698 3.176 6.072 0.168 l 1.868 -2.367 c 3.422 3.85 7.744 7.286 10.536 11.552 0 0.402 -0.885 1.13 -1.966 1.619 -1.429 0.645 -1.966 1.497 -1.966 3.113 0 1.575 0.574 2.53 1.966 3.268 2.674 1.419 2.491 2.306 -1.195 5.768 l -3.161 2.97 l -9.699 -0.275 c -9.436 -0.267 -9.738 -0.225 -11.1 1.573 -2.331 3.065 -1.848 7.544 1.143 10.604 2.546 2.605 2.548 2.612 2.27 9.663 -0.172 4.365 -0.663 7.438 -1.288 8.06 -3.742 1.946 -9.05 -0.619 -11.922 2.15 -0.891 0.883 -1.62 2.055 -1.62 2.603 0 0.549 2.301 3.258 5.113 6.02 5.655 5.557 5.714 5.766 4.606 16.277 l -0.507 4.807 c -13.427 -0.139 -26.855 -0.277 -40.28 -0.416 l -0.222 -8.296 l -0.222 -8.296 l 4.745 -4.258 c 7.758 -6.961 6.405 -9.353 -5.561 -9.829 -10.748 -0.428 -14.712 0.245 -15.834 2.688 -0.817 1.779 -0.506 2.309 4 6.82 l 4.89 4.892 l -0.226 8.139 l -0.226 8.139 c -13.503 0.139 -27.01 0.278 -40.509 0.416 0 -5.692 -1.219 -10.418 0 -17.08 z m 34.413 11.09 c 1.606 -0.42 1.77 -0.932 1.77 -5.531 0 -4.352 -0.28 -5.359 -1.981 -7.123 -1.089 -1.13 -3.479 -3.719 -5.309 -5.754 -3.053 -3.392 -3.706 -3.741 -7.878 -4.205 l -4.549 -0.506 c -3.992 4.02 -7.983 8.05 -11.975 12.07 l -0.048 5.2 c -0.026 2.86 0.255 5.687 0.626 6.281 9.682 0.807 17.664 2.133 29.344 -0.43 z m 49.07 -0.334 c 1.199 -0.636 1.472 -1.691 1.472 -5.677 0 -4.535 -0.174 -5.02 -2.36 -6.625 -1.298 -0.951 -2.36 -2.177 -2.36 -2.723 0 -1.419 -4.71 -5.733 -7.327 -6.711 -1.218 -0.455 -3.523 -0.828 -5.123 -0.828 -5.751 1.093 -7.913 5.156 -12.255 9.493 -2.01 2 -2.297 5.05 -2.36 9.294 0.814 8.584 15.722 4.881 30.31 3.777 z m 4.161 -30.837 c 0.964 -0.367 1.244 -1.656 1.244 -5.724 0 -4.844 -0.152 -5.32 -1.966 -6.139 -1.859 -0.84 -1.966 -1.23 -1.966 -7.118 0 -5.869 -0.136 -6.367 -2.36 -8.623 -1.639 -1.662 -2.36 -3.165 -2.36 -4.918 0 -3.654 -5.851 -9.9 -9.274 -9.9 -1.87 0 -2.939 -0.642 -4.545 -2.73 -1.75 -2.275 -2.597 -2.73 -5.089 -2.73 -2.567 0 -3.229 -0.385 -4.69 -2.73 l -1.701 -2.73 l -9.571 0.032 c -9.448 0.031 -9.607 0.061 -12.295 2.34 -1.646 1.395 -3.617 2.308 -4.983 2.308 -1.593 0 -2.977 0.803 -4.688 2.72 -1.521 1.704 -3.447 2.909 -5.156 3.227 -4.03 0.75 -8.612 5.485 -9.274 9.59 -0.379 2.348 -1.172 3.765 -2.76 4.929 -2.187 1.603 -2.22 1.742 -1.744 7.324 0.482 5.65 0.468 5.706 -1.988 7.842 -2.347 2.042 -2.473 2.439 -2.473 7.827 v 5.676 h 43.2 c 23.759 0 43.758 -0.213 44.44 -0.473 z m 25.957 -28.857 c 1.919 -0.73 1.485 -2.716 -1.192 -5.454 l -2.436 -2.492 c 1.727 -1.244 3.668 -2.562 4.873 -4.203 0 -1.081 -5.635 -6.875 -6.687 -6.875 -3.977 2.444 -4.106 5 -7.355 1.435 -1.221 -1.355 -2.586 -2.24 -3.034 -1.966 -0.447 0.274 -0.991 2.333 -1.208 4.576 -0.219 2.262 -0.834 4.223 -1.38 4.403 -2.01 0.663 -3.934 3.314 -3.922 5.395 0.022 3.965 0.908 4.44 9.199 4.936 4.235 0.253 8.645 0.519 9.799 0.589 1.154 0.071 2.659 -0.084 3.343 -0.345 z m -53.62 -32.02 l 28.907 -0.515 v -9.887 c 0 -9.79 -0.019 -9.896 -1.966 -10.776 -1.752 -0.791 -1.966 -1.358 -1.966 -5.194 0 -4.151 -0.149 -4.455 -4.13 -8.434 -2.271 -2.27 -4.757 -5.078 -5.524 -6.24 -2.529 -3.383 -7.095 -1.189 -8.782 -4.357 -1.338 -2.565 -2.623 -3.214 -6.363 -3.214 -3.194 -0.359 -3.487 -1.743 -4.717 -4.29 l -10.157 -0.219 l -10.157 -0.219 l -2.178 2.364 c -1.635 1.775 -2.867 2.364 -4.944 2.364 -4.879 0.435 -4.963 4.451 -9.517 5.182 -1.729 0.257 -3.57 0.996 -4.091 1.643 -0.521 0.647 -2.854 3.175 -5.184 5.618 -3.545 3.717 -4.321 5.058 -4.757 8.212 -0.3 2.167 -1.357 4.856 -2.486 6.324 -1.843 2.395 -1.964 3.134 -1.964 11.913 v 9.359 l 2.163 0.325 c 3.725 0.56 27.77 0.577 57.814 0.041 z" stroke-width="2.55"/><path d="m 77.82 130.89 c -0.702 -0.558 -1.474 -2.61 -1.714 -4.561 -0.668 -5.423 -1.792 -5.927 -4.917 -2.204 l -2.658 3.165 l -1.824 -2.561 c -1 -1.409 -2.304 -2.561 -2.891 -2.561 -1.353 0 -6.935 6.124 -6.935 7.608 0 0.825 -0.682 0.973 -2.637 0.573 -3.02 -0.619 -3.582 -2.772 -0.819 -3.165 4.657 -2.432 6.626 -6.611 10.676 -9.878 0.268 0.003 1.109 1.098 1.869 2.434 1.982 3.483 4.527 2.957 7.089 -1.465 0.696 -1.202 1.216 -0.91 4.04 2.271 2.792 3.146 3.245 4.184 3.275 7.505 0.036 4.02 -0.424 4.532 -2.555 2.84 z" stroke-width="2.57"/><path d="m 113.9 98.44 c -2.864 -2.663 -2.565 -7.45 0.611 -9.773 3.138 -2.295 3.718 -2.301 6.123 -0.065 2.115 1.966 2.588 7.01 0.928 9.896 -1.299 2.257 -5.204 2.227 -7.662 -0.059 z" stroke-width="0.651"/><path d="m 140.13 99.69 c -1.437 -0.549 -3.727 -4.733 -3.727 -6.811 0 -0.881 0.784 -2.546 1.741 -3.701 4.136 -4.988 8.835 -2.681 8.835 4.336 0 3.323 -0.384 4.388 -1.959 5.435 -2.02 1.34 -2.952 1.482 -4.89 0.742 z" stroke-width="0.603"/></g></svg>