<svg xmlns="http://www.w3.org/2000/svg" viewBox="0 0 256 256"><path d="m 44.834 218.98 c -201.82 -265.58 353.59 -303.3 175.35 -32.21 -40.634 61.804 -121.89 102.55 -175.35 32.21 z" fill="#2e1100" color="#000"/><g transform="matrix(1.14492 0 0 1.16335 12.339 -38.21)"><path transform="matrix(1.0039 0 0 0.99006 33.12 72.29)" d="m 127.86 64.61 a 63.75 64.64 0 1 1 -127.5 0 63.75 64.64 0 1 1 127.5 0 z" fill="#fff" stroke-width="0.465"/><path d="m 96.77 72.25 c -6.511 0 -12.792 0.961 -18.716 2.752 2.643 0.838 4.328 1.274 4.928 1.274 0.821 0 1.451 -0.221 1.92 -0.683 l 1.064 -1.047 h 1.944 l 0.694 22.842 h -2.637 c -1.642 -7.843 -4.389 -13.489 -8.26 -16.949 -1.667 -1.514 -3.557 -2.612 -5.645 -3.299 -8.227 3.41 -15.573 8.492 -21.655 14.788 c 0.314 1.668 0.845 3.159 1.596 4.436 1.29 2.308 3.879 4.432 7.75 6.393 l 19.874 10.04 c 2.346 1.154 4.395 2.415 6.154 3.799 1.877 1.269 3.475 2.73 4.765 4.345 2.581 3.23 3.864 6.75 3.864 10.557 0 5.883 -2.814 10.775 -8.445 14.697 -5.161 3.576 -10.858 5.413 -17.07 5.529 -1.29 -0.115 -2.933 -0.27 -4.928 -0.501 -1.877 -0.231 -3.97 -0.652 -6.316 -1.229 -2.229 -0.462 -4.12 -0.749 -5.645 -0.865 -1.525 -0.231 -2.695 -0.341 -3.516 -0.341 -0.821 0 -1.587 0.111 -2.29 0.341 -0.352 0.231 -0.869 0.763 -1.573 1.57 h -2.29 v -25.959 h 2.823 c 1.525 6.806 3.461 11.876 5.807 15.22 3.871 5.652 9.499 8.486 16.889 8.486 4.105 0 8.02 -0.974 11.776 -2.934 4.692 -2.422 7.03 -5.788 7.03 -10.06 0 -3.691 -1.396 -7.04 -4.211 -10.04 -0.939 -0.923 -2.109 -1.897 -3.516 -2.934 -1.408 -1.038 -3.119 -2.01 -5.113 -2.934 l -15.477 -7.28 c -5.631 -2.653 -9.728 -5.531 -12.308 -8.645 -0.941 -1.093 -1.715 -2.28 -2.313 -3.572 -7.105 10.29 -11.268 22.753 -11.268 36.17 0 35.32 28.815 63.997 64.32 63.997 0.679 0 1.361 -0.025 2.036 -0.046 v -92.82 h 55.36 c -10.612 -20.824 -32.34 -35.1 -57.4 -35.1 z m 21.609 51.14 v 21.19 h 29.26 v 16.07 h -29.26 v 35.878 c 24.879 -8.839 42.709 -32.515 42.709 -60.29 0 -4.399 -0.467 -8.681 -1.318 -12.831 h -41.39 z" fill="#f00"/></g></svg>