<svg xmlns="http://www.w3.org/2000/svg" viewBox="0 0 256 256"><path d="m 27.19 196.49 c 148.44 196.78 355.85 -159.43 113.26 -193.39 -96.33 -17.581 -189.6 92.19 -113.26 193.39 z" fill="#808080" color="#000"/><g transform="matrix(0.73919 0 0 0.74609 36.559 32.706)"><path d="m 63.07 95.3 c -2.154 -1.368 4.955 -23.282 7.922 -24.421 0.851 -0.327 25.94 -0.594 55.753 -0.594 41.908 0 54.55 0.271 55.742 1.194 1.602 1.246 6.02 14.246 7.07 20.811 l 0.607 3.795 l -62.95 -0.015 c -34.622 -0.008 -63.49 -0.355 -64.14 -0.771 z" transform="matrix(1.35283 0 0 1.34032 -49.46 -43.837)" fill="#696969"/><path d="m 43.728 202.95 c -0.42 -1.553 -0.403 -29.868 -0.413 -60.686 l -0.018 -56.03 h 78.32 h 78.32 l -0.437 57.57 c -0.342 45.04 -0.802 57.932 -2.116 59.23 -33.72 1.235 -124.2 3.514 -153.66 -0.086 z"/><g fill="#dcdcdc"><path d="m 128.79 199.21 c -0.812 -8.959 0.035 -10.1 8.04 -10.825 8.549 -0.774 12.06 -3.153 11.53 -7.822 -0.253 -2.242 -1.446 -3.843 -3.684 -4.94 -3.139 -1.539 -3.549 -1.439 -7.935 1.941 -6.957 5.361 -8.422 3.628 -7.923 -9.37 l 0.394 -10.245 l -3.427 0.003 c -2.745 0.003 -3.368 0.463 -3.129 2.319 0.164 1.274 -0.636 2.85 -1.779 3.502 -1.631 0.931 -3.02 0.552 -6.487 -1.767 -2.426 -1.624 -5.504 -2.953 -6.841 -2.953 -3.188 0 -6.788 6.26 -5.147 8.95 1.796 2.945 3.681 3.629 11.657 4.228 l 7.375 0.554 l -0.257 10.926 c -0.141 6.01 -0.548 11.34 -0.904 11.846 -0.356 0.506 -2.593 -0.58 -4.972 -2.413 -7.212 -5.557 -13.569 -3.834 -12.771 3.462 0.381 3.484 0.723 3.706 7.908 5.134 4.13 0.82 10.05 1.725 13.159 2.01 l 5.649 0.519 l -0.458 -5.057 z"/><path d="m 128.52 131.33 c -0.909 -8.959 0.039 -10.1 9.01 -10.825 9.577 -0.774 13.504 -3.153 12.915 -7.822 -0.283 -2.242 -1.62 -3.843 -4.126 -4.94 -3.516 -1.539 -3.975 -1.439 -8.888 1.941 -7.793 5.361 -9.435 3.628 -8.875 -9.37 l 0.441 -14.388 l -5.938 1.039 c -3.075 0.003 -1.674 3.571 -1.406 5.426 -1.134 6.173 -7.132 2.994 -9.26 1.735 -2.717 -1.624 -6.166 -2.953 -7.663 -2.953 -3.571 0 -7.604 6.26 -5.766 8.95 2.01 2.945 4.124 3.629 13.06 4.228 l 8.261 0.554 c -0.96 7.184 0.888 15.977 -1.3 22.772 -0.399 0.506 -2.905 -0.58 -5.569 -2.413 -8.08 -5.557 -15.2 -3.834 -14.306 3.462 0.427 3.484 0.81 3.706 8.858 5.134 4.627 0.82 11.408 -2.265 11.802 2.01 l 3.39 36.772 l 5.784 -21.63 z"/></g></g><path d="m 131.96 153.41 c -9.872 -3.1 -18.599 -5.831 -28.459 -8.917 -11.446 0.356 -22.892 0.711 -34.34 1.067 0.191 -3.993 -0.983 -8.218 -0.792 -12.211 11.717 -0.11 23.422 -0.51 35.13 -0.904 11.72 3.19 23.23 6.977 35 10.01 1.775 0.445 4.271 -0.74 12.816 -6.089 l 10.612 -6.642 c 7.445 1.782 14.891 3.564 22.336 5.346 -0.564 3.853 0.647 8.952 -0.163 12.762 -7.745 -2.637 -13.64 -3.926 -22.02 -5.953 l -10.483 6.965 c -5.765 3.831 -10.917 6.936 -11.447 6.901 -0.531 -0.035 -4.221 -1.087 -8.2 -2.337 z" fill="#ff4500"/></svg>