<svg xmlns="http://www.w3.org/2000/svg" viewBox="0 0 256 256"><g fill="#ffb6c1" color="#000"><path d="m -461.56 1509.46 c -102.66 -72.48 -252.13 71.24 -188.42 177.65 55.11 98.31 215.88 55.803 236.4 -48.33 13.01 -47.39 -5.347 -103.13 -47.986 -129.32 z" transform="matrix(0.82954 -0.51864 -0.48472 -0.90916 1357.92 1320.6)" fill-opacity="0.996"/></g><path d="m 165.57 204.06 c 0.901 -1.244 3.895 -5.223 6.653 -8.842 6.13 -8.04 10.02 -15.304 12.567 -23.442 2.787 -12.408 2.878 -24.603 -0.446 -35.78 -3.046 -10.132 -9.221 -22.323 -16.04 -31.667 -3.137 -4.298 -5.429 -7.92 -5.095 -8.05 1.193 -0.464 9.599 3.147 15.902 6.832 12.408 7.252 22.796 19.19 28.693 32.97 3.582 10.595 4.578 20.84 0.556 30.576 -6.507 15.569 -23.391 31.724 -40 38.28 -4.606 1.817 -4.712 1.784 -2.786 -0.873 z" fill="#e5569a"/><path d="m 109.77 208.77 c -10.742 -2.807 -21.21 -8.17 -28.15 -14.43 -4.122 -3.714 -4.453 -5.717 -0.824 -4.993 7.404 1.477 18.532 2.306 24.972 1.86 9.589 -0.664 15.797 -2.324 25.17 -6.73 17.561 -8.259 29.51 -20.03 40.24 -39.627 2.04 -3.726 4.02 -6.966 4.399 -7.199 1.311 -0.808 2.715 11.34 2.233 19.317 -1.598 26.427 -17.764 47.573 -39.953 52.26 -7.92 1.674 -20.717 1.464 -28.08 -0.46 z" fill="#2fb7e9"/><path d="m 82.38 179.77 c -8.04 -2.906 -12.993 -6.06 -19.07 -12.171 -6.119 -6.147 -11.226 -15.364 -13.635 -24.609 -2.216 -8.502 -1.777 -31.26 0.602 -31.26 0.421 0 2.486 3.424 4.589 7.608 11.32 22.53 23.96 34.11 44.852 41.1 7.732 2.587 8.08 2.625 26.597 2.931 10.319 0.171 18.762 0.632 18.762 1.026 0 1.883 -17.19 11.396 -26.91 14.895 -12.1 2.203 -24.782 4.403 -35.785 0.471 z" fill="#148e99"/><path d="m 94.71 144.97 c -14.27 -6.815 -28.06 -18.538 -34.745 -29.542 -5.295 -8.713 -6.637 -14.14 -6.309 -25.533 c 0.273 -9.501 0.412 -10.17 3.324 -16.05 3.399 -6.858 10.05 -14.65 17.04 -19.981 5.94 -4.525 16.305 -10.643 17.406 -10.273 0.465 0.156 -1.387 4.969 -4.115 10.696 -7.298 15.322 -8.303 18.636 -8.815 29.08 -0.982 20.03 3.191 33.28 17.295 54.917 3.181 4.879 5.617 9.04 5.415 9.239 -0.203 0.202 -3.128 -0.95 -6.5 -2.56 z" fill="#6dba50"/><path d="m 93.27 116.1 c -2.627 -6.656 -3.737 -13.435 -3.745 -22.871 -0.41 -13.541 5.22 -26.24 13.238 -34.988 5.302 -5.712 12.949 -10.725 20.18 -13.229 6.779 -2.348 19.808 -2.513 28.319 -0.358 5.568 1.409 17.633 6.534 21.824 9.269 1.936 1.264 1.956 1.355 0.412 1.957 -0.89 0.347 -4.083 0.657 -7.094 0.689 -31.9 0.337 -59.55 22.09 -69.21 54.45 -2.194 7.348 -2.741 8.06 -3.918 5.077 z" fill="#ec7549"/><path d="m 208.6 123.87 c -11.1 -20.981 -20.644 -30.26 -37.09 -36.07 -12.99 -4.585 -27.688 -5.084 -44.26 -1.503 -4.306 0.931 -8.227 1.56 -8.712 1.399 -1.733 -0.576 12.145 -11.418 18.7 -14.608 10.544 -5.133 17.258 -6.703 30.761 -7.195 7.611 -1.021 11.325 -0.661 17.84 2.551 13.386 6.598 23.637 22.615 25.935 40.521 1.395 10.868 1.979 21.687 1.17 21.687 -0.414 0 -2.369 -3.054 -4.343 -6.786 z" fill="#ea545f"/></svg>