<svg xmlns="http://www.w3.org/2000/svg" viewBox="0 0 256 256"><path d="m 189.87 231.11 c -207.59 127.51 -277.89 -279.1 -35.474 -225.28 100.1 22.94 145.43 166.8 35.474 225.28 z" fill="#87cefa" color="#000"/><g transform="matrix(-5.61959 0 0 5.90164 269.01 -12.432)" fill="#ff4500"><path d="m 18 27 c 0 0 -6 -3 -6 -12 4 0 10 3 10 3 z" fill="#0044a5"/><path d="m 19 29 c -2 -1.619 -4 -1 -4 -1 0 0 1 1 2 1 -1 0.607 -2 2 -2 2 0 0 1 0.389 3 0 -1 1 -1 3 -1 3 0 0 1 0 1.539 -1 -0.085 1 0.461 2 0.461 2 0 0 0.919 -1.259 1 -2 0.15 -1.366 -0.028 -3.03 -1 -4 z" fill="#c5a78e"/><path d="m 26 18 c 0 0 4 -6 11 -6 2 7.376 -3 12 -3 12 z" fill="#0044a5"/><g fill="#fff"><path d="m 14 17 c 3 0 7 2 7 2 l -2 6 c 0 0 -5 -2 -5 -8 z"/><path d="m 36 14 c -6 0 -8 5 -8 5 l 4 4 c 0 0 4 -1 4 -9 z"/></g><path d="m 18.575 30 c 0 0 -1.575 -4.3 -1.575 -6 0 -3 2.49 -7 7 -7 7 0 10 3.378 10 7 0 4.243 -9 9 -9 9 z" fill="#0044a5"/><g fill="#fff"><path d="m 23 30 c 0 0 -1 -3.626 -1 -5 0 -2 1 -4 2 -4 2 0 4 3 4 6 0 3 -2 4 -2 4 z"/><path d="m 19 29 c 0 0 -1 -1.946 -1 -3 0 -1 0 -4 2 -4 1 0 1 3 1 4 v 3 z"/></g><ellipse ry="2" rx="1" cy="27" cx="20" fill="#012538"/><path d="m 18 30 c 0 -1 1 -2 3 -2 2 0 3.215 2.186 5 2 1.195 -0.124 3 -2 3 -2 h 1 c 1 -2 7 -3 7 -3 0 0 -1 2 -3 3 2 0 4 2 4 2 0 0 -1 1 -4 1 2 0 2 3 2 3 0 0 -3 -1 -4 -2 2 2 1 4 1 4 0 0 -2 -1 -3 -2 0 0 -2.626 1 -4 1 -6 0 -8 -4 -8 -5 z" fill="#c5a78e"/><g><ellipse ry="2.5" rx="1.5" cy="27.5" cx="25.5" fill="#012538"/><ellipse ry="0.5" rx="1" cy="29.5" cx="19" transform="matrix(1 0 0 1.34649 0 -10.05)" fill="#000"/><path d="m 22.2 31.855 l 2.349 0.379 c 0 0 0 1.805 1.175 1.805 2.349 0 2.349 -3.277 2.349 -3.277 0 0 -2.349 1.092 -3.524 1.092 h -2.349 z"/></g></g></svg>