<svg xmlns="http://www.w3.org/2000/svg" viewBox="0 0 256 256"><defs><clipPath><g fill="#caf" opacity="0.99" transform="matrix(1.06166 0 0 1.06166 -2.519 -5.309)"><path d="M 44.32 27.405 A 19.73 19.73 0 0 1 24.592 47.13 19.73 19.73 0 0 1 4.863 27.405 19.73 19.73 0 0 1 24.592 7.675 19.73 19.73 0 0 1 44.32 27.405"/><path d="M 44.32 27.405 A 19.73 19.73 0 0 1 24.592 47.13 19.73 19.73 0 0 1 4.863 27.405 19.73 19.73 0 0 1 24.592 7.675 19.73 19.73 0 0 1 44.32 27.405"/></g></clipPath><clipPath><circle fill-opacity="0.191" fill-rule="evenodd" fill="#1c5266" cx="204.32" cy="222.68" r="225"/></clipPath><clipPath><circle fill-opacity="0.191" fill-rule="evenodd" fill="#1c5266" cx="204.32" cy="222.68" r="225"/></clipPath><clipPath><path d="m 38.524 20.232 v 31.01 h 3.597 v -31.01 m -27.996 0.77 v 31.01 h 3.597 v -31.01 m -11.73 0.257 v 31.01 h 3.599 v -31.01 m 20.8 1.371 v 31.01 h 3.597 v -31.01 m -23.928 1.626 v 31.01 h 3.597 v -31.01 m 20.8 0.086 v 31.01 h 3.599 v -31.01 m -36.13 1.456 v 31.01 h 3.597 v -31.01 m 12.668 0.086 v 31.01 h 3.597 v -31.01 m 20.801 0 v 31.01 h 3.597 v -31.01 m -19.862 2.228 v 31.01 h 3.597 v -31.01 m -7.663 2.655 v 31.01 h 3.597 v -31.01"/></clipPath><clipPath><path d="m 643 152.5 a 103.5 103.5 0 1 1 -207 0 103.5 103.5 0 1 1 207 0 z" transform="translate(-412 -17)"/></clipPath><clipPath><g fill="#126136" opacity="0.99"><path transform="matrix(1.15035 0 0 1.15035 -4.486 -7.526)" d="M 44.32 27.405 A 19.73 19.73 0 0 1 24.592 47.13 19.73 19.73 0 0 1 4.863 27.405 19.73 19.73 0 0 1 24.592 7.675 19.73 19.73 0 0 1 44.32 27.405"/></g></clipPath></defs><path d="m 190.25 234.93 c -329.42 134.84 -174.65 -432.28 40.478 -156.9 37.47 49.41 40.36 132.37 -40.478 156.9 z" fill="#336b78" fill-opacity="0.992" color="#000"/><g transform="matrix(3.63268 0 0 3.83061 34.955 41.499)"><g stroke-opacity="0.996" fill="#f7f7f7" stroke="#a2bac0" fill-opacity="0.557" color="#000" stroke-width="0.724"><path d="m 11.845 10.7 c -0.582 -0.057 -0.27 0.63 -0.348 0.985 -0.006 5.01 0.011 10.01 -0.009 15.02 -0.09 0.476 -0.649 0.387 -0.988 0.296 -2.117 -0.187 -4.475 1.28 -4.777 3.494 -0.316 1.669 1.381 3.104 2.959 2.944 2.172 -0.124 3.918 -2.325 3.627 -4.484 0.005 -4.048 -0.01 -8.097 0.008 -12.144 0.074 -0.444 0.648 -0.47 0.916 -0.183 1.997 1.147 3.792 3.059 3.951 5.473 0.087 0.478 -0.066 1.658 -0.032 1.68 0.699 -2.61 -0.022 -5.604 -2.01 -7.462 -1.431 -1.524 -2.693 -3.513 -2.936 -5.559 -0.117 -0.037 -0.235 -0.075 -0.361 -0.059 z"/><path d="m 37.04 14.746 c -0.582 -0.057 -0.27 0.63 -0.348 0.985 -0.006 5.01 0.011 10.01 -0.009 15.02 -0.09 0.476 -0.649 0.387 -0.988 0.296 -2.117 -0.187 -4.475 1.28 -4.777 3.494 -0.316 1.669 1.381 3.104 2.959 2.944 2.172 -0.124 3.918 -2.325 3.627 -4.484 0.005 -4.048 -0.01 -8.097 0.008 -12.144 0.074 -0.444 0.648 -0.47 0.916 -0.183 1.997 1.147 3.792 3.059 3.951 5.473 0.087 0.478 -0.066 1.658 -0.032 1.68 0.699 -2.61 -0.022 -5.604 -2.01 -7.462 -1.431 -1.524 -2.693 -3.513 -2.936 -5.559 -0.117 -0.037 -0.235 -0.075 -0.361 -0.059 z"/></g><path d="m 22.869 8.777 l -5.289 3.988 l 4.469 4.805 l 0.273 -2.931 c 3.677 0.347 6.311 2.36 7.585 6.544 0.474 -5.089 -1.338 -7.512 -7.312 -9.475 z m -6.654 18.643 c -0.474 5.089 1.338 7.512 7.312 9.475 l -0.273 2.931 l 5.289 -3.988 l -4.469 -4.805 l -0.273 2.931 c -3.677 -0.347 -6.311 -2.36 -7.585 -6.544 z" fill="#fff"/></g></svg>