<svg xmlns="http://www.w3.org/2000/svg" xmlns:xlink="http://www.w3.org/1999/xlink" viewBox="0 0 256 256"><defs><path opacity="0.561" fill="#eeeeec" d="m 41.12 16.348 c 0 0.986 -0.8 1.786 -1.786 1.786 c -0.986 0 -1.786 -0.8 -1.786 -1.786 c 0 -0.986 0.8 -1.786 1.786 -1.786 c 0.986 0 1.786 0.8 1.786 1.786 z" id="E"/><path d="m 10.733 9.653 c 0 1.072 -0.46 1.941 -1.026 1.941 c -0.566 0 -1.026 -0.87 -1.026 -1.941 c 0 -1.072 0.46 -1.941 1.026 -1.941 c 0.566 0 1.026 0.87 1.026 1.941 z" id="F"/><path d="m 21.781 10.983 c 0 5.506 -4.469 9.975 -9.975 9.975 c -5.506 0 -9.975 -4.469 -9.975 -9.975 c 0 -5.506 4.469 -9.975 9.975 -9.975 c 5.506 0 9.975 4.469 9.975 9.975 z" id="G"/><path d="m 6.087 8.5 l -1.535 13.02 c 5.209 -0.017 8.93 -1.01 10.561 -3.635 l -9.03 -9.386 z" id="H"/><linearGradient gradientUnits="userSpaceOnUse" y2="20.844" x2="10.429" y1="3.835" x1="3.167" id="8" xlink:href="#6"/><linearGradient id="6"><stop stop-color="#fff"/><stop stop-opacity="0" stop-color="#fff" offset="1"/></linearGradient><linearGradient gradientUnits="userSpaceOnUse" x2="29.855" x1="34.375" id="9"><stop stop-color="#ce5c00"/><stop stop-color="#a04800" offset="1"/></linearGradient><linearGradient gradientUnits="userSpaceOnUse" y2="18.338" x2="21.14" y1="8.999" x1="17.16" id="B" xlink:href="#5"/><linearGradient gradientUnits="userSpaceOnUse" y2="32.565" x2="10.995" y1="33.01" x1="13.714" id="C"><stop stop-color="#ce5c00"/><stop stop-color="#a04900" offset="1"/></linearGradient><linearGradient gradientUnits="userSpaceOnUse" y2="19.11" x2="21.466" y1="13.929" x1="21.356" id="A"><stop stop-color="#cc6400"/><stop stop-color="#a04800" offset="1"/></linearGradient><linearGradient y2="35.32" x2="17.915" y1="27.419" x1="14.219" gradientUnits="userSpaceOnUse" id="7" xlink:href="#4"/><linearGradient gradientTransform="matrix(-0.70472 0.0838 0.08338 0.70833 33.583 2.279)" y2="22.04" x2="35.551" y1="0.507" x1="35.499" gradientUnits="userSpaceOnUse" id="D" xlink:href="#6"/><linearGradient gradientUnits="userSpaceOnUse" y2="22.04" x2="35.551" y1="0.507" x1="35.499" id="3" xlink:href="#6"/><linearGradient gradientUnits="userSpaceOnUse" y2="20.713" x2="18.19" y1="8.174" x1="7.818" id="2" xlink:href="#4"/><linearGradient id="5"><stop stop-color="#eeeeec"/><stop stop-opacity="0" stop-color="#eeeeec" offset="1"/></linearGradient><linearGradient id="4"><stop stop-color="#cc6400"/><stop stop-color="#9c4600" offset="1"/></linearGradient><radialGradient gradientTransform="matrix(-0.9327 0.93266 -0.94749 -0.94745 33.02 11.967)" gradientUnits="userSpaceOnUse" r="9.975" cy="14.473" cx="9.954" id="0" xlink:href="#5"/><radialGradient r="9.975" cy="14.473" cx="9.954" gradientTransform="matrix(0.76304 0.76691 0.77515 -0.77908 -5.082 28.04)" gradientUnits="userSpaceOnUse" id="1" xlink:href="#5"/></defs><path d="m 138.75 254.22 c -152.08 14.54 -193.02 -230.68 -36.856 -249.72 c 143.59 -23.602 217.54 198.67 74.864 243.12 -12.06 4.871 -25.25 4.777 -38.01 6.594 z" fill="#ff0" color="#000"/><g transform="matrix(3.33246 0 0 3.34558 43.61 48.65)"><path d="m 20,8.5 c -3.587,0 -6.5,2.913 -6.5,6.5 0,0.214 0.011,0.417 0.031,0.625 C 12.389,13.759 10.346,12.5 8,12.5 c -3.587,0 -6.5,2.913 -6.5,6.5 0,3.587 2.913,6.5 6.5,6.5 0.886,0 1.73,-0.178 2.5,-0.5 0,3.587 2.913,6.5 6.5,6.5 2.616,0 4.876,-1.552 5.906,-3.781 0.921,0.5 1.973,0.781 3.094,0.781 2.701,0 5.02,-1.653 6,-4 1.01,0 1.962,-0.216 2.813,-0.625 1.185,1.585 3.058,2.625 5.188,2.625 3.587,0 6.5,-2.913 6.5,-6.5 0,-3.587 -2.913,-6.5 -6.5,-6.5 -1.01,0 -1.962,0.216 -2.813,0.625 C 36.003,12.54 34.13,11.5 32,11.5 c -2.337,0 -4.386,1.24 -5.531,3.094 C 26.255,11.199 23.449,8.5 20,8.5 z" fill="#edde60" stroke="url(#A)"/><path d="m 20,9.5 c -3.054,0 -5.5,2.446 -5.5,5.5 0,0.179 -0.018,0.35 0,0.531 0.029,0.448 -0.249,0.859 -0.676,0.999 C 13.397,16.67 12.93,16.503 12.688,16.125 11.715,14.537 9.995,13.5 8,13.5 c -3.054,0 -5.5,2.446 -5.5,5.5 0,3.054 2.446,5.5 5.5,5.5 0.754,0 1.471,-0.133 2.125,-0.406 0.305,-0.131 0.655,-0.101 0.932,0.082 0.277,0.183 0.444,0.492 0.443,0.824 0,3.054 2.446,5.5 5.5,5.5 2.226,0 4.127,-1.298 5,-3.188 0.111,-0.253 0.323,-0.448 0.584,-0.537 0.261,-0.089 0.548,-0.064 0.791,0.068 0.78,0.424 1.668,0.656 2.625,0.656 2.299,0 4.263,-1.386 5.094,-3.375 0.147,-0.373 0.505,-0.621 0.906,-0.625 0.866,0 1.662,-0.157 2.375,-0.5 0.421,-0.209 0.932,-0.092 1.219,0.281 1.011,1.352 2.597,2.219 4.406,2.219 3.054,0 5.5,-2.446 5.5,-5.5 0,-3.054 -2.446,-5.5 -5.5,-5.5 -0.866,0 -1.662,0.157 -2.375,0.5 -0.421,0.209 -0.932,0.092 -1.219,-0.281 -1.011,-1.352 -2.597,-2.219 -4.406,-2.219 -1.989,0 -3.715,1.051 -4.688,2.625 -0.23,0.359 -0.664,0.53 -1.076,0.423 C 25.824,15.44 25.526,15.081 25.5,14.655 25.318,11.767 22.935,9.499 20,9.499 z" opacity="0.659" fill="url(#B)" stroke="#fff"/><path d="m 2.501 27 c 0 5.243 4.255 9.499 9.499 9.499 5.243 0 9.499 -4.255 9.499 -9.499 0 -5.243 -4.255 -9.499 -9.499 -9.499 -5.243 0 -9.499 4.255 -9.499 9.499 z" fill="#edd400" stroke="url(#7)"/><path d="m 4.114 27.23 c 0 4.528 3.656 8.203 8.161 8.203 4.505 0 8.161 -3.675 8.161 -8.203 0 -4.528 -3.656 -8.203 -8.161 -8.203 -4.505 0 -8.161 3.675 -8.161 8.203 z" opacity="0.795" fill="url(#1)"/><path d="m 3.5 27 c 0 4.692 3.808 8.5 8.5 8.5 4.692 0 8.5 -3.808 8.5 -8.5 0 -4.692 -3.808 -8.5 -8.5 -8.5 -4.692 0 -8.5 3.808 -8.5 8.5 z" opacity="0.64" fill="none" stroke="#fff"/><path d="m 8 30.06 c 0.574 1.629 2.97 3.942 5.321 3.942 2.351 0 3.886 -2.313 4.46 -3.942 -1.031 1.055 -2.841 2.171 -4.891 2.171 -2.05 0 -3.86 -1.117 -4.891 -2.171 z" fill="url(#C)"/><g fill="none"><path d="m 13.5 21.683 c 0.843 -1.402 2.343 -1.584 3.347 -0.407 0.297 0.348 0.499 0.727 0.653 1.224" stroke="#ce5c00"/><path d="m 6.727,10.5 7.377,7.652 c -0.71,0.885 -1.678,1.589 -3.108,2.053 -1.457,0.472 -3.349,0.681 -5.495,0.743 L 6.728,10.5 z" stroke="url(#D)"/></g><use xlink:href="#H" width="1" height="1" fill="#729fcf"/><g fill="#eeeeec"><path d="m 6.376 9.351 c 0 0 2.223 9.407 4.41 11.684 0 0 -3.924 -0.01 -5.886 0.417 0 0 1.476 -12.1 1.476 -12.1 z" opacity="0.224"/><path d="m 9 14 c 0 0.552 0.448 1 1 1 0.552 0 1 -0.448 1 -1 0 -0.552 -0.448 -1 -1 -1 -0.552 0 -1 0.448 -1 1 z" opacity="0.561"/><path d="M 10,17.5 C 10,18.328 10.672,19 11.5,19 12.328,19 13,18.328 13,17.5 13,16.672 12.328,16 11.5,16 10.672,16 10,16.672 10,17.5 z" opacity="0.561"/><path d="m 6 17 c 0 0.552 0.448 1 1 1 0.552 0 1 -0.448 1 -1 0 -0.552 -0.448 -1 -1 -1 -0.552 0 -1 0.448 -1 1 z" opacity="0.561"/></g><use xlink:href="#G" transform="matrix(1.3031 0 0 1.3031 18.12 17.188)" width="1" height="1" fill="#edd400" stroke="url(#2)" stroke-width="0.769"/><use xlink:href="#G" transform="matrix(1.15285 0 0 1.15285 19.889 18.838)" width="1" height="1" opacity="0.795" fill="url(#0)"/><use xlink:href="#G" transform="matrix(1.20298 0 0 1.20298 19.297 18.288)" width="1" height="1" opacity="0.64" fill="none" stroke="#fff" stroke-width="0.831"/><g fill="#eeeeec" stroke="#fea523"><path d="m 30.5 29 c 0 1.932 -1.344 3.5 -3 3.5 -1.656 0 -3 -1.568 -3 -3.5 0 -1.932 1.344 -3.5 3 -3.5 1.656 0 3 1.568 3 3.5 z"/><use xlink:href="#F" transform="matrix(2.92416 0 0 1.80283 7.115 11.598)" width="1" height="1" stroke-width="0.436"/></g><path d="m 38.783 34 c -0.808 2.284 -1.48 5.964 -4.793 5.964 -3.313 0 -8.181 -3.681 -8.99 -5.964 1.452 1.479 4 3.044 6.892 3.044 2.888 0 5.439 -1.566 6.892 -3.044 z" fill="url(#9)"/><path d="M 42.22,5.245 44.383,23.5 C 37.043,23.476 31.799,22.083 29.501,18.404 L 42.22,5.245 z" fill="#ad7fa8"/><path id="I" d="M 7.213,8.487 C 7.5,7.616 8.231,7.239 8.845,7.646 9.027,7.766 9.164,7.92 9.288,8.143" transform="matrix(-2.80356 0.69893 0.5297 1.83928 46.23 3.03)" fill="none" stroke="#ce5c00" stroke-width="0.425"/><path d="M 16,2 17,0.914 19.433,0.435 18.075,1.907 15.998,2.001 z" fill="#ef2929"/><path d="m 3,44 1.543,1.502 2.4,0.556 L 4.852,44.023 2.999,44 z" fill="#fcaf3e"/><path d="M 10,42.587 12.137,41.592 13.185,40.001 10.29,41.349 10,42.587 z" fill="#edd400"/><path d="m 35.979,3 h 1.79 L 39,4 H 36.575 L 35.979,3 z" fill="#729fcf"/><path d="M 16.494,46 17.791,44.785 18,43.219 16.243,44.865 16.494,46 z" fill="#ad7fa8"/><path d="M 47,13 46.268,11.395 44.939,10.673 45.931,12.848 47,13 z" fill="#73d216"/><path d="m 30.14,6.398 -1.58,-0.842 -1.557,0.303 2.14,1.14 0.997,-0.602 z" fill="#edd400"/><path d="m 38.938,7 -9.06,11.875 c 1.139,1.115 2.61,1.935 4.688,2.344 2.117,0.416 4.799,0.394 7.813,0.125 L 38.941,7 z" transform="matrix(0.99307 0.11749 -0.11749 0.99307 3.561 -3.86)" fill="#ad7fa8" stroke="url(#3)"/><path d="m 41.813,6.438 -11.625,12 c 1.084,1.536 3.517,3.178 6.281,3.777 0,0 0.835,-8.5 5.344,-15.777 z" opacity="0.224" fill="#eeeeec"/><use xlink:href="#E" transform="matrix(0.84 0 0 0.84 6.463 4.767)" width="1" height="1"/><use xlink:href="#E" transform="matrix(0.84 0 0 0.84 4.463 -1.233)" width="1" height="1"/><use xlink:href="#E" transform="matrix(1.12 0 0 1.12 -10.05 -0.31)" width="1" height="1"/><use xlink:href="#E" transform="matrix(0.84 0 0 0.84 8.463 8.767)" width="1" height="1"/><use xlink:href="#E" transform="matrix(0.84 0 0 0.84 8.463 0.767)" width="1" height="1"/><g fill="#2e3436"><use xlink:href="#F" transform="matrix(1.47578 0 0 1.03019 12.189 18.06)" width="1" height="1"/><use xlink:href="#F" transform="matrix(1.46208 0 0 1.03019 20.308 18.06)" width="1" height="1"/></g><path d="M 6.875,10.813 5.75,20.344 c 1.935,-0.084 3.802,-0.192 5.125,-0.625 1.298,-0.425 2.173,-1.057 2.844,-1.813 L 6.875,10.812 z" fill="none" stroke="url(#8)"/><g fill="#eeeeec" stroke="#fea523"><path d="m 17.5 26.06 c 0 1.38 -1.12 2.5 -2.5 2.5 -1.38 0 -2.5 -1.12 -2.5 -2.5 0 -1.38 1.12 -2.5 2.5 -2.5 1.38 0 2.5 1.12 2.5 2.5 z"/><path d="m 12.5 26.06 c 0 1.38 -1.12 2.5 -2.5 2.5 -1.38 0 -2.5 -1.12 -2.5 -2.5 0 -1.38 1.12 -2.5 2.5 -2.5 1.38 0 2.5 1.12 2.5 2.5 z"/></g><g fill="#2e3436"><path d="m 17 26.558 c 0 0.828 -0.454 1.5 -1.014 1.5 -0.56 0 -1.014 -0.672 -1.014 -1.5 0 -0.828 0.454 -1.5 1.014 -1.5 0.56 0 1.014 0.672 1.014 1.5 z"/><path d="m 12 26.558 c 0 0.828 -0.454 1.5 -1.014 1.5 -0.56 0 -1.014 -0.672 -1.014 -1.5 0 -0.828 0.454 -1.5 1.014 -1.5 0.56 0 1.014 0.672 1.014 1.5 z"/></g><g fill="none"><use xlink:href="#H" width="1" height="1" stroke="#3465a4"/><path d="M 42.22,5.245 44.383,23.5 C 37.98,23.074 31.799,22.083 29.501,18.404 L 42.22,5.245 z" stroke="#5c3566"/></g><use xlink:href="#I" transform="matrix(-1 0 0 1 64 0)" width="1" height="1"/><g fill="none"><use xlink:href="#H" width="1" height="1" stroke="#3465a4"/><path d="M 11.5,21.683 C 10.446,20.281 8.572,20.099 7.317,21.276 6.946,21.624 6.693,22.003 6.5,22.5" stroke="#ce5c00"/></g></g></svg>