<svg xmlns="http://www.w3.org/2000/svg" viewBox="0 0 256 256"><path d="m 138.75 254.22 c -152.08 14.54 -193.02 -230.68 -36.856 -249.72 c 143.59 -23.602 217.54 198.67 74.864 243.12 -12.06 4.871 -25.25 4.777 -38.01 6.594 z" fill="#233d70" color="#000"/><path d="m 111.89 213.77 c -50.35 -9.418 -80.45 -60.19 -64.36 -108.57 9.06 -27.23 32.751 -48.1 61.797 -54.45 c 7.942 -1.735 23.57 -2.033 31.587 -0.603 11.279 2.01 22.369 6.474 32.515 13.08 6.65 4.332 18.01 15.539 22.335 22.03 6.947 10.433 12 23.13 13.632 34.24 1.297 8.836 0.521 24.722 -1.6 32.793 -7.836 29.81 -30.575 52.44 -60.55 60.26 -5.604 1.462 -8.538 1.779 -18.31 1.981 -8.324 0.172 -13.177 -0.048 -17.05 -0.771 z m 25.701 -28.495 c 20.03 -4.218 35.415 -18.398 41.764 -38.489 1.39 -4.399 1.602 -6.438 1.584 -15.279 -0.02 -9.725 -0.125 -10.503 -2.26 -16.663 -3.181 -9.181 -6.863 -15.01 -13.741 -21.764 -6.566 -6.446 -12.891 -10.359 -21.627 -13.38 -5.128 -1.774 -6.194 -1.895 -16.771 -1.903 -10.919 -0.008 -11.493 0.062 -17.27 2.11 -18.788 6.663 -32.551 21.894 -36.457 40.34 -1.481 6.997 -1.327 17.478 0.362 24.519 4.861 20.268 22.23 36.669 43.15 40.747 4.799 0.935 16.297 0.805 21.266 -0.242 z m -45.04 -28.915 c -3.077 -0.728 -6.357 -2.775 -8.03 -5.01 -1.205 -1.608 -1.42 -2.776 -1.315 -7.141 0.225 -9.335 4.313 -24.625 9.155 -34.24 3.721 -7.389 0.107 -6.685 34.29 -6.685 h 30.01 l 2.032 2.787 c 1.118 1.533 3.277 5.95 4.798 9.816 5.927 15.06 8.247 31.2 5.097 35.456 -2.288 3.087 -6.477 5.01 -11.877 5.465 -5.728 0.477 -6.188 0.196 -9.07 -5.535 -1.14 -2.267 -2.825 -5.116 -3.744 -6.332 l -1.671 -2.21 h -15.603 c -17.687 0 -16.311 -0.43 -19.578 6.121 -1.026 2.057 -2.617 4.735 -3.535 5.951 -1.526 2.02 -1.976 2.204 -5.228 2.141 -1.957 -0.038 -4.532 -0.3 -5.722 -0.582 z m 18.13 -29.751 c 3.624 -2.667 5.06 -5.604 4.768 -9.755 -0.421 -5.987 -3.9 -9.544 -9.81 -10.03 -4.315 -0.356 -7.879 1.128 -10.08 4.195 -2.321 3.232 -2.168 9.558 0.308 12.783 1.01 1.314 2.857 2.907 4.107 3.541 2.909 1.474 8.203 1.111 10.709 -0.733 z m 43.809 0 c 3.624 -2.667 5.06 -5.604 4.768 -9.755 -0.277 -3.94 -1.467 -6.137 -4.609 -8.509 -1.329 -1 -2.851 -1.322 -6.326 -1.322 -4.148 0 -4.777 0.191 -6.735 2.04 -3.263 3.083 -4.291 5.509 -3.928 9.265 0.369 3.815 2.733 7.297 6.121 9.01 2.909 1.474 8.203 1.111 10.709 -0.733 z" fill="#fff"/></svg>