<svg xmlns="http://www.w3.org/2000/svg" xmlns:xlink="http://www.w3.org/1999/xlink" viewBox="0 0 256 256"><defs><path d="m 245.46 129.52 l -97.89 -96.9 c -5.556 -5.502 -16.222 -11.873 -23.7 -14.16 l -39.518 -12.08 c -7.479 -2.286 -18.1 0.391 -23.599 5.948 l -13.441 13.578 c -5.5 5.559 -14.502 14.653 -20 20.21 l -13.44 13.579 c -5.5 5.558 -8.07 16.206 -5.706 23.658 l 12.483 39.39 c 2.363 7.456 8.843 18.06 14.399 23.556 l 97.89 96.9 c 5.558 5.502 14.605 5.455 20.1 -0.101 l 36.26 -36.63 c 5.504 -5.559 14.503 -14.651 20 -20.21 l 36.26 -36.629 c 5.502 -5.56 5.455 -14.606 -0.101 -20.11 z m -178.09 -50.74 c -7.198 0 -13.03 -5.835 -13.03 -13.03 0 -7.197 5.835 -13.03 13.03 -13.03 7.197 0 13.03 5.835 13.03 13.03 -0.001 7.198 -5.836 13.03 -13.03 13.03 z" id="0"/><use id="1" xlink:href="#0"/><clipPath id="2"><use xlink:href="#0"/></clipPath><clipPath clip-path="url(#2)"><use xlink:href="#1"/></clipPath><clipPath clip-path="url(#2)"><use xlink:href="#1"/></clipPath></defs><path d="m 127.81 255.04 c -169.55 19.278 -167.2 -256.67 3.02 -253.39 158.31 -9.09 172.59 268.43 -3.02 253.39 z" fill="#f00407" color="#000"/><g transform="matrix(2.44733 0 0 2.48199 50.48 51.615)"><path d="m 36.762,11.908 v 28 l 4,-4 4,4 v -28 z" fill="#d8d8d8"/><path d="m 38,5 v 28 l 4,-4 4,4 V 5" opacity="0.2"/><rect rx="3.357" y="4" x="10" height="56" width="44" ry="2.928" fill="#fff"/><path d="m 13,4 c -1.662,0 -3,1.338 -3,3 v 50 c 0,1.662 1.338,3 3,3 h 5 V 4 h -5 z" fill="#ffa07a"/><path transform="matrix(0.1319 0 0 0.11712 17.387 16.1)" d="m 179.57,216.04 c -5.609,11.237 -8.425,16.844 -14.02,19.641 -5.609,5.603 -16.837,5.603 -28.07,5.603 -14.02,0 -22.432,0 -28.04,-5.603 -5.624,-2.797 -8.432,-8.404 -14.03,-19.641 0,0 -2.816,-2.781 -2.816,-5.611 l -11.228,2.83 8.429,28.03 16.827,14.05 c 5.598,14.02 16.835,19.652 30.855,19.652 5.609,0 14.04,-2.836 16.835,-5.63 5.623,-2.816 11.232,-8.415 14.04,-14.02 l 16.826,-14.05 8.425,-28.03 -11.222,-2.83 c -2.815,2.83 -2.815,5.611 -2.815,5.611 z M 210.461,25.26 c -19.664,-16.818 -42.1,-25.27 -72.978,-25.27 -30.855,0 -53.29,8.448 -72.948,25.27 -16.831,14.02 -28.04,36.463 -28.04,61.743 0,22.422 2.787,39.25 8.4,47.7 8.426,14.01 14.04,22.428 14.04,28.03 l 2.797,22.43 39.28,19.663 8.432,16.84 c 2.782,0 5.607,0 11.222,2.797 5.613,0 11.222,0 16.817,0 14.04,0 22.459,-2.797 30.875,-2.797 l 5.603,-16.84 39.29,-19.663 2.796,-22.43 c 2.818,-5.604 2.818,-8.426 2.818,-11.216 14.02,-19.648 19.633,-42.09 19.633,-64.52 -10e-4,-25.279 -8.411,-47.721 -28.04,-61.742 z M 95.411,162.74 c -16.845,0 -22.44,-11.216 -22.44,-28.03 0,-8.451 0,-16.867 5.595,-19.652 2.802,-5.626 8.434,-8.415 16.845,-8.415 16.812,0 25.25,8.415 25.25,25.24 0,19.646 -8.44,30.862 -25.25,30.862 z m 50.51,30.855 c -2.831,0 -5.633,0 -8.44,-2.806 -2.817,2.806 -2.817,2.806 -5.595,2.806 -2.836,0 -5.609,0 -8.425,-2.806 -2.797,0 -2.797,-2.791 -2.797,-5.618 0,-2.776 2.797,-8.387 5.613,-11.198 5.609,-5.621 8.387,-11.232 11.204,-16.837 2.807,5.604 8.44,11.216 11.231,16.837 5.604,2.811 5.604,8.422 5.604,11.198 0,5.618 -2.797,8.424 -8.395,8.424 z m 36.464,-30.855 c -16.837,0 -25.26,-11.216 -25.26,-28.03 0,-16.867 8.426,-28.07 25.26,-28.07 8.409,0 14.02,2.79 16.826,8.415 5.613,2.785 5.613,8.411 5.613,16.821 -0.001,19.648 -8.421,30.864 -22.439,30.864 z" fill="#f00407" opacity="0.85"/></g></svg>