<svg xmlns="http://www.w3.org/2000/svg" xmlns:xlink="http://www.w3.org/1999/xlink" viewBox="0 0 256 256"><defs><path d="m 245.46 129.52 l -97.89 -96.9 c -5.556 -5.502 -16.222 -11.873 -23.7 -14.16 l -39.518 -12.08 c -7.479 -2.286 -18.1 0.391 -23.599 5.948 l -13.441 13.578 c -5.5 5.559 -14.502 14.653 -20 20.21 l -13.44 13.579 c -5.5 5.558 -8.07 16.206 -5.706 23.658 l 12.483 39.39 c 2.363 7.456 8.843 18.06 14.399 23.556 l 97.89 96.9 c 5.558 5.502 14.605 5.455 20.1 -0.101 l 36.26 -36.63 c 5.504 -5.559 14.503 -14.651 20 -20.21 l 36.26 -36.629 c 5.502 -5.56 5.455 -14.606 -0.101 -20.11 z m -178.09 -50.74 c -7.198 0 -13.03 -5.835 -13.03 -13.03 0 -7.197 5.835 -13.03 13.03 -13.03 7.197 0 13.03 5.835 13.03 13.03 -0.001 7.198 -5.836 13.03 -13.03 13.03 z" id="0"/><use id="1" xlink:href="#0"/><clipPath id="2"><use xlink:href="#0"/></clipPath><clipPath clip-path="url(#2)"><use xlink:href="#1"/></clipPath><clipPath clip-path="url(#2)"><use xlink:href="#1"/></clipPath></defs><g fill="#f7d863" color="#000"><path d="m 128.42 795.13 c 168.87 -19.553 166.53 260.33 -3.01 257.01 -157.67 9.224 -171.9 -272.26 3.01 -257.01 z" transform="matrix(0 1 -0.98305 0 1035.6 1.093)"/></g><g transform="matrix(5.80682 0 0 5.5482 -11.29 -3.553)"><path d="m 19 18 c -3 0 -3.781 0.52 -5 1 -2.024 0.798 -4 3 -4 6 0 2.913 1 6 3 7 4.645 2.323 10 -1 12 -1 2 0 7.355 3.323 12 1 2 -1 3 -4.087 3 -7 0 -3 -1.976 -5.202 -4 -6 -1.219 -0.48 -2 -1 -5 -1 -2.86 0 -5.375 1 -6 1 -0.625 0 -3.14 -1 -6 -1 z m 0 4 c 4.03 0 4 2 4 3 0 4 -1.969 4 -5 4 -2.969 0 -4 -1 -4 -3 0 -2 1.025 -4 5 -4 z m 12 0 c 3.975 0 5 2 5 4 0 2 -1.031 3 -4 3 -3.03 0 -5 0 -5 -4 0 -1 -0.025 -3 4 -3 z" opacity="0.909" fill-opacity="0.1"/><path d="m 18 17 c -3 0 -3.781 0.52 -5 1 -2.024 0.798 -4 3 -4 6 0 2.913 1 6 3 7 4.645 2.323 10 -1 12 -1 2 0 7.355 3.323 12 1 2 -1 3 -4.087 3 -7 0 -3 -1.976 -5.202 -4 -6 -1.219 -0.48 -2 -1 -5 -1 -2.86 0 -5.375 1 -6 1 -0.625 0 -3.14 -1 -6 -1 z m 0 4 c 4.03 0 4 2 4 3 0 4 -1.969 4 -5 4 -2.969 0 -4 -1 -4 -3 0 -2 1.025 -4 5 -4 z m 12 0 c 3.975 0 5 2 5 4 0 2 -1.031 3 -4 3 -3.03 0 -5 0 -5 -4 0 -1 -0.025 -3 4 -3 z" opacity="0.909" fill="#cc1517"/></g></svg>