<svg xmlns="http://www.w3.org/2000/svg" viewBox="0 0 256 256"><g fill="#8e3f30" color="#000"><path d="M 205.08,1023.89 C 51.53,1143.02 -107.87,846.34 82.23,802.95 201.95,758.49 318.87,935.6 205.08,1023.89 z" transform="matrix(0 0.99041 0.9873 -0.08804 -783.66 87)"/></g><g transform="matrix(5.12767 0 0 4.85493 4.827 12.294)"><path d="M 13,13 H 35 V 35 H 13 z" fill="#762323"/><path d="m 13 13 v 24 h 24 v -24 z m 1 1 h 22 v 22 h -22 z m 2 2 l 1 1 v 12 l -1 1 h 10 l 1 -3 l -2 1 h -6 v -11 l 1 -1 z m 13 3 c -4.418 0 -8 3.082 -8 7.5 0 0.17 0.015 0.334 0.025 0.5 h 2 c -0.014 -0.165 -0.025 -0.331 -0.025 -0.5 c 0 -3.314 2.686 -6 6 -6 2.01 0 3.888 1.01 5 2.684 v -1.684 c -1 -1.449 -3.182 -2.5 -5 -2.5 z m 5 10.818 c -1.112 1.675 -2.989 2.682 -5 2.682 -1.519 0 -2.902 -0.569 -3.959 -1.5 h -2.525 c 1.453 1.868 3.813 3 6.484 3 1.818 0 4 -0.938 5 -2.5 z" opacity="0.098"/><path d="m 12 12 v 24 h 24 v -24 h -24 z m 1 1 h 22 v 22 h -22 v -22 z m 2 2 l 1 1 v 12 l -1 1 h 10 l 1 -3 l -2 1 h -6 v -11 l 1 -1 h -4 z m 13 3 c -4.418 0 -8 3.082 -8 7.5 0 0.17 0.015 0.334 0.025 0.5 h 2 c -0.014 -0.165 -0.025 -0.331 -0.025 -0.5 c 0 -3.314 2.686 -6 6 -6 2.01 0 3.888 1.01 5 2.684 v -1.684 c -1 -1.449 -3.182 -2.5 -5 -2.5 z m 5 10.818 c -1.112 1.675 -2.989 2.682 -5 2.682 -1.519 0 -2.902 -0.569 -3.959 -1.5 h -2.525 c 1.453 1.868 3.813 3 6.484 3 1.818 0 4 -0.938 5 -2.5 v -1.682 z" fill="#ffe033"/></g></svg>