<svg xmlns="http://www.w3.org/2000/svg" viewBox="0 0 256 256"><path d="m 128.53 254.73 c -170.6 19.285 -168.23 -256.77 3.035 -253.49 c 159.28 -9.1 173.66 268.53 -3.035 253.49" fill="#008b8b"/><g fill="#fff"><path d="m 201.55 202.35 v -11.11 h -145.47 v 11.11"/><path d="m 201.61 218.27 v -26.26 h -11.11 v 26.26"/><path d="m 128.31 211.95 v -19.19 h -14.14 v 19.19"/><path d="m 153.57 210.94 v -19.19 h -14.14 v 19.19"/><path d="m 84.37 167 v -70.71 h -19.19 v 70.71"/><path d="m 175.28 192.25 v -130.31 h -91.92 v 130.31"/></g><g fill="#008b8b"><path d="m 157.18 130.92 v -54.55 h -27.27 v 54.55"/><path d="m 111.99 161.71 c -4.188 1.527 -6.352 6.16 -4.828 10.352 c 1.523 4.191 6.156 6.359 10.352 4.836 c 4.191 -1.52 6.363 -6.148 4.844 -10.344 c -1.516 -4.195 -6.145 -6.367 -10.34 -4.855"/><path d="m 135.22 161.71 c -4.191 1.527 -6.352 6.16 -4.828 10.352 c 1.523 4.191 6.156 6.359 10.352 4.836 c 4.191 -1.52 6.359 -6.148 4.844 -10.344 c -1.516 -4.195 -6.145 -6.367 -10.34 -4.855"/><path d="m 156.43 161.71 c -4.191 1.527 -6.348 6.168 -4.82 10.359 c 1.527 4.184 6.152 6.344 10.34 4.828 c 4.195 -1.516 6.363 -6.145 4.852 -10.34 c -1.516 -4.195 -6.145 -6.371 -10.34 -4.859"/><path d="m 84.45 159.2 v -8.08 h -17.17 v 8.08"/><path d="m 84.92 147.08 v -8.08 h -17.17 v 8.08"/><path d="m 84.64 134.31 v -8.08 h -17.17 v 8.08"/><path d="m 84.92 122.35 v -8.08 h -17.17 v 8.08"/><path d="m 84.92 111.76 v -8.08 h -17.17 v 8.08"/><path d="m 122.69 87.03 v -8.08 h -9.566 v 8.08"/><path d="m 122.96 101.7 v -8.08 h -9.566 v 8.08"/><path d="m 107.74 118.82 v -39.602 h -9.563 v 39.602"/><path d="m 162.63 124.53 v -4.82 h -5.484 v 4.82"/><path d="m 162.36 114.47 v -4.82 h -5.488 v 4.82"/><path d="m 162.63 104.15 v -4.82 h -5.484 v 4.82"/><path d="m 162.91 94.36 v -4.82 h -5.488 v 4.82"/><path d="m 162.91 84.58 v -4.816 h -5.488 v 4.816"/><path d="m 130.84 84.58 v -4.816 h -5.488 v 4.816"/><path d="m 130.84 94.09 v -4.82 h -5.488 v 4.82"/><path d="m 131.11 104.15 v -4.82 h -5.488 v 4.82"/><path d="m 131.11 113.93 v -4.82 h -5.488 v 4.82"/><path d="m 131.38 124.53 v -4.82 h -5.484 v 4.82"/><path d="m 122.69 149.8 v -20.313 h -20.434 v 20.313"/><path d="m 162.36 149.53 v -8.08 h -9.563 v 8.08"/><path d="m 147.42 149.8 v -8.08 h -9.566 v 8.08"/></g></svg>