<svg xmlns="http://www.w3.org/2000/svg" xmlns:xlink="http://www.w3.org/1999/xlink" viewBox="0 0 256 256"><defs><path d="m 245.46 129.52 l -97.89 -96.9 c -5.556 -5.502 -16.222 -11.873 -23.7 -14.16 l -39.518 -12.08 c -7.479 -2.286 -18.1 0.391 -23.599 5.948 l -13.441 13.578 c -5.5 5.559 -14.502 14.653 -20 20.21 l -13.44 13.579 c -5.5 5.558 -8.07 16.206 -5.706 23.658 l 12.483 39.39 c 2.363 7.456 8.843 18.06 14.399 23.556 l 97.89 96.9 c 5.558 5.502 14.605 5.455 20.1 -0.101 l 36.26 -36.63 c 5.504 -5.559 14.503 -14.651 20 -20.21 l 36.26 -36.629 c 5.502 -5.56 5.455 -14.606 -0.101 -20.11 z m -178.09 -50.74 c -7.198 0 -13.03 -5.835 -13.03 -13.03 0 -7.197 5.835 -13.03 13.03 -13.03 7.197 0 13.03 5.835 13.03 13.03 -0.001 7.198 -5.836 13.03 -13.03 13.03 z" id="0"/><use id="1" xlink:href="#0"/><clipPath clip-path="url(#2)"><use xlink:href="#1"/></clipPath><clipPath><path d="M1240 1824c38,0 70,-32 70,-70 0,-38 -32,-70 -70,-70 -38,0 -70,32 -70,70 0,38 32,70 70,70z"/></clipPath><clipPath clip-path="url(#2)"><use xlink:href="#1"/></clipPath><clipPath id="2"><use xlink:href="#0"/></clipPath><linearGradient y2="2048" x2="1051" y1="1774" x1="1805" gradientUnits="userSpaceOnUse" id="7"><stop stop-color="#333"/><stop stop-color="#999" offset="0.49"/><stop stop-color="#fff" offset="1"/></linearGradient><linearGradient y2="589" x2="0" y1="2919" gradientUnits="userSpaceOnUse" id="6"><stop stop-color="#666"/><stop stop-color="#e5e5e5" offset="1"/></linearGradient><linearGradient y2="1482" x2="1652" y1="2349" x1="1151" gradientUnits="userSpaceOnUse" id="5"><stop stop-color="#333"/><stop stop-color="#343434" offset="0.259"/><stop stop-color="#e5e5e5" offset="1"/></linearGradient><linearGradient y2="2717" x2="0" y1="791" xlink:href="#6" gradientUnits="userSpaceOnUse" id="4"/><linearGradient y2="2972" x2="0" y1="536" gradientUnits="userSpaceOnUse" id="3"><stop stop-color="#e5e5e5"/><stop stop-color="#4c4c4c" offset="1"/></linearGradient><linearGradient xlink:href="#6" id="8" gradientUnits="userSpaceOnUse" y1="2919" x2="0" y2="589"/></defs><g fill="#ffd700" color="#000"><path d="M 212.32,840.15 C 342.21,945 152.05,1134.27 37.11,1013.36 -78.08,909.3 101.7,707.34 212.32,840.15 z" transform="matrix(1 0 0 0.99016 0 -786.6)"/></g><g transform="matrix(0.07284 0 0 0.07286 37.475 1.879)" fill-rule="evenodd"><circle r="1218" cy="1754" cx="1240" fill="url(#3)"/><circle r="1165" cy="1754" cx="1240" fill="url(#8)"/><path d="m 1240 791 c 530 0 963 433 963 963 0 530 -433 963 -963 963 -530 0 -963 -433 -963 -963 0 -530 433 -963 963 -963 z m 0 61 c 497 0 902 405 902 902 0 497 -405 902 -902 902 -497 0 -902 -405 -902 -902 0 -497 405 -902 902 -902 z" fill="url(#4)"/><circle r="909" cy="1754" cx="1240" fill="#999"/><circle r="868" cy="1754" cx="1240" fill="#12de07"/><path d="m 1240 886 c 478 0 868 390 868 868 0 239 -97 456 -254 614 l -614 -614 v -868 z" fill="#ed0303"/><path d="m 1425 1646 c -1 -2 -2 -3 -3 -5 -1 -1 -2 -2 -3 -4 -2 -1 -3 -3 -4 -4 -1 -1 -2 -3 -3 -4 -1 -2 -2 -3 -3 -4 -2 -2 -3 -3 -4 -4 -1 -2 -2 -3 -4 -4 -1 -2 -2 -3 -3 -4 -2 -2 -3 -3 -4 -4 -2 -1 -3 -2 -4 -4 -2 -1 -3 -2 -4 -3 -2 -1 -3 -3 -4 -4 -2 -1 -3 -2 -5 -3 -1 -1 -3 -2 -4 -3 -1 -1 -3 -2 -4 -3 -2 -1 -3 -2 -5 -3 -1 -1 -3 -2 -4 -3 -1 -1 -3 -2 -5 -3 -1 -1 -3 -2 -4 -2 -2 -1 -3 -2 -5 -3 -1 -1 -3 -1 -4 -2 -2 -1 -3 -2 -5 -2 -1 -1 -3 -2 -5 -3 -1 0 -3 -1 -4 -2 -2 0 -4 -1 -5 -1 -2 -1 -3 -2 -5 -2 -2 -1 -3 -1 -5 -2 -2 0 -3 -1 -5 -1 -1 -1 -3 -1 -5 -2 -1 0 -3 -1 -5 -1 -1 0 -3 -1 -5 -1 -1 0 -3 -1 -5 -1 -1 0 -3 -1 -5 -1 -1 0 -3 -1 -5 -1 -1 0 -3 0 -5 0 -1 -1 -3 -1 -5 -1 -1 0 -3 0 -5 0 -2 -1 -3 -1 -5 -1 -2 0 -3 0 -5 0 -2 0 -3 0 -5 0 -2 0 -3 0 -5 0 -2 0 -4 0 -5 0 -2 0 -4 0 -5 1 -2 0 -4 0 -5 0 -2 0 -4 0 -5 0 -2 1 -4 1 -5 1 -2 0 -4 1 -5 1 -2 0 -4 1 -5 1 -2 0 -4 1 -5 1 -2 0 -4 1 -5 1 -2 0 -4 1 -5 1 -2 1 -4 1 -5 2 -2 0 -4 1 -5 1 -2 1 -3 1 -5 2 -2 0 -3 1 -5 2 -2 0 -3 1 -5 1 -1 1 -3 2 -4 2 -2 1 -4 2 -5 3 -2 0 -3 1 -5 2 -1 0 -3 1 -4 2 -2 1 -4 2 -5 3 -2 0 -3 1 -5 2 -1 1 -3 2 -4 3 -2 1 -3 2 -4 3 -2 1 -3 2 -5 3 -1 1 -3 2 -4 3 -2 1 -3 2 -4 3 -2 1 -3 2 -5 3 -1 1 -2 2 -4 4 -1 1 -2 2 -4 3 -1 1 -2 3 -4 4 -1 1 -2 2 -4 4 -1 1 -2 2 -3 4 -2 1 -3 2 -4 4 -1 1 -2 2 -4 4 -1 1 -2 2 -3 4 -1 1 -2 3 -3 4 -1 1 -3 3 -4 4 -1 2 -2 3 -3 5 -1 1 -2 2 -3 4 -1 1 -2 3 -2 4 -1 2 -2 3 -3 5 -1 1 -2 3 -3 4 -1 2 -1 3 -2 5 -1 1 -2 3 -3 4 0 2 -1 4 -2 5 0 2 -1 3 -2 5 -1 1 -1 3 -2 5 -1 1 -1 3 -2 4 0 2 -1 4 -2 5 0 2 -1 4 -1 5 -1 2 -1 3 -2 5 0 2 -1 3 -1 5 0 2 -1 3 -1 5 -1 2 -1 3 -1 5 -1 2 -1 3 -1 5 -1 1 -1 3 -1 5 -1 2 -1 3 -1 5 0 2 -1 3 -1 5 0 2 0 3 0 5 -1 2 -1 3 -1 5 0 2 0 3 0 5 0 2 0 4 0 5 0 2 0 4 0 5 0 2 0 4 0 5 0 2 0 4 0 5 0 2 0 4 0 5 0 2 0 4 1 6 0 1 0 3 0 5 0 1 1 3 1 5 0 1 0 3 1 5 0 1 0 3 1 5 0 1 0 3 1 5 0 1 0 3 1 5 0 1 1 3 1 5 0 1 1 3 1 5 1 1 1 3 2 4 0 2 1 4 1 5 1 2 2 4 2 5 1 2 1 3 2 5 1 1 1 3 2 5 1 1 1 3 2 4 1 2 2 4 2 5 1 2 2 3 3 5 1 1 1 3 2 4 1 2 2 3 3 5 1 1 2 3 3 4 1 2 1 3 2 5 1 1 2 3 3 4 1 2 2 3 3 4 2 2 3 3 4 5 1 1 2 2 3 4 1 1 2 3 3 4 2 1 3 3 4 4 1 1 2 3 4 4 1 1 2 3 3 4 2 1 3 2 4 4 2 1 3 2 4 3 2 1 3 3 4 4 2 1 3 2 4 3 2 1 3 2 5 4 1 1 3 2 4 3 1 1 3 2 4 3 2 1 3 2 5 3 l 535 331 c 4 2 7 4 11 6 4 2 8 3 12 3 4 1 8 2 12 2 4 0 9 -1 13 -2 4 0 8 -1 11 -3 4 -2 8 -4 12 -6 3 -2 7 -5 10 -8 3 -3 5 -7 8 -10 2 -4 4 -7 6 -11 1 -4 2 -8 3 -12 1 -4 1 -8 1 -12 0 -4 0 -9 -1 -13 -1 -4 -2 -8 -3 -11 -2 -4 -4 -8 -6 -12 l -331 -535 z" fill="url(#5)"/><path d="m 1355,1617 h -1 l -1,-1 -1,-1 h -1 l -1,-1 -1,-1 h -1 v -1 h -1 v -1 h -1 -1 v -1 h -1 l -1,-1 h -1 v -1 h -1 l -1,-1 h -1 l -1,-1 h -1 l -1,-1 h -1 v -1 h -1 l -1,-1 h -1 l -1,-1 h -1 l -1,-1 h -1 l -1,-1 h -1 l -2,-1 -1,-1 h -1 -1 l -1,-1 h -1 l -1,-1 h -1 l -1,-1 h -1 -1 l -1,-1 h -1 -1 v -1 h -1 -1 -1 v -1 h -1 -1 l -1,-1 h -1 -1 l -1,-1 h -1 -1 -1 v -1 h -1 -1 -1 l -1,-1 h -1 -1 l -2,-1 h -1 -1 -1 -1 v -1 h -1 -1 -1 -1 l -1,-1 h -1 -1 -2 -1 l -1,-1 h -1 -1 -1 -1 -1 -1 l -1,-1 h -1 -1 -1 -1 -1 -1 -1 -1 -1 -1 -1 v -1 h -1 -1 -1 -1 -1 -1 -1 -1 -1 -1 -1 -1 -1 -1 -1 -1 -1 -1 -1 -1 l -1,1 h -1 -1 -1 -1 -1 -1 -1 -1 -1 -1 l -1,1 h -1 -1 -1 -2 -1 -1 v 1 h -1 -1 -1 -1 -1 v 1 h -1 -1 -1 -1 l -2,1 h -1 -1 -1 l -1,1 h -1 -1 -1 l -1,1 h -1 -1 l -1,1 h -1 -1 -1 v 1 h -1 -1 -1 l -1,1 h -1 -1 l -1,1 h -1 -1 v 1 h -1 -1 -1 v 1 h -1 -1 l -1,1 h -1 l -1,1 h -1 l -1,1 h -1 -1 l -1,1 h -1 l -1,1 h -1 l -1,1 h -1 l -1,1 h -1 l -1,1 h -1 l -1,1 h -1 l -1,1 h -1 v 1 h -1 l -1,1 h -1 l -1,1 h -1 l -1,1 h -1 v 1 h -1 l -1,1 h -1 v 1 h -1 l -1,1 h -1 v 1 h -1 l -1,1 -1,1 h -1 v 1 h -1 l -1,1 h -1 v 1 h -1 v 1 h -1 v 1 h -1 l -1,1 h -1 v 1 h -1 v 1 h -1 l -1,1 -1,1 -1,1 -1,1 h -1 v 1 h -1 v 1 h -1 v 1 h -1 v 1 h -1 v 1 h -1 v 1 h -1 v 1 h -1 v 1 h -1 v 1 h -1 l -1,1 v 1 h -1 v 1 h -1 v 1 h -1 v 1 h -1 v 1 l -1,1 -1,1 -1,1 v 1 h -1 v 1 h -1 v 1 l -1,1 -1,1 v 1 h -1 v 1 h -1 v 1 l -1,1 v 1 h -1 v 1 h -1 v 1 l -1,1 v 1 h -1 v 1 l -1,1 v 1 h -1 v 1 l -1,1 v 1 l -1,1 v 1 h -1 v 1 l -1,1 v 1 h -1 v 1 1 l -1,1 -1,1 v 1 h -1 v 1 1 h -1 v 1 1 l -1,1 v 1 h -1 v 1 1 h -1 v 1 1 l -1,1 v 1 l -1,1 v 1 1 h -1 v 1 1 h -1 v 1 1 l -1,1 v 1 1 h -1 v 1 1 1 l -1,1 v 1 1 h -1 v 1 1 1 l -1,1 v 1 1 l -1,1 v 1 1 l -1,1 v 1 1 1 l -1,1 v 1 1 1 l -1,1 v 1 1 1 1 l -1,1 v 1 1 1 1 l -1,1 v 1 1 1 1 1 1 l -1,1 v 1 1 1 1 1 1 1 1 1 h -1 v 1 1 1 1 1 1 1 1 1 1 1 1 1 1 1 1 1 1 1 1 1 1 1 1 1 1 1 1 1 h 1 v 1 1 1 1 1 2 1 1 l 1,1 v 1 1 1 1 1 1 h 1 v 1 1 1 1 1 l 1,1 v 2 l 1,2 v 1 1 1 1 h 1 v 1 1 1 1 h 1 v 1 1 1 l 1,1 v 1 1 l 1,1 v 1 1 1 h 1 v 1 1 l 1,1 v 1 1 h 1 v 2 1 h 1 v 1 1 l 1,1 v 1 l 1,1 v 1 1 h 1 v 1 1 h 1 v 1 1 l 1,1 v 1 h 1 v 2 l 1,1 v 1 h 1 v 1 1 l 1,1 v 1 h 1 v 1 1 h 1 v 1 l 1,1 v 1 h 1 v 1 1 h 1 v 1 l 1,1 v 1 h 1 v 1 l 1,1 1,1 v 1 h 1 v 1 1 h 1 v 1 h 1 v 1 l 1,1 v 1 h 1 v 1 l 1,1 v 1 h 1 l 1,1 v 1 h 1 v 1 l 2,2 v 1 h 1 v 1 h 1 v 1 h 1 v 1 h 1 v 1 h 1 v 1 l 1,1 1,1 1,1 1,1 v 1 h 1 v 1 h 1 l 1,1 v 1 h 1 l 1,1 1,1 1,1 1,1 h 1 v 1 h 1 v 1 h 1 v 1 h 1 v 1 h 1 l 1,1 1,1 h 1 v 1 h 1 v 1 h 1 l 1,1 1,1 h 1 v 1 h 1 l 1,1 1,1 h 1 v 1 h 1 l 1,1 h 1 v 1 h 1 v 1 l 536,331 h 1 l 1,1 1,1 h 1 l 1,1 h 1 1 v 1 h 1 1 1 l 1,1 h 1 1 1 1 1 1 1 1 1 1 1 1 1 1 l 1,-1 h 1 1 1 l 1,-1 h 1 l 1,-1 h 1 1 v -1 h 1 l 1,-1 h 1 l 1,-1 1,-1 h 1 v -1 l 1,-1 h 1 v -1 h 1 v -1 l 1,-1 1,-1 v -1 h 1 v -1 l 1,-1 v -1 l 1,-1 v -1 l 1,-1 v -1 l 1,-1 v -1 -1 -1 l 1,-1 v -1 -1 -1 -1 -1 -1 -1 -1 -1 -1 -1 -1 -1 h -1 v -1 -1 -1 -1 h -1 v -1 -1 h -1 v -1 -1 l -1,-1 v -1 l -1,-1 -1,-1 -331,-535 v -1 l -1,-1 v -1 h -1 v -1 l -1,-1 v -1 h -1 v -1 h -1 v -1 l -1,-2 h -1 v -1 h -1 v -1 l -1,-1 v -1 h -1 l -1,-2 h -1 v -1 h -1 v -1 h -1 v -1 l -1,-1 v -1 h -1 l -1,-1 v -1 l -1,-1 -1,-1 h -1 l -1,-2 h -1 v -1 h -1 v -1 h -1 v -1 h -1 v -1 h -1 v -1 h -1 l -1,-1 -1,-1 v -1 h -1 l -1,-1 -1,-1 -1,-1 h -1 v -1 h -1 v -1 h -1 v -1 h -1 l -1,-1 -1,-1 h -1 v -1 h -1 v -1 h -1 -1 v -1 z" fill="#666"/><path d="m 1240,882 c 16,0 31,0 47,1 -3,25 -6,50 -11,75 -1,2 -2,4 -2,6 -1,2 -2,4 -4,6 -1,2 -2,4 -4,5 -1,2 -3,3 -5,4 -2,2 -4,3 -6,4 -2,0 -4,1 -6,2 -2,0 -5,0 -7,0 -2,0 -5,0 -7,0 -2,-1 -4,-2 -6,-2 -2,-1 -5,-2 -6,-4 -2,-1 -4,-2 -5,-4 -2,-1 -3,-3 -5,-5 -1,-2 -2,-4 -3,-6 -1,-2 -1,-4 -2,-6 l -10,-75 c 14,-1 28,-1 42,-1 z m 586,226 c 22,20 43,41 62,63 -19,16 -39,31 -60,44 -2,2 -4,3 -6,4 -2,0 -4,1 -6,1 -2,1 -4,1 -7,1 -2,0 -4,0 -6,-1 -2,0 -5,-1 -7,-1 -2,-1 -4,-2 -6,-4 -1,-1 -3,-2 -5,-4 -2,-2 -3,-3 -4,-5 -2,-2 -3,-4 -3,-6 -1,-2 -2,-5 -2,-7 -1,-2 -1,-4 -1,-6 0,-2 0,-5 1,-7 0,-2 1,-4 2,-6 0,-2 1,-4 3,-6 l 45,-60 z m 285,603 c 1,14 1,29 1,43 0,15 0,31 -1,46 -25,-3 -50,-7 -74,-12 -2,0 -4,-1 -6,-2 -3,0 -5,-1 -6,-3 -2,-1 -4,-2 -5,-4 -2,-1 -3,-3 -5,-5 -1,-2 -2,-4 -3,-6 -1,-2 -1,-4 -2,-6 0,-3 0,-5 0,-7 0,-3 0,-5 0,-7 1,-2 1,-5 2,-7 1,-2 2,-4 3,-5 2,-2 3,-4 5,-6 1,-1 3,-2 5,-4 1,-1 3,-2 6,-3 2,-1 4,-2 6,-2 l 74,-10 z m -225,628 c -19,22 -40,43 -62,63 -16,-20 -31,-40 -45,-61 -1,-2 -2,-4 -3,-6 -1,-2 -1,-4 -2,-6 0,-2 0,-5 0,-7 0,-2 0,-4 0,-6 1,-2 1,-5 2,-7 1,-2 2,-4 3,-6 2,-2 3,-3 5,-5 1,-2 3,-3 5,-4 2,-2 4,-3 6,-4 2,0 4,-1 6,-1 3,-1 5,-1 7,-1 2,0 4,0 7,1 2,0 4,1 6,1 2,1 4,2 6,4 l 59,45 z m -602,286 c -15,1 -29,1 -44,1 -15,0 -30,0 -45,-1 3,-25 6,-51 11,-75 1,-2 1,-5 2,-7 1,-2 2,-4 4,-5 1,-2 2,-4 4,-5 1,-2 3,-3 5,-5 2,-1 4,-2 6,-3 2,-1 4,-1 6,-2 2,0 5,-1 7,-1 2,0 5,1 7,1 2,1 4,1 6,2 2,1 4,2 6,3 2,2 4,3 5,5 2,1 3,3 4,5 2,1 3,3 4,5 1,2 1,5 2,7 l 10,75 z M 655,2400 c -22,-20 -43,-41 -63,-63 20,-16 41,-31 62,-45 2,-1 4,-2 6,-3 2,-1 4,-1 6,-2 2,0 4,0 7,0 2,0 4,0 6,0 2,1 5,1 7,2 2,1 4,2 6,3 1,2 3,3 5,5 2,1 3,3 4,5 1,2 3,4 3,6 1,2 2,4 2,6 1,3 1,5 1,7 0,2 0,4 -1,7 0,2 -1,4 -2,6 0,2 -1,4 -3,6 l -46,60 z M 369,1797 c -1,-14 -1,-29 -1,-43 0,-16 0,-31 1,-47 26,4 51,7 76,12 2,1 4,1 6,2 2,1 4,2 6,4 2,1 4,2 5,4 2,1 3,3 5,5 1,2 2,4 3,6 1,2 1,4 2,6 0,2 0,5 0,7 0,2 0,5 0,7 -1,2 -1,4 -2,6 -1,2 -2,4 -3,6 -2,2 -3,4 -5,5 -1,2 -3,3 -5,4 -2,2 -4,3 -6,4 -2,0 -4,1 -6,2 l -76,10 z m 225,-629 c 20,-22 42,-43 64,-63 15,20 31,41 45,62 1,1 2,3 3,6 1,2 1,4 2,6 0,2 0,4 0,6 0,3 0,5 0,7 -1,2 -1,4 -2,6 -1,2 -2,4 -3,6 -2,2 -3,4 -5,6 -1,1 -3,3 -5,4 -2,1 -4,2 -6,3 -2,1 -4,2 -7,2 -2,1 -4,1 -6,1 -2,0 -4,0 -7,-1 -2,0 -4,-1 -6,-2 -2,0 -4,-1 -6,-3 l -61,-46 z" fill="#b1b1b1"/><path d="m 1355,1617 h -1 l -1,-1 -1,-1 h -1 l -1,-1 -1,-1 h -1 v -1 h -1 v -1 h -1 -1 v -1 h -1 l -1,-1 h -1 v -1 h -1 l -1,-1 h -1 l -1,-1 h -1 l -1,-1 h -1 v -1 h -1 l -1,-1 h -1 l -1,-1 h -1 l -1,-1 h -1 l -1,-1 h -1 l -2,-1 -1,-1 h -1 -1 l -1,-1 h -1 l -1,-1 h -1 l -1,-1 h -1 -1 l -1,-1 h -1 -1 v -1 h -1 -1 -1 v -1 h -1 -1 l -1,-1 h -1 -1 l -1,-1 h -1 -1 -1 v -1 h -1 -1 -1 l -1,-1 h -1 -1 l -2,-1 h -1 -1 -1 -1 v -1 h -1 -1 -1 -1 l -1,-1 h -1 -1 -2 -1 l -1,-1 h -1 -1 -1 -1 -1 -1 l -1,-1 h -1 -1 -1 -1 -1 -1 -1 -1 -1 -1 -1 v -1 h -1 -1 -1 -1 -1 -1 -1 -1 -1 -1 -1 -1 -1 -1 -1 -1 -1 -1 -1 -1 l -1,1 h -1 -1 -1 -1 -1 -1 -1 -1 -1 -1 l -1,1 h -1 -1 -1 -2 -1 -1 v 1 h -1 -1 -1 -1 -1 v 1 h -1 -1 -1 -1 l -2,1 h -1 -1 -1 l -1,1 h -1 -1 -1 l -1,1 h -1 -1 l -1,1 h -1 -1 -1 v 1 h -1 -1 -1 l -1,1 h -1 -1 l -1,1 h -1 -1 v 1 h -1 -1 -1 v 1 h -1 -1 l -1,1 h -1 l -1,1 h -1 l -1,1 h -1 -1 l -1,1 h -1 l -1,1 h -1 l -1,1 h -1 l -1,1 h -1 l -1,1 h -1 l -1,1 h -1 l -1,1 h -1 v 1 h -1 l -1,1 h -1 l -1,1 h -1 l -1,1 h -1 v 1 h -1 l -1,1 h -1 v 1 h -1 l -1,1 h -1 v 1 h -1 l -1,1 -1,1 h -1 v 1 h -1 l -1,1 h -1 v 1 h -1 v 1 h -1 v 1 h -1 l -1,1 h -1 v 1 h -1 v 1 h -1 l -1,1 -1,1 -1,1 -1,1 h -1 v 1 h -1 v 1 h -1 v 1 h -1 v 1 h -1 v 1 h -1 v 1 h -1 v 1 l 52,52 c 1,0 1,0 1,0 17,-17 40,-27 66,-27 52,0 94,42 94,94 0,26 -10,49 -27,66 0,0 0,0 0,1 l 419,419 v -1 h 1 v -1 l 1,-1 1,-1 v -1 h 1 v -1 l 1,-1 v -1 l 1,-1 v -1 l 1,-1 v -1 l 1,-1 v -1 -1 -1 l 1,-1 v -1 -1 -1 -1 -1 -1 -1 -1 -1 -1 -1 -1 -1 h -1 v -1 -1 -1 -1 h -1 v -1 -1 h -1 v -1 -1 l -1,-1 v -1 l -1,-1 -1,-1 -331,-535 v -1 l -1,-1 v -1 h -1 v -1 l -1,-1 v -1 h -1 v -1 h -1 v -1 l -1,-2 h -1 v -1 h -1 v -1 l -1,-1 v -1 h -1 l -1,-2 h -1 v -1 h -1 v -1 h -1 v -1 l -1,-1 v -1 h -1 l -1,-1 v -1 l -1,-1 -1,-1 h -1 l -1,-2 h -1 v -1 h -1 v -1 h -1 v -1 h -1 v -1 h -1 v -1 h -1 l -1,-1 -1,-1 v -1 h -1 l -1,-1 -1,-1 -1,-1 h -1 v -1 h -1 v -1 h -1 v -1 h -1 l -1,-1 -1,-1 h -1 v -1 h -1 v -1 h -1 -1 v -1 z" fill="url(#7)"/><path d="m 132.97 126.17 c 0 2.266 -1.945 4.102 -4.344 4.102 -2.399 0 -4.344 -1.837 -4.344 -4.102 0 -2.266 1.945 -4.103 4.344 -4.103 2.399 0 4.344 1.837 4.344 4.103 z" transform="matrix(16.39779 0 0 17.35788 -870.96 -438.66)" fill="#fff"/></g></svg>