<svg xmlns="http://www.w3.org/2000/svg" viewBox="0 0 256 256"><g color="#000"><path d="m -1036.21 1968.79 c 102.23 72.72 251.73 -71.53 188.89 -178.76 -45.994 -91.69 -185.01 -65.25 -224.33 19.19 -30.774 52.1 -20.627 129.19 35.437 159.57 z" transform="matrix(0 1 -1 0.042 1988.24 1010.5)" fill="#ffba00"/></g><g transform="matrix(27.45705 0 0 28.175 53.01 -8155.62)"><path d="m 0.815 291.7 h 3.55 c 0.203 0 0.366 0.163 0.366 0.366 v 3.846 c 0 0.203 -0.163 0.366 -0.366 0.366 h -3.55 c -0.203 0 -0.366 -0.163 -0.366 -0.366 v -3.846 c 0 -0.203 0.163 -0.366 0.366 -0.366 z" fill="#518ff2"/><g fill="#fff"><path d="m 2.583,291.51 c -0.147,0 -0.27,0.112 -0.283,0.259 H 1.852 v 0.411 c 0,0.049 0.04,0.089 0.089,0.089 h 1.298 c 0.049,0 0.089,-0.04 0.089,-0.089 v -0.411 H 2.866 C 2.853,291.623 2.73,291.51 2.583,291.51 z" stroke="#518ff2" stroke-linecap="round" stroke-width="0.132"/><path d="m 1.075 293.2 a 0.071 0.071 0 0 0 -0.071 0.071 0.071 0.071 0 0 0 0.071 0.071 H 4.204 A 0.071 0.071 0 0 0 4.275 293.27 0.071 0.071 0 0 0 4.204 293.2 z"/><path d="m 1.075 293.76 a 0.071 0.071 0 0 0 -0.071 0.071 0.071 0.071 0 0 0 0.071 0.071 h 3.129 a 0.071 0.071 0 0 0 0.071 -0.071 0.071 0.071 0 0 0 -0.071 -0.071 z"/><path d="m 1.075 294.32 a 0.071 0.071 0 0 0 -0.071 0.071 0.071 0.071 0 0 0 0.071 0.071 h 3.129 a 0.071 0.071 0 0 0 0.071 -0.071 0.071 0.071 0 0 0 -0.071 -0.071 z"/><path d="m 1.075 294.89 c -0.039 0 -0.071 0.032 -0.071 0.071 0 0.039 0.032 0.071 0.071 0.071 h 2.376 c 0.039 0 0.071 -0.032 0.071 -0.071 0 -0.039 -0.032 -0.071 -0.071 -0.071 z"/><path d="m 1.075 295.45 c -0.039 0 -0.071 0.032 -0.071 0.071 0 0.039 0.032 0.071 0.071 0.071 h 2.188 c 0.039 0 0.071 -0.032 0.071 -0.071 0 -0.039 -0.032 -0.071 -0.071 -0.071 z"/><circle r="0.823" cy="295.85" cx="4.483" transform="matrix(1.36239 0 0 1.30047 -1.553 -88.85)" stroke="#518ff2" stroke-linecap="round" stroke-width="0.132"/></g><g transform="matrix(1.97894 0 0 1.4918 -4.342 -145.35)" fill="#518ff2"><path d="M 4.435,295.27 H 4.53 v 0.582 H 4.435 z"/><path d="m 4.835,296.12 -0.067,0.067 -0.332,-0.332 0.067,-0.067 z"/></g><path d="m 1.075 292.63 a 0.071 0.071 0 0 0 -0.071 0.071 0.071 0.071 0 0 0 0.071 0.071 h 3.129 a 0.071 0.071 0 0 0 0.071 -0.071 0.071 0.071 0 0 0 -0.071 -0.071 z" fill="#fff"/></g></svg>