<svg xmlns="http://www.w3.org/2000/svg" viewBox="0 0 256 256"><defs><clipPath><rect fill="#fff" x="27.682" y="7.682" width="112.64" height="112.64" rx="8.05"/></clipPath><clipPath><rect fill="#fff" x="6" y="6" width="84" height="84" rx="6"/></clipPath><clipPath><rect fill="#fff" x="6" y="6" width="84" height="84" rx="6"/></clipPath><clipPath><rect fill="#fff" x="27.682" y="7.682" width="112.64" height="112.64" rx="8.05"/></clipPath><clipPath><path d="m 84 46.5 c -27.431 0 -49.5 22.07 -49.5 49.5 v 120 c 0 27.431 22.07 49.5 49.5 49.5 h 120 c 27.431 0 49.5 -22.07 49.5 -49.5 v -120 c 0 -27.431 -22.07 -49.5 -49.5 -49.5 z"/></clipPath><clipPath><path d="m -429 -10.2 c -43.89 0 -79.2 35.31 -79.2 79.2 v 192 c 0 43.89 35.31 79.2 79.2 79.2 h 192 c 43.89 0 79.2 -35.31 79.2 -79.2 v -192 c 0 -43.89 -35.31 -79.2 -79.2 -79.2 z"/></clipPath><clipPath><path d="m 15.563 9.602 c -3.858 0 -6.961 3.103 -6.961 6.961 v 16.875 c 0 3.858 3.103 6.961 6.961 6.961 h 16.875 c 3.858 0 6.961 -3.103 6.961 -6.961 v -16.875 c 0 -3.858 -3.103 -6.961 -6.961 -6.961 z"/></clipPath></defs><path d="m 38.424 223.55 c 225.37 146.42 312.59 -253.5 80.74 -221.64 -94.56 12.991 -166.95 165.63 -80.74 221.64 z" fill="#c9d5e9" color="#000"/><g transform="matrix(0.8434 0 0 0.87359 6.519 1.528)"><g fill="#6882aa" stroke="#000" stroke-width="3.165"><path d="m 92.49 144.69 c 0 0 -7.089 -14.563 -9.203 -22.332 -1.546 -5.679 -2.54 -11.598 -2.474 -17.484 0.076 -6.733 -0.724 -14.52 3.282 -19.933 1.961 -2.649 5.576 -4.127 8.862 -4.387 3.933 -0.31 7.758 1.783 11.3 3.522 3.398 1.668 9.304 6.509 9.304 6.509 z"/><path d="m 38.32 185.45 c 0 0 8.254 -1.938 10.975 -4.874 2.279 -2.459 3.372 -9.474 3.372 -9.474 0 0 2.375 12.301 5.662 17.463 2.981 4.681 7.513 8.344 12.177 11.351 2.692 1.736 5.796 4.598 8.87 3.698 4.703 -1.377 6.365 -7.614 8.373 -12.08 3.195 -7.115 4.547 -14.999 5.524 -22.736 1.235 -9.787 -0.8 -19.797 0.377 -29.591 1.174 -9.765 2.98 -19.618 6.625 -28.753 2.727 -6.835 5.82 -14.01 11.214 -19.02 4.918 -4.562 11.963 -6.079 18.05 -8.896 6.07 -2.807 11.889 -6.447 18.396 -7.974 7.06 -1.658 14.489 -1.547 21.731 -1.134 6.385 0.364 12.844 1.179 18.921 3.171 6.141 2.01 12.07 4.957 17.309 8.734 4.736 3.412 8.812 7.753 12.434 12.33 3.428 4.332 6.28 9.146 8.654 14.13 3.115 6.545 6.45 13.302 7.231 20.508 0.702 6.472 -1.283 12.967 -2.396 19.381 -1.515 8.726 -3.545 17.365 -5.816 25.926 -1.61 6.067 -3.378 12.1 -5.529 18 -1.224 3.357 -4.188 9.867 -4.188 9.867 l -11.269 -1.128 l -3.03 -21.372 l 1.055 7.96 c 0 0 -10.122 2.693 -15.14 4.187 -5.833 1.737 -11.418 4.4 -17.394 5.555 -4.784 0.924 -9.727 1.511 -14.578 1.059 -1.528 -0.143 -4.452 -1.177 -4.452 -1.177 l 6.142 -9.938 c 0 0 -6.28 8.793 -7.91 13.855 -0.717 2.227 -0.731 6.98 -0.731 6.98 l -17.798 -0.74 l -1.259 -23.02 l 0.749 17.206 l -13.645 1.812 l -2.649 -13.418 l 11.481 -11.834 l 12.22 -11.798 c -14.722 13.192 -27.375 28.557 -42.476 41.27 -3.649 3.073 -7.176 6.571 -11.574 8.418 -1.453 0.61 -3.096 0.958 -4.661 0.781 -3.603 -0.406 -7.07 -2.08 -10.06 -4.138 -4.283 -2.952 -7.51 -7.254 -10.686 -11.374 -2.716 -3.524 -3.898 -8.205 -7.078 -11.315 -3.667 -3.587 -13.225 -7.869 -13.225 -7.869 z"/></g><path d="m 146.89 94.96 c 0.923 -2.222 2.155 -4.43 3.931 -6.05 1.855 -1.696 4.371 -2.501 6.667 -3.523 3.726 -1.659 7.445 -3.675 11.489 -4.215 2.705 -0.361 5.644 -0.359 8.156 0.706 2.244 0.952 3.807 3.062 5.517 4.798 1.461 1.483 3.063 2.928 4.03 4.772 0.951 1.82 1.279 3.922 1.598 5.95 0.443 2.814 0.514 5.687 0.426 8.534 -0.103 3.326 -0.257 6.706 -1.116 9.921 -0.638 2.387 -1.932 4.549 -2.955 6.799 -1.536 3.374 -3.117 6.728 -4.779 10.04 -1.74 3.47 -3.562 6.899 -5.433 10.3 -1.788 3.251 -3.079 6.877 -5.536 9.658 -1.624 1.839 -3.543 3.69 -5.885 4.421 -1.863 0.581 -3.978 0.32 -5.85 -0.232 -2.541 -0.749 -4.599 -2.634 -6.842 -4.04 -1.048 -0.659 -2.75 -1.806 -3.791 -2.515 -0.5 -0.34 -0.816 -1.1 -0.706 -1.695 l 0.083 -0.45 c 0.271 -1.469 1.459 -1.933 2.665 -1.053 1.145 0.835 2.503 1.808 3.442 2.424 1.843 1.209 3.616 2.611 5.677 3.394 1.785 0.679 3.84 1.738 5.629 1.069 3.204 -1.197 4.55 -5.151 6.355 -8.06 1.722 -2.772 2.777 -5.908 4.206 -8.842 2.374 -4.875 5.139 -9.567 7.258 -14.559 1.318 -3.107 2.617 -6.257 3.379 -9.545 0.715 -3.086 1.174 -6.273 1.092 -9.44 -0.07 -2.732 -0.322 -5.557 -1.359 -8.08 -0.816 -1.988 -2.233 -3.711 -3.705 -5.277 -1.251 -1.332 -2.657 -2.588 -4.282 -3.425 -2.122 -1.093 -4.507 -2.115 -6.889 -1.956 -2.69 0.18 -4.939 2.162 -7.417 3.224 -2.574 1.104 -5.499 1.591 -7.739 3.272 -2.321 1.741 -3.091 5.125 -5.496 6.749 -1.27 0.858 -2.536 -0.659 -2.041 -2.401 0.07 -0.247 0.146 -0.475 0.226 -0.668 z" fill="#181818"/><path d="m 233.57 141.02 c 0 0 5.658 -4.064 7.657 -6.843 1.189 -1.653 2.111 -3.6 2.411 -5.614 0.404 -2.712 -0.498 -7.524 -0.948 -9.653 -0.124 -0.589 0.198 -0.84 0.733 -0.564 l 1.328 0.685 l 1.326 -0.875 c 0.475 -0.313 0.859 -0.106 0.875 0.462 0.054 1.921 0.213 3.903 0.009 5.728 -0.432 3.374 -1.094 6.88 -2.832 9.804 -1.888 3.176 -7.886 7.79 -7.886 7.79 l -2.472 8.327 z"/><path d="m 96.53 126.6 c 0 0 1.557 -2.866 2.957 -3.02 2.118 -0.226 4.103 1.779 5.334 3.517 0.051 0.072 0.096 0.164 0.134 0.267 0.24 0.637 -0.325 1.235 -0.997 1.119 -0.157 -0.027 -0.302 -0.062 -0.416 -0.108 -1.39 -0.556 -2.105 -2.792 -3.599 -2.689 -1.506 0.103 -3.222 3.181 -3.222 3.181 z" stroke="#000" stroke-width="0.265"/><path d="m 122.23 129 c 2.025 -2.192 5.678 -3.86 8.959 -3.569 0.078 0.007 0.204 0.02 0.282 0.03 3.137 0.396 5.759 2.824 7.355 5.141 0.147 0.213 0.237 0.539 0.293 0.864 0.101 0.585 -0.387 1 -0.969 0.879 -0.397 -0.083 -0.819 -0.188 -1.1 -0.299 -2.321 -0.92 -3.734 -3.509 -6.284 -3.742 -2.225 -0.204 -4.058 1.615 -6.186 2.197 -0.411 0.112 -1.019 0.235 -1.565 0.336 -0.685 0.127 -1.282 -0.36 -1.134 -1.041 0.068 -0.311 0.176 -0.608 0.348 -0.795 z"/></g></svg>