<svg xmlns="http://www.w3.org/2000/svg" viewBox="0 0 256 256"><g fill="#393939" color="#000"><path d="M 219.27,843.52 C 378.99,1071.5 -36.39,1144.06 4.81,901.81 26.646,805.46 155.29,752.19 219.27,843.52 z" transform="matrix(1 0 0 -0.99576 0 1048.99)"/></g><g transform="matrix(1.13956 0 0 1.15999 4.436 -89.82)" fill-rule="evenodd" fill="#bc5151"><path paint-order="stroke markers fill" d="m 92.9 176.44 c -2 -2 -2 -26.745 0 -28.749 2 -2 26.745 -2 28.749 0 2.344 2.344 1.968 25.876 -0.452 28.3 -2.421 2.421 -25.952 2.797 -28.3 0.452 z"/><path paint-order="stroke markers fill" d="m 140.93,190.68 c -1.927,-3.688 -5.216,-8.21 -7.309,-10.05 -3.753,-3.295 -3.8,-3.478 -3.451,-13.391 l 0.354,-10.05 h 8.794 c 7.428,0 9.03,-0.373 10.292,-2.398 0.824,-1.319 3.237,-3.298 5.364,-4.397 5.391,-2.788 12.411,-0.674 15.706,4.73 5.756,9.44 -0.161,19.12 -11.686,19.12 -3.368,0 -5.272,-0.886 -7.858,-3.655 -3.137,-3.358 -4.077,-3.655 -11.584,-3.655 h -8.17 l 6.352,5.711 c 6.95,6.249 11.48,12.695 14.06,20.01 l 1.67,4.734 -4.514,-0.002 c -4.235,-0.002 -4.731,-0.418 -8.02,-6.709 z"/><path paint-order="stroke markers fill" d="m 135.34 235.24 c -1.637 -3.06 -1.637 -23.901 0 -26.96 1.127 -2.106 2.656 -2.356 14.375 -2.356 8.575 0 13.619 0.506 14.575 1.462 2 2 2 26.745 0 28.749 -0.956 0.956 -6 1.462 -14.575 1.462 -11.718 0 -13.248 -0.251 -14.375 -2.356 z"/><path paint-order="stroke markers fill" d="m 45.06,170.69 c -6.445,-6.445 -4.736,-16.375 3.491,-20.279 5.351,-2.539 12.381,-0.826 15.378,3.748 1.806,2.757 2.774,3.037 10.489,3.037 h 8.499 v 4.873 4.873 h -8.06 c -7.221,0 -8.496,0.381 -12.224,3.655 -5.762,5.059 -12.57,5.095 -17.571,0.094 z"/><path paint-order="stroke markers fill" d="m 48.846 235.24 c -1.637 -3.06 -1.637 -23.901 0 -26.96 1.127 -2.106 2.656 -2.356 14.375 -2.356 8.575 0 13.62 0.506 14.575 1.462 2 2 2 26.745 0 28.749 -0.956 0.956 -6 1.462 -14.575 1.462 -11.718 0 -13.248 -0.251 -14.375 -2.356 z"/><path paint-order="stroke markers fill" d="m 60.997 195.87 c 0.031 -4.01 6.689 -15.08 12.664 -21.06 3.661 -3.661 7.18 -6.656 7.821 -6.656 0.64 0 1.419 2.056 1.73 4.568 0.5 4.04 -0.027 5.208 -4.58 10.132 -2.83 3.06 -5.875 7.583 -6.768 10.05 -1.482 4.098 -2.023 4.486 -6.25 4.486 -2.897 0 -4.624 -0.57 -4.616 -1.523 z"/></g></svg>