<svg xmlns="http://www.w3.org/2000/svg" xmlns:xlink="http://www.w3.org/1999/xlink" viewBox="0 0 256 256"><defs><path d="m 245.46 129.52 l -97.89 -96.9 c -5.556 -5.502 -16.222 -11.873 -23.7 -14.16 l -39.518 -12.08 c -7.479 -2.286 -18.1 0.391 -23.599 5.948 l -13.441 13.578 c -5.5 5.559 -14.502 14.653 -20 20.21 l -13.44 13.579 c -5.5 5.558 -8.07 16.206 -5.706 23.658 l 12.483 39.39 c 2.363 7.456 8.843 18.06 14.399 23.556 l 97.89 96.9 c 5.558 5.502 14.605 5.455 20.1 -0.101 l 36.26 -36.63 c 5.504 -5.559 14.503 -14.651 20 -20.21 l 36.26 -36.629 c 5.502 -5.56 5.455 -14.606 -0.101 -20.11 z m -178.09 -50.74 c -7.198 0 -13.03 -5.835 -13.03 -13.03 0 -7.197 5.835 -13.03 13.03 -13.03 7.197 0 13.03 5.835 13.03 13.03 -0.001 7.198 -5.836 13.03 -13.03 13.03 z" id="0"/><use id="1" xlink:href="#0"/><clipPath id="2"><use xlink:href="#0"/></clipPath><clipPath clip-path="url(#2)"><use xlink:href="#1"/></clipPath><clipPath clip-path="url(#2)"><use xlink:href="#1"/></clipPath></defs><g fill="#30579d" color="#000"><path d="m 128.42 795.13 c 168.87 -19.553 166.53 260.33 -3.01 257.01 -157.67 9.224 -171.9 -272.26 3.01 -257.01 z" transform="matrix(0 -0.99627 0.98304 0 -779.6 256.13)"/></g><g fill="#fff" stroke="#fff" stroke-width="1.025"><path d="m 43.574 130.53 l -0.227 -11.474 l -5.107 -0.128 c -3.104 -0.078 -3.082 -1.761 -3.082 -3.239 0 -1.729 1.133 -1.9 12.641 -1.9 h 11.413 c 0.09 1.476 -0.025 3.07 -0.491 4.351 -0.27 0.167 -1.975 0.443 -3.788 0.613 -3.16 0.296 -3.31 0.373 -3.603 1.844 -0.168 0.844 -0.306 6.357 -0.306 12.252 v 10.717 c -2.339 0 -4.678 0 -7.02 0 -0.563 -5.269 -0.426 -8.242 -0.433 -13.04 z"/><path d="m 73.49 144.08 c -4.818 -0.829 -7.704 -3.277 -8.971 -7.611 -0.597 -2.044 -0.804 -5.196 -0.816 -12.471 -0.009 -5.354 0.07 -9.81 0.176 -9.902 2.311 -0.419 4.553 -0.282 7.04 -0.498 l -0.446 8.43 c -0.699 13.218 1.052 16.405 5.445 16.405 4.796 0 5.172 -0.986 5.641 -14.76 l 0.336 -9.883 c 2.368 0 4.735 0 7.103 0 l -0.192 11.166 c -0.176 10.184 -0.288 11.347 -1.28 13.22 -0.598 1.129 -1.631 2.562 -2.296 3.184 -2.497 2.337 -7.38 3.468 -11.736 2.719 z"/><path d="m 114.23 143.51 c -4.727 -5.506 -12.382 -25.05 -11.455 -10.406 -0.033 2.288 -0.209 5.58 -0.389 7.316 l -0.329 3.156 c -1.999 0 -3.997 0 -5.996 0 v -14.888 v -14.888 h 3.121 c 3.824 0 4.234 0.38 9.519 8.824 4.38 6.996 5.552 8.518 6.124 7.949 0.235 -0.235 0.501 -4.22 0.59 -8.856 l 0.162 -8.43 c 2.024 0 4.048 0 6.073 0 v 15.402 v 15.402 c -2.548 -0.158 -5.281 -0.396 -7.421 -0.579 z"/><path d="m 129.78 143.5 l 0.157 -14.554 c 0.086 -8 0.349 -14.746 0.583 -14.981 0.235 -0.235 4.03 -0.427 8.445 -0.427 8.933 0 9.786 0.237 13.08 3.639 2.389 2.467 3.383 5.626 3.383 10.745 0 8.79 -3.547 14.374 -9.901 15.586 -5.232 1.297 -10.981 0.608 -15.747 -0.009 z m 13.896 -5.191 c 3.32 -1.679 4.331 -3.987 4.331 -9.883 0 -7.257 -2.01 -10.06 -7.259 -10.14 -3.762 -0.057 -4.01 0.497 -3.966 9 0.042 8.891 0.395 11.04 1.913 11.655 2.376 0.505 3.506 0.103 4.981 -0.636 z"/><path d="m 162.09 128.98 v -15.1 l 1.552 -0.342 c 0.854 -0.188 4.163 -0.364 7.355 -0.39 5.322 -0.044 6.03 0.066 8.556 1.329 4 2 4.804 3.355 4.782 8.05 -0.016 3.275 -0.253 4.306 -1.593 6.901 l -1.575 3.05 c 1.625 3.741 3.659 7.375 4.977 11.224 0 0.543 -5.737 0.185 -6.711 -0.419 -0.265 -0.164 -1.391 -2.112 -2.502 -4.328 -2.106 -4.203 -3.514 -5.647 -5.5 -5.647 -1.509 0 -2.174 1.692 -2.184 5.552 -0.012 5.071 -0.13 5.229 -3.891 5.229 h -3.267 z m 13.33 -1.469 c 2.747 -2.172 3.335 -5.774 1.279 -7.836 -1.661 -1.666 -6.077 -1.837 -6.915 -0.267 -0.815 1.528 -0.648 6.311 0.267 7.62 1.642 1 4.01 1.466 5.368 0.483 z"/><path d="m 189.85 143.66 c -0.746 -0.475 0.814 -6.11 4.936 -17.822 3.363 -9.554 4.4 -11.867 5.618 -12.521 1.519 -0.816 5.494 -0.68 6.389 0.218 0.854 0.857 3.6 7.792 7.702 19.453 3.919 11.139 3.853 10.448 1.036 10.872 -3.058 0.46 -4.424 -0.215 -5.916 -2.924 -1.338 -2.428 -2.322 -2.882 -6.423 -2.961 -3.668 -0.071 -5.064 0.594 -6.284 2.991 -0.575 1.131 -1.491 2.296 -2.034 2.588 -1.529 0.287 -3.68 0.866 -5.02 0.106 z m 16.268 -11.146 c 0.535 -0.646 0.457 -1.585 -0.429 -5.185 -1.678 -6.819 -2.58 -7.393 -4.127 -2.625 -1.516 4.675 -1.829 6.936 -1.085 7.835 1.589 0.6 4.497 1.156 5.641 -0.025 z"/></g></svg>