<svg xmlns="http://www.w3.org/2000/svg" viewBox="0 0 256 256"><path d="m 3.74 101.53 c 19.829 -131.75 217.21 -135.71 247.04 -7.629 30.702 103.69 -80.47 188.46 -163.63 154.49 -55.684 -16.06 -100.67 -81.76 -83.41 -146.86 z" fill="#f5f5f5" color="#000"/><g transform="matrix(0.82388 0 0 0.83243 6.01 19.288)"><path d="m 124.63 254.45 c -49.593 -9.09 -90.33 -50.05 -100.04 -100.58 c -2.145 -11.167 -2.145 -33.647 0 -44.814 4.636 -24.14 15.648 -45.637 32.384 -63.22 18.667 -19.616 41.865 -32.392 67.841 -37.36 10.468 -2 35.31 -1.997 45.808 0.012 44.3 8.476 81.31 40.778 95.6 83.43 4.655 13.894 6.185 23.817 6.174 40.05 -0.008 11.875 -0.464 16.491 -2.521 25.5 -5.964 26.12 -17.872 47.12 -36.835 64.957 -17.555 16.514 -40.29 28.07 -63.11 32.09 -10.127 1.782 -35.433 1.751 -45.3 -0.056 z m 51.06 -5.459 c 22.776 -5.843 40.568 -15.965 57.07 -32.464 17.06 -17.06 27.26 -35.443 33.15 -59.728 2.482 -10.245 2.527 -40.27 0.074 -50.34 c -5.885 -24.17 -15.368 -41.873 -31.26 -58.35 -16.899 -17.53 -35.17 -27.927 -61.21 -34.825 c -9.825 -2.603 -41.822 -2.603 -51.647 0 c -17.61 4.665 -29.1 9.704 -42.37 18.58 -15.735 10.525 -33.706 31.446 -40.81 47.51 l -2.427 5.487 l 5.215 -0.595 c 7.466 -0.851 9.402 -1.794 11.311 -5.51 9.145 -17.794 27.746 -35.23 47.903 -44.9 36.96 -17.733 79.71 -13.465 112.5 11.233 32.994 24.851 49.22 67.52 41.01 107.82 -2.157 10.584 -6.303 22.695 -8.56 25 -1.23 1.258 -1.966 1.142 -5.683 -0.893 -2.348 -1.286 -4.58 -2.611 -4.959 -2.945 -0.379 -0.334 -1.401 -6.072 -2.269 -12.752 -2.309 -17.75 -6.574 -31.969 -15.476 -51.596 -2.379 -5.245 -5.457 -6.812 -9.638 -4.907 -2.3 1.048 -2.426 1.562 -2.425 9.877 0 4.824 0.691 12.08 1.535 16.12 0.844 4.044 1.263 8.205 0.933 9.248 -0.804 2.534 -4.37 3.294 -11.807 2.518 -16.36 -1.707 -21.291 -1.82 -29.9 -0.684 -17.721 2.338 -35.628 9.06 -43.87 16.473 -6.111 5.495 -14.253 9.52 -26.26 12.983 -11.698 3.374 -16.423 6.293 -26.444 16.336 -9.698 9.72 -9.08 9.785 -15.779 -1.655 -5.813 -9.93 -9.928 -20.926 -12.499 -33.399 -2.764 -13.408 -2.293 -34.958 1.029 -47.07 1.191 -4.344 1.805 -8.223 1.364 -8.621 -0.795 -0.717 -11.302 -2.178 -11.302 -1.572 0 0.174 -0.996 4.09 -2.214 8.703 -1.914 7.252 -2.214 10.959 -2.21 27.387 0.003 16.651 0.291 20.1 2.328 27.908 6.06 23.24 15.905 40.536 32.529 57.16 19.06 19.06 41.97 30.762 67.57 34.506 9.879 1.445 36.579 0.247 45.5 -2.042 z" fill="#6c6c6c"/><path d="m 113.32 139.04 c -14.911 -17.333 -30.947 -31.33 -44.4 -38.742 l -5.252 -2.896 l 4 -0.016 c 2.2 -0.009 13.158 0.673 24.351 1.516 22.262 1.676 38.24 4.099 53.649 8.133 13.461 3.524 16.5 3.916 16.5 2.126 0 -6.48 -47.48 -14.329 -101.57 -16.793 -13.711 -0.625 -25.941 -1.339 -27.18 -1.588 -2.865 -0.576 -2.873 -2.01 -0.02 -3.537 3.272 -1.751 33.36 -4.826 47.48 -4.854 16.562 -0.032 26.556 -1.611 31.708 -5.01 7.499 -4.948 17.735 -7.932 34.583 -10.08 8.154 -1.04 10.492 -0.985 16.5 0.389 14.592 3.339 29.3 10.01 38.29 17.372 5.124 4.193 6.954 6.803 7.826 11.162 0.611 3.056 0.505 3.214 -1.774 2.642 -3.554 -0.892 -7.533 0.995 -9.299 4.41 -1.702 3.291 -1.945 12.405 -0.55 20.593 0.469 2.75 1.167 6.888 1.551 9.196 l 0.699 4.196 l -19.374 -0.567 c -24.18 -0.707 -30.89 0.434 -50.778 8.635 -4.054 1.672 -7.721 3.04 -8.148 3.04 -0.427 0 -4.386 -4.197 -8.799 -9.326 z m 49.85 -56.15 c 0 -2.948 -4.777 -4.761 -13.919 -5.283 -4.886 -0.279 -10.166 -0.164 -11.732 0.254 l -2.848 0.76 l 3.5 1.51 c 9.59 4.139 25 5.839 25 2.758 z" fill="#313131"/><path d="m 117.36 186.5 c -22.905 -2.484 -33.378 -6.808 -38.445 -15.874 -1.406 -2.515 -2.216 -4.783 -1.8 -5.04 0.416 -0.257 5.229 -2.066 10.696 -4.02 6.647 -2.376 12.773 -5.503 18.49 -9.437 17.516 -12.06 34.94 -16.08 59.743 -13.805 11.794 1.083 12.154 0.673 10.574 -12.03 -0.681 -5.474 -1.08 -11.986 -0.887 -14.47 0.31 -3.986 0.652 -4.552 2.913 -4.816 3.359 -0.391 4.982 1.622 8.781 10.894 4.319 10.539 7.686 22.675 9.732 35.08 0.957 5.797 2.176 11.08 2.71 11.745 1.513 1.878 -0.987 11.939 -3.796 15.278 -4.919 5.846 -8.608 6.409 -43.578 6.655 -17.391 0.122 -33.2 0.051 -35.13 -0.159 z" transform="matrix(1.21377 0 0 1.2013 -7.297 -23.17)" fill="#dcdcdc"/></g></svg>