<svg xmlns="http://www.w3.org/2000/svg" viewBox="0 0 256 256"><path d="m 193.83 817.84 c 225.34 191.12 -237.98 374.9 -190.37 79.31 10.438 -64.81 129.65 -130.81 190.37 -79.31 z" fill="#223352" color="#000" transform="translate(0 -796.36)"/><g transform="matrix(0.79432 0 0 0.62857 25.467 52.968)"><path d="m 58.668 128 v -128 h 60.5 h 60.5 v 128 v 128 h -60.5 h -60.5 v -128 z" fill="#d0b18c"/><path d="m 59.33 238.75 c 0.309 -39.22 0.309 -220.73 -0.157 -209.92 l -0.158 3.667 c -0.302 -19.436 0.284 -13.01 0.284 -31.501 l 60.871 -0.999 h 58.5 l 0.17 15.25 c 0.093 8.388 0.25 65.988 0.348 128 l 0.178 112.75 h -59.69 h -60.48 z m 15.34 4.75 c -0.328 -7.309 -0.216 -3.731 0 -7.07 0 -1.185 2.774 -1.434 16 -1.434 h 16 l 0.195 3.25 c 0.107 1.787 0.24 4.6 0.296 6.25 0.092 2.716 0.452 3.03 3.805 3.31 l 3.704 0.31 v -7.31 v -7.31 h -23.41 h -23.41 l -0.075 7.25 l -0.075 7.25 h 3.484 c 3.463 0 3.484 -0.028 3.484 -4.5 z m 96 0.5 v -4 h -22.5 c -12.375 0 -22.838 -0.113 -23.25 -0.25 -0.412 -0.137 -0.888 1.662 -1.058 4 l -0.308 4.25 h 23.558 h 23.558 z m 0 -23.5 v -3.5 h -23.5 h -23.5 v 3.5 v 3.5 h 23.5 h 23.5 z m -0.19 -23.955 l 0.31 -3.545 h -23.56 h -23.56 v 3.333 c 0 1.833 0.187 3.521 0.417 3.75 0.229 0.229 10.692 0.324 23.25 0.211 l 22.833 -0.205 z m 0.19 -20.04 v -7.5 h -23.5 h -23.5 v 7.5 v 7.5 h 23.5 h 23.5 z m -16 -27.499 v -4 h -15.5 h -15.5 v 3.333 c 0 1.833 0.193 3.521 0.43 3.75 0.236 0.229 7.211 0.529 15.5 0.667 l 15.07 0.251 z m 0 -20.501 v -7.5 h -7.333 c -4.03 0 -7.584 0.251 -7.891 0.558 -0.307 0.307 -0.329 1.432 -0.05 2.5 -0.263 7.461 -0.405 -0.055 0.275 3.057 v 4.442 v 4.442 h 7.5 h 7.5 v -7.5 z m -25.684 -2.635 c 3.965 -0.076 2.302 -7.807 -1.107 -8.464 -4.574 -0.882 -4.502 2.594 -3.844 6.473 1.053 4.579 1.159 2.174 4.951 1.99 z m 25.684 -17.365 v -3.5 h -7.5 h -7.5 v 3.5 v 3.5 h 7.5 h 7.5 z m 16 -20.04 v -7.464 h -23.5 h -23.5 v 7.333 c 0 4.03 0.187 7.521 0.415 7.75 0.228 0.229 10.803 0.288 23.5 0.131 l 23.09 -0.286 z m -96.6 -21.795 c 0.409 -10.05 -1.4 -11.484 -1.4 0.164 0 2.148 -0.482 3.167 -1.5 3.167 -1.152 0 -1.5 -1.278 -1.5 -5.5 0 -5.292 0.138 -6.05 2.667 -5.5 2.134 0.466 2.374 -0.74 -1.025 -1.153 l -2.859 -0.347 l 0.053 6.75 c 0.029 3.713 0.078 6.877 0.109 7.03 0.031 0.156 1.293 0.229 2.806 0.162 2.512 -0.111 2.523 -1.639 2.65 -4.776 z m 40.6 -2.226 v -7.557 l -4.25 0.307 c -2.873 0.208 -4.162 0.734 -3.978 1.625 0.15 0.724 -0.766 3.654 -0.425 6.917 l 0.62 5.933 l 4.675 0.333 h 3.358 z m 56 3.557 v -4 h -22.5 c -12.375 0 -22.838 -0.112 -23.25 -0.25 -0.412 -0.138 -0.888 1.662 -1.058 4 l -0.308 4.25 h 23.558 h 23.558 z m -88 -23.5 v -3.312 l -8 -0.086 l -8 -0.086 v 3.483 v 3.483 l 8 -0.086 l 8 -0.086 z m 31.81 -0.021 c -0.171 -1.936 -0.648 -3.511 -1.06 -3.5 -0.412 0.011 -3.675 0.021 -7.25 0.021 h -6.5 v 3.5 v 3.5 h 7.56 h 7.56 z m 56.19 0.021 v -3.5 h -23.5 h -23.5 v 3.5 v 3.5 h 23.5 h 23.5 z m -80 -24 c 0 -4.476 -0.019 -4.5 -3.5 -4.5 -3.481 0 -3.5 0.024 -3.5 4.5 0 4.476 0.019 4.5 3.5 4.5 3.481 0 3.5 -0.024 3.5 -4.5 z m 56.5 0 v -4 l -12.5 -0.5 l -12.5 -0.5 l 0.325 -3.25 l 0.325 -3.25 h -7.481 h -7.481 l -0.086 8.02 l -0.086 8.02 l 19.742 -0.271 l 19.742 -0.271 z m -34.732 -6.225 c 1.797 -0.223 4.497 -0.218 6 0.01 1.503 0.228 0.032 0.41 -3.268 0.405 -3.3 -0.006 -4.529 -0.192 -2.732 -0.415 z" fill="#167689"/><g transform="matrix(1.25894 0 0 1.59092 -32.06 -84.27)"><path d="m 143.64 62.806 l -19.798 -0.224 v -2.369 c 0.652 -4.069 -3.896 -2.241 -6.861 -2.143 -6.838 0.226 -6.861 0.234 -7.109 2.383 l -0.248 2.156 h -17.589 c -9.674 0 -20.854 1.397 -19.891 -0.127 0.027 -4.544 0.544 -5 0.166 -5.922 l 0.056 -3.151 l 48.24 -0.209 l 46.985 0.209 l 0.419 4.887 c 0.411 4.799 -1.143 5.086 -2.81 4.914 -0.97 -0.1 -10.673 -0.283 -21.562 -0.405 z m 17.837 -2.549 c 0 -2.461 -0.309 -2.613 -5.083 -2.602 -2.911 0.007 -6.495 -0.31 -6.887 0.354 -0.458 0.776 -2.113 3.065 0.044 3.074 1.592 0.007 5.749 -0.18 5.262 -0.041 -2.245 0.641 2.084 -0.262 3.784 -0.262 2.567 0 2.881 1.409 2.881 0.106 z" fill="#be726c" stroke="#be726c" stroke-width="0.529"/><g fill="#d0b18c" stroke="#d0b18c" stroke-width="0.23"><path d="m 88.81 124.46 v -2.043 h 6.3 h 6.3 v 2.043 v 2.043 h -6.3 h -6.3 v -2.043 z"/><path d="m 88.81 139.39 l 0.195 -1.703 l 2.922 -0.169 c 1.716 -0.1 4.626 0.221 6.47 0.221 h 3.353 v 1.666 c 0 1.205 -0.149 1.723 -0.539 1.873 -0.296 0.114 -3.208 0.207 -6.47 0.207 h -5.931 z"/><path d="m 89.49 154.77 v -2.043 h 5.959 h 5.959 v 2.043 v 2.043 h -5.959 h -5.959 v -2.043 z"/><path d="m 83.59 166.46 c -0.125 -0.125 -0.227 -0.886 -0.227 -1.691 0 -1.099 0.164 -1.552 0.659 -1.816 0.756 -0.404 4.082 -0.467 4.678 -0.089 0.621 0.395 0.867 1.881 0.48 2.899 -0.338 0.888 -0.445 0.923 -2.857 0.923 -1.378 0 -2.608 -0.102 -2.733 -0.227 z"/><path d="m 95.85 165.44 c -0.287 -1.769 0.192 -2.425 1.965 -2.691 2.22 -0.333 3.401 0.159 3.531 1.472 0.199 2 -0.349 2.458 -2.967 2.458 h -2.327 l -0.201 -1.24 z"/><path d="m 83.36 179.79 v -1.873 h 9.535 h 9.535 v 1.873 v 1.873 h -9.535 h -9.535 z"/><path d="m 88.81 194.95 v -2.043 h 6.3 h 6.3 v 2.043 v 2.043 h -6.3 h -6.3 v -2.043 z"/></g></g></g></svg>