<svg xmlns="http://www.w3.org/2000/svg" viewBox="0 0 256 256"><path d="m 117.8 254.22 c 152.08 14.54 193.02 -230.68 36.856 -249.72 -143.59 -23.602 -217.54 198.67 -74.864 243.12 c 12.06 4.871 25.25 4.777 38.01 6.594 z" fill="#ff7f50" color="#000"/><g transform="matrix(1.35396 0 0 1.4244 -62.27 -72.06)"><path transform="translate(70.866 70.866)" d="m 124.32 73.57 a 54.05 44.14 0 1 1 -108.1 0 54.05 44.14 0 1 1 108.1 0 z" fill="#fff"/><path d="m 175.46 96.19 h -67.46 c -13.925 10.34 -22.965 26.905 -22.965 45.542 0 31.26 25.438 56.693 56.696 56.693 31.26 0 56.689 -25.434 56.689 -56.693 0 -18.639 -9.04 -35.2 -22.962 -45.542 z m -82.78 45.727 c -1.266 -2.19 -1.266 -4.887 0 -7.08 5.688 -9.823 16.259 -15.924 27.59 -15.924 8.03 0 15.678 3.064 21.475 8.343 l -0.019 0.023 c 5.8 -5.285 13.453 -8.354 21.487 -8.354 3.9 0 7.06 3.164 7.06 7.06 0 3.901 -3.161 7.06 -7.06 7.06 -4.81 0 -9.371 1.976 -12.672 5.338 3.301 3.363 7.862 5.339 12.672 5.339 3.9 0 7.06 3.164 7.06 7.06 0 3.9 -3.161 7.06 -7.06 7.06 -8.03 0 -15.681 -3.064 -21.477 -8.351 v 0.002 c -5.8 5.273 -13.44 8.334 -21.466 8.334 -11.334 0.005 -21.902 -6.099 -27.59 -15.923 z m 80.69 33.691 c -2.845 4.91 -8.128 7.963 -13.794 7.963 -4.01 0 -7.834 -1.529 -10.734 -4.166 l 0.014 -0.014 c -2.9 2.647 -6.73 4.184 -10.75 4.184 -1.95 0 -3.535 -1.578 -3.535 -3.529 0 -1.949 1.585 -3.531 3.535 -3.531 2.402 0 4.684 -0.986 6.333 -2.67 -1.65 -1.682 -3.932 -2.668 -6.333 -2.668 -1.95 0 -3.535 -1.582 -3.535 -3.531 0 -1.951 1.585 -3.533 3.535 -3.533 4.02 0 7.859 1.544 10.758 4.195 l -0.024 -0.031 c 2.899 -2.639 6.719 -4.168 10.736 -4.168 5.666 0 10.949 3.05 13.794 7.961 0.631 1.095 0.631 2.445 0 3.538 z m -5.01 -3.509 c 0 1.957 -1.587 3.543 -3.544 3.543 -1.956 0 -3.543 -1.586 -3.543 -3.543 0 -1.959 1.587 -3.545 3.543 -3.545 1.957 0 3.544 1.586 3.544 3.545 z m -51.49 -37.2 c 0 3.912 -3.172 7.086 -7.087 7.086 -3.912 0 -7.085 -3.174 -7.085 -7.086 0 -3.914 3.173 -7.087 7.085 -7.087 3.916 0 7.087 3.173 7.087 7.087 z" fill="#dd4814"/></g></svg>