<svg xmlns="http://www.w3.org/2000/svg" viewBox="0 0 256 256"><g transform="matrix(0.98681 0.16393 -0.02679 1.02156 4.577 -26.337)" color="#000"><path d="m 61.6 228.42 c 72.54 80.29 198.01 -37.417 192.57 -163.55 -16.656 -106.51 -269.29 -65.45 -252.21 65.1 5.087 38.844 28.1 72.53 59.64 98.46 z" fill="#bc8f8f"/><g transform="matrix(5.11172 -0.82026 0.13617 5.015 3.771 27.777)" fill="#ff4500"><path d="m 18.12 18.12 l -5.117 -5.117 c 0 3 0 6 3 9 -3 0 -6 -2 -6 -2 0 0 0 5 5 7 h -5 c 0 0 0 3 7 5 -2 1 -4 1 -4 1 0 0 2.504 2.49 7 3.539 0.025 1 1.036 2.46 3.998 2.461 2.962 0.001 3.973 -1.461 3.998 -2.461 4.498 -1.049 7 -3.539 7 -3.539 0 0 -2 0 -4 -1 7 -2 7 -5 7 -5 h -5 c 5 -2 5 -7 5 -7 0 0 -3 2 -6 2 3 -3 3 -6 3 -9 l -5.117 5.117 z" opacity="0.1"/><path d="m 13,12 c 0,3 0,6 3,9 -3,0 -6,-2 -6,-2 0,0 0,5 5,7 h -5 c 0,0 0,3 7,5 -2,1 -4,1 -4,1 0,0 4,4 11,4 7,0 11,-4 11,-4 0,0 -2,0 -4,-1 7,-2 7,-5 7,-5 h -5 c 5,-2 5,-7 5,-7 0,0 -3,2 -6,2 3,-3 3,-6 3,-9 L 24,23 z" fill="#ffe4e1"/><path d="m 24,22 -4,2 v 11.5 c 0,1 1,2.5 4,2.5005 3,5e-4 4,-1.5005 4,-2.5005 V 24 z"/><path d="m 20 18 v 6 c 0.421 0.28 1.717 1 4 1 2.283 0 3.579 -0.72 4 -1 v -6 z" fill="#ff7f50"/><circle r="6" cy="16" cx="24" fill="#cd5c5c"/></g></g></svg>