<svg xmlns="http://www.w3.org/2000/svg" viewBox="0 0 256 256"><g fill="#046ba8" color="#000"><path d="m -461.56 1509.46 c -102.66 -72.48 -252.13 71.24 -188.42 177.65 55.11 98.31 215.88 55.803 236.4 -48.33 13.01 -47.39 -5.347 -103.13 -47.986 -129.32 z" transform="matrix(-0.52642 -0.82804 -0.9228 0.48384 1338.49 -1100.87)"/></g><g transform="matrix(1 0 0 1.02716 0 -4.214)" fill="#b1c805" stroke="#b1c805"><path d="m 22.798 152.58 c -3.611 -1.523 -6.444 -4.179 -7.78 -7.294 -1.313 -3.063 -2.594 -9.403 -2.594 -12.844 0 -2.377 0.182 -2.899 1.327 -3.8 1.76 -1.384 3.499 -1.332 4.459 0.134 0.425 0.648 1.232 3.312 1.793 5.92 1.268 5.884 3.088 9.791 5.03 10.796 2.899 1.133 6.365 0.844 8.249 -0.789 2.781 -2.441 3.063 -4.03 2.01 -11.334 -0.899 -6.236 -0.899 -6.276 0.128 -7.657 0.666 -0.895 1.592 -1.444 2.608 -1.546 1.321 -0.132 1.742 0.113 2.601 1.511 0.564 0.918 1.385 2.915 1.826 4.439 2.989 10.337 3.922 12.08 6.991 13.1 2.354 0.777 4.591 0.022 6.843 -2.308 3.035 -2.509 1.727 -6.83 1.727 -10.445 v -8.658 l 1.908 -0.471 c 1.647 -0.407 2.056 -0.323 2.988 0.609 0.965 0.965 1.068 1.563 0.963 5.624 -0.064 2.499 0.139 6.407 0.45 8.685 0.718 5.244 0.368 7.05 -1.843 9.494 -2.864 3.171 -5.892 4.02 -14.304 4.02 -6.94 0 -7.084 0.023 -11.443 1.834 -5.923 2.461 -9.786 2.732 -13.942 0.98 z" stroke-width="2.957"/><path d="m 84.05 149.73 c -5.588 -0.83 -10.723 -4.804 -13.522 -10.467 -1.161 -2.348 -1.413 -3.576 -1.413 -6.886 0 -3.469 0.221 -4.448 1.593 -7.05 0.876 -1.662 3.087 -4.489 4.913 -6.284 1.826 -1.794 3.319 -3.511 3.319 -3.814 0 -0.303 -1.133 -0.874 -2.518 -1.27 -2.751 -0.785 -3.763 -2.263 -3.146 -4.596 0.624 -2.358 10.454 -7.941 13.998 -7.951 1.821 -0.005 3.349 1.445 3.349 3.177 0 0.519 -1.553 2.47 -3.452 4.334 -1.899 1.865 -5.72 3.039 -6.441 5.742 -0.521 1.954 5.677 -0.814 8.963 -0.202 10.391 1.935 13.965 2.356 12.279 10.359 -0.459 2.179 0.09 6.882 1.726 9.66 2.609 4.43 1.257 6.159 1.039 6.981 -0.454 1.714 -5.278 6.289 -7.828 7.425 -2.376 1.058 -8.642 1.467 -12.861 0.841 z m 7.469 -9.58 c 3.299 -1.182 6.01 -4.691 6.01 -7.781 0 -2.184 -0.642 -3.467 -2.852 -5.7 -3.044 -3.075 -5.509 -3.738 -8.9 -2.395 -4.131 1.637 -6.305 4.431 -6.305 8.103 0 5.857 6.211 9.864 12.05 7.773 z" stroke-width="0.983"/><g stroke-width="0.957"><path d="m 124.62 150.02 c -5.918 -1.627 -12.5 -6.412 -15.232 -11.07 -4.267 -7.28 -4.755 -16.99 -1.22 -24.267 2.96 -6.093 12.722 -13.376 14.366 -10.717 0.479 0.775 4.19 2.292 6.603 2.7 1.67 0.282 2.887 0.016 6.64 -1.45 2.527 -0.988 5.01 -1.796 5.527 -1.796 2.381 0 9.576 6.443 11.574 10.365 1.822 3.577 2.63 7.276 2.63 12.04 0 8.01 -2.142 13.553 -6.932 17.932 -6.173 5.642 -16.448 8.33 -23.956 6.266 z m 11.842 -14.732 c 6.914 -3.906 7.817 -11.169 2.119 -17.03 -2.578 -2.653 -4.854 -3.754 -7.759 -3.754 -7.987 0 -14.179 9.267 -10.639 15.923 1.772 3.331 3.503 4.95 6.478 6.06 2.761 1.029 6.719 0.546 9.802 -1.195 z"/><path d="m 129.28 102.24 c -2.255 -0.794 -10.222 -4.614 -13.18 -6.32 -6.119 -3.528 -7.598 -6.893 -4.425 -10.07 1.428 -1.428 1.731 -1.519 4.156 -1.253 5.211 0.571 15.658 4.959 19.251 8.09 2.01 1.748 2.395 3.612 1.297 6.262 -0.983 2.372 -4.75 4.12 -7.1 3.292 z"/></g><path d="m 195.06 150.74 c -1.108 -0.226 -3.656 -0.993 -5.661 -1.703 l -3.646 -1.292 l -3.912 1.383 c -3.321 1.174 -4.711 1.382 -9.202 1.378 -6.263 -0.006 -7.974 -0.693 -11.733 -4.712 -3.553 -3.799 -3.628 -4.228 -1.825 -10.532 0.933 -3.263 1.678 -7.293 1.883 -10.186 0.367 -5.187 0.914 -5.909 2.67 -3.527 0.721 0.978 2.712 2.335 3.117 7.813 0.591 8 -0.66 10.181 1.157 11.888 1.133 1.064 1.759 1.208 5.266 1.208 3.752 0 4.067 -0.087 5.493 -1.513 1.773 -1.773 2.353 -4.325 2.82 -12.407 0.39 -6.757 1.243 -8.499 4.156 -8.499 2.135 0 3.664 1.227 4.596 3.685 0.296 0.78 0.541 4.181 0.545 7.557 0.005 3.907 0.237 6.597 0.64 7.398 0.348 0.693 1.731 1.996 3.072 2.897 3.283 2.203 5.541 2.203 8.412 0 3.834 -2.942 4.127 -3.637 4.566 -10.822 0.501 -8.193 0.763 -9.58 1.932 -10.206 2.598 -1.39 5.486 0.507 6.511 4.276 0.954 3.508 0.577 9.665 -0.934 15.28 -1.112 4.13 -5.444 8.354 -10.1 9.85 -2.972 0.955 -7.307 1.302 -9.824 0.788 z" stroke-width="1.957"/><g stroke-width="0.957"><path d="m 222.99 150.92 c -4.403 -3.705 -3.067 -9.721 2.491 -11.218 2.367 -0.637 5.518 -0.026 6.879 1.335 1.771 1.771 2.308 5.88 1.062 8.126 -1.841 3.317 -7.454 4.262 -10.432 1.757 z"/><path d="m 226.65 132.57 c -3.398 -1.682 -3.838 -3.02 -3.452 -10.505 0.752 -14.587 2.903 -20.777 7.473 -21.503 4.427 -0.704 8.145 1.561 8.578 5.224 0.544 4.6 -1.51 19.434 -3.251 23.481 -0.855 1.987 -1.484 2.676 -3.122 3.42 -2.647 1.202 -3.599 1.184 -6.227 -0.116 z"/></g></g></svg>