<svg xmlns="http://www.w3.org/2000/svg" viewBox="0 0 256 256"><defs><clipPath><rect y="6" x="6" rx="6" height="80" width="84" fill="#fff"/></clipPath><clipPath><rect y="6" x="6" rx="6" height="84" width="84" fill="#ff2a2a"/></clipPath><clipPath><rect y="6" x="6" rx="6" height="80" width="84" fill="#fff"/></clipPath><clipPath><rect y="6" x="6" rx="6" height="80" width="84" fill="#fff"/></clipPath><filter height="1.429" y="-0.214" width="1.429" x="-0.214" id="1"><feGaussianBlur stdDeviation="0.39459"/></filter><filter height="1.303" y="-0.152" width="1.199" x="-0.099" id="0"><feGaussianBlur stdDeviation="3.16378"/></filter><linearGradient id="2" gradientUnits="userSpaceOnUse" x1="23.629" x2="13.155"><stop stop-color="#82f8e1"/><stop offset="1" stop-color="#82f8e1" stop-opacity="0"/></linearGradient></defs><path d="m 233.98 203.47 c -48.541 88.14 -200.63 53.931 -226.36 -18.64 -30.66 -86.45 49.14 -250.63 184.3 -154.45 45.527 33.585 90.6 84.949 42.05 173.09 z" fill="#152420" color="#000"/><g transform="matrix(1.98785 0 0 1.93131 29.821 -1805.28)"><g><path d="m 9,973.612 h 77 v 1.5 H 9 z" opacity="0.2" fill="#2b3936"/><g fill="#46e5cc"><path d="m 9,1003.86 h 78 v 1 H 9 z" opacity="0.2"/><path d="m 9,1013.86 h 78 v 1 H 9 z" opacity="0.2"/><path d="m 9,1023.86 h 78 v 1 H 9 z" opacity="0.2"/><path d="m 9,1033.86 h 78 v 1 H 9 z" opacity="0.2"/><path d="m 9,993.862 h 78 v 1 H 9 z" opacity="0.2"/><path d="m 9,983.862 h 78 v 1 H 9 z" opacity="0.2"/><path d="m 9,973.862 h 78 v 1 H 9 z" opacity="0.2"/><g transform="matrix(0 1 -1 0 0 0)"><path d="m 965.36 -48.5 h 77.998 v 1 h -77.998 z" opacity="0.2"/><path d="m 965.36 -38.5 h 77.998 v 1 h -77.998 z" opacity="0.2"/><path d="m 965.36 -28.5 h 77.998 v 1 h -77.998 z" opacity="0.2"/><path d="m 965.36 -18.5 h 77.998 v 1 h -77.998 z" opacity="0.2"/><path d="m 965.36 -58.5 h 77.998 v 1 h -77.998 z" opacity="0.2"/><path d="m 965.36 -68.5 h 77.998 v 1 h -77.998 z" opacity="0.2"/><path d="m 965.36 -78.5 h 77.998 v 1 h -77.998 z" opacity="0.2"/></g></g></g><path d="m 6.904 1009.01 h 16.325 c 2.563 -4.439 4.598 -4.592 7.249 0 h 7.662 l 1.881 5.507 l 3.224 -42.58 l 3.627 50.1 l 3.358 -13.03 h 8.194 c 2.912 -10.868 11.588 -10.892 14.507 0 h 10.425" fill="none" stroke="url(#2)" stroke-linejoin="round" stroke-linecap="round" stroke-width="2.149"/><path d="m 82.908 51.894 a 2.21 2.21 0 1 1 -4.419 0 2.21 2.21 0 1 1 4.419 0 z" transform="matrix(1.07457 0 0 1.07457 -3.27 953.33)" fill="#76fbe2" filter="url(#1)"/><path d="m 6.904 1009.01 h 16.325 c 2.563 -4.439 4.598 -4.592 7.249 0 h 7.662 l 1.881 5.507 l 3.224 -42.58 l 3.627 50.1 l 3.358 -13.03 h 8.194 c 2.912 -10.868 11.588 -10.892 14.507 0 h 10.425" fill="none" filter="url(#0)" stroke="url(#2)" stroke-linejoin="round" stroke-linecap="round" stroke-width="2.149"/><path transform="matrix(1.07457 0 0 1.07457 -3.27 953.33)" d="m 82.908 51.894 a 2.21 2.21 0 1 1 -4.419 0 2.21 2.21 0 1 1 4.419 0 z" fill="#76fbe2"/></g></svg>