<svg xmlns="http://www.w3.org/2000/svg" xmlns:xlink="http://www.w3.org/1999/xlink" viewBox="0 0 256 256"><defs><path d="m 245.46 129.52 l -97.89 -96.9 c -5.556 -5.502 -16.222 -11.873 -23.7 -14.16 l -39.518 -12.08 c -7.479 -2.286 -18.1 0.391 -23.599 5.948 l -13.441 13.578 c -5.5 5.559 -14.502 14.653 -20 20.21 l -13.44 13.579 c -5.5 5.558 -8.07 16.206 -5.706 23.658 l 12.483 39.39 c 2.363 7.456 8.843 18.06 14.399 23.556 l 97.89 96.9 c 5.558 5.502 14.605 5.455 20.1 -0.101 l 36.26 -36.63 c 5.504 -5.559 14.503 -14.651 20 -20.21 l 36.26 -36.629 c 5.502 -5.56 5.455 -14.606 -0.101 -20.11 z m -178.09 -50.74 c -7.198 0 -13.03 -5.835 -13.03 -13.03 0 -7.197 5.835 -13.03 13.03 -13.03 7.197 0 13.03 5.835 13.03 13.03 -0.001 7.198 -5.836 13.03 -13.03 13.03 z" id="0"/><use id="1" xlink:href="#0"/><clipPath id="2"><use xlink:href="#0"/></clipPath><clipPath clip-path="url(#2)"><use xlink:href="#1"/></clipPath><clipPath clip-path="url(#2)"><use xlink:href="#1"/></clipPath></defs><g fill="#2f4f4f" color="#000"><path d="M 212.32,840.15 C 342.21,945 152.05,1134.27 37.11,1013.36 -78.08,909.3 101.7,707.34 212.32,840.15 z" transform="matrix(0 0.98696 -1 0 1052.37 3.34)"/></g><path d="m 63.17 130.48 a 86.78 88.41 0 1 1 -0.039 0.538" transform="matrix(-0.97748 0 0 0.97411 275.57 -4.209)" fill="#2b74e2" stroke="#2b74e2" stroke-width="4"/><g transform="translate(11.932 1.085)"><path d="m 126.94 213.15 c -2.41 -0.45 -16.379 -6.716 -20.828 -11.235 -7.506 -7.626 -7.979 -8.64 -6.567 -14.09 1.035 -3.994 0.791 -7.521 -0.762 -11.03 -1.921 -4.34 -3.305 -5.158 -8.72 -5.158 -3.755 0 -8.173 -1.425 -10.605 -3.421 -3.549 -2.913 -3.839 -3.896 -1.949 -6.622 5.674 -8.18 6.486 -11.292 3.979 -15.25 -3.595 -5.676 -2.857 -14.524 -8.419 -18.42 -3.794 -2.518 -4.08 -2.379 -5.911 2.876 -2.3 6.599 -2.728 6.643 -9.525 0.985 -4.796 -3.992 -5 -4.579 -2.207 -6.204 3.819 -2.218 3.919 -4.84 0.337 -8.797 -2.503 -2.766 -2.423 -3.657 0.883 -9.825 6.442 -12.02 4.02 -20.773 -5.237 -18.922 -10.512 2.103 -8.762 -6.475 3.418 -16.745 l 8.587 -7.24 l 10.353 5.347 c 8.176 4.223 11.753 5.132 17.02 4.324 12.885 -1.094 25.35 2.891 37.977 1.016 5.128 -0.811 9.669 -0.916 10.09 -0.234 0.422 0.682 -1.689 3.547 -4.691 6.366 -7.29 6.848 -11.989 17.484 -12.04 27.25 -0.068 13.935 -10.65 22.383 -13.04 10.413 -1.251 -6.256 -5.398 -6.517 -9.329 -0.586 -2.156 3.253 -2.022 4.238 1.113 8.224 1.959 2.491 3.563 6.986 3.563 9.989 v 5.46 l 11.04 0.105 c 13.698 0.13 31.885 6.318 32.818 11.167 0.395 2.052 -0.836 9.252 -3.926 11.715 -6.92 4.747 -1.118 12.06 1.587 19.603 1.69 4.716 -3.528 6.397 -3.533 12.335 -3.42 22.17 -6.212 15.832 -15.468 16.604 z" fill="#258935" stroke="#24863f"/><path d="m 136.8 113.84 a 41.763 36.34 0 1 1 -0.019 0.221" transform="matrix(-1.03572 0 0 1.10074 349.7 -16.629)" fill="#950000" stroke="#000" stroke-width="5.873"/><path d="m 162.3 62.61 c -17.679 -1.301 -33.11 -2.883 -50.05 -7.541 -11.49 -3.152 -18.08 -6.562 -18.08 -9.355 0 -1.721 2.431 -2.188 15.11 -2.901 19.521 -1.097 30.2 1.209 48.17 10.404 6.751 3.454 8.08 4.513 8.338 6.654 0.403 3.313 -0.719 4.195 -3.486 2.738 z" fill="#258931" stroke="#258931" stroke-width="0.944"/></g><path d="m 218.18 208.82 a 8.797 27.49 0 1 1 -0.004 0.167" transform="matrix(1.50391 0 0 1.24925 -164.73 -150.65)" stroke="#ac0000"/></svg>