<svg xmlns="http://www.w3.org/2000/svg" viewBox="0 0 256 256"><path d="m -1583.78 1962.12 c -329.42 135.66 -174.65 -434.9 40.478 -157.85 37.47 49.706 40.36 133.17 -40.478 157.85 z" fill="#336ca5" transform="translate(1774.03 -1727.32)" color="#000"/><g fill="#fff" stroke="#fff" stroke-width="1.085"><path d="m 85.21 190.85 c -15.28 -11.01 -15.05 -9.94 -3.767 -17.192 5.278 -3.394 9.953 -6.17 10.387 -6.17 2.045 0 13.61 9.207 13.61 10.835 0 2.581 -4.04 14.03 -6.01 17.04 -0.9 1.374 -2.279 2.499 -3.064 2.499 -0.785 0 -5.807 -3.155 -11.16 -7.01 z"/><path d="m 63.31 168.87 c -1.169 -2.209 -7.111 -19.959 -8.181 -24.44 l -0.712 -2.983 h 10.791 c 12.561 0 12.764 0.122 16.404 9.854 l 2.534 6.775 l -3.589 2.997 c -1.974 1.648 -6.432 4.512 -9.906 6.363 -5.86 3.124 -6.39 3.227 -7.339 1.435 z"/><path d="m 55.81 129.9 c -2.237 -0.935 -1.562 -5.679 2.716 -19.09 l 4.064 -12.742 l 9.01 7.113 c 4.955 3.912 9.281 7.823 9.614 8.691 0.333 0.868 -0.548 4.865 -1.958 8.883 l -2.563 7.305 l -9.763 0.205 c -5.369 0.113 -10.373 -0.05 -11.12 -0.362 z"/><path d="m 82.6 100.41 c -5.597 -3.573 -11.873 -9.752 -11.873 -11.689 c 0 -0.736 5.127 -5.297 11.394 -10.134 l 11.394 -8.796 l -2.174 -4.261 c -1.195 -2.343 -2.174 -4.694 -2.174 -5.224 0 -1.883 36.29 5.384 38.757 7.762 1.046 1.01 -0.126 3.732 -5.444 12.657 c -7.107 11.928 -13.566 21.679 -14.36 21.679 c -0.258 0 -1.469 -1.962 -2.692 -4.36 -2.532 -4.963 -2.811 -4.921 -12.07 1.796 -2.765 2.01 -5.232 3.648 -5.483 3.648 -0.251 0 -2.626 -1.385 -5.278 -3.079 z"/><path d="m 148.28 95.5 c -5.631 -4.02 -6.463 -5.064 -6.173 -7.706 0.44 -4.01 5.435 -16.428 7.191 -17.886 1.016 -0.843 3.78 0.487 10.591 5.097 5.069 3.431 10.852 7.502 12.851 9.05 l 3.634 2.809 l -9.938 6.682 c -5.466 3.675 -10.323 6.666 -10.793 6.645 -0.47 -0.02 -3.784 -2.131 -7.364 -4.689 z"/><path d="m 172.15 125.49 c -2.811 -0.371 -3.594 -1.271 -5.748 -6.606 -1.371 -3.397 -2.77 -6.797 -3.109 -7.557 -0.86 -1.931 5.793 -7.907 13.01 -11.687 5.97 -3.126 6.098 -3.143 7.633 -1.044 0.859 1.174 3.152 7.27 5.097 13.547 1.945 6.277 3.752 12.02 4.02 12.768 0.363 1.023 -1.742 1.313 -8.585 1.182 -4.986 -0.096 -10.53 -0.367 -12.319 -0.604 z"/><path d="m 174.87 161.45 c -4.472 -3.826 -8.314 -7.502 -8.536 -8.17 -0.223 -0.668 0.444 -4.348 1.481 -8.179 2.333 -8.618 3.849 -9.588 13.464 -8.609 10.204 1.038 12.03 1.642 12.03 3.981 0 2.685 -8.734 28.12 -9.62 28.02 -0.377 -0.045 -4.344 -3.213 -8.817 -7.04 z"/><path d="m 141.16 204.93 c -18.704 -4.079 -22.21 -5.287 -21.817 -7.516 0.455 -2.576 13.447 -24.413 17.13 -28.787 l 2.891 -3.435 l 1.97 4.399 c 1.083 2.419 2.313 4.399 2.734 4.399 0.42 0 4.04 -2.241 8.05 -4.98 7.178 -4.904 7.338 -4.954 10.575 -3.28 5.351 2.767 14.825 12.02 13.877 13.558 -0.46 0.744 -5.448 4.758 -11.09 8.922 -5.637 4.163 -10.505 8.237 -10.818 9.05 -0.313 0.815 0.199 2.966 1.137 4.78 3.376 6.529 2.68 6.666 -14.642 2.888 z"/></g></svg>