<svg xmlns="http://www.w3.org/2000/svg" viewBox="0 0 256 256"><defs><clipPath><path transform="matrix(15.33333 0 0 11.5 415 -125.5)" d="m -24 13 c 0 1.105 -0.672 2 -1.5 2 -0.828 0 -1.5 -0.895 -1.5 -2 0 -1.105 0.672 -2 1.5 -2 0.828 0 1.5 0.895 1.5 2 z"/></clipPath></defs><path d="m 130.42 1050.99 c -26.397 -2.048 -57.29 -14.657 -78.83 -32.17 -26.2 -21.308 -45.35 -53.989 -50.5 -86.2 -6.136 -42.554 18.578 -88.29 46.47 -109.99 14.03 -10.568 32.581 -18.979 49.988 -22.658 45.3 -9.582 92.56 8.559 124.96 47.965 19.418 23.62 29.473 47.43 31.924 75.6 2.939 33.769 -10.415 69.981 -34.795 94.36 -27.743 22.988 -56.27 35.463 -89.22 33.11 z" transform="translate(0 -796.36)" fill="#f5f5f5"/><g transform="matrix(0.15859 0 0 0.15362 51.727 60.55)" fill="#999"><path d="m 147.74814,601.19 c -18.17,-4.99 -35.889,-21.828 -43.638,-41.478 -5.195001,-13.172 -23.966002,-79.26 -89.760002,-316 l -9.8659999,-35.5 44.5179999,-0.26 c 24.485,-0.143 44.831001,0.082 45.210001,0.5 0.383,0.418 17.050001,64.935 37.040001,143.37 l 36.34,142.61 17.274,-66.11 c 41.02,-156.99 47.988,-182.31 53.17,-193.18 6.976,-14.653 19.17,-25.12 33.647,-28.895 7.628,-1.987 25.21,-2.01 32.765,-0.04 15.955,4.156 28.425,15.66 35.29,32.555 4.187,10.303 13.196,43.47 46.844,172.45 11.335,43.45 20.935,79.79 21.334,80.75 0.451,1.087 14.501,-52.22 37.23,-141.24 l 36.5,-142.99 45.22,-0.006 c 35.741,-0.005 45.13,0.256 44.786,1.244 -0.238,0.688 -9.867,35.22 -21.397,76.75 -55.1,198.44 -74.29,265.08 -79.69,276.84 -9.176,19.969 -24.597,33.845 -42.914,38.616 -7.652,1.993 -24.288,2.01 -31.874,0.035 -10.565,-2.752 -16.608,-6.389 -25.672,-15.452 -7.079,-7.079 -9.339,-10.165 -13.206,-18.04 -6.322,-12.874 -12.416,-33.87 -51.23,-176.5 -9.129,-33.55 -16.85,-61.675 -17.16,-62.5 -0.308,-0.825 -9.728,31.98 -20.933,72.9 -24.628,89.94 -37.601,136.4 -41.633,149.1 -8.714,27.454 -24.558,45.03 -45.45,50.42 -7.533,1.942 -25.774,1.977 -32.748,0.062 z m 468.39,-137.98 v -136.5 h 42.5 42.5 v 136.5 136.5 h -42.5 -42.5 v -136.5 z m 171,0 v -136.5 h 42.5 42.5 v 136.5 136.5 h -42.5 -42.5 v -136.5 z m 117,123 v -13.5 h -5 c -4.667,0 -5,-0.167 -5,-2.5 v -2.5 h 13 13 v 2.5 c 0,2.333 -0.333,2.5 -5,2.5 h -5 v 13.5 13.5 h -3 -3 v -13.5 z m 18,-2.5 v -16 h 4.457 4.457 l 3.043,9.861 c 1.674,5.423 3.043,10.463 3.043,11.2 0,3.122 1.954,-1.178 4.911,-10.811 l 3.147,-10.25 h 4.471 4.471 v 16 16 h -3 -3 l -0.079,-11.25 c -0.085,-12.163 -0.036,-12.191 -4.445,2.558 -2.631,8.8 -2.635,8.807 -5.774,8.5 -3.079,-0.301 -3.202,-0.515 -6.172,-10.808 l -3.03,-10.5 -0.284,10.75 -0.284,10.75 h -2.966 -2.966 v -16 z m -275.5,-304.1 c -19.261,-3.903 -35.21,-20.392 -38.481,-39.785 -3.985,-23.626 11.769,-47.39 35.516,-53.58 12.12,-3.157 27.642,-1.517 38.702,4.087 6.624,3.357 16.688,12.99 20.08,19.217 11.64,21.387 4.745,49.29 -15.371,62.2 -11.153,7.157 -27.875,10.407 -40.444,7.86 z m 171,0 c -24.943,-5.05 -42.598,-29.911 -38.57,-54.3 3.09,-18.711 17.291,-34.29 35.605,-39.06 12.11,-3.154 27.643,-1.517 38.678,4.075 6.648,3.369 16.03,12.322 19.779,18.878 12.05,21.06 5.191,49.562 -15.05,62.55 -11.153,7.157 -27.875,10.407 -40.444,7.86 z"/><g fill="#999"><g transform="matrix(6.30563 0 0 6.5097 -326.17 -394.16)"><path d="m 99.98 174.56 v -9.269 h -3.817 h -3.817 v -1.908 v -1.908 h 10.632 h 10.632 v 1.908 v 1.908 h -4.089 h -4.089 v 9.269 v 9.269 h -2.726 h -2.726 v -9.269 z"/><path d="m 116.88 172.65 v -11.177 h 2.703 h 2.703 l 0.159 4.225 l 0.159 4.225 l 4.771 0.158 l 4.771 0.158 v -4.383 v -4.383 h 2.726 h 2.726 v 11.177 v 11.177 h -2.726 h -2.726 v -4.907 v -4.907 h -4.907 h -4.907 v 4.907 v 4.907 h -2.726 h -2.726 v -11.177 z"/><path d="m 150.02 183.29 c -4.478 -1.35 -7.11 -5.334 -7.11 -10.761 0 -5.01 1.698 -8.07 5.613 -10.137 2.683 -1.414 3.366 -1.543 6.961 -1.322 3.287 0.202 4.379 0.522 6.221 1.824 6.954 4.913 6.105 16.473 -1.462 19.91 -2.322 1.055 -7.516 1.302 -10.223 0.486 z m 7.777 -3.839 c 1.647 -0.882 2.696 -3.484 2.696 -6.691 0 -5.562 -1.792 -8.01 -5.857 -8.01 -2.567 0 -4.382 1.214 -5.378 3.598 -1.454 3.48 -0.791 7.941 1.552 10.442 1.263 1.348 5.04 1.708 6.987 0.665 z"/></g><path d="m 763.82 728.45 v -72.929 l 21.16 1.057 l 21.16 1.057 l 26.11 48.918 l 26.11 48.918 l 0.954 -49.806 l 0.954 -49.806 h 17.1 h 17.1 v 72.76 v 72.76 l -19.768 -0.059 l -19.768 -0.059 l -27.504 -52.3 l -27.504 -52.3 l -0.951 52.35 l -0.951 52.35 h -17.1 h -17.1 v -72.929 z"/></g></g></svg>