<svg xmlns="http://www.w3.org/2000/svg" viewBox="0 0 256 256"><path d="m 3.74 950.97 c 19.829 131.87 217.21 135.83 247.04 7.636 30.702 -103.78 -80.47 -188.63 -163.63 -154.63 -55.684 16.07 -100.67 81.83 -83.41 146.99 z" fill="#dda0dd" color="#000" transform="translate(0 -796.36)"/><path d="m 184.34 212.04 c -1.788 -0.43 -3.796 -1.526 -4.463 -2.435 -3.196 -4.359 -2.101 -13.376 1.902 -15.662 1.42 -0.811 8.737 -1.262 23.947 -1.478 l 21.903 -0.311 v -9.668 v -9.668 l -5.735 -0.647 c -6.411 -0.723 -16.568 -3.633 -21.609 -6.19 -10.672 -5.414 -21.19 -16.399 -26.464 -27.642 -5.172 -11.02 -5.666 -14.173 -6.213 -39.57 -0.458 -21.299 -0.354 -23.691 1.092 -25.13 1.473 -1.47 6.889 -1.594 69.29 -1.594 62.4 0 67.819 0.125 69.29 1.594 1.446 1.442 1.55 3.835 1.092 25.13 -0.546 25.397 -1.041 28.548 -6.213 39.57 -5.275 11.243 -15.792 22.23 -26.464 27.642 -5.04 2.557 -15.198 5.467 -21.609 6.19 l -5.735 0.647 v 9.668 v 9.668 l 21.903 0.311 c 15.44 0.219 22.519 0.662 23.989 1.5 3.078 1.755 4.621 7.724 3.211 12.419 -0.618 2.059 -2.063 4.278 -3.211 4.933 -1.605 0.915 -14.15 1.226 -54.37 1.347 -28.756 0.087 -53.748 -0.195 -55.54 -0.625 z m 70.03 -60.11 c 17.953 -2.932 31.16 -16.655 33.523 -34.838 1.033 -7.935 1.253 -20.665 0.397 -22.891 -0.511 -1.329 -5.823 -1.486 -50.3 -1.486 -44.48 0 -49.788 0.157 -50.3 1.486 -0.856 2.226 -0.636 14.956 0.397 22.891 2.309 17.748 15.624 31.919 32.677 34.778 6.479 1.086 27.1 1.123 33.605 0.06 z m -11.898 -17.16 c -12.212 1.679 -9 -5.845 -9.221 -12.214 l -0.409 -11.993 h 24.932 h 12.247 v 3.644 c 0 8.07 -5.694 15.344 -14.702 18.782 -5.412 2.065 -8.891 1.656 -12.846 1.782 z" fill="#f6f6f6" transform="matrix(0.82637 0 0 0.83332 -70.48 18.597)"/></svg>