<svg xmlns="http://www.w3.org/2000/svg" xmlns:xlink="http://www.w3.org/1999/xlink" viewBox="0 0 256 256"><defs><path d="m -1559.25 -150.68 c 0 0 0 478.33 0 478.33 c -142.87 0.9 -345.4 -107.17 -345.4 -239.2 c 0 -132.03 159.44 -239.13 345.4 -239.13 z" id="8"/><path d="m -1559.25 -150.7 h 1339.63 v 478.36 h -1339.63 z" id="9"/><linearGradient gradientTransform="matrix(1.19644 0 0 1.59915 8.174 -6.503)" y2="12.481" x2="0" y1="7.719" gradientUnits="userSpaceOnUse" id="6"><stop stop-opacity="0.938" stop-color="#0c367d"/><stop stop-opacity="0" stop-color="#204a87" offset="1"/></linearGradient><linearGradient id="A" gradientUnits="userSpaceOnUse" gradientTransform="matrix(2.77439 0 0 1.96971 -1892.18 -872.89)" y1="366.65" x2="0" y2="609.51"><stop stop-opacity="0"/><stop offset="0.5"/><stop stop-opacity="0" offset="1"/></linearGradient><linearGradient y2="21.768" x2="0" y1="11.07" gradientTransform="matrix(0.99385 0 0 0.98482 -0.192 -0.513)" gradientUnits="userSpaceOnUse" id="7"><stop stop-color="#fff"/><stop stop-color="#e0e0e0" offset="1"/></linearGradient><linearGradient gradientUnits="userSpaceOnUse" x2="34.02" x1="14.08" id="4"><stop stop-color="#ebebeb"/><stop stop-color="#ccc" offset="1"/></linearGradient><linearGradient y2="12.481" x2="0" y1="7.719" gradientUnits="userSpaceOnUse" id="3"><stop stop-color="#204a87"/><stop stop-opacity="0" stop-color="#204a87" offset="1"/></linearGradient><linearGradient gradientTransform="matrix(1.19644 0 0 1.59915 -11.924 2.143)" y2="12.481" x2="0" y1="7.719" gradientUnits="userSpaceOnUse" id="5"><stop stop-opacity="0.898" stop-color="#022269"/><stop stop-opacity="0" stop-color="#204a87" offset="1"/></linearGradient><linearGradient y2="21.768" x2="0" y1="11.07" gradientTransform="matrix(1.18907 0 0 1.57487 -12.154 1.323)" gradientUnits="userSpaceOnUse" id="2"><stop stop-color="#d7d7d7"/><stop stop-color="#b8b8b8" offset="1"/></linearGradient><linearGradient id="1"><stop/><stop stop-opacity="0" offset="1"/></linearGradient><radialGradient r="117.14" cy="486.65" cx="605.71" gradientTransform="matrix(2.77439 0 0 1.96971 -1891.63 -872.89)" gradientUnits="userSpaceOnUse" id="0" xlink:href="#1"/><radialGradient xlink:href="#1" id="B" gradientUnits="userSpaceOnUse" gradientTransform="matrix(-2.77439 0 0 1.96971 112.76 -872.89)" cx="605.71" cy="486.65" r="117.14"/></defs><g color="#000"><path d="m 194.54 216.7 c 226.47 -259.77 -308.04 -296.68 -166.41 -31.509 32.29 60.45 106.42 100.31 166.41 31.509 z" fill="#2d4665"/><g transform="matrix(3.35441 0 0 3.24933 46.5 52.796)"><g fill-rule="evenodd"><rect transform="matrix(0.91404 -0.40561 0.40561 0.91404 0 0)" width="19.13" height="25.02" x="-5.614" y="13.909" rx="0.331" ry="0.338" fill="url(#2)" stroke="#8d8d8d" stroke-width="0.812"/><rect transform="matrix(0.91404 -0.40561 0.40561 0.91404 0 0)" width="17.15" height="4" x="-4.623" y="15.417" rx="0.066" ry="0.068" fill="url(#5)"/><rect transform="matrix(0.91404 -0.40561 0.40561 0.91404 0 0)" ry="0.071" rx="0.078" y="14.751" x="-4.971" height="23.332" width="17.842" stroke-opacity="0.545" fill="none" stroke="#fff" stroke-width="0.812"/></g><g transform="matrix(0.00009 -0.01288 0.02574 0.00012 12.451 10.03)"><use xlink:href="#9" width="1" height="1" opacity="0.402" fill="url(#A)"/><path d="m -219.62 -150.68 c 0 0 0 478.33 0 478.33 142.87 0.9 345.4 -107.17 345.4 -239.2 0 -132.03 -159.44 -239.13 -345.4 -239.13 z" opacity="0.402" fill="url(#0)" id="C"/><use xlink:href="#8" width="1" height="1" opacity="0.402" fill="url(#B)"/></g><g fill-rule="evenodd"><rect width="19.13" height="25.02" x="14.484" y="5.264" rx="0.33" ry="0.34" fill="url(#4)" stroke="#8d8d8d" stroke-width="0.812"/><rect width="17.15" height="4" x="15.475" y="6.771" rx="0.066" ry="0.068" fill="url(#6)"/><rect ry="0.071" rx="0.078" y="6.105" x="15.13" height="23.332" width="17.842" stroke-opacity="0.545" fill="none" stroke="#fff" stroke-width="0.812"/></g><g transform="matrix(-0.00687 0.01297 -0.02638 -0.0076 21.58 32.644)"><use xlink:href="#9" width="1" height="1" opacity="0.402" fill="url(#A)"/><use xlink:href="#C"/><use xlink:href="#8" width="1" height="1" opacity="0.402" fill="url(#B)"/></g><g transform="matrix(-1.0936 -0.48529 -0.64863 1.46169 58.3 6.972)" fill-rule="evenodd"><rect width="15.988" height="15.643" x="5.274" y="7.358" rx="0.276" ry="0.213" fill="url(#7)" stroke="#8d8d8d" stroke-width="0.587"/><rect width="14.331" height="2.501" x="6.102" y="8.301" rx="0.055" ry="0.043" fill="url(#3)"/><rect ry="0.045" rx="0.065" y="7.884" x="5.812" height="14.591" width="14.912" stroke-opacity="0.545" fill="none" stroke="#fff" stroke-width="0.587"/></g></g></g></svg>