<svg xmlns="http://www.w3.org/2000/svg" viewBox="0 0 256 256"><defs><clipPath><path d="m -24 13 c 0 1.105 -0.672 2 -1.5 2 -0.828 0 -1.5 -0.895 -1.5 -2 0 -1.105 0.672 -2 1.5 -2 0.828 0 1.5 0.895 1.5 2 z" transform="matrix(15.33333 0 0 11.5 415 -125.5)"/></clipPath></defs><path d="m 210.9 48.42 c -103.58 -134.49 -290.55 46.712 -171.1 165.72 102.79 119.27 302.3 -51.19 171.1 -165.72" fill="#c5c550"/><g transform="matrix(5.31053 0 0 5.31034 0.363 3.163)"><path d="m 12,16 v 19 h 12 l 1,-1 1,1 H 38 V 16 z" opacity="0.1"/><path d="M 11,15 H 37 V 34 H 25 l -1,-2 -1,2 H 11 z" fill="#d17a2e"/><path d="m 23,16 h 2 v 18 l -1,-1 -1,1 z" fill="#b16c2f"/><path d="m 12,15 v 18 h 11 l 1,-1 1,1 H 36 V 15 z" fill="#b2b1a2"/><path d="M 12,15 V 32 H 36 V 15 z" fill="#c8cdc3"/><path d="M 12,14 V 31 H 36 V 14 H 25 l -1,2 -1,-2 z" fill="#eff5eb"/><path d="m 14 16 v 1 h 7 v -1 h -7 z m 13 0 v 1 h 7 v -1 h -7 z m -13 2 v 1 h 7 v -1 h -7 z m 13 0 v 1 h 7 v -1 h -7 z m -13 2 v 1 h 7 v -1 h -7 z m 13 0 v 1 h 7 v -1 h -7 z m -13 2 v 1 h 7 v -1 h -7 z m 13 0 v 1 h 7 v -1 h -7 z m -13 2 v 1 h 7 v -1 h -7 z m 13 0 v 1 h 7 v -1 h -7 z m -13 2 v 1 h 7 v -1 h -7 z m 13 0 v 1 h 7 v -1 h -7 z m -13 2 v 1 h 7 v -1 h -7 z m 13 0 v 1 h 7 v -1 h -7 z" fill="#aaa"/><path d="m 23,14 v 17 l 1,1 1,-1 V 14 l -1,1 z" fill="#cbdbc2"/><path d="m 21 17 l -4 3.4 l 4 3.6 v -2 h 10 v -3 h -10 z m 8 6 v 2 h -10 v 3 h 10 v 2 l 4 -3.6 z" opacity="0.1"/><path d="M 20,16 16,19.4004 20,23 V 21 H 30 V 18 H 20 v -2 z m 8,6 v 2 H 18 v 3 h 10 v 2 L 32,25.4004 28,22 z" fill="#c27075"/></g></svg>