<svg xmlns="http://www.w3.org/2000/svg" viewBox="0 0 256 256"><g fill="#ffd700" color="#000"><path d="m 66.63 30.26 c 59.12 -58.47 113.69 -15.656 158.53 30.836 36.516 37.866 38.18 72.986 13.985 110.19 -63.2 97.21 -145.25 133.24 -231.16 -17.526 -21.16 -49.715 23.514 -95.96 58.64 -123.5 z" transform="matrix(0 1 -1 0 257.68 -0.137)"/></g><g transform="translate(-3.154 0.789)" fill="#1f1b0e" stroke="#1f1b0e"><path d="m 159.24 189.45 c -6.616 -0.731 -7.319 -1.063 -7.319 -3.462 0 -2.546 1.346 -3.319 6.887 -3.954 7.949 -0.911 7.936 -0.86 5.752 -23.19 -1 -10.248 -2.211 -19.95 -2.684 -21.559 -0.989 -3.359 -1.292 -3.448 -13.977 -4.082 -8.967 -0.448 -12.411 -1.847 -10.943 -4.445 0.503 -0.89 2.448 -1.92 4.591 -2.432 4.112 -0.981 4.11 -0.977 2.778 -4.596 -1.041 -2.83 -0.586 -2.812 -9.877 -0.402 -3.369 0.874 -8.546 1.429 -13.73 1.471 l -8.321 0.068 l -1.687 -4.73 c -2.205 -6.182 -4.047 -6.361 -7.246 -0.705 -3.317 5.863 -3.321 7.528 -0.024 8.451 2.353 0.658 2.667 1.06 2.496 3.193 l -0.195 2.44 l 11.234 2.145 c 13.11 2.504 14.15 3.203 14.15 9.594 0 2.228 -0.784 10.08 -1.743 17.453 -1.822 14.01 -1.741 18.554 0.369 20.755 0.695 0.725 3.549 2.175 6.341 3.222 2.792 1.047 4.783 2.156 4.423 2.465 -0.715 0.614 -17.495 -0.353 -18.232 -1.051 -0.639 -0.605 -1.908 -19.13 -1.945 -28.393 l -0.031 -7.732 l -3.537 0.242 c -3.34 0.229 -3.56 0.395 -3.953 2.985 -0.394 2.597 -0.635 2.778 -4.552 3.398 -7.793 1.234 -7.793 1.369 0.075 17.439 3.126 6.384 5.159 11.504 4.857 12.228 -1 2.402 -5.873 -4.421 -11.719 -16.425 l -5.695 -11.693 l -7.085 -0.43 c -6.824 -0.414 -7.173 -0.353 -9.457 1.674 -1.304 1.157 -3.532 3.701 -4.95 5.652 -6.996 9.625 -14.588 20.958 -14.868 20.16 -0.172 -0.49 3.068 -8.545 6.752 -14.766 3.685 -6.22 6.699 -11.867 6.7 -12.547 0 -0.681 -1.404 -2.795 -3.12 -4.698 -3.925 -3.199 -3.095 -6.213 -3.052 -10.982 0.117 -12.848 4.831 -44.27 8.165 -51.53 1.376 -3.295 1.621 -0.995 2.227 2.227 0.619 3.289 -0.284 15.04 -1.721 22.415 -1.059 5.435 -1.064 8.724 -0.014 8.724 0.955 0 2.12 -2.48 7.174 -15.266 2.033 -5.145 4.707 -10.986 5.941 -12.981 3.568 -5.768 12.05 -13.767 16.854 -15.9 4.243 -1.883 4.275 -1.925 3.635 -4.694 -2.156 -9.332 2.023 -14.225 12.147 -14.225 7.267 0 9.787 4.692 8.848 16.471 -0.83 10.405 -0.721 10.22 -6.197 10.493 l -4.704 0.234 l -2.251 4.336 c -3.201 6.167 -3.581 9.72 -1.776 16.595 1.479 5.633 1.625 5.843 4.442 6.403 1.602 0.319 7.03 0.195 12.07 -0.275 14.13 -1.319 14.889 -1.292 15.263 0.533 0.5 2.436 1.615 2.734 10.265 2.747 9.123 0.014 11.05 -0.856 10.167 -4.578 -0.883 -3.7 -4.477 -14.41 -5.361 -15.975 -0.974 -1.724 -2.34 -1.973 -2.872 -0.523 -3.76 10.253 -5.13 11.918 -7.03 8.548 -1.211 -2.143 3.32 -25.595 6.212 -32.15 3.02 -6.854 6.114 1.138 3.668 9.484 -0.796 2.717 -0.548 3.89 2.417 11.431 3.626 9.222 7.229 22.371 6.573 23.99 -0.242 0.596 -4.474 1.809 -10.08 2.888 -7.971 1.534 -10.952 2.577 -9.455 3.307 0.114 0.056 12.03 0.338 26.469 0.628 24.22 0.486 26.483 0.649 29.12 2.111 3.567 1.974 3.791 4.301 0.493 5.136 -1.303 0.33 -6.358 0.813 -11.234 1.073 -4.875 0.26 -10.51 0.666 -12.521 0.901 l -3.657 0.428 l 0.558 9.592 c 1.023 17.579 3.02 34.718 4.262 36.508 0.653 0.944 2.605 2.148 4.337 2.675 5.275 1.605 7.799 4.689 4.746 5.799 -1.828 0.665 -27.84 0.406 -34.635 -0.345 z m -54.4 -37.495 c 2.715 -0.987 1.161 -3.182 -3.26 -3.182 -4.241 0 -5.983 2.203 -3.537 3.138 1.506 0.576 5.267 0.6 6.797 0.044 z m -22.578 -1.585 c 0.554 -0.524 -5.527 -9.06 -7.91 -11.1 -1.316 -1.128 -1.492 -1.124 -1.969 0.052 -1.667 4.116 4.418 15.258 9.879 11.05 z" stroke-width="1.62"/><g stroke-width="0.875"><path d="m 139.5 100.08 c -3.501 -1.355 -2.869 -2.105 1.781 -2.114 3.242 -0.006 6.05 0.527 6.471 1.229 0.911 1.506 -5.01 2.14 -8.253 0.884 z"/><path d="m 141.34 89.82 c -3.501 -1.355 -2.869 -2.105 1.781 -2.114 3.242 -0.006 6.05 0.527 6.471 1.229 0.911 1.506 -5.01 2.14 -8.253 0.884 z"/><path d="m 144.27 79.19 c -3.501 -1.355 -2.869 -2.105 1.781 -2.114 3.242 -0.006 6.05 0.527 6.471 1.229 0.911 1.506 -5.01 2.14 -8.253 0.884 z"/></g></g></svg>