<svg xmlns="http://www.w3.org/2000/svg" viewBox="0 0 256 256"><path d="m 117.8 254.22 c 152.08 14.54 193.02 -230.68 36.856 -249.72 -143.59 -23.602 -217.54 198.67 -74.864 243.12 c 12.06 4.871 25.25 4.777 38.01 6.594 z" fill="#808080" color="#000"/><rect width="150.82" height="106.12" x="56.703" y="79.24" rx="6.356" ry="5.317" fill="#fff"/><path d="m 107.36 435.42 c -98.08 -0.467 -105.22 -0.617 -107.73 -2.259 c -6.03 -3.952 -5.786 0.072 -5.494 -90.15 0.264 -81.6 0.288 -82.47 2.338 -85.27 1.139 -1.553 3.614 -3.61 5.5 -4.571 3.2 -1.632 10.415 -1.748 107.93 -1.748 97.51 0 104.73 0.117 107.93 1.748 1.886 0.962 4.361 3.02 5.5 4.572 2.056 2.803 2.071 3.44 2.071 86.67 v 83.85 l -2.5 2.687 c -2.487 2.673 -4.684 3.859 -8.5 4.591 -1.1 0.211 -49.27 0.159 -107.04 -0.116 z m -56.35 -27.953 c 3.088 -4.099 6.06 -7.602 6.608 -7.784 0.546 -0.182 3.336 3.057 6.198 7.198 3.185 4.607 6.106 7.755 7.527 8.112 3.916 0.983 8.02 0.083 8.382 -1.839 0.19 -0.999 -2.953 -6.277 -7.241 -12.162 -4.167 -5.718 -7.576 -10.817 -7.576 -11.332 0 -0.515 2.85 -4.717 6.334 -9.338 8.08 -10.721 8.911 -12.257 7.419 -13.749 -0.634 -0.634 -2.885 -1.153 -5 -1.153 -4.334 0 -6.558 1.905 -11.848 10.149 -1.74 2.712 -3.556 4.8 -4.04 4.641 -0.479 -0.16 -3.235 -3.44 -6.124 -7.29 l -5.254 -7 h -4.982 c -3.732 0 -5.058 0.394 -5.284 1.57 -0.166 0.863 3.085 6.202 7.226 11.863 4.214 5.762 7.221 10.794 6.831 11.43 -0.384 0.625 -3.979 5.594 -7.989 11.04 -4.01 5.448 -7.292 10.473 -7.292 11.167 0 1.753 1.829 2.351 6.494 2.123 3.723 -0.182 4.375 -0.701 9.608 -7.648 z m 71.32 7.346 c 2.581 -4.251 1.582 -7.686 1.582 -13.278 l 4.25 -0.308 c 4.17 -0.302 4.256 -0.382 4.573 -4.268 0.37 -4.541 -1.461 -6.54 -5.993 -6.54 h -2.788 l -0.271 -19.727 l -0.271 -19.727 l -2.61 -0.917 c -5.701 -2 -7.03 -0.721 -21.855 21.12 -13.463 19.835 -14.07 20.943 -13.808 25.25 l 0.273 4.5 l 13.75 0.278 l 13.75 0.278 c 0.08 4.177 -0.4 9.01 1.2 12.744 1.281 1.281 5.611 1.593 8.218 0.593 z m -17.295 -35.14 c 3.942 -5.913 7.327 -10.938 7.522 -11.167 0.195 -0.229 0.355 4.608 0.355 10.75 v 11.167 h -15.04 z m 75.842 33.816 c 1.28 -2.392 1.303 -5.092 0.059 -7.07 -0.726 -1.152 -3.796 -1.616 -13.216 -2 l -12.271 -0.5 l 8.756 -9.456 c 10.561 -11.405 14.706 -18.944 14.706 -26.743 0 -6.513 -2.674 -12.265 -6.966 -14.982 l -3.054 -1.934 l 7.591 -8.442 c 4.175 -4.643 8.225 -9.1 9 -9.897 11.04 -10.865 15.1 -17.312 19.2 -21.324 1.907 -1.827 3.438 -2.479 4.915 -2.093 1.551 0.406 2.591 -0.119 3.753 -1.893 1.799 -2.746 1.166 -5.735 -1.216 -5.735 -3.473 -4.356 -8.092 -4.152 -8.222 0.772 0 1.926 -1.119 3.92 -3.49 6.217 -3.311 3.209 -3.58 3.294 -5.25 1.657 -3.036 -2.976 -12.719 -10.06 -16.57 -12.12 -4.096 -2.195 -4.196 -2.482 -2.501 -7.17 0.774 -2.141 2.17 -3.631 4 -4.269 2.234 -0.779 2.811 -1.592 2.811 -3.964 0 -2.13 -0.587 -3.171 -2.048 -3.635 -9.595 -3.652 -6.479 1.854 -6.099 7.648 -0.004 0.641 -2.385 2.356 -3.488 4.518 -3.689 7.06 -3.573 1.136 -13.472 -1.433 3.323 1.592 -6.11 -3.163 -6.988 -3.36 -2.076 -3.315 -0.179 -7.662 2.656 -10.858 1.665 0 2.764 -3.401 1.939 -6 -0.77 -2.427 -2.958 -6.01 -6.336 -3.792 -2.309 1.513 -3.761 3.33 -2.793 5.348 1.831 3.819 2.342 3.504 1.831 3.819 -1.701 2.167 -4.874 11.22 -4.874 11.22 -4.508 -0.822 -13.34 -2.955 -20.09 -3.261 -2.94 -5.468 -2.045 -2.962 -1.645 -9.392 0.68 -3.905 3.498 -3.039 3.566 -7.595 0.048 -3.251 -0.519 -5.44 -4.564 -5.44 -4.26 0 -7.544 0.867 -7.555 2.56 -1.133 8.454 3.854 5.929 3.153 12.244 l -1.363 6.94 l -6.197 0.698 c -9.893 -0.856 -11.886 0.589 -20.966 1.151 l -1.292 -5.5 c -1.649 -7.02 -2.716 -8.417 -0.979 -8.417 2.708 -3.626 0.098 -6.304 -2.095 -6 -7.369 1.105 -11.812 4.947 -4.117 9.968 2.192 1.43 1.664 -0.038 2.267 3.982 0.39 2.598 0.932 5.306 1.204 6.02 -3.894 1.615 -18.295 7.769 -22.05 8.452 -6.787 -7.582 -1.092 -16.802 -7.225 -18.918 -9.264 -0.8 -10.03 8.914 -7.863 8.918 4.977 1.853 6.156 6.635 7.512 12.306 -3.656 1.49 -10.743 7.636 -11.125 7.694 -7.01 3.204 -10.241 3.28 -11.904 6.383 -2.299 3.071 -1.959 3.184 -6.284 -1.875 -3.354 -3.923 -3.639 -4.659 -2.507 -6.471 1.537 -2.46 0.125 -5.383 -2.811 -5.82 -3.088 -0.46 -7.413 2.686 -7.413 6.396 0 3.03 -0.839 5.583 2.265 5.03 2.922 -0.518 3.646 -0.113 7.171 4.01 4.409 5.152 4.085 7.849 -0.944 7.849 -1.537 0 -2.989 0.573 -3.227 1.273 -0.547 1.608 11.911 14.227 14.04 14.227 4 0 3.155 -4.68 -1.311 -7.213 -4.563 -2.589 -4.651 -4.262 -0.418 -7.989 14.381 -9.79 33.939 -21.22 48.864 -26.321 12.519 -4.228 29.643 -6.071 52.29 -2.992 4.02 0.183 10.03 3.03 13.89 3.611 10.622 2.138 20.879 6.331 26.636 10.9 2.318 -0.004 16.98 9.391 20.19 12.937 1.767 1.953 1.515 2.311 -12.142 17.281 l -13.947 15.287 l -6.06 0.587 c -6.751 0.654 -16.554 5.443 -17.13 8.37 -0.36 1.822 3.443 6.546 5.265 6.539 0.592 -0.002 3.289 -1.127 5.995 -2.5 8.188 -4.154 13.897 -2.658 15.14 3.968 1.302 6.94 -1.956 12.25 -18.635 30.369 -8.214 8.923 -8.9 9.988 -8.911 13.834 -0.007 2.408 0.515 4.38 1.238 4.671 0.688 0.277 9.672 0.54 19.965 0.583 17.523 0.074 18.781 -0.044 19.75 -1.855 z m -11.965 -101.53 c 0 -1.725 -3.607 -3.896 -5.02 -3.02 -0.539 0.333 -0.979 0.039 -0.979 -0.654 -2.216 -1.243 -2.493 6.207 -1.511 7.04 2.842 2.366 7.511 -1.286 7.511 -3.359 z m -93.61 -6.786 c 0.771 -1.222 0.561 -2.149 -0.834 -3.69 -3.633 -4.01 -9.04 -0.203 -6.04 4.381 1.758 2.683 5.25 1.879 6.871 -0.691 z m 49.53 -5.999 c 1.405 -3.721 -0.459 -5.912 -4.729 -5.556 -3.234 0.269 -2.658 0.66 -2.947 3.198 -0.375 3.289 -0.016 4.571 4.045 4.593 1.975 0.011 3.03 -0.637 3.632 -2.235 z" fill="#131313" transform="matrix(0.67132 0 0 0.62601 56.716 -81.08)"/><path d="m 182.8 116.29 c -1.578 -1.236 -7.304 -4.935 -10.143 -6.433 -1.444 -0.762 -4.498 -2.368 -7.268 -3.868 -6.607 -2.592 -6.53 -2.555 -4.061 -7.08 0.752 0.533 12.763 5.251 13.494 5.621 2.053 1.031 10.162 6.427 10.941 7.279 14.12 9.231 6.78 8.721 5.462 11.08 z" fill="#ff4500"/></svg>