<svg xmlns="http://www.w3.org/2000/svg" viewBox="0 0 256 256"><defs><linearGradient y2="82.15" x2="-6.133" y1="160.88" x1="88.94" id="0" gradientTransform="scale(1.22493 0.81638)" gradientUnits="userSpaceOnUse"><stop stop-color="#e0c39e"/><stop stop-color="#eae8e3" offset="1"/></linearGradient></defs><path d="m 193.83 817.84 c 225.34 191.12 -237.98 374.9 -190.37 79.31 10.438 -64.81 129.65 -130.81 190.37 -79.31 z" fill="#f9741e" color="#000" transform="translate(0 -796.36)"/><g transform="translate(43.04 51.655)" fill-rule="evenodd"><g transform="matrix(0.95916 -0.28287 0.22985 0.97323 0 0)"><path d="m -4.926,57.47 h 132.41 v 87.66 H -4.926 z" fill-opacity="0.4"/><path d="m -5.716,55.777 h 128.15 v 84.21 H -5.716 z" fill="url(#0)" stroke="#000" stroke-linejoin="round" stroke-linecap="round" stroke-width="3.592"/></g><g fill="none" stroke="#000"><path d="m 7.337,56.3 42.23,32.597 58.53,-17.261 22.16,-51.989 -122.91,36.652 z" stroke-linejoin="round" stroke-width="3.589"/><g stroke-width="1.196"><path d="M 49.39,88.52 26.693,137.86"/><path d="m 108.2,71.54 41.4,30.07"/></g></g></g><rect width="4.044" height="87.03" x="20.14" y="114.89" rx="1.855" ry="6.365" transform="matrix(0.97338 -0.2292 0.24255 0.97014 0 0)" fill="#000" stroke="none"/></svg>