<svg xmlns="http://www.w3.org/2000/svg" viewBox="0 0 256 256"><path d="m 2.031 74.24 c -25.429 368.15 465.65 92.2 142.29 -64.2 -49.828 -21.558 -124.13 -5.804 -142.29 64.2 z" fill="#d41a1a" color="#000"/><g transform="matrix(1.05112 0.23757 -0.23001 1.04955 -177.87 26.383)" fill="#fff" stroke="#fff"><path d="m 73.34 176.19 c -0.844 -0.245 -1.535 -0.801 -1.535 -1.234 0 -1.901 20.733 -27.531 56.893 -70.33 l 19.818 -23.456 l 6.584 0.013 c 3.621 0.007 7.148 0.37 7.838 0.807 1.493 0.945 1.528 0.896 -16.187 22.855 -13.898 17.227 -17.07 21.658 -17.07 23.828 0 0.825 6.858 9.942 15.239 20.262 15.618 19.229 20.439 25.749 19.634 26.554 -0.952 0.952 -6.864 1.452 -10.581 0.894 -3.727 -0.559 -4.421 -1.218 -19.521 -18.534 -8.611 -9.875 -15.931 -17.85 -16.265 -17.722 -0.335 0.127 -6.715 7.137 -14.18 15.577 -18.475 20.889 -17.961 20.447 -24.09 20.713 -2.774 0.12 -5.733 0.018 -6.577 -0.227 z" transform="translate(161.34 -95.58)" stroke-width="0.088"/><path d="m 258.64 20.391 c -10.867 -12.11 -25.27 -32.771 -24.2 -34.715 0.322 -0.583 3.622 -0.966 7.559 -0.877 l 6.988 0.157 l 9.78 12.849 c 15.293 20.09 15.659 20.886 12.151 26.368 -2.914 4.554 -5.516 3.752 -12.279 -3.783 z" stroke-width="0.095"/><path d="m 322.94 50.26 c -5.939 -6.793 -8.415 -19.382 -4.6 -23.389 1.64 -1.722 2.537 -1.874 6.809 -1.154 2.706 0.456 8.732 0.867 13.39 0.914 9.729 0.097 13.762 -1.53 23.644 -9.54 7.86 -6.371 9.906 -5.997 14.227 2.597 2.877 5.723 3.201 7.099 2.837 12.07 -0.226 3.084 -0.685 6.08 -1.02 6.656 -0.378 0.65 -5.143 1.01 -12.552 0.949 -15.961 -0.132 -18.834 0.544 -26.783 6.301 -3.673 2.661 -8.07 5.575 -9.778 6.477 l -3.099 1.64 l -3.076 -3.518 z" stroke-width="0.096"/></g></svg>