<svg xmlns="http://www.w3.org/2000/svg" viewBox="0 0 256 256"><g transform="translate(0 -796.36)"><path d="m 229.63 992.2 c 92.05 -130.93 -77.948 -263.6 -186.39 -156.91 -102.17 100.51 -7.449 256.68 119.69 207.86 c 26.526 -10.185 49.802 -26.914 66.7 -50.948 z" fill="#ff7f50" color="#000"/><g transform="matrix(9.66071 0 0 12.42852 47.714 805.22)" fill="#fff"><path d="m 0 8 v 1 l 8 7 l 8 -4 v -1 l -8 -7 z" opacity="0.2"/><path d="M 8,4 0,8 0,9 8,16 16,12 16,11 8,4 z M 8,4.96875 14.59375,10.75 8,14.03125 1.40625,8.25 8,4.96875 z"/><path d="m 0 8 l 8 -4 h 8 l -8 4 z"/></g></g></svg>