<svg xmlns="http://www.w3.org/2000/svg" viewBox="0 0 256 256" xmlns:xlink="http://www.w3.org/1999/xlink"><defs><path id="0" d="m 165.43 198.92 a 8.155 8.155 0 1 1 -16.31 0 8.155 8.155 0 1 1 16.31 0 z" stroke-width="0.119"/></defs><g fill="#13ab13" color="#000"><path d="m -429.05 1690.33 c 145.2 -221.6 -385.23 -232.05 -202.66 -3.617 48.21 58.77 163.57 87.45 202.66 3.617 z" transform="matrix(-0.95926 0 0 1.14823 -386.29 -1744.98)"/></g><g transform="matrix(0.95356 0 0 0.97439 9.937 -14.704)"><path d="m 211.3 175.87 c 0 38.769 -35.873 70.2 -80.13 70.2 -44.25 0 -80.13 -31.429 -80.13 -70.2 0 -38.769 35.873 -70.2 80.13 -70.2 44.25 0 80.13 31.429 80.13 70.2 z" transform="matrix(0.92978 0 0 1.04106 7.726 -41.26)" fill="#115b12" stroke="#115b12" stroke-width="5.719"/><path d="m 132.23 110.78 c -11.77 -21.247 -11.04 -11.727 -2.137 -11.213 0.553 0 6.86 -2.708 14.02 -6.02 9.934 -4.594 13.286 -6.488 14.171 -8.01 1.1 -1.892 1.16 -1.91 1.189 -0.362 0.038 2.01 8.429 4.059 10.627 6.301 7.866 6.682 15.189 -0.396 2.201 6.443 -12.04 3.886 -21.235 10.454 -29.11 17.325 -2.683 2.34 -5.738 2.657 -5.918 2.657 -0.18 0 -2.056 -2.327 -5.04 -7.124 z" fill="#ff4500" stroke="#f00" stroke-width="4.217"/></g><rect width="26.941" height="113.17" x="149.67" y="-59.34" rx="11.127" ry="12.216" transform="matrix(0.559 0.82917 -0.82501 0.56512 0 0)" fill="#bdb76b" stroke="#bdb76b" stroke-width="0.144"/><path d="m 63.53 188.6 c -7.97 -2.111 -14.8 -7.849 -17.565 -14.758 -1.526 -3.812 -1.908 -6.05 -1.891 -11.04 0.019 -5.392 0.514 -7.595 2.637 -11.725 2.172 -4.225 4.1 -5.899 17.418 -15.12 6.201 -4.292 33.391 -22.721 43.867 -29.733 l 5.729 -3.835 l 0.15 -1.456 c 0.083 -0.801 0.357 -4.338 0.609 -7.861 0.49 -6.841 0.696 -8.153 1.654 -10.559 0.652 -1.638 2.49 -3.536 4.436 -4.581 l 1.083 -0.582 l 0.567 0.728 c 0.969 1.243 4.271 6.827 6.742 11.399 l 2.362 4.37 l -0.848 0.697 c -1.589 1.306 -16.822 11.958 -39.13 27.363 -31.16 21.515 -36.31 25.23 -40.35 29.14 -4.638 9.759 -2.153 22.469 0.314 11.299 3.144 -19.614 33.844 -9.873 39.11 -15.558 10.188 -7.876 22.731 -16.17 30.59 -22.675 0.619 -1.12 4.985 -4.908 6.172 -4.91 3.272 2.056 8.957 -2.288 9.09 -4.903 0.054 -1.909 0.32 -2.389 2.998 -5.404 l 1.242 -1.398 l 1.286 1.52 c 0.707 0.836 2.7 3.42 4.427 5.742 4.125 5.543 6.126 8 6.96 8.547 0.617 0.404 0.941 0.393 3.446 -0.119 3.846 -0.786 23.23 -6.113 27.29 -7.501 10.576 -3.614 13.694 -5.871 20.449 -14.806 1.19 -1.573 2.646 -3.591 3.237 -4.483 0.973 -1.469 1.157 -1.61 1.952 -1.494 1.779 0.261 2.973 2.766 3.583 7.521 0.661 2.413 -0.485 4.332 -0.631 6.458 -0.118 1.859 -0.453 3.037 -1.977 6.944 -4.129 10.583 -8.459 17.13 -14.968 22.632 -8.361 7.07 -17.78 10.764 -28.421 11.156 -7.708 0.285 -13.162 -0.76 -21.837 -4.181 l -2.658 -1.048 l -13.936 9.456 c -19.507 13.235 -43.83 29.383 -48.09 31.926 -4.699 2.805 -6.216 3.285 -10.827 3.421 -3.135 0.092 -4 0.01 -6.276 -0.591 z" fill="#6b8e23" stroke="#6b8e23" stroke-width="1.665"/><g stroke="#8b0000"><path d="m 122.18 77.08 c -0.605 -1.562 2.315 -2.385 5.223 -5.478 3.408 -3.627 7.469 -6.749 12.07 -9.283 10.259 -5.646 19.427 -7.841 29.753 -7.123 4.324 0.301 5.566 0.635 9.614 2.593 l 2.554 1.235 l -2.51 0.008 c -2.643 0.008 -5.108 0.543 -7.854 1.705 -5.792 2.45 -8.765 6.148 -11.686 14.534 l -1.146 3.291 l -7.478 4.198 c -8.237 4.624 -11.631 6.399 -14.463 7.565 l -4.285 1.648 c -2.647 -4.892 -6.857 -8.346 -9.795 -14.891 z" fill="#ff4500" stroke-width="1.784"/><path d="m 185.73 59.49 c 0.864 1.02 -3.524 -1.708 -2.926 0.188 0.795 2.521 7.785 13.392 7.768 14.423 l -0.014 0.863 l 2.455 2.966 c 1.107 1.337 5.946 -4.223 8.61 -4.454 2.663 -0.231 4.909 -0.48 4.991 -0.552 0.327 -0.292 -0.081 -2.121 -0.7 -3.137 -1.01 -1.651 -4.222 -4.991 -5.601 -5.816 -3.62 -2.167 -28.22 -9.04 -23.868 -7.73 l 8.77 2.641 l -3.641 -0.048 z" fill="#f00" stroke-width="1.463"/></g><path d="m 173.71 84.83 c -0.61 -0.481 -0.763 -1.587 1.235 -3.551 1.134 -1.114 3.481 -1.761 4.975 -2.696 1.494 -0.935 2.779 -1.876 2.855 -2.091 0.077 -0.215 -0.228 -0.7 -0.676 -1.077 -0.705 -0.593 -0.758 -0.757 -0.389 -1.21 0.234 -0.288 1.249 -0.973 2.256 -1.521 2.298 -1.252 2.821 -1.843 3.03 -3.429 0.221 -1.68 -0.507 -3.193 -2.409 -5.01 -4.173 -3.988 -9.592 -2.107 -9.542 3.314 0.019 2.01 2.042 1.661 4.282 5.05 0.702 1.061 1.469 2.949 1.469 3.15 0.002 0.595 -5.975 3.137 -8.223 3.315 -6.75 0.533 -11.02 -5.59 -8.139 -11.657 1.055 -2.218 4.771 -5.939 7.086 -7.097 1.736 -0.868 2.118 -0.931 5.647 -0.938 4.596 -0.009 4.754 0.064 8.28 3.817 3.144 3.346 4.274 5.729 4.697 9.9 0.229 2.258 -1.257 5.197 -4.113 8.138 -3.03 3.117 -4.461 3.783 -8.516 3.955 -2.525 0.107 -3.302 0.033 -3.803 -0.361 z" fill="#f5f5f5" stroke="#fff" stroke-width="1.82"/><path d="m 180.1 68.15 c -0.964 -1.471 0.577 -2.01 2.256 -2.01 0.813 0 2.158 1.066 2.158 1.711 0 0.675 -1.7 2.277 -2.669 2.516 -0.629 0.155 -1.345 -1.613 -1.745 -2.222 z" fill="#f00" stroke="#f00" stroke-width="1.665"/><use transform="translate(-2.067 -19.642)" fill="#bdb76b" stroke="#bdb76b" xlink:href="#0"/><use transform="translate(-89.89 -32.841)" fill="#115b12" stroke="#115b12" xlink:href="#0"/><use transform="matrix(0.74958 0 0 0.69582 13.605 45.53)" fill="#bdb76b" stroke="#bdb76b" xlink:href="#0"/></svg>