<svg xmlns="http://www.w3.org/2000/svg" xmlns:xlink="http://www.w3.org/1999/xlink" viewBox="0 0 256 256"><defs><linearGradient xlink:href="#0" id="3" gradientUnits="userSpaceOnUse" x1="16" x2="112"/><linearGradient xlink:href="#0" id="2" gradientUnits="userSpaceOnUse" x1="36" x2="88"/><linearGradient y2="45" y1="-11" x2="0" gradientUnits="userSpaceOnUse" id="0"><stop stop-color="#c0bfbc"/><stop stop-color="#deddda" offset="1"/></linearGradient><linearGradient x2="112" x1="16" gradientUnits="userSpaceOnUse" id="1"><stop stop-color="#9a9996"/><stop stop-color="#f6f5f4" offset="0.036"/><stop stop-color="#9a9996" offset="0.071"/><stop stop-color="#9a9996" offset="0.929"/><stop stop-color="#f6f5f4" offset="0.964"/><stop stop-color="#c0bfbc" offset="1"/></linearGradient></defs><path d="m 198.85 37.13 c 222.35 266.38 -318.93 304.22 -169.03 32.31 34.17 -61.991 110.13 -102.86 169.03 -32.31 z" fill="#ff8c00" color="#000"/><g transform="matrix(1.33967 0 0 1.31703 41.978 45.812)"><rect rx="4.479" y="96" x="16" width="96" height="20" ry="4.556" fill="url(#1)"/><rect rx="5.972" y="8" x="36" width="52" height="52" ry="6.074" fill="url(#2)"/><rect rx="5.972" y="56" x="16" width="96" height="52" ry="6.074" fill="url(#3)"/><circle r="2" cy="90" cx="26" fill="#e01b24"/><circle r="2" cy="90" cx="34" fill="#33d17a"/><circle r="2" cy="90" cx="42" fill="#f6d32d"/><path d="m 36,52 h 52 v 4 H 36 z m 24,12 h 48 V 76 H 60 z m 0,20 h 48 V 96 H 60 z" fill="#9a9996"/><path d="m 60,64 h 48 v 4 H 60 z m 0,20 h 48 v 4 H 60 z" fill="#77767b"/><path d="m 88,64 h 20 V 76 H 88 z M 60,84 H 80 V 96 H 60 z" fill="#0bbaf4"/><path d="m 88,72 h 20 v 4 H 88 z M 60,92 h 20 v 4 H 60 z" fill="#0aa8dc"/><path d="M 44,36 H 80 V 48 H 44 z M 20,64 H 48 V 84 H 20 z M 44,12 H 60 V 28 H 44 z m 20,0 H 80 V 28 H 64 z" fill="#241f31"/><path d="m 48,40 h 28 v 4 H 48 z M 24,68 H 44 V 80 H 24 z M 48,16 h 8 v 8 h -8 z m 20,0 h 8 v 8 h -8 z" fill="#33d17a"/><path d="M 30.883,68 27.965,74.813 26.029,70.939 24,74.49 v 2.02 l 1.97,-3.45 2.065,4.127 2.791,-6.51 1.684,8.42 h 0.98 l 0.713,-3.572 0.66,1.319 2.344,-2.344 H 44 v -1 H 36.793 L 35.137,75.156 33.797,72.473 33,76.45 31.309,68 z" fill="#26a269"/><path d="m 61,44 2,-4 H 48 v 4 z M 31,80 37,68 H 24 v 12 z m 19,-56 4,-8 h -6 v 8 z m 20,0 4,-8 h -6 v 8 z" opacity="0.3" fill="#fff"/></g></svg>