<svg xmlns="http://www.w3.org/2000/svg" xmlns:xlink="http://www.w3.org/1999/xlink" viewBox="0 0 256 256"><defs><path id="0" d="m 245.46 129.52 l -97.89 -96.9 c -5.556 -5.502 -16.222 -11.873 -23.7 -14.16 l -39.518 -12.08 c -7.479 -2.286 -18.1 0.391 -23.599 5.948 l -13.441 13.578 c -5.5 5.559 -14.502 14.653 -20 20.21 l -13.44 13.579 c -5.5 5.558 -8.07 16.206 -5.706 23.658 l 12.483 39.39 c 2.363 7.456 8.843 18.06 14.399 23.556 l 97.89 96.9 c 5.558 5.502 14.605 5.455 20.1 -0.101 l 36.26 -36.63 c 5.504 -5.559 14.503 -14.651 20 -20.21 l 36.26 -36.629 c 5.502 -5.56 5.455 -14.606 -0.101 -20.11 z m -178.09 -50.74 c -7.198 0 -13.03 -5.835 -13.03 -13.03 0 -7.197 5.835 -13.03 13.03 -13.03 7.197 0 13.03 5.835 13.03 13.03 -0.001 7.198 -5.836 13.03 -13.03 13.03 z"/><use id="1" xlink:href="#0"/><rect ry="3.701" height="66.62" rx="3.466" y="983.9" x="2.482" width="91.27" id="2"/><rect ry="2.075" height="34.24" rx="2.311" y="956.64" x="5.37" width="85.5" id="3"/><clipPath id="4"><use xlink:href="#1"/></clipPath><clipPath clip-path="url(#4)"><use xlink:href="#0"/></clipPath><clipPath clip-path="url(#4)"><use xlink:href="#0"/></clipPath><linearGradient y2="984.66" x2="0" y1="995.51" gradientUnits="userSpaceOnUse" id="5"><stop stop-color="#030404"/><stop offset="0.5" stop-color="#3a3b3b"/><stop offset="1" stop-color="#111"/></linearGradient></defs><path d="m 212.6 212.28 c 129.89 -104.02 -60.27 -291.8 -175.21 -171.84 -115.19 103.23 64.59 303.6 175.21 171.84 z" fill="#7b68ee" color="#000"/><g transform="matrix(0.82451 -0.37848 -0.56888 -1.19276 658.93 1350.77)" fill="#f8f8ff"><use xlink:href="#2" width="1" height="1" transform="matrix(0.99892 0 0 1.14747 0.052 -145.06)" fill="#483d8b" stroke="#483d8b" stroke-width="1.194"/><rect width="90.12" height="10.398" x="3.059" y="986.99" rx="3.466" opacity="0.623"/><rect rx="3.466" y="985.06" x="2.482" height="10.398" width="91.27" stroke="url(#5)" stroke-width="1.155"/><rect ry="1.957" rx="2.311" y="986.99" x="5.37" height="5.872" width="85.5" opacity="0.35"/><use xlink:href="#3" width="1" height="1" fill="#e6e6fa"/><path d="m 7.681 957.8 c -1.28 0 -2.311 1.031 -2.311 2.311 v 3.466 c 0 1.28 1.031 2.311 2.311 2.311 h 80.88 c 1.28 0 2.311 -1.031 2.311 -2.311 v -3.466 c 0 -1.28 -1.031 -2.311 -2.311 -2.311 z" opacity="0.62"/><path d="m 7.681 956.64 c -1.28 0 -2.311 1.031 -2.311 2.311 v 3.466 c 0 1.28 1.031 2.311 2.311 2.311 h 80.88 c 1.28 0 2.311 -1.031 2.311 -2.311 v -3.466 c 0 -1.28 -1.031 -2.311 -2.311 -2.311 z"/><rect transform="scale(1 -1)" rx="1.155" width="83.19" height="5.777" x="6.525" y="-963.58" fill="#9370db"/><g transform="scale(-1 1)" fill="#7b68ee"><rect width="13.864" height="11.554" x="-41.19" y="973.97" rx="1.155" opacity="0.35"/><rect rx="1.155" y="972.82" x="-41.19" height="11.554" width="13.864"/><path d="m -34.1 972.82 h 3.311 v 8.682 h -3.311 z"/></g><rect rx="1.155" y="973.97" x="55.05" height="11.554" width="13.864" opacity="0.35"/><rect width="13.864" height="11.554" x="55.05" y="972.82" rx="1.155" fill="#7b68ee"/></g></svg>