<svg xmlns="http://www.w3.org/2000/svg" viewBox="0 0 256 256"><g color="#000"><path d="m -461.56 1509.46 c -102.66 -72.48 -252.13 71.24 -188.42 177.65 55.11 98.31 215.88 55.803 236.4 -48.33 13.01 -47.39 -5.347 -103.13 -47.986 -129.32 z" transform="matrix(0.52481 -0.83062 0.91998 0.48535 -1078.42 -1102.74)" fill="#ff7316"/></g><g transform="matrix(10.45133 0 0 10.0441 40.859 54.993)" fill="#3e3e3e"><path d="M 8,3 H 9 V 14 H 8 z"/><path d="M 3,-14 H 4 V -3 H 3 z" transform="matrix(0 1 -1 0 0 0)"/><path d="M 8.5 5 A 3.5 3.5 0 0 0 5 8.5 3.5 3.5 0 0 0 8.5 12 3.5 3.5 0 0 0 12 8.5 3.5 3.5 0 0 0 8.5 5 z m 0 1 A 2.5 2.5 0 0 1 11 8.5 2.5 2.5 0 0 1 8.5 11 2.5 2.5 0 0 1 6 8.5 2.5 2.5 0 0 1 8.5 6 z"/></g></svg>