<svg xmlns="http://www.w3.org/2000/svg" viewBox="0 0 256 256"><defs><clipPath><path transform="matrix(15.33333 0 0 11.5 415 -125.5)" d="m -24 13 c 0 1.105 -0.672 2 -1.5 2 -0.828 0 -1.5 -0.895 -1.5 -2 0 -1.105 0.672 -2 1.5 -2 0.828 0 1.5 0.895 1.5 2 z"/></clipPath></defs><g color="#000"><path d="m 53.34 229.79 c 124.74 91.5 268.84 -77.49 169.44 -185.28 -93.64 -101.56 -256.18 -7.405 -215.91 118.98 8.402 26.369 23.566 49.51 46.46 66.3 z" fill="#727376"/><path d="m 59.57 220.94 c 112.81 83.06 243.11 -70.33 153.23 -168.18 -84.68 -92.19 -231.66 -6.721 -195.25 108 c 7.598 23.934 21.311 44.936 42.02 60.18 z" fill="#ececec"/></g><g fill="#666"><path d="m 74.45 204.35 c -3.269 -3.306 -6.157 -6.684 -6.418 -7.508 -0.611 -1.927 0.841 -3.91 8.15 -11.132 l 5.773 -5.704 l 6.748 6.72 l 6.748 6.72 l 8.09 -0.148 c 9.07 -0.166 10.577 -0.931 10.599 -5.359 0.016 -3.275 0.709 -3.934 4.989 -4.746 4.338 -0.823 7.154 -2.378 7.154 -3.95 0 -1.447 -2.583 -3.914 -4.111 -3.926 -10.193 -0.081 -30.11 -1.647 -32.872 -2.585 -7.228 -2.454 -14.1 -8.168 -20.02 -16.644 -3.033 -4.345 -3.207 -4.472 -9.08 -6.593 -5.312 -1.92 -9.935 -6.095 -11.639 -10.509 -1.846 -4.783 -1.843 -20.492 0.004 -25.279 1.531 -3.969 5.773 -8.04 10.416 -10 6.06 -2.56 6.529 -2.959 10.248 -8.759 4.717 -7.357 9.168 -11.679 14.934 -14.5 7.482 -3.661 11.959 -4.531 25.667 -4.99 6.882 -0.23 13.206 -0.677 14.05 -0.993 1.951 -0.726 2.686 -3.901 2.06 -8.907 -0.418 -3.348 -0.94 -4.292 -4.305 -7.795 -6.474 -6.738 -7.552 -12.373 -3.394 -17.742 3.563 -4.6 5.949 -5.746 11.261 -5.408 4.462 0.284 4.843 0.456 7.992 3.605 2.96 2.96 3.34 3.713 3.629 7.188 0.419 5.055 -1.496 9.493 -5.478 12.693 -3.579 2.876 -4.692 6.269 -4 12.2 l 0.48 4.136 l 3.688 0.352 c 2.029 0.194 9.601 0.693 16.827 1.109 12.928 0.745 13.224 0.798 18.492 3.332 6.829 3.284 14.64 10.807 18.13 17.457 2.358 4.499 2.58 4.696 6.919 6.182 8.607 2.946 12.448 7.612 13.772 16.729 0.979 6.74 0.257 15.759 -1.613 20.16 -1.803 4.243 -5.722 7.839 -10.275 9.428 -5.937 2.072 -6.875 2.758 -10.832 7.92 -5.288 6.899 -7.798 9.434 -12.12 12.239 -5.347 3.469 -9.83 4.376 -26.08 5.28 -7.941 0.441 -15 1.103 -15.685 1.469 -0.685 0.367 -1.469 1.371 -1.742 2.232 -0.638 2.01 1.637 3.956 5.277 4.514 5.928 0.909 6.173 1.11 6.562 5.375 l 0.357 3.919 l 6.951 0.454 c 3.823 0.249 7.795 0.666 8.827 0.925 1.659 0.417 2.701 -0.338 9.01 -6.531 l 7.13 -7 l 7.101 7.278 c 3.905 4 7.101 7.827 7.101 8.497 0 1.401 -12.679 14.611 -14.02 14.611 -0.491 0 -4.045 -2.929 -7.9 -6.508 l -7.01 -6.508 l -7.765 0.266 c -8.635 0.296 -9.775 0.907 -9.775 5.243 0 4.567 -0.934 4.978 -11.891 5.242 -5.425 0.13 -11.26 0.028 -12.966 -0.228 -3.342 -0.501 -4.01 -1.356 -4.782 -6.163 l -0.416 -2.579 l -7.586 -0.387 c -4.605 -0.235 -7.788 -0.714 -8.1 -1.22 -0.596 -0.964 -2.712 0.636 -10.565 7.988 -2.852 2.67 -5.535 4.855 -5.963 4.855 -0.428 0 -3.452 -2.705 -6.721 -6.01 z m 13.13 -4.388 c 2.02 -2.209 3.67 -4.35 3.67 -4.758 0 -0.408 -2.129 -2.829 -4.73 -5.38 l -4.73 -4.638 l -4.564 4.523 c -2.51 2.488 -4.564 5.04 -4.564 5.664 0 0.627 1.917 3.148 4.26 5.603 4.966 5.202 4.979 5.201 10.659 -1.014 z m 92.89 0.968 c 2.442 -2.434 4.44 -4.861 4.44 -5.393 0 -1.288 -6.22 -7.891 -7.95 -8.44 -0.802 -0.255 -2.374 0.189 -3.807 1.076 -2.586 1.598 -6.831 6.06 -6.831 7.173 0 0.775 8.512 10.01 9.227 10.01 0.266 0 2.481 -1.992 4.923 -4.426 z m -12.515 -36.912 c 5.545 -2.731 10.796 -7.722 13.659 -12.982 2.342 -4.303 3.257 -11.636 3.257 -26.11 0 -14.434 -0.916 -21.813 -3.238 -26.08 -2.594 -4.766 -8.624 -10.377 -13.6 -12.655 -3.835 -1.756 -4.785 -1.859 -21.629 -2.35 -18.568 -0.541 -50.11 0.212 -54.57 1.304 -3.796 0.928 -6.922 3.057 -11.432 7.785 -4.874 5.11 -6.04 7.3 -6.985 13.13 -0.929 5.724 -0.973 31.758 -0.064 37.31 0.928 5.664 3.269 10.11 7.641 14.499 4.131 4.15 9.839 7.249 15.02 8.152 1.907 0.333 17.792 0.552 35.3 0.487 l 31.833 -0.118 l 4.818 -2.373 z m -104.49 -24.14 c 0.6 -2.772 0.724 -22.815 0.162 -26.22 -0.277 -1.676 -0.836 -2.681 -1.49 -2.681 -1.931 0 -5.131 2.397 -6 4.494 -2.07 4.998 -1.834 18.271 0.401 22.595 1.124 2.173 4.391 4.499 5.761 4.101 0.393 -0.114 0.918 -1.146 1.167 -2.293 z m 134.18 1.114 c 3.625 -2.21 5.108 -6.241 5.122 -13.924 0.006 -3.539 -0.321 -7.631 -0.727 -9.09 -1.566 -5.638 -7.05 -9.286 -8.097 -5.384 -0.571 2.132 -0.574 24.762 -0.004 27.615 0.527 2.635 0.636 2.659 3.706 0.787 z"/><path d="m 117.5 151.67 c -5.56 -0.814 -10.694 -3.435 -11.563 -5.904 -0.574 -1.629 -0.395 -2.219 1.137 -3.75 l 1.817 -1.817 l 7.658 1.478 c 9.649 1.862 14.826 1.86 24.512 -0.009 l 7.705 -1.487 l 1.268 1.566 c 1.313 1.622 1.635 4.04 0.721 5.419 -2.601 3.932 -20.553 6.363 -33.26 4.504 z"/><path d="m 105.19 121.07 c -5.07 -1.284 -7.173 -3.809 -7.94 -9.537 -0.329 -2.461 -0.082 -3.532 1.28 -5.536 5.087 -7.487 13.242 -7.519 18.26 -0.073 4.931 7.317 -2.777 17.38 -11.601 15.15 z"/><path d="m 143.96 121.59 c -4.19 -1.161 -6.592 -4.806 -6.592 -10 0 -3.921 0.168 -4.324 2.969 -7.125 2.483 -2.483 3.535 -3.02 6.435 -3.292 2.802 -0.261 3.933 -0.002 5.903 1.349 5.161 3.542 6.904 8.394 4.691 13.06 -2.48 5.226 -7.736 7.583 -13.405 6.01 z"/></g><path d="m 119.83 31.429 c -6.607 3.694 -9.588 8.138 -9.588 14.296 0 13.744 14.64 22.03 27.05 15.315 12.818 -6.942 11.977 -23.824 -1.504 -30.22 -5.774 -2.737 -10.282 -2.567 -15.955 0.605 z m 15.15 7.803 c 5.623 5.155 4.072 13.35 -2.994 15.813 -10.174 3.546 -18.836 -8.221 -11.203 -15.219 3.601 -3.302 10.91 -3.607 14.197 -0.594 z" fill="#39a63b"/><g fill="#cf5300"><path d="m 170.28 200.97 c -2.573 -2.571 -4.566 -5.217 -4.428 -5.881 0.324 -1.558 8.58 -9.931 10.318 -9.931 1.543 0 9.359 9.116 9.359 10.494 0 1.01 -8.953 9.993 -9.958 9.993 -0.337 0 -2.717 -2.103 -5.291 -4.674 z"/><path d="m 77.61 202.55 c -7.228 -6.9 -7.232 -7.512 -0.099 -14.159 l 4.319 -4.02 l 5.02 4.951 c 2.761 2.723 5.02 5.31 5.02 5.749 0 1.072 -7.383 8.86 -9.355 9.867 -1.278 0.653 -2.184 0.213 -4.903 -2.383 z"/></g><rect width="21.683" height="16.777" x="118.02" y="187.36" rx="2.927" ry="7.909" fill="#2658a5"/></svg>