<svg xmlns="http://www.w3.org/2000/svg" viewBox="0 0 32 32"><path d="m 27.84 25.35 c 12.74 -13.39 -7.63 -33.41 -21.7 -21.63 c -15.76 12.94 4.07 38.3 19.99 23.89" style="fill:#ff8c00"/><g style="stroke:#fff;stroke-linecap:round"><path d="m 6.54 4.72 h 46.92 c 1.59 0 2.86 1.23 2.86 2.75 v 45.1 c 0 1.51 -1.28 2.74 -2.86 2.74 h -46.92 c -1.59 0 -2.86 -1.23 -2.86 -2.74 v -45.1 c 0 -1.53 1.28 -2.75 2.86 -2.75" transform="matrix(0.297 0 0 0.315 7.24 6.62)" style="stroke-dasharray:3.18524 3.18524;fill:none;stroke-linejoin:round;stroke-width:3.19"/><path d="m 124.2 174.2 c -1.97 -0.72 -3.78 -2.37 -4.97 -4.56 c -0.84 -1.59 -0.91 -2.31 -1.09 -15.74 l -0.22 -14.1 l -26.46 -0.44 l -1.75 -1.12 c -3.32 -2.16 -4.75 -4.87 -4.79 -9 c -0.03 -4.34 1.97 -7.78 5.47 -9.43 c 1.22 -0.56 3.57 -0.72 14.48 -0.91 l 13 -0.22 l 0.22 -14.1 l 0.19 -14.1 l 1.16 -1.97 c 4.1 -6.93 13.26 -6.47 17.33 0.94 c 0.44 0.78 0.63 4.25 0.78 15.1 l 0.19 14.1 l 13 0.22 c 12.36 0.22 13.1 0.25 14.7 1.09 c 3.6 1.97 5.26 4.9 5.29 9.37 c 0 3.87 -1.56 7 -4.44 8.78 l -2.03 1.25 l -13.26 0.22 l -13.29 0.22 l -0.22 14.1 c -0.19 13.49 -0.22 14.1 -1.09 15.77 c -2.35 4.37 -7.44 6.25 -12.29 4.53" transform="scale(0.125)" style="fill:#fff;stroke-width:0.58"/></g></svg>