<svg xmlns="http://www.w3.org/2000/svg" viewBox="0 0 32 32"><path d="m 3.703 5.824 c -7.789 11.902 -1.504 22.746 7.313 25.316 c 11.863 3.461 27.965 -5.633 17.355 -24.375 c -4.219 -7.449 -19.12 -9.422 -24.668 -0.941" fill="#fc8600"/><path d="m 10.402 6.242 v 1.879 h -0.965 c -1.07 0 -1.934 0.848 -1.934 1.879 v 13.148 c 0 1.031 0.871 1.879 1.934 1.879 h 13.527 c 1.063 0 1.934 -0.848 1.934 -1.879 v -13.148 c 0 -1.031 -0.871 -1.879 -1.934 -1.879 h -0.965 v -1.879 h -1.934 v 1.879 h -7.73 v -1.879 h -1.934 m -0.965 6.574 h 13.527 v 10.332 h -13.527 v -10.332 m 6.945 0.941 c -0.84 0 -1.516 0.184 -2.031 0.559 c -0.512 0.367 -0.762 0.918 -0.75 1.656 l 0.012 0.031 h 1.867 c 0.008 -0.285 0.098 -0.504 0.266 -0.648 c 0.172 -0.145 0.383 -0.219 0.637 -0.219 c 0.316 0 0.559 0.09 0.727 0.266 c 0.172 0.18 0.258 0.414 0.258 0.715 c 0 0.285 -0.074 0.539 -0.223 0.758 c -0.145 0.219 -0.344 0.406 -0.594 0.555 c -0.492 0.32 -0.832 0.605 -1.016 0.852 c -0.188 0.25 -0.281 0.621 -0.285 1.113 h 1.918 c 0 -0.297 0.043 -0.527 0.125 -0.695 c 0.086 -0.176 0.25 -0.336 0.492 -0.484 c 0.438 -0.215 0.793 -0.508 1.074 -0.879 c 0.285 -0.371 0.426 -0.777 0.426 -1.219 c 0 -0.723 -0.258 -1.301 -0.777 -1.723 c -0.516 -0.426 -1.223 -0.637 -2.125 -0.637 m -1.145 6.574 v 1.879 h 1.93 v -1.879" fill="#fff"/></svg>