
<svg xmlns="http://www.w3.org/2000/svg" xmlns:xlink="http://www.w3.org/1999/xlink" width="32px" height="32px" viewBox="0 0 32 32" version="1.1">
<g id="surface1">
<path style=" stroke:none;fill-rule:nonzero;fill:rgb(100%,54.901961%,0%);fill-opacity:1;" d="M 26.539062 5.472656 C 42.777344 18.578125 19.007812 42.238281 4.640625 27.125 C -9.761719 14.117188 12.710938 -11.128906 26.539062 5.472656 Z M 26.539062 5.472656 "/>
<path style=" stroke:none;fill-rule:nonzero;fill:rgb(100%,0%,0%);fill-opacity:1;" d="M 9.003906 21.898438 L 9.003906 19.339844 L 9.980469 19.339844 L 9.980469 23.488281 L 14.144531 23.464844 L 18.304688 23.441406 L 18.351562 19.339844 L 22.441406 19.339844 L 22.441406 9.019531 L 16.210938 9.019531 L 16.210938 8.050781 L 23.421875 8.050781 L 23.421875 20.355469 L 19.28125 24.457031 L 9.003906 24.457031 Z M 9.003906 13.125 L 9.003906 8.050781 L 15.144531 8.050781 L 15.144531 13.125 C 15.144531 15.914062 15.121094 18.195312 15.097656 18.195312 C 15.070312 18.195312 14.390625 17.757812 13.585938 17.222656 C 12.78125 16.691406 12.097656 16.253906 12.074219 16.253906 C 12.046875 16.253906 11.367188 16.691406 10.5625 17.222656 C 9.753906 17.757812 9.074219 18.195312 9.050781 18.195312 C 9.023438 18.195312 9.003906 15.914062 9.003906 13.125 Z M 10.847656 14.695312 C 11.167969 14.464844 11.765625 13.945312 12.175781 13.539062 C 13.039062 12.675781 14.183594 11.21875 14.078125 11.109375 C 14.039062 11.070312 13.515625 11.050781 12.917969 11.066406 L 11.832031 11.09375 L 11.566406 11.402344 C 11.1875 11.84375 10.839844 12.558594 10.445312 13.707031 C 9.96875 15.078125 9.933594 15.230469 10.117188 15.164062 C 10.195312 15.132812 10.523438 14.921875 10.84375 14.695312 Z M 10.847656 14.695312 "/>
</g>
</svg>
