<svg xmlns="http://www.w3.org/2000/svg" viewBox="0 0 32 32"><path d="m 3.297 24.48 c -11.508 -16.367 9.742 -32.949 23.297 -19.613 c 12.773 12.563 0.934 32.09 -14.961 25.98 c -3.313 -1.273 -6.223 -3.363 -8.336 -6.367" fill="#707f8f"/><g fill="#fff"><path d="m 25.965 23.742 c -0.023 0.152 -0.074 0.297 -0.145 0.43 c -0.004 0.004 -0.004 0.012 -0.008 0.016 c -0.066 0.129 -0.152 0.242 -0.254 0.336 c -0.102 0.094 -0.219 0.168 -0.34 0.219 c -0.004 0 -0.008 0.004 -0.016 0.004 c -0.129 0.051 -0.262 0.078 -0.398 0.074 h -16.254 c -0.156 0.004 -0.309 -0.031 -0.453 -0.102 c -0.137 -0.066 -0.262 -0.164 -0.367 -0.281 c 0 -0.004 -0.004 -0.004 -0.004 -0.008 c -0.102 -0.117 -0.184 -0.258 -0.242 -0.41 c 0 -0.008 -0.004 -0.012 -0.008 -0.02 c -0.059 -0.16 -0.09 -0.332 -0.09 -0.508 v -15.934 c 0 -0.18 0.031 -0.355 0.094 -0.52 c 0.055 -0.156 0.141 -0.297 0.246 -0.418 l 0.004 -0.008 c 0.105 -0.113 0.227 -0.207 0.359 -0.273 c 0.008 -0.004 0.012 -0.008 0.016 -0.012 c 0.141 -0.066 0.293 -0.098 0.445 -0.098 h 13.281 c 0.148 -0.004 0.301 0.027 0.441 0.09 h 0.008 c 0 0 0 0 0.004 0 c 0.141 0.066 0.27 0.16 0.379 0.281 l 2.977 3.402 c 0.109 0.129 0.191 0.277 0.246 0.441 c 0.055 0.164 0.082 0.34 0.078 0.516 v 12.531 c 0.004 0.043 0.004 0.086 0 0.125 c 0.004 0.043 0.004 0.086 0 0.125 m -1.16 -1.043 v -9.04 c 0 -0.441 -0.309 -0.797 -0.695 -0.797 h -2.266 v -0.012 c -0.273 -0.031 -0.48 -0.273 -0.512 -0.582 h -0.008 v -3.918 c 0 -0.445 -0.313 -0.797 -0.699 -0.797 h -11.379 c -0.387 0 -0.695 0.352 -0.695 0.797 v 14.34 c 0 0.445 0.309 0.797 0.695 0.797 h 9.06 c 0.039 0 0.078 -0.016 0.117 -0.023 c 0.039 0.008 0.074 0.023 0.113 0.023 h 5.574 c 0.387 0 0.695 -0.352 0.695 -0.797 m 0 -11.156 l -2.32 -2.656 v 1.328 c 0 1.328 0 1.328 1.16 1.328"/><path d="m 17.98 16.898 c -0.539 -0.09 -1.215 -0.176 -1.777 0.332 c -0.469 0.418 -0.961 1.297 -1.344 1.699 c -0.379 0.402 -0.766 0.582 -0.688 0.582 h -5.625 v 1.328 h 5.625 c 0.676 0 1.027 -0.508 1.453 -0.957 c 0.395 -0.434 0.879 -1.18 1.305 -1.574 c 0.125 -0.113 0.473 -0.195 0.906 -0.125 c 0.434 0.066 0.813 0.25 1.273 0.25 c 0.168 0 0.234 0.043 0.359 0.164 c 0.129 0.121 0.207 0.656 0.363 0.914 c 0.156 0.258 0.328 0.559 0.582 0.828 c 0.25 0.273 0.652 0.5 1.086 0.5 h 3.305 v -1.328 h -3.305 c -0.113 0 -0.176 -0.004 -0.289 -0.125 c -0.16 -0.191 -0.309 -0.402 -0.434 -0.625 c -0.164 -0.266 -0.266 -0.891 -0.543 -1.16 c -0.313 -0.313 -0.715 -0.488 -1.129 -0.496 c -0.035 0 -0.582 -0.125 -1.121 -0.207"/><path d="m 12.613 11.543 c -0.961 0 -1.742 0.891 -1.742 1.992 c 0 1.098 0.781 1.992 1.742 1.992 c 0.961 0 1.742 -0.895 1.742 -1.992 c 0 -1.102 -0.781 -1.992 -1.742 -1.992 m 0 1.328 c 0.32 0 0.578 0.297 0.578 0.664 c 0 0.367 -0.258 0.664 -0.578 0.664 c -0.32 0 -0.582 -0.297 -0.582 -0.664 c 0 -0.367 0.262 -0.664 0.582 -0.664" fill-opacity="0.969"/></g></svg>