<svg xmlns="http://www.w3.org/2000/svg" viewBox="0 0 32 32"><path d="m 0.371 19.566 c 1.984 13 19.609 16.484 27.387 7.199 c 6.852 -6.895 5.145 -20.09 -3.254 -24.621 c -9.652 -6.05 -23.715 1.43 -24.48 13.484 c -0.078 1.32 0.031 2.656 0.348 3.938" fill="#ff8c00"/><g fill="#fff"><path d="m 15.602 7.07 v 8.273 h -8.527 v 1.035 h 8.527 v 8.273 h 1.066 v -8.273 h 8.531 v -1.035 h -8.531 v -8.273" fill-opacity="0.102"/><path d="m 8.141 8.105 v 7.242 h 7.461 v -7.242 m 1.066 0 v 7.242 h 7.465 v -7.242 m -15.992 8.277 v 7.238 h 7.461 v -7.238 m 1.066 0 v 7.238 h 7.465 v -7.238" fill-opacity="0.502"/><path d="m 7.07 7.07 v 17.582 h 18.13 v -17.582 m -15.992 2.066 h 13.859 v 13.445 h -13.859"/></g></svg>