<svg xmlns="http://www.w3.org/2000/svg" viewBox="0 0 32 32"><path d="m 6.734 2.727 c 14.859 -10.332 33.461 12.938 21.371 25.09 c -11.402 11.469 -32.68 -3.355 -27.15 -17.613 c 1.156 -2.98 3.063 -5.594 5.777 -7.48" fill="#ff8c00"/><path d="m 11.871 14.672 h 1.605 l 0.133 4.453 l 0.043 4.711 c 1.293 0.094 2.676 -0.074 3.969 0.02 v -9.129 c 1.188 -0.094 2.125 -0.188 3.313 -0.281 l -2.254 -3.426 c -1.285 -1.949 -2.668 -3.484 -2.867 -3.555 c -0.199 -0.074 -1.383 1.262 -2.629 2.965 c -3.215 4.395 -3.168 4.242 -1.313 4.242" fill="#fff"/></svg>