<svg xmlns="http://www.w3.org/2000/svg" viewBox="0 0 32 32"><path d="m 7.77 2.48 c -28.2 24.1 29.75 47.2 23.8 9.98 c -1.31 -8.16 -16.21 -16.46 -23.8 -9.98" style="fill:#ff4500"/><path d="m 7.82 7.75 c -0.93 -0.01 -1.4 0.5 -1.41 1.52 l -0.09 12.84 c -0.01 1.02 0.92 2.06 1.85 2.07 l 14.93 0.16 c 0.93 0.01 1.87 -1 1.88 -2.03 l 0.07 -9.24 c 0 -1.03 -0.93 -2.07 -1.86 -2.08 l -8.39 -0.09 v -1.54 c 0.01 -1.03 -0.45 -1.54 -1.39 -1.55" style="fill:#fff"/><g style="fill:#ff4500;fill-rule:evenodd"><path d="m 12.74 12.6 c -1.3 0 -2.34 1.02 -2.34 2.29 c 0 0.13 0.02 0.33 0.03 0.49 c -0.22 0.1 -0.24 0.55 -0.05 1.01 c 0.07 0.18 0.17 0.33 0.27 0.45 c 0.03 0.14 0.02 0.19 0.05 0.34 c 0.09 0.28 0.44 0.81 0.75 1.26 c 0.04 0.33 0.06 0.68 0 1.07 c -0.91 0.79 -3.27 1.13 -3.27 1.95 l -0.05 0.31 h 9.22 l -0.05 -0.31 c -0.01 -0.7 -2.36 -1.14 -3.27 -1.95 c -0.04 -0.32 -0.05 -0.63 -0.03 -0.94 c 0.29 -0.46 0.68 -1.07 0.77 -1.39 c 0.04 -0.15 0.05 -0.25 0.07 -0.39 c 0.09 -0.11 0.16 -0.23 0.23 -0.39 c 0.18 -0.45 0.17 -0.86 -0.03 -0.99 c 0.02 -0.18 0.02 -0.37 0.03 -0.52 c 0 -1.27 -1.04 -2.29 -2.34 -2.29"/><path d="m 19.48 12.6 c -1.12 0 -2 0.77 -2 1.74 c 0 0.1 0.02 0.26 0.02 0.38 c -0.18 0.07 -0.2 0.42 -0.04 0.77 c 0.06 0.14 0.14 0.25 0.23 0.34 c 0.02 0.1 0.02 0.15 0.04 0.25 c 0.07 0.2 0.38 0.61 0.64 0.95 c 0.03 0.25 0.05 0.52 0 0.81 c -0.79 0.6 -2.81 0.86 -2.8 1.48 l -0.04 0.23 l 2.73 1.33 l 4.89 -0.13 l 0.24 -1.44 c -0.01 -0.53 -2.03 -0.86 -2.8 -1.48 c -0.03 -0.24 -0.04 -0.47 -0.03 -0.71 c 0.25 -0.36 0.58 -0.81 0.66 -1.05 c 0.03 -0.11 0.04 -0.19 0.06 -0.3 c 0.07 -0.08 0.14 -0.18 0.19 -0.3 c 0.15 -0.34 0.14 -0.65 -0.02 -0.75 c 0.02 -0.14 0.02 -0.29 0.02 -0.4 c 0 -0.96 -0.89 -1.74 -2 -1.74"/></g><path d="m 29.71 23.48 c 0 2.91 -2.38 5.27 -5.3 5.27 c -2.93 0 -5.31 -2.36 -5.31 -5.27 c 0 -2.91 2.38 -5.27 5.31 -5.27 c 2.93 0 5.3 2.36 5.3 5.27" style="fill:#fff"/><path d="m 22.37 26.78 c -0.15 -0.06 -0.88 -0.73 -0.89 -0.84 c -0.03 -0.25 0.07 -0.38 0.95 -1.24 c 0.52 -0.5 0.95 -0.95 0.95 -0.98 c 0 -0.04 -0.43 -0.5 -0.95 -1.03 c -1.01 -1.02 -1.05 -1.09 -0.84 -1.39 c 0.19 -0.27 0.65 -0.61 0.82 -0.61 c 0.12 0 0.38 0.23 1.13 0.98 l 0.97 0.97 l 1 -1 c 0.71 -0.7 1.04 -1 1.14 -1 c 0.09 0 0.28 0.14 0.52 0.37 c 0.57 0.55 0.59 0.52 -0.6 1.71 l -0.98 0.99 l 0.95 0.95 c 1.16 1.16 1.16 1.16 0.6 1.71 c -0.53 0.52 -0.51 0.53 -1.64 -0.61 c -0.52 -0.52 -0.98 -0.95 -1.01 -0.95 c -0.91 0.8 -1.38 1.34 -2.12 1.98" style="fill:#ff4500"/></svg>