<svg xmlns="http://www.w3.org/2000/svg" viewBox="0 0 32 32"><path d="m 4.805 4.055 c 28.17 -18.301 39.07 31.688 10.09 27.707 c -11.82 -1.625 -20.867 -20.703 -10.09 -27.707" fill="#ff8c00"/><g fill="#fff"><path d="m 15.05 6.258 c -5.156 0 -9.34 4.25 -9.34 9.488 c 0.004 0.387 0.031 0.773 0.082 1.16 c 0.102 -0.484 0.445 -0.957 0.887 -1.215 l 3.687 -2.16 c 0.863 -0.508 2 -0.199 2.504 0.68 l -0.098 -0.172 l 3.422 -2.01 c 0.73 -0.43 1.59 -0.172 2.16 0.418 l 0.176 -0.105 l -0.531 -0.941 c -0.656 -1.16 0.219 -2.73 1.547 -2.73 h 1.715 c -1.707 -1.551 -3.918 -2.406 -6.211 -2.41 m 9.324 8.969 l -0.559 1 c 0 0 0 0 0 0.004 c -0.191 0.332 -0.484 0.559 -0.809 0.703 h 0.219 c 0.406 0 0.785 0.215 0.996 0.574 c 0.113 -0.582 0.168 -1.172 0.172 -1.762 c -0.004 -0.172 -0.008 -0.344 -0.02 -0.52 m -4.02 0.348 l -1.602 0.945 c -0.734 0.43 -1.59 0.172 -2.164 -0.418 l -3.566 2.098 c -0.801 0.465 -1.785 0.176 -2.336 -0.555 l -2.168 1.273 c 0 0 -0.004 0 -0.004 0 c -0.441 0.262 -1.023 0.328 -1.488 0.168 c -0.438 -0.145 -0.754 -0.445 -0.969 -0.789 c 1.129 4.098 4.805 6.934 8.996 6.938 c 1.203 -0.004 2.391 -0.242 3.504 -0.703 v -2.855 c -0.645 0 -1.168 -0.531 -1.168 -1.188 v -1.184 c 0 -0.656 0.523 -1.188 1.168 -1.188 h 1.168 c 0 -0.656 0.523 -1.184 1.168 -1.184 h 0.637 c -0.324 -0.145 -0.617 -0.371 -0.809 -0.707 v -0.004" fill-opacity="0.302"/><path d="m 19.551 9.852 c -0.219 0 -0.422 0.121 -0.531 0.316 c -0.113 0.199 -0.113 0.438 0 0.633 l 1.109 1.973 l -2.051 1.199 l -0.383 -0.672 c -0.086 -0.156 -0.234 -0.27 -0.406 -0.316 c -0.172 -0.043 -0.352 -0.02 -0.508 0.07 l -4.434 2.602 l -0.484 -0.852 c -0.184 -0.324 -0.59 -0.434 -0.91 -0.246 l -3.688 2.16 c -0.219 0.113 -0.355 0.34 -0.359 0.59 c -0.004 0.25 0.125 0.48 0.34 0.602 c 0.215 0.125 0.48 0.117 0.688 -0.02 l 3.109 -1.82 l 0.48 0.852 c 0.09 0.152 0.234 0.27 0.406 0.316 c 0.172 0.047 0.355 0.02 0.508 -0.07 l 4.434 -2.598 l 0.383 0.672 c 0.09 0.156 0.234 0.27 0.406 0.316 c 0.172 0.047 0.352 0.023 0.508 -0.066 l 2.621 -1.539 l 0.945 1.684 c 0.109 0.195 0.313 0.316 0.535 0.316 c 0.219 0 0.422 -0.117 0.531 -0.316 l 2.723 -4.832 c 0.117 -0.203 0.109 -0.461 -0.016 -0.66 c -0.113 -0.18 -0.309 -0.289 -0.516 -0.293"/><path d="m 20.895 18.12 v 1.188 h -2.336 v 1.184 h 7.01 v -1.184 h -2.336 v -1.188 m -3.504 3.559 v 4.742 h 4.672 v -4.742"/></g></svg>