<svg xmlns="http://www.w3.org/2000/svg" viewBox="0 0 32 32"><path d="m 26.4 4.64 c 25.2 33.3 -44.2 38 -21.92 4 c 5.08 -7.75 15.23 -12.86 21.92 -4" style="fill:#ff8c00"/><path d="m 10.81 25.44 c -0.6 -0.57 -0.75 -0.77 -0.7 -0.87 c 0.04 -0.07 1.43 -1.57 3.07 -3.32 c 1.64 -1.75 2.99 -3.21 2.98 -3.25 c 0 -0.04 -1.51 -1.47 -3.35 -3.19 c -1.84 -1.71 -3.34 -3.15 -3.34 -3.19 c 0 -0.13 1.45 -1.6 1.55 -1.58 c 0.06 0.02 1.46 1.29 3.1 2.83 c 1.64 1.54 3.15 2.95 3.34 3.12 l 0.35 0.32 l 2.9 -3.1 c 1.6 -1.7 2.95 -3.1 2.99 -3.1 c 0.04 0 0.39 0.29 0.76 0.65 c 0.75 0.71 0.8 0.78 0.81 0.9 c 0 0.05 -1.03 1.18 -2.28 2.51 c -1.25 1.34 -2.81 3 -3.45 3.69 c -2.73 2.93 -7.7 8.2 -7.77 8.26 c -0.15 0.11 -0.19 0.08 -0.98 -0.67" style="fill:#fff"/></svg>