<svg xmlns="http://www.w3.org/2000/svg" viewBox="0 0 32 32"><path d="m 7.03 3.703 c 20.2 -14.656 36.719 21.84 12.813 27.18 c -15.238 5.469 -27.785 -16.316 -12.813 -27.18" fill="#ff8c00"/><path d="m 17.09 11.08 h -2.129 v 4.258 h -4.254 v 2.125 h 4.254 v 4.258 h 2.129 v -4.258 h 4.258 v -2.125 h -4.258 m -1.063 -9.578 c -5.879 0 -10.641 4.762 -10.641 10.641 c 0 5.879 4.762 10.641 10.641 10.641 c 5.879 0 10.637 -4.762 10.637 -10.641 c 0 -5.879 -4.758 -10.641 -10.637 -10.641 m 0 19.15 c -4.695 0 -8.512 -3.82 -8.512 -8.512 c 0 -4.691 3.816 -8.512 8.512 -8.512 c 4.691 0 8.512 3.82 8.512 8.512 c 0 4.691 -3.82 8.512 -8.512 8.512" fill="#fff"/></svg>