<svg xmlns="http://www.w3.org/2000/svg" viewBox="0 0 32 32"><path d="M 6.675781 30.113281 C 54.34375 44.015625 23.957031 -24.667969 2.632812 9.785156 C -1.265625 16.117188 -1.539062 26.863281 6.675781 30.113281 Z M 6.675781 30.113281 " style="fill:#ff8c00"/><g transform="matrix(0.34 0 0 0.349 5.79 5.46)" style="stroke:#fff"><g style="stroke-linejoin:round"><g style="stroke-width:10"><path d="M 30.005092 33.479602 L 30.005092 7.680312 " style="fill:none"/><g style="fill:#ff8c00"><path d="M 28.914865 35.697691 L 6.582436 48.602937 "/><path d="M 31.083842 35.697691 L 53.416271 48.602937 "/></g></g><path d="M 33.74629 35.776108 C 33.74629 37.837363 32.070784 39.517733 30.005092 39.517733 C 27.927923 39.517733 26.252417 37.837363 26.252417 35.776108 C 26.252417 33.703651 27.927923 32.023281 30.005092 32.023281 C 32.070784 32.023281 33.74629 33.703651 33.74629 35.776108 Z M 33.74629 35.776108 " style="fill:#ff8c00;stroke-width:7.5"/></g><path d="M 30.005092 33.479602 L 30.005092 7.680312 " style="fill:none;stroke-width:5"/><g style="fill:#ff8c00"><g style="stroke-linecap:round;stroke-linejoin:round"><path d="M 42.089392 16.093367 L 30.005092 5.137351 L 17.909316 16.093367 Z M 42.089392 16.093367 " style="stroke-width:7.5"/><path d="M 42.089392 16.093367 L 30.005092 5.137351 L 17.909316 16.093367 Z M 42.089392 16.093367 " style="fill-rule:evenodd;stroke-width:2.5"/></g><path d="M 28.914865 35.697691 L 6.582436 48.602937 " style="stroke-width:5"/><g style="stroke-linecap:round;stroke-linejoin:round"><path d="M 7.821851 33.927701 L 4.379031 49.868816 L 19.906151 54.865118 Z M 7.821851 33.927701 " style="stroke-width:7.5"/><path d="M 7.821851 33.927701 L 4.379031 49.868816 L 19.906151 54.865118 Z M 7.821851 33.927701 " style="fill-rule:evenodd;stroke-width:2.5"/></g><path d="M 31.083842 35.697691 L 53.416271 48.602937 " style="stroke-width:5"/><g style="stroke-linecap:round;stroke-linejoin:round"><path d="M 40.092556 54.865118 L 55.619676 49.868816 L 52.176856 33.927701 Z M 40.092556 54.865118 " style="stroke-width:7.5"/><g style="fill-rule:evenodd;stroke-width:2.5"><path d="M 40.092556 54.865118 L 55.619676 49.868816 L 52.176856 33.927701 Z M 40.092556 54.865118 "/><path d="M 33.74629 35.776108 C 33.74629 37.837363 32.070784 39.517733 30.005092 39.517733 C 27.927923 39.517733 26.252417 37.837363 26.252417 35.776108 C 26.252417 33.703651 27.927923 32.023281 30.005092 32.023281 C 32.070784 32.023281 33.74629 33.703651 33.74629 35.776108 Z M 33.74629 35.776108 "/></g></g></g></g></svg>