<svg xmlns="http://www.w3.org/2000/svg" viewBox="0 0 32 32"><path d="m 16.05 31.879 c 21.11 2.402 20.816 -31.988 -0.375 -31.582 c -19.707 -1.133 -21.488 33.457 0.375 31.582" fill="#ff8c00"/><g fill="#fff"><path d="m 11.855 6.926 c -0.766 0 -1.387 0.078 -1.918 0.277 c -0.531 0.203 -0.945 0.555 -1.184 0.965 c -0.48 0.824 -0.43 1.781 -0.43 2.992 v 9.68 c 0 1.207 -0.051 2.168 0.43 2.992 c 0.238 0.41 0.652 0.762 1.184 0.961 c 0.531 0.203 1.156 0.281 1.918 0.281 h 7.07 c 0.766 0 1.391 -0.078 1.918 -0.281 c 0.531 -0.199 0.945 -0.551 1.188 -0.961 c 0.477 -0.824 0.426 -1.785 0.426 -2.992 v -9.68 c 0 -1.211 0.055 -2.168 -0.426 -2.992 c -0.242 -0.41 -0.656 -0.762 -1.188 -0.965 c -0.527 -0.199 -1.152 -0.277 -1.918 -0.277 m -7.07 1.211 h 7.07 c 0.648 0 1.082 0.074 1.348 0.176 c 0.262 0.102 0.379 0.203 0.492 0.395 c 0.227 0.391 0.277 1.242 0.277 2.453 v 9.68 c 0 1.207 -0.051 2.063 -0.277 2.453 c -0.113 0.191 -0.23 0.293 -0.492 0.395 c -0.266 0.102 -0.699 0.176 -1.348 0.176 h -7.07 c -0.645 0 -1.082 -0.074 -1.344 -0.176 c -0.266 -0.102 -0.383 -0.203 -0.496 -0.395 c -0.227 -0.391 -0.277 -1.246 -0.277 -2.453 v -9.68 c 0 -1.211 0.051 -2.063 0.277 -2.453 c 0.113 -0.191 0.23 -0.293 0.496 -0.395 c 0.262 -0.102 0.699 -0.176 1.344 -0.176"/><path d="m 11.152 9.348 v 4.836 h 8.477 v -4.836" fill-rule="evenodd"/><path d="m 15.391 15.395 c -2.332 0 -4.238 1.633 -4.238 3.629 c 0 2 1.906 3.629 4.238 3.629 c 2.332 0 4.238 -1.629 4.238 -3.629 c 0 -1.996 -1.906 -3.629 -4.238 -3.629 m 0 1.211 c 1.566 0 2.824 1.074 2.824 2.418 c 0 1.344 -1.258 2.422 -2.824 2.422 c -1.57 0 -2.828 -1.078 -2.828 -2.422 c 0 -1.344 1.258 -2.418 2.828 -2.418"/></g></svg>