<svg xmlns="http://www.w3.org/2000/svg" viewBox="0 0 32 32"><g fill="#fff"><path d="M 21.164062 11.417969 C 21.164062 12.953125 19.921875 14.195312 18.386719 14.195312 C 16.851562 14.195312 15.609375 12.953125 15.609375 11.417969 C 15.609375 9.882812 16.855469 8.640625 18.386719 8.640625 C 19.921875 8.640625 21.164062 9.882812 21.164062 11.417969 Z M 21.164062 11.417969 "/><path d="M 21.496094 21.171875 C 21.496094 22.707031 20.25 23.953125 18.71875 23.953125 C 17.183594 23.953125 15.941406 22.707031 15.941406 21.171875 C 15.941406 19.640625 17.183594 18.394531 18.71875 18.394531 C 20.253906 18.394531 21.496094 19.640625 21.496094 21.171875 Z M 21.496094 21.171875 "/><path d="M 10.84375 15.835938 C 10.84375 17.371094 9.597656 18.613281 8.066406 18.613281 C 6.53125 18.613281 5.289062 17.371094 5.289062 15.835938 C 5.289062 14.304688 6.53125 13.058594 8.066406 13.058594 C 9.601562 13.058594 10.84375 14.304688 10.84375 15.835938 Z M 10.84375 15.835938 "/></g><path d="M 14.863281 31.761719 C 33.945312 33.585938 39.082031 2.828125 19.488281 0.4375 C 1.472656 -2.523438 -7.804688 25.359375 10.097656 30.933594 C 11.609375 31.542969 13.265625 31.53125 14.867188 31.761719 Z M 14.863281 31.761719 " fill="#ff8c00"/><g stroke-linejoin="round" stroke-linecap="round"><path d="M 86.099567 10.258299 C 85.359608 10.258299 84.759061 10.855802 84.759061 11.59715 L 84.759061 20.670355 C 84.759061 21.411702 85.359608 22.009206 86.099567 22.009206 L 95.172117 22.009206 C 95.912076 22.009206 96.501899 21.411702 96.501899 20.670355 L 96.501899 11.59715 C 96.501899 10.855802 95.912076 10.258299 95.172117 10.258299 Z M 86.099567 10.258299 " transform="matrix(0.364 0 0 0.353 -22 5.21)" fill="none" stroke="#fff" stroke-width="8.13"/><path d="M 11.100168 10.258299 C 10.360208 10.258299 9.759661 10.855802 9.759661 11.59715 L 9.759661 20.670355 C 9.759661 21.411702 10.360208 22.009206 11.100168 22.009206 L 20.172717 22.009206 C 20.912677 22.009206 21.5025 21.411702 21.5025 20.670355 L 21.5025 11.59715 C 21.5025 10.855802 20.912677 10.258299 20.172717 10.258299 Z M 11.100168 10.258299 " transform="matrix(0.364 0 0 0.353 5.32 5.21)" fill="#fff" fill-rule="evenodd" stroke="#ff8c00" stroke-width="3.13"/><path d="M 114.760244 10.258299 C 114.020285 10.258299 113.419738 10.855802 113.419738 11.59715 L 113.419738 20.670355 C 113.419738 21.411702 114.020285 22.009206 114.760244 22.009206 L 123.832794 22.009206 C 124.572754 22.009206 125.162577 21.411702 125.162577 20.670355 L 125.162577 11.59715 C 125.162577 10.855802 124.572754 10.258299 123.832794 10.258299 Z M 114.760244 10.258299 " transform="matrix(0.364 0 0 0.353 -21.92 5.21)" fill="none" stroke="#fff" stroke-width="8.13"/><path d="M 39.749778 10.258299 C 39.009818 10.258299 38.419995 10.855802 38.419995 11.59715 L 38.419995 20.670355 C 38.419995 21.411702 39.009818 22.009206 39.749778 22.009206 L 48.822327 22.009206 C 49.562287 22.009206 50.162834 21.411702 50.162834 20.670355 L 50.162834 11.59715 C 50.162834 10.855802 49.562287 10.258299 48.822327 10.258299 Z M 39.749778 10.258299 " transform="matrix(0.364 0 0 0.353 5.4 5.21)" fill="#fff" fill-rule="evenodd" stroke="#ff8c00" stroke-width="3.13"/><path d="M 86.099567 38.799593 C 85.359608 38.799593 84.759061 39.397097 84.759061 40.138444 L 84.759061 49.200584 C 84.759061 49.941931 85.359608 50.539435 86.099567 50.539435 L 95.172117 50.539435 C 95.912076 50.539435 96.501899 49.941931 96.501899 49.200584 L 96.501899 40.138444 C 96.501899 39.397097 95.912076 38.799593 95.172117 38.799593 Z M 86.099567 38.799593 " transform="matrix(0.364 0 0 0.353 -22 5.33)" fill="none" stroke="#fff" stroke-width="8.13"/><path d="M 11.100168 38.799593 C 10.360208 38.799593 9.759661 39.397097 9.759661 40.138444 L 9.759661 49.200584 C 9.759661 49.941931 10.360208 50.539435 11.100168 50.539435 L 20.172717 50.539435 C 20.912677 50.539435 21.5025 49.941931 21.5025 49.200584 L 21.5025 40.138444 C 21.5025 39.397097 20.912677 38.799593 20.172717 38.799593 Z M 11.100168 38.799593 " transform="matrix(0.364 0 0 0.353 5.32 5.33)" fill="#fff" fill-rule="evenodd" stroke="#ff8c00" stroke-width="3.13"/><path d="M 114.760244 38.799593 C 114.020285 38.799593 113.419738 39.397097 113.419738 40.138444 L 113.419738 49.200584 C 113.419738 49.941931 114.020285 50.539435 114.760244 50.539435 L 123.832794 50.539435 C 124.572754 50.539435 125.162577 49.941931 125.162577 49.200584 L 125.162577 40.138444 C 125.162577 39.397097 124.572754 38.799593 123.832794 38.799593 Z M 114.760244 38.799593 " transform="matrix(0.364 0 0 0.353 -21.92 5.33)" fill="none" stroke="#fff" stroke-width="8.13"/><path d="M 39.749778 38.799593 C 39.009818 38.799593 38.419995 39.397097 38.419995 40.138444 L 38.419995 49.200584 C 38.419995 49.941931 39.009818 50.539435 39.749778 50.539435 L 48.822327 50.539435 C 49.562287 50.539435 50.162834 49.941931 50.162834 49.200584 L 50.162834 40.138444 C 50.162834 39.397097 49.562287 38.799593 48.822327 38.799593 Z M 39.749778 38.799593 " transform="matrix(0.364 0 0 0.353 5.4 5.33)" fill="#fff" fill-rule="evenodd" stroke="#ff8c00" stroke-width="3.13"/></g></svg>