<svg xmlns="http://www.w3.org/2000/svg" viewBox="0 0 32 32"><path d="m 4.055 8.387 c -11.316 12.785 5.434 26.316 15.25 22.992 c 9.816 -3.328 16.406 -12.719 10 -20.949 c -6.41 -8.23 -12.711 -16.17 -24.03 -3.387" fill="#ee6708"/><path d="m 14.977 31.758 c -2.52 -0.199 -5.648 -1.387 -7.949 -3.02 c -1.309 -0.961 -2.484 -2.027 -3.539 -3.246 c 0.297 -0.535 3.855 -4.617 4.203 -4.059 c 4.434 4.305 13.508 4.547 16.715 -0.254 c 1.551 1.039 3.055 2.75 4.086 4.082 c -1.75 1.973 -4.04 3.641 -6.129 4.723 c -2.965 1.512 -4.891 1.973 -7.387 1.773" fill="#ff9f79"/><g fill="#fff"><path d="m 14.12 6.824 h 3.625 v 8.434 h -3.625"/><path d="m 9.492 23.668 c -0.613 -0.59 -1.59 -1.918 -1.953 -2.648 c -0.793 -1.602 -0.918 -4.563 -0.27 -6.422 c 1.125 -2.484 2.199 -4.348 5.293 -5.574 c 0 0.809 0.156 1.875 0.156 2.684 c -0.738 0.453 -1.445 1.035 -1.957 1.684 c -0.539 0.695 -0.973 1.641 -1.164 2.535 c -0.477 2.215 0.863 5.219 2.84 6.371 c 2.047 1.09 4.406 1.324 6.34 0.469 c 2.184 -0.996 3.305 -2.813 3.387 -5.508 c -0.09 -2.555 -0.816 -4.137 -3.03 -5.5 c 0 -0.879 0 -1.91 0 -2.785 c 2 0.844 3.836 2.332 4.949 4.172 c 1.262 2.238 1.27 5.141 0.563 7.238 c -0.875 2.426 -3.414 5.04 -6.906 5.477 c -2.84 0.34 -6.437 -0.512 -8.25 -2.191"/></g></svg>