<svg xmlns="http://www.w3.org/2000/svg" viewBox="0 0 32 32"><path d="m 0.574 14.13 c 1.906 -18.16 24.762 -16.01 29.05 -6.082 c 4.293 9.93 1.691 21.969 -9.08 23.281 c -10.777 1.316 -21.883 0.965 -19.973 -17.199" fill="#ff8c00"/><path d="m 9.945 8.418 c -1.098 0 -1.98 0.934 -1.98 2.09 v 12.543 c 0 1.156 0.883 2.09 1.98 2.09 h 11.879 c 1.098 0 1.98 -0.934 1.98 -2.09 v -12.543 c 0 -1.156 -0.883 -2.09 -1.98 -2.09 m -11.879 2.09 h 11.879 v 6.27 h -5.938 v 6.273 h -5.941 m 2.969 -10.453 c -0.547 0 -0.988 0.469 -0.988 1.047 c 0 0.578 0.441 1.043 0.988 1.043 h 5.941 c 0.547 0 0.988 -0.465 0.988 -1.043 c 0 -0.578 -0.441 -1.047 -0.988 -1.047 m -5.941 4.18 c -0.547 0 -0.988 0.469 -0.988 1.047 c 0 0.578 0.441 1.047 0.988 1.047 h 0.992 v -2.094 m 3.957 2.094 h 3.961 l -3.961 4.18" fill="#fff"/></svg>