<svg xmlns="http://www.w3.org/2000/svg" viewBox="0 0 32 32"><path d="m 0.406 19.664 c 6.246 29.988 49.23 -2.207 23.41 -17.449 c -10.03 -6.535 -26.625 2.023 -23.41 17.449" fill="#a9a9a9"/><g fill="#fff" stroke="#fff" stroke-width="1.687" transform="matrix(0.1005 0 0 0.0989 0.691 4.533)"><path d="m 66.778 168.16 c -3.304 -1.303 -4.276 -5.648 -1.749 -7.939 c 1.127 -1.027 3.071 -1.382 7.891 -1.382 h 6.414 l -0.505 4.226 c -0.272 2.33 -0.7 4.424 -0.933 4.661 c -0.661 0.671 -9.64 1.027 -11.08 0.434"/><path d="m 64.796 139.8 c -1.71 -2.449 -1.633 -4.424 0.35 -6.399 c 1.322 -1.303 2.76 -1.619 7.385 -1.619 h 5.753 v 9.835 h -6.103 c -5.403 0 -6.258 -0.197 -7.385 -1.817"/><path d="m 66.16 114.09 c -3.537 -2.449 -3.809 -4.266 -1.127 -6.951 c 2.216 -2.212 2.954 -2.449 7.852 -2.449 h 5.403 v 10.664 h -5.17 c -3.304 0 -5.792 -0.434 -6.958 -1.264"/><path d="m 100.75 76.21 c 0.661 -5.727 2.293 -8.452 5.01 -8.452 c 2.76 0 4.509 3 5.092 8.571 l 0.466 4.582 h -11.12"/><path d="m 126.83 76.49 c 0.505 -5.767 2.371 -8.689 5.597 -8.689 c 3.148 0 4.703 2.37 5.403 8.413 l 0.583 4.7 h -11.933"/><path d="m 158.08 81.11 l -4.315 -0.276 v -4.266 c 0.039 -5.767 1.399 -8.294 4.664 -8.61 c 3.693 -0.395 5.17 2.133 5.17 8.61 c 0 2.844 -0.272 5.095 -0.622 5.02 c -0.311 -0.079 -2.527 -0.276 -4.898 -0.474"/><path d="m 186.61 114.21 c -0.544 -0.671 -0.855 -2.923 -0.7 -5.135 l 0.233 -3.95 l 5.403 -0.237 c 4.781 -0.237 5.636 -0.039 7.58 1.777 c 2.799 2.607 2.799 4.819 0.039 6.991 c -2.643 2.093 -10.961 2.449 -12.555 0.553"/><path d="m 187.08 140.55 c -1.088 -0.79 -1.36 -1.935 -1.166 -4.7 l 0.272 -3.673 l 5.908 -0.237 c 5.05 -0.197 6.141 0 7.58 1.422 c 2.099 2.133 2.138 4.503 0.039 6.596 c -1.283 1.264 -2.76 1.659 -6.414 1.659 c -2.604 0 -5.403 -0.474 -6.219 -1.066"/><path d="m 186.73 167.72 c -0.544 -0.553 -0.972 -2.765 -0.972 -4.937 v -3.95 h 6.53 c 6.06 0 6.647 0.158 7.891 2.054 c 1.788 2.686 0.933 5.964 -1.788 7.03 c -2.915 1.106 -10.456 0.987 -11.661 -0.197"/><path d="m 155.44 203.43 c -1.438 -1.817 -1.71 -3.16 -1.516 -7.188 l 0.233 -4.977 l 4.742 -0.237 l 4.703 -0.276 v 6.083 c 0 4.819 -0.311 6.359 -1.477 7.425 c -2.216 1.975 -4.703 1.659 -6.686 -0.869"/><path d="m 129.2 204.02 c -1.944 -1.935 -2.876 -6.438 -2.177 -10.309 l 0.544 -2.883 h 9.795 v 5.767 c 0 4.661 -0.311 6.04 -1.671 7.386 c -2.06 2.054 -4.47 2.093 -6.491 0.039"/><path d="m 102.62 204.1 c -0.894 -0.948 -1.555 -3.673 -1.866 -7.583 l -0.544 -6.083 l 9.873 0.553 l 0.505 3.12 c 1.36 8.452 -3.693 14.772 -7.968 9.993"/></g><path d="m 10.773 23.441 c -1.094 -0.055 -1.305 -0.121 -1.676 -0.523 c -0.434 -0.473 -0.449 -0.66 -0.445 -4.957 c 0 -4.098 0 -4.105 0.234 -4.527 c 0.141 -0.262 0.383 -0.5 0.633 -0.633 c 0.387 -0.207 0.539 -0.211 4.473 -0.211 c 4.641 0.004 4.609 0 5.082 0.82 l 0.254 0.438 l 0.004 4.117 c 0.004 4.527 -0.004 4.582 -0.605 5.098 c -0.176 0.148 -0.465 0.297 -0.645 0.332 c -0.43 0.078 -5.977 0.113 -7.305 0.047" fill="#616262"/><path d="m 99.86 134.06 c 0.621 0.899 -0.903 1.285 -1.487 1.028 c -1.581 -0.642 -1.468 -2.808 -0.583 -3.965 c 1.581 -2.074 4.705 -1.799 6.474 -0.147 c 2.616 2.423 2.146 6.627 -0.282 8.976 c -3.256 3.157 -8.564 2.496 -11.5 -0.734 c -3.689 -4.075 -2.842 -10.481 1.186 -13.987 c 4.875 -4.259 12.422 -3.212 16.487 1.615 c 4.818 5.69 3.576 14.354 -2.051 18.999 c -6.493 5.36 -16.299 3.928 -21.513 -2.496 c -5.91 -7.306 -4.272 -18.228 2.955 -24.01 c 8.093 -6.48 20.18 -4.626 26.5 3.396 c 7.04 8.903 5.01 22.1 -3.821 29" transform="matrix(0.20755 0 0 0.2128 -7.12 -10.403)" fill="none" stroke="#fff" stroke-width="3.03"/><path d="m 19.258 8.934 l 0.031 0.031 l 0.086 -0.031 m 0.965 1.01 l 5.941 5.539 v -5.539" fill-opacity="0.196"/><path d="m 19.258 3.395 l 7.02 6.547 h -5.941 c -0.527 0 -1.082 -0.52 -1.082 -1.01 v -5.539" fill="#fff" fill-opacity="0.392"/></svg>