<svg xmlns="http://www.w3.org/2000/svg" viewBox="0 0 32 32"><path d="m 0.406 19.664 c 6.246 29.988 49.23 -2.207 23.41 -17.449 c -10.03 -6.535 -26.625 2.023 -23.41 17.449" fill="#4e4e4e"/><path d="m 19.242 8.949 l 0.031 0.031 l 0.086 -0.031 m 0.965 1.01 l 5.941 5.539 v -5.539" fill-opacity="0.196"/><g fill="#fff"><path d="m 19.242 3.41 l 7.02 6.547 h -5.941 c -0.527 0 -1.082 -0.52 -1.082 -1.01 v -5.539" fill-opacity="0.392"/><path d="m 9.559 13.508 c -0.754 0 -1.359 0.609 -1.359 1.359 v 3.402 l 6.785 -4.762 m 2.711 0 l -5.777 4.141 l 6.723 6.355 c 0.254 -0.246 0.414 -0.59 0.414 -0.973 v -8.164 c 0 -0.754 -0.605 -1.359 -1.359 -1.359 m -7.133 5.113 l -2.359 1.688 v 2.723 c 0 0.754 0.602 1.359 1.355 1.359 h 6.781"/></g></svg>