<svg xmlns="http://www.w3.org/2000/svg" viewBox="0 0 32 32"><path d="m 0.406 19.664 c 6.246 29.988 49.23 -2.207 23.41 -17.449 c -10.03 -6.535 -26.625 2.023 -23.41 17.449" fill="#eff8ff"/><path d="m 19.242 8.949 l 0.031 0.031 l 0.086 -0.031 m 0.965 1.01 l 5.941 5.539 v -5.539" fill-opacity="0.196"/><path d="m 19.242 3.41 l 7.02 6.547 h -5.941 c -0.527 0 -1.082 -0.52 -1.082 -1.01 v -5.539" fill="#fff" fill-opacity="0.392"/><g fill="#4068b8"><path d="m 17.82 23.293 c -0.645 0 -1.168 -0.5 -1.168 -1.121 c 0 -0.617 0.523 -1.117 1.168 -1.117 c 0.645 0 1.168 0.5 1.168 1.117 c 0 0.621 -0.523 1.121 -1.168 1.121"/><path d="m 17.82 19.594 c -0.645 0 -1.168 -0.5 -1.168 -1.117 c 0 -0.617 0.523 -1.121 1.168 -1.121 c 0.645 0 1.168 0.504 1.168 1.121 c 0 0.617 -0.523 1.117 -1.168 1.117"/><path d="m 13.965 23.293 c -0.645 0 -1.164 -0.5 -1.164 -1.121 c 0 -0.617 0.52 -1.117 1.164 -1.117 c 0.645 0 1.168 0.5 1.168 1.117 c 0 0.621 -0.523 1.121 -1.168 1.121"/><path d="m 13.965 19.594 c -0.645 0 -1.164 -0.5 -1.164 -1.117 c 0 -0.617 0.52 -1.121 1.164 -1.121 c 0.645 0 1.168 0.504 1.168 1.121 c 0 0.617 -0.523 1.117 -1.168 1.117"/><path d="m 10.113 23.293 c -0.645 0 -1.168 -0.5 -1.168 -1.121 c 0 -0.617 0.523 -1.117 1.168 -1.117 c 0.645 0 1.168 0.5 1.168 1.117 c 0 0.621 -0.523 1.121 -1.168 1.121"/><path d="m 10.113 19.594 c -0.645 0 -1.168 -0.5 -1.168 -1.117 c 0 -0.617 0.523 -1.121 1.168 -1.121 c 0.645 0 1.168 0.504 1.168 1.121 c 0 0.617 -0.523 1.117 -1.168 1.117"/><path d="m 18.984 14.781 c 0 0.617 -0.52 1.117 -1.164 1.117 c -0.645 0 -1.168 -0.5 -1.168 -1.117 c 0 -0.621 0.523 -1.121 1.168 -1.121 c 0.645 0 1.164 0.5 1.164 1.121"/><path d="m 15.13 14.781 c 0 0.617 -0.523 1.117 -1.168 1.117 c -0.645 0 -1.164 -0.5 -1.164 -1.117 c 0 -0.621 0.52 -1.121 1.164 -1.121 c 0.645 0 1.168 0.5 1.168 1.121"/><path d="m 11.281 14.781 c 0 0.617 -0.523 1.117 -1.168 1.117 c -0.645 0 -1.168 -0.5 -1.168 -1.117 c 0 -0.621 0.523 -1.121 1.168 -1.121 c 0.645 0 1.168 0.5 1.168 1.121"/></g></svg>