<svg xmlns="http://www.w3.org/2000/svg" viewBox="0 0 32 32"><path d="m 26.395 4.641 c 25.23 33.3 -44.2 38.03 -21.918 4.04 c 5.082 -7.75 15.238 -12.855 21.918 -4.04" fill="#df1818"/><path d="m 18.563 11.05 l 0.031 0.031 l 0.082 -0.031 m 0.914 1.031 l 5.664 5.688 v -5.688" fill-opacity="0.196"/><g fill="#fff"><path d="m 18.699 5.453 l 6.691 6.719 h -5.66 c -0.5 0 -1.031 -0.531 -1.031 -1.035" fill-opacity="0.392"/><path d="m 12.04 10.129 c -0.797 -0.012 -1.488 0.789 -1.32 1.586 c 0.113 1.219 0.898 2.211 1.508 3.215 c 0.07 0.379 -0.125 0.742 -0.141 1.113 c -0.398 2.188 -1.01 4.359 -1.941 6.367 c -1.16 0.535 -2.469 1.063 -3.145 2.219 c -0.43 0.797 0.172 1.879 1.063 1.961 c 0.824 0.117 1.438 -0.594 1.887 -1.188 c 0.469 -0.641 0.777 -1.398 1.168 -2.086 c 2.371 -0.961 4.863 -1.629 7.406 -1.883 c 1.031 0.742 2.117 1.609 3.438 1.664 c 0.766 -0.012 1.391 -0.758 1.305 -1.516 c -0.051 -0.691 -0.66 -1.176 -1.297 -1.305 c -1.02 -0.313 -2.113 -0.141 -3.152 -0.133 c -2 -1.605 -3.848 -3.449 -5.301 -5.563 c 0.109 -1.281 0.324 -2.703 -0.344 -3.871 c -0.25 -0.367 -0.68 -0.621 -1.133 -0.582 m 0.039 1.168 c 0.227 0.043 0.242 0.379 0.305 0.559 c 0.059 0.367 0.055 0.742 0.047 1.113 c -0.266 -0.504 -0.617 -1.027 -0.555 -1.625 c 0.07 -0.004 0.133 -0.039 0.203 -0.047 m 1.242 5 c 1.191 1.488 2.516 2.859 3.961 4.102 c -1.906 0.289 -3.797 0.781 -5.609 1.438 c 0.695 -1.82 1.223 -3.707 1.57 -5.629 c 0.027 0.031 0.055 0.059 0.078 0.09 m 7.434 5 c 0.465 0.047 0.996 0.02 1.367 0.34 c 0.035 0.289 -0.316 0.332 -0.504 0.227 c -0.391 -0.129 -0.777 -0.297 -1.109 -0.547 c 0.082 -0.004 0.164 -0.016 0.246 -0.02 m -11.547 3.035 c -0.223 0.41 -0.539 0.801 -0.871 1.09 c -0.113 0.18 -0.418 -0.156 -0.277 -0.297 c 0.289 -0.453 0.793 -0.695 1.242 -0.965 c -0.031 0.059 -0.063 0.113 -0.094 0.176"/></g></svg>