<svg xmlns="http://www.w3.org/2000/svg" viewBox="0 0 32 32"><path d="m 0.406 19.664 c 6.246 29.988 49.23 -2.207 23.41 -17.449 c -10.03 -6.535 -26.625 2.023 -23.41 17.449" fill="#dcdcdc"/><path d="m 19.242 8.949 l 0.031 0.031 l 0.086 -0.031 m 0.965 1.01 l 5.941 5.539 v -5.539" fill-opacity="0.196"/><path d="m 19.242 3.41 l 7.02 6.547 h -5.941 c -0.527 0 -1.082 -0.52 -1.082 -1.01 v -5.539" fill="#fff" fill-opacity="0.392"/><path d="m 181.3 911.91 h 60.781 c 8.313 0 15.06 6.75 15.06 15.06 v 58.09 c 0 8.313 -6.75 15.06 -15.06 15.06 h -60.781 c -8.313 0 -15.03 -6.75 -15.03 -15.06 v -58.09 c 0 -8.313 6.719 -15.06 15.03 -15.06" transform="matrix(0.125 0 0 0.125 -12.264 -100.21)" fill="#9c009c" stroke="#9c009c" stroke-width="1.173"/><path d="m 9.438 22.52 c -0.449 -0.516 -0.602 -1.023 -0.602 -2.043 c 0 -0.926 0.039 -1.078 0.422 -1.734 c 0.523 -0.895 1.223 -1.613 2.023 -2.086 c 0.551 -0.32 0.73 -0.359 1.617 -0.352 c 1.223 0.152 2.285 0.223 3.258 1.066 c 0.465 0.352 1 0.605 1.406 0.859 c 0.539 0.344 1.16 0.66 1.379 0.703 c 0.789 0.16 0.586 0.336 -0.305 0.266 c -0.582 -0.047 -1.254 -0.223 -2.051 -0.539 c -1.34 -0.492 -2.906 -0.82 -3.988 -0.234 c -1.016 0.551 -1.543 1.406 -2.27 3.68 c -0.203 0.633 -0.555 0.793 -0.891 0.414" fill="#399722"/></svg>