<svg xmlns="http://www.w3.org/2000/svg" xmlns:xlink="http://www.w3.org/1999/xlink" viewBox="0 0 32 32"><defs><g id="4" clip-path="url(#3)"><path d="m 3.233 23.411 c 3.39 -10.512 11.08 -17.225 20.392 -20.338 l 8.377 9.424 l -4.329 11.617 c -1.827 1.088 -2.732 1.908 -3.539 3.432 c -1.991 -4.252 -4.296 -6.461 -8.608 -7.616 c -4.246 -1.155 -8.558 -0.084 -12.294 3.482" transform="matrix(0.23734 0 0 0.23336 6.307 11.592)" fill="url(#2)" fill-rule="evenodd" stroke="#545653" stroke-width="0.8"/></g><g id="8" clip-path="url(#7)"><path d="m 40.26 1.572 c 10.55 3.298 17.33 10.948 20.507 20.221 l -9.365 8.453 l -11.652 -4.235 c -1.103 -1.825 -1.926 -2.712 -3.456 -3.515 c 4.246 -2.025 6.419 -4.352 7.554 -8.671 c 1.119 -4.235 0.016 -8.554 -3.588 -12.253" transform="matrix(0.23734 0 0 0.23336 6.351 11.985)" fill="url(#6)" fill-rule="evenodd" stroke="#545653" stroke-width="0.8"/></g><g id="C" clip-path="url(#B)"><path d="m 60.733 38.532 c -3.193 10.579 -10.764 17.442 -19.997 20.723 l -8.558 -9.274 l 4.115 -11.701 c 1.81 -1.122 2.683 -1.959 3.473 -3.482 c 2.074 4.202 4.427 6.361 8.739 7.449 c 4.263 1.071 8.575 -0.084 12.228 -3.716" transform="matrix(0.23734 0 0 0.23336 6.351 11.985)" fill="url(#A)" fill-rule="evenodd" stroke="#545653" stroke-width="0.8"/></g><g id="G" clip-path="url(#F)"><path d="m 23.817 59.36 c -10.599 -3.147 -17.495 -10.68 -20.82 -19.92 l 9.233 -8.587 l 11.718 4.068 c 1.136 1.791 1.959 2.662 3.506 3.448 c -4.213 2.092 -6.353 4.453 -7.423 8.788 c -1.053 4.252 0.115 8.554 3.785 12.203" transform="matrix(0.23734 0 0 0.23336 6.351 11.985)" fill="url(#E)" fill-rule="evenodd" stroke="#545653" stroke-width="0.8"/></g><clipPath id="B"><path d="M 0,0 H32 V32 H0 z"/></clipPath><clipPath id="3"><path d="M 0,0 H32 V32 H0 z"/></clipPath><clipPath id="7"><path d="M 0,0 H32 V32 H0 z"/></clipPath><clipPath id="F"><path d="M 0,0 H32 V32 H0 z"/></clipPath><filter id="0" filterUnits="objectBoundingBox" x="0" y="0" width="32" height="32"><feColorMatrix type="matrix" in="SourceGraphic" values="0 0 0 0 1 0 0 0 0 1 0 0 0 0 1 0 0 0 1 0"/></filter><linearGradient id="E" gradientUnits="userSpaceOnUse" x1="18.871" y1="59.46" x2="13.516" y2="38.12"><stop stop-color="#fbe84e"/><stop offset="1" stop-color="#ededec"/></linearGradient><linearGradient id="A" gradientUnits="userSpaceOnUse" x1="60.822" y1="43.47" x2="39.449" y2="48.729"><stop stop-color="#89e234"/><stop offset="1" stop-color="#ededec"/></linearGradient><linearGradient id="6" gradientUnits="userSpaceOnUse" x1="45.2" y1="1.532" x2="50.23" y2="22.96"><stop stop-color="#719ecf"/><stop offset="1" stop-color="#ededec"/></linearGradient><linearGradient id="2" gradientUnits="userSpaceOnUse" x1="3.238" y1="18.477" x2="24.704" y2="13.613"><stop stop-color="#ac7fa8"/><stop offset="1" stop-color="#ededec"/></linearGradient><mask id="9"><g filter="url(#0)"><path fill-opacity="0.902" d="M 0,0 H32 V32 H0 z"/></g></mask><mask id="D"><g filter="url(#0)"><path fill-opacity="0.902" d="M 0,0 H32 V32 H0 z"/></g></mask><mask id="1"><g filter="url(#0)"><path fill-opacity="0.902" d="M 0,0 H32 V32 H0 z"/></g></mask><mask id="5"><g filter="url(#0)"><path fill-opacity="0.902" d="M 0,0 H32 V32 H0 z"/></g></mask></defs><path d="m 0.406 19.664 c 6.246 29.988 49.23 -2.207 23.41 -17.449 c -10.03 -6.535 -26.625 2.023 -23.41 17.449" fill="#85ddca"/><path d="m 19.242 8.949 l 0.031 0.031 l 0.086 -0.031 m 0.965 1.01 l 5.941 5.539 v -5.539" fill-opacity="0.196"/><path d="m 19.242 3.41 l 7.02 6.547 h -5.941 c -0.527 0 -1.082 -0.52 -1.082 -1.01 v -5.539" fill="#fff" fill-opacity="0.392"/><g fill="#3464a3"><path d="m 10.934 14.473 c 0.008 -1.59 1.332 -2.871 2.961 -2.867 c 1.625 0.004 2.941 1.293 2.941 2.883 c 0 1.59 -1.316 2.879 -2.941 2.883 c -1.629 0.004 -2.953 -1.281 -2.961 -2.871"/><path d="m 10.957 14.5 c 0.008 -1.59 1.332 -2.875 2.961 -2.871 c 1.625 0.004 2.941 1.293 2.941 2.883 c 0 1.59 -1.316 2.879 -2.941 2.883 c -1.629 0.004 -2.953 -1.277 -2.961 -2.867"/></g><g fill="#754f7a"><path d="m 6.309 19.02 c 0.008 -1.59 1.328 -2.871 2.957 -2.867 c 1.625 0.004 2.945 1.293 2.945 2.883 c 0 1.59 -1.32 2.879 -2.945 2.883 c -1.629 0.004 -2.949 -1.281 -2.957 -2.871"/><path d="m 6.332 19.05 c 0.008 -1.59 1.328 -2.875 2.957 -2.871 c 1.625 0.004 2.941 1.293 2.941 2.883 c 0 1.59 -1.316 2.879 -2.941 2.883 c -1.629 0.004 -2.949 -1.277 -2.957 -2.867"/></g><g fill="#72d116"><path d="m 15.563 19.02 c 0.008 -1.59 1.332 -2.871 2.961 -2.867 c 1.625 0.004 2.941 1.293 2.941 2.883 c 0 1.59 -1.316 2.879 -2.941 2.883 c -1.629 0.004 -2.953 -1.281 -2.961 -2.871"/><path d="m 15.586 19.05 c 0.008 -1.59 1.332 -2.875 2.961 -2.871 c 1.625 0.004 2.941 1.293 2.941 2.883 c 0 1.59 -1.316 2.879 -2.941 2.883 c -1.629 0.004 -2.953 -1.277 -2.961 -2.867"/></g><g fill="#c39f00"><path d="m 10.934 23.574 c 0.008 -1.59 1.332 -2.871 2.961 -2.867 c 1.625 0.004 2.941 1.293 2.941 2.883 c 0 1.59 -1.316 2.879 -2.941 2.883 c -1.629 0.004 -2.953 -1.281 -2.961 -2.871"/><path d="m 10.957 23.602 c 0.008 -1.59 1.332 -2.875 2.961 -2.871 c 1.625 0.004 2.941 1.293 2.941 2.883 c 0 1.59 -1.316 2.879 -2.941 2.883 c -1.629 0.004 -2.953 -1.277 -2.961 -2.867"/></g><use xlink:href="#4" mask="url(#1)"/><use xlink:href="#8" mask="url(#5)"/><use xlink:href="#C" mask="url(#9)"/><use xlink:href="#G" mask="url(#D)"/></svg>