<svg xmlns="http://www.w3.org/2000/svg" viewBox="0 0 32 32"><path d="m 0.406 19.664 c 6.246 29.988 49.23 -2.207 23.41 -17.449 c -10.03 -6.535 -26.625 2.023 -23.41 17.449" fill="#a31c22"/><path d="m 19.242 8.949 l 0.031 0.031 l 0.086 -0.031 m 0.965 1.01 l 5.941 5.539 v -5.539" fill-opacity="0.196"/><g fill="#fff"><path d="m 19.242 3.41 l 7.02 6.547 h -5.941 c -0.527 0 -1.082 -0.52 -1.082 -1.01 v -5.539" fill-opacity="0.392"/><path d="m 19.04 16.934 c -0.695 2.992 -4.531 5.648 -5.676 5.383 c -1.145 -0.266 -3.391 -4.473 -2.727 -7.328 c 0.398 -1.727 2.031 -2.289 4.805 -1.645 c 2.777 0.641 3.992 1.875 3.598 3.59"/></g></svg>