<svg xmlns="http://www.w3.org/2000/svg" viewBox="0 0 32 32"><path d="m 0.406 19.664 c 6.246 29.988 49.23 -2.207 23.41 -17.449 c -10.03 -6.535 -26.625 2.023 -23.41 17.449" fill="#dcdcdc"/><path d="m 19.242 8.949 l 0.031 0.031 l 0.086 -0.031 m 0.965 1.01 l 5.941 5.539 v -5.539" fill-opacity="0.196"/><path d="m 19.242 3.41 l 7.02 6.547 h -5.941 c -0.527 0 -1.082 -0.52 -1.082 -1.01 v -5.539" fill="#fff" fill-opacity="0.392"/><g fill="#878787"><path d="m 11.426 14.695 c -0.633 0 -1.117 0.211 -1.465 0.625 c -0.344 0.414 -0.516 0.988 -0.516 1.73 c 0 1.539 0.66 2.309 1.98 2.309 c 0.555 0 1.227 -0.121 2.01 -0.363 v 1.23 c -0.645 0.234 -1.367 0.352 -2.168 0.352 c -1.148 0 -2.027 -0.301 -2.637 -0.91 c -0.605 -0.609 -0.91 -1.488 -0.91 -2.629 c 0 -0.715 0.148 -1.344 0.449 -1.883 c 0.297 -0.543 0.727 -0.957 1.281 -1.242 c 0.563 -0.289 1.219 -0.434 1.973 -0.434 c 0.766 0 1.535 0.16 2.309 0.484 l -0.539 1.191 c -0.293 -0.125 -0.59 -0.23 -0.891 -0.32 c -0.297 -0.094 -0.59 -0.137 -0.879 -0.137"/><path d="m 18.863 14.777 c -0.629 0 -1.117 0.207 -1.461 0.621 c -0.348 0.414 -0.52 0.992 -0.52 1.73 c 0 1.539 0.66 2.313 1.98 2.313 c 0.555 0 1.227 -0.121 2.02 -0.367 v 1.23 c -0.648 0.234 -1.371 0.355 -2.172 0.355 c -1.148 0 -2.023 -0.305 -2.633 -0.914 c -0.609 -0.609 -0.914 -1.484 -0.914 -2.625 c 0 -0.719 0.152 -1.348 0.449 -1.887 c 0.297 -0.539 0.727 -0.953 1.285 -1.242 c 0.563 -0.289 1.219 -0.434 1.969 -0.434 c 0.77 0 1.539 0.16 2.313 0.484 l -0.539 1.191 c -0.297 -0.121 -0.594 -0.23 -0.891 -0.32 c -0.301 -0.09 -0.594 -0.137 -0.883 -0.137"/></g></svg>