<svg xmlns="http://www.w3.org/2000/svg" xmlns:xlink="http://www.w3.org/1999/xlink" viewBox="0 0 32 32"><defs><g id="3" style="clip-path:url(#2)"><path d="m 74.7 63.4 c -1.27 -3.73 -5.09 -6.79 -8.53 -6.73 c -3.46 0.03 -5.23 3.29 -3.96 7.22 c 1.27 3.93 5 6.89 8.48 6.63 c 3.43 -0.23 5.26 -3.39 4 -7.12" transform="matrix(0.169 0 0 0.152 3.97 9.18)" style="fill:#868686;stroke:#868686"/></g><g id="6" style="clip-path:url(#5)"><path d="m 74.7 63.4 c -1.27 -3.73 -5.09 -6.79 -8.53 -6.73 c -3.46 0.03 -5.23 3.29 -3.96 7.22 c 1.27 3.93 5 6.89 8.48 6.63 c 3.43 -0.23 5.26 -3.39 4 -7.12" transform="matrix(0.169 0 0 0.152 3.97 9.18)" style="fill:#868686;stroke:#868686"/></g><g id="9" style="clip-path:url(#8)"><path d="m 67.92 41.2 c -0.97 -3.91 -4.31 -7.3 -7.77 -7.53 c -3.43 -0.23 -5.69 2.93 -4.73 7 c 0.95 4.11 4.7 7.43 8.14 7.45 c 3.46 0.03 5.3 -3.06 4.36 -6.97" transform="matrix(0.169 0 0 0.152 3.97 9.18)" style="fill:#868686;stroke:#868686"/></g><g id="C" style="clip-path:url(#B)"><path d="m 67.92 41.2 c -0.97 -3.91 -4.31 -7.3 -7.77 -7.53 c -3.43 -0.23 -5.69 2.93 -4.73 7 c 0.95 4.11 4.7 7.43 8.14 7.45 c 3.46 0.03 5.3 -3.06 4.36 -6.97" transform="matrix(0.169 0 0 0.152 3.97 9.18)" style="fill:#868686;stroke:#868686"/></g><g id="F" style="clip-path:url(#E)"><path d="m 94.7 62.7 c -1.27 -3.47 -5.07 -6.3 -8.53 -6.27 c -3.43 0.05 -5.23 3.08 -3.96 6.76 c 1.24 3.65 5 6.37 8.46 6.14 c 3.43 -0.23 5.28 -3.19 4 -6.63" transform="matrix(0.169 0 0 0.152 3.97 9.18)" style="fill:#868686;stroke:#868686"/></g><g id="I" style="clip-path:url(#H)"><path d="m 94.7 62.7 c -1.27 -3.47 -5.07 -6.3 -8.53 -6.27 c -3.43 0.05 -5.23 3.08 -3.96 6.76 c 1.24 3.65 5 6.37 8.46 6.14 c 3.43 -0.23 5.28 -3.19 4 -6.63" transform="matrix(0.169 0 0 0.152 3.97 9.18)" style="fill:#868686;stroke:#868686"/></g><g id="L" style="clip-path:url(#K)"><path d="m 47.94 40.4 c -0.97 -4.19 -4.29 -7.79 -7.74 -8 c -3.43 -0.26 -5.69 3.16 -4.75 7.53 c 0.95 4.37 4.68 7.89 8.14 7.94 c 3.46 0.03 5.3 -3.29 4.36 -7.45" transform="matrix(0.169 0 0 0.152 3.97 9.18)" style="fill:#868686;stroke:#868686"/></g><g id="O" style="clip-path:url(#N)"><path d="m 47.94 40.4 c -0.97 -4.19 -4.29 -7.79 -7.74 -8 c -3.43 -0.26 -5.69 3.16 -4.75 7.53 c 0.95 4.37 4.68 7.89 8.14 7.94 c 3.46 0.03 5.3 -3.29 4.36 -7.45" transform="matrix(0.169 0 0 0.152 3.97 9.18)" style="fill:#868686;stroke:#868686"/></g><g id="R" style="clip-path:url(#Q)"><path d="m 65 18.23 c 0.07 -3.96 -2.19 -7.53 -5.6 -8 c -3.41 -0.49 -6.71 2.42 -6.8 6.58 c -0.12 4.16 2.97 7.79 6.41 8.1 c 3.43 0.28 5.9 -2.67 5.99 -6.63" transform="matrix(0.169 0 0 0.152 3.97 9.18)" style="fill:#868686;stroke:#868686"/></g><g id="U" style="clip-path:url(#T)"><path d="m 65 18.23 c 0.07 -3.96 -2.19 -7.53 -5.6 -8 c -3.41 -0.49 -6.71 2.42 -6.8 6.58 c -0.12 4.16 2.97 7.79 6.41 8.1 c 3.43 0.28 5.9 -2.67 5.99 -6.63" transform="matrix(0.169 0 0 0.152 3.97 9.18)" style="fill:#868686;stroke:#868686"/></g><g id="X" style="clip-path:url(#W)"><path d="m 45.2 15.89 c 0.12 -4.22 -2.12 -8 -5.53 -8.51 c -3.41 -0.51 -6.75 2.62 -6.87 7 c -0.14 4.42 2.93 8.28 6.36 8.59 c 3.43 0.31 5.92 -2.9 6 -7.12" transform="matrix(0.169 0 0 0.152 3.97 9.18)" style="fill:#868686;stroke:#868686"/></g><g id="a" style="clip-path:url(#Z)"><path d="m 45.2 15.89 c 0.12 -4.22 -2.12 -8 -5.53 -8.51 c -3.41 -0.51 -6.75 2.62 -6.87 7 c -0.14 4.42 2.93 8.28 6.36 8.59 c 3.43 0.31 5.92 -2.9 6 -7.12" transform="matrix(0.169 0 0 0.152 3.97 9.18)" style="fill:#868686;stroke:#868686"/></g><g id="d" style="clip-path:url(#c)"><path d="m 81 84.8 c -0.83 -3.62 -4.47 -6.35 -7.91 -6 c -3.43 0.31 -5.35 3.65 -4.52 7.51 c 0.85 3.86 4 6.58 7.45 6.09 c 3.41 -0.51 5.79 -3.91 4.98 -7.56" transform="matrix(0.169 0 0 0.152 3.97 9.18)" style="fill:#868686;stroke:#868686"/></g><g id="g" style="clip-path:url(#f)"><path d="m 81 84.8 c -0.83 -3.62 -4.47 -6.35 -7.91 -6 c -3.43 0.31 -5.35 3.65 -4.52 7.51 c 0.85 3.86 4 6.58 7.45 6.09 c 3.41 -0.51 5.79 -3.91 4.98 -7.56" transform="matrix(0.169 0 0 0.152 3.97 9.18)" style="fill:#868686;stroke:#868686"/></g><g id="j" style="clip-path:url(#i)"><path d="m 61.2 87.1 c -0.85 -3.91 -4.52 -6.84 -7.95 -6.53 c -3.43 0.31 -5.32 3.88 -4.47 7.99 c 0.88 4.11 4.1 7.1 7.51 6.55 c 3.41 -0.49 5.76 -4.11 4.91 -8" transform="matrix(0.169 0 0 0.152 3.97 9.18)" style="fill:#868686;stroke:#868686"/></g><g id="m" style="clip-path:url(#l)"><path d="m 61.2 87.1 c -0.85 -3.91 -4.52 -6.84 -7.95 -6.53 c -3.43 0.31 -5.32 3.88 -4.47 7.99 c 0.88 4.11 4.1 7.1 7.51 6.55 c 3.41 -0.49 5.76 -4.11 4.91 -8" transform="matrix(0.169 0 0 0.152 3.97 9.18)" style="fill:#868686;stroke:#868686"/></g><g id="p" style="clip-path:url(#o)"><path d="m 100.9 82.5 c -0.76 -3.39 -4.4 -5.89 -7.84 -5.58 c -3.43 0.31 -5.37 3.44 -4.56 7 c 0.81 3.6 3.96 6.12 7.38 5.6 c 3.41 -0.49 5.83 -3.68 5 -7" transform="matrix(0.169 0 0 0.152 3.97 9.18)" style="fill:#868686;stroke:#868686"/></g><g id="s" style="clip-path:url(#r)"><path d="m 100.9 82.5 c -0.76 -3.39 -4.4 -5.89 -7.84 -5.58 c -3.43 0.31 -5.37 3.44 -4.56 7 c 0.81 3.6 3.96 6.12 7.38 5.6 c 3.41 -0.49 5.83 -3.68 5 -7" transform="matrix(0.169 0 0 0.152 3.97 9.18)" style="fill:#868686;stroke:#868686"/></g><clipPath id="W"><path d="M 0,0 H32 V32 H0 z"/></clipPath><clipPath id="H"><path d="M 0,0 H32 V32 H0 z"/></clipPath><clipPath id="T"><path d="M 0,0 H32 V32 H0 z"/></clipPath><clipPath id="K"><path d="M 0,0 H32 V32 H0 z"/></clipPath><clipPath id="N"><path d="M 0,0 H32 V32 H0 z"/></clipPath><clipPath id="Z"><path d="M 0,0 H32 V32 H0 z"/></clipPath><clipPath id="o"><path d="M 0,0 H32 V32 H0 z"/></clipPath><clipPath id="c"><path d="M 0,0 H32 V32 H0 z"/></clipPath><clipPath id="l"><path d="M 0,0 H32 V32 H0 z"/></clipPath><clipPath id="f"><path d="M 0,0 H32 V32 H0 z"/></clipPath><clipPath id="i"><path d="M 0,0 H32 V32 H0 z"/></clipPath><clipPath id="Q"><path d="M 0,0 H32 V32 H0 z"/></clipPath><clipPath id="8"><path d="M 0,0 H32 V32 H0 z"/></clipPath><clipPath id="2"><path d="M 0,0 H32 V32 H0 z"/></clipPath><clipPath id="B"><path d="M 0,0 H32 V32 H0 z"/></clipPath><clipPath id="5"><path d="M 0,0 H32 V32 H0 z"/></clipPath><clipPath id="E"><path d="M 0,0 H32 V32 H0 z"/></clipPath><clipPath id="r"><path d="M 0,0 H32 V32 H0 z"/></clipPath><filter id="0" filterUnits="objectBoundingBox" x="0" y="0" width="32" height="32"><feColorMatrix type="matrix" in="SourceGraphic" values="0 0 0 0 1 0 0 0 0 1 0 0 0 0 1 0 0 0 1 0"/></filter><mask id="4"><g style="filter:url(#0)"><path d="M 0,0 H32 V32 H0 z" style="fill-opacity:0.5"/></g></mask><mask id="e"><g style="filter:url(#0)"><path d="M 0,0 H32 V32 H0 z" style="fill-opacity:0.5"/></g></mask><mask id="h"><g style="filter:url(#0)"><path d="M 0,0 H32 V32 H0 z" style="fill-opacity:0.5"/></g></mask><mask id="n"><g style="filter:url(#0)"><path d="M 0,0 H32 V32 H0 z" style="fill-opacity:0.5"/></g></mask><mask id="1"><g style="filter:url(#0)"><path d="M 0,0 H32 V32 H0 z" style="fill-opacity:0.5"/></g></mask><mask id="q"><g style="filter:url(#0)"><path d="M 0,0 H32 V32 H0 z" style="fill-opacity:0.5"/></g></mask><mask id="k"><g style="filter:url(#0)"><path d="M 0,0 H32 V32 H0 z" style="fill-opacity:0.5"/></g></mask><mask id="7"><g style="filter:url(#0)"><path d="M 0,0 H32 V32 H0 z" style="fill-opacity:0.5"/></g></mask><mask id="b"><g style="filter:url(#0)"><path d="M 0,0 H32 V32 H0 z" style="fill-opacity:0.5"/></g></mask><mask id="M"><g style="filter:url(#0)"><path d="M 0,0 H32 V32 H0 z" style="fill-opacity:0.5"/></g></mask><mask id="J"><g style="filter:url(#0)"><path d="M 0,0 H32 V32 H0 z" style="fill-opacity:0.5"/></g></mask><mask id="D"><g style="filter:url(#0)"><path d="M 0,0 H32 V32 H0 z" style="fill-opacity:0.5"/></g></mask><mask id="P"><g style="filter:url(#0)"><path d="M 0,0 H32 V32 H0 z" style="fill-opacity:0.5"/></g></mask><mask id="G"><g style="filter:url(#0)"><path d="M 0,0 H32 V32 H0 z" style="fill-opacity:0.5"/></g></mask><mask id="S"><g style="filter:url(#0)"><path d="M 0,0 H32 V32 H0 z" style="fill-opacity:0.5"/></g></mask><mask id="Y"><g style="filter:url(#0)"><path d="M 0,0 H32 V32 H0 z" style="fill-opacity:0.5"/></g></mask><mask id="A"><g style="filter:url(#0)"><path d="M 0,0 H32 V32 H0 z" style="fill-opacity:0.5"/></g></mask><mask id="V"><g style="filter:url(#0)"><path d="M 0,0 H32 V32 H0 z" style="fill-opacity:0.5"/></g></mask></defs><path d="m 0.41 19.66 c 6.25 29.98 49.2 -2.21 23.41 -17.45 c -10 -6.54 -26.63 2.03 -23.41 17.45" style="fill:#dcdcdc"/><path d="m 19.24 8.95 l 0.03 0.03 l 0.09 -0.03 m 0.96 1.01 l 5.94 5.54 v -5.54" style="fill-opacity:0.2"/><path d="m 19.24 3.41 l 7 6.55 h -5.94 c -0.53 0 -1.08 -0.52 -1.08 -1.01 v -5.54" style="fill:#fff;fill-opacity:0.39"/><use xlink:href="#3" style="mask:url(#1)"/><use xlink:href="#6" style="mask:url(#4)"/><use xlink:href="#9" style="mask:url(#7)"/><use xlink:href="#C" style="mask:url(#A)"/><use xlink:href="#F" style="mask:url(#D)"/><use xlink:href="#I" style="mask:url(#G)"/><use xlink:href="#L" style="mask:url(#J)"/><use xlink:href="#O" style="mask:url(#M)"/><use xlink:href="#R" style="mask:url(#P)"/><use xlink:href="#U" style="mask:url(#S)"/><use xlink:href="#X" style="mask:url(#V)"/><use xlink:href="#a" style="mask:url(#Y)"/><use xlink:href="#d" style="mask:url(#b)"/><use xlink:href="#g" style="mask:url(#e)"/><use xlink:href="#j" style="mask:url(#h)"/><use xlink:href="#m" style="mask:url(#k)"/><use xlink:href="#p" style="mask:url(#n)"/><use xlink:href="#s" style="mask:url(#q)"/></svg>