<svg xmlns="http://www.w3.org/2000/svg" viewBox="0 0 32 32"><path d="m 0.406 19.664 c 6.246 29.988 49.23 -2.207 23.41 -17.449 c -10.03 -6.535 -26.625 2.023 -23.41 17.449" fill="#db4436"/><path d="m 19.242 8.949 l 0.031 0.031 l 0.086 -0.031 m 0.965 1.01 l 5.941 5.539 v -5.539" fill-opacity="0.196"/><g fill="#fff"><path d="m 19.242 3.41 l 7.02 6.547 h -5.941 c -0.527 0 -1.082 -0.52 -1.082 -1.01 v -5.539" fill-opacity="0.392"/><path d="m 12.05 39.21 c 0 -0.202 0.636 -4.03 1.41 -8.517 c 0.781 -4.483 1.417 -8.214 1.417 -8.292 c 0 -0.07 0.614 -0.132 1.366 -0.132 h 1.366 l -0.665 3.762 c -0.361 2.071 -0.6 3.832 -0.528 3.917 c 0.072 0.085 1.778 -1.598 3.795 -3.746 c 3.463 -3.677 3.759 -3.902 5.226 -3.917 c 0.86 -0.008 1.496 0.047 1.41 0.124 c -0.08 0.078 -1.655 1.683 -3.499 3.576 c -1.843 1.885 -3.397 3.459 -3.455 3.498 c -0.051 0.039 1.012 2.311 2.364 5.057 l 2.465 4.98 h -1.655 l -1.663 -0.008 l -1.749 -3.894 c -0.969 -2.149 -1.836 -3.894 -1.945 -3.886 c -0.101 0.008 -0.614 0.45 -1.135 0.977 c -0.701 0.729 -1.063 1.675 -1.424 3.785 l -0.477 2.823 l -1.316 0.124 c -0.716 0.07 -1.308 -0.031 -1.308 -0.233" transform="matrix(0.54038 0 0 0.5036 3.571 2.906)" stroke="#fff" stroke-width="1.58"/></g></svg>