<svg xmlns="http://www.w3.org/2000/svg" viewBox="0 0 32 32"><path d="m 28.703 24.48 c 11.508 -16.367 -9.742 -32.949 -23.297 -19.613 c -12.773 12.563 -0.934 32.09 14.961 25.98 c 3.316 -1.273 6.223 -3.363 8.336 -6.367" fill="#d14626"/><path d="m 19.551 8.625 l 0.031 0.031 l 0.078 -0.031 m 0.906 1.066 l 5.582 5.879 v -5.879" fill-opacity="0.196"/><g fill="#fff"><path d="m 19.418 3.289 l 6.598 6.266 h -5.586 c -0.492 0 -1.012 -0.496 -1.012 -0.961 v -5.309" fill-opacity="0.392"/><path d="m 9.156 10.625 h 3.555 v 2.672 h -3.555"/><path d="m 9.156 14.898 h 3.555 v 2.676 h -3.555"/><path d="m 18.06 10.625 v 3.367 h 3.277 c 0 -1.859 -1.465 -3.367 -3.277 -3.367"/><path d="m 17.586 11.11 c -1.812 0 -3.281 1.508 -3.281 3.367 c 0 1.859 1.469 3.367 3.281 3.367 c 1.813 0 3.281 -1.504 3.281 -3.367 h -3.281"/></g><path d="m 7.332 20.777 v 5.344 c 0 0.52 0.457 1.07 0.895 1.07 h 14.316 c 0.434 0 0.895 -0.551 0.895 -1.07 v -5.344" fill-opacity="0.196"/><g fill="#fff"><path d="m 11.387 21.848 c 0.563 0 0.996 0.113 1.305 0.336 c 0.313 0.219 0.465 0.578 0.465 1.078 c 0 0.504 -0.156 0.871 -0.469 1.098 c -0.313 0.223 -0.75 0.336 -1.324 0.336 h -0.313 v 1.426 h -0.879 v -4.172 c 0.086 -0.02 0.18 -0.035 0.285 -0.047 c 0.109 -0.016 0.219 -0.023 0.328 -0.027 c 0.109 -0.008 0.215 -0.016 0.32 -0.02 c 0.105 -0.008 0.199 -0.008 0.281 -0.008 m 0.098 0.73 c -0.051 0 -0.125 0.004 -0.219 0.008 c -0.094 0 -0.164 0.004 -0.215 0.012 v 1.367 h 0.355 c 0.281 0 0.492 -0.055 0.637 -0.156 c 0.145 -0.109 0.215 -0.293 0.215 -0.555 c 0 -0.246 -0.07 -0.418 -0.215 -0.52 c -0.137 -0.105 -0.324 -0.156 -0.559 -0.156"/><path d="m 14.957 21.848 c 0.563 0 1 0.113 1.309 0.336 c 0.309 0.219 0.465 0.578 0.465 1.078 c 0 0.504 -0.156 0.871 -0.473 1.098 c -0.309 0.223 -0.75 0.336 -1.32 0.336 h -0.316 v 1.426 h -0.879 v -4.172 c 0.086 -0.02 0.184 -0.035 0.285 -0.047 c 0.113 -0.016 0.219 -0.023 0.332 -0.027 c 0.109 -0.008 0.215 -0.016 0.32 -0.02 c 0.105 -0.008 0.199 -0.008 0.277 -0.008 m 0.102 0.73 c -0.051 0 -0.125 0.004 -0.223 0.008 c -0.09 0 -0.16 0.004 -0.215 0.012 v 1.367 h 0.359 c 0.281 0 0.492 -0.055 0.637 -0.156 c 0.141 -0.109 0.215 -0.293 0.215 -0.555 c 0 -0.246 -0.074 -0.418 -0.215 -0.52 c -0.141 -0.105 -0.324 -0.156 -0.559 -0.156"/><path d="m 20.324 21.895 v 0.695 h -1.164 v 3.531 h -0.887 v -3.531 h -1.164 v -0.695 h 3.219"/></g></svg>