<svg xmlns="http://www.w3.org/2000/svg" viewBox="0 0 256 256"><defs><clipPath><path d="m 27.707 56.824 h 82.29 v 139.69 h -82.29"/></clipPath><clipPath><path d="m 74 56.824 h 129 v 139.69 h -129"/></clipPath><clipPath><path d="m 148 97 h 77.63 v 24 h -77.62"/></clipPath><clipPath><path d="m 171 132 h 54.625 v 24 h -54.625"/></clipPath></defs><path d="m 60.17 27.353 c 130.93 -91.66 263.6 77.62 156.91 185.6 -100.51 101.74 -256.68 7.417 -207.86 -119.18 10.185 -26.414 26.914 -49.591 50.948 -66.42 z" fill="#f60" color="#000"/><path d="m 154.36 181.69 h -48.49 v -5.83 c 0 -7.766 16.16 -11.66 24.24 -11.66 8.08 0 24.24 3.894 24.24 11.66 m -24.24 -40.811 c 6.688 0 12.12 5.224 12.12 11.66 0 6.431 -5.433 11.66 -12.12 11.66 -6.688 0 -12.12 -5.23 -12.12 -11.66 0 -6.437 5.433 -11.66 12.12 -11.66 z m 30.3 -17.49 h -48.49 l -12.12 -11.66 h -36.36 c -6.697 0 -12.06 5.224 -12.06 11.66 l -0.059 69.961 c 0 6.436 5.424 11.66 12.12 11.66 h 96.97 c 6.688 0 12.12 -5.224 12.12 -11.66 v -58.3 c 0 -6.436 -5.433 -11.66 -12.12 -11.66 z" fill="#f8f8f8" stroke-linejoin="round" stroke-width="0.2"/></svg>