<svg xmlns="http://www.w3.org/2000/svg" viewBox="0 0 256 256"><defs><clipPath><path d="m 148 97 h 77.63 v 24 h -77.62"/></clipPath><clipPath><path d="m 171 132 h 54.625 v 24 h -54.625"/></clipPath><clipPath><path d="m 74 56.824 h 129 v 139.69 h -129"/></clipPath><clipPath><path d="m 27.707 56.824 h 82.29 v 139.69 h -82.29"/></clipPath></defs><g transform="translate(0 -796.36)"><path d="m 60.17 822.74 c 130.93 -92.05 263.6 77.948 156.91 186.39 -100.51 102.17 -256.68 7.449 -207.86 -119.69 10.185 -26.526 26.914 -49.802 50.948 -66.7 z" fill="#f60" color="#000"/><path d="m 110.86 885.05 c -4.414 0 -8.761 1.474 -11.895 4.437 l -52.681 50.01 c -19.95 18.478 12.914 16.942 24.809 23.939 5.5 3.315 -17.646 7.57 -12.914 11.959 4.601 4.385 27.739 8.421 32.34 12.685 4.601 4.385 -9.331 9 -4.729 13.389 4.476 4.38 15.221 0.234 17.14 10.185 1.404 7.349 19.678 3.685 27.863 -2.598 5.116 -4.03 -8.808 -4.04 -4.206 -8.426 11.515 -10.779 21.739 -4.852 25.963 -14.81 2.299 -5.329 -17.404 -9.116 -12.166 -12.551 12.533 -8.176 58.57 -12.333 37.34 -32 l -54.61 -51.785 c -3.384 -2.962 -7.849 -4.437 -12.262 -4.437 m 0.202 6.265 c 2.892 0.022 5.785 1.035 7.889 2.985 l 19.13 18.05 c 1.76 1.631 1.757 5.01 0.701 5.99 l -9.505 -7.179 l -1.877 10.548 l -7.853 -3.909 l -12.796 7.487 l -4.23 -15.755 l -6.808 13.7 l -17 -0.111 c -3.285 0 -2.82 -3.158 0.582 -6.309 6.688 -6.847 19.716 -18.483 23.822 -22.508 1.98 -1.886 4.659 -2.869 7.377 -2.973 0.193 -0.008 0.377 -0.012 0.57 -0.011 m -24.765 74.841 c 1.15 0 39.38 4.744 24.677 8.41 -5.626 1.418 -31.451 -8.41 -24.677 -8.41 m 84.89 18.07 c -4.647 0.009 -9.464 2.22 -12.606 8.5 8.938 4.612 20.483 5.269 25.963 -0.848 -0.949 -3.513 -6.986 -7.657 -13.356 -7.652 m -100.99 10.571 c -2.977 0.093 -8.973 1.141 -9.849 3.876 -1.425 5.377 9.639 6.973 13.224 0.375 1.173 -1.988 1.055 -1.513 1.307 -2.346 -0.871 -0.87 -1.918 -1.726 -3.612 -1.883 -0.278 -0.023 -0.644 -0.035 -1.07 -0.022 m 71.7 9.479 c -0.448 0.01 -0.951 0.038 -1.521 0.111 -1.993 -0.01 -3.113 2.488 -3.113 2.488 -0.378 1.563 -0.701 3.453 0.404 5.319 1.477 2.432 4.86 3.558 9.375 2.202 2.643 -2.894 2.338 -3.998 -0.035 -6.783 -1.551 -1.821 -1.976 -3.365 -5.11 -3.336" fill="#fff"/></g></svg>