<svg xmlns="http://www.w3.org/2000/svg" viewBox="0 0 256 256"><defs><clipPath><path d="m 148 97 h 77.63 v 24 h -77.62"/></clipPath><clipPath><path d="m 171 132 h 54.625 v 24 h -54.625"/></clipPath><clipPath><path d="m 27.707 56.824 h 82.29 v 139.69 h -82.29"/></clipPath><clipPath><path d="m 74 56.824 h 129 v 139.69 h -129"/></clipPath></defs><path d="m 25.12 202.38 c -127.95 -190.71 280.09 -308.17 226.07 -61.63 c -23.02 101.88 -167.39 163.72 -226.07 61.63" fill="#f60"/><g transform="matrix(0.95125 0 0 1 3.33 0)" fill="#ff4500" fill-rule="evenodd"><g fill="#fff"><path d="m 68.31,164 h 126.8 v 26.496 H 68.31"/><path d="m 131.19 74.36 h 63.19 v 26.695 h -63.19"/></g><path d="m 131.19 104.39 h 63.19 v 26.695 h -63.19" fill="#ffdead"/><path d="m 131.19 134.42 h 63.19 v 26.695 h -63.19" fill="#fff"/><path d="m 68.31,74.36 h 63.08 v 26.695 H 68.31" fill="#ffdead"/><path d="m 68.31,104.39 h 63.08 v 26.695 H 68.31" fill="#fff"/><path d="m 68.31,134.42 h 63.08 v 26.695 H 68.31" fill="#ffdead"/><g transform="matrix(0 0.95125 -1.05125 0 254.34 101.07)" fill="#f60"><path d="M 72.66,78.36 H 82.73 V 94.352 H 72.66"/><path d="m 72.66,108.4 h 10.07 v 15.992 H 72.66"/><path d="m 72.941 138.43 h 10.07 v 15.992 h -10.07"/></g></g></svg>