<svg xmlns="http://www.w3.org/2000/svg" viewBox="0 0 48 48"><defs><linearGradient id="3" gradientUnits="userSpaceOnUse" x1="17.605" x2="23" gradientTransform="matrix(0.99164 0.00214 0.02092 0.9095 6.02 2.506)"><stop stop-color="#fff"/><stop offset="1" stop-color="#fff" stop-opacity="0"/></linearGradient><radialGradient id="0" gradientUnits="userSpaceOnUse" cx="37.38" cy="33.19" r="14.625" gradientTransform="matrix(0.40338 0.00087 0.00214 0.09293 13.645 19.65)"><stop stop-color="#000" stop-opacity="0.071"/><stop offset="1" stop-color="#000" stop-opacity="0"/></radialGradient><radialGradient id="2" gradientUnits="userSpaceOnUse" cx="25.02" cy="13.192" r="9.751" gradientTransform="matrix(1.28135 0.00277 0.00955 0.41499 -0.189 15.813)"><stop stop-color="#fc0000"/><stop offset="1" stop-color="#690000"/></radialGradient><radialGradient id="1" gradientUnits="userSpaceOnUse" cx="26.625" cy="26.577" r="12.5" gradientTransform="matrix(0.93414 -0.28557 0.12126 0.31402 4.02 25.11)"><stop stop-color="#e40000"/><stop offset="1" stop-color="#490000"/></radialGradient></defs><path d="m 41.898 7.223 c 27.453 42.26 -47.531 58.61 -41.559 15.14 c 2.438 -17.727 31.05 -31.3 41.559 -15.14" fill="#661325"/><path d="m 127.1 149.78 c 0 25.624 -18.1 46.41 -40.449 46.41 c -22.366 0 -40.47 -20.785 -40.47 -46.41 c 0 -25.624 18.1 -46.41 40.47 -46.41 c 22.345 0 40.449 20.785 40.449 46.41" transform="matrix(0.18513 0 0 0.16144 -1.238 5.14)" stroke-opacity="0.996" fill="#b00000" stroke="#ff7f4f" stroke-width="3.8"/><path d="m 15.08 31.977 c -0.027 -1.09 0.203 -2.148 1.18 -2.898 c 1.031 -0.848 2.023 -1.906 1.922 -3.156 c -0.023 -1.207 -1.355 -2.152 -2.793 -2.289 c -1.613 -0.234 -3.57 0.352 -4.109 1.68 c -0.277 0.645 -0.023 1.805 0.898 1.805 c 0.539 0 0.785 -0.367 0.828 -0.703 c 0.031 -0.254 -0.07 -0.48 -0.129 -0.688 c -0.066 -0.242 0.219 -0.703 0.527 -0.891 c 0.262 -0.16 0.531 -0.211 0.57 -0.223 c 0.93 -0.234 1.855 0.285 2.238 0.918 c 0.387 0.633 -0.039 1.59 -0.648 2.523 c -0.609 0.934 -1.266 1.992 -1.266 3.117 c 0 0.43 -0.035 0.574 -0.008 0.75 c 0.02 0.137 0.453 0.121 0.789 0.055 m -0.426 1.484 c -0.887 -0.051 -1.5 0.992 -0.969 1.668 c 0.477 0.746 1.813 0.563 2.043 -0.281 c 0.238 -0.656 -0.336 -1.398 -1.074 -1.387" fill="#fff"/><path d="m 34.691 22.781 c -0.004 0.746 -2.625 1.344 -5.867 1.336 c -3.246 -0.008 -5.895 -0.617 -5.934 -1.363 c -0.023 -0.488 1.09 -0.938 2.914 -1.176 c 1.824 -0.242 4.082 -0.238 5.918 0.012 c 1.84 0.25 2.969 0.703 2.969 1.191" fill="url(#0)"/><g transform="matrix(0.11607 0.00025 0.00248 0.10799 22.636 11.62)"><path d="m 99.14 9.982 c -4.262 -8.419 -81.16 -8.421 -85.45 -0.018 c 0.032 12.661 -12.793 50.53 -12.808 84.24 c 0.02 33.678 42.714 54.741 55.54 54.747 c 12.823 -0.03 55.54 -21.07 55.52 -54.752 c 0.015 -33.714 -12.804 -71.59 -12.803 -84.22" fill="#ff9f79" fill-rule="evenodd" stroke="#ff9f79"/><g stroke-width="0.5"><g stroke-linejoin="round" stroke-linecap="round" stroke-miterlimit="0"><path d="m 99.12 9.547 c 0.027 5.03 -19.04 9.09 -42.565 9.07 c -23.525 0.018 -42.587 -4.061 -42.581 -9.05 c -0.028 -4.992 19.04 -9.05 42.565 -9.07 c 23.524 0.018 42.587 4.061 42.581 9.05" fill="none" stroke="#909090"/><path d="m 103.42 220.54 c 0.001 9.369 -21.06 16.942 -47.01 16.966 c -25.947 -0.012 -46.987 -7.596 -46.988 -16.965 c -0.001 -9.369 21.06 -16.978 47.01 -16.966 c 25.947 0.012 46.987 7.596 46.988 16.965" fill="#b00000" stroke="#878985"/></g><path d="m 35.06 140.54 c 8.536 8.409 17.08 21.05 17.1 67.35 c -0.012 8.429 1.143 12.658 4.273 12.651 c 3.096 -0.007 4.263 -4.206 4.242 -12.635 c 0.016 -46.34 8.565 -58.947 17.09 -67.4" fill="#ff7f4f" fill-rule="evenodd" stroke="#ff7f4f"/></g></g><path d="m 22.992 20.313 c -0.984 4.66 5.074 7.402 6.563 7.406 c 1.488 0 7.313 -2.613 6.223 -7.379" fill="url(#1)" fill-rule="evenodd"/><path d="m 35.719 20.457 c 0.016 0.754 -2.805 1.355 -6.301 1.352 c -3.496 -0.008 -6.344 -0.625 -6.363 -1.379 c -0.016 -0.754 2.805 -1.359 6.301 -1.352 c 3.496 0.008 6.344 0.625 6.363 1.379" fill="url(#2)"/><path d="m 25.633 14.371 l 2.977 0.008 c 0 0 -1.363 5.453 -1.313 7.727 c 0.031 1.363 1.047 2.277 0.559 2.73 c -0.484 0.453 -3 -1.328 -3.059 -3.645 c -0.02 -0.91 0.414 -3.637 0.836 -6.82" fill="url(#3)" fill-rule="evenodd"/></svg>