<svg xmlns="http://www.w3.org/2000/svg" viewBox="0 0 48 48"><path d="m 16.266 45.594 c 18.305 8.59 36.602 -9.453 30.742 -26.531 c -3.516 -13.961 -21.852 -23.05 -34.27 -16.859 c -15.363 6.387 -16.742 29.426 -1.82 40.488 c 1.637 1.207 3.445 2.199 5.34 2.902" fill="#f4f4f4"/><g stroke="#fff"><g stroke-width="0.008" transform="scale(0.1875)"><path d="m 143.1 202.65 c -1.938 -0.438 -6.25 -1.604 -9.625 -2.604 c -11.687 -3.396 -21.312 -5.813 -28.23 -7.06 c -7.604 -1.375 -9.04 -2.063 -10.917 -5.083 c -1.625 -2.625 -1.271 -6.438 1.125 -12.208 c 3.188 -7.646 3.5 -13.25 1.021 -19.04 c -0.646 -1.542 -0.896 -3.688 -0.833 -7.125 c 0.146 -5.5 0.042 -5.688 -5.75 -12.5 c -3.521 -4.125 -3.771 -5.542 -1.958 -10.979 c 1.229 -3.688 2.125 -10.396 2.729 -20.396 l 0.417 -6.563 l -4.625 -5.104 c -10.625 -11.729 -13.625 -15.813 -13.604 -18.5 c 0.021 -3.5 3.854 -9.667 7.083 -11.438 c 0.708 -0.396 3.417 0.667 10.458 4.125 c 5.229 2.583 9.854 4.667 10.292 4.667 c 0.917 0 0.708 -0.854 -1.438 -6.125 c -1.75 -4.292 -2.354 -9.5 -1.354 -11.896 c 0.833 -2.042 4.646 -4.125 7.5 -4.125 c 4.458 0 9.313 3.854 17.708 14.13 c 6.854 8.354 7 8.417 24.08 10.354 c 6.75 0.75 11.167 1.542 12.854 2.292 c 3.417 1.5 13.02 10.875 16.438 16 c 4.083 6.146 7.646 17.333 6.104 19.21 c 3.25 2.813 1.479 24.21 -0.979 29.562 c 0.688 0 0.688 0.417 -0.042 2.771 c -1 3.354 -1.063 6.667 -0.167 10.542 c 0.667 2.896 0.646 2.979 -2.604 9.813 c -4.146 8.792 -7.229 17.75 -8.208 23.896 c -0.917 5.688 -1.813 7.271 -5.5 9.604 c -5.813 3.688 -15.292 5.313 -21.979 3.792 m 12.313 -4.167 c 0.854 -1.292 0.875 -1.917 0.292 -4.563 c -0.375 -1.708 -3.688 -3.979 -3.604 -4.458 c 0.458 -2.354 5.188 -1.458 7.125 -2.917 c 3.813 -2.813 9.667 -8.896 10.396 -10.771 c 0.25 -0.646 0.208 -1.479 -0.083 -1.854 c -0.708 -0.875 -6.354 -1.813 -13.604 -2.229 c -16.688 -1 -23.583 -0.375 -35.02 -2.25 c -12.06 -1.979 -16.604 -3.521 -17.938 -2.208 c -1.792 1.813 0.604 8.5 5.208 14.625 c 5.438 7.229 9.688 9.958 22.417 14.313 c 9.771 3.333 9.875 3.333 9.875 0.063 c 0 -2.813 0.521 -3.271 3.813 -3.271 c 1.583 0 2.292 0.417 3.604 2.146 c 4 5.25 5.771 6.04 7.521 3.375 m 11.396 -5.229 c 0.625 -1.583 -1.229 -2.479 -2.125 -2.813 c -1.167 -0.458 -2.625 1.146 -2.625 2.854 c 0 1.104 0.292 1.417 1.396 1.417 c 0.75 0 3.167 -0.958 3.354 -1.458 m -8.979 -26.27 c 1.229 -0.375 0.792 -1.854 -0.646 -2.229 c -0.771 -0.188 -6.333 -0.854 -12.396 -1.479 c -6.06 -0.646 -14.417 -0.208 -18.917 -1.042 c -14.25 -2.667 -18.25 -4.208 -15.333 -1.271 c 2.271 2.25 17.542 5.729 27.896 6.313 c 6.542 0.396 17.75 0.208 19.396 -0.292 m 12.854 -2.375 c 0.188 -1.333 -1.083 -2.146 -2.521 -1.604 c -0.896 0.354 -1.188 2.042 -0.458 2.771 c 0.833 0.833 5.5 -0.208 5.688 -1.438 m -9.604 -5.542 c 3.792 -1.125 7.229 -3.229 8.542 -5.229 c 1.583 -2.417 4.208 -12.667 4.854 -18.958 c 0.75 -7.229 -0.042 -15.833 -2.042 -22.04 c -0.771 -2.438 -1.417 -5.271 -1.417 -6.271 c -0.021 -2.125 -0.521 -2.604 -4.104 -3.854 c -5.625 -1.979 -13.958 -1.688 -20.771 0.708 c -8.313 2.917 -17.667 11.1 -21.417 18.708 c -4.604 9.354 -3.729 21 2.292 30.937 c 2.875 4.729 5.375 5.813 16.583 7.167 c 3.833 0.458 14.396 -0.25 17.5 -1.167 m -40.646 -3.583 c 0.146 -0.25 -0.792 -3.854 -2.063 -8.02 c -5 -16.354 -3.375 -24.21 7.812 -37.75 c 7.146 -8.646 7.188 -8.75 6.521 -12.771 c -0.708 -4.292 0.042 -5.75 2.938 -5.75 c 2.042 0 3.438 1.146 4.104 3.354 c 0.646 2.063 2.042 2.479 6.438 1.854 c 2.167 -0.313 8.771 -0.646 14.667 -0.771 c 5.917 -0.104 10.917 -0.354 11.125 -0.583 c 0.208 -0.208 -0.042 -1.271 -0.563 -2.375 c -2.354 -4.917 -18.313 -12.583 -31 -14.854 c -7.25 -1.313 -21.521 -0.458 -25.646 1.5 c -2.604 1.25 -3.083 2.771 -2.125 6.979 c 1.208 5.417 -0.521 9.604 -6.083 14.688 c -2.958 2.708 -8.188 5.354 -10.542 5.354 c -0.479 0 -1.771 0.375 -2.854 0.833 c -1.542 0.646 -2.125 1.333 -2.604 3.063 c -2.063 7.417 1.104 23.08 6.729 33.25 c 3.708 6.75 5.792 8.375 13.917 11.04 c 4.04 1.313 8.729 1.792 9.229 0.958 m -15.04 -58.854 c 0.938 -0.938 2.02 -3.25 2.02 -4.313 c 0 -1 -1.938 -0.563 -3.313 0.729 c -1.729 1.625 -1.813 4.563 -0.125 4.563 c 0.25 0 0.875 -0.438 1.417 -0.979 m -15.479 -3.896 c 0 -0.438 -1.688 -3.167 -3.771 -6.06 c -4.188 -5.875 -6.708 -10.313 -6.708 -11.833 c 0 -1.458 1.146 -2.208 3.792 -2.417 c 1.646 -0.146 2.375 -0.479 2.5 -1.208 c 0.417 -2.167 -6.146 -2.813 -9.188 -0.917 c -2.833 1.792 -2.854 5.833 -0.042 10.75 c 3.833 6.708 13.417 15.06 13.417 11.688 m 17.5 -18.896 c 0 -0.563 -0.938 -3.25 -2.083 -5.979 c -1.125 -2.729 -2.583 -6.437 -3.229 -8.271 c -1.375 -3.854 -2.604 -4.688 -3.5 -2.354 c -0.813 2.146 0.313 7.812 2.188 11.08 c 2.979 5.125 6.646 8.188 6.625 5.521"/><path d="m 153.54 143.48 c -4.771 -3.479 -5.375 -5.063 -3.188 -8.125 c 1.729 -2.375 4.458 -4.792 5.417 -4.792 c 0.313 0 0.688 0.521 0.875 1.167 c 0.375 1.438 2.396 1.542 2.854 0.146 c 0.188 -0.563 0.438 -1.375 0.563 -1.792 c 0.188 -0.625 0.625 -0.563 2.083 0.292 c 2.458 1.438 3.938 3.542 4.375 6.188 c 0.458 2.771 -0.854 4.375 -4 4.875 c -1.229 0.208 -3.188 1.104 -4.354 2.042 c -2.146 2.104 -2.708 1.396 -4.625 0"/></g><g transform="matrix(0.1875 0 0 0.1875 -15.662 -0.407)"><path d="m 223.8 126.44 c -1.333 -3.854 4.04 -6.5 6.854 -3.396 c 0.708 0.771 0.979 2.292 0.583 3.396 c -0.958 2.75 -6.479 2.75 -7.438 0" stroke-width="0.013"/><path d="m 246.99 123.92 c -0.958 -1.833 0.5 -5.188 2.25 -5.188 c 1.833 0 3.5 2.875 2.875 4.938 c -0.479 1.542 -4.333 1.729 -5.125 0.25" stroke-width="0.012"/></g></g></svg>