<svg xmlns="http://www.w3.org/2000/svg" viewBox="0 0 48 48"><g fill="#ff0"><path d="m 25.11 19.285 c 0 0.07 0.004 0.145 0.004 0.219 l 0.504 -0.219"/><path d="m 36.453 11.762 c 0 0 0 0.004 0 0.008 l 1.215 -0.008"/></g><path d="m 45.605 34.09 c -13.05 26.24 -51.793 11.617 -44.39 -14.996 c 6.969 -25.07 42.36 -24.359 46.48 -0.051 c 0.859 5.074 0.309 10.23 -2.09 15.04" fill="#d8b77c"/><path d="m 11.84 38.578 c -0.105 -0.109 -0.039 -28.25 0.066 -28.332 c 0.055 -0.039 4.59 -0.035 12.52 0.008 l 12.438 0.066 l -0.012 14.14 c -0.004 11.281 -0.023 14.14 -0.09 14.168 c -0.195 0.063 -24.859 0.012 -24.922 -0.051" fill="#f4deb2"/><path d="m 11.668 24.402 l 0.027 -14.195 l 2.023 0.008 l 2.023 0.004 l -0.023 14.195 l -0.027 14.191 l -4.047 -0.008 m 13.781 -6.141 c -0.578 -0.063 -1.355 -0.234 -1.953 -0.43 c -2.289 -0.754 -4.219 -2.715 -4.973 -5.05 c -0.324 -1.012 -0.418 -1.586 -0.418 -2.559 c 0.004 -2.895 1.508 -5.473 4.082 -6.988 c 0.418 -0.246 1.379 -0.625 2.063 -0.816 c 0.43 -0.117 0.68 -0.137 1.855 -0.133 c 1.512 0.004 1.754 0.047 2.965 0.523 c 1.059 0.418 1.82 0.93 2.691 1.809 c 1.164 1.172 1.891 2.566 2.207 4.234 c 0.133 0.684 0.145 1.969 0.031 2.668 c -0.145 0.859 -0.574 2.043 -1 2.77 c -1.43 2.414 -3.828 3.852 -6.621 3.973 c -0.363 0.016 -0.781 0.016 -0.926 -0.004 m -3.586 -2.828 c 0.449 -0.219 0.859 -0.398 0.914 -0.398 c 0.227 0 1.195 -0.539 1.508 -0.84 c 0.324 -0.316 0.328 -0.328 0.379 -0.844 c 0.07 -0.766 0.023 -1.035 -0.25 -1.395 c -0.215 -0.285 -0.367 -0.652 -0.473 -1.133 c -0.023 -0.098 -0.102 -0.215 -0.176 -0.254 c -0.355 -0.191 -0.52 -0.941 -0.285 -1.301 c 0.098 -0.148 0.098 -0.207 -0.008 -0.746 c -0.152 -0.758 -0.156 -1.734 -0.008 -2.227 c 0.336 -1.117 1.32 -1.707 2.734 -1.637 c 0.625 0.031 0.91 0.129 1.23 0.422 c 0.09 0.086 0.281 0.172 0.422 0.199 c 0.355 0.063 0.785 0.508 0.941 0.977 c 0.172 0.508 0.156 1.445 -0.039 2.246 c -0.137 0.574 -0.141 0.633 -0.043 0.781 c 0.121 0.188 0.137 0.707 0.031 0.922 c -0.043 0.078 -0.176 0.238 -0.301 0.355 c -0.141 0.133 -0.227 0.277 -0.227 0.383 c 0 0.223 -0.285 0.863 -0.496 1.113 c -0.156 0.188 -0.168 0.246 -0.172 0.93 c 0 0.531 0.027 0.789 0.102 0.93 c 0.164 0.316 0.82 0.754 1.602 1.066 c 0.395 0.156 0.977 0.418 1.297 0.578 c 0.316 0.16 0.621 0.293 0.676 0.293 c 0.121 0 0.742 -0.699 1.184 -1.336 c 0.527 -0.766 1 -1.902 1.191 -2.871 c 0.109 -0.547 0.113 -2.242 0.008 -2.75 c -0.414 -1.977 -1.43 -3.613 -2.957 -4.773 c -0.578 -0.438 -1.496 -0.918 -2.242 -1.168 c -1.273 -0.434 -3.324 -0.438 -4.602 -0.012 c -2.672 0.891 -4.605 3.059 -5.215 5.848 c -0.137 0.625 -0.121 2.355 0.027 2.992 c 0.211 0.926 0.617 1.906 1.082 2.609 c 0.395 0.602 1.125 1.438 1.254 1.438 c 0.055 0 0.465 -0.18 0.91 -0.398" fill="#6b391a"/></svg>