<svg xmlns="http://www.w3.org/2000/svg" viewBox="0 0 48 48"><path d="m 11.672 43.42 c 9.879 9.227 21.19 2.961 29.969 -5.828 c 7.152 -7.164 7.746 -13.805 3.508 -20.84 c -11.07 -18.383 -26.12 -26.01 -43.793 1.078 c -4.367 9.402 3.949 20.383 10.313 25.594" fill="#515a6e"/><g fill="#5d9a9c" stroke="#5d9a9c" transform="matrix(0.17388 0 0 0.16724 1.551 1.53)"><path d="m 43.512 154.03 c -0.786 -1.728 -0.607 -2.523 1.146 -5.185 c 4.538 -8.526 6.268 -23.03 10.312 -29.828 c 0.719 -1.121 1.91 -4.064 2.651 -6.54 c 1.123 -3.784 1.73 -4.601 3.774 -5.185 c 1.348 -0.374 3.55 -0.467 4.92 -0.234 c 2.134 0.397 2.876 1.355 5.482 6.82 c 2.943 5.466 3.684 12.1 5.976 17.472 c 3.505 8.175 7.211 20.742 6.695 22.774 c -0.404 1.658 -0.988 1.939 -3.999 1.939 c -4.965 0 -6.2 -1.215 -7.256 -7.241 c -0.494 -2.85 -1.46 -5.723 -2.112 -6.377 c -1.528 -1.518 -11.682 -1.658 -13.704 -0.164 c -0.876 0.631 -1.73 3.037 -2.247 6.377 c -0.988 6.213 -2.134 7.404 -7.144 7.404 c -2.988 0 -3.707 -0.327 -4.493 -2.032 m 21.23 -35.878 c -2.898 -2.406 -8.312 13.06 -5.863 16 c 1.348 1.635 8.806 1.355 9.727 -0.304 c -0.382 -5.396 -0.629 -12.45 -3.864 -15.696" stroke-width="3.295"/><path d="m 95.81 157.11 l -2.02 -0.584 l -0.225 -23.638 l -0.202 -23.615 l 1.775 -0.981 c 8.492 -1.261 20.22 -1.518 25.835 3.947 c 2.157 2.196 5.01 5.863 6.313 8.199 c 3.752 8.292 3.302 18.289 -0.337 25.04 c -3.168 5.863 -8.267 10.628 -12.446 11.609 c -3.505 0.841 -15.793 0.841 -18.714 0.023 m 18.15 -11.282 l 3.617 -3.037 c 5.616 -8.175 4.605 -17.425 -3.505 -23.24 c -2.988 -2.499 -4.111 -2.92 -7.571 -2.92 c -3.527 0 -4.111 0.234 -4.538 1.845 c -0.629 2.383 -0.629 26.02 0 28.403 c 0.988 3.737 6.897 3.247 11.996 -1.051" stroke-width="3.261"/><g stroke-width="3.295"><path d="m 146.45 126.12 l -0.539 -9.88 l -5.774 -0.631 c -3.886 -0.42 -6.111 -1.098 -6.784 -2.01 c -1.303 -1.752 -1.303 -2.055 0.09 -3.947 c 0.988 -1.355 2.628 -1.565 14.198 -1.869 c 7.211 -0.187 15.14 -0.023 17.613 0.35 c 4.02 0.607 4.56 0.934 4.763 2.756 c 0.315 3.2 -0.944 4.298 -5.482 4.742 c -2.314 0.21 -4.65 0.958 -5.234 1.658 c -0.741 0.888 -1.101 6 -1.258 18.219 c -0.112 9.32 -0.404 17.775 -0.629 18.78 c -0.27 1.261 -1.348 2.079 -3.482 2.686 c -4.02 1.098 -3.752 1.168 -5.931 -1.168 c -1.303 -9.694 -0.921 -17.845 -1.55 -29.688"/><path d="m 182.55 157.23 c -4.066 -0.607 -4.336 -2.126 -4.246 -25.2 c 0.067 -22.867 0.09 -22.961 4.448 -24.04 c 1.236 -0.28 2.718 -0.023 3.684 0.701 c 1.528 1.121 1.662 2.429 1.954 20.555 l 0.315 19.34 l 2.494 0.491 c 5.03 1.472 10.671 -0.958 15.501 1.355 c 2.157 1.145 2.157 5.396 0 6.54 c -1.505 0.818 -19.275 1 -24.15 0.257"/></g></g></svg>