<svg xmlns="http://www.w3.org/2000/svg" viewBox="0 0 48 48"><path d="m 45.785 16.27 c 9.293 23.703 -16.746 35.859 -32.953 29.82 c -11.316 -4.219 -16.953 -21.02 -8.918 -34.605 c 10.141 -17.14 34.707 -13.492 41.875 4.785" fill="#6739b7"/><g fill="#fff"><path d="m 13.758 35.453 c -0.496 -0.035 -0.59 -0.078 -0.68 -0.313 c -0.063 -0.164 -0.105 -3.816 -0.105 -9.273 v -9 l 1.172 -0.09 c 1.523 -0.113 18.215 -0.113 19.738 0 l 1.168 0.09 l -0.027 9.16 c -0.016 5.04 -0.07 9.203 -0.117 9.25 c -0.047 0.047 -0.414 0.121 -0.813 0.164 c -0.719 0.078 -19.21 0.09 -20.336 0.012 m 12.84 -1.453 c 0.48 -0.738 0.324 -1.652 -0.324 -1.902 c -0.168 -0.063 -1.039 -0.164 -1.938 -0.223 c -0.895 -0.059 -1.719 -0.141 -1.824 -0.184 c -0.211 -0.078 -0.512 -0.582 -0.512 -0.855 c 0 -0.242 0.313 -0.691 0.582 -0.832 c 0.125 -0.066 0.945 -0.184 1.824 -0.258 c 0.879 -0.074 1.715 -0.195 1.852 -0.266 c 0.816 -0.418 0.832 -1.309 0.039 -2.047 l -0.293 -0.273 l -2.957 -0.051 c -2.582 -0.051 -2.996 -0.082 -3.25 -0.246 c -0.379 -0.246 -0.535 -0.789 -0.336 -1.18 c 0.207 -0.41 0.449 -0.465 2.809 -0.629 c 2.305 -0.156 2.512 -0.191 2.883 -0.5 c 0.281 -0.234 0.328 -0.348 0.328 -0.801 c 0 -0.391 -0.066 -0.598 -0.254 -0.816 c -0.234 -0.27 -0.344 -0.301 -1.387 -0.383 c -0.625 -0.051 -2.609 -0.129 -4.414 -0.176 c -3.672 -0.094 -3.609 -0.078 -3.859 -0.902 c -0.168 -0.555 0.059 -0.906 0.637 -0.996 c 0.227 -0.035 2.152 -0.113 4.273 -0.176 c 2.125 -0.063 3.984 -0.164 4.137 -0.223 c 0.379 -0.152 0.559 -0.48 0.559 -1.023 c 0 -0.609 -0.191 -0.883 -0.781 -1.105 c -0.438 -0.168 -0.934 -0.188 -4.836 -0.168 c -2.395 0.012 -4.57 0.063 -4.84 0.109 l -0.488 0.09 l -0.074 0.594 c -0.039 0.324 -0.074 4.03 -0.078 8.234 l -0.012 7.641 h 12.238"/><path d="m 12.922 15.12 c -0.133 -0.41 0.059 -0.984 0.363 -1.102 c 0.379 -0.145 13.953 -0.254 18.207 -0.148 c 2.609 0.066 3.27 0.113 3.398 0.242 c 0.094 0.094 0.156 0.367 0.156 0.688 v 0.531 h -11.03 c -10.852 0 -11.03 0 -11.1 -0.211"/></g></svg>