<svg xmlns="http://www.w3.org/2000/svg" viewBox="0 0 48 48"><path d="m 33.17 2.457 c -58.12 -18.03 -29.05 78.85 10.77 33.543 c 7.977 -9.07 4.902 -28.68 -10.77 -33.543" fill="#f69f9f"/><path d="m 37.5 22.625 c 0 2.512 -2.27 4.547 -5.066 4.547 c -2.797 0 -5.063 -2.035 -5.063 -4.547 c 0 -2.508 2.266 -4.543 5.063 -4.543 c 2.797 0 5.066 2.035 5.066 4.543" fill="#f2f2ad"/><path d="m 8.957 24.387 h 10.398 v 3.801 h -10.398" fill="#ff5858" fill-opacity="0.957"/><path d="m 8.957 30.05 h 31.29 v 3.801 h -31.29" fill="#fc1b1b"/><path d="m 30.82 31.566 c -0.582 0.113 -1 0.121 -1.645 0.02 c -1.602 -0.25 -2.203 -0.492 -2.801 -1.133 c -0.668 -0.715 -1.879 -1.539 -2.262 -1.539 c -1.738 0.648 -3.199 1.871 -5.03 1.895 c -0.789 0 -2.078 -0.301 -2.691 -0.625 c -0.258 -0.133 -0.742 -0.371 -1.078 -0.52 c -0.727 -0.328 -1.551 -1.301 -1.68 -1.977 c -0.137 -0.746 0.039 -2.508 0.32 -3.141 c 0.406 -0.785 -0.113 -1.086 -0.668 -1.465 c -1.023 -0.691 -1.41 -1.063 -1.813 -1.746 c -0.289 -0.496 -0.328 -0.695 -0.316 -1.605 c 0.031 -2.066 1.156 -3.543 2.996 -3.926 c 0.766 -0.164 0.75 -0.523 -0.059 -1.266 c -0.355 -0.328 -0.813 -0.699 -1.02 -0.824 c -0.512 -0.309 -1.543 -1.348 -1.023 -1.309 c 2.652 -0.469 3.01 1.82 4.461 1.203 c 0.703 -0.16 1.98 0.207 2.785 0.258 c 1.367 0.141 3.07 0.234 4.16 1.125 c 0.609 0.504 0.859 1.547 0.609 2.527 c -0.238 0.93 -0.086 1.27 0.691 1.547 c 0.34 0.125 0.77 0.367 0.953 0.547 c 0.527 0.617 1.477 -0.008 1.523 -0.633 c 0.266 -0.57 0.766 -1.01 1.137 -1.5 c 0.27 -0.355 0.793 -0.801 1.328 -1.121 c 1.543 -0.809 3.438 -0.883 4.895 -0.051 c 0.625 0.379 1.273 0.844 1.844 1.113 c 0.953 0.441 1.379 0.863 1.922 1.906 c 0.469 0.902 0.492 1.566 0.074 2.23 c -0.344 0.543 -0.934 0.984 -1.098 0.82 c -0.059 -0.063 -0.191 -0.508 -0.293 -0.992 c -0.23 -0.781 -0.699 -1.922 -1.633 -1.961 c -0.508 0 -0.953 0.461 -1.168 1.211 c -0.113 0.379 -0.25 0.688 -0.309 0.688 c -0.059 0 -0.172 -0.188 -0.246 -0.418 c -0.074 -0.23 -0.301 -0.613 -0.5 -0.852 c -0.324 -0.387 -0.43 -0.438 -0.945 -0.426 c -0.813 0.016 -2.02 0.527 -2.629 1.113 c -0.609 0.586 -1.113 1.602 -1.113 2.254 c -0.004 0.75 0.484 1.875 1.063 2.457 c 0.449 0.457 0.617 0.539 1.254 0.617 c 0.926 0.117 1.824 0.02 2.066 -0.227 c 0.105 -0.105 0.246 -0.633 0.32 -1.215 c 0.07 -0.566 0.172 -1.027 0.227 -1.027 c 0.055 0 0.117 0.422 0.145 0.938 c 0.059 1.203 0.266 1.465 1.137 1.465 c 0.496 0 0.734 -0.082 1.242 -0.441 c 0.348 -0.246 0.66 -0.441 0.695 -0.441 c 0.035 0 0.066 0.164 0.066 0.371 c 0 0.297 0.094 0.422 0.492 0.648 c 0.699 0.391 1.031 0.898 1.102 1.676 c 0.09 0.957 -0.199 1.441 -1.152 1.918 c -0.629 0.293 -1.234 0.77 -1.898 0.895 c -1.934 1.375 -3.094 1.02 -4.441 0.938 m 0.852 -6.906 c -0.313 -0.395 -0.551 -1.203 -0.441 -1.488 c 0.152 -0.395 0.559 -0.227 0.813 0.336 c 0.254 0.559 0.305 0.941 0.172 1.285 c -0.105 0.285 -0.242 0.25 -0.543 -0.133 m 3.281 0.027 c -0.203 -0.246 -0.063 -1.113 0.238 -1.484 c 0.535 -0.664 0.871 0.258 0.418 1.152 c -0.254 0.504 -0.434 0.594 -0.656 0.332" fill="#115609"/><g fill="#60ce45"><path d="m 29.656 26.426 c -0.109 -0.043 -0.566 -0.141 -1.016 -0.215 c -1.426 -0.438 -2.637 -0.695 -3.934 -1.355 c -0.527 -0.27 -2.547 -0.887 -3.703 -1.125 c -2.594 -0.535 -3.59 -0.293 -5.152 1.258 c -0.5 0.496 -0.945 0.902 -0.992 0.902 c -0.16 0 -0.402 -0.367 -0.461 -0.699 c -0.031 -0.992 0.066 -1.316 0.727 -1.902 c 0.539 -0.508 1.516 -0.977 2.695 -1.293 c 0.938 -0.25 1.152 -0.273 2.523 -0.281 c 2.082 -0.016 3 0.238 4.902 1.348 l 0.895 0.52 c 0.672 -0.313 1.469 -0.469 2.02 -0.781 c 0.031 -0.055 -0.137 0.699 -0.105 0.848 c 0.344 1.242 0.461 1.418 1.191 2.215 c 0.422 0.457 0.855 0.742 0.414 0.563"/><path d="m 23.754 19.977 c -0.148 -0.02 -0.758 -0.117 -1.355 -0.219 c -0.84 -0.141 -1.762 -0.195 -4.156 -0.25 c -3.414 -0.082 -3.52 -0.102 -4.246 -0.734 c -0.547 -0.477 -1.301 -1.695 -1.176 -1.895 c 0.164 -0.266 1.801 -0.801 2.445 -0.801 c 0.902 0.004 3.633 0.25 3.801 0.344 c 0.203 0.113 0.059 0.141 -1.867 0.336 c -1.344 0.137 -1.98 0.305 -2.055 0.543 c -0.055 0.18 0.332 0.555 1.098 1.074 c 1.273 0.781 2.93 0.219 4.03 0.254 c 1.074 0.031 1.852 0.102 2.172 0.188 c 0.273 0.078 0.707 0.141 0.965 0.141 c 0.57 0.035 1.547 0.59 1.793 1.059 c -0.086 0.371 -1.043 0.012 -1.449 -0.039"/><path d="m 27.758 19.469 c 0.316 -1.016 0.547 -1.027 0.961 -1.598 c 0.688 -0.566 -0.316 0.379 1.031 -0.09 c 0.543 -0.188 0.785 -0.219 1.727 -0.219 c 1.066 0 1.121 0.008 1.848 0.316 c 0.973 0.414 1.297 0.414 2.082 0.004 c 0.336 -0.176 0.668 -0.32 0.738 -0.32 c 0.176 0 0.805 0.449 1.051 0.754 c 0.18 0.215 0.184 0.238 0.043 0.18 c -0.691 -0.289 -1.539 -0.273 -2.395 0.039 c -0.578 0.211 -0.836 0.219 -1.586 0.047 c -1.508 -0.348 -3.086 0.063 -3.883 1.012 l -0.34 0.398 c -0.438 -0.172 -0.879 -0.285 -1.277 -0.523"/></g><g fill-opacity="0.957"><path d="m 35.18 29.488 c 0.043 0.426 -0.809 0.859 -1.906 0.973 c -1.094 0.109 -2.02 -0.145 -2.059 -0.57 c -0.043 -0.426 0.809 -0.859 1.902 -0.969 c 1.094 -0.113 2.02 0.141 2.063 0.566" fill="#ff5858"/><path d="m 35.25 36.957 c -0.027 -0.09 -0.172 -0.602 -0.324 -1.133 c -0.316 -1.125 -0.445 -1.5 -0.547 -1.582 c -0.074 -0.063 -0.055 -0.082 -0.508 0.461 c -0.238 0.281 -0.242 0.297 -0.453 1.355 c -0.102 0.492 -0.199 0.887 -0.223 0.875 c -0.066 -0.043 -0.281 -0.801 -0.414 -1.457 c -0.145 -0.742 -0.164 -1.566 -0.043 -2.191 c 0.039 -0.227 0.121 -0.672 0.18 -0.992 l 0.102 -0.582 l -0.168 -1.723 c 0.227 0.008 0.895 -0.105 1.066 -0.137 c 0.359 -0.063 0.637 1.797 0.742 2.152 c 0.031 0.105 0.141 0.387 0.242 0.629 c 0.211 0.488 0.348 1 0.445 1.645 c 0.074 0.512 0.082 2.547 0.008 2.73 c -0.051 0.117 -0.051 0.117 -0.105 -0.051" fill="#8b0000"/></g></svg>