<svg xmlns="http://www.w3.org/2000/svg" viewBox="0 0 48 48"><path d="m 35.672 44.04 c -61.766 25.383 -32.746 -81.37 7.59 -29.535 c 7.03 9.301 7.566 24.918 -7.59 29.535" fill="#2c1016"/><g fill="#fff" stroke="#fff" transform="matrix(0.18838 0 0 0.1943 -0.029 1.199)"><path d="m 33.415 165.33 c -1.265 -1.528 0.954 -7.539 9.248 -24.969 c 9.746 -20.486 11.571 -22.21 16.402 -15.54 c 3.069 4.222 18.434 34.88 19.284 38.438 c 0.518 2.252 0.353 2.453 -2.136 2.453 c -3.256 0 -4.769 -1.407 -8.357 -7.78 l -2.737 -4.845 c -5.889 0.201 -11.778 0.402 -17.667 0.603 l -2.654 3.116 c -9.165 10.756 -9.393 10.916 -11.384 8.524 m 25.24 -19.18 c 1.431 -0.543 2.281 -1.548 2.281 -2.694 c 0 -2.111 -3.048 -8.464 -4.479 -9.348 c -1.493 -0.925 -4.189 2.051 -5.868 6.473 c -1.472 3.84 -1.472 4.04 0.124 5.227 c 1.97 1.427 4.769 1.548 7.942 0.342" stroke-width="0.534"/><g stroke-width="0.475"><path d="m 87.14 162.76 c -0.311 -1.689 -0.435 -7.7 -0.27 -13.349 c 0.435 -14.394 0.829 -14.595 9.953 -4.885 c 3.981 4.242 8.02 7.84 8.979 8 c 2.115 0.342 2.944 -2.171 3.069 -9.228 c 0.104 -5.529 0.975 -6.835 3.131 -4.664 c 1.14 1.126 1.41 3.538 1.41 12.243 c -0.021 5.951 -0.27 11.72 -0.56 12.826 c -0.601 2.272 -2.302 2.593 -4.04 0.764 c -10.368 -10.836 -14.515 -14.776 -15.324 -14.515 c -0.975 0.322 -1.597 2.613 -2.924 10.796 c -0.871 5.267 -2.613 6.292 -3.421 2.01"/><path d="m 124.59 158.78 c -0.664 -7.82 0.187 -20.425 1.452 -21.19 c 1.12 -0.704 3.504 1.568 9.767 9.228 c 3.03 3.679 5.972 6.433 6.905 6.433 c 1.804 0 2.716 -3.136 2.716 -9.388 c 0 -2.392 0.56 -4.383 1.493 -5.307 c 1.41 -1.407 1.576 -1.407 2.675 0.101 c 1.265 1.709 1.638 6.272 1.327 15.5 c -0.311 8.765 -0.912 11.56 -2.571 11.56 c -0.788 0 -4.935 -3.699 -9.186 -8.222 c -4.272 -4.543 -8.09 -7.921 -8.481 -7.559 c -0.394 0.382 -1.14 3.981 -1.659 8 c -0.705 5.529 -1.286 7.378 -2.385 7.579 c -1.182 0.241 -1.534 -0.945 -2.053 -6.735"/><path d="m 164.44 165.98 c -2.426 -0.302 -2.862 -0.784 -3.338 -3.639 c -2.074 -9.871 -1.638 -14.213 -0.56 -24.828 l 4.666 -0.563 c 8.875 -1.066 16.444 -0.704 18.02 0.885 c 2.01 2.01 0.353 2.955 -5.329 2.975 c -8.502 0.04 -13.665 2.734 -11.09 5.83 c 0.912 1.086 5.371 2.332 12.732 3.518 c 1.887 0.302 3.214 0.764 2.944 1.025 c -0.27 0.281 1.12 2.352 -6.718 2.995 c -7.589 0.623 -10.1 1.146 -9.704 3.9 c 0.373 2.533 4.085 4.825 11.861 3.9 c 5.536 -0.663 6.2 1.97 6.387 2.493 c 0.539 1.669 -11.405 2.573 -19.865 1.508"/><path d="m 193.04 165.73 c -0.228 -0.382 1.576 -3.337 4.02 -6.574 c 6.2 -8.182 4.686 -9.931 -0.29 -15.942 c -4.292 -5.187 -3.131 -5.971 -1.223 -5.971 c 1.306 0 8.05 4.624 8.999 6.172 c 1.099 1.769 4.02 0.945 7.382 -2.051 c 3.567 -3.196 6.884 -4.684 7.672 -3.418 c 0.249 0.422 -1.514 3.498 -3.961 6.835 c -5.02 6.896 -4.583 4.624 2.551 13.671 c 3.442 4.383 3.732 8.142 1.763 8.142 c -0.601 0 -3.546 -2.533 -6.511 -5.649 l -5.391 -5.649 l -5.391 5.066 c -5.184 4.885 -8.709 6.835 -9.621 5.368"/></g><path d="m 96.93 133.73 c -0.829 -1.488 -1.949 -4.765 -2.488 -7.298 c -0.518 -2.533 -1.078 -4.724 -1.265 -4.885 c -0.166 -0.161 -5.288 -1.106 -11.343 -2.111 c -6.05 -1.01 -11.695 -2.171 -12.545 -2.593 c -1.763 -0.905 -1.493 -0.985 11.571 -3.156 c 12.898 -2.131 11.674 -0.744 11.674 -13.309 c 0 -6.05 -0.249 -11.6 -0.56 -12.344 c -0.311 -0.764 -3.359 -2.211 -6.76 -3.257 c -6.698 -2.03 -17.978 -8.222 -17.978 -9.851 c 0 -0.623 0.829 -0.784 2.198 -0.442 c 4.5 1.206 16.568 3.196 19.264 3.196 c 1.763 0 3.173 -0.623 3.795 -1.709 c 0.56 -0.925 1.742 -8.363 2.675 -16.525 c 1.472 -13.168 2.944 -18.757 4.541 -17.309 c 0.27 0.261 0.995 6.654 1.576 14.233 c 1.161 14.957 2.157 19.2 4.686 19.923 c 2.633 0.744 15.904 -2.895 17.13 -4.704 c 0.664 -1.01 -2.488 -9.348 -8.07 -21.25 l -3.857 -8.222 h 2.322 c 3.981 0 16.817 2.453 23.68 5.971 c 8.108 4.141 20.715 14.11 27.04 22.898 c 5.516 7.66 10.06 21.19 10.06 28.31 l 1.203 10.173 l -3.38 -11.339 c -0.975 -3.237 -5.06 -10.977 -8.543 -17.329 c -5.64 -10.313 -6.615 -11.6 -9.04 -11.841 c -2.903 -0.302 -8.647 2.433 -14.02 6.695 l -3.11 2.473 l 2.862 10.07 c 1.576 5.529 3.152 12.866 3.504 16.304 c 0.788 7.68 0.85 7.72 17.812 8.584 c 11.446 0.583 12.213 0.724 12.504 2.513 c 0.394 2.553 -1.037 2.935 -15.78 4.383 c -6.926 0.663 -12.856 1.528 -13.209 1.91 c -0.373 0.382 -1.203 2.513 -1.887 4.704 c -0.684 2.211 -1.887 5.408 -2.675 7.117 l -1.41 3.116 l -1.369 -2.232 c -0.746 -1.226 -1.659 -4.161 -2.01 -6.514 c -0.518 -3.317 -1.161 -4.463 -2.82 -5.05 c -1.203 -0.402 -8.294 -1.025 -15.78 -1.367 l -13.623 -0.643 l -0.539 2.111 c -0.29 1.166 -1.037 4.423 -1.659 7.217 c -0.622 2.815 -1.514 5.327 -1.991 5.589 c -1.286 -0.503 -1.887 -1.327 -2.385 -2.191 m 29.13 -23.16 c 2.758 0 5.806 -0.543 6.781 -1.186 c 1.617 -1.086 1.638 -1.367 0.249 -3.84 c -2.198 -10.01 -1.7 -9.01 -5.661 -19.3 c -2.571 1.91 -19.367 0.623 -22.06 1.95 c -0.871 0.523 -1.452 4.242 -1.845 12.143 l -0.601 11.399 l 9.06 -0.583 c 4.977 -0.322 11.322 -0.603 14.08 -0.603 m 14.93 -43.907 c 3.65 -1.749 6.366 -4.684 5.702 -6.212 c -1.058 -2.533 -20.694 -14.776 -23.701 -14.776 c -2.405 0 -1.265 4.04 3.131 11.1 c 6.947 11.158 9.124 12.605 14.868 9.891" stroke-width="0.497"/></g></svg>