<svg xmlns="http://www.w3.org/2000/svg" viewBox="0 0 48 48"><path d="m 36.68 41.07 c 44.1 -49.727 -58.18 -56.789 -31.785 -6.03 c 6.02 11.57 20.11 19.2 31.785 6.03" fill="#e25533"/><path d="m 22.289 36.27 c -1.406 -1.055 -6.309 -5.05 -11.738 -9.578 c -3.328 -2.77 -3.977 -3.375 -3.98 -3.703 c -0.016 -0.73 0.258 -0.805 3.285 -0.883 c 1.543 -0.043 2.848 -0.121 2.898 -0.172 c 0.051 -0.055 -0.391 -1.594 -0.984 -3.422 c -0.594 -1.828 -1.043 -3.363 -1 -3.406 c 0.043 -0.043 1.215 0.27 2.602 0.695 c 1.387 0.426 3.086 0.934 3.773 1.125 l 1.246 0.355 l 0.285 -0.336 c 0.156 -0.184 1.184 -1.59 2.285 -3.125 c 1.098 -1.535 2.105 -2.879 2.234 -2.988 c 0.348 -0.289 0.477 -0.145 2.566 2.813 c 1.012 1.43 2.031 2.836 2.266 3.121 l 0.426 0.52 l 1.262 -0.355 c 0.691 -0.195 2.395 -0.703 3.781 -1.129 c 1.387 -0.426 2.559 -0.738 2.605 -0.691 c 0.047 0.047 -0.363 1.453 -0.91 3.125 c -1.07 3.27 -1.203 3.707 -1.129 3.738 c 0.027 0.012 1.348 0.063 2.934 0.113 c 2.652 0.086 2.906 0.117 3.105 0.395 c 0.117 0.164 0.195 0.434 0.172 0.602 c -0.055 0.391 -10.34 9.05 -15.52 13.06 l -1.293 1 m 1.805 -11.66 c 1.621 -6.426 1.629 -6.457 1.379 -6.98 c -0.344 -0.73 -2.047 -3.289 -2.668 -4.01 l -0.512 -0.594 l -0.379 0.355 c -0.449 0.418 -2.5 3.461 -2.867 4.25 l -0.254 0.543 l 1.59 6.301 c 1.816 7.215 1.676 6.719 1.906 6.645 c 0.098 -0.035 0.91 -2.965 1.805 -6.512 m -4.957 2.379 c -0.332 -1.309 -0.965 -3.766 -1.402 -5.461 l -0.797 -3.086 l -2.129 -0.652 c -1.168 -0.359 -2.16 -0.617 -2.199 -0.578 c -0.125 0.125 0.852 3.133 1.328 4.09 c 0.438 0.887 3.898 6.129 5.102 7.734 c 0.414 0.555 0.625 0.738 0.656 0.574 c 0.027 -0.137 -0.227 -1.316 -0.559 -2.621 m 6.672 1.57 c 1.582 -2.199 4.32 -6.332 4.703 -7.109 c 0.449 -0.898 1.52 -4.121 1.41 -4.234 c -0.09 -0.09 -4.16 1.117 -4.301 1.273 c -0.137 0.16 -2.82 10.598 -2.82 10.977 c 0 0.184 0.027 0.336 0.059 0.336 c 0.031 0 0.457 -0.559 0.949 -1.242 m -8.836 0.844 c -0.156 -0.41 -3.563 -5.336 -4.066 -5.875 l -0.469 -0.508 l -1.547 0.043 c -1.203 0.035 -1.543 0.09 -1.543 0.254 c 0 0.199 7.328 6.301 7.594 6.324 c 0.07 0.004 0.086 -0.102 0.031 -0.238 m 14.324 -2.73 c 3.574 -2.891 4.01 -3.281 3.871 -3.508 c -0.047 -0.074 -0.805 -0.133 -1.688 -0.133 h -1.609 l -1.855 2.66 c -1.68 2.406 -2.527 3.719 -2.527 3.906 c 0 0.133 0.395 -0.172 3.809 -2.926" fill="#fff"/></svg>