<svg xmlns="http://www.w3.org/2000/svg" xmlns:xlink="http://www.w3.org/1999/xlink" viewBox="0 0 48 48"><defs><g id="3" clip-path="url(#2)"><path d="m 24.684 39.18 c 0.004 -0.465 0.102 -3.281 0.223 -6.262 l 0.219 -5.414 l -1.109 -1.922 l -1.109 -1.926 l 0.746 -3.047 c 0.547 -2.23 0.789 -3.859 0.91 -6.06 l 0.168 -3.02 l 0.809 -0.336 c 0.441 -0.188 1.141 -0.391 1.555 -0.461 c 0.621 -0.098 0.746 -0.051 0.742 0.305 c 0 0.234 -0.344 0.855 -0.758 1.379 c -0.82 1.031 -0.98 1.645 -1.629 6.234 c -0.242 1.723 -0.301 2.746 -0.156 2.887 c 0.117 0.121 0.953 0.281 1.855 0.355 c 0.902 0.078 1.68 0.254 1.734 0.398 c 0.086 0.223 -0.746 11.613 -1.184 16.211 l -0.145 1.523 h -2.879" fill="#272528"/></g><g id="6" clip-path="url(#5)"><path d="m 28.516 39.07 c 0 -0.527 0.254 -4.109 0.563 -7.957 c 0.695 -8.73 0.719 -9.363 0.344 -9.594 c -0.16 -0.102 -0.945 -0.254 -1.742 -0.34 c -0.934 -0.098 -1.496 -0.27 -1.574 -0.477 c -0.133 -0.344 0.488 -5.078 0.848 -6.449 c 0.117 -0.453 0.414 -1.063 0.656 -1.352 l 0.441 -0.531 l 0.008 0.84 c 0.004 0.762 0.145 0.953 1.418 1.957 l 1.41 1.113 l 0.348 4.141 l 0.348 4.145 l -0.965 4.965 c -0.531 2.734 -0.969 5.152 -0.969 5.375 c -0.004 0.223 0.445 1.465 0.992 2.766 l 0.992 2.359 h -3.117" fill="#26292f"/></g><g id="9" clip-path="url(#8)"><path d="m 22.871 39.926 c 0 -0.18 -0.773 -2.137 -1.715 -4.344 l -1.719 -4.02 l 0.258 -6.094 c 0.246 -5.738 0.574 -8.965 1.207 -11.855 c 0.266 -1.195 0.32 -1.266 1.516 -1.855 c 0.684 -0.336 1.293 -0.617 1.355 -0.621 c 0.063 -0.004 0.035 1.48 -0.059 3.301 c -0.141 2.586 -0.344 3.961 -0.934 6.309 l -0.758 3 l 2.211 3.68 l -0.227 6.133 c -0.125 3.371 -0.23 6.258 -0.23 6.414 c -0.004 0.152 -0.207 0.281 -0.453 0.281 c -0.25 0 -0.453 -0.148 -0.453 -0.332" fill="#363031"/></g><g id="C" clip-path="url(#B)"><path d="m 17.238 47.24 c -4.313 -0.484 -8.512 -2.426 -11.586 -5.359 c -0.465 -0.445 -0.844 -0.891 -0.844 -0.988 c 0 -0.102 8.602 -0.184 19.11 -0.184 h 19.11 l -0.43 0.48 c -1.438 1.602 -4.805 3.641 -7.543 4.566 c -3.543 1.195 -5.848 1.535 -11.06 1.617 c -2.672 0.043 -5.711 -0.016 -6.762 -0.133"/></g><clipPath id="8"><path d="M 0,0 H48 V48 H0 z"/></clipPath><clipPath id="2"><path d="M 0,0 H48 V48 H0 z"/></clipPath><clipPath id="5"><path d="M 0,0 H48 V48 H0 z"/></clipPath><clipPath id="B"><path d="M 0,0 H48 V48 H0 z"/></clipPath><filter id="0" filterUnits="objectBoundingBox" x="0" y="0" width="48" height="48"><feColorMatrix type="matrix" in="SourceGraphic" values="0 0 0 0 1 0 0 0 0 1 0 0 0 0 1 0 0 0 1 0"/></filter><mask id="A"><g filter="url(#0)"><path fill-opacity="0.988" d="M 0,0 H48 V48 H0 z"/></g></mask><mask id="4"><g filter="url(#0)"><path fill-opacity="0.929" d="M 0,0 H48 V48 H0 z"/></g></mask><mask id="7"><g filter="url(#0)"><path fill-opacity="0.929" d="M 0,0 H48 V48 H0 z"/></g></mask><mask id="1"><g filter="url(#0)"><path fill-opacity="0.929" d="M 0,0 H48 V48 H0 z"/></g></mask></defs><path d="m 15.289 47.13 c 67.62 8.336 11.57 -87.51 -13.266 -26.19 c -3.809 10.77 -0.5 22.891 13.266 26.19" fill="#0078cf"/><use xlink:href="#3" mask="url(#1)"/><use xlink:href="#6" mask="url(#4)"/><use xlink:href="#9" mask="url(#7)"/><path d="m 17.18 39.938 c -0.164 -0.137 -0.887 -1.148 -1.602 -2.254 l -1.309 -2.01 l 0.27 -4.875 c 0.582 -10.551 0.852 -12.539 2.383 -17.398 c 0.449 -1.422 0.844 -2.617 0.879 -2.648 c 0.133 -0.137 5.285 -0.746 6.242 -0.738 l 1.016 0.004 l -1.996 0.863 c -1.098 0.473 -2.176 1.016 -2.398 1.207 c -0.262 0.223 -0.531 1.051 -0.77 2.348 c -0.652 3.59 -0.793 5.078 -1.051 11.148 l -0.254 5.98 l 1.711 4.152 c 0.938 2.281 1.711 4.242 1.711 4.359 c 0 0.289 -4.469 0.164 -4.832 -0.137" fill="#444f61"/><use xlink:href="#C" mask="url(#A)"/></svg>