<svg xmlns="http://www.w3.org/2000/svg" viewBox="0 0 48 48"><path d="m 0.902 29.07 c 3.703 24.621 40.555 25.359 46.12 1.426 c 5.734 -19.375 -15.02 -35.22 -30.551 -28.871 c -10.395 3 -18.793 15.277 -15.574 27.445" fill="#222"/><path d="m 20.504 43.883 c -2.066 -0.234 -5.91 -1.898 -8.172 -3.535 c -6.898 -5.01 -10 -13.809 -7.727 -21.914 c 0.965 -3.445 3.379 -7.355 5.977 -9.68 c 0.723 -0.648 1.395 -1.18 1.488 -1.18 c 0.098 0 0.02 0.348 -0.168 0.77 c -1.383 3.117 -1.383 3.117 -1.477 5.992 c -0.113 3.391 0.121 4.734 1.184 6.859 c 1.395 2.793 3.555 4.996 6.223 6.348 c 4.363 1.984 9.473 1.887 13.203 -0.246 c 2.836 -1.652 4.996 -4.176 6.238 -7.281 c 1.047 -3.547 1.168 -6.824 -0.18 -10.176 c -0.477 -1.176 -0.828 -2.18 -0.777 -2.23 c 0.234 -0.23 3.488 3.105 4.625 4.746 c 1.035 1.488 2.422 4.531 2.953 6.484 c 0.629 2.301 0.684 7.516 0.102 9.629 c -1.781 6.465 -5.734 11.223 -11.578 13.938 c -4.379 1.719 -7.684 1.879 -11.91 1.48 m 0.68 -7.422 c 0.285 -0.266 0.203 -3.117 -0.098 -3.391 c -0.152 -0.137 -0.832 -0.461 -1.516 -0.723 c -4.391 -1.68 -7.41 -3.918 -9.816 -7.27 c -0.395 -0.555 -0.816 -0.988 -0.93 -0.961 c -0.348 0.082 -0.219 4.691 0.176 6.117 c 0.559 2.051 1.793 4.773 2.316 5.113 c 1.406 0.914 9.137 1.785 9.867 1.109 m 11.719 -0.133 c 3.27 -0.453 4.23 -0.773 4.715 -1.566 c 0.582 -0.953 1.453 -3.453 1.91 -5.477 c 0.59 -2.633 0.477 -5.953 -0.18 -5.223 c -0.098 0.113 -0.715 0.918 -1.367 1.789 c -2.07 2.77 -4.582 4.605 -8.527 6.234 c -2.547 1.051 -2.539 1.039 -2.543 2.969 c -0.004 1.68 0.266 1.887 2.254 1.711 c 0.863 -0.074 2.543 -0.27 3.738 -0.438" fill="#00cf86"/><g fill="#474747"><path d="m 15.922 36.32 c -4.082 -0.652 -4.594 -0.879 -5.336 -2.355 c -1.273 -2.527 -1.602 -3.848 -1.691 -6.84 l -0.086 -2.836 l 0.637 0.707 c 0.352 0.391 1.129 1.27 1.727 1.957 c 1.621 1.848 3.496 3.168 6.773 4.766 c 1.613 0.789 3 1.535 3.09 1.66 c 0.086 0.125 0.129 0.863 0.102 1.645 l -0.051 1.418 l -2.027 0.027 c -1.113 0.02 -2.527 -0.051 -3.141 -0.148"/><path d="m 27.375 36.422 c -0.223 -0.223 -0.316 -0.707 -0.316 -1.609 c 0 -1.535 0.082 -1.613 3 -2.902 c 3.668 -1.621 5.77 -3.223 8.23 -6.281 c 1.01 -1.25 1.223 -1.43 1.348 -1.113 c 0.426 1.082 0.004 4.289 -0.949 7.238 c -0.664 2.055 -1.188 3.078 -1.766 3.453 c -0.652 0.43 -2.684 0.863 -5.715 1.219 c -3.281 0.387 -3.445 0.387 -3.836 -0.004"/></g></svg>