<svg xmlns="http://www.w3.org/2000/svg" viewBox="0 0 48 48"><path d="m 0.703 29.09 c 3.715 24.594 40.727 25.332 46.32 1.426 c 5.758 -19.355 -15.09 -35.18 -30.68 -28.84 c -10.441 2.996 -18.875 15.262 -15.637 27.414" fill="#006300"/><path d="m 12.535 37.887 c -1.01 -0.199 -1.828 -0.844 -2.238 -1.762 c -0.301 -0.676 -0.34 -2.117 -0.367 -14.12 c -0.02 -8.688 -0.008 -9.219 0.18 -9.594 c 0.32 -0.633 0.887 -1.219 1.523 -1.566 l 0.59 -0.32 h 23.12 l 0.512 0.25 c 0.613 0.297 1.043 1.262 1.332 1.891 c 0.199 0.438 0.156 0.746 0.16 9.574 c -0.055 3.746 0.223 7.859 0.148 11.285 c 0.02 1.617 -0.012 2.125 -0.148 2.488 c -0.234 0.617 -0.582 1.063 -1.086 1.391 c -0.934 0.609 -0.746 0.602 -12.473 0.59 c -5.938 -0.008 -11 -0.055 -11.254 -0.102" fill="#fffacd"/><path d="m 79.59 262.22 c -1.809 -1.069 -5.677 -7.909 -5.712 -10.117 c 0 -0.712 -0.39 -1.924 -0.887 -2.707 c -0.71 -1.104 -1.739 -0.677 -5.18 2.137 c -2.377 1.959 -6.848 4.952 -9.899 6.662 c -9.08 5.13 -10.821 2.992 -10.786 -13.217 c 0 -11.11 0.816 -13.858 3.619 -12.11 c 1.455 0.926 1.668 2.529 1.455 11.151 c -0.177 6.199 0.106 10.331 0.745 10.723 c 1.242 0.748 7.557 -3.171 14.582 -9.05 c 3.512 -2.992 5.393 -5.415 6.209 -8.265 c 1.384 -4.56 2.235 -5.415 4.648 -4.489 c 1.242 0.499 1.526 1.389 1.064 3.776 c -1.597 8.55 -1.703 10.438 -0.639 14.428 c 1.526 5.593 4.258 8.407 7.522 7.588 c 2.838 -0.748 4.719 2.173 2.377 3.669 c -1.88 1.176 -6.954 1.069 -9.08 -0.178 m 54.816 -0.214 c -4.258 -2.173 -5.322 -5.878 -3.903 -13.537 c 1.1 -5.771 1.809 -7.196 5.606 -10.901 c 4.79 -4.702 7.238 -5.272 10.218 -2.28 c 4.861 4.916 0.568 10.972 -10.183 14.392 c -1.206 0.392 -1.739 1.603 -1.739 4.061 c 0 4.952 3.264 5.7 9.58 2.137 c 5.04 -2.85 7.309 -2.28 5.393 1.318 c -1.242 2.316 -7.912 6.127 -10.715 6.092 c -0.958 0 -2.874 -0.57 -4.258 -1.282 m 8.05 -20.09 c 1.135 -1.389 1.064 -2.779 -0.532 -2.458 c -3.3 -0.427 -4.506 2.565 -4.754 3.242 c -0.568 1.781 3.69 1.14 5.286 -0.784 m 40.908 20.377 c -1.206 -0.463 -2.945 -2.066 -3.903 -3.491 c -1.49 -2.316 -1.561 -3.527 -0.603 -9.69 c 0.958 -6.412 1.455 -7.41 5.535 -11.436 c 2.448 -2.387 5.322 -4.382 6.351 -4.382 c 2.555 0 6.209 3.634 6.209 6.163 c 0 2.85 -6.138 8.728 -9.863 9.476 c -3.512 0.712 -5.464 3.491 -4.541 6.412 c 1.064 3.313 4.932 3.491 10.04 0.463 c 3.583 -2.137 4.79 -2.422 5.393 -1.425 c 1.242 2.031 -0.71 4.702 -5 6.911 c -4.187 2.173 -6.244 2.387 -9.615 0.997 m 7.628 -21.482 c 0.993 -1.211 0.745 -2.529 -0.461 -2.529 c -0.816 0 -3.051 1.496 -3.725 2.316 c -1.029 1.211 -0.355 3.135 0.852 3.135 c 0.816 0 2.661 -2.102 3.335 -2.921 m 17.14 20.662 c -0.568 -0.392 -1.171 -5.914 -1.384 -12.647 c -0.319 -10.189 -0.142 -12.01 1.1 -12.01 c 0.922 0 1.845 1.496 2.413 3.99 c 0.532 2.209 1.064 4.168 1.206 4.382 c 0.142 0.178 2.164 -1.282 4.435 -3.242 c 4.116 -3.527 9.615 -5.486 11.744 -4.168 c 1.632 0.997 0.355 2.387 -3.725 4.097 c -6.67 2.814 -12.1 10.08 -12.1 16.28 c 0 2.957 -1.774 4.524 -3.69 3.313 m -113.75 -1.995 c -2.093 -2.316 -2.093 -7.267 -0.071 -14.14 c 2.129 -7.303 5.961 -11.04 11.318 -11.04 c 2.235 0 5 0.499 6.103 1.104 c 2.696 1.461 2.98 0.962 2.98 -5.308 c 0 -6.06 0.922 -8.336 3.087 -7.517 c 2.022 0.784 2.732 6.591 1.668 13.929 c -1.348 9.583 -1.171 16.423 0.568 18.17 c 1.951 1.959 1.88 4.56 -0.177 5.344 c -2.058 0.784 -5.286 -3.03 -5.286 -6.27 c 0 -3.776 -1.419 -3.598 -5.535 0.677 c -6.528 6.804 -11.566 8.514 -14.653 5.059 m 11.992 -9.797 c 5.961 -6.341 6.457 -9.12 1.88 -10.652 c -4.08 -1.389 -7.628 1.567 -9.863 8.265 c -3.264 9.797 0.106 10.794 7.983 2.387 m 51.694 8.194 c -0.781 -1.746 -0.852 -6.911 -0.213 -17.777 c 0.816 -14.321 0.993 -15.283 2.874 -15.283 c 2.306 0 2.448 2.209 1.206 19.273 c -0.639 9.12 -0.532 10.367 0.922 10.937 c 0.922 0.356 2.98 -0.107 4.577 -1.033 c 6.28 -3.669 7.912 -0.107 1.809 4.03 c -4.612 3.135 -9.721 3.064 -11.176 -0.142 m -147.28 -45.849 c -0.284 -0.712 -0.355 -38.15 -0.213 -83.25 l 0.284 -81.972 l 2.377 -4.916 c 3.087 -6.27 8.338 -11.578 14.547 -14.642 l 4.896 -2.422 h 204.47 l 5.641 2.779 c 6.103 3.03 10.431 7.374 13.944 14 l 2.235 4.204 l 0.284 83.75 l 0.248 83.75 h -124.11 c -99.98 0 -124.21 -0.249 -124.6 -1.282 m 148.48 -19.273 c 4.08 -0.891 10.289 -3.03 13.837 -4.702 c 8.196 -3.883 18.485 -14.04 22.07 -21.731 c 4.967 -10.759 5.251 -14.04 5.251 -63.697 c 0 -45.07 -0.071 -46.24 -2.058 -48.948 c -3.867 -5.201 -6.99 -6.804 -13.305 -6.84 c -6.315 -0.036 -9.473 1.567 -13.376 6.84 c -1.987 2.672 -2.058 4.311 -2.59 48.45 c -0.603 51.41 -0.71 52.23 -7.876 60.42 c -4.612 5.308 -9.473 7.517 -19.23 8.764 c -13.305 1.674 -27.14 -1.746 -33.1 -8.158 c -3.264 -3.562 -6.103 -10.759 -7.202 -18.454 c -0.532 -3.776 -0.993 -24.902 -0.993 -46.918 c -0.035 -45.635 0.071 -44.994 -8.05 -49.27 c -7.806 -4.132 -17.421 -1.389 -21.501 6.127 c -1.561 2.886 -1.739 7.339 -1.703 48.16 c 0 38.938 0.248 45.92 1.703 51.656 c 6.103 24.26 21.11 36.09 50.42 39.793 c 10.08 1.282 28.703 0.534 37.715 -1.496" transform="matrix(0.1101 0 0 0.10965 8.824 7.466)" fill="#009d1f" stroke="#009d1f" stroke-width="0.996"/><path d="m 9.891 30.715 c 0 -0.066 6.285 -5.402 6.359 -5.402 c 0.031 0 0.188 0.277 0.348 0.617 c 0.164 0.34 0.578 0.918 0.922 1.285 c 0.734 0.785 1.941 1.414 3.297 1.723 c 1.086 0.246 3.73 0.34 4.84 0.168 c 3.03 -0.465 4.934 -2.105 5.457 -4.707 c 0.266 -1.305 0.258 -10.453 -0.008 -11.11 c -0.105 -0.262 -0.141 -0.496 -0.086 -0.551 c 0.055 -0.051 0.758 -0.652 1.566 -1.336 l 1.461 -1.242 l 0.602 0.066 c 0.785 0.086 1.586 0.5 2.086 1.074 c 0.777 0.898 0.75 0.484 0.75 10.473 v 8.996 h -13.797 c -7.59 0 -13.797 -0.023 -13.797 -0.055 m 12.11 -4.813 c -1.316 -0.465 -1.855 -1.27 -1.934 -2.895 l -0.047 -0.973 l 3.434 -2.895 c 1.891 -1.594 3.52 -2.914 3.621 -2.934 c 0.168 -0.035 0.18 0.277 0.137 3.676 c -0.051 4.137 -0.105 4.469 -0.832 5.313 c -0.543 0.625 -1.109 0.816 -2.578 0.867 c -0.984 0.031 -1.352 0 -1.801 -0.16" fill="#218b21"/></svg>