<svg xmlns="http://www.w3.org/2000/svg" viewBox="0 0 48 48"><path d="m 11.992 44.527 c -41.42 -35.98 43.746 -70.58 34.996 -14.93 c -1.918 12.203 -23.832 24.625 -34.996 14.93" fill="#f4f4f4"/><path d="m 20 37.29 c -0.629 -0.129 -2.84 -1.434 -3.934 -2.324 c -2.203 -1.785 -4.133 -4.613 -4.316 -6.316 c -0.07 -0.656 -0.035 -0.828 0.238 -1.102 c 0.191 -0.188 0.523 -0.32 0.793 -0.32 c 0.543 0 1.367 0.383 1.367 0.637 c 0 0.621 1.555 3.129 2.625 4.238 c 1.023 1.059 3.852 2.848 4.523 2.859 c 0.102 0 0.297 0.215 0.434 0.477 c 0.266 0.512 0.199 1.352 -0.129 1.621 c -0.234 0.191 -1.148 0.324 -1.602 0.23 m 7.809 -0.047 c -0.188 -0.078 -0.453 -0.359 -0.594 -0.633 c -0.242 -0.461 -0.242 -0.52 0.004 -0.973 c 0.203 -0.371 0.637 -0.668 1.895 -1.293 c 1.402 -0.699 1.824 -1 3.03 -2.195 c 1.266 -1.25 1.648 -1.762 2.199 -2.949 c 0.785 -1.699 1.031 -1.973 1.762 -1.973 c 1.23 0 1.742 0.973 1.137 2.152 c -0.188 0.359 -0.516 0.996 -0.73 1.41 c -1.027 1.984 -3.02 4.117 -4.852 5.188 c -1.883 1.102 -3.195 1.535 -3.852 1.266 m -4.559 -4.105 c -1.055 -0.098 -1.488 -0.238 -3.125 -1.035 c -0.973 -0.469 -2.996 -2.391 -3.461 -3.285 c -0.176 -0.332 -0.395 -0.742 -0.484 -0.91 c -0.84 -1.52 -1.063 -4.328 -0.488 -6.133 c 0.961 -3.03 2.758 -4.973 5.723 -6.176 c 0.996 -0.402 1.215 -0.434 3.137 -0.434 c 1.922 0 2.137 0.027 3.125 0.434 c 1.379 0.563 1.977 0.945 3.129 2 c 0.938 0.859 2 2.266 2 2.641 c 0 0.109 0.129 0.41 0.285 0.668 c 0.449 0.742 0.664 2.93 0.453 4.566 c -0.363 2.781 -2.172 5.375 -4.641 6.645 c -1.898 0.977 -3.305 1.23 -5.656 1.016 m 2.926 -2.129 c 0.363 -0.227 0.516 -0.43 0.516 -0.703 c 0 -0.328 0.047 -0.367 0.344 -0.277 c 0.727 0.23 1.16 0.254 1.473 0.09 c 0.473 -0.25 0.398 -0.574 -0.289 -1.316 c -0.645 -0.691 -0.73 -0.941 -0.426 -1.242 c 0.375 -0.371 1 -0.203 1.648 0.441 c 0.684 0.688 0.879 0.66 1.227 -0.172 c 0.156 -0.379 0.148 -0.512 -0.066 -0.832 c -0.309 -0.469 -0.227 -0.625 0.383 -0.758 c 0.5 -0.109 0.859 -0.645 0.699 -1.051 c -0.066 -0.18 -0.316 -0.238 -0.988 -0.238 c -1.059 0 -1.484 -0.309 -1.32 -0.961 c 0.113 -0.445 0.754 -0.715 1.578 -0.664 c 0.691 0.043 0.938 -0.32 0.578 -0.863 c -0.16 -0.242 -0.398 -0.395 -0.629 -0.395 c -0.488 0 -0.629 -0.258 -0.328 -0.59 c 0.137 -0.148 0.246 -0.375 0.246 -0.508 c 0 -0.313 -0.492 -1.176 -0.672 -1.176 c -0.074 0 -0.434 0.273 -0.801 0.605 c -0.691 0.633 -0.949 0.715 -1.445 0.449 c -0.453 -0.242 -0.355 -0.578 0.391 -1.375 c 0.422 -0.441 0.652 -0.816 0.602 -0.953 c -0.148 -0.379 -0.863 -0.539 -1.398 -0.316 c -0.516 0.215 -0.652 0.164 -0.652 -0.246 c 0 -0.277 -0.867 -0.898 -1.258 -0.898 c -0.172 0 -0.25 0.27 -0.32 1.09 c -0.086 1.043 -0.234 1.332 -0.676 1.336 c -0.402 0.004 -0.805 -0.598 -0.805 -1.199 c 0 -0.324 -0.043 -0.703 -0.094 -0.832 c -0.223 -0.574 -1.434 -0.016 -1.434 0.66 c 0 0.438 -0.266 0.516 -0.566 0.168 c -0.309 -0.355 -0.492 -0.379 -1.035 -0.133 c -0.504 0.227 -0.516 0.793 -0.023 1.117 c 0.422 0.273 0.781 1.02 0.652 1.352 c -0.047 0.125 -0.266 0.273 -0.488 0.328 c -0.332 0.082 -0.512 -0.012 -1.07 -0.555 c -0.66 -0.641 -0.68 -0.648 -0.984 -0.375 c -0.355 0.32 -0.395 0.938 -0.086 1.344 c 0.32 0.418 0.129 0.742 -0.367 0.633 c -0.34 -0.074 -0.445 -0.02 -0.594 0.305 c -0.375 0.82 -0.199 1.023 0.945 1.074 c 0.805 0.035 1.012 0.203 1.016 0.828 c 0 0.555 -0.27 0.75 -1.063 0.754 c -0.977 0.004 -1.164 0.152 -0.984 0.781 c 0.121 0.41 0.227 0.508 0.563 0.512 c 0.637 0.012 0.781 0.254 0.418 0.711 c -0.371 0.469 -0.387 0.699 -0.07 1.145 c 0.332 0.473 0.691 0.422 1.289 -0.195 c 0.551 -0.563 1.066 -0.676 1.379 -0.301 c 0.238 0.289 -0.012 0.949 -0.551 1.453 c -0.203 0.188 -0.367 0.465 -0.367 0.617 c 0 0.52 1.016 0.785 1.375 0.355 c 0.293 -0.348 0.613 -0.273 0.613 0.141 c 0 0.414 0.305 0.777 0.77 0.926 c 0.473 0.148 0.758 -0.188 0.758 -0.898 c 0 -0.766 0.348 -1.305 0.84 -1.305 c 0.469 0 0.512 0.078 0.621 1.156 c 0.152 1.445 0.145 1.438 0.93 0.957 m -3 -3.699 c -0.934 -0.488 -1.594 -1.227 -1.891 -2.121 c -0.305 -0.914 -0.305 -0.984 -0.016 -1.973 c 0.43 -1.473 1.793 -2.512 3.293 -2.512 c 0.855 0 1.457 0.258 2.258 0.98 c 0.891 0.805 1.141 1.355 1.133 2.492 c -0.004 0.879 -0.07 1.113 -0.477 1.707 c -0.559 0.82 -0.676 0.926 -1.609 1.418 c -0.91 0.48 -1.777 0.484 -2.691 0.008 m 2.641 -1.656 c 0.805 -0.738 0.824 -2.191 0.043 -2.965 c -0.34 -0.336 -0.527 -0.391 -1.32 -0.391 c -0.875 0 -0.957 0.031 -1.449 0.566 c -0.445 0.477 -0.523 0.676 -0.523 1.289 c 0 0.609 0.082 0.809 0.527 1.289 c 0.492 0.535 0.582 0.57 1.43 0.57 c 0.738 0 0.973 -0.066 1.293 -0.359 m -18.707 -0.539 c -0.621 -0.613 -0.613 -1.316 0.02 -1.918 c 0.461 -0.438 0.5 -0.445 2.457 -0.5 c 2.414 -0.063 2.832 0.008 3.465 0.578 c 0.668 0.605 0.652 1.113 -0.055 1.773 l -0.547 0.512 h -4.895 l -0.449 -0.445 m 29.08 0.051 c -0.359 -0.301 -0.473 -0.516 -0.473 -0.922 c 0 -1.289 0.609 -1.57 3.414 -1.57 c 1.879 0 2.09 0.031 2.566 0.348 c 0.949 0.637 0.988 1.664 0.082 2.223 c -0.461 0.281 -0.754 0.313 -2.816 0.313 c -2.254 0 -2.313 -0.008 -2.773 -0.391 m -23.82 -4.16 c -1.535 -0.613 -0.277 -3.734 2.691 -6.691 c 0.891 -0.883 1.922 -1.77 2.293 -1.973 c 2.285 -1.23 2.551 -1.34 3.254 -1.344 c 0.805 -0.004 1.117 0.219 1.27 0.898 c 0.156 0.695 -0.199 1.219 -1.145 1.707 c -0.465 0.234 -0.977 0.473 -1.145 0.523 c -0.848 0.266 -2.801 1.965 -3.781 3.285 c -0.789 1.063 -1.652 2.609 -1.652 2.969 c 0 0.211 -0.902 0.781 -1.223 0.77 c -0.125 -0.008 -0.379 -0.07 -0.563 -0.145 m 23.25 0 c -0.328 -0.129 -1.121 -1.297 -1.121 -1.648 c 0 -0.391 -1.484 -2.422 -2.473 -3.387 c -1.125 -1.094 -1.117 -1.09 -3.086 -2.074 c -1.934 -0.961 -2.297 -1.543 -1.539 -2.438 c 0.332 -0.391 0.504 -0.465 1.078 -0.465 c 0.434 0 0.945 0.137 1.398 0.379 c 0.398 0.207 0.797 0.379 0.887 0.379 c 0.094 0 0.297 0.137 0.449 0.305 c 0.148 0.168 0.336 0.305 0.41 0.305 c 0.25 0 1.781 1.199 2.617 2.051 c 0.453 0.461 1.086 1.227 1.406 1.707 c 0.32 0.477 0.699 1.039 0.84 1.25 c 0.145 0.211 0.316 0.551 0.383 0.758 c 0.066 0.207 0.246 0.613 0.402 0.906 c 0.398 0.738 0.355 1.168 -0.16 1.684 c -0.453 0.449 -0.883 0.531 -1.492 0.289"/></svg>