<svg xmlns="http://www.w3.org/2000/svg" viewBox="0 0 48 48"><path d="m 41.844 7.594 c 27.22 41.539 -47.13 57.62 -41.21 14.879 c 2.414 -17.43 30.793 -30.773 41.21 -14.879"/><g fill="#fff"><path d="m 26.34 21.855 l -8.977 4.402 l -1.406 -0.027 l 1.27 0.973 l 8.652 5.094 c 1.168 0.656 1.266 1.316 1.258 1.871 l -0.012 4.01 l -3.793 -0.07 l -0.023 -1.785 c -0.016 -0.383 -0.199 -1 -0.867 -1.414 l -10.422 -6.43 c -2.414 -1.496 -1.457 -3.82 0.379 -4.262 l 13.555 -6.52"/><path d="m 35.566 16.617 l -3.855 -2.934 c -1.094 -0.871 -0.871 -0.969 -1.836 -0.047 l -4.145 3.945 l 0.477 4.758 l 4.422 2.391 c 0.746 0.523 0.852 0.379 1.496 -0.199 l 3.5 -3.156 l -3.488 1 c -0.707 0.336 -0.988 0.117 -1.629 -0.266 l -1.129 -0.676 c -0.563 -0.25 -0.57 -0.383 -0.617 -1.039 l -0.109 -1.523 c -0.176 -0.988 -0.004 -1.168 0.586 -1.816 l 0.922 -1.02 c 0.449 -0.621 0.598 -0.582 1.234 -0.426"/><path d="m 18.402 26.04 c 0.152 2.477 -1.371 4.637 -3.402 4.828 c -2.035 0.188 -3.813 -1.668 -3.965 -4.145 c -0.156 -2.477 1.367 -4.637 3.402 -4.824 c 1.813 -0.168 3.457 1.297 3.875 3.453"/></g><path d="m 17.34 26.09 c 0.109 1.773 -0.98 3.324 -2.441 3.457 c -1.461 0.137 -2.73 -1.191 -2.844 -2.969 c -0.109 -1.773 0.98 -3.324 2.441 -3.457 c 1.301 -0.121 2.48 0.93 2.781 2.473"/></svg>