<svg xmlns="http://www.w3.org/2000/svg" viewBox="0 0 48 48"><defs><linearGradient id="6" gradientUnits="userSpaceOnUse" y1="3.955" x2="0" y2="10.508" gradientTransform="matrix(0.95569 0 0 0.71777 1.064 3.051)"><stop stop-color="#fff" stop-opacity="0.4"/><stop offset="0.19" stop-color="#fff" stop-opacity="0.063"/><stop offset="0.846" stop-color="#fff" stop-opacity="0.094"/><stop offset="1" stop-color="#fff" stop-opacity="0.157"/></linearGradient><linearGradient id="5" gradientUnits="userSpaceOnUse" y1="16.582" x2="0" y2="9.761" gradientTransform="matrix(0.9559 0 0 -0.70345 1.058 23.398)"><stop stop-color="#fff" stop-opacity="0.4"/><stop offset="0.175" stop-color="#fff" stop-opacity="0.063"/><stop offset="0.829" stop-color="#fff" stop-opacity="0.094"/><stop offset="1" stop-color="#fff" stop-opacity="0.157"/></linearGradient><linearGradient id="2" gradientUnits="userSpaceOnUse" y1="6" x2="0" y2="44"><stop stop-color="#fff" stop-opacity="0.4"/><stop offset="0.023" stop-color="#fff" stop-opacity="0.063"/><stop offset="0.975" stop-color="#fff" stop-opacity="0.094"/><stop offset="1" stop-color="#fff" stop-opacity="0.157"/></linearGradient><linearGradient id="4" gradientUnits="userSpaceOnUse" y1="44.967" x2="0" y2="4.866"><stop stop-color="#000"/><stop offset="1" stop-color="#131313"/></linearGradient><linearGradient id="1" gradientUnits="userSpaceOnUse" y1="44.967" x2="0" y2="4.866"><stop stop-color="#131313"/><stop offset="1" stop-color="#636363"/></linearGradient><radialGradient id="0" gradientUnits="userSpaceOnUse" cx="7.496" cy="8.45" r="20" gradientTransform="matrix(0 2.29977 -3.07821 0 50.01 -11.188)"><stop stop-color="#787878"/><stop offset="0.262" stop-color="#5a5a5a"/><stop offset="0.661" stop-color="#3c3c3c"/><stop offset="1" stop-color="#131313"/></radialGradient><radialGradient id="3" gradientUnits="userSpaceOnUse" cx="7.496" cy="8.45" r="20" gradientTransform="matrix(0 2.29977 -3.07821 0 50.01 -11.188)"><stop stop-color="#3c3c3c"/><stop offset="0.262" stop-color="#282828"/><stop offset="0.661" stop-color="#131313"/><stop offset="1" stop-color="#000"/></radialGradient><radialGradient id="7" gradientUnits="userSpaceOnUse" cx="24.3" cy="18.06" r="16" gradientTransform="matrix(0 0.81442 -0.81626 0 38.93 3.18)"><stop stop-color="#f9f68e"/><stop offset="1" stop-color="#efd737"/></radialGradient></defs><path d="m 0.555 29.488 c 2.977 19.363 29.414 24.543 41.08 10.723 c 10.277 -10.27 7.719 -29.922 -4.883 -36.66 c -14.477 -9.02 -35.566 2.129 -36.719 20.07 c -0.117 1.969 0.047 3.957 0.52 5.863" fill="#ffd600"/><g stroke-linejoin="round" stroke-linecap="round"><path d="m 6.283 5.466 h 35.434 c 0.983 0 1.784 0.974 1.784 2.175 v 34.648 c 0 1.207 -0.801 2.181 -1.784 2.181 h -35.434 c -0.983 0 -1.784 -0.974 -1.784 -2.181 v -34.648 c 0 -1.2 0.801 -2.175 1.784 -2.175" transform="matrix(0.58009 0 0 0.60531 10.09 9.781)" fill="url(#0)" stroke="url(#1)"/><path d="m 5.94 6.499 h 36.12 c 0.242 0 0.438 0.194 0.438 0.426 v 36.15 c 0 0.232 -0.195 0.426 -0.438 0.426 h -36.12 c -0.242 0 -0.438 -0.194 -0.438 -0.426 v -36.15 c 0 -0.232 0.195 -0.426 0.438 -0.426" transform="matrix(0.58009 0 0 0.60531 10.09 9.781)" fill="none" stroke="url(#2)"/><g fill="url(#3)" stroke="url(#4)"><path d="m 6.734 5.466 h 34.531 c 1.239 0 2.236 0.994 2.236 2.233 v 3.536 h -39 v -3.536 c 0 -1.239 0.997 -2.233 2.236 -2.233" transform="matrix(0.58009 0 0 0.60531 10.09 9.781)"/><path d="m 43.501 11.235 v 5.801 h -39 v -5.801" transform="matrix(0.58009 0 0 0.60531 10.09 9.781)"/></g></g><g fill="#fff" fill-opacity="0.749"><path d="m 15.898 13.383 h 2.898 l -2.324 2.906 h -2.898"/><path d="m 21.699 13.383 h 2.898 l -2.324 2.906 h -2.898"/><path d="m 27.5 13.383 h 2.898 l -2.324 2.906 h -2.898"/><path d="m 33.28 13.395 l -2.301 2.895 h 2.902 l 1.16 -1.457 v -0.398 c 0 -0.586 -0.438 -1.039 -1 -1.039"/><path d="m 15.898 19.801 h 2.898 l -2.32 -2.906 h -2.902"/><path d="m 21.699 19.801 h 2.898 l -2.32 -2.906 h -2.902"/><path d="m 27.5 19.801 h 2.898 l -2.32 -2.906 h -2.902"/><path d="m 30.977 16.895 l 2.301 2.895 h 1.758 v -1.438 l -1.16 -1.457"/></g><g fill="none" stroke-linecap="round"><path d="m 42.639 16.17 v -4.085 h -37.28 v 4.085" transform="matrix(0.58009 0 0 0.60531 10.09 9.781)" stroke="url(#5)" stroke-width="0.82"/><path d="m 7.199 6.279 h 33.602 c 1.185 0 1.838 0.516 1.838 1.407 v 2.736 h -37.27 v -2.736 c 0 -0.891 0.646 -1.407 1.832 -1.407" transform="matrix(0.58009 0 0 0.60531 10.09 9.781)" stroke="url(#6)" stroke-linejoin="round" stroke-width="0.828"/></g><path d="m 14.734 21.887 v 12.711 h 18.563 v -12.711 m -5.512 1.211 h 1.16 c 0.16 0 0.293 0.137 0.293 0.305 v 8.473 c 0 0.168 -0.133 0.301 -0.293 0.301 h -1.16 c -0.16 0 -0.289 -0.133 -0.289 -0.301 v -8.473 c 0 -0.168 0.129 -0.305 0.289 -0.305 m -5.512 1.211 v 6.05 l -2.027 -1.816 h -1.453 v -2.422 h 1.453 m 5.219 -0.605 h 1.16 c 0.16 0 0.293 0.133 0.293 0.301 v 6.05 c 0 0.168 -0.133 0.301 -0.293 0.301 h -1.16 c -0.16 0 -0.289 -0.133 -0.289 -0.301 v -6.05 c 0 -0.168 0.129 -0.301 0.289 -0.301 m -2.32 2.422 h 1.16 c 0.16 0 0.293 0.133 0.293 0.301 v 3.633 c 0 0.168 -0.133 0.301 -0.293 0.301 h -1.16 c -0.16 0 -0.289 -0.133 -0.289 -0.301 v -3.633 c 0 -0.168 0.129 -0.301 0.289 -0.301" fill="url(#7)"/></svg>