<svg xmlns="http://www.w3.org/2000/svg" viewBox="0 0 48 48"><path d="m 40.57 41.852 c -41.543 27.22 -57.62 -47.13 -14.883 -41.21 c 17.434 2.414 30.777 30.793 14.883 41.21" fill="#9370db"/><g fill="#fff" fill-rule="evenodd"><path d="m 18.953 13.469 c 0.145 -0.023 0.262 0 0.324 0.078 l 0.488 0.574 c 0.211 0.246 -0.164 0.953 -0.84 1.586 l -0.219 0.203 l 8.668 6.91 l 0.176 -0.164 c 0.676 -0.633 1.387 -0.941 1.594 -0.695 l 0.668 0.785 c 0.207 0.25 -0.168 0.953 -0.84 1.586 l -6.27 5.863 c -0.676 0.629 -1.387 0.941 -1.598 0.691 l -0.664 -0.785 c -0.207 -0.246 0.168 -0.953 0.84 -1.582 l 0.098 -0.094 l -5.84 -9.551 l -0.156 0.145 c -0.676 0.633 -1.387 0.941 -1.598 0.695 l -0.484 -0.578 c -0.211 -0.246 0.164 -0.953 0.84 -1.582 l 3.543 -3.316 c 0.465 -0.434 0.945 -0.715 1.27 -0.766"/><path d="m 27.21 26.496 l 5.543 8.84 c 0 0 -7.402 -6.438 -7.734 -6.754"/></g></svg>