<svg xmlns="http://www.w3.org/2000/svg" viewBox="0 0 48 48"><defs><radialGradient id="0" gradientUnits="userSpaceOnUse" cx="-15.11" cy="101.38" r="42" gradientTransform="matrix(0.27706 0.00215 -0.00199 0.27827 29.24 -10.221)"><stop stop-color="#3df3e4" stop-opacity="0.851"/><stop offset="1" stop-color="#1aa8c1" stop-opacity="0.851"/></radialGradient></defs><path d="m 45.793 35.35 c -9.449 22.676 -46.03 12.559 -45.789 -12.141 c -0.367 -22.449 28.719 -30.961 41.469 -14.969 c 6.375 6.914 8.602 18.371 4.32 27.11" fill="#e2e2e2"/><path d="m 16.715 11.508 c -3.082 0 -5.563 2.594 -5.563 5.816 v 12.406 c 0 2.961 2.094 5.391 4.82 5.766 v 1.551 c 0 1.32 0.895 2.379 2.01 2.379 h 13.05 c 1.109 0 2 -1.059 2 -2.379 v -1.551 c 2.73 -0.375 4.824 -2.805 4.824 -5.766 v -12.406 c 0 -3.223 -2.48 -5.816 -5.563 -5.816 m -14.781 1.426 h 13.984 c 2.77 0 4.996 2.281 4.996 5.113 v 10.91 c 0 2.832 -2.23 5.117 -4.996 5.117 h -13.984 c -2.77 0 -4.996 -2.285 -4.996 -5.117 v -10.91 c 0 -2.832 2.227 -5.113 4.996 -5.113" fill-opacity="0.851"/><path d="m 17.512 12.934 h 13.984 c 2.766 0 4.996 2.281 4.996 5.113 v 10.91 c 0 2.832 -2.23 5.117 -4.996 5.117 h -13.984 c -2.766 0 -4.996 -2.285 -4.996 -5.117 v -10.91 c 0 -2.832 2.23 -5.113 4.996 -5.113" fill="url(#0)"/><g fill-opacity="0.851"><path d="m 17.66 36.06 c -0.211 0 -0.383 0.168 -0.383 0.379 v 1.52 c 0 0.211 0.172 0.379 0.383 0.379 c 0.211 0 0.383 -0.168 0.383 -0.379 v -1.52 c 0 -0.211 -0.172 -0.379 -0.383 -0.379 m 1.531 0 c -0.215 0 -0.383 0.168 -0.383 0.379 v 1.52 c 0 0.211 0.168 0.379 0.383 0.379 c 0.211 0 0.383 -0.168 0.383 -0.379 v -1.52 c 0 -0.211 -0.172 -0.379 -0.383 -0.379 m 1.531 0 c -0.215 0 -0.387 0.168 -0.387 0.379 v 1.52 c 0 0.211 0.172 0.379 0.387 0.379 c 0.211 0 0.383 -0.168 0.383 -0.379 v -1.52 c 0 -0.211 -0.172 -0.379 -0.383 -0.379 m 1.527 0 c -0.211 0 -0.379 0.168 -0.379 0.379 v 1.52 c 0 0.211 0.168 0.379 0.379 0.379 c 0.215 0 0.383 -0.168 0.383 -0.379 v -1.52 c 0 -0.211 -0.168 -0.379 -0.383 -0.379 m 1.535 0 c -0.215 0 -0.383 0.168 -0.383 0.379 v 1.52 c 0 0.211 0.168 0.379 0.383 0.379 c 0.211 0 0.383 -0.168 0.383 -0.379 v -1.52 c 0 -0.211 -0.172 -0.379 -0.383 -0.379 m 1.527 0 c -0.211 0 -0.383 0.168 -0.383 0.379 v 1.52 c 0 0.211 0.172 0.379 0.383 0.379 c 0.215 0 0.387 -0.168 0.387 -0.379 v -1.52 c 0 -0.211 -0.172 -0.379 -0.387 -0.379 m 1.531 0 c -0.211 0 -0.383 0.168 -0.383 0.379 v 1.52 c 0 0.211 0.172 0.379 0.383 0.379 c 0.215 0 0.383 -0.168 0.383 -0.379 v -1.52 c 0 -0.211 -0.168 -0.379 -0.383 -0.379 m 1.531 0 c -0.211 0 -0.379 0.168 -0.379 0.379 v 1.52 c 0 0.211 0.168 0.379 0.379 0.379 c 0.211 0 0.383 -0.168 0.383 -0.379 v -1.52 c 0 -0.211 -0.172 -0.379 -0.383 -0.379"/><path d="m 31.73 37.2 c 0 0.484 -0.344 0.875 -0.766 0.875 c -0.422 0 -0.766 -0.391 -0.766 -0.875 c 0 -0.48 0.344 -0.871 0.766 -0.871 c 0.422 0 0.766 0.391 0.766 0.871" fill="#e2e2e2"/></g><path d="m 22.652 17.645 c -0.762 0.184 -1.164 0.926 -1.543 1.566 c -0.43 0.609 -1.168 0.836 -1.863 0.785 c -1.09 -0.043 -2.066 1.035 -1.941 2.172 c -0.02 1.887 -0.047 3.773 0.023 5.66 c 0.078 0.398 0.285 0.758 0.563 1.031 l 10.11 10.566 h 3.03 c 1.109 0 2 -1.063 2 -2.379 v -1.551 c 2.73 -0.375 4.824 -2.809 4.824 -5.766 v -2.117 l -6.668 -6.973 c -0.363 -0.406 -0.883 -0.664 -1.426 -0.645 c -0.313 0.023 -0.629 -0.012 -0.926 -0.105 l -1.656 -1.734 c -0.227 -0.242 -0.492 -0.43 -0.828 -0.512 c -1.297 -0.078 -2.5 -0.148 -3.699 0 m 7.03 3.379 c 0.074 0 0.141 0.016 0.203 0.043 c 0.043 0.023 0.086 0.051 0.121 0.086 c 0.102 0.094 0.168 0.23 0.168 0.383 c 0 0.285 -0.219 0.516 -0.492 0.516 c -0.27 0 -0.488 -0.23 -0.488 -0.516 c 0 -0.152 0.063 -0.289 0.164 -0.383 c 0.039 -0.035 0.078 -0.063 0.121 -0.086 c 0.063 -0.027 0.133 -0.043 0.203 -0.043 m -5.18 1.078 c 1.414 0 2.555 1.195 2.555 2.672 c 0 1.477 -1.141 2.672 -2.555 2.672 c -1.414 0 -2.555 -1.195 -2.555 -2.672 c 0 -1.477 1.141 -2.672 2.555 -2.672" fill-opacity="0.235"/><path d="m 24.14 17.566 c -0.5 0 -0.992 0.016 -1.484 0.078 c -0.762 0.184 -1.164 0.926 -1.543 1.566 c -0.43 0.609 -1.168 0.836 -1.863 0.785 c -1.09 -0.043 -2.066 1.035 -1.941 2.172 c -0.02 1.887 -0.047 3.773 0.023 5.66 c 0.191 0.969 1.117 1.699 2.063 1.582 c 3.512 0.039 6.961 0.027 10.223 0 c 0.945 0.117 1.875 -0.613 2.063 -1.582 c 0.074 -1.883 0.047 -3.773 0.027 -5.66 c 0.121 -1.137 -0.855 -2.215 -1.941 -2.172 c -0.699 0.051 -1.438 -0.176 -1.867 -0.785 c -0.379 -0.641 -0.781 -1.383 -1.543 -1.566 c -0.488 -0.063 -0.984 -0.078 -1.48 -0.078 c -0.254 0.004 -0.5 0 -0.738 0 m 5.551 3.457 c 0.074 0 0.141 0.016 0.203 0.043 c 0.043 0.023 0.086 0.051 0.121 0.086 c 0.102 0.094 0.168 0.23 0.168 0.383 c 0 0.285 -0.219 0.516 -0.492 0.516 c -0.27 0 -0.488 -0.23 -0.488 -0.516 c 0 -0.152 0.063 -0.289 0.164 -0.383 c 0.039 -0.035 0.078 -0.063 0.121 -0.086 c 0.063 -0.027 0.133 -0.043 0.203 -0.043 m -5.18 1.078 c 1.414 0 2.555 1.195 2.555 2.672 c 0 1.477 -1.141 2.672 -2.555 2.672 c -1.414 0 -2.555 -1.195 -2.555 -2.672 c 0 -1.477 1.141 -2.672 2.555 -2.672" fill="#fff"/><path d="m 24.504 21.21 c -0.5 0 -0.977 0.113 -1.406 0.316 c -0.305 0.145 -0.59 0.336 -0.84 0.566 c -0.711 0.652 -1.16 1.609 -1.16 2.676 c 0 1.965 1.527 3.563 3.406 3.563 c 1.879 0 3.406 -1.598 3.406 -3.563 c 0 -1.066 -0.449 -2.023 -1.164 -2.676 c -0.25 -0.23 -0.531 -0.422 -0.836 -0.566 c -0.43 -0.203 -0.906 -0.316 -1.406 -0.316 m 0.012 1 c 1.348 0 2.445 1.145 2.445 2.555 c 0 1.414 -1.098 2.555 -2.445 2.555 c -1.352 0 -2.445 -1.141 -2.445 -2.555 c 0 -1.41 1.094 -2.555 2.445 -2.555" fill="#4c687a"/></svg>