<svg xmlns="http://www.w3.org/2000/svg" viewBox="0 0 48 48"><path d="m 42.42 39.672 c 11.676 -17.957 2.254 -34.31 -10.965 -38.19 c -17.781 -5.223 -41.922 8.496 -26.02 36.77 c 6.324 11.234 28.66 14.207 36.977 1.422" fill="#4069e0"/><g fill="#f8f9f9"><path d="m 35.398 20.09 c -0.57 -0.164 -1.023 -0.609 -1.16 -1.23 c -0.996 -4.605 -5.203 -8.06 -10.25 -8.06 c -5.066 0 -9.289 3.48 -10.266 8.109 c -0.121 0.578 -0.555 1 -1.086 1.145 c -2.02 0.547 -3.516 2.508 -3.52 4.863 c -0.004 2.668 2.047 4.969 4.512 5.05 c 0.266 0.008 0.523 -0.008 0.777 -0.047 c 0.691 -0.102 1.203 -0.746 1.203 -1.5 v -7.695 c 0.125 -4.371 3.828 -7.676 8.375 -7.676 c 4.586 0 8.316 3.359 8.383 7.777 v 7.676 c 0 0.719 0.488 1.324 1.145 1.434 c 0.273 0.043 0.555 0.063 0.84 0.055 c 2.461 -0.086 4.512 -2.387 4.508 -5.05 c -0.004 -2.332 -1.473 -4.281 -3.465 -4.848"/><path d="m 21.488 27.301 h -1.711 c -0.922 0 -1.668 -0.738 -1.668 -1.629 c 0 -0.891 0.746 -1.625 1.668 -1.625 h 1.711 m 0.832 -4.887 h -0.832 v 3.258 h -1.711 c -1.852 0 -3.352 1.465 -3.352 3.254 c 0 1.793 1.5 3.258 3.352 3.258 h 3.395 v -8.949 c 0 -0.453 -0.383 -0.82 -0.852 -0.82"/><path d="m 29.742 22.316 h -0.891 v 4.848 h -2.691 v -4.03 c 0 -0.449 -0.406 -0.816 -0.906 -0.816 h -0.891 v 4.82 c 0 0.906 0.816 1.645 1.828 1.645 h 3.586 c 0.48 0 0.867 -0.348 0.867 -0.781 v -4.863 c 0 -0.453 -0.406 -0.82 -0.906 -0.82"/></g></svg>