<svg xmlns="http://www.w3.org/2000/svg" viewBox="0 0 48 48"><path d="m 42.13 11.738 c -39.516 -42.508 -64.41 45.23 -11.953 35.551 c 13.84 -4.773 24.641 -21.902 11.953 -35.551" fill="#546a2f"/><g fill-rule="evenodd"><path d="m 12.426 14.367 l -0.004 0.438 c 3.184 6.805 6.156 13.508 9.332 20.309 c 1.523 -0.996 3.168 -2.07 4.684 -3.066 c 0.91 0.992 2.066 2.242 2.961 3.246 c 0.902 -1.953 2.109 -4.547 2.992 -6.543 c 1.883 -1.113 4.102 -2.332 5.578 -3.164 l -0.004 -0.262 c -8.82 -3.82 -17.82 -7.633 -25.539 -10.961" fill-opacity="0.051"/><path d="m 12.426 14.05 l -0.004 0.438 c 3.184 6.805 6.227 13.5 9.406 20.301 c 1.523 -0.996 3.133 -2.043 4.648 -3.039 c 0.91 0.992 1.977 2.188 2.871 3.191 c 0.871 -1.98 1.988 -4.363 2.875 -6.363 c 1.895 -1.121 4.238 -2.395 5.746 -3.242 l -0.004 -0.246 c 0 0 0 0 0 -0.008 c -8.273 -3.57 -17.258 -7.465 -25.539 -11.04" fill-opacity="0.102"/><path d="m 12.426 13.742 l -0.004 0.438 c 3.184 6.805 6.266 13.465 9.449 20.262 c 1.523 -0.992 3.148 -1.992 4.664 -2.992 c 0.91 0.992 1.859 2.137 2.758 3.141 c 0.867 -1.98 1.84 -4.211 2.727 -6.207 c 1.887 -1.121 4.117 -2.297 5.941 -3.316 c 0 -0.051 0 -0.074 0.008 -0.016 v -0.27 c -0.004 -0.004 -0.004 -0.004 -0.004 -0.004 c -8.27 -3.574 -17.258 -7.465 -25.539 -11.04" fill-opacity="0.149"/><path d="m 12.418 13.734 l 25.551 11.04 l -6.098 3.398 l -2.637 6.01 l -2.68 -3.02 l -4.59 2.977" fill="#72c020"/><path d="m 13.03 14.273 l 18.844 13.91 l -2.637 6 l -0.867 -4.344" fill="#4d880f"/><path d="m 26.547 31.16 l 1.82 -1.309 l 0.867 4.336" fill="#8e9ca4"/><g fill="#fff"><path d="m 19.461 28.801 l 6.469 -0.098 c 0 0 -0.324 -3.055 -3.602 -3.223 c -2.469 -0.125 -3.32 2.352 -3.32 2.352"/><path d="m 19.711 29.31 l 6.211 -0.129 l 0.078 2.352 l -4.04 2.609"/><path d="m 26.434 31.25 l 1.605 -1.156 c 0 0 -0.105 -1.051 -1.016 -0.832 c -0.758 0.172 -0.59 1.988 -0.59 1.988"/></g></g><g fill="#fff"><path d="m 20.06 24.746 c 0.063 -0.047 0.145 -0.031 0.188 0.035 l 0.953 1.535 c 0.039 0.066 0.023 0.16 -0.035 0.207 c -0.063 0.047 -0.145 0.027 -0.184 -0.039 l -0.953 -1.531 c -0.043 -0.07 -0.027 -0.16 0.031 -0.207"/><path d="m 24.03 25.445 l -0.66 0.984 c -0.043 0.066 -0.031 0.156 0.027 0.207 c 0.059 0.047 0.141 0.035 0.188 -0.031 l 0.645 -0.961"/></g><g fill="#72c020"><path d="m 21.555 27.01 c -0.043 0.195 -0.219 0.313 -0.395 0.262 c -0.172 -0.047 -0.277 -0.242 -0.234 -0.438 c 0.043 -0.191 0.219 -0.309 0.391 -0.262 c 0.176 0.051 0.281 0.246 0.238 0.438"/><path d="m 23.879 27.27 c -0.047 0.191 -0.223 0.313 -0.395 0.262 c -0.172 -0.047 -0.277 -0.242 -0.234 -0.438 c 0.043 -0.191 0.219 -0.309 0.391 -0.262 c 0.176 0.051 0.281 0.246 0.238 0.438"/></g></svg>