<svg xmlns="http://www.w3.org/2000/svg" viewBox="0 0 48 48"><path d="m 11.859 3.746 c -41.551 36.06 43.887 70.74 35.11 14.965 c -1.926 -12.23 -23.906 -24.684 -35.11 -14.965" fill="#a9a9a9"/><path d="m 13.512 35.969 c -0.152 -0.652 -2.078 -2.383 -2.109 -2.563 c -0.031 -0.18 0.332 -12.453 0.16 -18.363 c -0.012 -0.324 1.438 -1.777 1.559 -1.918 c 7.559 -0.055 10.996 -0.547 22.422 -0.355 l 1.727 2.059 c 0.215 0.254 0.145 0.004 0.121 9.637 c -0.023 10.5 0.176 9.125 -0.016 9.367 l -1.887 2.355 c -3.047 -1.086 -19.07 -0.582 -21.977 -0.219" fill="#dcdcdc"/><path d="m 27.14 24.742 h 8.949 c 0.301 0 0.543 0.609 0.543 1.363 v 7.414 c 0 0.75 -0.242 1.363 -0.543 1.363 h -8.949 c -0.301 0 -0.543 -0.613 -0.543 -1.363 v -7.414 c 0 -0.754 0.242 -1.363 0.543 -1.363" fill="#fff"/><g fill="#4e535a"><path d="m 99.43 200.74 c -29.848 -0.142 -35.779 -0.331 -36.441 -1.134 c -0.614 -0.756 -0.52 -1.111 0.496 -1.654 c 0.874 -0.473 1.512 -1.961 2.01 -4.632 c 2.174 -12.454 4.75 -22.829 6.782 -35.708 c 3.899 -21.671 4.561 -24.932 8.626 -47.17 c -5.175 -10.965 -12.667 -21.789 -18.03 -27.957 c -7.231 -8.295 -11.485 -10.942 -12.572 -10.942 c 0.945 -5.03 6.357 -7.562 11.04 -12.407 h 55.961 c 36.583 0 56.1 -0.236 56.36 -0.685 c 7.633 0.165 14.723 0.638 20.867 0.685 c 2.245 0 3.02 0.544 7.94 5.672 l 5.435 5.672 v 118.63 c -3.71 4.159 -7.775 8.744 -11.391 12.147 l -30.698 -0.165 c -16.897 -0.095 -46.768 -0.236 -66.38 -0.354 m 99.18 -8.98 c 0.685 -0.378 1.56 -1.82 1.938 -3.214 c 0.851 -3.285 0.425 -49.911 -0.496 -52.25 c -0.803 -2.103 -5.246 -3.687 -7.633 -2.765 c -0.922 0.354 -1.985 0.354 -2.529 0 c -0.284 -0.165 -10.115 0.118 -9.571 -0.662 c 0.544 -0.803 -2.6 -2.032 9.24 -1.82 c 2.458 0.047 5.577 -4.419 6.688 -5.577 c 4.02 -4.088 7.822 -7.468 8.484 -7.468 c 1.229 0 0.709 1.276 1.04 -19.355 c 0.544 -9.07 -0.851 -15.03 -0.733 -24.1 c -3.167 -2.6 -5.601 -8.295 -9.264 -9.689 c -0.284 0.284 -0.52 1.276 -2.127 5.152 c -7.184 17.535 -8.649 21.08 -12.336 29.446 c -3.45 7.799 -3.852 9.193 -3.356 11.202 c 1.371 6.641 3.45 13.447 5.01 19.662 c 0.496 1.985 0.425 2.576 -0.354 2.883 c -0.544 0.213 -9 0.378 -18.291 0.378 c -18.1 0 -19.638 0.26 -20.891 3.332 c -0.52 1.229 -0.685 9.855 -0.544 27.39 l 0.189 25.57 l 1.56 1.3 c 1.489 1.229 2.954 1.3 27.13 1.3 c 16.07 0 26.04 -0.26 26.846 -0.709 m -32.28 -4.301 c -8.98 -2.269 -15.337 -8.413 -17.89 -17.275 c -3.238 -11.343 1.938 -23.845 12.05 -29.04 c 5.483 -2.812 5.175 -3.19 5.175 6.381 c -0.024 7.373 -0.165 8.579 -1.182 9.169 c -0.945 0.544 -1.867 -0.095 -4.986 -3.45 c -2.103 -2.245 -4.183 -4.088 -4.632 -4.088 c -0.425 0 -1.134 0.685 -1.56 1.512 c -0.425 0.851 -1.512 2.34 -2.434 3.356 c -0.945 1.04 -1.489 2.245 -1.276 2.836 c 0.473 1.276 5.199 4.372 8.768 5.719 c 3.474 1.347 4.325 2.032 4.325 3.545 c 0 1.394 -2.529 2.269 -8.815 3.02 c -2.127 0.26 -3.994 0.685 -4.159 0.969 c -0.473 0.803 6.523 9.477 7.657 9.477 c 1.205 0 3.096 -1.253 7.444 -4.892 c 2.363 -1.961 3.521 -2.529 4.561 -2.198 c 1.205 0.402 1.347 0.803 0.969 2.836 c -0.236 1.323 -1.205 3.994 -2.151 5.955 c -2.505 5.199 -2.01 5.861 4.277 5.624 l 5.317 -1.205 l 0.307 -2.387 c 0.236 -1.867 0.236 -5.199 -0.071 -7.444 c -1.04 -7.633 1.111 -8.366 6.688 -2.221 l 3.805 4.207 l 2.789 -3.214 c 1.536 -1.772 3.687 -6.782 3.828 -6.641 c 0.473 0.473 0.118 6.215 -6.121 12.832 c -2.978 3.143 -6.712 5.294 -11.722 6.499 c -5.057 1.205 -6.499 1.229 -10.965 0.118 m 26.586 -19.615 c -0.662 -1.04 -2.836 -2.292 -6 -3.474 c -7.964 -2.954 -8.319 -5.766 -0.803 -6.286 c 2.292 -0.165 4.443 -0.567 4.797 -0.898 c 0.354 -0.331 1.182 -0.591 1.867 -0.591 c 0.969 0 1.158 -0.331 0.803 -1.536 c -1.607 -1.961 -2.789 -5.057 -4.301 -6.428 c -1.654 -1.063 -8.768 -8.815 -0.165 -2.741 c 1.253 1.607 4.065 4.372 4.159 5.577 c 0.189 1.772 1.512 2.86 1.891 4.372 c -0.095 0.614 0.142 1.702 0.52 2.434 c 0.756 1.465 0.733 9.146 -0.024 10.398 c -0.733 1.205 -1.607 0.922 -2.741 -0.827 m -19.426 -14.723 c -0.733 -0.756 -0.614 -1.229 3.238 -11.414 c 0.496 -1.3 0.945 -2.458 0.993 -2.576 c 0.071 -0.118 1.253 0.284 2.67 0.874 c 2.883 1.229 5.554 3.545 5.554 4.821 c 0 1.016 -9.595 9.05 -10.824 9.05 c -0.473 0 -1.205 -0.331 -1.631 -0.756 m -9.713 -13.09 c -0.26 -0.425 6.05 -1.702 8.01 -1.702 c 2.316 0 6.523 -0.638 6.03 1.843 c -0.236 1.182 -3.758 -0.756 -5.743 -0.449 c -2.954 0.449 -8.484 1.229 -8.295 0.307 m -108.09 50.48 c -1.111 -1.465 -2.032 -2.86 -2.032 -3.096 c 0 -0.425 1.323 1.134 3.899 4.537 c 0.496 0.662 0.756 1.182 0.544 1.182 c -0.189 0 -1.276 -1.182 -2.41 -2.623 m 1.961 -22.07 c -3.639 -3.734 -4.75 -5.27 -4.207 -5.814 c 1.04 -1.063 2.103 -0.284 6.782 5.01 c 3.592 4.02 4.49 5.884 2.836 5.884 c -0.26 0 -2.694 -2.292 -5.412 -5.081 m 0.331 -5.743 c -3.687 -3.758 -5.081 -5.624 -4.585 -6.121 c 0.378 -0.378 1.111 -0.52 1.631 -0.26 c 1.229 0.544 9.926 10.327 9.926 11.154 c 0 1.631 -2.127 0.189 -6.972 -4.774 m 0.662 -5.412 c -4.774 -4.892 -5.79 -6.263 -5.105 -6.948 c 0.662 -0.685 2.01 0.378 6.853 5.388 c 5.175 5.365 6.57 7.633 4.679 7.633 c -0.26 0 -3.167 -2.741 -6.428 -6.073 m 0.331 -5.766 c -5.057 -5.152 -6.121 -6.57 -5.435 -7.255 c 0.662 -0.685 2.056 0.425 7.113 5.624 c 3.474 3.592 6.286 6.853 6.286 7.279 c 0 1.843 -2.08 0.378 -7.964 -5.648 m 0.803 -5.341 c -5.53 -5.624 -6.877 -7.35 -6.263 -8.01 c 0.638 -0.638 2.198 0.567 7.161 5.601 c 6.901 6.948 8.01 8.437 6.877 9.146 c -0.402 0.26 -3.828 -2.694 -7.775 -6.735 m 0.591 -6.073 c -5.03 -5.152 -7.255 -7.87 -6.712 -8.2 c 0.496 -0.331 3.403 2.127 8.03 6.83 c 6.475 6.546 8.319 9.05 6.735 9.05 c -0.284 0 -3.899 -3.45 -8.06 -7.68 m 0.425 -5.695 c -4.301 -4.372 -7.822 -8.177 -7.822 -8.46 c 0 -1.583 2.505 0.378 9.477 7.444 c 4.301 4.372 7.822 8.177 7.822 8.46 c 0 1.654 -2.529 -0.331 -9.477 -7.444 m 0.52 -5.554 c -6.83 -6.948 -8.46 -8.957 -7.799 -9.618 c 0.638 -0.662 2.08 0.071 8.626 6.995 c 7.444 7.893 9.831 11.414 8.295 11.414 c -0.284 0 -4.396 -3.947 -9.122 -8.791" transform="matrix(0.16529 0 0 0.16529 3.041 2.909)" stroke="#4e535a"/><path d="m 11.426 14.609 h 0.109 c 0.047 0 0.082 0.039 0.082 0.086 v 18.648 c 0 0.047 -0.035 0.086 -0.082 0.086 h -0.109 c -0.047 0 -0.082 -0.039 -0.082 -0.086 v -18.648 c 0 -0.047 0.035 -0.086 0.082 -0.086"/><path d="m 11.422 33.34 l 0.121 -0.086 c 0.035 -0.027 0.09 -0.02 0.117 0.02 l 1.91 2.418 c 0.027 0.035 0.023 0.086 -0.012 0.113 l -0.125 0.09 c -0.035 0.023 -0.086 0.016 -0.117 -0.02 l -1.91 -2.422 c -0.027 -0.035 -0.023 -0.086 0.016 -0.113"/><path d="m 28.367 26.17 c 0 0.313 -0.258 0.566 -0.578 0.566 c -0.316 0 -0.574 -0.254 -0.574 -0.566 c 0 -0.309 0.258 -0.563 0.574 -0.563 c 0.32 0 0.578 0.254 0.578 0.563"/><path d="m 35.594 26.01 c 0 0.313 -0.262 0.566 -0.578 0.566 c -0.32 0 -0.578 -0.254 -0.578 -0.566 c 0 -0.309 0.258 -0.563 0.578 -0.563 c 0.316 0 0.578 0.254 0.578 0.563"/><path d="m 35.813 33.699 c 0 0.313 -0.258 0.566 -0.578 0.566 c -0.32 0 -0.578 -0.254 -0.578 -0.566 c 0 -0.309 0.258 -0.563 0.578 -0.563 c 0.32 0 0.578 0.254 0.578 0.563"/><path d="m 28.449 33.781 c 0 0.313 -0.258 0.566 -0.578 0.566 c -0.316 0 -0.574 -0.254 -0.574 -0.566 c 0 -0.309 0.258 -0.563 0.574 -0.563 c 0.32 0 0.578 0.254 0.578 0.563"/><path d="m 31.938 29.992 c 0 0.313 -0.258 0.563 -0.574 0.563 c -0.32 0 -0.578 -0.25 -0.578 -0.563 c 0 -0.313 0.258 -0.563 0.578 -0.563 c 0.316 0 0.574 0.25 0.574 0.563"/></g></svg>