<svg xmlns="http://www.w3.org/2000/svg" viewBox="0 0 48 48"><path d="m 2.801 37.39 c -20.641 -72.16 81.66 -21.941 30.836 7.645 c -11.04 4.383 -26.01 4.793 -30.836 -7.645" fill="#365473" fill-opacity="0.996"/><path d="m 0.539 173.59 c -0.006 -0.319 -2.422 -12.556 -5.407 -27.27 c -3.01 -14.675 -11.778 -57.993 -19.549 -96.23 c -7.736 -38.2 -14.511 -70.25 -15.06 -71.24 c -0.518 -0.955 -0.979 -3.591 -0.956 -5.836 c -0.028 -3.767 0.186 -4.084 2.248 -3.607 c 1.224 0.281 44.3 8.512 95.74 18.244 c 51.44 9.731 94.08 18.241 94.75 18.889 c -23.04 34.16 -67.53 77.77 -95.26 108.53 c -38.28 42.542 -53.65 59.02 -55.09 59.02 c -0.752 0.005 -1.405 -0.219 -1.41 -0.538 m 197.18 -26.2 c -0.518 -0.955 -2.152 -8.04 -3.638 -15.756 c -1.483 -7.679 -7.409 -37.542 -13.12 -66.33 c -5.739 -28.787 -10.413 -52.965 -10.41 -53.748 c 0.011 -1.532 5.568 -2 7.638 -0.635 c 1.18 0.714 2.666 5.44 4.273 13.385 c 0.464 2.386 5.48 27.08 11.1 54.855 c 12.602 62.14 11.877 58.58 12.642 63.842 c 0.46 3.17 0.248 4.589 -0.774 5.239 c -2.367 1.49 -6.749 1 -7.715 -0.848" transform="matrix(0.12461 0.01629 -0.0144 0.10979 14.291 15.617)" fill="#3cb5f4" stroke="#3cb5f4"/><g transform="scale(0.1875)"><path d="m 110.17 190.35 c -13.438 -0.167 -24.438 -0.646 -24.438 -1.083 c 0 -0.438 3.583 -3.625 7.958 -7.083 c 4.375 -3.479 14.875 -11.792 23.333 -18.5 c 18.563 -14.708 23.5 -17.292 34.27 -17.958 c 6.979 -0.438 8.646 -0.167 13.958 2.292 c 3.333 1.542 8.729 5.208 12.02 8.167 l 5.958 5.375 l 0.813 8.313 c 0.458 4.563 0.875 11.08 0.938 14.521 l 0.104 6.208 l -25.25 0.042 c -13.896 0 -36.25 -0.125 -49.688 -0.292" fill="#ffed25" stroke="#ffed25" stroke-width="0.223"/><path d="m 180.52 145.85 c -6.625 -6 -15.12 -9.583 -22.979 -9.667 l -7.25 -0.063 l 6.04 -5.938 c 12.813 -12.583 23.917 -21.646 25.06 -20.417 c 1.375 1.5 4.667 37.25 3.542 38.5 c -0.417 0.479 -2.417 -0.604 -4.417 -2.417" fill="#ff4500" stroke="#ff4500" stroke-width="0.263"/></g></svg>