<svg xmlns="http://www.w3.org/2000/svg" viewBox="0 0 48 48"><path d="m 6.527 7.508 c -27.15 41.777 47.01 57.949 41.1 14.969 c -2.41 -17.531 -30.715 -30.949 -41.1 -14.969" fill="#bb8e8e"/><g fill="#fff"><path d="m 24.457 25.691 c 0.863 2.578 3.543 4.195 5.988 3.621 c 2.445 -0.574 3.734 -3.129 2.875 -5.703 c -0.863 -2.574 -3.543 -4.195 -5.988 -3.621 c -2.449 0.578 -3.734 3.129 -2.875 5.703"/><path d="m 23.809 24.965 c -0.816 2.574 -3.355 4.195 -5.672 3.617 c -2.32 -0.574 -3.539 -3.129 -2.723 -5.703 c 0.813 -2.574 3.355 -4.195 5.672 -3.617 c 2.32 0.574 3.539 3.129 2.723 5.703"/></g><path d="m 29.719 35.563 c -0.266 -0.16 -2.145 -2.445 -5.281 -6.426 c -0.941 -1.195 -1.32 -1.59 -1.52 -1.59 c -0.094 0 -0.41 0.227 -0.699 0.504 c -0.742 0.703 -1.867 1.277 -2.785 1.422 c -1.297 0.203 -1.492 0.285 -1.984 0.855 c -0.883 1.027 -4.441 4.805 -4.707 5 c -0.273 0.199 -0.895 0.242 -1.395 0.098 c -0.211 -0.063 -0.266 -0.152 -0.266 -0.43 c 0 -0.305 0.32 -0.691 2.543 -3.051 c 1.398 -1.488 2.543 -2.789 2.543 -2.891 c 0 -0.102 -0.285 -0.508 -0.633 -0.895 c -1.078 -1.211 -1.398 -2.605 -0.992 -4.297 c 0.262 -1.082 0.57 -1.672 1.363 -2.605 c 0.324 -0.379 0.586 -0.793 0.586 -0.918 c 0 -0.137 -0.324 -0.59 -0.785 -1.094 c -0.43 -0.473 -1.57 -1.766 -2.539 -2.879 c -0.969 -1.113 -1.824 -2.062 -1.898 -2.113 c -0.25 -0.164 -0.473 -0.742 -0.363 -0.945 c 1.316 -0.109 5.121 -0.613 6.461 0.035 c 0.164 0.09 0.617 0.563 1.012 1.059 c 1.742 2.133 0.703 0.957 3.469 4.324 c 0.66 0.805 1.422 1.75 1.688 2.105 c 0.32 0.43 0.563 0.648 0.715 0.648 c 0.801 -0.781 1.012 -0.914 1.648 -1.316 c 0.57 -0.355 1.816 -0.707 2.5 -0.707 c 0.477 0 0.555 -0.043 1.219 -0.695 c 2.438 -2.852 0.395 -0.727 3.48 -3.746 c 1.422 -1.5 1.762 -1.711 2.512 -1.563 c 0.516 0.102 0.633 0.281 0.461 0.707 c -0.074 0.188 -1.234 1.508 -2.574 2.934 c -1.34 1.426 -2.438 2.664 -2.438 2.754 c 0 0.086 0.203 0.324 0.453 0.531 c 1.332 1.09 2.203 2.305 2.504 3.5 c 0.508 2 -0.418 4.125 -2.137 4.898 c -0.516 0.23 -0.68 0.5 -0.477 0.777 c 0.258 0.348 3.234 3.781 4.07 4.691 c 0.848 0.93 1.051 1.395 0.668 1.547 c -1.648 -0.137 -5.195 0.395 -6.426 -0.23 m -9.211 -7.824 c 1.031 -0.516 2.156 -1.191 2.688 -2.293 c 0.43 -1.078 0.391 -2.402 -0.035 -3.434 c -0.305 -0.723 -0.906 -1.367 -1.543 -1.652 c -1.078 -0.375 -2.258 -0.281 -3.156 0.199 c -2.648 1.418 -3.719 4.848 -2.086 6.691 c 0.609 0.691 1.355 0.977 2.434 0.934 c 0.738 -0.027 0.988 -0.094 1.699 -0.445 m -0.121 -1.816 c -0.637 -0.289 -0.977 -1.254 -0.637 -1.797 c 0.516 -0.516 0.57 0.082 1.012 0.277 c 0.445 0 0.613 -0.625 0.234 -0.875 c -0.258 -0.168 -0.281 -0.422 -0.047 -0.52 c 0.938 -0.375 1.973 0.656 1.66 1.656 c -0.195 0.609 -1.168 1.43 -1.691 1.418 c -0.191 -0.035 -0.375 -0.09 -0.531 -0.16 m 10.363 1.898 c 0.828 -0.258 1.73 -1.227 1.98 -2.133 c 0.332 -1.199 -0.043 -2.395 -1.133 -3.582 c -1.078 -1.18 -2.383 -1.711 -3.953 -1.613 c -1 0.063 -1.66 0.352 -2.293 1.016 c -1.855 1.949 -0.336 5.445 2.742 6.316 c 0.758 0.215 1.949 0.211 2.656 -0.004 m -4.051 -1.938 c -0.508 -0.285 -1 -0.965 -1.066 -1.469 c -0.07 -0.543 0.086 -0.656 0.48 -0.352 c 0.637 0.332 0.801 -0.105 0.492 -0.574 c -0.512 -0.594 0.492 -0.77 1.227 -0.211 c 1.031 0.781 1.039 2.09 0.016 2.645 c -0.449 0.176 -0.848 0.125 -1.148 -0.039" fill="#f00"/><g fill="#382727"><path d="m 15.648 19.16 c -0.297 -0.297 0.273 -1.465 1.105 -2.273 c 1.031 -0.996 2.57 -1.527 4.113 -1.418 c 0.871 0.063 1.938 0.477 2.422 0.941 c 0.477 0.457 0.57 1.031 -0.402 0.914 c -1.215 -0.141 -2.289 -0.613 -3.383 -0.426 c -1.129 0.191 -1.785 0.555 -2.84 1.566 c -0.84 0.805 -0.879 0.832 -1.016 0.695"/><path d="m 33.11 18.656 c -1.711 -1.371 -3.434 -1.879 -5.621 -1.66 c -0.574 0.059 -1.074 0.078 -1.109 0.043 c -0.105 -0.105 0.207 -1.227 1.109 -1.402 c 1.113 -0.215 2.941 -0.332 4.344 0.328 c 1.293 0.609 2.281 2.074 2.281 2.902 c 0 0.453 -0.242 0.402 -1 -0.211"/></g></svg>