<svg xmlns="http://www.w3.org/2000/svg" viewBox="0 0 48 48"><path d="m 25.06 47.45 c 31.43 2.066 28.824 -49.04 -2.551 -46.922 c -29.28 -0.277 -29.727 51.27 2.551 46.922" fill="#20b2aa"/><g fill="#f9ad05"><path d="m 17.789 35.441 c 0 0 -5.23 1.668 -2.613 2.266 c 2.613 0.598 7.844 0 7.844 0"/><path d="m 29.391 35.441 c 0 0 5.23 1.668 2.613 2.266 c -2.613 0.598 -7.844 0 -7.844 0"/></g><path d="m 32.06 23.598 c 0.434 -1.133 0.672 -2.371 0.672 -3.668 c 0 -5.406 -4.125 -9.785 -9.215 -9.785 c -5.09 0 -8.965 4.379 -8.965 9.785 c 0 1.363 0.066 2.664 0.496 3.844 c -0.684 0.133 -1.301 0.723 -1.301 0.723 c 0 0 -2.199 4.656 -1.91 8.305 c 0.012 0.137 0.223 0.371 0.496 0.086 c 0.129 -0.137 0.863 -0.82 1.711 -2.02 c 0.984 3.984 4.852 6.957 9.473 6.957 c 4.762 0 8.727 -3.156 9.555 -7.324 c 0.707 1.055 1.398 1.734 1.867 2.121 c 0.363 0.301 0.641 -0.039 0.652 -0.281 c 0.145 -3.598 -1.93 -8 -1.93 -8 c 0 0 -0.805 -0.77 -1.598 -0.746"/><path d="m 16.773 24.984 c -0.148 0.5 -0.23 1.027 -0.23 1.57 v 4.262 c 0 3.344 3.01 6.06 6.727 6.06 h 0.5 c 3.715 0 6.723 -2.711 6.723 -6.06 v -4.262 c 0 -0.543 -0.082 -1.07 -0.23 -1.57" fill="#fff"/><path d="m 23.691 22.699 c 2.449 0 4.059 -1.422 4.059 -1.992 c 0 -0.566 -1.609 -1.422 -4.059 -1.422 c -2.453 0 -4.156 0.855 -4.156 1.422 c 0 0.57 1.703 1.992 4.156 1.992" fill="#f9ad05"/><g fill="#fff"><path d="m 22.77 15.871 c 0 -1.32 -0.727 -2.387 -1.617 -2.387 c -0.895 0 -1.621 1.066 -1.621 2.387 c 0 1.316 0.727 2.387 1.621 2.387 c 0.891 0 1.617 -1.07 1.617 -2.387"/><path d="m 27.504 15.871 c 0 -1.32 -0.723 -2.387 -1.617 -2.387 c -0.895 0 -1.621 1.066 -1.621 2.387 c 0 1.316 0.727 2.387 1.621 2.387 c 0.895 0 1.617 -1.07 1.617 -2.387"/></g><path d="m 21.973 15.852 c 0 -0.461 -0.332 -0.836 -0.746 -0.836 c -0.414 0 -0.746 0.375 -0.746 0.836 c 0 0.461 0.332 0.836 0.746 0.836 c 0.414 0 0.746 -0.375 0.746 -0.836"/><path d="m 26.5 15.988 c 0 -0.461 -0.336 -0.836 -0.75 -0.836 c -0.41 0 -0.746 0.375 -0.746 0.836 c 0 0.461 0.336 0.836 0.746 0.836 c 0.414 0 0.75 -0.375 0.75 -0.836"/><path d="m 17.13 33.21 c -0.48 -1.125 -0.598 -2.195 -0.57 -3.504 h 14.01 c 0 1.203 -0.117 2.348 -0.633 3.555 l -6.344 0.09 c -5.66 0.086 -6.41 0.004 -6.469 -0.141" fill="#20b2aa"/></svg>