<svg xmlns="http://www.w3.org/2000/svg" viewBox="0 0 48 48"><defs><radialGradient id="0" gradientUnits="userSpaceOnUse" cx="256" cy="271.21" r="208" gradientTransform="matrix(0.07879 -0.00043 0.0002 0.07216 3.788 4.134)"><stop stop-color="#dedbd1"/><stop offset="1" stop-color="#000"/></radialGradient></defs><path d="m 23.445 47.742 c -4.934 -0.383 -10.625 -2.746 -14.523 -6.03 c -4.742 -3.996 -8.07 -10.121 -8.781 -16.16 c -0.813 -7.977 4.184 -16.551 9.586 -20.621 c 2.715 -1.98 6.262 -3.559 9.555 -4.25 c 8.57 -1.797 17.285 1.605 23.05 8.996 c 3.453 4.426 5.148 8.891 5.383 14.172 c 0.285 6.332 -2.508 13.13 -7.273 17.695 c -5.383 4.309 -10.832 6.648 -16.992 6.207" fill="#211a14"/><path d="m 35.34 33.19 v -19.08 h -22.645 v 19.08 h 8.258 v 1.059 h -3.02 v 1.063 h 12.12 v -1.063 h -3.02 v -1.059 m -13.586 -18.02 h 21.14 v 16.965 h -21.14"/><path d="m 14.203 16.17 h 19.625 v 14.844 h -19.625" fill="url(#0)"/></svg>