<svg xmlns="http://www.w3.org/2000/svg" viewBox="0 0 48 48"><path d="m 24.08 47.59 c 31.664 3.574 31.23 -47.633 -0.563 -47.03 c -29.563 -1.688 -32.23 49.816 0.563 47.03" fill="#4581b3"/><path d="m 14.551 36.84 c -1.238 -0.332 -1.863 -1.359 -1.863 -3.066 c -0.004 -2.105 1.039 -3 3.961 -3.402 c 1.469 -0.199 2.711 -1.25 3.496 -2.957 c 0.738 -1.605 0.719 -2.457 -0.098 -4.07 c -0.961 -1.902 -2.01 -2.66 -3.961 -2.863 c -1.391 -0.145 -1.684 -0.273 -2.488 -1.082 c -0.828 -0.832 -0.914 -1.039 -0.91 -2.238 c 0 -2.492 1.168 -3.457 3.711 -3.07 c 0.863 0.133 1.117 0.309 1.551 1.074 c 0.285 0.508 0.652 1.566 0.813 2.359 c 0.164 0.797 0.422 1.75 0.578 2.125 c 0.379 0.91 2.039 2.285 3.238 2.688 c 0.879 0.293 1.098 0.27 2.391 -0.254 c 2.031 -0.828 3.191 -2.281 3.629 -4.539 c 0.18 -0.938 0.469 -2.01 0.645 -2.387 c 0.395 -0.855 1.719 -1.293 3.215 -1.066 c 1.02 0.156 1.129 0.246 1.766 1.523 c 0.766 1.574 0.605 2.691 -0.555 3.984 c -0.57 0.617 -0.926 0.754 -2.371 0.91 c -1.602 0.172 -1.766 0.25 -2.828 1.328 c -0.914 0.926 -1.18 1.402 -1.406 2.512 c -0.422 2.063 -0.023 3.578 1.27 4.859 c 0.879 0.871 1.246 1.047 2.605 1.27 c 1.184 0.055 1.965 0.313 2.668 1.063 c 1.777 1.906 1.332 4.629 -0.875 5.367 c -0.656 0.219 -1.063 0.195 -2.02 -0.125 c -1.34 -0.453 -1.754 -1.145 -2.078 -3.457 c -0.262 -1.898 -1.645 -3.691 -3.293 -4.27 c -1.688 -0.598 -3.402 -0.195 -4.84 1.133 c -0.859 0.793 -1.086 1.23 -1.617 3.133 c -0.344 1.215 -0.781 2.457 -0.977 2.758 c -1.258 1.145 -2.074 1.105 -3.359 0.762" fill="#2e3090"/><path d="m 27.18 16.59 c 0 1.961 -1.578 3.551 -3.527 3.551 c -1.949 0 -3.531 -1.59 -3.531 -3.551 c 0 -1.961 1.582 -3.551 3.531 -3.551 c 1.949 0 3.527 1.59 3.527 3.551" fill="#acff2f" fill-opacity="0.996"/></svg>