<svg xmlns="http://www.w3.org/2000/svg" viewBox="0 0 48 48"><path d="m 0.703 28.988 c 3.715 24.727 40.727 25.469 46.32 1.434 c 5.758 -19.461 -15.09 -35.37 -30.68 -28.992 c -10.441 3.01 -18.875 15.34 -15.637 27.559" fill="#c0c0c0"/><path d="m 31.617 34.23 l -2.195 -1.645 l -6.711 0.383 c -3.688 0.211 -7.402 0.441 -8.25 0.516 l -1.543 0.133 l -0.133 -1.551 c -0.289 -3.348 -0.875 -14.605 -0.77 -14.711 c 0.063 -0.063 0.863 -0.172 1.781 -0.25 c 0.914 -0.074 1.664 -0.219 1.664 -0.316 c 0 -0.098 -0.344 -0.551 -0.762 -1 c -0.418 -0.449 -0.762 -0.906 -0.762 -1.01 c -0.004 -0.102 -0.195 -0.426 -0.426 -0.715 c -0.414 -0.531 -0.414 -0.535 0.156 -1.117 c 0.668 -0.68 1.01 -0.73 1.402 -0.195 c 0.152 0.211 0.598 0.52 0.98 0.684 c 0.387 0.168 1.313 1 2.059 1.859 l 1.355 1.559 l 1.746 -0.129 c 0.957 -0.07 4.234 -0.266 7.281 -0.438 c 3.043 -0.172 6.133 -0.371 6.859 -0.441 l 1.328 -0.129 l 0.133 1.563 c 0.305 3.57 0.871 14.613 0.754 14.73 c -0.07 0.066 -1.215 0.18 -2.547 0.246 c -1.328 0.07 -2.465 0.199 -2.52 0.285 c -0.055 0.09 0.246 0.801 0.672 1.582 c 0.422 0.785 0.742 1.5 0.703 1.59 c -0.035 0.094 -1.051 -0.574 -2.258 -1.477" fill="#fff" fill-rule="evenodd"/></svg>