<svg xmlns="http://www.w3.org/2000/svg" viewBox="0 0 48 48"><path d="m 0.797 18.988 c 7.07 -43.902 72.941 3.227 35.871 25.543 c -14.359 9.563 -39.508 -2.965 -35.871 -25.543" fill="#8e722a"/><path d="m 20.621 36.5 l -3.688 -0.07 l -0.688 -0.328 c -0.383 -0.18 -0.957 -0.602 -1.309 -0.961 c -0.758 -0.773 -2.551 -3.34 -3.109 -4.449 c -0.445 -0.879 -0.438 -1.246 0.031 -1.891 c 0.613 -0.84 1.566 -1.156 4.063 -1.355 c 2.09 -0.164 23.305 -0.168 24.305 0 c 0.566 0.094 0.578 0.105 0.863 0.816 c 0.16 0.395 0.477 1.281 0.703 1.973 c 0.316 0.766 0.488 1.121 0.094 1.801 c -0.414 0.715 -3.152 3.484 -3.844 3.887 c -0.297 0.176 -0.879 0.363 -1.309 0.43 c -0.973 0.145 -11.219 0.238 -16.11 0.148" fill="#454412"/><path d="m 20.441 27.16 c 0 -0.043 0.082 -0.258 0.18 -0.477 c 0.141 -0.32 0.145 -0.836 0.004 -0.836 c -0.016 0 -0.719 -0.121 -1.563 -0.273 c -0.844 -0.148 -3.488 -0.555 -5.875 -0.902 c -5.23 -0.762 -7.836 -1.168 -8.117 -1.266 c -0.207 -0.07 -0.289 -0.531 -0.117 -0.656 c 0.051 -0.039 3.355 0.363 7.348 0.887 c 7.941 1.051 8.844 1.125 9.391 0.789 c 2.168 -1.93 4.066 -1.211 6.305 -1.211 c 3.371 0.289 6.656 -0.59 5.215 3.207 l -0.313 0.813 h -6.23 c -3.422 0 -6.227 -0.035 -6.227 -0.074" fill="#6a562e"/><path d="m 17.03 27.82 h 20.813 c 1.836 0 3.324 0.68 3.324 1.512 v 0.52 c 0 0.836 -1.488 1.512 -3.324 1.512 h -20.813 c -1.836 0 -3.324 -0.676 -3.324 -1.512 v -0.52 c 0 -0.832 1.488 -1.512 3.324 -1.512" fill="#d6ad28"/><path d="m 13.02 18.598 c -0.172 -0.086 -0.641 -0.602 -1.043 -1.141 c -0.617 -0.824 -0.734 -1.102 -0.734 -1.734 c 0 -1.105 0.555 -2.051 1.242 -2.113 c 2.402 -0.211 2.449 -0.227 2.723 -0.949 c 0.367 -0.965 1.59 -1.449 3.824 -1.285 c 3.457 0.254 0.762 0.93 8.715 -0.238 c 0.391 -0.059 0.5 -0.031 0.5 0.199 c 0 0.477 -0.5 0.629 -3.555 1.078 c -3.18 0.473 -3.688 0.625 -3.414 1.031 c 0.117 0.176 0.66 0.293 1.602 0.352 c 1.453 0.094 2.191 0.367 2.348 0.875 c 0.129 0.426 -0.496 1.852 -1.316 2.996 l -0.727 1.012 l -4.926 0.039 c -2.711 0.023 -5.07 -0.031 -5.238 -0.121" fill="#6a562e"/><path d="m 12.11 31.07 c -0.738 -1.184 -0.699 -1.859 0.152 -2.496 c 0.375 -0.277 1.254 -0.586 2.094 -0.73 c 1.715 -0.297 8.602 -0.375 20.715 -0.234 l 5.621 0.063 l 0.445 1.227 c 0.57 1.555 0.715 2.172 0.547 2.277 c -0.277 0.172 -2.785 0.215 -15.75 0.262 l -13.562 0.051 m 12.602 -0.414 c 0.52 -0.145 0.707 -0.332 0.988 -0.977 c 0.133 -0.297 0.352 -0.656 0.488 -0.801 c 0.316 -0.332 0.242 -0.582 -0.238 -0.813 c -0.496 -0.242 -1.363 -0.219 -1.875 0.043 c -0.496 0.258 -0.566 0.438 -0.289 0.734 c 0.297 0.32 0.203 0.492 -0.375 0.684 c -0.621 0.211 -0.762 0.371 -0.613 0.703 c 0.211 0.469 1.07 0.656 1.914 0.426 m 5.449 -0.383 c 0.5 -0.992 0.238 -1.785 -0.707 -2.117 c -0.25 -0.09 -0.703 -0.273 -1 -0.41 c -0.676 -0.309 -0.945 -0.273 -1.23 0.156 c -0.277 0.414 -0.285 0.805 -0.016 1.363 c 0.293 0.613 0.566 0.715 1.012 0.371 c 0.191 -0.148 0.402 -0.246 0.465 -0.223 c 0.066 0.027 0.199 0.27 0.297 0.543 c 0.195 0.559 0.293 0.668 0.648 0.734 c 0.133 0.023 0.254 0.051 0.266 0.059 c 0.012 0.008 0.133 -0.207 0.266 -0.477 m 3.477 0.273 c 0.234 -0.121 0.656 -0.234 0.98 -0.258 c 0.434 -0.031 0.59 -0.086 0.668 -0.23 c 0.137 -0.258 -0.039 -0.766 -0.375 -1.094 c -0.285 -0.273 -1.039 -0.656 -1.309 -0.656 c -0.23 -0.004 -0.469 0.266 -0.469 0.539 c 0 0.367 -0.176 0.387 -0.789 0.09 c -0.465 -0.223 -0.625 -0.258 -0.844 -0.184 c -0.723 0.258 -0.113 1.453 0.934 1.828 c 0.609 0.223 0.723 0.219 1.203 -0.035 m 5.852 -0.129 c 0.527 -0.535 0.578 -1.176 0.141 -1.832 c -0.289 -0.43 -0.594 -0.473 -0.949 -0.129 c -0.32 0.309 -0.473 0.25 -0.68 -0.258 c -0.145 -0.355 -1.047 -0.879 -1.168 -0.68 c -0.344 0.566 -0.344 1.547 0 1.988 c 0.109 0.141 0.422 0.309 0.77 0.418 c 0.324 0.098 0.773 0.305 1 0.457 c 0.512 0.344 0.574 0.348 0.883 0.035 m -18.06 -0.094 c 0.469 -0.598 0.504 -1.16 0.121 -1.797 c -0.23 -0.383 -0.578 -0.426 -1.023 -0.125 c -0.16 0.109 -0.316 0.195 -0.348 0.195 c -0.031 0 -0.129 -0.156 -0.219 -0.348 c -0.164 -0.344 -0.766 -0.727 -1.152 -0.73 c -0.457 -0.008 -0.332 1.867 0.148 2.184 c 0.059 0.039 0.328 0.121 0.598 0.176 c 0.266 0.059 0.66 0.238 0.875 0.395 c 0.48 0.352 0.758 0.367 1 0.051 m -5.293 -0.262 c 0.145 -0.07 0.34 -0.328 0.5 -0.664 c 0.141 -0.301 0.387 -0.715 0.547 -0.918 c 0.348 -0.441 0.309 -0.668 -0.156 -0.891 c -0.309 -0.148 -0.359 -0.148 -0.836 0.035 c -0.668 0.258 -1.234 0.551 -1.316 0.684 c -0.035 0.059 0.008 0.188 0.098 0.289 c 0.156 0.172 0.156 0.188 -0.012 0.277 c -0.098 0.055 -0.363 0.148 -0.59 0.207 c -0.781 0.215 -0.957 0.742 -0.32 0.961 c 0.438 0.152 1.77 0.164 2.086 0.02" fill="#2d7a26"/><g fill="#7c7a30"><path d="m 20.23 33.871 c 0 1.168 -0.914 2.117 -2.043 2.117 c -1.133 0 -2.047 -0.949 -2.047 -2.117 c 0 -1.168 0.914 -2.117 2.047 -2.117 c 1.129 0 2.043 0.949 2.043 2.117"/><path d="m 25.977 33.969 c 0 1.168 -0.914 2.117 -2.047 2.117 c -1.129 0 -2.043 -0.949 -2.043 -2.117 c 0 -1.168 0.914 -2.117 2.043 -2.117 c 1.133 0 2.047 0.949 2.047 2.117"/><path d="m 31.723 33.969 c 0 1.168 -0.914 2.117 -2.047 2.117 c -1.129 0 -2.043 -0.949 -2.043 -2.117 c 0 -1.168 0.914 -2.117 2.043 -2.117 c 1.133 0 2.047 0.949 2.047 2.117"/><path d="m 37.664 33.969 c 0 1.168 -0.918 2.117 -2.047 2.117 c -1.129 0 -2.047 -0.949 -2.043 -2.117 c -0.004 -1.168 0.914 -2.117 2.043 -2.117 c 1.129 0 2.047 0.949 2.047 2.117"/></g><g fill="#454412"><path d="m 24.711 33.969 c 0 0.461 -0.348 0.836 -0.781 0.836 c -0.43 0 -0.777 -0.375 -0.777 -0.836 c 0 -0.461 0.348 -0.836 0.777 -0.836 c 0.434 0 0.781 0.375 0.781 0.836"/><path d="m 18.965 33.871 c 0 0.461 -0.348 0.836 -0.777 0.836 c -0.434 0 -0.781 -0.375 -0.781 -0.836 c 0 -0.461 0.348 -0.836 0.781 -0.836 c 0.43 0 0.777 0.375 0.777 0.836"/><path d="m 30.457 33.969 c 0 0.461 -0.348 0.836 -0.781 0.836 c -0.43 0 -0.777 -0.375 -0.777 -0.836 c 0 -0.461 0.348 -0.836 0.777 -0.836 c 0.434 0 0.781 0.375 0.781 0.836"/><path d="m 36.492 33.871 c 0.004 0.461 -0.348 0.836 -0.777 0.836 c -0.43 0 -0.781 -0.375 -0.777 -0.836 c -0.004 -0.461 0.348 -0.836 0.777 -0.836 c 0.43 0 0.781 0.375 0.777 0.836"/></g></svg>