<svg xmlns="http://www.w3.org/2000/svg" viewBox="0 0 48 48"><path d="m 6.082 35.742 c -16.977 -19.18 8.152 -39.477 22.875 -34.488 c 14.723 4.992 24.609 19.07 14.996 31.422 c -9.613 12.348 -19.06 24.26 -36.04 5.078" fill="#ffa400"/><path d="m 23.707 12.488 c -0.262 -0.004 -0.516 0.07 -0.73 0.219 c -1.406 0.961 -2.766 1.699 -4.199 1.938 c -1.43 0.238 -2.992 0.035 -5.05 -1.125 c -0.387 -0.215 -0.859 -0.215 -1.246 0 c -0.383 0.219 -0.621 0.621 -0.621 1.055 v 13.668 c 0 1.086 0.477 2.078 1.148 3.113 c 0.672 1.035 1.586 2.094 2.656 3.113 c 2.141 2.035 4.887 3.906 7.672 4.715 c 0.23 0.066 0.477 0.066 0.711 0 c 2.781 -0.813 5.523 -2.684 7.668 -4.715 c 1.07 -1.02 1.984 -2.078 2.656 -3.113 c 0.668 -1.035 1.148 -2.023 1.148 -3.113 v -13.668 c 0 -0.434 -0.238 -0.836 -0.621 -1.051 c -0.387 -0.219 -0.859 -0.219 -1.246 -0.004 c -2.059 1.16 -3.617 1.363 -5.05 1.125 c -1.434 -0.238 -2.789 -0.977 -4.195 -1.938 c -0.207 -0.141 -0.453 -0.219 -0.703 -0.219" fill-opacity="0.2"/><path d="m 23.707 11.816 c -0.262 -0.004 -0.516 0.074 -0.73 0.219 c -1.406 0.965 -2.766 1.438 -4.195 1.672 c -1.43 0.238 -2.992 0.305 -5.05 -0.855 c -0.832 -0.469 -1.867 0.117 -1.871 1.055 v 13.668 c 0 1.086 0.477 2.074 1.152 3.109 c 0.672 1.035 1.586 2.098 2.656 3.113 c 2.141 2.039 4.883 3.906 7.668 4.715 c 0.234 0.07 0.48 0.07 0.711 0 c 2.785 -0.809 5.527 -2.68 7.668 -4.715 c 1.07 -1.016 1.984 -2.078 2.66 -3.113 c 0.672 -1.035 1.148 -2.023 1.148 -3.109 v -13.668 c 0 -0.938 -1.039 -1.523 -1.867 -1.055 c -2.059 1.16 -3.617 1.094 -5.05 0.855 c -1.43 -0.234 -2.789 -0.707 -4.195 -1.672 c -0.207 -0.137 -0.449 -0.215 -0.703 -0.219" fill="#f84300"/><path d="m 23.07 16.465 c -2.805 -0.016 -3.965 0.324 -7.363 0.809 c -0.973 0.012 -1.754 0.645 -1.754 1.586 c 0 0.949 0.793 1.719 1.777 1.719 c 0.016 0 0.035 -0.004 0.051 -0.004 c -0.438 -1.402 0.68 -1.281 1.414 -1.422 c 0.145 -0.004 0.09 -0.004 0.238 -0.004 v 11.461 l 3.477 2.82 v -14.359 c 2.117 -0.039 4.379 0.023 6.574 0.66 c 3.664 1.063 1.105 3.621 -1.121 4.957 c 1.254 0.754 2.895 2.328 2.898 3.813 c 0.004 1.148 -1.137 2.242 -3.168 2.855 c -1.949 0.484 -3.82 0.738 -5.184 2.074 c 0 0 1.047 -0.188 3.387 -0.277 c 2.828 -0.113 5.555 -1.055 7.535 -3.03 c 0.996 -2.047 -0.332 -3.715 -3.273 -5.34 c 3 -1.637 4.328 -3.531 2.953 -5.391 c -1.652 -2.238 -4.285 -2.793 -7.117 -2.898 c -0.48 -0.016 -0.922 -0.023 -1.324 -0.027 m 3.293 8.227 l -1.754 -2.102 c -1.828 1.242 -2.34 2.566 -0.102 4.059" fill-opacity="0.2"/><g fill="#fff"><path d="m 23.07 15.797 c -2.805 -0.016 -3.965 0.32 -7.363 0.809 c -0.973 0.012 -1.754 0.645 -1.754 1.582 c 0 0.949 0.793 1.719 1.777 1.719 c 0.016 0 0.035 0 0.051 0 c -0.438 -1.402 0.68 -1.281 1.414 -1.422 c 0.145 -0.004 0.09 -0.004 0.238 -0.004 v 11.461 l 3.477 2.816 v -14.355 c 2.117 -0.039 4.379 0.023 6.574 0.66 c 3.664 1.063 1.105 3.621 -1.121 4.957 c 1.254 0.754 2.895 2.328 2.898 3.813 c 0.004 1.148 -1.137 2.242 -3.168 2.852 c -1.949 0.484 -3.82 0.738 -5.184 2.074 c 0 0 1.047 -0.184 3.387 -0.273 c 2.828 -0.113 5.555 -1.055 7.535 -3.03 c 0.996 -2.047 -0.332 -3.719 -3.273 -5.34 c 3 -1.641 4.328 -3.531 2.953 -5.391 c -1.652 -2.238 -4.285 -2.793 -7.117 -2.898 c -0.48 -0.016 -0.922 -0.027 -1.324 -0.027 m 3.293 8.227 l -1.754 -2.102 c -1.828 1.242 -2.34 2.563 -0.098 4.059"/><path d="m 23.707 11.816 c -0.262 -0.004 -0.516 0.074 -0.73 0.219 c -1.406 0.965 -2.766 1.438 -4.195 1.672 c -1.43 0.238 -2.992 0.305 -5.05 -0.855 c -0.832 -0.469 -1.867 0.117 -1.871 1.055 v 0.668 c 0.004 -0.938 1.039 -1.52 1.871 -1.055 c 2.055 1.16 3.617 1.094 5.05 0.859 c 1.434 -0.238 2.793 -0.711 4.195 -1.672 c 0.215 -0.148 0.469 -0.223 0.73 -0.219 c 0.25 0 0.496 0.078 0.703 0.219 c 1.406 0.961 2.766 1.434 4.195 1.672 c 1.434 0.234 2.992 0.301 5.05 -0.859 c 0.828 -0.465 1.867 0.117 1.867 1.055 v -0.668 c 0 -0.938 -1.039 -1.523 -1.867 -1.055 c -2.059 1.16 -3.617 1.094 -5.05 0.855 c -1.43 -0.234 -2.789 -0.707 -4.195 -1.672 c -0.207 -0.137 -0.449 -0.215 -0.703 -0.219" fill-opacity="0.2"/></g></svg>