<svg xmlns="http://www.w3.org/2000/svg" viewBox="0 0 48 48"><path d="m 39.31 5.25 c -28.789 -22.336 -58.676 33.29 -23.04 41.43 c 22.449 8.336 44.37 -24.875 23.04 -41.43" fill="#cd564f"/><path d="m 13.93 15.484 l 3.484 4.844 c 1.199 -1.715 6.543 5.18 5.691 -2.355 l -1.785 -2.488 m 4.238 3.426 c -13.816 16.32 -6.906 8.16 0 0 m 0 0 c 0.219 0.148 0.434 0.301 0.633 0.48 c 3.16 5.855 2.766 12.281 -6.785 8.098 l -5.477 7.602 h 7.387 l 3.363 -4.668 l 3.359 4.668 h 7.391 l -7.05 -9.805 l 7.05 -9.805 h -7.391 m -10.789 4.621 l 3.734 5.195 l -1.652 2.309 c 1.738 0.883 6.109 2.504 7.586 1.16 c 1.785 -1.629 1.934 -7.488 0.145 -9.121 c -0.133 -0.125 -1.27 -0.734 -1.422 -0.84 l -1.016 1.402 l -1.523 -2.242 c -2.602 -0.145 -7.289 0.191 -5.848 2.137" fill-opacity="0.098"/><path d="m 13.1 14.73 l 3.484 4.844 c 1.199 -1.715 6.547 5.18 5.691 -2.355 l -1.785 -2.488 m 4.242 3.426 c -13.816 16.32 -6.91 8.16 0 0 m 0 0 c 0.215 0.148 0.43 0.301 0.629 0.48 c 3.16 5.855 2.766 12.277 -6.781 8.094 l -5.48 7.605 h 7.391 l 3.359 -4.668 l 3.359 4.668 h 7.395 l -7.05 -9.805 l 7.05 -9.805 h -7.395 m -10.789 4.621 l 3.738 5.195 l -1.656 2.309 c 1.738 0.883 6.113 2.504 7.59 1.16 c 1.781 -1.633 1.93 -7.488 0.145 -9.121 c -0.137 -0.125 -1.273 -0.734 -1.426 -0.84 l -1.016 1.398 l -1.523 -2.238 c -2.602 -0.145 -7.285 0.191 -5.844 2.137" fill="#2d2d2d"/></svg>