<svg xmlns="http://www.w3.org/2000/svg" viewBox="0 0 48 48"><path d="m 40.762 41.914 c -42.26 27.457 -58.61 -47.531 -15.14 -41.555 c 17.73 2.434 31.3 31.05 15.14 41.555" fill="#acd7e5"/><path d="m 10.344 21.59 l -0.227 10.98 l 22.898 4.766 l 2.566 -23.24 l -10.508 -3.191" fill="#4cc54c"/><path d="m 33.02 37.34 l -16.15 -9.664 l 11.977 -8.691" fill="#46d546"/><path d="m 16.859 27.664 l -0.004 0.004 l 0.008 -0.004 m -0.008 0.004 l -6.742 4.895 l 22.867 4.75 l -16.12 -9.637" fill="#62e762"/><path d="m 28.828 18.98 h 0.004 l -0.008 0.004 m 0.008 -0.004 l 6.742 -4.895 l -2.574 23.21 l -4.164 -18.313" fill="#4cc54c"/><path d="m 14.27 18.809 l 2.578 8.844 l 11.977 -8.688 l -7.648 -5.219" fill="#70e870"/><path d="m 28.82 18.969 l -0.004 0.004 m 0.004 -0.004 l 6.746 -4.895 l -10.531 -3.156 l -3.867 2.828 l 7.648 5.215" fill="#5bdd5b"/><path d="m 16.852 27.652 l -0.004 0.004 l 0.008 -0.004 m -0.008 0.004 l -6.742 4.895 l 0.266 -10.992 l 3.887 -2.797 l 2.586 8.887" fill="#97f697"/></svg>