<svg xmlns="http://www.w3.org/2000/svg" viewBox="0 0 48 48"><path d="m 24.438 47.551 c 31.727 3.594 31.29 -47.832 -0.563 -47.22 c -29.625 -1.695 -32.3 50.03 0.563 47.22" fill="#47d0cc"/><path d="m 196.36 157.04 c 0 30.547 -32.965 55.33 -73.64 55.33 c -40.657 0 -73.64 -24.782 -73.62 -55.33 c -0.021 -30.566 32.965 -55.33 73.62 -55.33 c 40.678 0 73.64 24.764 73.64 55.33" transform="matrix(0.19043 0 0 0.21342 0.619 -7.712)" fill="#0ff" stroke="#0ff" stroke-width="3.222"/><path d="m 200.06 132.94 c -8.813 -4.688 -22.06 -9.167 -35.27 -11.938 c -9.02 -1.896 -15.354 -2.521 -31.438 -3.083 c -34.375 -1.229 -53.937 1.938 -76.44 12.375 c -2.875 1.333 -5.417 2.271 -5.625 2.042 c -0.813 -0.833 1.604 -19.854 3.417 -26.917 c 7.208 -28.12 25.833 -48.792 50.5 -56.02 c 6.104 -1.792 9.08 -2.083 20.979 -2 c 20.896 0.146 32.667 3.292 45.979 12.271 c 15.896 10.729 27.604 28.417 32.854 49.688 c 1.917 7.792 3.417 27.02 2.104 26.937 c -0.438 -0.021 -3.625 -1.542 -7.06 -3.354" transform="scale(0.1875)" fill="#de2020" stroke="#de2020" stroke-width="2.93"/><g fill="#8c2626" stroke="#8c2626"><g stroke-width="1.342" transform="matrix(0.11691 0 0 0.12064 9.438 8.466)"><path d="m 63.64 161.24 v -28.979 l 10.09 0.162 c 11.561 0.194 13.331 0.583 16.572 3.724 c 2.573 2.493 3.441 4.792 3.642 9.552 c 0.301 6.735 -1.504 10.717 -5.68 12.563 l -1.838 0.809 l 1.838 0.809 c 5.313 2.364 8.253 8.483 7.752 16.09 c -0.501 7.03 -3.809 11.559 -9.89 13.437 c -2.239 0.68 -3.876 0.809 -12.529 0.809 h -9.957 m 21.45 -7.091 c 3.375 -1.684 4.778 -4.533 4.778 -9.778 c 0 -5.278 -1.403 -8.095 -4.778 -9.778 c -1.904 -0.939 -2.706 -1.036 -8.654 -1.198 l -6.549 -0.162 v 22.277 l 6.549 -0.162 c 5.947 -0.162 6.749 -0.291 8.654 -1.198 m -2.038 -27.26 c 2.339 -0.68 3.542 -1.813 4.511 -4.047 c 0.902 -2.169 0.802 -6.767 -0.134 -8.872 c -1.671 -3.594 -3.608 -4.339 -11.627 -4.339 l -5.914 -0.032 v 17.906 h 5.546 c 3.675 0 6.215 -0.194 7.618 -0.615"/><path d="m 107.35 161.24 v -29.01 l 9.289 0.227 c 9.923 0.227 12.563 0.615 16.806 2.623 c 3.04 1.457 6.816 5.02 8.386 7.965 c 2.907 5.44 4.31 14.7 3.508 23.05 c -0.568 5.893 -1.336 8.872 -3.241 12.757 c -1.904 3.885 -4.711 6.702 -8.587 8.645 c -4.577 2.234 -7.551 2.687 -17.508 2.687 l -8.654 0.032 m 17.274 -6.282 c 7.484 -1.069 11.861 -5.245 13.833 -13.146 c 1.036 -4.08 1 -15.06 -0.033 -19.1 c -1.904 -7.318 -5.68 -11.268 -12.229 -12.628 c -1.236 -0.259 -4.644 -0.486 -7.618 -0.486 h -5.379 v 45.816 l 4.277 -0.032 c 2.339 0 5.546 -0.194 7.15 -0.421"/></g><path d="m 358.89 359.38 v -101.71 h 26.719 c 14.585 0 30.453 0.796 35.12 1.593 c 16.452 3.072 28.469 11.945 34.3 25.484 c 6.767 15.586 7.351 40.842 1.283 56.997 c -3.617 9.443 -13.301 20.592 -19.485 22.18 c -4.784 1.138 -4.667 2.275 0.467 5.347 c 4.9 2.958 13.301 15.13 18.552 27.08 c 3.85 8.646 25.2 63.03 25.2 64.16 c 0 0.341 -4.784 0.569 -10.501 0.569 h -10.618 l -10.734 -27.418 c -13.07 -33.789 -17.852 -43.573 -24.386 -50.28 c -6.534 -6.826 -12.835 -8.646 -30.803 -8.646 h -14.701 v 86.35 h -20.419 m 63.94 -111.15 c 10.968 -5.688 16.1 -16.382 16.1 -33.675 c 0 -17.293 -5.02 -27.759 -15.985 -33.33 c -5.717 -2.844 -8.634 -3.299 -25.09 -3.299 h -18.552 v 73.15 h 18.902 c 16.1 0 19.835 -0.455 24.619 -2.844" transform="matrix(0.03348 0 0 0.03434 15.864 15.532)" stroke-width="4.7"/></g><g fill="#ffd429"><path d="m 26.422 17.488 l -2.137 -0.504 l -1.598 1.621 l -0.219 -2.355 l -1.914 -1.141 l 2 -0.953 l 0.41 -2.328 l 1.457 1.77 l 2.172 -0.297 l -1.105 2.047"/><path d="m 31.574 15.176 l -0.539 -0.316 l -0.367 0.504 l -0.082 -0.609 l -0.629 0.031 l 0.434 -0.441 l -0.418 -0.461 l 0.625 0.055 l 0.109 -0.605 l 0.344 0.512 l 0.551 -0.297 l -0.195 0.586 l 0.582 0.238 l -0.59 0.215"/><path d="m 18.641 17.258 l -1.09 0.285 l 0.176 1.195 l -0.883 -0.742 l -0.754 0.898 l -0.016 -1.215 l -1.117 -0.078 l 0.867 -0.77 l -0.641 -0.996 l 1.094 0.254 l 0.32 -1.16 l 0.5 1.086 l 1.039 -0.453 l -0.473 1.098"/><path d="m 32.27 21.18 l -1.391 -0.648 l -0.992 1.238 l -0.176 -1.629 l -1.484 -0.313 l 1.215 -0.977 l -0.492 -1.547 l 1.387 0.648 l 0.992 -1.234 l 0.176 1.625 l 1.484 0.313 l -1.215 0.977"/></g><path d="m 104.54 207.75 c -32.23 -6.688 -52.938 -33.833 -54.646 -71.62 l -0.104 -2.313 c 1.25 0.271 2.604 0.042 3.667 -0.313 c 0.958 -0.313 1.833 -0.5 1.917 -0.417 c 0.083 0.083 0.438 1.271 0.771 2.646 c 0.958 3.833 3.354 10.479 5.167 14.375 c 9.938 21.313 27.396 34.13 49.875 36.604 c 3.188 0.354 12.75 0.521 26.75 0.479 c 10.02 -0.042 18.19 -1.958 26.729 -6.313 c 5.708 -2.917 10.04 -6.104 14.583 -10.771 c 8.438 -8.646 14.1 -18.833 17.813 -32.02 c 0.604 -2.146 1.146 -3.938 1.188 -4 c 2.979 1.667 10.375 3.5 10.458 5.104 c 0 1.146 -0.208 3.833 -0.479 5.979 c -1.625 13 -5.667 24.75 -11.854 34.458 c -3.083 4.833 -5.229 7.5 -9.667 11.917 c -11.979 11.958 -28.21 18.17 -47.44 18.17 c -11.542 -1.063 -24.23 0.063 -34.729 -1.958" transform="scale(0.1875)" fill="#007f7f" stroke="#007f7f" stroke-width="1.122"/></svg>