<svg xmlns="http://www.w3.org/2000/svg" viewBox="0 0 48 48"><path d="m 39.31 42.75 c -28.789 22.336 -58.676 -33.29 -23.04 -41.43 c 22.449 -8.336 44.37 24.875 23.04 41.43" fill="#2f2f2f"/><path d="m 99.82 207.47 c -16.183 -1.162 -26.719 -5.165 -36.5 -13.894 c -8.268 -7.412 -11.318 -13.532 -11.419 -23.04 c -0.101 -9.581 2.722 -15.624 9.806 -21.02 c 8.419 -6.43 16.611 -8.677 31.584 -8.677 c 19.283 0 28.534 3.486 46.633 17.664 l 6.68 5.217 l 2.143 -2.918 c 2.974 -4.03 3.907 -13.609 2.42 -24.921 c -3.327 -25.54 -22.409 -45.3 -47.04 -48.705 c -21.854 -3.02 -42.45 8.548 -57.22 32.2 c -1.311 4.313 -5.949 5.94 -7.991 8.677 c -5.067 -2.01 -3.705 -8.677 -6.705 -14.07 c -6.882 -22.441 -0.63 -42.946 6.075 -54.36 c 10.562 -19.213 57.825 -56.788 106.27 -43.41 c 11.847 5.165 17.695 9.607 28.736 21.899 c 7.184 7.98 10.763 13.248 13.889 20.401 c 6.932 15.882 6.907 17.251 -0.176 9.968 c -3.327 -3.435 -6.604 -6.224 -7.26 -6.224 c -0.655 0 -5.42 -3.176 -10.587 -7.05 c -21.653 -16.244 -46.86 -20.505 -71.13 -12.01 c -9.503 3.306 -18.275 8.806 -18.275 11.414 c 0 1.498 2.042 1.369 22.611 -1.524 c 16.788 -2.35 35.34 2.557 49.733 13.145 c 19.233 14.15 31.33 38.35 31.433 62.831 c 0.101 24.507 -8.797 45.37 -25.888 60.64 c -16.485 14.746 -32.32 19.627 -57.8 17.767" transform="matrix(0.15497 0 0 0.15126 6.368 7.521)" fill="#78adff" stroke="#77acff" stroke-width="1.248"/></svg>