<svg xmlns="http://www.w3.org/2000/svg" viewBox="0 0 48 48"><path d="m 1.066 18.613 c 9.281 -44.12 73.14 3.246 34.777 25.672 c -14.902 9.609 -39.551 -2.98 -34.777 -25.672" fill="#6397a1"/><path d="m 119.33 166.9 c 19.15 -11.583 44.833 -16.5 65.46 -22.729 l 8.479 1.75 c 11.792 2.417 27.333 6.563 27.333 7.271 c 0 0.333 -3.479 2.167 -12.792 9.875 c -13.06 10.854 -77.79 16.708 -88.87 18.417 c -16.667 2.563 -3.938 -4.04 3.208 -14.188 c 1.146 -1.646 -3.167 0.125 -2.813 -0.396" transform="scale(0.1875)" fill="#fff" stroke="#fff" stroke-width="0.84"/><path d="m 78.46 196.45 c -20.527 -4.19 -17.289 -0.815 -31.589 -13.906 c -8.371 -7.678 -9.716 -9.241 -11.883 -13.815 c -2.121 -4.484 -7.185 -24.573 -5.748 -21.09 c 28.761 -0.181 16.467 -4.326 41.967 6.568 c 11.29 1.744 3.444 9.829 13.183 15.922 c 4.265 2.673 16.513 2.65 20.983 2.605 c 1.46 -0.023 1.893 0.249 1.597 0.997 c -1.368 3.578 -1.095 8.289 1.711 21.15 c 0.958 4.371 -11.564 0.362 -14.62 1.812 c -4.949 2.559 -10.651 0.498 -15.601 -0.249" transform="matrix(0.17127 0 0 0.17247 2.16 1.239)" fill="#fdc787" stroke="#fdc787" stroke-width="0.713"/><path d="m 58.995 150.99 c -0.821 -0.476 -2.783 -0.747 -4.356 -0.634 c -6.934 -0.838 -2.235 -9.173 -10.765 -4.915 c -4.334 2.197 -4.402 2.197 -7.344 0.612 c -2.463 -1.336 -3.307 -1.427 -4.744 -0.521 c -18.885 3.42 14.62 -53.722 33.87 -67.61 c 18.292 -14.13 25.02 -27.767 58.5 -24.641 c 0.16 0.159 -0.365 2.446 -1.14 5.096 c -2.326 4.462 0.16 29.918 3.193 29.964 c 4.311 2.559 -2.965 15.22 -7.435 16.76 c -3.49 1.155 -6.272 4.01 -7.595 7.791 c -1.483 4.281 -2.714 3.443 -2.076 -1.449 c 0.456 -3.42 0.182 -5.03 -1.391 -8.153 c -1.825 -3.828 -5.02 -7.089 -6.592 -10.803 c -1.619 -3.828 -3.444 -4.733 -11.358 -5.549 c -7 -0.725 -8.599 0.091 -12.613 6.387 c -1.711 2.673 -4.767 6.319 -6.797 8.108 c -7.8 6.885 -8.553 7.859 -8.553 11.01 c 0 5.458 1.095 8.652 3.741 11.08 c 3.763 3.828 17.699 15.673 21.668 12.298 c 0.844 -0.747 23.15 -26.408 25.773 -24.619 c 5.269 3.646 -23.652 25.411 -28.875 30.575 c -7.686 7.587 -9.05 8.584 -12.932 9.331 c -5.497 1.042 -10.286 0.997 -12.18 -0.113" transform="matrix(0.17127 0 0 0.17247 2.463 2)" fill="#663" stroke="#663" stroke-width="0.883"/><g transform="matrix(0.17127 0 0 0.17247 2.16 1.239)"><path d="m 126.65 89.68 c -2.167 -5.322 -1.916 -27.16 0.182 -31.526 c 7.07 0.362 11.313 -0.679 10.765 0.997 c 4.265 1.608 10.583 3.216 11.723 7.972 c 0 1.404 -19.592 26.838 -20.55 26.838 c -0.205 0 -1.163 -1.925 -2.121 -4.281" fill="#fdc787" stroke="#ffcd8c" stroke-width="1.59"/><path d="m 116.5 208.36 c -2.669 -1.246 -6.272 -10.713 -7.778 -20.383 c -1.893 -12.207 -1.961 -11.8 3.284 -23.26 c 1.437 -3.125 5.155 -6.228 6.318 -5.322 c 25.27 7.655 0.912 1.223 0.547 14.336 c 0 2.65 -0.251 7.338 -0.57 10.464 c -0.525 5.481 -0.456 5.707 2.144 8.221 c 1.551 1.517 3.581 2.605 4.858 2.605 c 1.232 0 2.418 0.317 2.691 0.725 c 1.049 1.653 -2.395 8.652 -5.474 11.1 c -3.535 2.808 -3.33 2.763 -6.02 1.517" fill="#007373" stroke="#006b6b" stroke-width="0.859"/><path d="m 119.79 158.42 c -4.151 -5.843 -4.858 -16.964 -2.03 -31.64 c 1.46 -7.542 2.737 -11.1 9.1 -25.21 c 6.272 -13.906 8.188 -17.462 12.567 -23.19 c 23.857 -31.05 44.07 -28.04 40.39 6.07 c -2.965 27.835 -22.808 63.66 -41.35 74.76 c -8.279 4.96 -14.78 4.688 -18.68 -0.793" fill="#a9a9a8" stroke="#b1b1b0" stroke-width="0.887"/><path d="m 141.96 144.92 c -2.577 -3.443 -3.033 -10.03 -1.254 -18.685 c 0.912 -4.462 1.711 -6.568 5.679 -14.903 c 3.9 -8.221 5.086 -10.305 7.823 -13.68 c 14.871 -18.368 27.461 -16.579 25.18 3.578 c -1.847 16.443 -14.209 37.619 -25.773 44.16 c -5.177 2.922 -9.214 2.763 -11.655 -0.476" stroke-opacity="0.729" fill="#547285" stroke="#4d5960" stroke-width="0.538"/></g><path d="m 122.7 190.4 c -6.272 -2.174 -6.751 -3.171 -6.432 -13.05 c 0.365 -10.26 1.414 -12.389 7.39 -15.02 c 2.304 -1.019 3.946 -2.265 3.649 -2.763 c 0.958 -1.54 3.581 -0.974 5.36 -1.902 c 1.049 -0.566 4.219 -1.631 7.05 -2.355 c 2.828 -0.747 11.45 -3.646 19.18 -6.455 c 7.732 -2.808 17.904 -6.092 22.603 -7.293 l 8.576 -2.197 l 10.765 2.559 c 17.22 4.122 36.01 9.01 36.516 9.512 c 1.049 1.019 -1.87 4.507 -5.2 6.206 c -1.961 0.997 -10.788 6.02 -19.615 11.188 c -8.85 5.141 -17.79 10.06 -19.911 10.894 c -4.448 1.767 -18.02 3.873 -44.25 6.862 c -13.16 1.517 -19.2 2.582 -20.368 3.601 c -1.414 1.291 -2.098 1.314 -5.314 0.204 m 30.335 -10.871 c 16.08 -2.084 31.22 -4.03 33.642 -4.348 c 2.44 -0.294 6.911 -1.744 9.944 -3.216 c 5.862 -2.808 19.683 -9.761 18.748 -10.713 c -0.297 -0.317 -19.638 1.563 -24.18 2.876 c -9.602 2.786 -30.608 5.685 -53.964 8.855 c -16.331 2.22 -16.969 6.409 -15.988 8.969 c 0.73 1.925 -0.844 1.812 31.794 -2.423 m 26.731 -17.417 c 9.374 -1.336 22.945 -4.507 27.12 -4.394 c 7.299 -0.861 9.26 -1.11 18.475 -2.808 c 0 -1.472 -13.183 -5.436 -30.31 -9.127 l -7.093 -1.54 l -22.261 7.27 c -12.248 3.986 -24.61 7.927 -27.461 8.742 c -5.497 0.997 -17.745 10.1 -13.11 9.716 c 21.782 -2.287 36.24 -5.254 54.648 -7.859" transform="matrix(0.17127 0 0 0.17247 2.463 2)" fill="#617973" stroke="#69817d" stroke-width="0.947"/><path d="m 79.19 137.68 c -3.353 -1.585 -6.683 -3.714 -7.39 -4.711 c -0.707 -0.997 -2.714 -2.876 -4.425 -4.145 c -2.076 -1.517 -3.535 -3.782 -4.334 -6.727 c -1.847 -6.613 -0.456 -9.988 6.386 -15.559 c 3.193 -2.605 6.888 -6.681 8.234 -9.04 c 1.323 -2.378 3.079 -5.073 3.923 -6.02 c 1.939 -2.152 8.53 -3.148 13.662 -2.061 c 3.284 0.725 4.607 1.789 7.686 6.319 c 7.595 11.1 7.664 11.256 7.664 17.1 c 0 7.904 -4.151 13.634 -16.832 23.19 c -6.227 4.688 -7.778 4.869 -14.574 1.653" transform="matrix(0.17127 0 0 0.17247 2.16 1.239)" fill="#e4c200" stroke="#ecd033" stroke-width="0.996"/><path d="m -6.821 129.36 c 1.259 -0.002 2.297 6.851 2.3 15.32 c -0.013 8.456 -1.034 15.308 -2.294 15.31 c -1.259 0.002 -2.297 -6.851 -2.3 -15.32 c 0.013 -8.456 1.034 -15.308 2.294 -15.31" transform="matrix(0.146 -0.11765 0.12495 0.1398 0 0)" fill="#c7ab04" stroke="#ba9f04" stroke-width="1.256"/></svg>