<svg xmlns="http://www.w3.org/2000/svg" viewBox="0 0 48 48"><path d="m 22.793 0.676 c -65.06 28.926 30.398 80.906 24.984 16.473 c -1.266 -9.703 -11.293 -19.891 -24.984 -16.473" fill="#ede7aa"/><g fill-rule="evenodd" transform="scale(0.1875)"><g stroke-width="0.935"><g fill="#0f0" stroke="#0f0"><path d="m 40.625 119.42 v -24.15 h 11.458 v 48.27 h -11.458"/><path d="m 87.27 173.83 v -8.188 h 16.375 v 16.375 h -16.375"/><path d="m 70.08 119.42 v -24.15 h 51.563 v 48.27 h -51.563 m 11.458 -7.771 c 0 -2.625 0.188 -2.854 2.458 -2.854 c 2.25 0 2.458 0.229 2.458 2.854 v 2.875 h 18 v -2.875 c 0 -2.729 0.125 -2.854 2.854 -2.854 h 2.875 v -27.02 h 2.854 c 2.729 0 2.875 -0.125 2.875 -2.854 c 0 -2.792 -0.083 -2.875 -3.292 -2.875 c -3.188 0 -3.271 0.083 -3.271 2.875 c 0 2.646 -0.188 2.854 -2.458 2.854 c -2.25 0 -2.438 -0.208 -2.438 -2.854 v -2.875 h -18 v 2.875 c 0 2.729 -0.146 2.854 -2.875 2.854 h -2.854 v 27.02 h -2.875 c -2.729 0 -2.854 0.125 -2.854 2.854 c 0 2.813 0.063 2.875 3.271 2.875 c 3.188 0 3.271 -0.063 3.271 -2.875"/><path d="m 87.27 130.46 c 0 -2.25 0.229 -2.458 2.854 -2.458 c 2.729 0 2.875 -0.125 2.875 -2.854 c 0 -2.729 0.146 -2.875 2.875 -2.875 c 2.708 0 2.854 -0.125 2.854 -2.854 c 0 -2.646 0.188 -2.875 2.458 -2.875 h 2.458 v 16.375 h -16.375"/><path d="m 87.27 114.08 v -8.188 h 16.375 v 2.458 c 0 2.271 -0.229 2.458 -2.875 2.458 c -2.729 0 -2.854 0.146 -2.854 2.875 c 0 2.729 -0.146 2.854 -2.875 2.854 c -2.729 0 -2.854 0.146 -2.854 2.875 c 0 2.625 -0.208 2.854 -2.458 2.854 h -2.458"/><path d="m 138.83 119.42 v -24.15 h 51.563 v 48.27 h -51.563 m 29.458 -24.12 v -19.25 h -6.542 v 38.479 h 6.542"/><path d="m 207.94 118.94 v -24.15 h 17.188 v 48.27 h -17.188"/></g><g stroke="#000"><path d="m 40.625 146.81 v -2.438 h 12.271 v -49.938 h -12.271 v -4.917 h 17.188 v 59.75 h -17.188"/><path d="m 64.35 119.42 v -29.875 h 63.02 v 59.75 h -63.02 m 58.1 -29.875 v -24.979 h -53.21 v 49.938 h 53.21"/><path d="m 133.1 119.42 v -29.875 h 63.02 v 59.75 h -63.02 m 58.1 -29.875 v -24.979 h -53.21 v 49.938 h 53.21"/><path d="m 162.56 119.42 v -18.417 h 4.917 v 36.833 h -4.917"/><path d="m 202.67 119.42 v -29.875 h 22.917 v 4.896 h -18 v 49.938 h 18 v 4.917 h -22.917"/><path d="m 185.48 173.83 v -13.1 h 27.833 v 26.21 h -27.833 m 22.917 -13.1 v -8.188 h -18 v 16.375 h 18"/><path d="m 150.29 173.83 v -13.1 h 28.646 v 26.21 h -28.646 m 23.729 -13.1 v -8.188 h -18 v 16.375 h 18"/><path d="m 115.92 173.83 v -13.1 h 28.646 v 26.21 h -28.646 m 22.917 -13.1 v -8.188 h -17.188 v 16.375 h 17.188"/><path d="m 46.35 173.83 v -13.1 h 28.646 v 26.21 h -28.646 m 23.729 -13.1 v -8.188 h -18 v 16.375 h 18"/></g></g><g stroke="#000"><g stroke-width="0.539"><path d="m 104.54 124.04 v -8.458 l -3.063 0.25 c -3.083 0.25 -3.083 0.25 -3.063 -1 c 0 -2.958 0.375 -3.354 3.083 -3.354 h 2.5 l 0.625 -4.958 h 4.646 v 25.646 l -2.375 0.167 l -2.354 0.146"/><path d="m 81.4 119.63 v -12.875 h 1.542 c 0.833 0 2 -0.146 2.604 -0.292 l 1.063 -0.292 v 16.729 l 5.667 -0.333 v 2.188 c 0 2.083 -0.083 2.208 -1.479 2.479 c -0.813 0.167 -2.083 0.292 -2.833 0.292 c -1.333 0 -1.354 0.063 -1.354 2.479 v 2.479 h -5.208"/><path d="m 87.06 103.21 v -2.125 h 16.521 v 1.375 c 0 0.771 0.125 1.708 0.292 2.125 c 0.25 0.667 -0.667 0.75 -8.271 0.75 h -8.542"/><path d="m 87.06 135.79 v -2.125 h 16.771 l -0.333 4.25 h -16.438"/><path d="m 76.06 137.63 c -0.188 -0.188 -0.333 -1.146 -0.333 -2.146 v -1.813 h 5.25 l -0.146 2 l -0.146 2.02 l -2.146 0.146 c -1.167 0.063 -2.292 -0.021 -2.479 -0.208"/><path d="m 110.21 103.19 v -2.167 l 2.479 0.146 c 2.313 0.146 2.479 0.229 2.625 1.479 c 0.208 1.917 -0.646 2.688 -3.042 2.688 h -2.063"/><path d="m 92.73 120.04 c 0 -2.229 0.542 -2.708 3.354 -3.02 l 2.188 -0.229 l -0.229 2.188 c -0.146 1.188 -0.271 2.188 -0.292 2.229 c -0.042 0.021 -1.188 0.188 -2.542 0.375 l -2.479 0.313"/><path d="m 190.96 173.81 v -7.563 h 16.521 v 15.13 h -16.521" fill="#7f7f7f"/><path d="m 156.48 173.81 v -7.563 h 17 v 15.13 h -17" fill="#00f"/><path d="m 122.48 173.81 v -7.563 h 15.583 v 15.13 h -15.583" fill="#00ced0"/><path d="m 52.583 173.81 v -7.563 h 16.542 v 15.13 h -16.542" fill="#ffa400"/></g><path d="m 81.44 174.31 v -13.1 h 28.646 v 26.21 h -28.646 m 22.917 -13.1 v -8.188 h -17.188 v 16.375 h 17.188" stroke-width="0.935"/></g></g></svg>