<svg xmlns="http://www.w3.org/2000/svg" viewBox="0 0 48 48"><path d="m 39.535 7.309 c 37.2 49.52 -65.18 56.56 -32.32 6.01 c 7.488 -11.527 22.465 -19.12 32.32 -6.01" fill="#473d8b"/><g fill="#1e8fff"><path d="m 28.965 36.59 v -2.063 h 4.582 v 4.125 h -4.582"/><path d="m 24.14 36.59 v -2.063 h 4.586 v 4.125 h -4.586"/><path d="m 24.14 32 v -2.063 h 4.586 v 4.125 h -4.586"/><path d="m 19.313 32 v -2.063 h 4.582 v 4.125 h -4.582"/></g><g fill="#f00"><path d="m 24.14 27.648 v -2.063 h 4.586 v 4.125 h -4.586"/><path d="m 19.313 27.648 v -2.063 h 4.582 v 4.125 h -4.582"/><path d="m 19.313 23.06 v -2.063 h 4.582 v 4.125 h -4.582"/><path d="m 14.484 23.06 v -2.063 h 4.586 v 4.125 h -4.586"/></g><g fill="#0f0"><path d="m 28.965 32 v -2.063 h 4.582 v 4.125 h -4.582"/><path d="m 28.965 27.648 v -2.063 h 4.582 v 4.125 h -4.582"/><path d="m 28.965 23.06 v -2.063 h 4.582 v 4.125 h -4.582"/><path d="m 24.14 23.06 v -2.063 h 4.586 v 4.125 h -4.586"/></g><g fill="#ff0"><path d="m 14.484 27.648 v -2.063 h 4.586 v 4.125 h -4.586"/><path d="m 14.484 32 v -2.063 h 4.586 v 4.125 h -4.586"/><path d="m 14.484 36.59 v -2.063 h 4.586 v 4.125 h -4.586"/><path d="m 19.313 36.59 v -2.063 h 4.582 v 4.125 h -4.582"/></g></svg>