<svg xmlns="http://www.w3.org/2000/svg" viewBox="0 0 48 48"><path d="m 43.883 38.04 c -9.08 16.508 -37.531 10.1 -42.34 -3.488 c -5.738 -16.191 9.191 -46.934 34.473 -28.926 c 8.516 6.289 16.949 15.906 7.863 32.414" fill="#dd9fdd"/><g fill="#fff" fill-rule="evenodd"><path d="m 13.27 29.492 c -0.52 -0.113 -1.074 -0.219 -1.496 -0.492 c -0.352 -0.223 -0.582 -0.617 -0.879 -0.715 c -0.176 0 -0.281 -0.293 -0.281 -0.77 c 0 -0.539 0.008 -0.859 0.238 -0.859 c 0.219 -0.211 -0.102 0.109 0.051 -0.09 c 0.289 -0.383 1.105 -1.137 1.594 -1.141 c 0.141 0 0.273 -0.16 0.387 -0.18 c 0.23 -0.039 0.387 0.039 0.387 -0.039 c 0 -0.133 0.887 -0.223 2.215 -0.223 c 1.332 0 2.219 0.09 2.219 0.223 c 0 0.121 -0.348 0.039 0.078 0.039 c 0.543 0 1.473 0.277 1.473 0.508 c 0 0.207 -0.395 -0.027 -0.051 -0.027 c 0.441 0 1.156 0.469 1.156 0.906 c 0 0.344 -0.207 0.043 0 0.043 c 0.461 0.02 0.422 1.422 0.094 1.43 c -0.207 0 -0.094 -0.273 -0.094 0.07 c 0 0.438 -0.531 0.938 -0.977 0.938 c -0.305 0 -0.102 -0.141 -0.102 -0.02 c -0.414 0.594 -3.34 0.73 -3.574 0.73 c -2.02 0 -2.438 -0.059 -2.438 -0.332"/><path d="m 22.13 25.21 c 0.277 -0.816 0.012 0.332 0 -0.184 c 0 -0.242 -0.434 -1.367 -0.555 -1.367 c -0.121 0 -0.402 -0.309 -0.402 -0.609 c 0 -0.316 -0.883 -1.328 -1.055 -1.328 c -0.223 0 0.266 0.285 -0.02 0.008 c -0.207 -0.195 -0.629 -0.313 -0.629 -0.449 c 0 -0.145 -0.371 -0.25 -0.887 -0.25 c -0.484 0 -0.887 -0.098 -0.887 -0.219 c 0 -0.121 -0.246 -0.223 -0.551 -0.223 c -0.406 0 -0.555 -0.117 -0.555 -0.438 c 0 -0.246 -0.063 -0.621 0.121 -0.621 c 0.02 -0.457 0.09 0 0.109 -0.309 c 0 -0.406 1.266 -1.57 1.59 -1.57 c 0.246 0 0.172 0.164 0.172 -0.004 c 0 -0.367 0.902 -0.906 2.57 -0.902 c 1.797 0.004 3.633 0.852 3.633 1.203 c 0 0.168 -0.02 0.121 0.102 0.121 c 0.383 0.309 -0.402 0.043 0.133 0.082 c 0.23 0 0.875 1.133 0.875 1.668 c 0 0.426 -0.051 0.051 0.07 0.051 c 0.125 0 0.375 1.066 0.375 1.488 c 0 0.426 -0.281 1.699 -0.402 1.699 c -0.125 0 -0.043 -0.582 -0.043 -0.156 c 0 0.535 -0.43 1.219 -0.664 1.219 c -0.309 0.316 -0.5 0.461 -0.727 0.746 c 0 0.387 -0.961 1.012 -1.453 1.012 c -0.258 0 -0.035 -0.305 -0.035 -0.121 c 0 0.184 -0.199 0.332 -0.445 0.332 c -0.367 0 -0.441 -0.148 -0.441 -0.879"/><path d="m 31.22 29.27 c 0 -0.543 -0.102 -0.988 -0.223 -0.988 c -0.121 0 -0.219 -0.148 -0.219 -0.332 c 0 -0.18 -0.102 -0.328 -0.223 -0.328 c -0.121 0 -0.223 -0.148 -0.223 -0.328 c 0 -0.184 -0.148 -0.332 -0.332 -0.332 c -0.184 0 -0.332 -0.098 -0.332 -0.219 c -0.531 -0.289 -1.484 -0.656 -1.996 -0.66 c -0.617 0.02 -1.637 -0.313 -1.258 -0.512 c -0.352 0 -0.105 -0.969 0.262 -1.109 c 0.184 -0.066 -0.09 0.332 -0.09 0.09 c 0.117 -0.617 1.551 -2.199 1.645 -2.207 c 0.387 -0.133 0.477 -0.434 0.883 -0.441 c 0.344 0 0.039 0.176 0.039 -0.031 c 0 -0.457 3.289 -0.777 3.469 -0.32 c 0.063 0.172 -0.172 -0.012 0.207 0.074 c 0.383 0.082 1.355 0.68 1.418 0.848 c 0.066 0.172 0.262 0.309 0.43 0.309 c 0.184 0 0.309 0.227 0.309 0.551 c 0 0.344 -0.145 0.012 0.063 0.012 c 0.273 0 0.949 1.066 0.949 2.875 c 0 1.809 -0.797 2.781 -1.07 2.781 c -0.184 0 -0.094 -0.172 -0.094 -0.051 c 0 0.121 -0.418 0.582 -0.598 0.582 c 0.07 -0.402 -0.121 0.125 -0.492 0.289 c -0.168 0 -0.309 0.098 -0.309 0.219 c 0 0.121 -0.5 0.223 -1.109 0.223 h -1.105"/><path d="m 22.355 34 c 0 -0.121 -0.348 -0.219 -0.773 -0.219 c -0.43 0 -0.777 -0.098 -0.777 -0.219 c 0 -0.121 -0.148 -0.223 -0.332 -0.223 c -0.184 0 -0.332 -0.148 -0.332 -0.328 c 0 -0.18 -0.102 -0.328 -0.223 -0.328 c -0.121 0 -0.223 -0.348 -0.223 -0.77 c 0 -0.426 0.102 -0.773 0.223 -0.773 c 0.121 0 0.223 -0.141 0.223 -0.316 c 0 -0.227 0.801 -0.641 1.746 -0.746 c 0.906 -0.102 0.91 0.031 0.91 -0.172 c 0 -0.434 3.672 -0.43 4.105 0 c 0.168 0.168 0.066 0.027 0.621 0.109 c 0.656 0.098 1.699 0.602 1.699 0.809 c 0 0.176 0.152 0.32 0.336 0.32 c 0.23 0 0.332 0.23 0.332 0.77 c 0 0.535 -0.102 0.77 -0.332 0.77 c -0.184 0 -0.336 0.105 -0.336 0.234 c 0 0.445 -0.633 0.863 -1.313 0.863 c -0.375 0 -0.68 0.098 -0.68 0.219 c 0 0.137 -0.891 0.359 -2.367 0.359 c -1.48 0 -2.508 -0.227 -2.508 -0.359"/></g></svg>