<svg xmlns="http://www.w3.org/2000/svg" viewBox="0 0 48 48"><path d="m 5.03 11.387 c -17.188 24.547 14.551 49.42 34.797 29.418 c 19.08 -18.844 1.391 -48.12 -22.344 -38.973 c -4.953 1.91 -9.301 5.05 -12.453 9.551" fill="#f60"/><path d="m 18.547 39.676 c -1.863 -0.543 -2.746 -0.902 -3.672 -1.488 c -2.488 -1.555 -4.074 -3.719 -4.797 -6.266 c -1.18 -4.512 -0.195 -8.441 2.887 -11.543 c 1.668 -1.684 3.137 -2.547 5.328 -3.133 c 1.82 -0.484 5.273 -0.621 6.01 -0.23 c 3.504 0.691 6.516 3.418 7.93 5.742 c 0.176 0.289 0.527 1.168 0.785 1.949 c 1.406 4.273 0.418 8.391 -2.797 11.652 c -1.352 1.371 -2.672 2.215 -4.574 2.922 c -2.145 0.797 -5.152 0.961 -7.098 0.395 m 6.332 -3.496 c 1.148 -0.445 2.492 -1.457 2.492 -1.875 c 0 -0.512 -0.5 -0.418 -1.988 0.367 c -1.465 0.773 -1.57 0.801 -3.363 0.801 c -1.707 0 -1.949 -0.051 -3.145 -0.645 c -1.406 -0.707 -2.164 -1.512 -3.109 -3.316 c -0.957 -1.82 -1.754 -1.477 -1.043 0.449 c 0.668 1.813 2.422 3.5 4.547 4.383 c 1.234 0.516 4.082 0.43 5.609 -0.164 m -1.227 -1.676 c 1.145 -0.348 2.391 -1.379 3.063 -2.543 c 1.359 -2.352 0.422 -5.594 -2.01 -6.973 c -0.953 -0.543 -1.191 -0.59 -2.879 -0.594 c -1.629 0 -1.953 0.063 -2.848 0.527 l -1.01 0.531 c 0 -1.219 0 -2.434 0 -3.652 l 3.563 -0.098 c 3.594 -0.102 4.09 -0.207 3.852 -0.832 c -0.105 -0.285 -0.563 -0.313 -4.23 -0.258 c -2.262 0.035 -4.18 0.137 -4.27 0.227 c -0.184 0.191 -0.176 5.289 0.012 6.04 c 0.168 0.684 0.559 0.645 1.652 -0.172 c 1.273 -0.949 2.113 -1.266 3.359 -1.266 c 1.719 0 3.223 0.984 3.934 2.578 c 0.453 1.01 0.473 1.59 0.086 2.703 c -0.652 1.875 -2.457 3.01 -4.547 2.855 c -1.68 -0.125 -1.953 -0.512 -1.824 -2.602 c 0.148 -2.422 0.828 -3.395 2.379 -3.395 c 1.102 0 1.984 0.863 1.984 1.941 c 0 1.027 -0.461 1.512 -1.918 2.023 c -1.582 0.551 -1.676 0.977 -0.238 1.059 c 1.953 0.113 3.309 -1.211 3.309 -3.234 c 0 -2.375 -2.535 -3.727 -4.855 -2.586 c -1.035 0.508 -1.656 1.59 -1.691 2.953 c -0.012 0.473 -0.078 1.113 -0.145 1.418 c -0.113 0.613 -0.09 0.594 -0.484 0.148 c -0.371 -0.418 -0.969 -0.547 -1.152 -0.25 c -0.375 0.621 1.953 3.199 3.129 3.461 c 0.273 0.063 0.586 0.141 0.691 0.176 c 0.508 0.172 2.238 0.066 3.09 -0.191 m -0.887 -4.93 v -0.934 c -0.688 -0.016 -1.375 -0.031 -2.063 -0.051 c 0.008 0.641 0.016 1.277 0.027 1.918 c 0.68 0 1.359 0 2.035 0 c 0 -0.313 0 -0.621 0 -0.934 m 4.129 -4.715 c 0.289 -0.477 -0.195 -0.996 -1.559 -1.684 c -1.383 -0.691 -1.512 -0.719 -3.488 -0.723 c -1.305 -0.004 -2.215 0.086 -2.496 0.242 c -0.895 0.496 -0.363 0.703 2.086 0.813 c 2.273 0.102 2.449 0.141 3.727 0.82 c 1.496 0.789 1.559 0.809 1.73 0.531" fill="#fff"/></svg>