<svg xmlns="http://www.w3.org/2000/svg" viewBox="0 0 48 48"><path d="m 1.555 30.594 c -8.965 -25.01 23.25 -37.18 35.35 -26.992 c 12.1 10.184 16.23 27.637 2.527 36.414 c -13.707 8.781 -28.914 15.594 -37.875 -9.422" fill="#d2d2d2"/><path d="m 13.461 36.28 c -0.141 -0.105 -0.313 -0.586 -0.383 -1.074 c -0.098 -0.695 -0.055 -0.938 0.215 -1.137 c 0.266 -0.195 0.316 -0.441 0.223 -1.078 c -0.09 -0.625 -0.035 -0.898 0.219 -1.113 c 0.195 -0.164 0.309 -0.484 0.27 -0.754 c -0.035 -0.262 0.078 -0.641 0.258 -0.844 c 0.18 -0.203 0.301 -0.543 0.27 -0.758 c -0.039 -0.262 2.145 -3.328 6.766 -9.504 c 8.172 -10.922 7.215 -10.188 10.242 -7.926 c 3.03 2.27 3.512 1.078 -5.02 12.496 l -7.133 9.547 l -0.801 0.117 c -0.602 0.086 -0.844 0.219 -0.98 0.52 c -0.133 0.309 -0.379 0.434 -1 0.523 c -0.637 0.094 -0.859 0.211 -0.973 0.52 c -0.113 0.316 -0.332 0.43 -1.027 0.527 c -0.488 0.07 -1 0.043 -1.141 -0.063 m 3.77 -2.496 c -0.023 -0.152 0.117 -0.301 0.305 -0.328 c 0.398 -0.059 1.227 -0.867 1.188 -1.156 c -0.02 -0.121 -0.27 -0.121 -0.648 -0.004 c -0.793 0.25 -1.316 -0.125 -1.285 -0.926 c 0.027 -0.727 -0.27 -1.035 -0.906 -0.941 c -0.555 0.078 -0.945 0.605 -0.863 1.156 c 0.023 0.184 -0.078 0.352 -0.23 0.375 c -0.469 0.066 -0.16 1.484 0.422 1.945 c 0.578 0.457 2.09 0.367 2.02 -0.121 m 3.246 -2.457 c -0.016 -0.102 -0.113 -0.172 -0.215 -0.16 c -0.102 0.016 -0.172 0.109 -0.16 0.215 c 0.016 0.102 0.113 0.172 0.215 0.156 c 0.102 -0.012 0.172 -0.109 0.16 -0.211 m 3.586 -6.582 l 4.605 -6.164 l -0.879 -0.656 c -0.785 -0.586 -0.898 -0.621 -1.059 -0.316 c -0.098 0.184 -0.23 0.344 -0.289 0.352 c -0.117 0.02 -0.926 1.055 -0.91 1.164 c 0.023 0.148 -2.734 3.723 -2.887 3.746 c -0.094 0.012 -0.156 0.098 -0.145 0.188 c 0.023 0.156 -2.621 3.809 -2.77 3.832 c -0.102 0.016 -0.879 1.078 -0.863 1.18 c 0.008 0.051 -0.238 0.402 -0.551 0.781 c -0.473 0.582 -0.543 0.813 -0.449 1.48 l 0.113 0.789 l 0.742 -0.105 c 0.719 -0.105 0.852 -0.262 5.34 -6.27 m -2.938 5.836 c -0.008 -0.043 -0.102 -0.121 -0.215 -0.168 c -0.109 -0.047 -0.188 0 -0.172 0.109 c 0.016 0.105 0.109 0.184 0.215 0.168 c 0.102 -0.016 0.18 -0.063 0.172 -0.109 m 0.5 -7.66 l 4.684 -6.266 l -0.805 0.117 l -0.809 0.117 l -4.605 6.156 c -2.531 3.383 -4.555 6.191 -4.492 6.238 c 0.059 0.043 0.387 0.039 0.73 -0.008 c 0.563 -0.082 1.035 -0.652 5.297 -6.355 m 1.867 4.371 c -0.016 -0.102 -0.109 -0.172 -0.215 -0.156 c -0.102 0.012 -0.172 0.109 -0.156 0.211 c 0.016 0.102 0.109 0.172 0.211 0.16 c 0.102 -0.016 0.176 -0.113 0.16 -0.215 m 0.633 -0.848 c -0.012 -0.102 -0.109 -0.176 -0.211 -0.16 c -0.102 0.016 -0.172 0.109 -0.16 0.211 c 0.016 0.105 0.113 0.176 0.215 0.16 c 0.102 -0.016 0.172 -0.109 0.156 -0.211 m 2.383 -3.188 c -0.016 -0.102 -0.109 -0.172 -0.211 -0.16 c -0.105 0.016 -0.176 0.113 -0.16 0.215 c 0.016 0.102 0.109 0.172 0.211 0.156 c 0.102 -0.012 0.176 -0.109 0.16 -0.211 m 0.637 -0.848 c -0.016 -0.102 -0.113 -0.176 -0.215 -0.16 c -0.102 0.016 -0.172 0.109 -0.16 0.211 c 0.016 0.102 0.113 0.176 0.215 0.16 c 0.102 -0.016 0.172 -0.109 0.16 -0.211 m 4.617 -6.75 c 0.035 -0.203 0.18 -0.387 0.328 -0.406 c 0.184 -0.027 0.23 -0.262 0.156 -0.781 c -0.074 -0.52 -0.188 -0.73 -0.371 -0.703 c -0.148 0.02 -0.344 -0.121 -0.438 -0.316 c -0.094 -0.195 -0.293 -0.336 -0.438 -0.316 c -0.148 0.02 -0.285 -0.082 -0.305 -0.227 c -0.02 -0.148 -0.215 -0.297 -0.426 -0.332 c -0.215 -0.035 -0.406 -0.184 -0.426 -0.328 c -0.027 -0.188 -0.262 -0.234 -0.781 -0.16 c -0.523 0.078 -0.73 0.188 -0.707 0.375 c 0.023 0.145 -0.109 0.34 -0.293 0.426 c -0.543 0.262 -0.5 0.914 0.086 1.316 c 0.281 0.195 0.523 0.438 0.539 0.543 c 0.016 0.102 0.199 0.207 0.414 0.23 c 0.211 0.023 0.402 0.176 0.426 0.34 c 0.023 0.164 0.137 0.281 0.254 0.266 c 0.117 -0.016 0.43 0.145 0.695 0.359 c 0.551 0.449 1.188 0.305 1.285 -0.289"/></svg>