<svg xmlns="http://www.w3.org/2000/svg" viewBox="0 0 48 48"><path d="m 46.45 30.594 c 8.961 -25.01 -23.25 -37.18 -35.35 -26.992 c -12.1 10.184 -16.234 27.637 -2.527 36.418 c 13.703 8.781 28.91 15.59 37.875 -9.426" fill="#695acd"/><g fill="#fff"><path d="m 26.13 9.141 c 0.129 0.031 0.262 0.023 0.391 0.031 c 1.633 0.113 3.207 0.484 4.734 1.098 c 0.078 0.031 0.082 0.063 0.047 0.133 c -0.461 1 -0.922 1.992 -1.379 2.992 c -0.039 0.086 -0.074 0.109 -0.168 0.07 c -0.941 -0.387 -1.918 -0.633 -2.926 -0.762 c -0.602 -0.078 -1.211 -0.113 -1.816 -0.09 c -2.289 0.078 -4.402 0.738 -6.305 2.051 c -1.352 0.93 -2.457 2.102 -3.301 3.531 c -0.723 1.223 -1.195 2.547 -1.398 3.965 c -0.086 0.625 -0.129 1.254 -0.105 1.883 c 0.055 1.578 0.43 3.078 1.137 4.484 c 0.449 0.898 1 1.715 1.672 2.453 c 1.352 1.492 2.977 2.551 4.855 3.191 c 0.801 0.277 1.625 0.453 2.465 0.543 c 0.555 0.059 1.105 0.094 1.66 0.074 c 1.68 -0.059 3.285 -0.438 4.805 -1.188 c 0.117 -0.059 0.234 -0.117 0.348 -0.176 c 0.059 -0.035 0.094 -0.031 0.133 0.031 c 0.609 1.02 1.223 2.039 1.836 3.055 c 0.043 0.07 0.027 0.098 -0.035 0.133 c -1.344 0.723 -2.754 1.238 -4.242 1.539 c -0.668 0.141 -1.34 0.227 -2.02 0.277 c -0.582 0.047 -1.16 0.055 -1.746 0.031 c -2.391 -0.105 -4.648 -0.715 -6.766 -1.863 c -1.102 -0.602 -2.113 -1.328 -3.039 -2.188 c -1.277 -1.184 -2.324 -2.551 -3.125 -4.117 c -0.711 -1.387 -1.18 -2.859 -1.41 -4.41 c -0.133 -0.887 -0.184 -1.785 -0.145 -2.68 c 0.078 -1.875 0.504 -3.668 1.285 -5.367 c 0.602 -1.313 1.379 -2.504 2.324 -3.582 c 1.148 -1.309 2.484 -2.375 3.996 -3.219 c 1.418 -0.789 2.922 -1.336 4.508 -1.648 c 0.629 -0.121 1.254 -0.207 1.891 -0.25 c 0.129 -0.008 0.262 0 0.391 -0.027 c 0.484 0 0.965 0 1.449 0"/><path d="m 24.797 23.445 l -5.566 8.75 l 10 0.711 l 5.477 -8.777"/><g fill-opacity="0.8"><path d="m 23.273 20.523 l -5.566 8.75 l 10 0.711 l 5.477 -8.777"/><path d="m 21.746 17.523 l -5.566 8.75 l 9.996 0.711 l 5.477 -8.777"/></g><path d="m 20.238 14.559 l -5.563 8.75 l 9.996 0.711 l 5.477 -8.777"/></g></svg>