<svg xmlns="http://www.w3.org/2000/svg" viewBox="0 0 48 48"><path d="m 11.656 4.03 c -42.25 35.836 44.621 70.29 35.695 14.871 c -1.957 -12.152 -24.309 -24.527 -35.695 -14.871" fill="#dbddd9"/><path d="m -226.31 133.37 c -1.797 -1.821 -0.41 -7.193 3.223 -12.426 c 2.129 -3.076 4.18 -6.55 4.551 -7.698 c 0.371 -1.163 1.992 -3.535 3.633 -5.28 c 2.696 -2.892 3.203 -3.076 5.782 -2 c 1.934 0.811 7.755 1.01 18.732 0.643 c 20.49 -0.673 20.939 -0.673 40.3 0 c 11.915 0.413 17.189 0.23 19.377 -0.689 c 2.656 -1.102 3.164 -1.025 4.336 0.689 c 0.723 1.056 1.973 2.602 2.774 3.428 c 0.82 0.842 1.797 2.785 2.188 4.331 c 0.391 1.561 1.27 3.045 1.992 3.321 c 0.703 0.275 1.563 1.622 1.914 3.01 c 0.352 1.393 1.563 3.795 2.715 5.356 c 1.465 1.989 1.895 3.581 1.426 5.417 l -0.645 2.617 l -13.732 -0.275 l -13.732 -0.291 l -0.313 -2.801 c -0.176 -1.546 0.215 -3.474 0.879 -4.27 c 1.524 -1.836 4.493 -7.116 5.977 -10.666 c 0.645 -1.515 1.563 -2.755 2.071 -2.755 c 0.488 0 0.899 -0.903 0.899 -2 c 0 -1.913 -0.664 -2 -16.505 -2 c -15.978 0 -16.505 0.077 -16.505 2.066 c 0 2.204 3.75 9.733 5.684 11.416 c 1.485 1.301 3.614 9.243 2.813 10.544 c -0.82 1.331 -27.19 1.285 -28.01 -0.046 c -0.899 -1.454 2.344 -10.697 3.985 -11.325 c 0.742 -0.275 1.66 -1.928 2.031 -3.642 c 0.391 -1.729 1.328 -3.382 2.09 -3.688 c 0.781 -0.291 1.406 -1.607 1.406 -2.923 v -2.403 h -16.525 c -14.415 0 -16.603 0.214 -17.17 1.653 c -0.352 0.918 0.02 2.127 0.84 2.755 c 0.801 0.597 2.363 2.892 3.477 5.096 c 1.113 2.204 3.047 5.922 4.317 8.264 c 3.692 6.887 3.106 7.239 -12.228 7.239 c -7.364 0 -13.673 -0.306 -14.04 -0.673 m 18.752 -38.11 c -1.152 -0.949 -3.301 -3.856 -4.786 -6.473 c -2.91 -5.096 -2.715 -6.55 1.289 -10.161 c 1.856 -1.699 2.09 -3.01 2.09 -12.212 c 0 -9.412 0.176 -10.406 2.071 -11.416 c 4.161 -2.219 4.727 -0.842 5.098 12.151 c 0.195 7.774 0.723 12.365 1.426 12.595 c 0.625 0.199 1.914 0.949 2.91 1.668 c 2.11 1.561 1.485 5.555 -1.309 8.34 c -0.996 0.979 -2.324 3.03 -2.969 4.53 c -1.367 3.168 -2.871 3.428 -5.821 0.979 m 22.15 -0.444 c -0.859 -1.224 -1.563 -2.617 -1.563 -3.091 c 0 -0.474 -0.899 -2.02 -1.992 -3.413 c -2.676 -3.397 -2.539 -5.831 0.488 -8.463 c 2.324 -2.02 2.5 -2.816 2.52 -11.248 c 0 -4.989 0.273 -10.04 0.586 -11.217 c 0.645 -2.387 4.688 -3.658 6.348 -1.989 c 0.606 0.597 1.055 5.632 1.055 11.845 c 0 10.284 0.117 10.911 2.5 12.993 c 2.949 2.556 3.184 5.616 0.703 8.922 c -0.977 1.316 -2.324 3.627 -2.989 5.127 c -1.485 3.459 -5.43 3.734 -7.657 0.536 m 23.987 0 c -0.859 -1.224 -1.543 -2.617 -1.543 -3.091 c 0 -0.474 -0.899 -2.02 -2.01 -3.413 c -2.656 -3.367 -2.52 -5.708 0.469 -8.478 c 2.285 -2.127 2.481 -3.076 2.754 -13.192 c 0.234 -9.09 0.566 -11.08 2.031 -11.998 c 1.27 -0.796 2.227 -0.796 3.496 0 c 1.445 0.918 1.836 3.091 2.246 12.732 c 0.469 10.636 0.703 11.768 2.754 13.207 c 2.715 1.882 2.891 5.326 0.469 8.57 c -0.996 1.316 -2.324 3.627 -2.989 5.127 c -1.485 3.459 -5.43 3.734 -7.676 0.536 m 23.42 -0.352 c -0.527 -1.408 -0.977 -2.816 -0.977 -3.137 c 0 -0.306 -0.664 -1.071 -1.485 -1.683 c -0.82 -0.612 -1.758 -2.51 -2.09 -4.224 c -0.508 -2.525 -0.117 -3.581 1.953 -5.509 c 2.403 -2.234 2.578 -3.045 2.852 -13.268 c 0.234 -9.09 0.566 -11.08 2.031 -11.998 c 1.27 -0.796 2.227 -0.796 3.496 0 c 1.445 0.918 1.836 3.091 2.246 12.732 c 0.449 10.636 0.703 11.768 2.754 13.207 c 3.125 2.188 2.813 4.882 -1.309 11.11 c -4.121 6.213 -7.755 7.284 -9.474 2.785" transform="matrix(0.19998 0 0 0.25525 57.44 -0.261)" fill="#211a14" stroke="#211a14" stroke-width="1.887"/></svg>