<svg xmlns="http://www.w3.org/2000/svg" viewBox="0 0 48 48"><path d="m 47.16 15.254 c 8.34 67.62 -87.5 11.57 -26.19 -13.262 c 10.773 -3.809 22.895 -0.504 26.19 13.262" fill="#2e2e2e"/><path d="m 25.293 35.21 c -0.176 -0.027 -0.469 -0.152 -0.645 -0.277 c -0.18 -0.121 -1.637 -0.859 -3.238 -1.637 c -4.168 -2.027 -3.387 -1.82 -3.512 -1.82 c -1.047 -0.91 -0.801 -1.66 -0.629 -3.188 c -0.039 -0.559 -0.035 -1.02 0.055 -1.02 c 0.742 0.332 1.188 0.922 1.949 1.254 c 0.098 0 0.457 -0.215 0.801 -0.477 c 0.344 -0.262 1.484 -1.109 2.535 -1.883 l 1.91 -1.41 l 0.469 0.191 c 0.922 0.375 1.16 0.297 5.543 -1.859 c 5.01 -2.465 4.871 -2.297 2.746 -3.355 c -1.398 -0.691 -1.578 -0.887 -1.098 -1.18 c 0.188 -0.113 0.512 0.004 1.746 0.617 c 0.836 0.414 1.723 0.813 1.973 0.883 l 0.453 0.129 l 0.031 5.379 l 0.035 5.379 l -0.293 0.07 c -0.16 0.039 -2.184 0.988 -4.496 2.105 c -4.01 1.945 -4.246 2.043 -5.109 2.098 c -0.496 0.031 -1.051 0.031 -1.227 0 m -0.391 -2.391 c 0.723 -0.27 0.898 -0.648 0.66 -1.43 c -0.262 -0.855 -0.316 -0.906 -1.188 -1.137 c -0.645 -0.168 -0.922 -0.188 -1.242 -0.086 c -0.457 0.145 -0.496 0.23 -0.617 1.262 c -0.082 0.68 -0.066 0.723 0.359 1.164 c 0.602 0.605 1.281 0.496 2.027 0.227 m 5.05 -0.523 c 0.41 -0.402 0.332 -0.941 -0.207 -1.449 c -0.598 -0.563 -1.01 -0.574 -1.348 -0.027 c -0.371 0.594 -0.332 1.016 0.141 1.402 c 0.48 0.391 1.055 0.418 1.414 0.074 m 4.266 -1.887 c 0.383 -0.371 0.328 -0.918 -0.141 -1.441 c -0.691 -0.852 -1.27 0.008 -1.371 0.668 c -0.055 0.391 -0.012 0.547 0.203 0.758 c 0.348 0.34 0.969 0.348 1.309 0.016 m -13.09 -1.051 c -0.082 -0.793 -1.289 -0.734 -1.582 0.078 c -0.098 0.266 -0.07 0.391 0.117 0.594 c 0.621 0.367 1.516 -0.09 1.465 -0.672 m 8.465 -0.891 c 0.496 -0.391 1.371 -0.961 1.203 -1.656 c -0.113 -0.438 -1.332 -0.98 -1.941 -0.871 c -0.523 0.094 -1.063 0.59 -1.172 1.082 c -0.113 0.5 0.246 1.184 0.754 1.426 c 0.512 0.246 0.703 0.25 1.156 0.02 m -5.266 -0.25 c 0.359 -0.352 0.391 -0.668 0.133 -1.387 c -0.543 -1.391 -1.598 -0.129 -1.719 0.668 c -0.055 0.391 -0.012 0.551 0.207 0.762 c 0.375 0.363 0.977 0.344 1.379 -0.043 m -14.14 3.523 c -0.465 -0.473 -0.625 -1.172 -0.348 -1.992 c 0.277 -0.805 1.395 -1.813 2.414 -2.453 c 0.969 -0.613 3.398 -1.59 3.629 -1.457 c 0.379 0.223 1 0.746 1 0.848 c 0 0.152 -1.605 1.977 -3.01 3.418 c -1.676 1.719 -2.957 2.375 -3.688 1.637 m 8.289 -4.512 c -0.371 -0.289 -0.676 -0.578 -0.68 -0.637 c -0.004 -0.063 0.145 -0.25 0.328 -0.418 c 0.43 -0.387 14.422 -11.566 13.848 -11.488 c -0.773 0.102 -14.652 11.645 -15.1 11.207 c -0.305 -0.293 -0.379 -0.473 -0.379 -0.922 c 0 -0.359 0.09 -0.668 0.246 -0.863 c 0.309 -0.379 2.543 -2.039 3.047 -2.262 c 0.891 -0.563 1.594 -1.324 2.434 -1.949 c 1.316 -0.996 2.684 -2.082 3.906 -2.992 c 2 -1.488 3.918 -2.969 5.922 -4.465 c 0.961 -0.695 1.891 -1.434 2.844 -2.141 l 0.355 -0.262 v 0.355 c 0 0.531 -0.602 2.602 -1.098 3.785 c -1.297 3.09 -2.801 4.578 -10.477 10.363 c -3.02 2.27 -4.332 3.227 -4.43 3.223 c -0.309 -0.18 -0.539 -0.355 -0.77 -0.535 m -1.848 -5.734 c 0 -1.527 0.016 -1.645 0.289 -1.895 c 0.16 -0.145 2.066 -1.117 4.238 -2.164 c 3.586 -1.73 4.02 -1.906 4.75 -1.953 c 0.508 -0.035 0.809 -0.004 0.809 0.078 c 0 0.34 -1.996 1.539 -4.938 2.973 c -4.828 2.352 -4.789 2.316 -3.855 2.93 c 0.25 0.16 0.453 0.34 0.453 0.398 c 0 0.121 -1.48 1.262 -1.641 1.262 c -0.059 0 -0.105 -0.734 -0.105 -1.629" fill="#fff"/></svg>