<svg xmlns="http://www.w3.org/2000/svg" viewBox="0 0 48 48"><path d="m 47.3 28.988 c -3.715 24.727 -40.727 25.469 -46.32 1.434 c -5.758 -19.461 15.09 -35.37 30.68 -28.992 c 10.441 3.01 18.875 15.34 15.637 27.559" fill="#f8f8ff"/><path d="m 21.234 43.23 c -3.91 -0.723 -7.289 -2.563 -10.08 -5.484 c -2.563 -2.684 -4.195 -5.918 -4.957 -9.813 c -0.293 -1.484 -0.289 -5.367 0 -6.836 c 1.617 -8.137 8.133 -14.15 16.344 -15.07 c 5.277 -0.598 10.859 1.406 14.766 5.293 c 3.625 3.613 5.457 8.04 5.453 13.199 c -0.004 4.961 -1.766 9.559 -5.04 13.14 c -2.16 2.359 -5.652 4.438 -8.875 5.27 c -2.055 0.531 -5.617 0.676 -7.613 0.305 m 6.383 -2.613 c 9.07 -1.867 14.793 -10.629 12.926 -19.797 c -2.133 -10.484 -13.578 -16.199 -23.24 -11.613 c -1.965 0.934 -3.223 1.844 -4.773 3.445 c -2.094 2.168 -3.461 4.605 -4.227 7.52 c -0.426 1.629 -0.574 4.75 -0.309 6.551 c 0.996 6.836 6.03 12.297 12.75 13.828 c 1.711 0.391 5.137 0.422 6.867 0.066 m -8.02 -6.59 c -2.762 -1.617 -5.184 -3.047 -5.387 -3.18 l -0.367 -0.238 l 0.043 -6.383 l 0.043 -6.379 l 5.277 -3.125 c 2.902 -1.719 5.387 -3.129 5.52 -3.133 c 0.316 -0.004 9.773 5.574 9.965 5.887 c 0.109 0.168 -0.059 0.605 -0.563 1.5 c -0.395 0.695 -0.813 1.301 -0.926 1.348 c -0.117 0.043 -2.01 -0.953 -4.203 -2.219 c -2.191 -1.266 -4.098 -2.297 -4.234 -2.297 c -0.23 0 -6.102 3.277 -7.06 3.945 l -0.445 0.309 v 4.141 c 0 3.734 0.027 4.168 0.285 4.426 c 0.5 0.496 7.01 4.133 7.309 4.078 c 0.152 -0.027 2.051 -1.066 4.215 -2.309 c 2.164 -1.238 4.03 -2.219 4.141 -2.176 c 0.301 0.117 1.629 2.535 1.535 2.789 c -0.086 0.219 -9.691 5.957 -9.973 5.957 c -0.086 0 -2.414 -1.32 -5.172 -2.938 m 4.551 -3.438 c -1.77 -0.945 -4.73 -2.656 -4.984 -2.871 c -0.25 -0.219 -0.281 -0.602 -0.281 -3.453 c 0 -2.848 0.031 -3.23 0.281 -3.449 c 0.301 -0.258 4.965 -2.926 5.418 -3.098 c 0.355 -0.133 4.914 2.473 4.984 2.848 c 0.086 0.449 -1.238 2.723 -1.59 2.723 c -0.164 0 -0.918 -0.363 -1.676 -0.813 c -0.758 -0.449 -1.48 -0.809 -1.598 -0.801 c -0.121 0.004 -0.66 0.285 -1.195 0.621 l -0.973 0.613 v 2.715 l 0.973 0.609 c 0.539 0.34 1.07 0.621 1.188 0.625 c 0.117 0.008 0.832 -0.355 1.59 -0.801 c 0.754 -0.449 1.512 -0.816 1.684 -0.816 c 0.355 0 1.688 2.266 1.598 2.723 c -0.047 0.25 -0.91 0.801 -3.754 2.395 l -1.023 0.574" fill="#9370db"/></svg>