<svg xmlns="http://www.w3.org/2000/svg" viewBox="0 0 48 48"><path d="m 34.3 47.82 c -69 4.77 -17.29 -87.3 12 -26.68 c 4 9.34 1.09 23.27 -12 26.68" style="fill:#b0dfe5"/><path d="m 23.1 42.3 c -5.11 -0.93 -10 -4.33 -12.9 -8.92 c -4 -6.4 -3.86 -14.25 0.34 -19.26 c 5.7 -6.8 16.21 -6.83 23.53 -0.07 c 2.11 1.95 3.31 3.61 4.52 6.27 c 1.32 2.89 1.97 6.76 1.61 9.55 c -0.89 6.91 -5.82 11.76 -12.7 12.49 c -1.77 0.19 -3.11 0.17 -4.4 -0.06 m 3.63 -9.39 c 1.28 -0.4 2 -0.91 3.06 -2.17 c 1.1 -1.29 1.39 -2 1.48 -3.62 c 0.25 -4.46 -3.79 -8.75 -8.26 -8.75 c -2.13 0 -3.64 0.67 -4.93 2.19 c -0.51 0.6 -0.96 1.32 -1.12 1.79 c -1.75 5.1 2.34 10.77 7.77 10.79 c 0.77 0 1.55 -0.09 1.99 -0.23" style="fill:#cfe2f1"/><path d="m 23.34 42.1 c -2.21 -0.38 -5.11 -1.54 -7 -2.8 c -6.3 -4.16 -9.7 -11.61 -8.45 -18.53 c 0.23 -1.25 1.21 -4.11 1.71 -4.95 c 4.74 5.39 3.71 4.81 7.39 12.1 c 0.47 1.37 1.09 2.29 2.26 3.34 c 3.08 2.78 7.14 3.04 9.99 0.63 c 0.36 -0.3 0.66 -0.5 0.68 -0.44 c -1.55 3.82 -2.83 6.7 -4.58 10.76 c -0.66 0.03 -1.35 0.04 -1.99 -0.07 m -0.24 -10.59 c -4.43 -1.17 -6.57 -6.66 -3.88 -9.91 c 2.87 -3.45 8.87 -1.56 10.29 3.24 c 1.25 4.21 -2.2 7.79 -6.41 6.67" style="fill:#88b5e0"/><path d="m 13.1 22.67 c -1.95 -2.79 -3.64 -5.24 -3.74 -5.45 c -0.25 -0.51 0.11 -1.18 1.55 -2.91 c 1.78 -2.11 4.09 -3.61 6.81 -4.41 c 2.78 -0.46 5.28 -0.82 8 -0.08 c 3.11 0.84 5.46 2.12 7.9 4.29 c 1.45 1.29 3.35 3.44 3.4 3.86 c 0.02 0.15 -9.39 0.24 -13.69 0.13 c -1.29 -0.04 -1.87 0.01 -2.48 0.2 c -2.5 0.77 -4.28 2.89 -4.59 5.48 c -0.09 0.68 -0.05 1.32 0.14 2.45 c 0.14 0.84 0.25 1.53 0.23 1.53 c -0.02 0 -1.63 -2.28 -3.58 -5.07" style="fill:#4978a4"/><path d="m 28.76 20.29 c -0.09 -0.04 -0.52 -0.29 -0.94 -0.57 c -1.37 -0.89 -2.89 -1.48 -4 -1.59 c 4.5 -0.21 8.54 0.08 13.1 -0.25 c 0.25 0.14 0.29 0.44 0.38 0.77 c -1.73 0.21 -3.73 0.51 -5.21 0.87 c -0.74 0.18 -2.78 0.72 -3.04 0.8 c -0.05 0.02 -0.17 0 -0.26 -0.04" style="fill:#fffafa"/><path d="m 24.68 41.71 c 0.29 -0.44 0.74 -1.49 0.93 -2.19 c 0.23 -0.85 0.79 -3.65 0.95 -4.75 c 0.07 -0.51 0.16 -0.98 0.2 -1.05 c 0.9 -0.64 1.66 -1.1 2.6 -1.57 c 0.09 0.09 -0.66 1.9 -3.05 7.43 l -1.05 2.44 c -0.26 0 -0.52 0 -0.78 0" style="fill:#ffe4e0"/><g style="fill:#ff4500"><path d="m 35.53 28.95 h 2.6 c 0.52 0 0.95 0.43 0.95 0.95 v 10.49 c 0 0.52 -0.42 0.94 -0.95 0.94 h -2.6 c -0.52 0 -0.95 -0.42 -0.95 -0.94 v -10.49 c 0 -0.52 0.43 -0.95 0.95 -0.95"/><path d="m 43 33.84 v 2.6 c 0 0.52 -0.43 0.95 -0.95 0.95 h -10.49 c -0.52 0 -0.94 -0.43 -0.94 -0.95 v -2.6 c 0 -0.52 0.42 -0.95 0.94 -0.95 h 10.49 c 0.52 0 0.95 0.42 0.95 0.95"/></g></svg>