<svg xmlns="http://www.w3.org/2000/svg" viewBox="0 0 48 48"><path d="m 44.5 11.656 c -36.27 -42.25 -71.14 44.621 -15.05 35.695 c 12.301 -1.957 24.824 -24.309 15.05 -35.695" fill="#fadeb4"/><path d="m 10.742 18.582 v 0.211 c 0.641 0.191 0.867 0.566 1.461 1.906 l 6.18 14.289 h 0.34 l 5.82 -13.539 c 0.684 -1.598 0.887 -2.281 1.848 -2.656 v -0.211 c -0.801 0.047 -1.691 0.047 -2.559 0.047 c -0.5 0 -1.07 -0.023 -1.57 -0.047 v 0.211 c 0.41 0.07 0.59 0.309 0.59 0.637 c 0 0.516 -0.137 0.82 -0.27 1.148 l -4.04 9.805 l -3.559 -8.816 c -0.32 -0.797 -0.57 -1.504 -0.57 -1.879 c 0 -0.52 0.25 -0.777 0.684 -0.895 v -0.211 c -1.938 0.047 -3.445 0.047 -4.355 0 m 19.06 0 v 0.211 c 0.938 0.211 1.141 1.035 1.141 3.242 v 8.793 c 0 2.301 -0.23 2.984 -1.141 3.219 v 0.211 c 0.707 -0.02 1.504 -0.043 2.352 -0.043 c 0.75 0 1.547 0.023 2.23 0.043 v -0.211 c -0.887 -0.234 -1.16 -0.871 -1.16 -3.219 v -8.793 c 0 -2.23 0.227 -3.03 1.16 -3.242 v -0.211 c -0.773 0.023 -1.574 0.047 -2.277 0.047 c -0.711 0 -1.508 -0.023 -2.305 -0.047" fill="#9b361e"/></svg>