<svg xmlns="http://www.w3.org/2000/svg" viewBox="0 0 48 48"><path d="m 42.969 36.766 c 17.18 -24.445 -14.551 -49.21 -34.789 -29.3 c -19.07 18.766 -1.391 47.922 22.34 38.809 c 4.949 -1.902 9.293 -5.02 12.449 -9.512" fill="#2f4e4e"/><path d="m 12.12 13.13 l 6.203 23.973 h 10.148 l 6.195 -23.973 h -6.195 l -5.074 19.18 l -5.074 -19.18" fill="#fdcd37"/><g fill="#fff" fill-opacity="0.2"><path d="m 12.12 13.13 l 6.203 23.973 h 6.203 l -1.129 -4.793 l -5.074 -19.18"/><path d="m 12.12 13.13 l 0.152 0.598 h 6.05 l 5.074 19.18 l 5.074 -19.18 h 6.04 l 0.156 -0.598 h -6.195 l -5.074 19.18 l -5.074 -19.18"/></g><path d="m 12.12 13.13 l 6.203 23.973 h 10.148 l 6.195 -23.973 h -0.156 l -6.04 23.375 h -10.148 l -6.05 -23.375" fill-opacity="0.302"/></svg>