<svg xmlns="http://www.w3.org/2000/svg" viewBox="0 0 48 48"><path d="m 37.66 45.17 c -71.82 20.852 -24.664 -82.17 6.535 -30.492 c 5.703 9.492 5.859 25.613 -6.535 30.492" fill="#bbedd2"/><path d="m 88.15 125.6 c -7.938 -12.438 6.979 -15.313 14.25 -33.875 c 2.188 -5.563 13.146 -12.583 19.15 -15.12 c 11.625 -4.917 24.75 -7.02 36.708 -3.396 c 12.854 3.896 33.15 38.21 38.13 50.33 c -1.875 24 -80.54 29.583 -108.23 2.063" transform="scale(0.1875)" fill="#62aa75" stroke="#62aa75" stroke-width="1.361"/><path d="m 57.746 47.807 c -2.451 -4.02 -2.575 -10.843 -0.403 -23.22 c 0.869 -5.068 1.613 -15.573 1.706 -24.02 c 0.155 -13.761 -0.031 -15.45 -2.172 -20.21 c -1.303 -2.887 -3.01 -5.775 -3.816 -6.45 c -2.482 -2.058 -11.509 -4.822 -15.759 -4.853 c -3.723 0 -17.248 3.932 -27.02 7.894 c -4.746 1.935 -20.07 1.966 -24.663 0.061 c -10.858 -8.447 -11.23 -14.866 -5.956 -25.03 c 4.064 -8.324 8.252 -13.453 12.967 -15.849 c 5.584 -2.826 17.776 -5.04 23.2 -4.147 c 4.312 0.676 6.111 1.444 16.566 7.126 c 5.057 2.734 7.756 2.15 6.422 -1.351 c -0.807 -2.119 -0.217 -3.102 5.088 -8.293 c 4.87 -4.208 7.569 -9.491 10.579 -14.897 c 0.62 -1.106 3.133 -6.266 5.584 -11.488 c 7.445 -15.788 10.485 -18.675 33.16 -31.76 c 16.01 -9.215 21.809 -10.474 41.01 -8.908 c 21.343 1.72 33.13 8.293 45.08 25.16 c 2.172 3.041 6.111 8.57 8.779 12.255 c 4.777 6.665 8.903 14.713 12.812 25.06 c 1.117 2.918 4.25 8.201 6.918 11.703 c 2.699 3.532 4.933 6.635 4.933 6.88 c 0 0.276 -1.365 2.488 -3.01 4.945 c -2.02 2.979 -3.01 5.682 -3.01 8.201 c 0 3.44 0.931 4.699 11.137 14.989 c 12.843 12.993 12.843 12.962 12.843 17.08 c 0.031 2.703 -0.403 3.225 -3.04 3.747 c -4.312 0.86 -11.54 -0.952 -15.387 -3.901 c -3.692 -2.826 -7.04 -3.194 -7.942 -0.891 c -1.179 3.102 -0.589 27.337 0.838 34.12 c 0.776 3.778 1.737 10.32 2.141 14.59 c 0.589 6.635 0.434 8.02 -1.055 9.706 c -2.73 3.01 -7.911 4.239 -18.396 4.392 c -11.664 0.154 -16.1 -0.706 -19.358 -3.717 l -2.482 -2.304 l 0.465 -21.439 c 0.589 -25.31 0.807 -24.695 -8.438 -22.945 c -13.246 2.488 -25.13 3.041 -32.635 1.536 c -29.657 -5.959 -32.17 -6.297 -32.914 -4.331 c -0.279 0.737 0.31 6.05 1.334 11.825 c 1.024 5.775 2.172 16.187 2.544 23.16 l 0.651 12.686 l -3.35 2.027 c -8.655 3.502 -16.01 1.628 -25.966 3.102 c -4.995 1.044 -7.6 1.659 -9.989 -2.242 m 33.876 -3.44 c 2.327 -1.474 2.327 -1.689 1.644 -12.133 c -0.651 -10.228 -1.613 -16.341 -4.933 -31.668 c -2.047 -9.522 -1.551 -9.983 8.934 -7.955 c 4.405 0.829 9.586 1.935 11.571 2.488 c 20.444 5.498 45.48 5.04 57.2 -1.075 c 2.078 -1.075 4.188 -1.966 4.746 -1.966 c 1.055 0 1.334 3.317 0.372 4.269 c -0.341 0.338 -0.682 11.12 -0.807 23.958 l -0.186 23.344 c 6.577 3.44 25.13 5.59 30.06 1.812 c 2.265 -5.897 3.785 -8.846 1.396 -22.361 c -2.42 -13.699 -2.606 -35.538 -0.31 -38.794 c 2.11 -3.041 5.15 -2.795 10.982 0.952 c 3.319 2.089 6.266 3.194 8.965 3.256 c 3.692 0.061 3.971 -0.123 3.971 -2.642 c 0 -2.15 -2.389 -5.16 -10.858 -13.761 c -5.987 -6.05 -11.416 -11.03 -12.04 -11.03 c -0.62 0 -3.381 1.474 -6.111 3.256 c -13.06 8.508 -25.872 11.58 -53.978 12.87 c -22.46 3.594 -30.743 -0.737 -48.612 -4.515 c -13.34 -2.795 -34.652 -13.12 -44.951 -21.777 c -2.513 -2.119 -4.995 -3.839 -5.491 -3.839 c -0.527 0 -6.08 -2.58 -12.378 -5.744 c -10.175 -5.099 -12.254 -5.775 -18.644 -6.082 c -14.798 -0.768 -22.801 3.87 -29.32 16.894 c -3.443 6.911 -3.971 12.286 -1.551 15.726 c 1.923 2.734 4.064 2.795 7.942 0.215 c 2.947 -1.966 6.515 -2.672 6.515 -1.29 c -1.117 2.304 -7.135 6.88 -4.995 8.385 c 2.358 1.597 15.883 0.399 20.971 -1.904 c 7.414 -3.317 20.878 -7.187 25.03 -7.187 c 2.141 0 6.266 0.491 9.183 1.136 c 6.701 1.413 12.967 7.249 14.922 13.883 c 1.675 5.744 1.706 22.269 0.031 36.982 c -2.203 19.259 -2.451 24.572 -1.241 26.845 c 5.46 2.457 25.531 0.369 31.953 -0.553 m -101.5 -89.75 c -0.745 -1.997 0.372 -3.563 2.637 -3.563 c 2.482 0 8.283 1.321 6.794 3.133 c -1.892 1.259 -8.717 2.089 -9.431 0.43 m 162.93 16.09 c 0.279 -0.676 -0.714 -5.04 -2.172 -9.645 l -2.668 -8.385 l -9.989 -0.092 c -9.152 -0.092 -10.454 -0.338 -15.976 -3.256 c -6.204 -3.256 -17.838 -6.727 -19.916 -5.928 c -0.651 0.246 -1.768 2.427 -2.482 4.822 c -2.792 9.43 -9.896 20.457 -12.13 18.18 c -0.838 -0.799 0.496 -4.761 2.575 -9.03 c 2.203 -4.484 2.854 -7.28 2.916 -12.286 l 0.031 -6.481 c -4.808 -1.874 -16.256 -10.628 -19.854 -6.696 c -4.281 5.314 -4.995 12.931 -10.641 17.293 c -1.644 1.229 -2.978 2.734 -2.978 3.348 c 0 2.611 17.06 10.812 30.991 14.897 c 16.01 4.669 19.792 5.129 41.17 4.822 c 15.511 -0.215 20.754 -0.614 21.13 -1.566 m 32.26 -16.74 c -2.978 -3.225 -5.708 -6.819 -6.08 -7.986 c -9.834 -2.396 -13.495 1.628 -24.973 5.713 c 0.093 8.109 1.396 13.607 4.467 20.61 l 4.777 -0.676 c 13.09 -4.362 34.838 -3.502 21.809 -17.661 m 15.17 1.351 c 3.102 -4.208 7.942 -10.07 5.832 -13.945 c -2.047 -3.778 -4.095 -6.297 -5.119 -6.297 c -0.434 0 -1.83 0.952 -3.102 2.119 c -3.785 3.502 -9.772 3.532 -13.12 7.06 c -0.31 1.444 4.25 8.785 7.756 12.563 c 2.916 3.102 4.405 2.826 7.756 -1.505 m -141.96 -9.338 c 3.102 -2.887 9.214 -14.59 9.214 -17.569 c -3.04 -3.409 -6.577 -4.607 -10.858 -6.696 l -6.515 6.911 c -3.599 3.809 -6.546 7.832 -6.577 8.908 c -0.031 2.027 8.562 11.518 10.423 11.518 c 0.558 0 2.513 -1.382 4.312 -3.072 m 86.86 0.307 c 1.179 -0.768 1.799 -10.873 1.52 -24.88 c -0.124 -6.696 -0.465 -8.262 -1.892 -8.846 c -2.854 -1.198 -35.613 -2.396 -36.885 -1.351 c -1.241 0.983 -3.816 10.443 -4.901 17.999 c -0.62 4.3 -0.465 4.822 1.954 6.42 c 1.458 0.952 4.312 2.058 6.36 2.488 c 5.491 1.106 14.363 4.669 17.217 6.88 c 1.861 1.474 4.126 1.966 8.996 1.997 c 3.568 0.031 7.01 -0.307 7.631 -0.706 m 27.61 -8.6 c 2.11 -0.676 2.141 -2.15 0.31 -15.02 c -1.551 -10.965 -2.978 -13.515 -6.484 -11.641 c -1.21 0.645 -4.964 1.474 -8.376 1.843 l -6.204 0.706 l 0.31 11.979 c 0.372 15.419 0.962 19.504 2.854 19.504 c 6.422 -1.812 11.11 -4.914 17.59 -7.372 m 22.12 -4.331 c 3.692 -2.365 3.847 -2.672 3.226 -6.45 c -1.241 -7.74 -11.726 -25.832 -14.984 -25.832 c -0.651 0 -2.699 1.536 -4.529 3.409 l -3.319 3.44 l 1.582 8.324 c 1.923 5.867 1.024 13.146 4.312 18.583 c 1.21 1.935 1.954 2.15 5.615 1.628 c 2.327 -0.338 5.987 -1.72 8.097 -3.102 m -97.38 -8.539 c 1.148 -3.993 2.978 -9.245 4.095 -11.641 c 1.117 -2.427 1.675 -4.699 1.241 -5.099 c -6.08 -1.474 -12.285 -5.775 -17.807 -6.665 c -1.892 0.737 -9.617 14.436 -10.206 18.18 c -0.651 3.962 0.9 6.45 4.064 6.542 c 1.179 0.031 4.591 1.321 7.631 2.887 c 8.283 4.269 8.593 4.147 10.982 -4.208 m -26.431 -7.249 c 0.714 -2.764 2.668 -7.925 4.374 -11.518 c 1.675 -3.563 3.071 -7.03 3.071 -7.679 c 0 -1.72 -6.856 -3.44 -9.06 -2.273 c -1.892 1.014 -10.951 18.675 -10.951 21.378 c 0 1.782 7.414 5.744 9.896 5.314 c 0.776 -0.123 1.954 -2.488 2.668 -5.222 m 92.54 -10.658 c 1.892 -0.645 3.723 -1.659 4.126 -2.242 c -0.931 -7.372 -7.445 -12.163 -10.206 -18.368 c 0 -3.01 -17.09 -16.494 -18.768 -14.805 c 2.668 9.307 4.777 26.08 13.184 34.862 c 1.985 1.966 6.825 2.212 11.664 0.553 m -18.12 -1.597 c -0.062 -4.515 -2.482 -11.61 -7.135 -20.764 c -5.925 -11.733 -9.09 -15.481 -12.998 -15.481 c -3.909 0 -4.591 1.597 -11.354 26.508 c -2.606 9.491 -2.978 8.877 6.02 9.706 c 6.235 0.645 13.12 1.536 18.737 1.659 c 5.832 0.092 6.763 -0.123 6.732 -1.628 m -38.964 -5.283 c 0.62 -1.136 1.52 -4.638 2.047 -7.771 c 0.496 -3.133 2.327 -9.215 4.064 -13.484 c 1.706 -4.269 2.823 -8.08 2.482 -8.447 c -0.372 -0.369 -3.164 0.676 -6.235 2.273 c -5.274 2.795 -13.867 9.43 -17.714 18.798 c -1.985 4.822 -6.266 5.099 0.651 5.252 c 6.825 3.87 12.13 7.925 14.704 3.379 m 71.16 -0.614 c 2.575 -2.334 2.327 -3.563 -1.923 -9.46 c -8.19 -11.395 -15.08 -17.385 -22.243 -19.382 c 2.637 4.607 11.354 13.484 14.456 19.597 c 2.482 4.976 4.746 9.46 5.088 9.952 c 0.838 1.413 2.575 1.136 4.622 -0.706 m -89.65 -13.453 c 9.4 -11.211 9.865 -11.825 9.276 -12.44 c -1.148 -1.136 -11.85 5.222 -20.909 12.409 c -3.474 2.764 -3.412 5.252 0.124 6.235 c 4.746 1.321 5.584 0.86 11.509 -6.205" transform="matrix(0.12592 0 0 0.12718 10.432 30.53)" fill="#516167" stroke="#516167"/></svg>