<svg xmlns="http://www.w3.org/2000/svg" viewBox="0 0 48 48"><path d="m 0.555 29.348 c 2.977 19.508 29.414 24.73 41.08 10.805 c 10.277 -10.344 7.719 -30.15 -4.883 -36.938 c -14.477 -9.08 -35.566 2.148 -36.719 20.227 c -0.117 1.984 0.047 3.984 0.52 5.906" fill="#b7d09c"/><path d="m 19.754 47.566 c -8.984 -1.617 -15.703 -7.02 -18.19 -14.625 c -1.203 -3.676 -1.699 -7.734 -1.305 -10.715 c 0.246 -1.863 0.73 -3.992 0.965 -4.238 c 0.078 -0.082 0.883 0.34 1.789 0.938 c 4.117 2.723 9.32 4.539 14.789 5.164 c 2.57 0.293 7.832 0.137 10.328 -0.309 c 6.594 -1.18 12.344 -3.988 16.613 -8.125 c 1.5 -1.453 1.406 -1.484 2.059 0.727 c 0.945 3.191 1.27 7.637 0.813 11.11 c -1.039 7.906 -7.01 15.594 -14.496 18.648 c -2.746 1.121 -4.957 1.539 -8.59 1.621 c -2.238 0.047 -3.789 -0.012 -4.773 -0.191" fill="#43622e"/><g fill="#fff"><path d="m 29.609 35.531 h 8.961 v 2.145 h -8.961"/><path d="m 29.73 32.29 h 8.961 v 2.145 h -8.961"/><path d="m 29.73 29.16 h 8.961 v 2.145 h -8.961"/><path d="m 19.03 32.16 h 8.961 v 2.145 h -8.961"/><path d="m 19.15 35.531 h 8.961 v 2.145 h -8.961"/><path d="m 8.93 35.41 h 8.965 v 2.145 h -8.965"/><path d="m 8.93 32.16 h 8.965 v 2.145 h -8.965"/><path d="m 8.813 28.918 h 8.961 v 2.145 h -8.961"/><path d="m 8.93 25.793 h 8.965 v 2.145 h -8.965"/><path d="m 8.93 22.547 h 8.965 v 2.145 h -8.965"/></g><g fill="#43622e"><path d="m 8.93 19.543 h 8.965 v 2.141 h -8.965"/><path d="m 8.813 16.297 h 8.961 v 2.141 h -8.961"/><path d="m 8.813 13.05 h 8.961 v 2.141 h -8.961"/></g></svg>