<svg xmlns="http://www.w3.org/2000/svg" viewBox="0 0 48 48"><path d="m 39.809 39.793 c 24.355 -19.66 -11.301 -55.15 -32.852 -32.48 c -21.598 19.512 12.11 57.38 32.852 32.48" fill="#a9a9a9"/><path d="m 12.785 13.555 h 12.582 c 0.492 0 0.891 0.477 0.891 1.066 v 20.422 c 0 0.59 -0.398 1.063 -0.891 1.063 h -12.582 c -0.492 0 -0.891 -0.473 -0.891 -1.063 v -20.422 c 0 -0.59 0.398 -1.066 0.891 -1.066" fill="#5c7580"/><path d="m 14.793 16.309 h 7.949 c 0.492 0 0.891 0.477 0.891 1.063 v 15.82 c 0 0.586 -0.398 1.063 -0.891 1.063 h -7.949 c -0.492 0 -0.891 -0.477 -0.891 -1.063 v -15.82 c 0 -0.586 0.398 -1.063 0.891 -1.063" fill="#4c626b"/><path d="m 17.922 26.676 c -0.707 -0.313 -1.078 -0.781 -1.203 -1.52 c -0.145 -0.871 0.277 -1.617 1.137 -2.02 c 0.73 -0.34 1.129 -0.246 1.855 0.434 c 0.445 0.418 0.738 0.492 2.137 0.543 l 1.621 0.059 c 0 0.469 0.102 1.145 0.102 1.617 l -1.559 0.109 c -1.301 0.094 -1.668 -0.117 -2.406 0.402 c -0.922 0.648 -1.012 0.668 -1.684 0.371" fill="#fff"/><path d="m 24.06 11.547 h 12.582 c 0.492 0 0.891 0.477 0.891 1.063 v 20.734 c 0 0.59 -0.398 1.063 -0.891 1.063 h -12.582 c -0.492 0 -0.891 -0.473 -0.891 -1.063 v -20.734 c 0 -0.586 0.398 -1.063 0.891 -1.063" fill="#7a929d"/><path d="m 26.22 14.484 h 8.723 c 0.492 0 0.891 0.473 0.891 1.063 v 15.48 c 0 0.586 -0.398 1.063 -0.891 1.063 h -8.723 c -0.492 0 -0.891 -0.477 -0.891 -1.063 v -15.48 c 0 -0.59 0.398 -1.063 0.891 -1.063" fill="#62767f"/><path d="m 29.1 26.352 c -0.273 -0.422 -0.258 -0.453 0.438 -1.266 l 0.719 -0.832 c -2.344 0.18 -4.988 0.066 -7.04 0.047 c 0 -0.391 0 -1.09 0 -1.48 c 1.684 -0.121 3.402 -0.223 5.05 -0.227 c 0.945 0 1.773 -0.055 1.836 -0.117 c -0.258 -0.715 -0.883 -1.074 -1.254 -1.773 c 0.211 -0.402 0.496 -0.625 0.836 -0.949 l 1.82 1.813 l 1.824 1.813 l -1.77 1.699 c -0.973 0.934 -1.863 1.703 -1.98 1.703 c -0.113 0.004 -0.332 -0.191 -0.484 -0.43" fill="#ff9a03"/></svg>