<svg xmlns="http://www.w3.org/2000/svg" viewBox="0 0 48 48"><path d="m 32.922 45.766 c -58.36 17.789 -29.17 -77.8 10.809 -33.1 c 8.01 8.957 4.926 28.3 -10.809 33.1" fill="#ff687f"/><path d="m 16.16 37.559 c -4.648 -0.996 -2.637 -6.04 -3.59 -10.559 c -0.379 -1.797 -0.047 -2.891 0.684 -4.57 c 1.125 -2.574 0.227 -6.082 3.074 -6.922 c 1.949 -0.57 4.672 -1.344 6.742 0.27 c 0.371 0.289 4.242 -5.977 8.758 -2.113 c 1.613 1.383 1.098 4.555 2.07 6.402 c 4.785 12.535 -3.445 13.766 -17.738 17.492" fill="#fff"/><path d="m 14.336 37.898 c -0.273 -0.215 -0.594 -0.641 -0.715 -0.945 c -0.258 -0.672 -1.426 -4.863 -2.039 -7.324 c -0.754 -3.02 -0.348 -5.531 1.293 -7.996 c 0.602 -0.902 0.707 -1.23 0.711 -2.207 c 0.008 -1.473 0.543 -2.66 1.75 -3.891 c 0.977 -0.988 2.547 -1.738 3.648 -1.738 c 0.793 0 2.461 0.648 3.289 1.281 c 0.371 0.281 0.719 0.512 0.77 0.512 c 0.051 0 0.367 -0.48 0.699 -1.07 c 1.148 -2.027 2.926 -3.16 4.938 -3.148 c 1.344 0.008 2.332 0.391 3.469 1.34 c 1.371 1.152 2.191 3.43 1.793 4.98 c -0.109 0.434 -0.246 0.977 -0.305 1.211 c -0.07 0.285 0.133 0.785 0.609 1.492 c 1.184 1.75 1.578 3.242 1.484 5.617 c -0.07 1.855 -0.141 2.152 -0.84 3.594 c -0.871 1.793 -2.621 3.664 -4.242 4.543 c -1.961 0.895 -3.875 1.277 -5.973 1.867 c -3.152 0.891 -8.797 2.277 -9.277 2.277 c -0.309 0 -0.789 -0.18 -1.063 -0.395 m 9.441 -3.172 c 5.246 -1.289 6.484 -1.777 7.832 -3.086 c 1.223 -1.188 1.738 -1.984 2.281 -3.527 c 0.695 -1.977 0.613 -3.867 -0.258 -5.754 c -0.836 -1.816 -1.074 -1.977 -2.02 -1.332 c -1.051 0.723 -1.715 0.934 -2.93 0.934 c -1.32 0 -2.207 -0.285 -3.152 -1.02 c -0.406 -0.316 -0.855 -0.574 -1 -0.574 c -0.141 0.004 -0.418 0.391 -0.617 0.863 c -0.402 0.98 -1.645 2.352 -2.598 2.867 c -0.461 0.25 -1.094 0.352 -2.242 0.348 c -1.676 -0.012 -2.824 -0.434 -3.949 -1.668 c -0.301 -0.34 -0.637 -0.617 -0.742 -0.617 c -0.285 0 -0.719 0.738 -1.203 2.039 c -0.602 1.605 -0.477 4.03 0.367 7.223 c 1.148 4.352 1.289 4.777 1.66 5.109 c 0.34 0.305 0.48 0.301 2.02 -0.031 c 2.211 -0.52 4.531 -1.273 6.551 -1.773 m 0.48 -6.57 c -0.891 -0.539 -1.512 -1.402 -1.441 -2 c 0.094 -0.809 0.813 -0.777 1.453 0.059 c 0.598 0.781 1.402 1.145 2.027 0.914 c 0.617 -0.227 1.277 -1.156 1.277 -1.793 c 0 -1.102 0.551 -1.551 1.156 -0.945 c 0.344 0.344 0.297 1.676 -0.086 2.48 c -0.723 1.52 -2.938 2.168 -4.387 1.285 m -3.48 -5.27 c 1.18 -0.602 2.027 -1.805 2.148 -3.055 c 0.207 -2.172 -0.816 -3.762 -2.805 -4.34 c -1.039 -0.301 -1.238 -0.301 -2.195 -0.023 c -1.211 0.348 -1.941 1.02 -2.527 2.313 c -0.512 1.121 -0.52 1.918 -0.039 3.02 c 0.965 2.215 3.359 3.133 5.418 2.086 m -2.664 -1.336 c -0.32 -0.453 -0.242 -1.047 0.188 -1.398 c 0.5 -0.414 0.309 -0.957 -0.52 -1.477 c -0.852 -0.535 -0.988 -0.891 -0.5 -1.297 c 0.648 -0.535 3.715 0.465 3.863 1.258 c 0.035 0.195 -0.313 0.941 -0.777 1.652 c -1.121 1.707 -1.707 2.039 -2.254 1.262 m 12.715 -1.504 c 0.996 -0.695 1.934 -2.277 1.934 -3.262 c 0 -1.398 -1.316 -3.27 -2.652 -3.773 c -0.859 -0.32 -2.344 -0.246 -3.258 0.172 c -1.016 0.457 -1.773 1.414 -2.105 2.656 c -0.914 3.406 3.176 6.234 6.082 4.207 m -2.555 -1.703 c -1.359 -0.691 -1.898 -1.109 -1.898 -1.473 c 0 -0.496 2.02 -2.676 2.473 -2.676 c 0.914 0 1.219 0.867 0.523 1.492 c -0.613 0.555 -0.504 1.074 0.293 1.406 c 0.91 0.379 1.184 0.887 0.785 1.453 c -0.395 0.563 -0.738 0.531 -2.176 -0.203"/></svg>