<svg xmlns="http://www.w3.org/2000/svg" viewBox="0 0 48 48"><path d="m 39.809 8.492 c 24.355 19.52 -11.301 54.758 -32.852 32.25 c -21.598 -19.371 12.11 -56.973 32.852 -32.25" fill="#1c0556"/><path d="m 9.02 40.895 c 1.02 -3.098 2.832 -5.457 3.613 -8.742 c 0.09 -0.461 -0.168 -1.117 -1.098 -2.816 c -2 -3.664 -2.203 -3.598 -1.363 -6.637 c 0.613 -2.227 0.859 -5.102 0.43 -6.746 c -0.137 -0.523 -0.207 -1 -0.156 -1.055 c 0.051 -0.055 0.539 0.305 1.082 0.793 c 0.543 0.488 1.113 0.891 1.27 0.891 c 0.352 0 1.266 -1.113 1.789 -2.18 c 0.359 -0.738 0.836 -2.313 1.152 -3.816 c 0.16 -0.758 0.039 -1.484 0.504 -0.742 c 0.301 0.48 0.777 2.051 0.879 5.723 c 0.121 4.355 0.352 5.746 0.953 5.746 c 0.113 0 0.285 -0.875 0.375 -1.941 c 0.215 -2.516 0.688 -3.781 2.461 -6.582 c 0.797 -1.262 1.766 -2.953 2.145 -3.762 c 0.383 -0.805 0.742 -1.461 0.805 -1.453 c 0.063 0.008 0.398 0.625 0.742 1.375 c 0.348 0.75 1.238 2.305 1.984 3.453 c 1.758 2.719 2.461 4.352 2.754 6.379 c 0.363 2.535 0.434 2.797 0.633 2.418 c 0.285 -0.551 0.43 -1.918 0.629 -6.05 c 0.105 -2.18 0.551 -4.949 0.672 -5.281 c 0.391 -1.07 0.543 -0.02 0.91 1.672 c 0.512 2.355 1.98 5.04 2.754 5.04 c 0.156 0 0.73 -0.402 1.273 -0.891 c 0.539 -0.488 1.023 -0.848 1.074 -0.797 c 0.051 0.051 -0.07 0.758 -0.266 1.574 c -0.414 1.719 0.051 3.555 0.879 6.695 c 0.484 1.848 0.16 1.703 -0.199 2.887 c -0.203 0.66 -0.895 2.125 -1.539 3.258 c -0.934 1.648 -1.141 2.184 -1.043 2.695 c 1.211 3.01 2.168 5.359 3.453 8.43 c -9.73 6.895 -19.262 7.03 -29.551 0.461" fill="#8d53e5"/><g fill="#c8c510"><path d="m 14.805 29.3 c -0.637 -1.254 -1.16 -2.395 -1.16 -2.543 c 0 -0.145 1.02 -1.266 2.27 -2.488 l 2.27 -2.219 h 1.84 c 1.398 0 1.84 0.066 1.84 0.277 c 0 0.383 -0.715 2.398 -1.16 3.258 c -0.465 0.91 -4.336 5.988 -4.563 5.988 c -0.098 0 -0.695 -1.023 -1.336 -2.273"/><path d="m 28.617 28.648 c -2.125 -2.848 -3.355 -5.145 -3.375 -6.309 c -0.004 -0.449 0.066 -0.469 1.746 -0.469 h 1.75 l 2.359 2.191 c 1.297 1.207 2.359 2.313 2.359 2.461 c 0 0.363 -2.32 5.082 -2.496 5.074 c -0.078 -0.004 -1.129 -1.332 -2.344 -2.949"/></g><g fill="#6235cf"><path d="m 9.617 24.09 c -0.066 -0.207 0.164 -1.293 0.539 -2.516 c 0.773 -2.523 0.836 -3.77 0.277 -5.645 c -0.211 -0.703 -0.344 -1.32 -0.293 -1.371 c 0.051 -0.051 0.594 0.375 1.211 0.941 c 0.613 0.566 1.199 1.027 1.297 1.027 c 0.207 0 1.438 -1.766 1.992 -2.855 c 0.207 -0.406 0.508 -1.434 0.668 -2.285 c 0.16 -0.852 0.328 -1.586 0.375 -1.633 c 0.207 -0.207 0.477 0.219 0.77 1.199 c 0.277 0.945 0.289 1.359 0.094 3.93 c -0.297 3.926 -0.188 3.676 -1.59 3.676 h -1.16 l -0.109 1.43 c -0.176 2.227 -0.484 3.898 -0.785 4.199 c -0.191 0.191 -0.688 0.27 -1.719 0.27 c -1.285 0 -1.465 -0.039 -1.566 -0.367"/><path d="m 38.07 24.22 c 0.066 -0.215 -0.168 -1.328 -0.543 -2.582 c -0.773 -2.594 -0.832 -3.871 -0.273 -5.793 c 0.211 -0.727 0.34 -1.359 0.293 -1.41 c -0.051 -0.051 -0.598 0.383 -1.211 0.965 c -0.617 0.582 -1.203 1.059 -1.301 1.059 c -0.207 0 -1.438 -1.816 -1.992 -2.937 c -0.203 -0.414 -0.504 -1.469 -0.664 -2.344 c -0.16 -0.871 -0.332 -1.625 -0.379 -1.676 c -0.203 -0.211 -0.477 0.227 -0.766 1.234 c -0.281 0.969 -0.293 1.391 -0.098 4.03 c 0.297 4.03 0.191 3.773 1.59 3.773 h 1.164 l 0.109 1.465 c 0.172 2.289 0.484 4.01 0.781 4.313 c 0.195 0.199 0.688 0.281 1.723 0.281 c 1.285 0 1.461 -0.043 1.566 -0.379"/><path d="m 23.902 14.555 v -6.836 l 0.887 1.613 c 0.488 0.891 1.324 2.328 1.863 3.203 c 1.563 2.531 2.254 4.18 2.695 6.426 c 0.227 1.137 0.41 2.148 0.41 2.246 c -2.059 0.285 -3.594 0.184 -5.859 0.184 c 0 -2.281 0 -4.559 0.004 -6.836"/></g><g fill="#38b9db"><path d="m 10.281 40.758 c -0.285 -1.23 1.328 -3.719 1.781 -4.699 c 2.301 -4.945 2.207 -4.758 2.418 -4.785 c 0.133 -0.012 0.215 0.027 0.297 0.145 c 0.105 0.156 0.098 0.199 -0.074 0.664 c -0.102 0.27 -0.922 2.152 -1.82 4.176 c -0.898 2.023 -1.723 3.918 -1.828 4.207 c -0.105 0.293 -0.215 0.527 -0.238 0.527 c -0.023 -0.004 -0.266 -0.105 -0.535 -0.234"/><path d="m 11.844 41.22 c 0.23 -0.18 0.418 -0.551 1.648 -3.289 c 2.168 -4.82 2.531 -5.527 2.832 -5.484 c 0.484 0.074 0.379 0.375 -1.816 5.277 c -1.313 2.934 -1.656 3.742 -1.656 3.883 c -0.215 0.219 -1.266 -0.184 -1.01 -0.387"/><path d="m 23.277 34.09 c -0.438 -0.055 -1.219 -0.266 -1.586 -0.43 c -0.496 -0.227 -1.105 -0.727 -1.887 -1.551 c -0.609 -0.648 -0.629 -0.676 -0.59 -0.949 c 0.051 -0.402 0.422 -0.891 1.094 -1.441 c 1.01 -0.832 1.746 -1.211 2.77 -1.426 c 1.348 -0.285 2.953 0.113 4.145 1.031 c 0.66 0.508 1.457 1.297 1.586 1.57 c 0.102 0.215 0.102 0.25 -0.043 0.508 c -0.176 0.32 -1.242 1.395 -1.836 1.852 c -0.219 0.168 -0.594 0.387 -0.828 0.484 c -0.75 0.313 -1.941 0.461 -2.824 0.352 m 1.727 -0.863 c 0.695 -0.148 1.281 -0.43 1.992 -0.969 c 0.613 -0.465 0.938 -0.836 0.938 -1.082 c 0 -0.348 -1.078 -1.297 -1.957 -1.727 c -1.301 -0.633 -2.711 -0.605 -4.047 0.082 c -1.113 0.574 -1.883 1.262 -1.883 1.688 c 0 0.555 1.535 1.695 2.699 2.01 c 0.523 0.141 1.586 0.141 2.258 0"/><path d="m 23.18 32.594 c -0.43 -0.195 -0.582 -0.344 -0.742 -0.719 c -0.141 -0.332 -0.148 -1.07 -0.012 -1.387 c 0.25 -0.586 1.309 -1.082 1.941 -0.91 c 0.367 0.098 0.969 0.664 1.117 1.043 c 0.188 0.484 0.078 1.129 -0.277 1.645 c -0.336 0.488 -1.332 0.648 -2.027 0.328 m 1.262 -0.805 c 0.281 -0.293 0.355 -0.574 0.227 -0.875 c -0.199 -0.457 -0.711 -0.684 -1.141 -0.508 c -0.293 0.121 -0.387 0.305 -0.383 0.738 c 0.09 0.809 0.813 1.141 1.297 0.645"/><path d="m 21.25 41.34 c 0.301 -0.387 0.551 -0.742 0.551 -0.793 c 0 -0.055 -0.109 -0.367 -0.242 -0.699 c -0.324 -0.801 -0.32 -1.086 0.039 -2.074 l 0.297 -0.816 l -0.234 -0.27 c -0.746 -0.871 -0.68 -1.477 0.113 -1.027 c 0.281 0.16 0.859 0.805 1.09 1.219 c 0.164 0.289 0.145 0.375 -0.223 1.133 c -0.371 0.758 -0.383 1.137 -0.039 1.684 c 0.359 0.582 0.309 0.957 -0.242 1.746 l -0.414 0.598 h -1.25"/><path d="m 23.496 39.26 c -0.527 -0.684 -0.328 -1.273 0.426 -1.273 c 0.879 0 1.191 0.73 0.547 1.285 c -0.426 0.367 -0.684 0.367 -0.973 -0.008"/><path d="m 25.957 41.602 c -0.27 -0.313 -0.668 -0.965 -0.668 -1.098 c 0 -0.043 0.113 -0.375 0.254 -0.742 c 0.336 -0.879 0.328 -1.145 -0.051 -1.813 c -0.484 -0.855 -0.418 -1.094 0.547 -1.941 c 0.496 -0.438 0.617 -0.508 0.828 -0.488 c 0.223 0.02 0.246 0.047 0.234 0.27 c -0.008 0.156 -0.148 0.406 -0.395 0.711 l -0.379 0.465 l 0.277 0.699 c 0.434 1.094 0.438 1.152 0.086 2.078 l -0.309 0.805 l 0.496 0.59 c 0.273 0.324 0.527 0.633 0.563 0.68 c 0.051 0.07 -0.086 0.09 -0.574 0.09 h -0.645"/><path d="m 35.28 41.621 c -0.148 -0.523 -0.766 -1.984 -2.273 -5.363 c -0.605 -1.363 -1.172 -2.652 -1.258 -2.867 c -0.188 -0.457 -0.18 -0.906 0.012 -0.941 c 0.348 -0.063 0.855 0.883 2.891 5.383 c 1.492 3.305 1.609 3.539 1.766 3.543 c -0.262 0.191 -0.793 0.34 -1.137 0.246"/><path d="m 37.11 40.707 c -0.051 -0.121 -0.758 -1.754 -1.57 -3.625 c -2.238 -5.145 -2.313 -5.332 -2.195 -5.66 c 0.086 -0.246 0.176 -0.262 0.41 -0.063 c 0.234 0.199 0.371 0.492 2.602 5.52 l 1.629 3.676 c -0.242 0.133 -0.484 0.262 -0.73 0.371 c -0.027 0 -0.094 -0.098 -0.145 -0.219"/></g></svg>