<svg xmlns="http://www.w3.org/2000/svg" viewBox="0 0 48 48"><path d="m 42.641 35.82 c 10.965 -11.08 2.938 -21.316 -5.781 -29.723 c -7.102 -6.848 -13.684 -7.16 -20.66 -2.621 c -18.227 11.848 -24.984 27.23 3.285 43.34 c 9.324 3.969 17.992 -4.406 23.16 -10.992" fill="#ffdeac"/><path d="m 24.453 40.504 c -0.09 -0.152 -0.215 -0.625 -0.277 -1.055 c -0.094 -0.633 -0.047 -0.906 0.258 -1.477 c 0.297 -0.559 0.348 -0.84 0.258 -1.398 c -0.109 -0.656 -0.68 -1.422 -1.063 -1.422 c -0.145 0 -0.559 0.254 -2.398 1.453 c -0.559 0.363 -0.656 0.383 -1.07 0.195 c -0.25 -0.109 -0.512 -0.305 -0.578 -0.43 c -0.332 -0.941 -1.273 -1.723 -1.293 -2.754 c 0.055 -0.152 0.434 -0.211 1.398 -0.219 c 1.113 -0.008 1.496 -0.082 2.41 -0.469 c 0.598 -0.258 1.191 -0.582 1.32 -0.723 c 0.195 -0.219 0.215 -0.926 0.121 -4.176 c -0.129 -4.52 -0.406 -8.09 -0.648 -8.363 c -0.23 -0.262 -1.043 -0.234 -3.383 0.117 c -1.105 0.164 -2.137 0.297 -2.297 0.301 c -0.422 0.004 -1.797 -1.254 -1.797 -1.645 c 0 -0.438 0.695 -0.59 1.578 -0.34 c 1.133 0.316 1.914 0.355 3.246 0.168 c 1.566 -0.219 1.859 -0.293 1.859 -0.469 c 0 -0.078 -0.883 -0.156 -1.965 -0.18 c -1.836 -0.043 -1.965 -0.063 -2.01 -0.355 c -0.137 -0.859 0.914 -1.066 6.648 -1.305 c 5.973 -0.25 9.734 -0.008 10.484 0.676 c 0.43 0.391 0.098 1 -1.203 2.184 c -1.48 1.348 -1.875 1.43 -2.512 0.508 c -0.508 -0.73 -0.871 -0.84 -2.813 -0.84 c -1.805 0 -1.875 0.063 -2.027 1.797 c -0.063 0.688 -0.18 1.766 -0.262 2.398 c -0.453 3.527 -0.395 6.992 0.121 6.992 c 0.141 0 0.691 -0.414 1.227 -0.922 c 0.82 -0.773 1.043 -1.109 1.422 -2.148 c 0.539 -1.469 0.512 -2.621 -0.094 -4.328 c -0.398 -1.121 -0.371 -1.582 0.094 -1.582 c 0.656 0 1.184 0.82 1.961 3.047 c 1.066 3.055 1.09 3.262 0.48 4.105 c -0.273 0.379 -1.598 1.738 -2.941 3.03 c -1.344 1.285 -2.512 2.457 -2.594 2.594 c -0.082 0.141 -0.234 1.145 -0.336 2.227 c -0.375 3.961 -0.469 4.637 -0.672 4.859 c -0.277 0.301 -0.457 0.289 -0.652 -0.051 m 8.848 -3.742 c -0.109 -0.117 -0.172 -0.324 -0.145 -0.457 c 0.027 -0.129 0.762 -0.875 0.414 -0.895 c -0.805 -0.191 -1.805 0.352 -0.926 -0.512 c 0.246 -0.234 0.262 -0.922 0.328 -1.117 c 0.105 -0.32 0.418 -0.016 0.961 0.078 c 0.793 0.137 1.418 0.219 1.074 0.488 c -0.773 0.613 -0.078 0.715 0.207 0.961 c 0.527 0.449 0.523 0.578 -0.023 0.766 c -0.242 0.086 -0.781 -0.176 -0.934 0.527 c -0.148 0.68 -0.688 0.457 -0.957 0.16 m -20.03 -0.191 c -0.09 -0.152 -0.121 -0.496 -0.078 -0.77 c 0.105 -0.633 -0.074 -1.297 -0.336 -1.219 c -0.113 0.035 -0.242 0.332 -0.285 0.66 c -0.059 0.395 -0.168 0.598 -0.336 0.598 c -0.531 0 -0.273 -2.305 0.273 -2.469 c 0.105 -0.031 0.305 0.047 0.449 0.176 c 0.324 0.297 0.434 0.297 0.805 -0.012 c 0.629 -0.52 1.063 0.18 0.641 1.039 c -0.094 0.195 -0.227 0.762 -0.293 1.262 c -0.09 0.676 -0.195 0.926 -0.402 0.961 c -0.152 0.027 -0.352 -0.074 -0.438 -0.227 m 7.211 -4.652 c -0.242 -0.355 -0.688 -0.918 -0.984 -1.254 c -0.297 -0.336 -1.039 -1.277 -1.645 -2.098 c -1.211 -1.625 -1.34 -2.121 -0.832 -3.098 c 0.281 -0.539 1.043 -1.023 1.324 -0.844 c 0.305 0.203 0.875 1.484 1.055 2.375 c 0.199 0.98 1.258 2.766 1.93 3.246 c 0.418 0.301 0.934 1.246 0.934 1.715 c 0 0.168 -0.203 0.336 -0.527 0.438 c -0.75 0.238 -0.762 0.234 -1.254 -0.48 m 1.227 -16.551 c -0.871 -0.238 -0.949 -0.387 -0.949 -1.816 c 0 -0.922 -0.102 -1.594 -0.328 -2.195 l -0.328 -0.867 c 0.332 -0.344 1.027 -0.848 0.914 -1.301 c -0.129 -0.465 0.051 -0.816 0.414 -0.816 c 0.512 0 1.691 2.594 2.516 5.523 c 0.41 1.469 0.316 1.633 -0.914 1.613 c -0.469 -0.004 -1.066 -0.07 -1.324 -0.141 m 11.04 -3.949 c 0 -0.145 0.898 -1.254 1.129 -1.461 c 0.348 -0.316 0.477 -0.352 0.762 -0.211 c 0.438 0.211 0.949 0.656 0.422 0.723 c -0.223 0.031 -1.148 0.016 -1.309 0.145 c -0.266 0.219 -1 1.039 -1 0.805" fill="#fd0000"/></svg>