<svg xmlns="http://www.w3.org/2000/svg" viewBox="0 0 48 48"><path d="m 4.68 38.11 c -23.988 -36.09 52.52 -58.31 42.39 -11.664 c -4.316 19.281 -31.387 30.98 -42.39 11.664" fill="#8b5567"/><g fill="#c98986" stroke="#c98986"><path d="m 307.92 42.724 c -3.01 -1.347 -7.888 -4.969 -10.835 -8.04 c -4.983 -5.221 -6.403 -17.98 -3.329 -19.938 c 2.905 -1.811 5.704 11.222 13.295 18.675 c 4.792 4.716 10.877 6.19 12.955 6.253 c 2.226 0.063 7.697 -1.579 14.14 -7.6 c 10.156 -9.432 10.814 -10.527 9.944 -16.422 c -0.806 -5.6 -0.382 -6.506 3.88 -8.148 c 6.594 -2.526 6.891 -9.58 0.509 -11.264 c -2.523 -0.653 -11.726 -7.811 -11.704 -8.548 c 0.021 -0.674 13.613 2.526 17.03 -0.253 c 8.291 -6.695 17.747 -15.07 19.931 -17.959 c 2.248 -2.99 -2.672 -16.527 -4.41 -22.633 c -2.862 -9.959 10.708 4.211 16.284 4.758 c 5.555 0.568 6.107 0.084 10.05 -8.695 c 2.29 -5.116 4.198 -10.401 4.241 -11.748 c 0.127 -3.39 -5.407 -14.633 -7.23 -14.696 c -0.827 -0.021 -11.535 -2.905 -11.45 -5.2 c 0.148 -3.874 10.602 -3.03 15.691 -1.242 c 7.23 2.569 12.595 11.517 12.277 20.464 c -0.148 4.169 -2.884 12.485 -6.552 19.917 l -6.319 12.738 l 3.647 7.07 c 8.418 16.296 8.354 28.13 -0.191 37.918 c -5.343 6.106 -11.832 8.19 -29.664 9.453 l -12.849 0.926 l -8.04 9.832 c -13.485 16.527 -26.42 21.03 -41.3 14.38 m 77.5 -34.34 c 9.03 -3.453 12 -7.264 12.298 -15.833 c 0.254 -7.095 -6 -21.58 -9.351 -21.686 c -1.272 -0.021 -6.573 3.832 -11.768 8.59 c -7.421 6.8 -10.07 10.738 -12.277 18.19 c -1.548 5.242 -2.269 10.38 -1.611 11.453 c 1.866 2.99 14.02 2.611 22.709 -0.716" transform="matrix(0.18423 0 0 0.18554 -35.595 32.413)" stroke-width="3.243"/><path d="m 46.993 120.23 c -7 -15.02 -7.708 -27.15 -2.063 -36.25 c 5.5 -8.875 12.5 -12.292 27.896 -13.583 c 7.354 -0.625 14.13 -1.625 15.04 -2.229 c 0.896 -0.604 4.583 -5.729 8.167 -11.396 c 9.938 -15.625 20.19 -20.916 33.563 -17.333 c 8.333 2.229 26.583 18.375 26.583 23.5 c 0 2.229 -6.833 6.5 -7.75 4.896 c -11.688 -20.708 -25.625 -24.729 -39.21 -15.06 c -5.688 4.062 -9.125 14.354 -7.813 17.771 c 1.479 3.812 23.313 9.917 31.833 7.625 c 9.438 -2.542 11.688 3.625 4.229 8.271 c -3.25 2.02 -12.521 -0.771 -16.854 3.667 c -4.354 4.437 -3 2.104 -3.938 2.146 c -6.563 0.354 -26.458 16.15 -27.688 19.396 c -0.542 1.396 2 7.812 -0.771 8.417 c -2.771 0.604 -10.354 2.771 -16.875 7.125 c -6.5 4.375 -17.438 5.083 -17.896 5.083 c -0.458 0 -3.375 -5.417 -6.458 -12.06 m 26.563 -7.729 c 6.396 -6.521 7.563 -8.104 9.25 -16.375 c 2.688 -13.02 -0.729 -19.916 -12.271 -18.08 c -9.958 1.562 -19.458 9.771 -21.646 15.562 c -2.625 6.854 6.438 26.19 11.396 26.19 c 1.25 0 8.917 -2.854 13.271 -7.292 m 26.979 -17.729 c 9.854 -6.812 12.354 -11.396 8.896 -13.292 c -14.896 -8.125 -18.08 -2.854 -18.479 9.06 c -0.125 3.792 -1.958 12.229 9.583 4.229" transform="matrix(0.1875 0 0 0.1875 0.193 0.191)" stroke-width="3.262"/><path d="m 263.52 4.932 c -7.782 -4.084 -19.338 -17.18 -19.338 -21.917 c 0 -2.484 2.608 -9.327 5.81 -15.201 c 4.771 -8.822 6.467 -10.274 9.669 -8.316 c 3.265 2.02 3.181 2.758 -0.594 4.758 c -4.665 2.674 -13.91 18.801 -0.551 29.412 c 2.248 1.853 10.178 5.516 10.432 8.464 c 0.551 6.085 0.679 6.02 -5.428 2.8" transform="matrix(0.18423 0 0 0.18554 -35.595 32.413)" stroke-width="4.265"/></g><g fill="#fce2e2" stroke="#fce2e2" transform="matrix(0.18423 0 0 0.18554 -35.595 32.413)"><path d="m 320.86 20.343 c -1.251 -21.538 -4.071 -25.475 -15.05 -21.01 l -5.237 2.126 l -7.23 -6.821 c -3.965 -3.748 -8.312 -7.453 -9.669 -8.232 c -2.29 -1.305 -2.354 -1.874 -0.869 -7.811 c 1.951 -7.685 1.251 -10.02 -3.647 -12.08 c -4.01 -1.684 -26.547 -1.179 -31.11 0.695 c -4.834 1.979 3.244 -5.664 12.955 -12.232 c 8.566 -5.811 15.479 -8.695 32.25 -13.411 c 5.937 -1.684 7.76 -2.969 11.874 -8.443 c 12.34 -16.401 33.65 -33.16 51.52 -40.508 c 9.05 -3.727 29.24 -9.222 30.22 -8.232 c 0.912 0.905 -2.714 22.591 -5.343 31.897 c -3.01 10.738 -12.277 29.349 -18.914 38.02 c -3.265 4.253 -9.605 11.58 -14.12 16.254 c -7.951 8.295 -8.185 8.716 -8.185 15.285 c 0 12.611 -6.849 31.707 -15.606 43.54 l -3.096 4.169 l -0.763 -13.18 m 28.07 -69.836 c 3.053 -3.369 4.135 -5.79 4.135 -9.18 c 0 -17.1 -19.613 -23.707 -28.922 -9.727 c -10.687 16.06 11.81 33.22 24.787 18.906" stroke-width="2.339"/><path d="m 255.7 23.08 c 2.036 -9.243 6.06 -17.959 10.92 -23.559 c 5.789 -6.674 7.824 -6.885 6.806 -0.716 c -0.445 2.59 0.212 6.358 1.421 8.358 c 1.993 3.263 3.159 3.537 11.408 2.569 l 9.202 -1.074 l -2.862 3.832 c -5.789 7.769 -23.01 15.896 -33.714 15.896 c -3.923 0 -4.241 -0.526 -3.181 -5.306" stroke-width="3.179"/></g></svg>