<svg xmlns="http://www.w3.org/2000/svg" xmlns:xlink="http://www.w3.org/1999/xlink" viewBox="0 0 48 48"><defs><g id="5" clip-path="url(#4)"><path d="m 42.766 25.784 h 6.187 l 13.675 35.98 h -7.189 l -3.357 -8.963 h -12.567 l -3.287 8.963 h -7.189 m 21.778 -13.887 l -4.957 -14.14 l -5.168 14.14" transform="matrix(0.22224 0 0 0.21659 9.191 10.181)" stroke="#000" stroke-width="1.489"/></g><g id="8" clip-path="url(#7)"><path d="m 85.83 110.49 c -1.424 0 -2.742 -0.234 -3.972 -0.685 c -1.23 -0.469 -2.303 -1.136 -3.199 -1.948 c -0.896 -0.866 -1.599 -1.858 -2.127 -2.976 c -0.475 -1.118 -0.721 -2.345 -0.721 -3.697 c 0 -1.371 0.299 -2.651 0.896 -3.805 c 0.633 -1.19 1.494 -2.2 2.566 -3.01 c 1.125 -0.83 2.443 -1.461 3.99 -1.912 c 1.529 -0.487 3.199 -0.721 5.03 -0.721 c 1.318 0 2.584 0.108 3.814 0.325 c 1.266 0.234 2.39 0.541 3.357 0.956 v -1.677 c 0 -1.948 -0.562 -3.427 -1.687 -4.473 c -1.072 -1.046 -2.707 -1.569 -4.869 -1.569 c -1.564 0 -3.093 0.271 -4.588 0.83 c -1.494 0.559 -3.02 1.389 -4.588 2.471 l -2.303 -4.761 c 3.779 -2.507 7.839 -3.751 12.216 -3.751 c 4.218 0 7.488 1.046 9.79 3.138 c 2.355 2.056 3.533 5.03 3.533 8.963 v 9.126 c 0 0.776 0.123 1.335 0.387 1.677 c 0.299 0.343 0.773 0.523 1.406 0.559 v 6.384 c -1.266 0.252 -2.373 0.397 -3.304 0.397 c -1.424 0 -2.513 -0.325 -3.304 -0.956 c -0.738 -0.631 -1.213 -1.479 -1.406 -2.525 l -0.158 -1.623 c -1.318 1.713 -2.9 3.03 -4.763 3.914 c -1.863 0.902 -3.867 1.353 -5.994 1.353 m 2.127 -5.501 c 1.266 0 2.461 -0.216 3.586 -0.667 c 1.16 -0.451 2.056 -1.046 2.689 -1.785 c 0.826 -0.631 1.23 -1.353 1.23 -2.128 v -3.355 c -0.896 -0.343 -1.863 -0.613 -2.918 -0.794 c -1.037 -0.216 -2.039 -0.343 -3.01 -0.343 c -1.951 0 -3.533 0.451 -4.763 1.353 c -1.23 0.866 -1.846 1.966 -1.846 3.3 c 0 1.28 0.475 2.345 1.441 3.192 c 0.984 0.83 2.18 1.226 3.586 1.226" transform="matrix(0.22224 0 0 0.21659 9.191 10.181)" stroke="#000" stroke-width="1.489"/></g><g id="B" clip-path="url(#A)"><path d="m 18.695 15.766 h 1.375 l 3.039 7.793 h -1.598 l -0.746 -1.941 h -2.793 l -0.73 1.941 h -1.598 m 4.84 -3.01 l -1.102 -3.063 l -1.148 3.063"/></g><g id="E" clip-path="url(#D)"><path d="m 28.27 34.11 c -0.316 0 -0.609 -0.051 -0.883 -0.148 c -0.273 -0.102 -0.512 -0.246 -0.711 -0.422 c -0.199 -0.188 -0.355 -0.402 -0.473 -0.645 c -0.105 -0.242 -0.16 -0.508 -0.16 -0.801 c 0 -0.297 0.066 -0.574 0.199 -0.824 c 0.141 -0.258 0.332 -0.477 0.57 -0.652 c 0.25 -0.18 0.543 -0.316 0.887 -0.414 c 0.34 -0.105 0.711 -0.156 1.117 -0.156 c 0.293 0 0.574 0.023 0.848 0.07 c 0.281 0.051 0.531 0.117 0.746 0.207 v -0.363 c 0 -0.422 -0.125 -0.742 -0.375 -0.969 c -0.238 -0.227 -0.602 -0.34 -1.082 -0.34 c -0.348 0 -0.688 0.059 -1.02 0.18 c -0.332 0.121 -0.672 0.301 -1.02 0.535 l -0.512 -1.031 c 0.84 -0.543 1.742 -0.813 2.715 -0.813 c 0.938 0 1.664 0.227 2.176 0.68 c 0.523 0.445 0.785 1.09 0.785 1.941 v 1.977 c 0 0.168 0.027 0.289 0.086 0.363 c 0.066 0.074 0.172 0.113 0.313 0.121 v 1.383 c -0.281 0.055 -0.527 0.086 -0.734 0.086 c -0.316 0 -0.559 -0.07 -0.734 -0.207 c -0.164 -0.137 -0.27 -0.32 -0.313 -0.547 l -0.035 -0.352 c -0.293 0.371 -0.645 0.656 -1.059 0.848 c -0.414 0.195 -0.859 0.293 -1.332 0.293 m 0.473 -1.191 c 0.281 0 0.547 -0.047 0.797 -0.145 c 0.258 -0.098 0.457 -0.227 0.598 -0.387 c 0.184 -0.137 0.273 -0.293 0.273 -0.461 v -0.727 c -0.199 -0.074 -0.414 -0.133 -0.648 -0.172 c -0.23 -0.047 -0.453 -0.074 -0.668 -0.074 c -0.434 0 -0.785 0.098 -1.059 0.293 c -0.273 0.188 -0.41 0.426 -0.41 0.715 c 0 0.277 0.105 0.508 0.32 0.691 c 0.219 0.18 0.484 0.266 0.797 0.266"/></g><clipPath id="7"><path d="M 0,0 H48 V48 H0 z"/></clipPath><clipPath id="4"><path d="M 0,0 H48 V48 H0 z"/></clipPath><clipPath id="A"><path d="M 0,0 H48 V48 H0 z"/></clipPath><clipPath id="D"><path d="M 0,0 H48 V48 H0 z"/></clipPath><filter id="2" filterUnits="objectBoundingBox" x="0" y="0" width="48" height="48"><feColorMatrix type="matrix" in="SourceGraphic" values="0 0 0 0 1 0 0 0 0 1 0 0 0 0 1 0 0 0 1 0"/></filter><linearGradient id="0" gradientUnits="userSpaceOnUse" x1="66.53" y1="8.301" x2="66.07" y2="166.23"><stop stop-color="#f9c33f"/><stop offset="0.546" stop-color="#e7ab2c"/><stop offset="1" stop-color="#d48e14"/></linearGradient><linearGradient id="1" gradientUnits="userSpaceOnUse" y1="15.14" x2="0" y2="118.87"><stop stop-color="#fff" stop-opacity="0.502"/><stop offset="0.063" stop-color="#fff" stop-opacity="0.118"/><stop offset="0.951" stop-color="#fff" stop-opacity="0.079"/><stop offset="1" stop-color="#fff" stop-opacity="0.197"/></linearGradient><mask id="C"><g filter="url(#2)"><path fill-opacity="0.149" d="M 0,0 H48 V48 H0 z"/></g></mask><mask id="3"><g filter="url(#2)"><path fill-opacity="0.071" d="M 0,0 H48 V48 H0 z"/></g></mask><mask id="9"><g filter="url(#2)"><path fill-opacity="0.149" d="M 0,0 H48 V48 H0 z"/></g></mask><mask id="6"><g filter="url(#2)"><path fill-opacity="0.071" d="M 0,0 H48 V48 H0 z"/></g></mask></defs><path d="m 2.301 35.36 c 9.449 22.496 46.03 12.461 45.789 -12.04 c 0.367 -22.27 -28.719 -30.715 -41.469 -14.852 c -6.375 6.859 -8.605 18.227 -4.32 26.898" fill="#69552f" fill-opacity="0.996"/><g stroke-linejoin="round" stroke-linecap="round"><path d="m 17.577 15.502 h 92.86 c 2.795 0 5.067 2.359 5.067 5.262 v 92.47 c 0 2.903 -2.271 5.262 -5.067 5.262 h -92.86 c -2.813 0 -5.084 -2.359 -5.084 -5.262 v -92.47 c 0 -2.903 2.271 -5.262 5.084 -5.262" transform="matrix(0.22359 0 0 0.21528 9.836 10.299)" stroke-opacity="0.502" fill="url(#0)" stroke="#ac5f00"/><path d="m 18.555 16.5 c -2.795 0 -5.05 2.25 -5.05 5.04 v 90.91 c 0 2.794 2.254 5.04 5.05 5.04 h 90.88 c 2.813 0 5.05 -2.25 5.05 -5.04 v -90.91 c 0 -2.794 -2.254 -5.04 -5.05 -5.04" transform="matrix(0.22359 0 0 0.21528 9.836 10.299)" fill="none" stroke="url(#1)"/><g stroke-opacity="0.071" stroke="#000" fill-opacity="0.149" transform="matrix(0.22359 0 0 0.21528 9.836 10.299)"><path d="m 58.41 106.3 c 2.201 0 4 -1.796 4 -3.992 c 0 -2.214 -1.799 -4.01 -4 -4.01 c -6.901 0 -12.404 -5.407 -12.596 -12.248 h 7.827 c 0.734 0 1.415 -0.435 1.712 -1.125 c 0.314 -0.671 0.175 -1.47 -0.314 -2.01 l -10.1 -11.141 c -0.716 -0.798 -1.747 -1.252 -2.83 -1.252 c -1.083 0 -2.114 0.454 -2.83 1.252 l -10.08 11.141 c -0.507 0.544 -0.629 1.343 -0.332 2.01 c 0.297 0.69 0.978 1.125 1.712 1.125 h 7.233 c 0.192 11.177 9.382 20.25 20.598 20.25"/><path d="m 70.64 33.956 c -2.201 0 -4 1.778 -4 3.992 c 0 2.214 1.799 3.992 4 3.992 c 6.901 0 12.404 5.425 12.596 12.266 h -7.827 c -0.734 0 -1.415 0.435 -1.712 1.107 c -0.297 0.69 -0.175 1.47 0.332 2.01 l 10.08 11.141 c 0.734 0.798 1.765 1.27 2.83 1.27 c 1.083 0 2.114 -0.472 2.848 -1.27 l 10.08 -11.123 c 0.489 -0.562 0.629 -1.343 0.314 -2.01 c -0.297 -0.69 -0.961 -1.125 -1.712 -1.125 h -7.233 c -0.192 -11.177 -9.382 -20.25 -20.598 -20.25"/></g></g><use xlink:href="#5" mask="url(#3)"/><use xlink:href="#8" mask="url(#6)"/><use xlink:href="#B" mask="url(#9)"/><path d="m 18.695 15.551 h 1.375 l 3.039 7.793 h -1.598 l -0.746 -1.941 h -2.793 l -0.73 1.941 h -1.598 m 4.84 -3.01 l -1.102 -3.063 l -1.148 3.063" fill="#fafafa"/><use xlink:href="#E" mask="url(#C)"/><path d="m 28.27 33.898 c -0.316 0 -0.609 -0.051 -0.883 -0.148 c -0.273 -0.105 -0.512 -0.246 -0.711 -0.422 c -0.199 -0.188 -0.355 -0.402 -0.473 -0.645 c -0.105 -0.242 -0.16 -0.508 -0.16 -0.801 c 0 -0.297 0.066 -0.574 0.199 -0.824 c 0.141 -0.258 0.332 -0.477 0.57 -0.652 c 0.25 -0.18 0.543 -0.316 0.887 -0.414 c 0.34 -0.105 0.711 -0.156 1.117 -0.156 c 0.293 0 0.574 0.023 0.848 0.07 c 0.281 0.051 0.531 0.117 0.746 0.207 v -0.363 c 0 -0.422 -0.125 -0.746 -0.375 -0.969 c -0.238 -0.227 -0.602 -0.34 -1.082 -0.34 c -0.348 0 -0.688 0.059 -1.02 0.18 c -0.332 0.121 -0.672 0.301 -1.02 0.535 l -0.512 -1.031 c 0.84 -0.543 1.742 -0.813 2.715 -0.813 c 0.938 0 1.664 0.227 2.176 0.68 c 0.523 0.445 0.785 1.09 0.785 1.941 v 1.977 c 0 0.168 0.027 0.289 0.086 0.363 c 0.066 0.07 0.172 0.113 0.313 0.121 v 1.383 c -0.281 0.055 -0.527 0.086 -0.734 0.086 c -0.316 0 -0.559 -0.07 -0.734 -0.207 c -0.164 -0.137 -0.27 -0.32 -0.313 -0.547 l -0.035 -0.352 c -0.293 0.371 -0.645 0.656 -1.059 0.848 c -0.414 0.195 -0.859 0.293 -1.332 0.293 m 0.473 -1.191 c 0.281 0 0.547 -0.047 0.797 -0.145 c 0.258 -0.098 0.457 -0.227 0.598 -0.387 c 0.184 -0.137 0.273 -0.293 0.273 -0.461 v -0.73 c -0.199 -0.07 -0.414 -0.129 -0.648 -0.168 c -0.23 -0.047 -0.453 -0.074 -0.668 -0.074 c -0.434 0 -0.785 0.098 -1.059 0.293 c -0.273 0.184 -0.41 0.426 -0.41 0.715 c 0 0.273 0.105 0.504 0.32 0.691 c 0.219 0.18 0.484 0.266 0.797 0.266" fill="#fafafa"/><path d="m 70.64 36.949 c 9.172 0 16.615 7.421 16.615 16.603" transform="matrix(0.22359 0 0 0.21528 9.836 10.299)" fill="none" stroke="#fafafa" stroke-linejoin="round" stroke-linecap="round" stroke-width="8"/><path d="m 31.852 21.754 h -5.156 c -0.164 0 -0.316 0.094 -0.383 0.238 c -0.066 0.145 -0.039 0.316 0.074 0.434 l 2.254 2.398 c 0.164 0.172 0.395 0.27 0.637 0.27 c 0.238 0 0.469 -0.098 0.633 -0.27 l 2.254 -2.398 c 0.113 -0.117 0.141 -0.289 0.074 -0.434 c -0.066 -0.145 -0.219 -0.238 -0.383 -0.238" fill="#fafafa"/><path d="m -58.41 -101.29 c 9.172 0 16.615 7.421 16.615 16.603" transform="matrix(-0.22359 0 0 -0.21528 9.836 10.299)" fill="none" stroke="#fafafa" stroke-linejoin="round" stroke-linecap="round" stroke-width="8"/><path d="m 16.672 28.605 h 5.156 c 0.164 0 0.316 -0.094 0.383 -0.238 c 0.066 -0.145 0.039 -0.316 -0.074 -0.434 l -2.254 -2.398 c -0.164 -0.172 -0.395 -0.27 -0.633 -0.27 c -0.242 0 -0.473 0.098 -0.637 0.27 l -2.254 2.398 c -0.113 0.117 -0.141 0.289 -0.074 0.434 c 0.066 0.145 0.219 0.238 0.383 0.238" fill="#fafafa"/></svg>