<svg xmlns="http://www.w3.org/2000/svg" xmlns:xlink="http://www.w3.org/1999/xlink" viewBox="0 0 48 48"><defs><g id="3" clip-path="url(#2)"><path d="m 17.41 36.09 c -3.68 -1.781 -6.801 -3.238 -6.934 -3.238 c -0.129 0 -0.293 -0.199 -0.359 -0.441 c -0.066 -0.242 -0.121 -5.281 -0.125 -11.199 l -0.004 -10.762 h 7.668 l 2.355 -1.727 c 3.867 -2.836 3.559 -2.672 4.215 -2.266 c 0.305 0.191 1.711 1.168 3.117 2.172 l 2.559 1.82 h 2.09 c 1.152 0 2.922 0.059 3.934 0.129 l 1.844 0.129 v 22.1 l -5.789 2.801 c -3.184 1.539 -6.258 3 -6.832 3.258 l -1.047 0.461 m 5.961 -5.836 c 2.238 -1.156 4.266 -2.242 4.5 -2.414 c 0.41 -0.305 0.438 -0.547 0.625 -5.902 c 0.203 -5.824 0.164 -11.645 -0.074 -11.879 c -0.078 -0.074 -1.348 -0.184 -2.82 -0.242 l -2.676 -0.105 l -2.789 -1.934 c -1.535 -1.066 -2.945 -1.938 -3.133 -1.938 c -0.352 0 -0.875 0.34 -3.953 2.59 l -1.824 1.328 l -2.707 0.059 l -2.703 0.055 l 0.059 5.5 c 0.035 3.03 0.133 6.984 0.219 8.797 c 0.137 2.914 0.199 3.328 0.543 3.582 c 0.211 0.156 2.73 1.43 5.598 2.828 l 5.211 2.543 l 0.926 -0.387 c 0.512 -0.211 2.762 -1.328 5 -2.48" fill="#ffd600"/></g><g id="6" clip-path="url(#5)"><path d="m 19.469 32.559 c -2.656 -1.352 -4.707 -2.5 -4.852 -2.727 c -0.199 -0.301 -0.293 -1.641 -0.426 -5.879 c -0.094 -3.02 -0.168 -6.457 -0.172 -7.645 l -0.004 -2.156 l 2.359 -0.07 l 2.355 -0.07 l 2.375 -1.727 c 1.305 -0.953 2.488 -1.73 2.633 -1.73 c 0.305 0 1.723 0.883 3.73 2.328 l 1.441 1.035 l 2.207 0.121 c 1.211 0.066 2.355 0.195 2.543 0.293 c 0.324 0.168 0.336 0.426 0.234 7.488 c -0.063 4.57 -0.176 7.512 -0.297 7.844 c -0.16 0.449 -0.652 0.777 -3.082 2.074 c -3.34 1.781 -6.113 3.172 -6.309 3.164 c -0.074 0 -2.207 -1.055 -4.738 -2.344" fill="#0b63ea"/></g><clipPath id="2"><path d="M 0,0 H48 V48 H0 z"/></clipPath><clipPath id="5"><path d="M 0,0 H48 V48 H0 z"/></clipPath><filter id="0" filterUnits="objectBoundingBox" x="0" y="0" width="48" height="48"><feColorMatrix type="matrix" in="SourceGraphic" values="0 0 0 0 1 0 0 0 0 1 0 0 0 0 1 0 0 0 1 0"/></filter><mask id="4"><g filter="url(#0)"><path fill-opacity="0.902" d="M 0,0 H48 V48 H0 z"/></g></mask><mask id="1"><g filter="url(#0)"><path fill-opacity="0.902" d="M 0,0 H48 V48 H0 z"/></g></mask></defs><path d="m 38.37 3.188 c -70.21 -20.547 -28.434 80.969 5 30.05 c 6.113 -9.355 7.05 -25.24 -5 -30.05" fill="#382f68"/><use xlink:href="#3" mask="url(#1)"/><use xlink:href="#6" mask="url(#4)"/><g fill="#ffd600"><path d="m 17.563 28.22 c -0.09 -0.059 -0.215 -0.863 -0.426 -2.758 l -0.156 -1.379 l 0.297 -0.305 c 0.848 -0.867 2.227 -1.219 5.238 -1.336 l 1.145 -0.047 v 5.145 h -0.383 c -0.457 0 -2.375 0.164 -3.066 0.262 c -0.465 0.066 -0.68 0.109 -1.836 0.363 c -0.523 0.113 -0.695 0.125 -0.813 0.055"/><path d="m 16.887 22.637 c -0.109 -0.207 -0.324 -2.375 -0.387 -3.867 c -0.039 -0.949 -0.035 -1.031 0.078 -1.113 c 0.152 -0.109 0.602 -0.117 1 -0.016 c 0.367 0.094 0.414 0.176 0.66 1.188 c 0.238 0.996 0.34 1.242 0.52 1.289 c 0.387 0.105 1.207 -0.047 1.453 -0.27 c 0.203 -0.18 0.395 -0.605 0.844 -1.84 c 0.227 -0.617 0.461 -1.211 0.523 -1.313 c 0.148 -0.254 0.359 -0.313 1.297 -0.367 l 0.781 -0.043 v 5.578 l -1.246 0.082 c -1.992 0.133 -3.207 0.305 -4.871 0.703 c -0.547 0.129 -0.582 0.129 -0.656 -0.012"/><path d="m 30.996 22.504 c 0.109 -0.211 0.324 -2.375 0.387 -3.867 c 0.039 -0.949 0.035 -1.031 -0.078 -1.113 c -0.152 -0.109 -0.602 -0.117 -1 -0.016 c -0.367 0.094 -0.414 0.176 -0.66 1.188 c -0.238 0.996 -0.34 1.242 -0.52 1.289 c -0.387 0.105 -1.207 -0.047 -1.453 -0.27 c -0.203 -0.18 -0.395 -0.605 -0.844 -1.84 c -0.227 -0.617 -0.461 -1.211 -0.523 -1.316 c -0.145 -0.25 -0.355 -0.309 -1.297 -0.363 l -0.781 -0.043 v 5.578 l 1.246 0.082 c 1.992 0.133 3.207 0.305 4.871 0.703 c 0.547 0.129 0.582 0.129 0.656 -0.012"/><path d="m 30.34 28.22 c 0.094 -0.059 0.219 -0.863 0.43 -2.758 l 0.156 -1.379 l -0.297 -0.305 c -0.848 -0.867 -2.227 -1.219 -5.238 -1.336 l -1.145 -0.047 v 5.145 h 0.383 c 0.453 0 2.375 0.164 3.066 0.262 c 0.465 0.066 0.68 0.109 1.836 0.363 c 0.52 0.113 0.695 0.125 0.809 0.055"/></g><path d="m 23.988 28.504 l -1.285 -1.125 l -1.98 -2.141 l 1.129 -1.285 l 2.137 -1.977 l 1.285 1.125 l 1.98 2.137 l -1.129 1.289" fill="#ff0"/><path d="m 23.996 26.801 l -0.652 -0.543 l -1 -1.027 l 0.57 -0.621 l 1.082 -0.953 l 0.648 0.543 l 1 1.031 l -0.57 0.617" fill="#ffd600"/></svg>