<svg xmlns="http://www.w3.org/2000/svg" viewBox="0 0 48 48" xmlns:xlink="http://www.w3.org/1999/xlink"><path d="m 45.996 28.871 c -4.781 31.91 -53.941 19.965 -44.645 -10.816 c 6.238 -29.3 56.55 -20.297 44.645 10.816" fill="#92b95b"/><path d="m 15.14 9.563 h 18.559 c 2.68 0 4.852 2.07 4.852 4.621 v 18.887 c 0 2.555 -2.172 4.625 -4.852 4.625 h -18.559 c -2.68 0 -4.852 -2.07 -4.852 -4.625 v -18.887 c 0 -2.551 2.172 -4.621 4.852 -4.621" fill="#37f137"/><path d="m 23.902 28.938 c 0.395 2.926 -1.656 5.617 -4.582 6.01 c -2.926 0.395 -5.617 -1.656 -6.01 -4.582 c -0.395 -2.926 1.656 -5.617 4.582 -6.01 c 2.922 -0.398 5.617 1.656 6.01 4.578" fill="#fff" id="0"/><g fill="#000200"><path d="m 35.84 28.738 c 0.395 2.926 -1.656 5.617 -4.582 6.01 c -2.926 0.395 -5.617 -1.656 -6.01 -4.582 c -0.395 -2.926 1.656 -5.617 4.582 -6.01 c 2.926 -0.395 5.617 1.656 6.01 4.578"/><path d="m 23.922 16.965 c 0.395 2.926 -1.656 5.617 -4.582 6.01 c -2.926 0.395 -5.617 -1.656 -6.01 -4.582 c -0.395 -2.926 1.656 -5.617 4.582 -6.01 c 2.926 -0.395 5.617 1.656 6.01 4.582"/></g><path d="m 29.973 9.539 h 1.07 v 28.12 h -1.07"/><path d="m 17.836 9.672 h 1.066 v 28.12 h -1.066"/><path d="m 38.531 17.227 v 1.07 h -28.12 v -1.07"/><path d="m 38.465 29.1 v 1.066 h -28.12 v -1.066"/><use xlink:href="#0"/><path d="m 35.84 17.191 c 0.395 2.926 -1.656 5.617 -4.582 6.01 c -2.926 0.395 -5.617 -1.656 -6.01 -4.582 c -0.395 -2.926 1.656 -5.617 4.582 -6.01 c 2.926 -0.395 5.617 1.656 6.01 4.582" fill="#fff"/></svg>