<svg xmlns="http://www.w3.org/2000/svg" viewBox="0 0 48 48"><path d="m 3.977 35.73 c -25.438 -61.48 81.54 -32.594 29.594 7.555 c -9.316 6.992 -24.969 7.531 -29.594 -7.555" fill="#272325"/><g stroke="#555354"><path d="m 191.53 136.8 c 0 34.632 -29.455 62.698 -65.793 62.698 c -36.34 0 -65.793 -28.07 -65.793 -62.698 c 0 -34.615 29.455 -62.68 65.793 -62.68 c 36.34 0 65.793 28.07 65.793 62.68" transform="matrix(0.21736 0 0 0.23326 -4.498 -8.618)" fill="#fafafa" stroke-width="2"/><g fill="#555354"><path d="m 149.2 128.82 c -0.563 -0.667 -0.396 -6.75 0.188 -6.75 c 0.771 -2.063 2.917 -4.833 5.25 -5.604 c 2.417 -0.458 5.438 -0.021 7 0.417 c 1.208 0.375 3.417 1.896 3.729 3.125 c 2.813 4.292 2.938 9.479 -2.938 14 c -5.875 1.667 -11.06 0.479 -13.229 -5.188" transform="matrix(0.1875 0 0 0.1875 0.225 -0.225)" stroke-width="1.384"/><path d="m 224.18 128.65 c -56.54 -14.771 -76.54 -68.854 -54.938 -113.33 c 9.417 -19.06 24.625 -32.31 45.25 -39.42 c 7.271 -2.5 9 -2.708 23.08 -2.708 c 14.438 0.021 15.688 0.188 23.813 3.02 c 11.271 3.938 18.02 8.104 27.375 16.854 c 18.08 16.896 26.333 37.29 25.15 62 c -0.604 12.5 -2.708 20.729 -8.08 31.604 c -15.02 30.438 -48.31 47.563 -81.62 41.979 m 27.729 -6.333 c 10.313 -1.792 16.438 -4.417 26.479 -11.354 c 12.438 -8.604 23.417 -24.25 27.542 -39.25 c 1.229 -4.458 2.938 -8.08 2.979 -17.08 c 0.063 -12.188 -1.271 -15.02 -4 -20.604 c -3.479 -7.083 -9.08 -12.813 -16.271 -16.688 c -4.396 -2.354 -6.896 -2.958 -13.563 -3.313 c -7.292 -0.375 -8.958 -0.125 -15.12 2.354 c -13.375 5.396 -20.667 16.13 -22.5 33.19 c -1.5 14 -3.75 19.625 -11.06 27.75 c -6.521 7.271 -14.375 10.604 -24.813 10.583 c -7 -0.021 -8.792 -0.417 -14.479 -3.208 c -4.563 -2.25 -8 -4.938 -11.604 -9.02 c -2.938 -3.333 -5.5 -5.458 -6 -4.979 c -1.125 1.146 4.396 13.688 9.604 21.708 c 10.625 16.417 28.27 27.458 44.688 30.13 c 9.02 1.792 19.479 1.229 28.13 -0.208 m 38.19 -16.25 c 4.583 -5.625 -7 5.083 -9.333 7.646 c 0 0.917 5.583 -3.646 9.333 -7.646 m -101.65 2.75 c -1.229 -1.521 -10.708 -10.542 -7.354 -6.646 c 3.771 4.354 7.354 7.583 7.354 6.646 m 19.313 -50.54 c 3.729 -4.02 4.479 -6.667 2.875 -10.458 c -2.875 -6.917 -10.333 -8.646 -15.396 -3.604 c -4.125 4.146 -4.063 9.958 0.188 13.917 c 4.104 3.833 8.833 3.896 12.333 0.146" transform="matrix(0.1875 0 0 0.1875 -21.639 13.909)" stroke-width="1.964"/></g></g></svg>