<svg xmlns="http://www.w3.org/2000/svg" viewBox="0 0 48 48"><path d="m 45.793 35.406 c -9.449 22.578 -46.03 12.504 -45.789 -12.09 c -0.367 -22.355 28.719 -30.832 41.469 -14.906 c 6.375 6.883 8.602 18.293 4.32 26.996" fill="#c83104"/><path d="m 21.695 41.934 c -2.813 -0.41 -6.07 -1.758 -8.254 -3.414 c -3.23 -2.445 -5.578 -5.906 -6.652 -9.797 c -0.617 -2.242 -0.719 -5.887 -0.234 -8.277 c 1.648 -8.07 7.91 -13.855 15.906 -14.703 c 9.133 -0.973 17.48 5.359 19.387 14.703 c 0.488 2.391 0.387 6.04 -0.234 8.277 c -1.941 7.05 -7.797 12.188 -15.06 13.227 c -1.34 0.191 -3.496 0.184 -4.852 -0.012" fill="#e5e8ed"/><path d="m 23.11 39.965 c -4.262 -0.445 -7.609 -2.051 -10.34 -4.957 c -5.414 -5.77 -5.73 -14.516 -0.742 -20.77 c 1.953 -2.445 4.703 -4.266 7.941 -5.25 c 1.301 -0.395 1.684 -0.434 4.195 -0.445 c 3 -0.016 3.91 0.141 6.141 1.043 c 3.438 1.395 6.875 4.691 8.332 7.988 c 0.738 1.676 0.949 1.441 -2.188 2.457 c -1.527 0.496 -2.801 0.902 -2.828 0.902 c -0.023 0 -0.215 -0.359 -0.418 -0.797 l -0.375 -0.797 l 0.277 -2.73 c 0.152 -1.5 0.309 -2.844 0.348 -2.98 c 0.039 -0.141 -0.027 -0.383 -0.145 -0.547 c -0.203 -0.273 -0.371 -0.227 -2.84 0.797 l -2.621 1.086 l -1.109 -0.277 c -1.43 -0.363 -3.457 -0.363 -4.875 -0.004 l -1.117 0.281 l -2.586 -1.078 c -2.188 -0.914 -2.621 -1.047 -2.809 -0.859 c -0.188 0.188 -0.172 0.672 0.109 3.141 l 0.336 2.918 l -0.418 0.941 c -0.598 1.344 -0.891 2.734 -0.891 4.234 c -0.008 3.836 2.34 7.402 5.906 8.965 c 0.973 0.426 2.934 0.84 3.969 0.836 c 1.883 -0.008 4.246 -0.824 5.785 -2 c 0.426 -0.324 0.84 -0.594 0.922 -0.594 c 0.082 0 1.031 0.93 2.109 2.063 l 1.961 2.063 l -0.363 0.387 c -1 1.074 -3.66 2.613 -5.617 3.25 c -1.691 0.551 -4.52 0.891 -6.05 0.734" fill="#c83104"/></svg>