<svg xmlns="http://www.w3.org/2000/svg" viewBox="0 0 48 48"><path d="m 41.844 7.594 c 27.22 41.539 -47.13 57.62 -41.21 14.879 c 2.414 -17.43 30.793 -30.773 41.21 -14.879" fill="#8b008b"/><path d="m 19.891 38.941 c -0.992 -0.137 -1.074 -0.172 -0.824 -0.355 c 0.156 -0.113 0.598 -0.203 0.98 -0.203 c 0.602 0 0.746 -0.063 0.996 -0.414 c 0.324 -0.449 0.691 -1.734 0.848 -2.953 c 0.102 -0.762 0.094 -0.777 -0.277 -0.777 c -0.273 0 -0.566 -0.227 -1.086 -0.832 c -0.391 -0.457 -1.109 -1.102 -1.602 -1.434 c -0.492 -0.328 -1.293 -1.039 -1.781 -1.574 c -0.488 -0.535 -0.813 -0.531 -1.473 -1.223 c -1.375 -1.449 -1.781 -3.094 -1.664 -4.434 c 0.063 -0.766 -0.168 -1.184 0.941 -3.352 c 0.719 -1.41 1.328 -2.625 1.355 -2.703 c 0.027 -0.078 -0.109 -0.141 -0.301 -0.141 c -0.754 0 -0.934 -0.676 -0.34 -1.27 c 0.203 -0.203 0.027 -0.164 0.027 -0.211 c 0 -0.043 -0.008 0.098 -0.355 0.164 l -1.32 0.242 l 1.156 -1.082 c 0.297 -0.277 0.285 -0.254 0.148 -0.391 c -0.254 -0.254 -0.215 -1.09 0.063 -1.367 c 0.129 -0.129 0.199 -0.336 0.152 -0.457 c -0.047 -0.117 -0.02 -0.215 0.059 -0.215 c 0.078 0 0.145 0.066 0.145 0.145 c 0 0.082 0.074 0.148 0.164 0.148 c 0.109 0 0.133 -0.188 0.07 -0.555 l -0.094 -0.555 l 0.367 0.406 c 0.199 0.227 0.402 0.41 0.445 0.41 c 0.047 0 0.082 -0.25 0.082 -0.555 c 0 -0.539 0.004 -0.543 0.234 -0.219 c 0.313 0.453 0.504 0.285 0.52 -0.457 l 0.012 -0.621 l 0.148 0.516 c 0.211 0.75 0.383 0.859 0.57 0.359 c 0.145 -0.379 0.184 -0.402 0.309 -0.172 c 0.082 0.141 0.27 0.258 0.418 0.258 c 0.547 0 0.484 0.465 -0.145 1.039 l -0.602 0.559 l 0.414 0.293 c 0.23 0.16 0.563 0.336 0.746 0.395 c 0.484 0.148 1.332 1.211 1.586 1.992 c 0.121 0.375 0.293 1.148 0.379 1.719 c 0.41 2.73 1.016 3.367 1.566 3.664 c 0.598 0.32 0.922 0.641 1.676 0.641 c 0.859 0.004 1.23 0.672 3.117 -1.75 c 1.684 -2.16 3.188 -3.02 5.02 -2.891 c 1.621 0.121 2.75 0.516 3.563 1.246 c 2.32 2.082 2.719 5.223 0.961 7.527 c -0.223 0.289 -0.426 0.5 -0.457 0.469 c -0.031 -0.031 0.16 -0.516 0.426 -1.074 c 0.543 -1.156 0.723 -2.746 0.414 -3.676 c -0.285 -0.867 -0.449 -0.609 -0.449 0.727 c 0 1.359 -0.215 2.094 -1.238 4.215 c -0.621 1.285 -0.637 1.254 -0.242 -0.52 c 0.168 -0.77 0.293 -1.887 0.293 -2.656 l 0.004 -1.332 l -0.293 0.48 c -0.16 0.266 -0.359 0.48 -0.445 0.48 c -0.082 0 -0.148 0.188 -0.148 0.422 c 0 0.504 -0.344 0.84 -1 0.98 c -0.469 0.098 -0.477 0.117 -0.383 0.703 c 0.113 0.711 -0.156 1 -0.93 1 c -0.379 0 -0.535 0.098 -0.773 0.48 c -0.164 0.27 -0.48 0.652 -0.699 0.852 l -0.395 0.367 l 0.098 -0.367 c 0.082 -0.313 0.004 -0.266 -0.484 0.277 l -0.578 0.645 l -0.18 -0.535 c -0.199 -0.605 -0.379 -0.59 -0.52 0.047 c -0.102 0.453 -0.695 1.191 -0.957 1.191 c -0.086 0 -0.16 -0.148 -0.16 -0.332 c -0.004 -0.328 -0.008 -0.328 -0.23 -0.035 c -0.191 0.25 -0.242 0.262 -0.359 0.074 c -0.078 -0.125 -0.145 -0.273 -0.145 -0.336 c 0 -0.059 -0.129 -0.109 -0.281 -0.109 c -0.266 0 -0.785 0.523 -1.391 1.395 c -0.148 0.211 -0.363 0.383 -0.484 0.383 c -0.117 0 -0.215 0.055 -0.215 0.121 c 0 0.063 -0.121 0.25 -0.27 0.41 c -0.148 0.16 -0.316 0.609 -0.367 0.996 c -0.055 0.387 -0.332 1.473 -0.617 2.418 c -0.594 1.949 -0.613 2.141 -0.281 2.645 c 0.23 0.355 0.227 0.367 -0.121 0.367 c -0.195 0 -0.418 0.059 -0.496 0.133 c -0.234 0.219 -1.848 0.289 -3.02 0.129 m 2.773 -2.078 c 0.402 -1.398 0.531 -2.277 0.352 -2.387 c -0.078 -0.051 -0.285 0.453 -0.461 1.133 c -0.176 0.668 -0.383 1.41 -0.457 1.645 c -0.137 0.422 -0.086 0.684 0.141 0.684 c 0.063 0 0.258 -0.48 0.426 -1.074" fill="#fff" fill-rule="evenodd"/></svg>