<svg xmlns="http://www.w3.org/2000/svg" viewBox="0 0 48 48"><path d="m 39.543 38.781 c -19.422 24.992 -54.48 -8.684 -32.08 -30.801 c 19.273 -22.16 56.684 9.516 32.08 30.801" fill="#2c2c2c"/><g fill="#fff"><path d="m 11.141 23.973 v -11.672 h 24.766 v 23.34 h -24.766 m 11.988 -2.875 c 0.031 -1.938 -0.047 -8.152 -0.102 -8.223 c -0.012 -0.012 -2.535 -0.082 -5.609 -0.152 l -5.586 -0.125 v 10.688 h 11.258 m 0 -16.816 v -5.32 h -11.207 l -0.121 2.074 c -0.07 1.141 -0.07 3.531 0 5.32 l 0.121 3.246 h 11.207 m 12.469 -5.32 v -5.32 h -11.43 v 10.641 h 11.43"/><path d="m 15.992 32.746 c -0.797 -0.434 -1.051 -0.793 -1.25 -1.77 c -0.336 -1.656 -0.078 -3.629 0.531 -4.04 c 0.547 -0.371 2.27 -0.758 2.824 -0.633 c 1.254 0.277 2.555 1.402 2.129 1.84 c -0.379 0.391 -1.023 0.219 -1.375 -0.363 c -0.75 -1.066 -2.02 -0.898 -2.699 -0.184 c -0.461 0.488 -0.547 0.707 -0.605 1.531 c -0.129 1.836 0.508 2.793 1.855 2.793 c 0.852 0 1.316 -0.281 1.59 -0.957 c 0.215 -0.539 0.559 -0.691 1.094 -0.488 c 0.281 0.109 0.34 0.219 0.254 0.508 c -0.164 0.574 -0.898 1.445 -1.5 1.777 c -0.719 0.395 -2.105 0.391 -2.848 -0.016"/><path d="m 16.5 21.508 c -1.035 -0.406 -1.363 -0.793 -1.738 -2.055 c -0.383 -1.293 -0.367 -2.164 0.066 -3.465 c 0.363 -1.082 0.391 -1.105 1.586 -1.355 c 1.266 -0.266 2.59 -0.023 3.215 0.578 c 0.508 0.492 0.895 1.73 0.895 2.5 c 0.004 1.297 -0.941 3.227 -2.164 3.781 c -0.719 0.324 -1.063 0.328 -1.859 0.016 m 1.84 -1.207 c 0.684 -0.492 1 -1.277 1 -2.469 c 0 -2.047 -1.016 -2.891 -2.816 -2.34 c -0.805 0.246 -1.184 0.965 -1.184 2.246 c 0 1.191 0.277 1.836 1.035 2.406 c 0.66 0.492 1.418 0.555 1.965 0.156"/><path d="m 27.43 20.914 c -0.254 -0.504 -1.602 -4.961 -1.602 -5.309 c 0 -0.168 0.129 -0.242 0.43 -0.242 c 0.508 0 0.609 0.191 1.113 2.074 c 0.18 0.688 0.402 1.27 0.488 1.301 c 0.082 0.027 0.379 -0.637 0.656 -1.477 c 0.273 -0.84 0.566 -1.609 0.648 -1.715 c 0.191 -0.234 1.016 -0.23 1.328 0.008 c 0.152 0.113 0.277 0.531 0.344 1.145 c 0.102 0.98 0.547 2.676 0.703 2.68 c 0.09 0 0.539 -1.34 0.961 -2.863 c 0.336 -1.199 1.281 -1.773 1.281 -0.777 c 0 0.41 -1.477 5.105 -1.695 5.387 c -0.078 0.102 -0.336 0.188 -0.57 0.188 c -0.504 0 -0.785 -0.512 -0.953 -1.742 c -0.152 -1.078 -0.586 -2.715 -0.734 -2.758 c -0.07 -0.02 -0.449 0.969 -0.844 2.195 c -0.598 1.863 -0.766 2.238 -1.027 2.277 c -0.219 0.031 -0.375 -0.082 -0.527 -0.375"/></g></svg>