<svg xmlns="http://www.w3.org/2000/svg" viewBox="0 0 48 48"><path d="m 0.863 18.508 c 9.305 -44.984 73.32 3.309 34.863 26.17 c -14.938 9.801 -39.652 -3.035 -34.863 -26.17" fill="#a9a9a9"/><path d="m 18.844 37.13 c 0 -0.527 -0.066 -0.582 -0.906 -0.703 c -0.793 -0.113 -0.91 -0.195 -0.949 -0.645 c -0.027 -0.281 -0.051 -3.758 -0.051 -7.723 c -0.008 -6.328 -0.051 -7.379 -0.375 -8.617 c -0.203 -0.777 -0.477 -1.414 -0.605 -1.41 c -0.129 0.004 -0.906 0.574 -1.73 1.266 c -0.82 0.695 -1.598 1.262 -1.723 1.262 c -0.32 0 -1.406 -1.145 -1.797 -1.891 c -0.18 -0.34 -0.324 -0.965 -0.324 -1.387 c 0 -0.664 0.141 -0.898 1.113 -1.828 c 0.781 -0.75 1.094 -1.195 1.055 -1.5 c -0.043 -0.344 0.102 -0.484 0.684 -0.684 c 0.402 -0.137 1.137 -0.566 1.629 -0.961 c 0.746 -0.59 1.059 -0.711 1.828 -0.711 c 0.758 0 1.066 0.117 1.66 0.621 c 0.93 0.785 2.168 2.551 2.965 4.215 c 0.863 1.809 1.668 2.902 2.414 3.273 c 0.699 0.352 3.902 0.844 5.52 0.848 c 1.227 0.004 1.184 0.09 1.395 -2.879 c 0.145 -2.062 0.523 -3.01 1.074 -2.68 c 0.512 0.305 0.699 1.273 0.824 4.297 c 0.109 2.617 0.199 3.242 0.547 3.898 c 0.539 1 0.801 1.961 1.383 5.04 c 0.34 1.816 0.613 2.715 0.98 3.254 c 0.434 0.637 0.527 1.051 0.641 2.867 c 0.129 2 0.109 2.152 -0.297 2.543 c -0.43 0.418 -1.5 0.563 -1.969 0.27 c -0.129 -0.082 -0.262 -0.836 -0.305 -1.734 c -0.063 -1.391 -0.148 -1.695 -0.676 -2.418 c -0.332 -0.457 -0.699 -0.859 -0.809 -0.895 c -0.113 -0.035 -0.523 0.656 -0.91 1.543 l -0.699 1.609 l -1.02 0.055 c -0.797 0.047 -1.094 -0.023 -1.367 -0.316 c -0.336 -0.355 -0.328 -0.398 0.133 -0.934 c 0.828 -0.953 0.832 -1.297 0.047 -2.242 c -0.387 -0.469 -0.973 -1.289 -1.305 -1.824 c -0.328 -0.535 -0.672 -1.098 -0.766 -1.246 c -0.141 -0.223 -0.395 -0.234 -1.453 -0.055 c -0.703 0.121 -1.301 0.242 -1.328 0.273 c -0.027 0.027 -0.156 1.324 -0.285 2.879 c -0.457 5.488 -0.633 5.844 -2.867 5.844 h -1.375" fill="#f4f4f4"/><g fill="#5b5b5b" fill-opacity="0.984"><path d="m 18.602 34.508 c 0.105 -1.48 0.105 -1.301 -0.063 -3.672 c -0.078 -1.145 -0.113 -2.164 -0.074 -2.266 c 0.105 -0.277 0.266 -0.227 0.41 0.137 c 0.133 0.324 0.359 4.492 0.359 6.652 l 0.004 1.148 c -1.43 0.031 -0.75 -0.355 -0.637 -2"/><path d="m 10.375 17.852 c -0.508 -0.441 -0.602 -0.887 -0.215 -1.047 c 0.199 -0.078 0.336 -0.063 0.645 0.074 c 0.313 0.137 0.398 0.238 0.426 0.52 c 0.063 0.559 -0.434 0.82 -0.855 0.453"/><path d="m 31.08 31.719 c -0.488 -0.629 -1.305 -1.66 -1.422 -2.078 c -0.875 -0.117 -2.68 -2.133 -2.617 -2.246 c 0.113 -0.176 -0.059 -0.324 -0.379 -0.324 c -0.324 0 -0.59 0.176 -0.59 0.387 c -0.406 0.359 -0.398 0.742 -0.941 1.078 c -1.375 0.336 -2 0.699 -2.168 -0.316 c -0.25 -0.227 -0.285 -0.922 -0.012 -1.398 c 0.57 -0.199 0.949 0.09 1.57 -0.93 c 0.047 -1.277 -0.637 -1.961 0.195 -2.965 c 0.828 -1 1.469 -1.059 1.594 -1.41 c 0.176 -0.5 0.063 -1.023 1.613 -1.023 c 2.109 0 2.531 0.352 2.578 -1.164 c 0.004 -0.555 0.52 0.449 1.543 -0.063 c 0.957 -0.477 0.633 0.734 0.801 3.141 c 0.059 0.863 -1.121 0.535 -0.984 1.289 c 0.09 0.477 0.172 1.719 -0.375 2.074 c -0.227 0.148 -0.766 0.484 -1.301 0.375 c -0.621 -0.125 -1.148 0.004 -1.449 0.352 c -0.391 0.453 -0.176 0.918 1.281 2.746 c 1.813 2.281 2.75 3.125 1.063 2.477"/><path d="m 19.957 17.23 c -0.273 -0.43 -0.5 -1.129 -0.5 -1.551 c 0 -0.922 -0.402 -0.988 -1.086 -0.176 c -0.703 0.832 -2.41 1.164 -2.656 0.516 c -0.113 -0.305 0.094 -0.727 0.531 -1.102 l 0.715 -0.609 l -0.684 -0.008 c -0.707 -0.012 -0.965 -0.598 -0.301 -0.68 c 0.207 -0.027 0.516 -0.063 0.68 -0.086 c 0.168 -0.02 0.441 -0.121 0.605 -0.227 c 0.168 -0.102 0.723 -0.277 1.238 -0.391 c 0.836 -0.184 1.016 -0.082 1.723 0.969 c 1.086 1.617 1.398 2.598 1.098 3.426 c -0.332 0.906 -0.746 0.883 -1.363 -0.082"/><path d="m 15.12 15.328 c -0.457 0.492 -0.918 0.578 -1.082 0.203 c -0.082 -0.188 -0.066 -0.32 0.074 -0.617 c 0.141 -0.305 0.25 -0.387 0.539 -0.418 c 0.574 -0.059 0.848 0.426 0.469 0.832"/></g></svg>