<svg xmlns="http://www.w3.org/2000/svg" viewBox="0 0 48 48"><path d="m 36.34 4.03 c 42.25 35.836 -44.621 70.29 -35.695 14.871 c 1.957 -12.152 24.309 -24.527 35.695 -14.871" fill="#778799"/><g fill-rule="evenodd"><path d="m 25.04 13.746 c 4.375 0 8.01 3.109 8.734 7.195 c 2.66 0.945 4.563 3.445 4.563 6.383 c 0 3.746 -3.102 6.785 -6.926 6.785 h -16.617 c -3.828 0 -6.926 -3.039 -6.926 -6.785 c 0 -3.75 3.098 -6.477 6.926 -6.477 c 0.535 0 1.059 0.059 1.559 0.172 c 0.816 -3.969 4.398 -7.273 8.688 -7.273" fill-opacity="0.2"/><g fill="#fff"><path d="m 25.04 12.965 c 4.375 0 8.01 3.105 8.734 7.191 c 2.66 0.945 4.563 3.449 4.563 6.383 c 0 3.75 -3.102 6.789 -6.926 6.789 h -16.617 c -3.828 0 -6.926 -3.039 -6.926 -6.789 c 0 -3.75 3.098 -6.473 6.926 -6.473 c 0.535 0 1.059 0.059 1.559 0.172 c 0.816 -3.973 4.398 -7.273 8.688 -7.273"/><path d="m 25.04 12.965 c -4.293 0 -7.871 3.301 -8.688 7.273 c -0.5 -0.113 -1.023 -0.172 -1.559 -0.172 c -3.824 0 -6.926 2.727 -6.926 6.473 c 0 0.133 0.012 0.262 0.02 0.391 c 0.207 -3.543 3.215 -6.082 6.906 -6.082 c 0.535 0 1.059 0.059 1.559 0.172 c 0.816 -3.969 4.395 -7.273 8.688 -7.273 c 4.375 0 8.01 3.109 8.734 7.195 c 2.527 0.898 4.363 3.195 4.547 5.941 c 0.004 -0.117 0.016 -0.227 0.016 -0.344 c 0 -2.934 -1.902 -5.438 -4.563 -6.383 c -0.723 -4.086 -4.359 -7.191 -8.734 -7.191" fill-opacity="0.2"/></g></g><path d="m 31.09 18.445 c -2.453 0.008 -4.879 1.012 -6.602 2.926 l 7.05 6.891 c 0.551 0.539 0.555 1.414 0.004 1.953 c -0.551 0.539 -1.445 0.543 -1.996 0.004 l -0.266 -0.262 l -3.813 3.727 c 1.816 1.48 4.164 2.18 6.516 1.949 c 2.352 -0.23 4.512 -1.375 5.992 -3.176 l -6.457 -6.324 c -0.547 -0.539 -0.547 -1.406 0 -1.941 l 4.43 -4.324 c -1.492 -0.961 -3.184 -1.426 -4.863 -1.422 m 6.965 3.301 l -3.547 3.426 l 4.922 4.762 c 1.01 -2.773 0.492 -5.855 -1.367 -8.172 m -15.1 2.01 c -1.082 2.563 -0.836 5.473 0.66 7.824 l 3.672 -3.59" fill-opacity="0.102"/><path d="m 24.492 20.59 c 2.902 -3.227 7.793 -3.871 11.461 -1.508 l -4.426 4.328 c -0.547 0.535 -0.547 1.402 0 1.938 l 6.457 6.324 c -1.48 1.801 -3.637 2.949 -5.992 3.18 c -2.352 0.23 -4.699 -0.473 -6.516 -1.949 l 3.813 -3.727 l 0.266 0.258 c 0.551 0.539 1.445 0.539 1.996 -0.004 c 0.551 -0.539 0.547 -1.41 -0.004 -1.949 m -8.582 -4.496 l 4.332 4.238 l -3.672 3.59 c -1.496 -2.352 -1.742 -5.266 -0.66 -7.828" fill="#366cfa"/><path d="m 38.06 20.965 l -3.547 3.422 l 4.922 4.766 c 1.01 -2.773 0.492 -5.855 -1.367 -8.172" fill="#ffa91f"/></svg>