<svg xmlns="http://www.w3.org/2000/svg" viewBox="0 0 48 48"><path d="m 5.332 39.41 c -22.242 -28.793 33.15 -58.68 41.25 -23.04 c 8.301 22.445 -24.766 44.37 -41.25 23.04" fill="#dcdcdc"/><path d="m 196.34 139.39 c 0 24.27 -19.426 43.942 -43.38 43.942 c -23.972 0 -43.4 -19.673 -43.4 -43.942 c 0 -24.26 19.426 -43.929 43.4 -43.929 c 23.959 0 43.38 19.673 43.38 43.929" transform="matrix(0.29982 0 0 0.29824 -21.539 -17.192)" fill="#00bfff" fill-rule="evenodd" stroke="#00bfff"/><path d="m 20.969 38.09 c -3.715 -0.895 -7.543 -3.969 -9.02 -7.25 c -2.84 -6.305 -1.102 -13.563 4.203 -17.527 c 2.461 -1.844 4.613 -2.484 8.336 -2.48 c 3.68 0 3.883 0.176 3.883 3.34 c 0 2.344 -0.328 2.773 -1.586 2.078 c -1.012 -0.559 -4.465 -0.469 -5.859 0.156 c -1.672 0.746 -3.434 2.48 -4.238 4.176 c -0.539 1.133 -0.699 2 -0.695 3.82 c 0.004 3.785 1.629 6.219 5.227 7.84 c 1.145 0.512 1.859 0.613 3.602 0.496 c 2.539 -0.168 3.766 -0.734 5.508 -2.559 c 2.043 -2.141 2.34 -3.441 2.34 -10.234 c -0.004 -6.707 0.074 -6.859 2.109 -4.172 c 7.211 9.496 0.758 22.82 -10.945 22.613 c -0.961 -0.016 -2.25 -0.152 -2.863 -0.301 m 1.348 -10.156 c -1.375 -0.688 -2.227 -2.199 -2.227 -3.957 c 0 -1.156 0.184 -1.645 0.949 -2.527 c 3.375 -3.91 9.191 0.207 6.77 4.797 c -1.035 1.965 -3.457 2.711 -5.492 1.688" fill="#111619"/></svg>