<svg xmlns="http://www.w3.org/2000/svg" viewBox="0 0 48 48"><defs><linearGradient id="1" gradientUnits="userSpaceOnUse" y1="9" x2="0" y2="45" spreadMethod="repeat"><stop stop-color="#fff" stop-opacity="0.4"/><stop offset="1" stop-color="#fff" stop-opacity="0"/></linearGradient><radialGradient id="0" gradientUnits="userSpaceOnUse" cx="5.291" cy="37.82" r="14.986" gradientTransform="matrix(2.48139 0 0 1.75106 -7.77 -28.14)"><stop stop-color="#ff8b36"/><stop offset="1" stop-color="#ffdf4a"/></radialGradient></defs><path d="m 22.11 47.676 c 28.988 2.758 36.793 -43.734 7.02 -47.35 c -27.371 -4.473 -41.469 37.672 -14.27 46.1 c 2.297 0.926 4.813 0.906 7.242 1.25" fill="#ffd600"/><g fill-rule="evenodd"><path d="m 29.02 7.582 c -0.859 0 -1.73 0.156 -2.555 0.492 c -2.086 0.848 -3.316 2.613 -3.359 4.469 c 0.898 0.035 1.816 -0.113 2.684 -0.465 c 2.078 -0.848 3.277 -2.641 3.23 -4.496 m -5.969 5.676 c -3.84 0 -6.961 2.473 -6.961 5.512 c -0.156 0.98 -0.418 1.766 -0.805 2.691 c -0.629 1.398 -1.809 2.586 -2.871 3.902 c -1.059 1.316 -1.992 2.77 -1.992 4.656 c -0.027 3.801 3.867 7.891 7.512 9.227 c 0.863 0.297 1.75 0.277 2.59 0.215 c 0.004 0 0.008 0 0.008 0 h 0.066 c 0.84 -0.063 1.664 -0.168 2.504 -0.172 c 0.84 0.008 1.668 0.109 2.504 0.172 h 0.066 c 0.004 0 0.008 0 0.012 0 c 0.84 0.063 1.723 0.082 2.586 -0.215 c 4.887 -2.461 7.172 -5.281 7.488 -8.984 c -4.719 -0.188 -8.426 -3.301 -8.43 -7.07 c 0 -1.93 0.984 -3.773 2.727 -5.113 c -0.434 -2.711 -3.363 -4.816 -6.902 -4.816 h -0.02 c -0.02 0 -0.039 0 -0.059 0 c -0.008 0 -0.016 0 -0.02 0" fill-opacity="0.149"/><path d="m 29.02 6.875 c -0.859 0 -1.73 0.152 -2.555 0.488 c -2.086 0.852 -3.316 2.617 -3.359 4.469 c 0.898 0.035 1.816 -0.113 2.684 -0.465 c 2.078 -0.848 3.277 -2.641 3.23 -4.492 m -5.969 5.672 c -3.84 0 -6.961 2.473 -6.961 5.512 c -0.156 0.98 -0.418 1.77 -0.805 2.695 c -0.629 1.395 -1.809 2.586 -2.871 3.902 c -1.059 1.313 -1.992 2.77 -1.992 4.652 c -0.027 3.805 3.867 7.891 7.512 9.227 c 0.863 0.301 1.75 0.281 2.59 0.215 c 0.004 0 0.008 0 0.008 0 h 0.066 c 0.84 -0.059 1.664 -0.164 2.504 -0.168 c 0.84 0.008 1.668 0.109 2.504 0.168 h 0.066 c 0.004 0 0.008 0 0.012 0 c 0.84 0.066 1.723 0.086 2.586 -0.215 c 4.887 -2.461 7.172 -5.281 7.488 -8.98 c -4.719 -0.191 -8.426 -3.301 -8.43 -7.078 c 0 -1.926 0.984 -3.773 2.727 -5.109 c -0.434 -2.711 -3.363 -4.816 -6.902 -4.816 h -0.02 c -0.02 -0.004 -0.039 -0.004 -0.059 0 c -0.008 0 -0.016 0 -0.02 0" fill="url(#0)"/><path d="m 29.02 6.875 c -0.859 0 -1.73 0.152 -2.555 0.488 c -2.086 0.852 -3.316 2.617 -3.359 4.469 c 0.898 0.035 1.816 -0.113 2.684 -0.465 c 2.078 -0.848 3.277 -2.641 3.23 -4.492" fill="#66b03d"/></g><g fill="none" transform="matrix(0.84516 0 0 0.70925 2.824 6.165)"><path d="m 30.473 1.535 c -3.064 0.198 -5.68 2.897 -5.93 5.943 c 3.148 -0.094 5.773 -2.82 5.93 -5.943 m -6.545 7.953 c -3.938 -0.121 -7.811 3.255 -7.732 7.27 c 0 0.022 0 0.044 -0.005 0.066 c -0.361 3.167 -1.789 6.075 -3.734 8.52 c -2.052 2.616 -3.54 5.932 -2.782 9.198 c 0.989 4.472 4.132 8.482 8.208 10.558 c 1.183 0.49 2.45 0.441 3.804 0.303 c 1.363 -0.138 2.801 -0.358 4.271 -0.05 l -0.023 -0.006 c 1.955 0.314 3.975 0.264 5.394 -1.057 c 0.023 -0.022 0.042 -0.039 0.065 -0.055 c 3.67 -2.39 6.632 -6.174 7.03 -10.58 c 0.005 -0.033 0.009 -0.072 0.023 -0.105 c 0.042 -0.132 0.032 -0.187 0.032 -0.198 c -0.042 -0.022 -0.291 -0.088 -0.624 -0.099 c -0.342 -0.011 -0.749 0 -1.155 -0.044 c -0.333 -0.039 -0.679 -0.149 -0.975 -0.38 c -6.415 -1.911 -9.484 -10.409 -5.264 -15.779 c 0.037 -0.05 0.083 -0.088 0.134 -0.116 c 0.61 -0.369 0.874 -0.76 0.98 -1.19 c 0.102 -0.43 0.037 -0.931 -0.176 -1.471 c -0.421 -1.074 -1.4 -2.225 -2.191 -2.947 c -1.447 -1.217 -3.355 -1.873 -5.25 -1.84 c -0.009 0 -0.014 0 -0.023 0" stroke-opacity="0.4" stroke="#000"/><path d="m 29.21 2.824 c -1.539 0.573 -2.796 1.856 -3.374 3.404 c 1.576 -0.529 2.833 -1.812 3.374 -3.404 m -5.315 7.639 c -3.369 -0.105 -6.799 2.891 -6.729 6.279 c 0 0.066 -0.005 0.127 -0.014 0.193 c -0.384 3.387 -1.904 6.455 -3.938 9.02 l 0.005 -0.011 c -1.946 2.489 -3.263 5.53 -2.602 8.383 c 0 0.006 0 0.006 0 0.011 c 0.92 4.153 3.873 7.925 7.658 9.87 c 0.929 0.38 1.992 0.364 3.309 0.231 c 1.331 -0.132 2.879 -0.391 4.566 -0.033 l -0.069 -0.017 c 1.835 0.297 3.485 0.215 4.58 -0.81 c 0.065 -0.055 0.129 -0.105 0.199 -0.149 c 3.286 -2.142 5.856 -5.464 6.438 -9.22 c -0.236 -0.006 -0.425 0.006 -0.721 -0.028 c -0.356 -0.044 -0.813 -0.187 -1.262 -0.468 c -7.01 -2.187 -10.274 -11.346 -5.629 -17.261 c 0.111 -0.143 0.245 -0.259 0.397 -0.352 c 0.434 -0.264 0.49 -0.413 0.532 -0.584 c 0.042 -0.171 0.028 -0.468 -0.134 -0.887 c -0.324 -0.826 -1.22 -1.911 -1.932 -2.561 c -1.257 -1.052 -2.935 -1.636 -4.59 -1.608 c -0.023 0 -0.046 0 -0.069 0" stroke="url(#1)" stroke-linejoin="round" stroke-linecap="round"/></g></svg>