<svg xmlns="http://www.w3.org/2000/svg" viewBox="0 0 48 48"><path d="m 24.13 47.82 c -31.664 3.605 -31.23 -47.984 0.563 -47.37 c 29.566 -1.703 32.23 50.18 -0.563 47.37" fill="#818181"/><path d="m 19.06 19.379 h 10.391 c 1.109 0 2.01 1.484 2.01 3.316 v 6.563 c 0 1.832 -0.902 3.316 -2.01 3.316 h -10.391 c -1.109 0 -2.01 -1.484 -2.01 -3.316 v -6.563 c 0 -1.832 0.902 -3.316 2.01 -3.316" fill="#c1f200"/><path d="m 15.223 37.883 c -0.137 -0.078 -0.52 -0.242 -0.844 -0.367 c -1.207 -0.465 -2.09 -1.461 -2.488 -2.809 c -0.281 -0.633 -0.5 -1.168 -0.457 -1.656 c 0.031 -0.387 0.102 -3.836 0.152 -7.672 c 0.121 -9.172 0.125 -9.277 0.395 -10.09 c 0.516 -1.555 1.402 -2.449 2.84 -2.871 c 0.25 -0.074 0.656 -0.191 0.906 -0.266 c 0.359 -0.105 2.199 -0.125 8.727 -0.102 c 8.168 0.027 8.285 0.031 9.08 0.254 c 1.059 0.297 1.684 0.652 2.238 1.277 c 0.52 0.586 0.672 0.859 0.965 1.734 c 0.195 0.582 0.215 0.949 0.281 4.629 c 0.039 2.199 0.082 6.234 0.094 8.969 l 0.023 4.969 l -0.297 0.828 c -0.523 1.461 -1.313 2.336 -2.512 2.797 c -0.324 0.129 -0.719 0.297 -0.875 0.379 c -0.414 0.211 -17.84 0.203 -18.23 -0.012 m 2.672 -4.496 c 0.832 0.031 0.215 -0.348 -0.09 -0.465 c -0.492 -0.156 -0.805 -0.559 -1.184 -0.762 c -0.105 0.063 -0.117 1.105 -0.012 1.207 c 0.391 0.043 0.918 0.051 1.285 0.02 m 14.258 -0.469 c 0.031 -0.336 -0.02 -0.652 -0.098 -0.973 c -0.82 0.762 -1.262 1.027 -1.824 1.395 c 0.344 0.156 1.051 0.09 1.508 0.063 c 0.309 0.063 0.387 -0.063 0.414 -0.484 m -3.938 -3.586 c 1.977 -1.273 2.945 -1.957 2.945 -2.074 c 0.004 -0.156 -0.152 -0.18 -1.434 -0.203 l -1.438 -0.031 l -0.367 -2.617 c -0.195 -1.203 -0.383 -2.25 -0.645 -3.594 l -5.594 -0.039 l -0.105 0.305 c -0.098 0.285 -0.449 2.645 -0.73 4.922 l -0.125 1.023 l -1.59 0.031 c -1.477 0.023 -1.59 0.039 -1.59 0.219 c 0 0.125 0.188 0.305 0.531 0.504 c 0.289 0.172 1.801 1.141 3.352 2.16 c 1.555 1.016 2.871 1.848 2.926 1.848 c 1.371 -0.77 2.742 -1.73 3.863 -2.453 m 7.387 -7.582 c 0 -0.059 0.129 -0.398 0.18 -0.496 c 0.16 -0.316 0.336 -2.281 0.383 -3.633 c -0.012 -1.023 -0.281 -2.414 -0.949 -3.504 c -0.34 -0.582 -1.484 -1.023 -2.484 -1.266 c -0.559 -0.133 -1.719 -0.16 -6.914 -0.172 c -7.758 -0.02 -9.199 0.063 -9.895 0.246 c -1.309 0.344 -2.512 0.957 -3.035 2.125 c -0.426 0.957 -0.52 1.754 -0.371 3.148 c 0.184 0.938 -0.063 2.152 0.465 2.988 c 0.523 0.738 0.688 0.984 1.254 1.688 c 0.098 0.242 0.105 0.246 0.184 0.051 c 0.047 -0.113 0.09 -0.781 0.098 -1.484 c 0.008 -0.707 0.047 -2.066 0.09 -3.02 c 0.063 -1.496 0.105 -1.805 0.293 -2.172 c 0.246 -0.477 0.699 -0.863 1.223 -1.043 c 0.242 -0.082 2.605 -0.117 8.27 -0.113 c 7.504 0 7.953 0.012 8.336 0.191 c 0.5 0.234 0.895 0.652 1.121 1.188 c 0.141 0.34 0.188 0.949 0.258 3.539 c 0.07 2.641 0.102 3.262 0.176 3.566 c 0.332 -0.723 0.934 -1.18 1.32 -1.824" fill="#2d2d2d"/></svg>