<svg xmlns="http://www.w3.org/2000/svg" viewBox="0 0 48 48"><path d="m 44.26 11.941 c -35.836 -42.25 -70.29 44.621 -14.871 35.695 c 12.152 -1.957 24.527 -24.313 14.871 -35.695" fill="#ffd2bf"/><path d="m 99.04 197.88 l -25.833 -14.25 l -0.125 -17.229 c -0.083 -9.479 -0.646 -20.437 -1.25 -24.375 c -1.042 -6.792 -1.625 -7.417 -11.313 -12.313 c -5.625 -2.833 -10.229 -5.521 -10.271 -5.979 c -0.021 -0.438 3.125 -4.583 8.979 -7.729 c 5.875 -3.167 9.958 -5.313 9.958 -5.917 c 0 -1.854 -4.958 -6.792 -12.188 -10.04 c -3.729 -1.688 -6.771 -3.875 -6.75 -4.875 c 0 -0.979 8.979 -6.583 19.938 -12.458 c 10.5 -5.604 20.896 -11.313 30.792 -17.875 l 13.604 7.479 c 7.458 4.104 13.813 7.688 14.1 7.958 c 0.479 0.438 -3.667 2.792 -33.35 18.75 c -16.208 8.729 -16.646 9.146 -13.875 12.5 c 2.104 2.5 5.563 4.479 24.875 14.1 c 19.458 13.06 24 11.333 28.08 7.958 c 2.333 0 35.27 -17.667 39.521 -21.19 c 4.02 -3.354 3.25 -4.813 -4.479 -8.583 c -12.75 -7.083 -10.271 -5.188 -20.375 -11.667 c -2.458 0.146 -18.875 -11.292 -18.854 -13.146 c 10.271 -14.292 6 -11.604 16.646 -18.604 c 1.5 0 57.688 32.604 58.52 33.958 c 0.5 0.833 -1.417 2.792 -4.292 4.375 c -8.75 4.792 -15.229 9.333 -15.792 11.06 c -0.292 0.896 4.271 4.229 10.125 7.375 c 5.875 3.167 10.458 6.354 10.208 7.104 c -0.25 0.75 -4.854 3.708 -10.25 6.563 l -9.792 5.208 l -0.458 24.21 c -0.25 13.313 -1.063 24.21 -1.792 24.21 c -0.75 0 -12.833 6.271 -26.875 13.938 c -14.02 7.667 -26.875 13.896 -28.563 13.833 c -1.667 -0.063 -14.667 -6.542 -28.875 -14.354 m 15.583 -44.48 c 9.292 -8.625 7.979 -11.313 -2.625 -5.333 l -8.771 4.958 l -10.271 -5.708 c -5.667 -3.146 -10.729 -7.437 -11.25 -6.917 c -0.521 0.521 3.771 7.875 9.542 13.708 c 11.979 17.792 15.688 6.458 23.375 -0.708 m 52.23 1.646 c 5.354 -5.333 9.708 -10.5 9.708 -11.479 c 0 -2.167 -4.354 -2.375 -5.646 -0.271 c -0.521 0.833 -4.396 3.438 -8.625 5.813 l -7.688 4.292 l -9.521 -5.083 c -6 -3.208 -9.542 -4.313 -9.542 -3.02 c 0 2.188 17.958 19.458 20.229 19.458 c 0.75 0 5.75 -4.354 11.08 -9.708" transform="matrix(0.1875 0 0 0.1875 -0.125 0)" fill="#f37220" stroke="#ffd2bf" stroke-width="4.98"/><g fill="#ef0306" stroke="#ef0306"><path d="m 126.84 116.09 l -11.857 -4.314 l -11.827 -4.4 l 9.669 -8.115 l 9.721 -8.04 l 2.197 12.432" transform="matrix(0.39487 0.07156 0.13981 -0.20212 -37.21 33.711)" stroke-width="3.035"/><path d="m 114.09 -16.262 h 36.12 v 94.47 h -36.12" transform="matrix(0.11603 0 0 0.11102 8.391 11.509)" stroke-width="6.1"/></g></svg>