<svg xmlns="http://www.w3.org/2000/svg" viewBox="0 0 48 48"><path d="m 47.09 29.426 c -2.945 19.426 -29.09 24.625 -40.625 10.758 c -10.164 -10.301 -7.633 -30.02 4.828 -36.777 c 14.316 -9.05 35.17 2.137 36.31 20.14 c 0.117 1.973 -0.051 3.969 -0.516 5.879" fill="#192338"/><g stroke="#010000"><g transform="matrix(0.1875 0 0 0.1875 21.386 25.361)"><path d="m 12 4.907 c -6.02 -0.458 -8.375 -0.937 -10.979 -2.25 c -6.771 -3.333 -18.313 -14.896 -19.771 -19.75 c -0.563 -1.875 -0.563 -4.229 0 -9.229 c 0.896 -7.833 0.958 -12 0.208 -13.167 c -0.292 -0.458 -2.542 -1.417 -5.02 -2.083 c -5.458 -1.521 -7.896 -3.542 -7.604 -6.333 c 0.146 -1.625 0.5 -1.979 1.979 -2.042 c 2.604 -0.104 4.208 -1.896 7.104 -7.979 c 1.854 -3.896 3.125 -5.708 4.521 -6.396 c 1.562 -0.813 6.521 -1.021 26.896 -1.188 c 33.958 -0.271 37.06 -2.146 43.1 6.958 c 2.979 4.5 7.271 6.896 9.813 6.938 c 5.292 2 2.292 7.04 -1.021 9.125 c -0.958 0.458 -3.604 1.083 -5.875 1.396 c -6.688 0.917 -6.708 1.042 -3.042 12.1 c 3.604 10.75 4 14.708 1.875 17.708 c -0.771 1.063 -4.375 4.854 -8.04 8.396 c -5.563 5.396 -7.208 6.604 -10.188 7.5 c -3.896 1.146 -11.25 1.229 -23.958 0.271" fill="#727a85" stroke-width="0.029"/><path d="m -52.44 23.386 l -0.375 -11.06 h 141.69 l -0.25 8.896 c -0.333 11.708 -1.688 14.292 -8.417 15.979 c -1.542 0.396 -29.562 0.896 -63.52 1.167 c -33.438 0.271 -61.31 0.75 -61.979 1.083 c -2.75 0.417 -6.917 -9.854 -7.146 -16.06 m 30.04 5.542 c 1.125 -2.25 -2.667 -8.02 -4.5 -8.792 c -2.917 -1.25 -16.1 -1.458 -17.15 -1.042 c -0.729 0.313 -1.083 1.375 -1.083 3.354 c 0 3.604 1.229 4.563 8.25 6.521 c 6.458 1.792 10.688 1.583 11.604 -0.229 l -2.458 3.063 m 107.96 -3.125 c 2 -2.125 2.042 -4.896 0.438 -7.02 c -1.667 -2.188 -9.458 -2.813 -12.521 -1.125 c -1.667 0.917 -4.417 4.313 -4.417 5.958 c 0 2.958 4.854 5 9.333 5 c 2.958 0 5.813 -1.375 7.167 -2.813" fill="#622a01" fill-opacity="0.98" stroke-width="0.03"/></g><g transform="scale(0.1875)"><g fill="#040303"><path d="m 78.75 168.83 c -3.479 -0.313 -7.104 -0.875 -8.04 -1.271 c -2.625 -1.083 -4.25 -4.396 -4.271 -8.75 c -0.021 -4.458 1.667 -7.313 4.708 -7.979 c 3.167 -0.688 28.438 -0.646 79.58 0.167 c 26.563 0.417 48.35 0.792 48.42 0.833 c 0.042 0.063 1.604 3.542 0.604 8.08 l -1.938 8.792 l -32.979 0.438 c -41.458 0.563 -77.854 0.438 -86.08 -0.292 m 7.5 -6.125 c 0.75 -2.229 -0.417 -5.604 -2.083 -6.04 c -5.375 -1.438 -11.521 -2.521 -12.375 -2.208 c -1.208 0.458 -1.417 3.854 -0.354 5.813 c 0.417 0.792 2.375 2.792 5.167 3.604 c 8.292 2.438 8.792 1.396 9.646 -1.167 m 106 -0.063 c 1.958 -1.958 3.229 -3.458 1.646 -5.396 c -1.625 -2.02 -10.313 -1.146 -13.292 0.396 c -1.625 0.833 -1.896 3.563 -1.896 5.083 c 0 2.708 0.688 2.792 9.167 2.167 c 2.875 -0.208 3.042 -0.917 4.375 -2.25" stroke-width="0.043"/><g stroke-width="0.029"><path d="m 118.06 93.23 c -13 -0.542 -24.75 -1.188 -26.08 -1.458 l -2.458 -0.5 l 3 -6 c 4.146 -8.292 6.813 -12.333 8.688 -13.04 c 5.167 -1.958 43.04 -2.354 54.23 -0.563 c 5.063 0.813 5.708 1.458 10.229 10.146 c 5.625 10.833 4.563 11.854 -12.583 12.167 c -6.25 0.104 -22 -0.229 -35.02 -0.771"/><path d="m 102.29 124.31 c -2.604 -1.583 -3.5 -3.938 -1.938 -5.083 c 2.938 -2.146 13.729 -1.688 15.688 0.688 c 3.292 3.958 -8.333 7.688 -13.75 4.396"/><path d="m 151.46 124.73 c -2.792 -0.979 -3.708 -3.063 -2.25 -5.125 c 0.958 -1.375 1.438 -1.479 5.771 -1.188 c 5.875 0.375 9.896 2.104 9.604 4.104 c -0.375 2.646 -8.146 3.958 -13.12 2.208"/></g></g><g fill="#fffd58"><path d="m 60.46 145.02 c -0.333 -7.417 1.5 -7.354 1.771 -9.542 c 0.438 -3.542 6.188 -20.25 15.938 -32.396 c 2.729 -3.417 4.04 -5.667 4.333 -7.542 c 0.313 -2.02 0.667 -2.563 1.438 -2.271 c 0.563 0.208 2.979 0.875 5.396 1.458 c 2.417 0.604 4.771 1.375 5.229 1.729 c 1.042 0.813 1.063 4.146 0.063 13.292 c -0.688 6.396 -0.646 7.438 0.438 10.25 c 2.042 5.333 14.542 17.333 20.813 19.938 c 2.625 1.104 23.333 2.625 29.21 2.167 c 2.229 -0.188 5.396 -0.938 7.06 -1.667 c 3.979 -1.771 15.375 -12.688 17.25 -16.542 c 0.792 -1.625 1.708 -3.125 2.042 -3.333 c 0.354 -0.208 0.354 -0.833 0.021 -1.5 c -1.313 -2.583 -7.417 -21.563 -7.104 -22.08 c 0.208 -0.313 2.542 -0.938 5.188 -1.375 c 2.667 -0.438 5.5 -1.208 6.333 -1.729 c 1.417 -0.896 1.5 -0.854 1.5 0.75 c 0 2.417 1.438 4.938 5.375 9.438 c 7.479 8.542 16.688 23.708 18.542 30.542 c 0.417 1.458 0.729 4.979 0.729 7.833 v 5.167 h -138.6 c -0.813 -1.813 -5.833 -3.667 -2.979 -2.583" stroke-width="0.029"/><path d="m 159.73 70.65 c -1.167 -0.458 -14.875 -0.938 -32.5 -1.146 c -16.771 -0.208 -30.688 1.188 -30.688 0.979 c 0 -0.208 0.521 -2.813 0.896 -3.646 c 0.667 -1.5 1.708 -1.563 30.917 -1.563 h 30.21 l 1.813 2.854 c 1 1.583 1.708 2.958 1.583 3.083 c -0.125 0.146 -1.146 -0.125 -2.229 -0.563" stroke-width="0.031"/><path d="m 96.79 181.67 c -12.729 -0.646 -16.04 -0.688 -25.521 -2.333 c -5.917 -1.021 -3.146 -3.917 -1.583 -4.917 c 0.479 -0.313 27.917 -0.75 60.958 -0.979 c 42.958 -0.292 61.02 -0.646 63.29 -1.208 c 2.063 -0.521 3.771 -1.5 4.875 -2.792 c 1.896 -2.25 2.02 -1.854 0.896 2.625 c -1.604 6.438 -2.958 7.188 -14.75 8.146 c -9.979 0.833 -17.188 0.813 -17.708 0 c -27.417 2.396 -46.813 2.396 -70.46 1.458" stroke-width="0.029"/></g><g fill="#f4f4f4" fill-opacity="0.98" stroke-width="0.018"><path d="m 77.896 163.94 c -1.729 -0.521 -3.813 -1.438 -4.625 -2.063 c -1.792 -1.354 -2.625 -3.729 -2.042 -5.729 c 0.375 -1.229 0.542 -1.354 1.979 -1.292 c 3.292 0.104 10.729 1.938 11.667 2.875 c 1 1 1.583 3.354 1.208 4.875 c -0.646 2.542 -2.854 2.896 -8.188 1.333"/><path d="m 179.63 164.42 c -0.708 -0.708 -0.625 -3.854 0.125 -5.292 c 0.729 -1.417 3.104 -2.271 7.521 -2.708 c 4.438 -0.438 7.125 0.646 7.125 2.854 c 0 0.354 -0.875 1.583 -1.958 2.75 c -1.417 1.521 -2.417 2.208 -3.604 2.479 c -2.458 0.563 -8.625 0.5 -9.208 -0.083"/></g></g></g></svg>