<svg xmlns="http://www.w3.org/2000/svg" viewBox="0 0 48 48"><path d="m 34.758 5.473 c 46.961 38.766 -52.621 65.46 -30.656 11.949 c 5.01 -12.199 18.215 -22.22 30.656 -11.949" fill="#ff8c00"/><path d="m 85.17 203.04 c -6.813 -0.333 -10.896 -2.854 -13.25 -8.188 c -2.146 -4.813 -18.917 -92.44 -18.75 -97.83 c 0.208 -5.646 3.208 -9.625 8.813 -11.729 c 5.708 -2.146 100.9 -19.02 106.63 -18.917 c 4.979 0.104 7.938 1.438 10.979 4.958 l 2.313 2.667 l 9.438 49.25 l 9.438 49.23 l -1.396 3.563 c -0.875 2.229 -2.542 4.458 -4.521 6 l -3.125 2.438 l -52.06 9.354 c -28.625 5.125 -53.17 9.271 -54.5 9.208 m 74.31 -52.854 c -0.542 -3.563 -1.271 -6 -1.958 -6.521 c -1.583 -1.229 -54.729 8.167 -56.52 9.979 c -0.938 0.938 -0.979 2.292 -0.229 6.188 c 0.563 2.958 1.396 5.292 2.063 5.688 c 0.833 0.542 8.02 -0.563 29.29 -4.479 l 28.21 -5.167 m -3.833 -21.271 c -0.083 -1.313 -1.042 -2.396 -3.375 -3.813 c -1.792 -1.083 -3.313 -2.396 -3.417 -2.875 c -0.104 -0.5 -0.667 -1.083 -1.271 -1.313 c -0.625 -0.208 -5.396 -3.813 -10.646 -8 c -5.229 -4.188 -10.229 -7.917 -11.08 -8.292 c -0.854 -0.396 -1.646 -1.125 -1.75 -1.667 c -0.104 -0.521 -0.771 -1.042 -1.5 -1.167 c -2.667 -0.438 -4.313 0.354 -5.292 2.521 c -0.563 1.229 -1.667 3.188 -2.479 4.354 c -0.813 1.167 -2.313 3.688 -3.333 5.604 c -1 1.917 -2.125 3.521 -2.479 3.583 c -0.375 0.063 -0.583 0.5 -0.5 0.938 c 0.083 0.458 -1 2.563 -2.417 4.708 c -1.417 2.125 -3.083 4.813 -3.729 5.938 c -0.625 1.146 -2.125 3.625 -3.313 5.521 c -2.271 3.583 -2.5 5.521 -0.708 5.854 c 0.583 0.104 13.729 -2.104 29.23 -4.917 l 28.17 -5.125" transform="scale(0.1875)" stroke-opacity="0.012" fill="#fff" fill-rule="evenodd" stroke="#fff" stroke-width="0.871"/></svg>