<svg xmlns="http://www.w3.org/2000/svg" viewBox="0 0 48 48"><path d="m 42.11 35.676 c 16.93 -19.07 -8.125 -39.25 -22.809 -34.29 c -14.68 4.961 -24.539 18.969 -14.953 31.25 c 9.586 12.277 19.01 24.12 35.938 5.05" fill="#ffa400"/><path d="m 24.24 39.11 c -0.094 -0.105 -0.539 -0.723 -0.988 -1.367 c -0.449 -0.641 -0.895 -1.199 -0.988 -1.234 c -0.109 -0.043 -0.551 0.316 -1.285 1.055 l -1.121 1.117 l -3.387 -3.395 c -1.867 -1.867 -3.391 -3.473 -3.391 -3.57 c 0 -0.094 0.734 -0.914 1.637 -1.816 c 2.156 -2.156 2.172 -2.379 0.195 -2.379 h -1.176 l -3.703 -3.797 v -2.949 l -0.004 -2.953 l 1.883 -1.895 l 1.887 -1.898 h 6.09 l 0.684 0.684 c 0.375 0.371 0.738 0.68 0.805 0.68 c 0.07 0 0.684 -1.145 1.363 -2.543 c 1 -2.059 1.281 -2.543 1.465 -2.543 c 0.18 0 0.477 0.5 1.469 2.484 c 0.73 1.465 1.309 2.484 1.402 2.484 c 0.086 0.004 0.453 -0.277 0.809 -0.621 l 0.652 -0.625 h 8.406 l 1 0.984 l 1 0.984 v 8.637 l -0.934 0.934 l -0.938 0.934 h -1.426 c -0.785 0 -1.512 0.031 -1.613 0.07 c -0.262 0.102 -0.965 1.055 -0.965 1.309 c 0 0.121 0.406 1.113 0.902 2.211 c 0.5 1.098 0.906 2.063 0.906 2.137 c 0 0.113 -1.047 2.543 -1.703 3.949 c -0.121 0.258 -0.547 0.52 -2.16 1.332 c -1.105 0.555 -2.074 1.01 -2.152 1.01 c -0.078 0 -0.605 -0.211 -1.176 -0.469 c -0.57 -0.258 -1.109 -0.441 -1.203 -0.406 c -0.094 0.035 -0.414 0.426 -0.715 0.867 c -0.508 0.742 -0.578 0.801 -0.957 0.801 c -0.246 0 -0.473 -0.078 -0.574 -0.199 m 6.625 -2.313 l 1.688 -0.832 l 0.777 -1.809 c 0.531 -1.238 0.758 -1.902 0.719 -2.098 c -0.078 -0.395 -1.445 -3.293 -1.555 -3.293 c -0.047 0 -0.484 0.602 -0.973 1.332 c -0.488 0.734 -1.711 2.551 -2.723 4.04 c -1.012 1.488 -1.805 2.734 -1.77 2.773 c 0.227 0.227 1.625 0.797 1.863 0.758 c 0.156 -0.023 1.043 -0.418 1.973 -0.871 m -10.09 0.047 c 0.438 -0.422 0.844 -0.855 0.902 -0.965 c 0.086 -0.16 -0.336 -0.84 -2.207 -3.527 c -1.277 -1.828 -2.395 -3.387 -2.484 -3.465 c -0.141 -0.113 -0.391 0.094 -1.5 1.242 c -0.734 0.762 -1.336 1.445 -1.336 1.523 c 0 0.152 5.594 5.957 5.742 5.957 c 0.051 0 0.445 -0.344 0.883 -0.766 m 5.109 -0.934 c 2.34 -3.371 9.34 -13.992 9.313 -14.13 c -0.02 -0.086 -0.996 -1.121 -2.172 -2.309 l -2.137 -2.156 h -12.508 l -2.254 2.184 c -1.242 1.199 -2.258 2.246 -2.258 2.324 c 0 0.141 2.719 4.03 3.664 5.242 c 0.27 0.344 1.977 2.781 3.793 5.418 c 2.211 3.203 3.363 4.785 3.48 4.762 c 0.094 -0.02 0.578 -0.621 1.078 -1.336 m -11.172 -9.355 c 0.238 -0.051 0.266 -0.098 0.18 -0.32 c -0.129 -0.344 -0.953 -1.629 -2.059 -3.211 c -0.488 -0.691 -0.883 -1.313 -0.883 -1.379 c 0 -0.063 1.309 -1.395 2.906 -2.961 l 2.91 -2.852 l 1.332 0.02 c 0.734 0.008 1.371 -0.02 1.414 -0.063 c 0.039 -0.043 -0.137 -0.277 -0.398 -0.523 l -0.477 -0.441 h -5.695 l -1.504 1.496 l -1.508 1.496 v 5.832 l 1.48 1.539 c 1.25 1.297 1.523 1.527 1.75 1.48 c 0.152 -0.031 0.398 -0.082 0.551 -0.113 m 22.621 -1.566 l 0.738 -0.719 l 0.035 -3.977 l 0.031 -3.977 l -0.789 -0.691 l -0.793 -0.688 h -2.051 c -1.129 -0.004 -2.844 -0.035 -3.809 -0.074 l -1.758 -0.074 l -0.492 0.453 c -0.281 0.266 -0.457 0.512 -0.41 0.586 c 0.055 0.086 0.637 0.129 1.801 0.129 h 1.723 l 1.293 1.324 c 0.711 0.73 1.965 2 2.789 2.836 c 0.824 0.832 1.496 1.566 1.496 1.629 c 0 0.063 -0.254 0.445 -0.563 0.848 c -0.309 0.406 -0.695 0.977 -0.859 1.273 c -0.168 0.293 -0.473 0.797 -0.676 1.117 c -0.207 0.32 -0.344 0.613 -0.305 0.652 c 0.039 0.039 0.473 0.07 0.965 0.07 h 0.898 m -10.871 -9.906 c 0.156 -0.016 0.301 -0.051 0.32 -0.078 c 0.055 -0.078 -0.152 -0.578 -0.91 -2.191 c -0.773 -1.652 -0.855 -1.797 -1.01 -1.703 c -0.195 0.121 -2.023 3.91 -1.945 4.04 c 0.066 0.109 2.336 0.07 3.543 -0.063"/><g transform="scale(0.1875)"><path d="m 78.54 112.73 c 5.396 -6.04 14.15 -12.667 19.542 -18.708 l 7.146 -0.083 c 16.1 -0.604 29.937 -0.771 46.06 -0.875 l -7.313 5.583 c -6.292 4.792 -12.271 9.917 -18.229 15.1 c -15.792 0.021 -33.729 0.375 -47.21 -1.021" fill="#ebcff4" stroke="#ebcff4" stroke-width="2.428"/><path d="m 135.04 194.15 c 0.938 -3.563 16.646 -54.19 20.15 -64.896 c 4.542 -13.896 3.02 -14.313 8.06 -14.5 c 5.667 -0.229 9.02 -0.604 21.438 0.333 c 2.5 0.208 2.02 1.563 1.688 2.396 c -0.792 2.125 -47.542 74.12 -51.29 78.917 c -2.063 3.438 -1.479 3.104 -0.042 -2.25" fill="#23c3fb" stroke="#23c3fb" stroke-width="1.608"/><path d="m 120.06 161.81 c -9.542 -28.04 -12.563 -36.438 -14.25 -39.458 l -0.958 -1.688 l -2.729 2.75 c -1.5 1.5 -4.917 5.312 -7.563 8.437 c -2.667 3.125 -4.938 6.729 -5.063 6.604 c -5.521 -7.354 -9.667 -14.13 -15.542 -22.04 l 1.271 -1.229 c 1.188 -1.167 1.292 -1.208 2.25 -0.938 c 2.438 0.688 23.25 1.396 41.792 1.396 l 12.917 -0.563 l 0.271 38.563 c 0.167 20.271 -2.854 35.708 -2.917 35.708 c -0.063 0 -4.333 -12.396 -9.479 -27.542" fill="#00c2ff" stroke="#00c2ff" stroke-width="0.753"/><path d="m 131.13 195.75 c 0 -0.625 -1.979 -7.875 -4.396 -16.1 c -2.417 -8.229 -4.396 -15.438 -4.396 -16.02 c 0 -0.75 1.208 -0.417 3.938 1.063 c 2.167 1.188 4.229 1.854 4.583 1.479 c 0.375 -0.354 0.833 -11.979 1.063 -25.792 l 0.396 -25.15 l 15.979 -0.104 c 13.1 1.375 12.438 -1.396 9.08 3.792 c -1.375 3.02 -19.438 59.62 -22.625 70.875 c -1 3.583 -1.958 8.08 -2.458 8.25 c -0.479 0.167 -1.167 -1.646 -1.167 -2.292" fill="#006eb7" stroke="#006eb7" stroke-width="2.149"/><g stroke-width="1.725"><g fill="#9bc9f6" stroke="#9bc9f6"><path d="m 109.31 166.25 l -19.229 -27.438 l 2.438 -3.083 c 1.354 -1.688 4.625 -5.542 7.292 -8.562 l 4.854 -5.479 l 1.708 3.833 c 4.563 10.333 23.271 67.06 22.396 67.958 c -0.125 0.104 -8.875 -12.12 -19.458 -27.23"/><path d="m 130.75 111.58 c 1.917 -1.708 8.02 -6.729 13.563 -11.125 l 10.08 -7.979 l 9.708 -0.042 l 20.958 21.25 l -25.667 0.146 c -14.12 0.083 -27.12 0.333 -28.896 0.542 l -3.229 0.354"/></g><path d="m 186.83 136.35 c -1 -0.417 -0.708 -1.167 2.438 -6.25 c 1.979 -3.187 4.917 -7.667 6.521 -9.958 l 2.938 -4.146 l -15.06 -15.688 l -15.06 -15.667 l -9.208 -0.042 c -5.063 0 -9.188 -0.25 -9.188 -0.542 c 0 -0.292 0.958 -1.479 2.125 -2.625 l 2.125 -2.083 l 20.313 0.417 l 20.313 0.438 l 4.125 3.667 l 4.125 3.646 l -0.333 20.813 l -0.333 20.833 l -3.771 3.854 c -3.729 3.813 -3.833 3.875 -7.354 3.833 c -1.958 -0.021 -4.083 -0.25 -4.708 -0.5" stroke-opacity="0.702" fill="#e01112" stroke="#e01112" fill-opacity="0.702"/><g stroke-opacity="0.631" fill-opacity="0.631"><path d="m 66.52 134.13 l -8.02 -8.04 v -30.729 l 15.833 -16 h 30.417 l 4.375 4.583 h -14.583 l -15.438 15.479 c -8.479 8.5 -15.438 15.729 -15.438 16.06 c 0 0.333 3.479 5.917 7.75 12.396 c 4.271 6.479 7.75 12.04 7.75 12.333 c 0 0.688 -0.542 0.979 -2.813 1.521 c -1.688 0.417 -2.458 -0.188 -9.833 -7.604" fill="#34d444" stroke="#34d444"/><path d="m 91.88 185.79 c -7.396 -7.646 -14.02 -14.708 -14.708 -15.667 l -1.271 -1.771 l 6.646 -6.917 c 3.646 -3.792 6.938 -6.896 7.333 -6.896 c 0.667 0 13.438 17.729 21.542 29.875 c 3.354 5.04 3.896 6.229 3.313 7.292 c -0.833 1.604 -7.792 7.958 -8.729 7.979 c -0.375 0.021 -6.729 -6.229 -14.12 -13.896" fill="#ff0" stroke="#ff0"/></g><path d="m 148.08 198.52 l -3.75 -1.792 l 9.792 -14.708 c 14.229 -21.396 18.667 -27.563 19.458 -27.06 c 0.771 0.5 6.667 12.896 7.271 15.333 c 0.458 1.813 -0.375 4.396 -4.563 14.354 l -2.979 7.04 l -8.479 4.063 c -4.688 2.229 -9.521 4.167 -10.75 4.313 c -1.563 0.188 -3.458 -0.313 -6 -1.542" fill="#fff" stroke="#fff"/><path d="m 119.63 82.13 c 1.958 -4.75 8.583 -17.708 9.271 -18.15 c 0.417 -0.25 2.292 3.02 4.771 8.292 c 5.896 12.521 5.938 11.375 -0.417 11.875 c -2.917 0.25 -7.417 0.438 -9.979 0.438 h -4.646" stroke-opacity="0.702" fill="#f558f5" stroke="#f558f5" fill-opacity="0.702"/></g></g></svg>