<svg xmlns="http://www.w3.org/2000/svg" viewBox="0 0 48 48"><path d="m 15.328 47.13 c 68.44 8.313 11.711 -87.24 -13.43 -26.11 c -3.855 10.742 -0.508 22.824 13.43 26.11" fill="#546a2f"/><path d="m 21.04 24.352 c -3.617 -1.293 -5.754 -4.961 -5.02 -8.613 c 2.031 -7.305 10.852 -8.422 14.332 -2 c 0.563 1.074 0.66 1.566 0.66 3.371 c 0 1.73 -0.102 2.313 -0.578 3.23 c -1.867 3.59 -5.84 5.289 -9.395 4.02" fill="#56d894"/><path d="m 20.973 23.941 c -2.438 -0.902 -4.551 -4.04 -4.578 -6.789 c -0.016 -2 1.227 -4.793 2.434 -5.469 c 0.402 -0.223 0.379 -0.125 -0.16 0.727 c -0.859 1.352 -1.02 2.953 -0.363 3.637 c 0.738 0.77 1.133 0.637 1.891 -0.641 c 0.809 -1.363 0.801 -1.359 1.938 -2.133 c 1.191 -0.809 2.488 -0.809 3.23 0.004 c 0.301 0.332 0.75 0.605 0.996 0.605 c 0.637 0.09 1.332 0.672 1.02 1.215 c -0.145 0.234 -0.191 0.609 -0.109 0.832 c 0.141 0.379 0.191 0.379 0.738 0.004 c 0.59 -0.402 0.707 -1.016 0.598 -3.141 l -0.039 -0.727 l 0.578 0.727 c 1.391 1.75 1.695 5.215 0.656 7.445 c -0.73 1.578 -2.234 3.043 -3.711 3.617 c -1.477 0.578 -3.691 0.613 -5.113 0.09" fill="#039a0f"/><path d="m 21.66 24.23 c -0.977 -0.254 -1.207 -0.375 -2.285 -1.18 c -1.066 -0.797 -1.598 -1.395 -2.215 -2.48 c -0.551 -0.977 -0.676 -1.574 -0.41 -1.98 c 0.164 -0.254 0.613 -0.395 0.613 -0.195 c 0.191 0.355 0.547 0.68 0.922 0.684 c 0.199 0 0.48 0.094 0.621 0.211 c 0.234 0.191 0.258 0.285 0.238 1.055 c -0.031 1.203 0.082 1.379 1.301 1.977 c 0.551 0.266 1.055 0.484 1.129 0.484 c 0.07 0 0.508 -0.246 0.965 -0.547 c 0.957 -0.625 1.313 -0.68 1.797 -0.273 c 0.504 0.426 1.035 0.602 1.82 0.602 c 0.941 0 1.344 -0.184 2.203 -1.012 c 1.203 -1.156 1.297 -1.563 0.473 -2.01 c -0.633 -0.348 -0.703 -0.617 -0.223 -0.863 c 0.406 -0.211 0.648 -0.215 0.73 -0.004 c 0.086 0.227 0.34 0.207 0.406 -0.027 c 0.031 -0.105 0.09 -0.438 0.133 -0.738 c 0.098 -0.715 0.332 -1.176 0.57 -1.129 c 0.543 1.082 -0.324 3.184 -0.863 4.277 c -1.234 2.457 -4.953 3.938 -7.93 3.152" fill="#03640a"/><g fill="#fff"><path d="m 10.293 31.29 c -0.234 -0.281 -0.301 -0.883 -0.188 -1.801 c 0.207 -1.727 1.066 -2.703 2.453 -2.793 c 2.074 -0.133 2.52 -0.016 2.703 0.707 c 0.266 1.039 -0.41 3.418 -1.102 3.898 c -0.805 0.555 -3.395 0.547 -3.863 -0.012 m 3.633 -1.59 c 0.746 -1.48 0.664 -2.01 -0.379 -2.477 c -0.617 -0.277 -0.813 -0.234 -1.395 0.301 c -1.395 1.293 -1.156 3.75 0.348 3.582 c 0.586 -0.066 0.91 -0.387 1.422 -1.406"/><path d="m 16.09 31.438 c -0.098 -0.152 0.051 -1.266 0.328 -2.477 c 0.43 -1.879 0.598 -2.219 1.145 -2.324 c 0.355 -0.066 0.645 -0.105 0.645 -0.086 c 0 0.016 -0.238 0.852 -0.531 1.855 c -0.621 2.137 -0.332 2.559 0.941 2.559 c 0.496 0 0.68 0.313 0.578 0.473 c -0.227 0.359 -2.879 0.363 -3.105 0"/><path d="m 32.926 30.12 c 0.48 -3.309 0.266 -3.445 2.527 -3.535 c 1.773 -0.074 2.172 0.172 2.301 0.652 c 0.215 0.809 -0.09 1.98 -0.512 1.98 c -0.617 0 -0.711 0.453 -0.266 1.289 c 0.543 1.023 0.531 1.211 -0.07 1.207 c -0.273 0 -0.711 -0.375 -0.977 -0.832 c -0.672 -1.16 -1.801 -1.16 -2.059 0.004 c -0.121 0.539 -0.359 0.832 -0.684 0.832 c -0.441 0 -0.469 -0.172 -0.262 -1.598 m 3.352 -1.5 c 0.398 -0.73 0.059 -1.184 -0.781 -1.391 c -0.836 -0.207 -0.801 -0.102 -1.055 1.086 c -0.188 0.887 -0.172 0.902 0.809 0.902 c 0.699 0 0.824 -0.227 1.027 -0.598"/><path d="m 29.492 37.414 c 0 -0.227 0.414 -1.172 0.918 -2.105 c 0.504 -0.934 1.043 -1.938 1.195 -2.23 c 0.188 -0.352 0.578 -0.531 1.168 -0.531 c 1.039 0 1.148 0.25 1.422 3.262 c 0.172 1.91 0.148 2.01 -0.406 2.01 c -0.395 0 -0.617 -0.203 -0.676 -0.625 c -0.07 -0.492 -0.301 -0.641 -1.098 -0.707 c -0.848 -0.07 -1.059 0.031 -1.336 0.625 c -0.352 0.762 -1.188 0.973 -1.188 0.301 m 3.391 -2.785 c 0 -1.352 -0.652 -1.789 -0.934 -0.625 c -0.082 0.344 -0.238 0.906 -0.348 1.25 c -0.168 0.539 -0.094 0.625 0.543 0.625 c 0.688 0 0.738 -0.086 0.738 -1.25"/><path d="m 35.773 37.539 c -0.484 -0.297 -0.484 -0.488 -0.008 -2.641 c 0.402 -1.816 0.266 -2.391 1.051 -2.348 c 0.5 0.027 0.516 0.066 0.184 1.285 c -0.195 0.723 -0.336 1.73 -0.309 2.242 c 0.047 0.875 0.105 0.922 1.133 0.871 c 0.965 -0.051 1.035 -0.008 0.652 0.383 c -0.527 0.535 -1.992 0.645 -2.703 0.207"/><path d="m 26.523 37.29 c 0.164 -0.508 0.707 -3.555 0.711 -3.98 c 0 -0.117 -0.348 -0.047 -0.738 -0.047 c -0.387 0 -0.672 -0.289 -0.672 -0.441 c 0 -0.16 0.895 -0.262 2.117 -0.277 c 2.359 -0.031 2.863 0.617 1.242 0.801 c -0.723 0.082 -0.715 0.047 -1.223 2.184 c -0.445 1.871 -0.641 2.289 -1.078 2.289 c -0.395 0 -0.488 -0.133 -0.359 -0.527"/><path d="m 23 37.566 c 0 -0.141 0.121 -0.859 0.273 -1.598 c 0.152 -0.738 0.348 -1.809 0.438 -2.379 c 0.133 -0.867 0.273 -1.043 0.824 -1.043 c 0.988 -0.199 0.332 1.262 0.133 2.01 c -0.293 1.109 -0.531 2.297 -0.535 2.641 c -0.004 0.438 -0.172 0.625 -0.57 0.625 c -0.309 0 -0.563 -0.117 -0.563 -0.258"/><path d="m 18.555 37.551 c -0.547 -0.23 -0.637 -0.473 -0.637 -1.789 c 0 -2.176 0.813 -2.996 3.117 -3.16 c 1.43 -0.102 1.684 -0.051 1.684 0.34 c 0 0.379 -0.18 0.43 -0.988 0.281 c -1.352 -0.25 -2.289 0.395 -2.688 1.844 c -0.387 1.418 -0.004 1.988 1.25 1.867 c 0.906 -0.086 1.477 -1.055 0.621 -1.055 c -0.273 0 -0.375 -0.156 -0.273 -0.418 c 0.09 -0.227 0.477 -0.414 0.863 -0.414 c 0.668 0 0.691 0.055 0.5 1.18 c -0.109 0.648 -0.238 1.227 -0.293 1.281 c -0.234 0.25 -2.582 0.281 -3.156 0.043"/><path d="m 9.734 37.648 c 0 -0.098 0.266 -1.281 0.586 -2.637 l 0.59 -2.465 h 1.406 c 2.059 0 2.5 0.32 2.5 1.828 c 0 2.414 -1.152 3.445 -3.855 3.445 c -0.676 0 -1.227 -0.078 -1.227 -0.172 m 3.223 -1.023 c 0.309 -0.223 0.563 -0.863 0.652 -1.656 c 0.137 -1.199 0.094 -1.316 -0.625 -1.637 c -0.676 -0.305 -0.82 -0.281 -1.164 0.18 c -0.547 0.895 -0.316 1.879 -0.57 2.852 c -0.141 0.523 -0.059 0.625 0.516 0.625 c 0.375 0 0.91 -0.164 1.191 -0.363"/><path d="m 19.969 31.406 c 0.387 -0.758 0.34 -1.75 0.613 -2.457 c 0.23 -0.895 0.402 -1.625 0.504 -2.52 c 0.75 0.18 1.336 -0.148 1.348 0.262 c -0.066 0.426 -0.246 0.723 -0.25 1.105 v 0.668 h 1.152 c 1.113 0 1.156 -0.008 1.293 -0.309 c 0.051 -0.473 0.141 -1.02 0.227 -1.391 c 0 -0.273 0.215 -0.238 0.656 -0.238 c 0.445 0 0.496 0.027 0.496 0.301 c -0.02 0.969 -0.234 1.645 -0.508 2.484 c -0.105 0.512 -0.344 1.152 -0.355 1.629 c 0 0.359 -0.059 0.672 -0.125 0.695 c -0.07 0.023 -0.375 0.023 -0.68 0 c -0.539 -0.043 -0.551 -0.055 -0.551 -0.457 c 0 -0.227 0.055 -0.41 0.121 -0.41 c 0.129 -0.453 0.215 -0.813 0.371 -1.152 c 0 -0.25 -0.398 -0.32 -1.543 -0.277 l -0.984 0.035 c 0.023 0.645 -0.426 1.145 -0.43 1.695 v 0.523 l -0.68 0.039 c -0.633 0.039 -0.68 0.027 -0.676 -0.23"/><path d="m 25.977 31.648 c 0.086 -0.027 0.152 -0.156 0.152 -0.285 c 0.73 -1.18 1.422 -3.309 2.27 -4.484 c 0 -0.324 0.59 -0.352 1.605 -0.352 h 1.055 c 0.004 1.074 0.254 2.148 0.301 3.043 c 0.051 0.941 0.117 1.781 0.148 1.867 c -0.367 0.289 -0.75 0.207 -1.313 0.242 v -1.273 h -2.445 c -0.176 0.309 -0.316 0.645 -0.387 0.988 c 0 0.121 -0.043 0.227 -0.094 0.227 c -0.43 0.004 -0.867 0.074 -1.293 0.027 m 4.223 -3.242 v -1.273 h -0.32 c -0.324 0 -0.668 0.246 -0.668 0.477 c -0.34 0.441 -0.734 1.035 -0.82 1.52 l -0.074 0.547 h 1.883"/><path d="m 15.547 35.879 c 0.207 -1.168 0.34 -2.039 0.602 -3.293 c 0.504 -0.195 0.906 0 1.18 0.164 c 0.043 1.082 -0.516 1.996 -0.566 2.93 c -0.102 0.688 -0.301 1.238 -0.492 1.859 c 0 0.168 -0.105 0.211 -0.5 0.207 l -0.5 -0.008 c 0.063 -0.613 0.082 -1.297 0.277 -1.859"/></g><path d="m 26.988 17.07 c 0 1.73 -1.418 3.133 -3.164 3.133 c -1.746 0 -3.164 -1.402 -3.164 -3.133 c 0 -1.73 1.418 -3.133 3.164 -3.133 c 1.746 0 3.164 1.402 3.164 3.133" fill="#002001"/></svg>