<svg xmlns="http://www.w3.org/2000/svg" viewBox="0 0 48 48"><path d="m 45.42 14.164 c 9.18 22.887 -16.539 37.23 -32.551 32.574 c -11.176 -3.254 -16.746 -19.559 -8.809 -33.809 c 10.02 -17.977 34.29 -16.418 41.36 1.234" fill="#ff8c00"/><g fill="#fff"><path d="m 9.414 27.828 v -7.109 h 2.242 l 1.879 3.773 c 1.035 2.078 1.922 3.777 1.973 3.777 c 0.051 0 0.094 -1.699 0.094 -3.777 v -3.773 h 2.359 v 14.219 h -2.125 l -1.938 -3.859 c -1.063 -2.125 -1.977 -3.863 -2.027 -3.863 c -0.055 0 -0.098 1.738 -0.098 3.863 v 3.859 h -2.359"/><path d="m 19.57 22.914 v -7.52 l 2.805 0.082 c 2.625 0.078 2.84 0.109 3.387 0.508 c 1.703 1.242 1.949 4.688 0.445 6.18 l -0.449 0.449 l 0.543 0.461 c 0.938 0.793 1.262 1.641 1.262 3.285 c 0 1.664 -0.449 2.723 -1.496 3.527 c -0.531 0.406 -0.699 0.43 -3.527 0.484 l -2.969 0.063 m 5.395 -3.781 c 0.301 -0.578 0.324 -0.828 0.145 -1.484 c -0.191 -0.695 -0.559 -0.859 -1.934 -0.859 h -1.273 v 2.996 l 1.398 -0.066 c 1.371 -0.066 1.402 -0.074 1.664 -0.586 m -0.41 -5.559 c 0.273 -0.41 0.313 -1.344 0.078 -1.879 c -0.137 -0.313 -0.324 -0.367 -1.445 -0.418 l -1.285 -0.063 v 2.836 l 1.211 -0.063 c 1 -0.055 1.25 -0.125 1.441 -0.414"/><path d="m 28.19 25.977 c 0 -0.078 0.84 -3.43 1.859 -7.441 l 1.859 -7.301 l 1.172 -0.051 c 1.164 -0.051 1.176 -0.047 1.301 0.418 c 0.102 0.367 1.973 7.727 3.539 13.914 l 0.152 0.605 l -1.289 -0.055 l -1.285 -0.051 l -0.336 -1.344 l -0.34 -1.344 l -3.555 0.102 l -0.305 1.293 l -0.309 1.293 l -1.234 0.055 c -0.68 0.027 -1.234 -0.016 -1.23 -0.094 m 5.758 -6.566 c -0.129 -0.531 -0.359 -1.531 -0.512 -2.215 c -0.152 -0.688 -0.313 -1.246 -0.352 -1.246 c -0.039 0 -0.199 0.559 -0.363 1.246 c -0.16 0.684 -0.398 1.684 -0.523 2.215 l -0.234 0.973 h 2.215"/></g></svg>