<svg xmlns="http://www.w3.org/2000/svg" viewBox="0 0 48 48"><path d="m 5 11.59 c -15.836 17.406 9.141 44.18 30.05 33.36 c 21.14 -10.945 15.504 -47.18 -10.457 -44.09 c -7.727 0.918 -14.43 5.063 -19.598 10.738" fill="#ff8817"/><path d="m 3.328 27.984 c -0.102 -0.027 -0.211 -0.16 -0.246 -0.297 c -0.09 -0.324 -0.086 -6.332 0.004 -7.375 l 0.07 -0.836 l 0.836 -0.078 c 0.762 -0.074 3.09 0.059 4.109 0.234 c 0.281 0.051 0.633 -0.004 1.137 -0.172 c 0.855 -0.285 1.316 -0.238 1.816 0.184 c 0.746 0.625 0.82 1.172 0.715 5.242 l -0.082 3.055 h -2.25 l -0.074 -3.055 c -0.043 -1.684 -0.105 -3.219 -0.141 -3.414 c -0.066 -0.379 -0.301 -0.48 -0.414 -0.188 c -0.035 0.098 -0.066 1.305 -0.066 2.684 c 0 1.379 -0.031 2.813 -0.07 3.18 c -0.063 0.605 -0.098 0.684 -0.387 0.801 c -0.297 0.125 -1.707 0.07 -1.848 -0.07 c -0.027 -0.031 -0.09 -1.105 -0.137 -2.391 c -0.082 -2.273 -0.238 -4.059 -0.371 -4.27 c -0.109 -0.18 -0.242 -0.117 -0.316 0.141 c -0.039 0.137 -0.121 1.66 -0.188 3.391 c -0.063 1.727 -0.129 3.148 -0.141 3.16 c -0.055 0.059 -1.793 0.125 -1.957 0.078" fill="#cc1b00"/><path d="m 13.07 27.379 c -0.684 -0.742 -0.992 -2.465 -0.813 -4.523 c 0.137 -1.559 0.371 -2.313 0.879 -2.848 c 0.496 -0.52 1.094 -0.688 2.27 -0.637 c 0.777 0.031 0.957 0.078 1.363 0.359 c 0.695 0.484 0.773 0.715 0.852 2.582 l 0.074 1.645 l -0.871 0.07 c -1.234 0.105 -1.902 0.27 -2.031 0.508 c -0.164 0.305 -0.129 1.137 0.059 1.379 c 0.164 0.211 0.168 0.211 0.359 -0.023 c 0.105 -0.129 0.242 -0.316 0.301 -0.418 c 0.168 -0.277 0.984 -0.516 1.496 -0.434 c 0.781 0.125 0.953 0.68 0.5 1.641 c -0.48 1.02 -1.117 1.375 -2.461 1.371 c -0.738 -0.016 -1.457 -0.117 -1.977 -0.668 m 2.348 -5.227 c 0.039 -0.094 0.023 -0.332 -0.035 -0.523 c -0.137 -0.48 -0.766 -0.426 -0.902 0.055 c -0.133 0.465 0.082 0.973 0.426 0.973 c 0.152 0 0.477 -0.41 0.512 -0.504" fill="#ff4d00"/><path d="m 18.633 27.906 c -0.125 -0.125 -0.199 -0.488 -0.254 -1.199 c -0.094 -1.27 -0.016 -6.68 0.102 -6.941 c 0.129 -0.289 0.895 -0.449 1.754 -0.367 c 0.93 0.082 1.125 0.184 1.27 0.641 c 0.289 0.945 0.559 1.199 0.078 1.719 c -0.566 0.617 -0.91 0.781 -1.035 3.793 c -0.055 1.258 -0.121 2.309 -0.148 2.336 c -0.027 0.031 -0.395 0.086 -0.82 0.125 c -0.625 0.059 -0.805 0.039 -0.945 -0.105" fill="#eaf81c"/><path d="m 23.344 27.93 c -0.559 -0.133 -0.711 -0.266 -0.977 -0.863 c -0.465 -1.047 -0.355 -5.855 0.156 -6.914 c 0.309 -0.641 0.656 -0.801 1.734 -0.801 c 1 0 0.953 0.051 1.121 -1.145 c 0.059 -0.43 0.199 -0.906 0.313 -1.059 c 0.18 -0.246 0.293 -0.277 1.031 -0.309 l 0.832 -0.031 l 0.094 2.18 c 0.117 2.668 0.117 8.09 0.004 8.652 l -0.086 0.414 l -1.895 -0.012 c -1.043 -0.008 -2.09 -0.059 -2.328 -0.113 m 1.926 -3.082 c 0.117 -1.617 0.133 -3.129 0.035 -3.609 c -0.051 -0.266 -0.125 -0.344 -0.324 -0.344 c -0.352 0 -0.68 0.383 -0.637 3.086 c 0.039 2.27 0.375 2.684 0.668 2.391 c 0.109 -0.109 0.188 -0.586 0.258 -1.523" fill="#317801"/><path d="m 29.953 27.895 c -0.484 -0.105 -0.727 -0.227 -0.957 -0.48 c -0.398 -0.449 -0.52 -0.906 -0.672 -2.547 c -0.285 -3.113 0.332 -5 1.766 -5.402 c 0.676 -0.188 1.742 -0.141 2.211 0.098 c 0.469 0.242 1.184 0.984 1.34 1.398 c 0.137 0.359 0.137 2.367 0 2.727 c -0.164 0.434 -0.648 0.621 -1.602 0.621 c -1.141 0 -1.266 0.078 -1.266 0.82 c 0 1.01 0.164 1.184 0.531 0.563 c 0.305 -0.516 0.809 -0.762 1.422 -0.691 c 0.859 0.094 1.23 0.723 0.914 1.551 c -0.156 0.418 -0.895 1.184 -1.293 1.355 c -0.438 0.18 -1.52 0.176 -2.395 -0.012 m 1.758 -5.68 c 0.004 -0.316 -0.371 -1.047 -0.668 -1.047 c -0.695 0.145 -0.559 0.918 -0.504 1.336 c 0.078 0.203 1.168 0.473 1.172 -0.289" fill="#1966c1"/><path d="m 34.5 27.984 c -0.102 -0.027 -0.215 -0.18 -0.254 -0.336 c -0.098 -0.391 -0.098 -8.121 0 -9.371 c 0.043 -0.559 0.137 -1.094 0.207 -1.188 c 0.16 -0.223 0.77 -0.359 1.309 -0.297 c 0.648 0.078 0.746 0.32 0.84 2.094 c 0.105 1.992 0.219 2.199 0.672 1.227 c 0.145 -0.309 0.348 -0.605 0.453 -0.66 c 0.258 -0.137 1.379 -0.129 1.645 0.012 c 0.273 0.148 0.281 0.73 0.02 1.547 c -0.273 0.855 -0.27 4.117 0.008 4.84 c 0.105 0.27 0.223 0.813 0.262 1.199 c 0.086 0.891 -0.035 1 -1.07 1 c -0.852 0 -0.938 -0.066 -1.359 -1.02 c -0.152 -0.348 -0.324 -0.633 -0.383 -0.633 c -0.059 0 -0.141 0.246 -0.184 0.551 c -0.113 0.836 -0.297 0.992 -1.211 1.043 c -0.426 0.027 -0.852 0.02 -0.953 -0.008" fill="#b52182"/><path d="m 41.23 27.844 c -2.109 -0.906 -1.273 -3.277 -1.148 -4.785 c 0.188 -2.734 0.34 -3.227 1.078 -3.508 c 0.77 -0.293 4 -0.23 4.262 0.082 c 0.152 0.184 0.203 1.473 0.168 4.258 l 0.531 3.145 l -0.582 0.848 l -1.512 -0.461 c -1.055 -0.324 -0.027 0.871 -2.797 0.422 m 1.949 -2.879 c 0.117 -1.945 -0.063 -3.918 -0.371 -4.02 c -0.184 -0.059 -0.516 0.676 -0.516 2.824 c 0 2.223 0.332 2.68 0.539 2.68 c 0.188 0 0.281 -0.406 0.348 -1.484" fill="#541475"/></svg>