<svg xmlns="http://www.w3.org/2000/svg" viewBox="0 0 48 48"><path d="m 23.918 47.82 c -32.21 3.598 -31.762 -47.883 0.574 -47.27 c 30.07 -1.699 32.785 50.07 -0.574 47.27" fill="#f5f3e6"/><path d="m 264.14 94.97 c -2.345 -0.41 -4.778 -1.25 -5.414 -1.865 c -1.688 -1.701 -1.6 -23.594 0.11 -25.644 c 0.964 -1.148 3.09 -1.578 7.737 -1.578 c 7.365 0 12.647 1.845 14.356 5.04 c 0.986 1.824 0.833 2.665 -0.921 5.02 c -2.74 3.71 -2.652 4.92 0.526 7.441 c 3.266 2.603 2.652 5.412 -1.951 8.896 c -3.704 2.829 -8.439 3.69 -14.444 2.685 m 9.381 -4.858 c 1.688 -1.148 3.551 -5.166 2.871 -6.252 c -0.986 -1.619 -10.08 -1.189 -11.507 0.553 c -2.214 2.665 0.307 6.457 4.252 6.457 c 1.797 -0.02 3.77 -0.348 4.384 -0.758 m -1.556 -12.771 c 5.217 -2.685 3.463 -6.457 -3.02 -6.457 c -5.918 0 -6.115 6.355 -0.241 7.912 c 0.175 0.041 1.644 -0.615 3.266 -1.455 m 40.33 16.296 c -3.945 -3.075 -6.312 -5.965 -6.312 -7.769 c -0.044 -4.059 8.833 -9.983 14.926 -9.983 c 4.844 0 6.071 -1.722 3 -4.202 c -1.819 -1.476 -3.222 -1.742 -6.641 -1.23 c -3.595 0.533 -4.449 0.348 -5.02 -1.107 c -1.469 -3.833 6.466 -5.822 13.458 -3.382 c 4.756 1.66 6.926 6.252 7.102 15.15 c 0.066 4.141 -0.307 8.691 -0.833 10.09 c -0.855 2.255 -1.403 2.501 -4.427 2.01 c -2.345 -0.389 -4.23 -0.041 -5.786 1.045 c -3.156 2.234 -6.071 2.029 -9.469 -0.615 m 11.02 -5.658 c 3 -3.136 3.222 -6.703 0.482 -8.404 c -1.14 -0.717 -2.674 -0.471 -5.501 0.902 c -3 1.476 -3.967 2.562 -4.23 4.858 c -0.219 1.947 0.263 3.382 1.447 4.243 c 2.718 1.988 4.756 1.578 7.803 -1.599 m 16.18 6.58 c -2.082 -1.517 -1.732 -5.289 0.46 -4.961 c 0.811 0.123 2.718 0.512 4.252 0.861 c 1.951 0.471 3.353 0.143 4.734 -1.107 c 3.09 -2.788 2.389 -4.223 -3.485 -7.093 c -11.11 -5.432 -12.362 -10.7 -3.573 -15.13 c 5.458 -2.767 9.162 -2.87 11.463 -0.328 c 2.389 2.644 1.206 4.059 -3.419 4.059 c -4.756 0 -7.01 0.82 -7.01 2.542 c 0 1.783 4.822 5.473 7.145 5.473 c 1.01 0 4.778 0.881 5.699 3.485 c 2.784 7.892 4.143 3.177 4.515 2.829 c 0.351 -0.369 0.636 -2.624 0.636 -5.02 c 0 -3.054 0.482 -4.53 1.578 -4.961 c 3.2 -1.23 5.085 -0.676 4.559 8.04 c -0.46 7.175 -1.622 10.639 -3.244 10.639 c -1.184 0 -2.082 -0.984 -2.499 -2.747 c -1.074 -4.53 -2.784 -5.965 -5.26 -0.963 c -1.184 2.419 -4.603 3.977 -5.808 4.592 c -2.959 1.517 -8.526 1.414 -10.74 -0.205 m 40.2 0.574 c -6.948 -0.533 -7.781 -2.214 -7.781 -15.866 c 0 -9.02 0.307 -11.397 1.622 -12.484 c 2.937 -2.46 4.384 1.373 4.384 11.664 c 0 10.331 0.438 11.11 6.51 11.602 c 2.937 0.246 5.786 -0.779 6.05 0.615 c 0.373 1.886 1.71 4.53 -3.332 4.489 c -0.548 -0.102 -4.866 0.184 -7.452 -0.02 m -183.13 -2.337 c -1.096 -1.578 -1.315 -3.997 -0.899 -9.983 c 0.614 -8.896 -0.285 -10.946 -4.756 -10.946 c -3.441 0 -5.721 -2.398 -4.121 -4.346 c 0.855 -1 5.063 -1.373 17.14 -1.476 c 18.894 -0.164 18.696 -0.266 22.07 10.864 c 3.288 10.823 5.94 10.618 9.863 -0.738 c 2.74 -7.933 4.669 -10.495 7.496 -10.09 c 2.608 0.369 3.31 5 1.249 8.138 c -0.789 1.209 -2.871 5.801 -4.603 10.167 c -3.551 8.937 -4.997 10.475 -9.797 10.475 c -3.923 0 -5.743 -2.542 -11.02 -15.415 c -1.775 -4.366 -3.748 -8.261 -4.362 -8.63 c -1.293 -0.82 -8.811 0.881 -10.784 2.419 c -1.052 0.84 -1.249 3.034 -0.855 9.306 c 0.395 6.191 0.153 8.712 -0.942 10.27 c -1.819 2.624 -3.814 2.624 -5.655 -0.02 m 92.47 1.168 c -1.6 -0.984 -2.06 -25.562 -0.504 -27.12 c 0.745 -0.738 1.841 -0.717 3.66 0.123 c 2.038 0.922 3.595 0.922 7.08 -0.061 c 4.888 -1.373 6.619 -0.861 6.619 1.927 c 0 1.886 -1.863 3.054 -4.888 3.054 c -0.964 0 -2.959 1.25 -4.427 2.788 c -2.433 2.562 -2.696 3.526 -2.696 10.475 c 0 6.355 -0.307 7.83 -1.797 8.63 c -0.986 0.533 -2.367 0.615 -3.047 0.184 m 72.05 -26.956 c 0.219 -1.414 2.258 -1.127 2.806 -1.127 c 0.548 0 2.608 -0.143 2.74 0.635 c 0.57 3.444 -0.745 4.1 -1.293 4.53 c -0.548 0.43 -5.085 1.066 -4.252 -4.02 m -68.69 -15.825 c -4.34 -0.717 -18.346 -4.899 -22.992 -6.867 c -5.217 -2.193 -16.241 -8.527 -24.899 -14.308 c -6.992 -4.653 -15.781 -14.267 -13.677 -14.964 c 0.614 -0.205 4.23 2.152 8.04 5.227 c 3.814 3.075 7.54 5.576 8.285 5.576 c 0.745 0 2.236 0.676 3.31 1.476 c 2.564 1.947 6.444 1.968 6.444 0.041 c 0 -0.84 -0.46 -1.517 -1.01 -1.517 c -2.477 -2.542 1.863 -4.079 3.332 -5.432 c 2.038 -1.886 4.208 -2.583 9.534 -3.116 c 13.173 -1.291 12.23 -4.387 -1.469 -4.899 c -9.973 -0.348 -16.307 -1.722 -24.395 -5.248 c -10.236 -4.469 -14.839 -8.097 -17.535 -13.775 c -1.359 -2.87 -2.477 -6.17 -2.477 -7.338 c 0 -2.89 4.296 -12.09 7.167 -15.333 c 8.877 -10 33.491 -23.471 46.49 -25.418 c 4.537 -0.697 17.403 2.398 14.598 4.715 c -0.833 0.717 -14.269 0.492 -15.409 2.091 c -2.02 2.829 -2.038 3.01 -0.307 6.826 c 3.222 4.633 3.945 8.63 1.951 13.652 c -1.14 2.685 -1.227 3.915 -0.395 4.715 c 0.811 0.779 1.447 0.512 2.258 -0.922 c 2.17 -3.731 14.97 -16.481 20.12 -20.03 c 2.827 -1.947 6.904 -3.813 9.1 -4.141 c 2.17 -0.328 4.91 -1.496 6.115 -2.583 c 1.775 -1.599 2.937 -1.824 6.488 -1.23 c 2.389 0.389 5.523 1.312 6.97 2.07 c 3 1.517 9.6 7.236 9.666 9.593 c 0.964 2.562 4.164 15.579 1.293 14.37 c -1.118 -5.125 -4.493 -9.655 -6.597 -13.98 c -3.222 -7.154 -8.482 -10.126 -8.504 -4.838 c -0.066 9.921 -6.137 26.09 -12.384 33 c -4.296 4.756 -4.515 7.07 -0.964 10.331 c 3.332 3.054 8.789 14.718 10.258 21.933 c 0.636 3.01 0.964 8.773 0.767 12.771 c -0.416 7.953 -1.447 9.716 -8.57 14.656 c -2.784 1.927 -5.238 2.603 -10.608 2.952 c -3.836 0.225 -8.329 0.205 -9.995 -0.061" transform="matrix(0.17822 0 0 0.19056 -27.371 18.371)" fill="#0a498e" stroke="#0a498e"/></svg>