<svg xmlns="http://www.w3.org/2000/svg" viewBox="0 0 48 48"><path d="m 44.5 36.34 c -36.27 42.25 -71.14 -44.621 -15.05 -35.695 c 12.301 1.957 24.824 24.309 15.05 35.695" fill="#86cefa"/><path d="m 18.344 35.488 l -0.621 -0.07 l -4.594 -4.922 v -1.66 c 0 -0.914 -0.031 -2.977 -0.07 -4.582 l -0.07 -2.918 l -1.441 -1.293 c -1.824 -1.637 -1.824 -1.637 -1.598 -1.684 c 0.098 -0.02 0.719 0.047 1.379 0.145 c 1.855 0.273 1.695 0.352 1.695 -0.816 v -1 l 2.383 -2.543 l 2.383 -2.547 l 6.473 0.004 l 6.469 0.004 l 4.602 3.047 l 0.07 1.016 c 0.039 0.559 0.074 2.461 0.078 4.227 c 0.012 2.926 -0.004 3.223 -0.176 3.379 c -0.516 0.469 -4.426 2.949 -4.648 2.949 c -0.145 0 -3.02 -0.406 -6.395 -0.906 c -3.375 -0.5 -6.176 -0.883 -6.227 -0.852 c -0.051 0.031 -0.09 1.363 -0.09 2.953 c 0 2.605 0.02 2.902 0.18 2.969 c 0.098 0.039 3.992 0.039 8.648 -0.004 c 6.863 -0.066 8.488 -0.055 8.555 0.066 c 0.063 0.102 -0.648 0.93 -2.258 2.645 l -2.348 2.5 l -5.879 -0.016 c -3.234 -0.012 -6.16 -0.051 -6.5 -0.09 m 12.203 -16.492 l -0.027 -2.199 h -12.52 v 2.629 l 0.48 0.094 c 1.023 0.195 11.207 1.656 11.637 1.664 l 0.457 0.012" fill="#106cc0" fill-opacity="0.827"/><path d="m 81.8 177.73 l -12.04 -12.958 l -0.333 -23.15 c -0.167 -12.729 -0.104 -23.5 0.125 -23.958 c 0.333 -0.604 2.313 0.833 7.542 5.521 c 3.896 3.479 7.604 6.625 8.229 6.979 c 0.604 0.333 2.792 0.813 4.833 1.042 c 2.02 0.25 4.02 0.729 4.417 1.083 c 1.063 0.938 1.042 58.38 -0.021 58.38 c -0.396 0 -6.146 -5.833 -12.771 -12.958 m 81.81 -36.25 c -0.479 -0.896 -1.042 -76.81 -0.563 -77.12 c 0.271 -0.167 6 3.333 12.729 7.771 l 12.271 8.104 l 0.417 6.625 c 0.25 3.646 0.375 13.896 0.292 22.771 l -0.146 16.13 l -10.833 7.208 c -12.771 8.479 -13.854 9.125 -14.167 8.521 m -81.71 -37.458 c -6.75 -1 -12.167 -2.104 -12.396 -2.5 c -0.229 -0.396 -0.438 -2.75 -0.438 -5.25 v -4.542 l 12.396 -13.292 c 6.813 -7.292 12.583 -13.271 12.833 -13.271 c 0.563 0 0.583 40.06 0.021 40.38 c -0.229 0.146 -5.813 -0.542 -12.417 -1.542" transform="matrix(0.1875 0 0 0.1875 0.155 -0.465)" fill="#9acd31" stroke="#9acd31"/></svg>