<svg xmlns="http://www.w3.org/2000/svg" viewBox="0 0 48 48"><defs><linearGradient id="0" gradientUnits="userSpaceOnUse" y1="358.33" x2="0" y2="426.67"><stop stop-color="#f00"/><stop offset="1" stop-color="#6b0000"/></linearGradient></defs><path d="m 39.594 6.961 c 37.844 49.945 -66.3 57.04 -32.879 6.06 c 7.621 -11.621 22.855 -19.285 32.879 -6.06" fill="#2f2f2c"/><path d="m -142.71 381.41 l 10.608 -10.406 h -55.1 v -4.204 c 0 -4.89 3.292 -7.499 6.096 -7.499 c 1.6 0 1.997 0.611 2.5 0.298 c 1.097 -0.79 -0.899 -5.188 -5.609 -6.694 c -1.692 -0.507 -8.992 -1.401 -11.797 -1.804 l -12.498 -1.7 v 94.7 h 64.1 l -1.707 -12.493 c -0.396 -2.803 -1.295 -10.11 -1.798 -11.808 c -1.494 -4.696 -5.898 -6.694 -6.691 -5.591 c -0.412 0.492 0.29 0.999 0.29 2.49 c 0 2.698 -2.698 6.113 -7.499 6.113 h -25.391 v -9.407 h 13 l 11.187 -11.405 l -24.294 0.313 v -6.411 l 30.1 0.104 l 9.8 -9.899 h -39.901 v -4.801" transform="matrix(0.2563 0 0 0.26201 70 -79.33)" fill="url(#0)" stroke="#000" stroke-width="0.5" stroke-miterlimit="10"/></svg>