<svg xmlns="http://www.w3.org/2000/svg" viewBox="0 0 48 48"><path d="m 42.902 36.555 c 17.16 -24.23 -14.531 -48.789 -34.746 -29.04 c -19.04 18.602 -1.387 47.51 22.313 38.473 c 4.945 -1.887 9.285 -4.984 12.434 -9.43" fill="#105331"/><g fill="#fff"><path d="m 11.465 17.07 h 24.863 c 0.563 0 1.02 0.477 1.02 1.063 v 9.602 c 0 0.586 -0.457 1.059 -1.02 1.059 h -24.863 c -0.566 0 -1.023 -0.473 -1.023 -1.059 v -9.602 c 0 -0.586 0.457 -1.063 1.023 -1.063"/><path d="m 13.12 32.633 v -0.805 h -2.77 v -1.977 h 26.793 v 1.977 h -2.926 v 1.609 h -2.156 v -1.609 h -1.691 v 1.609 h -2 v -1.609 h -1.695 v 1.609 h -2.152 v -1.609 h -1.695 v 1.609 h -2.156 v -1.609 h -1.695 v 1.609 h -2 v -1.609 h -1.695 v 1.609 h -2.156"/></g><g fill="#105331"><path d="m 12.914 18.527 h 3.207 c 0.563 0 1.02 0.473 1.02 1.059 v 7.04 c 0 0.586 -0.457 1.059 -1.02 1.059 h -3.207 c -0.563 0 -1.02 -0.473 -1.02 -1.059 v -7.04 c 0 -0.586 0.457 -1.059 1.02 -1.059"/><path d="m 19.277 18.414 h 3.207 c 0.563 0 1.02 0.477 1.02 1.063 v 7.03 c 0 0.586 -0.457 1.063 -1.02 1.063 h -3.207 c -0.563 0 -1.02 -0.477 -1.02 -1.063 v -7.03 c 0 -0.586 0.457 -1.063 1.02 -1.063"/><path d="m 25.641 18.414 h 3.207 c 0.566 0 1.02 0.477 1.02 1.063 v 7.03 c 0 0.586 -0.453 1.063 -1.02 1.063 h -3.207 c -0.563 0 -1.02 -0.477 -1.02 -1.063 v -7.03 c 0 -0.586 0.457 -1.063 1.02 -1.063"/><path d="m 31.895 18.527 h 3.207 c 0.563 0 1.02 0.473 1.02 1.059 v 7.04 c 0 0.586 -0.457 1.059 -1.02 1.059 h -3.207 c -0.563 0 -1.02 -0.473 -1.02 -1.059 v -7.04 c 0 -0.586 0.457 -1.059 1.02 -1.059"/></g></svg>