<svg xmlns="http://www.w3.org/2000/svg" viewBox="0 0 48 48"><path d="m 24.453 47.742 c -4.949 -0.383 -10.742 -2.746 -14.781 -6.03 c -4.91 -3.996 -8.5 -10.121 -9.469 -16.16 c -1.148 -7.977 3.484 -16.551 8.715 -20.621 c 2.629 -1.98 6.109 -3.559 9.371 -4.25 c 8.496 -1.797 17.355 1.605 23.43 8.996 c 3.641 4.426 5.527 8.891 5.988 14.172 c 0.551 6.332 -1.953 13.13 -6.523 17.695 c -5.203 4.309 -10.551 6.648 -16.73 6.207" fill="#ff8c00"/><path d="m 20.883 36.621 c -2.449 -0.609 -5.03 -2.18 -7.207 -3.078 h -0.32 v -20.21 h 18.766 v 3.309 c 0 2.141 -0.039 3.461 -0.109 3.734 c -0.18 0.688 -0.758 0.969 -1.402 0.688 c -0.445 -0.195 -0.5 -0.516 -0.469 -2.777 c 0.031 -2.113 -0.051 -2.844 -0.336 -3.074 c -0.176 -0.141 -10.199 -0.121 -10.473 0.02 c -0.098 0.051 -0.18 0.191 -0.18 0.316 c 0.309 0.793 2.09 1.363 2.949 1.691 c 1.215 0.449 1.52 0.758 1.605 1.641 c 0.031 0.301 0.047 3.176 0.035 6.395 l -0.02 5.848 l 0.398 0.168 c 1.184 0.051 5.559 0.977 5.984 -0.191 c 0.031 -0.098 0.047 -0.895 0.031 -1.77 c -0.031 -1.742 0.043 -2.098 0.473 -2.289 c 0.637 -0.277 1.223 0.004 1.398 0.672 c 0.145 0.555 0.168 4.266 0.027 4.758 c -0.219 0.77 -0.074 0.742 -4.01 0.766 c -3.879 0.023 -3.797 0.012 -4.137 0.668 c -0.289 1.387 -0.137 1.965 -0.09 3.609 c -1.359 0.207 -2.059 -0.652 -2.914 -0.887 m 12.766 -8.555 c -0.289 -0.727 -0.188 -1.16 -0.199 -2.027 c -0.227 -0.145 -0.453 -0.293 -0.676 -0.438 l -3.5 0.063 l -3.5 0.066 l -0.336 -0.289 c -0.641 -0.438 -0.363 -2.449 -0.066 -2.738 l 0.273 -0.262 h 3.625 c 4.461 0 4.172 0.09 4.195 -1.32 c 0.012 -0.797 0.039 -0.945 0.215 -1.117 c 0.191 -0.18 0.23 -0.184 0.5 -0.059 c 0.27 0.121 1.141 0.883 3.203 2.797 c 0.574 0.523 1.125 0.711 1.125 1.305 c 0.004 0.711 -0.645 0.863 -1.125 1.309 c -3.254 3.02 -3.367 3.098 -3.734 2.711" fill="#fff"/></svg>