<svg xmlns="http://www.w3.org/2000/svg" viewBox="0 0 48 48"><path d="m 4.598 12.445 c -23.949 39.06 52.43 51.793 42.32 6.398 c -4.309 -18.742 -31.33 -27.08 -42.32 -6.398" fill="#754f7a"/><path d="m 17.355 33.82 c -0.191 -0.219 -5.02 -16.902 -4.926 -17.03 c 0.121 -0.172 2.719 -0.156 2.883 0.02 c 0.117 0.121 2.559 9.03 3.301 12.04 c 0.176 0.707 0.344 1.305 0.371 1.328 c 0.031 0.027 0.09 -0.09 0.133 -0.262 c 0.5 -1.879 3.852 -12.992 3.969 -13.16 c 0.078 -0.109 2.855 -0.105 2.934 0.008 c 0.098 0.137 2.859 10.211 3.25 11.852 c 0.191 0.813 0.379 1.477 0.414 1.477 c 0.031 0 0.242 -0.695 0.465 -1.543 c 0.512 -1.938 3.316 -11.309 3.484 -11.637 c 0.125 -0.234 0.176 -0.242 1.457 -0.215 c 1.246 0.027 1.332 0.047 1.367 0.258 c 0.043 0.25 -5.258 16.648 -5.449 16.867 c -0.082 0.094 -0.531 0.133 -1.449 0.133 c -0.914 0 -1.367 -0.039 -1.453 -0.133 c -0.141 -0.152 -2.824 -9.711 -3.305 -11.773 c -0.172 -0.734 -0.336 -1.355 -0.367 -1.379 c -0.059 -0.051 -0.074 -0.004 -0.383 1.211 c -0.348 1.363 -3.664 11.805 -3.793 11.941 c -0.086 0.094 -0.539 0.133 -1.457 0.133 c -0.918 0 -1.363 -0.039 -1.445 -0.133" fill="#1cdeff"/></svg>