<svg xmlns="http://www.w3.org/2000/svg" xmlns:xlink="http://www.w3.org/1999/xlink" viewBox="0 0 48 48"><defs><g id="3" clip-path="url(#2)"><path d="m 86.6 68.04 h 116.1 v 80.62 h -116.1" transform="matrix(0.1875 0 0 0.1875 -0.234 1.406)" fill="#fff" stroke="#00f" stroke-width="0.059"/></g><g id="6" clip-path="url(#5)"><path d="m 96.6 148.31 l -9.354 -0.104 v -7.5 h 115.38 v 7.875 l -48.35 -0.083 c -26.583 -0.042 -52.54 -0.125 -57.667 -0.188" transform="matrix(0.1875 0 0 0.1875 -0.234 1.406)" fill="#fc0203" stroke="#fc0203" stroke-width="0.01"/></g><g id="9" clip-path="url(#8)"><path d="m 96.25 129.69 l -9.333 -0.104 v -7.5 h 115.35 v 7.875 l -48.35 -0.083 c -26.583 -0.042 -52.54 -0.125 -57.667 -0.188" transform="matrix(0.1875 0 0 0.1875 -0.234 1.406)" fill="#fc0203" stroke="#fc0203" stroke-width="0.01"/></g><g id="C" clip-path="url(#B)"><path d="m 149.56 111.77 l -4.646 -0.083 v -7.521 h 57.38 v 7.875 l -24.04 -0.083 c -13.208 -0.042 -26.12 -0.125 -28.688 -0.188" transform="matrix(0.1875 0 0 0.1875 -0.234 1.406)" fill="#fc0203" stroke="#fc0203" stroke-width="0.007"/></g><g id="F" clip-path="url(#E)"><path d="m 149.25 93.88 l -4.688 -0.104 v -7.521 h 58.08 v 7.896 l -24.333 -0.083 c -13.396 -0.063 -26.458 -0.146 -29.04 -0.188" transform="matrix(0.1875 0 0 0.1875 -0.234 1.406)" fill="#fc0203" stroke="#fc0203" stroke-width="0.007"/></g><g id="I" clip-path="url(#H)"><path d="m 149.56 75.58 l -4.646 -0.104 v -7.5 h 57.38 v 7.875 l -24.04 -0.083 c -13.208 -0.042 -26.12 -0.125 -28.688 -0.188" transform="matrix(0.1875 0 0 0.1875 -0.234 1.406)" fill="#fc0203" stroke="#fc0203" stroke-width="0.007"/></g><g id="L" clip-path="url(#K)"><path d="m 86.54 67.979 h 58.56 v 43.833 h -58.56" transform="matrix(0.1875 0 0 0.1875 -0.234 1.406)" fill="#00f" stroke="#00f" stroke-width="0.031"/></g><clipPath id="B"><path d="M 0,0 H48 V48 H0 z"/></clipPath><clipPath id="5"><path d="M 0,0 H48 V48 H0 z"/></clipPath><clipPath id="8"><path d="M 0,0 H48 V48 H0 z"/></clipPath><clipPath id="E"><path d="M 0,0 H48 V48 H0 z"/></clipPath><clipPath id="H"><path d="M 0,0 H48 V48 H0 z"/></clipPath><clipPath id="K"><path d="M 0,0 H48 V48 H0 z"/></clipPath><clipPath id="2"><path d="M 0,0 H48 V48 H0 z"/></clipPath><filter id="0" filterUnits="objectBoundingBox" x="0" y="0" width="48" height="48"><feColorMatrix type="matrix" in="SourceGraphic" values="0 0 0 0 1 0 0 0 0 1 0 0 0 0 1 0 0 0 1 0"/></filter><mask id="J"><g filter="url(#0)"><path fill-opacity="0.988" d="M 0,0 H48 V48 H0 z"/></g></mask><mask id="1"><g filter="url(#0)"><path fill-opacity="0.988" d="M 0,0 H48 V48 H0 z"/></g></mask><mask id="A"><g filter="url(#0)"><path fill-opacity="0.988" d="M 0,0 H48 V48 H0 z"/></g></mask><mask id="G"><g filter="url(#0)"><path fill-opacity="0.988" d="M 0,0 H48 V48 H0 z"/></g></mask><mask id="D"><g filter="url(#0)"><path fill-opacity="0.988" d="M 0,0 H48 V48 H0 z"/></g></mask><mask id="7"><g filter="url(#0)"><path fill-opacity="0.988" d="M 0,0 H48 V48 H0 z"/></g></mask><mask id="4"><g filter="url(#0)"><path fill-opacity="0.988" d="M 0,0 H48 V48 H0 z"/></g></mask></defs><path d="m 0.555 29.348 c 2.977 19.508 29.414 24.73 41.08 10.805 c 10.277 -10.344 7.719 -30.15 -4.883 -36.938 c -14.477 -9.08 -35.566 2.148 -36.719 20.227 c -0.117 1.984 0.047 3.984 0.52 5.906" fill="#ff8c00"/><use xlink:href="#3" mask="url(#1)"/><use xlink:href="#6" mask="url(#4)"/><use xlink:href="#9" mask="url(#7)"/><use xlink:href="#C" mask="url(#A)"/><use xlink:href="#F" mask="url(#D)"/><use xlink:href="#I" mask="url(#G)"/><use xlink:href="#L" mask="url(#J)"/><path d="m 12.328 25.734 v -11.813 h 3.75 v 23.625 h -3.75" fill="#010102"/></svg>