<svg xmlns="http://www.w3.org/2000/svg" viewBox="0 0 48 48"><path d="m 11.84 3.77 c -41.816 35.625 44.16 69.879 35.33 14.785 c -1.938 -12.08 -24.06 -24.383 -35.33 -14.785" fill="#acd7e5"/><g stroke="#dfc1f3"><path d="m 163.14 136.37 c -0.037 6.909 -6.234 12.484 -13.88 12.465 c -7.646 0 -13.825 -5.594 -13.825 -12.503 c 0 -6.909 6.179 -12.503 13.825 -12.522 c 7.646 -0.019 13.844 5.576 13.88 12.484 l -13.862 0.075" transform="matrix(0.21304 0 0 0.20808 -6.876 -6.716)" fill="#dfc1f3" stroke-width="1.022"/><g stroke-width="0.21" transform="scale(0.1875)"><path d="m 107.85 120.48 c -4.04 -0.604 -5.813 -1.125 -7.896 -2.333 c -1.125 -0.646 -1.854 -0.896 -3.375 -1.167 c -1.083 -0.167 -2 -0.354 -2.083 -0.417 c -0.083 -0.042 -0.458 -0.604 -0.813 -1.25 c -0.792 -1.417 -4.292 -4.979 -5.438 -5.563 c -0.479 -0.25 -1.042 -0.375 -1.354 -0.313 c -0.458 0.083 -0.604 -0.042 -1.167 -1.021 c -0.688 -1.229 -4.917 -5.75 -5.792 -6.188 c -0.333 -0.188 -0.646 -0.229 -0.833 -0.104 c -0.521 0.313 0.229 1.313 4.25 5.625 c 3.917 4.208 6.146 6.813 5.979 6.979 c -0.604 0.625 -17.75 -17.917 -19.813 -21.417 c -1.563 -2.646 -1.667 -5.583 -0.229 -6.188 c 0.792 -0.333 6.479 -0.146 9.104 0.313 c 2.854 0.479 3.854 0.833 7.292 2.625 c 3.938 2.042 5.688 3.167 7.167 4.563 c 0.625 0.604 1.667 1.313 2.292 1.604 c 0.646 0.271 2.375 1.5 3.896 2.729 c 1.521 1.229 3.771 2.896 5.02 3.708 c 6.458 4.229 9.333 6.979 10.854 10.354 c 1.813 6.375 6.146 9.417 -7.06 7.458" fill="#4c9aa1"/><path d="m 152.42 168 c -1.063 -0.792 -2.75 -1.958 -3.75 -2.625 c -1.917 -1.729 -3.167 -2.833 -5.563 -3.313 c -3.354 -2.875 -6.125 -5.542 -9.917 -6.708 c -1.833 -0.667 -6.458 -3.167 -5.896 -3.167 c -0.521 -1.813 -3.729 -2.646 -5.02 -3.521 c -2.375 -1.604 -3.854 -1.979 -4.792 -1.229 c -0.438 0.354 -0.521 0.354 -0.708 0.083 c -16.625 -1.146 -11 -1 -6.375 -7.958 c -27.25 -10.625 -11.146 -15.188 -19.458 -22.917 c -3.333 -5.771 -19.625 -15.1 -19.375 -22.563 c -0.771 1.021 8.417 8.292 10.04 9.833 c 1.708 1.604 4.979 3.417 5.375 4.375 c -0.5 2.146 1.292 1.604 2.875 2.917 c 1.354 1.146 3.292 3.458 3.813 4.563 c 1.354 1.958 4.167 1.313 5.875 2.396 c 2.417 1.542 3.625 1.896 8.917 2.625 c 4.604 0.625 8.479 -3.958 8.688 -2.521 c 2.438 4.04 5.854 5.417 4.292 6.333 c 5.771 -1.667 24.979 7.06 28.17 -9.458 c 0.021 -0.813 -1.521 -2.583 -0.417 -2.583 c 1.75 0 5.479 2.188 8.604 -0.958 c 1.792 -1 3.146 -0.813 5.458 -6.771 c 0.854 -1.646 3.25 -4.583 7.375 -9.06 c 1.583 -1.708 2.438 -2.458 3.188 -2.813 c 2.521 -1.188 5.146 -0.083 4.75 2 c -0.208 1.167 -2.604 5.813 -5.354 10.438 c -2.917 4.896 -4.833 8.417 -5.729 10.521 c -0.75 1.771 -2.229 3.146 -5 4.667 c -3.479 1.875 -4.854 2.75 -5.646 3.542 c -1.688 1.792 0.833 1.917 1.875 2.02 c 2.625 0.021 4.417 1.604 6.521 2.354 c 2.583 0.917 6.792 3.042 12.375 6.229 c 6.708 3.833 8.167 4.563 8.708 4.292 c 0.229 -0.125 1.104 -0.875 1.917 -1.688 c 2.271 -2.813 1.396 0.917 0.875 2.063 c -0.75 1.646 -1.667 2.271 -3.708 2.563 c -2.896 0.729 -2.604 0.542 -4.729 -1.063 c -0.125 0 -0.167 -0.146 -0.104 -0.313 c -3.771 -3.479 -6.979 -2.583 -10.646 -5.792 c -1.25 -1.354 -2.813 -2.5 -4.542 -2.646 c -2.625 -0.604 -5.208 -1.813 -7.938 -2.333 c -0.604 -0.125 -1.438 -0.458 -1.875 -0.75 c -1.333 -0.917 -2.396 -0.625 -6.06 1.583 c -4.583 2.75 -6.667 3.542 -10.625 4 c -3.104 0.354 -4.854 0.917 -9.167 2.917 c -6.771 3.146 -8.583 4.854 -7.25 6.813 c 0.563 0.833 2.333 1.979 4.333 2.792 c 1.687 0.688 2.833 1.667 4.437 3.792 c 3.417 1.563 2.25 -0.417 7.146 3.667 c 4.896 0.542 7.417 3.583 11.458 8.271 c 0.292 0.479 0.896 1 1.542 1.333 c 1.563 0.854 13.646 9.104 13.875 9.938 c 0.146 0.646 2.333 2.854 2.25 2.833 c -0.021 -0.021 -14.04 -8.229 -15.1 -9" fill="#1c635d"/><g fill="#4c9aa1"><path d="m 181.9 185.5 c 0.229 -0.208 -0.854 -0.917 -3.146 -2.083 c -4.625 -2.292 -9.729 -5.792 -17.15 -11.75 c -5.375 -4.292 -8 -6.292 -9.563 -7.271 c -1.729 -1.208 -3.167 -2.896 -4.75 -4.04 c -4.5 -2.396 -5.521 -3.854 -8.292 -5.458 c -2.458 -2.104 -6 -2.292 -7.583 -4.125 c -2 -2.417 -2.417 -2.771 -4.792 -3.917 c -3.333 -1.604 -4.604 -2.792 -4.292 -4.02 c 0.208 -0.854 1.938 -2.188 4.708 -3.667 c 5.458 -2.875 8.479 -3.938 12.208 -4.229 c 1.292 -0.104 2.958 -0.375 3.688 -0.604 c 2.625 -0.813 3.292 -0.542 6.917 2.875 c 5.521 4.188 8.5 10.313 14.854 13.938 c 0.604 0 2.5 1.083 5.167 2.958 c 19.917 13.375 12.13 12.08 21.708 19.417 l 1.208 0.625 c 3.563 7.104 3.02 11.583 -4.688 12.375 c -1.229 -0.25 -3.938 0.667 -6.208 -1.021"/><path d="m 184.5 138.19 c -0.583 -0.208 -3.646 -1.875 -10.375 -5.646 c -3.708 -2.083 -6.083 -3.25 -8.354 -4.083 c -1.104 -0.417 -2.479 -1.063 -3.063 -1.438 c -0.917 -0.625 -1.354 -0.75 -3.479 -1.021 c -2.958 -0.396 -3.229 -0.583 -2.375 -1.542 c 1.021 -1.167 7.083 -4.604 8.521 -4.833 c 0.771 -0.125 0.792 -0.104 0.625 0.354 c -0.083 0.271 -0.146 0.667 -0.125 0.854 c 0.063 1.083 2.729 3 5.521 3.979 c 5.333 0.979 7.875 5.25 11.04 8.292 c 1.875 0.313 3.958 1.021 4.625 1.583 c 0.625 0.521 1.917 0.479 1.813 1.542 c -0.208 1.875 -2.542 2.625 -4.396 1.958"/></g></g></g><g stroke="#000" stroke-width="1.033" transform="matrix(0.17644 -0.06345 0.06345 0.17644 0 0)"><path d="m 69.71 186.62 c 3.229 0.01 5.847 0.486 5.846 1.106 c 0.006 0.6 -2.602 1.079 -5.838 1.089 c -3.229 -0.01 -5.847 -0.486 -5.853 -1.086 c 0.001 -0.619 2.609 -1.099 5.845 -1.108"/><path d="m 76.35 196.6 c 3.229 0.01 5.847 0.486 5.853 1.086 c 0.006 0.6 -2.629 1.092 -5.864 1.101 c -3.229 -0.01 -5.84 -0.506 -5.846 -1.106 c 0.014 -0.593 2.629 -1.092 5.857 -1.082"/></g><g stroke-width="1.022"><g fill="#ff4500" stroke="#ffd600"><path d="m 137.26 157.13 c -8.428 -0.713 2.547 5.418 -1.056 -2.234 c -3.603 -7.652 -5.86 4.729 -1.035 -2.21 c 4.825 -6.963 -5.984 -0.499 2.443 0.19 c 8.428 0.713 -1.16 -7.438 2.443 0.214 c 3.603 7.652 3.417 -4.943 -1.408 2.02 c -4.825 6.939 7.04 2.709 -1.387 2.02" transform="matrix(0.18864 0 0 0.16437 -1.285 5.321)"/><path d="m 137.26 157.13 c -8.435 -0.713 2.559 5.423 -1.046 -2.229 c -3.605 -7.652 -5.876 4.725 -1.046 -2.214 c 4.816 -6.953 -5.986 -0.505 2.449 0.193 c 8.422 0.713 -1.17 -7.444 2.449 0.208 c 3.605 7.652 3.413 -4.933 -1.404 2.02 c -4.83 6.953 7.03 2.719 -1.404 2.02" transform="matrix(0.28387 0 0 0.26292 -16.573 -11.229)"/></g><path d="m 109.62 141.26 c -0.014 7.891 -5.338 14.277 -11.892 14.258 c -6.554 -0.02 -11.863 -6.406 -11.863 -14.316 c 0 -7.891 5.309 -14.297 11.863 -14.297 c 6.554 -0.02 11.878 6.367 11.892 14.258 l -11.878 0.098" transform="matrix(0.27297 0 0 0.2 -7.922 -2.374)" fill="#bb7ac8" stroke="#bb7ac8"/><path d="m 109.62 141.25 c -0.019 7.905 -5.345 14.276 -11.897 14.276 c -6.552 -0.019 -11.859 -6.429 -11.859 -14.315 c 0 -7.886 5.307 -14.295 11.859 -14.315 c 6.552 0 11.878 6.371 11.897 14.276 l -11.878 0.078" transform="matrix(0.2039 0 0 0.20111 -2.211 -2.076)" fill="#5b2d70" stroke="#5b2d70"/></g><g stroke="#000" stroke-width="0.21" transform="scale(0.1875)"><path d="m 83.81 172.92 c -0.792 -0.958 -1.958 -1.188 -2.458 -2.02 c -0.188 -1.021 0.042 -6.521 0.438 -10.625 c 0.688 -7.04 1.396 -10.313 2.438 -11.167 c 0.729 -0.604 0.25 -1.688 -1.792 -3.958 c -2.042 -1.708 -0.313 -2.979 0.854 -4.938 c 1.104 -1.896 2.208 -0.771 2.583 -1.646 c 0.458 -1.021 0.583 -1.167 1.229 -1.292 c 1.063 -0.188 2.125 0.063 3.25 0.771 c 1.188 0.771 2.396 0.813 5.792 0.208 c 3.208 -0.583 5.813 -0.729 8.354 -0.458 c 3.604 0.375 5.896 1.313 5.896 2.396 c 0 0.583 -1.479 1.813 -2.646 2.188 c -1.521 0.5 -2.208 0.438 -4.375 -0.292 c -1.479 -0.5 -2.271 -0.667 -3.542 -0.667 c -2.146 -0.021 -2.938 0.396 -4.604 2.417 c -1.292 1.583 -2.583 2.75 -4.521 4.125 c -2.854 2 -3.188 2.604 -3.604 6.521 c -0.708 6.979 -1.333 10.04 -2.396 12.08 c 1.125 1.896 -0.667 3.646 -0.896 6.354 m 5.354 -28.23 c 1.021 -0.417 1.25 -1.063 0.938 -2.521 c -0.292 -1.333 -0.708 -2.104 -1.146 -2.104 c -1.896 1.125 -3.771 2.688 -2.917 4.604 c 0.563 0.396 2.188 0.417 3.125 0.021"/><path d="m 80.896 139 c -0.229 -0.479 -1.167 -1.792 -2.104 -2.896 c -4.417 -5.188 -5.396 -6.646 -5.729 -8.354 c -2.083 -1.646 -1.813 -4.083 -2.896 -5.104 c -1.063 -1.688 -1 -3.5 0.125 -4.229 c 0.479 -0.333 0.563 -0.313 1.375 0.104 c 2.521 1.292 7.917 6.229 8.958 8.208 c 0.854 1.562 0.792 2.02 -0.333 2.625 c -1.396 0.771 -1.208 1.313 1.646 4.417 c 1.792 1.938 2.229 2.792 1.979 3.75 c -0.208 0.688 -0.479 3.958 -0.979 3.958 c -0.167 0 -1.833 -2 -2.042 -2.5"/></g></svg>