<svg xmlns="http://www.w3.org/2000/svg" viewBox="0 0 48 48"><path d="m 15.289 0.84 c 67.62 -8.336 12.172 84.81 -13.266 28.594 c -3.809 -10.773 -0.5 -25.293 13.266 -28.594"/><g fill="#fff"><path d="m 17.191 33.695 c -2.141 -0.648 -4.285 -1.277 -6.449 -1.848 v -20.379 c 2.559 0.414 5.102 1.199 7.199 1.824 l 4.648 1.398 v 5.379 c -1.148 0 -2.301 0 -3.449 0 v 1.395 c 0.082 2.207 -0.707 1.754 2.273 1.754 h 1.328 l -0.004 3.375 c 0 1.855 -0.09 4.488 -0.195 5.848 c -0.23 2.977 0.113 2.895 -5.352 1.254"/><path d="m 25.59 29.07 v -5.852 h 1.328 c 2.266 0 2.27 0.375 2.27 -1.969 v -1.027 c -1.199 0 -2.398 0 -3.598 0 v -5.609 l 5.473 -1.547 c 3.01 -0.848 5.574 -1.543 5.699 -1.543 c 0.262 0 0.133 18.695 0.043 19.691 c -0.086 0.941 -0.77 0.84 -3.07 1.563 c -3.531 1.117 -7.25 2.141 -7.766 2.141 c -0.293 0 -0.379 -1.32 -0.379 -5.848"/></g></svg>