<svg xmlns="http://www.w3.org/2000/svg" viewBox="0 0 48 48"><path d="m 1.094 29.23 c 2.926 19.328 28.879 24.496 40.33 10.703 c 10.09 -10.246 7.578 -29.859 -4.793 -36.586 c -14.215 -8.996 -34.918 2.125 -36.05 20.04 c -0.113 1.965 0.051 3.945 0.512 5.852" fill="#0a0000"/><g stroke="#fff"><path d="m 221.46 134.92 c 0 41.73 -33.594 75.55 -75.02 75.55 c -41.45 0 -75.04 -33.819 -75.04 -75.55 c 0 -41.73 33.594 -75.57 75.04 -75.57 c 41.42 0 75.02 33.84 75.02 75.57" transform="matrix(0.18756 0 0 0.18862 -3.213 -1.414)" fill="#f00" stroke-width="3.109"/><g fill="#fff" stroke-width="3.227" transform="scale(0.1875)"><path d="m 79.83 163.13 c -0.271 -0.708 -0.375 -16.06 -0.229 -34.08 l 0.271 -32.792 l 7.25 -0.333 c 4 -0.167 9.688 -0.021 12.688 0.354 c 4.438 0.542 5.438 1.021 5.438 2.667 c -0.438 2.5 -0.333 2.354 -1.417 4.292 c -0.938 1.771 -4.896 1.875 -11.04 1.875 h -7.208 c 0 5.563 0.375 12.479 0.375 18.04 l 6.958 -0.208 c 7.667 -0.208 8.354 -0.646 8.167 4.896 c -0.208 6.458 -1.292 5.396 -8.583 6.083 l -6.917 0.646 v 10.1 c 0 14.667 -0.854 19.771 -3.292 19.771 c -1.063 0 -2.188 -0.583 -2.458 -1.313"/><path d="m 114.67 129.85 l 0.271 -34.08 l 7.25 -0.333 c 3.979 -0.188 9.688 -0.021 12.646 0.333 c 5.167 0.625 5.438 0.813 6.083 4.271 c 0.354 1.979 1.542 4.063 2.625 4.646 c 1.583 0.854 1.938 2.25 1.938 7.708 c 0 5.604 -0.313 6.75 -1.938 7.271 c -3.417 1.083 -3.979 12.02 -0.646 12.02 c 2.125 0 2.583 2.583 2.583 14.688 c 0 11.125 -0.063 11.417 -2.583 12.563 c -1.417 0.667 -2.583 2.063 -2.583 3.104 c 0 1.75 -1.063 1.917 -12.958 1.917 h -12.958 m 21.08 -11.188 c 2.229 -8.146 1.25 -17.12 -2 -18.375 c -2.063 -0.792 -7.5 -0.792 -10.521 0.021 c -4.604 5.854 -2.313 10.958 -2.313 20.17 c 3.313 -0.438 13.833 1.438 14.833 -1.813 m -1.771 -32.29 c 1.708 -1.125 2.688 -6.813 1.896 -11 c -0.792 -4.271 -3 -5.188 -10.208 -4.188 c -7.792 -0.771 -5.125 14.625 -2.938 15.271 c 2.979 0.792 10 0.729 11.25 -0.083"/><path d="m 157.17 160.06 c -0.833 -4.188 -0.833 -60.02 0 -63.17 c 0.563 -2.125 1.25 -2.333 7.625 -2.333 c 9.479 0 13.625 0.958 14.229 3.25 c 0.271 1.042 1.333 2.146 2.333 2.479 c 2.458 0.771 3.083 3.542 3.104 13.667 c 0.021 10.708 -0.792 14.75 -3.104 15.479 c -2.479 6.438 -13.958 8.06 -17.729 9.625 c -0.063 0.438 -0.417 5.938 -0.771 12.229 c -0.604 10.625 -0.792 11.479 -2.833 11.771 c -1.729 0.25 -2.333 -0.375 -2.854 -3 m 17.813 -52.02 c -2.75 -3.458 -3.896 -4.104 -7.104 -4.104 c -3.771 0 -3.833 0.063 -4.5 4.875 c -0.833 6.146 0.313 18.292 1.833 19.313 c 9.708 1.042 15.375 -12.771 9.771 -20.08"/></g></g></svg>