<svg xmlns="http://www.w3.org/2000/svg" viewBox="0 0 48 48" xmlns:xlink="http://www.w3.org/1999/xlink"><defs><linearGradient id="0" gradientUnits="userSpaceOnUse" y1="145.35" x2="0" y2="72.11" gradientTransform="matrix(0.22054 0 0 0.22675 8.709 9.471)"><stop stop-color="#ffc72f"/><stop offset="1" stop-color="#0ba15d"/></linearGradient><linearGradient id="1" gradientUnits="userSpaceOnUse" y1="95.36" x2="0" y2="44.589" gradientTransform="matrix(0.22054 0 0 0.22675 8.709 9.471)" xlink:href="#0"/></defs><path d="m 11.754 5.961 c -42.508 39.516 45.22 64.41 35.547 11.953 c -4.77 -13.84 -21.898 -24.641 -35.547 -11.953" fill="#7fffd4"/><path d="m 17.16 14.14 l -2.23 1.926 l -0.047 0.355 l -0.297 2.277 l -0.297 2.281 l -0.297 2.277 l -0.297 2.281 l 0.863 0.887 h 2.344 l 0.594 -4.559 h 2.344 l 0.297 -2.281 l -0.863 -0.887 h -1.363 l 0.18 -1.391 h 2.344 l 0.297 -2.277 l -0.863 -0.891 m 4.324 0 l -2.23 1.926 l -0.047 0.355 l -0.297 2.277 l -0.891 6.84 l 0.863 0.887 h 2.344 l 0.594 -4.559 h 2.344 l 0.297 -2.281 l -0.863 -0.887 h -1.363 l 0.18 -1.391 h 2.344 l 0.297 -2.277 l -0.863 -0.887 h -2.344 m 4.391 2.277 l 0.863 0.887 h 7.402 l 0.148 -1.141 l -0.859 -0.887 m -7.852 3.418 l 0.863 0.887 h 8.852 l 0.148 -1.137 l -0.863 -0.887 m -9.297 3.418 l 0.863 0.887 h 4.602 l 0.148 -1.141 l -0.863 -0.887 m -0.711 3.402 l -2.23 1.926 l -0.047 0.355 l -0.594 4.555 l -0.297 2.281 l -0.297 2.277 l 0.863 0.887 h 2.344 l 0.594 -4.555 h 2.344 l 0.297 -2.281 l -0.863 -0.887 h -1.363 l 0.18 -1.391 h 2.344 l 0.297 -2.281 l -0.863 -0.887 m -11.75 0.16 l -0.277 2.137 m -4.973 2.262 l -7.551 1.141 l 0.863 0.887 h 7.402 l 0.148 -1.141 m 1.48 -0.887 l -0.297 2.277 l -0.297 2.281 l -0.301 2.277 l 0.863 0.887 h 5.05 l 2.23 -1.922 l 0.641 -4.914 l -0.863 -0.887 h -2.344 l -0.297 2.277 l -0.297 2.281 h -1.367 l 0.48 -3.672 l -0.863 -0.887 m -4.984 2.281 l -9.01 1.137 l 0.863 0.887 h 8.855 l 0.152 -1.137 m -1.16 1.391 l -4.77 1.141 l 0.863 0.887 h 4.617 l 0.148 -1.141 m 13.184 -0.742 l -0.277 2.133" fill="#087042"/><path d="m 32.406 23.258 l -2.23 1.922 l -0.047 0.355 l -0.297 2.281 l -0.297 2.277 l -0.301 2.281 l -0.297 2.277 h 2.344 l 0.301 -2.277 l 0.297 -2.281 h 2.344 l 0.297 -2.277 h -2.344 l 0.297 -2.281 h 2.344 l 0.297 -2.277 m -9.969 4.559 l -0.297 2.277 l -0.301 2.281 h -2.344 l 0.301 -2.281 l 0.297 -2.277 h -2.344 l -0.301 2.277 l -0.297 2.281 l -0.297 2.277 h 5.05 l 2.23 -1.926 l 0.043 -0.352 l 0.297 -2.281 l 0.301 -2.277 m -16.781 0 l -0.148 1.137 h 7.402 l 0.152 -1.137 m -9.156 2.277 l -0.148 1.141 h 8.855 l 0.148 -1.141 m -4.914 2.281 l -0.148 1.137 h 4.617 l 0.148 -1.137" fill="url(#0)"/><path d="m 17.16 14.14 l -2.23 1.926 l -0.047 0.355 l -0.297 2.277 l -0.297 2.281 l -0.297 2.277 l -0.297 2.281 h 2.344 l 0.297 -2.281 l 0.297 -2.277 h 2.344 l 0.297 -2.281 h -2.344 l 0.297 -2.277 h 2.344 l 0.297 -2.281 m 4.324 0 l -2.23 1.926 l -0.047 0.355 l -0.297 2.277 l -0.891 6.84 h 2.344 l 0.297 -2.281 l 0.297 -2.277 h 2.344 l 0.297 -2.281 h -2.344 l 0.297 -2.277 h 2.344 l 0.297 -2.277 h -2.344 m 4.539 1.137 l -0.148 1.141 h 7.402 l 0.148 -1.141 m -7.699 2.281 l -0.148 1.137 h 8.852 l 0.148 -1.137 m -9.148 2.277 l -0.148 1.141 h 4.602 l 0.148 -1.141" fill="url(#1)"/></svg>