<svg xmlns="http://www.w3.org/2000/svg" viewBox="0 0 48 48"><path d="m 6.078 10.875 c 1.57 -2.32 3.676 -4.656 5.598 -6.203 c 6.711 -5.391 14.418 -5.617 21.25 -0.621 c 3.668 2.688 7.188 6.883 10.34 12.344 c 3.766 6.516 5.04 14.32 3.277 20.08 c -0.371 1.219 -1.434 3.336 -2.191 4.371 c -2.531 3.461 -6.336 5.5 -11.859 6.359 c -5.281 0.816 -10.242 0.902 -14.449 0.246 c -8.664 -1.352 -14.461 -6.04 -16.504 -13.348 c -1.434 -5.137 -0.98 -10.895 1.344 -17.08 c 0.348 -0.926 2.621 -5.305 3.195 -6.152" fill="#e4dfb3"/><path d="m 26.25 22.621 c 0 -2.02 -2.07 -3.656 -4.621 -3.656 c -2.551 0 -4.621 1.637 -4.621 3.656 c 0 2.02 2.07 3.656 4.621 3.656 c 2.551 0 4.621 -1.637 4.621 -3.656" fill="#fff"/><path d="m 21.98 39.25 c -1.965 -0.137 -2.863 -0.363 -3.309 -0.84 c -0.438 -0.465 -0.199 -0.941 0.68 -1.352 c 0.742 -0.348 0.758 -0.367 0.852 -1.371 c 0.051 -0.559 0.195 -1.137 0.316 -1.277 c 0.125 -0.145 0.395 -0.672 0.605 -1.172 l 0.383 -0.91 l -0.625 0.25 c -0.891 0.363 -1.078 0.227 -1.078 -0.766 c 0 -0.469 -0.055 -0.852 -0.121 -0.852 c -0.063 0 -0.324 0.238 -0.574 0.531 c -0.398 0.457 -0.512 0.504 -0.828 0.34 c -0.523 -0.27 -2.105 -2.238 -2.777 -3.457 l -0.57 -1.035 l -0.156 0.57 c -0.5 1.879 -1.348 -0.844 -1.34 -4.313 c 0.004 -2.43 0.344 -4.055 1.207 -5.813 c 0.34 -0.691 0.59 -1.285 0.559 -1.316 c -0.035 -0.031 -0.488 0.207 -1.012 0.527 c -1.094 0.676 -1.215 0.703 -1.211 0.301 c 0.004 -0.555 1.016 -2.01 2 -2.883 c 1.887 -1.664 4.105 -2.355 6.191 -1.922 c 0.902 0.188 0.906 0.188 1.824 -0.488 c 0.508 -0.375 1.418 -0.828 2.031 -1.016 c 2.711 -0.816 5.281 -0.066 7.387 2.16 c 1.18 1.25 1.809 2.34 2.441 4.234 c 0.867 2.602 0.695 3.039 -0.633 1.609 c -0.496 -0.539 -0.949 -0.938 -1 -0.887 c -0.055 0.047 0.172 0.656 0.5 1.352 c 1.445 3.047 1.5 6.148 0.16 8.883 c -0.535 1.09 -0.934 0.57 -0.965 -1.254 c -0.004 -0.43 -0.074 -0.934 -0.156 -1.117 c -0.125 -0.301 -0.18 -0.262 -0.441 0.336 c -0.77 1.762 -0.977 2.156 -1.629 3.082 c -0.383 0.543 -1.215 1.461 -1.852 2.039 c -1.07 0.965 -1.156 1.098 -1.156 1.758 c 0 0.391 0.105 0.832 0.238 0.977 c 0.27 0.305 0.809 1.789 0.809 2.227 c 0 0.176 0.258 0.387 0.656 0.543 c 0.941 0.363 1.352 0.844 1.105 1.289 c -0.566 1.023 -3.477 1.375 -8.508 1.031 m 2.801 -16.11 c 0.363 -0.5 0.344 -0.684 -0.063 -0.559 c -0.5 0.156 -0.602 -0.184 -0.148 -0.5 c 0.387 -0.266 0.391 -0.277 0.055 -0.52 c -0.523 -0.379 -1.43 -0.313 -1.75 0.133 c -0.621 0.859 -0.117 1.824 0.953 1.824 c 0.504 0 0.75 -0.098 0.953 -0.379 m -3.797 -0.258 c 0.043 -0.113 -0.051 -0.211 -0.203 -0.211 c -0.152 0 -0.277 -0.074 -0.277 -0.168 c 0 -0.094 0.125 -0.172 0.277 -0.172 c 0.453 0 0.172 -0.418 -0.324 -0.473 c -0.648 -0.074 -0.984 0.535 -0.547 1 c 0.336 0.355 0.957 0.367 1.074 0.02" fill="#f2d9a2"/><path d="m 20.801 39.07 c -2.254 -0.32 -2.973 -1.352 -1.367 -1.961 c 0.703 -0.27 0.887 -0.668 0.895 -1.938 c 0 -0.242 0.121 -0.543 0.273 -0.66 c 0.359 -0.289 1.379 -2.348 1.23 -2.488 c -0.063 -0.063 -0.34 0.02 -0.617 0.176 c -0.824 0.473 -1.027 0.379 -1.152 -0.516 c -0.199 -1.453 -0.313 -1.531 -0.918 -0.633 c -0.215 0.324 -0.504 0.59 -0.641 0.59 c -0.488 0 -2.672 -2.824 -3.238 -4.188 c -0.285 -0.688 -0.516 -0.703 -0.652 -0.035 c -0.059 0.281 -0.191 0.484 -0.297 0.453 c -0.348 -0.113 -0.508 -1.367 -0.516 -4.02 c -0.008 -3.078 0.305 -4.5 1.453 -6.555 c 0.383 -0.688 0.699 -1.285 0.699 -1.324 c 0 -0.219 -0.684 -0.008 -1.441 0.445 c -0.48 0.285 -0.918 0.473 -0.973 0.418 c -0.25 -0.242 1.387 -2.082 2.523 -2.84 c 1.832 -1.223 3.625 -1.598 5.379 -1.129 c 0.629 0.172 0.723 0.145 1.359 -0.348 c 0.379 -0.293 1.137 -0.738 1.688 -0.988 c 0.855 -0.387 1.234 -0.453 2.578 -0.453 c 1.344 0 1.723 0.066 2.574 0.453 c 1.98 0.898 3.93 3.184 4.766 5.59 c 0.406 1.172 0.547 1.824 0.391 1.824 c -0.035 0 -0.395 -0.305 -0.801 -0.68 c -0.863 -0.797 -1.563 -1.266 -1.695 -1.137 c -0.055 0.051 0.258 0.805 0.691 1.672 c 1.316 2.648 1.414 3.02 1.406 5.391 c -0.004 1.789 -0.063 2.266 -0.398 3.09 c -0.219 0.535 -0.461 0.938 -0.535 0.891 c -0.074 -0.043 -0.176 -0.598 -0.227 -1.227 c -0.047 -0.633 -0.207 -1.414 -0.352 -1.738 l -0.258 -0.594 l -0.184 0.422 c -0.102 0.234 -0.418 1.012 -0.707 1.727 c -0.645 1.594 -1.57 2.969 -2.801 4.16 c -0.711 0.688 -0.988 0.859 -1.164 0.719 c -0.285 -0.227 -0.438 0.25 -0.441 1.387 c 0 0.547 0.098 0.891 0.316 1.098 c 0.387 0.363 0.871 1.352 1.02 2.07 c 0.082 0.41 0.281 0.609 0.918 0.91 c 1.398 0.676 1.102 1.414 -0.766 1.883 c -1.148 0.289 -6.172 0.34 -8.02 0.078 m 3.203 -1 c 0 -0.094 -0.137 -0.168 -0.305 -0.168 c -0.262 0.004 -0.27 0.027 -0.047 0.168 c 0.332 0.207 0.352 0.207 0.352 0 m 1.02 -5.648 c 0.227 -0.223 0.164 -0.219 -0.504 0.004 c -0.418 0.137 -0.902 0.215 -1.074 0.172 c -0.344 -0.086 -0.574 0.133 -0.41 0.387 c 0.129 0.203 1.633 -0.223 1.988 -0.563 m 2.887 -2.285 c -0.074 -0.105 -0.582 0.344 -0.582 0.516 c 0 0.086 0.098 0.258 0.219 0.387 c 0.18 0.188 0.238 0.133 0.316 -0.305 c 0.051 -0.293 0.074 -0.563 0.047 -0.598 m -3.207 -5.66 c 0 -0.125 -0.051 -0.273 -0.113 -0.336 c -0.16 -0.152 -0.605 0.227 -0.484 0.41 c 0.148 0.234 0.598 0.18 0.598 -0.074 m 0.297 -1.227 c 0.605 -0.805 -0.063 -2.102 -1.082 -2.102 c -0.852 0 -1.152 0.156 -1.402 0.738 c -0.254 0.582 -0.09 1.23 0.402 1.602 c 0.414 0.313 1.785 0.152 2.082 -0.238 m -0.645 -0.918 c 0 -0.09 0.078 -0.168 0.172 -0.168 c 0.098 0 0.176 0.078 0.176 0.168 c 0 0.094 -0.078 0.172 -0.176 0.172 c -0.094 0 -0.172 -0.078 -0.172 -0.172 m -3.188 0.813 c 0.117 -0.109 0.211 -0.398 0.211 -0.641 c 0 -0.559 -0.297 -0.848 -0.867 -0.84 c -0.621 0.004 -1.059 0.375 -1.059 0.891 c 0 0.242 0.137 0.516 0.309 0.613 c 0.418 0.234 1.152 0.223 1.406 -0.023 m -4.723 -0.855 c 0.039 -0.199 -0.051 -0.293 -0.293 -0.293 c -0.402 0 -0.625 0.25 -0.453 0.516 c 0.168 0.266 0.68 0.113 0.746 -0.223 m -1.047 -0.422 c 0.035 -0.242 -0.035 -0.379 -0.199 -0.379 c -0.34 0 -0.703 0.445 -0.555 0.676 c 0.195 0.309 0.691 0.109 0.754 -0.297 m 5.703 -3.578 c 0.762 -0.195 1.727 -0.355 2.145 -0.355 c 0.418 0 0.758 -0.074 0.758 -0.168 c 0 -0.422 -3.059 0.039 -4.406 0.664 c -0.895 0.414 -0.508 0.379 1.504 -0.141" fill="#c8a69a"/><path d="m 20.277 38.855 c -1.063 -0.23 -1.836 -0.77 -1.609 -1.125 c 0.07 -0.113 0.477 -0.352 0.895 -0.531 c 0.738 -0.316 0.766 -0.359 0.766 -1.07 c 0 -0.91 0.258 -1.613 0.59 -1.613 c 0.133 0 0.289 -0.16 0.34 -0.355 c 0.059 -0.203 0.18 -0.305 0.293 -0.238 c 0.105 0.063 0.145 0.258 0.09 0.43 c -0.086 0.262 0.02 0.328 0.648 0.418 c 0.414 0.059 1.227 0.086 1.801 0.055 l 1.051 -0.055 l 0.121 -1.055 c 0.141 -1.23 0.223 -1.398 0.664 -1.398 c 0.184 0 0.379 -0.152 0.441 -0.336 c 0.113 -0.352 0.746 -0.777 0.91 -0.613 c 0.051 0.047 -0.074 0.398 -0.277 0.777 c -0.234 0.438 -0.371 1 -0.371 1.543 v 0.852 l 0.551 -0.055 c 0.77 -0.074 0.805 0.25 0.066 0.59 c -0.586 0.27 -0.617 0.328 -0.617 1.133 c 0 0.465 0.078 0.848 0.176 0.848 c 0.098 0 0.176 -0.07 0.176 -0.16 c 0 -0.09 0.191 -0.434 0.422 -0.77 c 0.234 -0.332 0.461 -0.695 0.504 -0.809 c 0.137 -0.359 0.516 0.137 0.633 0.832 c 0.09 0.547 0.223 0.691 0.945 1.051 c 1.047 0.523 1.059 0.969 0.031 1.465 c -0.625 0.301 -1.094 0.34 -4.461 0.371 c -2.551 0.023 -4.09 -0.035 -4.777 -0.18 m 4.898 -1.715 c 0.043 -0.832 0.008 -1.109 -0.117 -0.93 c -0.098 0.137 -0.176 0.453 -0.176 0.695 c -0.004 0.246 -0.102 0.523 -0.223 0.617 c -0.297 0.23 -3.03 0.262 -3.461 0.039 c -0.293 -0.152 -0.348 -0.129 -0.348 0.164 c 0 0.309 0.117 0.344 1.094 0.355 c 0.602 0.008 1.254 0.078 1.445 0.16 c 0.191 0.082 0.66 0.137 1.039 0.117 l 0.691 -0.035 m 1.945 -0.422 c -0.059 -0.094 -0.254 -0.172 -0.426 -0.172 c -0.664 0 -0.754 -0.383 -0.656 -2.828 c 0.063 -1.535 0.043 -2.043 -0.051 -1.484 c -0.082 0.465 -0.156 1.703 -0.164 2.75 l -0.016 1.902 h 0.711 c 0.426 0 0.664 -0.066 0.602 -0.168 m -4.813 -5.469 c 0 -0.215 0.234 -0.609 0.523 -0.879 c 0.465 -0.426 0.527 -0.445 0.523 -0.156 c 0 0.402 -0.625 1.426 -0.871 1.426 c -0.098 0 -0.176 -0.176 -0.176 -0.391 m -1.988 -0.063 c -0.063 -0.063 -0.113 -0.426 -0.113 -0.813 c 0 -0.383 -0.117 -0.848 -0.262 -1.027 c -0.234 -0.293 -0.281 -0.301 -0.43 -0.059 c -0.438 0.699 -0.844 1.051 -1.105 0.953 c -0.465 -0.176 -2.02 -2.168 -2.691 -3.465 c -0.617 -1.184 -1.109 -1.582 -1.109 -0.898 c 0 0.406 -0.281 0.598 -0.41 0.277 c -0.051 -0.129 -0.188 -0.863 -0.305 -1.633 c -0.422 -2.809 0.133 -6.109 1.414 -8.406 c 0.383 -0.691 0.699 -1.289 0.699 -1.328 c 0 -0.215 -0.684 -0.008 -1.445 0.445 c -0.477 0.285 -0.914 0.477 -0.969 0.422 c -0.25 -0.242 1.383 -2.082 2.52 -2.84 c 1.836 -1.223 3.629 -1.602 5.383 -1.129 c 0.629 0.168 0.723 0.145 1.359 -0.352 c 0.379 -0.293 1.137 -0.734 1.688 -0.984 c 0.855 -0.391 1.234 -0.457 2.578 -0.457 c 1.344 0 1.723 0.066 2.574 0.453 c 1.98 0.898 3.93 3.184 4.766 5.59 c 0.406 1.176 0.547 1.828 0.387 1.828 c -0.031 0 -0.391 -0.309 -0.797 -0.68 c -0.863 -0.797 -1.566 -1.266 -1.699 -1.137 c -0.051 0.047 0.262 0.801 0.695 1.672 c 1.313 2.645 1.414 3.02 1.406 5.387 c -0.004 1.793 -0.066 2.266 -0.398 3.09 c -0.219 0.539 -0.461 0.941 -0.535 0.895 c -0.074 -0.047 -0.18 -0.598 -0.227 -1.23 c -0.047 -0.629 -0.207 -1.41 -0.352 -1.738 l -0.262 -0.59 l -0.18 0.422 c -0.102 0.23 -0.422 1.01 -0.707 1.723 c -0.289 0.719 -0.828 1.742 -1.199 2.281 c -0.82 1.195 -2.496 2.848 -2.691 2.652 c -0.078 -0.078 -0.078 -0.469 -0.004 -0.863 c 0.078 -0.398 0.086 -0.758 0.016 -0.797 c -0.066 -0.043 -0.457 0.258 -0.871 0.664 c -0.852 0.84 -3.078 1.934 -3.363 1.652 c -0.117 -0.109 -0.117 -0.281 -0.008 -0.484 c 0.234 -0.441 0.426 -1.555 0.297 -1.754 c -0.059 -0.094 -0.477 0.195 -0.926 0.637 c -0.836 0.816 -2.516 1.816 -2.719 1.617 m 3.871 -5.301 c 1.422 -0.449 1.496 -0.555 1.402 -1.953 c -0.055 -0.828 -0.059 -0.832 -0.301 -0.371 c -0.313 0.598 -0.84 0.762 -1.215 0.379 c -0.27 -0.273 -0.262 -0.285 0.098 -0.203 c 0.211 0.047 0.527 -0.012 0.699 -0.137 c 0.266 -0.191 0.281 -0.281 0.098 -0.574 c -0.277 -0.438 -0.273 -0.52 0.008 -0.52 c 0.129 0 0.367 -0.094 0.531 -0.211 c 0.273 -0.191 0.281 -0.336 0.09 -1.523 c -0.215 -1.34 -0.305 -1.488 -0.656 -1.078 c -0.137 0.16 -0.441 0.207 -0.969 0.148 c -0.426 -0.047 -1.027 0 -1.336 0.105 c -0.418 0.141 -0.625 0.141 -0.801 0 c -0.277 -0.223 -0.313 -1.051 -0.063 -1.5 c 0.254 -0.461 1.297 -0.734 2.297 -0.609 c 0.469 0.063 0.855 0.074 0.855 0.027 c 0 -0.383 -0.672 -1.309 -1 -1.391 c -1.043 -0.254 -4.387 0.563 -5.691 1.391 c -0.504 0.32 -0.656 0.527 -0.656 0.898 c 0 0.27 0.113 0.578 0.25 0.688 c 0.203 0.16 0.305 0.121 0.527 -0.207 c 0.551 -0.813 1.926 -1.063 2.547 -0.461 c 0.633 0.613 0.363 1.523 -0.453 1.523 c -0.648 0 -1.156 0.539 -1.23 1.309 l -0.063 0.699 l 0.918 0.09 c 0.504 0.051 1.609 0.141 2.457 0.199 c 1.047 0.07 1.52 0.168 1.473 0.301 c -0.176 0.516 -4.32 0.172 -7.04 -0.586 c -0.961 -0.266 -1.809 -0.488 -1.879 -0.488 c -0.457 -0.004 0.441 1.988 0.988 2.195 c 0.199 0.078 0.539 0.301 0.754 0.496 c 0.211 0.195 0.469 0.355 0.566 0.355 c 0.102 0 0.184 0.148 0.184 0.332 c 0 0.391 0.348 0.594 1.609 0.934 c 1.297 0.352 3.414 0.242 5 -0.258 m -7.656 -4.406 c 0.258 -0.465 0.094 -0.832 -0.363 -0.832 c -0.203 0 -0.484 -0.113 -0.625 -0.25 c -0.324 -0.316 -0.668 -0.184 -0.922 0.355 c -0.258 0.547 -0.125 0.738 0.504 0.738 c 0.277 0 0.555 0.078 0.613 0.172 c 0.18 0.281 0.59 0.188 0.793 -0.184" fill="#ad978f"/><path d="m 21.598 37.23 c -0.887 -0.203 -1.094 -0.461 -1.094 -1.359 c 0 -0.973 0.262 -1.25 0.98 -1.027 c 0.277 0.086 1.203 0.211 2.051 0.27 c 1.344 0.098 1.527 0.148 1.422 0.395 c -0.066 0.152 -0.156 0.469 -0.199 0.703 c -0.227 1.262 -0.129 1.184 -1.414 1.168 c -0.648 -0.012 -1.434 -0.078 -1.746 -0.148 m 5.617 -0.094 c -0.125 -0.313 0.758 -1.656 0.996 -1.516 c 0.094 0.055 0.168 0.43 0.168 0.832 c 0 0.617 -0.063 0.75 -0.395 0.836 c -0.574 0.148 -0.656 0.133 -0.77 -0.152 m -6.953 -4.77 c -0.059 -0.059 -0.109 -0.422 -0.109 -0.805 c 0 -0.387 -0.117 -0.852 -0.262 -1.031 c -0.234 -0.293 -0.281 -0.301 -0.43 -0.059 c -0.512 0.816 -0.859 1.086 -1.176 0.898 c -0.57 -0.328 -2.316 -2.664 -2.809 -3.75 c -0.48 -1.066 -0.691 -1.266 -0.84 -0.805 c -0.277 0.855 -0.27 0.848 -0.43 0.602 c -0.305 -0.48 -0.574 -3.148 -0.473 -4.656 c 0.145 -2.043 0.668 -3.938 1.52 -5.461 c 0.383 -0.688 0.699 -1.285 0.699 -1.324 c 0 -0.219 -0.684 -0.008 -1.441 0.445 c -0.48 0.285 -0.918 0.473 -0.973 0.418 c -0.25 -0.238 1.383 -2.082 2.523 -2.84 c 1.832 -1.223 3.625 -1.598 5.379 -1.129 c 0.629 0.172 0.723 0.148 1.359 -0.348 c 0.379 -0.293 1.137 -0.738 1.688 -0.988 c 0.855 -0.387 1.234 -0.453 2.578 -0.453 c 1.344 0 1.723 0.066 2.574 0.453 c 1.98 0.898 3.93 3.184 4.766 5.59 c 0.406 1.176 0.547 1.824 0.391 1.824 c -0.035 0 -0.395 -0.305 -0.801 -0.68 c -0.863 -0.797 -1.566 -1.266 -1.699 -1.137 c -0.051 0.051 0.262 0.805 0.695 1.672 c 1.316 2.648 1.414 3.02 1.406 5.391 c -0.004 1.789 -0.066 2.266 -0.398 3.09 c -0.219 0.535 -0.461 0.938 -0.535 0.895 c -0.074 -0.047 -0.176 -0.602 -0.227 -1.23 c -0.047 -0.629 -0.207 -1.414 -0.352 -1.738 l -0.262 -0.594 l -0.18 0.422 c -0.102 0.234 -0.422 1.012 -0.707 1.727 c -0.289 0.715 -0.828 1.742 -1.199 2.281 c -0.82 1.195 -2.496 2.844 -2.691 2.652 c -0.078 -0.078 -0.078 -0.465 -0.004 -0.859 c 0.074 -0.391 0.098 -0.754 0.047 -0.801 c -0.051 -0.047 -0.473 0.258 -0.941 0.684 c -0.957 0.863 -3.047 1.902 -3.313 1.648 c -0.105 -0.102 -0.066 -0.391 0.102 -0.781 c 0.281 -0.645 0.348 -1.336 0.152 -1.527 c -0.066 -0.063 -0.563 0.297 -1.102 0.797 c -0.988 0.91 -2.32 1.707 -2.523 1.508 m 3.887 -4.875 c 0.762 -0.23 1.484 -0.539 1.605 -0.68 c 0.445 -0.52 -0.063 -6.281 -0.602 -6.805 c -0.051 -0.047 -0.172 0.113 -0.27 0.355 c -0.156 0.398 -0.266 0.449 -1.031 0.449 c -0.473 0 -1.105 0.047 -1.406 0.105 c -0.539 0.105 -0.543 0.098 -0.543 -0.586 c 0 -0.918 0.375 -1.113 1.945 -1 l 1.188 0.082 l -0.27 -0.609 c -0.148 -0.336 -0.313 -0.707 -0.363 -0.824 c -0.332 -0.785 -4.406 -0.078 -6.23 1.078 c -0.566 0.359 -0.66 0.5 -0.613 0.945 c 0.082 0.785 0.504 0.953 1.059 0.418 c 0.563 -0.547 1.25 -0.723 1.82 -0.473 c 0.352 0.156 0.426 0.293 0.379 0.73 c -0.047 0.457 -0.145 0.563 -0.664 0.691 c -0.891 0.219 -1.051 0.414 -1.051 1.246 c 0 0.922 -0.227 1.031 -1.453 0.715 c -0.879 -0.227 -0.914 -0.258 -1 -0.91 c -0.066 -0.531 -0.16 -0.68 -0.438 -0.684 c -0.191 -0.008 -0.52 -0.102 -0.73 -0.215 c -0.309 -0.164 -0.434 -0.148 -0.656 0.066 c -0.941 0.91 -0.324 2.945 1.359 4.504 c 2.129 1.965 4.66 2.414 7.965 1.402" fill="#f3ab12"/><path d="m 21.598 37.23 c -0.887 -0.203 -1.094 -0.461 -1.094 -1.359 c 0 -0.973 0.262 -1.25 0.98 -1.027 c 0.277 0.086 1.203 0.211 2.051 0.27 c 1.344 0.098 1.527 0.148 1.422 0.395 c -0.066 0.152 -0.156 0.469 -0.199 0.703 c -0.227 1.262 -0.129 1.184 -1.414 1.168 c -0.648 -0.012 -1.434 -0.078 -1.746 -0.148 m 5.617 -0.094 c -0.125 -0.313 0.758 -1.656 0.996 -1.516 c 0.094 0.055 0.168 0.43 0.168 0.832 c 0 0.617 -0.063 0.75 -0.395 0.836 c -0.574 0.148 -0.656 0.133 -0.77 -0.152 m -6.969 -5.602 c -0.227 -1.461 -0.531 -1.633 -1.184 -0.656 c -0.219 0.328 -0.484 0.574 -0.594 0.551 c -0.406 -0.09 -1.996 -2.109 -2.723 -3.461 c -0.414 -0.77 -0.813 -1.402 -0.879 -1.402 c -0.07 0 -0.246 0.207 -0.387 0.465 c -0.258 0.457 -0.262 0.445 -0.266 -0.551 c -0.004 -0.559 0.098 -1.348 0.223 -1.758 l 0.23 -0.742 l 0.238 0.559 c 0.293 0.688 1.957 2.277 2.836 2.719 c 1.781 0.887 3.887 0.988 6.234 0.297 c 1.969 -0.578 1.953 -0.559 1.953 -2.516 v -1.688 h 0.941 l -0.355 0.32 c -0.316 0.281 -0.371 0.605 -0.473 2.664 c -0.063 1.289 -0.164 2.715 -0.227 3.172 c -0.152 1.121 0.152 1 1.152 -0.445 c 0.426 -0.617 0.84 -1.086 0.918 -1.039 c 0.078 0.047 0.141 0.375 0.141 0.73 c 0 0.961 -1.059 2.164 -2.602 2.949 c -1.438 0.73 -1.867 0.789 -1.691 0.234 c 0.246 -0.781 0.32 -1.988 0.117 -1.988 c -0.109 0 -0.488 0.313 -0.848 0.691 c -0.551 0.594 -2.176 1.672 -2.523 1.676 c -0.063 0 -0.168 -0.352 -0.234 -0.781 m -2.805 -8.242 c -0.637 -0.188 -0.707 -0.266 -0.789 -0.879 c -0.07 -0.566 -0.148 -0.672 -0.48 -0.66 c -0.215 0.008 -0.395 -0.031 -0.395 -0.086 c 0 -0.199 1.238 -1.871 1.387 -1.871 c 0.082 0 0.246 0.227 0.363 0.508 c 0.266 0.613 0.551 0.637 1.117 0.09 c 0.543 -0.523 1.234 -0.699 1.797 -0.449 c 0.352 0.156 0.426 0.293 0.379 0.73 c -0.047 0.457 -0.145 0.563 -0.668 0.691 c -0.879 0.219 -1.023 0.391 -1.082 1.277 c -0.047 0.707 -0.102 0.793 -0.492 0.824 c -0.238 0.016 -0.75 -0.063 -1.137 -0.176 m 11.496 -1.766 c 0.039 -0.332 0.152 -0.461 0.406 -0.461 c 0.496 0 0.453 0.598 -0.055 0.781 c -0.371 0.133 -0.402 0.102 -0.352 -0.32 m -7.03 -1.195 c 0 -0.898 0.371 -1.102 1.859 -1.012 c 1.371 0.086 1.563 0.234 1.191 0.953 c -0.254 0.492 -0.348 0.539 -1.117 0.539 c -0.461 0 -1.086 0.047 -1.387 0.105 c -0.543 0.102 -0.547 0.098 -0.547 -0.586 m -0.043 -6.262 c -0.59 -0.344 -0.617 -0.535 -0.074 -0.535 c 0.227 0 0.883 -0.227 1.457 -0.504 c 1.195 -0.578 2.16 -0.816 2.16 -0.539 c 0 0.102 -0.18 0.273 -0.395 0.383 c -0.219 0.105 -0.797 0.488 -1.285 0.852 c -0.98 0.723 -1.16 0.754 -1.863 0.344" fill="#b17612"/><path d="m 21.598 37.23 c -0.887 -0.203 -1.094 -0.461 -1.094 -1.359 c 0 -0.973 0.262 -1.25 0.98 -1.027 c 0.277 0.086 1.195 0.207 2.039 0.27 c 0.844 0.063 1.531 0.141 1.531 0.172 c 0 0.035 -0.074 0.238 -0.164 0.453 c -0.09 0.211 -0.211 0.672 -0.27 1.023 l -0.109 0.633 l -1.172 -0.016 c -0.645 -0.012 -1.43 -0.078 -1.742 -0.148 m 5.617 -0.094 c -0.125 -0.313 0.758 -1.656 0.996 -1.516 c 0.094 0.055 0.168 0.43 0.168 0.832 c 0 0.617 -0.063 0.75 -0.395 0.836 c -0.574 0.148 -0.656 0.133 -0.77 -0.152 m -8.707 -15.633 c -0.277 -0.297 -0.281 -0.367 -0.035 -0.824 c 0.512 -0.961 2.086 -1.16 2.309 -0.289 c 0.156 0.594 -0.023 0.93 -0.5 0.93 c -0.227 0 -0.563 0.109 -0.75 0.246 c -0.457 0.336 -0.664 0.32 -1.023 -0.063 m 3.398 -1.133 c 0 -0.715 0.52 -1.082 1.535 -1.082 c 0.957 0 1.438 0.242 1.434 0.723 c -0.004 0.641 -0.215 0.75 -1.613 0.836 l -1.355 0.082" fill="#554425"/></svg>