<svg xmlns="http://www.w3.org/2000/svg" viewBox="0 0 48 48"><path d="m 8.504 41.1 c -37.36 -49.52 65.46 -56.56 32.461 -6.01 c -7.523 11.527 -22.566 19.13 -32.461 6.01" fill="#ef94be"/><g fill="#fff" stroke="#fff"><path d="m 68.51 140.62 c 2.468 -14.629 30.607 -25.582 62.866 -24.463 c 32.26 1.12 56.41 13.883 53.937 28.512 c -2.468 14.648 -30.607 25.601 -62.866 24.482 c -32.11 -1.12 -56.23 -13.79 -53.959 -28.363" transform="matrix(0.182 0 0 0.20934 0.496 -4.96)" stroke-width="2.283"/><g stroke-width="2.476" transform="matrix(0.18224 0 0 0.18364 -0.127 0.4)"><path d="m 66.61 97.08 c -2.787 -3.212 -3.88 -5.999 -5.209 -13.252 c -1.522 -8.424 -0.514 -16.911 2.315 -19.761 c 2.401 -2.382 6.902 -2 14.555 1.276 c 25.465 12.976 -6.323 43.734 -11.639 31.737"/><path d="m 189.76 98.16 c -22.01 -3.084 -14.469 -14.592 -14.469 -29.716 c 5.059 -2.297 10.546 -5.212 16.05 -5.297 c 4.373 -0.021 4.78 0.234 6.366 4.04 c 1.329 3.191 1.543 6.084 0.965 13.21 c -0.986 12.12 -4.566 19.272 -8.917 17.762"/></g></g><path d="m 15.34 38.66 c -0.043 -0.066 0.184 -0.762 0.504 -1.543 c 0.32 -0.781 0.582 -1.57 0.586 -1.758 c 0.004 -0.301 -0.07 -0.34 -0.648 -0.34 c -0.867 0 -1.09 -0.102 -1.359 -0.625 c -0.156 -0.309 -0.195 -0.645 -0.125 -1.098 c 0.086 -0.586 0.055 -0.684 -0.27 -0.898 c -0.199 -0.137 -0.465 -0.203 -0.594 -0.156 c -0.293 0.117 -1.09 -0.301 -1.285 -0.676 c -0.223 -0.426 -0.188 -1.098 0.082 -1.488 c 0.379 -0.547 0.168 -1.039 -0.527 -1.227 c -1.152 -0.316 -1.418 -1.492 -0.52 -2.328 c 0.672 -0.629 0.672 -1.055 -0.004 -1.461 c -0.625 -0.375 -0.813 -0.691 -0.809 -1.359 c 0.008 -0.633 0.234 -0.938 0.926 -1.23 c 0.672 -0.285 0.691 -0.551 0.105 -1.305 c -0.648 -0.832 -1.145 -2.023 -1.508 -3.629 c -0.262 -1.148 -0.324 -1.902 -0.332 -4.047 c -0.012 -3.383 0.043 -3.52 1.371 -3.582 c 1.098 -0.055 2.184 0.234 3.57 0.941 c 1.141 0.586 2.742 1.777 3.066 2.285 c 0.328 0.512 0.906 0.477 1.016 -0.059 c 0.164 -0.777 0.352 -1.078 0.816 -1.324 c 0.582 -0.305 1.016 -0.203 1.688 0.395 c 0.609 0.547 0.996 0.496 1.266 -0.172 c 0.246 -0.602 0.684 -0.895 1.336 -0.895 c 0.574 0 0.98 0.344 1.293 1.094 c 0.238 0.566 0.684 0.531 1.383 -0.113 c 0.668 -0.617 1.227 -0.684 1.809 -0.215 c 0.262 0.207 0.391 0.457 0.391 0.742 c 0 0.367 0.316 0.902 0.531 0.902 c 0.039 0 0.484 -0.391 0.988 -0.871 c 1.695 -1.602 3.891 -2.691 5.746 -2.852 c 1.219 -0.102 1.504 0.125 1.766 1.414 c 0.266 1.273 0.09 4.406 -0.359 6.379 c -0.414 1.848 -0.641 2.445 -1.273 3.383 c -0.555 0.82 -0.492 1.188 0.238 1.434 c 0.613 0.207 1.039 0.949 0.891 1.555 c -0.109 0.438 -0.25 0.59 -0.945 1.01 c -0.637 0.383 -0.605 0.703 0.141 1.359 c 0.539 0.469 0.621 0.621 0.609 1.113 c -0.02 0.68 -0.34 1.047 -1.156 1.316 c -0.672 0.223 -0.836 0.648 -0.453 1.203 c 0.129 0.184 0.23 0.582 0.23 0.879 c 0 0.699 -0.453 1.133 -1.297 1.238 c -0.945 0.121 -1.086 0.301 -0.977 1.246 c 0.086 0.727 0.059 0.832 -0.305 1.203 c -0.375 0.379 -0.461 0.398 -1.258 0.309 c -0.98 -0.113 -1.105 -0.023 -1.242 0.891 c -0.168 1.129 -1.176 1.602 -2.098 0.977 c -0.68 -0.457 -0.934 -0.387 -1.25 0.359 c -0.32 0.766 -0.781 1.148 -1.383 1.148 c -0.391 0 -0.754 -0.289 -1.402 -1.113 c -0.328 -0.414 -0.742 -0.285 -1.137 0.352 c -0.645 1.039 -1.902 1 -2.402 -0.066 c -0.137 -0.289 -0.352 -0.527 -0.48 -0.527 c -0.125 0 -1.191 0.441 -2.367 0.98 c -2.152 0.984 -2.441 1.078 -2.582 0.852 m 2.602 -11.492 c 1.25 -0.383 1.863 -1.719 1.355 -2.965 c -0.367 -0.898 -1.043 -1.375 -1.961 -1.375 c -2.578 0 -3.09 3.609 -0.621 4.371 c 0.539 0.168 0.578 0.164 1.227 -0.031 m 6.324 0.027 c 0.648 -0.188 1.289 -0.816 1.5 -1.465 c 0.383 -1.188 -0.289 -1.758 -2.082 -1.766 c -1.207 -0.004 -2.098 0.352 -2.195 0.879 c -0.172 0.91 0.566 2.059 1.5 2.332 c 0.637 0.188 0.695 0.191 1.277 0.02 m 6.859 -0.254 c 0.898 -0.469 1.309 -2.102 0.758 -3.039 c -0.773 -1.313 -2.91 -1.434 -3.699 -0.207 c -1.332 2.07 0.762 4.379 2.941 3.246 m -18.1 -8.406 c 0.113 -0.137 0.145 -0.383 0.082 -0.637 c -0.281 -1.152 -0.266 -1.367 0.121 -1.762 c 0.313 -0.32 0.516 -0.387 1.191 -0.387 c 0.68 0 0.844 -0.055 0.984 -0.316 c 0.09 -0.176 0.129 -0.461 0.082 -0.637 c -0.043 -0.18 -0.008 -0.578 0.086 -0.891 c 0.215 -0.727 0.016 -0.965 -1.328 -1.59 c -1.828 -0.848 -2.895 -0.758 -3.242 0.277 c -0.422 1.25 -0.102 4.273 0.57 5.379 c 0.438 0.723 1.113 0.984 1.453 0.563 m 22.449 -0.508 c 0.492 -0.746 0.652 -1.418 0.742 -3.145 c 0.094 -1.84 -0.168 -2.832 -0.793 -2.992 c -0.715 -0.18 -1.84 0.047 -2.84 0.578 c -0.945 0.504 -0.984 0.547 -0.945 1.039 c 0.023 0.281 0.063 0.793 0.086 1.141 c 0.063 0.891 0.309 1.141 0.992 1.023 c 0.613 -0.105 1.371 0.199 1.527 0.613 c 0.141 0.379 0.105 1.07 -0.078 1.484 c -0.133 0.297 -0.129 0.434 0.023 0.617 c 0.309 0.379 0.906 0.211 1.285 -0.359" fill="#4b3d8f"/></svg>