<svg xmlns="http://www.w3.org/2000/svg" viewBox="0 0 48 48"><path d="m 35.492 23.492 c -0.66 -0.328 -0.66 -0.328 -0.492 -0.473 c 0.078 -0.066 0.141 -0.258 0.141 -0.422 c 0 -0.457 1.027 -1.207 1.461 -1.063 c 0.102 0.031 0.289 0.008 0.41 -0.059 c 0.277 -0.156 0.82 0.066 0.82 0.336 c 0 0.094 0.125 0.246 0.273 0.332 c 0.246 0.141 0.285 0.137 0.395 -0.016 c 0.07 -0.094 0.168 -0.137 0.215 -0.094 c 0.051 0.039 0.02 0.145 -0.063 0.234 c -0.199 0.207 0.023 0.449 0.262 0.281 c 0.082 -0.059 0.379 -0.141 0.656 -0.18 c 0.434 -0.063 0.535 -0.043 0.672 0.129 c 0.09 0.113 0.27 0.227 0.398 0.258 c 0.363 0.082 0.32 -0.371 -0.055 -0.582 c -0.352 -0.203 -0.383 -0.473 -0.059 -0.473 c 0.152 0 0.234 -0.07 0.234 -0.195 c 0 -0.203 0.246 -0.301 0.938 -0.379 c 0.227 -0.027 0.566 -0.102 0.754 -0.168 c 0.266 -0.094 0.355 -0.094 0.391 0.004 c 0.027 0.066 0.156 0.121 0.289 0.121 c 0.199 0 0.227 0.047 0.168 0.309 c -0.063 0.25 -0.031 0.309 0.137 0.309 c 0.113 0 0.27 0.059 0.352 0.129 c 0.125 0.102 0.176 0.09 0.27 -0.055 c 0.148 -0.23 0.371 -0.121 0.277 0.141 c -0.051 0.137 -0.02 0.195 0.109 0.195 c 0.406 0 0.039 0.961 -0.48 1.242 c -0.457 0.246 -1.93 0.344 -2.699 0.18 c -0.352 -0.078 -0.605 -0.074 -0.898 0.012 c -0.305 0.086 -0.594 0.09 -1.078 0.012 c -0.527 -0.086 -0.723 -0.078 -0.996 0.047 c -0.219 0.098 -0.672 0.152 -1.309 0.148 c -0.824 0 -1.051 -0.039 -1.5 -0.266 m 6.855 -1.785 c 0.199 -0.074 0.176 -0.09 -0.145 -0.098 c -0.211 -0.004 -0.383 0.039 -0.383 0.098 c 0 0.121 0.207 0.121 0.527 0 m -13.738 1.848 c -0.145 -0.051 -0.262 -0.145 -0.262 -0.203 c 0 -0.059 -0.32 -0.105 -0.773 -0.105 c -0.844 0 -1.5 -0.207 -1.703 -0.535 c -0.066 -0.109 -0.141 -0.379 -0.168 -0.602 c -0.035 -0.32 0.004 -0.434 0.188 -0.531 c 0.125 -0.07 0.23 -0.184 0.23 -0.254 c 0 -0.199 0.547 -0.465 0.805 -0.391 c 0.133 0.035 0.344 0.008 0.473 -0.063 c 0.316 -0.176 0.832 0.059 0.832 0.379 c 0 0.258 0.465 0.426 0.605 0.223 c 0.145 -0.203 0.328 0.051 0.359 0.492 c 0.027 0.371 0.004 0.406 -0.32 0.457 c -0.215 0.035 -0.367 0.129 -0.391 0.246 c -0.035 0.164 0.008 0.18 0.328 0.117 c 0.297 -0.059 0.43 -0.023 0.656 0.16 c 0.281 0.234 0.57 0.203 0.305 -0.027 c -0.215 -0.191 -0.164 -0.348 0.16 -0.477 c 0.395 -0.156 0.723 -0.148 0.84 0.016 c 0.051 0.078 0.188 0.168 0.301 0.203 c 0.309 0.102 0.375 0.363 0.148 0.582 c -0.141 0.137 -0.418 0.207 -0.922 0.246 c -0.398 0.027 -0.883 0.074 -1.074 0.105 c -0.195 0.035 -0.473 0.016 -0.617 -0.039 m -1.141 -2.137 c -0.035 -0.031 -0.129 0 -0.207 0.07 c -0.117 0.102 -0.102 0.113 0.066 0.059 c 0.113 -0.039 0.18 -0.098 0.141 -0.129 m 5.875 -0.688 c -0.125 -0.285 -0.086 -0.816 0.078 -1.027 c 0.125 -0.164 0.137 -0.531 0.055 -1.797 c -0.18 -2.859 -0.188 -2.625 0.145 -2.578 c 0.383 0.055 3.484 0.055 3.867 0 c 0.285 -0.039 0.289 -0.027 0.258 0.523 c -0.121 1.973 -0.141 3.664 -0.039 4.125 c 0.063 0.297 0.09 0.586 0.063 0.648 c -0.035 0.074 -0.668 0.109 -1.898 0.109 c -1.012 0 -1.977 0.035 -2.145 0.082 c -0.238 0.063 -0.324 0.047 -0.379 -0.09 m 1.426 -3.063 c 0.023 -0.094 -0.047 -0.195 -0.152 -0.23 c -0.254 -0.086 -0.332 0 -0.238 0.266 c 0.09 0.246 0.336 0.227 0.391 -0.031 m 9.07 3.01 c -0.223 -0.309 -0.18 -0.41 0.184 -0.41 c 0.43 0 0.785 0.23 0.688 0.445 c -0.105 0.242 -0.691 0.219 -0.871 -0.035 m -18.297 -0.145 c -0.137 -0.141 -0.117 -0.754 0.027 -0.961 c 0.109 -0.152 1.109 -0.438 1.309 -0.371 c 0.09 0.031 0.199 0.145 0.238 0.254 c 0.039 0.109 0.133 0.203 0.207 0.207 c 0.078 0.008 0.215 0.02 0.305 0.027 c 0.203 0.016 0.441 0.336 0.324 0.441 c -0.051 0.043 -0.191 0.023 -0.313 -0.047 c -0.234 -0.129 -0.727 -0.031 -0.871 0.172 c -0.09 0.125 -0.754 0.422 -0.949 0.422 c -0.078 0 -0.203 -0.063 -0.277 -0.145 m 17.73 -0.805 c -0.176 -0.156 -0.367 -0.281 -0.418 -0.281 c -0.055 0 -0.098 -0.512 -0.098 -1.133 c 0 -0.621 0.031 -1.129 0.074 -1.129 c 0.039 0 0.254 0.098 0.473 0.219 c 0.336 0.18 0.395 0.266 0.367 0.539 c -0.031 0.277 -0.004 0.316 0.211 0.293 c 0.145 -0.02 0.281 0.035 0.32 0.125 c 0.102 0.234 0.289 0.195 0.332 -0.07 c 0.059 -0.355 0.508 -0.316 0.508 0.043 c 0 0.152 0.063 0.336 0.145 0.406 c 0.184 0.164 0.188 0.348 0.008 0.637 c -0.078 0.121 -0.145 0.316 -0.148 0.43 c -0.004 0.18 -0.086 0.203 -0.727 0.203 c -0.633 0 -0.766 -0.035 -1.047 -0.281 m 0.539 -0.898 c 0 -0.059 -0.055 -0.102 -0.117 -0.102 c -0.066 0 -0.117 0.043 -0.117 0.102 c 0 0.055 0.051 0.102 0.117 0.102 c 0.063 0 0.117 -0.047 0.117 -0.102 m -16.258 0.359 c -0.305 -0.324 -0.406 -0.363 -1.063 -0.41 c -0.563 -0.035 -0.727 -0.016 -0.727 0.09 c 0 0.234 -0.336 0.426 -0.5 0.281 c -0.105 -0.094 -0.105 -0.168 0.004 -0.32 c 0.191 -0.27 0.184 -0.41 -0.031 -0.41 c -0.199 0 -0.234 -0.164 -0.059 -0.258 c 0.063 -0.035 0.117 -0.25 0.117 -0.477 c 0 -0.332 0.039 -0.406 0.203 -0.383 c 0.113 0.016 0.34 -0.004 0.508 -0.043 c 0.262 -0.059 0.293 -0.113 0.25 -0.43 c -0.055 -0.402 0.027 -0.445 0.348 -0.191 c 0.203 0.16 0.215 0.152 0.215 -0.156 c 0 -0.25 0.051 -0.324 0.227 -0.324 c 0.125 0 0.262 0.051 0.305 0.109 c 0.043 0.063 0.148 0.086 0.238 0.059 c 0.199 -0.07 0.52 0.199 0.52 0.434 c 0 0.098 -0.105 0.254 -0.234 0.352 c -0.297 0.223 -0.297 0.348 -0.004 0.484 c 0.199 0.094 0.227 0.215 0.219 0.98 c -0.004 0.48 -0.051 0.895 -0.102 0.922 c -0.051 0.027 -0.246 -0.109 -0.434 -0.309 m 3.277 -8.445 c -0.492 -0.051 -0.523 -0.336 -0.035 -0.336 c 0.375 0 0.621 -0.195 0.277 -0.219 c -0.117 -0.012 -0.285 -0.023 -0.375 -0.027 c -0.238 -0.016 -0.348 -0.336 -0.355 -1.066 l -0.008 -0.648 l 0.613 0.031 l 0.617 0.031 l -0.012 0.617 c -0.02 1.031 -0.102 1.625 -0.223 1.641 c -0.066 0.008 -0.289 0 -0.5 -0.023 m 4.441 0 c -0.516 -0.055 -0.477 -0.387 0.043 -0.387 c 0.48 0 0.555 -0.199 0.086 -0.238 c -0.434 -0.035 -0.488 -0.148 -0.531 -1.047 l -0.023 -0.563 h 1.289 l -0.008 0.465 c -0.023 1.133 -0.176 1.875 -0.383 1.828 c -0.043 -0.008 -0.254 -0.035 -0.473 -0.059 m 3.859 -0.309 c 0 -0.156 -0.035 -0.664 -0.082 -1.129 l -0.074 -0.848 h 0.602 c 0.734 0 0.789 0.078 0.645 1.012 c -0.105 0.664 -0.113 0.68 -0.445 0.68 c -0.188 0 -0.363 0.059 -0.391 0.133 c -0.035 0.09 0.066 0.121 0.332 0.102 c 0.293 -0.02 0.398 0.02 0.434 0.152 c 0.035 0.152 -0.043 0.18 -0.488 0.18 c -0.5 0 -0.531 -0.016 -0.531 -0.277" fill="#545a28"/><path d="m 43.05 36.719 c 17.262 -24.547 -14.613 -49.42 -34.945 -29.418 c -19.16 18.844 -1.398 48.13 22.441 38.973 c 4.973 -1.906 9.336 -5.05 12.504 -9.555" fill="#929562"/><path d="m 20.809 36.641 c -0.453 -0.051 -1.238 -0.184 -1.746 -0.293 c -0.66 -0.148 -1.109 -0.188 -1.563 -0.141 c -0.523 0.055 -0.688 0.031 -0.949 -0.137 c -0.207 -0.137 -0.578 -0.223 -1.098 -0.262 c -0.5 -0.035 -0.926 -0.133 -1.184 -0.27 c -0.426 -0.23 -0.801 -0.832 -0.828 -1.324 c -0.012 -0.176 -0.172 -0.453 -0.379 -0.66 c -0.895 -0.891 -1.051 -1.711 -0.418 -2.145 c 0.254 -0.176 0.313 -0.309 0.324 -0.695 c 0.023 -0.699 0.199 -1.246 0.555 -1.699 c 0.172 -0.223 0.313 -0.445 0.313 -0.504 c 0 -0.176 0.816 -0.785 1.328 -0.992 c 0.266 -0.105 0.605 -0.293 0.75 -0.41 c 0.266 -0.219 0.266 -0.223 0.262 -3.629 c 0 -1.875 -0.039 -3.465 -0.086 -3.531 c -0.047 -0.063 -0.219 -0.133 -0.379 -0.152 l -0.293 -0.035 v -3.543 c 0 -3.445 0.004 -3.547 0.234 -3.633 c 0.129 -0.051 0.313 -0.234 0.41 -0.41 c 0.121 -0.223 0.297 -0.344 0.586 -0.406 c 0.453 -0.098 2.043 -0.059 2.176 0.059 c 0.047 0.039 0.105 0.316 0.133 0.613 c 0.094 1.09 -0.016 1.016 1.414 0.98 l 1.258 -0.027 l 0.129 -0.355 c 0.074 -0.195 0.191 -0.371 0.266 -0.395 c 0.078 -0.023 0.102 -0.141 0.059 -0.289 c -0.137 -0.484 0.172 -0.621 1.449 -0.637 c 1.313 -0.016 1.621 0.098 1.523 0.551 c -0.039 0.188 0.012 0.34 0.16 0.469 c 0.121 0.105 0.223 0.285 0.223 0.398 c 0 0.113 0.063 0.207 0.145 0.211 c 0.082 0.004 0.641 0.031 1.246 0.059 c 1.277 0.066 1.297 0.055 1.305 -0.781 c 0.004 -0.863 0.016 -0.871 1.52 -0.852 c 1.414 0.016 1.699 0.105 1.609 0.512 c -0.039 0.176 0.004 0.234 0.156 0.234 c 0.117 0 0.293 0.074 0.395 0.164 c 0.16 0.141 0.184 0.602 0.184 3.527 c 0 3.598 0.012 3.547 -0.586 3.617 l -0.293 0.035 l -0.031 4.313 c -0.031 4.297 -0.031 4.316 0.219 4.496 c 0.137 0.098 0.371 0.18 0.516 0.18 c 0.168 0 0.566 0.254 1.09 0.691 c 0.715 0.598 0.84 0.758 0.906 1.156 c 0.047 0.254 0.184 0.656 0.309 0.891 c 0.121 0.238 0.219 0.496 0.219 0.578 c 0 0.199 -0.539 1.074 -0.887 1.434 c -0.211 0.219 -0.289 0.418 -0.289 0.766 c 0 0.258 -0.059 0.641 -0.129 0.855 c -0.113 0.34 -0.227 0.426 -0.816 0.656 c -0.668 0.266 -1.207 0.305 -3.152 0.246 c -0.164 -0.004 -0.801 0.09 -1.418 0.203 c -2.242 0.426 -4.785 0.539 -6.844 0.313" fill="#c6cda9"/><path d="m 21.22 36.38 c -0.227 -0.023 -0.832 -0.109 -1.348 -0.199 c -0.68 -0.117 -1.23 -0.148 -2 -0.098 c -0.961 0.063 -1.09 0.047 -1.367 -0.141 c -0.227 -0.156 -0.477 -0.211 -0.973 -0.211 c -0.797 0 -1.512 -0.305 -1.781 -0.762 c -0.109 -0.188 -0.172 -0.555 -0.164 -0.996 c 0.008 -0.383 -0.039 -0.727 -0.105 -0.762 c -0.195 -0.105 -0.582 -0.844 -0.582 -1.117 c 0 -0.141 0.055 -0.285 0.121 -0.32 c 0.066 -0.035 0.109 -0.391 0.102 -0.801 c -0.02 -0.977 0.043 -1.332 0.316 -1.668 c 0.121 -0.152 0.305 -0.398 0.398 -0.547 c 0.301 -0.461 0.855 -0.906 1.406 -1.121 c 1 -0.395 0.992 -0.379 0.992 -2.727 c 0 -1.137 -0.023 -2.762 -0.059 -3.605 l -0.059 -1.535 l -0.293 -0.063 l -0.293 -0.059 v -6.973 l 1.496 -0.031 c 0.844 -0.016 1.492 -0.07 1.492 -0.125 c 0 -0.156 -0.555 -0.234 -1.207 -0.168 c -0.703 0.07 -1.137 -0.004 -1.137 -0.195 c 0 -0.098 0.281 -0.145 1.027 -0.168 c 1.691 -0.059 1.609 -0.121 1.609 1.258 v 1.176 l 1.48 0.027 l 1.477 0.027 l 0.055 -0.754 c 0.031 -0.418 0.094 -0.813 0.141 -0.879 c 0.121 -0.168 3.02 -0.164 3.211 0.004 c 0.082 0.074 0.141 0.414 0.141 0.816 c 0 0.383 0.043 0.715 0.094 0.742 c 0.051 0.027 0.723 0.063 1.496 0.074 l 1.398 0.027 l -0.012 -0.508 c -0.008 -0.277 -0.031 -0.574 -0.051 -0.656 c -0.016 -0.086 -0.023 -0.398 -0.016 -0.699 c 0.02 -0.469 0.059 -0.551 0.305 -0.637 c 0.359 -0.117 2.586 0.012 2.586 0.152 c 0 0.059 -0.547 0.125 -1.289 0.156 c -1.836 0.066 -1.641 0.246 0.352 0.305 l 1.641 0.055 v 6.98 l -0.344 0.051 c -0.258 0.039 -0.363 0.129 -0.438 0.363 c -0.051 0.168 -0.082 2.16 -0.063 4.426 c 0.031 4.477 0.027 4.457 0.684 4.457 c 0.184 0 0.43 0.07 0.543 0.16 c 0.113 0.09 0.457 0.355 0.77 0.594 c 0.523 0.398 0.578 0.488 0.719 1.145 c 0.102 0.457 0.117 0.805 0.051 0.957 c -0.059 0.133 -0.074 0.277 -0.047 0.324 c 0.066 0.09 -0.512 1.141 -0.684 1.246 c -0.055 0.035 -0.066 0.199 -0.023 0.359 c 0.113 0.48 0.102 0.988 -0.035 1.438 c -0.117 0.379 -0.203 0.453 -0.75 0.66 c -0.605 0.23 -1.59 0.305 -2.961 0.219 c -0.461 -0.031 -1.902 0.082 -3.57 0.281 c -0.832 0.098 -3.57 0.125 -4.453 0.039 m -1.758 -4.613 c 0 -0.184 0.18 -0.176 0.531 0.023 c 0.258 0.148 0.293 0.148 0.355 0.012 c 0.035 -0.09 0.008 -0.254 -0.063 -0.371 c -0.168 -0.277 -0.902 -0.301 -1.133 -0.035 c -0.164 0.191 -0.211 0.563 -0.086 0.676 c 0.105 0.094 0.395 -0.129 0.395 -0.305 m -0.938 -0.344 c 0 -0.117 -0.074 -0.207 -0.176 -0.207 c -0.098 0 -0.176 0.09 -0.176 0.207 c 0 0.113 0.078 0.203 0.176 0.203 c 0.102 0 0.176 -0.09 0.176 -0.203 m 10.426 0.16 c 0 -0.027 -0.051 -0.074 -0.117 -0.109 c -0.063 -0.035 -0.113 -0.016 -0.113 0.043 c 0 0.063 0.055 0.109 0.113 0.109 c 0.066 0 0.117 -0.02 0.117 -0.043 m -10.445 -0.828 c 0.039 -0.039 0 -0.125 -0.098 -0.191 c -0.098 -0.066 -0.266 -0.258 -0.367 -0.426 c -0.109 -0.172 -0.359 -0.395 -0.563 -0.496 l -0.359 -0.191 v 0.418 c 0 0.328 0.035 0.406 0.18 0.359 c 0.094 -0.035 0.176 -0.008 0.176 0.055 c 0 0.063 -0.047 0.113 -0.105 0.113 c -0.117 0 -0.254 0.371 -0.164 0.449 c 0.082 0.07 1.207 -0.008 1.301 -0.09 m 8.273 0.066 c 0.09 -0.133 -0.48 -0.563 -0.625 -0.484 c -0.07 0.039 -0.129 0.184 -0.129 0.32 c 0 0.207 0.059 0.25 0.348 0.25 c 0.188 0 0.371 -0.039 0.402 -0.086 m -5.438 -0.246 c 0 -0.188 -0.07 -0.238 -0.383 -0.262 c -0.328 -0.02 -0.383 0.016 -0.398 0.234 c -0.012 0.227 0.031 0.258 0.383 0.258 c 0.336 0 0.398 -0.043 0.398 -0.23 m 6.797 0.047 c 0 -0.109 -0.082 -0.129 -0.32 -0.078 c -0.523 0.109 -0.586 0.258 -0.109 0.242 c 0.289 -0.008 0.43 -0.063 0.43 -0.164 m -8.488 -0.813 c -0.035 -0.086 -0.063 -0.199 -0.063 -0.25 c 0 -0.125 -0.32 -0.117 -0.41 0.012 c -0.117 0.168 0.16 0.516 0.359 0.441 c 0.098 -0.031 0.152 -0.125 0.113 -0.207 m 9.895 -0.133 c 0 -0.23 -0.527 -0.395 -0.727 -0.223 c -0.184 0.156 0.098 0.426 0.449 0.426 c 0.199 0 0.277 -0.059 0.277 -0.203 m 0.586 -0.051 c 0 -0.086 -0.078 -0.156 -0.176 -0.156 c -0.184 0 -0.23 0.121 -0.102 0.238 c 0.137 0.121 0.273 0.078 0.273 -0.082 m -10.664 -0.875 c -0.086 -0.148 -0.074 -0.301 0.055 -0.566 c 0.168 -0.355 0.168 -0.367 -0.121 -0.484 c -0.25 -0.098 -0.328 -0.082 -0.539 0.102 c -0.172 0.152 -0.219 0.27 -0.152 0.402 c 0.055 0.105 0.105 0.211 0.117 0.238 c 0.008 0.027 0.055 0.137 0.102 0.23 c 0.043 0.105 0.102 0.254 0.133 0.34 c 0.047 0.125 0.102 0.133 0.297 0.051 c 0.188 -0.094 0.211 -0.156 0.109 -0.313 m 9.563 0.316 c 0.063 -0.051 0.242 -0.109 0.398 -0.129 c 0.313 -0.035 0.465 -0.34 0.262 -0.516 c -0.176 -0.156 -0.938 0.094 -1.02 0.332 c -0.117 0.324 0.109 0.523 0.355 0.313 m -10.789 -0.328 c -0.094 -0.129 -0.375 -0.113 -0.469 0.023 c -0.117 0.16 0.199 0.309 0.383 0.176 c 0.082 -0.059 0.121 -0.148 0.086 -0.199 m 9.711 0.004 c 0.039 -0.133 -0.008 -0.23 -0.113 -0.27 c -0.234 -0.078 -0.418 0.098 -0.324 0.313 c 0.102 0.238 0.359 0.215 0.438 -0.039 m -1.441 -0.465 c 0 -0.25 -0.055 -0.457 -0.117 -0.457 c -0.066 0 -0.117 0.234 -0.117 0.52 c 0 0.32 0.043 0.496 0.117 0.457 c 0.063 -0.031 0.117 -0.27 0.117 -0.52 m -5.297 -0.02 c -0.027 -0.367 -0.086 -0.492 -0.242 -0.52 c -0.305 -0.051 -0.375 0.242 -0.152 0.648 c 0.27 0.504 0.438 0.453 0.395 -0.129 m 6.117 -0.438 c 0 -0.055 -0.055 -0.102 -0.117 -0.102 c -0.066 0 -0.117 0.047 -0.117 0.102 c 0 0.059 0.051 0.105 0.117 0.105 c 0.063 0 0.117 -0.047 0.117 -0.105 m 2.344 0 c 0 -0.055 -0.055 -0.102 -0.117 -0.102 c -0.066 0 -0.117 0.047 -0.117 0.102 c 0 0.059 0.051 0.105 0.117 0.105 c 0.063 0 0.117 -0.047 0.117 -0.105 m -5.266 -0.41 c 0.398 -0.098 0.422 -0.129 0.566 -0.762 c 0.082 -0.363 0.117 -0.711 0.074 -0.77 c -0.047 -0.066 0.02 -0.109 0.164 -0.109 c 0.133 0 0.242 -0.035 0.242 -0.082 c 0 -0.145 -0.77 -0.441 -0.973 -0.375 c -0.273 0.09 -0.258 0.324 0.035 0.402 c 0.305 0.086 0.293 0.199 -0.035 0.332 c -0.188 0.074 -0.41 0.063 -0.785 -0.035 c -0.457 -0.117 -0.582 -0.117 -0.91 0.02 c -0.426 0.176 -0.438 0.207 -0.23 0.516 c 0.305 0.461 0.672 0.781 0.988 0.863 c 0.438 0.117 0.391 0.117 0.863 0 m 0.043 -0.828 c -0.039 -0.059 -0.051 -0.133 -0.016 -0.164 c 0.086 -0.074 0.316 0.059 0.316 0.18 c 0 0.129 -0.203 0.121 -0.301 -0.016 m 2.813 0.84 c 0.035 -0.051 0.27 -0.07 0.516 -0.039 l 0.449 0.051 l 0.078 -0.637 c 0.043 -0.352 0.043 -0.688 0 -0.742 c -0.043 -0.063 -0.391 -0.086 -0.871 -0.055 c -0.438 0.027 -0.844 0.008 -0.902 -0.043 c -0.148 -0.133 -1.078 0.016 -1.078 0.172 c 0 0.16 0.633 0.77 0.801 0.77 c 0.066 0 0.152 0.094 0.195 0.211 c 0.102 0.285 0.676 0.504 0.813 0.313 m -0.102 -0.512 c -0.082 -0.113 0.262 -0.242 0.414 -0.16 c 0.059 0.035 0.078 0.102 0.039 0.156 c -0.086 0.121 -0.371 0.125 -0.453 0.004 m -8.457 0.438 c 0.254 -0.082 0.234 -0.238 -0.066 -0.516 c -0.215 -0.203 -0.227 -0.258 -0.09 -0.402 c 0.137 -0.145 0.125 -0.191 -0.066 -0.313 c -0.25 -0.16 -0.715 -0.191 -0.816 -0.051 c -0.035 0.051 -0.168 0.07 -0.297 0.039 c -0.129 -0.027 -0.234 -0.012 -0.23 0.035 c 0.008 0.18 0.547 0.668 0.766 0.699 c 0.125 0.016 0.234 0.117 0.242 0.223 c 0.008 0.105 0.023 0.23 0.027 0.273 c 0.016 0.09 0.277 0.098 0.531 0.012 m 11.41 -0.695 l 0.035 -0.707 l -0.371 0.066 c -0.203 0.035 -0.523 0.066 -0.707 0.066 c -0.336 0 -0.34 0.004 -0.34 0.605 c 0 0.688 0.047 0.727 0.82 0.695 l 0.527 -0.02 m -12.594 -0.152 c 0 -0.059 -0.082 -0.102 -0.176 -0.102 c -0.098 0 -0.176 0.043 -0.176 0.102 c 0 0.055 0.078 0.102 0.176 0.102 c 0.094 0 0.176 -0.047 0.176 -0.102 m 1.875 0.012 c 0 -0.172 0.625 -0.199 0.898 -0.043 c 0.246 0.141 0.273 0.141 0.273 -0.004 c 0 -0.09 0.086 -0.203 0.191 -0.258 c 0.176 -0.082 0.172 -0.102 -0.047 -0.16 c -0.184 -0.051 -0.234 -0.148 -0.227 -0.398 c 0.023 -0.328 0.016 -0.328 -0.508 -0.293 c -0.293 0.016 -0.539 0.043 -0.551 0.055 c -0.09 0.074 -0.215 1.191 -0.137 1.191 c 0.055 0 0.102 -0.039 0.102 -0.09 m 2.719 -0.348 c 0.074 -0.602 -0.074 -0.918 -0.402 -0.879 c -0.313 0.039 -0.375 0.25 -0.273 0.867 c 0.066 0.383 0.117 0.449 0.355 0.449 c 0.23 0 0.277 -0.063 0.32 -0.441 m 1.195 -1.27 c 0.074 -0.176 -0.477 -0.551 -0.813 -0.551 c -0.145 0 -0.328 0.066 -0.406 0.152 c -0.188 0.199 -0.348 0.109 -0.27 -0.152 c 0.039 -0.129 -0.008 -0.227 -0.129 -0.266 c -0.105 -0.035 -0.188 -0.129 -0.188 -0.207 c 0 -0.16 -0.531 -0.203 -0.637 -0.055 c -0.035 0.051 0.012 0.148 0.109 0.219 c 0.094 0.07 0.176 0.184 0.176 0.25 c 0 0.066 0.063 0.176 0.145 0.246 c 0.082 0.074 0.152 0.176 0.16 0.227 c 0.008 0.055 0.023 0.137 0.031 0.184 c 0.023 0.148 1.754 0.105 1.82 -0.047 m 4.406 0.012 c 0.121 -0.129 0.113 -0.191 -0.047 -0.344 c -0.246 -0.238 -0.266 -0.504 -0.023 -0.328 c 0.184 0.133 0.652 -0.012 0.652 -0.203 c 0 -0.129 -0.078 -0.125 -0.367 0.012 c -0.184 0.09 -0.285 0.074 -0.441 -0.051 c -0.301 -0.238 -0.34 -0.211 -0.426 0.301 c -0.113 0.652 0.273 1.012 0.652 0.613 m 2.09 -0.098 c 0.063 -0.293 -0.105 -1.082 -0.23 -1.082 c -0.066 0 -0.082 0.051 -0.043 0.109 c 0.043 0.059 0 0.188 -0.098 0.281 c -0.309 0.297 -0.363 0.703 -0.121 0.828 c 0.277 0.141 0.441 0.094 0.492 -0.137 m -11.938 0.047 c 0 -0.055 -0.082 -0.102 -0.18 -0.102 c -0.102 0 -0.152 0.047 -0.113 0.102 c 0.043 0.059 0.125 0.102 0.184 0.102 c 0.063 0 0.109 -0.043 0.109 -0.102 m 2.461 -0.039 c 0 -0.078 -0.031 -0.285 -0.074 -0.465 c -0.07 -0.313 -0.082 -0.316 -0.297 -0.145 c -0.184 0.145 -0.27 0.156 -0.453 0.055 c -0.512 -0.281 -0.875 -0.086 -0.688 0.363 c 0.113 0.262 0.398 0.309 0.5 0.078 c 0.094 -0.215 0.336 -0.191 0.574 0.051 c 0.234 0.238 0.438 0.266 0.438 0.063 m 8.258 -6.113 c 0.035 -0.055 0.016 -0.125 -0.051 -0.16 c -0.234 -0.129 -0.113 -0.336 0.23 -0.398 c 0.191 -0.035 0.352 -0.113 0.352 -0.18 c 0 -0.129 -0.551 -0.039 -0.777 0.125 c -0.188 0.137 -0.27 0.586 -0.113 0.645 c 0.211 0.074 0.289 0.066 0.359 -0.027 m -10.04 -0.086 c -0.176 -0.023 -0.469 -0.023 -0.645 0 c -0.176 0.023 -0.031 0.043 0.32 0.043 c 0.355 0 0.5 -0.02 0.324 -0.043 m 6.594 -0.262 c 0.273 -0.395 0.285 -0.488 0.07 -0.488 c -0.176 0 -0.563 0.609 -0.469 0.742 c 0.094 0.133 0.152 0.098 0.398 -0.254 m 4.332 0.23 c 0 -0.055 -0.051 -0.102 -0.117 -0.102 c -0.063 0 -0.117 0.047 -0.117 0.102 c 0 0.059 0.055 0.105 0.117 0.105 c 0.066 0 0.117 -0.047 0.117 -0.105 m -9.785 -0.41 c -0.039 -0.055 -0.121 -0.102 -0.18 -0.102 c -0.063 0 -0.113 0.047 -0.113 0.102 c 0 0.059 0.082 0.105 0.184 0.105 c 0.102 0 0.152 -0.047 0.109 -0.105 m -2.574 -0.215 c 0.09 -0.242 0 -0.344 -0.383 -0.445 c -0.227 -0.063 -0.266 -0.035 -0.266 0.188 c 0 0.141 0.094 0.305 0.207 0.363 c 0.297 0.148 0.355 0.137 0.441 -0.105 m 5.094 -0.297 c 0 -0.152 -0.078 -0.207 -0.293 -0.207 c -0.34 0 -0.383 0.148 -0.086 0.301 c 0.301 0.152 0.379 0.133 0.379 -0.094 m 8.637 -0.02 c -0.039 -0.082 -0.066 -0.059 -0.074 0.063 c -0.004 0.105 0.023 0.168 0.063 0.133 c 0.043 -0.031 0.047 -0.121 0.016 -0.195 m -4.711 -0.086 c -0.039 -0.055 -0.148 -0.102 -0.238 -0.102 c -0.094 0 -0.172 0.047 -0.172 0.102 c 0 0.063 0.109 0.105 0.242 0.105 c 0.133 0 0.207 -0.047 0.168 -0.105 m -5.105 -0.816 c 0.109 0 0.266 0.059 0.352 0.129 c 0.125 0.102 0.141 0.063 0.078 -0.23 c -0.043 -0.199 -0.086 -0.441 -0.098 -0.539 c -0.023 -0.191 -0.207 -0.254 -0.207 -0.074 c 0 0.063 -0.18 0.176 -0.398 0.258 c -0.219 0.078 -0.422 0.203 -0.449 0.273 c -0.039 0.102 -0.09 0.102 -0.242 -0.008 c -0.203 -0.148 -0.191 -0.16 -0.363 0.332 c -0.035 0.098 0.02 0.129 0.164 0.09 c 0.121 -0.023 0.313 0 0.43 0.066 c 0.172 0.086 0.25 0.066 0.379 -0.094 c 0.086 -0.113 0.246 -0.203 0.355 -0.203 m -2.453 0.152 c 0 -0.094 -0.145 -0.188 -0.352 -0.223 c -0.195 -0.031 -0.383 -0.102 -0.418 -0.148 c -0.035 -0.047 -0.164 -0.09 -0.289 -0.09 c -0.168 0 -0.23 -0.07 -0.23 -0.258 c 0 -0.188 -0.086 -0.289 -0.309 -0.363 c -0.383 -0.129 -0.465 -0.059 -0.559 0.469 c -0.094 0.535 0.043 0.73 0.395 0.566 c 0.168 -0.078 0.301 -0.086 0.395 -0.023 c 0.121 0.094 0.457 0.148 1.164 0.211 c 0.113 0.004 0.203 -0.059 0.203 -0.145 m 6.375 0.07 c 0.164 -0.23 -0.09 -0.527 -0.5 -0.594 c -0.566 -0.09 -0.637 -0.133 -0.473 -0.309 c 0.078 -0.082 0.109 -0.172 0.07 -0.207 c -0.086 -0.074 -1.379 -0.063 -1.469 0.012 c -0.078 0.07 -0.039 0.766 0.051 0.891 c 0.035 0.047 0.191 -0.043 0.352 -0.195 l 0.289 -0.281 l 0.375 0.387 c 0.309 0.309 0.461 0.383 0.813 0.383 c 0.238 0.004 0.461 -0.035 0.492 -0.082 m 2.148 -0.117 c -0.063 -0.203 0.211 -0.496 0.348 -0.375 c 0.043 0.035 0.082 0.168 0.094 0.297 c 0.016 0.168 0.094 0.23 0.297 0.23 c 0.227 0 0.297 -0.07 0.367 -0.359 c 0.047 -0.199 0.055 -0.469 0.016 -0.605 c -0.063 -0.23 -0.102 -0.238 -0.863 -0.191 c -0.438 0.027 -0.848 0.008 -0.906 -0.047 c -0.059 -0.051 -0.305 -0.063 -0.539 -0.023 c -0.352 0.059 -0.426 0.109 -0.398 0.289 c 0.031 0.18 0.105 0.211 0.422 0.184 c 0.359 -0.031 0.375 -0.016 0.375 0.316 c 0 0.43 0.066 0.488 0.508 0.488 c 0.281 0 0.336 -0.035 0.281 -0.203 m 3.789 0.074 c 0 -0.07 0.035 -0.375 0.07 -0.676 l 0.066 -0.551 l -1.035 0.074 c -0.57 0.043 -1.078 0.129 -1.125 0.191 c -0.047 0.063 -0.09 0.309 -0.094 0.551 c 0 0.387 0.031 0.438 0.27 0.434 c 0.145 -0.004 0.387 -0.066 0.543 -0.141 c 0.242 -0.117 0.309 -0.109 0.496 0.055 c 0.246 0.215 0.805 0.258 0.809 0.063 m -11.05 -0.711 c 0.18 -0.156 -0.027 -0.391 -0.34 -0.391 c -0.156 0 -0.219 0.074 -0.219 0.254 c 0 0.281 0.309 0.355 0.559 0.137 m 5.23 -0.145 c 0.105 -0.242 -0.031 -0.367 -0.32 -0.289 c -0.367 0.098 -0.379 0.129 -0.129 0.297 c 0.293 0.191 0.363 0.191 0.449 -0.008 m -6.375 -0.094 c 0 -0.105 -0.113 -0.152 -0.32 -0.152 c -0.309 0.004 -0.313 0.012 -0.098 0.156 c 0.289 0.191 0.418 0.191 0.418 -0.004 m -1.785 -0.652 c 0.082 -0.043 0.16 -0.324 0.176 -0.637 c 0.027 -0.563 0.027 -0.563 -0.324 -0.563 c -0.336 0 -0.352 0.023 -0.387 0.5 c -0.047 0.621 0.168 0.902 0.535 0.695 m 3.398 -0.063 c 0.215 -0.066 0.188 -0.926 -0.035 -1.082 c -0.148 -0.109 -0.25 -0.105 -0.555 0.02 c -0.328 0.137 -0.457 0.137 -1.168 0 c -0.898 -0.176 -1.105 -0.102 -0.98 0.328 c 0.066 0.23 0.117 0.254 0.441 0.199 c 0.352 -0.063 0.363 -0.055 0.289 0.211 c -0.047 0.152 -0.063 0.313 -0.027 0.355 c 0.055 0.074 1.77 0.047 2.031 -0.035 m 3.145 -0.527 l 0.035 -0.633 l -0.957 0.039 c -0.527 0.02 -1.145 0.074 -1.371 0.121 c -0.359 0.074 -0.418 0.129 -0.484 0.492 c -0.043 0.223 -0.035 0.449 0.02 0.508 c 0.051 0.059 0.672 0.102 1.406 0.102 h 1.316 m 1.734 -0.051 c 0.059 0 0.105 -0.09 0.105 -0.199 c 0 -0.293 0.203 -0.352 0.375 -0.113 c 0.082 0.117 0.191 0.211 0.246 0.211 c 0.211 0 0.523 -0.383 0.602 -0.73 l 0.074 -0.371 h -2.699 v 0.34 c 0 0.188 0.055 0.371 0.121 0.406 c 0.063 0.035 0.09 0.152 0.051 0.266 c -0.051 0.145 -0.023 0.18 0.105 0.137 c 0.098 -0.035 0.273 -0.012 0.391 0.047 c 0.113 0.059 0.281 0.086 0.367 0.063 c 0.086 -0.027 0.203 -0.051 0.262 -0.051 m 2.98 0 c 0.258 0.012 0.707 0.031 0.996 0.039 l 0.527 0.012 l 0.031 -0.531 c 0.051 -0.75 -0.059 -0.785 -2.086 -0.719 l -0.645 0.02 l -0.035 0.5 c -0.051 0.695 0.023 0.824 0.418 0.73 c 0.176 -0.043 0.531 -0.063 0.789 -0.051 m 2.871 -0.496 c 0 -0.328 -0.027 -0.625 -0.063 -0.652 c -0.035 -0.031 -0.234 -0.027 -0.441 0.012 c -0.344 0.063 -0.379 0.102 -0.414 0.512 c -0.051 0.621 0.023 0.727 0.504 0.727 h 0.414 m -13.11 -0.254 c 0 -0.055 -0.059 -0.117 -0.129 -0.137 c -0.066 -0.02 -0.125 0.043 -0.125 0.137 c 0 0.094 0.059 0.152 0.125 0.133 c 0.07 -0.02 0.129 -0.082 0.129 -0.133 m 12.461 -1.594 c -0.328 -0.121 -0.645 -0.121 -0.645 0 c 0 0.059 0.195 0.102 0.438 0.098 c 0.355 -0.008 0.395 -0.027 0.207 -0.098 m -14.355 -1.129 c 0 -0.055 -0.051 -0.102 -0.117 -0.102 c -0.063 0 -0.113 0.047 -0.113 0.102 c 0 0.055 0.055 0.102 0.113 0.102 c 0.066 0 0.117 -0.047 0.117 -0.102 m 15.59 0 c 0 -0.055 -0.059 -0.102 -0.125 -0.102 c -0.066 0 -0.09 0.047 -0.051 0.102 c 0.039 0.055 0.094 0.102 0.125 0.102 c 0.027 0 0.051 -0.047 0.051 -0.102 m -9.176 -0.785 c -0.117 -0.031 -0.191 -0.109 -0.168 -0.172 c 0.043 -0.117 1.941 -0.262 2.516 -0.191 c 0.273 0.035 0.375 0.324 0.117 0.332 c -0.078 0.004 -0.621 0.023 -1.199 0.043 c -0.582 0.023 -1.152 0.016 -1.266 -0.012" fill="#b9c1a3"/><path d="m 24.09 36.14 c -0.195 -0.043 -0.801 -0.086 -1.348 -0.09 c -0.551 -0.008 -1.465 -0.082 -2.035 -0.16 c -0.59 -0.086 -1.145 -0.113 -1.289 -0.066 c -0.137 0.043 -0.781 0.113 -1.43 0.152 c -1.078 0.063 -1.207 0.051 -1.484 -0.141 c -0.227 -0.156 -0.477 -0.211 -0.969 -0.211 c -0.375 0 -0.848 -0.074 -1.074 -0.168 c -0.723 -0.301 -1 -1.211 -0.566 -1.859 l 0.211 -0.309 l -0.379 -0.297 c -0.359 -0.281 -0.383 -0.34 -0.449 -1.219 c -0.113 -1.586 -0.063 -2.09 0.254 -2.418 c 0.152 -0.16 0.348 -0.43 0.434 -0.598 c 0.086 -0.168 0.25 -0.328 0.363 -0.355 c 0.117 -0.027 0.211 -0.117 0.211 -0.199 c 0 -0.145 0.648 -0.484 0.922 -0.484 c 0.07 0 0.375 -0.219 0.676 -0.48 c 0.453 -0.398 0.535 -0.441 0.477 -0.238 c -0.051 0.164 -0.008 0.316 0.125 0.441 c 0.184 0.18 0.184 0.199 -0.012 0.293 c -0.148 0.074 -0.176 0.141 -0.09 0.23 c 0.07 0.07 0.152 1.059 0.191 2.277 c 0.039 1.184 0.117 2.188 0.172 2.238 c 0.051 0.047 1.023 0.094 2.156 0.102 c 2.375 0.016 2.156 0.129 2.281 -1.16 c 0.066 -0.676 0.012 -2.207 -0.125 -3.574 l -0.035 -0.387 l 0.527 0.031 c 2.055 0.121 3.23 0.125 3.461 0.02 c 0.137 -0.066 0.379 -0.105 0.535 -0.086 c 0.266 0.035 0.277 0.066 0.258 0.754 c -0.082 2.535 -0.074 3.742 0.027 4.04 l 0.113 0.34 l 1.914 0.02 c 1.051 0.008 1.973 -0.016 2.047 -0.059 c 0.086 -0.047 0.145 -0.422 0.152 -1.027 c 0.031 -1.895 0.145 -4.04 0.223 -4.215 c 0.152 -0.34 0.289 -0.063 0.289 0.582 c 0 0.758 0.285 1.191 0.785 1.191 c 0.398 0 1.77 0.957 1.883 1.316 c 0.047 0.152 0.082 0.641 0.074 1.086 c -0.008 0.672 -0.047 0.836 -0.23 0.953 c -0.141 0.09 -0.211 0.238 -0.188 0.391 c 0.023 0.164 -0.063 0.324 -0.258 0.473 c -0.262 0.195 -0.277 0.246 -0.141 0.441 c 0.25 0.352 0.301 0.816 0.137 1.305 c -0.121 0.371 -0.242 0.5 -0.668 0.707 c -0.441 0.215 -0.664 0.25 -1.57 0.25 c -0.578 0 -1.238 -0.008 -1.465 -0.02 c -0.75 -0.031 -2.512 0.066 -3.047 0.172 c -0.605 0.121 -1.535 0.125 -2.051 0.012 m -1.012 -1.391 c 0.074 -0.145 0.137 -0.32 0.137 -0.391 c 0 -0.066 0.156 -0.277 0.352 -0.461 c 0.191 -0.188 0.352 -0.359 0.352 -0.383 c 0 -0.027 -1.426 -0.047 -3.164 -0.047 h -3.164 l 0.055 0.469 c 0.074 0.621 0.137 0.691 0.473 0.496 c 0.371 -0.211 0.887 -0.109 1.313 0.262 c 0.324 0.285 0.34 0.289 1.918 0.301 l 1.594 0.016 m 5.32 -1.055 c 0.082 -0.184 0.172 -0.367 0.199 -0.41 c 0.023 -0.043 -0.383 -0.078 -0.902 -0.078 c -0.52 0 -0.945 0.035 -0.945 0.074 c 0 0.039 0.168 0.223 0.375 0.41 c 0.523 0.473 1.063 0.477 1.273 0.004 m 3.27 -1.453 c 0 -0.07 -0.07 -0.211 -0.152 -0.313 c -0.18 -0.211 -0.449 -0.137 -0.367 0.102 c 0.027 0.082 0.078 0.219 0.105 0.301 c 0.063 0.176 0.414 0.098 0.414 -0.09 m -14.977 -7.66 c 0 -0.141 0.023 -0.199 0.059 -0.129 c 0.031 0.07 0.031 0.188 0 0.258 c -0.035 0.07 -0.059 0.012 -0.059 -0.129 m -0.051 -0.434 c -0.039 -0.086 -0.074 -0.938 -0.078 -1.891 c -0.004 -0.953 -0.043 -1.996 -0.082 -2.32 l -0.074 -0.59 l 5.199 -0.027 c 2.863 -0.016 6.148 -0.004 7.305 0.023 l 2.102 0.051 l -0.027 1.582 c -0.023 0.867 -0.063 1.641 -0.09 1.715 c -0.094 0.199 -0.359 0.063 -0.441 -0.223 c -0.066 -0.23 -0.125 -0.25 -0.832 -0.25 h -0.758 v 0.34 c 0 0.188 -0.051 0.383 -0.113 0.438 c -0.063 0.055 -0.441 0.074 -0.848 0.047 c -0.73 -0.051 -0.738 -0.059 -0.773 -0.371 l -0.039 -0.32 l -0.781 0.012 l -0.785 0.012 l -0.027 0.398 c -0.035 0.574 -0.148 0.594 -0.148 0.027 c 0 -0.461 -0.012 -0.477 -0.352 -0.477 c -0.309 0 -0.352 0.035 -0.352 0.293 c 0 0.453 -0.25 0.57 -0.969 0.465 c -0.586 -0.086 -0.617 -0.109 -0.652 -0.43 c -0.055 -0.512 -0.395 -0.398 -0.563 0.184 l -0.129 0.461 l -0.105 -0.457 l -0.109 -0.461 h -0.992 l -0.992 0.004 l -0.039 0.328 c -0.027 0.25 -0.09 0.332 -0.27 0.332 c -0.129 0 -0.336 0.047 -0.461 0.105 c -0.375 0.176 -0.93 -0.141 -0.93 -0.531 c 0 -0.227 -0.066 -0.328 -0.234 -0.367 c -0.129 -0.027 -0.203 -0.094 -0.168 -0.145 c 0.035 -0.051 0.113 -0.07 0.168 -0.039 c 0.055 0.031 0.129 0.012 0.168 -0.039 c 0.094 -0.137 -0.055 -0.434 -0.18 -0.363 c -0.059 0.031 -0.141 -0.016 -0.18 -0.105 c -0.098 -0.23 -0.395 -0.199 -0.395 0.047 c 0 0.25 -0.105 0.258 -0.309 0.023 c -0.145 -0.16 -0.156 -0.133 -0.145 0.23 c 0.008 0.227 -0.055 0.707 -0.129 1.063 c -0.094 0.461 -0.098 0.691 -0.012 0.785 c 0.09 0.094 0.066 0.195 -0.094 0.363 c -0.176 0.195 -0.227 0.207 -0.285 0.078 m 9.109 -2.188 c 0.379 -0.055 0.426 -0.086 0.262 -0.164 c -0.238 -0.121 -0.266 -0.297 -0.043 -0.297 c 0.086 0 0.254 -0.09 0.371 -0.203 c 0.191 -0.188 0.195 -0.207 0.012 -0.207 c -0.102 0 -0.227 -0.07 -0.262 -0.152 c -0.156 -0.352 -0.746 -0.094 -0.746 0.32 c 0 0.258 -0.18 0.406 -0.293 0.246 c -0.141 -0.199 -0.293 -0.105 -0.293 0.188 c 0 0.344 0.063 0.414 0.328 0.367 c 0.109 -0.016 0.406 -0.063 0.664 -0.098 m 3.879 0.055 c 0.25 0 0.285 -0.047 0.281 -0.387 c 0 -0.691 -0.098 -0.848 -0.527 -0.848 c -0.438 0 -0.523 0.125 -0.523 0.762 c 0 0.48 0.078 0.609 0.324 0.527 c 0.09 -0.031 0.289 -0.055 0.445 -0.055 m -6.73 -0.41 c 0.098 -0.414 -0.063 -0.797 -0.199 -0.48 c -0.109 0.246 -0.59 0.406 -0.852 0.277 c -0.113 -0.047 -0.211 -0.191 -0.223 -0.32 c -0.043 -0.48 -0.5 -0.523 -0.5 -0.043 c 0 0.137 -0.055 0.27 -0.117 0.309 c -0.066 0.035 -0.117 0.188 -0.117 0.34 v 0.277 h 1.922 m 7.617 -0.137 c -0.008 -0.066 -0.02 -0.215 -0.031 -0.328 c -0.031 -0.352 -0.203 -0.223 -0.215 0.16 c -0.008 0.23 0.035 0.352 0.121 0.324 c 0.074 -0.023 0.129 -0.094 0.125 -0.156 m -9.957 -0.156 c -0.008 -0.094 -0.02 -0.355 -0.027 -0.582 c -0.031 -0.66 -0.254 -0.473 -0.254 0.215 c 0 0.453 0.035 0.613 0.145 0.582 c 0.082 -0.023 0.145 -0.121 0.137 -0.215 m -3.156 -0.473 c 0.035 -0.051 0.012 -0.125 -0.055 -0.16 c -0.063 -0.035 -0.117 0.008 -0.117 0.098 c 0 0.18 0.07 0.207 0.172 0.063 m 13.23 2.719 c -0.043 -0.094 -0.023 -0.223 0.051 -0.281 c 0.07 -0.063 0.098 -0.242 0.059 -0.406 c -0.039 -0.184 -0.016 -0.293 0.066 -0.293 c 0.066 0 0.137 0.035 0.141 0.078 c 0.063 0.59 0.027 0.992 -0.098 1.027 c -0.078 0.023 -0.18 -0.035 -0.219 -0.125 m 1.137 -5.559 c 0 -0.117 0.035 -0.145 0.07 -0.063 c 0.031 0.074 0.027 0.164 -0.012 0.199 c -0.039 0.035 -0.063 -0.027 -0.063 -0.137 m -15.711 -0.656 c 0 -0.059 0.051 -0.105 0.117 -0.105 c 0.066 0 0.117 0.047 0.117 0.105 c 0 0.055 -0.055 0.102 -0.117 0.102 c -0.066 0 -0.117 -0.047 -0.117 -0.102 m 15.355 -0.055 c 0 -0.082 0.102 -0.152 0.234 -0.152 c 0.129 0 0.23 0.07 0.23 0.152 c 0 0.086 -0.102 0.156 -0.23 0.156 c -0.133 0 -0.234 -0.07 -0.234 -0.156 m -12.773 -4.586 c 0 -0.262 -0.016 -0.266 -1.148 -0.336 c -1.715 -0.105 -1.77 -0.273 -0.082 -0.238 l 1.406 0.027 l 0.039 0.293 c 0.02 0.164 -0.02 0.348 -0.09 0.402 c -0.09 0.082 -0.125 0.035 -0.125 -0.148 m 10.02 0.02 c -0.082 -0.109 0.105 -0.23 0.211 -0.141 c 0.113 0.102 0.094 0.238 -0.035 0.238 c -0.059 0 -0.141 -0.043 -0.176 -0.098 m -5.395 -0.324 c -0.41 -0.043 -0.188 -0.066 0.75 -0.078 c 0.738 -0.008 1.309 0.012 1.273 0.043 c -0.098 0.086 -1.34 0.105 -2.023 0.035 m 5.621 -0.074 c -0.176 -0.152 0.227 -0.223 1.32 -0.223 c 0.742 0 1.203 0.035 1.137 0.09 c -0.113 0.094 -2.363 0.215 -2.461 0.133" fill="#8e956a"/><path d="m 23.797 35.984 c -0.227 -0.074 -0.809 -0.141 -1.289 -0.148 c -0.484 -0.008 -1.297 -0.078 -1.809 -0.156 c -0.711 -0.109 -0.984 -0.117 -1.172 -0.027 c -0.234 0.113 -1.582 0.289 -2.379 0.309 c -0.207 0.004 -0.473 -0.063 -0.586 -0.148 c -0.129 -0.102 -0.527 -0.18 -1.047 -0.211 c -1.039 -0.063 -1.5 -0.309 -1.684 -0.91 c -0.141 -0.457 -0.078 -0.715 0.281 -1.168 c 0.32 -0.398 0.551 -0.559 0.805 -0.563 c 0.113 -0.004 0.207 -0.074 0.207 -0.16 c 0 -0.121 -0.109 -0.098 -0.48 0.109 c -0.453 0.25 -0.492 0.254 -0.766 0.098 c -0.414 -0.234 -0.57 -0.586 -0.426 -0.949 c 0.09 -0.223 0.078 -0.344 -0.047 -0.496 c -0.098 -0.113 -0.137 -0.301 -0.098 -0.438 c 0.035 -0.133 0.004 -0.309 -0.07 -0.391 c -0.109 -0.109 -0.109 -0.207 -0.008 -0.406 c 0.074 -0.141 0.137 -0.395 0.137 -0.563 c 0 -0.223 0.074 -0.336 0.277 -0.414 c 0.148 -0.063 0.359 -0.27 0.465 -0.461 c 0.125 -0.227 0.273 -0.352 0.426 -0.352 c 0.16 0 0.238 -0.066 0.238 -0.211 c 0 -0.141 0.066 -0.203 0.203 -0.188 c 0.387 0.043 0.852 -0.129 0.852 -0.316 c 0 -0.18 0.309 -0.484 0.406 -0.398 c 0.059 0.051 0.215 1.586 0.191 1.887 c -0.008 0.109 0 0.48 0.016 0.82 c 0.074 1.492 0.016 2.211 -0.188 2.391 c -0.164 0.145 -0.234 0.152 -0.434 0.043 c -0.285 -0.156 -0.535 -0.066 -0.352 0.125 c 0.063 0.074 0.273 0.133 0.465 0.141 c 0.434 0.008 1.199 0.355 1.383 0.621 c 0.078 0.113 0.176 0.438 0.219 0.727 c 0.086 0.574 0.133 0.598 0.648 0.363 c 0.43 -0.195 0.703 -0.129 1.262 0.313 l 0.426 0.336 l 1.598 -0.055 l 1.598 -0.051 l 0.133 -0.371 c 0.164 -0.465 0.426 -0.738 0.949 -0.992 c 0.223 -0.109 0.504 -0.266 0.617 -0.348 c 0.16 -0.113 0.238 -0.117 0.344 -0.027 c 0.078 0.066 0.328 0.121 0.555 0.121 c 0.391 0.004 1.172 0.426 1.574 0.859 c 0.09 0.094 0.297 0.125 0.633 0.09 c 0.41 -0.039 0.488 -0.078 0.438 -0.223 c -0.039 -0.105 0.035 -0.254 0.172 -0.363 c 0.129 -0.105 0.234 -0.25 0.234 -0.328 c 0 -0.074 0.113 -0.137 0.254 -0.137 c 0.137 0 0.488 -0.172 0.777 -0.379 c 0.449 -0.324 0.543 -0.355 0.656 -0.223 c 0.07 0.086 0.332 0.164 0.582 0.172 c 0.25 0.008 0.527 0.066 0.621 0.133 c 0.207 0.152 0.367 0.027 0.18 -0.137 c -0.078 -0.066 -0.141 -0.219 -0.141 -0.336 c 0 -0.297 -0.32 -0.668 -0.586 -0.668 c -0.121 0 -0.254 -0.051 -0.297 -0.113 c -0.098 -0.137 -0.078 -2.586 0.023 -2.813 c 0.063 -0.145 0.105 -0.141 0.34 0.055 c 0.172 0.145 0.348 0.199 0.496 0.156 c 0.152 -0.043 0.254 -0.008 0.301 0.094 c 0.039 0.086 0.156 0.156 0.262 0.156 c 0.109 0 0.313 0.105 0.453 0.23 c 0.141 0.129 0.348 0.277 0.457 0.332 c 0.27 0.137 0.625 1.461 0.438 1.625 c -0.07 0.063 -0.129 0.23 -0.129 0.375 c 0 0.145 -0.098 0.316 -0.219 0.383 c -0.152 0.082 -0.203 0.199 -0.164 0.375 c 0.043 0.199 -0.02 0.297 -0.277 0.438 c -0.184 0.102 -0.355 0.199 -0.383 0.215 c -0.027 0.02 0.059 0.137 0.191 0.262 c 0.34 0.324 0.434 0.828 0.254 1.359 c -0.117 0.348 -0.238 0.484 -0.566 0.625 c -0.527 0.223 -2.113 0.355 -2.746 0.227 c -0.328 -0.066 -0.668 -0.059 -1.07 0.027 c -0.438 0.09 -0.711 0.09 -1.07 0.008 c -0.383 -0.094 -0.563 -0.082 -0.902 0.039 c -0.523 0.191 -2.086 0.191 -2.648 0 m -2.352 -2.68 c -0.148 -0.039 -0.164 -0.148 -0.074 -0.688 c 0.176 -1.07 0.219 -3.262 0.086 -4.129 c -0.109 -0.727 -0.105 -0.836 0.063 -0.945 c 0.152 -0.098 0.281 -0.094 0.605 0.027 c 0.477 0.172 3.02 0.211 3.137 0.047 c 0.082 -0.121 0.723 -0.141 0.797 -0.027 c 0.027 0.043 0.008 0.379 -0.047 0.746 c -0.152 1.059 -0.152 3.281 0.004 3.926 c 0.234 0.98 0.297 0.949 -1.898 0.953 c -1.051 0.004 -2.039 0.035 -2.195 0.07 c -0.164 0.035 -0.375 0.043 -0.477 0.02 m -2.98 -10.227 c -0.094 -0.258 -0.137 -2.234 -0.047 -2.367 c 0.059 -0.074 0.313 -0.125 0.609 -0.121 c 0.883 0.02 0.898 0.039 0.891 0.938 c 0 0.441 -0.043 0.984 -0.09 1.211 l -0.082 0.41 l -0.613 0.031 c -0.43 0.023 -0.633 -0.008 -0.668 -0.102 m 4.59 0.051 c -0.027 -0.047 -0.07 -0.613 -0.098 -1.266 l -0.043 -1.18 l 0.734 -0.031 c 0.582 -0.023 0.746 0.004 0.805 0.133 c 0.039 0.09 0.023 0.656 -0.027 1.262 l -0.105 1.102 l -0.605 0.031 c -0.332 0.016 -0.629 -0.008 -0.66 -0.051 m 4.098 -0.004 c -0.027 -0.043 -0.07 -0.609 -0.094 -1.262 l -0.043 -1.18 h 1.523 l 0.004 1.129 c 0.004 0.621 -0.012 1.188 -0.039 1.258 c -0.055 0.141 -1.262 0.188 -1.352 0.055 m -10.664 -2.855 c -0.043 -0.09 -0.074 -0.258 -0.074 -0.363 c 0 -0.195 0.156 -0.199 7.168 -0.172 c 4.648 0.016 7.18 0.063 7.199 0.129 c 0.125 0.348 -0.074 0.363 -5.883 0.406 c -3.156 0.023 -5.801 0.043 -5.883 0.039 c -0.91 -0.043 -2.117 -0.016 -2.27 0.047 c -0.129 0.059 -0.211 0.031 -0.262 -0.086" fill="#75874c"/><path d="m 23.797 35.984 c -0.227 -0.074 -0.789 -0.141 -1.246 -0.145 c -0.457 -0.004 -1.289 -0.078 -1.848 -0.164 c -0.875 -0.133 -1.051 -0.133 -1.277 -0.012 c -0.148 0.082 -0.762 0.176 -1.445 0.215 c -1.043 0.063 -1.207 0.047 -1.391 -0.113 c -0.145 -0.125 -0.352 -0.172 -0.668 -0.152 c -0.691 0.043 -1.289 -0.078 -1.656 -0.336 c -0.266 -0.191 -0.336 -0.332 -0.371 -0.766 c -0.039 -0.445 -0.008 -0.559 0.18 -0.66 c 0.125 -0.066 0.23 -0.18 0.23 -0.25 c 0 -0.199 0.547 -0.465 0.805 -0.391 c 0.129 0.035 0.34 0.004 0.469 -0.066 c 0.32 -0.172 0.836 0.063 0.836 0.383 c 0 0.25 0.457 0.43 0.598 0.234 c 0.098 -0.148 0.344 -0.02 0.344 0.18 c 0 0.082 0.063 0.238 0.141 0.348 c 0.172 0.242 0.102 0.313 -0.398 0.402 c -0.242 0.043 -0.402 0.141 -0.426 0.258 c -0.035 0.156 0.012 0.176 0.328 0.113 c 0.297 -0.059 0.43 -0.023 0.656 0.16 c 0.277 0.23 0.57 0.203 0.305 -0.027 c -0.215 -0.191 -0.164 -0.348 0.16 -0.477 c 0.387 -0.156 0.723 -0.152 0.84 0.008 c 0.051 0.066 0.25 0.207 0.445 0.301 c 0.301 0.145 0.598 0.16 2.01 0.113 c 1.637 -0.055 1.656 -0.063 1.813 -0.324 c 0.324 -0.551 1.211 -1.121 1.563 -1 c 0.105 0.035 0.289 0.012 0.41 -0.059 c 0.277 -0.152 0.82 0.066 0.82 0.332 c 0 0.102 0.125 0.254 0.273 0.34 c 0.246 0.141 0.285 0.137 0.395 -0.02 c 0.07 -0.094 0.168 -0.137 0.215 -0.094 c 0.051 0.039 0.02 0.145 -0.063 0.234 c -0.199 0.207 0.023 0.449 0.262 0.281 c 0.082 -0.059 0.379 -0.141 0.656 -0.18 c 0.434 -0.063 0.535 -0.043 0.672 0.129 c 0.09 0.113 0.27 0.227 0.398 0.258 c 0.363 0.082 0.32 -0.371 -0.055 -0.586 c -0.352 -0.199 -0.383 -0.469 -0.059 -0.469 c 0.152 0 0.234 -0.07 0.234 -0.195 c 0 -0.203 0.246 -0.301 0.938 -0.379 c 0.227 -0.027 0.566 -0.102 0.754 -0.168 c 0.266 -0.094 0.355 -0.094 0.391 0.004 c 0.027 0.066 0.156 0.121 0.289 0.121 c 0.203 0 0.227 0.047 0.168 0.309 c -0.059 0.25 -0.031 0.309 0.137 0.309 c 0.113 0 0.273 0.059 0.355 0.129 c 0.121 0.105 0.172 0.09 0.266 -0.055 c 0.148 -0.234 0.371 -0.121 0.277 0.141 c -0.055 0.145 -0.016 0.195 0.125 0.195 c 0.16 0 0.18 0.063 0.121 0.332 c -0.043 0.184 -0.078 0.414 -0.082 0.512 c 0 0.094 -0.191 0.277 -0.426 0.402 c -0.543 0.297 -2.078 0.422 -2.82 0.234 c -0.414 -0.105 -0.574 -0.105 -0.895 0.012 c -0.293 0.109 -0.551 0.121 -1.047 0.051 c -0.504 -0.074 -0.754 -0.059 -1.066 0.055 c -0.508 0.188 -2.078 0.184 -2.641 -0.008 m 6.738 -2 c 0.195 -0.074 0.176 -0.09 -0.148 -0.098 c -0.211 -0.004 -0.383 0.039 -0.383 0.098 c 0 0.121 0.207 0.121 0.527 0 m -14.875 -0.289 c -0.039 -0.031 -0.133 0 -0.211 0.07 c -0.117 0.102 -0.102 0.113 0.066 0.059 c 0.113 -0.039 0.18 -0.098 0.145 -0.129 m 5.793 -0.391 c -0.148 -0.039 -0.168 -0.164 -0.113 -0.66 c 0.035 -0.336 0.121 -0.656 0.188 -0.715 c 0.141 -0.125 0.098 -2.461 -0.066 -3.535 c -0.059 -0.395 -0.082 -0.75 -0.051 -0.797 c 0.086 -0.121 0.723 -0.105 0.813 0.02 c 0.035 0.059 0.68 0.105 1.52 0.105 c 0.84 0 1.48 -0.047 1.523 -0.105 c 0.039 -0.059 0.227 -0.105 0.414 -0.105 c 0.41 0 0.395 -0.156 0.211 2.238 c -0.109 1.418 -0.105 1.852 0.016 2.172 c 0.082 0.219 0.156 0.574 0.164 0.793 c 0.012 0.379 0 0.395 -0.336 0.375 c -0.195 -0.016 -0.457 -0.027 -0.586 -0.027 c -0.352 -0.016 -2.887 0.176 -3.223 0.238 c -0.164 0.023 -0.375 0.027 -0.473 0.008 m 10.961 -0.117 c -0.254 -0.055 -0.52 -0.316 -0.527 -0.52 c -0.004 -0.18 0.598 -0.16 0.91 0.035 c 0.211 0.129 0.238 0.195 0.141 0.359 c -0.07 0.109 -0.16 0.191 -0.207 0.188 c -0.047 -0.008 -0.188 -0.035 -0.316 -0.066 m -18.746 -0.328 c -0.137 -0.137 -0.176 -0.266 -0.117 -0.387 c 0.051 -0.102 0.082 -0.219 0.07 -0.266 c -0.051 -0.215 0.266 -0.477 0.75 -0.621 c 0.594 -0.18 0.832 -0.141 0.938 0.148 c 0.066 0.18 0.199 0.242 0.441 0.203 c 0.055 -0.008 0.227 0.074 0.383 0.184 c 0.227 0.156 0.25 0.219 0.129 0.309 c -0.113 0.078 -0.219 0.07 -0.398 -0.043 c -0.277 -0.168 -0.691 -0.082 -0.957 0.199 c -0.086 0.09 -0.223 0.164 -0.305 0.164 c -0.082 0 -0.211 0.07 -0.293 0.156 c -0.195 0.207 -0.391 0.191 -0.641 -0.051 m 19.04 -0.527 c -0.164 -0.059 -0.441 -0.078 -0.617 -0.047 c -0.215 0.035 -0.406 -0.008 -0.559 -0.125 c -0.133 -0.094 -0.355 -0.199 -0.496 -0.23 c -0.324 -0.07 -0.395 -0.457 -0.344 -1.871 c 0.035 -0.949 0.152 -1.246 0.313 -0.801 c 0.039 0.109 0.258 0.301 0.484 0.422 c 0.344 0.188 0.402 0.273 0.375 0.543 c -0.031 0.277 0 0.32 0.211 0.293 c 0.145 -0.016 0.281 0.039 0.32 0.129 c 0.102 0.234 0.289 0.191 0.332 -0.07 c 0.059 -0.355 0.508 -0.316 0.508 0.043 c 0 0.152 0.066 0.336 0.145 0.406 c 0.199 0.176 0.184 0.547 -0.027 0.703 c -0.121 0.09 -0.141 0.18 -0.063 0.305 c 0.07 0.117 0.063 0.219 -0.027 0.297 c -0.156 0.141 -0.172 0.141 -0.555 0.004 m -0.703 -1.219 c 0 -0.059 -0.055 -0.105 -0.117 -0.105 c -0.066 0 -0.117 0.047 -0.117 0.105 c 0 0.059 0.051 0.105 0.117 0.105 c 0.063 0 0.117 -0.047 0.117 -0.105 m -16.188 0.41 c -0.398 -0.371 -0.516 -0.418 -1.125 -0.461 c -0.617 -0.043 -0.691 -0.02 -0.797 0.18 c -0.152 0.305 -0.523 0.367 -0.523 0.094 c 0 -0.117 0.055 -0.238 0.117 -0.273 c 0.184 -0.102 0.141 -0.359 -0.059 -0.359 c -0.098 0 -0.176 -0.066 -0.176 -0.152 c 0 -0.086 0.055 -0.152 0.117 -0.152 c 0.063 0 0.117 -0.188 0.117 -0.418 c 0 -0.34 0.039 -0.414 0.203 -0.391 c 0.117 0.016 0.344 -0.004 0.508 -0.043 c 0.262 -0.059 0.293 -0.113 0.25 -0.43 c -0.055 -0.402 0.027 -0.449 0.348 -0.195 c 0.203 0.164 0.215 0.156 0.215 -0.152 c 0 -0.254 0.051 -0.324 0.227 -0.324 c 0.125 0 0.258 0.039 0.293 0.09 c 0.035 0.051 0.199 0.09 0.367 0.09 c 0.383 0 0.496 0.102 0.543 0.488 c 0.027 0.254 -0.004 0.305 -0.195 0.289 c -0.219 -0.016 -0.406 0.121 -0.41 0.305 c -0.004 0.043 0.121 0.121 0.273 0.172 c 0.234 0.078 0.285 0.184 0.352 0.73 c 0.109 0.934 0.094 1.328 -0.063 1.328 c -0.074 0 -0.336 -0.184 -0.582 -0.41 m 2.742 -8.387 c -0.191 -0.07 -0.211 -2.352 -0.02 -2.453 c 0.207 -0.113 1.047 -0.07 1.227 0.063 c 0.184 0.133 0.223 1.246 0.07 1.996 c -0.078 0.402 -0.09 0.41 -0.605 0.43 c -0.289 0.012 -0.594 -0.004 -0.672 -0.035 m 4.578 -0.008 c -0.156 -0.094 -0.258 -2.164 -0.117 -2.363 c 0.133 -0.184 1.355 -0.172 1.438 0.012 c 0.035 0.082 0.02 0.645 -0.035 1.262 l -0.094 1.113 l -0.527 0.027 c -0.289 0.016 -0.59 -0.008 -0.66 -0.051 m 3.992 -0.055 c -0.031 -0.078 -0.043 -0.645 -0.027 -1.262 l 0.035 -1.125 l 0.676 -0.031 c 0.504 -0.023 0.691 0.008 0.738 0.117 c 0.035 0.082 0.023 0.648 -0.031 1.266 l -0.094 1.113 l -0.617 0.031 c -0.438 0.023 -0.633 -0.008 -0.68 -0.109 m -10.629 -2.809 c -0.047 -0.039 -0.086 -0.184 -0.086 -0.313 v -0.242 h 7.141 c 4.164 0 7.168 0.039 7.207 0.094 c 0.035 0.051 0.039 0.156 0.004 0.23 c -0.047 0.113 -1.039 0.137 -5.418 0.129 c -2.949 -0.004 -5.594 0.023 -5.879 0.066 c -0.383 0.059 -0.59 0.039 -0.785 -0.074 c -0.215 -0.121 -0.395 -0.133 -0.945 -0.051 c -0.375 0.059 -0.785 0.133 -0.918 0.168 c -0.129 0.039 -0.273 0.035 -0.32 -0.008" fill="#545a28"/></svg>