<svg xmlns="http://www.w3.org/2000/svg" viewBox="0 0 48 48"><path d="m 9.785 44.32 c 19.17 13.566 47.2 -13.34 35.414 -33.34 c -8.621 -17.1 -34.688 -12.172 -42.06 3.582 c -5.773 9.715 -3.871 24.1 6.641 29.762" fill="#ffb900"/><path d="m 11.969 28.2 c 0.043 -7.586 0.055 -7.887 0.34 -8.902 c 0.512 -1.832 1.262 -3.098 2.707 -4.547 c 1.043 -1.043 1.496 -1.391 2.422 -1.855 c 2.215 -1.105 2.207 -1.105 11.09 -1.105 h 7.824 v 7.113 c 0 4.102 -0.059 7.586 -0.137 8.227 c -0.281 2.258 -1.305 4.328 -2.941 5.953 c -1.078 1.074 -2.027 1.707 -3.363 2.25 c -1.699 0.688 -2.039 0.711 -10.301 0.715 l -7.688 0.004" fill="#fbdd02"/><path d="m 11.973 28.2 c 6.621 -16.363 3.895 -18.293 11.969 -4.648 c 0.23 0.328 -0.102 1.043 2.754 -5.965 c 1.223 -2.996 2.289 -5.645 2.441 -5.777 c 0.242 -0.211 0.629 -0.02 3.742 -0.02 h 3.473 v 7.113 c 0 4.102 -0.059 7.586 -0.137 8.227 c -0.281 2.258 -1.305 4.328 -2.941 5.953 c -1.078 1.074 -2.027 1.707 -3.363 2.25 c -1.699 0.688 -2.039 0.711 -10.301 0.715 l -7.688 0.004" fill="#fcaf03"/><path d="m 24.18 23.922 l 0.422 -0.289 c 7.367 -7.727 10.836 -8.09 11.52 3.512 c -0.27 2.367 -1.164 4.273 -2.844 5.941 c -1.078 1.074 -2.027 1.707 -3.363 2.25 c -1.699 0.688 -2.039 0.711 -10.301 0.715 l -7.688 0.004 c 4.508 -19.16 2.133 -28.14 12.254 -12.133" fill="#a8339b"/><path d="m 24.18 23.922 l 0.422 -0.289 c 0.23 -0.16 2.906 -2.777 5.949 -5.82 l 5.527 -5.535 l 0.082 3.297 c 0.125 4.887 0.086 11.258 -0.07 12.11 c -0.074 0.41 -0.211 0.816 -0.305 0.902 c -0.125 0.117 -1.477 -0.395 -5.734 -2.18 c -3.063 -1.281 -5.625 -2.336 -5.699 -2.34 c -0.09 -0.004 -0.121 1.988 -0.098 5.809 c 0.023 3.199 -0.008 5.863 -0.066 5.926 c -18.18 -0.355 -7.375 -22.289 -0.008 -11.879" fill="#ef4c28"/><path d="m 11.973 28.22 c 8.398 -16.05 3.621 -19.289 12.219 -4.445 c 0.215 4.199 0.168 6.68 -0.008 12.02 c -0.059 0.063 -2.844 0.152 -6.184 0.203 l -6.078 0.098" fill="#3b54ab"/><path d="m 11.973 28.13 c 0.059 -8.668 0.043 -8.508 1.02 -10.59 c 0.281 -0.602 0.754 -1.395 1.051 -1.77 c 0.91 -1.148 3.145 -2.984 4.625 -3.508 c 0.469 -0.168 0.523 0.109 0.648 0.348 c 0.078 0.141 1.102 2.598 2.281 5.453 c 1.18 2.859 2.754 5.617 2.637 5.813 l -0.043 0.074 l -5.883 5.91 c -3.234 3.25 -5.996 5.938 -6.133 5.977 c -0.246 0.063 -0.254 -0.148 -0.203 -7.707" fill="#60d200"/><path d="m 12.09 24.2 c 4.277 0.074 8.188 -0.035 11.91 -0.191 c 0.102 0.094 -11.68 11.996 -11.953 12.07 c -0.047 -3.32 -0.219 -4.113 0.043 -11.875" fill="#019662"/></svg>