<svg xmlns="http://www.w3.org/2000/svg" viewBox="0 0 48 48"><path d="m 0.676 22.797 c 28.922 -65.07 80.906 30.395 16.469 24.98 c -9.699 -1.266 -19.891 -11.293 -16.469 -24.98" fill="#696978"/><path d="m 12.09 40 c -0.672 -0.246 -1.254 -0.746 -1.633 -1.402 l -0.336 -0.582 l -0.031 -12.07 c -0.031 -11.539 -0.023 -12.09 0.191 -12.586 c 0.332 -0.758 0.797 -1.258 1.504 -1.617 l 0.625 -0.316 h 23.551 l 0.629 0.316 c 0.695 0.355 1.164 0.852 1.496 1.594 c 0.211 0.469 0.223 1.141 0.219 12.402 c 0 9.629 -0.031 11.996 -0.164 12.371 c -0.238 0.684 -0.73 1.277 -1.375 1.664 l -0.574 0.34 l -11.82 0.027 c -9.668 0.023 -11.906 -0.004 -12.281 -0.141 m 24.22 -0.883 c 0.266 -0.145 0.648 -0.496 0.848 -0.785 l 0.363 -0.523 v -24.12 l -0.324 -0.5 c -0.195 -0.301 -0.535 -0.605 -0.855 -0.762 c -0.531 -0.262 -0.559 -0.262 -12.156 -0.262 c -11.598 0 -11.625 0 -12.156 0.262 c -0.32 0.156 -0.66 0.461 -0.859 0.762 l -0.324 0.5 l -0.031 11.773 c -0.023 8.06 0.008 11.926 0.098 12.262 c 0.156 0.594 0.879 1.363 1.457 1.551 c 0.293 0.098 3.789 0.129 11.937 0.117 c 11.426 -0.02 11.523 -0.023 12 -0.277 m -20.332 -1.41 c -0.113 -0.066 -0.477 -0.703 -0.813 -1.414 l -0.605 -1.297 h -3.02 l -0.09 -0.398 c -0.129 -0.578 -0.258 -6.832 -0.285 -14 c -0.023 -5.395 -0.004 -6.258 0.164 -6.66 c 0.254 -0.621 0.512 -0.895 1.09 -1.168 c 0.461 -0.215 1.074 -0.227 11.762 -0.227 c 10.684 0 11.301 0.012 11.762 0.227 c 0.582 0.273 0.836 0.547 1.094 1.172 c 0.164 0.406 0.188 1.246 0.16 6.656 c -0.039 7.488 -0.152 13.164 -0.281 13.871 l -0.094 0.523 l -4.742 0.035 l -4.746 0.031 l -0.629 1.285 c -0.348 0.707 -0.703 1.328 -0.789 1.387 c -0.234 0.148 -3.828 0.125 -4.109 -0.027 c -0.133 -0.07 -0.383 -0.445 -0.555 -0.832 l -0.313 -0.703 l -0.328 0.719 c -0.176 0.395 -0.402 0.77 -0.5 0.832 c -0.234 0.152 -3.879 0.141 -4.137 -0.012 m 9.578 -0.898 c 0.066 -0.078 1.629 -3.617 3.473 -7.859 c 1.848 -4.238 3.566 -8.184 3.824 -8.758 c 1.254 -2.824 2.211 -5.02 2.27 -5.227 c 0.039 -0.129 -0.004 -0.277 -0.102 -0.34 c -0.215 -0.141 -2.781 -0.141 -3 0 c -0.195 0.125 0.094 -0.52 -5.719 12.844 c -1.48 3.398 -2.457 5.605 -3.258 7.363 c -0.816 1.789 -0.883 2.102 -0.469 2.16 c 0.645 0.094 2.871 -0.043 2.98 -0.184 m -5.75 -0.117 c 0.098 -0.152 0.371 -0.758 0.609 -1.348 c 0.238 -0.59 0.539 -1.258 0.672 -1.48 c 0.289 -0.504 1.254 -2.703 1.566 -3.582 c 0.125 -0.359 0.758 -1.844 1.406 -3.305 c 0.648 -1.457 1.551 -3.512 2 -4.566 c 0.457 -1.051 1.332 -3.051 1.941 -4.441 c 1.504 -3.418 1.422 -3.195 1.207 -3.336 c -0.281 -0.18 -2.977 -0.148 -3.117 0.035 c -0.066 0.086 -1.035 2.266 -2.152 4.844 c -2.453 5.656 -2.961 6.805 -3.664 8.328 c -0.301 0.645 -0.629 1.395 -0.734 1.664 c -0.266 0.707 -1.402 3.324 -1.82 4.195 c -0.746 1.563 -1.238 2.758 -1.238 3.01 c 0 0.254 0.047 0.266 1.57 0.266 c 1.5 0 1.582 -0.016 1.75 -0.281 m -2.813 -2.258 c 0.387 -0.875 0.703 -1.73 0.703 -1.902 c 0 -0.262 -1.566 -4.188 -1.859 -4.66 c -0.137 -0.223 -3.094 -0.219 -3.18 0.004 c -0.031 0.086 0.629 1.793 1.477 3.793 c 0.84 2 1.609 3.82 1.703 4.047 c 0.094 0.223 0.238 0.387 0.316 0.359 c 0.078 -0.027 0.457 -0.766 0.844 -1.641 m 5.816 0 c 0.387 -0.875 0.703 -1.746 0.703 -1.938 c 0 -0.434 -0.438 -1.324 -0.648 -1.324 c -0.18 0 -1.539 3.129 -1.535 3.531 c 0.004 0.398 0.484 1.426 0.641 1.371 c 0.078 -0.023 0.457 -0.762 0.84 -1.641 m -3.281 -5.828 c 0.313 -0.742 0.238 -0.891 -0.441 -0.891 c -0.66 0 -0.746 0.145 -0.477 0.809 c 0.391 0.957 0.543 0.969 0.918 0.082" fill="#fff"/></svg>