<svg xmlns="http://www.w3.org/2000/svg" viewBox="0 0 48 48"><path d="m 5.395 10.566 c -23.902 36.38 47.883 56.16 42.18 11.762 c -4.297 -19.445 -31.23 -31.25 -42.18 -11.762" fill="#2f4e4e"/><g fill="#fff"><path d="m 9.379 29.883 c -0.359 -0.434 -0.492 -2.336 -0.234 -3.301 c 0.188 -0.688 0.605 -1.191 2.184 -2.641 c 1.07 -0.984 2.035 -2.02 2.141 -2.289 c 0.305 -0.805 -0.16 -1.551 -1.66 -2.664 c -0.758 -0.563 -1.625 -1.344 -1.922 -1.734 c -0.73 -0.957 -1.082 -2.828 -0.746 -3.953 c 0.223 -0.742 0.309 -0.82 0.914 -0.82 c 0.457 0 1.055 0.27 1.875 0.84 c 1.609 1.129 4.59 3.707 6.03 5.223 c 1.164 1.223 1.172 1.234 1.172 2.484 c 0 1.641 -0.383 2.395 -1.91 3.781 c -2.605 2.363 -6.813 5.367 -7.52 5.367 c -0.043 0 -0.191 -0.133 -0.324 -0.293"/><path d="m 21.586 32.477 c -0.785 -0.418 -1.359 -1.129 -1.547 -1.922 c -0.16 -0.684 0.664 -1.508 1.84 -1.84 c 1.137 -0.32 5.898 -0.273 6.91 0.066 c 1.07 0.363 1.426 1.078 1.191 2.375 c -0.25 1.363 -0.668 1.512 -4.543 1.609 c -2.754 0.07 -3.242 0.035 -3.852 -0.289"/></g></svg>