<svg xmlns="http://www.w3.org/2000/svg" viewBox="0 0 48 48"><path d="m 11.656 3.734 c -42.25 36.07 44.621 70.76 35.695 14.969 c -1.957 -12.234 -24.309 -24.691 -35.695 -14.969" fill="#9782c1"/><path d="m 191.71 171.65 c 0 26.301 -24.384 47.615 -54.47 47.615 c -30.09 0 -54.45 -21.314 -54.45 -47.615 c 0 -26.301 24.362 -47.615 54.45 -47.615 c 30.09 0 54.47 21.314 54.47 47.615" transform="matrix(0.17541 0 0 0.17704 0.806 0.716)" fill="#fff" stroke="#fff" stroke-width="2.447"/><path d="m 24.21 40.68 c -2.289 -0.223 -4.453 -1.059 -6.465 -2.492 c -1.164 -0.832 -3.199 -3.086 -3.93 -4.348 c -1.031 -1.789 -1.453 -3.03 -2.102 -6.16 c -0.137 -0.652 -0.133 -3.055 0 -3.695 c 0.488 -2.297 0.699 -3.105 1.055 -4.01 c 0.379 -0.973 0.453 -1.078 1.133 -1.617 c 0.926 -0.738 2.785 -1.746 4.01 -2.172 c 0.652 -0.227 0.98 -0.402 1.012 -0.543 c 4.04 0.16 -5.03 -0.172 5.723 -0.629 c 4.98 -0.195 9.598 1.039 12.508 3.348 c 0.676 0.535 0.746 0.641 1.129 1.613 c 0.355 0.902 0.566 1.711 1.055 4.01 c 0.133 0.641 0.137 3.043 0 3.695 c -0.906 4.371 -1.707 6.109 -3.949 8.547 c -1.684 1.832 -3.191 2.891 -5.234 3.676 c -1.699 0.652 -4.066 0.961 -5.945 0.777 m -1.363 -2.473 c 0.301 -0.199 1.137 -1.01 1.859 -1.793 c 0.988 -1.078 1.68 -1.699 2.793 -2.516 c 0.813 -0.594 1.578 -1.176 1.703 -1.289 c 0.523 -0.48 0.785 -1.199 0.438 -1.199 c -0.09 0 -0.645 0.332 -1.234 0.738 c -1.395 0.965 -1.344 0.934 -1.344 0.813 c 0 -0.059 0.363 -0.711 0.809 -1.445 c 1.133 -1.875 1.629 -2.879 1.555 -3.133 c -0.074 -0.25 -0.613 -0.613 -0.914 -0.613 c -0.113 0 -1.363 0.938 -2.777 2.086 c -3.125 2.543 -3.168 2.578 -3.5 2.66 c -0.695 0.176 -0.773 -0.551 -0.164 -1.535 c 0.875 -1.41 2.82 -3.109 4.48 -3.918 c 0.84 -0.406 1.063 -0.445 0.801 -0.137 c -0.223 0.266 -0.234 0.563 -0.02 0.648 c 0.188 0.078 1.016 -0.367 2.133 -1.141 c 0.828 -0.574 0.961 -0.82 0.848 -1.563 c -0.133 -0.883 -0.504 -1.01 -2.023 -0.676 c -3.03 0.664 -5.727 2.441 -7.133 4.691 c -0.641 1.023 -0.93 1.875 -0.938 2.758 c -0.008 0.906 0.293 1.578 0.871 1.941 c 0.895 0.563 1.621 0.316 3.543 -1.199 c 0.621 -0.488 1.156 -0.855 1.191 -0.816 c 0.078 0.082 -0.563 1.227 -1.301 2.313 c -0.355 0.531 -0.723 0.906 -1.168 1.203 c -0.848 0.559 -1.84 1.707 -1.988 2.301 c -0.285 1.133 0.426 1.527 1.48 0.82" fill="#ec4c54"/><path d="m 24.844 21.801 c -0.398 -0.484 -3.055 -5.16 -3.02 -5.324 c 0.074 -0.43 4.672 -0.617 7.262 -0.297 c 1.617 0.199 3.77 0.742 4.984 1.254 c 0.984 0.414 2.379 1.246 2.457 1.461 c 0.129 0.363 -1.758 1.422 -3.609 2.023 c -1.977 0.648 -3.609 0.918 -6.246 1.031 c -1.52 0.07 -1.656 0.059 -1.824 -0.148 m -2.777 -0.121 c -0.121 -0.027 -0.637 -0.133 -1.148 -0.234 c -1.926 -0.383 -4.43 -1.426 -5.316 -2.211 l -0.328 -0.289 l 0.273 -0.238 c 0.672 -0.578 3.02 -1.645 4.234 -1.93 c 0.32 -0.074 0.371 -0.039 0.891 0.719 c 0.668 0.965 2.438 3.973 2.438 4.141 c 0 0.117 -0.609 0.145 -1.043 0.043" fill="#452e2e"/><path d="m 123.75 104.15 c -1.099 -1.448 -2.908 -6.482 -5.793 -11.182 c -13 -21.18 -19.255 -26.15 -30.68 -31.629 c -2.61 -1.27 -10.807 -5.301 -17.309 -7.64 c -6.525 -2.339 -10.03 -4.566 -10.624 -4.41 c -2.381 0.557 -0.572 -5.324 0.435 -5.346 c 1.442 -0.022 14.562 4.566 20.744 6.437 c 11.883 3.586 22.529 10.469 27.04 15.481 c 2.519 2.784 5.93 6.04 11.173 14.345 c 5.152 8.175 15.569 23.767 15.569 24.524 c 0 1.515 -8.678 1.916 -10.555 -0.579" transform="matrix(0.17061 0 0 0.17537 1.73 3.294)" fill="#fff" stroke="#f1464f" stroke-width="2.672"/></svg>