<svg xmlns="http://www.w3.org/2000/svg" viewBox="0 0 48 48"><defs><linearGradient id="0" gradientUnits="userSpaceOnUse" x1="394.26" x2="502.99" gradientTransform="matrix(0.29403 0 0 0.30091 -107.66 -121.57)"><stop stop-color="#dcbff9"/><stop offset="1" stop-color="#fcf6fc"/></linearGradient></defs><path d="m 43.05 36.719 c 17.262 -24.547 -14.613 -49.42 -34.945 -29.418 c -19.16 18.844 -1.398 48.13 22.441 38.973 c 4.973 -1.91 9.336 -5.05 12.504 -9.555" fill="#b954d2"/><path d="m 24.25 8.449 c -1.211 0.008 -2.32 3.305 -2.867 8.535 c -3.355 -2.766 -6.09 -4.32 -7.379 -4.195 c -0.234 0.023 -0.414 0.102 -0.547 0.234 c -0.848 0.883 0.645 4.01 3.867 8.102 c -5.113 0.566 -8.336 1.699 -8.336 2.941 c 0.008 1.238 3.227 2.371 8.332 2.934 c -3.227 4.098 -4.719 7.23 -3.863 8.105 c 0.859 0.875 3.918 -0.652 7.918 -3.953 c 0.551 5.234 1.66 8.527 2.871 8.527 c 1.211 -0.004 2.32 -3.305 2.871 -8.535 c 3.996 3.297 7.05 4.828 7.918 3.961 c 0.852 -0.879 -0.641 -4.01 -3.867 -8.105 c 4.285 -0.473 7.289 -1.352 8.113 -2.375 c 0.148 -0.184 0.223 -0.371 0.223 -0.559 c -0.004 -1.238 -3.227 -2.371 -8.336 -2.934 c 2.703 -3.434 4.223 -6.23 4.098 -7.551 c -0.023 -0.238 -0.098 -0.426 -0.23 -0.559 c -0.855 -0.871 -3.918 0.656 -7.922 3.957 c -0.461 -4.383 -1.32 -7.457 -2.316 -8.301 c -0.184 -0.152 -0.367 -0.227 -0.551 -0.227 m 0.004 3.086 c 0.145 0 0.293 0.059 0.438 0.18 c 0.734 0.621 1.375 2.742 1.762 5.82 c -0.723 0.617 -1.461 1.273 -2.199 1.965 c -0.742 -0.691 -1.48 -1.352 -2.203 -1.969 c 0.469 -3.723 1.301 -5.996 2.203 -5.996 m 8.09 3.473 c 0.008 0 0.02 0 0.027 0 c 0.234 0.004 0.414 0.07 0.539 0.195 c 0.102 0.105 0.164 0.254 0.184 0.445 c 0.09 0.969 -0.922 2.934 -2.773 5.391 c -0.938 -0.09 -1.918 -0.156 -2.918 -0.199 c -0.043 -1.027 -0.109 -2.027 -0.195 -2.988 c 2.293 -1.813 4.148 -2.84 5.137 -2.844 m -16.313 0.008 c 0.949 -0.09 2.867 0.945 5.266 2.84 c -0.086 0.961 -0.152 1.961 -0.195 2.984 c -1 0.047 -1.977 0.113 -2.918 0.199 c -2.242 -2.969 -3.223 -5.184 -2.586 -5.836 c 0.102 -0.105 0.25 -0.172 0.438 -0.188 m 10.516 3.359 c 0.082 0.781 0.148 1.598 0.195 2.441 c -0.387 -0.016 -0.773 -0.027 -1.164 -0.035 c -0.281 -0.277 -0.566 -0.555 -0.852 -0.824 c 0.617 -0.559 1.227 -1.09 1.82 -1.582 m -4.602 0.004 c 0.594 0.488 1.207 1.02 1.82 1.582 c -0.281 0.27 -0.566 0.543 -0.848 0.82 c -0.391 0.008 -0.777 0.02 -1.164 0.031 c 0.047 -0.84 0.109 -1.656 0.191 -2.434 m 2.305 2.023 c 0.125 0.121 0.254 0.242 0.383 0.367 c -0.129 -0.004 -0.258 -0.004 -0.383 -0.004 c -0.133 0 -0.262 0 -0.391 0 c 0.129 -0.121 0.258 -0.242 0.391 -0.363 m 0 1.016 c 0.355 0 0.711 0.004 1.063 0.012 c 0.258 0.25 0.512 0.504 0.766 0.762 c 0.25 0.258 0.496 0.52 0.742 0.781 c 0.008 0.359 0.012 0.727 0.012 1.09 c 0 0.363 -0.004 0.727 -0.012 1.09 c -0.246 0.262 -0.492 0.523 -0.742 0.781 c -0.254 0.258 -0.508 0.512 -0.766 0.762 c -0.352 0.008 -0.707 0.012 -1.063 0.012 c -0.359 0 -0.715 -0.004 -1.066 -0.012 c -0.258 -0.25 -0.512 -0.504 -0.762 -0.762 c -0.254 -0.258 -0.5 -0.52 -0.746 -0.781 c -0.008 -0.363 -0.012 -0.727 -0.012 -1.09 c 0 -0.363 0.004 -0.727 0.012 -1.09 c 0.246 -0.262 0.492 -0.523 0.746 -0.781 c 0.25 -0.258 0.504 -0.512 0.758 -0.762 c 0.355 -0.008 0.711 -0.012 1.066 -0.012 m 2 0.035 c 0.18 0.008 0.355 0.016 0.531 0.023 c 0.004 0.18 0.012 0.355 0.02 0.535 c -0.09 -0.094 -0.18 -0.188 -0.27 -0.281 c -0.094 -0.094 -0.188 -0.184 -0.281 -0.277 m -4 0.004 c -0.094 0.09 -0.184 0.184 -0.273 0.273 c -0.094 0.094 -0.184 0.191 -0.273 0.285 c 0.008 -0.18 0.016 -0.359 0.023 -0.535 c 0.172 -0.008 0.348 -0.02 0.523 -0.023 m 5.176 0.051 c 0.824 0.047 1.621 0.113 2.379 0.195 c -0.477 0.609 -0.996 1.234 -1.547 1.867 c -0.262 -0.289 -0.527 -0.578 -0.797 -0.863 c -0.008 -0.402 -0.02 -0.801 -0.035 -1.199 m -6.348 0.004 c -0.016 0.395 -0.027 0.789 -0.035 1.191 c -0.27 0.285 -0.539 0.574 -0.805 0.863 c -0.547 -0.625 -1.066 -1.25 -1.547 -1.859 c 0.762 -0.082 1.563 -0.148 2.387 -0.195 m 9.555 0.297 c 3.637 0.477 5.855 1.332 5.859 2.254 c 0 0.148 -0.059 0.301 -0.18 0.449 c -0.605 0.75 -2.676 1.406 -5.68 1.801 c -0.605 -0.738 -1.25 -1.496 -1.926 -2.25 c 0.68 -0.758 1.324 -1.516 1.926 -2.258 m -12.762 0.004 c 0.605 0.742 1.25 1.496 1.93 2.254 c -0.676 0.758 -1.32 1.512 -1.926 2.254 c -3.641 -0.48 -5.859 -1.332 -5.863 -2.254 c 0.004 -0.922 2.227 -1.773 5.859 -2.254 m 3.164 1.863 c 0 0.129 -0.004 0.258 -0.004 0.391 c 0 0.129 0 0.258 0.004 0.391 c -0.121 -0.133 -0.238 -0.262 -0.355 -0.391 c 0.117 -0.133 0.234 -0.262 0.355 -0.391 m 6.434 0 c 0.121 0.129 0.242 0.258 0.359 0.391 c -0.117 0.129 -0.238 0.262 -0.359 0.391 c 0.004 -0.129 0.004 -0.262 0.004 -0.391 c 0 -0.133 0 -0.262 -0.004 -0.391 m 0.793 0.879 c 0.551 0.633 1.066 1.258 1.547 1.867 c -0.762 0.082 -1.559 0.148 -2.383 0.195 c 0.016 -0.395 0.027 -0.793 0.035 -1.195 c 0.27 -0.285 0.535 -0.574 0.801 -0.867 m -8.02 0.004 c 0.262 0.289 0.531 0.574 0.801 0.863 c 0.008 0.402 0.016 0.801 0.031 1.199 c -0.824 -0.047 -1.621 -0.113 -2.383 -0.199 c 0.48 -0.609 1 -1.234 1.551 -1.863 m 6.559 1.555 c -0.008 0.18 -0.016 0.355 -0.023 0.535 c -0.176 0.008 -0.352 0.016 -0.523 0.023 c 0.09 -0.09 0.184 -0.184 0.273 -0.273 c 0.09 -0.098 0.184 -0.191 0.273 -0.285 m -5.098 0.004 c 0.09 0.094 0.18 0.188 0.27 0.281 c 0.09 0.09 0.184 0.184 0.273 0.277 c -0.176 -0.008 -0.352 -0.016 -0.523 -0.027 c -0.008 -0.176 -0.016 -0.352 -0.02 -0.531 m -3.523 0.973 c 0.941 0.086 1.922 0.152 2.922 0.199 c 0.047 1.023 0.109 2.027 0.195 2.988 c -2.902 2.293 -5.066 3.297 -5.703 2.648 c -0.633 -0.656 0.348 -2.867 2.586 -5.836 m 12.137 0 c 2.242 2.969 3.223 5.18 2.59 5.836 c -0.645 0.645 -2.801 -0.359 -5.703 -2.652 c 0.086 -0.961 0.152 -1.961 0.195 -2.984 c 1 -0.047 1.98 -0.113 2.918 -0.199 m -8.563 0.223 c 0.387 0.016 0.777 0.027 1.168 0.035 c 0.281 0.277 0.563 0.551 0.848 0.824 c -0.617 0.559 -1.227 1.09 -1.82 1.582 c -0.082 -0.781 -0.148 -1.598 -0.195 -2.441 m 4.988 0 c -0.043 0.844 -0.109 1.66 -0.191 2.441 c -0.594 -0.492 -1.203 -1.023 -1.82 -1.586 c 0.281 -0.27 0.566 -0.543 0.848 -0.82 c 0.391 -0.008 0.777 -0.02 1.164 -0.035 m -2.879 0.047 c 0.129 0 0.258 0.004 0.387 0.004 c 0.129 0 0.258 -0.004 0.387 -0.004 c -0.129 0.121 -0.258 0.246 -0.391 0.367 c -0.125 -0.121 -0.254 -0.246 -0.383 -0.367 m 0.387 1.266 c 0.742 0.691 1.477 1.352 2.203 1.969 c -0.469 3.723 -1.305 5.996 -2.203 6 c -0.902 -0.004 -1.734 -2.277 -2.203 -6 c 0.723 -0.617 1.461 -1.273 2.203 -1.965" fill="url(#0)" fill-rule="evenodd"/></svg>