<svg xmlns="http://www.w3.org/2000/svg" viewBox="0 0 48 48"><path d="m 5.141 11.891 c -25.785 46.898 68.41 49.11 35.984 0.766 c -8.559 -12.438 -29.04 -18.508 -35.984 -0.766" fill="#6f6f6f"/><path d="m 29.766 38.08 c -1.113 -0.586 -2.449 -1.84 -3.789 -3.555 c -0.355 -0.457 -0.715 -0.871 -0.801 -0.918 c -0.117 -0.07 -0.281 0.055 -0.734 0.551 c -0.621 0.68 -1.348 1.176 -1.941 1.328 c -1.957 0.5 -3.586 -0.035 -6.883 -2.262 c -2.254 -1.52 -2.52 -1.914 -1.898 -2.789 c 0.285 -0.398 0.297 -0.402 0.883 -0.402 c 0.621 -0.016 0.945 0.227 1.434 0.539 c 0.465 0.289 1.051 0.703 1.434 1.016 c 0.605 0.609 1.461 0.945 2.125 1.32 c 0.863 0.488 2.348 0.453 2.938 -0.07 c 0.332 -0.297 0.766 -1.113 0.652 -1.227 c -0.027 -0.031 -0.215 -0.047 -0.41 -0.031 c -0.344 0.023 -2.148 -0.121 -2.977 -0.242 c -0.469 -0.223 -0.715 -0.484 -1.066 -0.766 c 0.098 -0.098 2.652 -0.363 3.082 -0.32 c 0.293 0.027 0.496 0 0.559 -0.074 c 0.293 -0.355 -1.719 -2.949 -3.191 -4.113 c -1.141 -0.902 -2.234 -0.883 -3.375 0.063 c -0.707 0.582 -1.01 0.68 -1.637 0.535 c -0.848 -0.211 -0.875 -1.105 -0.652 -1.641 c 0.211 -0.52 0.73 -0.617 1.102 -0.926 c 1.133 -0.949 2.605 -1.309 3.93 -0.957 c 1.602 0.426 3.414 2.023 5.344 4.723 c 0.391 0.539 0.766 1.01 0.844 1.035 c 0.988 -1.582 1.336 -2.48 3.613 -2.402 c 0.199 -0.203 0.203 -0.258 0.141 -2.316 c -0.035 -1.16 -0.063 -3.523 -0.063 -5.254 v -3.145 l -0.266 -0.051 c -0.496 -0.094 -14.01 -0.172 -14.14 -0.078 c -0.07 0.047 -0.129 0.191 -0.133 0.32 c -0.063 3.01 -0.176 6.742 -0.227 7.27 c -0.07 0.742 -0.168 0.68 -0.281 -0.172 c -0.074 -0.578 -0.199 -0.523 -0.285 0.121 c -0.066 0.492 -0.176 0.676 -0.289 0.488 c -0.055 -0.086 -0.324 -2.141 -0.336 -2.52 c -0.004 -0.203 -0.191 -0.031 -0.191 0.176 c 0 0.445 -0.211 1.141 -0.344 1.141 c -0.121 0 -0.141 -0.633 -0.141 -4.527 v -4.527 h 19.07 l -0.063 6.668 c -0.055 6.199 -0.047 6.684 0.105 6.875 c 0.09 0.113 0.555 0.406 1.031 0.648 c 0.867 0.441 2.473 1.48 3.77 2.441 c 0.801 0.352 0.938 1.535 0.387 2.027 c -0.223 0.18 -0.414 0.242 -0.707 0.238 c -0.41 -0.012 -0.59 -0.105 -1.934 -1.027 c -1.664 -1.145 -2.313 -1.555 -2.449 -1.555 c -0.281 0 -0.367 0.238 -0.305 0.852 c 0.078 0.762 -0.078 1.273 -0.422 1.363 c -0.137 0.035 -0.887 0.035 -1.672 0.004 c -1.336 -0.059 -1.426 -0.051 -1.426 0.117 c 0.137 0.465 0.465 0.828 0.734 1.23 c 0.48 0.727 1.969 2.141 2.668 2.535 c 1.098 0.621 1.809 0.5 2.973 -0.496 c 0.836 -0.711 1.375 -0.766 1.875 -0.184 c 0.363 0.418 0.457 0.832 0.27 1.191 c -0.285 0.555 -1.465 1.527 -2.125 1.754 c -1.121 0.461 -2.742 0.508 -3.805 -0.027 m -1.262 -8.613 c -0.035 -0.309 -0.258 -0.379 -0.66 -0.211 c -0.281 0.117 -0.441 0.402 -0.332 0.582 c 0.379 0.125 1.078 0.5 0.992 -0.371 m -13.01 -7.082 c -0.168 -0.094 -0.184 -0.57 -0.023 -0.734 c 0.941 -0.344 1.941 0.203 2.867 -0.262 c 0.086 -0.109 0.121 -0.688 0.129 -2.063 c 0.012 -1.648 -0.008 -1.926 -0.137 -1.996 c -0.086 -0.047 -0.602 -0.039 -1.156 0.02 c -1.848 0.188 -2.105 0.137 -2.105 -0.422 c 0 -0.203 0.059 -0.305 0.215 -0.363 c 0.285 -0.109 3.488 -0.402 4.375 -0.402 c 1.113 0 1.082 -0.082 1.082 2.691 c 0 1.402 0.039 2.379 0.098 2.492 c 0.648 0.492 2.621 -0.199 3.03 0.426 c 0.176 0.277 0.059 0.629 -0.227 0.664 c -0.488 0.063 -8.03 0.016 -8.148 -0.051" fill="#2e2e2e"/></svg>