<svg xmlns="http://www.w3.org/2000/svg" viewBox="0 0 48 48"><path d="m 41.04 39.727 c -49.945 37.24 -57.04 -65.25 -6.06 -32.359 c 11.625 7.5 19.285 22.496 6.06 32.359" fill="#ecd192"/><g fill="#9f0000" stroke="#9f0000" transform="matrix(0.4519 0 0 0.55184 8.691 7.02)"><path d="m 37.983 21.569 c -28.09 -20.01 -40.506 38.05 -2.922 19.657 c 4.581 -2.449 11.583 -6.137 11.583 -6.137 c 0 -0.071 0.026 -11.729 0.026 -11.729 c 0 0 8.341 0.014 8.341 0.014 c 0 0 0 7.808 0 7.808 c 0 0 8.341 -4.148 8.341 -4.148 c 0 0 0 10.979 0 10.979 c 0 0 -8.411 3.844 -8.411 3.844 c 0 0 0.017 11.998 0.017 11.998 c 0 0 -8.117 -0.092 -8.117 -0.092 c 0 0 -0.035 -9.563 -0.035 -9.563 c -0.017 0.014 -6.414 3.207 -6.431 3.214 c -60.27 25.441 -44.88 -53.25 -0.959 -34.848 c 0 0 -1.435 8.997 -1.435 8.997" stroke-width="0.285"/><path d="m 37.905 21.584 c 0 0 -6.889 9.245 -6.889 9.245 c 0 0 3.198 -11.09 3.198 -11.09 c 0 0 -5.23 8.01 -5.23 8.01 c 0 0 1.902 -9.08 1.902 -9.08 c 0 0 -3.821 6.753 -3.821 6.753 c 0 0 1.167 -7.744 1.167 -7.744 c 0 0 -3.03 5.918 -3.03 5.918 c 0 0 0.553 -6.42 0.553 -6.42 c 0 0 -2.343 5.146 -2.343 5.146 c 0 0 -0.501 -5.451 -0.501 -5.451 c 0 0 -1.383 4.481 -1.383 4.481 c 0 0 -0.942 -4.212 -0.942 -4.212 c 0 0 -0.769 3.469 -0.769 3.469 c 0 0 -1.323 -3.277 -1.323 -3.277 c 0 0 -0.294 2.747 -0.294 2.747 c 0 0 -1.409 -2.357 -1.409 -2.357 c 0 0 -0.147 2.265 -0.147 2.265 c 0 0 -1.608 -1.848 -1.608 -1.848 c 0 0 0.043 1.678 0.043 1.678 c 0 0 -1.184 -1.218 -1.184 -1.218 c 0 0 -0.052 1.295 -0.052 1.295 c 0 0 -1.037 -0.835 -1.037 -0.835 c 0 0 -0.104 0.757 -0.104 0.757 c 0 0 -0.994 -0.418 -0.994 -0.418 c 0 0 5.843 -3.631 5.843 -3.631 c 0 0 18.03 3.214 18.03 3.214 c 0 0 2.317 2.598 2.317 2.598" stroke-width="0.341"/></g></svg>