<svg xmlns="http://www.w3.org/2000/svg" viewBox="0 0 48 48"><path d="m 35.672 44.05 c -61.766 25.281 -32.746 -81.05 7.59 -29.422 c 7.03 9.266 7.566 24.82 -7.59 29.422" fill="#88b9f9"/><path d="m 155.88 116.33 c 0 11.966 -18.528 21.652 -41.4 21.652 c -22.872 0 -41.42 -9.686 -41.42 -21.652 c 0 -11.951 18.547 -21.652 41.42 -21.652 c 22.872 0 41.4 9.701 41.4 21.652" transform="matrix(0.2005 0 0 0.2569 -0.93 -9.598)" fill="#fff" stroke="#fff"/><path d="m 17.469 39.08 c -0.496 -0.188 -0.754 -0.93 -0.809 -2.336 c -0.027 -0.645 0.02 -1.434 0.105 -1.75 c 0.145 -0.555 1.23 -2.762 1.75 -3.566 c 0.332 -0.516 0.27 -0.797 -0.188 -0.84 c -0.762 0.152 -1.348 0.746 -2.043 1.039 c -1.063 0.355 -1.684 1.137 -2.543 1.777 c -0.527 0.391 -2.355 1.297 -2.707 1.348 c -0.137 0.02 -0.633 0.359 -1.109 0.758 c -1.172 0.98 -1.598 1.25 -1.543 0.18 l 0.063 -1.133 c 0.691 -1.016 1.352 -2.055 2.066 -3.055 c 0.324 -0.453 1.832 -1.789 2.91 -2.582 c 0.266 -0.195 0.477 -0.414 0.469 -0.484 c -0.012 -0.07 -0.348 -0.461 -0.75 -0.871 c -1.297 -1.309 -2.059 -2.758 -2.52 -4.797 c -0.809 -3.57 0.277 -6.094 3.438 -7.98 c 3.426 -2.047 11.06 -3.082 14.473 -1.961 c 2.742 0.902 4.336 2.895 5.211 6.516 c 0.574 2.367 0.453 3.992 -0.422 5.781 c -0.191 0.395 -0.328 0.727 -0.305 0.738 c 0.023 0.012 1.027 0.422 2.234 0.91 c 2.605 1.055 2.746 1.141 3.84 2.254 c 0.844 0.863 0.848 0.871 0.969 1.762 l 0.121 0.898 c -1.266 0.09 -2.563 0.492 -3.836 0.379 c -1.254 -0.133 -4.03 -1.352 -5.953 -2.621 c -0.57 -0.375 -0.91 -0.434 -1.016 -0.18 c -0.07 0.176 0.352 1.277 1.352 3.52 c 0.434 0.977 0.855 2.02 0.941 2.313 c 0.316 1.109 -0.102 2.215 -0.879 2.32 c -1.098 0.152 -3.355 -1.344 -4.625 -3.063 c -0.207 -0.285 -0.637 -1.01 -0.957 -1.609 c -0.773 -1.465 -0.969 -1.691 -1.418 -1.629 c -0.48 0.063 -0.938 0.668 -1.262 1.652 c -1.023 3.141 -1.344 3.773 -2.391 4.738 c -0.801 0.441 -1.734 1.922 -2.668 1.574 m 10.199 -16.867 c 0.617 -0.555 1.094 -1.453 1.148 -2.184 c 0.145 -1.988 -1.551 -3.574 -3.523 -3.297 c -0.863 0.121 -1.406 0.434 -1.973 1.137 c -0.762 0.941 -0.867 2.41 -0.246 3.453 c 0.324 0.543 1.48 1.477 1.777 1.438 c 1.035 0.367 1.41 0.461 2.816 -0.547 m -7.43 0.871 c 0.125 0.102 0.855 -0.945 1.02 -1.461 c 0.191 -0.602 0.074 -1.883 -0.223 -2.469 c -0.258 -0.504 -1.141 -1.219 -1.758 -1.43 c -0.797 -0.27 -2.047 -0.063 -2.75 0.457 c -1.543 1.129 -1.711 3.352 -0.363 4.746 c 0.305 0.313 1.047 0.746 1.238 0.723 c 1.137 0.309 1.215 0.602 2.836 -0.566" fill="#2d68ab"/><path d="m 17.77 23.418 c -0.688 -0.535 -0.793 -1.438 -0.383 -2.055 c 1.027 -1.52 3.219 -0.215 2.527 1.508 c -0.359 0.891 -1.348 1.145 -2.145 0.547 m 7.723 -0.824 c -0.676 -0.277 -1.07 -1.223 -0.848 -2.031 c 0.105 -0.395 0.793 -0.98 1.215 -1.039 c 0.699 -0.094 1.59 0.613 1.688 1.344 c 0.172 1.262 -0.934 2.191 -2.055 1.727" fill="#141617"/></svg>