<svg xmlns="http://www.w3.org/2000/svg" viewBox="0 0 48 48"><path d="m 6.961 39.594 c 49.945 37.844 57.04 -66.3 6.06 -32.879 c -11.621 7.621 -19.285 22.855 -6.06 32.879" fill="#5f9d9f"/><path d="m 12.43 35.1 c 0 -0.551 0.09 -0.691 0.738 -1.172 c 0.738 -0.547 1.254 -1.34 1.246 -1.914 c -0.004 -0.375 -0.938 -3.02 -1.133 -3.215 c -0.082 -0.082 -0.359 0.305 -0.641 0.898 c -1.195 2.535 -2.773 3.316 -4.074 2.023 c -1.746 -1.734 -2.531 -5.938 -1.617 -8.637 c 0.629 -1.859 2.133 -3.578 3.129 -3.578 c 0.734 0 0.863 0.16 0.863 1.082 v 0.879 l -0.539 -0.324 c -1.086 -0.656 -1.953 -0.355 -2.723 0.949 c -0.391 0.656 -0.461 0.984 -0.516 2.344 c -0.074 1.797 0.176 2.91 1 4.453 c 0.699 1.305 1.598 2.086 2.406 2.086 c 0.813 0 1.277 -0.34 1.758 -1.281 c 0.656 -1.293 0.68 -1.715 0.168 -2.945 c -0.254 -0.605 -0.527 -1.172 -0.609 -1.262 c -0.098 -0.105 -0.422 0.129 -0.902 0.656 c -0.68 0.742 -0.738 0.777 -0.641 0.355 c 0.066 -0.27 0.559 -0.879 1.199 -1.473 c 1.262 -1.172 1.43 -1.27 1.297 -0.738 c -0.07 0.266 0.207 1.152 0.859 2.762 c 0.957 2.359 0.961 2.375 0.961 4.09 c 0 1.445 -0.059 1.848 -0.379 2.539 c -0.359 0.77 -1.434 2.047 -1.723 2.047 c -0.074 0 -0.133 -0.281 -0.133 -0.625"/><path d="m 15.375 25.441 c -0.121 -0.184 -0.645 -2.027 -1.164 -4.094 c -0.914 -3.629 -0.941 -3.785 -0.797 -4.645 c 0.203 -1.191 0.668 -2.121 1.207 -2.398 c 0.426 -0.219 0.43 -0.219 0.34 0.109 c -0.047 0.184 -0.09 0.414 -0.09 0.512 c 0 0.098 -0.098 0.18 -0.215 0.18 c -0.117 0 -0.348 0.137 -0.516 0.301 c -0.418 0.422 -0.324 1.152 0.664 5.102 c 1.035 4.152 1.195 4.398 1.945 3.043 c 0.551 -1 0.469 -0.488 -0.148 0.93 c -0.566 1.297 -0.855 1.523 -1.227 0.961"/><path d="m 18.523 23.805 c -0.586 -0.648 -0.758 -3.945 -0.266 -5.063 c 0.574 -1.301 1.395 -1.914 3.039 -2.277 c 0.355 -0.078 0.379 -0.059 0.266 0.234 c -0.117 0.313 0.039 3.969 0.195 4.621 c 0.117 0.48 0.414 0.387 0.867 -0.266 c 0.223 -0.32 0.43 -0.512 0.457 -0.422 c 0.051 0.148 -1.453 2.363 -1.715 2.523 c -0.191 0.121 -0.25 -0.008 -0.34 -0.785 c -0.047 -0.402 -0.133 -0.73 -0.191 -0.73 c -0.059 0 -0.367 0.402 -0.688 0.895 c -0.629 0.961 -1.102 1.52 -1.285 1.52 c -0.063 0 -0.215 -0.109 -0.34 -0.25 m 1.277 -1.348 c 0.16 -0.176 0.465 -0.59 0.68 -0.918 c 0.387 -0.594 0.387 -0.598 0.285 -2.383 c -0.09 -1.555 -0.137 -1.777 -0.336 -1.723 c -0.129 0.035 -0.434 0.105 -0.68 0.156 c -0.867 0.172 -0.973 0.453 -0.973 2.543 c 0 1.555 0.043 1.941 0.254 2.262 c 0.305 0.465 0.395 0.473 0.77 0.063"/><path d="m 27.08 22.289 c 0.047 -0.527 0.051 -0.957 0.004 -0.957 c -0.047 0 -0.602 0.313 -1.23 0.699 c -0.633 0.383 -1.242 0.656 -1.355 0.605 c -0.621 -0.262 -0.34 -2.297 0.617 -4.492 c 0.414 -0.953 0.695 -1.355 1.227 -1.758 c 0.918 -0.699 1.758 -1.016 2.203 -0.832 c 0.301 0.121 0.379 0.07 0.512 -0.324 c 0.086 -0.254 0.27 -0.809 0.414 -1.227 c 0.141 -0.418 0.527 -1.047 0.855 -1.402 c 0.754 -0.805 2.137 -1.57 2.566 -1.422 c 0.293 0.102 0.297 0.141 0.082 0.504 c -0.199 0.34 -0.328 0.383 -0.902 0.313 c -0.605 -0.074 -0.695 -0.035 -1.01 0.445 c -0.488 0.758 -2.949 8.535 -2.949 9.324 c 0 0.434 0.301 0.43 1.094 -0.012 c 0.434 -0.246 0.832 -0.402 0.879 -0.348 c 0.051 0.055 0.059 0.121 0.023 0.156 c -0.215 0.191 -2.445 1.457 -2.75 1.563 c -0.367 0.121 -0.371 0.113 -0.281 -0.836 m -0.465 -1.121 l 0.801 -0.508 l 0.574 -1.895 c 0.625 -2.059 0.602 -2.453 -0.156 -2.664 c -1 -0.281 -2.406 2.195 -2.609 4.59 c -0.078 0.922 -0.066 0.98 0.25 0.98 c 0.188 0 0.699 -0.227 1.141 -0.504"/><path d="m 31.895 25.14 c -0.82 -0.227 -1.172 -0.676 -1.141 -1.469 c 0.039 -1.066 1.086 -2.625 2.496 -3.719 c 0.473 -0.363 0.836 -0.488 1.648 -0.555 c 1.586 -0.133 2.262 0.484 1.742 1.59 c -0.289 0.617 -0.977 0.973 -2.141 1.105 c -2.215 0.254 -2.203 0.25 -2.395 0.684 c -0.258 0.586 -0.227 1.328 0.07 1.637 c 0.363 0.375 0.941 0.484 1.934 0.363 c 1.219 -0.148 1.102 0.152 -0.145 0.379 c -1.164 0.207 -1.262 0.207 -2.07 -0.016 m 3.258 -3.797 c 0.777 -0.57 0.855 -1.66 0.117 -1.648 c -0.586 0.008 -1.348 0.551 -2.301 1.645 l -0.48 0.555 l 1.094 -0.102 c 0.734 -0.066 1.254 -0.215 1.57 -0.449"/><path d="m 37.29 33.17 c -0.613 -0.516 -1.016 -0.973 -1.02 -1.16 c 0 -0.172 0.445 -1.145 0.996 -2.156 c 0.547 -1.016 0.965 -1.879 0.926 -1.922 c -0.039 -0.039 -0.949 0.047 -2.023 0.199 c -1.07 0.148 -2.137 0.223 -2.363 0.16 c -0.496 -0.133 -1.676 -1.238 -1.508 -1.406 c 0.066 -0.066 0.324 -0.168 0.578 -0.223 c 0.391 -0.09 0.508 -0.031 0.793 0.383 c 0.477 0.688 1.035 0.789 2.969 0.543 c 0.918 -0.117 1.742 -0.242 1.836 -0.281 c 0.215 -0.082 1.719 -3.215 1.719 -3.578 c 0 -0.152 -0.254 -0.523 -0.559 -0.824 c -0.309 -0.305 -0.473 -0.551 -0.371 -0.551 c 0.273 0 1.988 1.281 2.086 1.555 c 0.047 0.129 -0.266 0.879 -0.688 1.672 c -0.426 0.789 -0.773 1.465 -0.773 1.504 c 0 0.035 0.75 -0.031 1.668 -0.148 c 1.477 -0.191 1.727 -0.188 2.168 0.039 c 0.508 0.258 0.957 1 0.738 1.215 c -0.066 0.066 -0.305 0.164 -0.527 0.219 c -0.32 0.082 -0.422 0.035 -0.5 -0.227 c -0.203 -0.691 -0.727 -0.859 -2.301 -0.75 c -0.859 0.059 -1.531 0.188 -1.637 0.309 c -0.102 0.109 -0.598 1.047 -1.102 2.078 c -1.102 2.246 -1.145 2.641 -0.375 3.555 c 0.746 0.887 0.477 0.813 -0.734 -0.203"/></svg>