<svg xmlns="http://www.w3.org/2000/svg" viewBox="0 0 48 48"><path d="m 45.2 37.613 c 20.617 -70.3 -81.25 -25.484 -30.15 5.965 c 9.391 5.75 25.328 6.152 30.15 -5.965" fill="#ad5403" fill-opacity="0.996"/><path d="m 9.707 31.27 c -1.188 -0.313 -1.359 -0.508 -1.359 -1.543 c 0 -1.352 0.301 -1.477 2.191 -0.918 c 0.781 0.23 1.758 0.301 1.797 -0.414 c 0.043 -0.688 -1.43 -0.375 -1.906 -0.484 c -1.145 -0.266 -1.98 -0.469 -2.563 -1.543 c -0.43 -0.797 -0.473 -1.051 -0.473 -2.66 c 0 -1.613 0.043 -1.867 0.473 -2.664 c 0.895 -1.652 2.512 -2.352 4.43 -1.914 c 0.555 0.125 1.48 0.207 2.059 0.184 c 0.746 -0.031 1.113 0.027 1.258 0.199 c 0.316 0.371 0.469 2.254 0.469 5.805 c 0 2.707 -0.051 3.352 -0.316 4.02 c -0.371 0.941 -1.238 1.742 -2.156 1.992 c -0.875 0.238 -2.895 0.207 -3.902 -0.059 m 2.754 -5.762 c 0.422 -0.355 0.488 -0.547 0.551 -1.605 c 0.066 -1.152 0.047 -1.223 -0.461 -1.719 c -0.289 -0.281 -0.676 -0.516 -0.855 -0.516 c -1.195 0 -1.789 2.863 -0.816 3.914 c 0.41 0.441 1 0.41 1.582 -0.078 m 9.793 2.844 c -0.527 -0.137 -1.094 -0.406 -1.262 -0.598 c -0.43 -0.496 -0.406 -1.695 0.043 -2.094 c 0.332 -0.293 0.391 -0.293 1.605 0.059 c 1.492 0.434 2.266 0.461 2.57 0.102 c 0.309 -0.359 0.113 -0.496 -1.309 -0.906 c -2.383 -0.691 -3.098 -1.453 -3 -3.195 c 0.074 -1.27 0.438 -1.832 1.527 -2.375 c 1.27 -0.633 4.555 -0.492 5.289 0.23 c 0.168 0.16 0.266 0.563 0.266 1.051 c -0.004 1.301 -0.297 1.473 -1.91 1.105 c -1.059 -0.238 -1.91 -0.199 -1.91 0.086 c 0 0.152 1.121 0.703 1.441 0.707 c 0.582 0.004 2.031 0.855 2.293 1.348 c 0.152 0.289 0.574 1.418 0.648 1.367 c 0.078 -0.043 -0.043 -1.539 0.012 -2.188 c 0.172 -1.992 1.141 -3.383 2.715 -3.898 c 0.324 -0.105 1.105 -0.191 1.734 -0.188 c 1.332 0.004 2.285 0.367 3.051 1.16 c 0.605 0.633 0.793 0.664 0.793 0.145 c 0 -0.527 0.469 -1.141 0.875 -1.141 c 0.223 0 0.754 -0.152 0.82 -0.465 c 0.387 -1.809 0.852 -2.449 3.01 -2.555 c 1.625 -0.082 1.898 0.109 1.898 1.316 c 0 0.871 -1.445 0.594 -1.531 1.359 l -0.09 0.813 l 0.906 -0.047 c 0.496 -0.023 0.953 0.316 0.547 1.066 l -0.441 0.801 l -0.719 0.223 c -0.484 0.152 -0.754 0.344 -0.824 0.594 c -0.055 0.203 -0.102 1.52 -0.105 2.922 c 0 3.098 -0.09 3.301 -1.41 3.301 c -1.586 0 -1.543 0.09 -1.543 -3.449 c 0 -3.293 -0.594 -3.734 -1.379 -3.734 c -0.355 0 0.141 0.289 0.242 0.613 c 0.234 0.723 0.305 3.258 0.113 3.961 c -0.48 1.734 -1.969 2.781 -3.957 2.781 c -1.93 0 -3.328 -0.742 -4.32 -2.293 l -0.328 -0.508 l -0.219 0.738 c -0.289 0.969 -0.492 1.188 -1.535 1.664 c -1.035 0.469 -3.047 0.52 -4.605 0.121 m 11.551 -2.773 c 0.82 -0.836 0.852 -2.836 0.055 -3.559 c -0.711 -0.648 -1.684 -0.355 -2.063 0.625 c -0.246 0.629 -0.191 2.215 0.098 2.754 c 0.441 0.836 1.195 0.91 1.91 0.18 m -16.289 2.695 c -0.277 -0.156 -0.305 -0.629 -0.305 -6.01 c 0 -6.609 -0.098 -6.188 1.441 -6.188 c 1.426 0 1.402 -0.113 1.484 6.25 c 0.082 6.395 0.145 6.133 -1.414 6.125 c -0.496 -0.004 -1.039 -0.082 -1.207 -0.18" fill="#f9cc01"/></svg>