<svg xmlns="http://www.w3.org/2000/svg" viewBox="0 0 48 48"><path d="m 31.809 46.11 c -23.891 9.313 -36.14 -16.793 -30.06 -33.04 c 4.25 -11.344 21.19 -16.996 34.883 -8.941 c 17.277 10.168 13.602 34.801 -4.824 41.984" fill="#9993d5"/><path d="m 12.59 14.523 l -0.973 16.297 c 0 0.531 0.434 0.961 0.973 0.961 h 7.797 c 0 3.355 0 3.355 -2.438 4.793 h -0.484 v 0.957 h 13.641 v -0.957 h -0.488 c -2.434 -1.438 -2.434 -1.438 -2.434 -4.793 h 7.797 c 0.539 0 0.973 -0.43 0.973 -0.961 v -15.336 c 0 -0.531 -0.434 -0.961 -0.973 -0.961" fill-opacity="0.102"/><path d="m 23.309 27.945 l -3.895 2.875 c 0 3.355 0 3.355 -2.438 4.793 l 6.332 0.48 l 6.336 -0.48 c -2.438 -1.438 -2.438 -1.438 -2.438 -4.793" fill="#cfd6d6"/><path d="m 16.488 35.613 v 0.961 h 13.645 v -0.961" fill="#e5ecec"/><path d="m 10.828 13.566 h 24.965 c 0.102 0 0.188 0.082 0.188 0.188 v 16.879 c 0 0.105 -0.086 0.188 -0.188 0.188 h -24.965 c -0.102 0 -0.188 -0.082 -0.188 -0.188 v -16.879 c 0 -0.105 0.086 -0.188 0.188 -0.188" fill="#2f2f2f"/><path d="m 12.59 15.484 h 21.441 v 13.418 h -21.441" fill="#6960ca"/><g fill="#f9f9f9"><path d="m 25.26 25.07 c 0 1.059 -0.871 1.918 -1.949 1.918 c -1.074 0 -1.945 -0.859 -1.945 -1.918 c 0 -1.059 0.871 -1.918 1.945 -1.918 c 1.078 0 1.949 0.859 1.949 1.918"/><path d="m 23.309 17.398 c -2.781 0.004 -5.43 1.465 -6.82 3.836 l 1.762 0.957 c 1.043 -1.777 2.973 -2.875 5.059 -2.875 c 2.09 0 4.02 1.102 5.059 2.875 l 1.766 -0.957 c -1.391 -2.371 -4.04 -3.836 -6.824 -3.836 m 0 2.879 c -1.738 0 -3.344 0.914 -4.211 2.398 l 1.684 0.957 c 0.523 -0.891 1.484 -1.441 2.531 -1.441 c 1.043 0 2.01 0.551 2.527 1.441 l 1.688 -0.957 c -0.871 -1.484 -2.477 -2.402 -4.215 -2.398"/></g></svg>