<svg xmlns="http://www.w3.org/2000/svg" viewBox="0 0 48 48"><path d="m 39.594 6.961 c 37.844 49.945 -66.3 57.04 -32.879 6.06 c 7.621 -11.621 22.855 -19.285 32.879 -6.06" fill="#9acd31"/><g fill="#333"><path d="m 22.418 18.5 c 0 3.195 -2.52 5.785 -5.625 5.785 c -3.105 0 -5.625 -2.59 -5.625 -5.785 c 0 -3.199 2.52 -5.789 5.625 -5.789 c 3.105 0 5.625 2.59 5.625 5.789"/><path d="m 36.668 33.16 c 0 3.195 -2.52 5.785 -5.625 5.785 c -3.105 0 -5.625 -2.59 -5.625 -5.785 c 0 -3.199 2.52 -5.789 5.625 -5.789 c 3.105 0 5.625 2.59 5.625 5.789"/></g><g fill="#fff"><path d="m 36.668 18.5 c 0 3.195 -2.52 5.785 -5.625 5.785 c -3.105 0 -5.625 -2.59 -5.625 -5.785 c 0 -3.199 2.52 -5.789 5.625 -5.789 c 3.105 0 5.625 2.59 5.625 5.789"/><path d="m 22.418 33.16 c 0 3.195 -2.52 5.785 -5.625 5.785 c -3.105 0 -5.625 -2.59 -5.625 -5.785 c 0 -3.199 2.52 -5.789 5.625 -5.789 c 3.105 0 5.625 2.59 5.625 5.789"/></g></svg>