<svg xmlns="http://www.w3.org/2000/svg" viewBox="0 0 48 48"><path d="m 24.453 47.742 c -4.949 -0.383 -10.742 -2.746 -14.781 -6.03 c -4.91 -3.996 -8.5 -10.121 -9.469 -16.16 c -1.148 -7.977 3.484 -16.551 8.715 -20.621 c 2.629 -1.98 6.109 -3.559 9.371 -4.25 c 8.496 -1.797 17.355 1.605 23.43 8.996 c 3.641 4.426 5.527 8.891 5.988 14.172 c 0.551 6.332 -1.953 13.13 -6.523 17.695 c -5.203 4.309 -10.551 6.648 -16.73 6.207" fill="#333"/><g fill="none" stroke="#fff" stroke-linejoin="round" stroke-linecap="round"><path d="m 5.578 58.38 h 21.77 m -10.795 -0.903 v -49.13 h 35.447" transform="matrix(-0.47728 0 0 0.47589 36.502 9.781)" stroke-width="3.125"/><g stroke-width="2.5"><path d="m 9.179 54.06 l 7.284 -7.289 l 6.752 6.747" transform="matrix(-0.47728 0 0 0.47589 36.416 11.75)"/><path d="m 38.692 7.818 c 5.574 7.56 0.9 13.14 0.9 13.14" transform="matrix(-0.47728 0 0 0.47589 36.674 10.04)" stroke-dasharray="2.5 2.5"/></g><g stroke-dasharray="2.5 2.5" transform="matrix(-0.47728 0 0 0.47589 36.33 11.236)"><path d="m 38.954 18.637 c -23.366 12.748 -3.487 17.08 -3.487 17.08" stroke-width="2.796"/><path d="m 37.972 35.17 c -1.621 -5.393 2.693 -12.953 3.413 -14.217 c 0.72 -1.256 -2.693 -3.234 -2.693 -3.234" stroke-width="2.5"/></g></g></svg>