<svg xmlns="http://www.w3.org/2000/svg" viewBox="0 0 48 48"><g fill="#ff0"><path d="m 25.21 19.11 c 0 0.074 0 0.148 0.004 0.223 l 0.504 -0.223"/><path d="m 36.605 11.477 c 0 0.004 0 0.008 0 0.012 l 1.219 -0.012"/></g><path d="m 23.891 47.668 c 31.984 3.602 31.543 -47.922 -0.57 -47.31 c -29.867 -1.699 -32.563 50.12 0.57 47.31" fill="#d1b38c"/><g fill="#fff"><path d="m 11.953 11.895 h 2.086 v 27.15 h -2.086"/><path d="m 8.973 11.883 h 4.922 v 2.074 h -4.922"/><path d="m 10.156 25.566 h 3.598 v 2.637 h -3.598"/><path d="m 10.344 20.852 h 3.598 v 2.637 h -3.598"/><path d="m 18.582 33.766 h 13.258 v 3.582 h -13.258"/><path d="m 13.848 16.797 h 24.434 v 17.16 h -24.434"/></g><g fill="#f4f4f4"><path d="m 24.836 20 h 10.227 v 5.09 h -10.227"/><path d="m 19.06 28.438 c -0.289 0.781 -1.156 1.184 -1.941 0.902 c -0.789 -0.285 -1.191 -1.152 -0.906 -1.934 c 0.285 -0.781 1.152 -1.188 1.938 -0.902 c 0.785 0.281 1.195 1.145 0.91 1.93"/><path d="m 19.06 24.1 c -0.289 0.781 -1.156 1.184 -1.941 0.902 c -0.789 -0.285 -1.191 -1.148 -0.906 -1.934 c 0.285 -0.781 1.152 -1.188 1.938 -0.902 c 0.785 0.281 1.195 1.145 0.91 1.93"/><path d="m 19.06 20.14 c -0.289 0.781 -1.156 1.184 -1.945 0.898 c -0.781 -0.285 -1.187 -1.148 -0.902 -1.93 c 0.281 -0.785 1.152 -1.188 1.938 -0.906 c 0.785 0.281 1.195 1.148 0.91 1.93"/><path d="m 19.531 33.578 h 1.516 v 3.203 h -1.516"/><path d="m 21.805 33.488 h 1.516 v 3.207 h -1.516"/><path d="m 24.2 33.543 h 1.516 v 3.203 h -1.516"/><path d="m 26.441 33.488 h 1.516 v 3.207 h -1.516"/><path d="m 28.426 33.488 h 1.516 v 3.207 h -1.516"/><path d="m 33.06 26.441 h 1.516 v 1.785 h -1.516"/><path d="m 30.31 26.391 h 1.516 v 1.785 h -1.516"/><path d="m 27.1 29.23 h 7.426 v 1.785 h -7.426"/><path d="m 26.03 18.984 h 0.906 v 1.023 h -0.906"/><path d="m 27.918 19.04 h 0.906 v 1.023 h -0.906"/><path d="m 29.855 18.984 h 0.902 v 1.023 h -0.902"/><path d="m 31.688 18.934 h 0.906 v 1.023 h -0.906"/><path d="m 33.523 18.934 h 0.902 v 1.023 h -0.902"/><path d="m 33.523 24.918 h 0.902 v 1.023 h -0.902"/><path d="m 31.738 24.918 h 0.906 v 1.023 h -0.906"/><path d="m 29.855 24.867 h 0.902 v 1.027 h -0.902"/><path d="m 28.02 24.867 h 0.902 v 1.027 h -0.902"/><path d="m 26.03 24.816 h 0.906 v 1.027 h -0.906"/><path d="m 21.293 26.441 h 3.809 v 3.813 h -3.809"/><path d="m 21.344 19.04 h 1.516 v 1.785 h -1.516"/><path d="m 21.293 21.824 h 1.516 v 1.785 h -1.516"/></g></svg>