<svg xmlns="http://www.w3.org/2000/svg" viewBox="0 0 48 48"><path d="m 43.902 35.32 c 12.914 -17.242 -7.75 -38.3 -24.398 -34.645 c -16.395 2.145 -26.289 27.07 -13.609 39.727 c 9.273 9.113 25.09 12.16 38.01 -5.086" fill="#efefef"/><g fill="#232323"><path d="m 13.684 28.3 c -0.125 -0.063 -0.164 -1.016 -0.164 -4.02 v -3.934 c 1.742 0.141 1.594 -0.371 1.723 1.496 c 0.055 0.773 0.113 1.422 0.129 1.438 c 0.707 0.117 1.305 0.055 2.063 0.137 l 0.035 -1.266 c 0.02 -0.754 0.152 -1.465 0.23 -1.582 c 0.191 -0.281 1.215 -0.27 1.453 0.02 c 0.422 0.512 0.387 6.953 -0.039 7.578 c -0.211 0.301 -0.965 0.305 -1.215 0.004 c -0.105 -0.125 -0.254 -0.848 -0.348 -1.598 l -0.16 -1.258 c -0.664 0.094 -1.367 -0.023 -2.01 0.148 c -0.027 0.035 -0.082 0.668 -0.125 1.41 c -0.07 1.195 -0.109 1.355 -0.355 1.434 c -0.324 0.109 -0.988 0.102 -1.215 -0.008"/><path d="m 21.09 28.25 c -0.293 -0.152 -0.293 -0.156 -0.293 -4.02 c 0.078 -3.34 -0.891 -3.871 1.789 -3.867 c 2.125 0 2.762 0.16 2.762 0.695 c 0 0.539 -0.219 0.676 -1.301 0.801 c -1.195 0.141 -1.383 0.254 -1.457 0.871 c -0.074 0.617 0.16 0.785 1.094 0.785 c 0.805 0 1.273 0.316 1.273 0.859 c 0 0.402 -0.133 0.469 -1.266 0.648 c -0.855 0.137 -1.031 0.305 -1.137 1.109 c -0.238 0.898 0.301 0.688 1.039 0.758 c 1.262 0.125 1.754 0.332 1.754 0.73 c 0 0.574 -0.363 0.695 -2.195 0.738 c -0.973 0.023 -1.902 -0.027 -2.063 -0.109"/><path d="m 26.777 28.21 c -0.16 -0.43 -0.086 -5.551 0.008 -6.715 c 0.043 -0.484 0.148 -0.898 0.262 -0.984 c 0.164 -0.125 1.285 -0.223 1.301 -0.109 c 0.004 0.02 0.055 0.73 0.109 1.574 c 0.055 0.848 0.137 1.582 0.18 1.633 c 0.137 0.168 0.336 -0.082 1.262 -1.598 c 0.598 -0.98 1.02 -1.52 1.238 -1.586 c 0.445 -0.137 1.234 0.063 1.234 0.309 c 0 0.109 -0.352 0.871 -0.785 1.688 c -0.547 1.035 -0.766 1.59 -0.715 1.82 c 0.035 0.184 0.391 0.996 0.781 1.805 c 0.844 1.73 0.938 2.031 0.703 2.227 c -0.273 0.223 -1.262 0.043 -1.566 -0.285 c -0.148 -0.16 -0.641 -0.984 -1.094 -1.832 c -0.453 -0.844 -0.883 -1.535 -0.953 -1.535 c -0.156 0 -0.242 0.625 -0.313 2.262 c -0.055 1.359 -0.141 1.516 -0.84 1.52 c -0.316 0 -0.719 0.074 -0.813 -0.191"/></g><g fill="#22aabe"><path d="m 27.17 33.531 c 4.375 -1.137 7.145 -2.16 9.117 -3.367 c 1.555 -0.949 2.465 -1.801 3.5 -3.281 l 0.809 -1.148 l 0.223 0.348 c 0.609 0.949 0.855 2.246 0.59 3.098 c -0.527 1.68 -3.711 2.926 -8.934 4.04 c -2.277 0.48 -5.176 0.867 -6.41 0.852 l -0.91 -0.012"/><path d="m 6.629 22.387 c -0.52 -0.875 -0.715 -1.766 -0.516 -2.355 c 0.371 -1.082 2.184 -2.879 4.242 -3.645 c 2.094 -0.777 5.113 -1.063 8.898 -1.563 c 1.813 -0.238 5.355 -0.625 5.629 -0.602 c 0.324 0.031 -0.773 0.332 -3.172 0.863 c -3.047 0.676 -5.309 1.332 -7.148 2.07 c -1.547 0.621 -3.711 1.824 -4.641 2.582 c -0.852 0.695 -1.949 1.996 -2.285 2.711 c -0.148 0.328 -0.352 0.594 -0.445 0.594 c -0.094 0 -0.348 -0.297 -0.563 -0.656"/></g></svg>