<svg xmlns="http://www.w3.org/2000/svg" xmlns:xlink="http://www.w3.org/1999/xlink" viewBox="0 0 48 48"><defs><g id="4" clip-path="url(#3)"><path d="m 428.28 944.11 h 0.56 v 23.25 h -0.56" transform="matrix(0.18141 0 0 0.18127 -62.895 -138.44)" stroke="#000" stroke-width="4.249"/></g><g id="7" clip-path="url(#6)"><path d="m 425.05 971.05 h 6.847 v 1.853 h -6.847" transform="matrix(0.18141 0 0 0.18127 -62.895 -138.44)" stroke="#000" stroke-width="3.145"/></g><g id="A" clip-path="url(#9)"><path d="m 428.28 944.12 h 0.56 v 23.25 h -0.56" transform="matrix(0.18141 0 0 0.18127 -44.46 -138.44)" stroke="#000" stroke-width="4.249"/></g><g id="D" clip-path="url(#C)"><path d="m 425.05 971.03 h 6.847 v 1.875 h -6.847" transform="matrix(0.18141 0 0 0.18127 -44.46 -138.44)" stroke="#000" stroke-width="3.145"/></g><g id="G" clip-path="url(#F)"><path d="m 413.4 835.36 h 132.32 v 104.3 h -132.32" transform="matrix(0.18141 0 0 0.18127 -62.895 -138.44)" fill="#fff" stroke="#000" stroke-width="4.765"/><use xlink:href="#4" mask="url(#5)"/><use xlink:href="#7" mask="url(#8)"/><use xlink:href="#A" mask="url(#B)"/><use xlink:href="#D" mask="url(#E)"/></g><g id="J" clip-path="url(#I)"><path d="m 529.92 27.44 h 176.58 v 139.19 h -176.58" transform="matrix(0.13594 0 0 0.13583 -60.16 9.242)" fill="#cadded" stroke="#56769a" stroke-width="6.359"/></g><g id="M" clip-path="url(#L)"><path d="m 533.23 30.69 h 169.95 v 9.835 h -169.95" transform="matrix(0.13594 0 0 0.13583 -60.16 9.242)" fill="#627f9f" stroke="#56769a" fill-opacity="0.859" stroke-width="0.472"/></g><clipPath id="C"><path d="M 0,0 H48 V48 H0 z"/></clipPath><clipPath id="6"><path d="M 0,0 H48 V48 H0 z"/></clipPath><clipPath id="9"><path d="M 0,0 H48 V48 H0 z"/></clipPath><clipPath id="F"><path d="M 0,0 H48 V48 H0 z"/></clipPath><clipPath id="I"><path d="M 0,0 H48 V48 H0 z"/></clipPath><clipPath id="L"><path d="M 0,0 H48 V48 H0 z"/></clipPath><clipPath id="3"><path d="M 0,0 H48 V48 H0 z"/></clipPath><filter id="1" filterUnits="objectBoundingBox" x="0" y="0" width="48" height="48"><feColorMatrix type="matrix" in="SourceGraphic" values="0 0 0 0 1 0 0 0 0 1 0 0 0 0 1 0 0 0 1 0"/></filter><mask id="K"><g filter="url(#1)"><path fill-opacity="0.702" d="M 0,0 H48 V48 H0 z"/></g></mask><mask id="2"><g filter="url(#1)"><path fill-opacity="0.2" d="M 0,0 H48 V48 H0 z"/></g></mask><mask id="B"><g filter="url(#1)"><use xlink:href="#A"/></g></mask><mask id="H"><g filter="url(#1)"><path fill-opacity="0.702" d="M 0,0 H48 V48 H0 z"/></g></mask><mask id="E"><g filter="url(#1)"><use xlink:href="#D"/></g></mask><mask id="8"><g filter="url(#1)"><use xlink:href="#7"/></g></mask><mask id="5"><g filter="url(#1)"><use xlink:href="#4"/></g></mask></defs><path d="m 47.44 29.348 c -2.977 19.508 -29.414 24.73 -41.08 10.805 c -10.273 -10.344 -7.715 -30.15 4.887 -36.938 c 14.477 -9.08 35.566 2.148 36.715 20.227 c 0.121 1.984 -0.047 3.984 -0.52 5.906" fill="#ff8c00"/><use xlink:href="#G" mask="url(#2)"/><use xlink:href="#J" mask="url(#H)"/><path d="m 428.28 944.11 h 0.56 v 23.25 h -0.56" transform="matrix(0.18141 0 0 0.18127 -63.12 -138.46)" stroke-opacity="0.702" fill="none" stroke="#56769a" stroke-width="4.249"/><path d="m 425.03 971.05 h 6.869 v 1.853 h -6.869" transform="matrix(0.18141 0 0 0.18127 -63.12 -138.46)" stroke-opacity="0.702" fill="none" stroke="#56769a" stroke-width="3.145" id="0"/><path d="m 428.29 944.11 h 0.56 v 23.25 h -0.56" transform="matrix(0.18141 0 0 0.18127 -44.689 -138.47)" stroke-opacity="0.702" fill="none" stroke="#56769a" stroke-width="4.249"/><use transform="translate(18.433 -0.008)" xlink:href="#0"/><use xlink:href="#M" mask="url(#K)"/><path d="m 12.289 14.773 h 2.176 v 16.621 h -2.176" fill="#95caeb" fill-opacity="0.702"/><path d="m 12.484 13.84 h 22.672 v 0.453 h -22.672" fill="#fff"/><g fill="#9e1413"><path d="m 19.93 26.551 l 0.609 0.629 l -1.051 0.242"/><path d="m 22.547 26.84 l 0.027 0.027 l 12.152 -9 l -1.949 -2.02 l -12.152 9 l 0.035 0.035 l -0.664 1.57 l 0.672 0.691"/></g><path d="m 21.594 15.08 c -0.316 0.289 -0.668 0.535 -0.977 0.836 c -0.254 0.227 -0.516 0.453 -0.781 0.664 c -0.27 0.207 -0.559 0.391 -0.777 0.652 c -0.199 0.289 -0.445 0.547 -0.699 0.789 c -0.215 0.254 -0.465 0.473 -0.688 0.719 c -0.152 0.242 -0.25 0.52 -0.328 0.793 c -0.066 0.277 -0.109 0.566 -0.008 0.84 c 0.094 0.258 0.176 0.426 0.445 0.504 c 0.305 0.09 0.578 0.012 0.875 -0.051 c 0.156 -0.125 0.359 -0.137 0.539 -0.199 c 0.086 -0.035 0.164 -0.086 0.254 -0.121 c 0.301 -0.098 0.629 -0.148 0.918 -0.293 c 0.301 -0.082 0.551 -0.262 0.828 -0.395 c 0.367 -0.16 0.668 0.012 0.844 0.34 c 0.102 0.32 0.016 0.641 -0.063 0.957 c -0.32 1.152 -1.594 1.125 -2.652 1.891 c -0.688 0.5 2.961 -1.66 2.207 -1.27 c -0.84 0.434 -1.641 0.934 -2.461 1.402 c 3.953 -2.289 2.383 -1.641 1.746 -0.797 c -0.215 0.301 -0.426 0.605 -0.656 0.895 c -0.301 0.32 -0.582 0.656 -0.84 1.012 c -0.199 0.266 -0.395 0.539 -0.621 0.777 c -0.152 0.199 -0.375 0.336 -0.516 0.543 c -0.055 0.223 -0.078 0.488 0.023 0.699 c 0.195 0.164 0.496 0.145 0.742 0.156 c 0.047 -0.012 0.098 -0.016 0.145 -0.035 c 0.078 -0.035 0.297 -0.195 0.219 -0.148 c -3.469 1.98 -2.785 1.703 -2.01 1.109 c 2.5 -1.422 1.68 -0.871 2.574 -1.473 c 0 0 -2.121 1.711 -2.121 1.711 c -0.898 0.41 -0.164 0.078 2.086 -1.223 c -1.043 0.516 -1.902 1.641 -3.105 1.637 c -0.344 -0.035 -0.688 -0.09 -0.902 -0.391 c -0.137 -0.277 -0.129 -0.574 -0.121 -0.879 c 0.039 -0.297 0.262 -0.465 0.48 -0.648 c 0.211 -0.254 0.457 -0.484 0.633 -0.766 c 0.281 -0.34 0.504 -0.727 0.836 -1.027 c 0.242 -0.273 0.434 -0.574 0.664 -0.852 c 0.574 -1.074 1.82 -1.434 2.871 -2 c -0.738 0.426 -2.941 1.703 -2.207 1.273 c 0.816 -0.473 1.59 -1.027 2.449 -1.414 c 0.773 -0.352 -1.461 0.863 -2.191 1.297 c -0.039 0.023 0.086 -0.039 0.121 -0.066 c 0.102 -0.078 0.105 -0.125 0.16 -0.242 c 0.059 -0.258 0.156 -0.512 0.137 -0.781 c -0.09 -0.258 -0.438 -0.07 -0.594 0.012 c -0.27 0.148 -0.551 0.27 -0.844 0.375 c -0.309 0.09 -0.621 0.18 -0.918 0.297 c -0.27 0.109 -0.547 0.199 -0.824 0.277 c -0.328 0.055 -0.656 0.051 -0.969 -0.078 c -0.293 -0.156 -0.449 -0.379 -0.559 -0.688 c -0.133 -0.324 -0.129 -0.652 -0.066 -0.992 c 0.059 -0.309 0.188 -0.59 0.285 -0.887 c 0.172 -0.297 0.461 -0.488 0.676 -0.754 c 0.227 -0.266 0.52 -0.465 0.711 -0.758 c 0.215 -0.32 0.414 -0.523 0.754 -0.719 c 0.262 -0.219 0.523 -0.434 0.789 -0.641 c 0.191 -0.176 0.098 -0.082 0.277 -0.285 c 0.215 -0.207 0.504 -0.328 0.684 -0.574 c 0 0 2.527 -1.012 2.527 -1.012" fill="#e79346" fill-opacity="0.702"/></svg>