<svg xmlns="http://www.w3.org/2000/svg" viewBox="0 0 48 48"><path d="m 38.11 4.684 c -36.09 -23.992 -58.31 52.52 -11.664 42.39 c 19.281 -4.316 30.98 -31.383 11.664 -42.39" fill="#2f4e4e"/><g fill="#f18810" stroke="#ffa400" transform="matrix(0.1875 0 0 0.1875 0 -149.32)"><path d="m 57.48 975.21 c -0.729 -2.792 -1.229 -16.04 -1.25 -32.583 c -0.042 -26.333 -0.771 -32.563 -4.188 -35.25 l -1.625 -1.271 l 3.5 -1.729 c 1.917 -0.958 3.563 -1.979 3.646 -2.271 c 0.208 -0.625 -3.417 -1.646 -5.75 -1.646 c -3.083 0.438 0.292 -1.688 1.313 -2.625 l 2.854 -2.604 l -0.042 -2.833 c -0.021 -2.063 -0.583 -4.292 -2.02 -8.06 l -1.979 -5.208 h 17.958 l 0.208 2.792 c 0.167 2.229 -0.042 3.417 -1.104 5.938 c -2.208 5.292 -2.438 5.938 -3.125 9.271 c -0.792 3.75 -0.604 5.313 0.854 6.625 c 2.396 2.188 8.938 3.188 13.188 2.02 c 1.917 -0.542 4.479 -2.792 5.646 -5 c 0.667 -1.25 0.646 -1.458 -0.083 -2.271 c -3.354 -2.042 -2.958 -3.354 -2.958 -6.04 c -0.021 -5.167 -0.813 -7.583 -3.125 -9.646 c -1.208 -1.083 -1.438 -3.688 -0.333 -3.688 c 1.5 0 3.125 -1.125 3.875 -2.688 c 0.625 -1.292 1.167 -1.688 2.646 -1.917 c 1.042 -0.167 2.458 -0.417 3.188 -0.542 c 1.542 -0.292 2.167 0.438 1.146 1.271 c -2.042 3.896 0.521 3.542 3.333 3.833 c 2.104 0.229 3.958 0.521 4.125 0.688 c 0.146 0.146 -0.313 2.333 -1.042 4.854 c -1.729 3.604 -0.083 9.25 -2.417 11.563 c -1.125 1.104 -1.333 1.646 -1.063 2.688 c 0.417 1.646 1.146 2.542 2.063 2.542 c 0.542 0 0.438 0.396 -0.417 1.583 c -1.083 3.875 -0.604 9.375 0.146 13.375 c 0.333 1.563 0.625 7.06 1.042 13.333 c 0.979 15.542 -0.104 19.271 2.229 19.604 c 1.333 0.188 1.5 2.042 0.292 3.042 c -0.938 0.771 -15.708 1.333 -15.333 0.604 c 3.25 -6.563 3.479 -8.792 1.667 -16.5 c -0.896 -3.813 -1.271 -6.813 -1.292 -10.167 c 0 -5.396 -0.958 -9.292 -2.146 -11.542 c -1.354 -2.583 -6.188 -2.688 -8.792 -1.313 c -2.396 1.271 -3.292 3.667 -3.292 11.458 c 0 16.729 -2.833 34.21 -7.312 45.21 c -0.979 2.396 -3.313 6.438 -3.708 6.438 c -0.104 0 -0.333 -0.604 -0.521 -1.333" stroke-width="0.48"/><path d="m 137.38 930.88 c -1.188 -1.813 -3.563 -2.438 -11.458 -3.063 c -6.208 -0.479 -8.146 -0.208 -10.25 1.417 c -1.479 1.313 -1.271 0.896 -1.292 -0.833 c 0 -1.021 -0.271 -2.438 -0.604 -3.167 c -0.854 -1.979 -5.396 -6.333 -7.625 -7.313 c -1.667 -1.708 -4.563 -9.979 -3.75 -14.188 c 1.542 -0.854 2.292 -1.917 2.604 -3.688 c 1.104 -6.229 9.06 -17.208 14.729 -20.292 c 2.917 -1.583 13.12 -0.229 18.375 2.417 c 1.688 0.854 1.833 1.104 2.083 3.521 c 0.479 4.5 4.25 10.563 8.167 13.146 c 1.479 -3.458 7.896 6.06 2.396 12.354 c -3.375 -0.688 -2.688 -0.875 -2.167 6.02 c 0.542 7.167 -1.25 10.667 -6.896 13.458 c -2.271 1.063 -2.917 2.354 -4.313 0.208 m -2 -10.833 c 2.375 -0.646 5.458 -3.396 6.146 -5.5 c 0.708 -3.229 -0.25 -6.688 -0.479 -9.333 c 0.542 -8.458 -4.958 -12.04 -10.125 -16.396 c -2.813 -2.438 -4.437 -2.438 -6.687 -0.063 c -4.04 4.229 -5.958 9.104 -5.938 15.13 c 0 6.229 2.125 12.375 4.958 14.375 c 3.104 2.188 8.04 2.917 12.13 1.792" stroke-width="0.474"/><path d="m 194.08 975.11 c -1.479 -3.938 -5.521 -16.938 -6.542 -21.02 c -0.521 -2.042 -1.792 -7.854 -2.833 -12.938 c -2.188 -10.521 -2.792 -12.313 -4.708 -13.938 c -1.75 -1.458 -3.375 -1.458 -4.708 -0.021 c -1.646 1.792 -2.229 4.208 -2.5 10.417 c -0.292 7.04 0.313 10.333 2.271 12.146 c 1.542 1.313 1.417 1.229 -0.417 1.854 c -2.375 0.833 -13.08 0.833 -15.979 0 c -2.375 -0.708 -2.521 -1.458 -0.292 -1.458 c 2.917 0 4.313 -1.771 2.729 -3.458 c -1.313 -1.396 -1.958 -8.604 -1.583 -17.625 c 0.271 -6.292 -0.292 -17 -1.021 -19.938 c -0.25 -0.979 -0.042 -0.875 1.563 0.729 c 7.417 6.563 5.104 -12 4.04 -15.396 c -0.458 -1.167 -1.979 -1.458 -3.271 -0.625 c -1.479 1.208 -1.125 0.292 -1.125 -1.188 c 0 -2.854 -1.583 -5.75 -4.25 -7.729 c -3.667 -2.729 -3.521 -5.375 0.396 -7.104 c 4.146 -1.854 9.792 -1.042 12.813 1.833 c 2.458 2.333 2.771 3.479 3.083 11.313 c 0.292 6.854 0.375 7.438 1.646 9.917 c 1.563 3.02 3.583 4.354 7.083 4.688 c 1.875 0.188 2.313 0.042 3.271 -1 c 2.729 -2.896 1.771 -17.1 -1.438 -21.688 c -1.396 -2.813 5.25 -1.146 4.5 -4.854 c -0.958 -2.229 2.313 -2.708 3.729 -2.604 c 2.229 0.167 4.5 2.146 5.083 2.292 l 1.021 0.25 l 0.354 29.958 c 0.5 44.21 0 66.06 -1.625 69.04 c -0.229 0.438 -0.646 -0.146 -1.271 -1.854" stroke-width="0.456"/><path d="m 121.25 950.28 c -4.02 -0.313 -8.08 -3.229 -8.354 -3.729 c -0.333 -0.604 -0.167 -2.729 0.563 -6.917 c 0.979 -5.625 1.104 -5.917 1.708 -4.313 c 1.042 2.729 2.167 3.458 7.417 4.75 c 9.167 2.25 14.396 1.333 15.792 -2.75 c 0.479 -1.417 0.75 -1.167 3.25 3.063 c 1.5 2.521 2.729 5.083 2.729 5.667 c -4.917 6.563 -17 4.667 -23.1 4.229" stroke-width="0.616"/></g></svg>