<svg xmlns="http://www.w3.org/2000/svg" viewBox="0 0 48 48"><path d="m 41.898 7.223 c 27.453 42.26 -47.531 58.61 -41.559 15.14 c 2.438 -17.727 31.05 -31.3 41.559 -15.14" fill="#10457d"/><g fill="#fff"><path d="m 7.252 0.385 c -4.232 0 -7.66 3.43 -7.66 7.66 c 0 4.235 3.428 7.664 7.66 7.664 c 4.234 0 7.664 -3.429 7.664 -7.664 c 0 -4.23 -3.43 -7.659 -7.664 -7.659 m 0 0.819 c 3.781 0 6.844 3.063 6.844 6.842 c 0 3.78 -3.063 6.843 -6.844 6.843 c -3.778 0 -6.84 -3.063 -6.84 -6.843 c 0 -3.778 3.063 -6.84 6.84 -6.84" transform="matrix(2.15806 0 0 2.24673 8.646 7.178)" fill-rule="evenodd" stroke="#fff" stroke-width="0.153"/><path d="m 22.254 12.98 c -1.973 5.684 -3.887 11.375 -5.859 17.06 c 0.129 0.039 0.254 0.02 0.379 0.027 c 0.719 -0.008 1.441 0 2.16 0 c 0.102 -0.008 0.082 -0.148 0.125 -0.211 c 0.867 -2.547 1.746 -5.074 2.613 -7.609 c 0.051 -0.156 0.109 -0.324 0.18 -0.473 c 0.445 0.008 0.891 -0.012 1.348 0 c -0.945 2.754 -1.891 5.52 -2.84 8.266 c 0.094 0.039 0.195 0.02 0.305 0.027 c 0.75 -0.008 1.5 0.012 2.25 0 c 0.852 -2.5 1.738 -5 2.586 -7.504 c 0.188 -0.508 0.195 -1.105 -0.102 -1.578 c -0.25 -0.422 -0.73 -0.641 -1.188 -0.66 c -0.633 -0.027 -1.246 0.012 -1.879 0 c 0.867 -2.555 1.754 -5.082 2.613 -7.633 c -2.68 0.289 -2.16 0.23 -2.691 0.289 m 5.609 7.293 c -0.02 0.035 -0.035 0.141 -0.051 0.184 c -1.953 5.707 -3.918 11.402 -5.887 17.11 c 2.48 0.367 0.691 0.113 2.488 0.367 c 0.852 -2.5 1.719 -4.992 2.586 -7.492 c 0.938 -0.02 1.871 -0.012 2.816 -0.027 c 0.598 -0.027 1.199 -0.406 1.395 -1.012 c 0.801 -2.324 1.59 -4.633 2.359 -6.969 c 0.129 -0.352 0.203 -0.734 0.102 -1.105 c -0.137 -0.465 -0.547 -0.824 -0.984 -0.945 c -0.391 -0.133 -0.777 -0.082 -1.172 -0.082 c -1.207 -0.008 -2.445 -0.016 -3.652 -0.027 m 2.207 1.465 c 0.059 0 0.121 0.02 0.18 0.012 c 0.344 0.008 0.691 -0.012 1.035 0 c -0.809 2.402 -1.637 4.82 -2.438 7.23 c -0.445 0.035 -0.91 0.012 -1.363 0 c 0.824 -2.387 1.633 -4.781 2.461 -7.176 c 0.016 -0.02 0.051 -0.047 0.074 -0.055 c 0.02 -0.008 0.035 -0.008 0.051 -0.008"/></g></svg>