<svg xmlns="http://www.w3.org/2000/svg" viewBox="0 0 48 48"><path d="m 9.895 43.32 c 36.09 23.992 58.31 -52.52 11.664 -42.39 c -19.281 4.316 -30.98 31.383 -11.664 42.39" fill="#d8cf88"/><g fill="#613827"><path d="m 20.84 39.06 c -0.23 -0.133 -0.805 0.102 -1.465 0.188 c -1.449 0.18 -2.16 0.063 -2.836 -1.453 c -1.055 -2.367 -0.809 -3.426 -0.176 -5.445 l 0.293 -0.945 l -1.391 -1.273 c -1.461 -1.34 -1.68 -2.656 -1.668 -4.727 c 0.004 -0.809 0.078 -1.832 0.164 -2.281 c 0.09 -0.445 0.074 -1.684 -0.023 -2.746 c -0.121 -1.258 -0.555 -2.438 -0.414 -3.793 c 0.313 -2.969 1.32 -4.344 2.473 -4.344 c 0.406 0 0.754 -0.242 1.316 -0.914 c 0.836 -0.996 1.113 -1.082 1.871 -0.586 c 0.66 0.434 0.934 0.203 1.715 -1.434 c 0.332 -0.691 0.797 -1.434 1.031 -1.648 c 0.43 -0.387 0.441 -0.387 1.277 0.07 c 0.465 0.258 0.742 0.773 0.781 0.66 c 0.035 -0.109 0.402 -0.902 0.648 -1.273 c 0.66 -0.98 1.48 -1.01 2.469 -0.078 c 0.418 0.395 0.93 0.77 1.145 0.84 c 0.57 0.18 0.473 0.535 -0.328 1.172 c -0.805 0.641 -0.914 1.238 -0.281 1.578 c 0.313 0.168 0.367 0.289 0.203 0.453 c -0.57 0.57 0.203 0.785 0.906 0.254 c 0.48 -0.367 1.313 -0.973 2.023 -0.648 c 0.426 0.195 0.508 0.918 0.406 1.313 c -0.09 0.363 0.434 0.176 0.738 0.387 c 0.492 0.348 0.711 1.09 0.289 1.438 c -0.168 0.141 -0.926 0.492 -0.926 0.73 c 0 0.242 -0.293 0.684 -0.66 0.996 l -0.664 0.563 l 1.184 0.453 c 0.863 0.332 0.359 0.945 0.129 1.313 c -0.227 0.359 0.137 0.426 0.719 1.148 c 0.363 0.453 0.297 1 0.227 1.113 c -0.07 0.113 -0.512 0.266 -0.988 0.348 c -1.172 0.191 -1.25 0.27 -0.715 0.699 c 0.457 0.371 0.457 0.375 0.055 0.816 c -0.781 0.867 -1.016 1.207 -2.098 0.512 c -1.207 -0.773 -1.867 -1.02 -3.105 0.016 c -0.609 0.508 -1.031 0.695 -1.563 0.695 c -0.402 0 -1.02 0.105 -1.371 0.23 c -0.574 0.207 -0.793 0.695 -1.992 0.105 c -1.18 -0.582 -1.469 -1.18 -2.32 -1.055 c -1.266 0.191 -2.133 0.559 -2.672 1.141 c -0.891 0.953 -0.387 3.426 0.906 4.441 c 0.73 0.574 1.234 0.535 2.316 -0.184 c 0.504 -0.336 1.156 -0.609 1.449 -0.609 c 0.398 -0.004 0.785 -0.297 1.504 -1.137 c 1.668 -1.949 3.02 -2.516 4.352 -1.824 c 0.813 0.418 1.844 1.098 1.34 2.414 l -0.543 1.418 l 0.73 -0.121 c 0.398 -0.066 0.727 -0.059 0.727 0.012 c 0 0.07 -0.293 0.434 -0.652 0.805 c -0.605 0.625 -0.637 0.719 -0.414 1.313 c 0.293 0.766 0.363 2.094 -0.293 2.094 c -0.504 0 -0.84 -1.391 -0.469 -1.621 c 0.113 -0.07 0.203 -0.359 0.203 -0.645 c 0 -0.449 -0.066 -0.5 -0.504 -0.391 c -0.395 0.098 -0.477 0.059 -0.383 -0.184 c 0.133 -0.344 -0.434 -0.438 -0.641 -0.102 c -0.066 0.109 -0.949 0.973 -1.047 0.93 c -0.758 -0.355 0.988 -1.496 1.516 -1.777 c 1.488 -0.797 1.383 -3.832 -0.133 -3.832 c -0.918 0 -2.652 0.992 -3.301 1.891 c -0.324 0.445 -0.594 0.891 -0.594 0.98 c 0 0.164 0.188 2.301 1.871 2.199 c 1.887 -0.113 0.566 1.043 -0.645 0.352 c -1.02 -0.582 -2.01 -1.27 -2.559 -0.852 c -0.219 0.164 -0.508 0.301 -0.648 0.305 c -0.445 0.012 -0.277 -0.523 0.254 -0.809 c 0.277 -0.148 0.508 -0.391 0.508 -0.539 c 0 -0.477 -0.906 -0.293 -1.793 0.359 c -1.01 0.738 -1.406 0.699 -2.781 -0.266 c -0.5 -0.355 -0.969 -0.586 -1.039 -0.516 c -0.262 0.262 1.094 1.902 2.254 2.715 c 1.484 1.039 2.027 1.805 2.566 3.602 c 0.371 1.246 0.488 1.422 1.133 1.691 c 1.492 0.625 1.707 0.043 0.309 -0.742 c -0.977 -0.547 -1.063 -1.48 -1.203 -3.039 c -0.094 -1.027 -0.051 -1.219 0.355 -1.594 c 0.434 -0.406 0.496 -0.414 1.094 -0.109 c 1.086 0.551 1.352 0.871 1.086 1.301 c -0.344 0.547 -0.074 0.676 0.633 0.309 c 0.805 -0.418 1.75 -0.852 1.492 -0.375 c -0.113 0.219 -1.059 1.328 -1.063 1.922 l 0.703 1.168 l -0.586 -0.121 c -0.426 -0.086 -1.125 -1.113 -1.125 -1.027 c -0.004 0.445 0.621 1.555 1.039 1.848 c 0.563 0.395 1.617 0.434 1.992 0.078 c 0.219 -0.207 0.242 -0.172 0.129 0.203 c -0.125 0.41 -0.07 0.457 0.543 0.457 c 0.543 0 0.758 0.125 1.043 0.609 c 0.352 0.598 0.352 0.613 -0.051 0.613 c -0.563 0 -0.945 0.734 -0.602 1.152 c 0.184 0.219 0.711 0.148 1.031 0.207 c 0.434 0.082 1.035 -0.109 0.969 -0.008 c -0.063 0.102 -0.793 0.629 -1.402 0.629 c -1.223 0 -1.641 -0.617 -1.234 -1.371 c 0.434 -0.813 0.141 -1.039 -0.895 -0.688 c -1.246 0.422 -1.512 0.773 -1.016 1.328 l 0.465 0.598 l -0.848 -0.305 c -0.52 -0.188 -0.852 0.199 -1.172 0.422 c -0.523 0.367 -0.773 0.133 -1.285 -0.164 m -0.922 -0.707 c 0.586 -0.531 0.477 -1.441 -0.293 -2.395 c -0.367 -0.461 -0.789 -1.246 -0.938 -1.75 c -0.383 -1.328 -0.758 -1.969 -1.219 -2.09 c -0.594 -0.156 -0.852 0.289 -0.977 1.648 c -0.117 1.301 0.371 3.16 1.176 4.48 c 0.379 0.625 0.484 0.676 1.145 0.57 c 0.398 -0.066 0.895 -0.273 1.105 -0.465 m 1.805 0.148 c 0 -0.254 -0.598 -0.715 -0.742 -0.57 c -0.207 0.211 0.102 0.75 0.43 0.75 c 0.172 0 0.313 -0.078 0.313 -0.18 m 0.473 -1.988 c -0.063 0.063 -0.063 0.258 0.004 0.43 c 1.414 2.055 0.988 -1.266 -0.004 -0.43 m 2.578 0.352 c 0 -0.277 -0.992 -0.824 -1.238 -0.672 c -0.113 0.07 0.473 0.566 0.535 0.672 c 0.152 0.246 0.703 0.246 0.703 0 m -3.254 -2.809 c 0.004 -0.309 0.063 -0.914 0.133 -1.34 c 0.121 -0.738 0.102 -0.777 -0.355 -0.715 c -0.297 0.043 -0.598 0.301 -0.766 0.656 c -0.242 0.512 -0.238 0.68 0.047 1.273 c 0.398 0.844 0.938 0.914 0.941 0.125 m -7.383 -6.844 c 0.145 0.367 0.152 0.367 0.227 0.012 c 0.352 -1.785 -0.512 -0.777 -0.227 -0.012 m 8.02 -4.305 c 0.68 -0.352 0.73 -0.953 0.09 -1.074 c -0.434 -0.086 -0.926 0.457 -0.926 1.023 c 0 0.449 0.063 0.453 0.836 0.051 m 1.82 -0.098 c 0.398 -0.211 0.527 -0.699 0.234 -0.879 c -0.258 -0.16 -1.129 0.605 -0.977 0.859 c 0.176 0.285 0.246 0.285 0.742 0.02 m -7.73 -1.688 c 0.934 -1.395 0.766 -1.793 -0.258 -0.625 c -1.016 1.152 -1.164 1.375 -1.172 1.754 c -0.012 0.621 0.563 0.168 1.43 -1.125 m 13.52 0.867 c 0.164 -0.266 -0.266 -0.805 -0.641 -0.805 c -0.164 0 -0.281 0.215 -0.281 0.512 c 0 0.367 0.109 0.508 0.395 0.508 c 0.219 0 0.457 -0.098 0.527 -0.215 m -2.895 -0.836 c 0.426 -0.227 0.379 -0.551 -0.129 -0.867 c -0.254 -0.16 -0.391 -0.152 -0.496 0.016 c -0.082 0.129 -0.375 0.266 -0.656 0.305 c -0.352 0.051 -0.527 0.219 -0.578 0.555 c -0.063 0.457 -0.023 0.477 0.711 0.34 c 0.426 -0.082 0.941 -0.238 1.148 -0.348 m -8.164 -0.383 c 0.98 -0.512 -0.438 -0.73 -0.535 -0.73 c -0.254 0 -1.145 1.059 -1 1.203 c 0.195 0.195 1.266 -0.332 1.535 -0.473 m -2.379 -1.348 c 0.621 -0.637 0.684 -1 0.684 -1.148 c 0 -0.316 -0.348 -1.156 -0.785 -1.156 c -0.395 0 -1.121 0.738 -1.359 1.375 c -0.203 0.551 -0.086 2.082 0.16 2.082 c 0.094 0 0.68 -0.52 1.301 -1.152 m 12.617 0.715 c 0.258 -0.242 -0.238 -0.57 -0.871 -0.574 c -0.543 -0.004 -0.84 0.566 -0.43 0.824 c 0.305 0.191 0.965 0.063 1.301 -0.25 m 1.844 -0.262 c 0.363 -0.27 0.371 -0.316 0.063 -0.629 c -0.266 -0.27 -0.418 -0.293 -0.762 -0.109 c -0.426 0.23 -0.559 0.633 -0.297 0.895 c 0.215 0.215 0.57 0.16 0.996 -0.156 m -6.262 -0.488 c 0.07 -0.172 -0.121 -0.883 -0.227 -1.094 c -0.332 -0.672 -2.492 1.305 -2.543 1.457 c -0.059 0.176 1.73 0.648 1.961 0.602 c 0.199 -0.039 0.582 -0.414 0.809 -0.965 m 4.113 -1.039 c 0 -0.273 -0.328 -0.316 -0.613 -0.313 c -1.625 0.023 -1.668 1.148 -1.602 1.25 c 0.152 0.25 2.215 -0.688 2.215 -0.938 m 1.832 -0.949 c 0 -0.129 -0.129 -0.285 -0.281 -0.348 c -0.332 -0.125 -1.211 0.809 -1.035 1.094 c 0.152 0.25 1.316 -0.41 1.316 -0.746 m -8.113 -0.313 c -0.391 -0.07 -1.01 -0.172 -1.01 0.188 c 0 0.176 0.156 1.059 0.32 1.121 c 0.578 0.223 1.711 -1.133 0.688 -1.309 m -3.531 -1.656 c -0.164 -0.164 -1.582 1.07 -1.531 1.445 c 0.152 1.133 3.01 0.125 2.328 -0.105 c -2.129 -0.512 0.48 -0.27 -0.797 -1.34 m 9.113 1.262 c 0.25 -0.406 -0.227 -0.625 -0.797 -0.363 c -0.297 0.133 -1.828 0.633 -1.516 1.082 c 0.141 0.207 2.152 -0.461 2.313 -0.719 m -12.355 -0.648 c 0.758 -0.738 -0.07 -0.984 -0.129 -1.039 c -0.188 -0.188 -1.258 0.934 -1.258 1.324 c 0 0.551 0.898 0.191 1.387 -0.285 m 9.688 -0.426 c 0 -0.156 1.109 -0.938 -0.203 -0.926 c -0.352 0 -1.578 0.938 -1.422 1.195 c 0.199 0.316 1.625 0.094 1.625 -0.27 m 4.969 -0.629 c 0.406 -0.402 0.098 -0.719 -0.699 -0.719 c -0.648 0 -0.699 0.047 -0.699 0.633 c 0 0.586 0.039 0.621 0.559 0.496 c 0.309 -0.078 0.684 -0.262 0.84 -0.41 m -8.109 -0.313 c -0.086 -0.07 -0.137 -0.203 -0.305 -0.203 c -0.168 0 -0.199 0.172 -0.309 0.203 c -1.602 0.469 -1.063 1.184 -0.316 1.406 c 0.16 0.047 1.551 -0.895 0.93 -1.406 m -3.039 -1.262 c 1.645 -1.078 -1.309 -1.215 -1.895 -0.496 c -0.074 0.09 0.52 0.941 0.586 1 c 0.156 0.16 1.121 -0.383 1.309 -0.508 m 5.652 -0.039 c 0.188 -0.527 -0.805 -0.16 -1.078 -0.16 c -0.27 0 -0.551 0.535 -0.621 0.648 c -0.074 0.117 0.133 0.203 0.496 0.203 c 0.344 0 1.066 -0.324 1.203 -0.691 m 6.133 0.289 c 0.234 -0.152 0.254 -0.277 0.078 -0.559 c -0.473 -0.758 -2.363 -0.285 -2.047 0.543 c 0.133 0.348 1.523 0.297 1.969 0.016 m -3.801 -1.566 c 0.051 -0.152 -0.738 0.125 -0.891 0.176 c -0.148 0.051 -0.309 0.211 -0.355 0.355 c -0.051 0.152 -0.027 0.531 0.891 0.535 c 1.168 0.008 0.305 -0.922 0.355 -1.066 m 2.988 -0.371 c 0.203 -0.246 0.195 -0.305 -0.063 -0.305 c -0.461 0 -2.203 0.758 -2.203 0.965 c 0 0.293 1.988 -0.328 2.266 -0.66 m -8.34 -0.711 c 0.48 -0.48 0.535 -1.016 0.102 -1.016 c -0.324 0 -1.117 0.695 -1.117 0.98 c 0 0.539 0.492 0.555 1.016 0.035 m 4.914 0.102 c 0 -0.105 -0.105 -0.215 -0.219 -0.266 c -1.547 -0.664 -2.355 1.102 -2.355 1.289 c 0 0.188 2.102 -0.496 2.355 -0.758 c 0.086 -0.09 0.219 -0.16 0.219 -0.266"/><path d="m 30.33 32.07 c -0.199 -0.238 -0.637 -2.5 -0.473 -3.277 c 0.098 -0.445 0.555 -1.762 1.176 -2.613 c 0.785 -1.078 0.742 -0.844 2.184 -1.809 c 1.633 -1.094 2.375 -1.176 2.867 -0.852 c 0.367 0.242 0.699 0.918 0.883 1.805 c 0.285 1.344 -0.078 2.313 -1.309 3.504 c -0.848 0.82 -0.859 1.184 -1.855 1.477 c -0.875 0.254 -1.438 0.246 -1.879 0.965 c -0.555 0.902 -1.23 1.242 -1.594 0.801 m 1.066 -0.621 c 0.582 -0.637 0.637 -1.324 0.156 -1.934 c -0.176 -0.219 -0.434 -0.633 -0.57 -0.918 c -0.176 -0.359 -0.281 -0.477 -0.336 -0.375 c -0.156 0.281 -0.242 2.973 -0.105 3.23 c 0.168 0.313 0.57 0.313 0.855 -0.004 m 2.813 -2.043 c 0.918 -0.633 1.805 -1.539 2.105 -2.156 c 0.254 -0.516 0.285 -0.695 0.25 -1.441 c -0.063 -1.352 -0.559 -2.047 -1.324 -1.855 c -0.148 0.039 -0.66 0.355 -1.137 0.711 c -0.477 0.352 -1.063 0.703 -1.305 0.781 c -0.238 0.078 -0.5 0.195 -0.578 0.258 c -0.539 0.426 -0.703 2.387 -0.27 3.215 c 0.52 0.988 1.289 1.156 2.258 0.488"/><path d="m 31.746 41.05 c -0.844 -0.266 -1.574 -0.547 -2.102 -1.133 c -0.648 -0.723 -0.609 -1.426 -0.746 -2.398 c -0.23 -1.605 0.195 -2.586 1.043 -3.242 c 0.621 -0.48 1.113 -0.508 1.727 -0.105 c 0.488 0.32 4.098 3.297 3.828 3.98 c -0.074 0.191 -1.441 -0.777 -2.617 -1.922 c -0.953 -0.93 -1.227 -1.691 -1.609 -1.781 c -0.715 -0.176 -1.176 0.078 -1.578 0.867 c -0.285 0.563 -0.313 0.73 -0.266 1.773 c 0.078 1.813 0.602 2.613 2.113 3.23 c 1.141 0.469 2.402 0.191 3.18 -0.699 c 0.289 -0.328 0.438 -2.145 0.723 -1.586 c 0.543 1.051 -0.215 2.398 -1.027 2.75 c -0.922 0.395 -1.754 0.547 -2.668 0.262"/><path d="m 37.34 17.02 c -0.066 -0.09 0.039 -0.328 0.238 -0.551 c 0.242 -0.266 0.363 -0.594 0.379 -1.016 c 0.023 -0.539 0.109 -0.695 0.629 -1.133 c 0.684 -0.57 1.895 -1.148 2.086 -0.992 c 0.07 0.059 0.117 0.625 0.109 1.262 c -0.012 0.926 0.277 1.047 0.031 1.328 c -0.582 0.652 -3.176 1.496 -3.473 1.102 m 2.758 -1.602 c 0.512 -0.945 0.074 -1.258 -0.965 -0.684 c -0.293 0.164 -0.559 0.398 -0.59 0.527 c -0.074 0.316 0.418 0.727 0.871 0.727 c 0.297 0 0.445 -0.125 0.684 -0.57"/><path d="m 33.21 34.07 c -0.496 -0.273 -0.234 -1.066 0.465 -1.406 c 0.805 -0.395 2.559 -0.137 2.777 0.41 c 0.277 0.676 -2.355 1.484 -3.242 0.996 m 1.563 -0.547 c 0.297 -0.23 0.09 -0.387 -0.512 -0.387 c -0.629 0 -0.965 0.258 -0.688 0.523 c 0.191 0.188 0.891 0.105 1.199 -0.137"/><path d="m 33.82 26.758 c 0.004 0.254 -0.082 0.488 -0.223 0.617 c -0.145 0.129 -0.32 0.129 -0.465 0 c -0.141 -0.129 -0.227 -0.363 -0.223 -0.617 c -0.004 -0.254 0.082 -0.488 0.223 -0.617 c 0.145 -0.129 0.32 -0.129 0.465 0 c 0.141 0.129 0.227 0.363 0.223 0.617"/><path d="m 33.926 38.84 c -0.035 0.141 -0.203 0.23 -0.43 0.238 c -0.227 0.004 -0.484 -0.074 -0.668 -0.211 c -0.184 -0.137 -0.266 -0.305 -0.215 -0.441 c 0.039 -0.141 0.203 -0.234 0.43 -0.238 c 0.23 -0.008 0.484 0.074 0.668 0.207 c 0.184 0.137 0.266 0.309 0.215 0.445"/><path d="m 25.281 25.855 c 0.004 0.168 -0.125 0.324 -0.34 0.41 c -0.219 0.086 -0.484 0.086 -0.699 0 c -0.219 -0.086 -0.348 -0.242 -0.34 -0.41 c -0.008 -0.168 0.121 -0.324 0.34 -0.41 c 0.215 -0.082 0.48 -0.082 0.699 0 c 0.215 0.086 0.344 0.242 0.34 0.41"/><path d="m 19.469 37.742 c 0.004 0.18 -0.125 0.348 -0.34 0.438 c -0.219 0.09 -0.484 0.09 -0.699 0 c -0.219 -0.09 -0.348 -0.258 -0.34 -0.438 c -0.008 -0.176 0.121 -0.344 0.34 -0.434 c 0.215 -0.09 0.48 -0.09 0.699 0 c 0.215 0.09 0.344 0.258 0.34 0.434"/><path d="m 23.289 28.613 c 0.004 0.25 -0.078 0.484 -0.215 0.609 c -0.141 0.129 -0.309 0.129 -0.449 0 c -0.137 -0.125 -0.219 -0.359 -0.215 -0.609 c -0.004 -0.25 0.078 -0.484 0.215 -0.613 c 0.141 -0.125 0.309 -0.125 0.449 0 c 0.137 0.129 0.219 0.363 0.215 0.613"/></g></svg>