<svg xmlns="http://www.w3.org/2000/svg" viewBox="0 0 48 48"><path d="m 36.78 42.99 c -17.85 15.84 -45.3 -9.14 -34.2 -30.1 c 11.23 -21.1 48.4 -15.51 45.2 10.46 c -0.94 7.73 -5.19 14.43 -11 19.59" style="fill:#2f2f2f"/><path d="m 14.95 38.6 c -0.05 -0.09 2.03 -2.84 2.54 -3.35 c 0.23 -0.23 0.26 -0.23 1.21 0.14 c 1.87 0.73 3 0.93 5.25 0.93 c 2.24 0 3.35 -0.19 5.23 -0.92 c 0.54 -0.21 1.03 -0.35 1.09 -0.3 c 0.25 0.15 2.75 3.4 2.69 3.5 c -0.08 0.13 -17.95 0.14 -18 0.01 m 6.53 -3.91 c -5 -1 -8.96 -4.8 -10.2 -9.8 c -0.22 -0.89 -0.28 -1.5 -0.28 -2.96 c -0.01 -2.42 0.35 -3.91 1.4 -5.97 c 3.97 -7.7 14.1 -9.45 20.48 -3.52 c 1.2 1.11 2 2.22 2.78 3.84 c 1.61 3.63 1.66 7.39 0.32 10.63 c -1.68 4 -5.33 6.96 -9.66 7.79 c -1.18 0.23 -3.7 0.22 -4.85 -0.01 m 4.86 -5.59 c 1.14 -0.39 1.91 -0.85 2.82 -1.7 c 1.37 -1.29 2.11 -2.77 2.35 -4.64 c 0.17 -1.41 -0.2 -3.6 -0.69 -4 c -0.14 -0.12 -0.29 -0.07 -0.7 0.26 c -0.68 0.54 -1.63 0.89 -2.41 0.89 c -2.17 0 -3.98 -2.11 -3.56 -4.15 c 0.07 -0.34 0.16 -0.81 0.21 -1.05 l 0.08 -0.43 l -1 0.07 c -3.3 0.23 -6 2.56 -6.87 5.81 c -0.3 1.2 -0.19 3.2 0.25 4.36 c 0.81 2.12 2.52 3.81 4.62 4.56 c 1.52 0.54 3.36 0.55 4.91 0.04" style="fill:#fff"/><path d="m 30.57 15.9 c 0 1.4 -1.16 2.54 -2.58 2.54 c -1.43 0 -2.59 -1.14 -2.59 -2.54 c 0 -1.4 1.16 -2.54 2.59 -2.54 c 1.43 0 2.59 1.14 2.58 2.54" style="fill:#fa1b1c"/></svg>