<svg xmlns="http://www.w3.org/2000/svg" viewBox="0 0 48 48"><path d="m 40.738 9.1 c 29.82 42.03 -47.734 55.4 -40.04 10.746 c 4.074 -17.762 28.09 -27.582 40.04 -10.746" fill="#ffd600"/><path d="m 22.809 41.652 c -1.621 -0.531 -3.01 -1.746 -3.656 -3.203 c -0.387 -0.871 -0.523 -0.918 -1.516 -0.504 c -0.938 0.391 -2.684 0.387 -3.883 -0.012 c -1.352 -0.445 -2.727 -1.813 -3.188 -3.164 c -0.41 -1.199 -0.414 -2.891 -0.012 -3.852 c 0.426 -1.016 0.375 -1.172 -0.477 -1.543 c -1.164 -0.504 -2.23 -1.527 -2.797 -2.68 c -0.422 -0.855 -0.504 -1.258 -0.5 -2.383 c 0.012 -2.246 1.125 -4.04 3.086 -4.965 c 0.539 -0.254 0.98 -0.5 0.98 -0.551 c 0 -0.051 -0.172 -0.598 -0.383 -1.215 c -1.477 -4.336 2.688 -8.469 7.05 -6.996 c 0.629 0.211 1.215 0.34 1.301 0.285 c 0.086 -0.051 0.207 -0.32 0.266 -0.594 c 0.184 -0.832 1.391 -2.219 2.43 -2.801 c 1.113 -0.621 3.03 -0.848 4.297 -0.508 c 1.566 0.422 3.289 2.01 3.625 3.348 c 0.164 0.652 0.473 0.742 1.352 0.391 c 0.434 -0.172 1.258 -0.289 2.055 -0.289 c 3.113 0 5.398 2.289 5.391 5.395 c -0.004 0.711 -0.125 1.539 -0.285 1.918 c -0.414 0.992 -0.363 1.121 0.629 1.547 c 1.23 0.527 2.617 2.047 2.984 3.273 c 0.824 2.773 -0.367 5.523 -2.922 6.727 c -0.875 0.41 -0.992 0.523 -0.883 0.863 c 0.539 1.695 0.648 2.297 0.57 3.133 c -0.25 2.68 -2.301 4.73 -5.03 5.02 c -0.891 0.098 -1.43 0.004 -3.176 -0.547 c -0.336 -0.105 -0.445 -0.004 -0.75 0.684 c -0.496 1.113 -1.563 2.234 -2.652 2.789 c -0.98 0.496 -3.02 0.719 -3.906 0.43 m 2.203 -16.559 c 0.492 -0.441 0.422 -1.227 -0.145 -1.672 c -1.199 -0.734 -1.898 0.273 -1.941 1.01 c 0 0.91 1.379 1.301 2.086 0.664" fill="#7fbca5"/><path d="m 18.477 35.848 c -0.039 -0.941 -0.074 -2.613 -0.074 -3.719 v -2.01 h 0.352 c 0.527 0 1.621 -0.637 2.414 -1.402 c 0.891 -0.855 1.418 -1.75 1.418 -2.395 l 0.004 -0.473 l 0.348 0.121 c 0.531 0.188 2.086 0.063 2.363 -0.188 c 0.227 -0.203 0.227 -0.199 0.227 0.328 c 0 1.102 1.078 2.617 2.418 3.406 c 0.516 0.301 0.926 0.441 1.598 0.543 c 0.348 0.059 0.082 1.742 0.043 3.551 c -0.066 3.18 -0.121 3.828 -0.332 3.828 c -0.051 0 -1.254 -1.105 -2.676 -2.461 l -2.578 -2.457 l -2.598 2.516 c -1.43 1.383 -2.656 2.516 -2.723 2.516 c -0.086 0 -0.152 -0.563 -0.203 -1.707" fill="#625696"/><g fill="#3e3c38"><path d="m 23.723 31.406 c -0.586 -1.152 -0.625 -3.078 -0.09 -4.246 c 0.297 -0.641 0.32 -0.66 0.48 -0.449 c 0.531 0.723 0.703 2.895 0.328 4.18 c -0.273 0.949 -0.438 1.066 -0.719 0.516"/><path d="m 18.707 29.723 c -0.293 -0.289 0.293 -1.414 1.199 -2.316 c 0.727 -0.719 1.551 -1.227 2.207 -1.367 c 0.438 -0.121 0.383 -0.074 0.316 0.336 c -0.035 0.227 -0.227 0.66 -0.418 0.961 c -0.809 1.25 -2.914 2.773 -3.305 2.387"/></g><path d="m 12.434 19.16 c 0.941 -0.039 2.621 -0.07 3.73 -0.07 h 2.02 v 0.332 c 0 0.496 0.637 1.523 1.406 2.27 c 0.863 0.832 1.758 1.328 2.406 1.332 h 0.473 l -0.121 0.328 c -0.184 0.5 -0.063 1.961 0.188 2.223 c 0.207 0.211 0.203 0.215 -0.324 0.215 c -1.109 0 -2.633 1.012 -3.426 2.27 c -0.301 0.484 -0.441 0.871 -0.547 1.504 c -0.059 0.324 -1.75 0.074 -3.563 0.039 c -3.195 -0.063 -3.844 -0.117 -3.844 -0.313 c 0 -0.051 1.109 -1.18 2.469 -2.516 l 2.469 -2.426 l -2.527 -2.438 c -1.387 -1.344 -2.523 -2.496 -2.523 -2.563 c 0 -0.078 0.563 -0.141 1.715 -0.188" fill="#b80000"/><g fill="#3e3c38"><path d="m 17.418 25.03 c -0.996 -0.309 -0.996 -0.684 0 -1.027 c 1.07 -0.371 3.68 -0.191 4.273 0.289 c 0.316 0.215 0.23 0.215 -0.059 0.402 c -0.172 0.113 -0.574 0.27 -0.891 0.352 c -0.738 0.191 -2.695 0.184 -3.324 -0.016"/><path d="m 21.449 22.699 c -0.758 -0.371 -2.285 -1.93 -2.531 -2.574 c -0.262 -0.695 -0.176 -0.926 0.309 -0.828 c 1.137 0.227 3.348 2.473 3.352 3.402 c 0 0.34 -0.441 0.34 -1.129 0"/></g><path d="m 18.531 12.879 c -0.039 0.938 -0.074 2.609 -0.074 3.715 v 2.01 h 0.352 c 0.527 0 1.621 0.633 2.418 1.402 c 0.887 0.855 1.414 1.75 1.418 2.391 v 0.477 l 0.348 -0.121 c 0.535 -0.188 2.086 -0.063 2.363 0.188 c 0.227 0.203 0.23 0.199 0.23 -0.328 c 0 -1.102 1.074 -2.621 2.418 -3.406 c 0.516 -0.305 0.922 -0.445 1.598 -0.547 c 0.344 -0.059 0.078 -1.742 0.043 -3.547 c -0.07 -3.18 -0.125 -3.828 -0.332 -3.828 c -0.055 0 -1.258 1.105 -2.676 2.457 l -2.582 2.461 l -2.598 -2.516 c -1.426 -1.383 -2.652 -2.516 -2.723 -2.516 c -0.086 0 -0.152 0.563 -0.203 1.707" fill="#df6900"/><g fill="#3e3c38"><path d="m 23.867 22.12 c -0.672 -1.02 -0.66 -3.578 0.02 -4.637 c 0.23 -0.359 0.324 -0.32 0.531 0.223 c 0.469 1.227 0.48 3.066 0.023 4.156 c -0.227 0.535 -0.352 0.59 -0.574 0.258"/><path d="m 25.832 22.684 c 0 -0.367 0.727 -1.578 1.285 -2.133 c 0.648 -0.645 1.676 -1.281 2.066 -1.285 c 0.723 -0.004 -0.164 1.578 -1.516 2.707 c -0.926 0.773 -1.836 1.125 -1.836 0.711"/></g><path d="m 35.781 19.12 c -0.961 -0.039 -2.676 -0.07 -3.809 -0.07 h -2.059 v 0.332 c 0 0.496 -0.652 1.527 -1.438 2.277 c -0.879 0.84 -1.793 1.34 -2.453 1.34 h -0.484 l 0.121 0.328 c 0.191 0.508 0.066 1.973 -0.191 2.234 c -0.207 0.211 -0.203 0.215 0.336 0.215 c 1.129 0 2.684 1.016 3.492 2.281 c 0.309 0.488 0.453 0.875 0.559 1.512 c 0.059 0.324 1.785 0.074 3.637 0.039 c 3.262 -0.066 3.926 -0.117 3.926 -0.316 c 0 -0.047 -1.137 -1.184 -2.523 -2.523 l -2.52 -2.438 l 2.578 -2.449 c 1.418 -1.352 2.578 -2.508 2.578 -2.574 c 0 -0.078 -0.578 -0.141 -1.75 -0.188" fill="#80ad2f"/><g fill="#3e3c38"><path d="m 27.574 25.21 c -0.602 -0.105 -1.359 -0.445 -1.438 -0.648 c -0.176 -0.453 1.551 -0.898 3.047 -0.781 c 0.891 0.066 2.184 0.438 2.184 0.621 c 0 0.523 -2.449 1.047 -3.793 0.809"/><path d="m 29.469 29.723 c 0.289 -0.289 -0.293 -1.414 -1.203 -2.316 c -0.727 -0.719 -1.547 -1.227 -2.207 -1.367 c -0.434 -0.121 -0.383 -0.074 -0.316 0.336 c 0.039 0.227 0.227 0.66 0.422 0.961 c 0.805 1.25 2.914 2.773 3.305 2.387"/></g></svg>