<svg xmlns="http://www.w3.org/2000/svg" viewBox="0 0 48 48"><path d="m 36.36 5.961 c 42.508 39.516 -45.23 64.41 -35.551 11.953 c 4.773 -13.84 21.902 -24.641 35.551 -11.953" fill="#00bfff"/><path d="m 16.582 21.691 c -1.063 0 -1.922 0.801 -1.922 1.785 c 0 0.152 0.023 0.313 0.07 0.473 c 0.07 0.246 0.031 0.508 -0.109 0.727 c -0.141 0.219 -0.375 0.375 -0.641 0.43 c -1.68 0.348 -2.902 1.766 -2.902 3.367 c 0 1.906 1.664 3.453 3.711 3.453 h 17.805 c 0.047 -0.012 0.094 -0.02 0.145 -0.027 c 1.098 -0.129 2.082 -0.742 2.629 -1.641 c 0.016 -0.027 0.035 -0.055 0.055 -0.078 c 0.379 -0.504 0.578 -1.094 0.578 -1.707 c 0 -1.289 -0.887 -2.426 -2.207 -2.82 c -0.031 -0.012 -0.063 -0.02 -0.09 -0.035 c -0.449 -0.18 -0.922 -0.273 -1.41 -0.273 l -0.004 0.004 c -0.016 0 -0.031 0 -0.051 0 c -0.004 0 -0.008 0 -0.012 0 c -0.281 0 -0.547 -0.109 -0.738 -0.297 c -0.191 -0.195 -0.289 -0.453 -0.262 -0.719 c 0.016 -0.176 0.023 -0.316 0.023 -0.449 c 0 -2.957 -2.586 -5.359 -5.766 -5.359 c -2.527 0 -4.738 1.508 -5.496 3.75 c -0.117 0.344 -0.438 0.598 -0.82 0.645 c -0.387 0.051 -0.766 -0.113 -0.98 -0.414 c -0.355 -0.508 -0.957 -0.813 -1.609 -0.813 m 16.285 12.1 h -18.07 c -3.152 0 -5.719 -2.387 -5.719 -5.32 c 0 -1.215 0.453 -2.406 1.277 -3.352 c 0.613 -0.699 1.41 -1.246 2.305 -1.582 c 0 -0.02 0 -0.043 0 -0.063 c 0 -2.02 1.762 -3.656 3.926 -3.656 c 0.758 0 1.484 0.203 2.102 0.566 c 1.344 -2.277 3.922 -3.734 6.805 -3.734 c 4.168 0 7.578 3.066 7.766 6.902 c 0.414 0.066 0.816 0.18 1.207 0.332 c 2.129 0.66 3.551 2.496 3.551 4.586 c 0 0.988 -0.316 1.934 -0.918 2.746 c -0.816 1.309 -2.223 2.223 -3.809 2.492 c -0.129 0.055 -0.27 0.082 -0.418 0.082" fill="#fff"/></svg>