<svg xmlns="http://www.w3.org/2000/svg" viewBox="0 0 48 48"><path d="m 8.406 41.04 c -37.84 -49.945 66.3 -57.04 32.879 -6.06 c -7.621 11.625 -22.855 19.285 -32.879 6.06" fill="#f3cfcf"/><path d="m 17.551 38.523 c -0.883 -0.266 -4.01 -3.77 -4.01 -4.5 c -2.156 -3.223 -2.773 -7.773 -3.742 -10.73 c -0.465 -1.949 -0.695 -3.93 -1.066 -5.848 c -0.406 -2.129 -0.605 -4.676 -0.43 -5.395 c 0.156 -0.637 0.48 -0.594 0.805 0.109 c 0.379 2.289 0.738 5.395 1.426 7.141 c 0.883 1.93 1.551 5.578 2.895 7.227 c 1.969 3.238 3.68 6.375 7.406 6.453 c 2.738 0.031 5.914 -2.855 7.512 -5.09 c 1.461 -2.148 3.465 -4.516 4.332 -6.68 c 0.18 -0.477 0.652 -0.957 0.949 -0.957 c 1.387 1.156 2.32 2.438 3.73 3.75 c 0.727 0.664 1.047 1.102 1.051 1.43 c -2.973 6.547 -9.863 11.918 -14.06 13.566 c -2.91 1.523 -4.668 0.773 -6.793 -0.477 m 0 -10.02 c -0.938 -0.727 -2.531 -2.605 -2.906 -3.422 c -0.816 -0.813 -3.574 -7.25 -3.16 -7.484 c 0.133 0.027 1.609 2.48 1.953 3.066 c 0.859 1.453 2.984 3.813 3.77 4.184 c 0.785 0.414 1.609 0.883 2.449 0.969 c 1.363 0.078 1.668 0.121 3.01 -0.996 c 0.563 0 4.559 -4.41 4.559 -5.03 c 0.59 -0.719 0.875 -2.199 1.707 -2.477 c 0.324 0 2.242 2 2.242 2.34 c -0.496 1.578 -1.66 2.996 -2.426 4.25 c -1.621 2.078 -3.57 4.617 -6.125 5.316 c -1.902 0.352 -3.594 0.41 -5.07 -0.715" fill="#cf2e2e"/></svg>