<svg xmlns="http://www.w3.org/2000/svg" viewBox="0 0 48 48"><path d="m 47.16 32.21 c 8.336 -67.891 -87.51 -8.691 -26.19 14.13 c 10.77 3.453 24.477 0.324 26.19 -14.12" fill="#f4f4f4"/><path d="m 28.973 35.559 c -1.828 -0.297 -4.141 -1.207 -5.426 -2.141 c -1.301 -0.945 -1.52 -1.176 -2.285 -2.422 c -0.734 -1.199 -1.109 -2.223 -1.246 -3.426 l -0.086 -0.777 l -13.453 -0.078 l -0.59 -0.539 c -0.445 -0.41 -0.586 -0.652 -0.586 -0.988 c 0 -0.652 0.391 -1.191 1.098 -1.516 c 0.582 -0.266 1.109 -0.285 8.559 -0.293 c 5.762 -0.008 8.07 -0.059 8.434 -0.191 l 0.496 -0.18 l 0.07 -2.828 c 0.078 -3.18 0.133 -3.363 1.207 -4.02 c 0.297 -0.18 0.641 -0.551 0.762 -0.824 c 0.121 -0.273 0.438 -0.656 0.703 -0.844 c 0.477 -0.344 0.512 -0.348 5.281 -0.348 h 4.805 l 0.617 0.66 l 0.617 0.664 v 3.785 c 0 2.848 0.043 3.828 0.176 3.941 c 0.098 0.086 0.52 0.281 0.938 0.438 c 0.949 0.352 1.922 1.246 2.148 1.973 c 0.105 0.344 0.141 1.051 0.098 1.887 c -0.102 1.891 -0.715 3.254 -2.152 4.77 c -0.84 0.887 -1.328 1.25 -2.504 1.863 c -1.969 1.027 -3.289 1.375 -5.488 1.445 c -0.969 0.031 -1.957 0.023 -2.191 -0.016 m 3.387 -1.137 c 2.855 -0.57 4.688 -1.449 6.086 -2.918 c 0.918 -0.961 1.625 -2.266 1.836 -3.383 c 0.109 -0.582 -0.004 -0.613 -0.746 -0.211 c -3.68 1.977 -13.531 2.043 -17.602 0.117 c -0.902 -0.43 -0.918 -0.41 -0.594 0.762 c 0.418 1.504 1.566 2.93 3.281 4.066 c 0.77 0.512 3.219 1.43 3.859 1.445 c 0.27 0.004 0.621 0.07 0.777 0.141 c 0.41 0.191 2.109 0.18 3.102 -0.02 m -1.68 -1.125 c -0.277 -0.301 -0.285 -0.879 -0.02 -1.117 c 0.355 -0.316 0.98 -0.133 1.129 0.328 c 0.246 0.75 -0.59 1.344 -1.109 0.789 m -3.238 -0.191 c -0.324 -0.387 -0.293 -0.875 0.082 -1.152 c 0.172 -0.129 0.363 -0.238 0.422 -0.238 c 0.191 0 0.676 0.598 0.676 0.836 c 0 0.281 -0.5 0.832 -0.754 0.832 c -0.105 0 -0.297 -0.125 -0.426 -0.277 m 6.691 -0.027 c -0.156 -0.164 -0.281 -0.402 -0.281 -0.527 c 0 -0.238 0.484 -0.836 0.676 -0.836 c 0.281 0 0.738 0.508 0.738 0.82 c 0 0.359 -0.395 0.848 -0.684 0.848 c -0.09 0 -0.293 -0.137 -0.449 -0.305 m -9.887 -1.125 c -0.293 -0.379 -0.125 -1.047 0.309 -1.207 c 0.699 -0.266 1.254 0.629 0.734 1.188 c -0.277 0.297 -0.82 0.309 -1.043 0.02 m 8.332 -0.586 c -0.195 -0.105 -0.375 -0.348 -0.398 -0.539 c -0.055 -0.402 0.332 -0.93 0.684 -0.93 c 0.129 0 0.348 0.133 0.48 0.289 c 0.531 0.629 -0.07 1.547 -0.766 1.18 m -3.305 -0.336 c -0.496 -0.531 -0.008 -1.41 0.684 -1.223 c 0.402 0.109 0.629 0.746 0.402 1.137 c -0.195 0.332 -0.809 0.383 -1.086 0.086 m 6.16 0.051 c -0.25 -0.27 -0.207 -0.797 0.09 -1.082 c 0.336 -0.328 0.629 -0.32 0.922 0.023 c 0.465 0.555 0.203 1.238 -0.473 1.238 c -0.203 0 -0.445 -0.082 -0.539 -0.18 m -9.281 -0.27 c -0.348 -0.41 -0.188 -1.027 0.301 -1.16 c 0.492 -0.133 0.813 0.102 0.871 0.633 c 0.082 0.75 -0.691 1.098 -1.172 0.527 m 11.738 -0.695 c -0.125 -0.133 -0.223 -0.367 -0.223 -0.52 c 0 -0.156 0.098 -0.391 0.223 -0.52 c 0.445 -0.48 1.191 -0.121 1.191 0.574 c 0 0.664 -0.738 0.953 -1.191 0.465 m -15.703 -0.223 c -0.543 -0.641 0.246 -1.605 0.906 -1.113 c 0.352 0.266 0.391 0.848 0.074 1.184 c -0.301 0.324 -0.672 0.297 -0.98 -0.07 m 10.391 -1.652 c 0 -0.078 -0.063 -0.184 -0.141 -0.238 c -0.078 -0.051 -0.141 -0.223 -0.141 -0.387 c 0 -0.25 -0.102 -0.293 -0.711 -0.293 c -0.387 0 -0.828 0.082 -0.977 0.18 c -0.211 0.141 -0.355 0.141 -0.641 0 c -0.203 -0.098 -0.746 -0.18 -1.207 -0.18 c -0.676 0 -0.863 0.055 -0.98 0.285 c -0.227 0.457 -0.676 0.488 -1.129 0.082 c -0.223 -0.203 -0.563 -0.367 -0.75 -0.367 c -0.418 0 -1.176 -0.527 -1.563 -1.086 c -0.156 -0.227 -0.313 -0.746 -0.352 -1.176 c -0.086 -0.957 -0.258 -0.98 -1.695 -0.242 c -0.914 0.469 -1.023 0.57 -1.023 0.957 c 0 1.523 3.563 2.535 9.08 2.586 c 1.313 0.012 2.227 -0.039 2.227 -0.121 m -10.176 -1.828 c -0.328 -0.348 -0.355 -0.602 -0.105 -0.934 c 0.32 -0.43 0.664 -0.445 1.031 -0.055 c 0.363 0.391 0.348 0.758 -0.055 1.102 c -0.309 0.27 -0.547 0.238 -0.871 -0.113 m 13.05 1.656 c 2.113 -0.336 4.461 -1.289 4.68 -1.898 c 0.102 -0.293 -0.223 -0.887 -0.602 -1.109 c -0.145 -0.082 -0.59 -0.285 -0.984 -0.453 l -0.719 -0.305 l -0.609 0.516 c -0.672 0.57 -0.863 0.77 -1.633 1.715 c -0.406 0.496 -0.664 0.672 -1.094 0.742 c -0.598 0.098 -0.773 0.254 -0.777 0.691 c 0 0.316 0.289 0.332 1.738 0.102 m 2.195 -1.543 c -0.402 -0.344 -0.418 -0.711 -0.055 -1.102 c 0.363 -0.391 0.711 -0.375 1.031 0.055 c 0.25 0.332 0.219 0.586 -0.105 0.934 c -0.328 0.352 -0.563 0.383 -0.871 0.113 m -28.469 -1.16 c 0.387 -0.164 0.398 -0.191 0.176 -0.43 c -0.488 -0.52 -2.875 -0.359 -2.797 0.191 c 0.066 0.473 1.723 0.621 2.621 0.238 m 11.05 -0.086 c 0.516 -0.84 0.504 -0.844 -4.707 -0.797 l -4.773 0.039 l -0.047 0.566 l -0.043 0.57 h 9.34 m 6.297 -1.598 c 0.543 -0.535 1.09 -0.977 1.215 -0.977 c 0.125 0 0.609 0.266 1.078 0.59 c 1.582 1.094 1.277 1.168 3.07 -0.73 c 0.875 -0.922 1.703 -1.68 1.84 -1.68 c 0.141 0 0.504 0.309 0.813 0.684 c 0.914 1.109 0.961 1.027 0.961 -1.711 c 0 -1.914 -0.043 -2.453 -0.223 -2.723 c -0.219 -0.34 -0.223 -0.34 -4.938 -0.34 c -4.715 0 -4.719 0 -4.938 0.34 c -0.188 0.281 -0.223 0.914 -0.223 3.836 c 0 3.219 0.035 3.715 0.273 3.695 c 0.043 -0.004 0.527 -0.449 1.07 -0.984 m 1.027 -2.578 c -0.813 -0.473 -0.926 -1.512 -0.234 -2.203 c 0.668 -0.668 1.543 -0.527 2.01 0.316 c 0.348 0.637 0.289 1.035 -0.246 1.609 c -0.523 0.563 -0.922 0.633 -1.531 0.277 m 9.387 2.559 c 0.238 -0.23 0.258 -0.566 0.258 -4.211 c 0 -3.18 -0.039 -4.02 -0.199 -4.254 c -0.191 -0.277 -0.438 -0.297 -4.801 -0.336 c -4.496 -0.043 -4.609 -0.039 -4.895 0.27 c -0.16 0.172 -0.254 0.379 -0.211 0.461 c 0.055 0.086 1.676 0.145 4.094 0.145 h 4.01 l 0.438 0.398 c 0.816 0.734 0.855 0.938 0.855 4.516 c 0 1.797 0.043 3.266 0.094 3.266 c 0.055 0 0.211 -0.113 0.355 -0.254"/></svg>