<svg xmlns="http://www.w3.org/2000/svg" viewBox="0 0 48 48"><path d="m 8.4 6.96 c -37.84 49.95 66.3 57 32.89 6.1 c -7.62 -11.62 -22.86 -19.29 -32.89 -6.1" style="fill:#ff8c00"/><path d="m 19.24 35.3 c -1.86 -0.33 -5.59 1.69 -6.43 1.34 c -0.34 -0.14 -0.47 -0.49 -0.38 -0.98 c 0.08 -0.39 0.88 -1.62 1.3 -1.99 c 1.21 -1.73 3.21 -1.81 4.22 -2.86 c 0.49 -2.32 -2.43 -4.99 -4.13 -6.12 c -0.5 -0.32 -0.67 -0.72 -0.46 -1.1 c 0.07 -0.13 0.2 -0.38 0.29 -0.54 c 0.22 -0.41 0.77 -0.84 3.09 -2.47 c 0.41 -0.29 0.89 -0.67 1.05 -0.85 c 0.3 -0.32 0.3 -0.33 0.27 -1.61 c -0.11 -2.15 -1.25 -2.87 -3 -2.5 c -0.91 0.2 -1.43 0.09 -1.54 -0.33 c -0.06 -0.27 0.04 -0.56 0.54 -1.45 c 0.16 -0.29 1.19 -1.12 1.39 -1.12 c 1.04 -0.46 1.97 -0.56 2.7 -0.56 c 1.63 0.08 2.18 0.37 3.25 1.3 c 0.51 0.45 1.24 1.41 1.4 1.84 c 0.12 0.32 0.56 0.47 0.89 0.3 c 1.77 -0.98 3.33 -2.29 4.52 -3.05 c 0.24 -0.15 0.49 -0.27 0.55 -0.27 c 1.33 1 2.13 2.75 3.06 4 c 0.42 0.59 0.77 1.19 1.21 1.77 c 0.48 0.63 0.5 0.86 0.19 1.66 c -0.7 1.17 -3.2 2.45 -3.25 3.16 c 0 0.05 0.25 0.32 0.55 0.61 c 1.73 1.46 2.88 3.66 3.36 5.2 c 0.64 1.2 0.64 2.52 1.5 3.55 c 0.13 0.14 0.33 0.21 0.65 0.21 c 0.89 0 1.05 0.27 0.71 1.21 c -0.75 1.27 -1.85 2.76 -3.31 3.38 c -0.46 0.18 -0.48 0.18 -1.06 -0.12 c -1.3 -2.5 -2.28 -5 -3.67 -7.39 c -0.36 -0.58 -1.67 -1.93 -2.24 -2.3 c -0.66 -0.42 -0.94 -0.47 -1.2 -0.2 c -0.21 0.21 -0.22 0.35 -0.22 1.99 c 0 1.72 0 1.76 0.27 2.09 c 0.93 0.67 1.95 1.43 2.93 1.17 c 0.48 -0.13 0.38 -0.34 0.58 -0.16 c 0.05 0.28 0.22 0.91 0.13 1.35 c -0.1 0.52 -0.44 1.09 -1.87 2.53 c -1.24 1.25 -1.3 1.3 -1.75 1.3 c -2.12 -0.71 -3.91 -1.98 -6.09 -2 m 6.78 -12.1 c 0.87 -0.55 2.15 -1.48 2.38 -1.73 c 0.18 -0.2 0.18 -0.27 0.07 -0.53 c -0.33 -0.76 -2.25 -3.46 -2.57 -3.63 c -0.32 -0.16 -0.53 -0.08 -0.66 0.26 c -0.14 0.37 -0.13 5.5 0.01 5.77 c 0.06 0.12 0.13 0.21 0.16 0.21 c 0.03 0 0.3 -0.16 0.61 -0.35" style="fill:#fccd00"/><path d="m 24.1 37.3 c -1.46 -0.97 -3.41 -1.58 -5 -1.58 c -1.67 0 -3.13 0.32 -5.61 1.26 c -0.54 0.2 -0.69 0.22 -0.95 0.11 c -0.18 -0.07 -0.34 -0.25 -0.38 -0.4 c -0.09 -0.37 0.04 -1 0.23 -1.17 c 0.3 -0.04 0.12 0.41 0.46 0.48 c 1 -0.08 2.57 -0.71 3.43 -1.12 c 0.3 -0.16 2.62 -0.42 3.41 -0.39 c 1.04 -0.07 2 0.37 2.94 0.57 c 0.35 0 1.71 0.73 2.4 1.29 c 0.35 0.29 0.71 0.52 0.79 0.52 c 0.08 0 0.57 -0.47 1.11 -1.04 c 1.62 -1.75 1.65 -1.94 1.81 -1.94 c 0.43 0 -0.01 0.9 -1.65 2.55 c -1.27 1.28 -1.33 1.32 -1.79 1.32 c -0.37 0 -0.63 -0.11 -1.18 -0.47 m 8.31 0.06 c -0.61 -0.31 -1.19 -1.01 -1.63 -1.96 c -0.65 -1.4 -1.14 -2.7 -1.17 -3.13 c -0.04 -0.55 -0.5 -1.77 -0.9 -2.45 c -0.41 -0.68 -1.98 -2.22 -2.58 -2.52 c -0.43 -0.22 -0.57 -0.25 -0.79 -0.14 c -0.14 0.07 -0.27 0.19 -0.27 0.27 c -0.02 0.28 -0.32 -0.88 -0.32 -1.21 c 0 -0.19 0.06 -0.4 0.13 -0.48 c 0.68 -0.32 1.14 0.07 1.73 0.26 c 0.7 0.23 1.93 1.36 2.66 2.42 c 0.43 0.64 0.84 1.52 0.84 1.84 c 0.43 1.36 0.92 2.69 1.31 3.96 c 0 0.25 0.99 1.68 1.34 1.93 c 0.43 0.31 1.11 0.38 1.31 0.13 c 0.64 -0.63 1.29 -1.07 1.97 -1.72 c 0.2 -0.23 0.67 -1.22 0.89 -1.37 c 0.12 -0.11 -0.04 0.85 -0.11 1.08 c -0.13 0.45 -0.3 0.65 -1.55 1.84 c -1.04 0.99 -1.79 1.53 -2.16 1.54 c -0.06 0 -0.37 -0.13 -0.69 -0.29 m -9.77 -6.36 c 0.06 -4.35 -0.36 -9.9 0.05 -13.68 c 0.15 -0.21 0.64 -0.21 0.83 -0.02 c 0.18 0.19 0.2 0.58 0.2 6.94 c 0 5.54 -0.02 6.77 -0.15 6.92 c -0.2 0.24 -0.78 0.1 -0.92 -0.16 m -4.77 0.21 c 0 -0.02 -0.02 -0.31 -0.05 -0.65 c -0.09 -1.3 -0.84 -2.63 -2.29 -4.07 c -0.74 -0.74 -0.95 -0.91 -2 -1.59 c -0.54 -0.35 -0.69 -0.76 -0.45 -1.2 c 0.18 -0.33 0.35 -0.33 1.07 0.02 c 0.98 0.47 2.29 1.66 3.39 3.08 c 0.52 0.57 0.58 1.41 0.91 2.02 c 0.19 0.28 0.33 1.38 0.23 1.83 c -0.14 0.41 -0.5 0.55 -0.83 0.55 m -1.36 -9.1 c 0.07 -0.44 1.91 -1.44 2.1 -1.2 c 0.15 0.21 0.2 1.89 0.07 2.38 c -0.58 0.3 -2.17 -0.71 -2.17 -1.18 m 12.94 0.67 c -0.21 -0.18 -0.23 -0.24 -0.12 -0.45 c 0.87 -0.67 1.82 -1.55 2.64 -2.05 c 0.07 0 0.3 -0.11 0.52 -0.25 c 0.45 -0.29 0.78 -0.34 0.78 -0.14 c 0 0.35 -0.6 0.96 -1.8 1.82 c -0.72 0.52 -1.35 1.02 -1.4 1.11 c -0.12 0.22 -0.33 0.21 -0.63 -0.04 m -0.91 -1.43 c -0.52 -1.25 -1.66 -3.25 -2.69 -4.08 c -0.3 -0.16 -0.65 -0.02 -0.66 0.28 c -0.02 0.33 -0.31 -0.45 -0.31 -0.84 c -0.01 -0.48 0.61 -1.05 1.14 -1.05 c 0.34 0 0.43 0.08 1.06 0.98 c 0.85 1.16 1.59 2.41 2.44 3.57 c 0.29 0.39 0.21 0.82 -0.19 1.04 c -0.46 0.25 -0.86 0.3 -0.78 0.09 m -10.71 -3.09 c 0 -1.61 -0.07 -1.79 -0.95 -2.4 c -0.57 -0.4 -1.17 -0.48 -2.09 -0.27 c -1.33 0.29 -1.86 -0.09 -1.45 -1.05 c 0.18 -0.43 0.19 -0.43 0.39 -0.22 c 0.25 0.26 0.28 0.26 1.42 0.04 c 0.55 -0.11 1.1 -0.15 1.4 -0.11 c 0.61 0.09 1.36 0.61 1.8 1.23 l 0.33 0.46 c 0 1.07 0 2.15 0 3.23 c -0.24 0.19 -0.49 0.38 -0.76 0.5 c -0.08 0.01 -0.12 -0.46 -0.12 -1.41" style="fill:#f84000"/></svg>