<svg xmlns="http://www.w3.org/2000/svg" viewBox="0 0 48 48"><path d="m 2 19.488 c 4.781 -32.01 53.945 -21.07 44.648 9.898 c -6.238 29.434 -56.56 21.461 -44.648 -9.898" fill="#00263c"/><g fill="#fff"><path d="m 11.688 28.754 c -0.203 -0.031 -0.406 -0.121 -0.457 -0.199 c -0.137 -0.215 -0.113 -9.918 0.023 -10.137 c 0.086 -0.137 0.406 -0.199 1.199 -0.227 c 1.406 -0.055 5.16 0.172 5.586 0.336 c 0.52 0.199 1.301 0.98 1.453 1.457 c 0.207 0.633 0.168 1.59 -0.078 1.996 c -0.117 0.191 -0.441 0.586 -0.715 0.883 l -0.5 0.531 l 0.305 0.246 c 0.625 0.5 1 0.648 1.168 0.469 c 0.082 -0.094 0.605 -1.375 1.16 -2.848 c 0.555 -1.473 1.055 -2.75 1.109 -2.84 c 0.113 -0.184 2.176 -0.336 2.852 -0.207 c 0.32 0.063 0.453 0.172 0.574 0.484 c 0.539 1.371 3.316 8.934 3.441 9.371 c 0.082 0.293 0.117 0.586 0.074 0.652 c -0.094 0.156 -2.031 0.16 -2.434 0.008 c -0.215 -0.086 -0.383 -0.332 -0.59 -0.875 l -0.289 -0.754 l -1.965 0.035 l -1.969 0.031 l -0.355 0.762 c -0.359 0.762 -0.359 0.762 -0.984 0.836 c -0.691 0.086 -8.03 0.074 -8.609 -0.012 m 5.04 -2.516 c 0.391 -0.371 0.402 -0.938 0.031 -1.395 c -0.238 -0.293 -0.391 -0.348 -1.195 -0.414 c -0.555 -0.047 -1.059 -0.023 -1.262 0.055 c -0.32 0.129 -0.336 0.172 -0.336 1 c 0 1.086 0.082 1.148 1.441 1.09 c 0.859 -0.035 1.059 -0.086 1.32 -0.336 m 7.555 -1.32 c 0.383 -0.078 0.395 -0.102 0.34 -0.59 c -0.066 -0.613 -0.836 -2.586 -1.027 -2.648 c -0.203 -0.066 -1.152 2.418 -1.152 3.01 c 0 0.258 1.051 0.383 1.84 0.227 m -7.984 -2.621 c 0.379 -0.191 0.438 -0.281 0.469 -0.742 c 0.031 -0.43 -0.02 -0.586 -0.273 -0.844 c -0.297 -0.297 -0.379 -0.316 -1.391 -0.281 l -1.074 0.035 l -0.039 0.859 c -0.02 0.469 -0.008 0.93 0.027 1.023 c 0.098 0.258 1.742 0.223 2.281 -0.051"/><path d="m 33.35 28.691 c -0.109 -0.086 -0.652 -0.953 -1.211 -1.926 c -0.555 -0.973 -1.063 -1.805 -1.129 -1.848 c -0.258 -0.16 -0.336 0.207 -0.418 1.973 c -0.047 1.01 -0.129 1.828 -0.184 1.828 c -0.125 0 -0.809 -1.805 -2.293 -6.082 c -1.484 -4.262 -1.488 -4.285 -1.109 -4.387 c 0.43 -0.117 4.441 -0.09 5.641 0.035 c 1.594 0.172 2.043 0.344 2.75 1.059 c 0.703 0.711 0.918 1.27 0.918 2.379 c 0 0.961 -0.48 1.84 -1.305 2.391 c -0.316 0.211 -0.617 0.387 -0.668 0.387 c -0.301 0 -0.105 0.547 0.746 2.082 c 0.531 0.953 0.98 1.84 1 1.969 c 0.035 0.211 -0.066 0.234 -1.254 0.266 c -0.91 0.027 -1.348 -0.012 -1.488 -0.125 m -0.137 -6.133 c 0.418 -0.461 0.379 -1.199 -0.082 -1.668 c -0.34 -0.344 -0.414 -0.363 -1.402 -0.363 h -1.047 l -0.082 0.672 c -0.047 0.367 -0.047 0.898 0 1.172 c 0.074 0.445 0.125 0.508 0.473 0.551 c 0.215 0.027 0.723 0.027 1.129 -0.004 c 0.586 -0.043 0.793 -0.117 1.012 -0.359"/></g></svg>