<svg xmlns="http://www.w3.org/2000/svg" xmlns:xlink="http://www.w3.org/1999/xlink" viewBox="0 0 48 48"><defs><g id="B" clip-path="url(#A)"><path d="m 94.88 131.48 c 37.3 0 37.36 -70.42 73.58 -70.42" transform="matrix(0.1151 0 0 0.10789 8.603 10.267)" fill="none" stroke="url(#0)" stroke-width="7.272"/><path d="m 94.88 131.88 c 36.686 0 37.03 70.997 73.58 70.997" transform="matrix(0.1151 0 0 0.10789 8.603 10.267)" fill="none" stroke="url(#0)" stroke-width="7.272"/><path d="m 13.457 20.68 h 4.219 c 1.059 0 1.918 0.859 1.918 1.918 v 3.715 c 0 1.059 -0.859 1.918 -1.918 1.918 h -4.219 c -1.059 0 -1.918 -0.859 -1.918 -1.918 v -3.715 c 0 -1.059 0.859 -1.918 1.918 -1.918" fill="url(#1)" fill-rule="evenodd"/><path d="m 13.457 20.68 h 4.219 c 1.059 0 1.918 0.859 1.918 1.918 v 3.715 c 0 1.059 -0.859 1.918 -1.918 1.918 h -4.219 c -1.059 0 -1.918 -0.859 -1.918 -1.918 v -3.715 c 0 -1.059 0.859 -1.918 1.918 -1.918" fill="url(#2)" fill-rule="evenodd"/><path d="m 33.3 89.18 h 36.976 c 9.313 0 16.855 8.01 16.855 17.943 v 34.738 c 0 9.936 -7.541 17.943 -16.855 17.943 h -36.976 c -9.313 0 -16.855 -8.01 -16.855 -17.943 v -34.738 c 0 -9.936 7.541 -17.943 16.855 -17.943" transform="matrix(0.1124 0 0 0.10537 9.746 11.338)" fill="none" stroke="url(#3)" stroke-linejoin="round" stroke-linecap="round" stroke-width="2.048"/><path d="m 29.801 28.34 h 4.219 c 1.059 0 1.918 0.859 1.918 1.918 v 3.715 c 0 1.059 -0.859 1.918 -1.918 1.918 h -4.219 c -1.059 0 -1.918 -0.859 -1.918 -1.918 v -3.715 c 0 -1.059 0.859 -1.918 1.918 -1.918" fill="url(#4)" fill-rule="evenodd"/><path d="m 29.801 28.34 h 4.219 c 1.059 0 1.918 0.859 1.918 1.918 v 3.715 c 0 1.059 -0.859 1.918 -1.918 1.918 h -4.219 c -1.059 0 -1.918 -0.859 -1.918 -1.918 v -3.715 c 0 -1.059 0.859 -1.918 1.918 -1.918" fill="url(#5)" fill-rule="evenodd"/><path d="m 29.801 13.02 h 4.219 c 1.059 0 1.918 0.859 1.918 1.918 v 3.715 c 0 1.059 -0.859 1.918 -1.918 1.918 h -4.219 c -1.059 0 -1.918 -0.859 -1.918 -1.918 v -3.715 c 0 -1.059 0.859 -1.918 1.918 -1.918" fill="url(#6)" fill-rule="evenodd"/><path d="m 29.801 13.02 h 4.219 c 1.059 0 1.918 0.859 1.918 1.918 v 3.715 c 0 1.059 -0.859 1.918 -1.918 1.918 h -4.219 c -1.059 0 -1.918 -0.859 -1.918 -1.918 v -3.715 c 0 -1.059 0.859 -1.918 1.918 -1.918" fill="url(#7)" fill-rule="evenodd"/><path d="m 178.7 16.44 h 36.976 c 9.313 0 16.855 8.04 16.855 17.981 v 34.738 c 0 9.936 -7.541 17.943 -16.855 17.943 h -36.976 c -9.313 0 -16.855 -8.01 -16.855 -17.943 v -34.738 c 0 -9.936 7.541 -17.981 16.855 -17.981" transform="matrix(0.1124 0 0 0.10537 9.746 11.338)" fill="none" stroke="url(#8)" stroke-linejoin="round" stroke-linecap="round" stroke-width="2.048"/><path d="m 178.7 161.88 h 36.976 c 9.313 0 16.855 8.01 16.855 17.943 v 34.738 c 0 9.936 -7.541 17.943 -16.855 17.943 h -36.976 c -9.313 0 -16.855 -8.01 -16.855 -17.943 v -34.738 c 0 -9.936 7.541 -17.943 16.855 -17.943" transform="matrix(0.1124 0 0 0.10537 9.746 11.338)" fill="none" stroke="url(#9)" stroke-linejoin="round" stroke-linecap="round" stroke-width="2.048"/></g><clipPath id="A"><path d="M 0,0 H48 V48 H0 z"/></clipPath><linearGradient id="7" gradientUnits="userSpaceOnUse" y1="15.432" x2="0" y2="88.14" gradientTransform="matrix(0.1124 0 0 0.10537 9.746 11.338)" xlink:href="#2"/><linearGradient id="8" gradientUnits="userSpaceOnUse" x1="181.04" y1="15.951" x2="190.63" y2="87.62" xlink:href="#3"/><linearGradient id="9" gradientUnits="userSpaceOnUse" x1="181.04" y1="161.36" x2="190.63" y2="233.02" xlink:href="#3"/><linearGradient id="6" gradientUnits="userSpaceOnUse" y1="15.432" x2="0" y2="88.14" gradientTransform="matrix(0.1124 0 0 0.10537 9.746 11.338)" xlink:href="#1"/><linearGradient id="5" gradientUnits="userSpaceOnUse" y1="160.84" x2="0" y2="233.55" gradientTransform="matrix(0.1124 0 0 0.10537 9.746 11.338)" xlink:href="#2"/><linearGradient id="1" gradientUnits="userSpaceOnUse" y1="88.14" x2="0" y2="160.85" gradientTransform="matrix(0.1124 0 0 0.10537 9.746 11.338)"><stop stop-color="#5acc6a"/><stop offset="0.5" stop-color="#219d33"/><stop offset="1" stop-color="#196f26"/></linearGradient><linearGradient id="0" gradientUnits="userSpaceOnUse" x1="93.87" x2="169.44"><stop stop-color="#28ab3b"/><stop offset="0.5" stop-color="#0fa122"/><stop offset="1" stop-color="#62d973"/></linearGradient><linearGradient id="2" gradientUnits="userSpaceOnUse" y1="88.14" x2="0" y2="160.85" gradientTransform="matrix(0.1124 0 0 0.10537 9.746 11.338)"><stop stop-color="#5acc6a" stop-opacity="0.502"/><stop offset="0.5" stop-color="#219d33" stop-opacity="0.502"/><stop offset="1" stop-color="#196f26" stop-opacity="0.502"/></linearGradient><linearGradient id="4" gradientUnits="userSpaceOnUse" y1="160.84" x2="0" y2="233.55" gradientTransform="matrix(0.1124 0 0 0.10537 9.746 11.338)" xlink:href="#1"/><linearGradient id="3" gradientUnits="userSpaceOnUse" x1="35.634" y1="88.66" x2="45.22" y2="160.32"><stop stop-color="#76e89c"/><stop offset="1" stop-color="#00551b"/></linearGradient></defs><path d="m 47.16 32.711 c 8.34 -67.62 -87.5 -11.57 -26.19 13.266 c 10.773 3.809 22.895 0.5 26.19 -13.266" fill="#1f8c2e"/><path d="m 45.38 32.03 c 7.652 -62.34 -80.37 -10.668 -24.05 12.227 c 9.891 3.512 21.02 0.465 24.05 -12.227" fill="#000411"/><use xlink:href="#B"/></svg>