<svg xmlns="http://www.w3.org/2000/svg" viewBox="0 0 48 48"><path d="m 24.453 47.742 c -4.949 -0.383 -10.742 -2.746 -14.781 -6.03 c -4.91 -3.996 -8.5 -10.121 -9.469 -16.16 c -1.148 -7.977 3.484 -16.551 8.715 -20.621 c 2.629 -1.98 6.109 -3.559 9.371 -4.25 c 8.496 -1.797 17.355 1.605 23.43 8.996 c 3.641 4.426 5.527 8.891 5.988 14.172 c 0.551 6.332 -1.953 13.13 -6.523 17.695 c -5.203 4.309 -10.551 6.648 -16.73 6.207" fill="#ffeddd"/><g fill="#383634"><path d="m 29.16 43.719 c 0.176 -0.18 0.629 -0.363 0.762 -0.191 c 0 0.043 -0.723 1.254 -0.828 1.254 c -0.102 0 -1.047 -0.039 0.066 -1.063 m 0.938 -0.551 c 0 -0.211 0.125 -0.375 0.281 -0.375 c 0.156 0 0.457 0.457 0.457 0.664 c 0 0.211 -0.098 0.949 -0.254 0.949 c -0.156 0 -0.484 -1.031 -0.484 -1.238 m -1.438 -0.109 c -0.164 -0.426 0.609 -1.172 0.906 -0.875 c 0.168 0.172 0.172 0.336 0.008 0.695 c -0.242 0.535 -1.734 1.094 -1.91 0.645 m 4.48 0.352 c -0.336 -0.371 -1.43 -1.297 -1.164 -1.297 c 0.207 0 0.805 -1.266 0.621 -1.379 c -0.074 -0.043 -0.313 0.125 -0.535 0.379 c -0.539 0.625 -0.48 0.816 -1.086 0.098 c -0.461 -0.547 -1.031 -0.918 -0.91 -1.871 c 0.07 -0.574 0.355 -1.25 0.406 -1.578 c 0.059 -0.383 -0.258 -0.461 -1.02 -0.199 c -0.332 0.117 -0.645 -0.09 -1.266 -0.023 c -1.336 0.137 -5.797 -0.152 -7.125 -0.461 c -3.477 -0.773 -5.23 -1.938 -7.383 -4.32 c -2.02 -2.25 -3.266 -4.555 -3.586 -6.621 c -0.223 -1.43 -0.082 -1.809 0.672 -1.809 c 0.594 0 0.738 0.313 0.273 0.602 c -0.273 0.172 -0.379 0.438 -0.379 0.941 c 0 0.641 0.047 0.707 0.496 0.707 c 0.48 0 0.941 -0.141 0.629 0.207 c -0.309 0.344 -0.766 0.531 -0.395 0.898 c 0.234 0.234 0.336 0.508 0.266 0.699 c -0.102 0.262 0.27 -0.094 0.688 -0.195 c 0.527 -0.133 0.383 0.563 -0.016 0.957 c -0.195 0.344 0.199 0.543 0.207 0.93 c 0 0.43 0.457 -0.121 0.98 -0.238 c 0.543 -0.117 0.152 0.48 -0.07 0.836 c -0.203 0.328 -0.176 0.43 0.223 0.762 c 0.254 0.211 0.961 0.18 1.074 0.184 c 0.117 0.004 -0.141 0.547 -0.074 0.961 c 0.117 0.723 0.5 1 0.773 0.563 c 0.203 -0.332 0.727 -0.375 0.625 0.02 c -0.145 0.551 0.156 1.316 0.711 1.176 c 0.316 -0.078 0.598 -0.285 0.598 -0.086 c 0 0.152 0.016 0.578 0.223 0.633 c 0.949 0.875 1.297 0.168 1.313 0.566 c 0 0.133 0.113 0.398 0.25 0.59 c 0.246 0.332 0.27 -0.125 0.648 -0.504 c 0.391 -0.395 0.395 0.063 0.512 0.441 c 0.383 0.664 1.09 0.078 1.648 0.508 c 0.23 0.195 0.465 -0.313 0.793 -0.512 c 0.363 -0.219 0.34 0.313 0.594 0.684 c 0.395 0.582 0.785 0.527 1.02 -0.141 c 0.238 -0.684 0.379 -0.699 0.832 -0.094 c 0.195 0.258 0.453 0.469 0.578 0.469 c 0.293 0 0.492 -0.652 0.344 -1.125 c -0.07 -0.219 -0.035 -0.375 0.086 -0.375 c 0.215 0 0.277 0.129 0.465 0.984 c 0.117 0.543 0.48 0.719 0.48 0.234 c 0.363 -0.73 0.352 1.172 0.844 -0.223 c 0.18 -0.543 0.211 -0.559 0.609 -0.293 c 0.23 0.156 0.422 0.406 0.422 0.563 c 0 0.23 0.051 0.238 0.289 0.039 c 0.195 -0.164 0.25 -0.406 0.172 -0.766 c -0.195 -0.887 0.063 -0.941 1.066 -0.238 c 1.059 0.746 1.527 0.664 1.133 -0.199 c -0.207 -0.457 -0.133 -1.039 0.137 -1.039 c 0.07 0 0.492 0.176 0.934 0.387 c 0.441 0.215 0.852 0.34 0.914 0.281 c 0.059 -0.063 -0.027 -0.395 -0.195 -0.746 c -0.477 -0.996 0.027 -1.246 0.535 -0.266 c 0.27 0.004 1.434 0.25 1.492 0.105 c 0.09 -0.238 -0.047 -0.504 -0.473 -0.91 c -0.676 -0.645 -0.633 -0.934 0.074 -0.473 c 0.703 0.461 1.184 0.383 1.504 -0.234 c 0.305 -0.59 0.203 -0.773 -0.691 -1.23 c -0.375 -0.191 -0.414 -0.609 -0.051 -0.531 c 0.105 0.023 0.414 0.098 0.688 0.16 c 0.664 0.121 0.566 -0.441 1.016 -0.668 c 0.461 0 0.293 -0.32 -0.297 -0.563 c -0.738 -0.309 -0.715 -0.578 0.047 -0.516 c 0.539 0.039 0.617 -0.016 0.668 -0.457 c 0.043 -0.355 -0.055 -0.563 -0.328 -0.711 c -0.641 -0.344 -0.449 -0.582 0.363 -0.449 c 0.715 0.113 1.031 -0.109 0.563 -0.398 c -0.102 -0.063 -0.188 -0.328 -0.188 -0.59 c 0 -0.324 -0.125 -0.508 -0.383 -0.578 c -0.496 -0.129 -0.355 -0.523 0.184 -0.504 c 0.332 0.012 0.395 -0.063 0.313 -0.375 c -0.059 -0.215 -0.109 -0.496 -0.109 -0.625 c 0 -0.141 -0.258 -0.234 -0.648 -0.234 c -0.355 0 -0.695 -0.086 -0.762 -0.188 c -0.137 -0.223 0.672 -0.563 1.328 -0.563 c 0.512 0 0.551 -0.145 0.238 -0.836 c -0.238 -0.523 -0.359 -0.555 -1.191 -0.316 c -0.656 0.184 -1.031 0.094 -1.031 -0.25 c 0 -0.27 0.406 -0.473 0.934 -0.473 c 0.211 0 0.371 -0.176 0.426 -0.473 c 0.117 -0.613 -0.121 -0.746 -0.816 -0.457 c -0.406 0.168 -0.617 0.176 -0.766 0.027 c -0.148 -0.145 -0.016 -0.316 0.477 -0.605 c 0.715 -0.422 0.887 -0.742 0.402 -0.742 c -0.152 0 -0.281 -0.086 -0.281 -0.188 c 0 -0.227 -0.875 -0.254 -1.012 -0.031 c -0.184 0.301 -1.355 0.113 -1.883 -0.301 c -0.289 -0.23 -0.707 -0.418 -0.926 -0.418 c -0.582 0 -3.117 0.551 -3.512 0.762 c -0.184 0.098 -1.848 0.688 -3.691 1.305 c -3.09 1.035 -4.539 1.344 -4.539 0.973 c 0 -0.082 -0.23 -0.426 -0.516 -0.762 c -0.375 -0.449 -0.605 -0.582 -0.855 -0.484 c -0.262 0.102 -0.313 0.25 -0.223 0.625 c 0.164 0.664 1.219 1.734 1.594 1.613 c 0.164 -0.051 0.91 -0.113 1.66 -0.137 c 0.832 -0.023 1.441 -0.133 1.563 -0.281 c 0.254 -0.305 0.516 -0.301 0.891 0.012 c 0.324 0.273 3.199 0.215 3.199 -0.066 c 0 -0.086 -0.293 -0.25 -0.656 -0.371 c -0.844 -0.277 -0.871 -0.746 -0.047 -0.758 c 0.336 -0.004 1.176 -0.117 1.863 -0.25 c 0.688 -0.133 1.371 -0.176 1.516 -0.094 c 0.145 0.078 0.676 0.023 1.18 -0.129 c 1.328 -0.402 1.422 -0.316 1.395 1.273 c -0.035 2.059 0.234 3.988 0.613 4.406 c 0.383 0.426 0.434 1.176 0.078 1.176 c -0.301 0 -1.066 -0.781 -1.066 -1.09 c 0 -0.309 -1.711 -0.289 -2.141 0.023 c -0.316 0.23 -0.305 0.266 0.16 0.57 c 0.27 0.18 0.57 0.277 0.66 0.219 c 0.094 -0.059 0.219 -0.023 0.281 0.07 c 0.059 0.098 -0.441 0.754 -1.113 1.457 c -0.672 0.703 -1.219 1.34 -1.219 1.41 c -0.004 0.277 0.523 0.426 1.871 0.52 c 1.082 0.078 2.422 0.727 2.422 0.941 c 0 0.207 -1.277 -0.266 -2.051 -0.223 c -0.867 0.047 -1.148 -0.023 -1.688 -0.418 c -0.359 -0.262 -0.926 -0.617 -1.262 -0.793 c -0.723 -0.379 -0.762 -0.578 -0.164 -0.805 c 0.371 -0.141 0.68 -0.535 0.68 -0.867 c 0 -0.27 -0.957 -0.02 -1.125 0.297 c -0.109 0.207 -0.332 0.375 -0.496 0.375 c -0.234 0 -0.273 -0.129 -0.18 -0.594 c 0.063 -0.324 0.211 -0.703 0.328 -0.844 c 0.277 -0.336 0.996 -0.32 1.285 0.031 c 0.129 0.152 0.289 0.281 0.359 0.281 c 0.18 0 0.586 -1.152 0.469 -1.34 c -0.055 -0.09 -0.512 -0.16 -1.02 -0.16 c -0.555 0 -1.207 -0.148 -1.637 -0.375 c -0.883 -0.461 -2.484 -0.715 -2.484 -0.395 c 0 0.121 -0.367 0.375 -0.816 0.57 c -0.449 0.191 -0.883 0.504 -0.965 0.695 c -0.086 0.191 -0.207 1.422 -0.273 2.738 c -0.137 2.699 -0.395 3.313 -1.484 3.535 c -0.773 0.156 -0.91 0.305 -0.574 0.609 c 0.504 0.461 2.273 1.102 2.477 0.898 c 0.297 -0.301 0.004 -0.84 -0.379 -0.691 c -0.531 0.207 -0.648 0.207 -0.734 -0.02 c 0.219 -0.465 0.852 -0.441 1.063 -0.891 c 0 -0.152 0.34 -0.668 0.75 -1.145 c 0.414 -0.477 0.75 -0.941 0.75 -1.027 c 0 -0.09 0.059 -0.316 0.129 -0.504 c 0.117 -0.324 0.102 -0.324 -0.285 0.012 c -0.523 0.461 -0.703 0.273 -0.414 -0.43 c 0.211 -0.602 -0.059 -1.313 0.461 -1.516 c 0.406 -0.152 0.473 -0.281 0.434 -0.891 c -0.039 -0.664 -0.004 -0.711 0.539 -0.766 c 0.352 -0.035 0.672 0.059 0.816 0.234 c 0.133 0.16 0.449 0.293 0.703 0.293 c 0.582 0 0.48 0.418 -0.137 0.563 c -0.316 0.074 -0.484 0.281 -0.566 0.68 c -0.102 0.496 -0.008 0.691 0.691 1.434 c 1.355 1.434 2.309 2.02 3.504 2.141 c 1.031 0.105 0.914 0.637 -0.027 0.637 c -0.262 0 1.809 1.43 -0.523 0.152 c -0.461 0.375 -1.098 0.176 -1.469 0.57 c -0.191 0.211 -0.496 0.387 -0.676 0.387 c -0.18 0 -0.375 0.125 -0.434 0.281 c -0.148 0.391 -0.523 0.352 -0.457 -0.047 c 0.051 -0.289 -0.133 -0.332 -1.504 -0.359 c -1.305 -0.027 -1.574 0.02 -1.652 0.281 c -0.203 0.668 -0.406 0.875 -0.91 0.938 c -0.777 0.09 -3.043 -0.699 -3.922 -1.371 c -0.422 -0.32 -1.172 -0.859 -1.668 -1.199 c -0.832 -0.57 -0.898 -0.672 -0.844 -1.305 c 0.055 -0.668 0.078 -0.688 0.758 -0.648 c 0.844 0.051 0.875 -0.113 0.168 -0.926 c -0.684 -0.781 -1.203 -1.797 -1.086 -2.109 c 0.051 -0.129 0.398 -0.297 0.773 -0.367 c 0.555 -0.102 0.73 -0.254 0.969 -0.82 c 0.16 -0.379 0.414 -0.934 0.559 -1.23 c 0.203 -0.41 0.215 -0.602 0.055 -0.797 c -0.332 -0.398 -0.547 -0.313 -0.766 0.313 c -0.219 0.629 -0.559 0.648 -0.711 0.039 c -0.055 -0.215 -0.352 -0.586 -0.664 -0.824 c -0.309 -0.234 -0.629 -0.539 -0.711 -0.672 c -0.082 -0.133 -0.277 -0.238 -0.434 -0.238 c -0.453 -0.281 0.066 -0.746 -0.531 -0.75 c -0.422 0 -0.457 -0.043 -0.266 -0.352 c 0.176 -0.277 0.156 -0.438 -0.09 -0.789 c -0.387 -0.551 -0.391 -0.734 -0.031 -0.734 c 0.156 0 0.281 -0.121 0.281 -0.27 c 0 -0.41 0.363 -0.547 0.5 -0.191 c 0.066 0.172 0.012 0.375 -0.125 0.461 c -0.145 0.09 -0.188 0.285 -0.105 0.496 c 0.129 0.336 0.141 0.336 0.324 0.004 c 0.176 -0.313 0.219 -0.316 0.523 -0.043 c 0.477 0.434 0.906 0.195 0.875 -0.484 c -0.031 -0.586 -0.211 -0.73 -1.664 -1.355 c -0.746 -0.316 -0.883 -0.672 -0.418 -1.059 c 0.52 -0.258 0.707 0.242 1.156 0.313 c 0.07 -0.07 0.32 0.059 0.563 0.281 c 0.238 0.227 0.484 0.359 0.551 0.293 c 0.207 -0.207 -0.113 -1.07 -0.402 -1.07 c -0.359 -0.102 -0.27 -0.555 -0.641 -0.563 c -0.512 0 -0.605 -0.246 -0.273 -0.719 c 0.438 -0.625 0.957 -0.5 0.848 0.203 c 0.305 0.262 1.801 0.973 1.852 0.527 c 0 -0.094 -0.211 -0.34 -0.469 -0.543 c -0.57 -0.449 -0.594 -0.715 -0.078 -0.879 c 0.453 -0.145 1.176 0.406 1.031 0.789 c -0.121 0.313 0.16 0.316 0.496 0.012 c 0.371 -0.34 0.898 -0.664 1.645 -1.01 c 0.363 -0.168 0.785 -0.379 0.938 -0.473 c 0.156 -0.094 0.57 -0.301 0.922 -0.461 l 0.637 -0.293 l -0.473 -0.469 c -0.375 -0.375 -0.543 -0.434 -0.824 -0.281 c -0.453 0.203 -1 0.367 -1.012 0.867 c 0 0.535 -0.289 0.598 -0.84 0.184 c -0.289 -0.223 -0.324 -0.348 -0.164 -0.602 c 0.109 -0.18 0.363 -0.355 0.555 -0.395 c 0.516 -0.098 0.66 -0.438 0.305 -0.695 c -0.262 -0.191 -0.27 -0.273 -0.059 -0.527 c 0.137 -0.168 0.418 -0.301 0.621 -0.301 c 0.305 0 0.352 0.086 0.258 0.469 c -0.098 0.383 -0.051 0.469 0.258 0.469 c 0.297 0 0.379 -0.125 0.379 -0.566 c 0 -0.617 0.082 -0.672 1.871 -1.219 c 1.012 -0.309 1.027 -0.309 1.359 0.102 c 0.184 0.227 0.332 0.699 0.332 1.047 c 0 0.652 0.531 1.387 1 1.387 c 0.137 0 0.43 -0.211 0.652 -0.469 c 0.5 -0.41 0.781 -0.633 0.785 -1.219 c 0 -0.566 0.078 -0.75 0.305 -0.75 c 0.293 0 0.301 0.152 0.051 1.125 c -0.051 0.195 0.098 0.297 0.488 0.332 c 1.043 0.094 1.395 0.23 1.84 0.711 c 0.328 0.355 0.73 0.516 1.578 0.637 c 1.539 0.219 1.84 0.414 2.188 1.438 c 0.164 0.477 0.531 1.176 0.816 1.547 c 0.941 1.23 1.332 1.793 1.926 2.789 c 0.633 1.059 0.891 1.176 1.375 0.641 c 0.512 -0.563 0.395 -0.828 -0.301 -0.68 c -0.602 0.129 -0.605 0.129 -0.266 -0.25 c 0.52 -0.578 -0.234 -1.02 0.082 -1.539 c 0.129 -0.203 0.23 -0.457 0.23 -0.563 c 0 -0.34 -0.531 -0.199 -0.828 0.223 c -0.621 0.68 -0.273 -0.133 -0.039 -0.418 c 0.824 -0.977 0.641 -1.402 -0.586 -1.355 c -0.141 0.004 -0.234 -0.238 -0.234 -0.629 c 0 -0.621 -0.383 -0.883 -0.656 -0.445 c -0.293 0.48 -0.418 0.113 -0.164 -0.496 c 0.348 -0.832 0.094 -1.254 -0.453 -0.758 c -0.449 0.406 -0.648 0.402 -0.535 -0.012 c 0.051 -0.18 0.152 -0.609 0.219 -0.949 c 0.121 -0.59 0.102 -0.617 -0.402 -0.563 c -0.797 0.172 -0.695 -1.25 -1.258 -0.813 c -1.055 1.25 -0.219 -0.461 -0.844 -0.535 c -0.211 0 -0.441 -0.098 -0.516 -0.215 c -0.09 -0.141 -0.316 0.004 -0.664 0.422 c -0.512 0.617 -0.727 0.496 -0.355 -0.199 c 0.148 -0.273 0.09 -0.41 -0.293 -0.66 c -0.281 -0.184 -0.438 -0.426 -0.379 -0.582 c 0.125 -0.32 -0.285 -0.352 -0.594 -0.043 c -0.234 0.234 -0.906 -0.008 -1.586 -0.566 c -0.266 -0.223 -0.375 -0.227 -0.617 -0.027 c -0.25 0.211 -0.426 0.652 -0.516 0.305 c -0.121 -0.453 -0.316 -0.988 -0.664 -0.641 c -0.461 0.316 -1.324 -0.465 -1.348 0.25 c 0 0.148 -0.082 0.27 -0.188 0.27 c -0.254 -0.191 -0.371 -0.363 -0.707 -0.34 c -0.285 0.02 -0.629 -0.027 -0.758 -0.109 c -0.129 -0.078 -0.352 -0.051 -0.492 0.066 c -0.43 0.195 -0.539 -0.18 -0.891 0.133 c -0.348 0.32 -0.035 1.25 -0.254 0.953 c -0.18 -0.242 -0.637 -1.199 -0.805 -1.035 c -0.117 0.121 -0.215 0.316 -0.215 0.438 c 0 0.121 -0.359 0.293 -0.797 0.383 c -0.621 0.133 -0.813 0.262 -0.859 0.59 c -0.07 0.496 -0.195 0.531 -0.48 0.141 c -0.176 -0.238 -0.309 -0.246 -0.813 -0.055 c -0.516 0.195 -0.586 0.293 -0.488 0.703 c 0.113 0.461 0.105 0.469 -0.254 0.148 c -0.434 -0.383 -0.746 -0.402 -1.316 -0.086 c -0.305 0.172 -0.367 0.305 -0.238 0.512 c 0.309 0.488 0.195 0.613 -0.281 0.301 c -0.563 -0.371 -0.852 -0.387 -0.852 -0.051 c 0 0.137 -0.168 0.402 -0.375 0.59 c -0.477 0.434 -0.469 0.621 0.047 1.188 c 0.457 0.492 0.414 0.488 -0.656 -0.055 c -0.387 -0.195 -0.703 -0.457 -0.703 -0.578 c 0 -0.121 0.301 -0.609 0.664 -1.086 c 0.516 -0.676 1.012 -1.035 2.203 -1.605 c 3.793 -2.352 10.145 -3.375 13.918 -1.891 c 1.555 0.664 2.973 1.398 4.03 2.086 c 1.262 0.824 3.441 3.113 4.27 4.484 c 0.676 1.125 1.492 3.527 1.668 4.906 c 0.102 0.809 0.074 0.902 -0.336 1.059 c -0.246 0.094 -0.605 0.344 -0.801 0.563 c -0.332 0.371 -0.336 0.422 -0.035 1.051 c 0.352 0.742 0.57 0.824 0.844 0.316 c 0.281 -0.395 -0.313 -0.707 -0.055 -0.977 c 0.137 -0.133 0.277 -0.098 0.461 0.125 c 0.402 0.484 0.359 4.262 -0.055 5.133 c -0.172 0.363 -0.457 1.207 -0.637 1.875 c -1.055 2.977 -2.957 5.879 -5.855 7.621 c -0.984 0.363 -2.063 1.203 -2.441 1.898 c -0.227 0.418 -0.203 0.512 0.281 1.047 c 0.293 0.324 0.594 0.672 0.668 0.766 c 0.082 0.102 0.34 -0.012 0.613 -0.266 c 0.605 -0.57 1.805 -1.094 1.375 -0.344 c -0.301 0.523 -1.27 1.363 -1.01 1.512 c 0.426 0.238 1.523 0.809 1.063 0.809 c -0.375 0 -1.551 -0.078 -1.273 0.344 c 0.445 0.68 0.66 1.809 0.109 1.199 m -4.52 -10.535 c 0.328 -0.172 0.602 -0.438 0.602 -0.59 c 0 -0.152 -0.035 -0.273 -0.078 -0.273 c -0.254 -0.066 -0.668 -0.242 -0.672 0.07 c 0 0.18 -0.156 0.305 -0.375 0.305 c -0.453 0 -0.473 -0.145 -0.086 -0.574 c 0.266 -0.293 0.246 -0.359 -0.227 -0.73 c -0.48 -0.379 -0.539 -0.387 -0.75 -0.094 c -1.469 0.684 0.055 -0.566 -0.25 -0.949 c -0.129 -0.152 -0.402 -0.277 -0.605 -0.277 c -0.316 0 -0.363 0.098 -0.297 0.641 c 0.059 0.531 -0.004 0.68 -0.355 0.84 c -0.531 0.242 -0.551 0.516 -0.055 0.676 c 0.469 0.141 0.422 0.645 0 0.656 c -0.207 0 -0.375 -0.086 -0.375 -0.188 c 0 -0.328 -0.543 -0.203 -0.742 0.168 c -0.133 0.25 -0.121 0.41 0.043 0.547 c 0.543 0.449 3.191 0.305 4.223 -0.227 m -2.082 -0.422 c -0.063 -0.516 0.469 -0.543 0.617 -0.16 c 0 0.281 -0.395 0.383 -0.617 0.16 m -4.508 -0.785 c -0.41 -0.453 -0.391 -0.594 0.066 -0.594 c 0.641 -0.168 0.016 -0.762 0.359 -1.207 c 0.121 -0.145 0.145 -0.305 0.055 -0.363 c -0.09 -0.055 -0.309 0.07 -0.488 0.281 c -0.254 0.297 -0.379 0.332 -0.586 0.16 c -0.203 -0.168 -0.215 -0.309 -0.055 -0.625 c 0.477 -0.922 0.477 -0.984 0.043 -1.488 c -0.52 -0.605 -0.645 -0.633 -0.645 -0.148 c -0.016 0.332 -0.324 0.457 -0.332 0.672 c 0.313 0.016 1.234 -0.387 0.742 0.133 c -0.121 0.121 -0.227 0.352 -0.23 0.512 c -0.016 0.402 -1.051 1.203 -1.215 0.938 c -0.07 -0.109 0.02 -0.359 0.191 -0.551 c 0.301 -0.332 0.297 -0.371 -0.074 -0.688 c -0.277 -0.625 -0.719 -0.719 -1.145 -1.098 c -0.387 -0.352 -1.5 -0.18 -1.5 0.23 c 0 0.402 0.684 1.332 1.723 2.348 c 1.207 1.18 2.188 1.805 2.855 1.816 c 0.516 0.012 0.527 -0.004 0.234 -0.332 m -1.25 -0.871 c 0 -0.156 0.129 -0.281 0.281 -0.281 c 0.156 0 0.281 0.125 0.281 0.281 c 0 0.152 -0.125 0.281 -0.281 0.281 c -0.152 0 -0.281 -0.129 -0.281 -0.281 m -2.125 -1.531 c -0.289 -0.293 -0.094 -0.625 0.367 -0.625 c 0.559 0.055 0.363 0.27 0.258 0.672 c 0 0.125 -0.488 0.09 -0.625 -0.047 m -0.875 -1.094 c 0 -0.156 0.168 -0.281 0.375 -0.281 c 0.527 0.031 0.379 0.551 0 0.563 c -0.207 0 -0.375 -0.125 -0.375 -0.281 m 2.414 -0.723 c 0.117 -0.137 0.156 -0.305 0.086 -0.371 c -0.141 -0.141 -0.625 0.215 -0.625 0.461 c 0 0.246 0.305 0.195 0.539 -0.09 m 2.273 -0.027 c 0 -0.156 -0.078 -0.281 -0.176 -0.281 c -0.719 0.305 0.164 0.773 0.176 0.281 m 0.906 -1.199 c 0.672 -1.039 0.875 -1.16 2.188 -1.324 l 0.938 -0.117 l -0.996 -0.23 c -1.215 -0.277 -1.867 -0.145 -1.945 0.398 c -0.16 0.559 -0.73 0.48 -1.105 0.805 c -0.328 0.203 -1.57 0.371 -1.398 0.805 c 0.051 0.086 0.316 0.113 0.59 0.059 c 0.344 -0.063 0.555 0.004 0.672 0.215 c 0.266 0.469 0.418 0.383 1.059 -0.609 m -3.813 0.258 c 0 -0.523 -0.547 -0.465 -0.625 0.066 c -0.047 0.34 0.016 0.422 0.281 0.371 c 0.195 -0.035 0.344 -0.227 0.344 -0.438 m 11.01 -1.066 c -0.176 -0.176 -1.898 -0.176 -2.074 0 c -0.176 0.176 1.5 0.227 1.852 0.227 c 0.348 0 0.398 -0.051 0.223 -0.227 m 2.16 -0.828 c -0.184 -0.184 -0.699 0.297 -0.699 0.648 c 0 0.242 0.082 0.219 0.414 -0.109 c 0.227 -0.227 0.355 -0.469 0.285 -0.539 m -0.988 -0.883 c -0.145 -0.891 -0.223 -1.063 -0.469 -1.063 c -0.098 0 -0.18 0.508 -0.18 1.129 c 0 1.09 0.016 1.125 0.391 0.926 c 0.336 -0.18 0.371 -0.316 0.258 -0.992 m 8.32 0.188 c 0.031 -0.18 -0.059 -0.313 -0.215 -0.313 c -0.297 0 -1.23 2.539 -0.402 2.961 c 0.242 0.121 0.551 -2.313 0.617 -2.648 m -9.531 -0.398 c 0 -0.473 -0.273 -0.789 -0.445 -0.516 c -0.137 0.223 0.078 0.977 0.281 0.977 c 0.09 0 0.164 -0.207 0.164 -0.461 m -9.75 0.105 c 0 -0.297 -0.508 -0.594 -0.82 -0.473 c -0.359 0.117 -0.906 -0.441 -1.01 -0.156 c -0.129 0.387 -0.461 0.266 -1 -0.375 c -0.281 -0.336 -0.57 -0.551 -0.648 -0.477 c -0.074 0.078 -0.031 0.27 0.102 0.43 c 0.133 0.156 0.195 0.336 0.133 0.395 c -0.113 0.113 -1.242 -1.047 -1.25 -1.285 c -0.004 -0.078 -0.094 -0.141 -0.199 -0.141 c -0.285 0 0.258 0.945 0.879 1.535 c 0.441 0.422 0.734 0.516 1.75 0.574 c 0.613 -0.059 1.578 0.301 2.063 -0.027 m 12.375 -0.395 c 0 -0.375 -0.094 -0.563 -0.281 -0.563 c -0.336 0 -0.371 0.582 -0.055 0.898 c 0.316 0.316 0.336 0.293 0.336 -0.336 m -10.984 0.023 c 0.055 -0.086 0.055 -0.203 0 -0.258 c -0.148 -0.148 -0.828 0.063 -0.828 0.254 c 0 0.215 0.813 0.859 0.945 0.645 m 9.199 -1.926 c 0.688 -0.406 0.691 -0.613 0.008 -0.613 c -0.598 0 -1.715 0.496 -1.715 0.762 c 0 0.293 1.125 0.195 1.707 -0.148 m -5.828 -1.852 l 1.012 -0.301 l -1.32 -0.613 c -0.977 -0.449 -1.461 -0.809 -1.867 -1.383 c -0.672 -0.949 -1.063 -1.02 -0.98 -0.168 c 0.047 0.469 0.156 0.621 0.484 0.668 c 0.605 0.703 0.945 1.438 1.625 2.098 c 0.023 0 0.492 -0.137 1.047 -0.301 m 9.719 -1.309 c 0.324 -0.16 0.59 -0.414 0.59 -0.563 c 0 -0.359 -0.359 -0.336 -0.781 0.043 c -0.457 0.414 -0.648 0.188 -0.367 -0.426 c 0.125 -0.273 0.184 -0.535 0.137 -0.586 c -0.051 -0.047 -0.504 0.016 -1.012 0.148 c -0.906 0.23 -1.094 0.207 -2.383 -0.309 c -0.215 -0.086 -0.098 0.094 0.281 0.422 c 0.391 0.34 1.063 0.668 1.656 0.809 c 0.547 0.133 1.043 0.355 1.098 0.496 c 0.121 0.316 0.066 0.32 0.781 -0.035 m -6.672 -0.641 c 0.176 -0.207 0.469 -0.379 0.652 -0.383 c 0.18 -0.004 0.484 -0.219 0.672 -0.477 c 0.34 -0.469 0.34 -0.473 -0.328 -1.215 c -0.734 -0.813 -0.777 -0.934 -0.449 -1.262 c 0.172 -0.172 0.121 -0.332 -0.219 -0.695 c -0.52 -0.551 -0.629 -0.57 -1.02 -0.176 c -0.395 0.395 -0.375 0.629 0.043 0.52 c 0.492 -0.129 0.906 0.41 0.598 0.781 c -0.309 0.371 -0.688 0.355 -0.914 -0.043 c -0.164 -0.297 0.449 -1.215 -0.523 -0.031 c -0.156 0.191 -0.641 0.406 -1 0.543 c -1.684 0.641 -1.512 1.02 0.395 0.875 c 1.328 -0.102 1.492 -0.082 1.289 0.16 c -0.125 0.152 -0.387 0.277 -0.582 0.277 c -0.473 0 -2.727 -0.016 -2.109 0.473 c 0.176 0.137 2.625 0.324 2.738 0.574 c 0.25 0.547 0.344 0.559 0.758 0.078 m -9.332 -0.375 c -0.113 -0.043 -0.016 -0.188 -0.176 -0.188 c -0.16 0 -0.293 0.082 -0.293 0.188 c 0 0.102 0.137 0.887 0.234 0.887 c 0.098 0 1.16 -0.551 0.234 -0.887 m 14.934 -1.121 c 0.242 -0.203 0.352 -0.371 0.246 -0.375 c -0.301 -0.008 -1.207 0.445 -1.211 0.605 c 0 0.262 0.52 0.141 0.965 -0.23 m -12.11 -0.133 c 0.727 -0.371 0.996 0.109 1.391 -0.559 c 0.219 -0.371 0.348 -0.727 0.281 -0.789 c -0.063 -0.063 -0.199 0.039 -0.305 0.227 c -0.133 0.238 -0.324 0.309 -0.621 0.234 c -0.516 -0.098 -0.727 0.313 -1.141 0.453 c -0.313 0 -0.516 0.313 -0.363 0.563 c 0.168 0.27 0.398 0.23 0.754 -0.129 m 11.34 -0.809 c -0.227 -0.145 -0.238 -0.246 -0.059 -0.539 c 0.125 -0.199 0.172 -0.41 0.109 -0.473 c -0.234 -0.234 -0.574 -0.102 -0.668 0.262 c -0.102 0.383 -0.488 0.52 -0.531 0.188 c -0.012 -0.105 -0.035 -0.293 -0.047 -0.418 c -0.012 -0.125 -0.227 -0.328 -0.473 -0.453 c -0.246 -0.121 -0.648 -0.441 -0.898 -0.707 c -0.25 -0.273 -0.652 -0.484 -0.914 -0.484 c -0.535 0 -0.832 0.516 -0.438 0.762 c 0.156 0.094 0.289 0.086 0.324 -0.02 c 0.184 -0.527 1.289 0.484 1.539 1.414 c 0.102 0.363 0.719 0.574 1.867 0.629 c 0.367 0.016 0.406 -0.02 0.188 -0.16 m -2.813 -0.543 c 0 -0.09 -0.125 -0.27 -0.281 -0.395 c -0.305 -0.254 -0.344 -0.195 -0.168 0.266 c 0.121 0.313 0.449 0.41 0.449 0.129 m -5.863 -1.258 c -0.086 0.008 -0.223 -0.07 -0.359 -0.016 c -0.148 0.059 0.199 0.813 0.418 0.824 c 0.199 0.008 0.766 -0.898 -0.059 -0.809 m 4.551 26.453 c 0.164 -0.164 0.621 0.758 0.621 1.055 c 0 0.359 -1.836 0.613 -1.977 0.25 c 0.605 -0.215 1.266 -0.809 1.355 -1.305 m 7.23 -1.758 c -0.297 -0.25 0.375 -1 0.168 -1.117 c -0.355 -0.195 -1.352 -1.289 -1.145 -1.496 c 0.051 -0.051 1.391 0.09 1.762 0.246 c 0.512 0.211 0.012 0.902 0.305 1.559 c 0.57 1.289 0.805 2.402 -1.09 0.809 m -3.762 -6.406 c 0.207 -0.121 0.707 -0.418 1.082 -0.695 c 0.492 -0.363 0.719 -0.414 0.793 -0.34 c 0.191 0.195 -0.789 1.043 -1.211 1.043 c -1.297 1.32 -3.25 1.52 -0.664 -0.008 m 10.172 -1.063 c -0.066 0.539 -0.738 -1.586 -1.141 -1.586 c -0.578 0 -0.918 -0.043 -1.16 -0.41 c -0.414 -0.629 -0.055 -0.777 0.484 -0.488 c 0.215 0.117 1.051 -0.191 1.215 -0.254 c 0.332 -0.125 1.488 1.395 1.488 1.809 c 0 0.285 -0.852 0.613 -0.887 0.93 m -27.28 -1.973 c -0.457 -0.492 -1.27 -2.063 -1.461 -2.824 c -0.098 -0.387 -0.211 -0.496 -0.438 -0.41 c -0.715 0.352 -0.879 -0.305 -0.398 -0.563 c 0.48 0 0.531 -0.285 0.258 -1.445 c -0.141 -0.613 -0.207 -1.203 -0.141 -1.309 c 0.063 -0.105 0.172 -0.617 0.234 -1.141 c 0.066 -0.523 0.211 -0.98 0.324 -1.02 c 0.148 -0.051 0.164 0.215 0.055 0.902 c -0.086 0.535 -0.105 1.051 -0.051 1.141 c 0.059 0.094 0.129 0.777 0.152 1.52 c 0.055 1.48 0.648 3.148 1.625 4.566 c 0.301 0.434 0.543 0.836 0.543 0.895 c 0 0.234 -0.328 0.086 -0.703 -0.313 m 16.656 -0.004 c -0.25 -0.129 -0.488 -0.34 -0.531 -0.465 c -0.109 -0.336 0.793 -0.301 1.074 0.039 c 0.199 0.238 0.281 0.238 0.672 -0.02 c 0.246 -0.16 0.555 -0.254 0.688 -0.207 c 0.141 0.047 -0.031 0.246 -0.418 0.484 c -0.66 0.363 -1.059 0.383 -1.484 0.168 m 2.797 -0.043 c 0 -0.156 0.594 -1.297 0.695 -1.297 c 0.105 0 0.09 0.734 0.09 0.887 c 0 0.156 -0.492 0.691 -0.598 0.691 c -0.102 0 -0.188 -0.129 -0.188 -0.281 m 0.262 -1.68 c -0.059 -0.152 0.102 -0.875 0.172 -0.984 c 0.184 -0.297 0.512 0.645 0.379 0.988 c -0.246 0.285 -0.449 0.242 -0.555 -0.004 m -20.281 -1.695 c -0.191 -1.832 1.398 -1.02 0.898 0.289 c 0 0.098 -0.086 0.176 -0.188 0.176 c -0.102 0 -1.293 -1.234 -0.711 -0.465 m 2.316 0.113 c -0.121 -0.199 0.418 -0.688 0.578 -0.523 c 0.07 0.484 -0.191 0.848 -0.578 0.523 m 17.988 -0.773 c -0.152 -0.246 0.07 -0.598 0.293 -0.457 c 0.23 0.141 0.344 0.938 0.117 0.938 c -0.141 -0.023 -0.332 -0.406 -0.41 -0.48 m -0.188 -1.313 c -0.207 -0.203 -0.363 -1.781 -0.141 -1.645 c 0.227 0.141 0.66 1.832 0.434 1.832 c -0.098 0 0.199 0.309 0 0.105 m -25.801 -0.023 c -0.066 -0.109 -0.18 -2.07 -0.125 -2.125 c 0.145 -0.148 1.434 0.375 1.434 0.578 c 0 0.242 -1.156 1.793 -1.309 1.547 m -0.086 -3.191 c 0 -0.508 0.535 -1.578 0.789 -1.578 c 0.352 0.434 -0.332 0.797 0.047 1.121 c 0.402 0.332 1.023 0.676 0.473 0.93 c -0.641 0.289 -1.309 0.086 -1.309 -0.473 m 24.941 0.344 c -0.383 -0.422 -0.648 -1.359 -0.309 -1.359 c 0.145 0 0.309 0.188 0.367 0.414 c 0.145 0.551 0.316 1.359 -0.059 0.945 m -4.691 -1.383 c 0 -0.32 1.633 -0.934 2.148 -0.805 c 0.496 0.125 0.652 0.598 0.242 0.727 c -0.609 0.188 -2.391 0.246 -2.391 0.078 m -16.805 0.184 c -0.082 -0.309 0.352 -2.668 1 -2.605 c 0.445 0.043 0.184 1.48 -0.512 1.789 c 0.652 1.379 -0.355 1.406 -0.492 0.816 m -2.758 -1.41 c -0.23 -0.23 -0.129 -0.785 0.27 -1.457 c 0.414 -0.707 0.855 -1.309 1.242 -0.844 c 0.168 0.203 0.223 0.738 0.07 0.738 c -0.117 0 0.574 1.152 -0.402 0.492 c -0.313 0.684 -1.01 0.148 -0.617 0.746 c 0.273 0.422 0.27 0.449 -0.07 0.449 c -0.203 0 -0.422 -0.055 -0.492 -0.125 m 31.992 -0.402 c -0.059 -0.152 -1.813 0.531 -1.559 0.07 c 0.254 -0.461 0.691 -1.645 1.445 -2.027 c 0.93 -0.477 0.34 0.516 0.84 1.016 l 1.336 1.047 l -0.43 0.262 c -0.68 0.418 -1.473 0.047 -1.633 -0.367 m -30.93 -2.582 c -0.07 -0.184 0.074 -0.488 0.375 -0.785 c 0.484 -0.484 0.496 -0.488 1.152 -0.176 c 0.363 0.172 0.66 0.395 0.66 0.496 c 0 0.348 -0.379 0.406 -0.793 0.117 c -0.574 -0.402 -0.707 -0.367 -0.707 0.176 c 0 0.531 -0.504 0.656 -0.688 0.172 m 7.82 -0.062 c -0.906 -0.73 0.48 -1.191 0.895 -0.563 c 0.188 0.301 0.195 0.449 0.023 0.656 c -0.281 0.34 -0.359 0.332 -0.918 -0.094 m -3.914 -0.117 c 0.035 -0.184 0.176 -0.371 0.316 -0.418 c 0.16 -0.055 0.227 0.035 0.188 0.25 c -0.035 0.184 -0.414 1.535 -0.961 1.059 c -0.125 -0.113 0.414 -0.676 0.457 -0.891 m 1.656 -0.055 c 0 -0.191 0.168 -0.496 0.371 -0.684 c 0.629 -0.563 0.555 0.344 0.277 0.66 c -0.414 0.461 -0.648 0.469 -0.648 0.023 m 1.313 -1.125 c 0 -0.09 0.172 -0.313 0.379 -0.504 c 0.477 -0.43 0.965 -0.109 0.566 0.371 c -0.254 0.305 -0.945 0.402 -0.945 0.133 m -5.813 -0.387 c 0 -0.41 0.539 -0.68 0.813 -0.406 c 0.121 0.121 0.102 0.281 -0.055 0.473 c -0.332 0.402 -0.758 0.363 -0.758 -0.066 m 7.5 -0.844 c 0 -0.34 0.43 -0.5 0.766 -0.281 c 0.227 0.145 0.227 0.195 -0.016 0.355 c -0.324 0.137 -0.734 0.234 -0.75 -0.074 m 6.938 -0.219 c 0 -0.16 0.086 -0.238 0.191 -0.172 c 0.105 0.063 0.141 0.195 0.082 0.293 c -0.16 0.258 -0.273 0.211 -0.273 -0.121 m 4.594 -1.059 c 0.262 -0.242 1.078 0.094 0.875 0.492 c -0.105 0.063 -0.656 0.43 -0.723 0.32 m -4.973 -1.559 c 0.16 -0.16 0.262 -0.082 0.406 0.301 c 0.246 0.641 0.246 0.859 0.004 0.859 c -0.352 -0.215 -0.691 -0.863 -0.41 -1.16 m 1.164 0.598 c 0 -0.375 0.094 -0.563 0.281 -0.563 c 0.313 0 0.328 0.082 0.164 0.703 c -0.164 0.609 -0.445 0.52 -0.445 -0.141 m -7.355 0.117 c 0.082 -0.406 1.059 -0.84 1.133 -0.445 c 0.063 0.465 -1.191 0.762 -1.133 0.445 m 8.855 -0.867 c 0.133 -0.27 0.266 -0.18 0.281 0 c -0.16 0.219 -0.219 0.211 -0.281 0 m -15.15 -1.477 c -0.676 -0.598 -1.297 -0.535 -1.129 -0.832 c 0.148 -0.27 0.746 -0.891 -0.195 -1.973 c -0.836 -0.961 0.063 -1.242 1 -0.207 c 0.563 0.613 1.535 0.172 0.898 2 c -0.129 0.371 0.156 0.898 0.23 1.129 c 0.199 0.613 0.113 0.699 -0.805 -0.117 m 19.391 -0.227 c -0.465 -0.582 -0.715 -0.785 -0.707 -1.895 c 0.004 -0.594 -0.262 -1.184 0.234 -1.133 c 0.977 0.09 1.41 0.484 1.832 -1.164 c 0.109 -0.438 1.176 0.457 1.148 0.836 c -0.059 0.801 -0.336 0.84 -1.953 1.66 c -0.469 0.238 -0.359 1.941 -0.555 1.695 m -9.578 -2.395 c -0.18 -0.469 -0.891 -2.148 -0.688 -2.148 c 0.105 0 0.891 -0.234 1.043 -0.598 c 0.422 -1.012 0.363 -2.098 0.996 -0.328 c 0.441 1.227 -0.832 1.414 -0.746 2.063 c 0.191 1.465 -0.43 1.469 -0.605 1.012"/><path d="m 8.07 18.785 c -0.434 0.43 -0.551 0.48 -1.504 0.688 c -0.902 0.234 -1.141 0.168 -1.129 -0.531 c 0.012 -0.801 -0.176 -0.984 -1.215 -1.188 c -0.746 -0.168 0.289 -1.129 0.551 -1.207 c 0.492 -0.043 0.738 0.16 1.441 1.18 c 0.504 0.734 0.535 0.75 1.488 0.77 c 0.313 0.004 0.578 0.016 0.59 0.027 c 0.012 0.012 -0.086 0.129 -0.223 0.262"/><path d="m 8.746 28.01 c 0.098 0.602 0.074 0.73 -0.309 1.625 c -0.23 0.539 -0.391 0.855 -0.453 0.898 c -0.113 0.074 -0.199 0.035 -0.633 -0.281 c -0.648 -0.477 -0.906 -0.43 -1.676 0.301 c -0.109 0.102 -0.238 0.176 -0.285 0.16 c -0.352 -0.359 -0.539 -0.879 -0.379 -1.309 c 0.25 -0.426 0.559 -0.512 1.797 -0.492 c 0.891 0.012 0.922 -0.004 1.488 -0.773 c 0.184 -0.25 0.348 -0.457 0.363 -0.461 c 0.016 -0.004 0.055 0.145 0.086 0.332"/><path d="m 14.04 35.754 c 0.281 0.449 0.309 0.563 0.328 1.426 c 0.012 0.52 0 0.832 -0.035 0.891 c -0.059 0.102 -0.137 0.102 -0.578 0.004 c -0.66 -0.145 -0.84 -0.012 -1.172 0.859 c -0.258 0.621 -0.875 -0.453 -0.902 -0.684 c 0.039 -0.434 0.246 -0.617 1.195 -1.055 c 0.684 -0.32 0.703 -0.344 0.867 -1.172 c 0.055 -0.27 0.105 -0.496 0.117 -0.508 c 0.012 -0.008 0.09 0.098 0.18 0.238"/><path d="m 23.24 39.21 c 0.375 0.379 0.426 0.484 0.629 1.32 c 0.125 0.504 0.184 0.816 0.16 0.879 c -0.035 0.113 -0.113 0.129 -0.566 0.129 c -0.672 0.004 -0.82 0.168 -0.957 1.094 c -0.051 0.512 -0.629 0.094 -0.836 -0.105 c -0.555 -0.711 0.063 -1.152 0.34 -1.367 c 0.598 -0.457 1.02 -0.367 1 -1.621 c -0.004 -0.273 -0.004 -0.508 0.004 -0.52 c 0.008 -0.012 0.109 0.074 0.227 0.191"/></g></svg>