<svg xmlns="http://www.w3.org/2000/svg" viewBox="0 0 48 48"><path d="m 36.34 4.03 c 42.25 35.836 -44.621 70.29 -35.695 14.871 c 1.957 -12.152 24.309 -24.527 35.695 -14.871" fill="#647f21"/><g fill="#fff" stroke="#fff"><g stroke-width="0.523"><path d="m 14.647 190.83 c -3.913 -0.702 -3.936 -0.474 0.437 -4.342 c 6.836 -6.01 9.367 -9.462 11.347 -15.568 c 2.233 -6.807 3.89 -16.819 6.283 -38.23 c 1.059 -9.595 1.312 -9.216 -6.03 -8.836 c -3.02 0.171 -5.846 0.436 -6.306 0.607 c -0.437 0.171 -1.22 0.019 -1.726 -0.36 c -0.898 -0.664 -0.898 -0.872 0.138 -4.949 c 0.598 -2.332 1.082 -4.854 1.082 -5.594 c 0 -1.233 0.184 -1.346 2.186 -1.346 c 1.197 0 5.616 -0.341 9.805 -0.74 c 4.189 -0.417 9.367 -0.891 11.485 -1.062 l 3.844 -0.303 l -0.253 7.452 c -0.161 4.229 -0.621 8.817 -1.082 10.6 c -0.967 3.679 -2.601 17.369 -2.163 18.09 c 0.161 0.265 0.506 0.36 0.76 0.209 c 0.529 -0.322 7.986 -13.273 12.198 -21.18 c 1.611 -3.01 3.222 -5.916 3.613 -6.447 c 0.69 -0.929 0.736 -0.929 1.887 0 c 0.921 0.74 1.473 2.294 2.417 6.826 c 1.013 4.797 2.946 12 4.235 15.776 c 0.414 1.214 0.713 0.436 2.601 -6.656 c 2.486 -9.443 3.061 -10.676 6.375 -13.71 c 4.58 -4.172 7.04 -5.196 12.613 -5.196 h 4.672 l 0.852 2.143 c 0.598 1.517 0.69 2.351 0.322 2.806 c -0.299 0.36 -2.463 0.815 -4.833 1 c -5.063 0.417 -7.07 1.27 -9.621 4.096 c -2.854 3.167 -3.844 5.802 -3.867 10.221 c -0.023 6.675 1.887 9.272 6.721 9.254 c 2.486 -0.019 3.521 -0.36 6.605 -2.181 c 2.025 -1.176 4.189 -2.294 4.833 -2.484 c 1.519 -0.455 1.979 -2.313 2.992 -12.06 c 0.437 -4.304 1.059 -9.14 1.381 -10.733 l 0.552 -2.901 l 1.933 0.228 c 2.509 0.265 3.199 0.91 3.222 2.882 c 0.023 5.196 1.91 5.404 5.754 0.588 c 1.473 -1.858 3.199 -3.755 3.821 -4.172 c 1.243 -0.872 3.867 -1.024 5.04 -0.284 c 0.621 0.398 0.552 0.758 -0.529 2.219 c -0.713 0.948 -2.348 3.186 -3.636 4.968 c -1.289 1.782 -2.647 3.243 -3.02 3.261 c -0.644 0.038 -2.209 3.224 -2.209 4.551 c 0 1.233 3.544 8.305 6.03 12 c 1.266 1.915 2.325 3.66 2.325 3.887 c 0 0.929 -3.659 1.365 -6.05 0.721 c -0.575 -0.152 -2.325 -2.162 -3.867 -4.437 c -3.222 -4.778 -4.442 -6.05 -4.971 -5.215 c -0.184 0.322 -0.667 2.731 -1.059 5.347 c -0.414 2.768 -1.059 5.12 -1.542 5.594 c -0.598 0.588 -1.933 0.815 -5.109 0.834 c -3.59 0 -4.948 0.265 -7.986 1.555 c -5.04 2.124 -9.436 2.181 -12.889 0.152 c -1.358 -0.796 -2.923 -2.048 -3.521 -2.787 c -1.519 -1.934 -2.233 -1.176 -1.818 1.915 c 0.391 3.11 -0.276 4.134 -2.693 4.134 c -2.325 0 -3.636 -1.27 -5.086 -4.949 c -1.197 -3.072 -1.266 -3.148 -3.383 -3.299 c -5.547 -0.417 -9.39 2.313 -10.541 7.414 c -0.783 3.451 -1.473 4.285 -4.258 5.02 c -1.151 0.322 -2.417 1.081 -2.831 1.726 c -0.414 0.626 -1.726 4.323 -2.923 8.211 c -2.946 9.69 -5.063 13.937 -8.424 16.971 c -5.8 5.215 -11.485 7.585 -16.13 6.751 m 45.847 -52.961 c 1.68 -2.219 1.381 -7.888 -0.391 -7.888 c -1.611 0 -3.913 5.859 -3.268 8.305 c 0.299 1.157 2.693 0.891 3.659 -0.417" transform="matrix(0.16972 0 0 0.206 3.034 -3.241)"/><path d="m 138.46 -18.563 c 0.783 -2.067 4.074 -39.991 4.051 -46.723 c 0 -1.062 0.046 -1.062 4.143 -0.247 c 2.279 0.436 4.304 0.967 4.511 1.195 c 0.207 0.209 0.092 3.224 -0.299 6.675 c -0.46 4.229 -0.506 6.485 -0.161 6.845 c 0.69 0.683 5.455 -4.456 8.769 -9.424 c 3.636 -5.48 3.475 -5.366 7.802 -5.01 c 6.882 0.588 6.721 0.341 2.854 4.342 c -3.798 3.944 -6.05 6.732 -9.229 11.453 c -3.706 5.48 -3.706 5.347 -0.138 10.259 c 3.452 4.759 5.086 6.618 5.8 6.618 c 1.128 0 1.68 -2.674 2.394 -11.396 c 0.944 -11.87 1.059 -12.401 2.601 -13.634 c 1.496 -1.176 7.365 -2.294 10.748 -2.067 c 2.071 0.152 2.302 0.303 2.463 1.65 c 0.276 2.465 -1.128 3.489 -4.833 3.489 c -3.659 0.019 -4.212 0.265 -4.971 2.275 c -1.45 3.811 -0.23 5.764 3.521 5.537 c 2.946 -0.171 3.245 -0.057 3.245 1.252 c 0 1.726 -1.381 2.768 -4.718 3.603 l -2.877 0.721 c -0.092 2.219 -0.207 4.418 -0.322 6.637 l 3.821 -0.36 c 6.168 -0.569 7.02 -1.214 10.38 -7.945 c 1.611 -3.205 3.89 -8.249 5.086 -11.245 c 1.864 -4.684 2.325 -5.442 3.36 -5.442 c 1.634 0 2.417 1.877 5.086 12.02 c 1.197 4.608 2.394 8.893 2.67 9.538 c 0.667 1.612 1.979 1.479 2.67 -0.247 c 0.875 -2.181 1.243 -16.326 0.506 -19.247 c -0.713 -2.787 -0.184 -3.887 1.795 -3.887 c 1.657 0 3.406 2.238 6.582 8.438 c 4.03 7.831 5.063 7.661 5.708 -0.948 c 0.253 -3.11 0.46 -5.954 0.483 -6.314 c 0.023 -0.834 1.703 -0.853 2.532 -0.038 c 0.852 0.853 0.783 4.987 -0.23 13.444 c -0.829 7.03 -1.749 10.505 -2.762 10.505 c -0.552 0 -1.657 -1.327 -5.524 -6.675 c -3.544 -4.873 -4.189 -4.494 -4.948 2.958 c -0.23 2.256 -0.552 4.342 -0.736 4.627 c -0.368 0.607 -7.94 1.915 -8.631 1.498 c -0.253 -0.171 -1.105 -1.593 -1.887 -3.186 c -1.611 -3.299 -2.808 -4.153 -5.225 -3.698 c -1.956 0.36 -3.383 1.763 -4.925 4.854 c -1.795 3.565 -2.969 3.982 -15.167 5.537 c -6.03 0.758 -6.582 1.289 -4.879 4.797 l 1.174 2.389 l -1.358 0.512 c -0.736 0.265 -2.601 0.493 -4.166 0.493 h -2.854 l -2.785 -4.304 c -3.521 -5.461 -8.01 -10.846 -8.999 -10.846 c -1.496 0 -1.956 2.787 -2.279 13.71 c -0.023 1.346 -0.506 2.465 -1.496 3.584 c -1.289 1.441 -1.864 1.669 -5.063 1.915 c -3.061 0.247 -3.544 0.171 -3.291 -0.493 m 58.14 -25.637 c 0.529 -0.777 0.806 -2.351 0.806 -4.741 c 0 -3.053 -0.115 -3.546 -0.875 -3.413 c -1.151 0.228 -2.163 3.224 -2.233 6.58 c -0.023 3.053 0.829 3.66 2.302 1.574" transform="matrix(0.16972 0 0 0.206 2.207 31.597)"/><path d="m 223.79 131.31 c -0.46 -1.214 0.138 -17.559 0.806 -21.579 l 0.276 -1.707 h 5.248 c 5.294 0 7.25 0.493 7.25 1.82 c 0 1.555 -1.588 2.37 -4.672 2.37 c -3.452 0 -3.682 0.265 -3.682 3.906 c 0 2.408 0.575 2.863 3.752 2.882 c 0.783 0 1.588 0.284 1.772 0.607 c 0.552 0.872 -1.703 2.541 -3.406 2.541 c -2.371 0 -3.199 1.024 -3.521 4.456 c -0.529 5.196 -2.647 7.812 -3.821 4.703" transform="matrix(0.16972 0 0 0.206 3.034 -3.241)"/></g><path d="m 229.79 -37.3 c -1.266 -0.417 -1.174 -0.929 0.276 -1.688 c 1.312 -0.683 7.71 -2.124 9.482 -2.124 c 1.013 0 1.082 0.133 0.829 1.365 c -0.391 2.01 -1.68 2.56 -6.076 2.674 c -1.979 0.057 -4 -0.038 -4.511 -0.228" transform="matrix(0.16972 0 0 0.206 2.207 31.597)" stroke-width="0.395"/></g></svg>