<svg xmlns="http://www.w3.org/2000/svg" viewBox="0 0 48 48"><path d="m 0.703 29.2 c 3.715 24.457 40.727 25.19 46.32 1.418 c 5.758 -19.25 -15.09 -34.988 -30.68 -28.68 c -10.441 2.98 -18.875 15.176 -15.637 27.26" fill="#dedede"/><path d="m 192.29 144.65 c 0.111 20.583 -11.855 39.652 -31.379 49.977 c -19.525 10.342 -43.621 10.342 -63.15 0 c -19.525 -10.325 -31.49 -29.394 -31.361 -49.977 c -0.129 -20.599 11.836 -39.669 31.361 -49.994 c 19.525 -10.325 43.621 -10.325 63.15 0 c 19.525 10.325 31.49 29.394 31.379 49.994" transform="matrix(0.21187 0 0 0.2323 -3.413 -9.07)" fill="#fff" stroke="#fff" stroke-width="1.289"/><g stroke-width="1.783" transform="scale(0.1875)"><path d="m 103.15 207.44 c -14.521 -5.063 -23.12 -10.625 -33.458 -21.667 c -9.854 -10.542 -14.292 -17.792 -19.646 -32.12 c -3.375 -9.04 -4 -12.729 -4 -23.896 c 0 -7.271 0.521 -13.813 1.146 -14.521 c 0.646 -0.729 2.583 -5.375 4.333 -10.313 c 4.583 -13.04 9.208 -20.292 19.396 -30.438 c 14.854 -14.833 37.979 -24.896 57.12 -24.896 c 12.396 0 33.646 6.938 44.813 14.625 c 34.04 23.458 45.792 66.71 27.75 102.25 c -18.12 35.75 -60.854 53.708 -97.46 40.979 m 45.958 -15.375 c 20 -6.875 34.875 -22.15 41.458 -42.583 c 1.771 -5.458 2.229 -10.854 1.896 -21.438 c -0.438 -12.562 -0.979 -15.187 -5 -23.687 c -7.708 -16.25 -21.521 -28.771 -37.792 -34.27 c -6.688 -2.271 -10.979 -2.667 -24.396 -2.292 c -15.08 0.438 -16.979 0.792 -25.479 4.958 c -10.271 5.04 -22.313 16.04 -27.708 25.354 c -6.604 11.438 -8.354 19.313 -7.833 35.625 c 0.438 13.958 0.792 15.604 5.583 25.27 c 7.979 16.15 22.17 28.479 38.75 33.708 c 9.5 2.979 30.979 2.646 40.521 -0.646" fill="#737373" stroke="#737373"/><path d="m 115.9 156.23 c -6.958 -3.229 -11.04 -7.125 -14.354 -13.667 c -4.438 -8.75 -4.729 -12.979 -1.5 -21.604 c 10.479 -27.979 45.542 -27.833 56.6 0.229 c 1 2.542 1.479 7.208 1.104 10.646 c -2.25 19.938 -24.08 32.646 -41.854 24.396" fill="#f40a0a" stroke="#f40a0a"/></g></svg>