<svg xmlns="http://www.w3.org/2000/svg" viewBox="0 0 48 48"><path d="m 24.453 47.742 c -4.949 -0.383 -10.742 -2.746 -14.781 -6.03 c -4.91 -3.996 -8.5 -10.121 -9.469 -16.16 c -1.148 -7.977 3.484 -16.551 8.715 -20.621 c 2.629 -1.98 6.109 -3.559 9.371 -4.25 c 8.496 -1.797 17.355 1.605 23.43 8.996 c 3.641 4.426 5.527 8.891 5.988 14.172 c 0.551 6.332 -1.953 13.13 -6.523 17.695 c -5.203 4.309 -10.551 6.648 -16.73 6.207" fill="#ef0306"/><path d="m 99.5 200.79 c -1.833 -0.188 -5.833 -0.563 -8.938 -0.792 c -4.354 -0.354 -5.604 -0.792 -5.604 -1.958 c 0 -0.833 0.583 -1.75 1.313 -2.02 c 0.729 -0.271 1.313 -3 1.313 -6.06 c 0 -5.375 0.229 -5.771 5.938 -10.333 c 6.604 -5.292 12.333 -11.833 14.208 -16.17 c 5.563 -12.979 6.354 -16.75 6 -28.583 l -0.354 -12.02 l -3.313 -0.604 c -1.813 -0.333 -4.938 -0.813 -6.938 -1.083 c -4.542 -0.604 -4.688 -1.729 -0.333 -2.396 c 2.646 -0.417 3.313 -1.021 3.313 -3.042 c 0 -1.396 0.396 -2.292 0.896 -2 c 1.5 0.917 7.04 -2.854 7.04 -4.792 c 0 -1 -1.021 -2.417 -2.25 -3.167 c -1.938 -1.188 -1.979 -1.5 -0.333 -2.292 c 1.063 -0.5 1.896 -1.438 1.854 -2.104 c -0.063 -1.833 -7.229 -8.917 -12.167 -12.02 c -4.979 -3.146 -4.958 -4.375 0.104 -4.75 c 3.438 -0.25 4 -0.833 5.167 -5.375 c 0.333 -1.354 3.729 1.208 8.229 1.417 c 5.375 0.271 5.229 1.188 6.896 -1.667 c 1.063 -1.833 -2.833 -8.167 -6.167 -7.646 c -8 0.146 -4.938 -0.958 -4.646 -11.04 h 5.938 c 3.875 0 3.958 -4.688 3.771 -7.917 c 16.479 -0.292 0.125 -0.333 17.1 -0.104 l 0.292 5.604 c 0.104 2.146 0.438 2.292 3.958 2.417 l 6.229 0.229 c 0 3.792 -0.271 6.875 -0.271 10.667 l -5.625 0.208 c -3.354 0.146 -5.125 3.563 -5.125 6.167 c 0 2.792 -1.604 3.792 4.229 2.271 l 9.667 -2.542 l 0.396 3.396 c 0.396 3.167 0.688 3.396 4.75 3.625 c 3.604 0.208 4.25 0.542 3.896 2.02 c -0.229 0.958 -2.917 3.313 -5.958 5.229 c -5.729 3.583 -10.25 10.229 -8.104 11.875 c 0.625 0.479 3.083 1.75 -0.229 3.854 c -3.833 2.458 -0.542 6.167 2.833 6.167 c 2.042 0 2.563 0.563 2.563 2.813 c 0 2.333 0.479 2.833 2.75 2.833 c 4.479 0 2.146 1.917 -3.521 2.875 l -5.167 0.896 l 0.042 14.813 c 0.042 16.917 0.833 22.438 3.792 26.688 c 1.167 1.646 2.104 3.375 2.104 3.854 c 0 1.083 6.646 7.563 8.125 7.917 c 0.625 0.146 1.125 0.583 1.125 0.958 c 0 0.375 1.792 1.875 3.979 3.333 c 3.625 2.438 3.958 3.146 3.958 8.417 c 0 4.146 0.563 6.04 1.979 6.771 c 1.083 0.542 1.979 1.729 1.979 2.646 c 0 0.896 -0.375 1.396 -0.854 1.104 c -0.479 -0.292 -1.708 -0.104 -2.75 0.417 c -1.833 0.938 -61.65 1.792 -69.1 1" transform="scale(0.1875)" fill="#fff" stroke="#ff4500" stroke-width="0.216"/></svg>