<svg xmlns="http://www.w3.org/2000/svg" viewBox="0 0 48 48"><path d="m 9.27 8.559 c -39.22 51.945 68.5 51.21 29.691 0.211 c -7.02 -8.953 -21.586 -13.363 -29.691 -0.211" fill="#303f5d"/><path d="m 23.785 9.07 c -0.207 0 -0.418 0.039 -0.586 0.109 c -0.824 0.359 -2.01 1.504 -3.465 3.348 c -0.574 0.73 -0.75 0.973 -1.457 1.973 c -2.469 3.504 -5.461 8.957 -7.04 12.832 c -1.047 2.566 -1.543 4.375 -1.543 5.633 c 0 0.746 0.113 1.051 0.539 1.441 c 1.223 1.125 5.172 1.934 10.691 2.195 c 1.434 0.066 4.219 0.07 5.641 0.004 c 6.613 -0.309 10.656 -1.309 11.23 -2.785 c 0.141 -0.355 0.141 -1.398 -0.004 -2.125 c -1.309 -6.582 -9.945 -21.07 -13.441 -22.543 c -0.164 -0.066 -0.367 -0.102 -0.574 -0.098 m -3.602 11.05 c 0.277 0.02 0.629 0.086 1.102 0.207 c 2.293 0.582 6.652 2.805 9.18 4.676 c 0.59 0.434 1.555 1.355 1.684 1.605 c 0.168 0.32 0.172 0.457 0.047 0.727 c -0.277 0.582 -1.18 1.383 -2.676 2.375 c -2.875 1.91 -6.824 3.762 -8.816 4.133 c -0.777 0.148 -1.211 0.055 -1.477 -0.301 c -0.66 -0.887 -1.051 -3.34 -1.051 -6.59 c 0 -3.777 0.516 -6.316 1.367 -6.734 c 0.164 -0.078 0.367 -0.113 0.645 -0.098" fill="#a245e8"/></svg>