<svg xmlns="http://www.w3.org/2000/svg" viewBox="0 0 48 48"><path d="m 41.844 7.594 c 27.22 41.539 -47.13 57.62 -41.21 14.879 c 2.414 -17.43 30.793 -30.773 41.21 -14.879" fill="#ff9f79"/><path d="m 21.832 35.488 c -1.766 -0.129 -4.594 -0.547 -5.836 -0.863 c -1.16 -0.293 -0.84 -0.316 1 -0.074 c 3.578 0.469 9.539 0.473 13.281 0.004 c 0.777 -0.098 1.438 -0.156 1.461 -0.129 c 0.027 0.023 -0.195 0.113 -0.492 0.191 c -2.621 0.715 -6.563 1.082 -9.414 0.871 m -1.242 -1.137 c -4.512 -0.32 -7.785 -1.016 -9.848 -2.098 c -2.508 -1.316 -1.68 -2.949 2.09 -4.117 c 0.613 -0.188 1.164 -0.387 1.219 -0.438 c 0.055 -0.051 -0.246 -0.809 -0.668 -1.68 c -0.766 -1.582 -0.82 -1.801 -0.668 -2.789 c 0.066 -0.457 0.035 -0.555 -0.301 -0.895 c -0.41 -0.418 -0.633 -1.344 -0.637 -2.641 c 0 -0.633 0.016 -0.668 0.465 -0.895 c 3.258 -1.656 13.594 -2.117 19.992 -0.891 c 2.383 0.457 3.32 0.844 3.48 1.434 c 0.063 0.227 0.094 0.547 0.07 0.711 c -0.023 0.164 -0.105 0.766 -0.188 1.336 c -0.082 0.574 -0.117 1.074 -0.078 1.109 c 0.035 0.039 0.809 -0.191 1.715 -0.512 c 1.793 -0.633 2.652 -0.723 2.785 -0.297 c 0.129 0.402 -0.09 1.367 -0.469 2.098 c -0.781 1.504 -2.258 2.543 -3.957 2.781 c -0.504 0.074 -1 0.16 -1.109 0.191 c -0.277 0.09 -0.77 0.797 -0.695 1 c 0.035 0.09 0.445 0.289 0.91 0.445 c 3.512 1.164 4.262 2.734 1.906 4.01 c -3.039 1.637 -9.973 2.563 -16.02 2.137 m 12.871 -1.746 c 1.348 -0.328 2.695 -0.867 3.176 -1.27 c 0.375 -0.32 0.383 -0.344 0.238 -0.832 c -0.082 -0.277 -0.273 -0.66 -0.422 -0.855 c -0.266 -0.344 -1.375 1.84 -2.426 1.914 c -1.75 0.117 0.18 -0.559 -0.469 0.168 c -0.195 0.219 -3.555 -0.359 -3.355 0.145 c 0.344 0.879 0.492 0.98 1.422 0.98 c 0.449 -0.004 1.273 -0.113 1.836 -0.25 m -12.273 -1.301 c 0.059 -0.297 -0.418 -0.82 -0.957 -1.051 c -0.367 -0.16 -0.445 -0.16 -0.602 0 c -0.262 0.266 -0.094 0.664 0.441 1.035 c 0.52 0.359 1.051 0.367 1.117 0.016 m -2.336 -0.582 c 0 -0.066 -0.352 -0.563 -0.777 -1.102 c -0.77 -0.965 -2.203 -1.91 -2.574 -2.953 c -0.109 -0.305 -0.863 -1.637 -0.922 -2.66 c -0.074 -1.199 -0.086 -2.414 -0.195 -2.523 c -0.137 -0.137 0.383 -0.125 -1.523 -0.773 c -0.258 -0.09 -0.254 -0.059 0.238 2.707 c 0.598 3.352 1.41 4.563 4.469 6.68 c 1.094 0.754 1.285 0.848 1.285 0.625 m 10.992 -0.313 c 0.352 -0.359 0.391 -0.77 0.098 -1.094 c -0.289 -0.324 -0.602 -0.289 -0.902 0.102 c -0.313 0.398 -0.328 0.762 -0.051 1.07 c 0.273 0.309 0.492 0.289 0.855 -0.078 m -5.289 -3.668 c 0.328 -0.422 0.32 -0.582 -0.035 -1 c -0.547 -0.645 -1.57 -0.324 -1.57 0.492 c 0 0.539 0.316 0.84 0.879 0.84 c 0.355 0 0.527 -0.078 0.727 -0.332 m 9.117 0.012 c 0.242 -0.242 0.473 -1.094 0.371 -1.363 c -0.223 -0.594 -0.918 0.086 -0.918 0.906 c 0 0.676 0.184 0.828 0.547 0.457 m 2.391 -0.699 c 1.387 -0.496 1.883 -0.754 2.301 -1.199 c 0.418 -0.449 0.598 -0.922 0.598 -1.582 c 0 -0.625 -0.277 -0.973 -0.777 -0.973 c -0.383 0 -2.527 0.699 -2.793 0.91 c -0.086 0.07 -0.246 0.43 -0.352 0.801 c -0.105 0.375 -0.332 1.02 -0.5 1.438 c -0.168 0.418 -0.27 0.813 -0.23 0.879 c 0.125 0.207 0.625 0.129 1.754 -0.273 m -17.375 -1.266 c 0.32 -0.301 0.363 -0.605 0.145 -1.02 c -0.469 -0.895 -1.594 -0.727 -1.594 0.234 c 0 0.305 0.102 0.496 0.383 0.734 c 0.465 0.398 0.695 0.41 1.066 0.051 m 10.238 -0.488 c 0.137 -0.074 0.332 -0.332 0.43 -0.57 c 0.25 -0.605 0.023 -1.102 -0.527 -1.156 c -0.75 -0.074 -1.215 1.055 -0.668 1.609 c 0.285 0.289 0.414 0.309 0.766 0.117 m 5.203 -1.488 c 0.414 -0.418 0.496 -1.113 0.168 -1.445 c -0.281 -0.285 -0.52 -0.246 -0.867 0.133 c -0.359 0.395 -0.41 1.102 -0.098 1.449 c 0.273 0.309 0.371 0.293 0.797 -0.137 m -5.652 -1.652 c 0.117 -0.188 0.039 -0.234 -0.578 -0.355 c -0.508 -0.094 -0.523 -0.109 -0.242 -0.227 c 0.203 -0.082 0.25 -0.152 0.148 -0.215 c -0.195 -0.125 -3.184 -0.125 -3.383 -0.004 c -0.238 0.152 0.219 0.289 1.01 0.301 c 0.375 0.004 0.766 0.066 0.871 0.133 c 0.121 0.078 0.133 0.121 0.031 0.121 c -0.27 0.004 -0.172 0.234 0.121 0.293 c 0.59 0.113 1.945 0.082 2.023 -0.047 m 2.82 -0.699 c 0.625 -0.105 0.586 -0.266 -0.094 -0.367 c -0.645 -0.098 -1.758 0.039 -1.598 0.195 c 0.211 0.203 1.01 0.285 1.691 0.172" fill="#d10909"/><path d="m 18.766 21.08 c -2.973 -0.352 -4.98 -0.926 -4.98 -1.43 c 0 -1.949 10.668 -3.129 18.17 -2.01 c 1.969 0.293 3.379 0.777 3.207 1.098 c -0.055 0.102 -0.59 0.18 -1.191 0.18 c -1.234 0 0.758 -0.141 0.758 0.277 c 0 0.168 -2.469 0.734 -2.09 0.82 l 0.645 0.148 l -0.516 0.18 c -0.727 0.25 -1.598 0.676 -2.063 0.094 c -0.391 -0.488 3.309 -0.105 0.715 -0.105 c -2.01 0 -0.453 0.223 -0.707 0.438 c -0.5 0.422 -4.902 0.336 -3.41 0.438 c 1.188 0.078 0.406 -0.414 0.336 -0.105 c -0.047 0.219 -0.543 0.004 -0.941 0.078 c -0.895 0.172 -6.195 0.105 -7.93 -0.102" fill="#380100"/></svg>