<svg xmlns="http://www.w3.org/2000/svg" viewBox="0 0 48 48"><path d="m 41.844 7.594 c 27.22 41.539 -47.13 57.62 -41.21 14.879 c 2.414 -17.43 30.793 -30.773 41.21 -14.879" fill="#efffef"/><path d="m 31.82 31.668 c 0 0.191 -0.023 0.379 -0.07 0.566 c -0.043 0.184 -0.105 0.363 -0.188 0.543 c -0.078 0.18 -0.168 0.344 -0.27 0.5 c -0.094 0.156 -0.199 0.305 -0.313 0.445 c -0.25 0.324 -0.438 0.555 -0.563 0.695 c -0.121 0.137 -0.223 0.23 -0.305 0.281 c -0.078 0.051 -0.16 0.074 -0.238 0.074 c -0.145 0 -0.258 -0.055 -0.34 -0.164 c -0.086 -0.105 -0.125 -0.215 -0.125 -0.32 c 0 -0.094 0.027 -0.18 0.086 -0.258 c 0.059 -0.078 0.184 -0.223 0.367 -0.426 c 0.184 -0.207 0.332 -0.398 0.445 -0.57 l -0.012 -0.012 c -0.098 0.031 -0.223 0.047 -0.375 0.047 c -0.227 0 -0.434 -0.063 -0.617 -0.191 c -0.18 -0.133 -0.32 -0.305 -0.422 -0.52 c -0.105 -0.215 -0.156 -0.438 -0.156 -0.664 c 0 -0.211 0.039 -0.41 0.113 -0.598 c 0.078 -0.188 0.18 -0.352 0.316 -0.488 c 0.137 -0.137 0.301 -0.246 0.496 -0.324 c 0.191 -0.078 0.402 -0.117 0.621 -0.117 c 0.309 0 0.578 0.063 0.813 0.188 c 0.238 0.125 0.418 0.305 0.543 0.531 c 0.129 0.23 0.191 0.488 0.191 0.781 m -1.01 0.027 c 0 -0.102 -0.023 -0.195 -0.07 -0.281 c -0.051 -0.086 -0.117 -0.156 -0.203 -0.207 c -0.082 -0.055 -0.172 -0.078 -0.266 -0.078 c -0.098 0 -0.188 0.027 -0.273 0.078 c -0.082 0.051 -0.148 0.121 -0.195 0.207 c -0.051 0.086 -0.074 0.18 -0.074 0.281 c 0 0.152 0.055 0.285 0.16 0.398 c 0.109 0.109 0.238 0.164 0.383 0.164 c 0.148 0 0.277 -0.055 0.383 -0.164 c 0.105 -0.113 0.16 -0.246 0.16 -0.398 m -3.797 -0.504 l -0.066 0.543 c 0.145 -0.039 0.293 -0.059 0.449 -0.059 c 0.262 0 0.488 0.066 0.676 0.199 c 0.191 0.133 0.336 0.309 0.43 0.531 c 0.098 0.223 0.145 0.469 0.145 0.742 c 0 0.223 -0.039 0.438 -0.121 0.637 c -0.078 0.199 -0.188 0.371 -0.328 0.52 c -0.141 0.141 -0.309 0.258 -0.504 0.344 c -0.195 0.082 -0.402 0.125 -0.621 0.125 c -0.207 0 -0.418 -0.035 -0.637 -0.109 c -0.219 -0.07 -0.398 -0.172 -0.539 -0.297 c -0.141 -0.129 -0.211 -0.27 -0.211 -0.418 c 0 -0.148 0.039 -0.27 0.121 -0.363 c 0.078 -0.094 0.176 -0.141 0.289 -0.141 c 0.078 0 0.148 0.016 0.211 0.051 c 0.063 0.027 0.137 0.074 0.223 0.133 c 0.09 0.059 0.176 0.105 0.254 0.137 c 0.078 0.027 0.164 0.043 0.258 0.043 c 0.172 0 0.313 -0.063 0.414 -0.188 c 0.102 -0.125 0.156 -0.305 0.156 -0.539 c 0 -0.105 -0.02 -0.203 -0.059 -0.289 c -0.039 -0.09 -0.094 -0.164 -0.168 -0.219 c -0.07 -0.055 -0.156 -0.082 -0.254 -0.082 c -0.082 0 -0.152 0.012 -0.219 0.031 c -0.063 0.02 -0.125 0.051 -0.188 0.09 c -0.063 0.035 -0.117 0.063 -0.156 0.082 c -0.043 0.016 -0.098 0.023 -0.164 0.023 c -0.117 0 -0.211 -0.031 -0.285 -0.094 c -0.07 -0.066 -0.102 -0.16 -0.102 -0.273 c 0 -0.125 0.008 -0.281 0.027 -0.469 l 0.148 -1.199 c 0.023 -0.176 0.078 -0.289 0.16 -0.344 c 0.086 -0.051 0.203 -0.078 0.352 -0.078 h 1.461 c 0.141 0 0.254 0.047 0.332 0.141 c 0.074 0.09 0.113 0.199 0.113 0.328 c 0 0.121 -0.039 0.23 -0.117 0.324 c -0.078 0.094 -0.188 0.137 -0.328 0.137 m -3.84 3.043 c 0 -0.098 0.023 -0.184 0.07 -0.266 c 0.051 -0.086 0.113 -0.152 0.191 -0.203 c 0.082 -0.051 0.168 -0.074 0.262 -0.074 c 0.09 0 0.176 0.027 0.254 0.074 c 0.082 0.051 0.145 0.117 0.191 0.203 c 0.047 0.082 0.074 0.168 0.074 0.266 c 0 0.098 -0.027 0.188 -0.074 0.273 c -0.047 0.082 -0.109 0.145 -0.191 0.191 c -0.082 0.051 -0.164 0.074 -0.254 0.074 c -0.094 0 -0.18 -0.023 -0.262 -0.074 c -0.078 -0.047 -0.141 -0.109 -0.191 -0.191 c -0.047 -0.086 -0.07 -0.176 -0.07 -0.273 m 0 -1.934 c 0 -0.094 0.023 -0.184 0.07 -0.266 c 0.051 -0.082 0.113 -0.148 0.191 -0.199 c 0.082 -0.051 0.168 -0.074 0.262 -0.074 c 0.09 0 0.176 0.023 0.254 0.074 c 0.082 0.051 0.145 0.117 0.191 0.199 c 0.047 0.082 0.074 0.172 0.074 0.266 c 0 0.098 -0.027 0.191 -0.074 0.273 c -0.047 0.082 -0.109 0.148 -0.191 0.195 c -0.082 0.047 -0.164 0.07 -0.254 0.07 c -0.094 0 -0.18 -0.023 -0.262 -0.07 c -0.078 -0.047 -0.141 -0.113 -0.191 -0.195 c -0.047 -0.082 -0.07 -0.176 -0.07 -0.273 m -3.406 1.27 c 0 -0.117 0.047 -0.227 0.141 -0.32 c 0.098 -0.094 0.199 -0.141 0.309 -0.141 c 0.113 0 0.199 0.031 0.262 0.086 c 0.063 0.055 0.129 0.141 0.207 0.258 c 0.078 0.117 0.16 0.203 0.242 0.266 c 0.086 0.059 0.203 0.09 0.348 0.09 c 0.137 0 0.254 -0.051 0.344 -0.152 c 0.094 -0.105 0.141 -0.23 0.141 -0.375 c 0 -0.176 -0.055 -0.301 -0.168 -0.371 c -0.113 -0.07 -0.258 -0.109 -0.434 -0.113 c -0.113 -0.004 -0.207 -0.047 -0.289 -0.125 c -0.082 -0.078 -0.125 -0.195 -0.125 -0.348 c 0 -0.129 0.035 -0.227 0.105 -0.289 c 0.074 -0.063 0.207 -0.121 0.402 -0.172 c 0.242 -0.051 0.363 -0.184 0.363 -0.402 c 0 -0.109 -0.031 -0.191 -0.102 -0.246 c -0.07 -0.059 -0.156 -0.086 -0.262 -0.086 c -0.105 0 -0.195 0.023 -0.27 0.07 c -0.074 0.043 -0.148 0.109 -0.23 0.199 c -0.082 0.086 -0.152 0.152 -0.215 0.195 c -0.063 0.043 -0.141 0.063 -0.242 0.063 c -0.113 0 -0.207 -0.047 -0.281 -0.141 c -0.074 -0.098 -0.109 -0.203 -0.109 -0.316 c 0 -0.199 0.066 -0.375 0.207 -0.531 c 0.137 -0.156 0.313 -0.281 0.523 -0.367 c 0.211 -0.09 0.414 -0.133 0.605 -0.133 c 0.242 0 0.461 0.047 0.66 0.145 c 0.199 0.094 0.355 0.234 0.473 0.418 c 0.117 0.18 0.176 0.395 0.176 0.645 c 0 0.164 -0.039 0.324 -0.117 0.48 c -0.078 0.152 -0.199 0.289 -0.359 0.414 c 0.223 0.094 0.395 0.238 0.512 0.434 c 0.121 0.199 0.18 0.43 0.18 0.691 c 0 0.258 -0.066 0.492 -0.199 0.707 c -0.129 0.211 -0.309 0.375 -0.535 0.496 c -0.227 0.117 -0.48 0.176 -0.758 0.176 c -0.207 0 -0.406 -0.031 -0.59 -0.098 c -0.184 -0.066 -0.344 -0.156 -0.48 -0.273 c -0.137 -0.117 -0.246 -0.25 -0.32 -0.395 c -0.078 -0.148 -0.113 -0.293 -0.113 -0.438 m -1.258 0.605 v -2.984 h -0.309 c -0.137 0 -0.246 -0.047 -0.324 -0.141 c -0.082 -0.094 -0.121 -0.199 -0.121 -0.32 c 0 -0.129 0.039 -0.234 0.117 -0.328 c 0.078 -0.094 0.188 -0.141 0.328 -0.141 h 0.789 c 0.141 0 0.254 0.035 0.344 0.109 c 0.094 0.07 0.141 0.203 0.141 0.395 v 3.41 c 0 0.176 -0.043 0.309 -0.133 0.398 c -0.09 0.09 -0.203 0.137 -0.352 0.137 c -0.145 0 -0.262 -0.047 -0.352 -0.137 c -0.086 -0.094 -0.133 -0.223 -0.133 -0.398" fill="#218b21"/><g stroke="#218b21"><g stroke-linejoin="round" stroke-linecap="round"><g fill="none"><path d="m 3.061 57.48 h 54.34 v -21.772 h -54.34" transform="matrix(0.41746 0 0 0.42898 9.894 12.425)" stroke-width="3.372"/><path d="m 17.635 39.485 v 12.958" transform="matrix(0.41746 0 0 0.42898 9.97 12.734)" stroke-dasharray="2.0234 2.0234" stroke-width="2.023"/><path d="m 8.633 48.664 v -34.73" transform="matrix(0.41746 0 0 0.42898 10.72 12.12)" stroke-width="5.396"/></g><g fill="#fff" fill-rule="evenodd"><path d="m 36.528 2.856 c -2.513 0.172 -20.913 0.302 -28.3 0.302 c -5.735 0.496 -9.942 7.703 -10.573 10.623 l 28.784 0.69" transform="matrix(0.35284 0 0 0.36258 12.04 12.847)" stroke-width="2.394"/><path d="m 4.783 13.161 h 22.267 v 10.573 h -22.267" transform="matrix(0.4505 0 0 0.46293 9.06 11.739)" stroke-width="1.875"/></g></g><g fill-rule="evenodd"><path d="m -17.9 9.06 c -4.918 0.006 -8.915 3.981 -8.915 8.897 v 15.312 c 0 0.405 0.297 0.728 0.683 0.723 l 16.448 0.009 c 0.386 -0.005 0.683 -0.332 0.683 -0.723 v -15.312 c 0 -4.916 -3.982 -8.912 -8.9 -8.906" transform="matrix(0.26291 -0.18872 0 0.27016 28.3 8.579)" fill="#218b21" stroke-width="3.213"/><g fill="#fff"><path d="m -17.91 9.06 c -4.921 1.227 -8.899 3.982 -8.899 8.895 v 15.31 c 0 0.397 0.306 0.735 0.688 0.729 h 16.447 c 0.382 -0.006 0.663 -0.331 0.663 -0.728 v -15.31 c 0.255 -7.217 -1.504 -10.877 -8.899 -8.896" transform="matrix(0.15319 -0.10996 0 0.15742 26.341 12.514)" stroke-width="3.676"/><path d="m 8.106 -10.236 l 19.03 -0.005 c 1.111 0.01 2 0.896 2 2 l -0.003 9.746 c 0.005 1.108 -0.894 2 -2 2 l -19.03 -0.003 c -1.106 0.002 -1.996 -0.892 -2 -2 l 0.003 -9.746 c 0.003 -1.104 0.89 -1.993 1.996 -1.995" transform="matrix(0.38182 -0.17928 0.17447 0.39235 25.589 20.293)" stroke-width="2.01"/></g></g><path d="m 33.28 12.515 l 12.277 -0.118 l 6.999 -8.642" transform="matrix(0.41746 0 0 0.42898 12.818 9.858)" fill="none" stroke-linejoin="round" stroke-linecap="round" stroke-width="2.023"/><path d="m 8.105 -10.235 l 19.03 -0.003 c 1.112 -0.001 2 0.896 2.01 2 l 0.003 9.743 c -0.006 1.108 -0.899 1.995 -2 1.994 l -19.03 0.003 c -1.112 0.001 -2 -0.888 -2.01 -2 l 0.006 -9.737 c -0.004 -1.114 0.889 -2 1.994 -2" transform="matrix(0.467 0.09163 -0.08917 0.47989 22.954 22.825)" fill="#fff" fill-rule="evenodd" stroke-width="1.777"/><path d="m 32.972 14.197 l 9.998 8.649 l 12.321 -4.514" transform="matrix(0.4505 0 0 0.46293 12.11 12.553)" fill="none" stroke-linejoin="round" stroke-linecap="round" stroke-width="1.875"/></g></svg>