<svg xmlns="http://www.w3.org/2000/svg" viewBox="0 0 48 48" xmlns:xlink="http://www.w3.org/1999/xlink"><defs><linearGradient id="0" gradientUnits="userSpaceOnUse" x1="-41.26" y1="-0.883" x2="-2.994" y2="37.956" gradientTransform="matrix(0 0.67014 -0.65482 0 36.12 37.1)"><stop stop-color="#20c8fb"/><stop offset="1" stop-color="#1986f2"/></linearGradient><linearGradient id="1" gradientUnits="userSpaceOnUse" x1="-28.756" y1="8.246" x2="-10.858" y2="26.414" gradientTransform="matrix(0.67964 0 0 0.69541 37.03 8.807)"><stop stop-color="#000" stop-opacity="0.2"/><stop offset="1" stop-color="#000" stop-opacity="0"/></linearGradient><linearGradient id="2" gradientUnits="userSpaceOnUse" x1="-13.643" y1="8.156" x2="-5.423" y2="16.5" gradientTransform="matrix(0.67964 0 0 0.69541 37.03 8.807)" xlink:href="#1"/></defs><path d="m 43.871 10.05 c -9.102 -16.527 -37.617 -10.113 -42.44 3.492 c -5.75 16.211 9.211 46.996 34.555 28.961 c 8.535 -6.297 16.988 -15.926 7.887 -32.453" fill="#00bfff"/><path d="m 36.04 13.629 c 0 -1.941 -1.527 -3.445 -3.418 -3.5 h -22.01 v 22.14 c 0 1.941 1.523 3.496 3.418 3.496 h 22.01" fill="url(#0)"/><g fill-rule="evenodd"><path d="m 20.19 12.785 l 0.047 4.957 l -0.68 -0.707 l -3.547 2.82 l -0.176 2.551 l -3.422 1.559 l 3.422 3.418 v 2.887 l 3.418 3.512 l 10.676 -1.113 c 0.332 -0.059 0.645 -0.207 0.926 -0.422 l -3.766 -6.04 l -0.992 -10.906 l -2.512 -2.844" fill="url(#1)"/><path d="m 31.578 13.41 l -4.629 5.859 l 4.422 13.59 c 0.723 -0.652 1.57 -2.527 1.57 -3.688 l 2.055 -12.449" fill="url(#2)"/></g><path d="m 23.586 12.457 l -3.395 0.328 v 13.629 l 3.359 -0.477 v -5.824 l 4.477 6.445 l 3.508 -1.098 l -4.59 -6.191 l 4.629 -5.859 l -3.582 -0.805 l -4.441 5.859 m -7.617 -2.676 c -0.035 0 -0.082 0.023 -0.109 0.039 l -1.305 1.316 c -0.059 0.059 -0.078 0.156 -0.039 0.223 l 1.531 2.488 c -0.277 0.457 -0.477 0.949 -0.637 1.465 l -2.836 0.59 c -0.078 0.02 -0.148 0.066 -0.148 0.145 v 1.832 c 0 0.078 0.074 0.164 0.148 0.184 l 2.762 0.656 c 0.148 0.598 0.371 1.168 0.672 1.688 l -1.605 2.383 c -0.047 0.066 -0.023 0.16 0.035 0.219 l 1.309 1.281 c 0.055 0.051 0.156 0.078 0.223 0.039 l 2.504 -1.504 c 0.492 0.277 1.01 0.512 1.566 0.66 l 0.598 2.746 c 0.016 0.082 0.066 0.148 0.148 0.148 h 1.867 c 0.078 0 0.168 -0.07 0.184 -0.148 l 0.672 -2.746 c 0.578 -0.152 1.141 -0.406 1.645 -0.695 l 2.461 1.609 c 0.07 0.043 0.168 0.023 0.227 -0.035 l 1.305 -1.285 c 0.059 -0.055 0.078 -0.152 0.039 -0.219 l -0.898 -1.465 l -0.297 0.109 c -0.043 0.023 -0.086 0 -0.113 -0.035 c 0 0 -0.563 -0.84 -1.305 -1.906 c -0.887 1.707 -2.695 2.859 -4.777 2.859 c -2.961 0 -5.375 -2.332 -5.375 -5.238 c 0 -2.137 1.309 -3.977 3.172 -4.801 v -1.352 c -0.336 0.117 -0.656 0.234 -0.969 0.402 c 0 0 -0.035 0 -0.035 0 l -2.504 -1.613 c -0.031 -0.02 -0.074 -0.039 -0.109 -0.035" fill="#fff"/></svg>