<svg xmlns="http://www.w3.org/2000/svg" viewBox="0 0 48 48"><path d="m 24.08 0.586 c 31.664 -3.602 31.23 47.984 -0.563 47.38 c -29.563 1.699 -32.23 -50.18 0.563 -47.37" fill="#473d8b"/><path d="m 18.672 11.172 h 10.5 c 0.828 0 1.5 0.652 1.5 1.457 v 24.75 c 0 0.805 -0.672 1.457 -1.5 1.457 h -10.5 c -0.832 0 -1.504 -0.652 -1.504 -1.457 v -24.75 c 0 -0.805 0.676 -1.457 1.504 -1.457"/><path d="m -0.007 57 h 54 m -47.989 -57 h 41.99 c 3.312 0 5.999 2.688 5.999 6 v 101.99 c 0 3.316 -2.687 6 -5.999 6 h -41.99 c -3.327 0 -6.01 -2.688 -6.01 -6 v -101.99 c 0 -3.316 2.703 -6 6.01 -6" transform="matrix(0.25006 0 0 0.24266 17.17 11.171)" fill="none" stroke="#fff" stroke-width="2.4" stroke-miterlimit="10"/><g fill="#fff"><path d="m 27.922 14.813 c 0 1.293 -2 1.293 -2 0 c 0 -1.297 2 -1.297 2 0"/><path d="m 21.922 20.637 c 0 1.293 -2 1.293 -2 0 c 0 -1.297 2 -1.297 2 0"/><path d="m 21.922 14.813 c 0 1.293 -2 1.293 -2 0 c 0 -1.297 2 -1.297 2 0"/><path d="m 27.922 20.637 c 0 1.293 -2 1.293 -2 0 c 0 -1.297 2 -1.297 2 0"/><path d="m 21.922 29.371 c 0 1.293 -2 1.293 -2 0 c 0 -1.293 2 -1.293 2 0"/><path d="m 27.922 35.2 c 0 1.293 -2 1.293 -2 0 c 0 -1.293 2 -1.293 2 0"/></g></svg>