<svg xmlns="http://www.w3.org/2000/svg" viewBox="0 0 48 48"><path d="m 6.348 6.984 c -27.2 40.586 47.08 59.51 41.16 16.473 c -2.414 -17.551 -30.762 -31.996 -41.16 -16.473" fill="#778799"/><g fill="#fff"><path d="m 18.852 32 c -3.563 -0.645 -6.965 -3.113 -8.582 -6.23 c -0.523 -1.016 -1.039 -2.559 -1.246 -3.738 c -0.5 -2.898 0.344 -6.316 2.168 -8.762 c 0.543 -0.727 1.84 -1.988 2.633 -2.559 c 2.23 -1.609 4.402 -2.313 7.152 -2.324 c 3.566 -0.012 6.422 1.203 8.918 3.797 c 1.602 1.668 2.555 3.473 3.047 5.781 c 0.242 1.129 0.246 3.523 0.004 4.633 c -2.801 6.379 -7.418 8.766 -14.09 9.402 m -3.262 -6.066 c 1.215 -1.266 1.191 -1.188 0.609 -2.215 c -0.574 -1.02 -0.957 -1.961 -1.047 -2.563 c -0.09 -0.637 0.109 -2.324 0.355 -2.984 c 0.113 -0.313 0.383 -0.848 0.59 -1.191 c 0.621 -1.016 0.625 -1.031 0.172 -1.617 c -0.563 -0.73 -1.508 -1.605 -1.734 -1.605 c -0.281 0 -0.793 0.66 -0.793 1.027 c 0 0.172 0.148 0.547 0.352 0.875 c 0.801 1.328 0.816 1.43 0.426 2.328 c -0.285 0.648 -0.395 0.73 -1.387 1.02 c -1.363 0.398 -1.43 0.457 -1.43 1.207 c 0 0.82 0.129 0.941 1.324 1.273 c 0.523 0.145 1.012 0.313 1.086 0.375 c 0.191 0.16 0.48 0.762 0.609 1.273 c 0.109 0.449 0.109 0.453 -0.434 1.406 c -0.301 0.527 -0.547 1.059 -0.547 1.184 c 0 0.438 0.512 1.066 0.871 1.074 c 0.078 0 0.516 -0.391 0.977 -0.867 m 12.934 -7.594 c 1.438 -0.297 1.43 -0.289 1.184 -1.219 l -0.16 -0.609 l -1.367 -0.063 l -1.371 -0.059 l -0.418 -0.465 c -0.703 -0.777 -0.719 -0.832 -0.492 -1.887 c 0.367 -1.699 0.375 -1.59 -0.191 -1.879 c -0.27 -0.141 -0.574 -0.254 -0.672 -0.254 c -0.102 0 -0.609 0.375 -1.133 0.828 c -1.09 0.941 -1.32 1.023 -2.145 0.785 c -0.508 -0.148 -0.574 -0.203 -0.906 -0.746 c -0.766 -1.258 -1.031 -1.594 -1.301 -1.625 c -0.297 -0.035 -1.031 0.313 -1.113 0.527 c -0.066 0.168 0.23 1.348 0.551 2.207 l 0.215 0.566 l 1.039 -0.066 c 2.711 -0.172 4.656 0.883 6.148 3.328 c 0.48 0.789 0.512 0.816 0.859 0.816 c 0.199 0 0.773 -0.082 1.273 -0.188"/><path d="m 224.34 175.3 c 0 35.17 -27.671 63.68 -61.829 63.68 c -34.13 0 -61.806 -28.51 -61.806 -63.68 c 0 -35.17 27.671 -63.68 61.806 -63.68 c 34.16 0 61.829 28.51 61.829 63.68" transform="matrix(0.16982 0 0 0.1614 0.597 3.073)" stroke="#778799" stroke-width="3.787"/></g><g fill="#778799" stroke="#778799" stroke-width="0.799" transform="scale(0.1875)"><path d="m 154.27 163.44 c -0.271 -0.417 -0.5 -6.417 -0.5 -13.313 c 0 -10.896 0.125 -12.688 1.042 -13.438 c 5.708 -0.667 21.15 -1.792 28.833 0.25 c 1.021 1.021 1.146 2.479 1.146 13.271 c 0 10.208 -0.146 12.271 -1.021 13.13 c -9.208 1.354 -17.5 1.354 -29.5 0.104 m 25.729 -3.833 c 0 -6.542 0 -13.08 0 -19.646 c -6.625 0 -13.25 0 -19.875 0 l -0.625 1.646 c -0.667 1.771 -0.833 14.417 -0.229 16.729 c 7.979 1.833 13.833 1.813 20.729 1.271"/><path d="m 155.69 197.63 c -1 -0.708 -1.271 -2.02 -1.604 -7.354 c -0.5 -8.292 0.125 -19.02 1.188 -20.08 c 0.583 -0.583 4.333 -0.792 14.188 -0.792 c 11.979 0 13.5 0.125 14.521 1.146 c 1.021 1.021 1.146 2.479 1.146 13.333 c 0 15.875 1.313 14.646 -15.625 14.646 c -9.708 0 -12.896 -0.208 -13.813 -0.896 m 24.625 -23.313 l -6.146 -0.458 c -7.5 -0.563 -12.896 -0.063 -14.271 1.292 c -1.146 1.146 -1.792 11.08 -1.042 16.06 l 0.417 2.833 c 7.02 0 14.04 0 21.04 0 c 0 -6.583 0 -13.146 0 -19.729"/><path d="m 118.44 197.9 c -1.958 -0.833 -2.25 -3.167 -2 -15.896 c 0.146 -7.875 0.438 -11.167 1.042 -11.771 c 1.167 -1.167 27.854 -1.208 29.02 -0.042 c 1.125 1.146 1.125 26.06 0 27.21 c -0.979 0.979 -25.875 1.417 -28.06 0.5 m 22.479 -23.08 c -2.104 -0.792 -17.562 -0.792 -18.833 0 c -0.75 0.479 -1 2.417 -1.167 9 c -0.125 4.625 -0.063 8.813 0.125 9.313 c 0.292 0.729 2.354 0.917 10.937 0.917 h 10.583 c 0.188 -9.02 1.063 -16.938 -1.646 -19.229"/><path d="m 146.79 163.13 c 0.271 -0.417 0.5 -6.417 0.5 -13.333 c 0.021 -10.875 -0.125 -12.667 -1.042 -13.417 c -5.708 -0.688 -21.15 -1.792 -28.833 0.25 c -1.021 1.021 -1.146 2.479 -1.146 13.25 c 0 10.229 0.167 12.271 1.021 13.13 c 9.229 1.375 17.5 1.354 29.5 0.125 m -25.729 -3.833 c 0 -6.542 0 -13.1 0 -19.646 c 6.625 0 13.25 0 19.875 0 l 0.625 1.646 c 0.667 1.771 0.854 14.417 0.229 16.708 c -7.958 1.854 -13.833 1.833 -20.729 1.292"/></g></svg>