<svg xmlns="http://www.w3.org/2000/svg" viewBox="0 0 48 48"><path d="m 39.578 6.836 c 37.52 49.44 -65.734 56.46 -32.598 5.996 c 7.551 -11.504 22.66 -19.09 32.598 -5.996" fill="#ededed"/><g fill-rule="evenodd"><path d="m 8.168 31.383 c -0.59 -0.137 -0.973 -0.41 -1.156 -0.816 c -0.195 -0.441 -0.086 -0.809 0.27 -0.887 c 0.262 -0.055 0.629 0.227 0.902 0.695 c 0.242 0.41 0.434 0.617 0.707 0.758 c 0.785 0.402 1.398 -0.199 1.746 -1.723 c 0.254 -1.113 0.379 -2.344 0.492 -4.875 c 0.066 -1.465 0.125 -2.285 0.188 -3.277 c 0.012 -0.215 -2.145 0.09 -2.176 -0.535 c -0.027 -0.648 2.238 -0.832 2.25 -1 c 0.219 -2.883 0.504 -3.543 1.234 -4.332 c 0.789 -0.855 1.777 -1.398 2.684 -1.473 c 0.484 -0.043 0.746 0.082 0.895 0.422 c 0.164 0.387 0.105 0.652 -0.172 0.777 c -0.227 0.105 -0.473 0.055 -0.895 -0.172 c -0.359 -0.195 -0.59 -0.23 -0.723 -0.113 c -0.121 0.109 -0.328 0.645 -0.441 1.137 c -0.207 0.902 -0.262 1.418 -0.266 2.543 c 0 1.016 -0.211 1.125 0.063 1.273 c 0.102 0.059 1.266 -0.371 1.191 0.465 c -0.059 0.633 -1.074 0.574 -1.152 0.746 c -0.238 0.496 -0.375 1.43 -0.461 3.129 c -0.059 1.148 -0.148 2.059 -0.285 2.836 c -0.336 1.887 -1 3.473 -1.648 3.922 c -0.684 0.473 -2.309 0.723 -3.246 0.5"/><path d="m 16.539 28.648 c -0.242 -0.238 -0.617 -0.84 -0.855 -1.379 c -0.828 -1.879 -0.934 -4.523 -0.266 -6.82 c 0.195 -0.676 0.465 -1.355 0.73 -1.848 c 0.594 -1.094 1.555 -2.117 1.816 -1.934 c 0.059 0.039 0.074 0.137 0.07 0.406 c -0.008 0.391 -0.059 0.605 -0.402 1.742 c -0.508 1.68 -0.555 2.168 -0.617 6.129 c -0.047 3.03 -0.098 3.891 -0.238 3.891 c -0.027 0 -0.133 -0.086 -0.238 -0.188"/><path d="m 18.598 27.19 c -0.543 -0.137 -0.801 -0.801 -0.5 -1.285 c 0.199 -0.328 0.523 -0.469 1.156 -0.508 c 0.578 -0.035 0.637 -0.066 0.844 -0.449 c 0.258 -0.477 0.246 -1.168 -0.031 -1.617 c -0.246 -0.406 -0.375 -0.742 -0.422 -1.102 c -0.145 -1.098 0.445 -2.051 1.27 -2.055 c 0.477 0 0.77 0.34 0.965 1.129 c 0.121 0.488 0.246 0.738 0.379 0.738 c 0.133 0 0.348 -0.215 0.691 -0.691 c 0.609 -0.844 1.031 -1.137 1.578 -1.102 c 0.238 0.02 0.328 0.047 0.43 0.148 c 0.191 0.195 0.266 0.398 0.266 0.719 c 0 0.586 -0.188 0.75 -1.059 0.926 c -0.707 0.145 -1.227 0.363 -1.441 0.602 c -0.445 0.496 -0.496 1.707 -0.105 2.543 c 0.301 0.633 0.465 0.625 1.535 -0.066 c 0.781 -0.508 0.918 -0.523 0.918 -0.102 c 0 0.559 -1.105 1.758 -1.953 2.125 c -0.461 0.199 -0.93 0.063 -1.727 -0.496 c -0.254 -0.18 -0.406 -0.25 -0.574 -0.266 c -0.211 -0.023 -0.254 -0.008 -0.621 0.258 c -0.535 0.383 -0.723 0.484 -1.055 0.547 c -0.313 0.063 -0.316 0.063 -0.543 0.008"/><path d="m 25.832 28.68 c 0 -0.059 0.086 -0.406 0.188 -0.77 c 0.59 -2.066 0.879 -4.277 0.883 -6.746 c 0 -1.555 -0.039 -2.141 -0.215 -3.215 c -0.109 -0.668 -0.117 -0.949 -0.027 -1.184 c 0.094 -0.242 0.227 -0.273 0.484 -0.109 c 0.496 0.313 1.16 1.605 1.445 2.816 c 0.195 0.82 0.262 1.473 0.266 2.516 c 0.004 1.918 -0.313 3.305 -1.059 4.66 c -0.379 0.688 -1.074 1.57 -1.504 1.914 c -0.309 0.246 -0.461 0.285 -0.461 0.117"/><path d="m 31.941 22.03 c -0.84 -0.086 -1.184 -0.328 -1.137 -0.809 c 0.031 -0.352 0.316 -0.625 0.867 -0.824 c 0.406 -0.148 0.789 -0.203 1.715 -0.262 c 1.688 -0.328 3.531 -0.785 3.492 1.164 c 0.023 0.344 -0.938 0.371 -1.043 0.445 c -0.402 0.273 -2.496 0.43 -3.891 0.285"/><path d="m 32.28 25.926 c -1.051 -0.148 -1.707 -0.336 -2.078 -0.59 c -0.473 -0.324 -0.535 -0.512 -0.211 -0.641 c 0.676 -0.27 4.215 -0.676 5.586 -0.641 l 1.176 0.418 c -0.016 0.668 -0.809 1.07 -1.223 1.375 c -0.234 0.129 -0.258 0.129 -1.5 0.141 c -0.828 0.004 -1.43 -0.016 -1.75 -0.063"/></g><path d="m 240.51 890.26 c 0 0 -40.19 90.17 -104.25 92.21 c -64.06 2.063 -64.06 39.35 -68.42 56.979" transform="matrix(0.1875 0 0 0.1875 -0.006 -149.51)" fill="#ededed" stroke="#6e9bd0" stroke-width="9.38"/></svg>