<svg xmlns="http://www.w3.org/2000/svg" viewBox="0 0 48 48"><path d="m 11.281 5.129 c 24.551 -17.188 49.43 14.555 29.422 34.801 c -18.848 19.07 -48.13 1.391 -38.973 -22.348 c 1.906 -4.953 5.04 -9.297 9.551 -12.453" fill="#f60"/><g fill="#fff" stroke="#fff"><path d="m 54.21 10.367 c -13.257 -0.078 -29.27 -0.137 -35.585 -0.137 l -11.498 -0.039 v -3.75 c 0 -4.14 0.049 -4.843 0.521 -6.796 c 0.423 -1.738 1.401 -3.672 2.329 -4.55 c 0.391 -0.371 0.945 -0.781 1.221 -0.879 c 0.358 -0.137 3.876 -0.176 12.524 -0.137 l 12.02 0.059 l 0.472 0.371 c 0.7 0.586 1.808 2.344 3.436 5.507 c 0.814 1.601 1.563 2.988 1.661 3.086 c 0.13 0.156 6.189 0.195 23.973 0.195 c 16.856 0 23.924 0.059 24.25 0.195 c 0.831 0.332 1.791 1.406 2.443 2.734 c 0.57 1.113 1.091 2.754 1.27 3.925 l 0.065 0.391 l -7.524 -0.039 c -4.12 -0.02 -18.338 -0.078 -31.595 -0.137" transform="matrix(0.23986 0 0 0.20002 11.625 14.399)" stroke-linejoin="round" stroke-linecap="round" stroke-width="0.706"/><path d="m 37.596 835.77 h 97.98 c 4.833 0 8.75 3 8.75 6.708 v 74.38 c 0 3.708 -3.917 6.708 -8.75 6.708 h -97.98 c -4.813 0 -8.729 -3 -8.729 -6.708 v -74.37 c 0 -3.708 3.917 -6.708 8.729 -6.708" transform="matrix(0.1875 0 0 0.1875 7.509 -138.31)" stroke-width="2.244"/></g><g fill="#f60" stroke="#f60" stroke-linecap="round" stroke-width="0.886" transform="matrix(0.1875 0 0 0.1875 0 -0.002)"><path d="m 121.46 139.63 l -4.104 -3.458 l 1.688 -0.854 c 3.875 -1.979 9.146 -2 12.979 -0.042 c 1.875 0.958 1.875 0.979 0.958 1.688 c -2.646 2.146 -4.708 3.896 -7.417 6.125 c -1.354 -1.146 -2.729 -2.292 -4.104 -3.458"/><path d="m 110.04 130.09 c -1.708 -1.458 -1.729 -1.5 -0.854 -2.208 c 1.896 -1.5 7.25 -3.688 10.833 -4.396 c 6.229 -1.25 13 -0.333 18.75 2.5 c 4.229 2.083 4.396 2.396 2.333 4.167 l -1.729 1.458 l -2.042 -1.292 c -9.333 -4.04 -17.417 -4.083 -25.521 1.271"/><path d="m 100.79 122.3 l -1.667 -1.438 l 1.938 -1.375 c 10.375 -7.438 26.19 -9.5 38.896 -5.125 c 3.042 1.063 7.583 3.333 10.1 5.063 l 1.938 1.333 c -1 1.063 -2.083 2.167 -3.25 3 c -0.188 0 -1.229 -0.625 -2.333 -1.354 c -12.08 -8.167 -29.771 -8.125 -41.75 0.083 c -1 0.688 -1.917 1.271 -2.02 1.271 c -0.75 -0.521 -1.292 -0.979 -1.854 -1.458"/><path d="m 82.06 172.84 c -1.188 -0.333 -1.438 -0.625 -1.438 -1.646 c -0.333 -2.083 1.542 -0.917 2.979 -0.604 c 3.896 0.813 3.583 0.813 5.75 0.167 c 7.167 -4.396 -2.417 -5.833 -5.625 -8.06 c -1.208 -0.625 -2.604 -2.25 -2.667 -3.854 c 0.542 -2 1.417 -3.396 3.208 -4.167 c 0.188 -0.583 6.292 -1 7.417 -0.521 c 1.375 0.479 2.208 0.25 2.417 1.542 c -0.229 1.271 -0.458 1.438 -1.396 1.042 c -5.229 -3.688 -10.625 1.688 -7.104 4.583 c 2.75 1.083 6.875 1.958 8.563 3.958 c 0.833 1.292 0.917 3.167 0.625 4.083 c -1.063 1.313 -2.604 3 -4.375 3.542 c -2.729 0.25 -5.75 0.646 -8.354 -0.042"/><path d="m 99.67 153.8 l 2.104 0.146 c 1.896 0.125 2.167 0.271 2.833 1.688 c 1.729 4.25 3.583 8.896 5.688 12.604 c 0 0.979 0.771 0.813 1.104 -0.208 c 2.438 -4.208 4.438 -9.125 6.06 -12.854 c -0.188 -1.188 0.5 -1.313 2.563 -1.313 h 2.229 c 0 6.333 0 12.688 0 19.04 c -1.042 0 -2.083 0 -3.104 0 v -7.542 c 0 -4.708 -0.167 -7.521 -0.438 -7.521 c -2.333 4.292 -3.813 8.521 -5.688 12.958 c -0.729 1.625 -1.167 2.104 -1.938 2.083 c -2.354 0.042 -2.417 -2.625 -3.229 -3.979 c -4 -7.563 -5.5 -15.583 -5.521 -3.646 l -0.021 7.646 c -0.875 0 -1.771 0 -2.646 0 c 0 -6.646 0 -12.292 0 -19.1"/><path d="m 128.23 154.07 l 3.979 0.042 c 4.771 0.063 6.938 0.208 7.521 0.563 c 3.625 1.292 4.771 5.167 1.646 7.438 c -1.333 0.896 -1.375 1 -0.542 1.25 c 1.042 0.729 2.375 1.521 2.813 2.542 c 0.917 3.708 -1.021 5.375 -3.896 6.5 c -0.125 0.229 -2.833 0.438 -6 0.458 l -5.771 0.063 c 0.083 -6.563 0.146 -12.12 0.229 -18.854 m 11.917 15.438 c 3.104 -5.75 -5.854 -5.167 -8.813 -5.25 c -0.083 2.125 -0.167 4.25 -0.25 6.396 c 2.938 0.021 7.04 0.583 9.06 -1.146 m 0.063 -10.333 c -0.229 -4.208 -6.229 -3.042 -9.08 -3.146 c 0 1.917 0 3.833 0 5.771 c 2.354 0.063 4.896 0.313 7.146 -0.146 c 1.563 -0.125 1.896 -1.25 1.938 -2.479"/><path d="m 149.25 166.95 v -5.938 l -1.438 -0.146 c -1.833 -0.188 -1.896 -1.25 -0.104 -1.833 c 1.625 -0.542 1.917 -0.938 1.646 -2.313 c 0.417 -2.938 6.229 -5.229 8.604 -3.125 c -0.167 0.438 -0.292 0.979 -0.292 1.229 c 0 0.292 -0.583 0.354 -1.521 0.167 c -2.688 -0.5 -3.604 0 -3.729 2 l -0.104 1.729 h 2.02 c 1.833 0 2 0.104 2 1.125 c 0 1 -0.167 1.104 -2 1.104 h -1.979 v 11.958 c -1.042 0 -2.063 0 -3.104 0"/><path d="m 158.1 171.3 c 0 -1.188 0.292 -1.271 2.083 -0.563 c 1.479 0.583 5.25 0.521 6.438 -0.104 c 1.063 -0.563 0.875 -2.125 -0.333 -2.792 c -1.708 -1.125 -3.813 -1.708 -5.458 -2.521 c -1.104 -0.396 -2.646 -1.708 -2.729 -3.063 c 0.875 -3.125 4.04 -4.167 6.313 -4.25 c 1.833 -0.063 5.292 1.083 5.625 1.458 c 0.125 0.146 0 0.354 -0.313 0.458 c -0.563 1.563 -2.188 1.188 -3.396 0.833 c -1.563 -0.688 -2.833 -0.104 -4.208 -0.021 c -2.083 2.396 0.063 2.958 0.854 3.292 c 2.063 1.521 5.729 1.292 7.06 3.521 c 0.25 0.479 0.458 1.25 0.458 1.75 c 0 1.188 -1.75 3.104 -2.979 3.292 c -2.02 0.479 -9.313 1.625 -9.417 -1.292"/></g></svg>