<svg xmlns="http://www.w3.org/2000/svg" viewBox="0 0 48 48"><path d="m 45.566 35.3 c -9.355 22.531 -45.559 12.48 -45.32 -12.07 c -0.363 -22.313 28.422 -30.773 41.04 -14.879 c 6.313 6.871 8.516 18.258 4.277 26.945" fill="#2c3c44"/><g stroke="#2c3c44"><path d="m 194.26 149.78 c 0 28.547 -29.12 51.675 -65.07 51.675 c -35.944 0 -65.07 -23.14 -65.07 -51.675 c 0 -28.533 29.12 -51.675 65.07 -51.675 c 35.944 0 65.07 23.14 65.07 51.675" transform="matrix(0.23246 0 0 0.28256 -5.906 -18.309)" fill="#00bfff"/><path d="m 194.26 149.77 c 0 28.552 -29.14 51.686 -65.06 51.686 c -35.947 0 -65.09 -23.13 -65.09 -51.686 c 0 -28.534 29.14 -51.668 65.09 -51.668 c 35.924 0 65.06 23.13 65.06 51.668" transform="matrix(0.17213 0 0 0.2163 1.929 -8.303)" fill="#2c3c44"/></g><g transform="scale(0.1875)"><path d="m 104.02 128.38 c 0 -43.625 0.063 -44.42 2.479 -43.792 c 4.292 1.146 65.15 42.938 64.67 44.42 c -0.5 1.521 -64.27 43.833 -66.06 43.833 c -0.604 0 -1.083 -20 -1.083 -44.46" fill="#ededed" stroke="#ededed" stroke-width="1.258"/><path d="m 47.771 116.85 h 70.25 c 7.333 0 13.292 5.438 13.292 12.146 v 1.229 c 0 6.708 -5.958 12.146 -13.292 12.146 h -70.25 c -7.333 0 -13.292 -5.438 -13.292 -12.146 v -1.229 c 0 -6.708 5.958 -12.146 13.292 -12.146" fill="#00bfff" stroke="#2c3c44" stroke-width="1.439"/></g></svg>