<svg xmlns="http://www.w3.org/2000/svg" viewBox="0 0 48 48"><path d="m 7.457 38.52 c -32.566 -50.844 64.801 -50.34 33.906 0.852 c -6.191 10.258 -25.12 12.859 -33.906 -0.852" fill="#dcdcdc"/><path d="m 30.699 44.551 c -1.211 -0.59 -1.48 -1.059 -1.48 -2.574 c 0 -0.801 0.129 -1.715 0.348 -2.465 c 0.238 -0.813 0.313 -1.387 0.238 -1.809 c -0.094 -0.512 -0.063 -0.621 0.16 -0.621 c 0.152 0 0.461 0.176 0.688 0.387 c 0.5 0.473 0.531 1.191 0.137 3.414 c -0.313 1.777 -0.242 2.32 0.438 3.328 c 0.273 0.406 0.441 0.734 0.375 0.73 c -0.066 -0.004 -0.473 -0.18 -0.902 -0.391 m -11.11 -0.43 c 0.391 -1.18 0.297 -1.387 -1.43 -3.176 c -1.621 -1.676 -2.359 -3.125 -2.465 -4.824 c -0.066 -1.102 -0.027 -1.324 0.375 -2.102 c 0.25 -0.48 0.598 -0.941 0.777 -1.031 c 0.387 -0.195 0.398 -0.082 0.07 0.793 c -0.645 1.711 -0.246 2.969 1.898 6.01 c 2.039 2.895 2.242 3.504 1.426 4.27 c -0.543 0.508 -0.809 0.535 -0.652 0.059 m 1.887 -1.578 c 0.074 -0.602 0.004 -0.777 -0.688 -1.688 c -3.305 -4.391 -3.668 -5.254 -2.84 -6.797 c 0.125 -0.234 0.387 -0.504 0.578 -0.602 c 0.336 -0.172 0.344 -0.152 0.227 0.508 c -0.281 1.523 -0.109 1.965 1.645 4.262 c 1.633 2.137 2.23 3.961 1.539 4.68 c -0.449 0.465 -0.551 0.387 -0.461 -0.359 m 12.13 0.117 c -1.223 -0.965 -1.445 -2.184 -0.973 -5.344 c 0.266 -1.773 0.199 -2.09 -0.602 -2.871 c -0.289 -0.277 -0.477 -0.551 -0.418 -0.605 c 0.059 -0.055 0.453 0.059 0.879 0.254 c 1.648 0.75 2.023 2.098 1.449 5.219 c -0.383 2.078 -0.297 2.785 0.398 3.215 c 0.227 0.141 0.41 0.316 0.41 0.391 c 0 0.277 -0.656 0.133 -1.145 -0.258 m -10.355 -0.293 c 0.5 -1.223 0.496 -1.414 -0.035 -2.699 c -0.613 -1.477 -0.637 -1.781 -0.176 -2.332 c 0.477 -0.566 0.605 -0.523 0.73 0.262 c 0.059 0.367 0.266 0.918 0.461 1.219 c 0.191 0.297 0.414 0.742 0.484 0.98 c 0.18 0.582 -0.25 1.926 -0.77 2.414 c -0.438 0.41 -0.836 0.5 -0.695 0.156 m 2.887 -0.328 c 0.359 -0.809 0.293 -1.777 -0.18 -2.734 c -0.508 -1.023 -0.527 -1.582 -0.07 -2.125 c 0.469 -0.559 0.598 -0.523 0.719 0.195 c 0.059 0.336 0.336 1.027 0.621 1.531 c 0.555 0.992 0.563 1.52 0.039 2.492 c -0.602 1.117 -1.594 1.68 -1.129 0.641 m 10.359 -1.01 c -0.332 -0.188 -0.656 -0.598 -0.898 -1.129 c -0.363 -0.797 -0.371 -0.898 -0.176 -2.281 c 0.285 -2.027 0.16 -2.309 -1.617 -3.715 c -1.793 -1.418 -2.309 -2.293 -1.652 -2.805 c 0.203 -0.156 0.266 -0.141 0.348 0.102 c 0.285 0.836 0.512 1.07 1.785 1.844 c 2.5 1.523 2.719 2.047 2.391 5.691 l -0.129 1.426 l 0.523 0.414 c 0.289 0.227 0.523 0.488 0.523 0.582 c 0 0.258 -0.531 0.195 -1.098 -0.129 m -23.668 -0.316 c -0.457 -0.602 -0.734 -1.855 -0.75 -3.398 c -0.016 -1.523 0.207 -1.984 1.809 -3.695 c 1.246 -1.336 1.941 -2.496 1.941 -3.246 c 0 -0.773 0.297 -0.785 0.512 -0.023 c 0.266 0.926 -0.004 1.98 -1.055 4.113 c -0.816 1.66 -0.836 1.738 -0.734 2.77 c 0.117 1.207 0.441 2.176 0.953 2.848 c 0.539 0.711 0.305 0.887 -0.406 0.301 c -0.699 -0.578 -1.355 -1.676 -1.535 -2.563 c -0.121 -0.617 -0.309 -0.746 -0.477 -0.332 c -0.188 0.449 -0.105 2.203 0.133 2.949 c 0.266 0.836 0.113 0.941 -0.391 0.277 m 25.73 -2.625 c -0.07 -0.066 -0.129 -0.441 -0.129 -0.84 c -0.008 -1.059 -0.57 -2.172 -2.414 -4.773 c -1.563 -2.199 -1.641 -2.352 -1.555 -2.969 c 0.051 -0.359 0.207 -0.758 0.348 -0.891 c 0.227 -0.211 0.266 -0.191 0.363 0.219 c 0.27 1.125 0.512 1.566 1.734 3.102 c 1.797 2.25 2.199 3.051 2.188 4.348 c -0.008 1.031 -0.301 2.023 -0.535 1.805 m -16.535 -1.223 c 0 -0.125 0.148 -0.535 0.332 -0.91 c 0.387 -0.801 0.434 -1.395 0.109 -1.395 c -0.383 0 -1.09 0.613 -1.547 1.348 c -0.496 0.801 -0.688 0.863 -0.84 0.289 c -0.164 -0.621 0.211 -1.555 0.84 -2.074 c 2.156 -1.777 5.504 -1.902 8.289 -0.316 c 0.863 0.492 1.68 1.289 1.5 1.457 c -0.047 0.043 -0.379 -0.063 -0.734 -0.234 c -0.637 -0.301 -1.586 -0.422 -1.586 -0.199 c 0 0.059 0.238 0.344 0.535 0.629 c 0.504 0.488 0.512 0.52 0.16 0.52 c -0.203 0 -0.645 -0.109 -0.98 -0.238 c -0.809 -0.32 -0.879 -0.195 -0.207 0.383 c 0.305 0.262 0.508 0.52 0.449 0.574 c -0.164 0.152 -1.258 -0.238 -1.762 -0.633 c -0.254 -0.195 -0.641 -0.445 -0.867 -0.559 c -0.367 -0.18 -0.441 -0.16 -0.758 0.215 c -0.445 0.523 -0.504 0.52 -0.758 -0.059 c -0.266 -0.602 -0.426 -0.594 -0.77 0.039 c -0.484 0.902 -1.406 1.664 -1.406 1.164 m -11.578 -1.242 c -0.703 -0.559 -0.844 -0.984 -0.844 -2.574 c 0 -1.777 0.176 -2.113 2.125 -4.152 c 0.703 -0.734 1.43 -1.602 1.609 -1.93 c 0.383 -0.695 0.723 -0.633 0.555 0.098 c -0.18 0.793 -1.188 2.59 -1.891 3.383 c -1.441 1.625 -1.891 3.379 -1.223 4.793 c 0.383 0.82 0.316 0.898 -0.332 0.383 m 30.26 -0.551 c -0.297 -0.852 -1.039 -1.934 -2.496 -3.656 c -1.277 -1.512 -1.953 -2.828 -1.953 -3.816 c 0 -0.41 0.07 -0.746 0.156 -0.746 c 0.082 0 0.273 0.348 0.426 0.773 c 0.172 0.492 0.621 1.133 1.234 1.77 c 2.402 2.496 3.535 4.52 3.262 5.82 c -0.152 0.711 -0.34 0.668 -0.625 -0.145 m -32.14 -0.266 c -0.457 -0.652 -0.641 -1.82 -0.582 -3.68 l 0.055 -1.785 l -0.824 -0.297 c -1.258 -0.449 -2.578 -1.75 -3.109 -3.055 c -0.246 -0.613 0.063 -0.488 1.16 0.457 c 1.488 1.285 2.785 1.797 3.844 1.512 c 0.848 -0.227 2.113 -1.219 2.992 -2.348 c 0.75 -0.965 0.797 -0.996 0.848 -0.59 c 0.078 0.621 -0.477 1.582 -1.727 2.988 c -0.605 0.676 -1.375 1.738 -1.711 2.359 c -0.563 1.039 -0.613 1.234 -0.621 2.543 c -0.008 0.777 0.047 1.609 0.117 1.848 c 0.16 0.535 -0.082 0.563 -0.441 0.047 m 2.746 -0.078 c -0.25 -0.441 -0.215 -1.348 0.082 -2.02 c 0.145 -0.316 0.68 -1.102 1.195 -1.746 c 0.516 -0.645 1.191 -1.691 1.504 -2.328 c 0.598 -1.207 0.652 -0.656 0.84 -0.102 c 0.32 0.945 -0.598 2.684 -1.781 3.742 c -0.832 0.746 -1.344 1.613 -1.344 2.277 c 0 0.539 -0.238 0.625 -0.496 0.172 m 8.777 -2.066 c -0.742 -0.203 -1.48 -0.973 -1.336 -1.402 c 0.148 -0.43 1.035 -0.945 1.637 -0.945 c 0.539 0 0.602 0.23 0.125 0.473 c -0.688 0.344 -0.219 1.16 0.773 1.348 c 0.828 0.156 1.848 -0.203 2.664 -0.938 c 1.199 -1.078 0.961 -0.957 -1.848 -2.715 c -1.605 -1.01 -1.816 -1.805 -1.695 -2.965 c 0.043 -0.434 0.289 -1.215 0.543 -1.73 c 0.254 -0.52 0.457 -1.18 0.449 -1.465 c -0.02 -0.602 0.246 -0.602 0.609 0.004 c 0.223 0.367 0.191 0.523 -0.445 2.02 c -0.375 0.887 -0.648 1.711 -0.598 1.828 c 0.113 0.281 0.594 0.266 1.559 -0.055 c 0.691 -0.23 0.887 -0.238 1.465 -0.063 c 0.539 0.168 0.789 0.172 1.297 0.016 c 0.41 -0.129 1.02 -0.16 1.77 -0.09 c 1.133 0.105 1.828 -0.047 1.828 -0.398 c 0 -0.09 -0.367 -0.527 -0.813 -0.977 c -0.449 -0.449 -0.906 -0.98 -1.016 -1.176 c -0.301 -0.547 -0.293 -1.57 0.016 -1.859 c 0.242 -0.227 0.273 -0.188 0.379 0.461 c 0.102 0.652 0.348 1.047 1.449 2.328 c 0.465 0.539 0.617 1.738 0.281 2.219 c -0.137 0.195 -0.723 1.121 -1.652 1.859 c -0.953 0.75 -2.035 1.336 -2.098 1.551 c -0.242 0.813 2.039 2.059 3.773 2.059 c 0.969 0 1.266 -0.254 1.105 -0.938 c -0.098 -0.414 -0.066 -0.48 0.23 -0.48 c 0.191 0 0.473 0.188 0.633 0.414 c 0.258 0.367 0.262 0.453 0.043 0.824 c -0.621 1.055 -2.453 1.25 -4.508 0.488 c -0.691 -0.254 -1.371 -0.465 -1.512 -0.465 c -0.141 0 -0.781 0.207 -1.422 0.465 c -1.227 0.492 -2.602 0.605 -3.688 0.309 m 5.375 -3.684 c 0.391 -0.773 1.313 -1.496 1.914 -1.496 c 0.328 0 0.555 -0.109 0.68 -0.328 c 0.102 -0.18 0.148 -0.363 0.105 -0.406 c -0.199 -0.184 -1.816 0.793 -2.379 1.438 c -0.508 0.57 -1.281 0.355 -1.621 0.004 c -0.613 -0.652 -1.137 -0.914 -1.137 -0.563 c 0 0.238 1.691 1.898 1.934 1.898 c 0.125 0 0.352 -0.246 0.504 -0.547 m 16.254 2.625 c -0.125 -0.746 -0.762 -1.648 -2.266 -3.23 c -1.395 -1.461 -1.977 -2.348 -2.129 -3.23 c -0.141 -0.832 0.145 -0.859 0.586 -0.059 c 0.18 0.324 0.641 0.871 1.023 1.219 c 0.957 0.859 2.605 2.758 3.102 3.574 c 0.438 0.723 0.512 1.277 0.25 1.922 c -0.23 0.574 -0.449 0.5 -0.566 -0.195 m -23.383 -1.762 c -0.574 -0.543 -0.285 -0.992 0.367 -0.566 c 0.27 0.18 0.605 0.219 1.316 0.148 c 0.625 -0.063 0.992 -0.031 1.066 0.082 c 0.074 0.113 -0.027 0.18 -0.27 0.184 c -0.211 0.004 -0.574 0.109 -0.805 0.23 c -0.594 0.32 -1.285 0.289 -1.676 -0.078 m 11.305 0.156 c -0.184 -0.074 -0.563 -0.141 -0.836 -0.148 c -0.887 -0.254 1.652 -0.273 1.926 -0.559 c 0.289 -0.332 0.668 -0.293 0.668 0.066 c 0 0.668 -0.891 0.992 -1.758 0.641 m 3.348 -0.676 c -0.262 -0.598 0.07 -1.363 1.188 -2.738 c 1.137 -1.398 1.734 -2.402 1.738 -2.93 c 0.008 -0.465 0.395 -0.211 0.555 0.359 c 0.199 0.73 -0.609 2.238 -1.887 3.523 c -0.535 0.535 -1.086 1.223 -1.223 1.523 c -0.207 0.457 -0.266 0.5 -0.371 0.262 m -16.457 -0.715 c -0.094 -0.246 -0.523 -0.824 -0.961 -1.285 c -1.535 -1.625 -2.254 -2.938 -2.254 -4.109 c 0 -0.977 0.293 -0.965 0.613 0.031 c 0.125 0.383 0.641 1.23 1.148 1.879 c 1.734 2.215 2.859 2.313 2.859 3.039 c 0 0.773 -1.164 1.102 -1.406 0.445 m 2.246 -0.035 c -0.52 -0.383 -0.559 -0.859 -0.168 -1.941 c 0.355 -0.973 0.645 -0.734 0.648 0.535 c 0.004 0.527 0.094 1.02 0.211 1.129 c 0.277 0.258 0.266 0.602 -0.02 0.602 c -0.125 0 -0.43 -0.145 -0.672 -0.324 m 10.609 -0.121 c 0 -0.07 0.309 -0.363 0.688 -0.648 c 0.734 -0.555 0.73 -0.547 0.344 -1.965 c -0.289 -1.047 -0.039 -0.926 0.66 0.316 c 0.449 0.797 0.633 1.293 0.563 1.508 c -0.176 0.516 -2.254 1.246 -2.254 0.789 m 13.1 -1.355 c -0.293 -0.387 -1 -1.039 -1.582 -1.453 c -1.246 -0.883 -3.148 -2.629 -3.148 -2.891 c 0 -0.121 0.133 -0.098 0.379 0.066 c 0.777 0.52 2.25 1.41 3.125 1.887 c 1.102 0.602 2.023 1.766 2.023 2.559 c 0 0.293 -0.063 0.531 -0.137 0.531 c -0.074 0 -0.371 -0.316 -0.66 -0.703 m -35.31 -0.402 c -1.207 -0.348 -2.871 -1.738 -3.152 -2.629 c -0.16 -0.504 0.051 -0.441 0.996 0.289 c 1.648 1.281 3.164 1.688 4.344 1.16 c 0.668 -0.297 1.195 -0.898 1.02 -1.168 c -0.172 -0.262 -0.758 -0.188 -0.875 0.113 c -0.059 0.148 -0.191 0.324 -0.289 0.391 c -0.32 0.203 -2.098 0.125 -2.73 -0.121 c -1.332 -0.523 -2.859 -1.887 -2.496 -2.227 c 0.051 -0.051 0.398 0.16 0.777 0.461 c 0.742 0.598 2.277 1.223 2.988 1.215 c 0.34 0 0.219 -0.09 -0.523 -0.375 c -1.039 -0.402 -1.242 -0.527 -2.102 -1.262 c -0.551 -0.477 -1.148 -1.348 -0.926 -1.348 c 0.063 0 0.461 0.207 0.883 0.465 c 2.535 1.523 3.965 1.773 5.918 1.031 c 1.422 -0.539 1.633 -0.473 1.629 0.504 c -0.008 1.301 -0.93 2.664 -2.23 3.297 c -0.621 0.305 -2.484 0.422 -3.23 0.203 m 9.449 -1.055 c -0.973 -0.848 -2.387 -2.785 -2.66 -3.641 c -0.207 -0.641 -0.152 -1.527 0.082 -1.48 c 0.086 0.016 0.285 0.426 0.445 0.906 c 0.16 0.484 0.398 1.035 0.535 1.227 c 0.371 0.535 1.332 1.375 1.566 1.375 c 0.344 0 0.734 -0.652 0.625 -1.051 c -0.113 -0.426 0.273 -0.508 0.605 -0.133 c 0.242 0.273 0.066 3.543 -0.191 3.543 c -0.082 0 -0.539 -0.336 -1.01 -0.746 m 15.848 1.02 c -0.059 -0.156 -0.145 -0.949 -0.367 -1.23 c -0.625 -0.793 -0.273 -1.934 -0.047 -2.578 c 0.23 -0.648 0.504 -0.73 0.504 -0.145 c 0 0.465 0.488 1.32 0.75 1.316 c 0.094 -0.004 0.434 -0.41 0.758 -0.906 c 0.555 -0.848 0.582 -0.965 0.539 -2.117 c -0.023 -0.672 -0.008 -1.219 0.039 -1.219 c 0.141 0 0.711 1.145 0.828 1.652 c 0.168 0.746 -0.27 1.965 -1.148 3.199 c -0.934 1.305 -1.707 2.422 -1.855 2.027 m -3.402 -3.344 c -0.613 -0.488 -1.105 -1.766 -0.957 -2.496 c 0.121 -0.613 0.535 -0.996 1.734 -1.594 c 1.313 -0.66 1.426 -1.633 0.207 -1.805 c -0.496 -0.074 -0.578 -0.168 -0.926 -1.066 c -0.207 -0.543 -0.684 -1.355 -1.063 -1.809 c -0.375 -0.453 -0.613 -0.844 -0.531 -0.871 c 0.172 -0.059 1.156 0.516 2.078 1.211 c 0.906 0.684 2.445 2.535 2.445 2.941 c 0 0.184 0.23 0.605 0.508 0.934 c 0.277 0.328 0.547 0.758 0.598 0.949 c 0.133 0.488 -0.461 1.504 -1.176 2.02 c -0.328 0.234 -0.645 0.605 -0.699 0.82 c -0.137 0.5 -0.469 0.406 -0.539 -0.152 c -0.035 -0.281 0.098 -0.617 0.379 -0.961 c 0.418 -0.262 0.336 -1.016 0.598 -1.418 c 0.25 -0.145 0.199 -0.547 -0.082 -0.648 c -0.266 -0.098 -1.688 0.484 -1.871 0.766 c -0.059 0.09 -0.551 0.68 -0.379 0.797 c 0.301 0.203 2.664 -0.586 2.336 0.031 c -0.199 0.371 -2.207 0.355 -2.105 1.082 c 0.059 0.441 0.219 0.961 0.352 1.152 c 0.316 0.453 0.305 0.516 -0.082 0.516 c -0.176 0 -0.547 -0.176 -0.824 -0.395 m -9.617 -0.875 c -0.109 -0.773 -0.707 -1.07 -1.383 -1.07 c -0.48 0 -2.043 0.266 -1.703 -0.566 c 0.746 -0.145 1.684 -0.063 2.371 -0.25 c 0.414 -0.148 -0.227 -0.598 -0.883 -0.77 c -0.961 -0.25 -1.367 -0.207 -1.367 0.145 c 0 0.168 -0.074 0.348 -0.168 0.402 c -0.324 0.188 -0.156 0.402 0.742 0.941 c 1.516 0.91 1.512 1.246 -0.004 0.617 c -1.59 -0.652 -2.41 -1.559 -2.41 -2.645 c 0 -0.824 0.25 -1.293 1.258 -2.355 c 0.547 -0.574 1.023 -1.266 1.18 -1.707 c 0.242 -0.68 1.039 -1.539 1.426 -1.539 c 0.223 0 0.207 0.059 -0.348 1.281 c -0.387 0.852 -0.504 1.348 -0.504 2.133 c 0 0.914 -0.031 1.012 -0.293 0.91 c -0.648 -0.25 -0.82 -0.242 -1.109 0.059 c -0.527 0.547 -0.23 0.906 0.84 1.027 c 0.512 0.055 1.094 0.184 1.285 0.281 c 0.637 0.316 2.293 2 2.293 2.332 c 0 0.176 -0.254 0.578 -0.563 0.891 l -0.559 0.574 l -0.098 -0.691 m 19.805 0.363 c -0.898 -0.324 -1.969 -1.32 -3.516 -3.27 c -0.621 -0.785 -1.711 -1.914 -2.418 -2.516 c -0.711 -0.598 -1.207 -1.113 -1.105 -1.145 c 0.313 -0.098 1.488 0.418 2.785 1.223 c 1.402 0.867 2.504 1.086 4.04 0.805 c 1.266 -0.23 1.832 -0.559 2.23 -1.289 c 0.418 -0.77 0.762 -0.629 0.586 0.242 c -0.23 1.16 -1.594 2.109 -3.277 2.281 c -0.508 0.051 -0.914 0.164 -0.902 0.25 c 0.035 0.309 1 0.617 2.117 0.68 c 0.973 0.055 1.262 0.004 2.063 -0.363 c 0.828 -0.383 0.984 -0.535 1.457 -1.434 c 0.289 -0.555 0.637 -1.01 0.766 -1.01 c 0.379 0 0.121 1.441 -0.43 2.406 c -0.504 0.887 -1.012 1.207 -2.477 1.551 c -1.012 0.242 -1.059 0.27 -0.746 0.457 c 0.344 0.203 2.117 0.184 2.559 -0.027 c 0.199 -0.098 0.574 -0.359 0.828 -0.582 c 0.309 -0.27 0.516 -0.352 0.629 -0.246 c 0.266 0.254 -0.75 1.559 -1.473 1.887 c -0.871 0.398 -2.75 0.449 -3.719 0.098 m -31.816 -0.34 c -1.199 -0.344 -2.508 -1.289 -2.848 -2.059 c -0.309 -0.707 -0.102 -0.734 0.691 -0.094 c 1.063 0.852 2.09 1.266 3.16 1.27 c 0.879 0.008 1.645 -0.152 1.48 -0.309 c -0.043 -0.039 -0.656 -0.176 -1.363 -0.305 c -0.707 -0.125 -1.605 -0.367 -2 -0.531 c -0.75 -0.32 -1.938 -1.367 -1.75 -1.543 c 0.063 -0.059 0.66 0.156 1.332 0.477 c 1.492 0.715 3.086 1 4.086 0.742 c 0.715 -0.184 2.746 -1.617 2.43 -1.715 c -0.094 -0.027 -0.371 0.066 -0.609 0.215 c -0.484 0.297 -0.652 0.242 -0.492 -0.152 c 0.168 -0.406 2.211 -1.715 2.512 -1.609 c 0.352 0.129 0.172 1.238 -0.426 2.668 c -0.613 1.461 -1.191 2.094 -2.414 2.637 c -0.844 0.375 -1.234 0.453 -2.199 0.441 c -0.645 -0.008 -1.359 -0.066 -1.59 -0.133 m 12.164 -2.699 c -0.797 -0.656 -1.449 -1.621 -1.445 -2.141 c 0 -0.391 0.617 -1.305 0.875 -1.305 c 0.148 0 0.195 0.203 0.156 0.668 c -0.039 0.5 0.043 0.805 0.34 1.219 c 0.57 0.797 1.01 0.797 1.387 0.004 c 0.375 -0.777 0.656 -0.742 0.719 0.086 c 0.055 0.707 -0.559 2.01 -0.977 2.078 c -0.145 0.023 -0.621 -0.25 -1.055 -0.609 m 7.137 -0.023 c -0.824 -0.844 -1.27 -1.906 -0.93 -2.223 c 0.063 -0.063 0.352 0.148 0.637 0.469 c 0.438 0.488 0.594 0.566 0.961 0.477 c 0.348 -0.082 0.469 -0.23 0.559 -0.684 c 0.063 -0.316 0.039 -0.758 -0.055 -0.98 c -0.094 -0.223 -0.23 -0.531 -0.301 -0.691 c -0.23 -0.527 0.621 -0.238 1.043 0.352 c 0.641 0.895 0.449 1.813 -0.637 3.051 c -0.594 0.676 -0.801 0.715 -1.277 0.23 m -18.633 -0.492 c 0 -0.035 0.305 -0.344 0.672 -0.691 c 0.906 -0.852 0.895 -0.902 -0.332 -1.738 c -0.891 -0.605 -1.113 -0.387 -0.355 0.348 c 0.953 0.922 0.531 1.355 -1.328 1.355 c -1.391 0 -3.01 -0.637 -3.01 -1.18 c 0 -0.133 0.285 -0.098 0.953 0.113 c 0.941 0.297 1.938 0.281 2.145 -0.039 c 0.055 -0.078 -0.344 -0.355 -0.887 -0.609 c -0.539 -0.258 -1.215 -0.715 -1.5 -1.02 c -0.883 -0.945 -0.949 -1.773 -0.082 -1.012 c 0.73 0.637 1.238 0.879 2.148 1.031 l 0.852 0.145 l -0.012 -0.879 c -0.016 -1.148 0.391 -1.801 1.625 -2.598 c 0.789 -0.512 1.129 -0.633 1.957 -0.688 c 1.059 -0.074 1.422 0.184 0.547 0.383 c -0.793 0.176 -2 0.816 -2.359 1.238 c -0.738 0.887 -0.527 2.098 0.492 2.793 c 0.434 0.301 0.438 0.301 1.406 -0.184 c 0.969 -0.488 1.793 -0.609 2.254 -0.336 c 0.273 0.164 0.336 0.129 -0.867 0.477 c -0.641 0.184 -0.98 0.504 -1.93 1.785 c -0.59 0.801 -1.418 1.363 -2.01 1.363 c -0.207 0 -0.379 -0.027 -0.379 -0.063 m 14.883 -1.98 c -0.539 -0.953 -1 -1.512 -1.836 -2.203 c -1.145 -0.957 -1.617 -1.676 -1.414 -2.16 c 0.102 -0.25 0.148 -0.238 0.441 0.113 c 0.688 0.828 1.207 1.242 2.188 1.73 l 1.012 0.508 l 0.98 -1 c 0.695 -0.715 0.98 -1.129 0.984 -1.445 c 0.008 -0.336 0.082 -0.434 0.301 -0.395 c 0.559 0.102 0.441 0.91 -0.305 2.098 c -0.426 0.676 -0.836 1.629 -1.066 2.477 c -0.203 0.758 -0.414 1.418 -0.465 1.465 c -0.055 0.047 -0.422 -0.484 -0.82 -1.188 m 13.08 -0.473 c -1.141 -0.199 -2.141 -0.578 -3.379 -1.266 c -0.887 -0.496 -1.156 -0.738 -1.313 -1.176 c -0.25 -0.715 -0.066 -1.781 0.383 -2.238 c 0.535 -0.547 0.828 -0.465 0.695 0.195 c -0.125 0.641 -0.012 0.676 1.039 0.297 c 0.492 -0.176 0.789 -0.203 0.996 -0.094 c 0.262 0.137 0.234 0.184 -0.234 0.41 c -0.383 0.188 -0.531 0.371 -0.531 0.652 c 0 0.387 0.012 0.391 0.492 0.152 c 0.527 -0.254 1.02 -0.313 1.01 -0.121 c -0.004 0.066 -0.113 0.297 -0.246 0.512 c -0.375 0.617 -0.313 1.086 0.168 1.258 c 0.75 0.27 1.523 -0.207 1.688 -1.031 c 0.223 -1.117 -0.535 -2.137 -2.055 -2.773 c -0.973 -0.406 -1.043 -0.598 -0.215 -0.598 c 0.605 0 0.676 -0.039 0.586 -0.305 c -0.063 -0.184 0.078 -0.629 0.352 -1.117 l 0.453 -0.813 l -0.375 -0.813 c -0.207 -0.445 -0.414 -0.898 -0.465 -1 c -0.047 -0.109 -0.012 -0.199 0.078 -0.199 c 0.277 0 1.527 1.375 1.641 1.805 c 0.176 0.652 -0.086 2.121 -0.441 2.453 c -0.309 0.289 -0.301 0.305 0.434 0.781 c 0.957 0.617 1.25 1.164 1.324 2.477 c 0.078 1.371 0.059 1.293 0.324 1.293 c 0.441 0 1.094 -0.801 1.199 -1.48 c 0.117 -0.719 0.332 -1.164 0.496 -1.012 c 0.055 0.055 0.145 0.598 0.199 1.211 c 0.082 0.898 0.047 1.191 -0.188 1.527 c -0.566 0.813 -2.527 1.297 -4.113 1.016 m -30.25 -2.039 c -0.902 -0.516 -1.352 -1.469 -1.152 -2.457 c 0.137 -0.699 0.453 -0.629 0.648 0.141 c 0.098 0.387 0.359 0.734 0.797 1.063 c 1.078 0.801 0.82 1.895 -0.293 1.258 m 5.406 0.176 c -0.063 -0.09 0.043 -0.211 0.23 -0.266 c 0.484 -0.145 0.27 -0.348 -0.496 -0.469 c -0.359 -0.059 -0.746 -0.207 -0.855 -0.332 c -0.168 -0.188 -0.051 -0.223 0.73 -0.223 c 0.512 0 1.063 -0.047 1.223 -0.105 c 0.242 -0.086 0.188 -0.145 -0.266 -0.285 c -0.895 -0.285 -0.781 -0.5 0.32 -0.617 c 1.211 -0.129 2.242 0.098 2.793 0.621 c 0.48 0.449 0.508 0.855 0.094 1.336 c -0.27 0.316 -0.496 0.363 -1.984 0.43 c -1.086 0.051 -1.719 0.02 -1.789 -0.09 m 5.145 -1.316 c 0.031 -0.633 -0.539 -1.027 -2.359 -1.625 c -3.148 -1.039 -3.605 -1.234 -4.242 -1.801 c -0.688 -0.613 -0.875 -1.313 -0.457 -1.707 c 0.293 -0.273 0.469 -0.23 0.469 0.117 c 0 0.563 2.133 1.734 4.02 2.211 c 1.01 0.254 2.328 0.887 2.891 1.383 c 0.488 0.434 0.602 1.066 0.289 1.617 c -0.281 0.488 -0.633 0.375 -0.605 -0.195 m 13.438 -0.301 c -0.637 -1.01 0 -2.395 1.734 -3.781 c 1.395 -1.109 1.645 -1.875 1.012 -3.043 c -0.402 -0.742 -0.316 -0.875 0.293 -0.453 c 0.953 0.656 1.34 2.203 0.801 3.187 c -0.137 0.246 -0.84 0.969 -1.566 1.605 c -1.543 1.355 -1.777 1.703 -1.629 2.434 c 0.137 0.695 -0.223 0.723 -0.645 0.051 m -23.24 -0.254 c -0.652 -0.707 -0.816 -1.555 -0.445 -2.32 c 0.27 -0.555 0.414 -0.5 0.535 0.195 c 0.059 0.34 0.32 0.828 0.605 1.133 c 0.457 0.477 0.484 0.566 0.277 0.855 c -0.305 0.434 -0.652 0.48 -0.973 0.137 m 31.578 -0.441 c -0.195 -0.273 -0.238 -0.52 -0.145 -0.824 c 0.07 -0.238 0.121 -0.875 0.113 -1.418 c -0.016 -0.906 0.008 -0.969 0.293 -0.828 c 0.391 0.199 1.01 1.387 1.01 1.945 c 0 0.617 -0.441 1.52 -0.742 1.52 c -0.141 0 -0.379 -0.176 -0.527 -0.395 m -16.48 -0.438 c 0 -0.211 -0.449 -0.867 -1.098 -1.598 c -1.891 -2.141 -2.262 -3.01 -1.77 -4.129 c 0.117 -0.262 0.395 -0.559 0.621 -0.652 c 0.461 -0.199 0.473 -0.18 0.223 0.336 c -0.328 0.676 0.09 1.582 1.336 2.91 c 0.625 0.668 1.223 1.367 1.332 1.555 c 0.277 0.492 0.242 1.402 -0.07 1.691 c -0.367 0.348 -0.574 0.309 -0.574 -0.113 m 6.566 -0.113 c -0.5 -0.75 -0.621 -1.488 -0.387 -2.352 c 0.164 -0.609 0.152 -0.824 -0.074 -1.34 c -0.305 -0.684 -0.227 -1.395 0.203 -1.844 c 0.371 -0.383 0.559 -0.359 0.559 0.074 c 0 0.199 0.121 0.52 0.266 0.715 c 0.211 0.285 0.316 0.32 0.504 0.176 c 0.488 -0.383 0.199 -2.141 -0.434 -2.621 c -0.5 -0.375 0.043 -0.191 0.676 0.23 c 0.777 0.52 1.5 1.688 1.5 2.422 c -0.004 0.578 -0.289 1.051 -1.141 1.879 c -0.766 0.742 -1.027 1.262 -1.176 2.313 l -0.129 0.898 m -11.18 -0.723 c -0.262 -0.258 -1.129 -0.883 -1.922 -1.387 c -3.086 -1.949 -3.77 -2.645 -3.387 -3.43 c 0.223 -0.465 0.453 -0.457 0.578 0.016 c 0.098 0.371 1.355 1.34 3.613 2.789 c 1.164 0.746 1.848 1.535 1.848 2.129 c 0 0.48 -0.145 0.457 -0.73 -0.117 m -9.555 -0.176 c -0.34 -0.453 -0.359 -1.852 -0.027 -1.852 c 0.125 0 0.277 0.176 0.336 0.391 c 0.059 0.211 0.328 0.543 0.605 0.734 c 0.578 0.402 0.633 0.684 0.176 0.914 c -0.496 0.25 -0.805 0.195 -1.09 -0.188 m 15.551 -0.492 c -0.004 -0.652 -0.164 -1.145 -0.711 -2.215 c -0.863 -1.691 -0.953 -2.703 -0.293 -3.32 c 0.391 -0.367 0.938 -0.527 0.926 -0.27 c -0.004 0.066 -0.117 0.254 -0.25 0.422 c -0.371 0.461 -0.301 0.891 0.277 1.75 c 1.105 1.633 1.434 3.305 0.801 4.059 c -0.535 0.641 -0.738 0.527 -0.746 -0.426 m -4.578 -0.625 c -0.223 -0.336 -0.883 -0.816 -1.863 -1.355 c -0.836 -0.461 -1.629 -0.988 -1.762 -1.168 c -0.379 -0.504 -0.297 -1.988 0.105 -1.988 c 0.082 0 0.152 0.219 0.152 0.484 c 0 0.773 0.262 1.051 2.01 2.113 c 1.578 0.961 2.172 1.559 2.172 2.191 c 0 0.422 -0.461 0.266 -0.816 -0.277 m 6.676 -0.078 c 0 -0.238 -0.148 -0.836 -0.332 -1.328 c -0.387 -1.031 -0.414 -1.488 -0.141 -2.348 c 0.188 -0.582 1.078 -1.5 1.277 -1.316 c 0.047 0.047 -0.047 0.316 -0.207 0.602 c -0.277 0.48 -0.281 0.57 -0.027 1.367 c 0.309 0.977 0.34 1.879 0.098 2.703 c -0.215 0.727 -0.668 0.945 -0.668 0.32"/></svg>