<svg xmlns="http://www.w3.org/2000/svg" viewBox="0 0 48 48"><path d="m 10.855 42.953 c 23.766 17.06 49.28 -14.445 30.09 -34.543 c -18.07 -18.934 -47.531 -1.379 -39.17 22.18 c 1.742 4.914 4.719 9.23 9.08 12.359" fill="#1aafde"/><path d="m 198.01 139.93 c 0 35.432 -29.715 64.15 -66.36 64.15 c -36.667 0 -66.38 -28.714 -66.38 -64.15 c 0 -35.432 29.715 -64.15 66.38 -64.15 c 36.649 0 66.36 28.714 66.36 64.15" transform="matrix(0.2152 0 0 0.21399 -4.272 -5.167)" fill="#b4e7f5" stroke="#b4e7f5" stroke-width="2.873"/><path d="m 20.625 38.832 c -6.176 -0.945 -10.207 -5.289 -11.328 -11.238 c -0.242 -1.277 -0.242 -3.797 0 -5.191 c 0.535 -3.086 2.066 -6.03 4.168 -8.01 c 3.477 -3.27 8.246 -4.594 13.59 -3.777 c 3.188 0.488 4.953 1.172 6.789 2.633 c 2.23 1.773 3.68 4.074 4.488 7.113 c 0.371 2.484 0.652 4.332 0.113 6.879 c -0.676 3.113 -1.938 5.781 -3.598 7.609 c -1.738 1.914 -4.75 3.438 -7.77 3.93 c -1.98 0.246 -4.621 0.332 -6.453 0.051 m 5.797 -0.906 c 3.305 -0.578 6.453 -2.383 8.23 -4.711 l 2.418 -4.395 l -0.465 0.293 c -1.277 0.805 -2.953 4.828 -4.18 5.484 c -1.422 -0.004 -0.59 -0.906 -2.496 -3.629 l -0.008 -1.738 c -0.008 -1.508 -0.039 -1.77 -0.23 -1.984 c -0.289 -0.32 -0.797 -0.32 -1.715 0 c -0.395 0.137 -0.836 0.219 -0.984 0.184 c -0.145 -0.035 -0.684 -0.602 -1.195 -1.25 c -0.891 -1.137 -0.926 -1.207 -0.855 -1.68 c 0.117 -0.77 0.746 -1.941 1.332 -2.488 c 0.375 -0.344 0.781 -0.57 1.352 -0.746 c 1.055 -0.328 1.152 -0.324 1.695 0.113 c 0.363 0.289 0.578 0.363 1.02 0.363 c 0.633 -0.004 1.418 -0.32 1.766 -0.719 c 0.219 -0.246 0.223 -0.277 0.035 -0.465 c -0.168 -0.168 -2.359 -0.828 -3.621 -1.094 c -0.27 -0.055 -0.438 0.059 -1.105 0.742 c -0.766 0.781 -0.961 0.883 -1.359 0.73 c -0.289 -0.113 -0.234 -0.352 0.238 -1.07 c 0.234 -0.355 0.461 -0.863 0.5 -1.129 c 0.043 -0.262 0.125 -0.574 0.188 -0.695 c 0.148 -0.293 1.223 -0.969 1.977 -1.25 c 0.855 -0.313 0.988 -0.434 0.719 -0.633 c -0.332 -0.242 -0.578 -0.191 -1.082 0.207 c -0.453 0.363 -0.949 0.477 -1.09 0.254 c -0.039 -0.066 0.094 -0.465 0.293 -0.887 c 0.289 -0.613 0.477 -0.84 0.922 -1.109 c 0.996 -0.602 2.48 -1.406 3.402 -0.926 c 0.199 0.105 1.012 0.984 1.934 1.813 c 0.926 0.832 1.254 2.141 1.336 2.141 c 0.695 0.008 1.746 2.543 2.01 4.859 c 0.16 1.406 0.102 3.656 -0.133 4.895 c -0.195 1.035 -0.055 0.988 0.184 -0.063 c 0.551 -2.43 0.512 -4.793 -0.125 -7.02 c -1.242 -4.359 -4.645 -7.652 -8.895 -8.598 c -1.121 -0.254 -3.059 -0.453 -3.059 -0.316 c 0 0.043 0.063 0.18 0.141 0.305 c 0.277 0.441 0.008 0.824 -1.504 2.141 c -0.816 0.711 -1.551 1.293 -1.629 1.293 c -2.395 1.492 -1.898 -2.043 -2.121 -2.148 c -2.039 -0.949 1.797 -1.074 2.656 -1.352 c 0.352 -0.113 1.688 -0.195 1.688 -0.25 c 0 -0.293 -3.539 0 -5.195 0.527 c -4.309 1.371 -7.48 4.23 -8.797 7.938 c -1.441 4.063 -0.891 9 1.566 12.719 c 1.102 1.664 3.316 3.254 5.246 4.227 c 0.797 0.402 2.43 0.902 3.641 1.117 c 1.336 0.234 4.02 0.238 5.355 0.004 m -7.801 -1.824 c -0.727 -0.766 -0.859 -1.082 -1.129 -2.68 c -0.129 -0.773 -0.297 -1.531 -0.375 -1.684 c -0.078 -0.156 -0.656 -0.805 -1.281 -1.445 c -1.176 -1.184 -1.242 -0.781 -0.828 -2.301 c 0.293 -1.082 0.297 -1.152 0.098 -1.375 c -0.113 -0.129 -0.43 -0.289 -0.703 -0.359 c -1.082 -0.281 -2.176 -2.359 -2.059 -2.555 c 1.324 -2.227 0.949 1.582 1.691 2.078 c 0.859 0.574 1.328 0.621 1.855 0.176 l 0.363 -0.309 l 0.949 0.352 c 1.598 0.594 3.203 0.523 3.203 0.676 c 0 0.082 1.855 2.109 1.754 2.406 c -0.098 0.297 -0.371 1.613 -0.602 2.926 c -0.57 3.227 -0.672 3.535 -1.359 4.145 c -0.309 0.273 -0.672 0.496 -0.809 0.496 c -0.137 0 -0.48 -0.246 -0.77 -0.547 m -7.973 -13.789 c 0 -0.363 0.223 -2.656 1.016 -3.902 c 1.262 -1.973 1.984 -2.953 3.246 -3.746 c 0.293 -0.184 2.211 -0.16 2.293 -0.523 c 0.164 -0.742 1.188 1.035 1.383 1.77 c 0.293 1.098 -0.313 2.523 -1.516 3.555 c -1.223 1.051 -2.438 2.328 -2.656 2.801 c -0.223 0.469 -1.277 1.84 -1.277 1.594" fill="#125199"/></svg>