<svg xmlns="http://www.w3.org/2000/svg" viewBox="0 0 48 48"><g fill="#ececec"><path d="m 2.461 35.08 c 9.262 22.309 45.12 12.359 44.879 -11.945 c 0.359 -22.09 -28.14 -30.465 -40.641 -14.73 c -6.25 6.805 -8.434 18.08 -4.234 26.676"/><g stroke="#b0b0b0"><path d="m 212.13 134.17 c 0.018 43.54 -37.01 78.84 -82.66 78.84 c -45.654 0 -82.66 -35.3 -82.64 -78.84 c -0.018 -43.54 36.988 -78.86 82.64 -78.86 c 45.654 0 82.68 35.32 82.66 78.86" transform="matrix(0.21185 0 0 0.22851 -3.237 -6.503)" stroke-width="3.89"/><path d="m 212.14 134.17 c 0 43.552 -37 78.85 -82.67 78.85 c -45.642 0 -82.67 -35.3 -82.64 -78.85 c -0.023 -43.552 37 -78.85 82.64 -78.85 c 45.666 0 82.67 35.3 82.67 78.85" transform="matrix(0.16723 0 0 0.18037 2.891 0.074)" stroke-width="6.647"/><path d="m 212.12 134.18 c 0.032 43.539 -37 78.84 -82.64 78.84 c -45.666 0 -82.67 -35.3 -82.67 -78.84 c 0 -43.569 37 -78.872 82.67 -78.872 c 45.634 0 82.67 35.3 82.64 78.872" transform="matrix(0.12087 0 0 0.12758 8.819 7.081)" stroke-width="8.687"/></g></g><g stroke="#5a5b70"><path d="m 221.38 -41.901 l 44.44 0.013 c 10.532 -0.006 19.03 7.691 19.05 17.17 l -0.008 46.01 c -0.001 9.493 -8.517 17.193 -19.03 17.19 h -44.47 c -10.508 -0.006 -19.03 -7.691 -19.03 -17.18 l -0.017 -45.994 c 0.001 -9.493 8.517 -17.193 19.05 -17.199" transform="matrix(0.12606 0.06386 -0.06706 0.12593 -2.26 0.338)" fill="#e4e4e4" stroke-width="3.311"/><path d="m 81.15 205.69 c -0.771 -0.583 -2.042 -5.25 -3.75 -13.938 c -5.667 -15.917 0.667 -16.08 12.146 -20.02 c -1.25 -19.15 -1.396 -20.15 9.04 -23.917 c 2.188 -1.25 4.292 -2.771 4.708 -3.396 c 0.563 -0.854 0.833 -3.063 1.125 -9.08 c 0.208 -4.396 0.479 -8.625 0.625 -9.438 c 0.125 -0.813 9.896 -6.04 8 -8.833 c -2.104 -3.854 -2.125 -3.479 -5.604 -5.938 c -3.854 -2.75 -5.708 -5.125 -6.125 -7.875 c -0.25 -1.708 -0.063 -2.563 1.167 -5.188 c 2.208 -4.75 6.917 -11.5 10.938 -15.667 c 2.396 -2.5 5.167 -6.208 8.375 -11.25 c 2.625 -4.146 9.354 -13.812 9.458 -13.708 c 0.125 0.104 -6.04 9.896 -8.208 13.958 c -4.854 9.167 -4.917 9.354 -3.104 10.896 c 4.02 3.417 21.646 13.792 23.417 13.792 c 1.729 0 2.875 -2.458 2.875 -6.167 c 0 -4.896 1.458 -7.292 5.646 -9.354 c 2.563 -1.271 2.979 -2.042 2.313 -4.5 c -0.438 -1.708 0.167 -3.979 0.958 -5.833 c 1.208 -2.833 3.708 -1 4.667 -3.104 c 4.896 -10.625 9.438 -13.792 0.958 0.417 c -0.333 0.542 -0.313 1.292 -0.75 1.292 c -3.479 1.417 -5.063 3.02 -4.063 6.375 c 0.417 1.417 0.375 2 -0.292 3.292 c -1.188 2.354 -2.02 3.167 -3.625 3.458 c -3.063 0.604 -4.167 2.583 -3.708 6.688 c 0.271 2.292 0.146 2.938 -0.958 5.04 c -1.75 3.354 -1.229 4.438 3.646 7.688 c 4.354 2.896 11.417 7.02 16.521 9.667 c 3.396 1.729 3.625 1.792 4.438 1.063 c 0.479 -0.438 3.938 -5.979 7.708 -12.354 c 3.813 -6.458 9.542 -20.25 9.625 -19.833 c 0.188 0.854 -4.458 13.979 -9.188 22.417 c -4.063 7.229 -5.229 10.08 -5.833 14.208 c -0.729 5.083 -1.417 6.771 -5.438 13.5 c -4.813 8.06 -6.02 9.146 -10.04 9.125 c -1.229 0 -3.354 -0.417 -4.75 -0.917 c -3.375 -1.188 -4.667 -1.146 -5.625 0.208 c -1.604 2.208 -8.479 13.729 -14.833 24.833 c -3.583 6.229 -10.229 17.625 -14.771 25.313 l -8.25 13.938 l -6.229 0.313 c -3.917 0.167 -9.271 0.854 -14.375 1.813 c -6.083 1.146 -8.313 1.396 -8.833 1.021" transform="scale(0.1875)" fill="#5a5b70" stroke-width="2.151"/></g><g fill="#52535d" stroke="#52535d" stroke-width="0.589" transform="scale(0.1875)"><path d="m 165.98 88.88 c -2 -1.042 -2.771 -1.896 -3.354 -3.646 c -0.688 -2.104 -0.625 -2.5 0.896 -5.542 c 2.208 -4.438 3.646 -4.917 8.08 -2.729 c 2.354 1.146 3.604 2.188 4.229 3.542 c 0.854 1.771 0.833 2.063 -0.375 4.438 c -1.708 3.333 -3.75 5.313 -5.479 5.313 c -0.771 0 -2.563 -0.604 -4 -1.375"/><path d="m 137.83 73.5 c -2 -1.063 -2.771 -1.896 -3.354 -3.646 c -0.688 -2.104 -0.625 -2.521 0.896 -5.563 c 2.208 -4.417 3.646 -4.896 8.08 -2.729 c 2.354 1.167 3.604 2.208 4.229 3.542 c 0.854 1.771 0.833 2.063 -0.375 4.438 c -1.708 3.333 -3.75 5.333 -5.479 5.333 c -0.771 0 -2.583 -0.625 -4 -1.375"/></g></svg>