<svg xmlns="http://www.w3.org/2000/svg" viewBox="0 0 48 48"><path d="m 36.516 42.652 c -17.66 15.66 -44.832 -9.04 -33.844 -29.715 c 11.11 -20.906 47.867 -15.332 44.742 10.34 c -0.934 7.637 -5.137 14.27 -10.898 19.379" fill="#81d62f"/><path d="m 15.01 34.602 c -1.422 -1.434 -1.973 -2.273 -2.742 -4.164 c -1.461 -3.586 -1.977 -7.59 -1.367 -10.617 c 0.395 -1.957 0.953 -3.691 1.391 -4.332 c 0.387 -0.57 1.363 -1.426 2.156 -1.895 c 0.73 -0.43 0.777 -0.254 0.063 0.242 c -1.535 1.066 -2.34 2.648 -2.027 3.996 c 0.344 1.496 1.01 2.543 2.574 4.066 c 3.227 3.133 5.652 4.461 10.07 5.496 c 2.273 0.535 3.891 0.703 6.01 0.617 c 2.992 -0.121 4.625 -0.703 5.938 -2.129 c 1.02 -1.102 1.313 -1.953 1.211 -3.508 c -0.043 -0.652 -0.121 -1.344 -0.176 -1.543 l -0.363 -1.16 l 0.191 0.094 c 0.535 0.262 1.125 2.898 1.129 3.777 c 0 1.449 -0.707 3.992 -1.637 5.879 c -0.75 1.512 -1.586 2.664 -2.805 3.859 c -1.191 1.168 -1.82 1.641 -3.152 2.355 c -4.871 3.738 -12.289 3.086 -16.465 -1.035 m 12.137 -7.305 c -0.809 -0.098 -1.027 -0.328 -0.645 -1.086 c 0.27 -0.535 0.195 -1.465 0.363 -3.105 c 0.047 -0.457 0.145 -0.832 0.215 -0.832 c 0.07 0 0.195 0.277 0.281 0.613 c 0.027 1.23 0.82 3.379 1.387 4.383 c -0.086 0.227 -0.152 0.227 -1.602 0.027 m 2.199 0.031 c -0.332 -0.207 -0.633 -0.926 -1.055 -2.527 c -0.188 -0.715 -0.441 -1.617 -0.563 -2.01 c -0.207 -0.66 -0.656 -3.137 -0.656 -3.621 c 0 -0.359 0.254 -0.25 0.902 0.383 c 0.34 0.328 1.066 0.895 1.617 1.254 c 0.555 0.359 1.535 1.402 1.973 1.828 c 1.211 1.176 4.34 3.5 3.672 2.723 c -0.332 -0.387 -3.656 -3.313 -3.617 -3.375 c 0.09 -0.145 -0.848 -0.898 -2.488 -1.996 c -0.941 -0.633 -1.359 -1 -1.426 -1.27 c -0.063 -0.246 -0.023 -0.418 0.105 -0.504 c 0.488 -0.313 2.445 -1.539 3.629 -1.75 c 1.445 -0.258 0.117 -0.117 2.047 0.555 c 3.047 1.344 1.914 1.867 3.289 2.918 c 0.262 0.262 0.688 0.734 0.688 0.965 c 0 0.211 0.07 0.512 0.156 0.672 c 0.387 0.73 0.109 2.387 -0.527 3.125 c -0.398 0.379 -0.984 1.152 -1.547 1.059 c -0.234 -0.043 -0.313 0.289 -0.523 0.578 c -0.445 0.602 -1.871 1 -3.836 1.086 c -1.012 0.039 -1.68 0.004 -1.84 -0.094 m 7.086 -7.254 c 0.027 -0.082 -3.297 -0.691 -3.84 -0.727 c -0.535 -0.031 -1.492 -0.199 -2.129 -0.371 c -1.191 -0.316 -2.52 -0.426 -2.078 -0.168 c 0.258 0.148 2.512 0.668 3.305 0.762 c 0.984 0.113 4.563 1.07 4.742 0.504 m -13.352 6.03 c -2.488 -0.84 -4.813 -2.121 -4.805 -2.648 c 0.008 -0.285 0.227 -0.457 2.031 -1.559 c 1.48 -0.902 5.719 -3.078 6.01 -3.086 c 0.469 -0.008 0.008 6.484 -0.531 7.488 c -0.238 0.445 -0.965 0.391 -2.703 -0.195 m -6.199 -3.789 c -0.59 -0.32 -1.461 -1.695 -1.738 -2.152 c 0.633 -0.816 6.637 -2.25 8.395 -2.133 c 0.926 -0.109 3.01 -0.543 2.258 0.395 c -4.191 2.039 -4.598 1.918 -7.656 4.172 c -0.563 0.629 -0.82 0.098 -1.258 -0.281 m 18.625 -4.672 c -0.078 -0.07 -3.059 -1.793 -2.895 -1.969 c 0.148 -0.148 2.789 1.41 2.988 1.648 c 0.145 0.176 2.01 1.895 1.891 2 c -0.211 0.191 -1.586 -1.309 -1.984 -1.684 m -5.781 -3.438 c -0.98 -0.563 -3.23 -1.109 -2.258 -1.141 c 1.367 -0.039 5.539 2.586 4.723 2.406 c -0.484 -0.105 -2.09 -1.055 -2.465 -1.266 m -7.41 -1.238 c -2.496 -0.289 -7.566 0.633 -6.832 0.102 c 0.367 -0.266 6.738 -0.875 11.309 -0.133 c 0.313 0.051 -0.078 0.543 -4.477 0.031" fill="#298212"/><path d="m 117.87 202.37 l -2.951 -0.298 l 0.406 -5.303 c 0.379 -5.167 0.352 -5.33 -1.3 -5.763 c -4.954 -1.272 -12.968 -6.223 -18.356 -11.309 c -6.471 -6.06 -9.882 -10.632 -16.08 -21.508 c -3.844 -6.655 -4.521 -8.468 -6.146 -16.26 c -2.382 -11.363 -3.601 -25.891 -2.924 -34.819 l 0.541 -6.953 l 2.085 6.141 c 4.819 14.366 15.242 31.28 25.53 41.475 c 6.146 6.087 16.731 13.527 21.12 14.853 c 3.492 1.055 4.169 0.514 6.335 -5.059 c 0.839 -2.137 2.166 -4.599 3.01 -5.465 c 2.897 -3.111 4.061 -2.3 10.234 7.115 c 8.447 12.905 16 19.939 30.32 28.326 l 3.438 2.029 l -2.085 1.704 c -7.01 5.681 -25.02 10.281 -43.507 11.09 c -3.709 0.162 -8.04 0.162 -9.665 0" transform="matrix(0.14428 0 0 0.14438 0.255 5.464)" fill="#eceb05" stroke="#eceb05" stroke-width="2.888"/><g fill="#298212" stroke="#298212" transform="scale(0.1875)"><path d="m 88.17 75.58 c 10.438 7.833 39.958 14.646 37.979 17.458 c -19.729 0.729 -38.729 4.938 -48.917 6.813 c -4.396 -6.625 5.083 -26.21 10.938 -24.271" stroke-width="1.452"/><path d="m 149.63 78 c 0.208 5.5 -8.479 15.75 -4.396 17.771 c 7.375 -5.813 23.417 -10.292 24.1 -11.917 c -6.229 -2.625 -20.02 -8 -19.708 -5.854" stroke-width="0.934"/><path d="m 127.06 73.854 c 1.479 7.396 10.354 15.833 8.708 18.708 c -9.08 -7.271 -27.1 -13.06 -32.396 -16.188 c 0.729 -4.542 21.875 -5.604 23.688 -2.521" stroke-width="0.855"/><path d="m 145.94 78.29 c -3.583 5.667 -3.417 12.229 -5.958 13.75 c -0.417 -7.958 -6.875 -15.5 -7.792 -19.354 c 3.042 -2.979 14.625 2.854 13.75 5.604" stroke-width="0.633"/></g></svg>