<svg xmlns="http://www.w3.org/2000/svg" viewBox="0 0 48 48"><path d="m 36.773 6.309 c 13.871 15.691 14.695 30.926 2.238 36.719 c -17.18 7.988 -44.06 8.32 -37.41 -17.02 c 6.715 -21.07 22.941 -33.535 35.17 -19.703" fill="#dcdcdc"/><path d="m 26.406 30.547 l -1.082 0.434 c -7.41 2.961 -12.02 0.344 -12.383 -6.477 l -0.121 -2.219 l 1.395 0.336 c 2.23 2.039 4.301 4.828 6.133 4.715 c 2.01 -0.129 3.676 -0.918 5.543 -2.625 c 4.727 -4.121 0.953 -6.219 -2.594 -8.07 c -0.867 -0.488 -0.867 -1.281 -0.785 -1.41 c 2.621 -0.258 8.984 0.863 11.06 2.742 c 1.34 1.258 1.25 3.801 -0.211 6.105 c -0.422 0.672 -0.77 1.32 -0.77 1.441 c 1.645 1.078 2.359 0.844 4.277 1.711 c 0.754 2.922 0.484 9.926 -1.891 10.641 c -3.48 -2.754 -5.43 -4.883 -8.57 -7.324" fill="#f4f4f4"/><path d="m 28.547 34.828 c -2.891 -2.637 -2.953 -2.676 -3.52 -2.367 c -0.293 0.164 -1.633 0.578 -2.594 0.801 c -1.078 0.254 -3.941 0.254 -4.844 0 c -1.453 -0.41 -2.01 -0.676 -2.828 -1.355 c -1.16 -0.957 -1.805 -2.133 -2.523 -4.582 c -0.395 -1.348 -0.336 -4.648 0.102 -5.813 c 0.285 -0.754 0.668 -1.344 0.867 -1.34 c 0.164 0 0.77 0.559 3.738 3.441 c 2.676 2.598 2.922 2.785 3.641 2.785 c 0.969 0 3.059 -1.148 4.48 -2.457 c 1.094 -1 1.98 -2.398 1.98 -3.105 c 0 -0.566 -0.27 -0.762 -4.48 -3.227 c -0.957 -0.563 -1.84 -1.145 -2.813 -1.695 c -0.363 -0.207 -0.664 -0.41 -0.664 -0.449 c 0 -0.148 0.707 -0.484 1.527 -0.73 c 0.801 -0.238 0.938 -0.25 3.203 -0.246 c 2.621 0.004 3.223 0.074 5.477 0.625 c 2.074 0.504 4.133 1.363 4.977 2.078 c 1.699 1.438 2.082 3.789 1.047 6.414 c -0.25 0.637 -0.32 0.941 -0.238 1.047 c 0.637 0.441 1.273 0.605 1.965 1.01 c 0.184 0.152 0.242 2.293 0.066 2.34 c -0.07 0.02 -1.141 -0.445 -2.383 -1.035 c -1.633 -0.773 -2.262 -1.121 -2.262 -1.246 c 0 -0.094 0.051 -0.199 0.113 -0.23 c 0.188 -0.094 0.898 -1.156 1.207 -1.797 c 0.41 -0.855 0.758 -2.184 0.758 -2.891 c 0 -0.742 -0.367 -1.773 -0.82 -2.32 c -1.215 -1.469 -5.336 -2.723 -9.738 -2.965 c -0.984 -0.055 -1.188 -0.043 -1.348 0.09 c -0.32 0.266 -0.098 0.512 1.047 1.164 c 4.523 2.566 4.664 2.684 4.727 3.934 c 0.051 1.012 -0.141 1.57 -0.926 2.664 c -1.027 1.426 -2.941 2.965 -4.59 3.688 c -0.891 0.391 -2.121 0.633 -2.77 0.551 c -1.098 -0.141 -1.418 -0.367 -3.828 -2.695 c -1.25 -1.211 -2.328 -2.215 -2.398 -2.23 c -0.066 -0.02 -0.199 0.016 -0.293 0.078 c -0.133 0.094 -0.168 0.387 -0.168 1.375 c 0.004 2.871 0.965 5.566 2.402 6.766 c 1.449 1.203 4.01 1.547 6.75 0.902 c 0.969 -0.227 2.602 -0.848 3.359 -1.277 c 0.191 -0.109 0.434 -0.195 0.539 -0.195 c 0.109 -0.004 1.227 0.91 2.48 2.027 c 1.258 1.121 3.156 2.805 4.219 3.746 c 1.063 0.941 1.93 1.773 1.93 1.848 c 0 0.078 -0.113 0.137 -0.258 0.137 c -0.797 0.215 -1.68 0.266 -2.379 0.266 c -1.316 -1.164 -2.637 -2.34 -3.938 -3.523" fill="#696969"/></svg>