<svg xmlns="http://www.w3.org/2000/svg" viewBox="0 0 48 48"><path d="m 45.906 16.398 c 9.316 23.891 -16.789 36.14 -33.04 30.05 c -11.344 -4.25 -16.996 -21.19 -8.941 -34.879 c 10.168 -17.277 34.801 -13.602 41.988 4.824"/><path d="m 152.34 208.05 c -13.445 -5.464 -22.785 -17.231 -25.63 -32.26 c -2.042 -10.819 -2.672 -10.885 -5.278 -0.595 c -2.476 9.739 -6.06 16.459 -11.859 22.14 c -5.539 5.442 -13.467 10.114 -17.789 10.466 c -2.541 0.198 -2.954 -0.11 -4.453 -3.063 c -1.368 -2.776 -1.629 -4.914 -1.629 -13.551 c 0.022 -14.168 0.891 -16.217 13.03 -31.553 c 1.303 -1.653 2.15 -3.217 1.868 -3.503 c -13.445 5.244 -14.922 8.329 -29.21 7.756 c -10.143 -0.419 -11.03 -0.595 -16.681 -3.305 c -3.28 -1.586 -6.69 -3.437 -7.559 -4.098 c -1.542 -1.19 -1.52 -1.3 0.586 -4.892 c 2.997 -5.134 10.925 -12.229 16.681 -14.961 c 5.734 -2.71 13.771 -4.539 20.05 -4.583 c 9.904 -0.044 10.01 -1.388 0.565 -6.346 c -10.01 -5.266 -18.31 -14.278 -21.894 -23.819 c -4.192 -11.11 -2.802 -14.19 6.364 -14.19 c 7.103 0 13.749 1.697 21.525 5.486 c 4.692 2.314 7.624 4.561 12.511 9.585 c 3.497 3.614 6.603 6.346 6.907 6.04 c 0.304 -0.286 0.065 -3.261 -0.5 -6.61 c -1.586 -9.32 -0.782 -21.2 1.825 -26.948 c 2.194 -4.847 7.341 -12.273 10.361 -14.983 c 2.411 -2.159 4.8 -0.969 9.231 4.605 c 8.471 10.664 11.403 24.59 8.427 40.28 c -0.63 3.327 0.891 2.864 6.06 -1.873 c 5.886 -5.376 10.534 -8.527 17.09 -11.612 l 5.343 -2.49 c 26.955 -7.139 24.435 -1.344 17.202 16.327 c 0 4.561 -10.426 15.512 -19.505 20.47 c -9.04 4.936 -9.644 5.376 -8.341 6.081 c 0.63 0.331 4.149 0.815 7.798 1.08 c 14.487 1.058 28.736 9.188 34.861 19.919 c 3.106 5.442 2.78 6.103 -4.54 9.431 c -13.01 5.861 -25.478 5.31 -39.07 -1.763 c -9.448 -4.914 -10.06 -4.186 -3.714 4.407 c 7.515 10.202 9.01 14.41 9.01 25.648 c 0 6.456 -0.413 10.246 -1.434 13.287 c -2.997 6.125 -4.561 5.442 -8.21 3.988 m -18.03 -55.812 c 15.204 -7.07 14.07 -30.32 -1.803 -37.08 c -4.474 -1.917 -12.272 -1.807 -16.898 0.264 c -4.453 1.983 -10.03 7.888 -11.425 12.12 c -1.542 4.693 -0.673 12.537 1.868 16.548 c 2.389 3.79 6.473 7.448 10.03 9.01 c 4.235 1.851 13.336 1.41 18.223 -0.859" transform="matrix(0.17984 0 0 0.17728 1.356 0.792)" fill="#f00" stroke="#ff4500" stroke-width="1.265"/><path d="m 24.15 24.613 c 0.609 -0.539 0.945 -1.09 1.43 -1.77 l 1.313 0.813 c 3.242 1.949 1.398 4.285 3.883 2.977 c 1.773 -1.035 2.09 -1.238 0.801 -3.164 c -0.871 -1.305 -2.465 -3.242 -3.742 -3.754 c -0.93 -0.375 -1.164 -0.871 -0.785 -1.664 c 0.172 -0.359 0.301 -0.832 0.285 -1.051 c -0.023 -0.367 -0.078 -0.383 -0.844 -0.246 c -0.945 0.164 -5.246 1.531 -5.887 1.863 c -0.238 0.125 -0.434 0.316 -0.434 0.422 c -0.008 0.309 3.117 5.316 3.438 5.508 c 0.188 0.082 0.375 0.098 0.543 0.066" fill="#ff0"/><path d="m 24.691 25.98 c -0.609 0.535 -0.945 1.086 -1.43 1.766 l -1.313 -0.813 c -3.242 -1.945 -1.398 -4.285 -3.883 -2.977 c -1.773 1.035 -2.09 1.242 -0.801 3.168 c 0.871 1.301 2.465 3.238 3.742 3.754 c 0.93 0.371 1.164 0.867 0.785 1.66 c -0.172 0.359 -0.301 0.836 -0.285 1.051 c 0.023 0.367 0.078 0.387 0.844 0.25 c 0.945 -0.168 5.246 -1.531 5.887 -1.867 c 0.238 -0.125 0.434 -0.313 0.434 -0.418 c 0.008 -0.309 -3.121 -5.316 -3.441 -5.512 c -0.184 -0.082 -0.371 -0.094 -0.539 -0.063" fill="#f4f4f4"/></svg>