<svg xmlns="http://www.w3.org/2000/svg" viewBox="0 0 48 48"><path d="m 1.555 17.402 c -8.965 25.02 23.25 37.18 35.35 26.996 c 12.1 -10.184 16.23 -27.637 2.527 -36.418 c -13.707 -8.781 -28.914 -15.59 -37.875 9.426" fill="#a5a19a"/><path d="m 227.64 166.31 c -0.636 -0.547 -1.141 -1.095 -1.141 -1.221 c 0 -1.053 2.765 -2.232 5.266 -2.253 c 3.423 0 6.21 -2.02 6.21 -4.485 v -1.474 l -1.448 1.411 c -1.075 1.01 -2.304 1.39 -4.608 1.39 c -2.633 0 -3.533 -0.358 -5.705 -2.295 c -2.545 -2.274 -2.589 -2.358 -2.589 -7.58 c 0 -5.222 0.044 -5.306 2.589 -7.58 c 2.172 -1.916 3.072 -2.274 5.705 -2.274 c 2.282 0 3.533 0.358 4.586 1.369 c 1.229 1.179 1.492 1.221 1.865 0.358 c 0.658 -1.495 2.282 -1.811 3.533 -0.716 c 0.878 0.779 1.097 2.779 1.097 10.169 c 0 8.401 -0.11 9.285 -1.426 10.275 c -2.721 4.232 -3.994 5.874 -8.25 5.916 c -3.204 0 -4.915 -0.316 -5.683 -1.01 m 8.624 -12.527 c 1.229 -1.032 1.69 -2.127 1.69 -3.979 c 0 -2.737 -2.282 -5.411 -4.63 -5.411 c -0.68 0 -1.997 0.653 -2.94 1.432 c -2.304 1.937 -2.348 5.769 -0.11 7.853 c 2.02 1.916 3.796 1.937 5.99 0.105 m -59.794 5.474 c -0.68 -0.253 -0.9 -3.242 -0.9 -11.98 c 0 -12.422 0 -12.422 3.577 -12.422 c 3.708 1.537 5.968 7.327 9.413 11.285 c 0.066 1.642 0.11 1.6 0.636 -0.4 c 1.075 -2.379 2.853 -3.874 2.875 -6.106 c 0 -3.137 1.36 -4.779 3.95 -4.779 c 3.577 0 4.871 1.137 4.871 12.401 c 0 8.632 -1.119 10.59 -2.063 11.412 c -0.614 0.547 -1.251 1.01 -1.382 1.01 c -0.132 0 -0.768 -0.463 -1.382 -1.01 c -0.878 -0.758 -1.141 -2.548 -1.229 -7.79 c -0.066 -5.05 -0.219 -5.98 -0.549 -3.6 c -0.351 2.505 -0.944 3.621 -2.875 5.243 c -1.339 1.137 -2.501 2.063 -2.567 2.063 c -0.088 0 -1.251 -0.926 -2.589 -2.063 c -1.909 -1.621 -2.523 -2.737 -2.875 -5.243 c -0.329 -2.379 -0.461 -1.453 -0.549 3.6 c -0.066 5.243 -0.351 7.03 -1.229 7.79 c -1.097 0.99 -3.335 1.242 -5.135 0.59 m 29.667 -1.874 c -2.567 -2.253 -2.589 -2.358 -2.589 -7.58 c 0 -5.222 0.022 -5.306 2.589 -7.58 c 2.414 -2.127 2.853 -2.274 7.088 -2.274 c 4.235 0 4.696 0.126 7.109 2.274 c 2.172 1.937 2.589 2.737 2.589 5.05 c 0 4.127 -1.119 4.758 -8.382 4.758 h -6.122 c 1.821 2.042 4.301 3.158 6.385 3.179 c 1.733 0 3.445 0.421 4.103 1.01 c 1.404 1.221 1.404 1.221 0 2.442 c -0.768 0.716 -2.48 1.01 -5.661 1.01 c -4.257 0 -4.696 -0.147 -7.109 -2.295 m 10.225 -11.391 c -0.944 -0.863 -2.348 -1.579 -3.138 -1.579 c -0.79 0 -2.194 0.716 -3.116 1.579 l -1.69 1.579 h 9.633 m 31.11 9.811 c -1.47 -1.305 -2.567 -2.927 -2.567 -3.748 c 0 -0.842 1.097 -2.463 2.567 -3.769 c 2.194 -1.937 3.072 -2.295 5.749 -2.295 c 2.896 0 3.16 -0.126 3.16 -1.579 c 0 -1.453 -0.263 -1.6 -3.182 -1.6 c -2.677 0 -5.442 -1.116 -5.442 -2.232 c 0 -1.074 2.765 -2.211 5.376 -2.211 c 2.611 0 4.147 -1.2 6.298 0.716 c 2.48 1.305 2.194 4.4 3.401 7.727 c 1.163 0.884 1.426 1.874 1.426 5.179 c 0 5.622 -0.658 6.106 -8.229 6.106 c -5.903 0 -6.01 -0.021 -8.558 -2.295 m 8.909 -3.748 c 0 -1.474 -0.263 -1.6 -3.226 -1.6 c -2.984 0 -3.226 0.126 -3.226 1.6 c 0 1.453 0.241 1.579 3.226 1.579 c 2.962 0 3.226 -0.126 3.226 -1.579 m 15.47 5.03 c -0.922 -0.8 -1.119 -2.674 -1.119 -10.169 v -9.201 h -3.182 c -1.931 0 -3.621 -0.379 -4.301 -0.99 c -1.382 -1.221 -1.382 -1.221 0 -2.463 c 1.646 -1.474 21.17 -1.474 22.842 0 c 1.382 1.242 1.382 1.242 0 2.463 c -0.68 0.611 -2.37 0.99 -4.301 0.99 h -3.182 v 9.201 c 0 9.938 -0.439 11.18 -3.95 11.18 c -0.922 0 -2.194 -0.442 -2.809 -1.01 m 15.799 -1.284 l -2.589 -2.295 v -6.569 c 0 -5.137 0.263 -6.801 1.141 -7.58 c 0.614 -0.547 1.229 -0.99 1.382 -0.99 c 0.132 0 0.768 0.442 1.382 0.99 c 0.834 0.758 1.141 2.337 1.141 6.211 c 0 4.653 0.197 5.369 1.712 6.632 c 2.172 1.832 3.95 1.811 5.99 -0.105 c 1.404 -1.305 1.602 -2.19 1.602 -6.611 c 0 -3.811 0.307 -5.369 1.141 -6.127 c 0.614 -0.547 1.229 -0.99 1.382 -0.99 c 0.132 0 0.768 0.442 1.382 0.99 c 1.624 1.453 1.646 16.275 0.022 17.707 c -1.251 1.116 -2.875 0.779 -3.533 -0.716 c -0.373 -0.863 -0.636 -0.8 -1.865 0.379 c -1.053 0.99 -2.304 1.369 -4.586 1.369 c -2.633 0 -3.533 -0.358 -5.705 -2.295 m 21.504 1.284 c -1.624 -1.432 -1.646 -16.254 -0.022 -17.686 c 1.229 -1.116 2.875 -0.779 3.533 0.695 c 0.373 0.863 0.636 0.821 1.865 -0.358 c 1.053 -1.01 2.304 -1.369 4.564 -1.369 c 2.655 0 3.555 0.358 5.727 2.295 l 2.567 2.274 v 6.59 c 0 5.116 -0.241 6.78 -1.119 7.58 c -0.614 0.547 -1.251 0.99 -1.382 0.99 c -0.132 0 -0.768 -0.442 -1.382 -0.99 c -0.834 -0.758 -1.119 -2.316 -1.119 -6.127 c 0 -4.443 -0.219 -5.327 -1.624 -6.632 c -0.878 -0.821 -2.26 -1.516 -3.05 -1.516 c -0.79 0 -2.15 0.695 -3.05 1.516 c -1.404 1.305 -1.602 2.19 -1.602 6.632 c 0 3.811 -0.307 5.369 -1.141 6.127 c -0.614 0.547 -1.229 0.99 -1.382 0.99 c -0.132 0 -0.768 -0.442 -1.382 -0.99 m 22.952 -0.021 c -1.646 -1.453 -1.646 -16.254 0 -17.728 c 0.636 -0.547 1.251 -0.99 1.382 -0.99 c 0.154 0 0.768 0.442 1.382 0.99 c 1.668 1.474 1.668 16.275 0 17.728 c -0.614 0.568 -1.229 1.01 -1.382 1.01 c -0.132 0 -0.746 -0.442 -1.382 -1.01 m 8.645 0.042 c -1.031 -1.726 2.194 -6.969 3.138 -7.769 c -0.044 -1.621 1.141 -2.02 -2.02 -4.779 c -2.787 -2.421 -2.501 -5.116 -0.461 -5.832 c 0.571 -0.189 2.216 0.758 3.796 2.19 c 3.226 2.927 5.859 3.369 5.859 0.969 c 0.746 -3.074 2.085 -3.432 4.213 -3.158 c 5.946 -1.432 1.097 5.432 -0.614 6.737 c -1.865 1.432 -1.36 3.306 0.439 4.822 c 4.169 3.474 3.467 7.79 -0.812 7.79 c -1.536 0 -3.226 -1.853 -3.226 -3.558 c 0 -2.295 -2.743 -2 -5.42 0.568 c -2.984 2.906 -3.599 3.158 -4.893 2.02 m -8.645 -20.402 c -0.571 -0.526 -0.878 -1.347 -0.68 -1.832 c 0.592 -1.369 2.282 -1.663 3.445 -0.632 c 1.185 1.053 0.856 2.548 -0.702 3.074 c -0.549 0.189 -1.47 -0.084 -2.063 -0.611 m -79.76 -14.78 c 0 -1.6 -24.861 -20.507 -26.682 -20.507 c -13.583 -11.243 -24.22 -18.781 -36.644 -28.634 c -3.379 -2.674 -3.664 -3.074 -3.664 -5.79 c -2.172 -6.274 -2.875 -9.664 -2.875 -14.233 c 0 -9.348 0.351 -10.548 3.072 -10.548 c 0.746 0 2.194 -0.568 3.182 -1.263 c 21.636 -1.326 39.12 -11.12 59.46 -11.454 c 5.244 0 6.06 0.147 6.736 1.263 c 18.695 8.08 25.41 9.559 42.679 17.833 c 8.755 4.632 20.758 9.664 29.05 12.717 c 3.994 1.811 6.912 3.79 11.125 4.148 c 1.887 11.917 -0.373 25.897 0.351 35.582 c -0.768 3.348 -3.204 4.632 -6.561 5.474 c -5.859 1.853 -25.607 9.369 -30.852 9.917 c -12.463 2.632 -39.453 10.506 -48.38 5.495" transform="matrix(0.17802 0 0 0.18553 -23.22 4.536)" fill="#5b4533" stroke="#5b4533" stroke-width="0.676"/></svg>