<svg xmlns="http://www.w3.org/2000/svg" viewBox="0 0 48 48"><path d="m 39.844 8.512 c 24.25 19.41 -11.25 54.45 -32.711 32.07 c -21.508 -19.266 12.06 -56.648 32.711 -32.07"/><path d="m 38.09 24.05 c 0 7.863 -6.332 14.238 -14.14 14.238 c -7.809 0 -14.14 -6.375 -14.14 -14.238 c 0 -7.863 6.328 -14.238 14.14 -14.238 c 7.805 0 14.14 6.375 14.14 14.238" fill="#777"/><path d="m 36.906 24.05 c 0 7.207 -5.801 13.05 -12.957 13.05 c -7.156 0 -12.957 -5.844 -12.957 -13.05 c 0 -7.211 5.801 -13.05 12.957 -13.05 c 7.156 0 12.957 5.84 12.957 13.05" fill="#666"/><path d="m 34.762 24.05 c 0 6.125 -4.91 11.09 -10.969 11.09 c -6.06 0 -10.969 -4.965 -10.969 -11.09 c 0 -6.125 4.91 -11.09 10.969 -11.09 c 6.06 0 10.969 4.965 10.969 11.09"/><g fill="#aaa"><path d="m 24.832 11.887 c 0 0.492 -0.395 0.891 -0.883 0.891 c -0.488 0 -0.883 -0.398 -0.883 -0.891 c 0 -0.488 0.395 -0.887 0.883 -0.887 c 0.488 0 0.883 0.398 0.883 0.887"/><path d="m 36.906 24.05 c 0 0.492 -0.395 0.891 -0.883 0.891 c -0.488 0 -0.883 -0.398 -0.883 -0.891 c 0 -0.492 0.395 -0.891 0.883 -0.891 c 0.488 0 0.883 0.398 0.883 0.891"/><path d="m 24.832 36.21 c 0 0.492 -0.395 0.891 -0.883 0.891 c -0.488 0 -0.883 -0.398 -0.883 -0.891 c 0 -0.492 0.395 -0.891 0.883 -0.891 c 0.488 0 0.883 0.398 0.883 0.891"/><path d="m 12.758 24.05 c 0 0.492 -0.395 0.891 -0.883 0.891 c -0.488 0 -0.883 -0.398 -0.883 -0.891 c 0 -0.492 0.395 -0.891 0.883 -0.891 c 0.488 0 0.883 0.398 0.883 0.891"/></g><g fill="none" stroke="#fff" transform="matrix(0.2945 0 0 0.29663 9.224 9.218)"><path d="m 49.71 49.977 l -7.945 -25.24" stroke-width="5"/><path d="m 50.877 50.48 l -33.624 -2.805" stroke-width="4.074"/></g><path d="m 25.27 24.05 c 0 0.738 -0.594 1.332 -1.324 1.332 c -0.734 0 -1.324 -0.594 -1.324 -1.332 c 0 -0.738 0.59 -1.336 1.324 -1.336 c 0.73 0 1.324 0.598 1.324 1.336" fill="#fff"/><path d="m 48.09 51.29 l 29.38 -20.06" transform="matrix(0.2945 0 0 0.29663 9.224 9.218)" fill="none" stroke="#fff" stroke-width="2.312"/></svg>