<svg xmlns="http://www.w3.org/2000/svg" viewBox="0 0 48 48"><path d="m 41.01 9.543 c 31.891 50.668 -65.852 51.602 -34.02 -0.352 c 6.375 -10.41 25.426 -13.309 34.02 0.352" fill="#3c4658"/><path d="m 92.4 205.77 c -4.938 -2.625 -11.146 -7.188 -13.813 -10.146 c -4.771 -5.271 -4.75 -5.625 0.646 -19.771 c 3.104 -8.167 5.479 -20.292 5.479 -28 c 0 -10.896 1.063 -14.292 5.292 -17.12 c 4.563 -3.042 4.917 -4.542 2.563 -10.771 c -6.833 -18.04 -1.271 -35.875 14.542 -46.667 c 17.479 -11.917 40.29 -6.604 52.08 12.13 c 4.417 7.02 5.063 11.188 3.958 25.688 c -0.938 12.563 -0.396 17.833 2.02 19.271 c 1.813 1.083 3.958 8.5 4.75 16.5 c 0.792 7.979 3.438 20.875 5.875 28.646 c 2.458 7.75 3.75 15.917 2.896 18.15 c -0.833 2.208 -7.313 6.958 -14.375 10.563 c -11.208 5.708 -16 6.521 -37.896 6.417 c -19.292 -0.083 -27.12 -1.208 -34.02 -4.875 m 68.35 -8.104 c 6.938 -9.313 -11.188 -39 -21.917 -42.1 c -8.854 -2.396 -17.17 -3.625 -26.729 1 c -14.229 6.938 -24.771 28.375 -19.604 38.08 c 11.708 17.813 58.688 11.833 68.27 3.02" transform="scale(0.1875)" fill="#586478" stroke="#586478" stroke-width="5.132"/><g stroke="#3c4658"><path d="m 65.94 130.68 c -8.08 -6.05 -12.907 -11.392 -14.01 -15.518 c -1.472 -5.364 -0.552 -19.392 1.587 -24.18 c 2.163 -4.882 7.638 -9.925 13.712 -12.607 c 5.199 -2.292 8.489 -5.753 11.135 -11.713 c 2.922 -6.647 8.696 -13.318 15.875 -18.338 c 10.514 -8.94 16.45 -7.335 25.859 -7.335 c 16.312 -0.825 14.885 0.252 25.399 6.441 c 7.73 4.493 12.723 10.338 18.221 21.317 l 4.785 9.558 l 4.233 1.123 c 3.198 0.848 5.453 2.361 9.226 6.12 c 6.097 6.12 7.201 9.467 7.293 22.1 c 0.046 8.229 -0.161 9.581 -2 12.538 c -2.048 3.301 -14.218 13.157 -17.37 14.1 c -8.167 -3.988 -11.825 -5.433 -9.02 -13.593 c 2.692 -7.771 3.267 -20.676 1.288 -27.575 c -1.841 -6.326 -5.107 -12.882 -8.627 -17.352 c -1.472 -1.88 -2.784 -4.355 -2.899 -5.524 c -0.391 -3.599 -7.661 -12.768 -13.11 -16.527 c -6.373 -4.607 -23.95 -5.753 -30.25 -2.613 c -4.233 2.178 -10.905 8.733 -14.15 13.891 c -1.564 2.476 -4.486 6.487 -6.488 8.894 c -5.407 6.533 -8.08 11.667 -10.03 19.3 c -2.715 10.636 -2.117 19 2.071 29.409 c 3.773 6.968 -1.173 8.71 -6.741 12.263 c -0.23 0 -2.922 -1.88 -5.982 -4.172" transform="matrix(0.16979 0 0 0.17042 3.562 1.894)" fill="#010101" stroke-width="1.754"/><path d="m 111.35 123.87 c -0.897 -0.046 -3.451 -0.367 -5.683 -0.665 c -6.03 -0.825 -7.753 -1.88 -9.962 -6.074 c -1.725 -3.278 -2.623 -4.447 -3.98 -5.203 l -1.242 -0.711 l -0.184 -7.289 c -0.115 -4.355 -0.391 -8.367 -0.69 -9.994 c -0.299 -1.467 -0.506 -2.751 -0.506 -2.819 c 0 -0.367 1.242 1.1 2.853 3.324 c 1.012 1.398 2.209 2.659 2.83 2.934 c 0.621 0.298 3.497 0.642 7.178 0.871 c 7.02 0.413 11.871 1.215 17.922 2.934 c 3.244 0.917 5.729 0.871 8.42 -0.206 c 4.279 -1.696 16.1 -3.438 23.49 -3.438 h 4.716 l 3.152 -3.668 l 3.152 -3.69 l -0.23 3.415 c -0.276 3.943 -0.299 10.521 -0.069 14.257 l 0.161 2.59 l -1.38 1.1 c -0.759 0.596 -2.922 3.094 -4.785 5.524 c -1.887 2.453 -3.819 4.653 -4.325 4.882 c -0.483 0.252 -2.347 0.596 -4.118 0.779 c -1.795 0.16 -4.509 0.527 -6.03 0.779 c -4.532 0.779 -6.189 0.092 -6.856 -2.842 c -0.759 -3.324 -4.302 -6.235 -7.592 -6.235 c -3.06 0 -6.925 1.788 -7.983 3.69 c -0.345 0.642 -0.621 1.719 -0.621 2.43 c 0 1.696 -0.736 2.751 -2.209 3.209 c -1.173 0.344 -1.979 0.367 -5.43 0.115" transform="matrix(0.16979 0 0 0.17042 2.519 2.492)" stroke-width="0.683"/></g><g transform="scale(0.1875)"><path d="m 108.6 203.88 c -6.396 -1.75 -11.25 -4.25 -14.1 -7.229 c -7.438 -7.771 3.333 -29.75 18.19 -37.1 c 4.729 -2.333 6.354 -2.667 13.25 -2.646 c 4.333 0.021 9.542 0.521 11.583 1.125 c 10.1 2.917 25.375 25.979 24.313 36.667 c -0.25 2.375 -1 3.188 -4.458 4.854 c -7.813 3.771 -14.542 4.979 -29.583 5.333 c -10.688 0.25 -15.563 0 -19.19 -1" fill="#c3c8d0" stroke="#c3c8d0" stroke-width="1.828"/><path d="m 119.4 145.02 c -7 -5.02 -7.333 -9.292 -1.021 -12.458 c 5.833 -2.917 15.15 -2.875 21.06 0.083 c 4.438 2.229 4.583 2.5 2.75 5.854 c -2.792 5.083 -9.958 10.521 -13.875 10.5 c -1.875 0 -5.875 -1.792 -8.917 -3.979" fill="#ffd600" stroke="#ffd600" stroke-width="2.849"/></g></svg>