<svg xmlns="http://www.w3.org/2000/svg" viewBox="0 0 48 48"><path d="m 16.691 2.77 c -30.777 7.203 -13.645 54.05 15.879 42.969 c 28.2 -8.246 13.875 -56.39 -15.879 -42.969" fill="#a5cddf"/><path d="m 13.301 12.773 c -0.195 0.086 -0.398 0.227 -0.453 0.309 c -0.055 0.086 -0.137 4.387 -0.18 9.563 c -0.043 5.172 -0.094 9.785 -0.113 10.242 c -0.031 0.816 -0.023 0.844 0.336 1.168 l 0.371 0.332 h 22.566 l 0.367 -0.332 c 0.359 -0.324 0.367 -0.352 0.336 -1.168 c -0.016 -0.457 -0.066 -5.07 -0.109 -10.242 c -0.047 -5.176 -0.129 -9.477 -0.184 -9.563 c -0.301 -0.469 -0.352 -0.473 -11.719 -0.469 c -8.914 0.004 -10.93 0.035 -11.219 0.16" fill="#49b1e2"/><g fill="#12283b"><path d="m 12.258 32.398 c -0.09 0.82 0.051 1.414 0.414 1.766 c 0.242 0.23 1.41 0.254 11.746 0.254 c 10.336 0 11.504 -0.023 11.746 -0.254 c 0.367 -0.352 0.504 -0.945 0.414 -1.766 l -0.074 -0.691 h -24.17 l -0.078 0.691"/><path d="m 13.844 15.211 c -0.82 -0.07 -1.414 0.039 -1.766 0.324 c -0.23 0.184 -0.254 1.094 -0.254 9.129 c 0 8.04 0.023 8.945 0.254 9.133 c 0.352 0.285 0.945 0.395 1.766 0.324 l 0.691 -0.059 v -18.793"/><path d="m 34.605 15.211 c 0.82 -0.07 1.414 0.039 1.766 0.324 c 0.23 0.184 0.254 1.094 0.254 9.129 c 0 8.04 -0.023 8.945 -0.254 9.133 c -0.352 0.285 -0.945 0.395 -1.766 0.324 l -0.691 -0.059 v -18.793"/></g></svg>