<svg xmlns="http://www.w3.org/2000/svg" viewBox="0 0 48 48" xmlns:xlink="http://www.w3.org/1999/xlink"><defs><linearGradient id="3" gradientUnits="userSpaceOnUse" y1="349.39" x2="0" y2="439.39" gradientTransform="matrix(0.07151 0 0 0.08042 -2.986 -12.285)"><stop stop-color="#fff" stop-opacity="0.596"/><stop offset="1" stop-color="#fff" stop-opacity="0.322"/></linearGradient><linearGradient id="2" gradientUnits="userSpaceOnUse" x1="210.94" y1="309.39" x2="540.94" y2="589.39" gradientTransform="matrix(0.06284 0 0 0.06893 0.272 -7.122)" xlink:href="#1"/><linearGradient id="0" gradientUnits="userSpaceOnUse" x1="200.94" y1="299.39" x2="550.94" y2="599.39" gradientTransform="matrix(0.07151 0 0 0.08042 -2.986 -12.285)"><stop stop-color="#fff"/><stop offset="1" stop-color="#c2c2c2"/></linearGradient><linearGradient id="1" gradientUnits="userSpaceOnUse" x1="540.94" y1="589.39" x2="210.94" y2="309.39" gradientTransform="matrix(0.07151 0 0 0.08042 -2.986 -12.285)"><stop stop-color="#767676"/><stop offset="1" stop-color="#d4d4d4"/></linearGradient></defs><path d="m 4.68 38.11 c -23.988 -36.09 52.52 -58.31 42.39 -11.664 c -4.316 19.277 -31.387 30.98 -42.39 11.664" fill="#ffd600"/><path d="m 13.5 10.988 h 20.797 c 1.563 0 2.832 1.426 2.832 3.184 v 19.367 c 0 1.758 -1.27 3.184 -2.832 3.184 h -20.797 c -1.563 0 -2.832 -1.426 -2.832 -3.184 v -19.367 c 0 -1.758 1.27 -3.184 2.832 -3.184" fill="#434343"/><path d="m 14.04 11.793 h 19.719 c 1.469 0 2.656 1.336 2.656 2.984 v 18.16 c 0 1.648 -1.188 2.984 -2.656 2.984 h -19.719 c -1.469 0 -2.656 -1.336 -2.656 -2.984 v -18.16 c 0 -1.648 1.188 -2.984 2.656 -2.984" fill="url(#0)"/><path d="m 14.574 12.598 h 18.648 c 1.367 0 2.477 1.246 2.477 2.785 v 16.945 c 0 1.539 -1.109 2.785 -2.477 2.785 h -18.648 c -1.367 0 -2.477 -1.246 -2.477 -2.785 v -16.945 c 0 -1.539 1.109 -2.785 2.477 -2.785" fill="url(#1)"/><path d="m 15.652 14.207 h 16.492 c 1.172 0 2.121 1.066 2.121 2.387 v 14.527 c 0 1.316 -0.949 2.387 -2.121 2.387 h -16.492 c -1.172 0 -2.125 -1.07 -2.125 -2.387 v -14.527 c 0 -1.32 0.953 -2.387 2.125 -2.387" fill="url(#2)"/><path d="m 16.191 15.01 h 15.414 c 1.074 0 1.945 0.98 1.945 2.191 v 13.316 c 0 1.207 -0.871 2.188 -1.945 2.188 h -15.414 c -1.078 0 -1.949 -0.98 -1.949 -2.188 v -13.316 c 0 -1.211 0.871 -2.191 1.949 -2.191"/><path d="m 31.605 32.703 h -15.414 c -1.078 0 -1.945 -0.977 -1.945 -2.188 c 0 -1.832 0 -2.637 0 -3.441 h 19.309 v 3.441 c 0 1.211 -0.871 2.188 -1.949 2.188" fill="#ff0"/><path d="m 16.191 15.01 h 15.414 c 1.078 0 1.945 0.977 1.945 2.191 c 0 1.832 0 3.441 0 4.242 h -19.309 v -4.242 c 0 -1.215 0.867 -2.191 1.945 -2.191" fill="#f00"/><path d="m 33.551 27.07 h -19.309 v -5.629 h 19.309" fill="#ff8500"/><path d="m 18.316 16.617 h 3.574 l 4.512 9.93 v -9.93 h 3.03 v 14.477 h -3.574 l -4.512 -9.93 v 9.93 h -3.03 v -14.477"/><path d="m 16.191 15.01 h 15.414 c 1.09 0 1.949 0.984 1.945 2.191 c 0 0.84 0 1.027 0 1.027 c 0 1.465 -3.883 -0.715 -9.297 4.02 c -5.414 4.738 -9.297 4.828 -10.01 4.828 v -9.875 c 0 -1.215 0.867 -2.191 1.945 -2.191" fill="url(#3)"/></svg>