<svg xmlns="http://www.w3.org/2000/svg" viewBox="0 0 48 48"><path d="m 42.42 39.672 c 11.676 -17.957 2.254 -34.31 -10.965 -38.19 c -17.781 -5.223 -41.922 8.496 -26.02 36.77 c 6.324 11.234 28.66 14.207 36.977 1.422" fill="#efffff"/><path d="m 16.688 37.789 c -0.086 -0.133 -0.086 -0.59 -0.004 -1.023 c 0.141 -0.727 0.07 -0.832 -0.988 -1.457 c -1.465 -0.867 -3.695 -3.148 -4.676 -4.781 c -2.516 -4.195 -2.555 -9.41 -0.109 -13.719 c 1.602 -2.813 4.586 -5.332 7.629 -6.422 c 1.156 -0.418 1.34 -0.43 1.68 -0.105 c 0.578 0.547 0.25 0.969 -1.203 1.555 c -7.313 2.965 -10.348 10.84 -6.762 17.559 c 0.852 1.602 2.363 3.281 3.898 4.34 c 1.172 0.809 1.586 0.855 1.805 0.203 c 0.086 -0.266 0.359 -0.48 0.605 -0.48 c 0.57 0 3.137 3.01 3.03 3.555 c -0.121 0.613 -4.551 1.313 -4.902 0.777 m 11.449 -0.859 c -0.574 -0.547 -0.25 -0.969 1.203 -1.559 c 7.316 -2.961 10.352 -10.836 6.766 -17.555 c -0.855 -1.602 -2.363 -3.285 -3.898 -4.34 c -1.172 -0.809 -1.586 -0.855 -1.805 -0.203 c -0.09 0.262 -0.363 0.48 -0.605 0.48 c -0.574 0 -3.137 -3.02 -3.03 -3.555 c 0.063 -0.316 0.574 -0.488 2.184 -0.734 c 2.652 -0.406 2.938 -0.316 2.73 0.863 c -0.148 0.863 -0.109 0.93 0.98 1.574 c 1.465 0.871 3.695 3.152 4.672 4.781 c 2.516 4.195 2.555 9.41 0.109 13.719 c -1.598 2.813 -4.586 5.332 -7.625 6.422 c -1.156 0.418 -1.34 0.43 -1.684 0.105 m -5.992 -4.43 c -0.273 -0.164 -0.379 -0.664 -0.379 -1.805 c 0 -1.145 0.105 -1.645 0.379 -1.809 c 0.617 -0.367 2.461 -0.277 2.906 0.145 c 0.543 0.512 0.543 2.813 0 3.328 c -0.445 0.418 -2.289 0.512 -2.906 0.145 m -0.074 -4.484 c -0.098 -0.094 -0.18 -0.914 -0.18 -1.82 c 0 -1.992 0.473 -2.977 2.16 -4.516 c 1.539 -1.406 1.977 -2.191 1.664 -2.977 c -0.531 -1.316 -2.527 -1.438 -4.848 -0.285 c -1.563 0.77 -2.023 0.574 -2.023 -0.871 c 0 -1.375 0.336 -1.781 1.953 -2.352 c 4.145 -1.469 8.184 0.078 8.641 3.313 c 0.215 1.5 -0.336 2.594 -2.258 4.508 c -1.754 1.746 -1.77 1.777 -1.941 3.398 l -0.168 1.633 l -1.41 0.07 c -0.773 0.039 -1.488 -0.008 -1.586 -0.102" fill="#d5d5ad"/><path d="m 16.922 36.902 l 0.172 -0.953 l -1.75 -1.234 c -3.813 -2.684 -5.891 -6.598 -5.898 -11.121 c -0.004 -3.824 1.445 -7.145 4.309 -9.852 c 2.336 -2.211 6.359 -4.129 6.359 -3.03 c 0 0.18 -0.887 0.738 -1.969 1.242 c -8.09 3.77 -10.215 13.648 -4.348 20.14 c 1.395 1.535 3.496 2.883 3.949 2.531 c 0.184 -0.145 0.336 -0.414 0.336 -0.594 c 0 -0.75 0.961 -0.242 2.094 1.105 c 1.789 2.121 1.723 2.227 -1.68 2.551 l -1.742 0.168 l 0.172 -0.953 m 11.316 -0.406 c 0 -0.176 0.887 -0.734 1.969 -1.238 c 8.09 -3.77 10.215 -13.652 4.348 -20.14 c -1.395 -1.539 -3.5 -2.887 -3.949 -2.531 c -0.184 0.145 -0.336 0.41 -0.336 0.594 c 0 0.746 -0.961 0.238 -2.094 -1.105 c -1.789 -2.121 -1.723 -2.227 1.68 -2.555 l 1.742 -0.168 l -0.172 0.953 l -0.168 0.957 l 1.75 1.23 c 3.813 2.684 5.887 6.598 5.895 11.121 c 0.008 3.824 -1.445 7.145 -4.305 9.852 c -2.336 2.211 -6.359 4.129 -6.359 3.03 m -6.191 -4.371 c -0.23 -0.563 -0.188 -2.578 0.059 -2.949 c 0.141 -0.211 0.656 -0.289 1.586 -0.238 l 1.371 0.074 v 3.363 l -1.43 0.07 c -1.133 0.059 -1.461 -0.008 -1.586 -0.32 m -0.043 -4.703 c -0.207 -0.617 0.09 -3.043 0.449 -3.68 c 0.145 -0.258 0.992 -1.199 1.883 -2.094 c 1.328 -1.34 1.617 -1.777 1.617 -2.445 c 0 -1.813 -2.41 -2.309 -5.03 -1.039 c -0.738 0.355 -1.453 0.586 -1.59 0.508 c -0.133 -0.078 -0.242 -0.684 -0.242 -1.344 v -1.199 l 1.461 -0.641 c 2.055 -0.895 4.773 -0.918 6.406 -0.055 c 2.02 1.07 2.883 3.512 1.887 5.336 c -0.223 0.41 -1.141 1.48 -2.031 2.379 c -1.547 1.559 -1.625 1.695 -1.625 2.832 c 0 1.82 -0.109 1.949 -1.664 1.949 c -1.152 0 -1.375 -0.074 -1.52 -0.508" fill="#9f9f9f"/><path d="m 17.17 36.727 c 0.152 -0.766 0.098 -0.852 -0.945 -1.43 c -2.469 -1.367 -4.949 -4.344 -6.05 -7.262 c -0.672 -1.781 -0.91 -5.434 -0.48 -7.387 c 0.508 -2.313 2.156 -5.125 4.055 -6.906 c 2.367 -2.223 6.371 -4.125 6.371 -3.02 c 0 0.184 -0.867 0.727 -1.93 1.203 c -2.426 1.09 -5.01 3.441 -6.168 5.617 c -2.109 3.953 -2.098 8.363 0.039 12.172 c 0.922 1.637 3.418 4.18 4.746 4.824 c 0.859 0.418 0.883 0.418 1.238 -0.086 c 0.195 -0.281 0.488 -0.508 0.645 -0.5 c 0.453 0.016 2.516 2.594 2.371 2.953 c -0.121 0.301 -1.922 0.633 -3.445 0.637 c -0.547 0.004 -0.586 -0.07 -0.438 -0.813 m 11.07 -0.238 c 0 -0.184 0.867 -0.723 1.93 -1.203 c 2.426 -1.09 5.01 -3.438 6.168 -5.613 c 2.109 -3.957 2.094 -8.363 -0.039 -12.172 c -0.922 -1.641 -3.418 -4.18 -4.746 -4.828 c -0.859 -0.418 -0.883 -0.418 -1.238 0.086 c -0.195 0.281 -0.488 0.508 -0.645 0.5 c -0.453 -0.016 -2.516 -2.59 -2.371 -2.953 c 0.121 -0.301 1.922 -0.633 3.445 -0.637 c 0.547 0 0.586 0.074 0.438 0.813 c -0.152 0.766 -0.094 0.852 0.949 1.43 c 2.469 1.371 4.949 4.348 6.05 7.266 c 0.676 1.777 0.914 5.43 0.484 7.387 c -0.508 2.309 -2.16 5.121 -4.055 6.906 c -2.367 2.223 -6.371 4.121 -6.371 3.02 m -5.988 -4.551 c -0.074 -0.188 -0.102 -0.871 -0.059 -1.516 l 0.078 -1.172 h 2.539 v 2.887 l -1.207 0.07 c -0.871 0.055 -1.25 -0.023 -1.352 -0.27 m 0.195 -4.297 c -0.375 -0.352 -0.391 -1.926 -0.039 -3.133 c 0.168 -0.566 0.922 -1.566 2.031 -2.703 c 1.879 -1.914 2.148 -2.625 1.387 -3.656 c -0.871 -1.176 -3.07 -1.199 -5.156 -0.051 c -0.465 0.25 -0.949 0.461 -1.082 0.461 c -0.133 0 -0.238 -0.527 -0.238 -1.172 v -1.176 l 1.332 -0.559 c 1 -0.422 1.813 -0.563 3.238 -0.57 c 3.191 -0.016 4.813 1.145 5.03 3.594 c 0.141 1.582 -0.262 2.336 -2.387 4.473 c -1.578 1.59 -1.625 1.676 -1.625 2.922 c 0 0.703 -0.137 1.414 -0.305 1.57 c -0.391 0.371 -1.789 0.371 -2.184 0" fill="#aaa556"/><path d="m 17.17 36.711 c 0.148 -0.746 0.09 -0.867 -0.574 -1.191 c -1.25 -0.613 -3.633 -2.828 -4.668 -4.336 c -0.984 -1.438 -1.801 -3.645 -2.098 -5.656 c -0.211 -1.434 0.188 -0.965 0.617 0.719 c 0.586 2.32 1.949 4.535 3.918 6.371 c 0.996 0.926 2.137 1.844 2.539 2.043 c 0.688 0.332 0.758 0.32 1.113 -0.184 c 0.207 -0.297 0.504 -0.535 0.664 -0.527 c 0.449 0.016 2.516 2.594 2.367 2.953 c -0.121 0.301 -1.918 0.633 -3.441 0.637 c -0.547 0.004 -0.586 -0.07 -0.438 -0.828 m 11.07 -0.219 c 0 -0.18 0.582 -0.559 1.297 -0.84 c 2.832 -1.113 5.785 -3.656 7.152 -6.16 c 0.289 -0.531 0.785 -1.664 1.102 -2.523 c 0.656 -1.777 0.801 -1.277 0.23 0.797 c -0.973 3.535 -3.762 6.691 -7.367 8.352 c -1.664 0.766 -2.414 0.883 -2.414 0.375 m -5.988 -4.555 c -0.078 -0.191 -0.105 -0.871 -0.063 -1.516 l 0.082 -1.172 h 2.539 v 2.883 l -1.211 0.074 c -0.867 0.055 -1.246 -0.023 -1.348 -0.27 m 0.195 -4.297 c -0.375 -0.355 -0.395 -1.926 -0.039 -3.133 c 0.168 -0.566 0.918 -1.566 2.031 -2.703 c 1.879 -1.914 2.148 -2.629 1.387 -3.656 c -0.871 -1.176 -3.074 -1.199 -5.16 -0.055 c -0.461 0.254 -0.945 0.461 -1.078 0.461 c -0.133 0 -0.238 -0.527 -0.238 -1.172 v -1.172 l 1.332 -0.559 c 1 -0.422 1.809 -0.563 3.238 -0.57 c 3.191 -0.016 4.813 1.141 5.03 3.594 c 0.141 1.582 -0.262 2.332 -2.387 4.473 c -1.578 1.59 -1.625 1.672 -1.625 2.922 c 0 0.703 -0.137 1.41 -0.305 1.57 c -0.395 0.371 -1.789 0.371 -2.184 0 m 15.844 -5.301 c -0.051 -0.164 -0.238 -0.84 -0.414 -1.5 c -0.602 -2.258 -1.969 -4.457 -3.895 -6.25 c -0.992 -0.93 -2.133 -1.848 -2.539 -2.043 c -0.688 -0.332 -0.754 -0.32 -1.109 0.184 c -0.207 0.297 -0.508 0.535 -0.664 0.527 c -0.453 -0.016 -2.516 -2.594 -2.371 -2.953 c 0.121 -0.301 1.922 -0.633 3.445 -0.637 c 0.547 -0.004 0.586 0.07 0.438 0.828 c -0.148 0.746 -0.09 0.867 0.574 1.191 c 1.25 0.613 3.633 2.828 4.668 4.336 c 0.973 1.422 1.801 3.645 2.086 5.598 c 0.141 0.945 -0.004 1.41 -0.219 0.723 m -28.328 -1.035 c -0.02 -0.746 0.688 -3.141 1.23 -4.145 c 0.789 -1.461 2.48 -3.457 3.773 -4.449 c 1.305 -1 3.984 -2.328 4.699 -2.328 c 0.898 0 0.406 0.672 -0.852 1.164 c -2.832 1.117 -5.789 3.66 -7.156 6.164 c -0.289 0.527 -0.781 1.664 -1.102 2.523 c -0.316 0.859 -0.582 1.344 -0.59 1.07" fill="#d15831"/><path d="m 17.17 36.711 c 0.148 -0.746 0.09 -0.867 -0.574 -1.191 c -1.25 -0.613 -3.633 -2.828 -4.668 -4.336 c -0.984 -1.438 -1.801 -3.645 -2.098 -5.656 c -0.211 -1.434 0.188 -0.965 0.617 0.719 c 0.586 2.32 1.949 4.535 3.918 6.371 c 0.996 0.926 2.137 1.844 2.539 2.043 c 0.688 0.332 0.758 0.32 1.113 -0.184 c 0.207 -0.297 0.504 -0.535 0.664 -0.527 c 0.449 0.016 2.516 2.594 2.367 2.953 c -0.121 0.301 -1.918 0.633 -3.441 0.637 c -0.547 0.004 -0.586 -0.07 -0.438 -0.828 m 5.082 -4.773 c -0.078 -0.191 -0.105 -0.871 -0.063 -1.516 l 0.078 -1.172 h 2.543 v 2.883 l -1.211 0.074 c -0.871 0.055 -1.25 -0.023 -1.348 -0.27 m 0.195 -4.297 c -0.375 -0.355 -0.395 -1.926 -0.039 -3.133 c 0.164 -0.566 0.918 -1.566 2.031 -2.703 c 1.879 -1.918 2.148 -2.629 1.383 -3.656 c -0.867 -1.176 -3.07 -1.199 -5.156 -0.055 c -0.461 0.254 -0.949 0.461 -1.078 0.461 c -0.133 0 -0.242 -0.527 -0.242 -1.172 v -1.172 l 1.336 -0.559 c 1 -0.422 1.809 -0.563 3.238 -0.57 c 3.191 -0.02 4.813 1.141 5.03 3.594 c 0.137 1.582 -0.262 2.332 -2.387 4.473 c -1.578 1.59 -1.625 1.672 -1.625 2.918 c 0 0.707 -0.137 1.414 -0.305 1.574 c -0.395 0.371 -1.789 0.371 -2.184 0 m 15.844 -5.301 c -0.055 -0.164 -0.238 -0.84 -0.414 -1.5 c -0.602 -2.258 -1.973 -4.457 -3.895 -6.25 c -0.992 -0.93 -2.137 -1.848 -2.539 -2.043 c -0.688 -0.332 -0.754 -0.32 -1.109 0.184 c -0.207 0.297 -0.508 0.535 -0.664 0.527 c -0.453 -0.02 -2.516 -2.594 -2.371 -2.957 c 0.121 -0.297 1.918 -0.629 3.445 -0.633 c 0.547 -0.004 0.586 0.07 0.434 0.828 c -0.148 0.742 -0.086 0.867 0.578 1.191 c 1.246 0.609 3.633 2.828 4.664 4.336 c 0.977 1.422 1.805 3.645 2.09 5.598 c 0.141 0.945 -0.004 1.41 -0.219 0.719" fill="#59cd31"/><path d="m 17.14 36.883 c 0.246 -1.152 1.164 -2.945 1.504 -2.934 c 0.48 0.016 2.563 2.574 2.41 2.957 c -0.121 0.297 -1.922 0.629 -3.449 0.633 c -0.523 0.004 -0.586 -0.086 -0.465 -0.656 m 5.113 -4.945 c -0.074 -0.188 -0.102 -0.871 -0.059 -1.516 l 0.078 -1.172 h 2.539 v 2.887 l -1.207 0.07 c -0.871 0.055 -1.25 -0.023 -1.352 -0.27 m 0.195 -4.297 c -0.371 -0.352 -0.391 -1.926 -0.035 -3.133 c 0.164 -0.566 0.918 -1.566 2.027 -2.703 c 1.879 -1.914 2.148 -2.625 1.387 -3.656 c -0.871 -1.176 -3.07 -1.199 -5.156 -0.051 c -0.465 0.25 -0.949 0.461 -1.082 0.461 c -0.129 0 -0.238 -0.527 -0.238 -1.172 v -1.176 l 1.332 -0.559 c 1 -0.422 1.813 -0.563 3.242 -0.57 c 3.191 -0.016 4.813 1.145 5.03 3.594 c 0.137 1.582 -0.266 2.336 -2.387 4.473 c -1.578 1.59 -1.625 1.676 -1.625 2.922 c 0 0.703 -0.137 1.414 -0.305 1.57 c -0.395 0.371 -1.793 0.371 -2.188 0 m 5.828 -15.703 c -0.609 -0.719 -1.047 -1.453 -0.973 -1.633 c 0.121 -0.301 1.918 -0.633 3.445 -0.637 c 0.523 0 0.586 0.086 0.465 0.66 c -0.246 1.148 -1.164 2.941 -1.504 2.93 c -0.18 -0.004 -0.824 -0.598 -1.434 -1.32" fill="#5c5c5c"/><path d="m 17.402 36.957 c 0.094 -0.227 0.176 -0.648 0.18 -0.934 c 0.004 -0.289 0.273 -0.828 0.598 -1.203 l 0.586 -0.68 l 1.063 1.262 c 0.586 0.695 0.973 1.344 0.863 1.445 c -0.109 0.098 -0.93 0.258 -1.828 0.355 c -1.48 0.156 -1.613 0.133 -1.461 -0.246 m 5.164 -5.102 c -0.09 -0.086 -0.168 -0.684 -0.168 -1.32 v -1.164 h 2.285 v 2.645 h -0.973 c -0.535 0 -1.051 -0.07 -1.145 -0.16 m 0.277 -4.426 c -0.277 -0.152 -0.445 -0.531 -0.445 -1.012 c 0.004 -1.555 0.531 -2.672 1.891 -4.02 c 1.754 -1.734 2.172 -2.355 2.172 -3.242 c 0 -2.109 -2.637 -2.863 -5.375 -1.543 c -1.313 0.633 -1.48 0.59 -1.48 -0.395 c 0 -0.785 0.094 -0.895 1.207 -1.367 c 1.684 -0.719 4.656 -0.742 5.906 -0.047 c 1.277 0.711 2.031 1.883 2.031 3.156 c 0 1.352 -0.41 2.07 -2.031 3.559 c -1.652 1.516 -2.031 2.203 -2.031 3.684 c 0 1.027 -0.078 1.207 -0.574 1.332 c -0.727 0.184 -0.738 0.184 -1.27 -0.109 m 5.68 -15.621 c -0.582 -0.695 -0.973 -1.344 -0.863 -1.445 c 0.109 -0.102 0.934 -0.262 1.828 -0.355 c 1.48 -0.156 1.613 -0.133 1.461 0.242 c -0.094 0.23 -0.172 0.652 -0.176 0.938 c -0.008 0.289 -0.277 0.828 -0.598 1.203 l -0.59 0.68" fill="#0c0d0c"/></svg>