<svg xmlns="http://www.w3.org/2000/svg" xmlns:xlink="http://www.w3.org/1999/xlink" viewBox="0 0 48 48"><defs><g id="3" clip-path="url(#2)"><path d="m 22.844 9.391 c -0.445 0.012 -0.879 0.137 -1.262 0.359 l -9.883 5.629 c -0.668 0.387 -1.129 1.043 -1.262 1.797 c -0.012 0 -0.02 0 -0.031 0 c -0.555 0.492 -0.867 1.195 -0.863 1.934 l -0.059 11.23 c 0.004 0.742 0.332 1.445 0.895 1.934 c 0 0.008 0 0.02 0 0.027 c 0.125 0.777 0.598 1.457 1.289 1.852 l 9.855 5.574 c 0.66 0.367 1.445 0.438 2.156 0.195 c 0.012 0 0.02 0 0.027 0 c 0.734 0.277 1.559 0.215 2.242 -0.168 l 9.855 -5.602 c 0.66 -0.383 1.121 -1.027 1.262 -1.77 c 0.609 -0.484 0.969 -1.211 0.98 -1.984 v -11.238 c -0.004 -0.738 -0.332 -1.441 -0.898 -1.93 c -0.121 -0.777 -0.594 -1.457 -1.285 -1.852 l -9.883 -5.602 c -0.656 -0.379 -1.441 -0.457 -2.16 -0.223 c -0.313 -0.113 -0.645 -0.172 -0.977 -0.164" fill-opacity="0.051"/><path d="m 14.902 14.313 c 0.668 0.176 3.316 0.98 4.91 1.469 c 1.59 0.488 2.781 0.801 3.707 1.063 c 0.934 0.266 0.863 1 0.133 0.938 c -0.727 -0.07 -1.59 -0.465 -2.453 -0.805 c -0.863 -0.332 -3.574 -1.125 -4.969 -1.598 c -1.391 -0.465 -1.727 -0.465 -1.922 -0.734 c -0.195 -0.258 -0.07 -0.504 0.594 -0.332" fill-rule="evenodd"/><path d="m 24.855 17.246 c 0.594 -0.063 0.656 0.535 0.523 0.867 c -0.133 0.332 -0.793 0.465 -0.926 0.133 c -0.203 -0.465 -0.203 -0.93 0.402 -1" fill-rule="evenodd"/><path d="m 32.668 12.445 c -0.391 0.34 -1.59 1.074 -2.445 1.672 c -0.863 0.598 -2.453 1.664 -2.926 1.93 c -0.461 0.27 -1.059 0.598 -1.457 0.93 c -0.391 0.34 -0.258 0.938 0.336 0.734 c 0.598 -0.195 1.191 -0.527 1.594 -0.93 c 0.391 -0.402 0.789 -0.672 1.191 -0.93 c 0.398 -0.27 3.449 -2.539 4.047 -2.941 c 0.594 -0.66 0.063 -0.797 -0.336 -0.465" fill-rule="evenodd"/><path d="m 34.2 11.32 c 0.332 0 0.465 0.73 0.133 0.93 c -0.328 0.195 -0.797 0.195 -0.797 -0.465 c 0 -0.672 0.336 -0.465 0.664 -0.465" fill-rule="evenodd"/><path d="m 34 12.715 c 0.258 0 0.391 0.535 0.328 0.938 c -0.07 0.395 0.063 2.992 0.133 3.926 c 0.063 0.938 0.063 1.34 -0.07 1.668 c -0.133 0.332 0 0.867 0 1.734 c 0 0.867 -0.133 1.996 -0.195 2.469 c -0.07 0.465 -0.133 0.793 -0.398 0.73 c -0.266 -0.07 -0.266 -0.402 -0.266 -0.938 c 0 -0.527 0 -3.332 0.07 -3.996 c 0.063 -0.668 0.063 -0.938 0.063 -1.465 c 0 -0.535 0 -3.664 0 -4.199 c 0 -0.535 0.07 -0.867 0.336 -0.867" fill-rule="evenodd"/><path d="m 33.797 24.707 c 0.402 -0.063 0.535 0.672 0.332 0.867 c -0.195 0.207 -0.66 0.137 -0.793 -0.195 c -0.133 -0.332 0.063 -0.598 0.461 -0.672" fill-rule="evenodd"/><path d="m 13.492 13.715 c 0.359 -0.055 0.477 0.598 0.18 0.836 c -0.297 0.242 -0.715 0.063 -0.652 -0.301 c 0.059 -0.355 0.121 -0.473 0.473 -0.535" fill-rule="evenodd"/><path d="m 14.332 13.18 c 0.832 -0.418 2.555 -1.496 2.973 -1.617 c 0.414 -0.117 1.184 -0.598 1.48 -0.836 c 0.297 -0.234 1.246 -0.777 1.426 -0.895 c 0.18 -0.121 1.012 0 0.297 0.48 c -0.711 0.48 -1.723 1.07 -2.438 1.488 c -0.711 0.426 -2.734 1.496 -3.148 1.68 c -0.414 0.18 -1.426 0.117 -0.59 -0.301" fill-rule="evenodd"/><path d="m 21.406 9.23 c 0.117 -0.055 0.477 0.246 0.297 0.48 c -0.18 0.238 -0.418 0.418 -0.66 0 c -0.234 -0.418 0.242 -0.418 0.363 -0.48" fill-rule="evenodd"/><path d="m 22.598 9.293 c 0.77 0 2.672 0.301 3.27 0.48 c 0.586 0.176 1.777 0.355 2.02 0.418 c 0.242 0.055 1.074 0.055 1.254 0.117 c 0.172 0.059 0.711 0.301 1.777 0.418 c 1.074 0.121 1.727 0.238 2.023 0.355 c 0.297 0.129 0.117 0.844 -0.359 0.719 c -0.473 -0.121 -2.43 -0.355 -2.91 -0.418 c -0.477 -0.055 -1.426 -0.418 -1.961 -0.473 c -0.539 -0.063 -1.902 -0.363 -3.03 -0.48 c -1.129 -0.121 -1.906 -0.355 -2.203 -0.418 c -0.297 -0.063 -0.652 -0.719 0.125 -0.719" fill-rule="evenodd"/><path d="m 13.32 15.684 c 0 -0.414 0.652 -0.598 0.715 -0.055 c 0.055 0.539 0.117 1.438 0.172 2.152 c 0.063 0.719 0.125 1.371 0.18 1.852 c 0.066 0.473 0.363 1.672 0.418 2.035 c 0.063 0.352 0.117 1.07 0.117 1.488 c 0 0.418 0.125 1.016 0.063 1.316 c -0.063 0.301 -0.359 1.07 -0.531 0.18 c -0.184 -0.898 -0.066 -2.031 -0.184 -2.332 c -0.117 -0.301 -0.359 -0.953 -0.359 -1.434 c 0 -0.48 -0.234 -1.734 -0.289 -2.035 c -0.063 -0.297 -0.301 -2.75 -0.301 -3.168" fill-rule="evenodd"/><path d="m 14.621 25.789 c 0.063 -0.246 0.543 -0.418 0.715 -0.121 c 0.18 0.301 0.125 0.773 -0.289 0.836 c -0.426 0.059 -0.48 -0.48 -0.426 -0.715" fill-rule="evenodd"/><path d="m 15.578 25.01 c 0.535 -0.535 2.078 -1.371 2.973 -2.152 c 0.891 -0.77 2.492 -1.852 2.789 -2.148 c 0.297 -0.301 1.074 -0.059 0.418 0.477 c -0.652 0.539 -2.195 1.672 -2.855 2.207 c -0.652 0.547 -2.43 1.734 -2.789 2.098 c -0.355 0.355 -1.066 0.055 -0.535 -0.48" fill-rule="evenodd"/><path d="m 22.535 19.688 c 0.234 0.063 0.234 0.543 0 0.664 c -0.234 0.117 -0.652 0.055 -0.598 -0.301 c 0.063 -0.363 0.363 -0.418 0.598 -0.363" fill-rule="evenodd"/><path d="m 16.41 26.387 c 0.832 0.238 2.672 1.434 3.27 1.672 c 0.594 0.234 1.723 0.836 2.254 1.133 c 0.535 0.301 1.844 0.898 2.203 1.074 c 0.355 0.18 0.652 0.242 0.832 0.426 c 0.18 0.172 -0.063 0.836 -0.531 0.59 c -0.48 -0.238 -2.32 -1.191 -2.621 -1.371 c -0.297 -0.184 -1.426 -0.781 -1.785 -1.016 c -0.355 -0.238 -0.832 -0.301 -1.301 -0.539 c -0.48 -0.234 -2.141 -1.133 -2.684 -1.434 c -0.531 -0.297 -0.469 -0.777 0.363 -0.535" fill-rule="evenodd"/><path d="m 24.613 19.1 c -0.055 0.59 0.063 1.727 0.125 2.027 c 0.055 0.297 0.289 1.551 0.234 2.449 c -0.063 0.898 0 2.035 0.117 2.633 c 0.117 0.598 0.18 2.152 0.18 2.566 c 0 0.418 0.117 0.957 0.18 1.074 c 0.059 0.125 0.418 0.66 0.473 -0.117 c 0.063 -0.773 0 -2.328 0.063 -2.809 c 0.055 -0.48 -0.063 -1.613 -0.18 -3.047 c -0.117 -1.434 -0.18 -2.625 -0.18 -2.988 c 0 -0.355 0.117 -1.254 -0.117 -1.617 c -0.184 -0.598 -0.832 -0.77 -0.895 -0.172" fill-rule="evenodd"/><path d="m 25.738 30.926 c 0.18 -0.063 0.777 0.418 0.543 0.953 c -0.246 0.539 -0.598 0.301 -0.832 -0.117 c -0.242 -0.418 0.117 -0.781 0.289 -0.836" fill-rule="evenodd"/><path d="m 26.992 30.33 c 0.77 -0.898 0.949 -0.656 1.367 -1.02 c 0.414 -0.355 2.074 -1.668 2.672 -2.207 c 0.594 -0.543 1.074 -0.84 1.426 -1.133 c 0.363 -0.301 0.895 0.141 0.363 0.473 c -0.535 0.332 -1.727 1.504 -2.203 2.152 c -0.473 0.645 -0.895 0.48 -1.43 1.016 c -0.531 0.535 -0.828 0.953 -1.129 1.078 c -0.297 0.121 -0.531 0.293 -0.766 0.473 c -0.246 0.184 -1.074 0.066 -0.301 -0.832" fill-rule="evenodd"/><path d="m 23.598 20.11 c 0.363 0.129 1.852 0.664 2.855 1.145 c 1.012 0.473 3.449 1.488 3.926 1.789 c 0.48 0.297 2.375 1.016 2.621 1.195 c 0.234 0.176 0.289 1.074 -0.246 0.836 c -0.531 -0.242 -2.02 -1.078 -2.969 -1.496 c -0.949 -0.418 -2.438 -1.137 -3.152 -1.316 c -0.711 -0.176 -2.074 -1.01 -2.438 -1.254 c -0.352 -0.234 -0.766 -0.234 -0.949 -0.535 c -0.18 -0.301 0 -0.48 0.355 -0.363" fill-rule="evenodd"/><path d="m 21.82 10.793 c 0.117 0.715 0.234 1.488 0.234 2.086 c 0 0.598 0.117 1.555 0.18 1.852 c 0.063 0.301 0.18 1.316 0.117 1.5 c -0.055 0.172 0 1.605 0 1.969 c 0 0.355 0.117 0.836 -0.234 0.836 c -0.359 0 -0.414 -0.301 -0.414 -0.953 c 0 -0.664 -0.242 -2.098 -0.242 -2.695 c 0 -0.59 -0.121 -1.852 -0.121 -2.688 c 0 -0.836 -0.172 -1.734 -0.234 -1.969 c -0.063 -0.238 0.598 -0.652 0.715 0.063" fill-rule="evenodd"/><path d="m 39 38.539 c 0 0.512 -0.148 0.91 -0.441 1.184 c -0.301 0.281 -0.723 0.418 -1.281 0.418 c -0.547 0 -0.973 -0.137 -1.281 -0.418 c -0.305 -0.277 -0.457 -0.664 -0.457 -1.164 v -1.285 h 1.477 v 1.301 c 0 0.152 0.016 0.262 0.059 0.324 c 0.039 0.07 0.109 0.102 0.203 0.102 c 0.09 0 0.16 -0.031 0.199 -0.102 c 0.039 -0.063 0.063 -0.172 0.063 -0.324 v -0.625 c 0 -0.281 -0.242 -0.625 -0.73 -1.031 c -0.105 -0.086 -0.188 -0.156 -0.242 -0.207 l -0.016 -0.012 c -0.672 -0.586 -1.012 -1.168 -1.012 -1.754 v -0.617 c 0 -0.461 0.152 -0.816 0.453 -1.07 c 0.305 -0.258 0.73 -0.379 1.273 -0.379 c 0.551 0 0.973 0.133 1.281 0.395 c 0.301 0.27 0.453 0.645 0.453 1.129 v 1.059 h -1.461 v -1.082 c 0 -0.148 -0.023 -0.258 -0.063 -0.324 c -0.039 -0.063 -0.109 -0.094 -0.199 -0.094 c -0.094 0 -0.164 0.031 -0.203 0.094 c -0.043 0.063 -0.059 0.176 -0.059 0.324 v 0.371 c 0 0.313 0.23 0.656 0.695 1.035 c 0.109 0.082 0.195 0.152 0.254 0.207 c 0.461 0.387 0.75 0.688 0.863 0.902 c 0.113 0.219 0.172 0.504 0.172 0.852" fill-rule="evenodd"/><path d="m 31.668 39.973 v -6.93 h 1.438 v 0.578 h 0.023 c 0.125 -0.242 0.273 -0.418 0.441 -0.539 c 0.172 -0.113 0.375 -0.168 0.602 -0.168 c 0.32 0 0.555 0.094 0.715 0.297 c 0.16 0.195 0.242 0.492 0.242 0.883 v 5.879 h -1.477 v -5.375 c 0 -0.16 -0.016 -0.27 -0.055 -0.328 c -0.039 -0.055 -0.109 -0.082 -0.207 -0.082 c -0.09 0 -0.156 0.031 -0.199 0.102 c -0.043 0.063 -0.063 0.168 -0.063 0.309 v 5.375" fill-rule="evenodd"/><path d="m 27.746 34.461 c 0 -0.523 0.148 -0.918 0.438 -1.188 c 0.289 -0.262 0.719 -0.395 1.293 -0.395 c 0.617 0 1.059 0.145 1.324 0.441 c 0.262 0.297 0.395 0.805 0.395 1.531 v 4.215 c 0 0.184 0.008 0.348 0.023 0.488 c 0.02 0.148 0.043 0.285 0.082 0.418 h -1.48 c -0.02 -0.082 -0.031 -0.164 -0.043 -0.246 c -0.016 -0.09 -0.02 -0.164 -0.02 -0.234 v -0.109 h -0.02 c -0.105 0.227 -0.246 0.402 -0.426 0.523 c -0.18 0.125 -0.387 0.184 -0.621 0.184 c -0.313 0 -0.543 -0.102 -0.703 -0.297 c -0.156 -0.191 -0.242 -0.484 -0.242 -0.867 v -1.469 c 0 -0.359 0.066 -0.656 0.188 -0.891 c 0.129 -0.227 0.332 -0.418 0.609 -0.574 c 0.086 -0.055 0.215 -0.125 0.379 -0.207 c 0.547 -0.297 0.824 -0.574 0.824 -0.84 v -0.492 c 0 -0.148 -0.02 -0.258 -0.063 -0.324 c -0.043 -0.066 -0.113 -0.102 -0.211 -0.102 c -0.09 0 -0.156 0.035 -0.195 0.102 c -0.039 0.066 -0.055 0.176 -0.055 0.324 v 1.01 h -1.477" fill-rule="evenodd"/><path d="m 29.746 38.41 v -1.84 c -0.023 0.016 -0.047 0.039 -0.086 0.074 c -0.293 0.23 -0.438 0.441 -0.438 0.621 v 1.145 c 0 0.156 0.016 0.258 0.055 0.32 c 0.039 0.055 0.109 0.086 0.207 0.086 c 0.086 0 0.156 -0.031 0.199 -0.102 c 0.043 -0.063 0.063 -0.164 0.063 -0.305" fill-rule="evenodd"/><path d="m 25.32 38.574 c 0 0.148 0.023 0.258 0.066 0.324 c 0.039 0.066 0.109 0.102 0.199 0.102 c 0.094 0 0.164 -0.035 0.203 -0.102 c 0.039 -0.066 0.059 -0.176 0.059 -0.324 v -1.305 h 1.465 v 1.289 c 0 0.504 -0.152 0.891 -0.457 1.164 c -0.301 0.277 -0.723 0.414 -1.27 0.414 c -0.617 0 -1.059 -0.145 -1.324 -0.445 c -0.266 -0.297 -0.398 -0.805 -0.398 -1.523 v -3.32 c 0 -0.727 0.133 -1.238 0.395 -1.535 c 0.262 -0.289 0.703 -0.438 1.316 -0.438 c 0.547 0 0.969 0.133 1.273 0.398 c 0.313 0.266 0.465 0.629 0.465 1.094 v 2.355 h -1.992" fill-rule="evenodd"/><path d="m 25.32 34.379 v 1.313 h 0.527 v -1.313 c 0 -0.148 -0.02 -0.258 -0.059 -0.324 c -0.039 -0.063 -0.109 -0.094 -0.203 -0.094 c -0.09 0 -0.16 0.031 -0.199 0.094 c -0.043 0.066 -0.066 0.176 -0.066 0.324" fill-rule="evenodd"/><path d="m 19.59 39.973 v -8.664 h 1.93 c 0.648 0 1.129 0.121 1.445 0.371 c 0.316 0.242 0.473 0.613 0.473 1.113 v 1.016 c 0 0.469 -0.09 0.809 -0.277 1.027 c -0.188 0.227 -0.52 0.379 -0.996 0.48 v 0.047 c 0.434 0.039 0.75 0.172 0.961 0.402 c 0.211 0.227 0.313 0.559 0.313 0.992 v 1.344 c 0 0.68 -0.152 1.164 -0.457 1.445 c -0.305 0.285 -0.832 0.426 -1.574 0.426" fill-rule="evenodd"/><path d="m 21.797 34.28 v -1.379 c 0 -0.195 -0.035 -0.32 -0.102 -0.391 c -0.07 -0.063 -0.219 -0.102 -0.449 -0.102 v 2.379 c 0.227 0 0.375 -0.035 0.441 -0.105 c 0.07 -0.063 0.109 -0.199 0.109 -0.402" fill-rule="evenodd"/><path d="m 21.797 38.27 v -1.816 c 0 -0.18 -0.035 -0.301 -0.102 -0.375 c -0.07 -0.074 -0.191 -0.105 -0.359 -0.105 h -0.09 v 2.773 h 0.09 c 0.168 0 0.289 -0.035 0.359 -0.109 c 0.07 -0.066 0.102 -0.195 0.102 -0.367" fill-rule="evenodd"/><path d="m 17.05 34.15 v -1.109 h 0.371 v -1.289 h 1.473 v 1.289 h 0.426 v 1.109 h -0.426 v 4.207 c 0 0.215 0.023 0.352 0.078 0.41 c 0.047 0.055 0.148 0.082 0.301 0.082 h 0.047 v 1.121 h -0.922 c -0.355 0 -0.605 -0.09 -0.754 -0.258 c -0.148 -0.172 -0.223 -0.488 -0.223 -0.961 v -4.602" fill-rule="evenodd"/><path d="m 14.836 38.574 c 0 0.148 0.02 0.258 0.063 0.324 c 0.043 0.066 0.105 0.102 0.199 0.102 c 0.09 0 0.16 -0.035 0.203 -0.102 c 0.039 -0.066 0.063 -0.176 0.063 -0.324 v -1.305 h 1.457 v 1.289 c 0 0.504 -0.148 0.891 -0.449 1.164 c -0.301 0.277 -0.723 0.414 -1.273 0.414 c -0.617 0 -1.055 -0.145 -1.32 -0.445 c -0.273 -0.297 -0.402 -0.805 -0.402 -1.523 v -3.32 c 0 -0.727 0.129 -1.238 0.391 -1.535 c 0.262 -0.289 0.703 -0.438 1.324 -0.438 c 0.539 0 0.969 0.133 1.273 0.398 c 0.305 0.266 0.457 0.629 0.457 1.094 v 2.355 h -1.984" fill-rule="evenodd"/><path d="m 14.836 34.379 v 1.313 h 0.527 v -1.313 c 0 -0.148 -0.023 -0.258 -0.063 -0.324 c -0.043 -0.063 -0.113 -0.094 -0.203 -0.094 c -0.094 0 -0.156 0.031 -0.203 0.094 c -0.039 0.066 -0.059 0.176 -0.059 0.324" fill-rule="evenodd"/><path d="m 8.535 39.973 v -8.664 h 2.27 l 0.578 3.672 c 0.055 0.332 0.098 0.699 0.137 1.105 c 0.039 0.41 0.07 0.871 0.098 1.398 h 0.063 c -0.023 -0.609 -0.043 -1.145 -0.055 -1.602 c -0.012 -0.457 -0.023 -0.785 -0.023 -0.984 l -0.008 -3.59 h 1.297 v 8.664 h -1.941 l -0.848 -4.707 c -0.035 -0.184 -0.074 -0.461 -0.125 -0.832 c -0.051 -0.371 -0.102 -0.777 -0.152 -1.223 h -0.051 c 0.027 0.363 0.047 0.676 0.059 0.945 c 0.012 0.273 0.016 0.492 0.016 0.668 v 5.148" fill-rule="evenodd"/></g><clipPath id="2"><path d="M 0,0 H48 V48 H0 z"/></clipPath><filter id="0" filterUnits="objectBoundingBox" x="0" y="0" width="48" height="48"><feColorMatrix type="matrix" in="SourceGraphic" values="0 0 0 0 1 0 0 0 0 1 0 0 0 0 1 0 0 0 1 0"/></filter><linearGradient id="4" gradientUnits="userSpaceOnUse" y1="43" x2="0" y2="3" gradientTransform="matrix(0.89608 0 0 0.88333 2.261 1.539)"><stop stop-color="#aaa" stop-opacity="0.051"/><stop offset="1" stop-color="#c8c8c8" stop-opacity="0.051"/></linearGradient><mask id="1"><g filter="url(#0)"><path fill-opacity="0.149" d="M 0,0 H48 V48 H0 z"/></g></mask></defs><path d="m 39.594 6.961 c 37.844 49.945 -66.3 57.04 -32.879 6.06 c 7.621 -11.621 22.855 -19.285 32.879 -6.06" fill="#f4f4f4"/><use xlink:href="#3" mask="url(#1)"/><path d="m 22.844 8.773 c -0.445 0.012 -0.879 0.137 -1.262 0.355 l -9.883 5.633 c -0.668 0.387 -1.129 1.043 -1.262 1.793 c -0.012 0 -0.02 0 -0.031 0 c -0.555 0.496 -0.867 1.199 -0.863 1.938 l -0.059 11.23 c 0.004 0.742 0.332 1.445 0.895 1.934 c 0 0.008 0 0.016 0 0.027 c 0.125 0.777 0.598 1.457 1.289 1.848 l 9.855 5.578 c 0.66 0.367 1.445 0.438 2.156 0.191 c 0.012 0 0.02 0 0.027 0 c 0.734 0.277 1.559 0.219 2.242 -0.164 l 9.855 -5.605 c 0.66 -0.379 1.121 -1.023 1.262 -1.766 c 0.609 -0.484 0.969 -1.215 0.98 -1.988 v -11.234 c -0.004 -0.742 -0.332 -1.445 -0.898 -1.934 c -0.121 -0.773 -0.594 -1.453 -1.285 -1.848 l -9.883 -5.605 c -0.656 -0.375 -1.441 -0.453 -2.16 -0.219 c -0.313 -0.117 -0.645 -0.172 -0.977 -0.164" fill="url(#4)"/><g fill-rule="evenodd"><g fill="#a12125"><path d="m 14.902 13.695 c 0.668 0.172 3.316 0.977 4.91 1.465 c 1.59 0.488 2.781 0.805 3.707 1.066 c 0.934 0.266 0.863 1 0.133 0.938 c -0.727 -0.074 -1.59 -0.465 -2.453 -0.805 c -0.863 -0.332 -3.574 -1.129 -4.969 -1.602 c -1.391 -0.465 -1.727 -0.465 -1.922 -0.73 c -0.195 -0.262 -0.07 -0.504 0.594 -0.332"/><path d="m 24.855 16.629 c 0.594 -0.066 0.656 0.535 0.523 0.863 c -0.133 0.332 -0.793 0.465 -0.926 0.137 c -0.203 -0.465 -0.203 -0.93 0.402 -1"/><path d="m 32.668 11.828 c -0.391 0.34 -1.59 1.07 -2.445 1.672 c -0.863 0.598 -2.453 1.66 -2.926 1.93 c -0.461 0.266 -1.059 0.598 -1.457 0.93 c -0.391 0.34 -0.258 0.938 0.336 0.734 c 0.598 -0.199 1.191 -0.531 1.594 -0.93 c 0.391 -0.402 0.789 -0.672 1.191 -0.934 c 0.398 -0.266 3.449 -2.535 4.047 -2.938 c 0.594 -0.66 0.063 -0.797 -0.336 -0.465"/><path d="m 34.2 10.699 c 0.332 0 0.465 0.734 0.133 0.93 c -0.328 0.199 -0.797 0.199 -0.797 -0.465 c 0 -0.668 0.336 -0.465 0.664 -0.465"/><path d="m 34 12.09 c 0.258 0 0.391 0.539 0.328 0.941 c -0.07 0.391 0.063 2.992 0.133 3.922 c 0.063 0.938 0.063 1.34 -0.07 1.672 c -0.133 0.332 0 0.867 0 1.734 c 0 0.867 -0.133 1.992 -0.195 2.465 c -0.07 0.465 -0.133 0.797 -0.398 0.734 c -0.266 -0.07 -0.266 -0.402 -0.266 -0.938 c 0 -0.527 0 -3.332 0.07 -3.996 c 0.063 -0.668 0.063 -0.938 0.063 -1.465 c 0 -0.535 0 -3.664 0 -4.199 c 0 -0.535 0.07 -0.871 0.336 -0.871"/><path d="m 33.797 24.09 c 0.402 -0.063 0.535 0.672 0.332 0.867 c -0.195 0.203 -0.66 0.133 -0.793 -0.195 c -0.133 -0.332 0.063 -0.602 0.461 -0.672"/><path d="m 13.492 13.1 c 0.359 -0.055 0.477 0.598 0.18 0.836 c -0.297 0.242 -0.715 0.063 -0.652 -0.301 c 0.059 -0.355 0.121 -0.473 0.473 -0.535"/><path d="m 14.332 12.563 c 0.832 -0.418 2.555 -1.5 2.973 -1.617 c 0.414 -0.117 1.184 -0.598 1.48 -0.836 c 0.297 -0.234 1.246 -0.781 1.426 -0.898 c 0.18 -0.117 1.012 0 0.297 0.48 c -0.711 0.48 -1.723 1.074 -2.438 1.492 c -0.711 0.426 -2.734 1.496 -3.148 1.68 c -0.414 0.18 -1.426 0.117 -0.59 -0.301"/><path d="m 21.406 8.613 c 0.117 -0.055 0.477 0.242 0.297 0.48 c -0.18 0.234 -0.418 0.418 -0.66 0 c -0.234 -0.418 0.242 -0.418 0.363 -0.48"/><path d="m 22.598 8.676 c 0.77 0 2.672 0.301 3.27 0.48 c 0.586 0.172 1.777 0.355 2.02 0.418 c 0.242 0.055 1.074 0.055 1.254 0.117 c 0.172 0.055 0.711 0.301 1.777 0.418 c 1.074 0.117 1.727 0.238 2.023 0.355 c 0.297 0.125 0.117 0.844 -0.359 0.719 c -0.473 -0.121 -2.43 -0.355 -2.91 -0.418 c -0.477 -0.059 -1.426 -0.418 -1.961 -0.477 c -0.539 -0.063 -1.902 -0.359 -3.03 -0.48 c -1.129 -0.117 -1.906 -0.352 -2.203 -0.418 c -0.297 -0.063 -0.652 -0.715 0.125 -0.715"/><path d="m 13.32 15.07 c 0 -0.418 0.652 -0.598 0.715 -0.055 c 0.055 0.535 0.117 1.434 0.172 2.152 c 0.063 0.715 0.125 1.371 0.18 1.852 c 0.066 0.473 0.363 1.672 0.418 2.031 c 0.063 0.355 0.117 1.074 0.117 1.492 c 0 0.414 0.125 1.016 0.063 1.316 c -0.063 0.297 -0.359 1.07 -0.531 0.18 c -0.184 -0.898 -0.066 -2.035 -0.184 -2.332 c -0.117 -0.301 -0.359 -0.953 -0.359 -1.434 c 0 -0.484 -0.234 -1.734 -0.289 -2.035 c -0.063 -0.297 -0.301 -2.75 -0.301 -3.168"/><path d="m 14.621 25.17 c 0.063 -0.246 0.543 -0.418 0.715 -0.121 c 0.18 0.301 0.125 0.773 -0.289 0.836 c -0.426 0.055 -0.48 -0.48 -0.426 -0.715"/><path d="m 15.578 24.391 c 0.535 -0.535 2.078 -1.371 2.973 -2.152 c 0.891 -0.773 2.492 -1.852 2.789 -2.152 c 0.297 -0.297 1.074 -0.055 0.418 0.48 c -0.652 0.539 -2.195 1.672 -2.855 2.207 c -0.652 0.543 -2.43 1.734 -2.789 2.098 c -0.355 0.355 -1.066 0.055 -0.535 -0.48"/><path d="m 22.535 19.07 c 0.234 0.063 0.234 0.543 0 0.66 c -0.234 0.121 -0.652 0.059 -0.598 -0.297 c 0.063 -0.363 0.363 -0.418 0.598 -0.363"/><path d="m 16.41 25.77 c 0.832 0.234 2.672 1.434 3.27 1.668 c 0.594 0.238 1.723 0.836 2.254 1.137 c 0.535 0.301 1.844 0.898 2.203 1.07 c 0.355 0.184 0.652 0.246 0.832 0.426 c 0.18 0.176 -0.063 0.836 -0.531 0.594 c -0.48 -0.238 -2.32 -1.191 -2.621 -1.371 c -0.297 -0.184 -1.426 -0.781 -1.785 -1.02 c -0.355 -0.234 -0.832 -0.297 -1.301 -0.535 c -0.48 -0.234 -2.141 -1.133 -2.684 -1.434 c -0.531 -0.301 -0.469 -0.781 0.363 -0.535"/><path d="m 24.613 18.48 c -0.055 0.59 0.063 1.723 0.125 2.023 c 0.055 0.301 0.289 1.555 0.234 2.453 c -0.063 0.895 0 2.031 0.117 2.633 c 0.117 0.598 0.18 2.148 0.18 2.566 c 0 0.418 0.117 0.953 0.18 1.074 c 0.059 0.125 0.418 0.66 0.473 -0.121 c 0.063 -0.77 0 -2.324 0.063 -2.805 c 0.055 -0.48 -0.063 -1.617 -0.18 -3.051 c -0.117 -1.434 -0.18 -2.625 -0.18 -2.984 c 0 -0.355 0.117 -1.254 -0.117 -1.617 c -0.184 -0.598 -0.832 -0.773 -0.895 -0.172"/><path d="m 25.738 30.31 c 0.18 -0.063 0.777 0.418 0.543 0.953 c -0.246 0.535 -0.598 0.301 -0.832 -0.117 c -0.242 -0.418 0.117 -0.781 0.289 -0.836"/><path d="m 26.992 29.707 c 0.77 -0.898 0.949 -0.652 1.367 -1.016 c 0.414 -0.355 2.074 -1.672 2.672 -2.207 c 0.594 -0.543 1.074 -0.844 1.426 -1.133 c 0.363 -0.301 0.895 0.141 0.363 0.473 c -0.535 0.328 -1.727 1.504 -2.203 2.152 c -0.473 0.645 -0.895 0.48 -1.43 1.016 c -0.531 0.535 -0.828 0.953 -1.129 1.078 c -0.297 0.121 -0.531 0.293 -0.766 0.473 c -0.246 0.18 -1.074 0.063 -0.301 -0.836"/><path d="m 23.598 19.488 c 0.363 0.125 1.852 0.66 2.855 1.141 c 1.012 0.477 3.449 1.492 3.926 1.789 c 0.48 0.301 2.375 1.02 2.621 1.199 c 0.234 0.172 0.289 1.07 -0.246 0.836 c -0.531 -0.246 -2.02 -1.078 -2.969 -1.5 c -0.949 -0.414 -2.438 -1.133 -3.152 -1.313 c -0.711 -0.176 -2.074 -1.012 -2.438 -1.254 c -0.352 -0.238 -0.766 -0.238 -0.949 -0.535 c -0.18 -0.301 0 -0.48 0.355 -0.363"/><path d="m 21.82 10.172 c 0.117 0.719 0.234 1.492 0.234 2.09 c 0 0.598 0.117 1.551 0.18 1.852 c 0.063 0.301 0.18 1.316 0.117 1.496 c -0.055 0.176 0 1.609 0 1.973 c 0 0.352 0.117 0.832 -0.234 0.832 c -0.359 0 -0.414 -0.297 -0.414 -0.953 c 0 -0.66 -0.242 -2.094 -0.242 -2.691 c 0 -0.59 -0.121 -1.852 -0.121 -2.688 c 0 -0.836 -0.172 -1.734 -0.234 -1.969 c -0.063 -0.238 0.598 -0.656 0.715 0.063"/></g><g fill="#3c5886"><path d="m 39 37.918 c 0 0.516 -0.148 0.914 -0.441 1.188 c -0.301 0.277 -0.723 0.414 -1.281 0.414 c -0.547 0 -0.973 -0.137 -1.281 -0.414 c -0.305 -0.277 -0.457 -0.668 -0.457 -1.164 v -1.289 h 1.477 v 1.305 c 0 0.148 0.016 0.258 0.059 0.324 c 0.039 0.066 0.109 0.102 0.203 0.102 c 0.09 0 0.16 -0.035 0.199 -0.102 c 0.039 -0.066 0.063 -0.176 0.063 -0.324 v -0.625 c 0 -0.285 -0.242 -0.625 -0.73 -1.031 c -0.105 -0.09 -0.188 -0.156 -0.242 -0.207 l -0.016 -0.012 c -0.672 -0.586 -1.012 -1.172 -1.012 -1.754 v -0.617 c 0 -0.461 0.152 -0.816 0.453 -1.074 c 0.305 -0.254 0.73 -0.379 1.273 -0.379 c 0.551 0 0.973 0.133 1.281 0.398 c 0.301 0.27 0.453 0.645 0.453 1.129 v 1.059 h -1.461 v -1.082 c 0 -0.152 -0.023 -0.262 -0.063 -0.324 c -0.039 -0.066 -0.109 -0.098 -0.199 -0.098 c -0.094 0 -0.164 0.031 -0.203 0.098 c -0.043 0.063 -0.059 0.172 -0.059 0.324 v 0.367 c 0 0.316 0.23 0.66 0.695 1.039 c 0.109 0.082 0.195 0.148 0.254 0.203 c 0.461 0.391 0.75 0.691 0.863 0.906 c 0.113 0.219 0.172 0.5 0.172 0.852 v 0.793"/><path d="m 31.668 39.35 v -6.93 h 1.438 v 0.582 h 0.023 c 0.125 -0.242 0.273 -0.422 0.441 -0.539 c 0.172 -0.113 0.375 -0.168 0.602 -0.168 c 0.32 0 0.555 0.094 0.715 0.297 c 0.16 0.195 0.242 0.492 0.242 0.879 v 5.879 h -1.477 v -5.371 c 0 -0.16 -0.016 -0.27 -0.055 -0.328 c -0.039 -0.055 -0.109 -0.082 -0.207 -0.082 c -0.09 0 -0.156 0.031 -0.199 0.098 c -0.043 0.066 -0.063 0.172 -0.063 0.313 v 5.371"/><path d="m 27.746 33.844 c 0 -0.527 0.148 -0.918 0.438 -1.188 c 0.289 -0.266 0.719 -0.398 1.293 -0.398 c 0.617 0 1.059 0.148 1.324 0.445 c 0.262 0.297 0.395 0.801 0.395 1.527 v 4.219 c 0 0.184 0.008 0.348 0.023 0.488 c 0.02 0.148 0.043 0.285 0.082 0.414 h -1.48 c -0.02 -0.078 -0.031 -0.164 -0.043 -0.246 c -0.016 -0.086 -0.02 -0.164 -0.02 -0.23 v -0.109 h -0.02 c -0.105 0.227 -0.246 0.402 -0.426 0.523 c -0.18 0.125 -0.387 0.184 -0.621 0.184 c -0.313 0 -0.543 -0.102 -0.703 -0.297 c -0.156 -0.191 -0.242 -0.484 -0.242 -0.867 v -1.469 c 0 -0.363 0.066 -0.66 0.188 -0.891 c 0.129 -0.23 0.332 -0.422 0.609 -0.574 c 0.086 -0.055 0.215 -0.125 0.379 -0.207 c 0.547 -0.297 0.824 -0.574 0.824 -0.84 v -0.492 c 0 -0.152 -0.02 -0.262 -0.063 -0.324 c -0.043 -0.07 -0.113 -0.102 -0.211 -0.102 c -0.09 0 -0.156 0.031 -0.195 0.102 c -0.039 0.063 -0.055 0.172 -0.055 0.324 v 1.01 h -1.477"/></g><path d="m 29.746 37.793 v -1.84 c -0.023 0.016 -0.047 0.039 -0.086 0.07 c -0.293 0.234 -0.438 0.445 -0.438 0.621 v 1.145 c 0 0.156 0.016 0.262 0.055 0.32 c 0.039 0.055 0.109 0.086 0.207 0.086 c 0.086 0 0.156 -0.031 0.199 -0.098 c 0.043 -0.066 0.063 -0.164 0.063 -0.309" fill="#fff"/><path d="m 25.32 37.957 c 0 0.148 0.023 0.258 0.066 0.324 c 0.039 0.066 0.109 0.098 0.199 0.098 c 0.094 0 0.164 -0.031 0.203 -0.098 c 0.039 -0.066 0.059 -0.176 0.059 -0.324 v -1.305 h 1.465 v 1.289 c 0 0.5 -0.152 0.891 -0.457 1.164 c -0.301 0.277 -0.723 0.414 -1.27 0.414 c -0.617 0 -1.059 -0.145 -1.324 -0.445 c -0.266 -0.297 -0.398 -0.805 -0.398 -1.527 v -3.316 c 0 -0.727 0.133 -1.238 0.395 -1.535 c 0.262 -0.293 0.703 -0.438 1.316 -0.438 c 0.547 0 0.969 0.133 1.273 0.395 c 0.313 0.266 0.465 0.633 0.465 1.098 v 2.355 h -1.992" fill="#3c5886"/><path d="m 25.32 33.762 v 1.309 h 0.527 v -1.309 c 0 -0.152 -0.02 -0.262 -0.059 -0.324 c -0.039 -0.063 -0.109 -0.098 -0.203 -0.098 c -0.09 0 -0.16 0.035 -0.199 0.098 c -0.043 0.063 -0.066 0.172 -0.066 0.324" fill="#fff"/><path d="m 19.59 39.35 v -8.66 h 1.93 c 0.648 0 1.129 0.121 1.445 0.367 c 0.316 0.242 0.473 0.617 0.473 1.113 v 1.02 c 0 0.465 -0.09 0.809 -0.277 1.027 c -0.188 0.223 -0.52 0.379 -0.996 0.48 v 0.043 c 0.434 0.043 0.75 0.176 0.961 0.402 c 0.211 0.23 0.313 0.563 0.313 0.996 v 1.344 c 0 0.68 -0.152 1.164 -0.457 1.445 c -0.305 0.285 -0.832 0.426 -1.574 0.426 h -1.816" fill="#3c5886"/><g fill="#fff"><path d="m 21.797 33.66 v -1.379 c 0 -0.195 -0.035 -0.324 -0.102 -0.391 c -0.07 -0.066 -0.219 -0.102 -0.449 -0.102 v 2.379 c 0.227 0 0.375 -0.039 0.441 -0.105 c 0.07 -0.063 0.109 -0.199 0.109 -0.402"/><path d="m 21.797 37.645 v -1.816 c 0 -0.176 -0.035 -0.301 -0.102 -0.371 c -0.07 -0.074 -0.191 -0.105 -0.359 -0.105 h -0.09 v 2.773 h 0.09 c 0.168 0 0.289 -0.035 0.359 -0.109 c 0.07 -0.066 0.102 -0.195 0.102 -0.371"/></g><g fill="#3c5886"><path d="m 17.05 33.531 v -1.109 h 0.371 v -1.285 h 1.473 v 1.285 h 0.426 v 1.109 h -0.426 v 4.211 c 0 0.215 0.023 0.352 0.078 0.41 c 0.047 0.055 0.148 0.082 0.301 0.082 h 0.047 v 1.117 h -0.922 c -0.355 0 -0.605 -0.086 -0.754 -0.254 c -0.148 -0.176 -0.223 -0.488 -0.223 -0.965 v -4.602"/><path d="m 14.836 37.957 c 0 0.148 0.02 0.258 0.063 0.324 c 0.043 0.066 0.105 0.098 0.199 0.098 c 0.09 0 0.16 -0.031 0.203 -0.098 c 0.039 -0.066 0.063 -0.176 0.063 -0.324 v -1.305 h 1.457 v 1.289 c 0 0.5 -0.148 0.891 -0.449 1.164 c -0.301 0.277 -0.723 0.414 -1.273 0.414 c -0.617 0 -1.055 -0.145 -1.32 -0.445 c -0.273 -0.297 -0.402 -0.805 -0.402 -1.527 v -3.316 c 0 -0.727 0.129 -1.238 0.391 -1.535 c 0.262 -0.293 0.703 -0.438 1.324 -0.438 c 0.539 0 0.969 0.133 1.273 0.395 c 0.305 0.266 0.457 0.633 0.457 1.098 v 2.355 h -1.984"/></g><path d="m 14.836 33.762 v 1.309 h 0.527 v -1.309 c 0 -0.152 -0.023 -0.262 -0.063 -0.324 c -0.043 -0.063 -0.113 -0.098 -0.203 -0.098 c -0.094 0 -0.156 0.035 -0.203 0.098 c -0.039 0.063 -0.059 0.172 -0.059 0.324" fill="#fff"/><path d="m 8.535 39.35 v -8.66 h 2.27 l 0.578 3.668 c 0.055 0.336 0.098 0.699 0.137 1.105 c 0.039 0.41 0.07 0.871 0.098 1.402 h 0.063 c -0.023 -0.613 -0.043 -1.145 -0.055 -1.602 c -0.012 -0.457 -0.023 -0.785 -0.023 -0.988 l -0.008 -3.586 h 1.297 v 8.664 h -1.941 l -0.848 -4.707 c -0.035 -0.184 -0.074 -0.461 -0.125 -0.832 c -0.051 -0.375 -0.102 -0.777 -0.152 -1.223 h -0.051 c 0.027 0.359 0.047 0.676 0.059 0.945 c 0.012 0.273 0.016 0.492 0.016 0.664 v 5.152 h -1.313" fill="#3c5886"/></g></svg>