<svg xmlns="http://www.w3.org/2000/svg" viewBox="0 0 48 48"><path d="m 6.066 7.223 c -27.453 42.26 47.531 58.61 41.559 15.14 c -2.438 -17.727 -31.06 -31.3 -41.559 -15.14" fill="#2fa4f1"/><g fill="#fff" stroke="#fff" transform="scale(0.1875)"><path d="m 81.52 186.96 c -11.563 -2 -19.396 -6.083 -26.937 -14.08 c -11.06 -11.708 -14.979 -25.917 -11.125 -40.33 c 2.208 -8.187 4.875 -12.833 11 -19.19 c 4.604 -4.729 7.438 -6.625 16.417 -10.917 c 9.729 -4.667 11.417 -5.854 16.625 -11.667 c 13.333 -14.938 25.521 -20.792 43.27 -20.792 c 14.542 0 26.708 4.604 36.708 13.854 c 6.313 5.875 9.854 11.563 14.583 23.479 c 2.667 6.708 3.542 7.958 7.396 10.5 c 13.917 9.167 20.06 18.02 20.771 29.917 c 0.979 16.17 -6.688 29.396 -20.458 35.27 c -6.729 2.875 -16 4.813 -23.17 4.833 l -5.521 0.021 l -14 -13.479 c -15.396 -14.792 -18 -17.979 -16.25 -19.667 c 16.17 0.208 17.04 0.25 18.583 -3.417 c 1.875 -1.5 1.792 -6.771 -0.167 -8.333 c -2.396 -1.917 -38.854 -2.333 -41.479 -0.458 c -1.771 1.25 -1.938 2.688 -2.375 21.938 c -0.333 15.167 -0.792 20.896 -1.688 21.771 c -1.479 1.417 -15.5 1.896 -22.19 0.75 m 98.17 -15.229 c 13.958 -5 19.896 -18.17 13.5 -30.02 c -3.104 -5.771 -6.354 -8.688 -13.5 -12.146 c -3.125 -1.5 -6.458 -3.542 -7.375 -4.542 c -0.938 -1 -2.771 -5.646 -4.063 -10.354 c -2.771 -10.02 -6.229 -15.625 -13.438 -21.833 c -7.375 -6.354 -15.04 -9.146 -25.06 -9.146 c -6.208 0.021 -8.75 0.458 -12.521 2.167 c -7.708 3.5 -14.229 9.271 -19.958 17.583 c -5.708 8.271 -7.417 9.5 -15.521 11.313 c -7.667 1.708 -13.458 4.854 -17.854 9.688 c -4.771 5.229 -5.917 9.02 -5.896 19.583 c 0.021 6.458 0.417 8.917 2.02 11.917 c 3.083 5.833 9.06 11.5 15.354 14.542 c 7 3.375 10.813 3.604 11.938 0.708 c 0.458 -1.146 1 -10.625 1.25 -21.06 c 0.375 -15.75 0.708 -19.271 1.958 -20.479 c 1.292 -1.25 5.125 -1.438 28.771 -1.438 c 30.437 0 35.833 0.458 40.23 3.313 c 4.813 3.146 8.521 8.938 9.04 14.13 c 0.583 5.75 -0.854 9.896 -5 14.583 c -3.792 4.292 -4.02 5.792 -1.333 9.438 c 3.229 4.375 9.04 5.063 17.458 2.063" stroke-width="1.937"/><path d="m 118.58 186.56 c 0.396 -6.229 0.875 -10.917 0.938 -14.563 c 0.188 -8.438 -0.021 -3.958 12.688 8.229 c 4.5 4.292 7.875 5.896 6.813 6.604 c -4.5 0.583 -16.15 1.25 -20.438 -0.271" stroke-width="1.796"/></g></svg>