<svg xmlns="http://www.w3.org/2000/svg" viewBox="0 0 48 48"><path d="m 47.617 24.13 c 3.602 -31.664 -47.984 -31.23 -47.37 0.563 c -1.699 29.563 50.18 32.23 47.38 -0.563" fill="#b0dfe5"/><g transform="scale(0.1875)"><g stroke-width="2.169"><path d="m 40.792 115.29 c 0 -35.438 0.229 -41.75 1.458 -40.4 c 1.625 1.729 22.729 27.27 50.4 60.958 l 17.583 21.438 h -69.44" fill="#21b472" stroke="#21b472"/><path d="m 185.15 156.75 c -3.458 -4.958 -19.1 -15.938 -15.958 -19.458 c 1.104 -1.229 14.208 -18.333 27.13 -34.02 l 23.458 -28.542 v 40.1 c 0 22.06 -0.292 40.875 -0.667 41.833 c -13.729 0.292 -20.21 0.271 -33.958 0.083" fill="#0f9cce" stroke="#0f9cce"/><path d="m 114.42 136.42 c -0.438 -20.5 0.104 -40.479 0.667 -60.896 l 6.04 6.979 c 3.313 3.854 14.708 17.13 25.292 29.5 c 11.896 15.396 25.292 28.646 37.563 44.792 c -24.333 0.771 -42.896 0.5 -69.1 0.5" fill="#28abe2" stroke="#28abe2"/></g><g fill="#353535" stroke="#353535"><path d="m 44.625 193.31 c 0 -1.75 -0.146 -7.25 -0.354 -12.229 l -0.354 -9.06 c 2.167 0 3.229 0 5.396 0 c 3.104 4 8.271 11.04 11.271 14.667 c 0.167 -0.167 0.458 -3.229 0.667 -6.792 c 0.208 -3.583 0.625 -6.813 0.917 -7.188 c 0.292 -0.375 1.208 -0.688 2.02 -0.688 c 1.458 0 1.479 0.083 1.833 4.167 c 0.417 5.04 0.354 16.15 -0.125 18.396 c -0.313 1.438 -0.583 1.646 -2.521 1.771 c -1.188 0.063 -2.438 -0.042 -2.771 -0.271 c -0.333 -0.229 -2.875 -3.813 -5.646 -7.958 c -3.521 -5.271 -5.167 -7.313 -5.458 -6.792 c -0.25 0.417 -0.583 3.438 -0.771 6.729 c -0.479 8.271 -0.542 8.417 -2.479 8.417 c -1.604 0 -1.625 -0.021 -1.625 -3.167" stroke-width="1.087"/><g stroke-width="0.884"><path d="m 75.896 196.54 c -3.604 -1.646 -5.583 -4.583 -5.583 -8.271 c 0 -4.417 3.5 -8.417 7.792 -8.896 c 6.438 -0.729 11.729 6.229 9.271 12.167 c -0.958 2.271 -2.271 3.583 -4.854 4.792 c -2.646 1.25 -4.271 1.292 -6.625 0.208 m 5.292 -4.292 c 1.917 -0.75 2.625 -5.02 1.125 -6.917 c -2.313 -2.938 -7.521 -1.188 -7.521 2.542 c 0 1.438 1.083 3.563 2.104 4.167 c 0.875 0.5 3.208 0.625 4.292 0.208"/><path d="m 94.38 195.67 c -2.146 -1.563 -3.063 -3.417 -3.458 -6.938 c -0.375 -3.167 0.188 -4.583 2.896 -7.292 c 1.625 -2.188 3.167 -1.729 5.729 -1.729 c 2.188 0 3.979 -0.125 3.979 -0.25 c 0 -0.146 0.208 -1.688 0.458 -3.438 c 0.854 -5.729 1.625 -7.083 3.354 -5.833 c 0.771 0.563 0.833 1.563 0.958 13.396 l 0.125 12.771 l -4.063 0.292 c -7.167 0.521 -8.02 0.417 -9.979 -0.979 m 8.08 -4.208 c 1.188 -1.188 1.5 -1.854 1.5 -3.229 c 0 -2.958 -2.771 -5.02 -5.542 -4.104 c -2.02 0.667 -2.896 1.833 -2.938 3.854 c -0.021 2.271 0.708 3.583 2.438 4.333 c 2.125 0.938 2.896 0.792 4.542 -0.854"/><path d="m 118.9 196.77 c -4.333 -1.188 -6.771 -4.313 -6.75 -8.688 c 0.021 -2.979 1.042 -4.917 3.667 -6.917 c 3.25 -2.479 6.833 -2.479 9.667 0 c 2.729 2.396 4.146 6.938 2.562 8.271 c -0.375 0.313 -2.812 0.708 -5.646 0.896 c -2.729 0.208 -5 0.375 -5.063 0.396 c -0.521 0.125 0.083 1.292 0.875 1.667 c 1.896 0.917 2.479 0.938 4.646 0.25 c 2.958 -0.938 4.625 -0.521 4.438 1.104 c -0.104 0.854 -0.604 1.438 -1.896 2.146 c -2.438 1.313 -4.063 1.521 -6.5 0.875 m 4.25 -10.708 c 0.938 -0.354 0.875 -0.875 -0.188 -1.938 c -1.208 -1.208 -3.688 -1.167 -4.917 0.063 c -0.917 0.917 -0.938 0.979 -0.146 1.542 c 0.833 0.625 4 0.813 5.25 0.333"/><path d="m 132.81 196.38 c -0.188 -0.292 -0.417 -3.938 -0.5 -8.104 l -0.146 -7.542 l 3.02 -0.292 c 4.875 -0.458 7.06 -0.333 8.458 0.458 c 1.25 0.708 1.396 0.708 3.229 -0.104 c 3.479 -1.583 6.875 -0.854 8.646 1.833 c 0.625 0.958 2.104 2.104 2.02 6.604 c -0.146 9.02 -2.688 9.708 -3.625 1.333 c -0.625 -5.833 -1.292 -7.625 -2.917 -8.04 c -3.25 -0.813 -4.958 1.896 -5.083 8 c -0.083 4.458 -0.417 5.75 -1.521 5.75 c -1.104 0 -1.458 -1.313 -1.5 -5.958 c -0.083 -6.06 -0.958 -7.979 -3.667 -7.938 c -2.542 0.021 -3.438 1.979 -3.875 8.479 c -0.313 4.354 -0.833 6.083 -1.813 6.083 c -0.208 0 -0.521 -0.25 -0.729 -0.563"/><path d="m 162.88 196.08 c -2.375 -1.458 -2.938 -3.375 -1.688 -5.771 c 1.167 -2.25 2.979 -3.167 8.313 -4.208 c 1.042 -0.208 1.229 -0.438 1.104 -1.438 c -0.208 -1.875 -2 -2.5 -5.354 -1.917 c -3.104 0.542 -4.02 0.125 -2.771 -1.25 c 0.438 -0.479 1.896 -1.104 3.25 -1.375 c 3.104 -0.646 5.333 -0.063 6.917 1.833 c 1.104 1.313 1.125 1.5 1.125 7.875 v 6.542 l -2.979 0.271 c -4.813 0.458 -6.417 0.333 -7.917 -0.563 m 6.958 -2.708 c 0.646 -0.667 0.875 -1.354 0.771 -2.542 c -0.125 -1.5 -0.25 -1.646 -1.625 -1.771 c -2.688 -0.25 -5.354 1.521 -5.354 3.563 c 0 1.708 4.667 2.271 6.208 0.75"/></g><path d="m 178.92 195.71 c -0.229 -0.375 -0.396 -3.813 -0.396 -7.646 c 0 -6 0.146 -7.02 1.021 -7.25 c 0.563 -0.146 1.313 0 1.646 0.354 c 0.646 0.625 0.229 12.438 -0.5 14.25 c -0.458 1.146 -1.229 1.292 -1.771 0.292" stroke-width="1.057"/><path d="m 187.75 195.65 c -0.229 -0.417 -0.417 -5.958 -0.396 -12.313 c 0.021 -10.229 0.146 -11.625 1.063 -12.271 c 2.25 -1.646 2.542 -0.313 2.438 11.75 c -0.042 6.271 -0.25 11.896 -0.458 12.5 c -0.438 1.271 -2 1.479 -2.646 0.333" stroke-width="1.03"/><path d="m 199.63 196.56 c -3.708 -1.688 -5.438 -5 -5.146 -9.813 c 0.104 -1.75 2.229 -4.646 4.229 -5.771 c 2.083 -1.167 5.125 -1.333 7.06 -0.354 c 3.167 1.542 5.438 6.833 3.563 8.208 c -0.458 0.333 -2.042 0.604 -3.708 0.625 c -1.604 0.021 -3.896 0.167 -5.104 0.333 c -1.813 0.25 -2.229 0.458 -2.354 1.229 c -0.167 1.188 1.667 2.688 3.729 3.083 c 0.979 0.188 2.208 0.021 3.396 -0.438 c 2.188 -0.833 3.229 -0.896 3.646 -0.229 c 0.729 1.167 -3.604 3.917 -6.208 3.917 c -0.729 0 -2.125 -0.354 -3.104 -0.792 m 5.854 -9.625 c 1.479 -0.396 1.375 -2.563 -0.188 -3.563 c -1.854 -1.229 -4.271 -1.021 -5.875 0.521 c -0.75 0.708 -1.292 1.604 -1.229 1.979 c 0.188 1 4.979 1.688 7.292 1.063" stroke-width="0.884"/><path d="m 214.31 195.77 c -0.167 -0.375 -0.292 -3.833 -0.292 -7.667 c 0 -5.938 0.104 -7 0.771 -7.229 c 1.375 -0.458 9.104 -0.292 9.104 0.188 c 0 0.271 -0.708 0.813 -1.563 1.229 c -3.833 1.833 -4.354 2.604 -4.896 7.125 c -0.833 6.854 -0.896 7.06 -1.896 7.06 c -0.521 0 -1.063 -0.313 -1.229 -0.708" stroke-width="0.933"/><path d="m 178.52 176.77 c -1.104 -1.604 -0.229 -3.938 1.479 -3.938 c 1.646 0 2.458 1.771 1.583 3.438 c -0.813 1.563 -2.188 1.771 -3.063 0.5" stroke-width="1.285"/></g></g></svg>