<svg xmlns="http://www.w3.org/2000/svg" viewBox="0 0 48 48"><path d="m 9.785 44.3 c 19.17 13.637 47.2 -13.41 35.414 -33.516 c -8.621 -17.191 -34.688 -12.234 -42.06 3.598 c -5.773 9.77 -3.871 24.22 6.641 29.918" fill="#ffb900"/><path d="m 16.93 36.17 c -1.25 0 -2.254 -1.012 -2.254 -2.262 v -20.684 c 0 -1.25 1 -2.258 2.254 -2.258 h 15.375 c 1.254 0 2.258 1.01 2.258 2.258 v 13.668 c -0.031 0.039 -0.047 0.09 -0.082 0.125 l -9.152 9.152" fill="#fffced"/><path d="m 34.563 26.895 c -0.074 0.168 -0.18 0.324 -0.32 0.461 l -8.914 8.816 v -7.758 c 0 -0.84 0.68 -1.516 1.531 -1.516 h 7.703" fill="#ffe49b"/></svg>