<svg xmlns="http://www.w3.org/2000/svg" viewBox="0 0 48 48"><path d="m 15.316 45.36 c 19.629 11.195 41.957 -19.16 27.977 -36.781 c -14.13 -17.82 -48.832 -3.906 -41.66 20.402 c 2.137 7.234 7.277 12.727 13.684 16.379" fill="#363636"/><path d="m 24.301 10.508 l -5.109 1.977 l -3.063 2.965 l -1.02 4.941 l 2.039 3.953 l -1.02 -0.988 l -1.02 0.988 l 3.063 4.941 l 1.02 2.965 v 3.953 l -2.043 0.988 l 2.043 0.988 l 1.023 -0.988 v -2.965 l 3.063 1.977 l 3.063 -0.988 h -3.063 l -3.063 -1.977 l -1.023 -3.953 l 2.043 0.988 l -3.063 -2.965 v -1.977 l 2.043 -7.906 l -1.023 -0.988 h 5.109 m 1.02 -5.93 v 4.941 h 6.129 v 0.988 h -6.129 v 3.953 h 3.063 v 0.988 h -3.063 v 3.953 l 2.043 1.977 v 1.977 h -2.043 v 3.953 l 1.02 0.988 l 3.066 0.988 l -2.043 0.988 l 3.063 0.988 l 1.023 0.988 l 2.039 -0.988 l -2.039 -0.988 v -2.691 l 1.02 -2.25 l 2.043 -4.941 l 1.02 -5.93 l -0.406 -1.977 h -5.719 v -0.988 h 5.516 l -0.41 -1.977 l -3.063 -2.965 m 0.547 8.363 c 0.961 0.926 1.492 2.184 1.492 3.496 c 0 2.734 -2.281 4.941 -5.105 4.941 v -0.816 c 2.355 0 4.262 -1.848 4.262 -4.125 c 0 -1.094 -0.453 -2.141 -1.25 -2.914 m -3.01 0.938 c 1.129 0 2.043 0.887 2.043 1.977 c 0 1.094 -0.914 1.977 -2.043 1.977 c -1.129 0 -2.043 -0.883 -2.043 -1.977 c 0 -1.09 0.914 -1.977 2.043 -1.977 m -7.609 0.988 l -0.559 1.492 l 1.02 -0.504 v 0.988 h 1.023 l 1.02 -0.988 h 1.023 l -1.023 -0.988 m 7.457 0.988 h 1.531 c 0 2.059 -1.707 3.758 -3.883 3.758 v -1.484 c 1.309 0 2.352 -0.973 2.352 -2.273" fill-opacity="0.102"/><path d="m 23.277 9.52 l -5.105 1.977 l -3.063 2.965 l -1.023 4.941 l 2.043 3.953 l -1.02 -0.988 l -1.023 0.988 l 3.062 4.941 l 1.023 2.965 v 3.953 l -2.043 0.988 l 2.043 0.988 l 1.02 -0.988 v -2.965 l 3.066 1.977 l 3.063 -0.988 h -3.063 l -3.066 -1.977 l -1.02 -3.953 l 2.043 0.988 l -3.066 -2.965 v -1.977 l 2.043 -7.906 l -1.02 -0.988 h 5.105 m 1.023 -5.93 v 4.941 h 6.125 v 0.988 h -6.125 v 3.953 h 3.063 v 0.988 h -3.063 v 3.953 l 2.039 1.977 v 1.977 h -2.039 v 3.953 l 1.02 0.988 l 3.063 0.988 l -2.043 0.988 l 3.066 0.988 l 1.02 0.988 l 2.043 -0.988 l -2.043 -0.988 v -2.691 l 1.023 -2.25 l 2.039 -4.941 l 1.023 -5.93 l -0.41 -1.977 h -5.719 v -0.988 h 5.516 l -0.41 -1.977 l -3.063 -2.965 m 0.551 8.363 c 0.957 0.926 1.492 2.184 1.492 3.496 c 0 2.734 -2.281 4.941 -5.105 4.941 v -0.816 c 2.352 0 4.262 -1.848 4.262 -4.125 c -0.004 -1.094 -0.453 -2.141 -1.254 -2.914 m -3.01 0.938 c 1.129 0 2.043 0.887 2.043 1.977 c 0 1.094 -0.914 1.977 -2.043 1.977 c -1.129 0 -2.043 -0.883 -2.043 -1.977 c 0 -1.09 0.914 -1.977 2.043 -1.977 m -7.613 0.988 l -0.559 1.492 l 1.023 -0.504 v 0.988 h 1.02 l 1.023 -0.988 h 1.02 l -1.02 -0.988 m 7.453 0.988 h 1.535 c 0 2.059 -1.707 3.758 -3.883 3.758 v -1.484 c 1.305 0 2.348 -0.973 2.348 -2.273" fill="#00fbff"/></svg>