<svg xmlns="http://www.w3.org/2000/svg" viewBox="0 0 48 48"><path d="m 5.758 39.03 c -11.684 -17.652 -2.254 -33.73 10.973 -37.547 c 17.789 -5.133 41.945 8.355 26.03 36.15 c -6.324 11.05 -28.676 13.973 -37 1.398" fill="#1e8fff"/><path d="m 108.52 254.19 c -30.75 -3.313 -57.75 -18.15 -73.77 -40.542 c -12.854 -17.958 -26.688 -50.31 -29.604 -69.27 l -0.771 -4.917 h 247.35 l -1.688 6.083 c -3.979 14.188 -9.583 28.729 -17 44.02 c -6.646 13.75 -9.25 17.833 -16.563 26.02 c -19.771 22.13 -47.29 35.19 -81.37 38.604 c -12.854 1.292 -14.396 1.292 -26.583 -0.021" transform="scale(0.1875)" fill="#868686" stroke="#868686" stroke-width="2.253"/><g fill="#fff"><g stroke="#696969" stroke-width="2.176" transform="matrix(0.1875 0 0 0.1875 -4.489 5.304)"><path d="m 153.11 155.56 l -5.542 -2.813 l 3.563 -2.979 c 2.5 -2.104 4.25 -2.792 5.833 -2.292 c 1.25 0.375 4.646 0.979 7.542 1.313 c 4.75 0.542 5.229 0.396 4.896 -1.417 c -0.229 -1.125 -2.479 -3.188 -5.02 -4.583 c -2.542 -1.417 -4.604 -2.938 -4.604 -3.417 c 0 -0.979 6.417 -2.208 11.688 -2.229 c 4.583 -0.021 4.5 -1.333 -0.271 -3.604 c -4.833 -2.292 -4.833 -3.729 0.021 -4.646 c 4.458 -0.833 5.625 -2.104 3.188 -3.479 c -1.438 -0.813 0.938 -4.25 13.708 -19.708 c 8.5 -10.292 15.688 -18.479 15.979 -18.208 c 0.792 0.813 -9.604 36.938 -11.167 38.75 c -0.792 0.917 -1.167 2.938 -0.854 4.563 c 0.563 2.854 0.438 2.938 -6.167 3.688 l -6.75 0.771 l 5.208 2.833 c 7.542 4.125 7.417 5.563 -0.458 5.563 c -11.813 0 -12.938 1.875 -3.729 6.271 c 5.167 2.458 6.25 3.458 6.25 5.708 v 2.708 h -13.896 c -12.771 0 -14.354 -0.229 -19.417 -2.792"/><path d="m 106.65 157.4 c -1 -0.542 -2.667 -1.688 -3.667 -2.583 c -1.729 -1.479 -1.646 -1.771 1.083 -4.04 c 2.625 -2.208 3.792 -2.417 11.1 -1.979 c 5.875 0.375 8.708 0.083 10.146 -1 c 1.854 -1.396 1.729 -1.667 -1.979 -4.292 c -3.75 -2.688 -3.854 -2.917 -2.042 -4.708 c 1.438 -1.458 3.063 -1.771 6.854 -1.375 c 7.729 0.854 9.625 -0.708 5.875 -4.833 c -2.292 -2.521 -1.458 -3.313 4.292 -4.083 c 4.02 -0.542 4.646 -0.979 4.938 -3.604 c 0.271 -2.271 0.938 -3 2.813 -3 c 1.354 0 3.646 -1.25 5.083 -2.792 c 1.458 -1.563 6.563 -5.625 11.354 -9.06 c 4.792 -3.438 13.271 -9.563 18.854 -13.604 c 5.583 -4.04 10.333 -7.188 10.542 -6.979 c 0.375 0.375 -20.688 25.542 -27.5 32.813 c -2.146 2.292 -5.104 4.646 -6.563 5.188 c -2.167 0.833 -2.417 1.292 -1.313 2.604 c 1.083 1.313 0.813 1.792 -1.604 2.708 c -1.583 0.604 -4.208 1.104 -5.813 1.125 c -1.625 0 -3.667 0.5 -4.563 1.104 c -1.375 0.917 -1.167 1.458 1.354 3.333 c 5.813 4.354 2.188 7.375 -7.167 5.958 c -8.938 -1.333 -11.08 1.792 -3.979 5.771 c 4.833 2.729 5.02 3.146 2.813 6.188 c -1.396 1.896 -2.958 2.104 -15.313 2.104 c -7.583 0 -14.604 -0.438 -15.604 -0.958"/><path d="m 207.73 141.98 c -3.833 -0.833 -7.5 -2.042 -8.146 -2.688 c -1.917 -1.896 1.563 -3.396 6.75 -2.875 c 6.938 0.688 5.104 -2.583 -2.333 -4.167 c -2.604 -0.542 -2.979 -1.042 -2.333 -3.042 c 0.417 -1.333 1.438 -5.104 2.292 -8.396 c 5 -19.438 7.438 -28.04 8.563 -30.29 c 1.417 -2.792 2 -1.229 11.458 30.02 l 4.02 13.333 h -4.813 c -5.583 0 -6.104 2.5 -0.625 3.042 c 1.917 0.208 4.583 1.667 6.375 3.542 l 3.063 3.208 l -8.625 -0.083 c -4.75 -0.042 -11.792 -0.771 -15.625 -1.604"/><path d="m 80.52 176.77 c -4.146 -3.563 -5.917 -7 -3.604 -7 c 0.521 0 2.354 -1.083 4.063 -2.438 c 2.75 -2.146 4.396 -2.458 13.479 -2.458 c 5.708 0 12.08 -0.396 14.208 -0.875 c 3.333 -0.792 4.521 -0.438 9.167 2.708 c 2.938 2 5.521 4.146 5.708 4.771 c 0.542 1.708 -7.333 9.188 -9.688 9.188 c -1.125 0 -4.854 -1.438 -8.313 -3.188 l -6.292 -3.167 l -4.729 3.167 c -6.125 4.125 -8.479 4 -14 -0.708"/><path d="m 168.11 177.36 c -4.104 -1.771 -8.125 -3.229 -8.938 -3.229 c -0.813 0 -3.292 1.229 -5.5 2.75 c -2.229 1.5 -4.813 2.479 -5.771 2.188 c -4.583 -1.458 -13.729 -6.917 -14 -8.354 c -0.188 -0.896 0.979 -2.938 2.583 -4.542 c 3.292 -3.292 8.04 -3.792 12.417 -1.292 c 3.521 2.02 6.333 2.02 10.188 0 c 4.375 -2.271 6.688 -2.042 15.375 1.5 c 7.5 3.063 7.625 3.167 7.25 6.792 c -0.5 4.896 -2.02 7.5 -4.292 7.458 c -1.021 -0.021 -5.208 -1.5 -9.313 -3.271"/></g><path d="m 134.98 99.75 c -16.396 -9.02 -15.979 -17.604 0.833 -17.604 c 14.625 0 15.521 -1 13.04 -14.604 c -2.417 -13.13 -1.396 -14.625 9.875 -14.625 c 16.417 0 53.19 21.583 49.75 29.19 c -1.479 3.25 -11.958 5.896 -23.313 5.896 c -13.146 0 -22.604 3.208 -26 8.771 c -5.958 9.813 -10.729 10.396 -24.19 2.979" transform="scale(0.1875)" stroke="#fff" stroke-width="10.01"/></g></svg>