<svg xmlns="http://www.w3.org/2000/svg" xmlns:xlink="http://www.w3.org/1999/xlink" viewBox="0 0 48 48"><defs><g id="3" clip-path="url(#2)"><path d="m 25.434 12.03 c 2.109 8.762 -12.656 13.14 0 26.29 c -2.109 -8.762 12.66 -13.145 0 -26.29"/><path d="m 23.324 12.03 c 2.109 8.762 -12.656 13.14 0 26.29 c -7.527 -4.344 -10.871 -9.488 -10.547 -13.145 c 0.492 -5.559 8 -9.176 10.547 -13.14"/><path d="m 27.543 12.03 c 21.1 14.238 3.164 16.43 0 26.29 c -2.109 -8.762 12.66 -13.145 0 -26.29"/></g><clipPath id="2"><path d="M 0,0 H48 V48 H0 z"/></clipPath><filter id="0" filterUnits="objectBoundingBox" x="0" y="0" width="48" height="48"><feColorMatrix type="matrix" in="SourceGraphic" values="0 0 0 0 1 0 0 0 0 1 0 0 0 0 1 0 0 0 1 0"/></filter><mask id="1"><g filter="url(#0)"><path fill-opacity="0.102" d="M 0,0 H48 V48 H0 z"/></g></mask></defs><path d="m 44 10.09 c 15.527 22.22 -19.441 50.1 -37.73 31.992 c -17.234 -17.06 5.04 -48.926 26.48 -40.637 c 4.473 1.727 8.402 4.566 11.25 8.645" fill="#42bff4"/><use xlink:href="#3" mask="url(#1)"/><g fill="#fff"><path d="m 24.379 10.938 c 2.109 8.762 -12.656 13.14 0 26.28 c -2.109 -8.758 12.66 -13.14 0 -26.28"/><path d="m 22.27 10.938 c 2.109 8.762 -12.656 13.14 0 26.28 c -7.527 -4.34 -10.871 -9.488 -10.547 -13.14 c 0.492 -5.559 8 -9.176 10.547 -13.14"/><path d="m 26.488 10.938 c 21.1 14.234 3.164 16.426 0 26.28 c -2.109 -8.758 12.66 -13.14 0 -26.28"/></g></svg>