<svg xmlns="http://www.w3.org/2000/svg" viewBox="0 0 48 48"><path d="m 39.543 38.84 c -19.422 25.22 -54.48 -8.758 -32.08 -31.07 c 19.273 -22.363 56.684 9.598 32.08 31.07" fill="#2c2c2c"/><path d="m 14.313 34.887 l -0.027 -2.25 l -1.098 -0.023 c -1.355 -0.027 -1.469 -0.055 -1.84 -0.395 l -0.305 -0.273 v -12.867 l 0.332 -0.297 l 0.328 -0.297 h 16.406 l 0.293 0.27 l 0.289 0.273 v 6.402 c 0 3.855 -0.035 6.5 -0.094 6.641 c -0.211 0.512 -0.289 0.52 -5.266 0.52 c -3.508 0 -4.609 0.027 -4.727 0.117 c -0.082 0.063 -1.059 1.086 -2.168 2.273 c -1.109 1.184 -2.035 2.156 -2.059 2.156 c -0.023 0 -0.051 -1.012 -0.066 -2.25 m 8.227 -5.371 c 1.434 -0.672 2.199 -1.965 1.867 -3.148 c -0.188 -0.668 -0.727 -1.344 -1.32 -1.664 c -0.289 -0.152 -0.625 -0.277 -0.746 -0.281 c -0.215 0 -0.309 -0.066 -0.555 -0.391 c -0.066 -0.086 -0.313 -0.188 -0.547 -0.223 c -0.406 -0.059 -0.43 -0.047 -0.531 0.227 c -0.086 0.234 -0.176 0.301 -0.473 0.344 c -0.203 0.031 -0.438 0.066 -0.527 0.082 c -0.324 0.063 -0.434 -0.094 -0.332 -0.469 l 0.094 -0.348 l 1.012 -0.168 c 1.457 -0.238 1.531 -0.273 1.531 -0.715 c 0 -0.203 -0.039 -0.395 -0.09 -0.422 c -0.051 -0.027 -0.402 0.008 -0.785 0.082 c -0.805 0.16 -1.383 0.207 -1.473 0.125 c -0.035 -0.031 0.012 -0.297 0.102 -0.59 c 0.094 -0.289 0.129 -0.563 0.086 -0.602 c -0.074 -0.063 -0.809 -0.133 -1.094 -0.102 c -0.066 0.008 -0.141 0.305 -0.184 0.711 c -0.055 0.539 -0.109 0.719 -0.254 0.789 c -0.102 0.051 -0.68 0.09 -1.289 0.09 c -1.25 0 -1.355 0.063 -1.031 0.578 l 0.191 0.305 l 1.039 0.047 l 1.043 0.047 l -0.027 0.418 c -0.016 0.227 -0.043 0.461 -0.063 0.516 c -0.023 0.051 -0.34 0.262 -0.711 0.461 c -1.273 0.695 -2.078 1.809 -2.078 2.875 c 0.004 1.395 0.988 1.793 2.516 1.012 c 0.5 -0.254 0.699 -0.313 0.957 -0.266 c 0.215 0.039 0.438 0.004 0.641 -0.094 c 0.172 -0.082 0.313 -0.16 0.313 -0.18 c 0 -0.016 -0.051 -0.16 -0.109 -0.316 c -0.102 -0.27 -0.074 -0.332 0.375 -0.895 c 0.266 -0.328 0.684 -0.945 0.93 -1.371 c 0.25 -0.422 0.527 -0.781 0.621 -0.797 c 0.324 -0.059 1.055 0.328 1.359 0.723 c 0.586 0.754 0.492 1.66 -0.242 2.344 c -0.32 0.297 -1.258 0.719 -1.594 0.719 c -0.293 0 -0.262 0.223 0.063 0.477 c 0.41 0.316 0.754 0.332 1.316 0.07 m -5.953 -1.156 c -0.203 -0.191 -0.199 -0.621 0.012 -1.047 c 0.215 -0.422 1.406 -1.555 1.52 -1.441 c 0.047 0.047 0.129 0.457 0.184 0.918 c 0.117 0.965 0.039 1.148 -0.637 1.508 c -0.457 0.242 -0.859 0.266 -1.078 0.063 m 2.734 -2.301 c 0 -0.668 0.086 -0.781 0.641 -0.863 c 0.305 -0.047 0.355 -0.027 0.355 0.121 c 0 0.246 -0.703 1.332 -0.863 1.332 c -0.098 0 -0.133 -0.164 -0.133 -0.59 m 12.227 4.289 l -1.656 -1.777 v -2.813 c 0 -3.27 -0.105 -3 1.188 -3 c 0.934 0 0.949 0.012 1.34 1.074 c 0.438 1.176 0.414 1.152 1.07 1.152 c 0.316 0 0.598 -0.035 0.625 -0.074 c 0.027 -0.043 -0.742 -1.973 -1.715 -4.293 l -1.762 -4.219 h -1.492 l -0.18 0.371 c -0.098 0.203 -0.211 0.426 -0.25 0.496 c -0.059 0.098 -0.969 0.121 -4.797 0.113 c -2.602 -0.008 -4.766 -0.035 -4.813 -0.063 c -0.047 -0.023 -0.086 -0.746 -0.086 -1.605 c 0 -1.555 0.004 -1.555 0.277 -1.891 l 0.273 -0.34 h 8.207 l 8.203 -0.004 l 0.297 0.297 l 0.293 0.301 v 13.02 l -0.246 0.246 c -0.238 0.238 -0.277 0.246 -1.402 0.246 c -0.637 0 -1.246 0.043 -1.352 0.098 c -0.18 0.09 -0.191 0.215 -0.191 2.273 c 0 1.195 -0.039 2.176 -0.086 2.176 c -0.047 0 -0.832 -0.801 -1.746 -1.777 m -1.539 -8.637 c -0.082 -0.074 -0.117 -0.523 -0.117 -1.41 c 0 -0.953 -0.043 -1.402 -0.156 -1.68 c -0.117 -0.285 -0.129 -0.438 -0.055 -0.629 c 0.059 -0.137 0.145 -0.25 0.188 -0.25 c 0.133 0 1.648 3.781 1.582 3.941 c -0.074 0.176 -1.258 0.199 -1.441 0.027" fill="#fbb140"/></svg>