<svg xmlns="http://www.w3.org/2000/svg" viewBox="0 0 48 48"><path d="m 1.266 18.754 c 14.734 -44.602 73.45 3.281 31.992 25.953 c -16.215 9.719 -39.574 -3.01 -31.992 -25.953" fill="#290f0f"/><path d="m 69.21 246.08 c -4.25 -1.063 -12.625 -4.792 -18.375 -8.188 c -16.583 -9.771 -30.938 -24.979 -39.604 -41.896 l -3.083 -6.04 c 1.729 -2.813 3.333 -5.875 4.271 -8.917 c 0.896 -2.958 1.271 -3.354 3.104 -3.146 c 1.167 0.125 2.104 -0.104 2.104 -0.542 c 0 -1.875 -0.854 -17.708 2.208 -18.521 c 1.813 -0.479 3.833 15.271 10.604 8.833 c 1.417 -1.354 3.104 -2.375 4.833 -2.542 c 2.563 -0.229 2.771 -0.5 3.604 -4.271 c 1.063 -4.833 2.271 -9.625 3.958 -10.271 c 1.604 -0.604 7.833 7.438 9.208 10.75 c 0.875 2.146 0.813 2.604 -0.708 4.229 c -1.896 2.667 -3.833 5.375 -5.708 7.375 c -2.583 4.104 -15.604 2.229 -10.417 13.5 c 1.479 3.333 -1.792 5.771 -0.979 9.375 c 0.646 2.5 4.75 4.104 9.104 3.583 c 5.313 -0.625 6.771 -1.604 8.625 -5.771 c 0.875 -2 2.333 -4.563 3.229 -5.708 c 0.896 -1.125 1.625 -2.75 1.625 -3.583 c 0 -2.208 1.979 -2.604 4.75 -0.958 c 3.188 1.875 3.167 3.833 -0.083 12.813 l -2.542 7 c 1.521 5.688 8.333 21.563 9.08 12.208 c 0 -2.958 0.917 -6.938 1.604 -6.938 c 0.333 0 1.208 1.5 1.938 3.313 c 1.25 3.104 1.25 3.708 -0.063 9.229 c -1.375 5.792 -1.354 6.02 0.292 11.08 l 1.667 5.167 l 14.06 8.792 c 2.938 1.854 14.13 3.833 17.729 7.229 c 3.979 3.75 -21.521 1.229 -36.04 -7.188" transform="scale(0.1875)" fill="#ffd600" stroke="#f00" stroke-width="1.555"/><path d="m 129.24 188.86 c -1.042 -2.063 -1.417 -4.875 -1.417 -10.75 c 0 -7.06 1.375 -11.813 0.125 -11.604 c -4.188 5.125 -7.458 16.292 -12.396 21.21 c -3.313 3.229 -3.708 2.438 -1.104 -2.25 c 1.313 -2.375 2.813 -6.104 3.333 -8.292 c 0.521 -2.188 7.083 -12.5 7.771 -13.708 c 3.292 -10.146 -17.938 16.938 -18.25 15.479 c 0 -0.979 5.708 -11.938 6.917 -14.04 c 3.708 -3.188 -17.521 11.875 -11.771 3.5 c 3.146 -3.938 13.146 -10.458 16.75 -14.542 c -0.417 -3.625 -11.417 4.208 -14.729 5.5 c -6.438 2.5 -11.417 4.146 -6.06 1.146 c 4.854 -2.708 11.313 -7.292 7.25 -6.979 l -13 0.979 l 7.688 -1.938 c 16.375 -4.146 2.125 -4.333 -0.5 -4.667 c -2.104 -0.271 -7.04 -4.813 -4.854 -4.813 c 0.771 0 8.792 2.167 11.292 0.958 c 3.188 -1.563 5.75 -2.229 8.542 -2.25 c 2.375 -0.021 3.792 -0.333 3.479 -0.771 c -0.271 -0.396 -0.083 -1.417 0.396 -2.25 c 1.188 -2.02 -1.5 -5.125 -10.188 -11.771 c -5 -3.833 -7.333 -5.104 -10.271 -5.604 c -6.167 -1.042 -6.646 -1.896 -3.042 -5.25 c 1.708 -1.583 2.896 -3.063 2.625 -3.292 c -0.25 -0.229 -1.979 0.292 -3.854 1.167 c -1.854 0.875 -3.771 1.375 -4.229 1.125 c -1.521 -0.854 -0.917 -3.188 1.125 -4.417 c 1.75 -1.021 1.917 -1.5 1.313 -3.896 c -0.375 -1.479 -0.875 -2.875 -1.104 -3.104 c -2.521 0.583 -11.06 6.188 -5.5 0.875 c 2.313 -2.146 2.667 -2.896 1.958 -3.938 c -1.354 -1.938 -4.146 -2.063 -4.688 -0.208 c -2.521 1 -8.688 -0.771 -8.896 -2.958 c 0 -0.833 -0.917 -2.25 -2.063 -3.146 c -2.75 -2.167 -2.625 -3.542 0.417 -4.104 c 2.813 -0.5 3.313 -2.167 0.854 -2.875 c -1.958 -0.563 -5.833 -4.583 -5.833 -6.04 c 0 -0.792 0.688 -0.938 2.625 -0.583 c 4.083 1.167 1.688 -0.583 -0.083 -2.583 c -2.479 -2.792 -2.667 -3.375 -2.208 -6.688 c 0.667 -4.625 -8.02 -5.271 -4.312 -12.833 l 3.771 -7.667 h 2.292 c 2.5 0 2.479 0.083 0.729 -9.188 c -0.438 -2.271 -0.292 -2.813 0.792 -2.813 c 0.729 0 2.146 1.021 3.167 2.25 c 1 1.25 2.063 2.25 2.354 2.25 c 0.271 0 0.979 -1.688 1.563 -3.75 c 0.583 -2.063 1.458 -3.958 1.917 -4.208 c 1.083 -0.625 2.292 1.104 2.313 3.271 c 0 1.208 0.5 1.688 1.708 1.688 c 1.458 0 1.625 -0.333 1.167 -2.542 c -0.5 -2.417 0.604 -5.708 1.917 -5.708 c 0.333 0 0.667 3.292 0.729 7.313 c 0.125 8.396 1.042 12.542 4.458 20.25 c 3.833 8.646 11.125 17.229 19.875 23.333 c 4.063 2.813 7.521 14.04 13.667 15.771 c 5.271 1.479 8.792 6.792 18.271 6.75 c 9.688 -0.042 23.604 -10 29.1 -11.667 c 11.875 -3.583 15.06 -12.625 22.625 -21.292 c 1.646 -1.896 3.375 -3.313 3.833 -3.188 c 0.458 0.146 1.896 -0.729 3.167 -1.938 c 1.771 -1.688 2.458 -3.208 2.896 -6.646 c 0.438 -3.313 1.229 -5.208 3.104 -7.375 c 1.375 -1.625 4.146 -5.125 6.146 -7.813 c 2.313 -3.104 3.75 -4.438 3.917 -3.667 c 0.292 1.313 -2.729 7.583 -5.792 12.06 c -2.438 3.583 -1.146 4.708 1.792 1.521 l 4.354 2.042 l 9.208 -5 c 4.063 -2.208 -13.583 19.1 0.813 11.688 c 8.604 -4.438 -8.438 15.542 -14.75 20.417 c -5.667 4.396 -5.646 5.625 0.104 4.854 c 2.5 -0.333 3.625 -0.229 3.625 0.375 c 0 1.375 -4.708 5 -7.25 5.583 c -2.688 0.604 -7.667 3.271 -7.667 4.083 c 0 0.333 1.854 0.417 4.146 0.229 c 6.333 -0.563 5.167 1.938 -2.583 5.5 c -2.771 1.271 -4.04 2.313 -4.04 3.333 c 0 0.958 3.417 2.958 1.313 3.938 c -1.792 0.833 -8.06 1.188 -8.333 2 c -0.292 0.792 -2.083 2.646 -4 4.125 c -1.917 1.458 -4.438 3.521 -5.604 4.542 c -1.708 1.542 -2.896 1.896 -6.5 1.896 c -3.729 0 -4.667 0.292 -6.04 1.875 c -2.125 2.437 -2.875 2.375 -4.75 -0.438 c -1.729 -2.563 -2.083 -2.333 -2.896 1.729 c -0.479 2.375 -1.125 3.063 -4.396 4.521 c -2.104 0.958 -4.583 2.646 -5.521 3.771 l -1.688 2.042 l 2.771 2.583 c 1.5 1.417 4.938 3.625 7.625 4.917 c 4.125 1.625 6.188 3.896 10.125 5.104 c 3.438 1 4.229 2.729 1.771 3 c -3.792 0.417 -13.271 -1.646 -10.292 0.813 l 10.396 8.521 c -6.125 0.521 -11.04 -3.563 -14.167 -5.75 c -7.729 -5.438 -9.917 -2.313 -3.125 4.5 c 2.167 2.167 4.792 4.979 5.854 6.25 c 1.771 2.146 4.354 6.708 2.938 6.708 c -3.167 0 -13.708 -10.771 -17.833 -16.583 c -1.396 -1.958 -1 2.771 -1.292 2.792 c -0.292 0 7.5 24.438 6.25 26.479 c -3.958 -4.229 -19.354 -32.792 -16.271 -16.854 c 0.604 2.938 -3.958 6 -4.542 7.292 c -0.458 1.021 -1.083 4.396 -1.396 7.5 l -0.542 5.625 m 17.583 -48.563 c -1.333 -5.271 1.542 -11.833 0 -11.833 c -1.354 0 -5.458 4.958 -5.458 6.604 c 0 1.563 6.104 7.75 5.458 5.229 m -22.688 -1.479 c 0.667 -0.938 2.396 -9.813 1.604 -10.521 c -0.875 -0.771 -4.938 -5.25 -6.229 -3.813 c -0.875 0.979 1.958 6.729 1.958 7.125 c 0 1.167 1.708 8.625 2.667 7.208 m 30.08 -19.771 c 1.75 0.292 3.146 -3.708 2.625 -5.146 c -22.583 1.333 -32.833 -9.979 -18.646 4.25 c 7.542 4.583 -18.5 16.25 -1 10.437 c 1.229 -0.438 8.04 -7.167 10.854 -8.5 c 2.396 -1.125 4.063 -1.396 6.167 -1.042 m 13.938 -2.146 c -0.021 -1.771 -8.771 -11.125 -9.5 -10 c -0.479 0.729 5.208 10.667 5.5 11.06 c 0.854 1.271 4.02 1.083 4 -1.063 m -48.08 -10.813 c -1.479 -1.604 -16.708 7.854 -15.583 9.729 c 0.625 1.083 8.271 0.583 8.896 0 c 0.625 -0.563 7.417 -8.917 6.688 -9.729 m 67.29 2.063 c 0 -0.583 -7.708 -6.292 -8.729 -6.417 c -2.02 -0.25 3.396 8.271 5.271 8.938 c 1.563 0.563 3.458 -1.333 3.458 -2.521 m -75.854 -8.188 c 0 -0.833 -0.542 -1.5 -1.229 -1.5 c -0.708 0 -3.02 -1.042 -3.02 -0.208 c 0 0.833 -10.375 4.667 -7.146 7.833 c 0.479 0.479 11.396 -5.292 11.396 -6.125 m -5.04 -10.06 c -2.917 -4 -6.542 6.333 -10.08 6.313 c -2.458 0 -2.854 0.667 -1.292 2.104 c 1.438 1.271 14.167 -4.563 11.375 -8.417 m 88.54 2.75 c 0 -1 -9.375 0.479 -10.375 1.042 c -0.458 0.25 3.438 0.292 6.25 3.104 c 0.771 0.792 5.667 0.875 5.396 0 m 5.583 -8.833 c 1.792 -1.021 0.021 -3.313 -2.771 -3.625 c -1.75 -0.188 -9.563 2.042 -9.563 3.229 c 0 0.833 8.02 -0.083 8.813 0.333 c 1.792 0.938 1.979 0.958 3.521 0.063 m -105.44 -4.125 c 0.771 -1.104 -0.271 -2.479 -1.688 -2.5 c -4.313 -0.042 -15.625 8.479 -15.313 8.938 c 0.667 0.979 16.375 -5.5 17 -6.438 m 110.02 -10.917 c 1.708 -1.604 10.229 -3.438 9.583 -4.02 c -1.542 -1.417 -12.04 0.583 -13.542 3.292 c -14.12 15.604 -13.12 8.417 3.875 7.375 c 5.333 -5.813 -5.417 -1.438 0.083 -6.646 m -116.77 1.146 c 0 -1.25 -10 1.896 -10.438 1.896 c -1 0 -1.958 2.75 -1.292 3.729 c 1 1.5 11.729 -3.417 11.729 -5.625 m 127.06 -13.771 c 0.333 -1.521 -7.167 0.875 -8.438 2.02 c -0.646 0.583 -0.604 1.146 0.188 2 c 1.292 1.417 7.875 -2.292 8.25 -4.02 m -135.42 -0.375 c -1.188 -2.896 -1.354 -1.979 -2.854 -4.083 c -4.813 -6.04 -6.979 1.75 -4.208 4.458 c 2.542 2.438 5.729 7.542 9.792 7.521 l -1.125 -3.938" transform="matrix(0.1875 0 0 0.1875 -4.049 1.8)" fill="#ff4500" stroke="#ffd600" stroke-width="1.533"/><path d="m 113.33 248.9 c -3.667 -1.313 -4.542 -2.042 -2.458 -2.042 c 0.833 0 2.583 -0.563 3.875 -1.229 c 1.625 -0.854 -20.979 -20.646 3.354 -12.688 c 3.667 1.188 6.04 12.667 13.958 3.188 c 4.521 -5.417 4.771 -6.188 7.583 -22.896 c 2.188 -13.12 3.25 -15.583 5.729 -13.417 c 1.979 1.729 3.167 1.042 4.271 -2.396 c 0.5 -1.625 1.958 -5.083 3.229 -7.688 c 2.188 -3.625 2.292 -8.146 3.563 -11.75 c 1 -2.854 3.354 -3.688 2.708 -8.896 c -1.063 -8.646 -3.958 -11.06 -7.188 -12.12 c -1.771 -0.583 2.167 -20.792 -2.604 -30.625 c -9.771 -20.1 -13.875 -27.667 -13.292 -29.583 c 0.792 -2.625 16.979 15.375 27.17 28.417 c 5.188 6.625 -2.708 15.687 -0.708 17.396 c 18.792 16.188 5.792 16.792 6.563 32.375 c 0.438 9.188 -3.917 13.771 -1.958 15.854 c 1.167 1.25 2.729 4.208 3.479 6.604 c 1.563 4.958 8.333 1.583 11.771 3 c 3.667 1.854 3.292 15.875 7.521 16.06 c 2.813 -1.5 3.708 -4.417 6.04 -6.396 c 6.333 -5 0.208 -9.708 4.938 -11.354 c 2.333 -0.813 2.458 -1.063 2.063 -4.02 c -0.229 -1.75 -1.188 -3.979 -2.104 -4.979 c -1.854 -1.958 -3.25 -6.02 -3.25 -9.458 c 0 -1.583 0.563 -2.479 1.979 -3.125 c 1.104 -0.5 2.208 -1.563 2.458 -2.375 c 2.208 -2.875 5.667 -0.479 8.646 -2.5 c 1.479 -1.083 2.854 -5.771 2.896 -9.813 c 0.021 -3.958 -6.458 -9.08 -13.583 -10.75 c -1.667 -0.396 -7.958 1.104 -7.854 -1.146 c 0.063 -1.458 6.604 -5.146 7.208 -5.75 c 1.188 -1.188 8.125 -2.708 12.333 -2.708 c 2.125 0 2.917 -0.479 3.854 -2.292 c 1.25 -2.396 3.646 -11.08 6.646 -12.04 c 1.438 -0.458 1.979 6.646 2.75 8.333 c 1.396 2.667 4.583 3.146 6.271 5.146 c 0 1.292 2.125 1.021 5.583 -0.75 c 3.313 -1.688 3.5 -1.604 4.292 1.75 c 0.292 1.188 2.708 4.917 5.396 8.271 l 4.875 6.146 l -2.188 6.104 c -11.146 31.5 -38.938 58.917 -80.938 79.917 l -10.583 5.292 c -5.333 -0.417 -5.813 -5.188 -10.1 -7.646 c -2.563 -1.5 -9.563 4.02 -12.583 4.917 c -1.833 0.563 -6.417 5.063 -8.208 6.104 c -3.792 2.208 -16 4.521 -20.979 2.75" transform="scale(0.1875)" fill="#ffd600" stroke="#f00" stroke-width="1.555"/><g stroke="#ff0"><g fill="#ff4500" transform="matrix(0.1875 0 0 0.1875 -4.049 1.8)"><path d="m 140.26 72.4 c -1.542 -2.375 -1.5 -5.563 0.542 -6.813 c 0.646 -0.104 1.146 -1.458 0.958 -2.583 c -2.5 -4.521 -8.333 0.375 -9.771 1.771 c -1.979 1.833 -4.396 3.438 -6 5.396 c -0.958 1.188 -2.167 2.333 -2.708 2.563 c -1.604 0.688 -4.438 -0.188 -6.958 -2.188 c -1.875 -1.479 -2.458 -2.229 -3.146 -4 c -4.25 -9.229 -7.854 -3.187 -4.958 2.979 c 1 2.02 1.375 3.583 0.875 3.646 c -0.604 0.104 -2.75 -1.771 -3.604 -3.125 c -2.083 -3.708 -1.167 -6.292 0.271 -9.458 c 0.313 -1.188 0.771 -2.042 1.313 -3.208 l 2.917 1.75 c 1.583 0.938 3.875 2.083 5.063 2.542 c 2.083 0.75 3.333 1.625 6.292 4.396 c 3.333 2.396 2.646 -0.771 4.188 -2.771 c 3.792 -4.917 9.521 -7.125 14.375 -5.542 c 0.938 0.313 2.917 0.75 4.396 0.979 c 3.02 0.479 22.438 -1.229 14.604 12.12 c -0.708 1.208 -8.333 -5.938 -10.04 -6.271 c -1.354 -0.25 -4.25 0.75 -5.938 4.542 c -1.104 2.479 -1.479 4.583 -2.667 3.271" stroke-width="0.777"/><path d="m 152.45 95.67 c -2.02 -1.229 -3.938 -2.25 -4.25 -2.25 c -0.292 0 -1.583 0.875 -2.854 1.938 c -4.188 3.521 -9.04 1.958 -15.521 -5 l -3.625 -3.875 l 1.667 -6 c 2.02 -7.375 3.667 -9.708 6.792 -9.708 c 1.208 0 2.479 0.354 2.854 0.792 c 1.083 1.25 0.771 3.813 -0.75 6.375 c -1.917 3.188 -2.229 6.188 -0.979 9 c 1.229 2.771 4.229 5.188 6.438 5.188 c 1.604 0 1.646 -0.083 1.313 -2.438 c -1.063 -7.604 -1.063 -8.521 -0.021 -8.979 c 0.563 -0.271 1.688 0 2.625 0.625 c 2.438 1.625 3.313 1.375 7.083 -2.125 c 1.896 -1.75 3.958 -3.375 4.563 -3.604 c 2.396 -0.875 8.854 6.271 8.854 9.771 c 0 2.02 -0.958 4.813 -1.646 4.813 c -0.313 0 -1.063 -1.104 -1.646 -2.438 c -1.875 -4.229 -6.104 -6 -8.146 -3.417 c -1.417 1.833 -0.917 6.771 1.021 10.08 c 2.542 4.333 1.708 4.625 -3.771 1.25" stroke-width="1.168"/></g><path d="m 127.32 83.81 c 0 1.116 -0.832 2.01 -1.843 2.01 c -1.022 0 -1.855 -0.895 -1.855 -2.01 c 0 -1.105 0.832 -2 1.855 -2 c 1.01 0 1.843 0.895 1.843 2" transform="matrix(0.32858 0 0 0.33596 -17.394 -12.599)" fill="#ff0" stroke-width="1.944"/></g></svg>