<svg xmlns="http://www.w3.org/2000/svg" viewBox="0 0 48 48"><path d="m 39.29 7.281 c 37.36 49.31 -65.45 56.32 -32.461 5.98 c 7.523 -11.477 22.566 -19.04 32.461 -5.98" fill="#89a238"/><g fill="#333"><path d="m 25.297 18.535 c 0 3.082 2.488 5.582 5.555 5.582 c 3.066 0 5.555 -2.5 5.555 -5.582 c 0 -3.082 -2.488 -5.582 -5.555 -5.582 c -3.066 0 -5.555 2.5 -5.555 5.582"/><path d="m 11.23 32.672 c 0 3.082 2.484 5.582 5.555 5.582 c 3.066 0 5.551 -2.5 5.551 -5.582 c 0 -3.082 -2.484 -5.578 -5.551 -5.578 c -3.07 0 -5.555 2.496 -5.555 5.578"/></g><g fill="#fff"><path d="m 11.23 18.535 c 0 3.082 2.484 5.582 5.555 5.582 c 3.066 0 5.551 -2.5 5.551 -5.582 c 0 -3.082 -2.484 -5.582 -5.551 -5.582 c -3.07 0 -5.555 2.5 -5.555 5.582"/><path d="m 25.297 32.672 c 0 3.082 2.488 5.582 5.555 5.582 c 3.066 0 5.555 -2.5 5.555 -5.582 c 0 -3.082 -2.488 -5.578 -5.555 -5.578 c -3.066 0 -5.555 2.496 -5.555 5.578"/></g></svg>