<svg xmlns="http://www.w3.org/2000/svg" viewBox="0 0 48 48"><path d="m 43.32 9.895 c 23.992 36.09 -52.52 58.31 -42.39 11.664 c 4.316 -19.277 31.387 -30.98 42.39 -11.664" fill="#4069e0"/><path d="m 19.926 36.719 c -4.09 -1.551 -7.754 -3.047 -8.145 -3.324 c -1.223 -0.871 -1.203 -1.379 0.215 -5.258 c 0.609 -1.672 1.457 -6.402 1.457 -8.148 c 0 -3.02 0.844 -5.078 2.809 -6.844 c 1.367 -1.23 3.01 -1.875 4.773 -1.871 c 2.105 0 3.082 0.422 4.676 2.01 c 1.781 1.777 2.371 3.336 2.191 5.809 c -0.188 2.617 -1.578 4.957 -3.715 6.258 c -0.477 0.293 -1.348 0.926 -1.938 1.414 c -0.59 0.484 -1.684 1.172 -2.43 1.523 c -1.469 0.691 -3.277 2.441 -3.277 3.176 c 0 0.25 0.188 0.68 0.418 0.957 c 0.465 0.563 10.262 5.262 10.973 5.262 c 0.277 0 1.984 -1.586 4.402 -4.09 c 2.168 -2.246 3.941 -3.977 3.941 -3.84 c 0 0.137 -0.406 0.719 -0.902 1.293 c -0.5 0.574 -2.172 2.625 -3.719 4.563 c -2.727 3.41 -3.324 4 -3.98 3.953 c -0.172 -0.012 -3.66 -1.293 -7.75 -2.844 m -5.48 -10.477 c 0.465 -1.477 0.531 -2.121 0.215 -2.121 c -0.207 0 -0.758 1.496 -1.078 2.938 c -0.273 1.227 0.434 0.563 0.863 -0.816" fill="#d6eaf4"/><g stroke="#443dc7" stroke-width="2.941"><path d="m 149.13 104.34 c 0 18.1 -14.896 32.75 -33.25 32.75 c -18.375 0 -33.25 -14.646 -33.25 -32.75 c 0 -18.08 14.875 -32.75 33.25 -32.75 c 18.354 0 33.25 14.667 33.25 32.75" transform="matrix(0.1875 0 0 0.1875 -0.756 -0.756)" fill="#3d38c1"/><path d="m 149.15 104.33 c -0.03 18.09 -14.925 32.743 -33.26 32.752 c -18.381 -0.015 -33.27 -14.671 -33.24 -32.756 c -0.03 -18.05 14.865 -32.709 33.25 -32.694 c 18.336 -0.008 33.23 14.647 33.26 32.698" transform="matrix(0.07607 -0.03108 0.02 0.05956 8.275 13.456)" fill="#d6eaf4"/></g></svg>