<svg xmlns="http://www.w3.org/2000/svg" viewBox="0 0 48 48"><path d="m 2.336 17.719 c -8.773 24.59 22.75 36.547 34.598 26.535 c 11.84 -10.01 15.887 -27.16 2.473 -35.797 c -13.414 -8.633 -28.3 -15.328 -37.07 9.266" fill="#007f00"/><path d="m 14.395 13.723 v 19.11 h 5.156 v -3.684 l 2.574 3.684 h 6.02 l -4.297 -6.141 l 4.297 -6.141 h -6.02 l -2.574 3.684 v -10.508 m 10.309 6.824 l -4.297 6.141 l 4.297 6.141 h 6.02 l -4.297 -6.141 l 4.297 -6.141" fill-opacity="0.2"/><g fill="#fff"><path d="m 19.551 13.04 h -5.156 v 19.11 h 5.156"/><path d="m 22.13 19.863 l -4.293 6.145 l 4.293 6.141 h 6.02 l -4.297 -6.141 l 4.297 -6.145"/><path d="m 29.859 19.863 l -4.297 6.145 l 4.297 6.141 h 6.02 l -4.297 -6.141 l 4.297 -6.145"/></g></svg>