<svg xmlns="http://www.w3.org/2000/svg" viewBox="0 0 48 48"><path d="m 12.492 5.672 c 11.09 -10.961 21.316 -2.934 29.727 5.785 c 6.844 7.098 7.156 13.684 2.621 20.66 c -11.852 18.227 -27.23 24.98 -43.34 -3.289 c -3.965 -9.32 4.41 -17.992 10.996 -23.16" fill="#5f7d80"/><path d="m 37.832 24.406 c 0 6.965 -5.965 12.613 -13.324 12.613 c -7.359 0 -13.324 -5.648 -13.32 -12.613 c -0.004 -6.965 5.961 -12.609 13.32 -12.609 c 7.359 0 13.324 5.645 13.324 12.609" fill="#7fa9af"/><path d="m 22.801 41.477 c -4.277 -2.082 -14.449 -7.719 -14.465 -8.02 c -0.008 -0.207 0 -4.367 0.02 -9.25 c 0.023 -6.465 0.141 -8.977 0.434 -9.242 c 0.859 -0.789 14.375 -7.949 15 -7.949 c 0.625 0 14.14 7.16 15 7.949 c 0.477 0.434 0.688 18.477 0.219 18.902 c -0.352 0.316 -14.02 7.586 -14.762 7.852 c -0.297 0.105 -0.945 -0.004 -1.445 -0.246 m 8.785 -10.871 c 0 -3.152 -0.137 -3.281 -3.602 -3.281 c -2.113 0 -2.383 0.074 -3.01 0.824 c -0.645 0.77 -0.813 0.809 -2.625 0.633 c -2.023 -0.199 -2.707 0.07 -2.707 1.059 c 0 0.289 0.227 0.703 0.508 0.918 c 0.547 0.426 9.02 2.402 10.527 2.453 l 0.91 0.031 m -13.438 -5.602 c 0 -2.297 -0.078 -2.656 -0.598 -2.75 c -1.145 -0.207 -1.563 0.523 -1.563 2.723 c 0 2.219 0.375 2.91 1.492 2.762 c 0.609 -0.082 0.668 -0.324 0.668 -2.734 m 5.074 -2.73 l -0.098 -2.414 l -1.289 0.074 c -0.707 0.039 -1.492 0.234 -1.742 0.426 c -0.566 0.445 -0.609 3.434 -0.055 3.957 c 0.219 0.203 1.047 0.371 1.84 0.371 h 1.441 m 7.871 -1.617 c 0.277 -0.262 0.395 -1.957 0.395 -5.617 c 0 -4.484 -0.074 -5.27 -0.52 -5.434 c -0.594 -0.211 -2.258 0.254 -4.457 1.25 l -1.492 0.672 l -0.094 4.32 c -0.063 2.918 0.031 4.457 0.289 4.75 c 0.492 0.555 5.297 0.602 5.879 0.059 m -13.375 -2.359 c 0.18 -0.125 0.496 -0.508 0.695 -0.852 c 0.223 -0.375 1.074 -0.809 2.156 -1.09 c 0.988 -0.258 1.98 -0.578 2.207 -0.719 c 0.48 -0.293 0.566 -2.895 0.105 -3.164 c -0.316 -0.184 -5.82 1.824 -6.574 2.398 c -0.434 0.328 -0.566 2.313 -0.215 3.172 c 0.211 0.516 1.055 0.648 1.625 0.254" fill="#333"/></svg>