<svg xmlns="http://www.w3.org/2000/svg" viewBox="0 0 48 48"><path d="m 4.03 36.39 c 35.836 42.08 70.29 -44.45 14.871 -35.555 c -12.152 1.949 -24.527 24.21 -14.871 35.555"/><path d="m 181.49 133.46 c -0.004 24.278 -24.16 43.946 -53.955 43.943 c -29.779 0.005 -53.947 -19.669 -53.944 -43.946 c 0.008 -24.26 24.15 -43.936 53.945 -43.933 c 29.805 -0.007 53.947 19.669 53.954 43.936" transform="matrix(0.12694 0.172 -0.25243 0.17331 41.3 -23.815)" fill="#6b9be2" stroke="#6b9be2" stroke-width="2"/><path d="m 19.5 38.04 c -4.01 -0.809 -4.5 -1.746 -7.152 -4.148 c -0.598 -0.883 -1.73 -2.398 -1.641 -3.348 c -1.195 -4.93 -1.039 -9.789 1.715 -14.15 c 0.426 -1.336 4 -4.805 5.01 -5.164 c 1.105 -0.285 3.82 -2.137 4.664 -2.066 c 3.574 -1.316 7.285 -0.375 8.816 -0.008 c 1.035 -0.02 4.43 2.477 4.695 3.129 c 0.535 0.777 1.734 2.844 1.66 3.391 c 1.063 4.926 0.898 7.68 -0.543 12.82 c -0.602 0.855 -0.906 2.082 -1.613 2.73 c -0.652 0.563 -0.656 0.922 -0.016 0.922 c 0.965 0.223 2.047 0.793 2.77 0.992 c 0.211 0.051 0.43 0.156 0.484 0.234 c 0.195 0.273 0.105 0.988 -0.152 1.23 c -0.684 0.863 -1.297 2.281 -1.977 2.918 c -0.344 0.301 -0.539 0.359 -1.168 0.359 c -0.555 0 -0.82 -0.066 -1.016 -0.25 c -0.855 -0.695 -2.91 -1.117 -3.512 -1.707 c -0.344 -0.375 -0.578 -0.324 -1.188 0.254 c -0.586 0.879 -2.723 1.055 -3.117 1.367 c -2.727 0.457 -4.055 1.066 -6.723 0.492 m 16.04 -2.77 c 0.305 -0.359 0.523 -0.727 0.488 -0.813 c -0.035 -0.09 -0.516 -0.297 -1.066 -0.461 c -0.555 -0.164 -1.563 -0.512 -2.25 -0.766 c -2.484 -0.93 -2.984 -1.211 -4.305 -2.414 c -0.695 -0.629 -1.301 -1.145 -1.352 -1.145 c -0.445 0 0.703 1.984 1.707 2.941 c 1.188 1.137 2.512 1.891 5.543 3.152 c 0.559 0.234 0.656 0.195 1.234 -0.492 m -12.48 -2.352 c 1.395 -0.121 2.797 -0.477 2.797 -0.707 c -0.172 -0.422 -0.352 -0.723 -0.578 -1.141 l -0.785 0.113 c -0.43 0.063 -1.719 0.113 -2.859 0.109 c -1.883 -0.008 -2.172 -0.039 -3.059 -0.344 c -4.262 -1.465 -6.48 -5.418 -5.512 -9.82 c 0.52 -2.383 1.719 -4.457 3.613 -6.277 c 1.723 -1.652 3.852 -2.84 6.273 -3.504 c 1.148 -0.316 1.539 -0.359 3.113 -0.355 c 1.551 0.008 1.953 0.055 2.91 0.348 c 3.977 1.223 6.234 4.426 5.973 8.492 c -0.203 3.223 -1.77 6.04 -4.715 8.496 c -0.809 0.672 -0.813 0.68 -0.586 1 c 0.289 0.418 0.719 0.633 1.051 0.535 c 0.395 -0.117 2.52 -2.156 3.242 -3.109 c 1.52 -2 2.43 -4.184 2.734 -6.52 c 0.281 -2.207 -0.117 -4.316 -1.184 -6.207 c -1.184 -2.102 -3.465 -3.684 -6.305 -4.371 c -1.328 -0.32 -1.605 -0.344 -3.254 -0.277 c -3.363 0.133 -6.34 1.23 -9.07 3.344 c -2.969 2.301 -4.793 5.09 -5.543 8.473 c -0.348 1.574 -0.352 2.895 -0.004 4.379 c 0.68 2.938 2.27 4.934 5.102 6.41 c 0.707 0.371 2.281 0.82 3.234 0.926 c 1.535 0.145 2.43 0.09 3.414 0.004 m 1.063 -3.094 c 0.352 -0.09 0.422 -0.18 0.457 -0.578 c 0.035 -0.391 -0.27 -1.27 -0.441 -1.27 c -0.027 0 -0.383 0.059 -0.793 0.133 c -1.02 0.18 -2.594 -0.039 -3.68 -0.516 c -3.875 -1.707 -4.426 -6.727 -1.125 -10.285 c 1.73 -1.863 4.484 -3.145 6.754 -3.145 c 2.547 0 4.848 1.387 5.754 3.473 c 0.332 0.77 0.387 1.07 0.391 2.195 c 0.008 2.23 -0.785 3.902 -2.703 5.707 c -0.734 0.688 -1.223 1.254 -1.223 1.41 c 0 0.277 0.703 1.027 0.961 1.027 c 0.168 0 1.051 -0.715 1.855 -1.5 c 2.996 -2.914 3.957 -7.121 2.355 -10.305 c -0.473 -0.934 -1.781 -2.27 -2.727 -2.777 c -1.391 -0.746 -2.348 -0.969 -4.176 -0.973 c -2.039 -0.008 -2.953 0.199 -4.844 1.09 c -5.434 2.555 -8.05 8.445 -5.711 12.832 c 0.859 1.613 2.906 3.078 4.809 3.438 c 0.418 0.082 0.887 0.172 1.039 0.207 c 0.383 0.082 2.539 -0.035 3.047 -0.164 m -0.184 -3.344 c 0.105 -0.219 0.113 -0.504 0.031 -0.879 l -0.125 -0.559 l -0.898 -0.07 c -3.344 -0.254 -4.289 -3.723 -1.691 -6.219 c 1.34 -1.289 3.316 -1.789 4.773 -1.203 c 0.91 0.363 1.289 0.688 1.707 1.461 c 0.766 1.418 0.238 3.352 -1.266 4.645 c -0.414 0.359 -0.754 0.754 -0.754 0.875 c 0 0.336 0.664 1.098 0.957 1.098 c 0.449 0 2.145 -1.832 2.73 -2.941 c 0.527 -1 0.535 -1.039 0.535 -2.523 c -0.004 -1.375 -0.035 -1.563 -0.367 -2.156 c -1.031 -1.84 -2.961 -2.688 -5.445 -2.395 c -2.664 0.313 -5.398 2.605 -6.117 5.129 c -0.473 1.66 -0.109 3.43 0.93 4.539 c 1.016 1.086 2.039 1.5 3.766 1.512 c 1.016 0.008 1.086 -0.008 1.234 -0.313" fill="#0f3d85"/><g transform="matrix(0.18156 0 0 0.17799 -0.212 0.403)"><path d="m 164.29 187.24 c -6.412 -5.486 -12.156 -11.675 -15.921 -22.385 c -3.98 -14.177 9.682 1.953 13.619 5.377 c 8.197 7.176 13.77 7.747 28.723 13.06 c 15.362 5.443 13.469 7.659 12.565 9.415 c -1.312 2.524 -7.122 10.929 -8.262 10.907 c -9.811 -4.696 -21.924 -9.239 -30.724 -16.372" fill="#ffdd0f" stroke="#ffd60f" stroke-width="1.612"/><g fill="#9ccf4e" stroke="#9ccf4e" stroke-width="1.491"><path d="m 115.93 195.53 c -0.624 -0.132 -3.615 -0.658 -6.648 -1.141 c -9.596 -1.58 -16.459 -4.214 -23.516 -9.04 c -5.938 -4.06 -14.846 -12.619 -14.846 -14.287 c 0 -0.373 2.388 1.185 5.336 3.467 c 11.468 8.866 22.742 12.882 38.19 13.607 c 9.983 0.483 18.611 -0.395 27.432 -2.743 c 4.819 -1.295 5.594 -1.339 7.079 -0.351 c 2.883 1.931 2.109 3.819 -2.324 5.486 c -6.885 2.634 -26.83 5.882 -30.702 5"/><path d="m 178.02 168.28 c -0.645 -0.241 -1.119 -3.775 5.4 -9.195 c 8.821 -7.352 13.296 -13.453 14.609 -16.02 c 2.044 -4.02 9.252 -24.821 7.186 -9.656 c -0.022 1.405 -10.456 19.861 -14.738 25.17 c -6.842 8.493 -9.768 10.775 -12.457 9.7"/></g><path d="m 184.56 171.41 c -0.559 -0.219 1.979 -3.248 7.143 -8.493 c 4.411 -4.477 6.863 -7.198 8 -8.603 c 1.119 -1.426 4.131 -7.923 4.131 -7.571 c -0.022 1.207 -5.314 14.243 -9.06 18.808 c -5.981 7.286 -7.875 6.781 -10.22 5.86" fill="#ffdd0f" stroke="#ffdd0f" stroke-width="1.291"/></g><path d="m 105.1 201.4 c -5.542 -0.812 -13.417 -3.625 -18.08 -6.458 c -4.625 -2.812 -11.958 -8.542 -11.5 -8.979 c 0.187 -0.188 2.729 0.979 5.667 2.604 c 6.771 3.708 14.896 6.667 22.667 8.25 c 10.646 2.187 29.729 -1.333 43.812 -6.04 c 5.479 -1.833 6.958 -0.313 7.437 1.187 c 0.875 2.667 -16.542 8.708 -27.604 9.542 c -9.292 0.729 -16.979 0.687 -22.396 -0.104" transform="matrix(0.1875 0 0 0.1875 -0.379 -0.758)" fill="#ffdd0f" stroke="#ffdd0f" stroke-width="1.429"/></svg>