<svg xmlns="http://www.w3.org/2000/svg" viewBox="0 0 48 48"><path d="m 20.535 47.34 c 6.422 -1.059 14.797 -5.715 19.961 -11.09 c 4.094 -4.262 6.156 -7.961 6.926 -12.426 c 1.078 -6.246 -1.191 -11.242 -7.16 -15.766 c -6.988 -5.07 -17.06 -9.852 -24.578 -7.04 c -2.98 1.125 -5 2.426 -7.07 4.551 c -4.223 4.344 -6.875 10.621 -7.543 17.863 c -0.379 4.102 -0.109 7.34 0.922 11.148 c 1.758 6.484 5.465 10.762 10.816 12.473 c 1.684 0.539 5.383 0.676 7.723 0.289" fill="#e5e5e5"/><path d="m 15.887 38.613 c -0.137 -0.223 0.043 -1.379 0.355 -2.32 c 0.824 -3.813 1.137 -8.375 3.617 -10.84 c 1.309 -1.445 3.164 -1.957 4.914 -2.02 c 1.82 -0.063 2.035 -0.098 2.52 -0.426 c 0.898 -0.617 1.074 -2.035 0.328 -2.641 c -0.645 -0.523 -1.133 -0.594 -5.098 -0.73 c -1.645 -0.125 -3.305 0.242 -4.773 -0.602 c -1.066 -0.617 -2.203 -1.93 -2.547 -2.945 c -0.414 -1.219 -0.398 -1.352 0.176 -1.441 c 0.273 -0.043 3.328 -0.07 6.793 -0.059 l 6.297 0.016 l 0.848 0.406 c 1.316 0.625 2.465 1.652 3.109 2.781 c 0.453 0.789 0.926 2.691 0.926 3.715 c 0 1.07 -0.758 3.551 -1.32 4.414 c -0.621 0.945 -1.461 1.289 -2.598 1.902 c -0.809 0.441 -1.207 0.551 -2.441 0.691 c -0.809 0.094 -2.34 0.344 -2.723 0.492 c -1.438 0.566 -1.977 1.828 -2.176 3.238 c -0.391 2.77 -1.379 3.984 -3.676 5.902 c -0.762 0.633 -2.352 0.77 -2.531 0.465" fill="#6992fb"/><path d="m 15.906 38.754 c 0 -0.125 0.094 -0.262 0.207 -0.305 c 0.684 -0.262 3.238 -4.379 3.25 -5.238 c 0.574 -1.672 0.641 -3.836 1.922 -5.07 c 1.141 -1.063 2.039 -1.105 3.727 -1.102 c 1.086 -0.145 1.891 0.289 2.797 0.691 c 2.445 0.996 -2.01 0.043 -4.418 1.922 c -1.273 1.055 -1.406 2.82 -1.469 4.234 c 0 1.039 -2.555 3.859 -3.84 4.457 c -0.246 0.117 -0.617 0.305 -0.824 0.422 c -0.516 0.293 -1.352 0.289 -1.352 -0.012 m 12.805 -24.01 c 2.34 1.035 3.867 2.809 3.867 3.082 c 1.391 2.066 0.844 6.898 -0.695 8.313 c 1.051 -6.363 -4.16 -11.809 -3.172 -11.395" fill="#3456fc"/></svg>