<svg xmlns="http://www.w3.org/2000/svg" viewBox="0 0 48 48"><path d="m 23.2 47.48 c -7.988 -1.527 -15.715 -7.531 -19.785 -15.375 c -3.414 -6.578 -3.941 -12.992 -1.539 -18.637 c 1.805 -4.242 5.902 -8.203 10.992 -10.625 c 5.426 -2.578 10.473 -3.172 15.691 -1.836 c 12.875 3.293 22.309 20.523 18.477 33.746 c -1.875 6.461 -6.844 10.832 -14.16 12.457 c -3.184 0.262 -6.547 0.816 -9.676 0.27" fill="#695acd"/><path d="m 37.32 29.859 c -1.055 2.258 -2.648 4.059 -4.781 5.406 c -2.125 1.355 -4.441 2.035 -6.961 2.035 c -1.75 0 -3.426 -0.336 -5.02 -1.016 c -1.594 -0.676 -2.969 -1.59 -4.129 -2.734 c -1.156 -1.145 -2.078 -2.508 -2.762 -4.086 c -0.684 -1.578 -1.027 -3.234 -1.027 -4.973 c 0 -1.699 0.32 -3.324 0.961 -4.867 c 0.652 -1.555 1.527 -2.895 2.629 -4.04 c 1.109 -1.133 2.434 -2.043 3.973 -2.734 c 1.539 -0.699 3.172 -1.082 4.887 -1.148 c 0.496 -0.023 0.84 0.195 1.027 0.652 c 0.203 0.453 0.117 0.855 -0.25 1.203 c -0.965 0.863 -1.711 1.879 -2.223 3.035 c -0.508 1.145 -0.758 2.355 -0.758 3.633 c 0 1.645 0.406 3.164 1.227 4.555 c 0.82 1.391 1.934 2.492 3.336 3.301 c 1.406 0.813 2.926 1.219 4.602 1.219 c 1.324 0 2.605 -0.285 3.84 -0.852 c 0.461 -0.203 0.867 -0.129 1.215 0.215 c 0.156 0.156 0.25 0.344 0.285 0.57 c 0.047 0.223 0.023 0.434 -0.066 0.633" fill="#fff"/></svg>