<svg xmlns="http://www.w3.org/2000/svg" viewBox="0 0 48 48"><path d="m 45.906 16.398 c 9.316 23.891 -16.789 36.14 -33.04 30.05 c -11.344 -4.25 -16.996 -21.19 -8.941 -34.879 c 10.168 -17.277 34.801 -13.602 41.988 4.824" fill="#9f522d"/><path d="m 37.754 24.12 c 0 7.793 -6.293 14.11 -14.05 14.11 c -7.758 0 -14.05 -6.32 -14.05 -14.11 c 0 -7.789 6.293 -14.11 14.05 -14.11 c 7.762 0 14.05 6.32 14.05 14.11" fill="#fff"/><g stroke="#000"><path d="m 557.45 342.61 c 0 96.13 -77.931 174.04 -174 174.04 c -96.12 0 -174.05 -77.913 -174.05 -174.04 c 0 -96.08 77.931 -173.99 174.05 -173.99 c 96.07 0 174 77.913 174 173.99" transform="matrix(0.07644 0 0 0.07676 -5.607 -2.177)" fill="#ffe5b7" stroke-width="4"/><path d="m 216.68 643.02 c 1.175 1.679 194.44 0 194.44 0" transform="matrix(0.07644 0 0 0.07676 -0.293 -18.936)" fill="none" stroke-width="8"/></g><path d="m 19.07 22.453 c 0 0.52 -0.418 0.938 -0.934 0.938 c -0.516 0 -0.938 -0.418 -0.938 -0.938 c 0 -0.52 0.422 -0.938 0.938 -0.938 c 0.516 0 0.934 0.418 0.934 0.938"/><path d="m 30.2 22.453 c 0 0.52 -0.418 0.938 -0.934 0.938 c -0.52 0 -0.938 -0.418 -0.938 -0.938 c 0 -0.52 0.418 -0.938 0.938 -0.938 c 0.516 0 0.934 0.418 0.934 0.938"/><path d="m 139.87 560.94 l 70.67 -100.61 l 9.556 48.956 l 35.31 -33.994 l 85.7 23.1 l 19.01 -29.872 l 38.07 28.549 l -9.505 -39.44 l 51.664 17.659 l 47.576 94.2 c 1.38 -248.85 -345.35 -231.5 -348.06 -8.499" transform="matrix(0.07644 0 0 0.07676 -0.293 -18.936)" stroke="#000"/></svg>