<svg xmlns="http://www.w3.org/2000/svg" viewBox="0 0 48 48"><path d="m 36.34 4.03 c 42.25 35.836 -44.621 70.29 -35.695 14.871 c 1.957 -12.152 24.309 -24.527 35.695 -14.871" fill="#008b00"/><path d="m 1.543 35.688 c -1.949 -4.703 -1.914 -13.03 -0.715 -18.43 c 0.793 -3.574 4.242 -7.746 8.05 -10.602 c 8.363 -6.262 18.23 -8.06 24.922 -4.543 c 2.93 1.543 7.578 6.141 10.281 10.172 c 4.559 6.801 5.16 14.371 1.648 20.805 l -0.629 1.148 l -2.684 -1.926 c -5.926 -3.703 -9.188 -7.676 -17.477 -5.355 c -4.996 1.395 -15.11 -2.926 -23.398 8.73" fill="#95e8ff"/><path d="m 4.793 38.762 c -0.078 -0.207 -0.145 -0.727 -0.145 -1.156 c 0 -1.176 -0.207 -1.512 -0.941 -1.512 c -0.441 0 -0.703 0.148 -0.797 0.445 c -0.23 0.723 -0.449 0.492 -1.063 0.117 c -0.258 -0.156 -1.969 -6.594 -1.715 -6.969 c 0.094 -0.137 2.625 -2.113 3.586 -2.672 c 2.707 -1.852 5.895 -3.684 8.094 -5.613 c 0.676 -0.609 1.879 -1.465 2.672 -1.898 l 1.445 -0.789 l 6.988 7.105 c 4.531 4.609 7.086 7.04 7.27 6.93 c 0.434 -0.266 -0.008 -0.918 -2.316 -3.43 c -1.129 -1.234 -2.059 -2.355 -2.059 -2.496 c 0 -0.34 3.551 -2.031 5 -2.379 c 0.637 -0.156 1.563 -0.484 2.055 -0.727 c 0.859 -0.43 0.918 -0.434 1.398 -0.035 c 1.016 0.836 10.617 10.438 10.617 10.617 c 0 0.102 -0.445 0.785 -0.988 1.512 c -0.852 1.148 -1 1.258 -1.063 0.805 c -0.059 -0.426 -0.223 -0.523 -0.871 -0.523 h -0.801 v 1.121 c 0 1.305 -0.43 2.074 -0.992 1.762 c -0.391 -0.219 -1.367 -1.477 -1.828 -2.359 c -0.465 -0.879 -1.402 -0.691 -2.137 0.43 c -0.344 0.523 -0.625 1.043 -0.625 1.156 c 0 0.113 -0.254 0.375 -0.563 0.578 c -0.664 0.434 -1.348 0.188 -1.793 -0.656 c -1.059 -1.984 -2.563 -2.723 -2.832 -1.383 c -0.27 1.348 -1.977 2.758 -2.582 2.133 c -0.184 -0.188 -0.039 -0.441 0.531 -0.922 c 0.641 -0.539 0.758 -0.77 0.637 -1.258 c -0.121 -0.473 -0.297 -0.602 -0.828 -0.602 c -0.457 0 -0.723 0.145 -0.816 0.43 c -0.188 0.602 -1.16 1 -1.816 0.754 c -0.602 -0.227 -2.73 -2.246 -2.73 -2.59 c 0 -0.121 -0.297 -0.219 -0.66 -0.219 c -0.48 0 -0.73 0.16 -0.926 0.582 c -0.148 0.324 -0.527 0.707 -0.848 0.852 c -0.32 0.145 -0.637 0.441 -0.707 0.656 c -0.316 1 -2.473 1 -2.789 0.004 c -0.074 -0.234 -0.281 -0.48 -0.461 -0.551 c -0.18 -0.07 -0.492 -0.445 -0.695 -0.832 c -0.352 -0.68 -0.336 -0.766 0.359 -2.141 c 0.848 -1.68 0.809 -2.266 -0.258 -3.738 c -1.203 -1.66 -1.598 -1.68 -2.59 -0.113 c -1.23 1.945 -1.238 2.02 -0.422 3.621 c 0.809 1.59 0.801 2.254 -0.039 3.035 c -0.27 0.254 -0.613 0.699 -0.758 0.996 c -0.359 0.719 -0.879 0.676 -1.254 -0.105 c -0.445 -0.93 -1.477 -0.895 -1.836 0.059 c -0.176 0.469 -0.422 0.699 -0.75 0.699 c -0.441 0 -0.484 -0.137 -0.484 -1.512 v -1.512 c -0.543 0 -1.086 0 -1.629 0 l -0.016 1.219 c -0.031 2.051 -0.293 3.301 -0.711 3.383 c -0.207 0.039 -0.441 -0.098 -0.523 -0.309" fill="#ff0"/><path d="m 58.731 113.99 v -56.19 h 148.63 v 112.38 h -148.62 m 137.17 -4.833 c 2.313 -0.042 3.146 -0.396 4.917 -2.104 c 1.771 -1.708 2.125 -2.458 2.104 -4.438 c 0 -1.292 -0.063 -22.563 -0.104 -47.25 l -0.083 -44.917 l -1.708 -1.958 l -1.729 -1.979 h -131.81 l -4.125 4.333 l -0.104 32.19 c -0.063 17.688 -0.188 38.08 -0.313 45.31 c -0.125 7.229 -0.042 13.958 0.146 14.958 c 0.563 2.813 3.937 5.417 7.5 5.792 c 2.271 0.25 112.46 0.292 125.31 0.063" transform="matrix(0.1875 0 0 0.1875 -0.465 -1.163)" fill="#0f1710" stroke="#0f1710"/><path d="m 31.371 15.04 c 0 1.797 -1.457 3.254 -3.258 3.254 c -1.797 0 -3.254 -1.457 -3.254 -3.254 c 0 -1.801 1.457 -3.258 3.254 -3.258 c 1.801 0 3.258 1.457 3.258 3.258" fill="#ff7053"/></svg>