<svg xmlns="http://www.w3.org/2000/svg" viewBox="0 0 48 48"><path d="m 0.262 23.984 c -3.617 -32.21 48.15 -31.762 47.535 0.574 c 1.707 30.07 -50.36 32.785 -47.535 -0.574" fill="#007f7f"/><path d="m 36.715 15.766 h 0.156 c 1.129 0 2.043 0.914 2.043 2.039 v 15.57 c 0 1.125 -0.914 2.039 -2.043 2.039 h -0.156 c -1.125 0 -2.039 -0.914 -2.039 -2.039 v -15.57 c 0 -1.125 0.914 -2.039 2.039 -2.039" fill="#fff"/><path d="m 9.27 36.668 c -0.418 -0.105 -0.523 -0.449 -0.625 -2.02 l -0.086 -1.34 l -0.582 -0.105 c -0.91 -0.168 -0.98 -0.965 0.117 -1.32 c 0.203 -0.063 0.371 0.305 0.371 -1.539 l -0.145 -1.473 l -0.328 -0.34 c -0.902 -0.227 -1.453 -1.023 -0.32 -1.367 c 0.367 -0.109 0.762 0.023 0.816 -0.066 c 0.059 -0.086 0.102 -1.01 0.105 -2.051 l -0.098 -1.598 l -0.512 -0.051 c -1 -0.098 -1.211 -0.852 -0.336 -1.113 c 0.176 -0.051 0.484 -0.246 0.566 -0.313 c 0.23 -0.184 0.395 -1.324 0.355 -2.469 l -0.09 -0.391 l -0.699 -0.086 c -1.055 -0.129 -1.031 -1.047 -0.152 -1.27 c 0.68 -0.172 0.684 -0.18 0.898 -2.066 c 0.09 -0.77 0.227 -1.469 0.309 -1.547 c 0.246 -0.25 5.926 -0.355 17.03 -0.32 l 10.41 0.035 l 0.344 0.32 c 0.738 0.688 0.703 0.152 0.703 11.246 c 0 9.926 -0.008 10.246 -0.25 10.645 c -0.273 0.449 -0.855 0.809 -1.309 0.809 c -9.563 -0.145 -25.547 0.516 -26.492 -0.211 m 2.082 -3.328 c -0.035 -0.281 -0.402 -0.891 -0.656 -0.891 c -0.254 0 -0.621 0.461 -0.656 0.742 c -0.035 0.316 0.195 0.793 0.559 0.793 c 0.363 0 0.789 -0.328 0.754 -0.645 m -0.008 -4.707 c 0.258 -0.668 -0.375 -1.23 -0.961 -0.984 c -0.535 0.227 -0.293 1.023 -0.113 1.199 c 0.16 0.164 0.996 -0.012 1.074 -0.215 m 0.008 -4.82 c 0.785 -0.734 0.078 -1.328 -0.254 -1.391 c -0.309 -0.063 -1.031 0.355 -1.031 0.715 c 0 0.625 0.914 1.023 1.285 0.676 m 0.414 -5.324 c 0.281 -0.637 -0.641 -1.133 -1.039 -1.01 c -0.258 0.082 -0.633 0.977 -0.5 1.109 c 0.18 0.18 1.188 0.688 1.539 -0.102" fill="#fcd066"/><path d="m 34.547 26.04 c 0 3.477 -2.789 6.293 -6.23 6.293 c -3.438 0 -6.227 -2.816 -6.227 -6.293 c 0 -3.477 2.789 -6.293 6.227 -6.293 c 3.441 0 6.23 2.816 6.23 6.293" fill="#fff"/><g fill="#040404"><path d="m 17.828 19.785 c 2.516 0.023 4.922 -0.059 7.406 -0.152 c 0.055 -0.84 0.113 -1.68 0.168 -2.516 c 2.164 0 4.324 0 6.488 0 l 0.055 0.258 c 0.141 0.781 0.027 1.473 0.219 2.246 c 0.039 0.039 1.906 0.098 4.145 0.133 l 4.074 0.066 c -0.004 4.32 -0.008 8.641 -0.012 12.965 c -7.563 0 -15.13 0 -22.691 0 c -0.016 -4.371 -0.008 -8.992 0.148 -13 m 13.707 11.383 c 2.066 -1.207 3.105 -2.922 3.105 -5.117 c 0 -4.293 -4.461 -6.98 -8.434 -5.086 c -1.938 0.926 -3.203 2.934 -3.203 5.086 c 0 2.109 1.09 3.906 3.094 5.113 c 1.668 0.691 3.887 0.91 5.438 0.004"/><path d="m 32.73 25.984 c 0 2.16 -1.75 3.914 -3.914 3.914 c -2.164 0 -3.918 -1.754 -3.918 -3.914 c 0 -2.164 1.754 -3.918 3.918 -3.918 c 2.164 0 3.914 1.754 3.914 3.918"/></g><path d="m 34.93 21.289 h 3.727 v 2.055 h -3.727" fill="#fff"/><path d="m 30.543 24.434 c 0 0.676 -0.75 1.219 -1.672 1.219 c -0.922 0 -1.668 -0.543 -1.668 -1.219 c 0 -0.672 0.746 -1.219 1.668 -1.219 c 0.922 0 1.672 0.547 1.672 1.219" fill="#f4f4f4"/></svg>