<svg xmlns="http://www.w3.org/2000/svg" viewBox="0 0 48 48"><path d="m 40.461 39.508 c -42.852 32.566 -57.891 -44.758 -14.32 -38.781 c 17.77 2.441 30.32 26.625 14.32 38.781" fill="#dcdcdc"/><g fill="#2d2d2d"><path d="m 15.684 35.871 c -0.457 -0.09 -0.914 -0.289 -1.293 -0.422 c -1.398 -0.492 -2.648 -1.66 -3.176 -2.969 c -0.137 -0.344 -0.301 -0.723 -0.359 -0.84 c -0.156 -0.309 -0.156 -14.05 0 -14.359 c 0.059 -0.117 0.223 -0.496 0.359 -0.84 c 0.527 -1.309 1.215 -2.406 2.613 -2.898 c 0.367 -0.129 1.336 -0.352 1.461 -0.406 c 0.328 -0.145 15.04 -0.145 15.359 0 c 0.129 0.055 0.535 0.207 0.902 0.336 c 1.398 0.492 2.648 1.66 3.176 2.969 c 0.137 0.344 0.301 0.723 0.359 0.84 c 0.156 0.309 0.156 14.05 0 14.359 c -0.059 0.117 -0.223 0.496 -0.359 0.84 c -0.527 1.309 -1.777 2.48 -3.176 2.969 c -0.367 0.129 -0.758 0.277 -0.863 0.336 c -0.137 0.074 -2.188 0.105 -7.477 0.113 c -4.01 0.008 -7.395 -0.004 -7.527 -0.023 m 1.582 -2.68 c 1.805 -0.566 5.297 -2.227 8.438 -4.01 c 2.855 -1.621 4.688 -2.863 5.645 -3.832 c 0.461 -0.465 0.539 -0.594 0.539 -0.887 c 0 -0.293 -0.078 -0.426 -0.484 -0.844 c -1.582 -1.617 -6.832 -4.754 -11.355 -6.781 c -2.75 -1.234 -4.164 -1.633 -4.762 -1.332 c -0.793 0.395 -1.246 3.652 -1.246 8.953 c 0 5.215 0.43 8.402 1.199 8.926 c 0.281 0.188 1.047 0.117 2.027 -0.191"/><path d="m 16.598 30.383 c -0.414 -0.395 -0.641 -1.73 -0.738 -4.316 c -0.043 -1.105 -0.043 -1.816 0 -2.926 c 0.086 -2.293 0.258 -3.5 0.578 -4.102 c 0.16 -0.297 0.277 -0.348 0.719 -0.316 c 1.691 0.117 8.281 3.402 10.344 5.16 c 0.578 0.492 0.664 0.746 0.371 1.082 c -0.621 0.707 -2.355 1.824 -4.863 3.129 c -2.637 1.375 -4.977 2.328 -5.891 2.395 c -0.371 0.027 -0.383 0.023 -0.52 -0.105"/></g></svg>