<svg xmlns="http://www.w3.org/2000/svg" viewBox="0 0 48 48"><path d="m 8.691 42.77 c 28.789 22.246 58.676 -33.15 23.04 -41.25 c -22.449 -8.301 -44.37 24.77 -23.04 41.25" fill="#ff8c00"/><path d="m 26.629 32.391 c -1.145 -0.348 -1.719 -0.688 -2.578 -1.535 c -1.234 -1.219 -1.723 -1.406 -1.25 -0.48 c 0.574 1.117 0.668 1.828 0.246 1.828 c -1.043 0 -3.277 -1.703 -4.04 -3.086 c -0.145 -0.254 -0.855 -0.75 -1.586 -1.105 c -0.727 -0.352 -2.234 -1.289 -3.344 -2.086 c -1.711 -1.223 -2.93 -1.84 -4.484 -2.27 c -0.16 -0.043 -0.289 -0.18 -0.289 -0.301 c 0 -0.227 0.301 -0.316 1.922 -0.566 c 1.035 -0.16 2.836 -1.777 3.961 -3.559 c 0.496 -0.785 1.195 -1.418 2.465 -2.234 c 3.059 -1.969 5.852 -2.723 10.117 -2.73 c 2.918 -0.004 3.402 0.156 4.03 1.328 c 0.48 0.891 0.434 1.473 -0.242 2.863 c -0.324 0.664 -0.648 1.637 -0.723 2.16 c -0.168 1.191 0.195 1.254 1.656 0.289 c 1.105 -0.727 2.199 -0.859 2.664 -0.32 c 0.242 0.281 0.246 0.609 0.012 1.742 c -0.227 1.086 -0.23 1.59 -0.02 2.266 c 0.395 1.258 0.234 1.91 -0.527 2.168 c -0.531 0.176 -0.898 0.094 -2.148 -0.5 c -0.828 -0.395 -1.605 -0.656 -1.723 -0.586 c -0.32 0.191 -0.27 1.094 0.172 3.141 c 0.371 1.719 0.371 1.867 0 2.613 c -0.258 0.516 -0.676 0.91 -1.191 1.117 c -1.016 0.406 -1.301 0.391 -3.098 -0.156" fill="#fff"/><path d="m 101.97 114.99 c 0 2.307 -1.824 4.21 -4.132 4.334 c -2.307 0.109 -4.303 -1.621 -4.537 -3.913 c -0.218 -2.307 1.403 -4.381 3.695 -4.724 c 2.292 -0.327 4.443 1.185 4.896 3.461" transform="matrix(0.25055 0 0 0.25055 -5.85 -7.759)" fill="#ff8c00" fill-rule="evenodd" stroke="#ff8c00"/></svg>