<svg xmlns="http://www.w3.org/2000/svg" viewBox="0 0 48 48"><g fill="#ff4500"><path d="m 31.699 31.07 c 0 -2.293 -1.844 -4.148 -4.113 -4.148 c -2.273 0 -4.113 1.859 -4.113 4.148 c 0 2.293 1.84 4.148 4.113 4.148 c 2.27 0 4.113 -1.855 4.113 -4.148"/><path d="m 32.19 16.496 c 0 -2.293 -1.844 -4.148 -4.113 -4.148 c -2.273 0 -4.113 1.855 -4.113 4.148 c 0 2.289 1.844 4.148 4.113 4.148 c 2.273 0 4.113 -1.859 4.113 -4.148"/><path d="m 16.414 24.465 c 0 -2.293 -1.844 -4.148 -4.113 -4.148 c -2.273 0 -4.113 1.859 -4.113 4.148 c 0 2.293 1.84 4.148 4.113 4.148 c 2.27 0 4.113 -1.855 4.113 -4.148"/></g><path d="m 5.03 37.832 c -23.688 -35.648 51.848 -57.61 41.848 -11.523 c -4.262 19.05 -30.988 30.602 -41.848 11.523" fill="#ff8c00"/><g fill="#fff" fill-rule="evenodd" stroke="#fff" transform="scale(0.1875)"><path d="m 69.06 84.65 h 119.77 c 0.521 0 0.938 1.542 0.938 3.417 v 25.938 c 0 1.896 -0.417 3.417 -0.938 3.417 h -119.77 c -0.5 0 -0.917 -1.521 -0.917 -3.417 v -25.938 c 0 -1.875 0.417 -3.417 0.917 -3.417" stroke-width="0.88"/><path d="m 105.79 175.77 c -10.813 -17.792 -19.646 -32.646 -19.646 -33 c 0 -0.354 18.833 -0.646 41.854 -0.646 h 41.875 l -2.354 2.708 c -1.292 1.479 -11.167 16.333 -21.958 33 c -10.792 16.667 -19.729 30.29 -19.875 30.29 c -0.146 0 -9.08 -14.542 -19.896 -32.354" stroke-width="1.337"/></g></svg>