<svg xmlns="http://www.w3.org/2000/svg" viewBox="0 0 48 48"><path d="m 0.555 29.473 c 2.977 19.379 29.414 24.566 41.08 10.73 c 10.277 -10.273 7.719 -29.941 -4.883 -36.688 c -14.477 -9.02 -35.566 2.133 -36.719 20.09 c -0.117 1.965 0.047 3.953 0.52 5.863" fill="#3d4546"/><g stroke-width="1.076" transform="scale(0.1875)"><path d="m 115.88 212.08 c -32.646 -5.188 -58.48 -28.19 -68.75 -61.21 c -3.313 -18.833 -1.604 -41.42 5.417 -56.6 c 4.646 -10 8.729 -15.875 16.06 -23.06 c 11 -10.792 18.833 -15.854 32.375 -20.896 c 15.333 -5.125 38.23 -5.333 53.854 0.271 c 15.625 5.917 29.354 15.958 38.854 28.417 c 4.708 6.208 12.438 21.708 14.208 28.563 c 3 11.563 2.625 35.25 -0.729 45.75 c -11.02 34.604 -41.667 58.06 -77.31 59.17 c -5.292 0.146 -11.583 -0.021 -13.979 -0.396 m 18.688 -23.833 c 3.646 -0.417 9.02 -1.479 11.917 -2.375 c 18 -5.542 34.21 -22.896 38.42 -41.17 c 4.188 -23.583 -0.792 -42.875 -16.563 -58.54 c -6.333 -6.167 -11.646 -9.479 -21.06 -13.1 c -13.02 -3.417 -23.354 -5.063 -36.35 -1.042 c -16.563 5.208 -29 15.667 -36.35 30.542 c -8.104 18.229 -7.646 38.29 0.063 53.75 c 8.792 17.396 25.979 29.771 44.27 31.917 c 6.729 0.75 11.438 0.5 15.667 0.021" fill="#f4f4f4" stroke="#f4f4f4"/><path d="m 117.06 159.52 c -14.688 -5.458 -23.19 -19.542 -20.958 -34.667 c 0.813 -5.396 5.833 -16.02 7.75 -16.375 c 0.729 -0.146 2.563 0.896 4.083 2.292 c 3.667 2.625 2.25 3.583 0.396 7.271 c -4.708 9.396 -3.813 18.896 2.438 26 c 4.188 4.771 7.938 6.521 16.208 7.563 c 6.771 0.854 6.958 0.917 7.979 3.354 c 2.313 5.563 1.271 6.396 -7.813 6.354 c -3.646 -0.021 -6.896 -0.604 -10.08 -1.792" fill="#797979" stroke="#797979"/><g fill="#bfbfbf" stroke="#bfbfbf"><path d="m 83.9 152.71 c -2.604 -3.146 -6.313 -17.375 -6.313 -24.25 c 0 -5.333 2.604 -14.958 5.833 -21.542 c 3.75 -7.667 13.604 -18.15 18.438 -19.646 c 1.333 -0.417 1.958 0.167 3.708 3.354 c 1.188 2.208 1.833 4.271 1.5 4.813 c -0.313 0.542 -3.146 3.854 -6.271 7.375 c -3.125 3.542 -6.5 8.208 -7.479 10.375 c -3.854 8.479 -4.292 19.813 -1.146 29.833 c 0.854 2.688 1.542 5.146 1.542 5.479 c 0.021 0.75 -6.917 5.167 -8.104 5.167 c -0.5 0 -1.271 -0.438 -1.708 -0.958"/><path d="m 116.02 177.88 c -6.375 -1.438 -11.854 -4.229 -12.146 -6.188 c -0.229 -1.646 3.417 -7.75 4.979 -8.354 c 0.563 -0.208 2.563 0.292 4.479 1.104 c 4.813 2.063 12.813 3.333 17.958 2.854 c 12.313 -1.125 22.23 -8.06 30 -21 c 2.854 -4.75 4.104 -6.125 5.625 -6.313 c 2.521 -0.292 7.396 1.729 8 3.333 c 0.271 0.708 -0.875 3.938 -2.667 7.563 c -5.708 11.542 -16.813 21.417 -28.729 25.563 c -7.146 2.5 -19.917 3.167 -27.5 1.438"/></g></g></svg>