<svg xmlns="http://www.w3.org/2000/svg" viewBox="0 0 48 48"><path d="m 18.766 0.84 c -19.43 2.957 -24.629 29.24 -10.758 40.836 c 10.301 10.215 30.02 7.672 36.789 -4.855 c 9.05 -14.391 -2.141 -35.36 -20.15 -36.5 c -1.973 -0.117 -3.969 0.047 -5.883 0.516" fill="#1e8fff"/><path d="m 13.977 13.438 h 19.582 c 0.207 0 0.375 0.168 0.375 0.375 v 20.859 c 0 0.207 -0.168 0.375 -0.375 0.375 h -19.582 c -0.207 0 -0.375 -0.168 -0.375 -0.375 v -20.859 c 0 -0.207 0.168 -0.375 0.375 -0.375" fill="#3d4245"/><path d="m 15.945 17.18 h 9.383 v 0.832 h -9.383" fill="#fff"/><g fill="#71d405"><path d="m 28.848 17.594 c 0 0.457 -0.348 0.828 -0.781 0.828 c -0.43 0 -0.781 -0.371 -0.781 -0.828 c 0 -0.461 0.352 -0.832 0.781 -0.832 c 0.434 0 0.781 0.371 0.781 0.832"/><path d="m 31.977 17.594 c 0 0.457 -0.352 0.828 -0.781 0.828 c -0.434 0 -0.781 -0.371 -0.781 -0.828 c 0 -0.461 0.348 -0.832 0.781 -0.832 c 0.43 0 0.781 0.371 0.781 0.832"/></g><g fill="#fff"><path d="m 15.945 23.828 h 9.383 v 0.828 h -9.383"/><path d="m 28.848 24.24 c 0 0.461 -0.348 0.832 -0.781 0.832 c -0.43 0 -0.781 -0.371 -0.781 -0.832 c 0 -0.461 0.352 -0.832 0.781 -0.832 c 0.434 0 0.781 0.371 0.781 0.832"/><path d="m 31.977 24.24 c 0 0.461 -0.352 0.832 -0.781 0.832 c -0.434 0 -0.781 -0.371 -0.781 -0.832 c 0 -0.461 0.348 -0.832 0.781 -0.832 c 0.43 0 0.781 0.371 0.781 0.832"/><path d="m 15.945 30.477 h 9.383 v 0.832 h -9.383"/></g><g fill-rule="evenodd"><g fill="#00000f" fill-opacity="0.502"><path d="m 13.602 20.09 h 20.332 v 1.246 h -20.332"/><path d="m 13.602 26.734 h 20.332 v 1.25 h -20.332"/></g><path d="m 37.37 30.06 c 0 4.129 -3.395 7.48 -7.586 7.48 c -4.188 0 -7.582 -3.352 -7.582 -7.48 c 0 -4.133 3.395 -7.484 7.582 -7.484 c 4.191 0 7.586 3.352 7.586 7.484" fill="#4581b3"/></g><path d="m 28.5 35.21 c -1.176 -0.293 -1.844 -0.668 -2.695 -1.52 c -1.328 -1.328 -1.766 -3.344 -1.145 -5.254 c 0.41 -1.258 1.797 -2.633 3.164 -3.129 c 1.977 -0.723 4.234 -0.242 5.707 1.211 c 1.203 1.184 1.523 1.938 1.531 3.602 c 0.004 1.219 -0.055 1.531 -0.441 2.246 c -1.18 2.191 -3.824 3.418 -6.125 2.844 m 3.156 -0.824 c 1.332 -0.586 1.48 -0.824 1.527 -2.418 c 0.043 -1.555 -0.043 -1.672 -1.18 -1.676 c -0.527 -0.004 -0.754 -0.086 -0.883 -0.324 c -0.27 -0.5 -0.211 -0.816 0.266 -1.438 c 0.348 -0.445 0.563 -0.57 0.996 -0.57 c 0.309 0 0.582 0.07 0.613 0.152 c 0.09 0.234 0.859 0.289 0.938 0.063 c 0.039 -0.113 -0.129 -0.402 -0.371 -0.641 c -0.332 -0.324 -0.547 -0.41 -0.855 -0.332 c -0.305 0.074 -0.816 0.344 -0.816 0.16 c 0 -0.406 0.48 -0.563 0.57 -0.563 c 0.094 0 0.168 -0.082 0.168 -0.18 c 0 -0.102 -0.09 -0.152 -0.207 -0.113 c -0.113 0.035 -0.32 -0.059 -0.461 -0.219 c -0.359 -0.395 -1.25 -0.652 -2.262 -0.652 c -1.133 0.004 -1.449 0.191 -1.023 0.609 c 0.301 0.297 -1.395 2.09 -1.77 2.145 c -0.207 0.031 0.207 1.324 0.051 1.461 c -0.781 0.688 -0.91 -1.379 -1.316 -1.297 c -0.539 0.105 -0.402 -0.023 -0.535 1.242 c -0.141 1.313 0.281 2.492 1.254 3.52 c 0.414 0.438 0.828 0.797 0.918 0.797 c 0.324 0 -0.059 -1.73 -0.477 -2.172 c -0.688 -0.719 -0.441 -1.816 0.406 -1.816 c 0.254 0 0.871 0.258 1.371 0.578 c 0.5 0.316 0.984 0.602 1.074 0.629 c 0.297 0.098 -0.027 0.848 -0.805 1.867 c -0.422 0.547 -0.766 1.043 -0.766 1.098 c -0.004 0.23 0.828 0.461 1.723 0.469 c 0.668 0.008 1.234 -0.109 1.852 -0.379 m -4.605 -7.07 c 0.188 -0.117 0.168 -0.18 -0.102 -0.32 c -0.328 -0.176 -0.723 0.008 -0.723 0.34 c 0 0.176 0.531 0.164 0.824 -0.02 m 0.688 -0.84 c 0.137 -0.086 0.203 -0.199 0.152 -0.25 c -0.133 -0.133 -0.652 0.078 -0.652 0.262 c 0 0.188 0.184 0.184 0.5 -0.012" fill="#fff"/></svg>