<svg xmlns="http://www.w3.org/2000/svg" viewBox="0 0 48 48"><defs><linearGradient id="0" gradientUnits="userSpaceOnUse" x1="816" y1="177.08" x2="836" y2="157.08" gradientTransform="matrix(1.07686 0 0 1.03542 -890.82 -171.74)"><stop stop-color="#197cf1"/><stop offset="1" stop-color="#20bbfa"/></linearGradient></defs><path d="m 6.082 12.582 c -16.977 19.17 8.152 39.473 22.875 34.484 c 14.723 -4.988 24.609 -19.07 14.996 -31.422 c -9.613 -12.348 -19.06 -24.25 -36.04 -5.078" fill="#7a68ed"/><path d="m 34.05 14.563 l -9.227 2.957 l 6.152 5.918 m -9.234 -5.918 l -9.23 -2.957 l 3.078 8.875 m 15.383 2.957 l -6.152 5.918 l 9.227 2.957 m -9.227 -11.832 c -0.855 -0.82 -2.227 -0.82 -3.078 0 c -0.852 0.82 -0.852 2.141 0 2.957 c 0.852 0.82 2.227 0.82 3.078 0 c 0.852 -0.816 0.852 -2.137 0 -2.957 m -9.23 2.957 l -3.078 8.875 l 9.23 -2.957 l -6.152 -5.914" fill="url(#0)"/></svg>