<svg xmlns="http://www.w3.org/2000/svg" xmlns:xlink="http://www.w3.org/1999/xlink" viewBox="0 0 48 48"><defs><g id="1" style="clip-path:url(#0)"><path d="m 27.77 20.88 l 0.24 -0.93 c 0.27 -1.01 0.53 -2.19 0.77 -3.27 h 0.06 c 0.26 1.06 0.53 2.25 0.8 3.27 l 0.23 0.93 h -2.1 m 3.15 4.2 h 2.36 l -3.08 -10.14 h -2.67 l -3.08 10.14 h 2.26 l 0.61 -2.41 h 3 l 0.6 2.41" style="fill:#fff"/></g><clipPath id="0"><path d="M 0,0 H48 V48 H0 z"/></clipPath></defs><path d="m 43.7 12.56 c 25.1 60.94 -80.5 32.3 -29.2 -7.49 c 9.2 -6.93 24.64 -7.47 29.2 7.49" style="fill:#a9a9a9"/><path d="m 14.1 19.57 h 10.38 c 1.76 0 3.18 1.48 3.18 3.3 v 10.84 c 0 1.82 -1.42 3.3 -3.18 3.3 h -10.38 c -1.76 0 -3.18 -1.48 -3.18 -3.3 v -10.84 c 0 -1.82 1.43 -3.3 3.18 -3.3" style="fill:#fff"/><path d="m 17.24 23.77 c 0.39 0.28 0.75 0.62 1.07 1.03 l -0.58 0.75 c -0.36 -0.47 -0.73 -0.86 -1.12 -1.17 l 0.63 -0.61 m 0 2.94 c 0.36 0.28 0.7 0.59 1.03 0.93 l -0.58 0.79 c -0.33 -0.43 -0.69 -0.81 -1.07 -1.12 l 0.63 -0.61 m 0.18 3.22 l 0.71 0.51 c -0.36 1.28 -0.88 2.5 -1.57 3.69 l -0.76 -0.61 c 0.69 -1.15 1.23 -2.35 1.61 -3.59 m 2.1 -6.53 l 0.85 0.19 c -0.06 0.31 -0.15 0.61 -0.27 0.89 h 3.49 v 0.84 h -3.85 l -0.4 0.7 c -0.12 0.25 -0.32 0.51 -0.58 0.79 l -0.54 -0.65 c 0.57 -0.71 1 -1.63 1.3 -2.75 m -0.22 2.89 h 4.12 c 0 0.96 -0.02 1.86 -0.04 2.7 h 0.58 v 0.84 h -0.63 c -0.06 0.65 -0.1 1.29 -0.13 1.91 h 0.67 v 0.79 h -0.76 c -0.12 1.09 -0.54 1.63 -1.25 1.63 c -0.18 0 -0.43 -0.03 -0.76 -0.09 l -0.13 -0.79 c 0.39 0.06 0.69 0.09 0.89 0.09 c 0.21 0 0.34 -0.28 0.4 -0.84 h -3.49 c 0.12 -0.84 0.22 -1.74 0.31 -2.71 h -0.63 v -0.84 h 0.72 c 0.06 -0.87 0.1 -1.77 0.13 -2.7 m 0.67 2.7 h 2.55 c 0.03 -0.65 0.05 -1.29 0.05 -1.91 h -2.46 c -0.03 0.68 -0.07 1.32 -0.13 1.91 m 1.12 -1.68 c 0.33 0.22 0.63 0.47 0.9 0.75 l -0.54 0.7 c -0.27 -0.31 -0.57 -0.59 -0.89 -0.84 l 0.54 -0.61 m 1.25 4.43 c 0.06 -0.65 0.11 -1.29 0.14 -1.91 h -2.55 c -0.06 0.68 -0.14 1.32 -0.23 1.91 h 2.64 m -1.39 -1.68 c 0.36 0.22 0.69 0.46 0.98 0.75 l -0.58 0.7 c -0.3 -0.34 -0.61 -0.64 -0.94 -0.89 l 0.54 -0.56 m -4.7 -5.55 v 7.32 h -0.8 v -0.79 h -0.76 v 1.21 h -0.8 v -7.74 h 2.37 m -1.57 5.74 h 0.76 v -4.95 h -0.76 v 4.95" style="fill:#7f7f7f"/><path d="m 23.85 11.23 h 10.39 c 1.76 0 3.18 1.48 3.18 3.3 v 10.84 c 0 1.82 -1.43 3.3 -3.18 3.3 h -10.39 c -1.76 0 -3.18 -1.48 -3.18 -3.3 v -10.84 c 0 -1.82 1.43 -3.3 3.18 -3.3" style="fill:#1e87e5"/><use xlink:href="#1"/></svg>