<svg xmlns="http://www.w3.org/2000/svg" viewBox="0 0 48 48"><path d="m 8.738 41.2 c -37.52 -49.734 65.738 -56.805 32.602 -6.04 c -7.555 11.574 -22.664 19.21 -32.602 6.04" fill="#778699"/><path d="m 23.09 7.266 c -1.602 1.613 -3.137 3.449 -4.758 5.05 h -6.105 v 6.223 c -1.574 1.652 -3.375 3.219 -4.957 4.852 c 1.582 1.633 3.383 3.258 4.957 4.918 v 6.156 h 6.105 c 1.621 1.602 3.156 3.438 4.758 5.05 c 1.602 -1.613 3.199 -3.449 4.824 -5.05 h 6.04 v -6.156 c 1.574 -1.656 3.375 -3.281 4.957 -4.914 c -1.582 -1.633 -3.383 -3.195 -4.957 -4.852 v -6.219 h -6.04 c -1.625 -1.605 -3.223 -3.441 -4.824 -5.05 m 0 9.48 c -3.602 0 -6.516 2.977 -6.516 6.641 c 0 3.672 2.918 6.641 6.516 6.641" fill="#5f7c88"/><path d="m 23.09 14.594 c -4.766 0 -8.629 3.938 -8.629 8.797 c 0 4.855 3.863 8.793 8.629 8.793" fill-opacity="0.2"/><g fill="#fff"><path d="m 23.09 13.863 c -4.766 0 -8.629 3.938 -8.629 8.793 c 0 4.859 3.863 8.797 8.629 8.797"/><path d="m 23.09 7.266 c -1.602 1.613 -3.137 3.445 -4.758 5.05 h -6.105 v 0.742 h 6.105 c 1.621 -1.605 3.156 -3.441 4.758 -5.05 c 1.602 1.609 3.199 3.445 4.824 5.05 h 6.04 v -0.742 h -6.04 c -1.625 -1.605 -3.219 -3.438 -4.824 -5.05 m -10.863 11.27 c -1.574 1.652 -3.375 3.219 -4.957 4.852 c 0.117 0.125 0.246 0.246 0.367 0.371 c 1.492 -1.5 3.133 -2.953 4.59 -4.484 v -0.738 m 21.73 0 v 0.742 c 1.453 1.527 3.098 2.98 4.586 4.48 c 0.121 -0.121 0.25 -0.246 0.371 -0.367 c -1.582 -1.637 -3.383 -3.199 -4.957 -4.852" fill-opacity="0.2"/></g><path d="m 7.633 23.02 c -0.121 0.125 -0.25 0.246 -0.367 0.367 c 1.582 1.633 3.383 3.258 4.957 4.918 v -0.734 c -1.457 -1.531 -3.098 -3.039 -4.59 -4.547 m 30.906 0 c -1.492 1.508 -3.133 3.01 -4.59 4.547 v 0.734 c 1.574 -1.66 3.375 -3.285 4.957 -4.918 c -0.121 -0.121 -0.246 -0.242 -0.367 -0.363 m -26.316 10.703 v 0.734 h 6.102 c 1.621 1.602 3.156 3.438 4.762 5.05 c 1.602 -1.613 3.195 -3.449 4.824 -5.05 h 6.04 v -0.734 h -6.04 c -1.629 1.605 -3.223 3.438 -4.824 5.05 c -1.605 -1.613 -3.141 -3.445 -4.762 -5.05" fill-opacity="0.302"/></svg>