<svg xmlns="http://www.w3.org/2000/svg" viewBox="0 0 48 48"><path d="m 0.969 29.1 c 3.695 24.586 40.496 25.324 46.06 1.422 c 5.723 -19.348 -15 -35.17 -30.508 -28.828 c -10.383 2.996 -18.77 15.254 -15.551 27.402" fill="#bbc55c"/><g transform="scale(0.1875)"><g stroke-width="1.945"><path d="m 89.88 218 c -9.729 -5.417 -32.396 -21.1 -36.625 -30.06 c -8.167 -13.229 -15.208 -26.75 -16.646 -41.44 l -0.563 -7.896 h 49.708 l 2.688 7.396 c 5.167 14.188 14.583 23.5 28.979 28.646 c 8.667 3.104 8.417 2 7.167 30.563 l -0.896 20.521 h -7.938 c -8.333 -1.25 -19.813 -4.479 -25.875 -7.708" fill="#ffd600" stroke="#ffd600"/><path d="m 36.917 128.58 c -1.542 -0.979 -1.604 -2.625 -0.354 -10.625 c 6.04 -38.896 41.604 -72.917 80.77 -77.29 l 7.896 -0.875 v 50.604 l -7.521 2.542 c -14.479 4.875 -23.458 13.521 -28.479 27.354 c -1.25 3.479 -3.167 7.02 -4.229 7.896 c -11.1 0.417 -39.646 1.021 -48.08 0.396" fill="#4478aa" stroke="#4478aa"/><path d="m 170.63 123.92 c -3.875 -13.875 -15.667 -25.917 -29.729 -30.333 c -8.188 -2.583 -8.104 -2.271 -8.104 -31.708 v -22.12 l 10.417 0.688 c 30.917 2 63.08 27.375 75.63 59.667 c 1.958 5.063 3.896 12.521 4.313 16.583 c 0.396 4.396 1 8.75 1.875 13.08 h -52.75" stroke="#000"/><path d="m 133.58 225.42 c -1 -3.75 -1 -41.21 0 -46.23 c 0.667 -3.333 1.604 -4.167 6 -5.313 c 13.292 -3.521 25.396 -15 29.833 -28.354 l 2.729 -8.167 h 52.833 c 0.25 6.625 -1.021 13.563 -2.458 19.313 c -8.646 33.813 -35.33 60.5 -69.15 69.13 c -13.271 3.396 -18.792 3.292 -19.771 -0.375" fill="#c93e47" stroke="#c93e47"/></g><g fill="#97a5b3" stroke="#97a5b3"><path d="m 133.52 175.48 c 0.104 -0.875 0.313 -8.313 0.458 -16.542 c 0.271 -15.896 0.625 -21.06 1.5 -21.604 c 0.979 -0.604 9.729 -0.896 23.23 -0.75 l 13.25 0.125 l -1.688 5.125 c -3.167 9.583 -7.688 16.833 -13.854 22.292 c -5.25 4.625 -9.708 7.167 -16.792 9.521 c -2.25 0.75 -4.604 1.833 -5.208 2.396 c -1.229 1.25 -1.104 1.063 -0.896 -0.563" stroke-width="0.656"/><path d="m 85.06 129.1 c 1.896 -0.313 2.063 -1.979 4.688 -8.104 c 3.667 -8.542 5.521 -11.5 10.271 -16.271 c 4.854 -4.875 10.375 -8 19.833 -11.25 c 3.083 -1.063 5.729 -1.917 5.854 -1.917 c 0.333 0 -0.125 35.438 -0.479 36.25 c -0.458 1.021 -1.188 1.188 -7.25 1.583 c -1.25 -0.375 -36.688 -0.167 -32.917 -0.292" stroke-width="0.645"/><g stroke-width="0.641"><path d="m 148.56 129.85 l -13.229 -0.229 l -0.979 -1.125 c -1.229 -1.458 -1.396 -4 -1.563 -24.479 c 1.042 -1.604 -1.125 -15.583 1.542 -12.583 c 1.146 2.229 1.271 1.479 6.896 3.604 c 7.563 2.896 12 5.708 17.208 10.917 c 5.771 5.792 8.917 11.25 11.479 19.979 c 0.417 1.417 0.875 2.958 1.042 3.438 c 0.271 0.854 0.167 0.875 -4.438 0.792 c -2.583 -0.042 -10.667 -0.188 -17.958 -0.313"/><path d="m 124.38 175.67 c -0.104 -0.854 -0.313 -8.08 -0.458 -16.1 c -0.25 -15.458 -0.604 -20.479 -1.458 -21.02 c -0.958 -0.583 -9.542 -0.854 -22.729 -0.729 l -13 0.125 l 1.667 5 c 3.104 9.313 7.521 16.375 13.563 21.688 c 5.125 4.5 9.521 6.979 16.438 9.25 c 2.208 0.75 4.5 1.792 5.083 2.333 c 1.229 1.229 1.083 1.042 0.896 -0.542"/></g></g></g></svg>