<svg xmlns="http://www.w3.org/2000/svg" viewBox="0 0 48 48"><defs><clipPath id="3"><path d="m 23.707 22.309 h 11.285 c 0.422 0 0.77 0.34 0.77 0.762 v 3.941 c 0 0.418 -0.348 0.762 -0.77 0.762 h -11.285 c -0.422 0 -0.77 -0.344 -0.77 -0.762 v -3.941 c 0 -0.422 0.348 -0.762 0.77 -0.762"/></clipPath><clipPath id="5"><path d="m 24 24 h 12 v 3 h -12"/></clipPath><clipPath id="2"><path d="m 24 23 h 12 v 3 h -12"/></clipPath><clipPath id="4"><path d="m 24 23 h 12 v 4 h -12"/></clipPath><clipPath id="6"><path d="m 24 24 h 12 v 4 h -12"/></clipPath><linearGradient id="7" gradientUnits="userSpaceOnUse" x1="48.978" y1="-41.29" x2="64.66" y2="13.247" gradientTransform="matrix(0.23497 0 0 0.23222 8.2 20.321)"><stop stop-color="#fff"/><stop offset="1" stop-color="#fff" stop-opacity="0"/></linearGradient><linearGradient id="1" gradientUnits="userSpaceOnUse" y1="55.821" x2="0" y2="-50.09" gradientTransform="matrix(1.0034 0 0 0.9613 -0.051 0.45)"><stop stop-color="#000"/><stop offset="1" stop-color="#1c1c1c" stop-opacity="0.78"/></linearGradient><radialGradient id="0" gradientUnits="userSpaceOnUse" cx="7.496" cy="8.45" r="20" gradientTransform="matrix(0 5.93321 -6.55132 0 119.52 -89.17)"><stop stop-color="#515151"/><stop offset="0.5" stop-color="#262626"/><stop offset="1" stop-color="#000"/></radialGradient></defs><path d="m 45.906 16.242 c 9.316 23.891 -16.789 36.14 -33.04 30.06 c -11.344 -4.25 -16.996 -21.19 -8.941 -34.883 c 10.168 -17.277 34.801 -13.602 41.988 4.824" fill="#a9a9a9"/><path d="m 17.272 -46.18 h 93.78 c 2.643 0 4.788 2.17 4.788 4.845 v 89.32 c 0 2.691 -2.145 4.845 -4.788 4.845 h -93.78 c -2.643 0 -4.788 -2.153 -4.788 -4.845 v -89.32 c 0 -2.675 2.145 -4.845 4.788 -4.845" transform="matrix(0.23497 0 0 0.23222 8.743 23.653)" fill="url(#0)" stroke="url(#1)" stroke-linejoin="round" stroke-linecap="round" stroke-width="0.982"/><g clip-path="url(#2)"><g clip-path="url(#3)"><path d="m 24.84 23.25 c 3.758 0.813 7.516 1.629 11.273 2.441 c 0.098 -0.195 0 -0.266 -0.199 -0.273 c -3.676 -0.797 -7.352 -1.59 -11.03 -2.387 c -0.016 0.074 -0.031 0.148 -0.047 0.219" fill="#fd2f35"/><path d="m 24.773 23.555 c 3.758 0.813 7.516 1.625 11.273 2.438 c 0.098 -0.195 0 -0.266 -0.199 -0.273 c -3.676 -0.793 -7.352 -1.59 -11.03 -2.383 c -0.016 0.074 -0.031 0.145 -0.047 0.219" fill="#f3ba1b"/></g></g><g clip-path="url(#4)"><g clip-path="url(#3)"><path d="m 24.707 23.855 c 3.758 0.813 7.516 1.625 11.273 2.438 c 0.098 -0.195 -0.004 -0.266 -0.199 -0.27 c -3.676 -0.797 -7.352 -1.59 -11.03 -2.387 c -0.016 0.074 -0.031 0.145 -0.047 0.219" fill="#ffff26"/><path d="m 24.648 24.11 c 3.758 0.813 7.516 1.625 11.273 2.438 c 0.098 -0.191 0 -0.262 -0.199 -0.27 c -3.676 -0.797 -7.352 -1.59 -11.03 -2.387 c -0.016 0.074 -0.031 0.148 -0.047 0.219" fill="#75bf29"/></g></g><path d="m 11.883 25.641 l 10.402 -1.629 c 0.055 -0.008 0.121 0.023 0.145 0.078 c 0.023 0.051 -0.004 0.102 -0.059 0.109 l -10.402 1.633 c -0.059 0.008 -0.125 -0.027 -0.148 -0.078 c -0.023 -0.051 0.004 -0.102 0.063 -0.109" fill="#fff"/><g clip-path="url(#5)"><g clip-path="url(#3)"><path d="m 24.59 24.375 c 3.758 0.813 7.516 1.625 11.273 2.438 c 0.102 -0.195 0 -0.266 -0.199 -0.273 c -3.672 -0.793 -7.348 -1.59 -11.02 -2.383 c -0.016 0.07 -0.031 0.145 -0.051 0.219" fill="#479ff9"/></g></g><path d="m 27.461 27.348 l -7.125 -0.016 l 1.785 -3.047 l 1.789 -3.047 l 1.777 3.055" fill="#ececec"/><g clip-path="url(#6)"><g clip-path="url(#3)"><path d="m 24.523 24.676 c 3.758 0.813 7.516 1.625 11.273 2.438 c 0.098 -0.195 0 -0.266 -0.199 -0.273 c -3.676 -0.793 -7.348 -1.586 -11.02 -2.383 c -0.016 0.074 -0.035 0.145 -0.051 0.219" fill="#8f79c5"/></g></g><path d="m 61.926 -23.788 c -7.963 14.921 -15.927 29.858 -23.89 44.762 c 15.993 0.084 32 0.084 47.996 0.135 c -7.963 -15.09 -15.943 -30.16 -23.923 -45.25 c -0.05 0.118 -0.116 0.236 -0.183 0.353" transform="matrix(0.23497 0 0 0.23222 8.743 23.653)" fill="#191919" stroke="#fff"/><path d="m 23.34 18.313 c -0.582 1.027 -1.184 2.039 -1.785 3.059 c 0.699 0.922 2.172 1.141 3.102 0.445 c 0.195 -0.109 0.383 -0.23 0.574 -0.344 c -0.625 -1.066 -1.254 -2.133 -1.863 -3.211 c -0.008 0.016 -0.016 0.035 -0.027 0.051" fill="url(#7)"/></svg>