<svg xmlns="http://www.w3.org/2000/svg" viewBox="0 0 48 48"><path d="m 43.05 36.719 c 17.262 -24.547 -14.613 -49.42 -34.945 -29.418 c -19.16 18.844 -1.398 48.13 22.441 38.973 c 4.973 -1.91 9.336 -5.05 12.504 -9.555" fill="#b0dfe5"/><path d="m 18.73 13.738 c -1.965 0 -3.555 1.605 -3.555 3.586 c 0 1.984 1.59 3.59 3.555 3.59 c 1.965 0 3.559 -1.605 3.559 -3.59 c 0 -1.98 -1.594 -3.586 -3.559 -3.586 m -0.996 8.223 c -3.102 0 -5.598 2.52 -5.598 5.645 c 0 3.125 2.496 5.645 5.598 5.645 h 1.996 c 3.098 0 5.59 -2.516 5.59 -5.645 c 0 -3.125 -2.492 -5.645 -5.59 -5.645" fill="#b0c3de"/><path d="m 27.11 11.266 c -2.477 0 -4.484 2.023 -4.484 4.523 c 0 2.496 2.01 4.523 4.484 4.523 c 2.48 0 4.488 -2.023 4.488 -4.523 c 0 -2.5 -2.01 -4.523 -4.488 -4.523 m -1.254 10.371 c -3.91 0 -7.05 3.172 -7.05 7.113 c 0 3.941 3.145 7.121 7.05 7.121 h 2.512 c 3.91 0 7.06 -3.18 7.06 -7.121 c 0 -3.941 -3.152 -7.113 -7.06 -7.113" fill="#ff4500"/><path d="m 34.641 17.04 l -17.227 19.953 c 0.785 0.5 1.586 0.945 2.41 1.34 l 17.219 -19.961 c -0.766 -0.523 -1.656 -0.961 -2.402 -1.332" fill="#ffdeac"/></svg>