<svg xmlns="http://www.w3.org/2000/svg" viewBox="0 0 48 48"><path d="m 24.08 0.586 c 31.664 -3.602 31.23 47.984 -0.563 47.38 c -29.563 1.699 -32.23 -50.18 0.563 -47.37" fill="#ee6708"/><path d="m 79.25 194.6 c -1.542 -1.667 -1.729 -9.354 -1.729 -66.4 c 0 -53.06 0.271 -64.75 1.5 -65.875 c 1.104 -0.979 14.875 -1.271 49.02 -1.042 l 47.5 0.313 l 0.292 66.48 c 0.229 52.38 0 66.67 -1.104 67.42 c -0.771 0.521 -22.17 0.958 -47.562 0.979 c -40.5 0 -46.37 -0.208 -47.917 -1.875 m 29.29 -28.08 v -10.792 h -19.958 v 21.583 h 19.958 m 28.562 -11.1 l 0.313 -10.479 h -20.02 v 21.667 l 9.688 -0.333 l 9.688 -0.354 m 28.25 -10.188 v -10.792 h -19.938 v 21.583 h 19.938 m -56.48 -46.771 v -10.792 h -19.958 v 21.583 h 19.958 m 28.792 -10.792 v -10.792 h -19.938 v 21.583 h 19.938 m 27.688 -10.792 v -10.792 h -19.938 v 21.583 h 19.938 m 0 -50.958 v -17.375 h -76.44 v 34.771 h 76.44" transform="scale(0.1875)" fill="#fff" stroke="#fff" stroke-width="2.247"/></svg>