<svg xmlns="http://www.w3.org/2000/svg" viewBox="0 0 48 48"><path d="m 11.656 4.03 c -42.25 35.836 44.621 70.29 35.695 14.871 c -1.957 -12.152 -24.309 -24.527 -35.695 -14.871" fill="#55b266"/><path d="m 25.906 38.656 c -1.051 -0.59 -1.41 -1.133 -1.641 -2.5 l -0.207 -1.242 l -4.246 -4.531 l -4.25 -4.535 l -1.055 -0.023 c -1.34 -0.027 -2.176 -0.449 -2.727 -1.371 c -1 -1.676 -0.418 -3.48 1.391 -4.324 c 0.762 -0.355 1.617 -0.289 2.664 0.211 c 0.953 0.449 0.449 0.613 7.586 -2.41 l 4.785 -2.027 l 0.234 -0.82 c 0.324 -1.137 1.262 -2.105 2.277 -2.348 c 0.648 -0.156 0.965 -0.125 1.676 0.156 c 1.27 0.504 1.668 1.043 1.789 2.418 c 0.117 1.348 -0.141 1.875 -1.383 2.852 l -0.832 0.652 l -1.469 7.371 l -1.469 7.375 l 0.422 0.648 c 0.828 1.262 0.855 2.582 0.078 3.621 c -1.035 0.883 -2.609 1.352 -3.625 0.828 m 0.699 -5.711 c 0.109 -0.082 0.398 -1.098 0.641 -2.254 c 0.559 -2.641 2.148 -11.176 2.238 -12 l 0.066 -0.617 l -0.727 0.184 c -0.914 0.23 -6.676 2.617 -9.484 3.934 c -1.77 0.828 -2.141 1.066 -2.199 1.422 c -0.055 0.34 0.344 0.887 1.969 2.723 c 2.121 2.391 4.965 5.383 5.98 6.297 c 0.57 0.516 1.109 0.625 1.516 0.313" fill="#fff"/></svg>