<svg xmlns="http://www.w3.org/2000/svg" viewBox="0 0 48 48"><path d="m 39.31 42.813 c -28.789 22.07 -58.676 -32.898 -23.04 -40.934 c 22.449 -8.238 44.37 24.574 23.04 40.934" fill="#fce7d0"/><path d="m 38.39 24.746 c 0 7.664 -6.293 13.875 -14.05 13.875 c -7.762 0 -14.05 -6.211 -14.05 -13.875 c 0 -7.664 6.293 -13.875 14.05 -13.875 c 7.758 0 14.05 6.211 14.05 13.875" fill="#ffaf4f" fill-opacity="0.624"/><path d="m 25.426 41.629 c -0.094 -0.582 -0.352 -1.438 -0.434 -2.09 c -0.082 -0.652 -1.117 -1.703 -1.203 -1.922 c -0.129 -0.34 -0.449 -2.602 -0.031 -4.52 c 0.109 -0.504 0.539 -1.77 0.617 -2.41 c 0.188 -1.496 -0.133 -1.438 -0.789 -1.43 c -0.602 0.004 -2.02 0.68 -3.246 1.551 c -0.711 0.207 -1.453 1.18 -2.094 1.195 c -0.34 0 -2.566 -1.824 -2.852 -2.34 c -0.27 -0.48 -2.051 -0.211 -4.41 0.668 c -0.848 0.313 -1.227 0.238 -1.355 -0.27 c -0.152 -0.605 0.102 -0.973 0.672 -0.973 c 0.27 0 0.938 -0.172 1.484 -0.383 c 2.84 -1.098 3.969 -1.348 3.969 -0.879 c 0 0.09 0.289 0.492 0.645 0.895 c 0.371 0.445 0.648 0.977 1.125 1.176 c 0.543 0.227 0.871 0.066 1.055 -0.512 c 0.078 -0.254 -0.16 -0.586 -1.078 -1.508 c -1.59 -1.594 -1.949 -2.195 -2.035 -3.414 c -0.063 -0.902 -0.023 -1.055 0.492 -1.863 c 0.512 -0.805 1.313 -1.617 2.48 -2.52 c 0.398 -0.309 0.43 -0.398 0.285 -0.809 c -0.27 -0.77 -0.633 -0.66 -1.898 0.574 c -0.805 0.781 -1.301 1.148 -1.566 1.148 c -0.215 0 -1.297 -0.25 -2.402 -0.555 c -0.621 -0.379 -3.086 -0.285 -3.18 -1.066 c -0.047 -0.41 0.488 -1.457 0.742 -1.457 c 1.258 0.992 3.01 1.195 4.379 1.477 l 0.563 -0.348 c 1 -0.41 2.113 -2.172 3.129 -2.262 c 0.16 0 0.742 0.344 1.289 0.77 c 1.824 1.398 2.168 1.645 2.797 1.992 c 0.559 0.305 0.648 0.316 0.867 0.094 c 0.223 -0.223 0.215 -0.352 -0.082 -1.27 c -0.18 -0.559 -0.418 -1.551 -0.535 -2.199 c -0.191 -1.094 -0.18 -1.242 0.129 -2.023 c 0.508 -1.289 1.281 -3.676 1.645 -5.07 c 0.18 -0.688 0.363 -1.289 0.406 -1.332 c 0.215 -0.219 0.934 0.363 1.215 0.984 c 0.277 0.621 0.309 1.09 0.313 4.836 c 0.004 3.449 -0.191 5.242 0.004 5.406 c 0.195 0.164 0.555 -0.949 0.922 -1.336 c 1.199 -0.914 2.664 -1.578 3.609 -2.547 c 0.383 -0.402 0.785 -0.73 0.895 -0.73 c 0.277 -0.004 0.852 0.656 0.852 0.98 c 0 0.148 -0.199 0.402 -0.445 0.563 c -1.047 0.711 -1.773 2.105 -2.945 2.414 c -1.258 0.313 -1.328 1.219 -0.094 1.219 c 0.625 0 0.973 -0.176 3 -1.531 c 2.461 -1.648 2.828 -1.832 3.098 -1.563 c 0.215 0.215 -0.098 0.992 -0.402 0.992 c -0.176 0 -1.809 1.117 -2.992 2.051 c -0.453 0.359 -0.348 0.758 0.266 1.012 c 0.535 0.227 1.387 1.047 1.855 1.793 c 0.195 0.313 0.5 0.59 0.672 0.617 c 0.711 0.113 1.184 0.121 0.902 0.434 c -0.348 0.387 -0.898 1.02 -0.344 1.461 c 0.891 0.711 0.414 0.699 -0.273 0.758 c -0.523 0.043 -0.672 0.164 -1.25 1.02 c -0.445 0.66 -0.809 1.012 -1.137 1.113 c -0.66 0.195 -0.934 0.34 -0.996 0.531 c -0.109 0.332 0.664 1.063 2.207 2.09 c 1.676 1.117 2.051 1.641 1.539 2.156 c -0.227 0.227 -0.309 0.195 -0.855 -0.328 c -0.332 -0.32 -1.328 -1.078 -2.211 -1.68 c -0.887 -0.605 -1.82 -1.273 -2.074 -1.488 c -0.605 -0.5 -1.645 -0.477 -1.602 0.035 c 0.02 0.18 0.191 0.434 0.391 0.57 c 0.602 0.402 3.848 3.609 3.848 3.797 c -0.254 0.629 -0.797 1.168 -1.523 0.758 c -0.098 -0.316 -3.219 -3.281 -3.766 -3.574 c -0.254 -0.137 -0.668 -1.031 -0.777 -0.922 c -0.109 0.109 0.047 2.523 0.258 5.559 c 0.164 2.328 0.332 2.945 0.055 4.633 c -0.336 0.711 -1.152 2.934 -1.793 1.801" fill="#1c1a18"/></svg>