<svg xmlns="http://www.w3.org/2000/svg" viewBox="0 0 48 48" xmlns:xlink="http://www.w3.org/1999/xlink"><defs><linearGradient id="3" gradientUnits="userSpaceOnUse" x1="240.07" y1="758.81" x2="375.57" y2="984.81" gradientTransform="matrix(0.08788 0 0 0.08937 -2.63 -52.872)"><stop stop-color="#fff" stop-opacity="0.361"/><stop offset="1" stop-color="#fff" stop-opacity="0"/></linearGradient><linearGradient id="4" gradientUnits="userSpaceOnUse" y1="390.61" x2="0" y2="85.38" xlink:href="#3"/><linearGradient id="2" gradientUnits="userSpaceOnUse" y1="76.36" x2="0" y2="170.39" gradientTransform="matrix(0.08788 0 0 0.08937 -28.29 3.2)"><stop stop-color="#fff"/><stop offset="1" stop-color="#fff" stop-opacity="0"/></linearGradient><linearGradient id="0" gradientUnits="userSpaceOnUse" x1="34.29" y1="25.49" x2="13.21" y2="15.885"><stop stop-color="#0a0a09"/><stop offset="1" stop-color="#282827"/></linearGradient><linearGradient id="1" gradientUnits="userSpaceOnUse" y1="39.773" x2="0" y2="1.697"><stop stop-color="#000"/><stop offset="1" stop-color="#131312"/></linearGradient></defs><path d="m 23.328 47.742 c 4.949 -0.383 10.742 -2.758 14.781 -6.06 c 4.914 -4.01 8.504 -10.164 9.469 -16.23 c 0.211 -1.328 0.273 -4.395 0.113 -5.758 c -0.656 -5.66 -3.98 -11.285 -8.828 -14.953 c -2.629 -1.992 -6.109 -3.574 -9.371 -4.27 c -8.492 -1.801 -17.355 1.613 -23.43 9.04 c -3.641 4.445 -5.527 8.93 -5.988 14.234 c -0.551 6.359 1.953 13.176 6.527 17.766 c 3.59 3.605 8.406 5.898 12.977 6.18 c 0.664 0.039 1.477 0.094 1.809 0.117 c 0.332 0.023 1.207 -0.004 1.941 -0.063" fill="#4581b3"/><path d="m 11.979 2.228 h 24.04 c 3.593 0 6.504 2.911 6.504 6.504 v 24.04 c 0 3.593 -2.911 6.504 -6.504 6.504 h -24.04 c -3.593 0 -6.504 -2.911 -6.504 -6.504 v -24.04 c 0 -3.593 2.911 -6.504 6.504 -6.504" transform="matrix(0.70451 0 0 0.71648 6.788 9.619)" fill="url(#0)" stroke="url(#1)" stroke-linecap="round" stroke-width="0.998"/><g fill="#719ecf"><path d="m 27.09 24.488 c 0 1.902 -1.52 3.445 -3.391 3.445 c -1.871 0 -3.387 -1.543 -3.387 -3.445 c 0 -1.902 1.516 -3.445 3.387 -3.445 c 1.871 0 3.391 1.543 3.391 3.445"/><path d="m 21.93 17.734 c -2.938 0.793 -5.102 3.516 -5.102 6.75 c 0 3.238 2.168 5.961 5.102 6.754 c -2.117 -0.965 -3.641 -3.625 -3.641 -6.754 c 0 -3.125 1.523 -5.781 3.641 -6.75 m 3.531 0 c 2.117 0.969 3.641 3.625 3.641 6.75 c 0 3.129 -1.523 5.789 -3.641 6.754 c 2.938 -0.793 5.102 -3.516 5.102 -6.754 c 0 -3.234 -2.164 -5.957 -5.102 -6.75"/><path d="m 20.941 13.945 c -4.586 1.238 -7.969 5.488 -7.969 10.539 c 0 5.05 3.383 9.309 7.969 10.547 c -3.309 -1.508 -5.688 -5.664 -5.688 -10.547 c 0 -4.879 2.379 -9.03 5.688 -10.539 m 5.508 0 c 3.309 1.508 5.688 5.66 5.688 10.539 c 0 4.883 -2.379 9.04 -5.688 10.547 c 4.59 -1.238 7.969 -5.492 7.969 -10.547 c 0 -5.05 -3.379 -9.301 -7.969 -10.539"/></g><path d="m 15.23 11.586 c -2.34 0 -4.215 1.902 -4.215 4.281 v 17.227 c 0 2.379 1.875 4.285 4.215 4.285 h 16.934 c 2.34 0 4.211 -1.906 4.211 -4.285 v -17.227 c 0 -2.379 -1.871 -4.281 -4.211 -4.281" fill="url(#2)"/><path d="m 35.691 20.543 c -3.379 3.68 -6.848 3.973 -11.965 3.973 c -5.04 0 -8.859 2.441 -12.03 5.547 v 3.03 c 0 2.074 1.59 3.586 3.531 3.586 l 16.934 0.359 c 2.16 0 3.527 -1.75 3.527 -3.945" fill="url(#3)" fill-rule="evenodd"/><path d="m 495.17 97.63 c -24.625 0 -44.18 19.537 -44.18 44.14 v 192.7 c 0 24.607 19.558 44.14 44.18 44.14 h 192.69 c 24.581 0 44.14 -19.537 44.14 -44.14 v -192.7 c 0 -24.607 -19.558 -44.14 -44.14 -44.14" transform="matrix(0.08788 0 0 0.08937 -28.29 3.2)" fill="none" stroke="url(#4)" stroke-linecap="round" stroke-width="8"/></svg>