<svg xmlns="http://www.w3.org/2000/svg" viewBox="0 0 48 48"><path d="m 5.03 37.871 c -23.688 -35.5 51.848 -57.37 41.848 -11.473 c -4.262 18.965 -30.984 30.477 -41.848 11.473" fill="#bbb"/><path d="m 33.535 23.844 c 0.023 3.637 -1.922 7.01 -5.098 8.836 c -3.176 1.824 -7.094 1.824 -10.27 0 c -3.176 -1.828 -5.121 -5.199 -5.094 -8.836 c -0.027 -3.641 1.918 -7.01 5.094 -8.836 c 3.176 -1.828 7.094 -1.828 10.27 0 c 3.176 1.824 5.121 5.195 5.098 8.836" fill="#fff"/><path d="m 19.934 36.973 c -4.488 -1.215 -8.121 -4.859 -9.363 -9.406 c -0.523 -1.91 -0.434 -5.277 0.195 -7.195 c 1.152 -3.531 3.398 -6.109 6.785 -7.793 c 2.441 -1.215 3.148 -1.297 11.375 -1.297 l 7.25 -0.004 c 0.293 3.129 0.203 6.313 0.168 8.938 c -0.105 6.887 -0.16 7.258 -1.48 9.949 c -1.414 2.887 -4.328 5.445 -7.418 6.52 c -2.387 0.473 -5.285 0.848 -7.512 0.289 m 6.523 -5.391 c 4.113 -1.891 5.891 -6.742 3.949 -10.809 c -0.688 -1.438 -2.395 -3.133 -3.816 -3.785 c -3.953 -1.809 -8.637 -0.133 -10.57 3.777 c -2.125 4.301 0.027 9.484 4.602 11.09 c 1.785 0.625 4.109 0.516 5.832 -0.273 m -4.68 -3.637 c -1.512 -0.605 -2.434 -2 -2.441 -3.691 c -0.004 -1.758 1.094 -3.23 2.777 -3.723 c 3.688 -1.07 6.559 3.242 4.125 6.195 c -1.281 1.203 -2.813 1.836 -4.461 1.215" fill="#3961f2"/></svg>