<svg xmlns="http://www.w3.org/2000/svg" viewBox="0 0 48 48"><path d="m 9.895 43.36 c 36.09 23.77 58.31 -52.04 11.664 -42 c -19.281 4.273 -30.98 31.1 -11.664 42" fill="#b0cfe5"/><g transform="scale(0.1875)"><path d="m 219.46 122.58 l -11.417 -12.08 l 1.813 -3.917 l 1.833 -3.917 l 4.063 3.625 c 2.25 2 5.333 5.625 6.854 8.08 c 3.25 5.188 9.375 19.15 8.729 19.833 c -0.25 0.25 -5.583 -4.979 -11.875 -11.625" fill="#e20909" stroke="#b0cfe5" stroke-width="0.435"/><path d="m 183.79 129.31 c -0.771 -3 -1.708 -5.438 -2.104 -5.438 c -11.854 7.333 -0.25 -0.5 -4.5 -2.417 c -1.438 -0.5 -2.708 -1.813 -3.542 -3.667 c -1.458 -3.208 -4.896 -5.25 -10.563 -6.229 l -3.5 -0.604 l 5.646 -3.646 c 5.583 -3.625 5.625 -3.688 5.625 -7.06 c 0 -3.375 0.042 -3.417 5.25 -6.417 c 3 -1.729 5.354 -3.646 5.521 -4.479 c 0.188 -1.021 -2.5 -4.229 -8.917 -10.688 c -5.063 -5.063 -8.833 -9.229 -8.375 -9.229 c 1.167 0 11.438 3.542 13.563 4.688 c 1 0.542 4.167 3.188 7.06 5.917 c 5.271 4.958 7.479 5.896 9.146 3.875 c 0.729 -0.875 2.167 0.208 7.688 5.729 c 3.729 3.729 7.583 7.333 8.583 7.979 c 2.25 2.375 0.021 4.854 0.875 7.479 c 0.917 2.771 0.875 3.396 -0.25 5.125 c -0.875 1.313 -2 1.979 -3.438 1.979 c -1.792 0 -2.604 0.813 -5.271 5.25 c -2.729 4.563 -3.479 5.292 -5.813 5.625 c -3.917 0.583 -4.938 1.438 -8.08 6.813 c -1.563 2.667 -2.917 4.854 -3.02 4.854 c -0.104 0 -0.813 -2.438 -1.583 -5.438" fill="#336" stroke="#336" stroke-width="0.388"/><path d="m 203.71 91.44 c -10.229 -9.521 -10.792 -12.146 -3.063 -14.375 c 4.229 -1.208 15.813 -2.521 17.292 -1.958 c 1.563 0.604 1.75 8.979 0.333 15.75 c -0.917 4.333 -3.479 8.313 -5.375 8.292 c -0.5 0 -4.625 -3.479 -9.188 -7.708" fill="#0ad90a" stroke="#0ccf0c" stroke-width="0.423"/><path d="m 97.98 202.38 c -8.833 -5.063 -8.729 -6.646 3.208 -42.33 c 4.958 -14.833 9.02 -27.29 9.02 -27.688 c 0 -1.479 -1.833 -0.563 -7.625 3.813 c -16.792 12.688 -26.646 17.1 -36.4 16.292 c -7.979 -0.646 -11.313 -5.02 -11.813 -15.396 c -0.375 -7.979 0.833 -12.917 5.396 -22.1 c 10.354 -20.792 27.792 -38.729 44.44 -45.708 c 10.25 -4.313 17.917 -3.646 23.604 2.02 c 2.875 2.875 3.292 3.771 3.729 7.896 c 0.271 2.563 1 6.438 1.625 8.604 c 0.625 2.188 1.146 4.979 1.146 6.229 c 0 2.958 -3 14 -11.625 42.979 c -3.875 12.979 -7.02 24.08 -7.02 24.667 c 0 0.604 0.458 1.104 1.021 1.104 c 2.208 0 28.521 -21.75 45.542 -37.667 c 5.292 -4.938 9.875 -9 10.208 -9 c 0.313 0 1.021 1.104 1.583 2.438 c 0.583 1.438 1.979 2.833 3.396 3.438 l 2.396 1.021 l -34.375 34.458 c -30.896 30.979 -34.583 34.938 -36.417 39.13 c -2.083 4.771 -4.646 8.167 -6.125 8.167 c -0.458 -0.021 -2.667 -1.063 -4.917 -2.354 m -13.896 -67.75 c 8.333 -4.167 13.542 -7.833 22.375 -15.688 c 8.25 -7.354 11.5 -12.438 12.1 -19.04 c 0.313 -3.146 0.083 -3.875 -1.667 -5.521 c -1.75 -1.625 -2.02 -2.521 -2.02 -6.646 c 0 -2.604 -0.375 -5.125 -0.833 -5.604 c -3.854 -3.854 -24.646 12.354 -33.583 26.19 c -5.167 7.979 -9.5 16.542 -10.188 20.13 c -0.708 3.729 0.75 8.583 2.854 9.417 c 2.188 0.875 3.521 0.479 10.958 -3.229" stroke="#000" stroke-width="0.388"/></g></svg>