<svg xmlns="http://www.w3.org/2000/svg" viewBox="0 0 48 48"><path d="m 2.828 10.02 c -20.852 71.5 82.17 25.922 30.492 -6.066 c -9.496 -5.848 -25.613 -6.254 -30.492 6.066" fill="#d4dee7"/><path d="m 26.02 33.422 c -0.293 -0.246 -0.438 -0.625 -0.473 -1.262 c -0.066 -1.141 0.34 -1.234 0.91 -0.203 c 0.297 0.527 0.563 0.703 1.086 0.703 c 0.941 0 1.52 -0.949 1.52 -2.504 c 0 -1.355 -0.191 -1.609 -0.75 -1 c -0.262 0.285 -0.762 0.457 -1.316 0.449 c -0.738 -0.008 -0.953 -0.129 -1.262 -0.723 c -0.648 -1.262 -0.746 -5.555 -0.152 -7.05 c 0.434 -1.109 2.305 -1.289 2.813 -0.27 c 0.27 0.539 0.668 0.516 0.668 -0.035 c 0 -0.316 0.133 -0.418 0.465 -0.352 l 0.465 0.086 v 5.07 c 0 2.785 -0.059 5.422 -0.133 5.859 c -0.09 0.531 -0.324 0.922 -0.711 1.195 c -0.715 0.496 -2.555 0.52 -3.129 0.039 m 2.164 -5.01 c 0.664 -0.383 0.949 -1.695 0.84 -3.855 c -0.059 -1.188 -0.168 -1.688 -0.461 -2.078 c -0.555 -0.75 -1.453 -0.668 -1.957 0.172 c -0.359 0.594 -0.414 0.953 -0.414 2.555 c 0 2.066 0.176 2.859 0.727 3.227 c 0.5 0.336 0.656 0.336 1.266 -0.02 m 4.02 4.707 c -0.238 -0.395 -0.43 -0.977 -0.43 -1.293 c 0 -0.824 0.629 -0.746 1.043 0.129 c 0.262 0.551 0.488 0.703 1.043 0.703 c 0.391 0 0.879 -0.195 1.078 -0.43 c 0.406 -0.473 0.652 -1.996 0.473 -2.926 c -0.133 -0.703 -0.379 -0.746 -0.781 -0.137 c -0.391 0.586 -1.902 0.578 -2.441 -0.008 c -0.5 -0.547 -0.641 -1.719 -0.559 -4.652 c 0.074 -2.715 0.355 -3.371 1.555 -3.598 c 0.602 -0.113 0.91 -0.008 1.402 0.477 c 0.57 0.563 0.656 0.578 0.832 0.176 c 0.105 -0.242 0.363 -0.445 0.566 -0.445 h 0.371 l -0.051 5.625 c -0.051 5.418 -0.066 5.645 -0.438 6.262 c -0.328 0.543 -0.602 0.656 -1.809 0.738 c -1.34 0.094 -1.449 0.059 -1.855 -0.621 m 2.824 -5.277 c 0.336 -0.676 0.422 -4.117 0.125 -5.04 c -0.195 -0.605 -1.141 -0.988 -1.785 -0.719 c -1.148 0.48 -1.238 5.609 -0.113 6.324 c 0.633 0.398 1.418 0.148 1.773 -0.563 m -28.93 1.715 c -0.957 -0.336 -1.293 -0.867 -1.523 -2.391 c -0.242 -1.582 -0.219 -6.109 0.039 -7.711 c 0.328 -2.07 0.781 -2.422 3.133 -2.422 c 3.074 0 3.27 0.379 3.336 6.43 c 0.031 3.18 0.094 3.992 0.324 4.418 c 0.375 0.688 0.168 1.195 -0.406 0.984 c -0.266 -0.098 -0.672 0.016 -0.98 0.273 c -0.645 0.531 -2.91 0.773 -3.926 0.418 m 3.043 -1.855 c 0.195 -0.391 0.168 -0.539 -0.195 -1.059 c -0.234 -0.328 -0.609 -0.809 -0.84 -1.066 c -0.375 -0.422 -0.391 -0.512 -0.16 -0.914 c 0.234 -0.402 0.316 -0.379 0.898 0.281 c 0.992 1.121 1.125 0.852 1.125 -2.254 c 0 -2.363 -0.043 -2.75 -0.383 -3.406 c -0.75 -1.457 -3.395 -1.242 -3.816 0.309 c -0.109 0.398 -0.195 2.109 -0.195 3.945 c 0 3.059 0.023 3.273 0.414 3.926 c 0.367 0.609 0.563 0.691 1.672 0.691 c 0.949 0 1.309 -0.109 1.48 -0.453 m 4.586 1.953 c -0.766 -0.266 -0.969 -1.309 -0.969 -5 v -3.395 l 0.465 -0.086 l 0.465 -0.09 v 3.203 c 0 3.633 0.109 4.082 1.051 4.332 c 0.539 0.148 0.695 0.055 1.141 -0.688 c 0.508 -0.848 0.516 -0.891 0.516 -3.855 v -2.996 l 0.93 0.18 v 8.164 l -0.465 0.09 c -0.332 0.063 -0.465 -0.039 -0.465 -0.355 c 0 -0.551 -0.313 -0.566 -0.668 -0.031 c -0.301 0.449 -1.398 0.742 -2 0.531 m 6.156 -0.086 c -0.648 -0.344 -0.941 -1.066 -0.949 -2.344 c -0.004 -0.773 0.113 -1.262 0.426 -1.781 c 0.387 -0.648 0.523 -0.703 1.477 -0.586 c 0.578 0.074 1.203 0.18 1.391 0.234 c 0.508 0.16 0.582 -2.02 0.094 -2.832 c -0.504 -0.836 -1.438 -0.777 -1.941 0.125 c -0.516 0.926 -1.113 0.945 -1.113 0.031 c 0 -1.145 0.422 -1.441 2.051 -1.441 c 1.328 0 1.535 0.07 1.879 0.641 c 0.352 0.59 0.387 0.934 0.438 4.293 l 0.059 3.652 h -0.418 c -0.227 0 -0.508 -0.184 -0.621 -0.41 c -0.176 -0.355 -0.254 -0.359 -0.566 -0.016 c -0.484 0.527 -1.602 0.746 -2.199 0.434 m 2.539 -1.297 c 0.496 -1.133 0.121 -2.379 -0.824 -2.754 c -0.488 -0.191 -1.32 0.219 -1.527 0.754 c -0.258 0.68 -0.133 1.852 0.25 2.309 c 0.496 0.598 1.789 0.406 2.102 -0.309 m 16.496 1.371 c -1 -0.32 -1.402 -2.918 -0.645 -4.176 c 0.348 -0.582 0.574 -0.691 1.438 -0.691 c 0.563 0 1.176 0.156 1.367 0.352 c 0.461 0.477 0.707 -0.152 0.578 -1.477 c -0.191 -1.934 -1.316 -2.57 -2.246 -1.27 c -0.66 0.926 -1.215 0.941 -1.215 0.035 c 0 -0.984 0.379 -1.348 1.563 -1.504 c 1.395 -0.184 2.379 0.266 2.637 1.199 c 0.113 0.418 0.195 2.125 0.195 4.086 c 0 3.355 0 3.363 -0.402 3.363 c -0.219 0 -0.488 -0.176 -0.594 -0.387 c -0.164 -0.328 -0.293 -0.309 -0.816 0.141 c -0.602 0.508 -1.055 0.59 -1.859 0.328 m 2.402 -1.207 c 0.359 -0.496 0.316 -1.793 -0.078 -2.387 c -0.457 -0.691 -1.57 -0.707 -2.02 -0.027 c -0.473 0.711 -0.457 1.973 0.027 2.559 c 0.434 0.52 1.652 0.434 2.07 -0.145" fill="#131313"/></svg>