<svg xmlns="http://www.w3.org/2000/svg" viewBox="0 0 48 48"><path d="m 24.43 0.191 c -46.02 1.434 -17.855 72.19 16.17 38.844 c 13.98 -13.879 7.328 -41.02 -16.17 -38.844" fill="#3d3b3b"/><path d="m 93.51 -70.65 c -1.75 -2.473 -0.437 -4.926 3.762 -6.977 c 2.975 -1.457 4 -2.683 4.725 -5.712 c 1.072 -4.428 1.181 -8.721 0.328 -14.606 c -0.503 -3.546 -0.919 -4.121 -3.084 -4.121 c -1.356 0 -3.522 0.843 -4.79 1.878 c -1.815 1.495 -4.331 1.878 -11.79 1.84 c -8.684 -0.058 -9.821 -0.307 -13.714 -3.124 c -5.862 -4.236 -9.274 -8.146 -11.418 -12.996 c -6.649 -10.485 -6.715 -15.967 -6.715 -24.976 c 2.625 -17.73 1.225 -14.376 8.662 -25.589 c 4.55 -6.881 9.01 -10.638 15.03 -12.689 c 6.496 -2.204 14.895 -1.495 21.348 1.802 c 4 2.032 5.25 2.223 8.137 1.208 c 4.506 -1.572 55.732 -1.572 60.57 -0.019 c 3.062 0.997 4.44 0.767 9.602 -1.648 c 3.587 -1.687 7.896 -2.818 10.652 -2.818 c 5.118 0 13.517 2.568 16.93 5.175 l 8.574 9.795 l 4.287 13.264 l 1.509 15.737 l -4.02 20.18 c -3.609 8.568 -5.643 9.986 -12.774 13.782 c -2.8 1.476 -7.568 2.722 -12.161 3.163 c -6.671 0.652 -8.093 0.46 -11.877 -1.687 c -2.362 -1.342 -5.271 -2.281 -6.474 -2.089 c -2.056 0.345 -2.144 0.767 -2.144 10.83 v 10.466 l 4.09 2.3 c 4.812 2.703 6.04 4.562 4.768 7.284 c -0.853 1.878 -3.325 1.993 -40.881 1.993 c -34.21 0 -40.11 -0.23 -41.12 -1.629 m 47.705 -8.76 c 1.772 -1.495 1.837 -3.239 1.837 -41.594 c 0 -30.592 -0.284 -40.617 -1.203 -42.514 c -1.072 -2.166 -1.99 -2.492 -7.262 -2.492 c -9.449 0 -8.99 -2.262 -8.99 44.795 c 0 34.809 0.175 40.14 1.487 41.633 c 1.925 2.262 11.571 2.377 14.15 0.173 m -45.671 -34.21 c 4.331 -3.45 5.49 -8.951 5.49 -26.26 c -0.022 -19.19 -1.794 -23.672 -9.865 -24.727 c -5.162 -0.69 -8.596 1.533 -10.39 6.69 c -2.953 8.53 -2.384 33.03 0.962 40.559 c 1.4 3.144 5.796 6.325 8.924 6.421 c 0.787 0.019 2.975 -1.188 4.878 -2.683 m 88.65 0.211 c 0.809 -0.748 2.297 -3.086 3.303 -5.194 c 1.531 -3.297 1.794 -6.21 1.794 -19.839 c 0 -14.453 -0.197 -16.427 -2.122 -20.605 c -1.728 -3.757 -2.778 -4.792 -5.512 -5.386 c -3.675 -0.805 -9.952 0.901 -11.527 3.124 c -2.647 3.776 -3.762 22.637 -2.1 36.07 c 1.116 9.162 4.418 13.245 10.652 13.207 c 2.187 -0.019 4.681 -0.652 5.512 -1.38" transform="matrix(0.17859 0 0 0.20379 0.613 49.746)" fill="#fff" stroke="#fff" stroke-width="1.02"/><g fill="#f91111" stroke="#f91111" stroke-width="0.879" transform="matrix(0.17859 0 0 0.20379 0.613 -2.751)"><path d="m 175.51 143.94 c -5.578 -1.974 -7.918 -13.648 -6.671 -33.429 c 0.853 -13.686 2.669 -16.465 10.783 -16.465 c 3.259 0 5.096 1.629 7.06 6.364 c 2.122 5.06 1.903 33.18 -0.284 37.991 c -0.875 1.936 -2.165 3.949 -2.843 4.485 c -1.947 1.553 -5.403 1.993 -8.07 1.054"/><path d="m 86.93 143.86 c -1.64 -1.112 -3.478 -3.048 -4.09 -4.313 c -3.128 -6.479 -3.697 -32.758 -0.875 -39.467 c 2.406 -5.674 7.502 -7.552 12.927 -4.734 c 4.068 2.089 4.856 5.923 4.856 23.289 c -0.022 10.331 -0.394 16.446 -1.159 18.631 c -1.05 2.971 -6.256 8.606 -7.962 8.606 c -0.394 0 -2.056 -0.901 -3.697 -2.01"/></g></svg>