<svg xmlns="http://www.w3.org/2000/svg" viewBox="0 0 48 48"><path d="m 45.738 13.18 c -11.875 -26.336 -51.73 -9.379 -44.973 17.316 c 6.371 25.15 43.23 22.13 46.902 -2.23 c 0.766 -5.082 0.25 -10.254 -1.93 -15.09" fill="#c0c0c0"/><path d="m 18.641 12.25 c -2.328 1.023 -4.133 2.684 -5.16 4.594 c -1.031 1.91 -1.281 4.105 -0.426 6.05 l 0.309 0.703 c -1.207 1.473 -1.375 4.01 -0.309 6.434 c 1.363 3.102 4.234 4.844 6.508 3.844 l -5.102 -11.598 c -0.641 -1.457 -0.477 -3.125 0.371 -4.703 c 0.852 -1.578 2.395 -3.02 4.426 -3.918 c 2.031 -0.895 4.141 -1.055 5.875 -0.613 c 1.738 0.438 3.078 1.445 3.719 2.898 l 5.105 11.598 c 2.273 -1 2.93 -4.293 1.566 -7.395 c -1.066 -2.422 -3.055 -4.02 -4.957 -4.117 l -0.309 -0.703 c -0.855 -1.941 -2.641 -3.242 -4.742 -3.773 c -2.105 -0.531 -4.547 -0.324 -6.875 0.703 m -3.418 10.328 l 4.867 11.06 c 0.352 -0.152 0.625 -0.484 0.645 -0.914 l -4.48 -10.18 c -0.25 -0.098 -0.68 -0.117 -1.031 0.035 m 13.34 -5.871 c -0.352 0.156 -0.625 0.484 -0.723 0.738 l 4.48 10.18 c 0.332 0.273 0.758 0.297 1.109 0.141" fill="#fff"/></svg>