<svg xmlns="http://www.w3.org/2000/svg" viewBox="0 0 48 48"><path d="m 34.28 0.582 c -69.03 -4.77 -17.289 87.31 12.04 26.68 c 4.04 -9.344 1.09 -23.277 -12.04 -26.68" fill="#a28140"/><g fill="#0c1c02" stroke="#0c1c02"><path d="m 163.63 153.94 c -0.001 2.96 -10.553 5.366 -23.562 5.364 c -13.01 -0.002 -23.551 -2.402 -23.55 -5.362 c 0.008 -2.975 10.54 -5.372 23.549 -5.37 c 13.01 0.002 23.551 2.402 23.564 5.368" transform="matrix(0.2402 -0.09402 0.10697 0.21112 -25.553 10.08)" stroke-width="2.466"/><g transform="scale(0.1875)"><path d="m 67.15 187.29 c -0.521 -0.542 -0.958 -3.313 -0.958 -6.167 c 0 -2.833 -0.958 -7.04 -2.125 -9.313 c -1.167 -2.271 -2.604 -9.125 -3.208 -15.208 c -1.021 -10.271 -1.313 -10.958 -4.02 -9.521 c -2.646 1.438 -2.896 0.958 -2.896 -5.542 c 0 -30.02 23.521 -52.812 58.958 -57.12 c 63.69 -7.708 67.1 -8.813 91.52 -29.08 c 2.521 -2.104 2.667 -0.854 2.667 23.271 v 25.5 l -6.375 4.625 c -4.833 3.5 -7.438 7.104 -10.688 14.792 c -4.854 11.521 -7.625 14.896 -20.04 24.375 c -15.417 11.75 -34.979 20.958 -78.42 36.896 c -6.458 3.729 -14.292 -1.208 -20.458 1.875 c -1.646 0.875 -3.417 1.146 -3.958 0.625 m 18.979 -25.479 c 2.938 -1.958 13.333 -6.125 23.1 -9.25 c 20.229 -6.5 21.437 -7.708 16.854 -11.167 c -2.896 -2.188 -1.375 -1.396 6.417 -1.583 c 12.229 -0.292 17.313 -2.125 22.08 -8.917 c 4.271 -6.104 7.271 -20.417 4.688 -20.458 c -0.729 -0.021 -2.146 -4.729 -6.875 1.917 c -1.729 2.417 -1.646 1.021 -3.792 6.375 c -2.979 7.438 -8.313 12.771 -15.604 11.604 c -4.458 -0.708 -11.646 -1.167 -13.813 -3.958 c -10.833 -11.729 -7.458 -17.542 -14.854 -13.792 c -4.646 3.708 -10.229 6.667 -14.06 11.708 c -3.813 5.062 -14.896 33.792 -14.896 38.583 c 0 3.563 4.521 3.104 10.75 -1.063 m 42.08 -55.19 c -5.333 1.979 -5.438 7.125 -4.875 10.08 c 0.396 5.854 6.458 6.958 12.02 6.208 c 14.354 -2.167 1.833 -21.438 -7.146 -16.292 m 42.729 8.938 c 4.792 -7.979 -2.792 -10.229 -5.354 -8.646 c -0.917 0.563 -1.125 5.208 -1.375 7.25 c -1.167 9.75 4.292 5.438 6.729 1.396 m -58.04 -17.12 c 7.521 -0.813 30.17 -5.229 33.667 -6.563 c 2.125 -0.813 3.854 -2.104 3.854 -2.875 c 0 -2.292 -4.271 -3.25 -14.583 -3.25 c -11.958 0 -30.646 6.313 -31.813 10.771 c -0.792 2.979 1.646 4.792 4.292 3.188 c 0.833 -0.5 2.896 -1.083 4.583 -1.271" stroke-width="3.777"/><path d="m 109.65 135 c -4.04 -2.667 -6.438 -10.458 -6.354 -11.896 c 0.521 -9.604 3.417 3.792 7.563 7.937 c 15 9.438 8.896 8.917 -1.208 3.958" stroke-width="1.487"/></g></g></svg>