<svg xmlns="http://www.w3.org/2000/svg" viewBox="0 0 48 48"><path d="m 39.863 8.473 c 24.355 19.504 -11.301 54.711 -32.852 32.22 c -21.598 -19.355 12.11 -56.926 32.852 -32.22" fill="#006300"/><g fill="#d92626"><path d="m 22.08 13.625 c -5.832 0.629 -10.352 5.867 -10.352 12.27 c 0 6.824 5.145 12.324 11.539 12.324 c 6.391 0 11.539 -5.5 11.539 -12.324 c 0 -0.523 -0.047 -1.039 -0.105 -1.543 c -0.59 -0.156 -1.184 -0.375 -1.777 -0.66 c 0.141 0.707 0.234 1.449 0.234 2.203 c 0 5.852 -4.414 10.563 -9.891 10.563 c -5.48 0 -9.891 -4.711 -9.891 -10.563 c 0 -5.621 4.074 -10.18 9.246 -10.539 c -0.223 -0.559 -0.367 -1.152 -0.488 -1.73 c -0.02 0 -0.035 -0.004 -0.055 0"/><path d="m 21.859 17.234 c -3.887 0.711 -6.832 4.301 -6.832 8.664 c 0 4.875 3.676 8.801 8.242 8.801 c 4.566 0 8.242 -3.926 8.242 -8.801 c 0 -0.504 -0.051 -1 -0.125 -1.484 c -1.344 -0.465 -2.617 -1.828 -3.898 -3.137 c -0.879 -0.473 -0.77 0.578 -1 1.098 c -0.383 -0.559 -0.762 -1.215 -1 -3.301 c -1.207 0.723 -2.414 -0.766 -3.621 -1.844"/></g><path d="m 23.68 15.773 c -1.523 -2.023 -1.371 -4.402 -2.059 -6.602 c 1.352 1.488 2.383 3.258 4.121 4.402 l 1.031 -4.402 c 0.23 2.598 0.285 5.352 2.059 6.602 c 1.484 -0.496 2.133 -2.105 3.09 -3.301 c -0.266 1.508 0.016 3.309 -1.031 4.398 c 2.406 1.434 4.809 0.777 7.211 1.102 c -1.34 0.699 -1.727 1.664 -4.121 2.199 c 0.609 1.371 1.762 2.395 3.09 3.301 c -2.059 0.176 -4.117 -0.836 -6.18 -2.199 c 0.145 1.43 1.246 1.629 2.063 2.199 c -1.816 0.137 -3.48 -1.625 -5.152 -3.301 c -0.902 -0.469 -0.789 0.582 -1.031 1.102 c -0.391 -0.559 -0.777 -1.215 -1.027 -3.301 c -1.375 0.801 -2.75 -1.148 -4.121 -2.199 c 0.914 0.242 1.98 0.648 2.059 0" fill="#75bb00"/><path d="m 20.82 18.414 c -2.438 0.902 -4.266 3.137 -4.793 5.887 l 1.625 0.355 c 0.402 -2.129 1.797 -3.855 3.684 -4.566 m -5.484 5.805 c 0 0.918 0.145 1.797 0.41 2.613 l 1.57 -0.578 c -0.203 -0.629 -0.332 -1.301 -0.332 -2.01 v -0.027" fill="#b2b2b2"/></svg>