<svg xmlns="http://www.w3.org/2000/svg" viewBox="0 0 48 48"><path d="m 11.281 4.945 c 24.551 -17.258 49.43 14.617 29.422 34.949 c -18.848 19.16 -48.13 1.398 -38.973 -22.441 c 1.906 -4.973 5.04 -9.34 9.551 -12.508" fill="#2f4e4e"/><path d="m 10.359 38.457 c -0.156 -0.195 -0.238 -0.551 -0.176 -0.785 c 0.059 -0.238 1.172 -2.059 2.473 -4.047 c 1.301 -1.992 2.328 -3.738 2.277 -3.887 c -0.059 -0.184 -0.801 -0.246 -2.289 -0.203 c -2.375 0.07 -2.941 -0.172 -2.641 -1.133 c 0.199 -0.648 0.477 -0.699 4.137 -0.781 c 2.898 -0.066 3.234 -0.031 3.52 0.367 c 0.172 0.238 0.25 0.613 0.172 0.828 c -0.078 0.215 -1.172 1.973 -2.43 3.902 c -1.258 1.93 -2.348 3.672 -2.422 3.871 c -0.121 0.316 0.176 0.355 2.184 0.289 c 2.426 -0.078 3.074 0.125 3.074 0.965 c 0 0.855 -0.465 0.965 -4.074 0.965 c -2.84 0 -3.574 -0.066 -3.805 -0.352 m 5.898 -4.727 c -0.465 -0.723 -0.621 -0.426 3.273 -6.242 c 1.715 -2.559 3.082 -4.77 3.039 -4.906 c -0.055 -0.164 -1.098 -0.219 -3.03 -0.164 c -2.57 0.078 -3 0.035 -3.398 -0.332 c -0.57 -0.523 -0.574 -0.934 -0.023 -1.496 c 0.371 -0.383 0.98 -0.465 4.574 -0.613 c 6.281 -0.254 6.547 -0.012 4.109 3.762 c -0.871 1.352 -2.34 3.578 -3.266 4.953 c -0.926 1.375 -1.75 2.684 -1.832 2.902 c -0.137 0.367 0.105 0.391 2.84 0.293 c 3.371 -0.121 4.04 0.082 4.04 1.215 c 0 1.156 -0.211 1.203 -5.254 1.203 h -4.699 m 7.188 -6.313 c -0.547 -0.715 -0.574 -0.961 -0.18 -1.645 c 0.152 -0.27 2.34 -3.105 4.855 -6.309 c 2.52 -3.199 4.578 -5.949 4.578 -6.113 c 0 -0.234 -0.953 -0.262 -4.492 -0.125 c -4.379 0.168 -4.504 0.16 -4.98 -0.332 c -0.57 -0.578 -0.633 -1.398 -0.164 -2.055 c 0.41 -0.574 2.605 -0.762 9.191 -0.797 c 4.523 -0.02 4.539 -0.02 5.07 0.559 c 0.391 0.426 0.492 0.738 0.383 1.188 c -0.082 0.332 -2.238 3.281 -4.793 6.551 c -2.555 3.266 -4.703 6.094 -4.77 6.281 c -0.109 0.285 0.434 0.34 3.387 0.34 c 2.039 0 3.711 -0.109 3.977 -0.254 c 0.574 -0.313 1.824 0.066 2.41 0.727 c 0.566 0.641 0.512 1.66 -0.113 2.18 c -0.473 0.391 -1.098 0.43 -7.195 0.43 h -6.68 l -0.48 -0.625" fill="#fff"/></svg>