<svg xmlns="http://www.w3.org/2000/svg" viewBox="0 0 48 48"><path d="m 45.02 16.578 c -17.863 -42.12 -70.2 10.141 -28.477 29.344 c 17.301 7.82 38.867 -8.375 28.477 -29.344" fill="#754f7a"/><path d="m 16.12 35.801 c 0 -0.809 0.043 -1.063 0.238 -1.449 c 0.398 -0.797 0.664 -0.887 2.848 -0.945 l 1.883 -0.055 v -2.105 l -0.629 -0.316 c -2.352 -1.191 -3.867 -3.27 -4.23 -5.809 c -0.055 -0.398 -0.105 -1.973 -0.105 -3.5 l -0.004 -2.773 l 0.309 -0.309 c 0.371 -0.375 0.633 -0.387 1.02 -0.055 l 0.293 0.254 l 0.059 3.305 c 0.055 3.207 0.066 3.32 0.324 4 c 0.383 1.012 0.766 1.617 1.453 2.301 c 1.094 1.086 2.773 1.75 4.23 1.672 l 0.629 -0.035 l 0.066 1.055 c 0.078 1.281 0.305 2.188 0.785 3.156 c 0.457 0.918 0.672 1.223 1.383 1.98 l 0.566 0.605 h -11.12 m 14.957 -0.066 c -2.199 -0.43 -3.945 -1.98 -4.668 -4.148 c -0.266 -0.805 -0.266 -2.57 0 -3.371 c 0.641 -1.918 2.031 -3.32 3.934 -3.965 c 0.414 -0.141 0.883 -0.195 1.676 -0.195 c 0.789 0 1.258 0.055 1.672 0.195 c 1.902 0.645 3.297 2.047 3.934 3.965 c 0.27 0.801 0.27 2.566 0 3.371 c -0.629 1.887 -1.965 3.266 -3.793 3.91 c -0.602 0.211 -2.191 0.348 -2.754 0.238 m -8.445 -8.52 c -0.301 -0.086 -0.742 -0.254 -0.98 -0.379 c -0.555 -0.285 -1.371 -1.102 -1.652 -1.66 c -0.5 -0.988 -0.531 -1.348 -0.531 -6.199 c 0 -4.805 0.039 -5.277 0.484 -6.168 c 1.516 -3.035 5.883 -3.035 7.398 0 c 0.445 0.891 0.484 1.363 0.484 6.152 v 4.539 l -0.738 0.691 c -0.828 0.773 -1.316 1.406 -1.719 2.215 c -0.152 0.301 -0.387 0.621 -0.52 0.707 c -0.355 0.234 -1.563 0.289 -2.227 0.102 m 6.98 -6.469 c 0 -1.035 -0.031 -2.098 -0.066 -2.363 c -0.059 -0.441 -0.035 -0.512 0.254 -0.805 c 0.402 -0.406 0.688 -0.406 1.078 -0.012 l 0.309 0.309 l -0.031 2.238 l -0.027 2.238 l -0.574 0.133 c -1.023 0.242 -0.941 0.395 -0.941 -1.738" fill="#fff"/></svg>