<svg xmlns="http://www.w3.org/2000/svg" viewBox="0 0 48 48"><path d="m 1.555 17.66 c -8.965 24.801 23.25 36.863 35.35 26.766 c 12.1 -10.1 16.23 -27.402 2.527 -36.11 c -13.707 -8.707 -28.914 -15.461 -37.875 9.344" fill="#4b4d6f"/><g stroke-width="8.521"><path d="m 108.52 -117.59 l 116.56 0.009 l 0.001 115.73 l -116.57 0.01" transform="matrix(0.07823 0.1704 -0.17151 0.07578 0 0)" fill="#db5f78" stroke="#db5f78"/><path d="m 119.45 -46.24 l 116.58 0.004 l 0.004 115.76 l -116.58 -0.004" transform="matrix(0.13936 0.12544 -0.12743 0.13754 0 0)" fill="#5fdbb9" stroke="#5fdbb9"/><path d="m 101.92 21.95 l 116.58 0.007 l -0.011 115.74 l -116.56 -0.014" transform="matrix(0.17718 0.06134 -0.06387 0.17629 0 0)" fill="#705fdb" stroke="#705fdb"/></g><g fill="#fff"><path d="m 27.621 26.2 v -5.695 h -5.477 c -3.01 0 -5.617 -0.059 -5.797 -0.125 c -0.43 -0.164 -0.465 -2.961 -0.043 -3.313 c 0.199 -0.164 2.332 -0.215 7.477 -0.176 l 7.195 0.055 l 0.055 7.473 l 0.051 7.473 h -3.461"/><path d="m 24.609 27.15 c 0 2.078 -1.637 3.762 -3.66 3.762 c -2.02 0 -3.66 -1.684 -3.66 -3.762 c 0 -2.078 1.641 -3.762 3.66 -3.762 c 2.023 0 3.66 1.684 3.66 3.762"/></g></svg>