<svg xmlns="http://www.w3.org/2000/svg" viewBox="0 0 48 48"><path d="m 44.5 11.656 c -36.27 -42.25 -71.14 44.621 -15.05 35.695 c 12.301 -1.957 24.824 -24.309 15.05 -35.695" fill="#647a54"/><path d="m 14.918 38.34 c -1.359 -1.043 -0.227 -1.246 0.641 -1.875 l -0.043 -0.809 l -0.238 -5.707 c 0.738 -5.715 0.082 -11.668 -0.652 -17.836 c 0.043 -0.129 0.246 -0.313 0.449 -0.414 c 0.57 -0.281 2.492 -0.566 2.828 -0.566 c 0.578 0 16.13 3.754 16.48 3.988 c 1.73 4.695 1.164 7.129 1.559 13.492 c 0.23 3.734 0.055 4.855 -0.832 5.348 c -2.801 0.285 -9.176 1.578 -6.957 0.855 c 0.508 -0.152 0.98 0.902 1.164 0.941 c 6.75 3.379 -9.414 3.488 -14.398 2.582" fill="#80d666"/><path d="m 18.297 39.11 c -0.168 -0.023 -0.801 -0.098 -1.41 -0.168 c -1.375 -0.16 -2.297 -0.469 -2.508 -0.836 c -0.102 -0.176 -0.133 -0.465 -0.09 -0.77 c 0.199 -0.715 0.555 -0.898 1.113 -1.359 l -0.027 -1.051 c -0.035 -1.406 -0.484 -11.98 -0.629 -14.902 c -0.066 -1.285 -0.156 -3.625 -0.203 -5.191 c -0.074 -2.555 -0.059 -2.875 0.117 -3.043 c 0.273 -0.25 2.367 -0.891 2.922 -0.891 c 0.52 0 16.516 3.918 17.05 4.18 c 0.688 0.328 0.781 0.762 1.063 4.832 c 0.43 6.207 0.516 7.711 0.586 10.328 c 0.078 2.77 0.023 3.105 -0.57 3.637 c -0.344 0.305 -0.484 0.332 -3.523 0.699 c -1.738 0.211 -3.207 0.387 -3.258 0.387 c -0.051 0 -0.09 0.074 -0.09 0.168 c 0 0.102 0.172 0.191 0.461 0.23 c 1.094 0.16 1.98 0.434 2.242 0.691 c 0.398 0.398 0.469 1.266 0.133 1.664 c -0.578 0.676 -1.984 1.01 -5.473 1.293 c -1.84 0.152 -7.05 0.219 -7.91 0.102 m 6.5 -1.012 c 3.617 -0.293 6.04 -0.762 5.875 -1.141 c -0.066 -0.148 -0.188 -0.137 -1.645 0.148 c -4.434 0.863 -8.98 0.996 -12.164 0.355 c -1.246 -0.25 -1.691 -0.227 -1.371 0.074 c 0.383 0.352 3.098 0.68 5.992 0.719 c 0.641 0.008 2.133 -0.063 3.313 -0.156 m 0.063 -0.855 c 0.605 -0.063 1.652 -0.195 2.328 -0.293 c 2.152 -0.316 2.633 -0.508 1.691 -0.672 c -0.934 -0.164 -2 -0.645 -2.188 -0.988 c -0.102 -0.18 -0.281 -0.328 -0.395 -0.324 c -0.117 0 -1.895 0.254 -3.953 0.563 c -2.98 0.449 -3.859 0.625 -4.344 0.855 c -0.332 0.16 -0.699 0.289 -0.82 0.289 c -0.215 0 -0.43 0.195 -0.32 0.297 c 0.336 0.313 5.777 0.5 8 0.273 m -6.805 -2.734 c 0.078 -1.414 -0.609 -22.379 -0.738 -22.508 c -0.105 -0.105 -1.668 0.332 -1.777 0.496 c -0.035 0.051 0.102 3.859 0.305 8.457 c 0.203 4.602 0.398 9.648 0.438 11.215 c 0.039 1.566 0.094 2.965 0.125 3.102 c 0.059 0.273 0.34 0.359 1.094 0.336 l 0.492 -0.016 m 3.371 -0.449 c 1.383 -0.215 4.941 -0.711 7.91 -1.098 c 3.414 -0.445 5.5 -0.766 5.688 -0.875 l 0.297 -0.172 l -0.078 -3.094 c -0.07 -2.805 -0.379 -8.16 -0.695 -12.156 c -0.094 -1.215 -0.168 -1.574 -0.336 -1.727 c -0.25 -0.227 -15.93 -4.133 -16.12 -4.02 c -0.086 0.047 -0.102 0.789 -0.047 2.195 c 0.043 1.168 0.219 6.379 0.387 11.586 c 0.281 8.566 0.336 9.75 0.453 9.75 c 0.02 0 1.164 -0.176 2.547 -0.391 m 11.402 -2.461 c -0.539 -0.5 -0.191 -1.707 0.492 -1.707 c 0.43 0 0.734 0.402 0.734 0.969 c 0 0.566 -0.305 0.969 -0.734 0.969 c -0.137 0 -0.355 -0.102 -0.492 -0.23 m 0.715 -0.777 c 0.031 -0.301 -0.004 -0.363 -0.215 -0.363 c -0.195 0 -0.254 0.074 -0.254 0.324 c 0 0.602 0.406 0.637 0.469 0.039 m -12.945 -1.188 c -0.07 -0.082 -0.211 -2.215 -0.324 -4.988 c -0.113 -2.668 -0.262 -6.25 -0.332 -7.961 c -0.074 -1.711 -0.102 -3.188 -0.063 -3.277 c 0.039 -0.094 0.215 -0.168 0.395 -0.168 c 0.266 0 11.02 2.32 12.684 2.738 c 0.406 0.102 0.484 0.172 0.535 0.488 c 0.086 0.508 0.691 10.582 0.688 11.438 c -0.004 1.16 0.402 1.063 -6.355 1.492 c -6.656 0.422 -7.06 0.434 -7.227 0.238 m 3.746 -0.914 c 0.09 -0.066 0.145 -0.23 0.121 -0.359 c -0.027 -0.184 -0.145 -0.25 -0.523 -0.297 l -0.492 -0.055 l -0.035 -2.332 c -0.031 -2.445 -0.066 -2.582 -0.578 -2.445 c -0.344 0.09 -1.395 0.754 -1.465 0.926 c -0.094 0.227 0.063 0.488 0.281 0.484 c 0.113 0 0.34 -0.102 0.508 -0.227 c 0.172 -0.121 0.352 -0.223 0.402 -0.227 c 0.055 0 0.082 0.883 0.063 1.965 l -0.035 1.965 l -0.434 0.066 c -0.238 0.035 -0.5 0.102 -0.582 0.148 c -0.164 0.098 -0.199 0.445 -0.055 0.578 c 0.129 0.125 2.633 -0.047 2.824 -0.191 m 2.668 -0.156 c 0.676 -0.07 0.68 -0.074 0.645 -0.426 c -0.031 -0.297 -0.09 -0.359 -0.344 -0.359 c -0.602 0 -0.613 -0.047 -0.613 -2.273 c 0 -2.383 -0.051 -2.527 -0.777 -2.203 c -0.523 0.23 -1.184 0.754 -1.184 0.938 c 0 0.313 0.297 0.395 0.613 0.172 c 0.598 -0.43 0.621 -0.371 0.582 1.629 l -0.031 1.855 l -0.488 0.055 c -0.504 0.059 -0.66 0.262 -0.504 0.648 c 0.063 0.141 0.203 0.164 0.746 0.105 c 0.371 -0.039 0.98 -0.102 1.355 -0.141 m 2.746 -0.211 c 0.219 -0.105 0.469 -0.395 0.656 -0.762 l 0.305 -0.594 l 0.246 0.449 c 0.367 0.672 0.656 0.867 1.207 0.824 c 0.43 -0.031 0.5 -0.086 0.762 -0.578 c 0.246 -0.457 0.293 -0.719 0.297 -1.66 c 0.004 -1.355 -0.195 -2.191 -0.613 -2.582 c -0.559 -0.52 -1.43 -0.328 -1.746 0.391 c -0.148 0.328 -0.371 0.473 -0.371 0.238 c 0 -0.063 -0.172 -0.293 -0.383 -0.516 c -0.32 -0.34 -0.457 -0.402 -0.887 -0.398 c -0.586 0 -0.934 0.223 -1.262 0.793 c -0.18 0.32 -0.227 0.656 -0.227 1.656 c 0 1.445 0.219 2.152 0.813 2.617 c 0.422 0.332 0.707 0.359 1.203 0.121 m -0.969 -0.879 c -0.141 -0.137 -0.25 -0.352 -0.25 -0.473 c 0 -0.227 1.277 -1.672 1.48 -1.672 c 0.184 0 0.129 1.34 -0.078 1.793 c -0.297 0.664 -0.715 0.789 -1.152 0.352 m 2.754 -0.203 c -0.262 -0.473 -0.246 -0.535 0.336 -1.211 c 0.699 -0.816 0.828 -0.797 0.828 0.129 c 0 0.914 -0.242 1.422 -0.676 1.422 c -0.207 0 -0.355 -0.105 -0.488 -0.34 m -3.199 -1.531 c -0.137 -0.324 0.047 -1.355 0.297 -1.664 c 0.285 -0.355 0.703 -0.426 1.012 -0.164 c 0.395 0.332 0.281 0.641 -0.496 1.355 c -0.609 0.559 -0.746 0.641 -0.813 0.473 m 2.816 -0.121 c -0.121 -0.289 0.043 -1.309 0.258 -1.617 c 0.273 -0.387 0.742 -0.355 0.977 0.063 c 0.18 0.324 0.172 0.352 -0.281 0.887 c -0.664 0.777 -0.855 0.91 -0.953 0.668 m -0.809 -5.141 c 0.027 -0.176 -0.063 -0.258 -0.367 -0.344 l -0.406 -0.109 l -0.066 -1.996 c -0.039 -1.098 -0.078 -2.01 -0.094 -2.023 c -0.086 -0.105 -0.719 0.012 -1.188 0.227 c -0.426 0.191 -0.551 0.309 -0.527 0.484 c 0.039 0.238 0.43 0.297 0.855 0.125 c 0.172 -0.07 0.215 0.031 0.285 0.754 c 0.043 0.457 0.063 1.191 0.039 1.633 l -0.039 0.797 l -0.398 0.008 c -0.512 0.008 -0.742 0.199 -0.527 0.441 c 0.102 0.117 0.445 0.184 1.09 0.211 c 1.293 0.055 1.305 0.051 1.344 -0.207 m 2.602 0.074 c 0 -0.145 -0.117 -0.234 -0.371 -0.281 l -0.367 -0.07 v -1.766 c 0 -2.078 -0.039 -2.145 -1.016 -1.75 c -0.465 0.188 -0.578 0.289 -0.578 0.516 c 0 0.293 0.043 0.297 0.738 0.133 c 0.152 -0.039 0.188 0.184 0.215 1.41 l 0.035 1.453 h -0.426 c -0.465 0 -0.602 0.109 -0.488 0.391 c 0.063 0.145 0.281 0.18 1.168 0.18 c 0.984 0 1.09 -0.02 1.09 -0.215 m -6.05 -0.215 c 0.594 -0.449 0.84 -1.473 0.664 -2.781 c -0.195 -1.43 -0.773 -2.227 -1.707 -2.344 c -0.605 -0.074 -1.012 0.137 -1.238 0.641 c -0.203 0.457 -0.32 0.445 -0.496 -0.059 c -0.176 -0.488 -0.762 -1.133 -1.234 -1.363 c -1.219 -0.586 -2.078 0.359 -2.07 2.281 c 0.008 2.285 0.961 3.754 2.313 3.559 c 0.445 -0.066 1.117 -0.637 1.117 -0.953 c 0 -0.285 0.242 -0.141 0.477 0.281 c 0.242 0.441 0.555 0.75 0.871 0.859 c 0.383 0.129 1.055 0.066 1.305 -0.121 m -1.355 -0.719 c -0.172 -0.195 -0.316 -0.426 -0.316 -0.516 c 0 -0.141 1.297 -1.176 1.605 -1.281 c 0.156 -0.055 0.141 1.129 -0.023 1.563 c -0.246 0.66 -0.789 0.758 -1.266 0.234 m -3.238 -0.301 c -0.664 -0.578 -0.629 -0.734 0.344 -1.457 c 0.477 -0.352 0.926 -0.605 1 -0.563 c 0.09 0.051 0.117 0.355 0.078 0.871 c -0.102 1.297 -0.699 1.781 -1.422 1.148 m 2.68 -1.82 c 0 -1.211 0.461 -1.84 1.141 -1.551 c 0.301 0.129 0.711 0.777 0.621 0.988 c -0.066 0.16 -1.344 1.027 -1.582 1.074 c -0.141 0.027 -0.184 -0.086 -0.18 -0.512 m -3.406 -0.938 c 0.039 -0.492 0.129 -1 0.207 -1.137 c 0.191 -0.336 0.676 -0.426 1.051 -0.199 c 0.352 0.215 0.719 0.82 0.629 1.035 c -0.078 0.191 -1.59 1.199 -1.797 1.199 c -0.117 0 -0.137 -0.215 -0.09 -0.898" fill="#060a05"/></svg>