<svg xmlns="http://www.w3.org/2000/svg" viewBox="0 0 48 48"><path d="m 0.703 28.988 c 3.715 24.727 40.727 25.469 46.32 1.434 c 5.758 -19.461 -15.09 -35.37 -30.68 -28.992 c -10.441 3.01 -18.875 15.34 -15.637 27.559" fill="#6c3"/><path d="m 11.34 12.918 h 12.613 v 11.938 h -12.613" fill="#0f0"/><path d="m 24.09 12.816 h 12.1 v 11.938 h -12.1" fill="#6395ec"/><path d="m 11.406 24.77 h 12.551 v 10.539 h -12.551" fill="#f00"/><path d="m 23.949 24.723 h 12.285 v 10.488 h -12.285" fill="#a9a9a9"/><g stroke="#000" transform="matrix(0.39278 0 0 0.35302 11.166 12.785)"><path d="m 4.31 32.434 v -12.769 l 4.664 0.077 c 4.286 0.066 4.754 0.1 5.788 0.443 c 2.079 0.697 3.61 2.39 4.107 4.581 c 0.269 1.195 0.239 3.718 -0.05 4.747 c -0.338 1.162 -1.154 2.49 -1.84 2.999 c -0.636 0.465 -0.776 1.14 -0.318 1.494 c 0.149 0.111 0.269 0.299 0.269 0.409 c 0 0.122 0.129 0.31 0.278 0.432 c 0.467 0.354 1.263 1.959 3.043 6.141 c 0.935 2.18 1.73 4.02 1.78 4.083 c 0.04 0.077 -0.845 0.111 -1.979 0.089 l -2.059 -0.044 l -1.711 -3.95 c -2.546 -5.898 -2.974 -6.363 -5.947 -6.473 c -2.447 -0.089 -2.297 -0.454 -2.297 5.599 v 4.902 h -3.729 m 8.752 -14.197 c 1.392 -0.542 2.208 -2.257 2.039 -4.315 c -0.109 -1.35 -0.547 -2.291 -1.372 -2.921 c -0.686 -0.542 -1.253 -0.631 -3.55 -0.575 l -1.87 0.055 l -0.05 3.906 l -0.05 3.917 l 0.408 0.155 c 0.547 0.221 3.7 0.066 4.446 -0.221" stroke-width="1.294"/><path d="m 30.377 44.882 c -1.86 -0.454 -2.974 -1.04 -4.396 -2.335 c -2.655 -2.39 -3.799 -5.776 -3.69 -10.833 c 0.129 -5.566 2.397 -9.605 6.365 -11.32 c 1.561 -0.686 2.894 -0.929 4.953 -0.918 c 2.556 0.022 5.181 0.752 7.02 1.959 l 0.736 0.476 v 2.169 c 0 1.195 -0.05 2.169 -0.109 2.169 c -0.07 0 -0.656 -0.465 -1.323 -1.029 c -4.276 -3.641 -10.204 -3.209 -12.432 0.918 c -0.935 1.726 -1.144 2.888 -1.154 6.296 c -0.01 2.7 0.04 3.187 0.398 4.304 c 1.024 3.198 2.745 4.703 5.818 5.101 c 1.88 0.232 4.396 -0.21 5.281 -0.929 c 0.278 -0.232 0.318 -0.575 0.318 -2.954 c 0 -2.235 -0.05 -2.733 -0.278 -2.943 c -0.219 -0.199 -0.706 -0.255 -2.377 -0.255 h -2.108 l -0.02 -1.604 l -0.03 -1.604 h 8.533 l 0.01 5.345 l 0.01 5.356 l -0.497 0.42 c -0.816 0.697 -2.546 1.549 -4.04 1.992 c -1.999 0.575 -5.122 0.675 -6.992 0.221" stroke-width="1.278"/><path d="m 44.986 32.367 v -12.847 h 4.873 c 4.426 0 4.973 0.033 6.067 0.343 c 0.656 0.188 1.283 0.409 1.392 0.498 c 2.317 1.682 3.083 3.297 2.914 6.23 c -0.099 1.726 -0.557 2.91 -1.532 3.961 c -0.706 0.741 -0.706 1.184 -0.03 1.638 c 0.527 0.354 1.601 1.671 1.671 2.047 c 0.02 0.111 0.119 0.354 0.229 0.531 c 0.308 0.531 0.587 2.01 0.587 3.076 c 0 2.379 -0.776 4.238 -2.347 5.599 c -0.577 0.509 -1.124 0.918 -1.213 0.941 c -0.278 0.033 -0.408 0.077 -1.144 0.409 c -0.646 0.288 -1.233 0.321 -6.086 0.365 l -5.38 0.055 m 9.508 -3.541 c 0.955 -0.243 1.75 -0.83 2.128 -1.571 c 0.746 -1.472 0.676 -4.083 -0.149 -5.477 c -0.617 -1.029 -1.522 -1.306 -4.654 -1.394 c -2.108 -0.066 -2.526 -0.033 -2.725 0.188 c -0.298 0.332 -0.288 7.879 0.01 8.222 c 0.239 0.277 4.346 0.299 5.39 0.033 m 0.358 -12.249 c 1.044 -0.498 1.571 -1.571 1.561 -3.154 c -0.01 -1.505 -0.457 -2.357 -1.542 -2.943 c -0.646 -0.343 -1 -0.398 -3.093 -0.454 c -1.681 -0.033 -2.437 0 -2.626 0.144 c -0.348 0.277 -0.388 6.318 -0.04 6.65 c 0.169 0.155 0.855 0.199 2.626 0.155 c 1.999 -0.044 2.516 -0.111 3.113 -0.398" stroke-width="1.302"/></g></svg>