<svg xmlns="http://www.w3.org/2000/svg" viewBox="0 0 48 48"><path d="m 44.5 11.656 c -36.27 -42.25 -71.14 44.621 -15.05 35.695 c 12.301 -1.957 24.824 -24.309 15.05 -35.695" fill="#ab925c"/><path d="m 18.59 37.34 c -0.148 -1.422 -0.121 -1.781 0.176 -2.215 c 0.418 -1.109 -0.172 -2.227 -0.176 -3.281 l -0.004 -1.434 l -0.336 -0.422 c -0.219 -0.281 -0.531 -0.516 -0.902 -0.68 c -0.73 -0.324 -1.668 -1.297 -1.578 -1.637 c 0.281 -0.754 -0.234 -1.082 -0.543 -1.688 c -0.453 -0.707 -0.707 -1.375 -1.164 -2.039 c -0.27 -0.359 -0.422 -0.832 -0.637 -1.16 c -0.516 -0.773 -0.488 -0.844 0.949 -2.496 c 0.91 -1.043 1.125 -1.352 1.555 -2.23 c 0.379 -0.773 0.238 -0.656 2.031 -1.648 c 0.535 -0.293 0.934 -0.344 1.852 -0.223 c 0.582 0.078 0.637 0.07 0.875 -0.176 c 0.379 -0.387 0.348 -0.906 -0.094 -1.543 c -0.418 -0.594 -0.48 -0.918 -0.141 -1.906 l 0.504 -1.477 c 1.723 -1.535 3.445 -1.672 4.836 0.137 c 0.117 0.828 -0.008 0.969 0.402 1.809 c 0.418 0.375 -0.359 1.254 -0.484 1.684 c -0.25 0.844 -0.008 1.605 0.32 1.777 c 0.48 0.246 1.656 0.559 2.355 0.625 c 0.871 0.078 1.773 0.5 2.48 1.152 c 0.883 1.043 1.102 2.535 1.895 3.656 c 0.355 0.488 0.617 0.996 0.309 1.727 c -1.418 0.805 -0.734 0.883 -0.734 1.5 c 0.063 0.254 0.211 0.656 0.328 0.891 c 0.254 0.512 0.215 0.77 -0.203 1.289 c -0.332 0.406 -0.75 0.5 -0.855 0.191 c -0.273 -0.516 -0.633 -0.813 -1.035 -0.383 c -0.277 0.301 -0.457 0.324 -0.59 0.074 c -0.063 -0.121 -0.047 -0.293 0.047 -0.523 c 0.313 -0.754 0.094 -0.98 -0.809 -0.828 c -0.746 0.121 -1.258 -0.063 -1.258 -0.453 c 0 -0.266 0.23 -0.453 1.125 -0.914 c 0.277 -0.145 0.457 -0.363 0.723 -0.875 c 0.328 -0.637 0.34 -0.703 0.207 -0.965 c -0.238 -0.469 -1.371 -1.703 -1.563 -1.703 c -0.609 0 -0.891 0.453 -0.891 1.426 c -0.75 1.645 -0.121 2.828 -0.164 3.895 c -0.055 0.648 -0.027 0.891 0.148 1.41 c 0.215 0.633 0.227 1.496 0.082 6.664 c 0.75 1.324 0.176 2.406 0.133 3.27 c 0.16 0.82 -2.684 0.41 -3.258 0.41 c -0.164 -0.566 -0.348 -1.164 -0.352 -1.754 c -0.516 -1.16 -0.457 -2.074 -0.699 -3.254 c -0.109 -0.535 -0.203 -1.01 -0.203 -1.047 c -0.004 -0.176 -0.402 -0.063 -0.512 0.148 c -0.184 0.348 -0.129 2.324 0.078 2.859 c 0.215 0.566 0.199 1.348 -0.035 1.688 c -0.445 0.637 -0.535 0.816 -0.535 1.078 c -0.992 0.375 -3.5 0.527 -3.66 -0.406 m -0.172 -10.988 c 0.008 -0.867 -0.336 -1.629 -0.063 -2.227 c 0.184 -0.398 0.211 -0.668 0.227 -2.043 c 0.023 -2.164 -0.152 -1.883 -1.027 -1.375 c -0.422 0.246 -0.379 0.066 -0.762 0.938 c -0.293 0.656 -0.324 0.762 -0.117 1.266 c 0.367 0.129 1.328 4.297 1.539 4.262 c 0.145 -0.027 0.18 -0.164 0.203 -0.82 m 6.508 -5.05 c 0.652 0.273 1.137 -0.211 1.305 -0.539 c 0.449 -0.871 -0.406 -1.398 -0.957 -1.438 c -0.641 -0.047 -1.117 0.566 -1.117 0.984 c 0 0.547 0.379 0.824 0.77 0.992" fill="#ddc769"/></svg>