<svg xmlns="http://www.w3.org/2000/svg" viewBox="0 0 48 48"><path d="m 24.453 47.742 c -4.949 -0.383 -10.742 -2.746 -14.781 -6.03 c -4.91 -3.996 -8.5 -10.121 -9.469 -16.16 c -1.148 -7.977 3.484 -16.551 8.715 -20.621 c 2.629 -1.98 6.109 -3.559 9.371 -4.25 c 8.496 -1.797 17.355 1.605 23.43 8.996 c 3.641 4.426 5.527 8.891 5.988 14.172 c 0.551 6.332 -1.953 13.13 -6.523 17.695 c -5.203 4.309 -10.551 6.648 -16.73 6.207" fill="#f4f4f4"/><path d="m 8.625 34.29 v -2.01 h 9.152 v -1 h -6.102 v -0.5 c 0 -0.504 0 -0.504 -0.508 -0.504 c -0.508 0 -0.508 0 -0.508 -0.5 c 0 -0.504 0 -0.504 -0.508 -0.504 c -0.512 0 -0.512 0 -0.512 0.504 c 0 0.5 0 0.5 -0.508 0.5 h -0.508 v -3.01 h 0.508 c 0.508 0 0.508 0 0.508 0.504 c 0 0.5 0 0.5 0.512 0.5 h 0.508 v -2.01 h -1.02 v -2.01 h 1.02 v -4.02 h 3.051 v -2.01 h 2.035 v -1 h 6.102 v 1 h 5.082 v 2.01 h 1.02 v -2.01 h 3.051 v 2.01 h 2.031 v -4.02 h -2.031 v -1 h -10.172 v -1 h -4.066 v 1 h -5.086 v -1 h -3.051 v -3.01 h 0.508 c 0.508 0 0.508 0 0.508 -0.5 v -0.504 h 3.051 v -1 h 6.102 v 1 h 9.156 v 1 h 2.031 v 1 h 2.035 v 0.504 c 0 0.504 0 0.504 0.508 0.504 c 0.508 0 0.508 0 0.508 0.5 v 0.504 h 2.035 v 2.01 h 1.016 v 4.02 h 4.07 v 2.01 h -1.02 v 4.02 h -0.508 c -0.508 0 -0.508 0 -0.508 0.5 c 0 0.504 0 0.504 0.508 0.504 c 0.508 0 0.508 0 0.508 0.5 c 0 0.504 0 0.504 0.508 0.504 c 0.512 0 0.512 0 0.512 -0.504 c 0 -0.5 0 -0.5 0.508 -0.5 h 0.508 v 3.01 h -0.508 c -0.508 0 -0.508 0 -0.508 -0.504 v -0.5 h -2.035 v 2.01 h -3.051 v -0.504 c 0 -0.5 0 -0.5 -0.508 -0.5 c -0.508 0 -0.508 0 -0.508 0.5 c 0 0.504 0 0.504 -0.512 0.504 c -0.508 0 -0.508 0 -0.508 0.5 v 0.504 h 8.137 v 4.02 h -32.543 m 3.051 -2.512 c 0 -0.5 0 -0.5 -0.508 -0.5 c -0.508 0 -0.508 0 -0.508 0.5 c 0 0.504 0 0.504 0.508 0.504 c 0.508 0 0.508 0 0.508 -0.504 m 3.051 0 c 0 -0.5 0 -0.5 -0.508 -0.5 c -0.508 0 -0.508 0 -0.508 0.5 c 0 0.504 0 0.504 0.508 0.504 c 0.508 0 0.508 0 0.508 -0.504 m 3.051 0 c 0 -0.5 0 -0.5 -0.508 -0.5 c -0.508 0 -0.508 0 -0.508 0.5 c 0 0.504 0 0.504 0.508 0.504 c 0.508 0 0.508 0 0.508 -0.504 m 3.051 0 c 0 -0.5 0 -0.5 -0.508 -0.5 c -0.508 0 -0.508 0 -0.508 0.5 c 0 0.504 0 0.504 0.508 0.504 c 0.508 0 0.508 0 0.508 -0.504 m 3.051 0 c 0 -0.5 0 -0.5 -0.508 -0.5 c -0.508 0 -0.508 0 -0.508 0.5 c 0 0.504 0 0.504 0.508 0.504 c 0.508 0 0.508 0 0.508 -0.504 m 3.051 0 c 0 -0.5 0 -0.5 -0.508 -0.5 c -0.508 0 -0.508 0 -0.508 0.5 c 0 0.504 0 0.504 0.508 0.504 c 0.508 0 0.508 0 0.508 -0.504 m 3.051 0 c 0 -0.5 0 -0.5 -0.508 -0.5 c -0.508 0 -0.508 0 -0.508 0.5 c 0 0.504 0 0.504 0.508 0.504 c 0.508 0 0.508 0 0.508 -0.504 m 3.051 0 c 0 -0.5 0 -0.5 -0.508 -0.5 c -0.508 0 -0.508 0 -0.508 0.5 c 0 0.504 0 0.504 0.508 0.504 c 0.508 0 0.508 0 0.508 -0.504 m 3.051 0 c 0 -0.5 0 -0.5 -0.508 -0.5 c -0.508 0 -0.508 0 -0.508 0.5 c 0 0.504 0 0.504 0.508 0.504 c 0.508 0 0.508 0 0.508 -0.504 m 3.051 0 c 0 -0.5 0 -0.5 -0.508 -0.5 c -0.508 0 -0.508 0 -0.508 0.5 c 0 0.504 0 0.504 0.508 0.504 c 0.508 0 0.508 0 0.508 -0.504 m -15.254 -2.01 v -0.504 h -3.051 v 1 h 3.051 m 6.102 -0.5 v -0.504 h -3.051 v 1 h 3.051 m -15.254 -3.01 v -1 h -3.051 v 2.01 h 3.051 m 2.031 -0.5 c 0 -0.504 0 -0.504 -0.508 -0.504 c -0.508 0 -0.508 0 -0.508 0.504 c 0 0.5 0 0.5 0.508 0.5 c 0.508 0 0.508 0 0.508 -0.5 m 6.102 -1 c 0 -0.504 0 -0.504 0.508 -0.504 c 0.512 0 0.512 0 0.512 -0.5 v -0.504 h -3.051 v 0.504 c 0 0.5 0 0.5 0.508 0.5 c 0.508 0 0.508 0 0.508 0.504 c 0 0.5 0 0.5 0.508 0.5 c 0.508 0 0.508 0 0.508 -0.5 m 6.102 0 c 0 -0.504 0 -0.504 0.508 -0.504 c 0.512 0 0.512 0 0.512 -0.5 v -0.504 h -3.051 v 0.504 c 0 0.5 0 0.5 0.508 0.5 c 0.508 0 0.508 0 0.508 0.504 c 0 0.5 0 0.5 0.508 0.5 c 0.508 0 0.508 0 0.508 -0.5 m -12.203 -1 c 0 -0.504 0 -0.504 -0.508 -0.504 c -0.508 0 -0.508 0 -0.508 0.504 c 0 0.5 0 0.5 0.508 0.5 c 0.508 0 0.508 0 0.508 -0.5 m 18.309 0 v -0.504 h -2.035 v 1 h 2.035 m -20.34 -1.508 c 0 -0.5 0 -0.5 -0.508 -0.5 h -0.508 v -3.01 h -2.035 v 4.02 h 3.051 m 2.035 -3.516 v -2.512 h -1.02 v 5.02 h 1.02 m 6.102 -1.508 v -1.504 h -3.051 v -3.01 h 3.051 v -1 h -8.137 v 1 h 3.051 v 6.03 h 5.086 m -3.051 -1.512 v -0.5 h 2.031 v 1 h -2.031 m 18.305 -1.508 v -2.512 h -1.016 v 5.02 h 1.016 m -11.188 -1.508 c 0 -0.5 0 -0.5 0.508 -0.5 h 0.512 v -3.01 h -4.07 v 4.02 h 3.051 m 9.152 -2.01 v -2.01 h -3.051 v 3.01 h 0.508 c 0.512 0 0.512 0 0.512 0.504 v 0.504 h 2.031 v -2.01 m -4.066 -0.5 v -1.504 h -3.051 v 3.01 h 3.051 m -10.172 -2.512 c 0 -0.5 0 -0.5 -0.508 -0.5 c -0.508 0 -0.508 0 -0.508 0.5 c 0 0.504 0 0.504 0.508 0.504 c 0.508 0 0.508 0 0.508 -0.504 m 4.07 -2.01 c 0 -0.504 0 -0.504 -0.508 -0.504 c -0.512 0 -0.512 0 -0.512 0.504 c 0 0.5 0 0.5 0.512 0.5 c 0.508 0 0.508 0 0.508 -0.5 m 4.066 0 c 0 -0.504 0 -0.504 -0.508 -0.504 c -0.508 0 -0.508 0 -0.508 0.504 c 0 0.5 0 0.5 0.508 0.5 c 0.508 0 0.508 0 0.508 -0.5 m 5.086 -1 v -1.508 h -1.016 v 3.01 h 1.016 m -8.137 -6.527 c 0 -0.5 0 -0.5 -0.508 -0.5 c -0.508 0 -0.508 0 -0.508 -0.504 v -0.5 h -3.051 v 1 h 3.051 v 0.5 c 0 0.504 0 0.504 0.508 0.504 c 0.508 0 0.508 0 0.508 -0.504 m -15.254 -1 c 0 -0.5 0 -0.5 -0.508 -0.5 c -0.508 0 -0.508 0 -0.508 0.5 c 0 0.504 0 0.504 0.508 0.504 c 0.508 0 0.508 0 0.508 -0.504 m 4.066 0 v -0.5 h 2.035 v -2.01 h -3.051 v 0.5 c 0 0.504 0 0.504 0.508 0.504 c 0.508 0 0.508 0 0.508 0.5 v 0.504 h -2.031 v -0.504 c 0 -0.5 0 -0.5 -0.512 -0.5 h -0.508 v 2.01 h 3.051 m 6.102 -1.508 v -0.5 h -2.031 v 1 h 2.031" fill="#7f7f7f"/><g stroke-opacity="0.902" fill="#f00" stroke="#ff4500" stroke-width="0.015" transform="matrix(0.1875 0 0 0.1875 1.017 -1.424)"><path d="m 88.91 158.82 h 17.188 v 16.13 h -17.188"/><path d="m 122.64 158.82 h 17.208 v 16.13 h -17.208"/><path d="m 154.58 158.82 h 17.188 v 16.13 h -17.188"/></g><path d="m 8.746 33.36 v -1.01 h 9.152 v -1 h -6.102 v -0.5 c 0 -0.504 0 -0.504 -0.508 -0.504 c -0.508 0 -0.508 0 -0.508 -0.5 c 0 -0.504 0 -0.504 -0.512 -0.504 c -0.508 0 -0.508 0 -0.508 0.504 c 0 0.5 0 0.5 -0.508 0.5 h -0.508 v -3.01 h 0.508 c 0.508 0 0.508 0 0.508 0.504 c 0 0.504 0 0.504 0.508 0.504 h 0.512 v -2.01 h -1.02 v -2.01 h 1.02 v -4.02 h 3.051 v -2.01 h 2.031 v -1 h 6.102 v 1 h 5.086 v 2.01 h 1.016 v -2.01 h 3.051 v 2.01 h 2.035 v -4.02 h -2.035 v -1 h -3.051 v -1 h 3.051 v 1 h 3.055 v -0.5 c 0 -0.504 0 -0.504 0.508 -0.504 h 0.508 v 2.01 h 1.016 v 4.02 h 4.07 v 2.01 h -1.02 v 4.02 h -0.508 c -0.508 0 -0.508 0 -0.508 0.504 c 0 0.5 0 0.5 0.508 0.5 c 0.508 0 0.508 0 0.508 0.504 c 0 0.504 0 0.504 0.508 0.504 c 0.512 0 0.512 0 0.512 -0.504 c 0 -0.504 0 -0.504 0.508 -0.504 h 0.508 v 3.01 h -0.508 c -0.508 0 -0.508 0 -0.508 -0.5 v -0.504 h -2.035 v 2.01 h -3.051 v -0.5 c 0 -0.504 0 -0.504 -0.508 -0.504 c -0.512 0 -0.512 0 -0.512 0.504 c 0 0.5 0 0.5 -0.508 0.5 c -0.508 0 -0.508 0 -0.508 0.504 v 0.5 h 8.137 v 2.01 h -2.035 v -0.504 c 0 -0.5 0 -0.5 -0.508 -0.5 c -0.508 0 -0.508 0 -0.508 0.5 v 0.504 h -2.035 v -0.504 c 0 -0.5 0 -0.5 -0.508 -0.5 c -0.508 0 -0.508 0 -0.508 0.5 v 0.504 h -2.035 v -0.504 c 0 -0.5 0 -0.5 -0.508 -0.5 c -0.508 0 -0.508 0 -0.508 0.5 v 0.504 h -2.035 v -0.504 c 0 -0.5 0 -0.5 -0.508 -0.5 c -0.508 0 -0.508 0 -0.508 0.5 v 0.504 h -2.035 v -0.504 c 0 -0.5 0 -0.5 -0.508 -0.5 c -0.508 0 -0.508 0 -0.508 0.5 v 0.504 h -2.035 v -0.504 c 0 -0.5 0 -0.5 -0.508 -0.5 c -0.512 0 -0.512 0 -0.512 0.5 v 0.504 h -2.031 v -0.504 c 0 -0.5 0 -0.5 -0.508 -0.5 c -0.512 0 -0.512 0 -0.512 0.5 v 0.504 h -2.031 v -0.504 c 0 -0.5 0 -0.5 -0.508 -0.5 c -0.512 0 -0.512 0 -0.512 0.5 v 0.504 h -2.031 v -0.504 c 0 -0.5 0 -0.5 -0.512 -0.5 c -0.508 0 -0.508 0 -0.508 0.5 v 0.504 h -2.031 v -0.504 c 0 -0.5 0 -0.5 -0.512 -0.5 c -0.508 0 -0.508 0 -0.508 0.5 v 0.504 h -2.031 m 15.254 -2.512 v -0.5 h 3.051 v 1 h 3.051 v -1 h 3.051 v -1 h -3.051 v 1 h -3.051 v -1 h -3.051 v 1 h -3.051 v -1 h -2.035 v -1.01 h 2.035 v -0.5 c 0 -0.504 0 -0.504 0.508 -0.504 c 0.508 0 0.508 0 0.508 0.504 c 0 0.5 0 0.5 0.512 0.5 c 0.508 0 0.508 0 0.508 -0.5 c 0 -0.504 0 -0.504 0.508 -0.504 c 0.508 0 0.508 0 0.508 0.504 v 0.5 h 3.051 v -0.5 c 0 -0.504 0 -0.504 0.508 -0.504 c 0.512 0 0.512 0 0.512 0.504 c 0 0.5 0 0.5 0.508 0.5 c 0.508 0 0.508 0 0.508 -0.5 c 0 -0.504 0 -0.504 0.508 -0.504 c 0.508 0 0.508 0 0.508 0.504 v 0.5 h 3.051 v -1 h 2.035 v -1 h -2.035 v 1 h -3.051 v -1 h -3.051 v 1 h -3.051 v -1 h -3.051 v 1 h -3.051 v 3.01 h 3.051 v 1 h 3.051 m -9.152 -3.01 v -1 h -3.051 v 2.01 h 3.051 m 2.035 -0.504 c 0 -0.504 0 -0.504 -0.508 -0.504 c -0.512 0 -0.512 0 -0.512 0.504 c 0 0.504 0 0.504 0.512 0.504 c 0.508 0 0.508 0 0.508 -0.504 m 0 -2.01 c 0 -0.504 0 -0.504 -0.508 -0.504 c -0.512 0 -0.512 0 -0.512 0.504 c 0 0.5 0 0.5 0.512 0.5 c 0.508 0 0.508 0 0.508 -0.5 m -2.035 -1 c 0 -0.504 0 -0.504 -0.508 -0.504 h -0.508 v -3.01 h -2.035 v 4.02 h 3.051 m 2.035 -3.52 v -2.508 h -1.02 v 5.02 h 1.02 m 6.102 -1.508 v -1.504 h -3.051 v -3.01 h 3.051 v -1 h -8.137 v 1 h 3.051 v 6.03 h 5.086 m -3.051 -1.512 v -0.5 h 2.031 v 1 h -2.031 m 18.305 -1.508 v -2.508 h -1.016 v 5.02 h 1.016 m -2.035 -3.01 v -2.01 h -12.203 v 4.02 h 12.203 m -22.371 -3.516 v -0.5 h -2.035 v 1 h 2.035 m 8.137 -0.504 c 0 -0.5 0 -0.5 -0.508 -0.5 c -0.512 0 -0.512 0 -0.512 0.5 c 0 0.504 0 0.504 0.512 0.504 c 0.508 0 0.508 0 0.508 -0.504 m 4.066 -2.01 c 0 -0.5 0 -0.5 -0.508 -0.5 c -0.508 0 -0.508 0 -0.508 0.5 c 0 0.504 0 0.504 0.508 0.504 c 0.508 0 0.508 0 0.508 -0.504 m 4.066 0 c 0 -0.5 0 -0.5 -0.508 -0.5 c -0.508 0 -0.508 0 -0.508 0.5 c 0 0.504 0 0.504 0.508 0.504 c 0.508 0 0.508 0 0.508 -0.504 m 5.086 -1 v -1.504 h -1.016 v 3.01 h 1.016 m -23.391 -6.527 v -1.508 h 0.508 c 0.512 0 0.512 0 0.512 0.504 c 0 0.5 0 0.5 0.508 0.5 c 0.508 0 0.508 0 0.508 0.504 c 0 0.5 0 0.5 -0.508 0.5 c -0.508 0 -0.508 0 -0.508 0.504 c 0 0.5 0 0.5 -0.512 0.5 h -0.508 m 9.152 -0.5 v -0.504 h -2.031 v -1 h 2.031 v -0.5 c 0 -0.504 0 -0.504 0.508 -0.504 c 0.512 0 0.512 0 0.512 0.504 c 0 0.5 0 0.5 -0.512 0.5 c -0.508 0 -0.508 0 -0.508 0.504 v 0.5 h 4.07 v 1 h -4.07 m -12.203 -1.504 c 0 -0.504 0 -0.504 0.512 -0.504 c 0.508 0 0.508 0 0.508 0.504 c 0 0.5 0 0.5 -0.508 0.5 c -0.512 0 -0.512 0 -0.512 -0.5 m 23.391 0 c 0 -0.504 0 -0.504 -0.508 -0.504 c -0.508 0 -0.508 0 -0.508 -0.5 c 0 -0.504 0 -0.504 0.508 -0.504 c 0.508 0 0.508 0 0.508 0.504 c 0 0.5 0 0.5 0.512 0.5 c 0.508 0 0.508 0 0.508 0.504 c 0 0.5 0 0.5 -0.508 0.5 c -0.512 0 -0.512 0 -0.512 -0.5 m -16.27 -1 c 0 -0.504 0 -0.504 0.508 -0.504 c 0.508 0 0.508 0 0.508 0.504 c 0 0.5 0 0.5 -0.508 0.5 c -0.508 0 -0.508 0 -0.508 -0.5 m 12.203 0 c 0 -0.504 0 -0.504 0.508 -0.504 c 0.508 0 0.508 0 0.508 0.504 c 0 0.5 0 0.5 -0.508 0.5 c -0.508 0 -0.508 0 -0.508 -0.5 m -18.305 -2.01 v -0.5 h 3.051 v -1 h 2.031 v 1 h -2.031 v 1 h -3.051 m 16.27 -0.504 v -0.5 h 2.035 v 1 h -2.035 m -9.152 -1.508 c 0 -0.5 0 -0.5 0.508 -0.5 c 0.508 0 0.508 0 0.508 0.5 c 0 0.504 0 0.504 -0.508 0.504 c -0.508 0 -0.508 0 -0.508 -0.504"/></svg>