<svg xmlns="http://www.w3.org/2000/svg" viewBox="0 0 48 48"><path d="m 46.45 17.402 c 8.961 25.02 -23.25 37.18 -35.35 26.996 c -12.1 -10.184 -16.234 -27.637 -2.527 -36.418 c 13.703 -8.781 28.91 -15.59 37.875 9.426" fill="#ff8c00"/><g stroke="#000"><path d="m 120.46 23.576 c 0.124 -7.04 -3.549 -13.587 -9.63 -17.16 c -6.081 -3.553 -13.6 -3.553 -19.681 0 c -6.081 3.576 -9.778 10.124 -9.654 17.16 c -0.124 7.04 3.574 13.61 9.654 17.16 c 6.081 3.553 13.6 3.553 19.681 0 c 6.081 -3.553 9.754 -10.124 9.63 -17.16" transform="matrix(0.15739 0 0 0.17479 9.939 9.453)" fill-rule="evenodd"/><g transform="matrix(0.20798 0 0 0.2166 10.1 8.195)"><g fill="none" stroke-linejoin="round" stroke-linecap="round"><g stroke-width="10.416"><path d="m 75.63 40.05 v 5.717 l -24.13 8.584 l -10.07 15.69"/><path d="m 75.63 40.05 v 5.717 l 18.782 20.04 l 16.08 -17.17"/><path d="m 75.38 46.709 l -15.833 36.25"/></g><path d="m 59.55 82.958 c -6.273 7.61 -12.527 15.239 -18.782 22.867 c -8.94 -1.912 -17.88 -3.805 -26.82 -5.717 c -1.427 2.867 -2.235 5.086 -2.197 8.368" stroke-width="9.768"/><path d="m 59.44 82.56 c 8.978 4.905 17.955 9.793 26.933 14.68 c 4.827 9.54 9.673 19.06 14.5 28.602 c 3.01 -1.858 5.991 -3.697 8.996 -5.555" stroke-width="10.416"/></g><g fill-rule="evenodd"><g fill="#7f0000" stroke-width="1.25"><path d="m 53.18 75.31 c 0 0 -6.254 7.917 -6.254 11.271 c -1.465 5.825 -0.826 1.659 -8.133 12.516 c -14.593 -3.968 -16.06 -3.769 -16.904 -3.769 c -2.291 1.262 -6.461 5.645 -2.085 12.1 c 4.808 2.723 22.12 5.645 23.365 4.797 c 1.465 -0.83 23.778 -15.564 18.18 -17.205 c -6.085 -1.569 -12.866 -6.15 -11.72 -6.781 c 0.207 4.797 29.638 11.885 32.14 14.193 c 0.826 2.922 9.184 20.848 10.649 21.894 c 0.826 -5.01 5.203 -11.05 10.424 -8.765 c 2.911 1.677 -8.978 -18.341 -11.269 -22.723 c -3.55 -3.769 -12.715 -7.935 -16.678 -8.981 c -2.31 -3.949 -21.712 -8.548 -21.712 -8.548"/><path d="m 55.08 46.943 c 0 0 -4.395 7.286 3.963 12.1 c 2.705 0.415 20.435 -13.778 7.494 -4.599 c -9.597 20.234 -15.439 16.898 -14.18 21.28 c 8.133 4.581 9.804 7.304 22.951 7.502 c 4.789 -0.613 6.05 -18.14 5.635 -34.21 c -0.413 17.11 -0.207 9.811 5.01 17.313 c -1.878 -7.917 3.118 -10.01 6.461 -11.668 c -0.413 -2.507 -3.137 -10.442 -11.06 -12.1 c 3.137 4.581 -5.841 5.212 -9.391 3.535 c -5.01 -3.336 -1.672 -4.382 -4.789 -4.581 c -4.395 0.631 -12.11 5.428 -12.11 5.428" stroke-linejoin="round" stroke-linecap="round"/><path d="m 88.25 93.65 l -26.914 -10.622 l -0.639 1.028 l 27.12 10.64" stroke-opacity="0.502" fill-opacity="0.502"/><path d="m 38.06 100.99 l -15.345 -3.679 l -0.695 0.685 l 15.345 3.679" stroke-opacity="0.498" fill-opacity="0.498"/></g><path d="m 74.29 11 c -4.583 1.443 -9.184 4.13 -10.649 9.342 l -0.657 3.679 l 16.678 -12.263 c -1.784 -1.082 -2.949 -1.118 -5.372 -0.739" fill="#fff" fill-opacity="0.467"/></g></g></g></svg>