<svg xmlns="http://www.w3.org/2000/svg" viewBox="0 0 48 48"><path d="m 17.41 45.36 c -3.633 -0.75 -8.906 -3.465 -11.234 -5.781 c -3.363 -3.344 -5.578 -8.531 -5.488 -12.84 c 0.117 -5.758 4.152 -12.848 10.07 -17.691 c 4.242 -3.477 10.945 -6.926 15.12 -7.785 c 3.555 -0.734 6.918 -0.273 9.922 1.355 c 4.07 2.207 6.836 5.379 8.336 9.559 c 3.805 8.434 3.305 16.676 2.477 23.609 c -3.039 16.48 -18.02 11.988 -29.2 9.574" fill="#b0c3de"/><path d="m 15.391 36.25 c -1.461 -0.473 -2.313 -1.402 -2.641 -2.883 c -0.082 -0.363 -0.188 -0.75 -0.234 -0.863 c -0.105 -0.262 0.246 -3.512 0.406 -3.762 c 0.207 -0.516 0.176 -1.027 0.316 -1.574 c 0.09 -0.332 0.121 -0.359 0.406 -0.332 c 0.289 0.031 0.32 0.07 0.488 0.68 c 0.195 0.762 0.891 -0.008 1.195 0.641 c 1.414 2.574 1.973 3.59 3.605 5.73 c 0.395 -0.02 1.199 -2.906 1.285 -2.941 c 0.148 -0.066 0.543 -3.113 0.566 -3.371 c 0.016 -0.133 2.566 -1.598 3.391 -2.113 c 1.469 0.363 3.574 1.672 6.281 2.176 c -0.73 -2.672 -1.184 -4.281 -1.996 -6.223 l 1.188 -1.434 c 0.629 -0.762 0.773 -1.566 0.871 -1.664 c 1.145 -0.023 2.586 0.07 4.746 -0.082 c -1.391 -1.113 -2.227 -2.168 -4.137 -3.145 c 2.223 -1.227 0.047 -1.258 0.105 -1.895 c 0.082 -0.043 0.066 -0.082 -0.055 -0.129 c -0.094 -0.035 0.691 0.016 1.746 0.117 c 1.824 0.172 1.961 0.199 2.652 0.512 c 0.813 0.367 1.66 1.035 1.965 1.551 c 0.699 1.184 0.875 2.879 0.477 4.617 c -0.094 0.422 -0.523 2.715 -0.953 5.09 c -0.426 2.375 -1.016 5.605 -1.309 7.18 c -0.293 1.57 -0.605 3.324 -0.691 3.898 l -0.16 1.035 l -0.777 0.031 c -0.84 0.035 -15.254 -0.352 -16.984 -0.457 c -0.656 0.063 -1.238 -0.223 -1.754 -0.391 m -1.137 -12.176 c 0.012 -0.109 0.145 -0.539 0.297 -0.949 c 1.41 -3.883 6.855 -8.531 11.289 -9.637 c 0.887 -0.223 2.367 -0.195 2.906 0.051 c 1.043 0.48 1.477 1.809 1.063 3.273 c -0.75 2.656 -3.219 5.68 -6.598 8.07 c -2.184 1.547 -4.93 2.719 -6.09 2.602 c -1.805 -0.629 -2.816 -1.777 -2.863 -3.41" fill="#5325d2"/><g fill="#b0c3de"><path d="m 20.355 34.36 c 4.59 -1.547 6.484 -2.098 9.953 -3.625 c 1.168 2.094 1.246 2.145 2.641 4.418 c -2.41 -0.313 -9.891 -0.023 -12.594 -0.793"/><path d="m 34.16 33.33 c 0.242 -1.984 1.746 -10.637 2.07 -13.727 c -1.082 1.73 -2.461 5.715 -4.246 8.648 c 0.656 1.625 1.207 2.988 2.176 5.078"/></g></svg>