<svg xmlns="http://www.w3.org/2000/svg" viewBox="0 0 48 48"><path d="m 27.965 47.28 c 45.797 -9.324 3.105 -73.49 -23.12 -34.945 c -11.11 14.973 -0.43 39.742 23.13 34.945" fill="#778799"/><g transform="matrix(0.11429 0 0 0.11353 -6.542 -0.316)"><path d="m 169.11 111.95 h 202.61 c 0.171 0 0.308 4.06 0.308 9.118 v 138.42 c 0 5.02 -0.137 9.08 -0.308 9.08 h -202.61 c -0.171 0 -0.308 -4.06 -0.308 -9.08 v -138.42 c 0 -5.058 0.137 -9.118 0.308 -9.118" fill="#fff" stroke="#4f626e" stroke-width="7.079"/><path d="m 190.17 131.91 h 159.1 c 0.171 0 0.308 4.06 0.308 9.118 v 98.68 c 0 5.02 -0.137 9.118 -0.308 9.118 h -159.1 c -0.171 0 -0.308 -4.095 -0.308 -9.118 v -98.68 c 0 -5.058 0.137 -9.118 0.308 -9.118" fill="#9cd8ed" stroke="#95d4ea" stroke-width="1.643"/></g><path d="m 90.46 129.95 c 0.121 -13.908 -1.51 -12.931 12.743 -26.879 c 7.07 -6.954 13.79 -12.832 14.917 -13.09 c 1.127 -0.239 6.885 4.124 12.803 9.723 c 5.898 5.579 11.797 10.162 13.11 10.162 c 1.309 0 5.778 -2.909 9.945 -6.476 c 4.167 -3.567 8.475 -6.456 9.582 -6.436 c 1.107 0 6.381 3.945 11.716 8.747 l 9.703 8.727 v 27.1 h -94.64" transform="matrix(0.19404 0 0 0.19605 -2.588 0.18)" fill="#5db36f" stroke="#5db36f" stroke-width="1.439"/><path d="m 319.88 245.25 c -2.837 -1.376 -16.235 -15.174 -29.77 -30.657 c -29.804 -34.06 -49.53 -54.26 -53.05 -54.26 c -1.401 0 -12.475 10.907 -24.541 24.19 c -15.07 16.584 -22.456 23.397 -23.481 21.608 c -1.641 -2.787 43.988 -52.02 48.16 -52.02 c 1.23 0 10.698 8.43 21.05 18.752 c 10.356 10.322 20.473 18.787 22.49 18.787 c 2.051 0 9.673 -5.643 17.02 -12.524 c 7.314 -6.882 14.594 -12.524 16.201 -12.524 c 1.606 0 10.903 8.464 20.644 18.787 c 12.817 13.591 17.16 19.44 15.586 21.06 c -1.538 1.652 -6.357 -2.409 -17.363 -14.589 c -9.844 -10.907 -16.748 -16.894 -19.482 -16.894 c -5.503 0 -22.797 18.511 -22.797 24.361 c 0 5.677 32.402 38.984 41.938 43.15 c 1.675 0.723 1.504 1.652 -0.581 3.234 c -3.726 2.753 -5.64 2.718 -12.03 -0.447" transform="matrix(0.11429 0 0 0.11353 -6.542 -0.316)" fill="#286c5b" stroke="#296f5b" stroke-width="2.027"/><path d="m 57.21 171.27 h 62.06 c 5.563 0 10.04 4.271 10.04 9.521 v 8.02 c 0 5.25 -4.479 9.521 -10.04 9.521 h -62.06 c -5.542 0 -10.02 -4.271 -10.02 -9.521 v -8.02 c 0 -5.25 4.479 -9.521 10.02 -9.521" transform="scale(0.1875)" fill="#b2b5b7" stroke="#5c5c5b" stroke-width="4.555"/><path d="m -25.519 -177.14 l 63.58 0.002 c 5.534 -0.003 10.02 1.734 10.03 3.877 c -0.012 2.153 -4.498 3.883 -10.03 3.886 l -63.57 0.017 c -5.544 -0.016 -10.03 -1.752 -10.04 -3.896 c -0.006 -2.144 4.498 -3.883 10.03 -3.886" transform="matrix(0.16724 -0.08478 -0.08795 -0.16559 0 0)" fill="#616160" stroke="#616160" stroke-width="2.464"/><g fill="#fff" stroke="#fff" transform="scale(0.1875)"><g stroke-width="3.124"><path d="m 139.6 193.04 h 61.08 v 2.417 h -61.08"/><path d="m 148.85 183.15 h 61.1 v 2.417 h -61.1"/></g><path d="m 108.69 179.42 h 8.646 c 1.021 0 1.854 0.833 1.854 1.854 c 0 1.021 -0.833 1.854 -1.854 1.854 h -8.646 c -1.021 0 -1.854 -0.833 -1.854 -1.854 c 0 -1.021 0.833 -1.854 1.854 -1.854" stroke-width="4.305"/></g></svg>