<svg xmlns="http://www.w3.org/2000/svg" viewBox="0 0 48 48"><path d="m 29.816 2.488 c 30.84 4.73 17.539 53.04 -12.363 44.32 c -28.379 -5.977 -17.945 -55.36 12.363 -44.32" fill="#8b7a60"/><path d="m 94.29 135.97 c 0.006 9.09 -10.484 16.476 -23.418 16.489 c -12.942 -0.002 -23.44 -7.395 -23.431 -16.493 c 0 -9.113 10.476 -16.49 23.418 -16.489 c 12.942 0.002 23.432 7.38 23.431 16.493" transform="matrix(0.21371 -0.10712 -0.11272 -0.21089 15.745 65.32)" fill="#d2d2d2" fill-rule="evenodd" stroke="#000"/><path d="m 4.066 20.531 c -0.027 0.195 0.012 0.406 0.094 0.477 c 0.078 0.066 2.535 0.871 5.457 1.789 c 2.922 0.918 5.363 1.754 5.422 1.855 c 0.074 0.133 -0.199 0.32 -0.902 0.633 c -0.844 0.371 -1 0.496 -0.957 0.77 c 0.035 0.191 0.215 0.344 0.434 0.375 c 0.207 0.023 0.445 0.16 0.523 0.301 c 0.105 0.18 0.395 0.156 1 -0.086 c 0.75 -0.301 0.879 -0.293 1.078 0.047 c 0.172 0.305 0.105 0.555 -0.324 1.164 c -0.457 0.648 -0.773 0.891 -1.852 1.43 c -0.719 0.359 -1.563 0.73 -1.875 0.824 c -0.512 0.156 -0.559 0.227 -0.434 0.648 c 0.078 0.262 0.281 0.609 0.457 0.77 c 0.258 0.242 0.375 0.23 0.66 -0.066 c 0.191 -0.195 0.957 -0.754 1.699 -1.234 c 1.02 -0.66 1.512 -0.883 2.02 -0.918 c 0.367 -0.023 0.75 -0.086 0.844 -0.141 c 0.094 -0.055 0.301 0.121 0.457 0.395 c 0.262 0.449 0.238 0.52 -0.254 0.801 c -0.738 0.426 -0.953 0.746 -0.746 1.102 c 0.098 0.168 0.098 0.441 0.004 0.605 c -0.105 0.184 -0.074 0.387 0.078 0.512 c 0.195 0.164 0.469 0.086 1.203 -0.336 c 0.52 -0.301 0.984 -0.484 1.027 -0.406 c 0.047 0.078 -0.543 2.414 -1.313 5.191 c -0.766 2.781 -1.34 5.238 -1.273 5.465 c 0.18 0.621 0.695 1.02 0.996 0.77 c 0.141 -0.117 1 -3.039 1.91 -6.484 l 1.656 -6.27 l 2.484 -1.41 l 2.484 -1.406 l 2.965 0.957 c 8.66 2.797 8.973 2.879 9.484 2.512 c 0.926 -0.668 0.367 -0.945 -5.965 -2.957 c -3.32 -1.055 -6.098 -1.973 -6.172 -2.039 c -0.074 -0.066 0.23 -0.402 0.676 -0.742 c 0.445 -0.34 0.773 -0.676 0.73 -0.75 c -0.203 -0.359 0.172 -0.965 0.832 -1.348 c 0.477 -0.273 0.785 -0.598 0.922 -0.969 c 0.191 -0.508 0.449 -0.699 2.789 -2.047 l 2.574 -1.484 l 0.848 1.469 c 1.137 1.969 1.469 2.234 2.234 1.789 c 1.258 -0.73 1.258 -0.668 0.004 -2.695 l -1.117 -1.809 l 2.141 -1.145 c 3.793 -2.027 3.992 -2.156 4.04 -2.637 c 0.055 -0.609 0.012 -0.641 -0.969 -0.742 l -0.875 -0.094 l -2.578 1.563 l -2.574 1.559 l -0.906 -1.57 c -0.535 -0.93 -0.879 -1.688 -0.836 -1.852 c 0.109 -0.453 -0.723 -0.34 -1.535 0.203 c -0.656 0.441 -0.699 0.523 -0.531 1.031 c 0.102 0.301 0.531 1.164 0.949 1.918 l 0.766 1.367 l -2.578 1.484 c -2.336 1.348 -2.629 1.477 -3.168 1.387 c -0.387 -0.063 -0.828 0.043 -1.289 0.309 c -0.516 0.297 -0.953 0.379 -1.672 0.313 c -0.539 -0.051 -1.18 0.023 -1.426 0.16 c -0.246 0.141 -0.461 0.176 -0.477 0.078 c -0.02 -0.098 0.68 -2.832 1.555 -6.082 c 1.543 -5.742 1.578 -5.918 1.199 -6.465 c -0.699 -1.016 -0.93 -0.613 -2.027 3.594 c -0.566 2.172 -1.328 5.082 -1.695 6.469 l -0.664 2.523 l -4.578 2.641 l -5.328 -1.695 c -2.926 -0.93 -5.715 -1.789 -6.188 -1.906 c -0.93 -0.227 -1.531 -0.027 -1.617 0.539 m 18.988 7.496 c 0.055 0.012 -0.234 0.215 -0.645 0.453 c -0.469 0.27 -0.742 0.344 -0.742 0.199 c 0.004 -0.199 1.102 -0.715 1.387 -0.652" fill="#313142"/><path d="m 4.484 20.363 c 0 0.125 1.414 0.668 3.145 1.203 c 7.07 2.18 9.121 2.844 9.48 3.078 c 0.398 0.258 2.793 0.531 2.844 0.324 c 0.055 -0.219 -0.473 -0.555 -0.68 -0.434 c -0.109 0.063 -0.426 -0.004 -0.703 -0.148 c -0.273 -0.148 -1.156 -0.453 -1.961 -0.68 c -0.801 -0.227 -3.691 -1.125 -6.418 -2 c -5.03 -1.609 -5.703 -1.766 -5.707 -1.344 m 19.512 -6.715 c -0.781 2.953 -1.602 6.03 -1.82 6.844 c -0.582 2.164 -0.715 2.93 -0.547 3.219 c 0.219 0.383 0.422 0.172 0.445 -0.465 c 0.027 -0.676 0.262 -0.855 0.523 -0.402 c 0.105 0.184 0.34 0.309 0.527 0.277 c 0.48 -0.082 1.402 0.164 1.551 0.418 c 0.066 0.117 -0.051 0.566 -0.266 0.992 c -0.215 0.43 -0.352 0.848 -0.305 0.93 c 0.047 0.082 0.371 0.199 0.719 0.254 c 0.527 0.09 0.75 0.016 1.285 -0.41 c 0.926 -0.738 0.941 -1.016 0.148 -2.555 c -0.98 -1.895 -1.262 -2.086 -2.363 -1.594 c -0.488 0.219 -0.973 0.539 -1.078 0.711 c -0.504 0.832 -0.242 -0.434 1.125 -5.508 c 1.891 -7 2.043 -7.645 1.863 -7.957 c -0.082 -0.141 -0.199 -0.227 -0.266 -0.188 c -0.066 0.039 -0.762 2.484 -1.543 5.438 m 8.766 0.098 c 0.023 0.152 0.426 0.891 0.891 1.637 l 0.844 1.355 l 0.473 -0.27 l 0.473 -0.273 l -0.902 -1.563 l -0.898 -1.563 l -0.465 0.199 c -0.281 0.121 -0.445 0.305 -0.414 0.477 m -16.203 12.449 c 0.414 0.719 0.41 0.75 -0.098 1.27 c -0.285 0.293 -0.523 0.648 -0.523 0.785 c -0.004 0.383 0.891 0.461 1.723 0.152 c 0.609 -0.227 0.715 -0.219 0.566 0.043 c -0.121 0.211 -0.07 0.523 0.145 0.891 c 0.316 0.551 0.344 0.559 0.957 0.203 c 0.344 -0.199 0.664 -0.301 0.707 -0.227 c 0.074 0.129 -0.75 3.465 -2.41 9.762 c -0.75 2.836 -0.828 3.422 -0.469 3.438 c 0.195 0.012 3.773 -12.992 3.855 -14.03 c 0.023 -0.254 0.09 -0.668 0.152 -0.922 c 0.063 -0.254 0.07 -0.535 0.02 -0.625 c -0.16 -0.281 -0.391 -0.02 -0.426 0.484 c -0.016 0.262 -0.152 0.68 -0.305 0.922 c -0.266 0.438 -0.277 0.434 -0.363 -0.066 c -0.117 -0.668 -0.422 -0.906 -0.844 -0.664 c -0.277 0.16 -0.328 0.133 -0.285 -0.148 c 0.078 -0.527 -0.422 -1.039 -1 -1.027 l -0.516 0.008 l 0.5 -0.223 c 0.414 -0.188 0.469 -0.297 0.328 -0.637 c -0.242 -0.594 -0.977 -0.789 -1.605 -0.426 c -0.52 0.297 -0.52 0.313 -0.102 1.035 m 3.438 -2.582 c -0.629 0.609 -0.375 0.738 0.422 0.215 c 0.488 -0.324 0.801 -0.645 0.77 -0.785 c -0.055 -0.25 -0.637 0.031 -1.191 0.57 m 6.01 -2.309 c 0.105 0.059 0.223 0.09 0.262 0.066 c 0.039 -0.02 0.027 -0.113 -0.027 -0.203 c -0.051 -0.09 -0.168 -0.121 -0.262 -0.07 c -0.09 0.055 -0.078 0.148 0.027 0.207 m 1.387 -0.582 c 0.137 0.48 -0.203 0.914 -0.691 0.887 c -0.531 -0.031 -0.531 0.164 0 1.082 c 0.461 0.801 0.891 0.969 0.586 0.227 c -0.117 -0.293 -0.055 -0.457 0.234 -0.625 c 0.254 -0.148 0.52 -0.129 0.762 0.055 c 0.203 0.152 0.426 0.246 0.496 0.203 c 0.266 -0.152 0.688 -1.613 0.539 -1.867 c -0.133 -0.23 -1.684 -0.539 -1.941 -0.391 c -0.051 0.031 -0.043 0.223 0.016 0.43 m -7.05 4.555 c -0.047 0.672 0.105 0.898 0.711 1.074 c 0.684 0.199 1.125 -0.098 1.281 -0.859 c 0.129 -0.633 0.133 -0.633 0.441 -0.344 c 0.258 0.242 0.387 0.23 0.715 -0.063 c 0.453 -0.406 0.922 -1.281 0.797 -1.496 c -0.121 -0.211 -1.246 -0.137 -1.676 0.113 c -0.234 0.133 -0.363 0.395 -0.336 0.688 l 0.039 0.469 l -0.309 -0.297 c -0.535 -0.52 -1.613 -0.055 -1.664 0.715 m -1.273 0.891 c 0.012 0.277 0.094 0.418 0.238 0.426 c 0.32 0.016 0.438 -0.332 0.227 -0.691 c -0.234 -0.414 -0.492 -0.266 -0.465 0.266 m 13.164 -7.625 c -2.48 1.488 -2.602 1.582 -2.422 1.891 c 0.18 0.313 0.305 0.258 3.324 -1.484 c 3 -1.73 3.574 -2.188 2.938 -2.34 c -0.352 -0.086 -1.113 0.297 -3.84 1.934 m 4.484 -2.297 c 0 0.133 0.168 0.293 0.379 0.352 c 0.48 0.141 0.926 -0.332 0.785 -0.832 c -0.09 -0.313 -0.188 -0.324 -0.633 -0.066 c -0.289 0.168 -0.527 0.414 -0.531 0.547 m 1.59 -0.719 c 0.313 0.539 1.359 -0.219 1.148 -0.828 c -0.051 -0.152 -0.289 -0.105 -0.707 0.137 c -0.523 0.301 -0.598 0.418 -0.441 0.691 m -26.09 15.15 c 0.16 0.273 0.195 0.27 0.465 -0.074 c 0.223 -0.281 -0.047 -0.496 -0.379 -0.305 c -0.125 0.07 -0.164 0.242 -0.086 0.379 m 23.258 -12.43 c -0.07 0.137 0.207 0.727 0.781 1.652 l 0.891 1.441 l 0.945 -0.547 l -0.82 -1.523 c -0.809 -1.508 -0.828 -1.527 -1.254 -1.383 c -0.238 0.082 -0.484 0.242 -0.543 0.359 m -12.754 7.727 c 0.035 0.059 0.426 0.203 0.867 0.32 c 0.441 0.117 3.746 1.156 7.344 2.309 c 5.93 1.906 7.07 2.219 7.383 2.035 c 0.344 -0.199 -0.91 -0.668 -6.156 -2.297 c -3.238 -1 -6.301 -2.01 -6.809 -2.227 c -0.508 -0.219 -1.012 -0.348 -1.121 -0.285 c -0.109 0.066 -0.414 0.043 -0.672 -0.047 c -0.457 -0.16 -0.969 -0.043 -0.836 0.191 m -1.055 1.566 c 0.164 0.047 0.652 -0.066 1.09 -0.254 c 0.629 -0.27 0.75 -0.379 0.586 -0.527 c -0.133 -0.125 -0.512 -0.035 -1.086 0.254 c -0.676 0.336 -0.813 0.461 -0.59 0.527"/></svg>