<svg xmlns="http://www.w3.org/2000/svg" viewBox="0 0 48 48" xmlns:xlink="http://www.w3.org/1999/xlink"><path d="m 24.12 47.66 c -31.828 3.605 -31.387 -48.01 0.566 -47.4 c 29.715 -1.699 32.398 50.21 -0.566 47.4" fill="#f8f8ff"/><path d="m 17.914 35.578 c -0.48 -0.469 -0.703 -0.918 -0.703 -1.422 c 0 -1.01 1.129 -2.109 2.164 -2.109 c 0.52 0 0.984 0.219 1.465 0.684 c 0.895 0.875 0.922 1.836 0.078 2.813 c -0.848 0.98 -2.02 0.996 -3 0.035 m 5.05 0 c -0.879 -0.855 -0.922 -1.848 -0.125 -2.75 c 0.461 -0.523 0.777 -0.652 1.59 -0.652 c 1.926 0 2.801 1.91 1.543 3.367 c -0.852 0.98 -2.02 0.996 -3.01 0.035 m 10.188 0.293 c -0.371 -0.145 -0.398 -1.063 -0.043 -1.406 c 0.188 -0.184 0.176 -0.387 -0.035 -0.719 c -0.582 -0.902 0.402 -1.699 1.172 -0.949 c 0.223 0.219 0.352 0.219 0.578 0 c 0.418 -0.406 1.316 -0.344 1.496 0.102 c 0.082 0.215 -0.023 0.574 -0.242 0.809 c -0.352 0.379 -0.355 0.469 -0.016 0.938 c 0.27 0.375 0.309 0.641 0.137 0.953 c -0.293 0.531 -0.652 0.547 -1.227 0.043 c -0.406 -0.359 -0.469 -0.359 -0.879 0 c -0.469 0.41 -0.48 0.414 -0.941 0.23 m 1.965 -1.293 c 0.336 -0.465 0.332 -0.555 -0.031 -0.945 c -0.391 -0.422 -0.414 -0.418 -0.859 0.016 c -0.379 0.367 -0.414 0.539 -0.188 0.945 c 0.348 0.633 0.613 0.629 1.078 -0.016 m -12.05 -3.793 c -0.531 -0.445 -0.668 -0.762 -0.668 -1.523 c 0 -1.305 0.719 -2 2.059 -2 c 1.957 0 2.824 2.051 1.438 3.402 c -0.883 0.855 -1.898 0.902 -2.828 0.125 m 10.07 -1.828 c -0.77 -0.75 0.047 -1.707 0.973 -1.145 c 0.344 0.211 0.551 0.219 0.738 0.039 c 0.711 -0.691 1.973 0.09 1.344 0.828 c -0.359 0.422 -0.805 0.41 -1.184 -0.035 c -0.273 -0.32 -0.367 -0.309 -0.828 0.117 c -0.609 0.555 -0.66 0.566 -1.043 0.195 m -10.07 -3.09 c -0.531 -0.445 -0.668 -0.762 -0.668 -1.523 c 0 -1.305 0.719 -2 2.059 -2 c 1.957 0 2.824 2.051 1.438 3.402 c -0.883 0.855 -1.898 0.898 -2.828 0.125 m 5.05 0 c -0.875 -0.738 -0.941 -2.215 -0.133 -3 c 0.813 -0.789 2.332 -0.727 3.09 0.129 c 0.797 0.902 0.75 1.895 -0.129 2.75 c -0.879 0.855 -1.898 0.902 -2.828 0.125 m -14.332 0.137 c -1.254 -0.145 -1.82 -1.813 -0.961 -2.844 c 0.609 -0.734 2.387 -0.742 2.992 -0.016 c 0.527 0.633 0.559 1.598 0.082 2.266 c -0.379 0.523 -1.051 0.715 -2.109 0.594 m 4.227 -0.414 c -0.516 -0.504 -0.598 -0.746 -0.477 -1.465 c 0.25 -1.539 1.863 -2.188 3.07 -1.238 c 0.793 0.629 0.793 2.234 0 2.863 c -0.801 0.629 -1.852 0.563 -2.594 -0.16 m 14.93 -1.84 c -0.242 -0.609 0.094 -1.109 0.688 -1.027 c 0.395 0.055 0.539 0.23 0.539 0.66 c 0 0.43 -0.145 0.605 -0.539 0.66 c -0.328 0.043 -0.602 -0.074 -0.688 -0.293 m -15.03 -2.926 c -0.48 -0.469 -0.703 -0.918 -0.703 -1.422 c 0 -1.01 1.129 -2.109 2.164 -2.109 c 1.035 0 2.168 1.102 2.168 2.109 c 0 1 -1.133 2.105 -2.168 2.105 c -0.516 0 -0.98 -0.215 -1.461 -0.684 m 5.05 0 c -1.305 -1.27 -0.609 -3.16 1.273 -3.449 c 0.77 -0.121 0.988 -0.043 1.621 0.574 c 0.977 0.949 0.988 1.941 0.031 2.875 c -0.48 0.469 -0.945 0.684 -1.461 0.684 c -0.52 0 -0.984 -0.215 -1.465 -0.684 m 5.152 0.125 c -0.531 -0.445 -0.672 -0.762 -0.672 -1.523 c 0 -1.176 0.617 -1.855 1.859 -2.051 c 0.754 -0.121 0.977 -0.039 1.609 0.574 c 0.977 0.949 0.984 1.941 0.027 2.875 c -0.879 0.855 -1.898 0.902 -2.824 0.125 m 4.816 -2.133 c -0.336 -0.859 0.633 -1.434 1.309 -0.773 c 0.227 0.219 0.355 0.219 0.578 0 c 0.734 -0.715 2.02 0.039 1.371 0.801 c -0.359 0.422 -0.805 0.41 -1.184 -0.035 c -0.273 -0.32 -0.348 -0.32 -0.711 0 c -0.516 0.457 -1.184 0.461 -1.363 0.008 m -20.07 -2.91 c -0.48 -0.469 -0.703 -0.918 -0.703 -1.422 c 0 -1.01 1.133 -2.109 2.164 -2.109 c 1.035 0 2.168 1.102 2.168 2.109 c 0 1 -1.133 2.105 -2.168 2.105 c -0.516 0 -0.98 -0.219 -1.461 -0.684 m 5.05 0 c -0.48 -0.469 -0.703 -0.918 -0.703 -1.422 c 0 -1.01 1.129 -2.109 2.164 -2.109 c 1.035 0 2.164 1.102 2.164 2.109 c 0 1 -1.129 2.105 -2.164 2.105 c -0.52 0 -0.984 -0.219 -1.461 -0.684" fill="#e22f20"/><path d="m 17.914 35.578 c -0.48 -0.469 -0.703 -0.918 -0.703 -1.422 c 0 -1.01 1.129 -2.109 2.164 -2.109 c 0.52 0 0.984 0.219 1.465 0.684 c 0.895 0.875 0.922 1.836 0.078 2.813 c -0.848 0.98 -2.02 0.996 -3 0.035 m 15.238 0.293 c -0.371 -0.145 -0.398 -1.063 -0.043 -1.406 c 0.188 -0.184 0.176 -0.387 -0.035 -0.719 c -0.582 -0.902 0.402 -1.699 1.172 -0.949 c 0.223 0.219 0.352 0.219 0.578 0 c 0.418 -0.406 1.316 -0.344 1.496 0.102 c 0.082 0.215 -0.023 0.574 -0.242 0.809 c -0.352 0.379 -0.355 0.469 -0.016 0.938 c 0.27 0.375 0.309 0.641 0.137 0.953 c -0.293 0.531 -0.652 0.547 -1.227 0.043 c -0.406 -0.359 -0.469 -0.359 -0.879 0 c -0.469 0.41 -0.48 0.414 -0.941 0.23 m 1.965 -1.293 c 0.336 -0.465 0.332 -0.555 -0.031 -0.945 c -0.391 -0.422 -0.414 -0.418 -0.859 0.016 c -0.379 0.367 -0.414 0.539 -0.188 0.945 c 0.348 0.633 0.613 0.629 1.078 -0.016 m -1.977 -5.625 c -0.77 -0.746 0.047 -1.703 0.973 -1.141 c 0.344 0.207 0.551 0.219 0.738 0.039 c 0.711 -0.695 1.973 0.086 1.34 0.828 c -0.359 0.422 -0.805 0.406 -1.184 -0.039 c -0.27 -0.316 -0.363 -0.305 -0.824 0.117 c -0.609 0.559 -0.664 0.566 -1.043 0.195 m -0.195 -5.203 c -0.242 -0.609 0.094 -1.109 0.688 -1.031 c 0.395 0.059 0.539 0.234 0.539 0.664 c 0 0.426 -0.145 0.605 -0.539 0.66 c -0.328 0.043 -0.602 -0.074 -0.688 -0.293 m -15.03 -2.926 c -0.48 -0.469 -0.703 -0.922 -0.703 -1.426 c 0 -1.01 1.129 -2.105 2.164 -2.105 c 1.035 0 2.168 1.098 2.168 2.105 c 0 1.01 -1.133 2.109 -2.168 2.109 c -0.516 0 -0.98 -0.219 -1.461 -0.684 m 15.02 -2.01 c -0.34 -0.855 0.633 -1.43 1.309 -0.77 c 0.223 0.219 0.352 0.219 0.578 0 c 0.73 -0.715 2.02 0.039 1.367 0.801 c -0.359 0.422 -0.805 0.406 -1.18 -0.035 c -0.273 -0.32 -0.348 -0.32 -0.711 0 c -0.52 0.457 -1.188 0.457 -1.363 0.004" fill="#21e021"/><path d="m 33.15 35.875 c -0.371 -0.145 -0.395 -1.063 -0.039 -1.41 c 0.184 -0.18 0.176 -0.383 -0.039 -0.719 c -0.578 -0.902 0.402 -1.695 1.172 -0.949 c 0.227 0.219 0.355 0.219 0.578 0 c 0.418 -0.406 1.32 -0.344 1.496 0.105 c 0.086 0.215 -0.02 0.57 -0.238 0.805 c -0.355 0.383 -0.355 0.469 -0.02 0.941 c 0.273 0.375 0.309 0.637 0.137 0.949 c -0.293 0.535 -0.652 0.547 -1.223 0.043 c -0.41 -0.359 -0.473 -0.359 -0.883 0 c -0.465 0.414 -0.477 0.418 -0.941 0.234 m 1.965 -1.297 c 0.336 -0.465 0.332 -0.555 -0.031 -0.945 c -0.387 -0.418 -0.414 -0.418 -0.859 0.02 c -0.379 0.363 -0.41 0.535 -0.188 0.945 c 0.348 0.629 0.617 0.625 1.078 -0.02 m -1.977 -5.621 c -0.77 -0.75 0.047 -1.707 0.973 -1.141 c 0.344 0.207 0.555 0.219 0.738 0.035 c 0.711 -0.691 1.977 0.09 1.344 0.832 c -0.359 0.422 -0.805 0.406 -1.184 -0.039 c -0.273 -0.32 -0.363 -0.305 -0.828 0.117 c -0.609 0.559 -0.66 0.566 -1.043 0.195 m -0.195 -5.207 c -0.238 -0.605 0.098 -1.109 0.688 -1.027 c 0.398 0.055 0.543 0.23 0.543 0.66 c 0 0.43 -0.145 0.605 -0.543 0.66 c -0.324 0.047 -0.602 -0.07 -0.688 -0.293 m -0.008 -4.934 c -0.336 -0.855 0.633 -1.43 1.309 -0.773 c 0.227 0.219 0.355 0.219 0.578 0 c 0.734 -0.711 2.02 0.043 1.371 0.805 c -0.359 0.418 -0.805 0.406 -1.184 -0.039 c -0.273 -0.316 -0.348 -0.316 -0.711 0 c -0.516 0.457 -1.184 0.461 -1.363 0.008" fill="#4f4e4c"/><g stroke-opacity="0.012" fill-rule="evenodd" stroke="#000"><g fill="#8b47a3"><path d="m 164.67 181.26 c 0.036 3.093 -1.756 5.973 -4.696 7.544 c -2.939 1.555 -6.559 1.555 -9.499 0 c -2.939 -1.571 -4.731 -4.451 -4.696 -7.544 c -0.036 -3.109 1.756 -5.989 4.696 -7.544 c 2.939 -1.555 6.559 -1.555 9.499 0 c 2.939 1.555 4.731 4.435 4.696 7.544" transform="matrix(0.21796 0 0 0.23872 -4.309 -9.439)"/><path d="m 164.67 181.26 c 0.037 3.108 -1.752 5.986 -4.691 7.54 c -2.939 1.554 -6.572 1.554 -9.492 0 c -2.939 -1.554 -4.728 -4.432 -4.71 -7.54 c -0.018 -3.108 1.771 -5.986 4.71 -7.54 c 2.921 -1.554 6.553 -1.554 9.492 0 c 2.939 1.554 4.728 4.432 4.691 7.54" transform="matrix(0.21399 0 0 0.23884 -3.655 -14.233)"/></g><g fill="#ff8c00"><path d="m 164.66 181.27 c 0.034 3.092 -1.753 5.982 -4.68 7.536 c -2.944 1.554 -6.569 1.554 -9.513 0 c -2.927 -1.554 -4.731 -4.444 -4.697 -7.536 c -0.034 -3.108 1.77 -5.982 4.697 -7.551 c 2.944 -1.554 6.569 -1.554 9.513 0 c 2.927 1.569 4.714 4.444 4.68 7.551" transform="matrix(0.22955 0 0 0.25141 -16.388 -21.248)"/><path d="m 164.66 181.26 c 0.036 3.103 -1.759 5.973 -4.684 7.541 c -2.943 1.552 -6.569 1.552 -9.512 0 c -2.926 -1.567 -4.72 -4.437 -4.684 -7.541 c -0.036 -3.103 1.759 -5.989 4.684 -7.541 c 2.943 -1.567 6.569 -1.567 9.512 0 c 2.926 1.552 4.72 4.437 4.684 7.541" transform="matrix(0.21764 0 0 0.25176 -19.506 -21.311)"/></g><g fill="#ff0"><path d="m 164.67 181.26 c 0.036 3.095 -1.758 5.984 -4.7 7.531 c -2.924 1.563 -6.566 1.563 -9.49 0 c -2.942 -1.547 -4.736 -4.437 -4.7 -7.531 c -0.036 -3.11 1.758 -5.984 4.7 -7.547 c 2.924 -1.563 6.566 -1.563 9.49 0 c 2.942 1.563 4.736 4.437 4.7 7.547" transform="matrix(0.21775 0 0 0.24741 -19.521 -10.937)"/><path d="m 164.67 181.27 c 0.034 3.099 -1.769 5.977 -4.695 7.542 c -2.943 1.549 -6.566 1.549 -9.508 0 c -2.926 -1.565 -4.729 -4.443 -4.695 -7.542 c -0.034 -3.115 1.769 -5.992 4.695 -7.542 c 2.943 -1.565 6.566 -1.565 9.508 0 c 2.926 1.549 4.729 4.427 4.695 7.542" transform="matrix(0.22965 0 0 0.24706 -16.326 -15.878)"/><path d="m 164.68 181.26 c 0.035 3.106 -1.766 5.979 -4.693 7.548 c -2.944 1.553 -6.58 1.553 -9.507 0 c -2.944 -1.569 -4.727 -4.442 -4.693 -7.548 c -0.035 -3.106 1.749 -5.979 4.693 -7.532 c 2.927 -1.569 6.563 -1.569 9.507 0 c 2.927 1.553 4.727 4.426 4.693 7.532" transform="matrix(0.22558 0 0 0.25153 -10.573 -31.431)"/><path d="m 164.67 181.27 c 0.035 3.091 -1.766 5.979 -4.693 7.532 c -2.944 1.569 -6.563 1.569 -9.507 0 c -2.944 -1.553 -4.727 -4.442 -4.693 -7.532 c -0.035 -3.106 1.749 -5.979 4.693 -7.548 c 2.944 -1.553 6.563 -1.553 9.507 0 c 2.927 1.569 4.727 4.442 4.693 7.548" transform="matrix(0.22558 0 0 0.25153 -5.569 -31.29)"/></g></g><path d="m 164.67 181.26 c 0.034 3.101 -1.754 5.987 -4.699 7.545 c -2.928 1.558 -6.555 1.558 -9.5 0 c -2.928 -1.558 -4.716 -4.445 -4.682 -7.545 c -0.034 -3.101 1.754 -5.987 4.682 -7.545 c 2.945 -1.558 6.572 -1.558 9.5 0 c 2.945 1.558 4.733 4.445 4.699 7.545" transform="matrix(0.22944 0 0 0.25575 -21.14 -17.378)" stroke-opacity="0.012" fill="#5335cd" fill-rule="evenodd" stroke="#000" id="0"/><use transform="translate(-0.231 -9.469)" xlink:href="#0"/></svg>