<svg xmlns="http://www.w3.org/2000/svg" viewBox="0 0 48 48"><path d="m 23.574 0.414 c -20.984 -4.191 -28.953 24.551 -19.859 40.16 c 7.246 12.438 32.07 8.883 41.32 -7.906 c 9.25 -16.789 -4.617 -28.891 -21.461 -32.25" fill="#b1a986"/><path d="m 147.1 91.35 l -82.58 35.35 l 85.23 42.688" transform="scale(0.1875)" fill="none" stroke="#d7d4c1" stroke-width="16"/><g fill="#fff"><path d="m 31.746 17.13 c 0 2.301 -1.863 4.168 -4.164 4.168 c -2.301 0 -4.168 -1.867 -4.168 -4.168 c 0 -2.301 1.867 -4.164 4.168 -4.164 c 2.301 0 4.164 1.863 4.164 4.164"/><path d="m 32.24 31.762 c 0 2.301 -1.863 4.164 -4.164 4.164 c -2.301 0 -4.168 -1.863 -4.168 -4.164 c 0 -2.301 1.867 -4.168 4.168 -4.168 c 2.301 0 4.164 1.867 4.164 4.168"/><path d="m 16.266 23.758 c 0 2.301 -1.867 4.164 -4.168 4.164 c -2.301 0 -4.164 -1.863 -4.164 -4.164 c 0 -2.305 1.863 -4.168 4.164 -4.168 c 2.301 0 4.168 1.867 4.168 4.168"/></g></svg>