<svg xmlns="http://www.w3.org/2000/svg" viewBox="0 0 48 48"><g fill="#ff4500"><path d="m 31.699 16.73 c 0 2.289 -1.844 4.148 -4.113 4.148 c -2.273 0 -4.113 -1.859 -4.113 -4.148 c 0 -2.293 1.84 -4.148 4.113 -4.148 c 2.27 0 4.113 1.855 4.113 4.148"/><path d="m 32.19 31.3 c 0 2.293 -1.844 4.148 -4.113 4.148 c -2.273 0 -4.113 -1.859 -4.113 -4.148 c 0 -2.293 1.844 -4.148 4.113 -4.148 c 2.273 0 4.113 1.859 4.113 4.148"/><path d="m 16.414 23.332 c 0 2.289 -1.844 4.148 -4.113 4.148 c -2.273 0 -4.113 -1.859 -4.113 -4.148 c 0 -2.293 1.84 -4.148 4.113 -4.148 c 2.27 0 4.113 1.855 4.113 4.148"/></g><path d="m 5.03 9.965 c -23.688 35.648 51.848 57.61 41.848 11.52 c -4.262 -19.04 -30.988 -30.602 -41.848 -11.52" fill="#dcdcdc"/><g stroke="#000" transform="matrix(0.51289 0 0 0.51617 -519.92 81.915)"><path d="m 1053.46 -124.59 h -18.622 l -0.548 7.136 h 0.579 c 0.419 -5.358 0.876 -6.296 5.842 -6.296 c 0.579 0 1.516 0 1.782 0.03 c 0.609 0.098 0.609 0.484 0.609 1.226 v 17.497 c 0 1.158 -0.091 1.514 -2.78 1.514 h -0.906 v 0.848 c 1.561 -0.03 3.168 -0.061 4.753 -0.061 c 1.577 0 3.199 0.03 4.745 0.061 v -0.848 h -0.906 c -2.681 0 -2.78 -0.356 -2.78 -1.514 v -17.497 c 0 -0.704 0 -1.097 0.594 -1.226 c 0.251 -0.03 1.188 -0.03 1.767 -0.03 c 4.935 0 5.423 0.938 5.842 6.296 h 0.579"/><path d="m 1068.6 -102.99 h -0.579 c -0.716 4.753 -1.12 7.326 -6.809 7.326 h -4.486 c -1.295 0 -1.356 -0.151 -1.356 -1.249 v -8.922 h 3.03 c 3.046 0 3.321 1.112 3.321 3.784 h 0.579 v -8.393 h -0.579 c 0 2.687 -0.274 3.784 -3.321 3.784 h -3.03 v -8.05 c 0 -1.097 0.061 -1.249 1.356 -1.249 h 4.425 c 4.996 0 5.575 1.998 6.02 6.296 h 0.579 l -0.762 -7.144 h -16.344 v 0.848 c 2.232 0 2.59 0 2.59 1.453 v 17.391 c 0 1.453 -0.358 1.453 -2.59 1.453 v 0.84 h 16.794"/><path d="m 1077.98 -114.87 l 4.775 -6.871 c 0.487 -0.689 1.455 -2.066 4.098 -2.096 v -0.84 c -0.731 0.061 -1.965 0.061 -2.734 0.061 c -1.066 0 -2.391 0 -3.199 -0.061 v 0.84 c 1.028 0.091 1.295 0.734 1.295 1.249 c 0 0.394 -0.175 0.658 -0.396 0.969 l -4.265 6.175 l -4.775 -6.985 c -0.221 -0.356 -0.251 -0.454 -0.251 -0.545 c 0 -0.28 0.358 -0.832 1.417 -0.863 v -0.84 c -1.028 0.061 -2.605 0.061 -3.686 0.061 c -0.823 0 -2.452 0 -3.214 -0.061 v 0.84 c 1.759 0 2.353 0.068 3.062 1.052 l 6.23 9.104 l -5.621 8.173 c -1.394 1.998 -3.488 2.028 -4.098 2.028 v 0.848 c 0.731 -0.061 1.973 -0.061 2.734 -0.061 c 0.876 0 2.391 0 3.206 0.061 v -0.848 c -1.01 -0.091 -1.302 -0.734 -1.302 -1.249 c 0 -0.416 0.175 -0.651 0.327 -0.87 l 5.171 -7.5 l 5.613 8.203 c 0.267 0.356 0.267 0.446 0.267 0.56 c 0 0.25 -0.297 0.795 -1.424 0.855 v 0.848 c 1.028 -0.061 2.612 -0.061 3.671 -0.061 c 0.845 0 2.468 0 3.237 0.061 v -0.848 c -2.064 0 -2.391 -0.151 -3.03 -1.059"/></g></svg>