<svg xmlns="http://www.w3.org/2000/svg" viewBox="0 0 48 48"><path d="m 0.609 29.492 c 9.371 44.984 73.848 -3.305 35.12 -26.17 c -15.05 -9.801 -39.938 3.039 -35.12 26.17" fill="#bcb76a"/><g fill="#007f00"><path d="m 9.645 20.848 c 0.039 -0.195 0.137 -0.809 0.223 -1.363 c 0.176 -1.117 0.379 -1.25 0.527 -0.34 c 0.105 0.625 0.375 1.059 0.902 1.461 c 0.492 0.379 1.535 0.363 2.074 -0.027 c 0.453 -0.332 0.742 -1.102 0.613 -1.629 c -0.105 -0.426 -0.77 -1.184 -1.648 -1.875 c -1.672 -1.32 -1.914 -2.855 -0.629 -4.01 c 0.234 -0.211 0.66 -0.457 0.945 -0.543 c 0.52 -0.16 0.547 -0.156 2.555 0.238 c 0.234 0.047 0.434 -0.008 0.602 -0.16 c 0.137 -0.129 0.273 -0.203 0.309 -0.168 c 0.117 0.117 -0.387 2.352 -0.539 2.402 c -0.094 0.031 -0.156 -0.07 -0.16 -0.25 c -0.004 -0.453 -0.434 -1.336 -0.77 -1.574 c -0.375 -0.27 -1.477 -0.281 -1.844 -0.02 c -0.148 0.109 -0.336 0.398 -0.414 0.648 c -0.219 0.668 0.016 1.25 0.734 1.832 c 1.715 1.387 2.297 2.203 2.297 3.207 c 0 1.906 -1.801 2.941 -4.04 2.328 c -0.891 -0.246 -1.344 -0.246 -1.438 0 c -0.129 0.348 -0.367 0.219 -0.297 -0.16"/><path d="m 25.02 21.07 c -0.598 -0.105 -1.18 -0.543 -1.379 -1.035 c -0.219 -0.539 -0.098 -1.754 0.246 -2.441 c 0.41 -0.824 1.211 -1.645 1.98 -2.027 c 1.273 -0.637 2.719 -0.199 3.086 0.934 c 0.426 1.324 -0.609 3.5 -2.023 4.246 c -0.523 0.277 -1.359 0.418 -1.91 0.324 m 1 -0.313 c 0.641 -0.34 1.328 -2.043 1.602 -3.984 c 0.176 -1.246 -0.672 -1.703 -1.457 -0.789 c -1.012 1.18 -1.633 4.066 -1.012 4.699 c 0.301 0.309 0.406 0.316 0.867 0.074"/><path d="m 30.672 19.04 c -0.094 -2.617 -0.137 -2.832 -0.633 -3.141 c -0.266 -0.164 -0.328 -0.258 -0.203 -0.297 c 0.391 -0.125 1.68 -0.34 1.73 -0.289 c 0.121 0.125 0.281 1.121 0.363 2.238 c 0.043 0.656 0.121 1.164 0.172 1.133 c 0.051 -0.031 0.504 -0.785 1.012 -1.68 c 0.879 -1.547 1.086 -1.84 1.207 -1.715 c 0.051 0.051 0.434 3.527 0.434 3.926 c 0 0.352 0.23 0.172 0.875 -0.68 c 0.813 -1.078 0.891 -1.371 0.535 -2 c -0.332 -0.59 -0.34 -0.781 -0.039 -1.059 c 0.469 -0.434 1.16 -0.094 1.156 0.574 c 0 0.477 -0.52 1.504 -1.273 2.527 c -0.73 0.988 -2.219 2.633 -2.383 2.633 c -0.059 0 -0.145 -0.676 -0.195 -1.496 c -0.047 -0.82 -0.129 -1.645 -0.176 -1.828 c -0.082 -0.313 -0.125 -0.273 -0.641 0.621 c -0.77 1.336 -1.664 2.703 -1.773 2.703 c -0.051 0 -0.129 -0.977 -0.168 -2.168"/><path d="m 30.629 33.516 c 0.039 -0.195 0.102 -0.633 0.145 -0.973 c 0.047 -0.336 0.133 -0.613 0.195 -0.613 c 0.063 0 0.18 0.238 0.266 0.527 c 0.156 0.531 0.734 1.152 1.074 1.152 c 0.289 0 0.656 -0.234 0.801 -0.512 c 0.18 -0.34 -0.02 -0.832 -0.66 -1.605 c -0.668 -0.813 -0.98 -1.445 -0.98 -1.988 c 0 -1.16 0.898 -1.742 2.227 -1.438 c 0.563 0.129 0.758 0.129 0.957 0 c 0.141 -0.09 0.27 -0.141 0.289 -0.121 c 0.086 0.102 -0.227 1.789 -0.328 1.789 c -0.066 0 -0.172 -0.16 -0.242 -0.355 c -0.242 -0.688 -0.414 -0.926 -0.738 -1.043 c -0.656 -0.234 -1.266 0.301 -1.039 0.906 c 0.063 0.164 0.344 0.602 0.629 0.973 c 0.801 1.035 1.027 1.48 1.027 2.02 c 0 0.664 -0.379 1.176 -1.074 1.449 c -0.5 0.195 -0.66 0.199 -1.332 0.055 c -0.578 -0.125 -0.801 -0.129 -0.91 -0.016 c -0.246 0.25 -0.371 0.164 -0.305 -0.207"/><path d="m 24.813 36.18 c -0.359 -0.133 -0.539 -0.5 -0.414 -0.844 c 0.152 -0.41 0.441 -0.457 1.141 -0.176 c 0.734 0.297 0.941 0.234 1.441 -0.438 c 0.422 -0.563 0.418 -1.273 -0.004 -3.328 c -0.41 -1.988 -0.676 -2.727 -1.039 -2.891 c -0.152 -0.07 -0.281 -0.16 -0.281 -0.203 c 0 -0.039 0.43 -0.129 0.953 -0.195 l 0.953 -0.125 l 0.188 0.648 c 0.105 0.355 0.309 1.289 0.449 2.07 c 0.145 0.781 0.293 1.508 0.328 1.613 c 0.086 0.262 1.176 -2.01 1.176 -2.457 c 0 -0.195 -0.137 -0.469 -0.324 -0.648 c -0.414 -0.398 -0.371 -0.883 0.098 -1.152 c 0.328 -0.188 0.363 -0.18 0.688 0.148 c 0.332 0.34 0.336 0.371 0.188 1.027 c -0.195 0.863 -1.086 2.793 -1.848 4 c -1.289 2.035 -2.84 3.273 -3.691 2.949"/><path d="m 21.293 33.688 c -0.215 -0.094 -0.539 -0.359 -0.727 -0.586 c -0.91 -1.105 -0.012 -3.594 1.668 -4.625 c 0.852 -0.52 1.574 -0.645 2.203 -0.375 c 0.879 0.375 0.891 1.199 0.031 2.078 c -0.504 0.516 -1.094 0.813 -2.191 1.102 c -0.523 0.141 -0.535 0.152 -0.535 0.691 c 0 0.781 0.27 1.121 0.895 1.121 c 0.406 0 0.602 -0.094 1.055 -0.523 c 0.695 -0.656 0.852 -0.477 0.23 0.266 c -0.762 0.91 -1.77 1.234 -2.629 0.852 m 1.746 -3.129 c 0.629 -0.418 0.977 -1.016 0.977 -1.684 c 0 -0.598 -0.191 -0.758 -0.684 -0.57 c -0.488 0.191 -0.887 0.863 -1.289 2.184 l -0.172 0.563 l 0.344 -0.086 c 0.191 -0.047 0.563 -0.227 0.824 -0.406"/><path d="m 11.641 34.15 c 0 -0.051 0.148 -0.145 0.336 -0.207 c 0.215 -0.07 0.391 -0.219 0.492 -0.418 c 0.168 -0.336 1.816 -6.242 1.848 -6.629 c 0.043 -0.52 0.008 -0.578 -0.43 -0.695 c -0.238 -0.066 -0.43 -0.176 -0.43 -0.246 c 0 -0.098 0.422 -0.125 1.957 -0.125 c 1.598 0 1.961 0.023 1.961 0.133 c 0 0.082 -0.148 0.16 -0.363 0.195 c -0.59 0.094 -0.746 0.363 -1.23 2.102 c -0.242 0.871 -0.414 1.609 -0.383 1.641 c 0.074 0.078 2.258 -1.828 2.965 -2.59 c 0.645 -0.699 0.691 -0.98 0.184 -1.137 c -0.172 -0.051 -0.313 -0.148 -0.313 -0.219 c 0 -0.098 0.301 -0.125 1.293 -0.125 c 1.445 0 1.605 0.09 0.828 0.461 c -0.352 0.168 -2.504 1.977 -3.355 2.816 c -0.156 0.156 -0.047 0.434 1.238 3.102 c 0.715 1.484 0.816 1.648 1.109 1.754 c 0.176 0.066 0.32 0.156 0.32 0.199 c 0 0.043 -0.793 0.078 -1.766 0.078 c -0.973 0 -1.77 -0.035 -1.77 -0.078 c 0 -0.047 0.184 -0.121 0.406 -0.172 c 0.316 -0.074 0.414 -0.141 0.438 -0.316 c 0.027 -0.211 -1.492 -3.629 -1.621 -3.637 c -0.082 -0.004 -0.945 3.148 -0.945 3.449 c 0 0.289 0.137 0.414 0.551 0.504 c 0.738 0.16 0.211 0.25 -1.504 0.25 c -1.047 0 -1.816 -0.039 -1.816 -0.09"/><path d="m 20.1 21.04 c -0.586 -0.242 -0.559 -0.895 0.137 -2.98 c 0.516 -1.551 0.574 -1.883 0.34 -1.977 c -0.715 -0.281 -2.102 1.727 -2.773 4.02 l -0.277 0.938 h -1.477 l 0.133 -0.465 c 0.34 -1.184 1.855 -6.758 1.91 -7.04 c 0.094 -0.461 -0.078 -0.715 -0.48 -0.715 c -0.367 0 -0.449 -0.168 -0.113 -0.234 c 0.516 -0.098 2.32 -0.332 2.348 -0.305 c 0.027 0.031 -0.852 3.512 -1.18 4.672 c -0.07 0.254 -0.102 0.465 -0.066 0.465 c 0.039 0 0.301 -0.309 0.59 -0.684 c 0.551 -0.727 1.078 -1.211 1.488 -1.371 c 0.43 -0.168 1.074 -0.121 1.285 0.098 c 0.418 0.426 0.363 0.84 -0.395 3.094 c -0.254 0.762 -0.461 1.449 -0.461 1.531 c 0 0.082 0.07 0.176 0.156 0.211 c 0.113 0.043 0.293 -0.086 0.613 -0.43 c 0.246 -0.273 0.5 -0.492 0.559 -0.492 c 0.316 0 -0.844 1.328 -1.375 1.574 c -0.418 0.195 -0.66 0.219 -0.961 0.09"/></g></svg>