<svg xmlns="http://www.w3.org/2000/svg" viewBox="0 0 48 48"><defs><linearGradient id="0" gradientUnits="userSpaceOnUse" x1="21.866" y1="8.576" x2="21.78" y2="39.924" gradientTransform="matrix(0.63636 0 0 0.62295 -4.909 -4.107)"><stop stop-color="#4f4f4f"/><stop offset="0.132" stop-color="#6e6e6e"/><stop offset="1" stop-color="#8c8c8c"/></linearGradient><linearGradient id="1" gradientUnits="userSpaceOnUse" y1="8.647" x2="0" y2="18.882" gradientTransform="matrix(0.61291 0 0 0.58621 -4.323 -3.069)"><stop stop-color="#fff" stop-opacity="0.2"/><stop offset="1" stop-color="#fff" stop-opacity="0"/></linearGradient><linearGradient id="2" gradientUnits="userSpaceOnUse" y1="13" x2="0" y2="40" gradientTransform="matrix(0.55124 0 0 0.51132 10.465 14.936)"><stop stop-color="#fff" stop-opacity="0.941"/><stop offset="1" stop-color="#fff" stop-opacity="0.706"/></linearGradient></defs><path d="m 31.809 2.297 c -23.891 -9.313 -36.14 16.793 -30.06 33.05 c 4.25 11.344 21.19 16.996 34.883 8.938 c 17.277 -10.164 13.602 -34.797 -4.824 -41.984" fill="#a57d27"/><path d="m 0.68 1.5 h 20.64 c 0.101 0 0.179 0.077 0.179 0.177 v 18.645 c 0 0.099 -0.078 0.177 -0.179 0.177 h -20.64 c -0.101 0 -0.179 -0.077 -0.179 -0.177 v -18.645 c 0 -0.099 0.078 -0.177 0.179 -0.177" transform="matrix(1.04734 0 0 1.06197 12.174 14.15)" fill="url(#0)" stroke="#555853"/><path d="m 1.59 2.501 h 18.82 c 0.048 0 0.09 0.04 0.09 0.088 v 16.821 c 0 0.051 -0.041 0.088 -0.09 0.088 h -18.82 c -0.048 0 -0.09 -0.037 -0.09 -0.088 v -16.821 c 0 -0.048 0.041 -0.088 0.09 -0.088" transform="matrix(1.04734 0 0 1.06197 12.174 14.15)" fill="none" stroke="url(#1)"/><path d="m 13.316 21.582 h 20.758 c 0.051 0 0.094 0.043 0.094 0.094 v 13.617 c 0 0.055 -0.043 0.094 -0.094 0.094 h -20.758 c -0.055 0 -0.094 -0.039 -0.094 -0.094 v -13.617 c 0 -0.051 0.039 -0.094 0.094 -0.094" fill="url(#2)"/><g fill="#ffc14c"><path d="m 33.12 18.398 c 0 0.586 -0.469 1.059 -1.047 1.059 c -0.578 0 -1.047 -0.473 -1.047 -1.059 c 0 -0.59 0.469 -1.063 1.047 -1.063 c 0.578 0 1.047 0.473 1.047 1.063"/><path d="m 29.98 18.398 c 0 0.586 -0.473 1.059 -1.051 1.059 c -0.578 0 -1.047 -0.473 -1.047 -1.059 c 0 -0.59 0.469 -1.063 1.047 -1.063 c 0.578 0 1.051 0.473 1.051 1.063"/><path d="m 26.836 18.398 c 0 0.586 -0.469 1.059 -1.047 1.059 c -0.578 0 -1.047 -0.473 -1.047 -1.059 c 0 -0.59 0.469 -1.063 1.047 -1.063 c 0.578 0 1.047 0.473 1.047 1.063"/></g></svg>