<svg xmlns="http://www.w3.org/2000/svg" viewBox="0 0 48 48"><path d="m 0.609 29.492 c 9.371 44.984 73.848 -3.305 35.12 -26.17 c -15.05 -9.801 -39.938 3.039 -35.12 26.17" fill="#8cb1d7"/><g fill="#fff" stroke="#fff" stroke-width="1.085" transform="matrix(0.19719 0 0 0.1875 -0.491 0)"><path d="m 58.26 198.35 c -5.606 -2.292 -8.657 -10.938 -6.06 -17.188 c 1.466 -3.542 9.152 -8.917 12.737 -8.917 c 3.15 0 9.39 5.458 11.608 10.125 c 3.665 7.708 -2.754 17.06 -11.588 16.938 c -2.496 -0.042 -5.507 -0.479 -6.696 -0.958"/><path d="m 83.65 166.92 c -3.982 -4 -4.16 -8.5 -0.456 -12.896 c 5.269 -6.25 12.08 -5.083 15.293 2.604 c 1.922 4.604 1.05 8.479 -2.536 11.313 c -3.982 3.125 -8.518 2.75 -12.302 -1.021"/><path d="m 104.27 144.15 c -3.902 -3.917 -3.962 -5.5 -0.317 -9.167 c 3.249 -3.25 8.06 -3.771 10.241 -1.125 c 2.377 2.854 1.803 9.104 -1.07 11.417 c -3.427 2.792 -5.15 2.563 -8.855 -1.125"/><path d="m 134.62 156.13 c -1.763 -1.438 -2.496 -3.167 -2.496 -5.917 c 0 -7.771 7.745 -11.229 12.282 -5.458 c 2.991 3.792 2.853 7.5 -0.416 10.75 c -3.189 3.188 -5.982 3.375 -9.37 0.625"/><path d="m 144.09 135.29 c -5.408 -4.25 -2.575 -14.292 4.02 -14.292 c 7.131 0 10.123 9.771 4.358 14.292 c -1.565 1.25 -3.447 2.25 -4.2 2.25 c -0.733 0 -2.615 -1 -4.18 -2.25"/><path d="m 134.13 111.02 c -8.815 -9.771 11.787 -18.06 12.52 -4.688 c 0 6.979 -7.448 9.771 -12.52 4.688"/><path d="m 114.91 105 c -5.428 -4.25 -5.725 -10.958 -0.634 -14.521 c 3.467 -2.438 6 -2.188 9.112 0.917 c 3.724 3.729 3.526 8.563 -0.515 12.604 c -4.101 3.313 -5.388 3.02 -7.963 1.021"/><path d="m 92.96 113.48 c -3.11 -1.771 -3.764 -3.083 -3.784 -7.583 c -0.02 -4.833 2.278 -7.396 6.636 -7.396 c 9.469 0 12.48 9.458 4.675 14.583 c -3.03 1.979 -4.576 2.063 -7.528 0.396"/><path d="m 66.932 94.21 c -5.289 -2.188 -10.281 -12.188 -8.498 -17.02 c 2.139 -5.896 8.815 -11.208 14.03 -11.229 c 3.665 0 11.489 5 13.411 8.563 c 1.466 2.75 1.466 9.396 0 12.146 c -4.477 5.938 -12.856 9.917 -18.938 7.542"/><path d="m 113.44 74.73 c -10.558 -6.333 -10.08 -18 -3.605 -24 c 7.07 -6.542 12.1 -6.125 19.473 1.604 c 3.308 3.479 3.764 4.625 3.585 8.979 c -0.218 5.604 -2.654 9.646 -7.508 12.396 c -4.774 2.354 -8.617 2.479 -11.945 1.021"/><path d="m 155.88 95.46 c -5.982 -3.813 -7.587 -6.479 -7.587 -12.625 c 0 -6.771 3.526 -12.208 9.865 -15.229 c 5.507 -2.604 10.955 -0.938 15.986 4.938 c 6.141 7.188 6.081 12.458 -0.238 19.583 c -5.01 5.292 -12.262 6.917 -18.03 3.333"/><path d="m 166.65 132.67 c -1.189 -6.354 0.277 -10.833 4.952 -15.06 c 7.27 -6.583 12.876 -6.542 19.77 0.146 c 5.408 5.25 6.894 9.771 4.734 14.542 c -2.179 4.875 -3.784 6.729 -8.261 9.438 c -7.904 4.02 -19.691 -1.563 -21.2 -9.06"/><path d="m 153.52 186.08 c -4.259 -4.479 -5.784 -7.479 -5.784 -11.375 c 0 -4.125 5.765 -13.06 9.291 -14.396 c 4.02 -1.542 10.955 -1.313 14.382 0.458 c 4.259 2.208 7.785 9.125 7.785 15.292 c 0 4.521 -0.495 5.646 -4.2 9.333 c -6.438 5.896 -16.382 6.02 -21.473 0.688"/></g></svg>