<svg xmlns="http://www.w3.org/2000/svg" viewBox="0 0 48 48" xmlns:xlink="http://www.w3.org/1999/xlink"><path d="m 43.871 10.05 c -9.102 -16.527 -37.617 -10.113 -42.44 3.492 c -5.75 16.211 9.211 46.996 34.555 28.961 c 8.535 -6.297 16.988 -15.926 7.887 -32.453" fill="#546a2f"/><g fill-rule="evenodd" stroke="#000" stroke-width="0.576" transform="scale(0.1875)"><path d="m 59.729 155.48 v -11.854 h 4.542 v 23.688 h -4.542"/><path d="m 64.27 169.85 v -2.02 h 4.542 v 4.04 h -4.542"/><path d="m 73.35 174.65 v -2.271 h 4.542 v 4.542 h -4.542"/><path d="m 77.875 169.85 v -2.02 h 4.542 v 4.04 h -4.542"/><path d="m 82.42 165.06 v -2.271 h 4.542 v 4.542 h -4.542"/><path d="m 91.5 145.9 v -2.271 h 9.08 v 4.542 h -9.08"/><path d="m 100.58 141.35 v -2.271 h 4.542 v 4.542 h -4.542"/><path d="m 105.13 134.04 v -4.542 h 4.542 v 9.08 h -4.542"/><path d="m 100.58 127.23 v -2.271 h 4.542 v 4.542 h -4.542"/><path d="m 82.42 134.04 v -4.542 h -4.542 v -4.542 h 4.542 v -5.04 h 4.542 v 18.667 h -4.542"/><path d="m 86.958 117.65 v -2.271 h 4.542 v 4.542 h -4.542"/><path d="m 91.5 112.6 v -2.271 h 4.542 v 4.542 h -4.542"/><path d="m 96.04 105.54 v -4.792 h 4.542 v 9.583 h -4.542"/><path d="m 86.958 91.17 v -4.542 h 4.542 v 9.08 h -4.542"/><path d="m 82.42 98.48 v -2.271 h 4.542 v 4.542 h -4.542"/><path d="m 77.875 103.02 v -2.271 h 4.542 v 4.542 h -4.542"/><path d="m 73.35 98.48 v -2.271 h 4.542 v 4.542 h -4.542"/><path d="m 82.42 84.35 v -2.271 h 4.542 v 4.542 h -4.542"/><path d="m 68.813 79.31 v -2.271 h 13.604 v 4.542 h -13.604"/><path d="m 64.27 84.35 v -2.271 h 4.542 v 4.542 h -4.542"/><path d="m 59.729 95.96 v -9.333 h 4.542 v 18.667 h -4.542"/><path d="m 100.58 74.52 v -21.17 h 9.08 v 4.542 h 4.542 v 5.04 h 4.521 v 4.542 h 31.27 v 4.542 h -18.15 v 5.04 h -8.583 v 4.542 h -4.542 v -9.583 h -4.542 v -4.542 h -4.542 v -5.04 h -4.542 v 33.27 h -4.521"/><path d="m 150.5 74.77 v -2.271 h 4.04 v 4.542 h -4.04"/><path d="m 159.58 79.31 v -2.271 h 4.04 v 4.542 h -4.04"/><path d="m 164.13 84.35 v -2.271 h 22.21 v 4.542 h -22.21"/><path d="m 173.21 74.77 v -2.271 h 4.04 v 4.542 h -4.04"/><path d="m 172.85 69.75 c 0 -1.396 0.104 -1.896 0.208 -1.146 c 0.125 0.771 0.125 1.917 0 2.521 c -0.125 0.625 -0.208 0 -0.208 -1.375"/><path d="m 164.13 65.21 v -2.271 h 4.04 v 4.542 h -4.04"/><path d="m 168.67 60.15 v -2.271 h 17.646 v 4.542 h -17.646"/><path d="m 186.81 65.21 v -2.271 h 4.04 v 4.542 h -4.04"/><path d="m 191.35 72.25 v -4.771 h 4.04 v 9.563 h -4.04"/><path d="m 186.81 79.31 v -2.271 h 4.04 v 4.542 h -4.04"/></g><path d="m 164.13 141.35 v -25.979 h 4.04 v 51.958 h -4.04" transform="scale(0.1875)" fill-rule="evenodd" stroke="#000" stroke-width="0.576" id="0"/><use xlink:href="#0"/><g fill-rule="evenodd" stroke-width="0.576" transform="scale(0.1875)"><g stroke="#000"><path d="m 159.58 179.19 v -2.271 h 4.04 v 4.542 h -4.04"/><path d="m 155.04 184.23 v -2.271 h 4.04 v 4.542 h -4.04"/><path d="m 150.5 188.75 v -2.25 h 4.04 v 4.521 h -4.04"/><path d="m 145.98 193.79 v -2.271 h 4.02 v 4.542 h -4.02"/><path d="m 141.44 198.33 v -2.271 h 4.04 v 4.542 h -4.04"/><path d="m 132.35 203.4 v -2.271 h 8.563 v 4.542 h -8.563"/><path d="m 109.67 198.6 v -7.06 h 4.542 v 14.13 h -4.542"/><path d="m 114.21 174.65 v -11.854 h 4.542 v 23.708 h -4.542"/></g><path d="m 114.71 196.06 v -4.542 h 3.875 l 0.333 -3.396 c 0.167 -1.875 0.313 -8.333 0.313 -14.375 v -10.958 h 4.04 v -47.42 h 4.542 v -5.04 h 8.583 v 5.04 h 5.04 v -5.04 h 4.542 v -4.542 h 4.542 v -5.04 h 4.04 v 5.04 h 4.542 v 9.583 h 4.542 v 47.42 h -4.542 v 14.1 h -4.542 v 9.08 h -4.542 v 5.04 h -4.542 v 4.438 l -9.08 0.708 v 4.438 h -21.688" fill="#00ba00" stroke="#00ba00"/><g fill="#005d00" stroke="#005d00"><path d="m 119.06 162.46 c -0.188 -0.188 -0.333 -10.854 -0.333 -23.708 v -23.375 h 3.542 v 47.42 h -1.438 c -0.792 0 -1.583 -0.167 -1.771 -0.333"/><path d="m 114.21 189.17 c 0 -2.146 0.021 -2.167 1.75 -2.167 c 1.729 0 1.771 0.042 1.771 1.958 c 0 1.854 -0.083 1.958 -1.771 2.167 l -1.75 0.208"/><path d="m 114.71 203.65 v -2.02 h 12.604 v 4.04 h -12.604"/><path d="m 136.9 198.9 c 0 -1.625 0.083 -1.708 2.02 -1.896 l 2.02 -0.188 v 1.896 c 0 1.896 -0.021 1.896 -2.02 1.896 c -1.958 0 -2.02 -0.042 -2.02 -1.708"/><path d="m 155.04 179.69 c 0 -1.729 0.063 -1.771 2.02 -1.771 c 1.979 0 2.02 0.042 2.02 1.771 c 0 1.708 -0.042 1.75 -2.02 1.75 c -1.958 0 -2.02 -0.042 -2.02 -1.75"/><path d="m 159.58 172.13 v -4.292 h 4.04 v 8.583 h -4.04"/><path d="m 159.58 165.56 c 0 -1.729 0.063 -1.771 2.02 -1.771 c 1.979 0 2.02 0.042 2.02 1.771 c 0 1.729 -0.042 1.771 -2.02 1.771 c -1.958 0 -2.02 -0.042 -2.02 -1.771"/><path d="m 159.58 112.6 v -2.271 h 4.04 v 4.542 h -4.04"/></g><g fill="#396" stroke="#396"><path d="m 123.27 96.21 v -14.12 h 13.13 v 4.542 h 4.542 v 4.542 h -4.542 v 5.04 h 4.542 v 9.08 h -8.583 v -4.542 h -5.04 v 9.583 h -4.04"/><path d="m 141.44 93.44 v -2.271 h 4.04 v 4.542 h -4.04"/></g><path d="m 118.75 96.21 v -14.12 h 4.02 v 28.25 h -4.02" fill="#194c33" stroke="#194c33"/></g><path d="m 127.81 103.27 c 0 -2.02 0 -2.02 2.02 -2.02 c 2.02 0 2.02 0 2.02 2.02 c 0 2.02 0 2.02 -2.02 2.02 c -2.02 0 -2.02 0 -2.02 -2.02" transform="scale(0.1875)" fill="#194c33" fill-rule="evenodd" stroke="#194c33" stroke-width="0.576" id="1"/><g fill-rule="evenodd" transform="scale(0.1875)"><g stroke-width="0.576"><g fill="#194c33" stroke="#194c33"><path d="m 136.9 93.69 c 0 -2.02 0 -2.02 2.02 -2.02 c 2.02 0 2.02 0 2.02 2.02 c 0 2.02 0 2.02 -2.02 2.02 c -2.02 0 -2.02 0 -2.02 -2.02"/><path d="m 141.44 100.75 v -4.542 h 4.04 v 9.08 h -4.04"/><path d="m 145.98 93.44 v -2.271 h 4.02 v 4.542 h -4.02"/></g><g fill="#002f00" stroke="#002f00"><path d="m 136.9 112.6 c 0 -2.25 0 -2.271 1.75 -2.271 c 1.771 0 1.771 0.021 1.771 2.271 c 0 2.271 0 2.271 -1.771 2.271 c -1.75 0 -1.75 0 -1.75 -2.271"/><path d="m 127.81 108.06 v -2.271 h 8.563 v 4.542 h -8.563"/><path d="m 123.27 112.85 c 0 -1.958 0.042 -2.02 1.771 -2.02 c 1.729 0 1.771 0.063 1.771 2.02 c 0 1.979 -0.042 2.02 -1.771 2.02 c -1.729 0 -1.771 -0.042 -1.771 -2.02"/></g></g><path d="m 117.77 113 c 0 -1.083 1.479 -1.5 3.25 -0.979 c 1.792 0.542 1.792 1.396 0 1.938 c -1.771 0.521 -3.25 0.104 -3.25 -0.958" fill="#002f00" stroke="#002f00" stroke-width="2.262"/></g><use xlink:href="#1"/><g fill-rule="evenodd" transform="scale(0.1875)"><g stroke-width="0.576"><path d="m 150.15 93.44 c 0 -1.375 0.104 -1.896 0.229 -1.125 c 0.104 0.771 0.104 1.896 -0.021 2.521 c -0.104 0.625 -0.208 0 -0.208 -1.396" fill="#194c33" stroke="#194c33"/><g fill="#26724c" stroke="#26724c"><path d="m 141.44 88.65 c 0 -2.02 0 -2.02 2.02 -2.02 c 2.02 0 2.02 0 2.02 2.02 c 0 2.02 0 2.02 -2.02 2.02 c -2.02 0 -2.02 0 -2.02 -2.02"/><path d="m 136.9 84.1 c 0 -2.02 0 -2.02 2.02 -2.02 c 2.02 0 2.02 0 2.02 2.02 c 0 2.02 0 2.02 -2.02 2.02 c -2.02 0 -2.02 0 -2.02 -2.02"/><path d="m 150 98.48 v -2.333 l 2.146 0.167 c 2.146 0.146 2.146 0.146 2.146 2.167 c 0 2 0 2.02 -2.146 2.167 l -2.146 0.167"/></g></g><g fill="#26724c" stroke="#26724c" stroke-width="0.746"><path d="m 146.04 100.92 v -4.667 l 1.792 0.313 c 1.771 0.313 1.792 0.313 1.792 4.354 c 0 4.04 -0.021 4.063 -1.792 4.375 l -1.792 0.313"/><path d="m 141.6 106.17 h 4.688 l -0.313 1.792 c -0.313 1.771 -0.333 1.771 -4.375 1.771 c -4.04 0 -4.04 0 -4.354 -1.771 l -0.313 -1.792"/></g></g></svg>