<svg xmlns="http://www.w3.org/2000/svg" viewBox="0 0 48 48"><defs><linearGradient id="0" gradientUnits="userSpaceOnUse" y1="1059.61" x2="0" y2="909.57" gradientTransform="matrix(0.17465 -0.03473 0.03089 0.15534 -13.344 -129.79)"><stop stop-color="#191818"/><stop offset="1" stop-color="#3f3d3d"/></linearGradient></defs><path d="m 11.754 6.543 c -42.508 38.969 45.22 63.52 35.547 11.785 c -4.77 -13.648 -21.898 -24.301 -35.547 -11.785" fill="#201e1e"/><g fill="#fff"><path d="m 12.05 19.43 c -0.531 0.105 -0.871 0.594 -0.762 1.102 l 3.375 15.605 c 0.109 0.508 0.621 0.82 1.152 0.715 l 23.18 -4.727 c 0.531 -0.109 0.867 -0.594 0.758 -1.102 l -3.371 -15.609 c -0.109 -0.504 -0.621 -0.82 -1.152 -0.711"/><path d="m 20.5 17.703 l -0.473 -2.176 l 6.273 -1.277 l 0.473 2.176 l 2.352 -0.48 l -0.473 -2.176 c 0 0 -0.469 -2.18 -2.82 -1.699 c -2.281 0.465 -6.273 1.277 -6.273 1.277 c 0 0 -2.352 0.48 -1.883 2.66 c 0.457 2.109 0.473 2.176 0.473 2.176"/></g><path d="m 18.43 20.785 l 12.227 -2.434 c 0.48 -0.094 0.941 0.176 1.027 0.605 l 2.16 10.871 c 0.086 0.43 -0.234 0.855 -0.719 0.953 l -12.223 2.43 c -0.484 0.098 -0.945 -0.172 -1.027 -0.602 l -2.164 -10.875 c -0.086 -0.43 0.234 -0.855 0.719 -0.949" fill="url(#0)"/><g transform="matrix(0.17465 -0.03473 0.03089 0.15534 -13.619 -128.5)"><path d="m 65.44 1003.19 c 0.007 12.223 -9.908 22.13 -22.12 22.14 c -12.236 0.005 -22.14 -9.903 -22.14 -22.13 c 0.014 -12.218 9.908 -22.13 22.14 -22.13 c 12.214 -0.01 22.11 9.899 22.12 22.12" fill="none" stroke="#fff" stroke-width="11.365"/><path d="m 75.36 980.74 l 0.516 -0.01 l 0.007 47.5 l -0.516 0.01" fill="#a00" stroke="#f00" stroke-linejoin="round" stroke-linecap="round" stroke-width="9.243"/></g></svg>