<svg xmlns="http://www.w3.org/2000/svg" viewBox="0 0 48 48"><path d="m 8.691 42.75 c 28.789 22.336 58.676 -33.29 23.04 -41.43 c -22.449 -8.336 -44.37 24.875 -23.04 41.43" fill="#4256c9"/><g fill="#fbfbfc" stroke="#fbfbfc" transform="scale(0.1875)"><path d="m 115.04 192.27 c 1.021 -1.604 4.938 -6.875 8.667 -11.708 c 13.813 -17.813 25.688 -40.19 28 -52.771 c 0.146 -21.396 -13.313 -28.938 -28.75 -28.875 c -11.02 0.042 -17.396 1.563 -31.875 7.563 c -12.417 5.125 -14.938 5.625 -14.167 2.708 c 1.479 -5.646 20.04 -26.19 31.708 -35.08 c 17.271 -13.146 41.896 -20.25 58.19 -16.792 c 14.521 3.083 26 11.854 32.563 24.875 c 6.313 14.167 3.063 31.771 -3.729 44.02 c -12.396 22.02 -37.688 44.979 -70 63.54 c -11.04 6.333 -13.417 6.896 -10.604 2.521" stroke-width="2.233"/><path d="m 63.15 154.71 c 17.04 -1.479 26.687 0.042 41.31 0.042 c 0 13.521 0 27.04 0 40.563 c -13.563 0 -27.12 0 -40.667 0 c -1.396 -14.313 -0.667 -28.583 -0.646 -40.604" stroke-width="2.01"/></g></svg>