<svg xmlns="http://www.w3.org/2000/svg" viewBox="0 0 48 48"><path d="m 45.738 13.18 c -11.875 -26.336 -51.73 -9.379 -44.973 17.316 c 6.371 25.15 43.23 22.13 46.902 -2.23 c 0.766 -5.082 0.25 -10.254 -1.93 -15.09" fill="#9acd31"/><path d="m 28.953 13.05 c -2.301 -1.086 -4.738 -1.359 -6.855 -0.883 c -2.117 0.477 -3.934 1.727 -4.84 3.648 l -0.328 0.691 c -1.902 0.055 -3.934 1.594 -5.062 3.988 c -1.445 3.063 -0.875 6.371 1.371 7.43 l 5.406 -11.457 c 0.68 -1.438 2.047 -2.41 3.793 -2.801 c 1.746 -0.395 3.852 -0.18 5.859 0.77 c 2.01 0.945 3.512 2.434 4.32 4.03 c 0.809 1.602 0.93 3.273 0.25 4.711 l -5.406 11.457 c 2.246 1.063 5.16 -0.602 6.605 -3.668 c 1.129 -2.391 1.031 -4.938 -0.141 -6.438 l 0.328 -0.695 c 0.906 -1.918 0.715 -4.121 -0.266 -6.05 c -0.977 -1.938 -2.734 -3.645 -5.04 -4.73 m -10.04 4.195 l -5.156 10.926 c 0.348 0.164 0.773 0.156 1.113 -0.109 l 4.746 -10.06 c -0.094 -0.258 -0.355 -0.594 -0.703 -0.758 m 13.18 6.219 c -0.348 -0.164 -0.773 -0.152 -1.031 -0.063 l -4.746 10.06 c 0.012 0.43 0.277 0.766 0.621 0.93" fill="#fff"/></svg>