<svg xmlns="http://www.w3.org/2000/svg" viewBox="0 0 48 48"><path d="m 37.984 45.17 c -71.5 20.852 -25.922 -82.17 6.066 -30.496 c 5.848 9.496 6.254 25.617 -6.066 30.496" fill="#dcdcdc"/><path d="m 21.22 36.633 c -5.508 -0.527 -8.773 -1.523 -10.602 -3.23 c -1.043 -0.969 -1.273 -1.781 -0.906 -3.188 c 0.133 -0.504 0.188 -1.352 0.188 -2.91 c 0 -1.777 0.035 -2.27 0.199 -2.59 c 0.289 -0.57 0.762 -1.172 1.035 -1.32 c 0.219 -0.113 0.215 -0.07 -0.063 0.523 c -0.363 0.773 -0.379 1.219 -0.074 1.879 c 0.777 1.695 3.98 3.219 8.305 3.949 c 1.582 0.27 6.113 0.379 7.938 0.191 c 3.969 -0.41 7.301 -1.512 8.902 -2.945 c 0.863 -0.77 1.145 -1.367 1.063 -2.234 c -0.035 -0.379 -0.105 -0.797 -0.16 -0.93 c -0.094 -0.25 -0.094 -0.25 0.188 0 c 0.156 0.133 0.402 0.465 0.547 0.738 c 0.246 0.457 0.27 0.699 0.305 3.555 l 0.039 3.063 l -0.324 0.66 c -0.203 0.418 -0.637 0.949 -1.184 1.453 c -1.664 1.531 -4.438 2.559 -8.406 3.105 c -1.246 0.172 -5.965 0.328 -6.988 0.227 m -0.313 -6.898 c -0.168 -0.031 -0.836 -0.145 -1.484 -0.25 c -1.367 -0.23 -2.898 -0.688 -3.762 -1.121 c -0.766 -0.387 -2.379 -1.879 -2.824 -2.613 c -0.188 -0.309 -0.34 -0.734 -0.34 -0.945 c 0 -0.223 0.336 -1.059 0.809 -2.01 c 0.938 -1.895 1.293 -3.285 1.297 -5.105 c 0 -1.426 0.238 -1.898 1.297 -2.605 c 0.805 -0.539 2.613 -1.191 3.895 -1.414 c 0.445 -0.074 1.105 -0.188 1.477 -0.254 c 0.859 -0.152 4.465 -0.152 5.34 -0.004 c 0.367 0.066 1.059 0.18 1.535 0.258 c 2.57 0.41 5.02 1.77 5.188 2.875 c 0.031 0.215 0.086 1.055 0.121 1.867 c 0.074 1.754 0.375 2.805 1.316 4.594 c 0.668 1.266 0.793 2.039 0.438 2.711 c -0.383 0.727 -1.625 1.645 -2.914 2.16 c -3.848 1.531 -5.145 1.809 -8.727 1.875 c -1.293 0.02 -2.488 0.016 -2.66 -0.016" fill="#9c9c90"/><path d="m 21.03 36.34 c -3.156 -0.227 -6.152 -0.953 -8.348 -2.023 c -2.066 -1 -2.938 -2 -2.723 -3.125 c 0.047 -0.246 0.109 -1.406 0.145 -2.578 c 0.031 -1.168 0.094 -2.121 0.141 -2.117 c 0.047 0 0.234 0.219 0.418 0.48 c 1.176 1.695 4.434 3.086 8.676 3.707 c 5.633 0.824 12.04 0.043 15.813 -1.93 c 1.016 -0.535 2.109 -1.477 2.336 -2.02 c 0.082 -0.203 0.203 -0.34 0.262 -0.301 c 0.059 0.035 0.109 1.188 0.109 2.563 c 0 2.434 -0.008 2.508 -0.32 3.129 c -1.473 2.953 -8.641 4.777 -16.504 4.211 m 6.777 -0.684 c 1.867 -0.215 3.676 -0.609 5.098 -1.121 c 1.43 -0.512 2.02 -0.957 0.793 -0.598 c -0.801 0.23 -2.582 0.559 -3.039 0.559 c -0.309 0 -0.344 -0.031 -0.246 -0.219 c 0.066 -0.117 0.137 -0.93 0.16 -1.801 l 0.043 -1.582 l -0.992 0.078 c -2.133 0.168 -5.691 0.305 -8.262 0.313 l -2.699 0.008 l 0.02 1.695 l 0.016 1.695 l -1.031 -0.031 c -1.512 -0.047 -3.18 -0.504 -4.773 -1.309 c -0.766 -0.387 -0.949 -0.41 -0.527 -0.07 c 1.266 1.016 4.457 2.01 7.672 2.383 c 2.02 0.238 5.723 0.238 7.77 0.004 m -7.832 -6.215 c -2.777 -0.438 -4.613 -1.172 -5.953 -2.387 c -0.418 -0.375 -0.855 -0.891 -0.973 -1.137 c -0.273 -0.574 -0.184 -1.34 0.238 -2.059 c 0.906 -1.547 1.383 -3.227 1.535 -5.41 l 0.086 -1.27 l 0.227 0.422 c 0.359 0.664 0.922 1.109 2.117 1.676 c 2.07 0.977 4.41 1.367 7.484 1.25 c 3.766 -0.141 6.848 -1.129 7.84 -2.516 c 0.207 -0.285 0.418 -0.523 0.477 -0.523 c 0.055 0 0.098 0.32 0.098 0.711 c 0.004 1.508 0.363 3.137 1.031 4.648 c 0.266 0.609 0.598 1.422 0.73 1.805 c 0.234 0.664 0.234 0.715 0.031 1.137 c -0.504 1.063 -1.75 1.855 -4.367 2.785 c -2.105 0.75 -3.711 1 -6.641 1.059 c -1.996 0.035 -2.766 -0.004 -3.961 -0.191" fill="#2c2c2c"/></svg>