<svg xmlns="http://www.w3.org/2000/svg" viewBox="0 0 48 48"><g fill="#fff"><path d="m 17.363 23.371 v 9.352 c 0 5.613 0.965 5.613 9.625 5.613 h 1.926 c 8.664 0 9.625 0 9.625 -5.613 v -9.352 c 0 -5.613 -0.961 -5.613 -9.625 -5.613 h -1.926 c -8.66 0 -9.625 0 -9.625 5.613 m 9.625 -3.742 h 1.926 c 7.699 0 7.699 0 7.699 3.742 v 6.547 c 0 3.742 0 3.742 -7.699 3.742 h -1.926 c -7.699 0 -7.699 0 -7.699 -3.742 v -6.547 c 0 -3.742 0 -3.742 7.699 -3.742"/><path d="m 21.21 30.09 v -3.629 l 3.367 -3.402 l 4.215 4.254 l 1.684 -1.703 l 4.211 4.254 v 0.227 c 0 1.699 -0.277 1.699 -3.367 1.699 h -6.738 c -3.086 0 -3.367 0 -3.367 -1.699"/><path d="m 34.688 23.371 c 0 1.031 -0.859 1.871 -1.922 1.871 c -1.066 0 -1.926 -0.84 -1.926 -1.871 c 0 -1.035 0.859 -1.871 1.926 -1.871 c 1.063 0 1.922 0.836 1.922 1.871"/><path d="m 23.14 14.02 c -8.664 0 -9.625 0 -9.625 5.613 v 9.355 c 0 3.039 0.285 4.438 1.926 5.074 v -14.43 c 0 -3.387 0.059 -3.703 5.773 -3.73 v -0.012 h 13 c -0.848 -1.871 -3.148 -1.871 -9.152 -1.871"/><path d="m 19.289 10.273 c -8.66 0 -9.625 0 -9.625 5.613 v 9.355 c 0 3.043 0.285 4.438 1.926 5.074 v -14.43 c 0 -3.387 0.059 -3.703 5.773 -3.73 v -0.012 h 13 c -0.848 -1.867 -3.148 -1.871 -9.152 -1.871"/></g><path d="m 39.461 7.133 c 37.523 49.734 -65.734 56.805 -32.598 6.04 c 7.555 -11.574 22.66 -19.21 32.598 -6.04" fill="#778799"/><path d="m 19.715 38.863 c 0 -0.504 4.238 -11.16 4.582 -11.52 c 0.316 -0.332 0.617 0.301 2.984 6.277 c 1.07 2.707 1.879 5.098 1.797 5.32 c -0.098 0.27 -0.336 0.348 -0.719 0.234 c -2.184 -0.637 -4.297 -0.75 -6.277 -0.328 c -2.473 0.531 -2.367 0.527 -2.367 0.016 m -2.301 -1.461 c -0.742 -1.535 -2.152 -3.109 -3.883 -4.348 c -1.719 -1.23 -1.938 -1.523 -1.465 -1.98 c 0.316 -0.305 7.414 -3.465 9.773 -4.352 c 0.82 -0.309 0.992 -0.309 1.105 0 c 0.207 0.563 -4.141 11.602 -4.602 11.699 c -0.246 0.055 -0.598 -0.336 -0.93 -1.023 m 10.555 -4.332 c -1.156 -2.977 -2.105 -5.707 -2.105 -6.066 c 0 -1.09 -0.336 -1.195 8.145 2.59 c 1.738 0.777 3.105 1.543 3.055 1.707 c -0.047 0.168 -0.66 0.727 -1.352 1.246 c -1.809 1.348 -3.832 3.543 -4.457 4.828 c -0.293 0.605 -0.68 1.102 -0.855 1.102 c -0.18 0 -1.266 -2.418 -2.43 -5.406 m -16.707 -3.125 c 0 -0.098 0.188 -1.141 0.414 -2.316 c 0.402 -2.105 0.336 -3.535 -0.32 -6.742 c -0.117 -0.574 -0.059 -0.742 0.27 -0.742 c 0.797 0 10.652 4.383 10.652 4.734 c 0 0.605 -1.273 1.328 -5.852 3.313 c -4.227 1.836 -5.164 2.152 -5.164 1.754 m 20.516 -1.922 c -4.563 -2.02 -5.574 -2.684 -4.992 -3.293 c 0.426 -0.449 10.34 -4.625 10.59 -4.465 c 0.125 0.082 0.066 0.777 -0.133 1.563 c -0.473 1.871 -0.457 4.621 0.031 6.359 c 0.426 1.5 0.348 1.934 -0.344 1.926 c -0.238 0 -2.559 -0.941 -5.152 -2.09 m -5.824 -4.516 c -0.152 -0.422 4.176 -11.469 4.484 -11.434 c 0.09 0.008 0.629 0.762 1.191 1.676 c 1 1.625 2.797 3.355 4.477 4.313 c 0.809 0.461 0.824 0.5 0.395 1 c -0.387 0.449 -5.34 2.805 -9.168 4.363 c -1.086 0.441 -1.242 0.449 -1.379 0.082 m -8.672 -1.785 c -5.695 -2.496 -6.176 -2.945 -4.168 -3.898 c 1.371 -0.648 3.797 -3.129 4.52 -4.625 c 0.309 -0.629 0.652 -1.145 0.766 -1.145 c 0.227 0 4.648 10.711 4.648 11.258 c 0 0.688 -1.52 0.27 -5.766 -1.59 m 6.586 0.66 c -0.785 -1.617 -3.914 -10.426 -3.809 -10.715 c 0.105 -0.289 0.371 -0.289 1.488 0.016 c 1.727 0.473 4.086 0.473 5.805 0.004 c 0.738 -0.203 1.395 -0.285 1.453 -0.184 c 0.176 0.297 -4.063 11.16 -4.395 11.27 c -0.168 0.055 -0.41 -0.121 -0.543 -0.391" fill="#fff"/></svg>