<svg xmlns="http://www.w3.org/2000/svg" viewBox="0 0 48 48"><path d="m 0.785 29.426 c 2.938 19.426 29.05 24.625 40.578 10.758 c 10.148 -10.301 7.625 -30.02 -4.824 -36.777 c -14.301 -9.04 -35.13 2.137 -36.27 20.14 c -0.117 1.973 0.047 3.969 0.512 5.879" fill="#86cefa"/><path d="m 23.988 41.832 c -0.043 -0.078 -0.113 -0.43 -0.148 -0.785 c -0.055 -0.551 -0.109 -0.688 -0.363 -0.918 c -0.316 -0.293 -0.484 -0.352 -2.01 -0.676 c -2.957 -0.637 -5.508 -1.977 -7.504 -3.938 c -1.254 -1.23 -2.051 -2.352 -2.863 -4.03 c -0.766 -1.574 -1.145 -2.691 -1.461 -4.301 c -0.258 -1.328 -0.395 -1.625 -0.832 -1.813 c -0.469 -0.199 -1.707 -0.297 -1.969 -0.152 c -0.199 0.113 -0.207 0.098 -0.234 -0.609 c -0.063 -1.539 0.27 -3.109 1.156 -5.473 c 0.746 -1.996 1.398 -3.355 2.176 -4.547 c 2.246 -3.445 5.715 -5.902 9.902 -7.02 c 1.996 -0.535 5.01 -0.824 5.27 -0.508 c 0.063 0.078 0.152 0.398 0.203 0.715 c 0.098 0.613 0.352 0.992 0.777 1.168 c 0.133 0.051 0.816 0.223 1.516 0.379 c 2.285 0.508 3.977 1.234 5.844 2.516 c 3.039 2.09 5.324 5.762 6.07 9.758 c 0.203 1.09 0.352 1.418 0.785 1.75 c 0.332 0.254 1.199 0.398 1.879 0.32 l 0.57 -0.066 l -0.035 1.16 c -0.035 1.113 -0.047 1.168 -0.313 1.457 c -0.23 0.246 -0.328 0.527 -0.559 1.582 c -0.371 1.711 -0.75 2.82 -1.496 4.383 c -0.938 1.969 -1.656 3.01 -3.063 4.461 c -2.266 2.324 -5.102 3.918 -8.523 4.781 c -1.477 0.375 -4.633 0.641 -4.777 0.402 m 3.223 -0.652 c 1.781 -0.277 3.391 -0.781 5.074 -1.586 c 1.449 -0.695 3.637 -2.266 3.637 -2.609 c 0 -0.137 -3.926 -4.16 -5.598 -5.742 c -1.434 -1.355 -3.469 -3.449 -3.953 -4.07 c -0.262 -0.34 -2.672 -2.816 -5.352 -5.504 c -2.684 -2.688 -5.738 -5.75 -6.789 -6.809 c -1.051 -1.059 -1.984 -1.922 -2.07 -1.926 c -0.281 -0.008 -1.406 1.395 -2.254 2.801 c -1.25 2.078 -2.051 4.57 -2.297 7.121 c -0.105 1.082 -0.059 1.379 0.215 1.379 c 0.223 0 3.809 1.137 5.113 1.621 c 1.367 0.508 2.195 0.938 3.41 1.773 c 1.723 1.188 2.445 1.855 3.953 3.664 c 1.98 2.371 2.398 3.176 3.559 6.797 c 0.426 1.328 0.512 1.73 0.52 2.348 c 0.008 0.691 0.027 0.758 0.25 0.879 c 0.273 0.148 0.969 0.109 2.582 -0.137 m -4.367 -2.145 c 0.328 -0.336 -0.684 -3.145 -1.836 -5.094 c -0.598 -1.012 -2.148 -3.203 -2.27 -3.203 c -0.059 0 -0.52 -0.363 -1.023 -0.809 c -1.152 -1.02 -3.566 -2.738 -3.879 -2.762 c -0.129 -0.012 -0.902 -0.25 -1.719 -0.527 c -0.813 -0.277 -1.594 -0.504 -1.734 -0.504 c -0.223 0 -0.254 0.039 -0.254 0.324 c 0 0.93 0.48 2.641 1.152 4.117 c 1.871 4.109 5.398 7.09 9.699 8.199 c 1.574 0.406 1.703 0.426 1.863 0.258 m 14.379 -3.508 c 2.512 -2.77 4.148 -6.777 4.148 -10.168 v -0.926 h -0.957 l -0.063 0.527 c -0.309 2.488 -0.527 3.512 -1.074 5.04 c -0.629 1.738 -1.457 3.156 -2.887 4.93 c -0.418 0.52 -0.762 1.02 -0.762 1.109 c 0 0.242 0.199 0.402 0.496 0.402 c 0.211 0 0.445 -0.195 1.098 -0.914 m -1.75 -1.246 c 0.867 -1.023 1.707 -2.336 2.301 -3.594 c 0.844 -1.785 1.242 -3.383 1.328 -5.309 l 0.055 -1.207 l -1 -0.328 c -1.625 -0.531 -5.063 -2.109 -6.02 -2.766 c -0.234 -0.164 -0.543 -0.371 -0.684 -0.469 c -0.531 -0.359 -2.367 -2.141 -2.758 -2.672 c -0.227 -0.305 -0.465 -0.625 -0.535 -0.707 c -0.188 -0.219 -1.418 -2.367 -1.754 -3.055 c -0.367 -0.762 -0.918 -2.223 -1.316 -3.496 l -0.313 -1 l -1.121 0.016 c -1.781 0.023 -3.582 0.527 -5.691 1.59 c -1.719 0.863 -3.75 2.43 -3.75 2.895 c 0 0.066 1.105 1.199 2.457 2.512 c 5.32 5.184 11.06 11.03 13.73 13.992 c 1.906 2.109 4.188 4.461 4.301 4.426 c 0.055 -0.02 0.398 -0.391 0.77 -0.828 m 3.434 -11.809 c 0.16 -0.426 -0.617 -3.184 -1.277 -4.527 c -1.355 -2.77 -3.375 -4.906 -6.09 -6.445 c -1.477 -0.836 -3.715 -1.57 -4.785 -1.57 h -0.492 l 0.07 0.375 c 0.215 1.199 1.258 3.551 2.285 5.164 c 0.645 1.012 1.051 1.504 2.34 2.82 c 1.551 1.582 1.574 1.602 3.094 2.469 c 1.723 0.984 2.641 1.406 3.656 1.68 c 0.867 0.234 1.121 0.242 1.199 0.035 m -24.758 -9.93 c 1.629 -1.43 3.469 -2.516 5.367 -3.172 c 1.223 -0.418 2.059 -0.602 3.621 -0.789 c 1.238 -0.148 1.492 -0.242 1.492 -0.547 c 0 -0.449 -0.383 -0.496 -2.145 -0.258 c -3.305 0.445 -6.102 1.641 -8.73 3.73 c -0.793 0.629 -1.094 0.957 -1.094 1.18 c 0 0.152 0.379 0.641 0.496 0.641 c 0.051 0 0.5 -0.352 0.992 -0.785" fill="#696a69"/><path d="m 37.19 22.2 c -0.914 -0.316 -2.816 -1.293 -4.121 -2.117 c -0.953 -0.602 -3.348 -3.117 -4.227 -4.438 c -1.012 -1.52 -2.461 -4.734 -2.461 -5.453 c 0 -0.223 0.789 -0.211 1.707 0.023 c 4.105 1.055 7.797 4.109 9.508 7.871 c 0.504 1.105 1.137 3.102 1.227 3.855 l 0.066 0.57 l -0.402 -0.004 c -0.223 0 -0.805 -0.141 -1.297 -0.309" fill="#34c6ff"/><path d="m 34.461 34.828 c -0.129 -0.086 -1.859 -1.895 -3.848 -4.02 c -1.988 -2.129 -6.363 -6.625 -9.727 -9.992 c -3.363 -3.367 -6.223 -6.262 -6.352 -6.426 c -0.238 -0.301 -0.234 -0.309 0.063 -0.637 c 1.035 -1.141 3.871 -2.781 5.957 -3.441 c 1 -0.32 2.766 -0.598 3.73 -0.59 h 0.449 l 0.508 1.578 c 0.609 1.879 1.672 4.105 2.734 5.723 c 0.91 1.387 2.789 3.238 4.199 4.133 c 1.145 0.727 4 2.051 5.688 2.637 l 1.258 0.438 l -0.082 1.16 c -0.043 0.637 -0.137 1.48 -0.211 1.871 c -0.434 2.352 -1.895 5.285 -3.52 7.05 c -0.535 0.586 -0.648 0.652 -0.848 0.516" fill="#009bd4"/><path d="m 24.574 41.16 c -0.07 -0.09 -0.16 -0.539 -0.195 -1 c -0.082 -0.98 -0.934 -3.723 -1.621 -5.234 c -0.59 -1.281 -1.188 -2.18 -2.551 -3.824 c -1.242 -1.496 -2.313 -2.48 -3.816 -3.496 c -1.793 -1.215 -3.582 -1.965 -7.27 -3.059 l -1.434 -0.426 v -0.734 c 0 -1.941 0.875 -5.02 2.027 -7.121 c 0.672 -1.227 1.891 -2.898 2.262 -3.105 c 0.133 -0.078 0.355 0.027 0.742 0.344 c 1.059 0.879 22.996 23.316 22.996 23.523 c 0 0.266 -1.418 1.363 -2.645 2.051 c -1.883 1.055 -3.805 1.707 -6.04 2.047 c -1.555 0.238 -2.285 0.246 -2.453 0.035" fill="#ff8c00"/><path d="m 21.402 38.805 c -3.559 -0.918 -6.391 -2.801 -8.551 -5.68 c -0.777 -1.035 -1.891 -3.344 -2.289 -4.754 c -0.32 -1.141 -0.422 -2.148 -0.215 -2.148 c 0.063 0 0.867 0.227 1.793 0.504 c 2.117 0.633 3.066 1.207 5.914 3.578 c 1.652 1.371 3.887 5.063 4.566 7.539 c 0.355 1.297 0.289 1.352 -1.219 0.961" fill="#ffa400"/><g fill="#fff"><path d="m 11.98 30.13 c -0.246 -0.391 0.105 -1.102 0.672 -1.371 c 0.398 -0.191 1.063 -0.926 2.152 -2.387 c 0.867 -1.16 1.578 -2.234 1.578 -2.387 c 0 -0.152 -0.66 -1.195 -1.465 -2.32 c -1.01 -1.402 -1.656 -2.141 -2.074 -2.367 c -0.535 -0.293 -0.613 -0.41 -0.613 -0.953 v -0.621 h 2.324 c 2.105 0 2.328 0.027 2.324 0.289 c -0.004 0.563 -0.203 1.035 -0.438 1.035 c -0.484 0 -0.406 0.531 0.238 1.613 c 0.367 0.617 0.816 1.254 1 1.418 c 0.324 0.293 0.34 0.285 0.746 -0.25 c 1.281 -1.703 1.691 -2.781 1.055 -2.781 c -0.273 0 -0.441 -0.348 -0.441 -0.922 v -0.402 h 2.148 c 1.18 0 2.262 0.047 2.406 0.102 c 0.156 0.059 0.266 0.293 0.266 0.574 c 0 0.383 -0.125 0.539 -0.629 0.793 c -0.453 0.23 -1.051 0.902 -2.16 2.422 c -0.84 1.156 -1.531 2.195 -1.531 2.316 c 0 0.461 3.387 4.879 3.738 4.879 c 0.379 0 0.746 0.496 0.746 1 v 0.484 h -4.816 v -0.594 c 0 -0.449 0.078 -0.613 0.32 -0.676 c 0.176 -0.047 0.359 -0.188 0.41 -0.313 c 0.102 -0.262 -1.703 -3.051 -1.973 -3.051 c -0.102 0 -0.496 0.477 -0.879 1.055 c -1.051 1.598 -1.23 2.258 -0.609 2.258 c 0.168 0 0.238 0.195 0.238 0.66 v 0.66 h -2.316 c -1.398 0 -2.355 -0.066 -2.418 -0.168"/><path d="m 25.34 29.852 c 0 -0.625 0.031 -0.668 0.574 -0.77 l 0.574 -0.109 l 0.008 -1.109 c 0.02 -3.824 -0.031 -8.07 -0.098 -8.254 c -0.047 -0.117 -0.301 -0.297 -0.57 -0.402 c -0.418 -0.16 -0.488 -0.273 -0.488 -0.785 v -0.598 h 2.445 c 2.309 0 2.449 0.02 2.531 0.332 c 0.152 0.594 -0.063 0.996 -0.602 1.141 l -0.516 0.133 l -0.043 1.785 l -0.047 1.785 h 0.402 c 0.223 0 0.5 0.035 0.621 0.082 c 0.215 0.078 2.438 -3.145 2.438 -3.535 c 0 -0.098 -0.109 -0.273 -0.246 -0.387 c -0.137 -0.113 -0.246 -0.461 -0.246 -0.773 v -0.563 h 4.93 v 0.66 c 0 0.625 -0.035 0.672 -0.621 0.832 c -0.344 0.094 -0.852 0.414 -1.129 0.715 c -0.824 0.887 -2.688 3.457 -2.688 3.707 c 0 0.277 1.703 2.859 2.773 4.211 c 0.504 0.633 0.949 1.02 1.297 1.121 c 0.48 0.137 0.531 0.215 0.531 0.797 v 0.645 h -4.766 v -0.59 c 0 -0.371 0.09 -0.625 0.246 -0.688 c 0.5 -0.195 0.18 -0.953 -1.316 -3.113 c -0.641 -0.926 -0.676 -0.949 -1.438 -0.949 l -0.781 -0.004 v 1.922 c 0 1.77 0.027 1.918 0.313 1.918 c 0.172 0 0.48 0.141 0.691 0.316 c 0.34 0.277 0.359 0.363 0.188 0.75 l -0.195 0.438 h -4.773"/></g></svg>