<svg xmlns="http://www.w3.org/2000/svg" viewBox="0 0 48 48"><path d="m 6.082 35.742 c -16.977 -19.18 8.152 -39.477 22.875 -34.488 c 14.723 4.992 24.609 19.07 14.996 31.422 c -9.613 12.348 -19.06 24.26 -36.04 5.078" fill="#70700b"/><path d="m 19.809 11.93 l -3.938 4.02 h -1.316 v 2.684 h -2.625 l 1.313 2.68 l -2.625 1.344 l 2.625 1.34 l -1.313 2.68 h 2.625 v 2.684 h 1.316 l 2.625 2.68 l 1.313 -1.34 l 1.316 2.684 l -1.316 2.68 h 1.316 v 4.02 l 2.625 -2.68 l -1.313 4.02 l 1.313 -1.34 l 1.316 4.02 l 1.313 -4.02 l 1.313 1.34 l -1.313 -4.02 l 2.625 2.68 v -4.02 h 1.316 l -1.316 -2.68 l 1.316 -2.684 l 1.313 1.34 l 2.625 -2.68 h 1.316 v -2.684 h 2.625 l -1.313 -2.68 l 2.625 -1.34 l -2.625 -1.344 l 1.313 -2.68 h -2.625 v -2.684 h -1.316 l -3.938 -4.02 v 4.02 h -1.316 l 5.254 5.363 l -1.313 4.02 v -1.34 h -3.941 v -2.684 h -1.313 v 2.684 h -1.313 v -1.34 h -2.629 v 1.34 h -1.313 v -2.684 h -1.313 v 2.684 h -3.941 v 1.34 l -1.313 -4.02 l 5.254 -5.363 h -1.316 m 1.973 5.363 c 1.086 0 1.969 -0.898 1.969 -2.01" fill-opacity="0.094"/><path d="m 23.75 30.703 l 2.629 1.34 l 1.313 2.684 v 4.02 l -2.625 -2.684 l 1.313 4.02 l -1.313 -1.34 l -1.316 4.02 l -1.313 -4.02 l -1.313 1.34 l 1.313 -4.02 l -2.629 2.684 v -4.02 l 1.316 -2.684" fill="#8cfbea" fill-opacity="0.941"/><path d="m 21.13 36.07 l 1.313 -1.34 l 1.313 4.02 l 1.316 -4.02 l 1.313 1.34 v -1.34 l -2.629 -4.02 l -2.625 4.02" fill="#f9f9f9"/><path d="m 22.438 32.04 l 1.313 2.684 h -5.254 l 1.313 -2.684" fill="#c8c8c8"/><path d="m 19.809 29.363 h 2.629 v 2.68 h -2.629" fill="#707070"/><path d="m 19.809 29.363 h 2.629 v -1.34 l -1.313 -1.344 h -1.316" fill="#6b5353"/><path d="m 22.438 28.02 h 2.629 v -1.344 c 0 0 0 -1.34 -1.316 -1.34 c -1.313 0 -1.313 1.34 -1.313 1.34" fill="#f9f9f9"/><path d="m 22.438 21.316 v 1.344 h -1.313 v 1.34 l -1.316 2.68 h 1.316 l 1.313 -2.68 h 2.629 l 1.313 2.68 h 1.313 l -1.313 -2.68 v -1.34 h -1.313 v -1.344" fill="#ed4040"/><path d="m 18.496 10.59 l -3.941 4.02 h -1.313 v 2.68 h -2.625 l 1.313 2.684 l -2.629 1.34 l 2.629 1.344 l -1.313 2.68 h 2.625 v 2.684 h 1.313 l 2.629 2.68 l 1.313 -1.34 l 1.313 2.68 v -8.04 h -3.938 l -1.316 -4.02 l 5.254 -5.363 h -1.313 m 10.508 -4.02 v 4.02 h -1.313 l 5.254 5.363 l -1.313 4.02 h -3.941 v 8.04 l 1.313 -2.68 l 1.316 1.34 l 2.625 -2.68 h 1.313 v -2.684 h 2.629 l -1.313 -2.68 l 2.625 -1.344 l -2.625 -1.34 l 1.313 -2.684 h -2.629 v -2.68 h -1.313 m -10.508 5.363 l 1.313 1.34 l 1.316 -1.34 m -2.629 8.05 v 1.34 h 2.629 v -1.34 m -1.316 1.34 l -1.313 1.34 h 2.629" fill="#2d2d2d"/><g fill="#959595"><path d="m 21.13 24 h -1.316 v -4.02 h 1.316"/><path d="m 27.691 24 h -1.313 v -4.02 h 1.313"/></g><path d="m 25.07 32.04 l -1.316 2.684 h 5.254 l -1.313 -2.684" fill="#c8c8c8"/><path d="m 27.691 29.363 h -2.625 v 2.68 h 2.625" fill="#707070"/><path d="m 27.691 29.363 h -2.625 v -1.34 l 1.313 -1.344 h 1.313" fill="#6b5353"/><g fill="#ceff2f"><path d="m 22.438 17.965 c 0 1.109 -0.883 2.01 -1.969 2.01 c -1.09 0 -1.973 -0.902 -1.973 -2.01 c 0 -1.109 0.883 -2.01 1.973 -2.01 c 1.086 0 1.969 0.902 1.969 2.01"/><path d="m 29 17.965 c 0 1.109 -0.883 2.01 -1.969 2.01 c -1.09 0 -1.969 -0.902 -1.969 -2.01 c 0 -1.109 0.879 -2.01 1.969 -2.01 c 1.086 0 1.969 0.902 1.969 2.01"/></g><g fill="#7ebf21"><path d="m 15.871 22.66 h 3.938 v 4.02 h -3.938"/><path d="m 27.691 22.66 h 3.941 v 4.02 h -3.941"/></g><g fill="#a4e253"><path d="m 17.18 22.66 l -1.313 1.34 l 1.313 1.34 c 0 0.742 0.586 1.34 1.313 1.34 c 0.727 0 1.313 -0.598 1.313 -1.34"/><path d="m 30.32 22.66 l -1.316 1.34"/></g></svg>