<svg xmlns="http://www.w3.org/2000/svg" viewBox="0 0 48 48"><path d="m 24.453 47.742 c -4.949 -0.383 -10.742 -2.746 -14.781 -6.03 c -4.91 -3.996 -8.5 -10.121 -9.469 -16.16 c -1.148 -7.977 3.484 -16.551 8.715 -20.621 c 2.629 -1.98 6.109 -3.559 9.371 -4.25 c 8.496 -1.797 17.355 1.605 23.43 8.996 c 3.641 4.426 5.527 8.891 5.988 14.172 c 0.551 6.332 -1.953 13.13 -6.523 17.695 c -5.203 4.309 -10.551 6.648 -16.73 6.207" fill="#9370db"/><path d="m 9.07 19.926 c 0.945 -2.086 3.188 -0.953 3.996 -2.23 c 0.766 -1.207 -1.777 -3.086 -3.352 -3 c 0.559 -0.52 4.148 0.117 5.27 0.148 c 1.352 0.039 -0.758 -2.57 -0.758 -2.57 c 0.496 -0.949 3.09 -0.34 4.121 0.988 c 1.168 1.508 2.934 -2.523 1.875 -3.215 c 2.199 0.102 2.523 3.273 3.656 3.379 c 1.859 0.172 2.23 -0.719 2.57 -1.832 c 1.309 1.266 0.27 2.914 0.941 3.01 c 2.195 1.195 3.809 -2.07 5.02 -0.992 c -1.797 1.191 -3.422 4.641 -0.793 4.648 c 1.281 0.078 1.602 0.27 3.102 1.484 c -3.414 -1.152 -3.477 1.645 -1.906 1.324 c 3.27 -0.664 4.074 1.973 3.711 2.043 c -0.965 -0.473 -6.273 -0.672 -5.793 0.141 c 2.473 4.176 -2.32 5.934 -6.332 6.918 l -8.352 0.059 c -1.531 -0.898 -6.75 -3.523 -6.969 -7.344 c -0.031 -0.527 1.836 0.117 2.23 -0.484 c 1.066 -1.629 -0.141 -2.492 -2.23 -2.469" fill-opacity="0.2"/><path d="m 9.07 19.2 c 0.945 -2.086 3.188 -0.949 3.996 -2.227 c 0.766 -1.211 -1.777 -3.09 -3.352 -3 c 0.559 -0.52 4.148 0.113 5.27 0.148 c 1.352 0.039 -0.758 -2.57 -0.758 -2.57 c 0.496 -0.953 3.09 -0.344 4.121 0.984 c 1.168 1.508 2.934 -2.523 1.875 -3.211 c 2.199 0.102 2.523 3.27 3.656 3.375 c 1.859 0.172 2.23 -0.715 2.57 -1.832 c 1.309 1.266 0.27 2.914 0.941 3.01 c 2.195 1.195 3.809 -2.07 5.02 -0.992 c -1.797 1.191 -3.422 4.641 -0.793 4.652 c 1.281 0.074 1.602 0.266 3.102 1.48 c -3.414 -1.148 -3.477 1.645 -1.906 1.328 c 3.27 -0.668 4.074 1.973 3.711 2.039 c -0.965 -0.469 -6.273 -0.672 -5.793 0.141 c 2.473 4.18 -2.32 5.934 -6.332 6.922 l -8.352 0.055 c -1.531 -0.898 -6.75 -3.523 -6.969 -7.344 c -0.031 -0.527 1.836 0.121 2.23 -0.48 c 1.066 -1.633 -0.141 -2.496 -2.23 -2.473" fill="#ff3c3c"/><g fill-opacity="0.2"><path d="m 20.22 9.313 c 0.219 0.145 0.313 0.43 0.32 0.773 c 1.914 0.379 2.266 3.234 3.336 3.332 c 1.859 0.172 2.234 -0.715 2.57 -1.828 c 0.551 0.531 0.68 1.121 0.703 1.641 c 0.02 -0.613 0.145 -1.551 -0.703 -2.371 c -0.336 1.113 -0.711 2 -2.57 1.832 c -1.133 -0.105 -1.453 -3.277 -3.656 -3.379 m 0.289 1.227 c -0.207 1.336 -1.332 3.063 -2.164 1.988 c -1.027 -1.328 -3.621 -1.938 -4.117 -0.988 c 0 0 0.137 0.172 0.32 0.426 c 0.863 -0.461 2.91 0.148 3.797 1.293 c 0.996 1.285 2.426 -1.457 2.164 -2.719 m 11.422 2.117 c -1.148 -0.113 -2.621 2.258 -4.543 1.211 c -0.148 -0.023 -0.207 -0.133 -0.234 -0.289 c -0.016 0.555 -0.09 0.973 0.234 1.016 c 1.836 1 3.258 -1.105 4.383 -1.199 c 0.203 -0.199 0.418 -0.375 0.633 -0.52 c -0.148 -0.137 -0.309 -0.203 -0.473 -0.219 m -21.316 1.105 c -0.43 0.016 -0.762 0.07 -0.898 0.203 c 0.566 -0.031 1.262 0.199 1.883 0.559 c 1.242 0.078 2.73 0.297 3.383 0.316 c 0.516 0.016 0.527 -0.355 0.344 -0.82 c -0.07 0.063 -0.18 0.098 -0.344 0.094 c -0.84 -0.027 -3.066 -0.391 -4.367 -0.352 m 19.66 2.934 c -0.16 0.867 0.164 1.555 1.336 1.559 c 0.793 0.047 1.219 0.141 1.777 0.488 c 0.371 0.016 0.805 0.09 1.328 0.266 c -1.504 -1.215 -1.82 -1.406 -3.105 -1.48 c -0.813 -0.004 -1.219 -0.34 -1.336 -0.832 m -17.14 0.137 c -0.02 0.047 -0.035 0.094 -0.063 0.137 c -0.809 1.277 -3.051 0.141 -3.996 2.227 c 0.168 0 0.32 0.012 0.48 0.023 c 1.078 -1.098 2.82 -0.426 3.516 -1.52 c 0.168 -0.266 0.168 -0.566 0.063 -0.867 m 18.793 3.207 c -0.301 0.523 0.07 1.191 0.883 1.027 c 2.133 -0.434 3.203 0.531 3.598 1.277 c 0.031 0.012 0.09 0.023 0.113 0.035 c 0.363 -0.07 -0.441 -2.707 -3.711 -2.043 c -0.43 0.086 -0.734 -0.063 -0.883 -0.297 m -20.285 0.922 c -0.063 0.215 -0.168 0.449 -0.336 0.707 c -0.391 0.602 -2.262 -0.047 -2.23 0.484 c 0.008 0.195 0.043 0.387 0.078 0.578 c 0.355 -0.227 1.813 0.191 2.152 -0.332 c 0.379 -0.578 0.469 -1.059 0.336 -1.438 m 19.289 1.965 c -0.191 0.082 -0.281 0.188 -0.203 0.324 c 0.383 0.648 0.578 1.23 0.641 1.77 c 0.082 -0.617 -0.047 -1.309 -0.438 -2.094" fill="#fff"/><path d="m 32.21 23.66 c 0 5.234 -4.348 9.48 -9.711 9.48 c -5.367 0 -9.715 -4.246 -9.715 -9.48 c 0 -5.238 4.348 -9.48 9.715 -9.48 c 5.363 0 9.711 4.242 9.711 9.48"/></g><path d="m 32.21 22.93 c 0 5.234 -4.348 9.48 -9.711 9.48 c -5.367 0 -9.715 -4.246 -9.715 -9.48 c 0 -5.234 4.348 -9.48 9.715 -9.48 c 5.363 0 9.711 4.246 9.711 9.48" fill="#fff"/><path d="m 38.934 28.04 c 0 6.445 -5.352 11.668 -11.957 11.668 c -6.602 0 -11.953 -5.223 -11.953 -11.668 c 0 -6.445 5.352 -11.668 11.953 -11.668 c 6.605 0 11.957 5.223 11.957 11.668" fill-opacity="0.2"/><path d="m 38.934 27.305 c 0 6.445 -5.352 11.668 -11.957 11.668 c -6.602 0 -11.953 -5.223 -11.953 -11.668 c 0 -6.445 5.352 -11.668 11.953 -11.668 c 6.605 0 11.957 5.223 11.957 11.668" fill="#4e4e4e"/><path d="m 26.977 15.637 c -6.602 0 -11.953 5.223 -11.953 11.668 c 0 0.141 0.004 0.281 0.012 0.422 c 0.172 -6.316 5.465 -11.355 11.941 -11.359 c 0.957 0.004 1.91 0.121 2.84 0.348 c -0.293 -0.328 -0.605 -0.637 -0.941 -0.926 c -0.625 -0.098 -1.262 -0.152 -1.898 -0.152" fill-opacity="0.102"/></svg>