<svg xmlns="http://www.w3.org/2000/svg" xmlns:xlink="http://www.w3.org/1999/xlink" viewBox="0 0 48 48"><defs><g id="3" clip-path="url(#2)"><path d="m 34.945 13.973 l -0.883 -0.918 v 0.918 m -16.785 22.906 l -0.883 -0.918 h 0.883 m 0 -21.988 h 17.668 v 22.906 h -17.668" fill-rule="evenodd"/><path d="m 16.395 13.05 h 17.668 v 22.906 h -17.668"/><path d="m 18.16 19.469 l 6.184 6.414 v 0.918 l 0.883 0.914 l 0.887 -0.914 v -0.918 l 6.184 -6.414 h -4.418 l -0.883 0.918 v 1.336 h -1.105 l -0.039 -0.691 l 0.523 -0.492 l -0.371 -0.008 l -0.344 0.305 l -0.094 -0.25 l 0.742 -0.633 l -0.477 -0.348 l -0.75 0.605 l -0.527 0.148 l 0.012 1.363 h -1.105 v -1.336 l -0.883 -0.918" fill-rule="evenodd"/><path d="m 17.277 19.469 l 1.766 1.832 h -1.766" fill-rule="evenodd"/><path d="m 17.277 22.22 h 2.648 l 1.77 1.832 h -4.418" fill-rule="evenodd"/><path d="m 17.277 24.969 h 5.301 l 0.883 0.914 v 0.918 h -6.184" fill-rule="evenodd"/><path d="m 33.18 19.469 l -1.766 1.832 h 1.766" fill-rule="evenodd"/><path d="m 33.18 22.22 h -2.652 l -1.766 1.832 h 4.418" fill-rule="evenodd"/><path d="m 33.18 24.969 h -5.301 l -0.883 0.914 v 0.918 h 6.184" fill-rule="evenodd"/><path d="m 24.371 22.22 h 1.766 v 1.832 l -0.883 0.918 l -0.883 -0.918"/><path d="m 24.785 24.11 l -0.313 -0.324 l 1.25 -1.293 l 0.313 0.324"/></g><clipPath id="2"><path d="M 0,0 H48 V48 H0 z"/></clipPath><filter id="0" filterUnits="objectBoundingBox" x="0" y="0" width="48" height="48"><feColorMatrix type="matrix" in="SourceGraphic" values="0 0 0 0 1 0 0 0 0 1 0 0 0 0 1 0 0 0 1 0"/></filter><mask id="1"><g filter="url(#0)"><path fill-opacity="0.102" d="M 0,0 H48 V48 H0 z"/></g></mask></defs><path d="m 9.895 43.32 c 36.09 23.992 58.31 -52.52 11.664 -42.39 c -19.277 4.316 -30.98 31.387 -11.664 42.39" fill="#e8ddaf"/><use xlink:href="#3" mask="url(#1)"/><path d="m 34.06 13.05 l -0.883 -0.914 v 0.914 m -16.785 22.906 l -0.883 -0.914 h 0.883 m 0 -21.992 h 17.668 v 22.906 h -17.668" fill="#e8ddaf" fill-rule="evenodd"/><path d="m 15.512 12.141 h 17.668 v 22.906 h -17.668" fill="#473636"/><g fill-rule="evenodd"><path d="m 17.277 18.555 l 6.184 6.414 v 0.914 l 0.883 0.918 l 0.883 -0.918 v -0.914 l 6.188 -6.414 h -4.418 l -0.883 0.914 v 1.34 h -1.105 l -0.043 -0.691 l 0.527 -0.496 l -0.371 -0.004 l -0.344 0.301 l -0.098 -0.246 l 0.746 -0.637 l -0.477 -0.344 l -0.754 0.602 l -0.527 0.148 l 0.012 1.363 h -1.102 v -1.336 l -0.883 -0.918" fill="#a00"/><g fill="#666"><path d="m 16.395 18.555 l 1.766 1.832 h -1.766"/><path d="m 16.395 21.301 h 2.648 l 1.77 1.836 h -4.418"/><path d="m 16.395 24.05 h 5.301 l 0.883 0.918 v 0.914 h -6.184"/><path d="m 32.3 18.555 l -1.77 1.832 h 1.77"/><path d="m 32.3 21.301 h -2.652 l -1.766 1.836 h 4.418"/><path d="m 32.3 24.05 h -5.301 l -0.883 0.918 v 0.914 h 6.184"/></g></g><path d="m 23.488 21.301 h 1.766 v 1.836 l -0.883 0.914 l -0.883 -0.914" fill="#473636"/><path d="m 23.902 23.19 l -0.313 -0.324 l 1.25 -1.297 l 0.313 0.324" fill="#a00"/></svg>