<svg xmlns="http://www.w3.org/2000/svg" viewBox="0 0 48 48"><path d="m 24.2 0.84 c 31.898 -3.559 31.457 47.34 -0.566 46.73 c -29.785 1.68 -32.469 -49.5 0.566 -46.73" fill="#030309"/><path d="m 20.27 36.543 c 0 -0.051 0.27 -0.527 0.598 -1.051 c 0.59 -0.945 0.738 -1.473 0.449 -1.57 c -0.082 -0.027 -1.484 -0.113 -3.113 -0.188 c -2.813 -0.133 -2.977 -0.125 -3.207 0.082 c -0.496 0.461 -0.785 1.59 -0.453 1.797 c 0.215 0.133 0.129 0.648 -0.137 0.793 c -0.602 0.324 -1.574 -0.223 -1.781 -1 c -0.074 -0.277 -0.18 -2.246 -0.238 -4.379 c -0.055 -2.129 -0.102 -3.887 -0.105 -3.902 c -0.023 -0.098 -0.508 0 -1.055 0.211 c -0.648 0.25 -2.219 0.34 -2.344 0.137 c -0.109 -0.176 -0.406 -2.969 -0.617 -5.754 c -0.238 -3.188 -0.195 -4.598 0.176 -5.445 c 0.285 -0.656 0.797 -1.27 1.055 -1.27 c 0.352 0 0.969 -0.441 1.941 -1.387 c 1.332 -1.301 1.395 -1.328 2.309 -1.148 c 1.836 0.105 2.539 -0.148 4.523 -0.465 l 1.012 0.297 c 1.273 0.375 2.133 0.715 2.543 1.012 c 0.375 0.27 0.676 1.195 1.133 3.477 c 0.277 1.383 0.563 2.324 0.703 2.324 c 0.035 0 0.262 -0.137 0.504 -0.301 l 0.441 -0.305 l 0.406 0.242 c 0.863 0.52 0.887 0.484 1.469 -2.297 c 0.453 -2.176 0.59 -2.664 0.813 -2.93 c 0.438 -0.523 2.918 -1.422 3.926 -1.422 c 0.359 0 1.328 0.117 2.148 0.258 c 1.152 0.316 1.953 0.086 3.03 -0.016 c 0.117 0 0.816 0.566 1.555 1.262 c 0.949 0.891 1.461 1.281 1.734 1.332 c 0.25 0.047 0.523 0.234 0.75 0.52 c 0.594 0.727 0.727 1.316 0.727 3.266 c 0 2.859 -0.531 8.301 -0.852 8.691 c -0.203 0.25 -1.426 0.203 -2.16 -0.078 c -0.816 -0.316 -1.031 -0.305 -1.164 0.051 c -0.059 0.16 -0.16 1.922 -0.223 3.914 c -0.102 3.18 -0.145 3.688 -0.348 4.156 c -0.344 0.789 -1.316 1.195 -1.871 0.785 c -0.203 -0.148 -0.203 -0.184 -0.023 -0.539 c 0.273 -0.531 0.254 -1.418 -0.035 -1.711 c -0.324 -0.328 -1.301 -0.422 -3.406 -0.32 c -2.332 0.113 -3.375 0.23 -3.547 0.406 c -0.105 0.105 0.035 0.402 0.598 1.242 c 0.406 0.609 0.707 1.152 0.668 1.215 c -0.102 0.168 -0.508 0.129 -0.82 -0.082 c -0.156 -0.102 -0.555 -0.582 -0.887 -1.066 c -0.328 -0.484 -0.68 -0.945 -0.777 -1.027 c -0.129 -0.109 -0.629 -0.141 -1.785 -0.113 c -1.855 0.047 -1.816 0.027 -2.652 1.332 c -0.281 0.441 -0.621 0.863 -0.754 0.938 c -0.277 0.148 -0.852 0.172 -0.852 0.031" fill="#cf222d"/><path d="m 20.04 27.852 c -0.828 -0.27 -2.668 -1.113 -2.668 -1.227 c 0 -0.055 0.926 -0.867 2.059 -1.805 l 2.055 -1.699 l 2.813 -0.066 l 2.809 -0.07 l 1.363 1.121 c 0.75 0.621 1.645 1.391 1.984 1.715 c 0.602 0.578 0.613 0.598 0.371 0.766 c -0.531 0.367 -2.266 1.086 -2.883 1.191 c -0.359 0.059 -2.172 0.137 -4.03 0.172 c -2.699 0.051 -3.477 0.031 -3.871 -0.098" fill="#537f93"/><g fill="#355459"><path d="m 14.578 24.22 c 0.031 -0.516 0.121 -2.133 0.195 -3.598 c 0.156 -3.137 0.297 -4.41 0.531 -4.875 c 0.461 -0.898 2.375 -2.559 2.953 -2.559 c 0.293 0 0.656 0.609 0.82 1.383 c 0.152 0.699 1.129 6.574 1.25 7.527 l 0.082 0.633 l -2.406 1.211 c -1.98 1 -2.504 1.215 -2.949 1.215 h -0.539"/><path d="m 32.438 24.992 c -1.141 -0.504 -3.695 -1.859 -3.926 -2.086 c -0.156 -0.148 -0.148 -0.355 0.039 -1.711 c 0.414 -2.949 1.148 -6.809 1.395 -7.293 c 0.172 -0.344 0.313 -0.473 0.512 -0.473 c 0.508 0 2.125 1.23 2.711 2.063 c 0.414 0.59 0.59 1.656 0.711 4.344 c 0.063 1.43 0.176 3.184 0.254 3.898 c 0.191 1.852 -0.012 2 -1.695 1.258"/></g><g fill="#cf222d"><path d="m 17.379 35.961 c 2.078 0 3.766 0.184 3.766 0.414 c 0 0.23 -1.688 0.414 -3.766 0.414 c -2.082 0 -3.766 -0.184 -3.766 -0.414 c 0 -0.23 1.684 -0.414 3.766 -0.414"/><path d="m 31.598 35.875 c 2.078 0 3.766 0.184 3.766 0.414 c 0 0.23 -1.688 0.414 -3.766 0.414 c -2.078 0 -3.766 -0.184 -3.766 -0.414 c 0 -0.23 1.688 -0.414 3.766 -0.414"/></g><g fill="#fff"><path d="m 15.1 31.852 c -0.301 -0.191 -0.68 -0.531 -0.848 -0.754 c -0.371 -0.496 -0.73 -1.707 -0.633 -2.113 c 0.105 -0.418 0.57 -0.574 1.074 -0.359 c 0.363 0.152 0.434 0.273 0.77 1.297 c 0.203 0.621 0.406 1.391 0.449 1.707 c 0.094 0.695 -0.023 0.73 -0.813 0.223"/><path d="m 33.68 31.816 c 0.297 -0.191 0.68 -0.531 0.848 -0.754 c 0.371 -0.496 0.73 -1.707 0.629 -2.113 c -0.102 -0.418 -0.57 -0.574 -1.074 -0.359 c -0.359 0.152 -0.43 0.273 -0.77 1.297 c -0.203 0.621 -0.402 1.391 -0.445 1.707 c -0.094 0.695 0.023 0.73 0.813 0.223"/></g></svg>