<svg xmlns="http://www.w3.org/2000/svg" viewBox="0 0 48 48"><path d="m 1.703 29.07 c 3.602 24.613 39.453 25.352 44.875 1.426 c 5.574 -19.371 -14.617 -35.21 -29.723 -28.859 c -10.117 2.996 -18.289 15.273 -15.15 27.434" fill="#efffef"/><path d="m 117.71 135.33 h -21.521 v -14 h 21.896 v 9.188 c -0.104 4.75 -0.375 4.25 -0.375 4.813" transform="scale(0.1875)" fill="#909590" stroke="#909590" stroke-width="0.259"/><path d="m 27.04 33.953 c 0 -0.336 -0.039 -0.617 -0.094 -0.676 c -0.055 -0.059 -0.309 -0.102 -0.582 -0.102 h -0.488 l -0.059 -1.273 c -0.043 -0.934 -0.031 -1.301 0.035 -1.391 c 0.059 -0.078 0.285 -0.129 0.621 -0.145 l 0.527 -0.027 l 0.023 -0.547 l 0.023 -0.551 l 1.879 -0.031 c 1.289 -0.02 1.895 -0.059 1.934 -0.125 c 0.035 -0.055 0.051 -1.926 0.039 -4.156 l -0.016 -4.063 l -0.602 -0.023 c -0.438 -0.02 -0.629 0.008 -0.691 0.09 c -0.063 0.082 -0.098 0.93 -0.113 2.734 l -0.02 2.613 l -0.613 0.023 l -0.617 0.027 v 1.246 l -0.574 0.055 c -1.09 0.102 -3.188 0.141 -4.391 0.082 l -1.211 -0.055 v -1.227 l 3.066 -0.059 c 1.688 -0.031 3.078 -0.074 3.098 -0.094 c 0.016 -0.016 0.059 -1.793 0.098 -3.949 c 0.035 -2.152 0.066 -3.926 0.07 -3.938 c 0.004 -0.012 0.273 -0.02 0.598 -0.02 h 0.594 v 0.512 c 0 0.852 -0.016 0.84 1.301 0.84 h 1.137 l 0.055 1.289 c 0.027 0.711 0.043 3.117 0.027 5.352 l -0.023 4.059 l -2.457 0.043 l -2.453 0.043 l 0.023 1.266 c 0.016 0.695 0.043 1.285 0.066 1.309 c 0.07 0.078 5.949 0.051 6.02 -0.023 c 0.039 -0.039 0.074 -3.352 0.082 -7.359 c 0.012 -5.973 0.031 -7.289 0.117 -7.305 c 0.059 -0.008 0.348 -0.027 0.641 -0.043 l 0.535 -0.031 v 14.809 l -0.684 -0.031 l -0.68 -0.027 l 0.055 1.453 h -6.293 v -0.574 m -6.242 -8.918 l 0.023 -1.289 l 0.57 -0.027 l 0.57 -0.023 l 0.047 -1.219 l 0.793 -0.059 c 0.434 -0.035 1.246 -0.039 1.801 -0.012 c 0.672 0.031 1.043 0.02 1.113 -0.043 c 0.082 -0.074 0.102 -1.023 0.098 -4.789 l -0.004 -4.695 h 1.223 l 0.023 0.695 l 0.02 0.699 l 2.336 0.148 v 1.074 l -2.336 0.047 l -0.02 4.078 l -0.02 4.082 h -5.09 l 0.059 1.313 l 0.059 1.309 h -1.285 m 10.141 -8.711 v -0.594 h 0.305 c 0.168 0 0.684 0.027 1.148 0.055 l 0.844 0.059 v 1.07 h -2.297 m -1.34 -1.387 c -0.055 -0.07 -0.086 -0.32 -0.07 -0.613 l 0.023 -0.492 h 1.266 l 0.027 0.418 c 0.043 0.762 0.012 0.809 -0.613 0.809 c -0.371 0 -0.57 -0.039 -0.633 -0.121" fill="#4f9510"/><path d="m 145.42 170.36 c 0 -0.917 -0.118 -3.896 -0.276 -6.625 l -0.296 -4.979 h 10.381 c 5.704 0 11.427 -0.125 12.71 -0.292 l 2.329 -0.271 l -0.059 -25.688 c -0.039 -14.1 -0.178 -27.06 -0.336 -28.772 l -0.276 -3.083 l -4.875 -0.313 c -7.914 -0.521 -7.07 -0.063 -7.322 -3.896 l -0.217 -3.313 l -6.75 -0.25 l -0.316 19.792 c -0.158 10.896 -0.414 20.417 -0.533 21.19 l -0.257 1.396 l -4.5 0.25 c -2.467 0.146 -9.216 0.375 -14.999 0.521 l -10.519 0.292 l -0.217 -1.5 c -0.138 -0.813 -0.316 -3.896 -0.395 -6.875 l -0.158 -5.417 h 25.992 v -43.626 l 2.052 -0.292 c 1.145 -0.146 3.789 -0.271 5.881 -0.271 h 3.829 v 3.063 c 0 3.917 0.493 4.5 3.947 4.542 c 1.401 0 2.763 -0.208 3.039 -0.479 c 0.296 -0.292 0.454 -1.667 0.395 -3.313 l -0.099 -2.813 l 2.329 0.229 c 1.303 0.104 2.368 0.229 2.408 0.25 c 0.02 0.042 0.158 1.396 0.316 3.042 l 0.257 2.979 h -5.329 l 0.138 3.438 l 0.118 3.417 l 6.138 0.229 l 6.138 0.208 l -0.099 14.584 c -0.059 8.02 -0.217 25.73 -0.375 39.33 l -0.257 24.751 l -14.979 0.125 l -14.959 0.104" transform="matrix(0.19793 0 0 0.18749 -1.491 0.817)" fill="#72ce19" stroke="#72ce19" stroke-width="0.282"/><g fill="#565b53" stroke="#565b53" stroke-width="0.28"><g transform="matrix(0.19793 0 0 0.18749 -1.122 0)"><path d="m 122.78 180.19 c 0 -2.229 0.138 -8.646 0.296 -14.271 l 0.276 -10.209 c 1.717 0 3.434 0 5.131 0 v 3.688 c 0 3.438 0.079 3.708 0.987 3.938 c 1.717 0.458 5.408 0.313 5.96 -0.25 c 0.967 1.833 0.533 3.792 0.533 6.688 h -7.48 c 0.237 1.938 -0.77 7.563 0.987 8.06 c 1.638 0.438 4.717 0.313 5.743 -0.229 c 1.401 -0.75 5.664 -0.479 6.335 0.396 c 0.71 2.167 0.553 3.958 0.553 6.271 h -19.321"/><path d="m 123.07 102.92 c -0.375 -11.292 -0.375 -26.897 0 -30.751 l 0.276 -2.958 c 1.717 0 3.434 0 5.131 0 l 0.02 3.396 c 0 1.875 0.197 3.708 0.414 4.063 c 0.592 0.938 6.02 0.938 6.611 0 c 0.75 2.02 0.434 5.25 0.118 7.04 c -0.414 -1.063 -1.46 -0.354 -3.809 -0.354 c -3.513 0 -3.138 -0.958 -3.02 5.709 c 0.059 3.208 -0.257 9.646 -0.158 14.292 l 0.316 15.688 c -3.908 -0.583 -3.414 -0.208 -5.802 -0.563"/><path d="m 135.8 156.06 c -0.336 -7.542 -0.592 -8 -0.592 -8 l 6.947 -0.313 l -0.493 0.958 c 0.474 4.333 -0.02 6.438 0.118 10.08 l 0.099 2.854 c -1.776 0.167 -3.612 0.292 -5.309 0.771 c -0.336 0.208 -0.572 -1.688 -0.77 -6.354"/></g><path d="m 80.28 122.38 v -57.52 h 5.704 v 7.459 h 7.48 v -7.459 h 5.269 v 115.07 h -18.453 m 10.874 -6.438 l 2.309 -0.271 v -7.792 h -7.48 v 3.917 c 0 4.667 0.118 4.75 5.171 4.146 m 1.322 -14.48 c 0.928 -0.25 0.987 -0.5 0.987 -4.167 v -3.917 h -7.48 v 3.917 c 0 2.729 0.178 4 0.553 4.146 c 0.789 0.313 4.776 0.333 5.94 0.021 m 0.888 -18.501 l 0.118 -4.063 h -7.499 v 3.917 c 0 2.708 0.178 3.979 0.553 4.146 c 0.316 0.125 1.934 0.188 3.631 0.146 l 3.079 -0.083 m 0.217 -18.459 v -4.167 h -7.48 v 3.875 c 0 2.146 0.138 4.02 0.296 4.167 c 0.158 0.167 1.855 0.313 3.73 0.313 h 3.454 m -0.099 -18.563 l -0.118 -4.063 l -7.263 -0.25 v 3.896 c 0 2.125 0.138 4.02 0.296 4.188 c 0.158 0.146 1.855 0.292 3.75 0.292 h 3.473 m -0.039 -18.459 v -3.938 h -7.48 v 3.646 c 0 2.02 0.138 3.792 0.296 3.958 c 0.158 0.167 1.855 0.292 3.73 0.292 h 3.454 m 0 -18.438 v -3.958 h -7.48 v 3.667 c 0 2 0.138 3.792 0.296 3.938 c 0.158 0.167 1.855 0.313 3.73 0.313 h 3.454" transform="matrix(0.19793 0 0 0.18749 -1.491 0.817)"/></g><g transform="scale(0.1875)"><g fill="#909590" stroke="#909590" stroke-width="0.286"><path d="m 123.02 76.38 h -26.27 v -6.563 h 26.958 l -0.125 7.542 c 0 0 -0.021 0.521 -0.563 -0.979"/><path d="m 96.75 181.4 v -3.25 l 13.354 -0.125 l 13.375 -0.125 v 6.771 h -26.729"/><path d="m 122.85 109.06 h -26.292 v -13.979 h 26.75 v 9.167 c -0.104 4.75 -0.438 4.25 -0.458 4.813"/><path d="m 122.85 163.71 h -26.292 v -13.979 h 26.75 v 9.167 c -0.104 4.771 -0.438 4.25 -0.458 4.813"/></g><g fill="#565b53" stroke="#565b53" stroke-width="0.161"><path d="m 137.42 97.71 h -8.146 v -6.667 h 8.375 l -0.042 7.667 c 0 0 -0.021 0.521 -0.188 -1"/><path d="m 137.04 110.83 h -8.146 v -6.667 h 8.375 l -0.042 7.667 c 0 0 0 0.521 -0.188 -1"/></g></g></svg>