<svg xmlns="http://www.w3.org/2000/svg" viewBox="0 0 48 48"><path d="m 23.758 47.39 c 4.867 -0.379 10.566 -2.715 14.535 -5.965 c 4.832 -3.949 8.363 -10.01 9.313 -15.98 c 1.133 -7.887 -3.426 -16.367 -8.566 -20.391 c -2.59 -1.961 -6.01 -3.52 -9.219 -4.199 c -8.352 -1.777 -17.07 1.586 -23.04 8.891 c -3.578 4.379 -5.434 8.793 -5.887 14.02 c -0.543 6.262 1.922 12.977 6.418 17.496 c 5.113 4.262 10.375 6.574 16.449 6.137" fill="#778799"/><path d="m 39.43 24.23 c 0 8.234 -6.855 14.91 -15.316 14.91 c -8.457 0 -15.316 -6.676 -15.313 -14.91 c -0.004 -8.234 6.855 -14.91 15.313 -14.91 c 8.461 0 15.316 6.676 15.316 14.91" fill="#670000"/><path d="m 22.699 27.344 c -3.473 -0.203 -5.832 -0.832 -11.434 -3.043 l -0.797 -0.313 l 0.039 -0.332 c 0.5 -4.582 3.207 -8.637 7.203 -10.805 c 1.563 -0.844 2.984 -1.316 4.777 -1.59 c 0.867 -0.133 3.102 -0.113 3.996 0.035 c 5.922 0.969 10.539 5.465 11.59 11.277 c 0.082 0.449 0.164 0.996 0.188 1.219 l 0.035 0.398 l -1.01 0.496 c -3.184 1.563 -5.352 2.203 -8.762 2.598 c -0.793 0.09 -4.613 0.129 -5.828 0.059" fill="#ec4343"/><path d="m -93.79 86.71 c -17.896 -2.832 -23.512 -0.813 -12.651 -26.638 c 1.324 -6.266 12.449 -2.045 19.648 -0.341 c 10.692 2.517 29.395 -0.865 33.938 -3.33 c 13.861 -9.02 -1.594 -22.889 -8.596 -23.78 c -27.868 -3.513 -34.918 -18.248 -31.22 -42.4 c 2.609 -9.177 10.209 -21.342 31.695 -23.649 c 24.38 0.341 34.28 0.918 43.44 2.517 c 6.566 1.101 12.09 2.229 12.321 2.491 c 1.046 1.049 -4.172 21.342 -5.49 21.342 c -0.729 0 -4.457 -1.206 -8.276 -2.701 c -26.375 -10.33 -49.5 -5.768 -49.48 9.727 c 0.004 7.367 1.837 8.757 19.373 14.814 c 25.823 8.914 33.34 16.1 32.31 32.852 c -0.586 9.806 -5.355 18.851 -10.963 24.882 c -12.928 13.844 -22.566 16.387 -66.06 14.211" transform="matrix(0.11259 0 -0.00801 0.14899 30.875 20.601)" fill="#fff" stroke="#fff" stroke-width="3.232"/></svg>