<svg xmlns="http://www.w3.org/2000/svg" viewBox="0 0 48 48"><g fill="#fff"><path d="m 17.363 23.371 v 9.352 c 0 5.613 0.965 5.613 9.625 5.613 h 1.926 c 8.664 0 9.625 0 9.625 -5.613 v -9.352 c 0 -5.613 -0.961 -5.613 -9.625 -5.613 h -1.926 c -8.66 0 -9.625 0 -9.625 5.613 m 9.625 -3.742 h 1.926 c 7.699 0 7.699 0 7.699 3.742 v 6.547 c 0 3.742 0 3.742 -7.699 3.742 h -1.926 c -7.699 0 -7.699 0 -7.699 -3.742 v -6.547 c 0 -3.742 0 -3.742 7.699 -3.742"/><path d="m 21.21 30.09 v -3.629 l 3.367 -3.402 l 4.215 4.254 l 1.684 -1.703 l 4.211 4.254 v 0.227 c 0 1.699 -0.277 1.699 -3.367 1.699 h -6.738 c -3.086 0 -3.367 0 -3.367 -1.699"/><path d="m 34.688 23.371 c 0 1.031 -0.859 1.871 -1.922 1.871 c -1.066 0 -1.926 -0.84 -1.926 -1.871 c 0 -1.035 0.859 -1.871 1.926 -1.871 c 1.063 0 1.922 0.836 1.922 1.871"/><path d="m 23.14 14.02 c -8.664 0 -9.625 0 -9.625 5.613 v 9.355 c 0 3.039 0.285 4.438 1.926 5.074 v -14.43 c 0 -3.387 0.059 -3.703 5.773 -3.73 v -0.012 h 13 c -0.848 -1.871 -3.148 -1.871 -9.152 -1.871"/><path d="m 19.289 10.273 c -8.66 0 -9.625 0 -9.625 5.613 v 9.355 c 0 3.043 0.285 4.438 1.926 5.074 v -14.43 c 0 -3.387 0.059 -3.703 5.773 -3.73 v -0.012 h 13 c -0.848 -1.867 -3.148 -1.871 -9.152 -1.871"/></g><path d="m 39.461 7.133 c 37.523 49.734 -65.734 56.805 -32.598 6.04 c 7.555 -11.574 22.66 -19.21 32.598 -6.04" fill="#4581b3"/><g fill="#fff"><path d="m 20.945 38.484 c -5.453 -1.379 -9.805 -5.301 -11.1 -10 c -0.43 -1.555 -0.605 -5.324 -0.324 -6.793 c 0.125 -0.641 0.633 -1.953 1.129 -2.914 c 1.68 -3.234 3.805 -5.234 7.344 -6.906 c 2.418 -1.141 3.422 -1.344 6.699 -1.344 c 2.914 0 4.227 0.273 6.559 1.363 c 4.086 1.906 6.922 5.168 8.227 9.457 c 0.516 1.695 0.555 4.723 0.078 6.473 c -1.32 4.871 -5.398 8.906 -10.574 10.469 c -2.09 0.629 -5.953 0.723 -8.04 0.195 m 1.313 -1.434 c 0.355 -0.367 0.742 -0.484 1.957 -0.594 c 4.395 -0.398 7.523 -1.707 9.02 -3.766 c 1.324 -1.828 1.66 -4.074 0.934 -6.309 c -0.75 -2.32 -2.539 -3.996 -6.445 -6.04 c -2.195 -1.145 -4.707 -2.797 -5.426 -3.574 c -0.578 -0.617 -0.297 -1 0.73 -1 c 1.117 0 1.813 0.531 2.551 1.941 c 0.66 1.258 1.484 1.746 2.965 1.746 c 0.816 0 1.082 -0.098 1.578 -0.566 c 0.949 -0.906 0.723 -2.02 -0.66 -3.23 c -1.777 -1.559 -3.906 -2.121 -6.852 -1.809 c -1.871 0.199 -2.898 0.609 -4.102 1.648 c -0.969 0.836 -1.309 1.742 -1.164 3.098 c 0.246 2.246 1.516 3.98 4.133 5.621 c 1.398 0.879 1.723 1.172 1.672 1.516 c -0.059 0.391 -0.207 0.43 -1.996 0.523 c -1.164 0.059 -2.367 0.25 -3.02 0.48 c -1.129 0.395 -2.52 1.391 -2.91 2.086 c -0.352 0.625 -0.223 2.41 0.242 3.414 c 0.539 1.164 0.992 1.617 2.797 2.785 c 0.887 0.57 1.57 1.168 1.691 1.473 c 0.316 0.797 0.586 1.016 1.254 1.016 c 0.379 0 0.777 -0.172 1.055 -0.457"/><path d="m 19.75 32.664 c -1.082 -0.828 -1.477 -1.652 -1.039 -2.176 c 0.289 -0.352 1.703 -0.895 2.785 -1.078 c 0.512 -0.086 0.711 -0.039 0.711 0.18 c 0 0.504 -0.844 3.051 -1.145 3.465 c -0.27 0.367 -0.352 0.344 -1.313 -0.391"/><path d="m 23.516 32.359 c 0 -0.512 0.715 -1.992 0.965 -1.992 c 0.316 0 1.215 0.809 1.215 1.094 c 0 0.277 -0.848 0.809 -1.582 0.988 c -0.375 0.09 -0.598 0.059 -0.598 -0.09"/><path d="m 24.598 34.21 c 1.672 -0.215 3.316 -1.07 3.797 -1.973 c 0.176 -0.34 0.258 -1.117 0.215 -2.117 l -0.066 -1.578 l -1.293 -1.305 c -1.43 -1.445 -1.484 -1.938 -0.109 -0.984 c 0.887 0.613 1.879 1.73 2.375 2.676 c 0.805 1.535 -0.168 3.859 -2.01 4.809 c -0.785 0.402 -1.449 0.551 -2.723 0.598 l -1.68 0.063"/></g></svg>