<svg xmlns="http://www.w3.org/2000/svg" viewBox="0 0 48 48"><path d="m 9.895 43.32 c 36.09 23.992 58.31 -52.52 11.664 -42.39 c -19.281 4.316 -30.98 31.383 -11.664 42.39" fill="#79c1e0"/><path d="m 34.12 24.508 c 0 5.449 -4.688 9.863 -10.469 9.863 c -5.785 0 -10.473 -4.414 -10.473 -9.863 c 0 -5.449 4.687 -9.863 10.473 -9.863 c 5.781 0 10.469 4.414 10.469 9.863" fill="#ededed"/><path d="m 84.74 193.92 c -18.521 -2.354 -38.39 -9.396 -54.15 -19.19 c -10.789 -6.688 -22.837 -16.958 -22.837 -19.417 c 0 -1.979 1.618 -1.333 8.766 3.521 c 24.68 16.75 61.54 26.292 92.47 23.958 c 12.07 -0.917 16.7 -1.875 26.568 -5.563 c 17.42 -6.5 26.792 -16.688 25.983 -28.25 c -0.539 -7.771 -4.02 -14.208 -12.497 -23.04 c -4 -4.208 -7.305 -8.167 -7.305 -8.771 c 0 -3.479 11.733 -1.938 21.87 2.854 c 6.743 3.188 15.756 11.417 18.678 17.04 c 2.967 5.729 2.495 13.417 -1.326 21.15 c -5.777 11.771 -24.25 26.583 -38.548 30.938 c -18.05 5.521 -38.503 7.208 -57.676 4.771 m 97.39 -18.1 c -0.427 -0.688 0.247 -1.813 1.686 -2.75 c 6.653 -4.333 12.542 -10.125 15.329 -15.06 c 2.63 -4.646 3.079 -6.5 3.034 -12 c -0.112 -10.313 -3.237 -16.854 -12.317 -25.958 c -11.418 -11.417 -24.747 -17.02 -40.841 -17.208 c -9.395 -0.104 -13.284 1.542 -13.284 5.625 c 0 3.563 -1.641 3.979 -4.473 1.146 c -3.057 -3.042 -3.416 -8.5 -0.742 -10.917 c 7.103 -6.417 28.1 -6.188 46.01 0.5 c 14.07 5.271 29.49 18.271 34.749 29.31 c 3.844 8.06 4.136 19.729 0.697 26.23 c -3.192 6 -7.732 10.854 -14.16 15.188 c -9.822 6.604 -14.228 8.271 -15.689 5.896 m -89.39 -26.292 c -14 -2.875 -25.691 -9.104 -34.14 -18.208 c -5.529 -5.958 -7.238 -9.104 -8.676 -15.896 c -2.293 -10.833 3.956 -22.875 16.993 -32.708 c 7.687 -5.792 14.902 -8.458 14.767 -5.458 c -0.022 0.688 -2.697 3.146 -5.956 5.458 c -9.755 6.958 -15.532 16.896 -15.329 26.354 c 0.112 5.167 3.844 12.813 8.654 17.771 c 7.799 8.04 17.195 12.1 28.726 12.458 c 7.53 0.229 8.923 -0.563 8.946 -5.04 c 0.022 -1.229 0.27 -2.25 0.584 -2.25 c 1.978 0 4.653 2.583 5.979 5.75 c 3.911 9.354 -5.642 14.833 -20.544 11.771 m -0.09 -24.979 c -8.968 -3.313 -16.453 -8.958 -19.487 -14.75 c -4.428 -8.438 1.618 -21.583 14.228 -30.896 c 15.734 -11.625 36.37 -16.896 65.857 -16.854 c 30.389 0.042 55.765 5.25 79.77 16.375 c 16.521 7.667 14.16 9.396 -4.54 3.354 c -18.678 -6.06 -26.1 -7.771 -44.527 -10.25 c -32.434 -4.375 -70.06 2.313 -84.02 14.938 c -8.451 7.646 -9.148 16.625 -2.293 29.813 c 2.27 4.333 4.113 8.313 4.113 8.813 c 0 1.313 -4.877 1.021 -9.103 -0.542" transform="matrix(0.17379 0 0 0.1875 1.93 0.203)" fill="#0082c6" stroke="#0082c6"/></svg>