<svg xmlns="http://www.w3.org/2000/svg" viewBox="0 0 48 48"><path d="m 15.387 0.703 c 67.41 -8.41 11.535 88.3 -13.223 26.43 c -3.797 -10.871 -0.5 -23.1 13.223 -26.43" fill="#226c9f"/><g transform="scale(0.1875)"><path d="m 56.44 58.813 h 138.15 v 98.9 h -138.15" fill="#c8c9c9" stroke="#b7b2b2" stroke-width="3.223"/><path d="m 65.48 69.06 h 118.06 v 77.08 h -118.06" fill="#226c9f" stroke="#43687e" stroke-width="2.631"/><g fill="#fff" stroke="#fff"><path d="m 69.792 76.6 h 27.396 v 16.521 h -27.396" stroke-width="0.587"/><path d="m 70.4 122.02 h 16.17 v 19.25 h -16.17" stroke-width="0.487"/><path d="m 69.75 99.65 h 22.5 v 16.583 h -22.5" stroke-width="0.533"/></g></g><path d="m 33.758 25.668 v -3.895 h -4.059 l -2.871 -2.754 l -2.871 2.754 h -4.059 v 3.895 l -2.871 2.758 l 2.871 2.754 v 3.895 h 4.059 l 2.871 2.754 l 2.871 -2.754 h 4.059 v -3.895 l 2.871 -2.754 m -9.801 4.984 c -2.871 0 -5.195 -2.23 -5.195 -4.984 c 0 -2.758 2.324 -4.988 5.195 -4.988 c 2.871 0 5.199 2.23 5.199 4.988 c 0 2.754 -2.328 4.984 -5.199 4.984 m 0 -8.313 c -1.914 0 -3.465 1.488 -3.465 3.328 c 0 1.836 1.551 3.324 3.465 3.324 c 1.914 0 3.465 -1.488 3.465 -3.324 c 0 -1.84 -1.551 -3.328 -3.465 -3.328" fill="#fff"/></svg>