<svg xmlns="http://www.w3.org/2000/svg" viewBox="0 0 48 48"><path d="m 0.609 29.492 c 9.371 44.984 73.848 -3.305 35.12 -26.17 c -15.05 -9.801 -39.938 3.039 -35.12 26.17" fill="#ac0805"/><g stroke="#000" stroke-width="0.972" transform="scale(0.1875)"><path d="m 54.31 153.15 c 0.354 -0.563 1.25 -1.042 1.979 -1.042 c 2.563 -0.604 4.417 -2.667 6.563 -3.896 c 9.354 -5.271 36.854 -30.13 42.646 -38.563 c 2.854 -4.125 3.625 -8.813 1.792 -10.646 c -0.708 -0.708 -0.583 -1.375 0.375 -2.167 c 1.083 -0.917 2.542 -0.729 6.708 0.833 c 2.938 1.104 6.04 2.792 6.917 3.75 c 2.625 3.146 -5.854 7.813 -1.875 7.917 c 0.75 0 2.667 1.104 4.271 2.438 c 3.25 2.292 6.896 4.167 9.521 6.313 c 2 2.792 6.333 3.208 8.271 5.5 c 2.479 2.5 5.604 3.354 8.625 5.104 c 4.646 2.729 15.979 7.854 17.354 7.875 c 0.875 0 3.604 1.021 6.083 2.271 c 13.208 6.708 18.604 4.938 20.292 -6.604 c 0.958 -7.333 0.729 -4.646 0.854 0.854 c 0.104 5.25 -0.896 10.375 -2.792 14.167 c -0.583 1.167 -2.5 1.396 -9.833 1.146 c -5.02 -0.167 -11.25 0.125 -13.875 0.625 c -8.167 1.604 -12.792 -1.417 -36.06 -23.563 l -15.1 -14.354 l -10.771 10.313 c -5.917 5.667 -12.354 11.5 -14.313 12.958 c -1.958 1.458 -6.104 4.729 -9.188 7.271 c -1.979 2.729 -6.688 3.542 -8.458 5.604 c 0 0.521 -0.833 0.958 -1.833 0.958 c -2.458 0 -3.625 2.854 -5.875 2.917 c -2.625 0.625 -13.08 4.271 -12.271 2.02"/><path d="m 97.69 99.69 c -1.375 -1.375 -2 -3.271 -2 -5.938 c 0 -4.75 -1.625 -5.646 -6.229 -3.479 c -3.063 1.75 -6.979 1.021 -9.813 2.542 c -2.188 1.417 -4.938 1.042 -7.104 2.5 c -2.042 1.438 -2.583 1.333 -8.458 -1.521 c -6.646 -3.25 -8.229 -4.604 -6.125 -5.292 c 0.708 -0.229 8.187 -0.708 16.625 -1.063 c 16.438 -0.708 18.19 -1.271 18.19 -5.875 c 0 -1.292 -0.438 -2.354 -0.979 -2.354 c -1.5 -1.521 -2.042 -4 -3.396 -5.646 c -1.333 -1.604 -2.438 -3.375 -2.438 -3.958 c 0 -2.02 4.792 -2.292 9.125 -0.5 l 4.271 1.771 l 0.667 6.646 c 2.417 12.25 1.542 4.729 11.771 5.792 l 3.813 0.354 l -3.604 1.667 c -2 0.896 -4.917 1.646 -6.521 1.646 h -2.917 l -0.271 6.979 c -0.313 7.625 -1.375 8.938 -4.604 5.729"/><path d="m 129.46 99.75 c -0.5 -1.896 2.458 -9.313 4.146 -10.354 c 1.625 -1 0.042 -2.417 -2.75 -2.417 c -4.02 -0.021 -7 -1.063 -7 -2.458 c 0 -1.333 6.771 -3 10.458 -2.563 c 3.167 -0.146 2.458 -3.708 3.646 -6.02 c 1.667 -3.188 1.917 -10.563 0.458 -13.292 c -0.792 -1.479 -0.521 -2.125 1.417 -3.417 c 3.813 -2.5 5.063 1.438 8.958 1.521 c 2.125 0 5.208 2.292 5.208 3.875 c -1.063 3.063 -4.75 5.125 -4.875 8.583 c 0 1.083 -0.667 2.667 -1.521 3.5 c -3.104 3.104 0.333 4.5 5.063 2.02 c 2.354 -1.479 5.521 -1.042 7.646 -2.438 c 0.729 -1.208 6 -1.292 6.729 -0.104 c 2.354 1.938 6.167 1.083 8.271 3.438 c 1.708 2.063 -3.979 4.438 -10.542 4.438 c -7.25 0.104 -13.75 2.063 -20.833 3.438 c -3.354 0.646 -6.292 3.688 -9.229 9.604 c -2.333 4.646 -4.458 5.729 -5.271 2.646"/><path d="m 150.1 184.27 c -7.875 -8.417 -12.646 -14.583 -12.646 -16.396 c 0 -1.229 0.271 -1.313 1.167 -0.417 c 4.667 2.896 11.396 3.25 15.271 7.375 c 4.521 2.583 7.813 4.917 11.75 8.229 l -4.063 3.479 c -2.229 1.917 -4.521 3.458 -5.104 3.458 c -0.563 0 -3.438 -2.583 -6.375 -5.729"/><path d="m 110.71 198.85 c -3.854 -1.458 -6.792 -2.188 -7.917 -5.375 c -0.708 -2.104 -2.063 -4.688 -3 -5.729 c -1.646 -1.875 -1.604 -1.896 2.188 -1.313 c 2.146 0.333 5.063 0.896 6.479 1.208 c 3.833 0.896 4.479 -1.208 5.271 -17.375 l 0.688 -14.271 h -6.04 c -3.313 0 -6.854 0.438 -7.854 0.958 c -2.188 1.167 -3.083 -0.938 -5.083 -0.958 c -1.125 0 -3.646 -0.771 -5.604 -1.708 l -3.583 -1.708 l 5.438 -1.313 c 3 -0.729 9.271 -1.521 13.938 -1.771 c 9.563 -0.5 10.08 -1.083 6.938 -7.708 c -1.854 -3.396 0.479 -6.02 -0.563 -8.813 c -2.5 -6.667 2.792 -8.104 8.208 -2.208 c 2.729 2.958 3.729 8.896 1.708 10.146 c -0.542 0.333 -0.979 2.125 -0.979 3.979 c 0 3.729 2.063 5.292 4.771 3.604 c 2.667 -1.625 5.979 -1.417 8.396 -3.271 c 0.75 -1.229 7.458 -1.146 10.813 0.125 c 2.813 1.083 4.375 2.771 3.646 3.938 c -0.688 1.146 -13.875 4.563 -24.458 6.375 l -3.167 0.542 v 13.667 c 0 8.229 0.458 14.958 1.167 16.917 c 1 2.75 0.917 3.688 -0.542 6.146 c -1.229 2.771 -1.021 4.625 -3.813 5.125 c -1.729 0.292 -3.792 0.792 -4.625 1.125 c -0.813 0.313 -1.896 0.167 -2.417 -0.333"/><path d="m 75.67 180.88 c 2.667 -0.583 2.708 -3.896 4.479 -5.917 c 0.958 -1.083 2.708 -3.854 3.917 -6.167 c 1.917 -3.729 2.313 -4.02 3.625 -2.729 c 2.771 2.771 1.917 11.06 -2.042 19.813 c -5.938 7.729 -13.813 -6.438 -9.979 -5"/></g></svg>