<svg xmlns="http://www.w3.org/2000/svg" viewBox="0 0 48 48"><path d="m 34.28 0.184 c -69.03 -4.809 -17.289 88.04 12.04 26.902 c 4.04 -9.422 1.09 -23.473 -12.04 -26.902" fill="#2f4e4e"/><path d="m 27.23 32.488 c -0.012 -0.012 -0.016 -0.121 -0.016 -0.246 c -0.004 -0.352 -0.047 -0.559 -0.25 -1.125 c -0.066 -0.188 -0.176 -0.512 -0.242 -0.727 c -0.168 -0.531 -0.492 -1.422 -0.57 -1.566 c -0.039 -0.066 -0.094 -0.191 -0.125 -0.281 c -0.031 -0.09 -0.074 -0.207 -0.098 -0.266 c -0.152 -0.359 -0.586 -1.703 -0.801 -2.469 c -0.063 -0.23 -0.176 -0.594 -0.25 -0.809 c -0.078 -0.219 -0.195 -0.598 -0.262 -0.844 c -0.066 -0.246 -0.203 -0.688 -0.305 -0.98 c -0.223 -0.656 -0.543 -1.832 -0.598 -2.191 c -0.023 -0.145 -0.051 -0.32 -0.066 -0.391 c -0.012 -0.066 -0.02 -0.219 -0.02 -0.34 c 0 -0.211 0.051 -0.703 0.082 -0.762 c 0.031 -0.063 0.082 -0.023 0.176 0.141 c 0.262 0.453 0.445 0.531 1.348 0.598 c 0.5 0.035 0.773 0.086 0.922 0.176 c 0.246 0.145 0.445 0.5 0.695 1.25 c 0.418 1.242 0.555 1.672 0.785 2.492 c 0.098 0.348 0.164 0.535 0.188 0.543 c 0.094 0.02 0.582 -0.906 0.813 -1.535 c 0.289 -0.789 0.789 -2.371 0.895 -2.84 c 0.082 -0.363 0.359 -0.867 0.816 -1.484 c 0.137 -0.18 0.293 -0.375 0.352 -0.43 c 0.23 -0.215 0.816 -0.309 1.215 -0.199 c 0.086 0.023 0.352 0.055 0.586 0.063 c 0.309 0.016 0.438 0.031 0.457 0.059 c 0.035 0.051 -0.023 0.297 -0.133 0.59 c -0.043 0.113 -0.102 0.309 -0.133 0.43 c -0.031 0.121 -0.063 0.234 -0.074 0.25 c -0.012 0.016 -0.055 0.156 -0.098 0.309 c -0.043 0.156 -0.086 0.297 -0.098 0.313 c -0.066 0.098 -0.508 1.723 -0.652 2.391 c -0.055 0.246 -0.125 0.582 -0.16 0.746 c -0.035 0.164 -0.109 0.48 -0.16 0.711 c -0.055 0.227 -0.105 0.461 -0.113 0.516 c -0.012 0.059 -0.047 0.172 -0.086 0.254 c -0.188 0.43 -0.543 1.41 -0.941 2.617 c -0.434 1.297 -0.512 1.52 -0.699 1.922 c -0.176 0.375 -0.746 1.441 -0.816 1.535 c -0.023 0.027 -0.074 0.109 -0.113 0.18 c -0.125 0.238 -0.414 0.66 -0.586 0.859 c -0.199 0.234 -0.32 0.332 -0.574 0.461 c -0.188 0.098 -0.258 0.117 -0.289 0.078 m -3.566 -1.32 c -0.02 -0.016 -0.059 -0.105 -0.086 -0.195 c -0.027 -0.09 -0.094 -0.246 -0.148 -0.348 c -0.051 -0.102 -0.094 -0.191 -0.094 -0.207 c 0 -0.016 -0.035 -0.09 -0.078 -0.172 c -0.039 -0.078 -0.125 -0.285 -0.184 -0.457 c -0.289 -0.832 -0.496 -1.402 -0.613 -1.684 l -0.129 -0.313 l -0.609 -0.008 c -0.332 -0.008 -0.672 0 -0.758 0.008 c -0.227 0.031 -0.25 0.066 -0.367 0.578 c -0.055 0.234 -0.117 0.496 -0.133 0.574 c -0.074 0.305 -0.305 1.066 -0.367 1.195 c -0.082 0.168 -0.289 0.418 -0.438 0.523 c -0.148 0.109 -0.398 0.188 -0.582 0.188 c -0.082 0 -0.313 -0.039 -0.512 -0.09 c -0.223 -0.051 -0.441 -0.086 -0.559 -0.086 c -0.191 0 -0.191 -0.004 -0.34 -0.137 c -0.156 -0.141 -0.172 -0.188 -0.109 -0.254 c 0.086 -0.086 0.219 -0.586 0.301 -1.117 c 0.023 -0.172 0.07 -0.438 0.098 -0.59 c 0.055 -0.324 0.063 -0.484 0.016 -0.535 c -0.02 -0.016 -0.113 -0.043 -0.211 -0.059 c -0.094 -0.016 -0.188 -0.039 -0.199 -0.055 c -0.016 -0.023 0 -0.074 0.059 -0.156 c 0.059 -0.098 0.078 -0.156 0.078 -0.242 c 0 -0.105 -0.012 -0.133 -0.113 -0.238 l -0.113 -0.125 l 0.098 -0.191 c 0.055 -0.105 0.117 -0.23 0.141 -0.273 c 0.148 -0.301 0.371 -0.668 0.441 -0.727 c 0.07 -0.059 0.098 -0.066 0.203 -0.047 c 0.066 0.012 0.152 0.023 0.191 0.023 c 0.078 0.004 0.055 0.07 0.293 -0.781 c 0.063 -0.219 0.152 -0.547 0.207 -0.727 c 0.051 -0.176 0.133 -0.477 0.18 -0.664 c 0.047 -0.188 0.152 -0.586 0.23 -0.887 c 0.082 -0.301 0.168 -0.648 0.195 -0.77 c 0.027 -0.125 0.094 -0.355 0.152 -0.52 c 0.059 -0.16 0.176 -0.496 0.262 -0.738 c 0.16 -0.457 0.559 -1.445 0.727 -1.789 c 0.102 -0.211 0.324 -0.535 0.371 -0.535 c 0.016 0 0.043 0.027 0.059 0.063 c 0.043 0.086 0.129 0.066 0.441 -0.105 c 0.289 -0.16 0.629 -0.266 0.629 -0.199 c 0 0.016 -0.055 0.098 -0.121 0.191 c -0.172 0.238 -0.332 0.539 -0.379 0.715 c -0.02 0.082 -0.043 0.285 -0.051 0.445 l -0.012 0.297 l 0.125 0.445 c 0.141 0.488 0.305 0.93 0.66 1.758 c 0.277 0.648 0.766 1.84 0.848 2.07 c 0.109 0.313 0.406 1.023 0.523 1.262 c 0.063 0.129 0.145 0.301 0.176 0.379 c 0.07 0.168 0.32 0.465 0.469 0.555 c 0.18 0.113 0.234 0.176 0.27 0.332 c 0.063 0.258 0.055 0.32 -0.094 0.527 c -0.074 0.102 -0.137 0.211 -0.137 0.246 c 0 0.031 0.074 0.23 0.16 0.441 c 0.43 1.039 0.813 1.965 0.813 1.977 c 0 0.008 -0.109 0.02 -0.238 0.031 c -0.379 0.031 -0.508 0.125 -1.094 0.828 c -0.266 0.32 -0.309 0.359 -0.406 0.375 c -0.066 0.012 -0.121 0.008 -0.141 -0.012 m -1.961 -5.191 c 0.016 -0.039 -0.078 -0.332 -0.215 -0.648 c -0.117 -0.27 -0.133 -0.297 -0.191 -0.297 c -0.059 0 -0.059 0.008 -0.156 0.418 c -0.082 0.355 -0.098 0.5 -0.066 0.539 c 0.027 0.035 0.609 0.023 0.629 -0.012 m 11.617 4.98 c -0.105 -0.027 -0.445 -0.234 -0.563 -0.344 c -0.164 -0.156 -0.254 -0.203 -0.41 -0.219 c -0.184 -0.023 -0.238 0 -0.371 0.141 c -0.125 0.129 -0.129 0.129 -0.215 0.09 c -0.086 -0.039 -0.094 -0.109 -0.066 -0.449 c 0.055 -0.609 0.203 -1.117 0.418 -1.457 c 0.063 -0.094 0.133 -0.242 0.16 -0.324 c 0.133 -0.426 0.328 -1.609 0.441 -2.715 c 0.043 -0.379 0.102 -0.887 0.133 -1.121 c 0.152 -1.105 0.203 -2.086 0.121 -2.418 c -0.035 -0.148 -0.145 -0.313 -0.32 -0.473 c -0.125 -0.117 -0.125 -0.168 0.008 -0.344 c 0.172 -0.227 0.32 -0.57 0.625 -1.426 c 0.016 -0.047 0.066 -0.223 0.109 -0.383 c 0.113 -0.43 0.227 -0.781 0.262 -0.797 c 0.016 -0.008 0.129 0.043 0.25 0.117 c 0.387 0.23 0.492 0.25 1.313 0.25 c 0.723 0 1.48 -0.066 1.793 -0.156 c 0.203 -0.059 1.098 -0.047 1.352 0.02 c 0.262 0.066 0.867 0.297 1.039 0.395 c 0.141 0.082 0.527 0.512 0.691 0.777 c 0.133 0.211 0.266 0.473 0.25 0.492 c -0.008 0.008 -0.09 -0.039 -0.18 -0.109 c -0.152 -0.113 -0.176 -0.121 -0.297 -0.105 c -0.16 0.016 -0.188 0.047 -0.43 0.473 c -0.254 0.449 -0.578 0.977 -0.676 1.105 c -0.078 0.098 -0.09 0.102 -0.188 0.082 c -0.055 -0.012 -0.215 -0.059 -0.355 -0.109 c -0.34 -0.121 -0.539 -0.133 -0.957 -0.055 c -0.57 0.105 -0.887 0.145 -1.164 0.148 c -0.367 0 -0.352 -0.023 -0.457 0.695 c -0.047 0.309 -0.098 0.688 -0.113 0.836 c -0.027 0.246 -0.027 0.281 0.008 0.324 c 0.043 0.051 0.086 0.055 1.254 0.125 c 0.406 0.023 0.539 0.043 0.738 0.105 c 0.133 0.043 0.254 0.09 0.27 0.105 c 0.023 0.023 0.059 0.238 0.094 0.563 c 0.031 0.305 0.301 0.762 0.484 0.82 c 0.109 0.035 0.098 0.117 -0.023 0.172 c -0.449 0.199 -0.434 0.195 -0.98 0.219 c -0.445 0.02 -1.141 0.098 -1.781 0.207 c -0.094 0.012 -0.188 0.027 -0.211 0.027 c -0.023 0 -0.078 0.039 -0.117 0.082 c -0.059 0.066 -0.086 0.137 -0.133 0.359 c -0.082 0.371 -0.121 0.832 -0.074 0.887 c 0.023 0.027 0.176 0.047 0.551 0.063 c 1.066 0.059 1.672 0.094 2.199 0.137 c 0.301 0.02 0.793 0.043 1.094 0.043 c 0.523 0 0.551 0 0.594 0.059 c 0.043 0.063 0.043 0.063 -0.039 0.137 c -0.168 0.156 -0.434 0.504 -0.496 0.656 c -0.078 0.191 -0.141 0.438 -0.191 0.773 c -0.09 0.543 -0.18 0.828 -0.309 0.961 c -0.195 0.203 -0.625 0.371 -0.941 0.371 c -0.113 0 -0.348 0.012 -0.52 0.027 c -0.641 0.059 -1.262 0.09 -2.254 0.121 c -0.563 0.016 -1.094 0.035 -1.188 0.039 c -0.094 0.008 -0.199 0.008 -0.23 0 m -21.676 -0.188 c -0.543 -0.098 -0.672 -0.137 -1.117 -0.313 c -0.508 -0.203 -1 -0.477 -1.047 -0.578 c -0.023 -0.047 -0.055 -0.086 -0.07 -0.086 c -0.016 0 -0.051 -0.035 -0.078 -0.078 c -0.031 -0.047 -0.113 -0.133 -0.191 -0.195 c -0.074 -0.063 -0.27 -0.273 -0.438 -0.473 c -0.484 -0.586 -0.66 -0.887 -0.867 -1.469 c -0.16 -0.453 -0.207 -0.664 -0.262 -1.199 c -0.02 -0.227 -0.055 -0.551 -0.074 -0.723 c -0.055 -0.457 -0.078 -0.777 -0.121 -1.703 c -0.063 -1.402 -0.07 -1.996 -0.023 -2.352 c 0.02 -0.168 0.066 -0.543 0.098 -0.828 c 0.035 -0.285 0.078 -0.645 0.098 -0.797 c 0.023 -0.156 0.059 -0.453 0.086 -0.668 c 0.082 -0.676 0.18 -1.168 0.297 -1.496 c 0.059 -0.168 0.152 -0.441 0.211 -0.602 c 0.125 -0.367 0.723 -1.813 0.797 -1.93 c 0.027 -0.047 0.098 -0.168 0.152 -0.27 c 0.055 -0.102 0.152 -0.242 0.219 -0.309 c 0.066 -0.07 0.227 -0.238 0.355 -0.375 c 0.277 -0.293 0.93 -0.828 1.223 -1 c 0.277 -0.164 0.73 -0.367 1.238 -0.551 c 0.121 -0.043 0.246 -0.09 0.277 -0.105 c 0.273 -0.109 0.305 -0.113 1.117 -0.086 c 0.797 0.027 1.039 0.051 1.313 0.129 c 0.234 0.066 0.73 0.273 0.875 0.359 c 0.344 0.211 0.828 0.688 1.156 1.141 c 0.223 0.313 0.734 1.23 0.879 1.586 c 0.059 0.145 0.129 0.355 0.16 0.469 c 0.031 0.113 0.082 0.281 0.113 0.375 c 0.031 0.094 0.09 0.371 0.133 0.621 c 0.07 0.418 0.074 0.484 0.063 0.852 c -0.02 0.484 -0.063 0.766 -0.168 1.078 c -0.07 0.203 -0.105 0.27 -0.293 0.496 c -0.227 0.273 -0.465 0.484 -0.805 0.711 c -0.285 0.191 -1.145 0.703 -1.18 0.703 c -0.023 0 -0.047 0.012 -0.055 0.027 c -0.02 0.039 -0.281 0.137 -0.426 0.164 c -0.102 0.016 -0.121 0.012 -0.191 -0.07 c -0.066 -0.078 -0.074 -0.102 -0.063 -0.188 c 0.023 -0.137 0.043 -0.152 0.191 -0.145 c 0.125 0.008 0.133 0.004 0.215 -0.121 c 0.168 -0.254 0.172 -0.273 0.168 -0.566 c -0.008 -0.402 -0.07 -0.973 -0.125 -1.141 c -0.066 -0.215 -0.281 -0.723 -0.395 -0.945 c -0.129 -0.262 -0.219 -0.371 -0.563 -0.707 c -0.16 -0.156 -0.301 -0.301 -0.316 -0.316 c -0.012 -0.02 -0.105 -0.09 -0.207 -0.156 c -0.316 -0.215 -0.629 -0.23 -0.918 -0.051 c -0.262 0.16 -0.844 0.945 -1.121 1.508 c -0.375 0.762 -0.598 1.586 -0.672 2.496 c -0.012 0.168 -0.023 0.723 -0.023 1.23 c 0 1.191 0.023 1.363 0.277 1.91 c 0.063 0.129 0.109 0.246 0.109 0.258 c 0 0.016 0.023 0.059 0.051 0.098 c 0.027 0.039 0.117 0.203 0.203 0.363 c 0.094 0.176 0.238 0.387 0.355 0.527 c 0.109 0.129 0.199 0.23 0.207 0.23 c 0.004 0 0.086 0.082 0.176 0.176 c 0.191 0.203 0.418 0.344 0.766 0.473 c 0.406 0.156 0.602 0.184 1.34 0.191 c 0.578 0.004 0.695 -0.004 0.863 -0.051 c 0.105 -0.031 0.254 -0.066 0.328 -0.082 c 0.145 -0.027 0.242 -0.051 0.34 -0.074 c 0.031 -0.008 0.086 -0.016 0.121 -0.016 c 0.031 0 0.078 -0.012 0.102 -0.027 c 0.02 -0.012 0.117 -0.031 0.215 -0.039 c 0.098 -0.008 0.242 -0.023 0.316 -0.035 c 0.129 -0.016 0.238 0.016 0.238 0.074 c 0 0.012 -0.039 0.102 -0.086 0.199 c -0.18 0.367 -0.547 1.23 -0.609 1.434 c -0.063 0.199 -0.055 0.551 0.012 0.691 c 0.074 0.148 0.066 0.191 -0.031 0.336 c -0.047 0.066 -0.086 0.133 -0.086 0.148 c 0 0.02 -0.012 0.043 -0.031 0.055 c -0.02 0.016 -0.047 0.059 -0.063 0.098 c -0.09 0.207 -0.77 1.137 -0.91 1.242 c -0.215 0.164 -0.969 0.363 -1.816 0.488 c -0.211 0.031 -0.574 0.055 -0.945 0.059 c -0.559 0.008 -0.645 0 -1.066 -0.074 m 16.539 -11.789 c -0.012 -0.012 -0.84 -0.125 -1.441 -0.195 c -0.625 -0.074 -1.016 -0.184 -1.102 -0.309 c -0.047 -0.07 0.004 -0.371 0.262 -1.555 c 0.043 -0.188 0.098 -0.527 0.125 -0.754 c 0.031 -0.23 0.074 -0.535 0.102 -0.68 c 0.035 -0.188 0.047 -0.324 0.039 -0.48 c -0.008 -0.18 -0.004 -0.215 0.023 -0.215 c 0.02 0 0.164 0.023 0.32 0.055 c 0.152 0.035 0.453 0.082 0.668 0.105 c 0.215 0.027 0.457 0.063 0.547 0.078 c 0.086 0.016 0.406 0.039 0.711 0.059 c 0.305 0.016 0.563 0.035 0.574 0.047 c 0.012 0.008 0.082 0.164 0.156 0.344 c 0.121 0.297 0.129 0.332 0.098 0.375 c -0.102 0.121 -1.01 0.086 -1.723 -0.07 c -0.449 -0.098 -0.426 -0.105 -0.469 0.172 c -0.063 0.398 -0.035 0.445 0.289 0.492 c 0.371 0.051 0.578 0.098 0.582 0.129 c 0 0.02 0 0.109 -0.004 0.199 c -0.004 0.148 0.008 0.18 0.074 0.273 c 0.043 0.059 0.07 0.121 0.059 0.141 c -0.012 0.023 -0.141 0.023 -0.469 0.008 c -0.531 -0.027 -0.633 -0.023 -0.676 0.027 c -0.043 0.059 -0.082 0.5 -0.047 0.543 c 0.063 0.078 0.707 0.219 1.137 0.25 c 0.23 0.016 0.547 0.051 0.699 0.074 c 0.152 0.023 0.324 0.043 0.379 0.043 c 0.125 0 0.152 0.043 0.082 0.129 c -0.027 0.035 -0.051 0.082 -0.051 0.098 c 0 0.016 -0.027 0.078 -0.059 0.141 c -0.09 0.16 -0.098 0.238 -0.039 0.352 c 0.027 0.055 0.043 0.109 0.035 0.121 c -0.02 0.02 -0.867 0.027 -0.883 0.008 m -3.523 -0.777 c -0.145 -0.121 -0.23 -0.129 -0.461 -0.039 c -0.242 0.09 -0.242 0.082 -0.242 -0.5 c 0 -0.277 0.02 -0.617 0.047 -0.84 l 0.043 -0.379 l -0.078 -0.109 c -0.117 -0.164 -0.254 -0.27 -0.438 -0.336 c -0.191 -0.066 -0.227 -0.07 -0.262 -0.02 c -0.016 0.023 -0.043 0.203 -0.063 0.406 c -0.082 0.809 -0.094 0.836 -0.445 0.977 c -0.129 0.051 -0.27 0.113 -0.309 0.133 c -0.293 0.16 -0.473 0.227 -0.473 0.176 c 0 -0.012 0.055 -0.141 0.121 -0.289 c 0.141 -0.32 0.156 -0.391 0.207 -1.031 c 0.039 -0.527 0.031 -0.68 -0.055 -0.773 c -0.082 -0.086 -0.293 -0.199 -0.379 -0.199 c -0.059 0 -0.086 -0.012 -0.086 -0.039 c 0 -0.043 0.367 -0.344 0.574 -0.473 c 0.145 -0.09 0.129 -0.027 0.258 -0.891 c 0.105 -0.684 0.102 -0.668 0.133 -0.668 c 0.012 0 0.109 0.102 0.215 0.219 c 0.105 0.121 0.27 0.273 0.367 0.344 c 0.094 0.066 0.18 0.141 0.195 0.16 c 0.02 0.027 0.016 0.109 -0.012 0.285 c -0.02 0.137 -0.043 0.313 -0.051 0.391 l -0.016 0.137 l 0.188 0.145 c 0.102 0.078 0.258 0.195 0.344 0.266 c 0.09 0.07 0.176 0.125 0.191 0.125 c 0.07 0 0.152 -0.34 0.156 -0.637 c 0 -0.266 0.016 -0.273 0.328 -0.117 c 0.215 0.109 0.293 0.133 0.414 0.133 c 0.082 0 0.156 0.012 0.164 0.023 c 0.004 0.012 -0.012 0.23 -0.035 0.48 c -0.023 0.254 -0.055 0.719 -0.07 1.035 c -0.035 0.734 -0.043 0.824 -0.113 1.078 c -0.094 0.332 -0.133 0.523 -0.145 0.707 c -0.016 0.27 -0.031 0.277 -0.215 0.121 m -4.508 -0.301 c -0.027 -0.008 -0.07 -0.035 -0.098 -0.055 c -0.027 -0.023 -0.102 -0.043 -0.164 -0.043 c -0.109 0 -0.113 -0.004 -0.102 -0.066 c 0.043 -0.238 0.129 -0.836 0.141 -0.996 c 0.012 -0.105 0.031 -0.527 0.051 -0.934 c 0.02 -0.406 0.043 -0.871 0.051 -1.035 c 0.02 -0.34 -0.012 -0.523 -0.094 -0.582 c -0.039 -0.027 -0.219 -0.035 -0.742 -0.027 c -0.727 0.008 -0.754 0.004 -0.699 -0.125 c 0.016 -0.035 0.02 -0.141 0.012 -0.25 c -0.008 -0.156 -0.027 -0.215 -0.102 -0.348 c -0.051 -0.09 -0.133 -0.207 -0.184 -0.266 c -0.051 -0.055 -0.094 -0.117 -0.094 -0.133 c 0 -0.055 0.805 -0.035 1.199 0.031 c 0.363 0.063 0.457 0.063 0.992 0.008 c 0.234 -0.027 0.484 -0.102 0.512 -0.16 c 0.008 -0.012 0.031 -0.027 0.059 -0.027 c 0.035 0 0.047 0.035 0.059 0.16 c 0.012 0.09 0.031 0.18 0.047 0.207 c 0.039 0.07 0.316 0.105 0.832 0.105 c 0.492 0.004 0.5 0.004 0.441 0.188 c -0.016 0.051 -0.09 0.184 -0.16 0.289 c -0.188 0.285 -0.27 0.328 -0.707 0.363 c -0.195 0.016 -0.363 0.035 -0.371 0.047 c -0.02 0.016 -0.082 0.949 -0.109 1.555 c -0.008 0.207 0 0.535 0.027 0.902 c 0.031 0.449 0.035 0.617 0.016 0.75 c -0.031 0.203 -0.102 0.336 -0.207 0.391 c -0.078 0.039 -0.527 0.078 -0.605 0.051" fill="#fff"/></svg>