<svg xmlns="http://www.w3.org/2000/svg" viewBox="0 0 48 48" xmlns:xlink="http://www.w3.org/1999/xlink"><defs><linearGradient id="3" gradientUnits="userSpaceOnUse" y1="374.45" x2="0" y2="342.7" gradientTransform="matrix(0.07361 0 0 0.07418 4.859 5.157)" xlink:href="#1"/><linearGradient id="4" gradientUnits="userSpaceOnUse" y1="178.64" x2="0" y2="99.26" gradientTransform="matrix(0.07361 0 0 0.07418 4.859 5.157)" xlink:href="#1"/><linearGradient id="2" gradientUnits="userSpaceOnUse" y1="310.95" x2="0" y2="162.77" gradientTransform="matrix(0.07361 0 0 0.07418 4.859 5.157)" xlink:href="#0"/><linearGradient id="0" gradientUnits="userSpaceOnUse" y1="448.54" x2="0" y2="46.34" gradientTransform="matrix(0.07361 0 0 0.07418 4.859 5.157)"><stop stop-color="#ffa526"/><stop offset="1" stop-color="#ffcc7f"/></linearGradient><linearGradient id="1" gradientUnits="userSpaceOnUse" y1="162.77" x2="0" y2="310.95" gradientTransform="matrix(0.07361 0 0 0.07418 4.859 5.157)"><stop stop-color="#ff5520"/><stop offset="1" stop-color="#ff6f00"/></linearGradient></defs><path d="m 37.984 2.828 c -71.5 -20.852 -25.922 82.17 6.066 30.492 c 5.848 -9.496 6.254 -25.613 -6.066 -30.492" fill="#ee6708"/><path d="m 23.555 8.594 c -1.945 0 -3.895 3.141 -5.453 3.141 c -1.559 0 -3.504 -1.57 -4.48 -2.746 c -0.973 -1.18 -4.09 2.746 -3.309 4.316 c 3.895 7.07 -0.781 11.777 -0.781 14.918 c 0 9.422 13.246 5.691 13.246 9.617 c 0 0.395 0.195 0.59 0.777 0.59 c 0.586 0 0.781 -0.195 0.781 -0.59 c 0 -3.926 13.242 -0.195 13.242 -9.617 c 0 -3.141 -4.676 -7.852 -0.777 -14.918 c 0.777 -1.57 -2.34 -5.496 -3.313 -4.316 c -0.973 1.176 -2.922 2.746 -4.48 2.746 c -1.559 0 -3.504 -3.141 -5.453 -3.141" fill="url(#0)"/><path d="m 23.555 8.594 c -1.945 0 -3.895 3.141 -5.453 3.141 c -1.559 0 -3.504 -1.57 -4.48 -2.746 c -0.898 -1.09 -3.621 2.176 -3.422 3.918 c 0.176 -1.793 2.59 -4.539 3.422 -3.527 c 0.977 1.18 2.922 2.75 4.48 2.75 c 1.559 0 3.508 -3.141 5.453 -3.141 c 1.949 0 3.895 3.141 5.453 3.141 c 1.559 0 3.508 -1.57 4.48 -2.75 c 0.836 -1.01 3.246 1.734 3.426 3.527 c 0.199 -1.742 -2.527 -5.01 -3.426 -3.918 c -0.973 1.176 -2.922 2.746 -4.48 2.746 c -1.559 0 -3.504 -3.141 -5.453 -3.141 m -11.695 10.555 c -0.074 3.957 -2.328 6.895 -2.328 9.07 c 0 0.086 0.004 0.168 0.004 0.25 c 0.098 -2.238 2.398 -5.258 2.324 -9.324 m 23.391 0 c -0.074 4.066 2.227 7.086 2.324 9.324 c 0.004 -0.082 0.004 -0.164 0.004 -0.25 c 0 -2.18 -2.254 -5.117 -2.328 -9.07" fill="#fff" fill-opacity="0.392"/><path d="m 10.199 12.52 c -0.031 0.293 0.004 0.563 0.113 0.785 c 1.102 2 1.52 3.812 1.547 5.457 c 0.031 -1.742 -0.355 -3.68 -1.547 -5.84 c -0.063 -0.121 -0.098 -0.258 -0.113 -0.402 m 26.715 0 c -0.016 0.145 -0.055 0.281 -0.113 0.402 c -1.191 2.16 -1.582 4.098 -1.547 5.84 c 0.027 -1.641 0.441 -3.453 1.547 -5.457 c 0.109 -0.223 0.141 -0.492 0.113 -0.785 m -27.379 15.563 c 0 0.047 0 0.094 0 0.141 c 0 9.422 13.242 5.691 13.242 9.617 c 0 0.395 0.195 0.59 0.777 0.59 c 0.586 0 0.781 -0.195 0.781 -0.59 c 0 -3.926 13.242 -0.195 13.242 -9.617 c 0 -0.047 0 -0.094 -0.004 -0.141 c -0.227 9.117 -13.238 5.484 -13.238 9.375 c 0 0.395 -0.195 0.59 -0.781 0.59 c -0.582 0 -0.777 -0.195 -0.777 -0.59 c 0 -3.891 -13.02 -0.258 -13.242 -9.371" fill-opacity="0.235"/><path d="m 23.555 8.484 c -1.031 0 -2.02 0.809 -2.941 1.594 c -0.465 0.395 -0.914 0.785 -1.336 1.074 c -0.426 0.289 -0.824 0.473 -1.176 0.473 c -0.742 0 -1.605 -0.383 -2.398 -0.914 c -0.793 -0.535 -1.516 -1.215 -1.996 -1.797 c -0.141 -0.168 -0.332 -0.254 -0.535 -0.254 c -0.207 -0.004 -0.422 0.066 -0.641 0.188 c -0.438 0.238 -0.898 0.676 -1.309 1.199 c -0.406 0.523 -0.762 1.133 -0.965 1.719 c -0.203 0.586 -0.262 1.152 -0.043 1.59 v 0.004 c 1.934 3.508 1.738 6.41 1.063 8.848 c -0.676 2.438 -1.855 4.391 -1.855 6.02 c 0 2.383 0.844 3.957 2.109 5.01 c 1.266 1.055 2.938 1.598 4.598 1.969 c 1.664 0.367 3.32 0.566 4.547 0.91 c 0.613 0.176 1.121 0.387 1.461 0.66 c 0.344 0.277 0.531 0.609 0.531 1.07 c 0 0.211 0.059 0.402 0.211 0.527 c 0.152 0.121 0.371 0.172 0.676 0.172 c 0.305 0 0.527 -0.051 0.68 -0.172 c 0.152 -0.125 0.211 -0.316 0.211 -0.527 c 0 -0.461 0.184 -0.793 0.527 -1.07 c 0.344 -0.273 0.848 -0.484 1.461 -0.66 c 1.227 -0.344 2.883 -0.543 4.547 -0.91 c 1.664 -0.371 3.336 -0.914 4.598 -1.969 c 1.266 -1.055 2.109 -2.629 2.109 -5.01 c 0 -1.625 -1.176 -3.578 -1.852 -6.02 c -0.68 -2.438 -0.875 -5.34 1.059 -8.848 l 0.004 -0.004 c 0.215 -0.438 0.156 -1 -0.047 -1.59 c -0.203 -0.586 -0.555 -1.195 -0.965 -1.719 c -0.406 -0.523 -0.871 -0.961 -1.309 -1.199 c -0.219 -0.121 -0.434 -0.191 -0.637 -0.188 c -0.203 0 -0.398 0.086 -0.539 0.254 c -0.477 0.582 -1.203 1.262 -1.996 1.797 c -0.793 0.531 -1.656 0.914 -2.398 0.914 c -0.352 0 -0.75 -0.184 -1.172 -0.473 c -0.426 -0.289 -0.871 -0.68 -1.336 -1.074 c -0.926 -0.785 -1.91 -1.594 -2.945 -1.594 m 0 0.223 c 0.914 0 1.879 0.758 2.801 1.543 c 0.465 0.391 0.914 0.785 1.355 1.086 c 0.441 0.301 0.871 0.512 1.297 0.512 c 0.816 0 1.707 -0.406 2.52 -0.953 c 0.816 -0.547 1.551 -1.238 2.047 -1.836 c 0.102 -0.125 0.219 -0.176 0.371 -0.176 c 0.148 -0.004 0.332 0.051 0.527 0.16 c 0.395 0.215 0.848 0.637 1.242 1.141 c 0.395 0.508 0.734 1.102 0.93 1.656 c 0.191 0.555 0.23 1.066 0.055 1.414 c -1.957 3.559 -1.766 6.543 -1.078 9.01 c 0.688 2.473 1.848 4.441 1.848 5.957 c 0 2.328 -0.813 3.824 -2.031 4.84 c -1.219 1.02 -2.855 1.555 -4.504 1.922 c -1.648 0.367 -3.305 0.563 -4.559 0.918 c -0.629 0.176 -1.16 0.391 -1.539 0.699 c -0.383 0.309 -0.613 0.719 -0.613 1.242 c 0 0.176 -0.035 0.281 -0.129 0.352 c -0.09 0.074 -0.258 0.125 -0.539 0.125 c -0.277 0 -0.449 -0.051 -0.539 -0.125 c -0.09 -0.07 -0.129 -0.176 -0.129 -0.352 c 0 -0.523 -0.23 -0.934 -0.609 -1.242 c -0.383 -0.309 -0.914 -0.523 -1.539 -0.699 c -1.258 -0.355 -2.91 -0.551 -4.559 -0.918 c -1.648 -0.367 -3.289 -0.902 -4.508 -1.922 c -1.219 -1.016 -2.027 -2.512 -2.027 -4.84 c 0 -1.516 1.156 -3.484 1.844 -5.957 c 0.688 -2.469 0.879 -5.453 -1.078 -9.01 c -0.172 -0.348 -0.137 -0.859 0.059 -1.414 c 0.191 -0.555 0.531 -1.148 0.926 -1.656 c 0.398 -0.504 0.848 -0.926 1.242 -1.141 c 0.199 -0.109 0.379 -0.164 0.531 -0.16 c 0.148 0 0.266 0.051 0.371 0.176 c 0.492 0.598 1.23 1.289 2.043 1.836 c 0.813 0.547 1.703 0.953 2.52 0.953 c 0.426 0 0.855 -0.211 1.297 -0.512 c 0.441 -0.301 0.895 -0.695 1.355 -1.086 c 0.922 -0.785 1.887 -1.543 2.801 -1.543" fill="#202020"/><path d="m 23.555 17.23 c 3.01 0 5.453 2.461 5.453 5.496 c 0 3.035 -2.441 5.496 -5.453 5.496 c -3.01 0 -5.453 -2.461 -5.453 -5.496 c 0 -3.035 2.441 -5.496 5.453 -5.496" fill="url(#1)"/><path d="m 23.555 17.23 c 0.688 0 1.047 2.867 1.605 3.273 c 0.555 0.406 3.371 -0.133 3.582 0.523 c 0.211 0.66 -2.379 1.891 -2.594 2.547 c -0.211 0.66 1.168 3.191 0.613 3.598 c -0.559 0.41 -2.52 -1.695 -3.207 -1.695 c -0.688 0 -2.648 2.105 -3.203 1.695 c -0.559 -0.406 0.824 -2.938 0.609 -3.598 c -0.211 -0.656 -2.805 -1.887 -2.59 -2.547 c 0.211 -0.656 3.03 -0.117 3.582 -0.523 c 0.559 -0.406 0.914 -3.273 1.602 -3.273" fill="url(#2)"/><path d="m 23.555 17.23 c -0.688 0 -1.047 2.867 -1.602 3.273 c -0.559 0.406 -3.371 -0.133 -3.586 0.523 c -0.02 0.074 -0.012 0.156 0.027 0.238 c 0.355 -0.57 3.02 -0.07 3.559 -0.469 c 0.559 -0.406 0.914 -3.27 1.602 -3.27 c 0.688 0 1.047 2.863 1.605 3.27 c 0.539 0.398 3.203 -0.102 3.555 0.469 c 0.039 -0.082 0.051 -0.164 0.027 -0.238 c -0.211 -0.656 -3.03 -0.117 -3.582 -0.523 c -0.559 -0.406 -0.914 -3.273 -1.605 -3.273 m -2.613 6.879 c -0.18 0.84 -0.809 2.227 -0.715 2.828 c 0.074 -0.684 0.559 -1.809 0.715 -2.535 c 0.008 0.02 0.016 0.039 0.023 0.059 c 0.004 0.012 0.004 0.027 0.008 0.039 c 0.02 -0.137 0.016 -0.25 -0.008 -0.336 c -0.008 -0.016 -0.016 -0.035 -0.023 -0.055 m 5.23 0 c -0.008 0.02 -0.016 0.039 -0.023 0.055 c -0.027 0.086 -0.027 0.199 -0.008 0.336 c 0 -0.012 0.004 -0.027 0.008 -0.039 c 0.008 -0.02 0.016 -0.039 0.023 -0.059 c 0.152 0.727 0.641 1.852 0.715 2.535 c 0.094 -0.602 -0.535 -1.988 -0.715 -2.828" fill="#fff" fill-opacity="0.392"/><path d="m 18.379 21 c -0.004 0.008 -0.008 0.016 -0.008 0.023 c -0.215 0.66 2.379 1.891 2.59 2.551 c 0.004 0 0.004 0.004 0.004 0.004 c 0.02 -0.129 0.027 -0.238 0.012 -0.328 c -0.004 0.035 -0.008 0.07 -0.012 0.105 c 0 -0.004 0 -0.004 -0.004 -0.008 c -0.191 -0.598 -2.344 -1.664 -2.582 -2.348 m 10.355 0 c -0.242 0.684 -2.391 1.75 -2.586 2.348 c 0 0.004 0 0.004 0 0.008 c -0.008 -0.035 -0.012 -0.07 -0.016 -0.105 c -0.012 0.09 -0.004 0.199 0.016 0.328 c 0 0 0 -0.004 0 -0.004 c 0.215 -0.66 2.809 -1.891 2.594 -2.551 c -0.004 -0.008 -0.004 -0.016 -0.008 -0.023 m -5.18 4.25 c -0.688 0 -2.648 2.105 -3.203 1.695 c -0.074 -0.051 -0.117 -0.145 -0.129 -0.266 c -0.02 0.23 0.012 0.406 0.129 0.492 c 0.555 0.406 2.516 -1.699 3.203 -1.699 c 0.688 0 2.648 2.105 3.207 1.699 c 0.113 -0.086 0.148 -0.262 0.129 -0.492 c -0.016 0.121 -0.055 0.215 -0.129 0.266 c -0.559 0.41 -2.52 -1.695 -3.207 -1.695" fill-opacity="0.235"/><path d="m 19.27 30.578 h 8.57 c 0.648 0 1.168 0.527 1.168 1.18 c 0 0.648 -0.52 1.176 -1.168 1.176 h -8.57 c -0.645 0 -1.168 -0.527 -1.168 -1.176 c 0 -0.652 0.523 -1.18 1.168 -1.18" fill="url(#3)"/><path d="m 19.27 30.578 c -0.645 0 -1.168 0.527 -1.168 1.18 c 0 0.031 0.004 0.066 0.004 0.098 c 0.051 -0.605 0.551 -1.082 1.164 -1.082 h 8.57 c 0.617 0 1.117 0.477 1.164 1.082 c 0.004 -0.031 0.004 -0.066 0.004 -0.098 c 0 -0.652 -0.52 -1.18 -1.168 -1.18" fill="#090909" fill-opacity="0.392"/><path d="m 18.11 31.656 c 0 0.035 -0.004 0.066 -0.004 0.102 c 0 0.652 0.523 1.176 1.168 1.176 h 8.57 c 0.648 0 1.168 -0.523 1.168 -1.176 c 0 -0.035 0 -0.066 -0.004 -0.102 c -0.047 0.609 -0.547 1.082 -1.164 1.082 h -8.57 c -0.613 0 -1.113 -0.473 -1.164 -1.082" fill="#fff" fill-opacity="0.235"/><path d="m 22.891 12.719 l -0.703 0.031 l 0.109 2.742 l 1.938 -0.078 l -0.023 -0.535 l -1.234 0.051 m 2.199 -2.102 l -0.5 2.703 l 0.691 0.129 l 0.5 -2.699 m -5.813 0.348 c -0.203 -0.004 -0.418 0.039 -0.648 0.133 c -0.406 0.164 -0.676 0.41 -0.816 0.738 c -0.137 0.328 -0.125 0.699 0.043 1.109 c 0.16 0.414 0.406 0.691 0.73 0.832 c 0.324 0.141 0.691 0.129 1.094 -0.035 c 0.406 -0.164 0.68 -0.41 0.816 -0.738 c 0.137 -0.324 0.125 -0.695 -0.039 -1.109 c -0.164 -0.414 -0.406 -0.691 -0.73 -0.832 c -0.145 -0.063 -0.293 -0.094 -0.449 -0.098 m 7.633 0.328 c -0.141 0.004 -0.273 0.027 -0.406 0.07 c -0.344 0.117 -0.609 0.379 -0.793 0.777 c -0.184 0.395 -0.211 0.766 -0.074 1.113 c 0.133 0.344 0.406 0.613 0.816 0.805 c 0.137 0.063 0.277 0.109 0.418 0.141 c 0.145 0.027 0.285 0.039 0.43 0.031 l 0.238 -0.516 c -0.156 0.027 -0.297 0.031 -0.43 0.016 c -0.133 -0.016 -0.262 -0.055 -0.391 -0.113 c -0.227 -0.105 -0.371 -0.266 -0.434 -0.473 c -0.063 -0.207 -0.035 -0.441 0.082 -0.695 c 0.121 -0.258 0.277 -0.434 0.477 -0.516 c 0.199 -0.086 0.41 -0.078 0.637 0.027 c 0.129 0.063 0.242 0.137 0.34 0.227 c 0.094 0.094 0.184 0.207 0.266 0.344 l 0.238 -0.516 c -0.09 -0.117 -0.191 -0.219 -0.305 -0.309 c -0.109 -0.094 -0.238 -0.168 -0.375 -0.234 c -0.258 -0.121 -0.5 -0.18 -0.734 -0.18 m -7.84 0.227 c 0.105 0 0.207 0.031 0.301 0.09 c 0.168 0.102 0.305 0.289 0.414 0.559 c 0.105 0.266 0.133 0.496 0.082 0.688 c -0.051 0.195 -0.176 0.332 -0.375 0.41 c -0.199 0.082 -0.383 0.07 -0.551 -0.035 c -0.172 -0.102 -0.309 -0.289 -0.414 -0.555 c -0.105 -0.27 -0.133 -0.5 -0.082 -0.691 c 0.051 -0.195 0.176 -0.332 0.371 -0.41 c 0.09 -0.035 0.172 -0.055 0.254 -0.055 m 10.52 1.219 l -1.871 1.996 l 1.406 1.34 l 0.363 -0.391 l -0.895 -0.852 l 0.43 -0.457 l 0.816 0.777 l 0.363 -0.391 l -0.816 -0.777 l 0.348 -0.371 l 0.867 0.824 l 0.367 -0.387 m -14.77 -1.246 c -0.016 0 -0.031 0 -0.047 0.004 c -0.238 0.012 -0.484 0.141 -0.738 0.379 l -0.848 0.809 l 1.867 2 l 0.512 -0.488 l -0.648 -0.691 l 0.336 -0.32 c 0.254 -0.242 0.395 -0.48 0.426 -0.723 c 0.027 -0.242 -0.055 -0.465 -0.25 -0.676 c -0.184 -0.195 -0.387 -0.293 -0.609 -0.293 m -0.176 0.664 c 0.094 0.004 0.18 0.047 0.258 0.129 c 0.082 0.09 0.121 0.184 0.113 0.285 c -0.012 0.098 -0.066 0.195 -0.164 0.289 l -0.281 0.27 l -0.523 -0.559 l 0.281 -0.27 c 0.102 -0.094 0.199 -0.141 0.301 -0.145 c 0.004 0 0.012 0 0.016 0" fill="url(#4)"/><g fill-opacity="0.392"><path d="m 22.891 12.719 l -0.703 0.031 l 0.004 0.156 l 0.699 -0.027 l 0.086 2.207 l 1.234 -0.051 l 0.016 0.379 h 0.008 l -0.023 -0.535 l -1.234 0.051 m 2.199 -2.102 l -0.5 2.703 l 0.027 0.004 l 0.473 -2.547 l 0.664 0.125 l 0.027 -0.152 m -5.852 0.348 c -0.191 0 -0.395 0.047 -0.609 0.133 c -0.406 0.164 -0.676 0.41 -0.816 0.738 c -0.07 0.172 -0.102 0.355 -0.09 0.551 c 0.008 -0.137 0.039 -0.27 0.09 -0.395 c 0.141 -0.328 0.41 -0.574 0.816 -0.738 c 0.23 -0.09 0.445 -0.137 0.648 -0.133 c 0.156 0.004 0.305 0.039 0.449 0.102 c 0.32 0.141 0.566 0.418 0.73 0.832 c 0.078 0.195 0.121 0.379 0.129 0.555 c 0.016 -0.223 -0.027 -0.461 -0.129 -0.715 c -0.164 -0.414 -0.41 -0.691 -0.73 -0.832 c -0.145 -0.063 -0.293 -0.094 -0.449 -0.098 c -0.016 0 -0.027 0 -0.039 0 m 7.672 0.328 c -0.141 0.004 -0.273 0.027 -0.406 0.07 c -0.344 0.117 -0.609 0.379 -0.793 0.777 c -0.121 0.254 -0.172 0.504 -0.156 0.738 c 0.012 -0.188 0.063 -0.383 0.156 -0.582 c 0.184 -0.398 0.449 -0.656 0.793 -0.777 c 0.133 -0.043 0.266 -0.066 0.406 -0.066 c 0.234 -0.004 0.477 0.059 0.734 0.176 c 0.137 0.066 0.266 0.145 0.375 0.234 c 0.094 0.074 0.18 0.16 0.258 0.254 l 0.047 -0.102 c -0.09 -0.117 -0.191 -0.219 -0.305 -0.309 c -0.109 -0.094 -0.238 -0.168 -0.375 -0.234 c -0.258 -0.121 -0.5 -0.18 -0.734 -0.18 m -8.488 0.969 c -0.012 0.164 0.02 0.355 0.105 0.57 c 0.109 0.27 0.246 0.453 0.414 0.559 c 0.168 0.102 0.352 0.113 0.551 0.035 c 0.199 -0.082 0.324 -0.219 0.375 -0.41 c 0.023 -0.086 0.031 -0.18 0.02 -0.281 c 0 0.043 -0.008 0.086 -0.02 0.121 c -0.051 0.195 -0.176 0.332 -0.375 0.41 c -0.199 0.082 -0.383 0.07 -0.551 -0.035 c -0.168 -0.102 -0.305 -0.289 -0.414 -0.555 c -0.059 -0.152 -0.094 -0.289 -0.105 -0.414 m 11.168 0.477 l -1.871 1.996 l 0.078 0.074 l 1.793 -1.914 l 1.301 1.238 l 0.078 -0.082 m -14.77 -1.246 c -0.016 0 -0.027 0.004 -0.043 0.004 c -0.242 0.012 -0.488 0.141 -0.742 0.379 l -0.848 0.809 l 0.078 0.082 l 0.77 -0.73 c 0.254 -0.242 0.5 -0.367 0.742 -0.383 c 0.016 0 0.027 0 0.043 0 c 0.223 -0.004 0.426 0.094 0.609 0.289 c 0.148 0.16 0.23 0.328 0.25 0.504 c 0.027 -0.234 -0.059 -0.457 -0.25 -0.66 c -0.184 -0.195 -0.387 -0.293 -0.609 -0.293 m 10.06 0.195 c -0.012 0.105 -0.004 0.207 0.027 0.301 c 0.063 0.211 0.207 0.367 0.434 0.473 c 0.129 0.059 0.258 0.098 0.391 0.113 c 0.109 0.012 0.227 0.012 0.352 -0.004 l 0.078 -0.168 c -0.152 0.027 -0.297 0.031 -0.43 0.016 c -0.133 -0.016 -0.262 -0.055 -0.391 -0.113 c -0.227 -0.105 -0.371 -0.266 -0.434 -0.473 c -0.016 -0.047 -0.023 -0.098 -0.027 -0.145 m -9.871 0.934 c -0.023 0.082 -0.074 0.16 -0.156 0.238 l -0.281 0.27 l -0.445 -0.477 l -0.078 0.074 l 0.523 0.559 l 0.281 -0.266 c 0.102 -0.094 0.156 -0.191 0.164 -0.293 c 0.004 -0.035 0 -0.07 -0.008 -0.105 m 13.08 0.125 l -0.078 0.082 l 0.738 0.703 l 0.078 -0.082 m -13.828 0.137 l -0.078 0.074 l 0.57 0.609 l 0.078 -0.07 m 11.727 -0.605 l -0.078 0.082 l 0.82 0.781 l 0.078 -0.086"/><path d="m 22.19 12.75 h -0.004 l 0.109 2.742 l 1.938 -0.078 l -0.008 -0.141 l -1.93 0.082 m 3.547 -2.398 l -0.477 2.566 l -0.668 -0.129 l -0.023 0.137 l 0.691 0.129 l 0.5 -2.699 m -6.02 0.766 c -0.082 0 -0.168 0.016 -0.254 0.051 c -0.199 0.082 -0.324 0.219 -0.375 0.41 c -0.023 0.082 -0.031 0.172 -0.023 0.27 c 0.004 -0.043 0.012 -0.09 0.023 -0.129 c 0.051 -0.191 0.176 -0.328 0.375 -0.41 c 0.086 -0.035 0.172 -0.055 0.254 -0.055 c 0.102 0 0.203 0.031 0.297 0.09 c 0.168 0.102 0.309 0.289 0.414 0.559 c 0.059 0.152 0.094 0.293 0.105 0.418 c 0.012 -0.16 -0.023 -0.348 -0.105 -0.559 c -0.105 -0.27 -0.246 -0.453 -0.414 -0.559 c -0.094 -0.059 -0.195 -0.086 -0.297 -0.086 m 8.04 0.352 c -0.094 0 -0.184 0.02 -0.27 0.059 c -0.199 0.086 -0.355 0.258 -0.477 0.516 c -0.09 0.195 -0.125 0.375 -0.113 0.543 c 0.012 -0.129 0.051 -0.262 0.113 -0.402 c 0.121 -0.258 0.277 -0.43 0.477 -0.516 c 0.199 -0.086 0.41 -0.078 0.637 0.031 c 0.129 0.059 0.242 0.133 0.34 0.227 c 0.094 0.09 0.184 0.203 0.266 0.34 l 0.238 -0.516 c -0.016 -0.016 -0.027 -0.035 -0.043 -0.051 l -0.195 0.426 c -0.082 -0.137 -0.172 -0.25 -0.266 -0.34 c -0.098 -0.094 -0.211 -0.168 -0.34 -0.227 c -0.125 -0.063 -0.25 -0.09 -0.367 -0.09 m -9.391 0.508 c -0.012 0.219 0.031 0.453 0.129 0.707 c 0.164 0.41 0.41 0.688 0.734 0.828 c 0.324 0.141 0.688 0.129 1.094 -0.035 c 0.406 -0.164 0.68 -0.41 0.816 -0.734 c 0.07 -0.172 0.102 -0.352 0.094 -0.547 c -0.008 0.141 -0.039 0.277 -0.094 0.406 c -0.137 0.328 -0.41 0.574 -0.816 0.738 c -0.406 0.164 -0.77 0.172 -1.094 0.031 c -0.324 -0.141 -0.57 -0.418 -0.734 -0.828 c -0.078 -0.199 -0.121 -0.391 -0.129 -0.566 m 7.832 0.488 c -0.012 0.18 0.016 0.355 0.082 0.523 c 0.133 0.344 0.406 0.613 0.816 0.805 c 0.137 0.063 0.277 0.109 0.418 0.141 c 0.145 0.027 0.285 0.039 0.43 0.031 l 0.238 -0.516 c -0.023 0.004 -0.047 0.008 -0.066 0.012 l -0.172 0.363 c -0.145 0.008 -0.285 -0.004 -0.43 -0.031 c -0.141 -0.027 -0.281 -0.074 -0.418 -0.141 c -0.41 -0.191 -0.684 -0.461 -0.816 -0.805 c -0.051 -0.125 -0.078 -0.25 -0.082 -0.383 m -9.527 0.598 c -0.008 0 -0.016 0 -0.02 0 c -0.102 0.004 -0.199 0.055 -0.297 0.148 l -0.285 0.266 l 0.07 0.074 l 0.215 -0.203 c 0.098 -0.094 0.195 -0.141 0.297 -0.145 c 0.004 0 0.012 0 0.02 0 c 0.09 0.004 0.176 0.047 0.254 0.129 c 0.055 0.063 0.09 0.125 0.105 0.188 c 0.004 -0.012 0.004 -0.027 0.008 -0.043 c 0.008 -0.098 -0.031 -0.195 -0.113 -0.285 c -0.078 -0.082 -0.164 -0.125 -0.254 -0.129 m 13.707 0.145 l -0.348 0.371 l 0.07 0.066 l 0.277 -0.297 l 0.871 0.828 l 0.363 -0.391 l -0.07 -0.066 l -0.293 0.316 m -13.547 -0.688 c 0 0.008 0 0.016 0 0.023 c -0.031 0.238 -0.172 0.48 -0.426 0.719 l -0.336 0.32 l 0.07 0.074 l 0.266 -0.254 c 0.254 -0.242 0.395 -0.48 0.426 -0.723 c 0.008 -0.055 0.008 -0.109 0 -0.164 m -2.426 0.32 l -0.066 0.066 l 1.867 2 l 0.512 -0.484 l -0.07 -0.074 l -0.441 0.418 m 12.59 -1.621 l -0.43 0.457 l 0.066 0.066 l 0.363 -0.383 l 0.816 0.777 l 0.363 -0.391 l -0.07 -0.066 l -0.293 0.316 m -2.055 -0.352 l -0.066 0.074 l 1.406 1.34 l 0.363 -0.391 l -0.066 -0.063 l -0.297 0.313" fill="#f4f2f2"/></g></svg>