<svg xmlns="http://www.w3.org/2000/svg" xmlns:xlink="http://www.w3.org/1999/xlink" viewBox="0 0 48 48"><defs><g id="1" clip-path="url(#0)"><path d="m 139.58 109.19 c -0.075 -7.112 5.03 -62.995 5.849 -63.878 c 0.797 -0.851 8.615 2.242 34.464 13.675 c 18.39 8.145 33.538 15.13 33.665 15.572 c 0.159 0.458 -0.088 1.37 -0.516 2.077 c -0.634 0.977 -7.38 -1.656 -31.642 -12.366 c -16.979 -7.49 -31.23 -13.619 -31.689 -13.621 c -1.394 0.002 -1.68 2.382 -3.676 29.365 c -1.076 14.377 -2.136 27.07 -2.38 28.23 c -0.455 2.228 -4.047 3.056 -4.075 0.943" transform="matrix(0.14563 0.0338 -0.03338 0.14191 7.447 -3.178)" stroke="#000" stroke-width="2.774"/><path d="m 191.38 150.7 c -0.001 33.532 -27.19 60.731 -60.711 60.716 c -33.538 0.009 -60.728 -27.17 -60.726 -60.701 c -0.003 -33.552 27.19 -60.731 60.711 -60.716 c 33.538 -0.009 60.728 27.17 60.726 60.701" transform="matrix(0.19193 0.04454 -0.04426 0.18814 5.11 -7.247)" fill="#1e8fff" stroke="#000" stroke-width="3"/><path d="m 26.03 16.391 l -1.266 -0.152 l -1.617 0.063 l -0.359 0.211 l 0.797 0.863 l -0.086 0.371 l -0.457 0.277 l 0.266 1.086 l 0.371 -0.109 l 0.563 -0.551 c 0.684 -0.047 1.305 -0.133 1.977 -0.27 l 0.781 -1.129 m -3.914 -1.25 l -0.547 -0.047 l -0.309 0.191 l -0.426 -0.039 l -0.41 0.086 l -0.195 0.047 l -0.145 0.117 l 0.512 0.215 l 0.246 -0.137 l 0.438 0.004 c 0.313 -0.07 0.621 -0.098 0.941 -0.125 m -2.047 0.402 l -0.398 0.008 l -0.238 0.285 l -0.105 -0.461 l -0.125 0.16 l -0.07 0.473 l -0.391 0.199 l -0.324 0.461 l 0.41 0.098 l 0.313 -0.418 c 0.207 -0.082 0.414 -0.168 0.625 -0.246 l 0.375 0.234 c 0.23 0.25 0.461 0.5 0.695 0.746 l 0.496 -0.273 l -0.41 -0.289 l -0.105 -0.461 l -0.762 -0.273 m -1.801 -0.273 l -0.324 0.461 c 0 0 -0.359 -0.016 -0.453 -0.016 c -1.371 0.77 -4.176 2.461 -5.695 6.539 c 0 0.102 0.227 0.75 0.227 0.75 l 0.746 0.711 l 0.809 0.43 l 0.262 0.547 l 0.48 0.547 l 0.34 0.031 l 0.219 0.164 l -0.02 0.078 l -0.531 0.797 l -0.332 0.313 l 0.039 0.203 l -0.367 0.645 l 0.422 1.508 l 0.59 0.816 l 0.219 0.535 l -0.27 0.961 l 0.121 0.613 l -0.5 1 c -0.004 0 -0.016 0.016 -0.008 0.102 c 0.004 0.113 1.125 1.117 1.223 1.078 c 0.098 -0.043 0.176 -0.082 0.176 -0.082 l -0.027 -0.246 l 0.406 -0.246 l 0.199 -0.297 l 0.578 -0.063 l 0.648 -0.918 l -0.059 -0.301 l 0.383 -0.352 l 0.652 0.004 l 0.5 -0.656 l 0.137 -0.941 l 0.652 -0.578 l 0.246 -0.676 c -0.598 -0.484 -1.184 -0.98 -1.773 -1.48 l -0.18 -0.719 l -0.582 -0.285 l -0.125 -0.949 l -0.844 -0.098 l -0.582 -0.672 l -0.891 0.473 l -0.023 0.105 c -0.211 -0.117 -0.48 -0.188 -0.652 -0.355 l -0.055 -0.496 l 0.117 -0.512 l -0.504 -0.07 c 0.117 -0.313 0.23 -0.621 0.348 -0.934 l -0.285 -0.066 l -0.371 0.297 l -0.324 0.074 l -0.355 -0.328 l 0.078 -0.516 l 0.211 -0.531 l 0.727 -0.316 l 0.492 0.113 l 0.148 -0.262 l 0.586 0.285 l 0.32 0.66 l 0.297 -0.906 l 0.934 -0.465 l 0.453 -0.625 l 0.629 -0.098 l 0.438 -0.383 l 0.773 0.031 l 0.5 -0.461 c -0.371 -0.086 -0.742 -0.172 -1.113 -0.258 l 0.777 -0.164 l 0.492 0.113 l 0.754 -0.066 l 0.148 -0.254 l -0.191 -0.293 l -0.27 -0.156 l 0.148 -0.258 l -0.109 -0.461 l -0.535 0.066 l 0.168 -0.348 l -0.5 -0.457 l -0.637 0.68 l -0.023 0.285 l -0.492 0.078 l -0.434 0.531 l 0.008 -0.582 l -0.707 -0.5 l -0.023 -0.445 l 1.168 -0.359 l 0.551 -0.309 l 0.164 -0.5 l -0.215 -0.191 l -0.32 -0.129 m 11.523 2.676 l -0.828 0.004 l -0.566 0.211 l -0.066 0.273 l -0.902 0.328 l -0.008 0.773 l 0.531 -0.215 l 0.211 0.387 l 0.285 0.262 l 0.336 -0.504 l -0.051 -0.352 l 0.184 -0.203 l 0.547 -0.309 l 0.203 0.047 l -0.313 0.414 l -0.098 0.414 c 0.203 -0.008 0.398 0.02 0.598 0.043 l -0.621 0.242 l -0.094 0.223 l -0.738 0.363 l -0.582 -0.285 l 0.086 -0.363 l -0.328 0.117 l 0.047 0.348 l -0.457 -0.105 l -0.34 0.359 l -0.395 0.273 l -0.582 -0.016 l 0.254 0.402 l 0.012 0.34 l -0.414 -0.098 l -0.598 0.156 l -0.195 0.828 l 0.242 0.059 l 0.172 0.305 l 0.57 -0.133 l 0.324 -0.461 l 0.426 -0.145 l 0.125 -0.164 l 0.648 0.008 l 0.242 0.445 l 0.332 0.266 l -0.309 0.367 l 0.355 -0.016 l 0.258 -0.375 l -0.305 -0.555 l 0.168 0.039 l 0.336 0.414 l -0.027 0.484 l 0.27 0.5 l 0.223 -0.582 l 0.234 -0.047 c 0.152 0.258 0.25 0.543 0.367 0.82 l 0.609 0.188 l 0.313 0.316 l -0.215 0.191 l -0.445 0.238 l -0.539 -0.125 l -0.645 -0.391 l -0.379 -0.043 l -0.34 0.234 l -0.582 -0.93 l -0.5 -0.266 l -0.805 -0.09 l -0.742 0.02 c -0.496 0.352 -0.988 0.703 -1.469 1.074 l -0.699 0.953 l 0.152 0.277 l -0.5 0.469 l 0.18 1.063 c 0.258 0.473 0.516 0.941 0.773 1.414 l 0.617 -0.316 l 0.168 0.309 l 0.637 -0.219 l 0.137 0.254 l 0.555 0.125 l 0.234 0.434 l -0.344 0.59 l 0.289 0.527 l -0.203 0.754 l 0.16 0.617 l -0.316 0.418 c -0.102 0.332 -0.199 0.664 -0.281 1 c 0.063 0.5 0.121 0.992 0.172 1.492 l -0.051 0.77 l -0.086 0.367 l 0.285 0.066 l 0.52 -0.168 l 0.535 0.125 l 1.012 -0.715 l -0.031 -0.32 l 0.645 -0.344 l -0.289 -0.527 l 0.563 -0.281 l 0.52 -0.168 l 0.262 -0.184 l -0.004 -0.539 c 0.102 -0.43 0.203 -0.859 0.305 -1.285 l 0.551 -0.699 l 0.574 -0.398 l 0.773 -1.086 l 0.078 -0.324 c -0.254 -0.027 -0.5 -0.055 -0.742 -0.094 l 0.609 -0.375 l 0.789 -0.301 l 0.469 -0.328 l 0.109 -0.465 c -0.047 -0.172 -0.094 -0.344 -0.141 -0.52 l -0.418 0.297 l -0.18 -0.332 l -0.301 -0.367 l 0.141 -0.598 l 0.316 0.586 l 0.484 0.035 c 0.172 0.246 0.34 0.48 0.48 0.746 l 0.391 -0.273 c 0.086 -0.367 0.086 -2.27 -0.453 -4.01 c -0.543 -1.738 -1.793 -3.504 -1.793 -3.504 l -0.172 0.176 l -0.52 0.363 l -0.402 -0.68 l 0.531 0.125 l 0.309 -0.219 l -0.938 -0.414 m -4.711 -0.656 l -0.371 0.109 l -0.152 -0.082 l -0.105 0.266 l 0.242 0.25 l 0.566 -0.207 m -5.633 -1.5 l -0.379 0.152 l 0.344 0.371 l 0.328 0.078 l 0.074 -0.32 m 5.883 2.285 l -0.063 0.277 l 0.117 0.223 l -0.098 0.414 l -0.211 0.535 l 0.477 0.016 l 0.406 -0.25 l -0.223 -0.34 c -0.039 -0.277 -0.094 -0.543 -0.16 -0.816 m -0.539 0.457 l -0.309 0.023 l -0.039 0.531 l 0.414 -0.102 m -5.938 -0.941 l -0.027 0.676 l 0.332 -0.313 m 9.59 5.727 l 0.352 0.637 l 0.277 1.305 l 0.238 0.445 l -0.258 0.379 l 0.23 0.422 c -0.148 -0.023 -0.293 -0.047 -0.441 -0.082 c -0.133 -0.605 -0.203 -1.199 -0.27 -1.816 l -0.258 -0.473 l -0.027 -0.711" fill="#fff"/><path d="m 197.53 65.767 c -0.003 8.28 -6.378 14.989 -14.227 14.989 c -7.85 0 -14.204 -6.702 -14.201 -14.982 c -0.019 -8.275 6.356 -14.984 14.206 -14.984 c 7.85 0 14.225 6.697 14.222 14.977" transform="matrix(0.17367 0.0403 -0.04051 0.17221 7.832 -3.037)" fill="#f00" stroke="#f00" stroke-width="3"/></g><clipPath id="0"><path d="M 0,0 H48 V48 H0 z"/></clipPath></defs><path d="m 0.793 29.461 c 2.254 19.391 28.27 24.578 40.32 10.738 c 10.551 -10.281 8.727 -29.965 -3.52 -36.715 c -14.02 -9.03 -35.32 2.133 -37.11 20.11 c -0.191 1.969 -0.094 3.961 0.301 5.871" fill="#5f9d9f"/><use xlink:href="#1"/></svg>