<svg xmlns="http://www.w3.org/2000/svg" viewBox="0 0 48 48"><path d="m 0.555 29.602 c 2.977 19.242 29.414 24.395 41.08 10.656 c 10.277 -10.203 7.719 -29.738 -4.883 -36.438 c -14.477 -8.957 -35.566 2.117 -36.719 19.957 c -0.117 1.953 0.047 3.93 0.52 5.824" fill="#d5d6d7"/><path d="m 12.438 38.09 c -0.512 -0.055 -0.66 -0.172 -0.902 -0.703 c -0.18 -0.391 -0.234 -1.012 -0.191 -11.773 l 0.043 -11.738 c 0.137 -0.906 0.082 -0.414 0.5 -1.086 h 24.24 c 0.184 0.484 0.41 0.367 0.594 1.039 l -0.051 11.785 c -0.043 10.762 -0.012 11.383 -0.191 11.773 c -0.359 0.789 0.719 0.727 -12.1 0.738 c -6.34 0.004 -11.715 -0.012 -11.941 -0.035 m 23.398 -12.406 c 0.031 -6.211 0.016 -11.414 -0.031 -11.566 c -0.047 -0.152 -0.164 -0.305 -0.258 -0.344 c -0.219 -0.082 -22.863 -0.082 -23.08 0 c -0.094 0.035 -0.199 0.137 -0.23 0.227 c -0.078 0.203 -0.078 22.809 0 22.934 c 0.031 0.055 4.969 0.082 11.805 0.066 l 11.746 -0.027 m -20.82 -2.539 c -0.117 -0.07 -0.184 -0.242 -0.184 -0.465 c 0 -0.508 0.254 -0.613 1.242 -0.516 c 0.434 0.043 1.574 0.066 2.531 0.051 l 1.746 -0.023 c 0.133 0.246 0.219 0.539 0.109 0.746 c -0.121 0.227 -0.16 0.23 -1.859 0.211 c -0.957 -0.012 -2.113 0.008 -2.57 0.043 c -0.531 0.043 -0.902 0.023 -1.016 -0.047 m 6.664 -0.047 c -0.098 -0.094 -0.176 -0.281 -0.176 -0.418 c 0 -0.426 0.281 -0.602 0.824 -0.516 c 0.262 0.039 1.426 0.063 2.586 0.051 l 2.105 -0.023 c 0.133 0.246 0.223 0.539 0.113 0.746 c -0.121 0.227 -0.148 0.23 -2.227 0.211 c -1.156 -0.012 -2.316 0.012 -2.578 0.051 c -0.375 0.059 -0.512 0.035 -0.648 -0.102 m 6.668 0 c -0.094 -0.094 -0.172 -0.281 -0.172 -0.418 c 0 -0.426 0.281 -0.602 0.824 -0.516 c 0.262 0.043 1.219 0.066 2.125 0.055 c 1.449 -0.023 1.668 -0.004 1.848 0.156 c 0.258 0.23 0.258 0.383 0.004 0.613 c -0.18 0.16 -0.406 0.18 -1.852 0.16 c -0.906 -0.016 -1.863 0.008 -2.125 0.051 c -0.242 0.02 -0.508 0.035 -0.652 -0.102 m -13.348 -3.289 c -0.109 -0.086 -0.195 -0.277 -0.195 -0.441 c 0 -0.492 0.262 -0.602 1.277 -0.523 c 0.488 0.039 2 0.063 3.367 0.055 c 2.629 -0.02 2.785 0.008 2.785 0.469 c 0 0.461 -0.152 0.488 -2.84 0.469 c -1.391 -0.008 -2.906 0.016 -3.363 0.051 c -0.641 0.051 -0.879 0.031 -1.031 -0.078 m 15.852 -0.023 c -0.25 -0.246 -0.227 -0.746 0.035 -0.887 c 0.195 -0.105 1.309 -0.07 1.945 0.059 c 0.316 0.066 0.41 0.426 0.18 0.68 c -0.129 0.141 -0.309 0.199 -0.609 0.191 c -0.457 -0.066 -1.23 0.266 -1.551 -0.043 m -7.348 -0.078 c -0.16 -0.16 -0.16 -0.523 0 -0.684 c 0.09 -0.09 0.922 -0.125 3.078 -0.125 h 2.953 c 0.121 0.234 0.211 0.516 0.105 0.715 c -0.117 0.215 -0.168 0.219 -3.066 0.219 c -2.152 0 -2.98 -0.035 -3.07 -0.125 m -8.668 -3.895 c 0.203 -0.355 0.594 -0.441 1.43 -0.305 c 0.387 0.063 1.254 0.098 1.93 0.086 c 1.316 -0.031 1.535 0.035 1.535 0.457 c 0 0.422 -0.223 0.488 -1.535 0.469 c -0.676 -0.008 -1.656 0.016 -2.18 0.055 l -0.953 0.07 c -0.223 -0.289 -0.355 -0.598 -0.227 -0.832 m 5.965 0.691 c -0.18 -0.18 -0.164 -0.762 0.023 -0.918 c 0.625 -0.16 1.301 0.008 1.961 0 c 0.879 -0.016 1.113 0.082 1.113 0.465 c 0 0.387 -0.227 0.48 -1.109 0.461 c -0.633 -0.102 -1.43 0.215 -1.988 -0.008 m 4.215 -0.035 c -0.188 -0.184 -0.23 -0.539 -0.09 -0.758 c 0.148 -0.23 0.602 -0.285 1.707 -0.195 c 1.207 0.098 1.371 0.152 1.418 0.473 c 0.055 0.355 -0.168 0.535 -0.648 0.527 c -0.234 -0.004 -0.828 0.023 -1.32 0.063 c -0.758 0.059 -0.918 0.039 -1.066 -0.109 m 4.121 0.035 c -0.176 -0.18 -0.164 -0.762 0.023 -0.918 c 0.754 -0.156 1.617 0 2.363 -0.008 c 0.727 -0.008 1.305 0.035 1.434 0.105 c 0.266 0.141 0.285 0.445 0.047 0.68 c -0.145 0.145 -0.379 0.172 -1.434 0.152 c -0.754 -0.16 -1.746 0.262 -2.434 -0.012 m -11.527 -3.195 c -0.543 -0.105 -1.094 -0.664 -1.227 -1.25 c -0.242 -1.477 0.332 -2 0.949 -2.484 c 0.645 -0.66 1.637 -0.297 2.293 -0.805 c 0.219 -0.176 0.223 -0.191 0.047 -0.336 c -0.262 -0.215 -1.063 -0.18 -1.602 0.074 c -0.492 0.23 -0.898 0.184 -1.164 -0.133 c -0.203 -0.246 -0.152 -0.754 0.098 -1 c 0.219 -0.215 0.32 -0.227 1.855 -0.227 c 0.863 -0.023 1.449 -0.195 2.02 0.438 c 0.684 0.77 0.707 0.883 0.742 3.254 c 0.023 1.66 -0.004 2.176 -0.109 2.305 c -0.156 0.188 -0.652 0.219 -0.949 0.063 c -0.137 -0.074 -0.371 -0.059 -0.797 0.051 c -0.629 0.164 -1.48 0.184 -2.156 0.055 m 2.02 -1.297 c 0.414 -0.332 1.094 -1.391 0.711 -1.793 c -0.25 -0.246 -1.75 -0.074 -1.75 0.203 c -0.371 0.367 -0.973 0.762 -0.754 1.27 c 0.191 0.418 1.238 0.605 1.793 0.32 m 4.59 1.285 c -0.676 -0.105 -1.605 0.113 -1.883 -0.438 c 0 -0.066 -0.016 -1.172 -0.039 -2.453 c -0.02 -1.281 -0.07 -3.01 -0.113 -3.844 c -0.074 -1.461 -0.07 -1.523 0.145 -1.738 c 0.309 -0.305 0.789 -0.285 1.125 0.047 c 0.262 0.262 0.266 0.297 0.199 1.168 c -0.098 1.234 -0.043 1.297 0.941 1.082 c 0.43 -0.094 0.895 -0.133 1.105 -0.094 c 0.566 0.105 1.188 0.613 1.504 1.23 c 0.258 0.504 0.277 0.641 0.281 1.891 c 0.004 1.082 -0.027 1.418 -0.176 1.723 c -0.277 0.559 -0.895 1.234 -1.285 1.398 c -0.379 0.156 -1.246 0.168 -1.805 0.027 m 1.508 -1.875 c 0.453 -0.625 0.703 -1.426 0.23 -2.02 c -0.32 -0.453 -0.754 -1.078 -1.297 -0.922 c -0.66 0.438 -1.066 1.188 -1.07 1.746 c 0 0.539 -0.043 0.934 0.246 1.355 c 0.676 0.973 1.434 0.461 1.891 -0.164 m 4.742 1.895 c -0.961 -0.063 -1.488 -0.387 -2.039 -1.16 c -0.414 -1.129 -0.605 -2.598 -0.012 -3.668 c 0.617 -1.09 1.613 -1.336 2.309 -1.371 c 1.27 -0.063 1.559 -0.008 1.793 0.344 c 0.145 0.223 0.152 0.324 0.047 0.672 c -0.145 0.484 -0.418 0.59 -1.082 0.43 c -0.668 -0.164 -0.938 -0.063 -1.488 0.57 c -0.711 0.75 -0.57 1.543 -0.148 2.102 c 0.242 0.313 0.508 0.609 0.594 0.66 c 0.16 0.09 1.047 0.035 1.453 -0.09 c 0.34 -0.105 0.66 0.266 0.66 0.762 c -0.391 1.02 -1.594 0.785 -2.086 0.75" fill="#707070"/></svg>