<svg xmlns="http://www.w3.org/2000/svg" viewBox="0 0 48 48"><path d="m 36.758 43.22 c -24.551 17.01 -49.43 -14.398 -29.422 -34.438 c 18.844 -18.879 48.13 -1.375 38.973 22.12 c -1.91 4.898 -5.05 9.199 -9.551 12.324" fill="#acd7e5"/><path d="m 192.86 119.16 c -0.007 21.52 -21.276 38.947 -47.49 38.955 c -26.22 -0.007 -47.48 -17.447 -47.47 -38.95 c 0.007 -21.504 21.257 -38.946 47.48 -38.939 c 26.22 -0.009 47.48 17.431 47.49 38.934" transform="matrix(0.20933 0.00232 -0.0023 0.24088 -3.698 -8.689)" fill="#fff" fill-rule="evenodd" stroke="#fff"/><g fill="#216eb4" stroke="#6095c8" transform="matrix(0.23215 0.00257 -0.00207 0.21752 -8.03 -177.71)"><path d="m 90.44 985.24 c -0.01 -4.885 0.379 -6.595 1.472 -6.59 c 0.824 -0.01 7.083 -5.705 13.903 -12.663 l 12.406 -12.663 l 7.125 -2.94 c 1.576 -0.629 1.349 2.247 1.938 2.24 c 0.589 0.011 -2.552 6.244 -2.557 7.573 c -0.003 1.544 -3.01 5.441 -8.484 10.947 c -5.57 5.615 -8.73 9.711 -9.198 11.943 c -0.404 1.872 -1.414 3.662 -2.236 3.995 c -0.838 0.315 -1.518 1.526 -1.507 2.658 c -0.001 1.814 -0.84 2.075 -6.443 2.087 l -6.428 0.004 m 49.802 -36.16 c -4.637 -1.13 -8.702 -4.064 -16.19 -11.679 c -4.126 -4.189 -6.852 -7.964 -7.309 -10.15 c -3.717 -5.523 -10.242 -25.847 -6.507 -31.53 c 4.149 -17.72 8.187 -21.557 19.733 -32.504 c 5.611 -6.603 30.15 -11.849 36.25 -7.234 c 3.375 1.038 8.77 2.267 14.15 5.49 c 6.716 4.02 13.217 10.385 13.608 14.547 c 2.245 2.703 5.207 10.283 5.868 10.778 c 4.02 8.788 3.516 18.815 1.505 27.17 c -0.957 3.998 -3.542 6.543 -3.744 10.388 c -0.001 3.61 -19.09 21.362 -22.625 21.368 c -9.196 4.598 -10.511 4.344 -18.37 4.276 c -7.219 -0.058 -14.576 -0.474 -16.363 -0.902 m 26.82 -7.644 c 12.861 -5 16.601 -8.241 24.291 -17.581 c 2.231 -2.666 6.236 -15.823 6.228 -20.42 c -0.013 -7.08 -4.985 -21.258 -9.393 -26.845 c -4.856 -6.749 -8.688 -8.194 -13.988 -11.957 c -1.575 -1.113 -6.605 -2.921 -11.175 -3.998 c -6.762 -1.608 -9.08 -1.742 -12.323 -0.734 c -14.14 3.184 -25.25 12.294 -32.382 25.434 c -3.884 11.647 -4.466 25.572 0.419 35.571 c 3.89 7.874 14.267 18.688 19.668 20.474 c 8.618 4.1 20.464 4.104 28.655 0.057 m -15.542 -5.06 c -0.002 -2.119 0.47 -3.849 1.026 -3.855 c 5.314 -7.839 8.396 -18.866 12.818 -26.748 c 1.127 -1.881 2.393 -5.272 2.793 -7.522 c 0.673 -3.761 -1.521 -6.357 -4.155 -7.386 c -4.508 -1.761 -3.505 -8.166 2.485 -8.111 c 4.123 0.041 14.754 5.393 17.06 7.61 c 1.782 1.685 2.882 6.144 3.919 9.202 c 0.743 2.182 -1.263 3.66 -2.121 3.653 c -0.522 0.006 -7.661 -4.381 -8.413 -3.78 c -2.356 1.86 -4.97 4.943 -5.535 7.626 c -3.875 6.924 -6.644 15.379 -10.222 21.617 c -1.178 1.81 -2.133 4.156 -2.141 5.215 c -0.013 2.353 -3.713 6.311 -5.9 6.319 c -1.127 -0.005 -1.609 -1.166 -1.616 -3.842" stroke-width="1.037"/><path d="m 133.47 921.55 c -0.262 -1.11 2.064 -4.442 4.545 -9.248 c 0.794 -1.554 2.063 -2.61 1.832 -4.03 c -0.286 -1.828 -2.39 -3.833 -4.145 -4.423 c -3.173 -1.058 -4.656 -3.178 -5.669 -5.464 c -1.201 -4.511 3.058 -11.799 6.681 -14.913 c 3.057 -2.46 4.378 -3.41 8.639 -1.126 c 4.464 2.408 5.879 2.642 7.213 1.226 c 0.667 -0.708 1.093 -1.934 1.099 -3.12 c -0.006 -2.604 1.163 -3.516 4.528 -3.537 c 2.642 -0.013 4.123 0.059 4.559 1.796 c 0.402 1.683 2.899 2.462 3.266 3.984 c 0.007 0.826 -1.905 1.459 -3.1 1.455 c -1.397 -0.001 -3.098 -2.154 -3.8 -1.571 c -0.551 0.473 -1.18 3.534 -1.708 4.653 c -2.065 4.298 -4.545 5.477 -7.087 3.388 c -5.36 -2.918 -9.351 -5.169 -10.306 -0.992 c -1.026 5.723 -6.627 5.897 -3.082 9.123 c 1.272 1.17 4.756 3.105 5.886 3.414 c 1.588 0.718 0.91 3.958 2.071 5.812 c 6.202 4.901 3.261 14.669 -2.845 18.638 c -5.848 2.745 -6.979 -1.462 -8.559 -5.071" fill-rule="evenodd" stroke-width="0.643"/></g></svg>