<svg xmlns="http://www.w3.org/2000/svg" viewBox="0 0 48 48"><path d="m 24.08 47.82 c 32.21 3.605 31.762 -47.988 -0.574 -47.37 c -30.07 -1.699 -32.785 50.19 0.574 47.38" fill="#6f6f6f"/><path d="m 20.383 37.32 c -1.863 -0.637 -3.574 -1.68 -4.891 -2.977 l -1.176 -1.164 l -1.348 0.293 c -1.734 0.371 -2.211 0.094 -3.367 -1.957 c -0.848 -1.5 -0.855 -1.543 -0.844 -4.488 c 0.008 -2.438 0.094 -3.145 0.484 -3.914 c 0.262 -0.52 0.445 -1.27 0.41 -1.676 c -0.109 -1.219 0.613 -4.01 1.461 -5.625 c 1.707 -3.25 5.617 -5.891 10.02 -6.758 c 5.781 -1.141 12.676 1.922 15.215 6.758 c 0.844 1.613 1.57 4.406 1.461 5.625 c -0.035 0.406 0.148 1.156 0.41 1.676 c 0.387 0.77 0.477 1.477 0.484 3.914 c 0.008 2.945 0 2.988 -0.844 4.488 c -1.156 2.047 -1.637 2.328 -3.359 1.957 l -1.34 -0.289 l -1.402 1.352 c -0.941 0.906 -2.031 1.637 -3.293 2.215 c -2.703 0.992 -5.367 1.477 -8.08 0.57 m -8.453 -6.91 c -0.023 -0.434 -0.109 -1.051 -0.191 -1.375 c -0.133 -0.5 -0.254 -0.563 -0.832 -0.426 c -0.883 0.207 -1.02 0.445 -0.797 1.391 c 0.266 1.137 0.465 1.348 1.199 1.266 c 0.57 -0.063 0.652 -0.176 0.621 -0.855 m 25.06 0.637 c 0.293 -0.453 0.547 -1.816 0.383 -2.055 c -0.082 -0.125 -0.449 -0.297 -0.816 -0.383 c -0.707 -0.164 -0.742 -0.121 -1.07 1.445 c -0.086 0.422 -0.09 0.879 -0.004 1.012 c 0.211 0.328 1.293 0.313 1.508 -0.02 m -15.672 -5.184 c 2.559 0.012 3.27 -2.891 5.04 -3.121 c 4.758 -1.953 0.844 -3.914 -2.211 -3.734 c -1.527 0.078 -3.254 0.305 -3.84 0.504 c -2.547 0.867 -5.25 3.531 -5.25 5.176 c 0.309 3.793 3.418 2.422 6.262 1.176 m -10.03 -0.66 c 0.07 -2.105 0.055 -2.176 -0.441 -2.055 c -0.73 0.188 -1.066 0.941 -1.086 2.449 c -0.02 1.535 0.191 1.961 0.922 1.859 c 0.496 -0.066 0.539 -0.227 0.605 -2.254 m 26.352 1.469 c 0.215 -0.746 0.047 -2.34 -0.316 -3.01 c -0.117 -0.211 -0.438 -0.441 -0.715 -0.512 c -0.477 -0.121 -0.504 -0.02 -0.504 1.953 c 0 1.145 0.078 2.156 0.176 2.246 c 0.402 0.387 1.16 0.004 1.359 -0.684 m -24.898 -4.566 c 0.57 -0.094 1.199 -0.578 2.34 -1.801 c 1.828 -1.961 3.223 -2.871 5.387 -3.516 c 4.492 -1.336 9.207 0.09 12.227 3.691 c 1.113 1.328 1.797 1.711 3.598 2.02 c 0.184 0.031 0.02 -3.813 -0.195 -4.555 c -0.461 -1.602 -1.73 -3.098 -3.426 -4.04 c -0.867 -0.48 -1.871 -1.148 -2.23 -1.477 c -7.266 -3.871 -12.08 -2.223 -15.68 1.484 c -2.609 1.918 -3.664 4.723 -3.664 6.828 c 0 1.641 0.043 1.805 0.43 1.656 c 0.242 -0.09 0.785 -0.219 1.215 -0.289" fill="#fff"/><g fill="#6f6f6f" stroke="#6f6f6f" stroke-width="0.647" transform="scale(0.1875)"><path d="m 78.56 180.9 c -2.02 -2.354 -5.229 -9.417 -6.729 -14.771 c -3.729 -13.396 -4.813 -28.896 -2.896 -41.25 c 0.938 -6.06 2.938 -11.04 5.271 -13.208 c 1.521 -1.417 1.896 -1.354 1.333 0.25 c -2.771 7.875 -3.875 20.1 -3.042 33.729 c 0.708 11.958 3.25 24.854 6.625 33.771 c 0.646 1.688 1.083 3.083 1 3.083 c -0.083 0.021 -0.792 -0.708 -1.563 -1.604"/><path d="m 174.88 180.9 c 2.02 -2.354 5.25 -9.417 6.729 -14.771 c 3.75 -13.396 4.833 -28.896 2.917 -41.25 c -0.958 -6.06 -2.938 -11.04 -5.271 -13.208 c -1.542 -1.417 -1.896 -1.354 -1.333 0.25 c 2.771 7.875 3.854 20.1 3.042 33.729 c -0.729 11.958 -3.25 24.854 -6.625 33.771 c -0.646 1.688 -1.104 3.083 -1 3.083 c 0.083 0.021 0.792 -0.708 1.563 -1.604"/></g></svg>