<svg xmlns="http://www.w3.org/2000/svg" viewBox="0 0 48 48"><path d="m 33.11 3.109 c -42.953 -17.785 -44.14 59.35 -0.754 41.938 c 17.609 -6.25 22.844 -32.793 0.754 -41.938" fill="#ea638d"/><g fill="#fff"><path d="m 10.285 12.602 c 0 0 -1.352 0.594 -2.348 1.098 c 0.805 2.059 1.824 12.09 1.824 12.09 c 0 0 7.566 -0.262 7.05 -2.734 c -0.523 -2.477 -6.121 -2.082 -6.121 -2.082 l -0.402 -8.367 m 15.895 0.02 c 0 0 -1.352 0.59 -2.348 1.098 c 0.809 2.059 1.828 12.09 1.828 12.09 c 0 0 7.566 -0.262 7.04 -2.738 c -0.52 -2.473 -6.121 -2.078 -6.121 -2.078 m -6.191 -6.793 l -1.945 0.109 l 1.473 10.1 l 1.23 -0.023 l -0.758 -10.188 m 15.848 0.004 l -1.945 0.109 l 1.473 10.1 l 1.234 -0.023 c -0.254 -3.391 -0.508 -6.797 -0.762 -10.184 m -18.16 2.375 l -1.91 0.23 l 0.473 2.039 l 1.672 -0.27 m 15.914 -2 l -2.211 0.23 l 0.477 2.039 l 1.73 -0.09 m -12.777 -1.969 l 0.18 2.078 l 1.801 -0.016 l 0.297 -2.129 c -0.758 0.043 -1.52 0.059 -2.277 0.066 m 15.848 0 l 0.18 2.078 l 2.102 -0.016 l -0.063 -2.129 c -0.738 0.043 -1.48 0.059 -2.219 0.066 m -18.684 2.473 l -2.02 0.266 l 1.281 5.301 l 1.352 -0.109 l -0.613 -5.457 m 15.848 0 l -2.02 0.266 l 1.281 5.301 l 1.352 -0.109 m -11.563 -5.199 l -2.035 0.012 l 0.516 5.414 l 1.355 0.055 l 0.168 -5.48 m 15.848 0 l -2.035 0.012 l 0.512 5.414 l 1.355 0.055 m -27.27 -2.758 c 3.03 1.168 2.797 0.551 0.332 2.367 m 15.563 -2.344 c 3.03 1.168 2.797 0.551 0.332 2.363" fill-rule="evenodd"/><path d="m 90.63 155.27 h 74.29 c 7.104 0 12.854 4.896 12.854 10.938 v 37.688 c 0 6.04 -5.75 10.917 -12.854 10.917 h -74.29 c -7.083 0 -12.833 -4.875 -12.833 -10.917 v -37.688 c 0 -6.04 5.75 -10.938 12.833 -10.938" transform="scale(0.1875)" stroke="#fff" stroke-width="0.646"/></g><g fill="#374354" stroke="#374354"><path d="m -241.85 -45.959 c 2.536 0.004 4.612 4.893 4.603 10.908 l 0.022 49.52 c -0.025 6.03 -2.08 10.927 -4.63 10.908 c -2.552 0.01 -4.627 -4.879 -4.632 -10.91 l 0.007 -49.52 c -0.005 -6.03 2.064 -10.913 4.63 -10.908" transform="matrix(-0.12608 -0.13878 -0.14304 0.12123 0 0)" stroke-width="0.704"/><path d="m -73.73 143.74 c 2.611 0.012 4.724 4.886 4.715 10.913 l -0.002 50.789 c 0.007 6.01 -2.102 10.919 -4.713 10.907 c -2.597 0.004 -4.71 -4.871 -4.715 -10.913 l 0.002 -50.789 c 0.009 -6.03 2.116 -10.903 4.713 -10.907" transform="matrix(0.12504 -0.13972 0.14214 0.12229 0 0)" stroke-width="0.717"/></g></svg>