<svg xmlns="http://www.w3.org/2000/svg" viewBox="0 0 48 48"><path d="m 31.809 46.11 c -23.891 9.313 -36.14 -16.793 -30.06 -33.04 c 4.25 -11.344 21.19 -16.996 34.883 -8.941 c 17.277 10.168 13.602 34.801 -4.824 41.984" fill="#92a2b2"/><path d="m 263.55 40.845 c -0.53 -0.875 0.212 -13.458 3.585 -60.833 c 1.061 -14.979 1.018 -16.417 -0.573 -18.19 c -2.524 -2.792 -1.188 -6.04 2.461 -6.04 c 3.649 0 4.985 3.25 2.461 6.04 c -1.867 2.063 -2.02 -1.917 2.058 56.813 c 0.806 11.75 1.209 21.75 0.912 22.25 c -0.742 1.188 -10.161 1.146 -10.904 -0.042 m -51.592 -12.396 c -11.392 -9.375 -20.705 -22.25 -25.923 -35.771 c -4.03 -10.458 -6.449 -24.979 -5.558 -33.31 l 0.679 -6.396 l 4.837 -0.354 l 4.816 -0.333 l 0.7 7.917 c 1.994 22.979 12.877 44.08 29.402 57.08 c 3.352 2.625 6.11 5.063 6.11 5.417 c 0 1.104 -7.04 11.08 -7.828 11.08 c -0.424 0 -3.691 -2.396 -7.234 -5.333 m 102.55 -0.125 c -1.909 -3 -3.479 -5.625 -3.479 -5.854 c 0 -0.208 2.737 -2.563 6.11 -5.188 c 16.526 -13 27.408 -34.1 29.402 -57.08 l 0.7 -7.917 l 4.816 0.333 l 4.837 0.354 l 0.679 6.396 c 0.891 8.333 -1.549 22.854 -5.579 33.31 c -3.267 8.5 -8.783 17.667 -15.338 25.521 c -4.115 4.938 -16.313 15.583 -17.841 15.583 c -0.445 0 -2.376 -2.458 -4.306 -5.458 m -86.7 -24.792 c -10.522 -9.896 -17.14 -23.292 -18.477 -37.37 c -0.318 -3.375 -0.276 -7.771 0.106 -9.75 c 0.552 -3 1.103 -3.625 3.14 -3.625 c 2.164 0 2.44 0.417 2.44 3.833 c 0 5.771 3.458 18.15 7.06 25.292 c 1.973 3.896 5.855 9 10.08 13.208 c 3.776 3.771 6.873 7.396 6.873 8.04 c 0 1.813 -2.97 5.625 -4.37 5.625 c -0.7 0 -3.776 -2.375 -6.852 -5.25 m 72.827 2.792 c -0.891 -1.375 -1.612 -2.896 -1.612 -3.396 c 0 -0.521 3.097 -4.04 6.873 -7.813 c 4.2 -4.208 8.104 -9.313 10.06 -13.208 c 3.606 -7.146 7.06 -19.521 7.06 -25.292 c 0 -3.417 0.276 -3.833 2.461 -3.833 c 2.037 0 2.567 0.625 3.14 3.625 c 1.909 10.167 -2.143 25.563 -9.716 36.875 c -4.561 6.813 -13.322 15.5 -15.656 15.5 c -0.552 0 -1.718 -1.104 -2.609 -2.458 m -56.917 -20.5 c -1.867 -1.646 -4.879 -5.813 -6.725 -9.25 c -2.821 -5.292 -3.415 -7.604 -3.776 -14.417 c -0.276 -5.333 -0.042 -8.354 0.679 -8.813 c 0.742 -0.458 1.124 0.458 1.124 2.667 c 0 5.083 2.8 14.833 5.41 18.771 c 1.252 1.917 4.01 5.146 6.088 7.167 c 2.461 2.375 3.564 4.229 3.182 5.25 c -0.87 2.271 -2.164 1.979 -5.982 -1.375 m 44.867 1.271 c -0.424 -1.146 0.53 -2.813 3.055 -5.25 c 2.02 -1.958 4.709 -5.146 5.982 -7.06 c 2.588 -3.938 5.41 -13.688 5.41 -18.771 c 0 -2.208 0.361 -3.125 1.103 -2.667 c 0.742 0.458 0.976 3.479 0.7 8.813 c -0.361 6.813 -0.976 9.125 -3.776 14.417 c -3.076 5.75 -8.867 12.208 -10.968 12.208 c -0.467 0 -1.146 -0.75 -1.506 -1.688" transform="matrix(0.18414 0 0 0.1875 -25.841 28.27)" fill="#364754" stroke="#364754" stroke-width="4"/></svg>