<svg xmlns="http://www.w3.org/2000/svg" viewBox="0 0 48 48"><path d="m 41.926 7.609 c 27.22 41.543 -47.13 57.62 -41.2 14.879 c 2.414 -17.43 30.793 -30.773 41.2 -14.879" fill="#2f4e4e"/><g fill="#b2b2b2"><path d="m 29.594 15.836 v -3.824 h 7.652 v 7.652 h -7.652"/><path d="m 20.406 15.836 v -3.824 h 7.875 v 7.652 h -7.875"/><path d="m 11.441 15.836 v -3.824 h 7.871 v 7.652 h -7.871"/><path d="m 11.441 24.805 v -3.828 h 7.871 v 7.652 h -7.871"/><path d="m 11.441 33.879 v -3.938 h 7.871 v 7.871 h -7.871"/><path d="m 29.594 33.879 v -3.938 h 7.652 v 7.871 h -7.652"/><path d="m 29.594 24.805 v -3.828 h 7.652 v 7.652 h -7.652"/><path d="m 24.02 28.15 c 0 -0.059 -0.297 -0.145 -0.66 -0.188 c -0.359 -0.047 -0.656 -0.137 -0.656 -0.203 c 0 -0.066 -0.059 -0.121 -0.137 -0.121 c -0.211 0 -1.047 -0.84 -1.047 -1.055 c 0 -0.102 -0.059 -0.188 -0.129 -0.188 c -0.074 0 -0.133 -0.141 -0.133 -0.313 c 0 -0.172 -0.059 -0.309 -0.133 -0.309 c -0.07 0 -0.129 -0.309 -0.129 -0.688 c 0 -0.375 0.059 -0.684 0.129 -0.684 c 0.074 0 0.133 -0.168 0.133 -0.371 c 0 -0.207 0.059 -0.375 0.133 -0.375 c 0.07 0 0.129 -0.082 0.129 -0.188 c 0 -0.102 0.055 -0.184 0.117 -0.184 c 0.063 0 0.188 -0.168 0.277 -0.375 c 0.09 -0.203 0.238 -0.371 0.324 -0.371 c 0.09 0 0.305 -0.117 0.477 -0.258 c 0.172 -0.145 0.48 -0.289 0.68 -0.328 c 0.203 -0.039 0.398 -0.117 0.438 -0.176 c 0.098 -0.152 1.598 -0.137 1.699 0.016 c 0.043 0.066 0.195 0.125 0.336 0.125 c 0.141 0 0.254 0.055 0.254 0.121 c 0 0.07 0.063 0.125 0.141 0.125 c 0.078 0 0.219 0.07 0.313 0.156 c 0.094 0.086 0.297 0.238 0.449 0.34 c 0.156 0.098 0.281 0.281 0.281 0.402 c 0 0.121 0.059 0.223 0.133 0.223 c 0.07 0 0.129 0.109 0.129 0.246 c 0 0.137 0.059 0.25 0.133 0.25 c 0.07 0 0.133 0.141 0.133 0.313 c 0 0.168 0.059 0.309 0.129 0.309 c 0.074 0 0.133 0.195 0.133 0.438 c 0 0.238 -0.059 0.434 -0.133 0.434 c -0.07 0 -0.129 0.168 -0.129 0.371 c 0 0.207 -0.063 0.375 -0.133 0.375 c -0.074 0 -0.133 0.082 -0.133 0.188 c 0 0.102 -0.059 0.184 -0.129 0.184 c -0.074 0 -0.133 0.086 -0.133 0.191 c 0 0.215 -0.836 1.055 -1.047 1.055 c -0.074 0 -0.137 0.055 -0.137 0.125 c 0 0.066 -0.09 0.121 -0.195 0.121 c -0.152 0 -0.203 -0.176 -0.215 -0.773 c -0.023 -1.18 0 -1.234 0.648 -1.816 c 0.57 -0.512 0.605 -0.582 0.605 -1.191 c 0 -0.539 -0.059 -0.707 -0.348 -0.984 c -0.195 -0.18 -0.441 -0.332 -0.547 -0.332 c -0.105 0 -0.23 -0.109 -0.277 -0.246 c -0.074 -0.227 -0.199 -0.25 -1.223 -0.25 c -0.996 0 -1.188 0.035 -1.484 0.281 c -0.633 0.52 -0.801 1.121 -0.492 1.766 c 0.129 0.27 0.242 0.316 0.758 0.324 c 0.332 0.008 0.527 0.039 0.438 0.074 c -0.09 0.035 -0.164 0.168 -0.164 0.301 c 0 0.133 -0.059 0.238 -0.133 0.238 c -0.18 0 -0.168 1.902 0.016 2.285 c 0.121 0.242 0.281 0.324 0.789 0.391 c 0.738 0.098 0.863 0.309 0.184 0.309 c -0.254 0 -0.461 -0.047 -0.461 -0.109"/><path d="m 23.945 26.03 c 0 -0.109 0.059 -0.199 0.129 -0.199 c 0.07 0 0.125 -0.09 0.125 -0.203 c 0 -0.207 0.098 -0.359 0.602 -0.922 c 0.164 -0.184 0.285 -0.484 0.285 -0.719 c 0 -0.359 -0.043 -0.406 -0.375 -0.406 c -0.23 0 -0.496 0.129 -0.688 0.332 c -0.215 0.223 -0.457 0.332 -0.75 0.332 c -0.391 0 -0.422 -0.031 -0.367 -0.332 c 0.031 -0.18 0.109 -0.332 0.172 -0.332 c 0.059 0 0.109 -0.117 0.109 -0.262 c 0 -0.172 0.086 -0.266 0.242 -0.266 c 0.133 0 0.266 -0.066 0.293 -0.152 c 0.027 -0.094 0.383 -0.148 0.949 -0.145 c 0.797 0.008 0.945 0.047 1.227 0.344 c 0.18 0.188 0.324 0.43 0.324 0.543 c 0 0.113 0.055 0.203 0.125 0.203 c 0.07 0 0.125 0.09 0.125 0.199 c 0 0.109 -0.055 0.199 -0.125 0.199 c -0.07 0 -0.125 0.105 -0.125 0.234 c 0 0.129 -0.121 0.324 -0.27 0.43 c -0.516 0.371 -0.867 0.805 -0.867 1.063 c 0 0.215 -0.09 0.258 -0.57 0.258 c -0.422 0 -0.566 -0.051 -0.566 -0.199"/><path d="m 24.04 27.2 v -0.457 h 0.914 v 0.91 h -0.914"/></g><g fill="#2f4e4e"><path d="m 22.492 35.551 v -1.25 h 1.789 v 2.5 h -1.789"/><path d="m 24.926 35.652 v -1.25 h 1.789 v 2.5 h -1.789"/></g><path d="m 21.723 34.12 v -1.758 h 5.477 v 3.512 h -5.477" fill="#dc133c"/><path d="m 22.594 31.355 v -0.984 h 3.816 v 1.969 h -3.816" fill="#8b4512"/><path d="m 27.633 36.938 v -0.414 h 0.859 v 0.828 h -0.859" fill="#deb886"/><path d="m 27.352 34.832 v -1.727 h 1.484 v 3.453 h -1.484" fill="#dc133c"/><path d="m 20.332 36.723 v -0.512 h 0.922 v 1.02 h -0.922" fill="#deb886"/><path d="m 20.08 34.816 v -1.723 h 1.484 v 3.449 h -1.484" fill="#dc133c"/><path d="m 22.695 34.13 v -1.25 h 3.512 v 2.5 h -3.512" fill="#2f4e4e"/><g fill-rule="evenodd"><path d="m 141.07 171.32 c 0 5.428 -3.869 9.803 -8.66 9.803 c -4.766 -0.021 -8.634 -4.416 -8.634 -9.844 l 8.66 0.041" transform="matrix(0.15246 0 0 0.18928 4.266 1.307)" fill="#deb886" stroke="#deb886"/><path d="m 141.08 171.33 c 0 5.417 -3.896 9.792 -8.667 9.792 c -4.771 0 -8.646 -4.417 -8.646 -9.833 l 8.667 0.042" transform="matrix(0.1875 0 0 -0.1875 -0.312 66.7)" fill="#8b4512" stroke="#8b4512"/></g></svg>