<svg xmlns="http://www.w3.org/2000/svg" xmlns:xlink="http://www.w3.org/1999/xlink" viewBox="0 0 48 48"><defs><g id="4" clip-path="url(#3)"><path d="m 27.28 34.37 c -0.77 0.172 -1.785 0.359 -3.055 0.555 c -1.242 0.195 -2.688 0.293 -4.344 0.293 c -1.434 0 -2.641 -0.188 -3.625 -0.555 c -0.98 -0.391 -1.77 -0.934 -2.363 -1.629 c -0.602 -0.695 -1.031 -1.508 -1.293 -2.441 c -0.262 -0.957 -0.398 -2.01 -0.398 -3.164 v -9.516 h 3.422 v 8.867 c 0 2.063 0.277 3.543 0.992 4.43 c 0.723 0.891 1.93 1.336 3.629 1.336 c 0.359 0 0.73 -0.008 1.113 -0.031 c 0.383 -0.02 0.742 -0.039 1.078 -0.066 c 0.332 -0.039 0.633 -0.07 0.895 -0.098 c 0.289 -0.039 0.156 -0.082 0.273 -0.129 v -14.305 h 3.422 v 16.457"/><path d="m 32.727 12.152 h 2.281 v 26.918 h -2.281"/></g><clipPath id="5"><path d="m 11 16 h 16 v 19 h -16"/></clipPath><clipPath id="6"><path d="m 31 11 h 3 v 28 h -3"/></clipPath><clipPath id="3"><path d="M 0,0 H48 V48 H0 z"/></clipPath><clipPath id="0"><path d="m 49.832 24.574 c 0 13.156 -11.75 23.813 -26.23 23.813 c -14.48 0 -26.23 -10.656 -26.23 -23.813 c 0 -13.156 11.75 -23.813 26.23 -23.813 c 14.477 0 26.23 10.656 26.23 23.813"/></clipPath><filter id="1" filterUnits="objectBoundingBox" x="0" y="0" width="48" height="48"><feColorMatrix type="matrix" in="SourceGraphic" values="0 0 0 0 1 0 0 0 0 1 0 0 0 0 1 0 0 0 1 0"/></filter><mask id="2"><g filter="url(#1)"><path fill-opacity="0.102" d="M 0,0 H48 V48 H0 z"/></g></mask></defs><path d="m 21.992 47.883 c 29.12 2.766 36.953 -43.922 7.06 -47.551 c -27.492 -4.492 -41.648 37.828 -14.332 46.3 c 2.309 0.926 4.832 0.91 7.273 1.254" fill="#f8d1b9"/><g clip-path="url(#0)"><use xlink:href="#4" mask="url(#2)"/></g><g clip-path="url(#5)"><g clip-path="url(#0)"><path d="m 26.14 33.34 c -0.77 0.172 -1.785 0.359 -3.055 0.555 c -1.242 0.195 -2.688 0.293 -4.344 0.293 c -1.434 0 -2.641 -0.188 -3.625 -0.555 c -0.98 -0.391 -1.77 -0.934 -2.363 -1.629 c -0.602 -0.695 -1.031 -1.508 -1.293 -2.441 c -0.262 -0.961 -0.398 -2.01 -0.398 -3.164 v -9.516 h 3.422 v 8.867 c 0 2.063 0.277 3.543 0.992 4.43 c 0.723 0.891 1.93 1.336 3.629 1.336 c 0.359 0 0.73 -0.008 1.113 -0.031 c 0.383 -0.02 0.742 -0.043 1.078 -0.066 c 0.332 -0.039 0.633 -0.07 0.895 -0.098 c 0.289 -0.039 0.156 -0.086 0.277 -0.129 v -14.305 h 3.418 v 16.457" fill="#f60"/></g></g><g clip-path="url(#6)"><g clip-path="url(#0)"><path d="m 31.586 11.12 h 2.281 v 26.918 h -2.281" fill="#2d2d2d"/></g></g></svg>