<svg xmlns="http://www.w3.org/2000/svg" viewBox="0 0 48 48"><path d="m 45.793 35.35 c -9.449 22.676 -46.03 12.559 -45.789 -12.141 c -0.367 -22.449 28.719 -30.961 41.469 -14.969 c 6.375 6.914 8.602 18.371 4.32 27.11" fill="#b0c3de" fill-opacity="0.996"/><g fill="#4e4e4e"><path d="m 29.742 12.453 h 2.203 v 23.676 h -2.203"/><path d="m 23.13 12.477 h 2.203 v 23.68 h -2.203"/><path d="m 26.438 12.477 h 2.203 v 23.68 h -2.203"/><path d="m 19.832 12.477 h 2.203 v 23.68 h -2.203"/><path d="m 16.527 12.477 h 2.203 v 23.68 h -2.203"/><path d="m 35.98 29.859 v 2.223 h -23.465 v -2.223"/><path d="m 35.957 23.19 v 2.223 h -23.469 v -2.223"/><path d="m 35.957 26.527 v 2.223 h -23.469 v -2.223"/><path d="m 35.957 19.859 v 2.223 h -23.469 v -2.223"/><path d="m 35.957 16.527 v 2.223 h -23.469 v -2.223"/></g><path d="m 33.777 33.953 v -18.17 c 0 -0.301 -0.242 -0.543 -0.539 -0.543 h -18 c -0.301 0 -0.543 0.242 -0.543 0.543 v 18.17 c 0 0.301 0.242 0.543 0.543 0.543 h 18 c 0.297 0 0.539 -0.242 0.539 -0.543" fill-opacity="0.2"/><path d="m 15.344 14.676 h 17.785 c 0.359 0 0.648 0.289 0.648 0.648 v 17.957 c 0 0.359 -0.289 0.652 -0.648 0.652 h -17.785 c -0.359 0 -0.652 -0.293 -0.652 -0.652 v -17.957 c 0 -0.359 0.293 -0.648 0.652 -0.648" fill="#afafb1"/><g fill="#fff" fill-opacity="0.2"><path d="m 15.754 14.676 c -0.586 0 -1.063 0.477 -1.063 1.07 v 0.566 c 0 -0.594 0.477 -1.07 1.063 -1.07 h 16.965 c 0.586 0 1.063 0.477 1.063 1.07 v -0.566 c 0 -0.594 -0.477 -1.07 -1.063 -1.07"/><path d="m 22.13 27.01 c 0.027 0.207 0.031 0.414 0.039 0.621 c 0.23 0.199 0.488 0.359 0.781 0.48 c 0.32 0.129 0.77 0.191 1.344 0.191 c 0.84 0 1.57 -0.063 2.184 -0.191 c 0.633 -0.113 1.137 -0.219 1.512 -0.316 v -0.594 c -0.375 0.098 -0.879 0.203 -1.512 0.316 c -0.613 0.129 -1.344 0.191 -2.184 0.191 c -0.574 0 -1.023 -0.063 -1.344 -0.191 c -0.309 -0.125 -0.582 -0.297 -0.82 -0.508 m -1.656 3.965 v 0.594 h 1.742 v -0.594"/></g><path d="m 21.748 31.865 v -17.921 h 4.736 l 0.053 9.01 c 0.064 8.702 0.074 9.05 0.468 10.179 c 0.553 1.656 1.309 2.595 2.565 3.207 c 1.011 0.496 1.117 0.506 3.682 0.475 c 1.458 -0.021 3.02 -0.105 3.469 -0.19 l 0.83 -0.148 l 0.043 -11.265 l 0.053 -11.265 h 4.555 v 25.663 l -1.884 0.39 c -3.203 0.665 -5.236 0.918 -7.62 0.918 c -2.724 0 -4.055 -0.285 -5.438 -1.192 c -0.543 -0.359 -1 -0.612 -1.022 -0.58 c -0.021 0.032 0.021 1.276 0.096 2.774 c 0.074 1.487 0.138 3.871 0.149 5.284 l 0.021 2.584 h -4.757" transform="matrix(0.36705 0 0 0.37034 12.49 12.453)" fill="#454546" stroke="#454546" stroke-width="0.382"/></svg>