<svg xmlns="http://www.w3.org/2000/svg" viewBox="0 0 48 48"><path d="m 36.34 3.5 c 42.25 36.27 -44.621 71.14 -35.695 15.05 c 1.957 -12.301 24.309 -24.824 35.695 -15.05" fill="#6095fc"/><path d="m 20.453 39.39 c -5.754 -0.918 -10.629 -4.961 -12.453 -10.316 c -1 -2.949 -1 -6.586 0 -9.535 c 1.555 -4.57 5.426 -8.289 10.18 -9.785 c 3.066 -0.961 6.852 -0.961 9.918 0 c 5.422 1.707 9.672 6.336 10.688 11.645 c 0.309 1.617 0.309 4.199 0 5.816 c -0.344 1.789 -1.316 4.086 -2.328 5.484 c -2.723 3.773 -6.32 6.02 -10.746 6.695 c -2.023 0.313 -3.285 0.313 -5.258 -0.004" fill="#b8c5fd"/><path d="m 20.578 37.11 c -2.59 -0.441 -5.01 -1.684 -7.02 -3.609 c -2.629 -2.52 -3.969 -5.625 -3.969 -9.207 c 0 -3.551 1.352 -6.676 3.969 -9.195 c 2.625 -2.52 5.871 -3.816 9.574 -3.816 c 3.691 0 6.969 1.305 9.574 3.813 c 2.633 2.535 3.969 5.637 3.969 9.207 c 0 3.574 -1.336 6.68 -3.969 9.199 c -1.547 1.488 -3.03 2.387 -5.191 3.16 c -1.762 0.629 -4.758 0.824 -6.941 0.453" fill="#47c9fc"/><path d="m 20.578 37.11 c -2.59 -0.441 -5.01 -1.684 -7.02 -3.609 c -2.629 -2.52 -3.969 -5.625 -3.969 -9.207 c 0 -3.551 1.352 -6.676 3.969 -9.195 c 2.625 -2.52 5.871 -3.816 9.574 -3.816 c 3.691 0 6.969 1.305 9.574 3.813 c 2.633 2.535 3.969 5.637 3.969 9.207 c 0 3.574 -1.336 6.68 -3.969 9.199 c -1.547 1.488 -3.03 2.387 -5.191 3.16 c -1.762 0.629 -4.758 0.824 -6.941 0.453 m 4.078 -1.996 c 1.328 -0.168 2.824 -0.621 3.426 -1.039 c 0.805 -0.563 1.172 -1.082 1.594 -2.254 l 0.402 -1.105 l 0.039 -6.06 c 0.023 -3.332 0.09 -6.16 0.148 -6.281 c 0.125 -0.262 0.43 -0.367 1.359 -0.477 c 0.582 -0.066 0.684 -0.121 0.723 -0.387 c 0.023 -0.168 -0.016 -0.363 -0.086 -0.43 c -0.074 -0.074 -1.168 -0.121 -2.605 -0.109 c -2.625 0.016 -2.934 0.086 -2.754 0.621 c 0.066 0.207 0.234 0.27 0.828 0.316 c 0.531 0.043 0.832 0.145 1.043 0.344 c 0.293 0.281 0.293 0.336 0.336 5.301 c 0.02 2.758 -0.02 5.578 -0.09 6.262 c -0.211 2.02 -1 3.223 -2.578 3.926 c -0.664 0.297 -0.91 0.332 -2.344 0.332 c -1.387 0 -1.684 -0.039 -2.199 -0.285 c -1.492 -0.715 -2.289 -1.867 -2.477 -3.57 c -0.16 -1.461 -0.148 -11.01 0.012 -11.57 c 0.16 -0.547 0.559 -0.766 1.41 -0.766 c 0.484 0 0.609 -0.051 0.684 -0.273 c 0.191 -0.586 -0.039 -0.625 -3.711 -0.633 c -1.891 -0.004 -3.504 -0.008 -3.59 -0.004 c -0.207 0.004 -0.344 0.375 -0.246 0.668 c 0.059 0.168 0.211 0.242 0.508 0.242 c 0.66 0.004 1.402 0.238 1.527 0.488 c 0.063 0.125 0.145 2.992 0.184 6.379 c 0.066 6.117 0.07 6.156 0.402 7.125 c 0.281 0.813 0.457 1.09 1.102 1.703 c 0.703 0.672 0.887 0.77 2.094 1.129 c 1.773 0.527 3.035 0.633 4.859 0.402" fill="#6095fc"/><path d="m 20.539 36.28 c -0.395 -0.066 -0.879 -0.199 -1.078 -0.297 c -0.199 -0.098 -0.547 -0.219 -0.77 -0.27 c -0.223 -0.051 -0.555 -0.188 -0.738 -0.301 c -0.188 -0.117 -0.594 -0.336 -0.902 -0.488 c -0.902 -0.441 -1.781 -1.094 -2.879 -2.133 c -1.52 -1.441 -2.395 -2.848 -3.129 -5.04 c -0.398 -1.184 -0.418 -1.359 -0.43 -3.387 c -0.004 -1.898 0.031 -2.25 0.316 -3.172 c 0.305 -0.961 0.941 -2.355 1.668 -3.648 c 0.762 -1.352 3.156 -3.297 5.152 -4.184 c 2.063 -0.922 2.961 -1.105 5.391 -1.105 c 1.887 0 2.289 0.039 3.234 0.313 c 2.113 0.609 3.633 1.422 5.438 2.902 c 0.902 0.742 1.117 1.125 0.633 1.125 c -0.176 0 -0.348 0.07 -0.379 0.16 c -0.039 0.121 -0.695 0.172 -2.492 0.203 c -2.578 0.043 -2.848 0.109 -2.668 0.648 c 0.063 0.199 0.242 0.266 0.828 0.309 c 0.527 0.043 0.828 0.145 1.039 0.344 c 0.293 0.281 0.297 0.336 0.336 5.301 c 0.02 2.758 -0.02 5.578 -0.09 6.262 c -0.211 2.02 -1 3.223 -2.578 3.926 c -0.664 0.297 -0.91 0.332 -2.344 0.332 c -1.387 0 -1.684 -0.035 -2.199 -0.285 c -1.488 -0.715 -2.289 -1.867 -2.477 -3.57 c -0.16 -1.457 -0.148 -11.01 0.012 -11.57 c 0.16 -0.547 0.559 -0.766 1.414 -0.766 c 0.477 0 0.605 -0.051 0.676 -0.266 c 0.195 -0.59 0 -0.625 -3.738 -0.668 c -2.664 -0.027 -3.531 -0.078 -3.574 -0.199 c -0.074 -0.219 -0.426 -0.207 -0.516 0.016 c -0.039 0.102 0.02 0.391 0.133 0.648 c 0.176 0.406 0.266 0.469 0.648 0.469 c 0.672 0.004 1.414 0.238 1.539 0.488 c 0.063 0.125 0.145 2.996 0.184 6.379 c 0.066 6.117 0.07 6.156 0.402 7.125 c 0.281 0.809 0.461 1.09 1.098 1.695 c 0.676 0.648 0.906 0.773 2.09 1.156 c 1.254 0.402 1.441 0.426 3.285 0.434 c 1.77 0.004 2.074 -0.027 3.223 -0.363 c 2.027 -0.582 2.75 -1.219 3.383 -2.977 l 0.398 -1.105 l 0.039 -6.06 c 0.023 -3.332 0.09 -6.16 0.152 -6.285 c 0.117 -0.246 0.859 -0.484 1.5 -0.488 c 0.465 0 0.738 -0.199 0.738 -0.543 c 0 -0.129 0.059 -0.234 0.133 -0.234 c 0.074 0 0.133 -0.086 0.133 -0.195 c 0 -0.582 0.637 0.098 1.391 1.492 c 0.68 1.254 1.219 2.688 1.43 3.813 c 0.188 0.992 0.188 3.18 0 4.16 c -0.305 1.582 -1.09 3.441 -2.027 4.805 c -0.625 0.902 -2.613 2.754 -3.531 3.285 c -0.43 0.25 -0.992 0.582 -1.242 0.738 c -0.254 0.156 -0.75 0.371 -1.102 0.48 c -0.355 0.105 -0.918 0.289 -1.25 0.41 c -0.715 0.262 -4.719 0.379 -5.902 0.176" fill="#3b8cfc"/><path d="m 20.539 36.28 c -0.395 -0.066 -0.879 -0.199 -1.078 -0.297 c -0.199 -0.098 -0.547 -0.219 -0.77 -0.27 c -0.223 -0.051 -0.555 -0.188 -0.738 -0.301 c -0.188 -0.117 -0.594 -0.336 -0.902 -0.488 c -0.902 -0.441 -1.781 -1.094 -2.879 -2.133 c -1.52 -1.441 -2.395 -2.848 -3.129 -5.04 c -0.398 -1.184 -0.418 -1.359 -0.43 -3.387 c -0.004 -1.898 0.031 -2.25 0.316 -3.172 c 0.305 -0.961 0.941 -2.355 1.668 -3.648 c 0.762 -1.352 3.156 -3.297 5.152 -4.184 c 2.063 -0.922 2.961 -1.105 5.391 -1.105 c 1.887 0 2.289 0.039 3.234 0.313 c 2.113 0.609 3.633 1.422 5.438 2.902 c 1.383 1.137 1.41 1.125 -2 1.125 c -2.898 0 -2.957 0.004 -3.16 0.285 c -0.535 0.73 -0.074 1.398 0.965 1.398 c 0.402 0 0.66 0.078 0.855 0.266 c 0.273 0.266 0.277 0.352 0.227 5.992 l -0.047 5.723 l -0.367 0.969 c -0.441 1.164 -0.918 1.672 -2.027 2.156 c -0.719 0.313 -0.996 0.363 -2.109 0.363 c -1.152 0.004 -1.367 -0.035 -2.168 -0.398 c -1.01 -0.457 -1.395 -0.879 -1.879 -2.055 c -0.32 -0.77 -0.324 -0.816 -0.371 -6.582 c -0.051 -6.707 -0.098 -6.434 1.055 -6.434 c 1.063 0 1.559 -0.727 0.973 -1.414 c -0.23 -0.273 -0.293 -0.277 -4.145 -0.242 l -3.906 0.035 l -0.039 0.602 c -0.055 0.785 0.184 1.02 1.043 1.02 c 0.438 0 0.707 0.066 0.832 0.211 c 0.148 0.176 0.199 1.438 0.254 6.512 l 0.066 6.293 l 0.336 0.844 c 0.262 0.652 0.539 1.039 1.242 1.711 c 0.496 0.48 1.074 0.91 1.281 0.961 c 0.207 0.047 0.617 0.207 0.914 0.355 c 0.477 0.238 0.824 0.273 3.059 0.316 c 2.547 0.047 3.078 -0.008 4.352 -0.461 c 1.414 -0.5 2.367 -1.402 3.043 -2.883 l 0.324 -0.711 l 0.07 -6.391 c 0.078 -7.254 -0.012 -6.758 1.219 -6.758 c 0.789 0 1.07 -0.27 1.07 -1.016 c 0 -0.297 0.051 -0.539 0.113 -0.539 c 0.609 0 2.328 3.484 2.707 5.496 c 0.188 0.992 0.188 3.18 0 4.16 c -0.305 1.582 -1.09 3.441 -2.027 4.805 c -0.625 0.902 -2.613 2.754 -3.531 3.285 c -0.43 0.246 -0.992 0.582 -1.242 0.738 c -0.254 0.156 -0.75 0.371 -1.102 0.477 c -0.355 0.109 -0.918 0.293 -1.25 0.414 c -0.715 0.258 -4.719 0.379 -5.902 0.176" fill="#4d70fc"/><path d="m 22.13 33.379 c -0.75 -0.313 -1.754 -1.129 -1.754 -1.43 c 0 -0.09 -0.137 -0.449 -0.301 -0.797 c -0.301 -0.621 -0.305 -0.738 -0.348 -6.434 c -0.055 -6.711 -0.098 -6.438 1.059 -6.438 c 1.051 0 1.527 -0.668 0.996 -1.398 c -0.195 -0.27 -0.313 -0.289 -1.785 -0.293 c -2.117 -0.008 -4.176 -0.18 -4.367 -0.359 c -0.113 -0.109 0.039 -0.227 0.602 -0.469 c 0.414 -0.176 0.789 -0.375 0.832 -0.441 c 0.121 -0.191 1.328 -0.762 2.539 -1.203 c 1.09 -0.398 1.152 -0.406 3.535 -0.41 c 2.406 -0.008 2.438 -0.004 3.535 0.402 c 1.227 0.453 2.422 1.023 2.543 1.211 c 0.043 0.07 0.422 0.27 0.84 0.449 c 0.691 0.293 0.742 0.34 0.523 0.496 c -0.152 0.109 -0.895 0.207 -1.996 0.266 c -1.938 0.105 -2.145 0.191 -2.145 0.895 c 0 0.582 0.352 0.855 1.098 0.855 c 1.203 0 1.129 -0.406 1.129 6.109 v 5.742 l -0.363 0.934 c -0.414 1.074 -1.086 1.949 -1.586 2.07 c -0.188 0.047 -0.586 0.188 -0.883 0.316 c -0.832 0.363 -2.738 0.324 -3.707 -0.074 m -6.273 -0.781 c -0.047 -0.176 -0.199 -0.355 -0.344 -0.398 c -0.145 -0.043 -0.363 -0.234 -0.488 -0.426 c -0.125 -0.191 -0.5 -0.695 -0.836 -1.121 c -0.762 -0.969 -1.098 -1.566 -1.641 -2.938 c -0.422 -1.059 -0.43 -1.125 -0.441 -3.348 c -0.012 -2.258 -0.012 -2.27 0.434 -3.434 c 0.246 -0.641 0.613 -1.457 0.816 -1.813 c 0.313 -0.543 0.449 -0.66 0.836 -0.715 c 0.816 -0.117 1.383 0.031 1.484 0.395 c 0.055 0.176 0.102 3.176 0.113 6.668 c 0.016 5.242 0.051 6.406 0.211 6.672 c 0.223 0.375 0.258 0.777 0.07 0.777 c -0.074 0 -0.172 -0.145 -0.215 -0.32 m 14.227 0.18 c 0 -0.074 0.074 -0.262 0.168 -0.418 c 0.125 -0.215 0.188 -1.961 0.238 -6.98 c 0.047 -4.852 0.109 -6.738 0.223 -6.848 c 0.172 -0.164 1.313 -0.207 1.777 -0.063 c 0.16 0.047 0.289 0.168 0.289 0.266 c 0 0.098 0.121 0.375 0.27 0.617 c 0.148 0.238 0.465 0.957 0.703 1.594 c 0.426 1.133 0.434 1.203 0.434 3.359 c 0 2.148 -0.008 2.227 -0.426 3.34 c -0.586 1.551 -1.418 2.93 -2.355 3.906 c -0.133 0.137 -0.242 0.297 -0.242 0.359 c 0 0.059 -0.148 0.172 -0.328 0.25 c -0.18 0.078 -0.359 0.281 -0.406 0.449 c -0.078 0.305 -0.344 0.438 -0.344 0.172" fill="#335afc"/></svg>