<svg xmlns="http://www.w3.org/2000/svg" viewBox="0 0 48 48"><path d="m 47.07 32.24 c 5.969 -26.09 -20.23 -42.03 -39.23 -23.06 c -17.07 18 -1.152 42.641 23.563 37.633 c 5.809 -1.176 10.684 -1.359 15.668 -14.57" fill="#b0c3de"/><path d="m 32.605 12.426 c 3.707 2.656 6.129 7.082 6.129 12.1 c 0 8.125 -6.371 14.711 -14.23 14.711 c -4.852 0 -9.133 -2.504 -11.703 -6.332 c 0.656 1.191 1.461 2.285 2.391 3.246 c 2.586 2.43 6.02 3.902 9.785 3.902 c 8.04 0 14.547 -6.73 14.547 -15.04 c 0 -3.895 -1.426 -7.445 -3.773 -10.117 c -0.93 -0.965 -1.992 -1.793 -3.145 -2.473 m 3.145 2.473 c 2.438 2.691 3.93 6.301 3.93 10.277 c 0 8.309 -6.512 15.04 -14.547 15.04 c -3.844 0 -7.34 -1.543 -9.941 -4.066 c 2.633 2.711 6.254 4.395 10.258 4.395 c 8.04 0 14.547 -6.734 14.547 -15.04 c 0 -4.141 -1.625 -7.887 -4.246 -10.605" fill-opacity="0.051"/><path d="m 35.75 14.898 c 2.348 2.672 3.773 6.223 3.773 10.117 c 0 8.305 -6.512 15.04 -14.547 15.04 c -3.766 0 -7.199 -1.473 -9.781 -3.902 c 2.598 2.52 6.094 4.066 9.941 4.066 c 8.03 0 14.547 -6.73 14.547 -15.04 c 0 -3.973 -1.496 -7.586 -3.934 -10.277" fill-opacity="0.102"/><path d="m 29.406 10.711 c 5.449 2.063 9.328 7.465 9.328 13.816 c 0 8.125 -6.371 14.711 -14.23 14.711 c -6.141 0 -11.367 -4.01 -13.359 -9.645 c 2.207 7.02 9.02 11.352 16.08 10.215 c 7.06 -1.141 12.273 -7.406 12.305 -14.793 c -0.008 -6.531 -4.098 -12.313 -10.117 -14.301" fill-opacity="0.2"/><g fill-rule="evenodd"><path d="m 24.82 9.813 c -8.04 0 -14.547 6.73 -14.547 15.04 h 14.547" fill="#ec6853"/><path d="m 10.273 24.852 c 0 8.305 6.512 15.04 14.547 15.04 v -15.04" fill="#86d58e"/><path d="m 24.82 24.852 v 15.04 c 8.04 0 14.547 -6.734 14.547 -15.04" fill="#8b99fa"/><path d="m 24.82 9.813 v 15.04 h 14.547 c 0 -8.309 -6.512 -15.04 -14.547 -15.04" fill="#efdb6a"/></g></svg>