<svg xmlns="http://www.w3.org/2000/svg" viewBox="0 0 48 48"><path d="m 5.254 37.31 c -26.977 -39 59.727 -56.18 39.719 -7.742 c -6.391 15.938 -30.988 28.07 -39.719 7.742" fill="#584379"/><path d="m 32.398 12.539 c 0 0 0.969 0 0.969 0.949 c 0 2.441 -0.84 5.313 -3.414 8.703 c 0 0 -1.434 2.695 -4.34 5.547 c -2.91 2.848 -5.742 4.215 -5.742 4.215 c -2.902 2.23 -4.922 3.383 -4.922 3.383 h 4.848 c 0 0 1.852 -1.051 4.301 -2.977 c 1.516 -1.402 2.484 -2.723 2.484 -2.723 c 0 0 -0.531 1.555 -1.199 2.367 c 2.516 -0.91 4.414 -3.043 4.934 -5.688 c 0.379 -0.461 0.75 -0.934 1.113 -1.43 c 4.063 -5.574 4.844 -7.281 4.844 -11.398 c 0 -0.949 -0.969 -0.949 -0.969 -0.949 m -4.844 0.949 c -2.91 0 -4.848 2.852 -4.848 2.852 c 0 0 1.215 -0.949 1.938 -0.949 c 0.969 0 0.969 0.949 0.969 1.898 c 0 0.543 -0.328 1.105 -0.777 1.824 c -2.129 2.926 -3.098 3.875 -3.098 3.875 c 0 0 1.887 -2.781 1.93 -4.68 c -1.172 -0.664 -2.504 -1.02 -3.871 -1.02 c -4.281 0 -7.754 3.402 -7.754 7.598 c 0.004 2.762 1.535 5.27 3.941 6.605 c 0.105 -0.082 3.84 -2.832 5.754 -4.703 c 2.809 -2.754 4.672 -5.449 4.797 -5.633 c -0.145 -0.254 -0.301 -0.5 -0.473 -0.734 c 1.078 -1.598 2.461 -3.168 2.461 -5.03 c 0 -0.711 0 -1.902 -0.969 -1.902" fill-opacity="0.102"/><path d="m 31.43 11.59 c 0 0 0.969 0 0.969 0.949 c 0 2.441 -0.84 5.313 -3.414 8.703 c 0 0 -1.434 2.695 -4.34 5.547 c -2.91 2.848 -5.742 4.215 -5.742 4.215 c -2.902 2.23 -4.922 3.383 -4.922 3.383 h 4.848 c 0 0 1.852 -1.051 4.297 -2.977 c 1.52 -1.402 2.488 -2.723 2.488 -2.723 c 0 0 -0.531 1.555 -1.203 2.367 c 2.52 -0.91 4.418 -3.043 4.938 -5.688 c 0.379 -0.461 0.75 -0.934 1.113 -1.43 c 4.063 -5.574 4.844 -7.281 4.844 -11.398 c 0 -0.949 -0.969 -0.949 -0.969 -0.949 m -4.848 0.949 c -2.906 0 -4.844 2.852 -4.844 2.852 c 0 0 1.215 -0.953 1.938 -0.953 c 0.969 0 0.969 0.953 0.969 1.902 c 0 0.543 -0.328 1.105 -0.781 1.824 c -2.125 2.926 -3.098 3.875 -3.098 3.875 c 0 0 1.891 -2.781 1.934 -4.68 c -1.172 -0.664 -2.504 -1.02 -3.871 -1.02 c -4.281 0 -7.754 3.402 -7.754 7.598 c 0.004 2.762 1.535 5.27 3.941 6.602 c 0.105 -0.078 3.84 -2.828 5.75 -4.703 c 2.813 -2.75 4.676 -5.445 4.801 -5.629 c -0.145 -0.254 -0.301 -0.5 -0.477 -0.738 c 1.082 -1.598 2.465 -3.164 2.465 -5.03 c 0 -0.707 0 -1.898 -0.973 -1.898" fill="#eecfff"/></svg>