<svg xmlns="http://www.w3.org/2000/svg" xmlns:xlink="http://www.w3.org/1999/xlink" viewBox="0 0 48 48"><defs><g id="1" clip-path="url(#0)"><path d="m 35.31 14.707 c -0.238 -0.203 -0.52 -0.305 -0.844 -0.305 h -21.629 c -0.324 0 -0.605 0.102 -0.844 0.305 c -0.238 0.203 -0.355 0.445 -0.355 0.727 v 12.367 c 0 0.922 0.207 1.84 0.629 2.746 c 0.418 0.906 0.938 1.711 1.559 2.414 c 0.617 0.707 1.355 1.391 2.215 2.055 c 0.855 0.668 1.648 1.219 2.375 1.66 c 0.723 0.441 1.48 0.855 2.27 1.246 c 0.789 0.395 1.348 0.66 1.68 0.797 c 0.332 0.141 0.598 0.25 0.797 0.324 c 0.152 0.063 0.316 0.098 0.488 0.098 c 0.176 0 0.34 -0.035 0.492 -0.098 c 0.199 -0.074 0.465 -0.184 0.797 -0.324 c 0.332 -0.137 0.891 -0.406 1.68 -0.797 c 0.789 -0.391 1.547 -0.805 2.27 -1.246 c 0.727 -0.441 1.52 -0.992 2.375 -1.66 c 0.859 -0.664 1.598 -1.352 2.215 -2.055 c 0.621 -0.703 1.141 -1.508 1.559 -2.414 c 0.422 -0.906 0.629 -1.824 0.629 -2.746 v -12.367 c 0 -0.281 -0.117 -0.523 -0.355 -0.727 m -3.246 13.09 c 0 1.891 -1.473 3.824 -4.414 5.797 c -1.176 0.797 -2.508 1.531 -4 2.207 v -18.313 h 8.41" fill="#999"/><path d="m 23.645 9.648 c -0.504 0 -1.016 0.172 -1.406 0.508 l -10.01 4.16 c -0.781 0.672 -0.789 1.754 -0.016 2.422 l 0.262 0.223 h 22.355 l 0.246 -0.211 c 0.781 -0.676 0.789 -1.754 0.016 -2.422 l -10.04 -4.184 c -0.387 -0.332 -0.895 -0.5 -1.402 -0.496" fill="#999"/></g><clipPath id="0"><path d="M 0,0 H48 V48 H0 z"/></clipPath></defs><path d="m 39.652 38.934 c 35.793 -45.52 -59.44 -55.42 -35.48 -3.871 c 5.969 12.84 23.371 19.27 35.48 3.871" fill="#02ba8e"/><path d="m 15.242 17.492 v 10.309 c 0 1.887 1.473 3.824 4.41 5.797 c 1.176 0.797 2.512 1.531 4 2.207 c 1.492 -0.676 2.824 -1.41 4 -2.207 c 2.938 -1.977 4.406 -3.91 4.406 -5.797 v -10.309 m -18.711 14.84 v 0.066 l 0.07 0.027 c -0.023 -0.031 -0.047 -0.059 -0.07 -0.09 m 20.605 -0.004 c -0.023 0.031 -0.047 0.063 -0.07 0.094 l 0.07 -0.031" fill="#00d454"/><use xlink:href="#1"/><path d="m 23.695 18.492 v 17.27 c -1.402 -0.641 -2.66 -1.332 -3.766 -2.082 c -2.77 -1.863 -4.152 -3.688 -4.152 -5.469 v -9.719 m -1.781 13.996 c 0.023 0.027 0.047 0.055 0.07 0.086 l -0.07 -0.027" fill="#7fffb2"/><path d="m 15.242 17.492 v 10.309 c 0 1.887 1.473 3.824 4.41 5.797 c 1.176 0.797 2.512 1.531 4 2.207 c 1.492 -0.676 2.824 -1.41 4 -2.207 c 2.938 -1.977 4.406 -3.91 4.406 -5.797 v -10.309 m -15.531 1.402 h 14.242 v 8.73 c 0 1.602 -1.242 3.234 -3.734 4.906 c -0.996 0.672 -2.125 1.297 -3.387 1.871 c -1.258 -0.574 -2.391 -1.199 -3.383 -1.871 c -2.492 -1.672 -3.738 -3.305 -3.738 -4.906 m -3.18 4.711 v 0.063 l 0.07 0.031 c -0.023 -0.035 -0.047 -0.063 -0.07 -0.094 m 20.605 0 c -0.023 0.031 -0.047 0.059 -0.07 0.09 l 0.07 -0.027" fill="#00d454"/></svg>