<svg xmlns="http://www.w3.org/2000/svg" viewBox="0 0 48 48" xmlns:xlink="http://www.w3.org/1999/xlink"><defs><linearGradient id="3" gradientUnits="userSpaceOnUse" x1="300.93" x2="368.62" gradientTransform="matrix(0.12649 0 0 0.15323 -23.312 -24.915)" xlink:href="#0"/><linearGradient id="2" gradientUnits="userSpaceOnUse" x1="441.76" y1="250.86" x2="290.38" y2="355.1" gradientTransform="matrix(0.1268 0 0 0.15285 -23.312 -24.915)"><stop stop-color="#fff"/><stop offset="1" stop-color="#555" stop-opacity="0.408"/></linearGradient><linearGradient id="0" gradientUnits="userSpaceOnUse" x1="186.97" x2="253.97" gradientTransform="matrix(0.29449 0 0 0.26032 -46.544 -132.96)"><stop stop-color="#ff7878" stop-opacity="0.451"/><stop offset="1" stop-color="#ffc5c9" stop-opacity="0.035"/></linearGradient><radialGradient id="4" gradientUnits="userSpaceOnUse" cx="804.72" cy="164.56" r="35.843" gradientTransform="matrix(0.06605 0 0 0.29342 -23.312 -24.915)" xlink:href="#1"/><radialGradient id="1" gradientUnits="userSpaceOnUse" cx="249.7" cy="544.58" r="68.3" gradientTransform="matrix(0.26675 0 0 0.28739 -46.544 -132.96)"><stop stop-color="#ff7878" stop-opacity="0.749"/><stop offset="0.5" stop-color="#621214" stop-opacity="0.643"/><stop offset="1" stop-color="#000" stop-opacity="0.749"/></radialGradient></defs><path d="m 11.715 42.824 c 24.324 17.1 48.973 -14.48 29.15 -34.629 c -18.672 -18.98 -47.688 -1.383 -38.617 22.24 c 1.895 4.926 5 9.25 9.465 12.391" fill="#d7bfd7"/><g fill-rule="evenodd"><path d="m 298.13 543.92 c 0 27.1 -21.966 49.07 -49.06 49.07 c -27.11 0 -49.06 -21.978 -49.06 -49.07 c 0 -27.1 21.966 -49.05 49.06 -49.05 c 27.09 0 49.06 21.965 49.06 49.05" transform="matrix(0.26675 0 0 0.28739 -46.544 -132.96)" fill="#930f0f" stroke="#000" stroke-width="1.25"/><path d="m 18.887 10.652 c -5.727 0 -10.371 5.01 -10.371 11.18 c 0 2.324 0.656 4.473 1.785 6.262 c 2.48 -0.723 5.305 -2.219 8.934 -5.57 c 3.77 -3.477 6.578 -4.859 9.01 -5.422 c -1.656 -3.801 -5.211 -6.449 -9.363 -6.449" fill="url(#0)"/><path d="m 20.06 10.332 c -0.941 0 -1.844 0.145 -2.727 0.359 c 0.676 -0.137 1.367 -0.234 2.078 -0.234 c 6.211 0 11.258 5.438 11.258 12.133 c 0 6.699 -5.05 12.13 -11.258 12.13 c -6.215 0 -11.254 -5.426 -11.254 -12.12 c 0 -1.672 0.313 -3.27 0.883 -4.723 c -0.77 1.727 -1.242 3.633 -1.242 5.676 c 0 7.293 5.496 13.211 12.262 13.211 c 6.77 0 12.262 -5.918 12.262 -13.211 c 0 -7.289 -5.492 -13.211 -12.262 -13.211 m -11.02 7.535 c 0.242 -0.613 0.551 -1.176 0.875 -1.734 c -0.344 0.543 -0.609 1.137 -0.875 1.734" fill="url(#1)"/></g><path d="m 127.55 25.574 l -20.408 2.302 l -17.327 5.335 l -16.571 8.422 l -14.536 11.483 l -12.762 16.818 l -6.861 12.999 l -6.628 25.511" transform="matrix(0.13437 0 0 0.14424 2.818 5.468)" fill="none" stroke="#000" stroke-width="1.25"/><path d="m 20.07 9.09 l -1.66 1.043 l -1.313 1.191 l -1.309 1.785 l -1.227 2.316 l -0.902 2.477 l 4.078 0.438 l -0.258 2.852 l -0.266 3.035 l 5.512 0.031 l 0.059 2.883 l -0.059 2.723 l 4.813 -0.688 l -0.434 2.441 l 3.234 -1.031 l -0.961 2 l 1.191 -0.969 l 0.504 -0.637 c 1.309 -2.211 2.074 -4.828 2.074 -7.641 c 0 -7.812 -5.848 -14.16 -13.08 -14.25" fill="url(#2)" fill-rule="evenodd"/><g fill="none" stroke="#000"><path d="m 207.88 179.83 l -11.222 12.756 l -10.727 8.666" transform="matrix(0.13437 0 0 0.14424 2.818 5.468)" stroke-linecap="round" stroke-width="1.25"/><g stroke-opacity="0.435" stroke-width="0.825" transform="matrix(0.13437 0 0 0.14424 -23.312 -24.915)"><path d="m 349.06 372.11 l 35.933 -5.091 l 0.785 -18.362 l -35.438 4.577"/><path d="m 383.71 383.84 l 19.391 -6.121 l 4.332 -14.272 l -21.426 5.606"/><path d="m 309.26 333.6 l 38.52 -0.487 l -0.785 -18.876 l -35.7 0.244"/><path d="m 283.27 291.81 l 27.793 2.275 l 2.558 -13.514 l -24.74 -2.031"/><path d="m 294.75 270.12 l 21.14 1.787 l 3.082 -8.91 l -18.11 -1.273"/><path d="m 399.53 388.93 l 4.332 -4.062 l 3.053 -9.452 l -4.826 4.089"/><path d="m 391.77 301.24 l -4.826 -12.999 l 16.832 -3.06 l 7.646 11.726"/><path d="m 358.22 338.91 l -1.512 -19.878 l 30.09 -2.031 l 2.791 17.06 l -31.34 4.848"/><path d="m 317.17 305.81 l 2.064 -14.787 h 26.746 l 1.047 14.272"/><path d="m 302.4 238.52 l 0.756 1.787 l 2.297 1.273 l 5.088 1.273"/><path d="m 322.02 236.21 l -10.96 6.635 l -10.204 8.666 l -9.681 12.485 l -8.925 15.301 l -7.152 18.09 l -5.872 19.634 l -3.314 19.878 l -0.756 20.15 l 1.279 18.362 l 3.576 17.09 l 6.105 14.272 l 6.89 10.968 l 8.402 7.908 l 9.943 4.577 l 14.797 1.787"/><path d="m 321.76 236.46 l -18.344 3.575 l -18.11 6.391 l -17.327 9.668 l -14.274 12.512 l -12.501 16.06 l -8.663 17.06 l -5.872 17.36 l -1.541 20.393 l 2.064 18.849 l 6.367 17.603 l 9.419 15.301 l 13.518 14.272 l 8.663 6.635 l 0.262 0.515"/><path d="m 321.5 236.73 l -16.05 4.848 l -15.292 7.637 l -14.274 11.212 l -12.762 14.543 l -10.466 16.06 l -8.663 19.12 l -4.332 19.12 l -1.018 19.634 l 1.541 18.362 l 5.349 18.09 l 8.402 15.03 l 10.96 12.512 l 13.257 8.666 l 14.536 5.335 l 12.501 3.575 l 8.169 1.273"/><path d="m 303.91 320.09 l -34.421 -3.304 l -25.496 -6.364 l -11.222 -8.179 l 0.523 -8.152"/><path d="m 343.19 360.9 l -39.77 0.487 l -38.52 -4.333 l -26.25 -7.393 l -12.995 -9.939"/><path d="m 401.83 390.99 l -9.419 7.908 l -22.967 7.637 l -29.828 4.333 h -33.403 l -29.828 -3.575 l -22.18 -6.635 l -10.698 -8.666" stroke-linecap="round"/><path d="m 380.4 411.62 l -18.08 6.635 l -25.757 3.06 h -27.793 l -25.496 -3.304 l -18.11 -5.362"/><path d="m 367.93 421.08 l -14.274 4.577 l -19.652 2.546 h -22.18 l -20.641 -2.546"/><path d="m 252.92 263.76 l -0.494 5.606 l 9.943 6.364 l 19.362 4.089"/><path d="m 267.72 252.27 l -0.523 4.089 l 7.413 4.333 l 16.571 3.304"/><path d="m 284.29 243.85 l 0.523 3.331 l 5.088 2.031 l 10.96 2.031"/><path d="m 305.71 299.96 l -30.351 -2.817 l -23.2 -5.091 l -10.466 -6.635 l -1.512 -4.062 l 0.233 0.244"/><path d="m 305.71 299.96 l -2.064 20.12 l -2.035 20.907 l -0.262 20.15 l 0.785 18.605 l 2.791 16.845 l 2.558 14 l 3.053 10.21 l 3.053 6.879 l 2.82 3.846 l 2.035 1.273 l 6.367 0.487"/><g stroke-linecap="round"><path d="m 342.87 341.05 l -40.468 -0.054 l -36.22 -4.062 l -26.25 -7.15 l -13.257 -10.697"/><path d="m 342.87 341.1 l 0.32 19.797 l -0.262 19.12 l -1.279 17.06 l -2.035 13.514 l -3.053 10.724 l -2.558 6.879 l -3.314 3.575 l -13.518 0.244"/><path d="m 378.36 375.17 l -35.18 5.091 h -41.05 l -35.438 -4.577 l -26.513 -7.664 l -13.02 -9.939"/><path d="m 378.36 375.23 l -3.053 16.764 l -5.872 14.03 l -7.384 12.241 l -9.681 8.152 l -7.907 3.331 l -13.518 2.275"/><path d="m 399.79 384.62 l -24.74 7.393 l -33.14 4.577 l -36.863 0.731 l -35.29 -4.55 l -24.22 -7.393 l -11.978 -9.939"/><path d="m 399.79 384.87 l -7.907 14.272 l -11.716 12.756 l -11.745 8.91 l -12.239 4.604 l -10.698 4.062"/></g></g><path d="m 125.17 26.766 l 57.94 104.48 l 57.33 -104.48" transform="matrix(0.13437 0 0 0.14424 2.818 5.468)" stroke-linejoin="round" stroke-linecap="round" stroke-width="15"/></g><g fill-rule="evenodd"><path d="m 17.12 12.836 l -0.824 1.211 l 2.844 0.258 l 0.41 -1.285 m -4.04 2.242 l -0.75 1.914 l 3.73 0.328 l 0.34 -1.945 m 12.148 0.586 l -2.293 0.512 l 0.652 1.875 l 2.641 -0.598 c -0.039 -0.098 -0.082 -0.191 -0.121 -0.289 m -12.27 -0.582 l -0.273 2.133 l 4 -0.07 l -0.133 -2.063 m 0.133 3.352 l -4.793 0.035 l -0.273 2.758 l 5.172 -0.074 m 5.242 -2.324 l -4.04 0.293 l 0.203 2.867 l 4.215 -0.699 m -0.516 2.105 l -4.762 0.664 l -0.168 2.723 l 4.828 -0.742 m 3.02 -0.512 l -2.875 0.813 l -0.313 2.129 l 2.605 -0.883 m 0.516 -0.328 l -0.652 0.586 l -0.344 1.359 l 0.586 -0.586" fill="#930f0f" fill-opacity="0.863"/><path d="m 17.12 12.836 l -0.824 1.211 l 2.844 0.258 l 0.41 -1.285 m -4.04 2.242 l -0.75 1.914 l 3.73 0.328 l 0.34 -1.945 m 0.758 1.504 l -0.273 2.133 l 4 -0.07 l -0.133 -2.063 m -1.453 3.363 l -3.207 0.023 l -0.273 2.758 l 0.227 -0.004 c 0.254 -0.223 0.504 -0.434 0.766 -0.676 c 0.879 -0.813 1.707 -1.5 2.488 -2.102" fill="url(#3)"/><path d="m 30.3 16.293 l -1.137 0.258 c 0.313 0.582 0.574 1.199 0.797 1.836 l 1.258 -0.281 c -0.266 -0.633 -0.566 -1.238 -0.918 -1.813 m 1.129 11.215 l -1.98 0.559 c -0.324 0.684 -0.707 1.332 -1.141 1.934 l -0.066 0.449 l 2.605 -0.883 m 0.086 0.059 l -0.223 0.199 l -0.109 0.434 c 0.113 -0.207 0.23 -0.418 0.332 -0.633" fill="url(#4)"/></g><g fill="none" stroke="#000" stroke-linejoin="round" stroke-linecap="round" transform="matrix(0.13437 0 0 0.14424 2.818 5.468)"><g stroke-width="7.763"><path d="m 233.35 167.94 c 37.561 0 39.479 0 39.479 0"/><path d="m 233.35 187.2 v 24.1 h 19.01 v -24.563 h 20.466 v 25.02"/><path d="m 272.88 147.71 l -39.537 -0.271 l 15.03 -12.512 l -14.972 -12.241 l 39.508 0.081"/></g><path d="m 220.87 111.18 h 60.32 c 12.879 34.719 12.879 80.49 0 110.71" stroke-width="7.087"/></g></svg>