<svg xmlns="http://www.w3.org/2000/svg" viewBox="0 0 48 48"><path d="m 11.563 43.22 c 18.13 15.09 39.25 -10.363 35.875 -33.21 c -2.398 -17.03 -50.27 -10.18 -47.06 14.547 c 0.953 7.359 5.27 13.742 11.188 18.664" fill="#038455"/><path d="m 37.977 24.637 c 0 7.754 -6.348 14.04 -14.176 14.04 c -7.832 0 -14.18 -6.285 -14.18 -14.04 c 0 -7.754 6.348 -14.04 14.18 -14.04 c 7.828 0 14.176 6.289 14.176 14.04" fill="#fff"/><path d="m 21.605 36.31 c -6.477 -1.367 -10.582 -7.973 -8.98 -14.453 c 0.895 -3.617 3.445 -6.633 6.848 -8.08 c 2.488 -0.809 4.707 -1.227 7.02 -0.586 c 3.03 0.855 5.195 2.383 6.891 4.863 c 2.59 3.785 2.75 8.773 0.402 12.77 c -1.699 2.895 -4.543 4.898 -7.855 5.535 c -1.113 0.211 -3.203 0.188 -4.328 -0.047 m 2.5 -3.184 c 0.113 -0.125 2.344 -3.246 4.953 -6.934 l 4.746 -6.707 l -0.18 -0.406 c -0.395 -0.887 -1.734 -2.559 -2 -2.496 c -0.074 0.016 -1.852 2.457 -3.945 5.426 c -2.785 3.949 -3.855 5.395 -4 5.395 c -0.133 0 -0.641 -0.578 -1.609 -1.832 l -1.41 -1.832 c -1.645 -0.02 -3.289 -0.039 -4.934 -0.055 l -0.473 0.555 c -0.258 0.305 -0.473 0.578 -0.473 0.613 c 0 0.031 0.453 0.055 1.01 0.055 c 1 0 1.01 0.004 1.348 0.332 c 0.188 0.184 1.621 2.023 3.184 4.098 c 1.563 2.07 2.914 3.82 3 3.891 c 0.246 0.191 0.559 0.152 0.785 -0.102" fill="#038455"/></svg>