<svg xmlns="http://www.w3.org/2000/svg" viewBox="0 0 48 48"><path d="m 0.184 23.918 c -3.637 -32.21 48.39 -31.762 47.773 0.574 c 1.715 30.07 -50.609 32.785 -47.773 -0.574" fill="#00707d"/><g fill="#fff"><path d="m 36.449 24.582 c 0 2.301 -1.848 4.172 -4.121 4.172 c -2.277 0 -4.121 -1.871 -4.121 -4.172 c 0 -2.305 1.844 -4.172 4.121 -4.172 c 2.273 0 4.121 1.867 4.121 4.172"/><path d="m 18.84 24.633 c 0 2.332 -1.801 4.223 -4.02 4.223 c -2.219 0 -4.02 -1.891 -4.02 -4.223 c 0 -2.332 1.801 -4.223 4.02 -4.223 c 2.219 0 4.02 1.891 4.02 4.223"/></g><path d="m 11.199 37.793 c -0.609 -0.27 -0.988 -0.648 -1.246 -1.246 c -0.164 -0.371 -0.195 -1.098 -0.195 -4.348 c 0 -2.148 0.035 -4.07 0.078 -4.277 c 0.043 -0.203 0.262 -0.578 0.484 -0.828 c 0.383 -0.422 0.457 -0.453 1.082 -0.449 c 0.582 0.008 0.781 0.078 1.461 0.52 c 1.109 0.727 1.742 0.977 2.477 0.977 c 0.898 0.004 1.715 -0.297 2.316 -0.859 c 1.402 -1.309 1.496 -3.777 0.191 -5.137 c -0.762 -0.797 -1.336 -1.039 -2.453 -1.043 c -0.895 0 -0.984 0.023 -1.871 0.539 c -1.547 0.902 -1.68 0.965 -2.098 0.965 c -0.582 0 -0.938 -0.191 -1.293 -0.699 l -0.313 -0.445 l -0.039 -4.152 c -0.031 -3.59 -0.008 -4.223 0.168 -4.66 c 0.242 -0.617 0.883 -1.188 1.527 -1.359 c 0.648 -0.172 23.836 -0.172 24.484 0 c 0.625 0.168 1.211 0.66 1.492 1.254 c 0.207 0.441 0.23 0.863 0.23 4.418 c 0.004 2.16 -0.031 4.102 -0.078 4.316 c -0.043 0.215 -0.289 0.602 -0.543 0.859 c -0.387 0.387 -0.547 0.469 -0.953 0.469 c -0.508 0 -0.621 -0.051 -2.188 -0.965 c -0.887 -0.516 -0.977 -0.539 -1.871 -0.539 c -1.133 0.004 -1.73 0.262 -2.473 1.074 c -0.66 0.723 -0.961 1.641 -0.879 2.703 c 0.145 1.957 1.516 3.27 3.406 3.262 c 0.734 0 1.367 -0.25 2.473 -0.977 c 0.684 -0.441 0.883 -0.512 1.461 -0.52 c 0.629 -0.004 0.703 0.027 1.082 0.449 c 0.227 0.25 0.445 0.625 0.488 0.828 c 0.043 0.207 0.078 2.129 0.078 4.277 c 0 3.25 -0.031 3.977 -0.195 4.348 c -0.258 0.598 -0.641 0.977 -1.246 1.246 c -0.477 0.211 -1.098 0.223 -12.523 0.223 c -11.426 0 -12.05 -0.012 -12.523 -0.223" fill="#b4d7d9"/><path d="m 12.234 36.566 c -0.219 -0.02 -0.52 -0.172 -0.688 -0.34 c -0.293 -0.301 -0.297 -0.332 -0.34 -3.457 c -0.047 -3.547 0.027 -4.656 0.309 -4.656 c 0.102 0 0.648 0.27 1.219 0.598 c 1.195 0.691 2.047 0.906 3.18 0.805 c 1.117 -0.098 2.148 -0.574 2.895 -1.336 c 3.01 -3.055 1.301 -8.098 -2.902 -8.57 c -1.035 -0.117 -1.938 0.125 -3.223 0.871 c -0.859 0.5 -1.184 0.633 -1.293 0.531 c -0.098 -0.098 -0.141 -1.277 -0.141 -3.996 v -3.859 c 0.234 -0.191 0.469 -0.387 0.703 -0.582 h 23.645 c 0.23 0.195 0.465 0.391 0.699 0.582 v 3.859 c 0 2.719 -0.039 3.898 -0.141 3.996 c -0.105 0.102 -0.434 -0.031 -1.289 -0.531 c -1.723 -0.996 -2.926 -1.141 -4.57 -0.551 c -0.809 0.289 -1.824 1.129 -2.281 1.879 c -1.969 3.23 -0.02 7.383 3.617 7.707 c 1.133 0.102 1.984 -0.113 3.18 -0.805 c 0.57 -0.328 1.117 -0.598 1.219 -0.598 c 0.285 0 0.359 1.109 0.309 4.664 l -0.043 3.16 c -0.211 0.203 -0.426 0.41 -0.641 0.617 l -11.516 0.023 c -6.332 0.016 -11.688 0.008 -11.906 -0.012" fill="#02959b"/><g fill="#e47028"><path d="m 31.652 26.953 c -0.059 -0.074 -0.133 -0.379 -0.164 -0.68 c -0.07 -0.645 -0.27 -0.828 -0.918 -0.828 c -0.598 0 -0.809 -0.211 -0.809 -0.816 c 0 -0.676 0.246 -0.926 0.988 -1.012 c 0.332 -0.035 0.637 -0.121 0.684 -0.188 c 0.043 -0.066 0.078 -0.324 0.082 -0.578 c 0 -0.668 0.219 -0.836 1 -0.781 c 0.73 0 0.793 0.254 0.836 0.848 l 0.047 0.641 c 0.484 0.059 1.125 -0.012 1.516 0.25 c 0.055 0.086 0.102 0.492 0.102 0.898 c 0.043 0.738 0.059 0.738 -0.648 0.738 c -0.801 0 -0.992 0.16 -0.992 0.824 c 0 0.656 -0.195 0.82 -0.98 0.82 c -0.258 0.004 -0.535 -0.055 -0.746 -0.137"/><path d="m 12.426 25.48 c -0.328 -0.039 -0.426 -0.102 -0.48 -0.324 c -0.066 -0.27 0.012 -1.176 0.121 -1.352 c 0.105 -0.172 1.633 -0.246 3.418 -0.168 c 2.137 0.094 2.164 0.109 2.094 1.059 c -0.023 0.352 -0.082 0.676 -0.129 0.723 c -0.09 0.09 -4.328 0.141 -5.02 0.063"/></g></svg>