<svg xmlns="http://www.w3.org/2000/svg" viewBox="0 0 48 48"><path d="m 36.32 41.938 c 41.875 -39.34 -44.551 -64.13 -35.02 -11.898 c 4.699 13.781 21.574 24.531 35.02 11.898" fill="#696969"/><g fill="#605d9e"><path d="m 16.426 14.766 h 14.434 c 0.059 0 0.105 0.051 0.105 0.109 v 1.172 c 0 0.063 -0.047 0.109 -0.105 0.109 h -14.434 c -0.059 0 -0.105 -0.047 -0.105 -0.109 v -1.172 c 0 -0.059 0.047 -0.109 0.105 -0.109"/><path d="m 16.309 14.855 l 14.648 13.781 c 0.043 0.043 0.047 0.113 0.008 0.16 l -0.672 0.813 c -0.039 0.047 -0.105 0.051 -0.148 0.012 l -14.648 -13.785 c -0.043 -0.039 -0.047 -0.113 -0.008 -0.156 l 0.672 -0.816 c 0.039 -0.047 0.105 -0.051 0.148 -0.008"/></g><g fill="#c71485"><path d="m 15.844 16.06 l 14.652 13.781 c 0.043 0.043 0.047 0.113 0.008 0.16 l -0.676 0.813 c -0.039 0.047 -0.105 0.051 -0.148 0.012 l -14.648 -13.785 c -0.043 -0.039 -0.047 -0.113 -0.008 -0.156 l 0.676 -0.816 c 0.035 -0.047 0.102 -0.051 0.145 -0.008"/><path d="m 17.17 16.16 h 14.34 c 0.059 0 0.109 0.047 0.109 0.109 v 1.172 c 0 0.059 -0.051 0.109 -0.109 0.109 h -14.34 c -0.059 0 -0.105 -0.051 -0.105 -0.109 v -1.172 c 0 -0.063 0.047 -0.109 0.105 -0.109"/></g><path d="m 19.285 16.25 c 0 2.258 -1.844 4.086 -4.125 4.086 c -2.277 0 -4.125 -1.828 -4.125 -4.086 c 0 -2.254 1.848 -4.082 4.125 -4.082 c 2.281 0 4.125 1.828 4.125 4.082" fill="#7f7f7f"/><g fill="#78b943"><path d="m 16.707 29.895 h 14.984 c 0.059 0 0.109 0.047 0.109 0.109 v 1.172 c 0 0.059 -0.051 0.109 -0.109 0.109 h -14.984 c -0.063 0 -0.109 -0.051 -0.109 -0.109 v -1.172 c 0 -0.063 0.047 -0.109 0.109 -0.109"/><path d="m 15.461 31.22 l 15.859 -15.441 c 0.043 -0.043 0.113 -0.039 0.152 0.004 l 0.816 0.84 c 0.043 0.043 0.043 0.113 0 0.152 l -15.859 15.441 c -0.043 0.043 -0.113 0.043 -0.156 0 l -0.816 -0.844 c -0.039 -0.043 -0.039 -0.109 0.004 -0.152"/></g><g fill="#ffd600"><path d="m 14.531 30.29 l 15.863 -15.441 c 0.043 -0.043 0.109 -0.039 0.152 0.004 l 0.816 0.84 c 0.043 0.043 0.043 0.113 0 0.152 l -15.863 15.441 c -0.039 0.043 -0.109 0.043 -0.152 0 l -0.816 -0.844 c -0.043 -0.043 -0.043 -0.109 0 -0.152"/><path d="m 16.242 31.1 h 15.172 c 0.059 0 0.109 0.051 0.109 0.109 v 1.176 c 0 0.059 -0.051 0.109 -0.109 0.109 h -15.172 c -0.059 0 -0.109 -0.051 -0.109 -0.109 v -1.176 c 0 -0.059 0.051 -0.109 0.109 -0.109"/></g><g fill="#40362a"><path d="m 31.691 25.887 l 4.68 4.652 c 0.043 0.039 0.043 0.109 0 0.152 l -4.676 4.598 c -0.047 0.043 -0.113 0.043 -0.156 0 l -4.684 -4.648 c -0.039 -0.043 -0.039 -0.109 0.004 -0.152 l 4.676 -4.598 c 0.043 -0.043 0.113 -0.043 0.156 -0.004"/><path d="m 31.414 11.875 l 4.68 4.648 c 0.043 0.043 0.043 0.109 0 0.152 l -4.676 4.598 c -0.047 0.043 -0.113 0.043 -0.156 0.004 l -4.684 -4.652 c -0.039 -0.043 -0.039 -0.109 0.004 -0.152 l 4.676 -4.598 c 0.043 -0.043 0.113 -0.043 0.156 0"/></g><path d="m 19.11 31.02 c 0 2.258 -1.844 4.086 -4.125 4.086 c -2.277 0 -4.125 -1.828 -4.125 -4.086 c 0 -2.254 1.848 -4.082 4.125 -4.082 c 2.281 0 4.125 1.828 4.125 4.082" fill="#7f7f7f"/></svg>