<svg xmlns="http://www.w3.org/2000/svg" viewBox="0 0 48 48"><defs><linearGradient id="0" gradientUnits="userSpaceOnUse" x1="169.76" y1="88.04" x2="219.85" y2="87.88" gradientTransform="matrix(0.39651 0 0 1.03305 -50.51 -76.25)"><stop stop-color="#c3c3c3"/><stop offset="1" stop-color="#000" stop-opacity="0"/></linearGradient></defs><path d="m 6.961 39.594 c 49.949 37.84 57.04 -66.3 6.06 -32.879 c -11.621 7.621 -19.285 22.855 -6.06 32.879" fill="#8c9aab"/><g fill="url(#0)"><path d="m 13.168 13.578 h 24.824 v 2.223 h -24.824"/><path d="m 13.168 25.969 h 24.824 v 2.227 h -24.824"/><path d="m 13.168 34.23 h 24.824 v 2.223 h -24.824"/><path d="m 13.168 18.945 h 24.824 v 0.984 h -24.824"/><path d="m 13.168 23.08 h 24.824 v 0.984 h -24.824"/><path d="m 13.168 32.17 h 24.824 v 0.984 h -24.824"/><path d="m 13.168 28.863 h 24.824 v 2.223 h -24.824"/></g><path d="m 16.01 33.04 c -0.184 -2.141 -0.18 -14.191 0.008 -16.281 l 0.141 -1.539 h 2.078 l -0.141 3.035 c -0.074 1.668 -0.117 5.328 -0.09 8.137 l 0.047 5.102 l 1.855 -3.609 c 1.02 -1.98 2.547 -5.129 3.395 -6.988 l 1.547 -3.387 h 0.949 l 0.949 -0.004 l 0.102 0.926 c 0.055 0.508 0.148 1.754 0.207 2.77 c 0.109 1.855 0.723 8.04 0.938 9.484 c 0.117 0.758 0.125 0.766 0.355 0.344 c 0.754 -1.379 3.758 -9.125 5.332 -13.742 l 0.703 -2.066 h 1.156 c 0.633 0 1.152 0.02 1.152 0.043 c 0 0.164 -3.086 8.445 -3.949 10.605 c -1.102 2.742 -3 7.078 -3.605 8.219 c -0.344 0.648 -0.367 0.66 -1.434 0.66 h -1.082 l -0.109 -0.66 c -0.262 -1.563 -1.01 -8.04 -1.129 -9.809 c -0.219 -3.148 -0.176 -3.152 -1.82 0.293 c -0.801 1.676 -2.289 4.633 -3.301 6.57 l -1.844 3.516 l -1.129 0.055 l -1.133 0.051"/></svg>