<svg xmlns="http://www.w3.org/2000/svg" xmlns:xlink="http://www.w3.org/1999/xlink" viewBox="0 0 48 48"><defs><g id="5" clip-path="url(#4)"><path d="m 16.14 36.555 c -0.18 -0.285 -4.219 -19.91 -4.125 -20.05 h 4.551 l 1.754 7.879 l 1.965 -7.879 h 3.906 c 1.148 4.258 1.277 8.781 4.04 11.625 c 2.355 2.402 2.246 3.055 -1.059 6.758 l -1.488 1.668 h -1.922 l -1.695 -7.832 l -2 7.832"/><path d="m 27.414 36.555 c 1.215 -2.25 3.742 -4.445 3.301 -6.691 c -0.148 -0.691 -0.352 -0.988 -1.305 -1.914 c -3.512 -3.336 -3.309 -7.203 -0.891 -10.516 l 0.574 -0.93 h 5.965 c 0 0.07 -0.563 1.027 -1.25 1.789 c -2.461 2.891 -2.742 4.906 -0.402 7.27 c 3.066 3.348 2.742 6.324 0.965 9.398 l -0.832 1.598"/></g><clipPath id="6"><path d="m 11 15 h 18 v 21 h -18"/></clipPath><clipPath id="4"><path d="M 0,0 H48 V48 H0 z"/></clipPath><clipPath id="7"><path d="m 25 15 h 10 v 21 h -10"/></clipPath><clipPath id="0"><path d="m 1 4 h 43 v 43 h -43"/></clipPath><clipPath id="1"><path d="m 43.918 25.617 c 0 11.582 -9.395 20.961 -20.969 20.961 c -11.57 0 -20.965 -9.379 -20.965 -20.961 c 0 -11.582 9.395 -20.965 20.965 -20.965 c 11.574 0 20.969 9.383 20.969 20.965"/></clipPath><filter id="2" filterUnits="objectBoundingBox" x="0" y="0" width="48" height="48"><feColorMatrix type="matrix" in="SourceGraphic" values="0 0 0 0 1 0 0 0 0 1 0 0 0 0 1 0 0 0 1 0"/></filter><mask id="3"><g filter="url(#2)"><path fill-opacity="0.102" d="M 0,0 H48 V48 H0 z"/></g></mask></defs><path d="m 43.32 9.895 c 23.992 36.09 -52.52 58.31 -42.39 11.664 c 4.316 -19.277 31.383 -30.98 42.39 -11.664" fill="#f9f9f9"/><g clip-path="url(#0)"><g clip-path="url(#1)"><use xlink:href="#5" mask="url(#3)"/></g></g><g clip-path="url(#6)"><g clip-path="url(#1)"><path d="m 15.23 35.641 c -0.18 -0.285 -4.219 -19.906 -4.125 -20.05 h 4.547 l 1.758 7.883 l 1.965 -7.883 h 3.906 c 1.148 4.258 1.273 8.785 4.04 11.629 c 2.352 2.398 2.242 3.051 -1.063 6.758 l -1.488 1.664 h -1.918 l -1.699 -7.828 l -2 7.828" fill="#017fb2"/></g></g><g clip-path="url(#7)"><g clip-path="url(#1)"><path d="m 26.504 35.641 c 1.215 -2.25 3.742 -4.441 3.301 -6.688 c -0.148 -0.691 -0.352 -0.992 -1.309 -1.918 c -3.512 -3.336 -3.309 -7.199 -0.891 -10.512 l 0.578 -0.93 h 5.965 c 0 0.066 -0.563 1.023 -1.25 1.789 c -2.465 2.891 -2.742 4.906 -0.406 7.27 c 3.07 3.348 2.746 6.324 0.965 9.398 l -0.828 1.594" fill="#f38e09"/></g></g></svg>