<svg xmlns="http://www.w3.org/2000/svg" viewBox="0 0 48 48"><path d="m 41.04 8.949 c -49.945 -37.32 -57.04 65.39 -6.06 32.426 c 11.621 -7.516 19.285 -22.539 6.06 -32.426" fill="#2e8b56"/><path d="m 79.57 209.45 c -3.603 -0.758 -7.587 -2.872 -9.969 -5.246 c -10.1 -10.113 -5.566 -28.363 8.06 -32.532 c 2.326 -0.718 3.393 -0.738 38.906 -0.718 c 20.09 0 36.961 0 37.514 0 c 0.61 0 1.411 0.439 2.116 1.117 c 2.173 2.174 1.239 5.724 -1.735 6.542 c -0.896 0.239 -13.82 0.379 -37.34 0.379 c -39.878 0 -37.838 -0.12 -40.831 2.413 c -0.877 0.738 -1.982 2.274 -2.707 3.71 c -1.087 2.174 -1.22 2.772 -1.22 5.545 c 0 2.413 0.191 3.491 0.801 4.827 c 2.459 5.246 9.512 7.799 14.868 5.365 c 1.125 -0.519 2.535 -1.356 3.164 -1.895 c 1.697 -1.416 3.488 -5.01 3.736 -7.48 c 0.267 -2.772 0.972 -4.03 2.592 -4.707 c 2.878 -1.177 5.623 0.858 5.623 4.169 c 0 8.557 -6.862 16.695 -15.669 18.53 c -3.126 0.658 -4.785 0.658 -7.93 -0.02 m -18.681 -54.29 c -12.486 -1.775 -19.882 -16.216 -14.297 -27.924 c 4.861 -10.232 18.395 -14.02 28.04 -7.839 c 5.356 3.431 8.997 9.774 8.997 15.638 c 0 1.895 -0.152 2.453 -0.934 3.371 c -1.22 1.436 -3.107 1.835 -4.842 1.017 c -1.43 -0.678 -2.326 -2.394 -2.326 -4.408 c 0 -1.875 -1.296 -4.986 -2.783 -6.702 c -1.925 -2.234 -5.337 -3.79 -8.33 -3.79 c -4.346 -0.02 -8.597 2.314 -10.313 5.625 c -2.364 4.608 -1.296 10.711 2.516 14.381 c 2.955 2.852 -0.496 2.673 51.52 2.772 c 43.671 0.1 46.49 0.14 47.41 0.738 c 2.078 1.416 2.44 4.448 0.724 6.143 c -0.591 0.598 -1.468 1.097 -1.944 1.137 c -2.955 0.199 -91.94 0.06 -93.46 -0.16 m 50.04 -23.337 c -5.242 -0.778 -10.846 -5.05 -13.401 -10.172 c -2.287 -4.608 -2.897 -8.956 -1.906 -13.563 c 0.724 -3.431 2.154 -6.203 4.48 -8.696 c 2.554 -2.713 4.937 -4.229 8.521 -5.405 c 7.32 -2.374 15.345 -0.259 20.492 5.405 c 3.05 3.371 5.03 8.258 5.03 12.406 c 0 2.274 -0.572 3.371 -2.211 4.209 c -2.916 1.496 -5.89 -0.618 -5.89 -4.189 c 0 -3.271 -2.421 -7.28 -5.452 -9.04 c -4.518 -2.633 -10.484 -1.955 -14.163 1.596 c -5.985 5.784 -2.535 18.07 5.414 19.288 c 0.82 0.14 10.77 0.259 22.11 0.299 c 19.06 0.06 20.72 0.12 21.597 0.718 c 2.478 1.656 2.402 5.525 -0.133 6.901 c -0.953 0.539 -41.1 0.738 -44.491 0.239" transform="matrix(0.20492 0 0 0.19584 0.71 -5.711)" fill="#97fb97" stroke="#33b163"/></svg>