<svg xmlns="http://www.w3.org/2000/svg" viewBox="0 0 48 48"><path d="m 5.555 8.734 c -11.684 17.855 -2.258 34.12 10.969 37.977 c 17.793 5.191 41.949 -8.449 26.03 -36.563 c -6.328 -11.172 -28.68 -14.13 -37 -1.414" fill="#101e20"/><g fill-rule="evenodd"><g transform="matrix(-0.0009 -0.48398 0.46659 -0.00127 22.372 36.3)"><path d="m 7.582 4.575 l 33.584 -0.002 c 0.912 0.002 1.629 0.581 1.667 1.401 l 1.337 25.579 c 0.054 1.114 -0.901 2.02 -2.023 2.01 l -35.545 0.007 c -1.122 -0.002 -2.08 -0.908 -2.02 -2.02 l 1.334 -25.582 c 0.042 -0.77 0.544 -1.397 1.666 -1.395" fill="#d14c47" stroke="#d14c47"/><path d="m 8.995 7.19 l -1.312 23.11 l 33.519 -0.002 l -1.417 -23.01 l -30.783 -0.093" fill="#d6dcde" stroke="#fff" stroke-linejoin="round" stroke-width="0.527"/></g><g stroke="#d14c47" transform="matrix(0.0009 -0.48398 -0.46659 -0.00127 25.775 36.3)"><path d="m 7.582 4.572 l 33.584 -0.002 c 0.912 0.002 1.629 0.581 1.667 1.401 l 1.337 25.579 c 0.054 1.122 -0.901 2.024 -2.023 2.022 l -35.545 -0.002 c -1.122 -0.002 -2.08 -0.9 -2.02 -2.02 l 1.334 -25.574 c 0.042 -0.779 0.544 -1.405 1.666 -1.403" fill="#d14c47"/><path d="m 8.995 7.195 l -1.311 23.1 l 33.519 0.006 l -1.417 -23.01 l -30.783 -0.101" fill="#d6dcde" stroke-linejoin="round" stroke-width="0.527"/></g></g><g transform="scale(0.1875)"><g stroke="#0576ab" stroke-width="4.924"><path d="m 146.75 113.58 h 39 v 31.08 h -39" fill="#2d9fc6"/><path d="m 71.77 113.38 h 39 v 31.08 h -39" fill="#8ebb8e"/></g><g stroke-width="4.76"><path d="m 100.79 121.67 c 0 0.75 -0.354 1.438 -0.938 1.813 c -0.563 0.375 -1.292 0.375 -1.875 0 c -0.563 -0.375 -0.938 -1.063 -0.938 -1.813 c 0 -0.75 0.375 -1.438 0.938 -1.813 c 0.583 -0.354 1.313 -0.354 1.875 0 c 0.583 0.375 0.938 1.063 0.938 1.813" fill="#8ebb8e" stroke="#d14c47"/><path d="m 177.23 122.4 c 0 0.792 -0.354 1.5 -0.938 1.896 c -0.583 0.396 -1.292 0.396 -1.875 0 c -0.583 -0.396 -0.938 -1.104 -0.938 -1.896 c 0 -0.771 0.354 -1.5 0.938 -1.896 c 0.583 -0.396 1.292 -0.396 1.875 0 c 0.583 0.396 0.938 1.125 0.938 1.896" fill="#ffa400" stroke="#ffa400"/></g></g></svg>