<svg xmlns="http://www.w3.org/2000/svg" xmlns:xlink="http://www.w3.org/1999/xlink" viewBox="0 0 48 48"><defs><g id="2" clip-path="url(#1)"><path d="m 38.824 24.04 c 0 7.707 -6.246 13.957 -13.953 13.957 c -7.707 0 -13.953 -6.25 -13.953 -13.957 c 0 -7.703 6.246 -13.953 13.953 -13.953 c 7.707 0 13.953 6.25 13.953 13.953" fill="url(#0)"/><path d="m 24.875 13.582 c 2.727 0 5.215 1.043 7.07 2.758 c -0.914 -0.027 -1.82 0.52 -1.863 1.766 c -0.07 2.508 3.01 3.043 1.348 8.098 l -1.375 4.188 l -3.742 -11.03 c -0.059 -0.168 0.008 -0.266 0.219 -0.266 h 1.059 c 0.055 0 0.098 -0.051 0.098 -0.109 v -0.625 c 0 -0.055 -0.043 -0.105 -0.098 -0.102 c -2 0.09 -3.992 0.09 -5.973 0 c -0.055 -0.004 -0.098 0.047 -0.098 0.102 v 0.625 c 0 0.059 0.043 0.109 0.098 0.109 h 1.063 c 0.238 0 0.309 0.078 0.359 0.23 l 1.535 4.203 l -2.309 6.984 l -3.801 -11.203 c -0.051 -0.137 0 -0.219 0.145 -0.219 h 1.211 c 0.055 0 0.102 -0.051 0.102 -0.109 v -0.625 c 0 -0.055 -0.051 -0.105 -0.102 -0.102 c -1.27 0.066 -2.547 0.078 -3.734 0.094 c 1.863 -2.875 5.098 -4.777 8.781 -4.777" fill="#fff" fill-opacity="0.855"/><path d="m 34.08 19.06 c 0.805 1.48 1.262 3.18 1.262 4.984 c 0 3.957 -2.203 7.398 -5.445 9.18 l 3.258 -9.246 c 0.508 -1.438 0.977 -3.363 0.918 -4.926" fill="#fff" fill-opacity="0.855"/><path d="m 28.375 33.906 c -1.098 0.391 -2.277 0.602 -3.504 0.602 c -1.063 0 -2.082 -0.156 -3.043 -0.449 l 3.219 -9.238" fill="#fff" fill-opacity="0.855"/><path d="m 20.391 33.496 c -3.535 -1.676 -5.984 -5.285 -5.984 -9.453 c 0 -1.551 0.332 -3.03 0.938 -4.348" fill="#fff" fill-opacity="0.855"/></g><clipPath id="1"><path d="M 0,0 H48 V48 H0 z"/></clipPath><linearGradient id="0" gradientUnits="userSpaceOnUse" y1="37.34" x2="0" y2="10.429"><stop stop-color="#197ff1"/><stop offset="1" stop-color="#20c6fb"/></linearGradient></defs><path d="m 47.816 13.719 c 4.809 69.03 -88.04 17.289 -26.902 -12.04 c 9.422 -4.04 23.473 -1.09 26.902 12.04" fill="#00bfff"/><use xlink:href="#2"/></svg>