<svg xmlns="http://www.w3.org/2000/svg" viewBox="0 0 48 48"><path d="m 43.32 38.13 c 23.992 -35.996 -52.52 -58.17 -42.39 -11.633 c 4.316 19.23 31.383 30.902 42.39 11.633" fill="#a61e1c" fill-opacity="0.965"/><g transform="matrix(0.1462 0 0 0.14307 5.648 5.41)"><path d="m 99.24 235.68 c -3.554 -3.713 -4.168 -5.351 -4.168 -10.976 c 0 -3.604 -0.401 -16.819 -0.855 -22.853 c -10.607 -38.2 -28.749 38.31 -34.25 1.474 c 0 -4.45 -4.515 -6.416 -2.431 -8.382 c 1.149 -17.638 10.153 -30.498 10.206 -43.549 c 0 -6.116 -0.775 -10.211 -2.939 -10.211 c -6.68 6.744 -10.1 12.996 -18.543 19.14 c -5.931 4.205 -7.05 9.529 -14.642 2.184 l -4.248 -4.096 c 0 -26.27 0 -52.53 0 -78.8 c 7.535 -7.836 12.424 -17.611 18.489 -23.945 l 11.943 -12.45 c 4.729 0 9.458 0 14.161 0 c 6.386 15.891 17.875 43.39 38.581 45.761 c 28 -3.686 26.558 -33.529 35.428 -53.46 c 3.26 -3.741 4.569 -4.287 10.26 -4.287 c 13.76 4.614 33.425 7.754 37.3 20.833 c 0.454 1.911 6.145 4.314 9.672 7.863 c 7.508 14.362 -11.11 8.601 -17.554 16 c 0.775 16.382 19.18 17.583 -6.252 18.621 c -19.611 0.846 -20.04 3.276 -20.09 11.413 c -0.027 9.42 2.485 9.09 28.749 9.09 h 23.699 l 2.378 9.72 c 13.733 13.597 15.07 36.832 10.901 53.46 l -25.14 19.495 c -27.894 21.679 -25.329 25.31 -29.31 28.423 c -1.149 -5.27 3.794 -9.665 4.542 -15.345 c 0.481 -4.177 10.741 -31.781 3.66 -32.791 c -11.943 8.355 -7.989 21.515 -23.646 24.846 c -7.08 2.921 -17.5 17.256 -22.924 12.12 c -1.95 -2.457 -3.66 -0.928 -4.622 -3.549 c -1.095 -2.949 -6.412 -7.727 -8.02 -6.362 c -2.512 5.078 -2.859 4.778 -6.279 8.491 c -6.786 5.215 -5.264 18.05 -9.08 18.1 c -0.802 -10.648 -2.645 6.498 -4.97 4.04 m 38.1 -33.583 c 4.97 -5.078 6.973 -15.181 3.313 -16.628 c -2.859 -1.119 -16.939 10.403 -16.939 14.662 c 0 6.307 7.561 8.136 13.626 1.966" fill="#f3eb16" stroke="#f3eb16" stroke-width="0.596"/><path d="m 101.62 162.92 l 16.298 -15.836 c 16.218 -15.754 16.271 -15.836 15.443 -20.396 c -1.122 -5.979 -3.5 -6.744 -8.256 -2.73 c -2.111 1.802 -5.103 3.276 -6.626 3.276 c -4.863 0.792 -25.356 28.696 -25.569 31.18 c 0 2.457 -11.703 16.382 -13.76 16.382 c -0.615 0 -1.122 -2.976 -1.122 -6.635 c 0 -5.843 0.481 -7.126 3.874 -10.348 c 4.622 -4.369 7.294 -10.184 7.294 -15.809 c 0 -3.522 1.79 -5.898 12.638 -16.874 c 21.722 -17.529 6.252 -20.751 -5.691 -10.43 c -3.901 3.44 -7.882 6.252 -8.844 6.252 c -5.02 0 -5.851 -12.177 -1.202 -17.747 c 3.58 -4.314 3.874 -6.88 1.176 -10.758 c -3.153 -4.505 -8.764 -3.358 -15.764 3.249 c -1.87 1.747 -3.42 4.259 -3.42 5.543 c -0.695 9.42 -8.096 5.215 -12.08 9.72 c -3.714 4.369 -5.29 3.113 -5.29 -4.177 c -2.164 -7.263 6.01 -9.392 6.199 -15.208 c 0 -3.358 8.577 -11.932 11.97 -11.932 c 1.389 0 3.554 1.119 4.783 2.512 c 2.886 3.222 6.386 3.195 8.096 -0.055 c 1.817 -3.413 0.588 -6.771 -4.622 -12.614 c -4.061 -4.505 -4.863 -4.86 -11.06 -4.86 c -3.66 0 -6.68 -0.382 -6.68 -0.874 c 5.718 -2.321 3.046 -13.02 4.462 -14.252 c 4.328 -1.884 5.611 3.713 10.1 3.85 c 15.256 4.56 14.855 36.31 36.417 37.57 h 12.504 c 7.802 -7.317 15.603 -14.607 23.405 -21.925 v -6.307 c 0.321 -11.659 9.832 -15.918 18.81 -15.372 c 9.03 0.519 9.164 0.573 16.245 7.235 c 3.928 3.686 7.134 7.153 7.134 7.754 c 0 1.829 -3.767 1.174 -4.515 -0.792 c -1.737 -2.812 -8.79 -2.321 -8.683 -5.461 c 0.134 -1.693 -1.149 -2.102 -7.267 -2.212 c -7.935 -0.164 -10.554 0.983 -10.554 4.505 c -1.256 4.86 -4.97 8.273 -6.359 13.08 c -1.576 5.843 -14.321 17.638 -20.226 18.757 c -4.569 0.628 -6.653 5.679 -10.607 5.734 c -6.76 0 -9.432 6.362 -3.367 8 c 4.569 1.229 5.798 0.874 8.897 -2.485 c 8.122 -8.08 5.397 12.751 14.241 8.382 c 1.817 -6.799 3.447 -7.427 4.489 -1.72 c 1.603 10.566 22.604 6.58 29.15 6.58 c 25.25 0.027 25.569 0.055 28.29 3 c 2.351 2.512 2.485 3.085 0.855 3.713 c -1.496 0.573 -1.95 2.73 -1.95 9.392 c -0.16 11.276 6.199 11.768 6.199 20.559 c -0.027 8.519 -1.71 13.406 -3.126 9.01 c -0.454 -1.338 -2.137 -5.27 -3.794 -8.737 c 0 -6.717 -9.03 -20.423 -9.191 -25.01 c 0 -3.768 -2.351 -5.652 -7.08 -5.652 c -3.126 0 -5.264 1.201 -9.06 5.02 c -4.569 3.468 -4.863 9.638 -7.989 13.433 c -2.218 2.648 -3.153 5.461 -3.42 10.293 c -0.321 5.679 -0.935 7.04 -4.115 9.529 c -5.905 4.341 -13.172 -3.85 -9.619 -6.553 c 3.527 -5.215 5.771 -11.03 9.378 -15.07 c 5.664 -6.252 6.493 -7.781 5.905 -11.03 c -1.363 -7.345 -4.435 -5.515 -27.36 16.3 c -14.348 13.624 -22.657 20.641 -24.447 20.641 c -4.996 0 -6.573 3.167 -6.706 13.542 c -0.16 10.812 5.37 12.15 3.153 12.915 c -17.313 -9.01 -8.55 -6.717 -7.989 -27.08" fill="#e0102e" stroke="#e0102e" stroke-width="3.02"/><path d="m 97.5 234.02 c -3.714 -3.986 -3.794 -4.45 -4.409 -21.324 c -0.561 -15.973 -0.802 -17.338 -3.313 -18.293 c -9.271 -1.693 -9.298 8.737 -14.989 14.935 c -4.622 4.969 -4.836 5.02 -11.863 4.15 c -3.954 -0.491 -7.615 -1.584 -8.149 -2.375 c -1.069 -5.215 -2.351 -13.624 1.496 -17.338 c 2.031 -1.884 2.672 -4.997 3.393 -16.519 c 0.802 -12.532 1.282 -14.607 4.115 -17.665 c 2.645 -2.894 3.126 -4.587 2.779 -9.993 c 0.935 -7.235 -5.397 -7.918 -6.04 -2.539 c -0.534 4.805 -15.924 20.669 -20.07 20.669 c -5.771 -1.966 -9.245 -5.515 -14 -9.502 v -40.44 c 0 -38.853 0.107 -40.491 2.565 -41.829 c 5.344 -9.04 11.168 -17.42 16.779 -23.04 c 11.382 -11.386 11.676 -11.577 18.01 -11.577 c 6.412 0 6.493 0.055 18.382 12.45 c 6.573 6.853 11.97 13.379 11.97 14.471 c 0 1.092 1.309 3.686 2.912 5.761 c 1.63 2.075 3.527 5.898 4.275 8.491 c 1.309 4.642 1.47 4.723 8.87 5.133 c 7.241 0.382 7.722 0.191 11.997 -4.587 c 4.088 -3.686 4.542 -9.584 7.535 -13.351 c 3.767 -4.096 3.821 -10.348 7.294 -14.389 c 4.569 -4.15 1.042 -16.491 6.118 -18.894 c 4.275 -4.587 5.798 -7.04 10.661 -7.04 c 8.897 1.666 13.306 5.597 20.386 6.171 c 9.672 0.737 10.741 1.147 15.283 5.57 c 4.702 5.324 7.187 12.15 11.382 16.737 c 4.809 5.16 6.519 8.05 6.519 10.949 c 0 5.679 -2.164 7.126 -10.661 7.126 c -9.672 0 -9.993 2.321 -1.389 10.13 c 8.817 7.973 7.294 8.983 -15.02 9.829 c -20.15 3.249 -17.714 -1.884 -18.596 16.928 l 4.916 0.819 c 2.725 0.464 14.05 0.846 25.2 0.846 l 20.226 0.027 c 10.661 6.88 7.775 19.986 12.905 26.348 c 3.099 3.768 3.26 4.751 3.179 20.396 l -0.08 16.437 l -24.768 23.945 c -20.947 20.286 -25.436 24 -29.2 24.355 c -5.611 0.519 -7.214 -2.594 -3.473 -6.799 c 4.649 -5.979 1.844 -14.58 6.653 -20.01 c 3.874 -4.205 4.088 -16.819 0.294 -16.819 c -3.179 0 -8.737 6.717 -9.859 11.877 c -1.015 4.751 -8.122 11.467 -13.332 12.641 c -7.935 2.13 -13.01 12.532 -20.947 12.723 c -3.447 0 -4.141 -0.683 -5.771 -5.652 c -5.344 -11.877 -8.203 2.867 -13.733 8.71 c -4.435 4.614 -5.451 6.607 -5.451 10.621 c 0 4.532 -0.321 4.942 -3.58 4.887 c -2.244 -0.055 -4.996 -1.584 -7.374 -4.15 m 11.809 -18.757 c 2.218 -2.375 4.409 -6.06 4.916 -8.218 c 0.508 -5.379 7.03 -8.71 7.241 -13.897 c 0 -3.358 9.111 -11.713 13.894 -12.751 c 3.794 -0.792 9.592 -6.826 11.329 -2.594 c 0.454 1.147 0.802 6.252 0.802 11.358 c -3.073 17.556 11.382 6.607 13.68 -1.311 c 1.576 -6.498 6.867 -12.04 13.04 -13.624 c 15.497 -6.03 13.6 -7.973 13.626 11.604 c 0 9.938 0.427 12.723 1.95 13.324 c 12.878 -8.05 19.718 -16.16 31.902 -27.768 v -14.252 c 4.756 -9.392 -6.359 -18.867 -6.519 -22.908 c -1.977 -5.406 -5.37 -8.519 -9.191 -12.833 l -28 -0.464 c -31.421 -0.491 -30.432 -0.137 -30.459 -10.512 c -1.71 -7.153 6.279 -9.31 6.493 -15.263 c 0 -4.505 2.324 -5.597 14 -6.635 c 5.931 -0.546 11.11 -1.529 11.542 -2.239 c -0.641 -4.723 -4.248 -8.218 -5.183 -12.996 c -1.737 -6.03 0.508 -4.56 5.718 -4.205 c 15.12 1.065 16.726 -2.867 5.29 -12.969 l -7.641 -6.771 h -10.848 c -10.393 0 -10.981 0.164 -15.12 4.232 c -3.741 3.741 -4.275 5.106 -4.275 11.09 c 1.309 8.928 -5.744 12.56 -11.542 18.348 l -11.569 11.549 h -13.573 c -14.13 0 -16.699 -0.874 -16.699 -5.788 c -3.02 -6.198 -5.771 -14.09 -9.565 -19.06 c -4.489 -10.894 -10.153 -15.1 -20.68 -20.368 c -0.668 0 -7.909 6.362 -16.08 14.17 c -9.111 9.857 -14.855 8.355 -14.855 21.297 c 0 5.461 0.615 7.645 2.618 9.392 c 2.992 6.99 -2.191 22.03 -2.351 29.19 c -0.214 10.839 0.107 22.12 0.695 25.04 c 0.989 4.805 1.55 5.379 5.451 5.761 c 5.103 -0.082 14.05 -6.389 14.428 -11.713 c 1.71 -9.502 9.164 -6.498 13.813 -10.812 c 4.836 -4.642 5.718 -2.293 5.718 15.29 c 0 15.672 -0.134 16.437 -3.26 19.44 c -6.466 8.71 -0.721 19.904 -7.161 27.467 c -2.137 2.512 -3.901 5.16 -3.901 5.925 c 0 2.485 2.672 6.526 4.302 6.526 c 7.802 -5.625 12.638 -11.358 19.718 -18.621 h 7.535 c 6.92 0 7.668 0.273 8.817 3.413 c 0.721 1.857 1.282 8.655 1.282 15.07 c 0 15.263 1.523 16.846 8.683 9.119 m 28.562 -16.382 c 3.02 -4.04 3.286 -5.133 2 -8 c -1.229 -2.758 -1.924 -3.113 -4.01 -1.966 c -5.798 3.167 -10.153 13.269 -7.08 16.409 c 1.363 1.392 5.344 -1.447 9.08 -6.444" stroke="#000" stroke-width="0.605"/></g><path d="m 164.93 81.75 c -1.771 0 -3.208 -1.354 -3.208 -3.042 c 0 -1.688 1.438 -3.042 3.208 -3.042 c 1.771 0 3.208 1.354 3.208 3.042 c 0 1.688 -1.417 3.042 -3.208 3.042 v -3.042" transform="matrix(0.1875 0 0 0.1875 -0.381 -0.317)" stroke="#000" stroke-width="0.46"/></svg>