<svg xmlns="http://www.w3.org/2000/svg" viewBox="0 0 48 48"><path d="m 43.07 12.176 c 23.813 38.578 -52.13 52.867 -42.07 7.266 c 4.285 -18.828 31.15 -27.723 42.07 -7.266" fill="#86942f"/><g fill="#fff"><path d="m 18.758 28.719 c 1.648 3.238 1.598 6.75 -0.109 7.848 c -1.711 1.098 -4.434 -0.637 -6.082 -3.871 c -1.648 -3.238 -1.598 -6.75 0.109 -7.844 c 1.711 -1.098 4.434 0.633 6.082 3.867"/><path d="m 28.988 28.57 c -1.652 3.234 -1.602 6.746 0.109 7.844 c 1.707 1.098 4.43 -0.637 6.078 -3.871 c 1.648 -3.234 1.602 -6.746 -0.109 -7.844 c -1.707 -1.098 -4.43 0.637 -6.078 3.871"/></g><path d="m 27.574 35.996 c -0.543 -0.352 -0.637 -0.777 -0.461 -2.035 c 0.477 -3.449 2.078 -6.707 4.695 -9.559 c 0.445 -0.484 0.914 -0.613 1.52 -0.418 c 0.273 0.09 0.516 0.254 0.539 0.367 c 0.07 0.316 -0.734 3.16 -1.234 4.383 c -0.848 2.066 -2.324 4.566 -3.766 6.379 c -0.859 1.082 -0.922 1.125 -1.293 0.883 m -8.574 -0.547 c -1.125 -1.324 -2.965 -4.01 -3.641 -5.32 c -0.84 -1.629 -1.313 -2.91 -1.641 -4.473 l -0.25 -1.168 l 0.395 -0.336 c 0.648 -0.555 1.098 -0.469 1.969 0.367 c 2.523 2.43 4.5 6.523 4.699 9.75 c 0.082 1.383 0 1.609 -0.629 1.75 c -0.309 0.07 -0.422 0 -0.902 -0.57" fill="#3d3d3d"/><path d="m 14.215 35.31 c -0.566 -0.402 -2.09 -2.02 -2.883 -3.621 c -0.922 -1.859 -1.074 -3.531 -1.262 -5.05 c -0.105 -0.852 -0.121 -3.03 -0.027 -3.684 c 0.59 -4.063 3.066 -7.762 6.684 -9.969 c 2.594 -1.453 5.621 -2.172 8.559 -1.738 c 4.625 0.719 7.414 2.488 9.652 5.391 c 0.957 1.242 1.566 2.43 2.113 4.117 c 0.738 3.059 0.879 5.777 0.102 8.605 c -0.598 2.152 -1.508 3.801 -2.785 5.059 c -0.777 0.762 -1.023 0.918 -1.473 0.918 c -0.422 0.016 -0.652 -0.238 -0.719 -0.582 c 0.02 -0.066 0.328 -0.426 0.688 -0.797 c 1.078 -1.109 1.5 -1.684 2.043 -2.773 c 0.902 -1.801 1.336 -4.02 1.203 -6.145 c -0.172 -2.828 -1.176 -5.543 -2.793 -7.563 c -0.395 -0.488 -1.469 -1.516 -2.129 -2.031 c -2.949 -1.895 -5.586 -2.938 -9.07 -2.523 c -3.91 0.5 -7.293 2.93 -9.07 6.508 c -1.109 2.234 -1.598 4.703 -1.461 7.387 c 0.078 1.512 0.332 2.777 0.797 3.934 c 0.547 1.363 1.191 2.285 2.457 3.508 c 0.297 0.289 0.543 0.563 0.543 0.605 c 0 0.172 -0.617 0.598 -0.863 0.598 c -0.055 0 -0.191 -0.066 -0.309 -0.148" fill="#fafa08"/></svg>