<svg xmlns="http://www.w3.org/2000/svg" viewBox="0 0 48 48"><path d="m 2.48 34 c 13.11 26.602 52.02 11.781 44.586 -15.203 c -7 -25.418 -42.539 -24.695 -46.684 -0.051 c -0.863 5.145 -0.309 10.371 2.098 15.254" fill="#287fb9"/><path d="m 9.08 6.438 v 11.656 h -8.223 c -0.516 1.926 -0.816 3.957 -0.816 6.05 c 0 7.05 3.113 13.379 8.04 17.703 h 5.04 v 2.766 h 21.367 v -2.766 h -0.039 v -7.082 h 7.113 v -26.11 h -2.113 v -2.176 c -0.012 -0.012 -0.023 -0.023 -0.035 -0.035 h -30.332" fill="#fff"/><path d="m 23.773 0.523 c -1.637 0 -3.242 0.176 -4.785 0.492 c -1.543 0.313 -3.01 0.766 -4.434 1.363 c -1.418 0.598 -2.781 1.324 -4.04 2.176 c -1.262 0.848 -2.41 1.801 -3.484 2.871 c -1.07 1.066 -2.066 2.246 -2.922 3.5 c -0.852 1.258 -1.578 2.617 -2.18 4.03 c -0.563 1.328 -0.988 2.699 -1.301 4.137 c 1.012 0.191 2.063 0.359 3.094 0.523 c 1.676 0.266 3.277 0.457 4.539 0.457 c 0.629 0 1.203 -0.07 1.617 -0.176 c 0.418 -0.109 0.711 -0.16 0.879 -0.352 c 0.652 -0.73 1.438 -1.656 1.797 -3.082 c 0.023 -0.105 0.074 -0.449 0.07 -0.559 c -0.02 -0.109 -0.051 -0.273 -0.105 -0.492 c -0.133 -0.52 -0.328 -1.227 -0.457 -1.996 c -0.133 -0.77 -0.215 -1.578 -0.035 -2.348 c 0.176 -0.758 0.641 -1.48 1.441 -1.926 c 0.309 -0.152 0.684 -0.215 0.984 -0.141 c 0.313 0.078 0.582 0.262 0.844 0.492 c 0.527 0.457 0.973 1.16 1.375 1.891 c 0.398 0.73 0.738 1.504 1.02 2.137 c 0.141 0.32 0.281 0.555 0.387 0.773 c 0.047 0.094 0.074 0.191 0.105 0.242 c 0.027 0.055 0.043 0.086 0.035 0.07 c 0.023 0.043 0.063 0.078 0.105 0.105 c -0.027 -0.016 0.086 0.047 0.176 0.07 c 0.133 0.031 0.223 0.039 0.352 0.035 c 0.063 0 0.125 -0.031 0.176 -0.07 c 0.012 -0.012 0.023 -0.023 0.035 -0.035 c 0.039 -0.051 0.063 -0.113 0.07 -0.176 c 0.004 -0.035 0.004 -0.07 0 -0.105 c -0.055 -0.188 -0.195 -0.516 -0.352 -1.082 c -0.184 -0.656 -0.344 -1.477 -0.457 -2.313 c -0.117 -0.836 -0.141 -1.68 0.035 -2.414 c 0.168 -0.719 0.578 -1.375 1.301 -1.648 c 1.086 -0.414 2.047 -0.125 2.602 0.527 c 0.586 0.68 0.875 1.676 1.059 2.73 c 0.18 1.051 0.234 2.16 0.246 3.01 c 0.004 0.43 0 0.754 0 1.02 c 0 0.023 0 0.051 0 0.066 c 0 0.051 0.012 0.098 0.035 0.141 c 0.023 0.043 0.063 0.078 0.105 0.105 c 0.031 0.016 0.066 0.031 0.105 0.035 c 0.063 0.016 0.125 0.051 0.246 0.07 c 0.406 0.074 0.992 0.137 1.688 0.246 c 1.391 0.215 3.223 0.559 5.102 1.051 c 1.875 0.492 3.805 1.16 5.313 2.137 c 1.504 0.973 2.613 2.266 2.848 3.957 c 0.148 1.051 -0.625 2.051 -1.723 3.01 c -1.098 0.961 -2.566 1.922 -4.117 2.77 c -1.547 0.844 -3.148 1.609 -4.434 2.207 c -0.641 0.297 -1.184 0.563 -1.617 0.77 c -0.219 0.105 -0.414 0.203 -0.563 0.281 c -0.148 0.074 -0.242 0.121 -0.316 0.172 c -0.52 0.363 -0.754 0.777 -0.813 1.227 c -0.055 0.461 0.051 0.938 0.246 1.297 c 0.016 0 0.027 0 0.035 0 c 0.004 0 0 0.031 0 0.035 c 0.004 0 0.035 0 0.035 0 c 0.004 0 0 0.035 0 0.035 c 0.063 0.09 0.133 0.148 0.246 0.281 c 0.141 0.16 0.332 0.383 0.527 0.594 c 0.395 0.422 0.855 0.922 1.305 1.438 c 0.445 0.52 0.875 1.059 1.16 1.578 c 0.289 0.523 0.48 1.016 0.316 1.504 c -0.004 0.016 -0.027 -0.016 -0.035 0 c -0.047 0.121 -0.195 0.215 -0.281 0.246 c -0.117 0.039 -0.215 0.07 -0.352 0.07 c -0.25 0 -0.535 -0.063 -0.879 -0.141 c -0.684 -0.16 -1.531 -0.457 -2.391 -0.738 c -0.863 -0.281 -1.73 -0.559 -2.395 -0.734 c -0.238 -0.063 -0.41 -0.078 -0.563 -0.105 c -0.168 -0.02 -0.336 0.117 -0.352 0.281 c -0.004 0.063 0.008 0.121 0.035 0.176 c 0.043 0.078 0.09 0.195 0.211 0.352 c 0.352 0.457 0.906 0.984 1.441 1.574 c 0.539 0.59 1.035 1.23 1.305 1.891 c 0.254 0.633 0.223 1.414 -0.32 1.996 c -0.02 0.02 -0.023 0.031 -0.031 0.039 c -0.164 0.102 -0.223 0.074 -0.391 0.066 c -0.133 0 -0.285 0.004 -0.457 -0.035 c -0.34 -0.07 -0.75 -0.219 -1.23 -0.387 c -0.961 -0.328 -2.172 -0.797 -3.344 -1.293 c -1.168 -0.5 -2.277 -1.02 -3.129 -1.402 c -0.477 -0.199 -0.91 -0.508 -1.441 -0.527 c -0.113 -0.012 -0.266 0 -0.457 0.039 c -0.387 0.063 -0.941 0.121 -1.617 0.211 c -1.277 0.16 -3.051 0.348 -5.066 0.453 c 0.93 0.871 1.895 1.703 2.953 2.418 c 1.262 0.848 2.629 1.574 4.047 2.172 c 1.418 0.598 2.891 1.051 4.434 1.367 c 1.543 0.313 3.148 0.488 4.785 0.488 c 13.1 0 23.711 -10.57 23.711 -23.605 c 0 -13.04 -10.617 -23.609 -23.711 -23.609 m 10.766 7.207 c 0.199 -0.012 0.422 0.316 0.457 0.527 c 0.148 2.301 -0.238 4.676 -0.809 6.898 c -0.031 0.473 -0.652 1.035 -0.988 0.457 c -0.387 -1.324 0.074 -2.73 0.215 -4.066 c 0.289 -1.211 0.309 -2.602 0.949 -3.676 c 0.055 -0.098 0.109 -0.137 0.176 -0.141 m 4.926 1.332 c 0.371 -0.047 0.512 0.324 0.387 0.629 c -0.938 2.379 -2.098 4.727 -3.621 6.797 c -0.27 0.516 -1.055 0.41 -1.059 -0.211 c 0.105 -1.715 1.219 -3.172 2.043 -4.625 c 0.684 -0.887 1.184 -2.117 2.25 -2.59" fill="#287fb9"/></svg>