<svg xmlns="http://www.w3.org/2000/svg" viewBox="0 0 48 48"><path d="m 32.922 45.93 c -58.36 16.734 -29.17 -78.8 10.809 -33.07 c 8.01 9.164 4.926 28.551 -10.809 33.07" fill="#b0dfe5"/><g stroke="#111"><g fill="#00bfff" stroke-width="1.11" transform="scale(0.1875)"><path d="m 64.48 142.25 h 26.06 c 4.625 0 8.354 7.104 8.354 15.875 v 7.708 c 0 8.771 -3.729 15.896 -8.354 15.896 h -26.06 c -4.604 0 -8.354 -7.125 -8.354 -15.896 v -7.708 c 0 -8.771 3.75 -15.875 8.354 -15.875"/><path d="m 143.65 58.958 h 26.08 c 4.604 0 8.354 7.104 8.354 15.875 v 7.708 c 0 8.771 -3.75 15.896 -8.354 15.896 h -26.08 c -4.604 0 -8.354 -7.125 -8.354 -15.896 v -7.708 c 0 -8.771 3.75 -15.875 8.354 -15.875"/></g><path d="m 170.92 115.95 c 13.979 2.292 12.438 -0.792 12.396 -2.479 c -0.042 -1.938 -8.479 -3.542 -14.333 -4.313 c -5.375 -0.688 -0.563 -3.458 -2.604 -5.396 c -2.604 -2.479 -10.708 -1.667 -13.354 -1.667 c -1.021 0 -2.417 3.167 -3.5 5.292 c -0.917 1.813 -3.5 1.104 -3.854 1.104 c -0.333 0 -4.188 -3.646 -8.583 -8.06 l -7.958 -8.06 l 0.229 -7.04 c 0.104 -3.854 0.5 -9.896 0.854 -13.417 l 0.625 -6.396 l 7.25 -6.625 l 7.271 -6.646 h 27.19 l 7.167 6.708 l 7.146 6.688 v 28.896 l -2.604 2.188 c -3.125 2.646 -7.313 8.271 -7.313 9.833 c 0 0.833 0.792 1 3.125 0.625 c 2.833 -0.458 3.583 -0.146 7.854 3.354 c 2.604 2.104 4.729 4.25 4.729 4.771 c 0 0.521 -1.938 2.729 -4.313 4.917 l -4.313 3.979 h -16.271 c -3.271 -7.25 -6.25 -7.979 3.167 -8.229 m 1.833 -21.5 c 1.813 -1.146 1.438 -27.583 -0.438 -30.438 c -0.896 -1.375 -1.729 -1.813 -2.688 -1.417 c -5.833 2.396 -18.583 2.583 -21.313 0.313 c -4.875 0.313 -8.146 4.833 -6.438 6.958 c 1.625 1.958 1.188 16.813 -0.458 19.875 c -1.958 3.688 -0.542 4.188 13.417 4.708 c 6.917 0.25 13.521 0.542 14.646 0.604 c 1.146 0.083 2.625 -0.188 3.271 -0.604" transform="scale(0.1875 0.1875)" fill="#111" stroke-width="0.827"/></g><g stroke-width="0.827" transform="scale(0.1875 0.1875)"><path d="m 64.46 112.77 v -18.875 l 7.271 -7.104 l 7.271 -7.125 l 5 0.458 c 7.25 0.667 7.729 -0.25 7.729 -14.396 v -10.958 l 2.458 -1.25 c 3 -1.563 5.854 -1.625 7.833 -0.167 c 1.313 0.958 1.5 2.417 1.458 12.292 l -0.021 11.188 l 3.708 4.25 c 2.042 2.333 4.063 4.25 4.458 4.25 c 0.396 0 2.042 -1.313 3.625 -2.896 c 2.75 -2.75 3.167 -2.896 7.875 -2.688 l 4.979 0.208 c 0.208 3.25 -0.313 6.729 0.5 9.917 c 0.417 1.563 0.104 1.646 -5 1.375 c -5.271 -0.271 -5.563 -0.167 -8.729 2.688 c -4.813 4.354 -6.604 4.02 -13.271 -2.396 c -3.063 -2.958 -5.958 -5.375 -6.417 -5.375 c -1.042 0 -3.167 2.063 -4.313 4.188 c -0.729 1.354 -1.771 1.604 -7 1.604 c -5.229 0 -6.271 0.229 -7 1.583 c -2.708 4.938 -0.979 30.563 -0.5 37.06 c -0.646 0.625 -3.208 1.042 -6.5 1.042 h -5.417" fill="#f00" stroke="#f00"/><g fill="#111" stroke="#111"><path d="m 45.625 202.04 c -2.375 -2.167 -4.333 -4.396 -4.333 -4.938 c 0 -1.521 7.563 -8.396 9.208 -8.396 c 0.813 0 1.917 0.813 2.458 1.813 c 0.813 1.542 0.688 2.02 -1 3.292 c -6.604 5.04 -6 5.188 18.229 4.292 c 17.958 -0.646 24.875 3.042 27.458 0.229 c 2.583 -2.792 -4.813 -6.625 -12.875 -7.604 c -6.625 -0.813 -4.271 -4.583 -4.313 -6.729 c -0.021 -1.208 -9.563 -0.354 -12.02 -0.104 c -2.083 0.208 -2.708 0.792 -3.458 3.167 c -1.458 4.5 -3.813 4.271 -7.521 -0.792 c -1.688 -2.313 -4.729 -5.542 -6.729 -7.188 l -3.646 -2.979 v -28.458 l 8.104 -7.479 l 8.08 -7.5 l 6.375 -0.313 c 4.771 -0.25 6.396 -0.063 6.396 0.729 c 1.396 1.979 7.417 5.5 7.417 7.688 l -5.771 3.979 l -4.542 0.583 c -2.479 0.292 -5.563 0.25 -6.813 -0.104 c -3.292 -0.958 -3.083 -1.021 -6.354 1.938 c -2.917 2.667 -2.958 2.792 -1.729 5.146 c 1.771 3.458 1.708 16.333 -0.104 18.917 c -1.229 1.771 -1.229 2.02 0.042 3.292 c 1.146 1.146 3.708 1.417 15.729 1.646 c 13.375 0.25 14.5 0.167 16 -1.354 c 1.604 -1.604 1.646 -1.583 5.083 0.708 c 1.896 1.292 3.875 2.458 4.375 2.646 c 0.521 0.167 -0.604 2.229 -2.521 4.667 c -4.333 5.479 -4.438 6.75 -0.563 6.125 c 2.313 -0.375 3.583 0 6.271 1.854 c 3.271 2.271 5.729 5 5.729 6.375 c 0 0.375 -1.729 2.542 -3.833 4.792 l -3.833 4.104 l -25.333 -0.042 l -25.313 -0.042 l -4.333 -3.958"/><path d="m 130.63 123.1 c -1.083 -3.333 -4.438 -4.667 -5.792 -7.75 c 0 -1.375 7.354 -8.521 8.771 -8.521 c 1.354 0 3.625 3.229 3.625 5.146 c 0 0.979 -0.625 1.458 -1.896 1.458 c -1.854 0 -3.896 1.375 -3.896 2.604 c 0 0.333 0.604 1.188 1.313 1.917 c 1.208 1.188 6.438 -0.271 5.708 2.542 c -1.25 4.833 -7.813 3.708 -7.833 2.604"/></g></g><path d="m 133.46 231.86 c -4.077 -2.388 -3.508 -9.367 1.289 -15.703 c 3.748 -4.959 4.107 -6.734 3.688 -18.12 c -0.3 -7.469 -1.229 -12.856 -2.308 -13.224 c -1.019 -0.337 -4.047 1.286 -6.776 3.581 c -3.718 3.153 -6.776 4.163 -12.472 4.163 c -9.02 0 -15.38 -3.826 -29.83 -17.968 l -10.01 -9.795 c 0.03 -12.09 -4.677 -25.957 1.679 -30.825 c 10.163 -8.54 -1.079 -15.15 -3.748 -17.11 c -4.527 -3.367 -0.45 -8.326 5.217 -12.826 c 3.987 -3.183 6.236 -3.765 12.05 -3.092 c 6.296 0.704 7.705 0.214 11.632 -3.918 c 6.476 -6.795 11.572 -6.183 19.877 2.326 c 6.116 6.306 6.865 7.897 6.865 14.907 c 0 6.704 -0.72 8.448 -4.887 11.999 c -2.698 2.265 -4.917 5.755 -4.887 7.683 c 0 6.489 3.268 15.55 5.966 16.591 c 4.257 1.653 10.343 -3.428 10.343 -8.663 c 3.598 -8.877 9.08 -19.468 14.81 -26.08 c 3.688 -3.979 8.125 -10.805 9.923 -15.12 c 3.358 -10.867 6.386 -8.142 17.12 -8.969 c 16.1 -1.99 19.217 0.153 24.974 12.611 c 4.887 10.622 6.686 9.612 28.871 30.825 c 23.325 22.254 23.445 28.651 23.295 34.22 c -0.24 8.877 -2.099 14.08 -5.217 14.693 c -3.538 0.673 -6.06 -5.694 -6.06 -15.428 c 0 -6.091 -0.51 -7.285 -3.118 -7.285 c -1.709 0 -3.448 0.918 -3.837 2.051 c -0.42 1.133 -0.39 12.795 0.03 25.896 l 0.779 23.815 l -7.435 6.183 c -7.435 6.153 -9.983 7.04 -14.84 5.143 c -3.957 -1.531 -3.088 -4.836 2.518 -9.612 l 5.127 -4.316 l -1.439 -16.774 c -1.259 -14.448 -1.859 -16.836 -4.527 -17.325 c -4.587 -0.888 -5.846 2.541 -5.936 16.16 l -0.06 12.336 l -9.834 10.407 c -6.176 6.52 -10.703 10.07 -12.202 9.489 c -3.867 -1.469 -2.578 -9.612 2.608 -16.499 c 4.257 -5.694 4.827 -7.775 4.827 -17.693 c 0 -10.591 -0.24 -11.356 -4.167 -12.856 c -2.308 -0.888 -7.375 -1.622 -11.213 -1.622 c -5.846 0 -8.245 1.071 -14 6.214 c -8.275 7.408 -8.095 9.244 2.279 22.13 c 8.305 10.377 9.684 13.622 7.465 17.815 c -2.398 4.469 -10.763 7.285 -14.57 -1.898 c -13.671 -33.09 -14.181 -5.602 -15.65 1.377 c -2.488 11.663 -6.596 14.57 -14.211 10.132" transform="matrix(0.13029 0 0 0.12761 5.15 9.244)" fill="#7f7f00" stroke="#7f7f00" stroke-width="1.638"/></svg>