<svg xmlns="http://www.w3.org/2000/svg" viewBox="0 0 48 48"><path d="m 11.957 3.813 c -41.898 35.684 44.25 70 35.398 14.809 c -1.941 -12.1 -24.11 -24.422 -35.398 -14.809" fill="#dbdb92"/><path d="m 33.813 34.34 l -3.133 -0.625 l -0.879 -2.531 c -0.902 -2.598 -2.434 -2.516 -2.434 -0.055 c 0 1.527 -0.375 2.68 -1.336 2.75 c -2.707 0.195 -5.059 -0.02 -5.059 -0.781 c 0 -0.289 -0.844 -2.656 -1.543 -3.789 c -1.012 -1.641 -1.664 -2.121 -3.203 -2.359 c -2.852 -0.449 -5.402 -1.344 -6.422 -2.254 c -0.906 -0.813 -2.43 -3.563 -2.43 -4.387 c 0 -0.77 2.641 -0.402 3.645 0.395 c 2.098 1.668 2.539 0.836 2.539 -0.746 c 0 -1.961 0.664 -4.293 2.02 -4.641 c 0.703 -0.184 1.742 -0.613 2.305 -0.953 c 0.566 -0.344 1.867 -0.668 2.895 -0.719 c 1.609 -0.078 2.09 0.195 3.461 1.961 c 0.875 1.129 1.59 2.313 1.59 2.629 c 0 1.512 1.805 2.68 4.145 2.68 c 1.715 0 2.93 0.383 4.371 1.375 c 1.098 0.754 2.074 1.586 2.172 1.852 c 0.098 0.262 0.73 1.152 1.406 1.977 c 0.68 0.82 1.234 1.977 1.234 2.566 c 0.395 2.172 1.746 4.367 0.672 4.152 c -1.293 -0.277 -2.168 -2.395 -2.867 -2.5 c -0.141 3.691 -0.066 4.09 -3.148 4" fill="#afa35f"/><path d="m 16.742 19.918 c 0 0.613 -0.426 1.109 -0.953 1.109 c -0.523 0 -0.949 -0.496 -0.949 -1.109 c 0 -0.613 0.426 -1.109 0.949 -1.109 c 0.527 0 0.953 0.496 0.953 1.109" fill="#6c4923"/><path d="m 23.941 18.207 c 0.563 1.777 -0.078 3.59 -1.43 4.047 c -1.352 0.461 -2.902 -0.609 -3.461 -2.387 c -0.563 -1.773 0.078 -3.586 1.43 -4.04 c 1.348 -0.461 2.902 0.609 3.461 2.383" fill="#ffdbdb"/></svg>