<svg xmlns="http://www.w3.org/2000/svg" viewBox="0 0 48 48"><path d="m 24.08 0.586 c 31.664 -3.602 31.23 47.984 -0.563 47.38 c -29.563 1.699 -32.23 -50.18 0.563 -47.37" fill="#dcdcdc"/><path d="m 12.207 36.22 c -0.063 -0.164 -0.086 -1.148 -0.051 -2.188 l 0.066 -1.887 l 0.672 0.051 c 0.605 0.047 0.93 -0.238 3.285 -2.883 c 1.438 -1.613 2.602 -3.02 2.59 -3.133 c -0.004 -0.559 -0.242 -1.039 -0.598 -1.391 c -0.281 -0.27 -0.996 -1.063 -1.586 -1.762 c -4.41 -5.191 -5.945 -6.883 -6.266 -6.898 c -1.086 1.02 -0.57 -0.836 -0.586 -2.09 c -0.016 -1.82 0 -3.309 0.043 -3.309 c 0.039 0 2.426 2.422 5.301 5.383 c 2.875 2.961 5.309 5.379 5.406 5.379 c 0.098 0 0.266 -0.227 0.371 -0.504 c 0.102 -0.277 0.445 -0.746 0.758 -1.047 c 0.336 -0.32 0.57 -0.785 0.57 -1.133 c 0 -0.824 0.383 -1.129 1.422 -1.129 c 1.277 0 1.863 0.492 1.863 1.57 c 0 0.48 0.102 0.934 0.219 1.012 c 0.121 0.074 0.223 0.359 0.223 0.629 c 0.012 1.43 0.332 1.215 4.145 -2.746 c 2.055 -2.137 3.738 -3.93 3.738 -3.984 c 0.613 -0.781 1.168 -1.301 1.906 -2.055 l 0.145 2.254 l 0.141 2.254 l -0.801 0.926 c -0.441 0.512 -1.699 1.895 -2.793 3.078 c -1.098 1.18 -2.352 2.543 -2.793 3.03 c -0.438 0.48 -0.953 1.01 -1.148 1.164 c -0.793 0.652 -0.535 1.164 2.148 4.195 c 3.535 4 3.219 3.484 3.355 5.488 c 0.066 0.992 0.043 1.801 -0.051 1.801 c -0.164 0 -2.91 -2.207 -3.621 -2.91 c -0.191 -0.188 -0.934 -0.809 -1.656 -1.383 c -0.719 -0.57 -1.637 -1.352 -2.035 -1.738 c -0.402 -0.383 -0.805 -0.695 -0.898 -0.695 c -0.258 0 -0.723 0.637 -1.207 1.656 c -0.535 1.129 -1.293 1.352 -1.895 0.551 c -0.219 -0.289 -0.398 -0.688 -0.398 -0.887 c -0.223 -0.676 -0.668 -1.035 -1.156 -1.539 l -0.684 0.57 c -0.715 0.59 -0.996 0.809 -2.438 1.895 c -0.863 0.648 -1.754 1.426 -2.516 2.023 c -0.543 0.426 -1.117 0.898 -1.277 1.055 c -0.453 0.273 -0.82 0.547 -1.059 0.957 c -0.422 0.727 -0.684 0.84 -0.855 0.371 m 13.148 -9.66 c 0.871 -0.543 0.266 -1.01 -0.637 -1.449 c -1.281 -0.629 -3.41 -0.152 -3.41 0.766 c 0 0.465 1.289 1.223 2.078 1.223 c 0.363 0 1.57 -0.289 1.969 -0.539 m 9.1 6.539 c 0.043 -1.02 0.695 -0.332 0.32 0.191 c -0.297 0.402 -0.313 0.391 -0.32 -0.191" fill="#0060c0"/><path d="m 22.711 32.07 c -0.219 -0.32 -0.402 -0.676 -0.402 -0.789 c 0 -0.113 -0.332 -0.781 -0.742 -1.484 c -0.711 -1.223 -1.031 -3.055 -0.535 -3.055 c 0.121 0 0.75 0.223 1.398 0.496 c 1.234 0.52 1.406 0.496 3.68 -0.457 c 0.422 -0.176 0.148 1.73 -0.414 2.875 c -0.332 0.672 -0.777 1.625 -0.984 2.113 c -0.465 1.082 -1.367 1.219 -2 0.301 m -1.844 -9.375 l 0.074 -2.453 l 1.184 -0.559 c 1.355 -0.641 2.461 -0.566 3.523 0.227 c 0.621 0.461 0.648 0.586 0.648 2.797 v 2.316 l -1.145 -0.355 c -1.133 -0.355 -1.672 -0.313 -3.785 0.313 l -0.57 0.168" fill="#ef0306"/><g fill="#4f4356" stroke="#4f4356" transform="matrix(0.21898 0 0 0.22423 -3.536 -4.103)"><path d="m 59.25 79.46 c -0.071 -10.487 0.161 -12.386 1.445 -12.386 c 2.765 0 3.71 2.265 3.621 8.676 c -0.107 7.613 -1.213 13.31 -2.694 13.867 c -3.8 3.589 -2.355 -8.885 -2.373 -10.156" stroke-width="0.99"/><path d="m 179.48 90.65 c -1.605 -3.937 -0.25 -21.17 1.73 -21.881 c 1.302 -0.47 1.998 0.976 2.836 5.871 c 1.837 10.731 -1.677 23.05 -4.567 16.01" stroke-width="1.124"/><path d="m 170.51 176.36 c -0.321 -2.422 -0.339 -6.393 -0.018 -8.815 c 0.464 -3.676 1.017 -4.529 3.264 -5.087 c 2.694 -0.662 2.694 -0.592 1.82 7.874 c -0.482 4.686 -1.249 8.954 -1.677 9.477 c -1.641 1.986 -2.818 0.784 -3.389 -3.449" stroke-width="1.108"/><path d="m 70.31 175.8 c -0.303 -2.665 -0.321 -7.04 -0.036 -9.703 c 0.446 -4.059 0.963 -5 3.05 -5.61 c 2.497 -0.714 2.515 -0.662 1.695 8.676 c -0.446 5.174 -1.16 9.878 -1.552 10.453 c -1.552 2.178 -2.64 0.854 -3.157 -3.815" stroke-width="1.122"/></g></svg>