<svg xmlns="http://www.w3.org/2000/svg" viewBox="0 0 48 48"><path d="m 45.44 35.477 c -9.352 22.676 -45.551 12.559 -45.31 -12.141 c -0.363 -22.449 28.418 -30.961 41.04 -14.969 c 6.313 6.914 8.516 18.371 4.277 27.11" fill="#f4f4f4" fill-opacity="0.996"/><path d="m 42.844 34.34 c -8.215 20.348 -40.02 11.27 -39.809 -10.895 c -0.32 -20.14 24.965 -27.785 36.05 -13.434 c 5.543 6.203 7.48 16.484 3.758 24.328" fill="#20201f"/><g fill="#fff"><path d="m 30.484 35.16 c -0.723 -0.145 -0.773 -1.262 -0.066 -1.465 c 0.211 -0.063 1.422 -0.113 2.684 -0.113 c 2.57 0 2.77 0.066 2.77 0.898 c 0 0.398 -0.07 0.523 -0.367 0.641 c -0.352 0.137 -4.363 0.168 -5.02 0.039"/><path d="m 10.398 21.379 c -0.074 -0.031 -0.137 -0.102 -0.137 -0.16 c 0 -0.059 0.348 -0.828 0.77 -1.711 c 0.539 -1.133 0.746 -1.676 0.695 -1.832 c -0.039 -0.125 -0.336 -0.789 -0.66 -1.473 c -0.324 -0.684 -0.586 -1.328 -0.586 -1.434 c 0 -0.152 0.121 -0.207 0.566 -0.258 c 1.16 -0.141 1.129 -0.152 1.508 0.684 c 0.227 0.5 0.398 0.754 0.52 0.754 c 0.109 0 0.328 -0.254 0.547 -0.641 c 0.422 -0.746 0.734 -0.906 1.539 -0.801 c 0.492 0.063 0.523 0.086 0.523 0.387 c 0 0.176 -0.098 0.457 -0.215 0.621 c -0.281 0.395 -1.086 2.055 -1.086 2.246 c 0 0.082 0.289 0.766 0.645 1.523 c 0.875 1.855 0.914 1.965 0.742 2.074 c -0.078 0.047 -0.484 0.09 -0.902 0.09 h -0.762 l -0.52 -1.039 c -0.285 -0.574 -0.559 -0.996 -0.609 -0.941 c -0.047 0.051 -0.27 0.52 -0.492 1.039 l -0.406 0.941 l -0.773 -0.008 c -0.422 -0.004 -0.832 -0.031 -0.906 -0.063"/></g><g fill="#007fff"><path d="m 15.738 33.32 c -0.066 -0.109 -0.121 -2.699 -0.098 -4.844 l 0.016 -1.52 l 1.59 0.004 c 1.898 0.004 2.48 0.188 2.82 0.898 c 0.289 0.605 0.27 0.738 -0.207 1.359 l -0.418 0.543 l 0.465 0.523 c 0.574 0.645 0.695 1.191 0.422 1.875 c -0.258 0.637 -0.762 0.953 -1.805 1.121 c -0.934 0.152 -2.699 0.176 -2.785 0.039 m 2.887 -1.219 c 0.43 -0.297 0.375 -0.941 -0.105 -1.348 c -0.41 -0.344 -1 -0.422 -1.215 -0.164 c -0.074 0.086 -0.172 0.504 -0.219 0.93 l -0.09 0.777 h 0.676 c 0.41 0 0.785 -0.078 0.953 -0.195 m -0.254 -3.066 c 0.434 -0.402 0.367 -0.813 -0.164 -1.035 c -0.543 -0.227 -0.902 -0.129 -1.059 0.281 c -0.387 1.01 0.414 1.508 1.223 0.754"/><path d="m 21.648 33.1 c -0.07 -0.184 -0.125 -1.594 -0.125 -3.219 v -2.891 l 0.578 -0.082 c 0.32 -0.043 0.656 -0.078 0.75 -0.078 c 0.137 0 0.168 0.383 0.156 1.957 c -0.012 1.074 -0.051 2.543 -0.094 3.258 l -0.078 1.305 l -0.531 0.039 c -0.477 0.035 -0.547 0.004 -0.656 -0.289"/><path d="m 24.469 33.22 c -0.039 -0.109 -0.074 -1.59 -0.074 -3.293 v -3.094 l 0.906 0.004 h 0.902 l 0.676 1.809 c 0.605 1.633 0.875 2.09 1.098 1.871 c 0.039 -0.043 0.102 -0.887 0.137 -1.879 l 0.063 -1.805 h 1.086 v 1.895 c 0 1.043 -0.035 2.523 -0.082 3.289 l -0.078 1.398 h -0.668 c -0.48 0 -0.734 -0.063 -0.898 -0.227 c -0.125 -0.125 -0.523 -0.934 -0.891 -1.801 c -0.934 -2.223 -1 -2.234 -1 -0.152 c 0 0.934 -0.059 1.809 -0.129 1.938 c -0.164 0.305 -0.934 0.34 -1.047 0.047"/><path d="m 30.594 21.16 c -0.043 -0.047 -0.082 -1.145 -0.082 -2.441 v -2.355 l 0.844 0.078 c 0.566 0.051 1.027 0.02 1.414 -0.094 c 0.523 -0.156 0.625 -0.152 1.105 0.063 c 0.645 0.285 0.84 0.293 1.422 0.051 c 0.246 -0.102 0.617 -0.188 0.816 -0.188 c 1.012 0 1.141 0.328 1.141 2.914 v 2.055 h -1.223 l -0.055 -1.707 c -0.031 -0.941 -0.098 -1.801 -0.148 -1.914 c -0.203 -0.461 -0.766 -0.395 -0.961 0.113 c -0.063 0.168 -0.145 0.898 -0.184 1.625 c -0.102 1.953 -0.07 1.883 -0.805 1.883 h -0.621 l -0.008 -0.465 c -0.031 -1.695 -0.207 -3.289 -0.375 -3.395 c -0.578 -0.371 -0.813 0.145 -0.926 2.035 c -0.047 0.832 -0.145 1.582 -0.215 1.668 c -0.137 0.16 -0.996 0.219 -1.141 0.074"/><path d="m 26.594 20.855 c -0.098 -0.496 -0.102 -3.559 0 -4.055 c 0.098 -0.496 0.469 -0.586 1.109 -0.27 c 0.496 0.242 0.5 0.242 0.836 -0.004 c 0.434 -0.32 0.934 -0.324 1.031 -0.016 c 0.125 0.387 -0.168 0.82 -0.723 1.078 c -0.48 0.223 -0.531 0.293 -0.664 0.922 c -0.078 0.379 -0.148 0.973 -0.156 1.32 c -0.008 0.352 -0.047 0.813 -0.09 1.023 c -0.074 0.371 -0.109 0.391 -0.672 0.391 c -0.563 0 -0.598 -0.02 -0.672 -0.391"/><path d="m 17.727 18.926 c -0.07 -2.305 -0.152 -2.965 -0.383 -3.105 c -0.074 -0.043 -0.371 -0.109 -0.664 -0.148 c -0.43 -0.051 -0.574 -0.121 -0.734 -0.344 c -0.113 -0.156 -0.203 -0.379 -0.203 -0.492 c 0 -0.211 0.031 -0.211 2.531 -0.211 h 2.527 v 0.344 c 0 0.473 -0.195 0.629 -0.891 0.711 l -0.594 0.066 l -0.066 1.73 c -0.035 0.949 -0.066 2.168 -0.066 2.707 v 0.98 h -1.387"/><path d="m 22.641 21.277 c -0.688 -0.238 -1.18 -0.715 -1.434 -1.395 c -0.379 -1.01 -0.176 -2.098 0.543 -2.914 c 0.469 -0.527 0.887 -0.734 1.488 -0.734 c 1.086 0 1.875 0.547 2.207 1.527 c 0.422 1.242 0.246 1.43 -1.418 1.539 c -1.297 0.082 -1.406 0.109 -1.406 0.352 c 0 0.398 0.375 0.555 1.441 0.605 c 0.84 0.043 1.039 0.082 1.129 0.234 c 0.156 0.25 -0.277 0.617 -0.969 0.82 c -0.668 0.195 -0.918 0.191 -1.582 -0.035 m 1.309 -3.02 c 0.207 -0.168 0.219 -0.219 0.113 -0.453 c -0.23 -0.504 -1 -0.617 -1.332 -0.199 c -0.258 0.328 -0.258 0.391 -0.008 0.641 c 0.266 0.262 0.906 0.27 1.227 0.012"/></g></svg>