<svg xmlns="http://www.w3.org/2000/svg" viewBox="0 0 48 48"><path d="m 39.473 7.078 c 37.52 49.734 -65.738 56.801 -32.602 6.03 c 7.555 -11.574 22.664 -19.2 32.602 -6.03" fill="#dcdcdc"/><path d="m 20.922 39.06 c -3.652 -0.688 -5.867 -1.844 -8.129 -4.23 c -3.27 -3.453 -4.203 -5.832 -4.199 -10.695 c 0.004 -3.492 0.293 -4.797 1.594 -7.211 c 0.938 -1.738 3.336 -4.438 3.941 -4.438 c 0.188 0 0.484 0.387 0.66 0.859 c 0.172 0.469 0.926 1.555 1.668 2.406 c 0.742 0.852 1.352 1.641 1.348 1.75 c 0 0.109 -0.586 0.418 -1.301 0.684 c -1.102 0.414 -1.414 0.68 -2.051 1.758 c -0.906 1.527 -2.773 2.973 -3.844 2.973 c -1.371 0 -1.523 1.383 -0.277 2.543 c 0.938 0.875 1.934 0.762 2.613 -0.293 c 0.277 -0.426 0.707 -0.781 0.957 -0.785 c 0.246 -0.008 0.984 -0.234 1.641 -0.508 c 0.859 -0.359 1.598 -0.48 2.652 -0.426 l 1.461 0.074 l 0.211 0.969 c 0.117 0.535 0.176 3.18 0.133 5.883 l -0.074 4.91 h 2.863 v -0.992 c 0 -0.543 -0.121 -2 -0.273 -3.242 c -0.293 -2.426 -0.141 -3.121 0.73 -3.344 c 0.684 -0.172 4.16 0.953 4.934 1.602 l 0.66 0.551 l -0.453 2.352 c -0.449 2.309 -0.449 2.355 0.027 2.703 c 0.266 0.195 0.77 0.359 1.125 0.363 c 0.621 0.008 0.672 -0.098 1.195 -2.48 c 0.648 -2.941 0.98 -3.672 1.715 -3.773 c 0.418 -0.059 0.719 0.191 1.301 1.082 c 0.902 1.387 1.246 2.484 1.246 4 c 0 1.117 0.008 1.125 0.938 1.234 c 1.266 0.152 1.633 -0.008 1.434 -0.637 c -0.086 -0.281 -0.219 -2.855 -0.293 -5.723 c -0.152 -6.074 -0.281 -6.52 -2.457 -8.453 c -2.984 -2.656 -4.996 -3.01 -9.211 -1.629 c -1.371 0.449 -2.586 0.73 -2.699 0.625 c -0.227 -0.203 0.758 -1.863 1.422 -2.398 c 0.223 -0.184 0.406 -0.527 0.406 -0.77 c 0 -0.242 0.324 -0.664 0.723 -0.941 c 0.992 -0.688 1.316 -0.652 1.02 0.105 c -0.504 1.285 1.121 0.449 3.055 -1.57 c 2.047 -2.148 1.941 -2.309 -0.973 -1.434 c -2.707 0.813 -4.07 1.594 -5.992 3.434 c -1.496 1.43 -1.875 1.68 -2.277 1.492 c -0.266 -0.125 -1.172 -1.117 -2.01 -2.207 c -0.84 -1.09 -1.859 -2.258 -2.27 -2.59 c -0.406 -0.336 -0.742 -0.734 -0.742 -0.883 c 0 -0.449 3.98 -2.109 5.75 -2.398 c 7.254 -1.191 13.84 1.961 16.902 8.098 c 1.281 2.566 1.633 4.113 1.609 7.03 c -0.02 2.051 -0.129 2.703 -0.734 4.242 c -0.633 1.617 -0.715 2.137 -0.723 4.645 c -0.016 3.855 -0.285 4.113 -4.742 4.465 c -1.098 0.086 -3.02 0.422 -4.266 0.742 c -2.855 0.738 -5.672 0.906 -7.941 0.477 m 5.109 -11.289 c -0.758 -0.23 -1.707 -0.574 -2.113 -0.762 l -0.742 -0.336 l 1.117 -0.129 c 1.363 -0.156 2.25 0.098 2.969 0.844 c 0.75 0.777 0.391 0.887 -1.234 0.383 m -4.066 -0.41 c -0.316 -0.309 -0.164 -0.566 0.324 -0.566 c 0.332 0 0.445 0.117 0.348 0.363 c -0.156 0.391 -0.402 0.465 -0.672 0.203 m -10.984 -2.426 c -0.086 -0.223 -0.043 -0.52 0.098 -0.656 c 0.328 -0.32 1.141 0.406 0.895 0.793 c -0.254 0.398 -0.813 0.32 -0.992 -0.137 m 7.496 -4.121 c -0.09 -0.09 -0.168 -0.363 -0.168 -0.609 c 0 -0.246 -0.176 -0.441 -0.402 -0.441 c -0.332 0 -0.348 -0.066 -0.094 -0.367 c 0.172 -0.199 0.668 -0.363 1.102 -0.363 c 0.75 0 0.797 0.055 0.852 0.973 c 0.055 0.875 0 0.969 -0.531 0.969 c -0.324 0 -0.668 -0.074 -0.758 -0.16" fill="#a8aca3"/><path d="m 20.301 38.785 c -2.773 -0.578 -5.41 -2.023 -7.375 -4.04 c -3.121 -3.199 -4.336 -6.176 -4.336 -10.613 c 0 -3.219 0.324 -4.578 1.691 -7.125 c 0.859 -1.602 3.621 -4.762 3.914 -4.477 c 0.078 0.074 0.184 0.363 0.238 0.641 c 0.164 0.82 0.641 1.559 1.789 2.766 c 0.598 0.629 1.086 1.258 1.086 1.402 c 0 0.145 -0.504 0.473 -1.117 0.727 c -0.844 0.355 -1.328 0.789 -1.98 1.781 c -1.496 2.277 -3.629 3.461 -4.574 2.539 c -0.234 -0.227 -0.301 0.129 -0.301 1.602 c 0 1.445 0.078 1.863 0.324 1.773 c 0.176 -0.066 0.535 0.031 0.793 0.215 c 0.801 0.57 1.852 0.414 2.621 -0.391 c 0.383 -0.398 0.809 -0.727 0.941 -0.727 c 0.133 0 0.871 -0.277 1.637 -0.621 c 1.016 -0.453 1.711 -0.598 2.582 -0.543 l 1.191 0.074 l 0.195 1.453 c 0.227 1.688 0.086 8.898 -0.188 9.883 l -0.188 0.664 h 2.02 c 1.68 0 2.023 -0.063 2.023 -0.383 c 0 -0.211 -0.176 -1.758 -0.387 -3.438 c -0.375 -2.945 -0.371 -3.066 0.09 -3.512 c 0.422 -0.414 0.59 -0.434 1.566 -0.18 c 2 0.527 3.664 1.223 3.813 1.594 c 0.078 0.203 -0.078 1.344 -0.352 2.535 c -0.273 1.191 -0.496 2.383 -0.496 2.645 c 0 0.633 0.637 0.938 2.352 1.133 l 1.406 0.16 l -0.297 -0.641 c -0.305 -0.645 -0.102 -2.438 0.582 -5.199 c 0.23 -0.934 0.328 -1.035 0.91 -0.969 c 1.254 0.141 2.742 3.977 2.039 5.254 c -0.348 0.637 0.219 0.969 1.828 1.059 c 0.629 0.035 1.145 0.137 1.145 0.23 c 0 0.273 -2.707 1.168 -3.559 1.172 c -0.797 0.004 -1.5 0.164 -5.781 1.309 c -2.586 0.695 -5.313 0.781 -7.848 0.25 m 17.03 -8.469 c -0.098 -0.242 -0.039 -0.934 0.125 -1.535 c 0.207 -0.758 0.223 -1.172 0.043 -1.348 c -0.145 -0.137 -0.266 -0.965 -0.27 -1.84 c -0.02 -2.781 -1.063 -4.527 -3.816 -6.395 c -2.852 -1.938 -3.77 -2.035 -7.5 -0.781 c -1.367 0.457 -2.543 0.777 -2.609 0.711 c -0.07 -0.066 0.043 -0.414 0.25 -0.773 c 0.262 -0.453 0.91 -0.863 2.109 -1.332 c 1.086 -0.422 2.141 -1.059 2.813 -1.695 c 1.055 -1 2.785 -3.121 2.785 -3.418 c 0 -0.305 -1.156 -0.133 -3.227 0.484 c -3.078 0.914 -3.926 1.398 -5.77 3.313 c -1.098 1.133 -1.777 1.66 -2.027 1.566 c -0.211 -0.078 -1 -0.941 -1.758 -1.918 c -0.758 -0.977 -1.781 -2.152 -2.27 -2.613 c -0.492 -0.457 -0.895 -0.926 -0.895 -1.039 c 0 -0.117 0.816 -0.586 1.816 -1.047 c 6.04 -2.793 12.703 -1.719 17.391 2.797 c 3.137 3.02 4.711 6.59 4.711 10.676 c 0 1.977 -0.723 5.234 -1.355 6.113 c -0.348 0.488 -0.383 0.492 -0.547 0.074 m -18.609 -9.504 c -0.297 -0.289 -0.176 -0.996 0.188 -1.133 c 0.555 -0.207 1.027 0.48 0.645 0.93 c -0.34 0.398 -0.574 0.453 -0.832 0.203" fill="#99d65d"/><path d="m 20.301 38.785 c -2.773 -0.578 -5.41 -2.023 -7.375 -4.04 c -3.121 -3.199 -4.336 -6.176 -4.336 -10.613 c 0 -3.035 0.32 -4.523 1.43 -6.668 c 1.164 -2.25 4.301 -5.656 4.301 -4.672 c 0 0.168 -0.199 0.43 -0.441 0.578 c -1.273 0.773 -3.637 4.59 -4.281 6.922 c -0.453 1.625 -0.242 6.84 0.316 7.961 l 0.426 0.848 l -0.137 -0.848 c -0.07 -0.465 -0.203 -1.277 -0.289 -1.797 l -0.156 -0.949 l 0.594 0.402 c 0.922 0.629 1.922 0.512 2.723 -0.324 c 0.383 -0.398 0.809 -0.727 0.941 -0.727 c 0.133 0 0.871 -0.277 1.633 -0.621 c 1.016 -0.453 1.715 -0.598 2.586 -0.543 l 1.191 0.074 l 0.195 1.453 c 0.227 1.688 0.086 8.898 -0.191 9.883 l -0.188 0.668 h 2.023 c 1.68 0 2.023 -0.066 2.023 -0.387 c 0 -0.211 -0.176 -1.758 -0.387 -3.438 c -0.375 -2.945 -0.371 -3.066 0.09 -3.512 c 0.422 -0.414 0.59 -0.434 1.563 -0.176 c 2 0.523 3.668 1.219 3.816 1.59 c 0.078 0.203 -0.078 1.344 -0.352 2.535 c -0.273 1.191 -0.496 2.383 -0.496 2.645 c 0 0.633 0.637 0.938 2.352 1.133 l 1.406 0.16 l -0.301 -0.641 c -0.301 -0.645 -0.102 -2.438 0.586 -5.199 c 0.23 -0.934 0.328 -1.035 0.91 -0.969 c 1.254 0.141 2.742 3.977 2.039 5.254 c -0.352 0.637 0.219 0.969 1.828 1.059 c 0.629 0.035 1.145 0.137 1.145 0.23 c 0 0.273 -2.707 1.168 -3.559 1.172 c -0.797 0.004 -1.5 0.164 -5.781 1.309 c -2.59 0.695 -5.313 0.781 -7.848 0.25 m 17.05 -8.434 c -0.211 -0.535 0.043 -1.797 0.547 -2.707 c 0.617 -1.109 0.75 -4.953 0.246 -6.914 c -1.449 -5.613 -5.977 -9.828 -11.613 -10.813 c -3.426 -0.598 -6.938 -0.098 -9.648 1.375 c -1.398 0.762 -1.68 0.852 -1.434 0.465 c 0.219 -0.348 1.813 -1.109 3.922 -1.879 c 1.586 -0.578 2.141 -0.652 4.547 -0.633 c 2.418 0.02 2.988 0.109 4.84 0.777 c 3.59 1.293 6.086 3.176 8.03 6.074 c 1.539 2.285 2.219 4.375 2.383 7.316 c 0.102 1.848 0.023 2.715 -0.391 4.309 c -0.586 2.25 -1.16 3.313 -1.43 2.629 m 0.078 -2.973 c -0.102 -0.098 -0.191 -0.898 -0.195 -1.777 c -0.02 -2.789 -1.059 -4.535 -3.813 -6.402 c -2.855 -1.938 -3.773 -2.035 -7.504 -0.781 c -1.367 0.457 -2.543 0.777 -2.609 0.711 c -0.07 -0.066 0.043 -0.414 0.25 -0.773 c 0.262 -0.453 0.914 -0.863 2.109 -1.332 c 0.953 -0.371 2.066 -0.973 2.473 -1.332 c 0.457 -0.406 0.605 -0.473 0.387 -0.172 c -0.195 0.266 0.039 0.129 0.52 -0.305 c 0.48 -0.434 1.055 -0.789 1.273 -0.789 c 0.219 0 1.582 0.762 3.03 1.688 c 2.805 1.801 3.215 2.293 3.973 4.785 c 0.695 2.277 0.773 7.129 0.105 6.48 m -27.586 -4.91 c 0 -0.48 1.082 -3.379 1.527 -4.086 c 0.664 -1.055 3.254 -2.754 4.098 -2.688 c 0.617 0.051 1.848 1.16 1.848 1.668 c 0 0.129 -0.504 0.445 -1.117 0.699 c -0.844 0.355 -1.328 0.789 -1.98 1.781 c -1.098 1.672 -2.574 2.828 -3.602 2.828 c -0.426 0 -0.773 -0.09 -0.773 -0.203 m 8.883 -1.656 c -0.293 -0.285 -0.176 -0.992 0.191 -1.129 c 0.551 -0.207 1.023 0.477 0.641 0.93 c -0.34 0.395 -0.574 0.449 -0.832 0.199 m 0.934 -4 c -0.262 -0.293 -0.316 -0.438 -0.125 -0.328 c 0.191 0.109 -0.016 -0.313 -0.457 -0.941 c -0.445 -0.629 -0.754 -1.281 -0.688 -1.449 c 0.215 -0.539 5.902 -1.469 5.902 -0.965 c 0 0.125 -0.512 0.641 -1.141 1.152 c -0.625 0.508 -1.082 1.063 -1.016 1.234 c 0.129 0.328 -1.301 1.82 -1.742 1.82 c -0.145 0 -0.473 -0.234 -0.734 -0.523 m 1.891 -0.566 c 0.324 -0.332 0.531 -0.605 0.461 -0.605 c -0.066 0 -0.387 0.273 -0.711 0.605 c -0.32 0.332 -0.527 0.605 -0.461 0.605 c 0.07 0 0.391 -0.273 0.711 -0.605" fill="#88b063"/><path d="m 20.09 38.535 c -2.734 -0.582 -4.691 -1.66 -6.766 -3.719 c -1.031 -1.023 -2.234 -2.523 -2.68 -3.336 c -1.027 -1.875 -1.047 -2.234 -0.035 -0.672 c 1.063 1.645 2.395 3.207 3 3.523 c 0.324 0.172 0.137 -0.188 -0.531 -1.012 c -1.57 -1.934 -2.996 -5.01 -2.996 -6.457 c 0 -0.504 0.082 -0.559 0.563 -0.395 c 0.992 0.336 1.934 0.168 2.625 -0.469 c 1.078 -0.996 3.469 -1.906 4.777 -1.824 l 1.129 0.074 l 0.16 2.059 c 0.277 3.516 0.234 7.551 -0.09 8.426 c -0.406 1.086 -0.09 1.266 2.219 1.273 c 1.543 0 1.809 -0.063 1.938 -0.461 c 0.086 -0.258 -0.023 -1.859 -0.238 -3.563 c -0.5 -3.953 -0.496 -3.961 2.234 -3.25 c 2.363 0.617 2.871 0.863 2.871 1.402 c 0 0.227 -0.246 1.477 -0.551 2.781 c -0.496 2.148 -0.512 2.406 -0.16 2.75 c 0.461 0.445 2.023 0.875 3.063 0.84 c 0.957 -0.035 0.988 -0.086 0.563 -0.898 c -0.324 -0.617 -0.309 -0.949 0.168 -3.164 c 0.598 -2.773 0.965 -3.391 1.563 -2.617 c 0.695 0.898 1.32 2.25 1.477 3.215 c 0.137 0.836 0.094 0.977 -0.367 1.09 c -0.523 0.137 -0.742 0.664 -0.273 0.664 c 0.137 0 0.25 0.164 0.25 0.367 c 0 0.227 0.422 0.473 1.121 0.656 c 0.613 0.16 1.121 0.367 1.121 0.457 c 0 0.23 -1.199 0.547 -2.242 0.59 c -0.48 0.02 -1.488 0.227 -2.242 0.461 c -5.348 1.652 -8.199 1.945 -11.668 1.207 m 17.398 -8.734 c 0 -0.27 0.176 -0.699 0.391 -0.957 c 0.371 -0.449 0.383 -0.438 0.23 0.258 c -0.199 0.902 -0.621 1.379 -0.621 0.699 m -28.746 -2.551 c -0.215 -1.055 -0.148 -5.781 0.094 -6.516 c 0.121 -0.363 0.211 0.98 0.223 3.332 c 0.016 2.168 -0.016 3.941 -0.066 3.941 c -0.051 0 -0.164 -0.34 -0.25 -0.758 m 28.785 -2.879 c -0.137 -2.195 -2.652 -5.133 -5.625 -6.555 c -1.438 -0.688 -1.789 -0.766 -2.898 -0.621 c -0.695 0.09 -2.051 0.441 -3.02 0.777 c -0.961 0.34 -1.824 0.547 -1.914 0.457 c -0.203 -0.195 0.43 -0.563 2.199 -1.281 c 0.754 -0.305 1.879 -1.039 2.5 -1.637 c 0.621 -0.598 1.313 -1.082 1.535 -1.082 c 0.219 0 1.586 0.758 3.03 1.684 c 1.98 1.273 2.746 1.918 3.113 2.617 c 0.84 1.594 1.313 3.578 1.215 5.078 c -0.051 0.793 -0.113 1.039 -0.141 0.563 m -27.15 -2.152 c -0.449 -0.273 -0.184 -1.539 0.66 -3.184 c 0.492 -0.961 1.051 -1.563 2.16 -2.332 c 0.82 -0.57 1.656 -1.043 1.855 -1.051 c 0.418 -0.016 1.754 1.168 1.754 1.555 c 0 0.145 -0.477 0.48 -1.059 0.742 c -0.77 0.348 -1.262 0.816 -1.805 1.715 c -0.684 1.133 -2.473 2.77 -3.02 2.762 c -0.121 -0.004 -0.371 -0.094 -0.555 -0.207 m 8.305 -1.727 c -0.211 -0.328 0.07 -0.73 0.512 -0.73 c 0.199 0 0.359 0.219 0.359 0.488 c 0 0.5 -0.602 0.668 -0.871 0.242 m 1.473 -3.59 c -0.52 -0.34 -1.887 -2.508 -1.77 -2.805 c 0.188 -0.473 5.902 -1.492 5.902 -1.055 c 0 0.363 -3.902 4.01 -4.133 3.859 m 14.945 -2.293 l -0.473 -0.543 l 0.559 0.461 c 0.527 0.434 0.676 0.629 0.477 0.629 c -0.051 0 -0.301 -0.246 -0.563 -0.547 m -2.344 -2.148 c -0.867 -0.742 -0.867 -0.742 -0.07 -0.227 c 0.441 0.285 0.871 0.625 0.949 0.75 c 0.242 0.379 0.043 0.258 -0.879 -0.527 m -2.492 -1.422 c -0.223 -0.141 -0.254 -0.238 -0.074 -0.242 c 0.164 0 0.363 0.109 0.449 0.242 c 0.191 0.301 0.105 0.301 -0.375 0 m -3.285 -1.137 c 0.18 -0.07 0.395 -0.063 0.48 0.02 c 0.082 0.078 -0.066 0.137 -0.328 0.125 c -0.289 -0.012 -0.352 -0.066 -0.152 -0.145 m -6.066 -0.336 c -0.176 -0.281 2.801 -0.5 4.379 -0.328 c 0.828 0.094 1.434 0.234 1.352 0.316 c -0.207 0.203 -5.602 0.211 -5.73 0.012" fill="#78c928"/><path d="m 20.09 38.535 c -2.734 -0.582 -4.691 -1.66 -6.766 -3.719 c -1.551 -1.539 -3.488 -4.309 -3.488 -4.984 c 0 -0.094 0.566 0.656 1.258 1.668 c 1.109 1.609 3.059 3.539 3.582 3.539 c 0.098 0 -0.328 -0.566 -0.949 -1.258 c -1.77 -1.965 -3.383 -5.27 -3.391 -6.934 c -0.004 -0.484 0.063 -0.52 0.512 -0.289 c 0.672 0.352 1.809 0.094 2.387 -0.539 c 0.664 -0.727 2.988 -1.676 4.473 -1.824 c 1.051 -0.105 1.297 -0.055 1.434 0.293 c 0.09 0.23 0.238 2.371 0.328 4.758 c 0.125 3.332 0.082 4.57 -0.172 5.328 c -0.434 1.277 -0.207 1.426 2.168 1.434 c 1.547 0 1.809 -0.063 1.941 -0.461 c 0.082 -0.258 -0.023 -1.859 -0.242 -3.563 c -0.5 -3.953 -0.492 -3.961 2.238 -3.25 c 2.359 0.617 2.867 0.863 2.867 1.402 c 0 0.227 -0.246 1.48 -0.547 2.781 c -0.5 2.148 -0.516 2.406 -0.16 2.75 c 0.457 0.445 2.023 0.875 3.063 0.84 c 0.957 -0.035 0.988 -0.086 0.559 -0.898 c -0.324 -0.617 -0.305 -0.949 0.172 -3.164 c 0.594 -2.773 0.961 -3.391 1.559 -2.617 c 0.699 0.898 1.32 2.254 1.48 3.215 c 0.137 0.836 0.09 0.977 -0.367 1.09 c -0.527 0.137 -0.746 0.664 -0.277 0.664 c 0.137 0 0.25 0.164 0.25 0.367 c 0 0.227 0.422 0.473 1.121 0.656 c 0.617 0.16 1.121 0.367 1.121 0.457 c 0 0.23 -1.195 0.547 -2.242 0.59 c -0.48 0.02 -1.488 0.227 -2.242 0.461 c -5.344 1.652 -8.199 1.949 -11.664 1.207 m 17.395 -8.734 c 0 -0.27 0.176 -0.699 0.391 -0.957 c 0.371 -0.449 0.383 -0.438 0.23 0.258 c -0.199 0.902 -0.621 1.379 -0.621 0.699 m -28.746 -2.551 c -0.215 -1.055 -0.148 -5.781 0.094 -6.516 c 0.121 -0.363 0.211 0.98 0.223 3.332 c 0.016 2.168 -0.016 3.941 -0.066 3.941 c -0.051 0 -0.164 -0.34 -0.25 -0.758 m 9.934 -6.758 c -0.207 -0.328 0.074 -0.73 0.512 -0.73 c 0.199 0 0.359 0.219 0.359 0.488 c 0 0.5 -0.598 0.668 -0.871 0.242 m 3.641 -11.184 c 0.914 -0.113 2.301 -0.113 3.117 0.004 c 1.27 0.18 1.055 0.207 -1.648 0.207 c -2.848 -0.004 -2.973 -0.02 -1.469 -0.211" fill="#599f14"/><path d="m 21.855 38.754 c 0.242 -0.063 0.633 -0.063 0.871 0 c 0.242 0.063 0.047 0.109 -0.434 0.109 c -0.48 0 -0.676 -0.047 -0.438 -0.109 m 3.457 -0.078 c 1.109 -0.184 2.352 -0.672 2.164 -0.852 c -0.047 -0.047 -2.035 -0.199 -4.414 -0.336 c -3.141 -0.184 -4.484 -0.355 -4.914 -0.629 c -0.766 -0.488 -0.746 -0.688 0.191 -1.824 c 0.734 -0.887 0.793 -1.113 0.961 -3.563 l 0.176 -2.613 l 0.039 2.527 c 0.02 1.477 -0.09 2.867 -0.27 3.348 c -0.402 1.086 -0.086 1.27 2.211 1.273 c 2.09 0.004 2.156 -0.074 1.973 -2.281 c -0.113 -1.328 -0.102 -1.371 0.105 -0.441 c 0.32 1.465 0.426 1.563 1.203 1.172 c 0.699 -0.352 1.789 -1.977 1.789 -2.668 c 0 -0.824 -1.238 -2.797 -1.852 -2.949 c -0.945 -0.23 -1.477 -0.031 -1.664 0.625 l -0.172 0.605 l -0.023 -0.637 c -0.043 -1.125 0.449 -1.254 2.602 -0.695 c 2.348 0.613 2.852 0.863 2.852 1.398 c 0 0.227 -0.246 1.48 -0.547 2.785 c -0.5 2.148 -0.512 2.402 -0.16 2.746 c 0.457 0.449 2.023 0.875 3.063 0.84 c 0.957 -0.035 0.988 -0.082 0.559 -0.898 c -0.324 -0.617 -0.305 -0.949 0.172 -3.164 c 0.598 -2.773 0.961 -3.387 1.563 -2.617 c 1.102 1.422 2.01 4.246 1.363 4.246 c -0.156 0 -0.281 -0.383 -0.281 -0.859 c 0 -1.012 -1.141 -3.34 -1.57 -3.203 c -0.336 0.109 -0.965 3.32 -0.863 4.426 c 0.059 0.637 0.16 0.723 0.816 0.707 c 0.41 -0.012 0.941 -0.105 1.184 -0.207 c 0.313 -0.137 0.434 -0.082 0.434 0.203 c 0 0.258 0.383 0.488 1.121 0.68 c 0.617 0.16 1.121 0.367 1.121 0.457 c 0 0.23 -1.195 0.547 -2.242 0.594 c -0.48 0.02 -1.488 0.227 -2.242 0.457 c -3.168 0.98 -5.668 1.566 -6.602 1.555 l -0.996 -0.016 m -4.703 -0.457 c -1.859 -0.426 -4.152 -1.695 -5.711 -3.16 l -1.543 -1.449 l 1.617 1.133 c 1.5 1.051 5.531 3.082 6.977 3.516 c 0.91 0.273 -0.102 0.242 -1.34 -0.039 m 3.621 -7.01 c 0 -0.332 0.059 -0.469 0.125 -0.301 c 0.07 0.164 0.07 0.438 0 0.605 c -0.066 0.168 -0.125 0.031 -0.125 -0.305 m 14.41 -1.684 c 0 -0.273 0.113 -0.496 0.25 -0.496 c 0.137 0 0.25 0.156 0.25 0.348 c 0 0.191 -0.113 0.418 -0.25 0.5 c -0.137 0.082 -0.25 -0.074 -0.25 -0.352 m -28.723 -2.406 c -0.094 -0.453 -0.16 -1.488 -0.141 -2.305 l 0.031 -1.484 l 0.219 1.938 c 0.234 2.113 0.172 3.16 -0.109 1.852 m 9.914 -6.82 c -0.207 -0.328 0.074 -0.727 0.516 -0.727 c 0.195 0 0.359 0.219 0.359 0.484 c 0 0.5 -0.602 0.668 -0.875 0.242" fill="#4c6137"/><g fill="#fff"><path d="m 20.449 28 c -0.066 -0.883 -0.125 -2.078 -0.129 -2.656 c -0.004 -1.633 -0.125 -1.883 -1.023 -2.129 c -0.918 -0.25 -3.742 -0.109 -5.191 0.258 c -0.793 0.203 -1.01 0.352 -1.262 0.891 l -0.305 0.648 l -0.426 -0.602 c -0.371 -0.52 -0.543 -0.598 -1.289 -0.598 c -0.523 0 -0.813 -0.074 -0.742 -0.191 c 0.066 -0.105 0.59 -0.191 1.16 -0.191 c 0.668 0 1.043 -0.082 1.043 -0.227 c 0 -0.121 0.539 -0.793 1.195 -1.492 c 0.66 -0.699 1.445 -1.598 1.75 -2 c 0.352 -0.469 0.938 -0.898 1.625 -1.203 c 0.59 -0.262 1.18 -0.563 1.313 -0.668 c 0.297 -0.246 0.117 -0.598 -1.098 -2.156 c -2.02 -2.586 -1.742 -2.766 0.488 -0.313 c 1.719 1.887 2.469 2.508 3.03 2.508 c 0.168 0 0.641 -0.301 1.047 -0.672 c 1 -0.902 1.188 -0.848 0.336 0.098 c -0.68 0.75 -0.691 0.793 -0.691 2.379 c 0 0.961 0.082 1.668 0.207 1.746 c 0.117 0.07 0.527 -0.184 0.918 -0.563 c 0.848 -0.828 2.953 -1.641 5.539 -2.137 c 1.668 -0.316 1.848 -0.32 2.777 -0.027 c 1.891 0.598 4.285 2.48 5.25 4.129 c 0.441 0.746 0.512 1.113 0.582 3.02 c 0.059 1.531 0.02 2.168 -0.133 2.168 c -0.117 0 -0.215 -0.121 -0.215 -0.273 c 0 -0.418 -0.547 -0.871 -1.055 -0.871 c -0.551 0 -0.617 -0.102 -1.035 -1.582 c -0.453 -1.609 -0.699 -1.719 -1.969 -0.871 c -0.566 0.375 -1.414 0.875 -1.883 1.113 c -1.043 0.531 -1.129 0.66 -1 1.465 c 0.055 0.352 0.039 0.637 -0.039 0.637 c -0.078 0 -0.941 -0.551 -1.918 -1.227 c -2.406 -1.668 -3.199 -2.047 -4.293 -2.055 c -0.996 -0.008 -2 0.406 -2.191 0.898 c -0.281 0.734 -0.105 1.758 0.457 2.641 c 0.316 0.5 0.563 1.098 0.555 1.328 c -0.02 0.387 -0.043 0.375 -0.23 -0.102 c -0.191 -0.488 -0.516 -0.723 -0.516 -0.371 c 0 0.086 -0.117 0.313 -0.258 0.508 c -0.223 0.305 -0.273 0.148 -0.383 -1.258 m -0.785 -7.01 c 0.332 -0.367 1.234 -1.738 1.234 -1.871 c 0 -0.172 -1.152 -0.664 -1.559 -0.664 c -0.645 0 -2.059 0.75 -2.402 1.277 c -0.418 0.629 -0.094 0.992 0.605 0.672 c 0.395 -0.18 0.484 -0.168 0.484 0.055 c 0 0.301 0.715 0.867 1.094 0.867 c 0.137 0 0.379 -0.152 0.543 -0.336"/><path d="m 35.418 35.07 c -0.215 -0.168 -0.344 -0.66 -0.41 -1.547 c -0.07 -0.926 -0.266 -1.648 -0.684 -2.496 c -0.762 -1.543 -1.371 -2.129 -2.039 -1.961 c -0.613 0.152 -0.902 0.793 -1.555 3.422 c -0.262 1.055 -0.559 2.078 -0.664 2.27 c -0.223 0.422 -1.07 0.461 -1.582 0.074 c -0.391 -0.297 -0.355 -0.992 0.188 -3.625 c 0.242 -1.18 0.238 -1.355 -0.031 -1.652 c -0.727 -0.805 -4.535 -2.082 -5.488 -1.844 c -0.746 0.188 -0.941 1.105 -0.719 3.383 c 0.098 1 0.18 2.313 0.184 2.918 l 0.004 1.102 h -2.73 l 0.121 -0.891 c 0.066 -0.488 0.133 -2.359 0.152 -4.16 c 0.023 -2.609 0.055 -2.957 0.148 -1.703 c 0.066 0.863 0.18 1.629 0.254 1.703 c 0.074 0.074 0.254 -0.152 0.402 -0.504 l 0.27 -0.637 l 0.711 1.313 l 0.063 -0.738 c 0.047 -0.551 -0.07 -0.938 -0.465 -1.527 c -0.699 -1.059 -0.836 -2.387 -0.301 -2.871 c 0.609 -0.551 1.664 -0.711 2.676 -0.406 c 0.48 0.145 1.84 0.922 3.02 1.73 c 1.238 0.844 2.242 1.406 2.371 1.328 c 0.125 -0.078 0.195 -0.445 0.164 -0.832 c -0.059 -0.645 -0.004 -0.723 0.801 -1.152 c 0.473 -0.254 1.313 -0.75 1.863 -1.105 c 0.551 -0.355 1.086 -0.648 1.195 -0.648 c 0.105 0 0.383 0.652 0.617 1.445 c 0.363 1.234 0.492 1.453 0.91 1.539 c 0.844 0.176 1.055 0.383 1.266 1.234 c 0.25 1.023 0.438 0.777 0.625 -0.82 c 0.113 -0.957 0.172 -0.395 0.297 2.824 c 0.082 2.211 0.164 4.234 0.184 4.496 c 0.023 0.43 -0.055 0.484 -0.738 0.535 c -0.422 0.031 -0.906 -0.055 -1.078 -0.191 m -4.281 -5.543 c 0.078 -0.414 0.051 -0.742 -0.07 -0.816 c -0.316 -0.195 -0.602 0.551 -0.59 1.551 c 0.004 0.891 0.016 0.906 0.27 0.441 c 0.145 -0.266 0.32 -0.797 0.391 -1.176 m -3.465 -1.469 c 0.168 -0.27 -0.406 -0.922 -1.102 -1.25 c -0.734 -0.352 -3.375 -0.445 -3.375 -0.121 c 0 0.105 0.02 0.191 0.047 0.195 c 0.027 0 0.91 0.301 1.961 0.668 c 2.031 0.703 2.313 0.762 2.469 0.508 m -5.086 -0.957 c 0.047 -0.309 -0.039 -0.414 -0.324 -0.414 c -0.504 0 -0.691 0.324 -0.395 0.684 c 0.313 0.375 0.641 0.25 0.719 -0.27"/><path d="m 21.473 19.781 v -1.574 l 1 -0.977 c 0.555 -0.535 1.5 -1.391 2.105 -1.895 c 1.48 -1.238 1.406 -1.703 -0.105 -0.656 c -0.297 0.207 -0.582 0.328 -0.633 0.277 c -0.457 -0.457 5.543 -2.988 6.582 -2.777 c 0.609 0.125 -3.168 3.789 -3.906 3.789 c -0.18 0 -0.219 -0.168 -0.141 -0.574 c 0.09 -0.441 0.047 -0.574 -0.18 -0.574 c -0.453 0 -1.449 0.918 -1.852 1.711 c -0.199 0.387 -0.5 0.824 -0.676 0.969 c -0.348 0.285 -1.051 1.578 -1.051 1.926 c 0 0.152 0.281 0.184 0.906 0.102 l 0.91 -0.121 l -0.656 0.297 c -0.359 0.16 -1.027 0.598 -1.484 0.973 l -0.824 0.676 v -1.574"/><path d="m 15.832 14.785 c -0.176 -0.242 -0.598 -0.875 -0.938 -1.398 c -0.414 -0.645 -0.727 -0.938 -0.953 -0.898 c -0.313 0.055 -0.316 0.016 -0.047 -0.504 c 0.309 -0.594 0.648 -0.801 1.316 -0.801 c 0.391 0 0.391 0.012 0.043 0.266 c -0.344 0.25 -0.289 0.348 0.945 1.727 c 1.379 1.539 1.664 2.18 0.391 0.875 c -0.41 -0.418 -0.813 -0.762 -0.898 -0.762 c -0.293 0 -0.148 0.723 0.254 1.23 c 0.223 0.281 0.359 0.559 0.305 0.613 c -0.055 0.055 -0.242 -0.102 -0.418 -0.348"/></g></svg>