<svg xmlns="http://www.w3.org/2000/svg" viewBox="0 0 48 48"><path d="m 10.02 44.543 c 19.17 13.633 47.2 -13.414 35.414 -33.52 c -8.621 -17.191 -34.688 -12.234 -42.06 3.602 c -5.773 9.766 -3.871 24.22 6.641 29.918" fill="#1e8fff"/><path d="m 17.16 36.406 c -1.25 0 -2.254 -1.012 -2.254 -2.262 v -20.684 c 0 -1.25 1 -2.254 2.254 -2.254 h 15.375 c 1.254 0 2.258 1 2.258 2.254 v 13.672 c -0.031 0.039 -0.047 0.086 -0.082 0.121 l -9.152 9.152" fill="#fffced"/><path d="m 34.797 27.13 c -0.074 0.164 -0.18 0.32 -0.32 0.457 l -8.914 8.816 v -7.754 c 0 -0.84 0.68 -1.52 1.531 -1.52" fill="#86cefa"/></svg>