<svg xmlns="http://www.w3.org/2000/svg" viewBox="0 0 48 48"><path d="m 11.594 6.309 c -13.875 15.691 -14.695 30.926 -2.238 36.719 c 17.18 7.988 44.06 8.32 37.41 -17.02 c -6.715 -21.07 -22.941 -33.535 -35.17 -19.703" fill="#191919" fill-opacity="0.682"/><g fill="#bec1c1" fill-opacity="0.922"><path d="m 32.547 34.22 c -1.328 -0.73 -4.371 -1.852 -5.621 -2.383 c -2.102 -0.895 -5.203 -2.398 -5.02 -2.566 c 2.113 0.227 4.301 0.016 6.344 0.133 c 2.434 0.137 2.125 -0.34 1.285 -2.922 c -1.27 -3.539 -1.863 -5.156 -3.172 -8.512 c -2.066 -4.758 -2.828 -6.875 -2.098 -6.43 c 1.07 0.652 6.238 9.547 8.09 13.926 c 0.555 1.313 1.656 3.777 2.449 5.477 c 2.34 5.02 1.949 5.594 -2.254 3.277"/><path d="m 12.629 33.438 c 0.426 -0.746 2.078 -4.051 3.668 -7.348 c 1.586 -3.293 3.77 -7.816 4.848 -10.05 c 2.66 -5.52 3.184 -6.992 2.18 -1.207 c -1.094 6.281 -1.766 8.738 -2.254 12.398 c -0.5 3.793 -0.137 2.563 -3.613 5.05 c -3.359 2.402 -6.625 4.281 -4.828 1.156"/></g></svg>