<svg xmlns="http://www.w3.org/2000/svg" viewBox="0 0 22 22"><path d="m 1.813 17.465 c 4.207 7.609 17.391 4.656 19.621 -1.609 c 2.656 -7.461 -4.262 -21.629 -15.977 -13.328 c -3.945 2.898 -7.852 7.332 -3.645 14.938" fill="#7099c3"/><g fill="#fff"><path d="m 7.375 9.371 v 0.746 h 7.05 v -0.746"/><path d="m 6.984 10.859 v 0.742 h 7.836 v -0.742"/><path d="m 7.375 12.348 v 0.742 h 7.05 v -0.742"/><path d="m 10.512 7.512 v 7.437 h 0.781 v -7.437"/></g><g fill="none" stroke="#fff"><g stroke-width="2" transform="matrix(0.39166 0 0 0.37183 1.502 2.307)"><path d="m 20.441 33 c -1.995 -5.999 -1.995 -11.997 0 -17.996"/><path d="m 27.472 33 c 1.995 -5 1.995 -11.997 0 -17.996"/></g><path d="m 33.06 27.316 c 0 5.03 -4.077 9.105 -9.107 9.105 c -5.03 0 -9.107 -4.074 -9.107 -9.105 c 0 -5.03 4.077 -9.105 9.107 -9.105 c 5.03 0 9.107 4.074 9.107 9.105" transform="matrix(0.4302 0 0 0.40842 0.597 0.074)" stroke-linecap="round" stroke-width="1.821"/></g></svg>