<svg xmlns="http://www.w3.org/2000/svg" viewBox="0 0 22 22"><path d="m 0.281 13.52 c 4.293 20.617 33.844 -1.52 16.09 -11.996 c -6.898 -4.492 -18.305 1.391 -16.09 11.996" fill="#0045aa"/><path d="m 13.23 6.152 l 0.02 0.023 l 0.059 -0.023 m 0.664 0.691 l 4.086 3.809 v -3.809" fill-opacity="0.196"/><path d="m 13.23 2.344 l 4.828 4.5 h -4.086 c -0.363 0 -0.742 -0.355 -0.742 -0.691 v -3.809" fill="#fff" fill-opacity="0.392"/><path d="m 79.35 105.4 h 7.04 c 0.409 0 0.661 0.156 0.835 0.585 l 0.594 1.781 v 6.435 c 0 0.403 -0.207 0.611 -0.622 0.611 h -8.588 c -0.409 0 -0.577 -0.227 -0.577 -0.63 v -6.415 l 0.572 -1.82 c 0.118 -0.331 0.331 -0.546 0.746 -0.546" transform="matrix(0.69681 0 0 0.60098 -48.605 -54.4)" fill="none" stroke="#fff" stroke-width="0.326"/><g fill="#fff"><g fill-rule="evenodd"><path d="m 8.926 9.02 l -0.09 -1.332 l -2.582 1.348 l 0.035 0.059 l 2.426 -1.137 l -0.027 0.926 l -2.957 1.66 l 0.18 -0.035"/><path d="m 10.5 9.637 l -2.461 -0.023 l -0.121 0.309 l 2.559 0.035 c -0.012 -0.461 -0.051 0.082 0.023 -0.32"/><path d="m 9.566 9.04 l 0.082 -1.332 l 2.492 1.344 l -0.031 0.059 l -2.34 -1.137 l 0.027 0.93 l 2.852 1.656 l -0.176 -0.031"/><g fill-opacity="0.4"><path d="m 9.152 10.316 v 0.234 l 3.578 -0.004 l -0.105 -0.23"/><path d="m 9.152 10.316 v 0.234 l -3.102 -0.004 l 0.094 -0.23"/></g></g><g fill-opacity="0.702"><path d="m 5.863 10.395 h 6.629 v 4.09 h -6.629"/><g fill-rule="evenodd"><path d="m 8.828 7.762 l 0.008 1.066 l -3.133 1.77 l 0.621 -1.598"/><path d="m 9.676 7.855 l 0.023 0.984 l 2.918 1.73 l -0.613 -1.57"/></g></g><g stroke="#fff"><path d="m 107.45 208.19 c 0 -15.864 0.091 -16.5 1.864 -16.5 c 1.318 0 1.909 0.636 1.909 1.955 v 1.955 l 2.5 -1.955 c 5.682 -4.455 13.272 -1.273 15.363 6.455 c 3.091 11.364 -8.454 20.819 -16.09 13.182 c -1.727 -1.727 -1.773 -1.682 -1.773 4.818 c 0 5.955 -0.182 6.591 -1.909 6.591 c -1.773 0 -1.864 -0.636 -1.864 -16.5 m 16 3.318 c 6.091 -6.05 1.636 -19 -6 -17.546 c -4.364 0.864 -6.227 3.682 -6.227 9.5 c 0 6.455 2.5 9.909 7.136 9.909 c 1.954 0 3.954 -0.727 5.091 -1.864" transform="scale(0.08594 0.08594)" stroke-width="1.885"/><g transform="matrix(0.06798 0 0 0.06336 0.854 2.983)"><path d="m 91.79 245.15 c -8.103 -3.206 -11.78 -11.467 -9.02 -20.407 c 2.126 -6.843 7.413 -10.974 14.14 -10.974 c 6.666 0 10.516 2.528 12.815 8.446 c 3.161 8.08 2.988 8.2 -10.861 8.2 c -11.838 0 -12.47 0.123 -12.47 2.651 c 0 1.418 1.552 4.316 3.448 6.35 c 3.793 4.069 9.02 4.871 16.493 2.589 c 2.988 -0.925 3.85 -0.801 3.85 0.493 c 0 3.576 -11.723 5.24 -18.389 2.651 m 14.826 -19.729 c 0 -1.295 -1.034 -3.761 -2.241 -5.425 c -1.781 -2.343 -3.39 -2.959 -7.298 -2.836 c -5.287 0.123 -8.677 2.713 -10.06 7.83 c -0.805 2.774 -0.632 2.836 9.424 2.836 c 9.195 0 10.171 -0.247 10.171 -2.404" stroke-width="2.468"/><path d="m 161.55 231.53 c 0 -14.982 0.172 -15.845 2.988 -15.845 c 2.816 0 2.988 0.863 2.988 15.845 c 0 14.982 -0.172 15.845 -2.988 15.845 c -2.816 0 -2.988 -0.863 -2.988 -15.845" stroke-width="2.746"/><path d="m 162.01 205.94 c 0 -2.219 0.805 -3.083 2.988 -3.083 c 2.184 0 2.988 0.863 2.988 3.083 c 0 2.281 -0.805 3.083 -2.988 3.083 c -2.184 0 -2.988 -0.801 -2.988 -3.083" stroke-width="2.711"/></g></g></g></svg>