<svg xmlns="http://www.w3.org/2000/svg" viewBox="0 0 22 22"><path d="m 0.281 13.52 c 4.293 20.617 33.844 -1.52 16.09 -11.996 c -6.898 -4.492 -18.305 1.391 -16.09 11.996" fill="#dcdcdc"/><path d="m 13.23 6.152 l 0.02 0.023 l 0.059 -0.023 m 0.664 0.691 l 4.086 3.809 v -3.809" fill-opacity="0.196"/><path d="m 13.23 2.344 l 4.828 4.5 h -4.086 c -0.363 0 -0.742 -0.355 -0.742 -0.691 v -3.809" fill="#fff" fill-opacity="0.392"/><path d="m 80.55 974.5 c -6 -3.318 -6.05 -3.545 -6.273 -45.32 c -0.091 -21.455 -0.136 -39.591 -0.091 -40.32 c 0.091 -0.818 6.091 -1.545 16.682 -2 c 15.591 -0.727 17.05 -0.591 25.773 2.227 c 5.136 1.636 11.955 4.727 15.227 6.864 c 11.05 7.227 23.14 20.18 26.27 28.09 c 4.909 11.682 8.273 30.09 6.955 38.5 l 0.364 12.955 l -42.5 0.5 c -29.545 0.318 -40.41 -0.455 -42.41 -1.545 m 22.273 -10.909 c 4.636 -3.182 5.818 -5.273 5.864 -10.5 c 0.045 -3.955 -0.591 -5.364 -3.5 -7.773 c -4.818 -4 -7.591 -4.682 -12.5 -3.091 c -7 2.273 -10 11.773 -5.682 18.227 c 3.455 5.182 10.682 6.591 15.818 3.136 m 51.45 0.136 c 1.5 -3.864 0.545 -18.955 -1.682 -27.27 c -6.909 -25.591 -34.23 -43.545 -61.36 -40.32 l -6.227 0.773 v 18.545 c 0 16.955 0.682 21 2.955 17.409 c 1.136 -1.773 14.5 -1.409 18.14 0.455 c 8.636 4.455 14.364 15.909 12.09 24.23 c -0.727 2.591 -1.591 5.409 -1.955 6.364 c -0.545 1.409 2.318 1.636 18.318 1.636 c 16.227 0 19.09 -0.227 19.727 -1.818" transform="matrix(0.08594 0 0 0.08594 0 -68.44)" fill="#878787" stroke="#dcdcdc" stroke-width="0.376"/></svg>