<svg xmlns="http://www.w3.org/2000/svg" viewBox="0 0 22 22"><path d="m 0.281 13.52 c 4.293 20.617 33.844 -1.52 16.09 -11.996 c -6.898 -4.492 -18.305 1.391 -16.09 11.996" fill="#fc0"/><path d="m 13.512 5.941 l 0.023 0.02 l 0.059 -0.02 m 0.66 0.691 l 4.086 3.809 v -3.809" fill-opacity="0.196"/><path d="m 13.652 2.063 l 4.832 4.5 h -4.09 c -0.359 0 -0.742 -0.355 -0.742 -0.691 v -3.809" fill="#fff" fill-opacity="0.392"/><g fill="#694500"><path d="m 5.824 13.738 c -0.383 -0.102 -0.742 -0.535 -0.742 -0.895 c 0 -0.219 0.184 -0.293 0.32 -0.133 c 0.059 0.066 0.191 0.227 0.301 0.352 c 0.262 0.313 0.547 0.359 0.867 0.145 c 0.223 -0.148 0.25 -0.207 0.293 -0.59 c 0.023 -0.23 0.047 -0.965 0.051 -1.633 l 0.008 -1.215 l 0.188 -0.047 c 0.102 -0.023 0.203 -0.027 0.23 0 c 0.023 0.023 0.043 0.75 0.043 1.613 c 0 1.426 -0.012 1.594 -0.141 1.852 c -0.078 0.152 -0.238 0.332 -0.355 0.398 c -0.227 0.129 -0.828 0.215 -1.063 0.152"/><path d="m 8.977 13.715 c -0.461 -0.195 -0.852 -0.648 -0.852 -0.984 c 0 -0.266 0.313 -0.184 0.527 0.145 c 0.289 0.438 0.785 0.594 1.305 0.41 c 0.258 -0.09 0.363 -0.246 0.363 -0.543 c 0 -0.313 -0.223 -0.535 -0.758 -0.758 c -0.961 -0.398 -1.336 -0.758 -1.324 -1.266 c 0.023 -0.996 1.496 -1.414 2.238 -0.633 c 0.176 0.188 0.34 0.508 0.34 0.668 c 0 0.039 -0.09 0.063 -0.195 0.051 c -0.129 -0.016 -0.227 -0.09 -0.289 -0.223 c -0.32 -0.672 -1.566 -0.617 -1.586 0.07 c -0.008 0.359 0.168 0.543 0.77 0.801 c 1.01 0.434 1.297 0.715 1.301 1.262 c 0 0.625 -0.414 0.992 -1.18 1.043 c -0.266 0.02 -0.563 0 -0.66 -0.043"/><path d="m 11.523 13.66 c 0 -0.031 0.238 -0.477 0.531 -0.984 c 0.293 -0.512 0.531 -0.961 0.531 -1 c 0 -0.039 -0.227 -0.461 -0.5 -0.934 c -0.473 -0.809 -0.551 -1.059 -0.332 -1.059 c 0.164 0 0.301 0.152 0.715 0.793 c 0.219 0.344 0.43 0.621 0.469 0.621 c 0.039 0 0.266 -0.301 0.5 -0.664 c 0.41 -0.641 0.59 -0.797 0.777 -0.68 c 0.066 0.043 -0.043 0.301 -0.422 0.988 c -0.281 0.512 -0.496 0.969 -0.477 1.016 c 0.016 0.047 0.258 0.48 0.531 0.969 c 0.293 0.512 0.477 0.91 0.438 0.945 c -0.164 0.168 -0.414 -0.039 -0.844 -0.695 c -0.238 -0.371 -0.461 -0.676 -0.496 -0.676 c -0.082 0 -0.234 0.195 -0.566 0.746 c -0.168 0.27 -0.355 0.535 -0.418 0.582 c -0.125 0.102 -0.438 0.121 -0.438 0.031"/></g></svg>