<svg xmlns="http://www.w3.org/2000/svg" viewBox="0 0 22 22"><path d="m 0.281 13.52 c 4.293 20.617 33.844 -1.52 16.09 -11.996 c -6.898 -4.492 -18.305 1.391 -16.09 11.996" fill="#f36128"/><path d="m 13.23 6.152 l 0.02 0.023 l 0.059 -0.023 m 0.664 0.691 l 4.086 3.809 v -3.809" fill-opacity="0.196"/><g fill="#fff"><path d="m 13.23 2.344 l 4.828 4.5 h -4.086 c -0.363 0 -0.742 -0.355 -0.742 -0.691 v -3.809" fill-opacity="0.392"/><path d="m 7.199 16.887 c -0.578 -0.363 -1.086 -0.922 -1.359 -1.488 c -0.402 -1.262 -0.316 -2.449 0.418 -3.379 c 0.648 -0.809 1.793 -1.285 2.836 -1.184 c 0.391 0.043 0.684 0.125 1.016 0.289 c 0.617 0.309 1.066 0.809 1.277 1.422 c 0.113 0.492 0.152 0.867 0.027 1.367 c -0.207 0.828 -0.723 1.305 -1.629 1.5 c -1.078 0.23 -2.07 -0.457 -2 -1.387 c 0.035 -0.465 0.344 -0.785 0.809 -0.84 c 0.16 -0.031 0.137 -0.016 0.066 0.117 c -0.172 0.34 -0.078 0.664 0.254 0.848 c 0.242 0.105 0.504 0.109 0.723 0.008 c 0.469 -0.277 0.695 -0.777 0.563 -1.223 c -0.18 -0.586 -0.797 -0.91 -1.566 -0.824 c -0.91 0.098 -1.551 0.625 -1.789 1.469 c -0.078 0.27 -0.086 0.824 -0.016 1.063 c 0.156 0.531 0.473 0.945 0.957 1.266 c 0.863 0.426 1.57 0.574 2.441 0.398 c 1.211 -0.254 2.023 -1.109 2.227 -2.34 c 0.086 -0.527 0.074 -1 -0.039 -1.441 c -0.297 -1.176 -1.211 -2.109 -2.41 -2.453 c -0.82 -0.195 -1.613 -0.18 -2.336 0 c -0.77 0.25 -1.391 0.586 -1.93 1.082 c 0 -0.418 0 -0.836 0 -1.254 c 1.031 -0.672 2.332 -1.051 3.344 -1.063 c 0.855 0 1.582 0.16 2.289 0.508 c 1.492 0.73 2.387 2.203 2.383 3.926 c 0 0.578 -0.066 1.023 -0.234 1.52 c -0.285 0.855 -0.891 1.605 -1.68 2.078 c -1.457 0.703 -3.063 0.84 -4.641 0.016"/></g></svg>