<svg xmlns="http://www.w3.org/2000/svg" viewBox="0 0 24 24"><path d="m 0.305 14.746 c 4.688 22.492 36.926 -1.652 17.559 -13.09 c -7.523 -4.898 -19.969 1.52 -17.559 13.09" fill="#5ab9de"/><path d="m 14.43 6.711 l 0.027 0.023 l 0.063 -0.023 m 0.723 0.758 l 4.457 4.152 v -4.152" fill-opacity="0.196"/><g fill="#fff"><path d="m 14.43 2.559 l 5.27 4.91 h -4.457 c -0.395 0 -0.813 -0.391 -0.813 -0.758 v -4.152" fill-opacity="0.392"/><path d="m 12.715 11.617 c 0 -0.102 -0.004 -0.199 -0.008 -0.293 c -0.086 -1.273 -1.676 -2.813 -3.48 -2.813 c -1.496 0 -3.383 1.438 -3.367 3.652 c 0.016 2.148 0.73 3.305 1.27 4.621 l 1.59 -0.672 c -0.367 -0.754 -0.84 -1.508 -1.01 -1.883 c -0.477 -1.047 -0.648 -1.516 -0.609 -2.316 c 0.039 -0.773 0.301 -1.242 0.766 -1.699 c 0.469 -0.453 1.105 -0.684 1.875 -0.578 c 1.242 0.172 1.84 0.938 2.074 1.559 c -0.105 -0.02 -0.215 -0.031 -0.324 -0.031 c -1.426 -0.008 -2.07 0.762 -2.313 1.617 c -0.129 -0.203 -0.207 -0.457 -0.227 -0.754 c -0.043 -0.609 0.539 -1.215 1.48 -0.906 c 0.152 0.047 0.156 -0.227 -0.016 -0.367 c -0.441 -0.355 -2.191 -0.219 -2.184 1.188 c 0.004 0.746 0.344 1.352 0.824 1.734 c 0 0.102 0 0.199 0.008 0.297 c 0.082 1.273 1.672 2.809 3.48 2.809 c 1.492 0 3.383 -1.434 3.367 -3.652 c -0.02 -2.145 -0.73 -3.305 -1.27 -4.617 l -1.59 0.668 c 0.363 0.758 0.836 1.512 1.01 1.887 c 0.473 1.047 0.648 1.516 0.605 2.313 c -0.035 0.773 -0.297 1.242 -0.766 1.699 c -0.465 0.453 -1.102 0.688 -1.871 0.578 c -1.246 -0.172 -1.844 -0.938 -2.078 -1.559 c 0.109 0.02 0.219 0.031 0.328 0.031 c 1.422 0.008 2.066 -0.762 2.309 -1.617 c 0.133 0.207 0.207 0.461 0.23 0.758 c 0.043 0.605 -0.539 1.215 -1.484 0.906 c -0.148 -0.051 -0.156 0.223 0.016 0.363 c 0.441 0.359 2.191 0.223 2.188 -1.188 c -0.004 -0.746 -0.348 -1.352 -0.824 -1.734 m -2.859 1.676 c 0.152 0.047 0.32 0.078 0.512 0.09 c 1.051 0.047 1.465 -0.809 1.555 -1.379 c -0.152 -0.047 -0.324 -0.078 -0.512 -0.09 c -1.051 -0.047 -1.469 0.809 -1.555 1.379"/></g></svg>