<svg xmlns="http://www.w3.org/2000/svg" viewBox="0 0 24 24"><path d="m 0.305 14.746 c 4.688 22.492 36.926 -1.652 17.559 -13.09 c -7.523 -4.902 -19.969 1.52 -17.559 13.09" fill="#6b4c40"/><path d="m 14.43 6.715 l 0.027 0.023 l 0.063 -0.023 m 0.723 0.75 l 4.457 4.16 v -4.16" fill-opacity="0.196"/><path d="m 14.43 2.555 l 5.27 4.91 h -4.457 c -0.395 0 -0.813 -0.387 -0.813 -0.75 v -4.16" fill="#fff" fill-opacity="0.392"/><path d="m 12.813 8.398 h -5.703 c -0.262 0 -0.477 0.195 -0.477 0.438 v 8.82 c 0 0.242 0.215 0.445 0.477 0.445 h 7.605 c 0.262 0 0.473 -0.203 0.473 -0.445 v -7.05" fill="#8d6e62"/><g fill="#f4f4f4" stroke="#fff" stroke-width="0.565" transform="matrix(0.64582 0 0 0.68677 5.739 7.817)"><path d="m 3.144 6.409 h 0.665 c 0.085 0 0.157 0.074 0.157 0.165 v 0.66 c 0 0.097 -0.073 0.171 -0.157 0.171 h -0.665 c -0.091 0 -0.163 -0.074 -0.163 -0.171 v -0.66 c 0 -0.091 0.073 -0.165 0.163 -0.165"/><path d="m 3.144 4.424 h 0.665 c 0.085 0 0.157 0.08 0.157 0.165 v 0.66 c 0 0.097 -0.073 0.171 -0.157 0.171 h -0.665 c -0.091 0 -0.163 -0.074 -0.163 -0.171 v -0.66 c 0 -0.085 0.073 -0.165 0.163 -0.165"/><path d="m 3.144 8.394 h 0.665 c 0.085 0 0.157 0.074 0.157 0.165 v 0.66 c 0 0.097 -0.073 0.165 -0.157 0.165 h -0.665 c -0.091 0 -0.163 -0.068 -0.163 -0.165 v -0.66 c 0 -0.091 0.073 -0.165 0.163 -0.165"/><path d="m 3.144 12.364 h 0.665 c 0.085 0 0.157 0.074 0.157 0.159 v 0.665 c 0 0.091 -0.073 0.165 -0.157 0.165 h -0.665 c -0.091 0 -0.163 -0.074 -0.163 -0.165 v -0.665 c 0 -0.085 0.073 -0.159 0.163 -0.159"/><path d="m 3.144 10.379 h 0.665 c 0.085 0 0.157 0.074 0.157 0.165 v 0.66 c 0 0.091 -0.073 0.171 -0.157 0.171 h -0.665 c -0.091 0 -0.163 -0.08 -0.163 -0.171 v -0.66 c 0 -0.091 0.073 -0.165 0.163 -0.165"/><path d="m 12.07 6.409 h 0.665 c 0.091 0 0.163 0.074 0.163 0.165 v 0.66 c 0 0.097 -0.073 0.171 -0.163 0.171 h -0.665 c -0.091 0 -0.163 -0.074 -0.163 -0.171 v -0.66 c 0 -0.091 0.073 -0.165 0.163 -0.165"/><path d="m 12.07 4.424 h 0.665 c 0.091 0 0.163 0.08 0.163 0.165 v 0.66 c 0 0.097 -0.073 0.171 -0.163 0.171 h -0.665 c -0.091 0 -0.163 -0.074 -0.163 -0.171 v -0.66 c 0 -0.085 0.073 -0.165 0.163 -0.165"/><path d="m 12.07 8.394 h 0.665 c 0.091 0 0.163 0.074 0.163 0.165 v 0.66 c 0 0.097 -0.073 0.165 -0.163 0.165 h -0.665 c -0.091 0 -0.163 -0.068 -0.163 -0.165 v -0.66 c 0 -0.091 0.073 -0.165 0.163 -0.165"/><path d="m 12.07 12.364 h 0.665 c 0.091 0 0.163 0.074 0.163 0.159 v 0.665 c 0 0.091 -0.073 0.165 -0.163 0.165 h -0.665 c -0.091 0 -0.163 -0.074 -0.163 -0.165 v -0.665 c 0 -0.085 0.073 -0.159 0.163 -0.159"/><path d="m 12.07 10.379 h 0.665 c 0.091 0 0.163 0.074 0.163 0.165 v 0.66 c 0 0.091 -0.073 0.171 -0.163 0.171 h -0.665 c -0.091 0 -0.163 -0.08 -0.163 -0.171 v -0.66 c 0 -0.091 0.073 -0.165 0.163 -0.165"/></g></svg>