<svg xmlns="http://www.w3.org/2000/svg" viewBox="0 0 24 24"><path d="m 0.406 14.742 c 4.645 22.25 36.605 -1.637 17.406 -12.945 c -7.457 -4.848 -19.797 1.504 -17.406 12.945" fill="#2e8b56"/><path d="m 14.945 5.836 l 0.027 0.023 l 0.063 -0.023 m 0.723 0.754 l 4.457 4.156 v -4.156" fill-opacity="0.196"/><g fill="#fff"><path d="m 14.945 1.68 l 5.27 4.91 h -4.457 c -0.395 0 -0.813 -0.387 -0.813 -0.754 v -4.156" fill-opacity="0.392"/><path d="m 4.047 12.574 v -1.52 h 1.805 v 0.566 h -1.188 v 0.621 h 1.137 v 0.566 h -1.137 v 1.289 h -0.617"/><path d="m 5.926 14.02 c 0 -0.023 0.219 -0.699 0.48 -1.512 l 0.477 -1.469 l 0.398 -0.016 c 0.219 -0.008 0.398 0.004 0.398 0.027 c 0 0.023 0.219 0.707 0.484 1.523 l 0.484 1.484 h -0.645 l -0.078 -0.273 l -0.074 -0.27 l -0.566 -0.016 l -0.566 -0.012 l -0.18 0.57 h -0.309 c -0.168 0 -0.305 -0.02 -0.305 -0.039 m 1.723 -1.16 c -0.02 -0.066 -0.102 -0.336 -0.184 -0.602 c -0.141 -0.473 -0.18 -0.563 -0.215 -0.52 c -0.027 0.039 -0.344 1.121 -0.344 1.18 c 0 0.035 0.141 0.055 0.391 0.055 c 0.379 0 0.387 0 0.352 -0.113"/><path d="m 9.01 14.11 c 0 -0.02 0.199 -0.363 0.438 -0.773 l 0.441 -0.738 l -0.395 -0.664 c -0.215 -0.363 -0.414 -0.703 -0.441 -0.754 c -0.043 -0.082 -0.016 -0.09 0.277 -0.09 l 0.324 0.004 l 0.301 0.512 c 0.168 0.285 0.309 0.516 0.316 0.516 c 0.008 0 0.148 -0.23 0.313 -0.516 l 0.301 -0.516 h 0.332 c 0.18 0 0.316 0.02 0.305 0.039 c -0.012 0.02 -0.211 0.359 -0.445 0.75 l -0.426 0.711 l 0.445 0.75 c 0.242 0.414 0.441 0.762 0.441 0.773 c 0 0.016 -0.145 0.02 -0.32 0.012 l -0.316 -0.016 l -0.293 -0.484 c -0.16 -0.266 -0.313 -0.484 -0.34 -0.484 c -0.023 0 -0.176 0.215 -0.332 0.484 l -0.285 0.484 l -0.32 0.016 c -0.176 0.008 -0.32 0 -0.32 -0.016"/><path d="m 14.465 14.02 c -0.488 -0.246 -0.746 -0.727 -0.754 -1.391 c -0.004 -0.734 0.238 -1.188 0.781 -1.453 c 0.246 -0.121 0.359 -0.145 0.684 -0.145 c 0.23 0 0.496 0.039 0.656 0.094 l 0.27 0.094 v 0.277 c 0 0.156 -0.008 0.281 -0.016 0.281 c -0.012 0 -0.129 -0.047 -0.262 -0.105 c -0.293 -0.133 -0.777 -0.145 -1 -0.031 c -0.359 0.188 -0.535 0.688 -0.434 1.234 c 0.098 0.523 0.367 0.758 0.871 0.758 c 0.355 0 0.387 -0.035 0.367 -0.391 l -0.016 -0.305 l -0.438 -0.031 v -0.461 h 1.031 v 1.453 l -0.246 0.109 c -0.18 0.082 -0.379 0.113 -0.734 0.129 c -0.449 0.02 -0.512 0.008 -0.762 -0.117"/><path d="m 17.352 14.08 c -0.094 -0.031 -0.262 -0.145 -0.375 -0.254 l -0.203 -0.191 l 0.211 -0.234 c 0.195 -0.215 0.219 -0.227 0.301 -0.152 c 0.262 0.25 0.723 0.297 0.832 0.086 c 0.156 -0.309 -0.023 -0.539 -0.422 -0.539 c -0.238 0 -0.246 -0.008 -0.301 -0.203 c -0.051 -0.199 -0.047 -0.207 0.23 -0.504 c 0.156 -0.164 0.285 -0.316 0.285 -0.34 c 0 -0.02 -0.223 -0.039 -0.492 -0.039 h -0.488 v -0.648 h 1.855 v 0.258 c 0 0.246 -0.016 0.277 -0.309 0.582 c -0.172 0.176 -0.309 0.336 -0.309 0.355 c 0 0.02 0.066 0.066 0.148 0.102 c 0.488 0.215 0.645 0.926 0.309 1.422 c -0.223 0.328 -0.789 0.461 -1.273 0.301"/><path d="m 11.543 14.578 c 0.539 -1.348 0.996 -2.418 1.598 -3.859 c 0.285 0.004 0.504 -0.012 0.578 0.023 c 0 0.023 -0.355 0.891 -0.789 1.926 l -0.789 1.883 c -0.137 0.027 -0.508 0.012 -0.598 0.027"/></g></svg>