<svg xmlns="http://www.w3.org/2000/svg" viewBox="0 0 24 24"><path d="m 0.305 14.785 c 4.688 22.402 36.926 -1.648 17.559 -13.04 c -7.523 -4.883 -19.969 1.512 -17.559 13.04" fill="#953831"/><path d="m 14.43 6.711 l 0.027 0.023 l 0.063 -0.023 m 0.723 0.758 l 4.457 4.152 v -4.152" fill-opacity="0.196"/><g fill="#fff"><path d="m 14.43 2.559 l 5.27 4.91 h -4.457 c -0.395 0 -0.813 -0.391 -0.813 -0.758 v -4.152" fill-opacity="0.392"/><path d="m 11.457 8.605 c -1.594 0.277 -3.188 0.645 -4.777 0.918 c 0 2.363 -0.004 4.73 0 7.098 c 1.582 0.273 3.168 0.633 4.75 0.914 h 0.473 v -8.93 m 1.43 1.234 c -0.367 0.008 -0.738 0.035 -1.102 0.086 v 1.32 c 1.023 0.148 2.09 0.117 3.074 -0.207 c 0.211 -0.09 0.477 -0.199 0.52 -0.449 c -0.059 -0.301 -0.406 -0.414 -0.668 -0.512 c -0.59 -0.176 -1.207 -0.242 -1.824 -0.234 m 2.492 1.262 c -0.391 0.305 -0.887 0.402 -1.367 0.473 c -0.738 0.094 -1.492 0.098 -2.23 0.004 v 1.379 c 0.926 0.117 1.871 0.109 2.781 -0.098 c 0.277 -0.078 0.586 -0.16 0.781 -0.387 c 0.07 -0.453 0.012 -0.914 0.035 -1.371 m -6.273 0.309 c 0.367 1.191 0.711 2.387 1.074 3.578 c -0.254 -0.016 -0.504 -0.031 -0.754 -0.055 c -0.066 -0.266 -0.137 -0.531 -0.211 -0.797 c -0.332 0 -0.668 -0.012 -1 -0.027 c -0.063 0.254 -0.129 0.504 -0.195 0.754 c -0.215 -0.016 -0.426 -0.031 -0.637 -0.043 c 0.316 -1.121 0.648 -2.238 0.965 -3.355 c 0.254 -0.02 0.504 -0.035 0.758 -0.055 m -0.406 0.637 c -0.074 0.508 -0.238 0.992 -0.348 1.488 c 0.238 0.004 0.48 0.004 0.719 0.008 c -0.121 -0.5 -0.273 -0.992 -0.371 -1.492 m 6.68 0.75 c -0.387 0.305 -0.883 0.406 -1.359 0.473 c -0.742 0.098 -1.496 0.098 -2.238 0.008 v 1.379 c 0.926 0.113 1.879 0.109 2.789 -0.102 c 0.277 -0.078 0.586 -0.16 0.777 -0.387 c 0.063 -0.453 0.008 -0.914 0.031 -1.371 m 0 1.703 c -0.391 0.301 -0.887 0.402 -1.367 0.473 c -0.738 0.098 -1.488 0.098 -2.23 0.004 c 0 0.461 0.004 0.914 -0.004 1.375 c 0.777 0.109 1.57 0.105 2.348 -0.008 c 0.422 -0.086 0.91 -0.145 1.219 -0.473 c 0.07 -0.453 0.008 -0.918 0.031 -1.375"/></g></svg>