<svg xmlns="http://www.w3.org/2000/svg" viewBox="0 0 24 24"><path d="m 0.305 14.746 c 4.688 22.492 36.926 -1.652 17.559 -13.09 c -7.523 -4.898 -19.969 1.52 -17.559 13.09" fill="#dcdcdc"/><path d="m 14.43 6.711 l 0.027 0.023 l 0.063 -0.023 m 0.723 0.758 l 4.457 4.152 v -4.152" fill-opacity="0.196"/><path d="m 14.43 2.559 l 5.27 4.91 h -4.457 c -0.395 0 -0.813 -0.391 -0.813 -0.758 v -4.152" fill="#fff" fill-opacity="0.392"/><g fill="#878787"><path d="m 9.742 9.867 c -0.117 0 -0.336 0.027 -0.484 0.063 c -0.52 0.117 -0.535 0.109 -0.902 -0.461 c -0.121 -0.18 -0.23 -0.34 -0.25 -0.352 c -0.059 -0.031 -0.727 0.363 -0.727 0.43 c 0 0.039 0.094 0.238 0.211 0.449 c 0.246 0.457 0.242 0.52 -0.066 0.766 c -0.121 0.098 -0.285 0.262 -0.363 0.367 c -0.09 0.117 -0.184 0.191 -0.238 0.191 c -0.047 0 -0.301 -0.102 -0.559 -0.223 c -0.414 -0.195 -0.484 -0.215 -0.539 -0.16 c -0.094 0.09 -0.387 0.563 -0.387 0.621 c 0 0.031 0.18 0.16 0.402 0.293 c 0.219 0.133 0.426 0.266 0.453 0.297 c 0.039 0.047 0.016 0.203 -0.09 0.648 c -0.074 0.324 -0.148 0.605 -0.16 0.625 c -0.012 0.02 -0.297 0.035 -0.633 0.035 h -0.605 v 0.855 h 0.441 c 0.242 0 0.516 0.023 0.609 0.047 c 0.191 0.051 0.305 0.211 0.305 0.434 c 0 0.078 0.039 0.273 0.09 0.434 c 0.063 0.211 0.074 0.316 0.043 0.383 c -0.027 0.051 -0.23 0.207 -0.453 0.344 c -0.223 0.141 -0.402 0.262 -0.402 0.27 c 0 0.047 0.27 0.52 0.348 0.609 l 0.086 0.102 l 0.461 -0.219 c 0.254 -0.121 0.492 -0.219 0.531 -0.219 c 0.09 0 0.629 0.484 0.824 0.738 c 0.156 0.211 0.172 0.156 -0.164 0.691 c -0.105 0.164 -0.188 0.32 -0.188 0.348 c 0 0.063 0.59 0.359 0.711 0.359 c 0.102 0 0.18 -0.074 0.344 -0.348 c 0.176 -0.297 0.34 -0.465 0.449 -0.465 c 0.055 0 0.293 0.043 0.535 0.094 c 0.238 0.051 0.465 0.078 0.508 0.066 c 0.063 -0.023 0.074 -0.098 0.074 -0.453 v -0.426 l -0.168 -0.055 c -0.953 -0.289 -1.812 -0.973 -2.23 -1.77 c -0.254 -0.48 -0.328 -0.859 -0.301 -1.52 c 0.031 -0.863 0.277 -1.414 0.906 -2.043 c 0.371 -0.367 0.75 -0.613 1.352 -0.867 l 0.441 -0.184 v -0.797"/><path d="m 11.82 9.867 c 0.117 0 0.336 0.027 0.484 0.063 c 0.52 0.117 0.535 0.109 0.902 -0.461 c 0.121 -0.18 0.23 -0.34 0.25 -0.352 c 0.059 -0.031 0.727 0.363 0.727 0.43 c 0 0.039 -0.094 0.238 -0.211 0.449 c -0.246 0.457 -0.242 0.52 0.066 0.766 c 0.121 0.098 0.285 0.262 0.367 0.367 c 0.086 0.117 0.18 0.191 0.234 0.191 c 0.047 0 0.301 -0.102 0.563 -0.223 c 0.41 -0.195 0.48 -0.215 0.535 -0.16 c 0.094 0.09 0.387 0.563 0.387 0.621 c 0 0.031 -0.18 0.16 -0.402 0.293 c -0.219 0.133 -0.426 0.266 -0.453 0.297 c -0.039 0.047 -0.016 0.203 0.09 0.648 c 0.074 0.324 0.148 0.605 0.16 0.625 c 0.012 0.02 0.297 0.035 0.633 0.035 h 0.605 v 0.855 h -0.441 c -0.242 0 -0.516 0.023 -0.609 0.047 c -0.191 0.051 -0.305 0.211 -0.305 0.434 c 0 0.078 -0.039 0.273 -0.09 0.434 c -0.063 0.211 -0.074 0.316 -0.039 0.383 c 0.023 0.051 0.227 0.207 0.449 0.344 c 0.223 0.141 0.402 0.262 0.402 0.27 c 0 0.047 -0.27 0.52 -0.348 0.609 l -0.086 0.102 l -0.461 -0.219 c -0.254 -0.121 -0.492 -0.219 -0.531 -0.219 c -0.09 0 -0.629 0.484 -0.824 0.738 c -0.156 0.211 -0.172 0.156 0.164 0.691 c 0.105 0.164 0.188 0.32 0.188 0.348 c 0 0.063 -0.59 0.359 -0.711 0.359 c -0.102 0 -0.18 -0.074 -0.344 -0.348 c -0.176 -0.297 -0.34 -0.465 -0.449 -0.465 c -0.055 0 -0.293 0.043 -0.531 0.094 c -0.242 0.051 -0.469 0.078 -0.512 0.066 c -0.063 -0.023 -0.074 -0.098 -0.074 -0.453 v -0.426 l 0.168 -0.055 c 0.953 -0.289 1.813 -0.973 2.23 -1.77 c 0.254 -0.48 0.328 -0.859 0.301 -1.52 c -0.031 -0.863 -0.277 -1.414 -0.906 -2.043 c -0.371 -0.367 -0.75 -0.613 -1.352 -0.867 l -0.441 -0.184 v -0.797"/></g></svg>