<svg xmlns="http://www.w3.org/2000/svg" viewBox="0 0 22 22"><g fill="#ff0"><path d="m 11.277 8.758 c 0 0.031 0 0.066 0 0.102 l 0.234 -0.102"/><path d="m 16.496 5.262 c 0 0 0 0.004 0 0.004 l 0.563 -0.004"/></g><g fill="#fff"><path d="m 8.188 5.262 l -2.641 3.141 h 5.277 v -3.141 m 1.055 0 v 3.141 h 5.277 l -2.637 -3.141 m -8.973 4.187 v 7.332 h 7.742 l -1.848 -1.832 h 2.852 v -2.355 h 2.863 v -3.145"/><path d="m 16.363 18.352 l 2.375 -2.355 h -1.355 v -2.355 h -2.035 v 2.355 h -1.355"/></g><path d="m 4.691 19.902 c 16.539 10.996 26.727 -24.07 5.344 -19.426 c -8.836 1.977 -14.199 14.383 -5.344 19.426" fill="#b0c3de"/><g fill="#fff"><path d="m 7.641 4.871 l -2.633 3.168 h 5.262 v -3.168 m 1.051 0 v 3.168 h 5.262 l -2.633 -3.168 m -8.941 4.223 v 7.391 h 6.664 l 0.32 -1.082 l -0.176 -0.07 l 0.395 -0.992 c 0.047 -0.113 0.129 -0.203 0.188 -0.313 l 0.074 -0.254 l 0.059 0.031 c 0.68 -1.105 1.883 -1.805 3.211 -1.805 c 0.285 0 0.566 0.031 0.84 0.09 v -2.996"/><path d="m 15.742 13.05 c 1.102 0 2.09 0.625 2.527 1.59 l 0.582 -0.227 l -0.477 1.664 l -1.586 -0.883 l 0.613 -0.242 c -0.297 -0.629 -0.934 -1.02 -1.66 -1.02 c -0.75 0 -1.43 0.453 -1.703 1.125 l -0.852 -0.328 c 0.406 -1.012 1.426 -1.68 2.555 -1.68 m -2.629 2.266 l 1.586 0.852 l -0.613 0.242 c 0.293 0.625 0.938 1.035 1.66 1.035 c 0.75 0 1.422 -0.438 1.703 -1.109 l 0.852 0.328 c -0.422 1.01 -1.426 1.664 -2.555 1.664 c -1.098 0 -2.102 -0.641 -2.527 -1.605 l -0.582 0.211"/></g></svg>