<svg xmlns="http://www.w3.org/2000/svg" viewBox="0 0 22 22"><path d="m 0.246 10.168 c -1.25 13.07 19.824 16.586 21.461 3.168 c 2.027 -12.34 -17.07 -18.695 -20.895 -6.434 c -0.418 1.035 -0.41 2.168 -0.566 3.266" fill="#514390"/><path d="m 7.246 7.01 l -1.613 7.816 h 1.613 l 0.324 -2.344 h 1.211 l 0.48 2.344 h 1.613 l -2.02 -7.816 m 5.648 1.562 c -1.613 0 -2.824 0.391 -2.824 0.391 v 5.863 h 1.211 v -5.082 h 1.207 c 0 0 0.809 0 0.809 0.781 v 4.301 h 1.211 v -4.691 c 0 0 0 -1.563 -1.613 -1.563 m -6.453 0.391 l 0.48 2.348 h -0.805" fill-opacity="0.2"/><g fill="#ab9cfd"><path d="m 7.246 6.617 l -1.613 7.816 h 1.613 l 0.324 -2.344 h 1.211 l 0.48 2.344 h 1.613 l -2.02 -7.816 m -0.805 1.953 l 0.48 2.348 h -0.805"/><path d="m 16.12 14.434 v -4.691 c 0 0 0 -1.563 -1.613 -1.563 c -1.613 0 -2.824 0.391 -2.824 0.391 v 5.863 h 1.211 v -5.082 h 1.207 c 0 0 0.809 0 0.809 0.781 v 4.301"/></g></svg>