<svg xmlns="http://www.w3.org/2000/svg" viewBox="0 0 22 22"><path d="m 19.594 17.16 c 12.363 -17.648 -27.375 -25.422 -18.207 -3.504 c 2.93 7.211 14.203 12.703 18.207 3.504" fill="#d2d2d2"/><g stroke-width="3.905"><path d="m 88.39 120.53 c -16.679 -8.293 -30.49 -15.555 -30.692 -16.07 c -0.969 -2.875 7.794 -8.588 32.711 -21.305 c 24.554 -12.532 27.34 -13.712 31.5 -13.269 c 3.069 0.369 12.963 4.939 30.01 13.859 c 24.513 12.864 31.419 17.287 31.419 20.236 c 0 0.737 -5.977 4.276 -13.286 7.888 c -7.31 3.575 -20.879 10.394 -30.13 15.186 c -9.248 4.792 -17.769 8.662 -18.981 8.625 c -1.171 0 -15.831 -6.819 -32.55 -15.15 m 49.552 -1.622 c 6.744 -3.465 15.629 -7.925 19.667 -9.915 c 6.542 -3.17 7.31 -3.87 6.663 -6.01 c -0.363 -1.327 -1.252 -2.986 -1.938 -3.723 c -2.262 -2.322 -38.971 -20.936 -41.27 -20.899 c -1.252 0 -11.308 4.755 -22.373 10.579 c -18.94 9.952 -20.07 10.726 -20.394 13.896 c -0.283 3.133 0.121 3.539 5.977 6.266 c 3.473 1.585 12.398 6.082 19.869 9.952 c 16.436 8.588 16.759 8.588 33.802 -0.147" transform="matrix(0.09673 0 0 0.10598 -0.601 -0.148)" fill="#1b1b1b" stroke="#363636"/><path d="m 105.23 139.05 c -11.05 -6.05 -20.545 -11.455 -21.09 -12 c -2.409 -2.318 10.727 -11.273 35.727 -24.364 l 9.364 -4.909 l 11.591 6.05 c 15.682 8.182 31.773 18.05 33.18 20.318 c 1.5 2.409 1.136 2.636 -21.364 15 c -12.455 6.773 -19.682 10.136 -22.818 10.455 c -4.091 0.409 -6.409 -0.591 -24.591 -10.545" transform="scale(0.08594)" fill="#fff" stroke="#fff"/></g></svg>