<svg xmlns="http://www.w3.org/2000/svg" viewBox="0 0 22 22"><path d="m 16.855 3.289 c 6.355 7.934 6.734 15.08 1.023 17.242 c -7.871 2.98 -20.2 1.965 -17.14 -9.578 c 3.078 -9.547 10.516 -14.656 16.12 -7.664" fill="#f4f4f4"/><path d="m 5.879 17.664 c 0 -0.043 0.457 -2.789 1.012 -6.098 l 1.01 -6.02 h 6.07 l 1.012 6.04 c 0.555 3.32 1.012 6.06 1.012 6.098 c 0 0.055 -0.043 0.063 -0.461 0.063 h -0.465 l -0.957 -0.59 c -1.469 -0.902 -3.074 -1.855 -3.137 -1.855 c -0.031 0 -0.16 0.055 -0.285 0.117 c -0.367 0.188 -2.855 1.672 -3.617 2.156 l -0.266 0.172 h -0.465 c -0.457 0 -0.461 0 -0.461 -0.078 m 5.168 -4.117 c 0.223 -0.316 1.563 -2.645 1.563 -2.719 c 0 -0.07 -1.453 -2.578 -1.594 -2.746 l -0.078 -0.094 l -0.078 0.086 c -0.086 0.098 -0.637 1.023 -1.215 2.047 l -0.379 0.672 l 0.09 0.203 c 0.203 0.453 1.504 2.664 1.566 2.664 c 0.023 0 0.078 -0.055 0.125 -0.113" fill="#2e2e2e"/></svg>