<svg xmlns="http://www.w3.org/2000/svg" viewBox="0 0 22 22"><path d="m 4.535 19.03 c 16.539 13.1 26.727 -20.672 5.344 -18.746 c -8.836 0.855 -14.199 12.578 -5.344 18.746" fill="#007f00"/><g fill="#fff"><path d="m 6.652 8.809 c -0.203 0 -0.379 0.074 -0.52 0.219 c -0.145 0.145 -0.215 0.316 -0.215 0.52 v 3.113 c 0 0.207 0.07 0.383 0.215 0.527 c 0.141 0.145 0.316 0.219 0.52 0.219 c 0.203 0 0.375 -0.074 0.516 -0.219 c 0.141 -0.145 0.211 -0.32 0.211 -0.527 v -3.113 c 0 -0.203 -0.07 -0.375 -0.215 -0.52 c -0.141 -0.145 -0.313 -0.219 -0.512 -0.219"/><path d="m 12.555 6.02 l 0.504 -0.949 c 0.035 -0.063 0.023 -0.109 -0.035 -0.145 c -0.063 -0.027 -0.109 -0.016 -0.141 0.043 l -0.516 0.957 c -0.449 -0.203 -0.93 -0.305 -1.43 -0.305 c -0.504 0 -0.984 0.102 -1.434 0.305 l -0.516 -0.957 c -0.031 -0.059 -0.078 -0.07 -0.141 -0.043 c -0.059 0.035 -0.07 0.082 -0.035 0.145 l 0.504 0.949 c -0.512 0.266 -0.922 0.637 -1.223 1.109 c -0.305 0.477 -0.457 0.996 -0.457 1.563 h 6.59 c 0 -0.566 -0.152 -1.086 -0.453 -1.563 c -0.305 -0.473 -0.711 -0.844 -1.219 -1.109 m -2.926 1.379 c -0.055 0.055 -0.121 0.082 -0.195 0.082 c -0.078 0 -0.141 -0.027 -0.195 -0.082 c -0.051 -0.055 -0.078 -0.121 -0.078 -0.199 c 0 -0.078 0.027 -0.145 0.078 -0.199 c 0.055 -0.055 0.117 -0.082 0.195 -0.082 c 0.074 0 0.141 0.027 0.195 0.082 c 0.055 0.055 0.082 0.121 0.082 0.199 c 0 0.078 -0.027 0.145 -0.082 0.199 m 3 0 c -0.055 0.055 -0.117 0.082 -0.195 0.082 c -0.074 0 -0.141 -0.027 -0.195 -0.082 c -0.055 -0.055 -0.082 -0.121 -0.082 -0.199 c 0 -0.078 0.027 -0.145 0.082 -0.199 c 0.055 -0.055 0.121 -0.082 0.195 -0.082 c 0.078 0 0.141 0.027 0.195 0.082 c 0.051 0.055 0.078 0.121 0.078 0.199 c 0 0.078 -0.027 0.145 -0.078 0.199"/><path d="m 7.664 13.766 c 0 0.223 0.078 0.41 0.227 0.566 c 0.152 0.152 0.34 0.23 0.559 0.23 h 0.527 l 0.008 1.645 c 0 0.207 0.07 0.383 0.211 0.527 c 0.145 0.145 0.316 0.219 0.516 0.219 c 0.203 0 0.375 -0.074 0.52 -0.219 c 0.141 -0.145 0.215 -0.32 0.215 -0.527 v -1.645 h 0.98 v 1.645 c 0 0.207 0.074 0.383 0.215 0.527 c 0.145 0.145 0.316 0.219 0.52 0.219 c 0.203 0 0.379 -0.074 0.52 -0.219 c 0.145 -0.145 0.215 -0.32 0.215 -0.527 v -1.645 h 0.535 c 0.215 0 0.395 -0.078 0.547 -0.23 c 0.152 -0.156 0.23 -0.344 0.23 -0.566 v -4.82 h -6.543"/><path d="m 15.219 8.809 c -0.199 0 -0.371 0.07 -0.512 0.215 c -0.145 0.141 -0.215 0.316 -0.215 0.523 v 3.113 c 0 0.207 0.07 0.383 0.215 0.527 c 0.141 0.145 0.313 0.219 0.512 0.219 c 0.203 0 0.379 -0.074 0.52 -0.219 c 0.145 -0.145 0.215 -0.32 0.215 -0.527 v -3.113 c 0 -0.207 -0.07 -0.383 -0.215 -0.523 c -0.141 -0.145 -0.316 -0.215 -0.52 -0.215"/></g><path d="m 9.563 13.559 l 0.539 -1.543 l -1.477 -0.895 l 1.773 -0.008 l 0.473 -1.559 l 0.559 1.535 l 1.773 -0.066 l -1.43 0.957 l 0.617 1.516 l -1.438 -0.945" fill="#007f00"/></svg>