<svg xmlns="http://www.w3.org/2000/svg" viewBox="0 0 22 22"><g fill="#fff"><path d="m 7.867 10.664 v 4.289 c 0 2.57 0.438 2.57 4.41 2.57 h 0.883 c 3.969 0 4.41 0 4.41 -2.57 v -4.289 c 0 -2.57 -0.441 -2.57 -4.41 -2.57 h -0.883 c -3.973 0 -4.41 0 -4.41 2.57 m 4.41 -1.715 h 0.883 c 3.527 0 3.527 0 3.527 1.715 v 3 c 0 1.715 0 1.715 -3.527 1.715 h -0.883 c -3.531 0 -3.531 0 -3.531 -1.715 v -3 c 0 -1.715 0 -1.715 3.531 -1.715"/><path d="m 9.629 13.746 v -1.664 l 1.547 -1.559 l 1.93 1.949 l 0.77 -0.781 l 1.934 1.949 v 0.105 c 0 0.777 -0.129 0.777 -1.547 0.777 h -3.086 c -1.414 0 -1.543 0 -1.543 -0.777"/><path d="m 15.805 10.664 c 0 0.477 -0.395 0.859 -0.883 0.859 c -0.484 0 -0.879 -0.383 -0.879 -0.859 c 0 -0.473 0.395 -0.855 0.879 -0.855 c 0.488 0 0.883 0.383 0.883 0.855"/><path d="m 10.512 6.379 c -3.969 0 -4.41 0 -4.41 2.57 v 4.289 c 0 1.395 0.129 2.035 0.883 2.324 v -6.613 c 0 -1.551 0.023 -1.695 2.645 -1.711 v -0.004 h 5.961 c -0.391 -0.855 -1.441 -0.855 -4.195 -0.855"/><path d="m 8.746 4.664 c -3.969 0 -4.41 0 -4.41 2.57 v 4.289 c 0 1.395 0.133 2.035 0.883 2.324 v -6.613 c 0 -1.551 0.027 -1.695 2.648 -1.711 v -0.004 h 5.957 c -0.387 -0.855 -1.441 -0.855 -4.195 -0.855"/></g><path d="m 19.734 16.828 c 7.91 -11.25 -6.699 -22.652 -16.02 -13.484 c -8.777 8.637 -0.641 22.06 10.285 17.863 c 2.281 -0.875 4.281 -2.313 5.734 -4.379" fill="#dcdcdc"/><path d="m 6.258 17.656 c -0.258 -0.277 -0.277 -0.809 -0.047 -1.332 c 0.285 -0.656 0.727 -0.762 1.895 -0.465 c 0.266 0.07 0.297 0.035 0.402 -0.391 c 0.121 -0.473 0.313 -0.652 0.59 -0.535 c 0.164 0.066 0.434 -0.355 0.336 -0.531 c -0.133 -0.227 -1.039 -0.461 -1.551 -0.395 c -0.457 0.059 -0.539 0.035 -0.695 -0.207 c -0.098 -0.148 -0.176 -0.344 -0.176 -0.43 c 0 -0.262 -0.449 -1.305 -0.563 -1.305 c -0.055 0 -0.242 0.105 -0.414 0.238 c -0.367 0.285 -0.461 0.242 -0.742 -0.359 c -0.293 -0.621 -0.27 -0.805 0.117 -0.949 c 0.402 -0.152 0.402 -0.145 -0.273 -1.926 c -0.484 -1.273 -0.859 -2.992 -0.789 -3.633 l 0.031 -0.305 l 0.512 0.512 c 0.527 0.527 1.234 1.664 1.758 2.836 c 0.164 0.371 0.336 0.672 0.383 0.672 c 0.043 0 0.133 -0.109 0.199 -0.246 c 0.066 -0.133 0.293 -0.449 0.508 -0.707 c 0.211 -0.254 0.473 -0.746 0.582 -1.094 l 0.195 -0.629 l -0.363 -0.52 c -0.43 -0.613 -0.766 -1.496 -0.668 -1.766 c 0.063 -0.18 0.086 -0.18 0.309 -0.008 c 1.492 1.145 1.758 1.258 2.801 1.168 c 0.516 -0.043 0.926 -0.012 1.254 0.102 c 0.621 0.211 1.031 0.07 1.996 -0.676 c 0.648 -0.5 0.902 -0.574 0.902 -0.25 c -0.004 0.25 -0.535 1.379 -0.863 1.828 c -0.27 0.375 -0.305 0.488 -0.215 0.746 c 0.059 0.164 0.078 0.379 0.043 0.48 c -0.035 0.098 0.02 0.281 0.125 0.406 c 0.188 0.227 0.191 0.227 0.547 -0.012 c 0.461 -0.309 1.387 -0.414 1.926 -0.223 c 0.66 0.238 1.406 1.074 1.602 1.805 c 0.211 0.785 0.211 1.598 0 2.363 c -0.195 0.715 -0.559 1.215 -1.16 1.59 c -1.031 0.637 -2.074 0.453 -2.961 -0.523 l -0.531 -0.59 l -0.324 0.184 c -0.445 0.246 -0.941 0.227 -1.363 -0.055 l -0.355 -0.238 l -0.406 0.238 c -0.832 0.48 -1.621 0.16 -2 -0.813 c -0.211 -0.539 -0.242 -0.566 -0.555 -0.504 c -0.469 0.098 -0.516 0.18 -0.34 0.629 c 0.465 1.191 1.832 1.781 3.473 1.496 c 0.758 -0.133 0.824 -0.129 0.961 0.078 c 0.207 0.305 0.137 0.543 -0.207 0.723 c -0.395 0.207 -0.422 0.723 -0.039 0.723 c 0.313 0 0.473 0.199 0.566 0.691 c 0.059 0.34 0.098 0.371 0.348 0.309 c 1.137 -0.289 1.539 -0.219 1.84 0.316 c 0.273 0.484 0.281 1.262 0.016 1.523 c -0.164 0.16 -0.453 0.191 -1.758 0.191 c -1.121 0 -1.594 -0.043 -1.676 -0.145 c -0.109 -0.145 -0.559 -2.051 -0.559 -2.371 c 0 -0.094 0.125 -0.223 0.277 -0.285 c 0.203 -0.082 0.266 -0.184 0.242 -0.375 c -0.031 -0.238 -0.102 -0.266 -0.754 -0.297 c -0.66 -0.031 -0.719 -0.012 -0.793 0.23 c -0.055 0.195 -0.02 0.301 0.152 0.426 c 0.141 0.098 0.23 0.285 0.23 0.473 c -0.004 0.434 -0.387 1.969 -0.539 2.172 c -0.105 0.137 -0.453 0.172 -1.676 0.172 c -1.402 0 -1.566 -0.023 -1.758 -0.234 m 3.359 -1.086 c 0.109 -0.441 0.172 -0.871 0.141 -0.961 c -0.035 -0.098 -0.211 -0.164 -0.434 -0.164 c -0.344 0 -0.383 0.035 -0.488 0.453 c -0.137 0.559 -0.301 0.633 -0.875 0.414 c -0.656 -0.25 -1.125 -0.219 -1.324 0.09 c -0.172 0.266 -0.223 0.805 -0.09 0.949 c 0.039 0.043 0.703 0.066 1.473 0.047 l 1.402 -0.031 l 0.199 -0.797 m 4.992 0.375 c 0.059 -0.77 -0.395 -0.973 -1.434 -0.633 c -0.602 0.195 -0.754 0.121 -0.887 -0.445 c -0.074 -0.305 -0.148 -0.371 -0.445 -0.402 c -0.465 -0.051 -0.563 0.074 -0.441 0.566 c 0.055 0.223 0.152 0.629 0.219 0.902 l 0.117 0.496 l 1.418 -0.031 l 1.422 -0.031 m -6.543 -3.957 c 0.035 -0.094 -0.137 -0.598 -0.379 -1.125 c -0.406 -0.883 -0.43 -0.973 -0.27 -1.16 c 0.094 -0.113 0.285 -0.238 0.43 -0.277 c 0.258 -0.07 0.352 -0.34 0.164 -0.465 c -0.051 -0.035 -0.551 0.172 -1.113 0.461 c -0.559 0.285 -1.07 0.52 -1.141 0.52 c -0.066 0 -0.121 0.105 -0.121 0.234 c 0 0.285 0.238 0.301 0.648 0.039 c 0.238 -0.152 0.34 -0.164 0.457 -0.059 c 0.129 0.117 0.566 1.145 0.762 1.797 c 0.074 0.246 0.48 0.273 0.562 0.035 m 8.434 -0.246 c 0.16 -0.09 0.457 -0.375 0.668 -0.641 c 1.336 -1.695 0.219 -4.551 -1.723 -4.391 c -1.961 0.16 -2.73 3.238 -1.176 4.719 c 0.219 0.207 0.527 0.406 0.688 0.445 c 0.164 0.039 0.344 0.09 0.402 0.113 c 0.176 0.07 0.832 -0.07 1.141 -0.246 m -1.336 -1.895 c -0.355 -0.402 -0.359 -0.539 -0.016 -1.031 c 0.34 -0.48 0.492 -0.484 0.848 -0.031 c 0.336 0.438 0.344 0.602 0.043 1.047 c -0.293 0.43 -0.508 0.434 -0.875 0.016 m 0.645 -0.652 c -0.035 -0.102 -0.137 -0.184 -0.219 -0.184 c -0.211 0 -0.313 0.344 -0.16 0.543 c 0.109 0.145 0.148 0.145 0.285 -0.004 c 0.086 -0.094 0.129 -0.254 0.094 -0.355 m -5.082 0.973 c 0.77 -0.656 0.828 -2.09 0.086 -2.09 c -0.594 0 -1.094 0.668 -1.094 1.473 c 0 0.469 0.246 0.859 0.539 0.859 c 0.102 0 0.313 -0.109 0.469 -0.246 m 2 0.094 c 0.242 -0.133 0.27 -0.223 0.281 -0.871 c 0.008 -0.398 0.098 -0.965 0.199 -1.254 l 0.188 -0.527 l -0.285 -0.402 c -0.313 -0.445 -0.34 -0.449 -1.348 -0.289 c -0.461 0.07 -1.031 0.066 -1.684 -0.016 c -1.125 -0.145 -1.293 -0.074 -1.789 0.754 l -0.27 0.445 l 0.258 0.414 c 0.145 0.227 0.262 0.461 0.262 0.516 c 0 0.25 0.23 0.059 0.422 -0.352 c 0.281 -0.594 1.012 -1.266 1.555 -1.426 c 0.348 -0.102 0.496 -0.09 0.797 0.066 c 0.262 0.137 0.406 0.156 0.484 0.07 c 0.063 -0.066 0.273 -0.125 0.469 -0.125 c 0.445 0 0.445 0.059 0.035 1.625 c -0.238 0.902 -0.289 1.254 -0.203 1.367 c 0.148 0.191 0.285 0.191 0.629 0.004 m -5.801 -1.496 c 0 -0.211 -1.043 -2.426 -1.512 -3.207 c -0.398 -0.66 -0.637 -0.902 -0.637 -0.652 c 0 0.418 1.031 3.52 1.359 4.082 c 0.145 0.25 0.168 0.254 0.473 0.082 c 0.176 -0.098 0.316 -0.234 0.316 -0.305 m 5.777 -2.496 c 0.66 -0.203 0.719 -0.414 0.281 -0.98 c -0.883 -1.137 -2.832 -1.23 -3.828 -0.184 c -0.551 0.582 -0.582 0.859 -0.117 1.07 c 0.891 0.402 2.516 0.445 3.664 0.094 m 1.117 -1.953 c 0.164 -0.328 0.047 -0.352 -0.438 -0.086 c -0.492 0.273 -0.52 0.328 -0.25 0.539 c 0.156 0.125 0.219 0.117 0.383 -0.043 c 0.109 -0.109 0.246 -0.293 0.305 -0.41 m -4.738 0.266 c 0.117 -0.066 0.211 -0.156 0.211 -0.203 c 0 -0.105 -0.957 -0.66 -1.02 -0.59 c -0.055 0.059 0.457 0.914 0.547 0.914 c 0.031 0 0.148 -0.055 0.262 -0.121"/></svg>