<svg xmlns="http://www.w3.org/2000/svg" viewBox="0 0 22 22"><path d="m 11.504 0.25 c 3.66 0.699 7.203 3.449 9.07 7.05 c 1.563 3.02 1.809 5.953 0.707 8.539 c -0.828 1.945 -2.707 3.762 -5.04 4.871 c -2.488 1.184 -4.801 1.453 -7.191 0.844 c -5.902 -1.512 -10.227 -9.41 -8.469 -15.469 c 0.859 -2.961 3.137 -4.965 6.492 -5.711 c 1.457 -0.117 3 -0.371 4.434 -0.121" fill="#9c9c9c"/><path d="m 5.875 10.363 v -5.754 l 0.215 -0.059 c 0.832 -0.227 2.613 -0.313 3.598 -0.172 c 1.887 0.262 3.656 1.027 5.094 2.203 c 1.379 1.203 2.453 2.715 3.066 4.449 c 0.371 1.566 0.867 3.418 0.422 4.988 c -0.035 0.102 -0.211 0.102 -6.215 0.102 h -6.18" fill="#0f2e03"/><g fill="#4baf13" stroke="#4baf13"><g stroke-width="1.587" transform="matrix(0.05521 0 0 0.05538 1.856 -1.648)"><path d="m 243.68 283.22 v -5.22 h 29.29 v 10.44 h -29.29"/><path d="m 104.22 133.88 h 5.095 v 29.627 h -10.26 v -29.627"/></g><g stroke-width="2"><path d="m 152.79 85.16 c 0 2.965 -2.569 5.353 -5.723 5.353 c -3.154 0 -5.723 -2.388 -5.723 -5.353 c 0 -2.924 2.569 -5.312 5.723 -5.312 c 3.154 0 5.723 2.388 5.723 5.312" transform="matrix(0.08669 0 0 0.09486 -0.537 -0.844)"/><path d="m 152.8 85.19 c 0 2.924 -2.569 5.312 -5.723 5.312 c -3.199 0 -5.723 -2.388 -5.723 -5.312 c 0 -2.965 2.523 -5.353 5.723 -5.353 c 3.154 0 5.723 2.388 5.723 5.353" transform="matrix(0.08669 0 0 0.09486 2.212 1.949)"/></g><path d="m 89.78 176.88 c 1.809 -10.25 10.02 -41.29 12.665 -50.05 c 3.667 -13.185 6.748 -23 10.416 -36.14 c 2.103 -0.144 5.086 -0.385 6.406 0.529 c 0.489 1.925 -1.32 10.538 -6.699 31.808 c -3.227 12.704 -5.819 25.12 -7.286 34.502 c -1.076 6.881 1.614 4.475 19.804 5.438 c 11.393 0.626 17.75 1.155 18.631 1.636 c 3.081 11.356 5.086 13.09 -14.865 11.741 c -16.235 1.01 -26.454 0.962 -39.07 0.529" transform="matrix(0.07988 0 0 0.08118 0.414 0.239)" stroke-width="0.819"/></g></svg>