<svg xmlns="http://www.w3.org/2000/svg" viewBox="0 0 22 22"><path d="m 16.656 1.605 c 19.367 16.621 -20.449 32.602 -16.359 6.895 c 0.898 -5.637 11.141 -11.375 16.359 -6.895" fill="#127834"/><path d="m 4.695 16.242 c -0.023 -0.043 0.316 -1.27 0.762 -2.727 c 0.445 -1.457 1.105 -3.637 1.465 -4.844 c 0.77 -2.563 0.797 -2.645 1 -2.75 c 0.234 -0.125 2.375 -0.109 2.461 0.02 c 0.035 0.055 0.477 1.398 0.973 2.984 c 0.5 1.586 0.941 2.879 0.988 2.871 c 0.047 -0.008 0.477 -1.305 0.957 -2.875 c 0.574 -1.879 0.926 -2.898 1.027 -2.973 c 0.105 -0.078 0.496 -0.113 1.297 -0.113 c 0.973 0 1.141 0.02 1.141 0.133 c 0 0.074 -0.25 0.934 -0.555 1.914 c -0.305 0.977 -0.98 3.191 -1.504 4.914 c -0.777 2.57 -0.988 3.172 -1.168 3.332 c -0.203 0.18 -0.301 0.191 -1.32 0.191 c -0.781 0 -1.125 -0.031 -1.188 -0.105 c -0.043 -0.059 -0.461 -1.324 -0.926 -2.816 c -0.898 -2.891 -0.961 -3.066 -1.078 -2.953 c -0.039 0.043 -0.422 1.234 -0.852 2.652 c -0.902 2.977 -0.922 3.03 -1.125 3.141 c -0.199 0.105 -2.289 0.109 -2.355 0.004" fill="#b2c90d"/><path d="m 11.04 16.219 c -0.047 -0.063 -0.465 -1.328 -0.93 -2.816 c -0.895 -2.871 -0.906 -3.156 -1.023 -3.086 c -0.039 0.027 -0.133 0.125 -0.148 0.078 c -0.02 -0.051 -0.594 0.094 -1.359 0.34 c -0.73 0.234 -1.34 0.414 -1.352 0.398 c -0.039 -0.035 1.406 -4.82 1.512 -5.02 c 0.133 -0.25 0.266 -0.273 1.465 -0.273 c 0.777 0 1.125 0.031 1.188 0.105 c 0.051 0.059 0.484 1.383 0.965 2.945 c 0.484 1.559 0.914 2.871 0.957 2.914 c 0.039 0.047 0.074 0.168 0.074 0.273 c 0 0.164 -1.168 4.156 -1.238 4.223 c -0.012 0.016 -0.063 -0.023 -0.109 -0.082 m 3.684 -3.992 c -0.055 -0.102 -0.332 -0.832 -0.617 -1.617 c -0.281 -0.789 -0.566 -1.531 -0.633 -1.652 c -0.102 -0.199 -0.074 -0.355 0.297 -1.559 c 0.246 -0.805 0.469 -1.383 0.563 -1.449 c 0.105 -0.078 0.496 -0.109 1.293 -0.109 c 0.949 0 1.145 0.02 1.145 0.125 c 0 0.07 -0.426 1.508 -0.945 3.199 c -0.523 1.691 -0.961 3.113 -0.977 3.164 c -0.012 0.047 -0.07 0 -0.125 -0.102" fill="#62b02c"/><path d="m 11.04 15.977 c -0.199 -0.605 -0.809 -2.188 -1.109 -3.273 c -0.262 -0.875 -0.445 -1.422 -0.75 -2.375 l 0.398 -1.695 c 0.184 -0.766 0.383 -1.594 0.414 -1.84 l 0.059 -0.449 l -0.512 0.16 c -0.551 0.176 -1.742 0.621 -1.988 0.719 c -0.125 0.047 -0.082 -0.117 -0.012 -0.309 c 0.211 -0.586 0.313 -0.926 0.5 -1.027 c 0.117 -0.063 0.531 -0.074 1.262 -0.031 c 0.867 0.051 1.098 0.09 1.156 0.203 c 0.043 0.078 0.316 0.992 0.609 2.027 c 0.297 1.039 0.82 2.305 0.988 2.918 l 0.289 1.027 l -0.563 2.023 c -0.512 1.844 -0.656 2.18 -0.742 1.922 m 5.238 -8.535 c -0.035 -0.098 -0.848 -1.082 -0.914 -1.246 c -0.191 -0.48 -0.113 -0.277 0.988 -0.301 c 0.395 -0.012 0.402 0.004 0.344 0.238 c -0.113 0.293 -0.336 1.551 -0.418 1.309" fill="#2f9734"/><path d="m 10.82 15.383 c -0.387 -1.129 -0.512 -1.676 -0.406 -1.762 c 0.051 -0.039 0.445 -0.18 0.875 -0.305 l 0.777 -0.23 l -0.063 0.285 c -0.125 0.555 -0.773 2.609 -0.852 2.688 c -0.043 0.039 -0.191 -0.262 -0.332 -0.676 m -0.984 -7.367 c 0 -0.277 0.363 -1.82 0.434 -1.82 c 0.223 0 0.262 0.316 0.355 0.672 c 0.094 0.355 0.211 0.664 0.234 0.742 c 0.031 0.102 -0.211 0.195 -0.484 0.27 c -0.5 0.137 -0.539 0.32 -0.539 0.137" fill="#127834"/></svg>