<svg xmlns="http://www.w3.org/2000/svg" viewBox="0 0 22 22"><path d="m 14.793 21.305 c -29.98 5.48 -6.945 -39.07 6.176 -12.367 c 2.262 4.77 1.027 11.734 -6.176 12.367" fill="#a5cdfd"/><path d="m 5.945 16.73 c -0.184 -0.043 -0.359 -0.102 -0.395 -0.133 c -0.039 -0.039 0.844 -1.848 2.621 -5.355 l 2.684 -5.297 l 0.441 0.031 c 0.445 0.035 1.031 0.184 1.031 0.27 c 0 0.023 -1.195 2.406 -2.66 5.289 l -2.66 5.246 l -0.363 0.012 c -0.199 0.008 -0.512 -0.023 -0.695 -0.063 m 1.617 0.031 c 0 -0.07 5.137 -10.191 5.207 -10.258 c 0.035 -0.031 0.121 -0.02 0.227 0.031 c 0.27 0.129 0.836 0.625 0.836 0.73 c 0 0.098 -4.664 9.34 -4.781 9.473 c -0.07 0.086 -1.488 0.105 -1.488 0.023 m 2.184 0.02 c -0.043 -0.039 4.461 -8.938 4.527 -8.938 c 0.141 0 0.5 1.121 0.492 1.543 c -0.004 0.137 -0.574 1.32 -1.836 3.797 l -1.832 3.602 l -0.656 0.016 c -0.363 0.008 -0.676 0 -0.695 -0.02 m 2.141 -0.012 c 0 -0.027 0.801 -1.625 1.781 -3.559 c 1.137 -2.238 1.82 -3.516 1.883 -3.531 c 0.129 -0.023 0.887 0.207 0.961 0.297 c 0.039 0.043 -0.5 1.168 -1.652 3.438 l -1.707 3.367 l -0.633 0.02 c -0.348 0.008 -0.633 -0.008 -0.633 -0.031 m 2.195 -0.031 c 0 -0.094 3.102 -6.203 3.191 -6.285 c 0.051 -0.047 0.164 0.027 0.414 0.27 c 0.188 0.18 0.344 0.363 0.344 0.402 c 0 0.082 -2.738 5.504 -2.836 5.613 c -0.09 0.102 -1.113 0.102 -1.113 0 m 2.316 -0.285 c 0 -0.117 2.09 -4.223 2.156 -4.23 c 0.16 -0.023 0.313 0.859 0.23 1.332 c -0.18 1.039 -0.656 1.836 -1.461 2.438 c -0.422 0.32 -0.926 0.57 -0.926 0.461 m -11.785 -0.25 c -0.742 -0.457 -1.297 -1.145 -1.605 -1.988 c -0.32 -0.879 -0.215 -1.762 0.332 -2.723 c 0.559 -0.98 1.75 -1.734 2.941 -1.855 c 0.504 -0.051 0.59 -0.102 0.59 -0.328 c 0 -0.328 0.238 -1.055 0.484 -1.48 c 0.285 -0.496 0.961 -1.141 1.461 -1.398 c 0.367 -0.188 0.938 -0.379 1.34 -0.445 c 0.227 -0.039 0.242 -0.031 0.211 0.078 c -0.02 0.063 -1.199 2.418 -2.625 5.23 c -1.766 3.48 -2.625 5.117 -2.688 5.117 c -0.055 0 -0.25 -0.094 -0.441 -0.211" fill="#0071ff"/></svg>