<svg xmlns="http://www.w3.org/2000/svg" viewBox="0 0 22 22" xmlns:xlink="http://www.w3.org/1999/xlink"><defs><linearGradient id="2" gradientUnits="userSpaceOnUse" y1="22.969" x2="0" y2="41.03" xlink:href="#1"/><linearGradient id="1" gradientUnits="userSpaceOnUse" x1="7.649" x2="41.862" gradientTransform="matrix(0 0.3705 -0.36175 0 33.508 6.167)"><stop stop-color="#fff"/><stop offset="1" stop-color="#fff" stop-opacity="0"/></linearGradient><radialGradient id="0" gradientUnits="userSpaceOnUse" cx="48.42" cy="-48.03" r="38.21" gradientTransform="matrix(0 0.38312 -0.6864 0.00035 -22.716 -15.59)"><stop stop-color="#fafafa"/><stop offset="1" stop-color="#e5e5e5"/></radialGradient></defs><path d="m 2.254 16.945 c -11.688 -24.23 32.727 -20.805 15.422 1.504 c -3.469 4.469 -12.273 5.03 -15.422 -1.504" fill="#778799"/><g fill-opacity="0.051"><path d="m 9.238 3.934 c -0.223 0 -0.438 0.078 -0.598 0.223 c -0.156 0.141 -0.246 0.336 -0.242 0.539 v 1.48 h -0.48 c -0.332 0 -0.633 0.176 -0.766 0.445 c -0.133 0.273 -0.078 0.594 0.145 0.813 l 2.098 2.148 c -0.027 0.043 -0.074 0.09 -0.09 0.129 c -0.082 0.18 -0.105 0.313 -0.105 0.453 v 0.047 l -0.039 -0.035 c -0.113 -0.102 -0.25 -0.195 -0.453 -0.266 c -0.102 -0.039 -0.219 -0.066 -0.402 -0.059 c -0.18 0.008 -0.434 0.078 -0.605 0.23 l -0.637 0.574 c -0.172 0.152 -0.25 0.383 -0.258 0.547 c -0.008 0.164 0.023 0.27 0.063 0.363 c 0.082 0.184 0.184 0.301 0.301 0.406 l 0.039 0.035 h -0.055 c -0.156 0 -0.305 0.02 -0.504 0.094 c -0.098 0.035 -0.223 0.082 -0.352 0.199 c -0.125 0.117 -0.258 0.34 -0.258 0.57 v 0.816 c 0 0.23 0.133 0.453 0.258 0.574 c 0.129 0.117 0.254 0.16 0.352 0.195 c 0.199 0.074 0.348 0.094 0.504 0.094 h 0.055 l -0.039 0.035 c -0.117 0.105 -0.219 0.223 -0.301 0.41 c -0.039 0.09 -0.07 0.199 -0.063 0.359 c 0.008 0.164 0.086 0.395 0.258 0.551 l 0.637 0.57 c 0.172 0.156 0.426 0.227 0.605 0.234 c 0.184 0.008 0.301 -0.023 0.402 -0.059 c 0.207 -0.074 0.34 -0.164 0.453 -0.27 l 0.039 -0.035 v 0.047 c 0 0.145 0.023 0.277 0.105 0.457 c 0.039 0.09 0.09 0.199 0.219 0.313 c 0.133 0.113 0.379 0.234 0.637 0.234 h 0.906 c 0.254 0 0.504 -0.121 0.633 -0.234 c 0.133 -0.113 0.18 -0.223 0.223 -0.313 c 0.078 -0.18 0.102 -0.313 0.102 -0.457 v -0.047 l 0.039 0.035 c 0.117 0.105 0.25 0.195 0.453 0.27 c 0.102 0.035 0.223 0.066 0.402 0.059 c 0.18 -0.008 0.438 -0.078 0.609 -0.234 l 0.633 -0.57 c 0.172 -0.156 0.25 -0.387 0.258 -0.551 c 0.012 -0.16 -0.023 -0.27 -0.066 -0.359 c -0.078 -0.184 -0.18 -0.305 -0.293 -0.41 l -0.039 -0.035 h 0.051 c 0.156 0 0.305 -0.02 0.504 -0.094 c 0.102 -0.035 0.223 -0.078 0.352 -0.195 c 0.125 -0.121 0.258 -0.344 0.258 -0.574 v -0.816 c 0 -0.23 -0.133 -0.453 -0.258 -0.57 c -0.129 -0.117 -0.25 -0.164 -0.352 -0.199 c -0.195 -0.074 -0.348 -0.094 -0.504 -0.094 h -0.051 l 0.039 -0.035 c 0.113 -0.102 0.215 -0.223 0.297 -0.406 c 0.039 -0.094 0.074 -0.199 0.063 -0.363 c -0.008 -0.164 -0.086 -0.395 -0.258 -0.547 l -0.633 -0.574 c -0.172 -0.152 -0.43 -0.223 -0.609 -0.23 c -0.18 -0.008 -0.301 0.02 -0.402 0.059 c -0.203 0.07 -0.34 0.164 -0.453 0.266 l -0.039 0.035 v -0.047 c 0 -0.141 -0.023 -0.273 -0.105 -0.453 c -0.035 -0.082 -0.094 -0.188 -0.207 -0.293 l 1.957 -1.984 c 0.223 -0.219 0.277 -0.539 0.145 -0.813 c -0.133 -0.27 -0.434 -0.445 -0.766 -0.445 h -0.48 v -1.48 c 0.004 -0.203 -0.086 -0.398 -0.242 -0.539 c -0.16 -0.145 -0.375 -0.223 -0.598 -0.223 m -1.113 9.07 c 0.176 0 0.309 0.121 0.309 0.281 c 0 0.16 -0.133 0.277 -0.309 0.277 c -0.18 0 -0.313 -0.117 -0.313 -0.277 c 0 -0.16 0.133 -0.281 0.313 -0.281"/><path d="m 9.199 4.332 c -0.207 0.016 -0.363 0.172 -0.363 0.359 v 1.879 h -0.918 c -0.156 0 -0.297 0.086 -0.363 0.211 c -0.063 0.129 -0.039 0.281 0.063 0.387 l 2.398 2.437 c -0.066 0.023 -0.145 0.035 -0.184 0.07 c -0.07 0.059 -0.105 0.121 -0.129 0.176 c -0.051 0.105 -0.066 0.211 -0.066 0.313 v 0.621 c -0.102 0.031 -0.195 0.07 -0.293 0.113 l -0.492 -0.441 c -0.086 -0.074 -0.176 -0.133 -0.301 -0.176 c -0.059 -0.02 -0.137 -0.039 -0.23 -0.035 c -0.098 0.004 -0.223 0.035 -0.313 0.117 l -0.633 0.57 c -0.09 0.082 -0.125 0.195 -0.129 0.281 c -0.008 0.086 0.012 0.156 0.035 0.211 c 0.051 0.109 0.113 0.195 0.195 0.27 l 0.492 0.441 c -0.047 0.09 -0.09 0.176 -0.129 0.27 h -0.688 c -0.113 0 -0.227 0.012 -0.348 0.059 c -0.063 0.023 -0.129 0.051 -0.195 0.117 c -0.066 0.063 -0.129 0.172 -0.129 0.289 v 0.816 c 0 0.121 0.063 0.23 0.129 0.293 c 0.066 0.063 0.133 0.094 0.195 0.117 c 0.121 0.043 0.234 0.059 0.348 0.059 h 0.688 c 0.039 0.094 0.082 0.18 0.129 0.27 l -0.492 0.441 c -0.082 0.074 -0.145 0.156 -0.195 0.27 c -0.023 0.055 -0.043 0.121 -0.035 0.207 c 0.004 0.09 0.039 0.203 0.129 0.281 l 0.633 0.57 c 0.09 0.082 0.215 0.113 0.313 0.117 c 0.094 0.004 0.172 -0.012 0.23 -0.035 c 0.125 -0.043 0.219 -0.098 0.301 -0.172 l 0.492 -0.445 c 0.098 0.043 0.191 0.086 0.297 0.117 v 0.621 c 0 0.102 0.016 0.207 0.066 0.313 c 0.023 0.055 0.059 0.113 0.129 0.176 c 0.07 0.063 0.191 0.117 0.324 0.117 h 0.906 c 0.129 0 0.254 -0.055 0.324 -0.117 c 0.07 -0.059 0.102 -0.121 0.129 -0.176 c 0.047 -0.105 0.063 -0.211 0.063 -0.313 v -0.621 c 0.105 -0.031 0.203 -0.07 0.301 -0.117 l 0.492 0.445 c 0.082 0.074 0.172 0.133 0.297 0.176 c 0.063 0.02 0.137 0.039 0.234 0.035 c 0.094 -0.004 0.223 -0.039 0.309 -0.117 l 0.637 -0.574 c 0.09 -0.082 0.125 -0.191 0.129 -0.281 c 0.004 -0.086 -0.012 -0.152 -0.039 -0.211 c -0.047 -0.109 -0.113 -0.191 -0.195 -0.266 l -0.492 -0.445 c 0.047 -0.086 0.094 -0.172 0.129 -0.27 h 0.688 c 0.113 0 0.23 -0.012 0.348 -0.059 c 0.063 -0.02 0.129 -0.051 0.195 -0.113 c 0.07 -0.066 0.129 -0.176 0.129 -0.293 v -0.816 c 0 -0.121 -0.059 -0.23 -0.129 -0.293 c -0.066 -0.063 -0.133 -0.094 -0.195 -0.113 c -0.117 -0.047 -0.234 -0.059 -0.348 -0.059 h -0.688 c -0.035 -0.094 -0.082 -0.184 -0.129 -0.27 l 0.492 -0.441 c 0.082 -0.078 0.145 -0.16 0.195 -0.27 c 0.023 -0.055 0.043 -0.125 0.039 -0.211 c -0.004 -0.086 -0.043 -0.199 -0.129 -0.281 l -0.637 -0.57 c -0.09 -0.078 -0.215 -0.109 -0.309 -0.117 c -0.098 -0.004 -0.172 0.016 -0.234 0.035 c -0.125 0.047 -0.215 0.102 -0.297 0.176 l -0.492 0.441 c -0.098 -0.043 -0.195 -0.082 -0.301 -0.113 v -0.621 c 0 -0.102 -0.016 -0.207 -0.063 -0.313 c -0.027 -0.055 -0.059 -0.117 -0.129 -0.176 c -0.07 -0.063 -0.195 -0.117 -0.324 -0.117 h -0.066 l 2.344 -2.391 c 0.102 -0.109 0.125 -0.258 0.063 -0.383 c -0.063 -0.129 -0.203 -0.211 -0.359 -0.215 h -0.918 v -1.875 c 0 -0.098 -0.043 -0.191 -0.117 -0.258 c -0.078 -0.07 -0.18 -0.105 -0.285 -0.105 h -2.488 c -0.012 0 -0.023 0 -0.039 0 m 1.414 8.273 c 0.414 0 0.75 0.301 0.75 0.676 c 0 0.375 -0.336 0.676 -0.75 0.676 c -0.418 0 -0.754 -0.305 -0.754 -0.676 c 0 -0.375 0.336 -0.68 0.754 -0.68"/></g><path d="m 9.238 4.695 v 2.238 h -1.32 l 2.562 2.613 l 2.566 -2.613 h -1.32 v -2.238 m -1.566 5.227 c -0.074 0 -0.117 0.109 -0.117 0.242 v 0.852 c -0.289 0.059 -0.563 0.164 -0.805 0.305 l -0.672 -0.605 c -0.105 -0.098 -0.223 -0.141 -0.273 -0.094 l -0.633 0.57 c -0.051 0.047 -0.004 0.148 0.102 0.246 l 0.676 0.605 c -0.156 0.219 -0.273 0.465 -0.34 0.723 h -0.945 c -0.148 0 -0.27 0.043 -0.27 0.105 v 0.816 c 0 0.066 0.121 0.105 0.27 0.105 h 0.945 c 0.066 0.262 0.184 0.504 0.34 0.723 l -0.676 0.609 c -0.105 0.094 -0.152 0.199 -0.102 0.242 l 0.633 0.574 c 0.051 0.043 0.168 0 0.273 -0.094 l 0.672 -0.609 c 0.242 0.141 0.516 0.246 0.805 0.305 v 0.852 c 0 0.137 0.043 0.246 0.117 0.246 h 0.906 c 0.07 0 0.117 -0.109 0.117 -0.246 v -0.852 c 0.285 -0.059 0.559 -0.164 0.801 -0.305 l 0.676 0.609 c 0.105 0.094 0.219 0.137 0.27 0.094 l 0.637 -0.574 c 0.051 -0.043 0 -0.148 -0.105 -0.242 l -0.672 -0.609 c 0.152 -0.219 0.27 -0.461 0.336 -0.723 h 0.945 c 0.148 0 0.273 -0.039 0.273 -0.105 v -0.816 c 0 -0.063 -0.125 -0.105 -0.273 -0.105 h -0.945 c -0.066 -0.258 -0.184 -0.504 -0.336 -0.723 l 0.672 -0.605 c 0.105 -0.098 0.156 -0.199 0.105 -0.246 l -0.637 -0.57 c -0.051 -0.047 -0.164 -0.004 -0.27 0.094 l -0.676 0.605 c -0.242 -0.137 -0.512 -0.246 -0.801 -0.305 v -0.852 c 0 -0.133 -0.047 -0.242 -0.117 -0.242 m -0.453 2.32 c 0.633 0 1.152 0.469 1.152 1.039 c 0 0.57 -0.52 1.039 -1.152 1.039 c -0.637 0 -1.152 -0.469 -1.152 -1.039 c 0 -0.57 0.52 -1.039 1.152 -1.039" fill="url(#0)"/><g fill="none"><path d="m 28.925 15.471 l -4.929 5.702 l -5.03 -5.671 h 2.535 v -6.01 h 4.995 v 6.01" transform="matrix(0.41447 0 0 0.37334 0.535 1.333)" stroke="url(#1)" stroke-width="0.998"/><path d="m 23.439 23.465 c -0.009 0.063 -0.028 0.105 -0.028 0.188 v 2.281 c 0 0.23 -0.16 0.419 -0.377 0.471 c -0.641 0.146 -1.244 0.408 -1.781 0.753 c -0.188 0.115 -0.434 0.094 -0.594 -0.063 l -1.63 -1.622 c -0.047 -0.063 -0.085 -0.073 -0.123 -0.094 l -1.216 1.214 c 0.028 0.042 0.038 0.073 0.094 0.126 l 1.621 1.622 c 0.16 0.167 0.179 0.408 0.066 0.596 c -0.349 0.544 -0.603 1.14 -0.754 1.779 c -0.047 0.22 -0.245 0.377 -0.462 0.377 h -2.29 c -0.085 0 -0.132 0.021 -0.179 0.031 v 1.747 c 0.047 0.01 0.094 0.031 0.179 0.031 h 2.29 c 0.217 0 0.415 0.157 0.462 0.377 c 0.151 0.638 0.405 1.235 0.754 1.779 c 0.113 0.188 0.094 0.439 -0.066 0.596 l -1.621 1.622 c -0.057 0.063 -0.066 0.084 -0.094 0.126 l 1.216 1.224 c 0.038 -0.031 0.075 -0.042 0.123 -0.094 l 1.63 -1.622 c 0.16 -0.157 0.405 -0.188 0.594 -0.063 c 0.537 0.335 1.14 0.596 1.781 0.743 c 0.217 0.052 0.377 0.251 0.377 0.471 v 2.281 c 0 0.084 0.019 0.136 0.028 0.188 h 1.753 c 0.009 -0.052 0.028 -0.105 0.028 -0.188 v -2.281 c 0 -0.22 0.151 -0.419 0.377 -0.471 c 0.631 -0.146 1.235 -0.408 1.781 -0.743 c 0.188 -0.126 0.434 -0.094 0.594 0.063 l 1.621 1.622 c 0.057 0.052 0.085 0.063 0.123 0.094 l 1.225 -1.224 c -0.028 -0.042 -0.047 -0.063 -0.094 -0.126 l -1.63 -1.622 c -0.151 -0.157 -0.179 -0.408 -0.057 -0.596 c 0.339 -0.544 0.603 -1.14 0.745 -1.779 c 0.047 -0.22 0.245 -0.377 0.471 -0.377 h 2.281 c 0.085 0 0.132 -0.021 0.188 -0.031 v -1.747 c -0.057 -0.01 -0.104 -0.031 -0.188 -0.031 h -2.281 c -0.226 0 -0.424 -0.157 -0.471 -0.377 c -0.141 -0.638 -0.405 -1.235 -0.745 -1.779 c -0.123 -0.188 -0.094 -0.429 0.057 -0.596 l 1.63 -1.622 c 0.047 -0.052 0.066 -0.084 0.094 -0.126 l -1.225 -1.214 c -0.038 0.021 -0.066 0.031 -0.123 0.094 l -1.621 1.622 c -0.16 0.157 -0.405 0.178 -0.594 0.063 c -0.547 -0.345 -1.15 -0.607 -1.781 -0.753 c -0.226 -0.052 -0.377 -0.241 -0.377 -0.471 v -2.281 c 0 -0.084 -0.019 -0.126 -0.028 -0.188 m -0.877 5.284 c 1.791 0 3.252 1.454 3.252 3.254 c 0 1.789 -1.461 3.244 -3.252 3.244 c -1.791 0 -3.252 -1.454 -3.252 -3.244 c 0 -1.8 1.461 -3.254 3.252 -3.254" transform="matrix(0.41447 0 0 0.37334 0.535 1.333)" stroke="url(#2)"/></g></svg>