<svg xmlns="http://www.w3.org/2000/svg" viewBox="0 0 22 22"><path d="m 2.145 17.465 c -10.996 -16.539 24.07 -26.727 19.43 -5.344 c -1.98 8.836 -14.387 14.199 -19.43 5.344" fill="#0470f6"/><path d="m 8.262 15.625 c -0.07 -0.188 0.02 -0.605 0.887 -4.207 c 0.566 -2.355 0.715 -3.078 0.633 -3.133 c -0.055 -0.039 -0.781 -0.07 -1.609 -0.07 c -1.723 -0.004 -1.738 -0.012 -1.574 -0.703 c 0.16 -0.688 0.09 -0.672 3.695 -0.711 c 3.559 -0.031 4.863 0.023 4.934 0.219 c 0.07 0.203 -0.047 0.715 -0.215 0.941 c -0.152 0.199 -0.203 0.207 -1.789 0.25 l -1.629 0.047 l -0.238 0.93 c -0.703 2.801 -1.215 5.01 -1.176 5.078 c 0.023 0.043 0.648 0.078 1.383 0.078 c 0.734 0.004 1.59 0.027 1.895 0.059 c 0.5 0.051 0.566 0.082 0.609 0.266 c 0.031 0.133 -0.023 0.367 -0.145 0.633 l -0.195 0.422 l -2.707 0.023 c -2.418 0.02 -2.715 0.008 -2.758 -0.117" fill="#fff"/></svg>