<svg xmlns="http://www.w3.org/2000/svg" viewBox="0 0 22 22"><path d="m 19.2 3.477 c 12.582 19.2 -21.785 26.625 -19.05 6.875 c 1.117 -8.05 14.234 -14.219 19.05 -6.875" fill="#ff4500"/><g fill="#fff"><path d="m 14.281 5.113 c -0.227 0 -0.41 0.168 -0.41 0.375 v 2.758 c -0.953 0.309 -1.637 1.129 -1.637 2.109 v 5.988 c 0 0.414 0.367 0.75 0.82 0.75 h 3.273 c 0.453 0 0.816 -0.336 0.816 -0.75 v -5.988 c 0 -0.98 -0.684 -1.805 -1.637 -2.109 v -2.758 c 0 -0.207 -0.18 -0.375 -0.406 -0.375 m -4.715 2.98 l -1.031 0.277 l 0.426 1.445 l 1.031 -0.273 m -2.01 -1.059 l -4.742 1.16 l 0.422 1.449 l 4.746 -1.164 m -2.641 1.973 c -0.418 0 -0.836 0.148 -1.156 0.441 c -0.641 0.586 -0.641 1.531 0 2.117 l 2.313 2.117 c 0.641 0.586 1.676 0.586 2.316 0 c 0.641 -0.586 0.641 -1.531 0 -2.117 l -2.316 -2.117 c -0.32 -0.293 -0.738 -0.441 -1.156 -0.441 m 1.734 2.031 l 0.578 0.527 l 0.582 0.531 c 0.32 0.293 0.32 0.762 0 1.059 c -0.324 0.293 -0.84 0.293 -1.16 0 l -0.578 -0.531 l -0.578 -0.527 l 0.578 -0.531"/><path d="m 10.188 5.113 c 0 0 -0.289 -0.004 -0.59 0.133 c -0.301 0.141 -0.637 0.492 -0.637 0.992 c 0 0.496 0.336 0.852 0.637 0.988 c 0.25 0.133 0.184 0.508 0.184 0.508 c -0.008 0.508 0.824 0.508 0.816 0 c 0.047 -0.75 -0.41 -1.059 -0.637 -1.176 c -0.105 -0.051 -0.18 -0.07 -0.18 -0.32 c 0 -0.25 0.074 -0.273 0.18 -0.32 c 0.109 -0.051 0.227 -0.055 0.227 -0.055 c 0.555 0.008 0.555 -0.758 0 -0.75" fill-opacity="0.502"/></g></svg>