<svg xmlns="http://www.w3.org/2000/svg" viewBox="0 0 22 22"><path d="m 21.289 7.977 c 4.105 11.465 -10.656 17.04 -16.199 12.371 c -5.547 -4.668 -7.441 -12.664 -1.16 -16.691 c 6.281 -4.02 13.25 -7.145 17.359 4.32" fill="#ed9a00"/><path d="m 15.16 13.1 c -0.41 0.266 -0.852 0.859 -0.984 1.313 l -0.805 2.762 c -0.133 0.457 -0.559 0.59 -0.941 0.297 l -2.324 -1.777 c -0.387 -0.297 -1.105 -0.52 -1.59 -0.5 l -2.957 0.113 c -0.492 0.02 -0.75 -0.336 -0.582 -0.777 l 1.023 -2.688 c 0.172 -0.449 0.168 -1.18 0 -1.625 l -1.023 -2.688 c -0.172 -0.449 0.094 -0.797 0.582 -0.777 l 2.957 0.113 c 0.492 0.02 1.207 -0.207 1.59 -0.5 l 2.324 -1.777 c 0.387 -0.297 0.809 -0.156 0.941 0.297 l 0.805 2.762 c 0.133 0.457 0.578 1.047 0.984 1.313 l 2.457 1.59 c 0.41 0.266 0.406 0.699 0 0.961 l -2.457 1.594" fill="#fff"/><g fill="#ed9a00"><path d="m 7.973 9.984 h 1.191 v 3.102 h -1.191"/><path d="m 13.582 13.09 l -0.852 -2.715 l -1.141 0.34 l 0.746 2.375"/><path d="m 9.738 8.82 h 1.191 v 4.266 h -1.191"/></g></svg>