<svg xmlns="http://www.w3.org/2000/svg" viewBox="0 0 22 22"><path d="m 3.777 18.242 c -11.16 -8.937 5.18 -25.07 15.06 -14.766 c 9.898 8.871 -5.551 26.09 -15.06 14.766" fill="#008dee"/><path d="m 12.965 18.06 l 3.398 -4.098 l -1.754 -0.051 l 2.063 -3.207 c 0 0 0.742 -1.113 -0.605 -1.594 l -9.559 -3.438 c 0 0 -0.535 -0.293 -0.445 0.547 c 0 0 0.207 1.684 1.039 2.375 l 4.793 1.523 l -4.555 -0.895 c 0 0 -0.668 -0.148 -0.418 0.563 c 0 0 0.52 1.426 1.664 1.789 l 3.621 0.039 l -3.16 0.453 c 0 0 -0.566 0.082 -0.063 0.656 c 0 0 0.832 1.039 2.051 1.121 l 1.793 -0.355 l -0.488 1.922 h 1.441" fill="#fff"/></svg>