<svg xmlns="http://www.w3.org/2000/svg" xmlns:xlink="http://www.w3.org/1999/xlink" viewBox="0 0 22 22"><defs><g id="3" clip-path="url(#2)"><path d="m 60.57 49.34 c 0 7.02 -5.86 13.231 -13.2 13.231 c -6.873 0 -13.22 -5.677 -13.22 -13.231 c 0 -7.658 6.02 -13.273 13.22 -13.273 c 7.38 0 13.2 5.924 13.2 13.273 m -36.476 -8.649 c -0.892 2.023 -2.92 3.468 -5.272 3.468 h -2.088 c -2.17 0 -3.913 1.734 -3.913 3.901 v 2.766 c 0 2.147 1.744 3.881 3.893 3.881 h 2.109 c 2.352 0 4.38 1.445 5.272 3.488 l 0.71 1.486 c 0.811 2.064 0.385 4.521 -1.277 6.172 l -1.48 1.486 c -1.521 1.528 -1.521 4 0 5.511 l 1.946 1.961 c 1.521 1.528 3.994 1.528 5.515 0 l 1.48 -1.466 c 1.663 -1.672 4.116 -2.105 6.184 -1.28 l 1.561 0.557 c 2.028 0.867 3.467 2.911 3.467 5.264 v 2.105 c 0 2.147 1.744 3.881 3.893 3.881 h 2.778 c 2.149 0 3.893 -1.734 3.893 -3.881 v -2.105 c 0 -2.353 1.44 -4.397 3.467 -5.264 l 1.5 -0.702 c 2.048 -0.826 4.501 -0.413 6.164 1.259 l 1.5 1.486 c 1.521 1.528 3.974 1.528 5.515 0 l 1.946 -1.961 c 1.521 -1.528 1.521 -3.984 0 -5.511 l -1.48 -1.466 c -1.663 -1.672 -2.088 -4.128 -1.277 -6.193 l 0.568 -1.548 c 0.872 -2.044 2.899 -3.468 5.251 -3.468 h 2.109 c 2.149 0 3.893 -1.755 3.893 -3.901 v -2.766 c 0 -2.167 -1.744 -3.901 -3.893 -3.901 h -2.088 c -2.352 0 -4.4 -1.445 -5.272 -3.468 l -0.71 -1.507 c -0.811 -2.044 -0.406 -4.5 1.277 -6.172 l 1.48 -1.486 c 1.521 -1.528 1.521 -3.984 0 -5.511 l -1.967 -1.961 c -1.521 -1.507 -3.974 -1.507 -5.495 0 l -1.48 1.486 c -1.663 1.672 -4.136 2.085 -6.184 1.28 l -1.561 -0.557 c -2.028 -0.888 -3.467 -2.911 -3.467 -5.264 v -2.105 c 0 -2.147 -1.744 -3.901 -3.893 -3.901 h -2.778 c -2.149 0 -3.893 1.755 -3.893 3.901 v 2.085 c 0 2.353 -1.44 4.397 -3.467 5.284 l -1.5 0.702 c -2.068 0.805 -4.521 0.392 -6.184 -1.28 l -1.48 -1.486 c -1.521 -1.507 -3.994 -1.507 -5.515 0 l -1.946 1.961 c -1.521 1.528 -1.521 3.984 0 5.511 l 1.48 1.486 c 1.663 1.651 2.088 4.128 1.277 6.193 l -0.568 1.548" transform="matrix(0.19266 0 0 0.18924 1.955 1.921)" stroke="#8b0000"/></g><g id="6" clip-path="url(#5)"><path d="m 61.49 49.34 c 0 7.761 -6.245 14.14 -14.11 14.14 c -7.806 0 -14.15 -6.337 -14.15 -14.14 c 0 -7.617 6.184 -14.181 14.193 -14.181 c 7.867 0 14.09 6.337 14.09 14.181 m -35.726 -8.03 c -0.811 1.878 -2.697 4.294 -4.886 4.294 h -1.946 c -1.987 0 -4.116 0.537 -4.116 2.539 v 2.56 c 0 2 2.129 2.663 4.116 2.663 h 1.946 c 2.19 0 4.075 2.291 4.886 4.17 l 0.649 1.383 c 0.75 1.92 1.176 4.975 -0.365 6.523 l -1.379 1.383 c -1.419 1.404 -2.514 3.241 -1.095 4.644 l 1.805 1.816 c 1.419 1.424 3.122 0.33 4.542 -1.073 l 1.358 -1.362 c 1.561 -1.548 4.704 -1.197 6.61 -0.454 l 1.44 0.516 c 1.886 0.826 4.501 2.147 4.623 4.335 l 0.081 1.651 c 0.101 1.982 0.101 5.02 2.088 5.02 h 2.575 c 1.987 0 2.129 -2.518 2.129 -4.521 v -1.94 c 0 -2.188 2.859 -3.716 4.745 -4.541 l 1.379 -0.64 c 1.906 -0.764 5.515 -1.218 7.06 0.31 l 1.379 1.383 c 1.419 1.424 2.697 2.56 4.116 1.156 l 1.825 -1.816 c 1.399 -1.404 -0.284 -3.22 -1.703 -4.624 l -1.358 -1.383 c -1.541 -1.528 -0.588 -4.603 0.162 -6.502 l 0.507 -1.445 c 0.831 -1.878 2.697 -4.417 4.886 -4.417 h 1.946 c 1.987 0 3.994 -0.413 3.994 -2.415 v -2.56 c 0 -2 -2.048 -2.312 -4.03 -2.312 h -1.946 c -2.17 0 -4.01 -2.642 -4.846 -4.521 l -0.649 -1.383 c -0.75 -1.92 -1.277 -4.933 0.264 -6.482 l 1.379 -1.362 c 1.419 -1.424 2.534 -3.571 1.115 -4.975 l -1.805 -1.816 c -1.419 -1.404 -2.818 -0.083 -4.238 1.321 l -1.358 1.362 c -1.561 1.548 -4.927 1.218 -6.833 0.475 l -1.44 -0.516 c -1.886 -0.826 -4.542 -2.704 -4.542 -4.892 v -1.94 c 0 -2 -0.284 -4.128 -2.291 -4.128 h -2.555 c -2.01 0 -2.251 2 -2.251 4 v 1.94 c 0 2.167 -2.494 4.066 -4.38 4.892 l -1.582 0.764 c -1.926 0.764 -5.251 1.197 -6.792 -0.33 l -1.379 -1.383 c -1.419 -1.404 -2.981 -2.663 -4.4 -1.259 l -1.805 1.816 c -1.419 1.404 -0.243 3.468 1.176 4.871 l 1.358 1.383 c 1.541 1.548 1.115 4.479 0.365 6.378 l -0.527 1.445" transform="matrix(0.19266 0 0 0.18924 1.955 1.921)" stroke="#8b0000"/></g><clipPath id="2"><path d="M 0,0 H22 V22 H0 z"/></clipPath><clipPath id="5"><path d="M 0,0 H22 V22 H0 z"/></clipPath><filter id="0" filterUnits="objectBoundingBox" x="0" y="0" width="22" height="22"><feColorMatrix type="matrix" in="SourceGraphic" values="0 0 0 0 1 0 0 0 0 1 0 0 0 0 1 0 0 0 1 0"/></filter><mask id="4"><g filter="url(#0)"><path fill-opacity="0.302" d="M 0,0 H22 V22 H0 z"/></g></mask><mask id="1"><g filter="url(#0)"><path fill-opacity="0.078" d="M 0,0 H22 V22 H0 z"/></g></mask></defs><path d="m 19.441 4.02 c 5.352 8.23 1.035 15.727 -5.03 17.504 c -8.148 2.395 -19.211 -3.895 -11.922 -16.852 c 2.898 -5.152 13.14 -6.516 16.949 -0.652" fill="#ab0b0b"/><path d="m 125.82 119.27 c -63.955 18.455 -117.86 34.09 -119.82 34.636 l -3.5 1.091 l 0.545 4.636 c 0.909 7.955 4.909 21.636 8.455 29.27 c 7.05 15.05 18.773 29.27 32.682 39.773 c 29.955 22.545 73.955 31.32 113.77 22.727 c 50.23 -10.909 87.95 -51.55 95.23 -102.64 c 2.227 -15.864 -0.091 -40.23 -5.5 -57.41 c -1.545 -4.909 -2.182 -5.909 -3.727 -5.818 c -1 0.045 -54.18 15.227 -118.14 33.727" transform="scale(0.08594)" fill="#b82f2f" fill-rule="evenodd" stroke="#b82f2f"/><use xlink:href="#3" mask="url(#1)"/><use xlink:href="#6" mask="url(#4)"/><g stroke="#8b0000" transform="matrix(0.19266 0 0 0.18924 1.955 1.921)"><path d="m 61.993 49.34 c -0.041 7.968 -6.123 14.635 -14.619 14.635 c -8.151 0 -14.74 -5.759 -14.74 -14.635 c 0 -8.215 6.529 -14.697 14.74 -14.697 c 7.989 0 14.639 6.275 14.619 14.697 m -35.503 -7.761 c -0.791 1.816 -2.595 4.644 -4.724 4.644 h -1.886 c -1.926 0 -3.974 0.041 -3.974 1.961 v 2.477 c 0 1.94 2.048 2.064 3.974 2.064 h 1.886 c 2.109 0 3.933 2.725 4.724 4.541 l 0.629 1.342 c 0.73 1.858 1.642 5.057 0.142 6.543 l -1.338 1.342 c -1.358 1.362 -2.92 2.89 -1.561 4.252 l 1.764 1.755 c 1.358 1.383 2.433 0.083 3.792 -1.28 l 1.318 -1.321 c 1.5 -1.507 5.13 -0.929 6.995 -0.186 l 1.379 0.495 c 1.825 0.784 5.03 2.105 5.15 4.211 l 0.081 1.61 c 0.081 1.878 -0.182 4.81 1.744 4.81 h 1.967 c 1.926 0 1.48 -2.353 1.48 -4.273 v -1.878 c 0 -2.105 3.467 -3.695 5.292 -4.479 l 1.338 -0.619 c 1.845 -0.743 5.9 -1.631 7.401 -0.124 l 1.318 1.321 c 1.379 1.362 2.048 2.911 3.427 1.548 l 1.744 -1.755 c 1.358 -1.362 -0.791 -2.642 -2.17 -4 l -1.318 -1.321 c -1.5 -1.507 -0.041 -4.933 0.689 -6.771 l 0.507 -1.404 c 0.791 -1.816 2.595 -4.727 4.724 -4.727 h 1.886 c 1.926 0 3.852 0.062 3.852 -1.878 v -2.477 c 0 -1.92 -1.967 -1.734 -3.913 -1.734 h -1.865 c -2.109 0 -3.893 -3.055 -4.684 -4.871 l -0.629 -1.342 c -0.73 -1.858 -1.622 -5.222 -0.122 -6.729 l 1.318 -1.321 c 1.379 -1.362 2.839 -2.972 1.48 -4.335 l -1.764 -1.755 c -1.358 -1.362 -2.17 0.268 -3.528 1.631 l -1.338 1.342 c -1.48 1.486 -5.312 0.805 -7.157 0.062 l -1.379 -0.495 c -1.825 -0.784 -4.947 -2.601 -4.947 -4.727 v -1.878 c 0 -1.92 0.264 -3.984 -1.663 -3.984 h -2.494 c -1.926 0 -1.602 1.899 -1.602 3.819 v 1.878 c 0 2.126 -2.413 3.943 -4.238 4.748 l -2.109 0.784 c -1.845 0.722 -5.657 1.362 -7.157 -0.124 l -1.338 -1.342 c -1.358 -1.362 -2.271 -2.787 -3.65 -1.424 l -1.744 1.755 c -1.358 1.362 0.223 3.034 1.602 4.397 l 1.318 1.342 c 1.5 1.486 0.608 4.644 -0.122 6.482 l -0.507 1.404"/><path d="m 61.993 48.717 c -0.041 7.947 -6.123 14.635 -14.619 14.635 c -8.151 0 -14.74 -5.78 -14.74 -14.635 c 0 -8.236 6.529 -14.697 14.74 -14.697 c 7.989 0 14.639 6.275 14.619 14.697 m -35.503 -7.761 c -0.791 1.816 -2.595 4.644 -4.724 4.644 h -1.886 c -1.926 0 -3.974 0.021 -3.974 1.961 v 2.477 c 0 1.94 2.048 2.064 3.974 2.064 h 1.886 c 2.109 0 3.933 2.725 4.724 4.541 l 0.629 1.342 c 0.73 1.837 1.642 5.057 0.142 6.543 l -1.338 1.342 c -1.358 1.362 -2.92 2.89 -1.561 4.252 l 1.764 1.755 c 1.358 1.362 2.433 0.083 3.792 -1.28 l 1.318 -1.342 c 1.5 -1.486 5.13 -0.908 6.995 -0.165 l 1.379 0.495 c 1.825 0.784 5.03 2.105 5.15 4.211 l 0.081 1.61 c 0.081 1.878 -0.182 4.81 1.744 4.81 h 1.967 c 1.926 0 1.48 -2.353 1.48 -4.273 v -1.878 c 0 -2.105 3.467 -3.695 5.292 -4.479 l 1.338 -0.64 c 1.845 -0.722 5.9 -1.61 7.401 -0.103 l 1.318 1.321 c 1.379 1.362 2.048 2.911 3.427 1.548 l 1.744 -1.755 c 1.358 -1.362 -0.791 -2.642 -2.17 -4 l -1.318 -1.321 c -1.5 -1.507 -0.041 -4.933 0.689 -6.771 l 0.507 -1.404 c 0.791 -1.816 2.595 -4.727 4.724 -4.727 h 1.886 c 1.926 0 3.852 0.062 3.852 -1.878 v -2.477 c 0 -1.94 -1.967 -1.734 -3.913 -1.734 h -1.865 c -2.109 0 -3.893 -3.055 -4.684 -4.871 l -0.629 -1.342 c -0.73 -1.858 -1.622 -5.243 -0.122 -6.729 l 1.318 -1.321 c 1.379 -1.383 2.839 -2.972 1.48 -4.355 l -1.764 -1.755 c -1.358 -1.362 -2.17 0.289 -3.528 1.651 l -1.338 1.321 c -1.48 1.507 -5.312 0.805 -7.157 0.083 l -1.379 -0.495 c -1.825 -0.805 -4.947 -2.601 -4.947 -4.727 v -1.878 c 0 -1.94 0.264 -3.984 -1.663 -3.984 h -2.494 c -1.926 0 -1.602 1.899 -1.602 3.819 v 1.878 c 0 2.105 -2.413 3.943 -4.238 4.727 l -2.109 0.784 c -1.845 0.743 -5.657 1.383 -7.157 -0.103 l -1.338 -1.342 c -1.358 -1.362 -2.271 -2.787 -3.65 -1.424 l -1.744 1.755 c -1.358 1.362 0.223 3.034 1.602 4.397 l 1.318 1.321 c 1.5 1.507 0.608 4.644 -0.122 6.502 l -0.507 1.383" fill="#fff"/></g></svg>