<svg xmlns="http://www.w3.org/2000/svg" viewBox="0 0 22 22"><path d="m 2.355 7.188 c -1.039 1.332 -2.078 3.844 -2.211 5.344 c -0.191 2.164 0.555 4.637 1.84 6.121 c 1.723 1.988 5.191 3.285 8.652 3.238 c 2.488 -0.031 5.816 -0.797 7.52 -1.727 c 1.445 -0.793 2.477 -1.945 3.047 -3.402 c 0.766 -1.977 0.801 -3.902 0.102 -5.813 c -1.137 -4.082 -3.715 -6.824 -6.02 -9.01 c -5.863 -4.887 -9.75 1.105 -12.926 5.25" fill="#ff4500"/><path d="m 10.934 3.102 c -0.629 1.547 -1.012 2.559 -1.715 4.063 c 0.613 0.309 1.148 0.801 1.82 1.586 c -0.766 -0.602 -1.359 -0.969 -2.023 -1.156 c -0.902 1.879 -2.309 4.551 -5.168 9.688 c 0.848 -0.496 5.641 -1.75 5.203 -2.883 c -0.117 -0.281 -0.352 -0.32 -0.715 -0.449 v -0.719 c 0.363 -0.129 0.598 -0.168 0.715 -0.449 c 0.121 -0.285 -0.02 -0.48 -0.188 -0.828 l 0.512 -0.508 c 0.348 0.168 0.539 0.305 0.824 0.188 c 0.281 -0.117 0.32 -0.352 0.449 -0.719 h 0.723 c 0.129 0.367 0.164 0.602 0.449 0.719 c 0.281 0.117 0.477 -0.023 0.824 -0.188 l 0.512 0.508 c -0.168 0.352 -0.309 0.543 -0.191 0.828 c 0.117 0.281 0.352 0.316 0.719 0.449 v 0.719 c -2.383 1.332 3.184 2.871 4.344 3.332 c -0.438 -0.805 -0.828 -1.531 -1.199 -2.223 c -0.59 -0.453 -1.199 -1.047 -2.449 -1.688 c 0.859 0.223 1.473 0.48 1.953 0.77 c -3.789 -7.05 -4.098 -7.992 -5.398 -11.04 m 0.074 9.598 c -0.492 0 -0.891 0.398 -0.891 0.891 c 0 0.492 0.398 0.891 0.891 0.891 c 0.492 0 0.891 -0.398 0.891 -0.891 c 0 -0.492 -0.398 -0.891 -0.891 -0.891" fill="#fff"/></svg>