<svg xmlns="http://www.w3.org/2000/svg" viewBox="0 0 22 22"><path d="m 0.254 13.449 c 1.367 8.945 13.48 11.336 18.828 4.953 c 4.711 -4.742 3.539 -13.816 -2.238 -16.93 c -6.633 -4.16 -16.301 0.984 -16.828 9.273 c -0.055 0.906 0.023 1.824 0.238 2.707" fill="#7f7f7f"/><path d="m 17.14 15.645 v -8.523 c 0 -0.125 -0.109 -0.23 -0.242 -0.23 h -11.04 c -0.133 0 -0.242 0.105 -0.242 0.23 v 8.523 c 0 0.125 0.109 0.23 0.242 0.23 h 11.04 c 0.133 0 0.242 -0.105 0.242 -0.23" fill-opacity="0.2"/><path d="m 17.14 15.434 v -8.52 c 0 -0.129 -0.109 -0.23 -0.242 -0.23 h -11.04 c -0.133 0 -0.242 0.102 -0.242 0.23 v 8.52 c 0 0.129 0.109 0.23 0.242 0.23 h 11.04 c 0.133 0 0.242 -0.102 0.242 -0.23" fill="#4e4e4e"/><g fill-opacity="0.4"><path d="m 15.586 8.145 h 0.836 c 0.055 0 0.098 0.043 0.098 0.094 v 0.859 c 0 0.051 -0.043 0.09 -0.098 0.09 h -0.836 c -0.055 0 -0.098 -0.039 -0.098 -0.09 v -0.859 c 0 -0.051 0.043 -0.094 0.098 -0.094"/><path d="m 15.586 13.16 h 0.836 c 0.055 0 0.098 0.039 0.098 0.094 v 0.855 c 0 0.051 -0.043 0.094 -0.098 0.094 h -0.836 c -0.055 0 -0.098 -0.043 -0.098 -0.094 v -0.855 c 0 -0.055 0.043 -0.094 0.098 -0.094"/><path d="m 15.586 11.488 h 0.836 c 0.055 0 0.098 0.039 0.098 0.094 v 0.855 c 0 0.051 -0.043 0.094 -0.098 0.094 h -0.836 c -0.055 0 -0.098 -0.043 -0.098 -0.094 v -0.855 c 0 -0.055 0.043 -0.094 0.098 -0.094"/><path d="m 15.586 9.816 h 0.836 c 0.055 0 0.098 0.043 0.098 0.094 v 0.855 c 0 0.055 -0.043 0.094 -0.098 0.094 h -0.836 c -0.055 0 -0.098 -0.039 -0.098 -0.094 v -0.855 c 0 -0.051 0.043 -0.094 0.098 -0.094"/></g><path d="m 9.688 9.188 c -0.152 0 -0.176 0.191 -0.164 0.328 c 0 1.301 -0.004 2.598 0 3.895 c 0.016 0.156 0.184 0.215 0.281 0.121 c 1.031 -0.664 2.531 -1.324 3.563 -1.992 c 0.109 -0.09 0.066 -0.305 -0.059 -0.348 c -1.031 -0.664 -2.527 -1.328 -3.559 -1.988 c -0.02 -0.008 -0.039 -0.012 -0.063 -0.016" fill-opacity="0.2"/><path d="m 9.688 8.98 c -0.152 -0.004 -0.176 0.188 -0.164 0.328 c 0 1.297 -0.004 2.594 0 3.891 c 0.016 0.156 0.184 0.219 0.281 0.121 c 1.031 -0.664 2.531 -1.324 3.563 -1.988 c 0.109 -0.094 0.066 -0.309 -0.059 -0.352 c -1.031 -0.66 -2.527 -1.328 -3.559 -1.984 c -0.02 -0.012 -0.039 -0.016 -0.063 -0.016" fill="#fff"/><g fill-opacity="0.4"><path d="m 6.324 8.145 h 0.836 c 0.051 0 0.098 0.043 0.098 0.094 v 0.859 c 0 0.051 -0.047 0.09 -0.098 0.09 h -0.836 c -0.055 0 -0.098 -0.039 -0.098 -0.09 v -0.859 c 0 -0.051 0.043 -0.094 0.098 -0.094"/><path d="m 6.324 13.16 h 0.836 c 0.051 0 0.098 0.039 0.098 0.094 v 0.855 c 0 0.051 -0.047 0.094 -0.098 0.094 h -0.836 c -0.055 0 -0.098 -0.043 -0.098 -0.094 v -0.855 c 0 -0.055 0.043 -0.094 0.098 -0.094"/><path d="m 6.324 11.488 h 0.836 c 0.051 0 0.098 0.039 0.098 0.094 v 0.855 c 0 0.051 -0.047 0.094 -0.098 0.094 h -0.836 c -0.055 0 -0.098 -0.043 -0.098 -0.094 v -0.855 c 0 -0.055 0.043 -0.094 0.098 -0.094"/><path d="m 6.324 9.816 h 0.836 c 0.051 0 0.098 0.043 0.098 0.094 v 0.855 c 0 0.055 -0.047 0.094 -0.098 0.094 h -0.836 c -0.055 0 -0.098 -0.039 -0.098 -0.094 v -0.855 c 0 -0.051 0.043 -0.094 0.098 -0.094"/></g><path d="m 6.188 6.684 c -0.32 0 -0.578 0.25 -0.578 0.559 v 0.211 c 0 -0.313 0.258 -0.563 0.578 -0.563 h 10.371 c 0.32 0 0.578 0.25 0.578 0.563 v -0.211 c 0 -0.309 -0.258 -0.559 -0.578 -0.559" fill="#fff" fill-opacity="0.102"/></svg>