<svg xmlns="http://www.w3.org/2000/svg" viewBox="0 0 22 22"><path d="m 14.578 1.055 c -10.949 -4.27 -16.566 7.695 -13.773 15.14 c 1.945 5.199 9.711 7.789 15.984 4.098 c 7.918 -4.66 6.234 -15.949 -2.211 -19.242" fill="#817c94"/><path d="m 9.621 17.199 c -0.203 -0.086 -0.285 -0.164 -0.41 -0.379 l -0.156 -0.27 l 0.035 -1.328 c 0.027 -1.281 0.035 -1.336 0.18 -1.602 c 0.188 -0.355 0.559 -0.563 0.938 -0.52 c 0.34 0.039 0.664 0.234 0.816 0.496 c 0.125 0.215 0.129 0.266 0.109 1.66 c -0.016 1.309 -0.027 1.453 -0.133 1.621 c -0.242 0.391 -0.863 0.535 -1.379 0.32 m 0.637 -1.953 c 0.031 -1.191 0.012 -1.324 -0.203 -1.258 c -0.082 0.027 -0.094 0.172 -0.094 1.125 c 0.004 1.176 0.023 1.328 0.172 1.301 c 0.082 -0.012 0.098 -0.156 0.125 -1.168 m -4.785 1.906 c -0.039 -0.031 -0.07 -0.152 -0.07 -0.27 c -0.152 -0.891 -0.121 -1.898 -0.27 -2.641 c -0.051 -0.227 -0.145 -1.809 -0.109 -1.84 c 0.02 -0.016 0.246 -0.027 0.5 -0.031 c 0.383 -0.004 0.477 0.012 0.5 0.074 c 0.016 0.043 0.043 0.465 0.059 0.938 c 0.035 0.926 0.074 1.246 0.168 1.398 c 0.055 0.09 0.063 0.09 0.113 -0.027 c 0.031 -0.066 0.066 -0.605 0.082 -1.199 c 0.016 -0.594 0.039 -1.105 0.051 -1.137 c 0.031 -0.074 0.824 -0.055 0.938 0.023 c 0.063 0.043 0.09 0.328 0.117 1.227 c 0.023 0.691 0.063 1.227 0.105 1.313 l 0.066 0.145 l 0.066 -0.121 c 0.039 -0.074 0.078 -0.637 0.098 -1.375 l 0.031 -1.254 c 0.309 0.008 0.625 -0.027 0.934 0.012 c 0.203 0.027 0.207 0.09 0.047 0.863 c -0.113 0.543 -0.215 1.648 -0.293 3.199 l -0.035 0.738 l -0.563 0.012 c -0.91 0.016 -0.828 0.098 -0.832 -0.859 c -0.004 -0.855 -0.043 -1.195 -0.145 -1.195 c -0.102 0 -0.195 0.477 -0.238 1.223 c -0.023 0.398 -0.066 0.75 -0.102 0.785 c -0.082 0.082 -1.117 0.082 -1.219 0 m 5.91 -0.008 c 0 -0.043 0.027 -0.133 0.059 -0.203 c 0.051 -0.113 0.082 -2.695 0.039 -3.512 l -0.008 -0.219 l 0.336 -0.016 c 1.09 0.121 1.387 -0.059 1.328 0.551 c -0.027 0.262 -0.137 0.508 -0.117 0.547 c 0.059 0.129 -0.031 0.305 -0.176 0.336 c -0.262 0.055 -0.289 0.211 -0.27 1.43 l 0.02 1.129 l -0.605 0.012 c -0.5 0.012 -0.605 0.004 -0.605 -0.055 m 1.914 0.031 c -0.074 -0.043 -0.063 -1.688 0.023 -3.18 l 0.047 -0.785 l 0.383 0.016 c 0.211 0.008 0.41 0.035 0.441 0.059 c 0.094 0.078 0.219 0.055 0.363 -0.074 c 0.133 -0.121 0.348 -0.16 0.469 -0.086 c 0.035 0.02 0.109 0.098 0.164 0.172 c 0.141 0.18 0.246 0.168 0.484 -0.043 c 0.168 -0.152 0.223 -0.176 0.375 -0.152 c 0.199 0.035 0.465 0.23 0.547 0.406 c 0.07 0.156 0.086 3.602 0.012 3.66 c -0.305 0.059 -0.547 0.031 -0.871 0.02 l -0.031 -1.598 c -0.027 -1.555 -0.031 -1.594 -0.148 -1.594 c -0.113 0 -0.117 0.039 -0.148 1.594 l -0.027 1.598 c -0.277 0 -0.555 0 -0.828 0 l -0.016 -1.578 c -0.016 -1.344 -0.031 -1.586 -0.105 -1.641 c -0.063 -0.043 -0.113 -0.047 -0.152 -0.012 c -0.039 0.031 -0.066 0.637 -0.07 1.641 l -0.012 1.59 c -0.297 0 -0.609 0.039 -0.898 -0.012 m -4.441 -6.082 c -0.223 -0.043 -0.492 -0.285 -0.492 -0.449 c 0 -0.078 -0.047 -0.219 -0.105 -0.313 c -0.09 -0.145 -0.102 -0.316 -0.102 -1.293 c 0 -0.957 0.016 -1.156 0.098 -1.301 c 0.055 -0.098 0.117 -0.242 0.137 -0.324 c 0.02 -0.086 0.117 -0.219 0.215 -0.297 c 0.164 -0.129 0.219 -0.141 0.578 -0.141 c 0.348 0 0.43 0.016 0.621 0.137 c 0.41 0.262 0.414 0.277 0.41 1.93 c -0.004 1.637 -0.008 1.664 -0.398 1.91 c -0.203 0.129 -0.656 0.195 -0.965 0.141 m 0.461 -0.922 c 0.004 -0.09 0.008 -2.207 0 -2.277 c 0 -0.039 -0.055 -0.059 -0.129 -0.051 c -0.129 0.016 -0.129 0.027 -0.137 1.121 c -0.008 1.148 0.016 1.344 0.172 1.293 c 0.051 -0.016 0.094 -0.055 0.094 -0.082 m 6.984 0.895 c -0.082 -0.027 -0.211 -0.098 -0.289 -0.156 c -0.297 -0.234 -0.305 -0.273 -0.305 -1.855 c 0 -1.652 0.012 -1.703 0.402 -1.949 c 0.176 -0.109 0.266 -0.133 0.559 -0.129 c 0.676 0.008 0.98 0.375 1.102 1.328 l 0.043 0.352 l -0.156 0.02 c -0.258 0.016 -0.477 -0.012 -0.734 -0.035 l -0.016 -0.402 c -0.016 -0.281 -0.047 -0.418 -0.109 -0.461 c -0.168 -0.113 -0.219 0.02 -0.199 0.527 c 0.023 0.598 0.023 0.746 0.004 1.402 c -0.016 0.539 0.004 0.629 0.141 0.629 c 0.133 0 0.227 -0.324 0.18 -0.617 c -0.059 -0.402 0.012 -0.473 0.461 -0.453 l 0.367 0.012 l 0.016 0.395 c 0.02 0.492 -0.168 0.984 -0.473 1.238 c -0.168 0.137 -0.254 0.168 -0.523 0.188 c -0.152 -0.008 -0.324 0.02 -0.469 -0.031 m -12.254 -0.133 c 0.004 -0.25 0.168 -1.68 0.199 -1.719 c 0.016 -0.023 0.059 -0.438 0.09 -0.926 c 0.039 -0.68 0.188 -1.441 0.215 -2.055 l 0.621 -0.012 c 0.34 -0.008 0.676 -0.004 0.742 0.008 c 0.203 0.043 0.262 0.238 0.262 0.879 c 0 0.328 0.039 0.754 0.086 0.941 c 0.047 0.191 0.102 0.785 0.125 1.328 c 0.035 0.777 0.066 1.027 0.152 1.211 c 0.082 0.172 0.094 0.266 0.051 0.355 c -0.051 0.121 -0.07 0.125 -0.543 0.109 l -0.492 -0.012 v -0.398 c 0 -0.438 -0.07 -0.57 -0.254 -0.477 c -0.078 0.043 -0.109 0.148 -0.129 0.465 l -0.031 0.414 l -0.547 0.012 l -0.547 0.008 m 1.422 -1.789 c 0.055 -0.055 0.066 -0.215 0.039 -0.613 c -0.02 -0.293 -0.051 -0.563 -0.074 -0.59 c -0.09 -0.121 -0.16 0.063 -0.223 0.582 c -0.051 0.438 -0.047 0.555 0.016 0.617 c 0.098 0.098 0.145 0.098 0.242 0.004 m 1.699 1.762 c -0.059 -0.012 -0.168 -0.137 -0.246 -0.277 c -0.137 -0.246 -0.145 -0.313 -0.172 -1.563 c -0.023 -1.102 -0.043 -1.328 -0.121 -1.426 c -0.121 -0.141 -0.121 -0.477 -0.004 -0.605 c 0.066 -0.074 0.078 -0.164 0.051 -0.367 c -0.023 -0.148 -0.063 -0.281 -0.086 -0.297 c -0.027 -0.012 0.191 -0.145 0.48 -0.145 c 0.629 0.008 0.754 0.191 0.715 0.465 c -0.02 0.141 0.008 0.199 0.133 0.293 c 0.137 0.109 0.148 0.145 0.113 0.332 c -0.023 0.121 -0.09 0.242 -0.164 0.289 c -0.117 0.082 -0.121 0.117 -0.105 1.305 l 0.02 1.219 l 0.148 0.102 c 0.133 0.09 0.145 0.133 0.129 0.395 c 0.016 0.352 -0.082 0.289 -0.402 0.297 c -0.211 0.004 -0.43 -0.004 -0.488 -0.016 m 3.461 -0.055 c -0.113 -0.078 -0.117 -0.109 -0.063 -0.379 c 0.074 -0.363 0.09 -2.672 0.023 -3.137 c -0.043 -0.301 -0.039 -0.348 0.059 -0.406 c 0.156 -0.094 0.82 -0.09 0.914 0.008 c 0.105 0.102 0.281 0.09 0.355 -0.023 c 0.121 -0.188 0.652 -0.09 0.652 0.121 c 0 0.129 0.203 0.133 0.332 0.008 c 0.293 -0.281 0.688 -0.293 0.918 -0.023 c 0.129 0.152 0.133 0.176 0.137 2.023 l 0.004 1.871 c -0.27 -0.012 -0.586 0.043 -0.84 -0.039 c -0.02 -0.027 -0.031 -0.738 -0.023 -1.582 c 0.012 -1.355 0.004 -1.535 -0.082 -1.594 c -0.219 -0.152 -0.238 -0.016 -0.238 1.598 c 0 1.32 -0.012 1.555 -0.09 1.594 c -0.125 0.066 -0.695 0.059 -0.746 -0.008 c -0.023 -0.031 -0.035 -0.746 -0.027 -1.59 c 0.012 -1.336 0 -1.535 -0.078 -1.594 c -0.078 -0.051 -0.113 -0.051 -0.188 0 c -0.078 0.055 -0.086 0.262 -0.074 1.59 c 0.012 0.84 -0.004 1.555 -0.031 1.586 c -0.074 0.102 -0.77 0.082 -0.914 -0.023 m 3.746 0.039 c -0.047 -0.063 -0.059 -3.801 -0.012 -3.863 c 0.035 -0.051 0.813 -0.051 0.91 -0.004 c 0.039 0.02 0.055 0.508 0.047 1.324 c -0.012 1.484 0.047 2.438 0.148 2.492 c -0.125 0.105 -0.91 0.203 -1.094 0.051 m -0.051 -4.168 c -0.059 -0.227 -0.074 -0.406 -0.109 -0.648 c 0.391 0.008 0.777 0.02 1.168 0.027 c 0.016 0.203 0.059 0.496 -0.102 0.574 c -0.141 0.063 -0.918 0.102 -0.957 0.047" fill="#010005"/></svg>