<svg xmlns="http://www.w3.org/2000/svg" viewBox="0 0 22 22"><path d="m 21.16 13.07 c -2.207 14.813 -24.914 9.754 -20.621 -4.582 c 2.879 -13.621 26.13 -9.93 20.621 4.582" fill="#c0c0c0"/><g fill="#fff"><path d="m 13.953 14.656 v 3.398 h 3.09 v -3.398"/><path d="m 9.566 14.656 v 3.398 h 3.09 v -3.398"/><path d="m 5.145 14.57 v 3.398 h 3.09 v -3.398"/><g fill-rule="evenodd" stroke="#fff" transform="scale(0.08594)"><path d="m 67.955 112.5 v -36.27 h 18.455 c 20.05 0 25.727 1 31.727 5.591 c 7.727 5.955 9.864 19.5 4.636 29.09 c -4.227 7.773 -11.318 10.909 -25.727 11.5 l -11.545 0.455 v 25.909 h -17.545 m 36.955 -42.18 c 2.045 -2.091 2.818 -4.182 2.818 -7.409 c -0.091 -7.955 -4.545 -11.09 -15.864 -11.09 h -6.364 v 21.409 h 8.273 c 7.182 0 8.591 -0.364 11.09 -2.909" stroke-width="1.348"/><path d="m 139.55 113.05 v -35.773 h 18.14 v 57.45 h 33.818 v 14.05 h -51.955" stroke-width="1.359"/></g></g></svg>