<svg xmlns="http://www.w3.org/2000/svg" viewBox="0 0 22 22"><path d="m 20.961 6.91 c 8.262 26.746 -36.14 13.371 -15.375 -4.953 c 4.16 -3.672 13.148 -2.258 15.375 4.953" fill="#453330"/><path d="m 10.07 16.965 c -1.887 -0.113 -3.133 -0.582 -3.656 -1.367 l -0.184 -0.281 l -0.016 -1.063 c -0.008 -0.582 0 -1.063 0.016 -1.063 c 0.02 0 0.145 0.121 0.281 0.262 c 0.43 0.457 1.188 0.789 2.156 0.953 c 1.953 0.324 4.41 0.195 5.359 -0.285 c 0.254 -0.129 0.422 -0.176 0.691 -0.199 c 0.199 -0.016 0.48 -0.074 0.633 -0.129 c 0.379 -0.133 0.387 -0.121 0.363 0.754 c -0.02 0.82 -0.063 0.953 -0.422 1.32 c -0.328 0.336 -0.902 0.633 -1.543 0.801 c -0.988 0.262 -2.398 0.375 -3.68 0.297 m 6.699 -2.465 c -0.488 -0.5 -0.527 -0.555 -0.668 -0.941 c -0.195 -0.531 -0.223 -0.555 -0.48 -0.398 c -0.793 0.484 -1.816 0.328 -2.457 -0.371 c -0.301 -0.328 -0.473 -0.688 -0.551 -1.152 c -0.141 -0.848 0.348 -1.762 1.176 -2.195 c 0.266 -0.137 0.32 -0.148 0.813 -0.148 c 0.488 0 0.547 0.012 0.844 0.156 c 0.563 0.277 0.938 0.734 1.113 1.355 c 0.148 0.527 0.055 1.164 -0.238 1.648 c -0.066 0.105 -0.117 0.223 -0.117 0.262 c 0 0.039 0.176 0.148 0.398 0.254 c 0.352 0.16 0.461 0.246 0.855 0.664 c 0.25 0.266 0.48 0.527 0.512 0.59 c 0.176 0.359 -0.086 0.809 -0.477 0.809 c -0.195 0 -0.227 -0.023 -0.723 -0.531 m -1.797 -1.922 c 0.691 -0.215 1.051 -1.051 0.758 -1.742 c -0.211 -0.496 -0.59 -0.742 -1.129 -0.746 c -0.406 0 -0.645 0.113 -0.918 0.441 c -0.809 0.953 0.113 2.414 1.289 2.047 m -5.707 1.332 c -1.531 -0.195 -2.508 -0.652 -2.906 -1.355 c -0.129 -0.227 -0.129 -0.25 -0.145 -1.164 c -0.008 -0.516 -0.004 -0.973 0.012 -1.016 c 0.023 -0.059 0.09 -0.016 0.305 0.195 c 0.719 0.711 2.059 1.035 4.32 1.035 c 0.809 0 1.094 0.016 1.129 0.059 c 0.023 0.035 0.074 0.176 0.109 0.313 c 0.113 0.445 0.332 0.828 0.672 1.176 c 0.18 0.184 0.391 0.367 0.473 0.41 c 0.297 0.16 0.16 0.258 -0.523 0.371 c -0.438 0.074 -2.828 0.059 -3.441 -0.023 m 0.402 -2.938 c -1.523 -0.141 -2.547 -0.492 -3.09 -1.059 c -0.18 -0.184 -0.289 -0.348 -0.324 -0.477 c -0.07 -0.258 -0.07 -1.758 0 -1.758 c 0.027 0 0.117 0.066 0.195 0.152 c 0.344 0.355 1.078 0.633 2.109 0.801 c 0.605 0.098 0.867 0.109 2.379 0.113 c 1.391 0 1.801 -0.016 2.27 -0.09 c 1.125 -0.172 1.813 -0.422 2.219 -0.801 c 0.109 -0.105 0.219 -0.168 0.25 -0.148 c 0.055 0.035 0.039 1.09 -0.02 1.148 c -0.016 0.016 -0.152 -0.012 -0.305 -0.063 c -0.211 -0.074 -0.418 -0.094 -0.855 -0.094 h -0.578 l -0.457 0.234 c -0.734 0.379 -1.199 0.953 -1.383 1.703 c -0.035 0.137 -0.082 0.273 -0.105 0.309 c -0.031 0.047 -0.297 0.059 -1.078 0.055 c -0.57 -0.004 -1.121 -0.016 -1.227 -0.027 m 0.191 -2.973 c -1.91 -0.148 -3.34 -0.57 -3.586 -1.066 c -0.188 -0.371 0.18 -0.707 1.105 -1.01 c 1.766 -0.578 5.453 -0.57 7.215 0.016 c 1.055 0.352 1.375 0.832 0.828 1.242 c -0.371 0.281 -1.355 0.574 -2.379 0.715 c -0.57 0.078 -2.621 0.145 -3.184 0.102" fill="#fff"/></svg>