<svg xmlns="http://www.w3.org/2000/svg" viewBox="0 0 22 22"><path d="m 16.656 1.605 c 19.367 16.621 -20.449 32.602 -16.359 6.895 c 0.898 -5.637 11.141 -11.375 16.359 -6.895" fill="#8c8c8c"/><g fill="#2d2d2d" stroke="#2d2d2d"><path d="m 298.11 163.13 c -26.818 -2.909 -52.18 -20.364 -65 -44.773 c -5.318 -10.136 -7.273 -16.636 -7.955 -27.09 c -0.636 -8.773 0.091 -21.18 1.5 -26.5 c 2.227 -8.364 6.909 -18.18 13.227 -27.773 c 5.545 -8.318 5.909 -9.318 5.909 -15.682 v -5.545 l 5.318 0.455 c 6.818 0.636 9.364 0.091 19.273 -4.136 c 9.909 -4.227 16.591 -6.682 21.318 -7.818 c 11.636 -2.727 28.318 -2.773 37.682 -0.091 c 12.136 3.455 20.409 7.818 30.909 16.273 c 5.5 4.409 6.409 4.955 8.591 4.955 c 2.773 0 10.773 1.045 11.182 1.409 c 0.136 0.136 -0.227 2.273 -0.773 4.727 c -1.409 5.909 -1.045 7.955 2.909 15.909 c 6.818 13.909 8 19.318 8 37.14 c 0.045 14.409 -0.273 16.182 -4.364 26.409 c -8.545 21.14 -24.909 37.36 -46.818 46.41 c -6.136 2.545 -12.136 4.045 -19.318 4.864 c -6.5 0.682 -18.591 1.227 -21.591 0.864 m 29.18 -8.818 c 5.136 -1.318 15.955 -6 21.18 -9.182 c 16.818 -10.182 28.818 -27.727 33.636 -49.14 c 1.091 -4.773 1.364 -7.864 1.409 -16.05 c 0.045 -12.409 -1 -17.545 -4.955 -24.591 c -1.455 -2.591 -4.136 -7.682 -5.955 -11.318 c -3.227 -6.318 -3.727 -6.955 -10.818 -13.682 c -9.136 -8.636 -14.318 -12.455 -21.409 -15.727 c -8.636 -3.955 -20.864 -6.636 -30.14 -6.636 c -5.364 0 -13.409 1.182 -20.05 2.955 c -4.955 1.364 -14.636 5.545 -17 7.364 l -1.455 1.136 l 3.455 0.955 c 4.227 1.182 4.227 1.318 1.318 9.636 c -1.182 3.318 -2.136 6.727 -2.136 7.636 c 0 1.864 0.727 2 4.455 1 c 4.136 -1.091 10.909 -1.5 16.409 -1.045 c 7.545 0.682 11.909 2.818 17.5 8.545 c 4.818 4.909 9.273 12.818 11.5 20.409 c 2.727 9.136 2.227 25.364 -1 33.5 c -6.864 17.409 -18.818 28.09 -31.545 28.05 c -6.05 0 -14.455 -3.182 -22.14 -8.409 c -2.182 -1.455 -4.273 -2.636 -4.682 -2.636 c -0.364 0 -1 0.773 -1.318 1.682 c -0.545 1.409 -1.227 1.909 -3.864 2.636 c -1.773 0.5 -4.818 1.091 -6.727 1.273 c -3.455 0.364 -3.5 0.318 -3.5 -1.091 c 0 -4.182 -2.545 -60.727 -3.091 -68.64 c -0.636 -9.545 -0.909 -11.318 -1.727 -11.318 c -0.5 0 -5.409 9.636 -8.227 16.14 c -0.864 2 -2.318 6.455 -3.227 9.864 c -1.455 5.545 -1.636 7.273 -1.636 16.364 c 0 8.636 0.227 10.955 1.409 15.591 c 3.682 14.14 10.636 25.773 21.409 35.909 c 11.727 11 24.273 17.455 38.14 19.591 c 8 1.273 28.727 0.773 34.773 -0.773 m -41.41 -51.41 c 1.818 -1.636 3.955 -6.409 4.682 -10.364 c 0.864 -4.955 -1.273 -8.636 -6.682 -11.318 c -2.636 -1.318 -3.909 -1.545 -8.136 -1.545 c -3.864 -0.045 -5.182 0.182 -5.636 0.818 c -0.318 0.5 -0.591 5.091 -0.591 10.182 c 0 10.545 0.227 11.227 4.5 13.09 c 1.773 0.773 3.591 1.045 6.273 0.955 c 3.227 -0.136 4.091 -0.409 5.591 -1.818" transform="matrix(0.08594 0 0 0.08594 -15.857 4.45)" stroke-width="0.547"/><g stroke-width="0.534" transform="scale(0.08594)"><path d="m 159.5 182.18 c -6.773 -1.136 -10.318 -5.682 -10.364 -13.273 c 0.045 -5.545 3.955 -8.091 8.727 -9.773 c 6.909 -2.409 10.545 -1.455 14.909 3.818 c 4.5 5.5 4.409 9.409 -0.273 14.636 c -4.182 4.636 -6.955 5.636 -13 4.591"/><path d="m 169.73 147.09 c -6.364 -1.682 -10 -2.955 -11.727 -4.091 c 0.045 -14.636 1.864 -42.27 2.455 -62.36 c 0.409 -1.091 35.545 -5.455 34.27 -1.182 c -4.273 15.182 -9 38.909 -13.14 54.09 c -2.773 10.182 -4.682 15 -5.909 14.955 c -0.409 0 -3.091 -0.636 -5.955 -1.409"/></g></g></svg>