<svg xmlns="http://www.w3.org/2000/svg" viewBox="0 0 22 22"><path d="m 18.246 3.938 c 11.164 8.926 -5.18 25.04 -15.06 14.742 c -9.898 -8.855 5.551 -26.05 15.06 -14.742" fill="#6f628e"/><path d="m 17.895 11.313 c 0 -3.77 -3.066 -6.824 -6.848 -6.824 c -3.785 0 -6.852 3.055 -6.852 6.824 c 0 3.766 3.066 6.824 6.852 6.824 c 3.781 0 6.848 -3.059 6.848 -6.824" fill="#231054" fill-opacity="0.988"/><g fill="#fff" fill-rule="evenodd"><path d="m 9.758 11.191 l 4.391 -1.086 c 0 0 0.672 -1.523 0.285 -2.773 c -0.621 -1.742 -1.813 -2.059 -1.813 -2.059 l -4.426 1.207 c 0 0 1.547 1.078 1.848 2.152 c 0.297 1.25 -0.285 2.559 -0.285 2.559"/><path d="m 10.973 16.773 l 4.57 -1.176 c 0 0 1.023 -1.402 0.547 -2.816 c -0.621 -1.742 -1.813 -2.059 -1.813 -2.059 l -4.422 1.207 c 0 0 1.246 0.563 1.602 2.23 c 0.301 1.246 -0.484 2.613 -0.484 2.613"/></g></svg>