<svg xmlns="http://www.w3.org/2000/svg" viewBox="0 0 22 22"><path d="m 18.844 4.055 c 13.727 19.59 -21.973 25.824 -18.43 5.01 c 1.875 -8.281 12.93 -12.859 18.43 -5.01" fill="#ffeff4"/><path d="m 6.449 12.08 c -0.016 -0.035 -0.02 -0.66 -0.012 -1.391 l 0.016 -1.324 l 0.313 -0.016 c 0.266 -0.016 2.703 0.117 7.637 0.406 l 1.031 0.059 l 0.016 0.91 l 0.016 0.906 l -0.359 0.031 c -0.195 0.016 -1.027 0.066 -1.844 0.109 c -0.82 0.039 -2.637 0.141 -4.04 0.223 c -2.957 0.172 -2.742 0.168 -2.777 0.086" fill="#fbc534"/><path d="m 6.355 16.543 c -0.004 -0.762 0.016 -1.184 0.055 -1.207 c 0.07 -0.035 0.371 -0.02 8.148 0.422 c 0.547 0.035 0.809 0.066 0.844 0.113 c 0.055 0.074 0.066 1.559 0.012 1.73 l -0.035 0.113 h -9.02" fill="#2eb0c8"/><path d="m 13.441 9.1 c -0.801 -0.051 -5.602 -0.324 -6.504 -0.375 c -0.324 -0.016 -0.59 -0.047 -0.59 -0.063 c 0 -0.02 0.234 -0.285 0.516 -0.594 c 0.426 -0.465 0.551 -0.57 0.73 -0.609 c 0.609 -0.145 5.355 -1.156 5.418 -1.156 c 0.055 0 1.316 1.715 2.051 2.785 c 0.055 0.078 -0.434 0.082 -1.621 0.012" fill="#cf4f61"/><g transform="matrix(0.07905 0 0 0.0766 1.265 1.11)"><path d="m 87.02 71.801 c 0.642 -0.969 6.72 -8.517 13.49 -16.778 l 12.354 -15.04 h 9.339 l 9.339 -0.051 l 6.03 9.588 c 3.311 5.304 5.831 9.843 5.633 10.1 c -0.593 0.612 -54.949 13.922 -56.926 13.922 c -0.247 0 0.099 -0.765 0.741 -1.734" fill="#ffb5c1" stroke="#db7093" stroke-width="0.092"/><path d="m 174.73 183.28 c -1.285 -0.102 -8.01 -0.459 -14.874 -0.816 c -44.671 -2.448 -91.57 -5.406 -92.95 -5.814 c -0.395 -0.153 -0.889 -0.561 -1.038 -0.969 c -0.346 -1.02 -0.346 -18.716 0 -20.756 c 0.247 -1.377 0.494 -1.632 1.482 -1.632 c 0.642 0 5.485 -0.306 10.772 -0.663 c 22.19 -1.53 92.85 -5.559 97.25 -5.559 c 1.828 0 3.36 0.153 3.508 0.357 c 0.099 0.204 0.346 8.415 0.494 18.257 l 0.346 17.9 l -1.285 -0.102 c -0.692 -0.051 -2.372 -0.153 -3.706 -0.204" fill="#99cd86" stroke="#99cd86" stroke-width="0.044"/></g></svg>