<svg xmlns="http://www.w3.org/2000/svg" viewBox="0 0 22 22"><path d="m 11.09 21.918 c -14.422 1.648 -14.223 -21.926 0.258 -21.645 c 13.465 -0.777 14.68 22.93 -0.258 21.645" fill="#2d0213"/><g fill="#99aca9" stroke="#99aca9" transform="matrix(0.08797 0 0 0.08594 7.079 24.731)"><path d="m 1.808 -84.73 c 0.222 -3.955 0.488 -22.636 0.533 -41.545 c 0 -18.955 0.222 -36.23 0.488 -38.455 l 0.444 -4.091 h 3.952 c 3.153 0 4.13 0.318 4.662 1.409 c 0.755 1.636 -0.533 4.364 -3.33 7 l -1.732 1.636 l 3.552 3.864 c 2.087 2.318 4.44 4.091 5.684 4.409 c 1.199 0.273 2.664 1.318 3.286 2.364 c 0.932 1.682 0.977 2.682 0.266 8.273 c -1.154 8.909 -1.021 10.818 0.888 15.14 c 1.865 4.091 2.265 9.409 0.888 10.864 c -0.488 0.455 -2.575 1.773 -4.618 2.909 c -4.884 2.682 -5.195 4.318 -1.199 6.318 c 5.861 2.909 5.728 4.545 -0.888 11.364 c -3.02 3.136 -3.996 4.682 -4.352 6.955 c -0.222 1.591 -0.755 4.227 -1.154 5.818 c -0.71 2.864 -0.755 2.909 -4.263 2.909 h -3.552" stroke-width="0.727"/><path d="m 92.44 -86.64 c -0.266 -3.864 -0.488 -22.14 -0.533 -40.591 c -0.044 -18.5 -0.266 -35.409 -0.488 -37.591 l -0.444 -4 h -3.996 c -3.153 0 -4.13 0.318 -4.618 1.409 c -0.799 1.545 0.533 4.227 3.33 6.818 l 1.732 1.591 l -3.552 3.773 c -2.087 2.273 -4.44 4 -5.728 4.273 c -1.154 0.273 -2.62 1.318 -3.241 2.364 c -0.977 1.636 -1.021 2.636 -0.311 8.05 c 1.154 8.773 1.066 10.591 -0.888 14.818 c -1.821 4 -2.265 9.182 -0.844 10.591 c 0.488 0.5 2.531 1.773 4.618 2.864 c 4.884 2.636 5.195 4.227 1.154 6.182 c -5.817 2.864 -5.684 4.455 0.888 11.136 c 3.064 3.045 4.04 4.545 4.352 6.773 c 0.266 1.591 0.755 4.136 1.154 5.682 c 0.71 2.818 0.755 2.864 4.307 2.864 h 3.552" stroke-width="0.719"/></g><path d="m 167.39 74.55 c 0 22.14 -18.25 40.14 -40.807 40.14 c -22.557 0 -40.807 -18 -40.807 -40.14 c 0 -22.18 18.25 -40.14 40.807 -40.14 c 22.557 0 40.807 17.955 40.807 40.14" transform="matrix(0.08797 0 0 0.08594 -0.026 2.176)" fill="#4a45d6" stroke="#4a45d6"/><g transform="matrix(0.08797 0 0 0.08594 7.079 24.731)"><path d="m 4.339 -171.59 c -5.595 -0.727 -7.371 -3.091 -9.369 -12.545 c -1.421 -6.818 -1.554 -9.05 -0.444 -10.636 c 1.332 -1.955 9.369 -6.864 11.234 -6.864 c -0.755 8.273 11.989 -4.182 1.066 26.318 c 1.288 2.364 1.954 4.318 1.554 4.273 c -0.4 -0.045 -2.22 -0.318 -4.04 -0.545" fill="#99aca9" stroke="#99aca9" stroke-width="0.894"/><g fill="#597159" stroke="#597159"><path d="m 31.825 -152.82 c -2.664 16.636 7.637 14.182 11.634 6.909 c 3.641 -10.5 -1.11 -16.818 -3.774 -26.545 c -3.996 6.409 -6.927 12.727 -7.859 19.636" stroke-width="1.724"/><path d="m 12.376 -161.82 c -6.04 12 3.508 13.727 8.614 9.5 c 5.506 -6.909 2.753 -13.5 2.575 -22 c -4.884 3.545 -8.881 7.455 -11.19 12.5" stroke-width="1.501"/><path d="m 67.792 -156.69 c 4.973 12.318 13.143 5.727 13.499 -1 c -1.377 -8.773 -8.437 -10.636 -15.14 -15.818 c -0.755 6.182 -0.577 11.818 1.643 16.818" stroke-width="1.552"/><path d="m 50.16 -151.09 c 1.954 16.727 11.19 11.591 13.05 3.545 c 0.666 -11.136 -5.595 -15.864 -10.79 -24.545 c -2.131 7.227 -3.241 14.14 -2.265 21" stroke-width="1.724"/></g><path d="m 85.952 -170.28 c 5.151 -0.864 6.749 -3.545 8.614 -14.273 c 1.332 -7.727 1.421 -10.227 0.4 -12.05 c -1.243 -2.227 -8.614 -7.773 -10.346 -7.773 c 0.71 9.364 -11.01 -4.727 -0.977 29.818 c -1.154 2.727 -1.821 4.909 -1.421 4.864 c 0.355 -0.091 2.043 -0.318 3.73 -0.591" fill="#99aca9" stroke="#99aca9" stroke-width="0.913"/></g></svg>