<svg xmlns="http://www.w3.org/2000/svg" viewBox="0 0 22 22"><path d="m 0.082 11.02 c -1.664 -14.512 22.18 -14.313 21.898 0.258 c 0.785 13.551 -23.2 14.773 -21.898 -0.258" fill="#005385"/><path d="m 5.699 15.582 c -0.102 -0.086 -0.117 -0.305 -0.184 -2.594 c -0.027 -0.816 -0.066 -2.207 -0.094 -3.094 l -0.051 -1.613 l 0.117 -0.105 c 0.109 -0.102 0.113 -0.125 0.113 -0.555 c 0 -0.398 0.012 -0.465 0.094 -0.555 c 0.07 -0.078 0.133 -0.102 0.266 -0.102 c 0.293 0 0.313 -0.02 0.313 -0.293 c 0 -0.199 0.047 -0.297 0.172 -0.43 h 2.039 c 2.359 0 2.18 -0.031 2.211 0.398 c 0.012 0.145 0.043 0.277 0.07 0.293 c 0.027 0.016 1.188 0.031 2.578 0.031 c 1.391 0 2.551 0.012 2.578 0.027 c 0.113 0.07 0.152 0.219 0.152 0.629 c 0 0.402 0.004 0.434 0.113 0.547 l 0.117 0.121 l -0.051 1.668 c -0.027 0.914 -0.07 2.234 -0.094 2.926 c -0.023 0.695 -0.043 1.551 -0.043 1.902 c 0 0.621 -0.027 0.77 -0.152 0.84 c -0.027 0.016 -2.328 0.031 -5.117 0.031 c -4.91 0 -5.066 -0.004 -5.148 -0.074 m 9.813 -8.246 h -9.348 c -0.035 0.309 -0.18 0.465 -0.148 0.758 h 9.645 c 0.066 -0.297 -0.117 -0.5 -0.148 -0.758" fill="#a4d8fc"/><path d="m 11.11 14.891 c -0.707 -0.145 -1.309 -0.602 -1.629 -1.242 c -0.188 -0.375 -0.273 -0.684 -0.273 -0.988 c 0 -0.145 -0.016 -0.184 -0.07 -0.184 c -0.039 0 -0.379 0.285 -0.754 0.633 c -0.379 0.348 -0.734 0.652 -0.793 0.672 c -0.176 0.063 -0.305 0.047 -0.402 -0.055 c -0.141 -0.148 -0.156 -0.262 -0.063 -0.465 c 0.066 -0.145 0.332 -0.395 1.25 -1.184 c 1.297 -1.117 1.422 -1.23 1.383 -1.289 c -0.461 -0.156 -1.258 0.168 -1.59 -0.145 c -0.148 -0.141 -0.137 -0.258 0.043 -0.426 l 0.148 -0.145 h 1.441 c 1.281 0 1.445 -0.004 1.469 -0.066 c 0.02 -0.047 -0.105 -0.188 -0.441 -0.488 c -0.387 -0.34 -0.473 -0.441 -0.473 -0.539 c 0 -0.207 0.254 -0.352 0.461 -0.262 c 0.18 0.078 2.453 2.074 2.629 2.309 c 0.223 0.293 0.387 0.695 0.461 1.137 c 0.137 0.777 -0.191 1.641 -0.836 2.199 c -0.586 0.477 -1.359 0.652 -1.961 0.527 m 1.063 -1.16 c 0.512 -0.227 0.875 -0.754 0.914 -1.32 c 0.063 -0.906 -0.625 -1.66 -1.512 -1.66 c -0.75 0 -1.383 0.535 -1.523 1.293 c -0.141 0.746 0.336 1.531 1.07 1.762 c 0.281 0.086 0.758 0.051 1.051 -0.074" fill="#fb6f21"/><path d="m 11.316 13.281 c -0.277 -0.063 -0.508 -0.242 -0.645 -0.5 c -0.109 -0.211 -0.125 -0.285 -0.109 -0.543 c 0.016 -0.234 0.047 -0.34 0.145 -0.48 c 0.574 -0.809 1.824 -0.43 1.82 0.551 c -0.004 0.641 -0.59 1.113 -1.211 0.973" fill="#035486"/></svg>