<svg xmlns="http://www.w3.org/2000/svg" viewBox="0 0 22 22"><path d="m 3.984 19.617 c 13.195 10.125 26.895 -15.09 10.555 -18.773 c -10.285 -3.781 -20.336 11.273 -10.555 18.773" fill="#2888c7"/><path d="m 53.733 184.94 c -22.455 -16.227 23.5 -83 36.36 -129.14 c 0 -5.227 1.409 -6.136 9.682 -6.136 c 11.455 0 12.727 1.182 26.455 24.909 c 16 21.682 8.682 22.909 -13.364 33.32 l -25.318 10.909 l 7 20.636 c 4.045 11.955 6.227 20.864 6.545 24.682 c 0.364 4.318 -8.909 13.455 -20.364 18.455 c -22.364 9.773 -27 5.727 -27 2.364 m 34.23 -25.364 c 0 -6.318 -10.545 -21.23 -15 -21.23 c -3.864 0 -10.682 14.409 -12.727 26.545 c -1.682 9.955 1.682 11.682 7.409 11.682 c 8.955 -1.318 20 -7.909 20.318 -17 m 15.318 -59.09 c 18.591 -6.05 11.364 -16.455 6.091 -25.773 c -4.409 -7.773 -10.636 -4.955 -16.545 7.364 c -13.05 24.318 -11.182 28.591 10.455 18.409" transform="matrix(0.08594 0 0 0.08594 2.839 0.743)" fill="#fff" stroke="#fff" stroke-width="4.187"/></svg>