<svg xmlns="http://www.w3.org/2000/svg" viewBox="0 0 22 22"><path d="m 20.395 5.344 c -16.621 -19.367 -32.602 20.449 -6.895 16.359 c 5.637 -0.898 11.375 -11.141 6.895 -16.359" fill="#f8f8ff"/><path d="m 351.59 -56.19 c -7.182 -4.091 -17.409 -15.14 -17.409 -18.864 c 0 -1.955 3.273 -6.545 7.273 -10.182 c 8.455 -7.636 11.273 -6.909 21.23 5.545 c 7.545 9.409 8.136 14.818 1.727 15.773 c -2.955 0.409 -4.864 2.364 -5.273 5.409 c -0.727 5.364 -1.682 5.636 -7.545 2.318" transform="matrix(0.08594 0 0 0.08594 -19.2 19.802)" fill="#0000d9" stroke="#0000d9" stroke-width="1.111"/><g transform="scale(0.08594)"><g stroke-width="0.508"><g fill="#69ce69" stroke="#69ce69"><path d="m 55.909 110.73 h 24.591 c 2.227 0 4 3.364 4 7.5 c 0 4.136 -1.773 7.5 -4 7.5 h -24.591 c -2.182 0 -4 -3.364 -4 -7.5 c 0 -4.136 1.818 -7.5 4 -7.5"/><path d="m 92.91 110.73 h 24.545 c 2.227 0 4.045 3.364 4.045 7.5 c 0 4.136 -1.818 7.5 -4.045 7.5 h -24.545 c -2.227 0 -4 -3.364 -4 -7.5 c 0 -4.136 1.773 -7.5 4 -7.5"/><path d="m 165.95 110.73 h 24.591 c 2.182 0.045 4 3.364 4 7.5 c 0 4.136 -1.818 7.5 -4 7.5 h -24.591 c -2.227 0 -4 -3.364 -4 -7.5 c 0 -4.136 1.773 -7.5 4 -7.5"/></g><g fill="#4581b3" stroke="#4581b3"><path d="m 166.82 90.5 h 24.591 c 2.227 0 4 3.364 4 7.5 c 0 4.136 -1.773 7.5 -4 7.5 h -24.591 c -2.182 0 -4 -3.364 -4 -7.5 c 0 -4.136 1.818 -7.5 4 -7.5"/><path d="m 130.73 90.5 h 24.591 c 2.227 0 4 3.364 4 7.5 c 0 4.136 -1.773 7.5 -4 7.5 h -24.591 c -2.182 0 -4 -3.364 -4 -7.5 c 0 -4.136 1.818 -7.5 4 -7.5"/><path d="m 93.77 90.5 h 24.591 c 2.227 0 4 3.364 4 7.5 c 0 4.136 -1.773 7.5 -4 7.5 h -24.591 c -2.227 0 -4 -3.364 -4 -7.5 c 0 -4.136 1.773 -7.5 4 -7.5"/><path d="m 55.05 90.5 h 24.591 c 2.182 0 4 3.364 4 7.5 c 0 4.136 -1.818 7.5 -4 7.5 h -24.591 c -2.227 0 -4 -3.364 -4 -7.5 c 0 -4.136 1.773 -7.5 4 -7.5"/></g><g fill="#ed699d" stroke="#ed699d"><path d="m 55.05 70.27 h 24.591 c 2.182 0 4 3.364 4 7.5 c 0 4.136 -1.818 7.5 -4 7.5 h -24.591 c -2.227 0 -4 -3.364 -4 -7.5 c 0 -4.136 1.773 -7.5 4 -7.5"/><path d="m 92.91 69.36 h 24.545 c 2.227 0 4.045 3.364 4.045 7.5 c 0 4.136 -1.818 7.5 -4.045 7.5 h -24.545 c -2.227 0 -4 -3.364 -4 -7.5 c 0 -4.136 1.773 -7.5 4 -7.5"/><path d="m 129.86 70.27 h 24.591 c 2.182 0 4 3.364 4 7.5 c 0 4.136 -1.818 7.455 -4 7.5 h -24.591 c -2.227 0 -4 -3.364 -4 -7.5 c 0 -4.136 1.773 -7.5 4 -7.5"/><path d="m 167.73 70.27 h 24.545 c 2.227 0 4.045 3.364 4.045 7.5 c 0 4.136 -1.818 7.5 -4.045 7.5 h -24.545 c -2.227 0 -4 -3.364 -4 -7.5 c 0 -4.136 1.773 -7.5 4 -7.5"/></g></g><path d="m 143.18 210 c -3.182 -1.909 -8.364 -7.682 -8.364 -9.227 c 0 -0.636 1.636 -2.773 3.636 -4.818 l 3.682 -3.682 h 48 l 3.227 3.727 c 4.409 5.091 5.409 7.773 3.318 8.909 c -0.864 0.455 -2.773 2.182 -4.273 3.773 l -2.682 2.955 h -21.955 c -19.727 0 -22.23 -0.182 -24.591 -1.636" stroke="#000" stroke-width="0.47"/></g></svg>