<svg xmlns="http://www.w3.org/2000/svg" viewBox="0 0 22 22"><path d="m 21.04 7.516 c 4.27 10.949 -7.695 16.566 -15.14 13.777 c -5.199 -1.949 -7.789 -9.711 -4.098 -15.988 c 4.66 -7.918 15.953 -6.234 19.246 2.211" fill="#6a8e22"/><path d="m 7.07 16.06 v -0.16 l -0.289 -0.012 c -0.293 -0.008 -0.293 -0.012 -0.293 -0.113 c 0 -0.133 -0.063 -0.195 -0.195 -0.195 c -0.105 0 -0.105 0 -0.117 -0.293 l -0.008 -0.293 l -0.32 0.008 v -7.219 h 0.16 l 0.16 0.004 l 0.008 -0.289 l 0.012 -0.289 l 0.141 -0.012 c 0.133 -0.012 0.141 -0.02 0.152 -0.152 l 0.012 -0.141 l 0.578 -0.023 v -0.16 l -0.004 -0.16 h 7.219 l -0.008 0.32 l 0.293 0.012 l 0.289 0.012 l 0.012 0.293 l 0.012 0.289 l 0.133 0.02 c 0.117 0.016 0.133 0.031 0.148 0.148 c 0.02 0.129 0.027 0.133 0.18 0.129 h 0.16 v 6.918 l -0.32 -0.008 l -0.008 0.289 l -0.012 0.293 l -0.141 0.012 c -0.129 0.008 -0.141 0.02 -0.16 0.141 c -0.016 0.117 -0.031 0.137 -0.148 0.152 c -0.121 0.016 -0.133 0.031 -0.145 0.16 l -0.012 0.137 l -0.289 0.012 l -0.293 0.012 l 0.008 0.32 h -6.918 v -0.16" fill="#8fce4d"/></svg>