<svg xmlns="http://www.w3.org/2000/svg" viewBox="0 0 22 22"><path d="m 7.01 21.598 c 30.992 3.82 5.305 -40.11 -6.078 -12 c -1.746 4.938 -0.23 10.492 6.078 12" fill="#ff8c00"/><path d="m 106.77 209.09 c -22.09 -1.818 -38.32 -6.136 -42.5 -11.318 c -3.091 -3.773 -2.636 -16.591 0.818 -23.909 c 2.864 -6.05 6.591 -8.955 21.864 -16.955 c 7.591 -3.955 14.682 -8.05 15.727 -9.05 c 1.864 -1.727 1.955 -2.136 1.955 -8.136 c 0 -5.05 -0.227 -6.636 -1.318 -8.136 c -1.864 -2.5 -6.091 -10.864 -7.182 -14.09 c -0.5 -1.5 -1.909 -4.045 -3.136 -5.727 c -2.182 -3 -2.182 -3.136 -2.182 -11.409 c 0 -6.682 0.227 -8.818 1.227 -10.545 c 1 -1.773 1.227 -3.909 1.227 -10.727 c 0 -14.14 1.909 -20.273 8.05 -25.727 c 6.5 -5.818 13.682 -7.955 26.455 -7.955 c 15.545 0 25.23 4.136 30.636 13 c 2.818 4.682 3.227 6.909 3.136 17.318 c -0.045 8.455 0.136 10.273 1.364 12.955 c 1.182 2.591 1.455 4.636 1.455 11.273 c 0 4.455 -0.273 8.818 -0.636 9.727 c -0.364 0.864 -1.909 2.818 -3.455 4.318 c -1.5 1.5 -3.364 4.136 -4.091 5.818 c -0.727 1.727 -2.636 5.182 -4.227 7.773 c -1.591 2.545 -3.318 5.364 -3.818 6.182 c -1.318 2.227 -0.636 11.182 1.091 13.5 c 0.864 1.091 6.955 4.5 16.727 9.318 c 8.455 4.136 16.773 8.682 18.5 10.05 c 1.682 1.364 4.182 4.455 5.5 6.864 c 2.409 4.273 2.455 4.636 2.727 13.318 c 0.227 8.318 0.136 9.05 -1.318 10.818 c -3.227 3.955 -15.545 8.136 -29.864 10.09 c -15.14 2.045 -39.18 2.636 -54.727 1.364 m 51.773 -6.455 c 10.182 -1.409 20.864 -4.045 25 -6.091 l 3.182 -1.545 l 0.227 -7 c 0.136 -5.864 -0.045 -7.545 -1.318 -10.364 c -2.5 -5.682 -5.727 -8 -23.23 -16.591 c -15.409 -7.545 -16.273 -8.05 -18.18 -11.09 c -1.773 -2.773 -2.091 -4.091 -2.409 -9.955 c -0.318 -6.318 -0.227 -6.955 1.318 -9.182 c 3.682 -5.227 6.273 -9.727 8.409 -14.545 c 1.591 -3.682 2.818 -5.409 4.5 -6.409 l 2.273 -1.409 l 0.182 -7.545 c 0.182 -6.5 0.045 -7.955 -1.227 -10.409 c -1.318 -2.545 -1.455 -3.955 -1.364 -13.409 c 0.136 -8.545 -0.091 -11.05 -1.045 -13.227 c -3.955 -8.955 -12.136 -12.909 -26.773 -13 c -14.818 -0.045 -23.09 3.682 -27.09 12.273 c -1.409 3 -1.636 4.864 -1.909 15.09 c -0.227 9.273 -0.545 12 -1.455 13.364 c -0.864 1.318 -1.136 3.409 -1.136 8.727 c 0 6.682 0.091 7.136 1.864 8.955 c 1.045 1.091 2.273 3.318 2.727 5 c 0.909 3.227 5.273 11.955 7.773 15.5 c 1.227 1.773 1.455 3.136 1.455 9.136 c 0 7.818 -0.773 10.455 -4 13.318 c -1.091 0.955 -8.091 5 -15.545 8.909 c -7.409 3.909 -14.682 8.136 -16.14 9.409 c -1.455 1.273 -3.5 4 -4.545 6.05 c -1.636 3.273 -1.909 4.682 -1.955 10.636 c -0.091 6.545 0 6.909 1.682 8.182 c 4.545 3.364 21.05 6.955 39.09 8.5 c 8.136 0.682 41.909 -0.182 49.636 -1.273" transform="scale(0.08594)" fill="#fff" stroke="#fff"/></svg>