<svg xmlns="http://www.w3.org/2000/svg" viewBox="0 0 22 22"><path d="m 17.777 3.367 c 11.559 8.137 -4.01 25.23 -14.242 15.641 c -10.246 -8.156 4.402 -26.27 14.242 -15.641" fill="#2c2c2c"/><g transform="scale(0.08594)"><g stroke-width="1.391"><path d="m 95.77 193.27 c -10.636 -5.864 -25.27 -14.318 -27.318 -15.727 l -1.727 -1.182 v -100.55 l 2 -0.364 c 1.136 -0.182 10.636 -0.727 21.18 -1.227 c 15.182 -1 32.09 -2.136 45.45 -2.136 c 14.455 -0.045 18.818 0.136 20.864 0.864 c 1.364 0.5 7.455 1.5 13.5 2.182 c 17.682 2.091 21.409 2.818 22.5 4.545 c 0.682 1.045 0.591 73.36 -0.136 90.73 c -0.318 8.182 -0.864 15.273 -1.273 15.955 c -0.818 1.591 -5 3.409 -9.636 4.227 c -2 0.318 -9.682 1.182 -17.18 1.864 c -16.5 1.364 -32.909 4.182 -49.41 4.727 l -11.09 0.364" fill="#efc102" stroke="#efc102"/><path d="m 70.45 179.09 l -4.045 -2.455 l -0.136 -50.45 c -0.136 -40.05 0 -50.5 0.636 -50.727 c 13.409 5.05 21.318 7 39.36 9.864 c -0.818 51.773 -1.773 59.09 -0.727 112.09 c -12.227 -5.364 -23.682 -11.364 -35.09 -18.318" fill="#e0ab12" stroke="#e0ab12"/></g><g fill="#ab780a" stroke="#ab780a"><path d="m 117 190.73 c -2.136 -0.091 -3.591 -0.364 -3.818 -0.682 c -0.182 -0.273 -0.273 -21.682 -0.227 -47.591 c 0.045 -39.41 0.182 -47.14 0.636 -47.41 c 1.091 -0.727 9.182 -1.682 37.23 -4.273 c 11.227 -1.045 22.409 -1.955 33.682 -2.455 l 0.227 1.455 c 0.273 1.864 0.091 94.27 -0.227 94.59 c -0.636 0.682 -15.364 2.318 -40.909 4.591 c -19.818 1.727 -22.773 1.955 -26.591 1.773 m 21.455 -4.273 c 21.09 -1.818 36.682 -3.455 38.32 -3.909 c 1.636 -0.591 2.727 -1.591 3.909 -2.727 l -0.455 -43.773 c -0.227 -24.09 -0.545 -43.955 -0.682 -44.14 c -0.409 -0.636 -29.909 1.682 -51.727 4.045 c -6.182 0.682 -7.091 0.864 -8.591 1.773 c -0.955 0.591 -1.818 1.318 -1.955 1.636 c -0.273 0.727 0.636 87.82 0.909 88.27 c 0.318 0.409 4.727 0.182 20.273 -1.182" stroke-width="0.885"/><path d="m 133.18 159.82 c -1.227 -1.955 -1.818 -5 -2.727 -13.773 c -1.136 -11.5 -1.091 -14.818 0.318 -16.727 c 0.591 -0.864 1.364 -1.545 1.682 -1.545 c 0.318 0 1.364 0.818 2.364 1.909 c 3.682 3.591 1.818 10.182 1.818 15.05 c 0 10.727 -0.182 13.409 -0.818 14.682 c -1 1.909 -1.591 2 -2.636 0.409" stroke-width="1.208"/></g></g><g fill="#ab780a" stroke="#ab780a" stroke-width="2.253"><path d="m 174.32 133.43 c 0 6.658 -4.933 12.09 -10.99 12.09 c -6.06 0 -10.99 -5.427 -10.99 -12.09 c 0 -6.658 4.933 -12.05 10.99 -12.05 c 6.06 0 10.99 5.391 10.99 12.05" transform="matrix(0.09739 0 0 0.10796 -2.141 -2.838)"/><path d="m 131.82 133.97 c 0 2.227 -1.364 4.045 -3.045 4.045 c -1.682 0 -3.091 -1.818 -3.091 -4.045 c 0 -2.273 1.409 -4.091 3.091 -4.091 c 1.682 0 3.045 1.818 3.045 4.091" transform="matrix(0.08594 0 0 0.08594 -0.035 0.21)"/></g><g transform="scale(0.08594)"><path d="m 100 83.41 c -11.227 -1.955 -16.591 -3.273 -26.05 -6.455 c -4.136 -1.364 -5.364 -1.955 -4.455 -2 c 3.727 -0.318 43 -2.591 51.18 -3 c 5.318 -0.227 14.955 -0.364 21.409 -0.273 c 9.864 0.136 12.318 0.318 15.545 1.045 c 10.682 2.682 21.455 1.591 32.23 5.05 c 1.455 0.455 2.818 1.455 2.818 2 c 0 0.227 -2.636 0.273 -5.818 0.136 c -7.409 -0.318 -64.36 4.273 -74.45 5.364 c -6.545 0.182 -7.136 -0.955 -12.409 -1.864" fill="#ffd600" stroke="#fff" stroke-width="0.918"/><g fill="#ab780a" stroke="#ab780a" stroke-width="2.4"><path d="m 177.32 99.14 h 7.818 c 1.273 0 2.318 1.727 2.318 3.864 v 2.318 c 0 2.136 -1.045 3.864 -2.318 3.864 h -7.818 c -1.273 0 -2.318 -1.727 -2.318 -3.864 v -2.318 c 0 -2.136 1.045 -3.864 2.318 -3.864"/><path d="m 177.95 165.05 h 7.818 c 1.273 0 2.318 1.727 2.318 3.864 v 2.273 c 0 2.136 -1.045 3.864 -2.318 3.864 h -7.818 c -1.273 0 -2.318 -1.727 -2.318 -3.864 v -2.273 c 0 -2.136 1.045 -3.864 2.318 -3.864"/></g></g><g fill="#efc102" stroke="#efc102" stroke-width="2.253"><path d="m 158.29 132.07 c 0 1.091 -0.682 2 -1.545 2 c -0.864 0 -1.545 -0.909 -1.545 -2 c 0 -1.136 0.682 -2 1.545 -2 c 0.864 0 1.545 0.864 1.545 2" transform="matrix(0.08594 0 0 0.08594 -0.079 -0.053)"/><path d="m 158.3 132.06 c 0 1.091 -0.727 2 -1.545 2 c -0.864 0 -1.545 -0.909 -1.545 -2 c 0 -1.091 0.682 -2 1.545 -2 c 0.818 0 1.545 0.909 1.545 2" transform="matrix(0.08594 0 0 0.08594 -0.053 0.635)"/><path d="m 158.27 132.05 c 0 1.091 -0.682 2 -1.545 2 c -0.818 0 -1.545 -0.909 -1.545 -2 c 0 -1.091 0.727 -2 1.545 -2 c 0.864 0 1.545 0.909 1.545 2" transform="matrix(0.08594 0 0 0.08594 0.688 0.609)"/><path d="m 158.29 132.05 c 0 1.091 -0.682 2 -1.545 2 c -0.864 0 -1.545 -0.909 -1.545 -2 c 0 -1.091 0.682 -2 1.545 -2 c 0.864 0 1.545 0.909 1.545 2" transform="matrix(0.08594 0 0 0.08594 0.635 -0.106)"/></g></svg>