<svg xmlns="http://www.w3.org/2000/svg" viewBox="0 0 22 22"><path d="m 7.01 0.387 c 30.992 -3.82 5.305 40.11 -6.078 12 c -1.746 -4.938 -0.23 -10.492 6.078 -12" fill="#dd9fdd"/><g fill-opacity="0.2"><path d="m 6.05 10.98 h 9.613 c 0.094 0 0.172 0.074 0.172 0.172 v 2.969 c 0 0.098 -0.078 0.172 -0.172 0.172 h -9.613 c -0.098 0 -0.172 -0.074 -0.172 -0.172 v -2.969 c 0 -0.098 0.074 -0.172 0.172 -0.172"/><path d="m 10.859 4.348 c 4.27 0 4.27 1.992 4.27 1.992 v 9.281 l -4.27 1.988 l -4.266 -1.988 v -9.281 c 0 0 0 -1.992 4.266 -1.992"/></g><path d="m 6.05 10.648 h 9.613 c 0.094 0 0.172 0.078 0.172 0.172 v 2.969 c 0 0.098 -0.078 0.172 -0.172 0.172 h -9.613 c -0.098 0 -0.172 -0.074 -0.172 -0.172 v -2.969 c 0 -0.094 0.074 -0.172 0.172 -0.172" fill="#cf1818"/><path d="m 6.594 10.648 c -0.395 0 -0.711 0.297 -0.711 0.664 v 0.328 c 0 -0.367 0.316 -0.66 0.711 -0.66 h 8.535 c 0.395 0 0.711 0.293 0.711 0.66 v -0.328 c 0 -0.367 -0.316 -0.664 -0.711 -0.664" fill="#fff" fill-opacity="0.102"/><path d="m 10.859 4.02 c 4.27 0 4.27 1.988 4.27 1.988 v 9.281 l -4.27 1.988 l -4.266 -1.988 v -9.281 c 0 0 0 -1.988 4.266 -1.988" fill="#f15454"/><path d="m 9.438 7 v 3.98 h -2.844 v 3.313 h 2.844 v 2.652 l 1.422 0.664 l 1.422 -0.664 v -2.652 h 2.848 v -3.313 h -2.848 v -3.98 l -1.422 1.328" fill-opacity="0.2"/><path d="m 9.438 6.668 v 3.98 h -2.844 v 3.313 h 2.844 v 2.652 l 1.422 0.664 l 1.422 -0.664 v -2.652 h 2.848 v -3.313 h -2.848 v -3.98 l -1.422 1.328" fill="#e4e4e4"/><path d="m 8.06 11.355 c -0.449 0.125 -0.758 0.512 -0.758 0.949 c 0 0.551 0.477 0.996 1.066 0.996 c 0.469 0 0.883 -0.289 1.02 -0.707 m 4.266 -1.238 l -1.328 1.238 c 0.137 0.418 0.551 0.707 1.023 0.707 c 0.586 0 1.066 -0.445 1.066 -0.996 c -0.004 -0.438 -0.309 -0.824 -0.762 -0.949" fill="#3e3e3e"/><path d="m 10.859 4.02 c -4.266 0 -4.266 1.988 -4.266 1.988 v 0.332 c 0 0 0 -1.992 4.266 -1.992 c 4.27 0 4.27 1.992 4.27 1.992 v -0.332 c 0 0 0 -1.988 -4.27 -1.988" fill="#fff" fill-opacity="0.2"/></svg>