<svg xmlns="http://www.w3.org/2000/svg" viewBox="0 0 22 22"><path d="m 18.09 18.777 c 17.199 -22.797 -30.13 -26.04 -14.941 -2.766 c 3.465 5.305 10.387 8.801 14.941 2.766" fill="#9acd31"/><g fill="#fff"><path d="m 5.289 14.305 c -0.262 -1.898 -0.949 -5.879 -1.051 -6.09 c -0.203 -0.43 -0.129 -1.07 0.152 -1.301 c 0.32 -0.262 4.516 -1.117 5.063 -1.031 c 0.223 0.035 0.539 0.207 0.707 0.383 c 0.168 0.18 0.391 0.34 0.488 0.363 c 0.188 0.043 2.781 -0.383 5.293 -0.867 c 1.301 -0.25 1.684 -0.281 1.828 -0.133 c 0.031 0.031 0.051 0.508 0.047 1.059 l -0.012 1 l -0.836 0.125 c -1.352 0.207 -3.387 0.504 -5.273 0.77 c -0.973 0.137 -2.063 0.309 -2.426 0.379 l -0.664 0.129 l 0.906 0.027 c 0.5 0.012 2.082 0.012 3.516 -0.008 c 3.141 -0.039 4.504 0.004 4.645 0.156 c 0.055 0.059 -0.082 1.594 -0.313 3.41 c -0.512 4.059 -0.43 3.945 -2.664 3.773 c -1.301 -0.102 -4.555 -0.523 -7.906 -1.023 c -0.918 -0.137 -1.414 -0.508 -1.5 -1.117 m 4.824 -0.762 c 0.105 -0.086 0.332 -0.219 0.5 -0.297 c 0.359 -0.164 0.203 -0.402 -0.508 -0.777 l -0.438 -0.23 l 0.008 0.598 c 0.012 0.691 0.16 0.934 0.438 0.707 m -4.434 -5.01 c 0.059 -0.105 0.008 -0.109 -0.125 -0.008 c -0.121 0.09 -0.16 0.168 -0.094 0.172 c 0.07 0.004 0.168 -0.07 0.219 -0.164 m 6.852 4.949 l 0.5 -0.273 l -0.453 -0.34 c -0.957 -0.715 -0.961 -0.715 -0.945 0.168 c 0.012 0.871 0.074 0.902 0.898 0.445 m -5.164 -5.238 c 0.059 -0.105 0.008 -0.105 -0.125 -0.008 c -0.121 0.094 -0.164 0.172 -0.094 0.176 c 0.07 0.004 0.168 -0.07 0.219 -0.168 m 2.055 -0.426 c 0.016 -0.211 -0.18 -0.125 -0.387 0.168 l -0.203 0.297 l 0.293 -0.176 c 0.16 -0.098 0.293 -0.227 0.297 -0.289 m 1.773 0.082 c 0.086 -0.07 0.215 -0.227 0.281 -0.344 c 0.164 -0.293 -0.227 -0.234 -0.445 0.07 c -0.188 0.258 -0.063 0.465 0.164 0.273 m 2.383 -0.488 c 0.352 -0.293 0.395 -0.594 0.066 -0.48 c -0.266 0.09 -0.59 0.535 -0.48 0.656 c 0.051 0.047 0.234 -0.031 0.41 -0.176 m 2.211 2.754 c 0.207 0.051 0.211 0.02 0.039 -0.168 c -0.121 -0.129 -0.27 -0.191 -0.328 -0.145 c -0.141 0.113 -0.035 0.223 0.289 0.313 m 0.191 -3.086 c 0.164 -0.133 0.328 -0.34 0.363 -0.453 c 0.098 -0.313 -0.34 -0.125 -0.676 0.285 c -0.324 0.398 -0.105 0.516 0.313 0.168"/><path d="m 5.129 12.223 c -0.516 -3.27 -0.625 -3.859 -0.738 -3.98 c -0.207 -0.219 -0.141 -1.031 0.105 -1.23 c 0.297 -0.242 4.52 -1.113 4.961 -1.023 c 0.168 0.035 0.441 0.207 0.605 0.383 c 0.168 0.18 0.43 0.344 0.59 0.367 c 0.27 0.043 2.352 -0.293 5.348 -0.863 c 0.754 -0.141 1.438 -0.238 1.527 -0.215 c 0.172 0.051 0.277 1.551 0.125 1.82 c -0.09 0.156 -1.23 0.34 -6.758 1.078 c -1.363 0.18 -2.766 0.395 -3.117 0.477 l -0.645 0.152 l 0.547 0.055 c 0.297 0.035 1.668 0.043 3.047 0.02 c 5.934 -0.094 6.707 -0.078 6.824 0.125 c 0.051 0.086 -0.09 1.582 -0.309 3.324 c -0.398 3.141 -0.496 3.453 -1.16 3.684 c -0.223 0.078 -1.473 -0.059 -6.461 -0.707 c -3.254 -0.422 -3.578 -0.488 -3.855 -0.785 c -0.164 -0.168 -0.402 -1.176 -0.637 -2.68 m 3.715 1.633 c 0.098 -0.078 -0.012 -1.676 -0.137 -1.992 c -0.176 -0.445 -0.313 0.039 -0.25 0.895 c 0.059 0.863 0.199 1.254 0.387 1.098 m -2.895 -3.746 c 0.094 -0.016 0.105 -0.098 0.02 -0.188 c -0.082 -0.086 -0.199 -0.121 -0.262 -0.07 c -0.059 0.051 -0.066 0.137 -0.02 0.188 c 0.051 0.055 0.168 0.086 0.262 0.07 m 3.863 3.742 c 0.066 -0.012 0.391 -0.188 0.715 -0.383 c 0.551 -0.336 0.578 -0.375 0.379 -0.586 c -0.293 -0.313 -1.199 -0.828 -1.301 -0.746 c -0.098 0.078 -0.082 1.555 0.016 1.664 c 0.035 0.039 0.121 0.063 0.191 0.051 m -4.199 -5.02 c 0.242 -0.199 0.398 -0.531 0.305 -0.633 c -0.102 -0.109 -0.598 0.266 -0.613 0.457 c -0.016 0.219 0.145 0.309 0.309 0.176 m 1.898 1.273 c 0.094 -0.016 0.105 -0.102 0.02 -0.188 c -0.082 -0.09 -0.199 -0.121 -0.262 -0.07 c -0.059 0.047 -0.066 0.133 -0.016 0.188 c 0.047 0.051 0.164 0.082 0.258 0.07 m 4.812 3.621 c 0.375 -0.195 0.684 -0.426 0.691 -0.516 c 0.016 -0.223 -1.32 -1.152 -1.465 -1.02 c -0.129 0.117 -0.117 1.664 0.012 1.801 c 0.047 0.051 0.391 -0.07 0.762 -0.266 m -5.02 -5.184 c 0.527 -0.434 0.602 -0.883 0.121 -0.715 c -0.273 0.094 -0.621 0.684 -0.488 0.828 c 0.055 0.059 0.219 0.008 0.367 -0.113 m 1.992 1.57 c 0.102 -0.02 0.184 -0.07 0.188 -0.117 c 0.012 -0.137 -0.438 -0.324 -0.551 -0.234 c -0.137 0.113 0.145 0.383 0.363 0.348 m -0.059 -1.879 c 0.164 -0.133 0.328 -0.352 0.367 -0.48 c 0.156 -0.535 -0.715 -0.039 -0.926 0.523 c -0.086 0.227 0.27 0.199 0.559 -0.043 m 1.973 1.934 c 0.121 0.059 0.27 0.066 0.328 0.02 c 0.152 -0.125 -0.352 -0.492 -0.563 -0.406 c -0.195 0.078 -0.109 0.215 0.234 0.387 m -0.129 -2.078 c 0.383 -0.156 0.738 -0.684 0.578 -0.855 c -0.09 -0.098 -0.27 -0.031 -0.555 0.203 c -0.578 0.473 -0.59 0.887 -0.023 0.652 m 2.316 2.113 c 0.121 0.059 0.262 0.07 0.316 0.027 c 0.16 -0.133 -0.242 -0.469 -0.551 -0.461 c -0.234 0.004 -0.258 0.035 -0.137 0.164 c 0.082 0.09 0.246 0.207 0.371 0.27 m -0.105 -2.465 c 0.25 -0.102 0.703 -0.598 0.813 -0.891 c 0.074 -0.203 -0.391 -0.086 -0.715 0.18 c -0.582 0.473 -0.645 0.938 -0.098 0.711 m 2.398 2.527 c 0.414 0.145 0.563 -0.02 0.285 -0.316 c -0.242 -0.254 -0.738 -0.324 -0.754 -0.105 c -0.012 0.18 0.121 0.297 0.469 0.422 m 0.039 -2.875 c 0.344 -0.141 1.063 -0.938 0.953 -1.055 c -0.117 -0.125 -0.496 0.039 -0.961 0.418 c -0.574 0.473 -0.57 0.875 0.008 0.637"/><path d="m 5.207 11.988 c -0.234 -1.41 -0.527 -3.01 -0.648 -3.551 c -0.125 -0.539 -0.191 -1.094 -0.148 -1.227 c 0.059 -0.18 0.629 -0.355 2.27 -0.707 c 1.203 -0.254 2.34 -0.469 2.523 -0.469 c 0.188 -0.004 0.578 0.191 0.875 0.434 l 0.539 0.441 l 2.535 -0.453 c 1.391 -0.25 2.895 -0.523 3.336 -0.605 c 0.441 -0.082 0.891 -0.109 1 -0.055 c 0.207 0.102 0.207 1.527 0 1.699 c -0.133 0.105 -0.496 0.16 -8.699 1.266 c -2.062 0.277 -2.566 0.387 -2.426 0.535 c 0.078 0.086 2.73 0.09 7.148 0.012 c 2.629 -0.047 3.805 -0.008 3.938 0.133 c 0.125 0.133 -0.617 6.129 -0.801 6.457 c -0.25 0.445 -0.793 0.48 -3.01 0.211 c -6.04 -0.734 -7.453 -0.973 -7.754 -1.293 c -0.152 -0.16 -0.418 -1.281 -0.676 -2.828 m 3.688 2.01 c 0.168 -0.137 0.051 -2 -0.141 -2.238 c -0.293 -0.363 -0.465 0.047 -0.406 0.988 c 0.059 1.012 0.266 1.484 0.547 1.25 m -2.91 -3.754 c 0.129 -0.043 0.191 -0.168 0.145 -0.285 c -0.082 -0.211 -0.566 -0.352 -0.738 -0.211 c -0.168 0.141 0.359 0.578 0.594 0.496 m 4.512 3.359 c 0.184 -0.152 0.449 -0.293 0.582 -0.313 c 0.207 -0.031 0.254 0.027 0.309 0.379 c 0.082 0.543 0.074 0.539 0.609 0.32 c 1.105 -0.457 1.383 -0.844 0.859 -1.195 c -1.32 -0.898 -1.59 -0.949 -1.477 -0.285 c 0.094 0.52 -0.098 0.512 -0.887 -0.031 c -0.41 -0.285 -0.824 -0.488 -0.914 -0.449 c -0.094 0.035 -0.148 0.48 -0.117 0.984 c 0.047 0.855 0.074 0.918 0.371 0.891 c 0.18 -0.012 0.477 -0.148 0.664 -0.301 m -4.91 -4.621 c 0.273 -0.098 0.594 -0.707 0.449 -0.859 c -0.148 -0.16 -0.512 0 -0.762 0.336 c -0.238 0.324 -0.047 0.645 0.313 0.523 m 1.918 1.223 c 0.23 -0.004 0.27 -0.047 0.195 -0.23 c -0.098 -0.254 -0.621 -0.379 -0.691 -0.168 c -0.066 0.207 0.18 0.406 0.496 0.398 m -0.344 -1.418 c 0.297 -0.105 0.766 -0.785 0.676 -0.984 c -0.098 -0.211 -0.605 0.02 -0.922 0.426 c -0.285 0.359 -0.137 0.688 0.246 0.555 m 2.063 1.438 c 0.406 0.027 0.461 -0.125 0.141 -0.395 c -0.352 -0.297 -0.867 -0.125 -0.57 0.188 c 0.102 0.105 0.293 0.199 0.43 0.207 m -0.188 -1.711 c 0.422 -0.203 0.805 -0.812 0.629 -1 c -0.176 -0.188 -0.863 0.262 -1.027 0.668 c -0.16 0.398 -0.008 0.527 0.398 0.332 m 2.316 1.734 c 0.348 0.004 0.383 -0.02 0.309 -0.211 c -0.109 -0.277 -0.688 -0.477 -0.895 -0.309 c -0.234 0.191 0.129 0.512 0.586 0.52 m -0.348 -2.01 c 0.387 -0.086 0.965 -0.879 0.781 -1.074 c -0.238 -0.25 -0.77 0.043 -1.086 0.602 c -0.223 0.395 -0.113 0.562 0.305 0.473 m 2.469 2.039 c 0.195 0.023 0.402 0.004 0.453 -0.035 c 0.172 -0.145 -0.359 -0.563 -0.727 -0.566 c -0.629 -0.008 -0.387 0.531 0.273 0.602 m -0.227 -2.426 c 0.324 -0.117 1.027 -0.855 1.043 -1.098 c 0.016 -0.203 -0.652 -0.113 -0.941 0.125 c -0.344 0.281 -0.645 0.848 -0.523 0.977 c 0.059 0.063 0.246 0.059 0.422 -0.004 m 2.684 2.477 c 0.363 0.004 0.387 -0.012 0.297 -0.23 c -0.121 -0.309 -0.766 -0.57 -0.977 -0.395 c -0.246 0.199 0.211 0.617 0.68 0.625 m -0.379 -2.812 c 0.359 -0.125 1.145 -0.813 1.227 -1.074 c 0.063 -0.199 0.02 -0.227 -0.293 -0.207 c -0.402 0.027 -0.695 0.223 -1.129 0.754 c -0.301 0.367 -0.191 0.66 0.195 0.527"/><path d="m 5.543 12.91 c -0.715 -3.871 -0.715 -3.887 -0.484 -3.719 c 0.125 0.09 0.195 0.285 0.16 0.43 c -0.09 0.383 0.371 0.82 0.77 0.734 c 0.438 -0.094 0.504 -0.355 0.156 -0.609 c -0.352 -0.254 -0.223 -0.375 0.281 -0.262 c 0.254 0.059 0.379 0.152 0.371 0.281 c -0.02 0.301 0.273 0.531 0.691 0.535 c 0.473 0.008 0.59 -0.285 0.223 -0.555 c -0.227 -0.16 -0.227 -0.211 -0.016 -0.258 c 0.145 -0.031 0.437 -0.035 0.652 -0.012 c 0.34 0.035 0.371 0.063 0.273 0.242 c -0.152 0.27 0.172 0.586 0.613 0.59 c 0.516 0.008 0.66 -0.164 0.379 -0.465 c -0.309 -0.328 -0.195 -0.414 0.512 -0.398 c 0.5 0.012 0.555 0.043 0.469 0.262 c -0.137 0.359 0.172 0.613 0.766 0.633 c 0.43 0.012 0.508 -0.023 0.473 -0.219 c -0.023 -0.129 -0.176 -0.32 -0.344 -0.426 c -0.234 -0.152 -0.246 -0.203 -0.063 -0.234 c 0.332 -0.055 5.414 -0.09 5.758 -0.039 c 0.238 0.035 0.223 0.512 -0.105 3.082 c -0.215 1.676 -0.422 3.141 -0.465 3.262 c -0.043 0.121 -0.223 0.285 -0.398 0.371 c -0.309 0.148 -2.535 -0.082 -5.855 -0.602 c -0.875 -0.137 -1.637 -0.25 -1.695 -0.254 c -0.766 -0.023 -2.559 -0.43 -2.734 -0.621 c -0.043 -0.047 -0.219 -0.832 -0.387 -1.75 m 3.406 1.223 c 0.145 -0.113 0.184 -0.551 0.117 -1.227 c -0.102 -1.02 -0.277 -1.434 -0.594 -1.383 c -0.285 0.043 -0.348 0.371 -0.258 1.352 c 0.098 1.07 0.379 1.551 0.734 1.258 m 1.301 -0.285 c 0.945 -0.527 0.957 -0.527 1.027 -0.063 c 0.035 0.223 0.133 0.43 0.219 0.453 c 0.207 0.059 1.09 -0.348 1.531 -0.711 c 0.414 -0.34 0.32 -0.496 -0.73 -1.227 c -0.648 -0.449 -1.113 -0.457 -1.012 -0.02 c 0.113 0.492 -0.223 0.516 -0.793 0.055 c -0.305 -0.246 -0.688 -0.473 -0.852 -0.508 c -0.27 -0.055 -0.305 0.055 -0.309 1.012 c -0.008 0.59 0.07 1.133 0.164 1.203 c 0.109 0.074 0.41 -0.004 0.754 -0.195 m 3.254 -3.504 c 0.461 0.055 0.539 0.027 0.508 -0.18 c -0.07 -0.492 -1.195 -0.84 -1.273 -0.395 c -0.059 0.348 0.148 0.504 0.766 0.574 m 2.387 0.078 c 0.535 0.016 0.598 -0.129 0.23 -0.52 c -0.344 -0.367 -0.883 -0.469 -1.035 -0.195 c -0.176 0.309 0.262 0.695 0.805 0.715 m -11.324 -2.426 c -0.082 -0.316 -0.102 -0.656 -0.047 -0.754 c 0.055 -0.098 0.816 -0.336 1.695 -0.527 c 0.879 -0.188 1.859 -0.41 2.18 -0.492 c 0.727 -0.188 1.266 -0.07 1.672 0.359 c 0.379 0.402 0.809 0.434 2.105 0.148 c 1.398 -0.309 1.461 -0.25 0.699 0.621 c -0.301 0.348 -0.32 0.441 -0.109 0.574 c 0.234 0.148 0.211 0.164 -0.445 0.277 c -0.906 0.164 -1.031 0.07 -0.629 -0.457 c 0.398 -0.523 0.246 -0.91 -0.285 -0.723 c -0.43 0.148 -1.047 0.895 -0.992 1.195 c 0.031 0.172 -0.039 0.223 -0.383 0.281 c -0.59 0.098 -0.688 -0.055 -0.328 -0.527 c 0.605 -0.793 -0.285 -0.895 -0.984 -0.109 c -0.215 0.242 -0.355 0.523 -0.316 0.625 c 0.059 0.148 -0.012 0.203 -0.395 0.289 c -0.254 0.063 -0.484 0.09 -0.508 0.066 c -0.023 -0.027 0.109 -0.258 0.297 -0.52 c 0.367 -0.516 0.254 -0.809 -0.27 -0.695 c -0.391 0.082 -0.965 0.73 -0.953 1.074 c 0.004 0.184 -0.074 0.262 -0.32 0.316 c -0.309 0.066 -0.316 0.047 -0.164 -0.406 c 0.086 -0.262 0.121 -0.52 0.074 -0.57 c -0.199 -0.211 -0.641 -0.066 -0.961 0.316 c -0.379 0.449 -0.434 0.418 -0.637 -0.367 m 9.27 -0.488 c 0.273 -0.293 0.504 -0.66 0.516 -0.816 c 0.012 -0.156 0.055 -0.313 0.094 -0.348 c 0.043 -0.035 0.621 -0.152 1.285 -0.266 c 0.66 -0.109 1.32 -0.242 1.461 -0.289 c 0.367 -0.133 0.41 -0.031 0.391 0.875 l -0.016 0.805 l -0.516 0.09 c -0.281 0.051 -0.723 0.102 -0.984 0.109 l -0.477 0.02 l 0.664 -0.57 c 0.762 -0.652 0.891 -1.035 0.336 -0.992 c -0.387 0.031 -1.426 0.816 -1.535 1.164 c -0.039 0.125 0.031 0.27 0.164 0.332 c 0.195 0.098 0.137 0.133 -0.387 0.234 c -0.34 0.066 -0.816 0.137 -1.055 0.152 l -0.438 0.031"/><path d="m 7.785 10.582 c 0.379 -0.059 0.555 -0.426 0.32 -0.676 c -0.125 -0.133 -0.121 -0.23 0.012 -0.277 c 0.16 -0.055 0.238 0.012 0.363 0.32 c 0.125 0.313 0.242 0.41 0.605 0.504 c 0.566 0.148 0.965 -0.211 0.684 -0.613 c -0.18 -0.258 -0.168 -0.27 0.18 -0.266 c 0.266 0.004 0.398 0.086 0.488 0.301 c 0.145 0.359 0.535 0.57 1.078 0.574 c 0.488 0.008 0.602 -0.23 0.277 -0.574 c -0.277 -0.293 -0.219 -0.375 0.25 -0.367 c 0.25 0 0.426 0.125 0.691 0.48 c 0.301 0.402 0.438 0.477 0.863 0.488 c 0.605 0.02 0.723 -0.203 0.332 -0.617 c -0.359 -0.379 -0.262 -0.465 0.469 -0.406 c 0.512 0.043 0.574 0.078 0.531 0.316 c -0.066 0.387 0.227 0.637 0.832 0.719 c 0.719 0.094 0.926 -0.27 0.406 -0.707 l -0.375 -0.316 l 0.711 -0.035 c 0.387 -0.016 0.758 0.023 0.82 0.09 c 0.105 0.117 -0.168 2.496 -0.582 5 c -0.117 0.715 -0.313 1.332 -0.457 1.449 c -0.273 0.227 -0.891 0.195 -2.863 -0.137 l -1.316 -0.219 l -0.789 -0.84 c -0.723 -0.77 -0.77 -0.855 -0.566 -1.02 c 0.266 -0.223 0.352 -0.148 0.344 0.285 c -0.004 0.184 0.086 0.379 0.199 0.434 c 0.227 0.113 1.504 -0.52 1.926 -0.953 c 0.254 -0.266 0.242 -0.313 -0.18 -0.734 c -0.25 -0.246 -0.695 -0.602 -0.992 -0.785 c -0.578 -0.359 -0.867 -0.273 -0.938 0.273 c -0.035 0.289 -0.09 0.273 -0.758 -0.207 c -0.414 -0.297 -0.816 -0.488 -0.938 -0.445 c -0.117 0.039 -0.293 -0.012 -0.391 -0.117 c -0.098 -0.105 -0.32 -0.18 -0.496 -0.164 c -0.203 0.012 -0.449 -0.117 -0.672 -0.348 c -0.297 -0.316 -0.309 -0.379 -0.07 -0.414 m -3.105 -3.246 c 0.047 -0.145 3.973 -1.113 4.512 -1.113 c 0.188 0 0.477 0.145 0.648 0.328 c 0.168 0.176 0.461 0.355 0.656 0.391 c 0.504 0.098 0.516 0.148 0.133 0.605 c -0.191 0.227 -0.363 0.508 -0.383 0.621 c -0.023 0.137 -0.16 0.234 -0.41 0.289 c -0.363 0.082 -0.367 0.07 -0.043 -0.449 c 0.184 -0.289 0.273 -0.594 0.199 -0.672 c -0.328 -0.348 -1.547 0.367 -1.762 1.035 c -0.07 0.227 -0.16 0.301 -0.332 0.293 c -0.172 -0.012 -0.16 -0.109 0.051 -0.375 c 0.371 -0.473 0.234 -0.793 -0.332 -0.77 c -0.352 0.012 -0.523 0.109 -0.824 0.453 c -0.336 0.387 -0.383 0.402 -0.391 0.156 c -0.004 -0.23 -0.078 -0.281 -0.434 -0.301 c -0.238 -0.016 -0.504 0.035 -0.598 0.109 c -0.176 0.145 -0.77 -0.367 -0.691 -0.602 m 7.06 0.488 c 0.102 -0.18 0.23 -0.367 0.285 -0.41 c 0.055 -0.047 0.07 -0.191 0.039 -0.328 c -0.051 -0.227 -0.016 -0.258 0.441 -0.363 c 0.738 -0.172 0.84 -0.074 0.422 0.406 c -0.211 0.242 -0.387 0.563 -0.398 0.719 c -0.02 0.242 -0.074 0.285 -0.461 0.336 c -0.543 0.074 -0.563 0.055 -0.328 -0.355 m 2.051 -0.109 c 0.066 -0.113 0.191 -0.27 0.285 -0.344 c 0.09 -0.074 0.266 -0.348 0.383 -0.609 c 0.207 -0.449 0.246 -0.473 0.859 -0.57 l 0.641 -0.102 l -0.539 0.629 c -0.297 0.348 -0.52 0.723 -0.5 0.836 c 0.031 0.164 -0.09 0.23 -0.574 0.316 c -0.699 0.125 -0.711 0.121 -0.555 -0.156 m 2.734 -0.754 c 0.344 -0.344 0.512 -0.621 0.492 -0.828 c -0.023 -0.234 0.027 -0.305 0.207 -0.297 c 0.18 0.012 0.25 0.168 0.285 0.641 c 0.027 0.34 0 0.703 -0.055 0.801 c -0.105 0.188 -1.246 0.426 -1.375 0.285 c -0.043 -0.047 0.156 -0.316 0.445 -0.602"/><path d="m 12.355 11.523 c -0.637 -0.789 -0.656 -0.832 -0.391 -1.051 c 0.223 -0.18 0.23 -0.289 0.039 -0.543 c -0.184 -0.25 -0.18 -0.324 0.012 -0.328 c 0.164 -0.004 0.371 0.16 0.613 0.48 c 0.328 0.441 0.422 0.488 0.977 0.477 c 0.695 -0.016 0.785 -0.133 0.508 -0.656 l -0.191 -0.363 l 0.477 -0.016 c 0.309 -0.008 0.441 0.043 0.379 0.145 c -0.055 0.09 0.066 0.332 0.277 0.555 c 0.289 0.309 0.488 0.391 0.871 0.371 c 0.637 -0.031 0.738 -0.203 0.395 -0.648 c -0.332 -0.438 -0.262 -0.504 0.457 -0.445 l 0.566 0.043 l -0.313 2.215 c -0.426 3.02 -0.578 3.895 -0.699 3.992 c -0.109 0.094 -2.813 -2.781 -3.977 -4.227 m -3.992 -5.04 c 0.73 -0.234 1.277 -0.148 1.664 0.262 c 0.172 0.18 0.414 0.336 0.539 0.344 c 0.25 0.016 0.18 0.156 -0.406 0.836 l -0.328 0.379 l 0.215 -0.445 c 0.32 -0.664 -0.008 -0.91 -0.832 -0.625 c -0.629 0.219 -0.68 0.211 -1.039 -0.168 l -0.375 -0.398 m 4.133 1.012 c 0.156 -0.25 0.25 -0.523 0.211 -0.609 c -0.055 -0.121 0.027 -0.184 0.344 -0.273 c 0.57 -0.16 0.648 0 0.242 0.484 c -0.191 0.227 -0.359 0.496 -0.379 0.602 c -0.02 0.117 -0.164 0.199 -0.367 0.219 c -0.309 0.023 -0.313 -0.004 -0.051 -0.422 m 1.969 -0.055 c 0.063 -0.113 0.195 -0.277 0.297 -0.359 c 0.102 -0.082 0.254 -0.324 0.34 -0.531 c 0.141 -0.34 0.223 -0.391 0.738 -0.465 l 0.574 -0.086 l -0.527 0.555 c -0.293 0.305 -0.516 0.641 -0.496 0.742 c 0.027 0.145 -0.094 0.219 -0.469 0.309 c -0.574 0.133 -0.617 0.117 -0.457 -0.168 m 2.484 -0.387 c 0.109 -0.152 0.305 -0.363 0.438 -0.473 c 0.133 -0.109 0.25 -0.344 0.262 -0.516 c 0.012 -0.199 0.094 -0.313 0.215 -0.305 c 0.199 0.012 0.258 1.316 0.066 1.461 c -0.055 0.043 -0.34 0.082 -0.637 0.094 l -0.539 0.016"/><path d="m 14.332 10.141 c -0.172 -0.242 -0.199 -0.391 -0.074 -0.434 c 0.133 -0.047 0.316 0.098 0.605 0.469 c 0.371 0.484 0.465 0.535 0.934 0.512 c 0.699 -0.035 0.984 -0.363 0.703 -0.797 l -0.219 -0.34 l 0.945 0.086 l -0.148 1.137 c -0.082 0.621 -0.207 1.328 -0.277 1.566 l -0.129 0.434 l -1.035 -1.133 c -0.57 -0.625 -1.156 -1.301 -1.305 -1.5 m -2.066 -2.887 c 0.066 -0.215 0.191 -0.336 0.379 -0.375 c 0.242 -0.047 0.25 -0.012 0.051 0.258 c -0.32 0.434 -0.555 0.496 -0.43 0.117 m 1.773 0.328 c 0.117 -0.102 0.344 -0.414 0.508 -0.688 c 0.215 -0.355 0.387 -0.52 0.609 -0.566 c 0.395 -0.086 0.383 0.035 -0.051 0.563 c -0.191 0.23 -0.395 0.512 -0.449 0.625 c -0.059 0.113 -0.27 0.219 -0.469 0.23 c -0.359 0.023 -0.363 0.023 -0.148 -0.164 m 2.652 -0.621 c 0.23 -0.262 0.438 -0.578 0.461 -0.699 c 0.078 -0.434 0.254 -0.199 0.266 0.352 c 0.016 0.648 -0.105 0.789 -0.711 0.813 l -0.438 0.016 l 0.422 -0.477"/></g></svg>