<svg xmlns="http://www.w3.org/2000/svg" viewBox="0 0 22 22"><path d="m 11.04 0.27 c 14.766 -1.652 14.559 21.992 -0.262 21.711 c -13.781 0.781 -15.03 -23 0.262 -21.711" fill="#2f3033"/><path d="m 4.961 17.05 c -0.129 -0.055 -0.168 -0.109 -0.195 -0.266 c -0.043 -0.254 -0.031 -10.988 0.012 -11.391 l 0.031 -0.305 h 12.1 l 0.031 0.305 c 0.047 0.402 0.055 11.137 0.012 11.391 c -0.059 0.355 0.289 0.336 -6.105 0.336 c -4.691 -0.004 -5.754 -0.016 -5.887 -0.07" fill="#2160a2"/><g transform="matrix(0.05193 0 0 0.05088 3.405 4.374)"><path d="m 46.21 35.805 h 193.84 c 1.279 0 2.257 33.935 2.257 75.7 v 40.15 c 0 41.766 -0.978 75.7 -2.257 75.7 h -193.84 c -1.279 0 -2.257 -33.935 -2.257 -75.7 v -40.15 c 0 -41.766 0.978 -75.7 2.257 -75.7" fill="#2f3033" stroke="#2f3033" stroke-width="3.344"/><g fill="#f24034" stroke="#f24034"><path d="m 77.65 162.95 v -34.32 h 41.3 v 68.71 h -41.3" stroke-width="1.814"/><path d="m 172.43 95.15 v -39.847 c 6.544 -0.614 38.437 -1.536 38.964 0.23 c 0.301 1.228 0.527 19.578 0.602 40.768 v 38.695 h -39.566 c 0 -13.282 0 -26.565 0 -39.847" stroke-width="1.805"/></g><g fill="#2688f3" stroke="#2688f3"><path d="m 172.73 172.7 v -24.568 h 39.566 v 49.21 h -39.566" stroke-width="1.755"/><path d="m 77.955 97.3 v -17.889 h 41.3 v 35.701 h -41.3" stroke-width="1.814"/></g><path d="m 154.53 170.09 c -10 -17.659 -20.08 -35.24 -30.24 -52.745 v -34.78 l 17 25.11 c 9.628 14.13 15.194 23.724 27.15 40.15 c -0.15 18.964 -0.451 22.572 0.226 46.45 c -6.544 -11.133 -8.876 -14.971 -14.14 -24.18" fill="#2276cf" stroke="#2276cf" stroke-width="1.781"/><g fill="#c9382f" stroke="#c9382f"><path d="m 124.21 128.47 c 1.655 -0.691 3.084 2.303 12.336 17.582 c 6.168 10.288 9.402 16.12 9.102 16.66 c -0.602 1.075 -20.16 32.25 -21.287 33.551 c 0.677 -27.639 -0.752 -57.2 -0.15 -67.793" stroke-width="1.66"/><path d="m 141.67 99.84 c 10.606 -14.895 16.398 -26.18 26.402 -41.92 l -0.301 37.16 c -0.301 36.08 0.226 38.695 -1.204 40 c -10.606 -13.666 -13.163 -16.507 -24.898 -35.24" stroke-width="1.684"/></g></g></svg>