<svg xmlns="http://www.w3.org/2000/svg" viewBox="0 0 22 22"><path d="m 20.19 16.688 c 10.961 -22.598 -31.723 -21.793 -16.844 0.148 c 3.93 5.637 13.285 7.813 16.844 -0.148" fill="#4581b3"/><path d="m 103.32 113.5 c -6.955 -0.818 -5.909 0.045 -12.318 2.818 c -5 -8.227 -5.364 -20.591 -2 -27.773 c 2.864 -5.818 7.409 -9.909 15.455 -13.773 c 19.818 -9.455 24.682 -8.273 46.545 0.273 c 16.227 14.05 10.909 34 -5.864 22.636 c -5.227 -4.409 -8.364 -7.227 -14.5 -7.909 c -6.5 -0.727 -12 -2.864 -16.545 -0.591 c -4.045 2.045 -6.182 5.364 -6.273 9.955 c -0.045 3.045 -0.409 4.455 3.364 6.409 l 23.818 7.545 l 8.318 9.182 c -2.227 2.773 -20.955 -2.455 -22.909 -8.227 c -6.773 -6 -11.591 7.955 -17.09 -0.545" transform="scale(0.08594)" fill="#fff" stroke="#fff" stroke-width="0.736"/><path d="m 269.55 85.22 c -1.646 -0.231 -7.701 -1.328 -13.463 -2.367 c -8.113 -1.501 -14.932 -1.963 -29.747 -1.963 c -17.931 0 -19.283 -0.115 -20.223 -1.963 c -0.588 -1.039 -1.058 -2.887 -1.058 -3.984 c 0 -2.772 7.525 -17.668 10.347 -20.498 c 1.176 -1.213 4.821 -4.966 8.05 -8.372 l 5.938 -6.236 l -2.293 -4.908 c -1.293 -2.714 -2.881 -5.197 -3.586 -5.428 c -3.704 -1.443 -16.05 8.08 -19.753 15.301 c -1.235 2.425 -3.469 5.312 -4.997 6.409 c -2.587 1.963 -2.822 1.963 -6.232 0.346 c -1.94 -0.924 -4.762 -1.674 -6.232 -1.674 c -3.116 0 -8.642 -3.118 -11.346 -6.351 c -2.234 -2.656 -2.469 -10.74 -0.47 -16.398 c 1.352 -3.926 7.349 -14.319 12.169 -21.13 c 1.352 -1.905 2.41 -4.792 2.41 -6.525 c 0 -6.582 3.233 -13.915 9.583 -21.768 c 1.94 -2.367 2.058 -3.176 1.176 -7.102 c -1.117 -4.792 -0.294 -11.721 1.352 -11.721 c 1.293 0 12.11 7.333 13.815 9.412 c 2.175 2.656 3.763 1.848 7.76 -3.926 c 2.116 -3 4.586 -5.485 5.526 -5.485 c 1.47 0 4.938 4.33 8.407 10.509 c 0.823 1.501 2.528 2.136 6.996 2.541 c 6.173 0.635 9.112 1.848 18.11 7.622 c 9.112 5.832 10.112 0.693 1.235 -6.698 c -5.526 -4.619 -6.937 -8.141 -6.937 -17.15 c 0 -7.853 1.176 -8.834 10.641 -8.834 c 8.818 0 10.876 0.866 11.699 5.02 c 0.588 3 0.705 3.06 5.879 2.772 c 4.762 -0.289 5.291 -0.52 5.585 -2.772 c 0.647 -4.446 1.881 -5.02 10.641 -5.02 c 8.877 0 11.229 0.982 11.699 5.02 c 0.294 2.252 0.764 2.483 5.35 2.483 c 4.586 0 4.997 -0.231 5.35 -2.483 c 0.588 -4.446 1.881 -5.02 10.582 -5.02 c 5.644 0 8.76 0.462 10.112 1.443 c 1.058 0.808 2.763 1.501 3.821 1.501 c 1.529 0.058 1.764 0.52 1.176 2.829 c -0.412 1.501 -0.941 4.908 -1.235 7.622 c -0.47 4.504 -1.058 5.428 -7.937 12.07 l -7.349 7.16 v 22.576 l 4.233 4.157 c 4.233 4.157 7.76 11.779 7.76 16.802 c 0 1.27 -0.764 5.37 -1.646 9.123 c -2.116 8.719 -1.117 11.721 3.998 11.721 c 4.586 0 5.82 1.79 5.409 8.141 l -0.294 5.37 l -13.286 0.462 c -10.288 0.404 -13.463 0.866 -14.227 2.02 c -0.529 0.808 -0.941 4.85 -0.999 9.01 c 0 4.1 -0.353 8.03 -0.764 8.661 c -0.941 1.501 -4.762 3.06 -13.698 5.485 c -6.937 1.905 -31.922 3.291 -39.04 2.194 m -27.69 -10.566 c 0.764 -0.751 1.235 -4.908 1.235 -11.894 v -10.74 l -4.292 -4.04 c -2.352 -2.252 -4.938 -4.1 -5.761 -4.1 c -0.823 0 -5.232 4.33 -9.759 9.643 c -8.524 10.05 -12.992 18.65 -10.994 21.08 c 1.411 1.732 27.866 1.79 29.571 0.058 m 18.519 -1.213 c 18.695 -4.273 25.04 -4.273 46.972 0.173 c 4.233 0.866 8.05 1.27 8.466 0.866 c 1.529 -1.559 -1.764 -4.1 -7.819 -5.947 c -9.289 -2.829 -37.21 -3 -47.737 -0.289 c -7.231 1.848 -10.758 3.926 -9.641 5.716 c 0.764 1.27 2.469 1.155 9.759 -0.52 m 0.941 -10.509 c 22.987 -3.522 24.691 -3.522 44.738 0.115 c 8.701 1.617 9.524 1.559 9.524 -0.635 c 0 -1.617 -1.352 -2.425 -6.526 -3.926 c -8.348 -2.483 -38.86 -2.887 -48.795 -0.693 c -7.349 1.617 -11.64 4.446 -9.171 6.06 c 0.823 0.52 2.058 0.808 2.763 0.52 c 0.647 -0.231 4.056 -0.866 7.466 -1.386 m 85.3 -11.202 c 1.235 -1.963 -1.822 -2.887 -9.524 -2.887 c -8.818 0 -12.05 0.693 -12.05 2.598 c 0 1.097 2.234 1.386 10.464 1.386 c 6.584 0 10.7 -0.404 11.11 -1.097 m -85.48 -3.349 c 16.285 -3.118 33.804 -2.887 47.27 0.577 c 7.584 1.963 8.995 1.501 17.17 -5.139 c 9.759 -7.968 13.521 -13.627 13.521 -20.267 c 0 -7.391 -4.056 -13.222 -11.699 -17.15 c -5.232 -2.598 -15.814 -2.136 -22.05 0.982 c -9.583 4.735 -16.931 15.243 -19.4 27.715 c -0.882 4.446 -1.529 5.716 -2.763 5.485 c -1.058 -0.173 -1.822 -1.848 -2.293 -5.081 c -1.646 -11.432 -10.406 -23.962 -20.05 -28.466 c -6.467 -3 -16.402 -3.06 -22.575 -0.115 c -8.113 3.984 -12.404 12.761 -10.171 21.08 c 1.822 6.698 19.93 23.558 23.986 22.288 c 0.941 -0.289 4.997 -1.155 9.05 -1.905 m -18.11 -8.776 c -10.994 -9.585 -13.404 -17.553 -7.407 -24.655 c 2.41 -2.945 9.759 -6.12 13.933 -6.12 c 4.056 0 11.288 3.118 15.403 6.64 c 5.526 4.735 10.347 14.262 10.464 20.844 l 0.118 5.02 l -6.467 0.808 c -3.586 0.404 -9.347 1.386 -12.816 2.079 l -6.349 1.328 m 58.672 -1.732 c -1.646 -0.462 -6.06 -1.097 -9.7 -1.501 c -3.704 -0.346 -7.172 -1.27 -7.76 -1.963 c -2.939 -3.522 4.703 -20.902 11.229 -25.636 c 5.056 -3.638 13.05 -6.294 16.872 -5.543 c 9.641 1.963 15.05 7.04 15.05 14.15 c 0 5.485 -3.116 9.989 -11.934 17.264 c -5.291 4.388 -7.584 4.908 -13.757 3.233 m -91.77 -17.553 c 4.762 -2.483 5.467 -3.349 7.407 -8.603 c 1.587 -4.446 3.527 -7.16 8.466 -11.779 l 6.349 -6 l 10.288 0.808 c 7.29 0.577 11.464 1.443 14.462 2.945 c 2.293 1.213 4.644 2.194 5.232 2.194 c 2.293 0 1.058 -8.08 -1.822 -12.356 c -8.348 -12.13 -24.809 -20.96 -30.1 -16.17 c -2.939 2.656 -4.644 1.27 -5.409 -4.273 c -1.176 -8.719 -5.291 -8.834 -7.643 -0.173 c -0.941 3.58 -1.352 3.984 -4.35 3.984 c -2.175 0 -4.056 0.808 -5.644 2.483 c -2.528 2.656 -5.996 3.349 -5.996 1.155 c 0 -0.751 0.941 -2.194 2.058 -3.176 c 2.704 -2.483 2.175 -6.178 -1.293 -8.257 c -3.704 -2.252 -5.056 -0.808 -3.586 3.926 c 1.058 3.522 0.941 3.869 -3.351 9.123 c -4.233 5.254 -5.938 9.354 -7.29 17.784 c -0.294 1.963 -2.116 6.178 -4.056 9.296 c -1.881 3.118 -4.938 8.03 -6.702 10.913 c -3.763 6.06 -6.232 14.666 -5.35 18.246 c 0.764 3.06 5.938 5.889 9.289 5.02 c 1.352 -0.346 3.175 -1.963 4.115 -3.58 c 0.941 -1.617 2.528 -2.945 3.527 -2.945 c 1.587 0 1.764 0.52 1.176 4.215 l -0.705 4.273 l 7.819 -8.141 c 4.468 -4.619 10.112 -9.296 13.11 -10.913 m -34.686 8.08 c -2.822 -3.407 1.529 -8.43 4.586 -5.312 c 1.411 1.386 1.529 2.136 0.529 4.215 c -1.293 2.887 -3.292 3.291 -5.115 1.097 m 17.931 -37.646 c 0 -2.714 6.173 -8.892 8.936 -8.892 c 1.117 0 2.058 0.462 2.058 1.039 c 0 2.425 -3.233 7.04 -5.938 8.43 c -3.939 2.079 -5.056 1.905 -5.056 -0.577 m 88.07 19.92 c 4.762 -9.874 5.232 -15.648 1.646 -20.902 c -1.764 -2.656 -3.057 -3.464 -5.82 -3.695 c -2.998 -0.289 -4.056 0.231 -6.232 2.829 c -3.88 4.561 -3.704 12.241 0.412 20.96 c 2.939 6.12 4.703 9.01 5.585 9.01 c 0.235 0 2.234 -3.695 4.409 -8.199 m -7.584 -6.294 c -2.704 -6.409 -0.941 -14.493 3.116 -14.493 c 2.058 0 4.703 6.64 3.939 9.874 c -1.999 8.603 -4.703 10.393 -7.05 4.619 m 23.516 -6.987 c 4.115 -2.079 6.349 -2.541 13.286 -2.541 c 5.173 0 8.818 -0.462 9.524 -1.213 c 1.764 -1.732 1.646 -18.19 -0.176 -19.689 c -0.941 -0.808 -7.29 -1.039 -20.753 -0.866 l -19.342 0.289 l -0.294 3.522 c -0.294 3 0.118 3.753 2.822 5.37 c 3.527 2.079 6.878 8.488 6.937 13.165 c 0 5.254 0.999 5.485 7.995 1.963 m -24.985 -16.514 c 2.293 -2.31 2.41 -3.349 0.941 -6.06 c -2.175 -4.1 -6.937 -1.674 -6.937 3.58 c 0 4.966 2.469 6 5.996 2.483 m 52.793 -14.377 c 3.175 -3.176 0.47 -3.638 -20.576 -3.638 c -21.87 0.058 -25.926 0.693 -20.11 3.291 c 4.997 2.252 4.586 2.252 22.575 2.02 c 13.05 -0.173 16.931 -0.52 18.11 -1.674 m -56.26 -0.231 c 4.468 -1.848 3.233 -3.349 -2.704 -3.407 c -4.174 0 -5.585 1.386 -3.763 3.522 c 1.47 1.848 1.822 1.848 6.467 -0.115 m 63.26 -8.603 c 1.352 -1.386 1.587 -8.661 0.353 -10.624 c -0.529 -0.866 -2.469 -1.213 -5.761 -0.982 c -4.468 0.289 -4.879 0.52 -5.173 3 c -0.529 4.273 -2.234 4.908 -11.875 4.619 l -8.818 -0.346 l -0.529 -3.464 l -0.47 -3.522 h -5.526 c -5.115 0 -5.526 0.173 -5.82 2.541 c -0.647 4.446 -1.822 4.966 -11.758 4.966 h -9.347 l -0.647 -2.714 c -1.176 -5.428 -1.117 -5.37 -6.643 -5.081 l -5.291 0.289 l -0.294 4.85 c -0.176 2.714 0.235 5.428 0.882 6.236 c 0.999 1.213 7.407 1.443 38.33 1.443 c 27.631 0 37.507 -0.346 38.39 -1.213" transform="matrix(0.06645 0 0 0.06765 -5.176 11.981)" stroke="#000"/><g fill="#00abec" stroke="#00abec" stroke-width="0.736" transform="matrix(0.06645 0 0 0.06765 2.793 2.473)"><path d="m 50.09 177.94 c -9.347 -10.855 -16.579 -24.08 -19.929 -36.665 c -1.764 -6.582 -1.999 -9.238 -2.528 -25 c -0.529 -16.976 -0.588 -17.899 -2.646 -23.21 c -1.94 -5.197 -2.058 -6.178 -2.058 -16.918 c 0 -10.05 0.176 -11.952 1.646 -16.17 c 2.822 -7.968 7.231 -14.608 14.05 -21.421 c 5.291 -5.254 7.584 -6.929 13.345 -9.758 c 9.7 -4.792 14.697 -5.947 24.985 -5.947 c 8.818 0.058 15.403 1.27 21.928 4.157 c 2.763 1.27 4.115 1.386 8.524 0.924 c 23.927 -2.425 47.972 3.464 66.2 16.225 c 6.467 4.561 16.99 15.01 22.516 22.461 c 3.821 5.139 11.05 18.304 11.05 20.04 c -1.47 1.328 -3.645 2.02 -4.115 3.984 c -0.764 3.233 -1.705 3.926 -5.409 3.926 c -3.586 0 -5.173 -0.924 -5.173 -3 c 0 -0.693 -0.705 -1.848 -1.529 -2.598 c -1.235 -1.097 -2.998 -1.443 -9.05 -1.674 c -9.23 -0.289 -11.229 0.346 -11.934 3.984 c -0.529 2.887 -0.647 2.945 -5.585 3.58 c -2.587 0.289 -3.763 0.115 -4.644 -0.751 c -1.764 -1.79 -1.352 -2.772 1.822 -4.1 c 3.763 -1.559 5.526 -5.254 4.879 -10.1 c -1.235 -8.719 -9.465 -15.763 -25.1 -21.479 c -23.927 -6.409 -39.33 -4.215 -49.618 0.231 c -15.579 7.217 -22.575 23.385 -19.11 39.725 c 0.999 4.561 2.234 7.275 5.173 10.971 c 2.881 3.638 2.704 5.832 -0.941 10.682 c -3.939 5.37 -7.05 12.356 -7.701 17.264 c -0.647 5.254 -1.529 7.217 -6.467 14.897 c -7.819 12.183 -10.758 20.324 -9.583 26.618 c 0.235 1.386 0.353 2.541 0.235 2.541 c -0.176 0 -1.587 -1.559 -3.233 -3.464"/><path d="m 140.92 118.59 c 0 -0.462 -2.058 -2.829 -4.586 -5.37 c -2.528 -2.541 -5.409 -5.543 -6.408 -6.698 c -1.587 -1.79 -3.057 -2.367 -9.465 -3.753 c -4.174 -0.866 -7.878 -1.443 -8.172 -1.27 c -1.705 -0.52 -2.704 -1.963 -4.468 -2.136 c -1.352 0.404 -8.348 -4.735 -9.112 -6.698 c -1.293 -3.407 0 -9.01 2.763 -11.952 c 4.056 -4.388 13.345 -6.467 23.16 -5.254 c 6.29 0.808 10.229 2.656 16.285 7.679 l 4.409 3.695 l -3.469 0.52 c -5.409 0.808 -6.29 2.367 -5.938 10.509 c 0.412 7.968 1.352 10.162 7.29 16.225 c 3.41 3.464 6.702 6.467 6.349 7.795 c -2.763 1.501 -6.702 -1.213 -8.642 -3.291"/></g></svg>