<svg xmlns="http://www.w3.org/2000/svg" viewBox="0 0 22 22"><path d="m 4.719 19.758 c 16.238 10.848 26.24 -23.742 5.25 -19.16 c -8.676 1.953 -13.941 14.191 -5.25 19.16" fill="#cad0e8"/><path d="m 11.313 3.84 c -2.926 2.02 -5.199 4.832 -7.609 7.516 h 2.793 v 5.555 h 9.633 v -5.555 h 2.793 c -2.41 -2.684 -4.688 -5.5 -7.609 -7.516" fill="#165472"/><path d="m 11.313 5.281 c -2.449 1.469 -4.352 3.52 -6.371 5.477 h 2.34 v 3.43 h -0.004 v 2.113 h 8.07 v -5.543 h 2.34 c -2.02 -1.957 -3.926 -4.01 -6.371 -5.477" fill="#afd0e8"/><path d="m 11.313 8.426 l -1.777 1.027 l 0.871 1.523 l -0.871 3.926 h 3.551 l -0.867 -3.926 l 0.867 -1.523" fill="#d6e5f4"/><path d="m 11.313 8.66 l -1.387 0.938 l 0.68 1.398 l -0.68 3.598 h 2.77 l -0.676 -3.598 l 0.676 -1.398" fill="#163b4f"/></svg>