<svg xmlns="http://www.w3.org/2000/svg" viewBox="0 0 22 22"><path d="m 18.19 3.957 c 10.949 8.91 -5.082 24.996 -14.773 14.719 c -9.715 -8.844 5.445 -26.01 14.773 -14.719" fill="#eff8ff"/><path d="m 227.35 138.61 c 0 43.556 -36.2 78.8 -80.85 78.8 c -44.65 0 -80.85 -35.25 -80.85 -78.8 c 0 -43.512 36.2 -78.76 80.85 -78.76 c 44.65 0 80.85 35.25 80.85 78.76" transform="matrix(0.08871 0 0 0.08744 -1.852 -0.702)" fill="#fff" stroke="#3c3c3c" stroke-width="20.728"/><g fill="#006fff" stroke="#006fff" stroke-width="3.77" transform="matrix(0.07114 0 0 0.06284 1.706 3.398)"><path d="m 147.33 204.65 c -0.329 -0.497 0.439 -1.305 1.757 -1.803 c 1.373 -0.559 2.471 -1.803 2.636 -3.046 c 0.879 -2.984 3.734 -3.606 5.601 -5.657 c 1.098 -1.741 1.043 -12.371 -0.11 -15.355 c -0.879 -2.362 -1.153 -2.424 -9.39 -2.424 c -8.511 0 -8.511 0 -8.511 -2.362 c -0.769 -3.295 -2.746 -3.357 -5.656 -4.414 v -32.761 c 2.91 0.249 5.05 -0.746 5.766 -2.86 l 0.988 -2.797 h 33.715 l 0.275 27.04 c 0.11 14.92 0.11 27.85 -0.055 28.72 c -0.22 0.87 -1.318 1.803 -2.526 2.114 c -2.91 1.181 -3.624 4.414 -6.205 5.781 c -2.636 1.616 -3.35 4.476 -5.985 5.595 c -1.757 0.746 -3.514 2.238 -3.844 3.295 c -0.439 1.43 -1.428 1.865 -4.228 1.865 c -2.032 0 -3.899 -0.373 -4.228 -0.932"/><path d="m 161.56 49.11 c 0.329 0.497 -0.439 1.368 -1.757 1.865 c -1.318 0.497 -2.416 1.741 -2.636 3.046 c -0.879 2.922 -3.734 3.543 -5.601 5.595 c -1.098 1.741 -1.043 12.371 0.11 15.355 c 0.879 2.362 1.153 2.424 9.39 2.424 c 8.511 0 8.511 0 8.511 2.424 c 0.769 3.295 2.746 3.357 5.656 4.352 v 32.823 c -2.855 -0.249 -4.997 0.684 -5.766 2.797 l -0.988 2.86 h -33.715 l -0.275 -27.1 c -0.11 -14.92 -0.11 -27.788 0.11 -28.658 c 0.165 -0.87 1.318 -1.865 2.526 -2.114 c 2.855 -1.243 3.624 -4.414 6.15 -5.781 c 2.691 -1.678 3.404 -4.538 5.985 -5.657 c 1.757 -0.746 3.514 -2.238 3.844 -3.233 c 0.439 -1.492 1.428 -1.927 4.228 -1.927 c 2.032 0 3.954 0.435 4.228 0.932"/><path d="m 97.64 205.39 c -0.329 -0.497 0.439 -1.305 1.757 -1.803 c 1.318 -0.497 2.471 -1.803 2.636 -3.046 c 0.879 -2.984 3.734 -3.543 5.601 -5.657 c 1.098 -1.741 1.043 -12.371 -0.11 -15.293 c -0.879 -2.362 -1.153 -2.424 -9.39 -2.424 c -8.511 0 -8.511 0 -8.511 -2.424 c -0.769 -3.295 -2.746 -3.357 -5.656 -4.352 v -32.823 c 2.855 0.249 5.05 -0.746 5.766 -2.86 l 0.988 -2.797 h 33.715 l 0.275 27.1 c 0.11 14.92 0.11 27.788 -0.11 28.658 c -0.165 0.87 -1.318 1.803 -2.526 2.114 c -2.855 1.243 -3.624 4.414 -6.15 5.781 c -2.691 1.616 -3.404 4.538 -5.985 5.657 c -1.757 0.746 -3.514 2.176 -3.844 3.233 c -0.439 1.492 -1.428 1.927 -4.228 1.927 c -2.032 0 -3.954 -0.435 -4.228 -0.995"/><path d="m 112.25 49.856 c 0.329 0.559 -0.439 1.368 -1.757 1.865 c -1.373 0.497 -2.471 1.803 -2.636 3.046 c -0.879 2.922 -3.734 3.543 -5.601 5.657 c -1.098 1.678 -1.043 12.371 0.11 15.293 c 0.879 2.362 1.153 2.424 9.39 2.424 c 8.511 0 8.511 0 8.511 2.424 c 0.769 3.295 2.746 3.357 5.656 4.352 v 32.823 c -2.91 -0.249 -5.05 0.746 -5.766 2.86 l -0.988 2.797 h -33.715 l -0.275 -27.1 c -0.11 -14.92 -0.11 -27.788 0.055 -28.658 c 0.22 -0.87 1.318 -1.803 2.526 -2.114 c 2.91 -1.243 3.624 -4.414 6.205 -5.781 c 2.636 -1.616 3.35 -4.538 5.985 -5.657 c 1.757 -0.746 3.514 -2.176 3.844 -3.233 c 0.439 -1.492 1.428 -1.927 4.228 -1.927 c 2.032 0 3.899 0.435 4.228 0.932"/></g></svg>