<svg xmlns="http://www.w3.org/2000/svg" viewBox="0 0 22 22" xmlns:xlink="http://www.w3.org/1999/xlink"><defs><clipPath id="9"><path d="m 5 6 h 13 v 11 h -13"/></clipPath><clipPath id="A"><path d="m 16.289 6.512 c 0.016 0.031 0.047 0.082 0.066 0.141 c 0.012 0.027 0.012 0.035 0.016 0.047 c 0.008 0.023 0.012 0.035 0.016 0.051 c 0.004 0.012 0.004 0.004 0.008 0.016 c 0 0.012 0.008 0.027 0.008 0.039 c 0.004 0.012 0.008 0.027 0.012 0.039 c 0.004 0.012 0.008 0.027 0.012 0.039 c 0 0.012 0.008 0.059 0.012 0.07 c 0.016 0.07 0.012 0.094 0.02 0.164 c 0.004 0.07 0.008 0.137 0.008 0.207 c 0.004 0.066 0 0.137 -0.004 0.203 c -0.008 0.07 -0.016 0.137 -0.023 0.203 c -0.012 0.066 -0.023 0.137 -0.039 0.203 c -0.016 0.066 -0.031 0.133 -0.051 0.195 c -0.02 0.066 -0.043 0.133 -0.063 0.199 c -0.023 0.063 -0.051 0.129 -0.074 0.195 c -0.055 0.125 -0.109 0.25 -0.168 0.371 c -0.059 0.125 -0.121 0.242 -0.188 0.359 c -0.066 0.117 -0.133 0.234 -0.207 0.348 c -0.07 0.113 -0.145 0.223 -0.223 0.332 c -0.078 0.109 -0.16 0.215 -0.242 0.32 c -0.082 0.105 -0.168 0.211 -0.254 0.313 c -0.086 0.102 -0.176 0.203 -0.266 0.305 c -0.094 0.098 -0.184 0.195 -0.277 0.293 c -0.098 0.102 -0.195 0.199 -0.297 0.297 c -0.098 0.094 -0.199 0.191 -0.301 0.285 c -0.105 0.09 -0.207 0.184 -0.313 0.273 c -0.105 0.09 -0.211 0.176 -0.32 0.262 c -0.105 0.09 -0.215 0.172 -0.324 0.258 c -0.113 0.082 -0.223 0.164 -0.336 0.246 c -0.113 0.082 -0.227 0.16 -0.34 0.238 c -0.113 0.078 -0.23 0.156 -0.348 0.23 c -0.145 0.094 -0.289 0.184 -0.438 0.273 c -0.145 0.09 -0.293 0.172 -0.445 0.254 c -0.148 0.082 -0.301 0.164 -0.453 0.238 c -0.152 0.074 -0.305 0.148 -0.461 0.215 c -0.156 0.07 -0.313 0.137 -0.473 0.195 c -0.078 0.031 -0.16 0.063 -0.242 0.094 c -0.078 0.027 -0.156 0.055 -0.238 0.082 c -0.16 0.055 -0.324 0.102 -0.488 0.148 c -0.168 0.047 -0.332 0.09 -0.504 0.129 c -0.07 0.016 -0.141 0.027 -0.211 0.043 c -0.07 0.012 -0.141 0.023 -0.211 0.035 c -0.074 0.012 -0.145 0.02 -0.215 0.027 c -0.07 0.008 -0.141 0.016 -0.215 0.02 c -0.07 0.008 -0.141 0.008 -0.211 0.012 c -0.074 0 -0.145 0.004 -0.215 0 c -0.074 0 -0.145 -0.004 -0.215 -0.008 c -0.074 -0.004 -0.145 -0.008 -0.215 -0.016 c -0.059 -0.008 -0.117 -0.016 -0.176 -0.023 c -0.055 -0.012 -0.113 -0.023 -0.168 -0.035 c -0.055 -0.012 -0.113 -0.027 -0.168 -0.043 c -0.055 -0.016 -0.105 -0.035 -0.16 -0.059 c -0.055 -0.02 -0.105 -0.043 -0.156 -0.066 c -0.051 -0.027 -0.102 -0.055 -0.152 -0.082 c -0.051 -0.031 -0.098 -0.063 -0.145 -0.098 c -0.047 -0.035 -0.117 -0.09 -0.16 -0.129 l -0.137 0.32 c -0.137 0.316 0.066 0.262 0.137 0.371 c 0.07 0.113 0.016 0.398 0.008 0.66 c -0.004 0.266 0.289 0.508 0.422 0.637 c 0.129 0.133 0.434 0.461 0.629 0.52 c 0.199 0.059 1.023 0.711 1.309 0.801 c 0.281 0.086 0.586 0.309 0.957 0.371 c 0.371 0.066 0.828 0.133 1.199 0.133 c 0.367 0 1.152 0.023 1.676 0 c 0.52 -0.02 1.176 -0.133 1.434 -0.176 c 0.262 -0.043 0.871 -0.109 1.199 -0.195 c 0.328 -0.09 1.023 -0.352 1.176 -0.508 c 0.152 -0.152 1.219 -0.613 1.457 -0.879 c 0.242 -0.262 1.047 -1.734 1.09 -2 c 0.043 -0.262 0.609 -2.086 0.742 -2.328 c 0.129 -0.242 0 -1.738 0 -2 c 0 -0.266 -0.438 -1.977 -0.438 -1.977 l -0.586 -1.254 l -0.609 -0.637"/></clipPath><linearGradient id="B" gradientUnits="userSpaceOnUse" x1="382.8" x2="662.93" gradientTransform="matrix(0.04354 0 0 -0.04395 5.086 14.465)"><stop stop-color="#f15a23"/><stop offset="1" stop-color="#f15a23" stop-opacity="0"/></linearGradient><radialGradient id="7" gradientUnits="userSpaceOnUse" cx="0.132" cy="-0.001" fx="-0.08" fy="0.039" r="1" gradientTransform="matrix(2.78841 2.57433 -2.90675 3.2082 10.441 9.709)"><stop stop-color="#ff0"/><stop offset="0.63" stop-color="#ffcf04"/><stop offset="1" stop-color="#ffcf04"/></radialGradient><radialGradient id="8" gradientUnits="userSpaceOnUse" cx="0" cy="0" fx="0.339" fy="-0.553" r="1" gradientTransform="matrix(5.9093 -2.33392 1.42913 3.68701 9.29 16.416)"><stop stop-color="#ffff86"/><stop offset="0.126" stop-color="#ffff86"/><stop offset="0.144" stop-color="#ffc503"/><stop offset="0.216" stop-color="#ffc503"/><stop offset="0.395" stop-color="#ffc503"/><stop offset="0.441" stop-color="#ffc503"/><stop offset="0.5" stop-color="#ffc003"/><stop offset="0.628" stop-color="#ffc003"/><stop offset="0.729" stop-color="#ffc003"/><stop offset="0.849" stop-color="#ff8803" stop-opacity="0.871"/><stop offset="0.987" stop-color="#ff8803"/><stop offset="1" stop-color="#ff8803"/></radialGradient><radialGradient id="C" gradientUnits="userSpaceOnUse" cx="698.21" cy="478.94" r="186.38" gradientTransform="matrix(0.0393 -0.01366 0.01247 0.03655 -22.633 3.385)"><stop stop-color="#f15a23" stop-opacity="0"/><stop offset="0.685" stop-color="#f15a23" stop-opacity="0"/><stop offset="1" stop-color="#f14a23"/></radialGradient><radialGradient id="6" gradientUnits="userSpaceOnUse" cx="0" cy="0" r="1" gradientTransform="matrix(4.89698 -3.46035 2.223 3.2057 11.381 8.8)" xlink:href="#1"/><radialGradient id="0" gradientUnits="userSpaceOnUse" cx="-0.042" cy="0.043" r="1" gradientTransform="matrix(4.22354 3.57577 -3.54231 4.26344 10.895 10.02)"><stop stop-color="#ff0"/><stop offset="0.666" stop-color="#ffb904"/><stop offset="1" stop-color="#ffb904"/></radialGradient><radialGradient id="5" gradientUnits="userSpaceOnUse" cx="0.069" cy="0.001" r="1" gradientTransform="matrix(4.0129 -0.06856 0.06087 3.63045 9.494 10.09)" xlink:href="#1"/><radialGradient id="1" gradientUnits="userSpaceOnUse" cx="0" cy="0" r="1" gradientTransform="matrix(-0.53785 4.037 -3.99918 -0.54293 9.915 10.558)"><stop stop-color="#ff0"/><stop offset="1" stop-color="#ffb904"/></radialGradient><radialGradient id="3" gradientUnits="userSpaceOnUse" cx="0" cy="0" r="1" gradientTransform="matrix(-2.7838 2.28408 -2.26271 -2.81009 9.334 10.602)" xlink:href="#1"/><radialGradient id="4" gradientUnits="userSpaceOnUse" cx="-0.277" cy="-0.013" r="1" gradientTransform="matrix(7.23684 -5.17222 3.3065 4.71425 12.162 8.548)"><stop stop-color="#ff0"/><stop offset="0.497" stop-color="#ffed04"/><stop offset="1" stop-color="#ffb904"/></radialGradient><radialGradient id="2" gradientUnits="userSpaceOnUse" cx="0" cy="0" fx="-0.892" fy="-0.452" r="1" gradientTransform="matrix(2.56004 -1.94152 1.92335 2.58422 14.167 9.137)" xlink:href="#1"/></defs><path d="m 19.2 3.309 c 12.582 19.371 -21.785 26.863 -19.05 6.941 c 1.117 -8.129 14.234 -14.348 19.05 -6.941" fill="#fb7f0a"/><path d="m 9.699 17.848 c -0.586 -0.074 -1.434 -0.266 -1.937 -0.441 c -1.48 -0.516 -2.992 -1.695 -3.664 -2.863 c -0.242 -0.418 -0.324 -0.957 -0.25 -1.676 c 0.051 -0.508 0.137 -0.82 0.355 -1.285 c 0.68 -1.434 1.816 -2.801 3.285 -3.953 c 1.109 -0.867 2.273 -1.578 3.32 -2.027 c 0.898 -0.383 2.023 -0.711 2.746 -0.793 c 0.895 -0.105 1.832 0.035 2.438 0.371 c 0.613 0.34 1 0.836 1.434 1.844 c 0.41 0.945 0.566 1.824 0.566 3.148 c 0 1.121 -0.137 1.93 -0.469 2.773 c -0.273 0.703 -0.707 1.453 -1.191 2.059 c -0.215 0.27 -0.875 0.922 -1.16 1.152 c -0.645 0.52 -1.488 1 -2.16 1.234 c -0.563 0.195 -1.309 0.367 -1.934 0.449 c -0.316 0.039 -1.086 0.047 -1.379 0.008" fill="#fff"/><path d="m 10.547 10.652 c -0.082 0.434 -0.094 0.871 -0.094 1.352 c 0.004 0.211 0 0.457 0.027 0.703 c 0.055 0.508 0.223 0.621 0.68 0.418 c 0.777 -0.344 1.469 -0.824 2.086 -1.414 c 0.172 -0.168 0.355 -0.328 0.48 -0.539 c 0.117 -0.191 0.094 -0.301 -0.098 -0.422 c -0.063 -0.035 -0.129 -0.066 -0.195 -0.09 c -0.227 -0.082 -0.461 -0.137 -0.695 -0.191 c -0.547 -0.117 -1.098 -0.246 -1.664 -0.254 c -0.004 0 -0.004 0 -0.008 0 c -0.281 0 -0.465 0.16 -0.52 0.438" fill="url(#0)"/><path d="m 9.836 10.734 c -0.141 0.07 -0.254 0.18 -0.363 0.293 c -0.738 0.742 -1.438 1.523 -2.117 2.32 c -0.188 0.219 -0.379 0.434 -0.496 0.699 c -0.086 0.188 -0.043 0.285 0.156 0.336 c 0.207 0.055 0.418 0.078 0.629 0.059 c 0.512 -0.043 0.996 -0.188 1.469 -0.379 c 0.434 -0.18 0.711 -0.492 0.805 -0.961 c 0.125 -0.613 0.172 -1.238 0.203 -1.863 c 0 -0.094 0 -0.191 0 -0.289 c -0.004 -0.027 -0.008 -0.055 -0.016 -0.082 c -0.023 -0.121 -0.063 -0.176 -0.133 -0.176 c -0.035 0 -0.082 0.016 -0.137 0.043" fill="url(#1)"/><path d="m 15.559 7.68 c -0.125 0.023 -0.25 0.059 -0.371 0.102 c -0.684 0.242 -1.336 0.566 -1.992 0.867 c -0.563 0.258 -1.125 0.516 -1.66 0.836 c -0.105 0.063 -0.23 0.137 -0.207 0.277 c 0.023 0.121 0.164 0.121 0.262 0.145 c 0.754 0.18 1.523 0.25 2.234 0.309 c 0.457 -0.004 0.824 -0.078 1.113 -0.387 c 0.297 -0.324 0.547 -0.68 0.734 -1.082 c 0.117 -0.25 0.195 -0.516 0.195 -0.797 c 0 -0.184 -0.078 -0.277 -0.23 -0.277 c -0.023 0 -0.051 0.004 -0.078 0.008" fill="url(#2)"/><path d="m 9.137 10.613 c -0.02 0.004 -0.031 0.012 -0.047 0.02 c -0.984 0.402 -1.926 0.891 -2.867 1.375 c -0.238 0.125 -0.469 0.262 -0.684 0.426 c -0.23 0.176 -0.363 0.395 -0.336 0.688 c 0 0.039 0 0.074 0.004 0.109 c 0.016 0.336 0.184 0.57 0.469 0.727 c 0.266 0.148 0.496 0.051 0.711 -0.109 c 0.055 -0.039 0.109 -0.078 0.16 -0.125 c 0.996 -0.883 1.887 -1.871 2.758 -2.875 c 0.055 -0.063 0.152 -0.137 0.09 -0.23 c -0.027 -0.039 -0.059 -0.055 -0.094 -0.055 c -0.055 0 -0.113 0.035 -0.164 0.051" fill="url(#3)"/><path d="m 14.09 6.18 c -0.094 0.07 -0.184 0.148 -0.27 0.227 c -0.625 0.555 -1.18 1.184 -1.754 1.789 c -0.238 0.25 -0.473 0.508 -0.68 0.789 c -0.035 0.051 -0.082 0.105 -0.035 0.168 c 0.043 0.063 0.109 0.051 0.168 0.035 c 0.078 -0.027 0.156 -0.059 0.234 -0.09 c 1.031 -0.441 2.031 -0.953 3.03 -1.473 c 0.285 -0.148 0.574 -0.301 0.809 -0.531 c 0.086 -0.086 0.141 -0.188 0.145 -0.328 c -0.004 -0.102 -0.039 -0.207 -0.098 -0.305 c -0.176 -0.316 -0.535 -0.492 -0.898 -0.492 c -0.23 0 -0.457 0.07 -0.648 0.211" fill="url(#4)"/><path d="m 6.414 10.05 c -0.254 0.293 -0.496 0.594 -0.691 0.93 c -0.125 0.215 -0.227 0.441 -0.277 0.688 c -0.035 0.168 0.02 0.238 0.16 0.242 c 0.09 0 0.176 -0.027 0.262 -0.059 c 0.824 -0.297 1.609 -0.688 2.402 -1.063 c 0.336 -0.156 0.672 -0.324 0.992 -0.523 c 0.094 -0.059 0.199 -0.133 0.18 -0.258 c -0.016 -0.117 -0.145 -0.102 -0.227 -0.141 c -0.031 -0.012 -0.066 -0.02 -0.098 -0.027 c -0.512 -0.121 -1.031 -0.176 -1.551 -0.234 c -0.059 -0.004 -0.117 -0.008 -0.176 -0.008 c -0.379 0 -0.707 0.141 -0.977 0.453" fill="url(#5)"/><path d="m 13.11 5.887 c -0.617 0.063 -1.191 0.266 -1.75 0.531 c -0.336 0.16 -0.547 0.418 -0.617 0.789 c -0.074 0.422 -0.129 0.844 -0.125 1.277 c 0 0.117 -0.004 0.234 0 0.355 c 0.004 0.086 -0.016 0.191 0.082 0.242 c 0.094 0.047 0.188 -0.004 0.262 -0.063 c 0.125 -0.098 0.242 -0.199 0.355 -0.309 c 0.609 -0.617 1.188 -1.27 1.758 -1.922 c 0.176 -0.203 0.363 -0.402 0.477 -0.652 c 0.07 -0.148 0.035 -0.219 -0.125 -0.25 c -0.047 -0.008 -0.098 -0.012 -0.145 -0.012 c -0.059 0 -0.113 0.004 -0.172 0.012" fill="url(#6)"/><path d="m 9.898 7.164 c -0.172 0.055 -0.324 0.148 -0.48 0.238 c -0.637 0.367 -1.227 0.797 -1.73 1.336 c -0.234 0.25 -0.199 0.414 0.125 0.508 c 0.605 0.176 1.219 0.309 1.852 0.324 c 0.336 0.008 0.5 -0.148 0.563 -0.477 c 0.059 -0.336 0.074 -0.672 0.063 -1.117 c -0.008 -0.133 0.035 -0.379 -0.027 -0.617 c -0.043 -0.152 -0.113 -0.219 -0.227 -0.219 c -0.039 0 -0.086 0.008 -0.137 0.023" fill="url(#7)"/><path d="m 16.355 6.652 c 0.012 0.027 0.012 0.035 0.016 0.047 c 0.008 0.023 0.012 0.035 0.016 0.051 c 0.004 0.012 0 0.004 0.004 0.016 c 0.004 0.012 0.008 0.023 0.012 0.039 c 0.004 0.012 0.008 0.027 0.012 0.039 c 0.004 0.012 0.008 0.027 0.008 0.039 c 0.004 0.012 0.012 0.059 0.016 0.07 c 0.012 0.07 0.012 0.094 0.016 0.164 c 0.008 0.07 0.012 0.137 0.012 0.207 c 0.004 0.066 0 0.137 -0.004 0.203 c -0.008 0.07 -0.016 0.137 -0.023 0.203 c -0.012 0.066 -0.023 0.133 -0.039 0.199 c -0.016 0.066 -0.031 0.133 -0.051 0.199 c -0.02 0.066 -0.043 0.133 -0.066 0.199 c -0.02 0.063 -0.047 0.129 -0.07 0.195 c -0.055 0.125 -0.109 0.25 -0.168 0.371 c -0.059 0.125 -0.121 0.242 -0.188 0.359 c -0.066 0.117 -0.133 0.234 -0.207 0.348 c -0.07 0.113 -0.145 0.223 -0.223 0.332 c -0.078 0.109 -0.16 0.215 -0.242 0.32 c -0.082 0.105 -0.168 0.211 -0.254 0.313 c -0.09 0.102 -0.176 0.203 -0.27 0.305 c -0.09 0.098 -0.18 0.195 -0.273 0.293 c -0.098 0.102 -0.195 0.199 -0.297 0.297 c -0.098 0.094 -0.199 0.191 -0.301 0.281 c -0.105 0.094 -0.207 0.188 -0.313 0.277 c -0.105 0.09 -0.211 0.176 -0.32 0.262 c -0.105 0.086 -0.215 0.172 -0.328 0.258 c -0.109 0.082 -0.219 0.164 -0.332 0.246 c -0.113 0.078 -0.227 0.16 -0.34 0.238 c -0.113 0.078 -0.23 0.152 -0.348 0.23 c -0.145 0.094 -0.289 0.184 -0.438 0.273 c -0.148 0.086 -0.297 0.172 -0.445 0.254 c -0.148 0.082 -0.301 0.16 -0.453 0.238 c -0.152 0.074 -0.305 0.148 -0.461 0.215 c -0.156 0.07 -0.313 0.133 -0.473 0.195 c -0.078 0.031 -0.16 0.063 -0.242 0.09 c -0.078 0.031 -0.156 0.059 -0.238 0.086 c -0.16 0.051 -0.324 0.102 -0.488 0.148 c -0.168 0.047 -0.332 0.09 -0.504 0.125 c -0.07 0.016 -0.141 0.031 -0.211 0.047 c -0.07 0.012 -0.141 0.023 -0.211 0.035 c -0.074 0.012 -0.145 0.02 -0.215 0.027 c -0.07 0.008 -0.141 0.016 -0.215 0.02 c -0.07 0.004 -0.141 0.008 -0.211 0.012 c -0.074 0 -0.145 0.004 -0.215 0 c -0.074 0 -0.145 -0.004 -0.215 -0.008 c -0.074 -0.004 -0.145 -0.008 -0.215 -0.016 c -0.059 -0.008 -0.117 -0.016 -0.176 -0.023 c -0.055 -0.012 -0.113 -0.023 -0.168 -0.035 c -0.059 -0.012 -0.113 -0.027 -0.168 -0.043 c -0.055 -0.02 -0.109 -0.035 -0.16 -0.059 c -0.055 -0.02 -0.105 -0.043 -0.156 -0.066 c -0.035 -0.016 -0.066 -0.035 -0.098 -0.051 c -0.023 -0.016 -0.047 -0.027 -0.066 -0.039 c -0.051 -0.031 -0.098 -0.063 -0.145 -0.098 c -0.035 -0.027 -0.066 -0.051 -0.098 -0.078 c -0.012 -0.008 -0.023 -0.02 -0.035 -0.027 c 0.227 0.25 0.457 0.484 0.695 0.699 c 0.242 0.215 0.488 0.414 0.746 0.594 c 0.254 0.18 0.516 0.344 0.781 0.484 c 0.27 0.141 0.543 0.262 0.824 0.359 c 0.281 0.102 0.566 0.18 0.863 0.238 c 0.293 0.059 0.594 0.098 0.902 0.109 c 0.305 0.016 0.621 0.008 0.941 -0.023 c 0.32 -0.027 0.648 -0.082 0.98 -0.16 c 0.359 -0.082 0.699 -0.184 1.02 -0.301 c 0.32 -0.121 0.625 -0.258 0.914 -0.414 c 0.289 -0.156 0.559 -0.332 0.813 -0.523 c 0.254 -0.191 0.492 -0.402 0.711 -0.629 c 0.219 -0.227 0.422 -0.473 0.605 -0.734 c 0.188 -0.258 0.355 -0.539 0.508 -0.832 c 0.152 -0.297 0.285 -0.605 0.406 -0.934 c 0.117 -0.328 0.219 -0.672 0.301 -1.031 c 0.027 -0.102 0.047 -0.203 0.063 -0.305 c 0.02 -0.102 0.035 -0.203 0.047 -0.305 c 0.012 -0.105 0.02 -0.207 0.027 -0.309 c 0.008 -0.102 0.012 -0.207 0.012 -0.309 c 0 -0.102 0 -0.207 -0.004 -0.309 c -0.004 -0.102 -0.008 -0.207 -0.016 -0.309 c -0.008 -0.102 -0.016 -0.207 -0.027 -0.309 c -0.012 -0.105 -0.027 -0.207 -0.043 -0.313 c -0.016 -0.113 -0.039 -0.234 -0.066 -0.355 c -0.027 -0.121 -0.059 -0.246 -0.094 -0.371 c -0.031 -0.125 -0.07 -0.246 -0.109 -0.367 c -0.039 -0.121 -0.082 -0.238 -0.125 -0.348 c -0.039 -0.109 -0.082 -0.215 -0.125 -0.313 c -0.039 -0.098 -0.082 -0.184 -0.121 -0.258 c -0.039 -0.078 -0.074 -0.141 -0.105 -0.191 c -0.023 -0.031 -0.055 -0.082 -0.086 -0.121 c 0.008 0.02 0.02 0.039 0.027 0.063" fill="url(#8)"/><g clip-path="url(#9)"><g clip-path="url(#A)"><path d="m 5.086 14.465 c 0.289 0.316 0.594 0.617 0.926 0.891 c 0.328 0.273 0.676 0.523 1.047 0.738 c 0.367 0.215 0.754 0.391 1.16 0.527 c 0.402 0.137 0.82 0.234 1.242 0.281 c 0.422 0.051 0.848 0.055 1.27 0.02 c 0.426 -0.035 0.848 -0.109 1.258 -0.211 c 0.824 -0.211 1.621 -0.543 2.324 -1.023 c 0.352 -0.242 0.676 -0.52 0.973 -0.828 c 0.293 -0.309 0.555 -0.648 0.785 -1.01 c 0.453 -0.727 0.77 -1.531 0.977 -2.363 l 0.02 -0.078 l 0.016 -0.078 l 0.035 -0.16 l 0.02 -0.098 v -0.004 c 0 0 0 -0.004 0 -0.004 l 0.004 -0.012 l 0.004 -0.039 l 0.023 -0.16 l 0.012 -0.078 c 0.004 -0.023 0.004 -0.055 0.008 -0.078 l 0.016 -0.164 l 0.008 -0.078 l 0.004 -0.078 l 0.004 -0.164 c 0.012 -0.426 -0.02 -0.855 -0.082 -1.281 c -0.063 -0.426 -0.18 -0.836 -0.32 -1.242 l -0.051 -0.152 l -0.016 -0.039 l -0.004 -0.02 l -0.008 -0.016 l -0.031 -0.078 l -0.059 -0.148 l -0.031 -0.074 l -0.035 -0.07 l -0.066 -0.148 l -0.016 -0.035 l -0.059 -0.105 l -0.082 -0.141 c -0.559 -1.332 -7.813 10.398 -11.277 7.805 m 0.004 -0.004 c 4.01 1.781 10.07 -4.734 11.211 -7.953 c 0.039 0.043 0.066 0.086 0.098 0.133 c 0.016 0.02 0.031 0.043 0.047 0.066 l 0.098 0.176 c 0.008 0.016 0.012 0.027 0.02 0.039 l 0.102 0.219 c 0.012 0.027 0.02 0.051 0.031 0.074 l 0.063 0.152 l 0.027 0.074 l 0.016 0.039 l 0.016 0.035 l 0.051 0.152 c 0.141 0.41 0.258 0.828 0.328 1.254 c 0.063 0.426 0.094 0.859 0.086 1.293 l -0.008 0.16 l -0.004 0.082 l -0.008 0.082 l -0.012 0.16 c -0.004 0.027 -0.004 0.051 -0.008 0.082 l -0.012 0.078 l -0.023 0.16 l -0.008 0.039 v 0.023 l -0.004 0.02 l -0.02 0.078 l -0.031 0.16 l -0.016 0.078 l -0.02 0.078 c -0.102 0.422 -0.234 0.832 -0.395 1.234 c -0.164 0.398 -0.359 0.785 -0.586 1.152 c -0.23 0.363 -0.496 0.707 -0.793 1.02 c -0.297 0.313 -0.629 0.59 -0.984 0.836 c -0.355 0.242 -0.734 0.449 -1.125 0.617 c -0.395 0.172 -0.805 0.305 -1.219 0.406 c -0.418 0.105 -0.84 0.176 -1.266 0.211 c -0.43 0.031 -0.859 0.023 -1.285 -0.027 c -0.422 -0.055 -0.844 -0.148 -1.246 -0.289 c -0.406 -0.141 -0.797 -0.324 -1.168 -0.539 c -0.367 -0.219 -0.715 -0.473 -1.043 -0.75 c -0.324 -0.277 -0.629 -0.582 -0.914 -0.902" fill="url(#B)"/></g></g><path d="m 5.152 14.512 c 0.785 0.625 2.02 0.621 3.363 0.254 c 1.348 -0.363 2.816 -1.09 4.07 -2.055 c 1.418 -1.094 2.43 -2.02 3.168 -3.262 c 0.336 -0.563 0.551 -1.074 0.668 -1.562 c 0.113 -0.484 0.07 -0.891 -0.113 -1.336 c 0 0 0.723 1.047 0.918 2.688 c 0.094 0.82 0.047 1.961 -0.371 3.078 c -0.387 1.043 -0.906 2.02 -1.789 2.82 c -0.035 0.031 -0.398 0.41 -1.078 0.805 c -0.836 0.48 -1.531 0.738 -2.465 0.91 c -1.141 0.207 -1.941 0.145 -2.805 -0.063 c -1.199 -0.285 -2.344 -0.938 -3.598 -2.273" fill="url(#C)"/></svg>