<svg xmlns="http://www.w3.org/2000/svg" viewBox="0 0 22 22"><path d="m 3.02 15.344 c -1.078 -1.281 -2.211 -3.734 -2.41 -5.227 c -0.289 -2.152 0.32 -4.66 1.508 -6.211 c 1.586 -2.066 4.906 -3.531 8.289 -3.656 c 2.426 -0.094 5.711 0.508 7.414 1.352 c 1.449 0.719 2.512 1.82 3.133 3.25 c 0.844 1.934 0.969 3.855 0.379 5.797 c -0.922 4.133 -3.309 7 -5.457 9.301 c -5.488 5.168 -9.563 -0.625 -12.855 -4.609" fill="#666"/><g fill="#fff"><path d="m 10.5 18.957 l -0.008 -2.01 c -0.031 -0.734 0.051 -1.785 -0.07 -1.938 c -0.121 -0.141 -0.684 -0.75 -1.25 -1.352 c -1.207 -1.289 -1.535 -1.68 -1.535 -1.84 c -0.004 -0.199 0.477 -0.539 0.973 -0.691 c 0.906 -0.273 3.313 -0.344 4.582 -0.133 c 0.887 0.145 1.551 0.5 1.551 0.828 c 0 0.195 -0.5 0.789 -1.84 2.18 c -0.91 1.203 -0.977 0.957 -0.988 2.805 c -0.027 1.285 -0.008 2.141 -0.023 2.156 c -0.43 0.266 -0.879 0.262 -1.391 -0.008 m 0.941 -2.105 v -1.746 l 0.438 -0.422 c 0.594 -0.566 1.574 -1.637 1.574 -1.715 c 0 -0.035 -0.953 0.301 -2.223 0.301 c -1.246 0 -2.305 -0.34 -2.305 -0.313 c 0 0.027 0.332 0.41 0.738 0.852 c 1.336 1.449 1.203 1.227 1.203 1.988 c 0.008 0.977 0.051 1.824 0.094 2.805 c 0.16 0 0.32 0 0.48 0 m 1.68 -6.168 c 0.777 -0.137 1.352 -0.363 1.32 -0.523 c -0.012 -0.063 -0.156 -0.184 -0.32 -0.273 c -1.121 -0.609 -5.254 -0.527 -6.06 0.117 c -0.145 0.113 -0.152 0.148 -0.07 0.246 c 0.121 0.145 0.926 0.387 1.688 0.508 c 0.73 0.121 2.559 0.078 3.445 -0.074"/><path d="m 9.801 12.13 c -0.684 -0.086 -0.895 -0.289 -0.453 -0.441 c 0.508 -0.176 3.055 -0.184 3.676 -0.008 c 0.383 0.105 0.344 0.25 -0.094 0.371 c -0.277 0.078 -0.574 0.098 -1.531 0.113 c -0.656 0.008 -1.375 -0.008 -1.598 -0.035"/><path d="m 9.05 10.527 c -0.102 -0.125 -0.242 -0.461 -0.617 -1.512 c -0.586 -1.637 -1.438 -4.074 -1.438 -4.117 c 0.84 -0.551 1.895 -0.816 2.77 -1.121 c 2.207 -0.773 2.844 -0.984 2.969 -0.984 c 0.219 0 0.379 0.332 1.02 2.125 c 0.344 0.965 0.746 2.082 0.895 2.488 c 0.297 0.824 0.34 1.207 0.141 1.313 c -0.066 0.039 -0.434 0.168 -0.809 0.293 c -0.375 0.125 -1.574 0.535 -2.66 0.914 c -1.09 0.375 -2.031 0.688 -2.09 0.688 c -0.059 0 -0.141 -0.039 -0.18 -0.086 m 0.438 -0.387 c 0.191 -0.477 0.211 -0.938 0.387 -1.441 c 0.094 -0.266 0.094 -0.27 -0.09 -0.395 c -0.703 -0.492 -1.102 -1.391 -0.938 -2.109 c 0.242 -1.074 1.137 -1.762 2.188 -1.691 c 0.797 0.055 1.465 0.512 1.789 1.215 c 0.109 0.238 0.137 0.434 0.141 0.965 l 0.004 0.66 c 0.43 0.246 1.359 1.152 1.512 0.996 c 0.051 -0.082 -0.359 -1.395 -0.816 -2.613 c -0.211 -0.555 -0.492 -1.328 -0.629 -1.715 c -0.141 -0.398 -0.297 -0.723 -0.352 -0.746 c -0.152 -0.059 -0.625 0.086 -2.816 0.859 c -2.457 0.867 -2.43 0.855 -2.391 1.074 c 0.02 0.094 0.422 1.254 0.898 2.578 c 0.477 1.324 0.863 2.418 0.863 2.426 c 0.082 0.023 0.195 -0.004 0.25 -0.063 m 2.02 -2.02 c 0.398 -0.117 0.863 -0.598 0.992 -1.031 c 0.238 -0.809 -0.148 -1.699 -0.848 -2.051 c -0.328 -0.156 -0.426 -0.172 -0.828 -0.145 c -1.016 0.07 -1.645 0.785 -1.57 1.793 c 0.047 0.668 0.332 1.09 0.922 1.371 c 0.328 0.156 0.914 0.188 1.332 0.063"/><path d="m 11.945 5.867 c 0 0.215 -0.176 0.391 -0.395 0.391 c -0.215 0 -0.391 -0.176 -0.391 -0.391 c 0 -0.219 0.176 -0.395 0.391 -0.395 c 0.219 0 0.395 0.176 0.395 0.395"/><path d="m 10.602 6.293 c 0 0.215 -0.176 0.391 -0.391 0.391 c -0.219 0 -0.395 -0.176 -0.395 -0.391 c 0 -0.219 0.176 -0.395 0.395 -0.395 c 0.215 0 0.391 0.176 0.391 0.395"/><path d="m 10.762 7.652 c -0.18 -0.094 -0.234 -0.32 -0.121 -0.488 c 0.133 -0.195 0.801 -0.203 0.965 -0.008 c 0.098 0.117 0.09 0.273 -0.023 0.41 c -0.074 0.086 -0.152 0.109 -0.402 0.125 c -0.172 0.008 -0.359 -0.008 -0.418 -0.039"/></g></svg>