<svg xmlns="http://www.w3.org/2000/svg" viewBox="0 0 22 22"><path d="m 0.254 13.449 c 1.367 8.945 13.48 11.336 18.828 4.953 c 4.711 -4.742 3.539 -13.816 -2.238 -16.93 c -6.633 -4.16 -16.301 0.984 -16.828 9.273 c -0.055 0.906 0.023 1.824 0.238 2.707" fill="#9bd1a4"/><path d="m 10.84 17.66 c -0.676 -0.445 -1.16 -1.012 -1.512 -1.766 c -0.355 -0.754 -0.422 -1.074 -0.422 -2.035 c 0.004 -0.977 0.074 -1.316 0.43 -2.039 c 0.297 -0.602 0.996 -1.434 1.711 -2.027 c 0.305 -0.254 1.219 -0.938 2.035 -1.52 c 0.813 -0.586 1.785 -1.309 2.16 -1.613 c 0.375 -0.301 0.699 -0.547 0.723 -0.547 c 0.059 0 0.156 0.387 0.156 0.621 c 0.004 0.105 -0.039 0.551 -0.09 0.984 c -0.07 0.613 -0.078 0.84 -0.027 1.016 c 0.047 0.164 0.289 0.477 0.883 1.148 c 0.547 0.617 0.82 0.969 0.82 1.055 c 0 0.172 -0.305 0.41 -0.719 0.563 c -0.469 0.176 -0.473 0.305 -0.02 0.75 c 0.188 0.188 0.344 0.359 0.344 0.387 c 0 0.063 -0.223 0.262 -0.383 0.348 c -0.152 0.078 -0.16 0.164 -0.027 0.395 l 0.098 0.18 l -0.172 0.141 c -0.5 0.414 -0.492 0.34 -0.102 0.922 c 0.379 0.563 0.324 0.855 -0.199 1.121 c -0.328 0.168 -0.777 0.223 -2.188 0.262 c -1.543 0.039 -1.824 0.082 -2.191 0.316 c -0.336 0.215 -0.563 0.527 -0.77 1.07 c -0.086 0.223 -0.18 0.414 -0.215 0.426 c -0.031 0.012 -0.176 -0.059 -0.324 -0.156" fill="#0070b8" fill-opacity="0.851"/><path d="m 8.578 17.266 c -0.898 -0.211 -2.555 -1.477 -3.258 -2.496 c -0.551 -0.793 -0.941 -1.746 -1.082 -2.629 c -0.152 -0.934 -0.023 -2.188 0.309 -3.078 c 0.547 -1.449 1.828 -2.852 3.281 -3.586 c 0.816 -0.414 1.457 -0.617 2.574 -0.809 c 1.234 -0.211 2.82 0.051 4.191 0.695 l 0.535 0.25 l -0.383 0.355 c -0.582 0.531 -0.59 0.535 -1.105 0.355 c -0.703 -0.246 -1.125 -0.328 -1.91 -0.363 c -0.848 -0.039 -1.457 0.031 -2.145 0.246 c -1.918 0.598 -3.305 2.027 -3.805 3.906 c -0.148 0.547 -0.133 1.688 0.031 2.281 c 0.309 1.137 0.883 1.969 1.977 2.867 c 0.402 0.332 0.492 0.441 0.652 0.789 c 0.105 0.219 0.297 0.574 0.426 0.781 c 0.129 0.211 0.234 0.406 0.234 0.438 c 0 0.066 -0.23 0.063 -0.523 -0.004" fill="#009216" fill-opacity="0.776"/></svg>