<svg xmlns="http://www.w3.org/2000/svg" viewBox="0 0 22 22"><path d="m 18.02 19.594 c -13.195 10.238 -26.895 -15.258 -10.555 -18.988 c 10.285 -3.82 20.336 11.398 10.555 18.988" fill="#356486"/><path d="m 7.05 17.188 c -0.082 -0.148 -1.777 -10.313 -1.777 -10.656 c 0 -0.145 0.027 -0.199 0.125 -0.238 c 0.148 -0.063 8.543 -1.355 8.793 -1.355 c 0.121 0 0.188 0.031 0.207 0.094 c 0.051 0.172 0.145 0.738 0.125 0.754 c 1.238 7.969 0.988 5.871 1.684 9.594 c 0.074 0.273 0.074 0.426 -0.012 0.492 c -0.039 0.031 -0.406 0.105 -0.82 0.172 c -5.273 0.82 -8.07 1.25 -8.16 1.25 c -0.059 0 -0.133 -0.047 -0.164 -0.105" fill="#2f2e30"/><g fill="#4ba6e3"><path d="m 14.59 14.914 c -0.023 -0.105 -0.082 -0.508 -0.133 -0.902 c -0.047 -0.391 -0.313 -2.027 -0.586 -3.637 c -0.273 -1.613 -0.543 -3.23 -0.594 -3.598 c -0.055 -0.371 -0.117 -0.742 -0.145 -0.828 c -0.043 -0.145 -0.012 -0.152 0.449 -0.09 c 0.555 0.02 0.973 0.207 1.352 0.285 c 0.523 0.113 0.723 0.285 0.758 0.645 c 0.012 0.129 0.156 1.01 0.324 1.953 c 0.348 2.01 0.816 4.891 0.816 5.05 c 0 0.102 -0.789 0.688 -0.953 0.707 c -0.348 0.109 -1.219 0.719 -1.289 0.41"/><path d="m 9.93 11.742 c -0.402 -0.289 -0.789 -0.523 -0.859 -0.523 c -0.531 0.195 -1.023 1.133 -1.562 1.156 c -0.207 0 -0.188 -0.039 0.32 -0.77 c 0.297 -0.426 0.543 -0.805 0.543 -0.844 c 0 -0.039 -0.324 -0.297 -0.719 -0.57 c -0.395 -0.273 -0.742 -0.535 -0.77 -0.578 c -0.027 -0.043 0.047 -0.105 0.168 -0.133 c 0.152 -0.039 0.434 0.055 0.945 0.309 c 0.402 0.199 0.762 0.363 0.801 0.363 c 0.699 -0.539 1.859 -2.312 2.156 -2.559 c 0.148 -0.055 0.988 0.113 1.195 0.242 c -0.746 0.926 -1.574 1.504 -2.52 2.793 c 0 0.035 0.75 0.426 1.664 0.867 c 0.914 0.441 1.664 0.816 1.664 0.836 c 0 0.031 -1.059 0.668 -1.105 0.668 c -0.645 -0.379 -1.297 -0.813 -1.922 -1.258"/></g><g fill="#0869aa"><path d="m 12.1 11.887 c -0.688 -0.371 -0.695 -0.379 -0.699 -0.738 c -0.055 -0.766 -0.16 -1.375 -0.277 -2.141 c 0.359 -0.402 0.723 -0.801 1.086 -1.203 l 0.316 2.215 c 0.176 1.215 0.309 2.219 0.293 2.227 c -0.016 0.008 -0.34 -0.152 -0.719 -0.359"/><path d="m 11.06 14.375 l -3.477 -0.602 l 1.086 -0.023 c 0.598 -0.012 2.129 -0.047 3.402 -0.078 l 2.316 -0.055 c 0.047 0.445 0.16 0.898 0.168 1.344 c -0.012 0.012 -1.586 -0.254 -3.496 -0.586"/></g></svg>