<svg xmlns="http://www.w3.org/2000/svg" viewBox="0 0 22 22"><path d="m 4.551 19.785 c 16.504 10.844 26.668 -23.742 5.332 -19.16 c -8.816 1.949 -14.168 14.188 -5.332 19.16" fill="#f4f4dc"/><path d="m 58.23 869.86 h 140.91 c 0.864 0 1.545 1.091 1.545 2.409 v 103.36 c 0 1.318 -0.682 2.364 -1.545 2.364 h -140.91 c -0.864 0 -1.545 -1.045 -1.545 -2.364 v -103.36 c 0 -1.318 0.682 -2.409 1.545 -2.409" transform="matrix(0.08594 0 0 0.08594 0 -68.44)" fill="#fff" stroke="#fff" stroke-width="1.149"/><path d="m 4.781 15.648 c -0.102 -0.109 -0.246 -0.203 -0.32 -0.203 c -0.113 0 -0.137 -0.805 -0.137 -4.543 c 0 -3.742 0.023 -4.547 0.137 -4.547 c 0.074 0 0.219 -0.09 0.32 -0.203 c 0.18 -0.199 0.313 -0.207 6.109 -0.203 l 5.922 0.004 l 0.281 0.246 l 0.281 0.25 v 8.902 l -0.281 0.25 l -0.281 0.246 l -5.922 0.004 c -5.797 0.004 -5.93 -0.004 -6.109 -0.203 m 11.777 -0.34 c 0 -0.074 0.113 0.027 0.219 -0.07 c 0.176 -0.16 0.168 -0.684 0.238 -4.184 l 0.078 -3.77 l -0.293 -0.59 c -0.23 -0.355 -0.371 -0.332 -0.648 -0.379 c -0.465 -0.078 -10.04 -0.078 -10.504 0 c -0.277 0.047 -0.578 0.023 -0.809 0.379 l -0.133 0.59 l 0.078 3.77 c 0.07 3.5 0.086 3.781 0.266 3.941 c 0.105 0.098 0.191 0.234 0.191 0.313 c 0 0.113 0.984 0.137 5.656 0.137 c 4.676 0 5.66 -0.023 5.66 -0.137 m -10.926 -0.547 c -0.23 -0.059 -0.297 -0.387 -0.125 -0.629 c 0.094 -0.133 0.105 -0.23 0.039 -0.27 c -0.137 -0.086 -0.129 -0.492 0.008 -0.633 c 0.082 -0.078 0.082 -0.129 0 -0.18 c -0.137 -0.086 -0.145 -0.535 -0.008 -0.617 c 0.066 -0.043 0.047 -0.145 -0.051 -0.285 c -0.195 -0.281 -0.195 -0.629 0 -0.824 c 0.133 -0.133 0.113 -0.16 -0.156 -0.254 c -0.602 -0.117 -0.273 -0.383 -0.301 -1.934 v -1.82 l 0.695 -0.68 l 5.184 0.02 l 5.184 0.016 l 0.328 0.32 l 0.332 0.324 v 1.813 c 0 1.191 -0.035 1.832 -0.109 1.879 c -0.063 0.039 -1.754 0.063 -3.766 0.051 c -2.01 -0.008 -3.992 0.016 -4.41 0.055 l -0.762 0.066 l 0.113 0.301 c 0.09 0.242 0.078 0.355 -0.059 0.598 c -0.098 0.172 -0.133 0.324 -0.074 0.359 c 0.129 0.082 0.121 0.527 -0.016 0.613 c -0.082 0.051 -0.082 0.102 0 0.18 c 0.137 0.141 0.145 0.547 0.008 0.633 c -0.066 0.039 -0.051 0.137 0.039 0.27 c 0.297 0.422 -0.113 0.832 -0.535 0.535 c -0.129 -0.094 -0.227 -0.105 -0.27 -0.039 c -0.082 0.133 -0.527 0.133 -0.609 0 c -0.039 -0.063 -0.145 -0.051 -0.289 0.035 c -0.121 0.074 -0.297 0.117 -0.391 0.098 m 0.719 -0.914 c -0.09 -0.105 -0.152 -0.113 -0.258 -0.023 c -0.105 0.09 -0.113 0.148 -0.023 0.258 c 0.09 0.105 0.148 0.113 0.258 0.023 c 0.105 -0.09 0.113 -0.152 0.023 -0.258 m 0.816 0 c -0.09 -0.105 -0.152 -0.113 -0.258 -0.023 c -0.109 0.09 -0.113 0.148 -0.023 0.258 c 0.086 0.105 0.148 0.113 0.258 0.023 c 0.105 -0.09 0.109 -0.152 0.023 -0.258 m -0.816 -0.816 c -0.09 -0.109 -0.152 -0.113 -0.258 -0.023 c -0.105 0.086 -0.113 0.148 -0.023 0.258 c 0.09 0.105 0.148 0.113 0.258 0.023 c 0.105 -0.09 0.113 -0.152 0.023 -0.258 m 0.816 0 c -0.09 -0.109 -0.152 -0.113 -0.258 -0.023 c -0.109 0.086 -0.113 0.148 -0.023 0.258 c 0.086 0.105 0.148 0.113 0.258 0.023 c 0.105 -0.09 0.109 -0.152 0.023 -0.258 m -0.703 -0.754 c 0 -0.129 -0.262 -0.191 -0.41 -0.098 c -0.113 0.07 -0.113 0.113 -0.004 0.246 c 0.105 0.125 0.168 0.137 0.273 0.047 c 0.078 -0.063 0.141 -0.152 0.141 -0.195 m 0.816 0 c 0 -0.129 -0.262 -0.191 -0.41 -0.098 c -0.113 0.07 -0.113 0.113 -0.004 0.246 c 0.102 0.125 0.168 0.137 0.273 0.047 c 0.078 -0.063 0.141 -0.152 0.141 -0.195 m -1.01 -1.16 c -0.273 -0.121 -0.391 -0.016 -0.219 0.191 c 0.105 0.125 0.16 0.133 0.281 0.031 c 0.133 -0.109 0.121 -0.137 -0.063 -0.223 m 0.895 0.031 c -0.066 -0.043 -0.188 -0.051 -0.262 -0.023 c -0.109 0.043 -0.113 0.086 -0.023 0.199 c 0.094 0.109 0.152 0.113 0.266 0.02 c 0.109 -0.09 0.113 -0.137 0.02 -0.195 m -0.363 -1.441 c -0.156 -0.176 -0.18 -0.176 -0.355 -0.016 c -0.176 0.16 -0.18 0.184 -0.02 0.359 c 0.16 0.176 0.184 0.176 0.359 0.016 c 0.176 -0.16 0.176 -0.18 0.016 -0.359 m 0.816 0 c -0.16 -0.176 -0.18 -0.176 -0.355 -0.016 c -0.18 0.16 -0.18 0.184 -0.02 0.359 c 0.16 0.176 0.184 0.176 0.359 0.016 c 0.176 -0.16 0.176 -0.18 0.016 -0.359 m -1.035 -0.641 c 0.125 -0.148 0.215 -0.594 -0.289 -0.566 c -0.074 0.004 -0.137 0.094 -0.137 0.203 c 0 0.238 0.262 0.563 0.426 0.363 m 1.309 -0.363 c 0 -0.195 -0.414 -0.355 -0.555 -0.215 c -0.266 0.184 -0.102 0.824 0.355 0.555 c 0.043 -0.023 0.199 -0.227 0.199 -0.34 m -1.27 -1.098 c -0.09 -0.09 -0.465 0.297 -0.461 0.477 c 0 0.117 0.211 0.188 0.395 -0.023 c 0.141 -0.16 0.098 -0.426 0.066 -0.453 m 1.078 0.148 c -0.297 -0.297 -0.531 -0.055 -0.258 0.293 c 0.141 0.18 0.402 0.133 0.43 0.051 c 0.023 -0.07 -0.055 -0.227 -0.172 -0.344 m 3.641 7.01 c -0.262 -0.066 -0.301 -0.426 -0.074 -0.656 c 0.18 -0.18 0.32 -0.055 0.043 -0.355 c -0.195 -0.195 -0.195 -0.289 -0.004 -0.449 c 0.328 -0.27 0.711 0.176 0.426 0.492 c -0.148 0.164 -0.277 0.207 0.016 0.289 c 0.242 0.355 0.145 0.27 0.359 -0.016 c 0.348 -0.258 0.699 0.02 0.602 0.477 c -0.047 0.223 -0.379 0.301 -0.602 0.137 c -0.145 -0.105 -0.195 -0.348 -0.387 -0.004 c -0.117 0.066 -0.285 0.105 -0.379 0.086 m -2.602 -0.199 c -0.152 -0.391 0.391 -0.68 0.613 -0.324 c 0.078 0.121 0.07 0.215 -0.027 0.332 c -0.176 0.207 -0.508 0.207 -0.586 -0.008 m 0.891 0.02 c -0.258 -0.309 0.148 -0.719 0.461 -0.461 c 0.215 0.184 0.141 0.551 -0.117 0.59 c -0.117 0.016 -0.273 -0.043 -0.344 -0.129 m 3.594 -0.02 c -0.035 -0.09 -0.008 -0.254 0.059 -0.359 c 0.094 -0.156 0.09 -0.238 -0.023 -0.402 c -0.293 -0.418 0.105 -0.84 0.516 -0.551 c 0.152 0.109 0.141 0.348 0.367 0 c 0.43 -0.313 0.844 0.195 0.469 0.57 c -0.441 0.355 -0.188 0.219 -0.043 0.359 c 0.195 0.199 0.195 0.289 -0.008 0.457 c -0.113 0.094 -0.207 0.102 -0.324 0.027 c -0.238 -0.148 -0.258 -0.297 -0.066 -0.488 c 0.16 -0.16 0.156 -0.18 -0.016 -0.309 c -0.141 -0.102 -0.148 -0.27 -0.371 -0.02 c -0.191 0.121 -0.242 0.27 -0.09 0.27 c 0.152 0 0.223 0.324 0.102 0.473 c -0.16 0.191 -0.492 0.176 -0.57 -0.027 m 1.707 0.02 c -0.258 -0.309 0.148 -0.719 0.461 -0.461 c 0.219 0.184 0.145 0.551 -0.117 0.59 c -0.117 0.016 -0.273 -0.043 -0.344 -0.129 m -6.117 -0.816 c -0.277 -0.332 0.18 -0.73 0.484 -0.426 c 0.129 0.129 0.145 0.211 0.059 0.344 c -0.148 0.238 -0.387 0.273 -0.543 0.082 m 0.816 0 c -0.277 -0.332 0.18 -0.73 0.484 -0.426 c 0.129 0.129 0.145 0.211 0.059 0.344 c -0.148 0.238 -0.387 0.273 -0.543 0.082 m 0.813 0 c -0.273 -0.332 0.184 -0.73 0.488 -0.426 c 0.129 0.129 0.141 0.211 0.059 0.344 c -0.152 0.238 -0.387 0.273 -0.547 0.082 m 4.898 0.004 c -0.215 -0.262 -0.09 -0.52 0.25 -0.52 c 0.27 0 0.305 0.035 0.305 0.305 c 0 0.234 -0.051 0.316 -0.215 0.34 c -0.117 0.016 -0.27 -0.039 -0.34 -0.125 m -6.527 -0.82 c -0.277 -0.332 0.18 -0.734 0.484 -0.426 c 0.129 0.129 0.145 0.207 0.059 0.344 c -0.148 0.238 -0.387 0.273 -0.543 0.082 m 0.816 0 c -0.277 -0.332 0.18 -0.734 0.484 -0.426 c 0.129 0.129 0.145 0.207 0.059 0.344 c -0.148 0.238 -0.387 0.273 -0.543 0.082 m 0.813 0 c -0.273 -0.332 0.184 -0.734 0.488 -0.426 c 0.129 0.129 0.141 0.207 0.059 0.344 c -0.152 0.238 -0.387 0.273 -0.547 0.082 m 0.816 0 c -0.273 -0.332 0.18 -0.734 0.488 -0.426 c 0.129 0.129 0.141 0.207 0.055 0.344 c -0.148 0.238 -0.383 0.273 -0.543 0.082 m 0.77 -0.891 c -0.137 -0.195 -0.16 -0.203 -0.219 -0.051 c -0.086 0.215 -0.516 0.223 -0.637 0.004 c -0.082 -0.148 -0.098 -0.148 -0.152 0 c -0.082 0.215 -0.543 0.215 -0.664 0 c -0.082 -0.148 -0.094 -0.148 -0.152 0 c -0.082 0.211 -0.566 0.215 -0.648 0.008 c -0.051 -0.137 -0.07 -0.137 -0.18 0.012 c -0.07 0.098 -0.223 0.152 -0.371 0.129 c -0.215 -0.031 -0.246 -0.086 -0.246 -0.441 c 0 -0.465 0.238 -0.598 0.551 -0.313 c 0.164 0.145 0.195 0.148 0.313 0.008 c 0.164 -0.199 0.348 -0.199 0.512 0 c 0.117 0.141 0.148 0.141 0.305 0 c 0.094 -0.086 0.219 -0.156 0.277 -0.156 c 0.059 0 0.164 0.07 0.234 0.156 c 0.117 0.141 0.148 0.141 0.301 0 c 0.098 -0.086 0.223 -0.156 0.281 -0.156 c 0.059 0 0.164 0.07 0.234 0.156 c 0.117 0.141 0.148 0.141 0.301 0 c 0.094 -0.086 0.211 -0.156 0.258 -0.156 c 0.047 0 0.164 0.07 0.258 0.156 c 0.156 0.141 0.188 0.141 0.301 0 c 0.07 -0.086 0.188 -0.156 0.258 -0.156 c 0.07 0 0.188 0.07 0.258 0.156 c 0.113 0.141 0.145 0.141 0.301 0 c 0.094 -0.086 0.211 -0.156 0.258 -0.156 c 0.047 0 0.164 0.07 0.258 0.156 c 0.152 0.141 0.184 0.141 0.301 0 c 0.164 -0.199 0.348 -0.199 0.516 0 c 0.113 0.141 0.145 0.137 0.309 -0.008 c 0.313 -0.285 0.555 -0.152 0.555 0.301 c 0 0.523 -0.281 0.73 -0.551 0.402 c -0.172 -0.211 -0.184 -0.211 -0.301 -0.023 c -0.152 0.25 -0.387 0.246 -0.547 -0.004 c -0.121 -0.195 -0.121 -0.195 -0.262 0 c -0.176 0.25 -0.383 0.25 -0.559 0 c -0.137 -0.195 -0.137 -0.195 -0.262 0 c -0.066 0.109 -0.188 0.195 -0.27 0.195 c -0.078 0 -0.207 -0.086 -0.285 -0.195 c -0.137 -0.195 -0.137 -0.195 -0.258 0 c -0.164 0.258 -0.379 0.25 -0.574 -0.023" fill="#adb0ad"/><path d="m 100.59 883.04 h 49.05 c 0.864 0 1.545 1.045 1.545 2.364 v 26.5 c 0 1.318 -0.682 2.364 -1.545 2.364 h -49.05 c -0.864 0 -1.545 -1.045 -1.545 -2.364 v -26.5 c 0 -1.318 0.682 -2.364 1.545 -2.364" transform="matrix(0.08594 0 0 0.08594 0 -68.44)" fill="#fff" stroke="#fff" stroke-width="3"/><path d="m 10.719 10.543 l -5.355 -0.027 v -1.625 c 0 -1.59 0.004 -1.629 0.246 -1.852 l 0.246 -0.227 l 5.01 0.016 c 4.961 0.016 5.01 0.02 5.238 0.227 c 0.219 0.203 0.227 0.277 0.227 1.828 c 0 1.203 -0.031 1.621 -0.125 1.648 c -0.07 0.02 -2.535 0.023 -5.484 0.008 m -3.867 -0.34 c 0.09 -0.09 0.176 -0.086 0.363 0.016 c 0.219 0.113 0.281 0.102 0.551 -0.105 c 0.336 -0.266 0.391 -0.5 0.16 -0.688 c -0.137 -0.113 -0.133 -0.152 0.051 -0.344 c 0.156 -0.168 0.203 -0.348 0.203 -0.801 c 0 -0.523 -0.035 -0.621 -0.32 -0.914 c -0.438 -0.449 -0.695 -0.418 -0.727 0.086 c -0.012 0.242 -0.207 0.242 -0.223 0 c -0.027 -0.5 -0.262 -0.527 -0.711 -0.098 c -0.305 0.293 -0.332 0.371 -0.332 0.914 c 0 0.465 0.043 0.645 0.203 0.813 c 0.184 0.191 0.188 0.23 0.051 0.344 c -0.227 0.184 -0.191 0.379 0.121 0.648 c 0.313 0.273 0.438 0.301 0.609 0.129 m 4.848 -0.328 c 0.168 -0.199 0.059 -0.449 -0.199 -0.449 c -0.227 0 -0.355 0.215 -0.266 0.449 c 0.074 0.191 0.305 0.191 0.465 0 m -2.355 -0.188 c 0.094 -0.375 0.008 -0.879 -0.176 -0.992 c -0.281 -0.172 -0.484 0.09 -0.484 0.629 c 0 0.531 0.043 0.598 0.367 0.598 c 0.16 0 0.25 -0.07 0.293 -0.234 m 0.805 0 c 0.164 -0.648 -0.148 -1.254 -0.5 -0.965 c -0.16 0.133 -0.219 0.738 -0.098 1.043 c 0.098 0.254 0.527 0.199 0.598 -0.078 m 0.727 0.117 c 0.18 -0.176 0.152 -0.926 -0.039 -1.082 c -0.348 -0.289 -0.664 0.316 -0.5 0.965 c 0.066 0.258 0.34 0.316 0.539 0.117 m 1.621 -0.715 c 0.168 -0.199 0.023 -0.461 -0.254 -0.461 c -0.184 0 -0.238 0.055 -0.238 0.234 c 0 0.375 0.266 0.496 0.492 0.227 m -0.813 -0.238 c 0.023 -0.18 -0.016 -0.223 -0.227 -0.223 c -0.184 0 -0.262 0.055 -0.262 0.184 c -0.004 0.477 0.488 0.637 0.488 0.039 m -2.367 -0.727 c 0.055 -0.09 0.07 -0.281 0.031 -0.43 c -0.059 -0.223 -0.117 -0.266 -0.344 -0.242 c -0.215 0.027 -0.277 0.094 -0.305 0.313 c -0.059 0.496 0.371 0.742 0.617 0.359 m 0.805 0 c 0.168 -0.27 0 -0.687 -0.273 -0.687 c -0.238 0 -0.359 0.164 -0.359 0.484 c 0 0.383 0.43 0.52 0.633 0.203 m 0.805 0 c 0.168 -0.27 0.004 -0.687 -0.273 -0.687 c -0.238 0 -0.359 0.164 -0.359 0.484 c 0 0.383 0.43 0.52 0.633 0.203 m 0.805 0 c 0.168 -0.27 0.004 -0.687 -0.273 -0.687 c -0.238 0 -0.359 0.164 -0.359 0.484 c 0 0.383 0.43 0.52 0.633 0.203 m 0.77 0.063 c 0.066 -0.078 0.105 -0.27 0.09 -0.422 c -0.027 -0.207 -0.098 -0.289 -0.273 -0.313 c -0.133 -0.02 -0.281 0.027 -0.328 0.098 c -0.289 0.453 0.176 1.035 0.512 0.637" fill="#208c20"/></svg>