<svg xmlns="http://www.w3.org/2000/svg" xmlns:xlink="http://www.w3.org/1999/xlink" viewBox="0 0 22 22"><defs><g id="3" clip-path="url(#2)"><path d="m 11.957 15.305 c 0 0.816 -0.684 1.48 -1.523 1.48 c -0.844 0 -1.523 -0.664 -1.523 -1.48 c 0 -0.816 0.68 -1.48 1.523 -1.48 c 0.84 0 1.523 0.664 1.523 1.48"/><path d="m 10.434 7.168 c 0 -0.82 0.684 -1.48 1.523 -1.48 c 0.84 0 1.523 0.66 1.523 1.48 c 0 0.816 -0.684 1.477 -1.523 1.477 c -0.84 0 -1.523 -0.66 -1.523 -1.477"/></g><clipPath id="2"><path d="M 0,0 H22 V22 H0 z"/></clipPath><filter id="0" filterUnits="objectBoundingBox" x="0" y="0" width="22" height="22"><feColorMatrix type="matrix" in="SourceGraphic" values="0 0 0 0 1 0 0 0 0 1 0 0 0 0 1 0 0 0 1 0"/></filter><mask id="1"><g filter="url(#0)"><path fill-opacity="0.2" d="M 0,0 H22 V22 H0 z"/></g></mask></defs><path d="m 10.703 21.883 c 2.27 -0.176 4.926 -1.262 6.777 -2.766 c 2.25 -1.832 3.895 -4.641 4.34 -7.406 c 0.527 -3.656 -1.598 -7.59 -3.996 -9.453 c -1.203 -0.91 -2.801 -1.633 -4.297 -1.949 c -3.891 -0.82 -7.953 0.738 -10.738 4.125 c -1.668 2.027 -2.531 4.074 -2.742 6.496 c -0.254 2.902 0.895 6.01 2.992 8.109 c 2.383 1.977 4.832 3.047 7.664 2.844" fill="#d7bfd7"/><path d="m 11.758 18.262 c 3.898 0 7.05 -3.313 7.05 -7.395 c 0 -4.086 -3.156 -7.398 -7.05 -7.398 c -1.996 0 -3.613 1.285 -3.613 3.328 c 0 2.043 1.754 3.195 3.43 3.699 c 1.641 0.488 3.797 2.027 3.797 4.066 c 0 2.043 -1.617 3.699 -3.613 3.699" fill="#f55d5d"/><path d="m 10.629 3.469 c -3.898 0 -7.05 3.313 -7.05 7.398 c 0 4.082 3.156 7.395 7.05 7.395 c 1.996 0 3.613 -1.285 3.613 -3.328 c 0 -2.043 -1.754 -3.195 -3.43 -3.699 c -1.641 -0.488 -3.797 -2.023 -3.797 -4.066 c 0 -2.043 1.617 -3.699 3.613 -3.699" fill="#8d62ac"/><use xlink:href="#3" mask="url(#1)"/><g fill="#fff"><path d="m 11.957 14.934 c 0 0.816 -0.684 1.48 -1.523 1.48 c -0.844 0 -1.523 -0.664 -1.523 -1.48 c 0 -0.816 0.68 -1.48 1.523 -1.48 c 0.84 0 1.523 0.664 1.523 1.48"/><path d="m 10.434 6.797 c 0 -0.816 0.684 -1.48 1.523 -1.48 c 0.84 0 1.523 0.664 1.523 1.48 c 0 0.816 -0.684 1.48 -1.523 1.48 c -0.84 0 -1.523 -0.664 -1.523 -1.48"/></g><g fill-opacity="0.2"><path d="m 9.953 3.871 c -0.5 0.051 -0.988 0.156 -1.449 0.309 c -0.902 0.676 -1.488 1.758 -1.488 2.988 c 0 0.051 0.008 0.105 0.012 0.156 c 0.094 -1.672 1.266 -3.047 2.82 -3.398 c 0.035 -0.016 0.07 -0.035 0.105 -0.055 m -1.797 3.102 c -0.004 0.066 -0.008 0.129 -0.008 0.195 c 0 2.043 1.75 3.195 3.426 3.699 c 1.598 0.477 3.68 1.945 3.789 3.906 c 0.004 -0.07 0.012 -0.137 0.012 -0.211 c 0 -2.039 -2.16 -3.578 -3.801 -4.066 c -1.625 -0.488 -3.316 -1.59 -3.418 -3.523 m -4.574 4.078 c 0 0.063 -0.008 0.121 -0.008 0.184 c 0 4.086 3.16 7.398 7.05 7.398 c 0.66 0 1.277 -0.145 1.809 -0.406 c -0.223 0.023 -0.449 0.035 -0.676 0.035 c 0.27 0 0.531 -0.031 0.781 -0.09 c 1.02 -0.543 1.699 -1.547 1.699 -2.867 c 0 -0.063 -0.004 -0.117 -0.008 -0.18 c -0.102 1.93 -1.672 3.137 -3.605 3.137 c -3.836 0 -6.949 -3.211 -7.05 -7.211 m 15.223 0 c -0.074 3.227 -2.113 5.941 -4.918 6.867 c -0.598 0.449 -1.328 0.715 -2.125 0.715 c 3.895 0 7.05 -3.313 7.05 -7.398 c 0 -0.063 -0.008 -0.121 -0.012 -0.184"/><path d="m 10.629 3.469 c -3.895 0 -7.05 3.313 -7.05 7.398 c 0 0.063 0.008 0.121 0.008 0.184 c 0.078 -3.227 2.117 -5.941 4.922 -6.871 c 0.594 -0.445 1.328 -0.711 2.125 -0.711 m 1.133 0 c -0.66 0 -1.277 0.141 -1.809 0.402 c 0.223 -0.02 0.449 -0.035 0.676 -0.035 c -0.27 0 -0.531 0.035 -0.781 0.09 c -1.02 0.547 -1.699 1.547 -1.699 2.871 c 0 0.063 0.004 0.117 0.008 0.176 c 0.102 -1.93 1.672 -3.137 3.605 -3.137 c 3.836 0 6.949 3.215 7.04 7.215 c 0.004 -0.063 0.012 -0.121 0.012 -0.184 c 0 -4.086 -3.16 -7.398 -7.05 -7.398 m -4.734 3.855 c -0.004 0.07 -0.012 0.141 -0.012 0.211 c 0 2.043 2.16 3.578 3.797 4.07 c 1.629 0.488 3.32 1.59 3.422 3.52 c 0.004 -0.063 0.008 -0.125 0.008 -0.191 c 0 -2.043 -1.75 -3.195 -3.43 -3.699 c -1.594 -0.477 -3.676 -1.945 -3.785 -3.91 m 8.336 7.449 c -0.094 1.672 -1.266 3.047 -2.82 3.398 c -0.035 0.02 -0.07 0.039 -0.105 0.055 c 0.5 -0.047 0.984 -0.152 1.449 -0.309 c 0.902 -0.672 1.488 -1.758 1.488 -2.984 c 0 -0.055 -0.008 -0.105 -0.012 -0.16" fill="#fff"/></g></svg>