<svg xmlns="http://www.w3.org/2000/svg" viewBox="0 0 22 22"><path d="m 0.254 13.449 c 1.367 8.945 13.48 11.336 18.828 4.953 c 4.711 -4.742 3.539 -13.816 -2.238 -16.93 c -6.633 -4.16 -16.301 0.984 -16.828 9.273 c -0.055 0.906 0.023 1.824 0.238 2.707" fill="#fb6263" fill-opacity="0.91"/><path d="m 6.27 16.344 c -0.07 -0.023 -0.176 -0.078 -0.227 -0.121 c -0.23 -0.199 -0.223 -0.078 -0.223 -4.922 c 0 -5.082 -0.023 -4.777 0.328 -4.945 c 0.152 -0.074 0.48 -0.078 4.859 -0.078 c 5.25 0 4.934 -0.02 5.105 0.316 c 0.078 0.148 0.082 0.469 0.082 4.715 c 0 4.25 -0.004 4.566 -0.082 4.715 c -0.043 0.086 -0.141 0.199 -0.215 0.25 c -0.129 0.094 -0.156 0.094 -4.813 0.102 c -2.574 0.004 -4.742 -0.012 -4.816 -0.031" fill="#ec333b"/><path d="m 5.934 13.438 c 0 -1.09 0.008 -1.535 0.016 -0.992 c 0.004 0.547 0.004 1.438 0 1.984 c -0.008 0.543 -0.016 0.098 -0.016 -0.992 m 10.145 -0.023 c 0 -1.078 0.004 -1.512 0.012 -0.965 c 0.008 0.547 0.008 1.43 0 1.961 c -0.008 0.527 -0.012 0.082 -0.012 -0.996 m -5.109 1.508 c -0.07 -0.066 -0.129 -0.168 -0.133 -0.242 c -0.016 -0.293 0.02 -0.707 0.109 -1.234 c 0.051 -0.309 0.082 -0.574 0.07 -0.582 c -0.027 -0.027 -0.914 0.109 -1.043 0.16 c -0.086 0.035 -0.105 0.105 -0.16 0.512 c -0.07 0.555 -0.117 0.695 -0.273 0.816 c -0.168 0.125 -0.324 0.109 -0.492 -0.051 l -0.145 -0.141 l 0.031 -0.496 c 0.02 -0.27 0.016 -0.504 -0.004 -0.512 c -0.02 -0.012 -0.266 -0.004 -0.547 0.02 c -0.555 0.043 -0.816 0.004 -0.969 -0.148 c -0.129 -0.121 -0.121 -0.398 0.012 -0.59 c 0.145 -0.203 0.508 -0.453 0.715 -0.484 c 0.148 -0.023 0.184 -0.008 0.328 0.141 c 0.156 0.168 0.16 0.172 0.422 0.137 c 0.215 -0.023 0.266 -0.047 0.285 -0.129 c 0.066 -0.281 0.164 -0.785 0.164 -0.84 c 0 -0.078 -0.273 -0.039 -0.738 0.109 c -0.434 0.141 -0.535 0.141 -0.687 -0.008 c -0.168 -0.164 -0.172 -0.457 -0.008 -0.648 c 0.16 -0.184 0.418 -0.273 1.055 -0.375 c 0.297 -0.047 0.555 -0.105 0.578 -0.125 c 0.078 -0.078 0.273 -1.188 0.309 -1.77 c 0.035 -0.547 0.051 -0.617 0.148 -0.723 c 0.164 -0.168 0.426 -0.156 0.582 0.023 c 0.227 0.258 0.223 0.629 -0.02 1.961 c -0.027 0.148 -0.039 0.289 -0.027 0.309 c 0.027 0.043 1.238 -0.188 1.293 -0.246 c 0.09 -0.094 0.383 -1.477 0.453 -2.16 c 0.043 -0.414 0.125 -0.574 0.328 -0.668 c 0.152 -0.074 0.184 -0.074 0.297 -0.012 c 0.32 0.176 0.324 0.586 0.008 2.027 c -0.055 0.25 -0.109 0.508 -0.125 0.582 l -0.027 0.125 l 0.516 -0.031 c 0.625 -0.039 0.738 -0.016 0.859 0.176 c 0.109 0.176 0.117 0.313 0.023 0.488 c -0.09 0.168 -0.238 0.211 -0.957 0.273 c -0.32 0.027 -0.605 0.063 -0.641 0.074 c -0.055 0.02 -0.367 0.977 -0.328 1.012 c 0.008 0.012 0.277 -0.016 0.594 -0.055 c 1.195 -0.152 1.488 -0.172 1.637 -0.098 c 0.371 0.188 0.313 0.742 -0.09 0.836 c -0.094 0.023 -0.441 0.066 -0.777 0.094 c -0.668 0.063 -1.406 0.168 -1.559 0.23 c -0.066 0.027 -0.105 0.094 -0.125 0.215 c -0.016 0.098 -0.059 0.348 -0.098 0.563 c -0.039 0.211 -0.086 0.551 -0.102 0.75 c -0.043 0.457 -0.086 0.602 -0.219 0.738 c -0.137 0.145 -0.363 0.141 -0.523 -0.004 m -0.199 -2.984 c 0.277 -0.051 0.516 -0.098 0.523 -0.105 c 0.027 -0.023 0.297 -1.012 0.281 -1.027 c -0.023 -0.023 -1.223 0.219 -1.254 0.254 c -0.035 0.039 -0.156 0.496 -0.203 0.773 c -0.039 0.234 -0.063 0.23 0.652 0.105" fill="#140606"/></svg>