<svg xmlns="http://www.w3.org/2000/svg" viewBox="0 0 22 22"><path d="m 1.039 15.13 c -8.266 -26.574 36.14 -13.281 15.371 4.926 c -4.16 3.645 -13.145 2.242 -15.371 -4.926" fill="#a9a9a9"/><g fill="#2f3445"><path d="m 6.773 17.773 c -0.254 -0.051 -0.98 -0.383 -1.238 -0.574 c -0.301 -0.215 -0.621 -0.582 -0.719 -0.813 c -0.066 -0.176 -0.18 -0.352 -0.203 -0.527 c 0.277 0.02 0.887 0.285 0.98 -0.016 c 0.348 -0.172 1.336 -1.082 0.969 -1.258 c -0.105 -0.051 -0.145 -0.109 -0.152 -0.238 c -0.008 -0.211 -0.055 -0.336 -0.121 -0.336 c -0.086 0 -0.117 0.246 -0.051 0.43 c 0.063 0.242 -0.125 0.418 -0.375 0.426 c -0.078 0 -0.195 0.051 -0.262 0.113 c -0.152 0.191 -0.684 -0.344 -0.734 -0.496 c -0.043 -0.145 -0.105 -0.23 -0.191 -0.266 c -0.016 -0.578 -0.047 -0.211 -0.051 -0.797 c -0.023 -0.25 -0.59 -0.18 -0.152 -0.395 c 0.395 -0.254 -0.051 -0.113 -0.191 -0.184 c 0 -0.078 0.277 -0.262 0.43 -0.285 c 0.121 -0.016 0.141 -0.059 0.203 -0.418 c 0.051 -0.297 0.055 -0.441 0.012 -0.547 c -0.039 -0.094 -0.055 -0.461 -0.039 -0.984 c 0.016 -0.801 0.023 -0.844 0.141 -0.918 c 0.082 -0.055 0.121 -0.133 0.121 -0.246 c 0 -0.27 0.063 -0.324 0.332 -0.285 c 0.129 0.016 0.262 0.016 0.293 -0.008 c 0.035 -0.02 0.086 -0.426 0.121 -0.922 c 0.059 -0.824 0.156 -1.305 0.293 -1.48 c 0.031 -0.039 0.133 -0.066 0.23 -0.066 c 0.105 0 0.188 -0.031 0.207 -0.082 c 0.039 -0.102 0.324 -0.105 0.406 -0.008 c 0.035 0.039 0.078 0.148 0.094 0.246 c 0.023 0.109 0.051 0.148 0.078 0.105 c 0.059 -0.094 0.215 -0.02 0.215 0.102 c 0 0.059 0.055 0.141 0.121 0.184 c 0.109 0.07 0.121 0.129 0.133 0.527 c 0.008 0.246 -0.023 0.738 -0.066 1.09 c -0.047 0.355 -0.09 1 -0.105 1.445 c -0.012 0.441 -0.051 1.086 -0.086 1.434 c -0.035 0.344 -0.047 0.664 -0.031 0.711 c 0.047 0.113 0.098 1.137 -0.395 0.977 c -0.105 -0.035 0.102 -0.656 0.125 -1.32 c 0.027 -0.777 0.129 -1.742 0.199 -1.922 c 0.027 -0.066 0.035 -0.188 0.016 -0.273 c -0.023 -0.125 -0.051 -0.148 -0.148 -0.125 c -0.063 0.016 -0.141 0.047 -0.176 0.074 c -0.074 0.059 -0.125 0.516 -0.152 1.383 c -0.023 0.633 -0.109 1.176 -0.191 1.176 c -0.027 0 -0.09 -0.055 -0.145 -0.125 c -0.055 -0.07 -0.152 -0.152 -0.219 -0.188 c -0.102 -0.055 -0.129 -0.047 -0.18 0.051 c -0.02 0.242 0.141 0.355 0.098 0.563 c -0.07 0.328 -0.02 0.504 0.141 0.504 c 0.207 0.082 0.168 0.234 0.203 0.453 c 0.145 -0.156 0.277 -0.445 0.449 -0.473 c 0.047 0.047 -0.082 0.25 -0.125 0.328 c -0.074 0.137 -0.074 0.281 -0.004 0.387 c 0.047 0.066 0.074 0.055 0.188 -0.07 c 0.102 -0.113 0.125 -0.184 0.098 -0.309 c -0.047 -0.23 0.066 -0.199 0.199 0.055 c 0.141 0.277 0.137 0.367 -0.039 0.547 c -0.152 0.16 -0.281 0.188 -0.457 0.094 c -0.063 -0.035 -0.129 -0.039 -0.16 -0.012 c -0.082 0.082 0.098 0.262 0.34 0.332 c 0.355 0.105 0.707 0.297 1.055 0.57 c 0.531 0.422 0.527 0.41 0.121 0.367 c -0.34 -0.035 -0.375 -0.027 -0.785 0.18 c -0.238 0.117 -0.457 0.246 -0.492 0.285 c -0.063 0.078 -0.289 0.703 -0.262 0.73 c 0.012 0.008 0.07 -0.094 0.137 -0.227 c 0.129 -0.266 0.199 -0.32 0.586 -0.434 c 0.332 -0.102 0.68 -0.098 1.035 0.008 c 0.332 0.098 0.289 0.18 -0.09 0.18 c -0.379 0.035 -0.484 0.355 -0.73 0.629 c -0.199 0.223 -0.258 0.402 -0.152 0.469 c 0.031 0.02 0.055 0 0.055 -0.039 c 0.188 -0.266 0.496 -0.609 0.832 -0.559 c 0.289 0.047 0.789 0.254 0.789 0.328 c 0 0.039 -0.164 0.156 -0.363 0.262 c -0.336 0.188 -0.625 0.516 -0.914 0.516 c -0.375 0.102 -0.352 0.059 -1.094 -0.035 m -0.879 -5.363 c 0.008 -0.102 -0.008 -0.234 -0.039 -0.293 c -0.031 -0.063 -0.063 -0.184 -0.07 -0.273 c -0.012 -0.129 -0.043 -0.16 -0.148 -0.16 c -0.105 0 -0.145 0.039 -0.184 0.172 c -0.063 0.219 -0.016 0.336 0.133 0.336 c 0.176 -0.016 0.09 0.031 0.004 0.125 c -0.191 0.203 -0.137 0.309 0.152 0.289 c 0.109 -0.012 0.137 -0.043 0.152 -0.195 m 1.484 -3.07 c 0.055 -0.141 0.164 -1.625 0.125 -1.723 c -0.102 -0.27 -0.273 0.305 -0.355 1.441 c -0.031 0.418 0.059 0.352 0.125 0.352 c 0.043 0 0.09 -0.031 0.105 -0.07 m 4.629 8.148 c 0 -0.105 -0.285 -0.32 -0.625 -0.457 c -0.422 -0.176 -0.883 -0.492 -1.168 -0.797 c -0.211 -0.23 -0.387 -0.363 -0.566 -0.43 c -0.145 -0.055 -0.539 -0.309 -0.883 -0.563 c -0.637 -0.477 -0.703 -0.523 -1.152 -0.773 l -0.262 -0.145 l 0.133 -0.145 c 0.207 -0.223 0.309 -0.395 0.309 -0.523 c 0.125 0.031 0.684 -1.063 0.699 -1.059 c 0.211 0.074 0.383 0.141 0.383 -0.063 c 0 -0.098 0.027 -0.184 0.055 -0.184 c 0.094 0 0.484 0.215 0.484 0.262 c 0.203 0.383 0.551 0.254 0.859 0.406 c 0.082 0.039 0.176 0.059 0.215 0.035 c 0.07 -0.043 0.23 -0.969 0.199 -1.063 c -0.012 -0.031 -0.066 -0.047 -0.234 -0.094 c -0.551 -0.16 -0.996 -0.328 -1.063 -0.543 c -0.035 -0.105 -0.203 -0.148 -0.125 -0.281 c 0.063 -0.105 0.199 -0.145 0.34 -0.273 c 0.164 -0.242 0.418 -0.387 0.352 -0.535 c -0.051 -0.09 -0.094 -0.109 -0.199 -0.082 c -0.113 0.027 -0.172 -0.008 -0.359 -0.219 c -0.27 -0.281 -0.488 -0.23 -0.719 -0.539 c -0.066 -0.094 -0.098 -0.691 -0.152 -0.832 c -0.074 -0.203 -0.234 0.195 -0.309 0.219 c -0.125 0.039 -0.168 -0.672 -0.211 -1.137 c -0.109 -1.137 0.574 -2.207 1.637 -3.254 c 0.813 -0.484 3.375 -0.633 4.168 0.012 c 0.773 0.633 1.137 1.355 1.203 2.406 c 0.039 0.629 0.012 0.75 -0.281 1.367 c -0.098 0.207 -0.207 0.527 -0.242 0.719 c -0.031 0.188 -0.094 0.43 -0.133 0.535 c -0.039 0.105 -0.102 0.305 -0.137 0.445 c -0.039 0.141 -0.09 0.27 -0.113 0.285 c -0.121 0.074 -0.098 -0.18 0.055 -0.66 c 0.227 -0.699 0.301 -1.512 0.164 -1.77 c -0.07 -0.133 -0.086 -0.254 -0.063 -0.492 c 0.035 -0.395 -0.066 -0.438 -0.164 -0.07 c -0.059 0.215 -0.137 0.121 -0.324 0.203 c -0.469 0.188 -0.496 0.305 -0.617 -0.191 c -0.027 -0.102 -0.039 0.281 -0.145 0.355 c -0.137 0.094 -0.422 0.102 -0.508 0.016 c -0.039 -0.035 -0.066 -0.125 -0.066 -0.195 c 0 -0.109 -0.012 -0.324 -0.082 -0.266 c -0.043 0.035 -0.309 0.371 -0.309 0.438 c -0.453 0.207 -1.297 0.094 -1.641 -0.18 l -0.039 0.801 c -0.012 0.195 0.422 0.629 0.609 1.191 c 0.027 0.082 0.035 0.281 0.02 0.438 c -0.035 0.324 -0.125 0.523 0.141 0.934 c 0.086 0.332 0.379 0.523 0.082 0.539 c -0.098 0 -0.684 -0.52 -0.75 -0.664 c -0.047 -0.109 -0.34 -0.254 -0.363 -0.133 c -0.082 0.293 -0.371 0.121 -0.383 0.465 c 0.406 0.238 0.152 0.129 0.594 0.273 c 0.18 0.508 1.895 1.027 2.207 0.668 c 0.035 -0.039 0.102 -0.074 0.148 -0.074 c 0.176 0 0.418 -0.281 0.449 -0.52 c 0.039 -0.289 0.688 -0.355 0.922 -0.293 c 0.223 0.504 -0.621 0.98 -1.01 1.23 l 0.07 0.891 c 0.699 0.922 0.262 0.504 0.34 0.609 c 0.258 0.289 0.523 0.504 0.84 0.73 l 0.125 0.086 l -0.219 0.406 c -0.297 0.414 -0.227 0.879 -0.242 1.367 c -0.027 0.867 -0.039 0.969 -0.133 1.035 c -0.914 0.012 -0.523 0.117 -1.813 0.129 m 0.473 -2.793 c 0.234 -0.184 0.504 -0.398 0.605 -0.473 c 0.219 -0.164 0.199 -0.355 -0.039 -0.383 c -0.121 -0.012 -0.145 -0.039 -0.133 -0.148 l 0.012 -0.133 l -1.094 0.016 c -1.074 0.016 -1.094 0.02 -1.23 0.148 c -0.078 0.07 -0.18 0.129 -0.23 0.129 c -0.137 0 -0.109 0.09 0.039 0.129 c 0.137 0.031 0.762 0.668 0.855 0.871 c 0.199 0.195 0.41 0.141 0.703 0.168 c 0.051 0.004 0.281 -0.141 0.512 -0.324 m -0.617 -0.883 m -2.219 -5.699 c -0.023 -0.086 -0.703 -0.063 -0.559 0.59 c -0.027 0.023 0.16 0.922 0.527 0.602 c 0.129 -0.117 0.102 -0.918 0.031 -1.191 m 5.449 6.06 c -0.059 -0.207 0.133 -0.238 0.211 -0.406 c 0 -0.051 0.082 -0.023 0.27 0.094 c 0.301 0.184 1.547 1.113 1.375 1.168 c -0.082 0.023 -1.344 0.02 -1.395 -0.047 c -0.188 -0.156 -0.289 -0.699 -0.461 -0.809 m -0.301 -0.344 c -0.082 -0.172 -0.492 -0.621 -0.566 -0.621 c -0.066 0 0.039 -0.656 0.113 -0.703 c 0.09 -0.055 0.316 0.148 0.316 0.285 c 0.137 0.277 0.512 0.844 0.5 0.848 c -0.063 0.023 -0.121 0.109 -0.141 0.207 c -0.043 0.211 -0.117 0.207 -0.223 -0.016 m -1.332 -5.742 c -0.07 0.02 -0.102 0 -0.102 -0.07 c 0 -0.227 0.316 -0.367 0.641 -0.289 c 0.219 0.055 0.254 0.164 0.09 0.258 c -0.059 0.031 -0.129 0.09 -0.152 0.125 c -0.191 0.133 -0.316 -0.02 -0.477 -0.023"/><path d="m 11.563 8.332 c -0.047 -0.012 -0.109 -0.051 -0.133 -0.09 c -0.031 -0.047 -0.125 -0.074 -0.273 -0.074 c -0.262 0 -0.352 -0.031 -0.352 -0.125 c 0 -0.09 0.18 -0.16 0.5 -0.203 c 0.285 -0.035 0.379 -0.004 0.547 0.195 c 0.105 0.117 0.113 0.184 0.027 0.184 c -0.031 0 -0.098 0.031 -0.145 0.066 c -0.055 0.035 -0.117 0.043 -0.172 0.047"/><path d="m 12.238 10.281 c -0.262 0 -0.484 -0.219 -0.484 -0.313 c 0 -0.09 0.406 -0.043 0.727 -0.082 c 0.285 -0.035 0.605 -0.059 0.773 0.137 c 0.102 0.121 -0.234 0.199 -0.316 0.199 c -0.27 0.105 -0.477 0.07 -0.699 0.059"/><path d="m 12.391 8.41 c 0 -0.258 0.219 -0.48 0.313 -0.48 c 0.09 0 0.043 0.402 0.086 0.723 c 0.035 0.285 0.352 0.672 -0.141 0.77 c -0.289 0.059 -0.203 -0.23 -0.203 -0.316 c -0.102 -0.266 -0.07 -0.473 -0.055 -0.695"/></g></svg>