<svg xmlns="http://www.w3.org/2000/svg" xmlns:xlink="http://www.w3.org/1999/xlink" viewBox="0 0 22 22"><defs><g id="3" clip-path="url(#2)"><path d="m 7.988 8.254 c 0.422 -0.457 0.609 -0.602 0.723 -0.547 c -0.121 1.477 -0.254 1.82 0.125 3.367 c -1.051 -0.414 -1.328 -0.633 -1.883 -0.918 c 0.195 -0.766 0.629 -1.457 1.035 -1.902" fill="#f4e5e6"/></g><g id="6" clip-path="url(#5)"><path d="m 13.992 8.168 c -0.438 -0.449 -0.633 -0.59 -0.75 -0.535 c 0.125 1.445 0.293 1.812 -0.098 3.324 c 1.238 -0.32 1.379 -0.359 1.949 -0.785 c -0.199 -0.75 -0.68 -1.57 -1.102 -2" fill="#f4e5e6"/></g><g id="9" clip-path="url(#8)"><path d="m 17.379 13.723 c -0.211 -0.715 -0.383 -1.262 -0.832 -1 c 0.172 0.805 0.113 4.215 -0.43 5.05 c 1.703 -0.176 0.527 -0.355 1.316 -0.512 c -0.277 -0.414 0.238 -1.691 -0.055 -3.539" fill="#312d29"/></g><g id="C" clip-path="url(#B)"><path d="m 4.996 14.176 c 0.242 -0.691 0.438 -1.219 0.945 -0.965 c -0.195 0.773 -0.125 4.062 0.488 4.871 c -1.934 -0.172 -0.566 -0.418 -1.461 -0.566 c 0.316 -0.402 -0.305 -1.559 0.027 -3.34" fill="#312d29"/></g><clipPath id="8"><path d="M 0,0 H22 V22 H0 z"/></clipPath><clipPath id="2"><path d="M 0,0 H22 V22 H0 z"/></clipPath><clipPath id="5"><path d="M 0,0 H22 V22 H0 z"/></clipPath><clipPath id="B"><path d="M 0,0 H22 V22 H0 z"/></clipPath><filter id="0" filterUnits="objectBoundingBox" x="0" y="0" width="22" height="22"><feColorMatrix type="matrix" in="SourceGraphic" values="0 0 0 0 1 0 0 0 0 1 0 0 0 0 1 0 0 0 1 0"/></filter><mask id="A"><g filter="url(#0)"><path fill-opacity="0.749" d="M 0,0 H22 V22 H0 z"/></g></mask><mask id="4"><g filter="url(#0)"><path fill-opacity="0.702" d="M 0,0 H22 V22 H0 z"/></g></mask><mask id="7"><g filter="url(#0)"><path fill-opacity="0.741" d="M 0,0 H22 V22 H0 z"/></g></mask><mask id="1"><g filter="url(#0)"><path fill-opacity="0.702" d="M 0,0 H22 V22 H0 z"/></g></mask></defs><path d="m 19.2 18.09 c 5.656 -8.184 1.609 -15.637 -4.391 -17.406 c -8.07 -2.379 -19.367 3.875 -12.543 16.758 c 2.711 5.121 12.906 6.477 16.934 0.648" fill="#312d29"/><path d="m 9.449 18.535 c -2.117 -0.43 -3.578 -0.332 -4.691 -2.082 c -2.699 -4.234 -0.906 -10.04 4.125 -11.469 c 1.5 -0.43 3.418 -0.543 5.02 -0.023 c 4.695 1.426 5.879 6.926 3.824 10.633 c -1.422 2.445 -3.863 3.109 -6.777 3.082 c -0.465 -0.004 -1.137 -0.066 -1.496 -0.141" fill="#bb5256"/><path d="m 9.789 11.691 c 0 1.176 -0.984 2.133 -2.199 2.133 c -1.211 0 -2.195 -0.957 -2.195 -2.133 c 0 -1.18 0.984 -2.133 2.195 -2.133 c 1.215 0 2.199 0.953 2.199 2.133" fill="#ffd600"/><path d="m 9.391 11.664 c 0 0.941 -0.781 1.703 -1.742 1.703 c -0.961 0 -1.742 -0.762 -1.742 -1.703 c 0 -0.941 0.781 -1.707 1.742 -1.707 c 0.961 0 1.742 0.766 1.742 1.707" fill="#251712"/><path d="m 16.816 11.633 c 0 1.18 -0.984 2.133 -2.199 2.133 c -1.211 0 -2.199 -0.953 -2.199 -2.133 c 0 -1.176 0.988 -2.133 2.199 -2.133 c 1.215 0 2.199 0.957 2.199 2.133" fill="#ffd600"/><path d="m 16.359 11.586 c 0 0.941 -0.781 1.703 -1.742 1.703 c -0.965 0 -1.742 -0.762 -1.742 -1.703 c 0 -0.941 0.777 -1.703 1.742 -1.703 c 0.961 0 1.742 0.762 1.742 1.703" fill="#251712"/><path d="m 9.152 11.223 c -1.535 -0.672 -1.652 -0.738 -2.234 -1.262 c -0.316 -0.281 -0.605 -0.512 -0.648 -0.512 c -0.895 -0.633 -1.199 -1.574 -0.793 -2.516 c 0.086 -0.195 0.215 -0.68 0.281 -1.078 c 0.113 -0.648 0.172 -0.789 0.578 -1.387 c 0.598 -0.887 0.688 -0.883 0.961 0.039 c 0.117 0.391 0.293 0.336 0.328 0.445 c 1.148 -0.59 3.398 -0.531 5.238 -0.422 c 1.984 0.105 2.141 0.082 2.668 -0.418 c 0.227 -0.215 0.449 -0.391 0.492 -0.391 c 0.102 0 0.43 0.687 0.43 0.902 c 0.027 0.922 -0.277 1.07 0.34 1.695 c 0.219 0.25 0.23 0.301 0.199 0.852 c -0.035 0.652 -0.152 0.891 -0.996 2.02 c -0.688 0.91 -1.25 1.34 -1.973 1.516 c -0.328 0.078 -0.906 0.266 -1.281 0.422 c -1.422 0.559 -2.441 0.598 -3.59 0.098" fill="#ec5558"/><use xlink:href="#3" mask="url(#1)"/><use xlink:href="#6" mask="url(#4)"/><use xlink:href="#9" mask="url(#7)"/><use xlink:href="#C" mask="url(#A)"/><path d="m 6.75 17.988 c -0.836 -0.242 -1.094 -1.707 -1.066 -2.41 c 0.023 -0.512 0.199 -1.125 0.418 -1.441 c 0.855 -0.477 1.875 -0.113 2.758 -0.668 c 0.797 -0.613 1.066 -0.781 1.727 -0.781 c 1.047 0.004 1.402 0.09 2.137 0.508 c 0.27 0.152 0.563 0.34 0.656 0.41 c 0.395 0.602 2.297 0.293 2.414 0.414 c 1.227 1.152 1.254 3 -0.289 3.988 c -0.809 0.594 -2.746 1.035 -4.398 1.137 c -2.457 -0.141 -3.02 -0.449 -4.355 -1.156 m 3.898 -2.773 c 0.082 -0.098 0.102 -0.301 0.039 -0.402 c -0.117 -0.191 -0.414 -0.066 -0.414 0.176 c 0 0.234 0.242 0.383 0.375 0.227 m 1.383 -0.012 c 0.102 -0.094 0.148 -0.336 0.078 -0.398 c -0.199 -0.164 -0.473 0.027 -0.406 0.293 c 0.047 0.199 0.176 0.242 0.328 0.105" fill="#ec5456"/></svg>