<svg xmlns="http://www.w3.org/2000/svg" viewBox="0 0 22 22"><path d="m 21.08 13.03 c -2.191 14.668 -24.723 9.656 -20.461 -4.539 c 2.855 -13.488 25.918 -9.836 20.461 4.539" fill="#ababad"/><path d="m 10.871 4.379 c -3.734 0 -6.773 3.02 -6.773 6.734 c 0 3.715 3.039 6.73 6.773 6.73 c 3.738 0 6.777 -3.02 6.777 -6.73 c 0 -3.715 -3.039 -6.734 -6.777 -6.734" fill="#e4e4e4"/><g fill="#fff"><path d="m 1.031 7.145 c 0.371 -1.102 1.051 -2.301 1.832 -3.234 c 2.855 -3.398 8.05 -4.676 12.723 -3.121 c 2.32 0.77 4.16 2.188 5.23 4.03 c 0.441 0.758 0.836 1.848 0.945 2.617 l 0.043 0.316 h -5.02 l -0.18 -0.285 c -0.586 -0.922 -1.539 -1.785 -2.559 -2.316 c -0.719 -0.375 -1.238 -0.555 -1.98 -0.684 c -2.637 -0.461 -5.332 0.664 -6.797 2.84 l -0.297 0.438 l -4.141 0.008"/><path d="m 9.813 21.773 c -0.609 -0.063 -1.719 -0.305 -2.426 -0.527 c -3.215 -1.01 -5.766 -3.355 -6.73 -6.199 c -0.094 -0.266 -0.168 -0.496 -0.168 -0.508 c 0 -0.012 1.012 -0.023 2.246 -0.023 h 2.242 l 0.309 0.453 c 0.555 0.813 1.582 1.703 2.484 2.16 c 1.688 0.855 3.688 0.965 5.512 0.305 c 1.223 -0.445 2.52 -1.465 3.238 -2.547 l 0.246 -0.371 h 1.98 c 1.09 0 1.984 0.012 1.984 0.027 c 0 0.102 -0.316 1 -0.508 1.453 c -1.078 2.523 -3.172 4.457 -5.719 5.285 c -1.129 0.367 -1.848 0.48 -3.199 0.504 c -0.676 0.008 -1.348 0.004 -1.492 -0.012"/></g><path d="m 9.844 6.758 c -1.301 -0.031 -2.617 0.5 -3.953 1.598 c 0.109 0.605 0.211 1.23 0.273 1.863 c 0.023 0.262 0.043 0.563 0.043 0.871 c -0.004 0.797 -0.148 1.746 -0.625 2.031 c 0.133 0.203 0.344 0.605 0.441 0.832 c 0.512 -0.492 0.664 -1.805 0.68 -2.871 c 0.004 -0.371 -0.008 -0.727 -0.027 -1.035 c -0.023 -0.488 -0.063 -0.973 -0.098 -1.449 c 1.309 -0.77 2.605 -1.027 3.887 -0.77 c 0.078 -0.324 0.168 -0.641 0.277 -0.957 c -0.301 -0.066 -0.598 -0.105 -0.898 -0.109 m 3.281 0.375 c 0.098 0.441 0.176 0.887 0.234 1.332 c -0.676 -0.137 -1.348 -0.195 -2.01 -0.172 c 0.07 0.352 0.125 0.703 0.168 1.055 c 0.234 -0.004 0.469 -0.004 0.707 0.004 c 0.168 0.559 0.344 1.207 0.512 1.766 c 0.176 0.57 0.352 1.094 0.551 1.527 c -0.543 0.738 -1.262 1.387 -2.109 1.703 c 0.063 0.281 0.117 0.754 0.105 1.043 c 0.965 -0.41 1.777 -1.207 2.395 -2.07 c 0.461 0.617 1.094 0.879 2.051 0.445 c 0.102 -0.281 0.293 -0.723 0.438 -0.965 c -0.844 0.344 -1.453 0.16 -1.938 -0.359 c 0.254 -0.457 0.469 -0.918 0.648 -1.359 c 0.172 -0.414 0.316 -0.828 0.441 -1.246 c 0.242 0.066 0.48 0.141 0.719 0.223 c 0.012 -0.199 0.02 -0.402 0.031 -0.602 c -0.699 -0.363 -1.395 -0.641 -2.082 -0.836 c -0.043 -0.422 -0.098 -0.84 -0.172 -1.258 c -0.23 -0.09 -0.457 -0.168 -0.688 -0.23 m -4.242 0.699 c -0.188 1.01 -0.328 2.039 -0.508 2.77 c -0.117 0.004 -0.238 0.004 -0.359 0.012 c 0 0.152 0.004 0.305 0.004 0.457 c 0 0.355 0 0.711 0.004 1.074 c -0.066 -0.008 -0.129 -0.02 -0.195 -0.027 c 0 -0.352 0 -0.703 0 -1.047 c 0 -0.277 -0.004 -0.551 -0.004 -0.824 c 0.207 -0.02 0.414 -0.035 0.625 -0.043 c 0.004 -0.297 0.008 -0.59 0.02 -0.879 c -0.133 0.012 -0.266 0.031 -0.398 0.051 c 0.105 -0.324 0.246 -0.805 0.41 -1.27 c -0.172 -0.043 -0.348 -0.074 -0.523 -0.09 c -0.059 0.297 -0.195 0.961 -0.262 1.242 c 0.117 0.035 0.238 0.074 0.355 0.121 c -0.297 0.051 -0.59 0.117 -0.887 0.203 c 0.105 -0.094 0.215 -0.188 0.32 -0.281 c -0.031 -0.313 -0.133 -0.707 -0.25 -0.984 c -0.148 0.141 -0.293 0.285 -0.434 0.426 c 0.117 0.23 0.219 0.59 0.258 0.867 c -0.105 0.031 -0.211 0.066 -0.313 0.102 c 0.012 0.227 0.023 0.457 0.035 0.684 c 0.199 -0.039 0.395 -0.07 0.594 -0.098 c 0.004 0.258 0.008 0.516 0.012 0.773 c 0 0.32 0 0.648 -0.004 0.977 c -0.063 -0.012 -0.125 -0.023 -0.191 -0.035 c 0.004 -0.316 0.008 -0.633 0.004 -0.941 c 0 -0.137 -0.004 -0.273 -0.004 -0.406 c -0.121 0.012 -0.242 0.023 -0.363 0.035 c 0.004 0.125 0.008 0.25 0.008 0.375 c 0.008 0.605 -0.008 1.227 -0.047 1.855 c 0.125 0.059 0.25 0.113 0.375 0.16 c 0.004 -0.117 0.008 -0.234 0.012 -0.352 c 0.063 0.02 0.121 0.039 0.184 0.059 c -0.047 0.602 -0.207 1.137 -0.715 1.113 c 0.098 0.195 0.277 0.633 0.355 0.879 c 0.648 -0.051 0.793 -0.945 0.82 -1.867 c 0.07 0.016 0.137 0.031 0.207 0.047 c 0.004 0.105 0.004 0.215 0.004 0.324 c 0.129 0.031 0.254 0.055 0.383 0.078 c -0.027 -0.773 -0.035 -1.535 -0.035 -2.27 c 0.098 0.16 0.207 0.367 0.258 0.496 c 0.047 -0.152 0.09 -0.324 0.133 -0.512 c 0.063 -0.277 0.121 -0.582 0.176 -0.906 c -0.008 0.301 -0.008 0.605 -0.008 0.91 c 0 0.09 0 0.176 0 0.27 c 0 0.324 -0.023 0.945 -0.133 1.543 c -0.105 0.598 -0.309 1.27 -0.738 1.582 c 0.098 0.203 0.301 0.75 0.375 0.973 c 0.605 -0.48 0.781 -1.902 0.797 -2.504 c 0.09 0.641 0.449 2.031 1.246 2.516 c 0.023 -0.289 0.074 -0.699 0.125 -0.965 c -1.016 -0.668 -1.172 -2.527 -1.172 -3.125 c 0 -0.09 0 -0.184 0 -0.273 c 0 -0.371 0.008 -0.746 0.023 -1.121 c 0.082 0.004 0.16 0.008 0.238 0.012 c -0.047 0.449 -0.07 0.754 -0.102 1.117 c -0.008 0.059 -0.012 0.117 -0.016 0.172 c 0.117 0.121 0.242 0.246 0.367 0.363 c 0.02 -0.152 0.043 -0.332 0.066 -0.516 c 0.07 -0.609 0.133 -1.152 0.25 -1.809 c -0.105 -0.078 -0.211 -0.16 -0.316 -0.234 c -0.027 0.012 -0.055 0.027 -0.082 0.039 c -0.242 -0.023 -0.484 -0.031 -0.73 -0.027 c 0.074 -0.379 0.145 -0.762 0.234 -1.145 c -0.164 -0.051 -0.324 -0.094 -0.488 -0.125 m 3.992 1.555 c 0.578 0.051 1.16 0.141 1.742 0.27 c -0.117 0.504 -0.273 0.98 -0.469 1.434 c -0.102 0.25 -0.219 0.496 -0.352 0.738 c -0.121 -0.219 -0.238 -0.465 -0.348 -0.727 c -0.203 -0.5 -0.383 -1.074 -0.574 -1.715" fill="#3e3e3e"/></svg>