<svg xmlns="http://www.w3.org/2000/svg" viewBox="0 0 22 22"><defs><clipPath id="6"><path d="m 1.859 7 h 1.141 v 3 h -1.141"/></clipPath><clipPath id="A"><path d="m 18 10 h 1.867 v 4 h -1.867"/></clipPath><clipPath id="7"><path d="m 10 5.441 h 2 v 1.559 h -2"/></clipPath><clipPath id="9"><path d="m 13 15 h 2 v 2.344 h -2"/></clipPath><clipPath id="8"><path d="m 13 16 h 2 v 1.344 h -2"/></clipPath><clipPath id="5"><path d="m 1.859 8 h 1.141 v 1 h -1.141"/></clipPath><clipPath id="0"><path d="m 2 5.441 h 12 v 11.559 h -12"/></clipPath><clipPath id="4"><path d="m 1.859 6 h 6.141 v 8 h -6.141"/></clipPath><clipPath id="1"><path d="m 1.859 5.441 h 14.14 v 11.902 h -14.14"/></clipPath><clipPath id="3"><path d="m 1.859 10 h 6.141 v 7 h -6.141"/></clipPath><clipPath id="2"><path d="m 5 5.441 h 10 v 11.902 h -10"/></clipPath></defs><path d="m 16.918 3.762 c -2.781 -3.086 -7.836 -4.34 -11.27 -2.469 c -4.813 3.844 -6.465 7.711 -4.941 15.621 c 0.449 1.586 1.488 3.109 2.473 3.805 c 1.77 1.129 3.656 1.523 5.695 1.184 c 4.277 -0.371 7.566 -2.426 10.25 -4.313 c 4.84 -4.77 2.941 -8.473 -2.207 -13.828" fill="#ffc0ca"/><g clip-path="url(#0)"><path d="m 2.996 14.828 l 10.715 1.707 l -2.961 -10.402 l -8.367 2.387 l 0.613 6.309 m 10.863 1.848 l -0.082 -0.016 l -10.875 -1.73 l -0.633 -6.496 l 8.547 -2.441 l 0.016 0.055 l 3.03 10.629" fill="#db7093"/></g><g clip-path="url(#1)"><path d="m 13.551 148.52 l 200.08 28.695 l -55.29 -174.86 l -156.24 40.12 l 11.452 106.05 m 202.85 31.06 l -1.532 -0.263 l -203.07 -29.09 l -11.817 -109.2 l 159.6 -41.04 l 0.292 0.919 l 56.53 178.67" transform="matrix(0.05355 0 0 0.05949 2.27 5.993)" fill="none" stroke="#ff69b3" stroke-width="4.397"/></g><path d="m 13.539 16.504 l -6.98 -4.602 l 4.184 -5.875 l 0.082 0.07 l -4.109 5.77 l 6.879 4.535" fill="#db7093"/><g clip-path="url(#2)"><path d="m 130.38 176.12 l -130.35 -77.35 l 78.12 -98.76 l 1.532 1.182 l -76.74 96.99 l 128.45 76.24" transform="matrix(0.05355 0 0 0.05949 6.557 6.03)" fill="none" stroke="#ff69b3" stroke-width="4.397"/></g><path d="m 2.98 14.926 l -0.063 -0.094 l 3.688 -2.992 l 0.059 0.09" fill="#db7093"/><g clip-path="url(#3)"><path d="m 1.139 51.906 l -1.167 -1.576 l 68.858 -50.3 l 1.094 1.51" transform="matrix(0.05355 0 0 0.05949 2.919 11.838)" fill="none" stroke="#ff69b3" stroke-width="4.397"/></g><path d="m 6.605 11.934 l -4.309 -3.41 l 0.063 -0.094 l 4.305 3.406 l -0.059 0.098" fill="#db7093"/><g clip-path="url(#4)"><path d="m 80.46 58.888 l -80.46 -57.32 l 1.167 -1.576 l 80.38 57.26 l -1.094 1.642" transform="matrix(0.05355 0 0 0.05949 2.297 8.43)" fill="none" stroke="#ff69b3" stroke-width="4.397"/></g><g clip-path="url(#5)"><path d="m 2.75 8.445 c 0 0.207 -0.176 0.375 -0.402 0.375 c -0.219 0 -0.402 -0.168 -0.402 -0.375 c 0 -0.203 0.184 -0.371 0.402 -0.371 c 0.227 0 0.402 0.168 0.402 0.371" fill="#fff"/></g><g clip-path="url(#6)"><path d="m 2.387 8.215 c -0.133 0 -0.25 0.121 -0.25 0.266 c 0 0.145 0.113 0.266 0.25 0.266 c 0.141 0 0.254 -0.117 0.254 -0.266 c 0 -0.148 -0.113 -0.266 -0.254 -0.266 m 0 0.805 c -0.281 0 -0.512 -0.242 -0.512 -0.539 c 0 -0.297 0.23 -0.539 0.512 -0.539 c 0.285 0 0.516 0.242 0.516 0.539 c 0 0.301 -0.227 0.539 -0.516 0.539" fill="#ec6894"/></g><g clip-path="url(#7)"><path d="m 10.77 5.656 c 0.18 0 0.332 0.18 0.332 0.395 c 0 0.223 -0.152 0.402 -0.332 0.402 c -0.188 0 -0.34 -0.18 -0.34 -0.402 c 0 -0.215 0.152 -0.395 0.34 -0.395" fill="#fff"/><path d="m 10.746 5.797 c -0.152 0 -0.281 0.129 -0.281 0.281 c 0 0.156 0.125 0.281 0.281 0.281 c 0.148 0 0.27 -0.125 0.27 -0.281 c 0 -0.152 -0.125 -0.281 -0.27 -0.281 m 0 0.855 c -0.313 0 -0.57 -0.258 -0.57 -0.574 c 0 -0.316 0.258 -0.57 0.57 -0.57 c 0.301 0 0.559 0.258 0.559 0.57 c 0 0.316 -0.25 0.574 -0.559 0.574" fill="#ec6894"/></g><path d="m 2.965 14.633 c 0.168 0 0.305 0.145 0.305 0.324 c 0 0.191 -0.137 0.336 -0.305 0.336 c -0.164 0 -0.301 -0.145 -0.301 -0.336 c 0 -0.18 0.133 -0.324 0.301 -0.324" fill="#fff"/><path d="m 3.02 14.691 c -0.141 0 -0.254 0.109 -0.254 0.246 c 0 0.152 0.109 0.266 0.254 0.266 c 0.145 0 0.254 -0.117 0.254 -0.266 c 0 -0.137 -0.113 -0.246 -0.254 -0.246 m 0 0.781 c -0.293 0 -0.52 -0.234 -0.52 -0.535 c 0 -0.285 0.23 -0.52 0.52 -0.52 c 0.289 0 0.52 0.234 0.52 0.52 c 0 0.301 -0.227 0.535 -0.52 0.535" fill="#ec6894"/><g clip-path="url(#8)"><path d="m 13.691 16.17 c 0.211 0 0.395 0.188 0.395 0.414 c 0 0.234 -0.184 0.43 -0.395 0.43 c -0.223 0 -0.395 -0.195 -0.395 -0.43 c 0 -0.227 0.172 -0.414 0.395 -0.414" fill="#fff"/></g><g clip-path="url(#9)"><path d="m 13.715 16.262 c -0.145 0 -0.258 0.117 -0.258 0.266 c 0 0.152 0.113 0.273 0.258 0.273 c 0.141 0 0.262 -0.129 0.262 -0.273 c 0 -0.141 -0.121 -0.266 -0.262 -0.266 m 0 0.82 c -0.289 0 -0.523 -0.25 -0.523 -0.555 c 0 -0.301 0.234 -0.543 0.523 -0.543 c 0.289 0 0.531 0.246 0.531 0.543 c 0 0.301 -0.242 0.555 -0.531 0.555" fill="#ec6894"/></g><g fill="#0a0f06"><path d="m 4.504 11.148 c 0.047 -0.031 0.152 -0.066 0.398 -0.066 h 0.504 c 0.059 0 0.07 0.016 0.074 0.02 c 0.004 0.008 0.016 0.035 0.016 0.105 c 0 0.082 0.016 0.137 0.051 0.176 l 0.004 0.004 c 0.035 0.035 0.078 0.051 0.121 0.051 c 0.055 0 0.18 -0.023 0.18 -0.234 c 0 -0.152 -0.027 -0.277 -0.086 -0.371 c -0.063 -0.105 -0.172 -0.156 -0.336 -0.156 h -0.527 c -0.273 0 -0.484 0.051 -0.617 0.152 c -0.141 0.105 -0.215 0.309 -0.215 0.609 v 1.012 c 0 0.297 0.074 0.5 0.223 0.605 c 0.133 0.105 0.355 0.156 0.668 0.156 h 0.469 c 0.16 0 0.273 -0.055 0.336 -0.16 c 0.059 -0.094 0.086 -0.215 0.086 -0.367 c 0 -0.219 -0.125 -0.242 -0.18 -0.242 c -0.047 0 -0.09 0.02 -0.121 0.059 c -0.035 0.035 -0.055 0.094 -0.055 0.172 c 0 0.063 -0.008 0.098 -0.016 0.113 c -0.012 0.008 -0.031 0.016 -0.074 0.016 h -0.445 c -0.23 0 -0.383 -0.023 -0.449 -0.066 c -0.059 -0.035 -0.086 -0.137 -0.086 -0.297 v -0.992 c 0 -0.16 0.027 -0.262 0.078 -0.297"/><path d="m 8.969 10.926 c -0.066 0 -0.121 0.039 -0.164 0.109 l -0.391 0.617 l -0.383 -0.613 c -0.055 -0.094 -0.121 -0.113 -0.168 -0.113 c -0.082 0 -0.168 0.059 -0.168 0.223 v 1.563 c 0 0.133 0.066 0.219 0.176 0.219 c 0.082 0 0.172 -0.059 0.172 -0.23 v -1.016 l 0.234 0.379 l 0.008 0.008 c 0.031 0.043 0.078 0.066 0.129 0.066 c 0.074 0 0.113 -0.039 0.137 -0.07 l 0.238 -0.383 v 1.016 c 0 0.172 0.09 0.234 0.176 0.234 c 0.105 0 0.176 -0.09 0.176 -0.223 v -1.563 c 0 -0.164 -0.094 -0.223 -0.172 -0.223"/><path d="m 11.137 10.926 c -0.063 0 -0.117 0.039 -0.16 0.109 l -0.391 0.617 l -0.387 -0.613 c -0.043 -0.074 -0.098 -0.113 -0.164 -0.113 c -0.078 0 -0.172 0.059 -0.172 0.223 v 1.563 c 0 0.133 0.07 0.219 0.176 0.219 c 0.086 0 0.176 -0.059 0.176 -0.23 v -1.02 l 0.234 0.379 l 0.004 0.008 c 0.023 0.031 0.066 0.07 0.133 0.07 c 0.055 0 0.098 -0.023 0.133 -0.066 l 0.238 -0.387 v 1.016 c 0 0.172 0.094 0.23 0.176 0.23 c 0.109 0 0.18 -0.086 0.18 -0.219 v -1.563 c 0 -0.164 -0.094 -0.223 -0.176 -0.223"/><path d="m 14.605 10.926 h -0.934 c -0.059 0 -0.105 0.023 -0.145 0.066 c -0.031 0.039 -0.051 0.09 -0.051 0.141 c 0 0.051 0.02 0.102 0.051 0.137 c 0.035 0.043 0.082 0.066 0.145 0.066 h 0.281 v 1.383 c 0 0.07 0.02 0.129 0.059 0.164 c 0.031 0.035 0.078 0.055 0.129 0.055 c 0.047 0 0.09 -0.02 0.125 -0.051 c 0.066 -0.055 0.066 -0.141 0.066 -0.168 v -1.383 h 0.273 c 0.145 0 0.195 -0.105 0.195 -0.203 c 0 -0.098 -0.051 -0.207 -0.195 -0.207"/><path d="m 15.676 10.926 c -0.105 0 -0.18 0.09 -0.18 0.219 v 1.594 c 0 0.129 0.07 0.215 0.176 0.215 c 0.113 0 0.18 -0.082 0.18 -0.215 v -1.594 c 0 -0.133 -0.066 -0.219 -0.176 -0.219"/></g><g clip-path="url(#A)"><path d="m 19.688 10.66 c -0.051 0 -0.172 0.02 -0.172 0.234 v 1.559 l -1.051 -1.684 c -0.051 -0.074 -0.105 -0.109 -0.176 -0.109 c -0.063 0 -0.164 0.027 -0.164 0.223 v 2.086 c 0 0.199 0.109 0.227 0.172 0.227 c 0.113 0 0.18 -0.078 0.18 -0.215 v -1.578 l 1.078 1.738 c 0.027 0.035 0.074 0.055 0.141 0.055 c 0.105 0 0.172 -0.082 0.172 -0.227 v -2.086 c 0 -0.195 -0.113 -0.223 -0.18 -0.223" fill="#0a0f06"/></g><path d="m 7.03 11.91 c 0 0.258 -0.18 0.461 -0.402 0.461 c -0.219 0 -0.398 -0.203 -0.398 -0.461 c 0 -0.25 0.18 -0.457 0.398 -0.457 c 0.223 0 0.402 0.207 0.402 0.457" fill="#fff"/><path d="m 6.629 11.625 c -0.137 0 -0.25 0.129 -0.25 0.285 c 0 0.16 0.113 0.293 0.25 0.293 c 0.141 0 0.254 -0.129 0.254 -0.293 c 0 -0.156 -0.113 -0.285 -0.254 -0.285 m 0 0.918 c -0.301 0 -0.547 -0.285 -0.547 -0.633 c 0 -0.344 0.246 -0.625 0.547 -0.625 c 0.305 0 0.551 0.281 0.551 0.625 c 0 0.348 -0.246 0.633 -0.551 0.633" fill="#0a0f06"/><path d="m 12.887 11.91 c 0 0.258 -0.18 0.461 -0.398 0.461 c -0.219 0 -0.398 -0.203 -0.398 -0.461 c 0 -0.25 0.18 -0.457 0.398 -0.457 c 0.219 0 0.398 0.207 0.398 0.457" fill="#fff"/><path d="m 12.488 11.625 c -0.141 0 -0.25 0.129 -0.25 0.285 c 0 0.16 0.109 0.293 0.25 0.293 c 0.137 0 0.25 -0.133 0.25 -0.293 c 0 -0.156 -0.113 -0.285 -0.25 -0.285 m 0 0.918 c -0.305 0 -0.547 -0.285 -0.547 -0.633 c 0 -0.344 0.242 -0.625 0.547 -0.625 c 0.301 0 0.547 0.281 0.547 0.625 c 0 0.348 -0.246 0.633 -0.547 0.633" fill="#0a0f06"/><path d="m 17.336 11.91 c 0 0.258 -0.176 0.461 -0.398 0.461 c -0.219 0 -0.402 -0.203 -0.402 -0.461 c 0 -0.25 0.184 -0.457 0.402 -0.457 c 0.223 0 0.398 0.207 0.398 0.457" fill="#fff"/><path d="m 16.938 11.625 c -0.137 0 -0.254 0.129 -0.254 0.285 c 0 0.16 0.113 0.293 0.254 0.293 c 0.141 0 0.25 -0.129 0.25 -0.293 c 0 -0.156 -0.113 -0.285 -0.25 -0.285 m 0 0.918 c -0.305 0 -0.551 -0.285 -0.551 -0.633 c 0 -0.344 0.246 -0.625 0.551 -0.625 c 0.301 0 0.547 0.281 0.547 0.625 c 0 0.348 -0.246 0.633 -0.547 0.633" fill="#0a0f06"/></svg>