<svg xmlns="http://www.w3.org/2000/svg" viewBox="0 0 22 22"><path d="m 21.719 8.484 c -4.293 -20.617 -33.844 1.516 -16.09 11.996 c 6.898 4.492 18.305 -1.395 16.09 -11.996" fill="#8c7f90"/><path d="m 15.234 6.438 c -0.297 0.008 -0.566 0.059 -0.742 0.152 c -0.234 0.129 -0.754 0.688 -0.938 1.012 c -0.066 0.117 -0.152 0.344 -0.191 0.508 l -0.074 0.297 l -0.133 -0.148 c -0.438 -0.488 -2.086 -0.855 -3.219 -0.723 c -0.281 0.035 -0.691 0.129 -0.914 0.215 c -0.48 0.184 -1.727 0.836 -2.297 1.207 c -0.668 0.43 -0.824 0.496 -1.473 0.637 c -0.594 0.125 -0.625 0.137 -0.738 0.332 c -0.133 0.23 -0.102 0.277 0.23 0.344 c 0.105 0.023 0.246 0.07 0.316 0.105 l 0.125 0.07 l -0.18 0.176 c -0.148 0.148 -0.281 0.203 -0.742 0.305 c -0.656 0.148 -0.969 0.273 -0.938 0.379 c 0.039 0.125 0.543 0.285 0.992 0.32 l 0.426 0.031 v 0.184 c 0 0.172 0.047 0.215 0.75 0.68 c 0.957 0.637 1.563 0.996 1.676 0.996 c 0.059 0 0.109 0.09 0.152 0.273 c 0.035 0.152 0.152 0.445 0.254 0.652 c 0.133 0.262 0.191 0.461 0.191 0.629 c 0 0.242 -0.008 0.25 -0.207 0.289 c -0.113 0.023 -0.25 0.086 -0.309 0.141 c -0.055 0.055 -0.199 0.137 -0.32 0.188 c -0.117 0.051 -0.215 0.117 -0.215 0.148 c 0.004 0.094 0.395 0.094 0.617 0 c 0.313 -0.133 0.395 -0.117 0.512 0.109 c 0.125 0.25 0.676 0.629 0.844 0.582 c 0.145 -0.043 0.195 -0.172 0.102 -0.27 c -0.055 -0.059 0.137 -0.074 1.035 -0.07 c 1.074 0.004 1.484 0.043 1.547 0.148 c 0.016 0.027 0.066 0.051 0.109 0.051 c 0.141 0 0 -0.195 -0.336 -0.465 l -0.313 -0.25 l -0.832 -0.012 c -0.457 -0.008 -1.035 -0.047 -1.277 -0.094 l -0.445 -0.078 l -0.004 -0.328 c -0.004 -0.293 -0.078 -0.559 -0.391 -1.422 l -0.059 -0.16 l 0.34 0.031 c 0.676 0.066 1.383 0.207 1.785 0.352 c 0.227 0.078 0.445 0.137 0.492 0.129 c 0.051 -0.012 0.109 0.07 0.16 0.227 c 0.059 0.184 0.258 0.434 0.805 1 l 0.727 0.766 l -0.137 0.121 c -0.074 0.066 -0.242 0.164 -0.367 0.219 c -0.25 0.102 -0.289 0.164 -0.148 0.219 c 0.152 0.063 0.293 0.039 0.637 -0.109 c 0.285 -0.125 0.352 -0.133 0.426 -0.07 c 0.047 0.043 0.297 0.18 0.555 0.305 c 0.445 0.219 0.5 0.23 1.195 0.262 c 0.398 0.02 0.742 0.055 0.766 0.078 c 0.02 0.023 0.063 0.016 0.094 -0.016 c 0.031 -0.031 0.039 -0.074 0.02 -0.098 c -0.059 -0.063 -0.66 -0.195 -0.891 -0.199 c -0.121 0 -0.258 -0.027 -0.305 -0.059 c -0.055 -0.039 0.133 -0.055 0.594 -0.043 c 0.578 0.016 0.672 0.004 0.66 -0.07 c -0.012 -0.051 -0.066 -0.098 -0.129 -0.109 c -0.059 -0.012 -0.129 -0.059 -0.152 -0.105 c -0.031 -0.063 -0.191 -0.082 -0.66 -0.082 c -0.668 0 -0.875 -0.043 -1.383 -0.289 c -0.262 -0.129 -0.473 -0.316 -0.992 -0.879 c -0.363 -0.391 -0.668 -0.754 -0.676 -0.813 c -0.008 -0.055 -0.043 -0.156 -0.074 -0.223 c -0.094 -0.207 -0.031 -0.32 0.285 -0.504 c 1.672 -0.977 2.867 -2 3.215 -2.762 c 0.137 -0.301 0.152 -0.406 0.184 -1.262 c 0.035 -0.816 0.051 -0.953 0.148 -1.066 c 0.289 -0.348 1.027 -0.398 1.691 -0.113 c 0.461 0.195 0.629 0.219 0.676 0.09 c 0.043 -0.121 -0.195 -0.539 -0.52 -0.922 c -0.148 -0.172 -0.313 -0.418 -0.363 -0.547 c -0.148 -0.383 -0.273 -0.48 -0.707 -0.559 c -0.18 -0.031 -0.367 -0.047 -0.543 -0.043 m 0.941 0.367 l 0.113 0.141 c 0.063 0.074 0.113 0.191 0.113 0.254 c 0 0.066 0.152 0.297 0.34 0.512 c 0.191 0.215 0.391 0.477 0.445 0.578 c 0.055 0.102 0.09 0.188 0.082 0.184 c -0.086 -0.004 -0.797 -0.305 -0.906 -0.379 c -0.145 -0.102 -0.148 -0.168 -0.043 -0.711 c 0.023 -0.117 0.004 -0.25 -0.055 -0.379 m -0.266 -0.02 c 0.082 0 0.148 0.074 0.148 0.16 c 0 0.086 -0.066 0.156 -0.148 0.156 c -0.082 0 -0.148 -0.07 -0.148 -0.156 c 0 -0.086 0.066 -0.16 0.148 -0.16 m -2.188 9.703 c 0.02 0 0.035 0.008 0.043 0.016 c 0.02 0.02 -0.012 0.035 -0.07 0.031 c -0.066 -0.004 -0.078 -0.016 -0.035 -0.035 c 0.02 -0.008 0.043 -0.012 0.063 -0.012" fill="#fff"/></svg>