<svg xmlns="http://www.w3.org/2000/svg" viewBox="0 0 22 22"><path d="m 0.32 8.824 c 1.707 -11.238 18.668 -11.574 21.23 -0.648 c 2.641 8.844 -6.914 16.07 -14.06 13.176 c -4.785 -1.371 -8.648 -6.973 -7.168 -12.527" fill="#b0dfe5"/><path d="m 10.344 12.801 c -1.07 -0.492 -1.363 -1.773 -0.598 -2.633 c 0.836 -0.949 2.281 -0.727 2.82 0.43 c 0.223 0.477 0.199 0.938 -0.074 1.457 c -0.41 0.777 -1.359 1.109 -2.148 0.746" fill="#29363c"/><g stroke-width="1.637" transform="scale(0.08594)"><g fill="#42a4f4" stroke="#42a4f4"><path d="m 91.32 99.82 c -2.409 -2.909 -8.5 -15.5 -10.05 -20.955 c -1 -3.455 -1.045 -4.318 -0.227 -5.318 c 1.409 -1.727 9.5 -6.773 16.182 -10.136 l 5.909 -2.955 v -7.727 c 0 -4.227 0.227 -9.864 0.455 -12.5 c 0.455 -4.455 0.636 -4.864 2.5 -5.5 c 7.318 -2.591 32.32 -2.818 41.682 -0.409 c 5.682 1.409 5.909 1.773 5.909 10.591 c 0 6.727 0 6.727 -10.727 12.136 c -19.273 9.636 -32.682 21.05 -44.727 38.05 l -4.955 7 l -1.909 -2.273"/><path d="m 98.68 197.82 c -2.227 -0.909 -7.05 -3.5 -10.727 -5.727 c -3.682 -2.273 -7.182 -4.136 -7.818 -4.182 c -0.636 -0.045 -5.682 2.227 -11.227 5.05 c -5.591 2.864 -10.591 5.182 -11.182 5.182 c -0.591 0 -2.727 -1.818 -4.773 -4.045 c -6.5 -7.136 -12.364 -16.773 -16.727 -27.5 c -4.045 -10 -4.182 -9.227 2.227 -13.409 c 3.045 -2 6.227 -3.864 7.091 -4.136 c 1.182 -0.364 3.682 0.864 10.409 5.091 c 19.636 12.318 36.909 18.273 56.27 19.5 c 7.05 0.409 7.773 0.591 7.955 1.909 c 0.273 1.955 -4.182 9.318 -9.864 16.318 c -6.409 7.909 -6.591 8 -11.636 6"/><path d="m 192.05 195.55 c -7.682 -4.273 -7.091 -2.545 -6.955 -20.273 c 0.091 -13.409 -0.136 -16.682 -1.545 -24.09 c -1.955 -10.5 -4.773 -19.18 -9.409 -28.864 c -2.227 -4.682 -3.227 -7.5 -2.727 -7.818 c 2 -1.227 21.818 0.182 27.545 1.955 c 2.682 0.818 3.136 2.409 3.136 10.591 c 0 3 0.227 8.136 0.455 11.364 l 0.5 5.909 l 8.545 4.864 c 4.727 2.682 9.318 5.591 10.227 6.5 c 2 1.955 1.727 3.455 -2.5 13.273 c -5.182 11.909 -17.14 28.636 -20.818 29 c -1 0.091 -3.818 -0.955 -6.455 -2.409"/></g><g fill="#1976d1" stroke="#1976d1"><path d="m 120.36 228.18 c -9.182 -0.545 -13.409 -1.455 -15.864 -3.455 c -1.455 -1.136 -1.727 -2.136 -1.955 -6.773 c -0.136 -3 -0.091 -6.227 0.136 -7.136 c 0.318 -1.273 3.045 -3.091 11.455 -7.636 c 20.455 -11.05 32.636 -21.364 43.05 -36.409 c 3.091 -4.455 5.864 -8.091 6.182 -8.091 c 2 0 11.409 19 12.591 25.5 c 0.455 2.182 0.182 2.545 -3.727 5.682 c -2.318 1.818 -7.318 4.818 -11.136 6.682 l -6.909 3.364 l -0.227 12 c -0.227 9.455 -0.5 12.227 -1.318 13.05 c -1.273 1.227 -11.591 3.091 -19 3.455 c -2.773 0.091 -8.727 0 -13.273 -0.273"/><path d="m 64.41 146.05 c -6.5 -1.045 -9.364 -2.591 -10.136 -5.364 c -0.273 -0.955 -0.5 -6.636 -0.545 -12.636 l -0.091 -10.909 l -6.864 -4.136 c -10.364 -6.273 -13.05 -8.05 -13.409 -9 c -0.636 -1.682 1.727 -8.773 5.273 -16.05 c 5.818 -11.864 16.273 -25.364 19.636 -25.364 c 0.818 0 4.045 1.409 7.227 3.136 l 5.727 3.136 l 0.455 18.545 c 0.591 25.18 2.091 32.455 10.136 49.27 c 3.636 7.591 4.227 9.318 3.364 9.864 c -1.545 0.955 -13.773 0.682 -20.773 -0.5"/><path d="m 201.32 107.32 c -7.864 -5 -19.818 -11.05 -28.27 -14.227 c -6.409 -2.409 -12.455 -3.682 -25.773 -5.409 c -5.864 -0.773 -11 -1.682 -11.364 -2.045 c -1.273 -1.318 6.318 -13.14 12.955 -20.14 c 3.818 -4 4.455 -4.364 6.318 -3.909 c 2.727 0.636 7.227 2.909 14.682 7.409 c 3.318 2 6.5 3.636 7 3.636 c 0.545 0 5.273 -2.273 10.5 -5.05 c 5.227 -2.727 10.136 -5 10.955 -5 c 1.864 0 7.5 6.05 12.227 13 c 6.864 10.227 13.636 25.5 12.545 28.364 c -0.545 1.455 -11.773 8.136 -13.682 8.136 c -0.318 0 -3.955 -2.182 -8.091 -4.773"/></g></g></svg>