<svg xmlns="http://www.w3.org/2000/svg" viewBox="0 0 22 22"><path d="m 0.281 13.52 c 4.293 20.617 33.844 -1.52 16.09 -11.996 c -6.898 -4.492 -18.305 1.391 -16.09 11.996" fill="#275b66"/><path d="m 99.01 65.01 c 0 18.79 -15.227 34 -34.02 34 c -18.762 0 -33.989 -15.211 -33.989 -34 c 0 -18.79 15.227 -34 33.989 -34 c 18.796 0 34.02 15.211 34.02 34" transform="matrix(0.11493 0 0 0.10914 5.226 5.304)" fill="none" stroke="#bababa" stroke-width="3"/><g fill-opacity="0.702"><path d="m 16.375 12.398 c 0 1.93 -1.648 3.492 -3.68 3.492 c -2.031 0 -3.676 -1.563 -3.676 -3.492 c 0 -1.93 1.645 -3.492 3.676 -3.492 c 2.031 0 3.68 1.563 3.68 3.492" fill="#444"/><path d="m 11.891 8.906 l 0.805 3.711 l 3.68 -0.766 c 0 0 -0.574 -3.383 -4.484 -2.945" fill="#00c60a"/></g><path d="m 16.14 12.398 c 0 1.809 -1.543 3.273 -3.449 3.273 c -1.902 0 -3.445 -1.465 -3.445 -3.273 c 0 -1.809 1.543 -3.273 3.445 -3.273 c 1.906 0 3.449 1.465 3.449 3.273" fill="#2f4e4e"/><g fill="#fff"><path d="m 12.984 9.125 c 0 0.148 -0.129 0.273 -0.289 0.273 c -0.156 0 -0.285 -0.125 -0.285 -0.273 c 0 -0.152 0.129 -0.273 0.285 -0.273 c 0.16 0 0.289 0.121 0.289 0.273"/><path d="m 16.43 12.398 c 0 0.148 -0.125 0.273 -0.285 0.273 c -0.16 0 -0.289 -0.125 -0.289 -0.273 c 0 -0.152 0.129 -0.273 0.289 -0.273 c 0.16 0 0.285 0.121 0.285 0.273"/><path d="m 12.984 15.672 c 0 0.152 -0.129 0.273 -0.289 0.273 c -0.156 0 -0.285 -0.121 -0.285 -0.273 c 0 -0.152 0.129 -0.273 0.285 -0.273 c 0.16 0 0.289 0.121 0.289 0.273"/><path d="m 9.535 12.398 c 0 0.148 -0.129 0.273 -0.285 0.273 c -0.16 0 -0.289 -0.125 -0.289 -0.273 c 0 -0.152 0.129 -0.273 0.289 -0.273 c 0.156 0 0.285 0.121 0.285 0.273"/></g><g fill="none" stroke="#fff" transform="matrix(0.11493 0 0 0.10914 5.226 5.304)"><path d="m 64.991 65.01 l -4.996 -23.01" stroke-width="4"/><path d="m 64.991 65.01 l -21.01 22.01" stroke-width="3"/></g><path d="m 13.1 12.398 c 0 0.211 -0.18 0.383 -0.402 0.383 c -0.223 0 -0.402 -0.172 -0.402 -0.383 c 0 -0.211 0.18 -0.383 0.402 -0.383 c 0.223 0 0.402 0.172 0.402 0.383" fill="#fff"/><g fill="#212121"><path d="m 6.05 16.219 v -10.16 h -0.438 l -0.16 10.16"/><path d="m 6.375 5.742 c 0 -0.242 -0.207 -0.438 -0.461 -0.438 c -0.254 0 -0.457 0.195 -0.457 0.438 c 0 0.238 0.203 0.434 0.457 0.434 c 0.254 0 0.461 -0.195 0.461 -0.434"/></g><path d="m 6.133 6.23 c 1.277 -0.445 2.195 -0.316 3 0.164 c 0.691 0.438 1.266 0.984 2.07 0.656 c 0.574 -0.219 1.148 -0.82 1.148 -0.82 v 3.984 c 0 0 -0.461 0.438 -0.918 0.547 c -1.266 0.438 -1.84 -0.219 -2.645 -0.547 c -0.918 -0.656 -1.953 -0.109 -2.656 0.219" fill="#666"/><path d="m 6.133 6.23 c 0 0 0.359 -0.086 0.703 -0.172 c 0.574 -0.145 1.035 -0.145 1.492 0 v 3.828 c 0 0 -0.574 -0.219 -1.492 0.328 c -0.609 0.219 -0.703 0.219 -0.703 0.219" fill="#286e7a"/><path d="m 8.328 6.06 c 0.348 0.086 0.574 0.172 1.035 0.555 c 0.461 0.219 0.691 0.438 1.148 0.438 v 3.82 c -0.918 -0.109 -1.492 -0.656 -2.184 -0.984" fill="#ededed"/><path d="m 7.89 8.491 c 11.11 -4.08 19.1 -2.899 26.1 1.503 c 6.02 4.01 11.01 9.02 18.01 6.01 c 4.996 -2 9.993 -7.516 9.993 -7.516 v 36.507 c 0 0 -4.01 4.01 -7.987 5.01 c -11.01 4.01 -16.01 -2 -23.01 -5.01 c -7.987 -6.01 -16.994 -1 -23.11 2" transform="matrix(0.11493 0 0 0.10914 5.226 5.304)" fill="none" stroke="#212121" stroke-width="1.5"/></svg>