<svg xmlns="http://www.w3.org/2000/svg" viewBox="0 0 22 22"><path d="m 8.48 0.281 c -20.617 4.293 1.52 33.848 11.996 16.09 c 4.492 -6.898 -1.391 -18.305 -11.996 -16.09" fill="#f4f4f4"/><path d="m 13.723 3.5 c -0.008 0.332 -0.746 1.012 -2.105 1.953 c -0.035 0.027 -0.051 -0.055 -0.035 -0.211 c 0.012 -0.145 -0.008 -0.273 -0.047 -0.305 c -0.07 -0.07 -0.133 -0.004 -0.961 0.934 c -1 1.145 -1.035 1.168 -2.23 1.734 c -0.391 0.184 -0.742 0.383 -0.781 0.441 c -0.043 0.055 -0.168 0.258 -0.293 0.453 c -0.121 0.188 -0.422 0.648 -0.66 1.016 l -0.438 0.668 l -0.418 0.203 c -0.57 0.273 -0.949 0.555 -1.238 0.918 c -0.293 0.371 -0.348 0.531 -0.215 0.625 c 0.059 0.035 0.16 0.063 0.238 0.063 c 0.074 0 0.293 0.09 0.488 0.199 c 0.203 0.113 0.43 0.199 0.52 0.199 c 0.113 0 0.203 0.043 0.297 0.152 c 0.332 0.363 1.297 1.078 1.934 1.426 c 0.598 0.332 0.641 0.277 0.23 -0.273 c -0.289 -0.387 -0.785 -1.305 -0.809 -1.5 c -0.008 -0.094 0.023 -0.129 0.188 -0.184 c 0.188 -0.059 0.242 -0.055 0.59 0.051 c 0.437 0.133 0.918 0.207 0.961 0.145 c 0.039 -0.066 -0.012 -0.125 -0.301 -0.324 c -0.141 -0.098 -0.234 -0.188 -0.215 -0.203 c 0.023 -0.008 0.172 -0.059 0.328 -0.109 c 0.234 -0.066 0.324 -0.074 0.516 -0.027 c 0.359 0.082 0.883 0.074 0.883 -0.02 c 0 -0.039 -0.082 -0.105 -0.172 -0.141 l -0.176 -0.07 l 0.258 -0.031 c 0.316 -0.047 0.672 0.004 0.891 0.121 c 0.238 0.141 0.336 0.395 0.305 0.789 c -0.035 0.441 -0.434 1.77 -0.68 2.266 c -0.219 0.441 -0.34 0.535 -0.762 0.602 c -0.316 0.055 -0.332 0.176 -0.027 0.305 c 0.129 0.055 0.309 0.102 0.406 0.102 c 0.195 0 0.195 -0.012 0.023 0.395 c -0.109 0.27 -0.184 0.273 -0.543 0.02 c -0.23 -0.16 -0.324 -0.188 -0.363 -0.086 c -0.012 0.023 0.141 0.211 0.332 0.414 c 0.332 0.359 0.348 0.383 0.348 0.629 c 0 0.289 0.121 0.461 0.32 0.461 c 0.059 0 0.328 0.066 0.602 0.152 c 0.277 0.078 0.547 0.148 0.594 0.148 c 0.047 0 0.148 -0.063 0.23 -0.129 c 0.121 -0.117 0.133 -0.148 0.102 -0.383 c -0.066 -0.453 0.09 -0.906 0.5 -1.473 c 0.105 -0.148 0.297 -0.438 0.426 -0.641 l 0.23 -0.367 l 0.219 0.223 c 0.117 0.125 0.672 0.719 1.223 1.324 c 0.555 0.602 1.039 1.098 1.09 1.098 c 0.07 0 0.074 -0.055 0.047 -0.332 c -0.055 -0.563 -0.156 -2.449 -0.133 -2.465 c 0.02 -0.02 0.277 0.172 1.355 1.01 c 0.176 0.137 0.363 0.246 0.41 0.25 c 0.086 0 0.074 -0.043 -0.063 -0.395 c -0.086 -0.215 -0.203 -0.477 -0.258 -0.582 c -0.059 -0.102 -0.266 -0.57 -0.465 -1.031 c -0.191 -0.465 -0.398 -0.93 -0.457 -1.039 c -0.055 -0.109 -0.277 -0.609 -0.496 -1.113 l -0.395 -0.906 l 0.16 -0.082 c 0.504 -0.254 1.43 -0.82 1.43 -0.863 c -0.008 -0.066 -0.059 -0.105 -1.227 -0.844 c -0.43 -0.27 -0.809 -0.52 -0.852 -0.563 c -0.07 -0.051 0.008 -0.148 0.523 -0.633 c 0.363 -0.344 0.598 -0.594 0.578 -0.633 c -0.027 -0.074 -0.133 -0.109 -1 -0.344 c -0.309 -0.078 -0.59 -0.16 -0.625 -0.168 c -0.047 -0.016 -0.035 -0.086 0.043 -0.258 c 0.141 -0.305 0.352 -1.133 0.395 -1.551 c 0.055 -0.469 -0.031 -0.707 -0.355 -1.023 c -0.277 -0.273 -0.418 -0.332 -0.418 -0.184 m 0.375 0.52 c 0.191 0.301 0.105 1.242 -0.172 1.895 c -0.254 0.617 -0.742 1.16 -1.375 1.563 l -0.348 0.219 l 0.297 -0.293 c 0.578 -0.566 0.957 -1.016 0.957 -1.129 c 0 -0.066 0.031 -0.145 0.074 -0.176 c 0.039 -0.027 0.102 -0.164 0.141 -0.293 c 0.031 -0.129 0.082 -0.277 0.109 -0.332 c 0.152 -0.32 0.348 -1.254 0.277 -1.316 c -0.066 -0.066 -0.137 0.008 -0.32 0.352 c -0.207 0.387 -0.789 1.016 -1.594 1.734 c -0.566 0.5 -1.57 1.289 -1.645 1.289 c -0.016 0 0.035 -0.117 0.129 -0.262 c 0.09 -0.141 0.254 -0.426 0.371 -0.629 c 0.203 -0.375 0.289 -0.453 1.148 -1.086 c 0.117 -0.09 -0.617 0.688 -0.746 0.785 c -0.176 0.137 -0.309 0.496 -0.191 0.496 c 0.031 0 0.18 -0.129 0.336 -0.281 c 0.152 -0.16 0.66 -0.633 1.121 -1.066 c 0.691 -0.648 0.867 -0.844 1.023 -1.137 c 0.105 -0.195 0.191 -0.387 0.191 -0.418 c 0 -0.121 0.109 -0.074 0.215 0.086 m 1.01 3.137 c -0.012 0.008 -0.309 0.129 -0.66 0.266 c -2.238 0.867 -2.73 1.063 -2.789 1.109 c -0.039 0.031 -0.082 0.047 -0.094 0.031 c -0.039 -0.031 0.176 -0.164 1.141 -0.707 c 0.934 -0.527 1.16 -0.621 1.633 -0.672 c 0.438 -0.043 0.801 -0.059 0.77 -0.027 m -4.184 1.762 c -0.031 0.051 0.219 0.082 0.555 0.063 c 0.102 -0.008 0.203 0.008 0.219 0.039 c 0.016 0.023 0.207 0.07 0.426 0.098 c 0.219 0.031 0.449 0.074 0.508 0.102 c 0.059 0.023 0.781 0.141 1.602 0.262 l 1.496 0.219 l -0.43 0.035 c -0.645 0.055 -3.27 0.363 -3.574 0.426 c -0.145 0.027 -0.898 0.148 -1.672 0.273 c -0.77 0.121 -1.5 0.242 -1.629 0.27 c -0.121 0.027 -0.254 0.051 -0.293 0.051 c -0.102 0 0.941 -0.703 2.469 -1.672 c 0.352 -0.227 0.371 -0.238 0.324 -0.164 m -2.855 1.41 c 0 0.008 -0.172 0.113 -0.375 0.227 c -0.207 0.121 -0.57 0.344 -0.813 0.5 c -0.285 0.195 -0.484 0.293 -0.586 0.293 c -0.078 0 -0.148 -0.012 -0.148 -0.039 c 0 -0.109 0.238 -0.367 0.441 -0.48 c 0.184 -0.094 0.992 -0.383 1.469 -0.516 c 0.004 -0.004 0.012 0.004 0.012 0.016 m 3.895 1.492 c 0.145 0.559 0.012 1.414 -0.395 2.527 c -0.109 0.293 -0.289 1.145 -0.348 1.656 c -0.043 0.367 -0.066 0.434 -0.211 0.566 c -0.094 0.082 -0.172 0.145 -0.188 0.129 c -0.012 -0.012 0.012 -0.25 0.055 -0.531 c 0.074 -0.559 0.34 -1.547 0.512 -1.895 c 0.145 -0.301 0.289 -0.746 0.379 -1.164 c 0.18 -0.813 0.152 -1.383 -0.082 -1.688 l -0.109 -0.148 l 0.16 0.141 c 0.105 0.094 0.18 0.227 0.227 0.406 m 2.453 0.332 c 0.527 0.234 1.504 1.348 2.031 2.324 l 0.172 0.309 l -0.215 -0.168 c -0.117 -0.094 -0.816 -0.68 -1.547 -1.309 c -1.266 -1.078 -1.336 -1.148 -1.223 -1.199 c 0.18 -0.098 0.512 -0.078 0.781 0.043 m -1.398 0.98 c 0.164 0.055 0.379 0.148 0.473 0.211 c 0.703 0.461 1.066 0.711 1.352 0.957 c 0.305 0.262 0.324 0.297 0.324 0.5 c 0 0.113 0.023 0.32 0.047 0.449 c 0.027 0.129 0.066 0.48 0.086 0.781 l 0.035 0.543 l -0.285 -0.328 c -0.246 -0.277 -0.855 -0.996 -2.293 -2.711 c -0.199 -0.234 -0.363 -0.441 -0.363 -0.465 c 0 -0.07 0.32 -0.035 0.625 0.063"/></svg>