<svg xmlns="http://www.w3.org/2000/svg" viewBox="0 0 22 22"><path d="m 4.535 19.871 c 16.539 10.91 26.727 -23.883 5.344 -19.277 c -8.836 1.965 -14.199 14.273 -5.344 19.277" fill="#a3676c"/><g fill="#fff" stroke="#fff"><g stroke-width="0.077" transform="scale(0.08594 0.08594)"><path d="m 66.32 187.09 l -2.545 -1.955 l -3.818 1.773 c -3.182 1.5 -4.136 1.636 -5.727 0.909 c -3.455 -1.591 -2.182 -3.273 3.591 -4.636 c 2.364 -0.591 4.273 -0.636 5.5 -0.182 c 1.045 0.409 2.091 0.5 2.364 0.273 c 0.773 -0.773 0.545 -13.682 -0.409 -21.545 c -0.727 -6.318 -0.682 -7.454 0.364 -8.591 c 1.045 -1.136 1.091 -2.727 0.5 -11.727 c -1.227 -18.318 -1.727 -19.636 -6.05 -17.409 c -2.909 1.5 -5.818 1.545 -7 0.091 c -1.409 -1.682 -0.409 -2.591 3.636 -3.182 c 6.273 -0.955 11.682 -0.818 12.136 0.318 c 0.182 0.545 0.364 15.05 0.364 32.18 v 31.18 l 26.409 0.182 c 14.545 0.091 43 0.091 63.27 0.045 c 34.5 -0.182 36.864 -0.091 36.636 1.136 c -0.409 2.136 -8 2.364 -68.5 2.182 c -30.727 -0.091 -56.41 0.091 -57.05 0.364 c -0.682 0.318 -2.136 -0.227 -3.682 -1.409"/><path d="m 67.09 114.05 c -0.409 -1.682 -1 -6.454 -1.273 -10.5 c -0.227 -4.091 -0.864 -8.545 -1.318 -9.909 c -0.909 -2.682 -1.591 -2.773 -6.636 -0.727 c -2.773 1.136 -5.182 0.318 -5.182 -1.682 c 0 -1.409 7.636 -3.091 11.455 -2.5 l 3 0.5 l -0.545 -8.409 c -0.773 -11.818 -1.864 -19.773 -2.773 -20.682 c -0.5 -0.545 -1.591 -0.455 -3.273 0.227 c -4.091 1.682 -6.364 1.864 -7.409 0.545 c -1.136 -1.318 -0.545 -2.773 1.091 -2.773 c 0.591 0 2.682 -0.545 4.636 -1.227 c 3.273 -1.091 3.682 -1.091 4.909 0 c 0.727 0.682 2.273 1.227 3.409 1.227 h 2.045 l -0.045 27.954 c -0.045 28.05 -0.5 34.09 -2.091 27.954"/></g><g transform="matrix(0.07406 0 0 0.07433 2.333 2.543)"><path d="m 29.1 149.67 c -2.268 -1.839 -2.373 -4.992 -0.158 -6.148 c 0.897 -0.473 3.85 -0.841 6.54 -0.788 l 4.852 0.053 l -3.428 4.204 c -3.639 4.467 -4.905 4.94 -7.806 2.68" stroke-width="0.122"/><path d="m 108.27 197.86 c -1.108 -2.417 -1.108 -3.153 0.105 -4.572 c 1.951 -2.26 7.173 -3.941 10.02 -3.206 l 2.373 0.578 l -2.69 5.04 c -3.059 5.675 -7.753 6.726 -9.81 2.155" stroke-width="0.135"/></g><g stroke-width="0.077" transform="scale(0.08594 0.08594)"><path d="m 190.73 197.41 c -1.864 -1.318 -1.045 -3.545 1.318 -3.545 c 0.955 0 2.591 -0.591 3.545 -1.273 c 1.591 -1.091 1.909 -1.091 2.955 -0.091 c 1 1 0.773 1.409 -1.818 3.545 c -3.273 2.727 -3.955 2.864 -6 1.364"/><path d="m 89.45 154.73 c -0.455 -0.909 0.545 -7.182 3 -18.727 c 2.045 -9.545 5.091 -24.636 6.818 -33.545 c 2.227 -11.773 3.455 -16.454 4.409 -17.14 c 1.409 -1.045 26.364 -1.364 34.05 -0.455 c 3.818 0.455 4.045 0.591 3.818 2.455 c -0.364 3.364 -2.773 3.955 -16.909 3.955 c -16.227 0 -15.5 -0.455 -17.682 11.545 c -1.455 8.409 -1.5 8.909 -0.227 9.864 c 0.955 0.682 4.727 0.955 12.636 0.955 c 10.182 0 11.455 0.182 12.682 1.5 c 1.864 2.091 0.955 4.409 -2 5 c -1.318 0.227 -7.5 0.455 -13.773 0.455 c -13.09 0 -12.955 -0.091 -13.864 6.727 c -2.273 16.773 -4.182 25.18 -6.273 27.727 c -1.273 1.545 -5.864 1.318 -6.682 -0.318"/></g><g transform="matrix(0.07406 0 0 0.07433 2.333 2.543)"><path d="m 173.88 146.15 c -0.844 -0.473 -4.01 -5.728 -7.01 -11.614 c -3.01 -5.886 -6.118 -10.983 -6.857 -11.246 c -0.897 -0.368 -5.116 3.311 -12.922 11.193 c -11.393 11.509 -11.709 11.719 -15.559 11.719 c -2.162 0 -3.956 -0.315 -3.956 -0.736 c 0 -0.42 5.644 -6.884 12.553 -14.346 c 6.909 -7.515 13.13 -14.714 13.819 -16.08 c 1.213 -2.312 1 -2.89 -5.38 -14.294 c -3.692 -6.569 -6.646 -12.665 -6.646 -13.505 c 0 -1.261 0.686 -1.629 2.954 -1.629 c 4.114 0 5.327 1.156 9.968 9.564 c 5.696 10.352 6.118 10.93 7.753 10.93 c 0.791 0 6.171 -4.835 11.92 -10.773 c 10.179 -10.458 10.601 -10.773 13.555 -10.247 c 1.688 0.315 3.059 1.104 3.059 1.682 c 0 0.631 -3.798 5.15 -8.386 10.09 c -9.81 10.51 -15.77 17.867 -15.77 19.444 c 0 0.631 3.428 6.937 7.595 14.08 c 4.167 7.147 7.595 13.558 7.595 14.294 c 0 2.365 -5.169 3.258 -8.281 1.471" stroke-width="0.089"/><g stroke-width="0.135"><path d="m 63.962 197.7 c -1.055 -2.417 -1.055 -3.153 0.158 -4.519 c 1.951 -2.312 7.173 -3.994 9.968 -3.258 l 2.373 0.631 l -2.69 4.992 c -3.059 5.675 -7.753 6.726 -9.81 2.155"/><path d="m 149.67 198.91 c -1 -2.575 -1 -3.416 0.105 -4.887 c 1.899 -2.47 6.751 -4.257 9.441 -3.468 l 2.268 0.683 l -2.584 5.36 c -2.848 6.096 -7.279 7.199 -9.23 2.312"/></g></g><g stroke-width="0.1"><path d="m 171.86 168.45 c 0 7.468 -2.16 13.582 -4.878 13.582 c -2.718 0 -4.878 -6.115 -4.878 -13.582 c 0 -7.522 2.16 -13.637 4.878 -13.637 c 2.718 0 4.878 6.115 4.878 13.637" transform="matrix(0.1049 0 0 0.07219 -3.54 2.223)"/><path d="m 126.19 161.89 c 0 12.931 -3.421 23.407 -7.599 23.407 c -4.217 0 -7.639 -10.475 -7.639 -23.407 c 0 -12.931 3.421 -23.356 7.639 -23.356 c 4.177 0 7.599 10.425 7.599 23.356" transform="matrix(0.09818 0 0 0.07794 -1.265 0.734)"/></g></g></svg>