<svg xmlns="http://www.w3.org/2000/svg" viewBox="0 0 22 22"><path d="m 18.02 19.594 c -13.195 10.238 -26.895 -15.258 -10.555 -18.988 c 10.285 -3.82 20.336 11.398 10.555 18.988" fill="#d2e2ed"/><path d="m 179.28 144.09 c -1.364 -0.273 -3.227 -1.682 -4.227 -3.182 c -1.636 -2.5 -1.591 -2.818 0.591 -5.545 c 1.273 -1.591 2.864 -4.091 3.545 -5.591 c 1.545 -3.409 2.455 -23.727 1.182 -25.591 c -0.545 -0.773 -2.727 -1.682 -4.909 -2.045 c -3.864 -0.591 -4 -0.545 -4 2.773 c 0 1.864 0.818 6.182 1.773 9.636 c 1.591 5.773 1.591 6.727 0 12.273 c -2.364 8.091 -6.5 11.545 -13.682 11.545 c -5.182 0 -8.636 -1.864 -8.636 -4.682 c 0 -0.727 1.955 -3.136 4.318 -5.409 c 5.455 -5.091 5.545 -7.909 0.682 -15.955 c -2 -3.364 -6.5 -13 -9.909 -21.455 c -4.727 -11.636 -6.227 -16.5 -5.955 -19.727 c 0.591 -7.909 0.455 -9.636 -1.455 -17.773 c -1.045 -4.409 -2.136 -10 -2.5 -12.364 c -0.318 -2.364 -1.5 -5.273 -2.591 -6.5 c -1.091 -1.227 -6.364 0.364 -6.727 -1.5 c -0.545 -2.773 4 -8.05 7.318 -11.636 c 5.455 -6.05 9.227 -7.5 21.864 -8.364 c 11.864 -0.818 19.14 0.273 26.864 4.091 c 4.955 2.409 10.273 7.05 10.273 8.909 c 0 0.727 0.773 1.909 1.682 2.682 c 1.409 1.136 2.773 1.045 7.864 -0.545 c 7.318 -2.318 26.09 -2.955 31 -1.045 c 4.773 1.818 14.318 12.455 17.545 19.455 c 2.591 5.682 2.727 6.727 2.136 18 c -0.409 8 -1.545 15.182 -3.364 21.636 c -5.727 19.955 -6.136 27.909 -2.045 39.41 c 3.045 8.636 0.136 13.09 -8.545 13.09 c -4.5 0 -8.545 -2.864 -10.909 -7.773 c -0.818 -1.636 -2.727 -3 -5.091 -3.591 c -7.591 -1.955 -8.455 -5.091 -2.682 -10.182 c 4.091 -3.591 4.955 -8.227 2.364 -12.864 c -1.545 -2.773 -9.318 -8.864 -11.364 -8.909 c -2.182 -0.045 -8.182 3.318 -9.364 5.227 c -1.182 1.955 -4 14.318 -6.5 28.5 c -1.864 10.636 -2.909 13.182 -5.682 13.955 c -3.727 1.045 -8.455 1.5 -10.864 1.045 m 58.05 -24.273 c 0.5 -1.318 0.455 -4.045 -0.136 -6.091 c -1.227 -4.364 0 -11.318 4.864 -28.09 c 2.273 -7.773 3.455 -14.5 3.773 -21.682 c 0.5 -10.09 0.409 -10.636 -2.773 -16.14 c -1.818 -3.182 -5.05 -7.409 -7.227 -9.5 c -3.818 -3.682 -4.045 -3.773 -13.818 -3.955 c -7.05 -0.091 -12.09 0.455 -17.14 1.909 c -10.227 2.909 -13.182 2.727 -16.545 -1.273 c -1.545 -1.818 -2.773 -3.909 -2.773 -4.636 c 0 -2.818 -5.182 -6 -13.364 -8.227 c -7.409 -2 -9.364 -2.136 -15.14 -1.136 c -3.682 0.636 -8.5 1.409 -10.727 1.727 c -5.318 0.818 -6.909 3.636 -4.591 8.091 c 0.955 1.818 2.182 7 2.727 11.591 c 0.5 4.545 1.682 10.682 2.591 13.682 c 0.909 3 1.545 8.5 1.409 12.409 c -0.182 5.273 0.364 8.409 2.091 12.364 c 1.318 2.955 3.182 8 4.182 11.227 c 1.955 6.455 4.318 10.773 5.909 10.773 c 0.591 0 2.045 -1.909 3.227 -4.227 c 2.545 -4.955 4.909 -5.955 11.682 -4.955 c 7.955 1.227 9.773 2.318 12.227 7.545 c 1.273 2.636 2.727 4.591 3.227 4.318 c 0.455 -0.318 2.091 -3.182 3.545 -6.409 c 2.318 -4.955 3.545 -6.273 8.364 -8.682 c 7.455 -3.773 11.591 -3.682 17.409 0.364 c 9.5 6.545 13.318 13.545 12.09 22.318 c -0.545 3.773 -0.227 5.273 1.273 6.955 c 2.409 2.682 2.545 2.682 3.636 -0.273" transform="matrix(0.08594 0 0 0.08594 -5.579 4.383)" fill="#eb3c53" stroke="#eb3c53"/><path d="m 169.5 170.09 c -0.727 -1.273 -1.045 -4 -0.773 -6 c 1.727 -11.136 -10.636 -25.909 -21.636 -25.909 c -7.091 0 -13.545 3.818 -17.682 10.5 l -3.545 5.682 l -3.273 -4.545 c -3.409 -4.727 -6.455 -5.909 -15.636 -6.182 c -3.636 -0.091 -4.864 0.591 -8.136 4.455 l -3.818 4.591 l -1.955 -4.636 c -5.864 -14.09 -8.591 -23.23 -8.591 -28.818 c 0 -3.318 -1.364 -12.818 -3.045 -21.09 c -1.636 -8.227 -3.273 -16.409 -3.591 -18.14 c -0.727 -3.864 1.364 -4.955 12.636 -6.591 c 13.318 -1.909 24.864 2 30.364 10.273 c 4.318 6.545 7.05 7.318 17.273 5.136 c 9.318 -2 22.864 -2.636 27.818 -1.273 c 2.045 0.545 5.136 3.455 8.545 8.091 l 5.318 7.182 l -0.636 12.182 c -0.364 7.955 -1.682 16.409 -3.818 24.364 c -1.773 6.682 -3.5 16.864 -3.864 22.591 c -0.545 8.545 -0.864 10 -1.955 8.136" transform="scale(0.08594)" fill="#fff" stroke="#fff" stroke-width="2.318"/><g fill="#eb3c53" stroke="#eb3c53" stroke-width="2"><path d="m 66.16 58 c 0 3.064 -2.358 5.561 -5.28 5.561 c -2.973 0 -5.331 -2.497 -5.331 -5.561 c 0 -3.064 2.358 -5.561 5.331 -5.561 c 2.922 0 5.28 2.497 5.28 5.561" transform="matrix(0.07621 0 0 0.06884 4.607 3.878)"/><path d="m 66.14 58 c 0 3.064 -2.358 5.561 -5.28 5.561 c -2.922 0 -5.331 -2.497 -5.331 -5.561 c 0 -3.064 2.409 -5.561 5.331 -5.561 c 2.922 0 5.28 2.497 5.28 5.561" transform="matrix(0.07621 0 0 0.06884 3.131 3.878)"/></g></svg>