<svg xmlns="http://www.w3.org/2000/svg" viewBox="0 0 22 22"><path d="m 8.555 0.758 c -20.234 6.719 1.488 33.492 11.773 14.59 c 4.406 -7.395 -1.367 -18.05 -11.773 -14.59" fill="#f54f66"/><path d="m 10.984 16.352 c -0.418 -0.148 -1.926 -1.238 -2.652 -1.918 c -1.629 -1.52 -2.234 -2.633 -2.234 -4.121 c 0 -0.836 0.043 -1.043 0.309 -1.457 c 0.746 -1.172 1.875 -1.691 3 -1.387 c 0.621 0.164 1.137 0.527 1.445 1.012 l 0.223 0.355 l 0.48 -0.492 c 0.742 -0.754 1.129 -0.91 2.16 -0.855 c 0.746 0.035 0.965 0.102 1.406 0.41 c 0.797 0.559 1.133 1.254 1.113 2.297 c -0.035 1.973 -1.371 3.836 -3.984 5.578 c -0.547 0.363 -1.016 0.656 -1.043 0.652 c -0.023 -0.004 -0.129 -0.039 -0.227 -0.074" fill="#fff"/></svg>