<svg xmlns="http://www.w3.org/2000/svg" viewBox="0 0 22 22"><path d="m 3.566 19.5 c -9.871 -7.844 2.773 -24.03 13.41 -18.297 c 10.02 5.406 3.703 21.844 -7.172 20.746 c -2.27 -0.23 -4.426 -1.01 -6.238 -2.449" fill="#ccfb13"/><path d="m 10.938 3.141 c -4.23 0 -7.656 3.508 -7.656 7.836 c 0 4.324 3.426 7.832 7.656 7.832 c 4.23 0 7.66 -3.508 7.66 -7.832 c 0 -4.328 -3.43 -7.836 -7.66 -7.836" fill="#a8e500"/><path d="m 9.605 7.91 v 6.809 l 4.996 -3.402 m -3.332 -1.363 c 0.813 0.004 1.332 0.738 1.332 1.363 c 0 1.02 -0.996 1.359 -1.332 1.359 v -0.68 c 1.117 -0.117 0.754 -1.66 -0.332 -1.363 v 2.043 h -0.664 v -2.191 c 0 -0.188 0.332 -0.531 0.996 -0.531" fill-opacity="0.102"/><path d="m 10.938 5.867 c 2.758 0 4.996 2.285 4.996 5.105 v 0.004 c 0 2.82 -2.238 5.105 -4.996 5.105 c -2.758 0 -4.996 -2.285 -4.996 -5.105 v -0.004 c 0 -2.82 2.238 -5.105 4.996 -5.105" fill="#fffced" fill-rule="evenodd"/><path d="m 9.273 7.57 v 6.809 l 4.996 -3.406 m -3.332 -1.359 c 0.809 0.004 1.332 0.738 1.332 1.359 c 0 1.023 -1 1.363 -1.332 1.363 v -0.68 c 1.117 -0.117 0.754 -1.66 -0.332 -1.363 v 2.043 h -0.668 v -2.191 c 0 -0.188 0.336 -0.531 1 -0.531" fill="#b8f800"/></svg>