
<svg xmlns="http://www.w3.org/2000/svg" xmlns:xlink="http://www.w3.org/1999/xlink" width="22px" height="22px" viewBox="0 0 22 22" version="1.1">
<g id="surface1">
<path style=" stroke:none;fill-rule:nonzero;fill:rgb(90.588235%,14.901961%,14.901961%);fill-opacity:1;" d="M 1.871094 4.632812 C -6.382812 15.921875 15.40625 29.945312 21.222656 16.394531 C 26.039062 5.523438 9.054688 -6.945312 1.871094 4.632812 "/>
<path style="fill-rule:nonzero;fill:rgb(100%,100%,100%);fill-opacity:1;stroke-width:1.812;stroke-linecap:butt;stroke-linejoin:miter;stroke:rgb(100%,100%,100%);stroke-opacity:1;stroke-miterlimit:4;" d="M 93.954545 919.678182 L 93.954545 875.450909 L 114.272727 876.178182 C 146.772727 877.36 154.272727 879.541818 164.863636 890.996364 C 172.272727 898.996364 175.318182 907.450909 175.318182 920.132727 C 175.318182 934.950909 170.136364 946.087273 159.545455 954.132727 C 150.181818 961.223636 143.409091 962.723636 117 963.36 L 93.954545 963.905455 Z M 135.590909 945.814545 C 147.045455 942.36 152.772727 934.132727 152.909091 920.905455 C 153.045455 911.723636 151.318182 906.223636 146.727273 900.996364 C 142 895.632727 136.045455 893.269091 125 892.450909 L 115.636364 891.723636 L 115.636364 947.36 L 123.045455 947.36 C 127.136364 947.36 132.772727 946.678182 135.590909 945.814545 Z M 135.590909 945.814545 " transform="matrix(0.0859375,0,0,0.0859375,0,-68.437188)"/>
</g>
</svg>
