<svg xmlns="http://www.w3.org/2000/svg" viewBox="0 0 22 22"><path d="m 3.754 3.762 c -11.16 9.01 5.18 25.277 15.06 14.887 c 9.898 -8.941 -5.551 -26.297 -15.06 -14.887" fill="#acd7e5"/><path d="m 827.12 434.54 c 0 197.29 -171.62 357.19 -383.11 357.19 c -211.49 0 -383.11 -159.91 -383.11 -357.19 c 0 -197.29 171.62 -357.19 383.11 -357.19 c 211.49 0 383.11 159.91 383.11 357.19" transform="matrix(0.01577 0 0 0.01505 3.824 5.05)" fill="#fff" fill-rule="evenodd" stroke="#000" stroke-linejoin="round" stroke-linecap="round" stroke-width="0.65"/><path d="m 210.01 120.01 c 0 49.717 -40.31 89.98 -90 89.98 c -49.685 0 -90 -40.26 -90 -89.98 c 0 -49.717 40.31 -90.04 90 -90.04 c 49.685 0 90 40.32 90 90.04" transform="matrix(0.06753 0 0 0.06443 2.989 3.409)" fill="none" stroke="#5b88c7" stroke-width="30"/><path d="m 13.18 11.848 c -0.145 -0.773 -0.836 -1.465 -1.227 -2.152 c -0.617 -1.094 -0.953 -2.02 -0.953 -2.02 c 0 0 -0.34 0.922 -0.957 2.02 c -0.387 0.688 -1.078 1.379 -1.227 2.152 c -0.637 3.328 5.01 3.367 4.363 0" fill="#f00"/><path d="m 13.18 11.848 c -0.145 -0.773 -0.836 -1.465 -1.227 -2.152 c -0.617 -1.094 -0.953 -2.02 -0.953 -2.02 c 0 0 -0.34 0.922 -0.957 2.02 c -0.387 0.688 -1.078 1.379 -1.227 2.152 c -0.637 3.328 5.01 3.367 4.363 0" fill="#e20000"/><path d="m 6.418 5.504 c 0 0.02 -0.016 0.035 -0.039 0.035 c -0.02 0 -0.035 -0.016 -0.035 -0.035 c 0 -0.02 0.016 -0.039 0.035 -0.039 c 0.023 0 0.039 0.02 0.039 0.039"/></svg>