<svg xmlns="http://www.w3.org/2000/svg" viewBox="0 0 22 22"><path d="m 2.145 4.535 c -10.996 16.539 24.07 26.727 19.43 5.348 c -1.98 -8.836 -14.387 -14.199 -19.43 -5.348"/><g fill="#8e8e8e" stroke="#8e8e8e"><path d="m 153 213.23 c -1.864 -2.636 -6.636 -12.955 -11.864 -25.18 c -5.273 -12.227 -10.682 -24.09 -11.227 -27.23 l -1.136 -6.5 l -2.364 0.409 c -14.864 2.591 -30.773 3 -40.636 0.955 c -11.364 -2.318 -21.955 -6.091 -27.27 -9.773 c -3.864 -2.636 -9.09 -11.5 -6.818 -11.5 c 0.409 0 0.591 0.318 0.364 0.636 c -0.818 1.318 6.227 7.318 11.636 9.909 c 17.364 8.364 37.23 9.955 60.23 4.727 c 2.318 -0.5 4.5 -0.727 4.909 -0.5 c 0.409 0.227 1.409 2 2.273 3.955 c 2.864 6.409 20.318 47.909 21.591 51.27 c 0.682 1.818 1.591 3.273 2 3.273 c 0.409 0 2.591 -2.455 4.818 -5.455 c 2.182 -3 7.773 -9.318 12.318 -14.05 c 4.591 -4.727 8.318 -9.09 8.273 -9.727 c 0 -1.455 -2.227 -6.409 -3.545 -7.864 c -1.409 -1.545 -3.182 -1.364 -8 0.773 c -6.273 2.818 -6.955 2.682 -7.864 -1.727 c -1.045 -4.955 -4.818 -14.318 -10.455 -25.773 c -3.591 -7.273 -4.591 -9.864 -4.091 -10.636 c 0.318 -0.545 2.136 -1.545 4 -2.273 c 8.591 -3.182 8.545 -2.773 2.182 -17.318 c -7.182 -16.409 -16.273 -35 -17.773 -36.36 c -2.409 -2.182 -13.409 -3 -22.273 -1.682 c -3.545 0.545 -6.727 1.818 -15.14 5.909 c -8.955 4.364 -11.818 6.136 -18.14 11.182 c -4.136 3.318 -8.364 7.273 -9.409 8.773 c -1.045 1.5 -3.182 4.227 -4.773 6.091 c -2.045 2.409 -4.182 6.318 -7.455 13.727 c -4.727 10.682 -5.636 12.318 -5.636 10.409 c 0 -4 4.409 -14.273 9.364 -21.864 c 3.727 -5.773 13.818 -16.909 19.455 -21.545 c 4.455 -3.727 13.773 -8.727 20.14 -10.818 l 4.136 -1.409 l 0.364 -2.955 c 0.409 -3.5 2.636 -9.227 5.05 -13.14 c 2.091 -3.273 2.636 -2.955 4.773 3.091 c 3.091 8.591 4.545 10.636 7.636 10.636 c 1.136 0 1.227 -0.318 0.955 -2.409 c -0.182 -1.318 -1.318 -4.682 -2.591 -7.545 c -2.591 -5.909 -2.727 -6.955 -1.045 -6.955 c 1.909 0 4.5 3.727 7.318 10.455 c 2.5 6 2.591 6.136 5 6.682 c 9.364 2.045 15.05 3.636 19.18 5.364 l 4.818 2 l 19.455 48.682 c 10.682 26.773 19.455 48.864 19.455 49.09 c 0 0.227 -3.318 2.727 -7.364 5.545 c -13.227 9.182 -15.5 11.318 -25.864 24.18 c -5.591 6.955 -7 8.05 -8.955 4.455 m -39.909 -140.82 c 0 -1.955 -1.545 -5.636 -2.364 -5.636 c -0.227 0 -1.045 1.591 -1.818 3.5 c -1.045 2.682 -1.136 3.409 -0.455 3.182 c 0.5 -0.227 0.909 -0.091 0.909 0.227 c 0 0.364 0.818 0.636 1.864 0.636 c 1.682 0 1.864 -0.227 1.864 -1.909" transform="scale(0.08594)" stroke-width="0.018"/><path d="m 146.66 401.61 c -6.237 -15.952 -11.378 -29.396 -11.515 -29.883 c -0.48 -2.577 13.845 -7.662 21.659 -7.662 c 11.1 0 23.24 6.687 29.06 16.02 c 8.225 13.165 6.648 29.12 -3.975 40.19 c -5.689 5.851 -14.873 10.379 -21.11 10.379 h -2.81" transform="matrix(0.05699 0 0 0.05608 7.528 -10.342)" stroke-width="0.022"/></g><path d="m 13.742 13.09 c -0.188 -0.508 -0.598 -1.34 -0.309 -1.469 c 0.113 -0.051 0.355 -0.113 0.543 -0.137 c 0.188 -0.023 0.719 -0.367 0.789 -0.402 c 0.387 -0.102 0.426 0.074 0.199 0.172 c -0.688 0.297 -1.375 0.797 -1.227 0.891 c 0.02 0.012 0.211 -0.086 0.422 -0.215 c 0.215 -0.133 0.559 -0.32 0.766 -0.422 c 0.375 -0.176 0.445 -0.25 0.313 -0.324 c -0.059 -0.035 -0.047 -0.055 0.07 -0.129 c 0.078 -0.051 0.227 -0.125 0.328 -0.164 c 0.18 -0.074 0.188 -0.074 0.242 0.004 c 0.09 0.125 0.07 0.148 -0.102 0.148 c -0.23 0.004 -0.352 0.086 -0.426 0.293 c -0.051 0.148 -0.055 0.211 -0.02 0.316 c 0.043 0.113 0.039 0.129 -0.031 0.129 c -0.047 0 -0.082 -0.031 -0.082 -0.07 c 0 -0.102 -0.094 0.074 -0.523 0.301 c -0.637 0.219 -0.727 0.656 -0.715 0.676 c 0.02 0.023 0.141 -0.027 0.289 -0.125 c 0.16 0.008 1.723 -1.172 1.375 -0.59 c -0.055 0.086 -0.086 0.195 -0.074 0.242 c 0.027 0.109 -0.047 0.156 -0.109 0.066 c -0.047 -0.066 -0.07 -0.066 -0.227 -0.008 c -0.391 0.141 -0.691 0.359 -0.691 0.504 c -0.176 0.133 -0.602 0.543 -0.375 0.559 c 0.027 0 0.176 -0.094 0.332 -0.211 c 0.277 -0.207 0.852 -0.512 1.195 -0.637 c 0.285 -0.113 0.156 0.035 0.121 0.238 c -0.027 0.152 -0.133 0.242 -0.133 0.117 c 0 -0.102 -0.051 0.027 -0.387 0.184 c -0.301 0.039 -1.133 0.848 -0.91 0.871 c 0.051 -0.004 0.262 -0.133 0.691 -0.422 c 0.191 -0.129 0.43 -0.195 0.602 -0.285 c 0.109 -0.035 0.555 -0.34 0.387 -0.063 c -0.047 0.078 0.09 0.344 -0.102 0.387 c -0.328 0.105 -0.227 -0.023 -1.164 0.48 c -0.055 0.047 -0.52 0.215 -0.578 0.215 c -0.195 -0.172 -0.414 -0.875 -0.48 -1.121 m 2.871 0.016 c 0 -0.035 -0.047 -0.164 -0.102 -0.293 c -0.141 -0.332 -0.645 -1.676 -0.594 -1.699 c 0.297 -0.16 0.707 1.289 0.773 1.445 c 0.336 0.598 0.063 0.984 -0.078 0.547" fill="#0b0b0b"/><g fill="#8e8e8e" stroke="#8e8e8e"><g transform="matrix(0.05699 0 0 0.05608 7.528 -10.342)"><path d="m 159.96 454.69 c -0.411 -1.532 33.1 -16.509 51.2 -37.34 c 9.39 -10.727 -12.406 -58.791 -4.935 -62.34 c 7.608 -3.553 12.269 52.38 12.748 60.53 c 0.137 2.299 -45.31 36.779 -50.31 39.01 c -8.499 3.692 -7.814 3.692 -8.705 0.139" stroke-width="0.043"/><path d="m 164.96 346.02 c -33.1 -12.19 -61.62 -24.589 -61.41 -34.759 c 0 -1.254 0.069 -1.602 1.165 -1.115 c 0.96 0.418 9.938 4.876 19.877 9.891 c 22.413 11.285 37.01 17.14 58.876 23.753 c 20.494 6.13 28.855 11.772 20.631 11.772 c -3.701 0.07 -23.646 -3.901 -39.14 -9.543" stroke-width="0.037"/></g><path d="m 52.41 132.09 c 3.818 -4.136 13.682 -8.136 35 -14.227 l 11.773 -3.409 l 4.818 1.818 c 8.136 3 11.909 4.864 12.636 6.273 c 0.409 0.773 0.636 1.455 0.545 1.591 c -0.136 0.136 -2.773 -0.909 -5.864 -2.273 c -3.091 -1.409 -7.409 -3.227 -9.636 -4.045 l -4 -1.545 l -6.05 3.455 c -4.455 2.545 -9.864 4.773 -20.727 8.455 c -8.091 2.727 -15.955 5.182 -17.5 5.409 l -2.818 0.409" transform="scale(0.08594)" stroke-width="0.018"/></g><g fill="#dcdcdc" stroke="#c0c0c0" transform="scale(0.08594)"><path d="m 152.68 202.73 c -1 -2.273 -6.273 -14.682 -11.682 -27.591 c -5.409 -12.864 -10.364 -24.14 -11.05 -25.05 c -1.136 -1.591 -1.636 -1.591 -10.136 0 c -5.727 1.045 -13.5 1.636 -21.773 1.591 c -11.09 -0.045 -14 -0.364 -21.273 -2.545 c -10.5 -3.182 -16.545 -6.227 -21.273 -10.682 l -3.682 -3.5 l 16.227 -5.455 c 8.909 -2.955 19.273 -7 23.09 -8.909 l 6.864 -3.545 l 9.636 3.909 c 5.318 2.136 9.818 3.727 10.05 3.5 c 1.227 -1.227 -3.5 -4.727 -10.182 -7.409 c -7.455 -3 -7.955 -3.091 -12.636 -1.909 c -8.636 2.182 -31.5 9.727 -35.27 11.636 c -2 1.045 -3.864 1.682 -4.136 1.409 c -1.045 -1.091 8.545 -18.773 13.318 -24.5 c 10.227 -12.318 31.909 -25.409 45.5 -27.5 c 7.136 -1.091 17.18 -0.136 19.636 1.864 c 2.727 2.227 22.318 44.32 22.318 47.955 c 0 0.955 -2.045 2.545 -5.273 4.045 c -2.955 1.409 -5.227 3.136 -5.227 3.955 c 0 0.773 2.545 7.091 5.636 13.955 c 3.136 6.864 6.636 15.364 7.773 18.909 c 2.364 7.182 3.364 7.682 9.773 5 c 5.227 -2.182 6.909 -1.818 8.636 1.818 c 0.864 1.773 1.545 3.727 1.545 4.318 c 0 0.818 -15.14 18.773 -22.955 27.14 c -1.591 1.727 -1.682 1.636 -3.455 -2.409" stroke-width="0.027"/><path d="m 190.59 166.64 c -3.273 -8.5 -4.091 -12.591 -2.864 -14.5 c 0.364 -0.591 1.136 0.727 2.409 3.864 l 1.818 4.727 h 2.818 c 3.818 0 10.227 -3.182 13.727 -6.818 c 4.182 -4.364 5.909 -8.591 5.864 -14.727 c -0.045 -8.773 -4.727 -16 -12.955 -19.955 c -5.136 -2.455 -13.227 -2.636 -19.273 -0.364 c -5.409 2 -5.591 2.227 -4.273 5.864 c 1.091 2.909 1.091 3 -0.318 4 c -0.773 0.545 -1.5 0.955 -1.591 0.864 c -0.455 -0.5 -15.864 -39.636 -15.636 -39.864 c 0.136 -0.136 1.955 0.773 4.091 2.045 c 4.955 2.909 16.727 8.091 27.455 12.136 c 8.591 3.182 24.909 7.682 28.18 7.682 c 2.591 0.045 3.091 0.636 3.273 4.045 c 0.136 1.682 1.273 7.727 2.591 13.455 c 3 13 3.545 18.5 2.091 21.318 c -2.136 4.136 -12.409 12.364 -24.05 19.227 c -3.136 1.818 -6.636 3.909 -7.818 4.636 l -2.091 1.273" stroke-width="0.019"/></g></svg>