<svg xmlns="http://www.w3.org/2000/svg" viewBox="0 0 22 22"><path d="m 0.254 13.449 c 1.367 8.945 13.48 11.336 18.828 4.953 c 4.711 -4.742 3.539 -13.816 -2.238 -16.93 c -6.633 -4.16 -16.301 0.984 -16.828 9.273 c -0.055 0.906 0.023 1.824 0.238 2.707" fill="#182340"/><path d="m 5.512 4.813 h 11.07 c 0.309 0 0.559 0.258 0.559 0.57 v 11.324 c 0 0.316 -0.25 0.57 -0.559 0.57 h -11.07 c -0.305 0 -0.555 -0.254 -0.555 -0.57 v -11.324 c 0 -0.313 0.25 -0.57 0.555 -0.57" fill="#3e3e3e"/><g fill="#ededed"><path d="m 5.789 5.664 h 0.277 v 10.762 h -0.277"/><path d="m 16.309 16.14 v 0.285 h -10.52 v -0.285"/><path d="m 5.789 5.664 h 0.828 v 0.285 h -0.828"/><path d="m 5.789 10.906 h 0.828 v 0.277 h -0.828"/><path d="m 11.184 15.578 v 0.848 h -0.273 v -0.848"/><path d="m 16.309 15.539 v 0.852 h -0.277 v -0.852"/></g><path d="m 16.03 5.949 c -5.523 0 -9.965 4.543 -9.965 10.191 h 0.551 c 0 -5.332 4.199 -9.629 9.414 -9.629" fill="#ed514e"/><path d="m 16.03 6.512 c -5.215 0 -9.414 4.297 -9.414 9.629 h 0.555 c 0 -5.02 3.953 -9.06 8.859 -9.06" fill="#9ccc62"/><path d="m 16.03 7.082 c -4.906 0 -8.859 4.04 -8.859 9.06 h 0.555 c 0 -4.703 3.703 -8.492 8.305 -8.492" fill="#5b68bf"/></svg>