<svg xmlns="http://www.w3.org/2000/svg" viewBox="0 0 22 22"><path d="m 2.293 5.137 c -7.258 8.188 4.191 20.781 13.773 15.688 c 9.688 -5.148 7.105 -22.19 -4.793 -20.738 c -3.539 0.434 -6.613 2.383 -8.98 5.05" fill="#cacadf"/><path d="m 12.645 5.918 l -7.699 8.258 c 0 0 0.84 0.141 1.938 0.305 l -1.031 1.531 h 5.887 c 2.719 0 6.34 0 6.34 -2.293 c 0 -2.297 -3.01 -5.352 -5.434 -7.801" fill-opacity="0.102"/><path d="m 12.191 5.457 c 2.426 2.453 5.438 5.508 5.438 7.801 c 0 2.293 -3.625 2.293 -6.344 2.293 h -5.887" fill="#8787f8"/><path d="m 12.191 5.457 l -7.699 8.262 c 0 0 0.84 0.141 1.938 0.301 l 5.762 -0.762" fill="#fa8484"/><path d="m 12.191 5.457 l -5.762 8.563 c 1.82 0.27 4.582 0.617 7.121 0.617 c 0.906 0 2.719 -0.301 2.719 -2.066 c 0 -1.605 -1.637 -3.578 -4.078 -7.113" fill="#8547c2"/></svg>