<svg xmlns="http://www.w3.org/2000/svg" viewBox="0 0 22 22"><path d="m 19.398 16.738 c 7.664 -11.07 -6.484 -22.297 -15.512 -13.273 c -8.504 8.504 -0.621 21.711 9.961 17.582 c 2.207 -0.859 4.145 -2.277 5.551 -4.309"/><g fill="#ff8c00" fill-rule="evenodd" stroke="#ff8c00"><path d="m 65.63 188.32 c 0 7.367 -3.632 13.304 -8.2 13.304 c -4.51 0 -8.2 -5.937 -8.2 -13.304 c 0 -7.367 3.69 -13.359 8.2 -13.359 c 4.569 0 8.2 5.992 8.2 13.359" transform="matrix(0.06669 0 0 0.07105 5.733 -8.334)"/><path d="m 65.66 188.3 c 0 7.367 -3.69 13.359 -8.2 13.359 c -4.569 0 -8.259 -5.992 -8.259 -13.359 c 0 -7.367 3.69 -13.304 8.259 -13.304 c 4.51 0 8.2 5.937 8.2 13.304" transform="matrix(0.06669 0 0 0.07105 8.172 -8.36)"/></g><path d="m 10.09 13.176 c -0.074 -0.074 -0.211 -0.207 -0.297 -0.289 c -0.152 -0.145 -0.16 -0.176 -0.16 -0.582 c 0 -0.293 0.031 -0.52 0.102 -0.703 c 0.113 -0.289 0.117 -0.238 -0.105 -0.891 c -0.074 -0.219 -0.066 -0.363 0.039 -0.613 c 0.078 -0.191 0.082 -0.246 0.016 -0.426 c -0.109 -0.309 -0.172 -0.348 -0.594 -0.348 c -0.289 0 -0.391 -0.02 -0.461 -0.09 c -0.051 -0.051 -0.09 -0.117 -0.09 -0.145 c 0 -0.031 -0.109 -0.141 -0.246 -0.25 c -0.133 -0.109 -0.414 -0.344 -0.625 -0.523 c -0.207 -0.184 -0.492 -0.422 -0.629 -0.531 c -0.137 -0.113 -0.25 -0.223 -0.25 -0.246 c 0 -0.027 -0.125 -0.156 -0.273 -0.293 c -0.219 -0.199 -0.305 -0.246 -0.461 -0.246 c -0.176 0 -0.363 -0.102 -0.363 -0.199 c 0 -0.023 -0.086 -0.09 -0.191 -0.145 c -0.176 -0.098 -0.191 -0.125 -0.191 -0.348 c 0 -0.141 0.039 -0.293 0.086 -0.355 c 0.078 -0.102 0.133 -0.113 0.57 -0.113 h 0.48 l 0.145 0.172 l 0.141 0.172 l 0.656 -0.016 c 0.82 -0.023 0.895 -0.039 0.852 -0.219 c -0.027 -0.109 0.004 -0.168 0.133 -0.285 c 0.094 -0.082 0.168 -0.195 0.168 -0.254 c 0 -0.133 0.16 -0.277 0.309 -0.277 c 0.063 0 0.156 0.047 0.211 0.102 c 0.133 0.137 0.059 0.352 -0.152 0.445 c -0.172 0.074 -0.184 0.121 -0.066 0.211 c 0.07 0.055 0.109 0.051 0.234 -0.035 c 0.113 -0.078 0.152 -0.152 0.164 -0.324 c 0.023 -0.266 0.137 -0.398 0.348 -0.398 c 0.199 0 0.344 0.195 0.301 0.402 c -0.043 0.203 0.059 0.246 0.203 0.09 c 0.109 -0.121 0.16 -0.129 0.734 -0.156 c 0.578 -0.023 0.621 -0.02 0.723 0.082 c 0.059 0.059 0.109 0.125 0.109 0.148 c 0 0.02 0.023 0.039 0.055 0.039 c 0.031 0 0.055 -0.109 0.055 -0.242 c 0 -0.285 0.066 -0.363 0.305 -0.363 c 0.199 0 0.258 0.051 0.348 0.309 c 0.055 0.16 0.102 0.199 0.344 0.281 c 0.234 0.078 0.289 0.121 0.344 0.266 l 0.063 0.176 l 1.406 -0.008 l 0.141 -0.16 c 0.137 -0.152 0.156 -0.156 0.578 -0.156 c 0.242 0 0.469 0.02 0.504 0.039 c 0.16 0.094 0.242 0.566 0.113 0.668 c -0.176 0.133 -0.523 0.328 -0.699 0.383 c -0.105 0.035 -0.215 0.102 -0.246 0.156 c -0.074 0.125 -0.563 0.574 -0.629 0.574 c -0.027 0 -0.09 0.051 -0.137 0.117 c -0.117 0.168 -0.477 0.516 -0.574 0.559 c -0.043 0.02 -0.242 0.117 -0.438 0.223 c -0.277 0.145 -0.367 0.223 -0.414 0.355 c -0.059 0.168 -0.465 0.512 -0.605 0.512 c -0.098 0 -0.746 0.203 -0.805 0.254 c -0.039 0.035 -0.004 0.078 0.207 0.242 c 0.078 0.059 0.129 0.52 0.094 0.844 c -0.004 0.055 -0.008 0.535 -0.008 1.07 c 0.004 0.848 -0.008 0.977 -0.086 1.035 c -0.051 0.035 -0.184 0.152 -0.293 0.254 c -0.195 0.188 -0.203 0.191 -0.625 0.191 c -0.391 0 -0.434 -0.012 -0.563 -0.141 m 0.219 -0.945 c 0.039 -0.098 -0.016 -0.234 -0.082 -0.199 c -0.063 0.035 -0.063 0.273 0 0.273 c 0.027 0 0.063 -0.031 0.082 -0.074 m 0.758 -1.121 c 0.141 -0.074 -0.016 -0.117 -0.422 -0.117 c -0.363 0 -0.465 0.016 -0.465 0.074 c 0 0.039 0.031 0.082 0.066 0.098 c 0.074 0.027 0.754 -0.016 0.82 -0.055 m -0.422 -1.406 c 0 -0.027 -0.105 -0.055 -0.234 -0.066 c -0.215 -0.012 -0.285 0.027 -0.191 0.113 c 0.059 0.051 0.426 0.016 0.426 -0.047 m 1.125 -0.742 c 0.004 -0.035 0.016 -0.398 0.023 -0.809 c 0.016 -0.621 0.008 -0.746 -0.059 -0.746 c -0.063 0 -0.078 0.082 -0.078 0.379 c 0 0.359 -0.008 0.379 -0.164 0.488 l -0.164 0.113 l 0.164 0.137 c 0.125 0.105 0.164 0.184 0.164 0.32 c 0 0.16 0.102 0.266 0.113 0.117 m 1.105 -1.031 c 0.051 -0.254 -0.082 -0.383 -0.148 -0.141 c -0.039 0.148 0.008 0.34 0.074 0.301 c 0.027 -0.016 0.059 -0.086 0.074 -0.16 m -4.309 -0.387 c 0 -0.629 -0.098 -0.668 -0.148 -0.063 c -0.043 0.492 -0.027 0.602 0.078 0.57 c 0.051 -0.016 0.07 -0.164 0.07 -0.512 m 4.293 -0.383 c 0 -0.027 -0.023 -0.063 -0.055 -0.078 c -0.031 -0.02 -0.055 0.004 -0.055 0.047 c 0 0.043 0.023 0.078 0.055 0.078 c 0.031 0 0.055 -0.02 0.055 -0.047 m -4.828 -0.723 c -0.012 -0.035 -0.055 -0.063 -0.094 -0.063 c -0.043 0 -0.086 0.027 -0.098 0.063 c -0.012 0.039 0.027 0.063 0.098 0.063 c 0.07 0 0.109 -0.023 0.094 -0.063" fill="#cfcfcf"/><path d="m 10.23 12.648 c -0.195 -0.227 -0.211 -0.262 -0.223 -0.551 c -0.031 -0.68 0.137 -0.992 0.535 -0.992 c 0.102 0 0.309 -0.023 0.453 -0.055 c 0.203 -0.039 0.27 -0.07 0.27 -0.133 c 0 -0.141 -0.109 -0.184 -0.516 -0.191 c -0.363 -0.008 -0.402 0 -0.477 0.098 c -0.047 0.059 -0.102 0.094 -0.129 0.078 c -0.023 -0.016 -0.082 -0.164 -0.129 -0.332 c -0.094 -0.348 -0.059 -0.539 0.141 -0.754 c 0.098 -0.102 0.133 -0.113 0.211 -0.07 c 0.055 0.027 0.176 0.043 0.273 0.035 c 0.152 -0.012 0.18 -0.031 0.191 -0.137 c 0.008 -0.09 -0.012 -0.133 -0.07 -0.148 c -0.27 -0.074 -0.34 -0.07 -0.504 0.016 l -0.172 0.094 l -0.121 -0.188 l -0.117 -0.188 h -0.332 c -0.266 0 -0.348 -0.02 -0.426 -0.094 c -0.051 -0.055 -0.094 -0.125 -0.094 -0.156 c 0 -0.035 -0.09 -0.133 -0.203 -0.219 c -0.109 -0.086 -0.336 -0.289 -0.508 -0.449 c -0.313 -0.301 -0.832 -0.813 -0.898 -0.883 c -0.02 -0.023 -0.074 -0.078 -0.125 -0.125 c -0.047 -0.047 -0.113 -0.121 -0.148 -0.16 c -0.031 -0.039 -0.133 -0.074 -0.219 -0.074 c -0.125 0 -0.207 -0.047 -0.398 -0.23 c -0.211 -0.199 -0.242 -0.25 -0.242 -0.41 c 0 -0.102 0.023 -0.211 0.055 -0.242 c 0.035 -0.031 0.203 -0.055 0.422 -0.055 c 0.359 0 0.363 0 0.492 0.168 l 0.133 0.172 l 0.313 -0.023 c 0.395 -0.027 0.523 0.016 0.523 0.176 c 0 0.063 0.016 0.121 0.035 0.125 c 0.02 0 0.191 0.012 0.379 0.02 c 0.371 0.016 0.453 -0.047 0.227 -0.168 c -0.145 -0.074 -0.152 -0.168 -0.023 -0.234 c 0.109 -0.059 0.117 -0.121 0.02 -0.219 c -0.039 -0.039 -0.059 -0.09 -0.043 -0.113 c 0.051 -0.082 0.191 -0.043 0.355 0.094 l 0.164 0.137 l 0.152 -0.145 c 0.121 -0.117 0.152 -0.188 0.152 -0.324 c 0 -0.168 0.125 -0.367 0.23 -0.367 c 0.113 0 0.195 0.133 0.207 0.352 c 0.016 0.281 0.125 0.336 0.277 0.145 c 0.086 -0.105 0.133 -0.121 0.344 -0.117 c 0.133 0.008 0.363 -0.008 0.516 -0.027 c 0.266 -0.035 0.27 -0.035 0.352 0.109 c 0.047 0.082 0.121 0.148 0.168 0.148 c 0.066 0 0.082 -0.043 0.082 -0.23 c 0 -0.492 0.336 -0.52 0.477 -0.043 c 0.07 0.242 0.078 0.25 0.25 0.258 c 0.23 0.008 0.324 0.09 0.305 0.27 c -0.008 0.102 -0.043 0.148 -0.109 0.16 c -0.051 0.012 -0.121 0.039 -0.156 0.07 c -0.051 0.039 -0.051 0.059 0.016 0.109 c 0.098 0.07 0.211 0.035 0.316 -0.094 c 0.07 -0.09 0.133 -0.102 0.66 -0.105 c 0.641 -0.004 0.707 -0.02 0.82 -0.188 c 0.066 -0.102 0.105 -0.113 0.402 -0.113 c 0.395 0 0.52 0.086 0.52 0.352 c 0 0.129 -0.023 0.176 -0.133 0.23 c -0.074 0.039 -0.16 0.102 -0.191 0.141 c -0.035 0.039 -0.164 0.105 -0.293 0.145 c -0.145 0.047 -0.238 0.109 -0.258 0.168 c -0.043 0.129 -0.402 0.492 -0.531 0.531 c -0.055 0.02 -0.113 0.07 -0.129 0.113 c -0.07 0.219 -0.715 0.711 -0.93 0.711 c -0.109 0 -0.141 0.039 -0.234 0.262 c -0.125 0.293 -0.34 0.484 -0.605 0.539 c -0.094 0.02 -0.277 0.078 -0.406 0.125 c -0.281 0.105 -0.328 0.219 -0.145 0.363 c 0.117 0.09 0.129 0.133 0.148 0.523 c 0.02 0.328 0.008 0.473 -0.051 0.605 c -0.063 0.152 -0.066 0.191 -0.008 0.254 c 0.051 0.059 0.063 0.215 0.055 0.664 l -0.016 0.594 l -0.219 0.219 l -0.219 0.215 h -0.684 m 0.09 -0.777 c 0.055 -0.141 0.027 -0.336 -0.063 -0.445 c -0.047 -0.063 -0.102 -0.102 -0.117 -0.086 c -0.043 0.043 -0.09 0.453 -0.059 0.535 c 0.035 0.094 0.203 0.094 0.238 -0.004 m 1.309 -3.172 c 0.004 -0.059 0.012 -0.383 0.016 -0.719 c 0.008 -0.34 0.027 -0.637 0.047 -0.668 c 0.047 -0.074 -0.102 -0.199 -0.195 -0.164 c -0.133 0.047 -0.152 0.113 -0.148 0.449 c 0.008 0.309 0 0.324 -0.152 0.453 l -0.16 0.133 l 0.156 0.133 c 0.109 0.094 0.152 0.172 0.152 0.277 c 0 0.176 0.027 0.211 0.172 0.211 c 0.082 0 0.113 -0.027 0.113 -0.105 m 0.898 -0.766 c 0.063 -0.164 0.059 -0.414 -0.012 -0.563 c -0.043 -0.094 -0.043 -0.145 0 -0.211 c 0.031 -0.051 0.059 -0.133 0.059 -0.188 c 0 -0.074 -0.031 -0.094 -0.148 -0.094 c -0.145 0 -0.148 0.004 -0.117 0.176 c 0.031 0.199 0.031 0.168 -0.004 0.566 c -0.012 0.16 -0.012 0.324 0 0.363 c 0.043 0.109 0.172 0.078 0.223 -0.051 m -3.723 -0.012 c 0.016 -0.02 0.039 -0.273 0.059 -0.559 c 0.031 -0.488 0.027 -0.523 -0.063 -0.57 c -0.18 -0.094 -0.234 0.02 -0.262 0.531 c -0.016 0.262 -0.008 0.5 0.02 0.551 c 0.043 0.086 0.203 0.117 0.246 0.047 m 1.875 -1.113 c 0 -0.16 -0.027 -0.324 -0.063 -0.371 c -0.055 -0.078 -0.063 -0.078 -0.125 -0.004 c -0.082 0.098 -0.078 0.582 0.004 0.734 c 0.055 0.102 0.059 0.102 0.121 0.016 c 0.035 -0.051 0.063 -0.207 0.063 -0.375 m 0.617 -0.801 c 0 -0.09 -0.219 -0.086 -0.254 0.004 c -0.035 0.09 0.113 0.176 0.191 0.109 c 0.035 -0.027 0.063 -0.078 0.063 -0.113 m -2.406 -0.438 c -0.035 -0.02 -0.055 -0.098 -0.047 -0.172 c 0.016 -0.117 0.035 -0.137 0.156 -0.137 c 0.117 0 0.148 0.023 0.16 0.113 c 0.012 0.07 -0.016 0.141 -0.066 0.176 c -0.102 0.074 -0.117 0.074 -0.203 0.02" fill="#7f7f7f"/><path d="m 11.383 13.12 c -0.02 -0.016 -0.16 -0.047 -0.313 -0.066 l -0.277 -0.035 l -0.027 -0.328 c -0.02 -0.223 -0.07 -0.375 -0.156 -0.484 c -0.188 -0.234 -0.168 -0.27 0.152 -0.234 c 0.195 0.02 0.332 0.004 0.461 -0.055 c 0.137 -0.063 0.215 -0.07 0.297 -0.027 c 0.102 0.047 0.105 0.086 0.066 0.352 c -0.027 0.168 -0.043 0.438 -0.039 0.605 c 0.004 0.207 -0.016 0.305 -0.063 0.305 c -0.039 0 -0.086 -0.016 -0.102 -0.031 m 0.012 -2.02 c -0.129 -0.098 -0.133 -0.109 -0.039 -0.145 c 0.125 -0.047 0.23 0.039 0.203 0.16 c -0.02 0.086 -0.031 0.082 -0.164 -0.016 m -0.227 -1.082 c 0 -0.18 0.039 -0.262 0.109 -0.223 c 0.055 0.031 0 0.398 -0.059 0.398 c -0.031 0 -0.051 -0.078 -0.051 -0.176 m 0.246 -0.461 c 0.098 -0.242 -0.051 -0.332 -0.512 -0.301 c -0.41 0.031 -0.516 -0.012 -0.566 -0.23 c -0.078 -0.324 -0.383 -0.215 -0.449 0.164 c -0.039 0.234 -0.164 0.297 -0.402 0.211 c -0.086 -0.027 -0.215 -0.039 -0.289 -0.023 c -0.199 0.047 -0.23 -0.066 -0.039 -0.156 c 0.281 -0.137 0.352 -0.395 0.344 -1.285 c -0.004 -0.59 0.016 -0.836 0.086 -1.016 c 0.125 -0.324 0.117 -0.395 -0.055 -0.5 c -0.145 -0.086 -0.145 -0.09 -0.043 -0.23 c 0.055 -0.078 0.113 -0.25 0.133 -0.379 c 0.02 -0.164 0.055 -0.238 0.117 -0.238 c 0.059 0 0.086 0.063 0.09 0.215 c 0.008 0.273 0.039 0.324 0.285 0.418 c 0.234 0.09 0.25 0.207 0.039 0.328 c -0.086 0.051 -0.168 0.098 -0.18 0.105 c -0.012 0.004 0.012 0.168 0.051 0.355 c 0.051 0.254 0.051 0.387 0.008 0.508 c -0.051 0.129 -0.043 0.207 0.02 0.352 c 0.047 0.102 0.086 0.262 0.086 0.352 c 0 0.125 0.047 0.199 0.188 0.305 c 0.266 0.195 0.414 0.227 0.621 0.129 c 0.191 -0.086 0.277 -0.07 0.277 0.055 c 0 0.047 0.078 0.156 0.176 0.242 c 0.141 0.129 0.172 0.199 0.156 0.348 c -0.012 0.141 0.012 0.199 0.098 0.242 c 0.063 0.035 0.129 0.066 0.141 0.074 c 0.059 0.035 -0.148 0.117 -0.293 0.117 c -0.145 0 -0.148 -0.004 -0.086 -0.164 m 1.031 -0.125 c -0.051 -0.121 0.094 -0.363 0.227 -0.387 c 0.152 -0.027 0.121 0.215 -0.047 0.359 c -0.129 0.113 -0.145 0.113 -0.18 0.027 m -4.01 -0.617 c -0.066 -0.031 -0.137 -0.09 -0.156 -0.129 c -0.035 -0.09 0.176 -0.098 0.398 -0.02 c 0.129 0.043 0.141 0.066 0.082 0.133 c -0.078 0.09 -0.148 0.094 -0.324 0.016 m 2.957 -0.559 c 0.004 -0.105 0.094 -0.262 0.137 -0.223 c 0.031 0.031 0.051 0.156 0.043 0.25 c -0.012 0.102 -0.18 0.078 -0.18 -0.027 m 2.688 -0.277 c 0 -0.027 0.027 -0.051 0.059 -0.051 c 0.031 0 0.059 0.023 0.059 0.051 c 0 0.031 -0.027 0.055 -0.059 0.055 c -0.031 0 -0.059 -0.023 -0.059 -0.055 m 0.52 -0.383 c 0 -0.035 0.063 -0.137 0.141 -0.223 c 0.105 -0.117 0.156 -0.141 0.207 -0.098 c 0.047 0.047 0.035 0.102 -0.063 0.223 c -0.125 0.164 -0.289 0.223 -0.285 0.098 m -2.941 -0.48 c 0.023 -0.152 0.012 -0.27 -0.027 -0.316 c -0.082 -0.086 -0.027 -0.141 0.141 -0.141 c 0.141 0 0.367 0.227 0.367 0.367 c 0 0.145 -0.133 0.266 -0.332 0.301 l -0.184 0.031 m 1.371 -0.383 c 0 -0.027 0.051 -0.051 0.117 -0.051 c 0.063 0 0.113 0.023 0.113 0.051 c 0 0.031 -0.051 0.055 -0.113 0.055 c -0.066 0 -0.117 -0.023 -0.117 -0.055 m -6.891 -0.047 c -0.016 -0.027 -0.008 -0.063 0.02 -0.082 c 0.07 -0.035 0.234 0.02 0.234 0.082 c 0 0.063 -0.211 0.063 -0.254 0 m 9.219 0.016 c -0.066 -0.063 -0.043 -0.113 0.07 -0.141 c 0.105 -0.023 0.285 0.039 0.23 0.086 c -0.059 0.051 -0.266 0.086 -0.301 0.055 m -3.355 -0.574 c 0 -0.047 0.043 -0.098 0.098 -0.117 c 0.152 -0.051 0.184 -0.125 0.188 -0.43 c 0 -0.238 0.016 -0.277 0.098 -0.262 c 0.078 0.012 0.105 0.078 0.121 0.27 c 0.016 0.234 0 0.27 -0.199 0.438 c -0.234 0.199 -0.305 0.223 -0.305 0.102 m 1.055 -0.078 c -0.02 -0.031 -0.008 -0.055 0.027 -0.055 c 0.031 0 0.059 0.023 0.059 0.055 c 0 0.027 -0.008 0.051 -0.023 0.051 c -0.016 0 -0.043 -0.023 -0.063 -0.051 m -1.645 -0.301 c -0.063 -0.055 0.016 -0.121 0.133 -0.121 c 0.063 0 0.113 0.035 0.113 0.078 c 0 0.078 -0.176 0.109 -0.246 0.043" fill="#232222"/><g fill="#ffd600" fill-rule="evenodd" stroke="#ffd600"><path d="m 65.66 188.32 c 0 7.37 -3.702 13.333 -8.226 13.333 c -4.524 0 -8.195 -5.963 -8.195 -13.333 c 0 -7.37 3.67 -13.333 8.195 -13.333 c 4.524 0 8.226 5.963 8.226 13.333" transform="matrix(0.12346 0 0 0.09434 0.48 -1.719)"/><path d="m 65.64 188.3 c 0 7.361 -3.658 13.341 -8.209 13.341 c -4.519 0 -8.209 -5.98 -8.209 -13.341 c 0 -7.361 3.689 -13.341 8.209 -13.341 c 4.55 0 8.209 5.98 8.209 13.341" transform="matrix(0.12706 0 0 0.10189 7.153 -3.245)"/></g></svg>