<svg xmlns="http://www.w3.org/2000/svg" viewBox="0 0 22 22"><path d="m 0.078 11.254 c 0.133 -2.27 1.16 -4.926 2.629 -6.777 c 1.785 -2.25 4.559 -3.895 7.32 -4.34 c 3.645 -0.527 7.617 1.598 9.531 3.996 c 0.934 1.203 1.688 2.801 2.035 4.297 c 0.902 3.891 -0.574 7.953 -3.902 10.738 c -1.996 1.668 -4.02 2.531 -6.441 2.742 c -2.898 0.254 -6.03 -0.895 -8.172 -2.992 c -2.023 -2.383 -3.145 -4.832 -3 -7.664" fill="#696969"/><path d="m 10.98 5.04 c -2.871 -0.156 -5.215 2.266 -5.387 5.469 l -1.684 -0.094 l 2.707 4.754 l 2.707 -4.453 l -1.926 -0.105 c 0.164 -2.078 1.703 -3.621 3.582 -3.516 c 0.695 0.035 1.352 0.297 1.902 0.715 l 0.926 -1.695 c -0.82 -0.621 -1.793 -1.016 -2.828 -1.074 m 4.27 2.01 l -2.707 4.453 l 1.926 0.105 c -0.168 2.078 -1.707 3.621 -3.586 3.516 c -0.695 -0.039 -1.352 -0.297 -1.902 -0.715 l -0.926 1.695 c 0.824 0.621 1.793 1.016 2.828 1.07 c 2.871 0.16 5.215 -2.262 5.391 -5.465 l 1.68 0.094" fill="#a9a9a9"/><path d="m 11.457 10.375 h 5.176 c 0.645 0 1.168 0.438 1.168 0.973 c 0 0.539 -0.523 0.973 -1.168 0.973 h -5.176 c -0.645 0 -1.168 -0.434 -1.168 -0.973 c 0 -0.535 0.523 -0.973 1.168 -0.973"/><path d="m 10.586 10.508 l 3.777 -5.969 c 0.344 -0.547 0.93 -0.793 1.305 -0.555 c 0.375 0.238 0.402 0.871 0.059 1.418 l -3.777 5.969 c -0.348 0.547 -0.93 0.793 -1.309 0.555 c -0.375 -0.238 -0.402 -0.871 -0.055 -1.418"/><path d="m 144.34 132.7 c 0 10.199 -8.123 18.458 -18.14 18.458 c -10.02 0 -18.14 -8.259 -18.09 -18.458 c -0.05 -10.199 8.07 -18.458 18.09 -18.458 c 10.02 0 18.14 8.259 18.14 18.458" transform="matrix(0.07838 0 0 0.07852 1.065 0.874)" fill="#a9a9a9" stroke="#000" stroke-width="8"/></svg>