<svg xmlns="http://www.w3.org/2000/svg" viewBox="0 0 22 22"><path d="m 2.102 16.883 c -11.969 -21.664 31.758 -22.688 16.707 -0.352 c -3.973 5.742 -13.484 8.547 -16.707 0.352" fill="#ff8c00"/><g fill="#ffdeac" stroke="#ffdeac"><path d="m 4.13 0.277 v -0.629 l 0.61 -0.397 c 2.884 -1.884 6.537 -2.471 9.987 -1.614 c 1.262 0.315 2.784 0.977 3.761 1.639 l 0.502 0.335 l 0.043 1.292 h -1.349 l -0.493 -0.323 c -3.398 -2.235 -7.907 -2.219 -11.284 0.046 c -0.415 0.277 -0.419 0.277 -1.098 0.277 h -0.679 v -0.629" transform="matrix(0.90351 0 0 0.9436 0.48 8.532)" stroke-width="0.144"/><path d="m 64.733 128.91 v -7.05 l 3.372 -2.133 c 9.02 -5.704 20.897 -10.666 32.818 -13.68 c 9.499 -2.411 31.916 -3.01 42.507 -1.159 c 12.871 2.226 26.17 7.281 37.948 14.329 l 4.512 2.736 v 14.05 h -8.549 c -8.264 0 -8.691 -0.093 -15.15 -3.107 c -24.27 -11.361 -51.25 -11.222 -74.8 0.464 c -5.03 2.504 -5.699 2.643 -13.963 2.643 h -8.691" transform="matrix(0.08225 0 0 0.08424 0.567 0.974)" stroke-width="1.592"/></g><path d="m 12.551 3.676 c -0.988 0.273 -1.82 1.262 -1.82 1.262 l 0.027 0.031 l 1.906 8.68 c -1.133 -0.668 -3.086 -1.016 -4.426 0.039 c -1.73 1.363 -2.32 1.934 -1.316 3.43 c 1 1.496 3.211 1.602 4.941 0.238 c 1.363 -1.074 2.121 -2.766 1.848 -4.156 c -0.008 -0.043 -0.02 -0.086 -0.031 -0.129 l -1.52 -6.41 c 0.035 -0.055 0.48 -0.277 1.914 -0.383 c 1.52 -0.113 2.547 -2.766 2.547 -2.766 c 0 0 -1.703 0.715 -3.051 0.195 c -0.336 -0.129 -0.691 -0.121 -1.02 -0.031" fill="#fff"/></svg>