<svg xmlns="http://www.w3.org/2000/svg" viewBox="0 0 22 22"><path d="m 2.184 17.465 c -10.754 -23.555 23.523 -20.637 19.43 -5.344 c -1.98 8.836 -14.387 14.195 -19.43 5.344" fill="#2f4e4e"/><path d="m 12.656 9.465 c -0.137 1.016 -0.66 2.578 -1.758 3.816 c 0.012 0.043 0.594 0.445 0.594 0.445 c 1.395 -1.68 1.645 -2.949 1.867 -4.07 c 0 0 -0.406 -0.234 -0.703 -0.191" fill="#95a4a5"/><path d="m 8.422 9.105 c -0.77 -4.359 4.152 -5.367 4.395 -0.363 l 0.699 0.172 c 0.156 -2.547 -1.453 -4.383 -3.199 -4.289 c -1.547 0.082 -3.16 1.91 -2.578 4.801" fill="#bcc2c7"/><path d="m 10.457 13.859 c -3.148 2.477 -6.563 -0.52 -2.516 -3.699 l -0.211 -0.773 c -2.93 1.754 -2.813 4.285 -1.563 5.539 c 1.113 1.109 3.484 0.887 4.875 -0.621" fill="#7f8c8d"/><path d="m 11.348 8.582 c -2.27 -0.039 -3.617 0.805 -3.617 0.805 c 0.016 0.07 -0.004 0.598 1.062 2.543 c 0.977 1.504 2.352 2.773 4.051 3.117 c 1.699 0.344 3.547 -0.625 3.645 -2.414 c 0.102 -1.789 -1.254 -2.777 -1.551 -3 c -0.293 -0.223 -1.316 -1.01 -3.59 -1.051 m -0.434 0.777 c 0.543 -0.012 1.191 0.027 1.957 0.145 c 3.395 1.02 3.102 3.445 2.516 4.078 c -0.531 0.574 -1.801 1.262 -3.758 0.199 c -1.957 -1.063 -2.988 -3.934 -2.988 -3.934 c 0 0 0.656 -0.457 2.277 -0.492" fill="#eceff1"/></svg>