<svg xmlns="http://www.w3.org/2000/svg" viewBox="0 0 22 22"><path d="m 4.805 20.316 c 8.895 5.965 21.363 -6.621 15.766 -15.605 c -4.129 -7.699 -15.953 -5.152 -19.14 2.113 c -2.516 4.496 -1.484 11.03 3.371 13.492" fill="#1020d6"/><g fill="#ff8c00" stroke="#ff8c00" transform="scale(0.08594)"><path d="m 53.45 183.59 c -5.091 -0.727 -9.773 -6.364 -12.05 -14.636 c -2.136 -7.682 -2.864 -22 -1.364 -27.455 c 0.636 -2.364 1.455 -1.773 1.682 1.182 c 0.318 5.318 3.273 21.409 4.364 23.773 c 3.864 8.591 8.773 11.727 12.364 7.864 c 1.955 -2.045 2.091 -4.045 0.455 -6.318 c -1.864 -2.682 -4.727 -7.909 -5.864 -10.909 c -1.5 -3.773 -2.636 -11.409 -2.091 -13.818 c 1.182 -4.864 4.682 -3.227 8.091 3.818 c 0.909 1.864 1.636 4.818 2.682 11.05 c 1.591 9.273 1.545 9.136 5.136 11.09 c 1.727 0.909 2.364 1.045 4 0.818 c 3.636 -0.636 4.773 -3.5 3.727 -9.591 c -0.727 -4.227 -2.682 -9.273 -5.364 -13.591 c -1.955 -3.227 -3.136 -4.318 -7 -6.5 c -4.455 -2.545 -5.818 -6.227 -2.5 -6.818 c 5.955 -1 13.682 10.273 16.818 24.545 c 1.909 8.864 1.455 14.773 -1.364 17.773 c -2.864 3 -6.864 2.455 -10.955 -1.455 l -2.091 -2 l -0.455 2.955 c -0.227 1.636 -0.773 3.682 -1.227 4.591 c -1.273 2.591 -4.045 4.045 -7 3.636 m 4.591 -32.27 c -1.636 -4.636 -2.364 -5.818 -3.636 -5.955 c -1.455 -0.136 -1.727 0.955 -0.909 3.727 c 0.864 2.955 5.182 12.182 6.364 13.455 c 1.182 1.318 -0.045 -6.364 -1.818 -11.227" stroke-width="1.372"/><path d="m 96 166.45 c -8.318 -0.591 -14.455 -10.909 -9.09 -15.364 c 1.091 -0.909 1.545 -1.091 2.727 -1.182 c 1.773 -0.091 2.455 0.136 3.955 1.364 c 1.545 1.273 2.227 3.045 1.5 3.909 c -0.773 1 -1.773 0.636 -3.727 -1.273 c -1.727 -1.682 -2.545 -2 -3.455 -1.273 c -1.227 0.955 0.818 6.273 3.273 8.545 c 1.455 1.364 4.182 2.727 6.05 3.045 c 3.182 0.5 6.591 -0.682 8.182 -2.864 c 0.955 -1.273 1.545 -4.045 1.227 -5.864 c -0.773 -4.591 -3.955 -8.864 -12.682 -17.05 c -4.545 -4.273 -7 -6.864 -7.773 -8.136 c -1.5 -2.591 -2 -5.818 -1.136 -7.636 c 1.727 -3.909 7.091 -5.727 10.591 -3.591 c 1.091 0.636 1.182 0.636 1.091 0.045 c -0.318 -1.818 2.182 -4.045 5.091 -4.5 c 1.773 -0.318 2.682 -0.091 6.364 1.5 c 1.818 0.773 3.591 1.318 4.045 1.227 c 1.591 -0.227 2.409 -1.273 2.682 -3.318 c 0.455 -3.182 2.409 -5.318 3.955 -4.318 c 1.364 0.909 1 3.227 -0.864 5.227 c -1.136 1.273 -1.273 0.636 2.636 10.818 c 6.5 16.727 7.864 26.5 4.318 30.909 c -1.045 1.227 -3.5 2.727 -5.05 2.955 c -2.682 0.455 -5.409 -1.364 -5.591 -3.682 c -0.091 -1.636 0.773 -2.364 2.091 -1.727 c 0.5 0.227 1.455 1.045 2.136 1.864 c 1.545 1.818 2.682 1.909 4.364 0.273 c 1.045 -1 1.045 -1.136 0.682 -4.091 c -0.227 -2 -1.136 -5.273 -2.5 -9.409 c -3.045 -9 -4.136 -13.05 -5.227 -19.5 l -0.955 -5.636 l -1.136 0.909 c -1.545 1.227 -3.636 1.955 -5.727 1.909 c -1.227 -0.045 -2.455 -0.409 -4.636 -1.455 c -4.227 -2.091 -5.727 -1.636 -5.182 1.5 c 0.273 1.636 1.227 2.5 2.636 2.273 c 1.409 -0.227 2.818 0.364 3.364 1.409 c 0.636 1.273 0.5 2.091 -0.409 2.591 c -0.636 0.364 -1 0.364 -2.091 -0.091 c -0.682 -0.318 -1.682 -1.045 -2.227 -1.636 c -0.545 -0.636 -1.091 -0.955 -1.409 -0.864 c -0.273 0.136 -0.727 0.364 -1 0.5 c -0.955 0.409 -2.591 -1 -3.273 -2.864 c -0.318 -0.955 -0.864 -1.864 -1.182 -2.045 c -0.818 -0.455 -2.773 -0.045 -3.636 0.773 c -0.955 0.909 -1.091 1.864 -0.5 3.909 c 0.818 2.773 3.091 5.545 8.682 10.455 c 8.091 7.091 10.455 9.955 12.227 14.909 c 1.136 3.045 1.182 5.409 0.318 8.455 c -1.545 5.091 -7.318 8.545 -13.727 8.091" stroke-width="1.514"/><path d="m 149.45 145.77 c -0.182 -0.455 -2.545 -9.318 -5.273 -19.773 c -2.682 -10.409 -5.05 -19 -5.136 -19.09 c -0.455 -0.273 -6.455 1.773 -7.818 2.636 c -2.318 1.545 -2.727 2.773 -2.136 6.409 c 0.455 2.5 0.773 3.409 1.5 4.091 l 0.909 0.909 l 0.864 -0.955 c 1 -1.136 1.864 -1.091 2.909 0.182 c 0.818 0.955 1.182 1.955 1.409 3.727 c 0.136 1.455 -1.364 2.364 -2.909 1.773 c -2.409 -0.909 -5.591 -6.318 -6.318 -10.727 c -0.636 -3.727 -0.136 -6.273 1.727 -8.591 c 2.182 -2.727 5.136 -3.955 13.682 -5.818 c 3.727 -0.818 7.136 -1.727 7.636 -2 c 1.182 -0.682 0.864 -2.364 -0.864 -4.182 c -1.636 -1.773 -1.864 -3.409 -0.5 -3.818 c 2.409 -0.682 4.909 6.409 3.682 10.364 c -0.727 2.273 -1.864 3.091 -5.727 4.091 c -2.818 0.682 -2.909 0.773 -2.773 1.682 c 0.091 0.545 2.273 8.864 4.818 18.545 c 2.727 10.273 4.591 18.05 4.545 18.682 c -0.273 1.909 -3.545 3.364 -4.227 1.864" stroke-width="1.524"/><path d="m 156.55 119.73 c 1.545 -0.682 10.727 -5.5 13.182 -5.909 c 1.182 -0.182 1.864 3 1.455 3.5 c -0.273 0.364 -12.227 5.682 -13.09 5.818 c -2 -0.636 -2.409 -1.545 -1.545 -3.409" stroke-width="1.862"/><path d="m 189.64 127.23 c -3.364 -0.818 -7.545 -4.727 -10.09 -9.364 c -1.091 -2 -1.591 -3.409 -2.136 -6.591 c -0.636 -3.636 -0.636 -4.273 0 -5.864 c 0.864 -2.227 2.636 -3.5 4.318 -3.045 c 1.409 0.364 2.636 1.636 3.273 3.409 c 0.409 1.136 0.364 1.545 -0.273 2.182 c -0.682 0.727 -0.773 0.727 -2.273 0.091 c -2 -0.818 -3.091 -0.636 -3.545 0.545 c -1.364 3.909 1.955 10.545 6.364 12.864 c 4.955 2.545 9.818 0.636 12.05 -4.727 c 1.727 -4.182 2.864 -11.364 2.773 -17.682 v -2.955 l -4.591 -6.864 c -2.545 -3.773 -4.955 -7.182 -5.409 -7.591 c -0.409 -0.409 -1.182 -0.636 -1.727 -0.545 c -1.091 0.182 -2 -0.273 -2.136 -1.091 c -0.182 -0.864 1.5 -2.909 3.182 -4 c 2.409 -1.5 2.682 -1.273 7.636 6.591 c 1.864 2.909 3.409 5.227 3.5 5.182 c 0.045 -0.091 0.136 -1.636 0.136 -3.455 c 0.182 -7.318 1.591 -13.455 3.455 -15.182 c 1.273 -1.136 3.318 -1.409 4.591 -0.636 c 2.545 1.591 3.273 4.955 1.091 5.318 c -0.318 0.045 -1.182 -0.227 -1.955 -0.591 c -1.273 -0.591 -1.5 -0.591 -2.182 -0.045 c -2.182 1.682 -3.182 5.364 -3.455 12.455 l -0.136 4.909 l 4.591 6.773 c 2.5 3.727 5.409 7.682 6.364 8.818 c 1.591 1.818 1.955 2.045 2.955 1.864 c 1.318 -0.182 2.227 0.227 2.364 1.091 c 0.182 0.864 -1.5 2.909 -3.227 4 l -1.5 0.955 l -1.091 -0.591 c -1.318 -0.727 -2.545 -2.318 -7.136 -9.318 c -2 -3.045 -3.682 -5.273 -3.727 -4.955 c -0.091 0.273 -0.136 2.864 -0.136 5.773 c -0.045 14.318 -2.864 21.591 -8.727 22.455 c -0.864 0.136 -2.273 0.045 -3.182 -0.182" stroke-width="1.545"/></g></svg>