<svg xmlns="http://www.w3.org/2000/svg" viewBox="0 0 22 22"><path d="m 3.852 3.191 c -17.344 22.891 30.387 26.14 15.07 2.777 c -3.492 -5.328 -10.477 -8.84 -15.07 -2.777" fill="#3397d0"/><path d="m 124.36 254.95 c -23.909 -2 -49.545 -10.136 -70.36 -22.364 c -15.364 -8.955 -34.18 -28.318 -41.455 -42.5 c -6.318 -12.409 -9.318 -23.09 -10.545 -37.409 l -0.864 -10.136 h 124.86 c 117.68 0 124.91 0.136 125.82 2.318 c 0.5 1.318 1.227 8.727 1.636 16.545 c 1.364 27 -5.05 44.5 -22.773 62.18 c -13.955 14 -29.23 22.23 -52.09 28.05 c -6.591 1.682 -37.682 5.227 -40.27 4.591 c -0.364 -0.091 -6.636 -0.682 -13.955 -1.273" transform="scale(0.08594)" fill="#2d86b8" stroke="#2d86b8" stroke-width="2.668"/><g transform="matrix(0.08594 0 0 0.08594 -22.13 19.86)"><path d="m 426.4 12.317 c -0.773 -0.5 -6.455 -20.364 -9.09 -25 c -6.273 -10.864 -14.5 -22.864 -25.818 -28.455 c -6 -2.818 -15.05 -5.455 -20.364 -5.909 c -9.182 -0.818 -23.318 1.364 -31.773 4.909 c -7.818 3.227 -19.864 12.5 -29.18 22.455 c -9 11.409 -12.5 2.818 -22.09 -5.727 l 2.364 -5 c 8.909 -18.773 26.727 -45.545 35.455 -68.14 c 7.909 -20.409 13.318 -37.14 19.273 -59.14 c 5.409 -19.955 12.364 -58.773 11.05 -61.41 c -0.591 -1.273 -0.545 -1.591 0.455 -1.955 c 22.818 -1.591 39.27 0.955 59.09 10.273 l 0.455 10.364 c 0.682 16.364 4.818 60.32 9.455 100.05 c 2.273 19.682 8.909 54.18 14.545 76.09 c 1.364 5.273 1.864 11.909 2.818 15.14 l 4.909 16.864 c -9.636 4.727 -20.773 4.318 -21.545 4.591 m -25.773 -111.23 c 1.545 -1.682 1.591 -1.864 1.136 -9.455 c -0.727 -12.05 -2.955 -35.14 -3.773 -38.682 c -0.773 -3.5 -2.409 -5.091 -5.136 -5.091 c -4.273 0 -5.091 1.818 -6.409 14.409 c -2.273 21.773 -5.136 37.5 -3.545 39.909 c 0.818 1.227 7.05 1.091 11.818 0.864 c 2.5 -0.182 4.682 -0.682 5.909 -1.955" fill="#fff" stroke="#fff" stroke-width="1.28"/><g fill="#292f30" stroke="#292f30" stroke-width="2.166"><path d="m 343.04 -0.502 c 0.318 -4.909 -5 -18.227 -6.909 -27.409 c -0.955 -4.455 -1.136 -7.636 -0.5 -8.818 c 2.955 -5.5 23.09 -10.545 36.14 -9 c 12.182 1.409 24.455 6.818 24.455 10.818 c 0 0.909 -1.909 4.182 -4.227 7.318 c -5.909 7.864 -8.182 14.182 -9.545 20.364 c -5.136 23.636 -7.818 19.409 -24.318 16.591 c -18.636 -3.182 -13.273 -2.5 -15.09 -9.864"/><path d="m 468.77 -9.365 c -3.364 -12.636 -8.773 -19.455 -16.409 -29.14 c -3.045 -3.818 -5.591 -7.773 -5.591 -8.818 c 0 -3.818 6.182 -4.455 11.864 -2.5 c 5.682 1.909 9.273 1.227 15.909 8.818 c 4.318 4.955 9.409 11.773 11.955 14.545 c 7.05 7.682 5 8.773 -3.409 16.182 c -3.818 3.364 -13.5 9.773 -14.318 0.909"/></g></g></svg>