<svg xmlns="http://www.w3.org/2000/svg" xmlns:xlink="http://www.w3.org/1999/xlink" viewBox="0 0 22 22"><defs><g id="4" clip-path="url(#3)"><path d="m 3.233 23.422 c 3.382 -10.53 11.09 -17.241 20.397 -20.347 l 8.376 9.424 l -4.346 11.619 c -1.822 1.089 -2.716 1.91 -3.522 3.427 c -1.998 -4.248 -4.311 -6.461 -8.604 -7.621 c -4.241 -1.142 -8.569 -0.071 -12.301 3.498" transform="matrix(0.22292 0 0 0.21886 3.963 4.237)" fill="url(#2)" fill-rule="evenodd" stroke="#545653" stroke-width="0.8"/></g><g id="8" clip-path="url(#7)"><path d="m 40.26 1.569 c 10.549 3.302 17.313 10.941 20.502 20.222 l -9.375 8.46 l -11.635 -4.248 c -1.121 -1.821 -1.928 -2.695 -3.452 -3.498 c 4.223 -2.035 6.413 -4.355 7.552 -8.674 c 1.104 -4.248 0 -8.567 -3.592 -12.262" transform="matrix(0.22292 0 0 0.21886 4 4.606)" fill="url(#6)" fill-rule="evenodd" stroke="#545653" stroke-width="0.8"/></g><g id="C" clip-path="url(#B)"><path d="m 60.731 38.532 c -3.189 10.584 -10.759 17.438 -19.994 20.722 l -8.551 -9.281 l 4.1 -11.69 c 1.822 -1.124 2.699 -1.963 3.47 -3.48 c 2.085 4.212 4.433 6.372 8.761 7.443 c 4.258 1.071 8.551 -0.071 12.213 -3.712" transform="matrix(0.22292 0 0 0.21886 4 4.606)" fill="url(#A)" fill-rule="evenodd" stroke="#545653" stroke-width="0.8"/></g><g id="G" clip-path="url(#F)"><path d="m 23.81 59.34 c -10.601 -3.123 -17.488 -10.673 -20.8 -19.901 l 9.217 -8.603 l 11.723 4.069 c 1.139 1.803 1.963 2.677 3.505 3.463 c -4.205 2.088 -6.361 4.444 -7.43 8.781 c -1.034 4.248 0.123 8.549 3.785 12.19" transform="matrix(0.22292 0 0 0.21886 4 4.606)" fill="url(#E)" fill-rule="evenodd" stroke="#545653" stroke-width="0.8"/></g><clipPath id="B"><path d="M 0,0 H22 V22 H0 z"/></clipPath><clipPath id="3"><path d="M 0,0 H22 V22 H0 z"/></clipPath><clipPath id="7"><path d="M 0,0 H22 V22 H0 z"/></clipPath><clipPath id="F"><path d="M 0,0 H22 V22 H0 z"/></clipPath><filter id="0" filterUnits="objectBoundingBox" x="0" y="0" width="22" height="22"><feColorMatrix type="matrix" in="SourceGraphic" values="0 0 0 0 1 0 0 0 0 1 0 0 0 0 1 0 0 0 1 0"/></filter><linearGradient id="E" gradientUnits="userSpaceOnUse" x1="18.871" y1="59.46" x2="13.516" y2="38.12"><stop stop-color="#fbe84e"/><stop offset="1" stop-color="#ededec"/></linearGradient><linearGradient id="A" gradientUnits="userSpaceOnUse" x1="60.822" y1="43.47" x2="39.449" y2="48.729"><stop stop-color="#89e234"/><stop offset="1" stop-color="#ededec"/></linearGradient><linearGradient id="6" gradientUnits="userSpaceOnUse" x1="45.2" y1="1.532" x2="50.23" y2="22.96"><stop stop-color="#719ecf"/><stop offset="1" stop-color="#ededec"/></linearGradient><linearGradient id="2" gradientUnits="userSpaceOnUse" x1="3.238" y1="18.477" x2="24.704" y2="13.613"><stop stop-color="#ac7fa8"/><stop offset="1" stop-color="#ededec"/></linearGradient><mask id="9"><g filter="url(#0)"><path fill-opacity="0.902" d="M 0,0 H22 V22 H0 z"/></g></mask><mask id="D"><g filter="url(#0)"><path fill-opacity="0.902" d="M 0,0 H22 V22 H0 z"/></g></mask><mask id="1"><g filter="url(#0)"><path fill-opacity="0.902" d="M 0,0 H22 V22 H0 z"/></g></mask><mask id="5"><g filter="url(#0)"><path fill-opacity="0.902" d="M 0,0 H22 V22 H0 z"/></g></mask></defs><path d="m 18.246 3.84 c 11.164 8.973 -5.18 25.17 -15.06 14.824 c -9.898 -8.906 5.551 -26.19 15.06 -14.824" fill="#e0e340"/><g fill="#3464a3"><path d="m 8.309 6.941 c 0.008 -1.492 1.25 -2.695 2.781 -2.691 c 1.527 0.004 2.766 1.211 2.766 2.703 c 0 1.492 -1.238 2.699 -2.766 2.703 c -1.531 0.004 -2.773 -1.199 -2.781 -2.691"/><path d="m 8.332 6.965 c 0.008 -1.492 1.25 -2.695 2.777 -2.691 c 1.527 0.004 2.766 1.215 2.766 2.703 c 0 1.492 -1.238 2.699 -2.766 2.703 c -1.527 0.004 -2.77 -1.199 -2.777 -2.691"/></g><g fill="#754f7a"><path d="m 3.965 11.207 c 0.004 -1.488 1.25 -2.695 2.777 -2.691 c 1.527 0.004 2.766 1.215 2.766 2.707 c 0 1.488 -1.238 2.699 -2.766 2.703 c -1.527 0.004 -2.773 -1.199 -2.777 -2.691"/><path d="m 3.984 11.23 c 0.008 -1.488 1.25 -2.691 2.777 -2.691 c 1.531 0.004 2.766 1.215 2.766 2.707 c 0 1.488 -1.234 2.699 -2.766 2.703 c -1.527 0.004 -2.77 -1.199 -2.777 -2.691"/></g><g fill="#72d116"><path d="m 12.656 11.207 c 0.008 -1.488 1.25 -2.695 2.781 -2.691 c 1.527 0.004 2.766 1.215 2.766 2.707 c 0 1.488 -1.238 2.699 -2.766 2.703 c -1.531 0.004 -2.773 -1.199 -2.781 -2.691"/><path d="m 12.68 11.23 c 0.008 -1.488 1.25 -2.691 2.777 -2.691 c 1.527 0.004 2.766 1.215 2.766 2.707 c 0 1.488 -1.238 2.699 -2.766 2.703 c -1.527 0.004 -2.77 -1.199 -2.777 -2.691"/></g><g fill="#c39f00"><path d="m 8.309 15.477 c 0.008 -1.492 1.25 -2.695 2.781 -2.691 c 1.527 0.004 2.766 1.211 2.766 2.703 c 0 1.492 -1.238 2.699 -2.766 2.703 c -1.531 0.004 -2.773 -1.199 -2.781 -2.691"/><path d="m 8.332 15.5 c 0.008 -1.492 1.25 -2.695 2.777 -2.691 c 1.527 0.004 2.766 1.215 2.766 2.703 c 0 1.492 -1.238 2.703 -2.766 2.703 c -1.527 0.004 -2.77 -1.199 -2.777 -2.688"/></g><use xlink:href="#4" mask="url(#1)"/><use xlink:href="#8" mask="url(#5)"/><use xlink:href="#C" mask="url(#9)"/><use xlink:href="#G" mask="url(#D)"/></svg>