<svg xmlns="http://www.w3.org/2000/svg" viewBox="0 0 22 22"><path d="m 18.02 19.605 c -13.195 10.188 -26.895 -15.188 -10.555 -18.898 c 10.285 -3.805 20.336 11.344 10.555 18.898" fill="#7f0000"/><g fill="#fff"><path d="m 17.555 12.703 c -0.59 -0.293 -0.93 -1.117 -0.871 -2.121 c 0.047 -0.746 0.297 -1.277 0.746 -1.574 c 0.914 -0.605 1.813 0.203 1.813 1.633 c 0 0.578 0 0.578 -1 0.578 c -0.934 0 -0.918 -0.008 -0.777 0.324 c 0.121 0.293 0.305 0.395 0.699 0.395 c 0.238 0 0.402 -0.031 0.543 -0.102 c 0.262 -0.133 0.305 -0.133 0.434 0.031 c 0.223 0.285 0.078 0.664 -0.328 0.848 c -0.305 0.141 -0.957 0.133 -1.254 -0.012 m 0.996 -2.449 c -0.066 -0.289 -0.148 -0.434 -0.289 -0.504 c -0.305 -0.156 -0.617 -0.035 -0.77 0.301 c -0.16 0.348 -0.168 0.344 0.496 0.344 h 0.598"/><path d="m 3.242 12.723 c -0.785 -0.387 -1.137 -1.691 -0.773 -2.863 c 0.09 -0.289 0.164 -0.406 0.402 -0.648 c 0.414 -0.426 0.805 -0.52 1.246 -0.297 c 0.473 0.238 0.77 0.879 0.77 1.652 c 0 0.66 0.012 0.652 -0.977 0.652 c -0.484 0 -0.832 0.02 -0.848 0.051 c -0.063 0.098 0.164 0.504 0.324 0.586 c 0.227 0.117 0.734 0.105 0.984 -0.02 c 0.254 -0.129 0.285 -0.129 0.414 0 c 0.07 0.07 0.102 0.172 0.102 0.324 c 0 0.242 -0.129 0.41 -0.449 0.57 c -0.23 0.117 -0.953 0.109 -1.195 -0.008 m 0.977 -2.418 c -0.004 -0.156 -0.191 -0.516 -0.301 -0.574 c -0.348 -0.188 -0.738 0.055 -0.852 0.523 l -0.035 0.141 h 0.594 c 0.531 0 0.594 -0.012 0.594 -0.09"/><path d="m 5.688 12.699 c -0.066 -0.098 -0.078 -0.313 -0.078 -1.297 c 0 -1.336 0.039 -1.594 0.336 -1.996 c 0.32 -0.445 0.871 -0.59 1.363 -0.359 c 0.273 0.129 0.344 0.184 0.52 0.422 c 0.258 0.34 0.301 0.625 0.301 1.938 c 0 1.133 -0.008 1.207 -0.102 1.305 c -0.137 0.133 -0.32 0.129 -0.445 -0.008 c -0.086 -0.098 -0.098 -0.219 -0.121 -1.324 c -0.02 -0.852 -0.047 -1.25 -0.094 -1.332 c -0.141 -0.25 -0.594 -0.352 -0.828 -0.188 c -0.23 0.164 -0.262 0.344 -0.262 1.555 c 0 1.063 -0.008 1.137 -0.109 1.262 c -0.133 0.176 -0.367 0.184 -0.48 0.023"/><path d="m 9.602 14.328 c -0.43 -0.117 -0.711 -0.484 -0.617 -0.809 c 0.063 -0.211 0.285 -0.352 0.418 -0.258 c 0.332 0.242 0.41 0.27 0.688 0.27 c 0.402 0 0.5 -0.086 0.559 -0.512 c 0.027 -0.184 0.043 -0.34 0.031 -0.348 c -0.008 -0.008 -0.098 0.02 -0.199 0.063 c -0.102 0.043 -0.301 0.078 -0.441 0.078 c -0.344 0 -0.691 -0.234 -0.922 -0.617 c -0.23 -0.387 -0.273 -0.559 -0.305 -1.184 c -0.043 -0.871 0.133 -1.438 0.563 -1.836 c 0.277 -0.254 0.531 -0.344 0.883 -0.316 c 0.465 0.039 0.805 0.363 0.996 0.941 c 0.066 0.207 0.09 0.531 0.105 1.598 c 0.02 1.43 -0.023 1.922 -0.207 2.355 c -0.242 0.563 -0.813 0.777 -1.551 0.574 m 0.73 -2.418 c 0.305 -0.121 0.344 -0.242 0.344 -1.047 c 0 -0.805 -0.063 -0.992 -0.359 -1.117 c -0.328 -0.137 -0.648 0.086 -0.781 0.539 c -0.176 0.605 -0.004 1.441 0.332 1.625 c 0.18 0.098 0.223 0.098 0.465 0"/><path d="m 12.215 12.703 c -0.09 -0.102 -0.098 -0.219 -0.113 -1.785 c -0.012 -1.527 -0.004 -1.699 0.078 -1.863 c 0.078 -0.152 0.117 -0.18 0.27 -0.18 c 0.156 0 0.195 0.027 0.273 0.18 c 0.082 0.164 0.09 0.34 0.078 1.863 c -0.016 1.566 -0.023 1.684 -0.113 1.785 c -0.125 0.141 -0.348 0.141 -0.473 0"/><path d="m 12.289 8.08 c -0.258 -0.152 -0.207 -0.746 0.074 -0.844 c 0.188 -0.066 0.297 0.004 0.391 0.242 c 0.148 0.395 -0.152 0.785 -0.465 0.602"/><path d="m 13.555 12.652 c -0.07 -0.137 -0.078 -0.34 -0.066 -1.402 c 0.016 -1.164 0.023 -1.258 0.137 -1.496 c 0.176 -0.387 0.359 -0.598 0.617 -0.711 c 0.707 -0.313 1.531 0.145 1.703 0.941 c 0.031 0.145 0.055 0.781 0.055 1.43 c 0 1.293 -0.02 1.398 -0.301 1.398 c -0.289 0 -0.305 -0.066 -0.324 -1.363 c -0.016 -1 -0.031 -1.207 -0.109 -1.352 c -0.105 -0.191 -0.324 -0.32 -0.551 -0.32 c -0.234 0 -0.355 0.086 -0.465 0.324 c -0.086 0.191 -0.098 0.348 -0.102 1.352 c 0 1.121 0 1.137 -0.117 1.246 c -0.18 0.168 -0.375 0.148 -0.477 -0.047"/><path d="m 6.945 20.73 c -0.711 -0.383 -1.949 -1.25 -1.883 -1.32 c 0.031 -0.031 16.773 -6.176 16.789 -6.164 c 0.02 0.016 -0.176 0.922 -0.262 1.219 l -0.086 0.293 l -6.969 3.117 c -3.832 1.715 -6.996 3.117 -7.03 3.117 c -0.039 0 -0.289 -0.117 -0.559 -0.262"/></g></svg>