<svg xmlns="http://www.w3.org/2000/svg" viewBox="0 0 22 22"><path d="m 0.344 9.234 c 4.293 -20.664 33.848 -0.613 16.09 10.863 c -6.895 4.871 -18.305 -0.234 -16.09 -10.863" fill="#ffeff4"/><g transform="matrix(0.09102 0 0 0.09635 -0.993 -1.462)"><g fill="#e0161b" stroke="#e0161b"><path d="m 43.14 169.11 c -5.279 -5.838 -9.441 -29.879 -7.768 -45.12 c 1.631 -14.635 6.909 -30.365 9.999 -29.798 c 1.974 0.365 1.717 4.541 -0.815 13.46 c -4.635 16.05 -4.506 35.35 0.3 51.24 c 1.287 4.338 2.275 8.595 2.146 9.487 c -0.343 2.068 -2.317 2.432 -3.862 0.73" stroke-width="1.507"/><g stroke-width="1.468"><path d="m 54.602 158.08 c -3.605 -6.851 -4.678 -34.3 -1.717 -44.879 c 1.631 -5.919 3.905 -9.08 5.407 -7.581 c 0.687 0.689 0.601 2.96 -0.386 10.257 c -1.502 11.433 -1.545 23.11 -0.086 32.798 c 1.502 10.09 1.459 10.703 -0.73 10.703 c -0.987 0 -2.103 -0.568 -2.489 -1.297"/><path d="m 207.38 159.17 c -0.515 -0.608 -0.343 -3.243 0.601 -8.23 c 1.76 -9.649 1.802 -25.379 0.086 -34.866 c -1.416 -7.743 -1.373 -9.203 0.386 -9.892 c 1.802 -0.689 2.918 0.932 4.635 6.933 c 4.163 14.554 1.674 46.987 -3.605 46.987 c -0.772 0 -1.717 -0.405 -2.103 -0.932"/></g><path d="m 219.31 169.96 c -0.257 -0.608 1.073 -6.122 2.961 -12.284 c 3.347 -10.825 3.476 -11.554 3.433 -24 c 0 -11.433 -0.257 -13.703 -2.489 -21.244 c -4.678 -15.73 -4.764 -16.14 -3.347 -16.825 c 3.219 -1.622 6.01 2.392 10.214 14.635 c 1.674 4.824 1.888 7.581 1.974 22.338 c 0.043 17.433 -0.343 20.15 -4.206 29.92 c -2.661 6.649 -7.081 10.5 -8.54 7.46" stroke-width="1.627"/></g><path d="m 126.53 167.69 c -8.154 -2.23 -14.634 -6.933 -19.441 -14.07 c -1.845 -2.716 -3.605 -4.743 -3.991 -4.541 c -0.343 0.243 -1.888 3 -3.39 6.203 c -2.489 5.149 -3.047 5.838 -5.236 6.406 c -1.373 0.365 -3.519 0.486 -4.807 0.243 c -2.146 -0.405 -2.661 -1.014 -5.536 -6.649 c -3.39 -6.689 -10.471 -23.11 -14.935 -34.703 c -1.974 -5.068 -2.532 -7.338 -2.02 -7.865 c 0.429 -0.405 2.789 -0.892 5.236 -1.014 c 4.12 -0.284 4.549 -0.162 5.922 1.541 c 0.815 0.973 2.446 4.176 3.691 7.135 c 5.879 14.03 8.54 19.987 9.356 21.08 c 0.73 0.973 1.717 -0.892 6.738 -12.973 c 3.219 -7.743 6.223 -14.595 6.695 -15.244 c 0.515 -0.649 2.875 -1.5 5.751 -2.027 c 2.661 -0.486 7.596 -2.027 10.943 -3.365 c 10.643 -4.378 20.13 -4.135 30.17 0.77 l 5.279 2.595 l 20.857 0.324 c 11.501 0.203 21.07 0.527 21.286 0.77 c 0.815 2.96 0.901 5.311 1.245 8.554 l -13.09 14.433 c -7.167 7.946 -13.09 14.676 -13.09 14.96 c 7.253 1.135 13.819 0.122 21.672 1.014 l 3.691 0.405 c 0 3.081 0 6.162 0 9.243 l -42.23 0.973 l -6.695 3.162 c -8.54 3.568 -15.278 4.865 -24.12 2.635 m 20.728 -6.446 c 6.137 -3.081 9.699 -6.446 12.36 -11.676 c 5.236 -10.09 4.163 -17.514 0.257 -25.14 c -2.317 -4.419 -7.853 -9.933 -12.188 -12.12 c -6.609 -3.284 -17.724 -3.284 -24.462 0 c -4.03 1.987 -9.484 7.338 -12.06 11.838 c -5.364 10.09 -3.905 16.784 -0.172 24.649 c 2.146 4.541 7.725 10.216 12.02 12.243 c 7.21 3.405 17.595 3.487 24.25 0.203 m 32.959 -34.825 c 1.073 -1.378 1.717 -2.716 1.459 -3 c -0.644 -0.608 -13.561 -0.608 -14.205 0.041 c -0.558 0.527 0.901 9.406 1.974 12.203 c 3.648 1.378 7.381 -4.946 10.772 -9.203" fill="#1f120c" stroke="#1f120c" stroke-width="1.392"/></g></svg>