<svg xmlns="http://www.w3.org/2000/svg" viewBox="0 0 22 22"><path d="m 8.715 21.68 c -11.336 -1.699 -11.676 -18.598 -0.656 -21.15 c 8.918 -2.629 16.207 6.891 13.285 14.01 c -1.379 4.766 -7.03 8.617 -12.629 7.141" fill="#b0c3de"/><g fill="#016fb9"><path d="m 9.254 5.691 c 0 0.109 0 0.203 0 0.285 c 0 0.359 -0.043 0.637 -0.129 0.836 c -0.086 0.199 -0.207 0.355 -0.363 0.461 c -0.121 0.082 -0.273 0.148 -0.461 0.199 c -0.188 0.051 -0.363 0.074 -0.535 0.074 v 6.06 c 0.332 -0.191 0.609 -0.457 0.832 -0.793 c 0.16 -0.25 0.328 -0.605 0.504 -1.066 l 0.055 0.039 c -0.086 0.895 -0.324 1.645 -0.715 2.246 c -0.391 0.602 -0.859 0.902 -1.41 0.902 c -0.766 0 -1.402 -0.359 -1.91 -1.074 c -0.504 -0.715 -0.758 -1.609 -0.758 -2.684 c 0 -0.754 0.129 -1.512 0.391 -2.273 c 0.289 -0.84 0.66 -1.461 1.113 -1.871 c -0.098 -0.031 -0.176 -0.047 -0.234 -0.055 c -0.063 -0.008 -0.152 -0.008 -0.273 -0.008 c -0.039 0 -0.07 0 -0.098 0 c -0.16 0 -0.371 0.121 -0.633 0.367 c -0.266 0.25 -0.457 0.531 -0.582 0.848 h -0.047 c -0.031 -0.242 0.023 -0.57 0.16 -0.992 c 0.336 -1.035 0.891 -1.555 1.664 -1.555 c 0.219 0 0.691 0.121 1.426 0.363 c 0.734 0.242 1.145 0.363 1.223 0.363 c 0.184 0 0.32 -0.039 0.418 -0.125 c 0.117 -0.105 0.215 -0.309 0.297 -0.602 m -2.996 5.883 v -4.375 l -0.113 -0.051 c -0.301 0.301 -0.531 0.754 -0.688 1.367 c -0.137 0.527 -0.203 1.078 -0.203 1.656 c 0 0.813 0.113 1.5 0.34 2.07 c 0.074 0.184 0.188 0.387 0.34 0.613 c 0.035 -0.051 0.063 -0.09 0.082 -0.125 c 0.063 -0.109 0.102 -0.215 0.125 -0.313 c 0.023 -0.102 0.039 -0.184 0.051 -0.254 c 0.043 -0.23 0.066 -0.43 0.066 -0.59 m 1.363 2.121 v -6.098 l -0.516 -0.188 v 2.684 c 0 0.453 -0.027 0.836 -0.074 1.148 c -0.051 0.316 -0.145 0.59 -0.273 0.824 c -0.105 0.191 -0.23 0.387 -0.379 0.59 c -0.105 0.141 -0.207 0.285 -0.309 0.426 c 0.109 0.125 0.227 0.234 0.348 0.324 c 0.121 0.094 0.25 0.164 0.383 0.215 c 0.051 0.016 0.125 0.035 0.219 0.051 c 0.09 0.016 0.195 0.023 0.305 0.023 c 0.066 0 0.125 0 0.176 0 c 0.047 0 0.09 0 0.121 0"/><path d="m 8.266 8.191 h -0.129 v -0.184 l 0.734 -0.09 v 0.754 c 0.098 -0.484 0.234 -0.723 0.402 -0.723 h 0.031 c 0.117 0 0.203 0.121 0.258 0.363 c 0.039 0.164 0.059 0.355 0.059 0.566 c 0 0.172 -0.02 0.332 -0.059 0.477 c -0.055 0.195 -0.133 0.293 -0.238 0.293 c -0.195 -0.055 -0.293 -0.34 -0.293 -0.848 l 0.02 -0.336 c -0.004 -0.016 -0.012 -0.023 -0.016 -0.031 l -0.008 -0.016 c -0.039 0 -0.074 0.152 -0.105 0.453 c -0.016 0.121 -0.023 0.332 -0.023 0.625 v 1.875 h 0.184 v 0.172 h -0.945 v -0.172 h 0.129"/><path d="m 9.863 8.195 h -0.129 v -0.188 c 0.121 0 0.262 -0.012 0.422 -0.039 l 0.344 -0.051 v 3.453 h 0.141 v 0.172 h -0.906 v -0.172 h 0.129 m -0.023 -4.52 c 0 -0.453 0.113 -0.68 0.348 -0.68 c 0.223 0 0.332 0.246 0.332 0.734 c 0 0.188 -0.023 0.344 -0.066 0.48 c -0.055 0.176 -0.141 0.262 -0.254 0.262 c -0.246 0 -0.367 -0.242 -0.367 -0.727"/><path d="m 11.477 8.449 c 0.102 -0.359 0.223 -0.539 0.359 -0.539 c 0.023 0 0.043 0.004 0.051 0.008 c 0.176 0.035 0.309 0.293 0.395 0.781 c 0.059 0.332 0.086 0.684 0.086 1.051 c 0 0.91 -0.105 1.5 -0.324 1.777 c -0.027 0.043 -0.059 0.07 -0.086 0.086 c -0.039 0.027 -0.086 0.039 -0.137 0.039 c -0.18 0 -0.305 -0.23 -0.375 -0.688 v 0.688 c -0.113 -0.027 -0.285 -0.063 -0.516 -0.102 c -0.063 -0.004 -0.129 -0.008 -0.199 -0.008 v -0.172 h 0.137 v -4.832 h -0.137 v -0.168 c 0.156 0 0.406 -0.043 0.746 -0.125 m 0.238 2.668 c 0 -0.363 -0.035 -0.547 -0.098 -0.547 c -0.094 0 -0.141 0.242 -0.141 0.73 v 1.328 c 0 0.523 0.047 0.785 0.137 0.785 c 0.051 0 0.082 -0.125 0.094 -0.371 c 0.004 -0.109 0.008 -0.25 0.008 -0.43"/><path d="m 12.621 8.195 h -0.129 v -0.188 c 0.176 0 0.43 -0.031 0.754 -0.09 v 2.812 c 0 0.203 0.008 0.32 0.023 0.355 c 0.008 0.039 0.031 0.059 0.07 0.059 c 0.051 0 0.09 -0.078 0.117 -0.23 c 0.023 -0.148 0.035 -0.328 0.035 -0.535 v -2.184 h -0.141 v -0.188 c 0.086 0 0.211 -0.012 0.379 -0.039 c 0.164 -0.023 0.289 -0.035 0.375 -0.035 v 3.437 h 0.145 v 0.172 c -0.141 0 -0.27 0.012 -0.391 0.039 l -0.344 0.07 v -0.703 c -0.121 0.469 -0.277 0.703 -0.469 0.703 c -0.031 0 -0.051 -0.004 -0.066 -0.008 c -0.129 -0.02 -0.223 -0.156 -0.277 -0.406 c -0.055 -0.254 -0.082 -0.574 -0.082 -0.969"/><path d="m 14.5 11.371 v -3.176 h -0.129 v -0.188 c 0.074 0 0.16 -0.008 0.258 -0.023 c 0.23 -0.035 0.395 -0.051 0.496 -0.051 v 0.691 c 0.105 -0.473 0.254 -0.707 0.441 -0.707 c 0.039 0 0.07 0.004 0.09 0.008 c 0.027 0.012 0.059 0.031 0.094 0.059 c 0.156 0.129 0.234 0.551 0.234 1.266 v 2.121 h 0.141 v 0.172 h -0.84 v -0.172 h 0.086 v -2.492 c 0 -0.285 -0.027 -0.43 -0.086 -0.43 h -0.012 c -0.047 0 -0.082 0.066 -0.105 0.199 c -0.027 0.168 -0.043 0.324 -0.043 0.469 v 2.254 h 0.094 v 0.172 h -0.848 v -0.172"/></g><g fill="#b9201f"><path d="m 9.832 16.309 v -3.172 h -0.129 v -0.191 c 0.074 0 0.16 -0.004 0.258 -0.02 c 0.23 -0.035 0.398 -0.055 0.496 -0.055 v 0.695 c 0.105 -0.473 0.254 -0.707 0.445 -0.707 c 0.039 0 0.066 0 0.09 0.008 c 0.023 0.012 0.055 0.031 0.09 0.059 c 0.156 0.129 0.234 0.551 0.234 1.266 v 2.117 h 0.141 v 0.176 h -0.84 v -0.176 h 0.086 v -2.492 c 0 -0.285 -0.027 -0.426 -0.086 -0.426 h -0.012 c -0.043 0 -0.082 0.066 -0.105 0.199 c -0.027 0.168 -0.043 0.324 -0.043 0.469 v 2.25 h 0.098 v 0.176 h -0.852 v -0.176"/><path d="m 12.422 14.875 c 0 0.352 0.004 0.578 0.012 0.684 c 0.02 0.328 0.07 0.535 0.148 0.621 l 0.117 0.059 c 0.184 0 0.34 -0.258 0.473 -0.773 l 0.047 0.098 c -0.105 0.355 -0.191 0.586 -0.262 0.691 c -0.109 0.16 -0.238 0.238 -0.391 0.238 c -0.258 0 -0.453 -0.168 -0.59 -0.5 c -0.133 -0.336 -0.199 -0.766 -0.199 -1.297 c 0 -0.441 0.047 -0.832 0.141 -1.168 c 0.133 -0.465 0.328 -0.699 0.594 -0.699 c 0.215 0 0.391 0.188 0.527 0.563 c 0.137 0.375 0.207 0.871 0.207 1.484 m -0.824 -1.293 v 1.121 h 0.223 v -1.137 c 0 -0.207 -0.004 -0.34 -0.012 -0.391 c -0.016 -0.121 -0.051 -0.184 -0.105 -0.184 c -0.07 0 -0.105 0.195 -0.105 0.59"/><path d="m 14.363 13.05 h -0.086 l 0.324 2.426 l 0.113 -0.91 l -0.191 -1.516 h -0.109 v -0.191 h 0.875 v 0.191 h -0.145 l 0.305 2.352 l 0.223 -1.711 c 0.016 -0.133 0.023 -0.27 0.023 -0.406 c 0 -0.156 -0.027 -0.234 -0.082 -0.234 h -0.031 v -0.191 h 0.395 v 0.191 c -0.078 0 -0.141 0.113 -0.184 0.336 c -0.012 0.051 -0.027 0.172 -0.051 0.363 l -0.348 2.73 h -0.422 l -0.215 -1.602 l -0.211 1.602 h -0.441 l -0.461 -3.43 h -0.129 v -0.191 h 0.848"/><path d="m 17.15 13.06 l 0.199 -0.219 h 0.063 l 0.012 1.23 h -0.059 c -0.066 -0.379 -0.152 -0.656 -0.262 -0.84 c -0.086 -0.145 -0.172 -0.219 -0.262 -0.219 c -0.094 0 -0.141 0.109 -0.141 0.324 c 0 0.133 0.031 0.238 0.098 0.32 c 0.113 0.117 0.227 0.234 0.34 0.352 c 0.109 0.133 0.195 0.293 0.25 0.48 c 0.063 0.207 0.094 0.461 0.094 0.762 c 0 0.41 -0.047 0.715 -0.141 0.918 c -0.059 0.121 -0.129 0.203 -0.211 0.25 c -0.016 0.008 -0.066 0.02 -0.148 0.043 c -0.059 0 -0.121 -0.031 -0.184 -0.09 c -0.043 -0.035 -0.102 -0.09 -0.18 -0.16 l -0.211 0.25 h -0.074 l -0.02 -1.328 h 0.051 c 0.059 0.355 0.152 0.641 0.281 0.855 c 0.098 0.168 0.191 0.258 0.281 0.277 c 0.027 0.008 0.043 0.012 0.051 0.016 c 0.105 -0.023 0.156 -0.125 0.156 -0.309 c 0 -0.176 -0.047 -0.313 -0.145 -0.414 c -0.098 -0.098 -0.238 -0.246 -0.426 -0.441 c -0.164 -0.25 -0.25 -0.594 -0.25 -1.027 c 0 -0.285 0.031 -0.543 0.094 -0.77 c 0.086 -0.313 0.215 -0.469 0.391 -0.469 c 0.047 0 0.102 0.016 0.16 0.043 c 0.051 0.035 0.117 0.09 0.191 0.16"/></g></svg>