<svg xmlns="http://www.w3.org/2000/svg" viewBox="0 0 22 22"><path d="m 7.01 21.598 c 30.992 3.82 5.305 -40.11 -6.078 -12 c -1.746 4.938 -0.23 10.492 6.078 12" fill="#ffebcd"/><g fill="#0a82c6"><path d="m 4.781 11.555 c -0.016 -0.047 -0.07 -0.43 -0.09 -0.66 c -0.051 -0.547 -0.109 -0.672 -0.434 -0.703 c -0.621 -0.066 -0.598 -0.43 -0.371 -0.621 c 0.051 -0.043 0.242 -0.094 0.426 -0.113 l 0.332 -0.039 l 0.043 -0.488 c 0.051 -0.531 -0.008 -0.863 0.438 -0.891 c 0.512 -0.027 0.402 0.289 0.461 0.805 c 0.059 0.496 0.199 0.59 0.461 0.59 c 0.16 0 0.32 -0.117 0.832 -0.613 c 0.547 -0.531 0.676 -0.621 0.922 -0.66 c 0.305 -0.051 0.734 0.004 0.734 0.09 c 0 0.031 -0.297 0.375 -0.656 0.766 c -0.363 0.395 -0.66 0.762 -0.66 0.816 c 0 0.059 0.297 0.418 0.656 0.805 c 0.363 0.387 0.66 0.734 0.66 0.77 c 0 0.039 -0.223 0.066 -0.543 0.066 h -0.547 l -0.457 -0.469 c -1.047 -1.063 -1.387 -1.098 -1.461 -0.059 l -0.039 0.602 c -0.25 0.008 -0.516 0.117 -0.707 0.008"/><path d="m 9.129 11.445 c 0 -0.09 0.543 -1.266 0.996 -2.152 c 0.598 -1.172 0.563 -1.145 1.324 -1.141 c 0.402 0 0.465 0.016 0.578 0.164 c 0.172 0.227 1.434 2.754 1.484 2.977 c 0.039 0.18 0.039 0.18 -0.332 0.18 c -0.387 0 -0.496 -0.063 -0.73 -0.422 l -0.113 -0.168 h -2.02 l -0.102 0.191 c -0.176 0.34 -0.277 0.398 -0.699 0.398 c -0.215 0 -0.387 -0.012 -0.387 -0.027 m 2.789 -1.402 c -0.063 -0.258 -0.441 -0.961 -0.535 -0.988 c -0.086 -0.027 -0.387 0.414 -0.535 0.797 c -0.129 0.328 -0.066 0.367 0.602 0.371 h 0.512"/><path d="m 15.15 11.469 c -0.398 -0.02 -0.789 -0.07 -0.867 -0.113 c -0.375 -0.207 -0.551 -0.727 -0.289 -0.867 c 0.215 -0.113 0.438 -0.078 0.836 0.145 c 0.367 0.203 0.422 0.215 1.082 0.215 c 0.75 0 1.047 -0.102 1.047 -0.359 c 0 -0.215 -0.211 -0.262 -1.348 -0.309 c -0.832 -0.031 -1.145 -0.07 -1.301 -0.152 c -0.547 -0.293 -0.605 -1.227 -0.102 -1.691 c 0.137 -0.129 0.25 -0.152 1.01 -0.188 c 0.469 -0.023 1.148 -0.012 1.512 0.02 c 0.613 0.063 0.664 0.078 0.836 0.273 c 0.238 0.266 0.258 0.629 0.039 0.688 c -0.281 0.074 -0.582 0.043 -0.762 -0.082 c -0.211 -0.148 -0.965 -0.223 -1.559 -0.152 c -0.328 0.039 -0.398 0.07 -0.414 0.176 c -0.035 0.289 0.066 0.324 0.984 0.371 c 0.48 0.027 1.02 0.051 1.195 0.051 c 0.281 0.008 0.352 0.039 0.57 0.258 c 0.297 0.297 0.383 0.625 0.266 1.016 c -0.113 0.383 -0.379 0.625 -0.734 0.668 c -0.496 0.063 -1.246 0.074 -2 0.039"/></g><g fill="#faa61b"><path d="m 4.719 13.996 c -0.004 -0.664 -0.434 -1.535 0.352 -1.535 c 0.43 -0.047 0.359 0.09 0.391 0.477 c 0.043 0.594 0.086 0.699 0.289 0.75 c 0.254 0.063 0.543 -0.113 1.164 -0.695 l 0.563 -0.531 h 0.434 c 0.391 0.012 0.504 0.023 0.23 0.297 c -0.117 0.07 -1.121 1.215 -1.121 1.277 c 0 0.031 0.297 0.383 0.66 0.781 c 0.359 0.398 0.656 0.742 0.656 0.762 c 0 0.023 -0.215 0.043 -0.477 0.043 h -0.473 l -0.598 -0.598 c -0.461 -0.457 -0.648 -0.602 -0.824 -0.629 c -0.363 -0.055 -0.449 0.059 -0.5 0.684 c -0.051 0.473 0.145 0.648 -0.324 0.648 c -0.668 0.059 -0.422 -1.125 -0.422 -1.73"/><path d="m 9.664 15.578 c -0.121 -0.063 -0.262 -0.18 -0.316 -0.262 c -0.16 -0.242 -0.223 -0.922 -0.176 -1.918 c 0.105 -0.652 -0.285 -0.938 0.391 -0.938 c 0.652 -0.039 0.438 0.688 0.457 1.152 c 0.063 1.371 0.043 1.348 1.105 1.348 c 1.074 0 1.047 0.035 1.102 -1.277 c 0.031 -0.668 0.074 -1.063 0.129 -1.129 c 0.059 -0.07 0.18 -0.094 0.414 -0.078 c 0.305 0.016 0.336 0.035 0.387 0.215 c 0.035 0.109 0.043 0.656 0.02 1.215 c -0.039 1.117 -0.109 1.363 -0.449 1.609 c -0.172 0.125 -0.293 0.137 -1.516 0.156 c -1.137 0.012 -1.359 0 -1.547 -0.094"/><path d="m 14.906 15.559 c -0.477 -0.051 -0.543 -0.078 -0.711 -0.266 c -0.141 -0.156 -0.184 -0.266 -0.168 -0.418 c 0.016 -0.184 0.047 -0.211 0.242 -0.23 c 0.148 -0.016 0.379 0.051 0.684 0.188 c 0.438 0.203 0.48 0.211 1.125 0.184 c 0.367 -0.016 0.734 -0.066 0.816 -0.109 c 0.188 -0.102 0.195 -0.375 0.012 -0.473 c -0.074 -0.039 -0.613 -0.102 -1.203 -0.141 c -0.648 -0.039 -1.141 -0.105 -1.266 -0.16 c -0.277 -0.133 -0.422 -0.41 -0.422 -0.813 c 0 -0.367 0.098 -0.621 0.328 -0.828 c 0.137 -0.121 0.238 -0.129 1.539 -0.129 c 1.238 0 1.414 0.012 1.578 0.121 c 0.227 0.148 0.383 0.488 0.297 0.652 c -0.082 0.152 -0.578 0.156 -0.867 0.004 c -0.25 -0.129 -1.344 -0.199 -1.691 -0.105 c -0.184 0.047 -0.234 0.098 -0.254 0.234 c -0.027 0.254 0.164 0.309 1.301 0.355 c 1.086 0.043 1.309 0.109 1.555 0.473 c 0.301 0.441 0.137 1.133 -0.32 1.348 c -0.27 0.129 -1.777 0.195 -2.574 0.109"/></g></svg>