<svg xmlns="http://www.w3.org/2000/svg" viewBox="0 0 22 22"><path d="m 10.965 21.918 c -14.516 1.652 -14.313 -21.992 0.258 -21.715 c 13.551 -0.777 14.773 23 -0.258 21.715" fill="#f4b98b"/><path d="m 5.719 16.938 c -0.594 -0.238 -0.496 -4.914 0.102 -4.914 c 0.441 0 0.672 0.582 0.789 1.977 l 0.109 1.301 l 2.711 0.078 c 1.488 0.043 3.121 0.078 3.621 0.078 h 0.914 v -1.195 c 0.004 -1.723 0.461 -2.594 1.086 -2.051 c 0.195 0.172 0.258 0.781 0.258 2.457 v 2.23 l -0.719 0.074 c -1.121 0.121 -8.566 0.09 -8.871 -0.035" fill="#edf3f5"/><path d="m 7.66 14.391 c -0.313 -0.066 -0.582 -0.563 -0.457 -0.832 c 0.117 -0.25 0.988 -0.43 2.078 -0.43 c 0.855 -0.004 1.617 -0.238 1.383 -0.434 c -0.055 -0.043 -0.727 -0.227 -1.492 -0.406 c -1.199 -0.285 -1.414 -0.375 -1.594 -0.68 c -0.152 -0.266 -0.164 -0.422 -0.043 -0.645 c 0.203 -0.363 0.746 -0.383 2.527 -0.09 c 1.195 0.195 1.645 0.148 1.402 -0.152 c -0.059 -0.07 -0.543 -0.367 -1.074 -0.66 c -1.188 -0.648 -2.09 -1.336 -2.09 -1.598 c 0 -0.246 0.289 -0.492 0.586 -0.492 c 0.121 0 0.949 0.285 1.84 0.629 c 0.887 0.348 1.656 0.598 1.707 0.555 c 0.109 -0.09 -0.352 -0.641 -1.559 -1.855 c -0.512 -0.516 -0.934 -1.035 -0.934 -1.156 c 0 -0.203 0.43 -0.625 0.641 -0.625 c 0.055 0 0.586 0.367 1.184 0.813 c 1.211 0.902 1.727 1.215 1.844 1.121 c 0.043 -0.039 -0.285 -0.668 -0.727 -1.398 c -0.926 -1.523 -1.09 -1.957 -0.84 -2.203 c 0.094 -0.094 0.223 -0.172 0.285 -0.172 c 0.48 0 3.578 3.734 3.578 4.316 c 0 0.102 -0.324 0.543 -0.723 0.977 c -1.41 1.527 -1.809 2.477 -1.809 4.309 l -0.004 1.195 l -2.719 -0.016 c -1.5 -0.008 -2.844 -0.039 -2.992 -0.07" fill="#f47e20"/></svg>