<svg xmlns="http://www.w3.org/2000/svg" viewBox="0 0 22 22"><path d="m 11.281 21.797 c -2.27 -0.063 -4.926 -1 -6.777 -2.395 c -2.25 -1.699 -3.895 -4.391 -4.34 -7.102 c -0.527 -3.582 1.598 -7.563 3.996 -9.52 c 1.203 -0.957 2.797 -1.746 4.293 -2.133 c 3.895 -1 7.957 0.336 10.738 3.543 c 1.672 1.922 2.535 3.898 2.746 6.277 c 0.25 2.852 -0.895 5.98 -2.992 8.148 c -2.383 2.066 -4.836 3.246 -7.668 3.184" fill="#606f8c"/><path d="m 7.793 17.13 l -0.516 -0.035 l 0.172 -0.254 c 0.098 -0.137 0.617 -1 1.156 -1.918 c 0.543 -0.914 1 -1.645 1.023 -1.625 c 0.043 0.039 0.785 -0.313 1.602 -0.758 c 0.496 -0.27 0.504 -0.273 0.645 -0.09 c 0.191 0.254 2.645 4.301 2.715 4.484 c 0.047 0.117 -0.059 0.156 -0.539 0.203 c -0.609 0.063 -5.313 0.059 -6.258 -0.008" fill="#79f47f"/><path d="m 14.387 16.379 c -0.199 -0.348 -0.852 -1.43 -1.449 -2.402 l -1.082 -1.77 l 0.352 -0.215 c 0.195 -0.121 0.547 -0.313 0.789 -0.434 c 0.238 -0.117 0.617 -0.336 0.836 -0.48 l 0.406 -0.27 h 4.289 l -0.051 0.258 c -0.055 0.262 -2.891 5.078 -3.324 5.641 c -0.129 0.168 -0.273 0.309 -0.316 0.309 c -0.047 0 -0.25 -0.289 -0.449 -0.637" fill="#16d6c6"/><path d="m 13.04 10.07 l -1.168 -0.633 l 0.891 -1.457 c 0.488 -0.801 1.152 -1.895 1.469 -2.43 l 0.582 -0.969 l 0.246 0.313 c 0.359 0.461 3.449 5.617 3.449 5.758 c 0 0.031 -0.969 0.055 -2.152 0.051 l -2.148 -0.004" fill="#9772ff"/><path d="m 10.594 8.754 l -1.184 -0.625 l -1.043 -1.758 c -0.965 -1.621 -1.031 -1.762 -0.844 -1.809 c 0.348 -0.09 7.113 -0.063 7.113 0.031 c 0 0.074 -2.465 4.234 -2.746 4.633 c -0.102 0.141 -0.23 0.094 -1.297 -0.473" fill="#ff72a2"/><path d="m 6.887 16.852 c -0.691 -1.094 -3.32 -5.629 -3.32 -5.727 c 0 -0.063 0.504 -0.074 2.895 -0.074 h 2.891 v 2.383 l -0.289 0.504 c -1.195 2.082 -1.852 3.121 -1.969 3.121 c -0.043 0 -0.137 -0.094 -0.207 -0.207" fill="#eaf333"/><path d="m 3.59 11 c -0.074 -0.07 0.008 -0.34 0.234 -0.777 c 0.508 -0.984 2.879 -4.891 3.242 -5.34 c 0.098 -0.121 0.121 -0.125 0.191 -0.055 c 0.047 0.043 0.547 0.859 1.117 1.809 l 1.031 1.723 v 2.637 l -2.895 0.012 c -1.594 0.008 -2.91 0.004 -2.922 -0.008" fill="#ff8c00"/></svg>