<svg xmlns="http://www.w3.org/2000/svg" viewBox="0 0 22 22"><path d="m 10.703 21.883 c 2.27 -0.176 4.926 -1.262 6.777 -2.766 c 2.25 -1.832 3.895 -4.641 4.34 -7.406 c 0.527 -3.656 -1.598 -7.59 -3.996 -9.453 c -1.203 -0.91 -2.801 -1.633 -4.293 -1.949 c -3.895 -0.82 -7.957 0.738 -10.742 4.125 c -1.668 2.027 -2.531 4.074 -2.742 6.496 c -0.254 2.902 0.895 6.01 2.992 8.109 c 2.383 1.977 4.832 3.047 7.664 2.844" fill="#14ac53"/><g fill="#fff"><path d="m 2.844 13.629 c -0.613 -0.133 -1.273 -0.465 -1.273 -0.641 c 0 -0.148 0.398 -0.605 0.531 -0.605 c 0.055 0 0.289 0.086 0.512 0.188 c 0.516 0.238 0.898 0.254 1.117 0.051 c 0.184 -0.176 0.191 -0.41 0.016 -0.578 c -0.074 -0.07 -0.402 -0.25 -0.727 -0.398 c -0.676 -0.313 -0.988 -0.512 -1.121 -0.715 c -0.152 -0.23 -0.207 -0.66 -0.137 -1.051 c 0.051 -0.285 0.102 -0.391 0.297 -0.586 c 0.371 -0.371 0.688 -0.488 1.316 -0.488 c 0.473 0.004 0.574 0.023 0.926 0.188 c 0.484 0.23 0.574 0.363 0.422 0.629 c -0.063 0.105 -0.18 0.227 -0.266 0.273 c -0.133 0.078 -0.191 0.074 -0.543 -0.043 c -0.32 -0.121 -0.91 -0.219 -1.09 0.133 c -0.117 0.254 0.023 0.391 0.801 0.773 c 0.789 0.391 1.055 0.605 1.324 1.078 c 0.309 0.535 0.164 0.91 0.875 -0.977 c 0.645 -1.707 0.703 -1.949 0.852 -1.988 c 0.23 -0.063 0.785 -0.039 0.887 0.039 c 0.133 0.094 0.363 0.676 0.75 1.887 c 0.316 0.988 0.656 1.621 0.785 1.496 c 0.043 -0.039 -0.047 -0.883 -0.008 -1.836 c 0.035 -0.844 0.074 -1.543 0.086 -1.559 c 0.059 -0.059 0.66 -0.07 0.801 -0.016 l 0.156 0.063 l 0.027 1.496 c 0.023 1.359 0.039 1.527 0.148 1.777 c 0.234 0.523 0.773 0.613 1.203 0.195 l 0.223 -0.219 l 0.02 -1.52 c 0.016 -1.246 0.039 -1.547 0.113 -1.66 c 0.09 -0.137 0.102 -0.137 1.391 -0.152 c 1.656 -0.016 2.113 0.031 2.555 0.266 c 0.461 0.246 0.832 0.617 1 0.992 c 0.129 0.289 0.305 0.707 0.387 0.625 c 0.02 -0.02 0.023 -0.621 0.055 -1 c 0.035 -0.492 0.078 -0.719 0.141 -0.785 c 0.078 -0.078 0.313 -0.094 1.535 -0.094 c 0.793 0 1.461 0.02 1.484 0.043 c 0.023 0.023 0.055 0.176 0.07 0.332 c 0.027 0.258 0.012 0.301 -0.133 0.418 c -0.156 0.121 -0.203 0.125 -0.887 0.086 l -0.719 -0.035 l -0.191 0.172 c -0.266 0.234 -0.285 0.563 -0.043 0.77 c 0.148 0.129 0.211 0.141 0.836 0.141 c 0.766 0 0.855 0.043 0.855 0.406 c 0 0.375 -0.063 0.406 -0.828 0.43 c -0.531 0.016 -0.719 0.043 -0.844 0.125 c -0.301 0.195 -0.277 0.652 0.039 0.805 c 0.094 0.043 0.492 0.105 0.887 0.133 c 0.395 0.031 0.773 0.066 0.844 0.082 c 0.176 0.039 0.266 0.32 0.191 0.59 l -0.059 0.207 h -1.461 c -1.082 0 -1.492 -0.02 -1.566 -0.074 c -0.082 -0.059 -0.109 -0.199 -0.133 -0.715 c -0.027 -0.609 -0.086 -1.035 -0.203 -1.035 c -0.027 0 -0.16 0.371 -0.297 0.613 c -0.277 0.504 -0.668 0.879 -1.105 1.055 c -0.234 0.098 -0.465 0.121 -1.305 0.145 c -0.758 0.02 -1.043 0.008 -1.109 -0.047 c -0.063 -0.051 -0.09 -0.199 -0.094 -0.492 c -0.012 -0.828 -0.176 -0.973 -0.461 -0.406 c -0.25 0.492 -0.438 0.691 -0.824 0.883 c -0.293 0.145 -0.402 0.164 -0.84 0.16 c -0.566 -0.004 -0.949 -0.117 -1.348 -0.391 c -0.293 -0.203 -0.414 -0.184 -0.465 0.07 c -0.043 0.211 -0.172 0.297 -0.453 0.297 c -0.398 0 -0.566 -0.105 -0.75 -0.473 c -0.094 -0.188 -0.215 -0.359 -0.27 -0.379 c -0.164 -0.063 -1.109 -0.035 -1.328 0.039 c -0.164 0.059 -0.223 0.121 -0.297 0.336 c -0.117 0.34 -0.273 0.422 -0.77 0.402 c -0.348 -0.016 -0.387 -0.027 -0.402 -0.148 c -0.027 -0.191 -0.059 -0.414 -0.746 0.051 c -0.391 0.266 -0.937 0.266 -1.363 0.172 m 12.363 -1.117 c 0.309 -0.141 0.605 -0.48 0.656 -0.754 c 0.059 -0.316 -0.008 -1.102 -0.113 -1.301 c -0.184 -0.352 -0.59 -0.609 -0.988 -0.625 c -0.43 -0.02 -0.441 0.02 -0.441 1.391 c 0 0.934 0.016 1.223 0.078 1.301 c 0.277 0.113 0.582 0.086 0.809 -0.012 m -7.781 -0.715 c 0.141 -0.109 0.145 -0.121 0.07 -0.398 c -0.113 -0.422 -0.316 -0.758 -0.453 -0.758 c -0.156 0 -0.324 0.348 -0.367 0.762 c -0.031 0.305 -0.027 0.324 0.137 0.41 c 0.23 0.125 0.438 0.121 0.613 -0.016"/><path d="m 10.547 8.711 c -0.23 -0.129 -0.125 -0.594 0.195 -0.863 c 0.375 -0.32 1.074 -0.488 1.297 -0.313 c 0.145 0.109 0.141 0.16 -0.055 0.508 c -0.332 0.582 -1.016 0.902 -1.438 0.668"/></g></svg>