<svg xmlns="http://www.w3.org/2000/svg" viewBox="0 0 22 22"><path d="m 15.01 0.387 c -30.988 -3.82 -5.301 40.11 6.082 12 c 1.742 -4.938 0.23 -10.492 -6.082 -12" fill="#f4f4f4"/><g fill="#010101"><path d="m 9.852 17.836 c -0.773 -0.07 -1.508 -0.316 -2.176 -0.727 c -1.492 -0.922 -2.504 -2.32 -2.902 -4 c -0.117 -0.496 -0.16 -1.656 -0.082 -2.188 c 0.137 -0.922 0.469 -1.738 1.012 -2.477 c 0.289 -0.398 1.051 -1.141 1.082 -1.059 c 0.012 0.027 -0.082 0.215 -0.207 0.41 c -0.344 0.531 -0.785 1.383 -0.918 1.77 c -0.262 0.777 -0.313 1.117 -0.316 2.094 c 0 0.531 0.023 1.035 0.055 1.215 c 0.059 0.316 0.23 0.824 0.281 0.824 c 0.016 0 0.063 -0.18 0.109 -0.402 c 0.211 -1.035 0.484 -1.867 0.793 -2.398 c 0.496 -0.848 1.332 -1.645 2.148 -2.039 c 0.449 -0.215 0.758 -0.285 1.211 -0.262 c 0.332 0.012 0.434 0.035 0.723 0.164 c 0.395 0.176 0.938 0.578 0.938 0.699 c 0 0.043 0.051 0.262 0.109 0.48 c 0.281 1.02 0.316 1.723 0.137 2.809 c -0.141 0.836 -0.305 1.449 -0.652 2.402 c -0.277 0.754 -0.305 0.875 -0.211 0.844 c 0.113 -0.031 0.668 -0.801 0.93 -1.285 c 0.496 -0.914 0.668 -1.551 0.707 -2.59 c 0.027 -0.719 -0.008 -1.098 -0.168 -1.863 c -0.113 -0.543 -0.211 -0.832 -0.285 -0.859 c -0.035 -0.012 -0.129 -0.137 -0.211 -0.281 c -0.094 -0.16 -0.289 -0.387 -0.512 -0.594 c -0.426 -0.398 -0.781 -0.574 -1.527 -0.762 c -0.512 -0.133 -0.754 -0.238 -0.828 -0.371 c -0.254 -0.434 2.125 -3 2.398 -2.598 c 0.016 0.023 -0.121 0.309 -0.305 0.633 c -0.508 0.895 -0.652 1.441 -0.43 1.629 c 0.09 0.078 0.422 0.18 0.77 0.238 c 0.23 0.035 0.246 -0.031 0.105 -0.395 c -0.141 -0.352 -0.152 -0.672 -0.035 -0.836 c 0.098 -0.137 0.473 -0.387 0.668 -0.445 c 0.113 -0.035 0.176 -0.031 0.293 0.02 c 0.227 0.102 0.621 0.434 0.691 0.586 c 0.137 0.305 0.051 0.656 -0.238 0.965 c -0.105 0.117 -0.195 0.234 -0.195 0.262 c 0 0.086 0.18 0.211 0.652 0.461 c 0.563 0.293 0.918 0.559 1.512 1.121 c 0.711 0.68 1.137 1.309 1.309 1.926 c 0.074 0.273 0.172 1.066 0.141 1.156 c -0.07 0.203 -0.063 0.195 -0.141 0.137 c -0.039 -0.031 -0.176 -0.25 -0.301 -0.488 c -0.172 -0.324 -0.301 -0.5 -0.5 -0.691 c -0.152 -0.141 -0.297 -0.258 -0.324 -0.258 c -0.027 0 -0.063 0.078 -0.074 0.176 c -0.039 0.281 -0.125 3.902 -0.094 3.945 c 0.059 0.09 0.172 0.035 0.445 -0.203 c 0.152 -0.137 0.293 -0.25 0.309 -0.25 c 0.078 0 0.008 0.203 -0.207 0.594 c -0.551 0.984 -1.363 1.813 -2.191 2.223 c -0.402 0.203 -0.793 0.305 -1.699 0.445 c -0.738 0.113 -1.27 0.141 -1.797 0.094 m 2.125 -0.473 c 0.176 -0.023 0.398 -0.082 0.496 -0.129 c 0.527 -0.246 1.031 -0.934 1.266 -1.723 c 0.105 -0.363 0.113 -1.043 0.012 -1.133 c -0.066 -0.063 -0.086 -0.063 -0.203 -0.008 c -0.07 0.035 -0.297 0.234 -0.504 0.441 c -0.477 0.477 -1.129 0.984 -1.816 1.406 c -0.594 0.367 -0.816 0.477 -1.238 0.617 c -0.371 0.121 -0.496 0.191 -0.496 0.289 c 0 0.094 0.18 0.207 0.398 0.246 c 0.266 0.047 1.734 0.043 2.086 -0.008 m -2.535 -0.727 c 0.934 -0.578 1.336 -1.422 1.301 -2.707 c -0.027 -0.848 -0.16 -1.035 -0.668 -0.934 c -1.031 0.203 -1.793 1.203 -1.793 2.355 c 0 0.586 0.137 0.906 0.516 1.227 c 0.242 0.207 0.383 0.219 0.645 0.059"/><path d="m 13.781 5.01 c -0.215 -0.063 -0.461 -0.313 -0.586 -0.59 c -0.277 -0.609 -0.031 -1.281 0.531 -1.457 c 0.535 -0.168 1.148 0.207 1.293 0.789 c 0.051 0.203 0.047 0.219 -0.082 0.496 c -0.27 0.559 -0.754 0.875 -1.156 0.762"/></g></svg>