<svg xmlns="http://www.w3.org/2000/svg" viewBox="0 0 22 22"><path d="m 1.012 16.203 c 4.328 10.391 21.1 5.758 20.984 -5.563 c 0.168 -10.293 -13.16 -14.195 -19 -6.863 c -2.926 3.168 -3.945 8.422 -1.98 12.426" fill="#9acd31" fill-opacity="0.996"/><path d="m 10.277 16.695 c -4.262 -0.031 -3.977 -0.008 -4.609 -0.418 c -0.383 -0.25 -0.652 -0.605 -0.859 -1.125 c -0.117 -0.297 -0.121 -0.434 -0.121 -3.949 v -3.641 l 0.219 -0.441 c 0.309 -0.629 0.652 -0.938 1.332 -1.207 c 0.258 -0.102 0.559 -0.109 4.211 -0.121 c 4.04 -0.012 4.109 -0.008 4.109 0.207 c 0 0.074 -0.852 0.879 -1.121 1.063 c -0.145 0.094 -0.414 0.105 -3.375 0.105 c -3.5 0 -3.5 0 -3.762 0.332 c -0.242 0.309 -0.254 0.461 -0.234 3.895 c 0.023 3.754 0 3.602 0.496 3.82 c 0.25 0.109 0.418 0.113 4.297 0.098 l 4.04 -0.016 l 0.203 -0.156 c 0.367 -0.281 0.41 -0.523 0.41 -2.238 v -1.5 l 0.332 -0.391 c 0.348 -0.41 0.797 -0.723 0.953 -0.664 c 0.082 0.031 0.09 0.277 0.07 2.254 c -0.023 2.137 -0.031 2.23 -0.164 2.598 c -0.105 0.293 -0.223 0.465 -0.5 0.75 c -0.594 0.598 -0.816 0.691 -1.852 0.766 c -0.098 0.004 -1.93 -0.004 -4.074 -0.02 m -0.832 -2.5 c -0.066 -0.066 -0.117 -0.145 -0.117 -0.172 c 0 -0.059 0.238 -0.711 0.379 -1.035 c 0.055 -0.121 0.125 -0.363 0.16 -0.535 c 0.066 -0.309 0.102 -0.348 1.859 -2.102 c 2.563 -2.551 2.793 -2.77 2.984 -2.77 c 0.125 0 0.305 0.145 0.777 0.609 c 0.543 0.535 0.617 0.633 0.617 0.809 c 0 0.184 -0.164 0.363 -2.074 2.254 c -1.141 1.129 -2.195 2.148 -2.344 2.262 c -0.195 0.152 -0.426 0.254 -0.816 0.359 c -0.301 0.078 -0.668 0.211 -0.82 0.293 c -0.336 0.176 -0.449 0.184 -0.605 0.027 m 1.949 -2.188 c 0.09 -0.055 0.805 -0.73 1.586 -1.504 c 0.781 -0.77 1.484 -1.461 1.563 -1.535 c 0.172 -0.164 0.164 -0.395 -0.012 -0.418 c -0.09 -0.016 -0.559 0.418 -1.77 1.629 c -0.91 0.906 -1.652 1.668 -1.652 1.695 c 0 0.023 -0.016 0.09 -0.035 0.141 c -0.047 0.129 0.113 0.125 0.32 -0.008 m 4.957 -4.516 c -0.867 -0.832 -0.887 -0.949 -0.234 -1.43 c 0.52 -0.383 0.641 -0.363 1.27 0.203 c 0.352 0.32 0.563 0.637 0.563 0.844 c 0 0.172 -0.465 0.852 -0.621 0.914 c -0.266 0.102 -0.391 0.031 -0.977 -0.531" fill="#5b5d62"/></svg>