<svg xmlns="http://www.w3.org/2000/svg" viewBox="0 0 22 22"><path d="m 2.738 5.379 c 18.11 -19.48 29.523 20.73 5.48 16.297 c -6.344 -2.188 -11.297 -10.04 -5.48 -16.297" fill="#365473"/><g fill="#fff"><path d="m 6.465 10.68 c -0.023 -1.844 -0.02 -3.438 0.012 -3.547 c 0.234 -0.844 1.992 -0.551 2.254 -0.082 l -0.074 3.34 c -0.047 1.949 -0.039 3.547 -0.047 3.559 c -0.703 0.363 -1.305 0.34 -2.098 0.082"/><path d="m 10.309 6.254 c 1.941 0.074 4.105 -0.059 6.04 0.063 c 0.047 1.484 -0.16 2.613 -0.141 4.207 h -5.902 c 0 -1.422 0 -2.848 0 -4.27"/><path d="m 6.211 16.703 c -0.348 -0.02 -0.488 -0.039 -0.516 -0.082 c -0.07 -0.113 -0.09 -1.262 -0.07 -4.047 c 0.02 -3.043 0.023 -3.117 0.215 -3.191 c 0.234 -0.086 0.219 -0.246 0.219 2.414 v 2.453 l 0.27 0.234 c 0.328 0.293 0.375 0.301 1.379 0.305 h 0.77 l 0.211 -0.121 c 0.258 -0.148 0.359 -0.34 0.414 -0.797 c 0.023 -0.18 0.055 -1.273 0.07 -2.43 l 0.027 -2.098 l 0.375 0.023 l 0.051 0.668 c 0.059 0.813 0.066 0.844 0.203 0.906 c 0.082 0.031 1.039 0.051 3.504 0.063 l 3.395 0.016 l 0.07 -0.148 c 0.094 -0.199 0.148 -0.602 0.148 -1.109 c 0.004 -0.453 -0.004 -0.445 0.258 -0.371 c 0.109 0.027 0.168 0.074 0.199 0.152 c 0.047 0.117 0.066 7.05 0.02 7.102 c -0.059 0.059 -2.445 0.09 -6.488 0.086 c -2.332 -0.004 -4.461 -0.016 -4.723 -0.027 m 10.672 -0.539 c 0.012 -0.066 0.023 -0.195 0.023 -0.281 v -0.16 h -1.461 v 0.176 c 0 0.367 -0.031 0.352 0.664 0.363 c 0.336 0.008 0.645 0.016 0.68 0.023 c 0.047 0.004 0.074 -0.035 0.094 -0.121 m -5.777 -0.176 l 0.012 -0.266 h -1.402 v 0.238 c 0 0.129 0.012 0.25 0.027 0.266 c 0.016 0.012 0.324 0.027 0.688 0.027 h 0.66 m 1.934 -0.094 c 0.012 -0.051 0.023 -0.168 0.023 -0.262 v -0.176 h -1.461 v 0.137 c 0 0.078 0.012 0.195 0.023 0.266 l 0.027 0.129 h 0.68 c 0.672 0 0.68 -0.004 0.707 -0.094 m 1.949 0 c 0.012 -0.051 0.023 -0.168 0.023 -0.262 v -0.176 h -1.422 v 0.199 c 0 0.348 -0.035 0.332 0.711 0.332 c 0.652 0 0.664 -0.004 0.688 -0.094 m -3.852 -1.668 c 0.012 -0.074 0.02 -0.191 0.012 -0.254 l -0.016 -0.117 l -0.699 -0.012 l -0.703 -0.012 v 0.484 l 0.133 0.016 c 0.074 0.008 0.383 0.02 0.688 0.023 l 0.559 0.008 m 1.926 -0.043 c 0.008 -0.012 0.008 -0.125 -0.004 -0.254 l -0.02 -0.234 h -0.68 c -0.77 0 -0.73 -0.016 -0.73 0.332 v 0.203 l 0.707 -0.012 c 0.391 -0.008 0.715 -0.023 0.727 -0.035 m 1.887 0.016 c 0.078 -0.02 0.09 -0.051 0.09 -0.199 c 0 -0.316 0.031 -0.305 -0.734 -0.305 h -0.688 v 0.484 l 0.176 0.016 c 0.297 0.027 1.063 0.031 1.156 0.004 m 2 -0.238 v -0.266 h -1.41 l -0.027 0.129 c -0.012 0.07 -0.023 0.188 -0.023 0.262 v 0.141 h 1.461 m -0.453 -1.246 c 0.316 -0.02 0.34 -0.027 0.379 -0.129 c 0.043 -0.117 0.059 -1.449 0.02 -1.582 c -0.016 -0.043 -0.07 -0.094 -0.117 -0.109 c -0.141 -0.043 -5.477 -0.078 -6.301 -0.043 l -0.727 0.031 l 0.016 0.863 c 0.012 0.633 0.031 0.883 0.07 0.93 c 0.047 0.051 0.184 0.066 0.871 0.074 c 1.168 0.02 5.387 -0.008 5.789 -0.035"/><path d="m 10.32 11.926 h 2.234 v 0.285 h -2.234"/><path d="m 10.277 12.656 h 5.809 v 0.285 h -5.809"/></g></svg>