<svg xmlns="http://www.w3.org/2000/svg" viewBox="0 0 22 22"><path d="m 17.41 20.703 c -32.773 9.559 -11.883 -37.66 2.781 -13.977 c 2.68 4.352 2.867 11.742 -2.781 13.977" fill="#2fb5eb"/><g fill="#fff"><path d="m 8.621 14.176 c -0.301 -0.148 -1.133 -0.93 -1.344 -1.266 c -0.359 -0.563 -0.25 -0.793 0.879 -1.879 c 0.758 -0.727 1 -0.852 1.418 -0.738 c 0.285 0.078 0.969 0.645 1.387 1.156 c 0.262 0.316 0.313 0.422 0.313 0.648 c 0 0.172 -0.047 0.332 -0.121 0.426 l -0.125 0.152 l -0.199 -0.164 c -0.109 -0.086 -0.465 -0.402 -0.789 -0.699 c -0.328 -0.297 -0.633 -0.539 -0.684 -0.539 c -0.113 0 -0.379 0.199 -0.813 0.617 c -0.559 0.531 -0.57 0.461 0.246 1.305 c 0.398 0.41 0.723 0.793 0.723 0.848 c 0 0.234 -0.527 0.313 -0.891 0.133"/><path d="m 6.574 15.387 c -0.539 -0.219 -1.453 -1.074 -1.734 -1.625 c -1.063 -2.102 -0.012 -4.5 2.254 -5.133 l 0.359 -0.102 l 0.359 -0.691 c 0.449 -0.875 0.895 -1.348 1.574 -1.684 c 1.059 -0.52 2.539 -0.445 3.609 0.18 c 0.844 0.496 1.672 1.77 1.676 2.586 c 0 0.129 0.023 0.266 0.051 0.305 c 0.027 0.039 0.258 0.152 0.52 0.25 c 0.879 0.332 1.578 0.945 1.957 1.715 c 0.273 0.555 0.34 1.078 0.223 1.762 c -0.102 0.574 -0.25 0.91 -0.621 1.391 c -0.516 0.668 -0.887 0.797 -1.25 0.434 c -0.258 -0.258 -0.215 -0.52 0.164 -1.01 c 0.652 -0.84 0.695 -1.816 0.102 -2.473 c -0.359 -0.402 -0.77 -0.625 -1.484 -0.805 c -0.773 -0.195 -0.816 -0.25 -0.895 -1.133 c -0.051 -0.586 -0.098 -0.781 -0.266 -1.125 c -0.402 -0.812 -1.035 -1.156 -2.16 -1.164 c -0.621 -0.004 -0.719 0.012 -1.055 0.176 c -0.602 0.297 -0.973 0.801 -1.359 1.863 c -0.184 0.504 -0.355 0.645 -0.84 0.699 c -0.918 0.105 -1.363 0.363 -1.758 1.023 c -0.258 0.426 -0.352 1 -0.273 1.641 c 0.09 0.707 0.316 1.063 1.02 1.594 c 0.262 0.195 0.516 0.418 0.574 0.496 c 0.207 0.297 0.09 0.66 -0.262 0.805 c -0.254 0.109 -0.27 0.109 -0.484 0.023"/><path d="m 11.07 14.648 c -1.254 -1.156 -1.949 -1.902 -1.949 -2.098 c 0 -0.203 0.266 -0.391 0.477 -0.34 c 0.082 0.023 0.617 0.477 1.195 1.012 c 1.633 1.516 1.859 1.828 1.516 2.066 c -0.277 0.195 -0.406 0.129 -1.238 -0.641"/><path d="m 11.832 17.262 c -0.109 -0.047 -0.484 -0.367 -0.832 -0.711 c -0.668 -0.656 -0.77 -0.852 -0.676 -1.281 c 0.09 -0.414 0.164 -0.387 1.016 0.383 c 0.441 0.395 0.84 0.719 0.891 0.719 c 0.133 0 1.266 -1.012 1.266 -1.129 c 0 -0.031 -0.34 -0.406 -0.75 -0.836 c -0.414 -0.43 -0.754 -0.813 -0.754 -0.848 c 0 -0.078 0.398 -0.258 0.57 -0.258 c 0.223 0 0.637 0.273 1.09 0.707 c 1.133 1.102 1.117 1.328 -0.168 2.516 c -0.34 0.313 -0.68 0.613 -0.754 0.668 c -0.203 0.141 -0.668 0.18 -0.902 0.074"/></g></svg>