<svg xmlns="http://www.w3.org/2000/svg" viewBox="0 0 22 22"><path d="m 3.914 3.285 c -17.195 22.613 30.13 25.824 14.941 2.746 c -3.465 -5.266 -10.387 -8.734 -14.941 -2.746" fill="#2f4e4e"/><path d="m 13.324 18.719 c 0.191 -0.188 0.227 -0.34 0.199 -0.902 c -0.031 -0.602 -0.066 -0.695 -0.316 -0.809 c -0.34 -0.16 -1.082 -0.883 -0.992 -0.969 c 0.055 -0.055 0.695 0.188 1.355 0.508 c 0.109 0.055 0.543 0.098 0.965 0.098 c 0.723 0 0.793 -0.023 1.129 -0.363 c 0.328 -0.324 0.363 -0.426 0.363 -1.031 c 0 -0.371 -0.051 -0.703 -0.113 -0.742 c -0.063 -0.035 -0.113 -0.211 -0.113 -0.387 c 0 -0.176 -0.102 -0.48 -0.227 -0.676 c -0.438 -0.695 -0.215 -0.676 0.539 0.055 c 0.762 0.734 0.766 0.734 1.402 0.734 c 0.695 0 0.992 -0.172 0.988 -0.582 c -0.004 -0.547 -0.145 -0.586 -1.25 -0.34 c -0.238 0.055 -0.344 0 -0.563 -0.289 c -0.148 -0.191 -0.527 -0.613 -0.84 -0.934 c -0.461 -0.469 -0.621 -0.57 -0.828 -0.52 c -0.207 0.055 -0.398 -0.066 -0.98 -0.629 c -0.715 -0.691 -0.914 -1.043 -0.527 -0.938 c 0.723 0.191 1.016 0.176 1.387 -0.066 c 0.211 -0.141 0.457 -0.375 0.547 -0.531 c 0.188 -0.324 0.098 -0.809 -0.168 -0.91 c -0.277 -0.102 -0.762 0.176 -0.836 0.484 c -0.051 0.215 -0.145 0.281 -0.445 0.309 c -0.211 0.02 -0.488 -0.012 -0.617 -0.07 c -0.129 -0.059 -0.449 -0.168 -0.711 -0.246 c -0.441 -0.125 -0.48 -0.168 -0.48 -0.5 c 0 -0.199 -0.102 -0.539 -0.227 -0.754 c -0.309 -0.531 -0.285 -0.676 0.141 -0.887 c 0.594 -0.293 0.684 -0.559 0.316 -0.914 c -0.188 -0.184 -0.273 -0.195 -0.57 -0.098 c -0.563 0.191 -1.094 1.16 -0.801 1.469 c 0.148 0.156 0.273 1.145 0.141 1.145 c -0.059 0 -0.48 -0.176 -0.934 -0.387 c -0.453 -0.207 -0.902 -0.383 -1 -0.383 c -0.102 0 -0.328 -0.152 -0.512 -0.336 c -0.184 -0.188 -0.574 -0.461 -0.867 -0.605 c -0.742 -0.367 -0.703 -0.563 0.141 -0.652 c 0.617 -0.07 0.676 -0.098 0.676 -0.336 c 0 -0.199 -0.059 -0.258 -0.273 -0.258 c -0.152 0 -0.305 0.043 -0.34 0.098 c -0.055 0.09 -0.367 0.043 -1.043 -0.156 c -0.336 -0.102 -0.824 0.371 -0.824 0.801 c 0 0.387 -0.52 0.898 -0.914 0.898 c -0.633 0 -0.867 0.531 -0.883 2 c -0.004 0.559 0.02 0.629 0.219 0.629 c 0.23 0 0.289 -0.219 0.238 -0.883 c -0.012 -0.168 0.074 -0.363 0.223 -0.492 c 0.238 -0.207 0.25 -0.207 0.371 -0.012 c 0.5 0.801 0.977 1.473 1.129 1.594 c 0.102 0.082 0.184 0.242 0.184 0.355 c 0 0.117 0.152 0.504 0.336 0.859 c 0.188 0.359 0.34 0.703 0.34 0.762 c 0 0.133 -0.957 0.043 -1.313 -0.121 c -0.188 -0.09 -0.332 -0.055 -0.699 0.168 c -0.512 0.316 -0.695 0.574 -0.695 0.984 c 0 0.578 0.926 0.402 1.082 -0.207 c 0.086 -0.328 0.25 -0.34 0.777 -0.051 c 0.234 0.129 0.613 0.219 0.906 0.219 c 0.484 0 0.504 0.012 0.504 0.32 c 0 0.18 0.051 0.352 0.113 0.391 c 0.063 0.035 0.113 0.234 0.113 0.438 c 0 0.203 0.051 0.402 0.113 0.438 c 0.234 0.145 0.109 0.473 -0.227 0.586 c -0.566 0.191 -0.703 0.91 -0.207 1.063 c 0.395 0.121 0.762 -0.055 1.051 -0.5 c 0.301 -0.457 0.379 -1.172 0.156 -1.391 c -0.066 -0.066 -0.102 -0.184 -0.078 -0.258 c 0.031 -0.082 0.199 0.02 0.449 0.266 c 0.219 0.219 0.449 0.398 0.508 0.398 c 0.23 0 0.715 0.625 0.715 0.926 c 0 0.34 0.594 0.965 1.441 1.52 c 0.516 0.332 0.566 0.52 0.336 1.145 c -0.125 0.332 -0.117 0.391 0.078 0.527 c 0.293 0.211 0.469 0.191 0.742 -0.07 m -5.867 -8.863 c 0 -0.059 0.078 -0.109 0.176 -0.109 c 0.098 0 0.145 0.051 0.105 0.109 c -0.039 0.059 -0.117 0.109 -0.176 0.109 c -0.059 0 -0.105 -0.051 -0.105 -0.109 m 0.563 -0.402 c 0 -0.109 0.359 -0.473 0.469 -0.473 c 0.152 0 0.109 0.188 -0.082 0.375 c -0.18 0.176 -0.387 0.227 -0.387 0.098 m 0.879 -1.043 c 0.121 -0.117 0.363 -0.031 0.363 0.129 c 0 0.129 -0.387 0.199 -0.438 0.078 c -0.023 -0.051 0.012 -0.145 0.074 -0.207" fill="#fff"/><path d="m 13.145 18.586 c 0.023 -0.074 0.074 -0.391 0.113 -0.707 c 0.063 -0.504 0.043 -0.582 -0.172 -0.691 c -0.133 -0.07 -0.395 -0.297 -0.586 -0.504 c -0.188 -0.211 -0.496 -0.457 -0.684 -0.551 c -0.324 -0.164 -0.332 -0.18 -0.129 -0.324 c 0.113 -0.082 0.285 -0.152 0.375 -0.152 c 0.145 0 1.035 0.367 1.621 0.668 c 0.109 0.055 0.48 0.102 0.828 0.102 c 0.547 0 0.676 -0.043 0.961 -0.32 c 0.508 -0.492 0.449 -1.293 -0.191 -2.586 c -0.309 -0.625 -0.34 -0.953 -0.105 -1.141 c 0.129 -0.105 0.191 -0.074 0.324 0.18 c 0.094 0.172 0.453 0.574 0.805 0.895 c 0.492 0.453 0.691 0.57 0.883 0.52 c 0.137 -0.035 0.414 -0.063 0.613 -0.066 c 0.297 0 0.367 -0.043 0.367 -0.23 c 0 -0.176 -0.047 -0.215 -0.195 -0.156 c -0.66 0.254 -0.867 0.203 -1.328 -0.324 c -0.949 -1.082 -1.32 -1.383 -1.629 -1.316 c -0.242 0.051 -0.41 -0.059 -1.09 -0.734 c -0.445 -0.438 -0.867 -0.914 -0.941 -1.055 c -0.188 -0.359 -0.004 -0.523 0.414 -0.367 c 0.742 0.273 1.121 0.262 1.488 -0.039 c 0.215 -0.176 0.352 -0.391 0.352 -0.551 c 0 -0.344 -0.078 -0.332 -0.48 0.074 c -0.297 0.305 -0.383 0.332 -0.855 0.285 c -0.547 -0.051 -1.094 -0.184 -1.625 -0.391 c -0.258 -0.098 -0.309 -0.184 -0.309 -0.508 c 0 -0.215 -0.102 -0.582 -0.227 -0.82 c -0.348 -0.66 -0.301 -0.965 0.168 -1.156 c 0.219 -0.09 0.395 -0.234 0.395 -0.324 c 0 -0.258 -0.246 -0.188 -0.719 0.203 c -0.434 0.355 -0.438 0.363 -0.301 0.789 c 0.074 0.238 0.18 0.566 0.227 0.727 c 0.113 0.355 -0.125 0.746 -0.453 0.746 c -0.285 0 -0.277 0.07 0.063 0.504 c 0.379 0.48 0.359 0.57 -0.141 0.656 c -0.938 0.164 -0.926 0.453 0.059 1.551 c 0.422 0.465 0.859 0.992 0.977 1.172 l 0.211 0.32 l -0.371 -0.227 c -0.203 -0.125 -0.734 -0.523 -1.18 -0.883 c -1.152 -0.938 -1.406 -0.961 -1.629 -0.172 c -0.074 0.254 -0.145 0.305 -0.402 0.285 c -0.176 -0.012 -0.438 -0.129 -0.582 -0.262 c -0.281 -0.258 -0.504 -0.211 -0.273 0.059 c 0.109 0.129 0.09 0.203 -0.102 0.387 c -0.137 0.137 -0.297 0.199 -0.375 0.148 c -0.074 -0.043 -0.363 -0.113 -0.645 -0.148 c -0.277 -0.039 -0.578 -0.09 -0.66 -0.113 c -0.086 -0.027 -0.18 0.016 -0.207 0.09 c -0.031 0.082 0.043 0.137 0.188 0.137 c 0.129 0 0.438 0.102 0.68 0.219 c 0.266 0.133 0.664 0.223 1 0.223 h 0.555 l 0.059 0.41 c 0.035 0.223 0.117 0.629 0.191 0.902 c 0.277 1.055 0.273 1.129 -0.105 1.398 c -0.414 0.301 -0.441 0.461 -0.074 0.461 c 0.191 0 0.34 -0.117 0.516 -0.402 c 0.246 -0.406 0.25 -0.492 0.055 -1.418 c -0.09 -0.414 0.102 -0.574 0.387 -0.324 c 0.109 0.098 0.23 0.176 0.27 0.176 c 0.039 0 0.375 0.281 0.75 0.621 c 0.5 0.461 0.699 0.73 0.754 1.016 c 0.098 0.512 0.371 0.836 1.082 1.281 c 0.324 0.199 0.648 0.477 0.727 0.613 c 0.172 0.297 0.191 0.809 0.039 0.902 c -0.063 0.035 -0.113 0.137 -0.113 0.227 c 0 0.191 0.328 0.211 0.387 0.02 m -3.523 -5.266 c -0.051 -0.254 0.285 -0.227 0.426 0.031 c 0.066 0.117 0.117 0.27 0.117 0.344 c 0 0.191 -0.5 -0.152 -0.543 -0.375 m 3.051 -2.43 c -0.141 -0.094 -0.254 -0.242 -0.254 -0.328 c 0 -0.223 0.113 -0.199 0.418 0.078 c 0.426 0.391 0.309 0.57 -0.164 0.25 m -7.168 1.969 c 0.035 -0.09 0.035 -0.195 -0.004 -0.234 c -0.098 -0.094 -0.418 0.191 -0.344 0.309 c 0.094 0.148 0.273 0.113 0.348 -0.074 m 2.086 -3.801 c 0.41 -0.375 0.855 -0.836 0.984 -1.023 c 0.234 -0.344 0.234 -0.344 0.012 -0.617 c -0.121 -0.152 -0.414 -0.352 -0.648 -0.441 c -0.23 -0.09 -0.539 -0.289 -0.684 -0.438 l -0.262 -0.273 l 0.5 -0.453 l -0.301 -0.133 c -0.25 -0.109 -0.332 -0.098 -0.523 0.07 c -0.129 0.113 -0.223 0.336 -0.223 0.531 c 0 0.449 -0.762 1.16 -1.164 1.086 c -0.316 -0.059 -0.641 0.297 -0.641 0.699 c 0 0.133 -0.051 0.273 -0.113 0.309 c -0.152 0.094 -0.145 0.715 0.008 0.715 c 0.07 0 0.09 -0.094 0.047 -0.223 c -0.055 -0.164 0.035 -0.328 0.336 -0.621 c 0.461 -0.445 0.531 -0.422 0.926 0.293 c 0.426 0.773 0.758 1.199 0.938 1.203 c 0.031 0 0.395 -0.305 0.809 -0.684" fill="#ff4500"/></svg>