<svg xmlns="http://www.w3.org/2000/svg" viewBox="0 0 22 22"><path d="m 2.789 16.383 c -7.781 -8.789 3.734 -18.09 10.484 -15.809 c 6.746 2.289 11.277 8.742 6.871 14.402 c -4.406 5.66 -8.734 11.12 -16.516 2.328" fill="#ff7d53"/><path d="m 10.762 17.02 c -0.098 -0.039 -5.73 -4.699 -5.867 -4.852 c -0.051 -0.059 -0.094 -0.191 -0.094 -0.293 c 0 -0.203 -0.004 -0.199 1.145 -1 l 0.563 -0.395 v -2.648 c 0 -2.594 0.004 -2.648 0.113 -2.789 c 0.203 -0.254 0.391 -0.203 1.133 0.301 c 2.441 1.66 3.07 2.074 3.137 2.074 c 0.07 0 0.469 -0.262 2.934 -1.93 c 0.965 -0.656 1.129 -0.711 1.336 -0.445 c 0.113 0.141 0.113 0.195 0.113 2.793 v 2.645 l 0.566 0.398 c 1.148 0.801 1.145 0.797 1.145 1 c 0 0.102 -0.043 0.234 -0.098 0.293 c -0.156 0.18 -5.766 4.809 -5.875 4.852 c -0.113 0.043 -0.141 0.043 -0.254 0" fill="#fff"/><g fill="#ff7d53"><path d="m 11.711 11.355 c 0.105 -0.961 0.219 -1.77 1.203 -2 c 0.152 -0.039 1.109 -0.309 1.141 -0.348 c 1.461 -0.512 -1.367 1.832 -2.305 2.594 c -0.059 0.047 -0.066 0.008 -0.039 -0.242"/><path d="m 10.25 11.301 c -0.105 -0.961 -0.219 -1.77 -1.203 -2 c -0.152 -0.039 -1.109 -0.309 -1.141 -0.352 c -1.461 -0.508 1.363 1.832 2.305 2.594 c 0.059 0.051 0.066 0.012 0.039 -0.238"/></g></svg>