<svg xmlns="http://www.w3.org/2000/svg" xmlns:xlink="http://www.w3.org/1999/xlink" viewBox="0 0 22 22"><defs><g id="3" clip-path="url(#2)"><path d="m 52.954 149.68 c 0.955 -3.864 0.318 -8.545 2.727 -11.909 c 1 -4.364 3.955 -19.14 3.318 -20.364 c -0.318 -2.273 4.136 -14.318 4.545 -14.591 c 4.864 -1.591 14.955 2.136 15.273 4.773 c -0.909 4.5 0.727 8.545 0.5 13.05 c -1.227 3.955 -8.318 15.727 -9.909 18 c 3.455 5.409 -4.545 12.454 -15.455 11.545 c -0.545 0.045 -1 -0.182 -1 -0.5" transform="scale(0.08594 0.08594)" fill="#fff" fill-rule="evenodd" stroke="#fff" stroke-width="2.443"/></g><g id="6" clip-path="url(#5)"><path d="m 188.14 145.91 c -4.591 -4.909 -6.773 -20.864 -11.05 -24.636 c -0.136 -6.591 -3.909 -11.591 -4.773 -17.727 c 0 -1.818 1.727 -3.136 4.682 -3.5 c 4.773 -2.091 11.818 -0.545 15.727 3.273 c 2.5 6.273 -0.409 14.09 4.273 18.454 c 1.773 7.682 4.273 19.454 1.045 23.773 c -3 -0.591 -7.5 2.636 -9.909 0.364" transform="scale(0.08594 0.08594)" fill="#fff" fill-rule="evenodd" stroke="#fff" stroke-width="2.443"/></g><clipPath id="2"><path d="M 0,0 H22 V22 H0 z"/></clipPath><clipPath id="5"><path d="M 0,0 H22 V22 H0 z"/></clipPath><filter id="0" filterUnits="objectBoundingBox" x="0" y="0" width="22" height="22"><feColorMatrix type="matrix" in="SourceGraphic" values="0 0 0 0 1 0 0 0 0 1 0 0 0 0 1 0 0 0 1 0"/></filter><mask id="4"><g filter="url(#0)"><path fill-opacity="0.922" d="M 0,0 H22 V22 H0 z"/></g></mask><mask id="1"><g filter="url(#0)"><path fill-opacity="0.922" d="M 0,0 H22 V22 H0 z"/></g></mask></defs><path d="m 20.11 4.609 c -4.172 -7.574 -17.242 -4.637 -19.453 1.602 c -2.637 7.43 4.223 21.539 15.836 13.273 c 3.914 -2.887 7.785 -7.301 3.613 -14.875" fill="#d7bfd7"/><use xlink:href="#3" mask="url(#1)"/><use xlink:href="#6" mask="url(#4)"/><g transform="matrix(0.09969 0 0 0.10466 -1.514 -2.092)"><g fill="#f5cca9" stroke="#f5cca9" stroke-width="1.202"><path d="m 139.09 108.37 c -5.447 -2.351 -6.857 -3.135 -15.517 -2.687 c -4.624 0.224 -9.561 0 -7.367 -1.418 c 0.235 -0.149 -7.641 -0.336 -7.092 -0.858 c 0.666 -0.597 7.876 -1.157 10.266 -1.605 c 0.823 -1.829 7.328 -2.65 10.345 -3.62 c 5.564 -1.754 6.701 -0.784 8.268 -0.112 c 1.528 0.597 14.342 6.345 15.09 6.942 c 0.353 0.336 0.392 4.777 0.392 4.927 c -1.646 2.836 -12.97 -1.045 -14.381 -1.568"/><path d="m 89.84 120.12 c -1.489 -1.01 -0.431 -3.844 2.155 -5.71 c 2.861 -2.053 5.995 -2.575 9.208 -1.493 c 0.94 0.299 2.586 0.634 3.683 0.746 c 4.389 0.448 7.837 1.493 7.563 2.351 c -0.196 0.634 -2.312 3.322 -7.01 3.62 c -8.07 0.448 -9.208 0.597 -11.677 2.09 c -1.881 1.082 -3.02 -1.01 -3.918 -1.605"/><path d="m 146.93 137.74 c -6.03 -1.717 -11.716 -8.174 -14.11 -12.167 c -2.586 -4.255 -1.176 -6.419 2.625 -4.105 c 2.038 1.232 12.461 5.86 14.655 7.763 c 3.135 2.687 3.566 7.39 2.273 7.875 c -2.508 1.157 -8.307 4.292 -5.447 0.634"/><path d="m 127.02 139.12 c -1.842 -0.485 -3.213 -2.09 -3.02 -3.508 c 0.196 -1.642 2.625 -1.082 3.918 0.933 c 0.353 0.523 0.627 1.232 0.627 1.568 c 0 0.672 -0.823 1.232 -1.528 1.01"/></g><path d="m 116.21 162.89 c 0 -1.344 -1.842 -2.426 -16.03 -9.405 c -3.527 -2.911 -9.208 -2.948 -12.853 -5 c -0.235 -0.373 -1.685 -0.858 -3.252 -1.12 c -1.528 -0.261 -4.428 -1.381 -6.426 -2.463 c -3.723 -1.941 -4.04 -1.717 -0.823 -4.217 c 4.585 -3.359 0.431 -10 4.976 -13.809 c 1.254 -0.933 1.489 -1.642 1.136 -3.359 c -0.509 -3.21 2.273 -4.964 2.625 -8.02 c 0.196 -1.903 0.627 -2.501 2.273 -2.911 c 1.097 -0.299 3.02 -1.194 4.232 -2.02 c 4.232 -2.687 5.839 -0.149 9.718 0.97 c 1.803 0.523 1.842 0.224 0.431 -4.703 c -0.431 -1.679 9.208 -2.538 11.01 -0.97 c 1.019 0.858 2.704 0.97 9.13 0.597 c 7.602 -0.448 8.19 -0.373 14.498 1.791 c 3.644 1.269 8.503 2.463 10.815 2.687 c 3.723 0.373 4.389 0.224 5.721 -1.157 c 1.411 -1.493 1.411 -1.605 0.196 -2.501 c -2.038 -1.381 -0.078 -2.463 3.02 -1.679 c 3.174 0.821 5.02 3.508 4.389 6.382 c 1.293 3.098 2.821 8.397 3.879 10.674 c 4.04 4.777 2.978 10.711 5.29 12.951 c 1.332 1.306 2.39 2.575 2.39 2.911 c 0 1.306 -3.801 2.314 -9.09 2.389 c -4.937 0.112 -6.074 0.373 -8.346 2.02 c -1.411 1.045 -3.252 1.903 -4.075 1.903 c -2.743 0 -9.169 -3.658 -14.303 -8.136 c -6.505 -5.636 -9.208 -7.614 -10.462 -7.614 c -3.331 0 2.665 6.158 13.676 14.15 c 3.37 2.426 7.641 4.553 7.837 5.374 c 0.509 1.829 -2.782 4.367 -4.428 3.695 c -22.375 -6.01 -20.964 -13.548 -5.094 1.866 c 1.097 1.232 1.763 2.575 1.528 2.986 c -0.745 1.12 -7.524 1.082 -11.834 -1.605 c -8.856 -3.844 -2.743 2.538 2.469 5.15 c 2.704 1.344 4.663 3.471 -1.489 3.993 c -7.484 2.836 -11.129 -1.194 -12.735 -1.791 m 14.851 -21.609 c 0.705 -1.717 -3.096 -5.374 -5.29 -5.636 c -2.625 -0.261 -3.37 1.418 -1.724 3.807 c 1.332 1.941 6.387 3.471 7.01 1.829 m 21.513 -1.903 c 1.528 -0.56 1.528 -2.02 -0.039 -4.255 c -1.92 -2.799 -0.705 -2.762 1.567 0.037 c 1.097 1.381 2.508 2.501 3.096 2.501 c 1.842 0 1.254 -3.359 -1.019 -5.86 c -1.685 -1.829 -2.038 -2.762 -1.607 -4.143 c 1.293 -4.143 1.019 -4.516 -2.861 -4.105 c -4.154 0.448 -5.29 0 -10.345 -4.329 c -2.038 -1.791 -5.133 -3.807 -6.857 -4.553 c -1.685 -0.709 -3.292 -1.754 -3.487 -2.314 c -0.549 -1.381 -7.132 -4.74 -9.248 -4.74 c -1.998 0 -4.82 2.314 -4.82 3.956 c 8.817 2.351 15.752 5.748 22.02 10.562 c 6.74 5.225 7.955 7.763 1.45 3.06 c -6.387 -4.591 -10.697 -5.673 -10.697 -2.613 c 0 4.18 8.973 12.316 17.08 15.489 c 5.133 2.02 4.35 1.829 5.76 1.306 m -58.11 -17.803 c 1.176 -0.597 5.643 -1.418 9.914 -1.829 c 4.232 -0.411 8.03 -1.082 8.464 -1.456 c 2.351 -2.202 -4.467 -4.777 -13.597 -5.076 c -4.04 -0.149 -4.976 0.075 -7.328 1.791 c -5.995 4.367 -3.918 9.741 2.547 6.569" fill="#f39b64" stroke="#f39b64" stroke-width="1.466"/></g><path d="m 7.66 14.164 c -1.039 -0.391 -0.934 -0.277 -1.555 -0.563 c -0.152 -0.066 -0.016 -0.426 -0.082 -0.539 c -0.156 -0.262 -0.07 -0.262 0.25 0.004 c 0.258 0.125 1.063 0.414 1.172 0.418 c 0.559 0.184 1.223 0.496 1.695 0.789 c 0.219 0.137 0.523 0.305 0.672 0.367 c 0.152 0.066 0.273 0.16 0.273 0.207 c 0.293 0.551 -0.137 0.254 -2.426 -0.684 m 2.703 1.25 c -0.043 -0.043 -0.074 -0.168 -0.074 -0.273 c 0 -0.164 0.059 0.047 0.613 0.047 c 0.863 0 1.01 -0.508 0.234 -0.703 c -1.816 -0.77 -1.516 -1.219 -0.969 -0.93 c 0.156 0.082 1.578 0.793 1.801 0.828 c 0.512 0.086 0.664 -0.156 0.297 -0.473 c -0.203 -0.176 -1.879 -1.133 -1.734 -1.195 c 0.461 -0.355 1.941 0.934 2.07 1.023 c 0.203 0.137 0.242 0.113 0.395 0 c 0.273 -0.211 0.141 -0.512 -0.395 -0.84 c -0.523 -0.32 -1.617 -1.281 -1.617 -1.418 c 0 -0.207 0.336 -0.063 0.695 0.305 c 0.66 0.668 1.203 0.691 1.621 1.184 c 0.367 0.102 0.422 0.09 0.66 -0.148 c 0.23 -0.227 0.328 -0.254 0.742 -0.203 c 0.305 0.039 0.57 0.008 0.723 -0.078 c 0.266 -0.148 0.48 -0.047 0.242 0.113 c -0.164 0.105 -0.492 0.336 -0.996 0.297 c -0.227 -0.016 -0.496 -0.129 -0.703 0.055 c -0.164 0.145 -0.359 0.238 -0.434 0.207 c -0.086 -0.035 0.02 0.355 -0.023 0.504 c -0.105 0.363 0.027 0.074 -0.645 0.391 c -0.121 0.059 0.219 1.082 -1.07 0.805 c 0.078 0.527 -0.238 0.66 -0.539 0.602 c -0.59 0.023 -0.688 -0.133 -0.895 -0.098 m 3.563 -3.395 c -0.035 -0.113 -0.445 -0.348 -0.977 -0.773 c -0.531 -0.43 -1.098 -1.066 -1.191 -1.156 c -0.098 -0.09 -0.371 -0.109 -0.445 -0.109 c -0.34 -0.129 -0.48 -0.445 -0.809 -0.395 c -0.289 0.051 -0.332 0.031 -0.301 -0.141 c 0.055 -0.301 0.531 -0.438 0.762 -0.219 c 0.102 0.098 0.258 0.176 0.344 0.176 c 0.246 0.078 0.258 0.414 0.508 0.418 c 0.121 0 0.457 0.23 0.766 0.527 c 0.527 0.504 0.563 0.523 0.984 0.457 c 0.406 -0.066 0.434 -0.055 0.363 0.129 c -0.172 0.445 -0.164 0.531 0.09 0.703 c 0.273 0.191 0.348 0.59 0.113 0.59 c -0.078 0 -0.172 -0.094 -0.207 -0.207 m -7.129 -1.879 c 0.02 -0.051 0.02 -0.418 0.074 -0.453 c 0.055 -0.035 -0.059 0.063 0.125 0.391 c 0.047 0.078 -0.758 2.938 -0.945 2.594 c -0.027 -0.047 0.246 -1.285 0.746 -2.531 m 7.781 -0.309 c -0.078 -0.152 -0.043 -0.438 -0.031 -0.512 c 0.121 -0.66 1.523 3.152 1.121 3.105 c -0.09 0.41 -0.891 -1.992 -1.09 -2.594 m -6.16 -0.434 c -0.125 -0.051 -1.414 0.336 -1.414 0.277 c 0.184 0.016 2.449 -1.25 1.832 -0.926 c 0.059 0.039 -0.152 0.316 -0.18 0.387 c -0.027 0.074 0 0.188 0.063 0.254 c 0.004 0.168 -0.211 0.047 -0.301 0.008 m 0.797 -0.727 c 0.246 0 0.289 0.027 0.176 0.102 c -0.453 0.25 -0.746 -0.098 -0.176 -0.102 m 3.219 -0.523 c -1.195 -0.656 1.184 -0.121 1.344 0.684 c 0 0.078 -0.949 -0.488 -1.344 -0.684 m -1.277 -0.137 c 0.188 -0.051 0.719 -0.348 0.965 -0.129 c 0 0.098 -1.523 0.574 -2.207 0.707 c -0.176 0.031 -0.172 -0.082 -0.219 -0.082 c -0.094 -0.004 1.309 -0.445 1.461 -0.496" fill="#d1764c"/></svg>