<svg xmlns="http://www.w3.org/2000/svg" viewBox="0 0 22 22"><path d="m 14.02 0.91 c -11.465 -4.07 -17.04 10.555 -12.371 16.05 c 4.668 5.492 12.664 7.371 16.691 1.148 c 4.02 -6.223 7.145 -13.13 -4.32 -17.199" fill="#292929"/><g fill="#ff8c00"><path d="m 2.625 12.426 c -0.086 -0.102 0.035 -0.648 0.566 -2.613 c 0.297 -1.086 0.375 -1.258 0.602 -1.348 c 0.242 -0.094 1.598 -0.152 1.547 -0.07 c -0.023 0.039 -0.184 0.613 -0.328 0.637 c -0.57 0.09 -0.801 0.047 -0.867 0.223 c -0.109 0.273 -0.211 0.84 -0.172 0.938 c 0.023 0.059 0.133 0.086 0.344 0.086 c 0.281 0 0.305 0.012 0.289 0.137 c -0.016 0.109 -0.094 0.16 -0.355 0.234 c -0.234 0.066 -0.355 0.141 -0.41 0.254 c -0.09 0.168 -0.281 1.047 -0.281 1.277 c -0.07 0.43 -0.93 0.25 -0.934 0.246"/><path d="m 4.719 11.805 c 0.047 -0.242 0.223 -0.922 0.387 -1.508 c 0.168 -0.59 0.355 -1.277 0.414 -1.535 c 0.105 -0.434 0.125 -0.469 0.297 -0.5 c 0.266 -0.055 0.602 -0.047 0.602 0.016 c 0 0.027 -0.055 0.207 -0.121 0.398 c -0.113 0.328 -0.625 2.766 -0.625 2.988 c 0.176 0.168 0.352 0.074 0.637 0.047 c -0.027 0.133 -0.055 0.332 -0.098 0.457 c -0.602 0.109 -0.949 0.047 -1.578 0.082"/><path d="m 6.418 12.09 c 0.004 -0.246 0.207 -1.277 0.379 -1.879 c 0.098 -0.359 0.211 -0.82 0.25 -1.027 c 0.098 -0.531 0.332 -0.996 0.539 -1.074 c 0.25 -0.098 1.074 -0.199 1.574 -0.199 c 0.43 0 0.434 0 0.434 0.172 c 0 0.145 -0.34 1.602 -0.762 3.27 c -0.07 0.266 -0.164 0.523 -0.211 0.57 c -0.109 0.109 -0.148 0.199 -0.555 0.195 c -0.535 -0.012 -0.27 -0.164 -0.125 -0.672 c 0.137 -0.488 0.195 -1.078 0.109 -1.129 c -0.031 -0.023 -0.145 -0.012 -0.246 0.023 c -0.176 0.063 -0.199 0.109 -0.379 0.793 c -0.105 0.402 -0.199 0.793 -0.207 0.871 c -0.02 0.133 -0.059 0.148 -0.41 0.164 c -0.328 0.02 -0.391 0.008 -0.391 -0.078 m 1.922 -2.199 c 0.117 -0.051 0.031 -0.168 0.125 -0.48 c 0.207 -0.68 0.273 -0.996 0.234 -1.094 c -0.051 -0.137 -0.43 -0.125 -0.559 0.02 c -0.199 0.219 -0.441 1.457 -0.309 1.586 c 0.141 0.07 0.914 -0.133 0.508 -0.031"/><path d="m 9.535 11.406 c 0.039 -0.191 0.121 -0.52 0.184 -0.723 c 0.395 -1.316 0.648 -2.113 0.633 -2.316 c -0.02 -0.207 -0.324 -0.098 -0.508 -0.117 c -0.234 -0.02 -0.117 -0.426 0.09 -0.473 c 0.582 -0.129 2.023 -0.16 2.023 -0.059 c 0 0.063 0.008 0.371 -0.203 0.375 c -0.105 0 -0.43 0.059 -0.504 0.234 c -0.121 0.289 -0.844 3.047 -0.848 3.242 c -0.023 0.355 0.109 0.348 -0.309 0.379 c -0.879 -0.063 -0.754 0.195 -0.559 -0.543"/><path d="m 11.04 11.602 c -0.023 -0.055 0.008 -0.23 0.07 -0.387 c 0.199 -0.516 0.41 -1.203 0.695 -2.234 c 0.152 -0.563 0.301 -1.066 0.332 -1.121 c 0.133 -0.25 0.289 -0.309 1.109 -0.41 c 0.789 -0.102 1.199 -0.09 1.199 0.035 c 0 0.098 -0.5 2.23 -0.707 3.01 c -0.195 0.746 -0.316 0.965 -0.527 0.965 c -0.48 0.102 -0.992 0.195 -1.461 0.215 c -0.574 0.02 -0.68 0.008 -0.711 -0.074 m 1.527 -0.5 c 0.129 -0.109 0.816 -2.207 0.945 -2.879 c 0.09 -0.469 -0.055 -0.652 -0.402 -0.52 c -0.184 0.07 -0.363 0.594 -0.656 1.922 c -0.309 1.383 -0.324 1.477 -0.234 1.535 c 0.121 0.074 0.207 0.063 0.348 -0.059"/><path d="m 13.852 11.262 c 0.078 -0.867 0.426 -1.73 0.609 -2.414 c 0.207 -0.77 0.41 -1.438 0.449 -1.48 c 0.234 -0.121 0.445 -0.125 0.711 -0.156 l -0.039 0.211 c -0.023 0.117 -0.207 0.902 -0.41 1.746 c -0.203 0.844 -0.352 1.578 -0.328 1.637 c 0.152 0.137 0.348 -0.027 0.555 -0.047 l 0.246 -1.039 c 0.148 -0.641 0.383 -1.438 0.477 -1.789 c 0.094 -0.348 0.199 -0.68 0.238 -0.734 c 0.246 -0.148 0.465 -0.141 0.754 -0.168 l -0.176 0.863 c -0.238 1.156 -0.707 2.941 -0.813 3.109 c -0.094 0.148 -0.43 0.227 -1.484 0.336 c -0.793 0.082 -0.789 0.082 -0.789 -0.074"/><path d="m 16.961 11.06 c -0.035 -0.09 0.234 -1.203 0.598 -2.461 c 0.102 -0.359 0.207 -0.789 0.227 -0.953 l 0.039 -0.301 l -0.215 0.039 c -0.227 0.043 -0.313 -0.012 -0.383 -0.246 c -0.039 -0.121 0.012 -0.133 0.977 -0.238 c 0.559 -0.059 1.063 -0.09 1.121 -0.07 c 0.191 0.074 0.191 0.297 -0.109 0.383 c -0.172 0.051 -0.418 0.063 -0.438 0.129 c -0.016 0.059 -0.188 0.723 -0.379 1.477 c -0.508 1.996 -0.559 2.141 -0.813 2.246 c -0.273 0.113 -0.582 0.113 -0.625 -0.004"/><path d="m 11.02 16.383 c -0.016 -0.371 0.223 -1.23 0.402 -1.824 c 0.16 -0.406 0.59 -1.906 0.621 -1.922 c 0.305 -0.16 1.031 -0.195 1.223 -0.152 c 0.59 0.137 0.602 0.457 0.242 1.492 c -0.129 0.371 -0.578 0.266 -0.566 -0.012 c 0.008 -0.121 0.18 -0.543 0.109 -0.633 c -0.09 -0.113 -0.559 0.121 -0.574 0.121 c -0.09 0.02 -0.426 0.844 -0.465 1.426 c -0.02 0.27 -0.277 0.785 -0.203 0.902 c 0.16 0.258 0.711 0.117 0.789 -0.133 c 0.121 -0.539 0.066 -0.824 0.402 -0.867 c 0.176 -0.023 0.34 -0.027 0.367 -0.004 c 0.031 0.02 0.012 0.246 -0.035 0.504 c -0.121 0.625 -0.008 1.336 -1.02 1.363 c -1.035 0.188 -1.543 0.219 -1.293 -0.262"/><path d="m 7.918 16.883 c 0.078 -0.867 0.426 -1.734 0.609 -2.418 c 0.207 -0.77 0.406 -1.434 0.445 -1.477 c 0.238 -0.125 0.449 -0.125 0.715 -0.16 l -0.039 0.215 c -0.023 0.113 -0.207 0.898 -0.41 1.742 c -0.203 0.844 -0.352 1.582 -0.332 1.641 c 0.156 0.137 0.352 -0.027 0.559 -0.047 l 0.246 -1.043 c 0.148 -0.637 0.383 -1.434 0.477 -1.785 c 0.09 -0.348 0.199 -0.68 0.238 -0.734 c 0.246 -0.152 0.461 -0.141 0.754 -0.172 l -0.176 0.863 c -0.242 1.16 -0.707 2.945 -0.813 3.113 c -0.098 0.148 -0.43 0.223 -1.488 0.336 c -0.793 0.082 -0.785 0.082 -0.785 -0.074"/></g></svg>