<svg xmlns="http://www.w3.org/2000/svg" viewBox="0 0 22 22"><path d="m 10.125 21.848 c 13.07 1.25 16.586 -19.824 3.164 -21.461 c -12.34 -2.027 -18.691 17.07 -6.434 20.895 c 1.039 0.418 2.172 0.41 3.27 0.566" fill="#8d9593"/><g fill="#fff"><path d="m 6.621 10.08 c -0.422 -0.344 -0.859 -1.086 -0.973 -1.648 c -0.449 -1.461 0.797 -1.074 1.813 -0.57 c 1.098 0.543 1.297 0.773 1.066 1.215 c -0.156 0.309 -0.738 1.305 -0.812 1.527 c -0.09 0.27 -0.574 -0.098 -1.094 -0.523"/><path d="m 4.02 14.438 c -0.375 -0.605 2.211 -2.664 3.516 -2.664 c 0.965 0 1.258 0.5 1.258 1.129 c 0 1.266 -4.117 2.594 -4.773 1.535"/><path d="m 10.129 17.406 c -0.238 -0.238 -0.832 -1.648 -0.676 -2.754 c 0.137 -1.617 0.063 -1.738 1.609 -1.738 c 0.754 0 1.766 -1.328 2.16 -1.539 c 0.5 -0.266 0.977 0.566 1.719 0.883 c 1.215 0.52 2.801 2.164 2.801 2.641 c 0 0.551 -1.664 0.324 -3.395 -0.457 c -2.73 -1.242 -3.121 -1.09 -2.863 1.098 c 0.172 1.441 0.094 1.906 -0.352 2.078 c -0.316 0.121 -0.77 0.027 -1 -0.211"/><path d="m 13.648 10.266 c 0 -0.313 0.035 -1.01 -0.258 -1.332 c -0.492 -0.547 -0.434 -0.602 0.844 -0.82 c 1.645 -0.277 3.52 0.07 3.336 0.621 c -0.191 0.586 -2.289 1.926 -3.02 1.926 c -0.363 0 -0.906 -0.07 -0.906 -0.395"/></g><path d="m 114.73 142.77 c -4.727 -1.409 -9.227 -4.409 -13.5 -8.955 c -4.636 -4.955 -5.5 -7.364 -4.227 -12.05 c 1.318 -5.091 5.5 -10.636 11.864 -15.818 c 6.364 -4.591 25.318 -14 29.23 -7.545 c 0.5 0.818 3.318 3.455 6.364 5.864 c 6.136 4.864 7.091 5.864 7.955 8.455 c 0.864 2.5 -0.182 5.636 -4 11.818 c -9.09 14.682 -22.05 21.727 -33.682 18.227" transform="scale(0.08594)" fill="#f2c26c" stroke="#181919" stroke-width="4"/><path d="m 11.992 7.902 c -0.469 -0.43 -1.01 -0.027 -1.637 0.121 c -0.324 0.074 -0.895 0.211 -0.93 0.227 c -0.121 0.047 1.18 -1.949 1.512 -2.301 c 0.52 -0.547 0.953 -0.656 1.246 -0.348 c 0.402 0.426 0.668 2.059 0.383 2.371 c -0.141 0.156 -0.387 0.125 -0.574 -0.07" fill="#fff"/></svg>