<svg xmlns="http://www.w3.org/2000/svg" xmlns:xlink="http://www.w3.org/1999/xlink" viewBox="0 0 22 22"><defs><g id="3" clip-path="url(#2)"><path d="m 5.996 13.156 h 6.27 v 0.297 h -6.27"/><path d="m 5.996 13.754 h 6.27 v 0.301 h -6.27"/><path d="m 5.996 14.355 h 6.27 v 0.297 h -6.27"/><path d="m 5.996 14.953 h 6.27 v 0.301 h -6.27"/></g><clipPath id="2"><path d="M 0,0 H22 V22 H0 z"/></clipPath><filter id="0" filterUnits="objectBoundingBox" x="0" y="0" width="22" height="22"><feColorMatrix type="matrix" in="SourceGraphic" values="0 0 0 0 1 0 0 0 0 1 0 0 0 0 1 0 0 0 1 0"/></filter><mask id="1"><g filter="url(#0)"><path fill-opacity="0.4" d="M 0,0 H22 V22 H0 z"/></g></mask></defs><path d="m 21.289 7.977 c 4.105 11.465 -10.656 17.04 -16.199 12.371 c -5.547 -4.668 -7.441 -12.664 -1.16 -16.691 c 6.281 -4.02 13.25 -7.145 17.359 4.32" fill="#66cdaa"/><path d="m 15.973 6.262 h -10.262 c -0.316 0 -0.57 0.27 -0.57 0.602 v 8.391 c 0 0.328 0.254 0.598 0.57 0.598 h 10.262 c 0.313 0 0.566 -0.27 0.566 -0.598 v -8.391 c 0 -0.332 -0.254 -0.602 -0.566 -0.602" fill="#3d816f"/><path d="m 5.711 6.262 c -0.316 0 -0.57 0.27 -0.57 0.602 v 0.301 c 0 -0.332 0.254 -0.602 0.57 -0.602 h 10.262 c 0.313 0 0.566 0.27 0.566 0.602 v -0.301 c 0 -0.332 -0.254 -0.602 -0.566 -0.602 h -10.262" fill="#fff" fill-opacity="0.102"/><path d="m 5.141 14.953 v 0.301 c 0 0.332 0.254 0.598 0.57 0.598 h 10.262 c 0.313 0 0.566 -0.266 0.566 -0.598 v -0.301 c 0 0.332 -0.254 0.598 -0.566 0.598 h -10.262 c -0.316 0 -0.57 -0.266 -0.57 -0.598" fill-opacity="0.302"/><g fill="#f4f4f4"><path d="m 5.996 7.461 h 9.691 v 5.395 h -9.691" fill-opacity="0.2"/><path d="m 5.996 7.164 h 9.691 v 5.391 h -9.691"/></g><path d="m 15.973 14.652 c 0 0.332 -0.258 0.602 -0.57 0.602 c -0.316 0 -0.57 -0.27 -0.57 -0.602 c 0 -0.332 0.254 -0.598 0.57 -0.598 c 0.313 0 0.57 0.266 0.57 0.598" fill="#9acd31"/><use xlink:href="#3" mask="url(#1)"/><path d="m 12.887 8.91 l -0.18 0.109 c -0.082 0.047 -0.105 0.152 -0.055 0.234 l 1.426 2.18 c 0.051 0.078 0.16 0.105 0.242 0.055 l 0.18 -0.105 c 0.082 -0.051 0.105 -0.156 0.055 -0.238 l -1.422 -2.18 c -0.055 -0.078 -0.164 -0.105 -0.246 -0.055" fill="#e64c3c"/><path d="m 14.387 8.242 c 0.172 0 0.309 0.137 0.309 0.309 v 2.773 c 0 0.172 -0.137 0.309 -0.309 0.309 c -0.172 0 -0.313 -0.137 -0.313 -0.309 v -2.773 c 0 -0.172 0.141 -0.309 0.313 -0.309" fill="#9acd31"/></svg>