<svg xmlns="http://www.w3.org/2000/svg" viewBox="0 0 22 22"><path d="m 19.852 4.73 c 10.996 16.355 -24.07 26.43 -19.426 5.285 c 1.977 -8.734 14.383 -14.04 19.426 -5.285" fill="#778799"/><path d="m 16.574 10.523 c 0 2.203 -2.473 3.988 -5.523 3.988 c -3.055 0 -5.527 -1.785 -5.527 -3.988 c 0 -2.207 2.473 -3.992 5.527 -3.992 c 3.051 0 5.523 1.785 5.523 3.992" fill="#fff"/><path d="m 4.883 18.27 c -0.156 -0.16 -0.141 -0.195 0.371 -0.809 c 0.266 -0.313 0.598 -0.75 0.746 -0.969 c 0.313 -0.473 0.625 -1.277 0.563 -1.445 c -0.023 -0.066 -0.238 -0.242 -0.477 -0.398 c -0.648 -0.414 -1.645 -1.48 -1.922 -2.047 c -1.367 -2.805 0.379 -5.715 4.133 -6.883 c 1.125 -0.348 2.09 -0.457 3.535 -0.402 c 1.379 0.055 2.141 0.199 3.211 0.602 c 2.027 0.77 3.445 2.141 3.887 3.758 c 0.219 0.793 0.219 1.234 0 2.027 c -0.402 1.477 -1.551 2.695 -3.309 3.52 c -1.332 0.621 -2.559 0.867 -4.375 0.867 h -1.207 l -0.402 0.32 c -0.895 0.711 -1.895 1.227 -3.152 1.621 c -0.961 0.305 -1.465 0.379 -1.602 0.238 m 8.734 -4.758 c 0.156 -0.078 0.367 -0.223 0.469 -0.316 c 0.215 -0.199 0.387 -0.746 0.313 -0.988 c -0.043 -0.137 -1 -0.75 -1.48 -0.945 c -0.113 -0.047 -0.258 0.035 -0.563 0.324 c -0.492 0.465 -0.59 0.457 -1.301 -0.086 c -0.469 -0.359 -0.914 -0.883 -1.242 -1.465 l -0.156 -0.273 l 0.395 -0.402 c 0.215 -0.223 0.391 -0.465 0.391 -0.539 c 0 -0.07 -0.18 -0.449 -0.402 -0.84 l -0.406 -0.707 l -0.375 0.004 c -0.504 0.008 -0.785 0.211 -1.027 0.742 c -0.246 0.527 -0.262 1.043 -0.047 1.668 c 0.578 1.707 1.992 3.18 3.652 3.797 c 0.727 0.273 1.289 0.281 1.781 0.027" fill="#1b96de"/></svg>