<svg xmlns="http://www.w3.org/2000/svg" viewBox="0 0 22 22"><path d="m 4.535 19.855 c 16.539 10.996 26.727 -24.07 5.344 -19.43 c -8.836 1.98 -14.199 14.387 -5.344 19.43" fill="#dcdcdc"/><path d="m 14.664 17.934 c -0.125 -0.047 -0.359 -0.113 -0.52 -0.145 c -0.367 -0.07 -1.609 -1.125 -1.891 -1.605 l -0.211 -0.359 l -1.055 -0.063 c -0.977 -0.055 -1.078 -0.082 -1.328 -0.344 c -0.25 -0.266 0.051 -0.09 -0.137 0.063 c -0.313 -0.047 -0.793 0.027 -1.086 -0.156 c -0.121 -0.078 -0.391 -0.176 -0.594 -0.215 c -0.246 -0.051 -0.992 -0.488 -1.105 -0.691 c -0.125 -0.223 0.313 0.016 0.086 0.016 c -0.219 0 -0.527 -0.18 -1.059 -0.613 c -0.594 -0.488 -0.848 -0.797 -1.227 -1.492 c -0.262 -0.484 0.141 -0.035 0.047 0.07 c -0.145 0.156 -0.824 -1.16 -0.703 -1.852 c 0.188 -1.105 0.184 -1.375 0.418 -1.473 c 0.168 -0.066 -0.027 0.246 0.016 0.004 c 0.066 -0.371 0.617 -1.316 0.988 -1.695 c 0.531 -0.543 2.133 -1.594 2.426 -1.598 c 0.082 0 0.297 -0.074 0.484 -0.168 c 0.188 -0.094 0.516 -0.195 0.734 -0.23 c 0.297 -0.051 0.289 -0.09 0.457 -0.137 c 0.32 -0.094 0.273 -0.09 1.707 -0.172 c 1.285 -0.074 2.363 0.301 2.352 0.398 c -0.047 0.316 -0.648 -0.102 -0.285 -0.102 c 0.211 0 0.445 0.07 0.52 0.152 c 0.078 0.082 0.324 0.18 0.551 0.211 c 0.656 0.094 1.367 0.434 1.512 0.723 c 0.078 0.16 0.055 -0.012 0.438 0.32 c 0.344 0.297 1.039 0.691 1.566 1.609 l 0.41 0.82 l 0.051 1.203 c 0.051 1.215 0 1.219 -0.457 2.047 c -0.523 0.949 -1.344 1.699 -2.637 2.406 l -0.773 0.426 l 0.078 0.668 c 0.043 0.367 0.133 0.773 0.195 0.902 c 0.121 0.242 0.609 0.453 1.055 0.453 c 0.137 0 0.371 0.086 0.516 0.195 c 0.227 0.164 0.242 0.215 0.109 0.359 c -0.164 0.184 -1.238 0.223 -1.648 0.063 m -0.824 -1.398 c -0.121 -0.813 -0.141 -1.68 -0.043 -1.914 c 0.086 -0.191 0.336 -0.367 0.855 -0.594 c 1.156 -0.5 2.199 -1.531 2.555 -2.52 c 0.188 -0.523 0.152 -1.715 -0.07 -2.332 c -0.313 -0.871 -1.496 -1.957 -2.645 -2.43 c -1.215 -0.504 -2.02 -0.668 -3.281 -0.672 c -1.184 -0.008 -2.34 0.215 -3.156 0.605 c -0.16 0.074 -0.332 0.137 -0.383 0.137 c -0.223 0.004 -1.383 0.895 -1.801 1.383 c -2.02 2.375 -0.449 5.379 3.336 6.379 c 0.383 0.102 1.047 0.168 1.719 0.168 c 1.012 0 1.109 0.016 1.371 0.258 c 0.156 0.141 0.371 0.43 0.477 0.641 c 0.402 0.813 1.152 1.434 1.066 0.891 m -6 -3.598 c -0.164 -0.105 -0.246 -0.254 -0.227 -0.391 c 0.031 -0.191 0.113 -0.223 0.563 -0.227 c 0.578 -0.004 0.887 -0.172 0.887 -0.48 c 0 -0.168 -0.051 -0.191 -0.332 -0.133 c -0.668 0.133 -1.137 -0.387 -1.137 -1.254 c 0 -0.582 0.238 -0.965 0.836 -1.332 c 0.309 -0.191 0.504 -0.242 0.742 -0.195 c 0.629 0.125 0.691 0.301 0.645 1.711 c -0.047 1.332 -0.188 1.832 -0.621 2.188 c -0.324 0.27 -1.031 0.328 -1.355 0.113 m 1.16 -2.063 c 0.098 -0.09 0.184 -0.215 0.188 -0.281 c 0.094 -0.91 0.039 -1.059 -0.336 -0.949 c -0.492 0.141 -0.77 1.074 -0.383 1.281 c 0.27 0.141 0.324 0.137 0.531 -0.051 m 1.914 0.781 c -0.363 -0.133 -0.719 -0.656 -0.719 -1.059 c 0 -0.457 0.387 -1.258 0.707 -1.461 c 0.398 -0.254 0.852 -0.195 1.242 0.156 c 0.301 0.277 0.324 0.336 0.184 0.465 c -0.133 0.121 -0.223 0.125 -0.535 0.02 c -0.352 -0.121 -0.391 -0.113 -0.645 0.16 c -0.285 0.301 -0.367 0.828 -0.148 0.953 c 0.07 0.039 0.398 0.066 0.73 0.059 c 0.754 -0.016 0.875 0.137 0.402 0.516 c -0.363 0.301 -0.758 0.359 -1.219 0.191 m 2.328 -0.129 c -0.879 -0.844 -0.371 -2.574 0.758 -2.574 c 0.488 0 0.969 0.531 1.031 1.141 c 0.129 1.203 -1.047 2.145 -1.789 1.434 m 0.887 -0.648 c 0.273 -0.176 0.336 -0.637 0.137 -0.98 c -0.133 -0.223 -0.449 -0.262 -0.652 -0.074 c -0.184 0.164 -0.18 1.078 0.004 1.145 c 0.223 0.082 0.246 0.078 0.512 -0.09" fill="#2f4e4e"/></svg>