<svg xmlns="http://www.w3.org/2000/svg" viewBox="0 0 22 22"><path d="m 2.102 16.879 c -11.969 -21.68 31.758 -22.703 16.707 -0.352 c -3.973 5.75 -13.484 8.555 -16.707 0.352" fill="#696969"/><path d="m 68.01 43.685 c -1.292 -1.267 -1.58 -4.336 -1.752 -15.736 c -0.261 -26.53 -0.156 -28.806 2.05 -30.967 c 2.476 -2.525 8.571 -1.702 10.203 1.466 c 0.645 1.128 2.55 3.99 4.248 6.282 c 1.76 2.346 4.999 7.23 7.181 10.891 c 2.179 3.604 4.432 6.446 5.01 6.298 c 0.57 -0.207 1.203 -5.539 1.477 -12.07 c 0.421 -10.153 0.785 -11.977 2.463 -13.177 c 2.737 -2.02 6.3 -1.75 7.535 0.568 c 1.557 2.882 1.567 44.678 -0.014 46.571 c -1.362 1.648 -5.244 1.923 -7.824 0.496 c -0.957 -0.47 -5.717 -6.549 -10.642 -13.492 c -4.922 -6.885 -9.485 -12.567 -10.239 -12.525 c -0.931 -0.006 -1.246 2.689 -1.291 11.249 c 0.016 8.615 -0.331 11.777 -1.515 13.474 c -1.832 2.606 -4.667 2.881 -6.884 0.676 m 46.64 -38.644 c -1.598 -1.54 -1.558 -4.977 0.02 -6.928 c 1.253 -1.525 19.06 -11.836 20.509 -11.859 c 0.406 -0.023 1.868 -0.92 3.262 -1.987 c 1.394 -1.068 3.03 -1.974 3.668 -2.01 c 0.583 0.026 3.971 -1.794 7.453 -4.03 c 3.543 -2.178 7.259 -4.365 8.393 -4.894 c 1.079 -0.468 3.085 -2.036 4.399 -3.506 l 2.473 -2.583 l -0.174 -41.612 c -0.149 -27.643 -0.548 -42.06 -1.237 -42.95 c -0.619 -0.664 -2.974 -2.22 -5.307 -3.37 c -4.311 -2.204 -9.05 -4.733 -11.689 -6.215 c -0.783 -0.48 -3.054 -1.575 -4.965 -2.458 c -1.969 -0.879 -4.672 -2.416 -6.01 -3.389 c -1.392 -0.97 -6.799 -4.04 -12.01 -6.779 c -5.21 -2.677 -11.329 -6 -13.494 -7.278 c -7.391 -4.243 -13.99 -7.832 -17.457 -9.501 c -3.705 -1.772 -8.392 -1.335 -10.997 0.965 c -1.826 1.674 -7.855 5.155 -17.52 10.178 c -10.912 5.617 -13.504 7.101 -15.443 8.84 c -0.94 0.868 -2.354 1.587 -3.111 1.571 c -0.757 -0.016 -2.966 1.039 -4.931 2.313 c -8.48 5.423 -18.13 10.678 -19.585 10.701 c -0.641 -0.022 -3.105 1.687 -5.433 3.739 l -4.212 3.729 l 0.141 41.03 c 0.083 31.663 0.389 41.31 1.372 42.24 c 1.17 1.157 4.656 3.174 15.688 9.08 c 1.917 0.999 6.177 3.322 9.479 5.174 c 3.299 1.795 9.473 5.058 13.781 7.204 c 5.687 2.883 7.875 4.565 8.323 6.345 c 1.797 7.176 -3.264 7.168 -16.754 -0.052 c -5.697 -3.057 -12.166 -6.421 -14.322 -7.523 c -6.644 -3.354 -18.288 -9.804 -22.387 -12.369 l -3.86 -2.462 l -0.532 -10.565 c -0.266 -5.806 -0.416 -27.22 -0.273 -47.544 c 0.247 -37.21 0.497 -40.02 3.812 -40.03 c 0.583 0.026 1.768 -0.623 2.654 -1.429 c 0.831 -0.745 6.979 -4.174 13.594 -7.572 c 6.554 -3.452 12.702 -6.882 13.533 -7.627 c 0.889 -0.748 1.958 -1.39 2.367 -1.355 c 0.406 -0.023 1.926 -0.923 3.317 -2.048 c 1.394 -1.068 3.204 -1.984 4.077 -1.975 c 0.815 0.013 2.232 -0.649 3.121 -1.397 c 1.439 -1.303 4.992 -3.306 24.413 -13.824 c 4.29 -2.336 9.256 -5.059 11.01 -6.03 c 4.061 -2.265 6.799 -2.185 9.78 0.151 c 1.279 1.034 5.304 3.312 8.835 5.094 c 3.589 1.778 7.182 3.615 8.03 4.149 c 0.841 0.477 3.895 2.052 6.879 3.399 c 2.929 1.408 6.834 3.634 8.597 4.991 c 1.763 1.357 3.686 2.471 4.269 2.497 c 0.638 -0.036 2.384 1.031 3.912 2.342 c 1.585 1.308 3.989 2.687 5.352 3.135 c 1.363 0.448 3.58 1.604 4.859 2.639 c 1.337 1.031 2.781 1.882 3.303 1.853 c 2.094 -0.001 25.989 14.379 27.385 16.455 c 1.334 2.02 1.524 8.53 1.387 46.667 c -0.091 24.396 -0.55 45.32 -1 46.568 c -0.505 1.367 -3.632 3.696 -7.642 5.842 c -10.793 5.669 -19.923 10.895 -21.427 12.09 c -0.779 0.626 -4.728 2.826 -8.857 4.92 c -4.132 2.036 -9.884 5.269 -12.805 7.12 c -5.559 3.571 -8.09 4.12 -10 2.132 m -6.469 -16.869 c -0.963 -0.586 -1.721 -1.65 -1.763 -2.404 c 0.041 -2.389 4.942 -7.32 8.04 -8.02 c 1.607 -0.381 3.198 -1.052 3.517 -1.594 c 0.322 -0.484 2.229 -1.755 4.264 -2.8 c 5.092 -2.555 10.96 -5.794 15.688 -8.62 c 8.892 -5.329 15.868 -8.514 17.528 -7.967 c 2.072 0.641 3.124 5.937 1.549 7.947 c -0.596 0.79 -4.193 3.03 -8.093 5.05 c -3.846 1.962 -7.63 3.978 -8.474 4.491 c -9.282 5.642 -27.2 14.97 -28.651 14.993 c -0.992 -0.061 -2.645 -0.492 -3.608 -1.079 m -86.42 -21.707 c -2.893 -1.817 -3.301 -7.03 -3.344 -42.13 c -0.003 -33.36 0.147 -35.867 1.864 -37.418 c 2.161 -1.926 5.289 -2.159 6.955 -0.448 c 1.724 1.708 1.734 77.849 0.027 79.57 c -1.378 1.358 -3.752 1.549 -5.502 0.424 m 128.68 -71.53 c -1.379 -0.738 -4.388 -2.549 -6.737 -3.989 c -2.294 -1.502 -4.63 -2.71 -5.152 -2.68 c -0.525 -0.029 -2.213 -1.099 -3.796 -2.349 c -1.527 -1.312 -3.934 -2.749 -5.294 -3.138 c -1.421 -0.444 -3.699 -1.656 -5.152 -2.68 c -1.453 -1.025 -3.187 -1.859 -3.824 -1.823 c -1.105 0.004 -5.571 -2.89 -9.531 -6.103 c -1.099 -0.928 -3.309 -1.969 -4.959 -2.342 c -1.591 -0.377 -3.985 -1.581 -5.384 -2.667 c -1.337 -1.031 -2.784 -1.94 -3.19 -1.917 c -0.406 0.023 -3.644 -1.717 -7.137 -3.85 c -7.285 -4.424 -9.658 -8.366 -6.415 -10.701 c 2.01 -1.51 5.991 -1.034 8.547 0.977 c 0.851 0.651 3.976 2.455 7.03 4.03 c 14.911 7.664 16.413 8.512 25.05 14.199 c 1.933 1.289 4.144 2.329 4.901 2.345 c 0.757 0.016 2.072 0.641 2.983 1.347 c 0.857 0.767 6.505 4 12.556 7.156 c 6.05 3.212 11.345 6.292 11.728 6.911 c 1.396 2.076 0.818 7.347 -0.835 7.964 c -2.161 0.878 -2.516 0.781 -5.39 -0.688" transform="matrix(0.06716 0.00376 -0.00375 0.0671 4.471 14.676)" fill="#fff" stroke="#fff"/></svg>