<svg xmlns="http://www.w3.org/2000/svg" viewBox="0 0 22 22"><g fill="#ff4500"><path d="m 7.566 7.668 c 0 1.051 0.844 1.902 1.883 1.902 c 1.043 0 1.887 -0.852 1.887 -1.902 c 0 -1.051 -0.844 -1.902 -1.887 -1.902 c -1.039 0 -1.883 0.852 -1.883 1.902"/><path d="m 7.34 14.348 c 0 1.051 0.844 1.898 1.887 1.898 c 1.039 0 1.887 -0.852 1.887 -1.898 c 0 -1.051 -0.848 -1.902 -1.887 -1.902 c -1.043 0 -1.887 0.852 -1.887 1.902"/><path d="m 14.57 10.691 c 0 1.051 0.844 1.902 1.887 1.902 c 1.039 0 1.883 -0.852 1.883 -1.902 c 0 -1.047 -0.844 -1.898 -1.883 -1.898 c -1.043 0 -1.887 0.852 -1.887 1.898"/></g><path d="m 19.789 4.566 c 10.855 16.34 -23.766 26.402 -19.18 5.281 c 1.953 -8.73 14.203 -14.03 19.18 -5.281" fill="#b79aff"/><g fill="#ffd600" fill-rule="evenodd" stroke="#ffd600"><path d="m 84.32 198.41 c -2.091 -5.955 0.409 -10.409 14.909 -26.727 c 19.409 -21.909 19.864 -23.909 8.182 -37.14 c -11.773 -13.273 -13.909 -20.909 -9.909 -35 c 2.773 -9.818 6.273 -15.773 13.818 -23.591 c 7.455 -7.682 14.864 -11.409 24.455 -12.409 c 20 -2.091 30.409 12.5 26 36.409 c -5.409 29.364 -33.18 68.68 -65.955 93.36 l -10.545 7.909" transform="scale(0.08594)" stroke-width="1.23"/><g stroke-width="1.142"><path d="m 67.971 59.27 l -4.091 -8.727 l -6.091 -7.5 l 8.727 -4.091 l 7.5 -6.091 l 4.091 8.727 l 6.05 7.5 l -8.727 4.091" transform="matrix(0.08594 0 0 0.08594 -1.22 8.977)"/><path d="m 67.943 59.26 l -4.091 -8.727 l -6.05 -7.5 l 8.727 -4.091 l 7.5 -6.05 l 4.091 8.727 l 6.05 7.5 l -8.727 4.045" transform="matrix(0.08594 0 0 0.08594 11.243 5.404)"/><path d="m 67.967 59.25 l -4.091 -8.727 l -6.091 -7.5 l 8.727 -4.091 l 7.5 -6.05 l 4.091 8.727 l 6.091 7.5 l -8.727 4.091" transform="matrix(0.08594 0 0 0.08594 7.757 12.986)"/></g></g></svg>