<svg xmlns="http://www.w3.org/2000/svg" viewBox="0 0 22 22"><path d="m 2.266 16.828 c -7.91 -11.25 6.699 -22.652 16.02 -13.484 c 8.781 8.641 0.641 22.06 -10.285 17.863 c -2.281 -0.875 -4.281 -2.313 -5.734 -4.375" fill="#b03636"/><path d="m 11.523 5.98 c -1.574 0 -3.051 0.773 -4 2.082 c -0.09 -0.023 -0.184 -0.035 -0.273 -0.035 c -0.645 0 -1.168 0.547 -1.168 1.227 c 0 0.395 0.184 0.766 0.488 0.996 c -0.066 0.344 -0.098 0.695 -0.098 1.047 c 0 2.938 2.262 5.316 5.05 5.316 c 2.332 0 4.43 -0.406 5.05 -0.816 c -1.109 -0.379 -0.719 -1.637 -0.387 -2.453 h -0.004 c 0.258 -0.648 0.395 -1.344 0.391 -2.047 c 0 -0.352 -0.035 -0.703 -0.105 -1.047 c 0.309 -0.23 0.492 -0.602 0.492 -1 c 0 -0.676 -0.52 -1.227 -1.164 -1.227 c -0.09 0 -0.184 0.012 -0.27 0.035 c -0.957 -1.309 -2.438 -2.078 -4.01 -2.078" fill-opacity="0.102"/><g fill="#e7e7e7"><path d="m 15.797 10.891 c 0 2.934 -2.262 5.316 -5.05 5.316 c -2.789 0 -5.05 -2.383 -5.05 -5.316 c 0 -2.938 2.262 -5.32 5.05 -5.32 c 2.793 0 5.05 2.383 5.05 5.32"/><path d="m 7.633 8.844 c 0 0.676 -0.52 1.227 -1.164 1.227 c -0.645 0 -1.168 -0.551 -1.168 -1.227 c 0 -0.68 0.523 -1.227 1.168 -1.227 c 0.645 0 1.164 0.547 1.164 1.227"/><path d="m 16.188 8.844 c 0 0.676 -0.523 1.227 -1.168 1.227 c -0.645 0 -1.164 -0.551 -1.164 -1.227 c 0 -0.68 0.52 -1.227 1.164 -1.227 c 0.645 0 1.168 0.547 1.168 1.227"/></g><g fill="#2f2f2f"><path d="m 13.414 8.879 c -0.188 -0.879 -0.84 -1.426 -1.457 -1.219 c -0.613 0.207 -0.961 1.086 -0.773 1.965 c 0.188 0.879 0.84 1.426 1.457 1.219 c 0.617 -0.203 0.961 -1.086 0.773 -1.965"/><path d="m 8.07 8.879 c 0.188 -0.879 0.84 -1.426 1.457 -1.219 c 0.613 0.207 0.961 1.086 0.773 1.965 c -0.188 0.879 -0.84 1.426 -1.457 1.219 c -0.617 -0.203 -0.961 -1.086 -0.773 -1.965"/></g><path d="m 9.301 7.617 c -0.551 -0.023 -1.066 0.504 -1.227 1.262 c -0.168 0.777 0.082 1.57 0.59 1.879 c -0.238 -0.398 -0.313 -0.945 -0.203 -1.469 c 0.164 -0.758 0.676 -1.285 1.23 -1.262 c 0.078 0.004 0.152 0.016 0.227 0.043 c 0.066 0.023 0.125 0.051 0.188 0.086 c -0.148 -0.246 -0.348 -0.418 -0.574 -0.496 c -0.074 -0.023 -0.152 -0.039 -0.23 -0.043 m 2.887 0 c -0.078 0.004 -0.156 0.02 -0.23 0.043 c -0.617 0.207 -0.961 1.086 -0.773 1.965 c 0.102 0.473 0.344 0.871 0.664 1.086 c -0.129 -0.195 -0.223 -0.426 -0.277 -0.676 c -0.188 -0.879 0.16 -1.758 0.777 -1.965 c 0.074 -0.027 0.148 -0.039 0.227 -0.043 c 0.191 -0.008 0.387 0.051 0.566 0.172 c -0.25 -0.383 -0.602 -0.598 -0.953 -0.582" fill-opacity="0.059"/><path d="m 10.742 16.207 c 2.336 0 4.434 -0.41 5.05 -0.82 c -1.113 -0.375 -0.719 -1.637 -0.387 -2.453" fill="#e7e7e7"/></svg>