<svg xmlns="http://www.w3.org/2000/svg" viewBox="0 0 22 22"><path d="m 21.719 13.52 c -4.293 20.617 -33.844 -1.52 -16.09 -11.996 c 6.898 -4.492 18.305 1.391 16.09 11.996" fill="#dbd2c1"/><path d="m 20.27 13.492 c -3.676 17.734 -28.973 -1.305 -13.777 -10.32 c 5.902 -3.863 15.668 1.199 13.777 10.32" fill="#b2a390"/><g fill="#6b4f3d"><path d="m 8.574 15.05 c -0.27 -0.121 -0.328 -0.191 -0.395 -0.457 c -0.133 -0.535 -0.129 -0.371 -0.938 -0.41 c -0.836 -0.043 -1.141 -0.324 -1.621 -0.805 c -0.355 -0.355 -0.465 -0.563 -0.605 -1.152 c -0.219 -0.93 -0.098 -2.031 0.297 -2.703 c 0.566 -0.957 1.895 -1.684 2.5 -1.363 c 0.301 0.16 0.176 0.391 -0.461 0.855 c -1.051 0.766 -1.313 1.281 -1.238 2.445 c 0.063 0.977 0.516 1.816 0.984 1.816 c 0.09 0 0.32 -0.051 0.516 -0.117 c 0.398 -0.137 0.449 -0.219 0.52 -0.883 c 0.066 -0.605 -0.02 -0.727 -0.457 -0.629 c -0.348 0.082 -0.484 0.039 -0.723 -0.223 c -0.145 -0.16 -0.145 -0.168 -0.012 -0.266 c 0.258 -0.188 1.934 -0.438 2.375 -0.352 c 0.273 0.051 0.324 0.285 0.215 0.945 c -0.109 0.664 -0.152 1.105 -0.23 2.301 c -0.051 0.793 -0.086 0.977 -0.195 1.055 c -0.164 0.117 -0.141 0.121 -0.531 -0.059"/><path d="m 11.227 13.848 c -0.191 -0.125 -0.289 -0.281 -0.414 -0.648 c -0.539 -1.566 -0.66 -3.746 -0.227 -4.02 c 0.145 -0.094 0.535 -0.066 0.688 0.047 c 0.129 0.09 0.152 0.227 0.188 1.094 c 0.023 0.555 0.094 1.168 0.16 1.398 c 0.355 1.211 0.453 2.023 0.266 2.211 c -0.137 0.137 -0.383 0.105 -0.66 -0.082"/><path d="m 14.07 13.887 c -0.199 -0.098 -0.219 -0.148 -0.34 -0.922 c -0.152 -1 -0.219 -1.203 -0.453 -1.355 c -0.199 -0.133 -0.422 -0.309 -0.07 -0.676 c 0.094 -0.098 0.098 -0.148 0.063 -0.766 l -0.043 -0.789 c -0.281 -0.262 -0.586 -0.379 -0.355 -0.566 c 0.203 -0.164 1.492 -0.582 2.492 -0.809 l 0.738 -0.168 l 0.508 0.176 c 0.754 0.258 0.738 0.273 -0.586 0.621 c -1.242 0.324 -1.332 0.363 -1.484 0.652 c -0.18 0.336 -0.188 1.117 -0.008 1.293 c 0.469 0.195 0.953 -0.051 1.531 -0.141 c 0.5 -0.074 0.559 -0.066 0.742 0.07 c 0.422 0.313 0.359 0.367 -0.953 0.84 c -1.277 0.457 -1.215 0.41 -1.156 0.848 c 0.023 0.207 0.066 0.68 0.09 1.051 c -0.008 0.457 0.262 0.652 -0.227 0.711 c -0.152 0.016 -0.371 -0.016 -0.488 -0.07"/></g></svg>