<svg xmlns="http://www.w3.org/2000/svg" viewBox="0 0 22 22"><path d="m 0.539 13.406 c 1.688 11.18 18.48 11.512 21.02 0.645 c 2.613 -8.797 -6.844 -15.992 -13.918 -13.11 c -4.738 1.363 -8.563 6.938 -7.098 12.461" fill="#f6a697"/><path d="m 180.94 143.42 c -2.131 -1.09 -75.11 -70.18 -76.18 -72.14 c -1.243 -2.224 -1.243 -5.845 0.044 -8.374 c 0.533 -1.09 12.03 -12.431 25.481 -25.21 c 21.353 -20.19 24.682 -23.12 25.792 -22.506 c 0.71 0.349 4.839 4.056 9.189 8.244 l 7.902 7.589 l -0.4 2.835 c -0.755 5.147 1.11 8.942 6.348 12.823 c 1.465 1.134 1.465 1.265 1.465 21.46 v 20.282 l -2.752 2.137 c -3.773 2.835 -5.593 6.848 -5.105 11.04 c 1.065 8.418 10.299 13.04 18.467 9.29 c 7.813 -3.577 9.101 -13.652 2.53 -19.715 l -2.353 -2.137 v -19.977 c 0 -10.992 0.178 -19.977 0.4 -19.977 c 0.178 0 3.685 3.14 7.68 6.979 l 7.369 6.935 l -0.044 4.231 c -0.044 5.845 2.042 9.203 7.192 11.559 c 2.974 1.396 4.217 1.657 6.526 1.309 c 7.103 -1.09 11.32 -5.452 11.276 -11.82 c 0 -4.318 -1.421 -7.24 -4.839 -9.814 c -2.131 -1.614 -3.329 -1.963 -7.591 -2.312 l -5.105 -0.393 l -8.168 -7.764 l -8.213 -7.72 l 0.178 -3.184 c 0.222 -5.19 -2.442 -9.814 -7.01 -12.08 c -1.154 -0.567 -3.685 -1 -5.949 -1 h -3.951 l -8.701 -8.244 c -4.75 -4.536 -8.657 -8.593 -8.657 -9.03 c 0 -1.178 14.96 -14.873 17.05 -15.659 c 2.442 -0.872 6.215 -0.829 8.08 0.044 c 2.086 1 75.11 70.05 76.31 72.14 c 1.243 2.224 1.199 5.845 -0.044 8.418 c -1.376 2.704 -73.6 70.922 -76 71.794 c -2.442 0.872 -6.481 0.829 -8.213 -0.044" transform="matrix(0.08799 0 0 0.08956 -5.242 5.397)" stroke-dasharray="3.32899 3.32899" fill="#ff4500" stroke="#fff" stroke-width="3.329"/></svg>