<svg xmlns="http://www.w3.org/2000/svg" viewBox="0 0 22 22"><path d="m 0.32 13.285 c 1.707 11.336 18.668 11.676 21.23 0.656 c 2.641 -8.918 -6.914 -16.207 -14.06 -13.285 c -4.785 1.379 -8.648 7.03 -7.168 12.629" fill="#ff8c00"/><g fill="#fff" fill-rule="evenodd"><path d="m 10.813 9.09 c 0.191 -0.402 0.285 -0.738 0.27 -1.074 c -0.023 -0.57 0.09 -0.453 -0.113 -0.48 c -0.324 -0.141 -0.773 -0.387 -1.074 -0.41 c -0.969 -0.066 -0.816 -0.191 0.238 -0.191 h 0.953 c 0.25 -0.699 0.188 -1.039 0.277 -1.348 c 0.07 -0.043 0.258 0.621 0.258 0.914 c 0 0.16 0.043 0.18 0.324 0.156 c 0.211 -0.035 0.609 -0.316 0.715 -0.426 c 0 -0.043 0.059 -0.078 0.133 -0.078 c 0.168 0 0.16 0.051 -0.023 0.25 c -0.523 0.563 -0.598 1.012 -0.238 1.418 c 0.113 0.133 0.25 0.238 0.301 0.238 c 0.047 0 0.09 0.039 0.09 0.09 c 0 0.047 -0.039 0.086 -0.09 0.086 c -0.086 0 -0.434 -0.176 -0.52 -0.262 c -0.023 -0.023 -0.129 -0.09 -0.234 -0.148 c -0.238 -0.137 -0.457 -0.059 -0.457 0.16 c -0.082 0.371 -0.551 0.641 -0.609 1.02 c 0 0.09 -0.059 0.211 -0.129 0.27 c -0.113 0.094 -0.121 0.07 -0.07 -0.184"/><path d="m 15.176 10.469 c -0.277 -0.777 -0.16 -1.344 -0.91 -1.297 c -0.281 0.016 -0.594 0.082 -0.691 0.141 c -0.195 0.121 -1 0.23 -1 0.137 c 0.535 -0.25 1.113 -0.898 1.523 -1.137 c 0.121 -0.066 0.258 -0.184 0.301 -0.266 c 0.109 -0.203 -0.004 -1.039 -0.148 -1.094 c -0.172 -0.168 -0.133 -0.43 -0.246 -0.633 c -0.148 -0.258 -0.16 -0.348 -0.043 -0.348 c 0.047 0 0.086 0.039 0.086 0.082 c 0 0.043 0.215 0.301 0.477 0.574 c 0.262 0.27 0.457 0.523 0.43 0.566 c 0.535 0.438 1.309 -0.703 1.531 -1.07 c 0.047 -0.082 0.117 -0.152 0.16 -0.152 c 0 0.691 -0.473 1.262 -0.5 1.844 c -0.074 0.477 0.441 1.07 0.68 1.105 c 0.047 0 0.086 0.059 0.086 0.133 c 0 0.105 -0.117 0.125 -0.625 0.105 c -0.566 -0.02 -0.629 -0.004 -0.66 0.152 c -0.148 0.258 -0.277 0.461 -0.277 0.719 c 0 0.227 -0.039 0.469 -0.086 0.539 c -0.066 0.102 -0.086 0.078 -0.086 -0.102"/><path d="m 7.719 15.809 c -0.797 -0.824 -1.496 -1.586 -1.555 -1.691 c -0.082 -0.152 -0.07 -0.285 0.047 -0.664 c 0.145 -0.414 0.363 -0.813 0.48 -1.156 c 0.203 -0.594 0.23 -0.633 0.512 -0.688 c 0.816 -0.191 1.34 -0.559 0.559 -1.164 c -0.16 -0.246 -0.488 -0.426 -0.633 -0.602 c 0 -0.047 -0.129 -0.086 -0.289 -0.086 c -0.207 0 -0.363 0.074 -0.543 0.258 c -0.234 0.133 -0.496 0.469 -0.684 0.523 c -0.148 0.059 -0.543 0.598 -0.566 0.453 c 0.055 -0.203 0.25 -0.348 0.258 -0.563 c 0.176 -0.211 0.141 -0.465 0.352 -0.648 c 0.125 -0.105 0.172 -0.258 0.172 -0.527 c 0 -0.34 -0.043 -0.418 -0.41 -0.762 c -0.227 -0.211 -0.48 -0.406 -0.563 -0.434 c -0.367 -0.117 -0.094 -0.207 0.613 -0.207 h 0.77 c 0.043 -0.465 0.109 -0.93 0.109 -1.398 c 0 -0.402 0.141 -0.516 0.219 -0.172 c 0.082 0.246 0.555 0.938 0.563 1.227 c 0.082 0.199 1.18 0.336 1.297 0.301 c 0.332 -0.105 0.191 0.168 -0.293 0.566 c -0.359 0.293 -0.477 0.441 -0.477 0.625 c -0.004 0.129 0.031 0.238 0.074 0.238 c 0.168 0.238 0.129 0.543 0.277 0.781 c 0.133 0.188 0.043 0.492 0.25 0.625 c 0.094 0.059 0.172 0.18 0.172 0.266 c 0 0.086 0.059 0.176 0.133 0.203 c 0.207 0.082 0.738 -0.051 0.797 -0.195 c 0.063 -0.164 -0.133 -0.801 -0.309 -1.01 c -0.281 -0.336 -0.012 -0.215 0.43 0.191 c 0.258 0.238 0.492 0.434 0.52 0.434 c 0.027 0.004 0.273 -0.23 0.547 -0.516 c 0.273 -0.289 0.535 -0.523 0.578 -0.523 c 0.102 0 0.105 0.41 0.008 0.449 c -0.043 0.016 -0.102 0.172 -0.133 0.344 c -0.055 0.305 -0.047 0.32 0.289 0.457 c 0.25 0.027 0.34 0.297 0.523 0.355 c 0.371 0.367 0.691 0.824 1 1.148 c 0.457 0.465 0.898 0.953 0.973 1.086 c 0.156 0.258 0.273 0.297 0.434 0.133 c 0.211 -0.211 0.113 -0.52 -0.293 -0.914 c -0.219 -0.211 -0.379 -0.402 -0.359 -0.422 c 0.023 -0.02 0.223 0.043 0.449 0.137 c 0.563 0.242 0.727 0.23 0.797 -0.063 c 0.063 -0.316 0.32 -0.539 0.402 -0.844 c 0.023 -0.098 0.047 0.148 0.055 0.543 c 0.008 0.813 0.105 0.934 0.531 0.684 c 0.133 -0.078 0.352 -0.141 0.488 -0.141 l 0.246 0.004 l -0.215 0.168 c -0.613 0.473 -0.605 0.469 -0.609 0.844 c 0.098 0.434 0.176 0.664 0.176 1.098 l -0.375 -0.363 c -0.418 -0.414 -0.82 -0.5 -0.902 -0.191 c -0.023 0.094 -0.086 0.172 -0.133 0.172 c -0.23 0 -0.457 0.715 -0.254 0.797 c 0.043 0.016 0.098 0.254 0.125 0.527 c 0.074 0.523 -0.133 0.301 -0.594 0.574 c -1.176 0.172 -2.887 0.984 -3.914 1.051 c -1.109 0.129 -1.559 -0.738 -2.125 -1.32"/></g><path d="m 7.953 12.184 c 1.234 -0.289 1.582 -0.508 2.996 -0.508 c 0.488 0.336 1.961 1.547 1.961 2.219 c -1.246 0.207 -1.539 0.75 -2.891 0.75 c -1.01 -0.84 -2.066 -1.73 -2.066 -2.461" fill="#ff8c00"/><path d="m 9.477 13.258 c -0.227 0.043 -0.309 0.023 -0.527 -0.117 c -0.25 -0.156 -0.352 -0.367 -0.309 -0.621 c 0.074 -0.422 0.719 -0.473 1.051 -0.078 c 0.289 0.34 0.184 0.742 -0.215 0.816" fill="#ffe4c3"/></svg>