<svg xmlns="http://www.w3.org/2000/svg" viewBox="0 0 22 22"><path d="m 5.301 19.813 c 8.309 6.914 17.988 -4.75 16.441 -15.223 c -1.102 -7.805 -23.04 -4.664 -21.57 6.668 c 0.438 3.371 2.414 6.301 5.129 8.555" fill="#5d5b5b"/><path d="m 10.383 18.691 c -0.797 -0.078 -1.484 -0.27 -2.168 -0.605 c -1.988 -0.98 -3.625 -3.055 -2.855 -4.754 c 0.703 -1.543 3.398 -2.348 5.484 -2.348 c 2.102 0 5.336 -0.352 6.07 1.23 c 0.449 1.027 -1.191 3.648 -1.672 4.387 c -0.891 1.348 -3.035 2.27 -4.859 2.09" fill="#fff"/><path d="m 10.582 17.969 c -0.59 -0.074 -1.098 -0.246 -1.602 -0.551 c -1.469 -0.891 -2.082 -2.547 -1.512 -4.086 c 0.52 -1.398 1.914 -2.348 3.453 -2.348 c 1.551 0 3.223 -0.25 3.766 1.188 c 0.332 0.93 -0.164 3.234 -0.52 3.902 c -0.656 1.219 -2.242 2.055 -3.586 1.895" fill="#1e8fff"/><path d="m 10.75 16.598 c -0.418 -0.055 -0.777 -0.18 -1.137 -0.406 c -1.043 -0.652 -1.477 -1.871 -1.07 -3 c 0.367 -1.031 1.355 -1.727 2.449 -1.727 c 1.102 0 2.289 -0.184 2.676 0.871 c 0.234 0.684 -0.117 2.379 -0.371 2.867 c -0.465 0.898 -1.59 1.512 -2.547 1.395" fill="#010101"/><path d="m 13.648 12.25 c -1.441 0.441 -2.418 0.391 -2.75 -0.668 c -0.965 -2.473 0.527 -9.266 3.758 -9.18 c 0.078 0.027 0.012 0.559 -0.152 1.18 c -0.438 1.664 -0.375 2.926 0.227 4.656 c 0.43 1.238 0.645 1.586 1.086 1.746 c 0.809 0.293 0.836 0.59 0.109 1.156 c -0.797 0.563 -1.59 0.902 -2.277 1.109" fill="#6c1a1a"/><path d="m 6.684 12.336 c -0.945 -0.313 -0.961 -0.348 -0.793 -1.652 c 0.258 -1.969 1.27 -4.219 2.355 -5.223 c 0.871 -0.809 5.934 -3.402 6.246 -3.07 c 0.066 0.07 -0.75 1.336 -1.207 1.891 c -1.219 1.492 -1.75 2.824 -1.953 4.918 c -0.145 1.5 -0.09 1.965 0.281 2.355 c 0.68 0.719 0.57 1.039 -0.43 1.25 c -1.59 0.238 -3.043 0.012 -4.5 -0.469" fill="#b05555"/><path d="m 15.09 13.07 c 0.473 -0.219 1.277 -0.465 1.789 -0.547 c 1.043 -0.176 1.426 -0.754 1.152 -1.75 c -0.125 -0.469 -0.313 -0.629 -0.621 -0.543 c -0.891 0.25 -2.18 0.918 -2.668 1.387 c -0.348 0.336 -1.395 0.617 -3.434 0.918 c -1.355 0.426 -4.262 0.129 -1.492 0.766 c 1.754 0.402 4.113 0.301 5.273 -0.23" fill="#730303"/><path d="m 7.195 13.871 c -0.508 -0.152 -1.352 -0.289 -1.875 -0.297 c -1.07 -0.023 -1.547 -0.57 -1.434 -1.656 c 0.055 -0.508 0.215 -0.707 0.539 -0.664 c 0.93 0.121 2.324 0.625 2.887 1.043 c 0.398 0.297 1.574 0.418 3.633 0.09 l 1.766 -0.281 l -0.203 1.191 c -0.152 0.875 -4.066 0.949 -5.312 0.574" fill="#d66e6e"/></svg>