<svg xmlns="http://www.w3.org/2000/svg" viewBox="0 0 22 22"><defs><linearGradient id="0" gradientUnits="userSpaceOnUse" y1="536.63" x2="0" y2="510.97" gradientTransform="matrix(0.47437 0 0 0.44206 -182.52 -220.7)"><stop stop-color="#d7dcdf"/><stop offset="1" stop-color="#f9fafb"/></linearGradient></defs><path d="m 4.535 19.855 c 16.539 10.996 26.727 -24.07 5.344 -19.43 c -8.836 1.98 -14.195 14.387 -5.344 19.43" fill="#2f4e4e"/><path d="m 15.242 5.176 v 0.734 h -2.371 v -0.734 m -3.16 0 v 0.734 h -2.375 v -0.734 m 10.04 1.988 v 2.211 h -0.789 v -2.211 m -4.508 0 v 2.211 h -1.582 v -2.211 m -4.504 0 v 2.211 h -0.793 v -2.211 m 10.04 2.945 v 1.477 h -2.375 v -1.477 m -3.16 0 v 1.477 h -2.371 v -1.477 m 10.04 2.211 v 2.211 h -0.793 v -2.211 m -4.504 0 v 2.211 h -1.582 v -2.211 m -4.508 0 v 2.211 h -0.789 v -2.211 m 10.04 3.465 v 0.734 h -2.371 v -0.734 m -3.16 0 v 0.734 h -2.375 v -0.734" fill="url(#0)"/><path d="m 7.34 5.176 v 0.145 h 2.371 v -0.145 m 3.164 0 v 0.145 h 2.371 v -0.145 m -10.04 1.988 v 0.148 h 0.793 v -0.148 m 4.504 0 v 0.148 h 1.582 v -0.148 m 4.508 0 v 0.148 h 0.789 v -0.148 m -10.04 2.945 v 0.148 h 2.371 v -0.148 m 3.164 0 v 0.148 h 2.371 v -0.148 m -10.04 2.211 v 0.148 h 0.789 v -0.148 m 4.508 0 v 0.148 h 1.582 v -0.148 m 4.508 0 v 0.148 h 0.789 v -0.148 m -10.04 3.465 v 0.148 h 2.371 v -0.148 m 3.16 0 v 0.148 h 2.375 v -0.148" fill="#fff" fill-opacity="0.235"/></svg>