<svg xmlns="http://www.w3.org/2000/svg" viewBox="0 0 22 22"><path d="m 1.891 17.484 c 4.172 7.574 17.242 4.637 19.453 -1.602 c 2.637 -7.43 -4.223 -21.539 -15.836 -13.273 c -3.914 2.887 -7.789 7.301 -3.617 14.875" fill="#4b0081"/><g fill="#fff" fill-rule="evenodd"><path d="m 7.098 15.883 c -0.027 -0.066 -0.023 -0.969 0.004 -2.01 c 0.047 -1.863 0.008 -2.402 -0.18 -2.301 c -0.051 0.031 -0.121 -0.008 -0.152 -0.082 c -0.031 -0.074 -0.121 -0.137 -0.195 -0.137 c -0.094 0 -0.137 -0.109 -0.137 -0.359 c 0 -0.281 0.031 -0.348 0.148 -0.309 c 0.117 0.043 0.145 -0.031 0.145 -0.383 c 0 -0.309 0.043 -0.453 0.148 -0.488 c 0.109 -0.039 0.145 -0.203 0.145 -0.695 c 0 -0.355 -0.039 -0.645 -0.09 -0.645 c -0.051 0 -0.121 -0.078 -0.152 -0.176 c -0.035 -0.094 -0.121 -0.172 -0.191 -0.172 c -0.297 0 -0.336 -0.602 -0.055 -0.828 c 0.109 -0.09 0.195 -0.215 0.195 -0.281 c 0 -0.063 -0.105 -0.141 -0.023 -0.168 c 0.195 -0.066 0.145 -0.094 -0.059 -0.195 c -0.105 -0.055 0.078 -0.395 0.121 -0.496 c 0.051 -0.117 0.094 -0.129 0.18 -0.055 c 0.063 0.059 0.211 0.105 0.332 0.105 c 0.121 0 0.285 0.078 0.363 0.18 c 0.199 0.254 0.59 0.195 0.633 -0.094 c 0.016 -0.121 0.07 -0.258 0.121 -0.301 c 0.051 -0.047 0.09 -0.133 0.09 -0.195 c 0 -0.242 0.418 -0.551 0.746 -0.551 c 0.34 0 0.387 0.066 0.445 0.652 c 0.027 0.254 0.051 0.266 0.539 0.289 c 0.313 0.016 0.512 -0.008 0.512 -0.066 c 0 -0.156 0.387 -0.102 0.613 0.086 c 0.16 0.133 0.211 0.273 0.203 0.543 c -0.008 0.199 -0.059 0.379 -0.113 0.395 c -0.059 0.016 -0.152 0.16 -0.211 0.316 c -0.063 0.164 -0.211 0.332 -0.348 0.387 c -0.234 0.094 -0.242 0.121 -0.242 1.074 l 0.086 0.957 l 0.484 0.242 c 0.203 0.098 0.676 0.559 0.594 0.535 c -0.156 -0.039 0.027 0.375 -0.27 0.367 c -0.195 -0.004 -0.895 -0.391 -0.895 -0.285 c 0 0.141 -0.043 0.277 -0.098 0.309 c -0.055 0.027 -0.098 0.008 -0.098 -0.051 c 0 -0.07 -0.215 -0.09 -0.723 -0.066 c -0.602 0.027 -0.758 0.066 -0.914 0.227 c -0.105 0.105 -0.262 0.195 -0.348 0.195 c -0.09 0 -0.16 0.063 -0.16 0.137 c 0 0.074 -0.066 0.195 -0.148 0.27 c -0.188 0.168 -0.188 0.762 0 0.902 c 0.082 0.059 0.148 0.148 0.148 0.195 c 0 0.133 0.398 0.414 0.586 0.414 c 0.094 0 0.223 0.059 0.293 0.133 c 0.086 0.09 0.313 0.129 0.789 0.129 h 0.672 v 1.742 l -0.301 -0.055 c -0.195 -0.035 -0.332 -0.016 -0.379 0.055 c -0.043 0.059 -0.363 0.129 -0.723 0.156 c -0.367 0.023 -0.691 0.094 -0.754 0.164 c -0.066 0.074 -0.309 0.117 -0.629 0.117 c -0.383 0 -0.547 0.039 -0.609 0.145 c -0.074 0.113 -0.102 0.121 -0.141 0.023"/><path d="m 13.203 15.906 c 0.035 -0.145 0.105 -0.281 0.156 -0.309 c 0.055 -0.031 0.121 -0.789 0.156 -1.797 c 0.055 -1.563 0.004 -1.473 -0.137 -1.574 c -0.098 -0.066 -0.91 0.336 -0.98 0.145 c -0.02 -0.055 -0.195 -0.191 -0.102 -0.32 c 0.223 -0.301 0.742 -0.652 0.809 -0.652 c 0.098 0 0.43 0 0.461 -0.719 c 0.02 -0.441 0.148 -0.414 0.141 -0.648 c -0.02 -0.367 -0.203 -0.512 -0.313 -0.512 c -0.07 0 -0.297 -0.246 -0.297 -0.293 c 0 -0.047 -0.148 -0.262 -0.281 -0.441 c -0.133 -0.176 -0.281 -0.34 -0.281 -0.363 c 0 -0.023 0.98 -0.148 1.879 -0.148 c 1.32 0 1.637 0.02 1.68 0.117 c 0.074 0.164 -0.223 0.66 -0.59 0.98 c -0.172 0.148 -0.344 0.359 -0.379 0.461 c -0.039 0.105 -0.148 0.246 -0.246 0.313 c -0.121 0.082 -0.16 0.18 -0.121 0.305 c 0.031 0.102 0.086 0.184 0.125 0.184 c 0.121 0 0.523 0.355 0.66 0.586 c 0.074 0.117 0.105 0.281 0.066 0.363 c -0.035 0.082 -0.035 0.652 0.004 1.266 l 0.066 1.121 h 0.25 c 0.238 0 0.25 0.02 0.215 0.336 c -0.023 0.223 0.008 0.359 0.09 0.402 c 0.082 0.043 0.129 0.234 0.133 0.531 v 0.461 l -0.844 -0.016 c -0.609 -0.012 -0.902 0.02 -1.059 0.105 c -0.117 0.066 -0.414 0.145 -0.66 0.176 c -0.246 0.031 -0.445 0.09 -0.445 0.129 c 0 0.039 -0.051 0.074 -0.109 0.074 c -0.07 0 -0.086 -0.094 -0.047 -0.262"/></g></svg>