<svg xmlns="http://www.w3.org/2000/svg" viewBox="0 0 22 22"><g stroke="#fff"><path d="m 212.32 840.13 c 129.91 104.86 -60.27 294.14 -175.23 173.23 c -115.18 -104.05 64.59 -306 175.23 -173.23" transform="matrix(0.08594 0 0 0.08594 0 -68.44)" fill="#ff7f4f"/><path d="m 70.03 82.34 v -64.714 h 126.48 v 129.48 h -126.48 m 118.96 -64.766 v -57.06 h -111.49 v 114.17 h 111.49 m -100.13 -11.662 l -2.491 -2.655 l 16.608 -17.02 l 16.651 -17.02 l 5.288 5.362 l 5.288 5.415 l 26.485 -27.18 l 11.713 12.03 l 11.757 11.974 l -5.07 5.31 l -9.178 -9.423 l -9.222 -9.423 l -13.242 13.588 l -13.242 13.536 l -10.577 -10.725 l -14.12 14.421 l -14.12 14.473 m 8.129 -57.686 c -13.636 -4.998 -17.657 -22.543 -7.561 -32.748 c 10.489 -10.517 28.06 -5.727 32.21 8.747 c 4.196 14.838 -10.533 29.16 -24.649 24 m 10.795 -7.393 c 10.577 -4.634 9.222 -20.825 -1.923 -23.428 c -8.697 -1.978 -16.564 6.04 -14.597 14.942 c 1.617 7.341 9.702 11.506 16.52 8.486" transform="matrix(0.08938 0 0 0.07503 -1.286 4.982)" fill="#fff" stroke-width="0.688"/></g><g fill="#fff"><path d="m 10.344 15.637 h 0.703 c 0.012 0 0.023 0.004 0.023 0.008 v 2.5 c 0 0.004 -0.012 0.008 -0.023 0.008 h -0.703 c -0.012 0 -0.02 -0.004 -0.02 -0.008 v -2.5 c 0 -0.004 0.008 -0.008 0.02 -0.008"/><path d="m 12.602 17.516 v 0.703 c 0 0.012 -0.004 0.02 -0.008 0.02 h -3.797 c -0.004 0 -0.008 -0.008 -0.008 -0.02 v -0.703 c 0 -0.012 0.004 -0.02 0.008 -0.02 h 3.797 c 0.004 0 0.008 0.008 0.008 0.02"/></g></svg>