<svg xmlns="http://www.w3.org/2000/svg" viewBox="0 0 22 22"><path d="m 16.352 20.18 c -28.313 11.656 -15.01 -37.37 3.477 -13.566 c 3.219 4.27 3.469 11.445 -3.477 13.566" fill="#fdccab"/><path d="m 9.451 219.94 c -9.591 -4.751 -14.05 -13.13 -12.912 -24.14 c 0.704 -6.757 4.192 -12.247 10.564 -16.752 c 3.823 -2.675 5.098 -3.03 11.503 -3.03 c 4.93 0 8.518 0.598 11.469 1.936 l 4.259 1.936 l 2.448 -2.464 l 2.482 -2.464 l -2.01 -3.942 c -2.817 -5.49 -2.616 -11.79 0.537 -17.14 l 2.515 -4.364 l -2.448 -2.464 c -2.381 -2.358 -2.649 -2.428 -6.04 -0.985 c -7.378 3.062 -14.857 0.598 -17.976 -5.948 c -2.113 -4.434 -2.046 -8.341 0.235 -12.529 c 4.896 -9.115 17.439 -9.01 23.274 0.246 c 1.61 2.604 1.878 4.223 1.409 8.834 c -0.57 5.314 -0.436 5.737 2.381 8.13 c 2.683 2.252 3.32 2.393 6.942 1.408 c 10.03 -2.675 21.19 6.05 21.13 16.541 c -0.034 5.279 -3.387 11.368 -7.915 14.359 c -3.79 2.499 -4.628 2.675 -11.469 2.147 c -6.841 -0.528 -7.579 -0.387 -9.625 1.795 l -2.213 2.358 l 2.046 4.329 c 5.03 10.558 3.723 19.251 -4.192 27.345 c -7.747 7.954 -16.835 9.643 -26.427 4.857 m 17.07 -10.241 c 6.305 -3.66 7.445 -13.761 2.146 -19.286 c -8.384 -8.763 -21.396 -3.343 -21.396 8.869 c 0 10.628 9.726 15.872 19.25 10.417 m 32.497 -40.719 c 3.287 -3.731 3.02 -8.834 -0.671 -12.529 c -3.723 -3.731 -7.814 -3.836 -12.01 -0.352 c -5.366 4.54 -3.756 13.13 2.918 15.767 c 2.784 1.091 7.512 -0.317 9.759 -2.886 m -29.646 -28.507 c 2.918 -1.549 4.226 -5.737 2.851 -9.04 c -2.348 -5.666 -10.866 -5.913 -12.979 -0.352 c -1.476 3.871 -1.207 5.314 1.476 7.989 c 2.649 2.64 5.5 3.097 8.652 1.408 m -21.933 -20.271 l -2.213 -2.358 l 2.113 -2.675 c 7.01 -8.904 24.28 -9.96 34.576 -2.112 c 3.823 2.921 4.259 5.349 1.341 7.989 c -1.979 1.76 -2.079 1.76 -4.762 -0.774 c -3.588 -3.449 -7.244 -4.751 -13.347 -4.751 c -5.366 0 -9.256 1.549 -12.274 4.892 c -2.381 2.64 -2.75 2.64 -5.433 -0.211 m -8.518 -8.517 c -0.905 -0.985 -1.643 -2.288 -1.643 -2.886 c 0 -1.9 8.149 -8.446 13.884 -11.121 c 4.762 -2.252 6.976 -2.64 14.622 -2.64 c 8.149 0 9.692 0.317 15.527 3.167 c 8.08 4.01 13.884 9.643 12.375 12.04 c -2.448 3.906 -4.192 3.906 -8.149 0.07 c -5.567 -5.455 -11.436 -7.743 -19.753 -7.743 c -8.149 -0.035 -15.16 2.745 -19.954 7.813 c -3.387 3.625 -4.594 3.836 -6.908 1.302" transform="matrix(0.11648 0 0 0.11099 6.891 -5.912)" fill="#ff6904" stroke="#ff6904"/></svg>