<svg xmlns="http://www.w3.org/2000/svg" viewBox="0 0 22 22"><path d="m 0.254 13.449 c 1.367 8.945 13.48 11.336 18.828 4.953 c 4.711 -4.742 3.539 -13.816 -2.238 -16.93 c -6.633 -4.16 -16.301 0.984 -16.828 9.273 c -0.055 0.906 0.023 1.824 0.238 2.707"/><path d="m 196.05 -2.338 l 32.798 0.011 c 7.448 0.052 13.502 6.126 13.488 13.743 l 0.018 148.32 c -0.018 7.539 -6.07 13.657 -13.513 13.684 l -32.798 -0.011 c -7.485 -0.008 -13.502 -6.126 -13.525 -13.699 l 0.023 -148.29 c -0.023 -7.573 6.07 -13.736 13.509 -13.762" transform="matrix(0.05632 -0.04337 0.04677 0.05223 -5.576 17.695)" fill="#fff" stroke="#fff" stroke-width="2"/></svg>