<svg xmlns="http://www.w3.org/2000/svg" viewBox="0 0 22 22" xmlns:xlink="http://www.w3.org/1999/xlink"><path d="m 2.191 5.477 c -7.617 10.03 8.09 22.1 16.754 13.05 c 9.734 -9.945 -6.05 -25.672 -15.77 -14.719 c -0.594 0.582 -0.656 1.109 -0.984 1.664" fill="#312f2e"/><path d="m 72.16 98.72 l -0.533 -14.345 l -13.03 -5.988 l 13.488 -4.929 l 1.674 -14.245 l 8.848 11.303 l 14.04 -2.79 l -8.01 11.871 l 7.05 12.501 l -13.8 -3.933" transform="matrix(0.10566 0.02854 -0.02707 0.1114 1.751 -3.108)" fill="#ff0" stroke="#ff0" stroke-width="3" id="0"/><path d="m 72.16 98.72 l -0.533 -14.345 l -13.03 -5.988 l 13.488 -4.929 l 1.674 -14.245 l 8.848 11.303 l 14.07 -2.799 l -8.01 11.871 l 7.01 12.51 l -13.8 -3.933" transform="matrix(0.10566 0.02854 -0.02707 0.1114 8.08 -3.108)" fill="#ff0" stroke="#ff0" stroke-width="3"/><use transform="translate(6.387 6.387)" xlink:href="#0"/><path d="m 72.17 98.69 l -0.525 -14.312 l -13.03 -5.988 l 13.488 -4.929 l 1.674 -14.245 l 8.805 11.279 l 14.07 -2.799 l -8 11.904 l 7.01 12.51 l -13.765 -3.942" transform="matrix(0.10566 0.02854 -0.02707 0.1114 1.875 3.465)" fill="#ff0" stroke="#ff0" stroke-width="3"/></svg>