<svg xmlns="http://www.w3.org/2000/svg" viewBox="0 0 22 22"><path d="m 10.633 0.25 c -3.66 0.699 -7.203 3.449 -9.07 7.05 c -1.562 3.02 -1.805 5.953 -0.707 8.539 c 0.828 1.945 2.707 3.762 5.04 4.871 c 2.488 1.184 4.801 1.453 7.191 0.844 c 5.902 -1.512 10.227 -9.41 8.469 -15.469 c -0.859 -2.961 -3.137 -4.965 -6.488 -5.711 c -1.461 -0.117 -3 -0.371 -4.434 -0.121" fill="#7f007f"/><g fill="#ffc0ca"><path d="m 12.191 5.141 c -0.172 0.098 -0.172 0.199 0 0.652 c 0.121 0.32 0.121 0.316 0.039 0.383 c -0.176 0.145 -0.184 0.148 -0.438 0.199 c -0.125 0.023 -0.258 0.043 -0.293 0.039 c -0.035 0 -0.129 -0.027 -0.203 -0.059 c -0.074 -0.031 -0.16 -0.059 -0.191 -0.066 c -0.07 -0.016 -0.164 0.023 -0.211 0.086 c -0.02 0.023 -0.102 0.195 -0.176 0.375 c -0.195 0.457 -0.195 0.484 0.035 0.641 c 0.078 0.051 0.129 0.094 0.129 0.109 c 0.004 0.02 0.023 0.031 0.063 0.039 c 0.121 0.02 0.25 0.066 0.305 0.105 l 0.059 0.039 l 0.008 0.117 c 0.004 0.066 0.012 0.152 0.02 0.195 c 0.008 0.039 0.004 0.109 0 0.148 c -0.008 0.043 -0.02 0.102 -0.023 0.133 c -0.004 0.043 -0.012 0.059 -0.031 0.059 c -0.016 0 -0.043 0.016 -0.063 0.031 c -0.016 0.016 -0.078 0.051 -0.133 0.074 c -0.465 0.203 -0.492 0.223 -0.539 0.359 l -0.027 0.09 l 0.152 0.371 c 0.164 0.406 0.191 0.457 0.281 0.492 c 0.09 0.039 0.191 0.012 0.531 -0.125 l 0.293 -0.125 l 0.047 0.066 c 0.051 0.082 0.203 0.25 0.32 0.359 c 0.047 0.043 0.086 0.086 0.09 0.094 c 0.004 0.008 -0.051 0.156 -0.125 0.328 c -0.07 0.168 -0.129 0.34 -0.133 0.379 c -0.008 0.086 0.027 0.176 0.086 0.223 c 0.051 0.039 0.527 0.258 0.664 0.309 c 0.145 0.051 0.238 0.023 0.313 -0.09 c 0.02 -0.027 0.094 -0.184 0.168 -0.344 l 0.133 -0.293 l 0.238 0.012 c 0.133 0.004 0.277 0.008 0.328 0.008 c 0.051 -0.004 0.102 0.004 0.113 0.012 c 0.012 0.012 0.09 0.18 0.176 0.375 c 0.086 0.195 0.16 0.363 0.164 0.371 c 0.008 0.004 0.055 0.02 0.109 0.027 l 0.098 0.02 l 0.336 -0.125 c 0.375 -0.145 0.438 -0.18 0.477 -0.273 c 0.035 -0.09 0.023 -0.152 -0.09 -0.48 c -0.059 -0.172 -0.109 -0.324 -0.109 -0.34 c -0.004 -0.035 0.051 -0.098 0.172 -0.219 c 0.043 -0.039 0.121 -0.117 0.172 -0.172 l 0.102 -0.105 l 0.328 0.148 c 0.184 0.082 0.355 0.152 0.383 0.156 c 0.082 0.012 0.164 -0.027 0.215 -0.094 c 0.047 -0.066 0.289 -0.609 0.313 -0.711 c 0.02 -0.078 -0.012 -0.184 -0.07 -0.238 c -0.02 -0.016 -0.168 -0.098 -0.328 -0.176 c -0.164 -0.082 -0.32 -0.168 -0.352 -0.199 c -0.063 -0.059 -0.141 -0.223 -0.152 -0.316 c -0.012 -0.094 0.016 -0.219 0.066 -0.285 l 0.043 -0.063 l 0.383 -0.152 c 0.422 -0.172 0.418 -0.168 0.449 -0.289 c 0.012 -0.047 0.008 -0.074 -0.137 -0.453 l -0.152 -0.406 l -0.105 -0.055 l -0.105 -0.059 l -0.367 0.133 c -0.418 0.152 -0.391 0.148 -0.48 0.039 c -0.027 -0.039 -0.113 -0.133 -0.191 -0.211 c -0.078 -0.078 -0.145 -0.152 -0.152 -0.168 c -0.004 -0.02 0.043 -0.16 0.121 -0.363 c 0.07 -0.184 0.133 -0.355 0.133 -0.383 c 0.008 -0.066 -0.031 -0.16 -0.082 -0.207 c -0.051 -0.051 -0.609 -0.301 -0.723 -0.328 c -0.105 -0.027 -0.172 -0.008 -0.23 0.07 c -0.02 0.027 -0.094 0.164 -0.16 0.305 c -0.066 0.137 -0.137 0.281 -0.16 0.32 l -0.039 0.07 l -0.223 -0.02 c -0.125 -0.012 -0.258 -0.02 -0.301 -0.023 c -0.039 0 -0.086 -0.016 -0.102 -0.027 c -0.023 -0.02 -0.074 -0.133 -0.168 -0.363 l -0.137 -0.332 l -0.117 -0.055 l -0.117 -0.059 l -0.324 0.125 c -0.176 0.07 -0.352 0.141 -0.391 0.164 m 1.344 1.746 c 0.418 -0.066 0.832 0.102 1.113 0.445 c 0.063 0.074 0.078 0.109 0.152 0.301 c 0.074 0.199 0.086 0.23 0.09 0.344 c 0.047 0.816 -0.742 1.422 -1.516 1.168 c -0.223 -0.074 -0.395 -0.191 -0.547 -0.371 c -0.074 -0.09 -0.102 -0.137 -0.16 -0.273 c -0.094 -0.219 -0.117 -0.348 -0.102 -0.574 c 0.027 -0.352 0.219 -0.672 0.512 -0.863 c 0.109 -0.074 0.324 -0.156 0.457 -0.176"/><path d="m 9.555 6.695 c -0.098 0.113 -0.402 0.484 -0.676 0.828 c -0.617 0.762 -0.914 1.023 -2.152 1.875 c -1.18 0.809 -1.277 0.887 -1.34 1.016 c -0.063 0.137 0.023 0.348 0.164 0.41 c 0.141 0.063 0.652 -0.129 1.512 -0.566 c 1 -0.508 1.391 -0.609 1.508 -0.398 c 0.094 0.176 -0.16 0.465 -1.336 1.5 c -1.91 1.684 -2.277 2.16 -1.969 2.559 c 0.145 0.188 0.445 -0.008 2.348 -1.52 c 0.703 -0.559 1.367 -1.063 1.48 -1.121 c 0.184 -0.094 0.203 -0.094 0.238 0 c 0.059 0.148 -0.207 0.516 -1.563 2.172 c -1.512 1.844 -1.742 2.188 -1.742 2.574 c 0 0.219 0.125 0.379 0.281 0.363 c 0.281 -0.023 0.559 -0.297 2.195 -2.16 c 1.301 -1.488 1.461 -1.652 1.645 -1.719 c 0.125 -0.051 0.137 -0.023 0.102 0.23 c -0.039 0.262 -0.215 0.676 -1.035 2.422 c -0.867 1.852 -0.992 2.305 -0.633 2.305 c 0.34 -0.004 0.594 -0.32 2.094 -2.625 c 1.125 -1.73 1.188 -1.805 1.563 -1.941 c 0.242 -0.09 0.309 -0.094 0.414 -0.027 c 0.176 0.113 0.215 0.328 0.234 1.383 c 0.023 1.258 0.051 1.609 0.141 1.836 c 0.082 0.207 0.234 0.32 0.371 0.27 c 0.09 -0.035 0.266 -0.578 0.371 -1.141 c 0.098 -0.535 0.18 -1.965 0.145 -2.535 c -0.039 -0.613 -0.039 -0.613 -1.02 -0.742 c -2.684 -0.117 -4.234 -3.098 -2.844 -5.176 c 0.016 -0.02 -0.273 -0.301 -0.301 -0.289 c -0.012 0.008 -0.102 0.105 -0.195 0.219"/></g></svg>