<svg xmlns="http://www.w3.org/2000/svg" viewBox="0 0 22 22"><path d="m 2.484 17.891 c -10.145 -12.957 15.12 -26.41 18.816 -10.367 c 3.785 10.1 -11.297 19.969 -18.816 10.367" fill="#5b6e85"/><g transform="scale(0.08594)"><g fill="#9ebb00" stroke="#9ebb00"><path d="m 81.45 165.68 v -4.409 h 8.909 v -8.909 h 8.909 v -8.864 h 8.955 v -8.864 h 8.909 v -8.909 h 8.909 v -8.864 h 8.909 v -8.864 h 8.955 v -8.909 h 8.909 v -8.864 h 16.955 v 8.864 h -8.909 v 8.909 h -8.955 v 8.864 h -8.909 v 8.864 h -8.909 v 8.909 h -8.955 v 8.864 h -8.909 v 8.864 h -8 v 8.909 h -8.955 v 8.864 h -17.818" stroke-width="0.147"/><g stroke-width="0.139"><path d="m 81.45 139.05 v -4.409 h 8.909 v -8.909 h 8.909 v -8.864 h 8.955 v -8.864 h 8.909 v -8.909 h 8.909 v -8.864 h 8.909 v -8.909 h 16.955 v 8 h -8.909 v 9.773 h -8.909 v 8.909 h -8.955 v 8.864 h -8.909 v 8.864 h -8 v 8.909 h -8.955 v 8.864 h -17.818"/><path d="m 81.45 112.41 v -4.409 h 8.909 v -8.909 h 8.909 v -8.864 h 8.955 v -8.909 h 8.909 v -8.864 h 16.955 v 8 h -8.955 v 8.864 h -8.909 v 9.773 h -8 v 8.909 h -8.955 v 8.864 h -17.818"/><path d="m 81.45 85.32 v -3.955 h 8.909 v -8.909 h 8.909 v -8.864 h 16.955 v 8 h -8 v 8.864 h -8.955 v 8.864 h -17.818"/></g></g><g stroke="#8e5902"><path d="m 116.82 193.14 v -4.5 h 9 v -9.05 h 17.955 v -62.27 l 8.545 -0.545 l 0.273 -4.273 l 0.273 -4.318 h 7.955 v 89.45 h -44" fill="#8e5902" stroke-width="0.141"/><g stroke-width="0.139"><path d="m 161.32 155.18 c 0 -22.591 -0.273 -44.36 -0.591 -48.41 l -0.591 -7.318 h 8.318 v 96.77 h -7.136"/><path d="m 117.14 201.86 v -3.773 l 21.864 0.273 l 21.864 0.227 v 7.05 h -43.727"/></g><path d="m 106.95 193.14 v -5.227 h 9.273 v 10.409 h -9.273" stroke-width="0.162"/><path d="m 115.86 183.77 v -4.727 h 9.273 v 9.455 h -9.273" stroke-width="0.154"/><g stroke-width="0.139"><path d="m 126.05 174.59 v -4.455 h 8.909 v -26.636 h -8.909 v -7.909 l 4.227 -0.273 l 4.273 -0.273 l 0.273 -4.227 l 0.273 -4.182 h 7.909 v 52.36 h -16.955 v -4.455"/><path d="m 170.68 94.68 v -4.455 h 8 v 8.864 h -8"/><path d="m 152.82 85.32 v -3.955 h 16.955 v 7.955 h -16.955"/><path d="m 134.95 76.45 v -4 h 16.955 v 8 h -16.955"/><path d="m 117.14 67.59 v -4 h 16.955 v 8 h -16.955"/><path d="m 90.36 67.59 v -4 h 8 v 8 h -8"/><path d="m 81.45 76.45 v -4 h 8 v 8 h -8"/><path d="m 72.5 85.32 v -3.955 h 8.05 v 7.955 h -8.05"/><path d="m 81.45 98.68 v -8.455 h 16.955 v 7.909 l -4.273 0.273 l -4.227 0.273 l -0.273 4.182 l -0.273 4.227 h -7.909"/></g><path d="m 98.32 85.18 v -5.091 h 10.227 v 10.136 h -10.227" stroke-width="0.187"/><path d="m 107.86 76.59 v -4.727 h 9 v 9.5 h -9" stroke-width="0.17"/><g stroke-width="0.163"><path d="m 125.14 84.86 v -4.773 h 9.227 v 9.545 h -9.227"/><path d="m 116.18 94.23 v -4.636 h 9.591 v 9.227 h -9.591"/></g><g stroke-width="0.181"><path d="m 107.86 103.36 c 0 -4.591 0 -4.591 4.636 -4.591 c 4.682 0 4.682 0 4.682 4.591 c 0 4.636 0 4.636 -4.682 4.636 c -4.636 0 -4.636 0 -4.636 -4.636"/><path d="m 98.95 112.09 c 0 -4.455 0 -4.455 4.773 -4.455 c 4.818 0 4.818 0 4.818 4.455 c 0 4.5 0 4.5 -4.818 4.5 c -4.773 0 -4.773 0 -4.773 -4.5"/></g><g stroke-width="0.139"><path d="m 81.45 125.73 v -8 h 16.955 v 7.05 l -4.273 0.273 l -4.227 0.273 l -0.273 4.182 l -0.273 4.227 h -7.909"/><path d="m 72.5 139.05 v -4.409 h 8.05 v 8.864 h -8.05"/><path d="m 81.45 152.36 v -7.955 h 16.955 v 7 l -4.273 0.273 l -4.227 0.273 l -0.273 4.182 l -0.273 4.227 h -7.909"/><path d="m 72.5 165.68 v -4.409 h 8.05 v 8.864 h -8.05"/><path d="m 81.45 175 v -3.955 h 8.909 v 7.955 h -8.909"/><path d="m 100.18 166.14 v -4 h 8 v 8 h -8"/><path d="m 109.09 157.27 v -4 h 7.136 v 8 h -7.136"/><path d="m 117.14 148.36 v -4 h 8 v 8 h -8"/></g><path d="m 98.95 139.05 c 0 -4.773 0 -4.773 4.773 -4.773 c 4.818 0 4.818 0 4.818 4.773 c 0 4.818 0 4.818 -4.818 4.818 c -4.773 0 -4.773 0 -4.773 -4.818" stroke-width="0.187"/><path d="m 107.86 130 c 0 -4.909 0 -4.909 4.955 -4.909 c 4.955 0 4.955 0 4.955 4.909 c 0 4.955 0 4.955 -4.955 4.955 c -4.955 0 -4.955 0 -4.955 -4.955" stroke-width="0.193"/></g><g stroke="#000"><path d="m 117.14 121.32 v -3.591 h 8 v 7.136 h -8" stroke-width="1.082"/><path d="m 125.73 112.27 v -4.318 h 9.591 v 8.636 h -9.545 v -4.318" stroke-width="0.167"/></g><g stroke="#8e5902"><path d="m 134.36 103.36 v -4.636 h 9.864 v 9.273 h -9.864" stroke-width="0.176"/><path d="m 142.64 94.05 v -4.727 h 10.227 v 9.5 h -10.227" stroke-width="0.171"/></g></g></svg>