<svg xmlns="http://www.w3.org/2000/svg" viewBox="0 0 22 22"><path d="m 0.32 13.285 c 1.707 11.336 18.668 11.676 21.23 0.656 c 2.641 -8.918 -6.914 -16.207 -14.06 -13.285 c -4.785 1.379 -8.648 7.03 -7.168 12.629" fill="#fa7f71"/><g fill-rule="evenodd"><path d="m 191.24 148.09 c 0 34.796 -29.589 63.01 -66.11 63.01 c -36.521 0 -66.11 -28.21 -66.11 -63.01 c 0 -34.796 29.589 -63.04 66.11 -63.04 c 36.521 0 66.11 28.25 66.11 63.04" transform="matrix(0.10086 0 0 0.1062 -2.206 -4.681)" fill="#ffbcbc" stroke="#ffbcbc" stroke-width="1.998"/><g fill="#db1919"><path d="m 7.06 10.168 c -0.273 -0.125 -0.863 -0.727 -1.027 -1.051 c -0.051 -0.098 -0.152 -0.27 -0.227 -0.375 c -0.27 -0.391 -0.375 -0.922 -0.215 -1.078 c 0.598 -0.207 1.129 0.262 1.602 0.516 c 0.125 0 0.578 0.453 0.695 0.691 c 0.207 0.426 0.141 0.918 -0.164 1.246 c -0.188 0.207 -0.305 0.215 -0.664 0.051"/><path d="m 12.66 8.84 c 0.586 -0.602 0.766 -0.832 0.859 -1.09 c 0.063 -0.184 0.113 -0.391 0.113 -0.469 c 0 -0.211 0.121 -0.293 0.305 -0.211 c 0.086 0.039 0.16 0.098 0.16 0.129 c 0.215 0.113 0.582 0.469 0.902 0.648 c 0.164 0.082 0.27 0.234 0.41 0.352 c 0.203 0.164 0.148 0.262 -0.195 0.352 c -0.297 0.078 -0.949 0.363 -2.145 0.945 c -0.832 0.41 -1.566 0.699 -1.754 0.699 c -0.008 -0.402 1.066 -1.074 1.344 -1.355"/><path d="m 64.36 192.95 c 11.5 -5.773 27.591 -26.364 32.14 -36.05 c 9.591 -20.455 12.727 -55.05 7.273 -80.73 c -1.636 -7.682 -8.636 -13.864 -5.591 -18.727 c 0.909 -1.455 23.14 7.091 25.18 9.136 c 0.773 0.773 0.136 7.364 -1.409 14.636 c -1.545 7.318 -3.045 20.5 -3.364 29.364 l -0.591 16.09 l 13.545 17.318 c 19.273 24.682 28.23 31.409 62.18 46.636 c 17.09 5.5 -4.182 3.682 -10.09 3.909 c -26.318 1.136 -33.545 -2.773 -56.727 -30.591 c -13.545 -16.273 -16.05 -18.318 -16.05 -13.227 c 0 6.364 -12.182 27.18 -18.682 31.955 c -6.818 5 -19.05 10.5 -27.818 12.545 c -11.455 2.773 -8.455 1.955 0 -2.273" transform="matrix(0.08594 0 0 0.08594 0.242 -0.121)" stroke="#db1919" stroke-width="2.138"/></g></g></svg>