<svg xmlns="http://www.w3.org/2000/svg" viewBox="0 0 22 22"><path d="m 2.055 16.863 c -7.504 -11.172 7.52 -22.496 16.508 -13.391 c 8.465 8.578 -0.16 21.91 -10.934 17.742 c -2.246 -0.871 -4.195 -2.297 -5.574 -4.348" fill="#ffeb42"/><g fill="#f97896"><path d="m 8.574 11.555 c 0 1.539 -1.199 2.785 -2.676 2.785 c -1.477 0 -2.676 -1.246 -2.676 -2.785 c 0 -1.539 1.199 -2.785 2.676 -2.785 c 1.477 0 2.676 1.246 2.676 2.785"/><path d="m 18.305 11.348 c 0 1.539 -1.199 2.785 -2.676 2.785 c -1.477 0 -2.672 -1.246 -2.672 -2.785 c 0 -1.539 1.195 -2.785 2.672 -2.785 c 1.477 0 2.676 1.246 2.676 2.785"/></g><path d="m 9.473 6.656 c 0 0.465 -0.398 0.844 -0.891 0.844 c -0.488 0 -0.887 -0.379 -0.887 -0.844 c 0 -0.465 0.398 -0.84 0.887 -0.84 c 0.492 0 0.891 0.375 0.891 0.84"/><path d="m 13.75 6.711 c 0 0.492 -0.387 0.891 -0.863 0.891 c -0.477 0 -0.863 -0.398 -0.863 -0.891 c 0 -0.492 0.387 -0.891 0.863 -0.891 c 0.477 0 0.863 0.398 0.863 0.891"/><path d="m 147.3 530.86 c -1.833 4.146 -5.795 3.979 -8.239 0.499" transform="matrix(0.38356 0 0 0.39953 -44.28 -202.8)" fill="none" stroke="#000" stroke-width="1.26"/></svg>