<svg xmlns="http://www.w3.org/2000/svg" viewBox="0 0 22 22"><path d="m 14.648 1.117 c -10.949 -4.238 -16.566 7.648 -13.773 15.05 c 1.945 5.168 9.711 7.742 15.984 4.074 c 7.922 -4.633 6.234 -15.848 -2.211 -19.12" fill="#707f8f"/><g fill-rule="evenodd"><g fill="#fff"><path d="m 15.379 15.941 h -9.18 v 0.785 h 9.18"/><path d="m 10.16 13.402 v 3.313 h 1.207 v -3.313"/><path d="m 10.77 8.813 h -4.383 v 1.855 h 4.383"/><path d="m 10.77 10.898 h -4.383 v 1.855 h 4.383"/><path d="m 10.77 12.988 h -4.383 v 1.852 h 4.383"/></g><g fill="#b0c3de"><path d="m 15.14 8.813 h -4.379 v 1.855 h 4.379"/><path d="m 15.14 10.898 h -4.379 v 1.855 h 4.379"/><path d="m 15.14 12.988 h -4.379 v 1.852 h 4.379"/></g><g fill="#fff" fill-opacity="0.875"><path d="m 14.832 9.09 h -0.699 v 1.113 h 0.699"/><path d="m 14.832 11.18 h -0.699 v 1.109 h 0.699"/><path d="m 14.816 13.266 h -0.699 v 1.109 h 0.699"/></g></g><path d="m 5.02 8.453 c 0.18 0.207 3.762 -2.32 3.484 -2.129 c -0.223 0.152 2.746 -1.797 2.305 -1.832 c -0.547 -0.039 3.273 2.43 2.992 2.242 c -0.227 -0.148 2.613 1.824 2.91 1.695 c 0.367 -0.164 -7.04 -0.113 -6.477 -0.113 c 0.449 0 -5.359 -0.027 -5.215 0.137" fill="#b0c3de"/></svg>