<svg xmlns="http://www.w3.org/2000/svg" viewBox="0 0 22 22"><path d="m 18.246 18.262 c 11.164 -8.953 -5.18 -25.12 -15.06 -14.793 c -9.898 8.887 5.551 26.13 15.06 14.793" fill="#218b21"/><path d="m 5.558 -20.08 h 79.81 c 3.189 0 5.798 3.02 5.798 6.71 v 77.968 c 0 3.724 -2.609 6.743 -5.798 6.743 h -79.81 c -3.221 0 -5.83 -3.02 -5.83 -6.743 v -77.968 c 0 -3.69 2.609 -6.71 5.83 -6.71" transform="matrix(0.12128 0 0 0.11643 5.478 7.931)" fill="#00ec0c" stroke="#000" stroke-width="4.571"/><path d="m 6.199 5.805 l 10.05 9.563 c 0 0 -0.004 -5.645 -0.004 -7.773 c -0.004 -2.133 -0.223 -1.59 -1.773 -1.758 c -3.348 0 -8.273 -0.031 -8.273 -0.031" fill="#86f48d" fill-rule="evenodd"/><path d="m 6.816 14.434 h 1.816 v -5.238 l 2.426 3.492 l 2.426 -3.492 v 5.238 h 1.82 v -6.984 h -3.03 l -1.215 1.746 l -1.211 -1.746 h -3.03" fill="#4b596f"/><path d="m 6.816 7.445 h 3.03 l 1.211 1.746 l 1.215 -1.746 h 3.03 l -4.246 5.242" fill="#8282ff"/></svg>