<svg xmlns="http://www.w3.org/2000/svg" viewBox="0 0 22 22"><path d="m 19.594 3.984 c 10.234 13.195 -15.262 26.895 -18.988 10.559 c -3.82 -10.289 11.398 -20.336 18.988 -10.559" fill="#0b4751"/><path d="m 5.867 16.305 c 0.242 -0.102 0.34 -0.113 0.801 -0.102 c 0.445 0.008 0.559 -0.004 0.773 -0.094 c 0.215 -0.09 0.328 -0.102 0.773 -0.094 c 0.445 0.012 0.555 0 0.77 -0.09 c 0.215 -0.09 0.328 -0.102 0.773 -0.094 c 0.453 0.012 0.555 -0.004 0.785 -0.098 c 0.238 -0.098 0.309 -0.105 0.727 -0.078 l 0.461 0.035 l -0.012 -2 l -0.008 -2 h -6.395 l -0.016 2.215 c -0.012 1.219 -0.004 2.281 0.016 2.363 c 0.039 0.188 0.16 0.195 0.551 0.035 m 7.379 -0.879 c 0.121 -0.035 0.246 -0.086 0.281 -0.113 c 0.035 -0.023 0.324 -0.039 0.641 -0.031 c 0.508 0.008 0.598 -0.004 0.781 -0.094 c 0.184 -0.09 0.273 -0.102 0.773 -0.094 c 0.508 0.012 0.586 0 0.793 -0.098 c 0.203 -0.098 0.277 -0.109 0.594 -0.082 l 0.363 0.027 l -0.016 -1.625 l -0.012 -1.625 h -4.633 v 1.891 c 0 1.859 0.004 1.895 0.109 1.902 c 0.063 0.004 0.207 -0.02 0.324 -0.059 m 4.188 -4.664 c 0.02 -0.02 0.039 -0.754 0.039 -1.637 v -1.605 l -0.363 0.027 c -0.316 0.023 -0.391 0.016 -0.594 -0.082 c -0.207 -0.102 -0.285 -0.109 -0.793 -0.102 c -0.5 0.012 -0.59 0 -0.773 -0.09 c -0.18 -0.094 -0.273 -0.102 -0.758 -0.094 c -0.461 0.008 -0.59 -0.008 -0.789 -0.086 c -0.129 -0.055 -0.316 -0.098 -0.414 -0.102 l -0.176 -0.008 v 3.785 l 2.293 0.012 c 1.258 0.004 2.309 -0.004 2.328 -0.02 m -5.73 -0.004 c 0.02 -0.016 0.035 -0.922 0.031 -2.01 l -0.004 -1.977 l -0.461 0.031 c -0.418 0.031 -0.488 0.023 -0.727 -0.078 c -0.23 -0.094 -0.332 -0.105 -0.785 -0.098 c -0.445 0.012 -0.559 0 -0.773 -0.09 c -0.215 -0.09 -0.324 -0.102 -0.77 -0.094 c -0.445 0.012 -0.559 -0.004 -0.773 -0.09 c -0.215 -0.09 -0.328 -0.105 -0.77 -0.094 c -0.457 0.012 -0.555 -0.004 -0.809 -0.105 c -0.402 -0.156 -0.508 -0.152 -0.547 0.035 c -0.02 0.082 -0.023 1.148 -0.016 2.367 l 0.016 2.215 l 3.172 0.012 c 1.746 0.004 3.191 -0.004 3.215 -0.023" fill="#fff"/></svg>