<svg xmlns="http://www.w3.org/2000/svg" viewBox="0 0 22 22"><path d="m 16.656 1.605 c 19.367 16.621 -20.449 32.602 -16.359 6.895 c 0.898 -5.637 11.141 -11.375 16.359 -6.895" fill="#9782c1"/><path d="m 12.473 18.586 c -0.125 -0.129 -0.133 -0.293 -0.02 -0.449 c 0.121 -0.156 0.254 -1.504 0.207 -2.043 c -0.051 -0.523 -0.18 -1.02 -0.387 -1.457 l -0.152 -0.32 l -0.32 0.266 c -0.18 0.152 -0.43 0.297 -0.578 0.336 c -0.191 0.055 -0.387 0.191 -0.758 0.543 c -0.535 0.508 -0.926 0.777 -1.809 1.242 c -0.309 0.16 -0.625 0.375 -0.703 0.473 c -0.246 0.309 -0.77 0.207 -0.68 -0.133 c 0.039 -0.137 0.27 -0.27 0.469 -0.27 c 0.152 0 1.398 -1.109 1.613 -1.441 c 0.234 -0.352 0.488 -0.934 0.438 -0.984 c -0.023 -0.02 -0.457 0.059 -0.965 0.172 c -1.348 0.305 -2.074 0.391 -3.383 0.391 c -1.082 0 -1.141 0.004 -1.242 0.125 c -0.121 0.137 -0.391 0.164 -0.539 0.051 c -0.113 -0.09 -0.121 -0.293 -0.008 -0.434 c 0.074 -0.094 0.141 -0.105 0.492 -0.086 c 0.238 0.016 2.32 -0.539 2.715 -0.727 c 0.734 -0.344 1.527 -0.801 1.473 -0.844 c -0.031 -0.023 -0.266 -0.117 -0.523 -0.207 c -0.859 -0.305 -2.078 -0.879 -3.168 -1.5 c -0.977 -0.559 -1.102 -0.613 -1.312 -0.586 c -0.391 0.047 -0.605 -0.297 -0.332 -0.527 c 0.148 -0.125 0.273 -0.121 0.445 0.02 c 0.078 0.063 0.246 0.133 0.367 0.152 c 0.125 0.02 0.824 0.176 1.551 0.348 c 1.219 0.285 1.953 0.422 1.953 0.363 c 0 -0.09 -1.902 -3.477 -2.137 -3.805 c -0.359 -0.496 -0.73 -0.844 -0.992 -0.926 c -0.277 -0.086 -0.34 -0.277 -0.156 -0.477 c 0.188 -0.203 0.414 -0.156 0.59 0.117 c 0.086 0.137 0.266 0.27 0.566 0.418 c 0.582 0.285 1.23 0.809 2.01 1.625 c 0.352 0.367 0.645 0.664 0.652 0.656 c 0.012 -0.008 0.074 -0.281 0.145 -0.605 c 0.145 -0.664 0.445 -1.5 0.816 -2.289 c 0.164 -0.348 0.25 -0.613 0.25 -0.777 c 0 -0.383 0.336 -0.586 0.586 -0.352 c 0.133 0.121 0.125 0.211 -0.027 0.391 c -0.125 0.148 -0.164 0.332 -0.402 1.871 c -0.125 0.797 -0.113 1.551 0.023 1.539 c 0.02 0 0.164 -0.188 0.32 -0.418 c 0.371 -0.547 1.402 -1.52 2.371 -2.227 c 1.105 -0.809 1.559 -1.188 1.559 -1.301 c 0 -0.164 0.184 -0.355 0.34 -0.355 c 0.355 0 0.461 0.371 0.168 0.594 c -0.098 0.074 -0.27 0.297 -0.383 0.496 c -0.109 0.195 -0.496 0.695 -0.855 1.105 c -0.359 0.406 -0.738 0.855 -0.84 0.988 c -0.219 0.297 -0.492 0.836 -0.453 0.895 c 0.012 0.023 0.23 -0.035 0.48 -0.125 c 0.25 -0.09 0.75 -0.219 1.109 -0.289 c 0.57 -0.109 0.766 -0.121 1.555 -0.086 c 0.5 0.023 1.125 0.043 1.395 0.051 c 0.434 0.008 0.504 0.023 0.609 0.148 c 0.105 0.121 0.113 0.152 0.035 0.262 c -0.121 0.172 -0.313 0.18 -0.598 0.027 c -0.227 -0.117 -0.301 -0.125 -0.859 -0.09 c -0.336 0.02 -0.781 0.074 -0.984 0.125 c -0.457 0.109 -1.094 0.391 -1.246 0.551 c -0.133 0.137 -0.207 0.105 0.762 0.32 c 1.313 0.289 2.398 0.789 3.719 1.715 c 0.367 0.258 0.703 0.469 0.75 0.469 c 0.148 0 0.414 0.238 0.414 0.375 c 0 0.145 -0.18 0.324 -0.324 0.324 c -0.121 0 -0.363 -0.242 -0.363 -0.367 c 0 -0.125 -1.043 -0.617 -1.828 -0.863 c -0.414 -0.133 -0.734 -0.191 -1.145 -0.211 c -0.605 -0.031 -1.195 0.059 -1.25 0.191 c -0.016 0.043 0.113 0.215 0.289 0.387 c 0.492 0.48 1.043 1.238 1.41 1.941 c 0.391 0.75 0.527 1.203 0.527 1.766 c 0 0.305 0.031 0.457 0.125 0.609 c 0.133 0.207 0.117 0.336 -0.051 0.52 c -0.117 0.125 -0.223 0.129 -0.352 0.012 c -0.07 -0.066 -0.094 -0.195 -0.082 -0.48 c 0.012 -0.316 -0.023 -0.469 -0.168 -0.797 c -0.32 -0.73 -0.82 -1.336 -1.34 -1.621 l -0.191 -0.102 v 0.809 c 0 0.902 -0.172 2.273 -0.379 3.01 c -0.074 0.254 -0.227 0.645 -0.34 0.863 c -0.172 0.32 -0.199 0.426 -0.152 0.543 c 0.082 0.199 0.074 0.238 -0.066 0.367 c -0.156 0.145 -0.324 0.148 -0.457 0.012" fill="#deb886"/><path d="m 12.605 18.05 c 0.016 -0.055 0.063 -0.402 0.102 -0.77 c 0.074 -0.68 0.047 -1.41 -0.07 -1.836 c -0.109 -0.395 -0.445 -1.141 -0.531 -1.172 c -0.059 -0.023 -0.008 -0.16 0.191 -0.504 c 0.348 -0.605 0.547 -1.156 0.754 -2.105 c 0.219 -1.01 0.203 -1.711 -0.047 -2.18 c -0.094 -0.176 -0.156 -0.332 -0.141 -0.344 c 0.016 -0.016 0.223 0.004 0.461 0.043 c 0.973 0.148 2.328 0.688 3.371 1.344 c 0.523 0.328 1.426 0.992 1.352 0.992 c -0.02 0 -0.344 -0.145 -0.719 -0.32 c -0.371 -0.176 -0.941 -0.402 -1.262 -0.504 c -0.523 -0.168 -0.664 -0.188 -1.305 -0.191 c -0.609 -0.004 -0.758 0.016 -1.012 0.125 c -0.164 0.07 -0.297 0.152 -0.297 0.184 c 0 0.027 0.168 0.219 0.379 0.422 c 0.758 0.742 1.578 2.047 1.805 2.875 c 0.109 0.395 0.184 1.273 0.113 1.336 c -0.016 0.016 -0.066 -0.113 -0.109 -0.293 c -0.109 -0.469 -0.523 -1.195 -0.883 -1.563 c -0.293 -0.297 -0.836 -0.676 -0.973 -0.676 c -0.043 0 -0.078 0.434 -0.102 1.18 c -0.031 1.109 -0.152 2.059 -0.359 2.809 c -0.105 0.375 -0.57 1.25 -0.664 1.25 c -0.055 0 -0.078 -0.039 -0.055 -0.102 m -4.766 -1.105 c 0 -0.023 0.168 -0.176 0.379 -0.336 c 0.84 -0.645 1.324 -1.23 1.586 -1.93 l 0.137 -0.363 l 0.18 0.18 c 0.102 0.098 0.301 0.23 0.449 0.293 l 0.266 0.109 l -0.297 0.328 c -0.422 0.461 -1.082 0.934 -1.926 1.379 c -0.762 0.402 -0.777 0.41 -0.773 0.34 m -3.684 -2.152 c 0 -0.043 0.008 -0.074 0.016 -0.074 c 0.008 0 0.508 -0.113 1.109 -0.254 c 0.645 -0.152 1.254 -0.332 1.496 -0.441 c 0.781 -0.367 1.684 -0.895 1.684 -0.988 c 0 -0.063 -0.156 -0.148 -0.484 -0.258 c -0.793 -0.273 -2.426 -1.035 -3.246 -1.512 c -0.422 -0.25 -0.891 -0.508 -1.043 -0.574 c -0.148 -0.07 -0.258 -0.148 -0.238 -0.176 c 0.047 -0.074 0.418 -0.012 1.457 0.246 c 1.328 0.332 2.441 0.539 2.516 0.469 c 0.043 -0.039 0.008 -0.148 -0.105 -0.336 c -0.094 -0.152 -0.477 -0.844 -0.848 -1.535 c -0.852 -1.57 -1.199 -2.121 -1.688 -2.66 c -0.215 -0.234 -0.371 -0.441 -0.352 -0.461 c 0.039 -0.035 0.813 0.328 1.133 0.527 c 0.285 0.18 1.563 1.363 1.914 1.77 c 0.168 0.199 0.348 0.363 0.395 0.363 c 0.055 0 0.098 -0.102 0.125 -0.277 c 0.086 -0.609 0.414 -1.66 0.781 -2.484 c 0.379 -0.855 0.465 -1.012 0.523 -0.957 c 0.016 0.016 -0.055 0.539 -0.16 1.16 c -0.211 1.25 -0.227 2.133 -0.039 2.305 c 0.082 0.078 0.141 0.02 0.508 -0.496 c 0.523 -0.734 1.137 -1.313 2.355 -2.219 c 0.527 -0.395 1.113 -0.84 1.309 -0.996 c 0.25 -0.199 0.367 -0.262 0.414 -0.215 c 0.133 0.121 -0.328 0.801 -1.195 1.766 c -0.797 0.887 -1.332 1.75 -1.176 1.898 c 0.043 0.039 0.266 -0.004 0.711 -0.148 c 0.957 -0.301 1.672 -0.402 2.613 -0.363 c 1.063 0.043 1.285 0.125 0.461 0.172 c -0.988 0.059 -1.793 0.313 -2.25 0.715 c -0.203 0.18 -0.238 0.191 -0.328 0.117 c -0.164 -0.141 -0.648 -0.324 -0.848 -0.324 c -0.457 0 -0.945 0.371 -1.293 0.977 c -0.195 0.344 -0.418 0.504 -0.613 0.449 c -0.07 -0.023 -0.324 -0.195 -0.559 -0.387 c -0.238 -0.188 -0.508 -0.371 -0.602 -0.402 c -0.242 -0.086 -0.492 -0.016 -0.676 0.188 c -0.246 0.273 -0.223 0.781 0.086 1.688 c 0.133 0.395 0.262 0.809 0.289 0.918 c 0.074 0.336 0.371 0.809 0.961 1.543 c 0.438 0.543 0.539 0.703 0.453 0.719 c -0.059 0.008 -0.371 0.078 -0.699 0.156 c -1.473 0.348 -1.84 0.395 -3.383 0.43 c -1.164 0.027 -1.484 0.02 -1.484 -0.035 m 5.801 -1.277 c -0.242 -0.211 -0.426 -0.395 -0.41 -0.41 c 0.012 -0.012 0.219 0.066 0.453 0.176 c 0.57 0.266 0.707 0.305 0.707 0.195 c 0 -0.047 0.102 -0.117 0.23 -0.156 c 0.125 -0.039 0.371 -0.195 0.543 -0.34 c 0.359 -0.313 0.344 -0.219 -0.059 0.344 c -0.32 0.453 -0.5 0.578 -0.805 0.578 c -0.184 0 -0.289 -0.059 -0.66 -0.387 m -1.027 -1.891 c -0.164 -0.082 -0.531 -0.406 -0.531 -0.469 c 0 -0.023 0.23 -0.047 0.512 -0.047 c 0.461 0 0.5 -0.008 0.391 -0.082 c -0.109 -0.078 -0.109 -0.086 -0.016 -0.09 c 0.059 0 0.145 0.043 0.188 0.094 c 0.043 0.051 0.156 0.172 0.25 0.266 c 0.098 0.094 0.172 0.195 0.172 0.223 c 0 0.16 -0.707 0.238 -0.965 0.105 m 1.758 -0.145 c -0.055 -0.051 -0.055 -0.273 -0.004 -0.395 c 0.066 -0.164 0.512 -0.328 0.965 -0.367 c 0.344 -0.023 0.43 -0.016 0.43 0.051 c -0.004 0.105 -0.453 0.418 -0.871 0.598 c -0.359 0.156 -0.453 0.176 -0.52 0.113" fill="#8b1e73"/><path d="m 12.746 18.04 c 0.02 -0.074 0.059 -0.438 0.094 -0.816 c 0.094 -1.082 -0.047 -1.895 -0.477 -2.68 l -0.156 -0.289 l 0.281 -0.5 c 0.281 -0.504 0.539 -1.203 0.668 -1.824 c 0.039 -0.184 0.094 -0.336 0.121 -0.336 c 0.063 0 0.289 0.563 0.398 0.988 c 0.109 0.434 0.086 2.035 -0.047 2.969 c -0.141 0.988 -0.305 1.598 -0.574 2.152 c -0.219 0.445 -0.375 0.617 -0.309 0.336 m -7.828 -3.18 l -0.527 -0.039 l 0.246 -0.07 c 0.141 -0.039 0.555 -0.137 0.926 -0.219 c 0.371 -0.082 0.836 -0.207 1.035 -0.285 c 0.598 -0.227 1.707 -0.84 1.93 -1.07 l 0.211 -0.215 l 0.18 0.203 c 0.098 0.113 0.332 0.398 0.523 0.641 l 0.344 0.434 l -0.234 0.078 c -0.32 0.105 -1.695 0.395 -2.23 0.469 c -0.594 0.082 -1.758 0.117 -2.402 0.074 m 5.348 -1.148 c -0.277 -0.199 -0.363 -0.313 -0.238 -0.313 c 0.027 0 0.16 0.078 0.289 0.172 c 0.289 0.215 0.348 0.219 0.605 0.012 c 0.25 -0.199 0.582 -0.418 0.641 -0.418 c 0.082 0 -0.195 0.367 -0.422 0.559 c -0.305 0.262 -0.504 0.258 -0.875 -0.012 m -2.336 -1.953 c -0.18 -0.211 -0.328 -0.414 -0.328 -0.449 c 0 -0.035 -0.137 -0.293 -0.301 -0.574 c -0.168 -0.281 -0.602 -1.059 -0.965 -1.73 c -0.727 -1.348 -1.031 -1.82 -1.484 -2.293 c -0.168 -0.176 -0.293 -0.328 -0.277 -0.344 c 0.012 -0.012 0.242 0.086 0.512 0.215 c 0.598 0.289 1.383 0.922 2.047 1.645 c 0.277 0.297 0.605 0.637 0.738 0.754 l 0.234 0.215 l -0.156 0.215 c -0.25 0.344 -0.223 0.824 0.094 1.754 c 0.332 0.984 0.313 1.094 -0.113 0.594 m 1.199 -0.051 c -0.195 -0.055 -0.641 -0.438 -0.578 -0.496 c 0.02 -0.02 0.27 -0.004 0.559 0.031 c 0.41 0.055 0.555 0.098 0.676 0.207 c 0.098 0.09 0.129 0.164 0.094 0.199 c -0.094 0.086 -0.539 0.121 -0.75 0.059 m 1.656 -0.336 c 0 -0.207 0.203 -0.387 0.527 -0.469 c 0.289 -0.074 0.781 -0.086 0.781 -0.023 c 0 0.063 -0.738 0.52 -0.953 0.594 c -0.285 0.098 -0.355 0.078 -0.355 -0.102 m 6.316 -0.277 c -0.91 -0.406 -1.555 -0.566 -2.293 -0.566 c -0.676 -0.004 -1.063 0.09 -1.324 0.32 l -0.141 0.125 l -0.004 -0.488 c 0 -0.387 -0.035 -0.566 -0.152 -0.84 c -0.086 -0.188 -0.141 -0.359 -0.121 -0.375 c 0.016 -0.016 0.273 0.016 0.574 0.074 c 0.598 0.113 1.371 0.379 2.051 0.695 c 0.645 0.305 2.246 1.332 2.051 1.316 c -0.035 -0.004 -0.324 -0.121 -0.641 -0.262 m -7.352 -1.164 c -0.105 -0.051 -0.309 -0.199 -0.449 -0.332 c -0.254 -0.242 -0.254 -0.246 -0.184 -0.492 c 0.039 -0.137 0.09 -0.246 0.117 -0.246 c 0.027 0 0.234 -0.266 0.461 -0.586 c 0.535 -0.758 1.172 -1.355 2.551 -2.391 c 0.613 -0.461 1.195 -0.898 1.293 -0.973 c 0.152 -0.117 0.176 -0.121 0.176 -0.035 c 0 0.195 -0.434 0.82 -1.094 1.566 c -1 1.137 -1.32 1.645 -1.262 2.01 c 0.023 0.16 0 0.191 -0.215 0.293 c -0.23 0.113 -0.332 0.223 -0.754 0.832 c -0.273 0.395 -0.395 0.461 -0.641 0.352" fill="#281768"/><path d="m 137.6 168.43 c 0 -0.377 -0.33 -0.66 -0.708 -0.66 c -0.613 0 -0.613 -0.094 0 -0.989 c 0.377 -0.565 0.708 -1.79 0.708 -2.733 c 0 -0.942 0.849 -4.146 1.934 -7.115 c 2.642 -7.35 2.784 -8.01 1.651 -9.141 c -0.519 -0.471 -1.132 -0.895 -1.368 -0.895 c -0.236 0 -1.51 0.942 -2.878 2.12 c -3.68 3.251 -7.785 6.078 -11.277 7.821 c -1.934 0.989 -3.161 1.885 -3.161 2.309 c 0 0.989 -1.227 0.613 -7.313 -2.026 c -6.464 -2.78 -6.983 -2.968 -6.606 -1.979 c 0.142 0.424 -1.038 -0.33 -2.689 -1.649 c -1.604 -1.366 -3.963 -3.02 -5.237 -3.722 c -2.123 -1.178 -2.218 -1.178 -1.934 -0.283 c 0.566 1.79 -0.189 0.942 -2.218 -2.497 c -2.312 -3.958 -2.595 -5.23 -0.613 -2.968 c 0.802 0.895 2.406 2.073 3.586 2.686 l 2.123 1.084 l 1.699 -1.037 c 4.907 -3.11 5.945 -2.921 2.312 0.471 c -1.84 1.649 -2.123 2.167 -1.699 2.591 c 0.991 0.989 11.843 6.408 12.787 6.408 c 0.661 0 0.896 -0.283 0.896 -1.084 c 0 -0.801 -0.283 -1.131 -1.274 -1.366 c -1.84 -0.377 -2.265 -1.79 -2.737 -9.282 c -0.236 -3.675 -0.519 -7.35 -0.613 -8.104 c -0.189 -1.79 -4.671 -7.02 -6.511 -7.68 c -1.557 -0.518 -2.218 0.188 -1.038 1.037 c 0.661 0.518 -0.094 0.613 -5.19 0.801 c -5 0.141 -6.04 0.094 -6.511 -0.518 c -0.661 -0.801 -1.18 -2.639 -0.849 -2.968 c 0.094 -0.094 1.368 -0.33 2.784 -0.471 c 3.586 -0.33 3.727 -0.518 3.397 -4 l -0.236 -2.968 l 1.746 1.037 c 3.633 2.214 8.21 4.57 8.399 4.382 c 0.472 -0.471 -2.595 -3.958 -7.077 -8.151 c -5.237 -4.853 -6.134 -5.465 -7.927 -5.513 c -1.746 0 -2.406 1.319 -3.02 5.984 c -0.33 2.214 -0.802 4.617 -1.085 5.371 c -0.33 0.707 -0.472 2.026 -0.377 2.874 c 0.094 1.037 -0.142 0.613 -0.802 -1.366 c -0.566 -1.838 -0.944 -4.24 -0.991 -6.643 c -0.047 -3.487 0.047 -4 1.321 -6.219 c 2.218 -3.958 5.662 -5.04 9.342 -2.921 c 1.038 0.565 3.727 2.45 6.04 4.099 c 5.898 4.382 6.323 4.57 8.446 4.57 c 1.699 0 2.123 -0.236 3.727 -1.885 c 0.991 -1.037 2.548 -2.968 3.492 -4.335 c 0.944 -1.319 2.548 -3.439 3.586 -4.712 c 2.925 -3.487 8.634 -6.502 8.634 -4.57 c 0 0.236 0.189 0.424 0.472 0.424 c 0.613 0 1.746 1.131 1.746 1.743 c 0 0.283 -0.849 0.471 -1.934 0.471 c -3.067 0 -8.399 3.157 -7.266 4.288 c 0.189 0.188 1.557 -0.141 3.067 -0.66 c 3.067 -1.084 6.794 -1.272 7.172 -0.424 c 0.189 0.424 0.283 0.471 0.613 0.047 c 0.189 -0.33 0.613 -0.377 0.944 -0.188 c 0.896 0.565 -0.613 1.037 -3.633 1.178 c -2.406 0.141 -5.332 1.178 -6.983 2.544 c -1.793 1.461 -4.435 4.994 -4.435 5.937 c 0 0.565 0.189 1.037 0.425 1.037 c 0.236 0 1.746 -0.989 3.35 -2.167 c 6.794 -5.183 9.153 -5.654 12.551 -2.591 c 1.651 1.508 1.132 1.649 -1.746 0.471 c -2.642 -1.084 -2.784 -1.084 -4.624 -0.377 c -4.152 1.602 -11.749 10.46 -8.965 10.46 c 0.33 0 3.02 -0.613 5.992 -1.413 c 2.973 -0.754 5.709 -1.272 6.087 -1.131 c 0.377 0.188 0.708 0.801 0.708 1.413 c 0 0.848 0.283 1.178 1.227 1.366 c 2.454 0.565 2.831 0.707 2.642 1.225 c -0.094 0.283 -1.038 0.424 -2.359 0.377 c -4.718 -0.236 -12.834 1.932 -14.627 3.958 c -0.425 0.471 -0.849 1.743 -0.991 2.827 c -0.094 1.131 -0.377 2.026 -0.613 2.026 c -0.708 0 -1.274 1.79 -1.699 5.23 c -0.755 5.842 -1.085 6.549 -1.321 3.02 c -0.142 -1.743 -0.189 -4.476 -0.094 -6.172 c 0.142 -2.686 0.283 -3.063 1.227 -3.392 c 0.566 -0.236 1.18 -0.895 1.321 -1.508 c 0.283 -1.131 -0.425 -4.24 -1.415 -6.172 l -0.661 -1.272 l -3.067 1.696 c -1.699 0.895 -3.114 1.932 -3.114 2.262 c 0 0.33 0.519 1.602 1.18 2.874 c 1.085 2.12 1.227 2.968 1.557 9.235 c 0.142 3.769 0.33 7.916 0.33 9.188 l 0.047 2.309 l 1.982 -0.613 c 1.085 -0.33 3.303 -1.319 4.907 -2.167 c 1.604 -0.895 3.02 -1.602 3.114 -1.602 c 0.142 0 0.236 0.471 0.236 1.131 c 0 0.942 -0.425 1.319 -2.925 2.45 c -1.604 0.707 -2.878 1.555 -2.878 1.932 c 0 0.33 0.472 1.178 1.038 1.838 c 0.896 1.037 1.274 1.131 2.548 0.895 c 2.548 -0.471 6.936 -3.345 11.04 -7.209 c 4.53 -4.335 4.482 -4.806 -0.377 -4.523 c -1.699 0.094 -3.114 0.094 -3.114 0 c 0 -0.33 4.718 -2.309 5.52 -2.309 c 0.519 0 1.699 0.518 2.689 1.084 c 2.454 1.508 3.539 1.461 4.152 -0.188 c 0.236 -0.754 0.613 -1.319 0.755 -1.319 c 0.33 0 -0.047 7.35 -0.519 10.507 c -0.425 2.827 0.802 2.544 1.934 -0.424 c 1.51 -3.816 4.01 -13.24 4.765 -17.998 c 0.472 -2.968 1.274 -2.309 0.944 0.801 c -0.755 7.303 -4.199 17.904 -8.776 27.09 c -1.934 3.911 -3.397 7.303 -3.256 7.539 c 0.142 0.236 -0.142 0.424 -0.661 0.424 c -0.519 0 -0.896 -0.283 -0.896 -0.66" transform="matrix(0.08279 0 0 0.08291 0.553 0.274)" fill="#b07339" stroke="#b07339" stroke-width="0.905"/></svg>