<svg xmlns="http://www.w3.org/2000/svg" viewBox="0 0 22 22"><path d="m 0.863 13.03 c 2.191 14.668 24.723 9.656 20.461 -4.539 c -2.859 -13.488 -25.922 -9.836 -20.461 4.539" fill="#ffec3c"/><g fill="#4e4a9a"><path d="m 3.926 12.512 c -0.23 -0.125 -0.305 -0.344 -0.352 -1.012 c -0.047 -0.699 -0.008 -2.238 0.066 -2.539 c 0.031 -0.109 0.086 -0.242 0.133 -0.289 c 0.102 -0.113 0.48 -0.121 0.57 -0.012 c 0.152 0.184 0.199 3.281 0.051 3.664 c -0.059 0.152 -0.184 0.27 -0.289 0.266 c -0.023 0 -0.105 -0.035 -0.18 -0.078"/><path d="m 5.137 12.441 c -0.168 -0.203 -0.203 -0.52 -0.172 -1.488 c 0.031 -0.941 0.082 -1.125 0.305 -1.195 c 0.289 -0.09 1 -0.16 1.945 -0.195 c 0.469 -0.027 0.812 -0.133 1.152 0.184 c 0.363 0.336 0.418 0.527 0.418 1.551 c -0.004 0.926 -0.047 1.117 -0.285 1.246 c -0.152 0.082 -0.242 0.027 -0.348 -0.219 c -0.082 -0.191 -0.117 -0.398 -0.234 -1.473 c -0.016 -0.16 -0.063 -0.324 -0.105 -0.367 c -0.098 -0.094 -0.293 -0.098 -0.371 -0.004 c -0.031 0.039 -0.078 0.344 -0.105 0.672 c -0.07 0.883 -0.098 1.051 -0.203 1.23 c -0.078 0.125 -0.133 0.156 -0.27 0.156 c -0.102 0 -0.203 -0.035 -0.258 -0.098 c -0.102 -0.109 -0.176 -0.59 -0.184 -1.145 c -0.004 -0.445 -0.066 -0.785 -0.156 -0.844 c -0.121 -0.074 -0.293 -0.047 -0.352 0.059 c -0.031 0.059 -0.074 0.371 -0.102 0.699 c -0.063 0.754 -0.129 1.086 -0.258 1.25 c -0.133 0.172 -0.262 0.164 -0.418 -0.02"/><path d="m 9.953 12.488 c -0.141 -0.023 -0.281 -0.082 -0.316 -0.129 c -0.121 -0.164 -0.184 -1.609 -0.125 -2.82 c 0.039 -0.82 0.078 -0.957 0.262 -0.957 c 0.125 0 0.34 0.266 0.379 0.469 c 0.086 0.438 0.152 0.492 0.598 0.496 c 0.336 0 0.539 0.098 0.785 0.379 c 0.586 0.664 0.613 1.367 0.086 2.191 c -0.25 0.395 -0.316 0.426 -0.906 0.418 c -0.254 -0.016 -0.512 -0.008 -0.762 -0.047 m 0.895 -0.695 c 0.238 -0.258 0.32 -0.578 0.25 -0.969 c -0.086 -0.445 -0.496 -0.621 -0.781 -0.336 c -0.375 0.465 -0.215 1.57 0.531 1.305"/><path d="m 12.449 12.34 c -0.035 -0.113 -0.066 -0.699 -0.066 -1.305 c -0.008 -0.879 0.016 -1.133 0.121 -1.262 c 0.172 -0.211 0.379 -0.23 0.57 -0.043 c 0.137 0.133 0.152 0.277 0.148 1.332 c -0.004 1.332 -0.047 1.477 -0.457 1.477 c -0.227 0 -0.262 -0.02 -0.316 -0.199"/><path d="m 12.504 9.09 c -0.289 -0.219 -0.09 -0.688 0.293 -0.688 c 0.41 0 0.594 0.504 0.246 0.688 c -0.242 0.129 -0.367 0.129 -0.539 0"/><path d="m 14.445 12.586 c -0.242 -0.031 -0.379 -0.129 -0.563 -0.387 c -0.238 -0.348 -0.266 -0.469 -0.121 -0.605 c 0.164 -0.09 0.418 -0.137 0.742 0.211 c 0.184 0.125 0.379 0.09 0.434 -0.074 c 0.016 -0.047 0.016 -0.066 0 -0.082 c -0.008 -0.012 -0.02 -0.051 -0.02 -0.09 c -0.258 -0.379 -0.574 -0.496 -0.816 -0.594 c -0.445 -0.211 -0.648 -0.535 -0.453 -0.879 c 0.125 -0.215 0.305 -0.387 0.5 -0.48 c 0.227 -0.113 0.344 -0.137 0.625 -0.137 c 0.262 -0.008 0.414 0.047 0.641 0.16 c 0.129 0.074 0.305 0.227 0.344 0.301 c 0.055 0.102 -0.031 0.25 -0.191 0.328 c -0.098 0.051 -0.324 0.059 -0.457 0.012 c -0.059 -0.02 -0.121 -0.039 -0.137 -0.039 c -0.051 0 -0.238 0.082 -0.223 0.18 c 0.199 0.23 0.566 0.406 0.77 0.496 c 0.27 0.117 0.391 0.191 0.48 0.293 c 0.195 0.211 0.129 0.484 -0.211 0.895 c -0.359 0.461 -0.777 0.563 -1.344 0.492"/><path d="m 17.324 12.551 c -0.238 -0.031 -0.375 -0.129 -0.559 -0.391 c -0.238 -0.344 -0.266 -0.469 -0.121 -0.602 c 0.164 -0.09 0.418 -0.137 0.742 0.211 c 0.184 0.121 0.379 0.09 0.434 -0.074 c 0.016 -0.047 0.016 -0.07 0 -0.082 c -0.012 -0.012 -0.02 -0.055 -0.02 -0.09 c -0.258 -0.379 -0.574 -0.496 -0.816 -0.594 c -0.445 -0.215 -0.648 -0.539 -0.453 -0.879 c 0.125 -0.215 0.305 -0.387 0.5 -0.484 c 0.227 -0.109 0.344 -0.137 0.625 -0.133 c 0.258 -0.008 0.414 0.047 0.641 0.16 c 0.129 0.07 0.305 0.227 0.344 0.297 c 0.051 0.105 -0.031 0.25 -0.191 0.332 c -0.098 0.051 -0.324 0.055 -0.457 0.012 c -0.059 -0.023 -0.121 -0.039 -0.141 -0.039 c -0.047 0 -0.234 0.082 -0.223 0.176 c 0.203 0.234 0.57 0.41 0.773 0.5 c 0.266 0.113 0.391 0.191 0.48 0.289 c 0.191 0.215 0.129 0.488 -0.211 0.898 c -0.359 0.461 -0.777 0.563 -1.348 0.492"/></g></svg>