<svg xmlns="http://www.w3.org/2000/svg" viewBox="0 0 22 22"><path d="m 1.605 5.344 c 16.621 -19.367 32.602 20.449 6.895 16.359 c -5.637 -0.898 -11.375 -11.141 -6.895 -16.359" fill="#696969"/><path d="m 6.605 6.68 h 9.328 c 0.289 0 0.52 0.215 0.52 0.48 v 7.07 l -0.578 1.094 c -0.125 0.242 -0.266 0.355 -0.516 0.484 l -1.031 0.52 h -7.723 c -0.285 0 -0.52 -0.215 -0.52 -0.484 v -8.688 c 0 -0.266 0.234 -0.48 0.52 -0.48" fill-opacity="0.2"/><path d="m 15.934 16.09 c 0.289 0 0.52 -0.215 0.52 -0.484 v -4.344 h -5.441 v 4.828" fill="#666"/><path d="m 6.605 16.09 c -0.285 0 -0.52 -0.215 -0.52 -0.484 v -4.586 h 5.184 v 5.07" fill="#8c8c8c"/><path d="m 6.086 11.262 v -4.344 c 0 -0.266 0.234 -0.48 0.52 -0.48 h 4.922 v 4.824" fill="#a5a5a5"/><path d="m 11.27 6.438 v 4.824 h 5.184 v -4.344 c 0 -0.266 -0.23 -0.48 -0.52 -0.48" fill="#595959"/><g fill-opacity="0.2"><path d="m 6.605 6.438 c -0.285 0 -0.52 0.215 -0.52 0.48 v 0.242 c 0 -0.266 0.234 -0.48 0.52 -0.48 h 9.328 c 0.289 0 0.52 0.215 0.52 0.48 v -0.242 c 0 -0.266 -0.23 -0.48 -0.52 -0.48" fill="#fff"/><path d="m 17.23 14.16 c 0 1.598 -1.395 2.895 -3.109 2.895 c -1.719 0 -3.109 -1.297 -3.109 -2.895 c 0 -1.602 1.391 -2.898 3.109 -2.898 c 1.715 0 3.109 1.297 3.109 2.898"/></g><path d="m 17.23 13.918 c 0 1.598 -1.395 2.895 -3.109 2.895 c -1.719 0 -3.109 -1.297 -3.109 -2.895 c 0 -1.602 1.391 -2.898 3.109 -2.898 c 1.715 0 3.109 1.297 3.109 2.898" fill="#707f8f"/><path d="m 13.08 13.191 v 0.484 h 2.074 v -0.484 m -2.074 0.969 v 0.48 h 2.074 v -0.48" fill="#fff"/><path d="m 8.68 8.367 v 0.723 h -0.777 v 0.484 h 0.777 v 0.723 h 0.516 v -0.723 h 0.777 v -0.484 h -0.777 v -0.723 m 3.887 0.723 v 0.484 h 2.074 v -0.484 m -7.254 3.762 l -0.367 0.34 l 0.184 0.172 l 0.594 0.555 l -0.594 0.551 l -0.184 0.172 l 0.367 0.34 l 0.184 -0.168 l 0.594 -0.555 l 0.594 0.555 l 0.184 0.168 l 0.367 -0.34 l -0.184 -0.172 l -0.594 -0.551 l 0.594 -0.555 l 0.184 -0.172 l -0.367 -0.34 l -0.184 0.172 l -0.594 0.551 l -0.594 -0.551" fill-opacity="0.2"/><path d="m 8.68 8.125 v 0.727 h -0.777 v 0.48 h 0.777 v 0.723 h 0.516 v -0.723 h 0.777 v -0.48 h -0.777 v -0.727 m 3.887 0.727 v 0.48 h 2.074 v -0.48 m -7.254 3.758 l -0.367 0.344 l 0.184 0.168 l 0.594 0.555 l -0.594 0.555 l -0.184 0.168 l 0.367 0.344 l 0.184 -0.172 l 0.594 -0.555 l 0.594 0.555 l 0.184 0.172 l 0.367 -0.344 l -0.184 -0.168 l -0.594 -0.555 l 0.594 -0.555 l 0.184 -0.168 l -0.367 -0.344 l -0.184 0.172 l -0.594 0.555 l -0.594 -0.555" fill="#fff"/></svg>