<svg xmlns="http://www.w3.org/2000/svg" viewBox="0 0 22 22"><path d="m 2.102 16.863 c -11.969 -21.75 31.758 -22.777 16.707 -0.355 c -3.973 5.77 -13.484 8.582 -16.707 0.355" fill="#ffe712"/><path d="m 10.883 5.715 c -3.355 0 -6.074 2.312 -6.074 5.168 c 0.004 1.543 0.816 3 2.211 3.98 l -0.547 2.27 c -0.027 0.117 0.02 0.238 0.113 0.305 c 0.098 0.07 0.223 0.066 0.316 -0.004 l 2.152 -1.629 c 0.59 0.164 1.207 0.246 1.828 0.246 c 3.352 0 6.07 -2.313 6.07 -5.168 c 0 -2.855 -2.719 -5.168 -6.07 -5.168 m -4.336 3.445 h 1.859 c 0.195 0 0.355 0.168 0.355 0.371 c 0 0.203 -0.16 0.371 -0.355 0.371 h -0.566 v 2.242 c 0 0.199 -0.164 0.363 -0.363 0.363 c -0.199 0 -0.363 -0.164 -0.363 -0.363 v -2.242 h -0.566 c -0.195 0 -0.355 -0.168 -0.355 -0.371 c 0 -0.203 0.16 -0.371 0.355 -0.371 m 3.078 0 c 0.238 0.008 0.422 0.191 0.484 0.375 l 0.867 2.379 c 0.109 0.355 0.016 0.488 -0.086 0.535 c -0.07 0.035 -0.148 0.051 -0.23 0.051 c -0.152 0 -0.266 -0.063 -0.301 -0.164 l -0.18 -0.492 h -1.109 l -0.18 0.492 c -0.035 0.102 -0.148 0.164 -0.301 0.164 c -0.082 0 -0.16 -0.016 -0.23 -0.051 c -0.102 -0.047 -0.195 -0.18 -0.086 -0.535 l 0.867 -2.379 c 0.063 -0.184 0.246 -0.367 0.484 -0.375 m 1.961 0 c 0.203 0 0.371 0.172 0.371 0.379 v 2.219 h 0.77 c 0.191 0 0.348 0.156 0.348 0.348 c 0 0.191 -0.156 0.348 -0.348 0.348 h -1.164 c -0.191 0 -0.348 -0.156 -0.348 -0.348 v -2.566 c 0 -0.207 0.164 -0.379 0.371 -0.379 m 1.992 0 c 0.203 0 0.363 0.172 0.363 0.379 v 0.813 l 1.016 -1.055 c 0.051 -0.055 0.121 -0.086 0.199 -0.086 c 0.094 0 0.184 0.043 0.25 0.113 c 0.066 0.066 0.102 0.152 0.109 0.238 c 0.004 0.09 -0.023 0.172 -0.082 0.23 l -0.828 0.863 l 0.895 1.23 c 0.059 0.078 0.082 0.18 0.07 0.281 c -0.012 0.098 -0.063 0.188 -0.141 0.25 c -0.063 0.047 -0.141 0.074 -0.219 0.074 c -0.113 0 -0.223 -0.055 -0.289 -0.148 l -0.852 -1.176 l -0.129 0.133 v 0.824 c 0 0.207 -0.16 0.375 -0.363 0.375 c -0.199 0 -0.363 -0.168 -0.363 -0.375 v -2.586 c 0 -0.207 0.164 -0.379 0.363 -0.379 m -3.953 0.941 l -0.363 1.074 h 0.727" fill="#221919"/></svg>