<svg xmlns="http://www.w3.org/2000/svg" viewBox="0 0 22 22"><path d="m 0.441 8.547 c 1.352 -8.941 13.363 -11.332 18.668 -4.949 c 4.668 4.742 3.508 13.816 -2.219 16.93 c -6.582 4.16 -16.16 -0.984 -16.688 -9.273 c -0.055 -0.906 0.023 -1.824 0.234 -2.707" fill="#bcb76a"/><path d="m 7.719 5.859 h 6.512 c 0.477 0 0.863 0.25 0.863 0.555 v 9.59 c 0 0.309 -0.387 0.559 -0.863 0.559 h -6.512 c -0.473 0 -0.859 -0.25 -0.859 -0.559 v -9.59 c 0 -0.305 0.387 -0.555 0.859 -0.555" fill="#fff"/><path d="m 6.996 16.645 l -0.117 -0.09 v -5.23 c 0 -5.191 0 -5.23 0.102 -5.355 l 0.102 -0.125 l 3.895 -0.004 c 2.359 0 3.941 0.016 4.02 0.043 c 0.148 0.055 0.258 0.176 0.297 0.594 c 0.117 3.043 -0.051 5.05 -0.074 7.59 c -0.012 1.551 -0.02 1.684 -0.105 1.742 c -0.07 0.051 -0.863 0.066 -3.984 0.082 c -2.711 0.012 -3.91 0.031 -3.945 0.07 c -0.031 0.027 -0.07 0.133 -0.086 0.23 c -0.055 0.344 -0.34 0.324 4.01 0.324 c 2.555 0 3.926 -0.02 3.945 -0.051 c 0.016 -0.027 0.051 -0.047 0.078 -0.047 c 0.07 0 0.059 0.172 -0.016 0.23 c -0.039 0.031 -1.43 0.055 -4.03 0.066 c -3.785 0.016 -3.977 0.012 -4.086 -0.07 m 4.477 -4.332 c 0.219 -0.445 1.219 -3.098 1.219 -3.227 c 0 -0.121 -0.031 -0.16 -0.172 -0.215 c -0.254 -0.105 -0.41 -0.09 -0.5 0.047 c -0.086 0.125 -1.016 2.578 -1.145 3 c -0.074 0.238 -0.129 0.328 -0.047 0.422 c 0.102 0.105 0.352 0.188 0.48 0.152 c 0.047 -0.012 0.121 -0.094 0.164 -0.184 m -0.824 -0.41 l 0.207 -0.199 l -0.449 -0.461 c -0.246 -0.258 -0.445 -0.488 -0.445 -0.516 c 0 -0.031 0.203 -0.258 0.453 -0.508 l 0.457 -0.453 l -0.242 -0.242 c -0.133 -0.133 -0.277 -0.238 -0.32 -0.238 c -0.102 0 -1.441 1.316 -1.441 1.414 c 0 0.105 1.363 1.398 1.473 1.398 c 0.055 0 0.191 -0.09 0.309 -0.195 m 3.281 -0.504 l 0.723 -0.703 l -0.719 -0.707 c -0.395 -0.387 -0.75 -0.703 -0.789 -0.703 c -0.086 0 -0.504 0.379 -0.504 0.461 c 0 0.027 0.137 0.18 0.305 0.34 c 0.164 0.16 0.367 0.371 0.449 0.473 l 0.152 0.184 l -0.453 0.449 c -0.25 0.25 -0.453 0.477 -0.453 0.504 c 0 0.078 0.387 0.402 0.484 0.402 c 0.043 0 0.406 -0.316 0.805 -0.699" fill="#d41717"/><path d="m 6.883 16.68 l -0.094 -0.215 l 0.016 -5.289 c 0.016 -4.645 0.027 -5.301 0.105 -5.34 c 0.113 -0.059 1.344 -0.066 1.387 -0.008 c 0.02 0.027 0.035 2.262 0.035 4.973 l 0.055 5.078 l -0.699 -0.004 c -0.551 -0.117 -0.785 0.191 -0.57 0.531 c 0.043 0.055 0.27 0.023 0.777 0.043 c 0.875 0.031 0.781 0.27 0.043 0.289 c -0.559 0.016 -1 0.051 -1.055 -0.059" fill="#172a59"/><path d="m 15.297 7.656 v -0.859 l 0.168 0.066 c 0.211 0.078 0.246 0.105 0.293 0.195 c 0.07 0.133 0.082 0.273 0.086 0.82 c -0.016 0.426 0.148 0.488 -0.27 0.582 c -0.148 0.031 -0.27 0.059 -0.273 0.059 c -0.004 0 -0.004 -0.387 -0.004 -0.863" fill="#ff4500"/><path d="m 15.27 11.512 l -0.012 0.949 l 0.184 -0.094 c 0.199 -0.105 0.246 -0.113 0.289 -0.211 c 0.07 -0.145 0.086 -0.297 0.086 -0.883 c -0.016 -0.434 0.16 -0.523 -0.27 -0.625 c -0.148 -0.035 -0.27 -0.063 -0.273 -0.063 c 0 0 -0.004 0.418 -0.004 0.926" fill="#1e8fff"/><path d="m 15.324 9.559 l -0.023 1.039 l 0.191 -0.09 c 0.211 -0.098 0.246 -0.129 0.293 -0.234 c 0.066 -0.16 0.082 -0.328 0.082 -0.977 c -0.016 -0.48 0.07 -0.57 -0.266 -0.695 c -0.148 -0.039 -0.273 -0.07 -0.273 -0.07 c -0.004 0 -0.004 0.461 -0.004 1.027" fill="#0f0"/></svg>