<svg xmlns="http://www.w3.org/2000/svg" viewBox="0 0 22 22" xmlns:xlink="http://www.w3.org/1999/xlink"><path d="m 19.453 3.844 c 5.355 8.27 1.035 15.805 -5.03 17.594 c -8.156 2.406 -19.227 -3.914 -11.93 -16.941 c 2.898 -5.176 13.145 -6.547 16.957 -0.656" fill="#2f4e4e"/><g transform="matrix(0.08594 0 0 0.08594 0.772 0.263)"><path d="m 81.966 80.26 c 2.636 -5.955 5.273 -10 10.227 -15.591 c 2.636 -3 4.773 -5.682 4.773 -5.955 c 0 -0.227 -1.545 -2.273 -3.409 -4.455 c -4.136 -4.864 -5.273 -6.727 -4.864 -7.955 c 0.636 -1.864 2.318 -0.818 7.455 4.682 l 5.182 5.636 l 4.864 -1.591 c 11.05 -3.727 21.14 -3.364 34.14 1.182 c 0.909 0.273 2.364 -0.864 6.636 -5.227 c 3.045 -3.091 5.818 -5.591 6.227 -5.591 c 0.364 0 0.955 0.364 1.318 0.818 c 0.773 1 0.045 2.182 -4.818 8.227 l -3.591 4.409 l 3.773 4.591 c 13.273 14.409 11.409 26.09 12.318 34.5 c -72.909 5.227 -88.59 14 -80.23 -17.682" fill="#5a9c28" stroke="#589a27" stroke-width="0.592"/><path d="m 73.6 115.16 h 94.27 c 6.682 0 12.136 4.682 12.136 10.409 v 61.773 c 0 5.773 -5.455 10.409 -12.136 10.409 h -94.27 c -6.727 0 -12.182 -4.636 -12.182 -10.409 v -61.773 c 0 -5.727 5.455 -10.409 12.182 -10.409" fill="#e6e6e6" stroke="#e6e6e6" stroke-width="1.013"/></g><g transform="scale(0.08594)"><path d="m 61.09 131.14 c 2.955 -9.5 6.591 -17.05 9.818 -32.682 c 0.727 -1.318 4.455 -1.545 59.41 -1.545 c 34.409 0 58.773 0.364 59.05 0.818 c 1.955 11.05 7.273 19.818 9.227 31.682 c -12 0.682 -137.55 2.227 -137.5 1.727" fill="#f4f4f4" stroke="#a2a3a1" stroke-width="0.766"/><path d="m 122.09 191.23 c -5 -2.818 -9.636 -7.5 -12.318 -12.364 c -2.455 -4.5 -3.273 -7.591 -3.818 -15.05 c -0.364 -4.136 -0.227 -5.273 0.864 -8.091 c 1.545 -4.091 4.864 -9.05 8.409 -12.545 l 3.727 -4.318 l 15.182 -3.136 l 12.5 4.773 l 2.955 3.136 c 1.636 1.727 3.364 3.818 3.864 4.636 c 0.818 1.409 0.818 1.591 -0.045 2.136 c -0.818 0.545 -0.864 0.955 -0.273 3.318 c 1.727 7.05 -1.455 16.591 -8.318 19.455 c -2.818 1.136 -9.227 4 -11.727 3.591 c -2.318 -0.318 -4.773 -5.818 -6.955 -9.409 c -3.045 -5.136 0.727 -13.273 6.727 -14.455 c 2.818 -0.545 3.591 4.364 0.455 5.636 c -4.318 1.682 -6.545 -0.909 -6.545 3.773 c 0 3.364 0.227 4.136 1.636 6 c 3.091 4.091 8.682 5.136 14.227 2.682 c 5.773 -2.5 8.273 -7.682 7.136 -14.545 c -0.727 -4.5 -2.273 -7.318 -5.818 -10.5 c -3.545 -3.136 -6.909 -4.182 -12.5 -3.727 c -7.818 0.636 -17.273 6.136 -20.14 11.818 c -3.5 6.818 -3.455 15.318 0.091 21.273 c 0.955 1.636 2.545 4.409 3.545 6.227 c 1.818 3.455 4.045 5.864 8.864 9.5 c 3.545 2.682 2.773 2.773 -1.727 0.182" fill="#696969" stroke="#696969" stroke-width="0.541"/></g><path d="m 117.47 71.42 c 0 1.955 -1.182 3.773 -3.091 4.727 c -1.909 1 -4.273 1 -6.182 0 c -1.909 -0.955 -3.045 -2.773 -3.045 -4.727 c 0 -1.955 1.136 -3.773 3.045 -4.773 c 1.909 -0.955 4.273 -0.955 6.182 0 c 1.909 1 3.091 2.818 3.091 4.773" transform="matrix(0.08594 0 0 0.08594 0.147 0.675)" fill="#fff" stroke="#fff" id="0"/><use transform="translate(2.914)" xlink:href="#0"/></svg>