<svg xmlns="http://www.w3.org/2000/svg" viewBox="0 0 22 22"><path d="m 5.082 19.918 c 9.613 7.617 22.531 -8.09 13.961 -16.754 c -9.422 -9.734 -26 6.05 -15.574 15.77 c 0.555 0.594 1.074 0.656 1.609 0.984" fill="#b9bfc9"/><path d="m 9.08 16.641 c -1.711 -0.059 -2.035 -0.09 -2.516 -0.238 c -0.809 -0.25 -1.355 -0.762 -1.578 -1.48 c -0.195 -0.633 -0.156 -1.086 0.395 -4.27 c 0.273 -1.605 0.527 -3.02 0.563 -3.152 c 0.223 -0.844 0.941 -1.406 2.098 -1.648 c 0.348 -0.074 0.469 -0.07 1.172 0.035 c 0.91 0.133 2.094 0.148 3.047 0.039 c 1.07 -0.121 1.68 -0.094 2.227 0.094 c 0.863 0.301 1.32 0.723 1.535 1.418 c 0.047 0.164 0.34 1.527 0.648 3.03 c 0.742 3.645 0.781 4.332 0.285 5.03 c -0.266 0.375 -0.672 0.648 -1.23 0.824 c -0.414 0.133 -0.664 0.16 -2.031 0.234 c -2.348 0.125 -3.07 0.137 -4.613 0.086 m 4.273 -1.207 c 1.875 -0.035 2.121 -0.07 2.488 -0.352 c 0.301 -0.227 0.402 -0.461 0.355 -0.82 c -0.195 -1.527 -1.137 -6.414 -1.305 -6.77 c -0.117 -0.242 -0.477 -0.488 -0.855 -0.59 c -0.238 -0.059 -0.52 -0.063 -1.422 -0.012 c -0.695 0.039 -1.609 0.047 -2.391 0.02 c -2.219 -0.082 -2.336 -0.078 -2.672 0.102 c -0.5 0.262 -0.574 0.48 -0.914 2.684 c -0.129 0.855 -0.328 2.109 -0.441 2.789 c -0.242 1.477 -0.266 2.133 -0.082 2.43 c 0.07 0.109 0.242 0.27 0.391 0.355 c 0.254 0.148 0.305 0.156 1.508 0.195 c 1.203 0.039 1.625 0.035 5.34 -0.031"/><path d="m 7.402 15.406 c -0.699 -0.039 -0.992 -0.16 -1.219 -0.492 c -0.258 -0.371 -0.207 -0.93 0.457 -5.04 c 0.25 -1.543 0.379 -2.172 0.504 -2.418 c 0.125 -0.242 0.406 -0.445 0.711 -0.504 c 0.156 -0.031 1.605 -0.051 3.219 -0.047 c 2.82 0.012 2.953 0.016 3.207 0.133 c 0.559 0.25 0.637 0.449 1.078 2.691 c 0.551 2.781 0.844 4.613 0.777 4.875 c -0.063 0.25 -0.406 0.543 -0.758 0.652 c -0.484 0.148 -6.191 0.254 -7.977 0.145" fill="#d2e2e4"/><path d="m 7.211 15.516 c -0.566 -0.063 -0.668 -0.109 -0.91 -0.406 l -0.27 -0.34 l 0.063 -0.977 c 0.035 -0.539 0.102 -1.02 0.145 -1.07 c 0.047 -0.055 0.246 -0.043 0.477 0.023 c 0.715 0.211 3.367 0.348 5.551 0.285 c 1.855 -0.051 2.207 -0.09 2.859 -0.301 l 0.742 -0.242 l 0.141 0.969 c 0.074 0.531 0.117 1.078 0.094 1.215 c -0.023 0.145 -0.195 0.359 -0.414 0.52 c -0.359 0.262 -0.438 0.277 -1.988 0.34 c -2.098 0.086 -5.676 0.078 -6.488 -0.016" fill="#adacaf"/><path d="m 9.797 11.316 c -0.258 -0.211 -0.484 -0.617 -0.785 -1.41 c -0.285 -0.754 -0.277 -0.844 0.094 -1.141 c 0.324 -0.258 0.73 -0.395 1 -0.34 c 0.188 0.039 0.48 0.418 0.617 0.797 c 0.063 0.176 0.113 0.227 0.246 0.242 c 0.141 0.012 0.211 -0.043 0.438 -0.336 c 1.695 -2.211 3.566 -4.285 4.223 -4.676 c 0.383 -0.227 1.195 -0.359 1.492 -0.242 c 0.32 0.125 0.254 0.25 -0.629 1.164 c -0.457 0.477 -1.051 1.109 -1.316 1.402 c -0.266 0.293 -0.656 0.723 -0.863 0.953 c -0.492 0.547 -1.547 1.789 -1.895 2.238 c -0.598 0.77 -1.156 1.391 -1.316 1.457 c -0.094 0.039 -0.375 0.07 -0.629 0.07 c -0.426 0 -0.473 -0.012 -0.68 -0.18"/></svg>