<svg xmlns="http://www.w3.org/2000/svg" viewBox="0 0 22 22"><path d="m 20.395 5.344 c -16.621 -19.367 -32.602 20.449 -6.895 16.359 c 5.637 -0.898 11.375 -11.141 6.895 -16.359" fill="#007f00"/><path d="m 6.508 8.953 c 0.004 0.355 -0.176 0.684 -0.477 0.863 c -0.297 0.18 -0.668 0.18 -0.965 0 c -0.297 -0.18 -0.48 -0.508 -0.477 -0.863 c -0.004 -0.355 0.18 -0.684 0.477 -0.863 c 0.297 -0.176 0.668 -0.176 0.965 0 c 0.301 0.18 0.48 0.508 0.477 0.863" fill="#fff"/><path d="m 9.137 15.715 c -0.125 -0.422 0.027 -1.168 0.059 -1.359 c 0 -0.133 -0.406 -0.512 -0.57 -0.512 c -0.219 -0.273 -0.547 -0.508 -0.973 -0.395 c -1.367 0.789 -0.367 1.91 -1.07 2.543 c -0.395 -0.066 -1.129 0.258 -1.352 -0.055 c -0.215 -0.879 -0.641 -1.938 -0.887 -2.762 c -0.242 -0.676 -0.367 -1.656 -0.371 -2.777 c 0 -1.449 0.27 -1.898 1.141 -3.227 c 0.492 -0.469 1.734 -1.16 2.258 -0.906 c 0.215 0.125 1.215 0.145 5.312 0.098 c 0.738 -0.203 1.66 0.141 2.32 0.148 c 0.375 0 1.156 0.535 1.668 1.137 c 0.895 3.258 0.207 5.348 -0.035 6.402 c -0.219 0.965 -0.262 1.031 -0.094 1.535 c -0.16 0.379 0.074 0.445 -0.055 0.48 c -0.477 0.191 -1 0.273 -1.395 0.277 c -0.555 0 -0.695 -0.023 -1.031 -0.164 c -0.105 -0.176 -0.07 -1.816 -0.641 -1.77 c -0.375 0.059 -0.777 0.098 -1.16 0.102 l -0.281 0.691 c -0.242 0.602 0.184 0.766 -0.199 0.98 c -1.25 0.059 -2.68 0.695 -2.645 -0.469 m -2.891 -6.141 c 0.188 -0.301 -0.402 -1.305 -0.684 -1.305 c -0.172 0 -0.656 0.234 -0.504 0.387 c 0.133 0.137 0.176 0.82 0.055 1.016 c 0.176 0.637 0.813 0.344 1.133 -0.098" fill="#c7c7c7"/><path d="m 9.145 16.434 c -0.215 -0.113 -0.422 -0.406 -0.418 -0.594 c 0 -0.078 0.055 -0.273 0.121 -0.438 c 0.371 -0.902 0.352 -1.055 -0.172 -1.34 c -0.207 -0.117 -0.496 -0.293 -0.641 -0.395 c -0.262 -0.184 -0.27 -0.184 -0.465 -0.074 c -0.285 0.156 -0.316 0.227 -0.371 0.801 c -0.023 0.281 -0.074 0.605 -0.113 0.711 c -0.043 0.125 -0.055 0.34 -0.031 0.574 c 0.039 0.434 0.008 0.477 -0.438 0.531 c -0.184 0.023 -0.285 0.008 -0.332 -0.059 c -0.086 -0.121 -0.504 -0.113 -0.66 0.016 c -0.152 0.121 -0.406 0.078 -0.543 -0.098 c -0.051 -0.066 -0.117 -0.297 -0.148 -0.508 c 0 -0.344 -0.277 -0.641 -0.281 -0.965 c -0.227 -0.453 -0.711 -2.418 -0.625 -3.086 c -0.031 0 -0.055 -0.48 -0.055 -1.254 c -0.133 -0.922 0.141 -1.199 0.312 -1.777 c 0.207 -0.699 0.738 -1.398 1.332 -1.746 c 0.105 -0.066 0.246 -0.191 0.313 -0.281 c 0.129 -0.184 0.617 -0.316 1.098 -0.297 c 0.766 0.031 1.746 0.137 1.891 0.207 c 0.121 0.059 0.211 0.059 0.355 0.004 c 0.105 -0.043 0.488 -0.07 0.852 -0.063 c 0.367 0.004 1.488 0 2.492 -0.012 c 0.895 -0.051 1.98 -0.004 2.762 0.277 c 0.555 0.207 1.418 1.09 1.715 1.754 c 0.063 0.148 0.156 0.484 0.203 0.746 c 0.094 0.441 0.273 0.898 0.313 1.305 c 0.059 0.594 0.48 1.105 0.633 1.172 c 0.156 0.066 0.359 0.656 0.359 0.844 c 0 0.172 -0.266 0.242 -0.559 0.242 c -0.188 0.004 -0.27 -0.156 -0.27 -0.535 c 0 -0.195 -0.043 -0.355 -0.148 -0.531 c -0.23 -0.387 -0.359 -0.313 -0.359 0.199 c -0.035 0.461 -0.199 0.832 -0.281 1.289 c -0.086 0.418 -0.184 0.73 -0.309 1.16 l 0.094 0.457 c 0.094 0.445 0.094 0.473 -0.02 0.895 c -0.125 0.461 -0.262 0.629 -0.504 0.629 c -0.078 0 -0.289 0.059 -0.465 0.133 c -0.441 0.18 -1.09 0.176 -1.574 -0.008 c -0.504 -0.195 -0.555 -0.258 -0.418 -0.547 c 0.102 -0.199 -0.129 -0.996 -0.191 -1.102 c -0.152 -0.152 -1.348 0.012 -1.43 0.133 c -0.102 0.148 -0.109 0.227 -0.078 0.586 c 0.047 0.527 -0.023 0.664 -0.465 0.906 c -0.309 0.172 -0.379 0.184 -1.316 0.207 c -0.77 0.02 -1.031 0.004 -1.164 -0.066 m 2.207 -0.438 c 0.094 -0.215 0.453 -0.344 0.398 -0.551 c -0.059 -0.297 -0.027 -0.621 -0.031 -0.883 c -0.004 -0.535 0.063 -0.746 0.246 -0.746 c 0.156 0.004 0.215 0.051 0.344 0.289 c 0.262 0.309 0.93 0.238 1.133 -0.051 c 0.094 -0.141 0.18 -0.195 0.309 -0.195 c 0.285 0 0.32 0.094 0.32 0.801 v 0.641 l 0.168 0.031 c 0.246 0.051 0.656 0.316 0.82 0.539 c 0.34 0.434 1.215 -0.191 1.305 -0.41 c 0.188 -0.414 -0.016 -0.715 -0.047 -1.133 c 0.02 -0.703 0.336 -1.25 0.465 -1.898 c 0.082 -0.266 0.273 -0.449 0.203 -0.645 c -0.043 -0.133 -0.055 -0.316 -0.031 -0.52 c 0.082 -0.672 0.02 -2.227 -0.102 -2.539 c -0.051 -0.137 -0.094 -0.277 -0.094 -0.316 c -0.094 -0.406 -0.758 -0.805 -0.895 -1.059 c -0.074 -0.137 -0.359 -0.309 -0.891 -0.535 c -0.156 -0.066 -0.602 -0.152 -1.016 -0.195 c -0.758 -0.074 -2.164 -0.035 -2.25 0.066 c -0.047 0.051 0.332 0.535 0.418 0.535 c 0.457 0.715 0.699 1.637 0.699 2.25 c 0.094 0.77 -0.375 1.41 -0.594 2.063 c 0 0.145 -0.199 0.414 -0.773 1.039 c -0.273 0.336 -0.695 0.496 -1.027 0.688 c -0.258 0.152 -0.883 0.242 -1.328 0.191 c -0.508 -0.055 -0.547 -0.074 -0.547 -0.305 c 0 -0.242 0.156 -0.32 0.629 -0.32 c 0.609 -0.063 1.25 -0.363 1.762 -0.637 c 0.461 -0.289 0.629 -0.852 0.914 -1.234 c 0.191 -0.277 0.191 -0.594 0.262 -0.906 c 0.133 -0.594 0.168 -1.637 -0.078 -1.934 c -0.137 -0.187 -0.285 -0.523 -0.406 -0.68 c -0.438 -0.418 -1.27 -0.816 -1.84 -0.84 c -0.379 -0.004 -0.469 0.012 -0.512 0.105 c -0.027 0.059 -0.23 0.176 -0.457 0.254 c -0.453 0.16 -0.594 0.133 -0.758 -0.16 c -0.121 -0.215 -0.324 -0.219 -1.078 -0.027 c -0.309 0.078 -0.664 0.145 -0.789 0.148 c -0.129 0.004 -0.27 0.039 -0.313 0.078 c -0.313 0.105 -0.496 0.438 -0.715 0.57 c -0.094 0.051 -0.164 0.152 -0.176 0.242 c -0.02 0.156 -0.008 0.16 0.285 0.125 c 0.453 -0.055 0.617 0 0.914 0.301 c 0.223 0.227 0.281 0.328 0.324 0.586 c 0.121 0.754 -0.141 1.277 -0.742 1.496 c -0.293 0.152 -0.398 0.125 -0.68 0 c -0.168 -0.074 -0.379 -0.215 -0.461 -0.309 c -0.086 -0.094 -0.168 -0.156 -0.18 -0.141 c -0.023 0.023 -0.051 0.867 -0.039 1.086 c 0.004 0.039 0.07 0.109 0.152 0.152 c 0.137 0.074 0.145 0.094 0.113 0.453 c 0 0.555 -0.223 1.328 0.035 1.742 c 0.164 0.262 0.254 0.613 0.289 1.113 c 0.031 0.418 0.184 0.754 0.512 1.121 c 0.219 0.246 0.23 0.25 0.637 0.246 l 0.418 -0.004 c 0.02 -0.477 0.367 -0.914 0.23 -1.375 c -0.102 -0.273 -0.559 -0.266 -0.574 -0.559 c 0 -0.156 0.211 -0.348 0.465 -0.422 c 0.434 -0.125 0.684 -0.227 0.734 -0.293 c 0.215 -0.309 0.387 -0.594 0.387 -0.652 c 0 -0.148 0.195 -0.309 0.371 -0.309 c 0.16 0 0.363 0.137 0.363 0.238 c 0 0.102 -0.234 0.543 -0.309 0.578 c -0.137 0.059 -0.102 0.199 0.082 0.359 c 0.184 0.23 0.23 0.34 0.477 0.34 c 0.379 0 0.516 0.121 0.609 0.551 c 0.063 0.27 0.059 0.359 -0.02 0.617 l -0.094 0.301 c 0.133 0.152 0.27 0.328 0.43 0.445 c 0.344 0.27 0.707 0.434 1.023 0.461 c 0.27 0.027 0.504 0.051 0.527 0.059 c 0.02 0.004 0.055 -0.051 0.074 -0.121 m -1.273 -4.09 c -0.168 -0.195 -0.008 -0.555 0.363 -0.82 c 0.105 -0.078 0.297 -0.293 0.426 -0.488 c 0.285 -0.422 0.371 -0.891 0.313 -1.691 c -0.043 -0.59 -0.09 -0.734 -0.27 -0.832 c -0.438 -0.281 -1.148 -0.332 -1.609 -0.125 c -0.195 0.102 -0.32 0.059 -0.43 -0.145 c -0.203 -0.379 0.41 -0.781 1.195 -0.777 c 0.387 0 0.473 0.023 0.754 0.211 c 0.539 0.359 0.828 0.707 0.953 1.148 c 0.148 0.516 0.152 1.258 0.008 1.594 c -0.066 0.359 -0.285 0.684 -0.418 0.973 c -0.109 0.246 -0.738 0.938 -0.93 1.023 c -0.191 0.086 -0.227 0.078 -0.355 -0.07 m -4.32 -2.105 c 0.176 -0.094 0.254 -0.184 0.324 -0.398 c 0.086 -0.254 0.09 -0.293 0.008 -0.492 c -0.168 -0.41 -0.359 -0.543 -0.75 -0.512 c -0.176 0.016 -0.156 0.117 0.074 0.418 c 0.227 0.293 0.223 0.43 -0.016 0.73 c -0.121 0.148 -0.258 0.219 -0.199 0.305 c 0.094 0.129 0.273 0.102 0.559 -0.051" fill="#434343"/><path d="m 5.543 9.207 c 0 0.367 -0.234 0.668 -0.52 0.668 c -0.285 0 -0.52 -0.301 -0.52 -0.668 c 0 -0.367 0.234 -0.668 0.52 -0.668 c 0.285 0 0.52 0.301 0.52 0.668"/></svg>