<svg xmlns="http://www.w3.org/2000/svg" viewBox="0 0 22 22"><path d="m 16.309 20.05 c -27.941 11.406 -14.813 -36.563 3.434 -13.273 c 3.18 4.18 3.422 11.199 -3.434 13.273" fill="#31cd31"/><g fill="#fff"><path d="m 13.355 6.03 c -0.391 0.398 -1.293 1.242 -1.293 1.242 l 2.34 2.059 c 0 0 0.91 -1.012 1.32 -1.434 c 0.105 -0.105 0.078 -0.328 -0.035 -0.422 c -0.355 -0.289 -0.941 -0.762 -0.941 -0.762 c 0 0 -0.551 -0.461 -0.891 -0.738 c -0.125 -0.102 -0.387 -0.059 -0.5 0.055 m -2.23 2.074 l -5.641 5.762 l 0.168 2.148 l 2.32 -0.137 l 5.578 -5.707" fill-rule="evenodd"/><path d="m 4.965 16.844 h 10.789 v 0.859 h -10.789"/></g></svg>