<svg xmlns="http://www.w3.org/2000/svg" viewBox="0 0 22 22"><path d="m 2.406 18.04 c -10.238 -13.13 15.258 -26.762 18.988 -10.504 c 3.82 10.238 -11.398 20.238 -18.988 10.504" fill="#697184"/><path d="m 6.727 6.082 h 8.332 c 0.66 0 1.195 0.484 1.195 1.086 v 8.328 c 0 0.602 -0.535 1.09 -1.195 1.09 h -8.332 c -0.66 0 -1.195 -0.488 -1.195 -1.09 v -8.328 c 0 -0.602 0.535 -1.086 1.195 -1.086" fill="#4e4e4e"/><path d="m 7.551 7.414 c -0.371 0 -0.672 0.297 -0.672 0.664 v 3 l 4.711 -3.664 m 2.02 0 l -3.91 3.094 l 5.05 4.707 c 0.125 -0.121 0.203 -0.289 0.203 -0.477 v -6.66 c 0 -0.367 -0.301 -0.664 -0.672 -0.664 m -5.523 3.836 l -1.883 1.492 v 1.996 c 0 0.371 0.301 0.668 0.672 0.668 h 5.625" fill="#fff"/></svg>