<svg xmlns="http://www.w3.org/2000/svg" viewBox="0 0 22 22"><path d="m 0.32 14.227 c 0.648 6.668 6.867 8.03 12.977 7.617 c 4.973 -0.332 7.355 -2.613 8.08 -6.617 c 1.898 -10.469 -1.184 -18.23 -16.531 -13.906 c -4.676 2.078 -5.18 8.887 -4.527 12.906"/><g stroke-linecap="round"><g stroke="#c00" transform="matrix(0.14543 0 0 0.13815 3.976 2.772)"><path d="m 3.064 23.533 h 94.39 v 75.04 h -94.39" fill="#fff" stroke-width="1.232"/><g fill="#c00"><g stroke-linejoin="round"><path d="m 1.828 60.97 v -38.06 c 1.37 0 2.767 0 4.137 0 c -0.86 0.848 -1.209 2.234 -0.967 3.195 c 0.161 0.566 0.833 1.329 1.45 1.612 c 0.43 0.198 2.122 0.198 43.568 0.198 c 33.79 0 43.22 -0.028 43.594 -0.141 c 0.269 -0.085 0.672 -0.339 0.967 -0.622 c 1.101 -1.103 1.048 -3.054 -0.134 -4.04 c 0.86 -0.396 1.827 -0.198 3.438 -0.198 v 76.12 c -1.182 0 -2.337 0 -3.519 0 l 0.295 -0.396 c 0.591 -0.792 0.698 -1.866 0.295 -2.771 c -0.295 -0.65 -0.618 -0.99 -1.209 -1.329 c -14.37 -0.65 -29.12 -0.254 -43.594 -0.254 c -28.526 -0.028 -43.25 0 -43.541 0.085 c -1.182 0.311 -1.934 1.357 -1.907 2.686 c 0 0.679 0.054 0.877 0.376 1.385 l 0.349 0.566 c -1.182 0 -2.391 0 -3.599 0 v -38.03 m 23.879 32.828 c 0.698 -0.509 0.779 -0.763 0.752 -2.177 c -0.027 -2.234 -0.322 -2.488 -2.847 -2.517 h -1.638 c -0.833 0.65 -0.698 1.64 -0.672 2.517 c -0.081 1.47 0 2.177 1.128 2.375 c 0.51 -0.113 0.94 -0.141 1.316 -0.057 c 0.645 0.226 1.558 0.17 1.961 -0.141 m 15.04 0 c 1.021 -1.272 1.021 -3.252 0.376 -4.326 c -0.994 -0.792 -3.438 -0.452 -4.405 -0.085 c -0.322 0.283 -0.322 0.311 -0.376 1.838 c -0.027 1.753 0.027 2.234 0.349 2.545 c 0.779 0.368 1.585 0.057 2.229 0.17 c 0.618 0.226 1.424 0.141 1.827 -0.141 m 7.36 0.141 c 0.269 -0.113 0.564 -0.339 0.698 -0.509 c 0.51 -1.018 0.269 -1.894 0.242 -2.912 c 0 -0.368 -0.054 -0.707 -0.161 -0.877 c -0.161 -0.226 -0.134 -0.283 0.054 -0.509 l 0.215 -0.283 l 0.295 0.368 c 0.349 0.424 1.048 -0.141 1.558 -0.141 c 0.806 0.877 0.349 3.534 0.725 4.609 c 0.188 0.283 0.322 0.311 0.833 0.311 c 0.376 0 0.672 -0.057 0.806 -0.198 c 0.188 -0.17 0.215 -0.17 0.43 0 c 0.134 0.141 0.403 0.198 0.806 0.198 c 0.752 0 0.886 -0.141 1.585 -1.923 c 0.645 -1.612 0.698 -2.121 0.188 -2.63 c -0.322 -0.339 -0.349 -0.339 -1.665 -0.339 h -1.37 l 0.269 -0.424 l 0.269 -0.452 l 0.027 -26.862 c 0.027 -30.11 0.107 -26.805 -0.86 -27.682 c -1.397 -0.566 -1.612 -0.085 -3.116 -0.509 l 0.591 -3.619 l 1.128 -0.961 c -0.86 2.347 -2.471 0.481 -3.626 0.424 c -1.692 -0.226 -2.82 -0.057 -4.701 -0.057 c -0.322 0 -1.585 2.036 -3.438 2.036 c -0.134 0 -1.585 -2.064 -2.498 -2.064 c -1.531 0.141 -3.035 -0.028 -4.325 -0.622 c -1.182 -0.368 -2.525 0 -3.116 0.905 c -0.483 0.961 -0.376 1.894 0 2.743 c 0.457 0.679 1.209 1.018 2.176 0.99 c 1.209 -0.057 2.01 -1.131 2.498 -1.103 c 0.242 0 1.397 0.961 3.438 1.188 c 2.525 0.311 6.097 -0.085 6.527 -0.085 c 0.269 0 8.73 -0.226 5.533 0.028 c -0.027 0 15.31 0.368 4.271 0.594 c -0.161 0.226 -9.911 0.537 -9.965 0.792 c -0.027 0.283 -0.054 12.498 -0.027 27.17 l 0.027 26.692 l 0.269 0.452 c 0.215 0.368 8.676 -1.216 9.562 0.057 c 0.913 1.329 -9.831 0.537 -10.02 0.707 l -0.322 0.339 c 0 1.272 -0.134 2.969 0.269 3.93 c 0.403 0.396 1.262 0.424 1.665 0.028 c 0.725 -0.283 1.424 0.509 2.256 0.198 m 15.364 -0.141 c 1.128 -1.018 0.913 -3.478 0.081 -4.326 c -0.295 -0.283 -0.376 -0.311 -2.095 -0.339 c -1.746 -0.028 -1.8 -0.028 -2.122 0.254 c 0.86 1.414 0.51 2.969 -0.027 4.383 c 0.295 0.311 1.289 0.339 1.585 0.028 c 0.752 -0.254 1.773 0.537 2.579 0 m 7.333 -0.057 c 1.101 -1.074 1.343 -3.167 0.322 -4.156 c -0.994 -0.877 -2.82 -0.452 -3.922 -0.481 l -0.349 0.339 c 0.242 1.442 -0.457 2.997 0 4.326 c 0.322 0.283 1.316 0.311 1.504 0.085 c 0.779 0 1.692 0.339 2.444 -0.113 m 9.697 0.057 c 0.51 -0.368 0.86 -1.216 0.86 -2.149 c 0 -1.046 -0.161 -1.583 -0.672 -2.064 c -0.86 -0.679 -2.095 0.933 -2.767 0.933 c -0.349 -0.226 -2.901 -1.47 -3.277 -1.272 c -0.94 1.188 -0.886 4.524 0.564 4.75 c 0.725 0 0.886 -0.254 1.101 -0.877 c 0 -0.141 0.054 -0.283 0.107 -0.283 c 0.081 0 0.134 0.141 0.134 0.283 c 0.107 0.679 0.591 0.792 0.994 0.877 c 1.021 -0.198 2.149 0.085 2.955 -0.198 m -72.31 -0.085 c 0.188 -0.254 0.349 -0.622 0.403 -0.877 c 0.054 0 0.107 0.141 0.107 0.311 c 0 0.17 0.134 0.452 0.269 0.594 c 0.322 0.339 1.209 0.368 1.612 0.028 c 0.537 -1.414 0.322 -2.064 0.349 -3.959 l -0.349 -0.339 c -0.188 -0.198 -0.43 -0.368 -0.537 -0.368 c -0.107 0 -0.161 -0.028 -0.134 -0.085 c 0.457 -0.905 0.43 0.707 0.403 -28.05 l -0.027 -27.06 l -0.322 -0.481 c -0.349 -0.566 -5.856 0.198 -3.841 -1.216 c 0.269 0.057 4.915 0.82 5.05 0.763 c 0.107 -0.028 0.86 -1.131 1.638 -1.131 c 2.203 0 2.337 1.074 2.632 0.905 c 0.51 -0.339 0.618 -1.216 0.188 -1.697 c -0.134 -0.17 -0.134 -0.198 0 -0.339 c 0.537 -1.046 -0.483 -1.838 -1.101 -2.262 c -0.806 -0.481 -2.31 -0.537 -2.847 0.198 c -0.161 0.254 -0.269 0.283 -0.537 0.226 c -0.886 0.141 -1.773 0.339 -1.961 0.283 c -4.11 -1.131 -2.364 2.347 -2.605 3.365 c -0.349 0.113 -1.101 1.074 -1.236 1.612 c -0.081 0.396 -0.134 7.889 -0.134 27.03 c 0 29.1 -0.054 27.23 0.698 27.993 l 5.533 -0.226 l -5.157 1.357 c -0.027 1.866 -0.027 3.167 0.242 3.421 c 0.349 0.396 1.262 0.396 1.665 0 m 7.387 0.17 c 0.161 -0.085 0.242 -0.085 0.295 0 c 0.967 0.226 2.041 0.17 2.847 -0.141 c 0.403 -1.046 0.376 -2.771 0.027 -3.676 c -1.343 -1.329 -3.01 -1.329 -4.647 -0.679 c -0.564 1.244 -0.672 2.912 -0.027 4.383 c 0.269 0.254 1.128 0.339 1.504 0.113 m 17.14 0.113 c 0.645 0 0.806 -0.113 1.209 -0.82 c 0.457 -1.216 0.161 -2.771 -0.43 -3.789 c -0.295 -0.254 -0.43 -0.283 -0.886 -0.226 c -0.725 0.085 -1.504 0.028 -2.149 0.028 c -1.585 -0.028 -1.585 -0.057 -1.585 2.375 c 0 1.668 0.027 1.866 0.242 2.121 c 0.215 0.283 0.349 0.311 0.833 0.311 c 1.155 -0.537 1.638 -0.396 2.767 0 m 60.03 -4.185 c 0.672 -0.339 1.262 -1.103 1.397 -1.781 c 0.107 -0.452 0.134 -8.228 0.107 -27.23 l -0.054 -26.636 l -0.242 -0.481 c -0.537 -1.018 -1.45 -1.527 -2.552 -1.414 c -1.209 0.085 -2.068 0.961 -2.283 2.319 c -0.081 0.452 -0.107 10.264 -0.081 27.06 c 0.027 29.04 -0.027 26.664 0.752 27.569 c 0.672 0.792 2.01 1.074 2.955 0.594 m -35.16 -56.61 c 1.397 0.933 5.292 -1.894 5.99 -1.951 c 1.289 -0.028 0.672 1.64 1.262 1.668 c 0.591 0.028 4.486 0.057 5.184 0.028 c 0.645 0 1.155 -0.226 1.504 -0.679 c 0.376 -1.018 0.295 -2.064 -0.107 -2.969 c -1.424 -0.566 -2.713 -0.368 -4.083 -0.368 c -2.256 -1.159 -7.172 0.254 -8.945 -0.368 c -1.45 -0.566 -2.552 -0.452 -3.492 0.679 c -0.43 0.65 -0.457 1.866 -0.054 2.573 c 0.483 0.848 1.531 1.301 2.579 1.103 c 0.564 -0.057 0.537 0.283 0.833 0.707 c 2.579 0.254 1.209 -0.113 -0.672 -0.424 m 23.691 0.481 c 0.779 -3.761 1.37 -0.311 4.835 -0.877 c 0.698 -0.905 0.672 -2.573 0.322 -3.506 c -1.343 -1.074 -2.793 -0.905 -4.271 -1.272 c -1.289 0.452 -1.746 1.131 -2.82 0.452 c -1.289 -0.396 -3.17 -0.594 -4.378 0.057 c -0.43 1.329 -0.591 2.771 0 4.128 c 2.471 -0.283 4.11 1.951 6.312 1.018 m -55.23 -0.877 c 0.967 -0.848 0.913 -2.01 0.51 -3.054 c -0.672 -0.792 -1.477 -0.792 -2.229 -1.018 c -0.134 3.11 -5.506 -3.478 -5.721 1.781 c 0 1.612 0.081 1.979 0.457 2.262 c 1.531 0.65 2.874 -0.877 4.137 -0.961 c 0.886 0 1.504 1.103 1.558 1.159 c 0.483 0.028 0.913 -0.057 1.289 -0.17" stroke-width="0.117"/><g stroke-width="0.015"><path d="m 43.945 21.441 c 0 -0.028 0 -0.085 0 -0.085 c 0 0 0.027 0.028 0.081 0.057 l 0.054 0.085 h -0.134"/><path d="m 36.05 21.02 l 0.054 -0.085 v 0.085 c 0 0.085 0 0.085 -0.054 0.085 h -0.027"/><path d="m 36.1 19.716 c -0.027 -0.057 -0.027 -0.085 0 -0.057 c 0 0.028 0 0.057 0 0.057 v 0.057"/></g></g><path d="m 48.46 89.67 c -0.43 -0.339 -0.618 -0.82 -0.698 -1.697 c -0.081 -0.594 -0.081 -7.38 -0.081 -27.17 l -0.027 -26.409 l 0.188 -0.594 c 0.081 -0.311 0.269 -0.763 0.403 -0.961 c 0.242 -0.311 0.349 -0.368 0.725 -0.396 c 0.618 -0.057 0.994 0.254 1.316 1.046 l 0.242 0.566 v 26.975 c 0 26.324 0 26.975 -0.134 27.399 c -0.161 0.566 -0.51 1.188 -0.779 1.357 c -0.269 0.198 -0.833 0.141 -1.155 -0.113" stroke-width="0.187"/></g></g><path d="m 193.05 90.61 l -7.511 -15.952 l -17.02 -4.65 l 12.873 -12.06 l -0.864 -17.6 l 15.452 8.507 l 16.496 -6.266 l -3.326 17.301 l 11.03 13.759 l -17.489 2.204" transform="matrix(0.10005 0.03027 -0.03021 0.09839 -1.054 -5.278)" fill="#ffd733" stroke="#000" stroke-width="2.079"/></g></svg>