<svg xmlns="http://www.w3.org/2000/svg" viewBox="0 0 22 22"><path d="m 18.238 18.246 c -9.01 11.164 -25.277 -5.18 -14.887 -15.06 c 8.945 -9.898 26.301 5.551 14.887 15.06" fill="#707f8f"/><path d="m 5.07 13.156 c -0.129 0.055 0.773 -0.566 0.906 -0.641 c 0.16 -0.082 0.141 -0.379 0.16 -0.785 c 0.012 -0.211 0.02 -0.406 0.023 -0.441 c 0 -0.031 -0.117 -0.105 -0.266 -0.164 c -0.449 -0.172 -0.633 -0.277 -0.672 -0.379 c -0.117 -0.305 0.586 -1.91 0.91 -2.082 c 0.117 -0.063 0.582 -0.039 0.836 0.043 c 0.207 0.066 0.281 0.039 0.496 -0.203 c 0.086 -0.102 0.23 -0.258 0.32 -0.352 c 0.223 -0.238 0.242 -0.328 0.152 -0.676 c -0.082 -0.324 -0.07 -0.59 0.035 -0.809 c 0.063 -0.121 0.137 -0.172 0.824 -0.547 c 0.852 -0.465 0.91 -0.48 1.195 -0.332 c 0.148 0.078 0.215 0.156 0.34 0.406 l 0.152 0.309 c 0.184 0.004 0.375 0.031 0.563 -0.016 c 0.039 -0.02 0.16 -0.039 0.266 -0.043 c 0.277 -0.008 0.324 -0.047 0.484 -0.371 c 0.191 -0.379 0.379 -0.684 0.445 -0.719 c 0.094 -0.051 0.629 0.012 1.02 0.117 c 0.406 0.113 0.949 0.367 0.984 0.461 c 0.016 0.031 -0.008 0.16 -0.051 0.285 c -0.047 0.203 -0.105 0.418 -0.172 0.586 l -0.125 0.301 c 0.129 0.105 0.305 0.184 0.391 0.328 c 0.125 0.137 0.262 0.203 0.426 0.301 l 0.348 -0.156 c 0.348 -0.156 0.496 -0.18 0.773 -0.113 c 0.129 0.027 0.141 0.055 0.434 0.816 c 0.293 0.762 0.301 0.789 0.234 0.922 c -0.137 0.281 -0.25 0.398 -0.578 0.605 l -0.332 0.211 c -0.027 0.184 -0.117 0.398 -0.09 0.574 c 0.016 0.035 0.012 0.152 -0.004 0.262 c -0.039 0.281 -0.012 0.324 0.285 0.434 c 0.363 0.129 0.621 0.262 0.648 0.332 c 0.035 0.09 -0.16 0.738 -0.344 1.145 c -0.168 0.371 -0.527 0.965 -0.613 1.012 c -0.063 0.035 -0.676 -0.039 -0.859 -0.105 c -0.328 -0.066 -0.414 0.207 -0.633 0.398 c -0.09 0.078 -0.215 0.223 -0.277 0.316 c -0.109 0.168 -0.109 0.191 -0.023 0.52 c 0.09 0.348 0.078 0.566 -0.047 0.82 c -0.059 0.117 -0.133 0.168 -0.871 0.559 c -0.746 0.398 -0.82 0.43 -0.938 0.402 c -0.211 -0.047 -0.391 -0.215 -0.543 -0.504 c -0.188 -0.484 -0.617 -0.223 -1.059 -0.254 c -0.09 -0.055 -0.285 0.109 -0.363 0.301 c -0.121 0.297 -0.465 0.785 -0.563 0.801 c -0.34 0.059 -1.191 -0.141 -1.668 -0.395 c -0.293 -0.152 -0.367 -0.293 -0.234 -0.441 c 0.051 -0.059 0.09 -0.148 0.09 -0.199 c 0.043 -0.254 0.141 -0.461 0.223 -0.719 c 0 -0.004 -0.133 -0.129 -0.293 -0.273 c -0.305 -0.277 -0.348 -0.508 -0.512 -0.418 c -1.059 0.41 0.07 0.008 -1.148 0.453 c -0.91 -1.863 -0.555 -1.01 -0.688 -1.883 m 4.766 -1 c 0.211 0.203 0.43 0.293 0.703 0.293 c 0.254 0 0.32 -0.023 0.656 -0.203 c 0.332 -0.172 0.402 -0.23 0.57 -0.441 c 0.105 -0.137 0.199 -0.293 0.211 -0.348 c 0.098 -0.359 0.035 -0.66 -0.043 -0.863 c -0.121 -0.313 -0.168 -0.387 -0.293 -0.461 c -0.168 -0.137 -0.375 -0.195 -0.59 -0.188 c -0.246 0.008 -0.332 0.035 -0.641 0.199 c -0.578 0.309 -0.844 0.699 -0.859 1.273 c -0.008 0.195 0.156 0.617 0.285 0.738" fill="#fff"/></svg>