<svg xmlns="http://www.w3.org/2000/svg" viewBox="0 0 22 22"><path d="m 11.918 0.055 c -13.344 -1.27 -16.938 20.13 -3.234 21.793 c 12.602 2.059 19.09 -17.34 6.57 -21.22 c -1.059 -0.426 -2.215 -0.418 -3.336 -0.574" fill="#f69c42"/><g stroke-opacity="0.976" fill="#fff" stroke="#ff9f79"><path d="m 99.19 212.79 c -9.164 -3.591 -31.798 -14.727 -37.891 -18.636 c -3.299 -2.091 -6.46 -5.091 -8.11 -7.682 l -2.657 -4.227 l -0.641 -26.09 c -0.779 -30.909 -2.062 -52.682 -3.299 -55.909 c -0.825 -2.182 -2.291 -9.273 3.528 -13.227 c 6.552 -4.5 14.158 -9.273 17.777 -14.546 c 1.191 -1.682 8.156 -2.273 9.164 -2.5 c 1.054 -0.227 9.53 -1.727 18.831 -3.409 c 9.301 -1.636 21.03 -4 26.02 -5.182 l 9.118 -2.227 l 13.241 3.273 c 7.331 1.773 14.341 3.273 15.578 3.273 c 1.283 0 2.291 0.364 2.291 0.818 c 0 1.591 17.227 6.909 21.947 14.455 l 7.789 12.455 l -0.687 3.773 c -1.191 7.136 -2.703 32.773 -3.299 56.727 c -0.367 13.273 -0.962 25.05 -1.375 26.18 c -0.916 2.455 -5.407 4.818 -29.965 15.727 c -24.19 10.773 -42.931 18.18 -47.51 18.818 c -2.703 0.364 -5.452 -0.136 -9.851 -1.864 m 16.632 -8.409 c 3.711 -3.318 1.833 -4.227 -8.843 -4.227 c -8.889 -0.045 -10.813 0.727 -8.614 3.409 c 1.833 2.182 4.49 3 9.942 3.091 c 3.895 0.045 5.407 -0.409 7.514 -2.273 m -1.145 -12.773 c 1.1 -1.136 1.924 -62.773 0.962 -72.09 l -0.641 -5.864 h -3.528 c -1.97 0 -5.544 0.227 -7.926 0.591 l -4.353 0.591 v 75.82 l 4.444 1.409 c 4.582 1.455 9.301 1.273 11.04 -0.455 m -23.825 -4.864 c 1.01 -2.455 1.283 -10.818 1.283 -40.05 c 0 -34.909 -0.092 -37.05 -1.741 -38.27 c -1.833 -1.318 -24.15 -7 -27.582 -7 c -1.329 0 -2.153 0.773 -2.566 2.364 c -0.55 2.227 1.512 52.818 2.795 67.818 c 0.321 3.682 1.1 7.455 1.741 8.318 c 1.283 1.773 19.518 9.545 22.771 9.727 c 1.42 0.091 2.383 -0.773 3.299 -2.909 m 56.04 -4.091 c 21.259 -8.182 26.895 -10.955 28.27 -14 c 1.145 -2.591 2.612 -61.18 1.649 -67.55 c -0.596 -3.864 -0.916 -4.409 -2.978 -4.409 c -3.299 0 -42.565 8.409 -46.14 9.909 c -2.841 1.182 -2.978 1.455 -3.665 8.591 c -0.733 7.773 0.183 66.27 1.145 71.55 c 0.321 1.727 1.1 3.045 1.879 3.045 c 0.733 0 9.668 -3.227 19.839 -7.136 m -29.28 -78.909 c 0.733 -0.955 1.283 -3.364 1.283 -5.273 c 0 -9.773 -13.15 -13.05 -20.435 -5.136 c -6.781 7.409 -1.42 13 11.867 12.455 c 4.582 -0.182 6.323 -0.682 7.285 -2.045 m -28.819 -8.864 c 1.054 -2.045 1.924 -4.773 1.924 -6.05 c 0 -2.091 -0.596 -2.455 -5.407 -3.545 c -2.978 -0.636 -8.797 -1.227 -12.921 -1.227 c -7.285 -0.045 -7.514 0.045 -8.751 2.545 c -2.108 4.364 -0.779 6.091 6.231 8.091 c 16.403 4.773 16.586 4.773 18.923 0.182 m 64.741 -1.864 c 11.5 -2.5 21.21 -4.818 21.534 -5.136 c 1.145 -1.136 -1.329 -6.727 -3.528 -7.909 c -3.711 -1.955 -15.807 -0.773 -31.2 3.136 c -15.486 3.909 -17.457 4.818 -15.99 7.545 c 0.504 1 1.42 3 1.97 4.409 c 1.375 3.5 2.199 3.409 27.22 -2.045 m -22.13 -15.864 c 9.622 -2 11.684 -3.364 7.652 -4.955 c -3.665 -1.409 -13.562 -0.545 -27.353 2.409 c -13.974 3 -14.57 3.227 -13.837 4.455 c 0.916 1.455 23.459 0.182 33.539 -1.909" transform="matrix(0.08526 0 0 0.08594 0.981 -0.666)" fill-opacity="0.984" stroke-width="0.95"/><path d="m 38.428 142.67 c -0.997 -2.955 -0.655 -24.776 0.405 -27.885 c 0.966 -2.801 1.184 -2.955 4.551 -2.708 c 3.304 0.215 3.584 0.431 4.582 3.693 c 1.122 3.816 3.553 4.74 4.02 1.57 c 0.655 -4.37 2.338 -7.02 5.143 -8.218 c 1.59 -0.646 3.179 -0.954 3.522 -0.677 c 0.842 0.677 1.465 23.73 0.717 26.961 c -0.405 1.754 -1.403 2.862 -3.086 3.478 c -3.086 1.139 -4.831 0.185 -5.922 -3.232 c -1.091 -3.447 -2.836 -3.447 -3.616 0 c -1.216 5.478 -4.364 8.741 -8.353 8.741 c -0.779 0 -1.652 -0.769 -1.964 -1.724" transform="matrix(0.12533 0 0 0.12692 7.532 -4.706)" stroke-width="0.869"/></g></svg>