<svg xmlns="http://www.w3.org/2000/svg" viewBox="0 0 22 22"><path d="m 18.17 3.93 c 11.05 8.871 -5.125 24.887 -14.902 14.656 c -9.797 -8.805 5.492 -25.895 14.902 -14.656" fill="#546a2f"/><path d="m -77.68 150.8 l 133.25 -0.022 l -0.019 47.961 l -133.21 -0.01" transform="matrix(0.05973 -0.06179 0.06315 0.05829 0 0)" fill="#fff" stroke="#ff9f79" stroke-width="0.541"/><path d="m 7.805 16.676 c -0.012 -0.012 -0.301 -0.07 -0.641 -0.129 c -0.949 -0.164 -1.395 -0.371 -1.305 -0.609 c 0.039 -0.098 0.512 -0.348 0.664 -0.352 c 0.051 0 0.094 -0.031 0.094 -0.074 c 0 -0.121 -0.188 -0.344 -0.992 -1.176 l -0.77 -0.797 l 0.75 -0.785 c 0.41 -0.43 0.75 -0.82 0.75 -0.859 c 0 -0.043 1.133 -1.219 2.516 -2.609 c 3.03 -3.047 3.688 -3.688 3.793 -3.688 c 0.043 0 0.273 0.172 0.508 0.379 c 0.234 0.207 0.445 0.379 0.469 0.379 c 0.027 0 0.047 0.039 0.047 0.086 c 0 0.047 -1.402 1.531 -3.113 3.305 l -3.109 3.223 l 0.461 0.473 c 0.25 0.258 0.48 0.469 0.512 0.469 c 0.027 0 1.488 -1.457 3.246 -3.234 l 3.191 -3.23 l -1.016 -1.039 c -0.559 -0.57 -1.016 -1.059 -1.016 -1.086 c 0 -0.023 0.215 -0.047 0.477 -0.047 h 0.473 l 2.164 2.188 v 0.469 c 0 0.258 -0.027 0.539 -0.055 0.621 c -0.031 0.082 -1.059 1.184 -2.285 2.445 c -1.227 1.262 -2.633 2.723 -3.129 3.246 c -0.504 0.535 -0.949 0.965 -1.023 0.984 c -0.141 0.035 -1.094 0.984 -1.043 1.035 c 0.051 0.055 1.504 0.133 2.48 0.133 c 0.516 0 0.938 0.023 0.938 0.047 c 0 0.125 -1.941 0.285 -3.234 0.266 c -0.43 -0.008 -0.793 -0.023 -0.801 -0.031 m 1.344 -1.605 c 0 -0.031 -0.613 -0.699 -1.363 -1.484 l -1.363 -1.426 l -0.668 0.641 c -0.367 0.352 -0.668 0.668 -0.668 0.703 c 0 0.031 0.633 0.703 1.398 1.488 l 1.398 1.43 l 0.633 -0.648 c 0.348 -0.355 0.633 -0.672 0.633 -0.703 m 6.594 -7.04 c 0 -0.297 -0.047 -0.34 -0.156 -0.133 c -0.039 0.074 -0.094 0.133 -0.125 0.133 c -0.027 0 0.004 0.063 0.07 0.137 c 0.07 0.074 0.145 0.133 0.168 0.133 c 0.023 0 0.043 -0.121 0.043 -0.27 m -6.262 3.891 c -0.242 -0.223 -0.293 -0.379 -0.121 -0.379 c 0.07 0 0.105 -0.035 0.105 -0.102 c 0 -0.129 0.164 -0.277 0.305 -0.277 c 0.09 0 0.109 -0.031 0.102 -0.148 c -0.008 -0.133 0.008 -0.148 0.156 -0.148 c 0.156 0 0.168 -0.012 0.141 -0.148 c -0.051 -0.25 0.105 -0.176 0.293 0.145 c 0.203 0.344 0.184 0.434 -0.09 0.383 c -0.156 -0.031 -0.18 -0.023 -0.129 0.031 c 0.098 0.102 0.086 0.32 -0.012 0.32 c -0.047 0 -0.176 -0.051 -0.289 -0.109 c -0.262 -0.137 -0.266 -0.137 -0.266 0.027 c 0 0.121 0.023 0.133 0.211 0.133 c 0.262 0 0.301 0.148 0.055 0.199 c -0.117 0.023 -0.152 0.059 -0.145 0.141 c 0.02 0.176 -0.078 0.156 -0.316 -0.066 m 1.047 -1.23 c -0.121 -0.141 -0.215 -0.273 -0.219 -0.297 c 0 -0.059 0.094 -0.051 0.133 0.016 c 0.047 0.078 0.184 0.063 0.184 -0.02 c 0 -0.086 0.219 -0.305 0.305 -0.305 c 0.031 0 0.102 -0.094 0.152 -0.203 c 0.078 -0.164 0.133 -0.207 0.266 -0.219 c 0.133 -0.016 0.188 0.016 0.277 0.145 c 0.137 0.195 0.09 0.332 -0.145 0.434 c -0.16 0.066 -0.301 0.355 -0.246 0.504 c 0.051 0.129 -0.07 0.168 -0.215 0.07 c -0.121 -0.082 -0.129 -0.082 -0.129 0.023 c 0 0.18 -0.137 0.125 -0.363 -0.148 m 0.52 -0.309 c 0 -0.047 -0.02 -0.082 -0.047 -0.082 c -0.066 0 -0.113 0.086 -0.074 0.129 c 0.063 0.059 0.121 0.035 0.121 -0.047" fill="#c80302"/></svg>