
<svg xmlns="http://www.w3.org/2000/svg" xmlns:xlink="http://www.w3.org/1999/xlink" width="22px" height="22px" viewBox="0 0 22 22" version="1.1">
<g id="surface1">
<path style=" stroke:none;fill-rule:nonzero;fill:rgb(12.54902%,69.803922%,66.666667%);fill-opacity:1;" d="M 2.292969 5.136719 C -4.964844 13.320312 6.484375 25.917969 16.066406 20.824219 C 25.753906 15.675781 23.171875 -1.363281 11.273438 0.0859375 C 7.734375 0.519531 4.660156 2.46875 2.292969 5.136719 "/>
<path style="fill-rule:nonzero;fill:rgb(100%,100%,100%);fill-opacity:1;stroke-width:0.708;stroke-linecap:butt;stroke-linejoin:miter;stroke:rgb(100%,100%,100%);stroke-opacity:1;stroke-miterlimit:4;" d="M 58.136364 919.132727 L 58.136364 876.86 L 70 876.86 L 70.636364 913.041818 L 91.545455 894.86 L 112.454545 876.723636 L 126.181818 877.36 L 104.045455 896.36 C 91.909091 906.769091 82.090909 915.86 82.227273 916.541818 C 82.5 917.450909 101.909091 935.678182 129.136364 960.496364 C 129.727273 961.041818 126.954545 961.405455 122.636364 961.405455 L 115.090909 961.36 L 92.863636 940.86 L 70.590909 920.36 L 70.318182 940.905455 L 70 961.450909 L 58.136364 961.450909 Z M 58.136364 919.132727 " transform="matrix(0.0859375,0,0,0.0859375,0,-68.437188)"/>
<path style="fill-rule:nonzero;fill:rgb(100%,100%,100%);fill-opacity:1;stroke-width:0.708;stroke-linecap:butt;stroke-linejoin:miter;stroke:rgb(100%,100%,100%);stroke-opacity:1;stroke-miterlimit:4;" d="M 149.409091 887.86 C 145.772727 874.814545 142.772727 863.814545 142.772727 863.36 C 142.772727 862.950909 144.045455 862.769091 145.636364 862.950909 C 148.409091 863.269091 148.727273 864.041818 153.136364 880.632727 C 155.681818 890.178182 158.090909 899.950909 158.5 902.314545 C 159.227273 906.405455 159.454545 905.86 162.863636 892.36 C 164.863636 884.450909 167.545455 874.587273 168.772727 870.405455 C 170.909091 863.178182 171.227273 862.723636 174.227273 862.723636 C 177.772727 862.723636 177.636364 862.36 185.545455 891.405455 C 189.5 905.814545 190.5 908.314545 190.5 903.996364 C 190.5 902.632727 192.5 892.769091 195 882.132727 L 199.545455 862.723636 L 202.636364 862.723636 C 205.454545 862.723636 205.636364 862.996364 204.954545 865.723636 C 204.545455 867.36 201.681818 878.223636 198.590909 889.86 L 193 910.996364 L 189.772727 911.36 L 186.545455 911.678182 L 180.909091 891.814545 C 177.818182 880.905455 175.272727 871.36 175.272727 870.587273 C 175.272727 869.86 174.818182 869.269091 174.227273 869.269091 C 173.636364 869.269091 173.136364 869.905455 173.136364 870.678182 C 173.136364 871.996364 168.090909 891.132727 163.863636 905.86 C 162.363636 910.996364 161.909091 911.541818 159.136364 911.541818 L 156.045455 911.541818 Z M 149.409091 887.86 " transform="matrix(0.0859375,0,0,0.0859375,0,-68.437188)"/>
<path style="fill-rule:nonzero;fill:rgb(100%,100%,100%);fill-opacity:1;stroke-width:0.708;stroke-linecap:butt;stroke-linejoin:miter;stroke:rgb(100%,100%,100%);stroke-opacity:1;stroke-miterlimit:4;" d="M 164.454545 971.950909 C 164.454545 967.86 168.045455 962.405455 175.181818 955.541818 C 180.090909 950.814545 180.727273 947.86 177.590909 943.996364 C 173.363636 938.723636 163.363636 941.950909 163.363636 948.632727 C 163.363636 951.632727 163.227273 951.678182 157.409091 951.678182 C 152.136364 951.678182 151.454545 951.450909 151.454545 949.496364 C 151.454545 942.723636 158 935.314545 165.818182 933.178182 C 173.818182 931.041818 184.909091 934.496364 188.772727 940.314545 C 193.090909 946.905455 191.454545 955.996364 185.227273 959.905455 C 178.772727 963.996364 176.363636 967.132727 176.363636 971.405455 L 176.363636 975.541818 L 164.454545 975.541818 Z M 164.454545 971.950909 " transform="matrix(0.0859375,0,0,0.0859375,0,-68.437188)"/>
<path style="fill-rule:nonzero;fill:rgb(100%,100%,100%);fill-opacity:1;stroke-width:0.708;stroke-linecap:butt;stroke-linejoin:miter;stroke:rgb(100%,100%,100%);stroke-opacity:1;stroke-miterlimit:4;" d="M 168.727273 997.950909 C 164.909091 996.087273 164.590909 991.405455 168.090909 989.087273 C 171.090909 987.132727 174.318182 988.087273 176.227273 991.541818 C 178.5 995.587273 173.136364 1000.178182 168.727273 997.950909 Z M 168.727273 997.950909 " transform="matrix(0.0859375,0,0,0.0859375,0,-68.437188)"/>
</g>
</svg>
