<svg xmlns="http://www.w3.org/2000/svg" viewBox="0 0 22 22"><path d="m 16.656 1.605 c 19.367 16.621 -20.449 32.602 -16.359 6.895 c 0.898 -5.637 11.141 -11.375 16.359 -6.895" fill="#e5e5e5"/><g transform="matrix(0.08594 0 0 0.08594 -0.373 -0.466)"><path d="m 144.7 207.29 c -15.409 -3.864 -33.909 -7.091 -51.36 -9 c -9.182 -1 -16.364 -2.455 -19.864 -4 l -5.455 -2.455 l -0.045 -6.727 c -0.045 -3.727 -0.5 -16.909 -1.091 -29.364 c -0.727 -16.318 -0.636 -23.273 0.318 -24.955 c 1.5 -2.727 1.136 -22.682 -0.455 -24.364 c -1.818 -1.909 -1.136 -5.273 1.818 -9.227 c 1.591 -2.091 2.909 -4.864 2.909 -6.182 c 0 -8.136 0.955 -9.364 13.09 -16.09 l 11.682 -6.455 l 29.14 2.318 c 28.05 2.227 32.5 3.091 32.545 6.409 c 0.045 3.545 2.455 4.409 17.227 5.955 c 8.455 0.909 15.909 2.227 16.636 2.909 c 1.545 1.545 1.591 16.818 0.273 62 l -1 33.5 l -7.773 11.5 c -11.864 17.591 -11.455 17.227 -19.909 17.14 c -3.955 -0.045 -12.364 -1.364 -18.682 -2.909 m 24.05 -1.136 c 1.591 -1.591 1.818 -6 1.818 -30.818 c 0 -28.636 0.045 -29 2.818 -33.27 c 2.545 -3.955 2.818 -5.773 3.273 -21.545 l 0.5 -17.227 l 7.318 -7.455 c 4.545 -4.591 6.909 -7.818 6.227 -8.455 c -0.591 -0.591 -7.318 -1.682 -14.955 -2.409 c -17.636 -1.682 -20.14 -2.227 -20.14 -4.227 c 0 -2.409 -0.818 -2.091 -6.409 2.545 l -5.091 4.182 l -11.273 -0.773 c -10.909 -0.773 -11.364 -0.727 -15.273 2.227 c -3.364 2.545 -4.091 2.727 -4.409 1.182 c -0.909 -4.409 1.773 -5.227 17.5 -5.227 l 15.14 -0.045 l 5.182 -4.545 c 2.864 -2.455 4.955 -4.727 4.636 -5.05 c -0.318 -0.318 -13.545 -1.545 -29.409 -2.818 l -28.818 -2.227 l -9.773 5.136 c -5.409 2.864 -10.727 6 -11.818 6.955 c -2.773 2.455 -2.773 10.364 0 11.09 c 1.545 0.409 1.409 0.545 -0.545 0.682 c -1.455 0.045 -3.864 1.909 -5.682 4.273 c -3.045 4 -3.045 4.227 -1.182 7.409 c 2.273 3.909 2.773 23.09 0.636 25.27 c -0.909 0.909 -1.045 8.136 -0.455 25.14 l 0.864 23.909 l 7.636 2.364 c 4.227 1.318 10.773 3.136 14.545 4.045 c 4.182 1 5.091 1.455 2.318 1.091 c -2.545 -0.364 -8.909 -1.682 -14.182 -3.045 c -5.227 -1.318 -9.682 -2.182 -9.909 -1.955 c -0.182 0.227 -0.136 2.318 0.182 4.636 c 0.455 3.909 0.955 4.364 6.273 6.091 c 3.182 1.045 8.227 1.864 11.136 1.818 l 5.364 -0.091 l -5.773 -2.136 c -3.182 -1.182 -5.5 -2.182 -5.182 -2.227 c 0.318 -0.045 7.909 1.409 16.909 3.273 c 9 1.864 22.455 4.045 29.955 4.773 c 19.09 1.955 25.955 3.545 12.5 2.955 l -10.409 -0.5 l 8.091 2.318 c 4.455 1.273 11.955 2.682 16.727 3.227 c 4.727 0.5 9.227 1 10 1.091 c 0.727 0.091 2.136 -0.636 3.136 -1.636 m -16.591 -11.09 c -16.05 -1.409 -17.455 -2.045 -2.909 -1.318 c 7 0.318 13.727 1.045 15 1.545 c 2.682 1.091 2.409 1.091 -12.09 -0.227 m -34.27 -4.136 c 1.091 -0.318 14.318 1.364 15.09 1.682 c 0.773 0.318 -11.318 0.318 -13.682 -1.136 c -1.909 0 -2.545 -0.273 -1.409 -0.545 m -16.773 -2.091 c 0.818 -0.318 10.182 0.636 10.955 0.955 c 0.818 0.318 0.182 0.591 -1.409 0.591 c -1.591 0 -10.318 -1.227 -9.545 -1.545 m 36.636 -44.36 c -16.955 -1.182 -66.5 -9.455 -68.45 -11.455 c -0.318 -0.318 0.045 -1.182 0.818 -1.909 c 0.818 -0.864 1.364 -5.409 1.364 -12.05 v -10.682 l 4.727 1.682 c 5.318 1.818 23.455 4.409 39.955 5.682 l 10.682 0.818 l 5.909 -5 l 5.864 -5 l 16.773 1.5 c 9.227 0.818 17.318 1.682 18 1.955 c 0.818 0.318 1.091 5.182 0.818 14.09 c -0.318 11.05 -0.818 14.318 -2.682 17.409 l -2.273 3.773 l -12.909 -0.227 c -7.05 -0.091 -15.455 -0.364 -18.636 -0.591 m -1.682 -13.14 v -5.773 h -19.636 v 4.591 c 0 4.409 -0.773 5.773 3.409 6.455 c 2.364 0.409 6.05 -0.273 7 -0.091 c 0.955 0.182 3.409 0.409 5.455 0.5 c 3.727 0.136 3.773 0.136 3.773 -5.682 m -12.727 -20.682 c -2.318 -1.045 -2.182 -2.5 0.727 -6.5 c 2.273 -3.136 2.636 -3.273 7.773 -2.273 l 5.364 1.045 l -5.364 4.318 c -5.636 4.591 -5.727 4.636 -8.5 3.409 m 7.5 -6.318 c 0 -0.318 -1.727 -1.545 -3.318 0.182 c -2.773 2.591 -4.909 2.545 -1.636 3.636 c 2.273 0.955 4.955 -3.545 4.955 -3.818 m -16.14 3.727 c -0.864 -1.364 2.136 -7.273 3.682 -7.273 c 0.682 0 0.591 0.773 -0.773 2.682 c -1.955 2.773 -2.091 3.5 -0.727 3.5 c 0.955 0 1.864 -0.045 2.273 -1.273 c 0.636 -2.136 4.273 -5.364 4.182 -3.636 c -0.091 1.5 -4.318 6.05 -5.636 6.05 c -0.682 0 -1.227 0.545 -1.227 1.182 c 0 0.636 -1.727 1.091 -3.773 1 c -5.364 -0.364 0.682 -0.5 2 -2.227 m -21.864 0.182 c -3.091 -0.455 -16.682 -2.182 -16.955 -3.545 c -7.136 -3.545 0.909 -7.182 3.682 -7.727 c -1.409 -0.318 13.455 1.091 17.864 1.409 c 9.136 0.636 17.09 1.636 17.682 2.182 c 1 1.045 -3.818 6.409 -5.727 6.409 c -1.182 0 -2.136 0.5 -2.136 1.136 c 0 1.273 -6.818 1.318 -14.409 0.136 m 15.273 -3.409 c 7 -3.364 -4.091 -4.5 -8.591 -4.682 c -3.773 -0.136 -5.636 1.273 -4.409 3.318 c 0.409 0.636 2.136 1.136 3.818 1.091 c 1.727 -0.045 10 0.591 9.182 0.273 m 33.14 -0.182 c -1.818 -0.773 -1.227 -1.045 2.5 -1.091 c 2.682 -0.045 5.182 0.455 5.545 1.091 c 0.864 1.409 -4.818 1.409 -8.05 0 m 27.364 -0.818 c 1.091 -0.273 2.909 -0.273 4 0 c 1.136 0.318 0.227 0.545 -2 0.545 c -2.227 0 -3.136 -0.227 -2 -0.545 m -10.364 -1.136 c 1.136 -0.318 2.682 -0.273 3.455 0.045 c 0.773 0.318 -0.136 0.545 -2.045 0.5 c -1.909 0 -2.545 -0.273 -1.409 -0.545 m -11.545 -1.182 c 1.091 -0.273 2.909 -0.273 4.045 0 c 1.091 0.318 0.182 0.545 -2.045 0.545 c -2.227 0 -3.091 -0.227 -2 -0.545 m -10.955 -1.182 c 1.455 -0.273 3.773 -0.273 5.182 0 c 1.455 0.273 0.273 0.5 -2.591 0.5 c -2.864 0 -4 -0.227 -2.591 -0.5 m -10.364 -1.136 c 1.455 -0.318 3.5 -0.273 4.636 0 c 1.091 0.273 -0.091 0.5 -2.636 0.5 c -2.5 0 -3.409 -0.227 -2 -0.5 m -11.545 -1.182 c 1.455 -0.273 3.773 -0.273 5.227 0 c 1.409 0.273 0.227 0.5 -2.636 0.5 c -2.818 0 -4 -0.227 -2.591 -0.5 m -10.318 -1.136 c 1.409 -0.318 3.5 -0.273 4.591 0 c 1.091 0.273 -0.091 0.5 -2.591 0.5 c -2.545 0 -3.455 -0.227 -2 -0.5 m -11.545 -1.182 c 1.409 -0.273 3.727 -0.273 5.182 0 c 1.409 0.273 0.227 0.5 -2.591 0.5 c -2.864 0 -4.045 -0.227 -2.591 -0.5 m -11.545 -1.182 c 1.455 -0.273 3.773 -0.273 5.182 0 c 1.455 0.318 0.273 0.545 -2.591 0.545 c -2.864 0 -4 -0.227 -2.591 -0.545 m 24.5 -11.182 c 0 -0.227 3.091 -2.591 6.909 -5.318 c 8.227 -5.818 9.409 -4.409 1.273 1.545 c -4.864 3.636 -8.182 5.136 -8.182 3.773 m 79.14 101.14 l 3.5 -4.955 l 1.318 -33.636 c 0.773 -18.545 1.364 -38.09 1.364 -43.5 l -0.045 -9.818 l -5.182 5.136 l -5.182 5.091 v 43.32 c 0 23.818 0.182 43.32 0.409 43.32 c 0.182 0 1.909 -2.227 3.818 -4.955" fill="#696969" stroke="#696969"/><path d="m 158.75 132.7 c -15.682 -1.545 -14.682 -1.091 -14.682 -6.545 c 0 -5.409 -0.773 -6.182 -4.864 -4.909 c -1.591 0.5 -12.227 0.545 -20.455 1.318 c -8.227 0.727 -14 2.682 -16.05 3.136 c -5.05 1.227 -10.727 -0.045 -12.727 -0.182 c -10.636 -0.591 -17.14 -4.091 -16.591 -6.636 l -0.818 -8.05 l 19.636 4.591 c 1.909 0.455 10.273 0.909 18.591 1.364 l 15.05 0.864 l 5.545 -3.955 c 3.091 -2.227 6.318 -4 7.227 -4 c 3.864 0.045 30.727 2.727 31.636 3.182 c 1.091 0.545 1.318 15.682 0.318 18.818 c -0.364 1.091 -1.455 1.955 -2.455 1.864 c -0.955 -0.045 -5.182 -0.455 -9.364 -0.864" stroke="#000" stroke-width="1.465"/></g><path d="m 88.74 82.78 l 6.878 0.005 c 0.778 -0.011 1.459 0.632 1.426 1.416 l 0.026 1.235 c -0.034 0.784 -0.683 1.42 -1.461 1.432 l -6.833 -0.011 c -0.823 0.017 -1.459 -0.632 -1.477 -1.455 l 0.025 -1.195 c -0.011 -0.778 0.632 -1.459 1.416 -1.426" transform="matrix(0.08519 0.01129 -0.01129 0.08519 0 0)" fill="#e5e5e5" stroke="#e5e5e5" stroke-width="1.491"/></svg>