<svg xmlns="http://www.w3.org/2000/svg" viewBox="0 0 22 22"><path d="m 19.2 3.391 c 12.582 19.285 -21.785 26.75 -19.05 6.91 c 1.117 -8.094 14.234 -14.289 19.05 -6.91" fill="#d85b25"/><path d="m 5.406 12 c 0.152 -1.758 -0.754 -3.645 0.922 -4.344 c 0.293 -0.125 0.844 -0.262 1.227 -0.313 c 0.469 -0.059 0.906 -0.184 1.355 -0.391 c 1.785 -0.813 3.555 -0.867 4.832 -0.145 c 0.898 0.508 1.461 1.32 1.461 2.117 c 0 0.676 -0.383 1.277 -0.734 1.141 c -0.066 -0.023 -0.254 -0.313 -0.418 -0.637 c -0.426 -0.852 -0.969 -1.27 -1.762 -1.363 c -0.48 -0.059 -0.621 0.059 -0.309 0.262 c 0.469 0.309 0.438 0.688 -0.09 1.172 c -0.496 0.453 -0.711 1.426 -0.434 1.957 c 0.352 0.672 1.168 1.09 2.113 1.086 c 0.859 -0.004 1.555 -0.328 2.305 -1.078 l 0.531 -0.535 v 2.551 c -0.727 3.203 -2.41 2.551 -5.5 2.551 c -3.57 0.258 -5.5 0.254 -5.5 -4.03" fill="#f4c80a"/><path d="m 8.336 15.797 c -0.406 -0.215 -0.531 -0.648 -0.484 -1.684 c 0.063 -1.383 0.203 -2.934 0.316 -3.531 c 0.246 -1.305 1.148 -2.473 2.387 -3.098 c 0.594 -0.301 0.703 -0.383 0.582 -0.457 c -0.391 -0.234 -1.555 0.191 -2.672 0.984 c -0.367 0.258 -0.887 0.52 -1.332 0.664 c -0.402 0.133 -0.875 0.32 -1.047 0.414 c -0.5 0.273 -0.586 0.238 -0.586 -0.242 c 0 -0.273 0.039 -0.414 0.109 -0.414 c 0.059 0 0.379 -0.125 0.711 -0.273 c 0.332 -0.148 0.875 -0.316 1.203 -0.375 c 0.332 -0.055 0.922 -0.258 1.328 -0.457 c 1.875 -0.918 3.25 -1.043 4.555 -0.414 c 0.895 0.434 1.582 1.449 1.43 2.109 c -0.031 0.133 -0.102 0.242 -0.156 0.242 c -0.051 0 -0.297 -0.203 -0.543 -0.453 c -1.387 -1.414 -3.297 -1.41 -4.613 0.008 c -0.391 0.418 -0.781 1.277 -0.738 1.629 c 0.023 0.23 0.031 0.227 0.25 -0.129 c 0.309 -0.508 0.754 -0.953 1.094 -1.109 c 0.371 -0.168 0.82 -0.168 0.953 0 c 0.063 0.082 0.105 0.57 0.117 1.332 c 0.016 1.176 0.023 1.207 0.277 1.602 c 0.145 0.219 0.473 0.535 0.727 0.699 c 0.348 0.227 0.418 0.301 0.273 0.301 c -0.344 0 -0.902 -0.375 -1.496 -1 l -0.582 -0.613 l -0.184 0.199 c -0.27 0.293 -0.242 1.129 0.063 1.895 c 0.129 0.32 0.238 0.742 0.242 0.938 c 0.008 0.352 0.008 0.355 -0.766 0.797 c -0.906 0.52 -1.129 0.59 -1.418 0.438" fill="#221310"/></svg>