<svg xmlns="http://www.w3.org/2000/svg" viewBox="0 0 22 22"><path d="m 0.258 10.992 c -1.648 14.473 21.914 14.27 21.637 -0.258 c 0.777 -13.512 -22.922 -14.73 -21.637 0.258" fill="#cdcdcd"/><path d="m 46.13 56.791 h 141.2 c 10.484 0 18.961 10.77 18.961 24.08 v 73.3 c 0 13.31 -8.477 24.08 -18.961 24.08 h -141.2 c -10.484 0 -18.961 -10.77 -18.961 -24.08 v -73.3 c 0 -13.31 8.477 -24.08 18.961 -24.08" transform="matrix(0.07787 0 0 0.07689 1.818 2.102)" fill="#3c3c3c" stroke="#3c3c3c" stroke-width="2.599"/><g fill="#a9a9e6" stroke="#a9a9e6" stroke-width="2.137" transform="matrix(0.07787 0 0 0.07689 0.857 1.027)"><path d="m 85.4 136.61 c 0 -1.27 0.602 -6.05 1.354 -10.668 c 1.154 -7.06 1.254 -10.312 0.552 -20.574 c -0.903 -13 -0.502 -15.647 2.157 -14.224 c 2.157 1.168 2.408 2.134 3.511 14.326 c 0.853 9.55 0.803 12.09 -0.401 19.253 c -1.655 10.262 -3.16 14.12 -5.468 14.12 c -1.304 0 -1.705 -0.508 -1.705 -2.235"/><path d="m 125.68 133.46 c -1.304 -1.575 -0.502 -39.675 0.853 -40.996 c 0.602 -0.559 1.304 -0.559 2.257 0.051 c 1.254 0.762 1.455 2.591 1.705 13.11 c 0.351 17.577 -0.451 27.28 -2.307 28.3 c -1.104 0.559 -1.806 0.457 -2.508 -0.457"/><path d="m 163.75 142.3 c -3.963 -2.438 -5.668 -24.587 -3.16 -39.98 c 1.053 -6.502 2.01 -8.636 3.913 -8.687 c 1.505 0 2.01 3.353 1.405 9.04 c -1.053 10.16 -0.803 27.08 0.502 32.461 c 0.652 2.743 1.204 5.232 1.204 5.537 c 0.05 1.016 -2.909 2.235 -3.862 1.626"/></g><g fill="#fff" stroke="#fff"><path d="m 44.825 145.03 h 141.6 c 0.652 0 1.104 1.168 1.104 2.591 v 0.406 c 0 1.422 -0.451 2.54 -1.104 2.54 h -141.6 c -0.602 0 -1.104 -1.118 -1.104 -2.54 v -0.406 c 0 -1.422 0.502 -2.591 1.104 -2.591" transform="matrix(0.07787 0 0 0.07689 1.818 2.102)" stroke-width="2.664"/><path d="m 148.03 -120.47 h 22.606 c 0.61 0 1.118 1.154 1.118 2.558 v 1.856 c 0 1.405 -0.508 2.558 -1.118 2.558 h -22.606 c -0.61 0 -1.118 -1.154 -1.118 -2.558 v -1.856 c 0 -1.405 0.508 -2.558 1.118 -2.558" transform="matrix(0 0.07689 -0.07787 0 1.818 2.102)" stroke-width="1.241"/></g></svg>