<svg xmlns="http://www.w3.org/2000/svg" viewBox="0 0 22 22"><path d="m 7.01 21.598 c 30.992 3.82 5.305 -40.11 -6.078 -12 c -1.746 4.938 -0.23 10.492 6.078 12" fill="#707f8f"/><g transform="scale(0.08594)"><path d="m 160.59 210.23 c -8.636 -33.773 -5.227 -49.45 -3.409 -89.09 c 16.05 -7.364 30.864 -5.818 48.18 -5.818 c 0.727 24.318 1.864 62.59 -0.409 83.73 c -12.818 3.455 -28.364 14.818 -44.36 11.182" fill="#f4f4f4" stroke="#f4f4f4" stroke-width="3.178"/><path d="m 154.5 208.27 c -11.5 -11.727 -18 -17.318 -20.18 -17.364 c -0.591 0 -0.591 -0.045 0.227 -0.682 c 1.773 -1.364 1.182 -3.091 -2.636 -7.636 c -3.182 -3.773 -3.682 -4.864 -4.045 -8.5 c -1.773 -17.5 -2.864 -62.818 -1.591 -65.5 c 0.682 -1.409 4.818 -3 10.273 -3.864 c 6 -1.364 22 0 25.364 -3.318 c 0.864 -1.5 1.364 -1.227 2.591 -0.591 c 1.409 0.727 6.05 2 21.545 5.955 c 13.14 3.364 20.14 5.273 21 5.773 c 7.727 4.318 4.273 16.273 4.227 25.05 c 0.045 18 -2.136 37.36 -2.545 53.45 c 0 3.318 0.364 6.182 -1.455 8.955 c -2 3.045 -4.045 4.636 -7.727 6 c -11.227 2.636 -23.455 8.409 -33.5 8.273 h -5.727 m 10.773 -4.364 c 10.227 -2.364 20.773 -5.318 30.18 -8.364 c 0.727 -0.409 3.455 -4.591 3.773 -5.864 c 0.545 -2.182 0.909 -9.864 1 -22.409 c 0.045 -14.818 1.864 -30.27 1.682 -43.818 c -0.091 -5.182 -0.273 -9 -0.455 -9.636 c -0.364 -1.273 -2.227 -4.182 -3.273 -4.818 c -2.182 0.364 -17.455 -3.545 -25.455 -6.455 c -4.273 -1.636 -8.591 -1.545 -12.909 -3.227 c -1.591 -0.682 -2.091 -0.727 -5.05 -0.682 c -6.455 0 -12.455 1.364 -18.5 2.5 c -4.955 0.955 -9.636 2.545 -9.636 3.318 c 0 0.273 0.364 0.364 3 0.818 c 2.818 0.455 10.773 2.591 14 3.727 c 4.591 1.864 7.455 2.955 12.318 3.727 c 0.455 0.091 -3.182 0.636 -3.182 32 c 0.636 21.05 -0.636 29.18 -0.273 44 c 0.136 0.955 0.364 4.136 0.5 7 c 0.273 6.273 0.364 6.591 3 7.909 c 2.545 1.227 4.591 1.273 9.273 0.273" fill="#b0c3de" stroke="#b0c3de" stroke-width="1.088"/></g><g stroke="#224e6e" stroke-width="3.306" transform="scale(0.08594)"><path d="m 94.45 196.36 c -3.409 -3 -13.591 -12.227 -22.636 -20.455 c -8.227 -7.136 -22.773 -16.864 -24.409 -22.23 c -0.045 -0.818 1.045 -2.682 2.409 -4.136 c 1.364 -1.455 16.545 -23.682 33.682 -49.45 c 17.14 -25.727 31.23 -46.773 31.27 -46.682 c 0.5 0.955 -12.727 148 -13.318 148.18 c -0.455 0.136 -3.591 -2.227 -7 -5.227" fill="#285476"/><path d="m 103.55 202.09 c 0 -0.818 0.364 -4.591 0.818 -8.455 c 1.864 -16.864 10.09 -108.41 11.682 -130.36 c 0.545 -7.864 1.273 -14.273 1.545 -14.273 c 0.318 0 2.227 2.136 4.273 4.727 c 2 2.636 11.545 14 21.18 25.27 c 9.636 11.227 17.5 20.773 17.5 21.18 c 0 0.773 -4.409 1.273 -18.591 2.182 c -9.636 0.636 -16.5 2.818 -17.5 5.545 c -1.409 3.818 0.091 56.5 1.909 69.05 c 0.273 1.818 1.727 4.227 4.182 6.818 c 2.136 2.273 3.455 4.364 3.136 4.909 c -0.591 0.955 -28.18 14.864 -29.5 14.864 c -0.364 0 -0.636 -0.682 -0.636 -1.455" fill="#5890ba"/></g><g transform="matrix(0.05516 0 0 0.05571 4.365 3.678)"><path d="m 207.52 237.31 c -3.399 -2.594 -3.328 -3.927 0.142 -7.292 c 3.824 -3.716 9.701 -6.451 14.163 -6.661 c 2.833 -0.07 4.178 0.491 6.09 2.594 c 3.116 3.506 2.974 5.119 -0.637 8.414 c -5.453 4.978 -15.15 6.451 -19.757 2.945" fill="#00bfff" stroke="#00bfff" stroke-width="4.01"/><path d="m 138.4 227.49 c -3.753 -3.296 -0.708 -8.484 -3.045 -12.13 c -1.983 -3.02 -8 -6.521 -8.568 -7.923 c -1.7 -3.646 -3.328 -29.17 -4.107 -64.79 c -0.708 -31.13 -0.779 -33.727 1.345 -33.727 c 11.613 7.573 16.216 5.96 28.18 10.588 c 7.152 2.735 8.214 4.347 9.06 7.082 c 0.708 1.893 0.567 20.405 0.921 40.95 c 0.496 33.24 1.487 44.32 -0.212 44.32 c -0.425 0 -9.489 -8.06 -17.845 -15.847 c -14.729 -13.884 -16.287 -9.536 -17.07 -4.908 c -0.496 3.155 -0.85 2.033 15.791 18.231 c 20.04 19.563 19.05 17.95 19.05 30.15 c -0.85 5.399 1.629 5.96 0.567 10.868 c -9.701 -8.274 -13.596 -14.09 -24.08 -22.859" fill="#8e959c" stroke="#8e959c" stroke-width="4.568"/></g><g transform="scale(0.08594)"><path d="m 168.18 167.14 c -0.591 -0.773 -1.227 -7.318 -1.455 -14.636 c -2.773 -26.409 4.955 -13.545 5.455 -4 c 2.455 -0.318 21.727 -2.318 22.818 -2.727 c 2.636 -0.909 2.182 -3.727 2.182 -5.591 c 0 -1.227 -0.182 -1.273 -3 -1.273 c -4.318 0 -19.09 2.045 -23.636 3.273 c -1.318 0.364 -0.545 -2.636 -3.591 -0.864 c -1 0.545 -0.864 1 -0.773 -1.636 c 0.091 -2.818 0.364 -3.182 2.591 -3.955 c 2.227 -0.818 8.091 -2 13.409 -2.727 c 2.636 -0.364 6.409 -0.909 8.364 -1.227 c 7.773 -1.182 9.273 -1.136 9.955 0.273 c 1.545 5.545 1.182 26.27 -2.136 29.909 c -8.364 1.273 -13.409 2.955 -22.636 4.727 c -4.682 0.818 -7.136 1 -7.545 0.455" fill="#8e959c" stroke="#8e959c" stroke-width="1.017"/><path d="m 164.18 117.68 c -0.091 -0.136 -2.727 0.955 -3.636 0.864 c -9.909 -0.818 -15.818 -6.227 -25.773 -7.864 c -0.682 -0.091 -1.182 -0.273 -1.091 -0.409 c 0.273 -0.409 4.591 -1.591 9.864 -2.682 c 6.864 -1.455 10.318 -1.909 15 -2.091 c 3.773 -0.182 4.091 -0.136 6.182 0.545 c 10.591 2.227 19.773 5.864 30.818 7.5 c 2.545 0.364 11.591 2.136 3.545 1.409 c -1.818 0.909 -8.136 0.818 -10.5 1 c -8.864 1.136 -15.909 0.955 -23.818 1.864 c -0.273 0.045 -0.545 0 -0.591 -0.136" fill="#dcdcdc" stroke="#dcdcdc" stroke-width="1.088"/></g></svg>