
<svg xmlns="http://www.w3.org/2000/svg" xmlns:xlink="http://www.w3.org/1999/xlink" width="22px" height="22px" viewBox="0 0 22 22" version="1.1">
<g id="surface1">
<path style=" stroke:none;fill-rule:nonzero;fill:rgb(29.019608%,29.019608%,29.019608%);fill-opacity:1;" d="M 18.148438 3.191406 C 35.492188 26.082031 -12.238281 29.335938 3.078125 5.96875 C 6.570312 0.640625 13.554688 -2.871094 18.148438 3.191406 Z M 18.148438 3.191406 "/>
<path style=" stroke:none;fill-rule:nonzero;fill:rgb(70.588235%,70.588235%,70.588235%);fill-opacity:1;" d="M 7.964844 17.191406 C 7.949219 17.148438 7.933594 15.28125 7.933594 13.039062 C 7.933594 10.777344 7.914062 8.964844 7.886719 8.964844 C 7.789062 8.964844 6.683594 10.105469 6.296875 10.609375 C 6.070312 10.898438 5.863281 11.140625 5.832031 11.140625 C 5.765625 11.140625 4.917969 10.652344 4.878906 10.589844 C 4.789062 10.453125 5.746094 9.246094 6.546875 8.496094 C 6.894531 8.167969 7.347656 7.789062 7.554688 7.65625 L 7.929688 7.40625 L 7.929688 6.089844 C 7.933594 5.363281 7.949219 4.734375 7.964844 4.691406 C 7.992188 4.628906 8.097656 4.613281 8.589844 4.613281 L 9.1875 4.613281 L 9.1875 5.644531 C 9.1875 6.210938 9.199219 6.6875 9.214844 6.699219 C 9.230469 6.714844 9.433594 6.664062 9.671875 6.585938 C 10.425781 6.339844 10.816406 6.28125 11.691406 6.277344 C 12.832031 6.269531 13.53125 6.445312 14.324219 6.925781 C 16.167969 8.050781 16.78125 10.003906 15.863281 11.828125 C 15.589844 12.367188 15.265625 12.796875 14.753906 13.296875 L 14.34375 13.699219 L 14.867188 14.304688 C 15.25 14.738281 15.382812 14.925781 15.351562 14.976562 C 15.285156 15.089844 14.558594 15.636719 14.476562 15.636719 C 14.414062 15.636719 12.789062 13.835938 12.660156 13.621094 C 12.621094 13.558594 12.667969 13.496094 12.867188 13.339844 C 13.34375 12.96875 14.046875 12.304688 14.300781 11.976562 C 14.625 11.5625 14.90625 11 14.984375 10.621094 C 15.144531 9.804688 14.703125 8.695312 14.011719 8.171875 C 13.382812 7.699219 12.175781 7.371094 11.355469 7.457031 C 10.589844 7.535156 9.53125 7.84375 9.277344 8.0625 C 9.191406 8.136719 9.1875 8.378906 9.199219 12.125 L 9.210938 16.109375 L 12.734375 16.132812 C 14.671875 16.148438 16.261719 16.164062 16.269531 16.171875 C 16.277344 16.175781 16.28125 16.425781 16.28125 16.726562 L 16.28125 17.269531 L 12.140625 17.269531 C 8.410156 17.269531 7.996094 17.261719 7.964844 17.191406 Z M 7.964844 17.191406 "/>
</g>
</svg>
