<svg xmlns="http://www.w3.org/2000/svg" viewBox="0 0 22 22"><path d="m 11.926 21.848 c -13.07 1.25 -16.59 -19.824 -3.168 -21.461 c 12.34 -2.027 18.695 17.07 6.434 20.895 c -1.039 0.418 -2.172 0.41 -3.266 0.566" fill="#f4f4f4"/><path d="m 7.309 17.355 c -0.516 -0.203 -0.77 -0.5 -1.059 -1.234 c -0.418 -1.059 -0.539 -1.738 -0.535 -2.996 c 0 -0.871 0.027 -1.18 0.133 -1.625 c 0.195 -0.82 0.477 -1.535 0.871 -2.215 l 0.355 -0.605 l -0.023 -1 c -0.031 -1.625 0.195 -2.184 1.133 -2.785 c 0.656 -0.422 2.098 -0.762 2.996 -0.711 c 1.27 0.074 2.07 1.012 2.313 2.723 l 0.074 0.531 l 0.336 0.211 c 0.719 0.457 0.926 0.707 1.316 1.621 c 0.133 0.309 0.414 0.793 0.621 1.074 c 0.762 1.039 1.109 2.055 1.109 3.25 c 0.004 1.109 -0.227 2.027 -0.754 3.043 l -0.25 0.473 l -0.402 0.125 c -0.539 0.164 -1.293 0.242 -2.328 0.246 h -0.859 l 0.043 -0.301 c 0.039 -0.27 0.016 -0.34 -0.223 -0.793 c -0.535 -1.016 -0.313 -1.488 1.32 -2.809 c 0.434 -0.352 0.926 -0.801 1.094 -1 c 0.32 -0.379 0.652 -0.996 0.723 -1.336 c 0.066 -0.332 -0.066 -0.223 -0.277 0.23 c -0.367 0.789 -0.688 1.129 -2.082 2.223 c -0.914 0.715 -1.352 1.348 -1.355 1.98 c -0.004 0.305 0.035 0.438 0.223 0.797 c 0.324 0.625 0.336 0.676 0.152 0.855 c -0.148 0.148 -0.191 0.156 -0.855 0.156 c -0.387 0 -0.805 -0.031 -0.93 -0.066 c -0.91 -0.25 -1.34 -1.766 -1.016 -3.598 c 0.129 -0.73 0.109 -0.965 -0.047 -0.613 c -0.199 0.445 -0.41 1.711 -0.41 2.465 c 0 0.152 -0.023 0.277 -0.055 0.277 c -0.105 0 -0.555 -0.363 -0.766 -0.621 c -0.457 -0.563 -0.598 -0.98 -0.695 -2.074 c -0.066 -0.73 -0.082 -0.809 -0.148 -0.656 c -0.098 0.238 -0.086 1.16 0.023 1.621 c 0.199 0.844 0.625 1.457 1.418 2.035 c 0.602 0.445 0.656 0.508 0.656 0.805 c 0 0.289 -0.227 0.387 -0.926 0.406 c -0.48 0.016 -0.652 -0.004 -0.914 -0.105 m 2.164 -5.383 c 0.629 -0.277 1.234 -1.188 1.438 -2.172 c 0.109 -0.543 0.125 -1.727 0.031 -2.316 c -0.117 -0.707 -0.461 -1.293 -0.891 -1.516 c -0.211 -0.109 -0.613 -0.074 -0.914 0.078 c -0.191 0.098 -0.352 0.098 -0.934 -0.008 c -0.211 -0.039 -0.25 -0.023 -0.48 0.203 c -0.137 0.133 -0.246 0.305 -0.246 0.375 c 0 0.07 0.008 0.129 0.016 0.129 c 0.008 0 0.16 -0.055 0.34 -0.121 c 0.262 -0.098 0.477 -0.125 1.07 -0.125 c 0.918 0 1.035 0.051 1.273 0.531 c 0.32 0.648 0.199 1.418 -0.285 1.824 c -0.188 0.152 -0.23 0.16 -0.898 0.16 c -0.848 0 -1.227 0.074 -1.594 0.305 c -0.375 0.234 -0.559 0.609 -0.555 1.133 c 0.004 0.746 0.512 1.375 1.313 1.637 c 0.266 0.086 1 0.023 1.316 -0.117 m -2.215 -1.656 c -0.105 -0.066 -0.07 -0.379 0.059 -0.379 c 0.133 0 0.227 0.031 0.219 0.168 c -0.02 0.23 -0.223 0.242 -0.277 0.211 m 0.746 -0.016 c -0.023 -0.027 -0.043 -0.086 -0.031 -0.258 c 0.004 -0.086 0.094 -0.184 0.195 -0.168 c 0.09 0.012 0.223 0.063 0.188 0.297 c -0.02 0.121 -0.27 0.207 -0.352 0.129 m 0.52 -1.496 c 0.059 -0.07 0.066 -0.055 -0.109 -0.418 c -0.121 -0.25 -0.273 -0.324 -0.258 -0.656 c 0.02 -0.402 0.098 -0.348 0.219 -0.547 c 0.117 -0.203 0.215 -0.301 0.215 -0.348 c 0 -0.121 -0.504 -0.117 -0.746 0.004 c -0.457 0.234 -0.574 1.105 -0.223 1.613 c 0.262 0.375 0.734 0.559 0.902 0.352 m 1.305 -0.086 l 0.16 -0.266 l -0.129 -0.379 c -0.113 -0.324 -0.059 -0.465 0.105 -0.68 c 0.07 -0.258 0.066 -0.285 -0.074 -0.434 c -0.566 -0.594 -1.453 0.031 -1.344 0.949 c 0.102 0.848 0.742 1.254 1.281 0.809" fill="#2e2e2e"/></svg>