<svg xmlns="http://www.w3.org/2000/svg" viewBox="0 0 22 22"><path d="m 5.227 2.332 c 8.094 -7.227 20.551 4.172 15.516 13.715 c -5.094 9.645 -21.945 7.07 -20.512 -4.773 c 0.426 -3.523 2.352 -6.586 4.992 -8.941" fill="#696969"/><g fill="#fff"><path d="m 10.23 6.02 c -0.281 -0.852 0.676 -1.305 1.59 -0.758 c 0.539 0.34 0.66 0.199 0.164 0.602 c -0.199 0.16 -0.648 0.336 -1 0.391 c -0.512 0.082 -0.664 0.031 -0.754 -0.234"/><path d="m 10.859 4.695 c -0.016 -0.082 -0.148 -0.242 -0.289 -0.355 c -0.223 -0.176 -0.281 -0.18 -0.406 -0.02 c -0.215 0.273 -0.125 0.484 0.219 0.531 c 0.41 0.059 0.512 0.023 0.477 -0.156"/><path d="m 12.13 4.766 c 0.355 0 0.461 -0.156 0.293 -0.438 c -0.109 -0.188 -0.379 -0.25 -0.57 -0.129 c -0.16 0.102 -0.387 0.441 -0.387 0.582 c 0.164 0.266 0.41 -0.016 0.664 -0.016"/><path d="m 10.383 3.59 c 0.234 -0.297 0.766 -0.332 1.074 -0.273 c 0.207 0.043 0.445 0.156 0.531 0.262 c 0.137 0.168 0.184 0.285 -0.023 0.371 c -0.129 0.051 -0.496 0.379 -0.816 0.383 c -0.719 -0.418 -1.172 -0.219 -0.766 -0.742"/><path d="m 8.539 12.816 c -0.445 -0.18 -0.918 -0.172 -1.355 -0.383 c -0.172 -0.09 -0.223 -0.242 -0.223 -0.68 c -0.004 -0.641 0.039 -0.742 0.328 -0.813 c 0.203 -0.051 0.391 -0.168 0.516 -0.324 c 0.148 -0.188 0.328 -0.305 0.461 -0.305 c 0.145 0 0.293 0.145 0.512 0.504 c 0.105 0.176 0.379 0.551 0.605 0.836 c 0.168 0.238 0.434 0.391 0.383 0.688 c -0.035 0.195 -0.188 0.402 -0.371 0.504 c -0.18 0.098 -0.48 0.09 -0.855 -0.027"/><path d="m 13.828 12.953 c 0.445 -0.18 0.922 -0.176 1.355 -0.387 c 0.172 -0.09 0.223 -0.242 0.223 -0.676 c 0.004 -0.641 -0.039 -0.746 -0.328 -0.816 c -0.203 -0.047 -0.391 -0.164 -0.516 -0.32 c -0.148 -0.188 -0.328 -0.305 -0.461 -0.305 c -0.145 0 -0.293 0.145 -0.508 0.504 c -0.109 0.172 -0.383 0.551 -0.609 0.836 c -0.168 0.238 -0.434 0.387 -0.383 0.688 c 0.035 0.195 0.188 0.402 0.371 0.504 c 0.18 0.098 0.48 0.086 0.855 -0.027"/><path d="m 10.648 12.09 c -0.25 -0.074 -0.465 -0.324 -0.547 -0.633 c -0.445 -1.246 -1.105 -0.746 -0.797 -2.227 c -0.281 -0.039 -0.609 -0.012 -0.828 -0.141 c -0.23 -0.137 -0.344 -0.32 -0.262 -0.434 c 0.359 -0.34 0.746 -0.617 1.121 -0.965 c 0.344 -0.211 0.711 -0.703 0.934 -0.762 c 0.473 -0.012 1.203 -0.215 1.559 -0.398 c 0.691 -0.441 0.547 0.285 0.922 0.703 c 0.559 0.559 1.234 0.758 1.707 1.336 c 0.066 0.129 0.043 0.383 -0.055 0.555 c -0.91 0.445 -0.676 0.418 -1.129 1 c -0.184 0.238 -0.328 0.531 -0.41 0.852 c -0.176 0.676 -0.266 0.816 -0.676 1.055 c -0.531 0.156 -0.906 0.242 -1.539 0.055"/><path d="m 8.05 13.527 h 6.586 c 0.402 0 0.727 0.348 0.727 0.777 v 3.137 c 0 0.43 -0.324 0.777 -0.727 0.777 h -6.586 c -0.402 0 -0.73 -0.348 -0.73 -0.777 v -3.137 c 0 -0.43 0.328 -0.777 0.73 -0.777"/></g><path d="m 8.438 14.05 h 5.723 c 0.402 0 0.73 0.32 0.73 0.715 c 0 0.398 -0.328 0.719 -0.73 0.719 h -5.723 c -0.402 0 -0.73 -0.32 -0.73 -0.719 c 0 -0.395 0.328 -0.715 0.73 -0.715" fill="#dcdcdc"/><path d="m 10.02 15.11 h 2.422 c 0.191 0 0.344 0.156 0.344 0.348 v 0.168 c 0 0.191 -0.152 0.348 -0.344 0.348 h -2.422 c -0.191 0 -0.344 -0.156 -0.344 -0.348 v -0.168 c 0 -0.191 0.152 -0.348 0.344 -0.348" fill="#7f7f7f"/><path d="m 12.781 9.48 c 0 1.02 -0.621 1.844 -1.387 1.844 c -0.77 0 -1.391 -0.824 -1.391 -1.844 c 0 -1.02 0.621 -1.844 1.391 -1.844 c 0.766 0 1.387 0.824 1.387 1.844" fill="#d2d2d2"/></svg>