<svg xmlns="http://www.w3.org/2000/svg" viewBox="0 0 22 22"><path d="m 4.598 19.18 c 16.395 12.461 26.496 -21.523 5.297 -18.859 c -8.758 1.164 -14.07 13.03 -5.297 18.859" fill="#385f45"/><g fill="#fff"><path d="m 10.859 14.41 c -1.137 -0.348 -1.781 -1.445 -1.695 -2.895 c 0.035 -0.641 0.234 -1.336 0.484 -1.727 c 0.477 -0.734 1.254 -1.082 2.09 -0.93 c 0.949 0.168 1.469 0.863 1.563 2.086 l 0.031 0.434 h -3.473 l 0.035 0.344 c 0.059 0.582 0.145 0.809 0.402 1.07 c 0.328 0.34 0.621 0.418 1.527 0.414 c 0.699 -0.004 0.82 -0.027 1.281 -0.234 c 0.09 -0.043 0.098 0.004 0.098 0.551 v 0.594 l -0.438 0.168 c -0.539 0.207 -1.445 0.266 -1.906 0.125 m 1.836 -3.863 c 0 -0.332 -0.406 -0.973 -0.727 -1.145 c -0.336 -0.184 -0.621 -0.211 -0.988 -0.098 c -0.527 0.164 -0.988 0.715 -0.988 1.188 l -0.004 0.168 h 1.355 c 1.285 0 1.352 -0.008 1.352 -0.113"/><path d="m 5.203 13.496 c 0.051 -2.313 0.145 -4.129 0.27 -6.277 c 0.336 0 0.668 0 1 0 l -0.059 0.723 c -0.051 0.691 -0.211 4.492 -0.215 5.156 v 0.32 c 0.445 0 2.363 0 2.809 0 c -0.195 0.438 -0.73 0.668 -1.199 1.141 c -0.777 0 -1.832 -0.035 -2.609 -0.035 c 0 -0.344 0 -0.684 0 -1.027"/><path d="m 14.08 13.898 v -0.539 l 1.074 -0.992 c 0.938 -0.867 1.094 -1.031 1.25 -1.34 c 0.379 -0.746 0.238 -1.43 -0.348 -1.707 c -0.184 -0.09 -0.289 -0.105 -0.633 -0.086 c -0.406 0.023 -0.477 0.047 -1.305 0.434 c -0.02 0.012 -0.039 -0.137 -0.039 -0.332 v -0.352 l 0.258 -0.102 c 1.02 -0.41 1.906 -0.348 2.457 0.168 c 0.316 0.297 0.461 0.664 0.461 1.164 c 0 0.637 -0.184 1.01 -0.969 1.941 c -0.336 0.402 -0.699 1 -0.699 1.156 c 0 0.051 0.207 0.066 0.863 0.066 h 0.859 v 1.063 h -3.23"/></g></svg>