<svg xmlns="http://www.w3.org/2000/svg" viewBox="0 0 22 22"><path d="m 13.613 21.559 c 20.441 -4.238 -1.504 -33.406 -11.895 -15.887 c -4.453 6.809 1.379 18.07 11.895 15.887" fill="#f4f4f4"/><path d="m 170.72 150.36 c 0.027 10.327 -13.262 18.72 -29.647 18.729 c -16.365 -0.032 -29.626 -8.411 -29.653 -18.738 c 0.034 -10.348 13.303 -18.7 29.647 -18.729 c 16.385 -0.009 29.687 8.39 29.653 18.738" transform="matrix(0.07726 -0.03763 0.03763 0.07726 -5.01 5.349)" fill="#fff" fill-rule="evenodd" stroke="#fff"/><path d="m 10.68 15.902 c 0.078 -0.145 0.324 -0.309 0.551 -0.363 l 0.41 -0.102 l -0.402 -0.047 c -0.266 -0.031 -0.488 -0.168 -0.656 -0.406 c -0.141 -0.195 -0.758 -0.355 -1 -0.434 c -0.297 -0.102 -0.02 -0.191 0.035 -0.66 c 0.082 -0.715 -1.676 -0.684 -2.219 -0.301 c -0.367 0.254 1.188 0.383 1.734 0.383 c 0.148 0 0.355 -0.184 0.492 -0.129 c 0.391 0.164 0.516 0.711 -0.469 0.793 c -0.508 0.043 -1.121 0.02 -1.586 -0.051 c -1.988 -0.289 -0.586 -0.453 -0.637 -0.523 c -0.152 -0.207 -0.063 -0.434 0.137 -0.434 c 0.227 0 0.316 0.133 0.086 -0.516 c -0.102 -0.289 -0.184 -0.676 -0.176 -0.855 c 0.012 -0.445 -0.211 -1.953 -0.313 -2.121 c -0.047 -0.07 -0.223 -0.133 -0.387 -0.133 c -0.219 0 -0.305 -0.066 -0.305 -0.242 c 0 -0.332 0.465 -0.629 0.992 -0.629 c 0.605 -0.004 0.676 -0.074 1.055 -0.996 c 0.582 -1.426 0.926 -2.609 1.254 -4.316 c 0.105 -0.543 0.34 -0.727 0.582 -0.445 c 0.105 0.121 0.59 0.949 1.078 1.844 c 0.742 1.355 0.961 1.66 1.324 1.836 c 0.496 0.234 0.895 0.813 1.012 1.457 c 0.043 0.238 0.156 0.586 0.25 0.77 c 0.215 0.422 0.223 0.973 0.016 0.969 c -0.086 0 -0.426 -0.082 -0.75 -0.18 c -0.48 -0.145 -0.734 -0.152 -1.289 -0.043 c -0.598 0.121 -0.715 0.191 -0.82 0.5 c -0.07 0.195 -0.285 0.438 -0.484 0.539 c -0.77 0.402 -0.902 1.324 -0.281 1.992 c 0.293 0.32 0.352 0.332 1.078 0.25 c 0.426 -0.047 1.363 -0.305 1.387 -0.328 c 0.023 -0.023 -0.629 0.008 -0.746 -0.172 c -0.25 -0.375 -0.152 -0.227 0.574 -0.508 c 0.516 -0.199 0.477 -0.418 0.703 -0.109 l -0.234 0.402 l 0.98 -0.488 l 0.52 -0.398 l -0.07 -0.824 c -0.066 -0.797 -0.059 -0.828 0.254 -0.973 c 0.391 -0.176 0.406 -0.152 0.52 0.746 c 0.086 0.699 0.078 0.73 -0.352 1.203 c -0.242 0.27 -0.539 0.648 -0.66 0.84 c -0.121 0.195 -0.344 0.496 -0.5 0.664 c -0.195 0.215 -0.281 0.469 -0.285 0.813 c 0 0.273 0 0.719 0 0.996 c 0 0.273 0.07 0.684 -0.012 0.934 c -0.168 0.508 -0.148 0.488 -0.102 0.887 c 0.277 2.301 -0.348 1.496 -0.602 1.535 c -0.145 0.02 -0.125 -1.059 -0.457 0.031 c -0.09 0.289 -0.453 0.086 -0.789 0.086 c -0.18 -1.168 -0.008 -0.535 -0.441 -2.742 m -0.391 -3.43 c -0.086 -0.34 -0.004 -0.477 0.293 -0.477 c 0.297 0 0.41 0.184 0.309 0.5 c -0.105 0.332 -0.512 0.316 -0.602 -0.023 m 2.746 -1.176 c -0.051 -0.051 -0.09 -0.191 -0.09 -0.316 c 0 -0.164 0.094 -0.23 0.32 -0.23 c 0.262 0 0.313 0.055 0.281 0.281 c -0.039 0.273 -0.344 0.434 -0.512 0.262 m 1.238 -2.01 c -0.293 -0.324 -0.367 -0.914 -0.152 -1.188 c 0.137 -0.176 0.27 -0.211 0.563 -0.145 c 0.645 0.141 0.777 0.773 0.285 1.34 c -0.246 0.277 -0.438 0.273 -0.695 -0.008" fill="#e7a3a3"/><path d="m 11.176 17.879 c -0.078 -0.191 -0.238 -0.426 -0.316 -0.551 c -0.246 -0.375 -0.352 -1.918 -0.145 -2.168 c 0.09 -0.105 0.188 0.137 0.41 0.137 c 0.223 0 0.43 0.121 0.508 0.023 c 0.125 -0.148 0.375 -0.055 -0.039 0 c -0.469 0.063 -0.535 0.027 -1.188 -0.621 c -0.383 -0.379 -0.695 -0.738 -0.695 -0.793 c 0.008 -0.273 0.246 -0.406 0.871 -0.484 c 0.836 -0.098 1.617 -0.289 1.617 -0.391 c 0 -0.039 -0.098 -0.148 -0.219 -0.234 c -0.262 -0.195 -0.105 -0.406 0.348 -0.457 c 0.23 -0.023 0.297 0.02 0.273 0.176 c -0.031 0.176 0.039 0.199 0.391 0.145 c 0.367 -0.063 0.438 -0.031 0.52 0.219 c 0.066 0.219 0.027 0.332 -0.176 0.465 c -0.203 0.137 -0.266 0.305 -0.266 0.719 c 0 0.41 -0.063 0.582 -0.25 0.699 c -0.316 0.199 -0.16 -0.031 0.168 0.055 c 0.254 0.066 0.105 0.445 0.02 1.559 c -0.051 0.637 -0.113 1.203 -0.145 1.254 c -0.031 0.051 -0.184 0.094 -0.34 0.094 c -0.156 0 -0.387 0.113 -0.512 0.25 c -0.316 0.352 -0.66 0.313 -0.836 -0.094 m -3.57 -4.531 c -0.328 -0.352 -0.418 -0.773 -0.563 -2.672 c -0.047 -0.559 -0.258 -1.047 -0.457 -1.047 c -0.07 0 -0.094 -0.055 -0.051 -0.121 c 0.043 -0.07 0.273 -0.125 0.516 -0.125 c 0.414 0 0.449 -0.039 0.809 -0.824 c 0.66 -1.461 1.09 -2.844 1.547 -4.996 c 0.031 -0.156 0.137 -0.281 0.23 -0.281 c 0.094 0 0.641 0.852 1.211 1.891 c 0.719 1.305 1.148 1.949 1.387 2.086 c 0.355 0.199 0.836 1.023 0.844 1.449 c 0 0.129 0.082 0.379 0.18 0.551 c 0.098 0.172 0.18 0.379 0.184 0.465 c 0.004 0.195 -0.504 0.203 -0.922 0.012 c -0.484 -0.219 -1.914 0.195 -2.07 0.602 c -0.063 0.164 -0.332 0.508 -0.602 0.762 c -0.633 0.605 -0.723 0.973 -0.406 1.684 l 0.246 0.563 l -0.578 0.063 c -0.32 0.031 -0.727 0.098 -0.906 0.145 c -0.254 0.066 -0.391 0.02 -0.598 -0.203 m 2.805 -0.797 c -0.141 -0.367 -0.082 -0.555 0.18 -0.555 c 0.207 0 0.25 0.066 0.219 0.332 c -0.047 0.387 -0.285 0.52 -0.398 0.223 m 2.746 -1.262 c -0.156 -0.152 -0.086 -0.539 0.094 -0.539 c 0.238 0 0.34 0.18 0.246 0.426 c -0.082 0.211 -0.207 0.25 -0.34 0.113 m 1.41 -1.285 c 0 -0.234 0.031 -0.266 0.148 -0.148 c 0.117 0.113 0.117 0.18 0 0.297 c -0.117 0.117 -0.148 0.082 -0.148 -0.148 m -0.316 -0.922 c -0.227 -0.547 -0.23 -0.75 -0.008 -0.938 c 0.215 -0.176 0.777 -0.055 0.871 0.191 c 0.109 0.285 -0.215 1.102 -0.457 1.148 c -0.152 0.027 -0.277 -0.094 -0.406 -0.402" fill="#e5d139"/><path d="m 11.137 17.793 c -0.098 -0.234 -0.234 -0.461 -0.305 -0.504 c -0.277 -0.172 -0.098 -0.313 0.402 -0.316 c 0.293 -0.004 0.637 -0.086 0.77 -0.188 c 0.133 -0.102 0.402 -0.184 0.602 -0.184 c 0.34 0 0.355 0.02 0.316 0.531 c -0.035 0.465 -0.074 0.531 -0.367 0.566 c -0.18 0.02 -0.43 0.145 -0.547 0.277 c -0.34 0.375 -0.668 0.305 -0.871 -0.184 m -0.746 -3.109 c -0.375 -0.371 -0.68 -0.723 -0.68 -0.777 c 0.004 -0.273 0.246 -0.406 0.871 -0.48 c 0.836 -0.102 1.617 -0.293 1.617 -0.395 c 0 -0.039 -0.098 -0.145 -0.219 -0.234 c -0.262 -0.195 -0.105 -0.402 0.348 -0.453 c 0.23 -0.027 0.297 0.016 0.273 0.176 c -0.031 0.172 0.035 0.195 0.391 0.141 c 0.363 -0.059 0.438 -0.027 0.516 0.211 c 0.066 0.211 0.023 0.336 -0.168 0.484 c -0.176 0.137 -0.27 0.367 -0.293 0.754 c -0.035 0.531 -0.07 0.578 -0.66 0.895 c -0.938 0.512 -1.203 0.469 -1.996 -0.32 m -2.785 -1.336 c -0.328 -0.352 -0.418 -0.773 -0.566 -2.668 c -0.043 -0.559 -0.254 -1.047 -0.453 -1.047 c -0.07 0 -0.094 -0.059 -0.051 -0.125 c 0.043 -0.07 0.273 -0.125 0.512 -0.125 c 0.418 0 0.453 -0.035 0.813 -0.824 c 0.66 -1.461 1.09 -2.844 1.547 -4.996 c 0.031 -0.152 0.137 -0.281 0.23 -0.281 c 0.094 0 0.641 0.852 1.211 1.891 c 0.719 1.305 1.148 1.949 1.387 2.086 c 0.355 0.203 0.832 1.023 0.84 1.449 c 0.004 0.133 0.086 0.379 0.184 0.551 c 0.098 0.172 0.18 0.383 0.184 0.465 c 0.004 0.195 -0.504 0.203 -0.922 0.016 c -0.484 -0.223 -1.914 0.191 -2.07 0.598 c -0.063 0.164 -0.332 0.508 -0.602 0.766 c -0.637 0.602 -0.723 0.969 -0.41 1.68 l 0.25 0.563 l -0.578 0.063 c -0.32 0.031 -0.727 0.098 -0.906 0.145 c -0.254 0.066 -0.391 0.02 -0.598 -0.203 m 2.805 -0.797 c -0.141 -0.367 -0.082 -0.555 0.18 -0.555 c 0.207 0 0.25 0.066 0.219 0.332 c -0.047 0.387 -0.285 0.52 -0.398 0.223 m 2.742 -1.262 c -0.152 -0.152 -0.082 -0.539 0.098 -0.539 c 0.234 0 0.34 0.18 0.242 0.426 c -0.078 0.211 -0.203 0.25 -0.34 0.113 m 1.367 -1 c 0 -0.23 0.121 -1.277 0.238 -1.16 c 0.117 0.113 0.074 1.195 -0.043 1.313 c -0.117 0.113 -0.195 0.082 -0.195 -0.152 m -0.27 -1.207 c -0.23 -0.547 -0.23 -0.75 -0.008 -0.934 c 0.211 -0.18 0.777 -0.055 0.871 0.188 c 0.109 0.285 -0.262 2.277 -0.5 2.336 c -0.309 0.074 -0.234 -1.281 -0.363 -1.59" fill="#68a1b0"/><path d="m 11.08 17.645 c 0 -0.078 -0.082 -0.211 -0.188 -0.297 c -0.313 -0.258 -0.211 -0.371 0.344 -0.375 c 0.293 -0.004 0.637 -0.086 0.77 -0.188 c 0.352 -0.266 0.973 -0.246 0.918 0.027 c -0.02 0.117 -0.152 0.246 -0.289 0.281 c -0.371 0.102 -0.809 0.418 -0.809 0.59 c 0 0.094 -0.148 0.141 -0.371 0.125 c -0.207 -0.012 -0.375 -0.086 -0.375 -0.164 m -0.434 -2.953 c -0.207 -0.23 -0.438 -0.441 -0.512 -0.469 c -0.074 -0.027 -0.172 -0.203 -0.219 -0.395 c -0.086 -0.34 -0.078 -0.344 0.398 -0.266 c 0.648 0.105 1.648 -0.121 2.258 -0.508 c 0.273 -0.172 0.555 -0.313 0.621 -0.313 c 0.219 0 0.141 0.359 -0.133 0.637 c -0.191 0.188 -0.242 0.355 -0.195 0.605 c 0.117 0.582 -0.535 1.125 -1.344 1.121 c -0.41 0 -0.57 -0.074 -0.875 -0.414 m -3.039 -1.344 c -0.328 -0.352 -0.418 -0.773 -0.563 -2.672 c -0.047 -0.559 -0.258 -1.047 -0.457 -1.047 c -0.07 0 -0.094 -0.055 -0.051 -0.121 c 0.043 -0.07 0.258 -0.129 0.477 -0.129 c 0.578 -0.004 0.855 -0.309 1.352 -1.492 c 0.461 -1.098 1.098 -3.273 1.102 -3.766 c 0 -0.152 0.047 -0.355 0.105 -0.449 c 0.086 -0.129 0.148 -0.105 0.305 0.113 c 0.109 0.156 0.168 0.332 0.133 0.387 c -0.035 0.059 -0.008 0.105 0.059 0.105 c 0.07 0 0.313 0.379 0.547 0.84 c 0.668 1.336 1.023 1.824 1.512 2.086 c 0.457 0.25 0.941 1.012 0.949 1.5 c 0.004 0.133 0.086 0.383 0.184 0.555 c 0.098 0.172 0.18 0.379 0.184 0.465 c 0.004 0.195 -0.504 0.203 -0.922 0.012 c -0.484 -0.219 -1.914 0.195 -2.07 0.602 c -0.063 0.164 -0.332 0.508 -0.602 0.762 c -0.637 0.605 -0.723 0.973 -0.41 1.684 l 0.25 0.563 l -0.578 0.059 c -0.32 0.035 -0.727 0.102 -0.906 0.148 c -0.254 0.066 -0.391 0.02 -0.598 -0.203 m 4.414 -0.5 c -0.273 -0.266 -0.164 -0.453 0.293 -0.508 c 0.23 -0.027 0.301 0.031 0.32 0.254 c 0.035 0.402 -0.309 0.547 -0.613 0.254 m 2.234 -3.965 c -0.188 -0.207 -0.203 -0.305 -0.086 -0.563 c 0.156 -0.34 0.289 -0.375 0.656 -0.18 c 0.297 0.16 0.309 0.598 0.02 0.816 c -0.289 0.223 -0.328 0.215 -0.59 -0.074" fill="#9a7094"/><path d="m 11.391 17.723 c -0.043 -0.07 -0.051 -0.125 -0.02 -0.125 c 0.035 0 0.148 -0.035 0.258 -0.074 c 0.129 -0.051 0.195 -0.008 0.195 0.121 c 0 0.223 -0.313 0.277 -0.434 0.078 m -0.527 -0.391 c -0.266 -0.27 -0.176 -0.355 0.371 -0.359 c 0.293 -0.004 0.637 -0.086 0.77 -0.188 c 0.273 -0.207 1 -0.254 0.879 -0.059 c -0.039 0.066 -0.176 0.125 -0.301 0.125 c -0.125 0 -0.367 0.113 -0.543 0.25 c -0.41 0.324 -0.977 0.434 -1.18 0.23 m -0.148 -2.59 c -0.145 -0.203 -0.371 -0.402 -0.508 -0.445 c -0.133 -0.043 -0.246 -0.184 -0.246 -0.316 c 0 -0.25 0.012 -0.254 1.328 -0.469 c 0.418 -0.07 0.992 -0.27 1.273 -0.449 c 0.277 -0.176 0.566 -0.32 0.633 -0.32 c 0.219 0 0.141 0.359 -0.133 0.637 c -0.191 0.188 -0.242 0.355 -0.195 0.605 c 0.121 0.586 -0.535 1.121 -1.367 1.121 c -0.438 0 -0.566 -0.059 -0.785 -0.363 m -3.105 -1.395 c -0.148 -0.16 -0.293 -0.402 -0.32 -0.539 c -0.07 -0.34 -0.258 -1.984 -0.301 -2.586 c -0.008 -0.121 -0.125 -0.332 -0.266 -0.473 c -0.211 -0.211 -0.223 -0.262 -0.063 -0.324 c 0.191 -0.07 0.871 -0.012 1.434 0.129 c 0.172 0.043 0.23 0.043 0.125 -0.004 c -0.352 -0.148 -0.5 -0.324 -0.395 -0.465 c 0.055 -0.078 0.289 -0.574 0.516 -1.105 c 0.355 -0.832 0.434 -0.938 0.563 -0.758 c 0.191 0.262 0.598 0.129 0.539 -0.176 c -0.023 -0.121 -0.168 -0.234 -0.32 -0.258 c -0.336 -0.047 -0.336 0.031 -0.016 -1.137 c 0.246 -0.895 0.285 -0.957 0.563 -0.906 c 0.16 0.031 0.379 -0.012 0.48 -0.094 c 0.156 -0.129 0.238 -0.039 0.535 0.574 c 0.461 0.973 1.438 2.469 1.496 2.297 c 0.148 -0.441 0.887 0.531 0.898 1.18 c 0.004 0.133 0.086 0.383 0.184 0.555 c 0.258 0.453 0.227 0.621 -0.117 0.621 c -0.41 0 -0.941 -0.25 -0.941 -0.445 c 0 -0.086 0.148 -0.277 0.332 -0.418 l 0.328 -0.262 l -0.234 -0.441 c -0.133 -0.246 -0.285 -0.477 -0.344 -0.512 c -0.059 -0.039 -0.043 0.047 0.031 0.188 c 0.188 0.352 0.176 0.371 -0.156 0.305 c -0.434 -0.082 -0.555 0.332 -0.184 0.633 c 0.277 0.227 0.281 0.234 0.043 0.406 c -0.328 0.242 -1.082 0.441 -2.055 0.547 l -0.813 0.09 l 0.656 0.016 c 0.559 0.016 0.652 0.055 0.652 0.262 c 0 0.133 -0.25 0.488 -0.551 0.789 c -0.699 0.688 -0.789 1.023 -0.469 1.746 l 0.25 0.563 l -0.582 0.059 c -0.316 0.035 -0.727 0.102 -0.906 0.148 c -0.25 0.066 -0.387 0.02 -0.594 -0.203 m 2.672 -4.102 c 0.133 -0.215 -0.285 -0.57 -0.461 -0.398 c -0.074 0.078 -0.105 0.23 -0.066 0.34 c 0.086 0.223 0.402 0.258 0.527 0.059 m -1.066 -0.863 c 0 -0.297 -0.328 -0.465 -0.523 -0.27 c -0.191 0.191 -0.023 0.52 0.27 0.52 c 0.172 0 0.254 -0.082 0.254 -0.25 m 2.488 -0.508 c 0 -0.152 -0.086 -0.238 -0.238 -0.238 c -0.316 0 -0.441 0.215 -0.258 0.437 c 0.188 0.227 0.5 0.102 0.5 -0.199 m -0.77 -0.781 c 0.059 -0.297 -0.133 -0.48 -0.395 -0.379 c -0.211 0.078 -0.281 0.434 -0.121 0.594 c 0.156 0.156 0.469 0.023 0.516 -0.215 m -0.914 -1.262 c 0 -0.371 -0.484 -0.332 -0.539 0.043 c -0.031 0.242 0.008 0.281 0.25 0.25 c 0.195 -0.027 0.289 -0.125 0.289 -0.293 m 1.891 6.953 c -0.16 -0.16 -0.082 -0.301 0.238 -0.422 c 0.414 -0.156 0.586 -0.051 0.422 0.262 c -0.129 0.234 -0.496 0.324 -0.66 0.16 m 2.203 -4.09 c -0.164 -0.43 0.102 -0.984 0.699 -0.691 c 0.652 0.316 0.285 0.867 0.063 1.09 c -0.223 0.223 -0.629 -0.039 -0.762 -0.398 m -1.664 -0.008 c 0 -0.105 0.055 -0.156 0.125 -0.113 c 0.07 0.043 0.094 0.129 0.055 0.191 c -0.105 0.176 -0.18 0.141 -0.18 -0.078 m -2.77 -4.504 c -0.234 -0.051 -0.277 -0.242 -0.113 -0.504 c 0.086 -0.133 0.125 -0.133 0.227 0 c 0.348 0.445 0.313 0.602 -0.113 0.504" fill="#4c52b0"/><path d="m 10.863 17.332 c -0.266 -0.27 -0.176 -0.488 0.371 -0.492 c 0.293 -0.004 0.617 -0.066 0.75 -0.164 c 0.27 -0.207 1.461 -0.805 0.902 0.051 c -0.047 0.066 -0.18 0.125 -0.305 0.125 c -0.121 0 -0.367 0.113 -0.543 0.25 c -0.41 0.324 -0.977 0.434 -1.176 0.23 m -0.152 -2.59 c -0.145 -0.203 -0.371 -0.402 -0.508 -0.445 c -0.133 -0.043 -0.242 -0.184 -0.242 -0.316 c 0 -0.25 0.012 -0.254 1.324 -0.469 c 0.418 -0.07 0.992 -0.27 1.273 -0.449 c 0.277 -0.176 0.566 -0.32 0.637 -0.32 c 0.215 0 0.137 0.359 -0.137 0.637 c -0.188 0.188 -0.242 0.355 -0.191 0.605 c 0.117 0.586 -0.539 1.121 -1.371 1.121 c -0.438 0 -0.566 -0.059 -0.785 -0.363 m 1.488 -0.691 c 0 -0.105 -0.063 -0.344 -0.164 -0.344 c -0.102 0 -0.363 0.219 -0.363 0.32 c 0 0.102 0.305 0.473 0.43 0.32 c 0.066 -0.082 0.098 -0.195 0.098 -0.297 m -4.594 -0.703 c -0.328 -0.352 -0.414 -0.773 -0.563 -2.668 c -0.043 -0.559 -0.258 -1.047 -0.457 -1.047 c -0.07 0 -0.094 -0.059 -0.051 -0.125 c 0.133 -0.215 0.957 -0.133 1.926 0.188 c 0.512 0.172 1.168 0.309 1.465 0.309 c 0.445 0 0.531 0.039 0.531 0.242 c 0 0.137 -0.25 0.488 -0.551 0.789 c -0.699 0.688 -0.789 1.023 -0.469 1.746 l 0.25 0.563 l -0.582 0.063 c -0.316 0.031 -0.727 0.098 -0.906 0.145 c -0.25 0.066 -0.387 0.02 -0.594 -0.203 m 4.02 -0.543 c -0.578 -0.512 0.313 -0.43 0.633 -0.551 c 0.414 -0.156 0.832 -0.734 0.488 0.371 c -0.078 0.258 -0.945 0.336 -1.121 0.18 m 0.855 -3.078 c -0.363 -0.176 -0.355 -0.395 0.031 -0.695 c 0.172 -0.137 0.313 -0.281 0.313 -0.324 c 0 -0.043 -0.141 -0.301 -0.313 -0.57 c -0.355 -0.559 -0.387 -0.746 -0.137 -0.746 c 0.195 0 0.695 0.938 0.699 1.316 c 0.004 0.129 0.086 0.379 0.184 0.551 c 0.098 0.172 0.18 0.379 0.184 0.465 c 0.004 0.191 -0.57 0.191 -0.961 0.004" fill="#d43d39"/><path d="m 10.711 14.742 c -0.145 -0.203 -0.371 -0.402 -0.508 -0.445 c -0.133 -0.043 -0.242 -0.184 -0.242 -0.316 c 0 -0.25 0.012 -0.254 1.324 -0.469 c 0.418 -0.07 0.992 -0.27 1.273 -0.449 c 0.277 -0.176 0.566 -0.32 0.637 -0.32 c 0.215 0 0.137 0.359 -0.137 0.637 c -0.188 0.188 -0.242 0.355 -0.191 0.605 c 0.117 0.586 -0.539 1.121 -1.371 1.121 c -0.438 0 -0.566 -0.059 -0.785 -0.363 m 1.488 -0.691 c 0 -0.105 -0.055 -0.25 -0.098 -0.344 c -0.082 -0.176 -0.453 0.195 -0.453 0.297 c 0 0.105 0.262 0.234 0.363 0.234 c 0.105 0 0.188 -0.086 0.188 -0.188" fill="#1e9951"/><g fill="#00bfff"><path d="m 10.461 12.605 c -0.02 -0.035 -0.055 -0.141 -0.082 -0.234 c -0.035 -0.137 -0.035 -0.18 0.016 -0.258 c 0.074 -0.109 0.289 -0.129 0.367 -0.035 c 0.059 0.074 0.023 0.379 -0.059 0.504 c -0.07 0.105 -0.191 0.117 -0.242 0.023"/><path d="m 13.16 11.25 c -0.082 -0.117 -0.078 -0.313 0.004 -0.414 c 0.059 -0.07 0.086 -0.078 0.176 -0.043 c 0.152 0.059 0.199 0.207 0.113 0.379 c -0.082 0.172 -0.207 0.203 -0.293 0.078"/></g><path d="m 140.71 137.32 c 0.009 1.15 -0.383 2.064 -0.896 2.063 c -0.486 -0.014 -0.876 -0.947 -0.886 -2.051 c -0.009 -1.15 0.41 -2.077 0.896 -2.063 c 0.486 0.014 0.904 0.935 0.886 2.051" transform="matrix(0.14465 0.03784 0.00226 0.0846 -8.531 -5.131)" fill="#a9a9a9" fill-rule="evenodd" stroke="#a9a9a9"/></svg>