<svg xmlns="http://www.w3.org/2000/svg" xmlns:xlink="http://www.w3.org/1999/xlink" viewBox="0 0 22 22"><defs><g id="6" clip-path="url(#5)"><path d="m 15.602 7.434 c -0.574 -0.16 -1.168 -0.066 -1.684 0.219 c -0.207 0.797 -0.738 1.66 -1.375 2.187 c -0.105 1.223 0.438 2.594 1.133 3.211 c 0.004 0 -0.039 0 -0.039 0.004 c 0 1.125 0 2.289 0 3.477 c 0 0.141 0.293 0.141 0.293 0 c 0 -1.188 0 -2.324 0 -3.438 c 1.172 0.07 2.715 -1.379 3.098 -2.621 c 0.41 -1.34 -0.211 -2.699 -1.426 -3.039" fill="url(#2)"/><path d="m 11.473 4.04 c -1.266 0 -2.344 1.133 -2.344 2.527 c 0 1.355 1.063 2.809 2.02 3.324 c 0 1.723 0 3.629 0 5.309 c 0 0.141 0.219 0.141 0.219 0 c 0 -1.68 0 -3.566 0 -5.277 c 1.172 -0.164 2.355 -2.023 2.355 -3.355 c 0 -1.395 -0.977 -2.527 -2.246 -2.527 m -0.531 1.211 c -0.961 0.785 -1.195 2.066 -0.609 3.129 c 0.074 0.141 -0.129 0.25 -0.219 0.125 c -0.934 -1.305 -0.828 -3.211 0.73 -4.02 c 0.008 -0.004 0.016 -0.008 0.023 -0.012 c 0.012 -0.008 0.02 -0.008 0.027 -0.012 c 0.16 -0.059 0.414 -0.07 0.496 0.102 c 0.121 0.25 -0.293 0.559 -0.449 0.691" fill="url(#3)"/><path d="m 8.84 7.723 c -0.594 -0.352 -1.297 -0.449 -1.941 -0.211 c -1.18 0.438 -1.738 1.844 -1.211 3.145 c 0.484 1.191 1.863 2.129 2.965 2.355 c 0 1.152 0 2.332 0 3.59 c 0 0.141 0.293 0.141 0.293 0 c 0 -1.121 0 -2.41 0 -3.551 c 0 0 0.035 0.004 0.047 0.004 c 1.01 -0.375 1.41 -2.07 1.172 -3.367 c -0.582 -0.508 -1.098 -1.219 -1.324 -1.965" fill="url(#4)"/></g><g id="C" clip-path="url(#B)"><path d="m 15.602 7.594 c -0.574 -0.16 -1.168 -0.066 -1.684 0.223 c -0.207 0.793 -0.738 1.656 -1.375 2.184 c -0.105 1.223 0.438 2.594 1.133 3.211 c 0.004 0 -0.039 0.004 -0.039 0.004 c 0 1.125 0 2.336 0 3.457 c 0 0.141 0.293 0.141 0.293 0 c 0 -1.121 0 -2.305 0 -3.418 c 1.172 0.074 2.715 -1.375 3.098 -2.621 c 0.41 -1.336 -0.211 -2.699 -1.426 -3.039" fill="url(#8)"/><path d="m 11.473 4.207 c -1.266 0 -2.344 1.129 -2.344 2.523 c 0 1.355 1.063 2.809 2.02 3.328 c 0 1.719 0 3.605 0 5.285 c 0 0.207 0.219 0.207 0.219 0 c 0 -1.68 0 -3.543 0 -5.254 c 1.172 -0.168 2.355 -2.027 2.355 -3.359 c 0 -1.395 -0.977 -2.523 -2.246 -2.523 m -0.531 1.207 c -0.961 0.789 -1.195 2.066 -0.609 3.133 c 0.074 0.137 -0.129 0.25 -0.219 0.121 c -0.934 -1.305 -0.828 -3.207 0.73 -4.02 c 0.008 -0.004 0.016 -0.008 0.023 -0.012 c 0.012 -0.004 0.02 -0.008 0.027 -0.012 c 0.16 -0.059 0.414 -0.07 0.496 0.102 c 0.121 0.254 -0.293 0.559 -0.449 0.691" fill="url(#9)"/><path d="m 8.84 7.883 c -0.594 -0.352 -1.297 -0.449 -1.941 -0.211 c -1.18 0.438 -1.738 1.844 -1.211 3.145 c 0.484 1.191 1.863 2.129 2.965 2.355 c 0 1.156 0 2.379 0 3.57 c 0 0.137 0.293 0.137 0.293 0 c 0 -1.121 0 -2.387 0 -3.531 c 0 0.004 0.035 0.004 0.047 0.004 c 1.01 -0.375 1.41 -2.07 1.172 -3.367 c -0.582 -0.508 -1.098 -1.215 -1.324 -1.965" fill="url(#A)"/></g><clipPath id="5"><path d="M 0,0 H22 V22 H0 z"/></clipPath><clipPath id="B"><path d="M 0,0 H22 V22 H0 z"/></clipPath><filter id="0" filterUnits="objectBoundingBox" x="0" y="0" width="22" height="22"><feColorMatrix type="matrix" in="SourceGraphic" values="0 0 0 0 1 0 0 0 0 1 0 0 0 0 1 0 0 0 1 0"/></filter><linearGradient id="8" gradientUnits="userSpaceOnUse" y1="231.5" x2="0" y2="99.08" gradientTransform="matrix(0.07298 0 0 -0.06992 44.958 47.2)" xlink:href="#2"/><linearGradient id="2" gradientUnits="userSpaceOnUse" y1="229.5" x2="0" y2="96.77" gradientTransform="matrix(0.07298 0 0 -0.06992 44.958 47.2)"><stop stop-color="#000"/><stop offset="1" stop-color="#000" stop-opacity="0.588"/></linearGradient><linearGradient id="A" gradientUnits="userSpaceOnUse" y1="232.5" x2="0" y2="99.43" gradientTransform="matrix(0.07298 0 0 -0.06992 44.958 47.2)" xlink:href="#2"/><linearGradient id="4" gradientUnits="userSpaceOnUse" y1="230.5" x2="0" y2="97.13" gradientTransform="matrix(0.07298 0 0 -0.06992 44.958 47.2)" xlink:href="#2"/><linearGradient id="3" gradientUnits="userSpaceOnUse" y1="210.5" x2="0" y2="49.43" gradientTransform="matrix(0.07298 0 0 -0.06992 44.958 47.2)" xlink:href="#2"/><linearGradient id="9" gradientUnits="userSpaceOnUse" y1="213.25" x2="0" y2="51.732" gradientTransform="matrix(0.07298 0 0 -0.06992 44.958 47.2)" xlink:href="#2"/><mask id="7"><g filter="url(#0)"><path fill-opacity="0.2" d="M 0,0 H22 V22 H0 z"/></g></mask><mask id="1"><g filter="url(#0)"><path fill-opacity="0.2" d="M 0,0 H22 V22 H0 z"/></g></mask></defs><path d="m 3.922 16.82 c -1.324 -1.063 -2.91 -3.273 -3.375 -4.703 c -0.676 -2.066 -0.496 -4.645 0.438 -6.387 c 1.25 -2.324 4.379 -4.375 7.801 -5.117 c 2.457 -0.531 5.91 -0.539 7.797 -0.02 c 1.602 0.441 2.879 1.332 3.766 2.625 c 1.199 1.75 1.664 3.621 1.406 5.641 c -0.211 4.234 -2.133 7.492 -3.918 10.148 c -4.684 6.09 -9.855 1.133 -13.914 -2.188" fill="#2687b9"/><use xlink:href="#6" mask="url(#1)"/><use xlink:href="#C" mask="url(#7)"/><path d="m 15.602 7.273 c -0.574 -0.164 -1.168 -0.066 -1.684 0.219 c -0.207 0.797 -0.738 1.656 -1.375 2.188 c -0.105 1.219 0.438 2.594 1.133 3.211 c 0.004 0 -0.039 0 -0.039 0 c 0 1.125 0 2.313 0 3.43 c 0 0.211 0.293 0.211 0.293 0 c 0 -1.117 0 -2.277 0 -3.387 c 1.172 0.07 2.715 -1.379 3.098 -2.621 c 0.41 -1.34 -0.211 -2.699 -1.426 -3.039" fill="#ff517c"/><g fill="#fff"><path d="m 11.473 3.883 c -1.266 0 -2.344 1.133 -2.344 2.527 c 0 1.355 1.063 2.809 2.02 3.324 c 0 1.723 0 3.648 0 5.328 c 0 0.141 0.219 0.141 0.219 0 c 0 -1.68 0 -3.586 0 -5.297 c 1.172 -0.164 2.355 -2.023 2.355 -3.355 c 0 -1.395 -0.977 -2.527 -2.246 -2.527 m -0.531 1.207 c -0.961 0.789 -1.195 2.07 -0.609 3.133 c 0.074 0.141 -0.129 0.25 -0.219 0.121 c -0.934 -1.301 -0.828 -3.207 0.73 -4.02 c 0.008 -0.004 0.016 -0.012 0.023 -0.016 c 0.012 -0.004 0.02 -0.008 0.027 -0.008 c 0.16 -0.059 0.414 -0.07 0.496 0.102 c 0.121 0.25 -0.293 0.559 -0.449 0.688"/><path d="m 11.391 4.402 c -0.082 -0.172 -0.336 -0.16 -0.496 -0.102 c -0.008 0 -0.016 0.004 -0.027 0.008 c -0.008 0.004 -0.016 0.012 -0.023 0.016 c -1.559 0.813 -1.664 2.719 -0.73 4.02 c 0.09 0.129 0.293 0.02 0.219 -0.121 c -0.586 -1.063 -0.352 -2.344 0.609 -3.133 c 0.156 -0.129 0.57 -0.438 0.449 -0.688" fill-opacity="0.502"/></g><path d="m 10.16 9.527 c -0.582 -0.508 -1.094 -1.219 -1.32 -1.965 c -0.594 -0.352 -1.297 -0.453 -1.941 -0.215 c -1.18 0.438 -1.738 1.848 -1.211 3.148 c 0.484 1.191 1.863 2.125 2.961 2.352 c 0 1.156 0 2.355 0 3.543 c 0 0.211 0.297 0.211 0.297 0 c 0 -1.117 0 -2.359 0 -3.5 c 0 0 0.031 0 0.043 0.004 c 1.012 -0.375 1.406 -2.07 1.168 -3.367" fill="#eeff78"/><g fill="#fff"><path d="m 14.422 7.719 c -0.156 0.773 -0.57 1.496 -1.168 2.039 c -0.078 0.07 -0.16 0.141 -0.207 0.23 c -0.043 0.086 -0.051 0.188 -0.055 0.285 c -0.02 0.523 0.078 0.934 0.25 1.434 c 0.035 0.098 0.289 0.535 0.395 0.527 c -0.277 -0.406 -0.406 -0.902 -0.355 -1.387 c 0.047 -0.484 0.273 -0.949 0.629 -1.297 c 0.195 -0.188 0.426 -0.344 0.602 -0.551 c 0.215 -0.246 0.336 -0.566 0.34 -0.887 c 0.004 -0.121 -0.012 -0.25 -0.086 -0.348 c -0.078 -0.098 -0.227 -0.148 -0.336 -0.086" fill-opacity="0.502"/><path d="m 7.18 7.77 c -0.133 -0.141 -0.371 -0.055 -0.504 0.047 c -0.008 0.004 -0.016 0.012 -0.023 0.02 c -0.008 0.004 -0.016 0.012 -0.02 0.02 c -1.223 1.23 -0.711 3.074 0.594 4.04 c 0.129 0.098 0.289 -0.066 0.172 -0.18 c -0.898 -0.84 -1.086 -2.129 -0.426 -3.156 c 0.109 -0.172 0.402 -0.586 0.207 -0.789" fill-opacity="0.631"/></g></svg>