<svg xmlns="http://www.w3.org/2000/svg" viewBox="0 0 22 22"><defs><clipPath id="0"><path d="m 11 9 h 7 v 8 h -7"/></clipPath><clipPath id="1"><path d="m 29.484 18.871 c 0 5.449 -4.293 9.863 -9.582 9.863 c -5.289 0 -9.582 -4.414 -9.582 -9.863 c 0 -5.445 4.293 -9.859 9.582 -9.859 c 5.289 0 9.582 4.414 9.582 9.859"/></clipPath><clipPath id="2"><path d="m 10 9 h 11 v 10 h -11"/></clipPath></defs><path d="m 0.961 7.516 c -4.27 10.949 7.695 16.566 15.14 13.777 c 5.199 -1.949 7.789 -9.711 4.098 -15.988 c -4.66 -7.918 -15.949 -6.234 -19.242 2.211" fill="#ffd9b9"/><path d="m 6.418 15.984 c -0.051 -0.016 -0.199 -0.055 -0.336 -0.082 l -0.246 -0.055 v -3.082 l -0.313 -0.301 c -0.172 -0.168 -0.316 -0.363 -0.316 -0.438 c 0 -0.215 0.336 -0.785 0.563 -0.957 c 0.117 -0.086 0.289 -0.273 0.383 -0.418 c 0.094 -0.141 0.238 -0.305 0.324 -0.363 c 0.082 -0.059 0.219 -0.313 0.305 -0.559 c 0.082 -0.25 0.254 -0.645 0.379 -0.883 c 0.289 -0.539 0.316 -1.43 0.059 -1.887 c -0.16 -0.281 -0.16 -0.301 0 -0.637 c 0.191 -0.41 0.414 -0.629 0.555 -0.543 c 0.164 0.102 0.477 0.648 0.48 0.84 c 0 0.094 -0.063 0.25 -0.133 0.344 c -0.176 0.219 -0.172 0.676 0.004 0.848 c 0.184 0.176 1.047 0.184 1.199 0.008 c 0.086 -0.098 0.059 -0.207 -0.141 -0.547 c -0.238 -0.406 -0.242 -0.438 -0.117 -0.758 c 0.109 -0.27 0.254 -0.402 0.793 -0.711 l 0.66 -0.379 l 0.402 0.207 c 0.543 0.273 0.973 0.68 1.055 0.984 c 0.051 0.191 0.008 0.348 -0.176 0.668 c -0.352 0.602 -0.262 0.672 0.828 0.645 l 0.859 -0.027 l 0.027 -0.316 c 0.02 -0.191 -0.031 -0.406 -0.121 -0.539 c -0.102 -0.148 -0.133 -0.305 -0.094 -0.496 c 0.074 -0.371 0.375 -0.84 0.543 -0.84 c 0.137 0 0.586 0.75 0.586 0.977 c 0 0.066 -0.063 0.172 -0.141 0.23 c -0.113 0.094 -0.133 0.27 -0.102 0.98 c 0.055 1.25 0.367 2.043 1.098 2.797 c 0.719 0.738 0.844 0.93 0.844 1.27 c 0 0.211 -0.07 0.352 -0.266 0.52 l -0.266 0.234 l -0.023 1.586 l -0.027 1.586 l -4.297 0.004 c -2.363 0.004 -4.398 0.031 -4.52 0.063 c -0.121 0.031 -0.266 0.047 -0.313 0.027 m 7.527 -3.07 c -0.035 -0.199 -0.094 -0.402 -0.137 -0.453 c -0.039 -0.047 -0.098 -0.23 -0.133 -0.406 c -0.051 -0.277 -0.098 -0.328 -0.352 -0.375 c -0.164 -0.027 -0.434 -0.039 -0.602 -0.023 c -0.289 0.027 -0.309 0.047 -0.336 0.379 c -0.023 0.348 -0.02 0.355 0.582 0.742 c 0.953 0.609 1.055 0.621 0.977 0.137 m -5.492 -0.004 c 0.422 -0.277 0.578 -0.5 0.469 -0.668 c -0.098 -0.152 -0.219 -0.094 -0.676 0.313 c -0.695 0.629 -0.562 0.859 0.207 0.355" fill="#ac8d55"/><path d="m 10.266 15.75 c -0.121 -0.02 -0.348 -0.074 -0.496 -0.121 l -0.273 -0.082 l 0.031 -0.793 c 0.02 -0.438 0.07 -0.906 0.117 -1.043 c 0.047 -0.137 0.086 -0.363 0.086 -0.5 c 0 -0.555 0.473 -0.898 1.105 -0.801 c 0.203 0.031 0.539 0.063 0.75 0.07 c 0.211 0.008 0.379 0.055 0.379 0.105 c 0 0.258 1.273 1.02 1.926 1.156 c 0.266 0.055 0.27 0.059 0.238 0.547 c -0.039 0.621 0.117 1.02 0.379 0.984 c 0.168 -0.023 0.188 -0.074 0.168 -0.457 c -0.012 -0.234 -0.02 -0.699 -0.023 -1.031 c -0.004 -0.66 -0.023 -0.707 -0.379 -0.926 c -0.211 -0.129 -0.246 -0.211 -0.246 -0.531 c 0 -0.438 0.105 -0.539 0.41 -0.387 c 0.168 0.09 0.262 0.09 0.449 0.008 c 0.227 -0.098 0.234 -0.125 0.188 -0.613 c -0.023 -0.285 -0.016 -0.531 0.023 -0.555 c 0.039 -0.023 0.258 0.148 0.484 0.383 c 0.328 0.336 0.414 0.484 0.414 0.723 c 0 0.289 -0.145 0.516 -0.379 0.59 c -0.086 0.027 -0.125 0.453 -0.16 1.652 l -0.043 1.617 l -0.762 -0.02 c -0.414 -0.008 -0.805 -0.055 -0.859 -0.098 c -0.055 -0.047 -0.156 -0.063 -0.227 -0.039 c -0.066 0.02 -0.605 0.059 -1.195 0.082 c -0.594 0.023 -1.258 0.059 -1.48 0.082 c -0.219 0.02 -0.5 0.02 -0.625 -0.004 m -4.313 -0.07 c -0.109 -0.105 0.051 -0.586 0.207 -0.625 c 0.199 -0.051 0.211 -0.242 0.031 -0.535 c -0.188 -0.316 -0.16 -0.43 0.094 -0.43 c 0.16 0 0.25 -0.066 0.316 -0.23 c 0.121 -0.309 0.047 -0.457 -0.23 -0.457 c -0.137 0 -0.25 -0.063 -0.281 -0.152 c -0.129 -0.383 -0.387 -0.859 -0.52 -0.961 c -0.125 -0.102 -0.129 -0.133 -0.016 -0.254 c 0.074 -0.078 0.27 -0.445 0.441 -0.82 c 0.199 -0.434 0.391 -0.719 0.527 -0.785 c 0.148 -0.078 0.27 -0.281 0.414 -0.711 c 0.109 -0.332 0.324 -0.824 0.477 -1.094 c 0.258 -0.469 0.266 -0.516 0.16 -0.832 c -0.094 -0.27 -0.098 -0.48 -0.012 -1.031 c 0.059 -0.379 0.129 -0.715 0.16 -0.742 c 0.086 -0.086 0.395 0.336 0.391 0.535 c 0 0.102 -0.063 0.262 -0.133 0.352 c -0.191 0.242 -0.164 0.703 0.047 0.91 c 0.141 0.133 0.301 0.172 0.758 0.172 c 0.324 0 0.602 -0.043 0.637 -0.098 c 0.035 -0.051 0.055 -0.328 0.051 -0.613 c -0.012 -0.418 0.031 -0.598 0.223 -0.914 c 0.27 -0.453 0.648 -0.867 0.789 -0.867 c 0.176 0 1.156 0.676 1.273 0.875 c 0.16 0.281 0.145 0.527 -0.047 0.766 c -0.527 0.648 -0.305 0.852 0.922 0.852 c 0.883 0 0.926 -0.012 0.98 -0.195 c 0.086 -0.309 0.063 -0.52 -0.082 -0.785 c -0.07 -0.133 -0.133 -0.316 -0.133 -0.402 c 0 -0.219 0.285 -0.777 0.383 -0.746 c 0.043 0.016 0.16 0.168 0.266 0.34 c 0.176 0.297 0.18 0.328 0.039 0.613 c -0.215 0.43 -0.203 1.551 0.02 1.969 c 0.227 0.43 0.418 1.621 0.293 1.844 c -0.051 0.094 -0.262 0.313 -0.465 0.488 c -0.363 0.316 -0.379 0.32 -0.922 0.27 c -0.305 -0.027 -0.598 -0.02 -0.652 0.016 c -0.055 0.039 -0.148 0.215 -0.207 0.391 c -0.063 0.176 -0.121 0.324 -0.133 0.324 c -0.016 0 -0.254 -0.078 -0.535 -0.172 c -0.539 -0.176 -1.121 -0.227 -1.488 -0.125 c -0.25 0.07 -0.191 -0.027 0.105 -0.168 c 0.387 -0.188 0.305 -0.297 -0.406 -0.52 c -0.137 -0.043 -0.145 -0.074 -0.055 -0.18 c 0.098 -0.113 0.039 -0.199 -0.352 -0.551 c -0.316 -0.281 -0.434 -0.438 -0.359 -0.48 c 0.063 -0.039 0.168 0.012 0.254 0.121 c 0.117 0.148 0.168 0.164 0.258 0.082 c 0.059 -0.059 0.109 -0.172 0.109 -0.25 c 0 -0.082 0.141 -0.344 0.313 -0.586 c 0.172 -0.238 0.313 -0.512 0.313 -0.609 c 0 -0.094 0.145 -0.324 0.32 -0.512 c 0.27 -0.289 0.305 -0.367 0.219 -0.516 c -0.137 -0.25 -0.277 -0.223 -0.555 0.113 c -0.133 0.16 -0.352 0.316 -0.484 0.348 c -0.133 0.031 -0.414 0.195 -0.625 0.359 c -0.613 0.48 -0.844 1.148 -0.508 1.477 c 0.117 0.113 0.156 0.289 0.152 0.707 c -0.004 1.082 -0.004 1.082 -0.555 1.625 c -0.75 0.734 -1.121 1.191 -1.055 1.293 c 0.109 0.168 0.813 0.094 1.246 -0.129 c 0.582 -0.293 0.676 -0.277 0.691 0.109 c 0.023 0.52 0.078 1.504 0.102 1.777 c 0.016 0.207 -0.02 0.266 -0.203 0.313 c -0.254 0.07 -2.898 0.102 -2.969 0.039 m 4.582 -6.02 c 0 -0.469 -0.094 -0.488 -0.293 -0.07 c -0.164 0.352 -0.137 0.457 0.117 0.457 c 0.148 0 0.176 -0.059 0.176 -0.387" fill="#70512f"/><path d="m 7.355 15.68 c -0.043 -0.023 -0.086 -0.43 -0.094 -0.902 c -0.016 -0.699 0.008 -0.863 0.113 -0.883 c 0.074 -0.016 0.184 0.035 0.246 0.105 c 0.078 0.09 0.27 0.133 0.566 0.133 c 0.445 0 0.449 0.004 0.289 0.176 c -0.16 0.168 -0.16 0.18 0.035 0.434 c 0.141 0.184 0.191 0.352 0.172 0.578 l -0.027 0.316 l -0.613 0.043 c -0.336 0.023 -0.648 0.023 -0.687 0 m 2.934 -0.004 c -0.191 -0.109 -0.199 -0.336 -0.023 -0.559 c 0.07 -0.09 0.133 -0.25 0.133 -0.348 c 0.004 -0.23 0.344 -0.656 0.469 -0.582 c 0.34 0.203 0.57 1.422 0.289 1.527 c -0.219 0.078 -0.691 0.059 -0.867 -0.039 m 4.996 -0.188 c -0.039 -0.082 -0.039 -0.219 0 -0.301 c 0.063 -0.145 0.07 -0.145 0.105 0 c 0.02 0.082 0.02 0.219 0 0.301 c -0.035 0.145 -0.043 0.145 -0.105 0 m -2.641 -0.492 c -0.152 -0.09 -0.059 -0.348 0.125 -0.348 c 0.078 0 0.137 0.074 0.137 0.168 c 0 0.207 -0.102 0.277 -0.262 0.18 m 0.594 -0.039 c -0.027 -0.066 0.004 -0.191 0.074 -0.277 c 0.113 -0.148 0.133 -0.148 0.273 -0.016 c 0.082 0.078 0.129 0.207 0.098 0.281 c -0.066 0.168 -0.383 0.176 -0.445 0.012 m 2.051 -0.254 c -0.07 -0.141 -0.086 -0.387 -0.055 -0.848 c 0.016 -0.211 -0.512 -0.918 -0.77 -1.031 c -0.172 -0.074 -0.215 -0.156 -0.215 -0.426 c 0 -0.313 0.012 -0.328 0.188 -0.238 c 0.141 0.074 0.254 0.07 0.453 -0.008 c 0.355 -0.141 0.441 -0.332 0.383 -0.824 l -0.055 -0.418 l 0.367 0.363 c 0.305 0.301 0.367 0.418 0.367 0.707 c 0 0.191 -0.035 0.348 -0.074 0.348 c -0.039 0 -0.148 0.055 -0.246 0.121 c -0.152 0.109 -0.18 0.266 -0.219 1.27 c -0.031 0.758 -0.074 1.09 -0.125 0.984 m -3.098 -0.484 c 0 -0.047 0.16 -0.086 0.359 -0.086 c 0.195 0 0.355 0.039 0.355 0.086 c 0 0.047 -0.16 0.086 -0.355 0.086 c -0.199 0 -0.359 -0.039 -0.359 -0.086 m -2.238 -0.406 c 0 -0.246 0.262 -0.652 0.563 -0.883 c 0.195 -0.145 0.273 -0.16 0.426 -0.082 c 0.211 0.105 0.535 0.574 0.531 0.77 c 0 0.074 -0.051 0.035 -0.113 -0.082 c -0.059 -0.117 -0.219 -0.27 -0.352 -0.344 c -0.223 -0.117 -0.262 -0.113 -0.492 0.047 c -0.137 0.098 -0.32 0.309 -0.406 0.473 c -0.129 0.242 -0.156 0.262 -0.156 0.102 m -3.828 -0.875 c -0.109 -0.188 -0.199 -0.441 -0.199 -0.563 c 0 -0.195 0.035 -0.219 0.352 -0.219 c 0.379 0 0.633 -0.172 0.633 -0.43 c 0 -0.09 0.039 -0.184 0.086 -0.211 c 0.141 -0.082 0.289 0.293 0.262 0.672 c -0.012 0.195 0.012 0.465 0.051 0.598 c 0.09 0.313 0.016 0.375 -0.531 0.441 l -0.449 0.055 m 5.238 -1.434 c -0.348 -0.145 -0.289 -0.223 0.25 -0.332 c 0.285 -0.059 0.297 -0.051 0.27 0.176 c -0.035 0.297 -0.125 0.32 -0.52 0.156 m 1.223 -0.699 l -0.344 -0.035 l 0.063 -0.336 c 0.051 -0.301 0.039 -0.34 -0.125 -0.34 c -0.098 0 -0.203 0.035 -0.23 0.082 c -0.156 0.242 -2.422 0.168 -2.422 -0.082 c 0 -0.102 0.137 -0.129 0.672 -0.133 c 1.09 -0.012 1.488 -0.316 1.324 -1.012 c -0.043 -0.188 -0.059 -0.355 -0.039 -0.375 c 0.023 -0.023 0.164 0.023 0.313 0.098 c 0.387 0.191 0.641 0.176 0.641 -0.043 c 0 -0.176 -0.398 -0.598 -0.566 -0.598 c -0.219 0 -1.043 -0.477 -1.148 -0.664 c -0.063 -0.113 -0.188 -0.242 -0.273 -0.289 c -0.164 -0.086 -0.242 -0.027 -0.609 0.438 c -0.137 0.18 -0.188 0.195 -0.285 0.102 c -0.098 -0.094 -0.074 -0.141 0.129 -0.285 c 0.203 -0.141 0.246 -0.238 0.246 -0.539 c 0 -0.531 0.16 -1.273 0.309 -1.414 c 0.109 -0.105 0.191 -0.082 0.582 0.16 c 0.797 0.488 0.984 0.883 0.633 1.313 c -0.105 0.129 -0.18 0.352 -0.18 0.527 v 0.309 l 0.516 0.016 c 0.281 0.008 0.715 0.016 0.961 0.02 l 0.449 0.008 l 0.023 1.449 c 0.023 1.367 -0.027 1.727 -0.238 1.676 c -0.031 -0.008 -0.211 -0.031 -0.398 -0.051 m -4.648 -0.113 c -0.137 -0.078 -0.156 -0.246 -0.156 -1.438 c 0 -1.199 -0.02 -1.383 -0.18 -1.633 c -0.098 -0.152 -0.18 -0.383 -0.18 -0.512 c 0 -0.383 0.215 -1.145 0.313 -1.113 c 0.133 0.043 0.168 0.406 0.055 0.516 c -0.117 0.113 -0.129 1.063 -0.016 1.129 c 0.047 0.027 0.328 0.074 0.625 0.105 c 0.594 0.059 0.699 0.188 0.34 0.414 c -0.285 0.176 -0.598 0.742 -0.598 1.07 c 0 0.148 0.055 0.375 0.125 0.504 c 0.109 0.207 0.18 0.625 0.152 0.941 c -0.012 0.129 -0.262 0.137 -0.48 0.016 m -0.996 -0.125 c -0.094 -0.066 -0.211 -0.133 -0.262 -0.148 c -0.086 -0.031 0.035 -0.477 0.371 -1.355 l 0.145 -0.387 l 0.059 0.258 c 0.031 0.145 0.063 0.598 0.07 1.012 c 0.012 0.793 -0.039 0.875 -0.383 0.621 m 6.715 -0.277 c -0.082 -0.492 -0.066 -1.188 0.035 -1.445 c 0.16 -0.406 0.332 -0.109 0.402 0.699 c 0.055 0.633 0.043 0.754 -0.094 0.898 c -0.227 0.238 -0.281 0.215 -0.344 -0.152" fill="#58371b"/><g clip-path="url(#0)"><g clip-path="url(#1)"><path d="m 16.488 9.68 c -0.059 0.008 -0.129 0.027 -0.172 0.074 l -4.363 4.484 c -0.027 0.027 -0.039 0.066 -0.051 0.102 l -0.652 1.855 c -0.07 0.188 0.152 0.402 0.332 0.332 l 1.793 -0.66 c 0.039 -0.012 0.082 -0.027 0.109 -0.059 l 4.359 -4.5 c 0.051 -0.059 0.066 -0.141 0.055 -0.215 c 0 0 0.004 -0.043 -0.012 -0.086 c -0.016 -0.043 -0.055 -0.102 -0.094 -0.172 c -0.078 -0.137 -0.207 -0.316 -0.453 -0.57 c -0.254 -0.262 -0.426 -0.406 -0.559 -0.484 c -0.066 -0.043 -0.129 -0.07 -0.172 -0.086 c -0.043 -0.016 -0.105 -0.016 -0.105 -0.016" fill="#ffd9b9"/></g></g><g clip-path="url(#2)"><g clip-path="url(#1)"><path d="m 15.802 2.559 c -0.141 0.018 -0.309 0.064 -0.413 0.173 l -10.474 10.459 c -0.066 0.064 -0.094 0.155 -0.122 0.237 l -1.566 4.328 c -0.169 0.437 0.366 0.938 0.797 0.774 l 4.304 -1.54 c 0.094 -0.027 0.197 -0.064 0.263 -0.137 l 10.464 -10.496 c 0.122 -0.137 0.159 -0.328 0.131 -0.501 c 0 0 0.009 -0.1 -0.028 -0.2 c -0.038 -0.1 -0.131 -0.237 -0.225 -0.401 c -0.188 -0.319 -0.497 -0.738 -1.088 -1.33 c -0.609 -0.61 -1.022 -0.948 -1.341 -1.13 c -0.159 -0.1 -0.309 -0.164 -0.413 -0.2 c -0.103 -0.036 -0.253 -0.036 -0.253 -0.036" transform="matrix(0.41659 0 0 0.42874 9.905 8.583)" fill="none" stroke="#58371b"/></g></g></svg>