<svg xmlns="http://www.w3.org/2000/svg" viewBox="0 0 22 22"><path d="m 5.387 2.734 c -19.484 18.11 20.727 29.52 16.293 5.477 c -2.188 -6.344 -10.04 -11.293 -16.293 -5.477" fill="#473d8b"/><path d="m 13.387 17.07 c -0.16 -0.027 -0.547 -0.047 -0.859 -0.043 c -0.309 0.004 -0.75 -0.02 -0.973 -0.051 c -0.344 -0.051 -0.422 -0.082 -0.527 -0.211 c -0.105 -0.125 -0.117 -0.184 -0.078 -0.383 c 0.023 -0.129 0.047 -0.418 0.047 -0.637 c 0.008 -0.492 -0.137 -2.047 -0.195 -2.102 c -0.078 -0.078 -0.246 2.01 -0.203 2.523 c 0.047 0.574 0.008 0.672 -0.297 0.762 c -0.277 0.078 -2.027 0.043 -2.215 -0.047 c -0.094 -0.043 -0.164 -0.047 -0.246 -0.008 c -0.066 0.031 -0.359 0.059 -0.656 0.066 c -0.496 0.008 -0.555 0 -0.777 -0.125 c -0.297 -0.168 -0.434 -0.379 -0.488 -0.77 c -0.023 -0.168 -0.063 -0.395 -0.086 -0.508 c -0.027 -0.152 -0.016 -0.238 0.055 -0.332 c 0.082 -0.109 0.082 -0.129 0 -0.234 c -0.066 -0.082 -0.086 -0.18 -0.063 -0.316 c 0.035 -0.23 0.125 -0.344 0.281 -0.344 c 0.082 0 0.105 -0.039 0.105 -0.156 c 0 -0.297 0.266 -0.555 0.555 -0.535 c 0.141 0.012 0.176 -0.008 0.191 -0.102 c 0.027 -0.168 0.324 -0.254 0.891 -0.254 c 0.555 0 0.906 0.07 1 0.203 c 0.035 0.047 0.109 0.09 0.16 0.09 c 0.078 0 0.109 -0.129 0.195 -0.793 c 0.055 -0.434 0.121 -0.914 0.152 -1.066 c 0.027 -0.148 0.051 -0.426 0.051 -0.613 c 0 -0.332 -0.004 -0.348 -0.16 -0.395 c -0.086 -0.027 -0.227 -0.082 -0.313 -0.125 c -0.086 -0.043 -0.18 -0.074 -0.207 -0.074 c -0.047 0 -0.777 0.348 -1.266 0.602 c -1.199 0.621 -1.531 0.754 -1.883 0.754 c -0.313 -0.004 -0.582 -0.117 -0.77 -0.324 c -0.109 -0.117 -0.137 -0.211 -0.137 -0.453 c 0 -0.355 0.137 -0.559 0.5 -0.758 c 0.137 -0.074 0.227 -0.164 0.227 -0.219 c 0 -0.113 0.484 -0.551 0.801 -0.73 c 0.121 -0.066 0.453 -0.18 0.738 -0.254 c 0.457 -0.121 0.551 -0.129 0.719 -0.074 c 0.125 0.039 0.211 0.043 0.234 0.012 c 0.02 -0.027 0.098 -0.066 0.172 -0.086 c 0.078 -0.023 0.332 -0.129 0.57 -0.238 l 0.434 -0.203 l 0.25 -0.406 c 0.102 -0.172 -0.367 -0.348 -0.41 -0.391 c -0.102 -0.102 -0.102 -0.23 0.004 -0.281 c 0.047 -0.023 -0.395 -1.242 -0.332 -1.367 c 0.148 -0.301 0.281 -0.84 0.516 -0.887 c 0.051 -0.008 0.711 -0.273 0.988 -0.305 c 0.277 -0.031 0.559 0.27 0.625 0.25 c 0.176 -0.055 0.633 0.195 0.777 0.586 c 0.121 0.316 -0.059 0.773 0.035 0.824 c 0.238 0.137 0.23 -0.348 0.375 -0.57 c 0.398 -0.613 1.121 -0.805 2.01 -0.535 c 0.613 0.188 0.91 0.492 0.609 0.633 c -0.066 0.031 -0.293 0.094 -0.508 0.141 l -0.387 0.082 l -0.016 0.227 c -0.02 0.223 0.066 0.711 0.164 0.93 c 0.051 0.125 0.012 0.125 0.805 -0.035 c 0.285 -0.059 0.316 -0.055 0.391 0.035 c 0.113 0.133 0.102 0.32 -0.043 0.555 c -0.172 0.285 -0.367 0.449 -0.695 0.586 c -0.211 0.086 -0.285 0.145 -0.285 0.223 c 0 0.141 -0.086 0.168 -0.422 0.133 c -0.254 -0.023 -0.359 -0.078 -0.523 -0.27 c -0.117 -0.137 -0.395 -0.031 -0.563 0.211 c -0.082 0.113 -0.254 0.289 -0.383 0.395 l -0.234 0.188 l 0.309 0.055 c 0.414 0.078 0.602 0.203 0.977 0.66 c 0.176 0.211 0.352 0.418 0.391 0.461 c 0.063 0.066 0.234 0.078 1.09 0.078 c 0.902 0 1.051 0.012 1.305 0.105 c 0.238 0.082 0.297 0.129 0.32 0.246 c 0.027 0.125 0.07 0.152 0.32 0.207 c 0.16 0.035 0.324 0.102 0.359 0.152 c 0.039 0.047 0.098 0.113 0.125 0.145 c 0.031 0.027 0.102 0.129 0.152 0.219 c 0.078 0.129 0.086 0.191 0.035 0.285 c -0.117 0.227 -0.078 0.359 0.113 0.395 c 0.234 0.043 0.328 0.184 0.371 0.559 c 0.035 0.281 0.027 0.324 -0.109 0.461 c -0.18 0.184 -0.188 0.367 -0.023 0.492 c 0.109 0.086 0.121 0.137 0.094 0.473 c -0.023 0.344 -0.039 0.383 -0.207 0.504 c -0.121 0.09 -0.184 0.18 -0.184 0.27 c 0 0.074 -0.023 0.133 -0.051 0.133 c -0.055 0 0.121 0.336 0.223 0.422 c 0.109 0.094 0.063 0.43 -0.09 0.691 c -0.215 0.371 -0.379 0.496 -0.648 0.496 c -0.125 0 -0.258 0.027 -0.297 0.063 c -0.09 0.078 -2.563 0.105 -3 0.031 m -5.125 -1.168 c 0.297 -0.105 0.551 -0.391 0.598 -0.668 c 0.133 -0.758 -0.563 -1.289 -1.273 -0.977 c -0.301 0.133 -0.379 0.195 -0.5 0.402 c -0.207 0.355 -0.168 0.559 0.113 0.559 c 0.094 0 0.188 0.023 0.207 0.051 c 0.02 0.031 0.098 0.074 0.176 0.102 c 0.137 0.043 0.375 0.375 0.375 0.523 c 0 0.094 0.063 0.098 0.305 0.008 m 5.828 -1.137 c 0.051 0 0.082 -0.055 0.082 -0.137 c 0 -0.156 0.258 -0.418 0.418 -0.418 c 0.059 0 0.168 -0.059 0.242 -0.133 c 0.109 -0.113 0.184 -0.133 0.445 -0.141 l 0.316 -0.004 l 0.02 -0.25 c 0.051 -0.652 -0.426 -1.484 -0.852 -1.484 c -0.234 0 -0.773 0.523 -0.938 0.91 c -0.168 0.395 -0.219 0.988 -0.117 1.363 c 0.09 0.332 -0.039 0.883 0.066 0.844 c 0.051 -0.016 0.316 -0.027 0.363 -0.027 m -1.574 -3.906 c 0.027 -0.063 -0.039 -0.156 -0.223 -0.324 c -0.238 -0.215 -0.262 -0.223 -0.258 -0.109 c 0 0.105 0.035 0.27 0.145 0.688 l 0.031 0.117 l 0.133 -0.141 c 0.074 -0.078 0.152 -0.18 0.172 -0.23" fill="#fff"/></svg>