<svg xmlns="http://www.w3.org/2000/svg" viewBox="0 0 22 22"><defs><clipPath id="3"><path d="m 15 13 h 2 v 3 h -2"/></clipPath><clipPath id="4"><path d="m 12 8 h 8 v 8 h -8"/></clipPath><clipPath id="2"><path d="m 10 6 h 7 v 8 h -7"/></clipPath><clipPath id="0"><path d="m 12 7 h 2 v 2 h -2"/></clipPath><clipPath id="1"><path d="m 23.14 11.07 c 0 4.906 -3.832 8.879 -8.555 8.879 c -4.719 0 -8.551 -3.973 -8.551 -8.879 c 0 -4.902 3.832 -8.875 8.551 -8.875 c 4.723 0 8.555 3.973 8.555 8.875"/></clipPath></defs><path d="m 1.297 4.848 c -9.559 31.938 37.66 11.578 13.977 -2.711 c -4.355 -2.613 -11.742 -2.793 -13.977 2.711" fill="#382f68"/><path d="m 6.04 6.01 c -1.457 0 -2.641 1.363 -2.641 3.047 c 0 2.75 2.641 6.02 2.641 6.02 c 0 0 2.641 -3.438 2.641 -6.02 c 0 -1.684 -1.184 -3.047 -2.641 -3.047 m 0 1.527 c 0.672 0 1.219 0.629 1.219 1.406 c 0 0.777 -0.547 1.41 -1.219 1.41 c -0.672 0 -1.219 -0.633 -1.219 -1.41 c 0 -0.777 0.547 -1.406 1.219 -1.406" fill="#4581b3"/><path d="m 142.87 100.85 c 0 9.211 -7.448 16.626 -16.598 16.626 c -9.15 0 -16.598 -7.415 -16.598 -16.626 c 0 -9.165 7.448 -16.58 16.598 -16.58 c 9.15 0 16.598 7.415 16.598 16.58" transform="matrix(0.07343 0 0 0.08482 -3.291 0.388)" fill="none" stroke="#fff" stroke-width="7.931"/><g fill="#fff"><path d="m 3.93 16.14 l 5.781 -2.434 l 0.152 0.641 l -5.781 2.438"/><path d="m 9.957 16.793 l -5.781 -2.434 l -0.152 0.641 l 5.781 2.438"/></g><g clip-path="url(#0)"><g clip-path="url(#1)"><path d="m 13.789 7.594 c 0 0.316 -0.25 0.578 -0.559 0.578 c -0.309 0 -0.559 -0.262 -0.559 -0.578 c 0 -0.32 0.25 -0.582 0.559 -0.582 c 0.309 0 0.559 0.262 0.559 0.582" fill="#f9f9f9"/></g></g><g clip-path="url(#2)"><g clip-path="url(#1)"><path d="m 14.531 6.441 c -0.371 0 -0.723 0.035 -1.031 0.09 c -0.91 0.164 -1.074 0.512 -1.074 1.148 v 0.844 h 2.152 v 0.281 h -2.961 c -0.629 0 -1.176 0.383 -1.348 1.117 c -0.195 0.844 -0.207 1.367 0 2.246 c 0.152 0.652 0.52 1.121 1.145 1.121 h 0.633 v -1.121 c 0 -0.727 0.617 -1.367 1.348 -1.367 h 2.254 c 0.598 0 1.164 -0.504 1.164 -1.121 v -1.996 c 0 -0.598 -0.578 -1.051 -1.164 -1.148 c -0.371 -0.063 -0.754 -0.094 -1.121 -0.09 m -1.164 0.672 c 0.223 0 0.406 0.191 0.406 0.422 c 0 0.234 -0.184 0.422 -0.406 0.422 c -0.223 0 -0.402 -0.188 -0.402 -0.422 c 0 -0.23 0.18 -0.422 0.402 -0.422" fill="#4586b9"/></g></g><g clip-path="url(#3)"><g clip-path="url(#1)"><path d="m 16.395 14.539 c 0 0.32 -0.25 0.578 -0.559 0.578 c -0.309 0 -0.559 -0.258 -0.559 -0.578 c 0 -0.32 0.25 -0.578 0.559 -0.578 c 0.309 0 0.559 0.258 0.559 0.578" fill="#f9f9f9"/></g></g><g clip-path="url(#4)"><g clip-path="url(#1)"><path d="m 17.12 8.801 v 0.984 c 0 0.758 -0.629 1.309 -1.348 1.309 h -2.359 c -0.59 0 -1.078 0.609 -1.078 1.215 v 2.105 c 0 0.598 0.508 0.949 1.078 1.121 c 0.68 0.203 1.422 0.242 2.238 0 c 0.539 -0.164 1.074 -0.488 1.074 -1.121 v -0.844 h -2.148 v -0.281 h 3.227 c 0.625 0 0.859 -0.449 1.078 -1.121 c 0.227 -0.691 0.215 -1.359 0 -2.242 c -0.156 -0.641 -0.449 -1.121 -1.078 -1.121 m -2.02 5.328 c 0.223 0 0.402 0.188 0.402 0.418 c 0 0.234 -0.18 0.426 -0.402 0.426 c -0.227 0 -0.406 -0.191 -0.406 -0.426 c 0 -0.23 0.18 -0.418 0.406 -0.418" fill="#ffe534"/></g></g></svg>