<svg xmlns="http://www.w3.org/2000/svg" viewBox="0 0 22 22"><path d="m 3.891 18.254 c -11.08 -8.977 5.141 -25.18 14.945 -14.832 c 9.824 8.91 -5.508 26.2 -14.945 14.832" fill="#010101"/><g fill="#868686" stroke="#868686" transform="scale(0.08594)"><path d="m 108.68 204.36 c -21.864 -7.091 -39.636 -22.318 -49.818 -42.636 c -5.636 -11.227 -6.864 -17.05 -6.909 -32.636 c 0 -19.09 2.955 -30.09 11.682 -43.545 c 9.09 -13.909 21 -24 35.455 -30.05 c 8.955 -3.727 16.14 -4.818 31.09 -4.818 c 14.682 0 22.09 1.455 32.591 6.409 c 31.818 14.909 46.545 38.27 46.545 73.864 c 0 13.5 -0.636 16.864 -5.273 27.545 c -8.136 18.727 -25.864 35.864 -44.545 43.18 c -4.455 1.727 -18.455 4.5 -19.09 3.773 c -0.136 -0.182 -0.409 -10.773 -0.591 -23.545 l -0.318 -23.318 l 8.136 -3.455 c 31.682 -13.545 44.818 -41.591 31.864 -67.909 c -6.136 -12.409 -18.545 -22.5 -32.545 -26.409 c -7.409 -2.045 -23.818 -1.636 -31.727 0.818 c -33.636 10.409 -45.955 49.545 -23.955 76.14 c 5.091 6.227 12.05 11.227 23.273 16.818 l 9.545 4.773 l -0.545 14.955 c -0.773 22.05 -1.682 28.591 -4.136 30.591 c -2.545 2.045 -2.727 2.045 -10.727 -0.545" stroke-width="0.09"/><path d="m 124.27 150.55 c -14.409 -2.864 -27.5 -16.227 -31 -31.682 c -1.682 -7.227 -1.227 -18.636 0.955 -25.18 c 9.182 -27.5 43.41 -35.36 66.09 -15.227 c 8.727 7.773 13.09 17.682 13.09 29.864 c 0 12.5 -3.773 21.682 -12.545 30.727 c -5.5 5.636 -12.455 9.318 -21 11.182 c -6.727 1.409 -9.591 1.5 -15.636 0.318" stroke-width="0.089"/></g></svg>