<svg xmlns="http://www.w3.org/2000/svg" viewBox="0 0 22 22"><path d="m 5.727 2.602 c 5.078 -5.03 9.77 -1.348 13.625 2.648 c 3.137 3.254 3.277 6.273 1.199 9.469 c -5.43 8.355 -12.48 11.453 -19.863 -1.504 c -1.82 -4.273 2.02 -8.246 5.04 -10.613" fill="#689686"/><g stroke="#000" stroke-width="1.553"><g transform="matrix(0.10519 0 0 0.10791 -46.919 -36.672)"><path d="m 548.85 505.54 l -31.05 -31.09 l -31.05 -31.06 h 31.05 v -46.587 h 62.13 v 46.587 h 31.05 l -31.05 31.06" fill="#007f00"/><path d="m 548.85 379.71 l -31.05 31.06 l -31.08 31.06 h 31.08 v 46.587 h 62.09 v -46.587 h 31.08 l -31.08 -31.06" fill="#7f0000"/></g><path d="m 32.933 60.48 v 4.271 h -31.05 l 31.05 31.06 l 31.08 31.06 l 62.09 -62.12 h -31.05 v -4.271" transform="matrix(0.10519 0 0 0.10791 4.083 4.188)" fill="#007f00"/></g></svg>