<svg xmlns="http://www.w3.org/2000/svg" viewBox="0 0 22 22"><path d="m 3.859 3.859 c 8.926 -10.926 25.04 5.07 14.746 14.738 c -8.859 9.688 -26.06 -5.434 -14.746 -14.738" fill="#618ec2"/><path d="m 8.152 5.852 c -0.418 0.293 -0.824 0.664 -1.203 1.125 c -3.785 3.062 -1.816 7.281 1.414 8.988 c 0.344 0.059 0.691 0.09 1.035 0.086 c 1.352 -0.023 2.691 -0.574 3.77 -1.918 c 1.105 -1.379 0.32 -3.313 -0.648 -3.867 c -0.777 -0.363 -1.465 0.234 -1.566 0.621 c 0.281 -0.129 1.188 -0.191 1.352 0.355 c 0.172 1.273 -0.668 2.23 -1.855 2.359 c -2 0.219 -3.566 -1.766 -3.727 -3.641 c -0.125 -1.48 0.461 -2.961 1.434 -4.109" fill="#fff"/><path d="m 12.844 6.344 c -1.254 0.016 -2.57 0.508 -3.547 1.797 c -0.781 1.035 -0.383 3.211 1.082 3.441 c -1.641 -0.582 -0.816 -3.309 1.625 -3.5 c 2.047 -0.16 3.688 2.238 3.836 4.01 c 0.082 0.969 -0.113 1.895 -0.48 2.719 c 2.586 -2.613 1.762 -5.988 -0.32 -8.03 c -0.707 -0.285 -1.453 -0.449 -2.195 -0.438" fill="#b7cce3"/></svg>