<svg xmlns="http://www.w3.org/2000/svg" viewBox="0 0 22 22"><path d="m 11.207 0.121 c -2.266 0.176 -4.922 1.258 -6.773 2.762 c -2.25 1.832 -3.898 4.641 -4.34 7.41 c -0.527 3.656 1.598 7.586 3.992 9.453 c 1.207 0.906 2.801 1.629 4.297 1.945 c 3.895 0.824 7.953 -0.734 10.738 -4.121 c 1.668 -2.031 2.535 -4.078 2.746 -6.496 c 0.25 -2.902 -0.898 -6.02 -2.992 -8.109 c -2.383 -1.977 -4.836 -3.047 -7.668 -2.848" fill="#ff8c00"/><path d="m 16.574 10.621 l -0.945 -1.949 l 0.414 -0.801 l 0.711 -0.109 l 0.824 0.539 l 0.164 0.91 l -0.477 0.637" fill="#f40"/><path d="m 15.629 8.672 l 0.945 1.949 l -0.422 1.113 l -3.559 3.465 l -1.508 0.004 l -0.535 -1.902 l 4.121 -4.41" fill="#f4b200"/><path d="m 14.848 13.152 l 0.004 2.477 l -0.418 0.766 l -8.219 0.504 l 0.457 -3.996 l 1.199 -1.383 l 1.918 -1.07 l 0.934 0.645 l 0.547 0.266 l 1.316 -0.43 l 0.551 0.215 l -2.586 2.156 l 0.535 1.902 l 1.727 0.594 l 1.254 -1.969" fill="#029d00"/><path d="m 6.336 12.434 c -0.164 -0.43 0.336 -5.867 0.336 -5.867 l 8.18 -0.082 l 0.047 2.367 l -1.801 1.711 l -0.512 0.367 l -1.316 0.43 l -0.547 -0.266 l -0.934 -0.645 l -1.094 0.43 l -2.023 2.023" fill="#8cd6ff"/><path d="m 6.07 16.926 l 0.043 -10.887 l 8.859 0.02 c 0 0 -0.004 0.391 -0.004 1 v 0.918 h -0.535 v -1.414 h -7.762 v 2.797 c 0 2.215 0.016 2.781 0.082 2.738 c 0.047 -0.031 0.527 -0.402 1.066 -0.828 c 1.141 -0.891 1.359 -1.01 1.863 -1 c 0.469 0.004 0.742 0.133 1.199 0.566 c 0.359 0.34 0.367 0.344 0.535 0.219 c 0.563 -0.414 0.754 -0.492 1.219 -0.492 h 0.461 l 1.355 -1.441 c 0.742 -0.789 1.449 -1.488 1.563 -1.551 c 0.277 -0.145 0.848 -0.145 1.133 0.008 c 0.34 0.18 0.813 0.781 0.902 1.152 c 0.082 0.344 0.043 0.82 -0.094 1.094 c -0.043 0.09 -1.219 1.473 -2.613 3.07 l -2.531 2.902 h -1.051 c -0.727 0 -1.074 -0.027 -1.129 -0.09 c -0.055 -0.059 -0.082 -0.445 -0.082 -1.246 v -1.16 l 0.469 -0.52 c 0.262 -0.285 0.465 -0.539 0.453 -0.563 c -0.008 -0.027 -0.297 -0.316 -0.641 -0.645 c -0.719 -0.695 -1.031 -0.836 -1.473 -0.668 c -0.141 0.055 -0.805 0.527 -1.473 1.047 l -1.215 0.949 v 3.492 h 7.762 v -1.789 h 0.535 v 1.102 c 0 0.758 0.004 1.207 0.004 1.207 m -0.391 -4 l 1.992 -2.289 l -0.652 -0.723 c -0.355 -0.402 -0.668 -0.727 -0.695 -0.727 c -0.023 0 -0.965 0.98 -2.09 2.176 l -2.047 2.18 v 0.836 l -0.004 0.84 l 0.754 -0.004 h 0.754 m -0.336 -3.719 c 0.207 -0.238 0.238 -0.301 0.137 -0.301 c -0.066 0 -0.258 0.09 -0.418 0.195 c -0.238 0.156 -0.281 0.211 -0.215 0.297 c 0.121 0.164 0.215 0.129 0.496 -0.191 m 5.01 -1.633 c 0.422 -0.523 0.387 -1.063 -0.105 -1.531 c -0.227 -0.219 -0.324 -0.262 -0.586 -0.262 c -0.273 0 -0.355 0.039 -0.629 0.309 l -0.316 0.309 l 0.656 0.734 c 0.359 0.402 0.676 0.734 0.699 0.734 c 0.023 0 0.148 -0.133 0.281 -0.293"/><path d="m 12.914 7.608 c 0 -1.674 -1.485 -3.03 -3.315 -3.03 c -1.83 0 -3.326 1.359 -3.326 3.03 c 0 1.674 1.496 3.03 3.326 3.03 c 1.83 0 3.315 -1.359 3.315 -3.03" transform="matrix(0.37349 0 0 0.39674 5.208 5.29)" fill="#fff400" stroke="#000" stroke-width="0.284"/></svg>