<svg xmlns="http://www.w3.org/2000/svg" viewBox="0 0 22 22"><path d="m 1.027 13.03 c 2.188 14.676 24.656 9.664 20.406 -4.539 c -2.852 -13.488 -25.848 -9.836 -20.406 4.539"/><path d="m 6.543 12.797 c -0.113 -0.176 -0.551 0.105 -0.527 -0.406 c 0 -0.168 -0.023 -0.176 -0.406 -0.176 c -0.227 0 -0.445 -0.039 -0.492 -0.086 c -0.145 -0.305 0.004 -0.828 -0.289 -0.891 c -0.254 -0.051 -0.285 -0.16 -0.285 -0.992 c 0 -0.68 0.063 -0.859 0.313 -0.902 c 0.117 -0.02 0.176 0.023 0.207 -0.313 c 0.02 -0.223 0.027 -0.547 0.055 -0.574 c 0.27 -0.125 0.828 -0.035 0.898 -0.316 c 0.035 -0.156 0.09 -0.188 0.477 -0.238 c 0.238 -0.035 0.629 -0.035 0.871 0 c 0.379 0.051 0.449 0.086 0.531 0.258 c 0.086 0.184 0.117 0.195 0.574 0.195 c 0.473 0 0.48 -0.004 0.504 -0.195 c 0.02 -0.176 0.059 -0.203 0.371 -0.254 c 0.195 -0.031 0.582 -0.035 0.863 -0.012 c 0.625 -0.051 0.582 0.457 1.031 0.461 c 0.305 0 0.496 0.051 0.492 0.352 c -0.004 0.246 0.191 0.109 0.297 0.164 c 0.258 0.125 0.301 0.414 0.246 1.719 c -0.094 0.43 0.215 1.055 -0.234 1.055 c -0.371 -0.047 -0.414 0.016 -0.414 0.398 c -0.063 0.383 -0.859 -0.043 -0.816 0.426 c -0.051 0.215 -0.191 0.242 -1.129 0.246 c -0.73 0 -0.879 -0.004 -0.879 0.121 c 0 0.313 0.02 0.379 -0.402 0.379 c -0.469 0 -0.492 -0.027 -0.492 -0.617 v -0.391 c -0.152 0.012 -0.301 0.027 -0.453 0.043 l -0.023 0.484 l -0.02 0.48 h -0.457 c -0.441 0 -0.473 -0.109 -0.41 -0.418 m 1.809 -0.961 c 0.102 -0.074 0.121 -0.18 0.102 -0.59 l -0.02 -0.496 h -0.242 c -0.277 0 -0.336 0.117 -0.348 0.691 c -0.004 0.25 0.023 0.355 0.117 0.41 c 0.164 0.098 0.246 0.094 0.391 -0.016 m -0.977 -0.023 c 0.082 -0.031 0.113 -0.141 0.113 -0.422 c 0 -0.527 -0.043 -0.605 -0.324 -0.605 h -0.238 c 0.016 0.336 -0.035 0.703 0.047 1.023 c 0.059 0.059 0.258 0.063 0.402 0.004" fill="#ff8c00"/><path d="m 14.02 15.13 c 0.031 -0.586 -1.254 0.055 -1.238 -0.555 c -0.016 -0.332 0.113 -0.387 -0.207 -0.441 c -0.086 -0.012 -0.164 -0.109 -0.203 -0.25 c -0.047 -0.172 -0.352 -0.121 -0.488 -0.137 c -0.059 -0.762 -0.188 -1.313 0.109 -1.316 c 0.465 0.016 0.285 -0.652 0.633 -0.699 l 0.191 -0.023 v -1.227 c 0 -0.676 0.02 -1.297 0.043 -1.383 c 0.031 -0.117 0.168 -0.16 0.477 -0.18 c 0.355 -0.02 0.344 0.109 0.391 -0.348 c 0.023 -0.219 0.25 -0.246 1.176 -0.176 c 0.609 0.047 0.723 -0.078 0.734 0.238 c 0.02 0.41 0.156 0.258 0.508 0.262 c 0.508 0.004 0.422 0.098 0.457 0.25 c 0.195 0.129 0.707 0.73 0.754 0.746 c 0.457 0.121 0.109 0.859 0.512 0.969 c 0.363 0.051 0.18 0.266 0.18 1.164 l 0.012 1.125 h -0.406 c 0 0.355 0 0.715 0 1.07 c -0.199 0 -0.402 0 -0.602 0 l 0.027 0.43 c 0.035 0.477 0.051 0.527 -0.496 0.535 c -0.656 0.012 -0.258 0.578 -0.551 0.582 c -0.926 0.008 -1.266 0.176 -1.246 -0.258 c -0.055 -0.527 -0.555 -0.066 -0.766 -0.379" fill="#3646af"/><path d="m 11.418 17.57 c -0.188 -0.043 -0.152 -0.066 -0.168 -0.371 c -0.035 -0.559 0.043 -0.555 0.273 -0.555 c 0.051 -0.008 -0.02 -0.453 0.246 -0.461 c 0.441 -0.016 0.453 -0.141 0.441 -0.277 c 0.059 -0.238 0.23 -0.246 0.887 -0.227 c 0.582 0.02 0.555 0.063 0.617 0.254 c -0.047 0.398 0.527 0.082 0.434 0.465 c 0.012 0.332 0.176 0.207 1.277 0.289 c 0.578 0.039 0.617 -0.066 0.617 0.203 c 0 0.285 0.059 0.242 -0.371 0.285 c -0.262 0.023 -0.836 -0.031 -1.148 -0.031 c -0.664 0.004 -0.797 0.039 -0.797 0.223 c 0 0.07 -0.059 0.164 -0.137 0.207 c -0.145 0.078 -1.824 0.07 -2.172 -0.004" fill="#9b93db"/><path d="m 10.207 18.801 c -0.133 -0.531 -1.672 0.273 -1.59 -0.535 c 0.012 -0.215 -0.051 -0.242 -0.781 -0.246 c -0.691 0 -0.695 -0.07 -0.738 -0.297 c -0.082 -0.422 0.004 -0.57 0.145 -0.613 c 0.672 0.047 0.434 -0.184 0.445 -0.613 c 0.105 -0.07 1.535 -0.078 2.078 -0.012 c 0.539 0.027 0.398 0.125 0.441 0.637 c 0.066 0.836 0.004 0.699 0.219 0.754 c 0.105 0.027 0.426 -0.039 0.426 0.348 c 0 0.207 0.383 0.219 1.359 0.215 c 0.457 0.063 0.277 0.414 0.277 0.789 l -0.891 0.035 c -1.254 0.051 -1.391 0.039 -1.391 -0.461" fill="#6262c7"/><path d="m 7.363 15.04 c -0.063 -0.316 -0.113 -0.484 -0.332 -0.59 c -0.527 -0.113 -0.473 -0.84 0.281 -0.734 c 0.406 0.059 0.426 0.012 0.543 0.367 c 0.141 0.441 0.324 0.441 0.512 -0.008 c 0.117 -0.273 0.176 -0.313 0.539 -0.34 c 0.402 -0.027 0.41 -0.023 0.527 0.336 c 0.035 0.48 0.52 0.09 0.508 0.664 c 0 0.277 -0.023 0.391 -0.395 0.367 c -0.41 -0.023 -0.629 -0.035 -0.629 -0.309 c 0 -0.207 -0.191 -0.355 -0.379 -0.293 c -0.395 0.406 -0.039 0.508 -0.586 0.605 c -0.27 0.043 -0.52 0.023 -0.59 -0.066" fill="#9b93db"/><g fill="#ff8c00"><path d="m 8.715 6.281 c 0.289 0 0.352 -0.113 0.352 -0.66 c 0 -0.453 0.059 -0.496 0.664 -0.496 c 0.547 -0.031 0.398 0.035 0.371 0.535 c -0.027 0.527 -0.035 0.539 -0.266 0.539 c -0.23 0 -0.238 0.012 -0.297 0.578 l -0.059 0.578 c -0.301 0 -0.602 0 -0.902 0 c -0.051 -0.379 -0.234 -1.066 0.137 -1.074"/><path d="m 9.941 4.891 c 0 -0.367 0.008 -0.379 0.219 -0.422 c 0.457 0.004 0.676 0.008 0.703 -0.242 l 0.023 -0.195 l 0.926 -0.02 l 0.922 -0.02 l 0.023 0.195 c 0.023 0.191 0.047 0.203 0.496 0.262 l 0.473 0.063 v 0.387 c 0 0.449 -0.055 0.496 -0.523 0.422 c -0.246 -0.035 -0.32 -0.078 -0.332 -0.199 c -0.027 -0.363 -0.223 -0.254 -1.184 -0.262 l -0.816 -0.008 l -0.063 0.234 c -0.063 0.215 -0.09 0.23 -0.379 0.246 c -0.695 0.063 -0.488 -0.117 -0.488 -0.441"/><path d="m 7.02 7.02 c -0.074 -0.543 -0.141 -0.695 -0.309 -0.719 c -0.094 -0.016 -0.172 -0.094 -0.199 -0.195 c -0.047 -0.188 -0.105 -0.211 -0.613 -0.281 l -0.336 -0.047 c -0.047 -0.246 -0.078 -0.906 -0.328 -0.922 c -0.055 0 -0.141 -0.086 -0.191 -0.191 c -0.105 -0.219 -0.293 -0.289 -0.809 -0.305 l -0.473 0.008 l -0.047 -0.922 l 1.16 -0.027 l 0.023 0.25 c 0.023 0.246 0.027 0.25 0.43 0.297 c 0.598 0.066 0.586 0.051 0.586 0.523 c -0.105 0.695 0.398 0.23 0.473 0.59 c 0.043 0.211 0.055 0.352 0.461 0.352 c 0.254 0 0.438 0.031 0.469 0.086 c 0.035 0.051 0.074 0.27 0.094 0.484 c 0.035 0.363 0.051 0.395 0.234 0.414 c 0.191 0.023 0.195 0.035 0.195 0.484 v 0.461 c -0.258 0 -0.516 0 -0.777 0"/><path d="m 13.172 13.691 c -0.016 -0.199 -0.031 -0.215 -0.238 -0.23 l -0.223 -0.016 v -0.906 h 0.238 c 0.234 0 0.234 0 0.234 -0.227 v -0.227 h 0.941 v 0.227 c 0 0.227 0 0.227 0.234 0.227 h 0.238 v 0.91 h -0.238 c -0.234 0 -0.234 0 -0.234 0.23 v 0.227 h -0.934"/><path d="m 13.973 10.477 c -0.016 -0.191 -0.027 -0.203 -0.219 -0.219 l -0.203 -0.016 v -0.852 h 0.219 c 0.215 0 0.215 0 0.215 -0.219 v -0.215 h 0.859 v 0.215 c 0 0.219 0 0.219 0.215 0.219 h 0.215 v 0.859 h -0.215 c -0.215 0 -0.215 0 -0.215 0.215 v 0.215 h -0.855"/><path d="m 15.633 12.836 c -0.016 -0.188 -0.027 -0.199 -0.207 -0.219 l -0.188 -0.016 v -0.852 h 0.203 c 0.203 0 0.203 0 0.203 -0.215 v -0.215 h 0.809 v 0.215 c 0 0.215 0 0.215 0.203 0.215 h 0.203 v 0.859 h -0.203 c -0.203 0 -0.203 0 -0.203 0.215 v 0.215 h -0.805"/><path d="m 16.06 14.434 h 1.242 v 0.766 h -1.242"/><path d="m 16.797 9.1 l 0.805 0.73 l -0.492 0.559 l -0.805 -0.73"/><path d="m 18.273 11.488 v 1.23 h -0.652 v -1.23"/></g><g fill="#d6cff3"><path d="m 7.914 12.984 h 0.914 v 0.5 h -0.914"/><path d="m 6.504 12.973 h 0.914 v 0.5 h -0.914"/></g></svg>