<svg xmlns="http://www.w3.org/2000/svg" viewBox="0 0 22 22"><path d="m 1.012 16.262 c 4.332 10.285 21.1 5.699 20.988 -5.504 c 0.164 -10.184 -13.164 -14.04 -19.01 -6.789 c -2.922 3.137 -3.945 8.332 -1.98 12.297" fill="#e78e8e"/><path d="m 5.379 15.672 c -0.258 -0.016 -0.395 -0.047 -0.414 -0.102 c -0.035 -0.102 0.117 -1.301 0.27 -2.121 c 0.133 -0.715 0.258 -1.043 0.48 -1.262 c 0.305 -0.305 0.559 -0.355 2.01 -0.402 c 1.117 -0.035 1.363 -0.059 1.484 -0.145 c 0.188 -0.129 0.188 -0.25 0 -0.383 c -0.129 -0.09 -0.355 -0.109 -1.516 -0.137 c -1.301 -0.035 -1.375 -0.043 -1.578 -0.176 c -0.117 -0.078 -0.242 -0.199 -0.273 -0.266 c -0.121 -0.238 -0.063 -0.855 0.262 -2.891 c 0.176 -1.09 0.227 -1.328 0.309 -1.418 c 0.086 -0.09 3.16 -0.129 3.605 -0.043 c 0.289 0.059 0.359 0.102 0.594 0.371 c 0.172 0.195 0.281 0.383 0.305 0.523 c 0.027 0.137 -0.027 0.684 -0.148 1.496 c -0.102 0.703 -0.188 1.449 -0.191 1.656 c -0.004 0.355 0.008 0.387 0.199 0.594 c 0.262 0.277 0.441 0.305 2.625 0.359 c 1.938 0.047 2.148 0.078 2.371 0.34 c 0.188 0.223 0.199 -0.004 -0.113 2.391 l -0.207 1.582 l -2.043 0.043 c -0.887 0.031 -1.898 0.145 -2.309 -0.258 c -0.324 -0.363 -0.328 -0.402 -0.16 -1.563 c 0.195 -1.344 0.148 -1.598 -0.293 -1.598 c -0.344 0 -0.391 0.109 -0.691 1.621 c -0.223 1.117 -0.309 1.352 -0.582 1.574 c -0.168 0.137 -0.277 0.164 -0.773 0.203 c -0.563 0.047 -2.461 0.051 -3.223 0.008 m 6.484 -5.07 c -0.293 -0.133 -0.324 -0.309 -0.219 -1.148 c 0.129 -0.988 0.305 -1.887 0.426 -2.188 c 0.152 -0.371 0.543 -0.738 0.91 -0.859 c 0.266 -0.086 0.574 -0.102 2.102 -0.102 c 0.988 0 1.813 0.02 1.836 0.043 c 0.02 0.023 0 0.199 -0.051 0.395 c -0.047 0.191 -0.191 0.938 -0.316 1.656 c -0.316 1.816 -0.43 2.051 -1.063 2.211 c -0.477 0.117 -3.367 0.113 -3.625 -0.008" fill="#cd0000"/></svg>