<svg xmlns="http://www.w3.org/2000/svg" viewBox="0 0 22 22"><path d="m 0.711 14.07 c -4.105 -11.395 10.656 -16.938 16.203 -12.297 c 5.543 4.637 7.438 12.59 1.156 16.59 c -6.281 4 -13.25 7.105 -17.359 -4.293" fill="#716886"/><g fill="#443d4f" stroke="#443d4f" transform="matrix(0.0844 -0.00301 0.00299 0.08392 0.199 -0.308)"><g stroke-width="0.197"><path d="m 156.36 174.33 c -0.358 -0.339 -0.646 -3.98 -0.639 -8.08 c 0.006 -6.702 0.221 -7.532 1.903 -7.984 c 1.028 -0.289 2.134 -1.459 2.455 -2.658 c 0.647 -2.583 3.315 -3.419 8.193 -2.639 l 3.59 0.548 l -0.288 8.135 c -0.275 7.763 -0.381 8.132 -2.52 8.427 c -1.21 0.189 -2.4 1.124 -2.664 2.046 c -0.639 2.351 -8.196 4.03 -10.03 2.2"/><path d="m 104.03 172.64 c -0.601 -1.325 -1.674 -2.387 -2.415 -2.367 c -2.082 -0.028 -2.636 -2.655 -1.925 -9.657 c 0.714 -7.096 1.48 -7.813 8.03 -7.159 c 2.537 0.231 3.259 0.768 3.523 2.454 c 0.142 1.215 1.024 2.457 1.892 2.767 c 2.557 0.976 2.929 2.246 2.951 9.461 l 0.035 6.843 l -5.507 -0.011 c -4.952 0.009 -5.637 -0.249 -6.582 -2.331"/><path d="m 117.07 197.64 c 0.006 -4.096 0.26 -4.738 1.88 -4.727 c 1.619 0.012 1.875 0.626 1.869 4.722 c -0.006 4.096 -0.259 4.692 -1.88 4.727 c -1.619 -0.012 -1.874 -0.672 -1.869 -4.722"/></g><path d="m 150.47 202.05 c -0.72 -1.888 0.115 -3.254 2.365 -4.058 c 1.733 -0.589 2.405 -1.264 2.833 -2.877 c 0.479 -1.752 0.862 -2.11 2.527 -2.097 c 1.758 0.016 1.981 0.257 1.968 1.932 c 0.035 1.63 -0.3 1.944 -2.258 2.339 c -2.237 0.432 -3.057 1.38 -3.047 3.707 c -0.023 1.954 -3.709 2.799 -4.388 1.053" stroke-width="0.139"/></g><g transform="matrix(0.0844 -0.00301 0.00299 0.08392 -20.521 9.651)"><g fill="#e29eb2" stroke="#e29eb2"><path d="m 372.7 117.92 c -1.161 -1.205 -1.41 -3.309 -1.386 -11.826 l -0.004 -10.333 l 3.118 -0.493 c 5.119 -0.794 20.338 -0.574 22.11 0.281 c 1.454 0.75 1.651 1.735 1.64 8.577 c -0.011 4.235 -0.333 8.09 -0.628 8.588 c -0.34 0.453 -1.755 1.194 -3.159 1.655 c -1.824 0.54 -2.592 1.303 -2.786 2.879 l -0.261 2.132 l -8.653 -0.031 c -7.267 0.019 -8.832 -0.224 -9.992 -1.429" stroke-width="0.171"/><g stroke-width="0.261"><path d="m 421.39 -4.935 c -8.17 -8.438 -8.915 -9.629 -8.93 -14.423 c 0.008 -2.839 -0.565 -6.257 -1.258 -7.585 c -1.563 -2.895 -0.294 -8.668 1.881 -8.683 c 1.712 0.015 3.097 -3.799 3.128 -8.592 c 0.006 -2.793 0.335 -2.92 6.796 -2.409 c 11.07 0.956 11.849 2.566 11.906 25.794 c 0.004 16.85 -0.228 19.494 -2.311 22.12 l -2.326 2.942 m -11.744 -35.563 c -0.01 -1.024 0.287 -4.179 -0.73 -4.215 c -1.019 0.01 -5.347 1.996 -5.338 3.067 c 0.01 1.024 0.86 1.846 1.879 1.836 c 1.017 0.036 4.2 0.337 4.19 -0.688 m 3.911 -12.427 c -0.477 -0.901 -0.814 -1.844 -1.879 -1.836 c -1.017 -0.036 -1.581 2.829 -1.573 3.9 c 0.01 1.024 -0.015 3.02 1 3.01 c 1.065 -0.008 4.797 -0.852 2.448 -5.079"/><path d="m 327.18 2.346 c -2.12 -2.869 -6.131 -5.898 -6.15 -6.69 c 0 -2.607 -2.949 -8.205 -4.685 -7.522 c -6.742 -4.338 -2.111 -1.798 -7.257 -6.777 c -0.418 0.032 -0.738 -5.286 -0.74 -11.756 c 0.029 -11.263 0.14 -11.771 2.839 -12.186 c 1.766 -0.216 2.918 -1.385 3.164 -3.098 c 0.361 -2.361 0.972 -2.618 4.746 -2.02 c 4.786 0.777 11.757 6.472 11.739 9.59 c 1.156 2.648 4.02 2.704 5.086 5.349 c 0.675 1.839 3.183 5.513 5.59 8.113 c 4.542 5.05 5.486 9.739 2.484 12.191 c -0.956 0.85 -2.435 4.707 -3.174 8.59 c -2.251 11.276 -2.35 11.459 -6.238 11.459 c -2.73 -0.005 -4.446 -1.23 -7.404 -5.246 m -9.585 -37.72 c 0.116 -0.647 -3.376 -3.984 -4.57 -4.26 c -1.334 -0.234 -2.281 0.384 -2.187 1.644 c 0.895 9.993 6.31 4.788 6.757 2.616"/></g></g><path d="m 363.16 110.18 c -3.617 -3.714 -6.562 -8.101 -6.551 -9.73 c 0.011 -1.629 -0.978 -3.759 -2.191 -4.78 c -3.652 -2.737 -2.373 -10.09 -6.429 -11.867 c -2.949 -4.295 -4.151 -9.551 -7.535 -13.303 c -5.298 -3.308 -5.151 -11.356 -9.371 -15.04 c -2.617 -4.516 -4.25 -9.368 -7.596 -12.886 c -3.974 -4.099 -5.661 -7.418 -6.358 -12.563 c -0.558 -3.837 -1.915 -7.33 -3.056 -7.79 c -3.059 -1.18 -2.982 -28.17 0.072 -28.16 c 1.157 -0.005 2.537 -1.073 3.047 -2.404 c 1.273 -3.259 4.03 -1.299 4.02 2.89 c 0.023 4.562 10.07 13.673 14.394 13.04 c 2.605 -0.372 3.785 -2.331 5.647 -9.153 c 1.234 -4.796 2.827 -9.254 3.451 -9.884 c 2.352 -2.383 1.029 -9.458 -2.769 -14.575 l -3.931 -5.307 l 4.292 -0.963 c 2.379 -0.52 8.97 -1.075 14.619 -1.152 c 8.845 -0.148 10.388 -0.605 11.223 -3.275 c 1.452 -4.416 13.81 -4.439 16.15 0.02 c 1.303 2.421 3.224 3.048 8.916 3.066 c 5.599 0.015 7.704 0.695 9.193 3.076 c 1.095 1.761 3.594 3.061 5.768 3.093 c 3.472 -0.015 3.82 0.602 3.842 6.514 c 0.025 5.819 1.07 7.672 9.396 16.954 c 5.167 5.678 9.953 10.364 10.694 10.344 c 0.693 0.025 3.042 1.645 5.192 3.677 c 3.407 3.101 3.944 4.936 3.933 13.08 c -0.018 7.03 -0.519 9.43 -2.139 9.419 c -3.01 -0.015 -4.01 3.487 -4.01 13.959 c 0.687 9.334 -4.22 9.391 -5.222 16.755 c -0.883 6.624 -2.162 8.766 -9.455 16.05 c -4.846 4.853 -8.4 9.799 -8.42 11.66 c 0.03 1.77 -1.01 3.594 -2.274 4.108 c 2.589 6.609 -8.302 16.179 -8.482 19.943 c -0.003 1.396 -4.338 3.568 -7.577 3.545 c -4.163 -0.056 -1.974 -1.746 0.294 -3.061 c 2.08 -1.229 2.674 -3.628 2.69 -10.609 l -0.002 -9.08 l -5.03 -0.506 c -2.722 -0.237 -8.277 -0.204 -12.313 0.071 l -7.285 0.53 l -0.006 10.612 c 0.024 5.866 -0.514 10.594 -1.161 10.571 c -0.647 -0.023 -4.101 -3.126 -7.67 -6.884 m 41.917 -19.21 c 0.523 -1.703 1.959 -3.048 3.163 -3.052 c 2.546 -0.002 3.97 -6.234 1.231 -6.01 c -1.855 0.12 -9.429 7.482 -9.731 9.472 c -0.637 3.608 4.139 3.36 5.337 -0.414 m -34.615 -3.987 c 0.014 -6.935 -3.614 -6.413 -4.327 0.636 c -0.36 3.618 0.151 4.893 1.909 4.909 c 1.76 -0.03 2.415 -1.543 2.418 -5.545 m -4.675 -28.7 c -0.062 -8.706 -2.936 -13.79 -8.575 -15.295 c -5.824 -1.512 -8.285 1.332 -8.296 9.477 c 0.009 6.284 0.687 8.03 4.063 10.712 c 2.252 1.756 6.04 3.196 8.449 3.189 c 4.304 0.015 4.404 -0.214 4.359 -8.08 m 50.19 4.685 c 4.175 -2.876 5.02 -4.521 5.671 -11.154 c 0.805 -8.349 -0.247 -10.02 -6.401 -10.05 c -6.154 -0.034 -10.928 6.683 -10.957 15.34 c 0.019 9.915 3.337 11.616 11.686 5.865" fill="#9d92be" stroke="#9d92be" stroke-width="0.322"/></g><path d="m 331.18 155.43 c -12.39 -12.189 -23.324 -22.252 -24.298 -22.259 c -0.971 0.048 -4.226 0.976 -7.197 2.165 c -28.978 11.414 -60.38 -5.609 -65.3 -35.407 c -4.92 -29.743 23.404 -56.722 54.12 -51.47 c 30.11 5.17 46.29 32.824 36.08 61.771 l -3.186 8.943 l 2.395 2.519 c 1.314 1.418 9.65 9.248 18.598 17.431 c 19.709 18.04 24.376 22.749 24.365 24.727 c -0.019 1.813 -8.05 11.158 -11.01 12.731 c -1.846 0.969 -4.894 -1.627 -24.568 -21.15 m -36.26 -35.567 c 14.991 -7.599 20.7 -24.683 13.202 -39.693 c -5.456 -10.881 -14.15 -16.06 -27.462 -16.17 c -9.471 -0.085 -16.517 2.951 -22.833 9.85 c -5.549 5.983 -7.402 11.236 -7.382 20.461 c 0.064 12.353 7.768 22.739 20.16 27.18 c 7.708 2.753 16.929 2.136 24.318 -1.631" transform="matrix(-0.00348 0.07221 -0.07113 -0.00354 22.03 -7.227)" fill="#fff" stroke="#ff4500" stroke-width="0.226"/></svg>