<svg xmlns="http://www.w3.org/2000/svg" viewBox="0 0 22 22"><path d="m 0.711 7.977 c -4.105 11.465 10.656 17.04 16.203 12.371 c 5.543 -4.668 7.438 -12.664 1.156 -16.691 c -6.281 -4.02 -13.25 -7.145 -17.359 4.32" fill="#464600"/><path d="m 186.08 243.05 c 1.629 -11.215 1.629 -11.215 -8.52 -21.866 c -10.9 -11.34 -12.03 -11.904 -22.05 -10.651 c -11.03 1.316 -14.659 0.063 -14.659 -5.2 c 0 -5.451 -1.253 -17.48 1.691 -21.18 c 2.381 -3.07 7.02 -0.501 14.534 0.125 l 7.768 0.689 c 5.951 -5.138 12.03 -10.338 17.228 -16.16 l 4.761 -5.514 c -0.376 -7.581 -3.446 -14.41 -3.821 -21.18 c -0.313 -6.516 22.18 -4.26 26.562 -3.258 l 3.571 0.752 l -0.564 11.904 l -0.626 11.842 c 6.202 6.265 11.777 13.596 18.982 18.733 c 4.51 3.133 4.761 3.133 12.592 1.942 c 4.385 -0.689 8.582 -1.253 9.209 -1.253 c 2 10.09 1.253 17.355 1.253 28.821 l -7.705 -0.877 c -10.963 -1.253 -12.592 -0.94 -17.478 2.945 c -5.951 4.699 -14.847 14.724 -16.16 18.232 c -0.689 1.817 -0.626 5.326 0.125 9.774 c 2.067 11.716 3.195 10.839 -13.406 10.839 h -14.659 m 28.504 -37.655 c 6.39 -6.203 12.529 -12.844 13.657 -14.724 l 2 -3.446 c -8.582 -10.902 -19.671 -20.989 -28.692 -28.821 l -3.508 2.068 c -4.761 2.757 -26.12 24.873 -26.12 27 c 0 3.822 25.497 29.26 29.26 29.26 c 1 0 7.02 -5.075 13.406 -11.34" transform="matrix(0.06235 0 0 0.06235 2.444 2.979)" fill="#610000" stroke="#610000" stroke-width="0.81"/><g transform="scale(0.08594 0.08594)"><g stroke-width="0.588"><path d="m 110.64 179.14 c -2.182 -2.318 -2.182 -2.364 -1.727 -12.409 c 0.227 -5.5 0.182 -11 -0.091 -12.182 c -0.636 -2.364 -16.545 -19.318 -24.09 -25.591 l -4.909 -4.091 l -11.409 0.273 c -11.09 0.273 -11.455 0.227 -13.545 -1.727 c -2.636 -2.455 -2.682 -5 -0.182 -7.364 c 1.773 -1.682 2.727 -1.818 14.227 -1.818 h 12.273 l 14.09 -14.05 l 14.09 -14.09 l -0.455 -11.955 c -0.455 -11.5 -0.364 -12.05 1.318 -13.591 c 2.909 -2.591 3.682 -2.773 6.273 -1.455 c 3.227 1.682 3.545 3.045 3.364 14.409 c -0.091 5.318 -0.136 10.318 -0.091 11.09 c 0.136 1.818 10.636 13.318 20.682 22.591 l 7.636 7.05 h 12 c 10.909 0 12.136 0.182 13.682 1.682 c 2.318 2.364 2.136 6.091 -0.409 7.773 c -1.636 1.091 -4.364 1.364 -13.818 1.364 h -11.773 l -13.182 13.05 c -7.273 7.182 -13.591 13.773 -14.09 14.682 c -0.545 1.045 -0.818 5.682 -0.727 12.182 c 0.227 12 -0.682 14.909 -4.909 16 c -1.591 0.409 -2.545 -0.045 -4.227 -1.818" fill="#fcfc00" stroke="#fcfc00"/><path d="m 169.04 194.77 c -4.364 -3.5 -13.818 -13.318 -15.14 -15.773 c 1.773 -8.227 12.727 -15.909 19.09 -21.727 l 2.227 1.591 c 1.227 0.909 5.909 5.364 10.364 10 c 6.318 6.5 7.955 8.636 7.409 9.682 c -1.091 1.909 -14.773 15.727 -17.545 17.727 l -2.364 1.682 c -1.364 -1.045 -2.682 -2.136 -4.045 -3.182" fill="#f00" stroke="#f00"/></g><g fill="#030300" stroke="#030300" stroke-width="0.51"><path d="m 36.909 138.86 c -2.273 -2.409 -2.091 -5.364 0.409 -6.318 c 1.091 -0.409 3 -0.545 4.318 -0.318 c 2.091 0.409 2.318 0.682 2.318 2.955 c 0 1.409 -0.318 3.182 -0.727 3.955 c -1.045 1.909 -4.364 1.773 -6.318 -0.273"/><path d="m 36.18 106.55 c -2.318 -2.318 0.818 -7.773 4.5 -7.773 c 2.227 0 3.273 1.864 3.273 5.727 c 0.318 3.409 -0.318 2.909 -3.455 2.909 c -1.864 0 -3.818 -0.364 -4.318 -0.864"/><path d="m 70.999 95 c -2.864 -2.136 0.864 -7.955 4.864 -7.591 c 2.273 0.227 2.273 0.273 2.273 4.182 c 0.136 3.545 0.545 3.909 -2.864 4.182 c -1.636 0.136 -3.455 -0.227 -4.273 -0.773"/><path d="m 84.09 83.86 c -2.545 -0.364 -3.136 -2.455 -1.5 -5.227 c 1.318 -2.227 3.364 -3.227 5.727 -2.773 c 2.136 4.409 3.364 7.273 -1.318 8.05 c -0.5 0.136 -1.818 0.136 -2.909 -0.045"/><path d="m 93.59 47.681 c -1 -1.909 0.409 -4.955 3.091 -6.409 c 2.955 -1.682 4.409 -0.409 4.682 4.182 c 0.5 3.909 0.318 3.682 -3.364 3.682 c -2.909 0 -3.773 -0.273 -4.409 -1.455"/><path d="m 126.86 45.5 c 0.273 -4.545 1.5 -5.682 4.727 -4.318 c 1.273 0.5 2.545 1.818 3.091 3.091 c 1.364 3.227 0.227 4.455 -4.318 4.727 c -4 0.5 -3.727 0.273 -3.5 -3.5"/><path d="m 139.14 83.91 c -0.955 -0.364 -1.273 -5 -0.5 -7 c 0.318 -0.727 1.318 -1.136 2.864 -1.136 c 4.545 0 7.409 6.455 3.5 7.909 c -1.955 0.773 -4.364 0.864 -5.864 0.227"/><path d="m 150.23 95.41 c -0.773 -0.727 -0.591 -5.182 0.227 -6.727 c 1.045 -1.955 4.409 -1.818 6.364 0.273 c 1.955 2.091 2.045 5.227 0.136 6.227 c -1.545 0.818 -6 1 -6.727 0.227"/></g></g><g fill="#030300" stroke="#030300"><g transform="matrix(0.06235 0 0 0.06235 2.444 2.979)"><path d="m 215.97 93.56 c 0.251 -5.138 0.501 -5.701 2.631 -6.01 c 4.197 -0.564 9.02 3.571 9.02 7.769 c 0 2.193 -3.383 3.947 -7.517 3.947 c -5.388 0.564 -4.385 -0.814 -4.135 -5.701" stroke-width="0.703"/><path d="m 229.56 166.49 c -2.193 -2 -1.942 -6.391 0.439 -8.584 c 2.631 -2.443 3.446 -2.381 7.517 0.564 c 5.575 4.01 3.821 9.461 -3.07 9.461 c -1.817 0 -4.072 -0.689 -4.886 -1.441" stroke-width="0.88"/></g><g stroke-width="0.51" transform="scale(0.08594 0.08594)"><path d="m 151.73 152.18 c -3.727 -4.455 -1.545 -7.682 2.318 -7.727 c 3.818 0 3.955 0.091 4.182 2.091 c 0.364 3.273 -3.182 6.364 -6.5 5.636"/><path d="m 139.36 163.14 c -2.318 -4.318 -0.955 -7.546 2.727 -7.5 c 4 0 4.773 0.545 4.773 3.591 c 0 1.455 -3.864 5.05 -5.409 5.05 c -0.545 0 -1.5 -0.545 -2.091 -1.136"/></g><g transform="matrix(0.06235 0 0 0.06235 2.444 2.979)"><path d="m 159.84 235.66 c -2.568 -3.822 -2.318 -5.576 1.065 -7.894 c 3.696 -2.569 7.58 -1.378 8.52 2.506 c 1.691 7.02 -5.701 11.215 -9.585 5.388" stroke-width="0.867"/><path d="m 92.93 224.13 c -2.193 -1.441 -3.07 -2.945 -3.07 -5.326 c 0 -3.697 1.441 -4.448 8.332 -4.448 c 5.763 -0.501 4.636 1 4.636 5.326 c 0 3.947 -0.501 5.451 -1.879 5.889 c -3.07 1 -4.761 0.752 -8.02 -1.441" stroke-width="0.764"/></g><g stroke-width="0.51" transform="scale(0.08594 0.08594)"><path d="m 84.954 163.32 c -2.455 -1.227 -3.864 -4.318 -2.864 -6.227 c 0.636 -1.182 1.5 -1.455 4.364 -1.455 c 3.818 -0.273 3.545 0 3.545 3.545 c 0 2.818 -0.273 3.773 -1.364 4.318 c -1.727 0.909 -1.455 0.955 -3.682 -0.182"/><path d="m 71.908 150.82 c -1.5 -1.682 -2.182 -4.045 -1.636 -5.5 c 0.364 -0.909 1.409 -1.182 4.409 -1.182 c 4.136 -0.273 3.909 -0.136 3.682 3.773 c -0.227 3.727 -0.227 3.773 -2.773 4 c -1.773 0.136 -2.909 -0.227 -3.682 -1.091"/></g><g transform="matrix(0.06235 0 0 0.06235 2.444 2.979)"><path d="m 231.56 235.85 c -0.814 -0.877 -1.441 -3.258 -1.441 -5.263 c 0 -5.2 4.573 -7.518 8.833 -4.448 c 3.508 2.506 3.759 4.323 1.19 8.333 c -2 3.195 -6.327 3.822 -8.582 1.378" stroke-width="0.882"/><path d="m 218.28 139.99 c -2.193 -0.689 -2.067 -7.02 0.188 -9.711 c 2.694 -3.133 9.146 -2.443 10.09 1.128 c 0.626 2.318 -1.566 7.769 -3.571 8.646 c -1.503 0.689 -4.323 0.689 -6.703 -0.063" stroke-width="0.677"/><path d="m 137.72 227.7 c -2.506 -0.689 -2.318 -6.704 0.251 -9.273 c 3.01 -3.01 10.337 -2.381 11.402 1.065 c 0.689 2.193 -1.817 7.393 -4.01 8.27 c -1.754 0.627 -4.949 0.627 -7.643 -0.063" stroke-width="0.703"/></g></g></svg>