<svg xmlns="http://www.w3.org/2000/svg" viewBox="0 0 22 22"><path d="m 16.836 19.641 c -8.08 7.172 -20.516 -4.137 -15.488 -13.602 c 5.082 -9.57 21.906 -7.02 20.473 4.73 c -0.426 3.5 -2.348 6.535 -4.984 8.875" fill="#b5c5d1"/><path d="m 5.844 16.184 c -0.852 -0.234 -1.082 -0.93 -0.664 -2 c 0.16 -0.414 0.266 -1.148 0.387 -2.723 c 0.211 -2.742 0.211 -3.785 0 -4.297 c -0.484 -1.172 0.16 -1.875 1.719 -1.883 c 1.41 -0.008 1.832 0.406 2.828 2.766 c 1.047 2.477 1.191 2.48 2.137 0.063 c 0.914 -2.332 1.398 -2.832 2.746 -2.824 c 0.77 0.004 1.324 0.266 1.59 0.746 c 0.145 0.258 0.145 0.363 0.008 0.832 c -0.246 0.844 -0.258 1.77 -0.059 4.203 c 0.141 1.73 0.25 2.465 0.461 3.133 c 0.242 0.754 0.262 0.926 0.148 1.27 c -0.18 0.559 -0.621 0.762 -1.773 0.82 c -1.469 0.074 -2.027 -0.176 -2.617 -1.164 c -0.121 -0.199 -0.16 -0.184 -0.609 0.25 c -0.605 0.578 -0.863 0.711 -1.371 0.711 c -0.461 0 -0.738 -0.125 -1.25 -0.574 c -0.355 -0.313 -0.688 -0.418 -0.688 -0.223 c 0 0.055 -0.156 0.254 -0.344 0.438 c -0.531 0.527 -1.68 0.727 -2.648 0.457 m 5.613 -1.777 c 0.25 -0.523 0.547 -1.23 0.652 -1.57 c 0.277 -0.871 1.367 -3.383 1.551 -3.574 c 0.133 -0.141 0.16 -0.141 0.203 0 c 0.238 0.734 0.609 5.43 0.445 5.59 c -0.055 0.055 -0.273 0.141 -0.488 0.195 c -0.211 0.059 -0.371 0.148 -0.348 0.207 c 0.047 0.137 3.27 0.094 3.316 -0.043 c 0.02 -0.059 -0.188 -0.16 -0.453 -0.227 l -0.488 -0.125 l -0.121 -1.262 c -0.066 -0.695 -0.207 -2.461 -0.309 -3.926 c -0.203 -2.918 -0.191 -2.996 0.414 -2.996 c 0.191 0 0.352 -0.074 0.391 -0.176 c 0.133 -0.352 -0.129 -0.422 -1.203 -0.316 l -1.027 0.098 l -0.645 1.68 c -0.352 0.926 -0.793 2.086 -0.98 2.578 c -0.648 1.727 -0.805 2.078 -0.988 2.246 c -0.148 0.137 -0.207 0.141 -0.297 0.027 c -0.176 -0.23 -1.523 -3.43 -2.574 -6.113 c -0.078 -0.199 -0.195 -0.398 -0.254 -0.434 c -0.059 -0.039 -0.602 -0.09 -1.207 -0.113 c -0.918 -0.035 -1.109 -0.016 -1.164 0.133 c -0.09 0.234 -0.008 0.301 0.484 0.383 l 0.418 0.07 l -0.023 1.285 c -0.012 0.707 -0.078 2.117 -0.148 3.133 c -0.07 1.016 -0.152 2.227 -0.184 2.688 c -0.063 0.945 -0.227 1.234 -0.715 1.234 c -0.172 0 -0.313 0.039 -0.313 0.082 c 0 0.047 0.621 0.09 1.383 0.09 c 0.762 0.004 1.387 -0.031 1.387 -0.082 c 0 -0.051 -0.141 -0.09 -0.316 -0.09 c -0.172 0 -0.402 -0.102 -0.512 -0.223 c -0.172 -0.191 -0.188 -0.316 -0.105 -0.867 c 0.051 -0.355 0.105 -1.051 0.117 -1.543 c 0.039 -1.629 0.199 -3.117 0.344 -3.164 c 0.16 -0.055 0.512 0.5 0.766 1.203 c 0.457 1.277 0.738 1.988 0.922 2.305 c 0.105 0.191 0.258 0.543 0.336 0.785 c 0.156 0.48 0.625 1.477 0.805 1.703 c 0.234 0.293 0.48 0.059 0.93 -0.871" fill="#050c17" fill-opacity="0.2"/><path d="m 10.641 15.324 c -0.047 -0.031 -0.164 -0.195 -0.258 -0.367 c -0.246 -0.465 -1.223 -2.75 -1.688 -3.953 c -0.59 -1.523 -0.965 -2.055 -1.105 -1.563 c -0.105 0.363 -0.387 3.953 -0.387 4.906 c 0 0.438 0.207 0.727 0.52 0.727 c 0.086 0 0.133 0.035 0.105 0.078 c -0.063 0.094 -1.867 0.105 -2.023 0.008 c -0.078 -0.047 -0.039 -0.078 0.141 -0.113 c 0.223 -0.043 0.27 -0.098 0.379 -0.461 c 0.145 -0.477 0.359 -3.477 0.438 -6.109 l 0.051 -1.777 l -0.379 -0.055 c -0.391 -0.055 -0.617 -0.211 -0.52 -0.355 c 0.059 -0.09 1.539 -0.113 2.055 -0.031 c 0.359 0.055 0.328 0 1.465 2.812 c 0.914 2.254 1.574 3.746 1.695 3.816 c 0.152 0.09 0.359 -0.125 0.57 -0.586 c 0.102 -0.223 0.66 -1.652 1.242 -3.176 c 0.582 -1.523 1.078 -2.785 1.098 -2.805 c 0.023 -0.023 0.516 -0.063 1.102 -0.09 l 1.059 -0.051 l -0.031 0.191 c -0.02 0.148 -0.102 0.203 -0.395 0.27 c -0.266 0.063 -0.387 0.137 -0.445 0.277 c -0.043 0.109 -0.055 0.66 -0.027 1.289 c 0.055 1.18 0.457 6.461 0.504 6.594 c 0.016 0.043 0.246 0.148 0.516 0.234 l 0.484 0.148 l -0.457 0.055 c -0.688 0.082 -2.645 0.082 -2.695 0 c -0.027 -0.039 0.125 -0.137 0.34 -0.211 l 0.387 -0.141 l -0.055 -1.379 c -0.066 -1.715 -0.27 -3.691 -0.438 -4.258 c -0.137 -0.461 -0.609 0.488 -1.945 3.902 c -0.621 1.582 -1.063 2.316 -1.301 2.172" fill="#00fffd" fill-opacity="0.996"/></svg>