<svg xmlns="http://www.w3.org/2000/svg" viewBox="0 0 22 22"><path d="m 4.609 19.945 c 16.465 10.996 26.605 -24.07 5.32 -19.426 c -8.797 1.977 -14.13 14.383 -5.32 19.426" fill="#b0c3de"/><path d="m 6.43 10.832 c -0.047 0.055 -0.066 0.117 -0.063 0.184 c 0.008 0.207 0.031 0.43 0.07 0.676 c 0 0.004 0 0.008 0 0.012 l 0.008 0.035 c 0.195 1.152 0.629 2.082 1.305 2.801 c 0.723 0.77 1.5 1.09 2.324 0.965 c 0.082 -0.012 0.16 -0.027 0.238 -0.047 c 0.066 -0.016 0.117 -0.051 0.16 -0.109 c 0.035 -0.055 0.051 -0.117 0.043 -0.188 l -2.066 -3.977 c -0.008 -0.047 -0.027 -0.094 -0.059 -0.133 c -0.031 -0.039 -0.07 -0.07 -0.117 -0.09 c -0.047 -0.02 -0.098 -0.027 -0.145 -0.02 l -1.527 -0.203 c -0.07 0.008 -0.129 0.039 -0.172 0.094" fill="#005c7d"/><path d="m 15.289 4.527 c -0.086 -0.047 -0.176 -0.086 -0.266 -0.121 c -0.941 -0.387 -1.934 -0.219 -2.977 0.504 c -0.973 0.676 -1.723 1.68 -2.242 3.01 l -0.016 0.039 c -0.004 0.008 -0.004 0.012 -0.008 0.02 c -0.105 0.285 -0.188 0.547 -0.25 0.793 c -0.023 0.082 -0.016 0.164 0.023 0.242 c 0.039 0.078 0.098 0.133 0.176 0.164 l 3.406 1.359 c 0.055 0.02 0.113 0.027 0.176 0.016 c 0.059 -0.008 0.113 -0.035 0.16 -0.074 c 0.047 -0.039 0.082 -0.09 0.102 -0.148 l 1.879 -5.387 c 0.023 -0.082 0.023 -0.16 -0.008 -0.242 c -0.031 -0.078 -0.082 -0.137 -0.156 -0.176" fill="#3b99c8"/><g fill="#007aa3"><path d="m 15.828 14.887 c 0.059 -0.059 0.094 -0.129 0.102 -0.215 c 0.004 -0.086 -0.016 -0.164 -0.066 -0.234 l -4.512 -2.984 c -0.035 -0.047 -0.082 -0.082 -0.137 -0.109 c -0.059 -0.023 -0.117 -0.031 -0.176 -0.023 c -0.063 0.012 -0.117 0.035 -0.164 0.074 l -1.707 0.738 c -0.066 0.051 -0.105 0.121 -0.121 0.207 c -0.012 0.086 0 0.168 0.047 0.238 c 0.133 0.215 0.289 0.441 0.473 0.684 c 0.004 0.004 0.008 0.008 0.012 0.012 l 0.023 0.035 c 0.887 1.117 1.895 1.848 3.02 2.195 c 1.207 0.375 2.199 0.234 2.984 -0.418 c 0.078 -0.063 0.152 -0.129 0.219 -0.199"/><path d="m 14.559 7.082 c -0.117 -0.055 -0.273 -0.121 -0.473 -0.199 c -1.02 -0.273 -2.125 -0.32 -3.313 -0.133 c -1.781 0.273 -3.227 0.98 -4.344 2.121 c -0.785 0.797 -1.246 1.645 -1.383 2.543 l -0.23 0.035 c -0.23 0.035 -0.418 0.152 -0.559 0.344 c -0.141 0.195 -0.191 0.414 -0.156 0.652 l 0.055 0.379 c 0.031 0.195 0.172 0.352 0.43 0.461 c 3.934 -0.879 6.66 -1.074 8.188 -0.59 c 1.523 0.488 2.555 0.926 3.094 1.316 c 0.969 0.758 1.746 1.547 2.324 2.367 l 0.867 -5.453 c -0.332 -0.555 -0.871 -1.195 -1.609 -1.918 c -0.742 -0.723 -1.379 -1.207 -1.914 -1.461 c -0.531 -0.254 -0.859 -0.41 -0.977 -0.465"/></g><path d="m 4.816 11.449 l 0.23 -0.035 c 0.137 -0.898 0.598 -1.746 1.383 -2.543 c 1.117 -1.141 2.563 -1.848 4.344 -2.121 c 1.188 -0.188 2.293 -0.141 3.313 0.133 c -1.215 -0.48 -2.563 -0.605 -4.04 -0.375 c -1.777 0.277 -3.227 0.984 -4.344 2.121 c -0.785 0.801 -1.242 1.648 -1.379 2.543 l -0.23 0.035 c -0.234 0.039 -0.422 0.152 -0.563 0.348 c -0.141 0.195 -0.191 0.41 -0.156 0.648 l 0.059 0.379 c 0.035 0.238 0.148 0.43 0.336 0.574 c 0.191 0.141 0.465 0.184 0.82 0.129 v 0.004 v -0.004 c -0.258 -0.109 -0.398 -0.266 -0.43 -0.461 l -0.055 -0.379 c -0.035 -0.238 0.016 -0.457 0.156 -0.652 c 0.141 -0.191 0.328 -0.309 0.559 -0.344" fill="#3b99c8"/><path d="m 6.789 10.727 c 0.016 0.117 0.07 0.211 0.164 0.281 c 0.094 0.07 0.199 0.098 0.313 0.078 c 0.113 -0.016 0.207 -0.074 0.273 -0.168 c 0.07 -0.094 0.094 -0.203 0.078 -0.316 c -0.016 -0.117 -0.074 -0.211 -0.168 -0.281 c -0.09 -0.07 -0.195 -0.098 -0.309 -0.078 c -0.117 0.016 -0.207 0.074 -0.277 0.168 c -0.066 0.094 -0.094 0.203 -0.074 0.316" fill="#fff"/></svg>