<svg xmlns="http://www.w3.org/2000/svg" viewBox="0 0 22 22"><path d="m 3.32 4.129 c -13.727 19.508 21.973 25.719 18.43 4.988 c -1.875 -8.246 -12.93 -12.805 -18.43 -4.988" fill="#e62969"/><g fill="none" stroke="#ff9d00" stroke-linejoin="round" stroke-linecap="round"><path d="m 540.06 419.45 c 0 103.43 -83.84 187.26 -187.23 187.26 c -103.39 0 -187.11 -83.83 -187.11 -187.26 c 0 -103.31 83.72 -187.13 187.11 -187.13 c 103.39 0 187.23 83.83 187.23 187.13" transform="matrix(0.03317 0 0 0.03229 -0.501 -2.072)" stroke-width="40"/><g transform="matrix(0.10939 0 0 0.10648 4.173 4.653)"><path d="m 59.09 12.02 h 7.249 v 102.86 h -7.249" stroke-width="9.861"/><path d="m 56.48 60.48 l 2.571 7.337 l -31.604 42.44 l -2.571 -7.374" stroke-width="6.662"/></g><path d="m -29.937 105.77 l 7.781 0.007 l -0.01 52.927 l -7.781 -0.007" transform="matrix(-0.04322 0.09782 0.05896 0.08969 4.173 4.653)" stroke-width="7.321"/></g></svg>