<svg xmlns="http://www.w3.org/2000/svg" viewBox="0 0 22 22"><path d="m 7.01 0.387 c 30.992 -3.82 5.305 40.11 -6.078 12 c -1.746 -4.938 -0.23 -10.492 6.078 -12" fill="#2f2d28"/><g transform="scale(0.08594)"><path d="m 100.14 174.55 c 8.5 -8.5 18.09 -11.909 30.955 -11.05 c 9.5 0.636 16.727 4.182 23.455 11.409 l 2.318 2.5 l -29.773 -0.045 h -29.773" fill="#fffacd" stroke="#fffacd" stroke-width="1.374"/><path d="m 117.86 252.77 c -15.455 -0.182 -38.955 -11.591 -56.32 -28.27 c -4.227 -4.091 -10.773 -12.545 -14.182 -17.318 c 15.09 -16.636 36.32 -24.318 53.55 -29.727 c 25.682 -3.682 49.09 -5.318 74.14 8.409 c 12.682 7.273 23.909 14.455 33.455 24.5 c 2.091 1.591 -20.273 20.455 -32.955 28.14 c -24.545 12.409 -36.23 14.545 -57.682 14.273" fill="#514e5c" stroke="#514e5c" stroke-width="2.285"/><path d="m 107.5 205.09 c -1.682 -0.136 -3.045 -0.455 -3.045 -0.727 c 0 -0.227 3.045 -3.455 6.727 -7.136 l 6.727 -6.727 v -5.955 c 0.091 -42.23 0.409 -20.364 -0.364 -44.5 c 0.455 -7.409 0.455 -7.455 -1.045 -7.818 c -0.818 -0.227 -9.773 -0.409 -19.955 -0.409 h -18.5 l -8.545 7.818 l -0.455 -2.5 c -0.545 -3.091 -0.636 -22.455 -0.091 -25.14 c 0.227 -1.091 0.591 -2 0.773 -2 c 0.227 0 2.182 1.591 4.364 3.545 l 3.955 3.5 h 11.136 c 13.182 0 25.545 -0.636 25.545 -1.318 c 0 -0.273 -1.955 -1.682 -4.318 -3.182 c -6.909 -4.318 -9.773 -6.955 -13.09 -12.05 c -5.318 -8.091 -7.182 -16.727 -5.455 -25 c 2.818 -13.318 12.364 -23.318 26.636 -28 c 5.136 -1.682 10.455 -1.091 18.5 2.091 c 7.636 3 12 6.05 15.864 11.182 c 8.364 11.09 9.682 24.05 3.727 36.409 c -2.182 4.591 -8.818 11.136 -14.727 14.636 c -4.682 2.727 -5.818 3.727 -5.091 4.455 c 0.227 0.227 8.364 0.636 18.09 0.909 l 17.636 0.5 l 4.773 -4.136 c 2.636 -2.318 5.05 -4.182 5.409 -4.182 c 0.773 0 0.909 28.773 0.136 29.955 c -0.318 0.5 -1.864 -0.455 -4.773 -3 c -4.045 -3.545 -4.545 -3.773 -8.545 -4.227 c -6.5 -0.682 -34.14 -0.045 -35 0.818 c 0.227 29.364 0.455 34.05 -0.955 50.36 l -0.409 7.364 l 6.955 6.955 l 7 6.909 l -3.5 0.455 c -3.591 0.5 -30.5 0.591 -36.09 0.136 m 25.05 -101.68 c 5.545 -2.727 9.909 -6.773 12.136 -11.227 c 2.227 -6.955 3.409 -14.09 0.364 -20.818 c -3.045 -6.636 -12.909 -13.773 -19.955 -14.409 c -2.273 -0.227 -3.818 0.045 -6.227 1.182 c -4.091 1.955 -9.773 7.727 -12.182 12.5 c -2.909 7.591 -3.091 16.318 0.273 22.545 c 2.364 4.318 6.227 8 10.955 10.409 c 6 3.045 8.05 3 14.636 -0.182" fill="#f3f518" stroke="#f3f518" stroke-width="1.517"/><g fill="#fffacd" stroke="#fffacd" stroke-width="2.366"><path d="m 52.55 71.5 l -0.818 -3.318 l -3.136 -1.409 l 3.364 -0.818 l 1.364 -3.136 l 0.818 3.364 l 3.136 1.364 l -3.364 0.818"/><path d="m 197.14 52.14 l -0.682 -1.091 l -1.273 -0.091 l 1.045 -0.682 l 0.136 -1.273 l 0.682 1.091 l 1.273 0.091 l -1.091 0.682"/><path d="m 224 100.73 l -2.955 -1.955 l -3.364 1.182 l 1.955 -2.955 l -1.182 -3.364 l 3 1.955 l 3.318 -1.182 l -1.955 2.955"/><path d="m 174.64 99.55 v -0.955 l -0.818 -0.591 l 1 -0.045 l 0.591 -0.773 v 1 l 0.773 0.591 h -0.955"/><path d="m 73.864 159.59 l 0.091 -1.682 l -1.273 -1.091 l 1.682 0.091 l 1.091 -1.273 l -0.091 1.682 l 1.273 1.091 l -1.682 -0.091"/><path d="m 33.18 116.14 v -1.955 l -1.591 -1.182 h 2 l 1.182 -1.591 v 1.955 l 1.591 1.227 h -2"/></g></g></svg>