<svg xmlns="http://www.w3.org/2000/svg" viewBox="0 0 22 22"><path d="m 20.77 16.234 c -4.77 10.336 -21.34 5.727 -20.754 -5.535 c 0.266 -10.234 13.762 -14.12 19.297 -6.824 c 2.789 3.152 3.59 8.375 1.457 12.359" fill="#aac9d6"/><path d="m 9.531 18.613 c -1.477 -0.324 -3.082 -1.336 -4.105 -2.586 c -0.566 -0.691 -1.184 -1.945 -1.422 -2.875 c -0.234 -0.922 -0.238 -2.52 -0.004 -3.523 c 0.449 -1.938 1.934 -3.836 3.723 -4.766 c 1.266 -0.656 1.984 -0.836 3.336 -0.832 c 2.035 0.008 3.848 0.75 5.199 2.133 c 1.445 1.477 2.117 3.152 2.109 5.266 c -0.016 4.668 -4.324 8.172 -8.836 7.184 m 3.207 -4.109 c 0.746 -0.414 1.484 -1.289 1.699 -2.027 c 0.777 -2.664 -1.477 -5.234 -4.105 -4.68 c -2.258 0.477 -3.625 3.25 -2.531 5.145 c 0.5 0.863 0.871 1.234 1.648 1.633 c 0.68 0.348 0.813 0.375 1.691 0.332 c 0.773 -0.039 1.074 -0.113 1.598 -0.402" fill="#5396ad"/><path d="m 9.609 18.555 c -2.359 -0.5 -5.01 -3.105 -5.156 -5.078 c -0.027 -0.352 -0.133 -0.844 -0.234 -1.09 c -0.332 -0.813 -0.234 -1.629 0.336 -2.727 c 0.672 -1.297 0.867 -1.355 0.777 -0.242 c -0.051 0.637 -0.027 0.871 0.102 0.965 c 0.094 0.07 0.207 0.406 0.25 0.742 c 0.051 0.383 0.164 0.676 0.301 0.773 c 0.121 0.086 0.281 0.379 0.363 0.645 c 0.098 0.332 0.211 0.488 0.359 0.488 c 0.238 0 0.898 1.02 0.785 1.207 c -0.035 0.063 0.047 0.215 0.191 0.344 c 0.254 0.23 0.254 0.23 0.168 -0.141 l -0.086 -0.367 l 0.434 0.445 c 0.473 0.488 0.688 0.59 1.945 0.891 c 0.84 0.203 0.855 0.203 1.719 -0.098 c 1.191 -0.41 1.863 -0.91 2.375 -1.766 c 0.539 -0.898 0.66 -1.457 0.559 -2.555 c -0.137 -1.477 -1.055 -2.719 -2.492 -3.383 c -0.578 -0.262 -2.082 -0.332 -2.625 -0.117 c -0.188 0.074 -0.453 0.133 -0.59 0.133 c -0.145 0 -0.453 0.234 -0.727 0.555 c -0.266 0.301 -0.531 0.551 -0.59 0.551 c -0.148 0 -0.145 -0.457 0.008 -0.551 c 0.063 -0.039 0.172 -0.277 0.238 -0.527 c 0.121 -0.461 1.039 -1.523 1.809 -2.098 c 0.211 -0.16 0.773 -0.43 1.25 -0.598 c 0.746 -0.262 0.988 -0.293 1.777 -0.223 c 1.105 0.098 2.055 0.523 2.5 1.117 c 0.176 0.23 0.578 0.609 0.898 0.844 c 0.73 0.535 1.102 1.168 1.578 2.715 c 0.34 1.109 0.371 1.332 0.316 2.391 c -0.125 2.398 -1.242 4.371 -3.234 5.719 c -1.242 0.836 -1.988 1.074 -3.504 1.113 c -0.695 0.02 -1.508 -0.016 -1.801 -0.078 m -2.867 -5 c -0.117 -0.227 -0.285 -0.145 -0.344 -0.043 c -0.051 0.082 0.004 0.254 0.121 0.387 c 0.285 0.32 0.438 0.07 0.223 -0.344 m -0.961 -1.105 c -0.074 -0.313 -0.418 -0.289 -0.418 -0.023 c 0 0.188 0.25 0.637 0.316 0.57 c 0.031 -0.035 0.148 -0.371 0.102 -0.547 m -0.875 -1.672 c -0.125 -0.238 -0.293 0.168 -0.203 0.492 l 0.094 0.348 l 0.289 -0.367 c 0.125 -0.164 -0.152 -0.414 -0.18 -0.473 m 1.352 0.848 c -0.043 -0.105 -0.035 -0.34 0.008 -0.523 c 0.063 -0.258 0.25 -0.438 0.336 -0.297 c 0.148 0.238 0.168 0.781 -0.152 0.938 c -0.07 0.035 -0.152 -0.012 -0.191 -0.117 m -0.453 -1.32 c -0.074 -0.301 0.16 -0.902 0.348 -0.891 c 0.188 0.016 0.215 0.41 0.055 0.801 c -0.176 0.43 -0.305 0.457 -0.402 0.09 m -0.074 -1.488 c -0.004 -0.434 0.172 -0.777 0.48 -0.945 c 0.395 -0.215 0.309 0.414 -0.117 0.891 l -0.359 0.398 m -0.855 -0.813 c 0 -0.211 0.488 -0.969 0.625 -0.969 c 0.141 0 0.02 0.441 -0.234 0.832 c -0.188 0.293 -0.391 0.363 -0.391 0.137 m 1.266 -1.328 c 0.199 -0.387 0.621 -0.746 0.883 -0.746 c 0.238 0 -0.125 0.652 -0.504 0.902 c -0.461 0.309 -0.586 0.254 -0.379 -0.156" fill="#7ac0cf" fill-opacity="0.996"/><path d="m 9.637 18.273 c -2.125 -0.445 -4.633 -2.758 -5.03 -4.637 c -0.082 -0.375 -0.074 -0.391 0.16 -0.262 c 0.23 0.121 0.238 0.109 0.129 -0.18 c -0.145 -0.383 -0.152 -1.129 -0.012 -1.129 c 0.254 0 0.484 0.617 0.484 1.293 c 0 0.695 0.09 0.871 0.574 1.152 c 0.125 0.07 0.137 0.043 0.047 -0.133 c -0.164 -0.32 -0.273 -1 -0.164 -1 c 0.23 0 0.742 0.723 0.809 1.148 c 0.074 0.457 0.305 0.754 0.602 0.758 c 0.113 0.004 0.109 -0.078 -0.031 -0.348 c -0.348 -0.676 -0.164 -0.797 0.418 -0.273 c 0.199 0.18 0.375 0.426 0.391 0.547 c 0.039 0.258 0.281 0.434 0.598 0.438 c 0.211 0 0.207 -0.02 -0.047 -0.297 c -0.152 -0.164 -0.246 -0.332 -0.207 -0.371 c 0.121 -0.125 0.586 0.09 0.875 0.402 c 0.277 0.301 0.344 0.363 1.137 0.281 c 2.82 -0.289 2.238 -0.777 2.863 -1.211 c 0.578 -0.402 1.289 -1.488 1.449 -2.215 c 0.055 -0.258 0.066 -0.852 0.023 -1.32 c -0.133 -1.43 -1.027 -2.641 -2.438 -3.285 c -0.559 -0.258 -2.172 -0.531 -2.563 -0.117 c -0.617 0.664 -0.629 0.344 -0.543 0.121 c 0.055 -0.148 0.063 -0.355 -0.098 -0.285 c -0.113 0.047 -0.332 0.113 -0.484 0.148 c -0.258 0.055 -0.266 0.043 -0.117 -0.199 c 0.176 -0.289 0.559 -0.426 0.887 -0.324 c 0.121 0.039 0.348 -0.035 0.512 -0.164 l 0.297 -0.234 l -0.504 -0.004 c -0.59 0 -0.633 -0.109 -0.148 -0.398 c 0.301 -0.18 0.418 -0.191 0.824 -0.066 c 0.34 0.102 0.551 0.105 0.742 0.016 c 0.289 -0.133 0.23 -0.18 -0.414 -0.32 c -0.422 -0.094 -0.41 -0.242 0.027 -0.426 c 0.398 -0.164 0.844 -0.09 1.117 0.188 c 0.113 0.113 0.336 0.172 0.57 0.148 l 0.383 -0.039 l -0.531 -0.289 l -0.531 -0.285 l 0.355 -0.102 c 0.516 -0.145 1.01 0 1.387 0.41 c 0.246 0.266 0.469 0.371 0.879 0.418 c 0.758 0.086 2.223 1.086 2.664 1.82 c 0.176 0.293 0.488 1.074 0.691 1.73 c 0.332 1.082 0.363 1.301 0.309 2.328 c -0.121 2.328 -1.211 4.25 -3.16 5.559 c -1.211 0.813 -1.941 1.047 -3.418 1.086 c -0.684 0.016 -1.477 -0.02 -1.762 -0.078 m -5.527 -6.922 c 0 -0.23 0.359 -0.441 0.395 -0.328 c 0.09 0.273 0.031 0.805 0 0.918 c -0.027 0.117 -0.395 -0.359 -0.395 -0.59 m 10.125 -5.793 c -0.082 -0.102 -0.559 -0.238 -0.273 -0.402 c 0.059 -0.031 0.609 0.223 0.691 0.32 c 0.082 0.102 -0.086 0.262 -0.152 0.262 c -0.066 0 -0.188 -0.082 -0.266 -0.18" fill="#276486"/><path d="m 10.273 17.855 c -0.145 -0.059 -0.262 -0.16 -0.262 -0.227 c 0 -0.066 -0.207 -0.184 -0.465 -0.262 c -0.254 -0.078 -0.551 -0.238 -0.656 -0.359 c -0.18 -0.199 -0.18 -0.223 0.004 -0.293 c 0.328 -0.129 1.01 0.047 1.48 0.379 c 0.344 0.246 0.52 0.297 0.77 0.23 l 0.324 -0.09 l -0.293 -0.117 c -0.16 -0.066 -0.41 -0.164 -0.551 -0.223 c -0.145 -0.055 -0.266 -0.152 -0.266 -0.211 c 0 -0.258 1.094 -0.34 1.57 -0.117 c 0.23 0.109 0.363 0.105 0.617 -0.023 l 0.32 -0.164 l -0.516 -0.063 c -0.285 -0.035 -0.535 -0.125 -0.559 -0.199 c -0.063 -0.199 0.648 -0.457 1.203 -0.43 c 0.313 0.012 0.539 -0.043 0.633 -0.156 c 0.195 -0.242 0.066 -0.344 -0.23 -0.18 c -0.152 0.082 -0.316 0.094 -0.43 0.027 c -0.16 -0.09 -0.141 -0.141 0.137 -0.363 c 0.176 -0.145 0.457 -0.293 0.625 -0.332 c 0.332 -0.082 1.094 -0.07 1.133 -0.551 c 0.008 -0.063 -0.531 -0.086 -0.66 -0.051 c -0.191 0.051 -0.176 0.008 0.094 -0.254 c 0.375 -0.363 0.523 -0.734 0.711 -1.754 c 0.18 -1 0.172 -1.125 -0.18 -2.23 c -0.23 -0.727 -0.426 -1.105 -0.766 -1.469 c -0.25 -0.27 -0.465 -0.566 -0.48 -0.664 c -0.016 -0.094 -0.207 -0.344 -0.43 -0.551 l -0.402 -0.375 h 0.348 c 0.426 0.004 0.711 0.207 0.863 0.621 c 0.066 0.172 0.223 0.371 0.355 0.441 c 0.297 0.164 0.301 0.031 0.004 -0.352 c -0.125 -0.164 -0.227 -0.34 -0.23 -0.391 c 0 -0.105 0.375 -0.117 0.633 -0.012 c 0.242 0.094 0.566 0.727 0.488 0.941 c -0.066 0.18 0.328 0.754 0.441 0.641 c 0.039 -0.039 -0.004 -0.289 -0.098 -0.555 c -0.203 -0.59 -0.137 -0.684 0.293 -0.422 c 0.41 0.246 0.621 0.75 0.535 1.277 c -0.039 0.254 -0.004 0.484 0.098 0.621 c 0.148 0.195 0.164 0.156 0.168 -0.406 c 0.004 -0.719 0.141 -0.785 0.477 -0.238 c 0.207 0.336 0.23 0.508 0.168 1.313 c -0.051 0.621 -0.035 0.922 0.051 0.922 c 0.066 0 0.125 -0.105 0.125 -0.23 c 0 -0.129 0.047 -0.262 0.102 -0.297 c 0.223 -0.141 0.223 0.316 0.008 1.426 c -0.125 0.633 -0.227 1.277 -0.227 1.438 c 0 0.484 -0.477 1.352 -0.957 1.75 c -0.25 0.203 -0.637 0.629 -0.855 0.937 c -0.469 0.672 -1.402 1.258 -2.148 1.352 c -0.289 0.035 -0.762 0.145 -1.047 0.242 c -0.656 0.082 -1.457 0.277 -2.07 0.051 m -2.492 -1.066 c -0.215 -0.184 -0.254 -0.414 -0.102 -0.418 c 0.105 0 0.352 0.102 0.504 0.23 c 0.215 0.184 0.215 0.418 0.066 0.418 c -0.105 0.004 -0.316 -0.102 -0.469 -0.23" fill="#173c49"/></svg>