<svg xmlns="http://www.w3.org/2000/svg" viewBox="0 0 22 22"><path d="m 10.08 21.945 c 13.344 1.27 16.934 -20.13 3.234 -21.793 c -12.602 -2.059 -19.09 17.34 -6.57 21.22 c 1.059 0.426 2.215 0.418 3.336 0.574" fill="#333d36"/><path d="m 8.328 16.766 c -1.055 -0.164 -1.813 -0.445 -2.168 -0.797 c -0.328 -0.328 -0.645 -1.027 -0.645 -1.438 c 0 -0.258 -0.059 -0.32 -0.488 -0.5 c -0.328 -0.137 -0.398 -0.188 -0.473 -0.344 c -0.238 -0.52 0.129 -1.852 0.641 -2.309 c 0.215 -0.191 0.402 -0.242 1.105 -0.281 l 3.055 1.18 l 2.133 0.535 l -1.648 -1.129 l -2.941 -0.793 c -0.262 -0.07 0.453 -0.867 0.746 -1.273 l 0.254 -0.355 l -0.117 -0.184 c -0.223 -0.34 -0.113 -0.688 0.27 -0.859 c 0.207 -0.09 0.219 -0.109 0.219 -0.309 c 0 -0.215 0.176 -0.594 0.273 -0.594 c 0.027 0 0.102 -0.078 0.172 -0.172 c 0.152 -0.215 0.844 -0.691 1.27 -0.879 c 0.391 -0.172 0.906 -0.281 1.313 -0.281 c 0.66 0 1.676 0.27 2.383 0.629 c 0.348 0.18 0.379 0.188 0.551 0.129 c 0.238 -0.082 0.855 -0.383 1.684 -0.824 c 0.656 -0.348 1.68 -0.762 2.035 -0.82 c 0.125 -0.023 0.18 -0.012 0.203 0.039 c 0.051 0.117 -0.598 1.496 -1.137 2.418 c -0.668 1.133 -0.867 1.629 -0.906 2.262 c -0.016 0.262 -0.055 0.609 -0.086 0.77 c -0.051 0.25 -0.043 0.336 0.043 0.547 c 0.105 0.277 0.148 0.906 0.145 2.191 c -0.004 0.73 -0.004 0.754 -0.156 0.977 c -0.41 0.617 -0.715 0.938 -1.367 1.457 l -0.688 0.547 l -0.566 0.156 c -0.473 0.129 -0.668 0.156 -1.172 0.164 c -0.336 0.008 -1.078 0.059 -1.652 0.113 c -1.191 0.113 -1.695 0.117 -2.281 0.027 m 5.191 -3.164 c 0.121 -0.023 0.238 -0.07 0.262 -0.105 c 0.078 -0.105 0.055 -1.102 -0.035 -1.477 c -0.168 -0.719 -0.754 -1.516 -1.285 -1.75 c -0.457 -0.199 -0.512 -0.117 -0.461 0.648 c 0.059 0.84 -0.035 1.379 -0.34 1.977 c -0.055 0.102 0.078 0.207 0.594 0.461 c 0.531 0.258 0.875 0.328 1.266 0.246 m 2.293 -1.547 c 0.176 -0.164 0.211 -0.586 0.082 -0.926 c -0.051 -0.133 -0.113 -0.254 -0.145 -0.27 c -0.027 -0.012 -0.125 0.039 -0.219 0.121 c -0.203 0.176 -0.188 0.344 0.047 0.512 c 0.117 0.086 0.133 0.117 0.078 0.168 c -0.168 0.145 -0.859 -0.348 -1.109 -0.793 c -0.203 -0.359 -0.105 -0.695 0.199 -0.695 c 0.156 0 0.223 -0.113 0.129 -0.215 c -0.16 -0.164 -0.637 0.02 -0.902 0.348 c -0.16 0.199 -0.164 0.211 -0.102 0.473 c 0.09 0.367 0.246 0.625 0.535 0.891 c 0.555 0.496 1.117 0.652 1.406 0.387" fill="#88df31"/><g stroke="#333d36" transform="scale(0.08594)"><path d="m 104.41 105.14 l -2.636 -2.045 l 5.364 -3.636 c 5.273 -3.636 19 -8.591 21 -7.636 c 0.636 0.318 0 2.364 -1.636 5.273 c -2.136 3.682 -4.091 5.318 -8.955 7.455 c -7.409 3.273 -9.591 3.364 -13.14 0.591" fill="#f47800" stroke-width="0.62"/><g stroke-width="0.409"><path d="m 147.68 158.18 c -3.409 -1.318 -8.5 -3.909 -10.773 -5.545 l -1.909 -1.318 l 2.091 -5.909 c 1.864 -5.455 2.045 -6.727 2.045 -16.318 c 0.045 -5.682 0.318 -10.818 0.682 -11.364 c 0.545 -0.864 1.318 -0.682 4.545 0.909 c 6.909 3.364 14.05 13.955 15.545 23 c 1.136 6.909 0.909 15.05 -0.409 16.14 c -1.591 1.318 -8.773 1.545 -11.818 0.409" fill="#fff"/><path d="m 174.91 141.05 c -7.364 -3.455 -13 -10.136 -14.364 -17.05 c -0.364 -1.955 -0.045 -2.636 2.455 -5.182 c 2.818 -2.773 6.636 -4.5 8.545 -3.818 c 1.636 0.591 0.909 2 -1.455 2.682 c -2.136 0.636 -2.318 0.955 -2.545 3.955 c -0.273 4.091 2.227 8.05 7.682 12.136 c 5.364 4.045 9.591 3.682 5.682 -0.455 c -1.773 -1.909 -1.409 -4.818 0.773 -5.955 c 1.136 -0.591 1.5 -0.364 2.5 1.682 c 1.545 3.273 1.5 9.136 -0.136 11.09 c -1.773 2.182 -5.636 2.545 -9.136 0.909" fill="#ffa400"/></g></g></svg>