<svg xmlns="http://www.w3.org/2000/svg" viewBox="0 0 22 22"><path d="m 20.418 16.609 c 9.672 -27 -35.05 -16.461 -14.598 1.645 c 4.66 4.129 12.04 5.508 14.598 -1.645" fill="#ede7aa"/><path d="m 9.289 8.277 l 0.574 -2.117 l 1.574 1.551 l -0.578 2.117 l -1.57 -1.551" fill="#8c8271"/><path d="m 10 8.09 l 0.574 -2.117 l 2.148 -0.566 l -0.574 2.117 l -2.148 0.566" fill="#9ca38e"/><path d="m 12.152 7.523 l 0.574 -2.117 l 1.574 1.547 l -0.574 2.117 l -1.574 -1.547" fill="#828c71"/><path d="m 10 8.09 l 2.148 -0.566 l 1.574 1.547 l -2.148 0.57 l -1.574 -1.551" fill="#69705b"/><path d="m 12.867 7.332 l 0.578 -2.117 l 2.148 -0.566 l -0.578 2.117 l -2.148 0.566" fill="#8ea38e"/><path d="m 15.02 6.766 l 0.578 -2.117 l 1.57 1.551 l -0.574 2.117 l -1.574 -1.551" fill="#718c71"/><path d="m 12.867 7.332 l 2.148 -0.566 l 1.574 1.551 l -2.148 0.566 l -1.574 -1.551" fill="#5b705b"/><path d="m 12.1 10.156 l 0.574 -2.117 l 2.148 -0.566 l -0.574 2.117 l -2.148 0.566" fill="#8ea39c"/><path d="m 14.25 9.59 l 0.574 -2.117 l 1.574 1.547 l -0.574 2.117 l -1.574 -1.547" fill="#718c82"/><path d="m 12.1 10.156 l 2.148 -0.566 l 1.574 1.547 l -2.148 0.57 l -1.574 -1.551" fill="#5b7069"/><path d="m 11.332 12.98 l 0.578 -2.117 l 2.148 -0.57 l -0.578 2.117 l -2.148 0.57" fill="#8e9ca3"/><path d="m 13.48 12.41 l 0.578 -2.117 l 1.57 1.551 l -0.574 2.117 l -1.574 -1.551" fill="#71828c"/><path d="m 11.332 12.98 l 2.148 -0.57 l 1.574 1.551 l -2.148 0.566 l -1.574 -1.547" fill="#5b6970"/><path d="m 10.566 15.801 l 0.574 -2.117 l 2.148 -0.566 l -0.574 2.117 l -2.148 0.566" fill="#8e8ea3"/><path d="m 12.715 15.234 l 0.574 -2.117 l 1.574 1.551 l -0.574 2.117 l -1.574 -1.551" fill="#71718c"/><path d="m 10.566 15.801 l 2.148 -0.566 l 1.574 1.551 l -2.148 0.566 l -1.574 -1.551" fill="#5b5b70"/><path d="m 8.469 13.734 l 0.574 -2.117 l 2.148 -0.566 l -0.574 2.117 l -2.148 0.566" fill="#9c8ea3"/><path d="m 10.617 13.168 l 0.574 -2.117 l 1.574 1.551 l -0.574 2.117 l -1.574 -1.551" fill="#82718c"/><path d="m 8.469 13.734 l 2.148 -0.566 l 1.574 1.551 l -2.148 0.566 l -1.574 -1.551" fill="#695b70"/><path d="m 6.371 11.668 l 0.578 -2.117 l 2.148 -0.566 l -0.578 2.117 l -2.148 0.566" fill="#a38e9c"/><path d="m 8.52 11.1 l 0.578 -2.117 l 1.57 1.551 l -0.574 2.117 l -1.574 -1.551" fill="#8c7182"/><path d="m 6.371 11.668 l 2.148 -0.566 l 1.574 1.551 l -2.148 0.566 l -1.574 -1.551" fill="#705b69"/><path d="m 4.273 9.602 l 0.578 -2.117 l 2.148 -0.566 l -0.578 2.117 l -2.148 0.566" fill="#a38e8e"/><path d="m 6.422 9.04 l 0.578 -2.117 l 1.57 1.551 l -0.574 2.117 l -1.574 -1.551" fill="#8c7171"/><path d="m 4.273 9.602 l 2.148 -0.566 l 1.574 1.551 l -2.148 0.566 l -1.574 -1.551" fill="#705b5b"/><path d="m 7.141 8.844 l 0.574 -2.117 l 2.148 -0.566 l -0.574 2.117 l -2.148 0.566" fill="#a39c8e"/><path d="m 7.141 8.844 l 2.148 -0.566 l 1.57 1.551 l -2.148 0.566 l -1.57 -1.551" fill="#70695b"/></svg>