<svg xmlns="http://www.w3.org/2000/svg" viewBox="0 0 22 22"><path d="m 19.16 4.156 c 11.207 17.371 -14.785 24.06 -18.648 9.172 c -2.285 -12.707 12.656 -17.23 18.648 -9.172" fill="#2f2f2f"/><g fill="#fff"><path d="m 11.758 14.957 c -0.129 -0.023 -0.176 -0.234 -0.137 -0.574 l 0.02 -0.184 l 0.398 -0.035 c 0.652 -0.063 1.941 -0.008 2 0.086 c 0.07 0.109 0.063 0.605 -0.016 0.68 c -0.043 0.047 -0.355 0.063 -1.105 0.055 c -0.578 -0.004 -1.098 -0.016 -1.16 -0.027"/><path d="m 11.938 13.406 l -0.254 -0.023 v -0.797 l 0.711 0.016 l 0.707 0.012 l 0.016 0.344 c 0.008 0.188 -0.004 0.359 -0.027 0.383 c -0.055 0.051 -0.82 0.094 -1.152 0.066"/><path d="m 11.695 11.742 c -0.047 -0.031 -0.066 -0.148 -0.055 -0.387 l 0.016 -0.344 l 2.582 -0.016 l 2.578 -0.012 v 0.367 c 0 0.289 -0.02 0.379 -0.086 0.402 c -0.129 0.051 -4.957 0.039 -5.04 -0.012"/><path d="m 14.68 9.703 v -0.375 h 1.871 v 0.746 h -1.871"/><path d="m 11.695 8.03 l 0.016 -0.387 l 2.75 -0.016 c 2.164 -0.008 2.758 0 2.793 0.055 c 0.051 0.078 0.059 0.531 0.012 0.652 c -0.031 0.074 -0.328 0.082 -2.809 0.082 h -2.777"/><path d="m 11.898 6.875 l -0.188 -0.031 v -0.695 l 0.266 -0.043 c 0.332 -0.059 2.836 -0.027 2.895 0.031 c 0.059 0.059 0.059 0.656 0 0.715 c -0.051 0.051 -2.707 0.074 -2.973 0.023"/><path d="m 11.684 9.703 v -0.375 h 2.566 v 0.746 h -2.566"/><path d="m 14.289 13.406 l -0.574 -0.02 v -0.797 h 1.781 c 1.313 0 1.797 0.016 1.844 0.063 c 0.086 0.086 0.082 0.531 -0.004 0.645 c -0.055 0.078 -0.223 0.094 -1.27 0.113 c -0.66 0.008 -1.461 0.008 -1.777 -0.004"/><path d="m 14.516 14.957 c -0.125 -0.051 -0.156 -0.133 -0.156 -0.398 c -0.004 -0.16 0.027 -0.27 0.082 -0.316 c 0.113 -0.094 0.703 -0.129 0.895 -0.055 c 0.145 0.055 0.148 0.066 0.133 0.418 l -0.016 0.363 l -0.43 0.008 c -0.234 0.008 -0.461 -0.004 -0.508 -0.02"/><path d="m 15.922 15.01 c -0.113 -0.023 -0.121 -0.055 -0.121 -0.426 v -0.402 l 0.805 0.02 c 0.902 0.02 0.902 0.02 0.902 0.418 c 0 0.391 -0.012 0.398 -0.785 0.41 c -0.375 0.004 -0.734 -0.004 -0.801 -0.02"/><path d="m 5.699 15.23 c -0.688 -0.188 -0.781 -0.406 -0.859 -1.973 c -0.082 -1.762 -0.098 -1.883 -0.25 -2.063 c -0.086 -0.102 -0.234 -0.188 -0.422 -0.242 l -0.293 -0.086 l 0.016 -0.301 l 0.016 -0.305 l 0.258 -0.063 c 0.344 -0.086 0.5 -0.195 0.539 -0.375 c 0.02 -0.082 0.066 -0.785 0.109 -1.566 c 0.086 -1.5 0.148 -1.871 0.363 -2.07 c 0.172 -0.164 0.539 -0.281 0.871 -0.281 c 0.305 0 0.344 0.039 0.344 0.328 c 0 0.262 -0.082 0.355 -0.348 0.398 c -0.133 0.02 -0.297 0.078 -0.367 0.137 c -0.152 0.117 -0.168 0.254 -0.246 1.91 c -0.059 1.238 -0.102 1.461 -0.336 1.703 l -0.164 0.172 l 0.176 0.219 c 0.094 0.117 0.195 0.293 0.223 0.387 c 0.027 0.094 0.074 0.676 0.102 1.297 c 0.078 1.684 0.094 1.824 0.246 1.941 c 0.066 0.055 0.219 0.117 0.336 0.133 c 0.305 0.051 0.398 0.164 0.367 0.449 c -0.016 0.129 -0.039 0.242 -0.051 0.258 c -0.07 0.066 -0.371 0.063 -0.629 -0.008"/><path d="m 7.957 15.277 c -0.07 -0.027 -0.094 -0.473 -0.035 -0.625 c 0.02 -0.055 0.133 -0.098 0.301 -0.121 c 0.313 -0.039 0.453 -0.156 0.488 -0.402 c 0.016 -0.098 0.055 -0.742 0.082 -1.434 c 0.059 -1.336 0.09 -1.531 0.301 -1.84 c 0.164 -0.242 0.164 -0.281 0.004 -0.516 c -0.199 -0.293 -0.242 -0.531 -0.297 -1.652 c -0.082 -1.625 -0.105 -1.816 -0.223 -1.93 c -0.055 -0.059 -0.145 -0.102 -0.195 -0.105 c -0.051 0 -0.184 -0.023 -0.293 -0.055 l -0.199 -0.055 v -0.637 h 0.332 c 0.559 0.004 0.961 0.258 1.063 0.676 c 0.027 0.113 0.082 0.859 0.129 1.656 c 0.043 0.797 0.094 1.496 0.113 1.551 c 0.07 0.203 0.25 0.336 0.535 0.398 l 0.289 0.066 l -0.016 0.32 l -0.016 0.324 l -0.254 0.063 c -0.551 0.141 -0.574 0.211 -0.66 1.992 c -0.039 0.801 -0.094 1.547 -0.125 1.656 c -0.078 0.297 -0.344 0.523 -0.723 0.621 c -0.32 0.086 -0.48 0.098 -0.602 0.047"/></g></svg>