<svg xmlns="http://www.w3.org/2000/svg" viewBox="0 0 22 22"><path d="m 7.977 21.297 c 11.465 4.055 17.04 -10.52 12.371 -15.996 c -4.664 -5.473 -12.664 -7.344 -16.688 -1.145 c -4.03 6.203 -7.148 13.09 4.316 17.14" fill="#222"/><path d="m 62.955 202.32 c -1 -0.318 -1.636 -3.818 -2.273 -12.227 l -0.818 -11.727 l 4 -1 c 6.818 -1.636 10.545 -3.409 12.5 -5.909 c 1.727 -2.182 1.682 -5.682 -0.364 -46.682 l -2.182 -44.32 l 53.45 -3.864 l 53.41 -3.818 l 1.727 3.409 c 2.727 5.364 31.727 74.818 32.818 78.5 l 0.955 3.273 l -8.227 1.318 c -4.545 0.727 -11.591 1.227 -15.727 1.136 l -7.455 -0.136 l -3 -6.455 l -3 -6.409 l -14.591 0.727 l -14.591 0.773 l -4.091 15.545 l -15.955 1.182 l -16 1.136 l 1.182 -4.727 c 3.455 -13.682 13.773 -57.5 13.727 -58.32 c -0.136 -1.636 -9.636 -1.773 -17.18 -0.273 l -7.227 1.455 l 2 36.32 c 1.864 33.636 1.864 36.636 0.136 41.41 c -3.364 9.136 -12.955 15 -29 17.682 c -4.136 0.727 -8.727 1.545 -10.182 1.864 c -1.455 0.364 -3.318 0.409 -4.045 0.136 m 108.5 -73 c 2.5 -0.727 3.273 -1.5 3.136 -3.227 c -0.364 -3.409 -12.409 -30.591 -13.727 -30.909 c -0.909 -0.227 -10.182 31.727 -9.909 34.32 c 0.136 1.591 14.409 1.5 20.5 -0.182" transform="scale(0.08594)" fill="#fff" stroke="#222" stroke-width="2"/></svg>