<svg xmlns="http://www.w3.org/2000/svg" viewBox="0 0 22 22"><path d="m 11.207 21.883 c -2.266 -0.176 -4.922 -1.262 -6.773 -2.766 c -2.25 -1.832 -3.898 -4.641 -4.34 -7.406 c -0.527 -3.656 1.598 -7.59 3.992 -9.453 c 1.207 -0.91 2.801 -1.633 4.297 -1.949 c 3.895 -0.82 7.953 0.738 10.738 4.125 c 1.668 2.027 2.535 4.074 2.746 6.496 c 0.25 2.902 -0.898 6.01 -2.992 8.109 c -2.383 1.977 -4.836 3.047 -7.668 2.844" fill="#5f9d9f"/><path d="m 18.551 11.05 c 0 4.145 -3.359 7.504 -7.504 7.504 c -4.145 0 -7.504 -3.359 -7.504 -7.504 c 0 -4.145 3.359 -7.504 7.504 -7.504 c 4.145 0 7.504 3.359 7.504 7.504" fill="#99f99f"/><path d="m 11.01 16.707 c 0 -1.297 0.563 -2.77 0.059 -2.77 c -0.324 0 -1.125 0.152 -1.238 -0.031 c -0.125 -0.203 -0.766 1.176 -1.281 2.01 c -0.48 0.77 -0.336 2.086 -1.168 1.621 c -1.141 -0.641 -0.535 -0.699 0.188 -1.934 c 0.586 -0.996 2.258 -2.582 2.01 -2.883 c -0.184 -0.223 -1.793 0.652 -1.676 0.535 c 0.27 -0.27 -1.445 0.477 -2.617 1.391 c -0.742 0.582 -0.938 -0.164 -0.938 -0.73 c 0 -0.234 0.867 -0.668 2.496 -1.238 c 0.316 -0.113 2.285 -0.742 2.176 -1.023 c -0.129 -0.34 -2.453 0.172 -3.645 0.172 c -0.898 0 -1.98 1.426 -1.801 -0.602 c 0.012 -0.168 0.492 -0.27 0.887 -0.27 c 1.316 0 4.438 -0.176 4.324 -0.52 c -0.063 -0.188 -2.508 -0.762 -3.238 -1.031 c -0.727 -0.27 -1.371 -0.633 -1.43 -0.805 c -0.199 -0.609 0.148 -1.656 1.746 -0.188 c 3.402 1.59 4.168 1.164 1.266 -2.285 c -1.16 -1.238 0.527 -2.152 1.313 -0.316 c 2.414 5.625 1.848 1.559 1.715 -0.547 c -0.078 -1.277 -1.27 -1.434 0.379 -1.578 c 1.543 -0.137 0.477 0.32 0.477 1.34 c 0 1.191 0.07 3.121 0.898 3.535 c 0.914 0.453 0.973 -1.281 1.473 -2.187 c 0.969 -1.75 0.527 -2.16 1.598 -1.566 c 1.277 0.715 0.195 0.621 -0.457 1.563 c -0.703 1.016 -1.586 2.234 -1.266 2.742 c 0.367 0.586 1.207 -0.363 2.426 -0.914 c 1.492 -0.68 1.586 -1.398 1.992 -0.145 c 0.238 0.727 -0.648 0.645 -1.527 0.938 c -1.254 0.414 -2.887 1.363 -2.598 1.711 c 0.215 0.262 2.383 -0.129 3.254 -0.352 c 2.098 -0.543 2.43 0.957 0.473 1.023 c -3.375 0.113 -4.04 0.418 -0.738 1.172 c 0.746 0.168 1.453 0.652 1.387 0.934 c -0.23 0.988 -0.281 1.184 -1.742 0.574 c -0.621 -0.258 -1.895 -1.48 -1.922 -1.43 c -0.023 0.051 -0.902 0.082 -1.203 0.441 c -0.531 0.633 0.93 1.406 1.535 2.594 c 0.711 1.391 1.699 0.996 0.379 1.777 c -0.656 0.391 -0.965 -0.387 -1.25 -1.086 c -1.832 -4.52 -1.801 -1.785 -1.801 0.273 c 0 1.223 0.336 1.887 -0.5 1.91 c -1.406 0.047 -0.41 -0.68 -0.41 -1.824" fill="#00b500"/><path d="m 14.707 11.176 c 0 1.918 -1.578 3.473 -3.523 3.473 c -1.945 0 -3.523 -1.555 -3.523 -3.473 c 0 -1.918 1.578 -3.473 3.523 -3.473 c 1.945 0 3.523 1.555 3.523 3.473" fill="#626868"/><path d="m 8.113 12.82 c 0.027 -0.027 0.141 -0.012 0.254 0.035 c 0.586 0.242 1.723 0.258 2.531 0.035 c 1.289 -0.355 2.43 -1.238 3.02 -2.34 c 0.176 -0.328 0.387 -0.68 0.449 -0.668 c 0.723 1.059 0.18 2.672 -0.328 3.414 c -1.633 2.207 -5.191 1.434 -5.922 -0.477" fill="#0b0f0c"/></svg>