<svg xmlns="http://www.w3.org/2000/svg" viewBox="0 0 22 22"><path d="m 11.04 0.27 c 14.512 -1.652 14.313 21.992 -0.258 21.711 c -13.551 0.781 -14.773 -23 0.258 -21.711" fill="#030606"/><g fill="#728989"><path d="m 7.211 8.906 c 0 -2.395 -0.012 -2.574 -0.184 -2.934 c -0.102 -0.211 -0.16 -0.406 -0.133 -0.438 c 0.07 -0.078 0.66 0.133 1.07 0.383 l 0.352 0.215 l 0.07 0.75 c 0.035 0.414 0.055 1.613 0.043 2.664 l -0.023 1.91 h -1.195"/><path d="m 14.191 8.82 c 0.031 -2.488 0.047 -2.648 0.266 -2.895 c 0.352 -0.395 0.547 -0.41 0.461 -0.035 c -0.043 0.168 -0.074 1.488 -0.074 2.934 v 2.633 h -0.691"/></g><path d="m 7.492 17.289 c -0.27 -0.188 -0.332 -0.828 -0.332 -3.355 l -0.004 -2.477 h 7.707 v 5.133 c -0.285 1.188 -2.336 0.809 -3.953 0.805 c -1.078 0.047 -2.766 0.188 -3.418 -0.105" fill="#00c0f4"/><g fill="#030606"><path d="m 13.203 14.816 h 0.75 c 0.344 0 0.625 0.191 0.625 0.43 c 0 0.234 -0.281 0.426 -0.625 0.426 h -0.75 c -0.344 0 -0.621 -0.191 -0.621 -0.426 c 0 -0.238 0.277 -0.43 0.621 -0.43"/><path d="m 13.203 13.01 h 0.75 c 0.344 0 0.625 0.191 0.625 0.426 c 0 0.238 -0.281 0.43 -0.625 0.43 h -0.75 c -0.344 0 -0.621 -0.191 -0.621 -0.43 c 0 -0.234 0.277 -0.426 0.621 -0.426"/></g><path d="m 7.227 5.891 h 7.418 v 0.594 h -7.418" fill="#728989"/></svg>