<svg xmlns="http://www.w3.org/2000/svg" viewBox="0 0 22 22"><path d="m 0.414 13.461 c 4.254 20.418 33.52 -1.5 15.938 -11.879 c -6.828 -4.449 -18.12 1.379 -15.938 11.879" fill="#82a37d"/><path d="m 6.488 6.426 v 1.816 h 1.816 c 3.02 0 5.453 2.434 5.453 5.453 v 1.816 h 1.816 v -1.816 c 0 -4.03 -3.242 -7.27 -7.27 -7.27 m -1.816 3.633 v 1.82 h 1.816 c 1.01 0 1.816 0.809 1.816 1.816 v 1.816 h 1.82 v -1.816 c 0 -2.02 -1.621 -3.637 -3.637 -3.637 m -0.758 3.332 c -0.586 0 -1.059 0.473 -1.059 1.063 c 0 0.586 0.473 1.059 1.059 1.059 c 0.586 0 1.063 -0.473 1.063 -1.059 c 0 -0.59 -0.477 -1.063 -1.063 -1.063" fill="#fff"/></svg>