<svg xmlns="http://www.w3.org/2000/svg" viewBox="0 0 22 22"><path d="m 0.176 11.06 c -1.652 -14.516 21.992 -14.313 21.711 0.258 c 0.781 13.547 -23 14.773 -21.711 -0.258" fill="#231f30"/><path d="m 6.527 6.957 c -0.414 0 -0.746 0.352 -0.746 0.789 v 7.09 c 0 0.438 0.332 0.789 0.746 0.789 h 8.199 c 0.414 0 0.746 -0.352 0.746 -0.789 v -7.09 c 0 -0.438 -0.332 -0.789 -0.746 -0.789 m -8.199 0.789 h 8.199 v 7.09 h -8.199" fill="#c0bfbb"/><path d="m 6.527 6.563 c -0.414 0 -0.746 0.352 -0.746 0.789 v 7.09 c 0 0.438 0.332 0.789 0.746 0.789 h 8.199 c 0.414 0 0.746 -0.352 0.746 -0.789 v -7.09 c 0 -0.438 -0.332 -0.789 -0.746 -0.789 m -8.199 0.789 h 8.199 v 7.09 h -8.199" fill="#deddd9"/><path d="m 6.527 7.746 h 8.199 v 6.695 h -8.199" fill="#231f30"/><g fill="#fff" stroke="#fff" transform="matrix(0.37277 0 0 0.39397 4.663 4.593)"><path d="m 6.605 17.672 c 0 -0.863 0.115 -1.011 1.184 -1.537 c 0.996 -0.486 1.781 -0.466 3.039 0.069 c 1.373 0.585 2.525 0.684 3.311 0.268 c 0.325 -0.178 0.723 -0.446 0.88 -0.605 l 0.304 -0.288 v 0.853 c 0 0.783 -0.031 0.873 -0.388 1.14 c -1.268 0.952 -2.326 1.061 -3.846 0.407 c -0.587 -0.248 -1.341 -0.446 -1.855 -0.496 c -0.754 -0.069 -0.954 -0.03 -1.54 0.288 c -0.377 0.198 -0.713 0.426 -0.765 0.506 c -0.189 0.337 -0.325 0.089 -0.325 -0.605" stroke-width="0.542"/><path d="m 17.12 19.516 v -0.793 l 0.964 -0.347 c 4.108 -1.497 5.135 -1.894 5.124 -2 c 0 -0.069 -0.744 -0.397 -1.645 -0.724 c -0.901 -0.327 -2.263 -0.833 -3.039 -1.11 l -1.404 -0.525 v -1.576 l 4.118 1.586 l 4.129 1.586 v 1.527 l -4.129 1.586 l -4.118 1.586" stroke-width="0.502"/></g></svg>