<svg xmlns="http://www.w3.org/2000/svg" viewBox="0 0 22 22" xmlns:xlink="http://www.w3.org/1999/xlink"><defs><linearGradient id="N" gradientUnits="userSpaceOnUse" x1="23.378" y1="19.876" x2="78.1" y2="-106.29" gradientTransform="matrix(0.02201 0 0 0.0195 6.544 15.947)" xlink:href="#6"/><linearGradient id="M" gradientUnits="userSpaceOnUse" x1="687.96" y1="236.13" x2="330.88" y2="418.54" gradientTransform="matrix(0.00624 0 0 0.00655 4.688 11.262)" xlink:href="#5"/><linearGradient id="X" gradientUnits="userSpaceOnUse" x1="42.44" y1="30.569" x2="129.23" y2="109.71" gradientTransform="matrix(0.01284 0 0 0.01557 9.8 13.169)" xlink:href="#8"/><linearGradient id="L" gradientUnits="userSpaceOnUse" x1="741.64" y1="169.44" x2="622.33" y2="287.74" gradientTransform="matrix(0.00603 0 0 0.00678 4.688 11.262)" xlink:href="#0"/><linearGradient id="J" gradientUnits="userSpaceOnUse" x1="201.39" y1="843.21" x2="547.81" y2="383.77" gradientTransform="matrix(0.00611 0 0 0.00688 5.421 9.549)" xlink:href="#1"/><linearGradient id="I" gradientUnits="userSpaceOnUse" x1="204.63" y1="839.62" x2="546.3" y2="386.48" gradientTransform="matrix(0.00611 0 0 0.00688 5.421 9.549)" xlink:href="#1"/><linearGradient id="K" gradientUnits="userSpaceOnUse" x1="728.97" y1="230.07" x2="351.71" y2="689.86" gradientTransform="scale(0.95542 1.04665)" xlink:href="#0"/><linearGradient id="O" gradientUnits="userSpaceOnUse" x1="22.406" y1="22.398" x2="78.38" y2="-106.66" gradientTransform="matrix(0.02202 0 0 0.01948 6.544 15.947)" xlink:href="#6"/><linearGradient id="W" gradientUnits="userSpaceOnUse" x1="22.406" y1="22.398" x2="78.38" y2="-106.66" gradientTransform="matrix(0.01445 0 0 0.01278 10.02 15.755)" xlink:href="#6"/><linearGradient id="V" gradientUnits="userSpaceOnUse" x1="23.378" y1="19.876" x2="78.1" y2="-106.29" gradientTransform="matrix(0.01444 0 0 0.01279 10.02 15.755)" xlink:href="#6"/><linearGradient id="P" gradientUnits="userSpaceOnUse" x1="42.44" y1="30.569" x2="129.23" y2="109.71" gradientTransform="matrix(0.01957 0 0 0.02373 6.202 12)" xlink:href="#8"/><linearGradient id="U" gradientUnits="userSpaceOnUse" x1="687.96" y1="236.13" x2="330.88" y2="418.54" gradientTransform="matrix(0.00409 0 0 0.0043 8.806 12.681)" xlink:href="#5"/><linearGradient id="T" gradientUnits="userSpaceOnUse" x1="741.64" y1="169.44" x2="622.33" y2="287.74" gradientTransform="matrix(0.00396 0 0 0.00445 8.806 12.681)" xlink:href="#0"/><linearGradient id="Q" gradientUnits="userSpaceOnUse" x1="207.87" y1="836.03" x2="544.79" y2="389.19" gradientTransform="matrix(0.004 0 0 0.00452 9.288 11.559)" xlink:href="#1"/><linearGradient id="S" gradientUnits="userSpaceOnUse" x1="201.39" y1="843.21" x2="547.81" y2="383.77" gradientTransform="matrix(0.00401 0 0 0.00451 9.288 11.559)" xlink:href="#1"/><linearGradient id="R" gradientUnits="userSpaceOnUse" x1="204.63" y1="839.62" x2="546.3" y2="386.48" gradientTransform="matrix(0.00401 0 0 0.00451 9.288 11.559)" xlink:href="#1"/><linearGradient id="H" gradientUnits="userSpaceOnUse" x1="207.87" y1="836.03" x2="544.79" y2="389.19" gradientTransform="matrix(0.0061 0 0 0.00689 5.421 9.549)" xlink:href="#1"/><linearGradient id="6" gradientUnits="userSpaceOnUse" x1="23.378" y1="19.876" x2="78.1" y2="-106.29" gradientTransform="matrix(0.08104 0 0 0.07178 6.56 18.366)"><stop stop-color="#000" stop-opacity="0.067"/><stop offset="1" stop-color="#000" stop-opacity="0"/></linearGradient><linearGradient id="5" gradientUnits="userSpaceOnUse" x1="687.96" y1="236.13" x2="330.88" y2="418.54" gradientTransform="matrix(0.02298 0 0 0.02411 -0.275 1.117)"><stop stop-color="#fff"/><stop offset="1" stop-color="#fff" stop-opacity="0"/></linearGradient><linearGradient id="G" gradientUnits="userSpaceOnUse" x1="208.2" y1="904.69" x2="207.1" y2="923.19" gradientTransform="matrix(-0.00995 -0.00314 0.00045 0.00424 14.772 12.503)" xlink:href="#F"/><linearGradient id="4" gradientUnits="userSpaceOnUse" x1="741.64" y1="169.44" x2="622.33" y2="287.74" gradientTransform="matrix(0.02219 0 0 0.02497 -0.275 1.117)" xlink:href="#0"/><linearGradient id="3" gradientUnits="userSpaceOnUse" x1="201.39" y1="843.21" x2="547.81" y2="383.77" gradientTransform="matrix(0.0225 0 0 0.02532 2.425 -5.187)" xlink:href="#1"/><linearGradient id="0" gradientUnits="userSpaceOnUse" x1="728.97" y1="230.07" x2="351.71" y2="689.86" gradientTransform="matrix(0.0764 0 0 0.0837 -3.509 -3.394)"><stop stop-color="#d7d7d7"/><stop offset="0.349" stop-color="#f1f1f1"/><stop offset="1" stop-color="#ededed"/></linearGradient><linearGradient id="2" gradientUnits="userSpaceOnUse" x1="204.63" y1="839.62" x2="546.3" y2="386.48" gradientTransform="matrix(0.02248 0 0 0.02534 2.425 -5.187)" xlink:href="#1"/><linearGradient id="1" gradientUnits="userSpaceOnUse" x1="207.87" y1="836.03" x2="544.79" y2="389.19" gradientTransform="matrix(0.02246 0 0 0.02536 2.425 -5.187)"><stop stop-color="#000" stop-opacity="0.071"/><stop offset="1" stop-color="#000" stop-opacity="0"/></linearGradient><linearGradient id="7" gradientUnits="userSpaceOnUse" x1="22.406" y1="22.398" x2="78.38" y2="-106.66" gradientTransform="matrix(0.0811 0 0 0.07173 6.56 18.366)" xlink:href="#6"/><linearGradient id="F" gradientUnits="userSpaceOnUse" x1="208.2" y1="904.69" x2="207.1" y2="923.19" gradientTransform="matrix(-0.00995 -0.00314 0.00045 0.00424 14.722 12.252)"><stop stop-color="#fff" stop-opacity="0.733"/><stop offset="1" stop-color="#fff" stop-opacity="0"/></linearGradient><linearGradient id="E" gradientUnits="userSpaceOnUse" x1="322.15" x2="334.01" gradientTransform="matrix(-0.01889 0.00349 0.0011 0.00626 22.733 9.504)"><stop stop-color="#f3fbf3" stop-opacity="0.439"/><stop offset="1" stop-color="#f3fbf3" stop-opacity="0"/></linearGradient><linearGradient id="8" gradientUnits="userSpaceOnUse" x1="42.44" y1="30.569" x2="129.23" y2="109.71" gradientTransform="matrix(0.07205 0 0 0.08737 5.299 3.856)"><stop stop-color="#de421e"/><stop offset="1" stop-color="#900"/></linearGradient><linearGradient id="D" gradientUnits="userSpaceOnUse" x1="339.16" y1="972.67" x2="343.23" y2="993.38" gradientTransform="matrix(-0.01812 0.00335 0.00115 0.00653 22.678 9.547)"><stop stop-color="#defbde" stop-opacity="0.69"/><stop offset="1" stop-color="#19c819" stop-opacity="0"/></linearGradient><linearGradient id="C" gradientUnits="userSpaceOnUse" x1="404.43" y1="296.76" x2="514.74" y2="521.23" gradientTransform="matrix(-0.01137 0.00127 0.00113 0.01062 18.883 9.5)" xlink:href="#9"/><linearGradient id="9" gradientUnits="userSpaceOnUse" x1="241.24" y1="361.57" x2="346.36" y2="590.43" gradientTransform="matrix(-0.01083 0.00121 0.00118 0.01115 18.883 9.5)"><stop stop-color="#535362"/><stop offset="0.5" stop-color="#a3a3be"/><stop offset="0.75" stop-color="#000"/><stop offset="1" stop-color="#535362" stop-opacity="0"/></linearGradient><linearGradient id="B" gradientUnits="userSpaceOnUse" x1="342.82" y1="254.97" x2="366.97" y2="326.85" gradientTransform="matrix(-0.00469 0.00052 0.00114 0.01078 18.448 12.11)"><stop stop-color="#191919" stop-opacity="0.69"/><stop offset="1" stop-color="#5b5b5b" stop-opacity="0.329"/></linearGradient><radialGradient id="A" gradientUnits="userSpaceOnUse" cx="338.29" cy="301.52" fx="339.8" fy="299.47" r="58.867" gradientTransform="matrix(-0.00469 0.00052 0.00114 0.01078 18.453 12.1)"><stop stop-color="#fff" stop-opacity="0.557"/><stop offset="0.609" stop-color="#999" stop-opacity="0.557"/><stop offset="1" stop-color="#333" stop-opacity="0.557"/></radialGradient></defs><path d="m 2.332 4.68 c -10.844 16.238 23.742 26.24 19.16 5.246 c -1.953 -8.676 -14.191 -13.941 -19.16 -5.246" fill="#e5e5e5"/><g fill-rule="evenodd"><path d="m 20.325 7.54 v 39.604 h 36.16 v -29.703 l -9.04 -9.901" transform="matrix(0.29051 0 0 0.29827 0.744 2.13)" stroke-opacity="0.365" fill="url(#0)" stroke="#000" stroke-width="0.115"/><path d="m 6.641 4.363 v 11.813 h 10.508 v -8.859 l -2.629 -2.953" fill="#fff"/><path d="m 6.555 4.594 v 11.695 h 10.359 v -8.77 l -2.59 -2.926" fill="url(#1)"/><path d="m 6.477 4.555 c 0 3.938 0 7.871 0 11.813 c 3.504 0 7.01 0 10.516 0 c 0 -2.961 0 -5.922 0 -8.883 c -0.879 -0.988 -1.754 -1.98 -2.637 -2.969 c -2.625 0 -5.254 0 -7.879 0 c 0 0.008 0 0.031 0 0.039" fill="url(#2)"/><path d="m 6.398 4.477 c 0 3.988 0 7.98 0 11.965 c 3.559 0 7.117 0 10.672 0 c 0 -2.992 0 -5.988 0 -8.984 c -0.891 -1.01 -1.785 -2.02 -2.676 -3.02 c -2.664 0 -5.328 0 -7.996 0 c 0 0.008 0 0.035 0 0.043" fill="url(#3)"/><path d="m 17.15 7.332 c -0.789 -0.242 -1.816 -0.207 -2.59 -0.07 c 0.133 -0.879 0.148 -1.984 -0.035 -2.883" fill="url(#4)"/><path d="m 6.727 5.289 l -0.051 10.828 h 10.313 l 0.004 -2.676 c -0.23 0.09 -2.559 -3.297 -5.488 -3.152 c -2.938 0.145 -2.18 -4.562 -4.777 -5" fill="url(#5)"/></g><path d="m 11.641 7.879 c -0.258 0.027 -0.398 0.102 -0.516 0.426 c -0.121 0.324 -0.004 0.91 0.156 1.355 c 0.07 0.148 0.156 0.293 0.234 0.441 c -0.043 0.219 -0.098 0.441 -0.172 0.66 c -0.293 0.887 -0.621 1.781 -1.113 2.621 c -0.688 0.254 -1.359 0.535 -1.992 0.855 c -0.383 0.18 -1.086 0.688 -0.441 0.953 c 0.359 0.152 0.738 0.121 1.078 0 c 0.172 -0.063 0.332 -0.148 0.48 -0.242 c 0.145 -0.094 0.281 -0.199 0.395 -0.301 c 0.344 -0.328 0.637 -0.676 0.898 -1.039 c 1.031 -0.344 2.094 -0.637 3.191 -0.844 c 0.457 0.301 1.133 0.602 1.699 0.305 c 0.574 -0.195 0.477 -0.777 -0.176 -0.781 c -0.43 -0.066 -0.859 -0.023 -1.285 0.047 c -0.184 -0.16 -0.355 -0.332 -0.512 -0.492 c -0.512 -0.609 -0.984 -1.234 -1.426 -1.875 c 0.121 -0.586 0.242 -1.238 0.145 -1.664 c -0.094 -0.422 -0.371 -0.457 -0.645 -0.43 m -0.086 0.441 c 0.07 -0.113 0.25 0.008 0.246 0.16 c -0.004 0.156 -0.035 0.5 -0.184 0.598 c -0.109 -0.25 -0.129 -0.641 -0.063 -0.758 m 0.383 2.492 c 0.398 0.598 0.887 1.168 1.496 1.66 c -0.18 0.035 -0.363 0.074 -0.539 0.105 c -0.656 0.156 -1.297 0.344 -1.926 0.555 c 0.449 -0.742 0.742 -1.527 0.969 -2.32 m 2.762 1.84 c 0.23 0 0.414 0.043 0.371 0.207 c -0.195 -0.035 -0.363 -0.105 -0.523 -0.195 c 0.051 0 0.105 -0.012 0.152 -0.012 m -4.793 1.223 c -0.051 0.07 -0.09 0.145 -0.141 0.215 c -0.328 0.379 -0.809 0.855 -1.469 0.848 c -0.195 -0.414 0.609 -0.645 0.984 -0.832 c 0.207 -0.082 0.418 -0.152 0.621 -0.23" fill="url(#6)"/><path d="m 11.637 7.793 c -0.672 0.082 -0.719 0.707 -0.645 1.113 c 0.074 0.41 0.164 0.824 0.402 1.203 c -0.293 1.094 -0.688 2.176 -1.258 3.211 c -0.883 0.383 -1.871 0.684 -2.555 1.262 c -0.234 0.223 -0.195 0.602 0.207 0.691 c 0.715 0.293 1.516 -0.105 1.969 -0.52 c 0.422 -0.313 0.652 -0.754 1.02 -1.082 c 0.996 -0.313 2 -0.586 3.039 -0.809 c 0.488 0.313 1.25 0.59 1.836 0.258 c 0.555 -0.164 0.457 -0.883 -0.164 -0.902 c -0.449 -0.086 -0.91 -0.027 -1.355 0.023 c -0.762 -0.695 -1.293 -1.508 -1.871 -2.293 c 0.074 -0.648 0.363 -1.359 -0.02 -1.98 c -0.125 -0.152 -0.383 -0.203 -0.605 -0.176 m 0.043 0.695 c 0.055 0.453 -0.137 -0.066 0 0 m 0.828 3.238 c 0.227 0.238 0.461 0.477 0.723 0.699 c -0.695 0.148 -1.375 0.324 -2.043 0.539 c 0.363 -0.617 0.563 -1.277 0.789 -1.93 c 0.176 0.23 0.355 0.461 0.531 0.691 m -3.094 2.586 c -0.262 0.23 -0.578 0.484 -1 0.523 c 0.074 -0.398 0.699 -0.516 1.09 -0.715 c 0.379 -0.191 -0.07 0.129 -0.086 0.191" fill="url(#7)"/><path d="m 11.469 5.293 c -0.258 0.039 -0.402 0.145 -0.52 0.586 c -0.121 0.445 -0.004 1.242 0.16 1.855 c 0.066 0.203 0.152 0.402 0.23 0.602 c -0.043 0.305 -0.098 0.605 -0.172 0.906 c -0.289 1.215 -0.617 2.438 -1.113 3.586 c -0.688 0.348 -1.355 0.734 -1.992 1.172 c -0.383 0.25 -1.082 0.941 -0.441 1.305 c 0.363 0.211 0.738 0.168 1.078 0 c 0.172 -0.086 0.332 -0.203 0.48 -0.332 c 0.145 -0.129 0.281 -0.27 0.395 -0.41 c 0.344 -0.445 0.637 -0.922 0.898 -1.422 c 1.031 -0.473 2.098 -0.875 3.195 -1.152 c 0.457 0.41 1.129 0.82 1.699 0.414 c 0.57 -0.266 0.477 -1.059 -0.18 -1.07 c -0.43 -0.09 -0.859 -0.035 -1.281 0.063 c -0.188 -0.219 -0.355 -0.453 -0.516 -0.672 c -0.512 -0.832 -0.98 -1.691 -1.426 -2.566 c 0.121 -0.805 0.242 -1.695 0.148 -2.277 c -0.098 -0.578 -0.371 -0.629 -0.645 -0.586 m -0.086 0.602 c 0.066 -0.156 0.246 0.012 0.242 0.223 c -0.004 0.211 -0.035 0.684 -0.18 0.816 c -0.109 -0.344 -0.133 -0.879 -0.063 -1.039 m 0.379 3.406 c 0.398 0.824 0.887 1.602 1.496 2.273 c -0.18 0.055 -0.363 0.105 -0.539 0.152 c -0.652 0.211 -1.293 0.469 -1.926 0.754 c 0.449 -1.012 0.742 -2.094 0.969 -3.18 m 2.766 2.527 c 0.23 0 0.414 0.059 0.371 0.285 c -0.195 -0.055 -0.363 -0.148 -0.523 -0.266 c 0.051 -0.008 0.105 -0.02 0.152 -0.02 m -4.793 1.672 c -0.047 0.098 -0.09 0.199 -0.141 0.293 c -0.332 0.52 -0.809 1.172 -1.469 1.16 c -0.195 -0.566 0.609 -0.883 0.988 -1.137 c 0.203 -0.109 0.414 -0.211 0.621 -0.316" fill="url(#8)"/><g fill-rule="evenodd"><path d="m 609.32 371.7 l 41.647 -27.683 c 14.935 -38.11 -0.462 -90.12 -56.49 -88.59 l -50.553 21.985" transform="matrix(-0.01084 0.00121 0.00118 0.01113 18.883 9.5)" fill="#191919" stroke="#000"/><path d="m 18.01 15.328 c -0.203 -1.078 -2.508 -1.93 -4 -2.262 c -0.332 0.027 -0.348 0.051 -0.621 0.148 l 3.887 1.496" fill="#757586"/><path d="m 17.293 14.703 l -3.871 -1.504 c -0.5 0.043 -0.797 0.258 -0.82 0.926 c -0.094 0.652 0.188 1.199 0.285 1.797 c 2.023 0.57 2.707 1.059 4.059 1.406 c 0.594 -0.016 1.258 -0.055 1.207 -1.051 c 0.039 -0.371 -0.148 -1.766 -0.859 -1.574" fill="#2c2c2f"/><path d="m 17.297 16.18 c 0.004 0.199 -0.305 -0.191 -0.203 0.004 c 0.23 0.461 -0.16 1 -0.387 1.066 c 0.148 0.023 0.184 0.121 0.422 0.031 c 0.148 -0.191 0.363 -0.855 0.168 -1.102" fill="#191919"/><path d="m 17.316 14.727 c 0.168 -0.008 0.285 -0.031 0.52 0.266 c 0.227 0.371 0.277 0.852 0.277 1.117 c -0.191 0.234 -0.566 0.074 -0.781 0.137" fill="#5f5f5f"/><path d="m 17.281 16.242 l -2.188 -0.832 c -0.148 -0.391 -0.508 -0.977 0.133 -1.512 l 2.082 0.813" fill="url(#9)"/></g><path d="m 16.926 15.504 c 0.043 0.426 0.238 0.758 0.43 0.734 c 0.191 -0.02 0.313 -0.387 0.266 -0.816 c -0.047 -0.426 -0.238 -0.754 -0.43 -0.734 c -0.195 0.023 -0.313 0.387 -0.266 0.813" fill="#191919"/><path d="m 17.02 15.484 c 0.035 0.352 0.191 0.621 0.344 0.605 c 0.152 -0.02 0.242 -0.316 0.207 -0.664 c -0.035 -0.352 -0.191 -0.621 -0.344 -0.605 c -0.152 0.016 -0.246 0.313 -0.207 0.664" fill="#333"/><path d="m 16.977 15.504 c 0.039 0.379 0.211 0.668 0.383 0.652 c 0.168 -0.02 0.273 -0.344 0.234 -0.723 c -0.039 -0.379 -0.211 -0.672 -0.379 -0.652 c -0.172 0.02 -0.277 0.34 -0.238 0.719"/><path d="m 15.03 15.453 c 0.129 0.531 -0.152 0.656 -0.273 0.953 l -1.789 -0.609 c -0.145 -0.348 -0.293 -0.832 -0.254 -1.113" fill="#535362" fill-rule="evenodd"/><path d="m 17.01 15.484 c 0.039 0.352 0.191 0.621 0.344 0.605 c 0.152 -0.02 0.246 -0.316 0.211 -0.668 c -0.039 -0.348 -0.191 -0.621 -0.344 -0.602 c -0.152 0.016 -0.246 0.313 -0.211 0.664" fill="url(#A)"/><path d="m 17.01 15.492 c 0.039 0.352 0.191 0.621 0.344 0.602 c 0.152 -0.016 0.246 -0.313 0.207 -0.664 c -0.035 -0.352 -0.188 -0.621 -0.344 -0.602 c -0.152 0.016 -0.242 0.313 -0.207 0.664 l 0.277 -0.031" fill="url(#B)"/><g fill-rule="evenodd"><path d="m 15.16 13.871 c -0.672 0.574 -0.324 1.043 -0.152 1.508 l -2.254 -0.734 c -0.137 -0.512 -0.344 -1.383 0.621 -1.48" fill="url(#C)"/><path d="m 14.703 14.648 c -0.828 -0.016 -1.324 -0.504 -1.98 -0.641 c -0.039 0.145 0.004 0.289 0.031 0.441 l 2.09 0.703 c -0.086 -0.156 -0.121 -0.336 -0.141 -0.504" fill="#6a6a78"/><path d="m 16.301 14.965 c -0.059 0.215 -0.082 0.664 0.059 0.91 l -0.113 -0.043 c -0.117 -0.242 -0.125 -0.652 -0.043 -0.91" fill="#0f0f11"/></g><path d="m 17.711 17.02 l -0.207 0.035 c -0.027 0.008 -0.043 0.031 -0.035 0.063 c 0.004 0.031 0.027 0.051 0.055 0.047 l 0.207 -0.039 c 0.027 -0.004 0.043 -0.031 0.035 -0.063 c -0.004 -0.027 -0.031 -0.051 -0.055 -0.043" fill="#19c819"/><path d="m 17.711 17.02 l -0.207 0.035 c -0.027 0.008 -0.043 0.031 -0.035 0.063 c 0.004 0.031 0.027 0.051 0.055 0.047 l 0.207 -0.039 c 0.027 -0.004 0.043 -0.031 0.035 -0.063 c -0.004 -0.027 -0.031 -0.051 -0.055 -0.043" fill="url(#D)"/><path d="m 17.586 17.11 l 0.168 -0.051 c -0.059 -0.051 0.004 -0.047 -0.176 -0.004 l -0.012 0.047" fill="url(#E)" fill-rule="evenodd"/><g fill="#1f1f61"><path d="m 13.277 15.391 l -0.117 -0.039 c -0.027 -0.008 -0.047 0.004 -0.043 0.031 c 0 0.023 0.023 0.051 0.051 0.063 l 0.121 0.035 c 0.027 0.008 0.047 -0.004 0.043 -0.031 c -0.004 -0.023 -0.027 -0.051 -0.055 -0.059"/><path d="m 13.04 15.313 l -0.121 -0.035 c -0.027 -0.008 -0.047 0.004 -0.043 0.031 c 0.004 0.023 0.027 0.051 0.051 0.059 l 0.121 0.039 c 0.027 0.008 0.047 -0.004 0.043 -0.031 c 0 -0.027 -0.023 -0.055 -0.051 -0.063"/><path d="m 13.336 15.523 l -0.117 -0.039 c -0.027 -0.008 -0.047 0.008 -0.043 0.031 c 0 0.023 0.027 0.055 0.051 0.063 l 0.121 0.039 c 0.027 0.008 0.047 -0.008 0.043 -0.035 c -0.004 -0.023 -0.027 -0.051 -0.055 -0.059"/></g><path d="m 13.11 15.449 l -0.129 -0.043 c -0.023 -0.004 -0.043 0.008 -0.039 0.035 c 0 0.023 0.023 0.051 0.051 0.059 l 0.125 0.039 c 0.023 0.008 0.043 -0.008 0.039 -0.031 c -0.004 -0.023 -0.023 -0.051 -0.047 -0.059" fill="url(#F)"/><g fill="#1f1f61"><path d="m 13.352 15.637 l -0.121 -0.035 c -0.027 -0.012 -0.047 0.004 -0.043 0.027 c 0.004 0.027 0.027 0.055 0.051 0.066 l 0.125 0.035 c 0.023 0.008 0.043 -0.004 0.043 -0.031 c -0.004 -0.023 -0.027 -0.051 -0.055 -0.063"/><path d="m 13.11 15.563 l -0.121 -0.035 c -0.027 -0.012 -0.047 0.004 -0.043 0.031 c 0 0.023 0.023 0.051 0.051 0.059 l 0.121 0.039 c 0.027 0.008 0.047 -0.008 0.047 -0.031 c -0.004 -0.023 -0.027 -0.051 -0.055 -0.063"/><path d="m 13.383 15.773 l -0.121 -0.035 c -0.027 -0.012 -0.043 0.004 -0.043 0.027 c 0.004 0.027 0.027 0.055 0.055 0.063 l 0.121 0.039 c 0.027 0.008 0.047 -0.008 0.043 -0.031 c -0.004 -0.023 -0.027 -0.051 -0.055 -0.063"/></g><path d="m 13.152 15.699 l -0.129 -0.039 c -0.023 -0.008 -0.043 0.004 -0.039 0.031 c 0.004 0.023 0.027 0.051 0.051 0.059 l 0.129 0.043 c 0.023 0.004 0.039 -0.008 0.039 -0.035 c -0.004 -0.023 -0.027 -0.051 -0.051 -0.059" fill="url(#G)"/><g stroke="#000"><g fill-rule="evenodd" stroke-linejoin="bevel"><g fill="#363636"><g stroke-width="3.75"><path d="m 79.85 270.04 h 352.47 l 60.45 60.4 l -443.14 3.03" transform="matrix(0.01758 0 0 0.01804 4.71 10.991)"/><g transform="matrix(0.01758 0 0 0.01804 4.83 9.989)"><path d="m 42.803 388.14 v 15.37 l 442.26 -2.814 v -14.721"/><path d="m 73.03 325.57 c -4.445 -2.165 -1.111 -5.196 -0.889 -5.845 c 1.778 0 353.58 -0.866 353.58 -0.866 c 0.222 0.216 3.556 2.381 0 5.845 c -6.889 0.866 -352.69 2.814 -352.69 0.866"/></g></g><path d="m -27.11 33.21 l -0.183 -18.977 c 0 0 0.712 -1.605 1.708 -1.704 c 0.976 -0.079 30.28 0.099 30.28 0.099 c 0 0 0.549 0.178 0.63 0.812 c 0.081 0.614 -0.081 19.69 -0.081 19.69" transform="matrix(0.19208 0 0 0.1972 11.285 9.189)" stroke-width="0.343"/></g><g stroke-width="3.75" transform="matrix(0.01758 0 0 0.01804 4.83 9.989)"><path d="m 75.917 330.55 l 346.92 0.866 l 42.67 42.863 l -408.03 -1.732" fill="#595959"/><path d="m 56.58 372.55 v 7.577 h 408.03 v -5.845" fill="#4c4c4c"/></g></g><g fill="none" stroke-width="1.25" transform="matrix(0.01758 0 0 0.01804 4.83 9.989)"><path d="m 76.14 338.13 c 1.333 0 350.03 2.381 350.03 2.381"/><path d="m 72.36 350.04 h 363.81"/><path d="m 66.805 360 l 381.36 1.948 l -1.333 0.649"/><path d="m 111.25 333.8 l -13.11 36.802"/><path d="m 169.92 334.45 c 0 0 -8.667 34.853 -8.667 35.503"/><path d="m 377.5 333.8 l 22.446 37.451"/><path d="m 316.16 332.5 l 5.778 36.802"/><path d="m 246.82 334.45 l 2 36.15"/></g></g><g fill-rule="evenodd"><path d="m 6.566 12.145 v 3.207 h 2.852 v -2.406 l -0.711 -0.801" fill="#fff"/><path d="m 6.543 12.203 v 3.18 h 2.812 v -2.383 l -0.703 -0.793" fill="url(#H)"/><path d="m 6.523 12.195 c 0 1.07 0 2.137 0 3.207 c 0.949 0 1.902 0 2.855 0 c 0 -0.805 0 -1.609 0 -2.414 c -0.238 -0.27 -0.477 -0.539 -0.715 -0.805 c -0.715 0 -1.43 0 -2.141 0 c 0 0 0 0.008 0 0.008" fill="url(#I)"/><path d="m 6.5 12.176 c 0 1.082 0 2.164 0 3.25 c 0.969 0 1.934 0 2.898 0 c 0 -0.813 0 -1.629 0 -2.441 c -0.242 -0.273 -0.484 -0.547 -0.727 -0.82 c -0.723 0 -1.449 0 -2.172 0 c 0 0.004 0 0.008 0 0.012" fill="url(#J)"/><path d="m 297.65 136.86 v 495.2 h 452.44 v -371.55 l -113.27 -123.65" transform="matrix(0.00631 0 0 0.00648 4.688 11.262)" stroke-opacity="0.365" fill="url(#K)" stroke="#000" stroke-width="1.438"/><path d="m 9.418 12.949 c -0.215 -0.066 -0.492 -0.059 -0.703 -0.02 c 0.039 -0.238 0.043 -0.539 -0.008 -0.785" fill="url(#L)"/><path d="m 6.59 12.395 l -0.012 2.941 h 2.797 l 0.004 -0.727 c -0.063 0.023 -0.695 -0.898 -1.492 -0.855 c -0.797 0.039 -0.59 -1.242 -1.297 -1.359" fill="url(#M)"/></g><path d="m 7.926 13.1 c -0.07 0.008 -0.109 0.027 -0.141 0.117 c -0.031 0.086 -0.004 0.246 0.043 0.367 c 0.016 0.039 0.039 0.078 0.063 0.121 c -0.012 0.059 -0.027 0.117 -0.047 0.176 c -0.078 0.242 -0.168 0.488 -0.301 0.715 c -0.188 0.066 -0.371 0.145 -0.543 0.23 c -0.105 0.051 -0.297 0.188 -0.121 0.258 c 0.102 0.043 0.203 0.035 0.297 0 c 0.043 -0.016 0.086 -0.039 0.129 -0.066 c 0.039 -0.023 0.074 -0.051 0.105 -0.078 c 0.094 -0.09 0.172 -0.184 0.246 -0.281 c 0.277 -0.094 0.566 -0.176 0.867 -0.23 c 0.121 0.082 0.305 0.164 0.461 0.082 c 0.156 -0.051 0.129 -0.211 -0.047 -0.211 c -0.117 -0.02 -0.234 -0.008 -0.352 0.012 c -0.047 -0.043 -0.094 -0.09 -0.137 -0.133 c -0.141 -0.168 -0.27 -0.336 -0.387 -0.512 c 0.031 -0.156 0.066 -0.336 0.039 -0.449 c -0.027 -0.117 -0.102 -0.125 -0.176 -0.117 m -0.023 0.117 c 0.02 -0.027 0.066 0.004 0.066 0.047 c 0 0.039 -0.008 0.137 -0.047 0.16 c -0.031 -0.066 -0.039 -0.172 -0.02 -0.203 m 0.105 0.676 c 0.105 0.164 0.238 0.316 0.406 0.449 c -0.051 0.012 -0.102 0.02 -0.148 0.031 c -0.176 0.043 -0.352 0.094 -0.523 0.148 c 0.121 -0.199 0.203 -0.414 0.266 -0.629 m 0.75 0.5 c 0.063 0 0.109 0.012 0.098 0.055 c -0.051 -0.008 -0.098 -0.027 -0.141 -0.051 c 0.016 0 0.027 -0.004 0.043 -0.004 m -1.301 0.332 c -0.016 0.02 -0.023 0.039 -0.039 0.059 c -0.09 0.102 -0.219 0.234 -0.398 0.23 c -0.055 -0.113 0.164 -0.176 0.266 -0.227 c 0.059 -0.02 0.113 -0.039 0.172 -0.063" fill="url(#N)"/><path d="m 7.922 13.07 c -0.18 0.023 -0.191 0.191 -0.172 0.305 c 0.02 0.109 0.043 0.223 0.109 0.324 c -0.082 0.297 -0.191 0.594 -0.344 0.875 c -0.238 0.102 -0.508 0.184 -0.695 0.34 c -0.063 0.063 -0.051 0.164 0.059 0.188 c 0.191 0.078 0.41 -0.031 0.531 -0.141 c 0.117 -0.086 0.18 -0.207 0.277 -0.293 c 0.273 -0.086 0.547 -0.16 0.828 -0.223 c 0.133 0.086 0.34 0.164 0.5 0.07 c 0.148 -0.043 0.121 -0.238 -0.047 -0.246 c -0.125 -0.023 -0.246 -0.004 -0.367 0.008 c -0.207 -0.188 -0.352 -0.41 -0.508 -0.621 c 0.02 -0.18 0.098 -0.371 -0.008 -0.539 c -0.035 -0.043 -0.105 -0.055 -0.164 -0.047 m 0.012 0.188 c 0.016 0.125 -0.035 -0.02 0 0 m 0.227 0.879 c 0.063 0.066 0.125 0.133 0.195 0.191 c -0.188 0.039 -0.375 0.09 -0.555 0.145 c 0.098 -0.164 0.152 -0.348 0.215 -0.523 c 0.047 0.063 0.098 0.125 0.145 0.188 m -0.844 0.703 c -0.07 0.063 -0.152 0.133 -0.27 0.141 c 0.02 -0.105 0.188 -0.141 0.297 -0.195 c 0.102 -0.047 -0.023 0.035 -0.027 0.055" fill="url(#O)"/><path d="m 7.875 12.398 c -0.07 0.012 -0.109 0.039 -0.141 0.16 c -0.031 0.121 0 0.336 0.043 0.504 c 0.02 0.055 0.043 0.105 0.063 0.16 c -0.012 0.082 -0.027 0.164 -0.047 0.246 c -0.078 0.332 -0.168 0.664 -0.301 0.977 c -0.188 0.094 -0.371 0.199 -0.543 0.316 c -0.102 0.066 -0.293 0.254 -0.117 0.355 c 0.098 0.055 0.199 0.047 0.293 0 c 0.047 -0.023 0.09 -0.055 0.129 -0.09 c 0.039 -0.035 0.074 -0.074 0.105 -0.113 c 0.094 -0.121 0.176 -0.25 0.246 -0.387 c 0.277 -0.129 0.57 -0.234 0.867 -0.313 c 0.125 0.113 0.305 0.223 0.465 0.113 c 0.152 -0.07 0.125 -0.289 -0.051 -0.289 c -0.117 -0.027 -0.23 -0.012 -0.348 0.016 c -0.051 -0.059 -0.098 -0.121 -0.141 -0.18 c -0.137 -0.23 -0.266 -0.461 -0.387 -0.699 c 0.035 -0.219 0.066 -0.457 0.039 -0.617 c -0.023 -0.16 -0.102 -0.172 -0.176 -0.16 m -0.023 0.164 c 0.02 -0.043 0.066 0 0.066 0.059 c 0 0.055 -0.008 0.184 -0.047 0.223 c -0.031 -0.094 -0.035 -0.238 -0.02 -0.281 m 0.105 0.926 c 0.109 0.223 0.242 0.434 0.406 0.617 c -0.051 0.012 -0.098 0.027 -0.148 0.039 c -0.176 0.059 -0.352 0.129 -0.523 0.207 c 0.125 -0.277 0.203 -0.57 0.266 -0.863 m 0.75 0.684 c 0.063 0 0.113 0.016 0.102 0.078 c -0.055 -0.016 -0.102 -0.039 -0.145 -0.07 c 0.016 -0.004 0.031 -0.008 0.043 -0.008 m -1.301 0.457 c -0.016 0.023 -0.023 0.051 -0.039 0.078 c -0.09 0.141 -0.219 0.316 -0.398 0.316 c -0.055 -0.156 0.164 -0.242 0.27 -0.313 c 0.055 -0.027 0.109 -0.055 0.168 -0.082" fill="url(#P)"/><g fill-rule="evenodd"><path d="m 10.04 13.258 v 2.105 h 1.871 v -1.578 l -0.465 -0.527" fill="#fff"/><path d="m 10.02 13.301 v 2.082 h 1.848 v -1.563 l -0.465 -0.52" fill="url(#Q)"/><path d="m 10.01 13.293 c 0 0.699 0 1.402 0 2.105 c 0.621 0 1.25 0 1.871 0 c 0 -0.527 0 -1.055 0 -1.582 c -0.156 -0.18 -0.313 -0.355 -0.469 -0.531 c -0.469 0 -0.934 0 -1.402 0 c 0 0 0 0.008 0 0.008" fill="url(#R)"/><path d="m 9.996 13.277 c 0 0.711 0 1.426 0 2.137 c 0.633 0 1.27 0 1.902 0 c 0 -0.535 0 -1.07 0 -1.602 c -0.16 -0.18 -0.316 -0.359 -0.477 -0.539 c -0.477 0 -0.949 0 -1.426 0 c 0 0 0 0.004 0 0.004" fill="url(#S)"/><path d="m 297.93 136.69 v 495.55 h 452.09 v -371.43 l -113.26 -124.12" transform="matrix(0.00414 0 0 0.00425 8.806 12.681)" stroke-opacity="0.365" fill="url(#K)" stroke="#000" stroke-width="1.438"/><path d="m 11.91 13.793 c -0.141 -0.043 -0.324 -0.039 -0.461 -0.016 c 0.023 -0.156 0.027 -0.352 -0.008 -0.512" fill="url(#T)"/><path d="m 10.05 13.426 l -0.008 1.93 h 1.836 l 0.004 -0.477 c -0.043 0.016 -0.457 -0.59 -0.98 -0.563 c -0.523 0.027 -0.387 -0.813 -0.852 -0.891" fill="url(#U)"/></g><path d="m 10.93 13.887 c -0.043 0.008 -0.07 0.02 -0.09 0.078 c -0.023 0.059 -0.004 0.16 0.027 0.238 c 0.012 0.027 0.027 0.055 0.043 0.078 c -0.012 0.039 -0.02 0.082 -0.031 0.121 c -0.055 0.156 -0.109 0.316 -0.199 0.465 c -0.125 0.047 -0.242 0.098 -0.355 0.152 c -0.066 0.035 -0.195 0.125 -0.078 0.172 c 0.063 0.027 0.133 0.02 0.191 0 c 0.031 -0.012 0.059 -0.027 0.086 -0.043 c 0.027 -0.02 0.051 -0.035 0.07 -0.055 c 0.063 -0.059 0.113 -0.121 0.16 -0.184 c 0.184 -0.063 0.375 -0.113 0.57 -0.152 c 0.082 0.055 0.203 0.109 0.301 0.055 c 0.102 -0.035 0.086 -0.137 -0.031 -0.141 c -0.074 -0.008 -0.152 -0.004 -0.227 0.012 c -0.035 -0.031 -0.066 -0.059 -0.094 -0.09 c -0.09 -0.109 -0.176 -0.219 -0.254 -0.332 c 0.023 -0.105 0.043 -0.223 0.027 -0.297 c -0.016 -0.078 -0.066 -0.082 -0.117 -0.078 m -0.012 0.078 c 0.012 -0.02 0.043 0 0.043 0.031 c 0 0.027 -0.008 0.086 -0.031 0.105 c -0.02 -0.047 -0.023 -0.113 -0.012 -0.137 m 0.066 0.445 c 0.07 0.105 0.16 0.207 0.266 0.297 c -0.031 0.008 -0.063 0.012 -0.094 0.02 c -0.117 0.027 -0.23 0.059 -0.344 0.094 c 0.082 -0.129 0.133 -0.27 0.172 -0.41 m 0.492 0.328 c 0.043 0 0.074 0.008 0.066 0.039 c -0.035 -0.008 -0.066 -0.02 -0.094 -0.039 c 0.012 0 0.02 0 0.027 0 m -0.852 0.219 c -0.008 0.012 -0.016 0.023 -0.027 0.039 c -0.059 0.066 -0.145 0.152 -0.258 0.148 c -0.039 -0.074 0.105 -0.113 0.172 -0.145 c 0.039 -0.016 0.074 -0.031 0.109 -0.043" fill="url(#V)"/><path d="m 10.93 13.871 c -0.121 0.016 -0.129 0.125 -0.113 0.199 c 0.012 0.07 0.027 0.145 0.07 0.215 c -0.055 0.195 -0.125 0.387 -0.227 0.57 c -0.152 0.066 -0.332 0.121 -0.453 0.223 c -0.039 0.043 -0.035 0.109 0.039 0.125 c 0.125 0.051 0.266 -0.02 0.352 -0.094 c 0.074 -0.055 0.113 -0.133 0.18 -0.191 c 0.176 -0.055 0.355 -0.105 0.543 -0.145 c 0.086 0.055 0.223 0.105 0.328 0.047 c 0.098 -0.027 0.078 -0.156 -0.031 -0.16 c -0.082 -0.016 -0.16 -0.008 -0.242 0.004 c -0.137 -0.125 -0.227 -0.27 -0.332 -0.41 c 0.012 -0.117 0.063 -0.242 -0.004 -0.352 c -0.023 -0.027 -0.066 -0.035 -0.109 -0.031 m 0.008 0.125 c 0.012 0.078 -0.023 -0.012 0 0 m 0.148 0.574 c 0.039 0.043 0.082 0.086 0.129 0.125 c -0.125 0.027 -0.246 0.059 -0.363 0.098 c 0.063 -0.109 0.102 -0.227 0.141 -0.344 c 0.031 0.039 0.063 0.082 0.094 0.121 m -0.551 0.461 c -0.047 0.039 -0.102 0.086 -0.18 0.094 c 0.012 -0.07 0.125 -0.094 0.195 -0.129 c 0.066 -0.035 -0.012 0.023 -0.016 0.035" fill="url(#W)"/><path d="m 10.898 13.426 c -0.047 0.004 -0.07 0.023 -0.094 0.102 c -0.02 0.078 0 0.223 0.031 0.332 c 0.012 0.035 0.027 0.07 0.039 0.105 c -0.004 0.055 -0.016 0.109 -0.027 0.164 c -0.055 0.215 -0.113 0.434 -0.199 0.637 c -0.125 0.063 -0.242 0.133 -0.355 0.211 c -0.066 0.043 -0.195 0.168 -0.078 0.23 c 0.063 0.039 0.129 0.031 0.191 0 c 0.031 -0.012 0.059 -0.035 0.086 -0.059 c 0.027 -0.023 0.051 -0.047 0.07 -0.074 c 0.059 -0.078 0.113 -0.164 0.16 -0.25 c 0.184 -0.086 0.371 -0.156 0.566 -0.207 c 0.082 0.074 0.203 0.145 0.305 0.074 c 0.102 -0.047 0.086 -0.188 -0.031 -0.191 c -0.078 -0.016 -0.152 -0.008 -0.23 0.012 c -0.031 -0.039 -0.063 -0.082 -0.09 -0.121 c -0.09 -0.148 -0.176 -0.301 -0.254 -0.457 c 0.02 -0.141 0.043 -0.301 0.027 -0.406 c -0.02 -0.102 -0.066 -0.109 -0.113 -0.102 m -0.02 0.105 c 0.016 -0.027 0.047 0.004 0.043 0.039 c 0 0.039 -0.004 0.121 -0.031 0.145 c -0.02 -0.059 -0.023 -0.156 -0.012 -0.184 m 0.07 0.605 c 0.07 0.148 0.156 0.285 0.266 0.406 c -0.031 0.008 -0.063 0.02 -0.098 0.027 c -0.113 0.035 -0.23 0.082 -0.34 0.133 c 0.078 -0.18 0.133 -0.371 0.172 -0.566 m 0.492 0.449 c 0.039 0 0.074 0.012 0.066 0.051 c -0.035 -0.008 -0.066 -0.023 -0.094 -0.047 c 0.008 0 0.02 -0.004 0.027 -0.004 m -0.855 0.301 c -0.008 0.016 -0.016 0.035 -0.023 0.051 c -0.059 0.09 -0.145 0.207 -0.262 0.207 c -0.035 -0.102 0.109 -0.16 0.176 -0.203 c 0.035 -0.02 0.074 -0.039 0.109 -0.055" fill="url(#X)"/></svg>