<svg xmlns="http://www.w3.org/2000/svg" viewBox="0 0 22 22"><path d="m 21.04 7.516 c 4.27 10.949 -7.695 16.566 -15.14 13.777 c -5.199 -1.949 -7.789 -9.711 -4.098 -15.988 c 4.66 -7.918 15.953 -6.234 19.246 2.211" fill="#9f522d"/><path d="m 17.305 11.05 c 0 3.574 -2.887 6.469 -6.441 6.469 c -3.559 0 -6.441 -2.895 -6.441 -6.469 c 0 -3.57 2.883 -6.465 6.441 -6.465 c 3.555 0 6.441 2.895 6.441 6.465" fill="#fff"/><g stroke="#000"><path d="m 557.47 342.58 c 0 96.15 -77.935 174.1 -174.04 174.1 c -96.11 0 -174.04 -77.945 -174.04 -174.1 c 0 -96.04 77.935 -173.99 174.04 -173.99 c 96.11 0 174.04 77.945 174.04 173.99" transform="matrix(0.03503 0 0 0.03518 -2.57 -0.998)" fill="#ffe5b7" stroke-width="4"/><path d="m 216.68 642.97 c 1.226 1.777 194.45 0 194.45 0" transform="matrix(0.03503 0 0 0.03518 -0.134 -8.679)" fill="none" stroke-width="8"/></g><path d="m 8.742 10.289 c 0 0.238 -0.191 0.434 -0.43 0.434 c -0.234 0 -0.426 -0.195 -0.426 -0.434 c 0 -0.234 0.191 -0.43 0.426 -0.43 c 0.238 0 0.43 0.195 0.43 0.43"/><path d="m 13.84 10.289 c 0 0.238 -0.191 0.434 -0.43 0.434 c -0.234 0 -0.43 -0.195 -0.43 -0.434 c 0 -0.234 0.195 -0.43 0.43 -0.43 c 0.238 0 0.43 0.195 0.43 0.43"/><path d="m 139.86 560.91 l 70.69 -100.6 l 9.477 48.965 l 35.456 -33.976 l 85.63 23.09 l 18.954 -29.868 l 38.13 28.535 l -9.477 -39.42 l 51.622 17.654 l 47.609 94.16 c 1.338 -248.82 -345.41 -231.5 -348.09 -8.55" transform="matrix(0.03503 0 0 0.03518 -0.134 -8.679)" stroke="#000"/></svg>