<svg xmlns="http://www.w3.org/2000/svg" viewBox="0 0 22 22"><path d="m 19.379 5.723 c 7.781 8.859 -3.734 18.238 -10.484 15.934 c -6.746 -2.305 -11.277 -8.813 -6.871 -14.516 c 4.402 -5.707 8.734 -11.207 16.516 -2.348" fill="#d1b38c"/><g fill-rule="evenodd"><path d="m 10.922 3.254 c 3.445 0 6.238 2.656 6.238 5.934 c 0 3.273 -2.793 5.93 -6.238 5.93 c -3.445 0 -6.242 -2.652 -6.242 -5.93 c 0 -3.277 2.797 -5.934 6.242 -5.934 m 0 3.949 c 1.152 0 2.09 0.887 2.09 1.984 c 0 1.098 -0.938 1.984 -2.09 1.984 c -1.152 0 -2.09 -0.887 -2.09 -1.984 c 0 -1.098 0.938 -1.984 2.09 -1.984" fill="#ff4500"/><path d="m 10.902 6.266 c 1.777 0 3.215 1.367 3.215 3.055 c 0 1.688 -1.438 3.055 -3.215 3.055 c -1.773 0 -3.215 -1.367 -3.215 -3.055 c 0 -1.687 1.441 -3.055 3.215 -3.055 m -0.035 1.172 c 1.113 0 2.01 0.855 2.01 1.91 c 0 1.055 -0.898 1.914 -2.01 1.914 c -1.109 0 -2.01 -0.859 -2.01 -1.914 c 0 -1.055 0.902 -1.91 2.01 -1.91" fill="#fff" fill-opacity="0.22"/><path d="m 10.922 7.277 c 1.109 0 2.01 0.891 2.01 1.992 c 0 1.098 -0.902 1.988 -2.01 1.988 c -1.113 0 -2.01 -0.891 -2.01 -1.988 c 0 -1.102 0.898 -1.992 2.01 -1.992 m 0 1.234 c 0.422 0 0.762 0.34 0.762 0.758 c 0 0.414 -0.34 0.754 -0.762 0.754 c -0.422 0 -0.766 -0.34 -0.766 -0.754 c 0 -0.418 0.344 -0.758 0.766 -0.758" fill="#ff9f79" fill-opacity="0.922"/></g><path d="m 10.922 8.383 c 0.246 0 0.473 0.102 0.637 0.262 c 0.16 0.16 0.262 0.379 0.262 0.621 c 0 0.246 -0.102 0.465 -0.262 0.625 c -0.164 0.16 -0.391 0.262 -0.637 0.262 c -0.25 0 -0.477 -0.102 -0.637 -0.262 c -0.164 -0.16 -0.262 -0.383 -0.262 -0.625 c 0 -0.242 0.098 -0.461 0.262 -0.621 c 0.16 -0.16 0.387 -0.262 0.637 -0.262 m 0.441 0.441 c -0.113 -0.113 -0.27 -0.184 -0.441 -0.184 c -0.172 0 -0.332 0.07 -0.445 0.184 c -0.113 0.109 -0.184 0.27 -0.184 0.441 c 0 0.176 0.07 0.332 0.184 0.445 c 0.113 0.113 0.273 0.184 0.445 0.184 c 0.172 0 0.328 -0.07 0.441 -0.184 c 0.113 -0.113 0.188 -0.27 0.188 -0.445 c 0 -0.172 -0.074 -0.332 -0.188 -0.441" fill="#ff7f4f"/><path d="m 10.922 7.152 c 0.613 0 1.168 0.234 1.57 0.617 c 0.402 0.387 0.652 0.914 0.652 1.496 c 0 0.586 -0.25 1.113 -0.652 1.496 c -0.402 0.383 -0.957 0.621 -1.57 0.621 c -0.613 0 -1.172 -0.238 -1.574 -0.621 c -0.402 -0.383 -0.652 -0.91 -0.652 -1.496 c 0 -0.582 0.25 -1.113 0.652 -1.496 c 0.402 -0.379 0.961 -0.617 1.574 -0.617 m 1.379 0.801 c -0.352 -0.336 -0.84 -0.543 -1.379 -0.543 c -0.539 0 -1.031 0.207 -1.383 0.543 c -0.352 0.336 -0.57 0.801 -0.57 1.313 c 0 0.516 0.219 0.977 0.57 1.313 c 0.352 0.336 0.844 0.543 1.383 0.543 c 0.539 0 1.027 -0.207 1.379 -0.543 c 0.355 -0.336 0.574 -0.797 0.574 -1.313 c 0 -0.512 -0.219 -0.977 -0.574 -1.313" fill="#ffd2bf"/><path d="m 10.559 43.659 l 5.618 -7.971 l 5.618 -8.438 h -6.841 c -0.255 -2.079 -0.51 -4.132 -0.548 -4.425 c -0.344 -3.199 -0.293 -6.132 2.459 -8.544 c 5.898 -5.158 14.05 -2.279 17.286 3.572 c 0.752 -0.387 1.885 -0.946 2.841 -1.28 c -3.299 -8.611 -15.185 -12.863 -23.885 -7.06 c -4.777 3.199 -7.185 7.478 -7.554 12.396 c -0.076 0.933 -0.293 3.252 -0.42 5.278 l -5.809 0.067 l 5.618 8.424 m 31.22 -7.531 c 0.624 -1.106 1.108 -2.359 1.401 -3.786 c 0.115 -0.56 0.191 -1.093 0.242 -1.64 c -0.446 1.706 -1.01 3.599 -1.643 5.412" transform="matrix(0.30665 0 0 0.29306 3.5 2.623)" fill="#ffdeac" fill-rule="evenodd" stroke="#ff4500" stroke-width="0.961"/><path d="m 185.99 -17.944 l 91.27 -0.034 c 3.821 0.014 6.965 4.02 6.947 8.975 l -0.005 111.82 c 0.01 4.992 -3.116 8.96 -6.973 8.972 l -91.23 0.008 c -3.857 0.012 -6.965 -4.02 -6.947 -8.975 l 0.005 -111.82 c -0.046 -4.966 3.116 -8.96 6.937 -8.946" transform="matrix(0.07073 0.04882 -0.05257 0.06798 0 0)" fill="#d1b38c" stroke="#d1b38c" stroke-width="3.199"/><path d="m 14.574 8.676 c -0.465 -0.34 -1.125 -0.238 -1.477 0.223 l -4.984 6.539 c -0.355 0.461 -0.266 1.109 0.199 1.449 l 4.539 3.313 c 0.465 0.34 1.125 0.238 1.477 -0.223 l 4.984 -6.535 c 0.355 -0.465 0.262 -1.113 -0.199 -1.449 m -4.496 0.945 c 0.027 0.016 0.051 0.035 0.07 0.055 c 0.059 0.051 0.105 0.117 0.141 0.195 c 0.133 0.313 -0.043 0.656 -0.316 0.805 l -3.75 2.066 c -0.543 0.301 -1.191 0 -1.418 -0.527 c -0.227 -0.531 0.008 -1.207 0.598 -1.395 l 4.086 -1.277 c 0.195 -0.063 0.422 -0.035 0.59 0.078 m -0.309 0.406 c -0.008 0 -0.016 -0.008 -0.02 -0.008 c -0.027 -0.008 -0.066 -0.008 -0.113 0.008 l -4.082 1.285 c -0.266 0.082 -0.387 0.418 -0.27 0.695 c 0.117 0.273 0.449 0.422 0.691 0.289 l 3.746 -2.066 c 0.09 -0.047 0.113 -0.094 0.086 -0.152 c -0.008 -0.023 -0.023 -0.039 -0.039 -0.051" fill="#ff4500"/><g fill="#ffdeac"><path d="m 10.875 14.371 l 3.711 2.711 c 0.332 0.242 0.387 0.715 0.125 1.059 l -0.813 1.066 c -0.262 0.344 -0.742 0.426 -1.074 0.184 l -3.711 -2.711 c -0.332 -0.242 -0.387 -0.715 -0.125 -1.059 l 0.813 -1.066 c 0.262 -0.344 0.742 -0.426 1.074 -0.184"/><path d="m 16.77 14.887 c -0.914 1.199 -2.637 1.461 -3.84 0.578 c -1.207 -0.879 -1.441 -2.566 -0.527 -3.77 c 0.918 -1.199 2.637 -1.461 3.844 -0.578 c 1.203 0.879 1.441 2.566 0.523 3.77"/></g><g fill="#ff4500"><path d="m 15.926 11.535 c -0.973 -0.711 -2.363 -0.5 -3.102 0.469 c -0.277 0.363 -0.422 0.777 -0.449 1.195 l 1.602 -0.504 c 0.273 -0.086 0.613 -0.027 0.832 0.176 c 0.074 0.066 0.137 0.148 0.18 0.246 c 0.168 0.398 -0.055 0.84 -0.395 1.027 l -1.469 0.809 c 0.039 0.031 0.078 0.066 0.121 0.094 c 0.973 0.711 2.363 0.504 3.105 -0.469 c 0.738 -0.969 0.547 -2.332 -0.426 -3.043 m -2.262 2.148 l -1.164 0.367 c 0.027 0.074 0.059 0.152 0.094 0.223"/><path d="m 14.586 13.293 c 0.078 0.184 -0.02 0.379 -0.199 0.48 l -3.75 2.063 c -0.391 0.215 -0.883 -0.008 -1.055 -0.41 c -0.172 -0.402 0.008 -0.906 0.434 -1.043 l 4.086 -1.281 c 0.195 -0.063 0.406 0.004 0.484 0.188"/></g><path d="m 10.527 15.344 c -0.105 0.141 -0.313 0.172 -0.453 0.066 c -0.145 -0.102 -0.172 -0.305 -0.063 -0.445 c 0.109 -0.145 0.313 -0.172 0.453 -0.07 c 0.145 0.105 0.172 0.305 0.063 0.449" fill="#fff"/></svg>