<svg xmlns="http://www.w3.org/2000/svg" viewBox="0 0 22 22"><path d="m 4.59 4.176 c -17.566 23.469 30.672 23.14 13.297 0.098 c -3.145 -4.047 -9.668 -6.04 -13.297 -0.098" fill="#eaeaea"/><path d="m 11.172 5.914 c -1.328 0 -2.41 1.012 -2.41 2.266 c -0.02 0.211 -0.02 0.422 -0.012 0.625 c -0.113 0 -0.406 0.09 -0.406 0.199 v 1.18 c 0 0.109 0.293 0.195 0.406 0.195 h 0.137 c 0.207 0.832 0.652 1.516 1.234 1.898 c -0.051 0.059 -0.102 0.125 -0.152 0.184 h -0.406 c -0.227 0 -0.406 0.176 -0.406 0.395 v 0.367 c -0.57 0.434 -1.242 0.758 -2.031 0.961 v 2.754 h 8.125 v -2.754 c -0.758 -0.227 -1.43 -0.59 -2.031 -1.07 v -0.258 c 0 -0.219 -0.184 -0.395 -0.406 -0.395 h -0.293 c -0.063 -0.07 -0.129 -0.137 -0.191 -0.211 c 0.563 -0.383 0.973 -1.055 1.168 -1.867 h 0.129 c 0.109 0 0.406 -0.09 0.406 -0.199 v -1.18 c 0 -0.109 -0.297 -0.199 -0.406 -0.199 c -0.004 -0.168 -0.02 -0.355 -0.051 -0.563 c 0 -1.68 -1.32 -2.297 -2.402 -2.328" fill="#fff" fill-opacity="0.502"/><path d="m 11.172 5.52 c -1.328 0 -2.41 1.012 -2.41 2.266 c -0.02 0.211 -0.02 0.422 -0.012 0.625 c -0.113 0 -0.406 0.09 -0.406 0.199 v 1.18 c 0 0.109 0.293 0.199 0.406 0.199 h 0.137 c 0.207 0.828 0.652 1.512 1.234 1.895 c -0.051 0.063 -0.102 0.125 -0.152 0.184 h -0.406 c -0.227 0 -0.406 0.176 -0.406 0.395 v 0.367 c -0.57 0.438 -1.242 0.758 -2.031 0.961 v 2.758 h 8.125 v -2.758 c -0.758 -0.223 -1.43 -0.59 -2.031 -1.07 v -0.258 c 0 -0.219 -0.184 -0.395 -0.406 -0.395 h -0.293 c -0.063 -0.066 -0.129 -0.137 -0.191 -0.207 c 0.563 -0.387 0.973 -1.059 1.168 -1.871 h 0.129 c 0.109 0 0.406 -0.09 0.406 -0.199 v -1.18 c 0 -0.109 -0.297 -0.195 -0.406 -0.195 c -0.004 -0.172 -0.02 -0.359 -0.051 -0.566 c 0 -1.68 -1.32 -2.297 -2.402 -2.328" fill="#4f4f4f"/></svg>