<svg xmlns="http://www.w3.org/2000/svg" viewBox="0 0 22 22"><path d="m 4.918 21.301 c 29.11 6.629 15.09 -37.36 -1.594 -14.496 c -3.801 5.215 -5.05 12.813 1.594 14.496" fill="#2095f2"/><g fill="#fff" stroke="#fff" transform="scale(0.08594)"><g stroke-width="0.164"><path d="m 195.36 138.45 c -1.409 -1.273 -2.682 -4.182 -4.182 -9.591 c -4.909 -17.727 -8.727 -24.773 -19.18 -35.23 c -11.182 -11.136 -21 -15.773 -37.18 -17.591 c -5.682 -0.636 -8.318 -2.727 -9.136 -7.227 c -0.682 -3.682 -0.091 -6.136 2.091 -8.955 c 1.591 -2 2.227 -2.182 7.636 -2.182 c 25.09 0 50.36 17.227 63.5 43.36 c 3.909 7.727 8.227 20.773 8.773 26.5 c 0.773 8.318 -2.136 12.773 -8.364 12.773 c -1.045 0 -2.864 -0.864 -3.955 -1.864"/><path d="m 168.32 138.95 c -0.727 -0.773 -1.727 -3.273 -2.273 -5.545 c -1.773 -7.364 -7.136 -17.227 -12.09 -22.05 c -5.409 -5.273 -13.182 -9.318 -19.727 -10.227 c -7.5 -1.091 -9.05 -2.364 -9.05 -7.455 c 0 -3.818 2.864 -5.136 10.273 -4.682 c 11.955 0.773 26.23 10.409 33.23 22.364 c 4.091 7.05 7.091 14.909 7.727 20.318 c 0.455 4.182 0.318 4.864 -1.364 6.682 c -2.227 2.364 -4.909 2.591 -6.727 0.591"/></g><path d="m 150.64 139.36 c -0.682 -0.864 -2.182 -3.864 -3.273 -6.636 c -2.455 -6.273 -7.091 -10.591 -13.773 -12.818 c -5.364 -1.727 -7.227 -3.773 -5.682 -6.182 c 2.318 -3.636 13.182 -0.409 18.909 5.636 c 5.955 6.182 10 17.14 7.455 20.227 c -1.364 1.727 -2.045 1.682 -3.636 -0.227" stroke-width="0.175"/><path d="m 123.36 145 c -3.545 -3.364 -3.182 -8.818 0.818 -12 c 4.136 -3.318 6.05 -3.364 10.5 -0.273 c 3.955 2.727 4.727 9.318 1.545 12.682 c -2.682 2.773 -9.773 2.545 -12.864 -0.364" stroke-width="0.284"/><path d="m 76 213.59 c -2.864 -1.636 -16.682 -15.14 -20.409 -19.955 c -4.136 -5.409 -2.136 -8.409 22.23 -33.18 c 18.455 -18.727 23.05 -22.591 26.818 -22.591 c 1.591 0 8.636 6.364 17.364 15.682 c 7.455 7.909 8.273 9.364 7 12.318 c -1.682 3.864 -44.818 47.864 -48.05 48.955 c -1.909 0.682 -1.364 0.818 -4.955 -1.227 m 27.18 -30 c 10.318 -10.545 18.682 -19.455 18.545 -19.773 c -0.864 -2.227 -17.05 -17.273 -18.318 -17.05 c -2.818 0.455 -41.591 39.636 -41.591 42 c 0 0.591 3.909 5.05 8.636 9.909 l 8.591 8.818 l 2.682 -2.364 c 1.455 -1.318 11.136 -11 21.455 -21.545" stroke-width="0.185"/></g></svg>