<svg xmlns="http://www.w3.org/2000/svg" xmlns:xlink="http://www.w3.org/1999/xlink" viewBox="0 0 22 22"><defs><g id="3" clip-path="url(#2)"><path d="m 13.168 18.281 c -0.094 -0.637 -0.32 -2.18 -0.309 -2.422 c 0.012 -0.309 -0.094 -0.773 -0.16 -0.773 c -0.066 0 -0.379 -2.105 -0.473 -2.645 c -0.094 -0.539 -0.469 -2.465 -0.617 -2.824 c -0.148 -0.359 -0.27 -1.078 -0.539 -1.414 c -0.27 -0.332 -0.863 -0.438 -0.996 -0.23 c -0.137 0.207 -0.379 0.797 -0.523 0.949 c -0.152 0.152 -0.395 0.59 -0.488 1 c -0.094 0.41 -0.402 2.031 -0.402 2.594 c 0 0.566 -0.055 1.285 -0.109 1.516 c -0.055 0.23 -0.066 1.75 -0.027 2.133 c 0.043 0.387 0.07 1.16 0.055 1.438 c -0.008 0.164 -0.672 1.043 -0.688 1.262 c 1.094 1.789 4.73 1.07 6.05 -0.098 m -1.344 -0.574 c -0.066 -0.137 -0.164 -0.32 -0.227 -0.523 c -0.094 -0.293 -0.238 -0.609 -0.293 -1.219 c -0.051 -0.609 -0.18 -1.156 -0.27 -1.184 c -0.09 -0.035 -0.055 0.734 -0.105 1.184 c -0.012 0.078 -0.027 0.148 -0.047 0.223 c -0.035 -0.305 -0.223 -0.871 -0.234 -1.277 c -0.016 -0.465 -0.418 -1.828 -0.488 -2.184 c -0.066 -0.359 0 -0.336 0.027 -0.617 c 0.027 -0.285 -0.012 -0.719 0 -1.051 c 0.016 -0.336 0.016 -0.645 -0.012 -0.953 c -0.027 -0.309 0.012 -0.949 0.082 -1 c 0.066 -0.055 0.051 -0.746 0.051 -0.746 c 0.164 0.078 0.137 1.207 0.152 1.414 c 0.012 0.203 0.066 0.23 0.16 0.461 c 0.094 0.23 0.148 -0.152 0.227 -0.23 c 0.082 -0.078 0.098 0.332 0.137 0.875 c 0.039 0.539 0 1.59 0.012 2.055 c 0.016 0.461 0.176 0.82 0.215 0.82 c 0.039 0 0.055 -0.566 0.055 -0.797 c 0 -0.23 0.082 -0.691 0.082 -0.691 c 0 0 0.082 0.332 0.094 0.641 c 0.012 0.309 0.363 1.926 0.402 2.027 c 0.043 0.105 0.082 0.309 0.098 0.465 c 0.012 0.152 0.391 1.922 0.391 1.922"/><path d="m 8.789 18.09 c -0.07 -0.184 -0.137 -0.387 -0.117 -0.496 c 0.039 -0.23 0.16 -1.625 0.133 -2.48 c -0.027 -0.859 0.07 -1.414 -0.094 -1.555 c -0.16 -0.141 -0.348 -0.391 -0.387 -0.648 c -0.039 -0.254 -0.121 -0.535 -0.266 -0.695 c -0.148 -0.164 -0.094 -0.395 -0.16 -0.535 c -0.07 -0.141 -0.148 -0.777 -0.242 -0.777 c -0.094 0 -0.215 0.637 -0.305 0.707 c -0.094 0.07 -0.297 1.047 -0.441 0.977 c -0.148 -0.07 -0.496 -0.23 -0.695 0.047 c -0.199 0.277 -0.414 0.391 -0.43 0.695 c -0.012 0.301 0.027 0.809 -0.094 1.02 c -0.117 0.211 -0.133 0.277 -0.145 0.629 c -0.016 0.344 -0.066 1.297 -0.188 1.273 c -0.121 -0.023 -0.27 -0.023 -0.27 0.234 c 0 0.25 -0.023 0.695 -0.105 0.902 c -0.078 0.207 -0.105 0.348 -0.133 0.555 c 0.188 0.594 2.969 1.23 3.937 0.148 m -1.957 -3.641 c -0.047 0.551 -0.047 0.715 -0.094 0.961 c -0.047 0.246 0.031 0.793 -0.078 0.438 c -0.113 -0.359 -0.207 -0.492 -0.223 -0.742 c -0.008 -0.141 -0.066 -0.438 -0.121 -0.52 c -0.031 -0.52 0.02 -1.605 0.02 -1.605 c 0.023 -0.234 0.066 -0.324 0.16 -0.324 c 0.094 0 0.348 0.09 0.398 0.254 c 0 0 0.148 0.348 0.16 0.418 c 0.008 0.035 0.023 0.227 0.035 0.441 c -0.023 -0.039 -0.039 -0.039 -0.039 0.051 c 0 0.191 -0.172 0.082 -0.219 0.629 m 0.875 3.641 c -0.785 0.043 -0.867 0 -0.586 -0.75 c -0.254 -0.117 0.188 -0.535 0.32 -0.441 c 0.137 0.094 0.109 0.414 0.203 0.582 c 0.094 0.16 0.094 0.184 0.094 0.371 c 0 0.09 -0.016 0.172 -0.031 0.238 m 0.711 -4.137 c -0.023 0.086 -0.055 0.238 -0.094 0.383 c -0.039 -0.105 -0.09 -0.211 -0.105 -0.352 c -0.031 -0.246 -0.031 -0.383 -0.016 -0.547 c 0.016 -0.164 -0.285 -0.41 -0.301 -0.602 c -0.008 -0.113 -0.059 -0.227 -0.117 -0.285 c 0.008 -0.172 0.02 -0.316 0.02 -0.316 c 0 0 0.238 0.324 0.32 0.465 c 0.078 0.141 0.051 0.324 0.121 0.508 c 0.066 0.188 0.133 0.281 0.199 0.375 c 0.066 0.09 0.012 0.23 -0.027 0.367"/><path d="m 6.09 18.05 c -0.047 -0.309 -0.16 -1.063 -0.156 -1.18 c 0.008 -0.148 -0.047 -0.375 -0.078 -0.375 c -0.035 0 -0.191 -1.023 -0.238 -1.289 c -0.02 -0.094 -0.184 -0.063 -0.227 -0.27 c -0.074 -0.359 -0.039 -0.992 -0.086 -1.102 c -0.074 -0.176 -0.137 -0.527 -0.27 -0.688 c -0.137 -0.164 -0.434 -0.215 -0.504 -0.113 c -0.035 0.051 -0.02 0.324 -0.07 0.418 c -0.047 0.094 -0.156 0.008 -0.191 0.043 c -0.039 0.039 -0.191 0.563 -0.191 0.563 l -0.012 1.18 c 0 0 -0.246 -0.266 -0.246 0.008 c 0 0.273 -0.027 0.625 -0.055 0.738 c -0.027 0.109 -0.031 0.848 -0.012 1.035 c 0.02 0.188 0.035 0.563 0.027 0.699 c -0.004 0.082 -0.016 0.223 -0.023 0.332 c 0.926 0.816 1.457 0.938 2.332 0 m -0.289 -0.043 c -0.031 -0.066 -0.082 -0.156 -0.113 -0.254 c -0.047 -0.141 -0.117 -0.297 -0.145 -0.594 c -0.027 -0.297 -0.094 -0.563 -0.137 -0.578 c -0.047 -0.016 -0.027 0.359 -0.055 0.578 c -0.004 0.035 -0.012 0.07 -0.023 0.105 c -0.016 -0.145 -0.113 -0.422 -0.117 -0.621 c -0.008 -0.223 -0.414 -0.492 -0.449 -0.664 c -0.031 -0.176 0.203 -0.559 0.219 -0.695 c 0.012 -0.141 -0.219 -0.547 -0.211 -0.711 c 0.008 -0.164 0.203 -0.336 0.188 -0.484 c -0.012 -0.152 0.023 -0.242 0.055 -0.27 c -0.609 -1.363 0.023 -0.359 0.027 -0.359 c 0.082 0.035 0.07 0.586 0.074 0.688 c 0.008 0.098 0.051 -0.262 0.098 -0.148 c 0.047 0.113 0.059 0.297 0.102 0.258 c 0.039 -0.035 -0.137 0.547 -0.117 0.809 c 0.02 0.262 0.184 0.391 0.191 0.617 c 0.004 0.227 0.086 0.398 0.105 0.398 c 0.023 0 0.027 -0.273 0.027 -0.387 c 0 -0.113 0.043 -0.336 0.043 -0.336 c 0 0 0.039 0.16 0.047 0.313 c 0.008 0.148 0.184 0.938 0.203 0.984 c 0.02 0.055 0.043 0.152 0.047 0.227 c 0.008 0.074 0.148 1.125 0.148 1.125"/><path d="m 12.82 18.324 c 0.074 -0.191 0.141 -0.398 0.117 -0.512 c -0.039 -0.242 -0.16 -1.68 -0.133 -2.566 c 0.027 -0.891 -0.066 -1.465 0.094 -1.609 c 0.16 -0.141 0.348 -0.402 0.387 -0.672 c 0.043 -0.262 0.121 -0.551 0.27 -0.715 c 0.145 -0.168 0.094 -0.41 0.16 -0.551 c 0.066 -0.148 0.145 -0.805 0.238 -0.805 c 0.094 0 0.215 0.656 0.309 0.73 c 0.094 0.07 0.293 1.078 0.441 1 c 0.148 -0.066 0.492 -0.234 0.695 0.051 c 0.199 0.285 0.414 0.406 0.426 0.719 c 0.016 0.313 -0.027 0.84 0.094 1.055 c 0.121 0.219 0.133 0.289 0.148 0.648 c 0.012 0.359 0.066 1.344 0.184 1.32 c 0.121 -0.023 0.27 -0.023 0.27 0.238 c 0 0.262 0.027 0.723 0.105 0.938 c 0.082 0.215 0.105 0.359 0.133 0.574 c -0.184 0.609 -2.969 1.27 -3.938 0.152 m 1.957 -3.766 c 0.051 0.57 0.051 0.738 0.098 0.992 c 0.047 0.258 -0.031 0.824 0.078 0.453 c 0.109 -0.367 0.203 -0.508 0.219 -0.766 c 0.012 -0.148 0.066 -0.453 0.125 -0.539 c 0.027 -0.535 -0.02 -1.66 -0.02 -1.66 c -0.027 -0.238 -0.07 -0.336 -0.16 -0.336 c -0.094 0 -0.348 0.098 -0.402 0.262 c 0 0 -0.148 0.363 -0.16 0.434 c -0.008 0.039 -0.023 0.238 -0.035 0.457 c 0.023 -0.039 0.039 -0.039 0.039 0.055 c 0 0.199 0.176 0.086 0.219 0.648 m -0.875 3.766 c 0.785 0.043 0.867 0 0.586 -0.777 c 0.258 -0.121 -0.188 -0.551 -0.32 -0.457 c -0.133 0.098 -0.105 0.434 -0.199 0.602 c -0.094 0.168 -0.094 0.191 -0.094 0.387 c 0 0.094 0.016 0.176 0.027 0.246 m -0.711 -4.281 c 0.023 0.09 0.055 0.25 0.098 0.398 c 0.039 -0.109 0.086 -0.215 0.105 -0.363 c 0.031 -0.254 0.031 -0.395 0.016 -0.566 c -0.016 -0.168 0.281 -0.426 0.297 -0.621 c 0.012 -0.117 0.059 -0.234 0.117 -0.293 c -0.004 -0.176 -0.016 -0.328 -0.016 -0.328 c 0 0 -0.242 0.336 -0.32 0.48 c -0.082 0.145 -0.055 0.336 -0.121 0.527 c -0.066 0.191 -0.133 0.289 -0.199 0.383 c -0.07 0.098 -0.016 0.242 0.023 0.383"/><path d="m 15.52 18.281 c 0.051 -0.32 0.164 -1.094 0.156 -1.219 c -0.008 -0.152 0.047 -0.387 0.082 -0.387 c 0.035 0 0.191 -1.059 0.238 -1.332 c 0.016 -0.098 0.18 -0.066 0.227 -0.281 c 0.07 -0.367 0.035 -1.023 0.082 -1.141 c 0.078 -0.18 0.137 -0.543 0.273 -0.711 c 0.133 -0.168 0.434 -0.219 0.5 -0.113 c 0.035 0.051 0.023 0.336 0.07 0.434 c 0.047 0.094 0.156 0.004 0.195 0.043 c 0.035 0.039 0.188 0.578 0.188 0.578 l 0.016 1.223 c 0 0 0.242 -0.277 0.242 0.008 c 0 0.285 0.027 0.645 0.055 0.762 c 0.027 0.117 0.035 0.879 0.012 1.074 c -0.02 0.191 -0.031 0.582 -0.027 0.723 c 0.008 0.082 0.016 0.23 0.023 0.34 c -0.926 0.848 -1.457 0.973 -2.332 0 m 0.289 -0.043 c 0.035 -0.07 0.082 -0.16 0.113 -0.262 c 0.047 -0.148 0.121 -0.309 0.148 -0.613 c 0.027 -0.309 0.09 -0.582 0.137 -0.598 c 0.043 -0.016 0.027 0.371 0.051 0.598 c 0.008 0.039 0.016 0.074 0.023 0.109 c 0.02 -0.152 0.113 -0.438 0.121 -0.641 c 0.004 -0.234 0.41 -0.512 0.445 -0.691 c 0.035 -0.18 -0.203 -0.578 -0.215 -0.719 c -0.016 -0.141 0.215 -0.566 0.211 -0.73 c -0.008 -0.172 -0.203 -0.352 -0.191 -0.504 c 0.012 -0.156 -0.02 -0.25 -0.055 -0.277 c 0.609 -1.41 -0.023 -0.371 -0.027 -0.375 c -0.082 0.039 -0.066 0.609 -0.074 0.711 c -0.008 0.105 -0.047 -0.27 -0.094 -0.152 c -0.047 0.117 -0.063 0.309 -0.102 0.27 c -0.043 -0.039 0.133 0.563 0.113 0.836 c -0.02 0.27 -0.184 0.402 -0.188 0.637 c -0.008 0.234 -0.09 0.414 -0.109 0.414 c -0.02 0 -0.027 -0.285 -0.027 -0.402 c 0 -0.117 -0.039 -0.348 -0.039 -0.348 c 0 0 -0.043 0.168 -0.051 0.324 c -0.004 0.152 -0.18 0.965 -0.203 1.02 c -0.02 0.051 -0.039 0.152 -0.047 0.23 c -0.004 0.078 -0.148 1.164 -0.148 1.164"/></g><clipPath id="2"><path d="M 0,0 H22 V22 H0 z"/></clipPath><filter id="0" filterUnits="objectBoundingBox" x="0" y="0" width="22" height="22"><feColorMatrix type="matrix" in="SourceGraphic" values="0 0 0 0 1 0 0 0 0 1 0 0 0 0 1 0 0 0 1 0"/></filter><mask id="1"><g filter="url(#0)"><path fill-opacity="0.2" d="M 0,0 H22 V22 H0 z"/></g></mask></defs><path d="m 6.555 21.422 c -9.465 -1.961 -7.113 -15.219 -0.309 -20.06 c 5.422 -3.855 14.953 1.973 15.473 10.527 c 0.523 8.551 -7.563 11.11 -15.16 9.531" fill="#2f4d4d"/><use xlink:href="#3" mask="url(#1)"/><g fill="#9c7937" stroke="#9c7937" stroke-width="2.113" transform="scale(0.08594)"><path d="m 115.27 147.36 c -9.636 -2.318 -14.864 -8.909 -15.455 -19.545 c -0.5 -8.727 1.955 -14.5 8.05 -19.18 c 3.5 -2.636 4.909 -3 11.818 -3 c 6.864 0 8.273 0.364 11.773 3 c 7.818 6 10.409 16.955 6.182 26.23 c -2.364 5.227 -10.318 12.409 -13.727 12.409 c -1.364 0 -3.091 0.182 -3.909 0.455 c -0.773 0.227 -2.909 0.045 -4.727 -0.364 m 10.318 -3.864 c 4.273 -2.182 5.864 -7.636 5.136 -17.409 c -0.909 -12.273 -4.909 -17.818 -12.818 -17.818 c -5.455 0 -8.091 2.682 -9.318 9.455 c -1.182 6.273 0.545 18.409 3.045 21.682 c 4.364 5.773 8.455 6.955 13.955 4.091"/><path d="m 44.41 146.18 c 0 -0.591 0.864 -1.091 1.955 -1.091 c 1.091 0 3 -0.955 4.318 -2.182 c 2.318 -2.136 2.364 -2.909 2.364 -26.09 c 0 -14.364 -0.455 -24.682 -1.091 -25.909 c -0.727 -1.364 -2.273 -2.136 -4.364 -2.136 c -2.136 0 -3.182 -0.545 -3.182 -1.591 c 0 -1.364 1.909 -1.636 11.09 -1.636 c 14.545 0.045 23.818 1.455 29.955 4.591 c 12.864 6.545 10.591 23 -3.864 28.18 c -3.045 1.091 -8.318 1.909 -12.545 1.909 l -7.318 -0.045 v 8 c 0 11.818 0.818 14.864 4.5 16.227 c 5.591 2.136 3.227 2.864 -9.364 2.864 c -7.591 0 -12.455 -0.409 -12.455 -1.091 m 32.32 -31.32 c 4.727 -2.409 6.636 -5.955 6.636 -12.318 c 0 -4.818 -2.636 -9 -7.227 -11.409 c -3.636 -1.955 -12.955 -1.636 -13.773 0.455 c -0.364 0.955 -0.636 7.05 -0.636 13.545 v 11.818 h 5.455 c 3.227 0 7.091 -0.864 9.545 -2.091"/><path d="m 146.18 146.73 c 0 -1.091 1.091 -1.636 3.227 -1.636 c 2.045 0 3.591 -0.727 4.318 -2.091 c 1.5 -2.773 1.5 -49.32 0 -52.09 c -0.727 -1.364 -2.273 -2.136 -4.318 -2.136 c -2.136 0 -3.227 -0.545 -3.227 -1.591 c 0 -1.409 3.5 -1.636 24.909 -1.636 h 24.909 v 7.05 c 0 5.273 -0.364 7.05 -1.5 7.05 c -0.864 0 -1.818 -1.636 -2.227 -3.864 c -0.955 -5.05 -3.409 -5.909 -16.773 -5.909 h -10.591 l -0.682 5.05 c -0.409 2.773 -0.727 7.864 -0.727 11.364 v 6.364 h 9.773 c 8.318 0 10.05 -0.318 11.909 -2.182 c 1.182 -1.182 2.182 -2.909 2.182 -3.773 c 0 -0.909 0.455 -1.636 1.045 -1.636 c 0.682 0 1.091 4.364 1.045 11.09 l -0.091 11.09 l -2.273 -4.545 c -2 -4 -2.864 -4.636 -6.727 -5.227 c -2.409 -0.364 -7.05 -0.5 -10.364 -0.318 l -5.955 0.364 l 0.182 12.273 c 0.091 6.773 0.636 12.773 1.273 13.409 c 0.727 0.727 5.182 0.773 13.364 0.182 l 12.273 -0.955 l 1 -4.045 c 1.682 -6.818 3.864 -5.136 3.864 2.955 v 7.05 h -24.909 c -21.409 0 -24.909 -0.227 -24.909 -1.636"/></g></svg>