<svg xmlns="http://www.w3.org/2000/svg" viewBox="0 0 22 22"><g fill="#fff"><path d="m 7.957 10.711 v 4.289 c 0 2.57 0.441 2.57 4.414 2.57 h 0.883 c 3.969 0 4.41 0 4.41 -2.57 v -4.289 c 0 -2.57 -0.441 -2.57 -4.41 -2.57 h -0.883 c -3.973 0 -4.414 0 -4.414 2.57 m 4.414 -1.715 h 0.883 c 3.527 0 3.527 0 3.527 1.715 v 3 c 0 1.715 0 1.715 -3.527 1.715 h -0.883 c -3.531 0 -3.531 0 -3.531 -1.715 v -3 c 0 -1.715 0 -1.715 3.531 -1.715"/><path d="m 9.723 13.789 v -1.66 l 1.543 -1.559 l 1.934 1.949 l 0.77 -0.781 l 1.934 1.949 v 0.102 c 0 0.781 -0.129 0.781 -1.547 0.781 h -3.086 c -1.414 0 -1.543 0 -1.543 -0.781"/><path d="m 15.898 10.711 c 0 0.473 -0.395 0.859 -0.883 0.859 c -0.484 0 -0.883 -0.387 -0.883 -0.859 c 0 -0.473 0.398 -0.855 0.883 -0.855 c 0.488 0 0.883 0.383 0.883 0.855"/><path d="m 10.605 6.426 c -3.969 0 -4.41 0 -4.41 2.57 v 4.289 c 0 1.395 0.129 2.031 0.883 2.324 v -6.613 c 0 -1.551 0.023 -1.695 2.645 -1.711 v -0.004 h 5.961 c -0.391 -0.855 -1.441 -0.855 -4.195 -0.855"/><path d="m 8.84 4.711 c -3.969 0 -4.41 0 -4.41 2.57 v 4.289 c 0 1.395 0.133 2.031 0.883 2.324 v -6.613 c 0 -1.551 0.027 -1.695 2.645 -1.711 v -0.004 h 5.961 c -0.387 -0.855 -1.441 -0.855 -4.195 -0.855"/></g><path d="m 3.914 18.824 c -17.199 -22.797 30.13 -26.04 14.941 -2.766 c -3.465 5.305 -10.387 8.801 -14.941 2.766" fill="#b954d2"/><path d="m 10.773 3.387 l -3.094 3.996 l 1.551 0.461 l -3.039 3.359 l 1.598 0.461 l -3.02 3.188 l 5.02 1.207 v 1.191 h 1.984 v -1.184 l 5.01 -1.215 l -3.02 -3.188 l 1.598 -0.461 l -3.035 -3.359 l 1.551 -0.461 l -3.094 -3.996 h -0.016" fill="#fff" fill-opacity="0.502"/></svg>