<svg xmlns="http://www.w3.org/2000/svg" viewBox="0 0 22 22"><path d="m 21.945 13.352 c -0.563 11.25 -17.488 11.586 -21.16 0.652 c -3.535 -8.852 5.281 -16.09 12.723 -13.188 c 4.926 1.367 9.359 6.977 8.441 12.535" fill="#8e3122"/><g fill="#fff"><path d="m 15.391 14.602 c -0.051 -0.043 -0.133 -0.156 -0.184 -0.254 c -0.109 -0.211 -0.23 -0.266 -0.367 -0.168 c -0.055 0.039 -0.164 0.121 -0.246 0.18 c -0.277 0.203 -0.57 0.258 -1.309 0.258 c -0.621 0 -0.695 -0.008 -0.883 -0.098 c -0.152 -0.078 -0.227 -0.148 -0.293 -0.289 c -0.164 -0.34 -0.086 -0.84 0.148 -0.949 c 0.082 -0.035 0.242 -0.035 0.668 0.004 c 0.648 0.063 0.793 0.043 0.793 -0.109 c 0 -0.133 -0.105 -0.199 -0.637 -0.402 c -0.238 -0.094 -0.563 -0.223 -0.723 -0.289 c -0.164 -0.07 -0.305 -0.117 -0.316 -0.105 c -0.012 0.012 -0.09 0.285 -0.176 0.609 c -0.086 0.32 -0.191 0.633 -0.234 0.695 c -0.105 0.145 -0.379 0.238 -0.59 0.199 c -0.117 -0.023 -0.23 -0.094 -0.379 -0.246 l -0.211 -0.211 l -0.359 0.066 c -0.414 0.074 -0.723 0.051 -1.07 -0.078 c -0.125 -0.051 -0.254 -0.078 -0.281 -0.07 c -0.027 0.008 -0.074 0.18 -0.105 0.379 c -0.055 0.402 -0.125 0.523 -0.406 0.723 c -0.246 0.172 -0.492 0.176 -0.707 0.012 c -0.277 -0.211 -0.375 -0.516 -0.668 -2.09 c -0.109 -0.582 -0.207 -1.086 -0.215 -1.113 c -0.051 -0.133 -0.191 -0.051 -0.32 0.176 c -0.227 0.398 -0.609 0.656 -1.188 0.797 c -0.441 0.105 -0.426 0.07 -0.348 0.824 c 0.063 0.594 0.023 0.777 -0.199 0.918 c -0.145 0.098 -0.516 0.105 -0.695 0.02 c -0.176 -0.09 -0.348 -0.445 -0.453 -0.941 c -0.145 -0.66 -0.699 -3.992 -0.699 -4.195 c 0 -0.219 0.113 -0.41 0.309 -0.512 c 0.137 -0.07 0.969 -0.145 1.645 -0.148 c 0.344 0 0.391 0.012 0.723 0.176 c 0.191 0.098 0.426 0.238 0.52 0.309 c 0.164 0.133 0.289 0.141 0.289 0.02 c 0 -0.113 0.219 -0.324 0.414 -0.398 c 0.238 -0.09 0.613 -0.07 0.785 0.043 c 0.164 0.109 0.27 0.375 0.434 1.109 c 0.156 0.688 0.187 0.789 0.246 0.789 c 0.063 0 0.113 -0.137 0.191 -0.52 c 0.094 -0.457 0.23 -0.77 0.41 -0.941 c 0.121 -0.109 0.176 -0.129 0.371 -0.129 c 0.184 0 0.262 0.023 0.391 0.125 c 0.285 0.215 0.313 0.332 0.258 1 c -0.031 0.316 -0.086 0.871 -0.129 1.23 c -0.063 0.559 -0.066 0.676 -0.016 0.797 c 0.094 0.234 0.484 0.383 0.695 0.27 c 0.125 -0.066 0.258 -0.438 0.418 -1.168 c 0.32 -1.445 0.375 -1.613 0.57 -1.703 c 0.152 -0.07 0.512 -0.063 0.703 0.016 c 0.09 0.035 0.234 0.145 0.32 0.246 l 0.16 0.176 l 0.363 -0.09 c 0.203 -0.051 0.551 -0.105 0.781 -0.125 l 0.414 -0.031 v -0.656 c 0 -0.734 0.016 -0.781 0.344 -0.996 c 0.27 -0.176 0.574 -0.141 0.824 0.098 c 0.18 0.168 0.266 0.359 0.441 0.984 c 0.16 0.57 0.258 0.809 0.324 0.809 c 0.023 0 0.137 -0.043 0.25 -0.094 c 0.172 -0.074 0.324 -0.098 0.809 -0.113 c 0.586 -0.02 0.605 -0.02 0.836 0.098 c 0.477 0.242 0.789 0.684 1 1.434 c 0.23 0.785 0.461 2.227 0.461 2.855 c 0 0.281 -0.016 0.367 -0.098 0.488 c -0.285 0.426 -1.051 0.461 -1.32 0.059 c -0.102 -0.156 -0.254 -0.691 -0.504 -1.785 c -0.211 -0.918 -0.305 -1.188 -0.473 -1.371 c -0.164 -0.176 -0.391 -0.184 -0.523 -0.016 c -0.125 0.16 -0.117 0.676 0.023 1.684 c 0.145 1.012 0.156 1.406 0.047 1.563 c -0.105 0.16 -0.367 0.254 -0.695 0.254 c -0.195 -0.004 -0.297 -0.023 -0.363 -0.082 m 0.586 -0.398 c 0.066 -0.125 0.047 -0.391 -0.086 -1.152 c -0.113 -0.645 -0.133 -1.621 -0.039 -1.852 c 0.148 -0.367 0.41 -0.566 0.734 -0.566 c 0.25 0 0.578 0.18 0.719 0.398 c 0.156 0.242 0.242 0.52 0.512 1.68 c 0.285 1.23 0.348 1.387 0.613 1.496 c 0.105 0.043 0.145 0.039 0.242 -0.023 c 0.113 -0.074 0.113 -0.078 0.086 -0.496 c -0.055 -0.875 -0.395 -2.484 -0.621 -2.949 c -0.07 -0.145 -0.234 -0.371 -0.363 -0.504 c -0.203 -0.207 -0.277 -0.254 -0.473 -0.297 c -0.52 -0.109 -0.777 -0.043 -1.273 0.32 c -0.152 0.109 -0.32 0.199 -0.375 0.199 c -0.148 0 -0.273 -0.281 -0.535 -1.199 c -0.125 -0.43 -0.258 -0.852 -0.301 -0.934 c -0.094 -0.191 -0.27 -0.25 -0.41 -0.133 c -0.086 0.07 -0.098 0.113 -0.09 0.379 c 0.012 0.367 0.145 0.887 0.301 1.195 c 0.105 0.207 0.121 0.305 0.152 0.844 c 0.047 0.828 0.094 1.051 0.34 1.621 c 0.113 0.266 0.145 0.418 0.195 0.949 c 0.051 0.539 0.078 0.66 0.176 0.828 c 0.195 0.332 0.383 0.406 0.496 0.195 m -1.898 -0.129 c 0.359 -0.137 0.535 -0.277 0.66 -0.527 c 0.152 -0.313 0.156 -0.637 0.004 -0.941 c -0.164 -0.328 -0.438 -0.512 -1.043 -0.711 c -0.609 -0.199 -0.813 -0.355 -0.895 -0.699 c -0.039 -0.152 -0.039 -0.254 0 -0.391 c 0.117 -0.434 0.238 -0.496 0.945 -0.473 c 0.441 0.016 0.512 0.008 0.527 -0.055 c 0.004 -0.035 -0.027 -0.113 -0.074 -0.172 c -0.082 -0.102 -0.105 -0.105 -0.645 -0.105 c -0.629 0 -0.785 0.047 -1.145 0.355 c -0.242 0.211 -0.348 0.445 -0.348 0.777 c 0 0.504 0.293 0.871 0.871 1.086 c 0.867 0.324 0.98 0.391 1.168 0.66 c 0.066 0.094 0.094 0.199 0.094 0.359 c 0 0.207 -0.016 0.242 -0.195 0.426 l -0.191 0.203 l -0.68 -0.031 l -0.676 -0.031 v 0.105 c 0 0.23 0.23 0.301 0.906 0.27 c 0.336 -0.016 0.566 -0.051 0.715 -0.105 m -5.996 -0.004 c 0.109 -0.125 0.098 -0.32 -0.09 -1.336 c -0.336 -1.809 -0.777 -3.801 -0.879 -3.965 c -0.066 -0.105 -0.285 -0.137 -0.406 -0.059 c -0.078 0.051 -0.023 0.57 0.223 2.027 c 0.383 2.297 0.559 2.965 0.859 3.289 c 0.148 0.16 0.18 0.164 0.293 0.043 m -3.797 -0.563 c -0.004 -0.109 -0.031 -0.434 -0.063 -0.723 c -0.094 -0.797 -0.066 -0.836 0.582 -0.895 c 0.848 -0.078 1.203 -0.461 1.203 -1.297 c 0 -0.887 -0.336 -1.563 -0.91 -1.844 c -0.188 -0.094 -0.258 -0.102 -1.023 -0.102 c -0.816 0 -0.82 0 -0.906 0.105 c -0.066 0.078 -0.078 0.148 -0.063 0.281 c 0.234 1.801 0.566 3.762 0.727 4.285 c 0.09 0.285 0.211 0.418 0.367 0.395 c 0.07 -0.008 0.086 -0.043 0.086 -0.207 m 7.102 -0.234 c 0.137 -0.379 0.207 -0.895 0.238 -1.75 c 0.031 -0.855 0.031 -0.875 0.168 -1.168 c 0.18 -0.383 0.184 -0.559 0.012 -0.68 c -0.305 -0.219 -0.422 -0.066 -0.617 0.781 c -0.422 1.844 -0.559 2.094 -1.152 2.09 c -0.313 0 -0.578 -0.109 -0.703 -0.289 c -0.156 -0.219 -0.27 -0.477 -0.25 -0.563 c 0.031 -0.137 0.234 -2.051 0.234 -2.219 c 0 -0.191 -0.125 -0.328 -0.305 -0.328 c -0.109 0 -0.145 0.027 -0.195 0.148 c -0.152 0.367 -0.348 1.492 -0.395 2.273 c -0.043 0.656 0.027 0.902 0.348 1.219 c 0.172 0.172 0.289 0.25 0.461 0.301 c 0.324 0.098 0.41 0.09 0.961 -0.082 c 0.266 -0.086 0.512 -0.152 0.547 -0.152 c 0.074 0 0.133 0.125 0.168 0.359 c 0.016 0.094 0.066 0.203 0.113 0.25 c 0.121 0.125 0.281 0.039 0.367 -0.191 m 3.055 -1.816 c 0.059 -0.098 -0.027 -0.434 -0.129 -0.5 c -0.141 -0.094 -0.836 -0.172 -0.969 -0.113 c -0.242 0.109 -0.027 0.352 0.465 0.535 c 0.34 0.125 0.582 0.156 0.633 0.078"/><path d="m 4.199 11.27 c -0.238 -0.254 -0.348 -0.684 -0.348 -1.363 c -0.004 -0.711 0.023 -0.758 0.43 -0.758 c 0.66 0 1.074 0.523 1.07 1.359 c 0 0.516 -0.16 0.777 -0.523 0.859 c -0.352 0.082 -0.477 0.063 -0.629 -0.098 m 0.695 -0.352 c 0.121 -0.086 0.145 -0.594 0.047 -0.891 c -0.086 -0.254 -0.281 -0.484 -0.41 -0.484 c -0.145 0 -0.195 0.152 -0.168 0.496 c 0.039 0.43 0.141 0.742 0.277 0.852 c 0.133 0.105 0.148 0.105 0.254 0.027"/></g></svg>