<svg xmlns="http://www.w3.org/2000/svg" viewBox="0 0 22 22"><path d="m 11.926 0.289 c -13.07 -1.25 -16.59 19.824 -3.168 21.461 c 12.34 2.027 18.695 -17.07 6.434 -20.895 c -1.039 -0.418 -2.172 -0.41 -3.266 -0.566" fill="#8f7161"/><path d="m 8.508 6.04 l 4.879 -0.801 c 1.152 -0.191 2.09 0.602 2.09 1.77 v 6.594 c 0 1.168 -0.938 2.27 -2.09 2.461 l -4.879 0.801 c -1.152 0.188 -2.09 -0.605 -2.09 -1.773 v -6.594 c 0 -1.168 0.938 -2.27 2.09 -2.457" fill="#efc8af"/><path d="m 9.383 15.367 c -0.035 -0.031 -0.074 -0.145 -0.082 -0.246 c -0.121 -1.238 -0.188 -2.043 -0.25 -3.086 c -0.043 -0.684 -0.113 -1.586 -0.152 -2.01 c -0.043 -0.422 -0.09 -1.02 -0.109 -1.324 c -0.043 -0.691 -0.039 -0.695 0.602 -0.762 c 0.492 -0.051 1.25 -0.113 1.742 -0.148 c 0.852 -0.059 1.492 0.273 1.871 0.973 c 0.164 0.305 0.336 1.105 0.34 1.563 c 0 0.699 -0.242 1.383 -0.633 1.781 c -0.313 0.32 -0.887 0.531 -1.656 0.605 c -0.227 0.023 -0.438 0.063 -0.473 0.086 c -0.047 0.039 -0.047 0.203 0.008 0.738 c 0.148 1.422 0.152 1.629 0.047 1.699 c -0.328 0.063 -1.043 0.332 -1.254 0.133 m 1.652 -3.961 c 0.355 -0.055 0.633 -0.203 0.734 -0.395 c 0.156 -0.301 0.207 -0.645 0.145 -0.977 c -0.086 -0.473 -0.234 -0.668 -0.578 -0.93 c -0.438 0.043 -1.105 -0.031 -1.055 0.359 c 0.059 0.418 0.129 1.289 0.133 1.559 c 0 0.43 0.055 0.465 0.621 0.383" fill="#30170a"/></svg>