<svg xmlns="http://www.w3.org/2000/svg" viewBox="0 0 22 22"><path d="m 16.887 19.727 c -8.148 7.191 -20.684 -4.152 -15.613 -13.645 c 5.121 -9.602 22.08 -7.04 20.641 4.746 c -0.43 3.512 -2.371 6.555 -5.03 8.902" fill="#86cefa"/><path d="m 100.59 217.3 c -2.136 -1.318 -8.227 -10.09 -11.818 -16.864 c -0.636 -1.227 -2.091 -3.773 -3.136 -5.545 c -3.818 -6.455 -10.273 -19.545 -14.818 -30.14 c -3 -6.909 -5 -12.09 -5.05 -12.909 c -3.727 -7.136 -5.318 -15.545 -8.455 -22.09 c -1.773 -3.455 -1.864 -5.545 -0.364 -7.136 c 0.591 -0.636 1.864 -2.273 2.864 -3.636 c 1.727 -2.455 1.773 -2.636 0.955 -5.227 c -0.5 -1.5 -0.864 -4.409 -0.818 -6.409 c 0.045 -3.136 0.364 -4.091 2.091 -6.364 c 1.909 -2.455 4.818 -4.864 8.773 -7.227 c 5.909 -2.682 12.182 -8.818 18.909 -9.273 c 1.227 0 8.364 3.591 9.727 4.955 c 2.864 2.682 9.09 2.318 12.636 -0.773 c 1 -0.864 2.136 -1.545 2.591 -1.545 c 6.136 -3.409 12.09 -7.364 18.09 -10.864 c 7.909 -4.545 15.545 -8.909 22.727 -13.227 c 4.909 -1.455 8.182 -8 11.591 -8.05 c 2.136 0 2.727 0.273 2.727 1.091 c 0.818 2.591 3 4.091 3.773 6.682 c 0 3 2.727 3.5 6.091 1.091 c 4.864 -3.455 9.636 -1 10.364 5.318 c 3.182 20.864 5.864 36.09 10.227 54.32 c 0.773 3.227 2.955 9.955 4.818 14.727 c 2.136 5.591 2.364 8.455 0.909 11 c -0.727 1.182 -2 2.409 -2.818 2.773 c -6.364 3.864 -10.864 7.773 -16.591 11.455 c -14.909 10.591 -26.364 19.455 -42.909 29.955 c -2.455 1.364 -4.545 3.273 -6.864 4.773 c -6.636 5.318 -15.5 9.727 -21.18 14.955 c -1.636 1.364 -3.773 1.682 -5.273 3.091 c -3 2.818 -6.455 3.227 -9.773 1.091 m 6 -5 c 3.318 -3.045 7.455 -5.727 10.909 -8.227 c 2.909 -2.136 9.364 -6.727 14.364 -10.227 c 11.545 -8.182 12.773 -9.273 12.227 -10.727 c -0.409 -1.045 -1.545 -1.136 -16.455 -0.773 c -8.818 0.182 -16.955 0.5 -18.05 0.773 c -1.773 0.409 -2.227 0.136 -4.5 -2.409 c -2.045 -1.864 -2.818 -4.591 -4.318 -6.682 c -0.864 -1.045 -1.045 -3.864 -1.318 -20 c -0.364 -21.636 -0.136 -20.955 -6 -16.5 c -2.636 1.864 -5.682 3.545 -7.773 5.364 c -3 2.682 -3.045 2.818 -3.045 6.409 c 0 2.545 0.5 4.727 1.591 7.273 c 2.227 3.955 1.318 8.955 3.455 12.818 c 2.5 4.182 4.864 18.818 6.773 20.909 c 1.955 4.273 3.955 9.364 5 13.364 c 0 0.409 0.818 2.682 1.864 5 c 1.545 3.5 2.136 4.227 3.409 4.227 c 0.818 0 1.636 -0.273 1.864 -0.636 m -14.09 -19 c -1.682 -5.227 -3.5 -10.136 -5.455 -15.727 c -3.136 -7.591 -4.818 -16.591 -6.773 -22.591 c -2.909 -7.818 0.091 -12.273 12 -20.5 c 1.682 -1.182 3.591 -2.273 4.182 -2.5 c 3.091 -2 5.682 -5.182 8.636 -6.818 c 3.409 -1.864 4.318 -4.091 4.318 -10.727 c 0 -6.05 0.318 -7.636 1.545 -7.636 c 1.273 0 1.591 1.591 1.591 7.864 c 0 9.364 -2.409 11.318 4.045 10.09 c 1.909 -0.364 2.182 -1.5 2.5 -8.773 c 0.364 -8.818 3.227 -14.14 9.636 -17.727 c 4.545 -1.136 10.273 -1.545 14.09 0.545 c 5.636 3.091 9.545 10.5 9.591 18.05 c 0 5.227 0.5 6.864 1.864 7 c 7.545 0.682 4.955 -6.182 3.545 -16.955 c -0.636 -5 -6.682 -9.909 -10.591 -12.909 c -4 -3.091 -9.591 -4.455 -15.909 -3.909 c -4.182 0.364 -9.727 2.409 -9.5 1.727 c 0.409 -1.318 10.591 -5.182 14.818 -5.227 c 3.273 -0.045 5.864 1.091 7.591 -0.455 c 1.136 -1 1.182 -3.636 2.136 -4.045 c 11.955 -7.545 17.318 -7.136 22.09 -16.14 c 0 -1.364 -0.818 -3.636 -1.273 -3.636 c -1.318 0 -5 1.591 -7.318 3.091 c -1.591 1.182 -3.682 1.364 -5.05 2.545 c -7.091 6.273 -17.591 8.636 -23.909 14 c -6 3.318 -12 6.682 -17.864 10.273 c -1.273 0.773 -3.864 1.955 -5.773 2.545 c -4.318 1.455 -6.909 0.727 -11.636 -3.364 c -4.864 -4.227 -6.182 -4.636 -9.409 -3 c -5.5 2.5 -11.05 5.909 -15.455 8.5 c -1.227 0.727 -3.727 2.727 -5.545 4.455 l -3.273 3.091 l 0.364 4 c 0.227 2.182 0.545 5.455 0.727 7.273 c 0.364 3.227 0.273 3.5 -2.182 6.455 c -2.864 3.455 -2.864 3.727 -0.364 9.227 c 2.273 5.05 4.545 10.909 5.318 13.545 c 2.909 6.5 5.136 11.955 7.955 18.227 c 3.273 7.364 6.455 13.955 8.318 17.364 c 0.955 1.818 2.455 4.773 3.273 6.636 c 0.864 1.818 1.955 3.5 2.455 3.727 c 0.5 0.182 1.227 1.409 1.682 2.727 c 0.955 3.091 2.682 2.909 3 -0.273 m 17.864 -85.91 c 0 -1.636 5.05 -10.773 6.05 -10.773 c 1.091 0 -1.682 6.682 -2.227 8.136 c -3.682 9.682 -3.818 3.818 -3.818 2.636 m 5.273 -9.636 c 0 -1.545 4.045 -5.409 5.5 -5.409 c 1.364 0 -1.409 4.136 -2.727 5.545 c -1.318 1.364 -2.773 1.273 -2.773 -0.136 m 5.136 -4.909 c 0.136 -0.455 1 -0.909 1.909 -1 c 1.318 -0.182 6.364 -2.136 6.091 -1.364 c -0.455 1.227 -8.364 3.591 -8 2.364 m 42.955 81.45 l 1.545 -1.318 l 0.455 -18.5 c 0.455 -20.14 0.182 -22.455 -2.864 -24.18 c -1 -0.545 -8.636 -0.727 -27.864 -0.682 c -26.05 0.136 -26.545 0.136 -27.591 1.5 c -4.409 6.773 -1.273 45.41 1 44.23 c 19.364 0.682 30.909 1 52.36 0.227 c 0.773 0 2.136 -0.591 2.955 -1.273 m 13.227 -13.591 c 1.818 -1.591 9.409 -7.364 16.227 -12.364 c 6.682 -4.864 6.318 -4.227 5.409 -8.909 c 0 -3.545 -3.136 -6.545 -3.227 -9.909 c 0 -2.364 -1.727 -2.818 -3.682 -0.955 c -0.864 0.864 -3.136 2.545 -5.05 3.727 c -9.273 5.955 -13.727 9.318 -14.545 11.05 c -1 2.045 -1.545 17.636 -0.682 19.09 c 0.636 1.091 3.273 0.273 5.545 -1.727 m -30.682 -39.727 c 1.318 -6.773 1.364 -3.636 -1.318 -12.273 c 1 -3 -5.909 -6.545 -13.409 -4.136 c -4.909 2.773 -6.227 6.682 -6.818 11.5 c -0.409 3.591 -0.045 5.773 0.955 5.773 c 0.318 0 19.727 -0.273 20.591 -0.864 m 7.227 -29.23 c 1.909 -1.5 4.182 -2.818 5.773 -4.5 c 6.773 -4.455 18.409 -12.636 24.318 -15.318 c 1.364 0 1.409 -2.909 1 -4.136 c -0.545 -1.409 -2.727 -1.227 -3.5 0.227 c -2.909 1.545 -5.773 4.045 -8.364 5.318 c -6.091 3.182 -11.682 7.591 -17.591 10.5 c -2.136 0.818 -3.5 2.682 -5.727 3.273 c -1.636 0 -3.273 1.727 -2.818 2.955 c 0.455 1.364 5.136 3.136 6.909 1.682" transform="matrix(0.08594 0 0 0.08594 -0.039 -0.334)" stroke-opacity="0.996" fill="#1946ed" stroke="#1946ed" fill-opacity="0.996"/><g fill-opacity="0.992"><path d="m 9.707 14.684 c -0.492 -0.016 -0.453 0.031 -0.551 -0.676 c -0.047 -0.336 -0.066 -0.754 -0.066 -1.484 c -0.004 -1.07 0.031 -1.371 0.168 -1.543 l 0.07 -0.086 h 2.238 c 1.23 0 2.281 0.012 2.336 0.027 c 0.051 0.016 0.117 0.066 0.148 0.113 c 0.086 0.141 0.113 0.801 0.082 2.156 l -0.027 1.305 l -0.109 0.086 c -0.059 0.047 -0.156 0.094 -0.219 0.105 c -0.113 0.023 -3.27 0.02 -4.07 -0.004" fill="#ffa400"/><path d="m 9.598 10.289 c -0.004 -0.027 0 -0.316 0 -0.645 c -0.023 -0.504 0.105 -1.148 0.422 -1.473 c 0.195 -0.121 0.273 -0.438 0.492 -0.488 c 0.367 -0.145 0.758 -0.254 1.023 -0.238 c 0.578 0.035 1.031 0.168 1.523 0.621 c 0.41 0.379 0.363 0.547 0.457 1.133 c 0.094 0.598 0.098 0.82 0.02 0.93 c -0.066 0.098 -0.281 0.141 -0.352 0.07 c -0.027 -0.027 -0.172 -0.188 -0.188 -0.426 c -0.039 -0.617 -0.148 -0.949 -0.461 -1.285 c -0.559 -0.445 -1.25 -0.582 -1.766 -0.195 c -0.473 0.355 -0.547 0.605 -0.605 1.465 c -0.031 0.492 -0.191 0.578 -0.41 0.578 c -0.098 0 -0.156 -0.016 -0.156 -0.047" fill="#fff"/></g><g fill="#1a46ec"><path d="m 9.832 14 c -0.113 -0.109 -0.078 -0.273 0.086 -0.387 c 0.184 -0.129 1.148 -0.078 1.805 0.098 c 0.168 0.043 0.301 0.094 0.301 0.109 c 0 0.051 -1.539 0.277 -1.902 0.277 c -0.125 0 -0.219 -0.031 -0.289 -0.098"/><path d="m 9.98 12.973 c -0.293 -0.09 -0.289 -0.309 0.012 -0.453 c 0.16 -0.078 0.379 -0.066 1.297 0.07 c 0.563 0.086 0.762 0.141 0.668 0.184 c -0.082 0.035 -1.16 0.188 -1.531 0.215 c -0.176 0.012 -0.375 0.008 -0.445 -0.016"/></g></svg>