<svg xmlns="http://www.w3.org/2000/svg" viewBox="0 0 22 22"><path d="m 19.734 16.828 c 7.91 -11.25 -6.699 -22.652 -16.02 -13.484 c -8.777 8.641 -0.641 22.06 10.285 17.863 c 2.281 -0.875 4.281 -2.313 5.734 -4.375" fill="#ffebcd"/><path d="m 10.809 15.14 c -1.305 -0.055 -2.902 -0.297 -3.754 -0.289 l -1.715 0.012 l 0.012 -2.348 l 0.359 -2.371 l 3.043 -1.551 c 1.836 -0.934 3.66 -1.742 3.984 -1.945 c 0.891 -0.566 1.609 -0.523 2.27 0.133 c 1.027 1.02 1.043 1.109 1.102 4.73 c 0.059 3.547 -0.008 3.43 -1.047 4.051 c -0.582 0.348 -2.949 -0.363 -4.254 -0.422" fill="#edd8aa"/><path d="m 13.613 15.59 c 0 -0.148 -1.27 -0.242 -2.277 -0.242 c -0.984 0 -0.93 -0.109 -0.594 -0.238 c 0.074 -0.027 0.723 -0.051 1.441 -0.051 c 1.102 0 1.34 0.023 1.52 0.148 c 0.141 0.102 0.445 0.164 0.934 0.191 c 0.469 0.031 0.781 0.039 0.805 0.109 c 0.027 0.082 -0.164 0.352 -0.918 0.152 c -0.484 -0.129 -0.91 -0.031 -0.91 -0.07 m -5.699 -0.805 c -0.156 -0.16 0.699 0.273 1.48 0.273 c 0.879 0 1.563 -0.074 1.48 0.063 c 1.758 0.168 -2.43 0.211 -2.516 0.125 m 7.316 -0.258 c 0.16 -0.211 0.176 -0.383 0.195 -2.063 c 0.023 -2.055 0.043 -1.988 -0.625 -1.992 c -0.344 0 -0.406 0.031 -0.59 0.297 c -0.176 0.262 -0.203 0.41 -0.223 1.266 c -0.012 0.535 -0.051 1.039 -0.09 1.125 c -0.09 0.242 0.242 0.391 0.164 0.609 c -0.051 0.129 -0.203 0.141 -1.473 0.102 c -1.383 -0.297 -3.211 -0.086 -4.203 -0.477 c -0.258 -0.113 -0.605 -0.16 -1.246 -0.176 c -1.906 -0.039 -2.051 0 -2.051 0.551 c 0.035 0.852 2.516 0.188 2.383 0.531 c -0.023 0.043 -1.07 0.211 -1.656 0.211 h -1.07 v -1.211 c 0 -1.203 0 -1.211 0.195 -1.18 c 0.148 0.02 0.199 0.09 0.219 0.305 c 0.027 0.273 0.035 0.281 0.473 0.289 c 1.691 0.031 2.602 0.082 2.918 0.168 c 0.199 0.059 0.867 0.133 1.48 0.176 c 0.613 0.039 1.504 0.129 1.977 0.199 c 0.969 0.141 1.645 0.168 1.707 0.066 c 0.121 -1.172 0.039 -1.363 -1.18 -1.422 c -1 0.094 -1.305 -0.434 -1.973 -0.363 c -0.309 0.035 -0.879 0.035 -1.262 0 c -0.563 -0.047 -1.586 -0.328 -1.66 -0.465 c -0.051 -0.09 -0.172 -0.203 -0.156 -0.219 c 0.016 -0.016 1.492 0.402 2.039 0.371 c 0.68 0.02 1.156 -0.035 1.785 0.176 l 0.965 -0.043 c 0.637 -0.148 1.367 0.301 1.367 -0.371 c 0 -0.414 0.09 -0.516 0.434 -0.516 c 0.34 0 0.406 -0.195 0.125 -0.344 c -0.148 -0.082 -0.172 -0.184 -0.172 -0.723 c 0 -0.52 -0.031 -0.656 -0.172 -0.781 c -0.164 -0.363 -0.445 -0.699 -0.543 -1.086 c -0.031 -0.121 -0.23 -0.383 -0.441 -0.578 c -0.301 -0.277 -0.453 -0.355 -0.691 -0.355 c -0.242 0 -0.324 0.043 -0.402 0.215 c -0.074 0.094 -1.07 0.555 -1.102 0.559 c -0.164 0 -0.285 0.059 -0.344 0.172 c -0.176 0.094 -0.957 0.512 -1.031 0.516 c -1.133 0.152 -0.238 1.145 -1.879 0.453 c 0.836 -0.465 2.246 -0.754 2.91 -1.398 c 0.27 -0.133 1 -0.508 1.117 -0.516 c 0.082 0 0.199 -0.059 0.258 -0.129 c 0.059 -0.074 0.176 -0.129 0.262 -0.129 c 0.082 0 0.324 -0.168 0.535 -0.375 c 0.371 -0.359 0.402 -0.371 0.895 -0.359 c 0.551 0.016 0.441 -0.063 1.527 1.109 c 0.121 0.129 0.219 0.289 0.219 0.359 c 0.141 0.293 0.336 0.535 0.328 0.82 c -0.012 0.25 0.027 0.379 0.129 0.434 c 0.121 0.066 0.145 0.23 0.145 0.973 c 0 0.629 -0.031 0.906 -0.109 0.941 c -0.086 0.039 -0.086 0.059 0 0.098 c 0.082 0.039 0.109 0.539 0.109 2.07 v 2.02 l -0.391 0.449 c -1.203 0.801 -0.555 0.23 -0.125 -0.355 m 0.113 -4.848 c 0.07 -0.531 -0.031 -1.188 -0.211 -1.371 c -0.094 -0.301 -0.41 -1.105 -0.418 -1.266 c 0 -0.301 -0.68 -1 -1.043 -1.074 c -0.414 -0.082 -0.645 -0.063 -0.75 0.063 c -0.074 0.09 0.008 0.223 0.375 0.59 c 0.395 0.398 0.473 0.527 0.473 0.785 c 0.199 0.461 0.367 0.914 0.559 1.375 c 0.07 0.172 0.129 0.496 0.129 0.727 c 0 0.23 0.027 0.445 0.059 0.477 c 0.031 0.031 0.219 0.059 0.418 0.059 c 0.359 0 0.359 -0.004 0.41 -0.363 m -8.98 4.75 c -0.305 -0.051 1.012 -0.211 1.133 -0.133 c 0.051 0.027 0.465 0.309 0.438 0.355 c -0.129 0.23 -0.754 0.145 -1.57 -0.223 m -1.617 -3.66 c 0.094 -0.461 -0.289 -1.148 0.215 -1.051 c 0.141 0.027 0.309 -0.031 0.488 -0.16 c 0.379 -0.031 1.434 -0.879 1.801 -0.891 c 0.09 0 0.234 -0.074 0.328 -0.168 c 1.01 -0.332 0.215 0.289 -0.082 0.504 c -0.328 0.242 -0.602 0.477 -0.602 0.52 c 0 0.121 0.34 0.281 0.48 0.227 c 0.207 -0.078 0.566 0.105 0.535 0.27 c -0.027 0.137 -0.16 0.152 -1.316 0.152 h -1.289 c -0.016 0.156 -0.035 0.313 -0.055 0.473 h 1.074 c 0.156 -0.051 1.957 0.035 1.555 0.504 c -0.027 0.031 -0.555 0.047 -1.168 0.039 c -0.887 -0.012 -1.148 -0.043 -1.27 -0.148 c -0.258 -0.234 -0.582 -0.148 -0.344 0.094 c 0.051 0.051 0.078 0.223 0.063 0.379 c -0.02 0.227 -0.07 0.297 -0.219 0.32 c -0.191 0.027 -0.195 0.02 -0.195 -1.063 m 4.32 -0.266 c -1.832 -0.395 -2.113 -0.703 -1.875 -0.762 c 0.258 -0.063 4.691 0.258 6.492 0.555 c 0.574 0.094 0.473 0.25 0.41 0.305 c -0.23 0.199 -2.887 -0.098 -3.91 -0.074 c -0.559 0.016 -1.059 0.004 -1.117 -0.023" fill="#5a2218" fill-opacity="0.765"/><path d="m 12.527 13.695 c -0.434 -0.055 -1.316 -0.148 -1.961 -0.211 c -0.648 -0.063 -1.395 -0.145 -1.664 -0.188 c -0.27 -0.043 -1.02 -0.094 -1.664 -0.113 c -1.547 -0.043 -1.516 -0.039 -1.559 -0.289 c -0.047 -0.258 -0.113 -0.34 -0.273 -0.34 c -0.105 0 -0.133 -0.027 -0.133 -0.137 c 0.148 -0.266 0.398 -0.215 0.371 -0.559 c -0.012 -0.141 -0.043 -0.301 -0.066 -0.355 c -0.059 -0.133 0.09 -0.125 0.387 0.02 c 0.207 0.102 0.34 0.113 1.285 0.117 c 0.578 0 1.191 -0.008 1.367 -0.02 c 0.262 -0.016 0.316 -0.004 0.344 0.078 c 0.082 0.258 0.449 0.324 1.734 0.316 c 0.898 -0.004 0.922 0 1.078 0.129 c 0.195 0.164 0.297 0.184 1.398 0.242 c 0.488 0.027 0.906 0.063 0.926 0.086 c 0.051 0.047 0.117 1.059 0.082 1.215 c -0.027 0.113 -0.055 0.121 -0.445 0.117 c -0.227 -0.004 -0.773 -0.051 -1.207 -0.109" fill="#8e014d"/><path d="m 11.492 11.813 c -0.383 -0.141 -1.121 -0.254 -2.082 -0.316 c -0.609 -0.039 -0.938 -0.086 -1.121 -0.152 c -0.383 -0.145 -0.879 -0.199 -1.727 -0.203 h -0.754 v -0.406 l 1.086 -0.012 c 0.594 -0.004 1.148 -0.008 1.234 -0.008 c 0.867 0.293 1.949 0.375 2.336 0.375 c 0.73 0 2.637 0.078 3.332 0.133 l 0.32 0.027 c 0 0.18 0 0.359 0 0.539 l -0.574 0.031 c -1.586 0.09 -1.785 0.09 -2.051 -0.008" fill="#a16906"/><path d="m 14.406 10.781 c -0.328 -0.16 -3.25 -0.461 -6.355 -0.652 c -0.527 -0.035 -0.715 -0.082 -0.715 -0.18 c 0 -0.027 0.266 -0.258 0.586 -0.512 c 0.324 -0.258 0.586 -0.484 0.586 -0.508 c 0.277 -0.113 0.668 -0.047 0.863 -0.25 c 0.551 -0.129 1.297 -0.777 1.777 -0.883 c 0.945 -0.156 0.754 -0.176 1.156 -0.66 c 0.121 -0.141 0.426 -0.113 0.699 0.066 c 0.289 0.191 0.539 0.492 0.738 0.891 c 0.191 0.332 0.297 0.668 0.48 0.953 c 0.148 0.23 0.16 0.293 0.191 0.828 c 0.027 0.555 0.035 0.582 0.168 0.688 c 0.25 0.195 0.113 0.363 -0.176 0.219" fill="#c38e1c"/></svg>