<svg xmlns="http://www.w3.org/2000/svg" viewBox="0 0 22 22"><path d="m 21.824 15.805 c 2.188 -31.641 -40.02 -7.926 -12.227 5.516 c 4.281 1.852 10.668 0.5 12.227 -5.516" fill="#abd045"/><g fill="#221f20"><path d="m 11.09 5.05 c -2.258 0.031 -4.363 1.57 -5.125 3.742 c -0.742 1.977 -0.273 4.352 1.145 5.879 c 1.359 1.523 3.566 2.184 5.535 1.633 c 0.629 -0.168 1.227 -0.449 1.766 -0.828 l 1.086 1.195 c 0.453 -0.277 0.965 -0.637 1.465 -1.5 l -1.086 -1.215 c 1.238 -1.855 1.258 -4.453 0.035 -6.309 c -1.035 -1.648 -2.902 -2.652 -4.84 -2.602 m 0.172 2.031 c 1.715 -0.082 3.313 1.332 3.586 3.066 c 0.313 1.633 -0.598 3.398 -2.09 4.059 c -1.477 0.715 -3.379 0.227 -4.363 -1.098 c -1.074 -1.34 -1.027 -3.449 0.109 -4.73 c 0.672 -0.805 1.715 -1.305 2.754 -1.297"/><path d="m 33.1 21.909 l -10.1 29.09 h 8.42 l 3.75 -11.402 c 1.956 2.862 3.451 6.715 5.153 9.734 c 1.587 -3.02 2.738 -6.94 4.509 -9.734 l 4.21 11.402 h 8.42 l -9.939 -28.91 c -0.897 -1.465 -1.403 1.037 -1.886 2.096 c -1.771 4.281 -3.405 8.63 -5.314 12.799 c -2.393 -4.912 -4 -10.185 -6.396 -15.1 c -0.46 -0.496 -0.828 0 -0.828 0" transform="matrix(0.16979 0 0 0.17335 4.388 3.835)" stroke="#000" stroke-width="0.888"/></g></svg>