<svg xmlns="http://www.w3.org/2000/svg" viewBox="0 0 22 22"><path d="m 20.21 17.398 c 7.156 -10.23 -8.961 -23.05 -17.383 -14.719 c -7.941 7.855 2.328 22.508 12.199 18.699 c 2.066 -0.797 3.875 -2.109 5.184 -3.98" fill="#ffd600"/><g stroke="#000"><path d="m 169.32 189.55 l -12.05 -7.545 l -8.364 3.364 c -9.955 4 -26.682 5.364 -37.727 3.045 c -28.909 -6 -48.05 -32.18 -48.05 -65.727 c 0.045 -40.909 24.545 -68.18 61.32 -68.18 c 22.955 0 43.773 12.182 53.41 31.27 c 12.727 25.09 10.136 61 -6.091 83.68 c -3.636 5.091 -3.682 5.318 -1.5 7.727 c 1.273 1.364 5.818 4.455 10.136 6.909 l 7.818 4.364 l -1.591 4 c -0.909 2.182 -2.455 4.091 -3.455 4.318 c -1 0.182 -7.227 -3.045 -13.864 -7.227 m -31.18 -15.318 c 2.318 -1.727 2.364 -1.818 0.091 -4.318 c -1.273 -1.364 -4.182 -3.136 -6.5 -3.909 c -4.409 -1.455 -4.909 -2.773 -2.955 -7.909 c 1.636 -4.409 4.409 -4.091 15.682 1.773 c 5.273 2.727 10.5 4.682 11.636 4.318 c 3.136 -1 9.409 -10.455 11.955 -18 c 1.818 -5.409 2.273 -10.545 2.227 -25.364 c 0 -22.273 -1.955 -28.727 -11.909 -39.591 c -13.682 -15 -35.545 -19.05 -54.955 -10.136 c -11.5 5.273 -19.5 15.227 -23.773 29.682 c -2.682 8.864 -2.591 34.09 0.091 43.14 c 3.955 13.364 12.409 22.864 25.727 28.909 c 5.455 2.5 8.682 3 18.455 3.091 c 8.318 0.045 12.545 -0.455 14.227 -1.682" transform="matrix(0.08594 0 0 0.08594 0.175 0.175)" fill="#080806"/><path d="m 123.53 134.04 c 0 9.855 -8.03 17.846 -17.884 17.846 c -9.855 0 -17.846 -7.991 -17.846 -17.846 c 0 -9.893 7.991 -17.884 17.846 -17.884 c 9.855 0 17.884 7.991 17.884 17.884" transform="matrix(0.10266 0 0 0.10266 -0.056 -2.986)" fill-rule="evenodd"/></g><path d="m 123.5 134 c 0 9.902 -7.966 17.869 -17.852 17.869 c -9.886 0 -17.852 -7.967 -17.852 -17.869 c 0 -9.828 7.966 -17.869 17.852 -17.869 c 9.886 0 17.852 8.04 17.852 17.869" transform="matrix(0.05492 0 0 0.05247 4.987 3.696)" fill="#ffd600" fill-rule="evenodd" stroke="#ffd600"/></svg>