<svg xmlns="http://www.w3.org/2000/svg" viewBox="0 0 22 22" xmlns:xlink="http://www.w3.org/1999/xlink"><defs><linearGradient id="J" gradientUnits="userSpaceOnUse" x1="72.75" y1="971.11" x2="84.75" y2="956.11" xlink:href="#2"/><linearGradient id="S" gradientUnits="userSpaceOnUse" x1="101" y1="986.31" x2="120.5" y2="960.31" xlink:href="#2"/><linearGradient id="I" gradientUnits="userSpaceOnUse" x1="87.31" y1="227.98" x2="110.63" y2="146.04"><stop stop-color="#738c93"/><stop offset="1" stop-color="#fff"/><stop offset="1" stop-color="#798ea2"/></linearGradient><linearGradient id="G" gradientUnits="userSpaceOnUse" x1="117.75" y1="905.11" x2="129.75" y2="890.11" xlink:href="#2"/><linearGradient id="F" gradientUnits="userSpaceOnUse" x1="135.25" y1="889.11" x2="144" y2="877.36" xlink:href="#2"/><linearGradient id="H" gradientUnits="userSpaceOnUse" x1="115.75" y1="904.11" x2="121.75" y2="896.11" xlink:href="#2"/><linearGradient id="K" gradientUnits="userSpaceOnUse" x1="70.75" y1="970.11" x2="76.75" y2="962.11" xlink:href="#2"/><linearGradient id="R" gradientUnits="userSpaceOnUse" x1="107.5" y1="989.56" x2="146.5" y2="940.81" xlink:href="#2"/><linearGradient id="Q" gradientUnits="userSpaceOnUse" x1="120" y1="957.36" x2="95" y2="997.36" xlink:href="#2"/><linearGradient id="L" gradientUnits="userSpaceOnUse" x1="77.75" y1="981.11" x2="89.75" y2="966.11" xlink:href="#2"/><linearGradient id="P" gradientUnits="userSpaceOnUse" x1="100" y1="997.36" x2="135" y2="947.36" xlink:href="#I"/><linearGradient id="N" gradientUnits="userSpaceOnUse" x1="76.866" y1="24.16" x2="65.81" y2="23.518" gradientTransform="matrix(-0.1512 -0.68918 0.2885 -0.06291 16.764 63.14)"><stop stop-color="#373d51" stop-opacity="0.439"/><stop offset="1" stop-color="#645b6f" stop-opacity="0"/></linearGradient><linearGradient id="M" gradientUnits="userSpaceOnUse" x1="75.75" y1="980.11" x2="81.75" y2="972.11" xlink:href="#2"/><linearGradient id="O" gradientUnits="userSpaceOnUse" x1="134.5" y1="278.68" x2="118.64" y2="75.39" xlink:href="#I"/><linearGradient id="E" gradientUnits="userSpaceOnUse" x1="134" y1="884.96" x2="141" y2="876.36" xlink:href="#2"/><linearGradient id="4" gradientUnits="userSpaceOnUse" x1="109.93" y1="947.92" x2="150.5" y2="892.36"><stop stop-color="#696969"/><stop offset="1" stop-color="#abb1b0"/></linearGradient><linearGradient id="D" gradientUnits="userSpaceOnUse" x1="133.75" y1="904.12" x2="140.8" y2="894.56" xlink:href="#2"/><linearGradient id="3" gradientUnits="userSpaceOnUse" x1="155.34" y1="252.25" x2="158.33" y2="148.96" gradientTransform="matrix(0.07096 -0.01547 0.01345 0.06129 -4.945 -0.026)"><stop stop-color="#8ebfe4" stop-opacity="0.416"/><stop offset="0.25" stop-color="#c5cc89" stop-opacity="0.416"/><stop offset="0.375" stop-color="#b1b1b1" stop-opacity="0.416"/><stop offset="0.5" stop-color="#ab8192" stop-opacity="0.416"/><stop offset="0.75" stop-color="#9abbc9" stop-opacity="0.416"/><stop offset="0.874" stop-color="#b3d6d5" stop-opacity="0.416"/><stop offset="1" stop-color="#e5f2fa" stop-opacity="0.416"/></linearGradient><linearGradient id="1" gradientUnits="userSpaceOnUse" x1="169.09" y1="255" x2="170" y2="143" gradientTransform="matrix(1.25496 0 0 1.14087 -46.09 745.23)"><stop stop-color="#738c93"/><stop offset="0.5" stop-color="#fff"/><stop offset="1" stop-color="#798ea2"/></linearGradient><linearGradient id="0" gradientUnits="userSpaceOnUse" x1="230" y1="842.36" x2="132.43" y2="1079.54"><stop stop-color="#555" stop-opacity="0.694"/><stop offset="0.796" stop-color="#aaa" stop-opacity="0.694"/><stop offset="1" stop-color="#fff" stop-opacity="0.694"/></linearGradient><linearGradient id="2" gradientUnits="userSpaceOnUse" x1="167.25" y1="908.37" x2="104.43" y2="1064.54"><stop stop-color="#555"/><stop offset="1" stop-color="#fff"/></linearGradient><linearGradient id="5" gradientUnits="userSpaceOnUse" x1="101.52" y1="923.83" x2="140" y2="872.36" xlink:href="#2"/><linearGradient id="C" gradientUnits="userSpaceOnUse" x1="137.6" y1="903.36" x2="142.4" y2="895.36" xlink:href="#2"/><linearGradient id="B" gradientUnits="userSpaceOnUse" x1="115.75" y1="886.12" x2="122.8" y2="876.56" xlink:href="#2"/><linearGradient id="6" gradientUnits="userSpaceOnUse" x1="100.36" y1="955.89" x2="139.33" y2="901.45" xlink:href="#4"/><linearGradient id="A" gradientUnits="userSpaceOnUse" x1="119.6" y1="885.36" x2="124.4" y2="877.36" xlink:href="#2"/><linearGradient id="8" gradientUnits="userSpaceOnUse" x1="135" y1="882.36" x2="120" y2="907.36" xlink:href="#4"/><linearGradient id="7" gradientUnits="userSpaceOnUse" x1="142.38" y1="868.36" x2="106.38" y2="916.36" xlink:href="#2"/><linearGradient id="9" gradientUnits="userSpaceOnUse" x1="115" y1="902.36" x2="130" y2="882.36" xlink:href="#4"/></defs><path d="m 4.563 1.938 c -7.578 4.172 -4.637 17.242 1.602 19.453 c 7.43 2.637 21.535 -4.223 13.273 -15.836 c -2.887 -3.914 -7.301 -7.789 -14.875 -3.613" fill="#a9a9a9"/><path d="m 49.986 822.35 l 160 0.003 l 0.022 99.98 l -50.01 50.03 l 0.018 49.957 l -109.99 0.058" transform="matrix(0.05654 -0.01233 0.01179 0.05372 -7.968 -36.692)" stroke="url(#0)" fill-opacity="0.51" stroke-linecap="square" stroke-width="2"/><path d="m 167.29 911.79 c -34.688 0.037 -62.788 28.13 -62.75 62.744 c -0.043 34.673 28.02 62.782 62.706 62.745 c 34.673 0.033 62.773 -28.06 62.75 -62.744 c 0.028 -34.604 -28.1 -62.727 -62.706 -62.745 m -0.059 51.32 c 6.355 0.004 11.427 5.168 11.436 11.423 c -0.006 6.325 -5.14 11.399 -11.428 11.41 c -6.289 0.011 -11.376 -5.083 -11.37 -11.408 c -0.009 -6.255 5.074 -11.415 11.363 -11.425" transform="matrix(0.05654 -0.01233 0.01179 0.05372 -11.167 -40.621)" fill="url(#1)" stroke="url(#2)" stroke-width="2.3"/><path d="m 9.08 6.293 c -1.961 0.426 -3.219 2.281 -2.809 4.145 c 0.406 1.859 2.328 3.02 4.285 2.598 c 1.961 -0.43 3.219 -2.285 2.809 -4.145 c -0.406 -1.863 -2.328 -3.03 -4.285 -2.598 m 0.605 2.758 c 0.355 -0.078 0.703 0.133 0.777 0.473 c 0.074 0.336 -0.152 0.676 -0.512 0.754 c -0.355 0.074 -0.703 -0.137 -0.777 -0.473 c -0.074 -0.34 0.152 -0.676 0.512 -0.754" fill="url(#3)"/><path d="m 127.2 869.52 c -12.644 0.006 -22.86 10.241 -22.857 22.82 c 0.003 12.58 10.228 22.852 22.806 22.83 c 12.644 -0.006 22.86 -10.241 22.857 -22.82 c -0.003 -12.58 -10.242 -22.783 -22.806 -22.83" transform="matrix(0.05654 -0.01233 0.01179 0.05372 -7.968 -36.692)" fill="url(#4)" stroke="url(#5)"/><path d="m 127.02 874.35 c -9.957 0.042 -18.06 8.07 -18.06 18.03 c 0.011 9.891 8.06 17.992 18.02 17.951 c 9.942 0.028 18.04 -8 18.04 -17.963 c 0.004 -9.961 -8.06 -17.992 -18.01 -18.02" transform="matrix(0.05654 -0.01233 0.01179 0.05372 -7.968 -36.692)" fill="url(#6)" stroke="url(#7)"/><path d="m 126.97 884.89 c -4.144 -0.006 -7.459 3.305 -7.492 7.442 c 0.033 4.152 3.402 7.543 7.546 7.549 c 4.144 0.006 7.474 -3.374 7.507 -7.511 c -0.033 -4.152 -3.402 -7.543 -7.56 -7.479" transform="matrix(0.05654 -0.01233 0.01179 0.05372 -7.968 -36.692)" fill="url(#8)" stroke="url(#9)"/><path d="m 118.03 881.38 c -1.098 -0.034 -2.04 0.84 -2.01 2.01 c -0.019 1.086 0.906 1.953 2 1.987 c 1.113 -0.035 1.989 -0.925 2.01 -2.01 c -0.047 -1.101 -0.891 -2.022 -2 -1.987" transform="matrix(0.05654 -0.01233 0.01179 0.05372 -7.968 -36.692)" fill="url(#A)" stroke="url(#B)"/><path d="m 135.97 899.38 c -1.098 -0.034 -1.975 0.856 -1.994 1.942 c 0.032 1.171 0.891 2.022 1.989 2.056 c 1.113 -0.035 2.055 -0.91 2.01 -2.01 c 0.019 -1.086 -0.891 -2.022 -2 -1.987" transform="matrix(0.05654 -0.01233 0.01179 0.05372 -7.968 -36.692)" fill="url(#C)" stroke="url(#D)"/><path d="m 138 883.35 c 0.019 -1.086 -0.906 -1.953 -2 -1.987 c -1.098 -0.034 -1.989 0.925 -2.01 2.01 c 0.047 1.101 0.891 2.022 2 1.987 c 1.098 0.034 1.989 -0.925 2.01 -2.01" transform="matrix(0.05654 -0.01233 0.01179 0.05372 -7.968 -36.692)" fill="url(#E)" stroke="url(#F)"/><path d="m 120 901.39 c 0.034 -1.156 -0.891 -2.022 -1.989 -2.056 c -1.113 0.035 -1.989 0.925 -2.01 2.01 c -0.019 1.086 0.891 2.022 2 1.987 c 1.098 0.034 1.975 -0.856 1.994 -1.942" transform="matrix(0.05654 -0.01233 0.01179 0.05372 -7.968 -36.692)" fill="url(#G)" stroke="url(#H)"/><path d="m 65.03 160.98 l 19.965 0.002 l -0.027 15.04 c 0.044 20.01 5.02 29.945 25.05 29.962 l 34.952 0.024 l 0.053 14.991 l -35.02 -0.039 c -40.01 0.051 -45.03 -14.988 -45 -44.939" transform="matrix(0.05654 -0.01233 0.01179 0.05372 1.418 6.091)" stroke-opacity="0.094" fill="url(#I)" stroke="#231203" stroke-linecap="square" stroke-width="2.3"/><path d="m 75.03 967.34 c -0.047 -1.101 -0.906 -1.953 -2 -1.987 c -1.113 0.035 -2.055 0.91 -2.01 2.01 c -0.019 1.086 0.891 2.022 2 1.987 c 1.098 0.034 1.975 -0.856 2.01 -2.01" transform="matrix(0.05654 -0.01233 0.01179 0.05372 -7.968 -36.692)" fill="url(#J)" stroke="url(#K)"/><path d="m 79.991 977.35 c 0.019 -1.086 -0.891 -2.022 -2 -1.987 c -1.098 -0.034 -1.975 0.856 -2.01 2.01 c 0.047 1.101 0.906 1.953 2 1.987 c 1.113 -0.035 1.989 -0.925 2.01 -2.01" transform="matrix(0.05654 -0.01233 0.01179 0.05372 -7.968 -36.692)" fill="url(#L)" stroke="url(#M)"/><path d="m 10.457 15.383 l 0.98 -4.895 l -1.406 1.895 l -1.426 2.559 l 0.313 1.758" fill="url(#N)" fill-rule="evenodd"/><path d="m 133.03 133.03 l 2.97 1.991 l 20.01 -24.06 l -13.999 28.05 l 2.97 1.991 l -24.991 49.961 c -9.96 10 -29.988 0.025 -24.996 -14.971" transform="matrix(0.05654 -0.01233 0.01179 0.05372 1.418 6.091)" stroke-opacity="0.094" fill="url(#O)" stroke="#231203" stroke-linecap="square" stroke-width="2"/><path d="m 108.24 968.42 c -4.912 0.036 -8.848 4 -8.909 8.935 c 0.005 4.946 4.01 8.919 8.925 8.883 c 4.898 0.034 8.914 -3.989 8.895 -8.865 c -0.005 -4.946 -3.947 -8.904 -8.911 -8.953" transform="matrix(0.05654 -0.01233 0.01179 0.05372 -7.968 -36.692)" fill="url(#P)" stroke="url(#Q)"/><path d="m 114.81 977.35 c -0.016 -3.567 -2.93 -6.489 -6.518 -6.513 c -3.602 0.046 -6.486 2.947 -6.47 6.513 c 0.002 3.636 2.916 6.559 6.518 6.513 c 3.587 0.024 6.472 -2.877 6.47 -6.513" transform="matrix(0.05654 -0.01233 0.01179 0.05372 -7.968 -36.692)" fill="url(#R)" stroke="url(#S)"/><g fill="#535353"><path d="m 15.535 11.691 c -1.297 0 -2.359 1.117 -2.359 2.48 c 0 1.367 1.063 2.484 2.359 2.484 c 0.5 0 0.965 -0.172 1.348 -0.457 l 0.473 0.5 l 0.578 -0.465 v -0.141 l -0.477 -0.496 c 0.27 -0.402 0.434 -0.895 0.434 -1.422 c 0 -1.367 -1.063 -2.484 -2.355 -2.484 m 0 0.859 c 0.855 0 1.539 0.723 1.539 1.625 c 0 0.293 -0.074 0.57 -0.203 0.805 l -0.766 -0.805 l 0.496 -0.379 v -0.141 l -0.574 -0.609 l -1.563 1.648 v 0.141 l 0.578 0.465 l 0.492 -0.523 l 0.766 0.805 c -0.227 0.137 -0.488 0.215 -0.766 0.215 c -0.855 0 -1.543 -0.719 -1.543 -1.625 c 0 -0.902 0.684 -1.621 1.543 -1.621" fill-opacity="0.502"/><path d="m 15.535 11.832 c -1.297 0 -2.359 1.121 -2.359 2.484 c 0 1.363 1.063 2.48 2.359 2.48 c 0.5 0 0.965 -0.172 1.348 -0.457 l 0.473 0.504 l 0.578 -0.609 l -0.477 -0.496 c 0.27 -0.402 0.434 -0.895 0.434 -1.422 c 0 -1.363 -1.063 -2.484 -2.355 -2.484 m 0 0.859 c 0.855 0 1.539 0.723 1.539 1.625 c 0 0.293 -0.074 0.57 -0.203 0.809 l -0.766 -0.809 l 0.496 -0.52 l -0.574 -0.605 l -1.563 1.645 l 0.578 0.605 l 0.492 -0.523 l 0.766 0.809 c -0.227 0.133 -0.488 0.211 -0.766 0.211 c -0.855 0 -1.543 -0.719 -1.543 -1.621 c 0 -0.902 0.684 -1.625 1.543 -1.625"/></g></svg>