<svg xmlns="http://www.w3.org/2000/svg" viewBox="0 0 22 22"><path d="m 19.453 18.09 c 5.355 -8.184 1.035 -15.637 -5.03 -17.406 c -8.156 -2.379 -19.227 3.875 -11.93 16.758 c 2.898 5.121 13.145 6.477 16.957 0.648" fill="#f4f4f4"/><g fill="#d2cec6"><path d="m 4.367 17.578 c -0.156 -0.258 -0.188 -0.535 -0.227 -2.043 c -0.023 -0.961 -0.02 -2.313 0.012 -3.01 l 0.051 -1.258 l 0.887 -0.074 c 1.043 -0.09 4.906 -0.039 5.01 0.066 c 0.117 0.113 0.09 6.273 -0.027 6.391 c -0.063 0.066 -1.078 0.121 -2.812 0.16 c -0.863 -0.125 -2.555 0.195 -2.891 -0.234 m 1.891 -2.727 c 0.012 -0.844 -0.211 -1.129 -0.402 -1.09 c -0.215 0.039 -0.313 0.789 -0.184 1.121 c 0.133 0.34 0.574 0.609 0.586 -0.031 m 2.605 0.262 c 0.203 -0.246 0.145 -1.414 -0.066 -1.496 c -0.195 -0.074 -0.438 0.34 -0.438 0.746 c 0 0.629 0.293 1 0.504 0.75"/><path d="m 11.977 17.762 l -0.598 -0.059 l -0.059 -0.465 c -0.035 -0.258 -0.066 -1.711 -0.07 -3.23 l -0.008 -2.766 l 0.742 -0.066 c 0.988 -0.09 5.773 0.043 5.918 0.164 c 0.09 0.07 0.117 0.797 0.117 3.047 v 2.953 l -0.301 0.227 c -1.805 0.371 -3.449 0.379 -5.742 0.195 m 1.719 -3.32 c 0.031 -0.684 -0.016 -0.824 -0.297 -0.703 c -0.418 0.176 -0.195 1.336 -0.031 1.504 c 0.371 0.004 0.316 -0.563 0.328 -0.801 m 2.293 -0.57 c -0.117 -0.164 -0.207 -0.066 -0.277 0.082 c -0.133 0.277 0.004 1.242 0.129 1.242 c 0.512 -0.148 0.371 -1.01 0.148 -1.324"/><path d="m 4.191 10.11 c -0.195 -0.078 -0.195 -0.102 -0.16 -2.395 c 0.047 -2.641 0.082 -3.043 0.277 -3.207 c 0.176 -0.145 5.621 -0.301 5.77 -0.164 c 0.055 0.055 0.105 1.215 0.125 2.973 l 0.035 2.887 l -2.926 -0.008 c -1.605 0 -3.01 -0.039 -3.121 -0.086 m 3.457 -1.43 c 0.293 -0.215 0.082 -0.34 -0.559 -0.34 c -0.52 0 -0.602 0.02 -0.602 0.168 c 0 0.094 0.027 0.199 0.063 0.234 c 0.113 0.113 0.922 0.066 1.098 -0.063 m 1.039 -0.898 c 0.063 -0.184 0.074 -0.445 0.031 -0.633 c -0.086 -0.383 -0.129 -0.434 -0.316 -0.363 c -0.109 0.043 -0.145 0.199 -0.145 0.648 c 0 0.328 0.031 0.621 0.066 0.656 c 0.238 0.043 0.32 -0.18 0.363 -0.309 m -2.48 0.098 c 0.125 -0.234 0.121 -0.531 -0.012 -0.777 c -0.102 -0.188 -0.168 -0.438 -0.293 -0.266 c -0.133 0.18 -0.113 1.051 -0.004 1.16 c 0.176 0.074 0.25 -0.012 0.309 -0.117 m 1.438 -1.461 c 0.082 -0.031 0.148 -0.117 0.148 -0.188 c 0 -0.16 -0.793 -0.184 -0.891 -0.027 c -0.125 0.207 0.387 0.352 0.742 0.215"/><path d="m 11.289 10.06 l -0.023 -2.578 c -0.016 -1.539 0.012 -2.672 0.063 -2.82 l 0.09 -0.242 l 2.793 0.004 c 2.828 0.004 3.523 0.059 3.664 0.289 c 0.043 0.07 0.078 1.266 0.078 2.66 c 0.004 2.18 -0.016 2.555 -0.141 2.68 c -2.543 0.035 -4.324 0.172 -6.523 0.008 m 3.746 -1.371 c 0.242 -0.25 0.117 -0.352 -0.426 -0.352 c -0.566 0 -0.828 0.148 -0.625 0.355 c 0.426 -0.035 0.781 0.184 1.051 -0.004 m -1.438 -0.719 c 0.051 -0.102 0.094 -0.438 0.094 -0.754 c 0 -0.539 -0.012 -0.57 -0.203 -0.543 c -0.184 0.027 -0.207 0.09 -0.23 0.625 c -0.016 0.328 -0.008 0.656 0.02 0.723 c 0.148 0.16 0.258 0.063 0.32 -0.051 m 2.387 -0.313 c 0.063 -0.168 -0.102 -0.785 -0.203 -0.855 c -0.254 -0.184 -0.215 1.184 -0.125 1.281 c 0.094 0.094 0.281 -0.297 0.328 -0.422 m -1.066 -1.289 c 0.102 -0.168 -0.148 -0.367 -0.461 -0.367 c -0.324 0 -0.449 0.113 -0.367 0.332 c 0.059 0.156 0.738 0.188 0.828 0.035"/></g><g fill="#191970"><path d="m 6.742 6.926 c 0.074 -0.281 0.73 -0.344 0.953 -0.09 c 0.117 0.133 0.133 0.238 0.09 0.625 c -0.035 0.301 -0.105 0.508 -0.195 0.586 c -0.188 0.156 -0.617 0.152 -0.73 -0.004 c -0.098 -0.133 -0.176 -0.887 -0.113 -1.121" fill-opacity="0.925"/><path d="m 14.156 13.906 c 0.074 -0.281 0.727 -0.344 0.949 -0.09 c 0.121 0.133 0.137 0.242 0.094 0.629 c -0.035 0.301 -0.105 0.508 -0.199 0.582 c -0.188 0.156 -0.613 0.152 -0.73 -0.004 c -0.098 -0.133 -0.176 -0.887 -0.113 -1.117" fill-opacity="0.914"/></g></svg>