<svg xmlns="http://www.w3.org/2000/svg" viewBox="0 0 22 22"><path d="m 19.852 4.535 c 10.996 16.539 -24.07 26.727 -19.426 5.348 c 1.977 -8.836 14.383 -14.199 19.426 -5.348" fill="#bcb76a"/><g fill="#e8ddaf"><path d="m 12.469 9.836 c 0 0.195 -0.156 0.355 -0.344 0.355 c -0.188 0 -0.34 -0.16 -0.34 -0.355 c 0 -0.191 0.152 -0.352 0.34 -0.352 c 0.188 0 0.344 0.16 0.344 0.352"/><path d="m 15.703 14.684 c -0.238 -0.461 -0.508 -0.984 -0.508 -1.805 c 0 -1.371 0.738 -1.855 0.77 -1.875 c 0.109 -0.066 0.145 -0.211 0.082 -0.324 c -0.066 -0.113 -0.207 -0.148 -0.316 -0.082 c -0.039 0.023 -0.992 0.625 -0.992 2.281 c 0 0.938 0.309 1.539 0.559 2.023 c 0.18 0.348 0.32 0.625 0.32 0.938 c 0 0.223 -0.047 0.387 -0.137 0.469 c -0.09 0.086 -0.211 0.07 -0.211 0.07 c -0.012 0 -0.023 0 -0.035 0 h -0.844 c 0.098 -0.16 0.156 -0.348 0.156 -0.551 v -10.676 c 0 -0.105 -0.07 -0.199 -0.168 -0.23 c -0.102 -0.027 -0.207 0.016 -0.258 0.109 l -1.125 1.914 c -0.344 -0.008 -1.355 -0.016 -4.383 -0.016 c -0.645 0 -0.961 0 -1.121 0 l -1.035 -2.051 c -0.047 -0.098 -0.156 -0.145 -0.258 -0.121 c -0.102 0.027 -0.176 0.121 -0.176 0.23 v 10.844 c 0 0.563 0.445 1.02 0.992 1.02 h 8.207 c 0.016 0.004 0.035 0.004 0.063 0.004 c 0.113 0 0.316 -0.027 0.492 -0.184 c 0.199 -0.176 0.301 -0.457 0.301 -0.832 c 0 -0.43 -0.184 -0.785 -0.375 -1.156 m -7.262 -4.02 c -0.441 0 -0.801 -0.371 -0.801 -0.828 c 0 -0.453 0.359 -0.824 0.801 -0.824 c 0.441 0 0.801 0.371 0.801 0.824 c 0 0.457 -0.359 0.828 -0.801 0.828 m 2.246 0.953 h -0.172 l -0.02 0.328 c -0.004 0.125 -0.105 0.223 -0.227 0.223 c -0.004 0 -0.012 0 -0.016 0 c -0.125 -0.008 -0.223 -0.121 -0.215 -0.25 l 0.016 -0.301 h -0.172 c -0.129 0 -0.23 -0.105 -0.23 -0.238 c 0 -0.129 0.102 -0.238 0.23 -0.238 h 0.805 c 0.125 0 0.227 0.109 0.227 0.238 c 0 0.133 -0.102 0.238 -0.227 0.238 m 1.438 -0.953 c -0.441 0 -0.801 -0.371 -0.801 -0.828 c 0 -0.453 0.359 -0.824 0.801 -0.824 c 0.441 0 0.801 0.371 0.801 0.824 c 0 0.457 -0.359 0.828 -0.801 0.828"/><path d="m 8.785 9.836 c 0 0.195 -0.152 0.355 -0.34 0.355 c -0.191 0 -0.344 -0.16 -0.344 -0.355 c 0 -0.191 0.152 -0.352 0.344 -0.352 c 0.188 0 0.34 0.16 0.34 0.352"/></g><g fill="#191919"><path d="m 8.145 10.582 c -0.16 -0.07 -0.344 -0.258 -0.41 -0.414 c -0.27 -0.629 0.32 -1.309 0.949 -1.094 c 0.449 0.156 0.668 0.691 0.453 1.117 c -0.078 0.16 -0.246 0.324 -0.398 0.387 c -0.145 0.063 -0.457 0.066 -0.594 0.004 m 0.535 -0.484 c 0.141 -0.137 0.148 -0.363 0.012 -0.508 c -0.215 -0.238 -0.594 -0.078 -0.594 0.25 c 0.004 0.32 0.355 0.477 0.582 0.258"/><path d="m 11.777 10.547 c -0.574 -0.297 -0.57 -1.117 0.004 -1.43 c 0.18 -0.102 0.5 -0.102 0.68 0 c 0.168 0.09 0.324 0.258 0.391 0.418 c 0.07 0.172 0.063 0.445 -0.02 0.629 c -0.133 0.301 -0.332 0.438 -0.66 0.457 c -0.199 0.012 -0.25 0.004 -0.395 -0.074 m 0.566 -0.438 c 0.25 -0.215 0.117 -0.617 -0.203 -0.625 c -0.152 -0.004 -0.266 0.063 -0.328 0.199 c -0.16 0.348 0.246 0.676 0.531 0.426"/><path d="m 10.156 12.11 c -0.082 -0.055 -0.113 -0.176 -0.094 -0.34 l 0.023 -0.168 h -0.133 c -0.234 0 -0.359 -0.207 -0.215 -0.371 c 0.051 -0.059 0.102 -0.066 0.551 -0.066 c 0.434 0 0.496 0.008 0.547 0.063 c 0.133 0.152 0.016 0.375 -0.203 0.375 h -0.125 l -0.016 0.199 c -0.008 0.129 -0.035 0.223 -0.074 0.266 c -0.059 0.07 -0.195 0.09 -0.262 0.043"/></g></svg>