<svg xmlns="http://www.w3.org/2000/svg" viewBox="0 0 22 22"><path d="m 13.566 21.598 c 20.441 -4.238 -1.504 -33.402 -11.895 -15.883 c -4.453 6.805 1.379 18.07 11.895 15.883" fill="#9acd31"/><path d="m 19.02 9.195 c -0.285 0.32 -0.941 1 -0.941 1 l 1.699 1.656 c 0 0 0.66 -0.816 0.961 -1.156 c 0.074 -0.082 0.055 -0.262 -0.027 -0.336 c -0.258 -0.234 -0.684 -0.613 -0.684 -0.613 c 0 0 -0.398 -0.371 -0.648 -0.594 c -0.09 -0.082 -0.277 -0.047 -0.359 0.043 m -1.621 1.668 l -4.094 4.637 l 0.121 1.73 l 1.684 -0.113 l 4.051 -4.59" fill="#89b82d" fill-rule="evenodd"/><path d="m 9.281 5.504 c -0.27 -0.004 -0.539 0.027 -0.797 0.078 l -0.008 0.012 c -1.805 0.367 -3.184 2.055 -3.223 4.109 c -0.004 0.289 0.016 0.574 0.063 0.852 c 0 0 0 0.004 0 0.008 c -0.293 0.605 -0.473 1.273 -0.488 1.996 c -0.023 1.379 0.543 2.625 1.453 3.492 c -0.152 0.117 -0.281 0.258 -0.355 0.422 c -0.262 0.57 0.148 1.172 0.91 1.344 c 0.707 0.156 1.465 -0.113 1.781 -0.609 c 0.203 0.035 0.41 0.059 0.621 0.059 c 0.305 0.004 0.605 -0.02 0.895 -0.078 c 0.32 0.422 1.027 0.641 1.684 0.504 c 0.734 -0.152 1.121 -0.699 0.875 -1.211 c -0.078 -0.16 -0.211 -0.297 -0.375 -0.41 c 0.895 -0.832 1.477 -2.027 1.504 -3.371 c 0.02 -0.953 -0.234 -1.848 -0.695 -2.594 c 0.008 -0.098 0.016 -0.184 0.016 -0.281 c 0.043 -2.348 -1.684 -4.285 -3.859 -4.32" fill-opacity="0.102"/><path d="m 7.914 5.078 c -1.801 0.371 -3.18 2.055 -3.223 4.109 c -0.004 0.289 0.016 0.578 0.063 0.852 c 0 0.004 0.004 0.004 0.004 0.008 c -0.293 0.605 -0.477 1.273 -0.488 1.996 c -0.051 2.563 1.93 4.672 4.406 4.711 c 2.48 0.039 4.527 -2 4.582 -4.57 c 0.02 -0.953 -0.234 -1.848 -0.695 -2.594 c 0.008 -0.098 0.016 -0.184 0.016 -0.277 c 0.043 -2.352 -1.684 -4.289 -3.859 -4.324 c -0.27 -0.004 -0.539 0.027 -0.793 0.082" fill="#121919"/><path d="m 7.105 6.418 c -0.582 0.184 -1.02 0.754 -1.039 1.445 c -0.016 0.598 0.277 1.121 0.73 1.383 c -1.01 0.668 -1.695 1.855 -1.73 3.223 c -0.063 2.145 1.488 3.914 3.461 3.961 c 1.969 0.043 3.617 -1.652 3.676 -3.793 c 0.047 -1.59 -0.797 -2.969 -2.031 -3.598 c 0.699 -0.074 1.234 -0.512 1.23 -1.035 c -0.008 -0.57 -0.652 -1.02 -1.445 -1.012 c -0.465 0.004 -0.875 0.164 -1.133 0.418 c -0.176 -0.602 -0.684 -1.043 -1.301 -1.059 c -0.148 -0.004 -0.285 0.016 -0.422 0.063 m 1.656 2.133 c 0.039 0.047 0.082 0.086 0.129 0.129 c -0.051 -0.004 -0.098 -0.008 -0.145 -0.012 c -0.016 0 -0.031 0 -0.051 -0.004 c 0.023 -0.039 0.047 -0.07 0.066 -0.113" fill="#ececec"/><g fill="#2e3436"><path d="m 8.621 8.102 c 0.027 0.266 -0.117 0.492 -0.316 0.512 c -0.203 0.016 -0.391 -0.188 -0.414 -0.457 c -0.023 -0.27 0.117 -0.496 0.32 -0.512 c 0.199 -0.016 0.387 0.188 0.41 0.457"/><path d="m 9.605 8.09 c 0.027 0.18 -0.023 0.355 -0.129 0.461 c -0.109 0.102 -0.254 0.113 -0.379 0.031 c -0.129 -0.086 -0.211 -0.25 -0.223 -0.434 c -0.023 -0.176 0.023 -0.355 0.133 -0.457 c 0.105 -0.102 0.254 -0.113 0.379 -0.031 c 0.129 0.082 0.211 0.25 0.219 0.43"/></g><path d="m 7.281 9.16 c 0 0 0.875 -0.445 1.5 -0.391 c 0.617 0.055 1.156 0.484 1.156 0.484 c 0 0 -0.508 1.492 -1.457 1.367 c -0.945 -0.129 -1.203 -1.461 -1.203 -1.461" fill="#ffb20a"/><g fill="#121919"><path d="m 4.879 10.164 c 0 0 0.375 0.813 0.867 1.477 c 0.492 0.668 1.063 1.789 0.184 1.379 c -0.875 -0.41 -1.484 -1.051 -1.363 -1.793 c 0.129 -0.738 0.32 -1.063 0.32 -1.063"/><path d="m 12.23 9.418 c 0 0 -0.488 1.055 -1.137 1.922 c -0.641 0.867 -1.387 2.328 -0.246 1.797 c 1.141 -0.531 1.949 -1.367 1.781 -2.328 c -0.164 -0.965 -0.406 -1.391 -0.406 -1.391"/></g><g fill="#ffb20a"><path d="m 5.363 15.961 c -0.262 0.57 0.148 1.172 0.91 1.34 c 0.766 0.172 1.598 -0.152 1.855 -0.727 c 0.262 -0.57 -0.145 -1.172 -0.91 -1.344 c -0.762 -0.168 -1.594 0.156 -1.855 0.73"/><path d="m 12.13 15.965 c 0.25 0.516 -0.141 1.059 -0.875 1.215 c -0.734 0.152 -1.531 -0.141 -1.781 -0.66 c -0.25 -0.512 0.141 -1.059 0.875 -1.211 c 0.734 -0.156 1.531 0.141 1.781 0.656"/></g><path d="m 18.727 9 c -0.27 0.309 -0.891 0.953 -0.891 0.953 l 1.609 1.578 c 0 0 0.629 -0.777 0.914 -1.102 c 0.07 -0.078 0.051 -0.25 -0.027 -0.32 c -0.242 -0.223 -0.648 -0.586 -0.648 -0.586 c 0 0 -0.379 -0.352 -0.613 -0.566 c -0.086 -0.078 -0.266 -0.043 -0.344 0.043 m -1.535 1.59 l -3.887 4.418 l 0.117 1.648 l 1.594 -0.105 l 3.844 -4.375" fill="#fff" fill-rule="evenodd"/></svg>