<svg xmlns="http://www.w3.org/2000/svg" viewBox="0 0 22 22"><path d="m 4.059 19.578 c -16.531 -19.387 24.531 -29.551 16.918 -4.504 c -1.668 5.492 -12.461 9.73 -16.918 4.504" fill="#ff8c00"/><g fill="#fff"><path d="m 4.793 15.512 c -0.348 -0.281 -0.543 -0.637 -0.473 -0.84 c 0.691 -0.563 1.953 -1.719 2.34 -1.883 c 0.188 -0.066 0.207 -0.059 0.289 0.117 c 0.055 0.125 0.168 0.211 0.332 0.262 c 0.133 0.043 0.297 0.121 0.359 0.176 c 0.063 0.055 0.23 0.121 0.367 0.148 c 0.137 0.031 0.328 0.07 0.422 0.094 c 0.168 0.035 0.305 -0.059 0.895 -0.637 c 0.223 -0.219 0.117 -0.352 -0.418 -0.543 c -0.242 -0.09 -0.473 -0.199 -0.512 -0.246 c -0.043 -0.047 -0.188 -0.082 -0.328 -0.082 c -0.199 0.004 -0.281 0.043 -0.363 0.176 c -0.074 0.117 -0.578 0.461 -0.75 0.66 c -0.129 0.145 -0.504 0.07 -0.414 -0.078 c 1.645 -1.324 0.098 -0.059 1.723 -1.43 c 0.223 -0.16 0.457 -0.332 0.516 -0.387 c 0.656 -0.598 1.691 -1.496 1.77 -1.191 c 0.266 0.203 -0.457 0.605 0.055 0.051 c 0.121 -0.133 1.383 0.648 1.465 0.625 c 0.188 -0.051 0.426 0.074 0.43 0.223 c 0 0.242 -0.449 0.797 -1.109 1.367 c -0.27 0.234 -0.516 0.484 -0.547 0.555 c -0.879 0.84 -1.84 1.66 -2.723 2.523 c -0.816 0.805 -1.301 1.215 -1.43 1.215 c -0.637 -0.211 -1.332 -0.438 -1.895 -0.875 m 5.379 -4.01 c -0.043 -0.125 -0.188 -0.141 -0.188 -0.023 c 0.004 0.059 0.051 0.105 0.109 0.105 c 0.055 -0.004 0.09 -0.039 0.078 -0.082 m -0.523 -0.348 c 0 -0.055 -0.043 -0.102 -0.098 -0.102 c -0.105 0.004 -0.133 0.082 -0.055 0.16 c 0.078 0.074 0.156 0.047 0.152 -0.059 m -1.895 1.734 c -0.004 -0.098 0.07 -0.172 0.234 -0.242 c 0.285 -0.125 0.445 -0.109 0.48 0.055 c 0.039 0.199 -0.113 0.313 -0.426 0.32 c -0.246 0.004 -0.289 -0.016 -0.289 -0.133"/><g stroke="#fff" stroke-width="2.261" transform="scale(0.08594)"><path d="m 166.27 107 c -0.455 -1.364 -3.636 -2.591 -18.05 -6.727 c -5.818 -1.682 -11.636 -2.727 -20.455 -3.636 c -12.318 -1.273 -16.909 -2.182 -16.909 -3.318 c -0.045 -0.364 0.682 -1.136 1.5 -1.773 c 2 -1.455 7.273 -1.545 22.09 -0.318 c 9.182 0.727 12.318 1.273 15.273 2.636 c 2 0.909 4.091 1.682 4.591 1.682 c 0.5 0 2.773 0.909 5.05 2.045 c 4 2 10 7.818 10.05 9.773 c 0 1.364 -2.636 1.091 -3.136 -0.364"/><path d="m 188.55 91.41 c -10.727 -4.682 -29.32 -9.182 -47.45 -11.455 c -10.455 -1.318 -23.23 -4.182 -24.545 -5.455 c -1.682 -1.727 3.045 -2.682 11.591 -2.364 c 6.591 0.227 30.409 3.773 38.14 5.636 c 17.318 4.227 22.18 6.273 30.14 12.864 c 0.682 0.5 0.727 1.091 0.182 2.136 c -0.364 0.773 -0.909 1.409 -1.227 1.409 c -0.273 0 -3.318 -1.273 -6.818 -2.773"/><path d="m 219.23 75.909 c -0.773 -0.318 -3.182 -0.773 -5.273 -1 c -2.136 -0.273 -6.273 -1.182 -9.182 -2.045 c -2.909 -0.864 -10.682 -2.682 -17.273 -4.045 c -6.636 -1.318 -14.727 -3 -18 -3.727 c -3.318 -0.682 -9.955 -1.682 -14.818 -2.227 c -4.818 -0.5 -10.545 -1.409 -12.682 -1.909 c -5.136 -1.318 -11.591 -4.318 -10.636 -4.955 c 0.409 -0.273 3.045 -0.682 5.864 -0.955 c 5.682 -0.5 25.818 1.909 38.864 4.636 c 4.273 0.864 10.455 2.091 13.773 2.682 c 12.227 2.136 31.818 9.955 32.409 12.909 c 0.227 1.364 -0.773 1.545 -3.045 0.636"/></g></g></svg>