<svg xmlns="http://www.w3.org/2000/svg" viewBox="0 0 22 22"><path d="m 20.18 5.648 c 11.656 28.313 -37.37 15.01 -13.566 -3.477 c 4.27 -3.219 11.445 -3.469 13.566 3.477" fill="#d2d2d2"/><path d="m 77.14 335.16 c -11.873 -0.864 -16.718 -2.02 -22.995 -5.182 c -2.184 -1.152 -7.574 -2.663 -12.01 -3.383 c -19.11 -3.311 -33.503 -10.868 -43.26 -22.671 c -6.414 -7.773 -8.598 -14.251 -8.666 -25.694 c -0.068 -8.637 0.205 -10.08 3.071 -15.978 c 3.958 -8.277 10.167 -15.906 18.08 -22.1 c 3.48 -2.735 6.278 -5.47 6.278 -6.19 c 0 -2.663 4.981 -11.516 9.485 -16.985 c 2.661 -3.167 7.915 -8.06 11.668 -10.796 l 6.824 -4.966 v -6.05 c 0 -3.311 0.546 -7.05 1.228 -8.277 c 0.614 -1.152 1.024 -3.671 0.955 -5.542 c -0.341 -5.398 3.753 -20.01 8.12 -28.645 c 10.918 -21.736 30.433 -38.865 48.72 -42.608 l 5.8 -1.224 l 0.409 -8.06 c 0.478 -8.853 3.139 -15.618 6.892 -17.633 c 1.296 -0.72 5.868 -1.01 11.873 -0.792 c 8.802 0.288 10.372 0.648 16.581 3.815 c 7.642 3.958 12.555 9.428 14.671 16.338 c 0.682 2.303 1.228 8.853 1.228 14.61 l 0.068 10.364 l 13.511 5.686 c 7.369 3.095 14.875 6.406 16.649 7.341 c 1.774 0.936 3.616 1.727 4.094 1.727 c 0.478 0 2.32 -1.943 4.094 -4.318 c 5.527 -7.413 11.941 -9.5 19.379 -6.334 c 4.162 1.799 12.282 9.86 17.332 17.13 c 3.821 5.542 3.958 5.974 4.231 15.474 c 0.478 13.675 -1.501 17.633 -20.334 40.52 c -10.167 12.379 -12.351 16.626 -13.1 25.622 c -0.409 5.686 0 10.292 2.047 20.368 c 6.96 35.05 -0.068 55.35 -22.518 65.35 c -12.692 5.614 -26.407 6.478 -33.64 2.02 c -5.118 -3.167 -11.05 -2.087 -17.13 3.239 c -6.892 6.05 -19.17 11.66 -28.18 12.811 c -12.828 1.655 -20.06 1.871 -31.456 1.01 m 27.29 -6.478 c 14.193 -2.951 28.18 -10.22 32.28 -16.698 c 3.685 -5.83 1.638 -14.826 -6.755 -30.01 c -2.388 -4.246 -4.299 -8.349 -4.299 -9.14 c 0 -1.871 2.456 -3.743 4.094 -3.095 c 2.866 1.08 14.602 24.543 15.01 30.01 c 0.136 1.08 0.478 -2.375 0.819 -7.701 c 0.614 -7.989 1.228 -10.724 3.889 -16.05 c 4.094 -8.349 19.447 -24.974 22.586 -24.543 c 4.435 0.648 2.934 4.174 -5.391 12.811 c -10.372 10.796 -13.374 16.698 -13.92 27.421 c -0.887 20.44 4.094 25.05 22.859 21.09 c 3.889 -0.864 9.212 -2.591 11.805 -3.958 c 4.776 -2.375 11.873 -9.212 14.261 -13.603 c 4.504 -8.421 5.254 -25.982 1.774 -41.02 c -1.433 -6.478 -2.184 -12.883 -2.184 -20.44 c -0.068 -12.523 1.024 -15.546 9.758 -27.13 c 4.504 -6.05 4.64 -6.334 4.64 -13.603 c 0 -8.925 -1.296 -11.372 -5.186 -9.86 c -4.64 1.727 -10.167 10.94 -17.332 28.717 c -4.435 10.868 -6.482 13.675 -12.08 16.41 c -7.574 3.671 -14.875 2.591 -32.14 -4.678 c -0.682 -0.36 -2.593 2.231 -4.64 6.334 c -3.889 7.701 -6.619 9.788 -12.214 9.14 c -3.753 -0.504 -3.753 -0.432 -1.365 1.08 c 4.776 3.167 6.073 4.966 4.913 7.125 c -1.569 2.879 -3.139 2.447 -10.372 -2.591 c -18.287 -12.739 -47.08 -19.72 -68.17 -16.482 c -24.701 3.815 -47.08 17.489 -56.02 34.19 c -3.753 6.981 -3.889 7.773 -3.889 16.338 c 0.068 8.06 0.409 9.644 3.207 15.11 c 3.616 6.981 11.122 14.322 18.696 18.14 c 4.299 2.159 14.943 6.262 16.308 6.262 c 0.273 0 -0.751 -1.439 -2.184 -3.167 c -3.071 -3.599 -3 -6.19 0.273 -6.693 c 1.638 -0.216 3.753 1.08 7.165 4.246 c 9.144 8.565 18.833 13.459 32 16.05 c 9.144 1.871 22.722 1.799 31.798 0 m 43.19 -19.864 c 0 -0.288 -0.409 -0.72 -0.955 -1.08 c -0.614 -0.36 -1.024 -0.144 -1.024 0.432 c 0 0.576 0.409 1.08 1.024 1.08 c 0.546 0 0.955 -0.216 0.955 -0.432 m -26.407 -76.65 c -3.207 -3.815 -3.412 -9.356 -0.614 -14.898 c 1.16 -2.159 2.047 -4.606 2.047 -5.398 c 0 -2.591 -20.13 -9.644 -27.635 -9.644 c -0.682 0 -2.252 3.02 -3.48 6.765 c -1.228 3.671 -3.48 7.917 -4.981 9.428 c -2.252 2.303 -2.456 2.807 -1.092 3.167 c 0.955 0.288 5.732 1.439 10.645 2.591 c 4.981 1.224 13.1 4.102 18.01 6.549 c 4.981 2.375 9.144 4.39 9.348 4.462 c 0.205 0 -0.819 -1.367 -2.252 -3.02 m 18.423 -7.917 c 2.184 -4.39 4.03 -9.07 4.03 -10.436 c 0 -3.167 -2.934 -4.75 -7.847 -4.39 c -3.412 0.288 -3.958 0.792 -6.892 6.334 c -4.162 7.701 -4.162 10.58 -0.205 13.891 c 5.05 4.246 6.414 3.527 10.918 -5.398 m -104.54 2.735 c 8.188 -3.239 18.492 -5.686 27.29 -6.406 l 8.256 -0.648 l -3 -1.871 c -4.776 -2.879 -5.459 -5.974 -3 -14.11 c 1.16 -3.815 1.979 -7.05 1.774 -7.197 c -0.136 -0.144 -2.729 -0.792 -5.732 -1.439 c -3 -0.648 -6 -1.655 -6.755 -2.231 c -1.024 -0.864 -1.296 -0.216 -1.296 3.455 c 0 6.621 -1.296 9.14 -6.687 12.739 c -6.278 4.246 -12.76 10.436 -16.376 15.618 c -3.412 4.822 -3.616 5.83 -1.16 4.822 c 0.955 -0.432 3.958 -1.655 6.687 -2.735 m 143.5 -5.04 c 4.64 -2.303 6.551 -6.765 8.461 -19.361 c 2.32 -15.69 6.209 -25.838 11.941 -31.16 c 2.388 -2.159 5.322 -4.246 6.482 -4.606 c 1.16 -0.432 2.115 -1.08 2.115 -1.511 c 0 -0.432 -3.889 -4.894 -8.734 -9.788 l -8.734 -8.997 l -15.01 -6.334 c -8.256 -3.383 -25.793 -10.292 -38.962 -15.186 c -20.88 -7.773 -24.633 -8.853 -28.591 -8.421 c -12.01 1.367 -27.02 11.947 -38.758 27.28 c -7.779 10.148 -15.15 31.31 -13.715 39.15 c 0.751 3.743 2.252 4.75 8.871 5.758 c 4.162 0.648 5.254 0.432 7.984 -1.655 c 2.661 -1.943 4.299 -2.375 9.689 -2.303 c 8.188 0.144 12.623 2.231 13.783 6.621 c 0.819 3.383 1.16 3.527 11.191 5.83 c 3.071 0.648 8.802 2.735 12.828 4.606 c 6.96 3.167 7.506 3.239 9.758 1.727 c 3.275 -2.087 9.348 -1.943 14.807 0.504 c 4.913 2.159 6.619 4.462 6.619 9.07 c 0 3.671 2.456 5.47 10.713 8.133 c 6.755 2.159 13.783 2.447 17.263 0.648 m -96.21 -8.925 c 2.115 -2.663 6.687 -18.785 5.595 -19.792 c -0.546 -0.576 -3.275 -1.296 -6.073 -1.655 c -4.845 -0.576 -5.186 -0.432 -6.551 2.303 c -3 5.83 -5.8 16.554 -4.64 17.921 c 1.911 2.303 10.1 3.167 11.668 1.224 m 147.73 -31.02 c 1.911 -2.879 3.48 -5.902 3.48 -6.765 c -0.068 -2.519 -7.984 7.05 -7.984 9.644 c 0 1.296 0.205 2.375 0.478 2.375 c 0.273 0 2.047 -2.375 4.03 -5.254 m -2.115 -12.595 c 3.071 -4.39 3.207 -5.83 0.955 -8.349 c -2.32 -2.591 -6.551 -2.231 -9.758 0.72 c -2.729 2.519 -2.729 2.591 -0.955 4.75 c 4.299 5.182 5.8 6.693 6.414 6.693 c 0.409 0 1.911 -1.727 3.344 -3.815 m -3.548 -16.626 c 2.593 0 5.527 0.432 6.551 0.864 c 1.706 0.792 1.774 0.72 0.614 -1.439 c -0.682 -1.296 -4.03 -5.182 -7.438 -8.637 c -5.595 -5.758 -6.482 -6.334 -10.235 -6.334 c -3.685 0 -4.572 0.504 -8.256 4.75 c -2.184 2.591 -4.03 5.04 -4.03 5.398 c 0 0.36 2.252 3.167 5.05 6.262 l 5.118 5.542 l 3.958 -3.239 c 3.275 -2.591 4.913 -3.167 8.666 -3.167 m -69.26 -32.1 c 1.433 -7.413 -1.296 -20.296 -4.845 -23.25 c -1.433 -1.224 -1.501 -1.01 -0.478 1.655 c 1.092 2.807 0.273 11.588 -1.911 20.8 c -0.409 1.655 0.136 2.375 2.32 3.167 c 4.162 1.511 4.231 1.511 4.913 -2.375 m -12.623 -10.724 c 1.365 -8.133 1.296 -8.781 -0.409 -10.652 c -4.231 -4.678 -6 -1.01 -4.981 10.292 c 0.751 8.709 1.092 9.932 2.729 9.428 c 0.682 -0.288 1.842 -4.174 2.661 -9.07 m -12.76 -1.943 c -0.409 -8.06 1.16 -14.11 4.231 -16.554 l 2.388 -1.871 l -5.527 -1.152 c -7.03 -1.439 -10.235 -0.144 -11.941 4.822 c -1.638 4.75 -1.706 16.626 -0.068 17.705 c 2.252 1.439 9.212 4.03 10.235 3.815 c 0.614 -0.144 0.887 -2.951 0.682 -6.765" transform="matrix(0.05725 0 0 0.05427 4.58 -0.472)" stroke="#000"/></svg>