<svg xmlns="http://www.w3.org/2000/svg" viewBox="0 0 22 22"><path d="m 11.03 0.082 c 14.434 -1.664 14.234 22.18 -0.258 21.898 c -13.477 0.785 -14.695 -23.2 0.258 -21.898" fill="#a6b1ba"/><path d="m 86.59 57.05 h 83.86 c 8.727 0 15.818 8.136 15.818 18.14 v 110.27 c 0 10.05 -7.091 18.14 -15.818 18.14 h -83.86 c -8.773 0 -15.818 -8.091 -15.818 -18.14 v -110.27 c 0 -10 7.05 -18.14 15.818 -18.14" transform="scale(0.08594)" fill="#6c7e8e" stroke="#9ca6b2" stroke-width="1.089"/><path d="m 7.398 17.805 c -0.016 -0.027 -0.07 -0.051 -0.121 -0.051 c -0.047 0 -0.246 -0.082 -0.438 -0.184 c -0.402 -0.211 -0.68 -0.508 -0.887 -0.953 l -0.133 -0.289 v -10.125 l 0.133 -0.293 c 0.207 -0.441 0.484 -0.742 0.887 -0.953 c 0.191 -0.102 0.391 -0.184 0.438 -0.184 c 0.051 0 0.105 -0.023 0.121 -0.051 c 0.043 -0.07 7.215 -0.07 7.258 0 c 0.016 0.027 0.07 0.051 0.121 0.051 c 0.047 0 0.246 0.082 0.438 0.184 c 0.402 0.211 0.68 0.512 0.887 0.953 l 0.137 0.293 v 10.125 l -0.137 0.289 c -0.207 0.445 -0.484 0.742 -0.887 0.953 c -0.191 0.102 -0.391 0.184 -0.438 0.184 c -0.051 0 -0.105 0.023 -0.121 0.051 c -0.043 0.074 -7.215 0.074 -7.258 0 m 7.367 -0.551 c 0.309 -0.109 0.621 -0.348 0.785 -0.594 c 0.285 -0.434 0.273 -0.238 0.301 -5.395 l 0.027 -4.754 l -0.113 -0.309 c -0.133 -0.367 -0.48 -0.758 -0.824 -0.926 l -0.234 -0.113 h -7.359 l -0.23 0.113 c -0.348 0.168 -0.695 0.559 -0.828 0.926 l -0.113 0.309 l 0.027 4.754 c 0.027 5.156 0.016 4.957 0.305 5.395 c 0.07 0.109 0.223 0.266 0.336 0.355 c 0.438 0.328 0.305 0.316 4.172 0.32 c 3.113 0.004 3.543 -0.008 3.75 -0.082" fill="#161718"/><path d="m 161.59 124.28 c 0 6.498 -5.163 11.771 -11.509 11.771 c -6.346 0 -11.509 -5.273 -11.509 -11.771 c 0 -6.535 5.163 -11.808 11.509 -11.808 c 6.346 0 11.509 5.273 11.509 11.808" transform="matrix(0.10895 0 0 0.1052 -7.157 1.422)" fill="#fff" stroke="#fff"/><path d="m 102.45 185.45 c -8.318 -2.682 -12.682 -8.909 -12.682 -18.14 c 0 -7.864 3.091 -13.318 9.455 -16.818 c 6.955 -3.818 16.727 -1.727 21.5 4.545 c 5.273 6.909 5.227 18.05 -0.091 24.273 c -2.636 3.045 -8.727 6.227 -12.773 6.682 c -1.545 0.182 -3.955 -0.091 -5.409 -0.545 m 3.545 -7.636 l 1.909 -1.636 l 1.818 1.682 c 2.136 2.091 3.591 1.818 5.773 -1.091 c 2.364 -3.136 2.364 -3.182 0.682 -5.636 l -1.545 -2.318 l 1.909 -2.182 c 1.091 -1.227 1.727 -2.545 1.5 -2.955 c -0.227 -0.409 -1.273 -1.955 -2.273 -3.409 c -1.727 -2.591 -1.955 -2.682 -4.091 -2.318 c -1.227 0.227 -2.727 1 -3.273 1.727 l -1.045 1.318 l -1.5 -1.727 c -1.273 -1.5 -1.773 -1.682 -3.5 -1.318 c -1.318 0.273 -2.545 1.182 -3.545 2.727 c -1.955 2.818 -1.955 3.5 0.091 6.182 l 1.636 2.091 l -1.636 1.727 c -2.182 2.227 -2.045 3.318 0.591 6.273 c 2.682 2.955 3.818 3.091 6.5 0.864" transform="scale(0.08594)" fill="#00bfff" stroke="#00bfff" stroke-width="0.623"/><path d="m 161.57 124.27 c 0 6.498 -5.127 11.771 -11.473 11.771 c -6.382 0 -11.509 -5.273 -11.509 -11.771 c 0 -6.535 5.127 -11.808 11.509 -11.808 c 6.346 0 11.473 5.273 11.473 11.808" transform="matrix(0.10895 0 0 0.1052 -7.107 -2.581)" fill="#fff" stroke="#fff"/><path d="m 99.82 138.55 c -4.136 -1.5 -7.864 -5.591 -9.136 -9.909 c -1.318 -4.5 -1 -12.682 0.591 -15.727 c 4.636 -7.864 14.909 -12.409 23.14 -8.409 c 3.182 1.682 6.909 5.409 8.636 8.636 c 1.955 3.636 1.909 13.09 -0.091 17.14 c -1.727 3.545 -4.409 6.364 -7.455 7.773 c -3.227 1.545 -12.09 1.864 -15.682 0.5 m 10.818 -3.909 c 1.409 -0.545 1.591 -0.955 1.591 -3.727 v -3.136 h 2.455 c 3 0 3.773 -1.136 3.773 -5.455 c 0 -3.455 -0.773 -4.545 -3.227 -4.545 c -1.955 0 -2.591 -0.773 -2.636 -3.364 c -0.045 -2.227 -2 -3.455 -5.409 -3.455 c -2.955 0 -4.409 1.182 -4.864 4.091 c -0.364 2.136 -0.636 2.455 -2.273 2.636 c -2.955 0.364 -3.409 1.091 -3.409 5.773 v 4.318 h 2.727 c 2.955 0 3.5 0.545 3.5 3.636 c 0.045 0.909 0.227 1.955 0.5 2.364 c 0.864 1.318 4.773 1.818 7.273 0.864" transform="scale(0.08594)" fill="#00bfff" stroke="#00bfff" stroke-width="0.623"/><path d="m 161.56 124.26 c 0.036 6.535 -5.127 11.808 -11.473 11.808 c -6.346 0 -11.509 -5.273 -11.509 -11.808 c 0 -6.498 5.163 -11.808 11.509 -11.808 c 6.346 0 11.509 5.31 11.473 11.808" transform="matrix(0.10895 0 0 0.1052 -3.454 -2.556)" fill="#fff" stroke="#fff"/><path d="m 142.59 138.73 c -6.364 -2.364 -9.909 -7.727 -10.318 -15.727 c -0.318 -6.318 0.818 -10.273 4.318 -14.182 c 6.773 -7.545 22.727 -7.409 28.636 4.091 c 1.727 3.318 2.364 11 1.227 14.591 c -1.318 4.182 -4.409 8.182 -7.727 10 c -2.455 1.318 -4.091 1.682 -8.409 1.864 c -3.636 0.182 -6.136 -0.045 -7.727 -0.636 m 16.364 -15.545 c 0 -2.636 -0.318 -4.227 -0.864 -4.727 c -0.591 -0.455 -3.5 -0.636 -8.909 -0.545 l -8 0.182 l -0.182 3.682 c -0.091 2 -0.045 4.045 0.136 4.5 c 0.273 0.682 2.273 0.864 9.09 0.864 h 8.727" transform="scale(0.08594)" fill="#00bfff" stroke="#00bfff" stroke-width="0.623"/><path d="m 161.57 124.28 c 0 6.506 -5.145 11.771 -11.501 11.771 c -6.356 0 -11.501 -5.265 -11.501 -11.771 c 0 -6.54 5.145 -11.805 11.501 -11.805 c 6.356 0 11.501 5.265 11.501 11.805" transform="matrix(0.11616 0 0 0.11648 -4.624 -0.042)" fill="#fff" stroke="#fff"/><g fill="#00bfff" stroke="#00bfff" transform="scale(0.08594)"><path d="m 145.09 185.41 c -3.182 -1.227 -8.636 -4.955 -10 -6.864 c -1.909 -2.682 -2.955 -6.545 -2.955 -11.182 c 0 -7.682 2.727 -12.864 8.682 -16.636 c 5.591 -2.591 12.773 -3.045 17.591 0 c 3.364 2.136 5.545 4.818 7.409 9.136 c 1.773 4.091 1.545 12.364 -0.5 16.182 c -3.864 7.409 -13.591 11.909 -20.227 9.364 m 7.364 -2.409 c 2.182 -1.864 2.227 -5.455 0.182 -7.682 c -1.727 -1.818 -3.773 -1.864 -5.818 -0.045 c -2.182 1.909 -2.545 4.636 -1 7.136 c 1.591 2.545 4.136 2.727 6.636 0.591 m 4.636 -10.318 c 1.409 -0.409 1.545 -0.773 1.727 -4.591 l 0.182 -4.182 l -2.045 -0.091 c -3.591 -0.045 -9.409 -0.091 -12.818 0 l -3.273 0.091 v 4.318 c 0 3.545 0.182 4.364 1.091 4.591 c 1.727 0.455 13.409 0.364 15.14 -0.136 m -3.455 -12.545 c 2.955 -2.909 0.591 -8.318 -3.682 -8.318 c -3.818 0 -6.182 3.591 -4.591 6.955 c 1.591 3.273 5.636 3.955 8.273 1.364" stroke-width="0.623"/><path d="m 93.27 76.59 h 70.14 c 0.227 0 0.455 0.182 0.455 0.455 v 17.14 c 0 0.273 -0.227 0.455 -0.455 0.455 h -70.14 c -0.227 0 -0.455 -0.182 -0.455 -0.455 v -17.14 c 0 -0.273 0.227 -0.455 0.455 -0.455"/></g></svg>