<svg xmlns="http://www.w3.org/2000/svg" viewBox="0 0 22 22"><path d="m 19.441 18.18 c 5.352 -8.23 1.035 -15.727 -5.03 -17.504 c -8.148 -2.395 -19.211 3.895 -11.922 16.852 c 2.898 5.148 13.14 6.512 16.949 0.652" fill="#404040"/><g fill-rule="evenodd"><path d="m 5.527 7.06 l 4.074 6.895 l 0.906 -5.977 l -0.906 -0.918 m 3.621 0 l -0.906 0.918 l 0.906 5.977 l 4.074 -6.895 m -9.05 8.273 c -0.5 0 -0.906 0.414 -0.906 0.922 c 0 0.508 0.406 0.918 0.906 0.918 c 0.5 0 0.902 -0.41 0.902 -0.918 c 0 -0.508 -0.402 -0.922 -0.902 -0.922 m 3.168 0 c -0.5 0 -0.906 0.414 -0.906 0.922 c 0 0.508 0.406 0.918 0.906 0.918 c 0.5 0 0.902 -0.41 0.902 -0.918 c 0 -0.508 -0.402 -0.922 -0.902 -0.922 m 3.168 0 c -0.5 0 -0.906 0.414 -0.906 0.922 c 0 0.508 0.406 0.918 0.906 0.918 c 0.5 0 0.906 -0.41 0.906 -0.918 c 0 -0.508 -0.406 -0.922 -0.906 -0.922" fill-opacity="0.102"/><g fill="#f9f9f9"><path d="m 10.05 7.52 l -0.906 -0.922 h -4.074 l 4.074 6.895"/><path d="m 11.867 7.52 l 0.902 -0.922 h 4.074 l -4.074 6.895"/></g></g><g fill="#f9f9f9"><path d="m 8.695 15.793 c 0 0.508 -0.402 0.918 -0.902 0.918 c -0.5 0 -0.906 -0.41 -0.906 -0.918 c 0 -0.508 0.406 -0.918 0.906 -0.918 c 0.5 0 0.902 0.41 0.902 0.918"/><path d="m 11.867 15.793 c 0 0.508 -0.406 0.918 -0.906 0.918 c -0.5 0 -0.906 -0.41 -0.906 -0.918 c 0 -0.508 0.406 -0.918 0.906 -0.918 c 0.5 0 0.906 0.41 0.906 0.918"/><path d="m 15.04 15.793 c 0 0.508 -0.406 0.918 -0.906 0.918 c -0.5 0 -0.906 -0.41 -0.906 -0.918 c 0 -0.508 0.406 -0.918 0.906 -0.918 c 0.5 0 0.906 0.41 0.906 0.918"/></g></svg>