<svg xmlns="http://www.w3.org/2000/svg" viewBox="0 0 22 22"><path d="m 0.176 6.32 c -2.188 31.348 40.02 7.852 12.227 -5.465 c -4.281 -1.836 -10.668 -0.492 -12.227 5.465" fill="#6e6e6f"/><g fill="#f4ce03"><path d="m 6.219 9.457 c -0.18 -0.168 -0.418 -0.543 -0.531 -0.836 c -0.184 -0.488 -0.188 -0.574 -0.027 -0.992 c 0.117 -0.309 0.266 -0.488 0.461 -0.551 c 0.438 -0.148 1.371 -0.113 1.887 0.07 c 0.578 0.203 0.879 0.141 1.563 -0.32 l 0.531 -0.359 v 0.551 c 0 0.723 -0.211 0.949 -1.484 1.594 c -0.555 0.285 -1.164 0.656 -1.352 0.832 c -0.426 0.391 -0.633 0.395 -1.047 0.012"/><path d="m 9.797 17.14 c -0.266 -0.301 -0.297 -0.43 -0.18 -0.699 c 0.297 -0.676 0.773 -0.891 1.43 -0.645 c 0.332 0.121 1.156 0.223 1.832 0.223 c 1.059 0 1.262 0.051 1.465 0.363 c 0.234 0.355 0.23 0.363 -0.273 0.336 c -0.281 -0.012 -1.328 -0.004 -1.836 0.152 c -0.508 0.16 -0.879 0.453 -1.32 0.516 c -0.68 0.105 -0.84 0.07 -1.117 -0.246"/><path d="m 8.06 17.367 c -0.445 -0.223 -0.664 -0.512 -0.664 -0.887 c 0 -0.324 0.336 -0.59 1.031 -0.809 c 0.465 -0.148 0.516 -0.043 0.461 0.98 c -0.051 0.902 -0.195 1.031 -0.828 0.715"/><path d="m 6.215 17.25 c -0.383 -0.191 -0.566 -0.438 -0.566 -0.754 c 0 -0.277 0.285 -0.504 0.883 -0.688 c 0.398 -0.125 0.441 -0.039 0.395 0.832 c -0.043 0.766 -0.168 0.875 -0.711 0.609"/></g><g fill="#d2d1d1"><path d="m 13.504 14.395 c -0.5 -0.566 -0.297 0.484 -0.508 0.68 c -0.352 0.332 -0.512 -0.313 -0.438 -2.086 c 0.074 -1.867 -0.797 -2.922 -1.336 -3.738 l -0.551 -0.84 c 0.176 -0.469 0.277 -0.492 0.453 -0.961 l 0.914 0.102 c 0.344 0.039 0.996 0.262 1.449 0.488 c 0.699 0.348 0.914 0.535 1.395 1.215 c 0.809 1.398 1.441 2.77 2.184 4.234 c 0.332 0.672 -0.059 0.734 -0.516 0.301 c -0.426 -0.398 -0.535 -0.363 -0.535 0.188 c 0 0.566 -0.086 0.898 -0.41 0.441 c -0.328 -0.461 -0.543 -0.961 -0.516 -0.234 c 0.016 0.52 -0.281 0.969 -0.52 0.371 c -0.277 -0.707 -0.617 -0.734 -0.617 -0.313 c 0.102 1.488 -0.391 0.555 -0.449 0.152"/><path d="m 11.219 13.957 c 0.219 -0.789 0.219 -0.984 0.012 -1.629 c -0.469 -1.418 -1.441 -2.164 -2.832 -2.164 c -0.375 0 -0.688 -0.051 -0.688 -0.109 c 0 -0.188 0.664 -1.078 1.547 -1.117 l 0.895 -0.035 l 0.484 0.52 c 0.566 0.605 1.02 1.535 1.242 3.066 c 0.141 0.965 0.105 1.223 -0.191 1.504 c -0.406 0.379 -0.578 0.367 -0.469 -0.035"/><path d="m 4.395 13.539 c -0.148 -0.262 0.117 -2.488 0.555 -2.938 c 0.262 -0.27 1.336 -0.723 1.504 -0.535 c 0.148 0.168 -0.02 0.41 -0.301 1.285 c -0.25 0.773 -0.332 1.316 -0.25 1.605 c 0.121 0.402 -0.313 1.914 -0.73 2.148 c -0.488 0.27 -0.59 -1.23 -0.777 -1.566"/></g><path d="m 6.848 11.129 c 0.75 -0.918 2.477 -0.402 3.086 0.277 c 0.473 0.523 0.813 1.305 0.82 1.875 c 0.008 0.887 -0.797 1.941 -1.48 1.941 c -3.316 0.516 -3.164 -3.035 -2.426 -4.094" fill="#fdfdfd"/><g fill="#fff"><path d="m 8.496 6.785 c -0.465 -0.203 -0.687 -0.469 -0.687 -0.805 c 0 -0.297 0.348 -0.535 1.062 -0.734 c 0.48 -0.133 0.984 -0.191 0.93 0.734 c -0.051 0.82 -0.656 1.09 -1.305 0.805"/><path d="m 6.988 6.777 c 0.395 -0.168 0.586 -0.383 0.586 -0.66 c 0 -0.242 -0.297 -0.438 -0.91 -0.602 c -0.41 -0.109 -0.84 -0.156 -0.793 0.605 c 0.043 0.672 0.559 0.891 1.117 0.656"/></g><path d="m 8.969 6.094 c 0 0.207 -0.188 0.375 -0.418 0.375 c -0.234 0 -0.422 -0.168 -0.422 -0.375 c 0 -0.207 0.188 -0.375 0.422 -0.375 c 0.23 0 0.418 0.168 0.418 0.375"/><path d="m 7.375 6.156 c 0 0.18 -0.168 0.324 -0.375 0.324 c -0.207 0 -0.375 -0.145 -0.375 -0.324 c 0 -0.18 0.168 -0.328 0.375 -0.328 c 0.207 0 0.375 0.148 0.375 0.328"/><g fill="#d2d1d1"><path d="m 7.48 5.328 c -0.152 0.086 -1.438 -0.066 -1.695 -0.32 c -0.156 -0.156 -0.418 -0.777 -0.313 -0.875 c 0.098 -0.086 0.238 0.012 0.742 0.176 c 0.449 0.145 0.762 0.191 0.93 0.145 c 0.23 -0.07 0.262 -0.055 0.395 0.188 c 0.16 0.285 0.133 0.578 -0.059 0.688"/><path d="m 8.117 5.27 c 0.156 0.07 1.492 -0.258 1.762 -0.555 c 0.164 -0.176 0.438 -0.855 0.324 -0.941 c -0.102 -0.078 -0.246 0.043 -0.773 0.277 c -0.465 0.207 -0.789 0.297 -0.965 0.27 c -0.238 -0.043 -0.273 -0.02 -0.414 0.25 c -0.164 0.313 -0.133 0.613 0.066 0.699"/></g></svg>