<svg xmlns="http://www.w3.org/2000/svg" viewBox="0 0 22 22"><path d="m 20.637 16.277 c -5.04 10.258 -21.488 5.684 -20.613 -5.492 c 0.531 -10.16 14.13 -14.01 19.473 -6.777 c 2.707 3.129 3.375 8.313 1.141 12.27" fill="#b2804f"/><path d="m 9.824 19.398 c -0.727 -0.141 -1.563 -0.426 -2.215 -0.754 c -0.914 -0.461 -1.293 -0.734 -2.117 -1.516 c -2.434 -2.309 -3.187 -5.789 -1.953 -8.98 c 0.352 -0.906 0.961 -1.813 1.785 -2.664 c 0.773 -0.793 1.457 -1.281 2.461 -1.762 c 1.184 -0.566 1.598 -0.641 3.457 -0.641 c 1.465 0.004 1.699 0.023 2.277 0.203 c 1.063 0.332 2.01 0.855 2.867 1.582 c 1 0.859 1.668 1.691 2.203 2.77 c 0.555 1.113 0.781 1.984 0.836 3.207 c 0.074 1.59 -0.191 2.746 -0.969 4.211 c -0.516 0.977 -1.086 1.68 -1.941 2.41 c -0.887 0.758 -1.754 1.25 -2.855 1.629 c -0.836 0.289 -0.926 0.301 -2.246 0.324 c -0.758 0.012 -1.473 0.004 -1.59 -0.02 m 1.535 -1.453 c 0.316 -0.004 0.016 -0.348 -0.469 -0.41 c -0.289 -0.039 -0.957 0.137 -0.996 0.199 c -0.082 0.133 0.516 0.262 0.82 0.211 c 0.137 -0.02 0.543 0 0.645 0 m -2.656 -0.723 c 0.129 -0.238 0.109 -0.602 -0.039 -0.66 c -0.422 -0.16 -0.953 0.453 -0.605 0.707 c 0.234 0.172 0.539 0.148 0.645 -0.047 m 2.02 0.117 c 0.207 -0.082 0.18 -0.609 -0.039 -0.723 c -0.215 -0.117 -1.277 -0.164 -1.477 -0.07 c -0.156 0.078 -0.293 0.598 -0.199 0.754 c 0.059 0.094 1.477 0.129 1.715 0.039 m 2.242 -0.809 c -0.031 -0.047 -0.09 -0.086 -0.137 -0.086 c -0.043 0 -0.078 0.039 -0.078 0.086 c 0 0.047 -0.094 0.52 -0.02 0.516 c 0.75 -0.016 0.262 -0.469 0.234 -0.516 m -5.176 -0.32 c 0.059 -0.309 0.016 -0.367 -0.266 -0.367 c -0.305 0.004 -0.41 0.082 -0.477 0.363 c -0.059 0.234 -0.051 0.238 0.32 0.238 c 0.344 0 0.383 -0.02 0.422 -0.234 m 0.664 -0.293 c 0 -0.137 -0.039 -0.246 -0.09 -0.246 c -0.117 0 -0.273 0.426 -0.215 0.582 c 0.078 0.203 0.305 -0.047 0.305 -0.336 m -1.719 0.094 c 0 -0.105 -0.059 -0.168 -0.16 -0.168 c -0.238 0 -0.285 0.098 -0.129 0.27 c 0.16 0.18 0.289 0.137 0.289 -0.102 m 3.117 0.082 c 0.047 -0.074 0.063 -0.242 0.027 -0.367 c -0.051 -0.207 -0.09 -0.227 -0.488 -0.227 c -0.598 0 -0.766 0.105 -0.766 0.48 v 0.301 l 0.57 -0.027 c 0.41 -0.016 0.594 -0.063 0.656 -0.16 m 1.137 -0.164 c 0 -0.281 -0.02 -0.301 -0.344 -0.355 c -0.406 -0.066 -0.559 0.027 -0.559 0.352 c 0 0.32 0.063 0.359 0.512 0.328 c 0.383 -0.023 0.391 -0.027 0.391 -0.324 m 2.078 -0.273 c -0.027 -0.07 -0.281 -0.164 -0.289 -0.066 c -0.281 0.066 -0.215 0.375 0.188 0.488 c 0.051 -0.145 0.125 -0.359 0.102 -0.422 m 3.102 0.055 c 0.293 -0.207 0.242 -0.383 -0.113 -0.383 c -0.316 0 -0.445 0.145 -0.355 0.387 c 0.066 0.164 0.227 0.164 0.469 -0.004 m -9.762 -0.258 c 0.125 -0.273 0.004 -0.414 -0.301 -0.336 c -0.258 0.063 -0.363 0.27 -0.223 0.438 c 0.156 0.188 0.414 0.137 0.523 -0.102 m 0.738 -0.148 c 0.023 -0.184 -0.008 -0.234 -0.141 -0.234 c -0.164 0 -0.27 0.156 -0.27 0.398 c 0 0.086 0.066 0.121 0.191 0.102 c 0.137 -0.02 0.203 -0.094 0.219 -0.266 m 1.734 -0.102 c 0.176 -0.215 0.07 -0.434 -0.207 -0.434 c -0.199 0 -0.266 0.047 -0.313 0.23 c -0.035 0.129 -0.039 0.254 -0.016 0.281 c 0.098 0.094 0.43 0.043 0.535 -0.078 m 1.469 0.039 c 0.219 0 0.25 -0.031 0.25 -0.246 c 0 -0.289 -0.145 -0.352 -0.824 -0.355 c -0.473 0 -0.672 0.129 -0.621 0.402 c 0.031 0.152 0.563 0.301 0.832 0.23 c 0.063 -0.02 0.227 -0.031 0.363 -0.031 m 0.91 -0.137 c 0.063 -0.16 -0.145 -0.324 -0.262 -0.211 c -0.094 0.094 -0.008 0.348 0.117 0.348 c 0.051 0 0.117 -0.063 0.145 -0.137 m 4.41 -0.035 c 0.117 -0.078 0.117 -0.094 0 -0.172 c -0.164 -0.105 -0.516 -0.109 -0.516 -0.004 c 0 0.074 0.242 0.254 0.344 0.258 c 0.023 0 0.102 -0.039 0.172 -0.082 m -2.27 -0.234 c -0.059 -0.063 -1.492 0.098 -1.488 0.203 c 0.008 0.305 1.367 0.047 1.398 -0.055 c 0.094 -0.32 0.113 -0.129 0.09 -0.148 m 3.215 0.063 c 0 -0.191 -0.242 -0.23 -0.523 -0.082 c -0.234 0.129 -0.121 0.254 0.23 0.254 c 0.238 0 0.293 -0.035 0.293 -0.172 m -9.617 -0.176 c 0.09 -0.047 0.164 -0.164 0.164 -0.258 c 0 -0.129 -0.059 -0.168 -0.25 -0.168 c -0.27 0 -0.523 0.191 -0.523 0.395 c 0 0.145 0.363 0.164 0.609 0.031 m 9.926 -0.488 c -0.094 -0.094 -0.156 0.055 -0.09 0.211 c 0.063 0.145 0.07 0.145 0.105 -0.004 c 0.02 -0.086 0.012 -0.18 -0.016 -0.207 m -7.316 0.184 c 0.227 -0.09 0.152 -0.207 -0.133 -0.207 c -0.191 0 -0.277 -0.047 -0.309 -0.172 c -0.059 -0.219 -0.25 -0.223 -0.367 -0.008 c -0.148 0.277 -0.02 0.438 0.344 0.438 c 0.18 0 0.387 -0.023 0.465 -0.051 m 2.848 -0.379 c -0.07 -0.551 -0.125 -0.688 -0.273 -0.688 c -0.145 0 -0.293 0.086 -0.164 0.594 c 0.063 0.242 0.293 0.656 0.375 0.656 c 0.105 0 0.109 -0.211 0.063 -0.563 m 2.082 0.277 c -0.016 -0.082 -0.113 -0.16 -0.219 -0.176 c -0.211 -0.031 -0.223 -0.016 -0.141 0.191 c 0.074 0.191 0.398 0.18 0.359 -0.016 m 1.039 -0.086 c -0.012 -0.363 -0.113 -0.648 -0.242 -0.691 c -0.094 -0.031 -0.199 -0.074 -0.156 0.25 c 0.031 0.223 0.172 0.559 0.195 0.602 c 0.102 0.16 0.211 0.07 0.203 -0.156 m -4.719 -0.066 c 0 -0.117 -0.039 -0.215 -0.086 -0.215 c -0.047 0 -0.086 0.059 -0.086 0.129 c 0 0.086 -0.086 0.129 -0.25 0.129 c -0.141 0 -0.277 0.039 -0.309 0.086 c -0.031 0.051 0.102 0.086 0.34 0.086 c 0.359 0 0.391 -0.016 0.391 -0.215 m 2.922 0.086 c 0 -0.07 -0.055 -0.129 -0.121 -0.129 c -0.145 0 -0.242 0.121 -0.16 0.203 c 0.102 0.102 0.281 0.055 0.281 -0.074 m 1.203 0 c 0 -0.07 -0.039 -0.129 -0.086 -0.129 c -0.047 0 -0.086 0.059 -0.086 0.129 c 0 0.07 0.039 0.129 0.086 0.129 c 0.047 0 0.086 -0.059 0.086 -0.129 m -8.422 -0.398 c 0 -0.191 -0.242 -0.215 -0.313 -0.031 c -0.027 0.07 -0.023 0.191 0.004 0.266 c 0.043 0.113 0.078 0.121 0.184 0.035 c 0.07 -0.059 0.125 -0.18 0.125 -0.27 m -0.688 0.055 c 0.059 -0.07 0.176 -0.422 0.145 -0.5 c -0.043 -0.113 -0.309 -0.191 -0.414 -0.105 c -0.137 0.117 -0.063 0.586 -0.121 0.477 c -0.238 -0.422 0.332 0.199 0.391 0.129 m 1.961 -0.238 c 0.02 -0.102 -0.023 -0.148 -0.148 -0.148 c -0.098 0 -0.18 0.016 -0.18 0.035 c -0.047 0.184 -0.098 0.32 0.098 0.293 c 0.109 -0.016 0.215 -0.094 0.23 -0.18 m 8.301 -0.063 c 0.043 0.109 0.457 0.191 0.531 0.117 c 0.23 -0.402 -0.523 -0.801 -0.531 -0.117 m -6.02 -0.023 c 0.137 -0.52 -0.035 -1.207 -0.273 -1.063 c -0.266 0.164 -0.25 1.441 0.023 1.441 c 0.09 0 0.219 -0.266 0.25 -0.379 m 3.918 0.063 c 0 -0.137 -0.227 -0.27 -0.313 -0.184 c -0.027 0.027 -0.027 0.109 0 0.184 c 0.066 0.172 0.313 0.172 0.313 0 m 0.859 0.004 c 0 -0.086 -0.086 -0.129 -0.258 -0.129 c -0.246 0 -0.32 0.078 -0.199 0.199 c 0.113 0.113 0.457 0.059 0.457 -0.07 m -1.469 -0.086 c 0 -0.07 -0.18 -0.434 -0.227 -0.434 c -0.051 0 -0.16 0.109 -0.16 0.18 c 0 0.07 0.09 0.383 0.137 0.383 c 0.047 0 0.25 -0.059 0.25 -0.129 m -4.391 -0.059 c 0.254 -0.258 -0.012 -0.641 -0.285 -0.414 c -0.184 0.156 -0.164 0.516 0.027 0.516 c 0.086 0 0.203 -0.047 0.258 -0.102 m 2.078 -0.152 c 0 -0.199 -0.152 -0.313 -0.266 -0.199 c -0.109 0.105 -0.004 0.367 0.148 0.367 c 0.066 0 0.117 -0.074 0.117 -0.168 m 3.156 -0.32 c 0.039 -0.109 -0.215 -0.223 -0.332 -0.148 c -0.047 0.031 -0.039 0.098 0.023 0.176 c 0.109 0.133 0.262 0.121 0.309 -0.027 m 0.711 0.016 c 0 -0.082 -0.078 -0.129 -0.215 -0.129 c -0.207 0 -0.273 0.082 -0.156 0.199 c 0.109 0.109 0.371 0.059 0.371 -0.07 m -9.809 -0.086 c 0.078 -0.078 -0.105 -0.215 -0.289 -0.215 c -0.223 0 -0.105 0.168 -0.02 0.313 c 0.051 0.078 0.215 -0.004 0.309 -0.098 m 3.059 0.078 c 0.152 -0.059 0.188 -0.293 0.043 -0.293 c -0.148 0 -0.426 0.172 -0.426 0.262 c 0 0.094 0.18 0.105 0.383 0.031 m 9.141 -0.141 c -0.012 -0.105 -0.094 -0.207 -0.176 -0.223 c -0.191 -0.035 -0.305 0.234 -0.141 0.336 c 0.215 0.137 0.348 0.086 0.316 -0.113 m 0.547 -0.863 c 0.191 -1.492 -0.152 -3.094 -0.93 -4.383 c -0.406 -0.672 -1.637 -1.902 -2.285 -2.285 c -1.125 -0.66 -2.203 -0.953 -3.527 -0.957 c -1.449 0 -2.605 0.324 -3.727 1.051 c -0.59 0.383 -1.352 1.09 -1.684 1.57 l -0.18 0.258 l 0.254 -0.234 c 0.141 -0.133 0.285 -0.238 0.316 -0.238 c 0.031 0 0.195 0.27 0.359 0.602 c 0.301 0.594 0.301 0.609 0.301 1.719 c 0 0.953 -0.023 1.176 -0.172 1.461 c -0.18 0.355 -0.223 0.688 -0.09 0.688 c 0.043 0 0.105 -0.039 0.137 -0.09 c 0.063 -0.102 0.504 -0.031 0.746 0.121 c 0.223 0.141 0.305 0.004 0.426 -0.703 c 0.086 -0.496 0.086 -0.656 0.004 -0.773 c -0.473 -0.652 -0.461 -0.613 -0.406 -1.488 c 0.035 -0.57 0.02 -0.898 -0.055 -1.059 c -0.137 -0.297 -0.008 -0.391 0.527 -0.379 c 0.73 0.012 0.898 0.125 0.742 0.504 c -0.035 0.078 0.016 0.172 0.125 0.242 c 0.16 0.098 0.203 0.086 0.395 -0.117 c 0.184 -0.199 0.262 -0.227 0.566 -0.184 c 0.324 0.043 0.383 0.02 0.641 -0.254 c 0.281 -0.301 0.285 -0.305 0.133 -0.555 c -0.113 -0.195 -0.125 -0.289 -0.055 -0.402 c 0.078 -0.125 0.223 -0.148 0.844 -0.137 c 0.895 0.012 1.012 0.082 0.789 0.5 c -0.18 0.328 -0.148 0.426 0.211 0.609 c 0.137 0.07 0.25 0.184 0.25 0.246 c 0 0.227 0.211 0.313 0.504 0.203 c 0.211 -0.082 0.27 -0.156 0.27 -0.336 c 0 -0.211 0.035 -0.234 0.41 -0.281 c 0.223 -0.031 0.523 -0.02 0.664 0.02 c 0.211 0.059 0.254 0.113 0.227 0.281 c -0.016 0.113 -0.023 0.613 -0.016 1.109 c 0.02 0.891 0.016 0.906 -0.254 1.277 l -0.273 0.379 l 0.133 0.73 c 0.074 0.398 0.148 0.742 0.168 0.762 c 0.02 0.02 0.148 -0.02 0.285 -0.094 c 0.137 -0.07 0.391 -0.148 0.57 -0.176 c 0.371 -0.059 0.383 -0.102 0.148 -0.559 c -0.145 -0.289 -0.172 -0.508 -0.172 -1.547 c 0 -1.168 0.008 -1.223 0.258 -1.715 c 0.141 -0.277 0.293 -0.527 0.336 -0.555 c 0.043 -0.027 0.273 0.176 0.512 0.449 c 0.406 0.469 0.449 0.566 0.703 1.566 c 0.227 0.906 0.258 1.133 0.188 1.477 c -0.09 0.469 0.094 1.723 0.375 2.551 c 0.09 0.262 0.207 -0.07 0.309 -0.875 m -10.785 0.602 c 0.023 -0.168 0.059 -0.422 -0.301 -0.297 c -0.34 0.09 -0.453 -0.047 -0.207 0.453 c 0.047 0 0.48 0.055 0.508 -0.156 m 8.969 -0.02 c 0 -0.086 -0.086 -0.129 -0.258 -0.129 c -0.246 0 -0.324 0.078 -0.203 0.199 c 0.113 0.113 0.461 0.059 0.461 -0.07 m -9.852 -0.094 c 0.082 -0.211 0.063 -0.293 -0.066 -0.293 c -0.113 0 -0.223 0.176 -0.223 0.352 c 0 0.133 0.234 0.086 0.289 -0.059 m 3.03 -0.082 c 0.059 -0.242 0.008 -0.344 -0.133 -0.258 c -0.113 0.07 -0.121 0.477 -0.008 0.477 c 0.047 0 0.109 -0.098 0.141 -0.219 m 5.234 0.047 c -0.031 -0.047 -0.152 -0.086 -0.27 -0.086 c -0.121 0 -0.191 0.039 -0.16 0.086 c 0.027 0.047 0.148 0.086 0.266 0.086 c 0.121 0 0.191 -0.039 0.164 -0.086 m -9.793 -0.82 c 0.086 -0.449 0.113 -0.879 0.078 -1.246 c -0.039 -0.426 -0.012 -0.727 0.125 -1.258 c 0.254 -1 0.191 -1.34 -0.113 -0.699 c -0.328 0.691 -0.645 1.762 -0.645 2.785 c 0.004 1.422 0.324 1.598 0.555 0.418 m 0.09 0.66 c 0.035 0.059 0.293 0.152 0.355 0.09 c 0.168 -0.262 -0.09 -0.34 -0.121 -0.371 c -0.109 0.082 -0.32 0.121 -0.234 0.281 m 8.926 -0.27 c 0.074 -0.117 -0.109 -0.43 -0.254 -0.43 c -0.18 0 -0.234 0.145 -0.133 0.344 c 0.102 0.184 0.301 0.227 0.387 0.086 m 0.563 -0.129 c 0 -0.168 -0.172 -0.254 -0.281 -0.141 c -0.066 0.063 -0.059 0.129 0.02 0.223 c 0.121 0.145 0.262 0.102 0.262 -0.082 m -7.473 -0.094 c 0.094 -0.109 0.09 -0.148 -0.012 -0.211 c -0.168 -0.109 -0.574 -0.102 -0.641 0.008 c -0.184 0.297 0.418 0.484 0.652 0.203 m 2.359 -0.148 c 0 -0.129 -0.035 -0.242 -0.078 -0.254 c -0.125 -0.031 -0.258 0.246 -0.195 0.406 c 0.082 0.219 0.273 0.109 0.273 -0.152 m 3.871 0.191 c 0.082 -0.137 -0.098 -0.281 -0.27 -0.219 c -0.117 0.047 -0.121 0.082 -0.035 0.184 c 0.125 0.152 0.223 0.164 0.305 0.035 m 3.176 0 c 0.031 -0.047 0.039 -0.273 0.012 -0.297 c -0.066 -0.07 -0.469 -0.18 -0.402 0.309 c 0.016 0.109 0.324 0.102 0.391 -0.012 m -5.191 -0.18 c 0 -0.09 -0.219 -0.172 -0.27 -0.199 c -0.047 -0.031 -0.086 0.043 -0.086 0.168 c 0 0.121 0.031 1.023 0.078 1.023 c 0.352 0 0.277 -0.898 0.277 -0.992 m -5.684 -0.078 c 0 -0.133 -0.043 -0.168 -0.191 -0.148 c -0.285 0.039 -0.309 0.328 -0.027 0.328 c 0.164 0 0.219 -0.043 0.219 -0.18 m 4.969 -0.031 c -0.02 -0.148 -0.086 -0.176 -0.414 -0.176 c -0.328 0 -0.387 0.027 -0.41 0.184 c -0.023 0.168 0.012 0.184 0.41 0.176 c 0.391 -0.004 0.438 -0.023 0.414 -0.184 m 6.809 0.082 c 0 -0.07 -0.109 -0.762 -0.32 -0.715 c -0.047 0.012 -0.227 1.461 -0.086 1.16 c 0.027 -0.066 0.316 0.012 0.367 0.012 c 0.047 0 0.039 -0.387 0.039 -0.457 m -8.68 -0.207 c 0 -0.16 -0.199 -0.297 -0.293 -0.203 c -0.125 0.125 -0.043 0.367 0.121 0.367 c 0.109 0 0.172 -0.059 0.172 -0.164 m 5.414 -0.168 c 0 -0.09 -0.063 -0.211 -0.133 -0.273 c -0.176 -0.145 -0.336 0.008 -0.258 0.254 c 0.074 0.227 0.391 0.242 0.391 0.02 m -0.602 -0.086 c 0 -0.195 -0.215 -0.395 -0.34 -0.316 c -0.102 0.063 -0.121 0.332 -0.035 0.418 c 0.125 0.125 0.375 0.055 0.375 -0.102 m -4.383 -0.227 c 0 -0.172 -0.043 -0.215 -0.215 -0.215 c -0.23 0 -0.285 0.156 -0.113 0.328 c 0.172 0.168 0.328 0.117 0.328 -0.113 m 1.383 0.133 c 0.293 0.004 0.414 -0.035 0.453 -0.137 c 0.09 -0.234 -0.027 -0.305 -0.492 -0.305 c -0.242 0 -0.574 0 -0.734 -0.004 c -0.375 0 -0.484 0.109 -0.352 0.355 c 0.082 0.16 0.148 0.18 0.414 0.137 c 0.172 -0.027 0.492 -0.051 0.711 -0.047 m -4.77 -0.207 c 0.008 -0.102 -0.48 -0.363 -0.469 0.121 c 0 0.059 0.012 0.09 0.066 0.07 c 0.059 -0.02 0.383 0.078 0.402 -0.191 m 8.543 -0.301 c 0 -0.219 -0.238 -0.414 -0.355 -0.293 c -0.066 0.063 -0.063 0.145 0.004 0.273 c 0.121 0.223 0.352 0.234 0.352 0.02 m -8.145 -0.066 c 0.121 -0.074 0.066 -0.281 -0.121 -0.453 l -0.77 -0.199 l 0.836 -0.074 c 0.355 -0.113 0.184 -0.129 -0.086 -0.234 l -0.332 -0.133 l 0.051 -0.426 c 0.027 -0.234 -0.027 -0.422 0.043 -0.535 c 0.332 -0.395 0.02 -0.387 -0.207 -0.203 c -0.125 0.207 -0.09 1 -0.047 1.18 c 0.027 0.102 0.078 0.535 0.031 0.566 c -0.113 0.07 -0.211 0.25 -0.039 0.387 c 0.125 0.102 0.449 0.242 0.641 0.125 m 7.543 -0.027 c 0 -0.199 -0.133 -0.297 -0.309 -0.227 c -0.102 0.039 -0.109 0.086 -0.039 0.223 c 0.121 0.219 0.348 0.223 0.348 0.004 m -0.863 -1.441 c -0.129 0.043 -0.285 0.813 0.145 0.82 c 0.516 0.258 0.098 -0.938 -0.145 -0.82 m 4.465 1 c -0.082 -0.152 -0.105 -0.156 -0.34 -0.035 c -0.305 0.156 -0.332 0.363 -0.063 0.469 c 0.266 0.105 0.535 -0.188 0.402 -0.434 m -8.328 -0.086 c 0 -0.199 -0.195 -0.215 -0.352 -0.027 c -0.094 0.109 -0.09 0.145 0.004 0.207 c 0.168 0.102 0.348 0.008 0.348 -0.18 m 4.883 -0.18 c -0.043 -0.273 -0.242 -0.305 -0.242 -0.035 c 0 0.145 0.047 0.223 0.133 0.223 c 0.09 0 0.125 -0.063 0.109 -0.188 m 3.453 -0.094 c 0 -0.152 -0.441 -1.457 -0.48 -1.418 c -0.02 0.02 0.008 0.281 0.063 0.582 c 0.07 0.395 0.07 0.586 0 0.695 c -0.07 0.113 -0.066 0.164 0.012 0.195 c 0.199 0.078 0.406 0.055 0.406 -0.055 m -8.547 -0.156 c 0.031 -0.051 0.012 -0.137 -0.043 -0.191 c -0.074 -0.078 -0.117 -0.07 -0.176 0.023 c -0.082 0.133 -0.039 0.262 0.082 0.262 c 0.043 0 0.102 -0.043 0.137 -0.094 m 5.281 -0.289 c 0 -0.168 -0.238 -0.453 -0.348 -0.344 c -0.051 0.047 0.008 0.324 0.039 0.375 c 0.086 0.137 0.305 0.113 0.305 -0.031 m -4.316 0.617 c 0.172 -0.305 0.434 -0.996 -0.02 -1.066 c -0.219 0.313 -0.363 0.945 0.02 1.066 m -3.504 -0.945 c 0 -0.156 -0.129 -0.277 -0.195 -0.176 c -0.109 0.168 -0.191 0.664 0.039 0.688 c 0.223 0 0.156 -0.402 0.156 -0.512 m 2.844 -0.027 c 0.094 -0.109 0.09 -0.148 -0.008 -0.207 c -0.121 -0.078 -0.43 0.039 -0.43 0.16 c 0 0.211 0.277 0.242 0.438 0.047 m 2.926 -0.047 c 0 -0.07 -0.238 -0.16 -0.305 -0.16 c -0.145 0 -0.242 0.273 -0.16 0.355 c 0.102 0.102 0.465 -0.066 0.465 -0.195 m 0.141 -0.441 c -0.055 -0.164 -0.406 -0.188 -0.406 -0.027 c 0 0.09 0.074 0.137 0.219 0.137 c 0.141 0 0.211 -0.039 0.188 -0.109 m 1.055 0.023 c 0 -0.047 -0.039 -0.27 -0.109 -0.27 c -0.07 0 -0.477 -0.012 -0.508 0.289 c -0.004 0.047 0.414 0.066 0.488 0.066 c 0.07 0 0.129 -0.039 0.129 -0.086 m -4.34 -0.086 c 0.027 -0.047 0.105 -0.598 0.031 -0.598 c -0.07 0 -0.246 0.551 -0.246 0.598 c 0 0.047 0.066 0.168 0.109 0.168 c 0.043 0 0.074 -0.121 0.105 -0.168 m 0.555 -0.082 c 0.07 -0.047 0.102 -0.105 0.066 -0.141 c -0.078 -0.078 -0.32 0.023 -0.32 0.133 c 0 0.109 0.086 0.113 0.254 0.008 m 4.473 -0.004 c 0.051 -0.375 0.184 -0.508 -0.191 -0.465 c -0.051 0.004 -0.297 -0.063 0.063 0.465 c 0.031 0.047 0.07 0.086 0.09 0.086 c 0.02 0 0.031 -0.039 0.039 -0.086" fill="#fcc530"/><g fill="#b73805"><path d="m 9.164 19.2 c -0.375 -0.285 -0.141 -0.594 -0.141 -1.074 l 1.105 0.059 c 1.184 0.063 3.063 -0.211 3.402 -0.523 c 0.117 -0.109 0.066 -0.488 -0.172 -1.277 c -0.086 -0.289 -0.094 -0.781 -0.02 -1.066 c 0.148 -0.551 1.434 -0.598 1.781 -0.066 c 0.07 0.109 0.184 0.383 0.25 0.613 c 0.066 0.227 0.129 0.562 0.176 0.578 c 0.375 0.125 2.035 -2.426 2.035 -3.109 c 0 -0.141 0.035 -0.277 0.078 -0.305 c 0.145 -0.09 0.289 -1.531 0.238 -2.367 c -0.172 -2.805 -2.246 -5.297 -5.102 -6.121 c -1.41 -0.309 -1.992 -0.211 -3.484 0.008 c -0.059 -0.363 -0.035 -0.859 -0.035 -1.227 c 1.277 -0.199 3 -0.16 4.133 0.156 c 1.125 0.34 1.934 0.777 2.852 1.555 c 1.543 1.305 2.426 2.711 2.836 4.531 c 0.586 2.57 -0.145 5.219 -1.98 7.18 c -1.074 1.148 -2.383 1.957 -3.832 2.367 c -1.238 0.23 -2.969 0.488 -4.121 0.09 m -1.871 -3.652 c -0.184 -0.184 0.059 -1.055 0.336 -1.203 c 0.289 -0.152 0.441 0.063 0.387 0.543 c -0.027 0.223 0 0.508 -0.051 0.602 c -0.102 0.191 -0.516 0.215 -0.672 0.059 m 0.574 -0.5 c 0.051 -0.09 0.09 -0.207 0.09 -0.258 c 0 -0.141 -0.234 -0.105 -0.293 0.047 c -0.133 0.352 0.035 0.527 0.203 0.211 m 3.996 -0.301 c -0.02 -0.059 -0.035 -0.293 -0.09 -0.641 c -0.086 -0.543 -0.035 -0.816 0.086 -1 c 0.176 -0.266 0.477 -0.273 0.715 -0.02 c 0.152 0.164 0.453 1.234 0.453 1.609 c 0 0.133 -1.121 0.188 -1.164 0.051 m 0.621 -0.66 c -0.063 -0.523 -0.191 -0.762 -0.406 -0.762 c -0.195 0 -0.219 0.203 -0.074 0.73 c 0.121 0.43 0.227 0.563 0.395 0.496 c 0.105 -0.039 0.125 -0.141 0.086 -0.465 m 2.652 0.59 c -0.02 -0.059 -0.16 -0.375 -0.152 -0.566 l 0.047 -0.742 l 0.16 0.723 c 0.043 0.203 0.105 0.402 0.227 0.422 c 0.219 0.031 0.242 -0.164 0.094 -0.703 c -0.078 -0.285 -0.117 -0.324 -0.301 -0.293 c -0.152 0.031 -0.207 0.004 -0.207 -0.102 c 0 -0.352 0.391 -0.457 0.652 -0.168 c 0.164 0.18 0.461 1.25 0.398 1.438 c -0.047 0.141 -0.875 0.133 -0.918 -0.008 m -8.512 -0.578 c -0.09 -0.145 0.055 -0.855 0.211 -1.051 c 0.094 -0.113 0.207 -0.172 0.289 -0.129 c 0.469 0.242 0.336 0.465 0.023 0.406 c -0.121 -0.023 -0.223 0.176 -0.223 0.402 c 0 0.109 0.023 0.113 0.129 0.027 c 0.109 -0.09 0.371 -0.699 0.352 -0.449 c -0.012 0.168 0.027 0.789 -0.113 0.844 c -0.273 0.102 -0.602 0.055 -0.668 -0.051 m 2.574 -0.117 c -0.066 -0.254 0.094 -1.422 0.23 -1.727 c 0.234 -0.516 0.785 -0.313 0.934 0.344 c 0.098 0.43 0.129 1.359 0.051 1.484 c -0.035 0.059 -0.285 0.102 -0.613 0.102 c -0.508 0 -0.555 -0.016 -0.602 -0.203 m 0.887 -0.707 c 0.02 -0.469 -0.004 -0.637 -0.105 -0.719 c -0.25 -0.207 -0.391 0.035 -0.391 0.68 c 0 0.629 0.035 0.711 0.297 0.672 c 0.156 -0.02 0.18 -0.094 0.199 -0.633 m 2.598 -3.117 c -0.184 -0.055 -0.285 0.043 -0.309 -0.281 c -0.066 -1.055 0.156 -1.027 0.117 -0.516 c -0.027 0.328 0.348 0.563 0.277 -0.004 c -0.023 -0.188 -0.043 -0.266 -0.18 -0.242 c -0.453 0.07 -0.184 -0.293 0.066 -0.328 c 0.27 -0.039 0.438 0.277 0.469 0.883 c 0.035 0.559 -0.012 0.609 -0.441 0.488 m -3.637 -0.156 c -0.031 -0.031 -0.059 -0.281 -0.059 -0.555 c 0 -0.406 0.039 -0.539 0.215 -0.734 l 0.215 -0.242 l 0.172 0.203 c 0.129 0.152 0.172 0.328 0.172 0.711 c 0 0.465 -0.008 0.688 -0.211 0.766 c -0.258 0.098 -0.426 -0.066 -0.504 -0.148 m 0.543 -0.828 c 0 -0.16 -0.039 -0.234 -0.109 -0.211 c -0.125 0.043 -0.238 0.473 -0.16 0.676 c 0.047 0.121 0.16 0.125 0.227 0.016 c 0.047 -0.07 0.039 -0.348 0.043 -0.48 m -3.941 0.309 c -0.188 -0.035 -0.199 -0.07 -0.148 -0.387 c 0.074 -0.461 0.195 -0.668 0.387 -0.668 c 0.188 0 0.266 0.16 0.266 0.559 c 0 0.156 -0.023 0.348 -0.051 0.422 c -0.055 0.137 -0.09 0.145 -0.453 0.074 m 0.332 -0.508 c 0 -0.117 -0.051 -0.203 -0.121 -0.203 c -0.152 0 -0.242 0.23 -0.176 0.445 c 0.074 0.227 0.297 0.043 0.297 -0.242 m 9.832 0.457 c -0.023 -0.066 -0.035 -0.313 -0.02 -0.543 c 0.023 -0.355 0.055 -0.422 0.215 -0.445 c 0.234 -0.035 0.355 0.18 0.391 0.684 c 0.023 0.367 0.016 0.375 -0.258 0.402 c -0.184 0.016 -0.297 -0.016 -0.328 -0.098 m 0.395 -0.359 c 0 -0.133 -0.051 -0.215 -0.129 -0.215 c -0.141 0 -0.16 0.078 -0.078 0.293 c 0.082 0.211 0.207 0.16 0.207 -0.078 m -9.926 -0.906 c -0.141 -0.035 -0.422 -0.066 -0.625 -0.074 c -0.199 -0.004 -0.363 -0.043 -0.363 -0.082 c 0 -0.105 0.734 -1.082 0.824 -1.082 c 0.105 0 0.566 1.223 0.484 1.266 c -0.035 0.016 -0.18 0.004 -0.32 -0.027 m 9.02 0 c -0.059 -0.094 0.512 -1.215 0.617 -1.215 c 0.16 0 0.969 0.855 0.785 1.105 c -0.07 0.098 -1.355 0.184 -1.402 0.109 m -4.359 -0.223 c -0.117 -0.117 -0.066 -0.789 0.074 -0.93 c 0.168 -0.168 0.246 -0.168 0.418 0.008 c 0.102 0.098 0.133 0.258 0.117 0.535 c -0.027 0.375 -0.066 0.586 -0.313 0.609 c -0.145 0.016 -0.266 -0.187 -0.297 -0.223 m 0.391 -0.613 c -0.023 -0.059 -0.074 -0.082 -0.117 -0.059 c -0.094 0.059 -0.102 0.328 -0.016 0.414 c 0.078 0.078 0.184 -0.211 0.133 -0.355"/><path d="m 3.586 14.18 c -0.863 -2.258 -0.633 -4.996 0.59 -7 c 0.574 -0.949 1.547 -1.996 2.434 -2.621 c 0.652 -0.461 1.93 -1.137 2.441 -1.199 l 0.34 -0.043 c 0 0.473 0.043 0.801 0.043 1.27 c -0.637 0.129 -1.613 0.555 -2.273 1.051 c -1.934 1.484 -2.902 3.5 -2.902 5.785 c 0 0.793 0.063 1.234 0.277 1.977 c 0.609 2.098 2.406 4.102 4.406 4.715 c 0.684 0.242 0.375 0.418 0.289 1.051 c -3.16 -0.789 -4.824 -2.957 -5.645 -4.977"/></g></svg>