<svg xmlns="http://www.w3.org/2000/svg" viewBox="0 0 22 22"><path d="m 20.19 4.535 c -4.207 -7.609 -17.391 -4.656 -19.621 1.609 c -2.656 7.461 4.262 21.629 15.977 13.328 c 3.945 -2.898 7.852 -7.332 3.645 -14.938" fill="#8e44ac"/><path d="m 8.875 4.313 c -0.277 0 -0.5 0.223 -0.5 0.496 c 0 0.105 0.043 0.203 0.102 0.285 l -1.25 1.418 c -0.051 -0.016 -0.098 -0.031 -0.152 -0.031 c -0.336 0 -0.617 0.273 -0.617 0.605 c 0 0.012 0.016 0.02 0.02 0.031 l -1.102 0.715 c -0.082 -0.055 -0.176 -0.094 -0.285 -0.094 c -0.273 0 -0.496 0.219 -0.496 0.492 c 0 0.168 0.086 0.309 0.215 0.398 l -0.199 3.695 c -0.125 0.066 -0.199 0.203 -0.199 0.348 c 0 0.215 0.18 0.383 0.398 0.383 c 0.012 0 0.023 0.004 0.031 0 l 2.734 2.758 c 0 0.004 0 0.008 0 0.016 c 0 0.215 0.168 0.398 0.383 0.398 c 0.078 0 0.156 -0.027 0.219 -0.066 l 1.5 0.781 c -0.004 0.023 -0.02 0.043 -0.02 0.066 c 0 0.27 0.227 0.492 0.5 0.492 c 0.262 0 0.461 -0.195 0.484 -0.445 l 4 -1.164 c 0.09 0.125 0.25 0.207 0.418 0.207 c 0.277 0 0.5 -0.219 0.5 -0.492 c 0 -0.117 -0.051 -0.219 -0.117 -0.305 l 1.73 -3.773 c 0.277 0 0.5 -0.223 0.5 -0.496 c 0 -0.238 -0.168 -0.43 -0.398 -0.477 l -0.551 -1.801 c 0.086 -0.07 0.152 -0.168 0.152 -0.285 c 0 -0.215 -0.184 -0.383 -0.402 -0.383 c -0.016 0 -0.031 0.012 -0.047 0.016 l -2.52 -3.03 c 0.004 -0.02 0.02 -0.043 0.02 -0.063 c 0 -0.215 -0.184 -0.383 -0.402 -0.383 c -0.129 0 -0.227 0.063 -0.301 0.16 l -3.883 -0.145 c -0.066 -0.195 -0.246 -0.336 -0.465 -0.336 m 0.469 0.672 l 3.813 0.145 c 0.027 0.086 0.078 0.156 0.152 0.207 l -0.102 0.43 c -0.176 0.043 -0.32 0.16 -0.398 0.32 l -4.266 0.508 l 0.281 -1.305 c 0.02 0 0.031 0.016 0.051 0.016 c 0.215 0 0.395 -0.133 0.469 -0.32 m 4.348 0.383 l 2.449 2.949 c -0.023 0.051 -0.051 0.098 -0.051 0.16 c 0 0.105 0.047 0.199 0.117 0.27 l -0.199 0.559 l -2.133 -2.676 c 0.047 -0.086 0.082 -0.184 0.082 -0.289 c 0 -0.258 -0.164 -0.473 -0.398 -0.559 l 0.082 -0.398 c 0.02 -0.004 0.035 -0.008 0.051 -0.016 m -5.066 0.082 l -0.266 1.16 l -0.816 0.098 c -0.008 -0.008 -0.012 -0.012 -0.02 -0.016 m 5.301 0.078 l -1.234 4.75 c -0.035 0.008 -0.078 0.016 -0.113 0.031 l -3.168 -3.555 l 1.484 -0.16 c 0.066 0.121 0.199 0.207 0.348 0.207 c 0.219 0 0.383 -0.184 0.383 -0.395 c 0 -0.031 -0.008 -0.055 -0.016 -0.082 l 2.133 -0.781 m -0.73 0.082 l -1.484 0.539 c -0.074 -0.082 -0.164 -0.141 -0.285 -0.141 c -0.215 0 -0.398 0.168 -0.398 0.383 c 0 0.004 0 0.008 0 0.016 l -1.469 0.172 l 0.117 -0.57 m 5.102 -0.32 l 2.316 2.93 l -0.484 1.34 l -2.898 0.668 c -0.043 -0.078 -0.102 -0.133 -0.168 -0.191 m -4.066 -4.395 l -0.098 0.461 l -0.367 -0.414 m -1.117 0.109 c 0.031 0.039 0.063 0.07 0.098 0.098 l -0.082 0.461 l -1.051 0.129 c 0 -0.004 0.004 -0.012 0 -0.016 l 1.035 -0.668 m 0.434 0.223 c 0.012 0 0.023 0 0.031 0 c 0.012 0 0.023 0 0.035 0 l 0.234 0.254 l -0.352 0.047 m 0.5 0.113 l 0.434 0.477 l -0.199 0.875 c -0.207 0.012 -0.367 0.176 -0.367 0.383 c 0 0.121 0.063 0.219 0.148 0.289 l -1.316 1.973 l 0.77 -3.934 l 0.535 -0.063 m -0.902 0.094 l -0.836 4.285 c -0.145 0.031 -0.262 0.129 -0.332 0.254 l -0.234 -0.047 c 0 -0.16 -0.09 -0.309 -0.23 -0.367 l 0.199 -3.598 c 0.219 -0.031 0.387 -0.195 0.414 -0.414 m 2.484 0.445 l 2.969 3.297 c -0.008 0.02 -0.016 0.043 -0.02 0.063 l -4.801 0.512 c -0.031 -0.031 -0.063 -0.059 -0.102 -0.082 l 1.535 -2.34 c 0.031 0.008 0.063 0.016 0.098 0.016 c 0.219 0 0.402 -0.168 0.402 -0.383 c 0 -0.152 -0.105 -0.285 -0.234 -0.352 m 8.453 -0.637 c 0.012 0.004 0.023 0 0.031 0 l 0.453 1.531 l -0.703 -0.91 m -0.215 0.574 l 0.699 0.875 l -1.102 0.258 m 1.152 0.238 l -1.586 3.426 l 0.035 -2.137 c 0.168 -0.031 0.301 -0.176 0.301 -0.348 c 0 -0.145 -0.098 -0.262 -0.219 -0.32 l 0.117 -0.305 m -0.184 0.051 l -0.082 0.207 c -0.203 0 -0.367 0.164 -0.367 0.363 c 0 0.168 0.113 0.309 0.266 0.352 l -0.047 2.438 c -0.125 0.039 -0.223 0.133 -0.285 0.238 l -2.184 -0.477 c 0 -0.215 -0.184 -0.383 -0.398 -0.383 c -0.211 0 -0.391 0.16 -0.398 0.367 l -0.539 0.125 l 0.668 -2 c 0.363 -0.008 0.668 -0.277 0.734 -0.621 m -1.414 0.223 c 0.043 0.082 0.109 0.16 0.184 0.223 l -0.77 2.324 l -1.602 0.398 l -2.582 -2.406 c 0.004 -0.008 0.012 -0.02 0.016 -0.031 l 4.75 -0.508 m -5.781 0.414 l 0.066 0.016 c 0.004 0.02 -0.004 0.043 0 0.063 m 0.336 0.32 c 0.047 0.012 0.098 0.031 0.148 0.031 c 0.012 0 0.023 0 0.035 0 l 2.184 2.023 c -0.035 -0.012 -0.082 -0.016 -0.117 -0.016 c -0.078 0 -0.141 0.023 -0.203 0.063 m 3.918 -0.477 c 0.055 0.145 0.199 0.238 0.367 0.238 c 0.16 0 0.309 -0.086 0.367 -0.223 l 1.898 0.414 l -3.699 1.066 l 0.449 -1.355 m -0.598 0.16 l -0.402 1.195 c -0.02 0.004 -0.047 0.008 -0.066 0.016 l -0.949 -0.875 m -0.582 0.145 l 0.25 0.238 l -0.352 -0.191 c 0 -0.012 0 -0.023 0 -0.031 l 0.098 -0.016" fill="#eceff1" fill-opacity="0.988"/></svg>