<svg xmlns="http://www.w3.org/2000/svg" viewBox="0 0 22 22" xmlns:xlink="http://www.w3.org/1999/xlink"><defs><clipPath id="A"><path d="m 6 4 h 14 v 14 h -14"/></clipPath><clipPath id="B"><path d="m 6 4 h 9 v 4 h -9"/></clipPath><clipPath id="8"><path d="m 6 6 h 12 v 12 h -12"/></clipPath><clipPath id="D"><path d="m 6 3 h 10 v 6 h -10"/></clipPath><clipPath id="F"><path d="m 14 7 h 5 v 3 h -5"/></clipPath><clipPath id="G"><path d="m 13 7 h 7 v 4 h -7"/></clipPath><clipPath id="E"><path d="m 12 7 h 2 v 3 h -2"/></clipPath><clipPath id="H"><path d="m 12 7 h 2 v 2 h -2"/></clipPath><clipPath id="0"><path d="m 15 8 h 2 v 2 h -2"/></clipPath><clipPath id="1"><path d="m 8.957 3.668 h 7.164 c 1.629 0 2.949 1.375 2.949 3.078 v 7.465 c 0 1.699 -1.32 3.078 -2.949 3.078 h -7.164 c -1.629 0 -2.949 -1.379 -2.949 -3.078 v -7.465 c 0 -1.703 1.32 -3.078 2.949 -3.078"/></clipPath><clipPath id="2"><path d="m 14 8 h 3 v 3 h -3"/></clipPath><clipPath id="3"><path d="m 15 7 h 3 v 2 h -3"/></clipPath><clipPath id="4"><path d="m 15 7 h 3 v 3 h -3"/></clipPath><clipPath id="7"><path d="m 6 6 h 11 v 12 h -11"/></clipPath><clipPath id="5"><path d="m 6 7 h 10 v 11 h -10"/></clipPath><linearGradient id="9" gradientUnits="userSpaceOnUse" x1="90.09" y1="96.64" x2="125.91" y2="132.98" gradientTransform="matrix(0.11098 -0.00864 0.00829 0.1157 -3.01 0.523)"><stop stop-color="#ffec00"/><stop offset="1" stop-color="#ff0500"/></linearGradient><linearGradient id="6" gradientUnits="userSpaceOnUse" x1="127.53" y1="119" x2="153.46" y2="126.51" gradientTransform="matrix(0.11098 -0.00864 0.00829 0.1157 -3.01 0.523)"><stop stop-color="#000"/><stop offset="0.606" stop-color="#141414" stop-opacity="0.498"/><stop offset="1" stop-color="#fff"/></linearGradient><linearGradient id="C" gradientUnits="userSpaceOnUse" x1="432.39" y1="504.39" x2="445.6" y2="513.7" gradientTransform="matrix(0.26397 -0.02055 0.01971 0.2752 -113.36 -124.91)" xlink:href="#9"/></defs><path d="m 5.301 19.813 c 8.309 6.914 17.988 -4.75 16.441 -15.223 c -1.102 -7.805 -23.04 -4.664 -21.57 6.668 c 0.438 3.371 2.414 6.301 5.129 8.555" fill="#ff8c00"/><g clip-path="url(#0)"><g clip-path="url(#1)"><path d="m 15.207 9.43 c 0.426 -0.066 0.871 -0.52 0.871 -0.52 c -0.301 0.023 -0.594 0.234 -0.871 0.52"/></g></g><g clip-path="url(#2)"><g clip-path="url(#1)"><path d="m 157.5 88.74 c 3.858 -0.286 8.139 -3.882 8.139 -3.882 c -2.71 0 -5.471 1.617 -8.139 3.882" transform="matrix(0.11098 -0.00864 0.00829 0.1157 -3.01 0.523)" fill="none" stroke="#000"/></g></g><g clip-path="url(#3)"><g clip-path="url(#1)"><path d="m 15.965 7.914 l 1.23 0.531 l 0.113 -0.324 c -0.543 -0.211 -0.984 -0.254 -1.344 -0.207"/></g></g><g clip-path="url(#4)"><g clip-path="url(#1)"><path d="m 165.26 76.22 l 10.685 5.389 l 1.223 -2.711 c -4.73 -2.176 -8.658 -2.841 -11.908 -2.679" transform="matrix(0.11098 -0.00864 0.00829 0.1157 -3.01 0.523)" fill="none" stroke="#000"/></g></g><g clip-path="url(#5)"><g clip-path="url(#1)"><path d="m 6.934 17.04 c 0.176 0.152 0.352 0.301 0.535 0.438 c 0.207 0.152 0.422 0.289 0.641 0.422 c 0.219 0.133 0.449 0.254 0.68 0.363 c 0.234 0.105 0.473 0.207 0.719 0.293 c 0.242 0.086 0.492 0.16 0.742 0.219 c 0.254 0.063 0.512 0.109 0.77 0.145 c 0.262 0.035 0.523 0.055 0.789 0.063 c 0.234 0.008 0.473 -0.004 0.707 -0.02 c 0.227 -0.461 1.465 -3.18 0.766 -5.785 c 0 0 0.828 -2.617 1.926 -3.742 c -0.246 0.039 -0.484 -0.047 -0.629 -0.43 c 0 0 0.332 -0.949 1.383 -1.086 l -0.852 -0.371 c -0.883 -0.098 -4.195 1.492 -4.195 1.492 c -2.109 0.02 -3.578 6.137 -3.98 8" fill="url(#6)"/></g></g><g clip-path="url(#7)"><g clip-path="url(#1)"><path d="m 78.48 148.57 c 1.477 1.427 2.957 2.82 4.515 4.118 c 1.757 1.448 3.595 2.767 5.47 4.055 c 1.875 1.288 3.862 2.483 5.857 3.577 c 2.032 1.063 4.102 2.096 6.252 2.999 c 2.115 0.901 4.308 1.706 6.51 2.377 c 2.235 0.707 4.515 1.282 6.803 1.757 c 2.323 0.477 4.655 0.82 7.03 1.065 c 2.095 0.224 4.238 0.283 6.348 0.305 c 2.326 -3.81 15.167 -26.348 10.574 -49.21 c 0 0 9.1 -21.94 19.658 -30.875 c -2.23 0.171 -4.31 -0.727 -5.36 -4.114 c 0 0 3.584 -7.936 13.09 -8.408 l -7.392 -3.759 c -7.848 -1.43 -38.551 10.02 -38.551 10.02 c -18.914 -1.244 -36 50.35 -40.805 66.13" transform="matrix(0.11098 -0.00864 0.00829 0.1157 -3.01 0.523)" fill="none" stroke="#000"/></g></g><g clip-path="url(#8)"><g clip-path="url(#1)"><path d="m 4.496 13.211 c 0.055 0.188 0.109 0.375 0.18 0.555 c 0.094 0.25 0.199 0.496 0.316 0.734 c 0.117 0.238 0.246 0.473 0.383 0.695 c 0.141 0.223 0.289 0.438 0.445 0.645 c 0.156 0.207 0.324 0.406 0.5 0.598 c 0.176 0.191 0.359 0.375 0.551 0.547 c 0.191 0.172 0.391 0.336 0.598 0.488 c 0.207 0.152 0.418 0.289 0.641 0.422 c 0.184 0.109 0.375 0.207 0.57 0.301 c 0.434 -2.098 1.59 -2.547 1.59 -2.547 c 2.551 -1.109 1.176 -3.664 1.176 -3.664 c -0.98 -2.582 0.848 -2.645 0.848 -2.645 c 1.484 0.715 2.188 -0.586 2.188 -0.586 c 0.941 -1.32 2.762 -0.441 2.762 -0.441 c -1.77 -1.203 -3.457 -0.914 -3.457 -0.914 c -3.195 -1.746 -5.41 0.531 -5.719 1.941 c -0.246 1.113 -1.551 2.656 -1.551 2.656 c -0.777 0.957 -1.383 0.816 -2.02 1.211" fill="url(#9)"/></g></g><g clip-path="url(#A)"><g clip-path="url(#1)"><path d="m 59.1 114.08 c 0.37 1.648 0.739 3.296 1.254 4.888 c 0.68 2.211 1.467 4.397 2.364 6.524 c 0.897 2.126 1.902 4.227 2.984 6.232 c 1.117 2.01 2.309 3.954 3.577 5.838 c 1.267 1.884 2.644 3.709 4.097 5.471 c 1.452 1.763 2.98 3.464 4.584 5.069 c 1.605 1.605 3.285 3.149 5.04 4.597 c 1.757 1.448 3.56 2.764 5.47 4.055 c 1.575 1.063 3.227 2.03 4.917 2.967 c 5.232 -17.739 15.881 -20.826 15.881 -20.826 c 23.569 -7.828 12.888 -30.705 12.888 -30.705 c -7.128 -22.848 9.293 -22.16 9.293 -22.16 c 12.842 7.137 19.978 -3.572 19.978 -3.572 c 9.283 -10.718 25.03 -1.946 25.03 -1.946 c -15.08 -11.525 -30.391 -10.17 -30.391 -10.17 c -27.511 -17.15 -48.82 0.946 -52.49 12.859 c -2.92 9.404 -15.601 21.792 -15.601 21.792 c -7.58 7.705 -12.915 6.091 -18.874 9.06" transform="matrix(0.11098 -0.00864 0.00829 0.1157 -3.01 0.523)" fill="none" stroke="#000" stroke-width="4"/></g></g><g clip-path="url(#B)"><g clip-path="url(#1)"><path d="m 14.469 7.527 c -0.375 -0.102 -3.125 -2.977 -7.578 -1.188 c 0 0 2.691 -1.094 3.617 -1.164 c 0 0 -0.215 -0.941 -3.23 0.277 c 0 0 3.496 -3.773 7.113 1.98" fill="url(#C)"/></g></g><g clip-path="url(#D)"><g clip-path="url(#1)"><path d="m 445.85 514.53 c -1.385 -0.473 -10.97 -11.635 -28.23 -6.423 c 0 0 10.435 -3.195 13.941 -3.189 c 0 0 -0.555 -3.462 -12.245 0.093 c 0 0 14.189 -12.652 26.26 9.158" transform="matrix(0.26397 -0.02055 0.01971 0.2752 -113.36 -124.91)" fill="none" stroke="#000" stroke-width="0.622"/></g></g><g clip-path="url(#E)"><g clip-path="url(#1)"><path d="m 13.883 8.223 c 0.031 0.41 -0.266 0.77 -0.66 0.801 c -0.395 0.031 -0.738 -0.277 -0.766 -0.688 c -0.031 -0.41 0.266 -0.77 0.66 -0.801 c 0.395 -0.031 0.738 0.277 0.766 0.688"/></g></g><g clip-path="url(#F)"><g clip-path="url(#1)"><path d="m 18.609 8.52 c 0 0 -2.297 -1.516 -3.91 -0.027 c 0 0 -0.715 1.078 0.18 1.34 c 0 0 1.906 -1.172 3.73 -1.313" fill="#fa0"/></g></g><g clip-path="url(#G)"><g clip-path="url(#1)"><path d="m 461.18 519.28 c 0 0 -8.244 -6.123 -14.723 -1.199 c 0 0 -2.984 3.695 0.315 4.892 c 0 0 7.498 -3.698 14.408 -3.693" transform="matrix(0.26397 -0.02055 0.01971 0.2752 -113.36 -124.91)" fill="none" stroke="#000" stroke-width="0.42"/></g></g><g clip-path="url(#H)"><g clip-path="url(#1)"><path d="m 13.488 8.227 c 0.02 0.262 -0.172 0.492 -0.426 0.512 c -0.254 0.023 -0.473 -0.176 -0.492 -0.441 c -0.02 -0.266 0.172 -0.496 0.426 -0.516 c 0.254 -0.02 0.473 0.18 0.492 0.445" fill="#fff"/><path d="m 13.449 8.227 c 0.012 0.176 -0.113 0.324 -0.281 0.34 c -0.164 0.012 -0.313 -0.117 -0.324 -0.293 c -0.012 -0.172 0.113 -0.324 0.281 -0.336 c 0.164 -0.016 0.309 0.117 0.324 0.289"/></g></g><path d="m 13.246 8.184 c 0 0.09 -0.07 0.16 -0.156 0.16 c -0.086 0 -0.156 -0.07 -0.156 -0.16 c 0 -0.09 0.07 -0.164 0.156 -0.164 c 0.086 0 0.156 0.074 0.156 0.164" fill="#fff"/></svg>