<svg xmlns="http://www.w3.org/2000/svg" viewBox="0 0 22 22"><path d="m 2.031 5.891 c 17.25 -19.945 31.535 18.734 6.195 15.879 c -5.555 -0.629 -10.844 -10.504 -6.195 -15.879" fill="#080501"/><path d="m 95.35 189.93 c -3.932 -1.708 -15.09 -9.126 -24.871 -16.446 c -9.732 -7.369 -19.661 -13.371 -22.07 -13.371 c -7.422 0 -13.271 -4.587 -18.19 -14.201 c -10.863 -21.326 -1.671 -45.09 22.414 -57.683 c 10.371 -5.417 13.419 -8.394 15.631 -15.372 c 1.475 -4.734 6.242 -15.03 10.568 -22.839 c 6.05 -10.98 10.175 -15.372 18.09 -19.325 c 19.268 -9.614 27.673 -10.98 43.21 -6.881 c 17.06 2.294 39.13 15.909 43.992 45.97 c 0 5.71 6.488 13.859 14.11 17.617 c 25.707 12.347 22.17 12.835 31.556 31.28 l -1.475 12.835 c -1.819 16.202 -11.403 27.28 -25.559 29.524 c -6.193 1.025 -12.731 4.587 -19.317 10.59 c -5.505 5.03 -14.5 11.907 -20.01 15.372 c -9.241 5.758 -11.944 6.247 -35.488 6.149 c -15.68 -0.049 -28.26 -1.269 -32.588 -3.221 m -32.588 -54.12 c -0.541 -1.61 -0.197 -8.491 -5.653 -5.856 c -4.08 1.952 -4.424 4.246 -4.964 5.856 c -0.639 1.903 1.327 2.977 5.309 2.977 c 3.981 0 5.947 -1.074 5.309 -2.977 m 139.69 0 c 4.227 -2 2.408 -2.196 -6.537 -6.539 c -4.67 -2.294 -3.539 4.929 -4.08 6.539 c -0.639 1.903 1.327 2.977 5.309 2.977 c 3.981 0 3.539 -2.098 5.309 -2.977" transform="matrix(0.07947 0 0 0.08004 1.254 1.989)" fill="#8e7d4f" stroke="#fff" stroke-width="0.341"/><g stroke="#000" transform="scale(0.08594)"><path d="m 128.45 166.05 c -0.182 -37.18 -0.545 -48.591 -1.5 -50.909 c -0.864 -2 -2.136 -2.545 -6.864 -2.818 c -2.364 -0.182 -5.909 -0.727 -8.591 -1.409 c -2.455 -0.636 -6.5 -1.364 -8.955 -1.591 c -2.5 -0.227 -5 -0.5 -5.682 -0.636 c -1.727 -0.364 -6.273 -2.773 -6.545 -3.455 c -0.136 -0.364 -0.318 -2.091 -0.455 -3.864 c -0.091 -1.773 -0.273 -4.136 -0.409 -5.273 l -0.182 -2.045 l 2.455 -1.727 c 1.318 -0.955 3.136 -1.909 4 -2.182 c 0.864 -0.227 3.818 -1 6.591 -1.682 l 5.091 -1.273 h 24.09 c 22.591 0 24.318 0.045 26.5 0.727 c 1.273 0.409 3.909 0.864 5.818 1 c 3.273 0.227 3.682 0.364 6.364 2 c 4.091 2.5 4.5 3.318 4.682 9.364 c 0.136 5.727 0 6.05 -2.864 6.864 c -1.045 0.273 -2.636 0.818 -3.545 1.136 c -0.864 0.318 -4.318 0.955 -7.682 1.409 c -3.409 0.455 -6.818 1.091 -7.591 1.409 c -0.773 0.364 -3.864 0.909 -6.864 1.227 c -6.818 0.773 -7.818 1.136 -8.318 3.136 c -0.727 2.773 -1.364 26.409 -1.5 55.682 l -0.136 29.14 h -7.682" stroke-width="0.056"/><path d="m 184.41 172.5 c -0.591 -0.318 -2.364 -2.136 -3.955 -4 c -1.591 -1.909 -3.182 -3.727 -3.545 -4 c -0.364 -0.318 -4.727 -0.727 -9.682 -0.864 c -9.318 -0.318 -11.636 -1.091 -6.182 -2 c 1.545 -0.227 4.545 -1.227 6.591 -2.182 c 2.091 -0.955 5.5 -2.182 7.636 -2.773 c 4.273 -1.136 3.136 -1.364 15.273 3.091 c 5.091 1.864 10.227 3.5 13.364 0.318 c 5.545 -5.636 10.364 -2.545 10.364 -2.409 c 0 0.591 -9.136 8.273 -10.05 9.136 c -0.636 0.545 -4.955 1.364 -8.273 1.636 c -5.273 -1.409 -7.955 5.909 -11.545 4.045" stroke-width="0.074"/><path d="m 204.36 146.68 c -1.136 -1.864 -1.636 -2.273 -3.364 -2.818 c -0.773 -0.273 -2.136 -1.091 -3.091 -1.818 c -0.909 -0.773 -1.909 -1.364 -2.182 -1.364 c -0.273 0 -1.455 0.818 -2.682 1.818 c -2.545 2.136 -2.955 2 -3.364 -1.136 c -0.455 -3 -0.409 -18.818 0 -19.5 c 0.318 -0.5 0.727 -0.409 2.636 0.5 c 3.955 1.955 9.864 5.818 12.136 7.955 c 2.227 2.091 4.182 5.364 4.591 7.682 c 0.364 2.318 -1.591 8.409 -3.136 9.682 c -0.5 0.409 -0.727 0.273 -1.545 -1" stroke-width="0.056"/><path d="m 143.18 145.45 c -0.5 -0.5 -0.318 -5.591 0.409 -9.5 c 0.364 -2.045 0.864 -5.455 1.136 -7.545 c 0.773 -6.091 0.545 -5.864 6.864 -6.955 c 2.273 -0.364 6.182 -1.364 8.636 -2.182 c 5.545 -1.864 8.909 -1.955 16.864 -0.364 c 3.091 0.591 0.364 1.682 -5.955 2.364 c -4.227 0.455 -6.455 1.273 -6.455 2.409 c 0 0.773 0.864 1.455 2.045 1.682 c 0.727 0.136 0.409 0.636 -2 3.182 c -1.591 1.636 -3.045 3 -3.273 3 c -0.455 0 -0.5 -0.045 -1.5 -3.682 c -0.409 -1.364 -1.045 -2.818 -1.409 -3.182 c -1.864 -1.818 -4.455 0.045 -5.455 3.955 c -0.727 2.682 -4.818 10.773 -7.545 14.864 c -1.5 2.273 -1.818 2.5 -2.364 1.955" stroke-width="0.065"/><path d="m 111.82 80 v -2.136 l 1.636 0.045 c 1.409 0 2.045 -0.227 4.364 -1.545 c 1.455 -0.818 2.864 -1.682 3.091 -1.909 c 0.227 -0.273 0.591 -2.773 1 -7.227 c 0.682 -7.727 1.636 -15.14 2.182 -16.909 c 0.5 -1.591 1.682 -2.318 2.818 -1.773 c 0.955 0.455 1 0.182 -0.136 9.318 c -0.318 2.864 -0.818 8.636 -1.045 12.818 c -0.455 8.909 -0.545 9.136 -3.045 9.909 c -0.864 0.227 -3.545 0.636 -6 0.818 c -2.409 0.227 -4.545 0.455 -4.636 0.545 c -0.136 0.091 -0.227 -0.818 -0.227 -1.955" stroke-width="0.045"/><path d="m 119.5 144.73 c 0.5 -0.5 0.318 -5.364 -0.364 -9.136 c -0.364 -1.955 -0.864 -5.227 -1.091 -7.227 c -0.727 -5.864 -0.5 -5.682 -6.5 -6.682 c -2.182 -0.364 -5.864 -1.318 -8.227 -2.136 c -5.273 -1.773 -8.455 -1.864 -16 -0.318 c -2.909 0.591 -0.364 1.636 5.682 2.273 c 4 0.409 6.091 1.227 6.091 2.318 c 0 0.727 -0.818 1.409 -1.909 1.591 c -0.727 0.136 -0.409 0.636 1.864 3.045 c 1.5 1.591 2.909 2.909 3.136 2.909 c 0.409 0 0.455 -0.045 1.409 -3.5 c 0.364 -1.364 0.955 -2.727 1.364 -3.136 c 1.727 -1.727 4.182 0.091 5.136 3.818 c 0.682 2.636 4.591 10.364 7.182 14.318 c 1.409 2.136 1.682 2.364 2.227 1.864" stroke-width="0.062"/><path d="m 77.41 173.23 c 0.591 -0.318 2.318 -2.227 3.909 -4.182 c 1.545 -2 3.136 -3.864 3.5 -4.182 c 0.318 -0.318 4.636 -0.727 9.545 -0.909 c 9.182 -0.318 11.5 -1.091 6.091 -2.045 c -1.545 -0.273 -4.5 -1.318 -6.5 -2.318 c -2.045 -1 -5.455 -2.273 -7.545 -2.864 c -4.227 -1.182 -3.091 -1.409 -15.09 3.227 c -5 1.909 -10.05 3.636 -13.182 0.318 c -5.455 -5.864 -10.227 -2.682 -10.227 -2.5 c 0 0.591 9.409 8.182 10.318 9.09 c 0.591 0.591 4.5 1.864 7.773 2.091 c 5.182 -1.409 7.818 6.227 11.409 4.273" stroke-width="0.075"/><path d="m 60.45 146.32 c 1.182 -1.864 1.636 -2.273 3.409 -2.818 c 0.727 -0.273 2.091 -1.091 3.045 -1.818 c 0.955 -0.773 1.955 -1.364 2.182 -1.364 c 0.273 0 1.5 0.818 2.682 1.818 c 2.591 2.136 2.955 2 3.409 -1.136 c 0.409 -3 0.409 -18.818 -0.045 -19.5 c -0.318 -0.5 -0.682 -0.409 -2.636 0.545 c -3.909 1.909 -9.864 5.773 -12.09 7.909 c -2.273 2.091 -4.227 5.364 -4.591 7.682 c -0.364 2.318 1.591 8.409 3.091 9.682 c 0.5 0.409 0.773 0.273 1.545 -1" stroke-width="0.056"/><path d="m 149.91 80 v -2.136 l -1.682 0.045 c -1.409 0 -2.045 -0.227 -4.318 -1.545 c -1.5 -0.818 -2.909 -1.682 -3.091 -1.909 c -0.273 -0.273 -0.636 -2.773 -1 -7.227 c -0.682 -7.727 -1.682 -15.14 -2.227 -16.909 c -0.5 -1.591 -1.636 -2.318 -2.818 -1.773 c -0.955 0.455 -0.955 0.182 0.136 9.318 c 0.364 2.864 0.818 8.636 1.045 12.818 c 0.455 8.909 0.545 9.136 3.091 9.909 c 0.818 0.227 3.545 0.636 5.955 0.818 c 2.455 0.227 4.545 0.455 4.682 0.545 c 0.136 0.091 0.227 -0.818 0.227 -1.955" stroke-width="0.045"/></g></svg>