<svg xmlns="http://www.w3.org/2000/svg" xmlns:xlink="http://www.w3.org/1999/xlink" viewBox="0 0 22 22"><defs><g id="5" clip-path="url(#4)"><path d="m 6.922 7.977 c 0.59 2.785 1.23 5.828 1.746 8.277 l 7.359 -1.555 c -1.746 -8.273 -1.039 -4.91 -1.746 -8.273" fill-rule="evenodd"/><path d="m 8.613 14.465 c 0.098 0.465 0.203 0.969 0.289 1.379 l 6.746 -1.422 c -0.293 -1.379 -0.176 -0.82 -0.293 -1.379" fill-rule="evenodd"/><path d="m 8.137 8.234 c 0.391 1.855 0.82 3.887 1.164 5.516 l 5.137 -1.082 c -1.164 -5.516 -0.691 -3.277 -1.164 -5.516" fill-rule="evenodd"/><path d="m 6.922 7.977 l 1.313 6.207 l 7.355 -1.551 l -1.309 -6.207 m -5.176 2.172 l 2.035 1.156 l 1.395 -1.879 c 0.305 1.453 0.094 2.031 -0.324 2.488 l 0.988 0.555 c 0.191 0.086 0.359 0.23 0.469 0.43 l 0.063 0.055 h -0.039 c 0.027 0.074 0.07 0.152 0.09 0.238 c 0.113 0.535 -0.184 1.055 -0.66 1.152 c -0.473 0.102 -0.941 -0.258 -1.055 -0.789 c -0.047 -0.215 -0.027 -0.414 0.043 -0.598 c -0.246 -0.141 -0.469 -0.234 -0.688 -0.316 c -0.168 0.164 -0.332 0.336 -0.5 0.57 c 0.141 0.137 0.234 0.309 0.281 0.523 c 0.113 0.535 -0.172 1.051 -0.648 1.152 c -0.473 0.098 -0.953 -0.254 -1.066 -0.789 c -0.02 -0.086 -0.016 -0.172 -0.016 -0.258 l -0.035 0.02 l 0.035 -0.074 c 0.02 -0.227 0.113 -0.426 0.258 -0.582 l 0.68 -0.91 c -0.57 -0.246 -1 -0.691 -1.305 -2.145 m 1.145 3.293 c -0.234 0.051 -0.387 0.297 -0.332 0.563 c 0.059 0.266 0.301 0.445 0.535 0.395 c 0.234 -0.047 0.375 -0.309 0.32 -0.574 c -0.059 -0.266 -0.285 -0.434 -0.523 -0.383 m 2.566 -0.543 c -0.234 0.051 -0.375 0.297 -0.32 0.563 c 0.055 0.266 0.289 0.445 0.523 0.398 c 0.234 -0.051 0.387 -0.313 0.328 -0.578 c -0.055 -0.266 -0.293 -0.434 -0.531 -0.383" fill-rule="evenodd"/><path d="m 8.684 14.809 c 0.027 0.113 0.055 0.242 0.074 0.344 l 6.742 -1.422 c -0.07 -0.348 -0.043 -0.207 -0.07 -0.348" fill-rule="evenodd"/><path d="m 8.832 15.5 c 0.023 0.117 0.051 0.242 0.07 0.344 l 6.746 -1.422 c -0.074 -0.348 -0.043 -0.207 -0.074 -0.348" fill-rule="evenodd"/></g><clipPath id="8"><path d="m 7 13 h 10 v 4 h -10"/></clipPath><clipPath id="C"><path d="m 7 14 h 10 v 3 h -10"/></clipPath><clipPath id="9"><path d="m 7 6 h 8 v 9 h -8"/></clipPath><clipPath id="B"><path d="m 7 13 h 10 v 3 h -10"/></clipPath><clipPath id="A"><path d="m 5 5 h 12 v 10 h -12"/></clipPath><clipPath id="7"><path d="m 19.879 9.402 c 1.094 5.184 -1.895 10.203 -6.672 11.207 c -4.773 1.01 -9.535 -2.371 -10.629 -7.555 c -1.094 -5.184 1.895 -10.203 6.668 -11.211 c 4.777 -1.01 9.539 2.375 10.633 7.559"/></clipPath><clipPath id="0"><path d="m 3 2 h 16 v 18 h -16"/></clipPath><clipPath id="6"><path d="m 5 5 h 12 v 13 h -12"/></clipPath><clipPath id="1"><path d="m 18.14 9.57 c 0.926 4.383 -1.484 8.598 -5.375 9.418 c -3.891 0.824 -7.801 -2.059 -8.723 -6.441 c -0.926 -4.383 1.484 -8.598 5.375 -9.422 c 3.891 -0.82 7.801 2.063 8.723 6.445"/></clipPath><clipPath id="4"><path d="M 0,0 H22 V22 H0 z"/></clipPath><filter id="2" filterUnits="objectBoundingBox" x="0" y="0" width="22" height="22"><feColorMatrix type="matrix" in="SourceGraphic" values="0 0 0 0 1 0 0 0 0 1 0 0 0 0 1 0 0 0 1 0"/></filter><mask id="3"><g filter="url(#2)"><path fill-opacity="0.102" d="M 0,0 H22 V22 H0 z"/></g></mask></defs><path d="m 17.465 1.816 c 7.609 4.207 4.656 17.387 -1.605 19.617 c -7.461 2.656 -21.633 -4.258 -13.332 -15.973 c 2.898 -3.949 7.332 -7.852 14.941 -3.645" fill="#218b21"/><g clip-path="url(#0)"><g clip-path="url(#1)"><use xlink:href="#5" mask="url(#3)"/></g></g><g clip-path="url(#6)"><g clip-path="url(#7)"><path d="m 5.68 7.285 c 0.695 3.297 1.457 6.895 2.066 9.789 l 9.03 -1.902 c -2.066 -9.793 -1.227 -5.813 -2.066 -9.793" fill="#c00" fill-rule="evenodd"/></g></g><g clip-path="url(#8)"><g clip-path="url(#7)"><path d="m 7.691 14.957 c 0.117 0.551 0.242 1.148 0.348 1.633 l 8.273 -1.746 c -0.344 -1.633 -0.203 -0.969 -0.344 -1.633" fill="#f9f9f9" fill-rule="evenodd"/></g></g><g clip-path="url(#9)"><g clip-path="url(#7)"><path d="m 7.168 7.578 c 0.461 2.199 0.969 4.598 1.375 6.527 l 6.301 -1.328 c -1.375 -6.527 -0.816 -3.875 -1.375 -6.527" fill="#ffe57f" fill-rule="evenodd"/></g></g><g clip-path="url(#A)"><g clip-path="url(#7)"><path d="m 5.68 7.285 l 1.551 7.344 l 9.03 -1.906 l -1.551 -7.344 m -6.359 2.621 l 2.484 1.355 l 1.727 -2.242 c 0.363 1.719 0.098 2.406 -0.422 2.953 l 1.207 0.648 c 0.234 0.102 0.438 0.27 0.57 0.504 l 0.078 0.066 l -0.051 -0.004 c 0.035 0.09 0.086 0.184 0.109 0.285 c 0.133 0.629 -0.234 1.25 -0.816 1.371 c -0.582 0.121 -1.156 -0.297 -1.289 -0.93 c -0.055 -0.25 -0.027 -0.484 0.059 -0.703 c -0.297 -0.168 -0.57 -0.277 -0.836 -0.367 c -0.207 0.191 -0.414 0.398 -0.621 0.676 c 0.172 0.16 0.285 0.363 0.34 0.621 c 0.133 0.629 -0.223 1.246 -0.805 1.367 c -0.582 0.125 -1.164 -0.293 -1.301 -0.926 c -0.02 -0.102 -0.016 -0.203 -0.012 -0.301 l -0.047 0.02 l 0.043 -0.086 c 0.023 -0.27 0.145 -0.508 0.32 -0.695 l 0.84 -1.082 c -0.695 -0.289 -1.215 -0.813 -1.578 -2.531 m 1.375 3.891 c -0.289 0.063 -0.477 0.359 -0.41 0.676 c 0.066 0.313 0.359 0.52 0.648 0.461 c 0.289 -0.063 0.465 -0.371 0.398 -0.684 c -0.066 -0.313 -0.348 -0.512 -0.637 -0.453 m 3.148 -0.664 c -0.289 0.063 -0.465 0.355 -0.398 0.672 c 0.066 0.313 0.352 0.523 0.641 0.465 c 0.289 -0.063 0.473 -0.371 0.406 -0.688 c -0.066 -0.313 -0.359 -0.508 -0.648 -0.449" fill="#a00" fill-rule="evenodd"/></g></g><g clip-path="url(#B)"><g clip-path="url(#7)"><path d="m 7.777 15.363 c 0.031 0.137 0.063 0.289 0.086 0.406 l 8.277 -1.746 c -0.086 -0.406 -0.051 -0.242 -0.086 -0.406" fill="#e5e5e5" fill-rule="evenodd"/></g></g><g clip-path="url(#C)"><g clip-path="url(#7)"><path d="m 7.949 16.18 c 0.031 0.141 0.062 0.289 0.09 0.41 l 8.273 -1.746 c -0.086 -0.41 -0.051 -0.242 -0.086 -0.41" fill="#e5e5e5" fill-rule="evenodd"/></g></g></svg>