<svg xmlns="http://www.w3.org/2000/svg" viewBox="0 0 22 22"><path d="m 0.512 13.484 c 1.348 8.906 13.32 11.289 18.605 4.934 c 4.656 -4.723 3.496 -13.766 -2.211 -16.863 c -6.559 -4.148 -16.11 0.98 -16.629 9.234 c -0.055 0.906 0.02 1.82 0.234 2.695" fill="#e5e5e5"/><path d="m 74.909 87.41 h 122.91 c 1.182 0 2.136 2.591 2.136 5.727 v 77.68 c 0 3.182 -0.955 5.727 -2.136 5.727 h -122.91 c -1.182 0 -2.136 -2.545 -2.136 -5.727 v -77.68 c 0 -3.136 0.955 -5.727 2.136 -5.727" transform="scale(0.08594)" fill="#b2b2c6" stroke="#b2b2c6" stroke-width="3.628"/><path d="m 16.473 11.609 c 0 2.043 -1.672 3.699 -3.738 3.699 c -2.063 0 -3.738 -1.656 -3.738 -3.699 c 0 -2.043 1.676 -3.695 3.738 -3.695 c 2.066 0 3.738 1.652 3.738 3.695" fill="#fcfcfc"/><path d="m 13.152 8.57 c 0 0.289 -0.258 0.523 -0.57 0.523 c -0.313 0 -0.57 -0.234 -0.57 -0.523 c 0 -0.293 0.258 -0.527 0.57 -0.527 c 0.313 0 0.57 0.234 0.57 0.527"/><g stroke-width="4"><path d="m 172.54 134.45 c 0.047 11.11 -9.78 20.12 -21.839 20.12 c -12.06 0 -21.887 -9.02 -21.839 -20.12 c -0.047 -11.11 9.78 -20.12 21.839 -20.12 c 12.06 0 21.887 9.02 21.839 20.12" transform="matrix(0.08228 0 0 0.08406 0.292 0.331)" fill="#c0c0d0" stroke="#828282"/><path d="m 162.67 136.22 c 0 4.947 -4.717 9.01 -10.511 9.01 c -5.794 0 -10.511 -4.061 -10.511 -9.01 c 0 -4.994 4.717 -9.05 10.511 -9.05 c 5.794 0 10.511 4.061 10.511 9.05" transform="matrix(0.07619 0 0 0.08369 1.099 0.255)" stroke="#000"/></g><path d="m 14.309 7.945 h 2.145 v 0.812 h -2.145" fill="#73baff"/><g fill="#464678" stroke="#464678" transform="matrix(0.05835 0 0 0.05708 1.762 2.638)"><path d="m 60.916 224.93 c -1.607 -0.958 -3.682 -2.669 -4.753 -3.832 c -1.874 -2.053 -1.874 -3.627 -2.142 -66.38 c -0.268 -63.1 -0.201 -64.26 1.674 -67.34 c 2.745 -4.448 6.895 -5.748 17.472 -5.748 c 8.435 0 9.439 -0.205 15.13 -3.216 c 10.577 -5.543 25.638 -5.475 34.21 0.205 l 3.749 2.532 l 68.41 0.479 l 68.35 0.411 l 2.544 2.395 c 5.422 4.927 5.221 2.258 5.221 69.26 c 0 68.02 0.134 66.11 -5.824 70.28 l -3.146 2.258 l -99.07 0.205 c -95.19 0.274 -99.07 0.205 -101.82 -1.506 m 70.824 -3.901 c 17.606 0.137 31.998 0 31.998 -0.274 c 0 -0.205 -3.146 -1.985 -7.03 -3.901 c -17.672 -8.623 -30.994 -24.91 -35.814 -43.798 c -1.54 -6.228 -1.807 -9.718 -1.473 -18.477 c 0.669 -17.725 6.092 -30.04 19.212 -43.935 c 14.459 -18.888 12.317 -16.15 33.14 -18.819 c 15.196 -0.89 26.509 -0.411 33.471 1.437 c 5.556 1.437 7.23 1.574 8.702 0.684 c 2.477 -1.506 4.284 -1.506 3.079 0.068 c -0.536 0.616 -1.205 2.943 -1.473 5.133 c -0.87 6.638 -0.201 6.843 18.61 6.57 l 16.267 -0.274 l -0.067 -6.296 c 0 -5.338 0.201 -6.296 1.54 -6.296 c 0.87 0 1.874 0.616 2.209 1.437 c 0.87 2.327 0.669 9.376 -0.335 12.04 c -0.937 2.327 -1.138 2.395 -9.974 2.395 c -5.958 0 -9.04 0.342 -9.04 1.027 c 0 0.616 1.807 3.08 4.02 5.543 c 11.849 13.07 18.208 32.849 15.865 48.999 c -2.477 16.561 -8.301 27.784 -20.752 40.03 c -6.56 6.364 -9.907 8.828 -16.468 12.04 c -4.552 2.258 -8.234 4.448 -8.234 4.927 c 0 0.547 9.506 0.753 24.567 0.547 c 23.23 -0.274 24.701 -0.411 27.25 -2.258 l 2.678 -1.985 l 0.469 -60.77 c 0.268 -33.396 0.87 -61.66 1.272 -62.823 c 0.669 -1.642 0.268 -2.669 -2.075 -4.927 l -2.878 -2.806 l -99.14 0.205 l -99.14 0.274 l -1.607 2.053 c -1.406 1.916 -1.607 7.528 -1.874 62.34 c -0.268 43.18 -0.067 61.32 0.736 64.19 c 1.74 6.296 3.816 6.843 23.697 6.091 c 9.171 -0.411 30.994 -0.547 48.599 -0.411 m 76.31 -3.901 c 9.372 -3.353 16.267 -7.596 23.362 -14.303 c 7.297 -6.912 12.183 -14.303 15.999 -24.23 c 2.745 -7.186 2.945 -8.349 2.945 -20.736 c 0.067 -10.95 -0.268 -14.166 -2.075 -19.641 c -2.745 -8.691 -8.03 -17.451 -14.526 -24.09 l -5.221 -5.406 h -6.359 c -6.962 0 -7.297 -0.274 -8.702 -6.843 c -0.402 -1.916 -1.54 -3.01 -4.083 -4.106 c -3.749 -1.506 -15.932 -3.901 -20.35 -3.969 c -3.01 0.479 -7.163 0.547 -12.719 1.027 l -6.426 1.3 c -9.372 12.25 -19.614 10.881 -24.567 13.482 c -2.745 1.437 -10.577 10.881 -14.12 16.903 c -1.339 2.327 -3.548 7.596 -4.954 11.702 c -2.142 6.296 -2.544 9.239 -2.611 18.272 c -0.134 18.888 5.422 32.3 18.744 45.37 c 8.167 8.144 15.33 12.455 26.509 16.08 c 5.891 1.916 8.167 2.19 19.48 1.916 c 10.978 -0.274 13.723 -0.616 19.681 -2.737"/><path d="m 221.11 91.82 h 25.839 c 1.74 0 3.146 0.205 3.146 0.479 c 0 0.274 -1.406 0.547 -3.146 0.547 h -25.839 c -1.74 0 -3.146 -0.274 -3.146 -0.547 c 0 -0.274 1.406 -0.479 3.146 -0.479" stroke-width="3.613"/></g><path d="m 155.06 93.07 c 0 2.732 -2.213 4.943 -4.942 4.943 c -2.754 0 -4.967 -2.211 -4.967 -4.943 c 0 -2.758 2.213 -4.969 4.967 -4.969 c 2.729 0 4.942 2.211 4.942 4.969" transform="matrix(0.15886 0 0 0.15014 -12.884 -5.403)" fill="#0069ff" stroke="#000" stroke-width="1.944"/></svg>