<svg xmlns="http://www.w3.org/2000/svg" viewBox="0 0 22 22"><path d="m 16.664 2.734 c 19.48 18.11 -20.73 29.52 -16.297 5.477 c 2.188 -6.344 10.04 -11.293 16.297 -5.477" fill="#5c5c5c"/><path d="m 6.676 7.05 v 0.738 h 2.262 v 0.738 h -3.02 v 2.211 h -0.754 v -2.211 h -0.754 v 5.16 h 0.754 v -2.211 h 0.754 v 2.211 l 1.508 1.473 h 4.898 l 0.754 -0.734 h 1.133 v 0.734 h 0.754 l 0.754 -0.734 v -4.426 l -0.754 -0.738 h -0.754 v 0.738 h -0.66 l -1.508 -1.473 h -2.355 v -0.738 h 2.262 v -0.738 m -5.277 2.211 h 4.898 l 1.508 1.477 h 1.887 v 2.949 h -2.262 l -0.754 0.738 h -4.051 l -1.227 -1.254" fill-opacity="0.2"/><path d="m 6.676 6.68 v 0.738 h 2.262 v 0.734 h -3.02 v 2.215 h -0.754 v -2.215 h -0.754 v 5.164 h 0.754 v -2.215 h 0.754 v 2.215 l 1.508 1.473 h 4.898 l 0.754 -0.738 h 1.133 v 0.738 h 0.754 l 0.754 -0.738 v -4.422 l -0.754 -0.738 h -0.754 v 0.738 h -0.66 l -1.508 -1.477 h -2.355 v -0.734 h 2.262 v -0.738 m -5.277 2.211 h 4.898 l 1.508 1.477 h 1.887 v 2.949 h -2.262 l -0.754 0.734 h -4.051 l -1.227 -1.254" fill="#ffa92c"/><path d="m 14.289 11.05 l -0.078 0.938 c -0.305 0.113 -0.586 0.27 -0.836 0.473 l -0.867 -0.398 l -0.91 1.539 l 0.789 0.539 c -0.027 0.156 -0.039 0.313 -0.043 0.473 c 0 0.156 0.016 0.316 0.043 0.473 l -0.789 0.535 l 0.91 1.539 l 0.867 -0.398 c 0.25 0.203 0.531 0.359 0.836 0.469 l 0.078 0.941 h 1.816 l 0.078 -0.938 c 0.305 -0.113 0.586 -0.27 0.836 -0.473 l 0.867 0.398 l 0.91 -1.539 l -0.789 -0.539 c 0.027 -0.156 0.043 -0.313 0.043 -0.473 c 0 -0.156 -0.016 -0.316 -0.043 -0.473 l 0.789 -0.535 l -0.91 -1.539 l -0.867 0.398 c -0.25 -0.203 -0.531 -0.359 -0.836 -0.469 l -0.078 -0.941 m -0.91 2.543 c 0.574 0 1.039 0.457 1.039 1.02 c 0 0.559 -0.465 1.016 -1.039 1.016 c -0.57 0 -1.035 -0.457 -1.035 -1.016 c 0 -0.563 0.465 -1.02 1.035 -1.02" fill="#ffd600"/></svg>