<svg xmlns="http://www.w3.org/2000/svg" viewBox="0 0 22 22"><defs><linearGradient id="0" gradientUnits="userSpaceOnUse" y1="1" x2="0" y2="47" gradientTransform="matrix(0.31378 0 0 0.32955 4.01 3.151)"><stop stop-color="#1ef58f"/><stop offset="1" stop-color="#0af486"/></linearGradient></defs><path d="m 5.387 19.305 c -19.484 -18.11 20.727 -29.523 16.293 -5.48 c -2.188 6.344 -10.04 11.297 -16.293 5.48" fill="#47d0cc"/><path d="m 18.754 11.06 c 0 4.188 -3.23 7.582 -7.219 7.582 c -3.984 0 -7.215 -3.395 -7.215 -7.582 c 0 -4.184 3.23 -7.578 7.215 -7.578 c 3.988 0 7.219 3.395 7.219 7.578" fill="url(#0)"/><path d="m 10.04 7.195 c -0.641 0 -1.164 0.297 -1.512 0.707 c -0.344 0.414 -0.527 0.934 -0.527 1.434 c 0 0.914 0.375 1.719 1.113 2.109 l 1.32 0.691 h -0.711 c -0.949 0 -1.723 0.813 -1.723 1.813 c 0 1 0.73 1.813 1.566 1.813 h 3.922 c 0.641 0 1.164 -0.297 1.512 -0.707 c 0.348 -0.414 0.531 -0.934 0.531 -1.434 c 0 -0.914 -0.375 -1.719 -1.117 -2.109 l -1.32 -0.691 h 0.711 c 0.949 0 1.727 -0.813 1.727 -1.813 c 0 -0.477 -0.191 -0.918 -0.473 -1.25 c -0.285 -0.328 -0.672 -0.563 -1.098 -0.563 m -3.922 0.656 h 3.922 c 0.199 0 0.441 0.129 0.629 0.348 c 0.191 0.219 0.313 0.52 0.313 0.809 c 0 0.648 -0.48 1.152 -1.098 1.152 h -2.039 c -0.172 0 -0.313 0.148 -0.313 0.328 v 1.445 l -2.059 -1.078 c -0.516 -0.273 -0.766 -0.781 -0.766 -1.52 c 0 -0.324 0.129 -0.707 0.371 -0.996 c 0.242 -0.289 0.582 -0.488 1.039 -0.488 m 2.039 3.172 l 2.055 1.078 c 0.516 0.273 0.77 0.781 0.77 1.52 c 0 0.324 -0.129 0.707 -0.371 0.996 c -0.242 0.289 -0.582 0.488 -1.043 0.488 h -3.922 c -0.418 0 -0.941 -0.504 -0.941 -1.152 c 0 -0.648 0.48 -1.156 1.098 -1.156 h 2.043 c 0.172 0 0.313 -0.145 0.313 -0.328" fill-opacity="0.102"/><path d="m 9.723 6.863 c -0.641 0 -1.164 0.297 -1.512 0.711 c -0.348 0.41 -0.531 0.934 -0.531 1.434 c 0 0.91 0.375 1.719 1.117 2.105 l 1.32 0.695 h -0.711 c -0.949 0 -1.727 0.813 -1.727 1.813 c 0 1 0.734 1.813 1.57 1.813 h 3.922 c 0.641 0 1.164 -0.297 1.512 -0.707 c 0.344 -0.414 0.527 -0.934 0.527 -1.434 c 0 -0.914 -0.375 -1.723 -1.113 -2.109 l -1.32 -0.695 h 0.707 c 0.953 0 1.727 -0.813 1.727 -1.813 c 0 -0.477 -0.188 -0.914 -0.473 -1.246 c -0.281 -0.328 -0.668 -0.566 -1.094 -0.566 m -3.922 0.66 h 3.922 c 0.199 0 0.441 0.125 0.629 0.348 c 0.188 0.219 0.313 0.52 0.313 0.805 c 0 0.648 -0.48 1.156 -1.098 1.156 h -2.039 c -0.176 0 -0.316 0.145 -0.316 0.328 v 1.445 l -2.055 -1.082 c -0.516 -0.27 -0.77 -0.781 -0.77 -1.516 c 0 -0.324 0.133 -0.711 0.375 -1 c 0.242 -0.289 0.578 -0.484 1.039 -0.484 m 2.039 3.168 l 2.055 1.082 c 0.516 0.27 0.77 0.781 0.77 1.516 c 0 0.324 -0.133 0.711 -0.375 1 c -0.242 0.289 -0.578 0.488 -1.039 0.488 h -3.922 c -0.418 0 -0.941 -0.508 -0.941 -1.156 c 0 -0.648 0.48 -1.152 1.098 -1.152 h 2.039 c 0.176 0 0.316 -0.148 0.316 -0.328" fill="#3d3b3c"/></svg>