<svg xmlns="http://www.w3.org/2000/svg" viewBox="0 0 22 22"><path d="m 16.58 1.67 c 19.2 16.47 -20.29 32.3 -16.23 6.84 c 0.89 -5.59 11 -11.27 16.23 -6.84" style="fill:#697184"/><g style="fill:#fff"><path d="m 15 7.74 c 0 1.06 -0.85 1.92 -1.91 1.92 c -1.05 0 -1.91 -0.86 -1.91 -1.92 c 0 -1.06 0.86 -1.92 1.91 -1.92 c 1.05 0 1.91 0.86 1.91 1.92"/><path d="m 8.35 11.27 c 0 1.06 -0.86 1.92 -1.91 1.92 c -1.05 0 -1.91 -0.86 -1.91 -1.92 c 0 -1.06 0.86 -1.92 1.91 -1.92 c 1.05 0 1.91 0.86 1.91 1.92"/><path d="m 15.18 15.1 c 0 1.06 -0.86 1.92 -1.91 1.92 c -1.05 0 -1.91 -0.86 -1.91 -1.92 c 0 -1.06 0.86 -1.92 1.91 -1.92 c 1.05 0 1.91 0.86 1.91 1.92"/><path d="m 11.99 7.57 l 0.62 1.24 l -5 2.68 l -0.62 -1.25"/><path d="m 12.6 14 l -0.64 1.23 l -5 -2.77 l 0.64 -1.23"/></g></svg>