<svg xmlns="http://www.w3.org/2000/svg" viewBox="0 0 22 22"><path d="m 4.938 19.914 c -17.477 -18.08 20.855 -30.656 16.766 -5.73 c -0.898 5.469 -11.809 10.859 -16.766 5.73" fill="#182340"/><g fill="#fff"><path d="m 18.922 13.16 c -0.387 -0.094 -0.648 -0.523 -0.742 -1.227 c -0.172 -1.242 0.23 -2.344 0.855 -2.344 c 0.473 0 0.793 0.574 0.84 1.5 l 0.031 0.566 h -1.285 l 0.031 0.211 c 0.105 0.66 0.492 0.813 1.023 0.402 l 0.16 -0.121 v 0.758 l -0.199 0.109 c -0.25 0.145 -0.504 0.195 -0.715 0.145 m 0.461 -2.359 c -0.051 -0.453 -0.367 -0.672 -0.566 -0.391 c -0.09 0.125 -0.199 0.57 -0.152 0.613 c 0.016 0.016 0.191 0.027 0.387 0.027 h 0.355"/><path d="m 3.598 13.14 c -0.145 -0.035 -0.328 -0.105 -0.41 -0.16 c -0.137 -0.098 -0.148 -0.129 -0.164 -0.574 l -0.016 -0.473 l 0.184 0.156 c 0.238 0.207 0.383 0.27 0.609 0.27 c 0.25 0 0.379 -0.141 0.414 -0.445 c 0.035 -0.348 -0.074 -0.508 -0.484 -0.707 c -0.574 -0.281 -0.754 -0.68 -0.703 -1.574 c 0.02 -0.395 0.051 -0.543 0.168 -0.758 c 0.238 -0.445 0.539 -0.535 1.113 -0.34 l 0.305 0.105 v 0.906 l -0.16 -0.105 c -0.238 -0.156 -0.453 -0.215 -0.652 -0.18 c -0.223 0.035 -0.305 0.168 -0.305 0.488 c 0 0.285 0.102 0.418 0.398 0.531 c 0.598 0.227 0.781 0.523 0.816 1.301 c 0.055 1.199 -0.332 1.738 -1.113 1.559"/><path d="m 5.273 10.723 v -2.395 h 0.496 l 0.004 0.922 c 0.004 0.73 0.016 0.898 0.07 0.824 c 0.324 -0.469 0.391 -0.516 0.613 -0.465 c 0.113 0.027 0.184 0.102 0.297 0.32 l 0.148 0.289 l 0.02 1.449 l 0.016 1.449 h -0.496 l -0.02 -1.277 c -0.02 -1.336 -0.039 -1.445 -0.262 -1.445 c -0.145 0 -0.266 0.152 -0.328 0.406 c -0.031 0.121 -0.059 0.695 -0.059 1.27 l -0.004 1.047 h -0.496"/><path d="m 8.102 13.156 c -0.422 -0.102 -0.672 -0.637 -0.715 -1.531 c -0.035 -0.715 0.039 -1.188 0.242 -1.574 c 0.348 -0.66 1.043 -0.598 1.336 0.121 c 0.359 0.871 0.207 2.473 -0.27 2.867 c -0.141 0.117 -0.391 0.168 -0.594 0.117 m 0.344 -0.816 c 0.164 -0.152 0.211 -0.434 0.184 -1.125 c -0.027 -0.652 -0.125 -0.887 -0.367 -0.859 c -0.258 0.027 -0.367 0.316 -0.367 0.973 c 0 0.645 0.047 0.898 0.195 1.035 c 0.141 0.125 0.195 0.125 0.355 -0.023"/><path d="m 9.906 13.09 c 0 -0.063 -0.387 -3.078 -0.414 -3.23 l -0.031 -0.164 h 0.25 c 0.176 0 0.25 0.02 0.25 0.066 c 0 0.105 0.219 1.953 0.254 2.141 c 0.016 0.094 0.039 0.16 0.051 0.152 c 0.008 -0.012 0.07 -0.473 0.133 -1.027 c 0.164 -1.426 0.141 -1.332 0.363 -1.332 c 0.152 0 0.195 0.02 0.219 0.113 c 0.031 0.129 0.25 2 0.25 2.137 c 0 0.051 0.02 0.066 0.047 0.039 c 0.027 -0.027 0.105 -0.555 0.176 -1.168 l 0.125 -1.121 h 0.488 l -0.035 0.211 c -0.016 0.121 -0.105 0.793 -0.195 1.5 c -0.09 0.707 -0.176 1.383 -0.195 1.5 l -0.031 0.215 h -0.273 c -0.156 0 -0.27 -0.023 -0.27 -0.055 c 0 -0.09 -0.219 -1.918 -0.254 -2.129 c -0.02 -0.105 -0.043 -0.184 -0.055 -0.172 c -0.02 0.016 -0.297 2.18 -0.297 2.316 c -0.004 0.02 -0.125 0.039 -0.277 0.039 c -0.152 0 -0.277 -0.016 -0.277 -0.031"/><path d="m 12.902 13.07 c -0.066 -0.027 -0.168 -0.121 -0.223 -0.211 c -0.082 -0.145 -0.102 -0.336 -0.125 -1.301 c -0.027 -1.129 -0.027 -1.133 -0.152 -1.148 c -0.113 -0.016 -0.125 -0.043 -0.125 -0.363 c 0 -0.32 0.012 -0.348 0.125 -0.363 c 0.117 -0.016 0.125 -0.039 0.141 -0.508 l 0.016 -0.488 h 0.492 v 1.01 h 0.551 v 0.703 h -0.551 v 0.922 c 0 0.652 0.02 0.941 0.066 0.984 c 0.035 0.031 0.148 0.059 0.246 0.059 h 0.184 v 0.758 l -0.262 -0.004 c -0.145 -0.004 -0.316 -0.023 -0.383 -0.047"/><path d="m 13.988 11.398 v -1.715 l 0.469 0.031 l 0.016 1.586 c 0.008 0.875 0 1.641 -0.016 1.703 c -0.023 0.094 -0.066 0.113 -0.25 0.113 h -0.219"/><path d="m 13.988 8.754 v -0.43 l 0.469 0.031 l 0.016 0.301 c 0.027 0.465 -0.004 0.531 -0.266 0.531 h -0.219"/><path d="m 15.04 11.402 v -1.711 h 0.496 l 0.004 0.238 v 0.238 l 0.148 -0.25 c 0.199 -0.328 0.391 -0.402 0.598 -0.227 c 0.078 0.07 0.168 0.219 0.203 0.34 c 0.074 0.246 0.125 0.27 0.176 0.074 c 0.063 -0.223 0.25 -0.465 0.387 -0.496 c 0.195 -0.043 0.359 0.063 0.488 0.324 c 0.113 0.223 0.121 0.324 0.137 1.707 l 0.02 1.477 h -0.508 l 0.008 -1.254 c 0.008 -1.309 -0.016 -1.469 -0.227 -1.469 c -0.059 0 -0.148 0.063 -0.203 0.137 c -0.086 0.121 -0.102 0.289 -0.117 1.359 l -0.016 1.227 h -0.48 l -0.02 -1.25 c -0.02 -1.336 -0.051 -1.492 -0.281 -1.461 c -0.246 0.031 -0.285 0.227 -0.305 1.512 l -0.02 1.199 h -0.488"/></g></svg>