<svg xmlns="http://www.w3.org/2000/svg" viewBox="0 0 22 22"><path d="m 0.406 9.676 c 1.172 -12.555 16.902 -11.258 19.93 -4.438 c 3.03 6.82 1.328 15.15 -6.07 16.15 c -7.398 0.996 -15.03 0.844 -13.859 -11.711" fill="#f4f4f4"/><path d="m 5.16 17.05 c -0.09 -0.031 -0.094 -0.066 -0.086 -1.664 c 0.004 -0.945 0.031 -1.754 0.059 -1.918 c 0.082 -0.449 0.418 -1.023 0.848 -1.441 c 0.266 -0.258 0.359 -0.379 0.359 -0.465 c 0 -0.09 -0.102 -0.219 -0.395 -0.5 c -0.457 -0.449 -0.684 -0.832 -0.844 -1.441 c -0.102 -0.383 -0.105 -0.477 -0.105 -1.988 c 0 -1.457 0.008 -1.59 0.082 -1.621 c 0.117 -0.051 3.391 -0.012 3.672 0.043 c 0.441 0.082 1.129 0.453 1.574 0.84 c 0.223 0.195 0.441 0.355 0.484 0.355 c 0.039 0 0.227 -0.148 0.406 -0.328 c 0.332 -0.324 0.863 -0.668 1.129 -0.73 c 0.074 -0.016 0.156 -0.047 0.184 -0.066 c 0.023 -0.016 0.223 -0.066 0.441 -0.109 c 0.328 -0.063 0.66 -0.074 2 -0.074 l 1.605 0.004 l 0.023 1.738 l 0.027 1.742 l -0.141 0.375 c -0.18 0.48 -0.379 0.801 -0.75 1.207 c -0.164 0.176 -0.309 0.355 -0.324 0.398 c -0.047 0.129 0.039 0.27 0.313 0.516 c 0.223 0.203 0.688 0.848 0.691 0.961 c 0 0.02 0.051 0.156 0.117 0.305 l 0.117 0.266 l 0.012 1.742 c 0.008 1.059 -0.004 1.75 -0.031 1.766 c -0.059 0.035 -3.344 0.059 -3.402 0.027 c -0.023 -0.016 -0.16 -0.047 -0.305 -0.07 c -0.453 -0.078 -1.113 -0.426 -1.574 -0.828 c -0.227 -0.195 -0.441 -0.355 -0.484 -0.355 c -0.043 0 -0.227 0.148 -0.41 0.328 c -0.328 0.324 -0.859 0.668 -1.125 0.73 c -0.074 0.016 -0.16 0.047 -0.184 0.066 c -0.027 0.02 -0.129 0.051 -0.234 0.066 c -0.102 0.016 -0.25 0.051 -0.332 0.074 c -0.176 0.055 -3.285 0.098 -3.422 0.051 m 3.75 -0.992 c 0.992 -0.379 1.547 -1.156 1.492 -2.098 c -0.027 -0.469 -0.09 -0.574 -0.426 -0.734 c -0.305 -0.145 -0.738 -0.551 -0.895 -0.836 c -0.176 -0.324 -0.316 -0.383 -0.891 -0.383 c -0.41 0.004 -0.52 0.02 -0.801 0.125 c -0.598 0.23 -0.973 0.586 -1.285 1.219 l -0.148 0.305 l -0.016 2.367 l 0.133 0.098 c 0.133 0.098 0.145 0.098 1.344 0.07 c 1.137 -0.027 1.23 -0.035 1.492 -0.133 m 6.809 -0.02 l 0.113 -0.113 l -0.008 -0.988 c -0.008 -1.094 -0.055 -1.402 -0.27 -1.836 c -0.16 -0.313 -0.609 -0.754 -0.914 -0.887 c -0.516 -0.23 -0.57 -0.242 -1.133 -0.223 c -0.5 0.016 -0.547 0.027 -0.664 0.129 c -0.07 0.063 -0.16 0.195 -0.207 0.293 c -0.113 0.254 -0.477 0.598 -0.82 0.773 c -0.383 0.195 -0.477 0.359 -0.473 0.84 c 0.004 0.859 0.602 1.645 1.504 1.977 c 0.375 0.137 0.438 0.141 1.715 0.141 l 1.039 0.004 l 0.117 -0.113 m -4.359 -3.617 c 0.297 -0.164 0.512 -0.422 0.57 -0.684 c 0.094 -0.441 -0.082 -0.816 -0.512 -1.074 c -0.199 -0.121 -0.242 -0.129 -0.586 -0.113 c -0.453 0.02 -0.695 0.148 -0.91 0.473 c -0.113 0.176 -0.137 0.254 -0.133 0.492 c 0 0.355 0.09 0.535 0.367 0.766 c 0.375 0.309 0.809 0.359 1.203 0.141 m -2.695 -1.395 c 0.227 -0.09 0.273 -0.133 0.406 -0.367 c 0.18 -0.313 0.578 -0.691 0.895 -0.848 c 0.352 -0.172 0.395 -0.266 0.387 -0.844 c -0.004 -0.465 -0.012 -0.508 -0.164 -0.801 c -0.195 -0.379 -0.66 -0.828 -1.035 -1 c -0.57 -0.262 -0.867 -0.305 -2.023 -0.281 c -0.934 0.02 -1.059 0.031 -1.133 0.102 c -0.16 0.156 -0.109 2.625 0.055 2.723 c 0.023 0.012 0.094 0.129 0.16 0.254 c 0.266 0.531 0.762 0.895 1.5 1.102 c 0.34 0.094 0.656 0.082 0.953 -0.039 m 5.328 0 c 0.676 -0.172 1.223 -0.566 1.512 -1.094 c 0.246 -0.445 0.277 -0.656 0.273 -1.836 l -0.008 -1.059 l -0.113 -0.109 l -0.117 -0.109 l -1.047 0.008 c -0.777 0.008 -1.102 0.023 -1.25 0.07 c -0.109 0.035 -0.273 0.082 -0.363 0.098 c -0.414 0.086 -0.957 0.484 -1.238 0.91 c -0.242 0.367 -0.336 0.676 -0.332 1.121 c 0.004 0.477 0.086 0.617 0.496 0.828 c 0.328 0.168 0.656 0.48 0.816 0.777 c 0.145 0.262 0.211 0.316 0.496 0.398 c 0.305 0.086 0.531 0.086 0.875 -0.004" fill="#222020"/><g stroke-width="0.144" transform="scale(0.08594)"><g stroke="#fff"><path d="m 83.5 125.41 c -10.773 -5.409 -14.182 -12.636 -14.227 -30.5 c -0.045 -10.955 0.136 -12.273 2.045 -13.318 c 3.182 -1.682 23.727 -1.364 30 0.5 c 9.909 2.955 18.909 13.14 18.864 21.409 c -0.045 6.05 -1.045 7.773 -6.591 11.545 c -2.909 2.045 -5.318 4 -5.318 4.409 c 0 0.409 -1.682 2.545 -3.682 4.773 c -3.364 3.636 -4.182 4 -9.545 4 c -4.182 0 -7.545 -0.818 -11.545 -2.818" fill="#00acee"/><path d="m 70.5 186.5 c -2.091 -2.5 -0.5 -27.27 2 -32.23 c 4.364 -8.636 13.591 -14.14 23.591 -14.14 c 4.5 0 5.318 0.5 10.409 5.818 c 3.045 3.182 7.364 7.091 9.636 8.727 c 3.818 2.773 4.045 3.273 4.045 8.909 c 0 9.455 -4.773 16.682 -14.5 21.818 c -4.864 2.636 -33.23 3.455 -35.18 1.091" fill="#ec008c"/><path d="m 147.82 184.77 c -8.909 -4.091 -14.727 -12.227 -15 -21.09 c -0.136 -5.091 0.091 -5.591 4.182 -8.773 c 4.591 -3.591 8.318 -7.273 12.136 -11.909 c 2.045 -2.5 3.136 -2.864 8.682 -2.818 c 9.955 0.045 18.409 5 22.909 13.5 c 2.091 4.045 3.864 29.636 2.136 31.773 c -0.773 0.955 -5.364 1.318 -15.864 1.318 c -12 0 -15.636 -0.409 -19.18 -2" fill="#8cc63e"/></g><path d="m 146.23 122 c -3.455 -3.455 -8.091 -7.818 -10.318 -9.773 c -3.955 -3.409 -4.091 -3.682 -3.455 -9.05 c 1.227 -10.136 8.091 -18.227 18.09 -21.364 c 2.091 -0.682 9.682 -1.545 16.864 -1.955 c 11.182 -0.591 13.273 -0.455 14.5 1 c 1.045 1.318 1.318 5.227 1.045 15.591 c -0.364 12.227 -0.727 14.409 -3 18.409 c -4.364 7.682 -14.227 13.364 -23.18 13.364 c -3.818 0 -5.05 -0.727 -10.545 -6.227" fill="#ffc10d" stroke="#ffc10d"/></g></svg>