<svg xmlns="http://www.w3.org/2000/svg" viewBox="0 0 22 22"><path d="m 10.625 21.855 c -3.66 -0.699 -7.195 -3.453 -9.06 -7.05 c -1.562 -3.01 -1.805 -5.953 -0.707 -8.543 c 0.828 -1.945 2.703 -3.762 5.04 -4.871 c 2.484 -1.184 4.797 -1.453 7.184 -0.84 c 5.898 1.508 10.219 9.41 8.461 15.469 c -0.855 2.965 -3.133 4.969 -6.484 5.711 c -1.457 0.121 -2.996 0.375 -4.43 0.125" fill="#252522"/><path d="m 10.723 19.352 c -2.859 -0.543 -5.625 -2.668 -7.082 -5.449 c -1.219 -2.328 -1.41 -4.602 -0.551 -6.602 c 0.648 -1.504 2.113 -2.906 3.934 -3.762 c 1.945 -0.914 3.75 -1.125 5.617 -0.652 c 4.609 1.168 7.984 7.27 6.613 11.953 c -0.672 2.289 -2.449 3.84 -5.07 4.414 c -1.137 0.094 -2.34 0.289 -3.461 0.098" fill="#d9d9d9"/><path d="m 117.35 246.23 c -15.692 -3.967 -19.06 -6.734 -22.984 -9.292 c 2.163 -17.226 17.452 -39.26 15.44 -53.35 c -1.106 -7.204 -8.5 -23.23 -15.09 -32.887 c -8.198 -13.625 -18.407 -26.675 -24.744 -40.14 c -8.6 -14.93 -12.473 -39.41 0.101 -53.35 c 13.831 -30.694 14.535 -30.433 31.584 -47.555 c 11.11 -4.333 27.11 -3.289 40.788 -0.626 c 16.597 2.453 34.25 8.091 40.939 19.628 c 0 0.365 -1.66 1.723 -3.671 3.132 c -9.304 8.822 -13.931 21.664 -17.854 33.04 c -3.02 8.718 -3.42 11.12 -3.47 18.688 c -0.05 13.1 4.627 29.911 10.461 37.38 c 5.834 12.842 19.363 24.9 25.15 35.758 c 1.861 3.497 8.248 20.463 8.248 29.859 c -0.754 15.713 -3.973 31.425 -9.405 46.09 c 0.503 1.566 -2.213 6.473 -5.834 8.248 c -15.993 7.882 -24.795 7.621 -43.856 8.143 c -13.328 0.365 -17.502 -0.679 -25.8 -2.767 m 63.47 -34.401 c 2.364 -4.646 3.571 -11.275 2.464 -16.704 c -0.352 -8.091 -14.03 -7.36 -21.375 -7.308 c -11.567 0.313 -7.997 0.574 -35.909 1.723 c -3.42 10.44 -4.878 17.279 -9.707 26.936 c -6.739 13.572 -7.745 12.894 19.413 12.894 h 21.324 c 8.5 -4.437 20.671 5.481 23.789 -17.54 m -2.816 -37.17 c 4.426 -5.899 -2.515 -12.58 -5.432 -17.696 c -4.577 -8.143 -15.49 -22.394 -18.709 -24.326 c -2.515 -1.514 -4.778 -1.723 -21.475 -1.723 c -20.872 0 -28.21 0.626 -28.868 2.349 c 4.577 10.231 11.316 19 16.899 29.441 c 5.985 11.328 4.979 10.858 23.789 11.12 c 6.287 0.052 14.887 0.418 19.16 0.783 c 11.769 1.044 12.724 1.044 14.635 0.052 m -32.54 -57.42 c 0.402 -0.365 -0.503 -3.132 -2.062 -6.06 c -3.269 -6.316 -6.085 -16.652 -6.991 -25.735 c -1.01 -10.388 0.855 -9.814 -25.75 -7.987 c -12.624 0.835 -23.94 1.931 -25.25 2.401 c -2.112 0.783 -2.263 1.305 -2.263 6.734 c 0 7.83 2.213 18.17 5.13 23.804 c 4.02 7.726 3.822 7.674 15.742 7.987 c 14.585 0.418 40.486 -0.313 41.44 -1.148 m -8.148 -54.29 c 0.402 -10.701 14.283 -24.12 21.324 -35.13 c -12.925 -5.325 -30.03 -6.06 -45.868 -4.176 c -18.458 3.758 -33.24 43.953 -23.789 42.02 c 5.583 -1.096 40.788 0.992 42.4 -0.626" transform="matrix(0.07767 0 0 0.07483 1.131 1.559)" fill="#252522" stroke="#d9d9d9" stroke-width="3.1"/><g fill="#9cc3d6" stroke="#9cc3d6" transform="scale(0.08594)"><g stroke-width="3.303"><path d="m 148.45 173.41 c -19.409 -0.864 -20.682 -1.273 -23.909 -7.636 c -1.091 -2.136 -4.364 -7.818 -7.318 -12.682 c -8.227 -13.591 -10.5 -18.5 -9.227 -19.773 c 0.727 -0.727 8.227 -1.182 22.318 -1.409 c 17.545 -0.227 21.727 -0.045 24.09 1.182 c 5.773 3 24.5 30.545 24.5 36.05 c 0 5.864 1.091 5.727 -30.455 4.273"/><path d="m 100.73 119.32 c -5.364 -1.182 -9.591 -10.545 -10.864 -24.18 c -0.545 -6.182 -0.455 -6.909 1.227 -7.455 c 4 -1.273 40.36 -3.455 42.09 -2.545 c 1.227 0.636 1.909 2.636 2.409 6.545 c 0.818 7.318 3.955 18.909 6.318 23.545 l 1.864 3.682 l -7.955 0.591 c -9.727 0.773 -31.18 0.636 -35.09 -0.182"/></g><path d="m 92.86 69.864 c 1.545 -10.182 11.955 -26.773 19.364 -30.864 c 5.727 -3.182 39.773 -1.727 41.818 1.773 c 0.273 0.409 -1.136 2.909 -3.045 5.545 c -7.682 10.5 -12.955 19.227 -13.5 22.318 c -0.909 5.091 -3.045 5.545 -25.318 5.545 h -19.955" stroke-width="3.371"/><path d="m 118.41 215.73 c -0.955 -0.227 -1.727 -0.545 -1.727 -0.727 c 0 -0.136 1.636 -3.727 3.591 -7.955 c 1.955 -4.227 4.727 -11.364 6.136 -15.909 l 2.591 -8.273 l 21.05 -0.864 c 17.318 -0.727 21.636 -0.636 24.636 0.5 c 5.545 2.136 5.864 5.864 1.864 20.773 c -2.545 9.318 -3.773 10.409 -13.318 11.818 c -7.682 1.136 -41.09 1.636 -44.818 0.636" stroke-width="3.303"/></g></svg>