<svg xmlns="http://www.w3.org/2000/svg" viewBox="0 0 22 22"><path d="m 15.711 21.918 c -31.637 2.184 -7.922 -40.02 5.52 -12.23 c 1.852 4.285 0.496 10.668 -5.52 12.23" fill="#0cc79d"/><path d="m 10.383 6.672 c -1.461 -0.004 -2.445 0.684 -2.668 1.977 c -0.859 0.586 -1.922 0.57 -1.922 0.57 c -0.117 0 -0.215 0.094 -0.215 0.215 c 0 1.059 0.836 1.91 2.301 1.91 l 0.352 0.445 c -0.562 0.637 -1.398 1.676 -1.398 2.949 c 0 1.699 0.836 2.973 2.926 2.973 h 3.762 c 2.09 0 3.758 -2.973 3.758 -5.309 c 0 -0.148 -0.148 -0.25 -0.285 -0.195 c -0.344 0.137 -1.062 0.41 -1.383 0.41 c -1.254 0 -1.672 -0.852 -2.926 -0.852 h -0.402 c 0.609 -0.559 0.82 -1.273 0.82 -2.121 c 0 -2.121 -1.09 -2.965 -2.719 -2.973 m -1.043 2.125 c 0.23 0 0.418 0.188 0.418 0.422 c 0 0.234 -0.188 0.426 -0.418 0.426 c -0.23 0 -0.418 -0.191 -0.418 -0.426 c 0 -0.234 0.188 -0.422 0.418 -0.422 m -1.672 0.422 c 0 0.777 0.406 1.125 0.586 1.273 l -0.191 0.426 c -1.23 0 -1.867 -0.426 -2.066 -1.273 c 0.273 -0.008 0.965 -0.027 1.672 -0.426 m 2.926 3.82 c 1.707 0 3.34 0.672 4.01 0.855 c 0.191 0.051 0.234 0.324 0.051 0.398 l -1.137 0.445 l 0.719 0.449 c 0.16 0.098 0.164 0.398 -0.051 0.398 h -1.086 l 0.383 0.52 c 0.09 0.141 -0.008 0.332 -0.176 0.332 h -2.508 c -1.133 0 -1.879 -0.789 -1.879 -1.699 c 0 -0.977 0.66 -1.699 1.672 -1.699" fill-opacity="0.102"/><path d="m 9.969 6.25 c -1.465 -0.008 -2.449 0.68 -2.672 1.973 c -0.859 0.59 -1.922 0.574 -1.922 0.574 c -0.117 -0.004 -0.215 0.094 -0.215 0.211 c 0 1.063 0.836 1.91 2.301 1.91 l 0.352 0.445 c -0.563 0.641 -1.398 1.676 -1.398 2.949 c 0 1.699 0.836 2.973 2.926 2.973 h 3.762 c 2.09 0 3.762 -2.973 3.758 -5.305 c 0 -0.152 -0.148 -0.254 -0.285 -0.199 c -0.344 0.141 -1.059 0.41 -1.383 0.41 c -1.254 0 -1.672 -0.848 -2.926 -0.848 h -0.402 c 0.613 -0.559 0.82 -1.273 0.82 -2.125 c 0 -2.121 -1.09 -2.961 -2.715 -2.969 m -1.047 2.121 c 0.23 0 0.418 0.191 0.418 0.426 c 0 0.234 -0.188 0.422 -0.418 0.422 c -0.23 0 -0.418 -0.188 -0.418 -0.422 c 0 -0.234 0.188 -0.426 0.418 -0.426 m -1.672 0.426 c 0 0.773 0.406 1.121 0.586 1.273 l -0.191 0.422 c -1.23 0 -1.867 -0.422 -2.066 -1.273 c 0.273 -0.004 0.965 -0.027 1.672 -0.422 m 2.926 3.82 c 1.707 0 3.34 0.672 4.01 0.852 c 0.191 0.051 0.238 0.324 0.051 0.398 l -1.137 0.445 l 0.719 0.449 c 0.16 0.098 0.164 0.402 -0.051 0.402 h -1.086 l 0.383 0.52 c 0.09 0.141 -0.008 0.328 -0.176 0.328 h -2.508 c -1.133 0 -1.879 -0.785 -1.879 -1.699 c 0 -0.973 0.66 -1.695 1.672 -1.695" fill="#f9f9f9"/></svg>