<svg xmlns="http://www.w3.org/2000/svg" viewBox="0 0 22 22"><defs><linearGradient id="0" gradientUnits="userSpaceOnUse" x1="165.04" y1="-4.125" x2="164.46" y2="416.23" gradientTransform="matrix(0.15056 0 0 0.04856 -3.715 0.69)"><stop stop-color="#2020a1"/><stop offset="1" stop-color="#88c7e5"/></linearGradient></defs><path d="m 4.719 19.758 c 16.238 10.848 26.24 -23.742 5.25 -19.16 c -8.676 1.953 -13.941 14.191 -5.25 19.16" fill="#222d94"/><path d="m 0.219 11.84 c 0 5.57 4.609 10.09 10.293 10.09 c 5.684 0 9.836 -4.766 10.836 -10.246 c 0.086 -4.379 -0.41 -6.945 -2.426 -8.52 c -5.902 -4.613 -18.434 0.461 -18.703 8.676" fill="url(#0)"/><path d="m 8.953 15.203 c -5.684 0 -4.473 1.055 -8.734 -3.363 c 0 5.57 4.609 10.09 10.293 10.09 c 5.684 0 9.852 -3.883 10.879 -9.68 c -4.055 3.809 -6.754 2.953 -12.438 2.953" fill="#0b0b0b"/><g fill="#fff" fill-opacity="0.161"><path d="m 20.469 7.852 l -0.648 -0.215 l -0.547 0.398 l 0.008 -0.668 l -0.559 -0.387 l 0.652 -0.199 l 0.203 -0.641 l 0.395 0.547 l 0.684 -0.008 l -0.406 0.535"/><path d="m 6.992 9.977 l -0.766 -0.699 l -1.023 0.219 l 0.445 -0.93 l -0.531 -0.883 l 1.039 0.125 l 0.695 -0.766 l 0.199 1.01 l 0.961 0.41 l -0.918 0.496"/><path d="m 15.14 13.215 l -0.992 -0.328 l -0.84 0.613 l 0.012 -1.027 l -0.852 -0.594 l 1 -0.305 l 0.309 -0.98 l 0.605 0.84 l 1.047 -0.012 l -0.625 0.82"/><path d="m 2.871 13.465 l -0.992 -0.328 l -0.84 0.613 l 0.016 -1.027 l -0.855 -0.59 l 1 -0.305 l 0.313 -0.98 l 0.602 0.836 l 1.047 -0.012 l -0.625 0.824"/></g><g fill="#0b0b0b"><path d="m 5.367 11.457 h 6.52 v 4.793 h -6.52"/><path d="m 4.766 12.805 h 7.633 v 1.176 h -7.633"/><path d="m 4.828 11.574 c 0 -1.953 1.703 -3.539 3.809 -3.539 c 2.105 0 3.809 1.586 3.809 3.539 c 0 0.012 0 0.023 0 0.031 l -3.809 -0.031"/><path d="m 14.13 5.02 l 2.047 2.555 l -4.301 2.781 l -1.523 -1.902"/></g></svg>