<svg xmlns="http://www.w3.org/2000/svg" viewBox="0 0 22 22"><path d="m 13.496 0.371 c 20.441 4.258 -1.504 33.543 -11.895 15.949 c -4.453 -6.832 1.383 -18.14 11.895 -15.949" fill="#a693ab"/><g fill="#e2dbe3"><g fill-opacity="0.937"><path d="m 11.07 19.273 l -4.02 -4.695 l 3.937 -0.031 l 3.938 -0.027 l -1.93 2.375"/><path d="m 8.48 8.05 h 5.273 v 6.699 h -5.273"/></g><path d="m 187.32 91.72 c 0 25.451 -18.832 46.08 -42.06 46.08 c -23.265 0 -42.1 -20.626 -42.1 -46.08 c 0 -25.451 18.832 -46.08 42.1 -46.08 c 23.23 0 42.06 20.626 42.06 46.08" transform="matrix(0.1172 0 0 0.09715 -6.05 -0.794)" fill-rule="evenodd" stroke="#edd6f4"/></g></svg>