<svg xmlns="http://www.w3.org/2000/svg" xmlns:xlink="http://www.w3.org/1999/xlink" viewBox="0 0 22 22"><defs><g id="6" clip-path="url(#5)"><path d="m 16.06 9.32 c 0 0.246 -0.191 0.445 -0.426 0.445 c -0.234 0 -0.426 -0.199 -0.426 -0.445 c 0 -0.246 0.191 -0.445 0.426 -0.445 c 0.234 0 0.426 0.199 0.426 0.445" fill="url(#4)"/></g><clipPath id="5"><path d="M 0,0 H22 V22 H0 z"/></clipPath><filter id="2" filterUnits="objectBoundingBox" x="0" y="0" width="22" height="22"><feColorMatrix type="matrix" in="SourceGraphic" values="0 0 0 0 1 0 0 0 0 1 0 0 0 0 1 0 0 0 1 0"/></filter><mask id="3"><g filter="url(#2)"><path fill-opacity="0.8" d="M 0,0 H22 V22 H0 z"/></g></mask><radialGradient id="F" gradientUnits="userSpaceOnUse" cx="74" cy="34" r="2" gradientTransform="matrix(0.07096 0 0 0.07428 8.683 3.822)" xlink:href="#4"/><radialGradient id="E" gradientUnits="userSpaceOnUse" cx="74" cy="34" r="2" gradientTransform="matrix(0.07096 0 0 0.07428 1.871 3.525)" xlink:href="#4"/><radialGradient id="D" gradientUnits="userSpaceOnUse" cx="74" cy="34" r="2" gradientTransform="matrix(0.07096 0 0 0.07428 1.02 7.982)" xlink:href="#4"/><radialGradient id="I" gradientUnits="userSpaceOnUse" cx="74" cy="34" r="2" gradientTransform="matrix(0.21287 0 0 0.22286 -0.967 -1.526)" xlink:href="#4"/><radialGradient id="G" gradientUnits="userSpaceOnUse" cx="74" cy="34" r="2" gradientTransform="matrix(0.07096 0 0 0.07428 7.831 7.982)" xlink:href="#4"/><radialGradient id="H" gradientUnits="userSpaceOnUse" cx="74" cy="34" r="2" gradientTransform="matrix(0.21287 0 0 0.22286 -1.819 0.257)" xlink:href="#4"/><radialGradient id="C" gradientUnits="userSpaceOnUse" cx="74" cy="34" r="2" gradientTransform="matrix(0.07096 0 0 0.07428 2.723 9.765)" xlink:href="#4"/><radialGradient id="A" gradientUnits="userSpaceOnUse" cx="74" cy="34" r="2" gradientTransform="matrix(0.10643 0 0 0.11143 -1.393 6.05)" xlink:href="#4"/><radialGradient id="0" gradientUnits="userSpaceOnUse" cx="80" cy="64" r="42" gradientTransform="matrix(0.37843 0 0 0.22639 -14.78 -1.158)"><stop stop-color="#fbe3ca"/><stop offset="0.237" stop-color="#f5c89f"/><stop offset="0.448" stop-color="#9c7d87"/><stop offset="0.75" stop-color="#3d3573"/><stop offset="1" stop-color="#20164f"/></radialGradient><radialGradient id="1" gradientUnits="userSpaceOnUse" cx="51.51" cy="25.675" r="32" gradientTransform="matrix(0.09161 0.09439 -0.09613 0.09905 8.845 4.493)"><stop stop-color="#392f6a" stop-opacity="0"/><stop offset="0.549" stop-color="#665485" stop-opacity="0.227"/><stop offset="0.8" stop-color="#d4c6d4"/><stop offset="1" stop-color="#fff"/></radialGradient><radialGradient id="B" gradientUnits="userSpaceOnUse" cx="74" cy="34" r="2" gradientTransform="matrix(0.10643 0 0 0.11143 -0.541 7.982)" xlink:href="#4"/><radialGradient id="4" gradientUnits="userSpaceOnUse" cx="74" cy="34" r="2" gradientTransform="matrix(0.21287 0 0 0.22286 -0.116 1.742)"><stop stop-color="#fff"/><stop offset="0.25" stop-color="#fff"/><stop offset="0.5" stop-color="#fff" stop-opacity="0.392"/><stop offset="0.75" stop-color="#fff" stop-opacity="0.118"/><stop offset="1" stop-color="#fff" stop-opacity="0"/></radialGradient><radialGradient id="7" gradientUnits="userSpaceOnUse" cx="74" cy="34" r="2" gradientTransform="matrix(0.21287 0 0 0.22286 -9.482 -0.635)" xlink:href="#4"/><radialGradient id="J" gradientUnits="userSpaceOnUse" cx="74" cy="34" r="2" gradientTransform="matrix(0.10643 0 0 0.11143 4.993 1.891)" xlink:href="#4"/><radialGradient id="8" gradientUnits="userSpaceOnUse" cx="74" cy="34" r="2" gradientTransform="matrix(0.10643 0 0 0.11143 8.115 3.377)" xlink:href="#4"/><radialGradient id="9" gradientUnits="userSpaceOnUse" cx="74" cy="34" r="2" gradientTransform="matrix(0.07096 0 0 0.07428 11.237 7.091)" xlink:href="#4"/></defs><path d="m 19.441 18.18 c 5.352 -8.23 1.035 -15.727 -5.03 -17.504 c -8.148 -2.395 -19.211 3.895 -11.922 16.852 c 2.898 5.148 13.14 6.512 16.949 0.652" fill="#473d8b"/><path d="m 4.992 4.715 h 11.922 v 12.48 h -11.922" fill="url(#0)"/><path d="m 15.05 12.957 c 0 1.641 -1.27 2.973 -2.836 2.973 c -1.57 0 -2.84 -1.332 -2.84 -2.973 c 0 -1.641 1.27 -2.973 2.84 -2.973 c 1.566 0 2.836 1.332 2.836 2.973" fill="url(#1)"/><use xlink:href="#6" mask="url(#3)"/><path d="m 6.695 6.941 c 0 0.246 -0.191 0.445 -0.426 0.445 c -0.234 0 -0.426 -0.199 -0.426 -0.445 c 0 -0.246 0.191 -0.445 0.426 -0.445 c 0.234 0 0.426 0.199 0.426 0.445" fill="url(#7)"/><path d="m 16.203 7.164 c 0 0.125 -0.094 0.223 -0.211 0.223 c -0.117 0 -0.215 -0.098 -0.215 -0.223 c 0 -0.121 0.098 -0.223 0.215 -0.223 c 0.117 0 0.211 0.102 0.211 0.223" fill="url(#8)"/><path d="m 16.629 9.617 c 0 0.082 -0.063 0.148 -0.141 0.148 c -0.078 0 -0.141 -0.066 -0.141 -0.148 c 0 -0.082 0.063 -0.148 0.141 -0.148 c 0.078 0 0.141 0.066 0.141 0.148" fill="url(#9)"/><path d="m 6.695 9.84 c 0 0.121 -0.094 0.223 -0.211 0.223 c -0.117 0 -0.215 -0.102 -0.215 -0.223 c 0 -0.125 0.098 -0.223 0.215 -0.223 c 0.117 0 0.211 0.098 0.211 0.223" fill="url(#A)"/><path d="m 7.547 11.77 c 0 0.125 -0.094 0.223 -0.211 0.223 c -0.117 0 -0.215 -0.098 -0.215 -0.223 c 0 -0.121 0.098 -0.223 0.215 -0.223 c 0.117 0 0.211 0.102 0.211 0.223" fill="url(#B)"/><path d="m 8.113 12.289 c 0 0.082 -0.063 0.152 -0.141 0.152 c -0.078 0 -0.141 -0.07 -0.141 -0.152 c 0 -0.082 0.063 -0.148 0.141 -0.148 c 0.078 0 0.141 0.066 0.141 0.148" fill="url(#C)"/><path d="m 6.414 10.508 c 0 0.082 -0.066 0.148 -0.145 0.148 c -0.078 0 -0.141 -0.066 -0.141 -0.148 c 0 -0.082 0.063 -0.148 0.141 -0.148 c 0.078 0 0.145 0.066 0.145 0.148" fill="url(#D)"/><path d="m 7.266 6.05 c 0 0.082 -0.066 0.148 -0.145 0.148 c -0.078 0 -0.141 -0.066 -0.141 -0.148 c 0 -0.082 0.063 -0.148 0.141 -0.148 c 0.078 0 0.145 0.066 0.145 0.148" fill="url(#E)"/><path d="m 14.07 6.348 c 0 0.082 -0.063 0.148 -0.141 0.148 c -0.078 0 -0.141 -0.066 -0.141 -0.148 c 0 -0.082 0.063 -0.148 0.141 -0.148 c 0.078 0 0.141 0.066 0.141 0.148" fill="url(#F)"/><path d="m 13.223 10.508 c 0 0.082 -0.063 0.148 -0.141 0.148 c -0.078 0 -0.141 -0.066 -0.141 -0.148 c 0 -0.082 0.063 -0.148 0.141 -0.148 c 0.078 0 0.141 0.066 0.141 0.148" fill="url(#G)"/><path d="m 14.359 7.832 c 0 0.246 -0.191 0.449 -0.426 0.449 c -0.234 0 -0.426 -0.203 -0.426 -0.449 c 0 -0.246 0.191 -0.445 0.426 -0.445 c 0.234 0 0.426 0.199 0.426 0.445" fill="url(#H)"/><path d="m 15.211 6.05 c 0 0.246 -0.191 0.445 -0.426 0.445 c -0.234 0 -0.426 -0.199 -0.426 -0.445 c 0 -0.246 0.191 -0.445 0.426 -0.445 c 0.234 0 0.426 0.199 0.426 0.445" fill="url(#I)"/><path d="m 13.08 5.68 c 0 0.121 -0.094 0.223 -0.211 0.223 c -0.121 0 -0.215 -0.102 -0.215 -0.223 c 0 -0.125 0.094 -0.223 0.215 -0.223 c 0.117 0 0.211 0.098 0.211 0.223" fill="url(#J)"/></svg>