<svg xmlns="http://www.w3.org/2000/svg" xmlns:xlink="http://www.w3.org/1999/xlink" viewBox="0 0 22 22"><defs><g id="3" clip-path="url(#2)"><path d="m 7.246 15.12 c 0 0 -1.02 -2.859 -1.086 -4.34 c -0.047 -1.133 0.543 -3.371 0.543 -3.371 c 0 0 1.508 -2.023 2.707 -2.41 c 1.875 -0.605 4.191 -0.344 5.953 0.48 c 1.25 0.582 2.707 2.891 2.707 2.891 v 3.375 l -2.707 6.266 h -4.328" fill-rule="evenodd"/><path d="m 11.57 18.01 l 0.539 -1.926 l 2.711 -3.375 h 2.164 l 0.543 1.445 l -1.082 3.855" fill-rule="evenodd"/></g><clipPath id="2"><path d="M 0,0 H22 V22 H0 z"/></clipPath><filter id="0" filterUnits="objectBoundingBox" x="0" y="0" width="22" height="22"><feColorMatrix type="matrix" in="SourceGraphic" values="0 0 0 0 1 0 0 0 0 1 0 0 0 0 1 0 0 0 1 0"/></filter><mask id="1"><g filter="url(#0)"><path fill-opacity="0.102" d="M 0,0 H22 V22 H0 z"/></g></mask></defs><path d="m 3.418 3.953 c 12.176 -9.438 19.648 0.488 18.375 8.852 c -1.035 6.781 -5.742 12.602 -15.66 6.219 c -5.27 -3.395 -8.641 -10.477 -2.715 -15.07" fill="#ffce09"/><use xlink:href="#3" mask="url(#1)"/><g fill-rule="evenodd"><path d="m 6.703 14.637 c 0 0 -1.02 -2.859 -1.082 -4.34 c -0.051 -1.137 0.539 -3.375 0.539 -3.375 c 0 0 1.508 -2.023 2.707 -2.41 c 1.875 -0.602 4.191 -0.34 5.957 0.484 c 1.246 0.582 2.707 2.891 2.707 2.891 v 3.375 l -2.707 6.266 h -4.332" fill="#93aba6"/><path d="m 11.11 4.184 c -0.773 -0.004 -1.539 0.102 -2.242 0.328 c -1.199 0.387 -2.707 2.41 -2.707 2.41 c 0 0 -0.59 2.238 -0.543 3.375 c 0.066 1.48 1.086 4.34 1.086 4.34 l 2.066 1.574 c 0 0 -0.531 -6.68 0.637 -9.77 c 0.324 -0.859 1.703 -2.258 1.703 -2.258" fill="#f9f9f9" fill-opacity="0.2"/><path d="m 7.238 10.777 l 4.063 0.727 l 2.027 0.359 l 2.031 0.363 l 1.082 -0.484 l 1.082 -0.48 l 0.004 -1.445 l -1.629 0.48 l -5.684 -1.688" fill="#6f9089"/><path d="m 9.949 9.816 l 0.543 0.961 l 3.824 0.559 l -0.039 -1.039" fill="#56dfff"/><path d="m 6.703 14.637 l 0.539 -3.859 l 1.625 2.895 l 4.328 0.965 l -2.707 2.891" fill="#536b67"/><path d="m 9.945 8.852 l 4.332 0.48 h 3.242 v -1.445 l -0.539 0.48 h -2.707 l -4.059 -0.723 l -2.437 0.242 l -1.01 -1.707 l -0.617 0.742 l 1.082 2.895" fill="#6f9089"/><path d="m 9.945 9.816 l 4.332 0.48 h 1.621 l 1.625 -0.48 l -0.004 -1.449 l -0.539 0.965 h -2.711 l -4.059 -0.723 l -2.977 0.242 l -1.082 -1.93 l -0.328 1.461 l 1.41 2.395" fill="#536b67"/><path d="m 11.11 4.184 c -0.051 0 3.039 1.805 3.711 3.223 c 1.473 3.109 0 10.121 0 10.121 l 2.707 -6.266 v -3.375 c 0 0 -1.461 -2.309 -2.707 -2.891 c -1.102 -0.516 -2.422 -0.813 -3.711 -0.813" fill-opacity="0.302"/><path d="m 17.531 9.816 l -0.004 0.961 l -1.625 0.484 l 0.004 -0.965" fill="#56dfff"/><path d="m 10.488 17.527 l 0.539 -1.93 l 2.703 -3.371 h 2.168 l 0.539 1.445 l -5.41 3.855" fill="#6f9089"/><path d="m 11.03 17.527 l 0.539 -1.93 l 2.711 -3.371 h 2.168 l 0.539 1.445 l -1.082 3.855" fill="#536b67"/></g></svg>