<svg xmlns="http://www.w3.org/2000/svg" viewBox="0 0 22 22"><defs><radialGradient id="0" gradientUnits="userSpaceOnUse" cx="24.637" cy="12.294" r="12.48" gradientTransform="matrix(0.63499 0.01816 -0.02032 0.6187 -4.402 3.054)"><stop stop-color="#4bfd4b" stop-opacity="0.251"/><stop offset="1" stop-color="#4bfd4b" stop-opacity="0.086"/></radialGradient><radialGradient id="1" gradientUnits="userSpaceOnUse" cx="27" cy="20.991" r="8.67" gradientTransform="matrix(0.42605 0.00514 -0.006 0.43259 -0.101 1.661)"><stop stop-color="#4bfd4b" stop-opacity="0.251"/><stop offset="1" stop-color="#4bfd4b" stop-opacity="0.187"/></radialGradient></defs><path d="m 4.543 19.855 c 16.539 10.996 26.727 -24.07 5.348 -19.43 c -8.836 1.98 -14.199 14.387 -5.348 19.43" fill="#2f4e4e"/><path d="m 15.891 16.445 l -1.523 -2.098 l 1.387 2.281 l -2.293 -2.391 l 1.402 2.984 l -1.742 -2.52 l 0.805 2.703 l -1.352 -2.711 l 0.539 3.039 l -0.809 -2.465 l -0.273 2.715 l -0.844 -2.656 l 0.094 2.668 l -0.199 -3.113 l -1.02 3.094 l 0.234 -3.137 l -1.395 2.695 l 0.531 -2.711 l -1 2.871 l 0.734 -2.719 l -2.121 1.84 l 1.961 -2.352 l -2.574 2.156 l 1.719 -2.477 l -2.078 1.531 l 1.902 -1.59 l -2.871 1.063 l 2.133 -1.887 l -2.461 1.422 l 2.297 -1.488 l -2.805 0.75 l 2.945 -1.32 l -3.352 -0.039 l 2.953 -1.012 l -2.684 0.813 l 2.602 -1.375 l -2.766 0.066 l 2.926 -0.215 l -3.309 -0.211 l 3.262 -0.547 l -3.098 -0.75 l 3.477 0.594 l -2.781 -1.469 l 2.824 0.469 l -3.133 -1.437 l 2.816 1.25 l -2.141 -1.949 l 2.68 1.586 l -2.09 -2.289 l 2.656 1.527 l -1.836 -2.082 l 1.977 1.965 l -1.344 -2.582 l 2.215 2.445 l -1.063 -2.602 l 1.742 2.52 l -1.07 -3.199 l 1.313 2.445 l -0.496 -2.715 l 0.922 2.594 l 0.313 -2.453 l 0.387 2.711 l 0.32 -3.105 l 0.203 3.234 l 0.82 -3.168 l -0.492 3.281 l 1.242 -2.523 l -0.117 2.332 l 1.086 -2.16 l -0.734 2.723 l 1.324 -2.23 l -1.164 2.035 l 2.574 -1.512 l -1.762 2.148 l 2.078 -2.156 l -1.602 2.41 l 2.57 -1.254 l -2.547 1.621 l 2.918 -0.832 l -2.793 1.199 l 3.219 -0.484 l -2.566 1.461 l 2.969 -0.664 l -2.867 0.895 l 3.137 -0.227 l -3.129 0.469 l 3.305 0.25 l -3.082 0.543 l 2.707 0.66 l -3 -0.285 l 3.199 1.375 l -3.289 -0.664 l 2.441 1.01 l -2.406 -0.125 l 2.043 1.195 l -2.52 -1.352 l 2.594 1.895 l -2.758 -0.813 l 2.168 1.609 l -3.113 -1.551" fill="url(#0)"/><path d="m 15.14 11.598 l -1.656 -0.047 l 1.488 0.758 l -1.109 -0.039 l 0.957 0.141 l -1.648 -0.43 l 1.418 1.121 l -1.035 -0.371 l 0.758 0.836 l -1.375 -0.555 l 0.969 0.922 l -1.406 -1.02 l 0.723 1.01 l -0.734 -0.984 l 0.242 1.352 l -0.477 -1.094 l 0.285 1.023 l -0.824 -0.91 l 0.531 1.359 l -0.422 -1.297 l -0.48 1.395 l 0.09 -1.352 l -0.227 0.813 l -0.203 -0.891 l -0.781 1.324 l 0.344 -1.109 l -0.762 0.762 l 0.559 -1.313 l -0.918 1.426 l 0.859 -1.098 l -0.84 0.27 l 0.277 -0.379 l -0.949 0.152 l 1.023 -0.863 l -1.344 0.715 l 0.52 -0.773 l -0.91 0.582 l 1 -0.473 l -0.891 0.234 l 0.625 -0.832 l -1.238 0.191 l 0.867 -0.238 l -0.77 -0.016 l 1.258 -0.656 l -1.434 0.059 l 1 -0.223 l -1.238 -0.434 l 1.074 -0.148 l -0.617 -0.145 l 0.676 -0.254 l -1 -0.285 l 1.238 0.492 l -0.715 -0.621 l 0.754 0.09 l -0.941 -0.578 l 1.605 0.102 l -1.031 -0.27 l 0.648 0.293 l -0.719 -1.203 l 1.293 1.242 l -0.586 -0.922 l 1.105 0.313 l -0.723 -1.07 l 0.277 1.039 l 0.219 -0.691 l 0.434 0.828 l -0.242 -1.41 l 0.363 0.969 l -0.113 -1.094 l 0.465 0.973 l 0.059 -1.074 l 0.332 1.031 l 0.184 -1.121 l 0.246 1.297 l 0.781 -1.344 l -0.047 1.734 l 0.461 -1.523 l -0.598 0.984 l 0.496 -0.273 l -0.055 0.715 l 0.844 -0.977 l -0.664 1.027 l 0.574 -0.863 l 0.113 0.922 l 0.625 -0.449 l -0.52 0.777 l 0.91 -0.586 l -1 1.188 l 1.191 -0.832 l -0.941 1.156 l 1.25 -0.633 l -0.875 0.742 l 1.113 -0.23 l -1.602 0.191 l 1.773 0.344 l -1.383 0.141 l 0.863 0.512 l -0.656 -0.313 l 0.914 0.262 l -0.973 0.195" fill="url(#1)"/><path d="m 11.609 6.06 l -0.758 0.531 l -0.57 0.883 l 0.379 0.883 l -0.758 1.238 l 1.137 6.188 h 0.949 l 0.566 -6.715 l -0.188 -0.711 l 0.188 -0.352 l 0.191 -1.238" fill="#3d3d3d" fill-rule="evenodd"/></svg>