<svg xmlns="http://www.w3.org/2000/svg" viewBox="0 0 22 22"><path d="m 2.266 5.344 c -7.91 11.137 6.699 22.418 16.02 13.348 c 8.781 -8.551 0.641 -21.832 -10.285 -17.68 c -2.281 0.867 -4.281 2.289 -5.734 4.332" fill="#fa4646"/><g fill="#fff"><path d="m 14.188 8.973 c 0.008 -0.223 -0.016 -0.375 -0.105 -0.473 c -0.078 -0.102 -0.219 -0.145 -0.445 -0.145 h -0.387 l -0.234 1.23 c 0.453 -0.176 0.938 -0.23 1.387 -0.23 c 0.699 0 1.527 0.176 1.891 0.75 c 0.41 0.625 0.281 1.582 0.129 2.375 c -0.176 0.914 -0.383 1.957 -1.176 2.66 c -0.777 0.695 -1.844 0.883 -2.75 0.883 c -1.313 0 -2.375 -0.289 -3.289 -1.09 l 0.508 -2.664 h 2.789 l -0.203 1.059 c -0.008 0.043 -0.145 0.648 0.371 0.648 c 0.637 0 0.715 -0.629 0.852 -1.363 c 0.121 -0.629 0.305 -1.367 -0.297 -1.367 c -0.516 0 -0.594 0.41 -0.605 0.41 h -2.785 l 1 -5.25 h 6.555 l -0.492 2.566 h -2.711"/><path d="m 8.465 13.238 c -0.066 0.352 -0.164 0.703 0.137 0.926 l -0.32 1.672 h -3.496 l 0.32 -1.672 c 0.387 -0.223 0.422 -0.574 0.488 -0.926 l 0.809 -4.234 c 0.066 -0.352 0.164 -0.703 -0.137 -0.926 l 0.32 -1.672 h 3.184 l -1.305 6.832"/></g></svg>