<svg xmlns="http://www.w3.org/2000/svg" viewBox="0 0 22 22"><path d="m 16.203 1.898 c -7.902 -5.918 -17.555 3.555 -15.879 11.184 c 0.984 7.516 12.406 12.05 18.207 6.238 c 4.176 -4.25 5.574 -11.5 -2.328 -17.422" fill="#536c78"/><path d="m 6.785 16.477 c -0.383 0.164 -0.957 -0.234 -0.52 -0.535 c 0.547 -0.383 1.297 -0.25 1.93 -0.359 c 0.508 -0.02 1.145 -0.023 1.375 -0.555 c 0.293 -0.352 0.703 -1.215 -0.008 -1.281 c -0.293 0.277 -0.492 0.949 -1.047 0.906 c -0.293 0.289 -0.859 0.242 -1.254 0.441 c -0.469 0.305 -0.426 -0.539 -0.016 -0.617 c 0.426 -0.094 0.777 -0.223 1.195 -0.406 c 0.414 -0.117 0.59 -0.992 -0.016 -0.723 c -0.238 0.379 -1.078 0.555 -0.938 -0.039 c 0.176 -0.508 0.73 -0.734 0.977 -1.16 c 0.238 -0.336 0.57 -0.574 0.715 -0.938 c 0.305 -0.637 -0.574 -0.398 -0.926 -0.523 c -0.363 0.031 -1.102 -0.535 -1.215 -0.031 c 0.289 0.383 0.84 0.402 1.172 0.727 c 0.57 0.141 -0.145 0.777 -0.434 0.313 c -0.207 -0.156 -0.855 -0.309 -0.734 0.133 c 0.086 0.27 0.008 0.539 -0.352 0.445 c -0.426 -0.113 -0.457 -0.734 -0.582 -1.117 c -0.094 -0.504 -0.289 -0.945 -0.27 -1.488 c 0.148 -0.512 0.078 -1.168 0.473 -1.602 c 0.234 -0.477 1.094 0.133 0.762 0.508 c 0.027 0.457 0.777 0.527 1.184 0.555 c 0.438 -0.066 1.156 0.797 0.359 0.68 c -0.27 0.086 -0.926 -0.234 -0.965 0.008 c 0.387 0.18 0.711 0.293 1.117 0.414 c 0.359 0.195 0.91 0.305 0.898 -0.289 c 0.176 -0.43 0 -0.945 -0.324 -1.188 c -0.535 -0.133 -1.016 0.199 -1.543 0.047 c -0.539 -0.199 -0.355 -1.109 -0.297 -1.5 c 0.184 -0.473 0.703 -0.578 1.176 -0.629 c 0.598 -0.074 1.199 -0.055 1.797 -0.074 c 0.363 -0.258 1.113 0.348 0.527 0.598 c -0.781 0.07 -1.594 -0.07 -2.355 0.156 c -0.418 0.078 -0.551 0.91 0.059 0.664 c 0.539 0.066 1.07 -0.348 1.598 -0.09 c 0.266 0.383 0.043 0.938 0.113 1.391 c -0.129 0.48 -0.215 1.035 -0.438 1.477 c -0.004 0.41 -0.348 0.777 -0.5 1.191 c -0.438 0.473 0.176 0.875 0.629 0.941 c 0.621 0.059 1.301 0.191 1.898 -0.02 c 0.57 -0.117 1.141 -0.328 1.688 -0.465 c 0.34 0.184 0.324 0.867 -0.145 0.906 c -0.613 0.215 0.227 0.668 0.52 0.77 c 0.477 0.18 1.121 0.059 1.48 0.445 c -0.379 0.184 -0.75 0.539 -1.258 0.285 c -0.547 -0.043 -1.086 -0.211 -1.516 -0.555 c -0.059 -0.332 -0.719 -0.906 -0.715 -0.258 c 0.148 0.445 0.063 1.035 0.48 1.352 c 0.883 0.32 1.836 0.105 2.742 0.25 c 0.535 -0.051 0.73 0.438 0.258 0.695 c -0.59 0.066 -1.172 -0.141 -1.773 -0.078 c -0.551 -0.016 -1.051 -0.016 -1.563 -0.066 c -0.594 0.098 -1.188 -0.168 -1.789 -0.023 c -0.867 0.066 -1.738 0.047 -2.605 0.094 c -0.316 0.145 -0.688 0.184 -1.027 0.219 m 4.137 -1.09 c 0.309 -0.008 0.766 0.125 0.57 -0.348 c -0.164 -0.391 -0.055 -1.137 -0.605 -1.207 c -0.352 0.414 -0.387 1.035 -0.645 1.52 c 0.219 0.074 0.453 0.016 0.68 0.035 m 4.367 -2.602 c -0.504 0.055 -0.363 -0.715 -0.762 -0.91 c -0.449 -0.047 -0.852 0.25 -1.297 0.246 c -0.406 0.102 -0.871 0.133 -1.348 0.164 c -0.508 0.121 -1.18 -0.129 -1.363 -0.504 c 0.516 -0.25 1.125 -0.23 1.684 -0.328 c 0.586 -0.066 1.152 -0.137 1.707 -0.316 c 0.473 -0.41 -0.504 -0.277 -0.742 -0.281 c -0.781 0.012 -1.555 0.16 -2.34 0.164 c -0.359 -0.43 0.375 -0.598 0.699 -0.629 c 0.59 -0.082 1.172 -0.234 1.773 -0.199 c 0.453 -0.016 0.922 0.066 1.363 -0.031 c 0.227 -0.488 -0.664 -0.203 -0.945 -0.242 c -0.602 -0.039 -1.215 -0.086 -1.816 -0.035 c -0.387 0.051 -0.895 0.375 -1.215 0.063 c -0.422 -0.313 -0.09 -1.051 0.445 -0.828 c 0.457 0.082 0.688 -0.098 1.133 -0.07 c 0.184 -0.039 0.461 0.086 0.574 -0.078 c -0.098 -0.645 0.492 -0.957 0.984 -1.215 c 0.414 -0.457 -0.555 -0.379 -0.816 -0.305 c -0.621 -0.086 -0.477 0.625 -0.766 0.934 c -0.195 0.219 -0.535 0.43 -0.426 -0.027 c -0.02 -0.742 -0.035 -1.488 -0.051 -2.23 c 0.109 -0.395 0.621 -0.992 0.973 -0.43 c 0.281 0.328 -0.402 1.023 0.363 0.914 c 0.457 0.063 0.898 -0.141 1.332 -0.133 c 0.59 0.086 0.516 0.703 0.379 1.121 c -0.035 0.434 -0.23 0.988 -0.785 0.953 c -0.586 0.129 -0.207 0.727 0.25 0.664 c 0.445 -0.066 0.957 -0.051 1.035 0.484 c 0.316 0.582 -0.289 1.207 -0.066 1.773 c -0.027 0.445 0.484 0.793 0.402 1.203 c -0.098 0.082 -0.234 0.109 -0.359 0.109" fill="#f83f42"/></svg>