<svg xmlns="http://www.w3.org/2000/svg" viewBox="0 0 22 22"><path d="m 19.441 18.18 c 5.352 -8.23 1.035 -15.727 -5.03 -17.504 c -8.148 -2.395 -19.211 3.895 -11.922 16.852 c 2.898 5.148 13.14 6.512 16.949 0.652" fill="#7f7f00"/><path d="m 8.141 15.996 c -0.086 -0.02 -0.156 -0.098 -0.156 -0.172 c 0 -0.07 -0.074 -0.148 -0.168 -0.172 c -0.238 -0.063 -0.27 -0.258 -0.27 -1.738 l -0.004 -1.32 h -0.992 c -1.148 0 -1.359 -0.039 -1.418 -0.266 c -0.023 -0.09 -0.105 -0.164 -0.18 -0.164 c -0.324 0 -0.289 -1.156 0.039 -1.242 c 0.109 -0.027 0.176 -0.109 0.164 -0.203 c -0.035 -0.328 0.012 -0.449 0.184 -0.504 c 0.102 -0.031 0.176 -0.121 0.168 -0.203 c -0.031 -0.316 0.016 -0.438 0.188 -0.488 c 0.098 -0.031 0.172 -0.125 0.164 -0.203 c -0.031 -0.316 0.016 -0.438 0.184 -0.488 c 0.094 -0.031 0.168 -0.121 0.16 -0.203 c -0.023 -0.313 0.023 -0.43 0.199 -0.473 c 0.113 -0.031 0.176 -0.109 0.168 -0.207 c -0.035 -0.328 0.008 -0.441 0.188 -0.488 c 0.109 -0.027 0.176 -0.109 0.164 -0.203 c -0.035 -0.328 0.012 -0.441 0.188 -0.488 c 0.109 -0.027 0.176 -0.109 0.168 -0.203 c -0.035 -0.328 0.008 -0.441 0.18 -0.488 c 0.098 -0.023 0.176 -0.102 0.176 -0.172 c 0 -0.07 0.09 -0.152 0.199 -0.18 c 0.258 -0.066 6.934 -0.066 7.191 0 c 0.109 0.027 0.199 0.109 0.199 0.18 c 0 0.07 0.078 0.148 0.168 0.172 c 0.094 0.023 0.191 0.125 0.223 0.23 c 0.066 0.242 0.066 8.867 0 9.113 c -0.031 0.102 -0.129 0.207 -0.223 0.23 c -0.09 0.023 -0.168 0.102 -0.168 0.172 c 0 0.07 -0.09 0.148 -0.199 0.18 c -0.227 0.059 -6.648 0.055 -6.883 -0.008 m 0.949 -1.496 c 0 -0.289 -0.016 -0.305 -0.309 -0.305 c -0.258 0 -0.316 0.035 -0.34 0.203 c -0.051 0.344 0.047 0.461 0.359 0.43 c 0.266 -0.023 0.289 -0.051 0.289 -0.328 m 1.059 0 c 0 -0.289 -0.016 -0.305 -0.309 -0.305 c -0.258 0 -0.316 0.035 -0.34 0.203 c -0.051 0.344 0.047 0.461 0.359 0.43 c 0.266 -0.023 0.289 -0.051 0.289 -0.328 m 1.059 0 c 0 -0.289 -0.016 -0.305 -0.309 -0.305 c -0.258 0 -0.313 0.035 -0.34 0.203 c -0.047 0.344 0.047 0.461 0.359 0.43 c 0.266 -0.023 0.289 -0.051 0.289 -0.328 m 1.059 0 c 0 -0.289 -0.016 -0.305 -0.309 -0.305 c -0.254 0 -0.313 0.035 -0.336 0.203 c -0.051 0.344 0.043 0.461 0.359 0.43 c 0.262 -0.023 0.285 -0.051 0.285 -0.328 m 1.059 0 c 0 -0.289 -0.012 -0.305 -0.309 -0.305 c -0.254 0 -0.313 0.035 -0.336 0.203 c -0.051 0.344 0.047 0.461 0.359 0.43 c 0.262 -0.023 0.285 -0.051 0.285 -0.328 m 1.063 0 c 0 -0.289 -0.016 -0.305 -0.313 -0.305 c -0.254 0 -0.313 0.035 -0.336 0.203 c -0.051 0.344 0.047 0.461 0.359 0.43 c 0.266 -0.023 0.289 -0.051 0.289 -0.328 m -5.297 -1.039 c 0 -0.289 -0.016 -0.305 -0.309 -0.305 c -0.258 0 -0.316 0.035 -0.34 0.203 c -0.051 0.344 0.047 0.461 0.359 0.43 c 0.266 -0.023 0.289 -0.051 0.289 -0.328 m 1.059 0 c 0 -0.289 -0.016 -0.305 -0.309 -0.305 c -0.258 0 -0.316 0.035 -0.34 0.203 c -0.051 0.344 0.047 0.461 0.359 0.43 c 0.266 -0.023 0.289 -0.051 0.289 -0.328 m 1.059 0 c 0 -0.289 -0.016 -0.305 -0.309 -0.305 c -0.258 0 -0.313 0.035 -0.34 0.203 c -0.047 0.344 0.047 0.461 0.359 0.43 c 0.266 -0.023 0.289 -0.051 0.289 -0.328 m 1.059 0 c 0 -0.289 -0.016 -0.305 -0.309 -0.305 c -0.254 0 -0.313 0.035 -0.336 0.203 c -0.051 0.344 0.043 0.461 0.359 0.43 c 0.262 -0.023 0.285 -0.051 0.285 -0.328 m 1.059 0 c 0 -0.289 -0.012 -0.305 -0.309 -0.305 c -0.254 0 -0.313 0.035 -0.336 0.203 c -0.051 0.344 0.047 0.461 0.359 0.43 c 0.262 -0.023 0.285 -0.051 0.285 -0.328 m 1.063 0 c 0 -0.289 -0.016 -0.305 -0.313 -0.305 c -0.254 0 -0.313 0.035 -0.336 0.203 c -0.051 0.344 0.047 0.461 0.359 0.43 c 0.266 -0.023 0.289 -0.051 0.289 -0.328 m -5.297 -0.781 c 0.031 -0.051 -0.09 -0.086 -0.309 -0.086 c -0.223 0 -0.344 0.035 -0.313 0.086 c 0.031 0.051 0.172 0.09 0.313 0.09 c 0.137 0 0.277 -0.039 0.309 -0.09 m 1.059 0 c 0.031 -0.051 -0.09 -0.086 -0.309 -0.086 c -0.223 0 -0.344 0.035 -0.309 0.086 c 0.027 0.051 0.168 0.09 0.309 0.09 c 0.141 0 0.277 -0.039 0.309 -0.09 m 1.059 0 c 0.031 -0.051 -0.09 -0.086 -0.309 -0.086 c -0.219 0 -0.344 0.035 -0.309 0.086 c 0.031 0.051 0.168 0.09 0.309 0.09 c 0.141 0 0.277 -0.039 0.309 -0.09 m 1.09 -0.203 c 0.016 -0.137 -0.012 -0.285 -0.059 -0.332 c -0.164 -0.164 -0.711 0.344 -0.586 0.547 c 0.031 0.047 0.184 0.074 0.336 0.059 c 0.234 -0.02 0.281 -0.066 0.309 -0.273 m 1.027 -0.055 c 0 -0.289 -0.012 -0.305 -0.309 -0.305 c -0.254 0 -0.313 0.035 -0.336 0.203 c -0.051 0.344 0.047 0.461 0.359 0.43 c 0.262 -0.023 0.285 -0.051 0.285 -0.328 m 1.063 0 c 0 -0.289 -0.016 -0.305 -0.313 -0.305 c -0.254 0 -0.313 0.035 -0.336 0.203 c -0.051 0.344 0.047 0.461 0.359 0.43 c 0.266 -0.023 0.289 -0.051 0.289 -0.328 m -1.063 -1.039 c 0 -0.289 -0.012 -0.301 -0.309 -0.301 c -0.254 0 -0.313 0.031 -0.336 0.199 c -0.051 0.348 0.047 0.461 0.359 0.434 c 0.262 -0.027 0.285 -0.055 0.285 -0.332 m 1.063 0 c 0 -0.289 -0.016 -0.301 -0.313 -0.301 c -0.254 0 -0.313 0.031 -0.336 0.199 c -0.051 0.348 0.047 0.461 0.359 0.434 c 0.266 -0.027 0.289 -0.055 0.289 -0.332 m -1.031 -0.938 c 0.016 -0.109 0.004 -0.262 -0.027 -0.336 c -0.043 -0.113 -0.102 -0.09 -0.32 0.133 c -0.301 0.301 -0.27 0.473 0.082 0.434 c 0.168 -0.02 0.242 -0.086 0.266 -0.23 m 1.031 -0.102 c 0 -0.289 -0.016 -0.301 -0.313 -0.301 c -0.254 0 -0.313 0.035 -0.336 0.199 c -0.051 0.348 0.047 0.461 0.359 0.434 c 0.266 -0.027 0.289 -0.051 0.289 -0.332 m 0 -1.039 c 0 -0.285 -0.016 -0.301 -0.313 -0.301 c -0.254 0 -0.313 0.035 -0.336 0.199 c -0.051 0.348 0.047 0.461 0.359 0.434 c 0.266 -0.023 0.289 -0.051 0.289 -0.332 m 0.027 -0.934 c 0.016 -0.113 0.004 -0.266 -0.023 -0.34 c -0.047 -0.113 -0.105 -0.09 -0.324 0.133 c -0.301 0.301 -0.27 0.473 0.086 0.434 c 0.168 -0.02 0.242 -0.086 0.262 -0.227" fill="#fff"/><path d="m 8.113 15.469 l -0.273 -0.281 v -2.797 h -2.129 l -0.27 -0.281 c -0.227 -0.238 -0.273 -0.348 -0.273 -0.672 c 0 -0.32 0.039 -0.414 0.211 -0.527 c 0.156 -0.102 0.195 -0.184 0.16 -0.328 c -0.039 -0.148 0.004 -0.23 0.164 -0.34 c 0.164 -0.105 0.207 -0.188 0.168 -0.336 c -0.035 -0.145 0.004 -0.227 0.168 -0.336 c 0.164 -0.105 0.203 -0.188 0.168 -0.336 c -0.039 -0.145 0.004 -0.227 0.156 -0.328 c 0.148 -0.098 0.191 -0.191 0.164 -0.336 c -0.027 -0.148 0.02 -0.238 0.18 -0.344 c 0.164 -0.109 0.203 -0.191 0.168 -0.336 c -0.039 -0.148 0.004 -0.23 0.168 -0.336 c 0.16 -0.109 0.203 -0.191 0.164 -0.34 c -0.035 -0.145 0.004 -0.227 0.172 -0.336 c 0.156 -0.102 0.203 -0.191 0.168 -0.305 c -0.035 -0.113 0.031 -0.25 0.227 -0.453 l 0.277 -0.289 h 6.766 l 0.273 0.281 l 0.27 0.281 v 8.793 l -0.27 0.285 l -0.273 0.281 h -6.43 l -0.273 -0.281 m 6.41 -4.512 c 0 -2.172 -0.027 -3.949 -0.063 -3.949 c -0.035 0 -0.129 0.148 -0.211 0.328 c -0.082 0.18 -0.262 0.488 -0.395 0.691 c -0.137 0.199 -0.246 0.426 -0.25 0.5 c 0 0.16 -0.617 1.371 -0.844 1.664 c -0.09 0.109 -0.16 0.266 -0.16 0.344 c 0 0.242 -0.559 1.242 -0.867 1.555 l -0.297 0.297 h -3.01 v 1.105 c 0 0.914 0.027 1.137 0.141 1.262 c 0.129 0.145 0.336 0.156 3.047 0.156 h 2.91" fill="#f8f800"/><path d="m 8.06 15.719 c -0.211 -0.23 -0.223 -0.289 -0.266 -1.711 l -0.043 -1.469 l -1.133 -0.023 c -1.121 -0.027 -1.141 -0.027 -1.391 -0.277 c -0.211 -0.203 -0.258 -0.324 -0.258 -0.652 c 0 -0.332 0.031 -0.414 0.176 -0.449 c 0.184 -0.047 0.211 -0.105 0.18 -0.445 c -0.012 -0.137 0.043 -0.215 0.168 -0.246 c 0.191 -0.051 0.215 -0.105 0.188 -0.445 c -0.012 -0.137 0.039 -0.215 0.164 -0.246 c 0.191 -0.051 0.215 -0.109 0.188 -0.445 c -0.012 -0.141 0.039 -0.215 0.168 -0.25 c 0.191 -0.047 0.215 -0.105 0.188 -0.441 c -0.012 -0.141 0.039 -0.215 0.164 -0.25 c 0.191 -0.047 0.215 -0.105 0.188 -0.441 c -0.012 -0.141 0.039 -0.219 0.168 -0.25 c 0.188 -0.051 0.215 -0.105 0.184 -0.445 c -0.012 -0.137 0.039 -0.215 0.168 -0.246 c 0.191 -0.051 0.215 -0.105 0.188 -0.445 c -0.012 -0.137 0.039 -0.215 0.156 -0.246 c 0.098 -0.023 0.195 -0.117 0.219 -0.211 c 0.043 -0.156 0.18 -0.164 3.637 -0.164 h 3.59 l 0.516 0.508 v 9.02 l -0.516 0.508 l -3.383 -0.004 h -3.383 l -0.223 -0.238 m 6.813 -0.422 c 0.152 -0.133 0.16 -0.383 0.16 -4.316 c 0 -3.859 -0.012 -4.18 -0.148 -4.23 c -0.102 -0.039 -0.203 0.008 -0.305 0.141 c -0.086 0.109 -0.715 1.305 -1.402 2.652 c -0.773 1.52 -1.352 2.547 -1.52 2.703 l -0.27 0.254 h -1.52 c -1.23 0 -1.543 0.023 -1.629 0.125 c -0.078 0.094 -0.098 0.469 -0.078 1.305 c 0.043 1.648 -0.285 1.508 3.512 1.512 c 2.703 0 3.055 -0.016 3.199 -0.145 m -3.258 -3.836 c 0.047 -0.168 0.133 -0.332 0.195 -0.367 c 0.063 -0.035 0.141 -0.195 0.172 -0.359 c 0.031 -0.164 0.109 -0.316 0.176 -0.34 c 0.063 -0.023 0.145 -0.18 0.176 -0.348 c 0.031 -0.164 0.109 -0.32 0.176 -0.344 c 0.066 -0.027 0.145 -0.184 0.176 -0.348 c 0.031 -0.164 0.113 -0.32 0.176 -0.348 c 0.066 -0.023 0.148 -0.18 0.18 -0.344 c 0.031 -0.168 0.109 -0.324 0.176 -0.348 c 0.066 -0.023 0.145 -0.18 0.176 -0.348 c 0.031 -0.164 0.113 -0.32 0.176 -0.344 c 0.066 -0.023 0.148 -0.184 0.18 -0.355 c 0.031 -0.172 0.098 -0.309 0.145 -0.309 c 0.047 0 0.125 -0.098 0.172 -0.219 c 0.047 -0.117 0.125 -0.215 0.172 -0.215 c 0.051 0 0.094 -0.039 0.094 -0.086 c 0 -0.055 -1.133 -0.086 -3.215 -0.086 h -3.211 l -0.055 0.293 c -0.031 0.164 -0.113 0.316 -0.176 0.34 c -0.066 0.023 -0.145 0.18 -0.18 0.348 c -0.031 0.164 -0.109 0.32 -0.176 0.344 c -0.063 0.023 -0.145 0.18 -0.176 0.348 c -0.031 0.164 -0.109 0.32 -0.176 0.344 c -0.066 0.027 -0.145 0.184 -0.176 0.348 c -0.031 0.164 -0.113 0.32 -0.176 0.348 c -0.066 0.023 -0.148 0.18 -0.18 0.344 c -0.031 0.168 -0.109 0.324 -0.176 0.348 c -0.066 0.023 -0.145 0.18 -0.176 0.344 c -0.031 0.168 -0.113 0.324 -0.176 0.348 c -0.066 0.023 -0.145 0.18 -0.176 0.348 c -0.035 0.164 -0.117 0.324 -0.191 0.348 c -0.129 0.051 -0.18 0.496 -0.066 0.605 c 0.031 0.031 1.41 0.047 3.059 0.035 l 3 -0.023 m -3.441 -3.109 c -0.121 -0.313 0.027 -0.402 0.605 -0.375 c 0.523 0.023 0.551 0.035 0.551 0.242 c 0 0.203 -0.027 0.215 -0.551 0.242 c -0.438 0.02 -0.566 -0.004 -0.605 -0.109 m 1.41 0 c -0.109 -0.277 0.035 -0.406 0.43 -0.379 c 0.336 0.023 0.375 0.051 0.375 0.246 c 0 0.191 -0.039 0.219 -0.375 0.242 c -0.277 0.02 -0.391 -0.012 -0.43 -0.109 m 1.059 0 c -0.121 -0.313 0.031 -0.402 0.605 -0.375 c 0.523 0.023 0.555 0.035 0.555 0.242 c 0 0.203 -0.031 0.215 -0.555 0.242 c -0.434 0.02 -0.563 -0.004 -0.605 -0.109 m -2.117 -0.691 c -0.121 -0.313 0.027 -0.406 0.605 -0.379 c 0.523 0.027 0.555 0.039 0.555 0.242 c 0 0.207 -0.031 0.219 -0.555 0.242 c -0.434 0.023 -0.563 0 -0.605 -0.105 m 1.414 0 c -0.121 -0.313 0.027 -0.406 0.605 -0.379 c 0.523 0.027 0.551 0.039 0.551 0.242 c 0 0.207 -0.027 0.219 -0.551 0.242 c -0.438 0.023 -0.566 0 -0.605 -0.105 m 1.41 0 c -0.109 -0.281 0.035 -0.406 0.43 -0.379 c 0.336 0.023 0.375 0.051 0.375 0.242 c 0 0.195 -0.039 0.219 -0.375 0.246 c -0.277 0.02 -0.391 -0.012 -0.43 -0.109" fill="#a19f03"/></svg>