<svg xmlns="http://www.w3.org/2000/svg" viewBox="0 0 22 22"><path d="m 4.09 19.484 c 13.195 10.238 26.895 -15.258 10.559 -18.984 c -10.289 -3.82 -20.336 11.398 -10.559 18.984" fill="#f2f1f4"/><g fill="#9d9ca4" stroke="#9d9ca4" stroke-width="0.495"><g transform="matrix(0.10271 0 0 0.10352 -1.749 -1.946)"><path d="m 64.3 124.64 l 3 -4.075 c 3.841 0.491 7.911 0.264 10.687 2.755 c 2.168 2 0.723 3.17 -6.01 4.717 c -2.928 0.679 -5.439 1.207 -5.591 1.207 c -0.19 0 -3.461 -2.641 -2.092 -4.603"/><path d="m 95.38 77.1 c -1.483 -3.094 0.57 -5.094 3.841 -5.132 c 5.286 -3.094 4.412 8.565 3.309 10.07 c -2.51 1.811 -7.188 -1.207 -7.15 -4.943"/></g><path d="m 201.01 -25.577 c 9.432 -2.528 4.906 11.471 3.119 11.886 c -5.705 -0.038 -4.564 -10.754 -3.119 -11.886" transform="matrix(0.10271 0 0 0.10352 -9.7 7.71)"/><g transform="matrix(0.10271 0 0 0.10352 -1.749 -1.946)"><path d="m 150.75 82.49 c -0.761 -1.887 -0.799 -5.849 -0.038 -6.867 c 0.494 -0.755 2.244 -5.396 4.298 -3.056 c 5.325 5.056 3.119 5.434 -0.38 11.32 c -1.027 1.773 -3.081 0.453 -3.879 -1.396"/><path d="m 169.16 100.64 c -0.761 -0.906 -0.799 -3.471 -0.038 -4.377 c 1.673 -1.396 3.575 -2.113 5.248 -3.622 c 2.814 -0.264 8.405 2.604 6.313 4.377 c -3.195 4.264 -7.302 3.698 -9.66 4.075 c -0.875 0.151 -1.483 0 -1.864 -0.453"/><path d="m 71.834 156.22 c -1.293 -3.132 -0.609 -5.283 1.978 -6.075 c 0.609 -0.151 1.978 -0.755 3.081 -1.321 c 4.336 -2.151 8.557 -2.189 8.557 0 c 0 1.396 -1.788 3.773 -4.412 5.773 c -2.776 2.151 -4.944 3.094 -7.04 3.094 c -1.331 0 -1.597 -0.151 -2.168 -1.472"/><path d="m 85.11 170.41 c -2.7 -1.887 -1.521 -3.471 23.09 -31.17 c 4.107 -4.603 7.454 -8.754 7.454 -9.169 c 0 -0.453 -0.875 -1.887 -1.94 -3.207 c -2.168 -2.679 -2.586 -3.811 -2.244 -6.264 c 0.266 -2.151 2.206 -5.471 3.537 -6.075 c 0.837 -0.415 1.407 -0.226 3.727 1.17 c 4.374 2.679 6.504 2.075 8.785 -2.453 c 1.445 -2.83 3 -3.962 5.058 -3.698 c 3.727 0.491 6.656 2.83 7.416 6 c 0.266 0.943 0 1.472 -1.521 3.132 c -2.244 2.415 -2.092 2.641 2.814 4.49 c 1.902 0.679 5.096 1.962 7.112 2.792 c 2.054 0.868 4.146 1.547 4.716 1.547 c 0.609 0 3.613 1.17 6.77 2.604 c 3.119 1.434 6.01 2.604 6.351 2.604 c 1.559 0 2.13 3.736 0.951 6 c -0.761 1.434 -2.814 2.377 -4.944 2.264 c -1.94 -0.151 -6.618 -1.924 -12.969 -5.02 c -11.258 -5.396 -16.772 -5.962 -19.434 -1.887 c -0.799 1.207 -1.217 1.472 -2.624 1.509 c -2.32 0.038 -7.644 2.868 -10.725 5.66 c -1.407 1.283 -4.336 4.452 -6.542 7.132 c -2.206 2.641 -5.857 6.867 -8.101 9.358 c -2.282 2.49 -5.629 6.264 -7.492 8.377 c -1.864 2.151 -3.879 4.113 -4.526 4.415 c -1.597 0.717 -3.575 0.679 -4.716 -0.113"/><path d="m 95.3 179.85 c -1.711 -0.453 -1.597 -4 0.266 -7.245 c 0.837 -1.434 1.902 -3.471 2.396 -4.528 c 0.494 -1.057 1.141 -2.075 1.445 -2.264 c 0.951 -0.604 2.852 -0.34 3.765 0.566 c 1.369 1.358 0.837 4.603 -1.217 7.735 c -0.875 1.283 -1.788 3.132 -2.054 4.075 c -0.494 1.623 -0.647 1.736 -2.206 1.811 c -0.913 0.038 -1.978 -0.038 -2.396 -0.151"/><path d="m 125.04 187.54 c -0.647 -0.151 -1.673 -0.717 -2.282 -1.245 c -0.989 -0.906 -1.065 -1.17 -0.837 -3.471 c 0.532 -5.207 1.027 -6.905 2.396 -8.07 c 1.749 -1.434 2.32 -1.358 4.26 0.566 c 1.749 1.736 2.434 3.547 2.852 7.698 c 0.266 2.453 0.19 2.755 -0.837 3.773 c -1.141 1.132 -2.852 1.358 -5.553 0.755"/><path d="m 153.68 179.17 c -1.331 -1.434 -2.51 -4.339 -3.385 -8.414 c -0.647 -3.094 -0.647 -3.66 -0.114 -4.188 c 1.179 -1.132 3.651 -1.019 4.069 0.226 c 0.152 0.491 1.407 2.377 2.776 4.188 c 2.51 3.396 3.119 5.02 2.738 7.094 c -0.19 0.906 -0.609 1.283 -1.826 1.623 c -2.32 0.641 -3.233 0.528 -4.26 -0.528"/><path d="m 175.62 157.21 c -1.711 -0.491 -6.01 -4.641 -7.04 -6.83 c -0.989 -2.075 -0.266 -3.245 1.94 -3.132 c 2.054 0.113 9.47 3.622 10.383 4.905 c 1.103 1.585 0.723 4.264 -0.761 5.245 c -0.647 0.415 -2.738 0.34 -4.526 -0.189"/><path d="m 180.49 128.23 c -3.385 -0.641 -5.553 -1.623 -5.933 -2.641 c -0.38 -0.981 1.407 -2.641 3.423 -3.17 c 3.499 -0.981 10.345 -0.415 11.714 0.943 c 0.989 0.981 0.799 2.83 -0.456 4.075 c -1.369 1.358 -4.26 1.623 -8.747 0.792"/></g><path d="m 154.68 6.383 c -2.282 -0.491 -5.971 -3.245 -6.05 -3.358 c -0.685 -4.226 1.065 -7.094 5.895 -6.679 c 2.852 3.17 5.058 6 4.564 9.735 c -1.369 -0.302 -3 0.604 -4.412 0.302" transform="matrix(0.10271 0 0 0.10352 -9.7 7.71)"/></g><path d="m 133.2 90.39 c 0 2.319 -1.942 4.212 -4.333 4.212 c -2.391 0 -4.333 -1.893 -4.333 -4.212 c 0 -2.319 1.942 -4.212 4.333 -4.212 c 2.391 0 4.333 1.869 4.333 4.212" transform="matrix(0.16497 0 0 0.16508 -10.154 -7.242)" fill="#f00" stroke="#f00" stroke-width="1.147"/></svg>