<svg xmlns="http://www.w3.org/2000/svg" viewBox="0 0 22 22"><path d="m 2.336 15.04 c -1.027 -1.281 -2.043 -3.727 -2.164 -5.199 c -0.172 -2.133 0.586 -4.598 1.883 -6.102 c 1.727 -2.02 5.191 -3.402 8.641 -3.465 c 2.477 -0.047 5.789 0.605 7.477 1.469 c 1.434 0.734 2.453 1.84 3.01 3.262 c 0.75 1.926 0.77 3.828 0.059 5.734 c -1.164 4.063 -3.754 6.848 -6.07 9.08 c -5.875 5 -9.699 -0.789 -12.832 -4.781" fill="#e8b869"/><path d="m 9.371 17.453 c -0.141 -0.258 0.066 -1 0.145 -1.395 c 0.102 -0.531 0.012 -0.754 -0.352 -0.891 c -0.621 -0.23 -1.117 -0.883 -0.965 -1.273 c 0.063 -0.164 -0.105 -0.355 -0.375 -0.426 c -0.27 -0.07 -0.695 -0.563 -0.949 -1.094 c -0.43 -0.902 -0.434 -1 -0.027 -1.445 c 0.672 -0.738 0.008 -2.01 -0.652 -1.324 c -1.781 1.852 -2.68 0.297 -2.223 0.129 c 0.285 -0.102 2.82 -1.289 3.07 -1.422 c 0.246 -0.133 0.895 -0.238 1.434 -0.238 c 0.813 0 1.039 -0.566 1.309 0.012 c 0.18 0.383 0.328 1.539 0.328 1.727 c 0 0.188 0.262 0.336 0.586 0.332 c 0.43 -0.008 0.676 -0.852 1.023 -1.602 c 0.441 -0.949 0.605 -0.469 1.563 -0.469 c 1.285 0 4.824 1.059 4.137 1.773 c -0.379 0.391 -1 0.496 -1.262 0.258 c -0.266 -0.238 -0.742 -1 -1 -0.949 c -0.543 0.102 -0.789 1.172 -0.367 1.594 c 0.707 0.703 -0.063 2.672 -1.01 3.078 c -0.371 0.16 -0.586 0.848 -0.719 1.352 c -1.934 1.01 1.129 2.379 -1.086 2.539 c -0.883 0.23 -2.41 0.098 -2.605 -0.266" fill="#875200"/><path d="m 13.535 9.05 c -0.18 -0.09 -0.23 -0.191 -0.266 -0.551 l -0.043 -0.438 l -0.355 -0.027 c -0.477 -0.039 -0.578 -0.145 -0.578 -0.609 c 0 -0.348 0.047 -0.441 0.457 -0.871 l 0.457 -0.48 h 1.273 c 0.832 0.77 1.691 -0.758 2.219 -0.676 c 0.363 0.059 0.695 -0.18 0.773 -0.555 c 0.039 -0.195 0.102 -0.27 0.234 -0.27 c 0.168 0 0.18 0.055 0.18 0.875 c 0 0.852 -0.008 0.875 -0.219 0.926 c -0.117 0.031 -0.465 0.332 -0.773 0.672 c -0.516 0.574 -0.578 0.617 -0.922 0.617 c -0.336 0 -0.414 0.051 -0.902 0.555 c -0.293 0.305 -0.563 0.641 -0.598 0.75 c -0.199 0.297 -0.613 0.238 -0.938 0.082" fill="#21282c"/><g fill="#69b136"><path d="m 13.273 12.957 l -0.738 -0.016 l -0.328 -0.316 c -0.465 -0.453 -0.617 -0.676 -0.617 -0.895 c 0 -0.336 0.188 -0.5 0.641 -0.563 l 0.273 -0.035 l 0.406 0.336 c 0.223 0.184 0.578 0.469 0.789 0.637 c 0.445 0.352 0.539 0.508 0.441 0.738 c -0.031 0.082 -0.074 0.145 -0.094 0.141 c -0.02 -0.008 -0.367 -0.02 -0.773 -0.027"/><path d="m 7.848 12.758 c -0.242 -0.266 -0.012 -0.387 0.188 -0.539 c 0.266 -0.188 0.414 -0.414 0.559 -0.688 l 0.344 -0.02 c 0.289 -0.016 0.383 -0.043 0.574 -0.184 c 0.125 -0.09 0.25 -0.164 0.277 -0.164 c 0.082 0 0.363 0.348 0.402 0.492 c 0.047 0.188 -0.078 0.375 -0.563 0.867 l -0.414 0.422 l -0.613 -0.004 h -0.613"/></g><path d="m 10.344 10.703 c -0.109 -0.035 -0.199 -0.242 -0.199 -0.461 c 0 -0.266 -0.133 -0.492 -0.398 -0.684 c -0.375 -0.266 -0.398 -0.363 -0.391 -1.418 c 0.012 -0.93 0.055 -1.121 0.242 -1.066 c 0.133 0.039 0.371 -0.066 0.559 -0.25 c 0.426 -0.414 0.926 -0.406 1.363 0.012 c 0.273 0.262 0.395 0.301 0.566 0.195 c 0.184 -0.117 0.211 0.043 0.164 0.98 c -0.047 0.945 -0.113 1.18 -0.426 1.496 c -0.207 0.207 -0.398 0.566 -0.426 0.797 c -0.043 0.344 -0.121 0.418 -0.453 0.438 c -0.223 0.016 -0.492 -0.004 -0.602 -0.039" fill="#ffe4b4"/><path d="m 7.234 8.895 c -0.086 -0.164 -0.355 -0.508 -0.605 -0.762 c -0.406 -0.414 -0.492 -0.465 -0.828 -0.465 c -0.352 0 -0.406 -0.035 -0.973 -0.66 c -0.418 -0.465 -0.66 -0.664 -0.805 -0.664 c -0.203 0 -0.207 -0.016 -0.207 -0.883 c 0 -0.883 0 -0.883 0.223 -0.883 c 0.172 0 0.223 0.047 0.223 0.203 c 0 0.336 0.309 0.59 0.711 0.59 c 0.297 0 0.414 0.063 0.723 0.367 l 0.367 0.367 l 1.273 -0.051 l 1.277 -0.051 l 0.441 0.527 c 0.328 0.395 0.441 0.602 0.441 0.813 c 0 0.441 -0.211 0.68 -0.617 0.68 c -0.375 0 -0.445 0.09 -0.445 0.57 c -0.133 0.66 -0.973 0.746 -1.199 0.301" fill="#21282c"/><path d="m 13.05 11.184 c -0.379 -0.324 -1.219 -0.199 -1.18 -0.543 c 0.035 -0.215 0.156 -0.289 0.59 -0.352 l 0.133 -0.016 l 0.578 0.414 c 0.676 0.488 0.777 0.578 0.777 0.695 c 0 0.043 0.18 0.465 0.164 0.496 c 0.219 0.773 -0.82 -0.668 -1.063 -0.695"/><path d="m 8.629 11.25 c 0.379 -0.328 1.219 -0.203 1.18 -0.543 c -0.031 -0.219 -0.152 -0.289 -0.59 -0.352 l -0.133 -0.02 l -0.574 0.418 c -0.68 0.488 -0.781 0.578 -0.781 0.691 c 0 0.047 -0.18 0.465 -0.164 0.5 c -0.215 0.773 0.82 -0.672 1.063 -0.695"/></svg>