<svg xmlns="http://www.w3.org/2000/svg" viewBox="0 0 22 22"><path d="m 21.04 7.473 c 4.27 10.883 -7.695 16.469 -15.14 13.695 c -5.199 -1.938 -7.789 -9.656 -4.098 -15.895 c 4.66 -7.871 15.953 -6.195 19.246 2.199" fill="#8ebb8e" fill-opacity="0.996"/><path d="m 8.129 14.14 c -0.945 -0.848 -1.227 -1.484 -1.285 -2.902 c -0.078 -1.926 -0.063 -2.453 0.09 -2.727 c 1.367 -1.242 2.031 0.207 2.402 -0.098 c -0.246 -0.348 0.457 -0.426 1.402 -0.652 c 0.723 -0.172 1.535 0.133 1.508 0.004 c -0.664 -0.488 0.914 -0.125 0.109 -0.133 c -0.203 -0.082 1.094 -0.035 1.148 -0.031 c 0.504 0.074 0.703 0.141 0.844 0.289 c 0.332 0.34 0.359 0.938 0.07 1.547 c -0.113 0.238 -0.113 0.293 0.004 0.52 c 0.074 0.141 0.133 0.34 0.133 0.449 c 0 0.105 0.043 0.359 0.098 0.563 c 0.094 0.363 0 1.246 -0.18 1.691 c -0.281 0.68 -0.43 0.91 -0.883 1.348 c -1.875 1.148 -3.914 1.504 -5.461 0.137 m -0.09 -4.879 c 0.332 -0.242 1.484 -1.227 0.023 -1.262 c -0.371 -0.008 -1 0.68 -0.969 0.977 c 0.047 0.441 0.629 0.516 0.945 0.285" fill="#44ab19"/><g fill="#1c5c0f"><path d="m 9.84 15.172 c -0.863 -0.219 -1.301 -0.391 -1.82 -0.855 c -0.945 -0.852 -1.117 -1.66 -1.176 -3.078 c -0.078 -1.926 -0.063 -2.453 0.09 -2.727 c 0.258 -0.469 1.402 -0.805 2.047 -0.598 c 0.168 0.051 0.309 0.133 0.309 0.18 c 0 0.047 0.117 0.215 0.266 0.371 c 0.301 0.328 0.578 0.863 0.582 1.121 c 0 0.094 -0.078 0.27 -0.176 0.387 l -0.176 0.215 l 0.215 0.246 c 0.473 0.531 0.492 1.184 0.063 1.754 c -0.414 0.543 -1.164 0.742 -1.82 0.484 c -0.254 -0.102 -0.645 -0.469 -0.883 -0.832 c -0.094 -0.145 -0.102 -0.141 -0.105 0.051 c -0.008 0.34 0.238 1.125 0.473 1.504 c 0.262 0.43 0.816 0.91 1.32 1.148 c 1.078 0.512 2.578 0.461 3.633 -0.121 c 0.777 -0.426 1.563 -1.328 1.75 -2.01 c 0.051 -0.188 0.223 -0.715 0.273 -0.602 c 0.074 0.156 -0.168 0.742 -0.215 0.836 c -0.047 0.094 -0.152 0.328 -0.234 0.516 c -0.215 0.496 -0.855 1.258 -1.473 1.535 c -0.953 0.355 -1.965 0.711 -2.941 0.473 m -1.578 -6.379 c 0.551 -0.363 0.633 -0.504 0.324 -0.582 c -0.539 -0.141 -1.152 0.086 -1.316 0.434 c -0.094 0.191 -0.121 0.199 0.055 0.332 c 0.277 0.215 0.355 0.199 0.937 -0.184 m 2.301 4.867 c -0.301 -0.113 -0.512 -0.316 -0.512 -0.488 c 0 -0.195 0.219 -0.191 0.488 0.012 c 0.117 0.09 0.305 0.164 0.41 0.164 c 0.227 0 0.719 -0.367 0.719 -0.535 c 0 -0.063 -0.223 -0.219 -0.496 -0.352 c -0.898 -0.43 -0.895 -0.648 0.016 -0.902 c 0.332 -0.094 0.746 -0.207 0.918 -0.258 c 0.629 -0.172 0.742 0.09 0.324 0.734 c -0.141 0.219 -0.254 0.457 -0.254 0.527 c 0 0.156 0.254 0.297 0.535 0.297 c 0.234 0 0.656 -0.281 0.656 -0.441 c 0 -0.172 0.246 -0.328 0.355 -0.223 c 0.133 0.125 -0.063 0.539 -0.375 0.789 c -0.273 0.219 -0.789 0.27 -1.102 0.113 c -0.148 -0.078 -0.219 -0.047 -0.484 0.191 c -0.504 0.461 -0.758 0.539 -1.199 0.371 m 4.066 -1.789 c -0.051 -0.152 -0.074 -0.93 0.121 -0.832 c -0.016 0.176 0.031 0.258 0.027 0.375 c -0.012 0.461 -0.016 0.57 -0.148 0.457 m -2.059 -1.074 c -0.477 -0.422 -0.16 -1.18 0.492 -1.18 c 0.168 0 0.301 -0.02 0.301 -0.039 c 0 -0.023 -0.328 -0.438 -0.535 -0.75 c -0.379 -0.563 -1.078 -1.254 -0.902 -1.254 c 0.141 0 1.285 0.992 1.543 1.418 c 0.289 0.473 0.465 0.555 0.676 0.305 c 0.16 -0.191 0.219 -0.918 0.086 -1.117 c -0.113 -0.172 -0.949 -0.32 -1.637 -0.371 c -0.777 -0.059 -0.98 -0.301 -0.25 -0.301 c 0.926 0 1.797 0.164 2 0.379 c 0.332 0.344 0.359 0.937 0.07 1.547 c -0.113 0.234 -0.113 0.293 0.012 0.543 c 0.074 0.152 0.402 0.965 0.301 1.215 c -0.059 0.141 -0.25 -0.629 -0.332 -0.91 c -0.078 -0.246 -0.168 -0.371 -0.32 -0.426 c -0.355 -0.129 -0.383 -0.102 -0.324 0.324 c 0.051 0.355 0.035 0.422 -0.164 0.605 c -0.289 0.277 -0.715 0.281 -1.02 0.012"/><path d="m 15.594 9.438 c 0 -0.211 -0.625 -1.148 -1.125 -1.684 c -0.602 -0.652 -1.234 -1.082 -2.031 -1.383 c -0.684 -0.258 -1.883 -0.328 -2.609 -0.152 c -1.465 0.355 -2.82 1.469 -3.535 2.898 c -0.129 0.262 -0.039 0.438 -0.285 0.371 c -0.754 0.086 -1.496 0.145 -1.277 -0.449 c 0.152 -0.57 0.133 -0.609 -0.559 -1.07 c -0.348 -0.234 -0.648 -0.449 -0.668 -0.484 c -0.02 -0.031 0.094 -0.32 0.25 -0.645 l 0.285 -0.586 l 0.227 0.137 c 0.125 0.078 0.418 0.258 0.652 0.402 c 0.238 0.148 0.484 0.266 0.555 0.266 c 0.066 0 0.328 -0.219 0.586 -0.488 c 0.254 -0.27 0.555 -0.566 0.664 -0.656 c 0.25 -0.215 0.227 -0.336 -0.234 -1.195 l -0.344 -0.637 l 0.363 -0.238 c 0.441 -0.289 0.652 -0.406 0.73 -0.406 c 0.035 0 0.184 0.199 0.336 0.445 c 0.148 0.242 0.359 0.566 0.465 0.715 l 0.191 0.273 l 0.563 -0.168 c 0.309 -0.094 0.707 -0.191 0.883 -0.219 c 0.488 -0.078 0.523 -0.145 0.523 -1.012 v -0.746 l 0.602 -0.055 c 0.328 -0.027 0.613 -0.035 0.633 -0.012 c 0.02 0.02 0.055 0.383 0.078 0.809 c 0.047 0.871 0.082 0.926 0.613 1.02 c 0.156 0.027 0.527 0.125 0.824 0.219 l 0.543 0.168 l 0.176 -0.219 c 0.098 -0.121 0.305 -0.441 0.465 -0.719 c 0.16 -0.277 0.313 -0.52 0.34 -0.535 c 0.035 -0.023 0.965 0.52 1.109 0.652 c 0.012 0.012 -0.125 0.289 -0.305 0.621 c -0.543 0.988 -0.555 0.906 0.23 1.699 c 0.531 0.539 0.707 0.676 0.82 0.641 c 0.078 -0.023 0.422 -0.203 0.766 -0.398 c 0.344 -0.195 0.633 -0.348 0.641 -0.336 c 0.059 0.07 0.523 1.078 0.523 1.137 c 0 0.039 -0.285 0.27 -0.637 0.516 c -0.348 0.242 -0.648 0.484 -0.672 0.543 c -0.02 0.059 0 0.27 0.047 0.469 c 0.117 0.715 -0.711 0.535 -1.359 0.578 c -0.023 0 -0.043 -0.039 -0.043 -0.086"/><path d="m 15.516 12.723 c 0 0.211 -0.633 1.148 -1.133 1.684 c -0.609 0.652 -1.246 1.082 -2.051 1.383 c -0.688 0.258 -1.895 0.328 -2.629 0.152 c -1.473 -0.355 -2.84 -1.469 -3.559 -2.898 c -0.133 -0.262 -0.043 -0.438 -0.289 -0.371 c -0.758 -0.086 -1.508 -0.145 -1.289 0.449 c 0.156 0.57 0.137 0.609 -0.559 1.07 c -0.352 0.234 -0.656 0.449 -0.676 0.484 c -0.02 0.031 0.094 0.32 0.254 0.645 l 0.289 0.586 l 0.227 -0.137 c 0.121 -0.078 0.418 -0.258 0.656 -0.402 c 0.238 -0.148 0.488 -0.266 0.559 -0.266 c 0.066 0 0.332 0.219 0.59 0.488 c 0.258 0.27 0.559 0.566 0.668 0.656 c 0.254 0.215 0.23 0.336 -0.234 1.195 l -0.344 0.637 l 0.363 0.238 c 0.445 0.289 0.656 0.406 0.738 0.406 c 0.031 0 0.184 -0.199 0.336 -0.445 c 0.152 -0.242 0.363 -0.566 0.469 -0.715 l 0.191 -0.273 l 0.57 0.168 c 0.309 0.094 0.711 0.191 0.887 0.219 c 0.492 0.078 0.531 0.145 0.531 1.012 v 0.746 l 0.602 0.055 c 0.332 0.027 0.621 0.031 0.641 0.012 c 0.02 -0.02 0.055 -0.383 0.078 -0.809 c 0.047 -0.871 0.082 -0.926 0.621 -1.02 c 0.152 -0.027 0.527 -0.125 0.828 -0.219 l 0.543 -0.168 l 0.18 0.219 c 0.098 0.117 0.309 0.441 0.469 0.719 c 0.16 0.277 0.313 0.52 0.34 0.535 c 0.039 0.023 0.977 -0.523 1.121 -0.652 c 0.012 -0.012 -0.125 -0.289 -0.309 -0.621 c -0.547 -0.988 -0.559 -0.906 0.234 -1.699 c 0.535 -0.539 0.711 -0.676 0.824 -0.641 c 0.078 0.023 0.43 0.203 0.773 0.398 c 0.348 0.195 0.637 0.348 0.645 0.336 c 0.063 -0.07 0.527 -1.078 0.527 -1.137 c 0 -0.039 -0.289 -0.273 -0.641 -0.516 c -0.352 -0.242 -0.656 -0.484 -0.676 -0.543 c -0.023 -0.059 0 -0.27 0.047 -0.469 c 0.117 -0.715 -0.719 -0.535 -1.375 -0.578 c -0.02 0 -0.039 0.039 -0.039 0.086"/></g><path d="m 9.695 11.1 c 0.004 0.246 -0.129 0.473 -0.355 0.598 c -0.223 0.125 -0.496 0.125 -0.719 0 c -0.223 -0.125 -0.359 -0.352 -0.355 -0.598 c -0.004 -0.246 0.133 -0.473 0.355 -0.598 c 0.223 -0.121 0.496 -0.121 0.719 0 c 0.227 0.125 0.359 0.352 0.355 0.598" fill="#44ab19"/><g fill="#1c5c0f"><path d="m 6.113 10.941 c 0.004 0.375 -0.195 0.723 -0.527 0.91 c -0.328 0.188 -0.738 0.188 -1.066 0 c -0.332 -0.188 -0.531 -0.535 -0.527 -0.91 c -0.004 -0.375 0.195 -0.723 0.527 -0.91 c 0.328 -0.191 0.738 -0.191 1.066 0 c 0.332 0.188 0.531 0.535 0.527 0.91"/><path d="m 17.406 10.941 c 0.004 0.375 -0.191 0.723 -0.512 0.91 c -0.32 0.188 -0.719 0.188 -1.039 0 c -0.32 -0.188 -0.516 -0.535 -0.512 -0.91 c -0.004 -0.375 0.191 -0.723 0.512 -0.91 c 0.32 -0.191 0.719 -0.191 1.039 0 c 0.32 0.188 0.516 0.535 0.512 0.91"/></g></svg>