<svg xmlns="http://www.w3.org/2000/svg" viewBox="0 0 22 22" xmlns:xlink="http://www.w3.org/1999/xlink"><path d="m 2.063 4.434 c -9.668 20.828 24.391 23.863 19.23 4.445 c -2.105 -7.918 -15.531 -12.41 -19.23 -4.445" fill="#473d8b"/><path d="m 8.953 7.188 c -0.063 -0.035 -0.164 -0.059 -0.227 -0.055 c -0.273 0.027 -0.844 -0.469 -1.059 -0.918 c -0.289 -0.609 -0.148 -1.402 0.336 -1.859 c 0.164 -0.16 0.223 -0.188 0.625 -0.32 c 0.414 -0.137 0.465 -0.145 0.688 -0.113 c 0.422 0.063 0.93 0.398 1.121 0.738 c 0.148 0.262 0.23 0.777 0.18 1.133 c -0.035 0.277 -0.23 0.77 -0.313 0.797 c -0.027 0.008 -0.102 0.09 -0.168 0.18 c -0.141 0.195 -0.172 0.211 -0.234 0.121 c -0.105 -0.156 -0.582 -0.008 -0.727 0.227 c -0.043 0.066 -0.086 0.125 -0.094 0.129 c -0.008 0.004 -0.066 -0.023 -0.129 -0.059 m -0.391 -0.711 c 0.027 -0.145 0.063 -0.273 0.082 -0.285 c 0.016 -0.016 0.105 0.035 0.199 0.105 c 0.223 0.18 0.383 0.234 0.535 0.184 c 0.184 -0.063 0.238 -0.137 0.313 -0.422 c 0.078 -0.293 0.094 -0.293 0.375 -0.055 c 0.254 0.219 0.016 0.332 0.063 -0.09 c 0.035 -0.301 0.215 -0.809 0.066 -1 c -0.117 -0.152 -0.246 -0.316 -0.402 -0.445 c -0.238 -0.199 -0.477 -0.207 -0.695 -0.211 c -0.305 -0.008 -0.598 0.156 -0.828 0.375 c -0.566 0.543 -0.52 1.266 -0.074 1.77 c 0.168 0.184 0.172 0.219 0.234 0.172 c 0.023 -0.016 0.105 0.051 0.133 -0.094" fill="#fff" fill-rule="evenodd"/><path d="m 11.04 18.465 c -0.086 -0.125 -0.18 -0.285 -0.215 -0.355 c -0.074 -0.164 -0.473 -1.309 -0.461 -1.336 c 0.004 -0.012 0.121 -0.066 0.258 -0.121 l 0.25 -0.102 l 0.098 0.324 c 0.168 0.563 0.285 1.137 0.27 1.316 c -0.008 0.09 -0.004 0.234 0.008 0.32 c 0.035 0.23 -0.031 0.215 -0.207 -0.047" fill="#fff" fill-rule="evenodd" id="0"/><use xlink:href="#0"/><path d="m 12.13 18.371 c -0.035 -0.047 -0.066 -0.105 -0.078 -0.137 c -0.008 -0.031 -0.066 -0.121 -0.125 -0.203 c -0.125 -0.168 -0.363 -0.758 -0.523 -1.285 l -0.098 -0.32 l 0.227 -0.074 c 0.219 -0.074 0.23 -0.074 0.285 -0.004 c 0.066 0.094 0.219 0.598 0.316 1.051 c 0.051 0.234 0.066 0.41 0.055 0.566 c -0.008 0.121 -0.008 0.254 0.004 0.297 c 0.012 0.043 0.016 0.102 0.008 0.133 c -0.008 0.047 -0.023 0.039 -0.07 -0.023" fill="#fff" fill-rule="evenodd" id="1"/><use xlink:href="#1"/><g fill="#fff" fill-rule="evenodd"><path d="m 13 17.941 c -0.207 -0.316 -0.547 -1.094 -0.645 -1.469 c -0.082 -0.32 -0.063 -0.375 0.164 -0.449 c 0.215 -0.074 0.25 -0.039 0.363 0.34 c 0.172 0.563 0.254 1.027 0.246 1.344 c -0.008 0.16 -0.023 0.301 -0.039 0.313 c -0.016 0.012 -0.055 -0.023 -0.09 -0.078"/><path d="m 13.984 17.707 c -0.016 -0.008 -0.039 -0.047 -0.051 -0.086 c -0.012 -0.039 -0.074 -0.152 -0.137 -0.246 c -0.242 -0.363 -0.621 -1.461 -0.543 -1.563 c 0.043 -0.051 0.32 -0.152 0.406 -0.145 c 0.043 0 0.07 0.055 0.133 0.27 c 0.152 0.504 0.32 1.449 0.297 1.668 c -0.008 0.09 -0.051 0.133 -0.105 0.102"/></g><path d="m 14.832 17.215 c -0.246 -0.379 -0.301 -0.496 -0.5 -1.074 c -0.223 -0.652 -0.223 -0.645 0.109 -0.754 l 0.219 -0.074 l 0.07 0.273 c 0.18 0.687 0.293 1.254 0.297 1.457 c 0 0.117 0.008 0.258 0.012 0.313 c 0.008 0.051 0 0.098 -0.016 0.102 c -0.016 0.008 -0.102 -0.102 -0.191 -0.242" fill="#fff" fill-rule="evenodd" id="2"/><use xlink:href="#2"/><g fill="#fff" fill-rule="evenodd"><path d="m 8.539 17.902 c -0.188 -0.031 -0.43 -0.141 -0.812 -0.371 c -0.848 -0.508 -1.207 -0.926 -1.352 -1.563 c -0.203 -0.91 -0.16 -1.426 0.211 -2.363 c 0.195 -0.504 0.66 -1.32 1.172 -2.07 c 0.547 -0.801 0.742 -1.383 0.598 -1.785 c -0.066 -0.18 -0.066 -0.184 0.016 -0.25 c 0.113 -0.09 0.141 -0.191 0.246 -0.902 c 0.051 -0.34 0.109 -0.691 0.125 -0.781 l 0.031 -0.16 l 0.145 0.027 c 0.082 0.016 0.203 0.059 0.27 0.094 c 0.105 0.059 0.133 0.059 0.16 0.012 c 0.02 -0.031 0.027 -0.074 0.02 -0.098 c -0.023 -0.086 0.145 -0.172 0.227 -0.113 c 0.063 0.047 0.172 0.016 0.207 -0.055 c 0.016 -0.039 0.039 -0.043 0.094 -0.012 c 0.039 0.02 0.086 0.031 0.102 0.023 c 0.02 -0.004 0.047 0.012 0.063 0.035 c 0.059 0.078 0.129 0.016 0.27 -0.25 c 0.074 -0.145 0.156 -0.266 0.184 -0.27 c 0.027 -0.004 0.285 0.266 0.594 0.609 c 0.301 0.34 0.574 0.637 0.605 0.656 c 0.043 0.031 0.082 0.027 0.156 -0.016 c 0.055 -0.031 0.285 -0.141 0.516 -0.242 c 0.367 -0.074 0.734 -0.145 0.789 -0.199 c 0.043 -0.039 -0.242 -0.105 -0.008 0.012 l 0.691 -0.234 c 0.27 -0.09 0.648 -0.238 0.836 -0.324 c 0.191 -0.086 0.379 -0.16 0.414 -0.156 c 0.09 0 0.141 0.164 0.105 0.328 c -0.023 0.121 -0.152 0.352 -0.203 0.371 c -0.012 0.004 -0.074 -0.02 -0.137 -0.055 l -0.113 -0.063 l -1.309 0.441 c -0.719 0.242 -1.332 0.465 -1.363 0.488 c -0.055 0.047 -0.051 0.051 0.113 0.242 c 0.277 0.324 0.633 0.5 1.844 0.918 c 0.598 0.203 0.723 0.266 1.469 0.734 c 0.723 0.453 0.965 0.695 1.316 1.309 c 0.188 0.328 0.344 0.828 0.363 1.141 c 0.012 0.262 -0.055 0.707 -0.152 0.984 c -0.172 0.496 -0.484 1.102 -0.668 1.297 c -0.18 0.199 -0.16 0.094 0.105 -0.508 c 0.387 -0.883 0.445 -1.273 0.281 -1.934 c -0.188 -0.746 -0.496 -1.156 -1.211 -1.613 c -0.609 -0.387 -1.043 -0.566 -2.027 -0.824 c -0.832 -0.219 -1.258 -0.359 -1.465 -0.484 c -0.09 -0.059 -0.348 -0.293 -0.574 -0.531 c -0.223 -0.234 -0.43 -0.434 -0.457 -0.438 c -0.063 -0.016 -0.762 0.191 -1.277 0.375 l -0.355 0.129 l -0.094 0.551 c -0.105 0.648 -0.18 0.918 -0.305 1.117 c -0.051 0.082 -0.293 0.387 -0.535 0.676 c -0.512 0.613 -0.906 1.137 -1.125 1.496 c -0.355 0.582 -0.598 1.273 -0.645 1.852 c -0.023 0.266 -0.023 0.27 0.145 0.824 c 0.156 0.512 0.18 0.566 0.309 0.742 c 0.207 0.277 0.426 0.457 0.996 0.809 c 0.578 0.355 0.633 0.406 0.402 0.371 m 2.152 -9.32 c 0.008 -0.023 -0.23 -0.293 -0.488 -0.594 c -0.309 -0.367 -0.488 -0.43 -0.582 -0.211 c -0.051 0.117 -0.141 0.852 -0.137 1.109 c 0.004 0.313 -0.371 0.215 0.309 -0.039 c 0.328 -0.125 0.891 -0.258 0.898 -0.266"/><path d="m 9.145 13.457 l 4.543 -1.387 c 0.41 -0.121 0.855 0.129 0.996 0.559 l 0.586 1.781 c 0.141 0.434 -0.074 0.887 -0.48 1.01 l -4.547 1.387 c -0.406 0.125 -0.852 -0.125 -0.992 -0.559 l -0.586 -1.781 c -0.145 -0.43 0.07 -0.883 0.48 -1.01"/></g></svg>