<svg xmlns="http://www.w3.org/2000/svg" viewBox="0 0 22 22"><path d="m 19.13 16.5 c -17.93 19.15 -29.22 -20.371 -5.422 -16.01 c 6.277 2.148 11.176 9.867 5.422 16.01" fill="#e88834"/><path d="m 68.14 109.45 c -12.955 -1.818 -39.773 6.318 -41.18 -1.273 c -0.5 -2.682 -3.818 -19.591 0.955 -29.18 l 8.364 -16.727 l 7 -3.455 c 1.955 -1 2.273 -0.727 11.455 -0.045 c 24.273 1.909 39 2.318 44.864 4.864 c 5.545 2.455 13.182 -6.05 17.409 1.273 c 9 19.18 -14.14 27.545 -18.364 42.864 c -2.682 6.5 -22.364 2.409 -30.5 1.682" transform="scale(0.08594)" fill="#d0d6dd" stroke="#c5c7d2" stroke-width="2.827"/><g fill="#231622" stroke="#231622"><path d="m 159 63.817 c -3.424 -6.078 -5.061 -10.849 -5.061 -14.542 c 0 -8.08 4.912 -14.927 11.09 -15.542 c 4.689 -0.462 11.611 4.309 14.663 10 c 1.34 2.462 1.34 2.539 1.34 11.233 c -0.298 6.617 -1.191 19.389 -8.932 19.466 c -6.103 -1.154 -10.793 -6.54 -13.1 -10.618" transform="matrix(0.05248 0 0 0.05077 2.253 4.03)" stroke-width="1.051"/><path d="m 151.28 110.69 c -11.234 -1.301 -23.07 3.798 -30.16 0.936 c -2.596 -1.145 -4.044 -1.301 -17.225 -1.873 c -10.734 -0.416 -16.376 -1.197 -15.827 -2.133 c 8.887 -1.249 17.674 -3.902 26.11 -3.902 c 1.298 0.26 4.044 -0.52 5.093 -1.353 c 0.749 -2.601 -2.097 -5.203 -3.595 -3.746 c -2.097 1.561 -6.491 -3.59 -6.69 -4.11 c 0.699 -7.388 -3.495 -16.752 -4.593 -22.943 c 0 -0.416 1.148 1.405 2.746 4.422 c 1.548 2.809 5.692 4.786 6.04 5.05 c 0.899 0.78 -0.449 1.301 1.847 0.416 c 5.492 -1.769 10.285 -5.879 16.276 -6.607 c 2.097 -0.156 2.696 -0.104 4.843 0.676 c 3.295 1.093 3.395 1.145 6.04 3.59 c 2.446 2.289 5.841 4.214 8.837 5.098 c 1.797 0.52 4.094 0.52 6.441 -0.052 c 0.699 -0.156 0.849 -0.104 0.849 0.468 c 0 0.832 -2.347 2.757 -5.542 4.578 c -3.994 2.185 -8.388 4.89 -13.08 7.648 c -2.646 3.642 1.598 1.925 6.99 2.237 c 2.896 -1.145 5.542 -0.52 7.988 -1.249 c 4.843 -2.081 12.532 1.509 10.934 5.203 c 15.03 -1.977 3.745 9.729 -14.329 7.648" transform="matrix(0.07824 0 0 0.07508 -0.606 2)" stroke-width="0.708"/></g><g transform="scale(0.08594)"><path d="m 45.591 141 c -4.182 -0.409 -9.864 -1.864 -12.09 -0.818 l -12.182 5.455 c -1.182 -8.909 -4.818 -29.545 2.091 -35.23 l 5.773 4.545 c 0.818 0.636 5.409 0.864 9.773 1.227 c 11.545 1.045 19.364 2.318 22.18 3.727 c 2.636 1.273 4.818 3.727 6.773 7.636 c 2.636 5.136 2.273 7.182 -0.818 4.909 c -1.682 -1.227 -3.455 -1.182 -3.455 0.136 c -2.136 4.909 -3.091 9.364 -7.182 9.273 c -1.773 -0.091 -6.682 -0.455 -10.864 -0.864" fill="#7aa1a3" stroke="#7aa1a3" stroke-width="1.422"/><g fill="#435b93" stroke="#332734"><path d="m 60.05 144.27 c -4.091 -2.545 -25.455 -4.045 -15.09 -3.5 c 2.818 0.136 7.364 0.455 10.136 0.636 l 4.955 0.409 c -0.455 -3.5 2.636 -6.136 3.409 -8.591 c 0.318 -1.364 0.409 -1.364 2.364 -0.5 c 8.182 2.909 0.136 -9 -2.091 -11.136 c -3.636 -3.409 -5.091 -3.818 -23.318 -6.318 l -6.05 -0.864 l 5.136 0.273 c 2.818 0.182 9.636 0.545 15.14 0.818 c 5.455 0.318 15.636 0.727 22.636 0.955 c 31.591 -4 7.727 18.591 6.955 20 c 0 0.318 1.273 1.318 2.864 2.273 c 14.09 7.409 21.818 -9.955 13.318 -19 c -0.727 -0.727 -0.955 -1.318 -0.591 -1.318 c 1.273 0 4.545 3.182 5.636 5.5 c 2.5 4.864 2.5 12.773 6.318 13.545 c 5.136 0.818 6.318 4.273 8.318 6.364 c 1.045 1.091 1.045 1.136 0 1.409 c -0.591 0.136 -3.955 -0.091 -7.455 -0.5 c -9 -1.091 -31.727 -1.091 -41.09 0.045 c -4.773 0.727 -9.05 0.727 -11.5 -0.5" stroke-width="1.352"/><path d="m 157.41 144.32 c -1.318 0.045 -2.045 -0.409 -2.727 -1.727 c -1.182 -2.136 -0.955 -4.591 1.091 -3.682 c 5 0.909 8.409 -0.182 5.864 -4.727 c 4.318 0.227 9.5 -0.955 11.273 -4.909 c 2.591 -5.364 2.091 0.318 2.136 2.455 c 2.5 2.136 3.455 1.364 5.05 4.545 l 2.045 4.091 l -1.5 2 c -7.636 8.636 -12 2 -23.23 1.955" stroke-width="1.421"/></g><path d="m 147.91 177.45 c -1.5 -2 -35.14 0.182 -35.818 2.409 l -5.591 18.18 c -10.682 1.636 -27.09 3.636 -36.27 1.955 c -2.409 -1.955 -16.05 -0.364 -11.409 -2.682 c 5.818 -2.818 19.364 -16.818 19.364 -23.09 c 1.909 -6.227 -0.091 -13.318 -3.955 -19.909 c -36.23 -19.364 26.409 -9.682 38.05 -8.909 c 5.409 0.409 8.182 0.409 9 0 c -2.182 18.773 -0.727 5.273 30.23 8.545 c 0.773 -10.864 1.045 -9.227 1.636 -14.227 c 0 2.455 1.818 3.455 7.273 4.045 c 3.364 -0.227 18.09 3.227 18.14 1.091 c 1.136 -1.818 2.818 -2.227 4.864 -3.182 l 0.364 1.318 c 0.182 0.773 0.227 7.727 0.045 15.545 c -0.273 15.318 -0.591 17.09 -4.045 23.455 c -4.5 8.273 -10.727 10.182 -21.727 12.955 c -5.682 2.591 -16.727 2.091 -19.273 2.182 c 15.227 -8.409 13.318 -21.682 9.136 -19.682" fill="#421f13" stroke="#4c2f18" stroke-width="1.331"/><g fill="#3e3b6a" stroke="#3e3b6a"><path d="m 29.23 174.73 c -0.636 -1.545 -1.409 -3.136 -1.727 -3.5 c -0.682 -0.864 -6.136 -7.227 -7.136 -24.909 l -0.455 -8.136 l 10.273 1.545 c 3.682 0.545 20.955 0.955 22.682 1.227 c 0.818 0.136 0.818 0.182 -0.364 0.5 c -2.364 0.636 -4.864 1.727 -7.636 3.273 c -20.05 10 -11.5 39.636 -15.636 30" stroke-width="0.701"/><g stroke-width="0.586"><path d="m 121.86 154.36 c -0.182 -0.636 -0.045 -3.864 0.318 -7.909 c 0.364 -1.636 0.045 -2.045 -1.045 -3.182 c -1.955 -2.045 -6.864 -4.318 -11.818 -5.409 c -6.318 -1.636 -0.045 -8.727 -3.091 -14.818 l -0.909 -1.636 c 2.682 0 5.773 -0.136 7.909 -0.727 c 14.182 -3.591 24.727 1.091 32.409 -4.182 c 3.727 -0.273 7.818 -0.682 11.727 -1.136 c 0.045 0.045 -0.318 0.636 -0.818 1.227 c -3.818 4.773 -2.545 12.273 2.591 15.636 c 1.136 0.727 3.682 3.409 3.909 4.182 c 0.227 0.682 -0.273 1.227 -1.636 1.773 c -2.545 1.636 -5.727 -0.091 -7.636 0.636 c -0.227 0.273 -0.591 0.545 -0.818 0.636 c -0.5 0.182 -1.136 4.273 -1.636 10.364 l -0.318 3.5 c -8.091 -0.591 -16.727 -0.273 -23.727 1.045 c -1.864 0.364 -4.318 1.091 -5.409 0"/><path d="m 65.773 115.5 c -7.636 1 -26.05 -3.591 -31.591 -1 c 0 0.636 -9 0.045 -11.864 -0.409 c -5.5 -6.727 10.09 -2.227 0.318 -3.909 c -3.273 -12.955 4.182 -10.864 6.318 -15.909 c -1.909 -3.273 3.045 -1.227 5.909 -0.545 c 0.773 0.318 20.727 -2.955 11.273 -4.5 c -1.318 -0.273 -2.818 -0.591 -3.364 -0.818 c 1.955 -3.364 4 -2.682 5.864 -8.636 c 0.136 -0.591 -16.273 -3.136 -15.727 -4.364 c 1.5 -4.955 17.5 -5.136 16.182 -9.773 c 1.5 -1.5 3.182 -3.045 5.05 -3.955 c 0.864 0 5.409 -2.409 5.136 -2.682 c -0.045 -0.045 -3.409 0.182 -7.409 0.545 c -4.045 0.318 -16.14 1.091 -16.318 1 c 4.636 -4.727 20.864 -6.273 27.364 -8.05 l 12.455 -0.091 l 12.455 -0.045 l 0.591 1 c 1.636 2.318 -5 4.818 -6.273 4.545 c -14.182 4.409 -3.955 29.5 2.591 39.36 c 7.727 10.136 -1.045 -11.682 -0.955 -12.409 c 1.136 -3.773 -2.864 -6.864 -1.636 -10.909 c 1 -3.909 1.364 -9.273 3.727 -11.364 c 1.409 -1.227 1.545 -1.455 1.227 -1.818 c -6.318 -0.364 -8.727 -5.955 -0.091 -7 c 1.636 -0.091 3.818 3.227 4.045 3 c 1.955 -0.409 4.318 0.273 6.318 0.5 c 5.318 0.636 9.636 1.364 12.05 2.045 c 2.591 0.727 4 0.727 9.09 0.227 c 7 -0.727 10.409 0.273 14.864 4.364 c 4.227 3.864 7.136 9.318 8.182 15.273 c 0.773 4.273 0.136 9.273 -1.545 12.455 c -1.091 2.091 -3.273 4.955 -3.955 5.136 c -0.273 0.045 -1.455 0.136 -2.545 0.136 c -3.273 0 -6.818 -1.5 -10.318 -4.409 c -2.364 -2 -3.409 -2.591 -5.682 -3.273 c -1.455 -0.455 -2.636 -0.636 -4.091 -0.636 c -3.318 -0.273 -5.364 2.182 -7.636 2.364 c -4.045 0.136 -6.227 3.773 -10.409 3.955 c -0.909 0 -1.545 -0.773 -3.909 -4.682 c -2.318 -3.909 -3.091 -4.909 -3.455 -4.5 c -0.409 0.364 -0.909 2.318 -0.227 4.455 c 0.773 2.5 -1.091 1.5 0.182 3.5 c 1.318 2 7 6.364 6.955 6.455 c -0.091 0.045 -0.5 -0.045 -0.955 -0.182 c -3.818 0.409 1.5 11.909 4.818 10 c 0.727 -0.591 0.727 -0.5 1.409 0.091 c 2.818 2.5 1.773 3.409 -4.364 3.773 c -3.773 0.182 -8.455 0.818 -13.09 1.727 c -2.864 0.545 -3.136 0.545 -16.955 -0.045 m 67.955 -26.05 c 2.818 -2.864 2.818 -3 2.818 -10.05 c -0.091 -2.545 0.636 -5.05 -0.773 -7.273 c -1.909 -3.182 -5.909 -5.818 -8.773 -5.773 c -4.636 0 -8.409 5.682 -7.364 11.05 c 0.682 3.727 3.227 8.545 5.682 10.864 c 1.682 1.545 4.227 2.818 5.727 2.818 c 0.955 0 1.182 -0.136 2.682 -1.636 m -29.409 -11.818 c 3.045 -0.364 5.773 -0.773 6.05 -0.864 c 0.864 -3.455 4.818 -7.727 4.045 -12.136 c -0.136 -0.091 -1.773 -2.182 -3.591 -1.864 c -1.864 0.364 -7.05 1.227 -11.545 1.909 c -4.545 0.727 -8.818 1.455 -9.545 1.636 c -2.818 0.682 -3.909 2.818 -3.909 7.591 c 0 2.818 0.318 4.045 1.182 4.409 c 1.045 0.455 11.455 0.045 17.318 -0.682"/></g></g></g><g stroke-width="2.283"><path d="m 96.55 123.53 c 0.461 -6.771 5.708 -11.813 11.68 -11.307 c 5.994 0.527 10.472 6.434 10.01 13.205 c -0.439 6.75 -5.664 11.834 -11.636 11.328 c -5.994 -0.485 -10.494 -6.371 -10.06 -13.14" transform="matrix(0.17793 0 0 0.18518 -14.523 -8.351)" fill="#45446b" stroke="#36283b"/><path d="m 96.56 123.53 c 0.479 -6.773 5.691 -11.837 11.682 -11.288 c 5.991 0.488 10.484 6.407 10 13.18 c -0.419 6.773 -5.691 11.837 -11.622 11.349 c -5.991 -0.488 -10.484 -6.407 -10.06 -13.18" transform="matrix(0.06521 0 0 0.06402 -2.456 6.619)" fill="#332734" stroke="#332734"/><path d="m 96.53 123.52 c 0.499 -6.763 5.692 -11.81 11.683 -11.29 c 5.991 0.52 10.485 6.399 10.04 13.162 c -0.449 6.815 -5.642 11.862 -11.633 11.394 c -5.991 -0.52 -10.485 -6.399 -10.09 -13.162" transform="matrix(0.07824 0 0 0.07508 -0.427 1.702)" fill="#fffffd" stroke="#dbcffa"/></g><path d="m 88.55 110.14 c -12.955 1.955 -12.591 1.318 -21.909 1.909 l -12 -3 l 0.455 -11.909 c 0.091 -3.318 0.636 -7.727 1 -9.636 c 0.591 -2.909 -2.909 -8.727 1.727 -12.5 c 9.455 -3.955 0.318 -7.273 4.318 -11.182 c 3.682 -4.955 13.818 -2.591 15.955 -8.05 c 0.227 -0.364 0.636 -1.091 0.864 -1.591 c 2.636 -1 8.091 -0.182 10.318 1.5 c -8.318 2.455 -1.864 4.545 -4.273 6.227 c -7.636 5.182 -6 14.318 -3.273 21.682 c -1.273 7.182 3.227 10.636 5.136 17.364 c 1.455 10.182 -2.364 -3.136 1.682 9.182" transform="scale(0.08594)" fill="#231622" stroke="#231622" stroke-width="0.671"/><path d="m 96.54 123.54 c 0.487 -6.757 5.681 -11.824 11.688 -11.3 c 6.01 0.524 10.497 6.407 10.01 13.164 c -0.433 6.757 -5.627 11.883 -11.634 11.358 c -6.01 -0.524 -10.497 -6.407 -10.06 -13.164" transform="matrix(0.07219 0 0 0.06706 6.335 2.282)" fill="#fffffd" stroke="#dbcffa" stroke-width="2.283"/></svg>