<svg xmlns="http://www.w3.org/2000/svg" viewBox="0 0 22 22"><path d="m 21.824 6.379 c 2.188 31.641 -40.02 7.926 -12.227 -5.516 c 4.281 -1.852 10.668 -0.5 12.227 5.516" fill="#02030d"/><g stroke="#f90000"><g fill="#f90000"><g stroke-width="0.02"><path d="m 158.91 114 c -0.591 -0.227 -11.273 0.045 -14.727 -0.636 c -7.455 -1.455 -2.727 -6.227 -2.091 -9.227 c 1.864 -8.182 5.227 -15.5 18.682 -25.545 c 8.955 -6.682 11 -6.591 15.636 0.5 c 2.409 3.818 2.545 3.5 9.318 8.773 l -3.818 5.227 c -4.682 6.5 -19.682 21.455 -20.818 21.364 c -0.591 -0.045 -1.591 -0.227 -2.182 -0.455 m 6.05 -13.227 c 1.682 -1 3.636 -3.182 4.318 -4.818 c 2.409 -5.773 -1.409 -6.955 -7.955 -2.5 c -4.364 2.955 -5.227 6.182 -2.136 8 c 2.455 1.409 2.182 1.455 5.773 -0.682" transform="scale(0.08594)"/><path d="m 192.91 78.51 c -6.091 -6.318 -10.09 -11.273 -9.864 -12.364 c 0.591 -3.091 10.864 -4.955 17.364 -1.727 c 8.591 4.273 16.227 19.14 13.182 22.23 c -0.545 0.5 -3.091 1.273 -5.682 1.682 l -6.455 1.773" transform="matrix(0.08594 0 0 0.08594 -0.746 0.186)"/><path d="m 149.64 190.73 c -10.591 -10.773 -14.05 -16.636 -14.182 -24.05 c -0.136 -4.136 -1.227 -7.136 0.364 -9.227 c 2 -2.636 5.455 -2.545 11.864 -2.727 c 13.955 -0.5 12.409 3.091 15.05 9.182 c 1.091 2.591 4.227 8.05 6.955 12.09 c 4.727 7.05 6.182 8.091 4.364 10.227 c -4.5 5.409 -4.864 4.045 -9.636 8.5 c -1.682 2.455 -3.864 4.409 -4.818 4.409 c -0.909 0 -5.409 -3.773 -9.955 -8.409 m 10.136 -12.273 c 0.864 -3.273 -1.182 -8.182 -4.273 -10.227 c -7.273 -4.773 -7.773 5.318 -0.545 11.136 c 2.455 1.955 4.182 1.682 4.818 -0.909" transform="scale(0.08594)"/><path d="m 172.95 204.88 c -2.227 -2.318 -0.636 -5.955 3.773 -8.773 c 2.545 -1.591 7.455 -5.273 10.909 -8.182 c 3.455 -2.864 7.182 -5.227 8.273 -5.227 c 3.773 0 8.682 2.364 9.364 4.545 c 0.909 2.818 -3.864 12.682 -11.273 16.682 c -5.182 2.864 -19.455 2.591 -21.05 0.955" transform="matrix(0.08594 0 0 0.08594 -0.746 0.186)"/></g><g transform="matrix(0.08594 0 0 0.08594 -0.746 0.186)"><path d="m 120.72 166.83 c -8.909 -0.909 -11.545 -2.727 -11.09 -7.5 c -0.318 -5.455 9.818 -3.273 14.318 -3.5 c 9.773 -0.5 14.455 -0.364 15.227 0.455 c 1.455 3.909 0.818 6.864 0.591 11.136 l -5.545 0.136 c -3.045 0.091 -9.136 -0.227 -13.5 -0.727" stroke-width="0.017"/><path d="m 126.72 97.74 c -6.273 0.318 -7.591 0.045 -9.455 -2.045 c -2.364 -2.682 -3.182 -5.864 -1.773 -7.182 c 2.364 -2.273 29.05 -1.864 32.23 0.5 c 1.364 1 1.409 3.364 0.318 9 c -4.636 2.636 -14.273 -0.545 -21.318 -0.273" stroke-width="0.018"/></g></g><g fill="#ff7f4f" transform="matrix(0.08594 0 0 0.08594 -0.746 0.186)"><path d="m 194.31 158.15 c -3.182 -2.364 -8.682 -2.455 -10.5 -0.227 c -1.136 1.455 -1.591 1.5 -3.091 0.409 c -2.136 -1.636 -2.364 -11.182 -0.364 -14.818 c 1.636 -2.864 5.818 -3.727 7.682 -1.591 c 1.955 2.318 6.591 3 8.227 1.182 c 2.364 -2.591 4.318 -1.727 6.818 2.955 l 2.409 4.455 l -2.136 3.5 c -1.182 1.955 -3.136 4.091 -4.318 4.773 c -1.818 1.091 -2.545 1 -4.727 -0.636" stroke-width="0.019"/><path d="m 195.45 128.69 c -2.409 -2.091 -2.5 -2.136 -5.818 -0.409 c -3.318 1.636 -3.5 1.636 -5.545 -0.182 c -3.818 -3.364 -1.818 -16.273 2.591 -16.273 c 1.136 0 2.045 0.455 2.045 0.955 c 0 2.136 5.773 3 10 1.545 c 4.591 -1.545 5.182 -1.227 7.909 4.455 c 1.5 3.091 1.5 3.818 0.091 6.227 c -1.5 2.5 -6 5.818 -7.955 5.818 c -0.455 0 -1.955 -0.955 -3.318 -2.136" stroke-width="0.018"/></g><g stroke-width="0.02"><path d="m 234 173.09 c -20 -6.727 -24.18 -10.273 -27.773 -23.545 c -2.864 -10.682 -2.864 -10.409 0.545 -18.818 c 4.682 -11.5 6.773 -14.955 10.273 -16.773 c 4 -2.091 19.409 -5.455 29.636 -6.455 l 7.5 -0.773 l -0.682 13.955 c -0.727 15.05 -3.682 34.409 -7.182 47.05 c -1.227 4.318 -2.364 8 -2.545 8.227 c -0.182 0.136 -4.545 -1.136 -9.773 -2.864" transform="scale(0.08594)" fill="#6767c3"/><path d="m 140.45 147.47 c -28.909 -4.5 -38.955 -5.818 -48.591 -6.455 c -9.455 -0.636 -11.05 -1.091 -14.636 -3.818 c -2.182 -1.727 -6.273 -4.864 -9.05 -6.955 c -8.818 -6.636 -8.364 -8.136 4.273 -14.364 c 10.909 -5.318 14.773 -5.636 36 -2.909 c 29.682 -0.955 38.955 2.318 64.773 2.955 c 3.545 11.545 2.182 21.818 -0.273 32.818 l -11.364 0.091 c -6.227 0.091 -15.727 -0.545 -21.14 -1.364" transform="matrix(0.08594 0 0 0.08594 -0.746 0.186)" fill="#f90000"/></g></g><path d="m 105.34 106.86 h 16.356 c 3.298 -0.003 5.979 2.673 5.969 5.962 l -0.006 1.873 c -0.01 3.288 -2.69 5.954 -5.989 5.957 l -16.31 -0.006 c -3.298 0.003 -5.979 -2.673 -5.969 -5.962 l 0.011 -1.828 c 0.006 -3.334 2.641 -5.993 5.939 -5.996" transform="matrix(0.08526 0.01075 -0.00805 0.08556 -0.746 0.186)" fill="#ff0" stroke="#ff0" stroke-width="0.019"/><g fill="#04d01a" transform="matrix(0.08594 0 0 0.08594 -0.746 0.186)"><path d="m 94.77 95.06 c -6.318 -4.409 2.318 -8.909 12.409 -6.409 c 4.864 1.182 5.091 3.682 0.591 6.636 c -4.364 2.864 -8.682 2.818 -13 -0.227" stroke="#04d01a" stroke-width="0.026"/><path d="m 92.31 165.42 c -5.05 -1.591 -6.364 -5.318 -2.636 -7.273 c 3.5 -1.864 11.409 -1.091 14.955 1.455 c 5 3.5 -4.864 8.182 -12.318 5.818" stroke="#00de19" stroke-width="0.024"/></g></svg>