<svg xmlns="http://www.w3.org/2000/svg" viewBox="0 0 22 22"><g fill-opacity="0.996"><path d="m 2.789 5.766 c -7.781 8.789 3.734 18.09 10.484 15.805 c 6.746 -2.285 11.277 -8.742 6.871 -14.398 c -4.406 -5.66 -8.734 -11.12 -16.516 -2.328" fill="#2a7a2c"/><path d="m 8.535 18.434 c -0.395 -0.012 -0.586 -0.035 -0.625 -0.066 c -0.152 -0.129 -0.719 -1.512 -1.102 -2.684 c -0.508 -1.555 -0.75 -2.93 -0.719 -4.03 c 0.016 -0.477 0.035 -0.617 0.113 -0.891 c 0.309 -1.051 0.965 -1.813 2.105 -2.453 c 0.398 -0.223 0.52 -0.316 0.566 -0.437 c 0.039 -0.105 -0.012 -0.285 -0.141 -0.496 c -0.059 -0.094 -0.109 -0.195 -0.109 -0.227 c 0 -0.113 0.145 -0.266 0.293 -0.305 c 0.102 -0.027 0.84 -0.051 2.238 -0.066 c 1.91 -0.02 2.094 -0.027 2.18 -0.086 c 0.051 -0.035 0.094 -0.082 0.094 -0.102 c 0 -0.078 -0.078 -0.184 -0.168 -0.219 c -0.063 -0.027 -0.82 -0.051 -2.305 -0.07 c -1.215 -0.016 -2.277 -0.047 -2.363 -0.063 c -0.156 -0.035 -0.285 -0.145 -0.285 -0.242 c 0 -0.086 0.246 -0.336 0.352 -0.359 c 0.059 -0.012 0.121 -0.047 0.145 -0.074 c 0.027 -0.031 0.051 -0.301 0.066 -0.746 c 0.016 -0.383 0.039 -0.723 0.055 -0.758 c 0.063 -0.148 0.117 -0.152 1.781 -0.164 c 1.82 -0.016 2.02 0 2.168 0.172 l 0.098 0.109 v 0.719 c 0 0.809 -0.02 0.758 0.301 0.762 c 0.09 0 0.207 0.039 0.324 0.105 c 0.418 0.246 0.602 0.762 0.406 1.145 c -0.141 0.277 -0.543 0.555 -0.809 0.555 c -0.109 0 -0.188 0.141 -0.188 0.34 c 0 0.23 0.012 0.242 0.523 0.504 c 0.496 0.254 0.793 0.465 1.137 0.801 c 0.738 0.727 1.043 1.434 1.086 2.504 c 0.031 0.828 -0.074 1.703 -0.324 2.762 c -0.324 1.359 -1.195 3.719 -1.461 3.969 c -0.059 0.051 -0.164 0.074 -0.457 0.094 c -0.41 0.035 -4.04 0.035 -4.977 0 m 5.141 -0.785 c 0.285 -0.582 0.469 -1.047 0.488 -1.238 c 0.023 -0.273 -0.023 -0.309 -0.43 -0.332 c -0.313 -0.016 -0.32 -0.016 -0.406 -0.137 c -0.328 -0.449 -0.566 -0.555 -0.992 -0.449 c -0.234 0.059 -0.27 0.059 -0.641 0 c -0.57 -0.09 -0.859 -0.027 -1.242 0.27 c -0.113 0.086 -0.238 0.152 -0.285 0.152 c -0.047 0 -0.195 -0.043 -0.332 -0.098 l -0.246 -0.098 l -0.293 0.133 c -0.266 0.121 -0.309 0.133 -0.473 0.109 c -0.305 -0.047 -0.387 -0.031 -0.766 0.164 c -0.203 0.102 -0.375 0.191 -0.383 0.199 c -0.023 0.023 0.375 1.02 0.5 1.258 c 0.078 0.148 0.145 0.227 0.203 0.242 c 0.051 0.012 1.238 0.027 2.641 0.027 l 2.551 0.004 m -5.492 -2.137 c 0.289 -0.141 0.328 -0.148 0.59 -0.145 c 0.211 0.004 0.344 -0.016 0.566 -0.086 c 0.203 -0.066 0.328 -0.086 0.43 -0.074 c 0.512 0.078 0.508 0.078 0.902 -0.121 l 0.367 -0.184 l -0.023 -0.23 c -0.031 -0.301 -0.164 -0.777 -0.309 -1.078 c -0.168 -0.359 -0.172 -0.359 -0.43 -0.109 c -0.348 0.344 -0.758 0.504 -1.184 0.473 c -0.543 -0.039 -0.875 -0.332 -1.313 -1.164 c -0.086 -0.156 -0.215 -0.379 -0.285 -0.488 c -0.18 -0.27 -0.195 -0.328 -0.105 -0.441 c 0.105 -0.137 0.754 -0.449 1.148 -0.551 c 0.816 -0.211 1.563 -0.051 1.926 0.418 c 0.168 0.215 0.293 0.523 0.266 0.66 c -0.078 0.41 -0.055 0.578 0.102 0.711 c 0.117 0.094 0.133 -0.008 0.145 -0.801 c 0.004 -0.426 0.027 -0.914 0.051 -1.09 l 0.043 -0.316 l -0.211 -0.223 c -0.281 -0.305 -0.32 -0.422 -0.223 -0.746 c 0.18 -0.602 0.875 -1.01 1.742 -1.023 c 0.273 -0.008 0.316 0.004 0.383 0.07 c 0.109 0.109 0.129 0.477 0.055 0.938 c -0.098 0.582 -0.324 0.977 -0.688 1.195 c -0.125 0.078 -0.215 0.098 -0.453 0.109 l -0.293 0.02 l 0.004 0.941 c 0 0.52 0.012 0.984 0.027 1.031 c 0.012 0.051 0.051 0.098 0.086 0.102 c 0.09 0.02 0.27 -0.184 0.27 -0.309 c 0 -0.121 0.164 -0.371 0.309 -0.465 c 0.074 -0.055 0.168 -0.066 0.449 -0.066 c 0.324 0 0.375 0.008 0.586 0.113 c 0.277 0.133 0.508 0.336 0.688 0.605 l 0.137 0.199 l -0.148 0.195 c -0.164 0.219 -0.465 0.449 -0.77 0.59 c -0.449 0.211 -0.938 0.059 -1.148 -0.359 c -0.082 -0.164 -0.168 -0.172 -0.293 -0.023 c -0.125 0.156 -0.203 0.449 -0.188 0.738 c 0.008 0.219 0.02 0.25 0.109 0.32 c 0.094 0.07 0.152 0.078 0.859 0.086 l 0.766 0.012 l 0.23 0.215 c 0.129 0.117 0.305 0.25 0.387 0.293 c 0.129 0.063 0.746 0.188 0.777 0.156 c 0.023 -0.023 0.402 -1.422 0.484 -1.789 c 0.488 -2.156 0.293 -3.563 -0.613 -4.445 c -0.285 -0.281 -0.656 -0.516 -1.211 -0.77 c -0.258 -0.117 -0.52 -0.266 -0.578 -0.324 c -0.105 -0.098 -0.117 -0.133 -0.137 -0.398 c -0.039 -0.43 -0.078 -0.543 -0.191 -0.578 c -0.254 -0.074 -2.113 -0.07 -2.434 0.004 c -0.133 0.027 -0.172 0.141 -0.211 0.57 c -0.016 0.195 -0.043 0.309 -0.094 0.371 c -0.043 0.055 -0.293 0.199 -0.609 0.355 c -0.602 0.293 -0.895 0.484 -1.195 0.773 c -0.285 0.277 -0.547 0.684 -0.711 1.102 c -0.27 0.688 -0.238 1.84 0.09 3.324 c 0.133 0.602 0.414 1.629 0.48 1.758 c 0.07 0.145 0.223 0.133 0.594 -0.051 m 4.801 -1.684 c 0.195 -0.09 0.48 -0.352 0.48 -0.445 c 0 -0.109 -0.238 -0.348 -0.473 -0.465 c -0.34 -0.172 -0.723 -0.18 -0.785 -0.016 c -0.043 0.109 0.066 0.156 0.473 0.188 c 0.402 0.035 0.539 0.09 0.539 0.211 c 0 0.082 -0.066 0.098 -0.492 0.125 c -0.465 0.031 -0.531 0.051 -0.531 0.148 c 0 0.109 0.102 0.285 0.188 0.32 c 0.113 0.051 0.418 0.016 0.602 -0.066 m -3.25 -0.344 c 0.195 -0.117 0.375 -0.355 0.375 -0.496 c 0 -0.18 -0.391 -0.387 -1.105 -0.586 c -0.512 -0.145 -0.66 -0.215 -0.66 -0.313 c 0 -0.223 0.551 -0.152 1.426 0.188 c 0.492 0.188 0.543 0.199 0.574 0.121 c 0.07 -0.184 -0.238 -0.586 -0.543 -0.711 c -0.293 -0.117 -0.875 -0.117 -1.246 0 c -0.32 0.102 -0.668 0.277 -0.695 0.352 c -0.039 0.109 0.469 1.016 0.754 1.34 c 0.145 0.16 0.359 0.23 0.688 0.215 c 0.215 -0.008 0.301 -0.031 0.434 -0.109 m 2.156 -2.656 c 0.148 -0.059 0.363 -0.281 0.438 -0.461 c 0.063 -0.148 0.125 -0.426 0.207 -0.945 l 0.02 -0.121 l -0.383 0.02 c -0.508 0.027 -0.684 0.094 -0.938 0.352 c -0.242 0.25 -0.32 0.449 -0.227 0.594 c 0.078 0.125 0.117 0.117 0.266 -0.059 c 0.473 -0.559 0.699 -0.734 0.91 -0.711 c 0.184 0.023 0.141 0.125 -0.199 0.484 c -0.313 0.332 -0.434 0.523 -0.434 0.691 c 0 0.172 0.137 0.234 0.34 0.156 m 0.48 -5.922 v -0.504 h -2.648 v 1.012 h 2.648" fill="#fff"/></g></svg>