<svg xmlns="http://www.w3.org/2000/svg" viewBox="0 0 22 22"><path d="m 18.867 4.336 c 13.629 19.04 -21.82 25.09 -18.305 4.867 c 1.863 -8.05 12.844 -12.496 18.305 -4.867" fill="#019ca3"/><g fill="#fff" stroke="#fff" stroke-width="2.246" transform="scale(0.08594)"><path d="m 91.05 184 l -2.455 -1.909 v -63.818 l -4.318 -2.864 c -5.5 -3.591 -8.136 -6.818 -10.5 -12.545 c -5.909 -14.545 5.5 -30.773 21.591 -30.727 c 6.818 0.045 11.682 2.273 16.864 7.864 c 5 5.409 6.818 10.455 6.136 17.18 c -0.909 8.364 -4.818 14.227 -12.364 18.545 l -4.591 2.636 l -0.045 32.23 v 32.27 l -2.182 1.5 c -2.909 2.045 -5.182 1.955 -8.136 -0.364 m 9.227 -79.909 c 1.636 -0.773 3.045 -2.318 4.045 -4.364 c 1.818 -3.727 1.909 -5.545 0.455 -9 c -3.091 -7.409 -15.182 -7.5 -18.682 -0.182 c -4.318 9.136 4.864 17.955 14.182 13.545"/><path d="m 155.59 184.36 c -4.955 -1.909 -10.591 -6.955 -12.909 -11.545 c -2.409 -4.818 -2.545 -14 -0.227 -19.227 c 1.909 -4.273 7.773 -10.136 12.136 -12.09 l 3.182 -1.409 l -0.318 -17.227 c -0.182 -9.455 -0.545 -17.773 -0.864 -18.455 c -0.955 -2.045 -4.091 -2.727 -14.364 -3.182 c -9.273 -0.364 -9.818 -0.5 -11.409 -2.318 c -2.182 -2.5 -2.136 -4.955 0.091 -7.591 c 1.773 -2.045 2 -2.091 11.136 -2.318 c 16.273 -0.455 21.318 1.455 25.545 9.636 c 2.091 4 2.091 4.182 2.591 22.682 l 0.455 18.682 l 4.545 3 c 5.591 3.636 9.05 8.091 10.682 13.636 c 5.273 18.14 -12.545 34.5 -30.27 27.727 m 13.227 -12.5 c 6.455 -3.455 7.05 -12.591 1.091 -17.227 c -2.455 -1.909 -8.273 -2.136 -11.636 -0.409 c -6 3.091 -6.227 13.773 -0.364 17.5 c 2.955 1.864 7.545 1.955 10.909 0.136"/></g></svg>