<svg xmlns="http://www.w3.org/2000/svg" xmlns:xlink="http://www.w3.org/1999/xlink" viewBox="0 0 22 22"><defs><g id="3" clip-path="url(#2)"><path d="m 23.999 10.998 c -2.213 0 -4 1.787 -4 4 v 10 c 0 0.027 0.009 0.044 0.009 0.08 c -2.478 1.423 -4 4.064 -4.01 6.918 c 0 4.419 3.585 8 8 8 c 4.417 0 8 -3.583 8 -8 c -0.009 -2.863 -1.531 -5.504 -4.01 -6.927 c 0 -0.027 0.009 -0.044 0.009 -0.071 v -10 c 0 -2.214 -1.788 -4 -4 -4 m 0 2 c 1.106 0 2 0.898 2 2 v 11.355 c 2.399 0.845 4 3.103 4 5.646 c 0 3.317 -2.691 6 -6 6 c -3.31 0 -6 -2.685 -6 -6 c 0.009 -2.543 1.611 -4.802 4 -5.646 v -11.355 c 0 -1.103 0.894 -2 2 -2" transform="matrix(0.44132 0 0 0.43931 0.249 0.747)" fill="#fffafa" fill-rule="evenodd" stroke="#fffafa"/></g><clipPath id="2"><path d="M 0,0 H22 V22 H0 z"/></clipPath><filter id="0" filterUnits="objectBoundingBox" x="0" y="0" width="22" height="22"><feColorMatrix type="matrix" in="SourceGraphic" values="0 0 0 0 1 0 0 0 0 1 0 0 0 0 1 0 0 0 1 0"/></filter><mask id="1"><g filter="url(#0)"><path fill-opacity="0.2" d="M 0,0 H22 V22 H0 z"/></g></mask></defs><path d="m 21.289 7.977 c 4.105 11.465 -10.656 17.04 -16.199 12.371 c -5.547 -4.668 -7.441 -12.664 -1.16 -16.691 c 6.281 -4.02 13.25 -7.145 17.359 4.32" fill="#778799"/><use xlink:href="#3" mask="url(#1)"/><g stroke="#fffafa" transform="matrix(0.44132 0 0 0.43931 0.249 0.747)"><path d="m 23.999 10 c -2.213 0 -4 1.778 -4 4 v 9.994 c 0 0.027 0.009 0.053 0.009 0.08 c -2.478 1.423 -4 4.064 -4.01 6.927 c 0 4.41 3.585 7.994 8 7.994 c 4.417 0 8 -3.583 8 -7.994 c 0 -2.863 -1.531 -5.504 -4.01 -6.927 c 0 -0.027 0.009 -0.053 0.009 -0.08 v -9.994 c 0 -2.223 -1.788 -4 -4 -4 m 0 2 c 1.106 0 2 0.889 2 2 v 11.346 c 2.399 0.854 4 3.112 4 5.655 c 0 3.308 -2.691 5.993 -6 5.993 c -3.31 0 -6 -2.685 -6 -5.993 c 0.009 -2.543 1.611 -4.81 4 -5.655 v -11.346 c 0 -1.111 0.894 -2 2 -2" fill="#fffafa" fill-rule="evenodd"/><path d="m 21.999 19.996 v 5.353 c -2.39 0.845 -3.992 3.112 -4 5.655 c 0 3.308 2.691 5.993 6 5.993 c 3.319 0 6 -2.685 6 -5.993 c 0 -2.543 -1.602 -4.81 -4 -5.655 v -5.353" fill="#ff4500"/></g></svg>