<svg xmlns="http://www.w3.org/2000/svg" viewBox="0 0 22 22"><path d="m 0.711 14.02 c -4.105 -11.465 10.656 -17.04 16.203 -12.371 c 5.543 4.664 7.438 12.664 1.156 16.688 c -6.281 4.03 -13.25 7.148 -17.359 -4.316" fill="#5d5d5d"/><path d="m 9.215 5.145 l -0.156 0.188 c -0.074 0.086 -0.137 0.18 -0.203 0.27 c -0.035 -0.004 -0.07 -0.012 -0.109 -0.02 l -0.25 -0.027 l -0.129 0.203 c -0.074 0.121 -0.137 0.242 -0.195 0.363 c -0.047 -0.004 -0.094 -0.008 -0.141 -0.008 l -0.25 0.004 l -0.098 0.219 c -0.563 1.273 -0.387 2.574 0.316 3.539 c 0.273 0.375 0.629 0.688 1.047 0.934 c -0.539 0.203 -1.02 0.5 -1.395 0.891 c -0.844 0.879 -1.211 2.145 -0.848 3.477 l 0.063 0.227 l 0.25 0.031 c 0.125 0.016 0.246 0.02 0.367 0.027 c 0.039 0.105 0.074 0.215 0.121 0.324 l 0.098 0.215 h 0.25 c 0.094 0 0.188 -0.012 0.277 -0.016 c 0.063 0.121 0.125 0.246 0.203 0.367 l 0.125 0.199 l 0.25 -0.031 c 1.469 -0.195 2.594 -0.992 3.148 -2.051 c 0.281 -0.535 0.391 -1.137 0.348 -1.754 c 0.438 0.305 0.922 0.52 1.445 0.621 c 1.23 0.234 2.598 -0.113 3.66 -1.082 l 0.18 -0.164 l -0.094 -0.219 c -0.016 -0.031 -0.031 -0.063 -0.047 -0.094 c 0.078 -0.082 0.156 -0.16 0.23 -0.25 l 0.156 -0.188 l -0.125 -0.203 c -0.02 -0.035 -0.047 -0.063 -0.07 -0.098 c 0.047 -0.066 0.098 -0.133 0.145 -0.203 l 0.125 -0.203 l -0.156 -0.188 c -0.902 -1.078 -2.203 -1.582 -3.461 -1.488 c -0.727 0.051 -1.422 0.32 -2.031 0.758 c 0.227 -0.715 0.242 -1.449 0.008 -2.113 c -0.387 -1.113 -1.383 -2.031 -2.809 -2.395 l -0.242 -0.063 m -0.203 1.801 c 0.781 0.18 1.406 0.586 1.809 1.141 c 0.41 0.563 0.582 1.266 0.469 2.02 c -0.066 0.117 -0.137 0.23 -0.219 0.344 c -1.051 -0.344 -1.758 -1.023 -2.043 -1.844 c -0.184 -0.52 -0.191 -1.09 -0.016 -1.656 m 4.691 3.238 c 0.254 -0.012 0.508 0.004 0.754 0.051 c 0.723 0.137 1.375 0.531 1.855 1.148 c -0.527 0.43 -1.145 0.68 -1.789 0.727 c -0.93 0.066 -1.879 -0.281 -2.621 -1.047 c 0.137 -0.188 0.285 -0.355 0.441 -0.508 c 0.441 -0.227 0.902 -0.352 1.359 -0.371 m -2.766 1.383 c 0.078 0.875 -0.207 1.656 -0.758 2.23 c -0.402 0.414 -0.938 0.711 -1.559 0.855 c -0.066 -0.547 0.027 -1.078 0.273 -1.547 c 0.332 -0.637 0.914 -1.16 1.707 -1.449 c 0.105 -0.039 0.219 -0.066 0.336 -0.09" fill-opacity="0.102"/><path d="m 7.352 5.762 l -0.094 0.219 c -0.566 1.273 -0.391 2.574 0.313 3.539 c 0.449 0.617 1.133 1.07 1.937 1.332 c -0.758 0.375 -1.367 0.922 -1.719 1.594 c -0.555 1.059 -0.531 2.367 0.215 3.551 l 0.129 0.203 l 0.25 -0.035 c 1.465 -0.195 2.594 -0.992 3.145 -2.051 c 0.355 -0.672 0.441 -1.449 0.289 -2.234 c 0.723 0.422 1.531 0.633 2.336 0.574 c 1.258 -0.09 2.469 -0.773 3.203 -1.973 l 0.125 -0.203 l -0.156 -0.184 c -0.902 -1.082 -2.203 -1.582 -3.461 -1.492 c -0.801 0.059 -1.57 0.383 -2.223 0.902 c 0.035 -0.797 -0.168 -1.555 -0.617 -2.168 c -0.703 -0.965 -1.938 -1.594 -3.418 -1.578 m 0.277 0.73 c 1.109 0.059 1.992 0.531 2.512 1.242 c 0.52 0.715 0.668 1.652 0.316 2.637 c -1.109 -0.059 -1.992 -0.531 -2.512 -1.246 c -0.52 -0.711 -0.668 -1.648 -0.316 -2.633 m 5.289 2.953 c 0.242 -0.074 0.492 -0.121 0.742 -0.141 c 0.93 -0.066 1.879 0.277 2.621 1.043 c -0.621 0.867 -1.508 1.344 -2.438 1.41 c -0.93 0.066 -1.879 -0.277 -2.617 -1.043 c 0.449 -0.633 1.039 -1.066 1.691 -1.27 m -2.996 1.859 c 0.184 -0.066 0.391 -0.102 0.594 -0.145 c 0.492 0.926 0.488 1.875 0.078 2.652 c -0.406 0.781 -1.211 1.375 -2.301 1.594 c -0.492 -0.922 -0.484 -1.871 -0.078 -2.652 c 0.332 -0.633 0.914 -1.156 1.707 -1.449" fill="#df4c4c"/><path d="m 8.469 6.57 c 0.102 0.02 0.199 0.039 0.297 0.066 c 0.109 0.031 0.219 0.07 0.324 0.109 c 0.043 -0.109 0.094 -0.219 0.152 -0.324 c 0.918 0.25 1.602 0.785 1.969 1.48 c 0.313 0.598 0.383 1.301 0.172 2.02 c -0.086 0.176 -0.188 0.352 -0.313 0.523 c -2.34 -0.273 -2.922 -1.137 -2.922 -1.137 c 0.293 0.555 0.758 1.02 1.344 1.367 l 0.016 0.176 c -1.797 1.063 -2.574 2.746 -1.793 4.582 c 0.008 0.012 0.008 0.023 0.016 0.039 c 0.082 0.188 0.191 0.371 0.277 0.523 c 1.441 -0.016 2.648 -0.645 3.348 -1.594 c 0.063 -0.094 0.125 -0.188 0.176 -0.289 c 0.352 -0.672 0.441 -1.449 0.289 -2.23 c 0.727 0.672 2.453 0.484 2.453 0.484 c -0.895 -0.051 -1.746 -0.488 -2.363 -1.281 c -0.07 -0.055 -0.137 -0.109 -0.203 -0.164 c -0.078 -0.066 -0.152 -0.137 -0.227 -0.211 c 0.07 -0.098 0.141 -0.188 0.219 -0.273 c 0.016 -0.02 0.035 -0.043 0.055 -0.063 c 0.063 -0.07 0.129 -0.137 0.195 -0.199 c 2.055 -1.191 3.91 -0.816 5.03 0.82 c 0 -0.004 0 -0.004 -0.004 -0.004 c 0.109 -0.133 0.219 -0.27 0.313 -0.414 c -0.73 -0.836 -1.734 -1.309 -2.777 -1.367 c -0.781 -0.043 -1.566 0.164 -2.273 0.574 c 0.09 -0.258 0.152 -0.52 0.18 -0.777 c -0.27 0.137 -0.566 0.324 -0.777 0.496 c 0.027 -0.75 -0.23 -1.625 -0.617 -2.168 c -0.387 -0.531 -0.938 -0.953 -1.594 -1.227 c -0.242 -0.109 -0.516 -0.18 -0.746 -0.242 c 0 0 -0.211 0.703 -0.211 0.703 m 2.297 4.586 l 0.164 0.352 c 0.23 2.098 -0.742 3.438 -2.387 3.895 c -0.07 -0.289 -0.277 -0.492 -0.453 -0.672 c -0.125 -0.715 0.012 -1.391 0.363 -1.953 c 0.004 -0.008 0.008 -0.02 0.012 -0.027 c 0.332 -0.633 0.914 -1.156 1.707 -1.449 c 0.117 -0.043 0.242 -0.07 0.371 -0.098 c 0.078 -0.016 0.156 -0.031 0.223 -0.047" fill-opacity="0.102"/><path d="m 8.07 5.199 l -0.129 0.203 c -0.746 1.191 -0.77 2.504 -0.219 3.551 c 0.352 0.672 0.961 1.207 1.719 1.57 c -0.809 0.273 -1.488 0.738 -1.941 1.359 c -0.703 0.977 -0.879 2.277 -0.316 3.547 l 0.094 0.215 h 0.254 c 1.48 -0.004 2.715 -0.648 3.418 -1.625 c 0.453 -0.621 0.656 -1.383 0.621 -2.176 c 0.652 0.512 1.418 0.824 2.223 0.871 c 1.258 0.07 2.559 -0.449 3.465 -1.543 l 0.152 -0.188 l -0.125 -0.203 c -0.73 -1.188 -1.941 -1.852 -3.199 -1.926 c -0.805 -0.047 -1.613 0.176 -2.336 0.605 c 0.156 -0.781 0.066 -1.559 -0.285 -2.227 c -0.551 -1.051 -1.676 -1.832 -3.145 -2 l -0.25 -0.031 m 0.414 0.789 c 1.09 0.203 1.895 0.785 2.301 1.559 c 0.406 0.773 0.41 1.723 -0.082 2.656 c -1.09 -0.203 -1.891 -0.785 -2.297 -1.563 c -0.41 -0.773 -0.414 -1.723 0.078 -2.652 m 4.789 3.613 c 0.254 -0.043 0.508 -0.059 0.758 -0.043 c 0.93 0.055 1.816 0.516 2.434 1.371 c -0.742 0.777 -1.691 1.137 -2.621 1.082 c -0.926 -0.051 -1.813 -0.516 -2.434 -1.371 c 0.543 -0.566 1.188 -0.922 1.863 -1.039 m -3.238 1.457 c 0.191 -0.043 0.402 -0.051 0.609 -0.066 c 0.348 0.98 0.199 1.922 -0.32 2.641 c -0.523 0.719 -1.406 1.207 -2.516 1.281 c -0.348 -0.98 -0.199 -1.922 0.32 -2.641 c 0.422 -0.586 1.078 -1.027 1.906 -1.215" fill="#f4af40"/><path d="m 9.03 5.375 c -0.168 0.207 -0.309 0.422 -0.43 0.641 c 0.262 0.055 0.508 0.133 0.734 0.234 c 0.055 -0.09 0.113 -0.18 0.176 -0.27 c 1.047 0.344 1.754 1.023 2.043 1.844 c 0.285 0.82 0.148 1.762 -0.48 2.621 c -0.945 -0.008 -2.758 -1.621 -2.758 -1.621 c 0.246 0.707 0.766 1.32 1.461 1.777 c -0.891 0.309 -1.746 0.73 -2.277 1.281 c -0.703 0.977 -0.879 2.277 -0.32 3.547 l 0.004 0.008 c 1.441 0.164 2.73 -0.313 3.563 -1.176 c 0.012 -0.008 0.02 -0.02 0.031 -0.031 c 0.059 -0.07 0.121 -0.137 0.172 -0.211 c 0.449 -0.621 0.656 -1.383 0.621 -2.176 c 1.07 0.895 2.34 0.805 2.34 0.805 c -0.887 -0.172 -1.68 -0.727 -2.164 -1.617 c -0.117 -0.121 -0.23 -0.25 -0.336 -0.391 c 0.543 -0.57 1.188 -0.922 1.863 -1.039 c 0.254 -0.047 0.508 -0.059 0.758 -0.043 c 0.926 0.051 1.816 0.516 2.434 1.371 c 0 0 0.137 0.875 0.137 0.875 c 0.199 -0.16 0.391 -0.34 0.566 -0.539 c -0.602 -0.922 -1.523 -1.523 -2.547 -1.719 c -0.785 -0.148 -1.621 -0.035 -2.398 0.301 c 0.082 -0.234 0.141 -0.469 0.176 -0.703 c -0.223 0.086 -0.441 0.191 -0.648 0.316 c 0.152 -0.781 0.066 -1.559 -0.285 -2.227 c -0.457 -0.871 -1.316 -1.555 -2.434 -1.859 m 1.613 5.617 l 0.254 0.23 c 0.434 1.824 -1.543 4 -3.395 3.52 c -0.188 -0.973 0.07 -1.848 0.641 -2.488 c 0.422 -0.574 1.07 -1.012 1.891 -1.195 c 0.191 -0.043 0.402 -0.055 0.609 -0.066" fill-opacity="0.102"/><path d="m 8.789 4.789 l -0.156 0.188 c -0.918 1.086 -1.141 2.383 -0.75 3.492 c 0.246 0.711 0.766 1.32 1.461 1.777 c -0.836 0.168 -1.582 0.539 -2.121 1.098 c -0.844 0.879 -1.211 2.145 -0.848 3.473 l 0.063 0.23 l 0.25 0.031 c 1.465 0.188 2.781 -0.293 3.629 -1.168 c 0.535 -0.563 0.852 -1.289 0.938 -2.082 c 0.566 0.594 1.281 1 2.066 1.152 c 1.234 0.234 2.598 -0.113 3.66 -1.082 l 0.18 -0.164 l -0.094 -0.219 c -0.547 -1.273 -1.645 -2.086 -2.875 -2.32 c -0.789 -0.152 -1.621 -0.035 -2.402 0.297 c 0.27 -0.758 0.301 -1.535 0.055 -2.246 c -0.391 -1.109 -1.387 -2.031 -2.813 -2.395 l -0.242 -0.063 m 0.293 0.836 c 1.047 0.344 1.754 1.023 2.039 1.844 c 0.289 0.82 0.148 1.762 -0.477 2.621 c -1.047 -0.344 -1.754 -1.023 -2.043 -1.844 c -0.285 -0.82 -0.148 -1.762 0.48 -2.621 m 4.195 4.203 c 0.254 -0.012 0.508 0.008 0.754 0.055 c 0.91 0.172 1.719 0.746 2.203 1.676 c -0.852 0.672 -1.844 0.906 -2.754 0.734 c -0.91 -0.176 -1.719 -0.75 -2.203 -1.676 c 0.621 -0.492 1.313 -0.762 2 -0.789 m -3.422 1.023 c 0.195 -0.016 0.402 0.004 0.609 0.016 c 0.199 1.016 -0.09 1.93 -0.711 2.574 c -0.625 0.648 -1.57 1.016 -2.68 0.945 c -0.199 -1.016 0.09 -1.93 0.715 -2.574 c 0.504 -0.527 1.219 -0.883 2.066 -0.961" fill="#e8e756"/></svg>