<svg xmlns="http://www.w3.org/2000/svg" viewBox="0 0 22 22" xmlns:xlink="http://www.w3.org/1999/xlink"><defs><linearGradient id="5" gradientUnits="userSpaceOnUse" x1="49.12" y1="11.07" x2="33.635" y2="14.484" gradientTransform="matrix(0.10316 0 0 0.10743 4.753 4.358)" xlink:href="#3"/><linearGradient id="8" gradientUnits="userSpaceOnUse" x1="40.722" y1="40.43" x2="70.02" y2="69.79" gradientTransform="matrix(0.10316 0 0 0.10743 4.753 4.358)"><stop stop-color="#fff"/><stop offset="1" stop-color="#fff" stop-opacity="0.314"/></linearGradient><linearGradient id="A" gradientUnits="userSpaceOnUse" x1="82.79" y1="79.37" x2="108.01" y2="52.37" gradientTransform="matrix(0.05906 0.04681 -0.05297 0.07247 7.213 3.476)" xlink:href="#9"/><linearGradient id="9" gradientUnits="userSpaceOnUse" x1="82.79" y1="79.37" x2="108.01" y2="52.37" gradientTransform="matrix(-0.05906 -0.04681 0.05297 -0.07247 13.762 17.11)"><stop stop-color="#00b7ff" stop-opacity="0.608"/><stop offset="1" stop-color="#090a0b"/></linearGradient><linearGradient id="6" gradientUnits="userSpaceOnUse" x1="14.531" y1="32.667" x2="43.573" y2="9.5" gradientTransform="matrix(0.10316 0 0 0.10743 4.753 4.358)" xlink:href="#4"/><linearGradient id="0" gradientUnits="userSpaceOnUse" x1="22.728" y1="18.398" x2="90.06" y2="92.4" gradientTransform="matrix(0.10316 0 0 0.10743 4.753 4.358)"><stop stop-color="#e8f4f3"/><stop offset="1" stop-color="#6c4097"/></linearGradient><linearGradient id="4" gradientUnits="userSpaceOnUse" x1="97.03" y1="78.46" x2="68.12" y2="101.31" gradientTransform="matrix(0.10316 0 0 0.10743 4.753 4.358)"><stop stop-color="#100080" stop-opacity="0.02"/><stop offset="0.5" stop-color="#00548c" stop-opacity="0.51"/><stop offset="1" stop-color="#78ff87"/></linearGradient><linearGradient id="2" gradientUnits="userSpaceOnUse" x1="32.14" y1="22.464" x2="78.929" y2="88.36" gradientTransform="matrix(0.10316 0 0 0.10743 4.753 4.358)"><stop stop-color="#a595c5" stop-opacity="0.353"/><stop offset="0.5" stop-color="#fff"/><stop offset="1" stop-color="#acb79e" stop-opacity="0.2"/></linearGradient><linearGradient id="1" gradientUnits="userSpaceOnUse" x1="55.797" y1="55.42" x2="8.03" y2="97.76" gradientTransform="matrix(0.10316 0 0 0.10743 4.753 4.358)"><stop stop-color="#f4ffff" stop-opacity="0.647"/><stop offset="1" stop-color="#008295" stop-opacity="0"/></linearGradient><linearGradient id="3" gradientUnits="userSpaceOnUse" x1="62.55" y1="100.09" x2="79.76" y2="96.17" gradientTransform="matrix(0.10316 0 0 0.10743 4.753 4.358)"><stop stop-color="#ff7e00"/><stop offset="0.255" stop-color="#ffc" stop-opacity="0.706"/><stop offset="1" stop-color="#00ff80" stop-opacity="0.02"/></linearGradient><radialGradient id="7" gradientUnits="userSpaceOnUse" cx="55.828" cy="55.28" r="47.3" gradientTransform="matrix(0.11251 0 0 0.11796 4.231 3.776)"><stop stop-color="#e2afff"/><stop offset="1" stop-color="#09004c" stop-opacity="0"/></radialGradient><radialGradient id="B" gradientUnits="userSpaceOnUse" cx="83.58" cy="26.588" r="5.593" gradientTransform="matrix(0.37715 -0.28297 0.26638 0.38502 -27.971 23.664)"><stop stop-color="#f40000"/><stop offset="1" stop-color="#f00" stop-opacity="0"/></radialGradient><radialGradient id="C" gradientUnits="userSpaceOnUse" cx="83.48" cy="26.313" r="4.48" gradientTransform="matrix(0.42707 -0.0498 0.04688 0.436 -26.359 2.886)" xlink:href="#B"/></defs><path d="m 16.664 19.305 c 19.48 -18.11 -20.73 -29.523 -16.297 -5.48 c 2.188 6.344 10.04 11.297 16.297 5.48" fill="#54c1f2"/><path d="m 11.01 5.203 c -3.03 0.082 -5.457 2.664 -5.457 5.836 c 0 3.219 2.508 5.832 5.602 5.832 c 3.094 0 5.602 -2.613 5.602 -5.832 c 0 -3.223 -2.512 -5.836 -5.602 -5.836 c -0.047 0 -0.098 0 -0.145 0 m 0.18 5.05 c 0.004 0 0.004 0 0.008 0 c 0.414 0 0.75 0.352 0.75 0.785 c 0 0.43 -0.336 0.781 -0.75 0.781 c -0.414 0 -0.75 -0.352 -0.75 -0.781 c 0 -0.43 0.332 -0.781 0.742 -0.785" fill-opacity="0.322"/><path d="m 10.344 4.758 c -2.887 0.074 -5.203 2.539 -5.203 5.562 c 0 3.07 2.395 5.563 5.34 5.563 c 2.949 0 5.344 -2.492 5.344 -5.563 c 0 -3.07 -2.395 -5.562 -5.344 -5.562 c -0.043 0 -0.09 0 -0.137 0 m 0.172 4.816 c 0 0 0.004 0 0.008 0 c 0.395 0 0.715 0.336 0.715 0.75 c 0 0.41 -0.32 0.746 -0.715 0.746 c -0.395 0 -0.715 -0.336 -0.715 -0.746 c 0 -0.41 0.316 -0.742 0.707 -0.75"/><path d="m 10.402 5 c -2.773 0.055 -5 2.418 -5 5.316 c 0 2.934 2.285 5.316 5.102 5.316 c 2.816 0 5.105 -2.383 5.105 -5.316 c 0 -2.934 -2.285 -5.316 -5.105 -5.316 c -0.031 0 -0.066 0 -0.098 0 m 0.039 4.32 c 0.02 -0.004 0.039 0 0.059 0 c 0.52 0 0.938 0.438 0.938 0.977 c 0 0.539 -0.418 0.98 -0.938 0.98 c -0.52 0 -0.941 -0.441 -0.941 -0.98 c 0 -0.52 0.391 -0.945 0.883 -0.977" fill="url(#0)"/><path d="m 10.316 5.18 c -2.633 0.105 -4.734 2.363 -4.734 5.129 c 0 2.836 2.207 5.137 4.93 5.137 c 2.719 0 4.926 -2.301 4.926 -5.137 c 0 -2.832 -2.207 -5.129 -4.926 -5.129 c -0.055 0 -0.109 0 -0.16 0 c -0.012 0 -0.023 0 -0.035 0 m 0.07 3.281 c 0.008 0 0.016 0 0.023 0 c 0.031 -0.004 0.063 0 0.09 0 c 0.977 0 1.77 0.824 1.77 1.84 c 0 1.016 -0.793 1.844 -1.766 1.844 c -0.977 0 -1.773 -0.828 -1.773 -1.844 c 0 -0.977 0.734 -1.777 1.66 -1.84 m 0.012 0.191 c -0.828 0.055 -1.488 0.773 -1.488 1.648 c 0 0.91 0.711 1.652 1.586 1.652 c 0.875 0 1.586 -0.742 1.586 -1.652 c 0 -0.91 -0.711 -1.648 -1.586 -1.648 c -0.027 0 -0.051 -0.004 -0.078 0 c -0.008 0 -0.016 0 -0.02 0 m 0.031 0.516 c 0.008 0 0.016 0 0.027 0 c 0.012 0 0.027 0 0.039 0 c 0.602 0 1.086 0.508 1.086 1.133 c 0 0.625 -0.484 1.129 -1.086 1.129 c -0.598 0 -1.086 -0.504 -1.086 -1.129 c 0 -0.602 0.453 -1.094 1.02 -1.133" fill="url(#1)"/><path d="m 10.316 5.18 c -2.633 0.105 -4.734 2.363 -4.734 5.129 c 0 2.836 2.207 5.137 4.93 5.137 c 2.719 0 4.926 -2.301 4.926 -5.137 c 0 -2.832 -2.207 -5.129 -4.926 -5.129 c -0.055 0 -0.109 0 -0.16 0 c -0.012 0 -0.023 0 -0.035 0 m 0.07 3.281 c 0.008 0 0.016 0 0.023 0 c 0.031 -0.004 0.063 0 0.09 0 c 0.977 0 1.77 0.824 1.77 1.84 c 0 1.016 -0.793 1.844 -1.766 1.844 c -0.977 0 -1.773 -0.828 -1.773 -1.844 c 0 -0.977 0.734 -1.777 1.66 -1.84 m 0.012 0.191 c -0.828 0.055 -1.488 0.773 -1.488 1.648 c 0 0.91 0.711 1.652 1.586 1.652 c 0.875 0 1.586 -0.742 1.586 -1.652 c 0 -0.91 -0.711 -1.648 -1.586 -1.648 c -0.027 0 -0.051 -0.004 -0.078 0 c -0.008 0 -0.016 0 -0.02 0 m 0.031 0.516 c 0.008 0 0.016 0 0.027 0 c 0.012 0 0.027 0 0.039 0 c 0.602 0 1.086 0.508 1.086 1.133 c 0 0.625 -0.484 1.129 -1.086 1.129 c -0.598 0 -1.086 -0.504 -1.086 -1.129 c 0 -0.602 0.453 -1.094 1.02 -1.133" fill="url(#2)"/><path d="m 11.03 11.289 c -0.109 0.063 -0.23 0.105 -0.359 0.125 l 0.082 0.52 c 0.188 -0.031 0.363 -0.098 0.52 -0.191 l -0.238 -0.453 c -0.004 0 -0.004 0 -0.004 0 m 0.332 0.621 c -0.18 0.102 -0.375 0.176 -0.582 0.211 l 0.512 3.258 c 0.574 -0.094 1.117 -0.297 1.609 -0.582 l -1.535 -2.887" fill="url(#3)"/><path d="m 11.438 10.879 c -0.141 0.242 -0.367 0.426 -0.633 0.504 l 0.137 0.504 c 0.391 -0.121 0.723 -0.391 0.922 -0.746 m 0.16 0.098 c -0.227 0.398 -0.594 0.699 -1.027 0.832 l 0.879 3.172 c 1.227 -0.367 2.258 -1.219 2.887 -2.34" fill="url(#4)"/><path d="m 9.707 5.242 c -0.566 0.098 -1.102 0.297 -1.59 0.574 l 1.531 2.867 c 0.172 -0.098 0.363 -0.168 0.566 -0.203 l -0.508 -3.234 m 0.523 3.426 c -0.176 0.031 -0.344 0.094 -0.492 0.18 l 0.242 0.453 c 0.105 -0.059 0.219 -0.102 0.344 -0.121 l -0.082 -0.512 c 0 0 0 0 -0.004 0 c 0 0 -0.004 0 -0.004 0 c 0 0 -0.004 0 -0.004 0" fill="url(#5)"/><path d="m 9.141 5.379 c -1.227 0.367 -2.258 1.219 -2.887 2.348 l 2.715 1.648 c 0.23 -0.406 0.602 -0.715 1.047 -0.848 m 0.047 0.184 c -0.398 0.121 -0.73 0.398 -0.934 0.762 l 0.43 0.262 c 0.137 -0.25 0.367 -0.441 0.645 -0.527 l -0.137 -0.496" fill="url(#6)" fill-rule="evenodd"/><path d="m 7.305 6.406 c -0.883 0.785 -1.496 1.898 -1.672 3.152 l 3.117 0.461 c 0.066 -0.449 0.289 -0.844 0.609 -1.125 m 0.121 0.145 c -0.285 0.25 -0.488 0.605 -0.547 1.01 l 0.492 0.07 c 0.043 -0.273 0.184 -0.516 0.379 -0.688 m 1.773 1.01 c -0.031 0.281 -0.16 0.531 -0.355 0.707 l 0.324 0.395 c 0.281 -0.258 0.473 -0.621 0.523 -1.027 m 0.184 0.027 c -0.055 0.453 -0.273 0.855 -0.586 1.145 l 2.07 2.504 c 0.883 -0.801 1.488 -1.918 1.652 -3.188" fill="url(#7)"/><path d="m 10.418 8.641 c -0.84 0.051 -1.504 0.777 -1.504 1.664 c 0 0.918 0.715 1.66 1.598 1.66 c 0.879 0 1.594 -0.742 1.594 -1.66 c 0 -0.918 -0.715 -1.664 -1.594 -1.664 c -0.031 0 -0.063 0 -0.094 0 m 0.059 0.535 c 0.008 0 0.02 0 0.027 0 c 0.598 0 1.082 0.508 1.082 1.129 c 0 0.621 -0.484 1.125 -1.082 1.125 c -0.598 0 -1.078 -0.504 -1.078 -1.125 c 0 -0.613 0.465 -1.113 1.051 -1.129" fill="url(#8)"/><g fill-rule="evenodd"><path d="m 15.488 8.477 c -3.832 -2.988 -8.863 -1.508 -5.609 2.516 c -4.01 -4.844 1.883 -7.996 6.793 -4.195" fill="url(#9)"/><path d="m 9.801 5.848 l 0.172 1.211 c -0.215 0.086 -0.41 0.188 -0.57 0.316 l -0.203 -1.055 c 0.172 -0.18 0.375 -0.344 0.602 -0.473 m 0.871 -0.402 l 0.074 1.43 c -0.242 0.031 -0.473 0.078 -0.676 0.156 l -0.164 -1.25 c 0.23 -0.141 0.488 -0.254 0.766 -0.336 m 1.238 -0.223 l -0.176 1.602 c -0.309 -0.02 -0.605 -0.012 -0.875 0.035 l -0.043 -1.457 c 0.336 -0.113 0.707 -0.168 1.094 -0.18 m 1.535 0.152 l -0.527 1.633 c -0.348 -0.09 -0.684 -0.152 -1 -0.18 l 0.203 -1.617 c 0.422 0 0.863 0.055 1.328 0.164 m 1.602 0.586 l -0.813 1.535 c -0.375 -0.184 -0.758 -0.328 -1.129 -0.434 l 0.555 -1.629 c 0.453 0.109 0.918 0.285 1.387 0.527 m 0.453 2.289 c -0.348 -0.262 -0.707 -0.488 -1.074 -0.66 l 0.848 -1.523 c 0.402 0.207 0.801 0.465 1.203 0.77 m -6.52 4.145 l -0.125 0.109 c -4.01 -4.84 2.01 -8.594 7.07 -4.578 l -1.605 2.277 c -3.672 -2.906 -8.602 -1.832 -5.344 2.191"/><path d="m 5.488 12.11 c 3.832 2.992 8.863 1.512 5.605 -2.516 c 4.01 4.844 -1.883 7.996 -6.789 4.199" fill="url(#A)"/><path d="m 11.172 14.742 l -0.172 -1.211 c 0.215 -0.086 0.41 -0.191 0.574 -0.316 l 0.203 1.055 c -0.176 0.18 -0.375 0.34 -0.605 0.473 m -0.871 0.402 l -0.074 -1.43 c 0.246 -0.031 0.477 -0.078 0.68 -0.156 l 0.16 1.25 c -0.23 0.141 -0.488 0.25 -0.766 0.336 m -1.238 0.223 l 0.18 -1.605 c 0.309 0.023 0.605 0.012 0.871 -0.031 l 0.043 1.457 c -0.332 0.109 -0.703 0.168 -1.094 0.18 m -1.531 -0.152 l 0.527 -1.633 c 0.344 0.09 0.68 0.152 1 0.176 l -0.203 1.621 c -0.422 0 -0.863 -0.055 -1.328 -0.164 m -1.605 -0.586 l 0.816 -1.539 c 0.375 0.188 0.758 0.332 1.129 0.438 l -0.555 1.625 c -0.453 -0.105 -0.918 -0.285 -1.391 -0.523 m -0.449 -2.289 c 0.344 0.262 0.703 0.488 1.07 0.66 l -0.844 1.523 c -0.402 -0.207 -0.801 -0.465 -1.203 -0.77 m 6.52 -4.145 l 0.125 -0.109 c 4.01 4.84 -2.01 8.594 -7.078 4.574 l 1.609 -2.277 c 3.672 2.91 8.598 1.832 5.344 -2.191"/><path d="m 13.344 10.91 l -2.094 0.105 l 0.168 2.172 l -1.133 -1.836 l -1.727 1.238 l 0.961 -1.938 l -1.891 -0.938 l 2.09 -0.105 l -0.164 -2.172 l 1.133 1.832 l 1.723 -1.234 l -0.957 1.938 l 1.891 0.938" fill="url(#B)"/><path d="m 12.48 12.13 l -1.73 -0.902 l -0.816 1.828 l -0.113 -2.01 l -1.926 0.184 l 1.617 -1.109 l -1.117 -1.648 l 1.73 0.902 l 0.813 -1.828 l 0.113 2.01 l 1.93 -0.18 l -1.617 1.109 l 1.117 1.645" fill="url(#C)"/><path d="m 10.961 10.266 c 0.016 0.258 -0.176 0.48 -0.426 0.496 c -0.25 0.016 -0.465 -0.184 -0.477 -0.441 c -0.016 -0.262 0.176 -0.484 0.426 -0.5 c 0.246 -0.016 0.461 0.184 0.477 0.445" fill="#fff"/></g></svg>