<svg xmlns="http://www.w3.org/2000/svg" viewBox="0 0 22 22"><g fill="#fff"><path d="m 7.957 10.711 v 4.289 c 0 2.57 0.441 2.57 4.414 2.57 h 0.883 c 3.969 0 4.41 0 4.41 -2.57 v -4.289 c 0 -2.57 -0.441 -2.57 -4.41 -2.57 h -0.883 c -3.973 0 -4.414 0 -4.414 2.57 m 4.414 -1.715 h 0.883 c 3.527 0 3.527 0 3.527 1.715 v 3 c 0 1.715 0 1.715 -3.527 1.715 h -0.883 c -3.531 0 -3.531 0 -3.531 -1.715 v -3 c 0 -1.715 0 -1.715 3.531 -1.715"/><path d="m 9.723 13.789 v -1.66 l 1.543 -1.559 l 1.934 1.949 l 0.77 -0.781 l 1.934 1.949 v 0.102 c 0 0.781 -0.129 0.781 -1.547 0.781 h -3.086 c -1.414 0 -1.543 0 -1.543 -0.781"/><path d="m 15.898 10.711 c 0 0.473 -0.395 0.859 -0.883 0.859 c -0.484 0 -0.883 -0.387 -0.883 -0.859 c 0 -0.473 0.398 -0.855 0.883 -0.855 c 0.488 0 0.883 0.383 0.883 0.855"/><path d="m 10.605 6.426 c -3.969 0 -4.41 0 -4.41 2.57 v 4.289 c 0 1.395 0.129 2.031 0.883 2.324 v -6.613 c 0 -1.551 0.023 -1.695 2.645 -1.711 v -0.004 h 5.961 c -0.391 -0.855 -1.441 -0.855 -4.195 -0.855"/><path d="m 8.84 4.711 c -3.969 0 -4.41 0 -4.41 2.57 v 4.289 c 0 1.395 0.133 2.031 0.883 2.324 v -6.613 c 0 -1.551 0.027 -1.695 2.645 -1.711 v -0.004 h 5.961 c -0.387 -0.855 -1.441 -0.855 -4.195 -0.855"/></g><path d="m 18.09 18.824 c 17.199 -22.797 -30.13 -26.04 -14.941 -2.766 c 3.465 5.305 10.387 8.801 14.941 2.766" fill="#9acd31"/><g fill="#fff"><path d="m 6.223 15.793 c -0.605 -0.551 -1.449 -1.746 -1.637 -2.313 c -0.102 -0.309 -0.078 -0.402 0.281 -1.082 c 0.715 -1.363 0.766 -2.5 0.168 -3.73 l -0.262 -0.535 l 0.199 -0.395 c 0.309 -0.605 1.371 -1.965 1.785 -2.293 c 0.773 -0.605 0.75 -0.609 1.242 0.262 l 0.441 0.777 l -0.766 0.82 c -2.094 2.23 -2.215 4.559 -0.359 6.715 c 0.309 0.355 0.559 0.691 0.563 0.746 c 0 0.188 -0.84 1.551 -0.957 1.551 c -0.07 0 -0.387 -0.234 -0.699 -0.523"/><path d="m 10.578 14.48 c -1.258 -0.27 -2.281 -1.082 -2.828 -2.23 c -0.285 -0.605 -0.32 -0.773 -0.32 -1.578 c 0 -0.793 0.035 -0.969 0.293 -1.492 c 0.398 -0.816 1.383 -1.77 2.129 -2.07 c 0.461 -0.188 0.766 -0.234 1.531 -0.234 c 0.902 0 0.996 0.02 1.715 0.375 c 1.379 0.684 2.098 1.73 2.16 3.152 c 0.066 1.441 -0.316 2.324 -1.395 3.219 c -0.941 0.785 -2.156 1.105 -3.285 0.859 m -0.5 -4.01 c 0.477 -0.246 1.188 -0.938 1.406 -1.367 c 0.246 -0.48 0.25 -1.187 0.012 -1.484 c -0.262 -0.32 -1.023 -0.379 -1.617 -0.121 c -1.367 0.594 -2.172 2.262 -1.441 2.988 c 0.23 0.234 0.313 0.254 0.789 0.207 c 0.293 -0.031 0.676 -0.133 0.852 -0.223"/><path d="m 16.527 10.11 c -0.238 -1.176 -0.797 -2.23 -1.672 -3.145 c -1.188 -1.242 -2.684 -1.582 -4.715 -1.074 c -0.32 0.078 -0.598 0.133 -0.613 0.113 c -0.16 -0.16 -0.93 -1.527 -0.895 -1.582 c 0.023 -0.039 0.348 -0.199 0.719 -0.352 c 0.543 -0.223 0.875 -0.285 1.699 -0.32 c 0.563 -0.027 1.129 -0.02 1.262 0.016 c 0.145 0.035 0.453 0.34 0.762 0.758 c 0.902 1.215 2.086 1.895 3.324 1.898 l 0.672 0.004 l 0.547 1.086 c 0.555 1.109 0.953 2.152 0.953 2.496 c 0 0.25 -0.117 0.289 -1.129 0.371 l -0.848 0.066"/><path d="m 9.43 17.375 c -0.656 -0.137 -1.352 -0.402 -1.352 -0.523 c 0 -0.145 0.82 -1.445 0.938 -1.492 c 0.066 -0.027 0.449 0.023 0.848 0.105 c 1 0.211 2.309 0.195 3.137 -0.031 c 0.715 -0.199 1.633 -0.703 2.02 -1.113 c 0.418 -0.434 0.953 -1.422 1.168 -2.148 c 0.113 -0.387 0.258 -0.734 0.32 -0.773 c 0.063 -0.043 0.512 -0.074 1 -0.078 h 0.883 l -0.066 0.523 c -0.102 0.789 -0.301 1.398 -0.703 2.164 c -0.535 1.02 -0.664 1.109 -1.711 1.207 c -1.297 0.121 -2.152 0.504 -2.836 1.262 c -0.195 0.215 -0.414 0.539 -0.488 0.715 l -0.133 0.324 l -1.215 -0.008 c -0.664 -0.008 -1.48 -0.066 -1.809 -0.133"/></g></svg>