<svg xmlns="http://www.w3.org/2000/svg" viewBox="0 0 22 22"><path d="m 21.293 14.03 c 4.082 -11.387 -10.582 -16.922 -16.09 -12.289 c -5.508 4.637 -7.391 12.582 -1.152 16.578 c 6.242 3.996 13.164 7.098 17.242 -4.289" fill="#be0000"/><path d="m 7.594 7.379 c 0.605 -0.402 1.238 -0.867 1.895 -1.398 c 0.668 -0.535 1.098 -0.98 1.285 -1.348 c 0.215 0.082 0.367 0.18 0.469 0.293 c 0.105 0.109 0.16 0.223 0.16 0.348 c 0 0.426 -0.477 0.883 -1.43 1.371 c -0.945 0.488 -1.738 0.734 -2.379 0.734 m 2.75 -0.215 c 0.355 -0.355 0.699 -0.656 1.027 -0.906 c 0.34 -0.258 0.727 -0.387 1.164 -0.387 c 0.293 0 0.555 0.082 0.789 0.242 c 0.09 0.086 0.133 0.246 0.133 0.477 c 0 0.492 -0.199 1.199 -0.602 2.133 c -0.398 0.93 -0.672 1.469 -0.813 1.609 c 0.703 -0.219 1.293 -0.387 1.762 -0.504 c 0.473 -0.125 0.918 -0.188 1.336 -0.188 c 0.18 0 0.344 0.012 0.496 0.039 c 0.16 0.027 0.309 0.109 0.441 0.242 c -0.145 0.113 -0.285 0.227 -0.43 0.332 c -1.148 0.16 -2.207 0.328 -3.18 0.504 c -0.285 0.074 -0.707 0.215 -1.27 0.43 c -0.559 0.211 -0.984 0.352 -1.27 0.426 v 0.41 c 0.988 -0.363 1.82 -0.629 2.488 -0.797 c 0.668 -0.168 1.391 -0.254 2.176 -0.254 c 0.492 0 0.859 0.125 1.109 0.371 c 0.25 0.25 0.375 0.547 0.375 0.895 c 0 0.887 -0.387 1.887 -1.164 2.996 c -0.766 1.102 -1.508 1.648 -2.23 1.648 c -0.195 0 -0.418 -0.066 -0.668 -0.199 c -0.25 -0.133 -0.594 -0.344 -1.027 -0.637 c 1 0 1.879 -0.41 2.617 -1.227 c 0.742 -0.816 1.211 -1.535 1.418 -2.156 c 0.055 -0.23 -0.094 -0.414 -0.441 -0.547 c -0.348 -0.133 -0.816 -0.199 -1.402 -0.199 c -0.5 0 -1 0.043 -1.512 0.133 c -0.508 0.082 -0.902 0.172 -1.188 0.281 c -0.277 0.098 -0.445 0.148 -0.508 0.16 c -0.063 0.008 -0.121 0.012 -0.176 0.012 c -0.195 0 -0.363 -0.055 -0.508 -0.16 c -0.141 -0.113 -0.211 -0.223 -0.211 -0.32 c 0.125 -0.684 0.207 -1.195 0.254 -1.531 c 0.051 -0.336 0.078 -0.629 0.078 -0.879 c 0 -0.309 -0.027 -0.621 -0.078 -0.93 c -0.047 -0.32 -0.129 -0.684 -0.254 -1.094 c 0.348 0 0.574 0.133 0.68 0.398 c 0.117 0.27 0.176 0.91 0.176 1.934 c 0.168 -0.09 0.422 -0.191 0.762 -0.309 c 0.348 -0.113 0.676 -0.227 0.988 -0.332 l 0.078 -0.613 c -0.23 0 -0.453 0.039 -0.668 0.121 c -0.203 0.078 -0.414 0.16 -0.625 0.238 c -0.172 0 -0.348 -0.129 -0.535 -0.387 c 0.578 -0.281 0.977 -0.457 1.203 -0.516 c 0.223 -0.074 0.457 -0.109 0.707 -0.109 l 0.199 -1.063 c -0.168 0 -0.418 0.02 -0.746 0.066 c -0.332 0.043 -0.648 0.09 -0.949 0.145 m -0.414 5.926 c 0.266 -0.133 0.539 -0.238 0.813 -0.32 c 0.285 -0.078 0.555 -0.121 0.801 -0.121 c 0.324 0 0.57 0.094 0.75 0.281 c 0.188 0.176 0.281 0.332 0.281 0.465 c 0 0.188 -0.23 0.313 -0.695 0.375 c -0.465 0.051 -0.82 0.098 -1.07 0.133 c -0.246 0.035 -0.426 0.059 -0.531 0.066 c -0.109 0.008 -0.211 0.012 -0.309 0.012 c -0.41 0 -0.781 -0.066 -1.109 -0.199 c -0.328 -0.141 -0.539 -0.301 -0.629 -0.48 c 0.098 -0.043 0.211 -0.07 0.336 -0.078 c 0.133 -0.02 0.305 -0.027 0.52 -0.027 c 0.203 0 0.371 -0.004 0.496 -0.012 c 0.133 -0.02 0.246 -0.051 0.348 -0.094 m -4.25 0.84 c 0.578 0 1.066 -0.023 1.469 -0.066 c 0.402 -0.055 0.691 -0.102 0.867 -0.148 c 0 0.242 -0.137 0.445 -0.414 0.613 c -0.273 0.16 -0.586 0.238 -0.934 0.238 c -0.25 0 -0.469 -0.051 -0.656 -0.16 c -0.176 -0.105 -0.289 -0.266 -0.332 -0.477 m 5.973 -4.01 l -1.723 0.41 v 0.855 l 1.695 -0.641 l 0.027 -0.625" fill="#fff"/></svg>