<svg xmlns="http://www.w3.org/2000/svg" viewBox="0 0 22 22"><path d="m 0.082 10.965 c -1.664 -14.766 22.18 -14.559 21.898 0.262 c 0.785 13.781 -23.2 15.03 -21.898 -0.262" fill="#2a4a4a"/><g stroke="#01ffff" transform="matrix(0.07776 0 0 0.0789 1.268 2.445)"><path d="m 144.95 86.89 c -0.804 1.98 0.201 3.515 3.466 5.298 c 3.567 1.881 7.083 5.545 8.59 8.912 c 1.256 2.822 2.462 4.456 3.717 5.05 c 1.407 0.594 4.973 0.248 4.973 -0.495 c 0 -0.446 -0.603 -0.743 -1.859 -0.891 c -2.763 -0.347 -3.366 -0.891 -5.074 -4.506 c -1.909 -4.01 -4.823 -7.179 -8.841 -9.506 c -1.658 -0.99 -3.115 -2.079 -3.265 -2.426 c -0.151 -0.446 0.251 -1.089 1.055 -1.832 c 1.407 -1.238 4.119 -3.664 3.165 -4.06 c -0.1 0 -1.557 0.347 -1.708 0.396 m 14.819 9.06 c -0.201 -0.05 -0.301 -0.05 -0.402 0 c -1.256 0.495 -0.502 1.584 2.01 2.822 c 1.407 0.693 2.914 1.634 3.366 2.129 c 0.452 0.495 1.155 0.941 1.557 0.941 c 1.155 0.05 0.854 -1.535 -0.603 -2.822 c -1.457 -1.287 -4.622 -2.921 -5.928 -3.07 m -21.249 0.891 c -0.151 0.05 -0.301 0.099 -0.402 0.149 c -0.754 0.842 0.05 1.733 1.808 2.03 c 4.923 0.842 9.444 5.644 10.1 10.595 c 0.1 0.891 0.251 1.881 0.352 2.228 c 0.402 1.238 1.206 0.099 1.356 -1.832 c 0.201 -3.614 -2.361 -8.219 -6.03 -10.694 c -1.708 -1.188 -4.772 -2.278 -6.43 -2.476 c -0.301 0 -0.553 0 -0.754 0 m -16.02 2.079 c -2.512 0.05 -7.234 0.99 -13.815 2.773 c -8.389 2.278 -13.664 4.308 -20.14 7.625 c -8.992 4.654 -11.353 7.575 -9.344 11.685 c 1.256 2.525 5.877 5.842 12.11 8.565 c 2.763 1.238 2.713 1.188 3.265 0.495 c 0.653 -0.792 0.1 -1.337 -2.21 -2.228 c -3.768 -1.485 -7.636 -3.763 -9.494 -5.595 c -2.411 -2.327 -2.813 -3.515 -1.959 -5.1 c 2.612 -4.654 20.747 -12.378 35.717 -15.25 c 7.736 -1.485 7.837 -1.485 7.837 -2.228 c 0 -0.347 -0.352 -0.594 -1.055 -0.693 c -0.251 0 -0.553 -0.05 -0.904 -0.05 m 10.7 1.188 c -0.201 0 -0.402 0 -0.603 0 c -0.502 0.099 -1 0.347 -1.407 0.743 c -1.457 1.337 -0.703 3.911 1.256 4.605 c 1.457 0.495 3.316 -1.04 3.316 -2.624 c 0 -1.584 -1.256 -2.624 -2.562 -2.723 m -0.1 1.733 c 0.352 0 0.603 0.396 0.603 0.891 c 0 0.495 -0.251 0.891 -0.603 0.891 c -0.352 0 -0.653 -0.396 -0.653 -0.891 c 0 -0.495 0.301 -0.891 0.653 -0.891 m 5.677 3.614 c -0.151 0 -0.251 0 -0.352 0.05 c -1.105 0.446 -0.653 1.485 1 2.179 c 2.11 0.891 2.612 1.782 3.969 6.932 c 1.356 5.149 2.261 6.684 4.722 8.02 c 2.01 1.089 2.562 1.089 2.763 0.05 c 0.1 -0.446 -0.603 -1.139 -1.909 -1.881 c -2.261 -1.287 -2.21 -1.238 -4.521 -9.655 c -0.904 -3.268 -1.708 -4.308 -4.169 -5.347 c -0.502 -0.248 -1.105 -0.347 -1.507 -0.347 m -30.09 14.705 c -1.155 0 -2.361 0.693 -2.863 2.228 c -0.452 1.238 0.05 2.971 1.055 3.763 c 1.909 1.584 4.772 -0.05 4.772 -2.723 c 0 -1.832 -1.155 -2.971 -2.462 -3.218 c -0.151 -0.05 -0.301 -0.05 -0.502 -0.05 m -68.12 6.238 c -15.221 0 -27.579 13.12 -27.579 29.26 c 0 16.14 12.358 29.26 27.579 29.26 c 11.504 0 21.35 -7.476 25.519 -18.02 c -1.708 -0.594 -2.01 -0.693 -3.416 -1.188 c -3.667 9.06 -12.157 15.398 -22.1 15.398 c -13.262 0 -24.01 -11.388 -24.01 -25.449 c 0 -14.06 10.75 -25.449 24.01 -25.449 c 9.09 0 16.979 5.298 21.05 13.17 l 2.964 -2.179 c -4.772 -8.813 -13.714 -14.804 -24.01 -14.804 m 160.45 0.099 c -11.454 0 -21.3 7.476 -25.469 18.02 c 1.708 0.594 2.01 0.693 3.416 1.188 c 3.667 -9.06 12.157 -15.398 22.05 -15.398 c 13.312 0 24.01 11.388 24.01 25.449 c 0 14.06 -10.7 25.449 -24.01 25.449 c -9.09 0 -16.979 -5.298 -21.05 -13.17 l -2.964 2.179 c 4.772 8.813 13.764 14.804 24.01 14.804 c 15.221 0 27.629 -13.12 27.629 -29.26 c 0 -16.14 -12.408 -29.26 -27.629 -29.26 m -45.21 1.089 c -2.411 0 -3.215 3.367 -1.256 5.298 c 2.813 2.723 8.439 5.991 13.965 7.971 c 3.115 1.188 3.617 1.188 3.617 0 c 0 -0.644 -0.703 -1.089 -3.064 -1.98 c -4.32 -1.584 -6.681 -2.822 -10.6 -5.496 c -3.416 -2.426 -4.069 -3.367 -2.562 -3.862 c 1.155 -0.347 1.105 -1.931 -0.1 -1.931 m -40.19 2.822 c -1.155 -0.05 -1.808 0.446 -1.557 1.188 c 0.151 0.446 1.658 0.743 5.727 1.139 c 17.03 1.683 28.383 5.892 34.21 12.724 c 4.02 4.704 6.179 12.823 7.284 27.528 c 0.452 5.694 0.603 6.436 1.206 6.436 c 1.055 0 1.055 -0.248 0.703 -5.991 c -0.804 -13.715 -3.165 -23.12 -7.133 -28.519 c -5.224 -7.179 -17.683 -12.328 -33.456 -13.814 c -2.863 -0.297 -5.727 -0.594 -6.43 -0.693 c -0.201 0 -0.352 0 -0.553 0 m 7.234 14.853 c -0.201 0.05 -0.402 0.099 -0.502 0.198 c -0.553 0.495 -1.658 12.625 -1.256 13.715 c 0.251 0.743 0.904 0.842 1.306 0.198 c 0.151 -0.248 0.553 -3.416 0.854 -7.03 c 0.502 -5.397 0.553 -6.635 0.1 -6.932 c -0.151 -0.099 -0.352 -0.149 -0.502 -0.099 m 61.24 0.149 c -1.256 0 -3.215 5.793 -2.562 7.625 c 0.151 0.396 0.603 0.644 1 0.545 c 0.502 -0.099 0.754 -0.743 0.954 -2.327 c 0.151 -1.238 0.603 -2.773 0.954 -3.367 c 0.804 -1.287 0.603 -2.476 -0.352 -2.476 m -51.742 0.446 c -0.201 0 -0.402 0.05 -0.553 0.198 c -0.352 0.248 -0.603 0.792 -0.603 1.386 c 0 0.693 -0.251 3.664 -0.553 6.684 c -0.352 3.565 -0.402 5.644 -0.151 5.991 c 0.251 0.297 0.603 0.545 0.804 0.545 c 0.603 0 0.703 -0.693 1.356 -7.625 c 0.352 -3.812 0.452 -6.684 0.251 -6.932 c -0.201 -0.149 -0.352 -0.248 -0.553 -0.248 m 11.1 0.396 c -1.155 0 -0.804 1.485 0.502 2.278 c 1.608 0.99 2.914 3.268 2.914 5.199 c 0 1.98 -1.457 4.308 -3.265 5.248 c -1.808 0.99 -2.261 1.485 -1.909 2.129 c 0.452 0.743 2.562 0.198 4.119 -1.089 c 2.763 -2.228 3.617 -6.684 1.909 -10.15 c -0.904 -1.881 -2.914 -3.614 -4.27 -3.614 m -5.375 0.545 c -0.251 -0.05 -0.553 0 -0.703 0.198 c -0.352 0.396 -1.557 12.823 -1.306 13.616 c 0.1 0.297 0.452 0.446 0.854 0.396 c 0.502 -0.099 0.754 -0.99 1.105 -4.06 c 0.954 -8.318 1 -9.803 0.352 -10.1 c -0.1 -0.05 -0.201 -0.05 -0.251 -0.05 m -79.974 5.149 c -0.703 0 -0.854 0.347 -1.055 2.129 c -0.151 1.188 -0.653 2.971 -1.105 3.961 c -0.502 0.99 -0.804 2.079 -0.653 2.426 c 0.754 2.228 3.165 -1.931 3.416 -6.04 c 0.201 -2.228 0.1 -2.476 -0.603 -2.476 m 39.18 1.733 c -2.311 0.05 -4.22 0.743 -5.626 2.03 c -0.854 0.792 -2.01 0.792 -5.928 0.149 c -9.243 -1.485 -12.86 -1.634 -16.377 -0.644 c -2.612 0.693 -5.626 2.624 -5.626 3.565 c 0 0.941 1.206 1.188 2.01 0.347 c 0.452 -0.396 1.708 -1.089 2.863 -1.535 c 3.316 -1.337 8.439 -1.139 20.19 0.842 c 5.576 0.941 10.951 1.733 11.956 1.733 c 2.462 0.05 3.667 -0.842 3.667 -2.723 c 0 -1.832 -0.904 -2.723 -3.265 -3.317 c -1 -0.248 -1.959 -0.347 -2.863 -0.446 c -0.352 0 -0.703 0 -1 0 m 0.452 1.98 c 2.662 0.05 5.526 1.04 4.622 2.179 c -0.251 0.347 -0.603 0.594 -0.754 0.594 c -0.151 -0.05 -1.457 -0.248 -2.914 -0.446 c -1.457 -0.198 -3.316 -0.495 -4.069 -0.644 l -1.407 -0.248 l 1 -0.743 c 0.553 -0.396 1.407 -0.594 2.361 -0.693 c 0.352 0 0.754 -0.05 1.155 0" fill="#01ffff" stroke-width="1.054"/><path d="m 185.29 28.765 h 6.38 c 0.653 0 1.206 0.545 1.206 1.238 v 31.09 c 0 0.693 -0.553 1.238 -1.206 1.238 h -4.32 l -11.403 -12.972 v -5.892 h 8.188 v -13.467 c 0 -0.693 0.502 -1.238 1.155 -1.238 m -20.647 33.569 h -6.279 c -0.653 0 -1.206 -0.545 -1.206 -1.188 v -31.14 c 0 -0.693 0.553 -1.238 1.206 -1.238 h 4.27 l 11.303 12.972 v 5.892 h -8.09 v 13.517 c 0 0.644 -0.553 1.188 -1.206 1.188 m -29.337 -34.16 c 9.947 0 17.984 7.724 17.984 17.28 c 0 9.506 -8.04 17.28 -17.984 17.28 c -9.947 0 -18.03 -7.724 -18.03 -17.28 c 0 -9.556 8.09 -17.28 18.03 -17.28 m 0 7.823 c 5.425 0 9.846 4.258 9.846 9.457 c 0 5.199 -4.421 9.407 -9.846 9.407 c -5.425 0 -9.846 -4.208 -9.846 -9.407 c 0 -5.199 4.421 -9.457 9.846 -9.457 m -44.06 5.05 h 22.807 c 0.703 0 1.256 0.545 1.256 1.188 c 0 4.506 -7.686 7.328 -8.04 7.328 h -5.02 c 0.1 0.05 0.151 0.149 0.251 0.198 l 12.961 12.229 c 0.553 0.495 0.452 0.941 -0.151 0.941 h -8.942 c -0.603 0 -1.507 -0.446 -2.06 -0.941 c -1.206 -1.139 -14.267 -12.923 -14.267 -13.616 v -6.139 c 0 -0.644 0.553 -1.188 1.206 -1.188 m -11.805 0.248 h 6.03 c 0.854 0 1.557 0.644 1.557 1.436 v 18.616 c 0 0.842 -0.703 1.485 -1.557 1.485 h -6.03 c -0.854 0 -1.507 -0.644 -1.507 -1.485 v -18.616 c 0 -0.792 0.653 -1.436 1.507 -1.436 m -17.934 21.04 h -6.078 c -0.804 0 -1.507 -0.644 -1.507 -1.436 v -25.647 c 0 -0.495 2.612 -6.536 7.585 -6.536 h 44.91 c 3.667 0 7.184 3.515 8.339 8.219 h -51.742 v 23.964 c 0 0.792 -0.653 1.436 -1.507 1.436 m -22.455 -33.371 h 9.344 c 0.854 0 1.507 0.644 1.507 1.436 v 5.347 c 0 0.792 -0.653 1.436 -1.507 1.436 h -9.344 c -0.804 0 -1.507 -0.644 -1.507 -1.436 v -5.347 c 0 -0.792 0.703 -1.436 1.507 -1.436" fill="none" stroke-linecap="square" stroke-width="1.346" stroke-miterlimit="3"/></g><g fill="#01ffff"><path d="m 5.531 7.254 c -0.008 -0.016 -0.012 -0.488 -0.008 -1.043 l 0.008 -1.016 l 0.098 -0.141 c 0.059 -0.086 0.145 -0.168 0.211 -0.211 l 0.117 -0.066 l 1.758 -0.008 c 1.195 -0.004 1.801 0.004 1.891 0.023 c 0.191 0.039 0.41 0.246 0.473 0.441 l 0.016 0.055 h -4 v 2 h -0.277 c -0.203 0 -0.277 -0.008 -0.285 -0.035"/><path d="m 4.262 5.297 c -0.031 -0.027 -0.02 -0.445 0.016 -0.477 c 0.039 -0.043 0.746 -0.043 0.789 0 c 0.031 0.031 0.043 0.383 0.012 0.453 c -0.012 0.035 -0.07 0.043 -0.406 0.043 c -0.215 0 -0.402 -0.008 -0.41 -0.02"/><path d="m 7.406 7.309 c -0.008 -0.02 -0.012 -0.371 -0.008 -0.781 l 0.008 -0.75 h 0.547 v 1.547 l -0.266 0.008 c -0.203 0.008 -0.273 0 -0.281 -0.023"/><path d="m 9.375 7.234 c -0.066 -0.055 -0.328 -0.297 -0.578 -0.539 l -0.457 -0.438 l 0.008 -0.254 l 0.008 -0.25 l 0.895 -0.008 c 0.809 -0.008 0.895 -0.004 0.906 0.035 c 0.043 0.102 -0.156 0.316 -0.41 0.441 c -0.117 0.059 -0.156 0.066 -0.41 0.066 h -0.281 l 0.148 0.145 c 0.082 0.078 0.328 0.316 0.547 0.523 l 0.398 0.383 h -0.656"/><path d="m 11.613 7.313 c -0.422 -0.055 -0.813 -0.324 -1.01 -0.699 c -0.105 -0.207 -0.145 -0.359 -0.145 -0.598 c 0.004 -0.703 0.602 -1.277 1.328 -1.277 c 0.734 0 1.324 0.574 1.324 1.289 c 0 0.781 -0.703 1.387 -1.5 1.285 m 0.527 -0.555 c 0.5 -0.23 0.629 -0.871 0.258 -1.27 c -0.391 -0.414 -1.094 -0.316 -1.352 0.188 c -0.078 0.148 -0.105 0.43 -0.059 0.578 c 0.047 0.145 0.191 0.344 0.305 0.426 c 0.25 0.172 0.578 0.203 0.848 0.078"/><path d="m 13.582 7.297 c -0.012 -0.008 -0.02 -0.578 -0.02 -1.262 v -1.246 l 0.168 0.004 h 0.168 l 0.422 0.492 l 0.418 0.492 v 0.363 h -0.648 l -0.008 0.578 l -0.008 0.582 l -0.238 0.008 c -0.129 0.004 -0.246 -0.004 -0.254 -0.012"/><path d="m 15.441 6.809 l -0.43 -0.5 v -0.371 h 0.648 v -1.148 l 0.27 0.008 l 0.27 0.004 l 0.004 1.223 c 0.008 0.883 0 1.23 -0.02 1.254 c -0.02 0.023 -0.082 0.035 -0.168 0.035 h -0.141"/><path d="m 13.18 8.762 c 0.016 -0.035 0.082 -0.117 0.145 -0.18 c 0.461 -0.445 1.25 -0.172 1.492 0.516 c 0.059 0.164 0.074 0.473 0.031 0.582 l -0.027 0.066 l -0.488 -0.738 l -0.523 -0.301 l -0.656 0.121"/></g></svg>