<svg xmlns="http://www.w3.org/2000/svg" viewBox="0 0 22 22"><path d="m 21.371 13.785 c 3.758 -11.582 -11.164 -16.707 -16.566 -11.875 c -5.402 4.836 -7.05 12.887 -0.652 16.719 c 6.402 3.832 13.461 6.742 17.219 -4.844" fill="#8fb3d0"/><path d="m 9.422 16.98 c -2.504 -0.871 -4.668 -1.605 -4.84 -1.707 c -0.34 -0.195 -0.527 -0.535 -0.586 -1.055 c -0.051 -0.48 2.863 -8.949 3.207 -9.438 c 0.863 -1.465 3.789 0.277 5.621 0.91 c 4.703 1.629 5.375 1.672 5.586 1.953 c 0.5 0.676 0.102 0.695 -1.383 5.656 c -0.746 2.488 -1.527 4.453 -1.613 4.582 c -0.266 0.402 -0.527 0.512 -0.93 0.457 c -0.199 -0.027 -2.469 -0.617 -5.063 -1.359" fill="#fff"/><path d="m 14.11 18.516 c -0.066 -0.02 -1.375 -0.441 -2.906 -0.941 c -1.531 -0.496 -2.801 -0.902 -2.824 -0.906 c -0.02 0 0.137 -0.148 0.355 -0.324 c 0.691 -0.566 1.07 -1.293 0.773 -1.473 c -0.16 -0.098 -1.223 -0.145 -1.395 -0.066 c -0.246 0.168 -0.449 0.395 -0.703 0.523 c -0.504 0.254 -1.445 0.176 -1.863 -0.152 c -0.188 -0.148 -0.414 -0.605 -0.457 -0.926 c -0.051 -0.371 -0.063 -0.371 2.301 -0.266 c 1.168 0.055 2.187 0.086 2.266 0.074 c 0.074 -0.008 0.184 -0.082 0.246 -0.16 c 0.094 -0.125 0.102 -0.215 0.07 -0.734 c -0.047 -0.766 -0.184 -1.246 -0.516 -1.813 c -0.527 -0.902 -1.469 -1.457 -2.574 -1.52 c -0.48 -0.023 -1.168 0.059 -1.492 0.18 c -0.086 0.035 -0.168 0.047 -0.18 0.031 c -0.016 -0.016 0.055 -0.25 0.156 -0.527 c 0.203 -0.563 0.891 -2.605 1.367 -4.066 c 0.254 -0.785 0.352 -1.01 0.508 -1.16 c 0.266 -0.266 0.523 -0.367 0.887 -0.344 c 0.316 0.016 8.863 2.766 9.691 3.113 c 0.551 0.234 0.867 0.578 0.848 0.93 c -0.008 0.117 -0.043 0.121 -0.746 0.078 c -0.52 -0.027 -0.785 -0.02 -0.91 0.035 c -0.117 0.051 -0.461 0.469 -1.059 1.293 c -0.617 0.844 -0.922 1.215 -0.996 1.211 c -0.395 -0.363 -0.621 -0.934 -0.898 -1.402 c -0.203 -0.344 -0.453 -0.77 -0.555 -0.949 c -0.227 -0.406 -0.363 -0.457 -1.363 -0.516 c -0.871 -0.051 -1.129 0 -1.141 0.215 c -0.004 0.09 0.254 0.586 0.652 1.25 c 1.531 2.551 1.805 3.03 1.797 3.145 c -0.004 0.07 -0.723 1.063 -1.598 2.203 c -1.629 2.125 -1.746 2.32 -1.496 2.469 c 0.168 0.102 1.77 0.18 1.961 0.098 c 0.191 -0.082 0.316 -0.23 1.391 -1.664 c 0.492 -0.66 0.891 -1.137 0.945 -1.133 c 0.086 0.004 0.41 0.52 1.063 1.695 l 0.27 0.477 l -0.234 0.691 c -0.125 0.383 -0.273 0.766 -0.324 0.852 c -0.246 0.41 -0.836 0.625 -1.316 0.48 m 2.09 -6.01 c 0.008 -0.137 0.266 -0.512 1.164 -1.691 c 0.441 -0.582 0.809 -1.02 0.816 -0.977 c 0.008 0.043 -0.199 0.703 -0.461 1.465 c -0.648 1.914 -0.793 2.531 -0.836 2.531 c -0.168 -0.473 -0.57 -0.832 -0.684 -1.328 m -10.961 -0.043 c -0.102 -0.109 -0.043 -0.324 0.172 -0.605 c 0.336 -0.445 1.012 -0.625 1.598 -0.422 c 0.191 0.066 0.426 0.199 0.531 0.293 c 0.301 0.277 0.504 0.949 0.285 0.938 c -0.047 -0.004 -0.629 -0.031 -1.297 -0.059 c -0.969 -0.043 -1.227 -0.074 -1.289 -0.145" fill="#0870b1"/><path d="m 11.246 17.574 c -1.539 -0.5 -2.813 -0.926 -2.828 -0.941 c -0.012 -0.012 0.047 -0.066 0.133 -0.117 c 0.242 -0.145 0.508 -0.41 0.781 -0.773 c 0.523 -0.699 0.438 -0.91 -0.379 -0.973 c -0.789 -0.059 -0.789 -0.059 -1.098 0.215 c -0.156 0.141 -0.406 0.305 -0.551 0.367 c -0.355 0.156 -0.922 0.16 -1.34 0.016 c -0.305 -0.105 -0.648 -0.363 -0.641 -0.477 c 0.301 -0.355 0.566 -0.59 0.922 -0.93 l 1.539 0.086 c 0.848 0.047 1.652 0.066 1.785 0.047 c 0.371 -0.063 0.43 -0.164 0.422 -0.746 c -0.004 -0.273 0.008 -0.496 0.027 -0.496 c 0.016 0 0.113 0.074 0.219 0.16 c 0.305 0.258 0.488 0.313 0.738 0.227 c 0.117 -0.039 0.613 -0.336 1.102 -0.66 c 0.73 -0.484 0.906 -0.578 0.996 -0.523 c 0.188 0.109 0.324 0.32 0.289 0.43 c -0.02 0.059 -0.742 1.031 -1.605 2.16 c -0.859 1.129 -1.57 2.094 -1.57 2.145 c -0.016 0.227 0.215 0.297 1.129 0.348 c 1 0.059 1.148 0.023 1.391 -0.324 c 0.566 -0.816 1.879 -2.496 1.945 -2.492 c 0.109 0.004 1.262 2.047 1.254 2.211 c -0.012 0.246 -0.391 1.293 -0.547 1.527 c -0.211 0.32 -0.566 0.48 -0.984 0.453 c -0.215 -0.016 -1.285 -0.336 -3.129 -0.938 m -6.02 -5.238 c 0.031 -0.563 0.762 -1.039 1.453 -0.945 c 0.043 0.008 -0.191 0.27 -0.52 0.578 c -0.488 0.461 -0.633 0.566 -0.773 0.559 c -0.152 -0.008 -0.172 -0.031 -0.16 -0.191 m 11.578 0.035 c -0.152 -0.184 -0.273 -0.363 -0.27 -0.406 c 0.004 -0.078 1.598 -2.16 1.625 -2.125 c 0.012 0.012 -0.16 0.566 -0.383 1.23 c -0.223 0.664 -0.441 1.309 -0.48 1.43 c -0.039 0.121 -0.105 0.215 -0.148 0.211 c -0.039 -0.008 -0.195 -0.16 -0.344 -0.34 m -7.672 -3.738 c -1.359 -1.145 -2.562 -2.266 -2.617 -2.328 c 0.215 -0.727 0.32 -1 0.668 -1.93 c 0.203 -0.266 0.578 -0.434 0.922 -0.414 c 0.141 0.008 2.227 0.652 4.66 1.441 c 5.121 1.66 4.621 1.488 4.594 1.551 c -0.031 0.078 -3.199 2.16 -3.281 2.156 c -0.387 -0.324 -0.578 -0.832 -0.875 -1.223 c -0.195 -0.113 -1.879 -0.234 -2.07 -0.148 c -0.293 0.137 -0.266 0.219 0.531 1.512 c 0.316 0.512 0.582 0.973 0.59 1.023 c 0.016 0.082 -0.488 0.457 -0.598 0.441 c -0.027 -0.004 -1.164 -0.941 -2.523 -2.082 m -3.895 1.344 c 0.004 -0.105 0.242 -0.777 0.289 -0.824 c 0.34 0.16 0.547 0.375 0.855 0.629 l -0.219 0.043 c -0.305 0.047 -0.672 0.195 -0.926 0.152" fill="#025292"/></svg>