<svg xmlns="http://www.w3.org/2000/svg" viewBox="0 0 22 22"><path d="m 19.656 16.723 c 7.836 -11.05 -6.641 -22.24 -15.875 -13.238 c -8.699 8.48 -0.633 21.656 10.191 17.539 c 2.262 -0.859 4.242 -2.273 5.684 -4.301" fill="#c1c2c0"/><g transform="scale(0.08594)"><g stroke="#343631" stroke-width="2.71"><path d="m 112.77 192.68 c -0.455 -0.455 -0.773 -2.364 -0.773 -4.318 c 0 -1.909 -0.409 -3.909 -0.864 -4.364 c -1.136 -1.136 -8.545 -1.045 -9.5 0.091 c -0.409 0.5 -0.955 2.682 -1.227 4.864 c -0.364 3.136 -0.727 3.955 -1.591 3.773 c -0.818 -0.182 -1.182 -1.182 -1.318 -4 c -0.136 -2.091 -0.545 -4.182 -0.955 -4.636 c -0.5 -0.545 -2.455 -0.909 -5.182 -0.909 c -3.773 0 -4.545 0.227 -5.227 1.5 c -0.409 0.773 -0.364 2.818 -0.136 4.182 c 0.455 2.955 -0.591 4.364 -2.182 3.773 c -0.727 -0.273 -1.091 -1.273 -1.091 -3.045 c -0.045 -4.5 -0.636 -5.545 -3.727 -6.545 c -2.5 -0.773 -3 -1.318 -3.955 -4 l -1.091 -3.136 h -4.864 c -4.773 0 -4.864 0 -5.05 -1.864 c -0.909 -3.136 2.318 -1.909 4.682 -1.909 c 4.273 0 5 -0.182 5.682 -1.5 c 1.045 -1.909 0.455 -8.136 -0.818 -8.955 c -0.545 -0.318 -2.955 -0.591 -5.318 -0.636 c -4.136 0 -4.364 -0.091 -4.364 -1.636 c 0 -1.545 0.273 -1.682 4.818 -1.909 c 2.682 -0.182 5.091 -0.5 5.364 -0.773 c 0.864 -0.909 1.136 -7.227 0.318 -8.727 c -0.682 -1.227 -1.409 -1.455 -4.773 -1.455 c -4.545 -0.045 -6 -0.682 -5.636 -2.5 c 0.227 -1.091 1.091 -1.364 5 -1.682 c 5.409 -0.364 6.05 -0.955 6.05 -5.5 c 0 -4.591 -0.636 -5.182 -5.273 -5 c -4.182 0.182 -5.864 -0.591 -5.864 -2.636 c 0 -1 0.864 -1.318 4.864 -1.727 c 3.727 -0.364 5.091 -0.773 5.591 -1.727 c 0.864 -1.636 0.864 -4.909 0 -7.182 c -0.591 -1.591 -1.045 -1.727 -5.364 -1.955 c -3.955 -0.136 -4.773 -0.409 -5 -1.455 c -0.364 -2.045 0.955 -2.773 4.909 -2.636 c 2.045 0.045 4.136 -0.182 4.682 -0.5 c 1.364 -0.864 1.818 -7.05 0.636 -8.591 c -0.636 -0.818 -2.318 -1.318 -5.636 -1.636 c -3.727 -0.364 -4.682 -0.682 -4.682 -1.591 c 0 -2 1.591 -2.773 5.727 -2.773 c 3.773 0 4.091 -0.136 4.818 -1.909 c 0.455 -1.227 0.5 -3.045 0.136 -5.05 l -0.591 -3.091 l -4.864 -0.364 c -4.636 -0.318 -4.864 -0.409 -4.864 -2.045 c 0 -1.636 0.227 -1.773 4.727 -2.091 c 4.864 -0.364 6 -1.045 6.05 -3.818 c 0.045 -2 0.773 -2.818 3.136 -3.409 c 3.136 -0.727 3.818 -1.636 3.864 -4.773 c 0 -4.136 0.636 -6 2.091 -6 c 1.864 0 2.318 1.182 2.136 5.227 c -0.091 2.227 0.182 3.818 0.773 4.273 c 1.273 1 4.682 1.455 7.182 0.955 c 2.045 -0.409 2.091 -0.545 2.409 -5.227 c 0.364 -4.636 0.455 -4.864 2.182 -5.091 c 1.818 -0.182 1.864 -0.091 2.136 4.318 c 0.182 2.5 0.636 4.909 1.091 5.318 c 1.045 1.091 7.591 1 8.955 -0.091 c 0.818 -0.682 0.955 -1.727 0.636 -4.409 c -0.455 -4.091 0.182 -5.455 2.5 -5.136 c 1.545 0.227 1.727 0.591 2.045 5.091 c 0.318 4.682 0.364 4.818 2.409 5.227 c 2.455 0.5 6 0.045 7 -0.864 c 0.364 -0.364 0.818 -2.591 1.045 -4.955 c 0.318 -4 0.455 -4.273 2.091 -4.273 c 1.636 0 1.727 0.227 1.909 4.273 c 0.273 5.05 1 5.864 5.318 5.909 c 4.364 0.091 5.182 -0.818 5.455 -5.909 c 0.182 -4.091 0.273 -4.273 2.091 -4.5 c 1.909 -0.182 1.955 -0.182 1.955 3.864 c 0 5.5 0.864 6.545 5.5 6.545 c 2 0 4 -0.364 4.455 -0.818 c 0.455 -0.409 0.818 -2.727 0.818 -5.091 c 0.091 -2.909 -1 -4.273 2.091 -4.273 c 3.136 -0.455 2 1.727 1.909 4.227 c -0.227 5.136 0.5 5.955 5.545 5.955 c 4.545 0 5.455 -1.091 5.455 -6.545 c 0 -4.045 0 -4.045 1.909 -3.864 c 1.864 0.227 1.909 0.364 1.909 4.364 c 0 4.864 0.364 5.636 3.091 6.227 c 2.364 0.5 3.773 2 4.727 4.818 c 0.727 2.227 2.273 2.955 6.636 3.091 c 1.864 0.045 2.636 0.364 2.636 1.091 c 0 1.364 -2.773 2.409 -6.227 2.409 c -3.045 0 -3.5 0.864 -3.545 6.318 c 0 2.727 0.273 3.273 1.773 3.955 c 1 0.455 2.636 0.818 3.727 0.818 c 1.045 0 2.5 0.455 3.273 1 c 1.136 0.909 1.182 1.136 0.273 1.727 c -0.545 0.364 -2.5 0.682 -4.318 0.727 c -3.818 0 -4.727 1.045 -4.727 5.545 c 0 4.364 0.909 5.5 4.409 5.5 c 1.636 0 3.591 0.5 4.364 1.045 c 1.318 1.045 1.318 1.045 0 2.091 c -0.773 0.545 -2.727 1.045 -4.364 1.045 c -3.5 0 -4.409 1.136 -4.409 5.5 c 0 4.591 0.909 5.591 4.818 5.455 c 3.636 -0.136 4.955 0.364 4.955 1.773 c 0 1.182 -1.545 1.773 -4.545 1.773 c -4.273 0 -4.545 0.318 -4.545 5.955 v 5.091 h 3.727 c 2.045 0 4.273 0.455 4.955 0.955 c 1.227 0.864 1.227 0.955 -0.364 2.091 c -0.955 0.636 -3 1.136 -4.955 1.136 h -3.364 v 5.091 c 0 5.773 0.227 5.955 6.136 5.955 c 2.091 0 3.136 0.364 3.409 1.136 c 0.591 1.5 -0.955 2.318 -4.636 2.318 c -1.727 0.045 -3.591 0.318 -4.091 0.636 c -1.045 0.636 -1.364 8.773 -0.364 9.773 c 0.364 0.318 2.5 0.682 4.773 0.818 c 3.682 0.182 4.227 0.364 4.409 1.682 c 0.273 1.864 -1.682 2.591 -5.364 2 c -3 -0.5 -3.636 0 -4.909 3.955 c -0.727 2.182 -1.273 2.682 -3.727 3.409 c -3.636 1.045 -4.091 1.636 -3.591 4.864 c 0.591 3.591 -0.136 5.5 -2 5.227 c -1.364 -0.182 -1.545 -0.682 -1.727 -4.818 l -0.227 -4.636 l -3.818 -0.455 c -2.409 -0.318 -4.5 -0.182 -5.545 0.273 c -1.545 0.682 -1.682 1.182 -1.682 4.955 c 0 3.182 -0.273 4.273 -1.136 4.591 c -1.591 0.636 -2.364 -0.955 -2.364 -5 c 0 -1.909 -0.364 -3.864 -0.864 -4.318 c -0.864 -0.864 -7.273 -1.136 -9.182 -0.409 c -0.864 0.318 -1.091 1.455 -1.091 4.864 c 0 3.455 -0.273 4.545 -1.136 4.864 c -1.545 0.591 -2.364 -0.955 -2.364 -4.455 c 0 -4.864 -0.773 -5.682 -5.545 -5.682 c -5.273 0 -6.318 0.955 -6.318 5.909 c 0 2.045 -0.364 3.909 -0.773 4.182 c -1.409 0.864 -2.682 -1.909 -2.682 -5.636 c 0 -2.636 -0.318 -3.727 -1.136 -4.045 c -1.909 -0.727 -8.318 -0.455 -9.182 0.409 c -0.455 0.455 -0.864 2.636 -0.864 4.773 c 0 4.045 -1.045 5.545 -2.682 3.909" fill="#959693"/><path d="m 97.86 89.45 h 63.14 c 1.818 0 3.273 1.455 3.273 3.273 v 2.455 c 0 1.818 -1.455 3.273 -3.273 3.273 h -63.14 c -1.818 0 -3.273 -1.455 -3.273 -3.273 v -2.455 c 0 -1.818 1.455 -3.273 3.273 -3.273" fill="#edeeec"/></g><g fill="#b9bbb8" stroke="#b9bbb8" stroke-width="2.293"><path d="m 98.09 107.41 h 62.36 c 1.818 0 3.273 1.455 3.273 3.227 c 0 1.818 -1.455 3.273 -3.273 3.273 h -62.36 c -1.773 0 -3.227 -1.455 -3.227 -3.273 c 0 -1.773 1.455 -3.227 3.227 -3.227"/><path d="m 98 123.5 h 62.36 c 1.773 0 3.273 1.455 3.273 3.273 c 0 1.773 -1.5 3.273 -3.273 3.273 h -62.36 c -1.818 0 -3.273 -1.5 -3.273 -3.273 c 0 -1.818 1.455 -3.273 3.273 -3.273"/><path d="m 97.86 139.18 h 62.36 c 1.818 0 3.273 1.455 3.273 3.273 c 0 1.818 -1.455 3.273 -3.273 3.273 h -62.36 c -1.773 0 -3.227 -1.455 -3.227 -3.273 c 0 -1.818 1.455 -3.273 3.227 -3.273"/></g></g></svg>