<svg xmlns="http://www.w3.org/2000/svg" viewBox="0 0 22 22"><path d="m 10.08 21.945 c 13.344 1.27 16.934 -20.13 3.234 -21.793 c -12.602 -2.059 -19.09 17.34 -6.57 21.22 c 1.059 0.426 2.215 0.418 3.336 0.574" fill="#d82c14"/><g fill="#fff" stroke="#fff" transform="matrix(0.0901 0 0 0.08594 -9.102 8.185)"><path d="m 168.86 -14.785 c -1.171 -3.909 0.39 -9.591 3.208 -11.5 c 3.468 -2.364 10.06 -2.227 13.01 0.227 c 1.691 1.409 2.384 3.273 2.384 6.364 c 0 6 -1.431 10.455 -10.145 10.455 c -6.59 0 -7.717 -3.182 -8.454 -5.545" stroke-width="3.252"/><path d="m 172.81 46.624 c -7.457 -3.182 -8.41 -10.364 -2.038 -15.636 c 6.676 -5.5 16.561 -1.318 16.561 7 c 0 7.318 -7.327 11.682 -14.523 8.636" stroke-width="3.607"/><path d="m 205.23 46.08 c -5.853 -1.091 -7.934 -2.545 -7.934 -5.682 c 0 -4.182 3.165 -5.955 13.01 -7.227 c 11.922 -1.545 50.593 -0.591 54.798 1.364 c 5.896 2.773 6.113 9.591 0.347 11.636 c -4.075 1.409 -52.37 1.364 -60.22 -0.091" stroke-width="3.107"/><path d="m 171.76 76.17 c -3.815 -1.545 -5.506 -8.409 -3.208 -12.864 c 1.301 -2.455 7.63 -4.318 11.879 -3.5 c 5.853 1.136 9.191 8.091 6.416 13.409 c -1.734 3.364 -10.188 5 -15.09 2.955" stroke-width="2.925"/><path d="m 170.33 104.26 c -3.035 -1.818 -4.335 -3.955 -4.335 -7.364 c 0 -3.591 3.815 -8.818 7.457 -10.227 c 3.035 -1.182 7.977 0.909 10.795 4.591 c 4.249 5.455 0.043 12.955 -7.76 13.682 c -2.298 0.227 -5.072 -0.091 -6.156 -0.682" stroke-width="2.913"/><path d="m 180.61 16.533 c -8.237 -1.273 -11.1 -2.955 -11.1 -6.591 c 0 -4.909 4.422 -7 18.208 -8.455 c 16.691 -1.818 70.838 -0.682 76.73 1.591 c 8.324 3.227 8.627 11.182 0.564 13.545 c -5.723 1.682 -73.44 1.636 -84.41 -0.091" stroke-width="3.971"/><path d="m 206.79 73.44 c -5.896 -1.045 -7.934 -2.409 -7.934 -5.364 c 0 -4 3.165 -5.682 13.01 -6.909 c 11.965 -1.455 50.723 -0.545 54.971 1.318 c 5.939 2.636 6.156 9.09 0.39 11.05 c -4.119 1.364 -52.587 1.318 -60.43 -0.091" stroke-width="3.03"/><path d="m 206.66 101.49 c -5.723 -1.091 -7.76 -2.591 -7.76 -5.727 c 0 -4.182 3.121 -5.955 12.746 -7.227 c 11.662 -1.591 49.47 -0.591 53.584 1.364 c 5.809 2.773 6.03 9.591 0.39 11.636 c -3.988 1.455 -51.29 1.409 -58.96 -0.045" stroke-width="3.077"/><path d="m 205.93 -14.24 c -5.896 -1.091 -7.934 -2.591 -7.934 -5.682 c 0 -4.227 3.165 -6 13.01 -7.273 c 11.922 -1.545 50.55 -0.545 54.755 1.409 c 5.939 2.773 6.156 9.591 0.39 11.591 c -4.075 1.455 -52.41 1.409 -60.22 -0.045" stroke-width="3.107"/></g></svg>