<svg xmlns="http://www.w3.org/2000/svg" viewBox="0 0 22 22"><path d="m 3.824 4.16 c 8.902 -11.555 24.969 4.02 14.707 14.242 c -8.836 10.25 -25.98 -4.398 -14.707 -14.242" fill="#2c2c2c"/><path d="m 8.563 5.262 h 5.129 c 0.852 0 1.539 0.707 1.539 1.582 v 6.602 c 0 0.879 -0.688 1.586 -1.539 1.586 h -5.129 c -0.852 0 -1.539 -0.707 -1.539 -1.586 v -6.602 c 0 -0.875 0.688 -1.582 1.539 -1.582" fill="#e4e4e4"/><g fill="#4caf4f"><path d="m 8.734 9.883 h 4.785 l -1.195 0.988 l -1.195 0.992 l -1.199 -0.992"/><path d="m 9.762 5.922 h 1.367 v 1.32 h -1.367" fill-opacity="0.8"/><path d="m 11.129 5.922 h 1.367 v 1.32 h -1.367" fill-opacity="0.2"/><path d="m 9.762 7.242 h 1.367 v 1.32 h -1.367" fill-opacity="0.4"/><path d="m 11.129 7.242 h 1.367 v 1.32 h -1.367" fill-opacity="0.902"/><path d="m 9.762 8.563 h 1.367 v 1.32 h -1.367"/><path d="m 11.129 8.563 h 1.367 v 1.32 h -1.367" fill-opacity="0.6"/><path d="m 5.727 12.52 h 10.801 c 0.039 0 0.07 0.031 0.07 0.07 v 3.164 c 0 0.035 -0.031 0.066 -0.07 0.066 h -10.801 c -0.039 0 -0.07 -0.031 -0.07 -0.066 v -3.164 c 0 -0.039 0.031 -0.07 0.07 -0.07"/></g><path d="m 14.887 13.18 c -0.434 0.004 -0.82 0.266 -0.965 0.66 h -3.203 v 0.66 h 3.203 c 0.145 0.395 0.531 0.66 0.965 0.66 c 0.566 0 1.027 -0.441 1.027 -0.988 c 0 -0.547 -0.461 -0.992 -1.027 -0.992" fill-opacity="0.302"/><g fill="#fff"><path d="m 8.391 14.172 c 0 0.547 -0.457 0.988 -1.023 0.988 c -0.566 0 -1.027 -0.441 -1.027 -0.988 c 0 -0.547 0.461 -0.992 1.027 -0.992 c 0.566 0 1.023 0.445 1.023 0.992"/><path d="m 7.297 13.84 h 4.379 v 0.66 h -4.379"/><path d="m 12.496 14.172 c 0 0.547 -0.461 0.988 -1.027 0.988 c -0.566 0 -1.023 -0.441 -1.023 -0.988 c 0 -0.547 0.457 -0.992 1.023 -0.992 c 0.566 0 1.027 0.445 1.027 0.992"/></g></svg>