<svg xmlns="http://www.w3.org/2000/svg" viewBox="0 0 22 22"><path d="m 20.988 16.203 c -4.332 10.391 -21.1 5.758 -20.988 -5.563 c -0.168 -10.293 13.164 -14.195 19.01 -6.863 c 2.922 3.168 3.945 8.422 1.98 12.426" fill="#6c7882"/><path d="m 215.86 130.7 c 0 41.647 -33.27 75.38 -74.3 75.38 c -41.03 0 -74.3 -33.737 -74.3 -75.38 c 0 -41.607 33.27 -75.38 74.3 -75.38 c 41.03 0 74.3 33.778 74.3 75.38" transform="matrix(0.09758 0 0 0.0968 -2.72 -1.885)" fill="#333e51" stroke="#333e51" stroke-width="3.632"/><path d="m 63.822 154.01 h 162.8 v 31.21 h -162.8" transform="matrix(0.05898 0 0 0.05971 2.427 2.309)" fill="#45dc89" stroke="#45dc89" stroke-width="5.26"/><g fill="#fff" stroke="#fff" stroke-width="3.94" transform="matrix(0.08594 0 0 0.08594 -0.186 -0.28)"><path d="m 92.94 148.94 c -4.091 -1.818 -7.364 -6.5 -8.227 -11.727 c -0.455 -2.864 -0.864 -13.14 -0.909 -22.818 l -0.045 -17.636 h 7.591 l 0.091 6.773 c 0.045 3.727 0.409 13.09 0.818 20.727 c 0.727 12.864 0.955 14.14 3.318 16 c 3.091 2.545 9.818 2.682 14.318 0.364 c 5.136 -2.636 6.682 -7.727 7.136 -23.23 c 0.591 -19.591 0.818 -20.636 4.727 -20.636 h 3.182 l 0.045 8.955 c 0 4.909 0.318 16.682 0.682 26.09 l 0.727 17.18 l -4.182 -0.364 c -3.318 -0.273 -4.318 -0.864 -4.818 -2.773 l -0.591 -2.455 l -4.318 2.955 c -3.318 2.273 -5.864 3 -10.864 3.227 c -3.545 0.182 -7.455 -0.091 -8.682 -0.636"/><path d="m 137.62 169.71 c -0.636 -1.091 -1.273 -38.23 -0.955 -57.5 l 0.227 -15.455 h 3.364 c 2.455 0 3.5 0.591 3.909 2.182 c 0.727 2.682 0.455 2.727 6.591 -0.545 c 11.545 -6.136 23.818 -1.682 28.909 10.545 c 2.273 5.364 2.227 20.545 0 27.18 c -2.818 8.227 -12 14.864 -20.636 14.864 c -1.227 0 -4.636 -1.182 -7.545 -2.682 c -6.5 -3.273 -6.955 -2.727 -7 7.727 c 0 11.409 -0.818 14.5 -3.864 14.5 c -1.364 0 -2.727 -0.364 -3 -0.818 m 30.818 -30.18 c 7.909 -7.591 7.05 -28.636 -1.409 -34.545 c -4.545 -3.227 -13.364 -1.727 -17.18 2.909 c -4.636 5.682 -5.545 23.364 -1.455 29.545 c 4.364 6.727 14.182 7.727 20.05 2.091"/></g></svg>