<svg xmlns="http://www.w3.org/2000/svg" viewBox="0 0 22 22"><path d="m 5.727 2.602 c 5.078 -5.03 9.77 -1.348 13.625 2.648 c 3.137 3.254 3.277 6.273 1.199 9.469 c -5.43 8.355 -12.48 11.453 -19.863 -1.504 c -1.82 -4.273 2.02 -8.246 5.04 -10.613" fill="#2f4e4e"/><g transform="matrix(0.06691 0 0 0.06502 2.041 2.86)"><g fill="#fff" stroke="#fff" stroke-width="1.529"><path d="m 125.48 155.11 l -34.56 22.949 c -32.867 21.808 -34.618 22.889 -36.661 22.649 c -1.168 -0.12 -2.393 -0.661 -2.685 -1.141 c 7.706 -7.45 15.06 -20.13 22.651 -30.459 c 12.785 -16.341 14.594 -19.345 25.22 -27.515 c 16.404 -8.952 27.496 6.068 26.04 13.517"/><path d="m 140.02 90.17 l -34.56 -22.949 c -32.867 -21.868 -34.618 -22.949 -36.661 -22.709 c -1.168 0.18 -2.393 0.661 -2.685 1.141 c 7.706 7.45 15.06 20.13 22.651 30.519 c 12.785 16.341 14.594 19.345 25.278 27.455 c 16.346 9.01 27.438 -6.01 25.978 -13.457"/><path d="m 145.8 97.32 l 34.56 -22.949 c 32.925 -21.868 34.676 -22.949 36.661 -22.709 c 1.168 0.12 2.393 0.661 2.685 1.141 c -7.706 7.45 -15.06 20.13 -22.651 30.519 c -12.726 16.281 -14.536 19.285 -25.22 27.455 c -16.346 8.952 -27.496 -6.068 -26.04 -13.457"/><path d="m 136.4 156.86 l 34.56 22.949 c 32.867 21.868 34.618 22.949 36.661 22.709 c 1.168 -0.12 2.393 -0.661 2.685 -1.141 c -7.706 -7.45 -15.06 -20.13 -22.651 -30.519 c -12.785 -16.281 -14.536 -19.285 -25.22 -27.455 c -16.346 -8.952 -27.496 6.068 -26.04 13.457"/></g><path d="m 133.54 244.69 c -2.51 -2.643 -4.553 -7.99 -4.553 -11.895 c 0 -16.581 -10.917 -34.12 -24.927 -40.19 c -21.775 -9.432 -23.877 -17.723 -6.305 -24.692 c 10.333 -4.085 11.267 -8.471 3.269 -15.38 c -4.787 -4.145 -7.531 -3.184 -16.638 5.948 l -10.975 10.874 l -5.546 -13.818 c -4.845 -12.08 -4.03 -16.04 -31.933 -17.482 c -29.13 -1.562 -31.641 -20.19 -14.01 -20.19 c 20.607 0 43.08 -11.11 47.17 -23.31 c 1.985 -5.948 7.122 -12.796 11.384 -15.14 c 6.713 -3.785 8.231 -3 11.325 5.467 c 4.145 11.355 7.06 12.02 16.988 3.905 c 7.06 -5.767 7.06 -6.01 -1.168 -12.08 c -8.29 -6.128 -11.442 -16.762 -4.904 -16.762 c 1.868 0 8.29 -4.265 14.244 -9.492 c 7.706 -6.729 8.523 -17.603 8.815 -26.554 c -0.35 -4.986 5.546 -26.734 14.303 -21.868 c 2.043 0 3.736 4.746 3.795 10.574 c 0.117 20.07 9.399 40.37 20.783 45.3 c 5.896 2.583 12.902 7.45 15.587 10.814 c 4.145 5.227 3.678 6.789 -2.977 10.514 c -5.838 3.244 -7.18 6.488 -5.312 12.796 c 3.211 10.994 3.211 10.994 10.158 8.171 c 3.269 -1.262 6.947 -5.647 8.173 -9.733 c 3.328 -10.694 9.05 -9.01 13.369 3.965 c 4.495 13.397 15.704 21.568 31.12 22.709 c 6.071 0.421 11.676 2.523 12.376 4.626 c 2.51 4.626 7.18 -0.481 9.691 3.484 c 1.168 1.983 -0.817 4.446 -4.437 5.467 c -43.492 12.136 -42.908 11.835 -48.45 26.494 c -6.48 17.12 -14.01 21.09 -20.257 10.754 c -4.67 -7.81 -19.21 -10.393 -23 -4.085 c -2.277 3.905 7.531 15.74 13.08 15.74 c 7.356 0 2.919 7.81 -7.589 13.457 c -12.551 6.789 -13.602 11.415 -19.44 35.09 c -4.962 14.959 -0.992 19.04 -13.193 16.521" fill="#9b9f9f" stroke="#9b9f9f" stroke-width="7.572"/></g><path d="m 12.223 15.727 c -0.121 -0.117 -0.023 -0.277 0.234 -0.391 c 0.367 -0.16 0.367 -0.32 -0.004 -0.543 c -0.234 -0.141 -0.281 -0.203 -0.262 -0.352 c 0.031 -0.281 0.383 -0.578 0.719 -0.289 c 0.152 0.129 0.23 0.543 0.316 0.543 c 0.207 0 0.406 0.109 0.5 0.273 c 0.109 0.203 -0.031 0.332 -0.363 0.332 c -0.262 0 -0.332 0.043 -0.609 0.367 c -0.09 0.105 -0.441 0.145 -0.531 0.059 m -3.914 -0.824 c 0.141 -0.188 0.293 -0.668 0.445 -0.793 c 0.363 -0.309 0.566 0.063 0.777 0.332 c 0.266 0.254 -0.094 0.621 -0.266 0.809 c -0.285 0.098 -1.152 0.027 -0.957 -0.348 m 6.344 -1.754 c -0.125 -0.141 -0.227 -0.301 -0.227 -0.359 c 0 -0.18 0.359 -0.398 0.586 -0.355 c 0.145 0.027 0.301 -0.012 0.543 -0.145 c 0.238 -0.129 0.363 -0.16 0.414 -0.113 c 0.113 0.109 -0.055 0.5 -0.242 0.566 c -0.16 0.059 -0.246 0.297 -0.246 0.668 c 0 0.18 -0.109 0.344 -0.23 0.344 c -0.238 -0.148 -0.41 -0.398 -0.598 -0.605 m -7.941 0.391 c -0.047 -0.047 -0.086 -0.211 -0.086 -0.371 c 0 -0.246 -0.141 -0.488 0.141 -0.793 c 0.363 -0.398 0.68 -0.316 0.859 -0.227 c 0.09 0.043 0.125 0.145 0.125 0.348 c 0 0.254 -0.047 0.328 -0.406 0.703 c -0.422 0.438 -0.492 0.473 -0.633 0.34 m 7.93 -3.57 c -0.094 -0.047 -0.18 -0.121 -0.195 -0.16 c 0.07 -0.359 0.52 -0.563 0.543 -0.941 c 0 -0.148 0.199 -0.363 0.332 -0.363 c 0.043 0 0.129 0.094 0.188 0.207 c 0.133 0.258 0.078 0.945 -0.09 1.145 c -0.145 0.168 -0.555 0.227 -0.777 0.113 m -7.789 -0.609 c -0.164 -0.16 -0.297 -0.324 -0.297 -0.367 c 0 -0.043 0.066 -0.184 0.145 -0.313 c 0.176 -0.289 0.262 -0.27 0.715 0.148 c 0.383 0.352 0.41 0.484 0.148 0.68 c -0.266 0.199 -0.379 0.176 -0.711 -0.148 m 5.965 -2.543 c 0.086 -0.133 0.563 -0.027 0.719 0.086 c 0.121 0.086 0.348 0.188 0.254 0.406 c -0.059 0.129 -0.258 0.398 -0.445 0.555 c -0.746 0.805 -0.691 -0.73 -0.527 -1.047 m -3.52 0.926 c -0.391 -0.199 -0.496 -0.293 -0.57 -0.504 c -0.125 -0.359 0.402 -0.801 0.785 -0.605 c 0.277 0.141 0.402 0.734 0.438 0.855 c 0.082 0.305 -0.277 0.441 -0.652 0.254" fill="#181716"/><g fill="#ee0a0a" stroke="#ee0a0a" transform="matrix(0.06691 0 0 0.06502 2.041 2.86)"><path d="m 130.68 104.23 l 0.234 -44.637 c 0.175 -42.475 0.292 -44.697 1.576 -46.44 c 0.759 -0.961 1.81 -1.802 2.335 -1.802 c 1.868 11.295 8.115 25.17 12.376 38.03 c 6.246 20.907 7.648 24.271 8.465 38.69 l 0.467 7.03 l -5.429 5.888 c -6.422 7.03 -10.333 10.333 -12.201 10.333 c -3.269 -1.682 -5.137 -4.205 -7.823 -7.089" stroke-width="1.563"/><g stroke-width="1.583"><path d="m 142.36 146.46 l -0.175 45.839 c -0.234 43.616 -0.292 45.899 -1.576 47.641 c -0.759 1.021 -1.81 1.862 -2.393 1.862 c -1.81 -11.595 -8.06 -25.833 -12.318 -39.05 c -6.246 -21.448 -7.706 -24.932 -8.465 -39.711 l -0.467 -7.209 l 5.429 -6.068 c 6.422 -7.149 10.333 -10.574 12.201 -10.574 c 3.269 1.682 5.137 4.265 7.764 7.269"/><path d="m 152.22 120.15 l 44.02 0.18 c 41.915 0.18 44.08 0.3 45.768 1.622 c 0.992 0.781 1.751 1.862 1.751 2.463 c -11.09 1.922 -24.811 8.411 -37.479 12.857 c -20.666 6.488 -23.935 7.99 -38.12 8.771 l -7.01 0.541 l -5.779 -5.647 c -6.947 -6.729 -10.216 -10.814 -10.216 -12.736 c 1.635 -3.364 4.145 -5.287 7.06 -8.05"/><path d="m 117.72 133 l -44.02 -0.18 c -41.915 -0.24 -44.08 -0.3 -45.768 -1.622 c -0.992 -0.781 -1.81 -1.922 -1.81 -2.463 c 11.15 -1.922 24.869 -8.411 37.537 -12.857 c 20.607 -6.488 23.935 -7.99 38.12 -8.831 l 7.01 -0.481 l 5.779 5.647 c 6.889 6.669 10.158 10.754 10.158 12.676 c -1.635 3.424 -4.086 5.347 -7.01 8.11"/></g></g></svg>