<svg xmlns="http://www.w3.org/2000/svg" viewBox="0 0 22 22"><path d="m 11.04 21.918 c 14.512 1.652 14.313 -21.992 -0.258 -21.715 c -13.551 -0.777 -14.773 23 0.258 21.715" fill="#5a3f2e"/><g transform="matrix(0.11598 0 0 0.12345 5.453 4.735)"><path d="m 21.997 42.996 c -4.01 5 -15.493 1.993 -17.783 13.01 c -2.223 6.01 -2.223 24.998 9.801 23 c -1.01 -14.999 -2.02 -21.992 -2.02 -21.992 c 0 0 1.01 13.986 2.02 20.979 c 8.993 4.02 23.98 4.02 34.994 -0.981 c 0 -8.01 -1.01 -13.01 0 -18 c 0 -5 0 18.986 0 18.986 c 0 0 5.995 1.993 7.982 -5 c 2.998 -9.999 5.02 -23.985 -8.993 -28 c -8.993 -0.981 -7.01 -1.993 -7.982 -1.993 c -2.02 0 -18.02 0 -18.02 0" fill="#427794" stroke="#29424e"/><g stroke="#693311"><path d="m 23.01 37.997 c 0 0 0.977 3.01 -1.01 5 c 2.998 4.02 11.01 8.01 18.02 0 c -1.01 -1.993 -1.01 -1.993 -1.01 -5 c 0 0 -15.998 0 -15.998 0" fill="#c19b81"/><path d="m 30.989 42.02 c -13.977 0 -23.374 -37.21 0 -37.813 c 24.01 -0.095 13 37.813 0 37.813" fill="#cda58e"/></g><g stroke="#301710"><path d="m 17.01 26 c -2.998 -9.999 -2.998 -22.814 13.977 -23.606 c 13 0.696 18.02 12.594 13 23.606 c 0 -5 1.01 -6.993 -0.977 -9.999 c -4.01 -1.013 -10 0 -15.02 -5 c -0.977 3.987 -13 1.993 -10.98 14.999" fill="#543831"/><path d="m 45 64.988 c 4.985 -7.974 0 -24.998 2.998 -30.978 c 2.998 -9.999 7.01 -16.01 15.998 -16.01 c 10 0 15.998 8.01 20.01 16.992 c 1.01 2.025 0 6.01 1.987 11.01 c 1.01 3.987 -0.977 8.01 -0.977 9.999 c 0 5 -1.01 3.01 1.987 8.987 c -4.985 13.01 -33.983 9.999 -41.999 0" fill="#5f3d20"/></g><path d="m 58 59.988 c -4.985 5 -17.985 3.01 -20.01 13.01 c -1.987 6.01 -1.01 24.998 11.01 24.02 c -1.01 -16.01 -2.998 -23 -2.998 -23 c 0 0 1.987 14.999 2.998 20.979 c 8.993 5 23 5 34.994 -0.981 c 0 -6.01 -1.01 -13.01 0 -18 c 1.01 -5 0 19.998 0 19.998 c 0 0 7.01 1.013 8.993 -6.01 c 2.02 -8.987 4.01 -21.992 -7.01 -24.998 c -8.993 -2.974 -10 -5 -11.99 -5 c -1.01 0 -15.998 0 -15.998 0" fill="#d7933b" stroke="#29424e"/><g stroke="#693311"><path d="m 58 54.01 c 0 0 1.01 3.01 0 6.993 c 2.998 3.01 10 8.01 15.998 0 c -1.01 -3.987 -1.01 -3.987 -1.01 -6.993 c 0 0 -14.988 0 -14.988 0" fill="#deb89e"/><path d="m 66.02 59.01 c -14.01 0 -23 -38 0 -39.02 c 19.972 1.013 12.967 39.02 0 39.02" fill="#dbbfa8"/></g></g><path d="m 12.758 8.07 c -0.348 0.617 -0.809 0.988 -1.391 1.113 c -0.465 0.125 0.234 -2.098 1.508 -2.098 c 0.582 0 1.508 0.367 1.738 1.852 c -0.695 0.121 -1.621 -0.617 -1.855 -0.867" fill="#5f3d20"/><path d="m 7.539 13.375 h 2.09 v 2.965 h -2.203" fill="#ffedab"/><path d="m 27.01 47.996 c -8.02 0 -10 1.013 -14.01 5 c -4.01 4.02 -2.998 13.01 -2.998 13.01 h -5.119 v 21.992 c 0 8.01 6.13 9.999 11.11 9.999 h 20.01 c 5.995 0 11.99 -5 11.99 -8.987 v -23 h -4.985 c 0 0 0.977 -8.01 -2.998 -11.993 c -3.03 -4.02 -6.03 -6.01 -13 -6.01 m 0 4.02 c 3.974 0 6.972 0.981 9.969 3.987 c 2.02 3.01 2.02 9.999 2.02 9.999 h -24.991 c 0 0 0 -8.01 1.987 -9.999 c 1.987 -3.01 5.995 -3.987 11.01 -3.987 m 2.998 21.992 c 2.998 3.987 -1.01 6.993 -1.01 6.993 l 1.987 11.01 h -10 l 2.998 -11.01 c -2.998 -1.993 -2.998 -5 -0.977 -6.993 c 1.987 -1.993 4.985 -1.993 7.01 0" transform="matrix(0.11598 0 0 0.12345 5.453 4.735)" fill="#212121" stroke="#ffedab"/></svg>