<svg xmlns="http://www.w3.org/2000/svg" xmlns:xlink="http://www.w3.org/1999/xlink" viewBox="0 0 22 22"><defs><g id="5" clip-path="url(#4)"><path d="m 15.13 6.559 c -0.426 0.008 -0.844 0.273 -0.91 0.77 c -0.105 0.797 0.695 0.496 1.336 0.496 c 0.641 0 0.855 1.293 0.691 1.988 c -0.156 0.695 -1.859 2.34 -5.715 0.695 c -3.168 -1.352 -4.754 0.449 -4.836 0.484 c 0.305 2.688 2.746 5.602 5.719 5.602 c 3.168 0 5.742 -3.211 5.742 -6.16 c 0 -0.34 -0.043 -0.672 -0.105 -0.992 c -0.059 -0.164 -0.117 -0.324 -0.16 -0.473 c -0.078 -0.266 -0.168 -0.488 -0.242 -0.695 c -0.004 -0.008 0.004 -0.02 0 -0.027 c -0.305 -0.629 -0.727 -1.191 -1.254 -1.664 c -0.004 -0.004 -0.012 0.004 -0.016 0 c -0.082 -0.02 -0.168 -0.027 -0.254 -0.023"/><path d="m 14.25 8.445 c 0 0.168 -0.145 0.301 -0.32 0.301 c -0.176 0 -0.32 -0.133 -0.32 -0.301 c 0 -0.164 0.145 -0.297 0.32 -0.297 c 0.176 0 0.32 0.133 0.32 0.297"/><path d="m 13.609 7.367 c 0 0.117 -0.102 0.211 -0.227 0.211 c -0.129 0 -0.23 -0.094 -0.23 -0.211 c 0 -0.117 0.102 -0.211 0.23 -0.211 c 0.125 0 0.227 0.094 0.227 0.211"/></g><clipPath id="7"><path d="m 13 7 h 1 v 2 h -1"/></clipPath><clipPath id="6"><path d="m 5 6 h 12 v 11 h -12"/></clipPath><clipPath id="8"><path d="m 12 6 h 2 v 2 h -2"/></clipPath><clipPath id="4"><path d="M 0,0 H22 V22 H0 z"/></clipPath><clipPath id="0"><path d="m 0 1 h 22 v 20 h -22"/></clipPath><clipPath id="1"><path d="m 21.13 11.156 c 0 5.316 -4.543 9.621 -10.137 9.621 c -5.594 0 -10.137 -4.305 -10.137 -9.621 c 0 -5.313 4.543 -9.617 10.137 -9.617 c 5.594 0 10.137 4.305 10.137 9.617"/></clipPath><filter id="2" filterUnits="objectBoundingBox" x="0" y="0" width="22" height="22"><feColorMatrix type="matrix" in="SourceGraphic" values="0 0 0 0 1 0 0 0 0 1 0 0 0 0 1 0 0 0 1 0"/></filter><mask id="3"><g filter="url(#2)"><path fill-opacity="0.102" d="M 0,0 H22 V22 H0 z"/></g></mask></defs><path d="m 16.828 2.266 c -11.25 -7.91 -22.652 6.699 -13.484 16.02 c 8.637 8.781 22.06 0.641 17.863 -10.285 c -0.875 -2.281 -2.313 -4.281 -4.379 -5.734" fill="#efefef"/><g clip-path="url(#0)"><g clip-path="url(#1)"><use xlink:href="#5" mask="url(#3)"/></g></g><g clip-path="url(#6)"><g clip-path="url(#1)"><path d="m 14.691 6.141 c -0.422 0.008 -0.84 0.273 -0.91 0.77 c -0.105 0.797 0.695 0.496 1.336 0.496 c 0.641 0 0.855 1.293 0.695 1.988 c -0.16 0.695 -1.863 2.34 -5.715 0.695 c -3.172 -1.352 -4.758 0.449 -4.84 0.484 c 0.305 2.688 2.75 5.602 5.719 5.602 c 3.168 0 5.742 -3.211 5.742 -6.16 c 0 -0.34 -0.039 -0.672 -0.105 -0.992 c -0.059 -0.164 -0.117 -0.328 -0.16 -0.473 c -0.078 -0.266 -0.164 -0.488 -0.242 -0.695 c -0.004 -0.008 0.004 -0.02 0 -0.027 c -0.301 -0.629 -0.727 -1.191 -1.254 -1.664 c -0.004 -0.004 -0.012 0.004 -0.016 0 c -0.082 -0.02 -0.168 -0.027 -0.25 -0.027" fill="#494c86"/></g></g><g clip-path="url(#7)"><g clip-path="url(#1)"><path d="m 13.809 8.03 c 0 0.168 -0.145 0.301 -0.32 0.301 c -0.176 0 -0.32 -0.133 -0.32 -0.301 c 0 -0.164 0.145 -0.297 0.32 -0.297 c 0.176 0 0.32 0.133 0.32 0.297" fill="#434a8e"/></g></g><g clip-path="url(#8)"><g clip-path="url(#1)"><path d="m 13.168 6.949 c 0 0.113 -0.102 0.211 -0.227 0.211 c -0.125 0 -0.227 -0.098 -0.227 -0.211 c 0 -0.117 0.102 -0.215 0.227 -0.215 c 0.125 0 0.227 0.098 0.227 0.215" fill="#434a8e"/></g></g></svg>