<svg xmlns="http://www.w3.org/2000/svg" viewBox="0 0 22 22"><path d="m 19.84 4.551 c 10.977 16.543 -24.03 26.727 -19.398 5.348 c 1.977 -8.836 14.363 -14.199 19.398 -5.348" fill="#ebebeb"/><path d="m 192.47 271.69 c -3.634 -0.979 -11.09 -3.868 -16.584 -6.337 l -9.922 -4.567 l -14.255 4.194 c -7.826 2.33 -14.395 4.054 -14.627 3.868 c -0.186 -0.186 1.258 -5.871 3.214 -12.628 c 2 -6.757 3.634 -13.28 3.634 -14.492 c 0 -1.165 -1.724 -5.452 -3.773 -9.506 c -13.23 -25.815 -13.789 -49.3 -1.77 -73.44 c 19.845 -39.887 67.873 -56.34 107.89 -36.951 c 6.382 3.075 14.627 8.201 18.354 11.416 c 9.224 7.921 19.985 24.37 23.944 36.532 c 2.888 8.853 3.214 12.255 2.702 26.886 c -0.512 14.12 -1.211 18.219 -4.472 26 c -10.249 24.417 -33.913 44.13 -59.44 49.49 c -9.829 2.05 -26.46 1.817 -34.892 -0.466" transform="matrix(0.08385 0 0 0.08383 -6.636 -5.01)" fill="#fff" stroke="#fff" stroke-width="5.705"/><path d="m 9.91 16.527 c -0.539 -0.121 -0.926 -0.266 -1.41 -0.535 c -0.188 -0.105 -0.383 -0.191 -0.426 -0.191 c -0.047 0 -0.488 0.129 -0.984 0.289 c -0.492 0.16 -0.91 0.277 -0.926 0.262 c -0.012 -0.016 0.113 -0.449 0.281 -0.961 l 0.305 -0.93 l -0.137 -0.211 c -0.363 -0.559 -0.68 -1.363 -0.809 -2.051 c -0.098 -0.527 -0.039 -1.832 0.109 -2.348 c 0.434 -1.52 1.418 -2.707 2.82 -3.402 c 0.793 -0.395 1.352 -0.52 2.297 -0.52 c 0.609 0 0.867 0.023 1.254 0.121 c 1.984 0.508 3.543 2.156 3.945 4.18 c 0.141 0.695 0.09 1.863 -0.105 2.523 c -0.535 1.824 -1.953 3.234 -3.742 3.723 c -0.613 0.168 -1.84 0.195 -2.473 0.051 m 3.539 -2.367 c 0.414 -0.188 0.703 -0.508 0.777 -0.859 c 0.117 -0.551 0.125 -0.539 -0.777 -0.98 c -0.457 -0.223 -0.676 -0.305 -0.762 -0.277 c -0.07 0.02 -0.246 0.191 -0.398 0.379 c -0.332 0.41 -0.445 0.441 -0.855 0.23 c -0.645 -0.328 -1.238 -0.855 -1.629 -1.441 c -0.238 -0.359 -0.238 -0.387 0.02 -0.734 c 0.129 -0.18 0.25 -0.367 0.27 -0.422 c 0.039 -0.109 -0.465 -1.453 -0.605 -1.613 c -0.109 -0.121 -0.609 -0.133 -0.824 -0.016 c -0.469 0.25 -0.789 1.082 -0.672 1.738 c 0.176 0.953 1.355 2.539 2.438 3.273 c 0.531 0.359 1.48 0.75 2.133 0.879 c 0.207 0.039 0.602 -0.031 0.887 -0.156" fill="#184478"/></svg>