<svg xmlns="http://www.w3.org/2000/svg" viewBox="0 0 22 22"><path d="m 0.711 7.977 c -4.105 11.465 10.656 17.04 16.203 12.371 c 5.543 -4.668 7.441 -12.664 1.156 -16.691 c -6.281 -4.02 -13.25 -7.145 -17.359 4.32" fill="#6395ec"/><path d="m 12.137 16.723 c -0.625 -0.125 -0.973 -0.246 -1.078 -0.363 c -0.148 -0.172 -2.391 -4.324 -2.5 -4.633 c -0.047 -0.129 0.086 -0.156 0.977 -0.215 c 0.566 -0.035 1.047 -0.082 1.07 -0.105 c 0.02 -0.02 -0.063 -0.148 -0.184 -0.281 c -0.277 -0.297 -3.961 -3.273 -4.055 -3.273 c -0.039 0 -0.098 0.93 -0.137 2.062 c -0.066 2.125 0.004 3.953 0.152 3.953 c 0.047 0 0.34 -0.395 0.648 -0.879 c 0.313 -0.484 0.598 -0.879 0.633 -0.879 c 0.137 0 1.586 4.01 1.465 4.055 c -0.047 0.02 -0.902 -0.102 -1.898 -0.27 l -1.816 -0.301 l 0.059 -4.168 c 0.035 -2.344 0.098 -4.203 0.145 -4.25 c 0.09 -0.09 7.188 -1.262 7.766 -1.285 c 0.242 -0.008 0.555 0.129 1.289 0.57 c 0.535 0.32 1.02 0.629 1.078 0.684 c 0.07 0.074 0.121 1.371 0.164 4.363 l 0.063 4.258 l -1.23 0.578 c -0.68 0.316 -1.336 0.574 -1.461 0.57 c -0.125 -0.004 -0.641 -0.09 -1.148 -0.191" fill="#4e4e4e"/><g stroke="#6395ec"><path d="m 155.12 158.65 c 0.257 19.806 -10.04 38.28 -26.893 48.32 c -16.856 9.969 -37.766 9.969 -54.622 0 c -16.856 -10.04 -27.15 -28.512 -26.893 -48.32 c -0.257 -19.872 10.04 -38.35 26.893 -48.38 c 16.856 -9.969 37.766 -9.969 54.622 0 c 16.856 10.04 27.15 28.512 26.893 48.38" transform="matrix(0.06072 0 0 0.05877 8.687 5.336)" fill="#fff" stroke-width="2.802"/><path d="m 194.49 281.14 c -4.02 -1.171 -6.146 -2.186 -6.146 -2.966 c 0 -0.234 1.103 -1.717 2.364 -3.278 c 3.073 -3.513 5.279 -4.137 15.758 -4.137 c 5.673 0.781 9.218 -0.39 14.02 -2.81 c 8.509 -4.371 15.916 -12.489 19.382 -21.544 c 1.733 -4.918 2.285 -24.978 -2.994 -24.2 c -2.6 -0.312 -4.727 1.093 -13.08 8.508 l -7.564 6.713 c -3.467 -3.434 -10.715 -7.259 -11.897 -12.02 c 0 -0.39 2.994 -3.825 6.618 -7.572 c 8.667 -9.05 9.06 -9.679 8.115 -12.723 c -0.552 -1.561 -1.733 -3.044 -3.546 -4.215 c -10.243 -4.918 -28.29 -0.078 -37.03 9.445 c -2.364 2.576 -5.515 7.03 -7.01 9.757 c -3.624 4.761 -2.758 9.679 -2.758 15.377 c 0 10.303 0 10.382 -1.812 12.801 c -2.127 2.732 -4.176 3.669 -5.594 2.42 c -1.891 -1.561 -3.94 -9.913 -3.861 -15.924 c 0.236 -15.06 8.194 -30.13 20.249 -38.4 c 6.146 -4.137 15.13 -7.493 22.534 -8.508 c 10.01 -1.249 21.825 1.873 31.831 8.586 c 8.509 5.62 14.1 12.333 17.807 25.447 c 2.521 8.898 2.836 17.875 0.315 25.21 c -3.388 9.679 -6.382 14.909 -12.843 21.388 c -5.752 5.776 -12.764 9.913 -20.328 12.02 c -5.437 1.483 -18.12 1.795 -22.534 0.624" transform="matrix(0.04958 0 0 0.05004 4.651 2.892)" fill="#6395ec" stroke-width="0.667"/></g></svg>