<svg xmlns="http://www.w3.org/2000/svg" viewBox="0 0 22 22"><path d="m 18.15 3.445 c 17.344 22.582 -30.387 25.789 -15.07 2.738 c 3.492 -5.254 10.477 -8.719 15.07 -2.738" fill="#86ceeb"/><path d="m 14.06 12.543 v 0.969 h 1.953 c 0 0 0 0.758 0 -0.969" fill-opacity="0.102"/><path d="m 8.199 5.781 c -2.445 0.965 -2.934 3.379 0 4.832 c -0.488 -0.484 -1.465 -1.934 0 -2.418 c 0 2.738 0 8.215 0 8.215 l -1.465 1.449 h 3.906 l 1.469 -1.449 v 1.449 h 2.441 l 1.957 -1.934 v -6.766 l -2.445 -2.414 c -2.441 1.234 -2.441 3.383 0 4.832 c -0.488 -0.484 -1.465 -1.934 0 -2.418 v 5.316 l -0.488 0.484 v -2.898 h -2.445 v 1.93 l -0.488 0.484 v -6.281" fill-opacity="0.098"/><path d="m 10.641 13.512 l -0.488 0.48 v -0.48 h -2.441 v 2.414 l -1.469 1.449 h 3.91 l 1.469 -1.449 v 1.449 h 2.441 l 1.953 -1.934 v -1.93 h -2.441 v 0.48 l -0.488 0.484 v -0.965" fill="#af0404"/><g fill="#191919"><path d="m 7.711 12.543 v 0.969 h 2.441 v -0.969"/><path d="m 10.641 12.543 v 0.969 h 2.445 v -0.969"/><path d="m 13.574 12.543 v 0.969 h 2.441 v -0.969"/></g><g fill="#ececec"><path d="m 10.641 11.578 v 0.965 h 2.445 v -0.965"/><path d="m 7.711 5.297 c -2.445 0.965 -2.934 3.383 0 4.832 c -0.488 -0.484 -1.469 -1.934 0 -2.418 v 4.832 h 2.441 v -4.832"/><path d="m 13.574 6.262 c -2.445 1.234 -2.445 3.383 0 4.832 c -0.488 -0.48 -1.465 -1.934 0 -2.414 v 3.863 h 2.441 v -3.863"/></g></svg>