<svg xmlns="http://www.w3.org/2000/svg" viewBox="0 0 22 22"><path d="m 13.613 0.398 c 20.441 4.238 -1.504 33.402 -11.895 15.883 c -4.453 -6.805 1.379 -18.06 11.895 -15.883" fill="#53676b"/><path d="m 7.09 5.52 h 8.07 c 0.402 0 0.73 0.363 0.73 0.813 v 8.965 c 0 0.449 -0.328 0.813 -0.73 0.813 h -8.07 c -0.402 0 -0.734 -0.363 -0.734 -0.813 v -8.965 c 0 -0.449 0.332 -0.813 0.734 -0.813" fill-opacity="0.102"/><path d="m 6.695 5.078 h 8.06 c 0.406 0 0.734 0.363 0.734 0.813 v 8.965 c 0 0.449 -0.328 0.813 -0.734 0.813 h -8.06 c -0.406 0 -0.734 -0.363 -0.734 -0.813 v -8.965 c 0 -0.449 0.328 -0.813 0.734 -0.813" fill="#f2f2f2"/><path d="m 7.086 5.52 h 7.281 c 0.402 0 0.727 0.355 0.727 0.797 v 6.789 c 0 0.441 -0.324 0.797 -0.727 0.797 h -7.281 c -0.402 0 -0.73 -0.355 -0.73 -0.797 v -6.789 c 0 -0.441 0.328 -0.797 0.73 -0.797" fill="#53676b"/><path d="m 9.93 5.961 l -1.191 3.531 h -2.383 v 0.883 h 2.781 l 0.793 -2.648 l 1.988 5.734 l 1.191 -3.086 h 1.984 v -0.883 h -2.383 l -0.793 2.203" fill="#d6edf4" fill-rule="evenodd"/><path d="m 13.504 14.785 c 0 0.246 -0.176 0.441 -0.395 0.441 c -0.219 0 -0.398 -0.195 -0.398 -0.441 c 0 -0.242 0.18 -0.441 0.398 -0.441 c 0.219 0 0.395 0.199 0.395 0.441" fill="#ff5454"/><path d="m 14.695 14.785 c 0 0.246 -0.176 0.441 -0.395 0.441 c -0.219 0 -0.398 -0.195 -0.398 -0.441 c 0 -0.242 0.18 -0.441 0.398 -0.441 c 0.219 0 0.395 0.199 0.395 0.441" fill="#faa"/><path d="m 12.313 14.785 c 0 0.246 -0.176 0.441 -0.395 0.441 c -0.219 0 -0.398 -0.195 -0.398 -0.441 c 0 -0.242 0.18 -0.441 0.398 -0.441 c 0.219 0 0.395 0.199 0.395 0.441" fill="#ff2929"/><path d="m 11.121 14.785 c 0 0.246 -0.176 0.441 -0.395 0.441 c -0.219 0 -0.398 -0.195 -0.398 -0.441 c 0 -0.242 0.18 -0.441 0.398 -0.441 c 0.219 0 0.395 0.199 0.395 0.441" fill="#d40000"/><path d="m 9.93 14.785 c 0 0.246 -0.176 0.441 -0.395 0.441 c -0.219 0 -0.398 -0.195 -0.398 -0.441 c 0 -0.242 0.18 -0.441 0.398 -0.441 c 0.219 0 0.395 0.199 0.395 0.441" fill="#8c0000"/></svg>