<svg xmlns="http://www.w3.org/2000/svg" viewBox="0 0 22 22"><defs><linearGradient id="0" gradientUnits="userSpaceOnUse" x1="40.683" y1="60.12" x2="39.968" y2="31.373" gradientTransform="matrix(1.54193 0 0 0.56121 4.04 6.787)"><stop stop-color="#000"/><stop offset="1" stop-color="#fff"/></linearGradient></defs><path d="m 11.04 0.082 c 14.762 -1.664 14.555 22.18 -0.266 21.898 c -13.781 0.785 -15.03 -23.2 0.266 -21.898" fill="#d7bfd7"/><g fill-rule="evenodd"><g fill-opacity="0.4"><path d="m 10.172 8.496 h 5.215 c 0.957 0 1.73 0.773 1.73 1.73 v 5.809 c 0 0.957 -0.773 1.73 -1.73 1.73 h -5.215 c -0.953 0 -1.73 -0.773 -1.73 -1.73 v -5.809 c 0 -0.957 0.777 -1.73 1.73 -1.73"/><path d="m 6.457 5.609 h 7.512 c 0.598 0 1.078 0.484 1.078 1.078 v 8.656 c 0 0.598 -0.48 1.078 -1.078 1.078 h -7.512 c -0.598 0 -1.078 -0.48 -1.078 -1.078 v -8.656 c 0 -0.594 0.48 -1.078 1.078 -1.078"/><path d="m 10.02 6.078 h 1.191 c 0.055 0 0.098 0.043 0.098 0.098 v 1.434 c 0 0.055 -0.043 0.098 -0.098 0.098 h -1.191 c -0.055 0 -0.098 -0.043 -0.098 -0.098 v -1.434 c 0 -0.055 0.043 -0.098 0.098 -0.098"/><path d="m 8.555 7.152 h 4.133 v 1.383 h -4.133"/></g><path d="m 20.567 13.688 h 91.32 c 4.682 0 8.5 3.818 8.5 8.5 v 100.86 c 0 4.727 -3.818 8.545 -8.5 8.545 h -91.32 c -4.682 0 -8.5 -3.818 -8.5 -8.545 v -100.86 c 0 -4.682 3.818 -8.5 8.5 -8.5" transform="matrix(0.08594 0 0 0.08594 4.248 4.644)" fill="#aca6c8" stroke="#000" stroke-width="5.071"/></g><path d="m 5.938 14.883 h 7.969 v 0.828 h -7.969" fill-opacity="0.302"/><path d="m 5.938 6.05 h 7.969 v 0.824 h -7.969" fill="#fff" fill-opacity="0.545"/><path d="m 10.883 6.418 c 0 0.156 -0.121 0.277 -0.273 0.277 c -0.152 0 -0.277 -0.121 -0.277 -0.277 c 0 -0.152 0.125 -0.273 0.277 -0.273 c 0.152 0 0.273 0.121 0.273 0.273" fill-rule="evenodd" fill-opacity="0.4"/><path d="m 62.839 75.69 l 77.27 0.136" transform="matrix(0.08594 0 0 0.08594 4.248 4.644)" fill="none" stroke="#000" stroke-linecap="round" stroke-width="3.803"/><g fill-rule="evenodd"><g fill-opacity="0.4"><path d="m 9.664 12 l 4.699 -0.012"/><path d="m 9.676 12.824 l 5.512 -0.008"/><path d="m 9.691 15.32 l 3.02 -0.02"/></g><g stroke="#000"><g transform="matrix(0.08594 0 0 0.08594 4.248 4.644)"><path d="m 59.29 8.825 h 13.864 c 0.636 0 1.136 0.5 1.136 1.136 v 16.682 c 0 0.636 -0.5 1.136 -1.136 1.136 h -13.864 c -0.591 0 -1.136 -0.5 -1.136 -1.136 v -16.682 c 0 -0.636 0.545 -1.136 1.136 -1.136" stroke-width="1.166"/><path d="m 42.25 19.279 h 48.09 v 16.05 h -48.09" fill="url(#0)" stroke-width="2.264"/></g><g fill="#fff"><path d="m 138.17 25.368 c 0 1.955 -1.557 3.51 -3.517 3.51 c -1.959 0 -3.567 -1.554 -3.567 -3.51 c 0 -1.955 1.608 -3.56 3.567 -3.56 c 1.959 0 3.517 1.604 3.517 3.56" transform="matrix(0.07775 0 0 0.07791 -0.513 3.859)" stroke-width="1.25"/><path d="m 61.02 47.825 h 66.14 c 9.5 0 17.18 7.682 17.18 17.18 v 65.27 c 0 9.5 -7.682 17.18 -17.18 17.18 h -66.14 c -9.5 0 -17.18 -7.682 -17.18 -17.18 v -65.27 c 0 -9.5 7.682 -17.18 17.18 -17.18" transform="matrix(0.08594 0 0 0.08594 4.248 4.644)" stroke-width="5.071"/></g></g></g><path d="m 6.332 6.449 v 8.906 h -0.824 v -8.906" fill="#fff" fill-opacity="0.545"/><g fill="#696969"><path d="m 10.582 10.723 h 3.445 c 0.438 0 0.793 0.145 0.793 0.324 c 0 0.18 -0.355 0.324 -0.793 0.324 h -3.445 c -0.438 0 -0.793 -0.145 -0.793 -0.324 c 0 -0.18 0.355 -0.324 0.793 -0.324"/><path d="m 10.535 12.355 h 3.445 c 0.438 0 0.793 0.145 0.793 0.324 c 0 0.184 -0.355 0.328 -0.793 0.328 h -3.445 c -0.438 0 -0.793 -0.145 -0.793 -0.328 c 0 -0.18 0.355 -0.324 0.793 -0.324"/><path d="m 10.488 13.805 h 3.445 c 0.438 0 0.793 0.145 0.793 0.324 c 0 0.18 -0.355 0.328 -0.793 0.328 h -3.445 c -0.438 0 -0.793 -0.148 -0.793 -0.328 c 0 -0.18 0.355 -0.324 0.793 -0.324"/></g></svg>