<svg xmlns="http://www.w3.org/2000/svg" viewBox="0 0 22 22"><path d="m 2.738 5.379 c 18.11 -19.48 29.523 20.73 5.48 16.297 c -6.344 -2.188 -11.297 -10.04 -5.48 -16.297" fill="#213352"/><path d="m 11.266 17.773 c 0.07 -0.5 0.043 -0.527 -0.504 -0.445 c -0.395 0.059 -0.703 -0.023 -0.949 -0.25 c -0.359 -0.328 -0.387 -0.32 -0.969 0.238 c -0.504 0.484 -0.75 0.762 -1.102 0.598 c -0.328 -0.152 -0.32 -0.547 -0.285 -1.043 c 0.027 -0.395 0.16 -0.672 0.352 -0.734 c 0.496 -0.156 0.531 -0.559 0.113 -1.332 c -0.555 -1.59 -0.383 -2.445 -0.379 -4.203 h -0.602 c -0.5 0 -0.621 -0.082 -0.695 -0.477 c -0.121 -0.645 0.727 -1.109 1.77 -0.969 c 1.398 0.191 2.566 -0.809 2.176 -1.855 c -0.305 -0.805 -0.438 -1.625 0.113 -2.25 c 0.414 -0.469 0.961 -0.832 1.281 -0.641 c 0.695 0.414 0.988 1.395 0.719 1.836 c -0.105 0.172 -0.156 0.625 -0.113 1 c 0.066 0.547 0.18 0.715 0.543 0.809 c 0.703 0.176 1.105 -0.035 1.445 -0.75 c 0.344 -0.738 0.641 -0.816 1.109 -0.293 c 0.305 0.344 0.305 0.379 -0.051 0.738 c -0.246 0.25 -0.336 0.52 -0.266 0.797 c 0.07 0.277 -0.004 0.5 -0.219 0.66 c -0.309 0.227 -0.652 0.668 -0.238 1.254 c 0.344 0.492 0.574 0.621 0.586 1.574 c 0.02 1.152 0.258 1.082 0.688 1.082 c 0.246 0 0.539 -0.055 0.648 -0.125 c 0.266 -0.164 1.023 0.652 0.852 0.918 c -0.246 0.387 -0.988 0.66 -1.488 0.551 c -0.445 -0.102 -0.809 -0.375 -1.598 0.73 c -0.66 0.918 -0.875 1.715 -1.488 1.98 c -0.453 0.195 -0.914 0.531 -1.027 0.746 c -0.293 0.555 -0.512 0.477 -0.422 -0.148" fill="#90857e"/><path d="m 11.449 17.266 c -0.051 -0.051 -0.41 0.145 -0.855 0.117 c -1.535 -0.098 -1.805 -0.453 -2.141 -1.152 c -0.188 -0.387 -0.703 -1.078 -0.703 -1.543 c -0.316 -1.27 -0.609 -2.262 -0.277 -3.184 c 0.031 -1.664 0.438 -1.352 1.379 -2.273 c 0.375 -0.387 0.973 -0.426 1.195 -0.848 c 0.367 -0.711 1.012 -0.797 2.602 -0.344 c 1.344 0.383 1.738 0.625 1.738 1.059 c 0 0.188 0.207 0.66 0.457 1.055 c 0.563 0.887 0.695 1.543 0.461 2.258 c -0.129 0.387 -0.137 0.676 -0.027 0.988 c 0.129 0.367 0.09 0.574 -0.211 1.176 c -0.449 0.898 -1.625 2.258 -2.211 2.563 c -0.371 0.09 -1.105 0.379 -1.406 0.129" fill="#6c432f"/><path d="m 11.48 15.406 c -0.027 -0.031 -0.23 0.086 -0.48 0.07 c -0.859 -0.063 -1.012 -0.277 -1.199 -0.703 c -0.105 -0.238 -0.395 -0.66 -0.395 -0.945 c -0.176 -0.773 -0.344 -1.379 -0.156 -1.941 c 0.02 -1.016 0.246 -0.824 0.773 -1.387 c 0.211 -0.234 0.547 -0.262 0.668 -0.516 c 0.207 -0.438 0.57 -0.488 1.461 -0.211 c 0.754 0.234 0.977 0.379 0.977 0.645 c 0 0.113 0.113 0.402 0.254 0.645 c 0.316 0.539 0.391 0.941 0.258 1.379 c -0.07 0.234 -0.074 0.41 -0.016 0.602 c 0.074 0.223 0.051 0.352 -0.117 0.719 c -0.25 0.547 -0.91 1.379 -1.238 1.563 c -0.207 0.055 -0.621 0.23 -0.789 0.082" fill="#8f5334"/><path d="m 10.527 5.863 c 0 0.141 -0.07 0.27 -0.188 0.34 c -0.113 0.07 -0.254 0.07 -0.367 0 c -0.117 -0.07 -0.188 -0.199 -0.188 -0.34 c 0 -0.141 0.07 -0.27 0.188 -0.34 c 0.113 -0.07 0.254 -0.07 0.367 0 c 0.117 0.07 0.188 0.199 0.188 0.34"/><path d="m 12.441 5.668 c 0 0.133 -0.07 0.254 -0.188 0.32 c -0.113 0.066 -0.254 0.066 -0.367 0 c -0.117 -0.066 -0.188 -0.188 -0.188 -0.32 c 0 -0.133 0.07 -0.254 0.188 -0.32 c 0.113 -0.066 0.254 -0.066 0.367 0 c 0.117 0.066 0.188 0.188 0.188 0.32"/></svg>