<svg xmlns="http://www.w3.org/2000/svg" viewBox="0 0 22 22" xmlns:xlink="http://www.w3.org/1999/xlink"><path d="m 4.535 19.852 c 16.539 10.996 26.727 -24.07 5.344 -19.426 c -8.836 1.977 -14.199 14.383 -5.344 19.426" fill="#ffd600"/><g fill="#fff"><path d="m 18.238 8.566 c -0.199 2.41 -2.629 4.285 -5.641 4.285 c -3.02 0 -4.77 -1.68 -4.984 -4.48 c -0.191 -2.516 1.938 -3.324 4.938 -3.609 c 4.523 -0.434 6.02 -0.203 5.688 3.805"/><path d="m 10.809 14.223 c 0 0 2.168 -1.27 2.23 -1.965 c 0.027 -0.309 2.316 -0.102 2.316 -0.102 c 0 0 -2.063 1.871 -4.547 2.066"/></g><path d="m 9.344 13.188 c 0 0 -1.387 0.328 -2.195 0.363 v 3.52 c 0.832 0.047 2.18 0.438 2.18 0.438 m -4.75 -4.305 v 4.305 c 0 0 1.547 -0.43 2.371 -0.445 v -3.504 c -0.832 -0.02 -2.371 -0.355 -2.371 -0.355" fill="#fff" id="0"/><use xlink:href="#0"/></svg>