<svg xmlns="http://www.w3.org/2000/svg" viewBox="0 0 22 22"><defs><linearGradient id="1" gradientUnits="userSpaceOnUse" x1="40.33" y1="19.813" x2="42.02" y2="22.625" gradientTransform="matrix(0.38005 -0.1255 0.10183 0.46838 -2.3 3.137)"><stop stop-color="#c1c1c1"/><stop offset="1" stop-color="#ababab"/></linearGradient><linearGradient id="3" gradientUnits="userSpaceOnUse" x1="19.893" y1="31.17" x2="19.689" y2="30.828" gradientTransform="matrix(0.38005 -0.1255 0.10183 0.46838 -2.3 3.137)"><stop stop-color="#000"/><stop offset="1" stop-color="#c8c8c8"/></linearGradient><linearGradient id="0" gradientUnits="userSpaceOnUse" x1="43.24" y1="17.376" x2="45.32" y2="22.251" gradientTransform="matrix(0.38005 -0.1255 0.10183 0.46838 -2.3 3.137)"><stop stop-color="#ffd0d0"/><stop offset="0.5" stop-color="#ff1c1c"/><stop offset="1" stop-color="#6f0000"/></linearGradient><radialGradient id="2" gradientUnits="userSpaceOnUse" cx="29.05" cy="27.641" r="3.241" gradientTransform="matrix(1.1111 -0.36691 0.20669 0.95067 -28.535 -2.197)"><stop stop-color="#e6e2b8"/><stop offset="1" stop-color="#e6e2b8" stop-opacity="0"/></radialGradient></defs><path d="m 10.805 0.188 c -9.617 -1.918 -13.27 11.254 -9.102 18.41 c 3.32 5.699 14.695 4.07 18.938 -3.625 c 4.242 -7.695 -2.117 -13.242 -9.836 -14.785" fill="#ff8c00"/><g fill-rule="evenodd"><path d="m 11.64 35.499 h 25.719 c 0.076 0 0.143 0.029 0.143 0.064 v 4.874 c 0 0.035 -0.067 0.064 -0.143 0.064 h -25.719 c -0.076 0 -0.143 -0.029 -0.143 -0.064 v -4.874 c 0 -0.035 0.067 -0.064 0.143 -0.064" transform="matrix(0.40978 0 0 0.67241 -1.539 -10.07)" fill="#fff" stroke="#949494" stroke-linejoin="round" stroke-linecap="round" stroke-miterlimit="10"/><g fill-opacity="0.275"><path d="m 3.973 14.531 h 0.352 c 0.035 0 0.066 0.027 0.066 0.066 v 1.914 c 0 0.035 -0.031 0.066 -0.066 0.066 h -0.352 c -0.035 0 -0.066 -0.031 -0.066 -0.066 v -1.914 c 0 -0.039 0.031 -0.066 0.066 -0.066"/><path d="m 4.938 14.531 h 0.859 c 0.035 0 0.066 0.027 0.066 0.066 v 1.914 c 0 0.035 -0.031 0.066 -0.066 0.066 h -0.859 c -0.035 0 -0.066 -0.031 -0.066 -0.066 v -1.914 c 0 -0.039 0.031 -0.066 0.066 -0.066"/><path d="m 6.355 14.531 h 1.34 c 0.035 0 0.066 0.027 0.066 0.066 v 1.914 c 0 0.035 -0.031 0.066 -0.066 0.066 h -1.34 c -0.039 0 -0.066 -0.031 -0.066 -0.066 v -1.914 c 0 -0.039 0.027 -0.066 0.066 -0.066"/></g><path d="m 17.343 32.502 l 5.619 -5.625 l 20.1 -9.752 c 3.244 -1.249 5.181 3.373 2.31 4.997 l -20.03 9.379" transform="matrix(0.38005 -0.1255 0.10183 0.46838 -2.3 3.137)" fill="#ca8f21" stroke="#5b400b" stroke-width="0.934"/><path d="m 14.305 7.695 c 0 0 0.555 -0.137 0.898 0.379 c 0.348 0.527 0.27 1.242 0.27 1.242 l 1.66 -1.789 c 0 0 0.461 -0.594 -0.043 -1.414 c -0.492 -0.809 -1.137 -0.203 -1.137 -0.203" fill="url(#0)"/><path d="m 14.305 7.695 c 0 0 0.555 -0.137 0.898 0.379 c 0.348 0.527 0.27 1.242 0.27 1.242 l 0.656 -0.719 c 0 0 0.18 -0.723 -0.188 -1.285 c -0.383 -0.582 -0.98 -0.34 -0.98 -0.34" fill="url(#1)"/><path d="m 8.07 15.668 l 1.25 -2.672 c 0.652 0.191 1.086 0.723 1.094 1.504" fill="url(#2)"/><path d="m 8.438 14.84 l -0.457 0.949 l 0.859 -0.438 c 0.012 -0.367 -0.18 -0.477 -0.402 -0.512" fill="url(#3)"/><g fill-opacity="0.365"><path d="m 9.316 12.98 l 0.723 0.391 l 5.102 -5.359 c -0.254 -0.348 -0.582 -0.355 -0.84 -0.309" fill="#fff"/><path d="m 10.418 14.531 l -0.004 -0.375 l 5.063 -5.254 c 0 0 0.02 0.301 -0.008 0.379 l -5.05 5.246"/></g></g></svg>