<svg xmlns="http://www.w3.org/2000/svg" xmlns:xlink="http://www.w3.org/1999/xlink" viewBox="0 0 22 22"><defs><g id="4" clip-path="url(#3)"><path d="m 7.195 10.527 l -0.535 -0.793 l -0.734 0.035 l -0.965 0.793 l -0.434 1.07 l -0.035 1.484 l 0.332 1.141 l 0.504 0.656 l 0.5 0.035 l 0.465 -0.172 l 1.738 -2.559"/><path d="m 12.08 8.201 c -1.039 -1.769 -2.326 -5.101 -3.844 -4.846 c -12.06 1.961 -8.81 21.822 -2.937 21.79 c 3.679 -0.207 4.52 -4.511 6.55 -7.077" transform="matrix(0.23677 0 0 0.24506 4.459 8.83)" stroke="#000"/><path d="m 32.739 9.125 c 2.59 1.339 4.966 2.232 8.315 5.308 c 0.181 2.232 -0.561 3.921 -2.145 4.32 c -4.19 1.052 -5.428 0.032 -7.869 -0.08" transform="matrix(0.23677 0 0 0.24506 4.459 8.83)" stroke="#000"/><path d="m 12.156 11.172 l 0.328 2.23 c 0.207 0.059 0.383 0.043 0.555 0.012 c 0.063 -0.813 -0.023 -1.199 -0.16 -1.875"/><path d="m 9.922 8.77 c -0.145 0.004 -0.293 0.012 -0.438 0.023 c -2.031 0.813 -2.313 1.555 -3.078 2.32 l -0.297 2.496 c 0.488 1.316 1.059 1.504 2.34 1.094 c -0.172 0.813 1.051 0.988 1.605 0.605 l 0.473 -0.512 c 0.5 0.012 0.781 0.191 1.09 -0.75 c 0.453 0.172 0.863 -0.18 0.879 -0.5 c 0.047 -0.863 0.18 -1.855 -0.488 -2.527 l 3.391 0.055 c 1.41 -0.254 1.773 -2.133 1.02 -2.168 c -2.234 0.285 -4.348 -0.199 -6.496 -0.137"/><path d="m 6.48 14.43 c -0.512 -0.387 -0.359 -1.578 -0.34 -2.418 c -0.336 0.879 -0.578 1.871 -0.047 2.816"/><path d="m 8.117 9.543 c -0.664 0.41 -1.109 1.191 -1.52 1.684 c -0.813 0.883 -1.758 0.887 -1.551 -0.563 c -0.254 0.359 -0.348 0.754 -0.438 1.148 c -0.016 0.449 -0.063 0.828 0.051 1.613 c 0.262 0.785 0.363 1.195 0.813 1.402 c 0.367 0.191 0.734 -0.074 0.98 -0.438 l 0.762 0.547 l 0.879 -0.082 l 0.41 -0.293 l 0.105 0.746 l 0.617 0.133 c 0.457 0.227 0.711 -0.105 1.031 -0.398 l 0.184 -0.215 h 0.668 c 0.332 -0.453 0.625 -0.91 1.293 -0.879 l 0.152 -1.363 c -0.488 -0.52 -1.063 -0.715 -1.703 -0.961 c 0.41 0.52 0.703 1.082 0.801 1.711 c -0.867 -0.723 -1.523 -1.152 -1.961 -1.098 c 0.652 0.641 0.93 0.992 0.652 1.543 c -1.137 -1.777 -2.566 -0.504 -2.973 -1.996 c -0.133 -0.48 0.496 -1.629 0.746 -2.242"/><path d="m -14.485 1.127 c 3.234 -3.124 4.438 -6.169 13.02 -9.484 c 9.701 -0.606 19.22 1.706 29.28 0.462 c 3.184 0.143 1.65 7.827 -4.322 8.863 l -14.32 -0.223 c 2.805 2.726 2.277 6.791 2.079 10.313 c -0.082 1.307 -1.831 2.726 -3.745 2.024 c -1.303 3.842 -2.475 3.108 -4.586 3.061 l -1.996 2.088 c -2.343 1.546 -7.49 0.845 -6.781 -2.471 c -5.411 1.674 -7.803 0.909 -9.849 -4.463" transform="matrix(0.23677 0 0 0.24506 9.84 10.888)" stroke="url(#2)"/><path d="m -0.231 5.813 c 2.887 1.291 2.92 5.675 2.92 10.17" transform="matrix(0.23677 0 0 0.24506 9.84 10.888)" stroke="#000" stroke-linecap="round"/><path d="m 4.091 2.96 c 3.3 2.072 3.597 6.36 3.465 9.947" transform="matrix(0.23677 0 0 0.24506 9.84 10.888)" stroke="#000" stroke-linecap="round"/><path d="m -2.228 13.13 c -1.864 -0.494 -3 0.032 -3.63 2.391" transform="matrix(0.23677 0 0 0.24506 9.84 10.888)" stroke="#000" stroke-linecap="round"/><path d="m 6.281 12.953 c 0.008 0.992 0.594 1.508 1.715 1.793 c -1.172 0.32 -1.789 -0.297 -1.715 -1.793"/></g><g id="7" clip-path="url(#6)"><path d="m 7.195 10.313 l -0.535 -0.793 l -0.734 0.031 l -0.965 0.797 l -0.434 1.07 l -0.035 1.484 l 0.332 1.141 l 0.504 0.656 l 0.5 0.035 l 0.465 -0.176 l 1.738 -2.555"/><path d="m 12.08 8.205 c -1.039 -1.769 -2.326 -5.101 -3.844 -4.862 c -12.06 1.977 -8.81 21.822 -2.937 21.806 c 3.679 -0.207 4.52 -4.511 6.55 -7.093" transform="matrix(0.23677 0 0 0.24506 4.459 8.614)" stroke="#000"/><path d="m 32.739 9.129 c 2.59 1.339 4.966 2.216 8.315 5.308 c 0.181 2.216 -0.561 3.921 -2.145 4.32 c -4.19 1.052 -5.428 0.016 -7.869 -0.08" transform="matrix(0.23677 0 0 0.24506 4.459 8.614)" stroke="#000"/><path d="m 12.156 10.957 l 0.328 2.23 c 0.207 0.055 0.383 0.043 0.555 0.012 c 0.063 -0.813 -0.023 -1.203 -0.16 -1.875"/><path d="m 9.922 8.555 c -0.145 0.004 -0.293 0.012 -0.438 0.023 c -2.031 0.809 -2.313 1.555 -3.078 2.32 l -0.297 2.496 c 0.488 1.313 1.059 1.5 2.34 1.094 c -0.172 0.809 1.051 0.984 1.605 0.605 l 0.473 -0.512 c 0.5 0.008 0.781 0.188 1.09 -0.754 c 0.453 0.176 0.863 -0.176 0.879 -0.496 c 0.047 -0.863 0.18 -1.859 -0.488 -2.527 l 3.391 0.055 c 1.41 -0.258 1.773 -2.133 1.02 -2.168 c -2.234 0.285 -4.348 -0.199 -6.496 -0.137"/><path d="m 6.48 14.215 c -0.512 -0.387 -0.359 -1.578 -0.34 -2.418 c -0.336 0.879 -0.578 1.871 -0.047 2.816"/><path d="m 8.117 9.328 c -0.664 0.406 -1.109 1.191 -1.52 1.68 c -0.813 0.887 -1.758 0.891 -1.551 -0.559 c -0.254 0.359 -0.348 0.754 -0.438 1.148 c -0.016 0.449 -0.063 0.828 0.051 1.613 c 0.262 0.785 0.363 1.195 0.813 1.402 c 0.367 0.191 0.734 -0.074 0.98 -0.441 l 0.762 0.547 l 0.879 -0.078 l 0.41 -0.293 l 0.105 0.746 l 0.617 0.133 c 0.457 0.227 0.711 -0.105 1.031 -0.398 l 0.184 -0.215 h 0.668 c 0.332 -0.453 0.625 -0.914 1.293 -0.883 l 0.152 -1.359 c -0.488 -0.523 -1.063 -0.719 -1.703 -0.961 c 0.41 0.52 0.703 1.082 0.801 1.707 c -0.867 -0.719 -1.523 -1.148 -1.961 -1.094 c 0.652 0.641 0.93 0.992 0.652 1.543 c -1.137 -1.777 -2.566 -0.508 -2.973 -1.996 c -0.133 -0.484 0.496 -1.629 0.746 -2.242"/><path d="m -14.485 1.131 c 3.234 -3.124 4.438 -6.169 13.02 -9.484 c 9.701 -0.606 19.22 1.706 29.28 0.462 c 3.184 0.143 1.65 7.811 -4.322 8.863 l -14.32 -0.239 c 2.805 2.742 2.277 6.806 2.079 10.329 c -0.082 1.307 -1.831 2.726 -3.745 2.024 c -1.303 3.842 -2.475 3.108 -4.586 3.061 l -1.996 2.088 c -2.343 1.546 -7.49 0.829 -6.781 -2.471 c -5.411 1.658 -7.803 0.893 -9.849 -4.463" transform="matrix(0.23677 0 0 0.24506 9.84 10.672)" stroke="url(#2)"/><path d="m -0.231 5.817 c 2.887 1.291 2.92 5.675 2.92 10.17" transform="matrix(0.23677 0 0 0.24506 9.84 10.672)" stroke="#000" stroke-linecap="round"/><path d="m 4.091 2.964 c 3.3 2.072 3.597 6.36 3.465 9.931" transform="matrix(0.23677 0 0 0.24506 9.84 10.672)" stroke="#000" stroke-linecap="round"/><path d="m -2.228 13.13 c -1.864 -0.51 -3 0.016 -3.63 2.391" transform="matrix(0.23677 0 0 0.24506 9.84 10.672)" stroke="#000" stroke-linecap="round"/><path d="m 6.281 12.738 c 0.008 0.992 0.594 1.504 1.715 1.793 c -1.172 0.32 -1.789 -0.297 -1.715 -1.793"/></g><clipPath id="6"><path d="M 0,0 H22 V22 H0 z"/></clipPath><clipPath id="3"><path d="M 0,0 H22 V22 H0 z"/></clipPath><filter id="0" filterUnits="objectBoundingBox" x="0" y="0" width="22" height="22"><feColorMatrix type="matrix" in="SourceGraphic" values="0 0 0 0 1 0 0 0 0 1 0 0 0 0 1 0 0 0 1 0"/></filter><linearGradient id="A" gradientUnits="userSpaceOnUse" x1="16.11" y1="28.13" x2="19.266" y2="6.886" gradientTransform="matrix(0.23677 0 0 0.24506 4.459 8.453)"><stop stop-color="#696969"/><stop offset="1" stop-color="#7d7d7d" stop-opacity="0"/></linearGradient><linearGradient id="9" gradientUnits="userSpaceOnUse" x1="6.846" y1="27.04" x2="7.119" y2="13.695" gradientTransform="matrix(0.23677 0 0 0.24506 4.459 8.453)"><stop stop-color="#404040"/><stop offset="1" stop-color="#404040" stop-opacity="0"/></linearGradient><linearGradient id="8" gradientUnits="userSpaceOnUse" x1="34.35" y1="14.975" x2="36.04" y2="14.812" gradientTransform="matrix(0.23677 0 0 0.24506 4.459 8.453)"><stop stop-color="#2d2d2d"/><stop offset="1" stop-color="#2d2d2d" stop-opacity="0"/></linearGradient><linearGradient id="2" gradientUnits="userSpaceOnUse" x1="-11.698" y1="5.927" x2="-14.296" y2="5.585"><stop stop-color="#000"/><stop offset="1" stop-color="#000" stop-opacity="0"/></linearGradient><linearGradient id="B" gradientUnits="userSpaceOnUse" x1="8.446" y1="24.507" x2="11.786" y2="20.964" gradientTransform="matrix(0.23677 0 0 0.24506 4.459 8.453)"><stop stop-color="#f4f4f4"/><stop offset="1" stop-color="#f4f4f4" stop-opacity="0"/></linearGradient><mask id="1"><g filter="url(#0)"><path fill-opacity="0.102" d="M 0,0 H22 V22 H0 z"/></g></mask><mask id="5"><g filter="url(#0)"><path fill-opacity="0.2" d="M 0,0 H22 V22 H0 z"/></g></mask></defs><path d="m 0.402 6.992 c -3.82 30.992 40.11 5.305 12 -6.078 c -4.938 -1.746 -10.492 -0.23 -12 6.078" fill="#4c54b1"/><use xlink:href="#4" mask="url(#1)"/><use xlink:href="#7" mask="url(#5)"/><path d="m 7.195 10.152 l -0.535 -0.797 l -0.734 0.035 l -0.965 0.793 l -0.434 1.074 l -0.035 1.484 l 0.332 1.137 l 0.504 0.656 l 0.5 0.035 l 0.465 -0.172 l 1.738 -2.555" fill="#f4f4f4"/><g stroke="#000" transform="matrix(0.23677 0 0 0.24506 4.459 8.453)"><path d="m 12.08 8.194 c -1.039 -1.769 -2.326 -5.101 -3.844 -4.846 c -12.06 1.961 -8.81 21.822 -2.937 21.806 c 3.679 -0.207 4.52 -4.511 6.55 -7.093" fill="none"/><path d="m 32.739 9.119 c 2.59 1.355 4.966 2.232 8.315 5.324 c 0.181 2.216 -0.561 3.905 -2.145 4.304 c -4.19 1.068 -5.428 0.032 -7.869 -0.064" fill="#d6d6d6"/></g><path d="m 12.156 10.793 l 0.328 2.23 c 0.207 0.059 0.383 0.043 0.555 0.016 c 0.063 -0.813 -0.023 -1.203 -0.16 -1.875" fill="url(#8)"/><path d="m 9.922 8.391 c -0.145 0.004 -0.293 0.016 -0.438 0.023 c -2.031 0.813 -2.313 1.559 -3.078 2.32 l -0.297 2.496 c 0.488 1.316 1.059 1.504 2.34 1.098 c -0.172 0.809 1.051 0.984 1.605 0.605 l 0.473 -0.516 c 0.5 0.012 0.781 0.191 1.09 -0.75 c 0.453 0.172 0.863 -0.176 0.879 -0.496 c 0.047 -0.867 0.18 -1.859 -0.488 -2.527 l 3.391 0.055 c 1.41 -0.258 1.773 -2.137 1.02 -2.168 c -2.234 0.281 -4.348 -0.199 -6.496 -0.141" fill="#f4f4f4"/><path d="m 6.48 14.05 c -0.512 -0.383 -0.359 -1.574 -0.34 -2.414 c -0.336 0.875 -0.578 1.871 -0.047 2.816" fill="url(#9)"/><path d="m 8.117 9.164 c -0.664 0.41 -1.109 1.191 -1.52 1.684 c -0.813 0.887 -1.758 0.887 -1.551 -0.563 c -0.254 0.363 -0.348 0.754 -0.438 1.148 c -0.016 0.449 -0.063 0.828 0.051 1.617 c 0.262 0.785 0.363 1.195 0.813 1.402 c 0.367 0.191 0.734 -0.074 0.98 -0.441 l 0.762 0.547 l 0.879 -0.078 l 0.41 -0.297 l 0.105 0.75 l 0.617 0.133 c 0.457 0.223 0.711 -0.105 1.031 -0.402 l 0.184 -0.211 h 0.668 c 0.332 -0.457 0.625 -0.914 1.293 -0.883 l 0.152 -1.359 c -0.488 -0.523 -1.063 -0.719 -1.703 -0.961 c 0.41 0.52 0.703 1.078 0.801 1.707 c -0.867 -0.719 -1.523 -1.152 -1.961 -1.094 c 0.652 0.637 0.93 0.992 0.652 1.539 c -1.137 -1.773 -2.566 -0.504 -2.973 -1.992 c -0.133 -0.484 0.496 -1.629 0.746 -2.246" fill="url(#A)"/><g fill="none"><path d="m -14.485 1.12 c 3.234 -3.124 4.438 -6.169 13.02 -9.469 c 9.701 -0.606 19.22 1.69 29.28 0.462 c 3.184 0.128 1.65 7.811 -4.322 8.847 l -14.32 -0.223 c 2.805 2.726 2.277 6.791 2.079 10.329 c -0.082 1.307 -1.831 2.71 -3.745 2.01 c -1.303 3.842 -2.475 3.124 -4.586 3.076 l -1.996 2.072 c -2.343 1.562 -7.49 0.845 -6.781 -2.455 c -5.411 1.658 -7.803 0.893 -9.849 -4.479" transform="matrix(0.23677 0 0 0.24506 9.84 10.511)" stroke="url(#2)"/><g stroke="#000" stroke-linecap="round" transform="matrix(0.23677 0 0 0.24506 9.84 10.511)"><path d="m -0.231 5.807 c 2.887 1.291 2.92 5.691 2.92 10.17"/><path d="m -2.228 13.12 c -1.864 -0.494 -3 0.032 -3.63 2.391"/></g></g><path d="m 6.281 12.578 c 0.008 0.992 0.594 1.504 1.715 1.793 c -1.172 0.32 -1.789 -0.297 -1.715 -1.793" fill="url(#B)"/></svg>