<svg xmlns="http://www.w3.org/2000/svg" viewBox="0 0 22 22"><path d="m 4.684 2.402 c 16.398 -10.855 26.496 23.762 5.301 19.18 c -8.762 -1.949 -14.08 -14.199 -5.301 -19.18" fill="#e0e0e0"/><path d="m 4.637 14.227 c -0.031 -0.07 -0.039 -0.465 -0.023 -0.875 l 0.027 -0.754 l 6.234 -0.023 c 4.621 -0.016 6.27 0.004 6.371 0.086 c 0.102 0.082 0.133 0.309 0.109 0.879 l -0.027 0.77 l -6.32 0.023 c -5.223 0.02 -6.332 0 -6.371 -0.105 m -0.043 -4.184 v -2.137 h 2.355 c 2.246 0 2.363 0.008 2.461 0.184 c 0.066 0.121 0.094 0.895 0.078 2.113 l -0.027 1.922 h -1.18 l -0.051 -1.566 l -0.047 -1.563 h -0.492 l -0.027 1.59 l -0.027 1.586 h -0.586 c -0.711 0 -0.68 0.082 -0.711 -1.801 c -0.023 -1.305 -0.035 -1.375 -0.223 -1.375 c -0.188 0 -0.199 0.078 -0.246 1.563 l -0.047 1.566 l -0.617 0.027 l -0.613 0.031 m 5.371 -0.16 c -0.094 -0.23 -0.07 -3.863 0.023 -4.01 c 0.055 -0.082 0.254 -0.113 0.613 -0.094 l 0.531 0.031 l 0.055 4.219 h -0.582 c -0.441 0 -0.598 -0.035 -0.641 -0.148 m 1.73 -1.156 l 0.027 -1.305 h 1.082 l 0.051 0.762 l 0.047 0.758 h 1.477 v -2.086 l -2.656 -0.094 l -0.031 -0.5 l -0.027 -0.496 h 1.902 c 1.348 0 1.938 0.031 2.02 0.113 c 0.168 0.16 0.168 3.879 0 4.04 c -0.082 0.082 -0.672 0.113 -2.02 0.113 h -1.902 m 4.527 -2.133 v -2.133 h 1.184 v 4.266 h -1.184" fill="#2f2f2f"/></svg>