<svg xmlns="http://www.w3.org/2000/svg" viewBox="0 0 22 22"><defs><clipPath id="0"><path d="m 3 5 h 16 v 13 h -16"/></clipPath><clipPath id="1"><path d="m 21.934 9.727 c 0 7.133 -5.527 12.91 -12.336 12.91 c -6.809 0 -12.332 -5.777 -12.332 -12.91 c 0 -7.133 5.523 -12.91 12.332 -12.91 c 6.809 0 12.336 5.777 12.336 12.91"/></clipPath></defs><path d="m 2.145 4.535 c -10.996 16.539 24.07 26.727 19.43 5.344 c -1.98 -8.836 -14.387 -14.199 -19.43 -5.344" fill="#661325"/><g clip-path="url(#0)"><g clip-path="url(#1)"><path d="m 3.441 9.32 c 0.238 1.879 2.039 3.207 4.03 2.957 c 0.621 -0.078 1.188 -0.301 1.664 -0.625 c 0 0 0.004 0.004 0.008 0 l 7.461 5.488 l 1.438 -0.18 l -0.172 -1.363 l -0.535 -0.395 l -0.961 0.121 l -0.113 -0.91 l -0.535 -0.395 l -0.113 -0.91 l -0.539 -0.391 l -0.957 0.117 l -0.535 -0.395 l -0.113 -0.906 l -0.961 0.117 l -2.094 -1.539 c 0 -0.004 -0.004 -0.008 -0.004 -0.012 c 0.219 -0.516 0.301 -1.09 0.23 -1.676 c -0.238 -1.879 -2.039 -3.211 -4.02 -2.965 l -0.016 0.004 c -1.984 0.254 -3.391 1.977 -3.156 3.855 m 1.836 -0.918 c -0.063 -0.5 0.316 -0.961 0.848 -1.027 c 0.527 -0.066 1.01 0.289 1.07 0.789 c 0.063 0.5 -0.313 0.961 -0.844 1.027 c -0.531 0.066 -1.012 -0.289 -1.074 -0.789" fill="#ff4500"/></g></g><g fill="#ff4500" stroke="#ff4500" stroke-width="1.147"><path d="m 150.76 112.82 l -5.273 -18.864 l -18.05 -7.591 l 16.273 -10.864 l 1.636 -19.5 l 15.364 12.136 l 19.05 -4.5 l -6.773 18.364 l 10.136 16.773 l -19.545 -0.818" transform="matrix(0.08594 0 0 0.08594 0.466 0.746)"/><path d="m 150.78 112.81 l -5.273 -18.864 l -18.09 -7.545 l 16.318 -10.864 l 1.591 -19.545 l 15.364 12.136 l 19.09 -4.5 l -6.818 18.409 l 10.182 16.727 l -19.591 -0.818" transform="matrix(0.08594 0 0 0.08594 -4.755 8.856)"/></g></svg>