<svg xmlns="http://www.w3.org/2000/svg" viewBox="0 0 48 48" xmlns:xlink="http://www.w3.org/1999/xlink"><defs><linearGradient id="A" gradientUnits="userSpaceOnUse" x1="20.12" y1="21.523" x2="19.23" y2="19.893"><stop stop-color="#7f817c"/><stop offset="1" stop-color="#b2b2af"/></linearGradient><linearGradient id="B" gradientUnits="userSpaceOnUse" x1="20.16" y1="25.445" x2="18.776" y2="17.268" gradientTransform="matrix(0.64792 0 0 0.6818 6.305 10.983)"><stop stop-color="#878985"/><stop offset="1" stop-color="#545653"/></linearGradient><linearGradient id="E" gradientUnits="userSpaceOnUse" x1="20.16" y1="25.445" x2="18.776" y2="17.268" gradientTransform="matrix(0.64792 0 0 0.6818 15.665 10.983)" xlink:href="#B"/><linearGradient id="8" gradientUnits="userSpaceOnUse" x1="19.643" y1="21.607" x2="19.02" y2="20.2"><stop stop-color="#878985"/><stop offset="1" stop-color="#b9bab8"/></linearGradient><linearGradient id="6" gradientUnits="userSpaceOnUse" x1="12.882" y1="24" x2="9.08" y2="18.03"><stop stop-color="#878985"/><stop offset="1" stop-color="#b9bcb5"/></linearGradient><linearGradient id="1" gradientUnits="userSpaceOnUse" x1="23.04" y1="39.955" x2="22.989" y2="44.955"><stop stop-color="#ededec"/><stop offset="1" stop-color="#ededec" stop-opacity="0"/></linearGradient><linearGradient id="5" gradientUnits="userSpaceOnUse" x1="10.168" y1="23" x2="7.275" y2="18.643" xlink:href="#3"/><linearGradient id="2" gradientUnits="userSpaceOnUse" x1="21.04" y1="40.01" x2="20.989" y2="45.06"><stop stop-color="#d2d6cf"/><stop offset="1" stop-color="#d2d6cf" stop-opacity="0"/></linearGradient><linearGradient id="4" gradientUnits="userSpaceOnUse" x1="11.969" y1="11.27" x2="24.531" y2="39.06"><stop stop-color="#fff"/><stop offset="1" stop-color="#fff" stop-opacity="0.357"/></linearGradient><linearGradient id="3" gradientUnits="userSpaceOnUse" x1="17.353" y1="12.479" x2="19.8" y2="33.35" gradientTransform="matrix(0.97753 0 0 0.9949 0.034 -0.931)"><stop stop-color="#d2d6cf"/><stop offset="1" stop-color="#ededec"/></linearGradient><radialGradient id="F" gradientUnits="userSpaceOnUse" cx="17.197" cy="27.714" r="4" gradientTransform="matrix(0.79709 0.01353 -0.01016 0.66281 14.692 5.846)" xlink:href="#C"/><radialGradient id="D" gradientUnits="userSpaceOnUse" cx="17.495" cy="27.485" r="4" gradientTransform="matrix(0.53996 0 0 0.5682 9.545 8.822)"><stop stop-color="#f5f5f4"/><stop offset="1" stop-color="#e8e8e6"/></radialGradient><radialGradient id="9" gradientUnits="userSpaceOnUse" cx="19.18" cy="20.579" r="1" gradientTransform="matrix(0.54032 0.54908 -0.46583 0.4584 18.743 0.395)"><stop stop-color="#ededec"/><stop offset="1" stop-color="#b9bcb5"/></radialGradient><radialGradient id="G" gradientUnits="userSpaceOnUse" cx="17.495" cy="27.485" r="4" gradientTransform="matrix(0.53996 0 0 0.5682 18.904 8.822)" xlink:href="#D"/><radialGradient id="7" gradientUnits="userSpaceOnUse" cx="19.342" cy="20.674" r="1" gradientTransform="matrix(0.55357 0.53571 -0.69542 0.7186 23.25 -4.741)"><stop stop-color="#b9bcb5"/><stop offset="1" stop-color="#ededec"/></radialGradient><radialGradient id="C" gradientUnits="userSpaceOnUse" cx="17.197" cy="27.714" r="4" gradientTransform="matrix(0.79709 0.01353 -0.01016 0.66281 5.332 5.846)"><stop stop-color="#f4f4f2"/><stop offset="1" stop-color="#949590"/></radialGradient></defs><path d="m 24.08 0.586 c 31.664 -3.602 31.23 47.984 -0.563 47.38 c -29.563 1.699 -32.23 -50.18 0.563 -47.37" fill="#545653"/><g stroke-linejoin="round" stroke-linecap="round" stroke-miterlimit="6.5"><g fill-rule="evenodd"><path d="m 22.487 32.502 h 2 v 13.999 h -2" transform="matrix(0.71995 0 0 0.75759 7.03 4.087)" fill="url(#1)" stroke="url(#2)"/><path d="m 13.264 12.626 c -6.343 -0.933 -11.763 4.878 -11.763 10.879 c 0 5.997 5.415 11.813 11.763 10.879 c 8.09 -1.191 12.07 -1.17 20.46 0 c 6.354 0.887 11.768 -4.878 11.768 -10.879 c 0 -6 -5.442 -11.947 -11.768 -10.879 c -3.798 0.639 -6.722 0.959 -9.793 0.964 c -3.071 0 -6.283 -0.32 -10.667 -0.964" transform="matrix(0.71995 0 0 0.75759 7.03 4.087)" fill="url(#3)" stroke="#878985"/></g><path d="m 35.938 13.502 c -0.662 -0.067 -1.351 -0.031 -2.062 0.093 c -3.831 0.645 -6.798 0.969 -9.94 0.969 c -3.136 0 -6.44 -0.325 -10.841 -0.969 c -5.692 -0.835 -10.629 4.491 -10.629 9.905 c 0 5.414 4.937 10.745 10.629 9.905 c 8.133 -1.196 12.316 -1.176 20.748 0 c 5.702 0.794 10.689 -4.491 10.689 -9.905 c 0 -4.733 -3.901 -9.549 -8.594 -9.998" transform="matrix(0.71995 0 0 0.75759 7.03 4.087)" fill="none" stroke="url(#4)"/><g fill-rule="evenodd"><path d="m 8.489 15.498 h 3 v 3 h 3 v 3 h -3 v 3 h -2.93 l -0.071 -3 h -3 v -3 h 3" transform="matrix(0.71995 0 0 0.75759 7.03 4.087)" fill="url(#5)" stroke="url(#6)"/><g stroke="#b9bcb5"><path d="m 20.499 20.749 c 0 0.415 -0.337 0.752 -0.747 0.752 c -0.414 0 -0.751 -0.337 -0.751 -0.752 c 0 -0.415 0.337 -0.749 0.751 -0.749 c 0.411 0 0.747 0.334 0.747 0.749" transform="matrix(1.05593 0 0 1.11114 3.089 -2.68)" fill="#386fb4" stroke-width="0.545"/><g fill="#ededec" stroke-width="0.75"><path d="m 20.501 20.75 c 0 0.414 -0.338 0.75 -0.753 0.75 c -0.411 0 -0.749 -0.336 -0.749 -0.75 c 0 -0.414 0.338 -0.75 0.749 -0.75 c 0.415 0 0.753 0.336 0.753 0.75" transform="matrix(0.95993 0 0 1.0101 2.106 -0.585)"/><path d="m 20.499 20.75 c 0 0.414 -0.334 0.75 -0.749 0.75 c -0.415 0 -0.749 -0.336 -0.749 -0.75 c 0 -0.414 0.334 -0.75 0.749 -0.75 c 0.415 0 0.749 0.336 0.749 0.75" transform="matrix(0.95993 0 0 1.0101 7.865 -0.585)"/></g></g><g stroke-width="0.214"><path d="m 20.499 20.75 c 0 0.413 -0.335 0.749 -0.749 0.749 c -0.414 0 -0.751 -0.336 -0.751 -0.749 c 0 -0.413 0.337 -0.749 0.751 -0.749 c 0.414 0 0.749 0.336 0.749 0.749" transform="matrix(1.67988 0 0 1.76772 1.208 -14.411)" fill="url(#7)" stroke="url(#8)"/><g fill="url(#9)" stroke="url(#A)"><path d="m 20.5 20.75 c 0 0.413 -0.337 0.749 -0.751 0.749 c -0.414 0 -0.749 -0.336 -0.749 -0.749 c 0 -0.413 0.335 -0.749 0.749 -0.749 c 0.414 0 0.751 0.336 0.751 0.749" transform="matrix(1.67988 0 0 1.76772 -1.672 -16.684)"/><path d="m 20.501 20.749 c 0 0.415 -0.337 0.751 -0.751 0.751 c -0.414 0 -0.749 -0.336 -0.749 -0.751 c 0 -0.413 0.335 -0.749 0.749 -0.749 c 0.414 0 0.751 0.336 0.751 0.749" transform="matrix(1.67988 0 0 1.76772 1.198 -18.956)"/></g><path d="m 20.5 20.75 c 0 0.413 -0.337 0.749 -0.751 0.749 c -0.414 0 -0.749 -0.336 -0.749 -0.749 c 0 -0.413 0.335 -0.749 0.749 -0.749 c 0.414 0 0.751 0.336 0.751 0.749" transform="matrix(1.67988 0 0 1.76772 4.078 -16.684)" fill="url(#7)" stroke="url(#8)"/></g></g></g><g fill-rule="evenodd"><path d="m 21.297 27.441 l -2.035 0.887 l -2.035 -0.887 l -0.844 -2.145 l 0.844 -2.141 l 2.035 -0.887 l 2.035 0.887 l 0.844 2.141" fill="url(#B)"/><path d="m 21.785 25.301 c 0 1.465 -1.129 2.652 -2.52 2.652 c -1.395 0 -2.523 -1.188 -2.523 -2.652 c 0 -1.465 1.129 -2.652 2.523 -2.652 c 1.391 0 2.52 1.188 2.52 2.652" fill="url(#C)"/><path d="m 21.426 25.301 c 0 1.254 -0.969 2.27 -2.16 2.27 c -1.195 0 -2.16 -1.016 -2.16 -2.27 c 0 -1.258 0.965 -2.273 2.16 -2.273 c 1.191 0 2.16 1.016 2.16 2.273" fill="url(#D)"/></g><path d="m 21.03 26.389 c 1.447 1.677 1.259 4.194 -0.42 5.637 c -1.505 1.306 -3.747 1.292 -5.252 -0.027" transform="matrix(0.26998 0 0 0.2841 14.404 17.06)" fill="none" stroke="#b9bcb5" stroke-linejoin="round" stroke-linecap="round" stroke-width="2.667" stroke-miterlimit="6.5" id="0"/><g fill="none" stroke="#545653" stroke-linecap="round" stroke-width="0.2" transform="matrix(0.71995 0 0 0.75759 7.03 4.087)"><path d="m 11.989 19.999 h 1.503"/><path d="m 6.487 19.999 h 1.503"/><path d="m 9.987 23.5 v -1.5"/><path d="m 9.987 17.998 v -1.5"/><path d="m 19.487 21.912 v -0.815"/><path d="m 19.09 21.499 h 0.808"/><path d="m 27.09 21.499 h 0.814"/></g><g fill-rule="evenodd"><path d="m 30.656 27.441 l -2.035 0.887 l -2.035 -0.887 l -0.844 -2.145 l 0.844 -2.141 l 2.035 -0.887 l 2.035 0.887 l 0.844 2.141" fill="url(#E)"/><path d="m 31.14 25.301 c 0 1.465 -1.129 2.652 -2.52 2.652 c -1.395 0 -2.523 -1.188 -2.523 -2.652 c 0 -1.465 1.129 -2.652 2.523 -2.652 c 1.391 0 2.52 1.188 2.52 2.652" fill="url(#F)"/><path d="m 30.785 25.301 c 0 1.254 -0.969 2.27 -2.16 2.27 c -1.195 0 -2.16 -1.016 -2.16 -2.27 c 0 -1.258 0.965 -2.273 2.16 -2.273 c 1.191 0 2.16 1.016 2.16 2.273" fill="url(#G)"/></g><use transform="translate(9.359)" xlink:href="#0"/><g fill="#545653" stroke="#545653"><path d="m 21.256 16.982 v -1.047 h 0.423 c 0.423 0 0.429 0.005 0.678 0.547 c 0.141 0.304 0.288 0.547 0.326 0.547 c 0.038 0 0.19 -0.232 0.331 -0.521 c 0.255 -0.49 0.293 -0.521 0.667 -0.552 l 0.402 -0.031 v 2.099 h -0.559 l -0.054 -1.64 l -0.277 0.572 c -0.38 0.779 -0.613 0.784 -0.966 0.026 c -0.141 -0.304 -0.288 -0.547 -0.331 -0.547 c -0.043 0 -0.076 0.356 -0.076 0.794 v 0.794 h -0.564 v -1.047" transform="matrix(0.71995 0 0 0.75759 7.03 4.087)" stroke-width="0.063"/><g stroke-width="0.206" transform="scale(0.1875 0.1875)"><path d="m 133.17 91.61 v -2.833 h 1.896 v 5.667 h -1.896"/><path d="m 137.89 91.61 v -2.833 h 2.208 v 5.667 h -2.208"/></g><g stroke-width="0.069" transform="matrix(0.71995 0 0 0.75759 7.03 4.087)"><path d="m 26.16 16.04 c 0 -0.144 0.081 -0.211 0.277 -0.211 c 0.195 0 0.282 0.067 0.282 0.211 c 0 0.15 -0.087 0.211 -0.282 0.211 c -0.195 0 -0.277 -0.062 -0.277 -0.211"/><path d="m 24.918 16.04 c 0 -0.144 0.081 -0.211 0.277 -0.211 c 0.195 0 0.277 0.067 0.277 0.211 c 0 0.15 -0.081 0.211 -0.277 0.211 c -0.195 0 -0.277 -0.062 -0.277 -0.211"/></g><g stroke-width="1.136" transform="matrix(0.1875 0 0 0.1875 -0.045 0)"><path d="m 197.13 108.79 c -0.625 -0.625 -0.667 -1.542 -0.125 -2.229 c 0.333 -0.396 0.646 -0.479 1.875 -0.563 c 1.396 -0.083 1.479 -0.104 1.479 -0.563 c 0 -0.813 -0.833 -1.208 -2.187 -1.083 c -1.229 0.146 -1.521 -0.125 -0.562 -0.5 c 0.917 -0.354 2.312 -0.104 2.937 0.542 c 0.521 0.5 0.562 0.688 0.625 2.729 c 0.062 2.083 0.042 2.167 -0.375 2.167 c -0.292 0 -0.437 -0.125 -0.437 -0.417 v -0.438 l -0.542 0.438 c -0.792 0.604 -2.02 0.563 -2.687 -0.083 m 2.812 -0.667 c 0.229 -0.292 0.417 -0.833 0.417 -1.167 v -0.625 l -1.25 0.083 c -1.396 0.104 -1.708 0.313 -1.708 1.104 c 0 0.792 0.417 1.146 1.312 1.146 c 0.604 0 0.896 -0.125 1.229 -0.542"/><path d="m 182.13 95.86 l 0.979 -1.354 l -0.708 -0.979 c -1.021 -1.438 -1.042 -1.5 -0.687 -1.5 c 0.167 0 0.604 0.417 0.958 0.938 c 0.354 0.5 0.708 0.938 0.792 0.938 c 0.083 0 0.396 -0.438 0.729 -0.938 c 0.333 -0.521 0.729 -0.938 0.896 -0.938 c 0.396 0 0.375 0.083 -0.437 1.292 c -0.417 0.604 -0.729 1.167 -0.729 1.25 c 0 0.104 0.375 0.729 0.833 1.417 c 0.687 1.021 0.771 1.25 0.479 1.25 c -0.229 0 -0.625 -0.417 -0.979 -0.938 c -0.312 -0.521 -0.667 -1 -0.771 -1.063 c -0.104 -0.063 -0.479 0.354 -0.875 0.938 c -0.396 0.625 -0.833 1.042 -1.062 1.042 c -0.312 0.021 -0.187 -0.25 0.583 -1.354"/><path d="m 166.21 109.71 c 0 -0.125 0.229 -0.208 0.521 -0.208 c 0.354 0 0.604 -0.188 0.812 -0.604 c 0.312 -0.583 0.292 -0.688 -0.708 -2.813 c -0.771 -1.646 -0.937 -2.208 -0.708 -2.208 c 0.187 0 0.646 0.729 1.167 1.833 l 0.854 1.813 l 0.854 -1.813 c 0.458 -1 0.958 -1.833 1.125 -1.833 c 0.187 0 0.229 0.146 0.125 0.438 c -0.271 0.896 -2.208 4.875 -2.521 5.229 c -0.354 0.396 -1.521 0.521 -1.521 0.167"/></g><path d="m 38.1 24.815 c -0.065 -0.01 -0.152 -0.057 -0.184 -0.098 c -0.087 -0.093 -0.163 -0.093 -0.163 0.005 c 0 0.041 -0.038 0.077 -0.081 0.077 c -0.065 0 -0.081 -0.129 -0.081 -0.851 c 0 -0.722 0.016 -0.851 0.081 -0.851 c 0.065 0 0.081 0.072 0.081 0.335 c 0 0.186 0.016 0.335 0.033 0.335 c 0.022 0 0.098 -0.046 0.174 -0.103 c 0.434 -0.325 0.96 0.201 0.776 0.779 c -0.087 0.268 -0.347 0.423 -0.635 0.371 m 0.304 -0.17 c 0.244 -0.124 0.25 -0.701 0.011 -0.877 c -0.174 -0.134 -0.298 -0.129 -0.467 0.015 c -0.13 0.108 -0.168 0.247 -0.146 0.567 c 0.016 0.273 0.336 0.433 0.602 0.294" transform="matrix(0.71995 0 0 0.75759 7.03 4.087)" stroke-width="0.288"/></g></svg>