<svg xmlns="http://www.w3.org/2000/svg" viewBox="0 0 16 16"><path d="m 3.762 1.648 c 8.184 -5.754 16.473 4.871 9.805 11.648 c -6.281 6.387 -16.04 0.469 -12.988 -7.48 c 0.633 -1.656 1.68 -3.113 3.184 -4.168" fill="#007f7f"/><path d="m 8.434 4.156 c -0.035 0.004 -0.07 0.016 -0.102 0.031 l -2.68 1.457 h 2.102 l 0.43 -0.234 l 0.148 0.234 h 1.207 l -0.844 -1.363 c -0.055 -0.09 -0.16 -0.137 -0.262 -0.125 m -3.676 1.969 l -1.453 0.789 c -0.129 0.066 -0.176 0.223 -0.102 0.34 l 1.555 2.508 v -1.965 l -0.246 -0.402 l 0.246 -0.141 v -1.133 m 0.797 0.02 c -0.148 0 -0.266 0.109 -0.266 0.246 v 5.449 c 0 0.137 0.117 0.25 0.266 0.25 h 5.82 c 0.148 0 0.266 -0.113 0.266 -0.25 v -5.449 c 0 -0.137 -0.117 -0.246 -0.266 -0.246 m -5.03 0.988 h 4.234 v 3.469 h -4.234" fill="#fff"/></svg>