<svg xmlns="http://www.w3.org/2000/svg" xmlns:xlink="http://www.w3.org/1999/xlink" viewBox="0 0 16 16"><defs><g id="3" clip-path="url(#2)"><path d="m 8.04 6 c -1.383 -0.754 -1.391 0.98 -1.391 0.98 l 0.242 2.613 l 2.523 -1.109 c 0 0 1.586 -0.875 0.203 -1.629 c -0.426 -0.23 -0.738 -0.234 -0.969 -0.133 c -0.023 -0.238 -0.184 -0.492 -0.609 -0.727" fill="#fff"/><path d="m 6.891 9.598 l 1.176 2.375 c 0 0 0.926 1.5 1.727 0.195 c 0.246 -0.402 0.25 -0.695 0.141 -0.914 c 0.254 -0.02 0.523 -0.172 0.77 -0.574 c 0.797 -1.305 -1.039 -1.313 -1.039 -1.313 l -2.773 0.23" fill="#fff"/><path d="m 6.891 9.598 l -2.523 1.109 c 0 0 -1.586 0.871 -0.207 1.625 c 0.426 0.23 0.742 0.234 0.973 0.133 c 0.02 0.242 0.18 0.492 0.609 0.727 c 1.379 0.754 1.391 -0.98 1.391 -0.98 l -0.242 -2.613" fill="#fff"/><path d="m 6.891 9.598 l -1.176 -2.379 c 0 0 -0.93 -1.496 -1.727 -0.195 c -0.246 0.402 -0.25 0.699 -0.141 0.918 c -0.254 0.02 -0.523 0.168 -0.77 0.57 c -0.801 1.305 1.039 1.313 1.039 1.313 l 2.773 -0.227" fill="#fff"/></g><clipPath id="2"><path d="M 0,0 H16 V16 H0 z"/></clipPath><filter id="0" filterUnits="objectBoundingBox" x="0" y="0" width="16" height="16"><feColorMatrix type="matrix" in="SourceGraphic" values="0 0 0 0 1 0 0 0 0 1 0 0 0 0 1 0 0 0 1 0"/></filter><mask id="1"><g filter="url(#0)"><path fill-opacity="0.502" d="M 0,0 H16 V16 H0 z"/></g></mask></defs><path d="m 3.762 1.711 c 8.184 -5.73 16.473 4.852 9.805 11.598 c -6.281 6.359 -16.04 0.465 -12.988 -7.449 c 0.633 -1.648 1.68 -3.098 3.184 -4.148" fill="#f60"/><use xlink:href="#3" mask="url(#1)"/><g fill="#fff"><path d="m 8.04 5.797 c -1.383 -0.754 -1.391 0.98 -1.391 0.98 l 0.242 2.613 l 2.523 -1.109 c 0 0 1.586 -0.875 0.203 -1.629 c -0.426 -0.23 -0.738 -0.234 -0.969 -0.133 c -0.023 -0.238 -0.184 -0.492 -0.609 -0.727"/><path d="m 6.891 9.391 l 1.176 2.375 c 0 0 0.926 1.5 1.727 0.195 c 0.246 -0.402 0.25 -0.695 0.141 -0.914 c 0.254 -0.02 0.523 -0.172 0.77 -0.574 c 0.797 -1.305 -1.039 -1.313 -1.039 -1.313 l -2.773 0.23"/><path d="m 6.891 9.391 l -2.523 1.109 c 0 0 -1.586 0.871 -0.207 1.625 c 0.426 0.23 0.742 0.234 0.973 0.133 c 0.02 0.242 0.18 0.492 0.609 0.727 c 1.379 0.754 1.391 -0.98 1.391 -0.98 l -0.242 -2.613"/><path d="m 6.891 9.391 l -1.176 -2.379 c 0 0 -0.93 -1.496 -1.727 -0.195 c -0.246 0.402 -0.25 0.699 -0.141 0.918 c -0.254 0.02 -0.523 0.168 -0.77 0.57 c -0.801 1.305 1.039 1.313 1.039 1.313 l 2.773 -0.227"/></g></svg>