<svg xmlns="http://www.w3.org/2000/svg" viewBox="0 0 16 16"><path d="m 3.762 1.648 c 8.184 -5.754 16.473 4.871 9.805 11.648 c -6.281 6.387 -16.04 0.469 -12.988 -7.48 c 0.633 -1.656 1.68 -3.113 3.184 -4.168" fill="#007f7f"/><g fill="#fff"><path d="m 4.551 5.723 c -0.715 0 -1.289 0.574 -1.289 1.289 v 1.977 c 0 0.715 0.574 1.289 1.289 1.289 h 0.449 v -0.906 c 0 -0.414 0.336 -0.746 0.746 -0.746 h 3.285 c 0.414 0 0.746 0.332 0.746 0.746 v 0.906 h 0.453 c 0.715 0 1.289 -0.574 1.289 -1.289 v -1.977 c 0 -0.715 -0.574 -1.289 -1.289 -1.289 h -0.836 v 0.328 c 0 0.297 -0.238 0.531 -0.535 0.531 h -2.941 c -0.293 0 -0.531 -0.234 -0.531 -0.531 v -0.328"/><path d="m 5.918 8.961 h 2.941 c 0.297 0 0.535 0.238 0.535 0.531 v 1.926 c 0 0.293 -0.238 0.531 -0.535 0.531 h -2.941 c -0.293 0 -0.531 -0.238 -0.531 -0.531 v -1.926 c 0 -0.293 0.238 -0.531 0.531 -0.531"/><path d="m 6.137 3.813 h 2.508 c 0.25 0 0.453 0.207 0.453 0.457 v 1.641 c 0 0.25 -0.203 0.453 -0.453 0.453 h -2.508 c -0.25 0 -0.453 -0.203 -0.453 -0.453 v -1.641 c 0 -0.25 0.203 -0.457 0.453 -0.457"/></g></svg>