<svg xmlns="http://www.w3.org/2000/svg" viewBox="0 0 256 256"><defs><clipPath id="0"><path d="m 17 29 h 236 v 227 h -236"/></clipPath><clipPath id="1"><path d="m 252.69 142.28 c 0 62.49 -52.676 113.15 -117.66 113.15 c -64.98 0 -117.66 -50.656 -117.66 -113.15 c 0 -62.49 52.676 -113.15 117.66 -113.15 c 64.98 0 117.66 50.656 117.66 113.15"/></clipPath></defs><path d="m 100.3 255.34 c -15.07 -1.34 -31.527 -5.152 -43.691 -10.113 c -42.46 -17.332 -62.24 -52.52 -54.52 -97 c 4.148 -23.902 16.01 -50.953 34.887 -79.56 c 22.527 -34.14 57.34 -60.02 89.59 -66.58 c 6.813 -1.387 19.668 -1.879 26.535 -1.016 c 22.961 2.891 42.08 15.32 59.63 38.754 c 16.785 22.414 29.22 45.21 36.23 66.43 c 14.43 43.637 5.699 82.55 -24.84 110.72 c -21.465 19.797 -50.53 32.43 -86.19 37.461 c -5.336 0.754 -32.12 1.402 -37.625 0.914" fill="#d41919"/><path d="m 154.84 157.29 c -0.145 -0.316 -2.223 -5.453 -4.617 -11.414 c -3.23 -8.05 -4.285 -10.926 -4.09 -11.16 c 0.727 -0.863 19.06 -14.992 19.234 -14.82 c 0.297 0.289 9.01 22.08 9.01 22.527 c 0 0.211 -4.148 3.609 -9.215 7.555 c -5.063 3.949 -9.395 7.336 -9.637 7.531 c -0.383 0.316 -0.457 0.293 -0.688 -0.219" fill="#db6a6a"/><g clip-path="url(#0)"><g clip-path="url(#1)"><path d="m 35.902 260.23 c -6.266 -1.273 -12.891 -5.148 -16.711 -9.77 c -3.184 -3.852 -5.316 -8.109 -6.238 -12.457 c -0.5 -2.352 -0.512 -4.91 -0.445 -95.96 l 0.07 -93.54 l 0.605 -2.047 c 3.03 -10.25 10.898 -17.82 21.563 -20.734 l 2.125 -0.582 l 97.27 -0.066 c 94.43 -0.066 97.34 -0.055 99.75 0.422 c 6.359 1.258 12.914 5.01 16.77 9.594 c 3.273 3.898 5.434 8.184 6.395 12.684 c 0.496 2.316 0.508 5.113 0.441 95.93 l -0.07 93.54 l -0.605 2.047 c -3.035 10.25 -10.898 17.82 -21.559 20.734 l -2.129 0.582 l -97.45 0.051 c -93.27 0.043 -97.55 0.027 -99.77 -0.426" fill="#d41919"/></g></g><path d="m 105.84 191.6 c 10.11 -1.785 22.25 -3.93 26.984 -4.766 l 8.605 -1.52 l 14.324 3.836 c 7.883 2.109 15.902 4.254 17.824 4.77 c 3.75 0.988 4.742 1.023 6.16 0.195 c 0.406 -0.238 1.043 -0.813 1.41 -1.273 c 0.707 -0.898 0.496 -0.133 11.703 -41.855 c 2.777 -10.332 6.938 -25.82 9.258 -34.418 c 2.34 -8.684 4.215 -16.12 4.223 -16.742 c 0.012 -1.379 -0.977 -3.113 -2.184 -3.828 c -1.117 -0.664 -56.773 -15.539 -58.14 -15.539 c -1.309 0 -2.441 0.504 -3.508 1.559 c -0.973 0.969 -1.168 1.602 -4.547 14.629 c -1.289 4.973 -2.426 8.957 -2.527 8.848 c -0.152 -0.16 -2.605 -13.77 -3.156 -17.523 c -0.371 -2.523 -2.465 -4.426 -4.848 -4.41 c -1.063 0.008 -9.555 1.465 -46.898 8.06 c -6.02 1.066 -11.32 2.105 -11.785 2.32 c -1.531 0.695 -2.859 2.652 -2.859 4.207 c 0 0.863 15.992 91.79 16.375 93.09 c 0.574 1.973 2.582 3.613 4.41 3.613 c 0.438 0 9.07 -1.465 19.18 -3.25" fill="#e5e5e5"/><path d="m 90.8 199.36 c -0.559 -0.246 -1.316 -0.789 -1.684 -1.211 c -0.766 -0.871 -1.348 -2.613 -0.992 -2.957 c 0.125 -0.121 3.543 -0.805 7.594 -1.52 c 4.051 -0.715 15.711 -2.777 25.906 -4.578 c 10.199 -1.805 18.938 -3.281 19.418 -3.289 c 0.484 -0.008 2.684 0.48 4.887 1.078 c 17.914 4.871 30.344 8.109 31.14 8.109 c 1.344 0 3.055 -0.906 3.859 -2.047 c 0.551 -0.781 2.125 -6.344 8.352 -29.516 c 7.566 -28.16 13.703 -50.98 15.691 -58.35 l 1.02 -3.773 l 1.031 0.348 c 2.043 0.695 2.957 1.539 3.441 3.184 c 0.371 1.258 0.469 0.809 -2.781 12.934 c -1.348 5.04 -4.449 16.641 -6.887 25.785 c -10.738 40.28 -14.176 53.05 -14.438 53.672 c -0.398 0.949 -1.797 2.039 -3.01 2.352 c -1.273 0.328 0.602 0.773 -19.898 -4.723 c -9.105 -2.445 -16.777 -4.441 -17.05 -4.441 c -0.27 0 -7.871 1.309 -16.895 2.898 c -9.02 1.598 -20.977 3.711 -26.574 4.699 c -5.598 0.988 -10.391 1.797 -10.648 1.793 c -0.258 -0.004 -0.93 -0.203 -1.484 -0.445 m 44.39 -94 c -0.41 -1.645 -2.695 -15.227 -2.582 -15.34 c 0.258 -0.25 1.977 0.461 2.805 1.16 c 0.949 0.805 1.453 2.082 1.875 4.781 c 0.277 1.773 0.262 1.887 -0.832 5.906 c -0.805 2.957 -1.156 3.926 -1.266 3.492" fill="#bf3f3f"/><path d="m 68.47 94.02 l 60.37 -11.207 c 1.836 -0.34 3.574 0.82 3.883 2.598 l 16.508 95.32 c 0.305 1.777 -0.934 3.492 -2.77 3.832 l -60.37 11.207 c -1.84 0.34 -3.578 -0.82 -3.883 -2.598 l -16.508 -95.32 c -0.309 -1.773 0.934 -3.488 2.77 -3.832" fill="#fff" fill-rule="evenodd"/><g fill="#d65151"><path d="m 155.6 155.72 c -1.367 -3.03 -8.801 -21.918 -8.734 -22.2 c 0.109 -0.445 19.5 -15.613 19.828 -15.508 c 0.324 0.102 9.473 22.82 9.383 23.293 c -0.082 0.422 -19.223 15.43 -19.684 15.434 c -0.184 0 -0.539 -0.461 -0.793 -1.023"/><path d="m 109.13 154.58 c -9.527 -5.563 -12.754 -8.27 -15.15 -12.734 c -3.051 -5.684 -3.461 -10.902 -1.016 -12.973 c 1.605 -1.352 3.957 -1.73 7.469 -1.215 c 1.852 0.277 3.164 0.941 4.418 2.238 c 0.332 0.344 0.754 0.629 0.934 0.629 c 0.18 0 0.66 -0.633 1.063 -1.402 c 1.258 -2.391 3.988 -4.227 7.273 -4.887 c 4.363 -0.879 7.02 2.531 7.03 9.01 c 0.008 5.621 -1.07 8.766 -4.945 14.383 c -1.797 2.609 -5.727 7.473 -6.03 7.465 c -0.098 0 -0.566 -0.234 -1.051 -0.516"/></g></svg>