
<svg xmlns="http://www.w3.org/2000/svg" xmlns:xlink="http://www.w3.org/1999/xlink" width="22px" height="22px" viewBox="0 0 22 22" version="1.1">
<g id="surface1">
<path style=" stroke:none;fill-rule:nonzero;fill:rgb(100%,40%,0%);fill-opacity:1;" d="M 5.171875 2.265625 C 16.421875 -5.644531 27.824219 8.964844 18.65625 18.285156 C 10.019531 27.066406 -3.402344 18.925781 0.792969 8 C 1.667969 5.71875 3.105469 3.71875 5.171875 2.265625 Z M 5.171875 2.265625 "/>
<path style="fill-rule:nonzero;fill:rgb(100%,100%,100%);fill-opacity:1;stroke-width:1.89;stroke-linecap:butt;stroke-linejoin:miter;stroke:rgb(100%,100%,100%);stroke-opacity:1;stroke-miterlimit:4;" d="M 184.939091 18.996364 C 180.893636 16.905455 174.257273 11.314545 170.166364 6.496364 L 162.711818 -2.185455 L 155.984545 2.86 C 143.848182 11.905455 129.075455 8.632727 121.302727 -4.776364 C 116.711818 -12.685455 116.711818 -20.958182 121.302727 -28.821818 C 128.711818 -41.594545 144.166364 -44.367273 156.484545 -35.185455 L 162.257273 -30.867273 L 170.848182 -39.594545 C 182.939091 -51.912727 189.893636 -55.230909 201.757273 -54.185455 C 212.984545 -53.185455 225.03 -45.821818 229.802727 -37.049091 C 233.484545 -30.276364 234.393636 -30.14 241.439091 -35.412727 C 258.666364 -48.321818 281.348182 -35.64 279.257273 -14.230909 C 277.848182 0.541818 263.666364 11.405455 250.848182 7.541818 C 247.575455 6.587273 242.53 3.996364 239.711818 1.86 L 234.53 -2.003636 L 226.848182 7.36 C 221.484545 13.86 216.575455 17.632727 210.484545 19.814545 C 199.348182 23.814545 194.03 23.632727 184.984545 18.996364 Z M 206.802727 4.769091 C 210.166364 3.269091 214.802727 -0.412727 217.075455 -3.503636 C 220.53 -8.094545 221.120909 -10.730909 220.393636 -18.685455 C 219.666364 -26.64 218.439091 -29.230909 213.302727 -33.821818 C 207.802727 -38.730909 205.939091 -39.276364 197.439091 -38.594545 C 186.348182 -37.685455 181.484545 -34.003636 178.393636 -24.185455 C 174.257273 -11.003636 181.575455 4.223636 192.939091 6.041818 C 195.666364 6.496364 198.53 6.950909 199.302727 7.132727 C 200.075455 7.269091 203.484545 6.223636 206.848182 4.723636 Z M 145.439091 -8.14 C 149.484545 -10.412727 150.302727 -19.503636 146.802727 -23.185455 C 145.575455 -24.503636 142.848182 -25.549091 140.711818 -25.549091 C 135.393636 -25.549091 132.439091 -21.912727 132.439091 -15.367273 C 132.439091 -11.503636 133.666364 -9.367273 136.575455 -8.14 C 141.984545 -5.867273 141.393636 -5.867273 145.439091 -8.14 Z M 263.211818 -10.867273 C 266.120909 -14.594545 264.984545 -21.685455 261.075455 -24.276364 C 253.166364 -29.503636 242.757273 -18.321818 248.620909 -10.867273 C 251.484545 -7.276364 260.348182 -7.276364 263.211818 -10.867273 Z M 263.211818 -10.867273 " transform="matrix(0.0859375,0,0,0.0859375,-7.736953,14.449531)"/>
</g>
</svg>
