<svg xmlns="http://www.w3.org/2000/svg" viewBox="0 0 22 22"><path d="m 5.17 2.35 c 11.25 -7.88 22.66 6.67 13.48 15.95 c -8.64 8.74 -22.1 0.64 -17.87 -10.25 c 0.88 -2.27 2.31 -4.26 4.38 -5.7" style="fill:#f60"/><g style="fill:#fff;fill-rule:evenodd"><path d="m 13.77 17.39 l -6.67 0.01 c -0.06 -0.01 -0.1 -0.02 -0.08 -0.09 l 2.45 -3.15 c 0.09 -0.12 0.21 -0.19 0.34 -0.18 h 1.23 c 0.2 0 0.27 0.05 0.39 0.2 l 2.4 3.11 c 0.02 0.05 0 0.11 -0.06 0.11"/><path d="m 6.59 10.57 l 1.19 0.63 c 0.08 0.04 0.12 0.15 0.08 0.25 l -1.23 2.77 c -0.04 0.09 -0.14 0.13 -0.23 0.09 l -1.19 -0.63 c -0.09 -0.05 -0.12 -0.16 -0.08 -0.25 l 1.23 -2.77 c 0.04 -0.09 0.14 -0.13 0.23 -0.09"/><path d="m 5.13 10.56 h 2.43 c 0.08 0 0.14 0.05 0.14 0.13 v 0.64 c 0 0.07 -0.07 0.13 -0.14 0.13 h -2.43 c -0.08 0 -0.14 -0.05 -0.14 -0.13 v -0.64 c 0 -0.07 0.07 -0.13 0.14 -0.13"/><path d="m 3.97 12.62 l 1.06 -2 c 0.03 -0.07 0.1 -0.09 0.14 -0.05 l 0.4 0.36 c 0.04 0.04 0.05 0.13 0.02 0.19 l -1.06 2 c -0.04 0.07 -0.1 0.09 -0.14 0.05 l -0.4 -0.36 c -0.04 -0.04 -0.05 -0.13 -0.02 -0.19"/><path d="m 4.61 12.57 l 6.28 3.32 c 0.21 0.11 0.36 0.22 0.35 0.25 l -0.13 0.27 c -0.01 0.03 -0.19 -0.04 -0.4 -0.14 l -6.28 -3.32 c -0.21 -0.11 -0.36 -0.22 -0.35 -0.25 l 0.13 -0.27 c 0.01 -0.03 0.19 0.04 0.4 0.14"/><path d="m 7.5 14.32 l -0.19 -3.28 c -0.01 -0.11 0.04 -0.2 0.09 -0.2 l 0.53 -0.04 c 0.06 0 0.11 0.08 0.11 0.19 l 0.19 3.29 c 0.01 0.11 -0.04 0.2 -0.09 0.2 l -0.53 0.04 c -0.06 0 -0.11 -0.08 -0.11 -0.19"/><path d="m 9 10.15 c 0 -0.47 -0.36 -0.86 -0.81 -0.86 c -0.45 0 -0.81 0.39 -0.81 0.86 c 0 0.48 0.36 0.86 0.81 0.86 c 0.45 0 0.81 -0.39 0.81 -0.86"/><path d="m 6.08 15.61 l -0.45 -1.85 c -0.02 -0.06 0.03 -0.12 0.09 -0.13 l 0.61 -0.1 c 0.06 -0.01 0.13 0.03 0.14 0.09 l 0.45 1.85 c 0.01 0.06 -0.03 0.12 -0.09 0.13 l -0.61 0.11 c -0.06 0.01 -0.13 -0.03 -0.14 -0.09"/><path d="m 6.07 17.23 l -0.02 -1.91 c 0 -0.06 0.05 -0.11 0.12 -0.11 l 0.61 0.05 c 0.07 0 0.12 0.06 0.12 0.12 l 0.01 1.91 c 0 0.06 -0.05 0.11 -0.12 0.11 l -0.61 -0.05 c -0.07 0 -0.12 -0.06 -0.12 -0.12"/><path d="m 3.3 16.73 l 1.88 -3.32 c 0.06 -0.11 0.16 -0.16 0.21 -0.13 l 0.51 0.36 c 0.05 0.04 0.05 0.16 -0.01 0.27 l -1.88 3.32 c -0.06 0.11 -0.16 0.17 -0.21 0.13 l -0.51 -0.36 c -0.05 -0.04 -0.05 -0.16 0.02 -0.27"/></g></svg>