<svg xmlns="http://www.w3.org/2000/svg" viewBox="0 0 24 24"><path d="m 5.64 2.56 c 12.27 -8.59 24.71 7.28 14.71 17.4 c -9.42 9.54 -24.1 0.7 -19.49 -11.18 c 0.95 -2.48 2.52 -4.65 4.78 -6.23" style="fill:#f60"/><g style="fill:#fff"><path d="m 4.84 19.78 c -0.25 -0.07 -0.29 -0.34 -0.07 -0.54 c 0.16 -0.15 0.32 -0.16 5.18 -0.16 c 3.95 0 5.1 0.02 5.19 0.1 c 0.13 0.08 0.17 0.18 0.17 0.39 v 0.28 h -5.14 c -2.83 -0.01 -5.23 -0.04 -5.34 -0.07"/><path d="m 5.49 18.43 c -0.1 -0.27 0.04 -0.52 0.35 -0.61 l 0.3 -0.09 l 0.05 -0.9 c 0.03 -0.5 0.05 -1.45 0.05 -2.12 c 0.01 -1.4 0.08 -2.05 0.23 -2.15 c 0.06 -0.04 0.27 -0.07 0.46 -0.05 c 0.3 0.02 0.36 0.05 0.41 0.22 c 0.04 0.11 0.08 1.25 0.11 2.52 c 0.03 1.27 0.07 2.36 0.11 2.41 c 0.07 0.13 0.53 0.14 0.65 0.02 c 0.06 -0.07 0.11 -0.84 0.17 -2.54 c 0.04 -1.34 0.11 -2.49 0.14 -2.55 c 0.07 -0.12 0.66 -0.13 0.83 -0.02 c 0.1 0.06 0.12 0.47 0.16 2.55 c 0.04 2.32 0.05 2.49 0.19 2.59 c 0.19 0.14 0.36 0.14 0.55 0 c 0.14 -0.11 0.15 -0.26 0.19 -2.54 c 0.03 -1.89 0.06 -2.45 0.14 -2.55 c 0.14 -0.18 0.73 -0.18 0.87 0 c 0.08 0.1 0.12 0.7 0.15 2.55 c 0.04 2.7 0.04 2.66 0.57 2.59 l 0.27 -0.04 l 0.06 -2.47 c 0.03 -1.36 0.07 -2.52 0.09 -2.58 c 0.02 -0.06 0.11 -0.13 0.2 -0.16 c 0.24 -0.08 0.82 0.04 0.87 0.17 c 0.03 0.07 0.07 1.23 0.1 2.58 l 0.05 2.46 l 0.23 0.05 c 0.34 0.07 0.44 0.19 0.44 0.5 v 0.27 h -4.46 c -3.9 0 -4.47 -0.02 -4.51 -0.12"/><path d="m 5.5 11.88 c -0.13 -0.11 -0.37 -0.23 -0.54 -0.27 c -0.69 -0.14 -0.4 -0.32 3.05 -1.96 l 1.88 -0.89 l 0.6 0.25 c 0.79 0.33 4.08 1.89 4.48 2.13 c 0.17 0.1 0.31 0.23 0.31 0.3 c 0 0.07 -0.13 0.14 -0.31 0.19 c -0.17 0.04 -0.42 0.16 -0.56 0.27 l -0.25 0.19 h -4.21 h -4.21"/></g></svg>