<svg xmlns="http://www.w3.org/2000/svg" viewBox="0 0 24 24"><path d="m 5.64 2.56 c 12.27 -8.59 24.71 7.28 14.71 17.4 c -9.42 9.54 -24.1 0.7 -19.49 -11.18 c 0.95 -2.48 2.52 -4.65 4.78 -6.23" style="fill:#f60"/><path d="m 8.39 8.78 c 1.02 2.21 1.27 2.9 4.25 8 c -0.38 -0.21 -0.87 -0.39 -1.54 -0.55 c 0.98 0.46 1.46 0.89 1.93 1.22 c 0.29 0.5 0.61 1.02 0.96 1.61 c -1.75 -0.93 -3.11 -1.5 -4.37 -1.73 c 0.04 -0.17 0.07 -0.37 0.07 -0.57 c 0.03 -1.04 -0.52 -1.93 -1.22 -1.99 c -0.7 -0.05 -1.29 0.76 -1.32 1.8 v 0.05 c 0 0.25 0.03 0.47 0.09 0.69 c -1.28 0.22 -2.66 0.8 -4.43 1.75 c 2.25 -3.72 3.36 -5.66 4.07 -7 c 0.37 0.29 0.88 0.56 1.6 0.84 c -0.68 -0.43 -1.1 -0.82 -1.44 -1.15 c 0.55 -1.09 0.86 -1.83 1.35 -2.95" style="fill:#fff"/></svg>