<svg xmlns="http://www.w3.org/2000/svg" viewBox="0 0 24 24"><path d="m 10.395 4.879 c 0 2.926 -2.305 5.594 -5.148 5.961 c -2.84 0.363 -5.145 -1.707 -5.145 -4.633 c 0 -2.922 2.305 -5.59 5.145 -5.957 c 2.844 -0.367 5.148 1.707 5.148 4.629" fill="#d01253"/><path d="m 5.246 2.52 v 1.512 l -1.043 0.137 c -1.582 0.203 -2.633 0.906 -2.633 2.605 c 0 1.77 2.207 1.984 2.207 1.984 c 0 0 -1.246 -0.934 -1.012 -1.695 c 0.191 -0.641 0.98 -1.324 1.699 -1.418 l 0.781 -0.102 v 1.516 l 3.68 -2.746" fill="#fff"/></svg>