<svg xmlns="http://www.w3.org/2000/svg" viewBox="0 0 24 24"><path d="m 18.992 22.586 c -35.75 10.426 -12.961 -41.09 3.035 -15.246 c 2.922 4.746 3.125 12.805 -3.035 15.246" fill="#96c566"/><path d="m 13.227 5.668 c -0.18 0.023 -0.352 0.113 -0.5 0.258 c -0.063 0.063 -0.188 0.113 -0.367 0.129 c -0.18 0.02 -0.402 0.008 -0.633 -0.02 c -0.461 -0.055 -0.91 -0.176 -1.23 -0.176 c -0.16 0 -0.328 0.043 -0.43 0.176 c -0.102 0.133 -0.09 0.285 -0.063 0.41 c 0.063 0.25 0.227 0.5 0.41 0.77 c 0.188 0.27 0.395 0.547 0.555 0.781 c 0.082 0.117 0.148 0.223 0.191 0.305 c 0.012 0.023 0.008 0.016 0.016 0.035 c -0.191 0.059 -0.406 0.09 -0.52 0.254 c -0.09 0.129 -0.137 0.293 -0.113 0.461 c 0.008 0.078 0.078 0.141 0.117 0.215 c -1.047 0.535 -2.117 1.094 -2.957 1.809 c -0.895 0.762 -1.531 1.719 -1.531 2.965 c 0 3.395 2.77 5.609 6 5.609 c 3.258 0 6 -2.66 6 -5.609 c 0 -1.238 -0.59 -2.137 -1.465 -2.867 c -0.82 -0.684 -1.91 -1.246 -3.03 -1.895 c 0.043 -0.074 0.117 -0.145 0.125 -0.227 c 0.023 -0.168 -0.023 -0.332 -0.113 -0.461 c -0.109 -0.156 -0.316 -0.184 -0.5 -0.246 c 0.027 -0.063 0.047 -0.129 0.164 -0.242 c 0.156 -0.152 0.375 -0.32 0.59 -0.488 c 0.211 -0.168 0.418 -0.328 0.559 -0.516 c 0.07 -0.094 0.133 -0.195 0.145 -0.328 c 0.016 -0.129 -0.043 -0.277 -0.145 -0.375 c -0.242 -0.234 -0.484 -0.484 -0.785 -0.629 c -0.148 -0.074 -0.316 -0.117 -0.496 -0.098" fill-opacity="0.102"/><path d="m 12.898 8.895 c 0.48 -0.465 0 -0.934 -0.48 -0.934 c 0 -0.637 1.922 -1.402 1.441 -1.871 c -0.48 -0.469 -0.961 -0.934 -1.441 -0.469 c -0.48 0.469 -1.922 0 -2.402 0 c -0.961 0 0.961 1.871 0.961 2.34 c -0.48 0 -0.961 0.469 -0.48 0.934 c -2.223 1.137 -4.566 2.34 -4.566 4.676 c 0 3.273 2.645 5.375 5.766 5.375 c 3.125 0 5.766 -2.57 5.766 -5.375 c 0 -2.336 -2.16 -3.273 -4.562 -4.676" fill="#b5a36b" fill-rule="evenodd"/><path d="m 11.457 10.766 v 0.539 c -0.438 0.027 -0.859 0.133 -1.211 0.344 c -0.414 0.25 -0.711 0.676 -0.711 1.219 c 0 0.313 0.18 0.637 0.535 0.844 c 0.316 0.188 0.77 0.293 1.387 0.316 v 1.809 c -0.363 -0.027 -0.711 -0.117 -0.969 -0.25 c -0.313 -0.164 -0.473 -0.367 -0.473 -0.613 h -0.48 c 0 0.453 0.32 0.809 0.727 1.023 c 0.344 0.18 0.762 0.281 1.195 0.309 v 0.539 h 0.48 v -0.539 c 0.434 -0.031 0.859 -0.133 1.207 -0.344 c 0.414 -0.254 0.715 -0.676 0.715 -1.223 c 0 -0.313 -0.18 -0.633 -0.539 -0.844 c -0.313 -0.184 -0.77 -0.289 -1.383 -0.313 v -1.809 c 0.359 0.027 0.711 0.113 0.965 0.25 c 0.313 0.164 0.477 0.363 0.477 0.613 h 0.48 c 0 -0.457 -0.32 -0.809 -0.727 -1.023 c -0.344 -0.184 -0.766 -0.281 -1.195 -0.309 v -0.539 m -0.48 1.01 v 1.785 c -0.551 -0.023 -0.926 -0.125 -1.137 -0.246 c -0.246 -0.145 -0.305 -0.289 -0.305 -0.441 c 0 -0.391 0.18 -0.641 0.488 -0.828 c 0.25 -0.152 0.594 -0.242 0.953 -0.27 m 0.48 2.273 c 0.551 0.027 0.922 0.125 1.137 0.25 c 0.242 0.141 0.305 0.285 0.305 0.441 c 0 0.391 -0.184 0.637 -0.488 0.824 c -0.254 0.152 -0.594 0.242 -0.953 0.273" fill="#453b1a"/><path d="m 12.746 5.203 c -0.18 0.02 -0.352 0.113 -0.5 0.254 c -0.063 0.063 -0.188 0.113 -0.363 0.133 c -0.18 0.016 -0.406 0.004 -0.637 -0.023 c -0.461 -0.055 -0.91 -0.176 -1.23 -0.176 c -0.16 0 -0.328 0.043 -0.43 0.176 c -0.102 0.133 -0.09 0.285 -0.059 0.41 c 0.059 0.254 0.223 0.5 0.406 0.77 c 0.188 0.27 0.398 0.551 0.555 0.781 c 0.082 0.117 0.148 0.227 0.191 0.305 c 0.012 0.023 0.008 0.016 0.016 0.035 c -0.191 0.063 -0.406 0.09 -0.52 0.258 c -0.09 0.125 -0.137 0.289 -0.113 0.461 c 0.008 0.074 0.078 0.141 0.117 0.211 c -1.047 0.539 -2.117 1.098 -2.957 1.813 c -0.895 0.758 -1.531 1.719 -1.531 2.961 c 0 3.395 2.77 5.609 6 5.609 c 3.258 0 6 -2.66 6 -5.609 c 0 -1.238 -0.59 -2.137 -1.465 -2.863 c -0.82 -0.688 -1.91 -1.25 -3.03 -1.898 c 0.043 -0.074 0.117 -0.145 0.125 -0.223 c 0.023 -0.172 -0.023 -0.336 -0.113 -0.461 c -0.109 -0.16 -0.316 -0.184 -0.5 -0.25 c 0.027 -0.063 0.047 -0.129 0.164 -0.242 c 0.156 -0.152 0.375 -0.32 0.59 -0.488 c 0.211 -0.164 0.418 -0.328 0.559 -0.512 c 0.07 -0.094 0.133 -0.199 0.145 -0.332 c 0.016 -0.129 -0.043 -0.277 -0.145 -0.375 c -0.242 -0.234 -0.484 -0.484 -0.785 -0.629 c -0.148 -0.07 -0.316 -0.117 -0.496 -0.094 m 0.063 0.465 c 0.059 -0.008 0.129 0.004 0.223 0.047 c 0.184 0.09 0.418 0.309 0.656 0.543 c 0.004 0.004 0.004 0 0.008 0 c 0 0.004 -0.012 0.043 -0.055 0.094 c -0.082 0.109 -0.266 0.266 -0.473 0.43 c -0.207 0.164 -0.438 0.336 -0.629 0.52 c -0.188 0.188 -0.363 0.387 -0.363 0.66 c 0 0.129 0.109 0.234 0.242 0.234 c 0.16 0 0.336 0.094 0.398 0.188 c 0.035 0.047 0.043 0.09 0.039 0.141 c -0.008 0.047 -0.035 0.117 -0.129 0.207 c -0.109 0.109 -0.086 0.289 0.047 0.367 c 1.207 0.703 2.34 1.285 3.148 1.961 c 0.813 0.676 1.301 1.414 1.301 2.512 c 0 2.66 -2.539 5.141 -5.527 5.141 c -3.01 0 -5.523 -1.992 -5.523 -5.141 c 0 -1.094 0.535 -1.902 1.367 -2.609 c 0.832 -0.711 1.957 -1.289 3.066 -1.859 c 0.145 -0.074 0.176 -0.262 0.059 -0.371 c -0.09 -0.09 -0.117 -0.16 -0.125 -0.211 c -0.008 -0.047 0.004 -0.09 0.035 -0.137 c 0.066 -0.098 0.242 -0.188 0.402 -0.188 c 0.133 0 0.238 -0.105 0.238 -0.234 c 0 -0.137 -0.047 -0.23 -0.105 -0.34 c -0.059 -0.113 -0.133 -0.227 -0.219 -0.352 c -0.172 -0.25 -0.379 -0.527 -0.555 -0.781 c -0.176 -0.258 -0.313 -0.504 -0.344 -0.621 c 0 -0.004 0 -0.004 0 -0.008 c 0.008 0 0.008 -0.004 0.023 -0.004 c 0.16 0 0.672 0.113 1.172 0.176 c 0.25 0.031 0.504 0.047 0.746 0.023 c 0.238 -0.027 0.477 -0.094 0.652 -0.266 c 0.094 -0.09 0.16 -0.117 0.223 -0.125" fill="#615326"/></svg>