<svg xmlns="http://www.w3.org/2000/svg" viewBox="0 0 24 24"><path d="m 1.133 7.539 c -9.02 29.18 39.42 14.586 16.77 -5.406 c -4.539 -4 -14.34 -2.461 -16.77 5.406" fill="#fdb13b"/><path d="m 180.83 128.5 c 0.118 9.969 -9.146 19.211 -24.25 24.23 c -15.1 5.02 -33.746 5.02 -48.885 0 c -15.1 -5.02 -24.364 -14.261 -24.25 -24.23 c -0.118 -10 9.146 -19.246 24.25 -24.265 c 15.14 -4.984 33.786 -4.984 48.885 0 c 15.1 5.02 24.364 14.261 24.25 24.265" transform="matrix(0.09908 0 0 0.11285 -0.433 -2.998)" fill="#fff" stroke="#fff" stroke-width="2"/><path d="m 5.559 20.16 c -0.328 -0.266 -0.449 -0.852 -0.281 -1.355 c 0.07 -0.211 0.543 -0.957 0.996 -1.566 c 0.188 -0.254 0.195 -0.289 0.113 -0.449 c -0.148 -0.281 -0.746 -0.855 -1.129 -1.086 c -0.355 -0.215 -0.863 -0.371 -1.484 -0.453 c -0.246 -0.035 -0.383 -0.102 -0.547 -0.266 c -0.273 -0.273 -0.277 -0.453 -0.027 -0.707 c 0.176 -0.176 0.238 -0.195 0.637 -0.195 c 1.137 0 2.801 0.961 3.27 1.883 c 0.086 0.176 0.172 0.316 0.191 0.316 c 0.02 0 0.191 -0.129 0.383 -0.285 c 0.195 -0.16 0.582 -0.43 0.867 -0.605 c 0.281 -0.176 0.512 -0.328 0.512 -0.34 c 0 -0.008 -0.176 -0.125 -0.387 -0.254 c -0.832 -0.516 -1.473 -1.379 -1.719 -2.32 c -0.148 -0.559 -0.148 -1.668 0 -2.281 l 0.109 -0.457 l -0.27 -0.469 c -0.563 -0.984 -0.973 -2.219 -1.043 -3.172 l -0.039 -0.496 l 0.758 0.039 c 0.418 0.023 0.969 0.086 1.227 0.141 c 0.867 0.188 1.91 0.621 2.555 1.063 c 0.289 0.199 0.301 0.199 0.664 0.117 c 0.641 -0.148 2.23 -0.172 2.859 -0.043 l 0.543 0.109 l 0.508 -0.539 c 0.277 -0.297 0.688 -0.668 0.91 -0.828 c 0.465 -0.328 1.383 -0.746 1.77 -0.809 l 0.266 -0.043 l 0.199 0.426 c 0.5 1.07 0.57 2.535 0.199 4.02 c -0.133 0.527 -0.133 0.57 -0.031 0.922 c 0.16 0.547 0.227 1.395 0.156 1.934 c -0.176 1.344 -1.23 2.453 -2.836 2.996 c -0.504 0.172 -0.605 0.324 -0.301 0.445 c 0.641 0.262 1.031 0.492 1.27 0.754 c 0.645 0.695 0.488 1.391 -0.355 1.578 c -0.32 0.07 -0.453 0.063 -1.273 -0.109 c -1.055 -0.215 -2.348 -0.258 -3.211 -0.105 c -0.688 0.125 -1.926 0.539 -2.563 0.859 c -0.801 0.406 -1.156 0.629 -2.383 1.516 c -0.262 0.184 -0.383 0.23 -0.633 0.23 c -0.191 0 -0.363 -0.047 -0.449 -0.117 m 5.18 -7.04 c 0.793 -0.281 1.203 -1.094 0.973 -1.926 c -0.148 -0.539 -0.852 -1.043 -1.457 -1.043 c -0.813 0 -1.527 0.719 -1.527 1.535 c -0.004 0.789 0.734 1.523 1.527 1.523 c 0.129 0 0.348 -0.039 0.484 -0.09 m -0.324 -1.199 c -0.496 -0.215 -0.324 -0.77 0.238 -0.77 c 0.297 0 0.535 0.176 0.535 0.398 c 0 0.137 -0.219 0.402 -0.328 0.402 c -0.035 0 -0.102 0.012 -0.148 0.031 c -0.051 0.016 -0.184 -0.012 -0.297 -0.063 m 5.613 0.727 c 0.82 -0.344 1.168 -1.391 0.707 -2.137 c -0.109 -0.176 -0.328 -0.41 -0.484 -0.523 c -0.262 -0.184 -0.332 -0.203 -0.836 -0.203 c -0.484 0 -0.578 0.023 -0.824 0.188 c -0.43 0.285 -0.637 0.648 -0.664 1.176 c -0.039 0.684 0.234 1.18 0.801 1.461 c 0.344 0.172 0.941 0.188 1.301 0.039 m -0.566 -1.16 c -0.078 -0.035 -0.195 -0.141 -0.258 -0.234 c -0.109 -0.168 -0.105 -0.184 0.02 -0.355 c 0.266 -0.355 0.953 -0.23 0.953 0.18 c 0 0.316 -0.391 0.539 -0.715 0.41" fill="#060403"/></svg>