<svg xmlns="http://www.w3.org/2000/svg" viewBox="0 0 24 24"><path d="m 19.797 3.574 c 18.922 24.859 -33.15 28.391 -16.438 3.02 c 3.809 -5.785 11.426 -9.602 16.438 -3.02" fill="#012537"/><path d="m 15.91 17.801 c -0.266 0.02 -1.051 -0.254 -1.477 -0.52 c -0.82 -0.512 -1.332 -1.191 -1.676 -2.227 c -0.516 -1.543 -1.566 -2.492 -2.953 -2.672 c -0.465 -0.059 -1.277 0.039 -1.66 0.199 c -1.016 0.434 -1.766 1.371 -1.879 2.359 c -0.102 0.879 0.289 1.785 0.988 2.305 c 0.969 0.723 2.324 0.594 3.02 -0.285 c 0.543 -0.691 0.496 -1.664 -0.102 -2.187 c -0.684 -0.598 -1.801 -0.289 -1.797 0.496 c 0 0.449 0.32 0.652 0.664 0.426 c 0.129 -0.086 0.188 -0.098 0.254 -0.055 c 0.152 0.094 0.145 0.359 -0.023 0.566 c -0.141 0.176 -0.172 0.188 -0.512 0.207 c -0.434 0.023 -0.715 -0.109 -0.938 -0.449 c -0.18 -0.273 -0.258 -0.809 -0.164 -1.117 c 0.313 -1.066 1.645 -1.516 2.727 -0.926 c 0.555 0.305 1.023 1.012 1.102 1.672 c 0.195 1.648 -1.301 3.066 -3.09 2.926 c -0.48 -0.039 -1.219 -0.309 -1.59 -0.582 c -0.383 -0.281 -0.828 -0.781 -0.934 -1.055 c -0.285 -0.727 -0.391 -1.359 -0.344 -2.117 c 0.094 -1.5 1.402 -2.832 3.086 -3.145 c 0.586 -0.109 1.066 -0.09 1.887 0.074 c 0.773 0.156 1.535 0.121 2.129 -0.09 c 1.043 -0.375 1.934 -1.324 2.16 -2.305 c 0.203 -0.879 0.082 -1.602 -0.395 -2.32 c -0.973 -1.469 -2.977 -1.68 -4.098 -0.434 c -0.84 0.93 -0.613 2.449 0.438 2.961 c 0.766 0.375 1.656 0.113 1.957 -0.574 c 0.145 -0.328 0.047 -0.813 -0.207 -1.012 c -0.211 -0.168 -0.453 -0.203 -0.621 -0.09 c -0.16 0.105 -0.195 0.18 -0.176 0.352 c 0.016 0.148 -0.063 0.285 -0.172 0.297 c -0.035 0.004 -0.137 -0.051 -0.23 -0.117 c -0.215 -0.168 -0.25 -0.434 -0.098 -0.766 c 0.156 -0.348 0.488 -0.551 0.914 -0.559 c 0.754 -0.016 1.344 0.508 1.438 1.273 c 0.082 0.645 -0.109 1.172 -0.586 1.621 c -0.383 0.355 -0.68 0.473 -1.309 0.523 c -0.469 0.035 -0.578 0.023 -0.965 -0.113 c -0.672 -0.23 -1.129 -0.613 -1.449 -1.23 c -0.766 -1.449 0.117 -3.473 1.727 -3.953 c 0.797 -0.234 1.844 -0.246 2.48 -0.023 c 0.598 0.211 1.332 0.801 1.691 1.355 c 0.75 1.164 0.832 2.391 0.238 3.723 c -0.102 0.23 -0.402 0.652 -0.867 1.215 c -0.617 0.754 -0.727 0.918 -0.859 1.301 c -0.156 0.449 -0.246 1.137 -0.199 1.523 c 0.035 0.301 0.266 0.973 0.449 1.301 c 0.203 0.371 0.664 0.848 1.035 1.07 c 2.98 1.063 3.03 0.957 0.988 1.176"/></svg>