<svg xmlns="http://www.w3.org/2000/svg" viewBox="0 0 24 24"><path d="m 23.957 12.395 c 1.547 -18.75 -28.73 -14.566 -22.969 3.184 c 2.367 12.07 21.824 10.711 22.969 -3.184" fill="#661325"/><g fill="#fff" stroke="#868686" transform="matrix(0.08923 0 0 0.08592 0.449 0.554)"><path d="m 108.7 204.37 c -21.889 -7.138 -39.663 -22.323 -49.863 -42.646 c -5.604 -11.23 -6.829 -17.05 -6.873 -32.643 c 0 -19.1 2.933 -30.1 11.689 -43.555 c 9.06 -13.912 20.969 -23.96 35.416 -30.01 c 8.974 -3.728 16.15 -4.865 31.08 -4.865 c 14.709 0.045 22.11 1.5 32.614 6.41 c 31.826 14.958 46.536 38.33 46.536 73.879 c 0 13.503 -0.613 16.867 -5.253 27.551 c -8.143 18.731 -25.829 35.871 -44.522 43.15 c -4.465 1.773 -18.474 4.501 -19.13 3.774 c -0.131 -0.136 -0.394 -10.73 -0.569 -23.551 l -0.35 -23.278 l 8.186 -3.455 c 31.651 -13.548 44.785 -41.6 31.826 -67.924 c -6.085 -12.412 -18.518 -22.459 -32.571 -26.369 c -7.355 -2.091 -23.771 -1.682 -31.651 0.773 c -33.665 10.457 -45.967 49.556 -23.99 76.2 c 5.078 6.183 12.08 11.184 23.29 16.776 l 9.544 4.774 l -0.569 14.958 c -0.788 22.05 -1.664 28.597 -4.159 30.597 c -2.495 2.046 -2.67 2.046 -10.682 -0.546" stroke-width="0.09"/><path d="m 124.24 150.54 c -14.403 -2.864 -27.492 -16.185 -30.995 -31.689 c -1.664 -7.229 -1.182 -18.64 1.01 -25.19 c 9.15 -27.46 43.38 -35.33 66.06 -15.185 c 8.756 7.729 13.09 17.64 13.09 29.825 c 0 12.503 -3.765 21.686 -12.564 30.734 c -5.472 5.638 -12.433 9.366 -20.969 11.184 c -6.742 1.409 -9.631 1.5 -15.629 0.318" stroke-width="0.089"/></g></svg>