<svg xmlns="http://www.w3.org/2000/svg" viewBox="0 0 24 24"><path d="m 2.734 17.855 c -11.746 -19.457 25.715 -26.06 20.754 -3.328 c -2.113 9.383 -15.367 13.637 -20.754 3.328" fill="#754f7a"/><path d="m 6.879 5.813 h 10.789 c 0.313 0 0.57 0.316 0.57 0.711 v 10.09 c 0 0.391 -0.258 0.711 -0.57 0.711 h -10.789 c -0.316 0 -0.57 -0.32 -0.57 -0.711 v -10.09 c 0 -0.395 0.254 -0.711 0.57 -0.711" fill="#e5e5e5"/><path d="m 7.125 8.344 h 10.27 v 2.484 h -10.27" fill="#a6d6dd"/><path d="m 11.266 11.656 h 6.297 v 2.156 h -6.297" fill="#f4cf68"/><path d="m 11.348 14.555 h 6.297 v 2.156 h -6.297" fill="#ff6436"/><path d="m 7.125 11.656 h 3.477 v 5.219 h -3.477" fill="#6bbac7"/><path d="m 6.922 5.648 h 10.605 c 0.367 0 0.668 0.211 0.668 0.473 v 1.105 c 0 0.266 -0.301 0.477 -0.668 0.477 h -10.605 c -0.367 0 -0.664 -0.211 -0.664 -0.477 v -1.105 c 0 -0.262 0.297 -0.473 0.664 -0.473" fill="#b2b2b2"/><path d="m 8.176 6.695 c 0.004 0.258 -0.125 0.496 -0.34 0.625 c -0.215 0.129 -0.48 0.129 -0.695 0 c -0.215 -0.129 -0.344 -0.367 -0.344 -0.625 c 0 -0.254 0.129 -0.496 0.344 -0.625 c 0.215 -0.129 0.48 -0.129 0.695 0 c 0.215 0.129 0.344 0.371 0.34 0.625" fill="#ff6436"/><path d="m 9.984 6.617 c 0.004 0.258 -0.129 0.496 -0.344 0.625 c -0.215 0.129 -0.48 0.129 -0.695 0 c -0.211 -0.129 -0.344 -0.367 -0.34 -0.625 c -0.004 -0.258 0.129 -0.496 0.34 -0.625 c 0.215 -0.129 0.48 -0.129 0.695 0 c 0.215 0.129 0.348 0.367 0.344 0.625" fill="#ffd733"/><path d="m 11.773 6.648 c 0.004 0.258 -0.129 0.496 -0.34 0.625 c -0.215 0.129 -0.48 0.129 -0.695 0 c -0.215 -0.129 -0.348 -0.367 -0.344 -0.625 c -0.004 -0.258 0.129 -0.496 0.344 -0.625 c 0.215 -0.129 0.48 -0.129 0.695 0 c 0.211 0.129 0.344 0.367 0.34 0.625" fill="#039989"/></svg>