<svg xmlns="http://www.w3.org/2000/svg" viewBox="0 0 24 24"><path d="m 21.07 18.17 c -19.758 21.254 -32.21 -22.613 -5.977 -17.777 c 6.918 2.387 12.32 10.953 5.977 17.777" fill="#7f007f"/><g fill="#fff"><path d="m 4.898 17.688 c -0.016 -0.035 -0.02 -1.188 -0.012 -2.555 c 0.016 -2.488 0.016 -2.492 0.141 -2.508 c 0.113 -0.016 0.121 -0.035 0.074 -0.262 c -0.027 -0.137 -0.035 -0.27 -0.02 -0.297 c 0.078 -0.113 0.191 -0.027 0.316 0.238 c 0.07 0.156 0.176 0.332 0.23 0.395 c 0.145 0.152 0.703 0.523 1.023 0.676 c 0.148 0.07 0.309 0.156 0.355 0.191 c 0.051 0.035 0.16 0.078 0.242 0.094 c 0.082 0.02 0.258 0.074 0.387 0.125 c 0.129 0.051 0.258 0.098 0.293 0.105 c 0.031 0.004 0.207 0.047 0.387 0.094 c 0.555 0.137 1.137 0.246 1.66 0.309 c 0.277 0.035 0.527 0.074 0.559 0.094 c 0.031 0.016 0.156 0.027 0.277 0.023 c 0.273 -0.012 0.438 0.125 0.277 0.23 c -0.086 0.059 -0.043 0.074 0.297 0.105 c 0.223 0.016 0.465 0.031 0.539 0.031 c 0.125 0.004 0.129 -0.008 0.047 -0.082 c -0.125 -0.113 -0.055 -0.242 0.129 -0.242 c 0.141 0 0.145 -0.004 0.047 -0.07 c -0.086 -0.055 -0.09 -0.078 -0.023 -0.129 c 0.043 -0.035 0.16 -0.07 0.258 -0.086 c 0.129 -0.016 0.102 -0.023 -0.102 -0.031 c -0.246 -0.004 -0.281 0.008 -0.297 0.113 c -0.012 0.09 -0.066 0.129 -0.191 0.141 c -0.352 0.039 -2.113 -0.281 -2.477 -0.445 c -0.105 -0.047 -0.25 -0.086 -0.324 -0.086 c -0.074 0 -0.176 -0.035 -0.223 -0.082 c -0.051 -0.043 -0.141 -0.082 -0.203 -0.082 c -0.164 0 -0.918 -0.344 -1.117 -0.512 c -0.094 -0.078 -0.238 -0.184 -0.32 -0.227 c -0.195 -0.109 -0.535 -0.531 -0.551 -0.684 c -0.012 -0.094 0.016 -0.117 0.133 -0.117 c 0.113 0 0.164 0.039 0.211 0.164 c 0.105 0.305 0.398 0.535 1.043 0.828 c 0.34 0.156 0.645 0.313 0.676 0.348 c 0.035 0.035 0.152 0.07 0.266 0.074 c 0.113 0.004 0.234 0.043 0.266 0.082 c 0.066 0.074 0.137 0.094 0.57 0.137 c 0.145 0.016 0.297 0.051 0.336 0.082 c 0.074 0.055 0.949 0.195 1.504 0.238 l 0.324 0.027 l 0.008 -0.18 c 0.004 -0.098 0.027 -0.305 0.051 -0.461 l 0.047 -0.285 l -1.27 -0.012 l -1.27 -0.016 l -0.02 -0.23 c -0.012 -0.172 0.012 -0.246 0.102 -0.316 c 0.145 -0.113 0.098 -0.238 -0.09 -0.238 c -0.148 0 -0.254 -0.137 -0.164 -0.215 c 0.031 -0.023 0.18 -0.059 0.336 -0.078 c 0.336 -0.047 0.418 0.047 0.262 0.293 c -0.055 0.082 -0.098 0.227 -0.098 0.32 v 0.168 h 1.16 c 0.723 0 1.207 0.02 1.281 0.059 c 0.125 0.059 0.129 0.125 0.012 0.738 l -0.035 0.176 h 0.629 c 0.711 0 0.621 0.066 0.754 -0.559 c 0.074 -0.355 0.168 -0.414 0.617 -0.414 c 0.27 0 0.328 -0.063 0.328 -0.363 c 0 -0.109 -0.031 -0.121 -0.34 -0.137 l -0.34 -0.016 v -0.281 c 0.004 -0.199 0.035 -0.313 0.117 -0.395 c 0.074 -0.074 0.109 -0.184 0.105 -0.313 c -0.008 -0.113 0.039 -0.398 0.098 -0.637 c 0.063 -0.238 0.145 -0.586 0.188 -0.77 c 0.063 -0.258 0.105 -0.34 0.184 -0.34 c 0.055 0 0.117 0.023 0.137 0.055 c 0.051 0.074 -0.082 0.695 -0.199 0.922 c -0.113 0.223 -0.102 0.648 0.02 0.648 c 0.043 0 0.109 -0.035 0.152 -0.082 c 0.039 -0.043 0.117 -0.082 0.176 -0.082 c 0.238 0 1.07 -0.926 1.07 -1.191 c 0 -0.227 -0.418 -0.703 -0.613 -0.703 c -0.039 0 -0.117 -0.047 -0.176 -0.105 c -0.055 -0.059 -0.148 -0.109 -0.207 -0.109 c -0.059 0 -0.211 -0.047 -0.34 -0.109 c -0.129 -0.059 -0.277 -0.105 -0.332 -0.105 c -0.055 0 -0.188 -0.035 -0.297 -0.078 c -0.113 -0.039 -0.344 -0.09 -0.52 -0.113 c -0.172 -0.02 -0.328 -0.066 -0.344 -0.105 c -0.016 -0.039 -0.09 -0.059 -0.18 -0.043 c -0.16 0.031 -0.266 -0.063 -0.215 -0.184 c 0.031 -0.082 0.289 -0.102 0.34 -0.027 c 0.016 0.027 0.164 0.063 0.328 0.078 c 0.535 0.059 1.395 0.316 1.961 0.59 c 0.469 0.227 0.828 0.598 0.875 0.902 c 0.063 0.438 -0.441 1.082 -1.184 1.508 c -0.168 0.098 -0.285 0.176 -0.254 0.176 c 0.117 0 1.195 -0.371 1.488 -0.512 c 0.332 -0.156 0.926 -0.586 1.063 -0.766 c 0.047 -0.063 0.102 -0.211 0.125 -0.328 c 0.035 -0.203 0.02 -0.23 -0.25 -0.469 c -0.395 -0.344 -1.137 -0.66 -2.191 -0.93 c -0.379 -0.098 -0.477 -0.168 -0.375 -0.281 c 0.063 -0.066 0.203 -0.059 0.523 0.035 c 0.082 0.027 0.27 0.074 0.418 0.113 c 0.145 0.035 0.348 0.098 0.445 0.133 c 0.531 0.207 0.781 0.324 0.879 0.414 c 0.059 0.055 0.152 0.102 0.215 0.102 c 0.059 0 0.207 0.098 0.324 0.215 c 0.176 0.18 0.215 0.262 0.227 0.477 c 0.023 0.574 -0.066 0.777 -0.469 1.039 c -0.113 0.074 -0.281 0.191 -0.371 0.258 c -0.094 0.066 -0.211 0.121 -0.258 0.121 c -0.051 0 -0.105 0.039 -0.125 0.082 c -0.016 0.043 -0.098 0.082 -0.176 0.082 c -0.078 0 -0.176 0.035 -0.215 0.078 c -0.039 0.043 -0.168 0.105 -0.289 0.141 c -0.121 0.035 -0.297 0.098 -0.395 0.137 c -0.098 0.039 -0.332 0.098 -0.52 0.129 c -0.188 0.035 -0.355 0.086 -0.375 0.113 c -0.02 0.027 -0.086 0.051 -0.148 0.051 c -0.074 0 -0.117 0.039 -0.117 0.105 c 0 0.09 0.051 0.109 0.313 0.121 l 0.313 0.016 l 0.016 0.348 c 0.012 0.191 -0.008 0.371 -0.043 0.402 c -0.035 0.031 -0.063 0.098 -0.063 0.148 c 0 0.117 -0.117 0.16 -0.469 0.16 c -0.328 0 -0.387 0.066 -0.453 0.512 c -0.02 0.148 -0.066 0.301 -0.102 0.34 c -0.035 0.039 -0.203 0.066 -0.414 0.066 c -0.313 0 -0.34 0.008 -0.262 0.082 c 0.117 0.105 0.359 0.102 0.543 -0.008 c 0.121 -0.07 0.211 -0.078 0.488 -0.039 l 0.34 0.047 l 0.016 0.23 c 0.016 0.223 0.008 0.23 -0.164 0.23 c -0.156 0 -0.207 -0.047 -0.184 -0.176 c 0.004 -0.023 -0.152 -0.043 -0.348 -0.043 c -0.34 0 -0.355 0.008 -0.355 0.133 c 0 0.07 -0.031 0.141 -0.07 0.152 c -0.039 0.008 0.184 0.016 0.488 0.012 c 0.309 -0.004 0.602 -0.027 0.652 -0.055 c 0.063 -0.035 0.09 -0.133 0.09 -0.297 l -0.004 -0.242 l 0.34 -0.004 c 0.188 -0.004 0.375 -0.031 0.414 -0.063 c 0.043 -0.031 0.332 -0.082 0.641 -0.117 c 0.309 -0.035 0.59 -0.09 0.621 -0.117 c 0.031 -0.027 0.125 -0.051 0.215 -0.051 c 0.086 0 0.242 -0.027 0.348 -0.063 c 0.168 -0.051 0.207 -0.047 0.32 0.055 c 0.105 0.098 0.117 0.133 0.055 0.223 c -0.098 0.141 -0.094 0.148 0.043 0.18 c 0.117 0.027 0.121 0.074 0.121 1.758 c 0 1.531 -0.012 1.738 -0.094 1.766 c -0.051 0.02 -2.91 0.031 -6.355 0.031 c -4.953 0 -6.266 -0.012 -6.289 -0.066 m 3.477 -0.879 c 0 -0.121 -0.02 -0.129 -0.188 -0.098 c -0.219 0.039 -0.348 -0.074 -0.348 -0.313 c 0 -0.262 0.055 -0.32 0.305 -0.32 c 0.191 0 0.23 -0.02 0.23 -0.109 c 0 -0.086 -0.039 -0.105 -0.195 -0.105 c -0.227 0 -0.34 -0.082 -0.34 -0.238 c 0 -0.09 -0.043 -0.07 -0.238 0.117 c -0.25 0.234 -0.293 0.336 -0.152 0.336 c 0.117 0 0.172 0.18 0.125 0.43 c -0.063 0.328 0.031 0.43 0.398 0.449 c 0.387 0.02 0.402 0.012 0.402 -0.148 m 4.512 -0.207 c 0 -0.375 0.09 -0.547 0.27 -0.516 c 0.102 0.02 0.121 0.082 0.145 0.453 c 0.023 0.301 0.055 0.43 0.105 0.426 c 0.039 0 0.141 -0.008 0.223 -0.012 c 0.141 -0.008 0.148 -0.027 0.148 -0.32 c 0 -0.355 -0.082 -0.66 -0.191 -0.727 c -0.043 -0.023 -0.297 -0.043 -0.566 -0.043 h -0.488 v 0.535 c 0 0.516 0.004 0.539 0.133 0.559 c 0.207 0.031 0.223 0.004 0.223 -0.355 m 4.141 0.355 c 0.191 -0.063 0.035 -0.121 -0.313 -0.121 c -0.48 0 -0.5 -0.074 -0.113 -0.461 c 0.285 -0.281 0.5 -0.625 0.5 -0.797 c 0 -0.184 -0.266 -0.367 -0.535 -0.367 c -0.402 0 -0.754 0.242 -0.625 0.434 c 0.066 0.098 0.277 0.063 0.313 -0.051 c 0.063 -0.223 0.492 -0.172 0.492 0.059 c 0 0.156 -0.094 0.293 -0.484 0.734 c -0.336 0.371 -0.398 0.492 -0.305 0.578 c 0.047 0.043 0.934 0.035 1.07 -0.008 m -11.215 -0.176 c 0.059 -0.152 0.078 -0.16 0.387 -0.16 c 0.406 0 0.508 0.035 0.574 0.195 c 0.043 0.105 0.098 0.129 0.289 0.129 h 0.238 l -0.09 -0.23 c -0.047 -0.125 -0.176 -0.402 -0.289 -0.609 c -0.109 -0.207 -0.25 -0.48 -0.305 -0.609 c -0.102 -0.219 -0.117 -0.23 -0.363 -0.23 c -0.195 0 -0.266 0.023 -0.293 0.098 c -0.016 0.051 -0.066 0.164 -0.109 0.254 c -0.164 0.34 -0.328 0.75 -0.328 0.824 c 0 0.043 -0.051 0.141 -0.117 0.219 c -0.184 0.211 -0.152 0.285 0.113 0.285 c 0.203 0 0.238 -0.02 0.293 -0.164 m 0.328 -0.488 c -0.086 -0.078 -0.027 -0.379 0.082 -0.418 c 0.109 -0.039 0.25 0.125 0.25 0.289 c 0 0.16 -0.211 0.242 -0.332 0.129 m 2.887 0.273 c 0 -0.324 0.016 -0.383 0.125 -0.438 c 0.23 -0.113 0.289 -0.031 0.289 0.406 v 0.41 h 0.418 v -0.453 c 0 -0.57 -0.082 -0.664 -0.531 -0.613 l -0.297 0.031 l -0.016 -0.309 c -0.02 -0.301 -0.02 -0.309 -0.195 -0.309 h -0.18 l -0.016 0.824 l -0.016 0.828 h 0.418 m 1.531 -0.828 l -0.016 -0.824 h -0.297 l -0.02 0.824 l -0.016 0.828 h 0.363 m 1.512 -0.176 c 0.137 -0.148 0.156 -0.207 0.129 -0.418 c -0.043 -0.352 -0.238 -0.488 -0.684 -0.488 c -0.41 0 -0.555 0.078 -0.66 0.375 c -0.07 0.184 -0.07 0.242 0 0.367 c 0.168 0.309 0.227 0.34 0.652 0.34 c 0.379 0 0.41 -0.012 0.563 -0.176 m -0.777 -0.102 c -0.137 -0.242 -0.07 -0.523 0.137 -0.57 c 0.086 -0.02 0.195 -0.012 0.25 0.02 c 0.133 0.074 0.152 0.414 0.031 0.582 c -0.137 0.188 -0.301 0.176 -0.418 -0.031 m 3.457 -0.02 c 0.09 -0.164 0.191 -0.301 0.227 -0.301 c 0.07 0.004 0.277 0.293 0.328 0.461 c 0.023 0.066 0.098 0.113 0.195 0.125 c 0.195 0.023 0.203 -0.027 0.027 -0.266 c -0.242 -0.332 -0.359 -0.574 -0.316 -0.648 c 0.094 -0.172 0.199 -0.324 0.289 -0.414 c 0.133 -0.137 0.152 -0.305 0.035 -0.324 c -0.063 -0.012 -0.148 0.063 -0.25 0.219 c -0.23 0.359 -0.301 0.395 -0.438 0.215 c -0.063 -0.082 -0.145 -0.219 -0.184 -0.301 c -0.043 -0.09 -0.113 -0.148 -0.188 -0.148 c -0.18 0 -0.152 0.152 0.086 0.48 c 0.117 0.16 0.207 0.309 0.207 0.332 c 0 0.023 -0.105 0.211 -0.234 0.414 c -0.133 0.203 -0.238 0.387 -0.238 0.41 c 0 0.023 0.063 0.043 0.145 0.043 c 0.113 0 0.176 -0.063 0.309 -0.297 m -0.348 -0.648 c -0.012 -0.063 -0.051 -0.105 -0.09 -0.098 c -0.039 0.008 -0.137 -0.012 -0.219 -0.039 c -0.172 -0.059 -0.219 -0.02 -0.152 0.137 c 0.035 0.086 0.098 0.109 0.262 0.109 c 0.184 0 0.215 -0.016 0.199 -0.109 m -3.594 -1.285 c -0.074 -0.035 -0.133 -0.078 -0.133 -0.105 c 0 -0.023 -0.043 -0.027 -0.09 -0.012 c -0.141 0.051 0.012 0.184 0.199 0.18 c 0.156 -0.004 0.156 -0.004 0.023 -0.063 m 1.898 0.027 c -0.039 -0.012 -0.105 -0.012 -0.148 0 c -0.039 0.016 -0.008 0.027 0.074 0.027 c 0.082 0 0.117 -0.012 0.074 -0.027 m -3.184 -0.227 c -0.047 -0.066 -0.328 -0.109 -0.363 -0.059 c -0.016 0.023 0.031 0.055 0.105 0.066 c 0.234 0.043 0.289 0.039 0.258 -0.008 m -1 -0.203 c -0.02 -0.016 -0.074 -0.02 -0.117 -0.004 c -0.047 0.02 -0.031 0.031 0.039 0.035 c 0.063 0 0.098 -0.012 0.078 -0.031 m -0.699 -0.184 c 0 -0.027 -0.063 -0.055 -0.145 -0.055 c -0.078 0 -0.16 -0.023 -0.18 -0.051 c -0.02 -0.031 -0.082 -0.055 -0.137 -0.055 c -0.109 0 0.133 0.133 0.324 0.18 c 0.059 0.012 0.113 0.027 0.121 0.031 c 0.012 0 0.016 -0.02 0.016 -0.051 m -0.711 -0.242 c -0.043 -0.043 -0.117 -0.082 -0.172 -0.078 c -0.082 0 -0.078 0.012 0.02 0.078 c 0.148 0.105 0.246 0.105 0.152 0 m -0.469 -0.191 c -0.129 -0.098 -0.305 -0.145 -0.305 -0.078 c 0 0.023 0.348 0.176 0.418 0.184 c 0.016 0 -0.035 -0.047 -0.113 -0.105 m -0.508 -0.262 c -0.055 -0.059 -0.16 -0.117 -0.23 -0.137 c -0.105 -0.023 -0.098 -0.008 0.051 0.102 c 0.211 0.156 0.324 0.18 0.18 0.035 m -0.598 -0.441 c -0.059 -0.059 -0.121 -0.094 -0.137 -0.082 c -0.02 0.016 0.02 0.078 0.078 0.137 c 0.059 0.063 0.121 0.098 0.137 0.082 c 0.016 -0.016 -0.02 -0.074 -0.078 -0.137 m 2.492 -0.656 c -0.16 -0.031 -0.336 -0.086 -0.391 -0.129 c -0.051 -0.043 -0.141 -0.078 -0.195 -0.078 c -0.059 0 -0.141 -0.031 -0.188 -0.07 c -0.047 -0.035 -0.117 -0.094 -0.16 -0.129 c -0.039 -0.031 -0.125 -0.117 -0.188 -0.188 c -0.063 -0.066 -0.121 -0.102 -0.129 -0.074 c -0.008 0.031 -0.031 0.121 -0.051 0.203 c -0.027 0.105 -0.074 0.148 -0.16 0.148 c -0.121 0 -0.125 -0.02 -0.086 -0.336 c 0.023 -0.184 0.066 -0.379 0.102 -0.434 c 0.098 -0.164 0.281 -0.117 0.395 0.105 c 0.055 0.109 0.168 0.258 0.25 0.324 c 0.223 0.184 0.703 0.379 1.039 0.422 c 0.359 0.047 0.477 0.117 0.379 0.223 c -0.074 0.082 -0.188 0.086 -0.617 0.012 m 3.02 -0.023 c -0.027 -0.059 0.043 -0.156 0.207 -0.297 c 0.137 -0.117 0.262 -0.211 0.281 -0.211 c 0.02 0 0.105 -0.059 0.195 -0.133 c 0.414 -0.344 0.852 -0.625 0.961 -0.625 c 0.117 0 0.121 0.02 0.086 0.309 c -0.043 0.371 -0.145 0.82 -0.207 0.934 c -0.035 0.066 -0.195 0.086 -0.766 0.098 c -0.621 0.012 -0.727 0.004 -0.758 -0.074 m 1.285 -0.281 c 0 -0.051 0.02 -0.191 0.039 -0.309 l 0.039 -0.219 l -0.246 0.203 c -0.137 0.113 -0.285 0.203 -0.328 0.203 c -0.043 0 -0.129 0.051 -0.188 0.109 c -0.105 0.105 -0.102 0.109 0.289 0.109 c 0.336 0 0.395 -0.016 0.395 -0.098 m -7.301 -0.211 c 0 -0.211 0.121 -0.469 0.328 -0.699 c 0.117 -0.129 0.238 -0.238 0.266 -0.238 c 0.027 0 0.117 -0.055 0.199 -0.121 c 0.219 -0.184 0.273 -0.219 0.66 -0.418 c 0.195 -0.102 0.367 -0.207 0.379 -0.234 c 0.063 -0.141 1.047 -1.066 1.133 -1.066 c 0.035 0 0.063 -0.023 0.063 -0.051 c 0 -0.027 0.16 -0.191 0.355 -0.363 c 0.363 -0.316 0.418 -0.398 0.277 -0.398 c -0.172 0 -0.457 -0.172 -0.457 -0.277 c 0 -0.145 0.258 -0.219 0.695 -0.199 c 0.203 0.008 0.387 -0.004 0.41 -0.023 c 0.059 -0.051 1.832 -0.055 1.887 0 c 0.027 0.02 0.281 0.039 0.574 0.039 c 0.414 0 0.547 0.02 0.629 0.094 c 0.078 0.07 0.086 0.109 0.031 0.168 c -0.047 0.051 -0.047 0.09 0 0.133 c 0.035 0.031 0.051 0.098 0.031 0.145 c -0.031 0.07 -0.109 0.082 -0.469 0.051 c -0.504 -0.039 -0.641 -0.09 -0.641 -0.238 c 0 -0.082 -0.039 -0.105 -0.18 -0.105 c -0.113 0 -0.18 0.023 -0.172 0.066 c 0.023 0.164 -0.012 0.262 -0.105 0.297 c -0.055 0.02 -0.336 0.254 -0.629 0.523 l -0.527 0.492 l 0.418 0.027 c 0.23 0.016 0.449 0.059 0.492 0.094 c 0.039 0.039 0.133 0.07 0.207 0.07 c 0.086 0 0.258 0.109 0.457 0.293 c 0.262 0.242 0.328 0.34 0.363 0.543 c 0.043 0.27 0.078 0.293 0.219 0.148 c 0.121 -0.121 0.566 -0.457 0.695 -0.523 c 0.051 -0.027 0.188 -0.129 0.297 -0.23 c 0.199 -0.172 0.438 -0.234 0.512 -0.125 c 0.02 0.027 -0.012 0.09 -0.07 0.137 c -0.699 0.559 -1.223 0.945 -1.285 0.945 c -0.02 0 -0.121 0.074 -0.227 0.164 c -0.297 0.25 -0.367 0.203 -0.414 -0.27 c -0.035 -0.363 -0.059 -0.414 -0.242 -0.574 c -0.41 -0.352 -0.586 -0.387 -1.902 -0.402 c -0.063 0 -0.055 -0.258 0.012 -0.277 c 0.059 -0.02 1.336 -1.148 1.48 -1.309 c 0.074 -0.086 0.027 -0.09 -0.668 -0.09 c -0.602 0 -0.75 0.016 -0.75 0.074 c 0 0.043 -0.41 0.438 -0.91 0.879 c -0.504 0.441 -1.043 0.957 -1.199 1.145 c -0.164 0.195 -0.379 0.379 -0.5 0.434 c -0.738 0.313 -1.262 0.75 -1.41 1.176 c -0.066 0.188 -0.313 0.266 -0.313 0.098 m 3.5 -0.32 c -0.215 -0.078 -0.414 -0.313 -0.414 -0.48 c 0 -0.137 0.254 -0.512 0.371 -0.547 c 0.059 -0.016 0.105 -0.051 0.105 -0.074 c 0 -0.02 0.176 -0.086 0.391 -0.137 c 0.371 -0.094 0.414 -0.094 0.707 -0.008 c 0.258 0.074 0.332 0.125 0.414 0.281 c 0.121 0.238 0.059 0.453 -0.23 0.734 c -0.305 0.305 -0.887 0.406 -1.344 0.23 m 0.953 -0.273 c 0.27 -0.098 0.355 -0.207 0.355 -0.445 c 0 -0.207 -0.133 -0.277 -0.535 -0.277 c -0.324 0 -0.48 0.051 -0.699 0.234 c -0.195 0.164 -0.172 0.461 0.047 0.539 c 0.176 0.063 0.598 0.035 0.832 -0.051 m -4.551 -2.477 c -0.016 -0.043 -0.023 -0.137 -0.012 -0.203 c 0.016 -0.105 0.102 -0.152 0.496 -0.273 c 0.559 -0.172 0.672 -0.184 0.723 -0.063 c 0.035 0.082 0.043 0.078 0.078 -0.012 c 0.066 -0.164 1.129 -0.367 1.219 -0.234 c 0.023 0.035 0.082 0.02 0.148 -0.035 c 0.141 -0.117 0.281 -0.066 0.332 0.117 c 0.027 0.105 0.012 0.164 -0.059 0.211 c -0.129 0.086 -0.895 0.152 -0.918 0.082 c -0.027 -0.07 -0.25 -0.07 -0.25 0 c 0 0.027 -0.031 0.055 -0.07 0.055 c -0.035 0 -0.113 0.035 -0.168 0.082 c -0.055 0.047 -0.27 0.098 -0.496 0.113 c -0.215 0.02 -0.391 0.055 -0.391 0.078 c 0 0.043 -0.379 0.156 -0.523 0.156 c -0.043 0 -0.09 -0.035 -0.109 -0.074 m 9.238 -0.43 c -0.027 -0.027 -0.758 -0.137 -1.086 -0.164 c -0.227 -0.023 -0.32 -0.113 -0.223 -0.223 c 0.078 -0.082 0.25 -0.109 0.316 -0.051 c 0.02 0.02 0.203 0.043 0.41 0.059 c 0.5 0.031 0.852 0.141 0.852 0.27 c 0 0.094 -0.203 0.172 -0.27 0.109 m 0.281 -0.687 c -0.086 -0.047 -0.102 -0.137 -0.102 -0.574 v -0.52 l 0.363 -0.316 l 0.359 -0.316 l -0.332 -0.289 c -0.184 -0.156 -0.332 -0.324 -0.332 -0.367 c 0 -0.195 0.117 -0.211 1.402 -0.211 c 1.238 0 1.266 0 1.355 0.117 c 0.074 0.102 0.09 0.313 0.09 1.195 c 0 1.406 -0.066 1.52 -0.598 1.012 c -0.156 -0.148 -0.32 -0.27 -0.367 -0.27 c -0.043 0 -0.219 0.137 -0.387 0.297 l -0.313 0.301 l -0.516 -0.004 c -0.285 0 -0.566 -0.027 -0.625 -0.055 m 1.738 -1.27 v -0.352 h -0.773 v 0.703 h 0.773 m -10.926 0.785 c -0.055 -0.063 0.043 -0.391 0.16 -0.52 c 0.035 -0.043 0.082 -0.16 0.102 -0.266 c 0.039 -0.172 0.18 -0.492 0.363 -0.813 c 0.043 -0.074 0.098 -0.219 0.121 -0.324 c 0.043 -0.191 0.184 -0.426 0.293 -0.5 c 0.035 -0.02 0.238 -0.039 0.457 -0.039 h 0.395 l 0.125 0.215 c 0.066 0.121 0.125 0.254 0.125 0.293 c 0 0.039 0.039 0.102 0.09 0.141 c 0.047 0.035 0.086 0.121 0.086 0.188 c 0 0.07 0.043 0.152 0.09 0.191 c 0.051 0.039 0.105 0.16 0.125 0.273 c 0.02 0.113 0.07 0.219 0.113 0.234 c 0.039 0.012 0.09 0.09 0.113 0.172 c 0.023 0.082 0.094 0.211 0.16 0.285 l 0.117 0.137 l -0.008 -1.01 c -0.004 -0.555 0.012 -1.035 0.031 -1.066 c 0.02 -0.031 0.184 -0.055 0.359 -0.055 c 0.313 0 0.336 0.008 0.621 0.273 c 0.164 0.152 0.297 0.313 0.297 0.352 c 0 0.148 0.137 0.074 0.508 -0.273 c 0.363 -0.344 0.383 -0.352 0.672 -0.352 c 0.164 0 0.316 0.023 0.336 0.059 c 0.047 0.066 0.051 2.348 0.008 2.414 c -0.035 0.055 -0.707 0.047 -0.801 -0.008 c -0.047 -0.023 -0.07 -0.219 -0.07 -0.547 c 0 -0.305 -0.023 -0.512 -0.059 -0.512 c -0.031 0 -0.059 0.035 -0.059 0.082 c 0 0.047 -0.043 0.145 -0.098 0.219 c -0.133 0.188 -0.379 0.176 -0.645 -0.035 l -0.207 -0.168 v 0.461 c 0 0.289 -0.027 0.477 -0.07 0.5 c -0.035 0.023 -0.438 0.039 -0.895 0.035 c -0.785 -0.004 -0.828 -0.012 -0.938 -0.129 c -0.063 -0.07 -0.113 -0.156 -0.117 -0.195 c 0 -0.047 -0.129 -0.066 -0.438 -0.066 h -0.441 l -0.039 0.188 c -0.02 0.105 -0.055 0.191 -0.078 0.195 c -0.371 0.031 -0.863 0.016 -0.906 -0.031 m 0.785 -0.363 l 0.141 -0.23 h 1.121 l 0.168 0.23 c 0.121 0.164 0.211 0.227 0.313 0.227 c 0.082 0 0.145 -0.016 0.145 -0.039 c 0 -0.059 -0.348 -0.836 -0.406 -0.902 c -0.023 -0.031 -0.105 -0.191 -0.18 -0.355 c -0.344 -0.762 -0.293 -0.703 -0.613 -0.703 h -0.285 l -0.152 0.309 c -0.082 0.172 -0.23 0.516 -0.332 0.758 c -0.098 0.246 -0.203 0.461 -0.23 0.477 c -0.031 0.02 -0.055 0.09 -0.055 0.16 c 0 0.07 -0.027 0.145 -0.059 0.164 c -0.098 0.055 -0.008 0.133 0.148 0.133 c 0.102 0 0.176 -0.059 0.277 -0.227 m 0.309 -0.559 c -0.023 -0.082 0 -0.223 0.055 -0.34 c 0.051 -0.109 0.109 -0.254 0.129 -0.316 c 0.086 -0.277 0.391 -0.125 0.508 0.25 c 0.031 0.105 0.082 0.227 0.113 0.27 c 0.035 0.051 0.031 0.117 -0.004 0.176 c -0.043 0.078 -0.129 0.098 -0.41 0.098 c -0.328 0 -0.355 -0.008 -0.391 -0.137 m 0.48 -0.133 c 0.066 -0.094 -0.031 -0.176 -0.121 -0.105 c -0.047 0.035 -0.07 0.086 -0.051 0.109 c 0.043 0.066 0.129 0.063 0.172 -0.004 m 2.051 0.305 c 0 -0.484 0.02 -0.633 0.09 -0.684 c 0.098 -0.078 0.191 -0.02 0.52 0.313 c 0.094 0.094 0.203 0.176 0.238 0.176 c 0.035 0 0.18 -0.113 0.32 -0.25 c 0.402 -0.387 0.461 -0.34 0.48 0.43 l 0.016 0.637 l 0.16 -0.016 l 0.164 -0.02 l 0.016 -0.984 l 0.016 -0.988 h -0.207 c -0.168 0 -0.238 0.035 -0.371 0.195 c -0.348 0.414 -0.508 0.563 -0.605 0.563 c -0.055 0 -0.258 -0.172 -0.449 -0.379 c -0.301 -0.332 -0.371 -0.379 -0.543 -0.379 h -0.203 v 0.965 c 0 0.531 0.02 0.98 0.043 1 c 0.02 0.02 0.102 0.035 0.176 0.035 c 0.137 0 0.141 -0.004 0.141 -0.613 m 2.57 0.762 c -0.043 -0.066 -0.039 -2.348 0.008 -2.414 c 0.023 -0.039 0.316 -0.059 0.805 -0.059 c 0.66 0 0.773 0.012 0.844 0.094 c 0.043 0.051 0.109 0.098 0.148 0.102 c 0.043 0 0.145 0.008 0.23 0.012 c 0.098 0.004 0.164 0.047 0.184 0.117 c 0.02 0.059 0.066 0.109 0.105 0.109 c 0.043 0 0.148 0.129 0.23 0.289 c 0.176 0.32 0.219 0.883 0.082 1.02 c -0.039 0.039 -0.113 0.145 -0.164 0.23 c -0.047 0.086 -0.219 0.242 -0.375 0.344 l -0.289 0.191 l -0.891 0.004 c -0.488 0 -0.902 -0.016 -0.918 -0.039 m 1.34 -0.207 c 0.484 -0.078 0.672 -0.16 0.863 -0.391 c 0.129 -0.152 0.152 -0.238 0.152 -0.543 c 0 -0.43 -0.086 -0.609 -0.406 -0.84 c -0.234 -0.168 -0.234 -0.168 -0.984 -0.168 h -0.746 v 0.965 c 0 0.531 0.016 0.98 0.039 1 c 0.063 0.059 0.652 0.043 1.082 -0.023 m -0.66 -0.211 c -0.094 -0.051 -0.105 -0.152 -0.105 -0.789 c 0 -0.73 0 -0.734 0.133 -0.715 c 0.129 0.016 0.137 0.039 0.152 0.68 c 0.016 0.637 0.02 0.664 0.141 0.664 c 0.07 0 0.242 -0.063 0.387 -0.141 c 0.254 -0.137 0.258 -0.137 0.258 -0.449 c 0 -0.348 -0.078 -0.477 -0.297 -0.504 c -0.156 -0.02 -0.664 -0.129 -0.563 -0.219 c 0.078 -0.074 0.852 0.016 1.031 0.195 c 0.121 0.117 0.145 0.199 0.148 0.488 c 0.004 0.383 -0.109 0.598 -0.387 0.719 c -0.211 0.094 -0.777 0.137 -0.898 0.07"/><g fill-rule="evenodd"><path d="m 5.66 7.32 c -0.047 -0.027 -0.047 -0.035 -0.012 -0.078 c 0.023 -0.027 0.055 -0.094 0.066 -0.152 c 0.008 -0.055 0.047 -0.152 0.086 -0.215 c 0.035 -0.066 0.18 -0.379 0.316 -0.695 c 0.141 -0.316 0.277 -0.629 0.309 -0.691 l 0.059 -0.109 h 0.238 c 0.141 0 0.258 0.016 0.285 0.035 c 0.047 0.035 0.707 1.352 0.852 1.699 c 0.082 0.195 0.078 0.238 -0.016 0.238 c -0.109 0 -0.223 -0.086 -0.363 -0.273 l -0.137 -0.191 h -1.145 l -0.105 0.176 c -0.164 0.262 -0.293 0.34 -0.434 0.258 m 1.484 -0.652 c 0.09 -0.059 0.082 -0.16 -0.035 -0.441 c -0.125 -0.293 -0.176 -0.367 -0.301 -0.43 c -0.086 -0.043 -0.105 -0.043 -0.164 -0.004 c -0.145 0.098 -0.332 0.742 -0.25 0.859 c 0.059 0.09 0.613 0.098 0.75 0.012"/><path d="m 8.633 7.324 c -0.039 -0.023 -0.047 -0.172 -0.051 -0.988 l -0.012 -0.957 h 0.137 c 0.074 0 0.16 0.016 0.195 0.031 c 0.035 0.02 0.215 0.18 0.398 0.359 c 0.184 0.18 0.363 0.336 0.398 0.348 c 0.102 0.031 0.176 -0.023 0.52 -0.383 l 0.32 -0.34 l 0.375 -0.023 l -0.012 0.969 c -0.004 0.535 -0.012 0.973 -0.016 0.977 c -0.004 0 -0.07 0.012 -0.152 0.023 l -0.148 0.02 l -0.016 -0.547 c -0.031 -0.867 -0.066 -0.906 -0.5 -0.52 c -0.113 0.098 -0.234 0.195 -0.27 0.215 c -0.07 0.035 -0.105 0.012 -0.445 -0.305 c -0.262 -0.246 -0.383 -0.238 -0.434 0.023 c -0.016 0.066 -0.027 0.324 -0.027 0.57 c 0 0.246 -0.016 0.469 -0.031 0.5 c -0.031 0.059 -0.156 0.074 -0.23 0.027"/><path d="m 11.797 7.336 c -0.066 -0.02 -0.086 -0.289 -0.086 -1.207 v -0.75 h 0.648 c 0.711 0 0.84 0.02 1.02 0.145 c 0.344 0.238 0.43 0.398 0.434 0.84 c 0.004 0.363 -0.02 0.418 -0.25 0.629 c -0.219 0.199 -0.445 0.27 -1.063 0.332 c -0.301 0.027 -0.617 0.035 -0.703 0.012 m 1.117 -0.262 c 0.23 -0.055 0.352 -0.137 0.445 -0.297 c 0.07 -0.117 0.082 -0.172 0.09 -0.426 c 0.008 -0.258 0 -0.305 -0.059 -0.422 c -0.117 -0.219 -0.457 -0.332 -1.023 -0.332 h -0.293 l -0.023 0.172 c -0.035 0.258 -0.004 1.156 0.043 1.254 c 0.027 0.055 0.07 0.09 0.125 0.102 c 0.125 0.023 0.492 0 0.695 -0.051"/></g></g></svg>