<svg xmlns="http://www.w3.org/2000/svg" viewBox="0 0 24 24"><path d="m 22.953 8.199 c 4.66 11.945 -8.395 18.07 -16.52 15.03 c -5.672 -2.125 -8.5 -10.594 -4.473 -17.441 c 5.086 -8.637 17.402 -6.801 20.992 2.414" fill="#ec2820"/><path d="m 121.34 241.14 c -1.017 -1.854 -2.119 -7.89 -3.899 -21.557 c -1.017 -7.761 -2.374 -14.616 -3.01 -15.263 c -0.636 -0.647 -2.925 -0.776 -5.086 -0.302 c -3.01 0.69 -5.595 3.061 -10.596 9.83 c -8.647 11.598 -17.12 20.523 -17.802 18.712 c -0.254 -0.776 0.381 -5.131 1.441 -9.701 c 2.416 -10.563 3.73 -24.489 2.67 -28.671 c -0.424 -1.811 -1.695 -3.277 -2.797 -3.277 c -2.331 0 -23.14 11.684 -28.314 15.866 c -7.587 6.165 -11.444 1.38 -5.129 -6.295 c 3.73 -4.613 14.665 -21.687 15.852 -24.791 c 1.229 -3.277 -2.374 -5.993 -8.01 -5.993 c -2.713 0 -10.257 0.647 -16.742 1.466 c -6.485 0.776 -12.12 1.121 -12.546 0.69 c -1.992 -1.983 1.865 -6.338 11.953 -13.452 c 11.06 -7.761 14.623 -12.417 12.97 -16.858 c -0.805 -2.07 -2.077 -2.414 -16.06 -4.398 c -14.199 -1.983 -20.515 -4.915 -20.557 -9.485 c -0.042 -2.026 2.204 -2.587 18.14 -4.7 c 17.463 -2.328 18.06 -2.544 17.971 -7.373 c -0.042 -4.872 -1.611 -6.985 -8.308 -11.21 c -7.163 -4.527 -21.19 -17.893 -20.01 -19.06 c 0.509 -0.517 3.984 0 7.672 1.164 c 3.73 1.164 11.444 2.716 17.17 3.449 c 11.359 1.466 17.251 0.302 17.251 -3.406 c 0 -1.94 -5.764 -12.03 -14.665 -25.481 c -4.03 -6.165 -5.256 -11.21 -2.67 -11.21 c 0.763 0 7.629 4.096 15.301 9.14 c 17.209 11.296 17.675 11.469 20.981 8.149 c 2.246 -2.242 2.501 -3.535 1.78 -9.485 c -0.424 -3.751 -1.144 -11.04 -1.568 -16.17 c -0.805 -9.313 -0.805 -9.356 2.162 -8.925 c 2.077 0.302 5.298 3.665 10.596 11.04 c 8.477 11.77 14.581 16.513 17.463 13.581 c 0.932 -0.949 2.586 -7.545 3.645 -14.659 c 1.865 -12.59 5.637 -22.463 9.03 -23.584 c 1.95 -0.604 3.73 6.209 5.341 20.566 c 1.568 13.581 3.179 17.85 6.824 17.806 c 4.493 -0.086 7.884 -2.846 13.01 -10.606 c 6.527 -9.744 15.937 -20.221 17.17 -19.01 c 0.509 0.517 0.042 5.04 -1.102 10 c -3.899 16.944 -4.874 25.09 -3.518 28.715 c 2.331 6.122 4.832 5.174 30.518 -11.555 c 6.06 -3.923 9.579 -4.225 9.579 -0.776 c 0 1.035 -4.239 7.933 -9.367 15.349 c -5.129 7.416 -9.367 14.745 -9.367 16.297 c 0 1.595 1.314 3.665 3.137 4.829 c 2.925 1.94 4.069 1.94 16.785 -0.129 c 21.786 -3.492 23.02 -0.905 5.68 11.9 c -12.04 8.968 -14.369 11.555 -14.369 16.08 c 0 2.846 0.17 2.889 16.488 5.605 c 10.512 1.725 20.896 6.04 21.871 9.05 c 0.636 1.983 -5.976 3.88 -17.12 4.829 c -12.334 1.078 -18.438 2.716 -19.836 5.346 c -1.823 3.406 1.441 9.485 6.909 12.805 c 8.731 5.389 22.931 17.893 21.701 19.14 c -0.763 0.733 -5.934 0.086 -14.03 -1.768 c -15.05 -3.449 -26.745 -3.967 -28.441 -1.25 c -1.441 2.328 -0.424 4.225 14.623 27.68 c 4.408 6.855 5.213 11.08 2.119 11.08 c -1.06 0 -8.308 -4.225 -16.02 -9.356 c -7.714 -5.174 -15.301 -9.356 -16.785 -9.356 c -4.79 0 -5.849 4.743 -4.154 18.496 c 1.907 15.392 1.865 18.927 -0.17 18.927 c -2.246 0 -8.265 -6.597 -14.453 -15.866 c -5.383 -8.06 -8.138 -10.348 -12.589 -10.348 c -3.348 0 -4.408 2.932 -6.231 16.815 c -0.848 6.683 -2.501 13.11 -4.069 15.866 c -2.543 4.57 -5.383 6.812 -6.4 5.04 m 20.387 -45.831 c 10.851 -2.587 17.42 -6.122 27.72 -14.918 c 10.724 -9.183 12.843 -12.245 18.01 -25.653 c 3.264 -8.451 3.603 -10.865 3.603 -24.36 c 0 -13.581 -0.339 -15.909 -3.73 -24.964 c -3.264 -8.709 -5.086 -11.382 -14.07 -20.738 c -7.629 -7.976 -12.207 -11.641 -17.505 -14.01 c -28.398 -12.762 -56.5 -8.149 -77.23 12.633 c -13.479 13.538 -19.709 28.456 -19.667 47.08 c 0.042 11.727 1.568 18.453 7.121 30.913 c 4.03 9.01 19.497 24.489 28.992 28.973 c 16.785 7.933 29.03 9.27 46.751 5.04" transform="matrix(0.09216 0 0 0.0906 0.142 0.528)" fill="#fff" stroke="#fff" stroke-width="0.18"/></svg>