<svg xmlns="http://www.w3.org/2000/svg" viewBox="0 0 24 24"><path d="m 19.08 2.555 c 19.688 17.262 -27.672 34.715 -17.641 6.59 c 2.5 -7 10.977 -12.43 17.641 -6.59" fill="#1e8fff"/><g fill="#fff"><path d="m 6.559 21.23 c 0.074 -0.168 0.105 -0.348 0.219 -0.453 c 0.145 -0.137 0.184 -0.242 0.094 -0.242 c -0.027 0 -0.082 0.027 -0.125 0.059 c -0.039 0.031 -0.086 0.047 -0.102 0.035 c -0.035 -0.031 0.082 -0.172 0.34 -0.41 c 0.117 -0.113 0.238 -0.234 0.262 -0.273 c 0.023 -0.043 0.148 -0.492 0.27 -1 c 0.215 -0.875 0.332 -1.27 0.445 -1.461 c 0.027 -0.043 0.207 -0.195 0.398 -0.332 c 0.195 -0.141 0.484 -0.371 0.645 -0.512 c 0.16 -0.145 0.441 -0.355 0.629 -0.469 c 0.402 -0.246 0.551 -0.387 0.551 -0.523 c 0 -0.156 -0.074 -0.18 -0.504 -0.168 c -0.48 0.012 -0.602 -0.031 -0.695 -0.25 c -0.129 -0.289 -0.219 -0.348 -0.68 -0.43 c -0.438 -0.168 -0.441 -0.086 -0.809 -0.098 c -0.145 -0.043 -0.559 -0.148 -0.621 -0.148 c -1.039 0.629 -1.113 0.07 -1.098 -0.152 c 0.121 -0.25 0.891 -0.418 1.215 -0.602 c 0.184 -0.102 0.207 -0.105 0.762 -0.117 c 0.57 -0.012 0.574 -0.012 0.645 -0.105 c 0.039 -0.051 0.102 -0.113 0.141 -0.141 c 0.137 -0.234 -0.137 -0.359 -0.207 -0.559 c -0.172 -0.496 -0.16 -0.539 0.168 -0.723 c 0.223 -0.125 0.227 -0.133 0.254 -0.336 c 0.016 -0.113 0.063 -0.262 0.109 -0.336 c 0.047 -0.07 0.082 -0.195 0.082 -0.285 c 0 -0.211 0.109 -0.609 0.203 -0.719 c 0.242 -0.297 0.461 -0.871 0.48 -1.254 c 0.039 -0.906 0.031 -1.117 0.094 -1.188 c 0.453 -0.492 0.086 -0.355 0.051 -0.922 c -0.008 -0.148 -0.074 -0.496 -0.121 -0.57 c -0.09 -0.141 -0.059 -0.254 0.113 -0.402 c 0.129 -0.113 0.352 0.273 0.375 0.125 c 0.012 -0.098 -0.371 -0.418 -0.125 -0.66 c 0.316 0.094 0.434 0.445 0.449 -0.121 c 0.008 -0.195 0.059 -0.324 0.133 -0.324 c 0.082 0 0.164 0.246 0.164 0.484 c 0.078 0.699 0.184 0.438 0.176 0.02 l -0.012 -0.418 c 0.094 -0.086 0.203 -0.168 0.305 -0.223 c 0.012 0.008 0.039 0.18 0.063 0.379 c 0.059 0.531 0.16 0.563 0.242 0.078 c 0.031 -0.18 0.07 -0.281 0.137 -0.34 c 0.051 -0.047 0.109 -0.086 0.125 -0.086 c 0.016 0 0.043 0.09 0.055 0.203 c 0.078 0.629 0.199 0.938 0.703 1.836 c 0.215 0.379 0.465 0.879 0.559 1.109 c 0.098 0.246 0.238 0.508 0.332 0.629 c 0.238 0.301 0.348 0.609 0.348 0.973 c 0 0.297 0 0.301 -0.293 0.828 c -0.328 0.586 -0.559 1.094 -0.637 1.395 c -0.055 0.223 -0.031 1.512 0.035 1.699 c 0.309 0.285 0.984 0.66 1.457 0.668 c 0.23 0 0.316 -0.02 0.586 -0.133 c 0.492 -0.207 0.73 -0.484 0.863 -1.02 c 0.063 -0.25 0.023 -0.578 -0.094 -0.766 c -0.074 -0.125 -0.164 -0.223 -0.098 -0.438 c 0.145 -0.449 0.074 -0.594 -0.738 -0.313 c -0.145 0.051 0.332 -0.293 0.711 -0.551 c 0.18 -0.125 0.711 -0.395 0.969 -0.539 c 0.75 -0.414 1.172 -0.176 2.02 0.008 c 0.277 0.059 0.711 0.133 0.961 0.156 c 0.402 0.043 0.461 0.168 0.238 0.172 c -0.461 0.012 -1.324 -0.008 -1.543 0.063 c -0.117 0.043 -0.391 0.098 -0.605 0.125 c -0.215 0.027 -0.473 0.082 -0.57 0.121 c -0.395 0.164 -0.719 0.512 -0.719 0.77 c 0 0.063 0.043 0.172 0.098 0.242 c 0.145 0.191 0.16 0.313 0.086 0.621 c -0.164 0.672 -0.488 1.234 -0.949 1.625 c -0.32 0.27 -0.871 0.512 -1.402 0.609 c -0.488 0.09 -1.875 0.25 -2.188 0.254 c -0.137 0 -0.371 0.012 -0.523 0.027 c -0.266 0.023 0.016 0.063 -0.219 0.277 c -0.43 0.547 -0.824 0.707 -1.547 1.039 c -0.246 0.109 -1.117 0.453 -1.332 0.691 c -0.109 0.129 -0.207 0.602 -0.25 0.703 c -0.164 0.367 -0.598 1.742 -0.664 2.035 c -0.039 0.164 -0.051 0.355 -0.105 0.453 c -0.145 0.246 -0.699 0.594 -0.781 0.652 c -0.066 0.043 -0.066 0.039 0 -0.051 m 11.656 -10.488 c 0 -0.039 -0.035 -0.086 -0.074 -0.105 c -0.063 -0.031 -0.086 -0.027 -0.133 0.023 c -0.082 0.094 -0.031 0.172 0.098 0.156 c 0.074 -0.008 0.109 -0.031 0.109 -0.074 m -9.266 -0.57 c -0.191 -0.398 -0.719 -0.414 -0.75 -0.664 c -0.09 -0.23 -0.176 -0.441 -0.102 -0.641 c -0.055 -0.23 -0.238 -0.387 -0.164 -0.602 l 0.055 -0.16 l -0.172 -0.125 c -0.289 -0.215 -0.438 -0.363 -0.484 -0.488 c -0.086 -0.223 0.023 -0.273 0.371 -0.168 c 0.277 0.082 0.316 0.027 0.133 -0.191 c -0.133 -0.156 -0.238 -0.426 -0.199 -0.512 c 0.016 -0.031 0.07 -0.07 0.125 -0.086 c 0.156 -0.105 0.527 0.266 0.66 0.281 c 0.188 0.023 -0.055 -0.449 -0.055 -0.605 c 0 -0.047 0.027 -0.066 0.102 -0.066 c 0.074 0 0.145 0.051 0.273 0.195 c 0.234 0.266 0.285 0.242 0.238 -0.105 c -0.016 -0.098 -0.004 -0.105 0.102 -0.105 c 0.105 0 0.137 0.027 0.289 0.281 c 0.441 0.609 -0.02 3.387 -0.297 3.852 c -0.023 0 -0.078 -0.039 -0.125 -0.09"/><path d="m 5.855 20.621 c 0.02 -0.043 0.039 -0.117 0.047 -0.164 c 0.012 -0.059 0.063 -0.133 0.164 -0.246 c 0.148 -0.156 0.184 -0.234 0.117 -0.258 c -0.02 -0.008 -0.082 0.008 -0.137 0.035 c -0.215 0.102 -0.176 0.043 0.207 -0.324 l 0.332 -0.324 l 0.066 -0.199 c 0.035 -0.109 0.148 -0.52 0.254 -0.914 c 0.191 -0.723 0.359 -1.25 0.441 -1.398 c 0.059 -0.105 0.172 -0.207 0.523 -0.457 c 0.156 -0.113 0.93 -0.879 1.137 -1.035 c 0.832 -0.707 2.426 -0.449 1.18 0.152 c -0.055 0.027 -0.25 0.133 -0.438 0.234 c -0.188 0.102 -0.535 0.266 -0.777 0.363 c -0.555 0.227 -0.977 0.441 -1.113 0.566 c -0.094 0.086 -0.117 0.133 -0.211 0.414 c -0.059 0.176 -0.168 0.469 -0.242 0.66 c -0.258 0.668 -0.605 1.742 -0.664 2.063 c -0.039 0.223 -0.113 0.336 -0.34 0.516 c -0.094 0.047 -0.617 0.527 -0.547 0.316"/></g></svg>