<svg xmlns="http://www.w3.org/2000/svg" viewBox="0 0 24 24"><path d="m 2.328 5.891 c -4.605 4.93 -1.48 10.574 2.91 14.957 c 3.57 3.566 6.887 3.863 10.395 1.75 c 9.176 -5.523 12.98 -13.04 -0.535 -21.852 c -4.691 -2.18 -10.172 1.969 -12.77 5.145" fill="#7f7f7f"/><g fill="#fff"><path d="m 17.422 11.242 c 0 0.977 -0.809 1.77 -1.809 1.77 c -0.996 0 -1.805 -0.793 -1.805 -1.77 c 0 -0.977 0.809 -1.77 1.805 -1.77 c 1 0 1.809 0.793 1.809 1.77"/><path d="m 9.902 11.207 c 0 0.918 -0.758 1.66 -1.695 1.66 c -0.941 0 -1.699 -0.742 -1.699 -1.66 c 0 -0.918 0.758 -1.664 1.699 -1.664 c 0.938 0 1.695 0.746 1.695 1.664"/></g><path d="m 5.973 15.359 c -0.176 -0.051 -0.508 -0.188 -0.742 -0.301 c -0.598 -0.293 -3.293 -2.262 -3.418 -2.496 c -0.316 -0.59 -0.199 -1.352 0.293 -1.887 c 0.535 -0.582 2.621 -2.051 3.867 -2.727 c 0.43 -0.23 0.547 -0.258 1.09 -0.258 c 0.547 0 0.668 0.027 1.227 0.301 c 0.34 0.164 0.988 0.527 1.438 0.809 c 1.758 1.098 2.348 1.914 1.918 2.66 c -0.199 0.34 -3.199 3.434 -3.543 3.648 c -0.156 0.098 -0.406 0.219 -0.559 0.27 c -0.352 0.113 -1.16 0.105 -1.57 -0.02 m 3.03 -2.781 c 0.133 -0.074 0.355 -0.27 0.492 -0.43 c 0.359 -0.535 0.379 -1.313 0.02 -1.77 c -0.43 -0.535 -1.066 -0.754 -1.719 -0.586 c -1.445 0.375 -1.535 2.387 -0.125 2.887 c 0.379 0.133 0.992 0.086 1.332 -0.102 m -1.219 -0.988 c -0.273 -0.336 -0.176 -0.738 0.215 -0.879 c 0.273 -0.102 0.609 0.031 0.73 0.285 c 0.133 0.277 0.113 0.398 -0.105 0.605 c -0.266 0.258 -0.621 0.25 -0.84 -0.012 m 8.367 3.781 c -0.137 -0.051 -0.371 -0.168 -0.523 -0.262 c -0.328 -0.199 -3.34 -3.301 -3.539 -3.648 c -0.43 -0.746 0.16 -1.563 1.918 -2.66 c 0.449 -0.281 1.094 -0.645 1.434 -0.809 c 0.559 -0.273 0.68 -0.301 1.227 -0.301 c 0.547 0 0.66 0.027 1.09 0.258 c 1.25 0.676 3.332 2.145 3.867 2.727 c 0.492 0.535 0.613 1.297 0.297 1.887 c -0.156 0.293 -2.93 2.27 -3.633 2.586 c -0.504 0.23 -0.699 0.277 -1.246 0.293 c -0.383 0.016 -0.746 -0.016 -0.891 -0.07 m -0.18 -2.664 c 1.172 -0.313 1.496 -1.863 0.543 -2.629 c -0.922 -0.742 -2.434 -0.184 -2.547 0.945 c -0.055 0.563 0.035 0.871 0.367 1.223 c 0.438 0.469 1 0.629 1.637 0.461 m -0.863 -1.105 c -0.219 -0.207 -0.238 -0.328 -0.105 -0.605 c 0.121 -0.254 0.457 -0.387 0.73 -0.285 c 0.395 0.141 0.492 0.543 0.215 0.879 c -0.219 0.262 -0.57 0.27 -0.84 0.012" fill="#23282f"/></svg>