<svg xmlns="http://www.w3.org/2000/svg" viewBox="0 0 24 24"><path d="m 2.34 19.05 c -11.996 -18.05 26.26 -29.16 21.2 -5.832 c -2.16 9.637 -15.691 15.488 -21.2 5.832" fill="#0470f6"/><path d="m 9.01 17.05 c -0.074 -0.207 0.023 -0.664 0.969 -4.59 c 0.621 -2.57 0.777 -3.359 0.691 -3.418 c -0.063 -0.043 -0.852 -0.078 -1.754 -0.078 c -1.883 -0.004 -1.898 -0.012 -1.723 -0.77 c 0.18 -0.746 0.102 -0.73 4.04 -0.77 c 3.883 -0.039 5.305 0.023 5.383 0.238 c 0.074 0.219 -0.055 0.781 -0.238 1.023 c -0.164 0.219 -0.223 0.227 -1.949 0.273 l -1.777 0.051 l -0.258 1.016 c -0.77 3.055 -1.328 5.465 -1.285 5.539 c 0.027 0.047 0.707 0.086 1.508 0.086 c 0.801 0 1.734 0.031 2.07 0.063 c 0.543 0.055 0.613 0.09 0.66 0.293 c 0.035 0.141 -0.023 0.398 -0.156 0.688 l -0.215 0.461 l -2.953 0.023 c -2.637 0.023 -2.957 0.012 -3.01 -0.129" fill="#fff"/></svg>