<svg xmlns="http://www.w3.org/2000/svg" viewBox="0 0 24 24"><path d="m 9.504 0.352 c -12.363 1.859 -12.734 20.363 -0.715 23.16 c 9.73 2.879 17.684 -7.547 14.496 -15.34 c -1.504 -5.223 -7.672 -9.441 -13.781 -7.82" fill="#b0c3de"/><path d="m 19.422 12.152 c 0 4.074 -3.277 7.375 -7.32 7.375 c -4.04 0 -7.32 -3.301 -7.32 -7.375 c 0 -4.07 3.277 -7.375 7.32 -7.375 c 4.04 0 7.32 3.305 7.32 7.375" fill="#fff"/><path d="m 9.969 21.16 c -2.996 -0.641 -5.41 -2.594 -6.625 -5.352 c -1.992 -4.523 -0.117 -9.848 4.238 -12.05 c 2.25 -1.145 4.602 -1.352 6.961 -0.621 c 4.191 1.297 6.949 5.461 6.484 9.801 c -0.418 3.945 -3.129 7.133 -6.898 8.113 c -1.227 0.316 -2.984 0.367 -4.16 0.113 m 0.945 -5.227 c 0.957 -0.219 2.02 -1.031 2.457 -1.875 c 0.277 -0.539 0.488 -1.332 0.383 -1.453 c -0.063 -0.078 -0.656 -0.105 -2.184 -0.105 c -2.035 0 -2.109 0.004 -2.492 0.207 c -0.52 0.27 -0.688 0.422 -0.891 0.813 c -0.387 0.75 -0.039 1.723 0.758 2.137 c 0.672 0.352 1.281 0.434 1.969 0.277 m 3.223 -4.04 c 0.996 -0.258 1.563 -0.891 1.563 -1.754 c 0 -0.914 -0.688 -1.641 -1.77 -1.867 c -1.281 -0.27 -2.766 0.441 -3.598 1.727 c -0.492 0.762 -0.801 1.863 -0.543 1.945 c 0.055 0.016 0.941 0.039 1.973 0.055 c 1.445 0.02 1.992 -0.004 2.375 -0.105" fill="#4360de"/></svg>