<svg xmlns="http://www.w3.org/2000/svg" viewBox="0 0 24 24"><path d="m 5.828 22.25 c -21.12 -18.13 22.313 -35.566 17.848 -7.523 c -0.98 6.148 -12.156 12.41 -17.848 7.523" fill="#00105f"/><path d="m 10.582 17.914 c -0.176 -0.172 -0.219 -0.406 -0.348 -1.797 l -0.094 -1.012 l -1.578 -1.563 l -1.465 -0.07 c -0.809 -0.039 -1.523 -0.117 -1.59 -0.172 c -0.281 -0.223 -0.129 -0.613 0.527 -1.359 c 0.703 -0.797 0.82 -0.887 1.266 -0.98 c 0.227 -0.047 0.313 -0.133 0.379 -0.375 c 0.047 -0.188 0.359 -0.609 0.75 -1.016 c 0.758 -0.789 0.758 -0.789 1.535 -0.18 c 0.289 0.227 0.531 0.348 0.602 0.305 c 0.07 -0.039 0.652 -0.664 1.301 -1.383 l 1.176 -1.313 l 1.688 -0.539 c 0.93 -0.297 1.809 -0.543 1.953 -0.543 c 0.301 0 0.625 0.285 0.711 0.621 c 0.031 0.137 -0.145 0.957 -0.438 2 l -0.492 1.773 l -1.391 1.332 c -0.766 0.734 -1.391 1.379 -1.387 1.434 c 0 0.051 0.133 0.293 0.293 0.531 c 0.164 0.238 0.297 0.531 0.297 0.652 c 0 0.141 -0.289 0.492 -0.84 1.023 c -0.668 0.645 -0.84 0.867 -0.84 1.094 c 0 0.328 -0.137 0.504 -0.93 1.184 c -0.613 0.527 -0.836 0.598 -1.086 0.348 m 0.906 -1.059 c 0.387 -0.395 0.418 -0.465 0.418 -0.965 c 0.004 -0.652 0.094 -0.832 0.383 -0.742 c 0.164 0.055 0.32 -0.039 0.723 -0.418 l 0.512 -0.488 l -0.352 -0.484 c 0 0 -2.141 0.02 -2.355 0.035 c -0.227 0.016 0.945 -0.844 0.945 -1.117 c -0.004 -0.664 -0.746 -1.941 -0.746 -2.34 c 0 -0.207 -0.102 -0.215 -0.352 -0.023 c -0.285 0.215 -0.367 0.191 -0.957 -0.293 c -0.297 -0.246 -0.586 -0.445 -0.645 -0.445 c -0.152 0 -0.91 0.891 -0.91 1.07 c 0 0.082 0.094 0.25 0.207 0.375 c 0.355 0.375 0.191 0.531 -0.559 0.531 c -0.648 0 -0.652 0 -1.188 0.508 c -0.297 0.277 -0.539 0.566 -0.539 0.641 c 0 0.105 0.27 0.133 1.281 0.133 c 0.91 0 1.309 0.035 1.379 0.125 c 0.344 0.441 0.965 1.09 1.125 1.176 c 0.285 0.152 0.258 -0.023 0.039 -0.488 c -0.109 -0.23 -0.559 -0.527 -0.629 -0.758 c -0.113 -0.375 -0.797 -1.355 -0.637 -1.531 c 0.098 -0.109 2.125 -1.867 1.781 -0.445 c -0.164 0.676 -0.18 1.191 0.012 1.566 c 0.188 0.379 1.219 1.793 1.828 2.652 c 0.113 0.164 -0.047 1.039 -0.305 0.777 l -1.504 -1.543 l 0.133 1.234 c 0.074 0.68 0.137 1.336 0.137 1.457 c 0.008 0.352 0.313 0.27 0.773 -0.199 m 2.141 -4.824 c 0.195 -0.168 0.352 -0.348 0.352 -0.402 c 0 -0.055 -0.219 -0.535 -0.484 -1.066 c -0.266 -0.535 -0.539 -1.23 -0.605 -1.547 c -0.063 -0.316 -0.133 -0.633 -0.152 -0.699 c -0.059 -0.203 -0.328 -0.027 -0.699 0.457 c -0.309 0.402 -0.344 0.508 -0.309 0.91 c 0.059 0.617 0.563 1.656 1.066 2.203 c 0.23 0.25 0.434 0.453 0.449 0.453 c 0.02 0 0.191 -0.137 0.383 -0.309 m 1.578 -1.531 c 0.254 -0.098 0.512 -3.289 0.176 -3.406 c -0.172 -0.059 -2.809 0.18 -1.145 2.352 c 0.301 0.391 -0.074 0.059 0.07 0.219 c 0.188 0.203 0.691 0.918 0.898 0.836" fill="#fff"/></svg>