<svg xmlns="http://www.w3.org/2000/svg" viewBox="0 0 24 24"><path d="m 18.17 1.75 c 21.13 18.13 -22.313 35.566 -17.848 7.523 c 0.98 -6.148 12.156 -12.41 17.848 -7.523" fill="#c8adab"/><path d="m 5.383 16.953 c -0.195 -0.176 -0.211 -2.473 -0.227 -2.645 c -0.105 -1.133 0.063 -0.633 1.875 -6.04 c 0.164 -0.574 0.305 -1.109 0.477 -1.48 c 1.297 -2.777 3.051 -0.188 8.844 -0.5 c 0.613 0.664 3.074 0.449 0.926 6.645 c -1.863 5.387 -2.234 4.203 -2.504 4.344 c -2.781 -0.477 -7.188 0.879 -9.391 -0.328" fill="#fff"/><path d="m 6.06 17.535 c -0.254 -0.043 -0.453 -0.129 -0.703 -0.309 c -0.543 -0.391 -1.012 -1.059 -0.965 -1.59 c 0.02 -0.207 0.051 -0.578 0.074 -0.824 c 0.375 -0.961 0.762 -2.219 1.152 -3.055 c 0.297 -0.551 0.367 -1.227 0.609 -1.484 c 0.098 -0.105 0.242 -0.199 0.324 -0.219 c 0.93 -0.184 1.445 -0.336 1.512 -0.539 c 0.066 -0.199 -0.262 -0.273 -0.617 -0.273 c -0.172 0 -0.422 0.027 -0.555 0.063 c -0.129 0.035 -0.25 0.051 -0.27 0.035 c 0.043 -0.289 0.207 -0.465 0.262 -0.727 c 0.055 -0.273 0.23 -0.297 0.52 -0.152 c 0.309 0.152 0.895 0.637 1.141 0.363 c 0.445 -0.496 -0.563 -0.75 -0.824 -0.895 c -0.438 -0.238 -0.602 -0.578 -0.313 -0.938 c 0.07 -0.082 0.184 -0.52 0.281 -0.676 c 0.102 -0.156 0.305 -0.07 0.336 -0.07 c 0.035 0 0.078 0.102 0.098 0.223 c 0.039 0.273 0.336 1.156 0.422 1.262 c 0.094 0.117 0.34 0.086 0.422 -0.055 c 0.086 -0.156 -0.012 -0.832 -0.195 -1.336 c -0.102 -0.273 -0.121 -0.535 -0.121 -0.816 c 1.301 -0.164 2.852 0.012 4.063 0.008 c 1.875 -0.004 3.535 0.008 3.688 0.031 c 0.398 0.063 0.559 0.184 0.727 0.559 c 0.207 0.313 0.102 0.523 0.016 0.871 c -0.074 0.297 -0.191 0.664 -0.254 0.813 c -0.059 0.566 -0.477 0.984 -0.488 1.52 c -0.059 0.371 -0.258 0.688 -0.332 1.047 l -0.07 0.34 l -0.434 0.207 c -0.324 0.156 -0.445 0.254 -0.492 0.383 c -0.086 0.234 0.086 0.359 0.43 0.313 c 0.43 -0.059 0.453 0.031 0.098 0.375 c -0.195 0.188 -0.172 0.164 -0.246 0.117 c -1.664 -1.02 -1.84 -0.453 -0.555 0.594 l 0.375 0.305 l -0.102 0.441 c -0.098 0.422 -0.293 0.781 -0.379 0.695 c -0.059 -0.055 -0.148 -0.469 -0.152 -0.688 c 0 -0.328 -0.426 -0.555 -0.645 -0.344 c -0.133 0.125 -0.125 0.379 0.02 0.703 c 0.066 0.148 0.141 0.402 0.164 0.559 c 0.023 0.16 0.082 0.383 0.129 0.492 c 0.117 0.391 -0.039 0.43 -0.281 0.699 l -4.211 0.027 c -4.563 0.035 -4.414 0.023 -4.414 0.359 c 0.137 0.477 0.379 0.73 0.867 0.781 l 8.734 -0.031 l 0.297 -0.164 c 0.438 -0.617 0.594 -1.41 0.73 -2.082 c 0.055 -0.301 0.289 -0.828 0.387 -0.863 c 0.211 0.027 0.34 0.188 0.535 0.281 c 0.172 0.063 0.191 0.203 0.051 0.422 c -0.188 0.336 -0.184 0.723 -0.359 1.051 c -0.109 0.484 -0.344 0.902 -0.453 1.375 c 0 0.156 -0.664 0.719 -0.934 0.789 c -0.332 0.086 -8.621 0.113 -9.1 0.027 m 7.988 -6.977 c 0.168 -0.086 0.555 -0.594 0.555 -0.727 c 0 -0.063 -0.055 -0.164 -0.125 -0.23 c -0.117 -0.117 -0.207 -0.121 -2.723 -0.121 c -1.707 0 -2.652 0.023 -2.746 0.066 c -0.18 0.078 -0.484 0.527 -0.484 0.715 c 0 0.078 0.047 0.188 0.105 0.25 c 0.094 0.102 0.262 0.109 2.699 0.109 c 1.645 0 2.645 -0.023 2.719 -0.063 m 0.758 -2.117 c 0.254 -0.102 0.391 -0.258 0.434 -0.484 c 0.035 -0.191 -0.043 -0.453 -0.16 -0.523 c -0.039 -0.027 -1.23 -0.047 -2.648 -0.047 c -2.891 0 -2.723 -0.027 -3 0.453 c -0.238 0.418 -0.203 0.578 0.148 0.641 c 0.086 0.016 1.254 0.031 2.594 0.035 c 1.93 0.008 2.477 -0.008 2.633 -0.074 m 2 4.676 c -0.246 -0.137 -0.25 -0.141 -0.23 -0.461 c -0.051 -0.313 0.359 -0.781 0.207 -1.023 c -0.121 -0.191 -0.082 -0.281 0.16 -0.352 c 0.621 -0.188 0.887 -0.316 0.922 -0.461 c 0.055 -0.203 -0.074 -0.32 -0.355 -0.32 c -0.211 0 -0.238 -0.016 -0.238 -0.145 c 0.023 -0.34 0.297 -0.59 0.309 -0.934 c 0.063 -0.363 0.273 -0.66 0.336 -1.031 c 0.07 -0.461 0.34 -0.43 0.586 0.066 c 0.164 0.34 0.168 0.461 0.012 0.793 c -0.133 0.316 -0.148 0.676 -0.281 0.961 c -0.078 0.566 -0.418 1.203 -0.523 1.617 c -0.078 0.328 -0.254 0.645 -0.316 0.957 c -0.063 0.32 -0.148 0.473 -0.27 0.469 c -0.039 0 -0.18 -0.063 -0.316 -0.137" fill="#7a190d"/></svg>