<svg xmlns="http://www.w3.org/2000/svg" viewBox="0 0 24 24"><path d="m 2.57 7.84 c -1.137 1.457 -2.27 4.191 -2.41 5.828 c -0.211 2.363 0.602 5.059 2.01 6.684 c 1.875 2.164 5.656 3.578 9.438 3.531 c 2.711 -0.035 6.344 -0.871 8.199 -1.887 c 1.578 -0.863 2.707 -2.121 3.324 -3.711 c 0.836 -2.152 0.875 -4.258 0.113 -6.34 c -1.242 -4.453 -4.055 -7.445 -6.574 -9.832 c -6.395 -5.332 -10.633 1.207 -14.1 5.73" fill="#9370db"/><path d="m 11.797 3.383 c -0.691 1.688 -1.105 2.793 -1.871 4.43 c 0.668 0.34 1.25 0.875 1.984 1.734 c -0.836 -0.66 -1.484 -1.059 -2.211 -1.262 c -0.98 2.047 -2.516 4.965 -5.637 10.566 c 0.926 -0.543 6.152 -1.906 5.68 -3.145 c -0.129 -0.309 -0.387 -0.348 -0.781 -0.488 v -0.785 c 0.398 -0.145 0.652 -0.184 0.781 -0.492 c 0.129 -0.309 -0.023 -0.52 -0.207 -0.902 l 0.559 -0.555 c 0.383 0.184 0.59 0.336 0.898 0.207 c 0.309 -0.129 0.352 -0.387 0.492 -0.781 h 0.785 c 0.145 0.398 0.184 0.652 0.492 0.781 c 0.309 0.129 0.52 -0.027 0.902 -0.207 l 0.555 0.555 c -0.184 0.383 -0.336 0.594 -0.207 0.902 c 0.129 0.309 0.383 0.348 0.781 0.492 v 0.785 c -2.598 1.449 3.473 3.133 4.738 3.633 c -0.477 -0.879 -0.902 -1.668 -1.309 -2.422 c -0.641 -0.496 -1.309 -1.141 -2.668 -1.84 c 0.934 0.242 1.605 0.523 2.129 0.836 c -4.133 -7.695 -4.469 -8.715 -5.887 -12.04 m 0.078 10.469 c -0.535 0 -0.969 0.438 -0.969 0.973 c 0 0.539 0.434 0.973 0.969 0.973 c 0.539 0 0.973 -0.434 0.973 -0.973 c 0 -0.535 -0.434 -0.973 -0.973 -0.973" fill="#fff"/></svg>