<svg xmlns="http://www.w3.org/2000/svg" viewBox="0 0 24 24"><path d="m 22.01 17.887 c 12.719 -30.617 -40.77 -16.23 -14.797 3.766 c 4.66 3.48 12.484 3.75 14.797 -3.766" fill="#5b5f61"/><g fill="#fff"><path d="m 4.641 10.621 c -0.18 -0.184 -0.18 -0.184 -0.148 -1.813 c 0.027 -1.562 0.035 -1.641 0.223 -2.027 c 0.371 -0.754 1.156 -1.434 2.039 -1.754 c 0.551 -0.203 1.586 -0.297 2.426 -0.219 c 1.215 0.109 2.344 0.824 2.844 1.801 c 0.207 0.402 0.254 0.594 0.309 1.285 c 0.039 0.449 0.059 1.176 0.047 1.617 l -0.023 0.805 c -0.508 0.055 -1.195 0.027 -1.473 0.035 c -0.07 0 -0.16 -1.277 -0.164 -2.262 c 0.047 -1.152 -1.059 -1.531 -1.938 -1.582 c -1.168 -0.059 -1.945 0.23 -2.316 0.859 c -0.156 0.27 -0.18 0.434 -0.238 1.711 c -0.035 0.805 -0.102 1.48 -0.152 1.566 c -0.082 0.152 -0.633 0.277 -0.832 0.27 c -0.277 -0.055 -0.406 -0.094 -0.602 -0.293"/><path d="m 9.801 19.227 v -0.691 c 0 -0.668 0.012 -0.703 0.211 -0.941 c 0.168 -0.207 0.293 -0.332 0.293 -0.629 c 0 -0.313 -0.117 -0.371 -0.328 -0.594 c -0.367 -0.5 -0.406 -1.453 0 -1.801 c 0.316 -0.246 0.449 -0.617 0.156 -0.961 c -0.223 -0.262 -0.328 -0.254 -0.324 -1.07 c 0 -0.906 0.039 -1.031 0.367 -1.164 c 0.125 -0.047 1.645 -0.074 4.367 -0.074 c 1.426 0.074 3.906 -0.18 4.398 0.195 c 0.313 0.277 0.414 0.582 0.41 1.242 c 0 0.441 -0.016 0.625 -0.137 0.785 c -0.371 0.488 -0.184 0.805 0 1.094 c 0.195 0.309 0.246 1.281 -0.004 1.711 c -0.359 0.609 -0.324 0.848 -0.004 1.297 c 0.117 0.238 0.148 0.434 0.148 0.945 v 0.645 c -0.176 0.18 -0.352 0.359 -0.527 0.539 c -2.824 0 -5.648 0 -8.473 0 c -0.516 -0.508 -0.109 -0.105 -0.555 -0.527"/></g><path d="m 14.08 18.609 c -0.152 -0.176 -0.121 -0.504 0.043 -0.559 c 0.082 -0.027 0.234 -0.168 0.336 -0.313 c 0.211 -0.297 0.219 -0.547 0.035 -1.09 c -0.086 -0.25 -0.113 -0.273 -0.215 -0.207 c -0.063 0.043 -0.133 0.141 -0.152 0.215 c -0.047 0.184 -0.344 0.391 -0.566 0.391 c -0.145 0 -0.207 -0.047 -0.262 -0.195 c -0.07 -0.25 0.043 -0.352 0.23 -0.406 c 0.156 0 0.266 -0.363 0.266 -0.879 c 0 -0.453 -0.023 -0.566 -0.211 -0.957 c -0.25 -0.523 -0.594 -0.953 -0.738 -0.918 c -0.055 0.016 -0.148 0.148 -0.203 0.301 c -0.133 0.469 -0.379 0.277 -0.434 -0.055 c -0.043 -0.277 -0.152 -0.332 -0.277 -0.141 c -0.16 0.242 -0.016 1.516 0.141 1.848 c 0.09 0.195 -0.059 0.438 -0.148 0.547 c -0.121 0.152 -0.258 0.07 -0.52 -0.305 c -0.23 -0.328 -0.238 -0.555 -0.035 -0.855 l 0.156 -0.23 l -0.125 -0.195 c -0.352 -0.563 -0.121 -1.422 0.449 -1.656 c 0.137 -0.059 0.223 -0.051 0.348 0.031 c 0.16 0.105 0.172 0.098 0.449 -0.273 c 0.156 -0.207 0.309 -0.375 0.34 -0.375 c 0.145 0 0.148 0.012 1.07 1.719 c 0.168 0.309 0.473 0.777 0.676 1.035 c 0.363 0.473 0.371 0.477 0.66 0.449 c 0.289 -0.043 0.289 -0.055 0.309 0.289 c 0.02 0.328 0.012 0.344 -0.375 0.727 c -0.164 0.164 -0.172 0.191 -0.102 0.383 c 0.066 0.184 0.094 0.199 0.293 0.148 c 0.285 -0.066 0.617 -0.309 1.066 -0.785 c 0.492 -0.523 0.938 -0.828 1.375 -0.945 c 0.199 -0.055 0.387 -0.098 0.41 -0.102 c 0.105 -0.004 0.031 0.297 -0.121 0.473 c -0.578 0.68 -0.867 1.051 -1.195 1.52 c -0.477 0.68 -0.684 0.813 -1.316 0.82 c -0.449 0.004 -0.508 0.023 -0.719 0.23 c -0.414 0.406 -0.688 0.5 -0.938 0.316" fill="#5b5f61"/></svg>