<svg xmlns="http://www.w3.org/2000/svg" viewBox="0 0 24 24"><path d="m 0.277 14.738 c 1.488 9.688 14.707 12.281 20.543 5.363 c 5.137 -5.137 3.855 -14.973 -2.445 -18.344 c -7.238 -4.512 -17.781 1.066 -18.359 10.05 c -0.059 0.984 0.027 1.977 0.262 2.934" fill="#cfccc8"/><g fill="#272727"><path d="m 10.898 14.12 c -0.395 -0.125 -0.832 -0.535 -0.984 -0.922 c -0.109 -0.277 -0.09 -0.668 0.047 -0.938 c 0.152 -0.301 0.52 -0.656 0.82 -0.809 c 0.133 -0.063 0.207 -0.082 0.363 -0.09 c 0.527 -0.023 0.965 0.273 1.23 0.836 c 0.121 0.258 0.094 0.531 -0.02 0.711 c -0.098 0.219 -0.266 0.164 -0.484 0.168 c -0.363 0.012 -0.766 0.063 -0.91 0.117 c -0.035 0.016 -0.078 0.043 -0.098 0.066 c 0.148 0.289 0.52 0.23 0.777 0.145 c 0.098 -0.043 0.172 -0.055 0.41 -0.055 c 0.266 0 0.285 0.004 0.301 0.055 c 0.039 0.148 -0.105 0.371 -0.34 0.523 c -0.359 0.23 -0.766 0.301 -1.113 0.191 m 0.773 -1.875 c -0.621 -0.547 -1.152 0.289 -0.93 0.387 c 0.719 -0.188 0.961 0.254 0.93 -0.387"/><path d="m 7.855 18.785 c -1.191 -0.594 -2.25 -1.516 -2.973 -2.586 c -1.172 -2.07 -1.441 -4.242 -0.664 -6.234 c 0.688 -1.734 2.145 -3.293 3.754 -4.02 c 0.816 -0.367 1.398 -0.527 2.426 -0.668 c 2.32 -0.207 3.891 0.418 5.355 1.551 c 0.664 0.512 0.676 0.793 0.719 0.793 c 0.063 0 0.113 -0.254 0.203 -1 c 0.094 -0.809 0.133 -0.965 0.285 -1.164 c 0.148 -0.195 0.504 -0.336 0.766 -0.305 c 0.32 0.035 0.59 0.199 0.852 0.508 c 0.379 0.68 0.18 4.82 0.18 6.699 c -0.07 2.387 0.094 5.738 -0.238 6.723 c -0.27 0.266 -0.461 0.379 -0.711 0.426 c -0.43 0.078 -0.93 -0.188 -1.121 -0.598 c -0.281 -0.629 -0.027 -1.07 -0.238 -1.691 c -0.109 -0.113 -0.219 0.059 -0.293 0.141 c -0.449 0.492 -1.668 1.262 -2.715 1.715 c -1.867 0.746 -3.996 0.488 -5.586 -0.293 m 6.723 -2.551 c 0.285 -0.238 0.777 -0.75 0.984 -1.016 c 0.75 -1.145 1.195 -2.215 1 -3.57 c -0.16 -1.01 -0.605 -1.883 -1.367 -2.688 c -1.098 -1.156 -2.602 -1.734 -4.23 -1.617 c -2.449 0.176 -4.422 1.992 -4.77 4.395 c -0.055 0.359 -0.039 1.168 0.023 1.508 c 0.254 1.367 1.063 2.555 2.293 3.363 c 0.605 0.398 1.395 0.695 2.066 0.777 c 1.449 0.094 2.977 -0.316 4 -1.152"/><path d="m 7.25 14.12 c -0.223 -0.188 -0.254 -0.406 -0.254 -1.836 c -0.004 -1.691 0.02 -1.758 0.574 -1.789 c 0.473 -0.023 1.066 0.059 1.309 0.18 c 0.273 0.137 0.508 0.27 0.641 0.574 c 0.051 0.117 0.047 0.293 0.051 0.453 c 0 0.25 -0.063 0.391 -0.293 0.648 c -0.184 0.211 -0.238 0.313 -0.215 0.406 c 0.043 0.18 0.156 0.359 0.582 0.91 c 0.066 0.082 0.117 0.168 0.117 0.195 c 0 0.078 -0.148 0.281 -0.219 0.297 c -0.152 0.039 -0.367 -0.133 -0.867 -0.688 c -0.59 -0.656 -0.652 -0.711 -0.781 -0.648 c -0.102 0.051 -0.148 0.191 -0.188 0.582 c -0.047 0.422 -0.094 0.602 -0.184 0.711 c -0.086 0.102 -0.152 0.102 -0.273 0.004 m 1.344 -2.145 c 0.195 -0.094 0.348 -0.289 0.25 -0.453 c -0.125 -0.203 -0.406 -0.316 -0.789 -0.324 c -0.219 -0.004 -0.246 0 -0.285 0.051 c -0.055 0.066 -0.09 0.379 -0.063 0.566 c 0.027 0.215 0.125 0.262 0.488 0.25 c 0.203 -0.008 0.258 -0.02 0.398 -0.09"/><path d="m 13.77 14.13 c -0.18 -0.051 -0.32 -0.133 -0.512 -0.289 c -0.176 -0.145 -0.391 -0.391 -0.461 -0.535 c -0.066 -0.125 -0.102 -0.391 -0.086 -0.59 c 0.035 -0.391 0.168 -0.672 0.449 -0.953 c 0.43 -0.434 0.902 -0.523 1.402 -0.273 c 0.176 0.09 0.277 0.09 0.402 -0.008 c 0.133 -0.105 0.207 -0.121 0.313 -0.063 c 0.168 0.09 0.195 0.188 0.203 0.727 c 0.016 0.629 -0.055 1.445 -0.148 1.793 c -0.031 0.109 -0.125 0.227 -0.184 0.227 c -0.02 0 -0.09 -0.047 -0.156 -0.102 c -0.16 -0.133 -0.23 -0.133 -0.492 -0.008 c -0.262 0.113 -0.453 0.125 -0.73 0.074 m 0.633 -0.648 c 0.141 -0.074 0.309 -0.262 0.348 -0.395 c 0.047 -0.23 0.039 -0.5 -0.043 -0.68 c -0.125 -0.281 -0.371 -0.449 -0.664 -0.445 c -0.277 0 -0.461 0.121 -0.598 0.398 c -0.238 0.484 -0.109 0.914 0.34 1.133 c 0.219 0.078 0.402 0.07 0.617 -0.012"/></g></svg>