<svg xmlns="http://www.w3.org/2000/svg" viewBox="0 0 24 24"><path d="m 12.227 23.988 c -2.473 0.055 -5.371 -0.848 -7.391 -2.301 c -2.457 -1.766 -4.25 -4.672 -4.734 -7.664 c -0.574 -3.957 1.742 -8.5 4.355 -10.805 c 1.316 -1.129 3.055 -2.094 4.688 -2.602 c 4.246 -1.324 8.68 -0.051 11.715 3.363 c 1.82 2.047 2.766 4.203 2.992 6.836 c 0.277 3.156 -0.977 6.695 -3.262 9.223 c -2.602 2.426 -5.273 3.867 -8.363 3.953" fill="#02959a"/><path d="m 236.39 172.05 c -9.01 -3.137 -53.14 -16.561 -61.883 -18.861 c -18.375 -4.768 -31.67 -3.555 -69.833 6.315 c -9.982 2.551 -24.07 6.482 -31.27 8.699 c -16.299 4.977 -18.949 4.6 -26.325 -3.931 c -8.127 -9.41 -12.1 -20.03 -13.295 -35.423 c -0.839 -12.672 1.458 -3.388 7.288 3.22 c 6.05 9.201 3.401 -3.764 3.401 -8.07 c 0 -6.566 0.309 -12.881 0.618 -14.05 c 0.353 -1.506 2.518 -2.969 6.626 -4.517 c 6.493 -2.426 4.02 0.627 4.02 5.604 c 0 3.597 6.67 10.246 7.995 10.246 c 0.751 0 2.518 -3.262 4.02 -7.277 c 1.458 -4.01 4.02 -9.744 5.698 -12.756 c 2.915 -5.269 0.133 -7.653 9.717 -11.375 c 9.938 -6.273 7.686 2.175 7.995 10.664 c 0 2.01 2.474 0.084 13.472 -10.455 c 6.891 -6.566 3.666 -6.859 8.878 -9.03 c 8.525 -3.638 8.437 -4.893 6.714 2.175 c -0.53 7.07 1.502 13.968 7.73 6.273 c 1.369 -1.756 5.389 -8.448 8.967 -14.93 c 8.525 -9.368 9.452 -5.98 23.587 -0.167 c 7.818 3.01 8.613 -0.46 14.532 6.06 c 7.774 8.615 11.882 10.163 7.951 3.01 c -0.839 -1.464 -1.502 -3.262 -1.546 -3.973 c -0.044 -2.258 7.2 1.631 10.203 5.395 c 5.61 7.11 14.62 16.478 17.712 18.36 c 4.108 2.509 4.196 1.046 0.574 -7.486 c -2.474 -6.357 -4.02 -7.611 2.827 -5.228 c 3.622 1.296 5.919 3.262 10.115 8.657 c 7.2 9.201 10.07 9.243 6.67 0.042 c -0.795 -2.217 0.486 -2.175 6.095 0.335 c 4.373 1.966 4.638 2.342 6.802 9.995 c 1.237 4.349 2.562 11.794 2.959 16.478 c 1.413 4.349 -1.988 12.04 3.048 5.479 c 1.325 -1.715 4.594 -7.361 7.332 -12.588 c 2.694 -5.228 5.3 -9.535 5.742 -9.535 c 0.442 0 1.811 1.046 3.048 2.3 c 2.076 2.175 2.164 3.137 1.723 17.189 c -0.442 14.261 -0.618 15.181 -3.931 22.291 c -2.253 4.684 -6.01 10.04 -10.38 14.679 c -7.156 7.611 -9.187 8.448 -15.592 6.231" transform="matrix(0.08844 0 0 0.0934 -1.183 -1.82)" fill="#03580b" stroke="#02959a" stroke-width="1.059"/><path d="m 145.05 165.61 c 0 3.084 -6.67 5.564 -14.888 5.564 c -8.218 0 -14.927 -2.479 -14.927 -5.564 c 0 -3.054 6.709 -5.564 14.927 -5.564 c 8.218 0 14.888 2.51 14.888 5.564" transform="matrix(0.09839 0 0 0.12919 -0.526 -5.938)" stroke="#000"/><g transform="matrix(0.08844 0 0 0.0934 -1.183 -1.82)"><path d="m 142.18 269.66 l -5.04 -0.418 c -17.712 -11.04 -9.232 -7.695 -17.668 -11.501 l -15.592 -14.177 c -10.601 -9.619 -15.813 -14.93 -16.21 -16.478 c -0.795 -2.76 0.928 -17.9 2.606 -22.96 c 1.678 -5.02 1.546 -7.528 -0.442 -9.159 c -2.12 -1.756 -2.12 -2.384 0 -7.57 c 1.678 -4.057 1.855 -4.224 10.336 -8.448 l 8.613 -4.308 l 1.502 -4.391 c 0.928 -4.559 4.815 -8.782 5.04 -13.299 c 2.209 -1.255 7.288 -2.175 9.806 -2.467 c 4.505 -1.296 8.657 -1.673 13.295 -2.509 c 10.778 -1.924 29.417 -1.631 32.29 0.544 c 6.184 1 12.1 2.677 17.09 4.768 c 4.505 1.756 4.373 2.802 5.919 11.25 c 1.458 8.281 2.297 9.828 5.875 11.501 c 1.811 0.836 3.843 2.342 4.55 3.304 c 2.562 3.555 8.569 32.704 8.922 43.12 c 0.133 4.349 -0.133 5.06 -2.871 8.49 c -5.654 7.03 -24.78 22.625 -36.838 29.986 c -6.272 3.806 -6.714 3.973 -14.62 4.684 c -8.613 0.753 -8.657 0.753 -16.564 0.042 m 30.566 -49.935 c 18.11 -1.84 25.13 -6.399 25.13 -16.31 c 0 -6.942 -3.975 -8.573 -15.239 -6.19 c -14.885 3.137 -32.598 4.809 -54.51 5.102 c -4.947 0.042 -8.967 0.293 -8.967 0.502 c 0 0.251 1.148 2.049 2.562 4.098 c 2.429 3.471 2.518 3.764 1.237 5.395 c -0.707 0.962 -1.325 2.133 -1.325 2.593 c 0 0.962 17.14 4.935 24.735 5.688 c 5.786 0.585 15.02 0.293 26.37 -0.878 m -23.278 -33.457 c 0.442 -8.908 -12.06 -5.311 -14.753 -4.726 c -3.18 0.627 3.313 2.258 6.979 3.973 c 2.871 1.338 7.686 2.342 7.774 0.753 m 10.645 -5.144 c -4.903 -1.84 -5.212 2.01 -4.24 5.855 c 16.475 -1.087 16.03 -5.228 4.24 -5.855" fill="#fbc9a5" stroke="#fbc9a5" stroke-width="0.801"/><path d="m 145.18 220.86 c -11.573 -1.171 -20.937 -3.471 -21.29 -5.186 c -0.221 -1.129 0.574 -1.422 4.373 -1.631 c 4.638 -0.251 6.14 -1.715 2.297 -2.217 c -3.534 -0.418 -6.891 -2.01 -7.818 -3.68 c -0.486 -0.92 -0.795 -1.756 -0.618 -1.924 c 0.133 -0.125 9.364 -0.669 20.451 -1.213 c 19.612 -0.92 25.53 -1.589 40.548 -4.642 c 3.975 -0.795 7.818 -1.255 8.525 -0.962 c 2.694 0.962 1.193 3.053 -3.931 5.562 c -2.915 1.38 -5.256 2.927 -5.256 3.429 c 0 0.92 0.133 0.878 8.08 -1.422 c 2.739 -0.836 5.3 -1.213 5.654 -0.878 c 1.193 1.129 -2.739 6.733 -6.316 9.08 c -14.62 5.855 -31.847 6.859 -44.7 5.688" fill="#fff" stroke="#fff" stroke-width="0.858"/><path d="m 73.67 209.31 c -4.859 -9.828 -13.163 -30.28 -13.737 -33.708 c -0.442 -2.551 -0.309 -2.677 3.224 -3.555 c 20.23 -6.273 27.518 -8.322 40.46 -12.295 c 1.06 -0.376 4.373 -1.046 3.092 3.01 c -3.401 10.372 -1.943 11.292 -8.613 15.683 c -7.421 4.851 -11.573 6.775 -12.765 11.334 c -0.53 1.882 -2.032 7.611 -2.474 9.159 c 1.016 8.699 -0.265 13.466 -2.562 19.572 c -1.458 -2.426 -5.08 -6.148 -6.626 -9.201" fill="#fbc9a5" stroke="#fbc9a5" stroke-width="0.825"/></g><g fill="#fbc9a5" stroke="#fbc9a5"><path d="m 195.92 190.09 c -1.792 -13.667 -4.167 -23.75 -6.292 -26.417 c -0.917 -1.167 -4.583 -3.458 -8.167 -5.125 c -3.75 -1.75 -6.667 -3.583 -6.917 -4.417 c -0.833 -2.75 -2.042 -12.875 -1.625 -13.292 c 1.167 -1.125 2.25 -0.375 4.625 7.792 l 1.542 5.208 l 7.417 2.958 c 5.667 2.25 8.25 2.167 8.792 3.583 c 0.917 2.417 5.333 19.834 6.25 24.75 c 0.75 3.958 -1.083 11.125 -3.208 14.08 c -0.917 1.25 -1.25 0.042 -2.417 -9.125" transform="scale(0.09375 0.09375)" stroke-width="0.79"/><path d="m 232.06 187.61 l -2.12 -7.904 l -9.497 -4.642 c -8.878 -4.391 -9.541 -4.893 -10.07 -7.653 c -0.353 -1.631 -0.53 -3.01 -0.486 -3.095 c 0.618 -0.585 33.13 8.615 33.13 9.41 c 0 1.338 -6.449 17.314 -7.774 19.823 c -3.18 -1.338 -1.943 -1.464 -3.18 -5.939" transform="matrix(0.08844 0 0 0.0934 -1.183 -1.82)" stroke-width="0.857"/></g><g fill="#8fed8f" stroke="#8fed8f" transform="matrix(0.08844 0 0 0.0934 -1.183 -1.82)"><path d="m 179.72 142.86 c -3.357 -1.631 -2.297 -4.768 5.212 -15.1 c 2.385 -3.262 4.55 -5.73 4.859 -5.437 c 0.265 0.293 0.883 1.924 1.369 3.638 c 1.546 5.52 7.995 11.919 11.97 11.961 c 7.818 0 16.785 -9.03 16.829 -16.938 c 0.044 -3.597 0.839 -4.057 4.329 -2.426 c 3.357 1.547 4.77 3.638 4.152 6.06 c -0.618 2.342 -7.862 9.493 -12.147 11.961 c -5.04 2.886 -11.793 4.935 -20.19 6.106 c -8.26 1.171 -14.13 1.255 -16.387 0.167" stroke-width="0.655"/><path d="m 196.2 120.9 c -0.839 -1.38 -0.839 -1.966 -0.133 -3.471 c 1.104 -2.3 4.55 -4.851 7.244 -5.353 c 2.341 -0.46 8.79 0.585 10.424 1.673 c 2.739 1.798 3.445 5.479 1.678 9.117 c -1.237 2.635 -3.136 2.76 -3.136 0.251 c 0 -5.855 -7.553 -11.166 -9.497 -6.691 c -0.398 0.878 -0.883 2.384 -1.104 3.304 c -0.751 2.133 -2.739 3.22 -4.461 4.768 c -5.963 2.969 0 -1.798 -1.016 -3.597" stroke-width="0.642"/></g><g fill="#40dbdf" stroke="#40dbdf"><path d="m 17.624 95.42 l -5.917 -9.667 l 9.542 -17.792 l 12.292 -17.459 l -6.167 23.542 c -1.042 4 -4.333 12.75 -3.375 17.917 c 1 5.167 -0.042 12.625 -0.208 12.792 c -0.167 0.167 -2.958 -4.04 -6.167 -9.333" transform="scale(0.09375 0.09375)" stroke-width="0.901"/><g transform="matrix(0.08844 0 0 0.0934 -1.183 -1.82)"><path d="m 60.682 114.59 c -3.975 -15.39 -5.521 -32.997 -0.353 -49.1 c 3.269 -10.288 7.686 -13.13 17.315 -19.614 c 8.613 -5.771 19.435 -11.835 20.05 -11.208 c 0.177 0.167 -3.136 4.642 -7.421 9.912 c -7.951 9.828 -9.05 12.09 -5.963 12.09 c 1.546 0 11.175 -2.969 17.271 -5.353 c 1.502 -0.585 1.104 0.251 -1.502 3.388 l -4.859 18.945 l -7.332 -7.361 c -5.477 -5.479 -7.597 -7.07 -9.85 -4.308 c -7.73 9.493 -12.721 23.922 -15.371 44.41 c -0.883 7.07 -1.59 9.828 -1.988 8.197" stroke-width="0.971"/><path d="m 94.34 92.72 c 0 -0.293 1.811 -4.6 4.064 -9.535 c 5.61 -12.546 8.746 -22.333 12.544 -39.438 c 1.811 -8.07 3.445 -15.181 3.622 -15.808 c 0.353 -1.213 14.753 -4.851 15.68 -3.931 c 0.353 0.293 -0.663 3.555 -2.209 7.193 c -4.594 10.79 -7.995 20.07 -7.553 20.492 c 0.221 0.209 1.988 -0.711 3.887 -2.049 c 1.943 -1.338 3.666 -2.258 3.887 -2.049 c 0.221 0.209 -1.104 15.307 -1.943 17.272 c -1.413 3.22 -1.193 -9.828 -4.815 -9.828 c -3.843 0 -4.108 0.209 -6.537 5.144 c -4.859 9.995 -18.993 33.08 -20.23 33.08 c -0.221 0 -0.398 -0.251 -0.398 -0.544" stroke-width="1.01"/><path d="m 126.58 78.33 c 4.726 -15.808 7.686 -31.03 8.437 -43.578 c 0.486 -7.277 1.281 -12.09 2.076 -12.295 c 3.401 -0.836 13.914 -1.338 13.384 -0.627 c -1.104 1.506 -6.714 24.716 -6.14 25.22 c 0.353 0.251 1.767 0.209 2.429 -0.795 c 6.361 -9.912 2.253 10.288 2.253 10.79 c 0 1.38 -3.18 -7.07 -5.08 -6.566 c -0.928 0.209 -3.224 4.475 -5.168 9.41 c -4.02 10.497 -12.854 27.811 -14.09 27.811 c -0.486 0 0.353 -4.224 1.899 -9.368" stroke-width="1.102"/><path d="m 173.54 72.31 c -1.678 -3.806 -4.152 -9.535 -5.521 -12.714 c -2.474 -5.771 -6.184 -6.901 -7.862 -4.851 c -8.304 10.121 -2.694 -7.528 -2.739 -9.744 c 0 -0.962 0.618 2.886 2.429 4.098 c 1.369 0.92 2.871 1.506 3.357 1.296 c 0.486 -0.167 -0.618 -6.733 -2.474 -14.554 c -1.855 -7.821 -3.18 -14.387 -3 -14.596 c 0.574 -0.585 14.311 0.92 15.504 1.673 c 0.795 0.502 0.839 4.098 0.177 12.588 c -1.016 12.797 -0.265 24.34 2.341 35.883 c 0.883 3.889 1.458 7.235 1.237 7.444 c -0.177 0.209 -1.723 -2.76 -3.445 -6.524" stroke-width="1.01"/></g><g stroke-width="0.901" transform="scale(0.09375 0.09375)"><path d="m 179.08 71.54 c -4.208 -5.792 -11.708 -19.17 -15.04 -26.834 c -3.125 -7.208 -5.583 -8.917 -6.583 -4.583 c -0.667 2.708 -1.292 1.833 -2.667 -3.583 c -0.583 -2.208 -1.292 -4.875 -1.542 -5.833 c -0.333 -1.25 0.333 -0.833 2.208 1.333 c 1.5 1.75 3 2.833 3.375 2.5 c 0.375 -0.375 0.042 -3.833 -0.792 -7.667 c -2.083 -9.625 -3.292 -17.17 -3.292 -20.334 c 0 -2.542 0.083 -2.625 3.375 -2.125 c 3.458 0.583 18.917 5.5 19.75 6.333 c 0.25 0.25 -0.167 2.625 -0.917 5.25 c -4.958 17.792 -4.083 30.17 3.625 51.876 c 1.292 3.583 2.083 6.792 1.833 7.04 c -0.292 0.292 -1.792 -1.208 -3.333 -3.375"/><path d="m 198.46 74.42 c -1.292 -2.542 -4.542 -10.5 -7.208 -17.709 c -2.667 -7.208 -5.083 -13.334 -5.375 -13.625 c -0.25 -0.25 -2.083 5.792 -2.833 6.417 c -1.083 0.875 -0.542 -5.208 -1.667 -7.417 c -1.958 -3.792 -1.792 -4.167 0.958 -2 c 1.292 1.042 2.625 1.875 2.958 1.875 c 0.333 0 -0.542 -6.542 -1.917 -14.584 c -1.375 -8 -2.333 -14.75 -2.083 -14.959 c 0.375 -0.417 10.458 5 15.875 8.583 c 3.125 2.042 3.208 2.25 2.542 5.917 c -2.292 12.167 -1.75 37.17 1.042 47.792 c 1.375 5.083 0.375 5 -2.292 -0.292"/><path d="m 223.5 98.42 c 2.667 -7.542 0.417 -28.17 -2.083 -35.875 c -1.042 -3.167 -1.167 -8.25 -3.875 -8.5 c -5.04 -0.5 -7.125 -3.417 -8.417 0.833 c -2 6.458 -3.5 15.459 -4.167 0.417 c -0.375 -7.75 -0.917 -8.292 -1.208 -9.292 c -0.458 -1.708 -0.042 -1.833 6.083 -1.917 c 3.625 -0.083 5.75 -4.667 7.167 -5.25 c 2.458 -0.958 4.833 3.25 7.458 6.375 c 5.875 7 13.13 17.75 13.13 19.417 c 0 4.083 -11.08 31.875 -13.75 34.5 c -0.625 0.625 -0.708 0.375 -0.333 -0.708"/></g><g transform="matrix(0.08844 0 0 0.0934 -1.183 -1.82)"><path d="m 273.23 144.32 c -0.088 -24.382 0.265 -40.985 0.839 -40.19 c 2.606 3.388 7.244 21.329 8.127 31.32 c 1.413 15.474 -0.618 30.571 -6.626 44.958 l -7.951 19.15 c 1.06 -16.812 4.594 -38.434 5.61 -55.25" stroke-width="1.025"/><path d="m 20.05 181.38 c -5.61 -19.321 -5.61 -33.12 -0.044 -54.24 l 2.12 -8.113 l 0.574 14.888 c 0.309 8.197 9.541 26.891 9.982 29.819 c 0.53 3.806 -8.216 -4.433 -8.967 -4.851 c -0.751 -0.46 -1.148 3.722 -1.325 14.554 l -0.265 15.181" stroke-width="0.929"/></g></g><g transform="matrix(0.08844 0 0 0.0934 -1.183 -1.82)"><g fill="#4036de" stroke="#4036de"><path d="m 213.16 227.55 c -0.353 -9.493 -5.786 -36.636 -8.437 -42.491 c -1.148 -2.467 -2.032 -3.304 -5.477 -5.102 c -3.666 -1.882 -6.01 -3.889 -7.465 -11.626 c -1.546 -7.904 -0.663 -9.326 -2.032 -9.912 c -1.988 -0.92 -0.177 -0.627 3.975 0.627 c 2.606 0.795 3.489 1.213 2.518 1.213 c -1.369 0.042 -0.309 1.422 -0.265 3.638 c 0 2.3 2.65 9.284 2.385 11.334 c 1.325 1.589 1.855 1.506 5.565 3.137 c 8.834 3.848 9.85 4.684 11.484 9.41 c 1.723 5.02 3.269 12 4.638 20.994 c 1.723 11.501 1.546 10.706 2.429 10.04 c 1.988 -0.836 -7.553 12.04 -9.05 13.634 c -0.177 0.209 -0.177 -2.927 -0.265 -4.893" stroke-width="0.514"/><path d="m 224.73 193.63 c -1.723 -6.273 -3.445 -12.04 -3.887 -12.839 c -0.53 -1 -2.959 -2.217 -8.834 -4.433 l -8.08 -3.053 l -1.413 -4.684 c -0.795 -2.593 -1.723 -5.186 -2.12 -5.73 c -0.883 -1.338 -0.751 -3.22 4.373 -0.753 l 4.991 2.342 v 2.802 c 0.088 4.642 1.148 3.931 10.513 8.07 c 4.638 2.091 8.569 5.646 8.967 6.106 c 0.398 0.46 1.502 3.597 2.474 7.03 c 0.972 3.429 2.032 6.524 2.385 6.901 c 0.398 0.46 -0.398 2.049 -2.429 4.768 c -1.678 2.217 -3.224 4.224 -3.445 4.475 c -0.221 0.251 -1.811 -4.684 -3.489 -10.999" stroke-width="0.619"/><path d="m 89.3 226.46 c 0.353 -9.368 5.521 -36.13 8.08 -41.947 c 1.06 -2.426 1.943 -3.262 5.212 -5.02 c 3.489 -1.84 8.481 -5.771 9.894 -13.383 c 0.972 -9.201 8.437 -12.254 -4.152 -7.862 c -2.518 0.795 -3.799 1.84 -2.915 1.84 c 1.369 0.042 1.413 0.125 1.413 2.342 c -0.044 2.258 -3.71 11.835 -4.108 12.17 c -0.133 0.125 -1.06 1.715 -4.594 3.346 c -8.481 3.806 -10.689 5.311 -12.235 9.995 c -1.634 4.977 -1.855 11.124 -3.136 19.991 c -1.458 3.931 0.265 10.874 -3.092 9.661 c 0 0.251 8.08 11.04 9.099 12.09 c 0.177 0.167 0.442 -1.296 0.53 -3.22" stroke-width="0.499"/><g stroke-width="0.609"><path d="m 120.93 258.29 c -2.694 -1.882 -4.594 -3.471 -4.196 -3.597 c 0.353 -0.125 0.663 -1.171 0.663 -2.384 c 0 -2.384 2.12 -14.554 2.827 -16.269 c 0.221 -0.544 0.618 -1 0.839 -1 c 0.751 0 3.092 3.848 3.799 6.19 c 0.663 2.3 1.767 20.492 1.237 20.451 c -0.133 0 -2.474 -1.547 -5.168 -3.388"/><path d="m 133.12 266.69 c -2.253 -1.673 -2.827 -2.426 -2.606 -3.429 c 0.177 -0.711 0.795 -3.429 1.325 -6.06 c 1.369 -6.524 1.855 -7.11 2.694 -3.22 c 0.663 3.01 1.899 14.303 1.634 14.637 c -0.044 0.084 -1.413 -0.795 -3.048 -1.924"/></g></g><g fill="#40dbdf" stroke="#40dbdf"><path d="m 71.64 250.63 c -2.65 -1.38 -8.746 -5.604 -9.408 -13.13 c -1.281 -14.596 -0.177 -29.359 -8.79 -53.16 c -2.694 -7.486 -4.682 -13.801 -4.417 -14.05 c 0.663 -0.544 8.878 14.14 12.456 22.291 c 1.502 3.429 3.931 10.455 5.345 15.683 c 2.871 10.288 15.11 45.753 14.576 47.76 c -1.59 0.878 -8.437 -4.726 -9.762 -5.395" stroke-width="1.021"/><path d="m 40.629 220.48 c -7.818 -10.04 -8.127 -23.838 -0.972 -41.45 l 4.903 -12.13 l 1.502 30.32 c 0.795 16.687 1.281 30.488 1.06 30.697 c -0.221 0.167 -3.136 -3.178 -6.493 -7.444" stroke-width="1.923"/><path d="m 235.68 231.9 c 0.751 -10.08 4.726 -44.08 8.569 -54.24 c 3.357 -8.866 19.877 -21.496 20.318 -21.04 c 0.928 0.962 -8.702 27.56 -11.396 34.67 c -3.401 9.03 -0.883 14.05 -3.401 25.344 c -1.458 6.691 -11.705 23.922 -13.825 23.922 c -0.53 0 -0.618 -3.262 -0.265 -8.657" stroke-width="0.939"/></g><path d="m 89.04 176.27 c 0 -0.167 0.486 -2.509 1.104 -5.186 c 1.855 -8.07 1.899 -8.322 0.883 -8.364 c -0.707 0 7.818 -2.133 8.702 -2.133 c 0.53 0 -0.177 3.722 -1.325 6.566 c -1.502 3.889 -4.064 7.151 -6.581 8.448 c -2.164 1.087 -2.783 1.255 -2.783 0.669" fill="#4036de" stroke="#4036de" stroke-width="0.41"/></g><path d="m 87.22 118.06 c 0 7.635 -6.756 13.836 -15.12 13.836 c -8.333 0 -15.09 -6.201 -15.09 -13.836 c 0 -7.635 6.756 -13.836 15.09 -13.836 c 8.365 0 15.12 6.201 15.12 13.836" transform="matrix(0.12141 0 0 0.12535 -0.816 -4.615)" fill="#ff4500" stroke="#fff"/></svg>