<svg xmlns="http://www.w3.org/2000/svg" viewBox="0 0 24 24"><path d="m 21.527 18.359 c 8.629 -12.273 -7.309 -24.711 -17.473 -14.711 c -9.578 9.426 -0.699 24.07 11.219 19.488 c 2.488 -0.953 4.672 -2.523 6.254 -4.777" fill="#685a5b"/><path d="m 4.992 11.957 v -6.172 h 13.445 v 12.344 h -13.445" fill="#f4f4f4"/><g stroke-opacity="0.996" stroke="#000" fill-opacity="0.996" stroke-width="0.712" transform="matrix(0.09059 0 0 0.08939 11.04 -63.25)"><path d="m -51.05 900.71 v -5.069 l -4.312 -4.37 v -6.992 c 0 -7.298 -0.474 -10.1 -1.94 -11.144 c -0.561 -0.437 -2.113 -0.612 -4.571 -0.524 l -3.708 0.131 v -2.928 h 146.74 v 10.01 c 0 5.506 -0.172 13.591 -0.345 18 c -0.345 7.298 -0.431 7.997 -1.337 7.997 c -0.906 0 -0.992 -0.481 -0.992 -4.982 v -4.938 l -3.02 -2.316 l -2.975 -2.316 l 0.345 -7.254 c 0.388 -7.823 0.086 -9.44 -1.983 -10.401 c -1.94 -0.961 -5.217 -0.743 -6.511 0.437 c -1.078 0.961 -1.164 1.617 -1.509 15.776 c -0.216 8.128 -0.431 15.03 -0.431 15.383 c -0.043 0.306 -0.733 0.612 -1.595 0.612 h -1.509 l -0.345 -5.419 c -0.216 -2.972 -0.388 -9.09 -0.388 -13.547 c -0.043 -8.828 -0.431 -11.93 -1.768 -13.11 c -1.164 -1.01 -4.139 -0.918 -6.252 0.175 l -1.639 0.874 v 16.257 l -4.829 5.069 v 9.702 h -3.751 v -4.851 c 0 -4.807 -0.043 -4.851 -1.811 -6.73 c -2.156 -2.272 -2.501 -3.889 -2.501 -12.236 c 0 -3.234 -0.259 -6.468 -0.517 -7.167 c -0.474 -1.093 -0.819 -1.224 -2.544 -1.093 c -2.63 0.175 -2.717 0.612 -2.803 10.488 l -0.043 7.954 l -2.156 1.879 l -2.156 1.835 v 9.92 h -3.751 v -9.92 l -2.156 -1.835 l -2.156 -1.879 l -0.043 -7.954 c -0.086 -9.877 -0.172 -10.314 -2.803 -10.488 c -1.725 -0.131 -2.07 0 -2.501 1.093 c -0.302 0.699 -0.561 4.807 -0.561 9.177 v 7.91 l -2.156 2.054 l -2.156 2.098 v 9.745 h -3.751 v -9.877 l -2.415 -2.141 l -2.415 -2.098 v -16.912 l -1.552 -0.787 c -0.862 -0.481 -2.544 -0.83 -3.751 -0.83 c -3.708 0 -3.795 0.219 -4.355 16.344 c -0.302 7.779 -0.517 14.596 -0.561 15.208 c 0 0.874 -0.302 1.093 -1.595 1.093 c -1.552 0 -1.639 -0.087 -1.682 -2.316 c -0.517 -25.696 -0.733 -28.362 -1.983 -29.498 c -1.768 -1.573 -5.261 -1.398 -6.942 0.306 c -1.164 1.267 -1.207 1.661 -1.207 9.352 v 7.997 l -2.415 2.141 l -2.458 2.098 v 9.92 h -1.595 c -1.595 0 -1.595 -0.044 -1.639 -2.797 c -0.086 -5.03 -0.733 -7.473 -2.501 -9.483 l -1.682 -1.879 l -0.345 -8.434 c -0.302 -6.599 -0.561 -8.565 -1.207 -9.221 c -1.121 -1.136 -2.975 -1.049 -4.183 0.131 c -0.862 0.874 -1.035 2.054 -1.25 9.308 l -0.216 8.347 l -2.328 2.054 l -2.328 2.01 l 0.345 4.982 l 0.302 4.982 h -2.846"/><path d="m -51.786 855 v -5.069 l -4.312 -4.37 v -6.992 c 0 -7.298 -0.474 -10.1 -1.897 -11.144 c -0.561 -0.437 -2.156 -0.612 -4.571 -0.524 l -3.708 0.131 v -2.928 h 146.69 v 10.01 c 0 5.506 -0.129 13.591 -0.345 18 c -0.302 7.298 -0.431 7.997 -1.337 7.997 c -0.906 0 -0.992 -0.481 -0.992 -4.982 v -4.938 l -3.02 -2.316 l -2.975 -2.316 l 0.345 -7.254 c 0.388 -7.823 0.086 -9.44 -1.94 -10.401 c -1.983 -0.961 -5.261 -0.743 -6.554 0.437 c -1.078 0.961 -1.121 1.617 -1.509 15.776 c -0.216 8.128 -0.431 15.03 -0.431 15.383 c -0.043 0.306 -0.733 0.612 -1.552 0.612 h -1.552 l -0.345 -5.419 c -0.172 -2.972 -0.345 -9.09 -0.388 -13.547 c 0 -8.828 -0.431 -11.93 -1.768 -13.11 c -1.121 -1.01 -4.139 -0.918 -6.209 0.175 l -1.639 0.874 v 16.257 l -2.458 2.535 l -2.415 2.535 v 9.702 h -3.751 v -4.851 c 0 -4.807 0 -4.851 -1.811 -6.73 c -2.156 -2.272 -2.501 -3.889 -2.501 -12.236 c 0 -3.234 -0.216 -6.468 -0.517 -7.167 c -0.474 -1.093 -0.819 -1.224 -2.544 -1.093 c -2.587 0.175 -2.717 0.612 -2.76 10.488 l -0.086 7.954 l -2.156 1.879 l -2.113 1.835 v 9.92 h -3.795 v -9.92 l -2.156 -1.835 l -2.113 -1.879 l -0.086 -7.954 c -0.043 -9.877 -0.172 -10.314 -2.76 -10.488 c -1.725 -0.131 -2.07 0 -2.544 1.093 c -0.302 0.699 -0.561 4.807 -0.561 9.177 v 7.91 l -2.113 2.054 l -2.156 2.098 v 9.745 h -3.751 v -9.877 l -2.458 -2.141 l -2.415 -2.098 v -16.912 l -1.552 -0.787 c -0.862 -0.481 -2.544 -0.83 -3.751 -0.83 c -3.708 0 -3.751 0.219 -4.355 16.344 c -0.259 7.779 -0.517 14.596 -0.517 15.208 c 0 0.874 -0.302 1.093 -1.639 1.093 c -1.552 0 -1.595 -0.087 -1.639 -2.272 c -0.561 -25.74 -0.733 -28.406 -1.983 -29.542 c -1.768 -1.573 -5.304 -1.398 -6.942 0.306 c -1.207 1.267 -1.25 1.661 -1.25 9.352 v 7.997 l -2.415 2.141 l -2.415 2.098 v 9.92 h -1.639 c -1.595 0 -1.595 -0.044 -1.639 -2.797 c -0.086 -5.03 -0.69 -7.473 -2.501 -9.483 l -1.682 -1.879 l -0.345 -8.434 c -0.302 -6.599 -0.517 -8.565 -1.207 -9.221 c -1.121 -1.136 -2.975 -1.049 -4.183 0.131 c -0.862 0.874 -1.035 2.054 -1.207 9.308 l -0.259 8.347 l -2.328 2.054 l -2.285 2.01 l 0.604 9.964 h -2.846"/><path d="m -51.786 807.15 v -5.069 l -4.312 -4.37 v -7.04 c 0 -7.254 -0.474 -10.05 -1.897 -11.1 c -0.561 -0.437 -2.156 -0.612 -4.571 -0.524 l -3.708 0.131 v -2.928 h 146.69 v 10.01 c 0 5.463 -0.129 13.591 -0.345 17.961 c -0.302 7.342 -0.431 7.997 -1.337 7.997 c -0.906 0 -0.992 -0.437 -0.992 -4.938 v -4.938 l -3.02 -2.316 l -2.975 -2.316 l 0.345 -7.254 c 0.388 -7.823 0.086 -9.44 -1.94 -10.401 c -1.983 -0.961 -5.261 -0.743 -6.554 0.437 c -1.078 0.961 -1.121 1.617 -1.509 15.776 c -0.216 8.128 -0.431 15.03 -0.431 15.383 c -0.043 0.306 -0.733 0.568 -1.552 0.568 h -1.552 l -0.345 -5.375 c -0.172 -2.972 -0.345 -9.09 -0.388 -13.547 c 0 -8.828 -0.431 -11.93 -1.768 -13.11 c -1.121 -1.01 -4.139 -0.918 -6.209 0.175 l -1.639 0.874 v 16.257 l -2.458 2.535 l -2.415 2.535 v 9.702 h -3.751 v -4.851 c 0 -4.807 0 -4.851 -1.811 -6.73 c -2.156 -2.272 -2.501 -3.889 -2.501 -12.236 c 0 -3.234 -0.216 -6.468 -0.517 -7.167 c -0.474 -1.093 -0.819 -1.224 -2.544 -1.093 c -2.587 0.175 -2.717 0.612 -2.76 10.488 l -0.086 7.954 l -2.156 1.835 l -2.113 1.879 v 9.92 h -3.795 v -9.92 l -2.156 -1.879 l -2.113 -1.835 l -0.086 -7.954 c -0.043 -9.877 -0.172 -10.314 -2.76 -10.488 c -1.725 -0.131 -2.07 0 -2.544 1.093 c -0.302 0.699 -0.561 4.807 -0.561 9.177 v 7.866 l -2.113 2.098 l -2.156 2.098 v 9.745 h -3.751 v -9.92 l -2.458 -2.098 l -2.415 -2.141 v -16.869 l -1.552 -0.83 c -0.862 -0.437 -2.544 -0.787 -3.751 -0.787 c -3.708 0 -3.751 0.219 -4.355 16.344 c -0.259 7.779 -0.517 14.596 -0.517 15.208 c 0 0.874 -0.302 1.093 -1.639 1.093 c -1.552 0 -1.595 -0.087 -1.639 -2.316 c -0.561 -25.696 -0.733 -28.362 -1.983 -29.498 c -1.768 -1.573 -5.304 -1.398 -6.942 0.306 c -1.207 1.224 -1.25 1.617 -1.25 9.352 v 7.997 l -2.415 2.141 l -2.415 2.098 v 9.877 h -1.639 c -1.595 0 -1.595 0 -1.639 -2.753 c -0.086 -5.069 -0.69 -7.473 -2.501 -9.483 l -1.682 -1.923 l -0.345 -8.391 c -0.302 -6.599 -0.517 -8.565 -1.207 -9.221 c -1.121 -1.136 -2.975 -1.093 -4.183 0.131 c -0.862 0.83 -1.035 2.054 -1.207 9.308 l -0.259 8.347 l -2.328 2.01 l -2.285 2.054 l 0.302 4.982 l 0.302 4.938 h -2.846"/></g><path d="m 10.01 864.5 l -1.018 -12.726 l -11.03 -6.394 l 11.782 -4.882 l 2.676 -12.505 l 8.291 9.733 l 12.713 -1.323 l -6.691 10.867 l 5.178 11.686 l -12.422 -2.992" transform="matrix(0.13428 0 0 0.12401 9.04 -93.48)" stroke-opacity="0.973" fill="#ff0" stroke="#ff4500" fill-opacity="0.973" stroke-width="4"/></svg>