<svg xmlns="http://www.w3.org/2000/svg" viewBox="0 0 24 24"><path d="m 4.203 3.484 c -18.922 24.973 33.15 28.52 16.441 3.03 c -3.813 -5.809 -11.43 -9.641 -16.441 -3.03" fill="#695acd"/><g fill="#fff"><path d="m 3.316 11.652 v -0.895 h 2.266 c 0.801 0 1.199 0.566 1.203 1.691 v 2.484 c 0 1.129 -0.402 1.691 -1.203 1.691 h -1.414 c -0.805 0 -1.203 -0.563 -1.203 -1.691 v -0.02 c 0 -1.113 0.398 -1.668 1.203 -1.668 h 1.555 v 0.895 h -1.555 c -0.379 0 -0.566 0.258 -0.566 0.773 v 0.02 c 0 0.531 0.188 0.797 0.566 0.797 h 1.414 c 0.375 0 0.566 -0.266 0.566 -0.797 v -2.484 c 0 -0.531 -0.191 -0.797 -0.566 -0.797 h -2.266"/><path d="m 8.137 16.625 h -0.637 v -4.176 c 0 -1.129 0.398 -1.691 1.203 -1.691 h 0.492 v 0.895 h -0.492 c -0.379 0 -0.566 0.266 -0.566 0.793 v 4.176"/><path d="m 9.551 10.754 h 0.352 v -2.484 h 0.586 v 2.484 h 0.758 v 0.895 h -0.758 v 4.973 h -0.586 v -4.973 h -0.352 v -0.895"/><path d="m 15.559 16.625 h -0.637 v -4.176 c 0 -0.531 -0.188 -0.797 -0.563 -0.797 h -1.98 v 4.973 h -0.637 v -8.352 h 0.637 v 2.484 h 1.98 c 0.801 0 1.199 0.563 1.199 1.691 v 4.176"/><path d="m 16.551 11.652 v -0.895 h 2.266 c 0.801 0 1.199 0.566 1.199 1.691 v 2.484 c 0 1.129 -0.398 1.691 -1.199 1.691 h -1.418 c -0.801 0 -1.199 -0.563 -1.199 -1.691 v -0.02 c 0 -1.113 0.398 -1.668 1.199 -1.668 h 1.559 v 0.895 h -1.559 c -0.375 0 -0.563 0.258 -0.563 0.773 v 0.02 c 0 0.531 0.188 0.797 0.563 0.797 h 1.418 c 0.375 0 0.563 -0.266 0.563 -0.797 v -2.484 c 0 -0.531 -0.188 -0.797 -0.563 -0.797 h -2.266"/></g></svg>