<svg xmlns="http://www.w3.org/2000/svg" viewBox="0 0 24 24" xmlns:xlink="http://www.w3.org/1999/xlink"><path d="m 5.01 22.43 c 35.75 10.273 12.961 -40.484 -3.035 -15.02 c -2.922 4.68 -3.125 12.621 3.035 15.02" fill="#b0b0b0"/><g stroke-width="1.01"><path d="m 155.74 180.46 c 0.083 6 -3.208 11.625 -8.583 14.625 c -5.333 3.042 -11.958 3.042 -17.333 0 c -5.333 -3 -8.625 -8.625 -8.583 -14.625 c -0.042 -6.04 3.25 -11.625 8.583 -14.667 c 5.375 -3 12 -3 17.333 0 c 5.375 3.042 8.667 8.625 8.583 14.667" transform="matrix(0.09375 0 0 0.09375 1.399 -9.09)" fill="#c62f2f" stroke="#bb2e11"/><g fill="#8f8f8f" stroke="#8f8f8f"><path d="m 155.76 180.46 c 0.042 6 -3.208 11.583 -8.583 14.625 c -5.375 3.042 -11.958 3.042 -17.333 0 c -5.375 -3.042 -8.625 -8.625 -8.583 -14.625 c -0.042 -6.04 3.208 -11.625 8.583 -14.667 c 5.375 -3 11.958 -3 17.333 0 c 5.375 3.042 8.625 8.625 8.583 14.667" transform="matrix(0.09375 0 0 0.09375 -0.262 0.874)"/><path d="m 155.75 180.44 c 0.042 6.04 -3.208 11.625 -8.583 14.667 c -5.333 3 -11.958 3 -17.333 0 c -5.333 -3.042 -8.625 -8.625 -8.583 -14.667 c -0.042 -6 3.25 -11.583 8.583 -14.625 c 5.375 -3.042 12 -3.042 17.333 0 c 5.375 3.042 8.625 8.625 8.583 14.625" transform="matrix(0.09375 0 0 0.09375 -5.683 0.35)"/><path d="m 155.77 180.47 c 0.042 6 -3.25 11.583 -8.583 14.625 c -5.375 3.042 -12 3.042 -17.333 0 c -5.375 -3.042 -8.667 -8.625 -8.583 -14.625 c -0.083 -6.04 3.208 -11.625 8.583 -14.667 c 5.333 -3.042 11.958 -3.042 17.333 0 c 5.333 3.042 8.625 8.625 8.583 14.667" transform="matrix(0.09375 0 0 0.09375 4.897 -5.509)"/></g></g><path d="m 155.75 180.44 c 0.042 6.04 -3.208 11.625 -8.583 14.667 c -5.333 3 -11.958 3 -17.333 0 c -5.333 -3.042 -8.625 -8.625 -8.583 -14.667 c -0.042 -6 3.25 -11.625 8.583 -14.625 c 5.375 -3.042 12 -3.042 17.333 0 c 5.375 3 8.625 8.625 8.583 14.625" transform="matrix(0.09375 0 0 0.09375 0.699 -3.323)" fill="#8f8f8f" stroke="#8f8f8f" stroke-width="1.01" id="0"/><g fill="#8f8f8f" stroke="#8f8f8f" stroke-width="1.01"><path d="m 155.77 180.44 c 0.042 6.04 -3.25 11.625 -8.583 14.667 c -5.375 3.042 -12 3.042 -17.333 0 c -5.375 -3.042 -8.667 -8.625 -8.625 -14.667 c -0.042 -6 3.25 -11.583 8.625 -14.625 c 5.333 -3.042 11.958 -3.042 17.333 0 c 5.333 3.042 8.625 8.625 8.583 14.625" transform="matrix(0.09375 0 0 0.09375 -2.623 -3.498)"/><path d="m 155.74 180.46 c 0.083 6 -3.208 11.625 -8.583 14.625 c -5.333 3.042 -11.958 3.042 -17.333 0 c -5.333 -3 -8.625 -8.625 -8.583 -14.625 c -0.042 -6.04 3.25 -11.625 8.583 -14.667 c 5.375 -3 12 -3 17.333 0 c 5.375 3.042 8.667 8.625 8.583 14.667" transform="matrix(0.09375 0 0 0.09375 -4.285 -9.09)"/></g><use transform="translate(-0.699 -3.41)" xlink:href="#0"/><g stroke-width="1.01"><path d="m 155.77 180.43 c 0.042 6.04 -3.25 11.625 -8.583 14.667 c -5.375 3.042 -12 3.042 -17.333 0 c -5.375 -3.042 -8.667 -8.625 -8.583 -14.667 c -0.083 -6 3.208 -11.583 8.583 -14.625 c 5.333 -3.042 11.958 -3.042 17.333 0 c 5.333 3.042 8.625 8.625 8.583 14.625" transform="matrix(0.09375 0 0 0.09375 -4.197 -5.072)" fill="#8f8f8f" stroke="#8f8f8f"/><path d="m 155.78 180.44 c 0.042 6.04 -3.25 11.625 -8.625 14.667 c -5.333 3 -11.958 3 -17.292 0 c -5.375 -3.042 -8.667 -8.625 -8.625 -14.667 c -0.042 -6.04 3.25 -11.625 8.625 -14.625 c 5.333 -3.042 11.958 -3.042 17.292 0 c 5.375 3 8.667 8.583 8.625 14.625" transform="matrix(0.09375 0 0 0.09375 -6.733 -4.721)" fill="#b82a2a" stroke="#bb2e11"/><g fill="#bebac2" stroke="#8f8f8f"><path d="m 155.77 180.44 c 0.042 6.04 -3.25 11.625 -8.583 14.667 c -5.375 3 -12 3 -17.333 0 c -5.375 -3.042 -8.667 -8.625 -8.625 -14.667 c -0.042 -6 3.25 -11.625 8.625 -14.625 c 5.333 -3.042 11.958 -3.042 17.333 0 c 5.333 3 8.625 8.625 8.583 14.625" transform="matrix(0.09375 0 0 0.09375 1.924 -1.049)"/><path d="m 155.78 180.43 c 0.042 6.04 -3.25 11.625 -8.625 14.667 c -5.333 3.042 -11.958 3.042 -17.333 0 c -5.333 -3.042 -8.625 -8.625 -8.583 -14.667 c -0.042 -6 3.25 -11.583 8.583 -14.625 c 5.375 -3.042 12 -3.042 17.333 0 c 5.375 3.042 8.667 8.625 8.625 14.625" transform="matrix(0.09375 0 0 0.09375 -2.886 -0.525)"/><path d="m 155.75 180.43 c 0.042 6.04 -3.208 11.625 -8.583 14.667 c -5.333 3.042 -11.958 3.042 -17.333 0 c -5.333 -3.042 -8.625 -8.625 -8.583 -14.667 c -0.042 -6 3.25 -11.583 8.583 -14.625 c 5.375 -3.042 12 -3.042 17.333 0 c 5.375 3.042 8.625 8.625 8.583 14.625" transform="matrix(0.09375 0 0 0.09375 2.273 -5.072)"/><path d="m 155.78 180.47 c 0.042 6 -3.25 11.583 -8.625 14.625 c -5.333 3.042 -11.958 3.042 -17.333 0 c -5.333 -3.042 -8.625 -8.625 -8.583 -14.625 c -0.042 -6.04 3.25 -11.625 8.583 -14.667 c 5.375 -3.042 12 -3.042 17.333 0 c 5.375 3.042 8.667 8.625 8.625 14.667" transform="matrix(0.09375 0 0 0.09375 -2.886 -7.083)"/></g></g></svg>