<svg xmlns="http://www.w3.org/2000/svg" viewBox="0 0 24 24"><path d="m 21.527 18.359 c 8.629 -12.273 -7.309 -24.711 -17.473 -14.711 c -9.578 9.426 -0.699 24.07 11.219 19.488 c 2.488 -0.953 4.672 -2.523 6.254 -4.777" fill="#a4adbb"/><path d="m 13.254 7.01 v 3.602 c -0.223 -0.203 -0.465 -0.359 -0.727 -0.461 c -0.258 -0.102 -0.531 -0.148 -0.816 -0.141 c -0.367 -0.008 -0.723 0.078 -1.063 0.258 c -0.004 0.008 -0.012 0.012 -0.02 0.012 l -0.012 0.012 c -0.348 0.188 -0.645 0.465 -0.898 0.828 c -0.215 0.305 -0.371 0.645 -0.457 1.023 c -0.09 0.371 -0.113 0.754 -0.074 1.145 c 0.035 0.395 0.133 0.762 0.297 1.098 c 0.164 0.332 0.383 0.617 0.652 0.863 c 0.391 0.359 0.836 0.563 1.34 0.613 c 0.039 0.008 0.082 0.016 0.121 0.023 h 0.125 c 0.598 0 1.133 -0.227 1.602 -0.672 c 0.078 0.203 0.191 0.371 0.348 0.508 c 0.164 0.125 0.344 0.188 0.543 0.188 c 0.129 0 0.25 -0.027 0.367 -0.082 c 0.121 -0.066 0.227 -0.145 0.316 -0.238 c 0.09 -0.102 0.156 -0.219 0.203 -0.352 c 0.055 -0.137 0.082 -0.281 0.082 -0.438 h -0.051 c 0 0.281 -0.086 0.527 -0.266 0.73 c -0.168 0.195 -0.375 0.301 -0.613 0.32 v -8.84 m 2.02 2.93 l -1.195 0.012 l 0.031 0.047 l 2.215 3.266 l -2.176 2.574 l 0.043 0.047 l 2.164 -2.574 l 1.758 2.598 h 1.184 l -2.266 -3.363 l 2.164 -2.547 l -0.031 -0.047 l -2.176 2.547 m -10.441 -2.547 v 0.672 c -0.258 -0.23 -0.543 -0.395 -0.848 -0.496 c -0.309 -0.102 -0.625 -0.133 -0.949 -0.094 c -0.34 0.039 -0.656 0.148 -0.949 0.328 c -0.293 0.184 -0.551 0.426 -0.77 0.734 c -0.223 0.328 -0.379 0.684 -0.469 1.063 c -0.082 0.375 -0.105 0.754 -0.07 1.133 c 0.039 0.367 0.141 0.723 0.297 1.063 c 0.156 0.328 0.359 0.613 0.613 0.848 c 0.477 0.449 1.012 0.672 1.613 0.672 c 0.605 -0.016 1.145 -0.242 1.613 -0.684 c 0.074 0.203 0.191 0.371 0.348 0.496 c 0.156 0.125 0.332 0.188 0.531 0.188 c 0.129 0 0.25 -0.027 0.367 -0.082 c 0.121 -0.063 0.227 -0.141 0.316 -0.234 c 0.09 -0.105 0.156 -0.223 0.203 -0.355 c 0.055 -0.133 0.082 -0.277 0.082 -0.438 h -0.051 c 0 0.285 -0.086 0.527 -0.254 0.73 c -0.172 0.199 -0.379 0.305 -0.625 0.32 v -5.863 m 3.363 0.121 c 0.164 0.016 0.324 0.051 0.48 0.102 c 0.32 0.102 0.609 0.273 0.867 0.508 v 4.117 c 0 0.141 0.02 0.266 0.063 0.367 h -0.012 c -0.223 0.211 -0.473 0.375 -0.746 0.496 c -0.27 0.109 -0.551 0.164 -0.836 0.164 h -0.012 c -0.285 -0.008 -0.563 -0.063 -0.828 -0.164 c -0.258 -0.102 -0.496 -0.258 -0.715 -0.461 v -4.52 c 0.145 -0.129 0.301 -0.242 0.473 -0.344 h 0.008 c 0.008 -0.008 0.016 -0.012 0.02 -0.012 c 0.234 -0.125 0.48 -0.207 0.746 -0.246 c 0.168 -0.02 0.332 -0.02 0.492 -0.008 m -5.895 0.008 c 0.578 0 1.09 0.211 1.531 0.625 v 4.059 c 0 0.129 0.02 0.25 0.063 0.367 c -0.465 0.449 -0.996 0.672 -1.594 0.672 h -0.113 c -0.035 0 -0.07 0 -0.113 -0.008 c -0.488 -0.047 -0.926 -0.25 -1.305 -0.605 v -4.492 c 0.215 -0.203 0.457 -0.359 0.715 -0.461 c 0.258 -0.102 0.531 -0.152 0.816 -0.152" fill-opacity="0.498"/></svg>