<svg xmlns="http://www.w3.org/2000/svg" viewBox="0 0 24 24"><path d="m 5.273 2.563 c 11.941 -8.59 24.996 7.277 15.387 17.402 c -9.05 9.539 -24.04 0.695 -19.922 -11.172 c 0.859 -2.477 2.344 -4.652 4.535 -6.23" fill="#6395ec"/><path d="m 6.05 6 h 11.914 c 0.359 0 0.648 0.289 0.648 0.648 v 11.836 c 0 0.355 -0.289 0.645 -0.648 0.645 h -11.914 c -0.355 0 -0.645 -0.289 -0.645 -0.645 v -11.836 c 0 -0.359 0.289 -0.648 0.645 -0.648" fill="#fff"/><path d="m 5.473 19.344 c -0.457 -0.227 -0.438 0.098 -0.438 -6.879 c 0 -5.301 0.016 -6.352 0.098 -6.551 c 0.199 -0.477 -0.176 -0.453 6.898 -0.453 c 7 0 6.668 -0.02 6.895 0.414 c 0.09 0.176 0.105 1.012 0.105 6.551 c 0 7.04 0.02 6.699 -0.449 6.922 c -0.207 0.098 -0.938 0.109 -6.559 0.105 c -5.605 0 -6.355 -0.012 -6.551 -0.109 m 12.582 -0.973 c 0.145 -0.18 0.145 -0.219 0.145 -5.984 c 0 -5.609 -0.004 -5.809 -0.133 -5.965 l -0.133 -0.164 h -11.801 l -0.133 0.164 c -0.129 0.156 -0.133 0.355 -0.133 5.965 c 0 5.766 0 5.805 0.141 5.984 l 0.145 0.184 h 11.758 m -11.512 -0.543 c -0.105 -0.113 -0.117 -0.598 -0.117 -5.512 c 0 -5.406 0.008 -5.586 0.238 -5.738 c 0.098 -0.066 10.93 -0.066 11.03 0 c 0.23 0.152 0.234 0.332 0.234 5.75 c 0 5.141 -0.004 5.402 -0.125 5.512 c -0.117 0.105 -0.605 0.117 -5.637 0.117 c -5.246 0 -5.512 -0.008 -5.621 -0.129 m 1.668 -3.527 c -0.035 -0.66 0.008 -0.895 0.125 -0.703 c 0.027 0.043 0.141 0.379 0.25 0.746 c 0.332 1.105 0.473 1.102 0.844 -0.027 c 0.145 -0.438 0.293 -0.793 0.328 -0.793 c 0.035 0 0.063 0.348 0.063 0.789 c 0 0.645 0.02 0.797 0.109 0.828 c 0.156 0.063 0.176 -0.051 0.152 -1.066 l -0.02 -0.934 h -0.477 l -0.246 0.758 c -0.137 0.418 -0.281 0.77 -0.328 0.785 c -0.051 0.016 -0.164 -0.242 -0.297 -0.691 c -0.121 -0.391 -0.23 -0.754 -0.246 -0.805 c -0.02 -0.055 -0.117 -0.082 -0.258 -0.066 l -0.227 0.02 l -0.02 0.934 c -0.02 1.051 0 1.176 0.168 1.031 c 0.098 -0.078 0.109 -0.203 0.078 -0.805 m 2.613 0.832 c 0.039 -0.027 0.117 -0.145 0.176 -0.258 c 0.098 -0.191 0.141 -0.211 0.508 -0.23 c 0.395 -0.02 0.398 -0.02 0.496 0.219 c 0.121 0.285 0.223 0.367 0.332 0.262 c 0.055 -0.059 -0.004 -0.313 -0.227 -0.961 c -0.164 -0.488 -0.332 -0.926 -0.371 -0.973 c -0.039 -0.051 -0.164 -0.082 -0.277 -0.07 c -0.203 0.02 -0.219 0.047 -0.543 0.98 c -0.184 0.527 -0.316 0.984 -0.297 1.02 c 0.047 0.078 0.113 0.078 0.203 0.012 m 0.383 -0.891 c 0 -0.234 0.223 -0.863 0.297 -0.84 c 0.066 0.02 0.324 0.73 0.324 0.898 c 0.004 0.031 -0.137 0.055 -0.309 0.055 c -0.238 0 -0.313 -0.027 -0.313 -0.113 m 2.023 0.504 c 0.02 -0.309 0.043 -0.359 0.176 -0.379 c 0.121 -0.02 0.203 0.059 0.402 0.367 c 0.242 0.379 0.406 0.516 0.5 0.418 c 0.027 -0.023 -0.004 -0.137 -0.07 -0.25 c -0.398 -0.676 -0.379 -0.594 -0.207 -0.773 c 0.246 -0.262 0.27 -0.547 0.063 -0.785 c -0.16 -0.191 -0.207 -0.203 -0.68 -0.203 h -0.508 l -0.02 0.926 c -0.02 0.934 0.023 1.152 0.227 1.074 c 0.063 -0.023 0.105 -0.172 0.117 -0.395 m 0.012 -0.766 c -0.02 -0.055 -0.027 -0.203 -0.012 -0.332 c 0.016 -0.18 0.055 -0.234 0.18 -0.254 c 0.211 -0.027 0.5 0.164 0.5 0.332 c 0 0.266 -0.578 0.484 -0.668 0.254 m 1.984 0.754 c 0 -0.305 0.133 -0.504 0.277 -0.414 c 0.043 0.027 0.188 0.219 0.32 0.426 c 0.25 0.391 0.402 0.504 0.516 0.391 c 0.043 -0.039 -0.051 -0.242 -0.246 -0.547 c -0.172 -0.262 -0.313 -0.52 -0.313 -0.574 c 0 -0.051 0.125 -0.242 0.277 -0.426 c 0.305 -0.367 0.34 -0.484 0.145 -0.484 c -0.082 0 -0.273 0.184 -0.504 0.484 c -0.203 0.27 -0.391 0.484 -0.418 0.484 c -0.027 0 -0.059 -0.207 -0.07 -0.465 c -0.016 -0.414 -0.035 -0.469 -0.16 -0.469 c -0.129 0 -0.137 0.055 -0.156 0.926 c -0.012 0.629 0.008 0.957 0.063 1.023 c 0.133 0.16 0.27 -0.023 0.27 -0.355 m -5.934 -2.902 c 0.293 -0.121 0.461 -0.355 0.461 -0.645 c 0 -0.223 -0.199 -0.508 -0.348 -0.508 c -0.121 0 -0.078 -0.125 0.102 -0.305 c 0.227 -0.227 0.23 -0.543 0.012 -0.766 c -0.191 -0.188 -0.574 -0.266 -1.188 -0.23 l -0.418 0.02 l -0.02 1.109 c -0.008 0.609 0 1.18 0.02 1.266 c 0.035 0.145 0.074 0.156 0.594 0.156 c 0.32 0 0.652 -0.043 0.785 -0.098 m -0.895 -0.336 c -0.023 -0.059 -0.031 -0.242 -0.02 -0.41 l 0.023 -0.301 l 0.332 0.012 c 0.395 0.016 0.531 0.109 0.531 0.371 c 0 0.25 -0.137 0.355 -0.516 0.398 c -0.238 0.023 -0.32 0.008 -0.352 -0.07 m -0.02 -1.422 l 0.023 -0.328 l 0.289 0.008 c 0.34 0.004 0.508 0.117 0.508 0.344 c 0 0.203 -0.188 0.305 -0.555 0.305 h -0.285 m 2.227 1.387 c 0.027 -0.055 0.086 -0.188 0.129 -0.293 c 0.07 -0.184 0.09 -0.191 0.59 -0.191 h 0.516 l 0.098 0.293 c 0.07 0.219 0.137 0.301 0.254 0.32 c 0.09 0.012 0.188 -0.008 0.223 -0.039 c 0.063 -0.063 -0.652 -2.246 -0.793 -2.43 c -0.043 -0.055 -0.18 -0.082 -0.348 -0.07 l -0.277 0.02 l -0.402 1.145 c -0.223 0.629 -0.402 1.199 -0.406 1.27 c 0 0.094 0.043 0.121 0.184 0.102 c 0.102 -0.012 0.207 -0.066 0.234 -0.125 m 0.371 -0.93 c -0.047 -0.121 0.262 -1.113 0.344 -1.113 c 0.078 0 0.398 1.016 0.359 1.125 c -0.047 0.129 -0.656 0.117 -0.703 -0.012 m 3.234 0.867 c 0.148 -0.148 0.203 -0.27 0.203 -0.457 c 0 -0.371 -0.09 -0.484 -0.625 -0.797 c -0.512 -0.297 -0.59 -0.438 -0.367 -0.66 c 0.094 -0.094 0.191 -0.109 0.488 -0.074 c 0.305 0.035 0.375 0.023 0.414 -0.07 c 0.07 -0.184 -0.172 -0.301 -0.613 -0.301 c -0.324 0 -0.434 0.031 -0.609 0.176 c -0.176 0.148 -0.211 0.23 -0.211 0.477 c 0 0.359 0.172 0.574 0.684 0.832 c 0.41 0.207 0.539 0.473 0.313 0.645 c -0.121 0.09 -0.32 0.09 -0.891 0.004 c -0.184 -0.027 -0.23 0.219 -0.066 0.336 c 0.074 0.055 0.316 0.094 0.602 0.094 c 0.434 0 0.496 -0.02 0.68 -0.203 m 2.238 0.094 c 0.074 -0.188 -0.02 -0.238 -0.441 -0.238 c -0.445 0 -0.508 -0.047 -0.508 -0.383 c 0 -0.398 0.051 -0.449 0.465 -0.449 c 0.402 0 0.523 -0.078 0.387 -0.246 c -0.055 -0.063 -0.215 -0.098 -0.461 -0.098 h -0.375 l 0.02 -0.332 l 0.023 -0.328 l 0.449 -0.035 c 0.438 -0.031 0.457 -0.047 0.426 -0.277 c -0.008 -0.047 -0.258 -0.066 -0.688 -0.055 l -0.676 0.02 l -0.02 1.176 c -0.008 0.648 0 1.215 0.016 1.266 c 0.027 0.063 0.219 0.09 0.688 0.09 c 0.535 0 0.66 -0.023 0.695 -0.113" fill="#4081f9"/></svg>