<svg xmlns="http://www.w3.org/2000/svg" viewBox="0 0 24 24"><path d="m 0.645 14.539 c 2.238 12.305 20.586 12.676 22.973 0.711 c 2.543 -9.684 -8.04 -17.602 -15.664 -14.43 c -5.125 1.5 -9.105 7.637 -7.309 13.719" fill="#277ab2"/><path d="m 12.277 17.16 l -0.227 -0.172 v -6.336 l 0.199 -0.184 c 0.195 -0.18 0.23 -0.18 3.344 -0.18 c 1.727 0 3.207 0.023 3.281 0.051 c 0.078 0.027 0.195 0.156 0.262 0.285 c 0.113 0.211 0.105 0.277 -0.082 0.723 c -0.676 1.633 -0.703 2.852 -0.094 4.594 c 0.316 0.91 0.301 1.121 -0.094 1.301 c -0.141 0.063 -1.215 0.094 -3.289 0.094 c -2.98 0 -3.082 -0.008 -3.301 -0.176 m -8.05 -2.848 c -0.223 -0.215 -0.215 -0.422 0.039 -1.039 c 0.273 -0.672 0.477 -1.676 0.477 -2.332 c 0 -0.578 -0.23 -1.633 -0.508 -2.316 c -0.238 -0.586 -0.227 -0.805 0.047 -1.016 c 0.223 -0.168 0.32 -0.172 3.348 -0.172 h 3.117 l 0.242 0.199 l 0.242 0.203 l 0.023 2.965 c 0.016 1.629 0.004 3.051 -0.023 3.156 c -0.027 0.105 -0.125 0.266 -0.219 0.355 c -0.16 0.16 -0.297 0.164 -3.391 0.164 c -3.105 0 -3.227 -0.004 -3.395 -0.168" fill="#2f3c45"/></svg>