<svg xmlns="http://www.w3.org/2000/svg" viewBox="0 0 24 24"><path d="m 3.043 6.289 c -8.488 9.59 4.074 19.738 11.438 17.242 c 7.359 -2.492 12.305 -9.535 7.496 -15.707 c -4.805 -6.176 -9.531 -12.13 -18.02 -2.543" fill="#ffd733"/><g fill="#dc312f"><path d="m 18.902 14.18 c -0.32 0.379 -0.805 0.602 -1.313 0.598 c 0 0 -3.27 0 -3.27 0 l 0.004 -0.938 c 0 -0.145 -0.078 -0.172 -0.168 -0.059 c -0.422 0.531 -1.5 1.945 -1.5 2.598 c 0 0.648 1.078 2.063 1.5 2.594 c 0.09 0.117 0.168 0.09 0.168 -0.055 l -0.004 -0.934 h 1.668 c 0.398 0 0.789 -0.199 1 -0.559 l 1.926 -3.234 c 0.074 -0.129 0.078 -0.125 -0.016 -0.012"/><path d="m 16.914 7.508 l -0.836 0.469 c 0 0 -0.418 -0.707 -0.586 -0.988 c -0.234 -0.395 -0.668 -0.641 -1.141 -0.641 c -0.469 0 -0.906 0.25 -1.137 0.648 c 0 0 -0.383 0.641 -0.77 1.289 l 0.777 1.305 l -0.844 0.461 c -0.129 0.07 -0.117 0.145 0.031 0.164 c 0.688 0.09 2.488 0.289 3.07 -0.039 c 0.578 -0.324 1.305 -1.934 1.566 -2.555 c 0.059 -0.137 -0.004 -0.188 -0.133 -0.113"/><path d="m 16.12 10.691 l -0.516 0.289 c -0.648 0.363 -0.871 1.164 -0.496 1.793 l 0.992 1.664 c 0.773 0 1.535 0 1.539 0 c 0.469 0.004 0.91 -0.238 1.145 -0.633 c 0.234 -0.395 0.234 -0.887 -0.008 -1.281 c 0 0 -0.363 -0.617 -0.805 -1.352 c -0.375 -0.629 -1.203 -0.844 -1.852 -0.48"/><path d="m 5.121 14.07 l 1.926 3.234 c 0.074 0.125 0.07 0.125 0.02 -0.012 c -0.18 -0.453 -0.137 -0.973 0.121 -1.398 l 1.633 -2.746 l 0.836 0.473 c 0.133 0.074 0.191 0.023 0.137 -0.113 c -0.262 -0.617 -0.988 -2.23 -1.57 -2.555 c -0.578 -0.328 -2.383 -0.129 -3.066 -0.039 c -0.148 0.02 -0.164 0.098 -0.035 0.168 l 0.84 0.465 l -0.836 1.398 c -0.203 0.336 -0.219 0.766 -0.004 1.125"/><path d="m 8.234 14.813 c -0.383 0.648 -0.766 1.289 -0.766 1.289 c -0.238 0.395 -0.242 0.883 -0.008 1.281 c 0.238 0.395 0.676 0.637 1.145 0.633 h 1.613 c 0.746 0 1.355 -0.586 1.355 -1.313 v -0.578 c 0 -0.727 -0.605 -1.313 -1.355 -1.313"/><path d="m 10.238 6.02 c -0.43 0 -0.789 0.234 -1 0.566 c -0.191 0.301 -0.66 1.094 -1.066 1.777 c -0.371 0.629 -0.145 1.434 0.504 1.797 l 0.523 0.293 c 0.648 0.363 1.477 0.148 1.852 -0.48 c 0.668 -1.121 1.625 -2.727 1.875 -3.145 c 0.254 -0.426 0.676 -0.711 1.168 -0.789 c 0.145 -0.023 0.148 -0.02 -0.004 -0.02"/></g></svg>