<svg xmlns="http://www.w3.org/2000/svg" viewBox="0 0 24 24"><path d="m 18.797 3.777 c 20.359 25.21 -30.11 27.457 -15.789 2.602 c 3.266 -5.668 10.398 -9.281 15.789 -2.602" fill="#86cefa"/><path d="m 97.92 92.25 h 60.75 c 4.875 0 8.792 2.583 8.792 5.833 v 55.708 c 0 3.208 -3.917 5.833 -8.792 5.833 h -60.75 c -4.833 0 -8.792 -2.625 -8.792 -5.833 v -55.708 c 0 -3.25 3.958 -5.833 8.792 -5.833" transform="scale(0.09375)" fill="#fff" stroke="#fff" stroke-width="4.455"/><path d="m 15.324 15.91 c -0.602 -0.359 -1.215 -0.695 -1.805 -1.07 l 0.148 -0.117 c 1.488 -1.34 2.02 -1.613 3.434 -3 l 1.504 -1.34 l 0.012 3.688 c 0.016 3.688 0.004 4.01 -0.129 4.01 c -1.285 -1.121 -2.102 -1.555 -3.164 -2.172" fill="#407ae2"/><path d="m 6.543 18.383 c -1.258 -0.07 -1.188 0.184 -1.184 -4.223 l 0.004 -3.797 l 3.148 -2.594 c 1.734 -1.426 3.266 -2.613 3.406 -2.641 c 0.199 -0.039 1.02 0.574 3.445 2.57 c 1.754 1.437 3.25 2.551 3.262 2.598 c 0.012 0.043 -0.68 0.742 -1.473 1.418 l -1.441 1.234 l -0.059 -1.852 c -0.102 -1.43 0.215 -2.316 -0.715 -2.508 h -2.809 c -1.543 0 -2.953 0.039 -3.129 0.09 c -0.578 0.16 -0.684 0.574 -0.676 2.652 l 0.004 1.871 l 1.012 0.852 l 1.012 0.848 l 0.645 -0.414 c 0.355 -0.227 0.793 -0.418 0.977 -0.422 c 0.32 -0.008 1.781 0.852 5.215 3.078 l 1.355 0.879 l -0.273 0.223 c -0.262 0.215 -0.543 0.223 -5.617 0.203 c -2.938 -0.016 -5.687 -0.043 -6.109 -0.066" fill="#1960dc"/><path d="m 7.383 12.172 c -0.676 -0.594 -1.348 -1.191 -2.02 -1.785 l 0.289 -0.02 c 0.957 -0.027 1.703 -0.023 2.691 -0.027 c -0.023 0.887 0.031 1.777 -0.008 2.664 c -0.383 -0.328 -0.645 -0.559 -0.953 -0.832" fill="#144eb7"/><path d="m 11.16 13.234 c -0.223 -0.117 -0.367 -0.258 -0.508 -0.539 c -0.203 -0.398 -0.203 -1.051 -0.203 -2.168 v -0.859 c 0.297 -0.156 0.633 -0.488 0.957 -0.57 c 0.082 0 0.004 0.523 0.027 1.516 c 0.039 1.566 0.121 1.809 0.586 1.754 c 0.527 -0.063 0.551 -0.918 0.027 -0.996 c -0.195 -0.027 -0.219 -0.098 -0.219 -0.605 v -0.574 l 0.328 0.063 c 0.73 0.145 1.238 0.82 1.238 1.633 c 0 0.566 -0.207 0.926 -0.75 1.301 c -0.41 0.281 -1.01 0.297 -1.484 0.043" fill="#1960dc"/><path d="m 15.684 11.676 v -1.344 c 0.988 0.09 1.754 0 2.883 0 c 0.031 0.023 0.047 0.051 0.039 0.055 c -0.004 0.008 -0.266 0.246 -0.578 0.531 c -0.637 0.578 -2.215 2 -2.293 2.063 c -0.047 0.039 -0.051 -0.027 -0.051 -1.305" fill="#144eb7"/><path d="m 6.01 18.391 c -0.168 -0.051 -0.379 -0.207 -0.465 -0.34 c -0.07 -0.102 -0.07 -0.113 -0.023 -0.137 c 0.074 -0.043 3.387 -2.238 4.172 -2.762 c 0.809 -0.547 1.52 -1.313 2.262 -1.313 c 0.172 0 0.367 0.066 0.441 0.105 c 3.457 2.266 7.508 3.918 5.605 4.438 c 0.465 0.008 -5.184 0.039 -7.559 0.043 c -3.441 0.004 -4.34 -0.004 -4.434 -0.035" fill="#1756c8"/></svg>