<svg xmlns="http://www.w3.org/2000/svg" viewBox="0 0 24 24"><path d="m 0.305 14.746 c 4.688 22.492 36.926 -1.652 17.559 -13.09 c -7.523 -4.898 -19.969 1.52 -17.559 13.09" fill="#084670"/><g fill="#ff4500"><path d="m 6.309 8.875 v 1.164 h 10.531 v -1.164"/><path d="m 5.723 11.203 v 1.164 h 11.699 v -1.164"/><path d="m 6.309 13.535 v 1.164 h 10.531 v -1.164"/><path d="m 10.988 5.965 v 11.645 h 1.168 v -11.645"/></g><g fill="none" stroke="#ff4500"><g stroke-width="2" transform="matrix(0.58507 0 0 0.58216 -2.469 -2.185)"><path d="m 20.444 33 c -2 -5.999 -2 -12 0 -18"/><path d="m 27.468 33 c 2 -4.999 2 -12 0 -18"/></g><path d="m 33.06 27.315 c 0 5.03 -4.079 9.108 -9.105 9.108 c -5.03 0 -9.105 -4.081 -9.105 -9.108 c 0 -5.03 4.079 -9.102 9.105 -9.102 c 5.03 0 9.105 4.075 9.105 9.102" transform="matrix(0.64265 0 0 0.63944 -3.821 -5.681)" stroke-linecap="round" stroke-width="1.821"/></g><g fill="#a1f91b"><path d="m 6.773 11.527 h 2.777 c 0.082 0 0.152 0.066 0.152 0.148 v 5.551 c 0 0.086 -0.07 0.152 -0.152 0.152 h -2.777 c -0.086 0 -0.152 -0.066 -0.152 -0.152 v -5.551 c 0 -0.082 0.066 -0.148 0.152 -0.148"/><path d="m 8.262 20.18 l -1.578 -2.594 l -1.582 -2.594 l 6.117 -0.117 l -1.48 2.652"/></g></svg>