<svg xmlns="http://www.w3.org/2000/svg" viewBox="0 0 24 24"><path d="m 23.22 8.703 c 4.48 12.504 -11.621 18.586 -17.672 13.496 c -6.05 -5.094 -8.117 -13.82 -1.266 -18.207 c 6.855 -4.391 14.457 -7.797 18.938 4.711" fill="#c0bebe"/><path d="m 52.739 229.36 c -6.399 -2.208 -12.407 -6.273 -15.827 -10.74 c -5.715 -7.528 -10.356 -21.18 -10.454 -30.864 c -0.098 -11.09 -0.342 -11.493 -9.77 -16.913 c -11.724 -6.725 -22.373 -16.963 -26.427 -25.494 c -4.396 -9.134 -5.08 -20.325 -1.807 -29.359 c 6.497 -18.17 26.915 -33.22 56.52 -41.704 c 6.06 -1.756 11.772 -3.413 12.749 -3.664 c 0.977 -0.301 4.396 -4.416 7.62 -9.184 c 11.479 -17.01 28.332 -34.08 41.716 -42.16 c 27.16 -16.461 51.73 -6.976 60.03 23.14 c 1.319 4.768 1.807 10.439 1.856 22.784 l 0.098 16.411 l 8.451 4.968 c 10.795 6.374 22.03 17.364 25.548 25.09 c 6.839 14.955 4.103 31.918 -7.278 44.565 c -11.772 13.1 -34.14 23.888 -61.94 30.01 c -7.816 1.656 -8.939 2.208 -11.724 5.671 c -11.04 13.701 -26.622 27.301 -37.516 32.771 c -13.238 6.675 -22.275 7.98 -31.849 4.717 m 34.487 -18.569 c 8.06 -5.42 21.786 -18.92 20.809 -20.476 c -0.44 -0.753 -5.911 -1.104 -15.876 -1.104 c -16.267 -0.05 -31.898 -2.108 -45.33 -6.123 c -9.477 -2.81 -10.795 -2.309 -9.965 3.864 c 2.394 17.465 7.865 27.301 17.585 31.717 c 12.456 3.413 23.15 -1.455 32.777 -7.929 m 30.726 -33.17 c 2.052 -0.803 9.721 -12.245 15.778 -23.537 c 5.422 -10.09 13.433 -27.903 13.433 -30.16 c 0 -1.255 -2 -0.652 -6.448 -0.853 l -5.764 -0.301 l -0.293 -7.377 c -0.195 -4.667 0.147 -7.879 0.928 -8.782 c 1.661 -2.058 11.382 -1.506 11.382 0.652 c 0 1 -1.221 1.606 -3.761 1.807 c -4.738 0.401 -5.129 2.911 -0.488 3.362 c 4.543 0.452 5.08 3.563 0.635 4.01 c -1.807 0.151 -3.419 0.903 -3.664 1.606 c -0.342 1 0.782 1.255 4.396 1 l 4.201 1.405 l 2.491 -7.227 c 3.615 -10.288 5.862 -23.09 4.592 -24.591 c -1.417 -1.706 -15.338 -5.972 -26.09 -7.98 c -17.585 -3.212 -59.3 -2.76 -63.5 0.753 c -1.807 1.455 -11.333 20.17 -11.333 22.18 c 0 0.954 0.635 1.204 6.79 1.204 c 2.784 0 3.957 1.807 4.689 2.559 c 2.589 2.81 -0.488 5.671 1.026 8.431 c 3.712 6.675 0.342 7.678 -7.376 7.227 l -5.618 -0.251 l 0.391 -11.593 c 0.342 -10.639 -3.468 -2.509 -9.281 16.06 c -6.399 20.576 -9.281 39.4 -6.35 41.805 c 3.224 2.61 25.11 7.528 41.23 9.234 c 8.402 0.853 35.17 0.401 38 -0.652 m -42.3 -30.21 c -1.954 -1.305 -1.221 -16.662 0.83 -16.662 c 1.026 0 1.563 1.305 1.759 4.517 c 0.44 7.879 0.928 8.833 4.494 9.184 c 2.052 0.201 3.224 0.853 3.224 1.807 c 0 1.706 -8.06 2.61 -10.307 1.154 m 14.12 -0.351 c -0.586 -0.753 -0.83 -3.764 -0.586 -6.825 c 0.293 -3.01 0.83 -5.52 0.782 -7.03 c -2.296 -2.459 0.098 -3.965 0.977 -3.965 c 1.514 0 1.661 1.104 1.514 11.493 c -0.098 6.374 -1.026 8.431 -2.687 6.323 m 8.695 -0.803 c -1.124 -1.104 -2 -3.061 -2 -4.366 c 0 -1.305 -0.244 -3.664 -0.586 -5.269 c -0.342 -1.756 1.221 -4.667 2.149 -5.922 c 0.782 -3.664 1.514 -2.459 2.833 1.455 c 1.319 3.864 3.224 4.316 1.124 6.072 c -2.442 2.01 -1.807 4.968 1.221 6.123 c 2.687 1 2.687 1.104 0.83 2.459 c -2.54 1.907 -3.175 1.807 -5.569 -0.552 m 15.729 1.807 c -7.474 -1.455 -9.623 -9.385 -5.52 -12.245 c 4.543 -3.212 10.942 -0.251 10.942 4.467 c 0 2.108 -5.813 0.753 -5.813 2.359 c 0.147 5.169 3.761 6.072 0.391 5.42 m -38.25 -26.05 c -0.244 -0.703 -0.537 -3.513 -0.733 -6.273 c -0.195 -4.065 -0.684 -5.169 -2.54 -5.972 c -3.712 -1.656 -2.296 -3.965 2.736 -4.316 c 7.962 -0.602 11.968 1.706 6.546 3.814 c -2.198 0.803 -2.491 1.506 -2.491 5.872 c 0 2.71 -0.293 5.671 -0.635 6.524 c -0.684 1.907 -2.247 2.058 -2.882 0.351 m 12.749 0.201 c -1.221 -0.502 -2.247 -1.606 -2.247 -2.509 c 0 -1.305 0.782 -1.455 4.494 -0.903 c 5.764 0.853 6.06 -0.954 0.537 -3.162 c -8.597 -3.463 -4.592 -11.994 4.543 -9.535 c 4.103 1.104 3.908 3.714 -0.244 3.413 c -4.201 -0.351 -5.178 1.405 -1.612 2.911 c 6.399 2.76 7.669 5.42 4.299 8.833 c -2.1 2.108 -5.959 2.459 -9.77 0.954 m 28.674 -1.907 c -3.273 -3.262 -3.81 -7.327 -1.368 -10.79 c 1.759 -2.509 7.327 -4.366 10.698 -3.513 c 5.569 1.355 5.813 4.868 0.293 3.814 c -6.301 -1.204 -10.01 2.559 -6.985 7.126 c 1.465 2.258 2.1 2.459 6.06 1.957 c 3.419 -0.502 4.396 -0.301 4.396 0.853 c 0 1.907 -3.175 3.513 -7.03 3.513 c -2.1 0 -4.054 -0.954 -6.06 -2.961 m -14.361 -2.961 c -0.928 -1.506 2.198 -3.262 5.129 -2.911 c 1.71 0.201 2.931 1 3.126 2.058 c 0.293 1.455 -0.391 1.756 -3.664 1.756 c -2.198 0 -4.25 -0.401 -4.592 -0.903 m 42.4 54.953 c 10.649 -2.911 25.499 -9.786 33.363 -15.457 c 24.18 -17.364 23.06 -41.805 -2.736 -58.62 c -8.255 -5.42 -9.183 -5.269 -10.6 1.756 c -3.273 16.561 -13.482 43.11 -23.936 62.23 c -3.322 6.123 -6.06 11.342 -6.06 11.593 c 0 0.903 3.126 0.401 9.965 -1.455 m -119.48 -10.04 c 0.293 -0.502 1.27 -5.119 2.149 -10.238 c 3.322 -19.472 9.183 -37.991 18.03 -56.76 c 2.54 -5.42 4.01 -9.786 3.517 -10.288 c -1.124 -1.154 -11.235 2.258 -21.738 7.277 c -14.606 6.926 -25.694 16.963 -29.02 26.15 c -2.54 6.875 -2.1 15.808 0.977 22.13 c 3.03 6.223 11.137 14.554 18.758 19.271 c 5.862 3.664 6.448 3.864 7.327 2.459 m 37.516 -44.01 c 0 -2.961 -2.491 -3.01 -4.25 -2.309 c -2.442 0.954 -1.905 3.061 0.928 3.061 c 1.368 0 3.322 -0.251 3.322 -0.753 m -1.221 -7.327 c -0.244 -0.652 0.342 -2.01 -1.759 -2.108 c -2.638 -0.1 -2.882 0.954 -3.126 1.606 c -0.244 0.753 1.856 1.756 3.126 1.756 c 1.27 0 2 -0.502 1.759 -1.255 m 96.04 -46.07 c 0.293 -12.647 -0.83 -19.823 -4.348 -27.552 c -8.793 -19.271 -27.306 -20.626 -49.43 -3.613 c -9.916 7.628 -31.31 31.517 -29.7 33.17 c 0.342 0.301 10.649 0.703 22.91 0.853 c 23.301 0.251 36.2 1.857 50.26 6.424 c 10.06 3.212 9.965 3.312 10.307 -9.284" transform="matrix(0.07997 0 0 0.07784 4.232 2.335)" fill="#777272" stroke="#777272"/></svg>