<svg xmlns="http://www.w3.org/2000/svg" viewBox="0 0 24 24"><path d="m 20.949 3.609 c 13.727 21.13 -23.766 29.31 -20.777 7.57 c 1.215 -8.863 15.527 -15.652 20.777 -7.57" fill="#2070ea"/><path d="m 119.04 210.5 c -18.292 -2.708 -34.04 -10.583 -46.625 -23.292 c -15.5 -15.625 -23.08 -33.917 -23.08 -55.625 c 0 -22.958 8.792 -42.542 26.375 -58.958 c 10.292 -9.583 26.458 -17.375 40.833 -19.667 c 6.458 -1 19.333 -0.875 25.75 0.25 c 24.5 4.417 46.21 20.792 57.54 43.42 c 5.75 11.583 8.208 21.958 8.208 35.04 c 0.042 30.542 -17.875 58.5 -46 71.833 c -10.25 4.833 -18.708 6.792 -30.833 7.083 c -5.5 0.125 -10.958 0.083 -12.167 -0.083 m 21.04 -26.708 c 16.375 -3.125 31.33 -16 38.38 -33.12 c 3.75 -9.08 4.75 -8.375 -11.708 -8.375 h -14.167 l -1.583 2.833 c -4.458 7.917 -13.958 12.667 -24.25 12.04 c -6.708 -0.375 -10.667 -2.042 -15.583 -6.458 c -11.167 -10.08 -11.167 -28.13 0.042 -38.29 c 5.625 -5.083 8.75 -6.208 17.17 -6.208 c 6.333 0 7.625 0.208 11.417 2 c 4.917 2.292 9.167 6.083 11.167 9.958 l 1.375 2.667 h 28.75 l -0.375 -1.958 c -1.958 -9.792 -10.542 -22.625 -19.75 -29.583 c -15.625 -11.833 -36.625 -14.292 -54.13 -6.375 c -12.167 5.542 -22.583 16.417 -27.5 28.625 c -2.583 6.5 -3.625 12.13 -3.708 19.708 c -0.042 9.04 1.458 15.667 5.708 24.583 c 2.75 5.75 4.125 7.625 9.375 12.875 c 8.125 8 17.25 13.292 26.08 15 c 4.292 0.875 18.917 0.875 23.292 0.042" transform="scale(0.09375)" fill="#fff" stroke="#333" stroke-width="0.044"/></svg>