<svg xmlns="http://www.w3.org/2000/svg" xmlns:xlink="http://www.w3.org/1999/xlink" viewBox="0 0 24 24"><defs><g id="A" clip-path="url(#9)"><path d="m 39.777 19.01 c 0 4.786 -3.876 8.665 -8.663 8.665 c -4.787 0 -8.663 -3.879 -8.663 -8.665 c 0 -4.786 3.876 -8.665 8.663 -8.665 c 4.787 0 8.663 3.879 8.663 8.665" transform="matrix(0.35171 0 0 0.36157 0.799 1.795)" fill="none" stroke="#fff" stroke-linejoin="round" stroke-linecap="round" stroke-width="1.14"/></g><clipPath id="9"><path d="M 0,0 H24 V24 H0 z"/></clipPath><filter id="7" filterUnits="objectBoundingBox" x="0" y="0" width="24" height="24"><feColorMatrix type="matrix" in="SourceGraphic" values="0 0 0 0 1 0 0 0 0 1 0 0 0 0 1 0 0 0 1 0"/></filter><linearGradient id="4" gradientUnits="userSpaceOnUse" y1="29.553" x2="0" y2="35.803" gradientTransform="matrix(0.40099 0 0 0.41224 -0.734 0.832)" xlink:href="#0"/><linearGradient id="0" gradientUnits="userSpaceOnUse" y1="29.553" x2="0" y2="35.803" gradientTransform="matrix(0.40099 0 0 0.41224 -5.714 -2.053)"><stop stop-color="#fff"/><stop offset="1" stop-color="#c8c8c8"/></linearGradient><linearGradient id="1" gradientUnits="userSpaceOnUse" x1="22.687" y1="36.39" x2="21.408" y2="35.74" gradientTransform="matrix(-0.39204 0.0866 0.08424 0.40304 16.03 -3.751)"><stop stop-color="#000" stop-opacity="0.227"/><stop offset="1" stop-color="#000" stop-opacity="0"/></linearGradient><mask id="8"><g filter="url(#7)"><path fill-opacity="0.196" d="M 0,0 H24 V24 H0 z"/></g></mask><radialGradient id="3" gradientUnits="userSpaceOnUse" cx="28.09" cy="27.2" r="13.565" gradientTransform="matrix(1.67889 0 0 1.07412 -27.547 -3.339)"><stop stop-color="#3b73bb"/><stop offset="1" stop-color="#2d598f"/></radialGradient><radialGradient id="2" gradientUnits="userSpaceOnUse" cx="31.11" cy="19.01" r="8.662" gradientTransform="matrix(0.71196 0 0 0.39541 -10.459 8.57)"><stop stop-color="#000"/><stop offset="1" stop-color="#000" stop-opacity="0"/></radialGradient><radialGradient id="5" gradientUnits="userSpaceOnUse" cx="31.11" cy="19.01" r="8.662" gradientTransform="matrix(0.40099 0 0 0.41224 -0.784 2.275)" xlink:href="#2"/><radialGradient id="6" gradientUnits="userSpaceOnUse" cx="29.345" cy="17.06" r="7.22"><stop stop-color="#f4d8b1"/><stop offset="1" stop-color="#de9625"/></radialGradient></defs><path d="m 21.602 18.273 c 8.547 -12.164 -7.242 -24.484 -17.316 -14.574 c -9.488 9.336 -0.691 23.84 11.12 19.305 c 2.465 -0.945 4.629 -2.5 6.199 -4.73" fill="#536ebe"/><g fill-rule="evenodd"><path d="m 8.32 11.977 h 1.703 l -0.992 -0.945 l -0.215 0.289 l -0.211 -0.219" fill="url(#0)"/><path d="m 10.273 14.332 c 0.496 -0.242 0.727 -0.828 0.727 -0.828 c -0.387 -1.668 -1.598 -2.82 -1.598 -2.82 c 0 0 0.988 2.613 0.871 3.645" fill="url(#1)"/><path d="m 17.859 16.09 c 0 1.895 -2.762 3.426 -6.168 3.426 c -3.406 0 -6.164 -1.531 -6.164 -3.426 c 0 -1.891 2.758 -3.426 6.164 -3.426 c 3.406 0 6.168 1.535 6.168 3.426" fill="url(#2)"/><path d="m 16.896 41.21 h 13.714 c 3.895 0 7.739 -1.334 9.151 -5.142 c 1.349 -3.623 0.227 -10.525 -8.458 -16.09 h -16.247 c -8.684 5.153 -9.768 12.193 -7.777 16.311 c 2.042 4.187 5.496 4.935 9.617 4.935" transform="matrix(0.30991 0 0 0.33959 4.451 4)" fill="url(#3)" stroke="#204a86" stroke-linejoin="round" stroke-linecap="round" stroke-width="1.253"/><path d="m 9.969 11.438 c 1.277 1.164 1.844 5.395 1.844 5.395 c 0 0 0.566 -4.227 1.559 -5.465" fill="url(#4)"/><path d="m 10.883 11.875 c 0 0 -0.863 0.684 -0.789 1.508 c -0.816 -0.742 -0.84 -2.164 -0.84 -2.164" fill="#719ecf"/></g><path d="m 16.795 39.941 l 13.575 -0.023 c 3.416 0 6.806 -1.185 8.04 -4.532 c 1.185 -3.175 -0.113 -9.237 -7.752 -14.14 l -14.911 -0.299 c -7.638 4.532 -9.113 10.721 -7.323 14.632 c 1.777 3.9 4.386 4.325 8.382 4.36" transform="matrix(0.30991 0 0 0.33959 4.451 4)" stroke-opacity="0.216" fill="none" stroke="#fff" stroke-linejoin="round" stroke-linecap="round" stroke-width="1.253"/><g fill-rule="evenodd"><path d="m 12.664 11.875 c 0 0 0.863 0.684 0.789 1.508 c 0.816 -0.742 0.84 -2.164 0.84 -2.164" fill="#719ecf"/><path d="m 15.16 10.113 c 0 1.969 -1.555 3.57 -3.473 3.57 c -1.918 0 -3.473 -1.602 -3.473 -3.57 c 0 -1.973 1.555 -3.574 3.473 -3.574 c 1.918 0 3.473 1.602 3.473 3.574" fill="url(#5)"/><path d="m 39.774 19.01 c 0 4.785 -3.877 8.661 -8.66 8.661 c -4.783 0 -8.66 -3.876 -8.66 -8.661 c 0 -4.785 3.877 -8.661 8.66 -8.661 c 4.783 0 8.66 3.876 8.66 8.661" transform="matrix(0.40099 0 0 0.41224 -0.734 0.832)" fill="url(#6)" stroke="#c17d11" stroke-linejoin="round" stroke-linecap="round"/></g><use xlink:href="#A" mask="url(#8)"/></svg>