<svg xmlns="http://www.w3.org/2000/svg" viewBox="0 0 24 24"><path d="m 2.77 8.223 c -1.109 1.43 -2.211 4.109 -2.344 5.711 c -0.195 2.313 0.609 4.949 1.996 6.531 c 1.848 2.113 5.563 3.48 9.27 3.418 c 2.664 -0.043 6.227 -0.875 8.04 -1.875 c 1.547 -0.848 2.648 -2.086 3.25 -3.645 c 0.813 -2.109 0.84 -4.168 0.086 -6.203 c -1.234 -4.352 -4.01 -7.27 -6.488 -9.598 c -6.293 -5.191 -10.426 1.223 -13.809 5.66" fill="#ff4500"/><g fill="#fff"><path d="m 9.387 15.688 c 0.766 -0.16 1.484 -0.52 2.066 -1.047 c -0.141 -0.184 -0.27 -0.375 -0.387 -0.574 c -1.219 -2.094 -0.785 -4.777 0.984 -6.395 c 0.512 0.465 0.922 1.023 1.207 1.641 c 0.93 0.133 1.824 0.418 2.652 0.844 c -0.152 -0.824 -0.441 -1.621 -0.859 -2.352 c -0.656 -1.152 -1.617 -2.117 -2.781 -2.781 c -0.133 -0.078 -0.301 -0.078 -0.438 0 c -1.738 0.996 -2.984 2.602 -3.504 4.527 c -0.52 1.922 -0.25 3.93 0.754 5.656 c 0.094 0.164 0.195 0.324 0.305 0.48"/><path d="m 17.363 12.285 c -1.418 -1.406 -3.305 -2.184 -5.313 -2.184 c -0.191 0 -0.383 0.008 -0.574 0.02 c -0.242 0.738 -0.289 1.535 -0.117 2.301 c 0.227 -0.027 0.457 -0.043 0.691 -0.043 c 2.438 0 4.566 1.715 5.094 4.04 c -0.5 0.156 -1.023 0.234 -1.551 0.234 c -0.164 0 -0.324 -0.008 -0.484 -0.023 c -0.582 0.734 -1.277 1.363 -2.063 1.859 c 0.813 0.289 1.676 0.441 2.547 0.441 c 1.313 0 2.609 -0.348 3.75 -1 c 0.137 -0.078 0.223 -0.223 0.223 -0.379 c 0 -1.992 -0.781 -3.863 -2.203 -5.27"/><path d="m 15.02 15.207 c 0.094 -0.168 0.184 -0.336 0.266 -0.504 c -0.52 -0.578 -1.195 -1.016 -1.949 -1.254 c -0.086 0.211 -0.191 0.418 -0.305 0.617 c -0.93 1.598 -2.664 2.59 -4.527 2.59 c -0.527 0 -1.051 -0.078 -1.551 -0.234 c 0.152 -0.676 0.434 -1.305 0.832 -1.859 c -0.352 -0.867 -0.551 -1.773 -0.59 -2.699 c -0.645 0.543 -1.195 1.188 -1.625 1.914 c -0.68 1.141 -1.039 2.445 -1.039 3.777 c 0 0.156 0.086 0.301 0.223 0.379 c 1.141 0.652 2.438 1 3.75 1 c 1.297 0 2.578 -0.336 3.707 -0.969 c 1.164 -0.652 2.133 -1.605 2.805 -2.762"/></g></svg>