<svg xmlns="http://www.w3.org/2000/svg" viewBox="0 0 24 24"><path d="m 14.305 22.977 c 16.09 -2.391 10.594 -26.973 -4.973 -22.324 c -14.793 3.121 -10.789 28.28 4.973 22.324" fill="#778799"/><path d="m 13.953 21.12 c 13.234 -1.98 8.715 -22.363 -4.09 -18.508 c -12.168 2.586 -8.875 23.445 4.09 18.508" fill="#2164f4"/><g fill="#c6c6be"><path d="m 5.05 12.04 c -0.148 -0.152 -0.199 -1.27 -0.07 -1.605 c 0.105 -0.273 1.203 -0.273 1.309 0 c 0.094 0.246 0.094 1.309 0 1.559 c -0.09 0.234 -1.016 0.27 -1.238 0.047"/><path d="m 4.984 9.08 c -0.094 -0.246 -0.094 -1.914 0 -2.164 c 0.051 -0.137 0.234 -0.195 0.609 -0.195 c 0.461 0 0.551 0.043 0.652 0.313 c 0.137 0.355 0.156 1.293 0.043 1.859 c -0.07 0.363 -0.102 0.383 -0.652 0.383 c -0.414 0 -0.598 -0.055 -0.652 -0.195"/><path d="m 7.289 9 c -0.094 -0.355 -0.094 -1.652 0 -2.01 c 0.063 -0.234 0.156 -0.273 0.652 -0.273 c 0.672 0 0.723 0.094 0.723 1.277 c 0 1.187 -0.051 1.277 -0.723 1.277 c -0.496 0 -0.59 -0.039 -0.652 -0.273"/><path d="m 7.359 12.04 c -0.152 -0.152 -0.203 -1.27 -0.074 -1.605 c 0.105 -0.273 1.203 -0.273 1.309 0 c 0.117 0.305 0.086 1.258 -0.051 1.516 c -0.145 0.27 -0.941 0.332 -1.184 0.09"/><path d="m 10.242 12.223 c -0.547 -0.063 -0.727 -0.313 -0.727 -1.02 c 0 -0.879 0.063 -0.961 0.738 -0.961 c 0.652 0 0.637 -0.016 0.762 1.09 c 0.055 0.512 -0.078 1 -0.262 0.957 c -0.047 -0.008 -0.277 -0.039 -0.512 -0.066"/><path d="m 9.59 9 c -0.094 -0.355 -0.094 -1.652 0 -2.01 c 0.066 -0.234 0.156 -0.273 0.652 -0.273 c 0.672 0 0.723 0.094 0.723 1.277 c 0 1.187 -0.051 1.277 -0.723 1.277 c -0.496 0 -0.586 -0.039 -0.652 -0.273"/><path d="m 2.918 11.82 c 0.051 -1.461 0.098 -1.578 0.602 -1.578 c 0.387 0 0.402 0.023 0.473 0.578 c 0.043 0.316 0.031 0.742 -0.027 0.941 c -0.082 0.309 -0.168 0.371 -0.539 0.402 c -0.391 0.035 -0.445 0.078 -0.492 0.426 c -0.031 0.215 -0.035 -0.133 -0.016 -0.77"/><path d="m 9.648 5.746 c -0.086 -0.055 -0.105 -0.277 -0.105 -1.301 v -1.238 l 0.629 -0.16 c 0.344 -0.086 0.668 -0.16 0.715 -0.16 c 0.145 -0.004 0.09 2.77 -0.055 2.859 c -0.137 0.086 -1.047 0.086 -1.184 0"/><path d="m 11.945 5.746 c -0.09 -0.055 -0.102 -0.297 -0.09 -1.543 c 0.008 -0.813 0.023 -1.484 0.035 -1.496 c 0.012 -0.008 0.332 -0.027 0.715 -0.043 l 0.695 -0.023 l -0.023 1.5 c -0.02 1.266 -0.043 1.512 -0.133 1.586 c -0.133 0.105 -1.043 0.117 -1.199 0.02"/><path d="m 15.551 5.688 c -0.164 -0.422 -0.465 -0.852 -0.598 -0.848 c -0.066 0 -0.262 0.113 -0.434 0.25 l -0.313 0.25 l -0.02 -1 c -0.023 -1.02 0.02 -1.594 0.117 -1.594 c 0.125 0 1.117 0.277 1.484 0.414 l 0.402 0.152 l -0.008 0.852 c -0.004 0.465 -0.027 1.02 -0.051 1.227 c -0.043 0.34 -0.07 0.387 -0.266 0.469 c -0.211 0.086 -0.215 0.082 -0.316 -0.172"/></g><g fill="#0ff"><path d="m 4.484 17.953 c -0.254 -0.102 -0.191 -0.785 0.086 -0.98 c 0.137 -0.098 0.27 -0.348 0.293 -0.559 l 0.043 -0.387 l 1.219 -0.035 c 1.398 -0.043 1.426 -0.027 1.43 0.965 c 0.004 1.102 0.031 1.082 -1.531 1.07 c -0.758 -0.004 -1.449 -0.039 -1.539 -0.074"/><path d="m 8.473 17.855 c -0.094 -0.109 -0.137 -0.512 -0.113 -1 l 0.039 -0.824 l 0.777 -0.063 c 0.43 -0.039 1.145 -0.047 1.586 -0.023 c 0.785 0.043 0.805 0.055 0.805 0.406 c 0 0.199 0.094 0.441 0.207 0.535 c 0.297 0.246 0.43 0.664 0.289 0.93 c -0.102 0.195 -0.328 0.227 -1.777 0.227 c -1.273 0 -1.695 -0.043 -1.813 -0.184"/><path d="m 7.84 20.801 c -0.625 0.074 -0.063 -0.996 0.039 -1.918 l 1.988 -0.039 c 2.105 -0.035 2.344 0.02 2.344 0.551 c 0.086 0.496 0.789 1.547 0.27 1.492 c -0.402 0.215 -3.094 0.641 -4.641 -0.086"/><path d="m 6.188 19.871 c -0.277 -0.203 -0.648 -0.523 -0.82 -0.715 l -0.313 -0.34 h 0.723 c 1.059 0 1.133 0.051 1.133 0.793 c 0 0.348 -0.051 0.633 -0.109 0.633 c -0.063 0 -0.336 -0.168 -0.613 -0.371"/><path d="m 6.23 15.05 c -0.293 -0.176 -0.289 -0.57 0.016 -0.863 c 0.133 -0.125 0.281 -0.406 0.332 -0.617 c 0.125 -0.516 0.258 -0.582 1.191 -0.582 c 1.129 0.125 0.289 1.145 0.242 2.137 l -0.777 0.031 c -0.426 0.016 -0.879 -0.031 -1 -0.105"/><path d="m 8.875 15.1 c 0.363 -1.891 0.27 -1.953 0.582 -1.969 c 0.277 -0.016 0.895 0.219 0.621 0.324 c -0.328 0.125 -0.215 0.492 0.32 1.012 c 0.281 0.277 0.48 0.551 0.445 0.613 c -0.07 0.109 -1.578 0.125 -1.969 0.02"/><path d="m 3.938 14.949 c 0.117 -0.316 0.371 -0.578 0.383 -0.93 c 0.199 -1.02 0.793 -1.078 1.141 -1.016 c 0.336 0.066 0.359 0.777 0.035 1.074 c -0.203 0.855 -0.027 0.641 -0.371 0.789 c -0.5 0.211 -1.188 0.082 -1.188 0.082"/><path d="m 3.121 14.711 c -0.039 -0.066 -0.113 -0.48 -0.16 -0.926 l -0.094 -0.805 h 0.527 c 0.652 0 0.785 0.188 0.414 0.582 c -0.156 0.164 -0.355 0.52 -0.449 0.785 c -0.09 0.266 -0.195 0.43 -0.238 0.363"/><path d="m 13.07 17.953 c -0.105 -0.352 -0.188 -0.703 -0.41 -0.977 c -0.176 -0.211 -0.32 -0.531 -0.32 -0.707 v -0.324 l 0.355 0.254 c 0.195 0.141 0.496 0.41 0.668 0.594 c 0.445 0.469 1.543 0.824 1.957 0.527 c 0.598 -0.445 0.898 -0.422 0.898 0.066 c 0 0.246 -0.09 0.43 -0.25 0.516 c -0.273 0.148 -2.758 0.188 -2.898 0.051"/><path d="m 13.508 20.32 c -0.066 -0.414 -0.883 -1.16 -0.316 -1.426 c 0.27 -0.102 3.723 -0.102 3.988 0 c 0.656 0.25 -0.539 0.977 -2.316 1.406 c -0.496 0.117 -1.01 0.246 -1.133 0.281 c -0.172 0.051 -0.223 -0.012 -0.223 -0.262"/><path d="m 17.16 17.875 c -0.074 -0.09 -0.172 -0.492 -0.219 -0.898 c -0.09 -0.727 -0.082 -0.742 0.301 -0.941 c 0.652 -0.34 0.938 -0.258 1.668 0.484 c 0.371 0.375 0.676 0.746 0.676 0.82 c 0 0.074 -0.137 0.262 -0.301 0.418 c -0.246 0.23 -0.453 0.281 -1.148 0.281 c -0.523 0 -0.898 -0.063 -0.977 -0.164"/><path d="m 3.637 16.539 c -0.082 -0.215 -0.176 -0.449 -0.203 -0.52 c -0.078 -0.199 0.445 -0.188 0.551 0.012 c 0.16 0.301 0.063 0.895 -0.148 0.895 c -0.027 0 -0.117 -0.172 -0.199 -0.387"/><path d="m 19.484 14.922 c -0.375 -0.035 -0.875 0.012 -0.813 -0.25 c 0.051 -0.203 0.242 -0.309 0.652 -0.766 c 0.277 0.148 1.605 0.977 1.461 1.125 c -0.113 0.109 -0.773 -0.055 -1.301 -0.109"/><path d="m 20.863 14.195 c -0.094 -0.129 -0.367 -0.375 -0.602 -0.551 c -0.238 -0.172 -0.434 -0.332 -0.434 -0.355 c 0 -0.023 0.047 -0.105 0.102 -0.18 c 0.082 -0.117 0.191 -0.137 0.719 -0.121 c 0.34 0.008 0.637 0.027 0.652 0.047 c 0.035 0.035 -0.133 1.035 -0.211 1.254 c -0.047 0.129 -0.066 0.121 -0.227 -0.094"/><path d="m 19.11 15.766 c -0.477 -0.453 0.172 0.117 0.902 0.09 c 0.289 -0.012 0.48 0.047 0.48 0.07 c 0 0.047 -0.328 0.688 -0.426 0.828 c -0.039 0.063 -0.707 -0.754 -0.957 -0.988"/></g><path d="m 12.996 15.914 c -0.613 -0.531 -1.246 -0.969 -1.414 -0.973 c -0.508 -0.02 -1.297 -1.051 -0.965 -1.258 c 0.539 -1.574 1.66 -3.035 2.371 -4.484 c 0.863 -1.77 1.77 -3.754 1.836 -3.754 c 0.066 0 -0.027 2.992 -0.027 5.988 c 0 4.18 -0.078 5.453 -0.344 5.449 c -0.191 -0.004 -0.848 -0.438 -1.457 -0.969" fill="#f00"/><path d="m 15.04 11.582 c 0.063 -3.02 -0.082 -3.699 -0.102 -5.895 c 1.184 1.586 2.199 3.922 2.871 5.277 c 0.41 0.824 0.875 1.574 1.355 2.352 l -1.031 1.16 c -0.836 0.934 -2.789 2.363 -3.137 2.289 c 0.105 -1.992 0.043 -4.207 0.043 -5.184" fill="#7f0000"/><g fill="#c6c6be"><path d="m 11.957 9.188 c -0.117 -0.117 -0.156 -1.859 -0.055 -2.246 c 0.051 -0.188 0.113 -0.207 0.633 -0.207 c 0.316 0 0.641 0.023 0.719 0.055 c 0.242 0.094 0.164 0.5 -0.18 0.918 c -0.184 0.223 -0.313 0.477 -0.297 0.574 c 0.023 0.16 -0.527 1.016 -0.656 1.016 c -0.031 0 -0.105 -0.051 -0.164 -0.109"/><path d="m 17.14 9.01 c -0.18 -0.352 -0.195 -0.473 -0.137 -1.219 c 0.035 -0.457 0.109 -0.883 0.16 -0.945 c 0.063 -0.074 0.375 -0.113 0.938 -0.113 h 0.844 l 0.059 0.285 c 0.07 0.363 0.07 1.707 0 1.98 c -0.063 0.23 -0.16 0.262 -1.055 0.344 l -0.613 0.059"/><path d="m 20.262 12.16 l -0.297 -0.039 l 0.023 -0.93 l 0.027 -0.934 l 0.602 -0.027 l 0.605 -0.027 l 0.059 0.43 c 0.031 0.234 0.059 0.691 0.059 1.012 v 0.582 l -0.391 -0.016 c -0.211 -0.008 -0.523 -0.031 -0.688 -0.051"/><path d="m 20.08 9.219 c -0.09 -0.055 -0.113 -0.363 -0.094 -1.211 l 0.027 -1.137 l 0.309 0.641 c 0.293 0.613 0.648 1.547 0.648 1.707 c 0 0.102 -0.738 0.102 -0.891 0"/><path d="m 17.191 5.676 c -0.109 -0.109 -0.141 -0.344 -0.141 -1.012 v -0.867 l 0.277 0.164 c 0.469 0.277 1.637 1.406 1.637 1.582 c 0 0.227 -0.176 0.277 -0.957 0.277 c -0.488 0 -0.711 -0.039 -0.816 -0.145"/><path d="m 18.258 11.219 c -0.262 -0.5 -0.48 -0.934 -0.48 -0.957 c 0 -0.027 0.266 -0.051 0.586 -0.051 c 0.676 0 0.691 0.02 0.691 1.023 c 0.004 1.191 -0.164 1.188 -0.797 -0.016"/><path d="m 7.395 5.742 c -0.066 -0.043 -0.137 -0.371 -0.172 -0.813 l -0.055 -0.742 l 0.535 -0.27 c 1.012 -0.508 0.949 -0.547 0.949 0.574 c 0 1.234 -0.047 1.328 -0.664 1.324 c -0.262 0 -0.527 -0.031 -0.594 -0.074"/><path d="m 5.73 5.316 c 0.273 -0.277 0.523 -0.504 0.559 -0.504 c 0.098 0 -0.027 0.863 -0.137 0.938 c -0.055 0.035 -0.285 0.066 -0.508 0.066 l -0.41 0.004"/><path d="m 3.402 9.05 c 0.035 -0.141 0.18 -0.52 0.324 -0.848 l 0.266 -0.594 l 0.004 0.789 c 0.004 0.836 -0.031 0.902 -0.473 0.902 c -0.156 0 -0.176 -0.039 -0.121 -0.25"/></g></svg>