<svg xmlns="http://www.w3.org/2000/svg" viewBox="0 0 24 24"><defs><linearGradient id="0" gradientUnits="userSpaceOnUse" x1="-36.14" x2="-26.548" gradientTransform="matrix(1.14277 0 0 1.13766 47.648 -448.06)"><stop stop-color="#e2eaec"/><stop offset="1" stop-color="#fff"/></linearGradient></defs><path d="m 5.641 2.473 c 12.273 -8.629 24.711 7.309 14.711 17.473 c -9.422 9.582 -24.06 0.699 -19.488 -11.219 c 0.957 -2.488 2.523 -4.668 4.777 -6.254" fill="#bec3c8"/><path d="m 6.348 6.516 h 11.621 v 11.898 h -11.621" fill="#95a4a5"/><path d="m 6.348 6.48 h 10.973 v 10.914 h -10.973" fill="url(#0)"/><path d="m 10.293 10.57 c -0.184 0 -0.352 0.035 -0.504 0.102 c -0.152 0.07 -0.285 0.164 -0.398 0.285 c -0.109 0.121 -0.191 0.262 -0.25 0.422 c -0.059 0.164 -0.086 0.336 -0.086 0.52 c 0 0.184 0.027 0.355 0.086 0.516 c 0.059 0.16 0.141 0.301 0.25 0.426 c 0.113 0.121 0.246 0.215 0.398 0.285 c 0.152 0.066 0.324 0.098 0.504 0.098 c 0.16 0 0.305 -0.023 0.441 -0.07 c 0.133 -0.047 0.25 -0.117 0.352 -0.203 c 0.102 -0.09 0.18 -0.199 0.238 -0.328 c 0.063 -0.133 0.098 -0.277 0.105 -0.441 h -0.648 c -0.012 0.148 -0.059 0.266 -0.145 0.348 c -0.086 0.082 -0.207 0.125 -0.355 0.125 c -0.102 0 -0.188 -0.02 -0.262 -0.063 c -0.074 -0.039 -0.133 -0.098 -0.18 -0.168 c -0.047 -0.074 -0.082 -0.152 -0.105 -0.246 c -0.02 -0.09 -0.031 -0.184 -0.031 -0.281 c 0 -0.098 0.012 -0.191 0.031 -0.281 c 0.023 -0.09 0.059 -0.172 0.105 -0.242 c 0.047 -0.074 0.105 -0.129 0.18 -0.168 c 0.074 -0.043 0.164 -0.066 0.262 -0.066 c 0.141 0 0.254 0.035 0.34 0.105 c 0.094 0.066 0.145 0.16 0.164 0.289 h 0.645 c -0.004 -0.148 -0.039 -0.281 -0.105 -0.398 c -0.066 -0.125 -0.152 -0.227 -0.262 -0.309 c -0.109 -0.086 -0.23 -0.152 -0.363 -0.191 c -0.133 -0.043 -0.266 -0.066 -0.402 -0.066 m 4.316 0.059 v 2.547 h 0.59 v -2.547 m -3.316 0.137 v 0.559 h -0.301 v 0.391 h 0.301 v 0.824 c 0 0.133 0.008 0.238 0.027 0.324 c 0.02 0.078 0.055 0.145 0.102 0.195 c 0.047 0.047 0.109 0.082 0.191 0.102 c 0.082 0.023 0.188 0.035 0.313 0.035 c 0.043 0 0.102 -0.004 0.184 -0.012 c 0.063 -0.004 0.109 -0.008 0.141 -0.008 v -0.445 c -0.02 0 -0.047 0 -0.082 0.004 c -0.031 0 -0.055 0.004 -0.07 0.004 c -0.074 0 -0.129 -0.012 -0.16 -0.039 c -0.035 -0.023 -0.055 -0.074 -0.055 -0.141 v -0.844 h 0.367 v -0.391 h -0.367 v -0.559 m 1.777 0.523 c -0.129 0 -0.238 0.031 -0.336 0.094 c -0.094 0.063 -0.164 0.148 -0.207 0.266 h -0.008 v -0.324 h -0.574 v 1.852 h 0.59 v -0.918 c 0 -0.121 0.043 -0.227 0.121 -0.309 c 0.078 -0.086 0.188 -0.129 0.324 -0.129 c 0.066 0 0.141 0.012 0.227 0.035 v -0.551 c -0.039 -0.012 -0.086 -0.016 -0.137 -0.016" fill="#7f8c8d"/></svg>