<svg xmlns="http://www.w3.org/2000/svg" viewBox="0 0 24 24"><path d="m 21.21 19.836 c 5.84 -8.977 1.129 -17.16 -5.48 -19.1 c -8.891 -2.609 -20.961 4.25 -13.01 18.387 c 3.16 5.617 14.328 7.105 18.488 0.711" fill="#d44a4a"/><path d="m 10.07 18.48 c -2.09 -0.738 -3.531 -2.305 -4.16 -4.512 c -0.184 -0.645 -0.23 -2.164 -0.09 -2.867 c 0.098 -0.477 0.449 -1.465 0.68 -1.895 l 0.109 -0.203 l 0.301 0.52 c 0.168 0.281 0.848 1.457 1.512 2.609 c 1.242 2.156 1.422 2.41 2.01 2.809 c 1.01 0.684 2.539 0.617 3.516 -0.152 l 0.223 -0.176 v 3.875 l -0.223 0.059 c -0.586 0.152 -0.734 0.18 -1.23 0.238 c -0.945 0.09 -1.777 -0.004 -2.645 -0.305" fill="#aa3b3b"/><path d="m 11.395 18.25 c -2.082 -0.219 -4.03 -1.586 -4.941 -3.477 c -0.5 -1.039 -0.699 -1.969 -0.656 -3.098 c 0.023 -0.699 0.105 -1.152 0.316 -1.797 c 0.125 -0.367 0.527 -1.246 0.59 -1.285 c 0.016 -0.008 0.641 1.059 1.387 2.371 c 0.746 1.316 1.43 2.508 1.523 2.648 c 0.301 0.457 0.824 0.879 1.359 1.094 c 0.957 0.387 2.191 0.191 2.945 -0.469 l 0.203 -0.176 v 3.875 l -0.086 0.023 c -0.922 0.23 -1.883 0.363 -2.641 0.289" fill="#fff"/><path d="m 10.844 13.867 c -0.074 -0.168 -0.055 -3.07 0.023 -3.191 c 0.059 -0.098 0.113 -0.078 0.617 0.195 c 0.938 0.516 1.992 1.305 1.938 1.457 c -0.078 0.219 -2.238 1.641 -2.496 1.641 c -0.02 0 -0.059 -0.047 -0.082 -0.102" fill="#aa3b3b"/><path d="m 10.918 13.547 c -0.141 -0.363 -0.117 -3.164 0.027 -3.309 c 0.063 -0.063 0.906 0.438 1.535 0.918 c 0.418 0.316 0.797 0.68 0.797 0.758 c 0 0.223 -1.738 1.508 -2.254 1.668 c -0.059 0.02 -0.09 0.008 -0.105 -0.035" fill="#fff"/><path d="m 8.367 10.227 c -0.418 -0.715 -0.848 -1.469 -0.961 -1.676 l -0.199 -0.379 l 0.359 -0.332 c 1.289 -1.191 2.676 -1.797 4.27 -1.863 c 1.125 -0.047 1.938 0.133 3.01 0.664 c 1.102 0.547 1.871 1.219 2.594 2.266 l 0.309 0.441 l -3.172 0.031 c -3.086 0.027 -3.18 0.031 -3.52 0.16 c -0.77 0.293 -1.363 0.832 -1.723 1.566 l -0.207 0.422 c -0.254 -0.434 -0.508 -0.867 -0.762 -1.301" fill="#aa3b3b"/><path d="m 8.238 9.434 l -0.949 -1.668 l 0.188 -0.207 c 0.648 -0.707 1.695 -1.375 2.652 -1.688 c 1.305 -0.43 2.492 -0.438 3.785 -0.023 c 0.477 0.152 1.34 0.594 1.781 0.91 c 0.66 0.473 1.387 1.273 1.781 1.969 l 0.109 0.191 h -2.906 c -2.496 0 -2.945 0.008 -3.199 0.063 c -0.949 0.191 -1.691 0.785 -2.105 1.68 c -0.074 0.16 -0.133 0.316 -0.133 0.348 c 0 0.031 -0.012 0.066 -0.027 0.074 c -0.016 0.012 -0.457 -0.73 -0.977 -1.648" fill="#fff"/><path d="m 15.09 14.844 c -0.027 -2.973 -0.035 -3.125 -0.152 -3.453 c -0.145 -0.395 -0.32 -0.699 -0.535 -0.93 l -0.148 -0.16 c 1.277 0.008 2.559 0.02 3.836 0.031 l 0.105 0.367 c 0.496 1.723 0.172 3.656 -0.867 5.195 c -0.539 0.793 -1.445 1.676 -2.047 1.98 l -0.16 0.082" fill="#aa3b3b"/><path d="m 14.996 14.445 c -0.012 -3.035 -0.016 -3.09 -0.098 -3.348 c -0.152 -0.488 -0.371 -0.891 -0.637 -1.172 l -0.117 -0.125 l 1.918 0.012 l 1.914 0.008 l 0.07 0.23 c 0.379 1.234 0.359 2.676 -0.047 3.852 c -0.523 1.496 -1.566 2.809 -2.813 3.523 l -0.18 0.105 c -0.004 -1.031 -0.008 -2.059 -0.012 -3.086" fill="#fff"/></svg>