<svg xmlns="http://www.w3.org/2000/svg" viewBox="0 0 24 24"><path d="m 9.313 23.59 c -22.266 -4.648 1.637 -36.609 12.953 -17.41 c 4.852 7.461 -1.504 19.797 -12.953 17.41" fill="#0d1e45"/><path d="m 80.17 213.79 c -2 -0.167 -5.625 -1.542 -5.625 -2.125 c 0 -0.25 0.333 -1.125 0.75 -1.917 c 0.75 -1.375 0.792 -1.417 2.208 -0.708 c 0.75 0.417 2.542 0.75 3.917 0.75 c 2 0 2.75 -0.25 3.708 -1.208 l 1.208 -1.208 v -21.5 h 4.958 l -0.167 11.08 c -0.125 10.08 -0.25 11.292 -1.125 12.792 c -0.542 0.917 -1.542 2.042 -2.208 2.583 c -1.333 0.958 -5.167 1.708 -7.625 1.458" transform="scale(0.09375)" fill="#fff" stroke="#fff" stroke-width="0.957"/><path d="m 4.805 8.02 c 2.219 3.813 6.523 -3.066 6.918 -3.203 c 0.363 -0.453 1.918 -1.01 3.816 1.922 c 0.316 0.406 1.246 0.711 1.715 -0.227 c -0.074 0.086 -0.73 -0.57 -1.145 -0.918 c 0.496 0.203 0.918 0.07 1.527 0.824 c 0.438 0.016 0.977 0.09 1.668 0.598 c 0.523 0.59 -1.012 0.391 -1.621 0.547 c -1.145 0.652 -1 1.883 -1.859 1.602 c -0.559 1.711 -1.027 1.75 -1.336 1.422 c 1.305 -1.086 0.613 -1.602 0 -1.605 c -0.855 0.227 -0.73 1.477 -0.191 3.16 c 1.559 -0.008 2.641 0.551 3.77 0.594 c -0.883 0.629 -1.453 -0.211 -4.055 -0.043 c -0.645 -2.438 -2.102 -4.582 -4.199 -4.395 c -3.918 2.941 -4.453 1.453 -5.01 -0.277" fill="#e6be19"/><g fill="#fff" stroke="#fff" stroke-width="0.957" transform="scale(0.09375)"><path d="m 54.29 171.71 c -6.542 -1.667 -10 -7.125 -9.542 -15.12 c 0.167 -2.917 0.542 -4.292 1.667 -6.375 c 1.625 -3.042 4.667 -5.542 7.667 -6.375 c 2.625 -0.708 8.583 -0.292 10.583 0.75 c 1.5 0.75 1.542 0.833 0.917 2.375 c -0.375 0.833 -0.833 1.5 -1 1.458 c -5.833 -1.5 -9.25 -1.292 -11.667 0.708 c -4.792 4.04 -4.5 14.25 0.5 17.583 c 1.292 0.875 2.375 1.083 4.917 1.083 c 1.792 0 4 -0.208 4.917 -0.458 c 1.917 -0.542 2.25 -0.333 2.75 1.583 c 0.292 1.167 0.125 1.417 -1.333 2.042 c -2.167 0.875 -8 1.292 -10.375 0.75"/><path d="m 71.63 157.79 v -13.917 h 4.375 v 11.25 h 12.75 v -11.25 h 4.917 v 27.833 h -4.917 v -12.708 h -12.75 v 12.708 h -4.375"/><path d="m 100.54 158.08 c 0 -12.167 0.083 -13.625 0.792 -13.917 c 1.417 -0.542 10.958 -0.375 12.833 0.25 c 3.833 1.25 6.417 4.417 6.458 7.958 c 0 2.375 -1.75 5.375 -3.875 6.542 l -1.917 1.083 l 2.583 3.792 c 1.417 2.083 3.083 4.708 3.667 5.833 l 1.042 2.083 h -2.625 c -2.417 0 -2.667 -0.125 -3.25 -1.333 c -0.333 -0.75 -1.792 -3.167 -3.292 -5.375 l -2.667 -4.04 h -4.875 v 10.75 h -4.875 m 14 -16.25 c 1.583 -1.833 1.583 -4.25 0 -6.04 c -1.083 -1.25 -1.5 -1.375 -5.125 -1.542 l -4 -0.208 v 9.5 l 4 -0.167 c 3.625 -0.167 4.04 -0.292 5.125 -1.542"/><path d="m 134.83 171.54 c -6.083 -1.667 -9.458 -6.625 -9.5 -13.792 c 0 -3.5 0.208 -4.375 1.583 -7.208 c 2.583 -5.167 6.792 -7.458 12.875 -7.04 c 2.417 0.167 3.917 0.583 5.583 1.583 c 9 5.25 8.792 20.958 -0.375 25.375 c -3.125 1.5 -7.167 1.958 -10.167 1.083 m 8.375 -4.833 c 0.875 -0.625 2.042 -1.917 2.583 -2.958 c 1.167 -2.292 1.625 -7.25 0.875 -10 c -2.083 -7.542 -11.708 -8.75 -15.375 -1.917 c -0.875 1.625 -1.083 2.875 -1.083 5.958 c 0 3.375 0.167 4.208 1.333 6.167 c 1.625 2.75 3.625 3.833 7.292 3.833 c 2.042 0 3.125 -0.25 4.375 -1.083"/><path d="m 157.88 157.75 v -13.917 l 2.083 0.125 c 1.875 0.167 2.292 0.458 5.04 3.708 c 1.625 1.917 4.708 6.04 6.875 9.125 c 2.125 3.083 4.083 5.583 4.292 5.625 c 0.167 0 0.333 -4.167 0.333 -9.25 v -9.292 h 4.417 v 27.833 h -1.833 c -1.833 0 -1.833 -0.042 -7.125 -7.958 c -2.875 -4.333 -6.125 -8.917 -7.208 -10.125 l -1.917 -2.167 v 10.125 l -0.042 10.125 h -4.917"/><path d="m 196.46 171.54 c -7.917 -2.25 -11.792 -12.167 -7.958 -20.583 c 1.417 -3.125 3.292 -4.958 6.583 -6.5 c 4.833 -2.208 11.5 -0.917 15.13 2.917 c 4.292 4.625 4.625 14.333 0.667 19.792 c -2.792 3.833 -9.292 5.792 -14.417 4.375 m 8.5 -4.833 c 2.208 -1.5 3.5 -4.167 3.792 -7.833 c 0.583 -7.333 -3.375 -12.12 -9.458 -11.458 c -4.542 0.5 -7.25 4.167 -7.292 9.875 c 0 4.04 0.75 6.5 2.542 8.333 c 1.792 1.75 2.792 2.125 6.04 2.167 c 2.083 0 3.167 -0.25 4.375 -1.083"/><path d="m 162.79 199.58 v -13.625 l 4.542 -0.333 c 4.708 -0.333 8.667 0.167 11.04 1.417 c 4.25 2.208 5.708 7.04 3.417 11.542 c -1.583 3.083 -4.417 4.417 -10.167 4.75 l -4.417 0.25 v 9.625 h -4.417 m 12.25 -14.292 c 3.167 -1.083 4 -5.25 1.542 -7.667 c -1.042 -1.042 -2.042 -1.458 -4.125 -1.75 c -1.542 -0.167 -3.333 -0.167 -4 0 c -1.25 0.292 -1.25 0.375 -1.25 5.167 v 4.875 l 3.042 -0.042 c 1.708 0 3.833 -0.292 4.792 -0.583"/><path d="m 126.63 208.46 c 0.167 -2.625 0.625 -8.458 1.042 -12.958 c 0.375 -4.542 0.708 -8.542 0.708 -8.917 c 0 -0.542 0.625 -0.708 2.375 -0.708 h 2.375 l 2.917 6.208 c 1.625 3.417 3.458 7.5 4.125 9.04 c 0.667 1.542 1.292 2.792 1.417 2.792 c 0.125 0 0.792 -1.25 1.458 -2.792 c 0.625 -1.542 2.5 -5.625 4.125 -9.04 l 2.917 -6.25 l 2.25 0.125 l 2.25 0.167 l 0.333 3.167 c 0.167 1.75 0.542 6.792 0.833 11.208 c 0.333 4.458 0.667 9.125 0.792 10.375 l 0.208 2.333 h -4.708 l -0.375 -8.75 c -0.167 -4.792 -0.5 -9.333 -0.667 -10.08 c -0.375 -1.333 -1.083 -0.042 -6.667 12.625 c -1.125 2.583 -1.333 2.792 -2.833 2.792 h -1.625 l -3.667 -8.292 c -2 -4.583 -3.792 -8.292 -3.958 -8.292 c -0.333 0 -0.958 8.625 -0.958 13.667 c 0 1.792 -0.125 3.958 -0.292 4.792 c -0.292 1.458 -0.458 1.542 -2.5 1.542 h -2.167"/><path d="m 103.58 212.88 c -2.167 -1.042 -4.375 -3.625 -5 -5.875 c -0.25 -1 -0.5 -6.167 -0.5 -11.5 v -9.625 h 4.417 l 0.042 8.167 c 0 10.583 0.333 12.625 2.333 14.375 c 2.708 2.417 7.875 1.667 9.417 -1.375 c 0.5 -1.042 0.708 -4 0.833 -11.292 l 0.167 -9.875 h 4.375 l -0.042 10.125 c 0 8.833 -0.125 10.375 -0.917 12.08 c -1.042 2.292 -3.125 4.375 -5.083 5.083 c -2.125 0.792 -8.167 0.625 -10.04 -0.292"/></g></svg>