<svg xmlns="http://www.w3.org/2000/svg" viewBox="0 0 24 24"><path d="m 22.953 8.199 c 4.66 11.945 -8.395 18.07 -16.52 15.03 c -5.672 -2.125 -8.5 -10.594 -4.473 -17.441 c 5.086 -8.637 17.402 -6.801 20.992 2.414" fill="#fc3566"/><path d="m 11.223 18.469 c -1.352 -0.109 -2.938 -1.039 -3.852 -2.25 c -0.359 -0.477 -0.566 -0.887 -0.836 -1.652 c -0.121 -0.332 -0.242 -0.613 -0.273 -0.625 c -0.109 -0.035 -0.168 0.207 -0.203 0.871 c -0.043 0.746 -0.07 0.82 -0.371 1.027 c -0.352 0.238 -0.953 0.051 -1.453 -0.453 c -0.48 -0.484 -0.688 -1.098 -0.645 -1.926 c 0.043 -0.891 0.219 -1.227 0.926 -1.773 c 0.488 -0.371 0.57 -0.484 0.656 -0.906 c 0.168 -0.816 0.609 -1.836 1.133 -2.617 c 0.359 -0.539 1.469 -1.621 1.938 -1.895 c 0.684 -0.395 1.512 -0.75 2.203 -0.938 c 0.332 -0.094 0.492 -0.105 1.34 -0.105 c 1.328 0 1.621 0.063 2.793 0.609 c 0.84 0.391 1.168 0.613 1.789 1.211 c 0.852 0.824 1.168 1.277 1.637 2.348 c 0.227 0.52 0.301 0.746 0.512 1.535 c 0.055 0.207 0.117 0.305 0.293 0.473 c 0.898 0.848 0.996 0.953 1.086 1.16 c 0.277 0.641 0.238 1.676 -0.086 2.336 c -0.352 0.707 -1.332 1.23 -1.828 0.969 c -0.293 -0.156 -0.332 -0.254 -0.371 -0.957 c -0.035 -0.645 -0.105 -0.898 -0.246 -0.926 c -0.055 -0.008 -0.102 0.074 -0.18 0.328 c -0.168 0.566 -0.289 0.895 -0.426 1.164 c -0.625 1.23 -2.059 2.414 -3.406 2.809 c -0.586 0.172 -1.418 0.246 -2.129 0.184 m 5.289 -4.523 c 0.16 -0.102 0.191 -0.293 0.059 -0.398 c -0.055 -0.047 -0.156 -0.086 -0.219 -0.086 c -0.273 0 -0.594 -0.289 -0.59 -0.523 c 0.008 -0.223 0.148 -0.379 0.465 -0.512 c 0.371 -0.156 0.391 -0.172 0.391 -0.32 c 0 -0.219 -0.141 -0.305 -0.461 -0.277 c -0.68 0.063 -1.039 0.508 -0.98 1.215 c 0.047 0.527 0.215 0.742 0.727 0.918 c 0.32 0.105 0.418 0.105 0.609 -0.016 m -5.5 -0.012 c 0.23 -0.102 0.461 -0.359 0.543 -0.598 c 0.039 -0.113 0.063 -0.402 0.066 -0.758 c 0 -0.52 -0.012 -0.586 -0.094 -0.648 c -0.098 -0.07 -0.254 -0.047 -0.336 0.059 c -0.027 0.035 -0.066 0.277 -0.082 0.539 c -0.02 0.262 -0.066 0.555 -0.105 0.648 c -0.109 0.281 -0.414 0.367 -0.641 0.191 c -0.18 -0.141 -0.238 -0.379 -0.203 -0.801 c 0.035 -0.418 -0.02 -0.594 -0.195 -0.641 c -0.078 -0.02 -0.141 0.004 -0.215 0.074 c -0.09 0.094 -0.102 0.148 -0.094 0.605 c 0.008 0.813 0.156 1.16 0.578 1.344 c 0.223 0.094 0.547 0.09 0.777 -0.016 m -3.812 -0.016 c 0.047 -0.031 0.129 -0.188 0.191 -0.34 c 0.102 -0.266 0.117 -0.281 0.254 -0.277 c 0.082 0.004 0.211 0.055 0.289 0.109 l 0.141 0.102 l 0.195 -0.102 c 0.211 -0.109 0.277 -0.078 0.277 0.125 c 0 0.16 0.094 0.383 0.176 0.414 c 0.121 0.047 0.246 -0.02 0.281 -0.152 c 0.02 -0.07 0.035 -0.488 0.035 -0.93 c 0 -0.938 -0.012 -0.969 -0.348 -0.945 l -0.215 0.012 l -0.172 0.352 c -0.098 0.195 -0.203 0.359 -0.238 0.367 c -0.074 0.016 -0.242 -0.141 -0.477 -0.449 c -0.195 -0.254 -0.383 -0.367 -0.535 -0.316 c -0.133 0.039 -0.148 0.109 -0.18 0.75 c -0.035 0.66 0.008 1.172 0.109 1.27 c 0.082 0.086 0.113 0.086 0.215 0.012 m 5.84 -0.012 c 0.137 -0.043 0.305 -0.137 0.387 -0.215 c 0.219 -0.223 0.195 -0.379 -0.117 -0.793 c -0.141 -0.191 -0.258 -0.375 -0.258 -0.414 c 0 -0.035 0.055 -0.129 0.121 -0.207 c 0.18 -0.219 0.141 -0.332 -0.137 -0.387 c -0.309 -0.059 -0.574 0.035 -0.723 0.25 c -0.195 0.293 -0.137 0.492 0.258 0.898 c 0.109 0.113 0.199 0.234 0.199 0.266 c 0 0.035 -0.117 0.137 -0.258 0.227 c -0.293 0.188 -0.336 0.316 -0.129 0.391 c 0.188 0.07 0.387 0.063 0.656 -0.016 m 1.477 -0.043 c 0.02 -0.027 0.035 -0.48 0.035 -1 l 0.004 -0.953 l -0.273 0.016 l -0.27 0.012 l -0.012 0.777 c -0.02 0.996 0.004 1.152 0.168 1.211 c 0.141 0.051 0.297 0.023 0.348 -0.059 m 2.977 -2.117 c 0.238 -0.367 -0.199 -1.895 -0.82 -2.855 c -0.402 -0.625 -1.145 -1.387 -1.703 -1.75 c -0.941 -0.609 -1.883 -0.871 -3.137 -0.871 c -1.328 0 -2.375 0.313 -3.328 0.988 c -0.445 0.316 -1.121 1.016 -1.422 1.469 c -0.746 1.125 -1.188 2.492 -0.953 2.945 c 0.043 0.082 0.102 0.145 0.133 0.133 c 0.031 -0.008 0.121 -0.211 0.203 -0.441 c 0.266 -0.781 0.949 -1.887 1.5 -2.43 c 1.148 -1.137 2.945 -1.734 4.57 -1.523 c 1.109 0.141 1.828 0.473 2.898 1.336 c 0.672 0.543 1.434 1.691 1.719 2.602 c 0.18 0.57 0.207 0.602 0.34 0.398" fill="#fff"/></svg>