<svg xmlns="http://www.w3.org/2000/svg" viewBox="0 0 24 24"><path d="m 3.48 19.797 c 24.973 18.922 28.52 -33.15 3.03 -16.438 c -5.813 3.809 -9.645 11.426 -3.03 16.438" fill="#ff8c00"/><path d="m 13.293 5.113 c -1.57 0.023 -3.195 0.484 -4.645 1.402 l -2.262 0.816 l 0.617 0.527 c -2.313 2.43 -2.789 5.879 -0.926 8.402 c 2.215 2.996 6.906 3.559 10.508 1.27 l 2.262 -0.816 l -0.617 -0.523 c 2.313 -2.43 2.789 -5.883 0.926 -8.402 c -1.324 -1.793 -3.531 -2.715 -5.863 -2.676" fill="#fffafa"/><path d="m 16.379 17.387 c -3.094 1.969 -7.305 1.234 -9.434 -1.648 c -2.129 -2.879 -1.379 -6.824 1.676 -8.844 c 2 -1.32 4.609 -1.535 6.824 -0.559 c 2.219 0.973 3.707 2.984 3.898 5.273 c 0.191 2.285 -0.938 4.488 -2.965 5.777" fill="#ff8c00" fill-rule="evenodd"/></svg>