<svg xmlns="http://www.w3.org/2000/svg" viewBox="0 0 24 24"><path d="m 4.543 3.586 c 21.281 -14.977 28.05 23.969 5.441 20.11 c -8.996 -2.047 -13.969 -14.11 -5.441 -20.11" fill="#4562c7" fill-opacity="0.957"/><path d="m 279.63 79.86 c -6.605 -1.023 -7.748 -1.76 -10.204 -6.425 c -1.694 -3.192 -2.032 -8.757 -2.456 -38.711 l -0.508 -34.987 l 5.123 -5.279 l 5.081 -5.279 l 29.849 0.45 c 31.08 0.491 32.601 0.737 38.36 5.974 c 2.583 2.373 2.625 2.987 2.625 27.458 c 0 25.985 -0.677 30.527 -5.165 34.29 c -1.524 1.269 -7.452 1.882 -23.16 2.537 c -20.03 0.777 -24.387 1.637 -22.694 4.338 c 2.159 3.56 36.412 10.271 42.805 8.43 c 7.07 -2.046 11.347 -6.425 13.93 -14.363 c 4.869 -14.731 14.184 -53.77 14.184 -59.33 c 0 -6.957 -3.472 -12.767 -9.357 -15.673 c -2.244 -1.105 -9.357 -3.315 -15.792 -4.951 c -16.301 -4.092 -57.793 -12.358 -62.11 -12.358 c -5.165 -0.041 -13.591 4.665 -16.05 8.921 c -1.143 2.046 -4.276 12.07 -6.859 22.302 c -5.04 19.601 -6.181 22.67 -8.256 22.67 c -1.736 0 -0.55 -37.893 1.313 -42.762 c 1.948 -4.992 5.589 -8.552 12.363 -12.153 l 5.843 -3.11 l 33.24 -0.368 c 18.248 -0.205 41.03 0.164 50.595 0.777 c 19.815 1.269 22.736 2.373 28.536 10.598 l 3.514 5.03 l 0.381 39.611 c 0.212 25.13 -0.085 41.29 -0.847 44.15 c -1.694 6.302 -7.198 12.563 -13.845 15.754 c -5.462 2.578 -6.647 2.66 -45.39 2.987 c -21.889 0.164 -42.17 -0.082 -45.05 -0.532 m 51.95 -43.867 c 0.931 -1.432 2.329 -6.02 3.048 -10.11 c 1.101 -6.22 1.058 -7.816 -0.296 -9.166 c -2.159 -2.169 -13.08 -4.992 -19.264 -5.03 c -4.361 0 -5.165 0.409 -6.859 3.642 c -1.016 2.01 -2.159 6.343 -2.498 9.657 c -0.762 7.366 0.889 9.248 10.246 11.785 c 9.526 2.578 13.633 2.373 15.623 -0.777" transform="matrix(0.09226 0 0 0.09546 -17.16 10.154)" fill="#fff" stroke="#fff" stroke-width="0.207"/></svg>