<svg xmlns="http://www.w3.org/2000/svg" viewBox="0 0 24 24"><path d="m 12.04 0.09 c 16.11 -1.816 15.883 24.2 -0.285 23.891 c -15.04 0.855 -16.395 -25.309 0.285 -23.891" fill="#ffc32d"/><path d="m 7.504 6.531 h 8.469 c 0.828 0 1.496 0.879 1.496 1.965 v 7.379 c 0 1.086 -0.668 1.965 -1.496 1.965 h -8.469 c -0.828 0 -1.5 -0.879 -1.5 -1.965 v -7.379 c 0 -1.086 0.672 -1.965 1.5 -1.965" fill="#fff"/><path d="m 7.117 17.973 c -0.898 -0.234 -1.098 -0.859 -1.125 -1.531 c -0.078 0 -0.094 -0.766 -0.094 -4.727 c 0 -3.734 0.02 -4.723 0.086 -4.727 c 0.414 -0.434 0.656 -0.641 1.207 -1.273 c 0 -0.066 0.531 -0.082 2.242 -0.082 h 2.246 c 0 1.199 0 2.402 0 3.602 h -2.602 l -2.602 0.004 c -0.102 0.105 -0.203 0.215 -0.305 0.32 l 0.004 2.883 c 0.004 2.848 0.02 3.121 0.227 4.02 c 0.141 0.602 0.211 0.727 0.414 0.727 c 0.105 0 0.258 0.102 0.418 0.273 l 0.25 0.273 h 2.352 c 0.031 -0.227 0.063 -0.453 0.094 -0.68 c 0.582 0 1.164 0 1.75 0 c 0 0.293 0 0.734 0 1.027 l -2.242 0.027 c -1.043 0.055 -1.516 -0.082 -2.32 -0.137" fill="#b933cd"/><g fill="#16aade"><path d="m 16.516 17.887 c 0.875 -0.219 0.891 -0.875 1.031 -1.426 c 0.078 0 0.094 -0.766 0.094 -4.727 c 0 -3.734 -0.016 -4.723 -0.086 -4.727 c -0.414 -0.434 -0.609 -0.711 -1.203 -1.273 c -1.598 -0.145 -2.551 -0.082 -4.488 -0.082 c 0 1.199 0 2.402 0 3.602 h 2.598 l 2.602 0.004 c 0.102 0.105 0.203 0.215 0.309 0.32 l -0.008 2.883 c -0.004 2.852 -0.02 3.121 -0.227 4.02 c -0.137 0.598 -0.211 0.727 -0.414 0.727 c -0.105 0 -0.254 0.098 -0.414 0.27 l -0.254 0.273 h -2.352 c -0.031 -0.227 -0.063 -0.453 -0.09 -0.68 c -0.586 0 -1.168 0 -1.75 0 c -0.008 0.336 0.008 0.668 0.023 1 l 1.938 0.02 c 0.949 0.051 2.01 0.055 2.691 -0.211"/><path d="m 11.23 14.199 c -0.559 -0.16 -1.113 -0.355 -1.508 -0.707 c -0.363 -0.328 -0.93 -0.988 -1.102 -1.281 c -0.047 -0.082 -0.141 -0.227 -0.203 -0.324 c -0.23 -0.34 -0.344 -0.648 -0.301 -0.813 c 0.039 -0.148 0.34 -0.363 0.465 -0.332 c 0.066 0.016 0.262 0.301 0.457 0.672 c 0.43 0.805 0.926 1.367 1.512 1.719 c 0.207 0.121 0.602 0.262 0.879 0.313 l 0.164 0.031 c 0 0.254 0 0.504 0 0.758 c -0.125 0 -0.25 -0.012 -0.363 -0.035"/></g><path d="m 12.152 14.199 c 0.277 -0.055 0.629 -0.184 0.977 -0.359 c 0.27 -0.137 0.379 -0.207 0.535 -0.348 c 0.52 -0.469 0.926 -1.039 1.305 -1.605 c 0.23 -0.34 0.344 -0.648 0.301 -0.813 c -0.039 -0.148 -0.34 -0.363 -0.465 -0.332 c -0.066 0.016 -0.262 0.301 -0.461 0.672 c -0.426 0.805 -0.922 1.367 -1.508 1.719 c -0.207 0.121 -0.602 0.262 -0.879 0.313 l -0.164 0.031 c 0 0.254 0 0.504 0 0.758 c 0.121 0 0.25 -0.012 0.359 -0.035" fill="#b933cd"/><path d="m 8.953 7.848 v -1.34 h 2.418 v 2.684 h -2.418" fill="#ff7d2d"/><path d="m 12.203 7.852 v -1.371 h 2.418 v 2.746 h -2.418" fill="#31cd31"/></svg>