<svg xmlns="http://www.w3.org/2000/svg" viewBox="0 0 24 24"><path d="m 23 9.746 c -2.391 -16 -26.973 -10.539 -22.324 4.949 c 3.117 14.715 28.28 10.73 22.324 -4.949" fill="#ffa400"/><path d="m 11.414 16.844 c -0.191 -0.055 -0.48 -0.207 -0.648 -0.352 l -0.301 -0.258 h -3.488 c -2.988 0 -3.496 -0.016 -3.574 -0.102 c -0.074 -0.086 -0.035 -0.309 0.211 -1.172 c 0.164 -0.59 0.383 -1.367 0.484 -1.734 c 0.102 -0.367 0.285 -1.027 0.41 -1.469 c 0.895 -3.227 0.816 -3.01 1.086 -3.01 c 0.109 0 0.289 -0.102 0.465 -0.27 c 0.156 -0.148 0.398 -0.324 0.543 -0.395 c 0.363 -0.172 0.512 -0.313 0.633 -0.582 c 0.082 -0.184 0.133 -0.227 0.234 -0.184 c 0.363 0.141 0.41 0.094 0.559 -0.527 c 0.199 -0.852 0.281 -0.898 0.574 -0.324 c 0.332 0.656 0.621 0.848 1.262 0.844 c 0.27 0 0.758 -0.027 1.086 -0.063 c 0.754 -0.07 0.977 0.02 1.348 0.566 c 0.258 0.379 0.27 0.391 0.535 0.348 c 1.363 -0.211 1.762 -0.211 3.03 0.004 c 0.656 0.109 0.688 0.109 1.125 -0.027 c 0.477 -0.152 0.543 -0.145 0.684 0.102 c 0.117 0.215 0.789 0.566 1.18 0.621 c 0.18 0.023 0.348 0.094 0.383 0.16 c 0.055 0.098 1.895 6.477 1.996 6.93 c 0.082 0.355 0.055 0.355 -3.832 0.355 h -3.602 l -0.234 0.188 c -0.129 0.102 -0.34 0.227 -0.473 0.281 c -0.359 0.141 -1.262 0.176 -1.672 0.07 m 8.262 -1.582 c 0.066 -0.039 0.086 -0.117 0.051 -0.227 c -0.027 -0.09 -0.336 -1.219 -0.684 -2.508 c -0.578 -2.148 -0.801 -2.93 -1.01 -3.551 c -0.07 -0.223 -0.285 -0.324 -0.285 -0.137 c 0 0.047 0.316 1.16 0.707 2.465 c 1.074 3.617 1.047 3.516 0.953 3.605 c -0.066 0.063 -0.273 0.059 -0.855 -0.012 c -1.01 -0.121 -3.746 -0.125 -4.316 -0.004 c -0.805 0.172 -0.551 0.223 1.145 0.227 c 0.914 0.004 2.078 0.047 2.59 0.098 c 1.152 0.113 1.57 0.121 1.703 0.043 m -6.371 -0.422 c 0.816 -0.277 3.129 -0.371 4.863 -0.203 c 0.465 0.047 0.867 0.063 0.895 0.035 c 0.027 -0.027 -0.008 -0.289 -0.082 -0.582 c -0.27 -1.074 -1.59 -5.5 -1.664 -5.566 c -0.051 -0.047 -0.195 -0.043 -0.441 0.016 c -0.313 0.078 -0.457 0.07 -0.992 -0.031 c -0.945 -0.184 -1.715 -0.211 -2.477 -0.086 c -0.363 0.059 -0.688 0.148 -0.723 0.199 c -0.035 0.051 -0.063 1.52 -0.063 3.266 c 0 2.992 0.008 3.172 0.129 3.137 c 0.07 -0.023 0.32 -0.105 0.555 -0.184 m -6.941 -0.246 c 0.891 -0.148 2.605 -0.207 3.32 -0.113 c 0.328 0.039 0.746 0.094 0.93 0.113 c 0.332 0.039 0.332 0.039 0.133 -0.07 c -0.32 -0.172 -1.164 -0.332 -1.809 -0.34 c -0.324 -0.004 -1.168 0.055 -1.875 0.125 c -0.813 0.086 -1.309 0.109 -1.352 0.07 c -0.043 -0.043 0.023 -0.488 0.18 -1.188 c 0.34 -1.527 0.832 -3.598 1.01 -4.246 c 0.156 -0.574 0.184 -0.859 0.082 -0.797 c -0.035 0.02 -0.105 0.234 -0.156 0.477 c -0.051 0.238 -0.234 1 -0.414 1.695 c -0.18 0.695 -0.395 1.543 -0.48 1.891 c -0.09 0.348 -0.258 1.02 -0.379 1.492 c -0.359 1.238 -0.074 1.035 0.813 0.891 m 5.922 -1.758 c 0.059 -1.984 -0.008 -4.566 -0.125 -4.855 c -0.113 -0.281 -0.359 -0.488 -0.645 -0.535 c -0.148 -0.027 -0.617 -0.008 -1.051 0.039 c -0.703 0.078 -0.813 0.074 -1.098 -0.031 c -0.18 -0.07 -0.449 -0.262 -0.613 -0.438 c -0.18 -0.191 -0.336 -0.297 -0.398 -0.277 c -0.066 0.023 -0.168 0.301 -0.262 0.691 c -1 4.273 -1.398 6.121 -1.324 6.191 c 0.074 0.07 0.441 0.059 1.402 -0.051 c 0.641 -0.07 0.898 -0.07 1.32 0 c 0.574 0.098 1.629 0.547 2.125 0.906 c 0.164 0.117 0.367 0.215 0.453 0.219 c 0.16 0 0.16 -0.023 0.215 -1.859 m -4.98 1.227 c 0.934 -0.098 1.855 -0.117 2.527 -0.051 l 0.52 0.047 l -0.41 -0.133 c -0.473 -0.152 -1.152 -0.172 -2.332 -0.066 c -0.441 0.039 -0.867 0.051 -0.945 0.027 c -0.199 -0.059 -0.184 -0.23 0.152 -1.75 c 0.84 -3.766 0.93 -4.227 0.84 -4.312 c -0.051 -0.043 -0.109 -0.063 -0.133 -0.043 c -0.063 0.059 -1.016 3.848 -1.559 6.188 c -0.047 0.203 0.016 0.242 0.328 0.203 c 0.148 -0.016 0.602 -0.066 1.012 -0.109" fill="#0a1012"/><path d="m 11.93 14.633 c -0.043 -0.02 -0.215 -0.121 -0.383 -0.223 c -0.746 -0.469 -1.68 -0.824 -2.355 -0.898 c -0.152 -0.016 -0.609 0.004 -1.25 0.059 c -0.559 0.051 -1.043 0.078 -1.078 0.063 c -0.043 -0.016 -0.066 -0.066 -0.066 -0.152 c 0 -0.246 0.355 -1.902 1.023 -4.777 c 0.312 -1.344 0.418 -1.738 0.492 -1.879 c 0.055 -0.105 0.105 -0.078 0.465 0.246 c 0.152 0.133 0.367 0.289 0.484 0.348 c 0.207 0.102 0.215 0.102 0.836 0.086 c 0.344 -0.008 0.832 -0.02 1.082 -0.02 c 0.438 0 0.465 0.004 0.617 0.102 c 0.215 0.145 0.336 0.344 0.383 0.633 c 0.086 0.539 0.129 2.895 0.082 4.559 c -0.023 0.883 -0.059 1.668 -0.074 1.738 c -0.031 0.145 -0.105 0.18 -0.258 0.117" fill="#ff8400"/><g fill="#00b2ff"><path d="m 12.688 14.91 c -0.039 -0.137 -0.039 -5.977 0 -6.16 c 0.023 -0.129 0.039 -0.145 0.246 -0.199 c 0.512 -0.137 0.68 -0.156 1.43 -0.156 c 0.664 0 0.836 0.012 1.383 0.109 c 0.629 0.109 0.672 0.109 1.332 0.035 l 0.215 -0.023 l 0.191 0.582 c 0.559 1.688 1.563 5.195 1.563 5.457 c 0 0.137 0.016 0.137 -0.969 0.059 c -0.793 -0.066 -2.672 -0.074 -3.336 -0.02 c -0.82 0.07 -1.426 0.191 -1.98 0.406 c -0.027 0.008 -0.059 -0.031 -0.074 -0.09"/><path d="m 4.301 15.543 c -0.078 -0.047 -0.059 -0.141 0.281 -1.34 c 0.602 -2.129 1.57 -5.297 1.648 -5.375 c 0.008 -0.012 0.051 0.008 0.09 0.043 c 0.121 0.102 0.055 0.387 -0.945 4.203 c -0.445 1.695 -0.508 2.074 -0.375 2.188 c 0.07 0.059 0.996 -0.27 1.797 -0.324 c 0.316 -0.02 1.172 -0.164 1.637 -0.164 c 0.699 -0.004 1.652 0.137 2.023 0.207 c 0.25 0.047 1.871 0.715 1.859 0.723 c -0.008 0.004 -2.359 -0.215 -3.52 -0.32 c -0.805 -0.051 -2.145 0 -3.535 0.129 c -0.477 0.047 -0.867 0.082 -0.871 0.082 c -0.004 0 -0.043 -0.023 -0.09 -0.051"/></g><g fill="#ff8400"><path d="m 18 15.273 c -0.313 -0.027 -1.359 -0.066 -2.32 -0.09 c -0.961 -0.023 -1.871 -0.055 -2.02 -0.066 l -0.262 -0.027 l 0.242 -0.07 c 0.555 -0.16 2.98 -0.301 4.652 -0.16 c 0.918 0.078 1.172 0.184 1.133 -0.094 c -0.016 -0.098 -0.367 -1.273 -0.785 -2.609 c -0.941 -3.03 -1.035 -3.34 -0.992 -3.379 c 0.023 -0.02 0.48 0.066 0.535 0.121 c 0.125 0.125 0.363 0.965 1.246 4.02 c 0.664 2.281 0.855 2.656 0.234 2.359 c -0.105 -0.047 -0.836 0.066 -1.668 -0.004"/><path d="m 5.211 14.844 c -0.039 -0.09 0.105 -0.66 0.543 -2.125 c 0.203 -0.688 0.582 -2.219 0.844 -3.121 c 0.262 -0.898 0.328 -1.508 0.359 -1.531 c 0.094 -0.078 0.191 0.348 -0.137 1.465 c -0.691 2.383 -1.02 4.363 -1.02 4.684 l -0.09 0.258 l 0.715 -0.113 c 0.168 -0.027 0.738 -0.164 1.473 -0.215 c 1.867 -0.141 2.164 0.25 3.125 0.434 c 0.262 0.047 1.18 0.379 1.148 0.402 c -0.008 0.008 -0.273 -0.012 -0.586 -0.047 c -0.316 -0.035 -1.27 -0.258 -1.574 -0.273 c -0.758 -0.043 -2.52 0.02 -3.414 0.121 c -1.141 0.129 -1.352 0.137 -1.387 0.063"/></g><path d="m 6.05 14.16 c -0.035 -0.004 -0.07 -0.027 -0.078 -0.055 c -0.035 -0.086 1.293 -5.488 1.508 -6.148 c 0.055 -0.164 0.063 -0.176 0.113 -0.145 c 0.047 0.027 0.059 0.066 0.059 0.191 c 0 0.191 -0.219 1.262 -0.676 3.336 c -0.184 0.828 -0.359 1.648 -0.391 1.82 c -0.059 0.328 -0.07 0.609 -0.031 0.672 c 0.055 0.09 0.211 0.094 1.125 0.031 c 1.273 -0.086 1.895 -0.059 2.312 0.102 c 0.109 0.043 0.102 0.043 -0.199 0.023 c -0.461 -0.031 -1.609 -0.02 -2.043 0.02 c -0.203 0.02 -0.617 0.059 -0.918 0.09 c -0.691 0.07 -0.707 0.074 -0.781 0.063" fill="#00b2ff"/></svg>