<svg xmlns="http://www.w3.org/2000/svg" viewBox="0 0 24 24"><path d="m 21.07 18.17 c -19.758 21.254 -32.21 -22.613 -5.977 -17.777 c 6.918 2.387 12.32 10.953 5.977 17.777" fill="#f4f4f4"/><path d="m 14.578 14.559 c -0.223 -0.063 -0.48 -0.48 -0.555 -0.023 c -0.016 0.094 2.01 -6.918 2.125 -7.176 c 0.117 -0.262 0.34 -0.145 1.043 0.031 c 0.188 0.047 0.34 0.117 0.34 0.152 c 0 0.102 -1 3.25 -1.32 4.16 c -0.152 0.441 -0.48 1.387 -0.723 2.102 c -0.5 1.465 -0.246 0.945 -0.91 0.754" fill="#fa9335"/><path d="m 6.715 17.746 c -0.094 -0.125 -0.094 -0.129 -0.094 -5.727 v -5.598 l 0.113 -0.117 l 0.113 -0.113 h 7.117 l 0.266 0.246 c 0.145 0.133 0.531 0.5 0.855 0.813 c 0.328 0.313 0.625 0.57 0.66 0.57 c 0.043 0 0.098 -0.102 0.145 -0.262 c 0.051 -0.176 0.129 -0.313 0.23 -0.41 c 0.113 -0.105 0.18 -0.234 0.254 -0.488 c 0.094 -0.324 0.164 -0.43 0.434 -0.641 c 0.039 -0.035 0.152 -0.059 0.254 -0.059 c 0.137 0 0.223 0.035 0.371 0.164 c 0.281 0.242 0.316 0.418 0.176 0.906 c -0.082 0.293 -0.102 0.418 -0.066 0.504 c 0.023 0.066 0.039 0.242 0.031 0.395 l -0.016 0.273 l 0.254 0.09 c 0.438 0.148 0.438 0.051 0.004 1.512 c -0.211 0.711 -0.418 1.332 -0.461 1.379 c -0.086 0.09 -0.215 0.07 -0.258 -0.039 c -0.012 -0.039 0.125 -0.566 0.309 -1.172 c 0.18 -0.609 0.332 -1.156 0.332 -1.219 c 0.004 -0.09 -0.027 -0.125 -0.148 -0.16 c -0.094 -0.027 -0.168 -0.027 -0.195 0 c -0.023 0.023 -0.219 0.637 -0.438 1.367 c -0.246 0.828 -0.453 1.324 -0.473 1.379 c -0.441 1.332 -0.422 0.711 -0.422 0.586 c 0 -0.055 0.391 -1.543 0.66 -2.441 c 0.27 -0.898 0.488 -1.66 0.488 -1.695 c 0 -0.074 -0.012 -0.082 -0.449 -0.215 c -0.207 -0.063 -0.402 -0.102 -0.434 -0.082 c -0.031 0.02 -0.18 0.453 -0.332 0.961 c -1.129 3.777 -1.711 5.754 -1.711 5.809 c 0 0.039 0.039 0.09 0.086 0.113 c 0.164 0.09 0.77 0.234 0.809 0.195 c 0.027 -0.031 0.824 -2.613 0.824 -2.68 c 0 -0.012 0.18 -0.621 0.23 -0.648 c 0.121 -0.063 0.094 0.59 0.094 0.734 c 0 0.055 -0.086 0.383 -0.188 0.727 l -0.184 0.625 v 2.148 c 0 2.102 -0.004 2.148 -0.098 2.27 l -0.098 0.121 l -6.703 -0.023 l -0.016 -0.109 c -0.008 -0.063 0.012 -0.129 0.047 -0.152 c 0.035 -0.02 1.477 -0.039 3.203 -0.039 c 1.73 0 3.176 -0.016 3.219 -0.031 c 0.063 -0.023 0.074 -0.184 0.074 -1.328 c 0 -0.715 -0.02 -1.293 -0.043 -1.285 c -0.02 0.008 -0.289 0.32 -0.594 0.691 c -0.305 0.371 -0.605 0.699 -0.672 0.73 c -0.168 0.078 -0.406 0.004 -0.598 -0.195 l -0.156 -0.164 l -0.215 0.23 c -0.25 0.27 -0.363 0.293 -0.621 0.117 c -0.207 -0.141 -0.219 -0.141 -0.41 -0.023 c -0.184 0.113 -0.32 0.117 -0.5 0.023 c -0.164 -0.086 -0.223 -0.238 -0.129 -0.336 c 0.059 -0.059 0.098 -0.059 0.23 -0.012 c 0.148 0.055 0.18 0.051 0.305 -0.039 c 0.176 -0.125 0.402 -0.129 0.555 -0.008 c 0.18 0.141 0.266 0.117 0.43 -0.137 c 0.219 -0.344 0.375 -0.371 0.602 -0.113 c 0.082 0.09 0.16 0.152 0.176 0.141 c 0.016 -0.016 -0.008 -0.324 -0.047 -0.684 l -0.074 -0.656 l 0.32 -1.078 c 0.176 -0.594 0.57 -1.926 0.879 -2.961 c 0.313 -1.035 0.559 -1.926 0.551 -1.977 c -0.012 -0.09 -0.059 -0.098 -0.668 -0.117 c -0.629 -0.023 -0.66 -0.027 -0.824 -0.152 c -0.277 -0.215 -0.328 -0.355 -0.355 -1.012 l -0.023 -0.582 l -6.711 -0.023 l 0.012 5.48 l 0.012 5.477 l 0.727 0.012 c 0.773 0.012 0.867 0.043 0.805 0.242 c -0.027 0.09 -0.063 0.094 -0.883 0.094 h -0.852 m 7.684 -2.941 c -0.102 -0.031 -0.121 -0.039 -0.121 0.09 c 0 0.121 -0.156 0.648 -0.07 0.559 c 0.059 -0.059 0.875 -0.449 0.191 -0.648 m 0.691 -7.01 c 0.031 -0.055 -1 -1.031 -1.051 -1 c -0.059 0.035 -0.047 0.586 0.016 0.762 c 0.031 0.098 0.102 0.172 0.195 0.215 c 0.164 0.07 0.801 0.086 0.84 0.023 m 2.031 -0.914 c 0.043 -0.125 0.078 -0.281 0.082 -0.344 c 0.008 -0.238 -0.277 -0.371 -0.426 -0.199 c -0.086 0.098 -0.238 0.547 -0.211 0.625 c 0.02 0.063 0.305 0.176 0.406 0.16 c 0.039 -0.004 0.105 -0.113 0.148 -0.242 m -9 7.82 c -0.012 -0.039 -0.016 -0.105 -0.008 -0.152 c 0.016 -0.078 0.086 -0.086 0.84 -0.098 l 0.82 -0.012 l 0.031 0.113 c 0.016 0.066 0.016 0.137 -0.004 0.164 c -0.02 0.031 -0.32 0.051 -0.84 0.051 c -0.664 0 -0.816 -0.012 -0.84 -0.066 m 0.039 -1.105 c -0.082 -0.086 -0.066 -0.215 0.035 -0.27 c 0.059 -0.031 0.836 -0.047 2.203 -0.047 c 1.859 0 2.121 0.008 2.188 0.074 c 0.098 0.098 0.09 0.191 -0.02 0.25 c -0.137 0.074 -4.332 0.066 -4.406 -0.008 m 0.051 -1.109 c -0.113 -0.047 -0.141 -0.18 -0.051 -0.27 c 0.082 -0.078 5.289 -0.078 5.371 0 c 0.094 0.094 0.063 0.223 -0.063 0.273 c -0.152 0.059 -5.113 0.055 -5.258 -0.004 m -0.051 -1.172 c -0.094 -0.094 -0.063 -0.223 0.063 -0.27 c 0.074 -0.027 1.109 -0.047 2.621 -0.047 c 1.516 0 2.551 0.02 2.625 0.047 c 0.125 0.047 0.156 0.176 0.063 0.27 c -0.082 0.082 -5.289 0.082 -5.371 0 m 0.668 -1.301 c -0.039 -0.059 -0.074 -0.164 -0.074 -0.234 c 0 -0.121 -0.012 -0.129 -0.195 -0.129 c -0.191 0 -0.406 -0.098 -0.406 -0.184 c 0 -0.023 0.031 -0.074 0.07 -0.113 c 0.059 -0.059 0.176 -0.074 0.516 -0.074 c 0.484 0 0.621 -0.043 0.621 -0.199 c -0.004 -0.199 -0.066 -0.234 -0.48 -0.266 c -0.301 -0.02 -0.418 -0.047 -0.496 -0.117 c -0.352 -0.32 -0.281 -0.789 0.148 -0.973 c 0.184 -0.078 0.223 -0.113 0.223 -0.211 c 0 -0.121 0.113 -0.328 0.18 -0.328 c 0.09 0.004 0.164 0.102 0.188 0.262 c 0.031 0.176 0.035 0.18 0.262 0.203 c 0.27 0.027 0.348 0.07 0.348 0.18 c 0 0.16 -0.098 0.191 -0.582 0.191 c -0.398 0 -0.484 0.016 -0.547 0.086 c -0.195 0.215 -0.012 0.379 0.422 0.379 c 0.344 0 0.535 0.086 0.637 0.277 c 0.156 0.301 0.012 0.719 -0.281 0.816 c -0.211 0.074 -0.254 0.113 -0.254 0.258 c 0 0.125 -0.098 0.277 -0.184 0.277 c -0.023 0 -0.074 -0.047 -0.113 -0.102" fill="#2c2c2c"/></svg>