<svg xmlns="http://www.w3.org/2000/svg" viewBox="0 0 24 24"><path d="m 0.277 14.758 c 1.488 9.668 14.707 12.254 20.543 5.355 c 5.137 -5.125 3.855 -14.938 -2.445 -18.301 c -7.238 -4.496 -17.781 1.066 -18.359 10.02 c -0.059 0.98 0.027 1.973 0.262 2.926" fill="#ff275b"/><g fill="#fff"><path d="m 16.41 17.902 c 0 2.535 -2.234 4.59 -4.988 4.59 c -2.758 0 -4.992 -2.055 -4.992 -4.59 c 0 -2.535 2.234 -4.594 4.992 -4.594 c 2.754 0 4.988 2.059 4.988 4.594"/><path d="m 7.336 8.852 c -0.059 -0.152 -0.117 -0.844 -0.117 -1.398 c 0 -0.438 0.004 -0.461 0.086 -0.484 c 0.125 -0.031 0.227 0.031 0.262 0.16 c 0.043 0.184 0.102 0.891 0.105 1.281 c 0 0.27 -0.02 0.395 -0.066 0.461 c -0.086 0.129 -0.215 0.121 -0.27 -0.02"/><path d="m 5.578 9.34 c -0.109 -0.047 -0.16 -0.195 -0.094 -0.273 c 0.051 -0.063 0.234 -0.121 0.5 -0.164 c 0.188 -0.027 0.344 -0.199 0.41 -0.445 c 0.027 -0.098 0.039 -0.375 0.031 -0.648 c -0.016 -0.57 -0.078 -0.715 -0.367 -0.855 c -0.18 -0.09 -0.473 -0.121 -0.559 -0.063 c -0.098 0.063 -0.191 0.32 -0.434 1.195 c -0.316 1.137 -0.398 1.313 -0.598 1.234 c -0.098 -0.039 -0.066 -0.305 0.141 -1.184 c 0.223 -0.941 0.238 -1.074 0.141 -1.195 c -0.066 -0.082 -0.129 -0.098 -0.406 -0.113 c -0.348 -0.023 -0.473 -0.063 -0.473 -0.152 c 0 -0.113 0.133 -0.16 0.559 -0.191 c 0.379 -0.027 0.457 -0.043 0.609 -0.145 c 0.199 -0.133 0.293 -0.141 0.418 -0.023 c 0.105 0.102 0.281 0.168 0.43 0.172 c 0.172 0 0.52 0.18 0.703 0.359 c 0.211 0.211 0.273 0.461 0.273 1.086 c 0 0.559 -0.059 0.805 -0.246 1.02 c -0.234 0.273 -0.801 0.484 -1.039 0.387"/><path d="m 4.03 5.84 c -0.219 -0.039 -0.246 -0.258 -0.039 -0.34 c 0.27 -0.109 0.512 -0.125 1.371 -0.102 c 0.805 0.023 0.902 0.02 1.047 -0.047 c 0.152 -0.074 0.164 -0.074 0.473 0.02 c 0.176 0.051 0.375 0.109 0.449 0.133 c 0.203 0.059 0.227 0.242 0.039 0.301 c -0.102 0.031 -3.168 0.066 -3.34 0.035"/><path d="m 3.703 8.773 c -0.059 -0.156 0.219 -1.297 0.355 -1.453 c 0.133 -0.152 0.242 -0.086 0.258 0.156 c 0.016 0.203 -0.125 0.84 -0.25 1.129 c -0.121 0.285 -0.289 0.363 -0.363 0.168"/><path d="m 9.117 9.34 c -0.195 -0.039 -0.246 -0.074 -0.246 -0.172 c 0 -0.125 0.234 -0.203 0.73 -0.242 c 0.488 -0.039 0.602 -0.094 0.723 -0.34 c 0.098 -0.195 0.176 -0.75 0.141 -0.992 c -0.059 -0.367 -0.051 -0.367 -1.059 -0.406 c -0.488 -0.023 -0.957 -0.051 -1.043 -0.063 c -0.172 -0.027 -0.207 -0.117 -0.063 -0.16 c 0.137 -0.043 2.84 -0.098 3.254 -0.07 c 0.289 0.02 0.352 0.039 0.363 0.098 c 0.02 0.105 -0.191 0.184 -0.602 0.219 l -0.34 0.031 l -0.016 0.129 c -0.012 0.07 -0.039 0.34 -0.066 0.602 c -0.055 0.594 -0.102 0.746 -0.297 0.969 c -0.184 0.211 -0.457 0.336 -0.848 0.395 c -0.313 0.043 -0.422 0.047 -0.633 0.004"/><path d="m 8.172 6.387 c -0.059 -0.215 -0.008 -0.355 0.199 -0.563 c 0.23 -0.23 0.457 -0.316 0.98 -0.371 c 0.211 -0.023 0.457 -0.07 0.551 -0.109 c 0.164 -0.063 0.18 -0.063 0.289 0 c 0.074 0.043 0.289 0.086 0.566 0.113 c 0.738 0.066 1.117 0.309 1.16 0.738 c 0.031 0.348 -0.176 0.387 -0.375 0.07 c -0.223 -0.355 -0.137 -0.336 -1.469 -0.336 c -1.336 0 -1.344 0 -1.469 0.309 c -0.117 0.297 -0.367 0.383 -0.434 0.148"/><path d="m 13.152 9.309 c -0.063 -0.063 -0.02 -0.285 0.137 -0.676 c 0.188 -0.469 0.215 -0.723 0.082 -0.762 c -0.148 -0.047 -0.25 0.023 -0.43 0.301 c -0.219 0.344 -0.297 0.41 -0.391 0.352 c -0.109 -0.07 -0.07 -0.293 0.16 -0.863 c 0.113 -0.289 0.207 -0.543 0.207 -0.563 c 0 -0.023 -0.047 -0.098 -0.098 -0.172 c -0.219 -0.285 -0.285 -0.477 -0.266 -0.754 c 0.02 -0.348 0.172 -0.57 0.488 -0.73 c 0.203 -0.102 0.301 -0.117 0.773 -0.148 c 0.668 -0.039 1.535 0.008 1.785 0.098 c 0.359 0.129 0.586 0.445 0.59 0.828 c 0 0.258 -0.086 0.461 -0.27 0.648 c -0.242 0.238 -0.434 0.281 -1.457 0.324 c -0.949 0.039 -1.094 0.055 -1.094 0.121 c 0 0.086 0.195 0.129 0.777 0.168 c 1.684 0.113 1.734 0.121 1.91 0.371 c 0.152 0.215 0.207 0.465 0.16 0.727 c -0.082 0.445 -0.348 0.719 -0.715 0.75 c -0.172 0.012 -0.23 0 -0.316 -0.07 l -0.102 -0.086 l 0.09 -0.074 c 0.047 -0.039 0.184 -0.121 0.301 -0.188 c 0.168 -0.09 0.23 -0.152 0.297 -0.301 c 0.07 -0.156 0.074 -0.207 0.035 -0.328 c -0.07 -0.211 -0.266 -0.391 -0.43 -0.391 c -0.195 0 -0.309 0.145 -0.617 0.793 c -0.273 0.578 -0.379 0.703 -0.539 0.641 c -0.105 -0.043 -0.078 -0.242 0.098 -0.715 c 0.246 -0.648 0.215 -0.832 -0.102 -0.699 c -0.121 0.047 -0.168 0.117 -0.332 0.465 c -0.348 0.734 -0.406 0.844 -0.492 0.902 c -0.09 0.063 -0.199 0.078 -0.242 0.031 m 2.383 -2.629 c 0.145 -0.094 0.273 -0.309 0.273 -0.445 c 0 -0.156 -0.16 -0.375 -0.34 -0.461 c -0.133 -0.066 -0.27 -0.074 -1.16 -0.074 c -1.02 0 -1.227 0.027 -1.227 0.156 c 0 0.105 0.227 0.137 1.203 0.172 c 1.02 0.035 1.109 0.051 1.109 0.215 c 0 0.145 -0.152 0.172 -1.172 0.203 c -1.01 0.031 -1.141 0.051 -1.141 0.145 c 0 0.152 0.215 0.18 1.492 0.168 c 0.734 -0.008 0.867 -0.016 0.961 -0.078"/><path d="m 16.883 9.215 c 0 -0.07 0.09 -0.297 0.199 -0.508 c 0.293 -0.566 0.301 -0.602 0.336 -1.438 c 0.039 -0.852 0.078 -1.031 0.234 -1.031 c 0.145 0 0.164 0.094 0.199 0.922 c 0.031 0.824 0.039 0.855 0.371 1.52 c 0.242 0.48 0.273 0.602 0.164 0.645 c -0.109 0.039 -0.262 -0.078 -0.488 -0.383 c -0.113 -0.152 -0.23 -0.285 -0.25 -0.293 c -0.023 -0.008 -0.125 0.109 -0.23 0.258 c -0.203 0.301 -0.34 0.43 -0.457 0.43 c -0.059 0 -0.078 -0.031 -0.078 -0.121"/><path d="m 16.836 8 c -0.035 -0.063 -0.051 -0.375 -0.055 -1.023 c 0 -0.766 0.012 -0.953 0.063 -1.074 c 0.238 -0.52 0.777 -0.734 1.211 -0.477 c 0.395 0.227 0.438 0.395 0.438 1.574 c 0 0.996 -0.02 1.109 -0.199 1.016 c -0.047 -0.027 -0.09 -0.055 -0.09 -0.059 c -0.004 -0.004 -0.02 -0.398 -0.039 -0.875 c -0.02 -0.477 -0.055 -0.941 -0.082 -1.027 c -0.07 -0.23 -0.211 -0.355 -0.395 -0.355 c -0.367 0 -0.434 0.145 -0.477 1.051 c -0.02 0.387 -0.047 0.813 -0.059 0.949 c -0.031 0.348 -0.203 0.512 -0.316 0.301"/><path d="m 19.23 8.844 c -0.293 -0.105 -0.363 -0.34 -0.391 -1.305 c -0.023 -0.969 0.031 -1.273 0.234 -1.293 c 0.074 -0.008 0.137 -0.008 0.141 0 c 0 0.008 0.02 0.469 0.039 1.023 c 0.035 1.012 0.051 1.133 0.168 1.172 c 0.188 0.063 0.242 -0.18 0.309 -1.281 c 0.047 -0.719 0.105 -0.98 0.207 -0.891 c 0.129 0.109 0.191 1.996 0.074 2.281 c -0.102 0.254 -0.484 0.395 -0.781 0.293"/><path d="m 20.06 9.309 c -0.047 -0.051 -0.027 -0.086 0.199 -0.363 c 0.129 -0.156 0.238 -0.336 0.254 -0.414 c 0.012 -0.074 0.02 -0.582 0.012 -1.121 c -0.016 -0.941 -0.02 -0.996 -0.113 -1.188 c -0.125 -0.25 -0.305 -0.34 -0.844 -0.422 c -0.398 -0.059 -0.484 -0.109 -0.484 -0.289 c 0 -0.176 0.082 -0.195 0.574 -0.121 c 1.035 0.152 1.152 0.289 1.203 1.422 c 0.031 0.668 0.016 1.703 -0.023 1.977 c -0.023 0.156 -0.223 0.398 -0.395 0.488 c -0.121 0.063 -0.332 0.078 -0.383 0.031"/></g><path d="m 6.934 21.508 c -0.16 -0.211 -0.211 -0.469 -0.313 -1.574 c -0.109 -1.211 -0.133 -1.273 -0.766 -2.01 c -0.488 -0.566 -0.688 -0.938 -0.688 -1.262 c 0 -0.25 0.23 -0.652 0.742 -1.285 c 0.273 -0.336 0.539 -0.715 0.594 -0.84 c 0.055 -0.129 0.152 -0.621 0.223 -1.098 c 0.074 -0.523 0.16 -0.938 0.219 -1.051 c 0.125 -0.242 0.629 -0.645 0.926 -0.742 c 0.129 -0.043 0.484 -0.113 0.793 -0.156 c 1.023 -0.148 1.301 -0.266 2.199 -0.945 c 0.75 -0.566 1.258 -0.754 1.68 -0.613 c 0.227 0.074 0.574 0.309 1.148 0.781 c 0.703 0.574 0.965 0.672 2.199 0.801 c 0.727 0.074 0.895 0.129 1.16 0.375 c 0.301 0.273 0.375 0.43 0.41 0.855 c 0.168 1.098 0.098 1.961 0.824 2.84 c 0.621 0.73 0.68 0.828 0.707 1.207 c 0.047 0.551 -0.016 0.66 -1.016 1.813 c -0.277 0.32 -0.5 0.609 -0.5 0.641 c 0 0.227 -0.117 1.492 -0.16 1.746 c -0.867 1.035 -4.066 1.676 -5.305 1.535 v -0.602 l 1.199 -0.215 c 0.617 -0.109 0.758 -0.371 1.371 -0.934 c 0.359 -0.332 0.738 -0.652 0.844 -0.707 c 0.246 -0.137 0.43 -0.5 0.434 -0.859 c 0.008 -0.508 -0.352 -0.852 -1.105 -1.055 c -0.594 -0.156 -0.773 -0.25 -1.238 -0.637 c -1.156 -0.961 -2.086 -0.973 -3.25 -0.043 c -0.488 0.387 -0.637 0.465 -1.023 0.523 c -0.934 0.148 -1.387 0.574 -1.391 1.305 c -0.004 0.492 0.156 0.82 0.652 1.336 c 0.434 0.457 0.82 0.703 1.508 0.973 c 0.262 0.098 2.109 0.277 2.086 0.297 c -0.133 0.27 0.512 0.633 -0.156 0.684 c -0.91 0.066 -3.336 -0.313 -5.01 -1.082 m 8.156 -3.766 c 0.227 -0.063 0.566 -0.352 0.684 -0.578 c 0.051 -0.094 0.09 -0.352 0.105 -0.676 c 0.027 -0.5 0.02 -0.539 -0.117 -0.82 c -0.297 -0.609 -0.809 -0.957 -1.23 -0.84 c -0.914 0.254 -1.281 1.52 -0.691 2.398 c 0.293 0.434 0.793 0.641 1.25 0.516 m -5.547 -0.195 c 0.434 -0.219 0.68 -0.668 0.719 -1.309 c 0.055 -0.871 -0.348 -1.418 -1.035 -1.418 c -0.449 0 -0.926 0.348 -1.152 0.848 c -0.137 0.301 -0.133 0.957 0.004 1.328 c 0.109 0.289 0.375 0.594 0.574 0.656 c 0.199 0.063 0.676 0.008 0.891 -0.105" fill="#ffd600"/><g fill="#261908"><path d="m 8.648 17.273 c -0.281 -0.199 -0.348 -0.367 -0.348 -0.883 c 0 -0.527 0.063 -0.66 0.469 -0.973 c 0.344 -0.258 0.516 -0.246 0.836 0.078 c 0.211 0.207 0.254 0.285 0.258 0.445 c 0.016 0.68 -0.063 0.977 -0.285 1.082 c -0.086 0.039 -0.238 0.137 -0.34 0.219 c -0.227 0.176 -0.375 0.184 -0.59 0.031 m 0.582 -1.277 c 0.09 -0.063 0.18 -0.16 0.199 -0.211 c 0.039 -0.129 -0.125 -0.285 -0.34 -0.32 c -0.234 -0.039 -0.457 0.129 -0.457 0.34 c 0 0.301 0.293 0.398 0.598 0.191"/><path d="m 14.32 17.461 c -0.203 -0.137 -0.375 -0.414 -0.488 -0.801 c -0.078 -0.258 -0.078 -0.297 0.004 -0.551 c 0.055 -0.176 0.164 -0.355 0.305 -0.5 c 0.195 -0.207 0.238 -0.227 0.457 -0.227 c 0.199 0 0.27 0.027 0.438 0.18 c 0.113 0.102 0.254 0.289 0.316 0.418 c 0.199 0.414 0.133 1.137 -0.113 1.215 c -0.051 0.016 -0.188 0.109 -0.305 0.207 c -0.246 0.203 -0.379 0.219 -0.613 0.059 m 0.449 -1.398 c 0.137 -0.148 0.148 -0.258 0.031 -0.383 c -0.156 -0.176 -0.605 -0.082 -0.66 0.141 c -0.047 0.18 -0.004 0.293 0.133 0.363 c 0.164 0.082 0.355 0.035 0.496 -0.121"/><path d="m 11.488 18.266 c -0.297 -0.195 -0.551 -0.477 -0.504 -0.555 c 0.043 -0.066 0.613 -0.324 0.828 -0.367 c 0.207 -0.047 0.629 0.051 0.801 0.184 c 0.25 0.199 0.133 0.434 -0.379 0.766 c -0.289 0.188 -0.43 0.18 -0.746 -0.027"/></g><path d="m 11.633 20.531 c -0.227 -0.074 -0.402 -0.219 -0.531 -0.434 c -0.148 -0.262 -0.207 -0.551 -0.133 -0.688 c 0.063 -0.117 0.547 -0.316 0.773 -0.316 c 0.156 0 0.785 0.219 0.898 0.316 c 0.082 0.066 0.047 0.234 -0.113 0.555 c -0.227 0.449 -0.57 0.668 -0.895 0.566" fill="#fb6766"/><g fill="#692e03"><path d="m 9.285 13.852 c -0.316 0.059 -0.578 0.172 -0.574 0.246 c 0 0.238 0.668 0.113 0.871 0.191 c 0.195 0.082 0.492 0.363 0.68 0.316 c 0.273 -0.07 0.199 -0.254 -0.246 -0.594 c -0.254 -0.191 -0.387 -0.219 -0.73 -0.16"/><path d="m 14.586 13.797 c 0.32 0.043 0.582 0.145 0.586 0.215 c 0.008 0.242 -0.664 0.145 -0.863 0.234 c -0.195 0.09 -0.477 0.383 -0.664 0.344 c -0.281 -0.059 -0.211 -0.246 0.219 -0.602 c 0.242 -0.203 0.375 -0.238 0.723 -0.191"/></g></svg>