<svg xmlns="http://www.w3.org/2000/svg" viewBox="0 0 24 24"><path d="m 0.082 12.08 c 0.191 -2.473 1.375 -5.348 3.02 -7.34 c 1.996 -2.426 5.063 -4.168 8.08 -4.602 c 3.988 -0.508 8.277 1.883 10.312 4.531 c 0.988 1.332 1.777 3.082 2.121 4.723 c 0.898 4.262 -0.801 8.664 -4.496 11.637 c -2.215 1.785 -4.445 2.691 -7.086 2.875 c -3.168 0.223 -6.563 -1.086 -8.848 -3.41 c -2.156 -2.637 -3.324 -5.332 -3.105 -8.414" fill="#dc133c"/><g fill="#fff" fill-rule="evenodd"><path d="m 17.621 7.258 c 0 -0.109 -0.043 -0.211 -0.121 -0.285 c -0.082 -0.074 -0.188 -0.117 -0.297 -0.117 h -10.688 c -0.113 0 -0.219 0.043 -0.297 0.117 c -0.078 0.074 -0.121 0.176 -0.121 0.285 v 10.234 c 0 0.109 0.043 0.211 0.121 0.285 c 0.078 0.074 0.184 0.117 0.297 0.117 h 10.688 c 0.109 0 0.215 -0.043 0.297 -0.117 c 0.078 -0.074 0.121 -0.176 0.121 -0.285" fill-opacity="0.18"/><path d="m 5.91 6.691 c -0.012 0 -0.023 0.008 -0.023 0.02 c 0 0.184 0 1.602 0 1.785 c 0 0.012 0.012 0.02 0.02 0.02 c 0.078 0 0.34 0 0.414 0 c 0.012 0 0.023 -0.008 0.023 -0.02 c 0 -0.168 0.004 -1.375 0.004 -1.375 c 0 0 1.258 0.004 1.434 0.004 c 0.004 0 0.012 -0.004 0.016 -0.008 c 0.004 -0.004 0.004 -0.008 0.004 -0.012 c 0 -0.074 0 -0.324 0 -0.395 c 0 -0.008 0 -0.012 -0.004 -0.016 c -0.004 -0.004 -0.012 -0.004 -0.016 -0.004 c -0.191 0 -1.68 0 -1.871 0"/><path d="m 17.754 6.691 c 0.012 0 0.02 0.008 0.02 0.02 c 0 0.184 0 1.602 0 1.785 c 0 0.012 -0.008 0.02 -0.02 0.02 c -0.078 0 -0.34 0 -0.414 0 c -0.012 0 -0.02 -0.008 -0.02 -0.02 c -0.004 -0.168 -0.008 -1.375 -0.008 -1.375 c 0 0 -1.258 0.004 -1.434 0.004 c -0.004 0 -0.008 -0.004 -0.012 -0.008 c -0.004 -0.004 -0.008 -0.008 -0.008 -0.012 c 0 -0.074 0 -0.324 0 -0.395 c 0 -0.008 0 -0.012 0.004 -0.016 c 0.004 -0.004 0.012 -0.004 0.016 -0.004 c 0.191 0 1.68 0 1.875 0"/><path d="m 5.91 18.05 c -0.012 0 -0.023 -0.008 -0.023 -0.02 c 0 -0.184 0 -1.602 0 -1.785 c 0 -0.012 0.012 -0.02 0.02 -0.02 c 0.078 0 0.34 0 0.414 0 c 0.012 0 0.023 0.008 0.023 0.02 c 0 0.168 0.004 1.375 0.004 1.375 c 0 0 1.258 -0.004 1.434 -0.004 c 0.004 0 0.012 0.004 0.016 0.008 c 0.004 0.004 0.004 0.008 0.004 0.012 c 0 0.074 0 0.324 0 0.395 c 0 0.008 0 0.012 -0.004 0.016 c -0.004 0.004 -0.012 0.004 -0.016 0.004 c -0.191 0 -1.68 0 -1.871 0"/><path d="m 17.754 18.05 c 0.012 0 0.02 -0.008 0.02 -0.02 c 0 -0.184 0 -1.602 0 -1.785 c 0 -0.012 -0.008 -0.02 -0.02 -0.02 c -0.078 0 -0.34 0 -0.414 0 c -0.012 0 -0.02 0.008 -0.02 0.02 c -0.004 0.168 -0.008 1.375 -0.008 1.375 c 0 0 -1.258 -0.004 -1.434 -0.004 c -0.004 0 -0.008 0.004 -0.012 0.008 c -0.004 0.004 -0.008 0.008 -0.008 0.012 c 0 0.074 0 0.324 0 0.395 c 0 0.008 0 0.012 0.004 0.016 c 0.004 0.004 0.012 0.004 0.016 0.004 c 0.191 0 1.68 0 1.875 0"/><path d="m 9.906 9.473 l 2.855 3.676 l -0.055 0.668 l 0.117 0.785 c -0.027 -0.016 -0.09 0.035 -0.145 -0.043 c -0.18 -0.27 -2.895 -4.215 -2.895 -4.215 c 0 0 -0.125 -0.164 -0.098 -0.465 c 0.027 -0.32 0.219 -0.406 0.219 -0.406"/><path d="m 13.281 12.98 c -0.242 0 -0.461 0.07 -0.617 0.223 c -0.395 0.375 -0.281 1.098 0.254 1.605 c 0.531 0.512 1.285 0.621 1.676 0.246 c 0.391 -0.375 0.277 -1.098 -0.254 -1.605 c -0.316 -0.305 -0.711 -0.465 -1.059 -0.469 m 0.129 0.391 c 0.215 0.004 0.461 0.102 0.66 0.293 c 0.332 0.316 0.402 0.766 0.156 1 c -0.242 0.234 -0.711 0.168 -1.043 -0.152 c -0.332 -0.316 -0.402 -0.766 -0.16 -1 c 0.102 -0.098 0.234 -0.141 0.387 -0.141"/><g stroke="#000" stroke-linejoin="round" stroke-linecap="round" stroke-width="0.03" stroke-miterlimit="1.5" transform="matrix(0.01813 0 0 0.01737 2.549 3.528)"><path d="m 618.32 342.32 l -157.73 211.66 l 3.02 38.463 l -6.249 45.21 c 1.293 -0.9 4.741 2.024 7.757 -2.474 c 10.128 -15.52 159.89 -242.7 159.89 -242.7 c 0 0 6.68 -9.447 5.172 -26.767 c -1.293 -18.444 -11.852 -23.393 -11.852 -23.393"/><path d="m 432.14 544.3 c -19.394 0.225 -41.16 9.447 -58.61 26.992 c -29.31 29.24 -35.555 70.853 -14.01 92.45 c 21.764 21.593 63.14 15.295 92.44 -14.171 c 29.521 -29.24 35.77 -70.853 14.222 -92.45 c -8.835 -8.772 -20.902 -12.821 -34.05 -12.821 m -7.111 22.493 c 8.188 0 15.73 2.699 21.12 8.098 c 13.576 13.496 9.481 39.36 -8.835 57.58 c -18.316 18.444 -44.17 22.268 -57.53 8.772 c -13.576 -13.496 -9.697 -39.36 8.835 -57.58 c 10.774 -11.02 24.35 -16.645 36.417 -16.87"/></g></g></svg>