<svg xmlns="http://www.w3.org/2000/svg" viewBox="0 0 24 24"><path d="m 17.75 2.02 c 21.871 17.914 -20.852 35.14 -17.539 7.434 c 0.727 -6.074 11.648 -12.262 17.539 -7.434" fill="#0195d2"/><path d="m 10.254 17.594 c 0 -0.102 -0.176 0.105 -0.324 0.387 c -0.234 0.438 -0.375 0.563 -0.566 0.508 c -0.625 -0.188 -1.281 -1 -1.844 -1.191 c -0.063 0 -0.344 0.199 -0.621 0.441 c -0.277 0.242 -0.57 0.441 -0.648 0.445 c -0.648 -0.645 -1.258 -1.109 -1.691 -2.055 c 0.113 -0.258 0.422 -0.43 0.465 -0.672 c -1.023 -0.176 -1.801 -0.172 -2.703 -0.293 c 0.172 -1.199 0.145 -2.961 0.43 -3.84 c 0.051 -0.047 0.371 -0.043 0.996 0.012 c 1.176 0.105 1.84 0.105 1.949 0 c 0.176 -0.449 0.117 -0.805 0.59 -0.809 c 0.266 0 0.363 -0.023 0.363 -0.094 c 0 -0.055 -0.195 -0.32 -0.438 -0.594 c -0.352 -0.34 -0.574 -0.805 -0.871 -1.168 c -0.113 -0.137 -0.207 -0.305 -0.207 -0.379 c 0 -0.125 1.926 -2 2.055 -2 c 0.031 0 0.184 0.129 0.336 0.285 c 0.152 0.156 0.691 1.023 0.711 1 c 0.02 -0.016 -0.414 -0.934 -0.477 -1.113 c -0.148 -0.406 -0.145 -0.406 0.785 -0.789 c 0.387 -0.16 0.727 -0.324 0.754 -0.367 c 0.074 -0.359 0.055 -0.648 0.055 -1.031 c 1.281 -0.125 2.215 -0.375 3.035 -0.379 c 0.344 0 0.391 0.059 0.391 0.512 c 0 0.512 0.086 0.633 0.48 0.684 c 0.984 0.121 1.402 0.199 1.445 0.262 c 0.059 0.09 0.051 1.484 -0.012 1.969 l -0.047 0.367 l 0.32 -0.324 c 0.457 -0.461 0.57 -0.441 1.156 0.18 c 0.262 0.277 0.477 0.551 0.477 0.609 c -0.832 0.777 0.242 0.023 0.398 0.809 c 0.027 0.113 0.094 0.223 0.156 0.246 c 0.531 -0.121 2.496 -1.195 2.656 -1.063 c 0.109 0.105 1 2.031 0.961 2.07 c -0.016 0.016 -0.441 0.234 -0.945 0.484 c -0.508 0.246 -0.918 0.477 -0.918 0.508 c 0 0.031 0.047 0.074 0.102 0.094 c 0.133 0.047 0.172 0.258 0.258 1.516 c 0.082 1.145 0.066 1.195 -0.395 1.195 c -0.316 0.004 -0.555 0.074 -0.523 0.16 c 0.016 0.039 0.285 0.16 0.598 0.27 c 0.316 0.105 0.613 0.234 0.668 0.281 c 0.078 0.074 0.031 0.285 -0.258 1.207 c -0.195 0.617 -0.406 1.148 -0.465 1.184 c -0.078 0.047 -0.316 -0.008 -0.824 -0.184 l -0.711 -0.25 c -0.105 0.109 -0.203 0.234 -0.254 0.371 c 0 0.047 -0.059 0.137 -0.129 0.195 c -0.973 -0.332 -1.781 -0.965 -2.793 -1.453 c 0 0 0.758 1.367 0.441 1.547 c -0.27 0.188 -0.441 0.809 -0.223 2.023 c 0.195 1.109 0.215 1.32 0.117 1.379 c -1.145 0.23 -2.281 0.5 -3.438 0.668 c -0.066 -1.316 -0.766 -2.773 -0.824 -3.82" fill="#cfebf4"/><path d="m 7.5 17.12 c -0.477 0.238 -0.75 0.648 -1.242 0.879 c -0.074 -0.027 -1.52 -1.836 -1.516 -1.898 c 0.004 -0.023 0.25 -0.285 0.547 -0.586 c 2.566 -2.125 1.344 -3.348 1.543 -5.102 c 0 -0.238 -0.055 -0.344 -0.309 -0.637 c -0.508 -0.566 -1.207 -1.449 -1.207 -1.516 c 0 -0.094 1.824 -1.805 1.922 -1.805 c 1.891 2.738 4.324 2.301 4.406 1.656 c 0.078 -1.594 0.27 -1.109 0.52 -3.07 c 0.035 -0.078 0.301 -0.063 0.633 0.039 c 0.805 0.27 1.824 -0.008 1.82 0.746 c 0.027 0.746 -0.219 1.418 -0.152 2.148 c 0.422 -0.211 0.637 -0.59 1.059 -0.836 c 0.34 0.258 1.016 0.723 0.941 1.121 c -0.039 0.188 -1.809 1.504 -0.98 0.855 c 0.121 -0.094 1.508 1.734 1.508 1.973 c -0.047 0.191 0.711 0.133 0.578 0.27 l 0.699 0.039 c 0.395 0.02 0.719 0.07 0.746 0.117 c 0.094 0.145 0.211 2.145 0.129 2.238 c -1.098 0.352 -2.539 0.43 -3.414 0.504 c -0.293 0 0.035 0.211 0.055 0.348 c -2 0.438 -3.09 2.5 -4.629 1.215 c -1.57 0.535 -2.172 1.879 -3.656 1.301" fill="#b1dfec"/><path d="m 12.191 17.867 c -0.035 -0.047 -0.23 -0.543 -0.43 -1.102 c -0.199 -0.563 -0.391 -1.059 -0.422 -1.109 c -0.035 -0.047 -0.133 -0.078 -0.219 -0.066 c -0.121 0.02 -0.309 0.273 -0.816 1.109 c -0.367 0.598 -0.707 1.113 -0.758 1.145 c -0.07 0.043 -0.355 -0.102 -0.973 -0.488 c -0.48 -0.301 -0.898 -0.57 -0.934 -0.598 c -0.035 -0.027 0.023 -0.188 0.129 -0.355 c 0.324 -0.52 0.953 -1.633 0.953 -1.688 c 0 -0.109 -0.207 -0.047 -1.164 0.363 c -0.672 0.289 -1.02 0.402 -1.094 0.367 c -0.121 -0.059 -0.715 -1.629 -0.652 -1.723 c 0.02 -0.031 0.32 -0.18 0.664 -0.328 l 0.629 -0.266 v -0.258 c 0 -0.398 -0.086 -0.484 -0.563 -0.578 c -0.359 -0.07 -0.426 -0.109 -0.426 -0.223 c 0 -0.199 0.211 -1.117 0.27 -1.172 c 0.027 -0.027 0.176 -0.02 0.328 0.012 c 0.465 0.102 0.477 0.098 0.422 -0.199 c -0.055 -0.32 -0.051 -0.328 0.902 -1.438 l 0.695 -0.816 c -0.16 -0.711 -0.551 -1.434 -0.637 -2.047 c 0.059 -0.055 1.316 -0.566 1.387 -0.566 c 0.043 0 0.137 0.156 0.211 0.348 c 0.074 0.188 0.27 0.691 0.434 1.113 c 0.164 0.426 0.344 0.785 0.406 0.805 c 0.156 0.059 0.289 -0.074 0.316 -0.313 c -0.063 -0.398 1.742 -0.172 1.855 -0.109 c 0.078 0.063 0.012 0.621 -0.023 1.078 c -0.406 0.695 0.527 0.176 0.453 0.605 c -0.02 0.121 -0.008 0.223 0.027 0.223 c 0.035 0 0.199 -0.141 0.363 -0.313 c 0.641 -0.66 1.855 -1.793 1.93 -1.793 c 0.117 0 0.805 0.703 0.805 0.824 c 0 0.059 -0.078 0.211 -0.176 0.344 c -0.211 0.289 -0.168 0.379 0.117 0.242 c 0.117 -0.059 0.238 -0.082 0.266 -0.051 c 0.094 0.102 1.059 2.063 1.059 2.152 c 0 0.09 -0.695 0.512 -1.605 0.973 c -0.609 0.309 -0.598 0.41 0.055 0.477 c 0.426 0.047 0.672 0.184 0.609 0.336 c -0.086 0.508 -0.133 1.047 -0.324 1.496 l -0.387 -0.047 l -0.383 -0.043 l 0.039 0.25 c 0.02 0.137 0.047 0.285 0.063 0.332 c 0.016 0.043 0.406 0.258 0.875 0.477 c 0.465 0.219 0.848 0.43 0.848 0.469 c 0 0.082 -0.547 1.176 -0.586 1.176 c -0.016 0 -0.387 -0.156 -0.828 -0.352 c -0.777 -0.344 -1.68 -0.699 -1.777 -0.699 c -0.18 0.402 0.484 1.047 0.18 1.324 c -0.117 0.105 -1.82 0.781 -1.969 0.781 c -0.039 0 -0.105 -0.039 -0.145 -0.082" fill="#49b7e6"/><path d="m 8.574 15.414 l 0.516 -0.727 c 0.281 -0.398 0.516 -0.758 0.516 -0.797 c -0.113 -0.16 -0.293 -0.262 -0.359 -0.449 c -0.094 -0.273 -0.164 -0.293 -1.191 -0.355 c -0.984 -0.063 -0.984 -0.063 -0.961 -0.664 l 0.023 -0.492 c 0.383 0.008 0.781 0.066 1.16 0.004 c 0.207 -0.035 0.254 -0.082 0.316 -0.309 c 0.043 -0.148 0.113 -0.289 0.156 -0.316 c 0.414 -0.07 0.836 0.191 1.227 0.055 c 0.074 -0.07 -0.023 -0.629 -0.445 -2.574 c -0.043 -0.184 -0.051 -0.355 -0.02 -0.383 c 0.449 -0.176 0.852 -0.211 1.332 -0.371 c 0.164 -0.063 0.23 0.082 0.387 0.848 c 0.199 0.996 0.531 1.191 0.762 0.457 c 0.18 -0.57 0.25 -0.621 0.605 -0.445 c 0.156 0.082 0.316 0.172 0.352 0.199 c 0.066 0.063 -0.109 1 -0.289 1.52 c -0.059 0.176 -0.102 0.387 -0.086 0.469 c 0.02 0.121 0.195 0.004 1.172 -0.785 c 0.633 -0.512 1.176 -0.93 1.207 -0.93 c 0.234 0.234 0.426 0.57 0.609 0.813 c 0.211 0.277 0.387 0.555 0.387 0.613 c -0.004 0.063 -0.238 0.297 -0.523 0.523 c -0.809 0.641 -1.496 1.27 -1.496 1.375 c 0 0.055 0.082 0.133 0.18 0.176 c 0.215 0.09 0.289 0.273 0.184 0.457 c -0.172 0.305 -0.09 0.438 0.48 0.793 c 0.301 0.188 0.582 0.395 0.621 0.453 c 0.055 0.086 0.008 0.246 -0.195 0.652 c -0.148 0.293 -0.316 0.605 -0.371 0.688 l -0.102 0.148 l -0.633 -0.313 c -0.348 -0.172 -0.934 -0.48 -1.305 -0.688 c -0.375 -0.207 -0.703 -0.348 -0.734 -0.316 c -0.035 0.035 -0.074 0.246 -0.086 0.469 c -0.148 1.242 -1.082 -0.109 -1.172 -0.156 c -0.102 -0.043 -0.184 -0.109 -0.184 -0.148 c 0 -0.203 -0.238 -0.004 -0.645 0.547 c -0.25 0.336 -0.492 0.613 -0.539 0.613 c -0.332 -0.188 -0.547 -0.395 -0.855 -0.652" fill="#3b97d1"/><path d="m 11.227 15.32 c -0.023 -0.074 -0.137 -0.203 -0.25 -0.277 c -0.266 -0.176 -0.313 -0.398 -0.223 -0.992 c 0.039 -0.262 0.043 -0.504 0.008 -0.535 c -0.031 -0.031 -0.305 -0.008 -0.605 0.055 c -0.301 0.063 -0.578 0.098 -0.617 0.074 c -0.207 -0.273 -0.332 -0.645 -0.625 -0.762 c -0.258 -0.102 -0.262 -0.113 -0.219 -0.391 c 0.023 -0.16 0.086 -0.438 0.133 -0.617 c 0.098 -0.375 -0.043 -0.352 1.133 -0.191 c 0.75 0.105 0.762 0.09 0.672 -0.859 c -0.039 -0.406 -0.059 -0.773 -0.043 -0.816 c 0.043 -0.105 0.273 -0.16 0.688 -0.16 c 0.285 -0.004 0.363 0.027 0.461 0.172 c 0.066 0.094 0.152 0.164 0.191 0.152 c 0.035 -0.012 0.152 -0.273 0.258 -0.574 l 0.191 -0.551 c 0.152 0.059 0.301 0.117 0.449 0.176 l -0.129 0.398 c -0.391 1.195 -0.57 1.777 -0.57 1.852 c 0 0.184 0.359 0.059 0.93 -0.328 c 0.332 -0.227 0.648 -0.41 0.703 -0.41 c 0.113 0 0.523 0.598 0.527 0.77 c 0 0.066 -0.211 0.262 -0.504 0.465 c -0.52 0.359 -0.676 0.531 -0.59 0.652 c 0.027 0.039 0.238 0.172 0.469 0.297 c 0.316 0.168 0.406 0.25 0.371 0.336 c -0.023 0.063 -0.109 0.273 -0.191 0.473 c -0.113 0.547 -0.59 0.152 -0.715 0.488 c -0.066 0.18 -0.246 0.348 -0.375 0.348 c -0.02 0 -0.215 -0.176 -0.434 -0.391 c -0.219 -0.215 -0.426 -0.367 -0.461 -0.336 c -0.031 0.031 -0.074 0.398 -0.094 0.816 l -0.035 0.766 c -0.172 0.02 -0.445 0.059 -0.504 -0.098" fill="#1869b2"/></svg>