<svg xmlns="http://www.w3.org/2000/svg" viewBox="0 0 24 24"><path d="m 15.297 23.22 c -12.504 4.48 -18.586 -11.621 -13.496 -17.672 c 5.094 -6.05 13.82 -8.117 18.207 -1.266 c 4.391 6.852 7.797 14.457 -4.711 18.938" fill="#f4f4f4"/><path d="m 7.246 17.344 c -0.379 -0.035 -0.75 -0.137 -0.996 -0.273 c -0.477 -0.266 -1 -0.918 -1.098 -1.363 c -0.039 -0.18 -0.07 -1.254 -0.07 -2.387 c 0 -2.246 -0.008 -2.207 0.578 -2.852 c 0.621 -0.684 0.883 -0.762 2.508 -0.762 c 1.301 0 1.465 0.02 1.816 0.207 c 0.777 0.41 1.32 1.219 1.32 1.973 v 0.43 h -0.73 c -0.762 0 -0.84 -0.043 -0.84 -0.469 c 0 -0.102 -0.105 -0.285 -0.234 -0.414 c -0.227 -0.227 -0.258 -0.23 -1.324 -0.199 c -1.574 0.043 -1.48 -0.102 -1.48 2.328 v 1.949 l 0.246 0.164 c 0.203 0.129 0.453 0.16 1.328 0.16 c 1.238 0 1.426 -0.086 1.527 -0.699 l 0.055 -0.352 h 0.684 c 0.777 0 0.824 0.043 0.727 0.676 c -0.117 0.777 -0.801 1.523 -1.617 1.77 c -0.422 0.129 -1.637 0.184 -2.402 0.113" fill="#ef95a2"/><path d="m 5.117 14.816 c -0.082 -0.094 -0.09 -0.563 -0.043 -1.789 c 0.07 -1.746 -0.02 -1.844 0.461 -2.48 c 0.242 -0.32 1 -0.863 1.504 -0.793 c 0.535 -0.023 0.563 -0.129 0.602 0.594 c 0.074 1.328 -0.297 0.645 -0.609 0.965 l -0.285 0.297 c -0.031 1.141 -0.051 2.199 -0.051 3.191 c -0.445 0.012 -1.023 0.086 -1.578 0.02" fill="#e5354d"/><path d="m 13.746 17.18 c -0.402 -0.184 -0.961 -0.746 -1.203 -1.215 c -0.137 -0.258 -0.152 -0.559 -0.117 -2.406 c 0.047 -2.465 0.113 -2.715 0.922 -3.348 c 0.559 -0.438 0.836 -0.5 2.289 -0.5 c 0.895 0 1.25 0.039 1.586 0.168 c 0.527 0.203 1.188 0.895 1.344 1.41 c 0.07 0.23 0.109 1.047 0.109 2.203 c 0 2.117 -0.098 2.559 -0.711 3.141 c -0.664 0.633 -0.953 0.715 -2.488 0.715 c -1.117 -0.004 -1.43 -0.031 -1.73 -0.168 m 2.988 -1.426 c 0.172 -0.09 0.277 -0.234 0.316 -0.426 c 0.078 -0.375 0.074 -2.73 0 -3.363 c -0.055 -0.445 -0.09 -0.504 -0.367 -0.617 c -0.195 -0.082 -0.66 -0.125 -1.305 -0.125 c -0.922 0 -1.02 0.016 -1.195 0.203 c -0.203 0.219 -0.238 0.672 -0.215 3.01 c 0.008 1.027 0.125 1.25 0.703 1.363 c 0.648 0.121 1.781 0.098 2.063 -0.043" fill="#949fa4"/><g fill="#e5354d"><path d="m 7.801 8.383 c -0.352 -0.148 -0.605 -0.648 -0.516 -1 c 0.074 -0.309 0.547 -0.688 0.848 -0.688 c 0.285 0 0.828 0.305 0.906 0.504 c 0.047 0.117 0.441 0.137 2.75 0.137 h 2.695 c 0.277 -0.277 0.633 -0.637 0.984 -0.641 c 0.375 0 0.836 0.344 0.922 0.688 c 0.086 0.336 -0.16 0.832 -0.496 1 c -0.715 0.215 -0.977 -0.141 -1.379 -0.594 h -5.395 c -0.164 0.25 -0.363 0.539 -0.637 0.641 c -0.328 0.113 -0.313 0.113 -0.684 -0.047"/><path d="m 7.367 15.895 h 1.355 c 0.035 0 0.063 0.023 0.063 0.055 v 1.297 c 0 0.031 -0.027 0.055 -0.063 0.055 h -1.355 c -0.035 0 -0.063 -0.023 -0.063 -0.055 v -1.297 c 0 -0.031 0.027 -0.055 0.063 -0.055"/></g><g fill="#3e545f"><path d="m 14.184 17.313 c -0.461 -0.09 -0.973 -0.32 -1.285 -0.77 c -0.168 -0.25 -0.344 -0.695 -0.398 -1.023 l -0.078 -0.477 c 0.484 -0.051 1.148 -0.027 1.52 -0.055 c 0.063 0.199 0.031 0.641 0.449 0.742 c 0.152 0.035 0.844 0.188 1.801 0.215 c 0.078 0 0.086 0.211 0.086 0.754 c 0 0.504 -0.012 0.609 -0.078 0.633 c -0.664 -0.012 -1.359 0.082 -2.02 -0.02"/><path d="m 17.14 15.04 c 0.016 -0.801 -0.059 -2.516 -0.012 -2.973 c 0.418 -0.027 1.105 -0.113 1.465 0.078 l 0.121 1.512 l -0.121 1.461 c -0.395 -0.078 -1.18 0.09 -1.453 -0.078"/><path d="m 15.04 9.723 h 1.258 c 0.035 0 0.063 0.023 0.063 0.055 v 1.371 c 0 0.031 -0.027 0.055 -0.063 0.055 h -1.258 c -0.035 0 -0.063 -0.023 -0.063 -0.055 v -1.371 c 0 -0.031 0.027 -0.055 0.063 -0.055"/><path d="m 16.594 7.613 c 0 0.539 -0.473 0.973 -1.055 0.973 c -0.586 0 -1.059 -0.438 -1.059 -0.973 c 0 -0.539 0.473 -0.977 1.059 -0.977 c 0.582 0 1.055 0.438 1.055 0.977"/></g><path d="m 9.883 11.793 h 1.352 c 0.035 0 0.066 0.023 0.066 0.055 v 0.348 c 0 0.031 -0.031 0.055 -0.066 0.055 h -1.352 c -0.035 0 -0.066 -0.023 -0.066 -0.055 v -0.348 c 0 -0.031 0.031 -0.055 0.066 -0.055" fill="#e5354d"/></svg>