<svg xmlns="http://www.w3.org/2000/svg" viewBox="0 0 24 24"><path d="m 1.871 5.895 c 17.918 -20.848 35.15 22.01 7.437 17.609 c -6.078 -0.965 -12.266 -11.992 -7.437 -17.609" fill="#f8791a"/><path d="m 4.527 7.938 c 13.11 -14.168 25.707 14.965 5.437 11.973 c -4.441 -0.656 -8.965 -8.152 -5.437 -11.973" fill="#ffd600"/><g fill="#121721"><path d="m 16.234 16.14 c -0.387 -0.066 -1.172 -0.305 -1.211 -0.367 c -0.016 -0.027 -0.063 -0.391 -0.102 -0.813 c -0.09 -0.953 -0.227 -1.957 -0.395 -2.867 c -0.133 -0.734 -0.484 -2.199 -0.535 -2.254 c -0.02 -0.016 -0.207 0.004 -0.422 0.051 c -0.211 0.043 -0.395 0.07 -0.406 0.059 c -0.012 -0.012 0.113 -0.277 0.277 -0.594 c 0.289 -0.555 0.309 -0.574 0.586 -0.648 c 0.156 -0.039 0.586 -0.074 0.953 -0.078 c 1.801 -0.012 2.938 0.672 3.102 1.859 c 0.047 0.352 -0.043 0.637 -0.328 1.035 l -0.215 0.309 l 0.363 0.145 c 0.199 0.082 0.434 0.203 0.52 0.27 c 0.457 0.336 0.773 1.188 0.641 1.723 c -0.199 0.777 -0.922 1.668 -1.668 2.039 c -0.406 0.203 -0.594 0.227 -1.16 0.133 m 1.637 -1.297 c 0.332 -0.332 0.352 -0.691 0.07 -1.285 c -0.246 -0.516 -0.922 -1.02 -1.668 -1.242 c -0.441 -0.133 -0.457 -0.219 -0.066 -0.41 c 0.594 -0.301 0.813 -0.59 0.813 -1.086 c 0 -0.367 -0.113 -0.594 -0.457 -0.887 c -0.297 -0.254 -0.996 -0.504 -1.309 -0.473 l -0.188 0.023 l 0.426 2.355 c 0.234 1.297 0.445 2.469 0.473 2.602 c 0.039 0.211 0.082 0.262 0.328 0.371 c 0.328 0.145 0.711 0.23 1.094 0.238 c 0.223 0.008 0.301 -0.027 0.484 -0.207"/><path d="m 6.445 16.15 c 0 -0.066 -0.047 -0.563 -0.098 -1.102 c -0.156 -1.559 -0.406 -3.066 -0.742 -4.469 c -0.219 -0.914 -0.199 -0.898 -0.789 -0.719 c -0.172 0.051 -0.316 0.086 -0.32 0.078 c -0.008 -0.008 0.137 -0.277 0.316 -0.598 c 0.32 -0.582 0.328 -0.59 0.629 -0.656 c 0.461 -0.098 1.617 -0.082 2.055 0.031 c 0.891 0.23 1.492 0.691 1.828 1.406 c 0.281 0.602 0.277 1.066 -0.012 1.609 c -0.469 0.879 -1.738 1.668 -1.977 1.227 c -0.098 -0.188 -0.078 -0.262 0.074 -0.262 c 0.242 0 0.68 -0.305 0.848 -0.594 c 0.355 -0.609 0.063 -1.496 -0.672 -2.035 c -0.211 -0.156 -0.352 -0.203 -0.641 -0.227 c -0.359 -0.023 -0.375 -0.02 -0.371 0.125 c 0 0.082 0.211 1.328 0.473 2.762 l 0.473 2.613 l -0.449 0.414 c -0.563 0.516 -0.625 0.555 -0.625 0.395"/><path d="m 10.93 16.09 c -0.527 -0.242 -1.01 -0.891 -1.211 -1.645 c -0.145 -0.539 -0.059 -0.969 0.281 -1.363 l 0.234 -0.277 l 0.039 0.512 c 0.074 0.977 0.566 1.695 1.316 1.914 c 0.41 0.117 0.738 0.074 0.875 -0.121 c 0.344 -0.492 -0.273 -2.164 -0.996 -2.695 c -0.336 -0.25 -0.938 -0.188 -1.199 0.129 c -0.148 0.176 -0.211 0.109 -0.18 -0.184 c 0.07 -0.617 0.809 -1.246 1.324 -1.129 c 0.746 0.176 1.516 1.043 1.809 2.043 c 0.137 0.457 0.129 0.797 -0.023 1.289 c -0.242 0.777 -0.781 1.359 -1.453 1.559 c -0.379 0.113 -0.504 0.109 -0.816 -0.031"/></g></svg>