<svg xmlns="http://www.w3.org/2000/svg" viewBox="0 0 24 24"><path d="m 23.22 8.703 c 4.48 12.504 -11.621 18.586 -17.672 13.496 c -6.05 -5.094 -8.117 -13.82 -1.266 -18.207 c 6.855 -4.391 14.457 -7.797 18.938 4.711" fill="#b0dfe5"/><path d="m 9.125 19.535 c -0.309 -0.16 -0.289 -0.281 0.184 -1.184 c 1.531 -2.926 2.199 -5.75 2.023 -8.586 c -0.031 -0.48 -0.09 -1.121 -0.129 -1.422 l -0.078 -0.547 l 0.227 -0.043 c 0.645 -0.121 0.957 -0.145 1.77 -0.145 c 0.723 0.004 0.953 0.02 1.344 0.098 c 1.297 0.254 2.289 0.715 3.047 1.414 c 0.586 0.543 0.98 1.18 1.168 1.887 c 0.141 0.539 0.133 1.297 -0.023 1.848 c -0.234 0.824 -0.676 1.508 -1.414 2.188 c -1.105 1.02 -2.613 1.664 -4.391 1.883 c -0.199 0.023 -0.156 -0.031 -0.672 0.59 c -0.742 0.707 -1.949 2.336 -3.055 2.02 m 0.48 -4.191 c -0.051 -0.008 -0.25 -0.066 -0.449 -0.125 c -1.559 -0.465 -2.691 -1.59 -2.891 -2.875 c -0.168 -1.059 0.406 -2.207 1.531 -3.066 c 0.352 -0.266 0.934 -0.609 1.25 -0.73 l 0.176 -0.07 v -0.426 c 0 -0.5 -0.063 -1.074 -0.176 -1.625 c -0.074 -0.344 -0.074 -0.402 -0.02 -0.484 c 0.078 -0.117 0.285 -0.125 0.469 -0.023 c 0.211 0.113 0.645 1.047 0.867 1.863 c 0.496 1.82 0.34 4.777 -0.367 7.04 c -0.172 0.543 -0.191 0.57 -0.391 0.527" fill="#4581b3"/></svg>