<svg xmlns="http://www.w3.org/2000/svg" viewBox="0 0 24 24"><path d="m 4.316 2.828 c 8.926 -5.84 17.06 -1.129 18.988 5.484 c 2.594 8.898 -4.227 20.977 -18.281 13.02 c -5.586 -3.164 -7.07 -14.34 -0.707 -18.5" fill="#545470"/><path d="m 12.891 17.992 c -0.098 -0.063 -0.211 -0.375 -0.254 -0.691 c -0.086 -0.656 -0.309 -0.738 -0.629 -0.23 c -0.289 0.457 -0.723 0.453 -0.891 -0.004 c -0.098 -0.266 -0.074 -0.438 0.082 -0.688 c 0.117 -0.188 0.176 -0.402 0.125 -0.48 c -0.148 -0.25 -0.418 -0.16 -0.605 0.203 c -0.227 0.434 -0.75 0.469 -0.879 0.059 c -0.047 -0.16 -0.012 -0.477 0.078 -0.703 c 0.125 -0.316 0.129 -0.453 0.012 -0.574 c -0.121 -0.125 -0.238 -0.074 -0.496 0.215 c -0.188 0.207 -0.414 0.379 -0.508 0.379 c -0.461 0 -0.664 -0.789 -0.289 -1.113 c 0.109 -0.094 0.199 -0.227 0.199 -0.293 c 0 -0.223 -0.289 -0.129 -0.695 0.223 c -0.316 0.277 -0.449 0.32 -0.656 0.203 c -0.336 -0.184 -0.332 -0.715 0.008 -1.035 c 0.148 -0.137 0.27 -0.305 0.27 -0.367 c 0 -0.23 -0.324 -0.113 -0.691 0.246 c -0.414 0.41 -0.727 0.371 -0.91 -0.117 c -0.094 -0.25 -0.043 -0.395 0.23 -0.699 c 0.379 -0.414 0.168 -0.531 -0.301 -0.168 c -0.426 0.336 -0.863 0.262 -0.965 -0.168 c -0.074 -0.301 -0.02 -0.434 0.301 -0.707 c 0.383 -0.332 0.383 -0.336 0.051 -0.242 c -0.832 0.234 -0.973 0.242 -1.086 0.055 c -0.188 -0.305 -0.141 -0.777 0.086 -0.867 c 0.176 -0.07 0.168 -0.137 -0.074 -0.477 c -0.203 -0.285 -0.258 -0.5 -0.195 -0.766 c 0.078 -0.313 0.219 -0.41 0.848 -0.59 c 2.832 -0.809 4.613 -1.367 5.863 -1.844 l 1.438 -0.551 l 1.5 1.012 c 1.691 1.141 3.586 2.25 4.629 2.715 c 0.719 0.316 1.234 0.832 1.234 1.223 c 0 0.117 -0.164 0.391 -0.363 0.609 c -0.332 0.359 -0.348 0.426 -0.199 0.848 c 0.086 0.254 0.16 0.566 0.16 0.695 c 0 0.309 -0.508 0.305 -0.852 -0.012 c -0.254 -0.234 -0.258 -0.234 -0.109 0.059 c 0.086 0.168 0.152 0.465 0.152 0.66 c 0 0.449 -0.332 0.473 -0.762 0.055 c -0.391 -0.375 -0.547 -0.23 -0.348 0.316 c 0.273 0.742 -0.121 1.09 -0.66 0.586 c -0.344 -0.316 -0.605 -0.063 -0.379 0.367 c 0.305 0.598 -0.184 0.949 -0.676 0.488 c -0.203 -0.191 -0.242 -0.191 -0.398 0.004 c -0.137 0.168 -0.141 0.293 -0.016 0.574 c 0.121 0.27 0.121 0.406 0.004 0.551 c -0.215 0.266 -0.336 0.242 -0.656 -0.113 l -0.277 -0.305 l -0.301 0.309 c -0.164 0.168 -0.363 0.512 -0.445 0.758 c -0.152 0.465 -0.395 0.602 -0.703 0.398 m 0.246 -0.855 c 0 -0.152 -0.063 -0.277 -0.137 -0.277 c -0.074 0 -0.133 0.125 -0.133 0.277 c 0 0.152 0.059 0.277 0.133 0.277 c 0.074 0 0.137 -0.125 0.137 -0.277 m -1.344 -0.996 c 0 -0.199 -0.238 -0.121 -0.32 0.105 c -0.148 0.395 -0.078 0.551 0.121 0.273 c 0.109 -0.148 0.199 -0.32 0.199 -0.379 m 3.043 -0.039 c -0.043 -0.117 -0.145 -0.215 -0.223 -0.215 c -0.102 0 -0.098 0.09 0.008 0.289 c 0.164 0.324 0.34 0.262 0.215 -0.074 m -4.453 -0.629 c 0.113 -0.23 0.148 -0.418 0.074 -0.418 c -0.145 0 -0.41 0.445 -0.41 0.684 c 0 0.258 0.121 0.164 0.336 -0.266 m 5.52 -0.52 c -0.148 -0.152 -0.246 0.086 -0.141 0.34 c 0.098 0.238 0.105 0.238 0.16 -0.008 c 0.035 -0.137 0.023 -0.289 -0.02 -0.332 m -6.801 -0.445 c 0.176 -0.336 0.176 -0.465 0.004 -0.355 c -0.215 0.137 -0.43 0.625 -0.277 0.625 c 0.074 0 0.195 -0.121 0.273 -0.27 m 7.867 -0.414 c -0.051 -0.16 -0.148 -0.258 -0.215 -0.211 c -0.074 0.047 -0.066 0.191 0.02 0.359 c 0.18 0.348 0.316 0.242 0.195 -0.148 m -9.07 -0.418 c 0.211 -0.414 0.164 -0.492 -0.133 -0.219 c -0.285 0.27 -0.348 0.488 -0.137 0.488 c 0.07 0 0.191 -0.121 0.27 -0.27 m 10.07 -0.453 c -0.098 -0.18 -0.191 -0.246 -0.223 -0.152 c -0.027 0.09 0.023 0.309 0.113 0.484 c 0.094 0.18 0.188 0.25 0.219 0.156 c 0.031 -0.094 -0.02 -0.313 -0.109 -0.488 m -11.164 -0.418 c 0.086 -0.09 0.16 -0.258 0.16 -0.367 c 0 -0.16 -0.055 -0.148 -0.27 0.051 c -0.277 0.258 -0.352 0.484 -0.16 0.484 c 0.059 0 0.18 -0.074 0.27 -0.168 m 12.11 0.063 c 0 -0.055 -0.09 -0.258 -0.195 -0.449 c -0.137 -0.25 -0.195 -0.281 -0.195 -0.117 c -0.008 0.328 0.133 0.672 0.277 0.672 c 0.066 0 0.117 -0.047 0.113 -0.105 m -13.09 -1.145 c 0.133 -0.152 0.188 -0.273 0.121 -0.273 c -0.156 0.008 -0.594 0.348 -0.594 0.461 c 0 0.18 0.234 0.086 0.473 -0.188 m 11.207 -1.184 c -0.324 -0.246 -5.04 3.266 -4.34 3.805 c 0.32 0.328 4.73 -3.43 4.34 -3.805 m -6.75 0.605 c 0.23 -0.195 0.18 -0.695 -0.078 -0.781 c -0.109 -0.039 -0.148 -0.004 -0.098 0.086 c 0.051 0.086 -0.027 0.277 -0.172 0.426 c -0.359 0.371 -0.477 0.141 -0.828 -0.258 c -0.277 -0.313 -0.41 -0.582 -0.262 -0.766 c 0.125 -0.156 0.219 -0.18 0.316 -0.078 c 0.18 0.184 0.355 0.188 0.355 0.004 c 0 -0.078 -0.16 -0.207 -0.355 -0.281 c -0.277 -0.109 -0.406 -0.09 -0.602 0.094 c -0.387 0.359 -0.305 0.82 0.238 1.379 c 0.41 0.426 0.551 0.492 0.891 0.422 c 0.227 -0.047 0.492 -0.156 0.594 -0.246 m -5.301 -0.445 c 0.129 -0.102 0.195 -0.223 0.148 -0.27 c -0.105 -0.113 -0.582 0.152 -0.582 0.328 c 0 0.18 0.152 0.16 0.434 -0.059 m 6.551 -0.582 c -0.152 -0.191 -0.289 -0.246 -0.094 -0.359 c 0.566 -0.324 0.004 -1.145 -0.789 -1.145 c -0.254 0 -0.559 0.098 -0.672 0.215 c -0.184 0.191 -0.32 0.227 0.438 0.867 c 0.801 0.676 1.508 0.906 1.117 0.422 m -1.047 -0.758 c -0.164 -0.16 -0.266 -0.348 -0.223 -0.422 c 0.125 -0.207 0.695 -0.148 0.93 0.094 c 0.488 0.504 -0.195 0.82 -0.707 0.328 m 3.035 -0.078 c 0.098 -0.613 0.152 -0.664 0.434 -0.402 c 0.145 0.137 0.266 0.18 0.266 0.094 c 0 -0.199 -1.617 -1.594 -1.723 -1.484 c -0.043 0.047 -0.086 0.277 0.117 0.445 c 0.387 0.32 0.848 0.734 0.438 1.117 c -0.059 0.055 -0.34 -0.105 -0.715 -0.449 c -0.73 -0.676 -0.949 -0.621 -0.836 -0.309 c 0.109 0.293 1.66 1.367 1.832 1.305 c 0.082 -0.027 0.168 -0.168 0.188 -0.316" fill="#b5b5c5"/><path d="m 12.137 15.578 c -0.512 -0.371 -1.211 -0.875 -1.551 -1.121 c -0.555 -0.402 -1.219 -0.941 -2.953 -2.406 c -0.309 -0.262 -0.902 -0.801 -1.32 -1.199 c -0.418 -0.398 -0.914 -0.852 -1.105 -1 c -0.344 -0.273 -0.43 -0.566 -0.25 -0.855 c 0.055 -0.082 1.047 -0.418 2.211 -0.742 c 1.164 -0.328 2.828 -0.852 3.695 -1.164 l 1.578 -0.566 l 1.535 1.016 c 0.844 0.563 2.289 1.418 3.207 1.906 c 0.922 0.488 1.746 1 1.836 1.133 c 0.145 0.223 0.039 0.367 -1.063 1.488 c -2.203 2.234 -4.395 4.191 -4.703 4.191 c -0.102 0 -0.602 -0.305 -1.117 -0.676 m 2.609 -1.336 c 0.746 -0.648 1.754 -1.586 2.234 -2.082 c 0.875 -1.078 0.387 -0.371 1.262 -1.566 c -0.031 -0.02 -0.762 -0.559 -1.379 -0.875 c -0.621 -0.316 -1.875 -1.082 -2.789 -1.699 c -0.918 -0.613 -1.703 -1.117 -1.75 -1.117 c -0.047 0 -0.746 0.254 -1.559 0.563 c -0.813 0.313 -2.176 0.777 -3.03 1.035 c -0.855 0.254 -1.746 0.785 -1.84 0.816 c 0.445 0.723 1.32 1.438 2.059 2.168 c 2.531 2.117 5.129 4.047 5.34 3.969 c 0.055 -0.02 0.707 -0.563 1.453 -1.211" fill="#545470"/></svg>