<svg xmlns="http://www.w3.org/2000/svg" viewBox="0 0 24 24"><defs><linearGradient id="0" gradientUnits="userSpaceOnUse" y1="1043.76" x2="0" y2="1012.92" gradientTransform="matrix(0.42621 0 0 0.44704 2.432 -447.67)"><stop stop-color="#ffe6b9"/><stop offset="1" stop-color="#fffbf4"/></linearGradient></defs><g fill="#fff"><path d="m 8.684 12.395 v 4.68 c 0 2.805 0.48 2.805 4.813 2.805 h 0.961 c 4.332 0 4.813 0 4.813 -2.805 v -4.68 c 0 -2.805 -0.48 -2.805 -4.813 -2.805 h -0.961 c -4.332 0 -4.813 0 -4.813 2.805 m 4.813 -1.871 h 0.961 c 3.852 0 3.852 0 3.852 1.871 v 3.273 c 0 1.871 0 1.871 -3.852 1.871 h -0.961 c -3.852 0 -3.852 0 -3.852 -1.871 v -3.273 c 0 -1.871 0 -1.871 3.852 -1.871"/><path d="m 10.609 15.754 v -1.813 l 1.684 -1.699 l 2.105 2.125 l 0.844 -0.852 l 2.105 2.125 v 0.113 c 0 0.852 -0.141 0.852 -1.684 0.852 h -3.371 c -1.543 0 -1.684 0 -1.684 -0.852"/><path d="m 17.344 12.395 c 0 0.52 -0.43 0.938 -0.961 0.938 c -0.531 0 -0.965 -0.418 -0.965 -0.938 c 0 -0.516 0.434 -0.934 0.965 -0.934 c 0.531 0 0.961 0.418 0.961 0.934"/><path d="m 11.57 7.719 c -4.332 0 -4.812 0 -4.812 2.805 v 4.68 c 0 1.52 0.145 2.219 0.961 2.535 v -7.215 c 0 -1.691 0.031 -1.848 2.891 -1.863 v -0.008 h 6.5 c -0.426 -0.934 -1.574 -0.934 -4.578 -0.934"/><path d="m 9.645 5.848 c -4.332 0 -4.813 0 -4.813 2.805 v 4.68 c 0 1.52 0.145 2.219 0.965 2.539 v -7.219 c 0 -1.691 0.027 -1.848 2.887 -1.863 v -0.004 h 6.5 c -0.422 -0.938 -1.574 -0.938 -4.574 -0.938"/></g><path d="m 4.27 20.285 c -18.762 -24.441 32.867 -27.914 16.301 -2.965 c -3.777 5.691 -11.332 9.441 -16.301 2.965" fill="#ffa400"/><path d="m 17.293 5.168 c -0.703 0 -1.453 0.051 -2.102 0.051 c -1.445 0 -2.863 -0.055 -4.117 0.043 c -1.938 0.148 -3.375 1.023 -4.367 2.129 c -1.016 1.133 -1.805 2.734 -1.805 4.699 c 0 2.047 0.766 3.574 1.805 4.695 c 0.988 1.063 2.449 2 4.285 2.129 c 3.387 0.238 5.641 -1.727 6.637 -4.215 c 0.645 -1.617 1.422 -3.563 2.098 -5.262 c 0.203 -0.516 0.605 -1.168 0.672 -1.785 c 0.137 -1.227 -0.5 -1.934 -1.301 -2.262 c -0.449 -0.184 -1.105 -0.227 -1.805 -0.227 m -5.707 1.363 c 1.617 0.008 2.785 0.668 3.605 1.43 c 1.031 0.957 1.984 2.91 1.637 5.05 c -0.281 1.746 -1.227 3.133 -2.77 4 c -1.68 0.945 -3.789 0.805 -5.293 -0.129 c -1.453 -0.902 -2.82 -2.648 -2.605 -5.395 c 0.113 -1.461 0.727 -2.473 1.512 -3.305 c 0.734 -0.773 1.762 -1.449 3.191 -1.609 c 0.25 -0.027 0.492 -0.039 0.723 -0.039 m -0.273 1.395 c -0.109 0.008 -0.234 0.031 -0.363 0.086 c -0.344 0.129 -0.254 0.605 -0.227 0.93 c -0.02 0.031 -0.055 0.02 -0.086 0.02 c -0.371 0.02 -0.535 0.422 -0.613 0.746 c 0.02 0.293 -0.02 0.613 -0.07 0.895 c -0.047 0.285 -0.145 0.508 -0.156 0.777 c -0.02 0.246 0.07 0.527 0.051 0.75 c -0.203 0.625 -0.352 1.039 -0.461 1.703 c -0.078 0.152 -0.348 0.477 -0.457 0.547 c -0.027 0.051 0.02 0.16 -0.027 0.23 c -0.09 0.133 -0.227 0.203 -0.305 0.348 c 0.02 0.027 -0.113 0.059 -0.105 0.109 c 0.012 0.047 0.078 0.18 0.105 0.211 c 0.012 0.02 0.109 -0.031 0.109 0 c 0.039 0.121 0.129 0.371 0.223 0.434 c 0.43 0.051 0.43 0.051 0.605 0 c 0.098 -0.293 -0.328 -0.16 -0.289 -0.555 c 0.582 -0.121 0.766 -0.293 1 -0.93 c 0.109 -0.465 0.254 -0.918 0.477 -1.363 c 0.039 -0.031 0.031 -0.109 0.098 -0.141 c 0.262 0.453 0.742 0.777 0.977 1.254 c 0.059 0.613 0.176 0.949 0.379 1.059 c 0.047 0.02 0 0.215 0.039 0.254 c 0 0.059 0.02 0.129 -0.008 0.199 c -0.023 0.051 -0.012 0.109 -0.012 0.16 v 0.063 c 0.012 0.09 0.031 0.094 0.117 0.164 c 0.254 0.168 0.594 0.441 0.934 0.238 c 0.156 -0.262 -0.172 -0.594 -0.406 -0.766 c -0.078 -0.059 -0.215 -0.211 -0.195 -0.313 c 0.125 -0.129 0.215 -0.707 0.164 -1.148 c -0.02 -0.102 -0.039 -0.203 -0.078 -0.285 c -0.117 -0.23 -0.379 -0.555 -0.602 -0.785 c 0.027 -0.031 0.066 -0.074 0.117 -0.094 c 0 -0.223 -0.09 -0.293 -0.207 -0.453 c -0.098 -0.16 -0.32 -0.477 -0.488 -0.574 c 0 0 0 -0.012 -0.164 -0.012 c -0.012 -0.109 0.02 -0.203 0.047 -0.324 c 0 -0.09 0.07 -0.039 0.09 -0.238 c 0.051 -0.172 0.027 -0.074 0.066 -0.246 c 0.039 -0.078 0.063 -0.16 0.063 -0.293 c 0.145 0.051 0.438 0.043 0.563 0 l 0.031 0.02 c 0.039 0.012 0.047 -0.051 0.074 -0.059 c 0.227 -0.121 0.305 -0.332 0.488 -0.355 c 0 0 0.098 -0.051 0.246 0 c 0.059 0 0.105 0.016 0.105 -0.047 c 0.012 -0.09 0.012 -0.164 0.059 -0.223 c 0.039 0.242 0.145 0.512 0.34 0.777 l 0.195 -0.141 c -0.184 -0.234 -0.301 -0.496 -0.32 -0.801 c 0.008 0.02 0.02 0.043 0.039 0.063 c 0.066 0 0.105 -0.152 0.184 -0.141 c 0.012 -0.02 0.031 -0.113 0.051 -0.184 h 0.727 l 0.266 -0.059 v -0.141 l -0.195 -0.023 v -0.16 h -0.051 v -0.184 h -0.113 v 0.172 l -0.305 -0.02 v -0.113 h -0.113 v 0.105 l -0.313 -0.031 v -0.152 h -0.117 v 0.141 l -0.457 -0.031 v -0.047 h -0.344 v -0.094 h -0.184 v 0.051 c -0.02 0.008 -0.039 0.031 -0.059 0.039 h -0.02 c -0.32 -0.262 -0.34 0.273 -0.555 0.152 c -0.02 -0.109 -0.012 -0.211 -0.012 -0.34 c 0.371 -0.012 0.234 -0.113 0.129 -0.246 c -0.039 -0.051 -0.059 -0.129 -0.07 -0.18 c -0.066 -0.25 -0.285 -0.426 -0.609 -0.41 m 0.656 1.559 c 0.043 0 0.07 0.016 0.07 0.016 c 0.117 -0.02 0.223 0.012 0.41 0 c -0.031 0.332 -0.262 0.191 -0.516 0.375 c -0.066 -0.012 -0.148 -0.012 -0.254 -0.012 c -0.02 -0.223 0.059 -0.262 0.098 -0.301 c 0.078 -0.063 0.145 -0.078 0.191 -0.078" fill="url(#0)"/></svg>