<svg xmlns="http://www.w3.org/2000/svg" viewBox="0 0 24 24"><path d="m 21.543 18.395 c 8.574 -12.195 -7.262 -24.555 -17.363 -14.617 c -9.516 9.363 -0.691 23.91 11.148 19.363 c 2.473 -0.949 4.641 -2.508 6.215 -4.746" fill="#f5b1c8"/><path d="m 6.152 11.625 c 0.25 -3.227 3.066 -5.641 6.293 -5.398 c 3.23 0.246 5.648 3.059 5.41 6.289 c -0.242 3.227 -3.051 5.652 -6.277 5.414 c -3.23 -0.234 -5.656 -3.039 -5.426 -6.27" fill="#fff"/><path d="m 10.391 20.05 c -1.664 -0.344 -3.098 -1.102 -4.254 -2.246 c -2.207 -2.188 -2.973 -5.438 -1.977 -8.391 c 0.383 -1.125 1 -2.125 1.871 -3.02 c 3.203 -3.305 8.469 -3.363 11.742 -0.133 c 1.133 1.117 1.891 2.504 2.25 4.102 c 0.168 0.758 0.199 2.242 0.063 3 c -0.547 3.047 -2.586 5.426 -5.496 6.41 c -1.215 0.41 -2.988 0.531 -4.199 0.281 m 2.969 -3.496 c 0.648 -0.184 1.359 -0.594 1.836 -1.055 c 0.242 -0.23 0.473 -0.484 0.512 -0.566 c 0.086 -0.156 0.035 -0.195 -0.777 -0.648 l -0.363 -0.207 l -0.348 0.297 c -0.598 0.508 -1.641 0.93 -2.289 0.926 c -0.41 0 -1.086 -0.164 -1.465 -0.355 c -0.52 -0.258 -1.246 -1.012 -1.484 -1.531 c -0.848 -1.852 0.164 -3.988 2.156 -4.559 l 0.375 -0.109 l -0.02 -0.684 c -0.016 -0.652 -0.023 -0.688 -0.16 -0.707 c -0.223 -0.031 -0.91 0.164 -1.41 0.398 c -1.859 0.879 -2.938 2.816 -2.688 4.836 c 0.137 1.07 0.5 1.832 1.258 2.633 c 0.848 0.891 1.84 1.387 2.965 1.48 c 0.66 0.055 1.398 -0.004 1.902 -0.148 m 3.059 -2.824 c 0.301 -0.66 0.391 -2.055 0.184 -2.855 c -0.441 -1.672 -1.84 -3.051 -3.492 -3.438 c -0.691 -0.16 -0.695 -0.156 -0.695 0.605 c 0 0.707 0.004 0.711 0.453 0.836 c 0.84 0.238 1.648 0.906 2.039 1.695 c 0.363 0.734 0.445 1.434 0.258 2.219 c -0.055 0.227 -0.082 0.43 -0.059 0.449 c 0.102 0.105 1.043 0.637 1.137 0.645 c 0.055 0.004 0.133 -0.066 0.176 -0.152" fill="#e82567"/></svg>