<svg xmlns="http://www.w3.org/2000/svg" viewBox="0 0 24 24"><path d="m 0.352 14.496 c 1.859 12.363 20.363 12.734 23.16 0.715 c 2.879 -9.73 -7.547 -17.684 -15.34 -14.496 c -5.223 1.504 -9.438 7.672 -7.82 13.781" fill="#1ea887"/><g fill="#fff" stroke="#fff" stroke-width="2.169" transform="matrix(0.09375 0 0 0.09375 0.203 0.102)"><path d="m 119.5 145.91 c -4 -0.792 -10.958 -7.667 -12.917 -12.792 c -4.25 -11.08 3.542 -24.417 15.5 -26.542 c 13.04 -2.333 25.17 8.667 23.875 21.667 c -1.208 12.875 -12.5 20.417 -26.458 17.667"/><path d="m 117.5 186.75 c -17 -2.208 -31.917 -11.708 -42.25 -26.875 c -6.917 -10.167 -9.542 -18.08 -10.125 -30.583 c -0.833 -18.5 4.417 -31.667 18.25 -45.792 c 6.292 -6.375 10.08 -9.25 16.292 -12.167 c 30.13 -14.208 66.08 -1.708 80.83 28.13 c 9.167 18.583 8.75 38.542 -1.208 56.5 c -4.333 7.792 -17.08 20.292 -25.04 24.583 c -9.833 5.292 -24.583 7.75 -36.75 6.208 m 28.958 -15.375 c 11 -5.208 18.333 -12.12 23.17 -21.917 c 13.917 -28.21 0.375 -60.958 -29.08 -70.25 c -31.958 -10.08 -64.12 13.708 -64.12 47.38 c 0 19.04 9.875 35.5 26.375 43.917 c 8.708 4.417 13.13 5.333 24.458 5.083 c 10 -0.208 11.5 -0.542 19.25 -4.208"/><path d="m 106.62 217.79 c -31.583 -7.208 -58 -30.542 -69.5 -61.37 c -2.792 -7.5 -3.042 -9.583 -3.458 -27.29 c -0.375 -15.75 -0.125 -20.292 1.375 -25.5 c 8 -27.625 25.417 -48.875 49.875 -60.708 c 14.25 -6.875 24.417 -9.25 40.17 -9.333 c 31 -0.125 56.792 12.625 75.33 37.21 c 12.917 17.208 17.417 30 18.208 52.04 c 0.458 13.833 0.25 16.958 -1.792 24.958 c -6.958 27.25 -24.792 49.583 -49.46 62.04 c -11.958 6.083 -22.75 8.542 -39.04 9.04 c -10.458 0.292 -17.208 -0.042 -21.708 -1.083 m 39.458 -11.625 c 7.333 -1.792 21.792 -8.708 28.5 -13.667 c 14.833 -11 26.292 -28 30.875 -45.833 c 2.208 -8.583 2.5 -29.17 0.5 -38.458 c -3.167 -14.625 -11.792 -29.667 -23.5 -40.833 c -16.875 -16.08 -38.08 -23.833 -61.25 -22.375 c -12.5 0.833 -21.333 3.208 -33 8.958 c -38.04 18.708 -54.667 64.958 -37.75 105.13 c 7.875 18.708 22.333 33.375 41.708 42.25 c 4.375 2 10.667 4.208 13.917 4.833 c 3.292 0.667 6.958 1.458 8.167 1.708 c 3.542 0.833 26.375 -0.417 31.833 -1.708"/></g></svg>