<svg xmlns="http://www.w3.org/2000/svg" viewBox="0 0 24 24"><path d="m 2.309 5.879 c -4.613 4.938 -1.48 10.594 2.914 14.984 c 3.582 3.578 6.902 3.875 10.418 1.754 c 9.191 -5.531 13 -13.06 -0.539 -21.895 c -4.699 -2.184 -10.191 1.973 -12.793 5.156" fill="#c71485"/><path d="m 8.07 5.484 c 0.074 -0.156 0.273 -0.223 0.438 -0.148 l 10.879 4.836 c 0.168 0.074 0.242 0.262 0.164 0.418 l -3.832 7.926 c -0.074 0.156 -0.273 0.223 -0.438 0.148 l -10.879 -4.836 c -0.168 -0.074 -0.242 -0.262 -0.164 -0.418 l 3.832 -7.926" fill="#a5dbff"/><path d="m 17.266 17.715 c -0.031 0.172 -0.203 0.285 -0.383 0.254 l -11.781 -2.035 c -0.184 -0.031 -0.305 -0.195 -0.273 -0.363 l 1.512 -8.633 c 0.031 -0.168 0.203 -0.281 0.383 -0.25 l 11.785 2.035 c 0.18 0.031 0.301 0.195 0.27 0.363 l -1.512 8.629" fill="#ea004d"/><path d="m 18.887 8.473 c 0.031 -0.172 -0.094 -0.336 -0.273 -0.367 l -11.785 -2.035 c -0.18 -0.031 -0.348 0.082 -0.379 0.25 l -0.973 5.551 c 2.922 2.57 6.105 0.418 7 -0.844 c 0.656 0.59 2.422 0.633 3.316 -0.125 c 0.254 1.223 1.367 2.238 2.254 2.348 l 0.84 -4.777" fill="#f05"/><path d="m 14.75 10.93 c 0.031 -0.168 -0.094 -0.352 -0.277 -0.363 l -4.25 -0.734 l 0.16 -0.926 c 0.031 -0.168 -0.094 -0.332 -0.273 -0.363 c -0.18 -0.031 -0.352 0.082 -0.379 0.25 l -0.164 0.926 l -0.984 -0.172 c -0.176 -0.051 -0.352 0.082 -0.383 0.254 c -0.027 0.168 0.094 0.332 0.273 0.363 l 0.984 0.172 l -0.484 2.773 c -0.031 0.168 0.094 0.332 0.273 0.363 l 4.254 0.734 l -0.164 0.926 c -0.027 0.172 0.094 0.332 0.273 0.363 c 0.184 0.031 0.352 -0.078 0.383 -0.25 l 0.16 -0.926 l 0.98 0.172 c 0.18 0.031 0.352 -0.082 0.383 -0.254 c 0.027 -0.168 -0.094 -0.332 -0.273 -0.363 l -0.98 -0.172 l 0.488 -2.773 m -4.641 -0.48 l 3.926 0.676 l -0.43 2.465 l -3.93 -0.676 l 0.434 -2.465" fill="#fff"/></svg>