<svg xmlns="http://www.w3.org/2000/svg" viewBox="0 0 24 24" xmlns:xlink="http://www.w3.org/1999/xlink"><defs><path id="4" d="m 8.01 36.5 v -7" stroke="#777" fill="none"/><path id="5" d="m 8 36.5 v -7" stroke="#777" fill="none"/><clipPath id="2"><path d="m 12.926 14.203 h 0.27 v 0.375 h -0.27"/></clipPath><clipPath id="3"><path d="m 10.703 10.355 h 0.281 v 0.391 h -0.281"/></clipPath></defs><path d="m 9.324 0.543 c -9.754 1.473 -12.363 14.543 -5.402 20.313 c 5.176 5.078 15.07 3.816 18.469 -2.414 c 4.543 -7.16 -1.074 -17.586 -10.113 -18.16 c -0.988 -0.059 -1.992 0.023 -2.953 0.258" fill="#778799"/><g transform="matrix(0.19475 0 0 0.18751 5.632 6.328)"><path d="m 1.23 1.21 h 61.46 v 61.39 h -61.46" fill="#e7e7e7" stroke="#707070" stroke-linejoin="round" stroke-width="2.207"/><use xlink:href="#4"/></g><path d="m 8 36.5 v -7" transform="matrix(0.19475 0 0 0.18751 6.411 6.328)" fill="none" stroke="#777"/><path d="m 7.992 36.5 v -7" transform="matrix(0.19475 0 0 0.18751 7.19 6.328)" fill="none" stroke="#777" id="0"/><use transform="matrix(0.19475 0 0 0.18751 7.969 6.328)" xlink:href="#5"/><path d="m 7.995 36.5 v -7" transform="matrix(0.19475 0 0 0.18751 8.748 6.328)" fill="none" stroke="#777"/><use transform="matrix(0.19475 0 0 0.18751 9.527 6.328)" xlink:href="#4"/><path d="m 7.998 36.5 v -7" transform="matrix(0.19475 0 0 0.18751 10.306 6.328)" fill="none" stroke="#777"/><use transform="matrix(0.19475 0 0 0.18751 11.08 6.328)" xlink:href="#4"/><use transform="matrix(0.19475 0 0 0.18751 11.864 6.328)" xlink:href="#5"/><use transform="translate(5.453)" xlink:href="#0"/><use transform="matrix(0.19475 0 0 0.18751 13.422 6.328)" xlink:href="#5"/><g fill="none" stroke="#777"><path d="m 7.995 36.5 v -7" transform="matrix(0.19475 0 0 0.18751 14.201 6.328)"/><path d="m 56.01 36.5 v -7" transform="matrix(0.19475 0 0 0.18751 5.632 6.328)"/></g><path d="m 5 29.355 h 53.995" transform="matrix(0.19475 0 0 0.18751 5.632 6.328)" fill="none" stroke="#000" stroke-width="2.3" id="1"/><use transform="translate(0 1.313)" xlink:href="#1"/><path d="m 58.996 38 h -19.01" transform="matrix(0.20654 0 0 0.28914 4.936 3.591)" fill="none" stroke="#f00" stroke-width="1.3"/><g clip-path="url(#2)"><path d="m 5.786 0 l -8.656 4.988 v -9.976" transform="matrix(-0.1074 0 0 -0.15035 13.196 14.578)" fill-rule="evenodd" stroke="#000" stroke-width="1.25"/></g><path d="m 39.08 39.567 c -1.494 -0.851 -2.704 -1.567 -2.704 -1.567 c 0 -0.014 5.409 -3.134 5.428 -3.134 c 0 0 0 1.405 0 3.134 c 0 1.729 0 3.134 0 3.134 c -0.019 0 -1.229 -0.703 -2.723 -1.554" transform="matrix(0.20654 0 0 0.28914 4.936 3.591)" fill="#f00" stroke="#f00" stroke-width="0.036"/><path d="m 5 23.578 h 19" transform="matrix(0.21565 0 0 0.30016 5.527 3.278)" fill="none" stroke="#00a200" stroke-width="1.3"/><g clip-path="url(#3)"><path d="m 5.786 0.007 l -8.674 5.01 v -10.01" transform="matrix(0.11214 0 0 0.15608 10.703 10.354)" fill-rule="evenodd" stroke="#000" stroke-width="1.25"/></g><path d="m 22.19 21.578 c 0 -1.718 0 -3.11 0.018 -3.11 c 0.054 0 5.38 3.097 5.362 3.123 c -0.036 0.026 -5.289 3.058 -5.343 3.084 c -0.036 0.013 -0.036 -0.469 -0.036 -3.097" transform="matrix(0.21565 0 0 0.30016 5.527 3.879)" fill="#00a200" stroke="#00a200" stroke-width="0.072"/><g stroke="#000"><path d="m 34.545 13.98 v -6.5 h -5.155 v -1.542 h 12.175 v 1.542 h -5.175 v 13.02 h -1.845" transform="matrix(0.19475 0 0 0.18751 5.632 6.328)" stroke-width="0.376"/><g stroke-width="0.767" transform="scale(0.09375)"><path d="m 150.92 97.58 v -10.917 h 3.458 v 3.625 l 1.083 -1.208 c 3.375 -3.667 9.04 -3.625 11.792 0.125 c 0.583 0.792 1.125 1.542 1.125 1.583 c 0.042 0.042 0.917 -0.75 1.958 -1.792 c 3.917 -3.875 9.458 -3.583 11.958 0.667 c 1.042 1.792 1.042 1.792 1.167 10.333 l 0.125 8.5 h -3.5 v -7.875 c 0 -9.04 -0.25 -10.167 -2.458 -11.08 c -1.875 -0.792 -3.25 -0.708 -5.25 0.292 c -1.25 0.625 -1.917 1.333 -2.542 2.583 c -0.833 1.583 -0.875 2.167 -0.875 8.917 v 7.167 h -3.458 v -7.667 c 0 -8.167 -0.208 -9.417 -1.917 -10.917 c -1.208 -1.083 -4.917 -1.042 -6.375 0.042 c -2.583 1.917 -2.625 2.167 -2.75 10.708 l -0.125 7.833 h -3.417"/><path d="m 109.08 179.37 c -3.458 -1.208 -5.75 -3.167 -7.25 -6.167 c -3 -6.083 -2.167 -14 1.875 -18.417 c 4.167 -4.458 12.667 -5.667 19.292 -2.667 l 2.25 1 v 1.708 c 0 0.917 -0.167 1.625 -0.292 1.542 c -5 -2.5 -5.708 -2.75 -8.75 -2.917 c -6.167 -0.333 -10.167 2 -11.5 6.667 c -0.917 3.125 -0.667 9.708 0.458 11.875 c 1.083 2.083 2.667 3.583 4.708 4.542 c 2.375 1.083 8.208 1.125 10.875 0.125 l 1.833 -0.708 l -0.125 -4.083 l -0.125 -4.125 l -3.333 -0.083 l -3.375 -0.125 v -2.667 h 10.375 v 12.208 l -1.25 0.792 c -2.375 1.417 -5 2.083 -9.125 2.25 c -3.458 0.125 -4.375 0 -6.542 -0.75"/></g><path d="m 7.367 50.04 c 1.203 -3.146 2.427 -6.354 2.728 -7.146 l 0.562 -1.437 l 1.083 -0.062 l 1.083 -0.042 l 2.668 7.02 c 1.484 3.875 2.708 7.104 2.748 7.208 c 0.02 0.083 -2.888 0.146 -6.499 0.146 h -6.539 m 10.57 -1.854 c -0.06 -0.187 -0.903 -2.458 -1.845 -5.04 c -0.943 -2.583 -1.825 -4.958 -1.926 -5.271 c -0.181 -0.458 -0.261 -0.521 -0.381 -0.292 c -0.241 0.458 -3.871 10.541 -3.871 10.75 c 0 0.104 1.524 0.187 4.072 0.187 c 3.811 0 4.072 -0.021 3.951 -0.333" transform="matrix(0.19475 0 0 0.18751 5.632 6.328)" stroke-width="0.376"/></g></svg>