<svg xmlns="http://www.w3.org/2000/svg" viewBox="0 0 24 24"><path d="m 19.906 4.105 c 12.176 9.828 -5.652 27.574 -16.426 16.238 c -10.801 -9.754 6.05 -28.688 16.426 -16.238" fill="#ffa400"/><g fill="#fff"><path d="m 10.238 17.391 l -1.723 -0.984 l 1.73 -0.008 c 0.953 -0.004 2.512 -0.004 3.465 0 l 1.73 0.008 l -1.723 0.977 c -0.945 0.539 -1.73 0.98 -1.738 0.984 c -0.008 0.004 -0.793 -0.434 -1.742 -0.977"/><path d="m 11.707 15.59 c -0.383 -0.426 -0.637 -0.93 -0.855 -1.68 c -0.234 -0.82 -0.352 -1.781 -0.348 -2.918 v -0.715 l 1.461 -1.672 l 0.75 0.836 l 0.746 0.836 l -0.016 0.875 c -0.02 1.219 -0.117 1.961 -0.367 2.805 c -0.152 0.52 -0.348 0.961 -0.586 1.32 c -0.16 0.242 -0.465 0.574 -0.523 0.574 c -0.016 0 -0.133 -0.117 -0.262 -0.262"/><path d="m 6.461 14.184 c -1.168 -1.105 -1.641 -1.578 -1.633 -1.617 c 0.016 -0.098 1.199 -4.496 1.215 -4.512 c 0.008 -0.008 0.719 0.066 1.578 0.168 c 0.863 0.102 1.605 0.184 1.652 0.184 c 0.066 0 0.348 -0.254 1.387 -1.262 c 0.715 -0.695 1.313 -1.262 1.324 -1.254 c 0.012 0.004 0.602 0.566 1.309 1.254 c 0.906 0.879 1.309 1.25 1.367 1.254 c 0.043 0.008 0.793 -0.074 1.66 -0.176 c 0.871 -0.102 1.586 -0.18 1.59 -0.176 c 0.023 0.023 1.219 4.527 1.211 4.559 c -0.004 0.02 -0.746 0.738 -1.645 1.59 l -1.637 1.555 l -0.582 -0.004 c -0.316 0 -0.645 -0.012 -0.727 -0.023 l -0.148 -0.023 l 1.738 -1.609 c 0.957 -0.887 1.738 -1.621 1.738 -1.629 c 0 -0.023 -0.906 -3.148 -0.922 -3.18 c -0.004 -0.012 -0.629 0.066 -1.391 0.172 l -1.379 0.191 l -0.305 -0.289 c -0.164 -0.16 -0.656 -0.637 -1.094 -1.059 l -0.797 -0.77 l -0.078 0.082 c -0.043 0.043 -0.535 0.52 -1.094 1.059 l -1.012 0.977 l -1.297 -0.18 c -0.711 -0.098 -1.336 -0.18 -1.391 -0.18 c -0.094 0 -0.098 0 -0.188 0.328 c -0.055 0.18 -0.258 0.879 -0.457 1.559 c -0.195 0.676 -0.359 1.254 -0.355 1.277 c 0 0.027 0.781 0.77 1.734 1.652 l 1.73 1.598 l -0.145 0.023 c -0.078 0.012 -0.406 0.023 -0.73 0.023 l -0.586 0.004"/><path d="m 10.469 15.477 c -0.5 -0.434 -2.613 -2.41 -3.383 -3.164 l -0.086 -0.082 l 0.23 -0.941 c 0.129 -0.52 0.242 -0.957 0.254 -0.973 c 0.012 -0.016 0.441 0.027 0.953 0.094 c 0.516 0.066 0.941 0.121 0.949 0.121 c 0.012 0 0.027 0.219 0.039 0.484 c 0.066 1.652 0.484 3.199 1.18 4.379 c 0.109 0.184 0.191 0.34 0.188 0.344 c -0.004 0.008 -0.148 -0.113 -0.324 -0.262"/><path d="m 13.324 15.426 c 0.711 -1.18 1.188 -2.977 1.188 -4.461 c 0 -0.281 0.012 -0.434 0.031 -0.434 c 0.02 0 0.453 -0.055 0.969 -0.121 c 0.516 -0.066 0.945 -0.113 0.953 -0.105 c 0.012 0.016 0.453 1.777 0.469 1.879 c 0.012 0.09 -3.266 3.188 -3.727 3.516 c -0.066 0.051 -0.047 0.004 0.117 -0.273"/></g></svg>