<svg xmlns="http://www.w3.org/2000/svg" viewBox="0 0 24 24"><path d="m 19.56 19.61 c 16.9 -21.2 -21.2 -27.97 -19.46 -5.42 c 1.18 8.96 12.69 13.92 19.46 5.42" style="fill:#170a1b"/><path d="m 5.7 10 c -0.43 0 -0.79 0.37 -0.79 0.83 v 6.51 c 0 0.46 0.36 0.84 0.79 0.84 h 4.27 c 0.44 0 0.79 -0.37 0.79 -0.84 v -6.51 c 0 -0.46 -0.35 -0.83 -0.79 -0.83 m -2.27 2.7 c 0.02 0 0.04 0 0.07 0 c 0.06 0.01 0.12 0.02 0.17 0.06 c 0.23 0.14 0.28 0.44 0.18 0.66 l -1.31 3.08 c -0.19 0.45 -0.72 0.55 -1.11 0.32 c -0.38 -0.23 -0.55 -0.77 -0.28 -1.17 l 1.88 -2.73 c 0.09 -0.13 0.23 -0.22 0.39 -0.23 m 0 0.41 c -0.01 0 -0.01 0 -0.02 0 c -0.02 0.01 -0.04 0.03 -0.06 0.06 l -1.88 2.73 c -0.12 0.18 -0.04 0.45 0.16 0.57 c 0.2 0.12 0.47 0.06 0.55 -0.14 l 1.32 -3.07 c 0.03 -0.07 0.02 -0.11 -0.02 -0.14 c -0.02 -0.01 -0.03 -0.01 -0.04 -0.01" style="fill:#fff"/><g style="fill:#170a1b"><path d="m 6.1 15.38 h 3.55 c 0.29 0 0.54 0.25 0.54 0.57 v 1.17 c 0 0.32 -0.24 0.57 -0.54 0.57 h -3.55 c -0.29 0 -0.54 -0.25 -0.54 -0.57 v -1.17 c 0 -0.31 0.24 -0.57 0.54 -0.57"/><path d="m 9.89 12.95 c 0 1.2 -0.92 2.17 -2.05 2.17 c -1.13 0 -2.05 -0.97 -2.05 -2.17 c 0 -1.2 0.92 -2.17 2.05 -2.17 c 1.13 0 2.05 0.97 2.05 2.17"/></g><path d="m 7.84 11.2 c -0.92 0 -1.66 0.79 -1.66 1.75 c 0 0.36 0.1 0.7 0.28 0.97 l 0.73 -1.07 c 0.13 -0.18 0.36 -0.3 0.58 -0.28 c 0.08 0.01 0.15 0.04 0.22 0.08 c 0.29 0.17 0.36 0.56 0.24 0.84 l -0.52 1.2 c 0.04 0 0.08 0 0.12 0 c 0.92 0 1.66 -0.78 1.66 -1.75 c 0 -0.96 -0.74 -1.75 -1.66 -1.75 m -0.38 2.43 l -0.54 0.78 c 0.05 0.04 0.11 0.07 0.16 0.1" style="fill:#d2d2d2"/><path d="m 7.84 12.95 c 0.13 0.08 0.17 0.25 0.1 0.4 l -1.32 3.08 c -0.14 0.32 -0.54 0.41 -0.82 0.23 c -0.29 -0.18 -0.41 -0.59 -0.22 -0.87 l 1.88 -2.73 c 0.09 -0.13 0.25 -0.19 0.38 -0.11" style="fill:#fff"/><path d="m 6.33 16.2 c 0 0.14 -0.11 0.26 -0.24 0.26 c -0.14 0 -0.25 -0.12 -0.25 -0.26 c 0 -0.14 0.11 -0.26 0.25 -0.26 c 0.13 0 0.24 0.12 0.24 0.26" style="fill:#170a1b"/><path d="m 12.68 4.86 c -0.44 0 -0.79 0.38 -0.79 0.84 v 6.51 c 0 0.46 0.35 0.83 0.79 0.83 h 4.27 c 0.44 0 0.79 -0.37 0.79 -0.83 v -6.51 c 0 -0.46 -0.35 -0.84 -0.79 -0.84 m -2.27 2.7 c 0.02 0 0.04 0 0.07 0 c 0.05 0.01 0.12 0.02 0.17 0.06 c 0.23 0.14 0.28 0.44 0.18 0.66 l -1.31 3.08 c -0.2 0.45 -0.72 0.55 -1.11 0.32 c -0.38 -0.23 -0.55 -0.77 -0.28 -1.17 l 1.88 -2.73 c 0.09 -0.13 0.24 -0.22 0.4 -0.23 m 0 0.41 c -0.01 0 -0.01 0 -0.02 0 c -0.02 0.01 -0.04 0.03 -0.06 0.06 l -1.88 2.73 c -0.12 0.18 -0.04 0.45 0.16 0.57 c 0.2 0.12 0.46 0.06 0.55 -0.14 l 1.32 -3.07 c 0.03 -0.07 0.02 -0.11 -0.02 -0.14 c -0.02 -0.01 -0.03 -0.01 -0.05 -0.01" style="fill:#fff"/><g style="fill:#170a1b"><path d="m 13 10.24 h 3.55 c 0.29 0 0.53 0.25 0.53 0.56 v 1.18 c 0 0.31 -0.24 0.56 -0.53 0.56 h -3.55 c -0.29 0 -0.53 -0.25 -0.53 -0.56 v -1.18 c 0 -0.31 0.24 -0.56 0.53 -0.56"/><path d="m 16.87 7.81 c 0 1.2 -0.92 2.17 -2.05 2.17 c -1.13 0 -2.05 -0.97 -2.05 -2.17 c 0 -1.2 0.92 -2.17 2.05 -2.17 c 1.13 0 2.05 0.97 2.05 2.17"/></g><path d="m 14.81 6.1 c -0.92 0 -1.66 0.79 -1.66 1.75 c 0 0.36 0.1 0.7 0.28 0.97 l 0.73 -1.07 c 0.13 -0.18 0.36 -0.3 0.58 -0.28 c 0.08 0.01 0.15 0.03 0.22 0.07 c 0.29 0.18 0.36 0.57 0.24 0.84 l -0.52 1.2 c 0.04 0 0.08 0 0.12 0 c 0.92 0 1.66 -0.79 1.66 -1.75 c 0 -0.96 -0.74 -1.75 -1.66 -1.75 m -0.38 2.43 l -0.53 0.78 c 0.05 0.04 0.1 0.07 0.16 0.1" style="fill:#d2d2d2"/><path d="m 14.81 7.81 c 0.13 0.09 0.16 0.25 0.1 0.4 l -1.32 3.08 c -0.14 0.32 -0.54 0.4 -0.82 0.23 c -0.29 -0.18 -0.41 -0.59 -0.22 -0.88 l 1.88 -2.73 c 0.09 -0.13 0.25 -0.19 0.38 -0.11" style="fill:#fff"/><path d="m 13.31 11 c 0 0.14 -0.11 0.26 -0.25 0.26 c -0.13 0 -0.24 -0.11 -0.24 -0.26 c 0 -0.14 0.11 -0.26 0.24 -0.26 c 0.14 0 0.25 0.11 0.25 0.26" style="fill:#170a1b"/><path d="m 136.8 164.7 c 4.54 -3 9.88 -6.71 11.79 -8.21 c 4 -3.13 6.08 -3.46 7.08 -1.17 c 0.38 0.88 1.17 3.46 1.75 3.63 c 12.67 0.29 14.79 -0.29 24.5 -0.38 l 0.29 12.54 c -0.33 13.96 2.29 9.92 -12.5 9.79 c -14.83 -0.42 -11.96 0.92 -13.38 5 c -0.92 2.08 -13.79 -6.5 -17.54 -8.71 c -13.17 -7.75 -11.67 -6.17 -2 -12.5" transform="scale(0.094)" style="fill:#fff;stroke:#fff;stroke-width:2.28"/></svg>