<svg xmlns="http://www.w3.org/2000/svg" viewBox="0 0 24 24"><path d="m 0.277 14.793 c 1.488 9.629 14.707 12.207 20.543 5.332 c 5.137 -5.105 3.855 -14.883 -2.445 -18.234 c -7.238 -4.48 -17.781 1.063 -18.359 9.988 c -0.059 0.977 0.027 1.965 0.262 2.914" fill="#92789e"/><path d="m 9.715 6.918 v 0.746 c -0.016 -0.02 -0.027 -0.039 -0.047 -0.059 c -0.52 -0.473 -1.227 -0.688 -2.01 -0.688 h -2.129 v 5.465 l 0.762 1.129 v 2.293 h 1.195 v 3.164 h 2.297 v -3.164 h 0.145 c -0.023 0.152 -0.043 0.305 -0.043 0.461 c 0 0.777 0.273 1.492 0.758 1.992 c 0.488 0.5 1.172 0.77 1.914 0.77 c 0.367 0 0.73 -0.059 1.07 -0.18 v 0.121 h 2.316 v -1.219 c 0.508 -0.059 0.973 -0.234 1.34 -0.551 c 0.449 -0.391 0.719 -0.996 0.719 -1.641 c 0 -0.594 -0.238 -1.172 -0.668 -1.539 c -0.273 -0.234 -0.605 -0.379 -0.969 -0.453 l 1.195 -1.645 c 0.375 -0.418 0.66 -0.934 0.66 -1.512 c 0 -0.531 -0.207 -1.012 -0.508 -1.309 l 0.559 -1.676 v -0.563 l -0.566 0.297 c -0.438 -0.203 -0.934 -0.301 -1.426 -0.301 c -0.605 0 -1.168 0.164 -1.605 0.516 v -0.457 h -2.273 l -0.004 0.883 l -0.523 -0.883" fill="#8c42ab"/><path d="m 9.715 6.918 v 0.746 c -0.016 -0.02 -0.027 -0.039 -0.047 -0.059 c -0.52 -0.473 -1.227 -0.688 -2.01 -0.688 h -2.129 v 5.465 l 0.762 1.129 v 2.293 h 1.195 v 3.164 h 2.297 v -3.164 h 0.145 c -0.023 0.152 -0.043 0.305 -0.043 0.461 c 0 0.777 0.273 1.492 0.758 1.992 c 0.488 0.5 1.172 0.77 1.914 0.77 c 0.367 0 0.73 -0.059 1.07 -0.18 v 0.121 h 2.316 v -1.219 c 0.508 -0.059 0.973 -0.234 1.34 -0.551 c 0.449 -0.391 0.719 -0.996 0.719 -1.641 c 0 -0.594 -0.238 -1.172 -0.668 -1.539 c -0.273 -0.234 -0.605 -0.379 -0.969 -0.453 l 1.195 -1.645 c 0.375 -0.418 0.66 -0.934 0.66 -1.512 c 0 -0.531 -0.207 -1.012 -0.508 -1.309 l 0.559 -1.676 v -0.563 l -0.566 0.297 c -0.438 -0.203 -0.934 -0.301 -1.426 -0.301 c -0.605 0 -1.168 0.164 -1.605 0.516 v -0.457 h -2.273 l -0.004 0.883 l -0.523 -0.883" fill-opacity="0.302"/><path d="m 9.715 6.355 v 0.742 c -0.016 -0.016 -0.027 -0.039 -0.047 -0.055 c -0.52 -0.473 -1.227 -0.688 -2.01 -0.688 h -2.129 v 5.461 l 0.762 1.129 v 2.293 h 1.195 v 3.164 h 2.297 v -3.164 h 0.145 c -0.023 0.152 -0.043 0.305 -0.043 0.461 c 0 0.781 0.273 1.496 0.758 1.996 c 0.488 0.496 1.172 0.766 1.914 0.766 c 0.367 0 0.73 -0.059 1.07 -0.176 v 0.117 h 2.316 v -1.215 c 0.508 -0.059 0.973 -0.234 1.34 -0.551 c 0.449 -0.395 0.719 -1 0.719 -1.641 c 0 -0.598 -0.238 -1.176 -0.668 -1.539 c -0.273 -0.234 -0.605 -0.383 -0.969 -0.457 l 1.195 -1.641 c 0.375 -0.422 0.66 -0.938 0.66 -1.516 c 0 -0.527 -0.207 -1.012 -0.508 -1.309 l 0.559 -1.672 l -0.566 -0.266 c -0.438 -0.207 -0.934 -0.301 -1.426 -0.301 c -0.605 0 -1.168 0.16 -1.605 0.516 v -0.457 h -2.273 l -0.004 0.883 l -0.523 -0.883" fill="#8c42ab"/><path d="m 16.277 7.285 c -0.984 0 -1.652 0.539 -1.652 1.355 c 0 1.375 1.902 0.984 1.902 1.609 c 0 0.188 -0.168 0.293 -0.543 0.293 c -0.352 0 -0.773 -0.07 -1.16 -0.238 l -0.27 0.828 c 0.398 0.188 0.914 0.32 1.391 0.32 c 1.027 0 1.598 -0.516 1.598 -1.324 c 0 -1.488 -1.914 -1.039 -1.914 -1.641 c 0 -0.203 0.219 -0.316 0.598 -0.316 c 0.313 0 0.66 0.059 0.934 0.156 l 0.266 -0.805 c -0.324 -0.152 -0.754 -0.238 -1.148 -0.238 m -10.07 0.059 v 4.051 h 1.379 c 1.328 0 2.207 -0.836 2.207 -2.105 c 0 -1.223 -0.793 -1.945 -2.133 -1.945 m 2.734 0 v 4.051 h 0.918 v -2.66 l 1.605 2.66 h 1.086 v -4.051 h -0.93 l -0.012 2.637 l -1.563 -2.637 m -4.344 0.871 h 0.445 c 0.746 0 1.184 0.441 1.184 1.188 c 0 0.727 -0.383 1.121 -1.086 1.121 h -0.543" fill-opacity="0.302"/><path d="m 16.277 7 c -0.984 0 -1.652 0.535 -1.652 1.352 c 0 1.379 1.902 0.988 1.902 1.613 c 0 0.184 -0.168 0.289 -0.543 0.289 c -0.352 0 -0.773 -0.07 -1.16 -0.238 l -0.27 0.828 c 0.398 0.188 0.914 0.32 1.391 0.32 c 1.027 0 1.598 -0.512 1.598 -1.324 c 0 -1.488 -1.914 -1.039 -1.914 -1.641 c 0 -0.203 0.219 -0.313 0.598 -0.313 c 0.313 0 0.66 0.059 0.934 0.156 l 0.266 -0.805 c -0.324 -0.152 -0.754 -0.238 -1.148 -0.238 m -10.07 0.055 v 4.051 h 1.379 c 1.328 0 2.207 -0.832 2.207 -2.105 c 0 -1.219 -0.793 -1.945 -2.133 -1.945 m 2.734 0 v 4.051 h 0.918 v -2.66 l 1.605 2.66 h 1.086 v -4.051 h -0.93 l -0.012 2.641 l -1.563 -2.641 m -4.344 0.871 h 0.445 c 0.746 0 1.184 0.445 1.184 1.191 c 0 0.723 -0.383 1.121 -1.086 1.121 h -0.543" fill="#fff"/><path d="m 12.676 13.871 c -1.246 0 -2.117 0.84 -2.117 2.113 c 0 1.23 0.816 2.055 1.996 2.055 c 0.418 0 0.898 -0.117 1.191 -0.285 l -0.211 -0.73 c -0.223 0.082 -0.508 0.129 -0.746 0.129 c -0.777 0 -1.223 -0.48 -1.223 -1.266 c 0 -0.742 0.395 -1.121 1.098 -1.121 c 0.301 0 0.652 0.059 0.867 0.152 l 0.266 -0.797 c -0.371 -0.168 -0.734 -0.25 -1.121 -0.25 m -5.711 0.059 v 0.887 h 1.195 v 3.164 h 0.949 v -3.164 h 1.203 v -0.887 m 3.988 0 v 4.051 h 0.965 v -1.191 h 0.32 c 1.047 0 1.742 -0.602 1.742 -1.512 c 0 -0.844 -0.594 -1.348 -1.582 -1.348 m -0.48 0.887 h 0.402 c 0.391 0 0.652 0.223 0.652 0.563 c 0 0.324 -0.215 0.523 -0.563 0.523 h -0.492" fill-opacity="0.302"/><path d="m 12.676 13.59 c -1.246 0 -2.117 0.84 -2.117 2.109 c 0 1.234 0.816 2.055 1.996 2.055 c 0.418 0 0.898 -0.113 1.191 -0.285 l -0.211 -0.73 c -0.223 0.082 -0.508 0.129 -0.746 0.129 c -0.777 0 -1.223 -0.477 -1.223 -1.266 c 0 -0.742 0.395 -1.121 1.098 -1.121 c 0.301 0 0.652 0.059 0.867 0.152 l 0.266 -0.793 c -0.371 -0.168 -0.734 -0.25 -1.121 -0.25 m -5.711 0.059 v 0.887 h 1.195 v 3.16 h 0.949 v -3.16 h 1.203 v -0.887 m 3.988 0 v 4.047 h 0.965 v -1.188 h 0.32 c 1.047 0 1.742 -0.602 1.742 -1.512 c 0 -0.848 -0.594 -1.348 -1.582 -1.348 m -0.48 0.887 h 0.402 c 0.391 0 0.652 0.219 0.652 0.559 c 0 0.328 -0.215 0.527 -0.563 0.527 h -0.492" fill="#fff"/><path d="m 10.504 11.746 c -0.02 0 -0.039 0.004 -0.055 0.012 c -0.016 0.008 -0.031 0.016 -0.043 0.031 c -0.012 0.012 -0.023 0.027 -0.031 0.043 c -0.004 0.02 -0.008 0.039 -0.008 0.059 c 0 0.02 0.004 0.039 0.008 0.055 c 0.008 0.016 0.02 0.031 0.031 0.047 c 0.012 0.012 0.027 0.023 0.043 0.027 c 0.016 0.008 0.035 0.012 0.055 0.012 h 1.52 v 0.887 l -0.707 -0.305 h -0.133 v 0.07 l 1.027 0.867 l 1.027 -0.867 v -0.07 h -0.133 l -0.707 0.305 v -0.887 h 1.52 c 0.02 0 0.039 -0.004 0.055 -0.012 c 0.016 -0.004 0.031 -0.016 0.043 -0.027 c 0.012 -0.016 0.023 -0.031 0.031 -0.047 c 0.004 -0.016 0.008 -0.035 0.008 -0.055 c 0 -0.02 -0.004 -0.039 -0.008 -0.059 c -0.008 -0.016 -0.02 -0.031 -0.031 -0.043 c -0.012 -0.016 -0.027 -0.023 -0.043 -0.031 c -0.016 -0.008 -0.035 -0.012 -0.055 -0.012" fill-opacity="0.302"/><path d="m 10.504 11.461 c -0.02 0 -0.039 0.004 -0.055 0.012 c -0.016 0.008 -0.031 0.02 -0.043 0.031 c -0.012 0.012 -0.023 0.027 -0.031 0.047 c -0.004 0.016 -0.008 0.035 -0.008 0.055 c 0 0.02 0.004 0.039 0.008 0.055 c 0.008 0.02 0.02 0.035 0.031 0.047 c 0.012 0.012 0.027 0.023 0.043 0.031 c 0.016 0.008 0.035 0.012 0.055 0.012 h 1.52 v 0.883 l -0.707 -0.305 h -0.133 v 0.07 l 1.027 0.867 l 1.027 -0.867 v -0.07 h -0.133 l -0.707 0.305 v -0.883 h 1.52 c 0.02 0 0.039 -0.004 0.055 -0.012 c 0.016 -0.008 0.031 -0.02 0.043 -0.031 c 0.012 -0.012 0.023 -0.027 0.031 -0.047 c 0.004 -0.016 0.008 -0.035 0.008 -0.055 c 0 -0.02 -0.004 -0.039 -0.008 -0.055 c -0.008 -0.02 -0.02 -0.035 -0.031 -0.047 c -0.012 -0.012 -0.027 -0.023 -0.043 -0.031 c -0.016 -0.008 -0.035 -0.012 -0.055 -0.012" fill="#fff"/></svg>