<svg xmlns="http://www.w3.org/2000/svg" xmlns:xlink="http://www.w3.org/1999/xlink" viewBox="0 0 24 24"><defs><g id="3" clip-path="url(#2)"><path d="m 69.1 8.327 c -2.574 -0.086 -5.62 0.2 -7.472 0.745 c -3.548 1.059 -6.624 2.835 -9.387 5.412 l -1.444 1.374 l -1.319 -0.372 c -2.072 -0.573 -6.436 -0.687 -8.728 -0.258 c -4.207 0.802 -7.598 2.548 -10.674 5.469 c -6.907 6.586 -8.571 16.408 -4.27 24.941 c 1.193 2.319 3.893 5.527 5.902 6.987 l 0.659 0.458 l -0.031 11.339 c -2.072 12.857 -2.355 14.661 -2.512 14.89 c -0.251 5.355 3.108 2.148 6.279 1.689 c 0.157 -0.029 0.283 -0.057 0.408 -0.057 c 0.126 -0.029 0.251 -0.029 0.377 -0.057 c 0.157 -0.029 0.283 -0.029 0.408 -0.057 c 0.126 -0.029 0.251 -0.029 0.377 -0.057 c 0.157 -0.029 0.283 -0.029 0.408 -0.057 c 0.126 0 0.251 -0.029 0.377 -0.057 c 0.157 0 0.283 -0.029 0.408 -0.029 c 0.126 -0.029 0.251 -0.057 0.408 -0.057 c 0.126 -0.029 0.251 -0.029 0.377 -0.057 l 0.816 -0.115 l 0.377 -0.029 l 0.816 -0.115 l 0.408 -0.029 l 0.377 -0.057 l 0.408 -0.029 l 0.408 -0.057 l 0.408 -0.029 l 0.408 -0.057 l 0.408 -0.029 l 0.408 -0.057 l 0.408 -0.029 l 0.408 -0.057 l 0.816 -0.057 l 0.377 -0.057 l 0.44 -0.029 l 0.408 -0.029 l 0.408 -0.057 l 2.857 -0.2 l 0.44 -0.029 l 1.224 -0.086 l 0.44 -0.029 l 1.224 -0.086 l 0.44 -0.029 l 0.408 -0.029 h 0.408 l 0.408 -0.029 l 0.44 -0.029 l 0.408 -0.029 h 0.408 l 0.44 -0.029 h 0.408 l 0.408 -0.029 l 0.44 -0.029 h 0.408 l 0.44 -0.029 h 0.408 l 0.408 -0.029 h 0.848 l 0.44 -0.029 h 0.816 l 0.44 -0.029 h 0.848 l 0.408 -0.029 h 6.656 l 0.44 0.029 h 0.848 l 0.408 0.029 h 0.848 l 0.408 0.029 h 0.44 l 0.816 0.029 h 0.44 l 0.408 0.029 h 0.44 l 0.816 0.057 h 0.44 l 0.816 0.057 h 0.44 l 0.816 0.057 l 0.44 0.029 h 0.408 l 0.816 0.057 l 0.44 0.029 l 1.224 0.086 l 0.44 0.029 l 2.449 0.172 l 0.44 0.029 l 0.408 0.057 l 1.224 0.086 l 0.408 0.057 l 0.816 0.057 l 0.408 0.057 l 0.408 0.029 l 0.408 0.057 l 0.408 0.029 l 0.377 0.029 l 0.816 0.115 l 0.408 0.029 l 0.408 0.057 l 0.408 0.029 l 0.377 0.057 l 0.408 0.057 l 0.408 0.029 l 0.408 0.057 l 0.377 0.057 l 0.408 0.029 c 0.126 0.029 0.251 0.057 0.408 0.057 c 0.126 0.029 0.251 0.029 0.377 0.057 c 0.126 0.029 0.283 0.029 0.408 0.057 c 0.126 0 0.251 0.029 0.377 0.057 c 0.157 0 0.283 0.029 0.408 0.057 c 0.126 0 0.251 0.029 0.377 0.029 c 0.157 0.029 0.283 0.057 0.408 0.057 c 0.126 0.029 0.251 0.057 0.377 0.057 c 0.126 0.029 0.283 0.057 0.408 0.057 c 0.126 0.029 0.251 0.057 0.377 0.057 c 0.126 0.029 0.251 0.057 0.408 0.057 c 0.126 0.029 0.251 0.057 0.377 0.057 c 0.126 0.029 0.251 0.057 0.377 0.057 c 0.126 0.029 0.283 0.057 0.408 0.086 c 0.126 0 0.251 0.029 0.377 0.057 c 0.126 0 0.251 0.029 0.377 0.057 c 0.126 0.029 0.251 0.029 0.377 0.057 c 0.126 0.029 0.251 0.029 0.408 0.057 c 0.126 0.029 0.251 0.057 0.377 0.057 c 0.126 0.029 0.251 0.057 0.377 0.086 c 0.126 0 0.251 0.029 0.377 0.057 c 0.126 0.029 0.251 0.029 0.377 0.057 c 0.126 0.029 0.251 0.057 0.377 0.086 c 0.126 0 0.251 0.029 0.377 0.057 c 0.126 0.029 0.251 0.029 0.377 0.057 c 0.126 0.029 0.251 0.057 0.377 0.086 c 0.126 0 0.251 0.029 0.377 0.057 c 0.126 0.029 0.251 0.057 0.377 0.057 c 0.126 0.029 0.251 0.057 0.377 0.086 l 0.345 0.057 l -3.642 -3.01 l -0.597 -26.17 l 0.753 -0.63 c 1.601 -1.346 2.669 -2.405 3.548 -3.522 c 6.499 -8.447 6.06 -19.701 -1.067 -27.318 c -2.857 -3.01 -6.248 -5.097 -10.05 -6.128 c -2.512 -0.687 -7.912 -0.745 -10.203 -0.115 l -1.476 0.401 l -1.256 -1.203 c -3.391 -3.207 -7.786 -5.441 -11.93 -6.128 c -0.691 -0.086 -1.507 -0.172 -2.355 -0.2" transform="matrix(0.12442 0 0 0.13642 3.539 3.368)" fill="#fff" stroke="#000" stroke-width="2.646"/></g><clipPath id="2"><path d="M 0,0 H24 V24 H0 z"/></clipPath><filter id="0" filterUnits="objectBoundingBox" x="0" y="0" width="24" height="24"><feColorMatrix type="matrix" in="SourceGraphic" values="0 0 0 0 1 0 0 0 0 1 0 0 0 0 1 0 0 0 1 0"/></filter><linearGradient id="5" gradientUnits="userSpaceOnUse" x1="-397.02" y1="530.41" x2="-191.26" y2="324.64" gradientTransform="matrix(0.02787 0 0 0.03091 20.542 3.942)"><stop stop-color="#fc9633"/><stop offset="1" stop-color="#ffc72f"/></linearGradient><linearGradient id="4" gradientUnits="userSpaceOnUse" x1="312.69" y1="129.35" x2="162.42" y2="219.49" gradientTransform="matrix(0.03292 0 0 0.03609 3.539 3.368)"><stop stop-color="#22b9c1"/><stop offset="1" stop-color="#367aef"/></linearGradient><linearGradient id="6" gradientUnits="userSpaceOnUse" x1="82.73" y1="31.579" x2="42.975" y2="55.43" gradientTransform="matrix(0.12442 0 0 0.13642 3.539 3.368)" xlink:href="#4"/><mask id="1"><g filter="url(#0)"><path fill-opacity="0.2" d="M 0,0 H24 V24 H0 z"/></g></mask></defs><path d="m 12.04 0.293 c 15.832 -1.801 15.613 23.992 -0.281 23.688 c -14.781 0.848 -16.12 -25.09 0.281 -23.688" fill="#3d8fdf"/><use xlink:href="#3" mask="url(#1)"/><path d="m 12.01 4.504 c -0.289 0 -0.602 0.039 -0.805 0.102 c -0.441 0.145 -0.824 0.387 -1.168 0.738 l -0.18 0.188 l -0.164 -0.051 c -0.258 -0.078 -0.801 -0.094 -1.086 -0.035 c -0.523 0.109 -0.945 0.348 -1.328 0.746 c -0.859 0.898 -1.066 2.238 -0.531 3.402 c 0.148 0.316 0.484 0.754 0.734 0.953 l 0.082 0.063 l -0.219 1.488 c -0.176 1.211 -0.246 1.695 -0.281 1.895 c 0.52 -0.102 1.777 -0.289 2.535 -0.371 c 0.797 -0.086 1.613 -0.125 2.445 -0.121 c 1.074 0.008 2.176 0.094 3.313 0.25 c 0.461 0.066 1.148 0.184 1.5 0.254 c -0.012 -0.086 -0.055 -0.375 -0.105 -0.727 c -0.055 -0.375 -0.164 -1.129 -0.242 -1.672 l -0.145 -0.984 l 0.094 -0.086 c 0.203 -0.184 0.336 -0.328 0.445 -0.48 c 0.809 -1.152 0.754 -2.688 -0.137 -3.727 c -0.352 -0.414 -0.773 -0.695 -1.25 -0.836 c -0.313 -0.094 -0.98 -0.102 -1.27 -0.016 l -0.18 0.055 l -0.16 -0.168 c -0.418 -0.434 -0.965 -0.738 -1.484 -0.832 c -0.086 -0.016 -0.184 -0.023 -0.289 -0.027 c -0.043 0 -0.082 0 -0.125 0" fill="#fff"/><path d="m 15.492 8.04 c -0.199 -0.004 -0.473 0.211 -0.676 0.211 c -0.645 0 -1.082 0.371 -1.082 0.934 c 0 0.945 1.246 0.676 1.246 1.105 c 0 0.129 -0.109 0.203 -0.355 0.203 c -0.23 0 -0.508 -0.051 -0.762 -0.164 l -0.176 0.207 v 0.363 c 0.262 0.129 0.598 0.219 0.914 0.219 c 0.672 0 1.047 -0.352 1.047 -0.91 c 0 -1.023 -1.258 -0.715 -1.258 -1.129 c 0 -0.141 0.145 -0.219 0.395 -0.219 c 0.203 0 0.43 0.043 0.609 0.109 l 0.176 -0.555 v -0.359 c -0.023 -0.012 -0.051 -0.016 -0.078 -0.016 m -7.285 0.25 v 2.789 h 0.906 c 0.871 0 1.445 -0.574 1.445 -1.449 c 0 -0.84 -0.52 -1.34 -1.398 -1.34 m 1.797 0 v 2.789 h 0.598 v -1.832 l 1.059 1.832 h 0.707 v -2.789 h -0.605 l -0.008 1.816 l -1.027 -1.816 m -2.848 0.602 h 0.293 c 0.484 0 0.777 0.305 0.777 0.816 c 0 0.5 -0.254 0.773 -0.715 0.773 h -0.355" fill="url(#4)"/><path d="m 12.05 13.11 c -0.785 -0.004 -1.555 0.031 -2.305 0.113 c -0.91 0.102 -2.582 0.363 -2.617 0.414 c -0.008 0.008 -0.098 0.301 -0.207 0.656 c -0.09 0.367 -0.238 1.414 0.027 2.133 c 0.359 0.969 1.129 2.031 1.93 2.66 c 0.719 0.566 1.688 0.961 2.59 1.051 c 0.359 0.035 1.207 -0.02 1.582 -0.102 c 1.66 -0.371 3.02 -1.566 3.805 -3.344 c 0.102 -0.23 0.184 -0.449 0.184 -0.48 c 0.16 -0.66 0.164 -1.465 -0.035 -1.922 c -0.109 -0.352 -0.199 -0.645 -0.203 -0.652 c -0.02 -0.023 -1.031 -0.203 -1.629 -0.289 c -1.07 -0.152 -2.109 -0.23 -3.121 -0.238" fill="url(#5)"/><path d="m 10.23 18.898 c -0.285 -0.066 -0.574 -0.195 -0.789 -0.352 c -0.184 -0.129 -0.504 -0.504 -0.488 -0.563 c 0.008 -0.023 0.09 -0.063 0.188 -0.086 c 0.23 -0.059 0.359 -0.121 0.98 -0.492 c 0.746 -0.441 1.074 -0.547 1.152 -0.363 c 0.063 0.16 0.238 0.348 0.379 0.41 c 0.371 0.168 0.801 0.004 0.98 -0.367 c 0.063 -0.133 0.066 -0.137 0.215 -0.117 c 0.203 0.031 0.531 0.176 0.848 0.379 c 0.438 0.273 0.879 0.496 1.078 0.547 c 0.102 0.027 0.191 0.07 0.199 0.094 c 0.027 0.09 -0.43 0.539 -0.691 0.684 c -0.383 0.207 -0.617 0.266 -1.102 0.266 c -0.461 0.004 -0.738 -0.066 -1.047 -0.266 l -0.16 -0.105 l -0.258 0.141 c -0.438 0.246 -0.973 0.313 -1.484 0.191" fill="#a16a3d"/><path d="m 9.695 14.75 c -0.273 0 -0.469 0.109 -0.633 0.352 c -0.289 0.426 -0.148 1.066 0.289 1.316 c 0.238 0.133 0.59 0.105 0.805 -0.066 c 0.449 -0.363 0.449 -1.098 0 -1.457 c -0.133 -0.105 -0.199 -0.129 -0.402 -0.141 c -0.02 0 -0.039 0 -0.059 -0.004" fill-opacity="0.102"/><path d="m 9.695 14.535 c -0.273 0 -0.469 0.109 -0.633 0.352 c -0.289 0.426 -0.148 1.066 0.289 1.313 c 0.238 0.133 0.59 0.105 0.805 -0.066 c 0.449 -0.359 0.449 -1.094 0 -1.453 c -0.133 -0.109 -0.199 -0.133 -0.402 -0.145 c -0.02 0 -0.039 0 -0.059 0" fill="#fff"/><path d="m 9.969 14.82 c -0.121 0 -0.211 0.047 -0.281 0.156 c -0.129 0.188 -0.066 0.473 0.129 0.582 c 0.105 0.059 0.262 0.047 0.355 -0.031 c 0.195 -0.16 0.195 -0.484 0 -0.645 c -0.059 -0.047 -0.09 -0.055 -0.18 -0.063 c -0.008 0 -0.016 0 -0.023 0"/><path d="m 14.234 14.738 c -0.273 0 -0.473 0.109 -0.637 0.352 c -0.289 0.426 -0.148 1.066 0.293 1.313 c 0.234 0.133 0.59 0.105 0.805 -0.066 c 0.445 -0.359 0.445 -1.094 0 -1.453 c -0.133 -0.109 -0.199 -0.133 -0.406 -0.145 c -0.02 0 -0.035 0 -0.055 0" fill-opacity="0.102"/><path d="m 14.234 14.52 c -0.273 0 -0.473 0.109 -0.637 0.352 c -0.289 0.426 -0.148 1.066 0.293 1.316 c 0.234 0.133 0.59 0.105 0.805 -0.066 c 0.445 -0.363 0.445 -1.098 0 -1.457 c -0.133 -0.105 -0.199 -0.129 -0.406 -0.141 c -0.02 0 -0.035 0 -0.055 -0.004" fill="#fff"/><path d="m 14.504 14.809 c -0.121 0 -0.207 0.047 -0.281 0.152 c -0.125 0.191 -0.063 0.473 0.129 0.582 c 0.105 0.059 0.262 0.047 0.355 -0.027 c 0.199 -0.16 0.199 -0.484 0 -0.645 c -0.059 -0.047 -0.086 -0.059 -0.176 -0.063 c -0.008 0 -0.02 0 -0.027 0"/><path d="m 17.473 8.08 c -0.035 0.563 -0.223 1.125 -0.566 1.613 c -0.109 0.156 -0.242 0.301 -0.445 0.484 l -0.094 0.082 v 0.363 l 0.094 -0.086 c 0.203 -0.184 0.336 -0.328 0.445 -0.48 c 0.418 -0.598 0.605 -1.297 0.566 -1.977 m -11.01 0.008 c -0.027 0.504 0.066 1.02 0.289 1.508 c 0.148 0.316 0.484 0.754 0.734 0.953 l 0.082 0.063 v -0.359 l -0.082 -0.066 c -0.25 -0.195 -0.586 -0.633 -0.734 -0.953 c -0.172 -0.371 -0.266 -0.758 -0.289 -1.145 m 5.277 5.05 c -0.727 0.004 -1.438 0.047 -2.137 0.121 c -0.734 0.078 -1.93 0.258 -2.477 0.359 c -0.027 0.168 -0.09 0.281 -0.102 0.355 c 0.52 -0.102 1.82 -0.273 2.578 -0.355 c 0.797 -0.086 1.613 -0.125 2.445 -0.121 c 1.074 0.008 2.176 0.094 3.313 0.25 c 0.461 0.066 1.203 0.184 1.555 0.25 c -0.008 -0.043 -0.09 -0.238 -0.109 -0.367 c -0.359 -0.07 -1 -0.18 -1.445 -0.242 c -1.137 -0.16 -2.238 -0.242 -3.313 -0.25 c -0.102 0 -0.207 0 -0.309 0" fill-opacity="0.2"/><path d="m 17.15 15.04 c -0.012 0.277 -0.051 0.563 -0.113 0.824 c 0 0.031 -0.082 0.25 -0.184 0.48 c -0.781 1.777 -2.145 2.973 -3.805 3.344 c -0.371 0.082 -1.223 0.137 -1.582 0.102 c -0.902 -0.09 -1.871 -0.484 -2.59 -1.051 c -0.805 -0.629 -1.57 -1.691 -1.93 -2.66 c -0.094 -0.258 -0.137 -0.555 -0.148 -0.848 c -0.012 0.395 0.016 0.832 0.148 1.191 c 0.359 0.969 1.129 2.031 1.93 2.664 c 0.719 0.563 1.688 0.957 2.59 1.047 c 0.359 0.035 1.211 -0.02 1.582 -0.102 c 1.66 -0.367 3.02 -1.566 3.805 -3.344 c 0.102 -0.23 0.184 -0.449 0.184 -0.48 c 0.09 -0.375 0.133 -0.793 0.113 -1.168" fill-opacity="0.102"/><g fill-opacity="0.302"><path d="m 9.05 17.93 c -0.051 0.02 -0.09 0.039 -0.094 0.051 c -0.016 0.063 0.305 0.438 0.488 0.566 c 0.215 0.152 0.504 0.285 0.789 0.352 c 0.512 0.121 1.043 0.051 1.484 -0.191 l 0.258 -0.141 l 0.16 0.102 c 0.309 0.199 0.586 0.273 1.047 0.27 c 0.484 0 0.719 -0.059 1.102 -0.266 c 0.262 -0.145 0.719 -0.594 0.691 -0.684 c -0.004 -0.016 -0.039 -0.035 -0.09 -0.055 c -0.141 0.172 -0.418 0.418 -0.602 0.52 c -0.383 0.211 -0.617 0.27 -1.102 0.27 c -0.461 0 -0.738 -0.07 -1.047 -0.27 l -0.16 -0.105 l -0.258 0.141 c -0.438 0.246 -0.973 0.316 -1.484 0.191 c -0.285 -0.066 -0.574 -0.195 -0.789 -0.348 c -0.117 -0.082 -0.289 -0.266 -0.395 -0.402"/><path d="m 15.492 8.04 c -0.199 -0.004 -0.473 0.211 -0.676 0.211 c -0.645 0 -1.082 0.371 -1.082 0.934 c 0 0.945 1.246 0.676 1.246 1.105 c 0 0.129 -0.109 0.203 -0.355 0.203 c -0.23 0 -0.508 -0.051 -0.762 -0.164 l -0.176 0.207 v 0.363 c 0.262 0.129 0.598 0.219 0.914 0.219 c 0.672 0 1.047 -0.352 1.047 -0.91 c 0 -1.023 -1.258 -0.715 -1.258 -1.129 c 0 -0.141 0.145 -0.219 0.395 -0.219 c 0.203 0 0.43 0.043 0.609 0.109 l 0.176 -0.555 v -0.359 c -0.023 -0.012 -0.051 -0.016 -0.078 -0.016 m -7.285 0.25 v 2.789 h 0.906 c 0.871 0 1.445 -0.574 1.445 -1.449 c 0 -0.84 -0.52 -1.34 -1.398 -1.34 m 1.797 0 v 2.789 h 0.598 v -1.832 l 1.059 1.832 h 0.707 v -2.789 h -0.605 l -0.008 1.816 l -1.027 -1.816 m -2.848 0.602 h 0.293 c 0.484 0 0.777 0.305 0.777 0.816 c 0 0.5 -0.254 0.773 -0.715 0.773 h -0.355"/></g><g fill="url(#6)"><path d="m 8.207 10.715 h 0.906 c 0.871 0 1.445 -0.574 1.445 -1.453 c 0 -0.84 -0.52 -1.336 -1.398 -1.336 h -0.953 m 0.625 2.188 v -1.59 h 0.293 c 0.484 0 0.777 0.305 0.777 0.82 c 0 0.496 -0.254 0.77 -0.715 0.77"/><path d="m 10.957 10.715 h 0.602 v -1.832 l 1.055 1.832 h 0.711 v -2.789 h -0.609 l -0.008 1.816 l -1.027 -1.816 h -0.723"/><path d="m 14.602 10.754 c 0.672 0 1.047 -0.355 1.047 -0.914 c 0 -1.023 -1.258 -0.715 -1.258 -1.125 c 0 -0.141 0.145 -0.219 0.395 -0.219 c 0.203 0 0.43 0.039 0.609 0.109 l 0.176 -0.555 c -0.211 -0.105 -0.492 -0.164 -0.754 -0.164 c -0.645 0 -1.086 0.367 -1.086 0.93 c 0 0.949 1.25 0.68 1.25 1.109 c 0 0.129 -0.109 0.203 -0.355 0.203 c -0.23 0 -0.508 -0.051 -0.762 -0.168 l -0.176 0.57 c 0.262 0.129 0.598 0.223 0.914 0.223"/></g></svg>