<svg xmlns="http://www.w3.org/2000/svg" viewBox="0 0 24 24"><path d="m 5.641 21.535 c 12.273 8.609 24.711 -7.289 14.711 -17.434 c -9.422 -9.555 -24.06 -0.695 -19.488 11.195 c 0.957 2.48 2.523 4.656 4.777 6.238" fill="#312f2e"/><path d="m 14.762 5.555 v 2.473 h 2.605" fill="#fff"/><path d="m 65 2.989 v 18.999 h 18.988 v 74.02 h -71.997 v -93.01 h 53.01 l 18.988 18.999" transform="matrix(0.13721 0 0 0.13015 5.843 5.166)" fill="#ebebd9" stroke="#777" stroke-width="2"/><path d="m 16.547 11.672 c -0.688 0.262 -0.961 1.301 -0.961 1.691 c -0.137 0.652 0.684 0.523 1.098 -0.258 v 0.648 c -0.137 0.391 -1.098 1.043 -1.375 0.781 c -0.684 -0.52 0 -1.82 0.277 -2.34 c 0.137 -0.391 0.547 -0.914 0.961 -0.914 m -1.375 -2.34 c -0.273 0 -0.41 0 -0.547 0.258 c -0.414 0.781 -1.371 2.215 -1.922 4.426 c -0.137 0.52 0.137 1.172 0.551 1.043 c 0.41 -0.133 1.098 -0.133 1.645 -1.563 c 0.273 -0.781 0.41 -1.824 0 -1.824 c -0.547 0 -0.547 0 -0.547 0 m 0.137 0.262 c 0.137 0.262 -0.414 1.691 -0.824 2.082 c -0.273 0.391 -0.41 0.129 -0.273 -0.129 c 0.137 -0.262 0.684 -1.824 0.684 -1.824 c 0.137 -0.129 0.277 -0.129 0.414 -0.129 m -2.746 1.039 c -0.547 -1.039 -1.371 -1.559 -2.059 -1.168 c -0.41 0.258 -0.137 1.43 0.414 1.949 c 0.82 0.781 2.059 1.305 2.879 -0.258 l -0.273 -0.262 c -0.547 1.172 -1.508 1.043 -2.059 0.652 c -0.688 -0.523 -1.098 -1.434 -0.824 -1.563 c 0.277 -0.129 0.688 0.391 0.824 0.648 m 3.02 -4.684 c -0.273 0 -1.234 0.91 -2.195 2.344 c -1.098 1.691 -1.648 3.383 -1.922 3.645 c -0.41 0.391 -0.688 0.391 -0.688 0.129 c 0 -0.262 0.277 -0.391 0.414 -0.52 c 0.273 -0.133 0.273 -0.523 -0.137 -0.652 c -0.414 0 -0.551 0.129 -0.688 0.262 c -0.273 0.52 0 1.691 0.551 1.563 c 0.547 -0.133 1.098 -1.172 1.645 -2.344 c 0.273 -0.391 1.785 -2.992 2.469 -3.773 c -0.137 0.648 -1.918 3.773 -2.059 4.293 c -0.41 1.043 -0.684 1.953 0.141 2.602 c 1.098 0.652 2.879 0.391 3.43 0.133 c 0.547 -0.262 0.961 0.258 1.098 0.52 c 0 -0.781 0.547 -0.52 0.961 -0.129 c -0.137 -0.523 -0.137 -0.91 -1.512 -0.91 c -1.098 0 -2.195 1.039 -3.293 -0.262 c -0.41 -0.781 0.961 -4.164 1.098 -4.688 c 0.137 -0.387 0.961 -1.949 0.688 -2.211"/><g transform="matrix(0.13721 0 0 0.13015 5.843 5.166)"><g stroke-width="2"><path d="m 57.999 68 c 0 0 26.988 18.01 24.995 31 c -11.985 0.99 -31.999 -25 -31.999 -25" fill="#999" stroke="#111"/><path d="m 64.01 51.01 c 0 14.347 -11.644 25.993 -26.02 25.993 c -14.348 0 -25.992 -11.646 -25.992 -25.993 c 0 -14.377 11.644 -26.02 25.992 -26.02 c 14.377 0 26.02 11.646 26.02 26.02" fill="none" stroke="#212121"/></g><path d="m 60.988 51.01 c 0 12.696 -10.277 22.991 -23 22.991 c -12.697 0 -22.974 -10.295 -22.974 -22.991 c 0 -12.726 10.277 -23.02 22.974 -23.02 c 12.725 0 23 10.295 23 23.02" fill="none" stroke="#aaa" stroke-width="4"/><path d="m 58.996 51.01 c 0 11.586 -9.395 20.98 -21.01 20.98 c -11.587 0 -20.981 -9.395 -20.981 -20.98 c 0 -11.616 9.395 -21.01 20.981 -21.01 c 11.615 0 21.01 9.395 21.01 21.01" fill="#ededed" stroke="#212121" fill-opacity="0.502"/></g></svg>