<svg xmlns="http://www.w3.org/2000/svg" viewBox="0 0 24 24"><path d="m 4.531 19.777 c -12.605 -9.707 4.379 -27.24 15.539 -16.04 c 11.18 9.637 -4.801 28.34 -15.539 16.04" fill="#9400d2"/><path d="m 19.25 11.805 c 0 3.961 -3.156 7.168 -7.05 7.168 c -3.898 0 -7.06 -3.207 -7.06 -7.168 c 0 -3.957 3.16 -7.164 7.06 -7.164 c 3.898 0 7.05 3.207 7.05 7.164" fill="#ff8dca"/><path d="m 17.488 11.805 c 0 2.969 -2.371 5.375 -5.293 5.375 c -2.926 0 -5.293 -2.406 -5.293 -5.375 c 0 -2.969 2.367 -5.375 5.293 -5.375 c 2.922 0 5.293 2.406 5.293 5.375" fill="#fccfea"/><path d="m 10.43 9.117 c -1.051 0 -1.766 0.832 -1.766 1.824 c 0 0.516 0.23 0.984 0.602 1.313 l 2.93 2.242 l 2.93 -2.242 c 0.367 -0.328 0.598 -0.797 0.598 -1.313 c 0 -0.992 -0.715 -1.824 -1.766 -1.824 c -0.691 0 -0.879 0 -1.762 0.898 c -0.883 -0.898 -0.883 -0.898 -1.766 -0.898" fill="#03aced"/><path d="m 8.902 10.02 c -0.145 0.262 -0.227 0.566 -0.234 0.895 h 7.05 c -0.004 -0.328 -0.086 -0.633 -0.234 -0.895 m -6.574 1.789 c 0.098 0.168 0.211 0.32 0.355 0.449 l 0.586 0.449 h 4.688 l 0.586 -0.449 c 0.145 -0.129 0.258 -0.281 0.355 -0.449 m -4.457 1.793 l 1.172 0.895 l 1.172 -0.895" fill-opacity="0.102"/><path d="m 19.508 16.11 c 0 1.883 -1.516 3.406 -3.387 3.406 c -1.867 0 -3.383 -1.523 -3.383 -3.406 c 0 -1.887 1.516 -3.41 3.383 -3.41 c 1.871 0 3.387 1.523 3.387 3.41" fill="#d72686"/><g fill="#fff"><path d="m 15.691 14.05 h 0.754 c 0.023 0 0.047 0.02 0.047 0.047 v 4.02 c 0 0.027 -0.023 0.047 -0.047 0.047 h -0.754 c -0.023 0 -0.047 -0.02 -0.047 -0.047 v -4.02 c 0 -0.027 0.023 -0.047 0.047 -0.047"/><path d="m 18.18 15.746 v 0.73 c 0 0.023 -0.023 0.047 -0.047 0.047 h -4.137 c -0.023 0 -0.047 -0.023 -0.047 -0.047 v -0.73 c 0 -0.023 0.023 -0.047 0.047 -0.047 h 4.137 c 0.023 0 0.047 0.023 0.047 0.047"/></g></svg>