<svg xmlns="http://www.w3.org/2000/svg" viewBox="0 0 24 24"><path d="m 23.809 17.242 c 2.387 -34.516 -43.652 -8.645 -13.34 6.02 c 4.672 2.023 11.637 0.547 13.34 -6.02" fill="#a9abaf"/><g fill="#e36219"><path d="m 9.934 18.457 c -0.5 -1.336 -0.508 -2.824 0.043 -3.938 c 0.477 -0.969 0.875 -1.398 1.371 -1.48 c 0.281 -0.047 0.508 -0.18 0.836 -0.508 l 0.449 -0.449 v 0.586 c 0 0.516 0.043 0.648 0.383 1.16 c 0.211 0.316 0.434 0.605 0.492 0.641 c 0.141 0.086 0.906 -0.242 1.098 -0.469 c 0.297 -0.59 -0.059 -0.773 0.301 -0.977 l 0.445 -0.273 c 0.852 -0.195 0.996 -3.695 1.129 -0.801 c 0.031 0.027 -0.059 1.078 -0.152 1.383 c -0.246 0.824 -0.156 1.188 0.441 1.824 c 0.563 0.594 0.602 0.777 0.34 1.523 c -0.16 0.457 -0.16 0.465 0.063 0.641 c 0.184 0.145 0.891 0.254 0.891 0.137 c 0 -0.02 -0.066 -0.223 -0.152 -0.453 c -0.117 -0.324 -0.129 -0.516 -0.055 -0.852 c 0.055 -0.234 0.125 -0.645 0.16 -0.91 c 0.086 -0.676 0.137 -0.809 0.293 -0.754 c 0.078 0.031 0.215 0.012 0.305 -0.035 c 0.23 -0.129 1.25 0.348 1.172 0.551 c -0.027 0.074 -0.066 0.754 -0.082 1.504 c -0.027 1.328 -0.039 1.383 -0.355 2.01 c -0.629 1.238 -2.113 2.402 -3.512 2.754 c -3.629 0.547 -4.902 -0.863 -5.902 -2.816 m 6.227 -2.258 c -0.066 -0.629 -0.52 -0.863 -1.078 -1.01 c -1.398 -0.367 -2.344 1.32 -1.277 2.281 c 0.227 0.203 0.41 0.422 0.922 0.387 c 0.957 0.172 1.543 -0.652 1.434 -1.66 m 2.871 1.086 c 0.613 -1.766 -0.086 -1.957 -0.258 -1.957 c -0.145 0 -0.016 1.488 -0.016 1.855 c -0.004 0.238 0.094 0.273 0.273 0.102 m -6.684 -1.395 c 0.023 -0.387 -0.043 -0.648 -0.316 -1.207 c -0.16 -0.324 -0.289 -0.719 -0.289 -0.875 c -0.004 -0.691 -0.289 -0.957 -0.508 -0.488 c -0.148 0.313 -0.313 1.266 0.188 2.297 c 0.367 0.762 0.902 0.629 0.926 0.273"/><path d="m 13.777 13.484 c -1.301 -1.035 -0.266 -1.832 0.727 -2.699 c 1.332 -1.164 0.262 0.738 -0.359 2.332 c -0.109 0.281 -0.023 0.402 -0.145 0.43 c -0.09 0.016 -0.176 -0.023 -0.223 -0.063"/><path d="m 17.246 14.199 c -0.258 -0.25 -0.063 -2.605 0.246 -2.605 c 0.16 0 0.438 1.445 0.57 1.57 c 1.57 1.461 -0.148 0.398 -0.332 0.676 c -0.297 0.445 -0.352 0.484 -0.484 0.359"/></g><g fill="#345c97"><path d="m 20.04 13.445 c -0.422 -0.199 -1.797 -1.977 -1.711 -2.082 c 0.18 -0.199 0.77 -0.234 0.711 -0.727 c -0.121 -1.016 -0.605 -1.809 -1.68 -2.738 c -0.34 -0.293 -0.609 -0.582 -0.602 -0.637 c 0.031 -0.172 0.652 -0.047 1.148 0.227 c 1.035 0.578 1.664 1.336 2.207 2.672 c 0.309 0.758 0.668 0.465 0.988 0.59 c 0.434 0.168 0.102 0.574 -0.484 1.508 c -0.516 0.816 -0.457 1.184 -0.578 1.188"/><path d="m 7.887 10.262 c 0.137 0.043 0.723 1.574 0.801 1.98 c 0.063 0.332 -0.242 0.266 -0.512 0.391 c -0.242 0.117 -0.328 0.25 -0.465 0.727 c -0.285 0.988 -0.145 1.898 0.488 3.152 c 0.199 0.398 0.336 0.762 0.305 0.809 c -0.094 0.148 -0.621 -0.195 -0.973 -0.633 c -0.734 -0.914 -1.02 -1.844 -1 -3.281 c 0.012 -0.813 -0.004 -0.879 -0.254 -1.113 c -0.332 -0.313 -0.785 -0.324 0.121 -0.973 c 0.797 -0.566 1.371 -1.098 1.488 -1.059"/><path d="m 8.04 3.281 h 6.172 c 0.449 0 0.816 0.371 0.816 0.832 v 3.605 c 0 0.457 -0.367 0.828 -0.816 0.828 h -6.172 c -0.453 0 -0.816 -0.371 -0.816 -0.828 v -3.605 c 0 -0.461 0.363 -0.832 0.816 -0.832"/><path d="m 9.613 8.887 h 3.109 c 0.453 0 0.816 0.324 0.816 0.719 c 0 0.398 -0.363 0.719 -0.816 0.719 h -3.109 c -0.449 0 -0.816 -0.32 -0.816 -0.719 c 0 -0.395 0.367 -0.719 0.816 -0.719"/></g></svg>