<svg xmlns="http://www.w3.org/2000/svg" viewBox="0 0 24 24"><path d="m 18.871 2.641 c -18.18 -11.961 -28.06 23.953 -5.879 21.1 c 9.719 -2.148 15.617 -15.625 5.879 -21.1" fill="#ffa400"/><path d="m 9.98 20.2 c -2.191 -0.48 -4.449 -2.289 -5.402 -4.32 c -2.184 -4.652 0.109 -9.934 4.945 -11.402 c 1.063 -0.32 3.125 -0.32 4.188 0 c 1.09 0.332 2.367 1.039 3.168 1.754 c 0.855 0.758 1.879 2.305 2.262 3.41 c 0.406 1.172 0.508 3.445 0.211 4.633 c -1.07 4.246 -5.18 6.844 -9.371 5.926 m -2.094 -2.02 c -0.602 -0.398 -2.16 -1.621 -2.52 -2.297 c -0.742 -1.395 -1.457 -3.785 -1.047 -5.391 c 0.609 -2.375 3.137 -5.098 5.52 -5.809 c 0.805 -0.242 2.926 0.035 3.805 0.242 c 0.992 0.23 1.926 1.477 2.781 2.27 c 0.645 0.602 0.277 1.137 -0.082 0.711 c -1.484 -1.75 -3.289 -3.188 -5.621 -3.047 c -3.043 0.18 -4.965 3.125 -5.691 6.301 c -0.461 2.01 0.25 3.531 1.648 5.352 c 0.367 0.477 1.258 1.906 1.449 1.891 c 0.047 -0.004 -0.063 -0.102 -0.242 -0.223 m 1.094 -0.867 c 0.039 -0.238 0.145 -1.176 0.234 -2.082 c 0.18 -1.844 0.359 -2.23 0.887 -1.891 c 0.125 0.082 0.258 0.746 0.418 2.129 c 0.129 1.109 0.27 2.07 0.313 2.145 c 0.102 0.164 0.418 0.168 0.52 0.004 c 0.039 -0.066 -0.016 -1.035 -0.125 -2.148 c -0.25 -2.523 -0.266 -4.16 -0.039 -4.086 c 0.09 0.031 0.32 0.332 0.52 0.676 c 0.414 0.723 0.898 1.324 1.223 1.332 c 0.348 0.004 0.473 0.449 0.172 2.082 c -0.371 2.027 0.113 2.363 0.27 2.199 c 0.066 -0.07 0.184 -0.656 0.258 -1.301 c 0.152 -1.281 0.199 -1.426 0.484 -1.426 c 0.266 0 0.406 0.441 0.516 1.641 c 0.051 0.566 0.156 1.066 0.23 1.113 c 0.129 0.082 0.805 0.289 0.109 -2.73 c -0.082 -0.363 -0.227 -0.84 -0.148 -0.953 c 0.113 -0.168 0.199 -0.125 0.523 0.266 c 0.215 0.258 0.969 0.254 0.969 0.156 c 0.004 -0.246 -1.496 -1.785 -1.742 -1.973 c -0.18 -0.141 -0.176 -0.188 0.035 -0.422 c 0.281 -0.316 0.25 -0.934 -0.055 -1.129 c -0.117 -0.074 -0.367 -0.094 -0.555 -0.047 c -0.453 0.117 -0.59 0.633 -0.289 1.098 c 0.234 0.367 -0.035 0.227 -0.473 0.852 c 0 0 0.422 0.566 -1.352 -1.93 c -0.621 -0.875 -0.926 -1.746 -0.973 -1.766 c -0.434 -0.195 -0.461 -0.289 -0.184 -0.59 c 0.605 -0.656 0.633 -1.383 0.078 -2 c -0.473 -0.531 -1.656 -0.359 -1.996 0.289 c -0.25 0.469 -0.16 1.16 0.207 1.602 c 0.188 0.23 0.32 0.43 0.293 0.449 c -0.023 0.02 -0.176 0.094 -0.328 0.164 c -0.398 0.176 -2.531 2.824 -2.531 3.137 c 0 0.141 0.098 0.297 0.219 0.344 c 0.164 0.063 0.422 -0.137 0.957 -0.734 c 0.402 -0.453 0.801 -0.824 0.891 -0.824 c 0.215 0 0.203 1.512 -0.043 4.305 c -0.105 1.234 -0.16 2.297 -0.121 2.367 c 0.043 0.066 0.184 0.121 0.313 0.121 c 0.168 0 0.262 -0.133 0.316 -0.434" fill="#fff"/></svg>