<svg xmlns="http://www.w3.org/2000/svg" viewBox="0 0 24 24"><path d="m 2.633 17.684 c 11.695 20.766 34.59 -17.12 10.434 -17.387 c -7.914 -0.176 -17.492 9.105 -10.434 17.387" fill="#776e67"/><g fill="#cc9454"><path d="m 8.113 15.453 c -0.293 0.387 -0.941 0.387 -1.453 0 c -0.512 -0.387 -0.691 -1.012 -0.398 -1.395 c 0.289 -0.387 0.938 -0.387 1.449 0 c 0.512 0.387 0.691 1.012 0.402 1.395"/><path d="m 16.656 5.496 l 0.84 0.906 c 0.219 0.238 0.211 0.602 -0.016 0.813 l -4.895 4.551 c -0.227 0.211 -0.586 0.191 -0.805 -0.047 l -0.84 -0.906 c -0.219 -0.234 -0.215 -0.598 0.012 -0.809 l 4.895 -4.555 c 0.227 -0.211 0.59 -0.188 0.809 0.047"/></g><g fill="#211a14"><g fill-rule="evenodd"><path d="m 5.03 10.117 l 2.453 5.883 l 3.297 2.766 l -3.402 -6.254"/><path d="m 8.08 7.523 l -3.051 2.594 l 2.348 2.391 l 2.711 -2.305"/><path d="m 10.09 10.203 l 5 4.895 l -4.313 3.668 l -3.402 -6.254"/><path d="m 8.08 7.523 l 4.641 4.02 l 2.371 3.555 l -5 -4.895"/></g><path d="m 12.719 11.543 l -5.238 4.457 l 3.297 2.766 l 4.313 -3.668"/><path d="m 8.08 7.523 l 4.641 4.02 l -5.238 4.457 l -2.453 -5.883"/></g></svg>