<svg xmlns="http://www.w3.org/2000/svg" viewBox="0 0 24 24"><path d="m 21.918 5.691 c 7.762 12.277 -8.945 24.715 -18.395 14.711 c -8.902 -9.422 0.93 -24.06 12.488 -19.488 c 2.414 0.957 4.48 2.523 5.906 4.777" fill="#dcdcdc"/><g stroke="#121212"><g transform="matrix(0.09375 0 0 0.09375 0 -0.506)"><path d="m 69.13 70.23 h 119.88 c 11.333 0 20.5 9.208 20.5 20.542 v 88.54 c 0 11.333 -9.167 20.542 -20.5 20.542 h -119.87 c -11.333 0 -20.542 -9.208 -20.542 -20.542 v -88.54 c 0 -11.333 9.208 -20.542 20.542 -20.542" fill="#878787" stroke-width="6.846"/><path d="m 83.08 84.23 h 70.46 c 11.333 0 20.542 9.167 20.542 20.5 v 42.42 c 0 11.333 -9.208 20.5 -20.542 20.5 h -70.46 c -11.333 0 -20.5 -9.167 -20.5 -20.5 v -42.42 c 0 -11.333 9.167 -20.5 20.5 -20.5" fill="#627d53" stroke-width="4.572"/></g><g fill="#878787" stroke-width="6.846"><path d="m 82.06 183.11 c 0.042 2.917 -1.5 5.625 -4 7.083 c -2.542 1.458 -5.625 1.458 -8.167 0 c -2.5 -1.458 -4.04 -4.167 -4 -7.083 c -0.042 -2.917 1.5 -5.625 4 -7.083 c 2.542 -1.5 5.625 -1.5 8.167 0 c 2.5 1.458 4.04 4.167 4 7.083" transform="matrix(0.09375 0 0 0.09375 0.377 -0.506)"/><path d="m 82.1 183.11 c 0 2.917 -1.542 5.625 -4.04 7.083 c -2.5 1.458 -5.625 1.458 -8.167 0 c -2.5 -1.458 -4.04 -4.167 -4 -7.083 c -0.042 -2.917 1.5 -5.625 4 -7.083 c 2.542 -1.5 5.667 -1.5 8.167 0 c 2.5 1.458 4.04 4.167 4.04 7.083" transform="matrix(0.09375 0 0 0.09375 3.042 -0.452)"/></g></g><g fill="#878787" stroke="#696969" stroke-width="6.846"><path d="m 82.07 183.09 c 0.042 2.917 -1.5 5.625 -4 7.083 c -2.542 1.458 -5.625 1.458 -8.167 0 c -2.5 -1.458 -4.04 -4.167 -4 -7.083 c -0.042 -2.917 1.5 -5.625 4 -7.083 c 2.542 -1.458 5.625 -1.458 8.167 0 c 2.5 1.458 4.04 4.167 4 7.083" transform="matrix(0.09375 0 0 0.09375 10.982 -8.01)"/><path d="m 82.07 183.1 c 0.042 2.917 -1.5 5.625 -4 7.083 c -2.542 1.458 -5.625 1.458 -8.167 0 c -2.5 -1.458 -4.04 -4.167 -4 -7.083 c -0.042 -2.917 1.5 -5.625 4 -7.083 c 2.542 -1.458 5.625 -1.458 8.167 0 c 2.5 1.458 4.04 4.167 4 7.083" transform="matrix(0.09375 0 0 0.09375 10.982 -4.9)"/><path d="m 82.08 183.09 c 0.042 2.917 -1.5 5.625 -4.04 7.083 c -2.5 1.5 -5.625 1.5 -8.125 0 c -2.542 -1.458 -4.083 -4.167 -4.04 -7.083 c -0.042 -2.917 1.5 -5.625 4.04 -7.083 c 2.5 -1.458 5.625 -1.458 8.125 0 c 2.542 1.458 4.083 4.167 4.04 7.083" transform="matrix(0.09375 0 0 0.09375 10.887 -1.942)"/></g><path d="m 134.13 152.07 c -3.125 -5.583 -4.583 -9.375 -5.5 -14.25 c -1.417 -7.917 -4.833 -16.333 -6.667 -16.708 c -0.833 -0.125 -2.458 1.417 -4.083 3.917 c -2.208 3.417 -2.833 5.583 -3.625 12.292 c -0.792 6.833 -1.458 9.04 -4.292 14.08 c -4.375 7.75 -5.833 8.625 -8.75 5.292 c -4.5 -5.125 -7.292 -10.792 -8.25 -16.75 c -0.958 -5.75 -4.917 -16.5 -6.083 -16.458 c -0.292 0.042 -1.833 1.125 -3.458 2.417 c -2.75 2.25 -2.917 2.75 -3.417 9.625 c -0.417 5.417 -1.125 8.375 -2.875 11.667 c -4.458 8.5 -7 3.625 -3.667 -6.875 c 2.292 -7.167 2.292 -9.417 0 -17.958 c -2.167 -8.04 -2.167 -23.625 -0.042 -26.12 c 7.708 -3.292 8 -2.958 8.458 5.125 c -1.5 2.792 -2.125 8.917 -1.75 10.08 c 4.04 4.583 5.167 -9.75 8.292 -8.208 c 0.875 0.417 2.083 1.375 2.708 2.125 c 2.333 1.458 3.583 2.042 3.583 4.458 c 0 1.75 0.708 4.125 1.542 5.25 c 1.167 1.583 1.708 4.542 2.083 11.792 c 0.75 13.458 4.542 23.917 7 19.333 c 3.25 -5.958 4.75 -12.583 4.542 -19.667 c -0.833 -9.167 3.75 -11.25 8.167 -18.417 c 1.333 -2.167 3 -4 3.708 -4 c 0.75 0 2.917 3.292 5.167 7.792 c 3.167 6.375 4.04 9.208 4.833 15.583 c 1 8.208 4.667 20.75 6.375 21.75 c 2.667 1.583 6.25 -8.04 7.792 -20.833 c 0.625 -5.208 1.625 -8.08 5.25 -15 c 5.333 -10.125 5.5 -10.125 10.875 0.708 c 3.75 7.667 5.458 16.292 4.5 22.625 c -0.625 4.083 -1.833 4.667 -2.625 1.25 c -0.292 -1.25 -1.625 -5.708 -3 -9.875 c -2.042 -6.083 -2.875 -7.625 -4.375 -7.833 c -3.75 1 -6.958 8.792 -7.125 11.917 c 0 5.417 -1.917 11.792 -5.875 19.667 c -2.167 4.292 -4.208 7.792 -4.542 7.792 c -0.333 0 -2.542 -3.417 -4.875 -7.583" transform="matrix(0.09375 0 0 0.09375 0 -0.506)" fill="#fff" stroke="#fff" stroke-width="0.729"/></svg>