<svg xmlns="http://www.w3.org/2000/svg" viewBox="0 0 24 24"><path d="m 2.988 18.17 c 19.758 21.254 32.21 -22.613 5.977 -17.777 c -6.922 2.387 -12.32 10.953 -5.977 17.777" fill="#f89635"/><path d="m 11.797 18.11 c -1.066 -0.152 -2.105 -0.695 -2.578 -1.344 c -0.426 -0.586 -0.855 -1.871 -0.891 -2.66 l -0.008 -0.258 l 0.551 0.027 c 0.355 0.02 0.559 1.055 0.781 0.402 c 0.027 -0.082 -0.094 -0.695 0.324 -0.691 c 0.34 0.004 0.426 -0.352 0.145 -0.328 c -0.09 0.008 -0.34 0.082 -0.555 0.16 c -0.215 0.082 -0.473 0.105 -0.59 0.094 l -2.242 -0.227 c 1.074 -0.434 1.656 -0.992 1.73 -1.234 c 0.078 -0.426 -0.539 -0.5 1.047 -0.652 c 0.363 -0.035 0.895 -0.453 0.895 -0.531 c 0 -0.129 -0.359 -0.086 -0.668 0.082 l -1.078 0.156 l 0.32 -0.438 c 0.199 -0.27 -1.086 -1.52 -1.672 -2.01 c -0.211 -0.176 1.5 0.461 2.01 0.574 c 0.539 0.121 0.934 0.098 0.984 -0.055 c 0.016 -0.059 -0.055 -0.121 -0.16 -0.145 c -1.102 -0.227 -1.145 -0.238 -1.086 -0.383 c 0.031 -0.078 0.078 -0.23 0.098 -0.336 c 0.023 -0.102 -1.578 -1.102 -0.445 -0.875 c -0.297 -2.43 0.09 0.031 0.977 0.285 c 0.141 0.027 0.285 0.102 0.32 0.16 c 0.066 0.125 0.379 0.59 0.574 0.863 c 0.238 0.328 0.273 0.074 0.055 -0.395 l -0.211 -0.449 l 0.395 -1.758 c 0.574 0.574 0.703 1.555 1.98 2.035 c 0.121 0.086 0.145 0.336 0.145 0.453 c 0.004 0.121 0.055 0.363 0.117 0.547 c 0.102 0.297 0.098 0.32 -0.023 0.266 c -0.57 -0.254 -0.703 -0.273 -1.047 -0.168 c -0.844 0.191 -1.27 2.262 -0.922 2.988 c 0.082 0.16 0.137 0.172 0.676 0.117 c 0.727 -0.07 1.129 -0.172 1.625 -0.406 c 0.551 -0.262 0.676 -0.57 0.609 -1.539 c -0.063 -0.938 -0.105 -1.055 -0.344 -0.992 c -0.141 0.039 -0.191 0.004 -0.227 -0.145 c -0.047 -0.223 -0.188 -0.648 -0.367 -1.121 c -0.07 -0.176 -0.109 -0.332 -0.09 -0.344 c 0.016 -0.016 -0.039 -0.523 0.051 -1.141 c 0.168 -1.199 0.059 0.246 1.148 0.777 c 0.141 0.066 0.184 -0.031 0.184 0.102 c 0 0.203 0.211 0.523 0.289 0.441 c 0.031 -0.035 0.074 -0.238 0.098 -0.453 c 0.043 -0.398 0.188 -0.637 0.188 -0.313 c 0 0.109 0.164 0.305 0.449 0.531 c 0.543 0.43 0.754 0.773 0.914 1.48 c 0.121 0.547 0.16 2.055 0.063 2.59 c -0.082 0.473 -0.527 0.949 -1.117 1.195 c -0.66 0.277 -1.133 0.371 -2.645 0.539 c -1.477 0.164 -1.5 0.168 -1.563 0.438 c -0.137 0.559 0.172 1.316 0.695 1.719 c 0.855 0.562 2.508 0.301 3.383 0.117 c 0.453 -0.098 0.863 -0.184 0.91 -0.191 c 0.047 -0.012 0.176 0.355 0.293 0.813 c 0.168 0.684 0.188 0.852 0.102 0.961 c -0.059 0.074 -0.578 0.25 -1.16 0.398 c -1.16 0.289 -2.512 0.395 -3.438 0.266" fill="#fff"/></svg>