<svg xmlns="http://www.w3.org/2000/svg" xmlns:xlink="http://www.w3.org/1999/xlink" viewBox="0 0 24 24"><defs><g id="0" clip-path="url(#4)"><path d="m 3.605 19.08 h 17.08 v 0.281 h -17.08" fill="#fff"/><path d="m 3.605 17.1 h 17.08 v 0.281 h -17.08" fill="#fff"/><path d="m 3.605 15.13 h 17.08 v 0.281 h -17.08" fill="#fff"/><path d="m 3.605 11.176 h 17.08 v 0.281 h -17.08" fill="#fff"/><path d="m 3.605 9.199 h 17.08 v 0.281 h -17.08" fill="#fff"/><path d="m 3.605 7.223 h 17.08 v 0.281 h -17.08" fill="#fff"/><path d="m 3.605 5.246 h 17.08 v 0.285 h -17.08" fill="#fff"/></g><g id="1" clip-path="url(#4)"><path d="m 5.328 3.484 h 0.289 v 17.355 h -0.289" fill="#fff"/><path d="m 7.301 3.484 h 0.289 v 17.355 h -0.289" fill="#fff"/><path d="m 9.277 3.484 h 0.285 v 17.355 h -0.285" fill="#fff"/><path d="m 11.25 3.484 h 0.285 v 17.355 h -0.285" fill="#fff"/><path d="m 13.223 3.484 h 0.285 v 17.355 h -0.285" fill="#fff"/><path d="m 17.17 3.484 h 0.289 v 17.355 h -0.289" fill="#fff"/><path d="m 19.14 3.484 h 0.285 v 17.355 h -0.285" fill="#fff"/></g><g id="2" clip-path="url(#4)"><path d="m 15.27 3.555 h 0.285 v 17.285 h -0.285" fill="#fff"/><path d="m 3.605 13.148 h 17.08 v 0.285 h -17.08" fill="#fff"/></g><g id="3" clip-path="url(#4)"><path d="m 16.438 11.879 v 0.07 c -0.008 1.82 -1.105 3.465 -2.801 4.191 c -0.586 0.254 -1.211 0.383 -1.848 0.383 c -1.539 0 -2.973 -0.742 -3.84 -1.992 c -0.172 -0.238 -0.316 -0.5 -0.434 -0.766 c -0.129 -0.285 -0.223 -0.586 -0.285 -0.891 c -0.453 -2.117 0.688 -4.277 2.707 -5.137 c 0.586 -0.254 1.211 -0.383 1.852 -0.383 c 1.484 0 2.883 0.699 3.758 1.879 l -0.695 0.297 c -0.738 -0.91 -1.879 -1.449 -3.063 -1.449 c -0.539 0 -1.063 0.109 -1.559 0.32 c -1.652 0.703 -2.605 2.414 -2.32 4.148 c 0.051 0.316 0.145 0.629 0.273 0.926 c 0.125 0.273 0.281 0.543 0.469 0.781 l 0.035 0.043 l 9.414 -4.02 l -0.012 -0.055 c -0.09 -0.297 -0.188 -0.582 -0.305 -0.848 c -0.129 -0.289 -0.277 -0.57 -0.449 -0.84 c -1.188 -1.871 -3.309 -3.03 -5.555 -3.03 c -0.898 0 -1.773 0.176 -2.598 0.535 c -1.449 0.609 -2.621 1.723 -3.301 3.121 c -0.676 1.383 -0.82 2.957 -0.418 4.43 c 0.086 0.313 0.195 0.605 0.316 0.895 c 0.121 0.27 0.258 0.539 0.422 0.801 c 1.18 1.895 3.316 3.074 5.586 3.074 c 0.895 0 1.77 -0.176 2.598 -0.527 c 2.379 -1.016 3.93 -3.332 3.93 -5.887 v -0.07 m -6.535 -3.508 c 1.109 0 2.18 0.516 2.863 1.379 l 0.105 0.141 l 1.25 -0.531 l -0.16 -0.227 c -0.926 -1.297 -2.438 -2.066 -4.051 -2.066 c -0.684 0 -1.344 0.133 -1.969 0.402 c -2.145 0.918 -3.359 3.219 -2.879 5.469 c 0.074 0.324 0.176 0.641 0.309 0.945 c 0.133 0.281 0.281 0.559 0.461 0.82 c 0.926 1.324 2.453 2.117 4.09 2.117 c 0.684 0 1.344 -0.137 1.969 -0.402 c 1.719 -0.734 2.883 -2.395 2.977 -4.242 h 1.285 c -0.094 2.348 -1.559 4.461 -3.754 5.391 c -0.789 0.34 -1.621 0.508 -2.477 0.508 c -2.16 0 -4.199 -1.121 -5.324 -2.934 c -0.156 -0.25 -0.285 -0.508 -0.402 -0.762 c -0.121 -0.277 -0.223 -0.566 -0.301 -0.863 c -0.387 -1.402 -0.242 -2.906 0.402 -4.227 c 0.645 -1.332 1.766 -2.391 3.145 -2.984 c 0.789 -0.34 1.621 -0.508 2.473 -0.508 c 2.141 0 4.172 1.109 5.297 2.887 c 0.164 0.262 0.309 0.527 0.43 0.805 c 0.086 0.195 0.168 0.406 0.238 0.621 l -8.969 3.824 c -0.129 -0.184 -0.238 -0.383 -0.332 -0.586 c -0.121 -0.277 -0.207 -0.566 -0.25 -0.855 c -0.266 -1.602 0.617 -3.176 2.129 -3.824 c 0.461 -0.191 0.949 -0.297 1.445 -0.297" fill="#fff"/><path d="m 113.81 27.694 c 31.3 0 60.91 16.386 77.4 42.903 c 2.395 3.82 4.463 7.916 6.314 11.902 c 1.687 3.82 3.048 7.916 4.191 12.01 l 0.163 0.775 l -131.07 57.13 l -0.49 -0.609 c -2.613 -3.488 -4.79 -7.197 -6.532 -11.127 c -1.796 -4.207 -3.103 -8.581 -3.81 -13.06 c -3.974 -24.635 9.308 -48.827 32.22 -58.736 c 6.913 -2.989 14.207 -4.484 21.719 -4.484 c 16.493 0 32.388 7.695 42.675 20.483 l 9.689 -4.207 c -12.193 -16.774 -31.68 -26.683 -52.36 -26.683 c -8.927 0 -17.636 1.827 -25.801 5.425 c -28.14 12.179 -44.04 42.793 -37.722 72.797 c 0.925 4.263 2.232 8.47 4.03 12.567 c 1.579 3.82 3.701 7.418 5.988 10.906 c 12.08 17.604 32.12 28.23 53.51 28.23 c 8.873 0 17.473 -1.827 25.801 -5.425 c 23.678 -10.297 38.974 -33.603 38.974 -59.4 v -0.996 h 26.18 v 0.996 c -0.054 36.32 -21.555 69.03 -54.759 83.43 c -11.54 4.982 -23.733 7.473 -36.2 7.473 c -31.625 0 -61.29 -16.718 -77.84 -43.568 c -2.286 -3.709 -4.191 -7.529 -5.879 -11.349 c -1.796 -4.097 -3.32 -8.359 -4.409 -12.677 c -5.607 -20.87 -3.484 -43.18 5.824 -62.777 c 9.58 -19.819 25.91 -35.596 45.996 -44.34 c 11.594 -4.982 23.787 -7.584 36.2 -7.584 m 0.218 178.09 c 11.866 0 23.461 -2.38 34.456 -7.197 c 30.591 -13.286 51 -43.18 52.31 -76.4 h -17.908 c -1.306 26.13 -17.473 49.602 -41.478 60.12 c -8.709 3.764 -18.02 5.702 -27.38 5.702 c -22.807 0 -44.14 -11.238 -57.05 -30 c -2.504 -3.709 -4.681 -7.529 -6.369 -11.625 c -1.905 -4.263 -3.32 -8.802 -4.3 -13.397 c -6.695 -31.887 10.179 -64.49 40.06 -77.5 c 8.818 -3.764 18.02 -5.702 27.434 -5.702 c 22.481 0 43.601 11.02 56.5 29.34 l 2.177 3.155 l -17.364 7.529 l -1.524 -1.993 c -9.526 -12.234 -24.386 -19.486 -39.899 -19.486 c -6.913 0 -13.608 1.384 -19.977 4.152 c -21.23 9.245 -33.422 31.499 -29.72 54.2 c 0.708 4.207 1.905 8.249 3.484 12.12 c 1.306 2.879 2.831 5.702 4.627 8.304 l 124.71 -54.09 c -0.925 -3.045 -2.01 -6.03 -3.32 -8.802 c -1.687 -3.931 -3.701 -7.695 -5.988 -11.404 c -15.731 -25.299 -44.04 -40.91 -73.811 -40.91 c -11.921 0 -23.515 2.38 -34.51 7.197 c -19.215 8.304 -34.783 23.417 -43.764 42.29 c -8.927 18.711 -10.941 40.02 -5.607 59.899 c 1.089 4.207 2.504 8.304 4.191 12.234 c 1.579 3.598 3.484 7.252 5.607 10.795 c 15.786 25.576 44.2 41.464 74.41 41.464 m -0.218 -179.59 c -12.683 0 -25.09 2.602 -36.797 7.695 c -20.521 8.913 -37.12 24.912 -46.703 45.01 c -9.526 19.874 -11.594 42.627 -5.933 63.774 c 1.198 4.429 2.722 8.802 4.518 12.899 c 1.687 3.931 3.701 7.75 5.988 11.515 c 16.711 27.29 47.03 44.29 79.04 44.29 c 12.683 0 25.09 -2.602 36.797 -7.695 c 33.803 -14.67 55.685 -47.996 55.685 -84.75 v -2.547 h -29.18 v 2.547 c -0.109 25.19 -15.02 47.996 -38.1 57.961 c -8 3.488 -16.493 5.314 -25.2 5.314 c -20.902 0 -40.498 -10.297 -52.31 -27.514 c -2.286 -3.377 -4.3 -6.865 -5.933 -10.574 c -1.687 -3.931 -2.994 -8.138 -3.865 -12.29 c -6.096 -29.34 9.308 -59.23 36.797 -71.14 c 8 -3.488 16.493 -5.314 25.2 -5.314 c 19.487 0 38.1 9.134 49.969 24.413 l -6.859 2.989 c -10.614 -12.677 -26.618 -20.15 -43.11 -20.15 c -7.729 0 -15.187 1.55 -22.317 4.595 c -23.515 10.186 -37.07 34.987 -33.1 60.29 c 0.708 4.595 2.123 9.19 3.919 13.508 c 1.796 3.986 3.974 7.861 6.695 11.404 l 0.49 0.609 l 0.708 0.886 l 1.089 -0.498 l 131.18 -56.909 l 1.198 -0.498 l -0.272 -1.329 l -0.218 -0.775 c -1.198 -4.207 -2.613 -8.304 -4.3 -12.179 c -1.796 -4.152 -3.865 -8.249 -6.369 -12.12 c -16.82 -26.628 -46.921 -43.4 -78.71 -43.4 m 0.218 178.09 c -29.611 0 -57.54 -15.611 -72.94 -40.8 c -2.068 -3.488 -3.974 -6.975 -5.498 -10.574 c -1.687 -3.82 -3.103 -7.806 -4.191 -12.01 c -5.28 -19.597 -3.32 -40.523 5.498 -58.902 c 8.818 -18.49 24.11 -33.33 43 -41.519 c 10.778 -4.706 22.317 -7.086 34.02 -7.086 c 29.28 0 57.1 15.39 72.5 40.19 c 2.177 3.598 4.191 7.418 5.879 11.238 c 0.98 2.38 2.01 4.872 2.776 7.363 l -122.26 53.09 c -1.415 -2.159 -2.722 -4.595 -3.701 -6.975 c -1.633 -3.82 -2.831 -7.695 -3.429 -11.792 c -3.701 -22.03 8.219 -43.623 28.686 -52.54 c 6.205 -2.657 12.737 -4.097 19.433 -4.097 c 14.969 0 29.503 7.141 38.702 18.933 l 1.47 1.993 l 0.708 0.886 l 1.089 -0.498 l 17.418 -7.473 l 1.687 -0.72 l -1.089 -1.495 l -2.177 -3.211 c -13.227 -18.767 -34.837 -30 -57.699 -30 c -9.743 0 -19.11 1.993 -28.03 5.813 c -30.591 13.286 -47.792 46.612 -40.988 79.11 c 0.98 4.706 2.395 9.3 4.3 13.618 c 1.796 4.097 4.03 8.08 6.478 11.792 c 13.12 19.15 34.946 30.558 58.24 30.558 c 9.689 0 19.11 -1.993 27.978 -5.757 c 24 -10.408 40.498 -33.824 42.29 -59.899 h 14.915 c -1.796 31.998 -21.828 60.784 -51.33 73.57 c -10.669 4.816 -22.1 7.197 -33.748 7.197" transform="matrix(0.07176 0 0 0.07056 3.606 3.554)" fill="#fff" stroke="#fff"/></g><clipPath id="4"><path d="M 0,0 H24 V24 H0 z"/></clipPath><filter id="5" filterUnits="objectBoundingBox" x="0" y="0" width="24" height="24"><feColorMatrix type="matrix" in="SourceGraphic" values="0 0 0 0 1 0 0 0 0 1 0 0 0 0 1 0 0 0 1 0"/></filter><mask id="8"><g filter="url(#5)"><path fill-opacity="0.451" d="M 0,0 H24 V24 H0 z"/></g></mask><mask id="7"><g filter="url(#5)"><path fill-opacity="0.122" d="M 0,0 H24 V24 H0 z"/></g></mask><mask id="6"><g filter="url(#5)"><path fill-opacity="0.8" d="M 0,0 H24 V24 H0 z"/></g></mask><mask id="9"><g filter="url(#5)"><path fill-opacity="0.122" d="M 0,0 H24 V24 H0 z"/></g></mask></defs><path d="m 23.22 15.297 c 4.48 -12.508 -11.621 -18.59 -17.672 -13.496 c -6.05 5.09 -8.117 13.816 -1.266 18.207 c 6.855 4.391 14.457 7.797 18.938 -4.711" fill="#4f7fcf"/><use xlink:href="#0" mask="url(#9)"/><use xlink:href="#1" mask="url(#7)"/><use xlink:href="#2" mask="url(#8)"/><use xlink:href="#3" mask="url(#6)"/></svg>