<svg xmlns="http://www.w3.org/2000/svg" viewBox="0 0 24 24"><path d="m 2.34 19.05 c -11.996 -18.05 26.26 -29.16 21.2 -5.832 c -2.16 9.637 -15.691 15.488 -21.2 5.832" fill="#b2caea"/><path d="m 177.99 131.6 c 0.077 12.801 -6.467 24.694 -17.16 31.09 c -10.65 6.44 -23.817 6.44 -34.505 0 c -10.689 -6.401 -17.233 -18.293 -17.16 -31.09 c -0.077 -12.801 6.467 -24.694 17.16 -31.09 c 10.689 -6.44 23.856 -6.44 34.505 0 c 10.689 6.401 17.233 18.293 17.16 31.09" transform="matrix(0.10087 0 0 0.09887 -2.325 -0.984)" fill="#fff" stroke="#fff" stroke-width="1.061"/><path d="m 4.129 11.934 v -4.715 h 2.156 c 1.188 0 2.156 0.016 2.156 0.035 c 0 0.02 -0.223 0.242 -0.496 0.5 c -0.773 0.727 -1.387 1.734 -1.668 2.738 c -0.094 0.332 -0.117 0.629 -0.117 1.441 c 0 1.184 0.074 1.535 0.5 2.41 c 0.363 0.742 0.715 1.227 1.293 1.773 c 0.27 0.254 0.488 0.477 0.488 0.496 c 0 0.02 -0.969 0.035 -2.156 0.035 h -2.156 m 7.406 -0.059 c -1.523 -0.184 -2.961 -1.145 -3.68 -2.461 c -0.707 -1.293 -0.73 -3 -0.063 -4.285 c 0.629 -1.203 1.754 -2.086 3.129 -2.453 c 0.684 -0.184 1.789 -0.184 2.477 0 c 1.41 0.375 2.563 1.297 3.164 2.535 c 0.598 1.227 0.598 2.789 0 4.01 c -0.887 1.82 -2.945 2.906 -5.03 2.652 m 0.844 -1.852 c 0.133 -0.105 0.137 -0.117 0.047 -0.449 c -0.09 -0.344 -0.059 -0.465 0.121 -0.465 c 0.09 0 0.152 0.125 0.266 0.527 c 0.063 0.219 0.094 0.254 0.242 0.254 c 0.098 0 0.227 -0.035 0.289 -0.082 c 0.117 -0.082 0.117 -0.223 0 -0.703 c -0.035 -0.141 -0.004 -0.172 0.438 -0.379 c 0.352 -0.168 0.52 -0.289 0.641 -0.465 c 0.191 -0.281 0.254 -0.723 0.145 -1.043 c -0.102 -0.297 -0.402 -0.613 -0.629 -0.66 c -0.242 -0.055 -0.266 -0.102 -0.145 -0.328 c 0.207 -0.402 -0.043 -1.012 -0.504 -1.211 c -0.16 -0.07 -0.402 -0.113 -0.648 -0.113 c -0.258 0 -0.398 -0.027 -0.414 -0.074 c -0.195 -0.688 -0.191 -0.68 -0.406 -0.668 c -0.328 0.016 -0.41 0.137 -0.324 0.465 c 0.094 0.363 0.09 0.438 -0.039 0.484 c -0.137 0.051 -0.238 -0.082 -0.289 -0.383 c -0.051 -0.305 -0.16 -0.387 -0.426 -0.32 c -0.246 0.063 -0.289 0.203 -0.172 0.602 c 0.094 0.316 0.082 0.328 -0.457 0.441 c -0.453 0.098 -0.523 0.168 -0.449 0.461 c 0.059 0.223 0.063 0.223 0.383 0.223 c 0.18 0 0.352 0.027 0.383 0.059 c 0.082 0.082 0.652 2.281 0.625 2.406 c -0.012 0.055 -0.117 0.133 -0.238 0.168 c -0.203 0.066 -0.219 0.09 -0.238 0.344 c -0.027 0.398 0.059 0.445 0.574 0.32 c 0.227 -0.055 0.449 -0.082 0.496 -0.066 c 0.047 0.02 0.102 0.121 0.121 0.234 c 0.066 0.375 0.156 0.527 0.32 0.527 c 0.082 0 0.211 -0.047 0.289 -0.105 m -0.289 -1.801 c -0.02 -0.09 -0.074 -0.297 -0.125 -0.457 c -0.047 -0.16 -0.07 -0.313 -0.055 -0.34 c 0.047 -0.074 0.57 -0.18 0.906 -0.18 c 0.258 0 0.348 0.031 0.477 0.156 c 0.309 0.297 0.066 0.699 -0.535 0.895 c -0.434 0.145 -0.621 0.125 -0.668 -0.074 m -0.484 -1.879 c -0.059 -0.23 -0.094 -0.441 -0.074 -0.469 c 0.051 -0.082 0.711 -0.199 0.863 -0.156 c 0.234 0.07 0.359 0.215 0.359 0.418 c 0 0.223 -0.113 0.336 -0.5 0.504 c -0.48 0.211 -0.527 0.188 -0.648 -0.297 m 4.273 5.555 c 0 -0.02 0.219 -0.242 0.488 -0.496 c 0.578 -0.547 0.93 -1.027 1.293 -1.773 c 0.426 -0.875 0.5 -1.227 0.5 -2.41 c 0 -0.813 -0.027 -1.109 -0.121 -1.441 c -0.277 -1 -0.891 -2.01 -1.668 -2.738 c -0.27 -0.258 -0.492 -0.48 -0.492 -0.5 c 0 -0.02 0.953 -0.035 2.125 -0.035 h 2.121 v 9.43 h -2.121 c -1.172 0 -2.125 -0.016 -2.125 -0.035" fill="#3075ca"/></svg>