<svg xmlns="http://www.w3.org/2000/svg" viewBox="0 0 24 24"><path d="m 5.875 21.06 c -21.254 -19.758 22.613 -32.21 17.777 -5.977 c -2.387 6.922 -10.953 12.32 -17.777 5.977" fill="#ff0"/><path d="m 11.535 19.852 c -1.188 -0.223 -2.535 -0.672 -2.75 -0.918 c -0.094 -0.109 0.031 -0.363 1.168 -2.355 c 0.699 -1.23 1.289 -2.254 1.313 -2.281 c 0.027 -0.023 0.297 0.016 0.602 0.09 c 0.484 0.117 0.613 0.121 0.977 0.039 c 0.855 -0.195 0.664 -0.387 2.105 2.137 c 1.473 2.582 1.43 2.34 0.453 2.734 c -0.957 0.383 -1.672 0.531 -2.727 0.563 c -0.527 0.016 -1.039 0.012 -1.141 -0.008 m 0.258 -6.523 c -0.527 -0.285 -0.773 -0.711 -0.773 -1.34 c 0 -0.887 0.559 -1.457 1.434 -1.457 c 0.875 0 1.434 0.57 1.434 1.461 c 0 0.898 -0.559 1.465 -1.449 1.457 c -0.242 -0.004 -0.52 -0.055 -0.645 -0.121 m -7.07 -1.996 c 0.207 -2.34 1.383 -4.426 3.273 -5.813 c 0.535 -0.391 0.383 -0.555 1.832 2.01 c 0.223 0.391 0.578 1.016 0.793 1.387 c 0.551 0.953 0.547 0.879 0.109 1.352 c -0.402 0.43 -0.574 0.762 -0.656 1.266 l -0.051 0.305 l -5.352 0.039 m 10.223 -0.051 c -0.027 -0.027 -0.051 -0.121 -0.051 -0.211 c 0 -0.371 -0.25 -0.887 -0.641 -1.316 c -0.289 -0.32 -0.391 -0.484 -0.355 -0.578 c 0.027 -0.07 0.223 -0.434 0.438 -0.805 c 0.215 -0.371 0.57 -0.996 0.793 -1.387 c 1.148 -2.031 1.281 -2.246 1.391 -2.246 c 0.066 0 0.266 0.105 0.441 0.234 c 1.891 1.387 3.066 3.473 3.277 5.813 l 0.047 0.547 h -2.645 c -1.457 0 -2.668 -0.023 -2.695 -0.051" fill="#030300"/></svg>