<svg xmlns="http://www.w3.org/2000/svg" viewBox="0 0 24 24"><path d="m 8.098 23.05 c 11.945 4.66 18.07 -8.395 15.03 -16.52 c -2.125 -5.672 -10.594 -8.5 -17.441 -4.473 c -8.637 5.086 -6.801 17.402 2.414 20.996" fill="#ff0"/><path d="m 19.496 12.445 c 0 4.03 -3.258 7.289 -7.281 7.289 c -4.02 0 -7.281 -3.262 -7.281 -7.289 c 0 -4.02 3.262 -7.289 7.281 -7.289 c 4.02 0 7.281 3.266 7.281 7.289" fill-opacity="0.392"/><path d="m 19.496 11.508 c 0 4.03 -3.258 7.289 -7.281 7.289 c -4.02 0 -7.281 -3.262 -7.281 -7.289 c 0 -4.02 3.262 -7.289 7.281 -7.289 c 4.02 0 7.281 3.266 7.281 7.289" fill="#ffd429"/><path d="m 16.1 12.723 c 0 1.57 -1.289 3.402 -3.883 3.402 c -2.594 0 -3.883 -1.832 -3.883 -3.402 c 0 0 1.289 0 3.883 0 c 2.594 0 3.883 0 3.883 0" fill="#333"/><path d="m 8.555 12.723 h 7.32 v 1.457 h -7.32" fill="#fff"/><g fill="#333"><path d="m 12.215 16.367 c -2.68 0 -4.125 -1.875 -4.125 -3.645 v -0.242 h 8.254 v 0.242 c 0 1.77 -1.449 3.645 -4.129 3.645 m -3.629 -3.398 c 0.129 1.453 1.391 2.914 3.629 2.914 c 2.242 0 3.508 -1.461 3.629 -2.914"/><path d="m 10.516 9.688 c 0 0.605 -0.488 1.094 -1.09 1.094 c -0.605 0 -1.094 -0.488 -1.094 -1.094 c 0 -0.605 0.488 -1.094 1.094 -1.094 c 0.602 0 1.09 0.488 1.09 1.094"/><path d="m 16.1 9.688 c 0 0.605 -0.488 1.094 -1.09 1.094 c -0.605 0 -1.094 -0.488 -1.094 -1.094 c 0 -0.605 0.488 -1.094 1.094 -1.094 c 0.602 0 1.09 0.488 1.09 1.094"/></g></svg>