<svg xmlns="http://www.w3.org/2000/svg" viewBox="0 0 24 24"><path d="m 18.17 2.02 c 21.13 17.914 -22.313 35.14 -17.848 7.434 c 0.98 -6.074 12.156 -12.262 17.848 -7.434" fill="#e5e5fa"/><path d="m 8.891 20.2 c -1.418 -0.43 -2.895 -1.988 -3.715 -3.934 c -0.363 -0.855 -0.648 -1.969 -0.785 -3.066 c -0.156 -1.23 -0.152 -1.793 0 -2.695 c 0.246 -1.434 0.645 -2.207 1.586 -3.098 c 0.66 -0.629 1.09 -0.895 1.949 -1.227 c 1.281 -0.492 3.605 -0.797 4.738 -0.625 c 2.715 0.414 5.777 2.426 6.898 4.531 c 0.332 0.621 0.484 1.348 0.422 2 c -0.145 1.578 -0.891 3.02 -1.949 3.777 c -0.523 0.379 -0.785 0.504 -1.395 0.672 c -0.855 0.234 -1.379 -0.07 -1.633 -0.945 c -0.285 -0.988 -0.383 -1.242 -0.551 -1.445 c -0.176 -0.207 -0.18 -0.211 -1 -0.172 c -2.01 0.094 -2.547 0.973 -1.684 2.746 c 0.406 0.844 0.453 1.105 0.305 1.648 c -0.262 0.938 -0.867 1.566 -1.754 1.828 c -0.637 0.184 -0.82 0.184 -1.434 0 m 1.07 -1.543 c 0.957 -0.551 0.664 -1.867 -0.438 -1.984 c -0.754 -0.082 -1.309 0.434 -1.238 1.141 c 0.082 0.793 0.977 1.246 1.676 0.844" fill="#a9a9a9"/><path d="m 6.465 14.855 c -0.203 -0.055 -0.563 -0.391 -0.699 -0.652 c -0.191 -0.379 -0.09 -0.809 0.273 -1.152 c 0.34 -0.32 0.852 -0.426 1.25 -0.254 c 0.223 0.098 0.535 0.406 0.633 0.629 c 0.348 0.777 -0.57 1.676 -1.457 1.43" fill="#efdd1e"/><path d="m 6.547 11.04 c -0.824 -0.391 -0.82 -1.523 0.004 -1.91 c 0.445 -0.211 0.898 -0.141 1.262 0.191 c 0.27 0.246 0.371 0.461 0.371 0.773 c 0 0.777 -0.902 1.297 -1.637 0.945" fill="#1f2dbb"/><path d="m 9.816 8.633 c -0.613 -0.215 -0.93 -0.887 -0.672 -1.422 c 0.113 -0.23 0.469 -0.543 0.707 -0.613 c 0.48 -0.152 1.121 0.109 1.363 0.555 c 0.27 0.488 0.016 1.172 -0.535 1.437 c -0.199 0.098 -0.645 0.121 -0.863 0.043" fill="#f00"/><path d="m 13.461 8.594 c -0.094 -0.031 -0.27 -0.148 -0.391 -0.262 c -0.551 -0.523 -0.398 -1.316 0.313 -1.629 c 0.414 -0.18 0.844 -0.125 1.188 0.152 c 0.254 0.203 0.359 0.473 0.332 0.852 c -0.023 0.352 -0.176 0.602 -0.48 0.793 c -0.227 0.141 -0.668 0.184 -0.961 0.094" fill="#3f6f1e"/><path d="m 16.469 10.77 c -0.258 -0.121 -0.359 -0.227 -0.535 -0.555 c -0.188 -0.352 -0.098 -0.75 0.254 -1.102 c 0.223 -0.223 0.469 -0.328 0.773 -0.328 c 0.469 0 0.836 0.223 1.031 0.617 c 0.453 0.914 -0.555 1.82 -1.523 1.367" fill="#d45f1e"/><path d="m 16.891 14.34 c -0.527 -0.184 -0.918 -0.77 -0.813 -1.215 c 0.063 -0.258 0.148 -0.406 0.344 -0.578 c 0.27 -0.242 0.461 -0.313 0.844 -0.309 c 0.48 0 0.75 0.156 0.973 0.559 c 0.246 0.449 0.184 0.902 -0.172 1.258 c -0.285 0.285 -0.816 0.414 -1.176 0.285" fill="#020000"/></svg>