<svg xmlns="http://www.w3.org/2000/svg" xmlns:xlink="http://www.w3.org/1999/xlink" viewBox="0 0 24 24"><defs><g id="5" clip-path="url(#4)"><path d="m 18.512 12.262 c 0 3.504 -2.824 6.348 -6.301 6.348 c -3.48 0 -6.301 -2.844 -6.301 -6.348 c 0 -3.504 2.82 -6.348 6.301 -6.348 c 3.477 0 6.301 2.844 6.301 6.348"/><path d="m 16.828 12.25 c 0 2.574 -2.074 4.664 -4.633 4.664 c -2.555 0 -4.629 -2.09 -4.629 -4.664 c 0 -2.578 2.074 -4.668 4.629 -4.668 c 2.559 0 4.633 2.09 4.633 4.668"/><path d="m 15.563 12.25 c 0 1.871 -1.508 3.391 -3.367 3.391 c -1.859 0 -3.367 -1.52 -3.367 -3.391 c 0 -1.875 1.508 -3.395 3.367 -3.395 c 1.859 0 3.367 1.52 3.367 3.395"/><path d="m 14.723 12.25 c 0 1.402 -1.133 2.543 -2.527 2.543 c -1.395 0 -2.523 -1.141 -2.523 -2.543 c 0 -1.406 1.129 -2.547 2.523 -2.547 c 1.395 0 2.527 1.141 2.527 2.547"/><path d="m 13.04 10.977 c 0 0.469 -0.379 0.848 -0.844 0.848 c -0.465 0 -0.84 -0.379 -0.84 -0.848 c 0 -0.469 0.375 -0.848 0.84 -0.848 c 0.465 0 0.844 0.379 0.844 0.848"/><path d="m 12.617 13.1 c 0 0.234 -0.188 0.422 -0.422 0.422 c -0.23 0 -0.422 -0.188 -0.422 -0.422 c 0 -0.234 0.191 -0.426 0.422 -0.426 c 0.234 0 0.422 0.191 0.422 0.426"/></g><clipPath id="6"><path d="m 5 5 h 14 v 14 h -14"/></clipPath><clipPath id="D"><path d="m 9 9 h 6 v 6 h -6"/></clipPath><clipPath id="B"><path d="m 8 8 h 8 v 8 h -8"/></clipPath><clipPath id="9"><path d="m 6 6 h 11 v 11 h -11"/></clipPath><clipPath id="7"><path d="m 22.14 11.84 c 0 5.762 -4.637 10.426 -10.352 10.426 c -5.711 0 -10.348 -4.664 -10.348 -10.426 c 0 -5.762 4.637 -10.426 10.348 -10.426 c 5.715 0 10.352 4.664 10.352 10.426"/></clipPath><clipPath id="1"><path d="m 21.457 11.824 c 0 5.391 -4.336 9.754 -9.684 9.754 c -5.344 0 -9.68 -4.363 -9.68 -9.754 c 0 -5.391 4.336 -9.754 9.68 -9.754 c 5.348 0 9.684 4.363 9.684 9.754"/></clipPath><clipPath id="0"><path d="m 2 2 h 20 v 20 h -20"/></clipPath><clipPath id="4"><path d="M 0,0 H24 V24 H0 z"/></clipPath><filter id="2" filterUnits="objectBoundingBox" x="0" y="0" width="24" height="24"><feColorMatrix type="matrix" in="SourceGraphic" values="0 0 0 0 1 0 0 0 0 1 0 0 0 0 1 0 0 0 1 0"/></filter><linearGradient id="C" gradientUnits="userSpaceOnUse" y1="31.467" x2="0" y2="16.533" gradientTransform="matrix(0.45 0 0 0.45335 0.991 0.959)"><stop stop-color="#647c93"/><stop offset="1" stop-color="#7d90a4"/></linearGradient><linearGradient id="A" gradientUnits="userSpaceOnUse" y1="12.8" x2="0" y2="35.2" gradientTransform="matrix(0.45 0 0 0.45335 0.991 0.959)"><stop stop-color="#4b758b"/><stop offset="1" stop-color="#395b6b" stop-opacity="0.957"/></linearGradient><linearGradient id="8" gradientUnits="userSpaceOnUse" y1="38" x2="0" y2="10" gradientTransform="matrix(0.45 0 0 0.45335 0.991 0.959)"><stop stop-color="#434343"/><stop offset="1" stop-color="#5d5d5d"/></linearGradient><mask id="3"><g filter="url(#2)"><path fill-opacity="0.102" d="M 0,0 H24 V24 H0 z"/></g></mask></defs><path d="m 21.527 18.359 c 8.629 -12.273 -7.309 -24.711 -17.473 -14.711 c -9.578 9.426 -0.699 24.07 11.219 19.488 c 2.488 -0.953 4.672 -2.523 6.254 -4.777" fill="#a6a9c6"/><g clip-path="url(#0)"><g clip-path="url(#1)"><use xlink:href="#5" mask="url(#3)"/></g></g><g clip-path="url(#6)"><g clip-path="url(#7)"><path d="m 18.09 11.84 c 0 3.504 -2.82 6.348 -6.301 6.348 c -3.477 0 -6.297 -2.844 -6.297 -6.348 c 0 -3.504 2.82 -6.348 6.297 -6.348 c 3.48 0 6.301 2.844 6.301 6.348" fill="url(#8)"/></g></g><g clip-path="url(#9)"><g clip-path="url(#7)"><path d="m 16.832 11.84 c 0 2.805 -2.262 5.078 -5.04 5.078 c -2.781 0 -5.04 -2.277 -5.04 -5.078 c 0 -2.805 2.258 -5.078 5.04 -5.078 c 2.785 0 5.04 2.277 5.04 5.078" fill="url(#A)"/></g></g><g clip-path="url(#B)"><g clip-path="url(#7)"><path d="m 15.15 11.84 c 0 1.867 -1.508 3.387 -3.363 3.387 c -1.855 0 -3.359 -1.516 -3.359 -3.387 c 0 -1.871 1.504 -3.387 3.359 -3.387 c 1.855 0 3.363 1.516 3.363 3.387" fill="url(#C)"/></g></g><g clip-path="url(#D)"><g clip-path="url(#7)"><path d="m 14.309 11.84 c 0 1.402 -1.129 2.539 -2.52 2.539 c -1.391 0 -2.52 -1.137 -2.52 -2.539 c 0 -1.402 1.129 -2.539 2.52 -2.539 c 1.395 0 2.52 1.137 2.52 2.539" fill="#355362"/></g></g></svg>