<svg xmlns="http://www.w3.org/2000/svg" viewBox="0 0 24 24"><path d="m 0.305 9.254 c 4.688 -22.492 36.926 1.652 17.559 13.09 c -7.523 4.902 -19.969 -1.52 -17.559 -13.09" fill="#e8d6a5"/><path d="m 9.68 20.371 c -0.008 -0.449 -0.016 -1.516 -0.023 -2.375 l -0.008 -1.555 l 0.383 0.27 c 0.215 0.148 0.41 0.305 0.434 0.348 c 0.027 0.039 0.082 0.922 0.117 1.961 c 0.039 1.039 0.094 1.949 0.125 2.027 c 0.051 0.121 -0.004 0.137 -0.48 0.137 c -0.762 0.055 -0.539 -0.117 -0.547 -0.813 m -0.047 -8.969 c -0.398 -0.094 -1.805 -1.293 -2.109 -1.801 c -0.25 -0.414 -0.438 -1.117 -0.438 -1.621 c 0 -0.363 0.027 -0.547 0.266 -1.672 c 0.184 -0.891 0.699 -1.906 1.27 -2.5 c 0.77 -0.801 1.566 -0.988 2.293 -0.539 c 0.777 0.484 1.527 1.59 1.863 2.75 c 0.086 0.301 0.203 0.898 0.258 1.332 c 0.203 1.602 -0.254 2.551 -1.68 3.484 c -0.223 0.148 -0.566 0.535 -0.668 0.641 c -0.195 0.199 -0.516 0.051 -1.055 -0.074" fill="#76b423"/><path d="m 221.88 280.76 c -11.913 -2.897 -34.3 -11.194 -43.38 -16.05 c -8.406 -4.517 -22.913 -21.652 -27.19 -32.01 c -4.515 -11.1 -2.498 -18.706 7.205 -26.807 c 3.17 -2.7 6.917 -6.137 8.262 -7.659 c 1.969 -2.258 3.41 -2.651 7.638 -2.16 c 4.467 0.54 5.236 1.031 5.236 3.633 c 0 5.302 2.738 9.721 7.734 12.372 c 3.795 2.01 8.79 2.897 22.72 3.78 c 39.677 2.651 68.59 5.155 78.49 6.874 c 13.93 2.455 23.25 4.664 23.25 5.499 c 0 0.344 -4.611 0.295 -10.183 -0.196 c -18.397 -1.62 -30.31 2.16 -41.55 13.207 c -8.646 8.543 -13.594 20.13 -16.236 37.902 c -0.672 4.566 -0.913 4.811 -5.236 4.713 c -2.498 -0.049 -10.04 -1.424 -16.764 -3.093 m -21.808 -24.597 c 0.24 -0.786 -4.467 -4.713 -10.52 -8.739 c -13.834 -9.23 -21.18 -17.04 -25.891 -27.494 c -4.03 -8.985 -6.869 -10.261 -8.982 -3.928 c -2.69 7.905 5.86 22.535 18.11 31.13 c 12.729 8.985 25.939 13.305 27.28 9.03" transform="matrix(0.08132 0 0 0.07956 -3.879 -4.03)" fill="#ff7c00" stroke="#ff7c00" stroke-width="2.511"/></svg>