<svg xmlns="http://www.w3.org/2000/svg" viewBox="0 0 24 24"><path d="m 21.02 6.137 c 4.375 6.281 3.781 9.992 -3.801 16.18 c -7.648 6.234 -27.12 -7.879 -10.805 -19.895 c 4.598 -3.438 9.609 -3.703 14.605 3.715" fill="#006a47"/><g fill="#fff"><path d="m 9.852 17.273 c -0.621 -0.457 -0.625 -0.461 -0.602 -0.93 c 0.02 -0.434 -0.008 -0.496 -0.379 -0.813 c -0.219 -0.191 -0.602 -0.492 -0.848 -0.672 c -0.367 -0.27 -0.547 -0.535 -1.043 -1.535 c -0.664 -1.348 -0.711 -1.645 -0.438 -2.809 c 0.309 -1.313 0.352 -1.422 0.547 -1.422 c 0.371 0 0.426 0.227 0.359 1.438 c -0.043 0.711 -0.027 1.258 0.035 1.418 c 0.152 0.383 1.121 1.516 1.297 1.516 c 0.211 0 0.188 -0.16 -0.168 -1.043 c -0.328 -0.816 -0.332 -1.094 -0.012 -1.094 c 0.25 0 0.551 0.332 1.602 1.781 c 1.117 1.531 1.207 1.738 1.129 2.594 c -0.066 0.707 -0.324 1.695 -0.496 1.906 c -0.168 0.207 -0.328 0.152 -0.988 -0.336"/><path d="m 13.11 17.258 c -0.426 -1.176 -0.52 -2.32 -0.23 -2.832 c 0.324 -0.582 1.98 -2.797 2.273 -3.047 c 0.316 -0.262 0.594 -0.242 0.594 0.047 c 0 0.102 -0.137 0.512 -0.305 0.918 c -0.168 0.41 -0.305 0.809 -0.305 0.887 c 0 0.293 0.359 0.066 0.844 -0.531 c 0.789 -0.973 0.797 -0.996 0.672 -2.223 c -0.117 -1.195 -0.043 -1.523 0.344 -1.469 c 0.184 0.027 0.25 0.16 0.402 0.797 c 0.098 0.418 0.207 1.086 0.242 1.48 c 0.066 0.715 0.063 0.727 -0.477 1.816 c -0.469 0.949 -0.629 1.172 -1.203 1.668 c -1.238 1.074 -1.234 1.07 -1.129 1.449 c 0.078 0.27 0.063 0.375 -0.078 0.535 c -0.23 0.262 -1.195 0.879 -1.371 0.879 c -0.074 0 -0.199 -0.168 -0.273 -0.375"/><path d="m 11.809 12.828 c -0.047 -0.07 -0.129 -0.582 -0.184 -1.137 l -0.102 -1.012 l -0.641 -0.371 c -0.352 -0.203 -0.824 -0.547 -1.051 -0.766 c -0.684 -0.664 -1.129 -1.758 -0.891 -2.203 c 0.098 -0.184 0.18 -0.199 0.699 -0.152 c 0.758 0.066 1.223 0.297 1.918 0.941 l 0.566 0.527 l 0.469 -0.484 c 0.609 -0.625 1.172 -0.906 1.973 -0.98 c 0.598 -0.055 0.652 -0.043 0.715 0.16 c 0.156 0.496 -0.297 1.559 -0.93 2.164 c -0.215 0.207 -0.684 0.555 -1.047 0.773 c -0.75 0.453 -0.793 0.539 -0.805 1.656 c -0.008 0.445 -0.063 0.816 -0.133 0.891 c -0.16 0.156 -0.453 0.152 -0.559 -0.008"/><path d="m 10.707 20.492 c -3.063 -1.109 -5.582 -3.348 -7.07 -6.281 c -0.91 -1.789 -0.984 -2.379 -0.469 -3.656 c 0.703 -1.727 1.68 -3.168 3.043 -4.477 c 1.055 -1.012 2.133 -1.75 3.527 -2.406 c 1.355 -0.637 2.027 -0.723 2.98 -0.379 c 3.297 1.195 6.102 3.902 7.469 7.207 c 0.555 1.336 0.484 1.883 -0.496 3.82 c -1.328 2.633 -3.852 4.91 -6.707 6.05 c -0.906 0.363 -1.516 0.395 -2.273 0.121 m 1.527 -0.914 c 0.93 -0.422 2.742 -1.723 3.863 -2.773 c 1.27 -1.187 2.555 -2.863 3.242 -4.227 c 0.34 -0.68 0.336 -0.824 -0.059 -1.531 c -1.449 -2.613 -4.215 -5.383 -6.719 -6.719 c -0.832 -0.445 -1.145 -0.402 -2.273 0.305 c -2.73 1.715 -4.969 4.04 -6.281 6.543 c -0.332 0.629 -0.332 0.742 0.004 1.402 c 1.262 2.492 3.934 5.215 6.625 6.746 c 0.867 0.496 1.016 0.52 1.598 0.254"/></g></svg>