<svg xmlns="http://www.w3.org/2000/svg" viewBox="0 0 24 24"><path d="m 1.75 5.828 c 18.13 -21.12 35.566 22.313 7.523 17.848 c -6.148 -0.98 -12.41 -12.156 -7.523 -17.848" fill="#f4f4f4"/><g transform="matrix(0.09375 0 0 0.09375 0 0.245)"><path d="m 203.12 212.85 c -3.083 -1.875 -14.625 -12.542 -19.04 -17.5 c -2.208 -2.5 -13.375 -16.17 -24.833 -30.417 c -11.5 -14.208 -25.25 -30.959 -30.583 -37.21 c -5.333 -6.25 -9.708 -11.75 -9.708 -12.25 c 0 -2.083 7.04 -6.667 22.583 -14.75 c 9.708 -5 15 -7.083 24.04 -9.417 c 12.625 -3.25 32 -4.917 32 -2.708 c 0 0.5 -1.5 3.958 -3.292 7.667 c -7.167 14.917 -10.875 37.04 -9.25 55.08 c 2.125 23.292 9.08 40.792 21.5 54.21 c 2.25 2.458 4.125 4.917 4.125 5.458 c 0 1.292 -2.5 3.042 -4.25 3.042 c -1.208 -0.208 -2.333 -0.625 -3.292 -1.208 m -47.17 -70.08 c 2.167 -1.042 4.5 -2.5 5.208 -3.292 c 1.25 -1.417 1.25 -1.458 -0.625 -5.375 c -2.125 -4.417 -1.833 -6 1.208 -6.375 c 1.458 -0.167 2.083 0.333 4.04 3.417 c 1.458 2.292 2.917 3.792 3.917 4.04 c 3.167 0.792 10.833 -3.333 10.833 -5.875 c 0 -0.542 -1.042 -3.25 -2.333 -6.083 c -2 -4.375 -2.292 -5.542 -1.917 -8.167 c 0.375 -2.667 0.25 -3.167 -0.958 -3.792 c -3.125 -1.667 -23.375 -9.208 -24.75 -9.208 c -0.958 0 -1.792 0.667 -2.458 1.958 c -2.458 4.75 -9.542 23.292 -9.375 24.5 c 0.083 0.75 1 1.75 2 2.25 c 1.958 0.917 3.75 3.417 6.958 9.792 c 1.333 2.667 2.458 4.083 3.208 4.083 c 0.625 0 2.875 -0.833 5.04 -1.875" fill="#0ba34e" stroke="#0ba34e" stroke-width="0.907"/><g fill="#0471b5" stroke="#0471b5" stroke-width="0.594"><path d="m 71.75 192.97 c -2.083 -0.792 -2.125 -2.083 -0.333 -9.04 c 4.5 -17.542 12.292 -32.917 23.916 -47.38 c 4.958 -6.125 15.542 -16.667 17.292 -17.208 c 0.75 -0.25 1.958 0.125 2.958 0.875 c 0.958 0.708 10.375 11.708 20.958 24.458 c 26.17 31.625 32.21 39.13 32.21 40.17 c 0 0.5 -0.667 1.083 -1.5 1.292 c -2.667 0.792 -43.04 4.25 -64.67 5.583 c -27.416 1.708 -29.333 1.792 -30.875 1.208 m 46.21 -9.208 c 1.083 -0.792 1.125 -1 0.167 -2.833 c -0.542 -1.083 -1.458 -2.333 -2.042 -2.792 c -0.542 -0.5 -1.042 -1.167 -1.042 -1.5 c 0 -0.833 10.292 -15.833 11.792 -17.208 c 1 -0.917 1.625 -0.958 4.208 -0.292 c 3.208 0.792 5 0.167 5 -1.792 c 0 -1.417 -3.958 -8.208 -6.167 -10.583 c -3.958 -4.25 -5.667 -4.875 -15.708 -5.708 c -6.167 -0.542 -9.75 -0.583 -10.667 -0.125 c -2.833 1.25 -14.12 18.17 -14.12 21.08 c 0 0.833 0.917 2.875 2.042 4.5 c 1.125 1.667 2.917 4.875 3.917 7.167 c 1.792 3.917 5.458 7.875 9.583 10.167 c 1.875 1.042 11.583 1 13.04 -0.083"/><path d="m 96.33 165.97 c -1.958 -2 -2.042 -4.167 -0.208 -7.75 c 1.792 -3.625 7.542 -11.375 9.292 -12.625 c 1.917 -1.333 4.583 -1.208 5.917 0.292 c 1.417 1.542 1.083 2.333 -5.667 13.333 c -5.583 9.04 -6.417 9.667 -9.333 6.75"/></g></g><g fill="#0471b5" stroke="#0471b5" transform="matrix(0.07823 0 0 0.07826 1.29 1.803)"><path d="m 105.84 189.89 c -0.749 -1.447 -0.749 -2.545 0 -3.943 c 1.298 -2.446 2.996 -2.446 5.842 -0.05 c 4.993 4.193 -3.945 7.187 -5.842 3.993" stroke-width="0.872"/><path d="m 124.76 161.89 c -1.548 -1.747 -0.949 -5.141 1.099 -6.339 c 1.897 -1.148 5.642 1.447 5.642 3.943 c 0 3.344 -4.544 4.941 -6.741 2.396" stroke-width="0.855"/></g><g transform="scale(0.09375)"><path d="m 107.5 103.21 c -2.75 -3.375 -8.5 -10.458 -12.708 -15.75 c -4.208 -5.333 -12.292 -15.12 -17.917 -21.792 c -10.417 -12.417 -13.5 -15.08 -12.875 -15.792 c 0.208 -0.208 7.917 0.458 12.875 1.917 c 22.04 5.208 39.458 9.04 58.46 13.292 c 8.958 2 22.08 6.792 29.542 8.25 c 13.167 2.583 26.917 5.292 26.917 6.25 c 0 0.833 -13.333 2.042 -20.25 2.917 c -15.75 2 -34.583 9.958 -53.42 22.667 c -2.333 1.583 -4.417 3.375 -4.833 3.667 c -0.458 0.292 -2.75 -1.875 -5.792 -5.625 m 9.75 -5.75 c 1.375 -2.75 3.875 -4.792 5.292 -6.917 c 1.167 -1.792 8.917 -3.458 10.417 -4.375 c 3.292 -2.042 -2.375 -4 -5.958 -6 c -2.542 -1.458 -2.625 -1.458 -3.542 -0.125 c -0.5 0.75 -0.917 2.125 -0.917 3 c -1.833 5.792 -3.667 7.333 -8.292 8.583 c -1.667 0 -4.04 2.5 -4.25 2.917 c -0.625 1.083 2.833 6.625 4.125 6.625 c 0.542 0 1.958 -1.667 3.125 -3.708 m -6.583 -8.833 c 1.333 -2.417 4.083 -6.083 6.125 -8.125 c 2.042 -2.042 3.708 -4.167 3.708 -4.75 c -3.125 -4.958 -8.542 -6.75 -13.375 -10.292 c -7.333 -5.417 -8 -5.417 -11.917 0.083 c -4.833 6.875 -5.083 7.667 -2.958 10.875 c 3.417 5.292 13.458 16.583 14.708 16.583 c 0.792 0 2.125 -1.542 3.708 -4.375" fill="#f9bc27" stroke="#f9bc27" stroke-width="0.643"/><g fill="#ea2536" stroke="#ea2536"><path d="m 62.958 161.38 c -0.5 -22.75 -1.833 -54.46 -3.667 -86.12 c -0.667 -11.667 -0.25 -20.958 0.208 -21.375 c 0.958 -0.958 4.125 5.625 24.875 29.667 c 18.375 21.292 25.417 29.708 25.417 30.333 c 0 0.208 -3.792 4.375 -8.458 9.25 c -16.875 17.75 -26.542 32.583 -32.17 49.46 c -2.583 7.75 -4.083 10.875 -5.167 10.875 c -0.292 0 -0.792 -9.917 -1.042 -22.08 m 23.917 -32.417 c 8.625 -4.083 8.875 -5.25 3.833 -20.333 c -4.333 -13.12 -5.458 -15.5 -9.625 -20.333 c -3.75 -4.375 -4.292 -8.125 -7.75 -6.875 c -2.583 0.958 1.083 8.5 -5.333 11.04 c -5.583 2.208 -5.125 3.125 -4.958 5.958 c 0.25 3.583 3.75 17.25 5.833 22.75 c 1 2.625 2.708 5.292 4.583 7.125 c 3.833 3.792 6.458 3.917 13.417 0.667" stroke-width="0.636"/><path d="m 71.875 110.67 c -1.583 -1.833 -3.042 -5.083 -3.5 -7.792 c -0.458 -3 0.25 -3.792 5.583 -6.458 c 3.25 -1.625 3.708 -1.708 5.208 -0.875 c 3.458 1.958 6.292 9.75 4.5 12.417 c -0.917 1.375 -6.917 3.833 -9.375 3.833 c -0.792 0 -1.875 -0.5 -2.417 -1.125" stroke-width="0.593"/></g></g></svg>