<svg xmlns="http://www.w3.org/2000/svg" viewBox="0 0 24 24"><path d="m 22.898 17.676 c -4.727 11.336 -23.02 6.281 -22.898 -6.07 c -0.184 -11.223 14.359 -15.48 20.734 -7.484 c 3.191 3.457 4.305 9.184 2.16 13.555" fill="#e43545"/><g fill="#fff" stroke="#fff" stroke-width="1.994" transform="scale(0.09375)"><path d="m 130.17 164.67 v -29.29 h 11.917 v 21.708 h 19.542 v -21.708 h 11.917 v 58.58 h -11.917 v -26.04 h -19.542 v 26.04 h -11.917"/><path d="m 47.17 192.58 c 0.25 -0.75 5.875 -19.17 12.5 -40.917 c 6.625 -21.792 12.542 -41.21 13.167 -43.17 l 1.125 -3.583 l 10.917 0.333 l 10.917 0.292 l 12.792 41.75 c 7 23 13.04 42.917 13.417 44.25 c 0.625 2.458 0.542 2.5 -8.333 2.167 l -8.958 -0.292 l -2.167 -7.917 l -2.167 -7.875 l -31.33 0.583 l -2.167 7.875 l -2.125 7.875 h -9 c -6.75 0 -8.917 -0.333 -8.583 -1.375 m 47.875 -33.08 c -0.292 -1.042 -2.625 -9.08 -5.125 -17.875 c -2.5 -8.792 -4.833 -16 -5.208 -16 c -0.375 0 -2 4.75 -3.625 10.583 c -1.625 5.792 -3.917 13.833 -5.04 17.875 l -2.125 7.333 h 10.833 c 9.833 0 10.792 -0.167 10.292 -1.917"/></g></svg>