<svg xmlns="http://www.w3.org/2000/svg" viewBox="0 0 24 24"><path d="m 22.25 5.828 c -18.13 -21.12 -35.566 22.313 -7.523 17.848 c 6.148 -0.98 12.41 -12.156 7.523 -17.848" fill="#ffdeac"/><path d="m 10.934 4.07 c 1.504 -0.125 3.035 0.141 4.402 0.758 c 1.355 0.617 2.543 1.582 3.402 2.77 c 1.391 1.887 1.891 4.355 1.363 6.613 c -0.332 1.488 -1.102 2.875 -2.188 3.973 c -1.164 1.184 -2.695 2.027 -4.348 2.383 c -2.195 0.484 -4.582 0.098 -6.484 -1.07 c -1.168 -0.711 -2.156 -1.691 -2.855 -2.844 c -0.805 -1.309 -1.219 -2.84 -1.195 -4.363 c 0.02 -1.668 0.57 -3.332 1.57 -4.695 c 0.902 -1.246 2.16 -2.242 3.598 -2.855 c 0.867 -0.363 1.793 -0.594 2.734 -0.668" fill="#f37521"/><g fill="#3d5a97"><path d="m 14.461 6.367 c 0.516 -0.074 1.055 0.242 1.23 0.715 c 0.141 0.383 0.066 0.844 -0.227 1.145 c -0.379 0.434 -1.109 0.492 -1.566 0.141 c -0.48 -0.34 -0.59 -1.063 -0.246 -1.527 c 0.188 -0.258 0.488 -0.434 0.809 -0.473"/><path d="m 9.441 8.06 c 1.09 -0.535 2.391 -0.652 3.566 -0.332 c 0.09 0.488 0.414 0.934 0.879 1.152 c 0.402 0.199 0.879 0.203 1.301 0.066 c 0.867 0.828 1.414 1.969 1.484 3.145 c -0.555 0.016 -1.105 0.023 -1.656 0.027 c -0.063 -0.762 -0.422 -1.492 -0.98 -2.027 c -0.797 -0.773 -2.01 -1.117 -3.113 -0.863 c -0.23 0.047 -0.449 0.141 -0.672 0.219 c -0.285 -0.453 -0.535 -0.926 -0.809 -1.387"/><path d="m 8.813 8.414 c 0.02 -0.012 0.055 -0.031 0.074 -0.039 c 0.293 0.449 0.574 0.902 0.844 1.367 c -0.684 0.461 -1.176 1.184 -1.352 1.973 c -0.301 1.246 0.266 2.629 1.352 3.355 c -0.266 0.465 -0.563 0.918 -0.844 1.375 c -1.02 -0.648 -1.773 -1.676 -2.074 -2.824 c 0.367 -0.297 0.598 -0.75 0.594 -1.219 c 0.004 -0.465 -0.227 -0.918 -0.594 -1.215 c 0.293 -1.117 1.02 -2.121 2 -2.773"/></g><path d="m 11.176 10.25 c 0.527 -0.332 1.262 -0.234 1.867 -0.113 c -0.016 0.16 -0.027 0.32 -0.059 0.477 c -0.004 0.086 -0.125 0.148 -0.227 0.121 c -0.293 -0.02 -0.613 -0.102 -0.895 0.008 c -0.184 0.227 -0.066 0.523 -0.098 0.777 c 0.348 0 0.695 0 1.039 0 c 0.031 0.027 0.086 0.078 0.117 0.102 c -0.023 0.188 -0.047 0.379 -0.074 0.566 c -0.359 -0.004 -0.723 -0.004 -1.082 -0.004 c -0.004 0.848 0 1.691 0 2.539 c 0.004 0.074 -0.012 0.176 -0.125 0.195 c -0.227 0.02 -0.457 0.02 -0.688 0 c -0.117 -0.016 -0.133 -0.121 -0.129 -0.199 c 0 -0.844 0.008 -1.691 -0.004 -2.535 c -0.234 -0.008 -0.5 0.043 -0.711 -0.066 c 0.008 -0.172 0.008 -0.348 0 -0.52 c 0.199 -0.133 0.477 -0.063 0.715 -0.078 c 0.016 -0.426 -0.098 -0.949 0.352 -1.27" fill="#fffdfc"/><g fill="#3d5a97"><path d="m 5.539 11.313 c 0.348 -0.074 0.727 0.012 0.996 0.234 c 0.453 0.352 0.551 1.043 0.207 1.5 c -0.324 0.473 -1.039 0.621 -1.539 0.32 c -0.445 -0.242 -0.672 -0.793 -0.523 -1.266 c 0.105 -0.391 0.453 -0.703 0.859 -0.789"/><path d="m 15.02 12.691 c 0.551 0.004 1.102 0.016 1.656 0.027 c -0.074 1.18 -0.617 2.32 -1.484 3.145 c -0.422 -0.137 -0.902 -0.133 -1.301 0.07 c -0.465 0.219 -0.789 0.664 -0.879 1.152 c -1.176 0.316 -2.477 0.203 -3.566 -0.332 c 0.27 -0.465 0.531 -0.934 0.809 -1.395 c 0.434 0.191 0.902 0.297 1.379 0.313 c 0.777 -0.004 1.559 -0.262 2.164 -0.738 c 0.695 -0.547 1.152 -1.375 1.223 -2.242"/><path d="m 14.332 16.242 c 0.492 -0.121 1.047 0.109 1.285 0.547 c 0.211 0.371 0.188 0.863 -0.078 1.203 c -0.258 0.352 -0.742 0.535 -1.18 0.434 c -0.438 -0.086 -0.809 -0.445 -0.891 -0.875 c -0.02 -0.152 -0.02 -0.309 0.004 -0.457 c 0.09 -0.414 0.438 -0.754 0.859 -0.852"/></g></svg>