<svg xmlns="http://www.w3.org/2000/svg" viewBox="0 0 24 24"><path d="m 22.898 17.676 c -4.727 11.336 -23.02 6.281 -22.898 -6.07 c -0.184 -11.223 14.359 -15.48 20.734 -7.484 c 3.191 3.457 4.305 9.184 2.16 13.555" fill="#007f7f" fill-opacity="0.996"/><path d="m 19.508 12.184 c 0 -3.988 -3.32 -7.223 -7.418 -7.223 c -4.098 0 -7.422 3.234 -7.422 7.223 c 0 3.988 3.324 7.219 7.422 7.219 c 4.098 0 7.418 -3.23 7.418 -7.219" fill="#00bebe"/><g fill="#fff" stroke="#fff" stroke-width="1.431" transform="matrix(0.09375 0 0 0.09193 0 0.376)"><path d="m 146.13 159.67 c -1.708 -0.51 -3.25 -0.892 -3.458 -0.935 c -0.208 0 -2.042 -1.105 -4.083 -2.464 c -4.542 -3.02 -8.08 -8.07 -10 -14.235 c -1.792 -5.779 -1.917 -18.271 -0.25 -23.838 c 2.625 -8.541 6.792 -13.725 13.667 -16.954 c 7.625 -3.569 19.833 -2.889 27.458 1.445 l 3.167 1.827 v 3.612 c 0 3.697 -0.458 4.377 -1.792 2.762 c -1.167 -1.36 -5.5 -3.697 -9.08 -4.886 c -2.333 -0.765 -4.667 -0.977 -8.5 -0.807 c -12.458 0.467 -18.208 7.224 -18.875 22.14 c -0.625 13.555 2.917 21.883 10.792 25.537 c 4.083 1.912 14.958 1.87 19.08 -0.042 l 2.875 -1.36 v -16.529 h -12.167 v -6.076 h 18.875 v 25.282 l -2.875 1.785 c -4.917 2.974 -9.08 4.122 -15.708 4.377 c -4.167 0.17 -7.083 -0.042 -9.125 -0.637"/><path d="m 87.29 129.45 v -29.871 h 30.458 v 6.714 h -23.75 v 18.271 h 21.333 v 6.119 h -21.333 v 28.639 h -6.708"/></g></svg>