<svg xmlns="http://www.w3.org/2000/svg" viewBox="0 0 24 24"><path d="m 18.563 3.84 c 6.75 8.785 6.973 16.551 0.664 18.734 c -8.703 3.01 -22.17 1.559 -18.523 -10.871 c 3.625 -10.27 11.906 -15.605 17.859 -7.863" fill="#fff"/><path d="m 5.508 18.395 c 0 -0.242 0.059 -0.473 0.133 -0.512 c 0.246 -0.68 0.746 -1.41 0.781 -2.195 c 0 -0.227 0.078 -0.266 0.512 -0.266 c 0.633 0 0.77 -0.184 0.41 -0.555 c -0.184 -0.316 -0.277 -0.41 -0.395 -0.766 c -0.648 -1.023 -1.07 -3.602 0 -4.977 c 0.316 -0.574 1.5 -1.914 2.027 -2.023 c 1.363 -1.168 4.219 -0.895 5.188 -0.371 c 0.215 0.133 0.707 0.449 0.852 0.516 c 0.309 0.137 1.684 1.562 1.914 1.965 c 0.152 0.266 0.262 0.348 0.371 0.801 c 0.246 0.711 0.27 2.684 -0.07 3.508 c -0.371 0.742 -0.602 1.121 -0.836 1.375 c -0.234 0.246 -0.246 0.305 -0.082 0.406 c 0.105 0.066 0.324 0.117 0.484 0.121 c 0.215 0 0.297 0.074 0.297 0.285 c 0.008 0.328 0.359 1.352 0.684 1.973 c 0.125 0.234 0.227 0.59 0.227 0.789 v 0.359 h -12.496 m 10.875 -1.047 c 0.035 -0.09 -0.074 -0.414 -0.242 -0.727 l -0.305 -0.563 h -8.156 l -0.309 0.563 c -0.168 0.313 -0.277 0.637 -0.242 0.727 c 0.094 0.238 9.16 0.238 9.254 0 m -2.715 -2.527 c -0.219 -0.602 -0.719 -1.328 -1.047 -1.844 c -0.164 -0.246 -0.402 -0.602 -0.523 -0.793 c -0.25 -0.402 -0.473 -0.453 -0.473 -0.109 c -0.039 0.18 -0.566 1.01 -0.598 1.035 c -0.172 0.137 -0.422 0.574 -0.938 1.652 c -0.066 0.137 0.977 0.203 2.309 0.145 c 0.68 -0.027 1.25 -0.066 1.27 -0.086 m -5.687 -3.551 c 0.051 -0.805 0.133 -3.285 -0.258 -2.77 c 0 0.102 -0.148 0.414 -0.324 0.688 c -0.355 0.918 -0.629 2.512 -0.152 3.895 c 0.094 0.074 0.25 0.367 0.344 0.645 c 0.098 0.277 0.223 0.504 0.281 0.504 c 0.063 0 0.109 -1.332 0.109 -2.961 m 8.25 2.488 c 0.133 -0.258 0.293 -0.57 0.355 -0.691 c 0.383 -1.184 0.383 -2.148 0.035 -3.371 c -0.18 -0.602 -0.402 -1.012 -0.641 -1.012 c -0.16 0 -0.191 0.422 -0.191 2.773 c 0 1.527 0.047 2.773 0.102 2.773 c 0.055 0 0.207 -0.211 0.34 -0.473 m -5.855 -3.191 c 0.742 -0.543 0.766 -1.066 1.074 -1.922 c 0.164 -0.242 0.195 -0.66 0.145 -1.293 c -0.074 -0.898 0.027 -0.75 -0.387 -0.832 c -0.117 -0.023 -0.348 0.148 -0.586 0.148 c -0.461 0 -0.914 0.223 -1.5 0.738 c -0.285 0.25 -0.359 0.43 -0.359 0.852 c -0.094 0.387 0.121 0.438 0.262 0.977 c 0.18 0.484 0.656 1.594 0.91 1.594 c 0.051 0 0.25 -0.117 0.441 -0.262 m 3.75 -0.203 c 0.523 -0.496 0.656 -1.121 0.973 -1.816 c 0.285 -0.363 0.082 -0.789 -0.262 -1.105 c -0.461 -0.414 -1.262 -0.773 -1.734 -0.773 c -0.23 0 -0.418 -0.109 -0.5 -0.125 c -0.574 -0.133 -0.305 1.605 -0.195 2.078 c 0.129 0.496 0.168 0.512 0.324 0.945 c 0.32 0.305 0.504 1.055 0.961 1.137 c 0.039 0 0.23 -0.152 0.434 -0.34" fill="#df1b26"/></svg>