<svg xmlns="http://www.w3.org/2000/svg" viewBox="0 0 24 24"><g fill="#ff0"><path d="m 12.609 9.555 c 0 0.035 0 0.074 0 0.109 l 0.254 -0.109"/><path d="m 18.301 5.738 c 0 0.004 0 0.004 0 0.008 l 0.613 -0.008"/></g><path d="m 22.691 17.05 c -6.496 13.301 -25.77 5.891 -22.09 -7.598 c 3.469 -12.711 21.08 -12.352 23.13 -0.027 c 0.43 2.57 0.152 5.184 -1.039 7.625" fill="#2f4e4e"/><path d="m 7.207 18.04 c 0.223 -0.07 2.102 -1.402 4.184 -2.961 c 3.734 -2.801 3.785 -2.832 4.426 -2.828 c 1.563 0.004 2.746 -0.797 3.25 -2.199 c 0.16 -0.445 0.16 -1.34 0 -1.363 c -0.059 -0.008 -0.59 0.336 -1.18 0.758 c -0.59 0.426 -1.148 0.762 -1.238 0.75 c -0.414 -0.059 -1.32 -1.273 -1.266 -1.688 c 0.02 -0.121 0.527 -0.633 1.129 -1.141 c 1.035 -0.867 1.082 -0.926 0.816 -1.047 c -1.01 -0.449 -2.367 -0.215 -3.238 0.559 c -0.637 0.566 -0.938 1.094 -1.039 1.832 l -0.082 0.594 l -7.773 5.945 l -0.16 0.672 c -0.129 0.559 -0.117 0.75 0.078 1.148 c 0.402 0.84 1.25 1.23 2.094 0.969 m -1.016 -0.867 c -0.695 -0.391 -0.555 -1.422 0.227 -1.633 c 0.395 -0.109 0.496 -0.094 0.789 0.117 c 0.727 0.527 0.277 1.727 -0.629 1.688 c -0.051 0 -0.223 -0.078 -0.387 -0.172" fill="#fff"/></svg>