<svg xmlns="http://www.w3.org/2000/svg" viewBox="0 0 24 24"><path d="m 10.973 23.773 c 14.402 1.363 18.281 -21.625 3.492 -23.41 c -13.598 -2.215 -20.602 18.625 -7.09 22.793 c 1.141 0.457 2.391 0.445 3.598 0.617" fill="#9370db"/><g fill="#d2d2d2"><path d="m 5.559 18.43 c -0.18 -0.031 -0.211 -0.063 -0.238 -0.234 c -0.043 -0.273 0.031 -5.176 0.082 -5.223 c 0.066 -0.066 3.668 -0.035 3.848 0.031 c 0.09 0.035 0.188 0.129 0.219 0.211 c 0.031 0.078 0.059 0.652 0.059 1.273 c 0 1.352 0 1.348 -0.578 1.426 c -0.207 0.027 -0.398 0.074 -0.426 0.102 c -0.027 0.027 0.219 0.52 0.563 1.129 c 0.336 0.594 0.613 1.117 0.613 1.168 c 0.004 0.113 -0.582 0.188 -1.016 0.129 c -0.258 -0.035 -0.293 -0.059 -0.469 -0.328 c -0.105 -0.16 -0.422 -0.711 -0.703 -1.23 c -0.375 -0.68 -0.523 -1.012 -0.543 -1.203 c -0.016 -0.148 0 -0.277 0.035 -0.301 c 0.035 -0.02 0.313 -0.051 0.617 -0.07 l 0.551 -0.035 l 0.039 -0.559 c 0.055 -0.707 0.008 -0.996 -0.164 -1.043 c -0.207 -0.055 -1.07 -0.039 -1.23 0.02 l -0.152 0.059 v 2.305 c 0 1.266 -0.02 2.316 -0.043 2.332 c -0.086 0.051 -0.859 0.082 -1.063 0.043"/><path d="m 11.48 18.422 l -0.289 -0.031 l -0.047 -0.766 c -0.047 -0.727 -0.012 -4.602 0.039 -4.652 c 0.035 -0.039 1.188 -0.051 1.227 -0.016 c 0.039 0.039 0.074 5.387 0.035 5.422 c -0.055 0.047 -0.668 0.074 -0.965 0.043"/><path d="m 14.176 18.242 c -0.055 -0.27 -0.043 -5.164 0.012 -5.25 c 0.039 -0.059 0.453 -0.07 1.984 -0.055 c 1.922 0.016 1.934 0.016 2.066 0.145 c 0.129 0.125 0.133 0.176 0.152 1.234 c 0.012 0.676 -0.008 1.164 -0.043 1.258 c -0.086 0.223 -0.34 0.309 -1.055 0.352 c -0.34 0.023 -0.766 0.066 -0.953 0.098 c -0.445 0.074 -0.52 0.02 -0.496 -0.371 c 0.02 -0.344 0.063 -0.367 0.762 -0.375 l 0.453 -0.008 v -0.73 c 0 -0.5 -0.023 -0.766 -0.074 -0.832 c -0.063 -0.086 -0.164 -0.098 -0.742 -0.086 l -0.672 0.02 l -0.039 0.172 c -0.02 0.094 -0.039 1.168 -0.043 2.391 l -0.008 2.215 h -1.27"/></g><path d="m 5.395 18.18 c -0.059 -0.035 -0.063 -0.316 -0.023 -1.645 c 0.023 -0.883 0.055 -1.609 0.07 -1.621 c 0.012 -0.012 0.25 -0.012 0.527 0 l 0.504 0.02 l 0.035 0.746 c 0.016 0.41 0.027 1.145 0.016 1.633 l -0.016 0.883 l -0.52 0.016 c -0.289 0.004 -0.555 -0.008 -0.594 -0.031 m 2.996 -0.031 c -0.043 -0.039 -0.234 -0.355 -0.426 -0.699 c -0.195 -0.348 -0.48 -0.855 -0.633 -1.133 c -0.238 -0.422 -0.281 -0.539 -0.27 -0.715 l 0.02 -0.211 l 1.195 -0.047 l 0.055 -0.164 c 0.031 -0.086 0.07 -0.148 0.082 -0.133 c 0.016 0.016 0.238 0.043 0.492 0.063 c 0.434 0.035 0.465 0.043 0.48 0.152 c 0.031 0.184 -0.035 0.344 -0.16 0.41 c -0.063 0.031 -0.293 0.07 -0.508 0.086 c -0.352 0.023 -0.391 0.039 -0.406 0.137 c -0.008 0.063 0.027 0.172 0.082 0.246 c 0.273 0.379 1.215 1.988 1.188 2.031 c -0.055 0.082 -1.102 0.063 -1.191 -0.023 m 2.793 -0.008 c -0.043 -0.109 0.027 -3.309 0.074 -3.379 c 0.027 -0.039 0.219 -0.059 0.543 -0.059 h 0.5 l 0.031 0.469 c 0.051 0.766 0.063 2.922 0.016 2.988 c -0.027 0.043 -0.207 0.063 -0.586 0.063 c -0.457 0 -0.551 -0.016 -0.578 -0.082 m 3.059 0.035 c -0.063 -0.035 -0.066 -0.285 -0.039 -1.594 c 0.02 -0.852 0.047 -1.578 0.063 -1.617 c 0.02 -0.051 0.145 -0.063 0.535 -0.047 c 0.277 0.008 0.512 0.023 0.52 0.031 c 0.008 0.008 0.02 0.738 0.027 1.629 l 0.012 1.617 l -0.523 0.016 c -0.285 0.004 -0.551 -0.008 -0.594 -0.035 m 1.684 -2.336 c -0.016 -0.039 -0.02 -0.152 -0.012 -0.258 l 0.016 -0.191 l 1.195 -0.047 l 0.047 -0.156 c 0.047 -0.148 0.051 -0.152 0.262 -0.105 c 0.117 0.023 0.34 0.039 0.488 0.031 c 0.297 -0.02 0.324 0.008 0.324 0.258 c 0 0.316 -0.172 0.371 -1.324 0.406 c -0.375 0.012 -0.742 0.047 -0.824 0.078 c -0.113 0.039 -0.148 0.039 -0.172 -0.016" fill="#1e1e1e"/><g fill="#d40303"><path d="m 5.535 12.406 c -0.094 -0.02 -0.109 -0.047 -0.137 -0.199 c -0.02 -0.102 -0.02 -0.242 0 -0.328 l 0.031 -0.152 l 0.449 -0.027 c 0.629 -0.035 1.672 0.004 1.723 0.07 c 0.047 0.055 0.035 0.57 -0.016 0.621 c -0.035 0.035 -1.898 0.051 -2.051 0.016"/><path d="m 5.813 11.512 c -0.355 -0.035 -0.465 -0.176 -0.402 -0.516 c 0.031 -0.152 0.078 -0.188 0.328 -0.227 c 0.16 -0.023 0.629 -0.031 1.035 -0.016 c 0.793 0.027 0.867 0.059 0.867 0.395 c 0 0.094 -0.023 0.207 -0.051 0.25 c -0.055 0.086 -1.238 0.16 -1.777 0.113"/><path d="m 5.43 10.242 c 0 -0.211 0.035 -0.313 0.109 -0.344 c 0.172 -0.066 1.746 -0.047 1.934 0.027 c 0.152 0.059 0.176 0.102 0.156 0.324 l -0.02 0.254 l -1.09 0.02 l -1.09 0.016"/></g><g fill="#f00"><path d="m 5.445 9.332 l 0.02 -0.324 l 1.051 -0.016 l 1.047 -0.02 l 0.043 0.203 c 0.027 0.113 0.027 0.266 0.004 0.34 c -0.043 0.133 -0.098 0.141 -1.113 0.141 h -1.07"/><path d="m 5.477 8.727 c -0.023 -0.023 -0.047 -0.172 -0.047 -0.328 v -0.285 l 0.559 -0.039 c 0.305 -0.023 0.785 -0.023 1.063 -0.004 c 0.5 0.039 0.512 0.043 0.551 0.242 c 0.02 0.109 0.008 0.258 -0.031 0.328 c -0.063 0.121 -0.148 0.133 -1.059 0.133 c -0.547 0 -1.012 -0.023 -1.035 -0.047"/></g><g fill="#ffd600"><path d="m 8.109 12.03 v -0.34 h 2.129 l 0.047 0.68 h -2.176"/><path d="m 8.195 11.445 c -0.051 -0.023 -0.086 -0.16 -0.086 -0.336 v -0.301 h 2.145 v 0.68 l -0.988 -0.004 c -0.543 -0.004 -1.027 -0.023 -1.07 -0.039"/><path d="m 8.109 10.23 v -0.305 h 2.145 v 0.613 h -2.145"/></g><g fill="#aa0861"><path d="m 10.938 12.391 c -0.125 -0.023 -0.148 -0.07 -0.148 -0.32 c 0 -0.207 0.031 -0.309 0.105 -0.336 c 0.059 -0.023 0.523 -0.043 1.031 -0.043 c 1.023 0 1.098 0.031 1.059 0.418 c -0.016 0.172 -0.059 0.234 -0.188 0.27 c -0.18 0.051 -1.613 0.063 -1.859 0.012"/><path d="m 10.867 11.43 c -0.055 -0.035 -0.078 -0.156 -0.066 -0.32 l 0.02 -0.266 l 0.938 -0.02 c 1.188 -0.023 1.242 -0.012 1.242 0.289 c 0 0.164 -0.043 0.258 -0.133 0.305 c -0.152 0.082 -1.871 0.094 -2 0.012"/><path d="m 11.07 10.559 c -0.258 -0.027 -0.285 -0.047 -0.285 -0.211 c 0 -0.102 0.02 -0.254 0.043 -0.34 c 0.039 -0.152 0.047 -0.152 1.051 -0.133 l 1.01 0.016 l 0.055 0.27 c 0.031 0.148 0.031 0.293 -0.004 0.328 c -0.066 0.066 -1.426 0.121 -1.867 0.07"/><path d="m 10.832 9.609 c -0.055 -0.055 -0.059 -0.383 -0.004 -0.527 c 0.035 -0.09 0.195 -0.105 1.074 -0.105 h 1.027 v 0.68 h -1.023 c -0.566 0 -1.047 -0.023 -1.074 -0.047"/></g><g fill="#cf80ab"><path d="m 10.906 8.699 c -0.117 -0.07 -0.152 -0.297 -0.078 -0.5 c 0.035 -0.09 0.195 -0.105 1.074 -0.105 h 1.027 v 0.297 c 0 0.211 -0.031 0.313 -0.105 0.34 c -0.176 0.07 -1.793 0.043 -1.918 -0.031"/><path d="m 10.906 7.715 c -0.117 -0.07 -0.152 -0.297 -0.078 -0.496 c 0.035 -0.094 0.195 -0.109 1.074 -0.109 h 1.027 v 0.301 c 0 0.207 -0.031 0.309 -0.105 0.336 c -0.176 0.07 -1.793 0.043 -1.918 -0.031"/></g><g fill="#7dab05"><path d="m 13.461 12.332 c -0.027 -0.043 -0.023 -0.207 0.004 -0.363 l 0.055 -0.277 l 1.027 0.023 l 1.023 0.027 v 0.625 l -1.031 0.023 c -0.566 0.016 -1.051 -0.012 -1.078 -0.059"/><path d="m 13.41 11.27 c 0.004 -0.355 0.145 -0.422 0.969 -0.453 c 1.063 -0.043 1.234 0.004 1.234 0.344 v 0.266 h -1.102 c -0.992 0 -1.102 -0.016 -1.102 -0.156"/><path d="m 13.5 10.219 v -0.313 h 2.113 v 0.629 h -2.113"/></g><g fill="#acff2f"><path d="m 13.5 9.328 v -0.316 h 2.113 v 0.629 h -2.113"/><path d="m 13.5 8.441 v -0.301 l 0.539 -0.039 c 0.297 -0.023 0.75 -0.023 1.012 0 c 0.41 0.035 0.484 0.07 0.527 0.246 c 0.027 0.113 0.027 0.25 -0.004 0.305 c -0.035 0.055 -0.453 0.094 -1.066 0.094 h -1.01"/></g><g fill="#0da1c7"><path d="m 16.203 12.352 c -0.035 -0.031 -0.059 -0.195 -0.059 -0.359 v -0.297 h 2 l 0.055 0.277 c 0.031 0.152 0.031 0.313 0.004 0.359 c -0.055 0.09 -1.918 0.109 -2 0.02"/><path d="m 16.14 11.11 v -0.313 h 1 c 0.969 0 1.01 0.008 1.059 0.203 c 0.113 0.422 0.113 0.422 -1 0.422 h -1.055"/><path d="m 16.14 10.219 v -0.313 h 1 c 1 0 1 0 1.059 0.23 c 0.031 0.125 0.035 0.266 0.004 0.313 c -0.027 0.047 -0.504 0.086 -1.059 0.086 h -1.01"/></g><g fill="#86cefa"><path d="m 16.09 9.34 v -0.313 h 1 c 1 0 1 0 1.059 0.227 c 0.031 0.125 0.035 0.266 0.004 0.313 c -0.027 0.047 -0.504 0.086 -1.059 0.086 h -1.01"/><path d="m 16.09 8.461 v -0.316 h 1 c 1 0 1 0.004 1.059 0.23 c 0.031 0.125 0.035 0.266 0.004 0.313 c -0.027 0.047 -0.504 0.086 -1.059 0.086 h -1.01"/><path d="m 16.14 7.578 v -0.313 h 1 c 1 0 1 0 1.059 0.227 c 0.031 0.125 0.035 0.266 0.004 0.313 c -0.027 0.047 -0.504 0.086 -1.059 0.086 h -1.01"/><path d="m 16.14 6.754 v -0.313 h 1 c 1 0 1 0 1.059 0.227 c 0.031 0.125 0.035 0.266 0.004 0.313 c -0.027 0.047 -0.504 0.086 -1.059 0.086 h -1.01"/><path d="m 16.195 5.816 v -0.313 h 1 c 1 0 1.01 0 1.063 0.227 c 0.031 0.125 0.031 0.266 0.004 0.313 c -0.027 0.047 -0.504 0.086 -1.059 0.086 h -1.012"/></g></svg>