<svg xmlns="http://www.w3.org/2000/svg" viewBox="0 0 24 24"><path d="m 22.953 8.199 c 4.66 11.945 -8.395 18.07 -16.52 15.03 c -5.672 -2.125 -8.5 -10.594 -4.473 -17.441 c 5.086 -8.637 17.402 -6.801 20.992 2.414" fill="#dcdcdc"/><path d="m 17.453 17.773 c -0.652 0.043 -0.328 -1.703 -0.301 -2.152 c -0.008 -2.023 -0.285 -5.059 -0.566 -6.211 c -0.328 -1.336 -0.234 -1.285 -2.578 -1.367 c -2.215 -0.082 -4.84 0.098 -5.793 0.238 c -0.734 0.109 -0.801 0.047 -1.09 0.941 c -0.207 0.633 -0.305 1.828 -0.484 5.754 c -0.125 2.68 -0.09 3.32 -0.461 3.129 c -0.637 -0.332 -0.465 -0.805 -0.523 -2.43 c 0.094 -1.887 0.203 -1.957 0.238 -3.055 c 0.004 -0.547 0.066 -1.383 0.141 -1.855 c 0.078 -0.473 0.141 -1 0.141 -1.176 c 0 -0.359 0.449 -1.328 0.715 -1.555 c 0.273 -0.23 0.801 -0.34 2.383 -0.492 c 2.141 -0.207 2.07 -0.188 2.207 -0.699 c 0.18 -0.543 -0.012 -0.871 0.16 -1.285 c -0.121 -0.43 0.227 -0.52 0.59 -0.52 c 0.379 0 0.418 0.105 0.258 0.746 c -0.164 0.66 -0.176 1.34 -0.023 1.484 c 0.113 0.109 1.262 0.219 2.449 0.23 c 0.887 0.008 1.496 0.168 1.852 0.484 c 0.379 0.34 0.766 1.184 0.766 1.668 c 0 0.238 0.063 0.801 0.141 1.25 c 0.195 1.398 0.418 2.742 0.371 4.074 c 0.25 1.629 0.234 2.855 -0.59 2.797"/><path d="m 11.11 18.305 c -0.035 -0.133 -0.035 -0.895 0 -1.699 c 0.074 -1.813 0.066 -1.836 -0.836 -2.109 c -0.359 -0.113 -0.777 -0.227 -0.922 -0.258 c -0.504 -0.098 -1.25 -1.172 -1.344 -1.918 c -0.051 -0.422 -0.039 -0.457 0.168 -0.512 c 0.352 -0.09 0.613 -0.07 0.723 0.059 c 0.055 0.063 0.145 0.398 0.203 0.746 c 0.059 0.348 0.164 0.719 0.242 0.832 c 0.289 0.43 1.289 0.707 1.57 0.438 c 0.168 -0.164 0.313 -0.613 0.402 -1.242 c 0.051 -0.352 0.023 -0.434 -0.207 -0.691 c -0.148 -0.16 -0.32 -0.293 -0.387 -0.293 c -0.066 0 -0.711 -0.168 -0.828 -0.262 c -0.406 -0.527 -0.844 -0.898 -0.742 -1.488 c 0.344 -0.77 2.191 -1.152 2.594 -1.145 c 1.09 0.027 1.285 0.309 1.73 0.551 c 0.586 0.32 0.688 0.43 0.754 0.828 c 0.043 0.262 0.004 0.367 -0.242 0.637 c -0.16 0.176 -0.504 0.453 -0.758 0.609 c -0.676 0.418 -0.844 0.734 -0.844 1.566 c 0 0.379 0.039 0.793 0.094 0.922 c 0.305 0.523 0.957 -0.059 1.133 -0.137 c 0.145 0 0.578 -0.34 0.52 -0.434 c 0.332 -0.512 0.301 -1.348 0.512 -1.262 c 0.32 -0.148 0.449 -0.203 0.766 -0.203 c 0.625 -0.09 0.008 0.91 -0.09 1.355 c -0.039 0 -0.281 0.227 -0.539 0.504 c -0.426 0.453 -0.559 0.527 -1.375 0.801 c -1.367 0.453 -1.316 0.395 -1.449 1.719 c -0.156 1.539 -0.063 1.883 -0.277 2.148 c -0.238 0.289 -0.496 0.234 -0.574 -0.066 m 1.617 -7.371 c 0.375 -0.184 0.664 -0.391 0.727 -0.523 c 0.09 -0.191 0.07 -0.246 -0.176 -0.438 c -0.793 -0.383 -1.66 -0.828 -2.484 -0.438 c -0.129 0.063 -0.348 0.156 -0.488 0.211 c -0.418 0.16 -0.465 0.918 -0.074 1.102 c 0.078 0.035 0.313 0.156 0.516 0.262 c 0.531 0.277 1.172 0.219 1.98 -0.176"/></svg>