<svg xmlns="http://www.w3.org/2000/svg" viewBox="0 0 24 24"><path d="m 21.762 4.984 c -4.535 -8.203 -18.738 -5.02 -21.14 1.734 c -2.863 8.05 4.59 23.324 17.211 14.375 c 4.254 -3.129 8.461 -7.906 3.93 -16.11" fill="#dc133c"/><g fill="#fff" fill-rule="evenodd"><path d="m 13.07 17.934 c 0 -0.047 -0.082 -0.055 -0.516 -0.055 c -0.488 0 -0.512 -0.004 -0.512 -0.074 c 0 -0.066 -0.027 -0.074 -0.18 -0.074 c -0.102 0 -0.188 -0.02 -0.195 -0.039 c -0.008 -0.023 -0.09 -0.051 -0.188 -0.063 c -0.113 -0.012 -0.172 -0.035 -0.172 -0.07 c 0 -0.031 -0.043 -0.051 -0.109 -0.051 c -0.086 0 -0.109 -0.016 -0.109 -0.07 c 0 -0.055 -0.027 -0.074 -0.094 -0.074 c -0.09 0 -0.238 -0.113 -0.238 -0.184 c 0 -0.02 -0.031 -0.039 -0.074 -0.039 c -0.039 0 -0.07 -0.023 -0.07 -0.055 c 0 -0.031 0.031 -0.055 0.07 -0.055 c 0.043 0 0.074 -0.023 0.074 -0.055 c 0 -0.035 0.039 -0.055 0.109 -0.055 c 0.109 0 0.113 -0.004 0.113 -0.184 c 0 -0.141 0.012 -0.184 0.055 -0.184 c 0.027 0 0.055 -0.035 0.055 -0.074 c 0 -0.043 -0.027 -0.074 -0.055 -0.074 c -0.031 0 -0.055 -0.023 -0.055 -0.055 c 0 -0.031 0.023 -0.055 0.055 -0.055 c 0.027 0 0.055 -0.027 0.055 -0.055 c 0 -0.031 -0.031 -0.055 -0.07 -0.055 c -0.063 0 -0.066 -0.023 -0.051 -0.242 c 0.02 -0.223 0.016 -0.238 -0.059 -0.238 c -0.047 0 -0.078 0.023 -0.078 0.055 c 0 0.039 -0.035 0.055 -0.109 0.055 c -0.074 0 -0.109 0.02 -0.109 0.059 c 0 0.027 -0.027 0.055 -0.055 0.055 c -0.031 0 -0.059 0.023 -0.059 0.051 c 0 0.027 -0.047 0.063 -0.109 0.078 c -0.059 0.012 -0.109 0.047 -0.109 0.074 c 0 0.035 -0.043 0.055 -0.129 0.055 c -0.09 0 -0.129 0.016 -0.129 0.055 c 0 0.035 -0.035 0.055 -0.109 0.055 c -0.07 0 -0.109 0.016 -0.109 0.055 c 0 0.035 -0.035 0.055 -0.105 0.055 c -0.145 0 -0.223 0.035 -0.223 0.098 c 0 0.035 -0.051 0.051 -0.184 0.051 c -0.16 0 -2.01 0.484 -2.01 0.422 c 0 -0.043 -0.059 -0.09 -0.09 -0.09 c -0.035 0 0.055 -0.129 0.055 -0.203 c 0 -0.074 0.867 -0.277 0.902 -0.277 c 0.031 0 0.566 -0.145 0.566 -0.172 c 0 -0.039 0.43 -0.16 0.504 -0.16 c 0.074 0 0.109 -0.016 0.109 -0.055 c 0 -0.039 0.039 -0.055 0.129 -0.055 c 0.105 0 0.129 -0.016 0.129 -0.074 c 0 -0.055 0.023 -0.074 0.109 -0.074 c 0.074 0 0.109 -0.016 0.109 -0.055 c 0 -0.031 0.027 -0.055 0.055 -0.055 c 0.031 0 0.055 -0.023 0.055 -0.055 c 0 -0.031 0.027 -0.055 0.055 -0.055 c 0.031 0 0.059 -0.023 0.059 -0.055 c 0 -0.031 0.031 -0.055 0.07 -0.055 c 0.051 0 0.074 -0.027 0.074 -0.074 c 0 -0.043 0.023 -0.074 0.055 -0.074 c 0.031 0 0.055 -0.023 0.055 -0.055 c 0 -0.031 0.027 -0.055 0.055 -0.055 c 0.031 0 0.055 -0.027 0.055 -0.055 c 0 -0.031 0.027 -0.055 0.055 -0.055 c 0.039 0 0.059 -0.039 0.059 -0.129 c 0 -0.09 0.016 -0.129 0.055 -0.129 c 0.043 0 0.055 -0.059 0.055 -0.297 c 0 -0.234 0.008 -0.293 0.055 -0.293 c 0.039 0 0.055 -0.039 0.055 -0.129 c 0 -0.09 -0.016 -0.129 -0.055 -0.129 c -0.047 0 -0.055 -0.098 -0.055 -0.66 c 0 -0.641 0 -0.664 0.074 -0.664 c 0.063 0 0.07 -0.023 0.07 -0.238 c 0 -0.188 0.012 -0.238 0.055 -0.238 c 0.031 0 0.055 -0.023 0.055 -0.051 c 0 -0.027 0.027 -0.063 0.059 -0.074 c 0.043 -0.016 0.055 -0.102 0.055 -0.445 c 0 -0.352 -0.012 -0.422 -0.055 -0.422 c -0.031 0 -0.059 -0.027 -0.059 -0.055 c 0 -0.031 -0.023 -0.059 -0.055 -0.059 c -0.027 0 -0.055 -0.023 -0.055 -0.055 c 0 -0.031 -0.031 -0.055 -0.07 -0.055 c -0.043 0 -0.074 -0.023 -0.074 -0.055 c 0 -0.031 -0.027 -0.055 -0.055 -0.055 c -0.031 0 -0.055 -0.031 -0.055 -0.074 c 0 -0.039 -0.027 -0.074 -0.059 -0.074 c -0.027 0 -0.055 -0.023 -0.055 -0.055 c 0 -0.031 -0.023 -0.055 -0.055 -0.055 c -0.039 0 -0.055 -0.039 -0.055 -0.129 c 0 -0.086 -0.016 -0.129 -0.051 -0.129 c -0.027 0 -0.063 -0.051 -0.078 -0.109 c -0.012 -0.063 -0.047 -0.109 -0.074 -0.109 c -0.035 0 -0.051 -0.043 -0.051 -0.129 c 0 -0.09 -0.02 -0.129 -0.059 -0.129 c -0.043 0 -0.055 -0.078 -0.055 -0.48 c 0 -0.398 -0.008 -0.477 -0.055 -0.477 c -0.027 0 -0.055 -0.023 -0.055 -0.055 c 0 -0.039 -0.035 -0.055 -0.109 -0.055 c -0.074 0 -0.109 -0.02 -0.109 -0.055 c 0 -0.031 -0.023 -0.055 -0.055 -0.055 c -0.031 0 -0.055 -0.035 -0.055 -0.074 c 0 -0.063 -0.027 -0.074 -0.129 -0.074 c -0.09 0 -0.129 -0.016 -0.129 -0.055 c 0 -0.031 -0.023 -0.055 -0.055 -0.055 c -0.031 0 -0.055 -0.027 -0.055 -0.055 c 0 -0.031 -0.027 -0.059 -0.055 -0.059 c -0.031 0 -0.055 -0.031 -0.055 -0.07 c 0 -0.043 -0.027 -0.074 -0.055 -0.074 c -0.031 0 -0.059 -0.027 -0.059 -0.055 c 0 -0.031 -0.031 -0.059 -0.07 -0.059 c -0.059 0 -0.074 -0.023 -0.074 -0.109 c 0 -0.074 -0.02 -0.109 -0.055 -0.109 c -0.039 0 -0.055 -0.039 -0.055 -0.129 c 0 -0.09 -0.02 -0.129 -0.055 -0.129 c -0.043 0 -0.055 -0.051 -0.055 -0.238 c 0 -0.188 -0.012 -0.238 -0.059 -0.238 c -0.035 0 -0.055 -0.039 -0.055 -0.113 c 0 -0.07 0.02 -0.109 0.055 -0.109 c 0.047 0 0.059 -0.051 0.059 -0.238 c 0 -0.188 0.012 -0.238 0.055 -0.238 c 0.035 0 0.055 -0.039 0.055 -0.129 c 0 -0.09 0.016 -0.129 0.055 -0.129 c 0.035 0 0.055 -0.039 0.055 -0.109 c 0 -0.086 0.016 -0.113 0.074 -0.113 c 0.047 0 0.07 -0.023 0.07 -0.07 c 0 -0.043 0.027 -0.074 0.059 -0.074 c 0.027 0 0.055 -0.027 0.055 -0.055 c 0 -0.031 0.023 -0.059 0.055 -0.059 c 0.027 0 0.055 -0.023 0.055 -0.051 c 0 -0.027 0.047 -0.063 0.109 -0.074 c 0.059 -0.016 0.109 -0.043 0.109 -0.059 c 0 -0.02 0.035 -0.035 0.074 -0.035 c 0.047 0 0.074 -0.023 0.074 -0.074 c 0 -0.043 0.023 -0.074 0.059 -0.074 c 0.043 0 0.051 0.023 0.035 0.086 c -0.012 0.043 -0.02 0.125 -0.02 0.184 c -0.004 0.063 -0.023 0.098 -0.059 0.098 c -0.035 0 -0.055 0.039 -0.055 0.113 c 0 0.074 -0.016 0.109 -0.055 0.109 c -0.043 0 -0.055 0.066 -0.055 0.367 c 0 0.305 0.012 0.367 0.055 0.367 c 0.031 0 0.055 0.035 0.055 0.074 c 0 0.039 0.023 0.074 0.051 0.074 c 0.031 0 0.063 0.023 0.074 0.055 c 0.012 0.039 0.074 0.055 0.188 0.055 c 0.121 0 0.164 0.016 0.164 0.055 c 0 0.043 0.051 0.055 0.238 0.055 c 0.188 0 0.238 -0.012 0.238 -0.055 c 0 -0.027 0.027 -0.055 0.055 -0.055 c 0.031 0 0.055 -0.023 0.055 -0.055 c 0 -0.031 0.027 -0.055 0.059 -0.055 c 0.027 0 0.055 -0.031 0.055 -0.074 c 0 -0.047 0.023 -0.074 0.07 -0.074 c 0.043 0 0.074 -0.023 0.074 -0.055 c 0 -0.035 0.039 -0.055 0.109 -0.055 c 0.074 0 0.109 -0.02 0.109 -0.055 c 0 -0.035 0.039 -0.055 0.113 -0.055 c 0.086 0 0.109 -0.016 0.109 -0.074 c 0 -0.063 0.023 -0.074 0.184 -0.074 c 0.137 0 0.184 -0.012 0.184 -0.055 c 0 -0.047 0.082 -0.055 0.512 -0.055 c 0.434 0 0.512 0.008 0.512 0.055 c 0 0.043 0.055 0.055 0.242 0.055 c 0.211 0 0.238 0.008 0.238 0.074 c 0 0.059 0.023 0.074 0.125 0.074 c 0.09 0 0.129 0.016 0.129 0.055 c 0 0.035 0.039 0.055 0.109 0.055 c 0.102 0 0.113 -0.012 0.113 -0.129 c 0 -0.09 0.016 -0.129 0.055 -0.129 c 0.043 0 0.055 -0.051 0.055 -0.238 c 0 -0.188 -0.012 -0.238 -0.055 -0.238 c -0.039 0 -0.055 -0.039 -0.055 -0.113 c 0 -0.063 -0.023 -0.121 -0.059 -0.133 c -0.027 -0.012 -0.055 -0.043 -0.055 -0.07 c 0 -0.031 -0.023 -0.051 -0.055 -0.051 c -0.027 0 -0.055 -0.027 -0.055 -0.055 c 0 -0.031 -0.031 -0.059 -0.074 -0.059 c -0.039 0 -0.07 -0.023 -0.07 -0.055 c 0 -0.027 -0.027 -0.055 -0.055 -0.055 c -0.039 0 -0.059 -0.039 -0.059 -0.129 c 0 -0.117 0.012 -0.129 0.113 -0.129 c 0.086 0 0.109 0.016 0.109 0.074 c 0 0.051 0.023 0.074 0.074 0.074 c 0.039 0 0.07 0.023 0.07 0.055 c 0 0.035 0.039 0.055 0.109 0.055 c 0.074 0 0.113 0.02 0.113 0.055 c 0 0.031 0.023 0.055 0.055 0.055 c 0.031 0 0.055 0.035 0.055 0.074 c 0 0.043 0.023 0.074 0.051 0.074 c 0.027 0 0.059 0.023 0.07 0.055 c 0.012 0.031 0.063 0.055 0.117 0.055 c 0.055 0 0.09 0.023 0.09 0.055 c 0 0.031 0.035 0.059 0.074 0.059 c 0.039 0 0.074 0.023 0.074 0.055 c 0 0.027 0.023 0.055 0.055 0.055 c 0.031 0 0.055 0.031 0.055 0.074 c 0 0.039 0.023 0.07 0.055 0.07 c 0.035 0 0.055 0.039 0.055 0.113 c 0 0.074 0.02 0.109 0.055 0.109 c 0.031 0 0.055 0.023 0.055 0.055 c 0 0.031 0.027 0.055 0.055 0.055 c 0.039 0 0.059 0.039 0.059 0.129 c 0 0.09 0.016 0.129 0.055 0.129 c 0.043 0 0.055 0.07 0.055 0.422 c 0 0.301 -0.016 0.422 -0.047 0.434 c -0.031 0.012 -0.051 0.141 -0.059 0.426 c -0.012 0.355 -0.004 0.41 0.047 0.41 c 0.047 0 0.059 0.047 0.059 0.238 c 0 0.215 0.008 0.242 0.07 0.242 c 0.066 0 0.074 0.023 0.074 0.184 c 0 0.137 0.016 0.184 0.055 0.184 c 0.031 0 0.055 0.023 0.055 0.055 c 0 0.031 0.027 0.055 0.055 0.055 c 0.031 0 0.059 0.023 0.059 0.055 c 0 0.031 0.023 0.055 0.055 0.055 c 0.035 0 0.055 0.039 0.055 0.129 c 0 0.09 0.016 0.129 0.055 0.129 c 0.043 0 0.055 0.051 0.055 0.238 c 0 0.188 -0.012 0.238 -0.055 0.238 c -0.039 0 -0.055 0.039 -0.055 0.113 c 0 0.074 -0.02 0.109 -0.055 0.109 c -0.031 0 -0.055 0.031 -0.055 0.074 c 0 0.039 -0.027 0.074 -0.059 0.074 c -0.035 0 -0.055 0.035 -0.055 0.109 c 0 0.074 -0.016 0.109 -0.055 0.109 c -0.027 0 -0.055 0.023 -0.055 0.055 c 0 0.039 -0.039 0.055 -0.129 0.055 c -0.102 0 -0.125 0.016 -0.125 0.074 c 0 0.059 -0.027 0.074 -0.113 0.074 c -0.07 0 -0.109 0.02 -0.109 0.055 c 0 0.039 -0.035 0.055 -0.109 0.055 c -0.074 0 -0.109 0.02 -0.109 0.055 c 0 0.039 -0.039 0.055 -0.129 0.055 c -0.09 0 -0.129 0.02 -0.129 0.059 c 0 0.027 -0.016 0.055 -0.035 0.055 c -0.02 0 -0.039 -0.027 -0.039 -0.055 c 0 -0.031 -0.031 -0.059 -0.07 -0.059 c -0.063 0 -0.074 0.027 -0.074 0.129 c 0 0.125 -0.008 0.129 -0.129 0.129 c -0.09 0 -0.129 0.02 -0.129 0.055 c 0 0.031 -0.023 0.059 -0.055 0.059 c -0.031 0 -0.055 0.02 -0.055 0.051 c 0 0.027 -0.023 0.059 -0.055 0.07 c -0.039 0.016 -0.055 0.078 -0.055 0.207 c 0 0.141 0.012 0.184 0.055 0.184 c 0.031 0 0.055 0.027 0.055 0.059 c 0 0.027 0.023 0.055 0.055 0.055 c 0.031 0 0.055 0.023 0.055 0.055 c 0 0.039 0.039 0.055 0.129 0.055 c 0.09 0 0.129 0.016 0.129 0.055 c 0 0.031 0.031 0.055 0.074 0.055 c 0.039 0 0.07 -0.023 0.07 -0.055 c 0 -0.043 0.059 -0.055 0.277 -0.055 h 0.273 v 0.109 c 0 0.148 0.098 0.148 0.129 0 c 0.023 -0.105 0.031 -0.109 0.242 -0.109 c 0.16 0 0.215 -0.016 0.215 -0.051 c 0 -0.059 0.156 -0.098 0.262 -0.07 c 0.047 0.012 0.07 0.051 0.07 0.125 c 0 0.082 -0.004 -0.031 0.051 -0.031 c 0.059 0 0.098 0.16 0.098 0.246 c 0 0.086 -0.02 0.113 -0.074 0.113 c -0.051 0 -0.074 0.023 -0.074 0.07 c 0 0.043 -0.023 0.074 -0.055 0.074 c -0.031 0 -0.055 0.027 -0.055 0.055 c 0 0.047 -0.055 0.055 -0.277 0.055 c -0.219 0 -0.273 -0.008 -0.273 -0.055 c 0 -0.027 -0.023 -0.055 -0.055 -0.055 c -0.031 0 -0.055 -0.031 -0.055 -0.074 c 0 -0.047 -0.023 -0.07 -0.074 -0.07 c -0.047 0 -0.074 0.023 -0.074 0.07 c 0 0.043 0.023 0.074 0.051 0.074 c 0.031 0 0.063 0.047 0.078 0.102 c 0.031 0.133 0.074 0.156 0.285 0.156 c 0.094 0 0.172 0.016 0.172 0.039 c 0 0.02 -0.023 0.035 -0.055 0.035 c -0.027 0 -0.055 0.031 -0.055 0.074 c 0 0.066 -0.023 0.074 -0.293 0.074 c -0.27 0 -0.293 -0.008 -0.293 -0.074 c 0 -0.043 -0.023 -0.074 -0.055 -0.074 c -0.031 0 -0.055 0.031 -0.055 0.074 c 0 0.039 0.023 0.074 0.055 0.074 c 0.031 0 0.055 0.023 0.055 0.055 c 0 0.031 -0.023 0.055 -0.055 0.055 c -0.039 0 -0.055 0.039 -0.055 0.129 c 0 0.102 -0.016 0.129 -0.074 0.129 c -0.063 0 -0.074 0.023 -0.074 0.184 c 0 0.102 -0.016 0.184 -0.035 0.184 c -0.02 0 -0.035 0.023 -0.035 0.055 c 0 0.031 0.016 0.055 0.035 0.055 c 0.063 0 0.047 0.586 -0.02 0.648 c -0.027 0.031 -0.055 0.113 -0.055 0.184 c 0 0.086 -0.016 0.125 -0.055 0.125 c -0.031 0 -0.055 0.023 -0.055 0.055 c 0 0.031 -0.023 0.055 -0.055 0.055 c -0.043 0 -0.055 0.055 -0.055 0.254 v 0.254 l -0.172 -0.004 c -0.141 -0.008 -0.176 0.008 -0.188 0.059 c -0.008 0.039 0.008 0.063 0.043 0.063 c 0.035 0 0.059 0.023 0.059 0.055 c 0 0.031 0.035 0.055 0.074 0.055 c 0.063 0 0.074 0.027 0.074 0.184 c 0 0.141 0.012 0.184 0.055 0.184 c 0.031 0 0.055 0.027 0.055 0.059 c 0 0.027 0.023 0.055 0.055 0.055 c 0.031 0 0.055 0.031 0.055 0.074 c 0 0.066 0.023 0.07 0.367 0.07 c 0.301 0 0.367 0.012 0.367 0.055 c 0 0.043 0.043 0.059 0.164 0.059 c 0.121 0 0.164 0.012 0.164 0.055 c 0 0.035 0.039 0.055 0.109 0.055 c 0.074 0 0.113 -0.02 0.113 -0.055 c 0 -0.047 0.07 -0.055 0.422 -0.055 c 0.348 0 0.418 0.008 0.418 0.055 c 0 0.039 0.043 0.055 0.168 0.055 c 0.113 0 0.164 0.016 0.164 0.051 c 0 0.051 0.105 0.094 0.246 0.094 c 0.051 0 0.082 0.023 0.082 0.059 c 0 0.027 0.035 0.055 0.074 0.055 c 0.043 0 0.074 0.023 0.074 0.055 c 0 0.031 0.023 0.055 0.055 0.055 c 0.031 0 0.055 0.023 0.055 0.055 c 0 0.031 -0.023 0.055 -0.055 0.055 c -0.031 0 -0.055 0.027 -0.055 0.055 c 0 0.031 -0.027 0.055 -0.055 0.055 c -0.031 0 -0.066 0.027 -0.078 0.059 c -0.012 0.027 -0.063 0.055 -0.113 0.055 c -0.059 0 -0.098 0.023 -0.109 0.07 c -0.02 0.07 -0.051 0.074 -0.602 0.074 c -0.492 0 -0.582 0.008 -0.582 0.055 c 0 0.031 -0.027 0.059 -0.055 0.059 c -0.031 0 -0.055 0.023 -0.055 0.055 c 0 0.035 -0.039 0.055 -0.113 0.055 c -0.086 0 -0.109 0.016 -0.109 0.074 c 0 0.066 -0.023 0.07 -0.293 0.07 c -0.234 0 -0.293 0.012 -0.293 0.059 c 0 0.047 -0.094 0.055 -0.641 0.055 c -0.547 0 -0.645 -0.008 -0.645 -0.055 m -0.805 -0.48 c 0 -0.039 -0.043 -0.055 -0.184 -0.055 c -0.137 0 -0.184 0.016 -0.184 0.055 c 0 0.043 0.047 0.055 0.184 0.055 c 0.141 0 0.184 -0.012 0.184 -0.055 m 0.809 -0.129 c 0 -0.137 0.012 -0.184 0.055 -0.184 c 0.035 0 0.055 -0.035 0.055 -0.109 c 0 -0.102 0.008 -0.109 0.129 -0.109 c 0.09 0 0.125 -0.016 0.125 -0.055 c 0 -0.047 0.094 -0.055 0.625 -0.055 c 0.531 0 0.625 0.008 0.625 0.055 c 0 0.039 0.039 0.055 0.125 0.055 c 0.09 0 0.129 0.016 0.129 0.055 c 0 0.031 0.027 0.055 0.055 0.055 c 0.043 0 0.055 0.047 0.055 0.184 c 0 0.207 0.047 0.234 0.176 0.098 c 0.094 -0.102 0.105 -0.172 0.027 -0.172 c -0.031 0 -0.055 -0.023 -0.055 -0.055 c 0 -0.031 -0.031 -0.055 -0.074 -0.055 c -0.047 0 -0.074 -0.023 -0.074 -0.074 c 0 -0.039 -0.023 -0.074 -0.055 -0.074 c -0.035 0 -0.055 -0.035 -0.055 -0.109 c 0 -0.086 -0.016 -0.109 -0.07 -0.109 c -0.043 0 -0.074 0.023 -0.074 0.055 c 0 0.031 -0.016 0.055 -0.039 0.055 c -0.02 0 -0.035 -0.023 -0.035 -0.055 c 0 -0.047 -0.094 -0.055 -0.641 -0.055 c -0.547 0 -0.645 -0.008 -0.645 -0.055 c 0 -0.031 -0.031 -0.055 -0.07 -0.055 c -0.043 0 -0.074 -0.023 -0.074 -0.055 c 0 -0.027 -0.051 -0.063 -0.109 -0.074 c -0.063 -0.016 -0.109 -0.051 -0.109 -0.078 c 0 -0.031 -0.039 -0.051 -0.113 -0.051 c -0.07 0 -0.109 -0.02 -0.109 -0.055 c 0 -0.031 0.027 -0.055 0.055 -0.055 c 0.039 0 0.055 -0.039 0.055 -0.109 c 0 -0.09 0.02 -0.113 0.113 -0.133 c 0.059 -0.012 0.109 -0.047 0.109 -0.074 c 0 -0.031 0.031 -0.055 0.074 -0.055 c 0.039 0 0.07 -0.023 0.07 -0.055 c 0 -0.043 -0.059 -0.055 -0.309 -0.055 c -0.254 0 -0.313 0.012 -0.313 0.055 c 0 0.031 -0.027 0.055 -0.055 0.055 c -0.039 0 -0.055 0.039 -0.055 0.129 c 0 0.09 0.016 0.129 0.055 0.129 c 0.031 0 0.055 0.035 0.055 0.082 c 0 0.176 0.043 0.254 0.148 0.273 c 0.059 0.012 0.105 0.047 0.105 0.074 c 0 0.031 0.043 0.051 0.113 0.051 c 0.07 0 0.109 0.016 0.109 0.055 c 0 0.031 0.031 0.055 0.074 0.055 c 0.039 0 0.07 0.023 0.07 0.055 c 0 0.039 -0.039 0.055 -0.129 0.055 c -0.121 0 -0.125 0.008 -0.125 0.129 c 0 0.09 -0.02 0.129 -0.059 0.129 c -0.043 0 -0.055 0.051 -0.055 0.238 c 0 0.188 0.012 0.238 0.055 0.238 c 0.043 0 0.059 -0.043 0.059 -0.184 m -1.395 0 c 0 -0.02 -0.051 -0.035 -0.109 -0.035 c -0.063 0 -0.109 0.016 -0.109 0.035 c 0 0.023 0.047 0.039 0.109 0.039 c 0.059 0 0.109 -0.016 0.109 -0.039 m -0.367 -0.129 c 0 -0.035 -0.035 -0.055 -0.109 -0.055 c -0.074 0 -0.109 0.02 -0.109 0.055 c 0 0.039 0.035 0.059 0.109 0.059 c 0.074 0 0.109 -0.02 0.109 -0.059 m 1.422 -6.133 c 0.008 -0.043 -0.012 -0.063 -0.063 -0.063 c -0.051 0 -0.074 0.023 -0.074 0.074 c 0 0.098 0.121 0.086 0.137 -0.012 m 0.703 -1.313 c 0 -0.043 0.027 -0.074 0.059 -0.074 c 0.027 0 0.055 -0.023 0.055 -0.055 c 0 -0.031 0.023 -0.055 0.055 -0.055 c 0.027 0 0.055 -0.027 0.055 -0.055 c 0 -0.031 0.023 -0.055 0.055 -0.055 c 0.043 0 0.055 -0.066 0.055 -0.371 c 0 -0.301 -0.012 -0.367 -0.055 -0.367 c -0.039 0 -0.055 -0.039 -0.055 -0.129 c 0 -0.102 -0.016 -0.129 -0.074 -0.129 c -0.066 0 -0.074 0.027 -0.074 0.242 c 0 0.133 -0.016 0.238 -0.035 0.238 c -0.02 0 -0.039 -0.027 -0.039 -0.055 c 0 -0.031 -0.023 -0.055 -0.055 -0.055 c -0.043 0 -0.055 -0.055 -0.055 -0.242 c 0 -0.215 -0.008 -0.238 -0.07 -0.238 c -0.059 0 -0.074 0.023 -0.074 0.109 c 0 0.074 -0.02 0.113 -0.055 0.113 c -0.047 0 -0.055 0.07 -0.055 0.441 c 0 0.367 0.008 0.441 0.055 0.441 c 0.035 0 0.055 0.035 0.055 0.109 c 0 0.074 0.016 0.109 0.055 0.109 c 0.031 0 0.055 0.031 0.055 0.074 c 0 0.047 0.023 0.074 0.074 0.074 c 0.047 0 0.07 -0.027 0.07 -0.074 m 1.027 -0.605 c 0 -0.031 0.035 -0.059 0.074 -0.059 c 0.039 0 0.074 -0.023 0.074 -0.055 c 0 -0.027 0.023 -0.055 0.055 -0.055 c 0.039 0 0.055 -0.039 0.055 -0.129 c 0 -0.09 -0.016 -0.129 -0.055 -0.129 c -0.031 0 -0.055 -0.031 -0.055 -0.074 c 0 -0.047 -0.023 -0.07 -0.074 -0.07 c -0.047 0 -0.074 0.023 -0.074 0.07 c 0 0.043 -0.023 0.074 -0.055 0.074 c -0.031 0 -0.055 -0.031 -0.055 -0.074 c 0 -0.039 -0.023 -0.07 -0.055 -0.07 c -0.043 0 -0.055 -0.047 -0.055 -0.184 c 0 -0.16 -0.012 -0.188 -0.074 -0.188 c -0.047 0 -0.074 0.027 -0.074 0.074 c 0 0.043 -0.023 0.074 -0.055 0.074 c -0.039 0 -0.055 0.047 -0.055 0.184 c 0 0.141 0.016 0.184 0.055 0.184 c 0.031 0 0.055 0.027 0.055 0.055 c 0 0.031 -0.023 0.055 -0.055 0.055 c -0.035 0 -0.055 0.039 -0.055 0.113 c 0 0.066 0.023 0.121 0.055 0.133 c 0.031 0.012 0.055 0.043 0.055 0.074 c 0 0.035 0.051 0.051 0.184 0.051 c 0.141 0 0.184 -0.016 0.184 -0.055 m -0.219 -2.301 c 0 -0.039 -0.023 -0.074 -0.055 -0.074 c -0.031 0 -0.055 -0.023 -0.055 -0.055 c 0 -0.031 -0.027 -0.055 -0.055 -0.055 c -0.031 0 -0.055 -0.023 -0.055 -0.055 c 0 -0.031 -0.027 -0.055 -0.055 -0.055 c -0.031 0 -0.059 -0.035 -0.059 -0.074 c 0 -0.059 -0.023 -0.074 -0.125 -0.074 c -0.105 0 -0.129 0.016 -0.129 0.074 c 0 0.059 0.023 0.074 0.109 0.074 c 0.074 0 0.109 0.016 0.109 0.055 c 0 0.031 0.023 0.055 0.055 0.055 c 0.031 0 0.055 0.031 0.055 0.074 c 0 0.039 0.023 0.074 0.055 0.074 c 0.031 0 0.055 0.023 0.055 0.055 c 0 0.031 0.035 0.055 0.074 0.055 c 0.051 0 0.074 -0.023 0.074 -0.074"/><path d="m 14.465 12.01 c 0 -0.031 -0.066 0.008 -0.098 0.008 c -0.039 0 0.09 0.055 -0.031 -0.016 c -0.379 -0.215 0.031 -0.414 0.074 -0.414 c 0.031 0 0.055 -0.027 0.055 -0.055 c 0 -0.031 0.035 -0.059 0.074 -0.059 c 0.039 0 0.074 -0.023 0.074 -0.055 c 0 -0.043 0.047 -0.055 0.219 -0.055 c 0.172 0 0.219 0.012 0.219 0.055 c 0 0.031 0.027 0.055 0.055 0.055 c 0.043 0 0.059 0.047 0.059 0.184 c 0 0.141 -0.016 0.188 -0.059 0.188 c -0.027 0 -0.055 0.023 -0.055 0.055 c 0 0.027 -0.023 0.055 -0.055 0.055 c -0.027 0 -0.055 0.023 -0.055 0.055 c 0 0.043 -0.051 0.055 -0.238 0.055 c -0.188 0 -0.238 -0.012 -0.238 -0.055"/><path d="m 15.309 11.664 c 0 -0.18 0.004 -0.184 0.109 -0.184 c 0.074 0 0.113 -0.02 0.113 -0.059 c 0 -0.027 0.023 -0.055 0.055 -0.055 c 0.035 0 0.055 -0.039 0.055 -0.129 c 0 -0.09 -0.02 -0.129 -0.055 -0.129 c -0.047 0 -0.055 -0.055 -0.055 -0.293 c 0 -0.238 0.102 -0.422 0.148 -0.422 c 0.027 0 0.254 -0.301 0.211 -0.16 c -0.004 0.027 0.168 -0.035 0.125 0.031 c -0.035 0.051 -0.141 0.086 -0.227 0.184 c -0.078 0.094 -0.141 0.254 -0.141 0.27 c 0 0.188 0.004 0.281 0.047 0.281 c 0.031 0 0.055 0.035 0.055 0.074 c 0 0.039 0.023 0.074 0.051 0.074 c 0.094 0 0.168 -0.043 0.168 -0.098 c 0 -0.027 0.035 -0.051 0.074 -0.051 c 0.039 0 0.074 -0.023 0.074 -0.055 c 0 -0.035 0.426 -0.352 0.496 -0.352 c 0.074 0 0.176 -0.031 0.176 0.004 c 0 0.031 -0.477 0.402 -0.508 0.402 c -0.031 0 -0.055 0.027 -0.055 0.055 c 0 0.031 -0.031 0.055 -0.074 0.055 c -0.039 0 -0.074 0.023 -0.074 0.055 c 0 0.027 -0.023 0.059 -0.055 0.07 c -0.031 0.012 -0.055 0.047 -0.055 0.078 c 0 0.031 0.023 0.055 0.055 0.055 c 0.031 0 0.055 0.027 0.055 0.055 c 0 0.039 0.039 0.059 0.129 0.059 c 0.105 0 0.129 0.012 0.129 0.07 c 0 0.063 0.023 0.074 0.152 0.074 c 0.094 0 0.168 0.023 0.195 0.059 c 0.043 0.063 0.25 -0.066 0.25 -0.129 c 0 -0.02 0.734 -0.191 0.129 0.027 c -0.133 0.051 0.23 0.195 0.105 0.113 c -0.121 -0.078 -0.109 -0.219 -0.055 -0.113 c 0.016 0.039 -0.156 0.266 -0.434 0.266 c -0.324 0 -0.297 0.004 -0.297 -0.063 c 0 -0.043 -0.18 -0.086 -0.207 -0.086 c -0.027 0 -0.063 -0.023 -0.074 -0.055 c -0.012 -0.031 -0.063 -0.055 -0.113 -0.055 c -0.059 0 -0.094 -0.02 -0.094 -0.055 c 0 -0.031 -0.031 -0.055 -0.07 -0.055 c -0.043 0 -0.074 0.023 -0.074 0.055 c 0 0.031 -0.023 0.055 -0.055 0.055 c -0.031 0 -0.055 0.023 -0.055 0.055 c 0 0.031 -0.027 0.055 -0.055 0.055 c -0.031 0 -0.055 0.031 -0.055 0.074 c 0 0.059 -0.215 0.188 -0.301 0.188 c -0.109 0 -0.07 -0.063 0.027 -0.215"/><path d="m 8.05 18.41 c 0 -0.043 -0.051 -0.055 -0.223 -0.055 c -0.195 0 -0.219 -0.008 -0.219 -0.074 c 0 -0.063 -0.023 -0.074 -0.184 -0.074 c -0.137 0 -0.184 -0.012 -0.184 -0.055 c 0 -0.039 -0.043 -0.055 -0.164 -0.055 c -0.121 0 -0.164 -0.016 -0.164 -0.055 c 0 -0.043 -0.047 -0.055 -0.184 -0.055 c -0.141 0 -0.184 -0.016 -0.184 -0.055 c 0 -0.039 -0.039 -0.055 -0.109 -0.055 c -0.086 0 -0.113 -0.02 -0.113 -0.074 c 0 -0.051 -0.023 -0.074 -0.07 -0.074 c -0.043 0 -0.074 -0.023 -0.074 -0.055 c 0 -0.031 -0.023 -0.055 -0.055 -0.055 c -0.031 0 -0.055 -0.027 -0.055 -0.055 c 0 -0.031 -0.027 -0.055 -0.055 -0.055 c -0.039 0 -0.055 -0.039 -0.055 -0.113 c 0 -0.074 0.016 -0.109 0.055 -0.109 c 0.027 0 0.055 -0.031 0.055 -0.074 c 0 -0.039 0.023 -0.074 0.055 -0.074 c 0.031 0 0.055 -0.023 0.055 -0.055 c 0 -0.031 0.031 -0.055 0.074 -0.055 c 0.039 0 0.07 -0.023 0.07 -0.055 c 0 -0.035 0.039 -0.055 0.113 -0.055 c 0.07 0 0.109 -0.02 0.109 -0.055 c 0 -0.043 0.047 -0.055 0.223 -0.055 c 0.191 0 0.227 -0.012 0.242 -0.074 c 0.016 -0.059 0.051 -0.074 0.18 -0.074 c 0.152 0 0.16 0.004 0.16 0.109 c 0 0.086 -0.016 0.109 -0.109 0.129 c -0.059 0.016 -0.109 0.047 -0.109 0.078 c 0 0.039 -0.059 0.051 -0.238 0.051 c -0.188 0 -0.238 0.012 -0.238 0.055 c 0 0.039 -0.039 0.055 -0.129 0.055 c -0.09 0 -0.129 0.02 -0.129 0.055 c 0 0.031 -0.047 0.121 -0.074 0.121 c -0.043 0 -0.035 -0.016 -0.035 0.137 c 0 0.156 -0.027 0.047 0.012 0.047 c 0.031 0 0.203 0.098 0.203 0.129 c 0 0.039 0.008 0.105 0.098 0.105 c 0.09 0 0.297 0.082 0.297 0.121 c 0 0.043 -0.18 0.023 0.105 0.023 c 0.324 0 0.348 -0.008 0.348 -0.074 c 0 -0.043 0.027 -0.074 0.055 -0.074 c 0.039 0 0.055 -0.035 0.055 -0.109 c 0 -0.098 0.016 -0.113 0.113 -0.113 c 0.082 0 0.109 0.02 0.109 0.074 c 0 0.051 0.023 0.074 0.07 0.074 c 0.043 0 0.074 0.016 0.074 0.035 c 0 0.02 0.051 0.043 0.109 0.059 c 0.063 0.012 0.113 0.047 0.113 0.074 c 0 0.035 0.039 0.055 0.109 0.055 c 0.07 0 0.109 0.016 0.109 0.055 c 0 0.039 0.039 0.055 0.129 0.055 c 0.102 0 0.129 0.012 0.129 0.074 c 0 0.055 0.023 0.074 0.109 0.074 c 0.074 0 0.109 0.016 0.109 0.055 c 0 0.031 0.031 0.055 0.074 0.055 c 0.039 0 0.07 0.023 0.07 0.055 c 0 0.035 0.039 0.055 0.113 0.055 c 0.07 0 0.109 0.02 0.109 0.055 c 0 0.047 -0.086 0.055 -0.531 0.055 c -0.449 0 -0.531 -0.008 -0.531 -0.055"/><path d="m 16.613 10.691 c -0.102 -0.164 -0.184 -0.301 -0.184 -0.301 c 0.008 -0.008 0.91 -0.262 0.914 -0.258 c 0 0 -0.121 0.195 -0.266 0.434 c -0.191 0.305 -0.27 0.43 -0.273 0.426 c -0.004 -0.004 -0.09 -0.137 -0.191 -0.301"/><path d="m 15.914 10.289 c -0.102 -0.129 -0.188 -0.242 -0.184 -0.242 c 0.004 -0.004 0.797 -0.293 0.797 -0.289 c 0 0 -0.09 0.176 -0.203 0.391 c -0.148 0.277 -0.211 0.391 -0.215 0.387 c -0.004 0 -0.09 -0.113 -0.195 -0.242"/><path d="m 17.01 11.613 c -0.109 -0.129 -0.195 -0.238 -0.191 -0.238 c 0.004 -0.008 0.789 -0.313 0.789 -0.309 c 0 0 -0.086 0.18 -0.195 0.395 c -0.141 0.281 -0.199 0.395 -0.203 0.395 c 0 -0.004 -0.094 -0.113 -0.199 -0.242"/></g></svg>