<svg xmlns="http://www.w3.org/2000/svg" viewBox="0 0 24 24" xmlns:xlink="http://www.w3.org/1999/xlink"><defs><radialGradient id="8" gradientUnits="userSpaceOnUse" cx="-228.07" cy="415.76" r="9.04" gradientTransform="matrix(0.07339 0 0 -0.07339 28.991 43.01)" xlink:href="#2"/><radialGradient id="9" gradientUnits="userSpaceOnUse" cx="-183.75" cy="452.68" r="21.349" gradientTransform="matrix(0.07339 0 0 -0.07339 27.63 44.738)" xlink:href="#0"/><radialGradient id="E" gradientUnits="userSpaceOnUse" cx="-196.92" cy="421.05" r="36.39" gradientTransform="matrix(0.07339 0 0 -0.07339 27.446 45.48)" xlink:href="#2"/><radialGradient id="A" gradientUnits="userSpaceOnUse" cx="-183.77" cy="452.67" r="21.374" gradientTransform="matrix(0.07339 0 0 -0.07339 27.63 44.738)" xlink:href="#1"/><radialGradient id="C" gradientUnits="userSpaceOnUse" cx="-185.75" cy="417.25" r="56.661" gradientTransform="matrix(0.07339 0 0 -0.07339 27.446 45.48)" xlink:href="#0"/><radialGradient id="D" gradientUnits="userSpaceOnUse" cx="-197" cy="427.5" r="86.08" gradientTransform="matrix(0.07339 0 0 -0.07339 27.446 45.48)" xlink:href="#1"/><radialGradient id="B" gradientUnits="userSpaceOnUse" cx="-183.8" cy="451.16" r="9.04" gradientTransform="matrix(0.07339 0 0 -0.07339 27.63 44.738)" xlink:href="#2"/><radialGradient id="7" gradientUnits="userSpaceOnUse" cx="-228.03" cy="417.27" r="21.374" gradientTransform="matrix(0.07339 0 0 -0.07339 28.991 43.01)" xlink:href="#1"/><radialGradient id="0" gradientUnits="userSpaceOnUse" cx="-188.09" cy="355.82" r="21.35" gradientTransform="matrix(0.07339 0 0 -0.07339 29.869 38.07)"><stop stop-color="#000" stop-opacity="0"/><stop offset="1" stop-color="#000" stop-opacity="0.749"/></radialGradient><radialGradient id="1" gradientUnits="userSpaceOnUse" cx="-188.1" cy="355.81" r="21.374" gradientTransform="matrix(0.07339 0 0 -0.07339 29.869 38.07)"><stop stop-color="#000" stop-opacity="0"/><stop offset="1" stop-color="#000" stop-opacity="0.502"/></radialGradient><radialGradient id="6" gradientUnits="userSpaceOnUse" cx="-228.02" cy="417.28" r="21.35" gradientTransform="matrix(0.07339 0 0 -0.07339 28.991 43.01)" xlink:href="#0"/><radialGradient id="2" gradientUnits="userSpaceOnUse" cx="-188.14" cy="354.3" r="9.04" gradientTransform="matrix(0.07339 0 0 -0.07339 29.869 38.07)"><stop stop-color="#fff" stop-opacity="0.749"/><stop offset="1" stop-color="#fff" stop-opacity="0"/></radialGradient><radialGradient id="4" gradientUnits="userSpaceOnUse" cx="-140.11" cy="389.3" r="21.374" gradientTransform="matrix(0.07339 0 0 -0.07339 27.999 41.806)" xlink:href="#1"/><radialGradient id="5" gradientUnits="userSpaceOnUse" cx="-140.14" cy="387.79" r="9.04" gradientTransform="matrix(0.07339 0 0 -0.07339 27.999 41.806)" xlink:href="#2"/><radialGradient id="3" gradientUnits="userSpaceOnUse" cx="-140.09" cy="389.31" r="21.35" gradientTransform="matrix(0.07339 0 0 -0.07339 27.999 41.806)" xlink:href="#0"/></defs><path d="m 10.996 23.941 c 14.559 1.383 18.477 -21.961 3.527 -23.773 c -13.742 -2.25 -20.824 18.914 -7.164 23.14 c 1.152 0.465 2.418 0.457 3.637 0.629" fill="#31cd31"/><path d="m 16.863 4.359 c -0.867 -0.582 -1.848 -0.324 -2.402 0.574 c -0.422 0.688 -0.52 2.34 0.527 2.5 c 1.379 0.211 3.57 -1.945 1.875 -3.074" fill="#9f60ff"/><path d="m 16.863 4.359 c -0.867 -0.582 -1.848 -0.324 -2.402 0.574 c -0.422 0.688 -0.52 2.34 0.527 2.5 c 1.379 0.211 3.57 -1.945 1.875 -3.074 m -1.852 2.902 c -0.258 -0.039 -0.449 -0.191 -0.563 -0.453 c -0.23 -0.527 -0.105 -1.363 0.152 -1.781 c 0.516 -0.836 1.391 -1.047 2.176 -0.523 c 0.484 0.324 0.648 0.762 0.465 1.27 c -0.301 0.844 -1.449 1.609 -2.23 1.488" fill="url(#0)"/><path d="m 14.602 5.03 c -0.258 0.418 -0.383 1.254 -0.152 1.781 c 0.113 0.262 0.305 0.414 0.563 0.453 c 0.781 0.121 1.93 -0.645 2.23 -1.488 c 0.184 -0.504 0.02 -0.945 -0.465 -1.27 c -0.785 -0.523 -1.66 -0.313 -2.176 0.523" fill="url(#1)"/><path d="m 14.602 5.03 c -0.285 0.551 -0.355 1.172 -0.156 1.77 c 0.402 -0.055 0.711 -0.188 0.922 -0.504 c 0.266 -0.383 0.711 -0.867 1.094 -1.117 c 0.539 -0.375 0.367 -0.844 -0.379 -0.941 c -0.609 -0.074 -1.16 0.273 -1.48 0.793" fill="url(#2)"/><path d="m 20.586 7.363 c -0.867 -0.578 -1.848 -0.324 -2.402 0.578 c -0.422 0.684 -0.52 2.34 0.527 2.496 c 1.379 0.211 3.574 -1.945 1.875 -3.074" fill="#ff6000"/><path d="m 20.586 7.363 c -0.867 -0.578 -1.848 -0.324 -2.402 0.578 c -0.422 0.684 -0.52 2.34 0.527 2.496 c 1.379 0.211 3.574 -1.945 1.875 -3.074 m -1.852 2.906 c -0.258 -0.039 -0.449 -0.195 -0.563 -0.457 c -0.23 -0.527 -0.105 -1.359 0.152 -1.781 c 0.516 -0.836 1.391 -1.047 2.176 -0.523 c 0.484 0.324 0.648 0.766 0.465 1.273 c -0.301 0.84 -1.449 1.605 -2.23 1.488" fill="url(#3)"/><path d="m 18.324 8.03 c -0.258 0.422 -0.383 1.254 -0.152 1.781 c 0.113 0.262 0.305 0.418 0.563 0.457 c 0.781 0.117 1.93 -0.648 2.23 -1.488 c 0.184 -0.508 0.023 -0.949 -0.465 -1.273 c -0.785 -0.523 -1.66 -0.313 -2.176 0.523" fill="url(#4)"/><path d="m 18.324 8.03 c -0.285 0.551 -0.355 1.176 -0.156 1.77 c 0.402 -0.051 0.711 -0.188 0.922 -0.5 c 0.266 -0.387 0.711 -0.871 1.098 -1.121 c 0.535 -0.371 0.363 -0.844 -0.383 -0.938 c -0.609 -0.078 -1.16 0.27 -1.48 0.789" fill="url(#5)"/><path d="m 8.289 5.363 c -0.867 -0.578 -1.848 -0.324 -2.402 0.578 c -0.422 0.684 -0.52 2.34 0.527 2.496 c 1.379 0.211 3.57 -1.945 1.875 -3.074" fill="#0000cf"/><path d="m 8.289 5.363 c -0.867 -0.578 -1.848 -0.324 -2.402 0.578 c -0.422 0.684 -0.52 2.34 0.527 2.496 c 1.379 0.211 3.57 -1.945 1.875 -3.074 m -1.852 2.906 c -0.262 -0.039 -0.449 -0.191 -0.563 -0.453 c -0.23 -0.531 -0.105 -1.363 0.152 -1.781 c 0.516 -0.84 1.391 -1.051 2.176 -0.527 c 0.484 0.324 0.648 0.766 0.465 1.273 c -0.301 0.84 -1.449 1.605 -2.23 1.488" fill="url(#6)"/><path d="m 6.03 6.04 c -0.258 0.418 -0.383 1.25 -0.152 1.781 c 0.113 0.262 0.301 0.414 0.563 0.453 c 0.781 0.117 1.93 -0.648 2.23 -1.488 c 0.184 -0.508 0.02 -0.949 -0.465 -1.273 c -0.785 -0.523 -1.66 -0.313 -2.176 0.527" fill="url(#7)"/><path d="m 6.03 6.04 c -0.285 0.547 -0.355 1.172 -0.16 1.766 c 0.402 -0.051 0.715 -0.188 0.926 -0.5 c 0.266 -0.387 0.711 -0.871 1.094 -1.121 c 0.539 -0.371 0.363 -0.844 -0.383 -0.938 c -0.605 -0.078 -1.156 0.27 -1.477 0.793" fill="url(#8)"/><path d="m 12.539 3.332 c -0.867 -0.578 -1.848 -0.324 -2.402 0.574 c -0.422 0.688 -0.52 2.34 0.523 2.5 c 1.383 0.211 3.574 -1.945 1.879 -3.074" fill="#cf0000"/><path d="m 12.539 3.332 c -0.867 -0.578 -1.848 -0.324 -2.402 0.574 c -0.422 0.688 -0.52 2.34 0.523 2.5 c 1.383 0.211 3.574 -1.945 1.879 -3.074 m -1.852 2.902 c -0.262 -0.039 -0.449 -0.191 -0.563 -0.453 c -0.234 -0.527 -0.105 -1.363 0.152 -1.781 c 0.516 -0.836 1.387 -1.047 2.172 -0.523 c 0.488 0.324 0.652 0.762 0.469 1.27 c -0.301 0.844 -1.449 1.609 -2.23 1.488" fill="url(#9)"/><path d="m 10.277 4 c -0.258 0.418 -0.387 1.254 -0.152 1.781 c 0.113 0.262 0.301 0.414 0.563 0.453 c 0.781 0.121 1.93 -0.645 2.23 -1.488 c 0.184 -0.504 0.02 -0.945 -0.469 -1.27 c -0.785 -0.523 -1.656 -0.313 -2.172 0.523" fill="url(#A)"/><path d="m 10.277 4 c -0.285 0.551 -0.355 1.172 -0.16 1.77 c 0.406 -0.055 0.715 -0.188 0.926 -0.504 c 0.266 -0.383 0.711 -0.867 1.094 -1.117 c 0.539 -0.375 0.363 -0.844 -0.383 -0.937 c -0.605 -0.078 -1.156 0.27 -1.477 0.789" fill="url(#B)"/><path d="m 15.457 9.293 c -3.477 -2.316 -7.395 -1.293 -9.613 2.305 c -1.688 2.738 -2.086 9.359 2.098 9.996 c 5.523 0.84 14.297 -7.781 7.516 -12.301" fill="#0f0"/><path d="m 15.457 9.293 c -3.477 -2.316 -7.395 -1.293 -9.613 2.305 c -1.688 2.738 -2.086 9.359 2.098 9.996 c 5.523 0.84 14.297 -7.781 7.516 -12.301 m -7.418 11.617 c -1.035 -0.156 -1.793 -0.766 -2.25 -1.813 c -0.926 -2.113 -0.418 -5.453 0.613 -7.129 c 2.062 -3.348 5.559 -4.188 8.699 -2.098 c 1.949 1.301 2.594 3.059 1.867 5.086 c -1.207 3.371 -5.797 6.43 -8.93 5.953" fill="url(#C)"/><path d="m 6.402 11.969 c -1.031 1.676 -1.539 5.02 -0.613 7.129 c 0.457 1.047 1.215 1.656 2.25 1.813 c 3.133 0.477 7.723 -2.582 8.93 -5.953 c 0.727 -2.027 0.078 -3.785 -1.871 -5.086 c -3.137 -2.09 -6.633 -1.25 -8.695 2.098" fill="url(#D)"/><path d="m 2.77 7.469 c -2.73 5.086 -3.375 10.863 -1.504 16.367 c 3.836 -0.48 6.793 -1.73 8.805 -4.637 c 2.527 -3.559 6.766 -8.05 10.438 -10.359 c 5.129 -3.461 3.469 -7.828 -3.645 -8.699 c -5.785 -0.711 -11.03 2.496 -14.09 7.328" fill="url(#E)"/><path d="m 11.82 11.703 h -0.332 v 6.883 h 1.324 c 0 0 0 -2.227 0 -2.754 c 0.293 0 0.66 0 0.66 0 c 1.094 0 1.984 -0.926 1.984 -2.066 c 0 -1.137 -0.891 -2.063 -1.984 -2.063 m 0 1.375 c 0.363 0 0.66 0.309 0.66 0.688 c 0 0.379 -0.297 0.691 -0.66 0.691 c 0 0 -0.367 0 -0.66 0 c 0 -0.383 0 -0.996 0 -1.379 c 0.293 0 0.66 0 0.66 0 m -2.977 -1.375 h -3.637 v 6.883 h 1.324 c 0 0 0 -2.227 0 -2.754 c 0.508 0 2.645 0 2.645 0 v -1.375 c 0 0 -2.137 0 -2.645 0 c 0 -0.383 0 -0.996 0 -1.379 c 0.508 0 2.645 0 2.645 0 v -1.375"/><path d="m 11.82 12.05 v 6.195 h 0.66 v -2.754 h 0.992 c 0.914 0 1.652 -0.77 1.652 -1.723 c 0 -0.949 -0.738 -1.719 -1.652 -1.719 m 0 2.754 c 0 0 -0.516 0 -0.992 0 v -2.066 c 0.477 0 0.992 0 0.992 0 c 0.547 0 0.992 0.465 0.992 1.031 c 0 0.57 -0.445 1.035 -0.992 1.035 m -6.281 3.441 h 0.66 v -2.754 h 2.645 v -0.688 h -2.645 v -2.066 h 2.645 v -0.688 h -3.305" fill="#ff0"/></svg>