<svg xmlns="http://www.w3.org/2000/svg" viewBox="0 0 24 24"><path d="m 0.523 9.262 c 4.625 -22.301 36.441 1.641 17.328 12.977 c -7.426 4.859 -19.707 -1.508 -17.328 -12.977" fill="#2f4e4e"/><path d="m 13.04 5.73 c -0.242 0.051 -0.512 0.18 -0.809 0.371 c -0.594 0.375 -1.305 1.039 -2.066 2.066 c -0.156 0.211 -0.223 0.395 -0.309 0.473 c -0.086 0.082 -0.195 0.145 -0.57 0.008 c -0.773 -0.277 -1.656 0.129 -2.18 0.727 c -0.262 0.297 -0.457 0.68 -0.395 1.105 c 0.063 0.43 0.379 0.754 0.871 0.945 h 0.008 l 0.008 0.004 c 0.336 0.102 0.504 0.238 0.531 0.285 c 0.016 0.023 0.004 0.008 0 -0.004 c 0 -0.012 0.004 0 -0.02 0.035 c -0.09 0.137 -0.559 0.418 -1.035 0.477 c -0.84 0.102 -1.688 0.348 -2.313 0.715 c -0.313 0.18 -0.57 0.391 -0.746 0.668 c -0.18 0.273 -0.254 0.66 -0.137 1 c 0.094 0.273 0.301 0.461 0.516 0.535 c 0.219 0.078 0.453 0.07 0.699 0.02 c 0.496 -0.094 1.047 -0.363 1.535 -0.688 l -0.004 0.004 c 1.906 -1.203 3.918 -0.563 6.01 -0.152 h 0.004 c 3.16 0.617 3.988 2.047 5.395 3.855 c 0.207 0.262 0.395 0.434 0.594 0.516 c 0.199 0.082 0.418 0.047 0.574 -0.074 c 0.316 -0.242 0.434 -0.676 0.531 -1.074 c 0.137 -0.57 0.004 -1.137 -0.262 -1.621 c -0.262 -0.488 -0.652 -0.922 -1.094 -1.32 c -0.879 -0.801 -1.965 -1.457 -2.617 -1.891 c -0.305 -0.203 -0.434 -0.434 -0.445 -0.652 c -0.012 -0.215 0.09 -0.504 0.441 -0.828 c 0.293 -0.273 0.457 -0.594 0.465 -0.922 c 0.008 -0.328 -0.137 -0.609 -0.324 -0.781 c -0.188 -0.172 -0.422 -0.262 -0.664 -0.234 c -0.242 0.027 -0.496 0.203 -0.637 0.512 h -0.004 c -0.09 0.207 -0.199 0.363 -0.277 0.402 c -0.082 0.043 -0.184 0.059 -0.449 -0.199 c -0.336 -0.324 -0.98 -0.57 -2.078 -0.363 c -0.094 0.02 -0.141 0.012 -0.207 0.016 c 0.102 -0.117 0.234 -0.254 0.465 -0.441 c 0.891 -0.719 1.441 -1.375 1.723 -1.937 c 0.145 -0.281 0.223 -0.547 0.219 -0.809 c 0 -0.262 -0.125 -0.523 -0.313 -0.648 c -0.188 -0.125 -0.402 -0.152 -0.645 -0.098 m 0.402 0.66 c 0.039 0.023 0.039 0.016 0.039 0.094 c 0 0.078 -0.031 0.246 -0.141 0.465 c -0.219 0.43 -0.719 1.051 -1.566 1.734 c -0.285 0.23 -0.488 0.426 -0.625 0.602 c -0.141 0.176 -0.266 0.352 -0.219 0.625 c 0.023 0.137 0.109 0.254 0.188 0.309 c 0.078 0.059 0.156 0.078 0.234 0.09 c 0.156 0.027 0.332 0.012 0.531 -0.027 c 1 -0.188 1.504 0.066 1.676 0.234 c 0.344 0.336 0.699 0.426 0.977 0.285 c 0.273 -0.145 0.418 -0.434 0.531 -0.68 c 0.063 -0.133 0.133 -0.176 0.23 -0.188 c 0.098 -0.012 0.219 0.031 0.301 0.109 c 0.082 0.074 0.117 0.156 0.113 0.246 c 0 0.086 -0.043 0.234 -0.254 0.434 c -0.438 0.402 -0.676 0.887 -0.648 1.383 c 0.023 0.492 0.309 0.906 0.719 1.176 c 0.668 0.441 1.73 1.09 2.555 1.84 c 0.41 0.375 0.762 0.773 0.969 1.16 c 0.211 0.383 0.281 0.727 0.191 1.082 c -0.082 0.355 -0.223 0.652 -0.301 0.715 c -0.043 0.031 -0.059 0.043 -0.137 0.012 c -0.074 -0.031 -0.207 -0.133 -0.375 -0.352 c -1.387 -1.777 -2.418 -3.406 -5.695 -4.04 c -2.063 -0.402 -4.23 -1.117 -6.336 0.215 h -0.004 c -0.453 0.301 -0.969 0.543 -1.367 0.621 c -0.199 0.035 -0.367 0.031 -0.477 -0.004 c -0.105 -0.039 -0.145 -0.078 -0.176 -0.168 c -0.047 -0.137 -0.035 -0.211 0.063 -0.359 c 0.098 -0.152 0.297 -0.332 0.566 -0.488 c 0.539 -0.316 1.348 -0.563 2.133 -0.652 c 0.578 -0.07 1.109 -0.281 1.395 -0.715 c 0.07 -0.105 0.129 -0.242 0.137 -0.402 c 0.004 -0.156 -0.047 -0.32 -0.129 -0.441 c -0.164 -0.242 -0.422 -0.379 -0.809 -0.496 l 0.016 0.004 c -0.398 -0.152 -0.496 -0.324 -0.512 -0.438 c -0.016 -0.113 0.047 -0.316 0.234 -0.531 c 0.379 -0.43 1.164 -0.762 1.676 -0.578 c 0.465 0.168 0.813 0.094 1.035 -0.113 c 0.223 -0.207 0.313 -0.461 0.379 -0.551 c 0.73 -0.98 1.398 -1.602 1.922 -1.93 c 0.52 -0.332 0.887 -0.324 0.961 -0.277" fill-opacity="0.102"/><path d="m 12.508 5.078 c -0.242 0.051 -0.512 0.18 -0.809 0.371 c -0.594 0.375 -1.305 1.039 -2.07 2.066 c -0.156 0.211 -0.223 0.395 -0.305 0.473 c -0.086 0.082 -0.195 0.145 -0.57 0.008 c -0.773 -0.277 -1.656 0.129 -2.18 0.727 c -0.262 0.297 -0.457 0.68 -0.395 1.109 c 0.063 0.426 0.375 0.75 0.871 0.941 h 0.008 l 0.008 0.004 c 0.336 0.102 0.5 0.238 0.531 0.285 c 0.016 0.023 0.004 0.008 0 -0.004 c 0 -0.012 0.004 0 -0.02 0.035 c -0.09 0.141 -0.559 0.422 -1.039 0.477 c -0.836 0.102 -1.684 0.348 -2.309 0.715 c -0.313 0.184 -0.57 0.391 -0.75 0.668 c -0.176 0.273 -0.25 0.66 -0.133 1 c 0.094 0.277 0.301 0.461 0.516 0.535 c 0.219 0.078 0.453 0.07 0.699 0.023 c 0.496 -0.098 1.043 -0.367 1.535 -0.691 l -0.004 0.004 c 1.906 -1.203 3.914 -0.563 6.01 -0.152 c 3.164 0.617 3.992 2.047 5.398 3.855 c 0.203 0.262 0.391 0.434 0.59 0.516 c 0.203 0.082 0.418 0.047 0.578 -0.074 c 0.316 -0.242 0.434 -0.676 0.527 -1.074 c 0.137 -0.57 0.004 -1.137 -0.258 -1.621 c -0.262 -0.488 -0.652 -0.922 -1.094 -1.32 c -0.879 -0.801 -1.965 -1.457 -2.617 -1.891 c -0.305 -0.199 -0.434 -0.434 -0.445 -0.648 c -0.012 -0.219 0.09 -0.508 0.441 -0.832 c 0.289 -0.273 0.453 -0.594 0.465 -0.922 c 0.008 -0.328 -0.137 -0.609 -0.324 -0.781 c -0.188 -0.172 -0.422 -0.262 -0.664 -0.234 c -0.242 0.031 -0.496 0.203 -0.641 0.516 c -0.094 0.203 -0.199 0.359 -0.281 0.398 c -0.078 0.043 -0.184 0.059 -0.445 -0.195 c -0.336 -0.328 -0.984 -0.574 -2.078 -0.367 c -0.094 0.02 -0.141 0.012 -0.207 0.016 c 0.098 -0.117 0.234 -0.254 0.465 -0.441 c 0.891 -0.719 1.438 -1.371 1.723 -1.937 c 0.141 -0.281 0.223 -0.547 0.219 -0.809 c -0.004 -0.262 -0.125 -0.523 -0.313 -0.648 c -0.188 -0.121 -0.402 -0.148 -0.645 -0.098 m 0.402 0.66 c 0.039 0.023 0.039 0.016 0.039 0.094 c 0 0.082 -0.035 0.246 -0.145 0.465 c -0.215 0.43 -0.715 1.051 -1.563 1.738 c -0.289 0.23 -0.488 0.422 -0.629 0.598 c -0.141 0.176 -0.262 0.352 -0.215 0.625 c 0.023 0.141 0.105 0.254 0.188 0.309 c 0.078 0.059 0.152 0.078 0.23 0.094 c 0.16 0.023 0.332 0.008 0.535 -0.031 c 1 -0.188 1.5 0.066 1.672 0.234 c 0.348 0.336 0.703 0.43 0.977 0.285 c 0.277 -0.145 0.422 -0.434 0.535 -0.68 c 0.059 -0.133 0.133 -0.176 0.23 -0.188 c 0.098 -0.012 0.219 0.035 0.301 0.109 c 0.082 0.074 0.117 0.156 0.113 0.246 c -0.004 0.086 -0.047 0.238 -0.258 0.434 c -0.434 0.402 -0.672 0.887 -0.645 1.383 c 0.023 0.492 0.309 0.906 0.715 1.176 c 0.672 0.441 1.734 1.09 2.559 1.84 c 0.41 0.375 0.758 0.773 0.969 1.16 c 0.207 0.387 0.277 0.727 0.191 1.082 c -0.086 0.355 -0.223 0.652 -0.305 0.715 c -0.039 0.031 -0.055 0.043 -0.133 0.012 c -0.078 -0.031 -0.207 -0.133 -0.379 -0.352 c -1.383 -1.777 -2.418 -3.406 -5.691 -4.04 c -2.063 -0.402 -4.23 -1.113 -6.336 0.215 h -0.004 c -0.453 0.301 -0.969 0.543 -1.367 0.621 c -0.199 0.039 -0.371 0.031 -0.477 -0.004 c -0.105 -0.039 -0.145 -0.078 -0.176 -0.168 c -0.047 -0.137 -0.035 -0.211 0.063 -0.359 c 0.094 -0.152 0.297 -0.332 0.566 -0.488 c 0.539 -0.316 1.344 -0.559 2.133 -0.652 c 0.578 -0.07 1.109 -0.281 1.395 -0.715 c 0.07 -0.105 0.125 -0.242 0.133 -0.402 c 0.008 -0.156 -0.043 -0.32 -0.125 -0.441 c -0.164 -0.242 -0.422 -0.379 -0.813 -0.496 l 0.016 0.008 c -0.398 -0.156 -0.492 -0.328 -0.508 -0.441 c -0.016 -0.113 0.047 -0.316 0.234 -0.531 c 0.379 -0.43 1.16 -0.762 1.676 -0.578 c 0.465 0.168 0.813 0.094 1.035 -0.113 c 0.223 -0.207 0.313 -0.461 0.379 -0.551 c 0.73 -0.98 1.398 -1.602 1.918 -1.93 c 0.523 -0.332 0.891 -0.324 0.965 -0.277" fill="#1387ff"/></svg>