<svg xmlns="http://www.w3.org/2000/svg" viewBox="0 0 24 24"><path d="m 19.906 4.105 c 12.176 9.828 -5.652 27.574 -16.426 16.238 c -10.801 -9.754 6.05 -28.688 16.426 -16.238" fill="#a9a9a9"/><path d="m 11.383 19.918 c -0.488 -0.129 -1.941 -0.809 -4.68 -2.18 c -0.992 -0.5 -1.863 -0.969 -1.934 -1.039 c -0.297 -0.293 -0.293 -0.246 -0.293 -4.383 c 0 -4.148 0 -4.156 0.297 -4.363 c 0.156 -0.109 3.457 -1.77 4.496 -2.262 c 1.977 -0.938 2.254 -1.031 2.719 -0.914 c 0.496 0.125 1.887 0.77 4.695 2.18 c 0.992 0.5 1.863 0.949 1.934 0.996 c 0.293 0.207 0.293 0.215 0.293 4.363 c 0 4.137 0.004 4.09 -0.289 4.383 c -0.074 0.074 -0.945 0.539 -1.938 1.039 c -2.742 1.375 -4.297 2.098 -4.672 2.176 c -0.117 0.023 -0.242 0.051 -0.281 0.063 c -0.035 0.008 -0.191 -0.016 -0.348 -0.059" fill="#909090"/><path d="m 11.547 19.809 c 0 -0.035 -0.031 -0.063 -0.07 -0.063 c -0.309 0 -6.277 -2.93 -6.555 -3.219 c -0.367 -0.379 -0.336 -0.027 -0.336 -4.305 c 0 -2.777 0.016 -3.922 0.059 -3.953 c 0.035 -0.023 0.09 -0.098 0.125 -0.168 c 0.07 -0.141 0.207 -0.215 2.352 -1.285 c 2.352 -1.172 4.195 -2.027 4.355 -2.031 c 0.039 0 0.07 -0.027 0.07 -0.059 c 0 -0.074 0.309 -0.078 0.441 -0.008 c 0.051 0.031 0.273 0.129 0.492 0.223 c 0.688 0.289 2.313 1.063 4 1.906 c 2.168 1.082 2.223 1.113 2.297 1.258 c 0.031 0.066 0.086 0.141 0.121 0.164 c 0.043 0.031 0.063 1.176 0.063 3.953 c 0 4.277 0.027 3.93 -0.34 4.305 c -0.223 0.234 -4.613 2.422 -6.145 3.066 c -0.219 0.09 -0.441 0.191 -0.496 0.219 c -0.129 0.074 -0.438 0.07 -0.438 -0.004 m 2.211 -1.043 c 2.598 -1.25 2.738 -1.324 2.836 -1.527 c 0.09 -0.184 0.406 -0.438 0.629 -0.508 c 0.09 -0.027 0.129 -0.008 0.148 0.082 c 0.043 0.172 0.117 0.156 0.664 -0.133 c 0.391 -0.207 0.5 -0.297 0.605 -0.492 c 0.137 -0.262 0.152 -0.375 0.074 -0.504 c -0.176 0.055 -0.301 0.098 -0.516 0.141 c -0.066 -0.043 -0.066 -0.566 0 -0.68 c 0.145 -0.105 0.27 -0.082 0.441 -0.078 l 0.043 -0.457 c 0.02 -0.25 0.047 -1.691 0.059 -3.199 c 0.016 -2.086 0.004 -2.746 -0.051 -2.766 c -0.035 -0.016 -0.727 0.297 -1.531 0.695 c -2.145 1.059 -4.371 2.184 -4.57 2.164 c -0.605 -0.07 0.848 -0.582 2.172 -1.289 c 0.762 -0.406 1.48 -0.797 1.598 -0.871 c 0.23 -0.141 0.539 -0.285 1.563 -0.723 c 0.844 -0.367 0.848 -0.418 0.082 -0.773 c -0.309 -0.145 -0.844 -0.398 -1.184 -0.563 c -0.34 -0.164 -0.734 -0.344 -0.879 -0.406 l -0.258 -0.109 l -0.551 0.297 c -0.34 0.18 -0.629 0.293 -0.746 0.293 c -0.34 0 -1.09 -0.492 -1.09 -0.719 c 0 -0.141 0.215 -0.32 0.539 -0.453 c 0.137 -0.055 0.25 -0.133 0.25 -0.172 c 0 -0.039 -0.16 -0.148 -0.352 -0.238 c -0.195 -0.09 -0.645 -0.305 -1 -0.473 c -0.938 -0.441 -0.98 -0.438 -2.398 0.234 c -0.617 0.293 -1.391 0.672 -1.719 0.836 l -0.59 0.305 l 0.223 0.113 c 0.391 0.203 0.34 0.281 -0.438 0.684 c -0.387 0.199 -0.742 0.363 -0.789 0.363 c -0.047 0 -0.199 -0.066 -0.332 -0.148 c -0.137 -0.082 -0.301 -0.152 -0.371 -0.152 c -0.188 0 -1.313 0.543 -1.375 0.668 c -0.039 0.078 -0.027 0.121 0.047 0.16 c 0.391 0.219 2.16 1.078 2.551 1.238 c 0.93 0.383 1.812 0.984 1.441 0.984 c -0.18 0 -1.328 -0.5 -2.391 -1.039 c -0.609 -0.309 -1.234 -0.625 -1.391 -0.699 c -0.152 -0.078 -0.301 -0.148 -0.324 -0.16 c -0.023 -0.016 -0.043 0.152 -0.043 0.371 v 0.395 l 0.27 0.125 c 0.594 0.277 0.992 0.508 1.086 0.637 c 0.09 0.117 0.102 0.262 0.105 1 c 0 1.023 0.02 1.117 0.207 1.066 c 0.109 -0.027 0.137 -0.012 0.141 0.078 c 0 0.059 0.066 0.258 0.145 0.438 c 0.125 0.281 0.141 0.391 0.117 0.711 c -0.039 0.543 -0.09 0.578 -0.594 0.418 c -0.48 -0.152 -0.57 -0.277 -0.574 -0.781 c -0.004 -0.309 -0.012 -0.324 -0.285 -0.543 c -0.309 -0.25 -0.543 -0.379 -0.59 -0.328 c -0.02 0.02 -0.031 0.125 -0.027 0.234 c 0.004 0.109 0.012 0.73 0.02 1.375 l 0.012 1.172 l 0.184 0.184 c 0.176 0.176 0.184 0.191 0.184 0.691 c 0 0.375 0.02 0.535 0.082 0.602 c 0.047 0.047 0.293 0.172 0.551 0.273 c 0.691 0.277 0.848 0.352 1.66 0.797 c 0.406 0.223 0.781 0.402 0.832 0.402 c 0.063 0 0.086 -0.059 0.086 -0.234 c 0 -0.313 0.047 -0.422 0.18 -0.422 c 0.145 0 0.465 0.184 0.809 0.461 c 0.266 0.219 0.285 0.246 0.301 0.539 c 0.008 0.168 0.047 0.332 0.082 0.363 c 0.145 0.117 1.613 0.789 1.727 0.789 c 0.105 0 0.117 -0.035 0.117 -0.301 c 0 -0.336 -0.074 -0.535 -0.195 -0.535 c -0.133 0 -0.211 -0.23 -0.219 -0.652 c 0 -0.266 -0.098 -0.387 0.176 -0.414 c 0.18 -0.02 0.184 -0.027 0.184 -0.313 c 0 -0.16 -0.023 -0.305 -0.051 -0.324 c -0.027 -0.016 -0.027 -0.145 0 -0.285 c 0.023 -0.141 0.047 -0.492 0.047 -0.781 c -0.031 -0.563 -0.148 -0.652 -0.078 -1.141 c 0.039 -0.336 0.121 -0.758 0.148 -0.789 c 0.016 -0.02 0.066 0.012 0.109 0.066 c 0.059 0.078 0.086 0.445 0.113 1.543 c 0.023 0.793 0.027 1.578 0.012 1.742 c -0.031 0.375 0.027 0.488 0.207 0.391 c 0.18 -0.105 0.219 -0.02 0.176 0.387 c -0.027 0.293 -0.059 0.371 -0.16 0.418 c -0.066 0.031 -0.148 0.121 -0.184 0.195 c -0.066 0.16 -0.082 0.75 -0.02 0.816 c 0.07 0.074 0.238 0.004 1.832 -0.766 m -0.074 -0.434 c -0.023 -0.414 0.027 -0.895 0.098 -0.98 c 0.109 -0.133 0.957 -0.602 1 -0.555 c 0.047 0.051 0.047 0.543 0 0.793 c -0.02 0.121 -0.383 0.168 -0.457 0.199 c -0.07 0.027 0.102 0.152 0.078 0.25 c -0.055 0.219 -0.219 0.219 -0.363 0.289 c -0.172 0.078 -0.344 0.242 -0.355 0.004 m -3.238 -1.258 c -0.543 -0.293 -0.59 -0.359 -0.59 -0.883 c 0 -0.25 0.031 -0.473 0.07 -0.531 c 0.066 -0.094 0.094 -0.094 0.41 0.008 c 0.188 0.063 0.363 0.102 0.395 0.094 c 0.137 -0.043 0.238 0.258 0.273 0.828 c 0.043 0.754 0 0.789 -0.559 0.484 m 2.23 -0.16 c 0 -0.156 0.039 -0.242 0.148 -0.332 c 0.207 -0.176 0.246 -0.16 0.246 0.105 c 0 0.242 -0.055 0.324 -0.266 0.395 c -0.117 0.035 -0.129 0.02 -0.129 -0.168 m -5.594 -0.07 c -0.188 -0.109 -0.289 -0.293 -0.242 -0.445 c 0.023 -0.082 -0.023 -0.156 -0.168 -0.273 c -0.203 -0.164 -0.203 -0.168 -0.188 -0.559 c 0.016 -0.379 0.023 -0.395 0.152 -0.379 c 0.078 0.008 0.219 0.082 0.32 0.16 c 0.141 0.113 0.188 0.207 0.219 0.422 c 0.113 0.391 0.371 0.504 0.355 0.805 c -0.012 0.305 -0.027 0.332 -0.156 0.344 c -0.078 0.008 -0.211 -0.023 -0.293 -0.074 m 8.203 -1.133 c 0 -0.313 0.012 -0.332 0.219 -0.48 c 0.117 -0.082 0.23 -0.148 0.246 -0.148 c 0.063 0.305 0.043 0.695 -0.16 0.832 c -0.105 0.066 -0.215 0.125 -0.246 0.125 c -0.031 0 -0.059 -0.148 -0.059 -0.328 m -6.16 0.148 c -0.047 -0.031 -0.133 -0.059 -0.191 -0.059 c -0.059 -0.004 -0.176 -0.063 -0.262 -0.137 c -0.422 -0.355 -0.484 -0.402 -0.547 -0.402 c -0.035 0 -0.117 -0.074 -0.18 -0.16 c -0.109 -0.141 -0.117 -0.238 -0.117 -1.012 c 0 -0.469 0.016 -0.898 0.031 -0.949 c 0.047 -0.125 0.137 -0.121 0.398 0.023 c 0.121 0.066 0.438 0.227 0.707 0.355 c 0.465 0.223 0.492 0.25 0.559 0.48 c 0.055 0.188 0.055 0.336 0.008 0.617 c -0.031 0.207 -0.047 0.582 -0.027 0.836 l 0.031 0.465 h -0.164 c -0.09 0 -0.199 -0.027 -0.246 -0.059 m 3.699 -0.934 c -0.02 -0.051 -0.035 -0.344 -0.035 -0.648 c 0 -0.457 0.02 -0.582 0.105 -0.699 c 0.141 -0.188 1.117 -0.695 1.188 -0.621 c 0.027 0.035 0.039 0.34 0.02 0.707 c -0.035 0.746 -0.027 0.73 -0.617 1.066 c -0.504 0.285 -0.617 0.32 -0.66 0.195 m 3.219 -0.191 c -0.02 -0.039 -0.012 -1.672 0.008 -1.844 c 0.016 -0.121 0.438 -0.391 0.539 -0.348 c 0.027 0.441 -0.008 0.477 -0.027 1.031 c 0.484 -0.258 1 -0.535 1.551 -0.719 c 0.059 0.102 0.098 0.496 0.066 0.648 c -0.043 0.199 -0.375 0.441 -1.289 0.945 c -0.574 0.313 -0.793 0.391 -0.848 0.285 m -11.01 -0.973 c 0.02 -0.031 0.047 -0.059 0.059 -0.059 c 0.016 0 0.027 0.027 0.027 0.059 c 0 0.035 -0.027 0.063 -0.063 0.063 c -0.031 0 -0.043 -0.027 -0.023 -0.063 m 4.965 -0.852 c -0.184 -0.105 -0.43 -0.289 -0.547 -0.406 l -0.207 -0.211 l 0.008 -0.684 c 0.012 -0.816 0.023 -0.828 0.582 -0.531 l 0.371 0.199 l 0.113 -0.164 c 0.137 -0.203 0.488 -0.402 0.703 -0.402 c 0.086 0 0.289 0.059 0.453 0.133 c 0.371 0.16 0.391 0.301 0.07 0.551 c -0.121 0.098 -0.223 0.227 -0.223 0.289 c 0 0.195 -0.113 0.344 -0.254 0.344 c -0.121 0 -0.191 -0.086 -0.285 -0.117 c -0.066 0 -0.082 0.102 -0.082 0.504 c 0 0.273 -0.016 0.543 -0.035 0.598 c -0.051 0.145 -0.301 0.109 -0.668 -0.102 m 7.086 -0.277 c -0.168 -0.582 -0.254 -0.504 0.063 -0.641 c 0.246 -0.102 0.371 -0.266 0.348 -0.391 c -0.063 -0.32 0.02 -0.449 0.43 -0.68 c 0.215 -0.121 0.418 -0.199 0.453 -0.176 c 0.043 0.027 0.055 0.168 0.031 0.426 c -0.027 0.289 -0.07 0.43 -0.176 0.566 c -0.098 0.137 -0.141 0.262 -0.301 0.262 c -0.27 0.238 0.039 0.285 -0.207 0.453 c -0.031 0.09 -0.379 0.125 -0.641 0.18 m -2.855 -0.707 c -0.137 -0.496 0.539 -0.301 0.613 -0.438 c 0.109 -0.176 0.172 -0.305 0.164 -0.477 c -0.012 -0.234 -0.004 -0.25 0.281 -0.422 c 0.16 -0.098 0.32 -0.176 0.355 -0.176 c 0.063 0 0.145 0.734 0.098 0.871 c -0.016 0.039 -0.203 0.156 -0.414 0.254 c -0.297 0.141 -0.391 0.219 -0.406 0.324 c -0.012 0.098 -0.383 0.246 -0.496 0.262 c -0.133 0.016 -0.227 0.066 -0.195 -0.199 m -6.949 -0.176 c -0.02 -0.063 -0.09 -0.176 -0.152 -0.25 c -0.102 -0.121 -0.117 -0.207 -0.109 -0.594 c 0.004 -0.246 0.035 -0.477 0.066 -0.512 c 0.086 -0.09 0.543 0.113 0.684 0.301 c 0.09 0.121 0.113 0.242 0.113 0.586 c 0 0.461 -0.059 0.555 -0.293 0.473 c -0.059 -0.02 -0.145 -0.004 -0.188 0.035 c -0.066 0.059 -0.09 0.051 -0.121 -0.039 m -0.469 -0.68 c 0 -0.031 0.023 -0.059 0.055 -0.059 c 0.031 0 0.059 0.027 0.059 0.059 c 0 0.031 -0.027 0.059 -0.059 0.059 c -0.031 0 -0.055 -0.027 -0.055 -0.059 m 6.551 -1.121 c -0.324 -0.145 -0.375 -0.152 -0.609 -0.086 c -0.242 0.07 -0.273 0.063 -0.605 -0.125 c -0.473 -0.266 -0.492 -0.41 -0.082 -0.613 c 0.359 -0.176 0.391 -0.18 0.738 -0.047 l 0.27 0.102 l 0.355 -0.191 c 0.195 -0.105 0.434 -0.207 0.531 -0.227 c 0.301 -0.066 1.086 0.281 1.172 0.512 c 0.02 0.055 -0.031 0.145 -0.129 0.227 c -0.246 0.211 -1.01 0.613 -1.152 0.609 c -0.074 0 -0.293 -0.074 -0.488 -0.16 m -3.988 -0.875 c -0.438 -0.285 -0.613 -0.469 -0.586 -0.492 c 0.23 -0.297 0.418 -0.313 0.723 -0.441 c 0.465 -0.199 0.668 -0.355 0.523 -0.406 c -0.145 -0.09 -0.395 -0.266 -0.313 -0.414 c 0.082 -0.152 1.137 -0.645 1.355 -0.637 c 0.215 0.008 1.066 0.469 1.117 0.605 c -0.066 0.324 -0.488 0.484 -0.629 0.598 c -0.09 0.02 0.168 0.133 0.348 0.227 c 0.418 0.215 0.289 0.5 -0.395 0.871 c -0.188 0.102 -0.441 0.242 -0.563 0.324 c -0.402 0.266 -0.66 0.082 -0.832 -0.129 c -0.387 0.137 -0.516 0.25 -0.75 -0.105 m -2.32 -0.262 c -0.258 -0.133 -0.273 -0.238 -0.059 -0.375 c 0.23 -0.152 0.328 -0.148 0.512 0.004 c 0.203 0.168 0.188 0.285 -0.047 0.387 c -0.18 0.109 -0.258 0.063 -0.406 -0.016 m 9.359 -0.332 c -0.227 -0.141 -0.41 -0.285 -0.41 -0.324 c 0 -0.074 0.676 -0.438 0.82 -0.438 c 0.109 0 0.738 0.336 0.785 0.422 c 0.055 0.086 -0.063 0.219 -0.332 0.383 c -0.383 0.234 -0.426 0.23 -0.863 -0.043 m -3.23 -0.418 c -0.191 -0.102 -0.258 -0.172 -0.27 -0.293 c -0.016 -0.137 0.004 -0.16 0.18 -0.191 c 0.113 -0.023 0.285 -0.055 0.391 -0.074 c 0.246 -0.047 0.602 0.109 0.602 0.262 c 0 0.129 -0.125 0.258 -0.355 0.359 c -0.207 0.098 -0.25 0.09 -0.547 -0.063 m -3.09 -2.156 c 0.012 -0.039 0.148 -0.137 0.301 -0.215 c 0.254 -0.129 0.305 -0.137 0.531 -0.07 c 0.332 0.094 0.445 0.199 0.34 0.336 c -0.09 0.113 -0.469 0.328 -0.574 0.324 c -0.23 -0.082 -0.469 -0.188 -0.598 -0.375" fill="#686868"/></svg>