<svg xmlns="http://www.w3.org/2000/svg" viewBox="0 0 24 24"><path d="m 12.195 23.91 c -15.797 1.801 -16.09 -23.992 -0.188 -23.688 c 14.762 -0.848 16.613 25.09 0.188 23.688" fill="#acd7e5"/><path d="m 7.844 16.754 v 0.887 c 0 0.52 0.375 0.938 0.855 0.973 v 0.473 c 0 0.258 0.188 0.465 0.426 0.465 h 0.852 c 0.238 0 0.426 -0.207 0.426 -0.465 v -0.465 h 3.414 v 0.465 c 0 0.258 0.191 0.465 0.426 0.465 h 0.855 c 0.234 0 0.426 -0.207 0.426 -0.465 v -0.473 c 0.477 -0.035 0.852 -0.453 0.852 -0.973 v -0.887" fill-opacity="0.2"/><path d="m 8.758 6.492 c -0.504 0 -0.914 0.438 -0.914 0.98 v 1.352 h 8.531 v -1.352 c 0 -0.543 -0.406 -0.98 -0.914 -0.98" fill="#ffab27"/><path d="m 7.844 16.289 v 0.883 c 0 0.543 0.41 0.98 0.914 0.98 h 6.703 c 0.508 0 0.914 -0.438 0.914 -0.98 v -0.883" fill="#17b372"/><path d="m 7.844 8.824 h 8.531 v 2.332 h -8.531" fill="#ef2095"/><path d="m 7.844 11.625 h 8.531 v 2.332 h -8.531" fill="#4b3c9b"/><path d="m 7.844 13.957 h 8.531 v 2.332 h -8.531" fill="#0184bb"/><path d="m 9.336 8.82 c -0.121 0.004 -0.215 0.109 -0.211 0.238 v 1.398 c 0 0.129 0.094 0.234 0.211 0.234 c 0.121 0 0.215 -0.105 0.215 -0.234 v -1.398 c 0 -0.063 -0.023 -0.125 -0.063 -0.168 c -0.039 -0.047 -0.098 -0.07 -0.152 -0.07 m 0 4.199 c -0.121 0 -0.215 0.105 -0.211 0.234 v 1.402 c 0 0.129 0.094 0.23 0.211 0.23 c 0.121 0 0.215 -0.102 0.215 -0.23 v -1.402 c 0 -0.063 -0.023 -0.121 -0.063 -0.168 c -0.039 -0.043 -0.098 -0.066 -0.152 -0.066" fill-opacity="0.2"/><g fill="none" stroke="#fff" stroke-linejoin="round" stroke-linecap="round" transform="matrix(0.4266 0 0 0.46641 5.285 5.56)"><path d="m 9.496 6.496 v 3.01"/><path d="m 9.496 15.5 v 2.998"/></g><g fill="#17b372"><path d="m 8.793 17.219 h 1.516 c 0.055 0 0.094 0.043 0.094 0.094 v 1.68 c 0 0.051 -0.039 0.094 -0.094 0.094 h -1.516 c -0.055 0 -0.094 -0.043 -0.094 -0.094 v -1.68 c 0 -0.051 0.039 -0.094 0.094 -0.094"/><path d="m 13.91 17.219 h 1.52 c 0.051 0 0.094 0.043 0.094 0.094 v 1.68 c 0 0.051 -0.043 0.094 -0.094 0.094 h -1.52 c -0.051 0 -0.094 -0.043 -0.094 -0.094 v -1.68 c 0 -0.051 0.043 -0.094 0.094 -0.094"/></g><g fill-opacity="0.2"><path d="m 8.758 6.492 c -0.504 0 -0.914 0.438 -0.914 0.98 v 0.465 c 0 -0.543 0.406 -0.977 0.914 -0.977 h 6.703 c 0.508 0 0.914 0.434 0.914 0.977 v -0.465 c 0 -0.543 -0.406 -0.98 -0.914 -0.98" fill="#fff"/><path d="m 7.844 11.156 h 8.531 v 0.469 h -8.531"/></g><path d="m 7.844 11.625 h 8.531 v 0.465 h -8.531" fill="#fff" fill-opacity="0.102"/></svg>