<svg xmlns="http://www.w3.org/2000/svg" viewBox="0 0 24 24"><path d="m 19.05 2.344 c -18.05 -11.996 -29.16 26.26 -5.832 21.19 c 9.637 -2.156 15.488 -15.691 5.832 -21.19" fill="#2c3d4f"/><g fill-rule="evenodd" stroke-width="3.938" transform="scale(0.09375)"><path d="m 112.79 142.67 l -11.04 -11.458 l 4.667 -4.75 l 4.708 -4.75 l 6.583 6.5 l 6.583 6.542 l 10.25 -10.583 c 5.625 -5.833 17 -17.583 25.333 -26.12 l 15.13 -15.542 l 9.5 9.5 l -29.08 30.458 c -15.958 16.75 -29.625 30.75 -30.333 31.08 c -0.708 0.333 -6.25 -4.583 -12.292 -10.875" fill="#fff" stroke="#fff"/><path d="m 109 192.21 c -15.208 -3.083 -28.375 -12.12 -36.708 -25.292 c -3.625 -5.75 -7.25 -17.17 -7.875 -24.958 c -2.417 -29.333 18.625 -56.08 47.04 -59.75 l 5.708 -0.708 v 7.083 c 0 6.833 -0.083 7.083 -3 7.625 c -9.833 1.917 -13.333 3.208 -18.667 6.833 c -6.917 4.708 -13.5 13.583 -15.792 21.25 c -2.042 6.833 -2.042 19.417 -0.083 26 c 3.417 11.333 13.13 21.708 24.5 26.17 c 6.625 2.583 19.583 2.583 26.04 0.042 c 14.5 -5.792 23.75 -17.75 26.542 -34.458 l 0.667 -4.04 h 12.917 v 3.5 c 0 5.25 -2.75 14.5 -6.5 22.17 c -6.875 13.958 -22.583 25.583 -38.42 28.458 c -7.208 1.333 -10.08 1.333 -16.375 0.083" fill="#2ecc70" stroke="#2ecc70"/></g></svg>