<svg xmlns="http://www.w3.org/2000/svg" viewBox="0 0 24 24"><defs><linearGradient id="0" gradientUnits="userSpaceOnUse" x1="-0.093" y1="-0.093" x2="45.31" y2="44.651" gradientTransform="matrix(0.97772 0 0 0.9791 0.956 18.985)"><stop stop-color="#7f7f7f"/><stop offset="1" stop-color="#fff"/></linearGradient><linearGradient id="1" gradientUnits="userSpaceOnUse" x1="37.687" x2="62.28"><stop stop-color="#7f7f00"/><stop offset="1" stop-color="#ff0"/></linearGradient></defs><path d="m 17.14 0.289 c -34.516 -2.383 -8.645 43.656 6.02 13.34 c 2.02 -4.672 0.543 -11.637 -6.02 -13.34" fill="#453330"/><g stroke="#000"><path d="m 0.966 19 h 44.04 v 44.02 h -44.04" transform="matrix(0.20629 0 0 0.18819 6.03 4.974)" fill="url(#0)" fill-rule="evenodd" stroke-width="0.519"/><g fill="none" stroke-width="1.199" transform="matrix(0.20629 0 0 0.18819 6.03 4.974)"><path d="m 23.1 18.859 v 44.05"/><path d="m 45.12 62.904 v -44.05"/><path d="m 0.834 41.13 h 44.04"/><path d="m 44.878 63.15 h -44.04"/></g></g><g fill-rule="evenodd"><path d="m 0.114 19.606 l 29.445 28.997" transform="matrix(0.20629 0 0 0.18819 6.03 4.974)" fill="#7f0000" stroke="#ac0000" stroke-width="1.739"/><g stroke="#000" stroke-width="0.586"><path d="m 38.28 52.28 l 17.564 -29.29 l 5.86 3.528 l -18.748 29.27" transform="matrix(0.25732 0 0 0.23474 3.225 -0.784)" fill="url(#1)"/><path d="m 38.28 52.28 v 8.204 l 4.676 -4.693" transform="matrix(0.25732 0 0 0.23474 3.225 -0.784)" fill="#d28d5f"/></g></g><path d="m 38.579 59.49 l -2.96 4.327" transform="matrix(0.25732 0 0 0.23474 3.225 -0.784)" fill="none" stroke="#000" stroke-width="1.171"/></svg>