<svg xmlns="http://www.w3.org/2000/svg" viewBox="0 0 24 24"><path d="m 244.85 882.38 c 49.684 128.51 -89.54 194.4 -176.22 161.64 c -60.52 -22.851 -90.67 -113.96 -47.71 -187.62 c 54.22 -92.92 185.63 -73.15 223.93 25.971" transform="matrix(0 -0.09301 -0.09265 0 97.64 23.887)" fill="#8b0000" stroke="#8b0000"/><g fill="#fff" transform="scale(0.09375)"><g stroke-width="0.467"><g stroke="#fff"><path d="m 63.13 117.25 c -7.25 -2.083 -12.333 -8.583 -13.167 -16.833 c -1.458 -14.75 10.875 -24 26.625 -19.917 l 3.375 0.833 v 4.167 c 0 3.583 -0.208 4.167 -1.417 4.167 c -1.042 0 -1.625 -0.792 -2.125 -2.875 c -0.792 -3.458 -3 -4.833 -7.792 -4.833 c -4.875 0 -8.917 2.583 -11.25 7.167 c -3.75 7.458 -1.833 19.75 3.708 23.75 c 2.375 1.75 7.333 2.833 11.125 2.458 l 2.458 -0.208 v -13.12 l -2.25 -0.458 c -4.458 -0.917 -2.167 -1.792 4.5 -1.792 c 6.583 0 8.833 0.833 4.917 1.833 c -1.833 0.5 -1.875 0.667 -1.875 7.417 v 6.917 l -2.833 0.75 c -5.208 1.417 -10.333 1.625 -14 0.583"/><path d="m 108.04 117.21 c -6.04 -1.583 -11 -6.125 -13.167 -12.04 c -1.375 -3.708 -1.042 -11.542 0.583 -15.292 c 1.625 -3.75 4.708 -7.125 8.08 -8.917 c 2.958 -1.583 12.708 -2.167 16.833 -1.042 l 3.208 0.917 v 4.208 c 0 3.708 -0.167 4.25 -1.5 4.25 c -1.125 0 -1.5 -0.542 -1.542 -2.167 c 0 -2.75 -0.667 -3.75 -3.25 -4.75 c -9.292 -3.625 -17.833 3.583 -17.875 15.04 c 0 8.208 2.5 13.583 7.708 16.333 c 2.542 1.333 10.125 1.667 11.25 0.5 c 0.417 -0.417 0.667 -3.333 0.542 -6.5 c -0.25 -5.708 -0.25 -5.708 -2.708 -6.458 c -4.208 -1.25 -2.708 -1.958 4.375 -1.958 c 6.542 0 8.833 0.875 4.917 1.875 c -1.875 0.458 -1.917 0.667 -1.917 7.375 v 6.917 l -2.833 0.833 c -4.125 1.167 -10.04 1.583 -12.708 0.875"/><path d="m 135.67 116.88 c 0 -0.75 4.542 -8.458 10.125 -17.208 c 5.542 -8.708 9.917 -16.12 9.75 -16.417 c -0.417 -0.708 -12.458 -0.792 -14.167 -0.125 c -0.625 0.25 -1.375 1.625 -1.667 3.083 c -0.333 1.875 -0.875 2.625 -1.917 2.625 c -1.208 0 -1.417 -0.583 -1.417 -3.875 v -3.833 h 12.875 c 7.04 0 12.833 0.292 12.833 0.667 c 0 0.333 -4.583 7.875 -10.208 16.75 c -5.625 8.833 -10.208 16.375 -10.208 16.708 c 0 0.375 3.583 0.667 7.917 0.667 c 8.75 0 9.5 -0.417 9.5 -5.375 c 0 -1.833 0.292 -2.375 1.5 -2.375 c 1.333 0 1.5 0.542 1.5 5.04 v 5.04 h -13.208 c -12.12 0 -13.25 -0.125 -13.208 -1.375"/></g><path d="m 55.54 175.67 c -13.75 -7 -12.875 -28.833 1.333 -34.917 c 3.167 -1.375 11.333 -1.5 15.75 -0.292 l 3.208 0.917 v 4.208 c 0 3.667 -0.208 4.25 -1.458 4.25 c -1.083 0 -1.542 -0.75 -1.917 -3.042 c -0.667 -3.792 -3.167 -5.04 -9.125 -4.542 c -5 0.417 -7.583 2.167 -10.08 6.75 c -2.458 4.5 -2.542 13.5 -0.208 18.625 c 2.417 5.208 5.958 7.333 12.167 7.333 h 4.958 v -13.12 l -2.083 -0.25 c -1.125 -0.125 -2.083 -0.583 -2.083 -0.958 c 0 -0.417 3.083 -0.75 6.792 -0.75 c 3.75 0 6.833 0.333 6.833 0.75 c 0 0.375 -0.792 0.833 -1.708 0.958 c -1.625 0.208 -1.708 0.625 -1.917 7.333 l -0.208 7.04 l -3.333 0.875 c -6 1.542 -12.5 1.083 -16.917 -1.167" stroke="#30666c"/><g stroke="#fff"><path d="m 85.58 175.42 c -2.75 -2.833 -2.917 -6.333 -0.458 -8.875 c 1.75 -1.792 5.917 -3.625 11.667 -5.125 c 3.542 -0.875 3.875 -1.75 2.417 -6.04 c -0.917 -2.625 -2.792 -3.542 -6.458 -3.083 c -1.833 0.208 -2.208 0.625 -2.417 2.75 c -0.208 2.292 -0.458 2.542 -2.833 2.542 c -2 0 -2.583 -0.333 -2.583 -1.417 c 0 -5.333 13.75 -8.08 17.5 -3.5 c 0.708 0.875 1.125 4.542 1.375 11.792 c 0.375 10.167 0.458 10.542 2.083 10.75 c 3.208 0.458 1.708 1.708 -2.083 1.708 c -3.25 0 -3.75 -0.208 -3.75 -1.542 c 0 -1.958 0.042 -1.958 -3.917 0.375 c -4.5 2.625 -7.75 2.542 -10.542 -0.333 m 11.208 -1.583 l 3.25 -1.5 v -5.04 c 0 -2.792 -0.333 -5.083 -0.75 -5.083 c -1.458 0 -8.958 3.167 -9.708 4.083 c -0.417 0.542 -1 1.875 -1.292 3.042 c -0.417 1.625 -0.083 2.5 1.417 4.04 c 2.292 2.375 2.917 2.417 7.083 0.458"/><path d="m 110.63 176.13 c 0 -0.417 0.833 -0.75 1.875 -0.75 h 1.875 v -21.667 l -2.083 -0.083 l -2.042 -0.042 l 2.333 -1.083 c 1.292 -0.583 3.25 -1.292 4.333 -1.542 c 1.667 -0.458 2 -0.25 2 1.042 v 1.625 l 3.458 -1.583 c 4.667 -2.125 7.5 -2.083 9.792 0.125 c 1.875 1.792 1.917 1.792 4.708 0.417 c 4.5 -2.208 6.875 -2.708 9.125 -1.917 c 3.583 1.25 4.208 3.292 4.542 14.417 c 0.333 10.208 0.333 10.292 2.125 10.292 c 1 0 1.792 0.333 1.792 0.75 c 0 0.458 -2.5 0.792 -6.04 0.792 c -3.333 0 -6.04 -0.333 -6.04 -0.75 c 0 -0.375 0.75 -0.833 1.708 -0.958 c 1.625 -0.25 1.708 -0.583 1.917 -9.04 c 0.25 -10.75 -0.458 -12.458 -5.208 -12.458 c -5.833 0 -6 0.292 -6 11.625 c 0 9.5 0.083 10 1.542 10 c 0.833 0 1.5 0.375 1.5 0.792 c 0 0.458 -2.417 0.792 -5.667 0.792 c -3.292 0 -5.667 -0.333 -5.667 -0.792 c 0 -0.417 0.833 -0.792 1.875 -0.792 h 1.875 v -9.08 c 0 -10.667 -0.708 -12.542 -4.875 -12.542 c -1.417 0 -3.458 0.333 -4.5 0.75 l -1.958 0.75 v 10.08 c 0 9.542 0.083 10.08 1.542 10.08 c 0.833 0 1.5 0.333 1.5 0.75 c 0 0.458 -2.417 0.792 -5.667 0.792 c -3.292 0 -5.667 -0.333 -5.667 -0.792"/><path d="m 164.21 176 c -7.875 -4.625 -7.958 -19 -0.208 -23.917 c 2.958 -1.875 8.833 -2.25 11.583 -0.75 c 2.333 1.292 4.583 5.375 4.583 8.375 v 2.5 h -17.583 l 0.375 3.458 c 0.917 8.333 7.458 11.667 15.13 7.625 c 1.833 -0.958 2.083 -0.917 2.083 0.167 c 0 1.708 -5.792 4.167 -9.833 4.167 c -2.083 0 -4.458 -0.625 -6.167 -1.625 m 11.458 -17.708 c 0 -2.75 -2.917 -6.125 -5.292 -6.125 c -3.708 0 -7.542 3.958 -7.542 7.833 c 0 0.375 2.875 0.667 6.417 0.667 h 6.417"/></g></g><path d="m 190.25 178.58 c -2.083 -0.375 -2.458 -1.042 -2.458 -4.542 c 0 -4.875 2.292 -5.542 3.833 -1.125 c 1.792 5.083 10.458 5.875 13.958 1.333 c 2.625 -3.417 0.583 -6.542 -6.167 -9.417 c -8.25 -3.542 -10.542 -5.625 -10.542 -9.625 c 0 -6.083 8.04 -9.875 17.792 -8.458 c 4.167 0.583 4.333 0.75 4.625 4.542 c 0.292 3.042 -0.042 3.917 -1.333 3.917 c -1.083 0 -1.667 -0.833 -1.667 -2.292 c 0 -4.542 -9.417 -5.917 -12.542 -1.833 c -2.667 3.5 -0.667 6.25 7.04 9.583 c 10.333 4.5 12.542 9.417 6.708 15 c -2.792 2.708 -3.708 3 -9.958 3.167 c -3.792 0.125 -7.958 0 -9.292 -0.25" stroke="#fff" stroke-width="0.61"/></g></svg>