<svg xmlns="http://www.w3.org/2000/svg" viewBox="0 0 24 24"><path d="m 4.945 21.66 c 18.05 11.996 29.16 -26.26 5.832 -21.2 c -9.637 2.16 -15.488 15.691 -5.832 21.2" fill="#dcdcdc"/><path d="m 15.996 19.566 c -0.137 -0.055 -0.391 -0.125 -0.566 -0.16 c -0.402 -0.078 -1.754 -1.227 -2.063 -1.75 l -0.23 -0.395 l -1.152 -0.066 c -1.063 -0.059 -1.176 -0.09 -1.445 -0.375 c -0.273 -0.289 0.055 -0.098 -0.148 0.07 c -0.344 -0.055 -0.867 0.027 -1.184 -0.176 c -0.137 -0.082 -0.426 -0.188 -0.648 -0.234 c -0.27 -0.051 -1.082 -0.531 -1.207 -0.754 c -0.137 -0.238 0.344 0.02 0.094 0.02 c -0.238 0 -0.574 -0.195 -1.156 -0.672 c -0.645 -0.531 -0.922 -0.867 -1.336 -1.625 c -0.289 -0.527 0.152 -0.039 0.047 0.074 c -0.156 0.172 -0.895 -1.262 -0.766 -2.02 c 0.207 -1.207 0.199 -1.5 0.457 -1.602 c 0.184 -0.074 -0.027 0.266 0.02 0 c 0.07 -0.402 0.672 -1.434 1.078 -1.848 c 0.578 -0.594 2.324 -1.742 2.645 -1.742 c 0.086 0 0.324 -0.082 0.527 -0.184 c 0.203 -0.102 0.566 -0.215 0.805 -0.254 c 0.32 -0.051 0.313 -0.094 0.496 -0.148 c 0.348 -0.102 0.297 -0.098 1.859 -0.188 c 1.406 -0.082 2.582 0.328 2.566 0.438 c -0.047 0.344 -0.707 -0.113 -0.313 -0.113 c 0.23 0 0.488 0.074 0.57 0.168 c 0.082 0.09 0.352 0.191 0.602 0.23 c 0.715 0.102 1.488 0.473 1.648 0.789 c 0.086 0.172 0.059 -0.016 0.477 0.348 c 0.375 0.324 1.133 0.754 1.707 1.754 l 0.449 0.895 l 0.055 1.313 c 0.059 1.328 0 1.328 -0.496 2.234 c -0.57 1.035 -1.469 1.855 -2.879 2.625 l -0.844 0.465 l 0.086 0.727 c 0.047 0.402 0.145 0.848 0.215 0.988 c 0.133 0.266 0.664 0.492 1.148 0.492 c 0.152 0 0.402 0.094 0.563 0.211 c 0.246 0.18 0.262 0.238 0.121 0.395 c -0.184 0.199 -1.352 0.242 -1.801 0.066 m -0.895 -1.523 c -0.137 -0.887 -0.16 -1.832 -0.051 -2.086 c 0.094 -0.211 0.367 -0.402 0.938 -0.652 c 1.254 -0.543 2.395 -1.668 2.781 -2.746 c 0.207 -0.57 0.168 -1.871 -0.074 -2.547 c -0.34 -0.945 -1.633 -2.133 -2.883 -2.648 c -1.328 -0.551 -2.207 -0.73 -3.582 -0.734 c -1.289 -0.008 -2.551 0.234 -3.445 0.66 c -0.176 0.082 -0.363 0.152 -0.414 0.152 c -0.246 0 -1.512 0.973 -1.965 1.508 c -2.203 2.59 -0.492 5.867 3.637 6.957 c 0.418 0.113 1.145 0.184 1.875 0.184 c 1.105 0 1.211 0.02 1.5 0.281 c 0.168 0.152 0.402 0.469 0.516 0.703 c 0.441 0.883 1.258 1.563 1.168 0.969 m -6.547 -3.922 c -0.18 -0.117 -0.273 -0.277 -0.246 -0.43 c 0.031 -0.207 0.117 -0.242 0.609 -0.246 c 0.633 -0.008 0.969 -0.188 0.969 -0.523 c 0 -0.188 -0.059 -0.211 -0.363 -0.148 c -0.727 0.145 -1.242 -0.422 -1.238 -1.367 c 0 -0.637 0.262 -1.051 0.914 -1.453 c 0.336 -0.207 0.547 -0.262 0.805 -0.211 c 0.688 0.137 0.758 0.328 0.703 1.867 c -0.051 1.453 -0.203 1.996 -0.676 2.387 c -0.355 0.289 -1.125 0.355 -1.477 0.125 m 1.262 -2.254 c 0.105 -0.098 0.199 -0.234 0.207 -0.309 c 0.102 -0.988 0.043 -1.152 -0.367 -1.035 c -0.539 0.156 -0.84 1.176 -0.418 1.398 c 0.293 0.156 0.355 0.152 0.578 -0.055 m 2.094 0.852 c -0.398 -0.145 -0.789 -0.715 -0.789 -1.152 c 0 -0.5 0.422 -1.371 0.773 -1.594 c 0.434 -0.277 0.93 -0.215 1.352 0.172 c 0.328 0.297 0.355 0.367 0.203 0.504 c -0.145 0.133 -0.246 0.137 -0.582 0.02 c -0.383 -0.129 -0.426 -0.121 -0.707 0.176 c -0.313 0.328 -0.398 0.906 -0.16 1.043 c 0.074 0.039 0.434 0.07 0.793 0.063 c 0.828 -0.02 0.957 0.148 0.445 0.563 c -0.402 0.328 -0.828 0.395 -1.332 0.207 m 2.539 -0.141 c -0.961 -0.922 -0.406 -2.809 0.824 -2.809 c 0.535 0 1.059 0.582 1.129 1.246 c 0.141 1.313 -1.145 2.34 -1.953 1.563 m 0.969 -0.707 c 0.301 -0.191 0.367 -0.691 0.145 -1.07 c -0.141 -0.242 -0.488 -0.281 -0.711 -0.082 c -0.195 0.184 -0.191 1.18 0.008 1.254 c 0.242 0.086 0.27 0.082 0.559 -0.102" fill="#2f4e4e"/></svg>