<svg xmlns="http://www.w3.org/2000/svg" viewBox="0 0 24 24"><path d="m 2.086 17.719 c -12.551 -30.402 40.24 -16.12 14.605 3.734 c -4.598 3.457 -12.32 3.727 -14.605 -3.734" fill="#dd9fdd"/><path d="m 7.148 18.18 v -12.12 c 0.172 -0.184 0.258 -0.23 0.305 -0.363 l 3.242 0.004 h 3.246 l 0.082 0.211 c 0.121 0.316 0.117 1.668 -0.004 1.934 c -0.047 0.102 -0.078 0.23 -0.066 0.281 c 0.027 0.133 -0.082 0.398 -0.391 0.398 c -0.27 0 -0.398 -0.293 -0.398 -0.441 c 0 -0.039 -0.023 -0.086 -0.055 -0.105 c -0.063 -0.043 -1.895 -0.027 -2 0.016 c -0.039 0.016 -0.156 -0.02 -0.176 0.285 c -0.012 0.121 -0.105 0.051 -0.922 0.855 c -0.805 0.789 -1.391 1.316 -1.391 1.453 c 0.711 1.012 1.473 1.965 2.273 2.82 l 0.02 1.535 c 0.027 1.848 -0.008 1.898 0.086 1.996 c 0.09 0.094 0.152 0.102 0.863 0.102 c 0.688 0 0.777 -0.008 0.848 -0.09 c 0.078 -0.094 0.109 -0.484 0.043 -0.59 c -0.074 -0.121 -0.258 -0.18 -0.441 -0.145 c -0.23 0.039 -0.418 -0.07 -0.418 -0.25 c 0 -0.066 0.023 -0.137 0.051 -0.156 c 0.027 -0.016 0.563 -0.039 1.195 -0.047 c 0.977 -0.016 1.152 -0.008 1.203 0.055 c 0.043 0.059 0.063 0.375 0.063 1.191 l 0.004 1.113 c -0.094 0.141 -0.188 0.281 -0.281 0.422 l -3.293 0.004 h -3.297 c -0.152 -0.133 -0.25 -0.211 -0.391 -0.363" fill="#860d86"/><g fill="#fff"><path d="m 9.805 10.344 l -0.598 -0.02 l 0.535 -0.543 c 0.297 -0.297 0.672 -0.668 0.84 -0.824 l 0.305 -0.277 l 2.457 0.016 l 2.457 0.02 l 0.605 0.57 c 0.332 0.313 0.711 0.668 0.84 0.793 l 0.238 0.227 l -1.074 0.043 c -1.035 0.039 -5.375 0.039 -6.605 -0.004"/><path d="m 12.613 14.855 c -0.668 -0.695 -1.395 -1.504 -1.883 -2.098 c -0.547 -0.668 -1.289 -1.602 -1.441 -1.809 l -0.125 -0.176 c 2.902 0.055 5.891 0.094 8.258 0.082 c 0.027 0.031 -0.438 0.566 -1.133 1.309 c -0.5 0.656 -1.117 1.219 -1.656 1.773 c -1.125 1.172 -1.406 1.453 -1.461 1.453 c -0.023 0 -0.273 -0.242 -0.559 -0.535"/></g></svg>