<svg xmlns="http://www.w3.org/2000/svg" viewBox="0 0 24 24"><path d="m 9.324 0.277 c -9.754 1.488 -12.363 14.707 -5.402 20.543 c 5.172 5.137 15.07 3.855 18.469 -2.445 c 4.543 -7.238 -1.074 -17.781 -10.113 -18.355 c -0.992 -0.063 -1.992 0.023 -2.953 0.258" fill="#e3dfe5"/><path d="m 10.574 3.988 c 0.406 0 0.813 0 1.215 0 c 0.063 1.625 0.027 3.383 -0.004 4.777 c -0.402 0 -0.805 0 -1.211 0 c 0 -1.641 0 -3.113 0 -4.777" fill="#62c86b"/><path d="m 4.141 7.32 c -0.281 -0.227 -0.285 -0.25 -0.254 -1.164 l 0.027 -0.934 l 2.695 1.984 c 1.484 1.094 2.785 2.051 2.891 2.125 c 0.191 0.137 0.184 0.16 -0.191 0.707 c -0.215 0.309 -0.422 0.586 -0.465 0.613 c -1.559 -1.07 -3.191 -2.211 -4.703 -3.332" fill="#60906a"/><path d="m 3.863 13.555 c 0 -0.797 0.004 -0.809 0.281 -0.863 c 0.602 -0.125 3.457 -0.559 3.879 -0.59 c 0.5 -0.035 0.516 -0.012 0.66 0.949 c 0.055 0.371 0.039 0.48 -0.082 0.527 c -0.156 0.059 -4.437 0.781 -4.633 0.781 c -0.063 0 -0.105 -0.32 -0.105 -0.805" fill="#e3ad61"/><path d="m 6.367 19.11 c 1.117 -1.797 2.051 -3.02 3.273 -4.652 c 0.16 0.172 1.078 0.711 0.973 0.949 c -0.227 0.391 -2.961 4.195 -3.281 4.566 c -0.344 -0.094 -1.066 -0.52 -0.965 -0.863" fill="#e36962"/><path d="m 12.469 19.977 c -0.027 -0.098 -0.176 -1.105 -0.324 -2.238 c -0.199 -1.488 -0.246 -2.098 -0.168 -2.176 c 0.438 -0.156 0.809 -0.125 1.289 -0.137 l 0.07 0.41 c 0.039 0.223 0.195 1.246 0.344 2.273 c 0.313 2.133 0.336 2.043 -0.578 2.047 c -0.465 0 -0.59 -0.035 -0.633 -0.18" fill="#606ecd"/><path d="m 18.813 18.03 c -0.363 -0.27 -1.551 -1.145 -2.641 -1.945 c -1.094 -0.801 -2 -1.469 -2.02 -1.484 c -0.055 -0.039 0.816 -1.258 0.898 -1.258 c 0.074 0 2.34 1.551 3.738 2.559 l 0.84 0.605 c -0.051 0.652 0.09 1.414 -0.078 2.02 c -0.293 -0.172 -0.512 -0.328 -0.738 -0.496" fill="#608de5"/><path d="m 16.15 10.613 c 1.516 -0.18 3.082 -0.559 4.316 -0.727 c 0.117 0.508 0.078 0.922 0.078 1.484 l -1.957 0.273 c -1.078 0.152 -2.01 0.277 -2.078 0.277 c -0.191 -0.934 -0.234 -0.461 -0.359 -1.309" fill="#aa5c62"/><path d="m 13.32 8.941 c 0 -0.121 0.191 -0.426 1.906 -3.055 l 1.25 -1.91 c 0.305 0.168 1.324 0.879 1.164 1.035 c -0.945 1.492 -2.172 3.465 -3.227 4.77 c -0.375 -0.273 -0.813 -0.445 -1.094 -0.84" fill="#e35c62"/><path d="m 11.848 13.375 c -0.309 -0.098 -1.172 -0.352 -1.172 -0.383 c 0 -0.141 0.645 -2.16 0.711 -2.23 c 0.117 -0.117 1.73 0.43 1.73 0.586 c 0 0.066 -0.188 0.555 -0.309 1.109 c -0.301 1.402 -0.254 1.141 -0.961 0.918" fill="#977f86"/></svg>