<svg xmlns="http://www.w3.org/2000/svg" viewBox="0 0 24 24"><path d="m 18.18 21.06 c 21.254 -19.758 -22.609 -32.21 -17.773 -5.977 c 2.387 6.922 10.949 12.32 17.773 5.977" fill="#03a9f4"/><g fill="none" stroke="#e0f4fd" stroke-linejoin="round" stroke-width="4"><g transform="matrix(0.51262 0 0 0.44719 -1.16 15.782)"><path d="m 30 -12 c 0 3.319 -2.682 6 -5.997 6 c -3.315 0 -6 -2.682 -6 -6" stroke-linecap="square"/><g stroke-linecap="round"><path d="m 30 -19.996 v 17.994"/><path d="m 30 -2 c 0 3.319 -2.682 6 -5.997 6 c -2.72 0 -5.098 -1.826 -5.799 -4.446"/></g></g><path d="m -17.998 14.03 c 0 3.311 -2.69 6 -6 6 c -3.315 0 -5.997 -2.69 -5.997 -6" transform="matrix(-0.51262 0 0 -0.44719 -1.16 15.782)" stroke-linecap="square"/></g></svg>