<svg xmlns="http://www.w3.org/2000/svg" viewBox="0 0 24 24" xmlns:xlink="http://www.w3.org/1999/xlink"><defs><linearGradient id="0" gradientUnits="userSpaceOnUse" x1="4" x2="44" gradientTransform="matrix(0.38876 0 0 0.40337 2.529 3.22)"><stop stop-color="#2f2f2f"/><stop offset="1" stop-color="#4e4e4e"/></linearGradient><radialGradient id="7" gradientUnits="userSpaceOnUse" cx="32" cy="40" r="16" gradientTransform="matrix(0.10992 0 0 0.10805 13.34 4.354)" xlink:href="#1"/><radialGradient id="B" gradientUnits="userSpaceOnUse" cx="32" cy="40" r="16" gradientTransform="matrix(0.10992 0 0 0.10805 13.34 7.811)" xlink:href="#8"/><radialGradient id="8" gradientUnits="userSpaceOnUse" cx="32" cy="40" r="16" gradientTransform="matrix(0.10992 0 0 0.10805 3.343 11.268)"><stop stop-color="#8cd63d"/><stop offset="0.719" stop-color="#5cb22a"/><stop offset="1" stop-color="#369b26"/></radialGradient><radialGradient id="A" gradientUnits="userSpaceOnUse" cx="32" cy="40" r="16" gradientTransform="matrix(0.10992 0 0 0.10805 13.34 11.268)" xlink:href="#8"/><radialGradient id="9" gradientUnits="userSpaceOnUse" cx="32" cy="40" r="16" gradientTransform="matrix(0.10992 0 0 0.10805 10.01 11.268)" xlink:href="#8"/><radialGradient id="6" gradientUnits="userSpaceOnUse" cx="32" cy="40" r="16" gradientTransform="matrix(0.10992 0 0 0.10805 10.01 7.811)" xlink:href="#1"/><radialGradient id="1" gradientUnits="userSpaceOnUse" cx="32" cy="40" r="16" gradientTransform="matrix(0.10992 0 0 0.10805 13.34 14.726)"><stop stop-color="#f14747"/><stop offset="0.672" stop-color="#e42222"/><stop offset="1" stop-color="#c11212"/></radialGradient><radialGradient id="5" gradientUnits="userSpaceOnUse" cx="32" cy="40" r="16" gradientTransform="matrix(0.10992 0 0 0.10805 6.676 11.268)" xlink:href="#1"/><radialGradient id="2" gradientUnits="userSpaceOnUse" cx="32" cy="40" r="16" gradientTransform="matrix(0.10992 0 0 0.10805 10.01 14.726)" xlink:href="#1"/><radialGradient id="4" gradientUnits="userSpaceOnUse" cx="32" cy="40" r="16" gradientTransform="matrix(0.10992 0 0 0.10805 3.343 14.726)" xlink:href="#1"/><radialGradient id="3" gradientUnits="userSpaceOnUse" cx="32" cy="40" r="16" gradientTransform="matrix(0.10992 0 0 0.10805 6.676 14.726)" xlink:href="#1"/></defs><path d="m 23.793 12.211 c 2.098 10.496 -12.277 14.48 -20.08 9.934 c -6.219 -3.625 -4.438 -16.04 3.953 -20.66 c 8.395 -4.629 14.449 2.305 16.13 10.727" fill="#2f2f2f"/><path d="m 4.082 4.832 h 15.551 v 16.14 h -15.551" fill="url(#0)"/><path d="m 18.34 18.277 c -0.016 0.84 -0.672 1.512 -1.484 1.512 c -0.809 0 -1.465 -0.672 -1.48 -1.512 c -0.008 -0.555 0.273 -1.07 0.734 -1.352 c 0.461 -0.281 1.035 -0.281 1.496 0 c 0.461 0.281 0.742 0.797 0.734 1.352" fill="url(#1)"/><path d="m 15.01 18.277 c -0.012 0.84 -0.672 1.512 -1.48 1.512 c -0.809 0 -1.469 -0.672 -1.48 -1.512 c -0.008 -0.555 0.27 -1.07 0.734 -1.352 c 0.461 -0.281 1.031 -0.281 1.492 0 c 0.461 0.281 0.742 0.797 0.734 1.352" fill="url(#2)"/><path d="m 11.676 18.277 c -0.016 0.84 -0.676 1.512 -1.484 1.512 c -0.809 0 -1.465 -0.672 -1.48 -1.512 c -0.008 -0.555 0.273 -1.07 0.734 -1.352 c 0.461 -0.281 1.035 -0.281 1.496 0 c 0.461 0.281 0.742 0.797 0.734 1.352" fill="url(#3)"/><path d="m 8.34 18.277 c -0.012 0.84 -0.672 1.512 -1.48 1.512 c -0.809 0 -1.469 -0.672 -1.48 -1.512 c -0.008 -0.555 0.273 -1.07 0.734 -1.352 c 0.461 -0.281 1.031 -0.281 1.496 0 c 0.461 0.281 0.742 0.797 0.73 1.352" fill="url(#4)"/><path d="m 11.676 14.82 c -0.016 0.84 -0.676 1.512 -1.484 1.512 c -0.809 0 -1.465 -0.672 -1.48 -1.512 c -0.008 -0.555 0.273 -1.07 0.734 -1.352 c 0.461 -0.277 1.035 -0.277 1.496 0 c 0.461 0.281 0.742 0.797 0.734 1.352" fill="url(#5)"/><path d="m 15.01 11.363 c -0.012 0.84 -0.672 1.512 -1.48 1.512 c -0.809 0 -1.469 -0.672 -1.48 -1.512 c -0.008 -0.555 0.27 -1.07 0.734 -1.352 c 0.461 -0.277 1.031 -0.277 1.492 0 c 0.461 0.281 0.742 0.797 0.734 1.352" fill="url(#6)"/><path d="m 18.34 7.906 c -0.016 0.84 -0.672 1.512 -1.484 1.512 c -0.809 0 -1.465 -0.672 -1.48 -1.512 c -0.008 -0.555 0.273 -1.07 0.734 -1.352 c 0.461 -0.281 1.035 -0.281 1.496 0 c 0.461 0.281 0.742 0.797 0.734 1.352" fill="url(#7)"/><path d="m 8.34 14.82 c -0.012 0.84 -0.672 1.512 -1.48 1.512 c -0.809 0 -1.469 -0.672 -1.48 -1.512 c -0.008 -0.555 0.273 -1.07 0.734 -1.352 c 0.461 -0.277 1.031 -0.277 1.496 0 c 0.461 0.281 0.742 0.797 0.73 1.352" fill="url(#8)"/><path d="m 15.01 14.82 c -0.012 0.84 -0.672 1.512 -1.48 1.512 c -0.809 0 -1.469 -0.672 -1.48 -1.512 c -0.008 -0.555 0.27 -1.07 0.734 -1.352 c 0.461 -0.277 1.031 -0.277 1.492 0 c 0.461 0.281 0.742 0.797 0.734 1.352" fill="url(#9)"/><path d="m 18.34 14.82 c -0.016 0.84 -0.672 1.512 -1.484 1.512 c -0.809 0 -1.465 -0.672 -1.48 -1.512 c -0.008 -0.555 0.273 -1.07 0.734 -1.352 c 0.461 -0.277 1.035 -0.277 1.496 0 c 0.461 0.281 0.742 0.797 0.734 1.352" fill="url(#A)"/><path d="m 18.34 11.363 c -0.016 0.84 -0.672 1.512 -1.484 1.512 c -0.809 0 -1.465 -0.672 -1.48 -1.512 c -0.008 -0.555 0.273 -1.07 0.734 -1.352 c 0.461 -0.277 1.035 -0.277 1.496 0 c 0.461 0.281 0.742 0.797 0.734 1.352" fill="url(#B)"/></svg>