<svg xmlns="http://www.w3.org/2000/svg" viewBox="0 0 24 24"><path d="m 5.605 21.5 c 8.926 7.918 22.668 -4.574 17.11 -15.03 c -5.613 -10.57 -24.2 -7.75 -22.621 5.23 c 0.473 3.859 2.598 7.215 5.512 9.797" fill="#d2d2d2"/><path d="m 7.277 17.969 c -0.301 -0.367 0.008 -0.949 0.73 -1.387 c 0.215 -0.129 0.883 -0.309 1.027 -0.273 c 0.105 0.027 0.137 0.008 0.184 -0.109 c 0.063 -0.148 0.035 -0.5 -0.047 -0.574 c -0.027 -0.027 -0.844 -0.047 -1.969 -0.047 c -2.18 0.008 -2.344 -0.008 -2.344 -0.172 c 0 -0.152 0.164 -0.176 1.352 -0.176 h 0.957 v -0.285 c 0 -0.344 0.172 -0.641 0.547 -0.941 c 0.133 -0.105 0.238 -0.215 0.238 -0.238 c 0 -0.031 -0.555 -0.051 -1.414 -0.051 c -1.402 0 -1.414 0 -1.449 -0.109 c -0.07 -0.215 0.07 -0.242 1.176 -0.242 h 1.02 l -0.039 -0.113 c -0.023 -0.063 -0.051 -0.211 -0.066 -0.332 c -0.027 -0.246 0.109 -0.488 0.434 -0.773 c 0.102 -0.09 0.176 -0.184 0.168 -0.215 c -0.012 -0.035 -0.477 -0.063 -1.348 -0.078 c -1.164 -0.023 -1.336 -0.035 -1.383 -0.109 c -0.043 -0.063 -0.039 -0.105 0.012 -0.164 c 0.063 -0.07 0.309 -0.082 2.082 -0.082 c 1.938 0 2.02 -0.004 2.066 -0.098 c 0.07 -0.121 0.07 -1.164 0.004 -1.336 l -0.051 -0.129 h -4.309 v -0.352 h 4.309 l 0.051 -0.129 c 0.066 -0.168 0.066 -1.086 0 -1.254 l -0.051 -0.129 h -2.02 c -1.824 0 -2.027 -0.008 -2.105 -0.086 c -0.086 -0.082 -0.082 -0.09 0.027 -0.18 c 0.113 -0.086 0.254 -0.09 2.094 -0.086 l 1.977 0.004 l 0.063 -0.117 c 0.043 -0.078 0.066 -0.379 0.066 -0.91 c 0 -0.766 0.004 -0.793 0.117 -0.863 c 0.125 -0.074 1.02 -0.207 1.773 -0.262 c 0.246 -0.016 0.594 -0.051 0.77 -0.078 c 0.18 -0.023 0.688 -0.078 1.129 -0.121 c 0.441 -0.039 0.813 -0.098 0.82 -0.125 c 0.012 -0.031 0.297 -0.051 0.75 -0.051 h 0.73 v 1.203 c 0 1 0.012 1.215 0.078 1.266 c 0.055 0.047 0.402 0.059 1.297 0.055 c 1.285 -0.008 1.563 0.027 1.563 0.199 c 0 0.051 -0.051 0.102 -0.117 0.117 c -0.066 0.02 -0.699 0.031 -1.406 0.031 c -0.934 0.004 -1.305 0.02 -1.352 0.063 c -0.086 0.086 -0.086 1.309 0 1.391 c 0.047 0.047 0.414 0.063 1.336 0.063 c 1.168 0 1.277 0.008 1.324 0.09 c 0.031 0.055 0.031 0.121 0 0.176 c -0.047 0.078 -0.176 0.086 -1.328 0.086 c -0.957 0 -1.293 0.016 -1.332 0.063 c -0.031 0.035 -0.063 0.367 -0.07 0.734 c -0.016 0.551 -0.004 0.68 0.059 0.719 c 0.047 0.027 0.695 0.047 1.484 0.047 h 1.402 v 0.355 h -1.41 c -1.074 0 -1.422 0.016 -1.465 0.063 c -0.078 0.09 -0.102 1.332 -0.023 1.406 c 0.039 0.039 0.465 0.051 1.387 0.047 c 0.734 -0.004 1.371 0.004 1.422 0.023 c 0.059 0.02 0.09 0.09 0.09 0.18 v 0.145 h -1.41 c -1.141 0 -1.422 0.016 -1.473 0.07 c -0.039 0.047 -0.055 0.289 -0.043 0.746 l 0.016 0.672 l 1.375 0.027 c 1.16 0.02 1.387 0.035 1.457 0.105 c 0.078 0.07 0.078 0.086 -0.004 0.148 c -0.07 0.059 -0.387 0.078 -1.461 0.098 l -1.367 0.023 l -0.059 0.289 c -0.105 0.504 -0.434 0.867 -1.047 1.148 c -0.754 0.352 -1.492 0.172 -1.492 -0.359 c 0 -0.199 0.211 -0.539 0.473 -0.77 c 0.145 -0.121 0.262 -0.246 0.262 -0.277 c 0 -0.082 -3.707 -0.078 -3.762 0.008 c -0.02 0.031 -0.031 0.316 -0.027 0.629 c 0.012 0.559 0.008 0.578 -0.156 0.875 c -0.191 0.348 -0.492 0.621 -0.887 0.82 c -0.238 0.117 -0.328 0.133 -0.785 0.133 c -0.496 0 -0.523 -0.004 -0.625 -0.133 m 1.906 -2.77 c 0.094 -0.09 0.094 -0.086 0.051 -0.191 c -0.043 -0.113 -0.09 -0.102 -0.285 0.055 c -0.152 0.121 -0.16 0.141 -0.07 0.172 c 0.152 0.059 0.215 0.051 0.305 -0.035 m 5.688 -0.586 c 0.016 -0.668 -0.008 -0.703 -0.32 -0.473 c -0.418 0.309 -1.105 0.434 -1.438 0.266 c -0.176 -0.09 -0.328 -0.313 -0.328 -0.477 c 0 -0.203 -0.07 -0.215 -1.527 -0.215 c -1.129 0 -1.414 0.016 -1.461 0.07 c -0.07 0.082 -0.105 1.285 -0.043 1.383 c 0.035 0.047 0.586 0.059 2.574 0.047 l 2.527 -0.012 l 0.016 -0.594 m -5.656 -1.324 c 0.063 -0.156 0.063 -0.18 0.004 -0.266 c -0.035 -0.055 -0.102 -0.027 -0.313 0.117 c -0.148 0.102 -0.258 0.207 -0.242 0.23 c 0.02 0.027 0.137 0.047 0.266 0.047 c 0.203 0 0.242 -0.016 0.285 -0.129 m 3.734 0.078 c 0.02 0 0.145 -0.09 0.277 -0.199 c 0.32 -0.266 0.871 -0.512 1.289 -0.582 l 0.34 -0.051 l 0.016 -0.195 c 0.027 -0.301 -0.043 -0.316 -0.406 -0.113 c -0.75 0.422 -1.414 0.383 -1.629 -0.09 c -0.051 -0.121 -0.137 -0.23 -0.184 -0.25 c -0.129 -0.047 -2.77 -0.039 -2.848 0.008 c -0.09 0.059 -0.117 1.324 -0.031 1.426 c 0.051 0.059 0.324 0.07 1.602 0.059 c 0.848 -0.004 1.555 -0.012 1.574 -0.012 m 0.25 -2.129 c 0.398 -0.359 0.816 -0.547 1.285 -0.586 l 0.371 -0.031 l 0.016 -0.27 c 0.012 -0.156 -0.008 -0.301 -0.043 -0.34 c -0.055 -0.063 -0.465 -0.074 -2.547 -0.074 c -1.719 0 -2.496 0.02 -2.52 0.055 c -0.02 0.031 -0.039 0.352 -0.043 0.715 c -0.004 0.488 0.012 0.68 0.063 0.727 c 0.055 0.055 0.402 0.066 1.594 0.066 h 1.527 m 1.926 -2.01 c 0.078 -0.141 0.07 -1.277 -0.008 -1.355 c -0.047 -0.043 -0.68 -0.059 -2.516 -0.059 c -2.117 0 -2.457 0.008 -2.516 0.074 c -0.078 0.094 -0.105 1.09 -0.035 1.297 l 0.047 0.141 h 2.488 c 2.402 0 2.488 -0.004 2.539 -0.098 m -0.016 -1.828 c 0.078 -0.063 0.102 -1.027 0.023 -1.141 c -0.063 -0.094 -1.16 -0.008 -3.445 0.27 c -0.344 0.043 -0.832 0.09 -1.082 0.105 c -0.254 0.02 -0.488 0.051 -0.527 0.074 c -0.105 0.063 -0.094 0.641 0.016 0.719 c 0.113 0.078 4.914 0.055 5.02 -0.027"/></svg>