<svg xmlns="http://www.w3.org/2000/svg" viewBox="0 0 24 24"><path d="m 18.17 1.75 c 21.13 18.13 -22.313 35.566 -17.848 7.523 c 0.98 -6.148 12.156 -12.41 17.848 -7.523" fill="#084670"/><path d="m 10.328 6.566 v 0.691 h -0.707 v 0.691 h -0.703 v 0.687 h -0.703 v 0.691 h -0.707 v 1.383 h -0.703 v 0.691 h 0.703 v 0.691 h -0.703 v 0.691 h -0.703 v 2.07 h 0.703 v 0.691 h 0.703 v 0.691 h 0.707 v 0.691 h -0.707 v 0.691 h 6.34 v -0.691 h 1.41 v -0.691 h 0.707 v -1.383 h 0.703 v -1.383 h 0.703 v -1.379 h -0.703 v -0.691 h 0.703 v -1.383 h -0.703 v -0.691 h -2.82 v 0.691 h -0.703 v -0.691 h -0.703 v -1.379 h 0.703 v -1.383" fill-opacity="0.102"/><path d="m 9.855 6.105 v 0.691 h 2.117 v 0.691 h 0.703 v -1.383 m -0.703 1.383 h -1.41 v 0.691 h 0.703 v 0.688 h 0.707 m 0 0 v 2.074 h 0.703 v -0.691 h 0.703 v -0.691 h -0.703 v -0.691 m 0.703 0.691 h 2.82 v -0.691 h -2.82 m 2.82 0.691 v 1.383 h 0.703 v -1.383 m -0.703 1.383 h -0.707 v 0.691 h 0.707 m 0 0 v 1.383 h 0.703 v -1.383 m -0.703 1.383 h -0.707 v 1.379 h 0.707 m -0.707 0 h -0.703 v 1.383 h 0.703 m -0.703 0 h -1.41 v 0.691 h 1.41 m -1.41 0 h -0.703 v 0.691 h 0.703 m -0.703 -0.691 v -0.691 h -1.41 v 0.691 m 0 -7.602 h -0.703 v 2.074 h 0.703 m -1.41 -4.145 h -0.703 v 0.691 h 0.703 m -0.703 0 h -0.703 v 0.691 h 0.703 m -0.703 0 h -0.707 v 0.688 h 0.707 m 0 0 v 1.383 h 0.703 v -1.383 m -1.41 0 h -0.703 v 1.383 h 0.703 m -0.703 0 h -0.703 v 0.691 h 0.703 m 0 0 v 0.691 h 0.703 v -0.691 m -0.703 0.691 h -0.703 v 0.691 h 0.703 m -0.703 0 h -0.707 v 2.07 h 0.707 m 0 0 v 0.691 h 0.703 v -0.691 m 0 0.691 v 0.691 h 0.703 v -0.691 m 0 0.691 v 0.691 h 1.41 v -0.691 m -1.41 0.691 h -0.703 v 0.691 h 0.703 m 4.23 -4.836 v 0.691 h 0.703 v -0.691 m 0 0.691 v 0.688 h 1.41 v -0.688 m 0 0 h 0.703 v -0.691 h -0.703 m -4.23 4.145 v 0.691 h 0.707 v -0.691" fill="#6a3610"/><path d="m 7.742 10.941 v 0.691 h 0.707 v -0.691 m 6.34 2.762 v 0.691 h 0.703 v -0.691 m -8.453 0.691 v 0.691 h 0.703 v -0.691 m 0 0.691 v 0.691 h 0.707 v -0.691 m 5.637 0 v 0.691 h 0.703 v -0.691 m -5.637 0.691 v 0.691 h 2.113 v -0.691 m 1.41 0 v 0.691 h 0.703 v -0.691" fill="#994e16"/><path d="m 8.449 8.18 v 0.688 h 0.703 v -0.688 m -0.703 0.688 h -0.707 v 1.383 h 0.707 m 1.406 -2.07 v 0.688 h 1.41 v -0.688 m 0 0.688 v 1.383 h 0.707 v -1.383 m 1.406 0.691 v 0.691 h 0.707 v -0.691 m -0.707 0.691 h -0.703 v 0.691 h 0.703 m -0.703 0 h -0.703 v 0.691 h 0.703 m -0.703 0 h -1.41 v 0.691 h 0.703 v 0.691 h 0.707 m 0 0 v 0.688 h 0.703 v -0.688 m -3.523 -2.766 v 0.691 h 0.703 v -0.691 m -0.703 0.691 h -0.703 v 0.691 h 0.703 m -0.703 0 h -1.41 v 0.691 h -0.703 v 2.07 h 1.406 v -0.691 h 0.707 v -0.688 h -0.707 v -0.691 h 0.707 m 0 1.379 v 0.691 h 0.703 v -0.691 m 0 0 h 0.703 v -0.688 h -0.703 m 0.703 0.688 v 0.691 h 0.707 v -0.691 m -2.113 0.691 h -0.707 v 0.691 h 0.707 m 0 0 v 0.691 h 0.703 v -0.691 m 5.637 -4.836 v 0.691 h 1.41 v -0.691 m -2.113 1.383 v 0.691 h 0.703 v -0.691 m -0.703 0.691 h -0.707 v 0.691 h 0.707 m 0 0 v 0.688 h 0.703 v -0.688 m 0.703 -1.383 v 1.383 h 0.707 v -1.383 m -2.113 2.762 v 0.691 h 0.703 v -0.691 m -0.703 0.691 h -1.41 v 0.691 h 1.41 m -4.23 -0.691 v 0.691 h 0.707 v -0.691 m 0.703 0 v 0.691 h 0.707 v -0.691" fill="#dd9f59"/><path d="m 9.152 16.469 v 0.691 h 0.703 v -0.691 m 0.707 0 v 0.691 h 0.703 v -0.691" fill="#e2943b"/><path d="m 7.04 10.25 v 0.691 h 2.113 v -0.691 m -1.41 6.219 v 0.691 h 1.41 v -0.691 m 2.113 0 v 0.691 h 1.41 v -0.691" fill="#ffd820"/><path d="m 9.855 6.797 v 1.383 h 0.707 v -0.691 h 0.703 v -0.691" fill="#ff4d22"/><path d="m 11.266 6.797 v 0.691 h 0.707 v -0.691 m -2.82 0.691 v 0.691 h 0.703 v -0.691" fill="#c12222"/><path d="m 9.152 8.18 v 2.07 h 0.703 v 0.691 h -0.703 v 0.691 h -0.703 v 0.691 h -0.707 v 0.691 h 0.707 v 0.688 h 0.703 v -0.688 h 0.703 v 0.688 h 0.707 v 0.691 h -0.707 v -0.691 h -0.703 v 0.691 h -0.703 v 0.691 h 0.703 v 0.691 h 0.703 v -0.691 h 0.707 v 0.691 h 0.703 v -0.691 h 0.707 v 0.691 h 0.703 v -0.691 h 1.41 v -0.691 h 0.703 v -0.691 h -2.816 v -0.688 h -0.707 v -0.691 h -0.703 v -0.691 h 1.41 v -1.383 h -0.707 v 0.691 h -0.703 v -2.074 h -0.707 v -0.688 m 2.117 3.453 v 0.691 h 0.703 v 0.691 h 0.703 v -0.691 h 0.707 v -0.691 h 0.703 v 2.07 h 0.703 v -2.762 h -0.703 v -0.691 h 1.41 v -0.691 h -2.113 v 0.691 h -0.707 v 0.691 h -0.703 v 0.691 m -4.227 2.762 v -0.691 h -0.707 v 0.691" fill="#ffe0ad"/></svg>