<svg xmlns="http://www.w3.org/2000/svg" viewBox="0 0 24 24"><path d="m 2.875 3.75 c 9.906 -11.336 28.375 5.609 18.12 16.555 c -8.664 10.965 -28.344 -4.852 -18.12 -16.555" fill="#5aa48c"/><path d="m 151.96 978.19 v 8.917 c 0 7.458 -6 13.458 -13.5 13.458 h -16.792 c -7.458 0 -13.5 -6 -13.5 -13.458 v -8.917" transform="matrix(0.09375 0 0 0.09375 0 -74.66)" fill="none" stroke="#fffced" stroke-linecap="round" stroke-width="7.919"/><g fill="#fffced"><path d="m 13.848 7.406 c -0.398 0 -0.719 0.32 -0.719 0.719 v 6.602 c 0 0.398 0.32 0.719 0.719 0.719 h 4.906 c 0.398 0 0.719 -0.32 0.719 -0.719 v -4.363 c -0.012 -0.012 -0.016 -0.027 -0.027 -0.039 l -2.918 -2.918"/><path d="m 5.797 7.406 c -0.398 0 -0.719 0.32 -0.719 0.719 v 6.602 c 0 0.398 0.32 0.719 0.719 0.719 h 4.906 c 0.398 0 0.719 -0.32 0.719 -0.719 v -4.363 c -0.008 -0.012 -0.016 -0.027 -0.027 -0.039 l -2.918 -2.918"/></g><path d="m 15.898 12.793 v 1.547 h -0.992 v -4.168 h 1.641 c 0.367 0 0.648 0.043 0.84 0.121 c 0.195 0.078 0.371 0.215 0.523 0.418 c 0.152 0.199 0.227 0.449 0.227 0.742 c 0 0.203 -0.039 0.406 -0.121 0.602 c -0.082 0.195 -0.195 0.348 -0.344 0.461 c -0.148 0.109 -0.293 0.184 -0.434 0.223 c -0.141 0.035 -0.355 0.055 -0.652 0.055 h -0.687 m -0.035 -0.758 h 0.637 c 0.242 0 0.41 -0.055 0.508 -0.168 c 0.098 -0.113 0.148 -0.238 0.148 -0.383 c 0 -0.172 -0.055 -0.305 -0.164 -0.402 c -0.109 -0.102 -0.273 -0.152 -0.496 -0.152 h -0.633 v 1.105" fill="#5aa48c"/><path d="m 19.473 10.363 c -0.023 -0.051 -0.059 -0.102 -0.102 -0.145 l -2.844 -2.813 v 2.473 c 0 0.27 0.219 0.484 0.488 0.484" fill="#bedcd1"/><path d="m 9.695 12.11 v 2.227 h -0.445 c -0.031 -0.156 -0.078 -0.316 -0.141 -0.48 c -0.297 0.363 -0.676 0.543 -1.133 0.543 c -0.543 0 -0.969 -0.191 -1.27 -0.582 c -0.301 -0.387 -0.453 -0.891 -0.453 -1.508 c 0 -0.664 0.16 -1.195 0.48 -1.598 c 0.324 -0.402 0.766 -0.605 1.316 -0.605 c 0.465 0 0.84 0.129 1.125 0.391 c 0.285 0.262 0.457 0.605 0.52 1.039 l -0.926 0.125 c -0.074 -0.504 -0.316 -0.758 -0.719 -0.758 c -0.262 0 -0.465 0.121 -0.602 0.359 c -0.133 0.238 -0.199 0.578 -0.199 1.023 c 0 0.426 0.07 0.754 0.219 0.98 c 0.148 0.227 0.355 0.336 0.625 0.336 c 0.176 0 0.332 -0.055 0.469 -0.168 c 0.137 -0.113 0.207 -0.297 0.207 -0.547 h -0.785 v -0.777 h 1.711" fill="#5aa48c"/><path d="m 11.422 10.363 c -0.023 -0.051 -0.059 -0.102 -0.102 -0.145 l -2.844 -2.813 v 2.473 c 0 0.27 0.219 0.484 0.488 0.484" fill="#bedcd1"/><g stroke="#fffced" stroke-linecap="round"><path d="m 190.59 181.85 l -16.883 29.29 l -16.883 -29.29 l -16.883 -29.11 h 67.53" transform="matrix(0.03239 0 0 -0.02281 8.619 21.249)" fill="#fffced" stroke-linejoin="round" stroke-width="16"/><path d="m 107.58 862.86 v -8.917 c 0 -7.5 6.04 -13.5 13.5 -13.5 h 16.833 c 7.458 0 13.458 6 13.458 13.5 v 8.917" transform="matrix(0.09375 0 0 0.09375 0 -74.66)" fill="none" stroke-width="7.919"/><path d="m 190.65 181.95 l -16.883 29.29 l -33.767 -58.57 h 67.53" transform="matrix(-0.03239 0 0 0.02281 15.714 2.03)" fill="#fffced" stroke-linejoin="round" stroke-width="16"/></g></svg>