<svg xmlns="http://www.w3.org/2000/svg" viewBox="0 0 24 24"><g fill="#fff"><path d="m 8.684 11.684 v 4.68 c 0 2.805 0.48 2.805 4.813 2.805 h 0.961 c 4.332 0 4.813 0 4.813 -2.805 v -4.68 c 0 -2.805 -0.48 -2.805 -4.813 -2.805 h -0.961 c -4.332 0 -4.813 0 -4.813 2.805 m 4.813 -1.871 h 0.961 c 3.852 0 3.852 0 3.852 1.871 v 3.273 c 0 1.871 0 1.871 -3.852 1.871 h -0.961 c -3.852 0 -3.852 0 -3.852 -1.871 v -3.273 c 0 -1.871 0 -1.871 3.852 -1.871"/><path d="m 10.609 15.04 v -1.813 l 1.684 -1.699 l 2.105 2.125 l 0.844 -0.852 l 2.105 2.125 v 0.113 c 0 0.852 -0.141 0.852 -1.684 0.852 h -3.371 c -1.543 0 -1.684 0 -1.684 -0.852"/><path d="m 17.344 11.684 c 0 0.52 -0.43 0.938 -0.961 0.938 c -0.531 0 -0.965 -0.418 -0.965 -0.938 c 0 -0.516 0.434 -0.934 0.965 -0.934 c 0.531 0 0.961 0.418 0.961 0.934"/><path d="m 11.57 7.01 c -4.332 0 -4.812 0 -4.812 2.805 v 4.68 c 0 1.52 0.145 2.219 0.961 2.539 v -7.219 c 0 -1.691 0.031 -1.848 2.891 -1.863 v -0.004 h 6.5 c -0.426 -0.938 -1.574 -0.938 -4.578 -0.938"/><path d="m 9.645 5.137 c -4.332 0 -4.813 0 -4.813 2.809 v 4.676 c 0 1.52 0.145 2.219 0.965 2.539 v -7.215 c 0 -1.695 0.027 -1.852 2.887 -1.867 v -0.004 h 6.5 c -0.422 -0.938 -1.574 -0.938 -4.574 -0.938"/></g><path d="m 20.484 19.781 c -24.867 18.762 -28.402 -32.867 -3.02 -16.301 c 5.785 3.777 9.602 11.332 3.02 16.301" fill="#acff2f"/><path d="m 9.266 6.07 c -0.543 0 -0.984 0.441 -0.984 0.98 c 0 0.543 0.441 0.98 0.984 0.98 c 0.543 -0.004 0.984 -0.441 0.984 -0.98 c 0 -0.539 -0.441 -0.977 -0.984 -0.98 m 2.207 0.012 c -0.41 0 -0.738 0.328 -0.742 0.734 c 0 0.406 0.332 0.734 0.742 0.734 c 0.406 0 0.738 -0.332 0.738 -0.734 c 0 -0.406 -0.332 -0.734 -0.738 -0.734 m 1.938 0.125 c -0.363 0 -0.656 0.293 -0.66 0.652 c 0 0.176 0.07 0.34 0.195 0.461 c 0.121 0.125 0.289 0.191 0.465 0.191 c 0.363 0 0.656 -0.293 0.656 -0.652 c 0 -0.359 -0.297 -0.652 -0.656 -0.652 m -6.98 0.48 c -0.844 0 -1.531 0.684 -1.531 1.523 c 0 0.84 0.688 1.523 1.531 1.523 c 0.848 0 1.531 -0.684 1.535 -1.523 c 0 -0.84 -0.688 -1.523 -1.535 -1.523 m 6.242 1.363 c -0.113 -0.004 -0.223 0 -0.332 0.004 c -0.5 0.031 -3.945 1.281 -4.402 1.719 c -0.66 0.629 -0.531 1.77 -0.07 2.535 c 0.496 0.824 1.742 0.867 2.816 0.813 c 0.918 -0.047 2.363 1.082 1.664 2.398 c -0.746 1.398 -1.313 2.313 -1.191 3.078 c 0.117 0.766 0.926 1.387 2.48 1.59 c 2.367 0.313 4.418 -2.242 2.613 -5.43 c -0.496 -0.875 -0.957 -1.348 -1.348 -1.813 c -1.199 -1.426 -0.664 -3.211 -0.676 -3.523 c -0.047 -1.074 -0.785 -1.355 -1.555 -1.371" fill-opacity="0.102"/><g fill="#699e3e"><path d="m 7.414 7.668 c 0 -0.84 -0.684 -1.523 -1.531 -1.523 c -0.848 0 -1.531 0.684 -1.531 1.523 c 0 0.84 0.684 1.523 1.531 1.523 c 0.848 0 1.531 -0.684 1.531 -1.523"/><path d="m 9.703 6.508 c 0 -0.543 -0.441 -0.98 -0.984 -0.98 c -0.543 0 -0.984 0.438 -0.984 0.98 c 0 0.539 0.441 0.977 0.984 0.977 c 0.543 0 0.984 -0.438 0.984 -0.977"/><path d="m 11.664 6.273 c 0 -0.406 -0.332 -0.734 -0.742 -0.734 c -0.406 0 -0.738 0.328 -0.738 0.734 c 0 0.402 0.332 0.734 0.738 0.734 c 0.41 0 0.742 -0.332 0.742 -0.734"/><path d="m 13.52 6.316 c 0 -0.359 -0.297 -0.652 -0.66 -0.652 c -0.359 0 -0.656 0.293 -0.656 0.652 c 0 0.359 0.297 0.652 0.656 0.652 c 0.363 0 0.66 -0.293 0.66 -0.652"/><path d="m 11.793 7.512 c 0.879 -0.055 1.832 0.137 1.887 1.367 c 0.012 0.313 -0.523 2.098 0.676 3.523 c 0.391 0.465 0.852 0.938 1.348 1.813 c 1.805 3.188 -0.242 5.738 -2.613 5.43 c -1.555 -0.207 -2.363 -0.824 -2.48 -1.59 c -0.121 -0.766 0.445 -1.68 1.188 -3.078 c 0.703 -1.316 -0.742 -2.445 -1.66 -2.398 c -1.074 0.055 -2.32 0.012 -2.816 -0.813 c -0.461 -0.766 -0.59 -1.906 0.07 -2.539 c 0.457 -0.434 3.902 -1.684 4.402 -1.715"/></g></svg>