<svg xmlns="http://www.w3.org/2000/svg" viewBox="0 0 24 24"><path d="m 19.05 2.602 c -18.04 -11.852 -29.16 25.941 -5.832 20.938 c 9.641 -2.129 15.492 -15.504 5.832 -20.938" fill="#92e536"/><path d="m 8.18 18.14 c -0.895 0.008 -1.574 -0.336 -2.309 -0.414 c -0.484 -0.238 -1.227 -0.309 -1.613 -0.645 c -0.477 -0.43 -0.965 -0.371 -1.375 -0.785 c 0.234 -0.348 0.637 -0.359 0.977 -0.59 c 0.25 -0.223 0.996 -0.273 1 -0.582 c 0.281 -0.273 0.723 -0.555 1.059 -0.668 c 0.285 -0.242 1.285 -0.996 1.301 -1.168 c 0.125 -0.355 0.438 -0.277 0.699 -0.535 c 0 -0.117 0.492 -0.602 0.77 -0.762 c 0.453 -0.266 0.75 -0.637 1.203 -0.898 c 1.5 -0.863 1.766 -1.949 4.422 -2.398 c 0.52 -0.156 1.402 -0.27 1.805 -0.23 c 0.367 0.035 0.395 0.027 0.523 -0.117 c 0.219 -0.664 0.586 -1.266 0.832 -1.879 c 0.098 -0.254 0.285 -0.453 0.391 -0.695 c 0.094 -0.211 0.348 -0.418 0.512 -0.418 c 0.063 0 0.203 0.078 0.313 0.172 c 0.281 0.25 0.273 0.48 -0.039 0.789 c -0.359 0.359 -1.035 1.445 -1.035 1.66 c 0 0.062 -0.09 0.281 -0.199 0.484 c -0.227 0.43 -0.223 0.668 0.023 1.09 c 0.395 0.738 0.563 1.664 0.574 2.266 c 0.082 0.742 -0.281 1.313 -0.359 1.828 c -0.105 0.762 -0.164 0.871 -0.457 0.871 c -0.152 0 -0.363 0.234 -0.535 0.598 c -0.293 0.406 -1.262 1.262 -1.582 1.402 c -0.527 0.48 -1.105 0.578 -1.547 0.871 c -0.52 0.086 -1.203 0.699 -1.727 0.578 c -1.203 -0.102 -2.547 0.438 -3.633 0.176" fill="#51ab03"/><g fill="#2e7c00"><path d="m 10.477 16.547 l 0.02 -0.957 l -0.27 -0.023 c -0.316 -0.027 -0.355 -0.133 -0.07 -0.203 c 0.105 -0.027 0.355 -0.176 0.551 -0.332 c 0.195 -0.152 0.52 -0.363 0.719 -0.461 c 0.555 -0.277 2.215 -1.559 3.02 -2.324 c 0.395 -0.375 0.938 -0.953 1.211 -1.277 c 0.273 -0.328 0.527 -0.594 0.563 -0.594 c 0.094 0 0.469 0.754 0.574 1.152 c 0.145 0.527 0.281 1.48 0.238 1.645 c -0.051 0.195 -0.184 0.191 -0.539 -0.008 c -0.34 -0.191 -0.531 -0.117 -0.52 0.203 c 0.012 0.23 0.137 0.855 0.211 1.055 c 0.105 0.27 -0.191 0.031 -0.437 -0.352 c -0.133 -0.215 -0.277 -0.387 -0.316 -0.387 c -0.172 0 -0.238 0.332 -0.203 1 c 0.02 0.375 0.016 0.766 -0.016 0.867 c -0.051 0.176 -0.055 0.176 -0.16 -0.074 c -0.059 -0.137 -0.16 -0.402 -0.227 -0.582 c -0.066 -0.184 -0.188 -0.395 -0.266 -0.465 c -0.141 -0.125 -0.148 -0.125 -0.281 0.008 c -0.109 0.113 -0.152 0.32 -0.219 1.07 c -0.063 0.727 -0.105 0.949 -0.199 1.02 c -0.113 0.082 -0.129 0.039 -0.176 -0.473 c -0.063 -0.641 -0.148 -0.922 -0.305 -0.984 c -0.328 -0.125 -0.609 0.508 -0.859 1.938 c -0.055 0.297 -0.215 0.359 -0.285 0.105 c -0.023 -0.09 -0.043 -0.324 -0.047 -0.52 c -0.008 -0.621 -0.09 -0.926 -0.273 -1.016 c -0.23 -0.117 -0.441 -0.043 -0.527 0.18 c -0.043 0.102 -0.18 0.43 -0.309 0.727 c -0.129 0.297 -0.262 0.637 -0.297 0.754 c -0.039 0.121 -0.125 0.227 -0.191 0.238 c -0.113 0.023 -0.125 -0.059 -0.109 -0.934"/><path d="m 8.52 17.438 c 0.246 -0.449 0.277 -0.992 0.289 -1.418 c 0.273 -0.121 0.566 -0.383 0.871 -0.395 c 0.148 0 0.129 0.066 -0.215 0.664 c -0.211 0.367 -0.457 0.73 -0.543 0.813 c -0.09 0.078 -0.215 0.207 -0.281 0.285 c -0.066 0.082 -0.117 0.105 -0.121 0.051"/><path d="m 6.934 17.02 c 0 -0.234 0.836 -0.824 1.172 -0.824 c 0.156 0 0.316 0.023 0.355 0.051 c 0.07 0.051 -1.285 0.918 -1.441 0.922 c -0.047 0 -0.086 -0.066 -0.086 -0.148"/><path d="m 7.492 15.223 c -0.027 -0.027 -0.051 -0.117 -0.051 -0.195 c 0 -0.078 -0.07 -0.25 -0.152 -0.387 c -0.086 -0.137 -0.141 -0.258 -0.125 -0.273 c 0.016 -0.02 0.32 0.027 0.676 0.102 c 1.059 0.215 1.109 0.223 1.109 0.145 c 0 -0.129 -0.734 -0.859 -0.91 -0.902 c -0.195 -0.051 -0.219 -0.137 -0.055 -0.199 c 0.164 -0.063 0.945 -0.047 1.324 0.023 c 0.18 0.035 0.336 0.051 0.352 0.035 c 0.082 -0.082 -0.246 -0.391 -0.633 -0.598 c -0.242 -0.129 -0.422 -0.266 -0.398 -0.301 c 0.066 -0.105 0.988 -0.078 1.738 0.047 c 0.371 0.066 0.699 0.098 0.723 0.07 c 0.086 -0.086 -0.094 -0.285 -0.512 -0.57 c -0.652 -0.449 -0.582 -0.508 0.582 -0.457 l 0.992 0.039 l -0.289 -0.254 c -0.16 -0.141 -0.398 -0.301 -0.535 -0.359 c -0.223 -0.098 -0.234 -0.117 -0.117 -0.18 c 0.07 -0.043 0.426 -0.109 0.785 -0.156 c 0.656 -0.082 0.656 -0.082 0.68 -0.297 l 0.02 -0.215 h 0.566 c 0.313 0 0.586 -0.02 0.609 -0.043 c 0.027 -0.027 0.012 -0.137 -0.031 -0.246 c -0.09 -0.238 0.016 -0.352 0.254 -0.281 c 0.078 0.023 0.402 0.094 0.719 0.152 c 0.316 0.059 0.59 0.117 0.605 0.137 c 0.07 0.07 -0.164 0.402 -0.742 1.051 c -0.531 0.594 -0.98 0.992 -2.125 1.895 c -0.332 0.262 -1.492 0.965 -1.848 1.121 c -0.195 0.086 -0.367 0.176 -0.387 0.207 c -0.094 0.133 -0.672 0.359 -0.922 0.359 c -0.332 0.055 -0.656 0.219 -0.934 0.352 c -0.301 0.152 -0.887 0.262 -0.969 0.18"/><path d="m 6.629 15.891 c -0.164 0.043 -0.449 0.004 -0.633 -0.09 l -0.336 -0.164 l 0.457 -0.168 c 0.637 -0.238 1.078 -0.297 1.164 -0.16 c 0.039 0.063 0.027 0.141 -0.027 0.176 c -0.191 0.172 -0.391 0.34 -0.625 0.406"/></g></svg>