<svg xmlns="http://www.w3.org/2000/svg" viewBox="0 0 24 24"><path d="m 15.902 23.05 c -11.941 4.66 -18.07 -8.395 -15.03 -16.52 c 2.125 -5.672 10.594 -8.5 17.441 -4.473 c 8.637 5.086 6.801 17.402 -2.414 20.996" fill="#92789e"/><path d="m 10.301 19.777 c -1.387 -0.297 -2.723 -1.051 -3.719 -2.105 c -0.867 -0.918 -1.391 -1.828 -1.855 -3.211 c -0.891 -3.098 -0.332 -6.684 3.41 -8.945 c 0.336 -0.203 1.313 -0.605 1.855 -0.766 c 0.68 -0.199 2.105 -0.25 2.988 -0.105 c 1.02 0.164 2.359 0.762 3.141 1.398 c 0.293 0.234 1.352 1.352 1.578 1.656 c 0.395 0.539 1.035 1.996 1.215 2.77 c 0.145 0.625 0.164 2.402 0.039 3.215 c -0.066 0.41 -0.156 0.809 -0.199 0.887 c -0.223 0.652 -0.453 1.043 -0.715 1.59 c -0.316 0.656 -1.105 1.598 -1.84 2.184 c -0.852 0.684 -1.988 1.223 -3.02 1.434 c -0.602 0.125 -2.293 0.125 -2.883 0 m -1.355 -4.148 c 0.094 -0.254 0.031 -0.414 -0.281 -0.754 c -0.145 -0.156 -0.266 -0.313 -0.266 -0.348 c 0 -0.035 1.781 -0.07 3.961 -0.082 c 4.281 -0.02 4.184 -0.012 4.18 -0.402 c -0.004 -0.422 0.223 -0.398 -4.102 -0.441 c -2.184 -0.023 -3.992 -0.066 -4.02 -0.09 c -0.023 -0.023 0.098 -0.207 0.273 -0.398 c 0.344 -0.391 0.367 -0.465 0.211 -0.703 c -0.215 -0.32 -0.414 -0.219 -1.234 0.625 c -0.84 0.863 -0.895 0.988 -0.586 1.336 c 1.031 1.156 1.344 1.445 1.566 1.445 c 0.18 0 0.238 -0.035 0.293 -0.188 m 6.559 -3.895 c 0.68 -0.652 1.113 -1.234 1.047 -1.418 c -0.027 -0.082 -0.383 -0.496 -0.789 -0.926 c -0.801 -0.84 -1 -0.945 -1.219 -0.617 c -0.168 0.25 -0.125 0.395 0.234 0.797 c 0.188 0.207 0.34 0.398 0.34 0.422 c 0 0.027 -1.766 0.047 -3.918 0.047 c -3.01 0.004 -3.957 0.023 -4.09 0.094 c -0.199 0.105 -0.25 0.379 -0.109 0.586 c 0.098 0.137 0.191 0.141 4.074 0.16 c 2.387 0.012 3.973 0.047 3.973 0.086 c 0 0.039 -0.117 0.184 -0.266 0.324 c -0.441 0.434 -0.43 0.891 0.027 0.891 c 0.188 0 0.316 -0.082 0.695 -0.445" fill="#fff"/></svg>