<svg xmlns="http://www.w3.org/2000/svg" viewBox="0 0 24 24"><path d="m 11.859 23.91 c -15.969 1.809 -15.75 -24.1 0.281 -23.789 c 14.91 -0.852 16.254 25.2 -0.281 23.789" fill="#4581b3"/><path d="m 15.23 6.32 c 0.703 0 1.27 0.563 1.27 1.262 v 9.855 c 0 0.695 -0.566 1.262 -1.27 1.262 h -6.871 c -0.703 0 -1.27 -0.566 -1.27 -1.262 v -9.855 c 0 -0.699 0.566 -1.262 1.27 -1.262 m 3.668 4.094 c -0.035 0 -0.07 0 -0.105 0.004 c -0.098 0.008 -0.191 0.039 -0.281 0.09 c -0.363 0.207 -0.449 0.664 -0.293 1 l 2.113 4.652 c 0.309 0.676 1.16 0.844 1.773 0.492 c 0.613 -0.352 0.887 -1.172 0.449 -1.77 l -3.02 -4.129 c -0.148 -0.199 -0.387 -0.332 -0.637 -0.344 m 0 0.617 c 0.008 0 0.02 0 0.027 0.004 c 0.031 0.012 0.066 0.039 0.102 0.086 l 3.02 4.129 c 0.195 0.27 0.063 0.684 -0.254 0.867 c -0.32 0.184 -0.75 0.094 -0.887 -0.207 l -2.117 -4.652 c -0.047 -0.109 -0.035 -0.172 0.035 -0.211 c 0.023 -0.016 0.051 -0.02 0.074 -0.016" fill="#ff4500"/><g fill="#fff"><path d="m 14.875 14.453 h -6.16 c -0.348 0 -0.633 0.289 -0.633 0.648 v 2.184 c 0 0.359 0.285 0.648 0.633 0.648 h 6.16 c 0.352 0 0.637 -0.289 0.637 -0.648 v -2.184 c 0 -0.359 -0.285 -0.648 -0.637 -0.648"/><path d="m 8.492 10.781 c 0 1.809 1.477 3.277 3.305 3.277 c 1.824 0 3.305 -1.469 3.305 -3.277 c 0 -1.813 -1.48 -3.281 -3.305 -3.281 c -1.828 0 -3.305 1.469 -3.305 3.281"/></g><g fill="#a42929"><path d="m 11.797 8.133 c 1.473 0 2.668 1.184 2.668 2.648 c 0 0.547 -0.164 1.051 -0.449 1.473 l -1.184 -1.617 c -0.203 -0.281 -0.574 -0.461 -0.941 -0.422 c -0.121 0.012 -0.242 0.051 -0.355 0.113 c -0.461 0.266 -0.57 0.855 -0.379 1.273 l 0.828 1.82 c -0.063 0.004 -0.125 0.008 -0.188 0.008 c -1.477 0 -2.672 -1.188 -2.672 -2.648 c 0 -1.465 1.195 -2.648 2.672 -2.648 m 0.605 3.68 l 0.859 1.18 c -0.082 0.055 -0.168 0.105 -0.258 0.148"/><path d="m 11.797 10.781 c -0.215 0.121 -0.266 0.383 -0.164 0.605 l 2.117 4.652 c 0.223 0.484 0.863 0.617 1.328 0.348 c 0.465 -0.266 0.668 -0.883 0.352 -1.316 l -3.02 -4.129 c -0.148 -0.199 -0.398 -0.285 -0.613 -0.16"/></g><path d="m 14.223 15.637 c 0 0.215 0.172 0.391 0.391 0.391 c 0.215 0 0.391 -0.176 0.391 -0.391 c 0 -0.215 -0.176 -0.391 -0.391 -0.391 c -0.219 0 -0.391 0.176 -0.391 0.391" fill="#fff"/></svg>