<svg xmlns="http://www.w3.org/2000/svg" viewBox="0 0 24 24"><path d="m 2.242 18.398 c -8.184 -12.191 8.203 -24.547 18.01 -14.609 c 9.234 9.359 -0.172 23.898 -11.926 19.352 c -2.453 -0.945 -4.578 -2.504 -6.082 -4.742" fill="#ffeb42"/><g fill="#f97896"><path d="m 9.352 12.605 c 0 1.68 -1.305 3.039 -2.918 3.039 c -1.609 0 -2.918 -1.359 -2.918 -3.039 c 0 -1.68 1.309 -3.039 2.918 -3.039 c 1.613 0 2.918 1.359 2.918 3.039"/><path d="m 19.969 12.379 c 0 1.68 -1.309 3.039 -2.918 3.039 c -1.613 0 -2.918 -1.359 -2.918 -3.039 c 0 -1.68 1.305 -3.039 2.918 -3.039 c 1.609 0 2.918 1.359 2.918 3.039"/></g><path d="m 10.332 7.262 c 0 0.508 -0.434 0.918 -0.969 0.918 c -0.535 0 -0.969 -0.41 -0.969 -0.918 c 0 -0.508 0.434 -0.918 0.969 -0.918 c 0.535 0 0.969 0.41 0.969 0.918"/><path d="m 15 7.32 c 0 0.539 -0.422 0.973 -0.941 0.973 c -0.52 0 -0.941 -0.434 -0.941 -0.973 c 0 -0.535 0.422 -0.973 0.941 -0.973 c 0.52 0 0.941 0.438 0.941 0.973"/><path d="m 147.29 530.86 c -1.83 4.15 -5.797 3.979 -8.234 0.502" transform="matrix(0.41842 0 0 0.43585 -48.3 -221.24)" fill="none" stroke="#000" stroke-width="1.26"/></svg>