<svg xmlns="http://www.w3.org/2000/svg" viewBox="0 0 24 24"><path d="m 20.949 3.609 c 13.727 21.13 -23.766 29.31 -20.777 7.57 c 1.215 -8.863 15.527 -15.652 20.777 -7.57" fill="#10457d"/><g fill="#fff"><path d="m 7.252 0.387 c -4.232 0 -7.66 3.429 -7.66 7.66 c 0 4.232 3.428 7.664 7.66 7.664 c 4.236 0 7.664 -3.432 7.664 -7.664 c 0 -4.232 -3.428 -7.66 -7.664 -7.66 m 0 0.821 c 3.779 0 6.842 3.06 6.842 6.84 c 0 3.78 -3.063 6.843 -6.842 6.843 c -3.779 0 -6.838 -3.063 -6.838 -6.843 c 0 -3.776 3.059 -6.84 6.838 -6.84" transform="matrix(1.07903 0 0 1.12337 4.323 3.589)" fill-rule="evenodd" stroke="#fff" stroke-width="0.153"/><path d="m 11.125 6.488 c -0.984 2.844 -1.941 5.688 -2.93 8.531 c 0.066 0.02 0.129 0.008 0.191 0.016 c 0.359 -0.008 0.723 0 1.078 0 c 0.051 -0.008 0.043 -0.074 0.066 -0.105 c 0.434 -1.273 0.871 -2.539 1.305 -3.805 c 0.023 -0.082 0.055 -0.164 0.09 -0.238 c 0.223 0.004 0.445 -0.004 0.672 0 c -0.473 1.379 -0.941 2.758 -1.418 4.133 c 0.047 0.02 0.098 0.008 0.152 0.016 c 0.375 -0.008 0.75 0.004 1.125 0 c 0.426 -1.25 0.867 -2.504 1.293 -3.754 c 0.094 -0.254 0.098 -0.551 -0.051 -0.789 c -0.125 -0.211 -0.367 -0.32 -0.594 -0.328 c -0.316 -0.016 -0.625 0.004 -0.941 0 c 0.434 -1.277 0.879 -2.543 1.309 -3.82 c -1.34 0.148 -1.078 0.117 -1.344 0.148 m 2.801 3.645 c -0.008 0.02 -0.016 0.07 -0.023 0.094 c -0.977 2.852 -1.961 5.699 -2.941 8.551 c 1.238 0.184 0.344 0.059 1.242 0.184 c 0.426 -1.25 0.859 -2.496 1.293 -3.746 c 0.469 -0.012 0.938 -0.004 1.41 -0.016 c 0.297 -0.012 0.598 -0.199 0.695 -0.504 c 0.398 -1.16 0.797 -2.316 1.18 -3.484 c 0.063 -0.176 0.102 -0.367 0.051 -0.551 c -0.066 -0.234 -0.273 -0.414 -0.492 -0.477 c -0.195 -0.066 -0.387 -0.039 -0.586 -0.039 c -0.605 -0.004 -1.223 -0.008 -1.824 -0.012 m 1.102 0.73 c 0.031 0 0.059 0.012 0.09 0.004 c 0.172 0.008 0.344 -0.004 0.516 0 c -0.402 1.203 -0.816 2.41 -1.215 3.617 c -0.227 0.02 -0.457 0.004 -0.684 0 c 0.414 -1.195 0.816 -2.391 1.23 -3.59 c 0.008 -0.008 0.023 -0.02 0.039 -0.023 c 0.008 -0.004 0.016 -0.004 0.023 -0.004"/></g></svg>