<svg xmlns="http://www.w3.org/2000/svg" viewBox="0 0 24 24"><path d="m 18.18 21.06 c 21.254 -19.758 -22.609 -32.21 -17.773 -5.977 c 2.387 6.922 10.949 12.32 17.773 5.977" fill="#47d0cc"/><path d="m 5.703 19.234 c 0 -0.176 0.098 -0.242 0.707 -0.484 c 0.488 -0.195 1.301 -0.617 1.875 -0.973 c 1.93 -1.191 4.04 -3.371 5.063 -5.219 l 0.203 -0.367 h -8.234 v -0.164 c 0 -0.129 0.262 -0.398 1.43 -1.469 c 1.234 -1.133 1.457 -1.313 1.625 -1.313 c 0.164 0 0.32 0.117 0.965 0.707 l 0.77 0.707 l 0.773 -0.707 c 0.578 -0.523 0.816 -0.707 0.938 -0.707 c 0.121 0 0.402 0.223 1.164 0.93 c 0.551 0.508 1.016 0.961 1.031 1 c 0.012 0.039 0.07 -0.047 0.129 -0.191 l 0.109 -0.27 h -0.172 c -0.246 0 -1.945 -1.547 -1.945 -1.766 c 0 -0.113 0.34 -0.457 1.465 -1.488 c 1.199 -1.094 1.496 -1.34 1.641 -1.34 h 0.176 v 0.801 c 0 0.438 -0.027 0.852 -0.066 0.91 c -0.141 0.242 0 0.102 0.168 -0.164 c 0.527 -0.844 1.402 -1.281 2.484 -1.242 c 0.484 0.02 0.578 0.039 0.723 0.164 c 0.141 0.121 0.164 0.191 0.164 0.473 c 0 0.266 -0.035 0.387 -0.18 0.594 c -0.102 0.145 -0.246 0.313 -0.324 0.375 c -0.188 0.152 -0.172 0.25 0.039 0.289 c 0.5 0.09 0.914 0.551 1.121 1.246 c 0.199 0.676 0.203 2.262 0.004 2.922 c -0.586 1.953 -2.391 3.211 -5.645 3.941 c -0.727 0.164 -1.824 0.352 -2.59 0.438 c -0.297 0.035 -0.418 0.098 -0.996 0.512 c -1.73 1.246 -3.039 1.859 -4.199 1.969 l -0.414 0.039 m 10.496 -9.629 l 0.555 -0.301 l 0.047 -0.605 l 0.043 -0.609 h 0.309 c 0.293 0 0.313 -0.012 0.352 -0.18 c 0.027 -0.098 0.141 -0.293 0.258 -0.434 c 0.113 -0.137 0.258 -0.32 0.316 -0.398 l 0.105 -0.148 l -0.371 0.051 c -0.773 0.109 -1.32 0.488 -1.738 1.211 c -0.246 0.422 -0.789 1.625 -0.789 1.746 c 0 0.125 0.207 0.051 0.914 -0.332 m -11.398 -0.809 v -2.828 h 0.176 c 0.148 0 0.441 0.242 1.641 1.34 c 0.934 0.855 1.465 1.383 1.465 1.461 c 0 0.172 -2.945 2.852 -3.137 2.852 h -0.145 m 2.813 -3.695 c -1.906 -1.742 -2.297 -2.133 -2.297 -2.266 v -0.16 h 9.582 v 0.133 c 0 0.199 -4.602 4.398 -4.824 4.398 c -0.125 0 -0.664 -0.461 -2.461 -2.105" fill="#fdfdfd"/></svg>