<svg xmlns="http://www.w3.org/2000/svg" viewBox="0 0 24 24"><path d="m 4.668 22.15 c 9.434 6.816 23.746 -6.707 18.08 -16.758 c -4.121 -8.598 -17.211 -6.117 -21.07 1.801 c -2.992 4.883 -2.203 12.11 2.992 14.957" fill="#09a300"/><g fill="#fff"><path d="m 7.801 23.508 c -1.137 -0.23 -0.828 -0.348 -0.992 -1.414 c -0.34 -2.168 -1.516 -3.754 -3.844 -3.77 l -1.863 -0.016 c -0.422 -0.793 -1.141 -2.113 -0.105 -2.125 c 7.04 -1.176 9.34 6.05 8.04 7.605 c -0.602 -0.016 -0.496 -0.059 -1.238 -0.281"/><path d="m 11.11 17.488 c -1.066 -2.195 -2.23 -2.52 -4.082 -3.543 c -1.672 -0.922 -1.922 -0.926 -1.668 -1.359 c 0.328 -0.563 0.531 -0.563 1.609 -0.32 c 2.617 0.578 4.805 2.457 5.617 4.992 c 0.574 1.797 -0.516 2.215 -1.477 0.23"/><path d="m 13.695 14.586 c -1.531 -2.18 -2.91 -3.09 -5.211 -4.195 c -1.625 -0.777 -1.996 -0.742 -1.422 -1.57 c 0.289 -0.414 0.586 -0.379 2.348 0.254 c 2.664 0.953 3.914 1.734 5.387 3.789 c 1.359 1.902 1.73 3.48 1.23 3.895 c -0.191 0.156 -0.461 0.262 -0.594 0.227 c -0.699 -0.711 -1.27 -1.73 -1.738 -2.398"/><path d="m 17.395 13.285 c -1.973 -3.805 -3.449 -4.652 -6.926 -6.04 c -1.879 -0.75 -2.109 -1.16 -2.086 -1.609 c 0.043 -0.879 0.605 -1.148 1.637 -0.777 c 3.109 1.117 7.05 2.598 8.715 6.785 c 0.754 1.902 1.098 2.32 0.68 2.836 c -0.574 0.703 -1.035 0.301 -2.02 -1.199"/></g></svg>