<svg xmlns="http://www.w3.org/2000/svg" viewBox="0 0 24 24"><path d="m 2.293 18.367 c -13.06 -23.855 34.645 -24.98 18.227 -0.391 c -4.336 6.328 -14.711 9.414 -18.227 0.391" fill="#3e7c72"/><g transform="scale(0.09375)"><path d="m 110.71 195.96 c -3.042 -1.583 -18.458 -16.667 -22.333 -21.875 c -3.583 -4.833 -5.375 -11.833 -7.75 -30.583 c -2.458 -19.292 -4.292 -28.958 -7.04 -37 c -2.167 -6.25 -4.5 -10.542 -8.625 -15.75 c -3.542 -29.417 -10.25 -42.958 -6.875 -48.37 c 3.625 0.583 5.875 2.792 14.12 13.792 c 10.417 13.917 19.833 25.08 21.5 25.5 c 1.958 0.5 8.375 -3.583 10.125 -6.417 c 8.75 -22.08 17.17 -59.29 24.04 -66.33 c 5.667 1.792 13.625 34.33 16.458 47.958 c 3.417 16.583 4.625 20.25 7.583 22.917 c 1.792 1.625 2 1.708 4.75 1.542 c 12.292 -7.375 25.333 -15.208 32.875 -25.21 c 5.083 -2.625 20.708 -16.292 20.292 -12.08 c -0.208 1.917 -3.708 8.792 -6.875 13.542 c -1.667 2.458 -4.958 6.625 -7.375 9.333 c -6.667 7.5 -9.25 11.542 -12.958 20.333 c -3 7.125 -6.375 13.542 -9.333 17.958 c -2.917 4.292 -4.667 7.542 -4.667 8.542 c 0 1.083 -2.583 5.583 -6.5 11.458 c -5.833 8.667 -7.667 12.875 -10.292 23.417 c -2.875 11.5 -5.542 18.75 -9.5 25.833 c -2.333 4.167 -6.708 9.958 -9.375 12.375 c -2.75 2.542 -9.167 6.708 -13.13 8.542 c -4.375 2.083 -6 2.167 -9.125 0.583" fill="#950c12" stroke="#fff" stroke-width="0.467"/><g fill="#ff9f79" stroke="#ff9f79"><path d="m 128.71 139.08 c -4.458 -3.292 -0.875 -6.25 7.833 -6.583 c 5.292 -0.167 7.292 1.083 6.5 4.04 c -1.042 3.875 -10.333 5.5 -14.333 2.542" stroke-width="0.734"/><path d="m 105.33 135.67 c -5.04 -3.917 -6.333 -8.917 -2.542 -9.833 c 3.458 -0.792 11.542 5.375 11.542 8.833 c 0 2.958 -5.708 3.625 -9 1" stroke-width="0.677"/></g><path d="m 93 254.88 c -26.25 -4.292 -45.46 -17.625 -59.708 -41.5 c -1.792 -3.042 -4.083 -7.333 -5.04 -9.542 c -1 -2.25 -3.833 -8.167 -6.292 -13.167 c -12.875 -26.12 -18.75 -44.37 -20.958 -64.917 c -0.708 -6.292 -0.708 -20.12 -0.042 -25.21 c 2.167 -16.458 7.208 -30.417 15.5 -42.958 l 2.5 -3.792 l 0.333 2 c 0.792 4.5 4.625 10.208 14.208 21 c 7.792 8.833 10.375 12.333 15.375 21 c 4.458 7.792 9.833 16.292 17.08 27.17 c 5.667 6.125 5 12.583 5.542 20.542 c 0.5 7.5 1.042 14.917 1.167 16.458 c 2 21.04 5.125 31.04 11.958 38.29 c 5.292 5.542 12.13 9.04 19.625 10.125 c 13.917 1.958 33.417 -7.667 42.29 -20.875 c 4.625 -6.917 15.208 -26.958 19.08 -36.21 c 3.542 -8.417 6.458 -12.75 13.04 -19.417 c 4.542 -4.625 7 -6 9.833 -5.583 c 6.708 1.042 15.667 -0.333 26.292 -4 c 7.167 -2.5 11 -4.083 22.542 -9.458 c 5.292 -2.458 9.875 -4.5 10.167 -4.5 c 0.875 0 0.583 1.042 -1.417 4.917 c -2.417 4.75 -8.75 14.292 -12.708 19.17 c -5.5 6.833 -14.75 15 -30.875 27.29 c -9.708 7.375 -13.708 11.08 -15.208 14.04 c -1 1.917 -2.792 12.25 -2.25 12.833 c 0.375 0.333 10.917 -2.083 27.792 -6.375 c 7 -1.75 12.958 -3.208 13.25 -3.208 c 0.625 0 -0.125 1.292 -5.875 10.04 c -5.917 8.958 -11.333 15.583 -19.333 23.583 c -22.12 22 -49.17 36.542 -77.54 41.625 c -7 1.25 -24.333 1.625 -30.333 0.625" fill="#971013" stroke="#fff" stroke-width="0.467"/></g></svg>