<svg xmlns="http://www.w3.org/2000/svg" viewBox="0 0 24 24"><path d="m 14.03 23.672 c -3.207 -0.531 -7.395 -2.855 -9.977 -5.547 c -2.047 -2.129 -3.078 -3.98 -3.465 -6.211 c -0.539 -3.125 0.594 -5.621 3.578 -7.883 c 3.496 -2.535 8.531 -4.926 12.293 -3.52 c 1.488 0.563 2.496 1.211 3.531 2.273 c 2.113 2.172 3.438 5.313 3.77 8.934 c 0.191 2.051 0.059 3.672 -0.457 5.574 c -0.879 3.242 -2.734 5.383 -5.41 6.238 c -0.844 0.266 -2.691 0.336 -3.863 0.141" fill="#9daad0"/><g transform="matrix(0.08418 0 0 0.07987 1.082 1.859)"><g fill="#3986c7" stroke="#3986c7" stroke-width="0.157"><path d="m 193.6 178.27 c -2.227 -1.956 -10.116 -9.439 -17.587 -16.579 c -14.293 -13.791 -17.402 -16.286 -18.887 -15.356 c -0.51 0.342 -3.341 3.961 -6.218 8.118 c -9.931 14.04 -10.905 13.743 -28.957 -8.999 c -9.977 -12.569 -12.669 -15.552 -13.921 -15.552 c -1.439 0 -1.856 5.04 -2.135 24.991 c -0.186 16.237 -0.464 19.269 -1.903 21.47 c -3.341 5.086 -7.703 1.858 -8.724 -6.358 c -0.371 -2.885 -0.51 -17.655 -0.278 -32.816 c 0.418 -29 0.928 -32.767 4.826 -33.549 c 2.367 -0.44 3.527 0.734 20 19.66 c 7.889 9.05 15.453 17.508 16.845 18.78 c 2.413 2.25 2.459 2.25 4.455 0.44 c 1.114 -0.978 3.295 -3.717 4.873 -6.02 c 4.687 -6.994 8.306 -10.368 11.137 -10.368 c 3.48 0 14.757 10.03 33.18 29.539 c 15.778 16.726 16.891 18.731 13.179 23.03 c -3.063 3.57 -5.429 3.472 -9.884 -0.44"/><path d="m 94.11 94.54 c -1.81 -0.782 -4.223 -3.179 -5.893 -5.82 c -2.32 -3.668 -2.831 -5.429 -2.831 -10.07 c 0 -5.429 0.139 -5.82 4.176 -9.634 c 4.64 -4.45 9.1 -5.722 16.242 -4.695 c 5.197 0.782 11.23 6.456 12.205 11.444 c 0.696 3.912 -0.975 11.1 -3.434 14.574 c -3.712 5.184 -13.55 7.238 -20.465 4.206"/></g><path d="m 127.8 196.26 c -17.727 -2.25 -19.444 -5.624 -4.176 -8.216 c 16.659 -2.788 47.751 -1.32 54.11 2.641 c 2.97 1.81 -1.531 3.717 -12.761 5.429 c -12.158 1.858 -23.02 1.907 -37.17 0.147" fill="#cdd5e7" stroke="#cdd5e7" stroke-width="0.206"/></g></svg>