<svg xmlns="http://www.w3.org/2000/svg" viewBox="0 0 24 24"><path d="m 19.906 4.105 c 12.176 9.828 -5.652 27.574 -16.426 16.238 c -10.801 -9.754 6.05 -28.688 16.426 -16.238" fill="#fffacd"/><path d="m 5.188 15.227 c -0.031 -0.82 0.344 -1.734 0.617 -2.586 c 0.18 -0.563 0.48 -1.594 0.66 -2.289 c 0.328 -1.273 0.734 -2.57 1.07 -3.805 c 0.395 -1.457 0.477 -1.555 1.395 -1.648 c 0.34 -0.035 0.836 -0.094 1.102 -0.129 c 0.461 -0.063 0.559 -0.031 1.875 0.566 c 0.875 0.398 1.883 0.832 2.641 1.188 c 0.535 0.25 1 0.453 1.047 0.453 c 0.273 0 0.719 0.602 1.211 1.633 c 0.473 0.973 0.91 2.094 1.285 2.941 c 0.32 0.691 0.645 1.52 0.926 2.121 c 0.367 0.785 0.395 0.953 0.184 1.254 c -0.324 0.461 -0.5 0.488 -3.324 0.488 c -3.254 0 -3.219 0.012 -3.52 -1.164 c -0.07 -0.262 -0.234 -0.879 -0.371 -1.367 c -0.426 -1.398 -0.586 -2.723 -1.027 -4.125 c -0.266 -0.816 -0.508 -1.738 -0.613 -2.344 c -0.066 -0.379 -0.184 -0.691 -0.309 -0.828 c -0.184 -0.195 -0.258 -0.211 -0.77 -0.156 c -0.813 0.086 -0.855 0.109 -1.023 0.523 c -0.141 0.359 -0.578 2.078 -0.855 3.367 c -0.371 1.563 -0.863 3.273 -1.133 4.641 c -0.199 1.016 -0.387 1.398 -0.707 1.434 c -0.18 0.023 -0.281 -0.027 -0.359 -0.168" fill="#4c4a4a"/><g stroke="#fbce04"><path d="m 74.08 161.83 c -1.167 -1.208 -0.708 -6.75 1.458 -16.333 c 1.125 -5.083 4.833 -22 8.208 -37.625 c 7.083 -32.75 9.75 -41.875 12.542 -43.37 c 2.958 -1.583 6.708 1.292 7.875 6 c 6.542 26.583 16 67.25 17.833 76.75 c 1.917 10 2.083 12.292 0.958 13.667 c -15.375 1.833 -30.333 4.292 -48.875 0.917" transform="scale(0.09375)" fill="#fbce04" stroke-width="2.147"/><g transform="matrix(0.09375 0 0 0.09375 -0.483 0.387)"><path d="m 107.53 249.46 c -11.917 -2.333 -20.458 -5.458 -31.833 -11.667 c -22.583 -13.833 -32.04 -24.75 -49.46 -43 l 7.833 -2.625 c 51.42 -19.17 128.88 -26.417 197 -1.75 l 3 1.833 l -2.958 3.917 c -5.917 7.792 -19.75 21.292 -28.75 28.08 c -15 11.292 -30.833 18.958 -48.958 23.75 c -11.333 2.958 -34.458 3.708 -45.875 1.458" fill="#ef5531" stroke-width="2.229"/><g fill="#fff" stroke-width="1.235"><path d="m 90.95 228.71 c -1.708 -1.167 -1.708 -3.25 -0.083 -14.167 c 0.75 -5.083 1.125 -9.917 0.958 -12.375 c -0.333 -5.292 1.042 -6.708 6.167 -6.208 c 3.958 0.375 4.208 3.5 1.333 17.667 c -1.708 8.333 -3.375 13.25 -5 14.917 c -1.375 1.333 -1.708 1.375 -3.375 0.167"/><path d="m 110.61 228.96 c -0.667 -0.333 -1.625 -1.292 -2.125 -2.167 c -0.792 -1.375 -0.792 -2.042 -0.125 -4.875 c 1.583 -6.5 2.583 -14.04 2.625 -19.292 c 0 -5.208 0.042 -5.417 1.5 -6.083 c 2.167 -1 5.958 -0.875 7.04 0.25 c 1.333 1.333 1.167 5.208 -0.583 15.458 c -1.792 10.5 -2.917 14.958 -3.958 15.958 c -1.167 1.083 -3 1.417 -4.375 0.75"/><path d="m 141.95 228.67 c -1 -0.417 -0.958 -4.542 0.167 -15.625 c 0.542 -5.04 1.083 -10.583 1.25 -12.292 c 0.417 -4.208 1.292 -5 5.458 -4.792 l 3.333 0.167 l 0.208 2.375 c 0.333 3.958 -2.375 20.333 -4.417 26.542 c -1.125 3.5 -3.208 4.75 -6 3.625"/><path d="m 159.32 228.13 c -1.167 -1.167 -1.167 -0.958 0.292 -12.375 c 0.625 -5.208 1.167 -11.167 1.167 -13.208 c 0 -4.875 1.5 -6.708 5.542 -6.708 c 3.458 0 4.167 0.958 4.04 5.375 c -0.083 3.542 -3.25 20.708 -4.333 23.583 c -1.417 3.75 -4.667 5.333 -6.708 3.333"/></g></g></g><path d="m 123.9 221.02 c 0 1.97 -1.707 3.546 -3.841 3.546 c -2.134 0 -3.841 -1.576 -3.841 -3.546 c 0 -1.97 1.707 -3.546 3.841 -3.546 c 2.134 0 3.841 1.576 3.841 3.546" transform="matrix(0.10983 0 0 0.11898 -1.513 -5.965)" fill="#fff" stroke="#fff" stroke-width="2.083"/></svg>