<svg xmlns="http://www.w3.org/2000/svg" viewBox="0 0 24 24"><path d="m 0.09 11.961 c -1.816 -16.11 24.2 -15.883 23.891 0.285 c 0.855 15.04 -25.309 16.395 -23.891 -0.285" fill="#03513b"/><g stroke="#000"><path d="m 54.773 203.31 c -4.894 -0.144 -7.365 -0.481 -7.859 -1.106 c -1.532 -1.827 0.939 -2.5 10.43 -2.885 c 22.244 -0.096 25.407 -0.24 35.59 -0.192 c 6.08 0 7.167 -0.625 7.711 -4.327 c 0.198 -1.442 0.692 -2.933 1.137 -3.317 c 0.395 -0.433 3.757 -0.721 8.403 -0.721 c 8.453 0 8.947 0.192 8.947 4.135 c 0.049 3.366 1.433 4.231 6.821 4.231 c 6.03 0 7.266 -0.673 7.266 -3.894 c 0.049 -4.327 0.346 -4.471 9.293 -4.471 c 4.399 0 8.205 0.192 8.453 0.433 c 0.247 0.24 0.593 1.731 0.791 3.365 c 0.494 3.894 1.582 4.567 7.316 4.567 c 5.734 0 6.97 -0.865 6.97 -4.712 c 0 -1.442 0.297 -2.789 0.643 -2.981 c 1.236 -0.769 11.715 -1.154 14.434 -0.529 c 2.521 0.529 2.719 0.769 3.361 3.798 c 0.445 2.26 1.087 3.414 2.027 3.75 c 0.692 0.24 5.04 0.673 9.639 0.913 c 8.848 0.481 10.924 1.202 9.1 3.03 c -0.989 0.962 -8.205 1.058 -72.22 1.106 c -39.1 0.048 -74.34 -0.048 -78.25 -0.192" transform="matrix(0.07903 0 0 0.08125 1.679 1.614)" stroke-width="1.474"/><path d="m 30.997 65.05 h 199.07 v 121.68 h -199.07" transform="matrix(0.07388 0 0 0.07284 2.249 2.226)" fill="#2ffa62" stroke-width="2.464"/></g><path d="m 64.52 204.38 h 20.2 v 7.83 h -20.2" transform="matrix(0.07388 0 0 0.07284 2.249 2.226)" fill="#ed3838" stroke="#ed3838" stroke-width="2.341"/><g stroke="#000"><g stroke-width="1.05" transform="matrix(0.07903 0 0 0.08125 1.679 1.614)"><path d="m 42.41 147.2 l -1.137 -0.865 v -12.597 c 0 -6.923 0.198 -13.13 0.346 -13.847 c 0.494 -1.635 1.186 -1.875 6.871 -2.164 c 6.08 -0.337 7.909 0 10.03 1.923 c 2.521 2.164 3.658 5.096 3.707 9.375 c 0.049 4.471 -1.285 7.548 -4.152 9.616 c -1.779 1.298 -2.224 1.394 -6.278 1.394 h -4.399 l -0.346 2.885 c -0.247 2.164 -0.643 3.221 -1.483 4.087 c -1.384 1.346 -1.73 1.394 -3.164 0.192 m 12.753 -12.933 c 0.692 -0.769 0.939 -1.923 1.087 -4.664 c 0.148 -3.221 0 -3.846 -0.989 -5.289 c -1.433 -2.164 -3.658 -2.885 -5.338 -1.779 c -2.076 1.346 -2.768 3.365 -2.57 7.356 c 0.148 3.03 0.346 3.702 1.285 4.471 c 1.582 1.298 5.338 1.202 6.525 -0.096"/><path d="m 68.86 123.79 c -3.856 -1.971 -5.833 -5.721 -5.833 -11.01 c 0 -2.74 0.989 -4.76 3.361 -6.779 c 5.487 -4.712 13.297 -3.654 16.11 2.212 c 1.038 2.067 1.335 4.856 0.643 5.962 c -0.445 0.673 -4.992 1.49 -8.255 1.49 c -4.992 0.048 -6.723 1.106 -4.795 3.03 c 0.89 0.913 1.73 1.058 6.624 1.298 c 5.536 0.24 5.635 0.24 5.635 1.394 c 0 2.115 -2.175 3.125 -7.118 3.269 c -3.707 0.144 -4.646 0 -6.377 -0.865 m 8.601 -13.75 c 0.741 -0.721 0 -1.442 -2.126 -2.02 c -1.631 -0.433 -2.373 -0.385 -4.053 0.288 c -2.274 0.865 -2.472 1.635 -0.593 2.212 c 1.483 0.481 6.129 0.096 6.772 -0.481"/><path d="m 56.799 107.35 c -0.692 -0.865 -1.384 -6.491 -1.384 -12.26 l -0.049 -4.087 l -1.779 -0.337 c -2.175 -0.433 -3.46 -1.49 -3.46 -2.933 c 0 -1.731 1.186 -2.5 4.597 -2.837 c 6.624 -0.721 12.704 0.433 13.396 2.548 c 0.297 0.817 -2.027 2.789 -3.707 3.125 c -1.878 0.385 -2.175 1.298 -2.521 8.558 c -0.346 7.116 -0.84 8.606 -2.966 8.846 c -0.939 0.096 -1.73 -0.144 -2.126 -0.625"/><path d="m 88.43 164.66 c -7.217 -2.356 -11.468 -7.933 -11.962 -15.626 c -0.247 -4.279 0.692 -8.125 2.867 -11.491 c 5.783 -9.135 19.822 -10.05 26.89 -1.683 c 3.312 3.894 4.745 10.433 3.51 16.15 c -1.087 5.337 -5.536 10.577 -10.38 12.26 c -2.719 0.962 -8.601 1.154 -10.924 0.385 m 9.243 -5.818 c 3.905 -1.539 6.278 -8.798 4.943 -15.1 c -1.038 -5.05 -3.608 -7.452 -8.551 -7.885 c -3.608 -0.337 -5.882 0.433 -7.612 2.644 c -4.449 5.625 -3.658 16.15 1.433 19.52 c 3.02 2.02 6.179 2.26 9.787 0.817"/></g><g transform="matrix(0.07388 0 0 0.07284 2.249 2.226)"><path d="m 144.62 149.09 c -1.057 -1.341 -1.375 -3.539 -1.692 -11.691 c -0.317 -7.937 -0.687 -10.404 -1.639 -11.584 c -1.48 -1.931 -1.586 -4.773 -0.211 -5.363 c 0.582 -0.268 1.692 -1.823 2.432 -3.539 c 1.903 -4.344 4.177 -6.489 7.878 -7.562 c 4.494 -1.233 7.297 -0.054 6.979 3.057 c -0.211 1.77 -0.74 2.36 -3.01 3.057 c -1.533 0.536 -2.908 1.287 -3.067 1.77 c -0.106 0.429 1.057 1.77 2.644 2.95 c 1.533 1.233 2.855 2.574 2.855 3 c 0 0.483 -1 1.502 -2.274 2.252 c -4.389 2.735 -4.6 3.325 -5.182 13.246 c -0.264 5.04 -0.793 9.868 -1.163 10.618 c -0.899 1.931 -2.908 1.823 -4.547 -0.215" stroke-width="1.668"/><path d="m 55.37 180.57 c -0.899 -0.965 -1.163 -2.574 -1.428 -8.527 c -0.264 -5.738 -0.582 -7.562 -1.375 -8.42 c -1.216 -1.394 -1.269 -3.486 -0.159 -3.915 c 0.476 -0.215 1.375 -1.341 2.01 -2.574 c 1.586 -3.164 3.437 -4.719 6.503 -5.524 c 3.701 -0.912 5.975 -0.054 5.763 2.199 c -0.159 1.341 -0.634 1.77 -2.485 2.252 c -1.269 0.375 -2.432 0.965 -2.538 1.287 c -0.106 0.322 0.899 1.287 2.168 2.199 c 1.322 0.858 2.379 1.823 2.379 2.145 c 0 0.375 -0.846 1.073 -1.851 1.662 c -3.648 1.984 -3.86 2.413 -4.283 9.653 c -0.264 3.7 -0.687 7.186 -1 7.723 c -0.687 1.394 -2.379 1.341 -3.701 -0.161" stroke-width="1.293"/><path d="m 73.56 96.75 c -1.269 -0.858 -0.476 -2.95 1.533 -3.915 c 2.326 -1.126 3.172 -2.628 2.802 -4.987 c -0.159 -0.965 -1.692 -5.256 -3.384 -9.492 c -1.692 -4.29 -3.067 -7.883 -3.067 -8.04 c 0 -0.107 1.322 -0.215 2.908 -0.215 h 2.961 l 0.846 3.057 c 1 3.379 2.644 6.489 3.49 6.489 c 0.634 0 2.221 -3.539 3.12 -7.03 l 0.634 -2.521 h 6.345 l -2.961 7.294 c -6.03 14.962 -7.402 17.537 -10.205 19.04 c -1.639 0.858 -3.966 1.019 -5.02 0.322" stroke-width="1.147"/></g></g></svg>