<svg xmlns="http://www.w3.org/2000/svg" viewBox="0 0 24 24"><path d="m 12.227 23.871 c -2.473 -0.191 -5.371 -1.375 -7.391 -3.02 c -2.457 -1.996 -4.25 -5.063 -4.734 -8.08 c -0.574 -3.988 1.742 -8.277 4.355 -10.313 c 1.316 -0.988 3.055 -1.777 4.688 -2.121 c 4.246 -0.898 8.68 0.801 11.715 4.496 c 1.82 2.215 2.766 4.445 2.992 7.086 c 0.277 3.168 -0.977 6.563 -3.262 8.848 c -2.602 2.156 -5.273 3.324 -8.363 3.105" fill="#ffeddd"/><g fill="#383634"><path d="m 14.582 21.859 c 0.09 -0.09 0.313 -0.18 0.379 -0.098 c 0 0.023 -0.359 0.629 -0.41 0.629 c -0.051 0 -0.527 -0.02 0.031 -0.531 m 0.469 -0.277 c 0 -0.102 0.063 -0.188 0.141 -0.188 c 0.078 0 0.23 0.23 0.23 0.336 c 0 0.102 -0.051 0.473 -0.129 0.473 c -0.078 0 -0.242 -0.516 -0.242 -0.621 m -0.719 -0.055 c -0.082 -0.211 0.305 -0.582 0.453 -0.434 c 0.086 0.082 0.086 0.168 0.004 0.348 c -0.121 0.266 -0.867 0.547 -0.953 0.32 m 2.238 0.176 c -0.168 -0.184 -0.715 -0.648 -0.582 -0.648 c 0.105 0 0.402 -0.633 0.313 -0.688 c -0.039 -0.023 -0.16 0.063 -0.27 0.188 c -0.27 0.313 -0.242 0.406 -0.543 0.051 c -0.23 -0.277 -0.516 -0.461 -0.457 -0.938 c 0.039 -0.285 0.18 -0.625 0.203 -0.789 c 0.031 -0.191 -0.125 -0.23 -0.508 -0.098 c -0.168 0.055 -0.324 -0.047 -0.633 -0.016 c -0.668 0.07 -2.898 -0.074 -3.563 -0.23 c -1.738 -0.383 -2.617 -0.965 -3.691 -2.156 c -1.01 -1.125 -1.633 -2.277 -1.793 -3.313 c -0.109 -0.715 -0.039 -0.902 0.336 -0.902 c 0.297 0 0.367 0.156 0.137 0.301 c -0.137 0.082 -0.191 0.215 -0.191 0.469 c 0 0.32 0.023 0.352 0.25 0.352 c 0.238 0 0.473 -0.066 0.316 0.105 c -0.156 0.172 -0.383 0.266 -0.199 0.449 c 0.117 0.117 0.168 0.254 0.133 0.348 c -0.051 0.133 0.137 -0.043 0.344 -0.098 c 0.266 -0.066 0.191 0.281 -0.008 0.48 c -0.098 0.172 0.102 0.27 0.102 0.465 c 0 0.215 0.23 -0.063 0.492 -0.117 c 0.27 -0.063 0.078 0.238 -0.035 0.418 c -0.102 0.164 -0.086 0.211 0.113 0.379 c 0.125 0.105 0.477 0.09 0.535 0.094 c 0.059 0 -0.07 0.273 -0.035 0.477 c 0.055 0.363 0.25 0.504 0.383 0.281 c 0.105 -0.164 0.363 -0.184 0.313 0.012 c -0.07 0.273 0.078 0.656 0.359 0.586 c 0.156 -0.039 0.297 -0.141 0.297 -0.039 c 0 0.074 0.008 0.285 0.109 0.313 c 0.477 0.441 0.648 0.086 0.656 0.285 c 0 0.066 0.059 0.199 0.129 0.297 c 0.121 0.164 0.133 -0.063 0.32 -0.254 c 0.199 -0.195 0.199 0.031 0.258 0.219 c 0.191 0.332 0.547 0.043 0.824 0.258 c 0.117 0.094 0.23 -0.16 0.398 -0.258 c 0.18 -0.109 0.168 0.156 0.297 0.34 c 0.195 0.293 0.391 0.266 0.508 -0.07 c 0.117 -0.34 0.188 -0.348 0.418 -0.047 c 0.094 0.129 0.227 0.234 0.285 0.234 c 0.148 0 0.25 -0.324 0.172 -0.563 c -0.035 -0.109 -0.016 -0.188 0.043 -0.188 c 0.109 0 0.141 0.066 0.234 0.492 c 0.059 0.273 0.238 0.359 0.238 0.117 c 0.184 -0.363 0.18 0.59 0.426 -0.109 c 0.086 -0.27 0.102 -0.277 0.305 -0.145 c 0.113 0.074 0.207 0.203 0.207 0.277 c 0 0.117 0.027 0.121 0.145 0.023 c 0.102 -0.082 0.129 -0.207 0.09 -0.387 c -0.098 -0.441 0.027 -0.469 0.531 -0.117 c 0.531 0.371 0.762 0.332 0.566 -0.102 c -0.105 -0.227 -0.066 -0.52 0.066 -0.52 c 0.039 0 0.246 0.09 0.469 0.195 c 0.223 0.109 0.426 0.172 0.457 0.141 c 0.031 -0.031 -0.016 -0.199 -0.098 -0.371 c -0.238 -0.5 0.012 -0.625 0.266 -0.133 c 0.137 0 0.719 0.125 0.746 0.051 c 0.047 -0.117 -0.023 -0.254 -0.234 -0.453 c -0.34 -0.324 -0.316 -0.469 0.039 -0.238 c 0.348 0.23 0.59 0.191 0.75 -0.117 c 0.152 -0.297 0.102 -0.387 -0.348 -0.617 c -0.188 -0.094 -0.207 -0.301 -0.023 -0.262 c 0.051 0.012 0.207 0.047 0.344 0.078 c 0.332 0.063 0.285 -0.223 0.508 -0.336 c 0.23 0 0.145 -0.156 -0.148 -0.281 c -0.371 -0.152 -0.359 -0.285 0.023 -0.258 c 0.27 0.023 0.309 -0.004 0.336 -0.227 c 0.02 -0.176 -0.031 -0.281 -0.164 -0.355 c -0.324 -0.172 -0.227 -0.289 0.18 -0.227 c 0.355 0.059 0.516 -0.055 0.281 -0.199 c -0.051 -0.031 -0.094 -0.164 -0.094 -0.293 c 0 -0.16 -0.063 -0.254 -0.191 -0.289 c -0.25 -0.066 -0.18 -0.262 0.09 -0.25 c 0.168 0.004 0.199 -0.031 0.156 -0.188 c -0.027 -0.109 -0.051 -0.25 -0.055 -0.316 c 0 -0.07 -0.129 -0.117 -0.32 -0.117 c -0.18 0 -0.352 -0.039 -0.383 -0.094 c -0.066 -0.109 0.336 -0.277 0.664 -0.277 c 0.254 0 0.277 -0.074 0.117 -0.418 c -0.117 -0.262 -0.176 -0.277 -0.594 -0.16 c -0.328 0.094 -0.516 0.047 -0.516 -0.125 c 0 -0.133 0.203 -0.234 0.465 -0.234 c 0.109 0 0.188 -0.09 0.215 -0.238 c 0.059 -0.305 -0.059 -0.371 -0.41 -0.227 c -0.199 0.082 -0.309 0.086 -0.383 0.012 c -0.074 -0.074 -0.008 -0.156 0.242 -0.305 c 0.355 -0.207 0.441 -0.367 0.199 -0.367 c -0.078 0 -0.141 -0.043 -0.141 -0.094 c 0 -0.113 -0.438 -0.129 -0.504 -0.016 c -0.094 0.148 -0.68 0.055 -0.941 -0.152 c -0.148 -0.113 -0.355 -0.207 -0.465 -0.207 c -0.289 0 -1.559 0.273 -1.754 0.379 c -0.094 0.051 -0.926 0.344 -1.848 0.652 c -1.547 0.516 -2.27 0.672 -2.27 0.488 c 0 -0.043 -0.117 -0.215 -0.258 -0.383 c -0.188 -0.227 -0.305 -0.289 -0.43 -0.242 c -0.129 0.051 -0.156 0.125 -0.109 0.313 c 0.082 0.332 0.609 0.867 0.797 0.809 c 0.082 -0.027 0.457 -0.059 0.832 -0.07 c 0.414 -0.012 0.719 -0.066 0.781 -0.141 c 0.125 -0.152 0.258 -0.152 0.441 0.008 c 0.164 0.137 1.602 0.105 1.602 -0.035 c 0 -0.043 -0.148 -0.125 -0.328 -0.184 c -0.422 -0.141 -0.438 -0.375 -0.023 -0.379 c 0.168 -0.004 0.586 -0.059 0.93 -0.125 c 0.348 -0.066 0.688 -0.09 0.758 -0.051 c 0.074 0.043 0.34 0.012 0.594 -0.063 c 0.664 -0.199 0.707 -0.16 0.695 0.637 c -0.016 1.031 0.117 1.992 0.305 2.203 c 0.195 0.211 0.219 0.586 0.039 0.586 c -0.148 0 -0.531 -0.391 -0.531 -0.543 c 0 -0.156 -0.855 -0.145 -1.07 0.012 c -0.156 0.117 -0.152 0.133 0.078 0.285 c 0.137 0.09 0.285 0.137 0.332 0.109 c 0.047 -0.027 0.109 -0.012 0.141 0.035 c 0.027 0.051 -0.223 0.375 -0.555 0.73 c -0.336 0.352 -0.613 0.668 -0.613 0.703 c 0 0.141 0.262 0.211 0.938 0.262 c 0.543 0.035 1.211 0.359 1.211 0.469 c 0 0.105 -0.641 -0.133 -1.027 -0.113 c -0.43 0.023 -0.57 -0.012 -0.844 -0.207 c -0.176 -0.129 -0.461 -0.309 -0.629 -0.398 c -0.359 -0.188 -0.383 -0.285 -0.082 -0.398 c 0.184 -0.07 0.34 -0.27 0.34 -0.438 c 0 -0.133 -0.477 -0.008 -0.563 0.148 c -0.055 0.105 -0.168 0.188 -0.25 0.188 c -0.117 0 -0.137 -0.063 -0.09 -0.293 c 0.035 -0.164 0.109 -0.355 0.164 -0.422 c 0.141 -0.168 0.5 -0.16 0.645 0.012 c 0.066 0.078 0.145 0.141 0.18 0.141 c 0.09 0 0.293 -0.574 0.234 -0.668 c -0.027 -0.043 -0.258 -0.082 -0.508 -0.082 c -0.277 0 -0.605 -0.074 -0.82 -0.184 c -0.441 -0.23 -1.242 -0.359 -1.242 -0.199 c 0 0.059 -0.184 0.188 -0.406 0.285 c -0.227 0.098 -0.445 0.254 -0.484 0.348 c -0.043 0.094 -0.102 0.711 -0.137 1.367 c -0.066 1.352 -0.199 1.656 -0.742 1.77 c -0.387 0.078 -0.453 0.152 -0.285 0.305 c 0.25 0.23 1.133 0.551 1.234 0.449 c 0.152 -0.148 0.004 -0.418 -0.188 -0.344 c -0.266 0.102 -0.324 0.102 -0.367 -0.012 c 0.109 -0.234 0.426 -0.223 0.531 -0.445 c 0 -0.078 0.168 -0.336 0.375 -0.574 c 0.207 -0.238 0.375 -0.469 0.375 -0.512 c 0 -0.043 0.027 -0.16 0.063 -0.254 c 0.059 -0.16 0.051 -0.16 -0.141 0.008 c -0.262 0.23 -0.352 0.137 -0.207 -0.215 c 0.105 -0.301 -0.031 -0.656 0.23 -0.758 c 0.203 -0.078 0.234 -0.141 0.219 -0.445 c -0.02 -0.332 -0.004 -0.355 0.266 -0.383 c 0.176 -0.016 0.336 0.027 0.41 0.117 c 0.066 0.082 0.227 0.145 0.352 0.145 c 0.293 0 0.238 0.211 -0.07 0.285 c -0.156 0.035 -0.242 0.137 -0.281 0.34 c -0.051 0.246 -0.004 0.344 0.348 0.715 c 0.676 0.719 1.152 1.01 1.75 1.07 c 0.516 0.055 0.457 0.316 -0.012 0.316 c -0.133 0 0.902 0.715 -0.262 0.078 c -0.234 0.188 -0.551 0.086 -0.734 0.285 c -0.098 0.105 -0.25 0.191 -0.34 0.191 c -0.09 0 -0.188 0.066 -0.215 0.141 c -0.078 0.199 -0.262 0.18 -0.23 -0.023 c 0.023 -0.145 -0.066 -0.164 -0.75 -0.18 c -0.656 -0.012 -0.789 0.012 -0.828 0.141 c -0.102 0.336 -0.203 0.441 -0.457 0.469 c -0.387 0.047 -1.52 -0.348 -1.957 -0.684 c -0.215 -0.16 -0.59 -0.43 -0.836 -0.602 c -0.418 -0.285 -0.449 -0.336 -0.422 -0.652 c 0.027 -0.332 0.039 -0.344 0.379 -0.32 c 0.422 0.023 0.438 -0.059 0.086 -0.465 c -0.344 -0.391 -0.605 -0.898 -0.543 -1.055 c 0.023 -0.066 0.195 -0.148 0.383 -0.184 c 0.277 -0.051 0.367 -0.125 0.488 -0.41 c 0.078 -0.191 0.203 -0.469 0.277 -0.617 c 0.102 -0.203 0.109 -0.297 0.027 -0.398 c -0.168 -0.199 -0.273 -0.152 -0.383 0.156 c -0.109 0.316 -0.281 0.328 -0.355 0.02 c -0.027 -0.105 -0.176 -0.293 -0.332 -0.41 c -0.152 -0.117 -0.313 -0.27 -0.355 -0.336 c -0.043 -0.066 -0.141 -0.121 -0.219 -0.121 c -0.227 -0.141 0.035 -0.371 -0.262 -0.375 c -0.215 0 -0.23 -0.02 -0.133 -0.172 c 0.086 -0.141 0.074 -0.223 -0.047 -0.398 c -0.191 -0.273 -0.195 -0.367 -0.016 -0.367 c 0.078 0 0.141 -0.059 0.141 -0.133 c 0 -0.203 0.18 -0.273 0.25 -0.098 c 0.031 0.086 0.004 0.191 -0.063 0.23 c -0.074 0.047 -0.094 0.145 -0.055 0.25 c 0.066 0.168 0.07 0.168 0.164 0.004 c 0.09 -0.16 0.109 -0.16 0.262 -0.023 c 0.238 0.219 0.453 0.098 0.438 -0.242 c -0.016 -0.293 -0.105 -0.367 -0.832 -0.676 c -0.371 -0.16 -0.441 -0.336 -0.207 -0.531 c 0.258 -0.129 0.352 0.121 0.578 0.156 c 0.031 -0.035 0.16 0.027 0.277 0.141 c 0.121 0.113 0.246 0.18 0.277 0.148 c 0.105 -0.105 -0.059 -0.539 -0.199 -0.539 c -0.18 -0.047 -0.137 -0.273 -0.32 -0.281 c -0.258 0 -0.305 -0.121 -0.137 -0.359 c 0.215 -0.313 0.477 -0.25 0.422 0.102 c 0.152 0.133 0.902 0.488 0.926 0.266 c 0 -0.047 -0.105 -0.168 -0.234 -0.27 c -0.285 -0.227 -0.297 -0.359 -0.039 -0.441 c 0.227 -0.074 0.586 0.203 0.516 0.395 c -0.063 0.156 0.082 0.16 0.246 0.004 c 0.188 -0.168 0.453 -0.332 0.824 -0.504 c 0.18 -0.082 0.391 -0.188 0.469 -0.234 c 0.078 -0.047 0.285 -0.148 0.461 -0.23 l 0.316 -0.145 l -0.234 -0.238 c -0.188 -0.188 -0.273 -0.215 -0.414 -0.141 c -0.227 0.102 -0.5 0.184 -0.504 0.438 c 0 0.266 -0.145 0.297 -0.418 0.09 c -0.148 -0.109 -0.164 -0.176 -0.086 -0.301 c 0.059 -0.09 0.184 -0.18 0.281 -0.195 c 0.254 -0.051 0.328 -0.219 0.148 -0.352 c -0.129 -0.094 -0.133 -0.133 -0.027 -0.262 c 0.07 -0.082 0.207 -0.152 0.313 -0.152 c 0.152 0 0.176 0.043 0.125 0.234 c -0.047 0.195 -0.023 0.234 0.133 0.234 c 0.148 0 0.188 -0.059 0.188 -0.281 c 0 -0.309 0.039 -0.336 0.934 -0.609 c 0.508 -0.152 0.516 -0.152 0.68 0.051 c 0.094 0.113 0.168 0.348 0.168 0.523 c 0 0.324 0.266 0.691 0.5 0.691 c 0.066 0 0.215 -0.105 0.328 -0.234 c 0.246 -0.203 0.391 -0.316 0.391 -0.609 c 0 -0.281 0.039 -0.375 0.152 -0.375 c 0.148 0 0.152 0.078 0.027 0.563 c -0.027 0.102 0.047 0.148 0.242 0.168 c 0.52 0.047 0.695 0.117 0.918 0.355 c 0.164 0.176 0.367 0.258 0.793 0.316 c 0.766 0.109 0.918 0.211 1.09 0.719 c 0.082 0.242 0.266 0.59 0.41 0.777 c 0.473 0.613 0.664 0.895 0.961 1.391 c 0.316 0.531 0.445 0.59 0.688 0.324 c 0.258 -0.285 0.199 -0.418 -0.148 -0.344 c -0.301 0.066 -0.301 0.066 -0.133 -0.121 c 0.258 -0.289 -0.117 -0.512 0.039 -0.77 c 0.066 -0.105 0.117 -0.23 0.117 -0.281 c 0 -0.172 -0.266 -0.102 -0.414 0.109 c -0.313 0.34 -0.137 -0.066 -0.02 -0.207 c 0.41 -0.488 0.32 -0.703 -0.293 -0.68 c -0.07 0.004 -0.117 -0.121 -0.117 -0.312 c 0 -0.313 -0.191 -0.445 -0.328 -0.227 c -0.148 0.242 -0.207 0.059 -0.082 -0.246 c 0.176 -0.414 0.047 -0.625 -0.227 -0.379 c -0.223 0.203 -0.324 0.199 -0.266 -0.008 c 0.023 -0.09 0.074 -0.301 0.109 -0.473 c 0.059 -0.297 0.047 -0.309 -0.203 -0.281 c -0.398 0.086 -0.348 -0.625 -0.629 -0.406 c -0.527 0.625 -0.109 -0.23 -0.422 -0.27 c -0.105 0 -0.223 -0.047 -0.258 -0.105 c -0.043 -0.07 -0.16 0.004 -0.332 0.211 c -0.258 0.309 -0.363 0.25 -0.176 -0.102 c 0.07 -0.137 0.043 -0.203 -0.148 -0.328 c -0.141 -0.09 -0.219 -0.211 -0.188 -0.289 c 0.059 -0.164 -0.145 -0.18 -0.301 -0.023 c -0.117 0.117 -0.449 -0.004 -0.789 -0.285 c -0.137 -0.109 -0.191 -0.113 -0.313 -0.012 c -0.125 0.105 -0.211 0.324 -0.258 0.152 c -0.059 -0.227 -0.156 -0.496 -0.332 -0.32 c -0.23 0.156 -0.66 -0.234 -0.672 0.125 c 0 0.074 -0.043 0.137 -0.094 0.137 c -0.129 -0.098 -0.184 -0.184 -0.355 -0.172 c -0.141 0.012 -0.313 -0.012 -0.375 -0.055 c -0.066 -0.039 -0.18 -0.023 -0.25 0.035 c -0.211 0.098 -0.266 -0.09 -0.441 0.066 c -0.176 0.156 -0.02 0.625 -0.129 0.473 c -0.09 -0.121 -0.316 -0.598 -0.402 -0.516 c -0.059 0.063 -0.109 0.16 -0.109 0.219 c 0 0.059 -0.18 0.145 -0.398 0.191 c -0.309 0.066 -0.402 0.133 -0.426 0.297 c -0.035 0.246 -0.098 0.262 -0.242 0.066 c -0.086 -0.117 -0.152 -0.121 -0.406 -0.027 c -0.258 0.098 -0.293 0.148 -0.242 0.355 c 0.055 0.23 0.051 0.23 -0.129 0.074 c -0.215 -0.191 -0.371 -0.203 -0.66 -0.043 c -0.152 0.082 -0.184 0.152 -0.117 0.254 c 0.156 0.246 0.098 0.305 -0.141 0.148 c -0.281 -0.184 -0.426 -0.191 -0.426 -0.023 c 0 0.07 -0.082 0.203 -0.188 0.297 c -0.238 0.215 -0.234 0.309 0.023 0.59 c 0.227 0.25 0.207 0.246 -0.328 -0.023 c -0.191 -0.102 -0.352 -0.23 -0.352 -0.289 c 0 -0.063 0.148 -0.309 0.332 -0.547 c 0.258 -0.336 0.504 -0.516 1.102 -0.801 c 1.895 -1.176 5.074 -1.688 6.961 -0.945 c 0.777 0.332 1.484 0.699 2.01 1.043 c 0.633 0.414 1.723 1.555 2.137 2.242 c 0.336 0.562 0.746 1.766 0.832 2.453 c 0.055 0.406 0.039 0.449 -0.164 0.527 c -0.125 0.047 -0.305 0.176 -0.402 0.281 c -0.168 0.188 -0.168 0.215 -0.02 0.527 c 0.176 0.371 0.285 0.414 0.422 0.156 c 0.145 -0.195 -0.152 -0.352 -0.023 -0.484 c 0.066 -0.07 0.137 -0.051 0.227 0.059 c 0.203 0.242 0.184 2.133 -0.023 2.57 c -0.09 0.18 -0.23 0.602 -0.32 0.938 c -0.527 1.488 -1.477 2.937 -2.926 3.809 c -0.492 0.184 -1.031 0.602 -1.223 0.949 c -0.113 0.207 -0.102 0.258 0.141 0.523 c 0.145 0.164 0.297 0.336 0.336 0.383 c 0.039 0.051 0.168 -0.004 0.305 -0.133 c 0.305 -0.285 0.902 -0.547 0.688 -0.172 c -0.148 0.262 -0.637 0.68 -0.504 0.754 c 0.215 0.121 0.762 0.406 0.531 0.406 c -0.188 0 -0.773 -0.039 -0.637 0.172 c 0.223 0.34 0.328 0.902 0.055 0.598 m -2.262 -5.266 c 0.168 -0.086 0.301 -0.219 0.301 -0.293 c 0 -0.078 -0.016 -0.141 -0.039 -0.141 c -0.125 -0.031 -0.332 -0.121 -0.336 0.039 c 0 0.086 -0.078 0.148 -0.188 0.148 c -0.223 0 -0.234 -0.07 -0.039 -0.285 c 0.133 -0.148 0.121 -0.18 -0.117 -0.367 c -0.238 -0.188 -0.266 -0.191 -0.375 -0.043 c -0.73 0.34 0.031 -0.285 -0.125 -0.477 c -0.063 -0.078 -0.199 -0.141 -0.301 -0.141 c -0.156 0 -0.18 0.051 -0.148 0.324 c 0.031 0.262 0 0.34 -0.18 0.418 c -0.262 0.121 -0.273 0.258 -0.027 0.336 c 0.234 0.074 0.215 0.324 0 0.328 c -0.102 0 -0.188 -0.043 -0.188 -0.094 c 0 -0.16 -0.27 -0.102 -0.367 0.086 c -0.07 0.125 -0.063 0.203 0.02 0.273 c 0.27 0.223 1.594 0.152 2.109 -0.113 m -1.039 -0.211 c -0.031 -0.258 0.234 -0.273 0.309 -0.082 c 0 0.141 -0.195 0.195 -0.309 0.082 m -2.254 -0.395 c -0.203 -0.223 -0.195 -0.297 0.035 -0.297 c 0.32 -0.082 0.008 -0.379 0.18 -0.602 c 0.059 -0.07 0.07 -0.152 0.027 -0.18 c -0.047 -0.027 -0.156 0.035 -0.246 0.137 c -0.125 0.148 -0.191 0.168 -0.293 0.082 c -0.102 -0.086 -0.109 -0.152 -0.027 -0.313 c 0.238 -0.461 0.238 -0.492 0.02 -0.746 c -0.258 -0.301 -0.32 -0.313 -0.32 -0.074 c -0.008 0.168 -0.164 0.23 -0.164 0.336 c 0.152 0.012 0.613 -0.191 0.371 0.066 c -0.063 0.063 -0.113 0.18 -0.117 0.258 c -0.008 0.199 -0.527 0.602 -0.605 0.469 c -0.035 -0.055 0.008 -0.18 0.094 -0.277 c 0.148 -0.164 0.148 -0.184 -0.039 -0.344 c -0.137 -0.313 -0.355 -0.359 -0.57 -0.547 c -0.195 -0.176 -0.75 -0.09 -0.75 0.113 c 0 0.203 0.344 0.668 0.863 1.176 c 0.602 0.59 1.094 0.902 1.426 0.91 c 0.258 0.004 0.266 -0.004 0.117 -0.168 m -0.625 -0.438 c 0 -0.074 0.063 -0.141 0.141 -0.141 c 0.078 0 0.141 0.066 0.141 0.141 c 0 0.078 -0.063 0.141 -0.141 0.141 c -0.078 0 -0.141 -0.063 -0.141 -0.141 m -1.063 -0.766 c -0.145 -0.145 -0.047 -0.313 0.184 -0.313 c 0.277 0.031 0.18 0.137 0.129 0.336 c 0 0.063 -0.242 0.047 -0.313 -0.023 m -0.438 -0.547 c 0 -0.078 0.086 -0.141 0.188 -0.141 c 0.262 0.02 0.188 0.277 0 0.281 c -0.102 0 -0.188 -0.063 -0.188 -0.141 m 1.207 -0.359 c 0.059 -0.07 0.078 -0.152 0.043 -0.188 c -0.07 -0.07 -0.313 0.109 -0.313 0.23 c 0 0.125 0.152 0.102 0.27 -0.043 m 1.137 -0.016 c 0 -0.074 -0.039 -0.141 -0.086 -0.141 c -0.363 0.152 0.078 0.387 0.086 0.141 m 0.453 -0.598 c 0.336 -0.52 0.438 -0.578 1.094 -0.664 l 0.469 -0.059 l -0.496 -0.113 c -0.609 -0.137 -0.934 -0.07 -0.973 0.199 c -0.082 0.277 -0.367 0.242 -0.555 0.402 c -0.164 0.102 -0.785 0.184 -0.699 0.402 c 0.027 0.043 0.16 0.055 0.297 0.031 c 0.168 -0.035 0.273 0 0.336 0.105 c 0.129 0.234 0.207 0.191 0.527 -0.305 m -1.906 0.129 c 0 -0.262 -0.273 -0.234 -0.313 0.031 c -0.023 0.172 0.008 0.215 0.141 0.188 c 0.098 -0.02 0.172 -0.113 0.172 -0.219 m 5.504 -0.531 c -0.086 -0.09 -0.949 -0.09 -1.035 0 c -0.09 0.086 0.746 0.109 0.922 0.109 c 0.176 0 0.199 -0.023 0.113 -0.109 m 1.078 -0.414 c -0.09 -0.094 -0.348 0.145 -0.348 0.324 c 0 0.117 0.043 0.109 0.207 -0.059 c 0.113 -0.113 0.176 -0.234 0.141 -0.266 m -0.492 -0.445 c -0.074 -0.445 -0.109 -0.531 -0.234 -0.531 c -0.051 0 -0.09 0.254 -0.09 0.566 c 0 0.543 0.008 0.563 0.195 0.461 c 0.168 -0.09 0.184 -0.156 0.129 -0.492 m 4.16 0.09 c 0.016 -0.086 -0.031 -0.156 -0.109 -0.156 c -0.148 0 -0.613 1.273 -0.199 1.484 c 0.121 0.059 0.277 -1.16 0.309 -1.328 m -4.766 -0.195 c 0 -0.238 -0.137 -0.398 -0.223 -0.258 c -0.07 0.109 0.039 0.484 0.141 0.484 c 0.047 0 0.082 -0.102 0.082 -0.227 m -4.875 0.051 c 0 -0.148 -0.254 -0.297 -0.41 -0.234 c -0.18 0.059 -0.453 -0.223 -0.504 -0.082 c -0.066 0.195 -0.23 0.133 -0.5 -0.188 c -0.141 -0.168 -0.285 -0.273 -0.324 -0.234 c -0.039 0.035 -0.016 0.133 0.051 0.211 c 0.066 0.082 0.098 0.172 0.066 0.199 c -0.055 0.059 -0.621 -0.523 -0.625 -0.645 c -0.004 -0.039 -0.047 -0.07 -0.098 -0.07 c -0.145 0 0.129 0.473 0.438 0.77 c 0.223 0.211 0.367 0.258 0.875 0.285 c 0.305 -0.027 0.789 0.152 1.031 -0.012 m 6.188 -0.199 c 0 -0.188 -0.047 -0.281 -0.141 -0.281 c -0.168 0 -0.188 0.293 -0.027 0.453 c 0.156 0.156 0.168 0.145 0.168 -0.172 m -5.492 0.016 c 0.027 -0.047 0.027 -0.105 0 -0.133 c -0.074 -0.074 -0.414 0.031 -0.414 0.129 c 0 0.105 0.406 0.43 0.473 0.324 m 4.598 -0.965 c 0.344 -0.203 0.348 -0.309 0.008 -0.309 c -0.301 0 -0.859 0.25 -0.859 0.383 c 0 0.145 0.563 0.098 0.852 -0.074 m -2.91 -0.926 l 0.504 -0.148 l -0.66 -0.309 c -0.488 -0.227 -0.73 -0.406 -0.934 -0.691 c -0.336 -0.477 -0.531 -0.508 -0.488 -0.086 c 0.02 0.234 0.078 0.313 0.238 0.336 c 0.305 0.352 0.477 0.719 0.816 1.047 c 0.008 0 0.246 -0.066 0.523 -0.148 m 4.855 -0.652 c 0.164 -0.082 0.297 -0.211 0.297 -0.281 c 0 -0.18 -0.18 -0.172 -0.391 0.02 c -0.227 0.207 -0.324 0.094 -0.184 -0.215 c 0.063 -0.133 0.094 -0.266 0.066 -0.289 c -0.023 -0.027 -0.25 0.008 -0.504 0.07 c -0.453 0.117 -0.547 0.105 -1.191 -0.152 c -0.109 -0.043 -0.047 0.047 0.141 0.211 c 0.195 0.172 0.531 0.336 0.828 0.406 c 0.273 0.063 0.52 0.176 0.547 0.246 c 0.063 0.16 0.035 0.16 0.391 -0.016 m -3.336 -0.324 c 0.09 -0.102 0.238 -0.188 0.328 -0.188 c 0.09 -0.004 0.242 -0.109 0.336 -0.238 c 0.172 -0.234 0.168 -0.238 -0.164 -0.609 c -0.367 -0.406 -0.391 -0.465 -0.223 -0.633 c 0.086 -0.086 0.059 -0.164 -0.113 -0.344 c -0.258 -0.277 -0.313 -0.285 -0.508 -0.09 c -0.199 0.195 -0.188 0.313 0.023 0.258 c 0.246 -0.063 0.449 0.207 0.297 0.391 c -0.156 0.188 -0.344 0.18 -0.457 -0.02 c -0.082 -0.148 0.227 -0.605 -0.262 -0.016 c -0.078 0.094 -0.32 0.203 -0.5 0.27 c -0.844 0.32 -0.758 0.512 0.199 0.438 c 0.66 -0.051 0.742 -0.039 0.645 0.082 c -0.066 0.074 -0.195 0.137 -0.293 0.137 c -0.234 0 -1.363 -0.008 -1.055 0.238 c 0.09 0.066 1.313 0.164 1.367 0.285 c 0.125 0.277 0.176 0.281 0.379 0.039 m -4.664 -0.188 c -0.059 -0.02 -0.008 -0.094 -0.09 -0.094 c -0.078 0 -0.145 0.043 -0.145 0.094 c 0 0.055 0.07 0.445 0.117 0.445 c 0.051 0 0.582 -0.277 0.117 -0.445 m 7.465 -0.559 c 0.125 -0.102 0.18 -0.184 0.125 -0.188 c -0.148 -0.004 -0.605 0.223 -0.605 0.301 c 0 0.133 0.262 0.07 0.48 -0.113 m -6.05 -0.066 c 0.363 -0.184 0.496 0.055 0.695 -0.281 c 0.109 -0.184 0.172 -0.359 0.141 -0.395 c -0.031 -0.031 -0.102 0.02 -0.152 0.117 c -0.066 0.117 -0.16 0.152 -0.313 0.117 c -0.258 -0.051 -0.359 0.152 -0.57 0.223 c -0.152 0 -0.258 0.16 -0.18 0.281 c 0.082 0.137 0.199 0.117 0.379 -0.063 m 5.668 -0.402 c -0.113 -0.074 -0.117 -0.125 -0.027 -0.27 c 0.059 -0.102 0.086 -0.207 0.055 -0.238 c -0.117 -0.117 -0.289 -0.051 -0.336 0.129 c -0.051 0.195 -0.246 0.262 -0.266 0.094 c -0.008 -0.051 -0.016 -0.145 -0.023 -0.207 c -0.008 -0.063 -0.113 -0.164 -0.234 -0.227 c -0.125 -0.063 -0.328 -0.219 -0.449 -0.355 c -0.129 -0.133 -0.328 -0.242 -0.461 -0.242 c -0.266 0 -0.414 0.262 -0.215 0.383 c 0.074 0.047 0.141 0.043 0.16 -0.008 c 0.09 -0.266 0.645 0.242 0.77 0.703 c 0.051 0.184 0.359 0.289 0.934 0.316 c 0.184 0.008 0.203 -0.012 0.094 -0.078 m -1.406 -0.273 c 0 -0.043 -0.063 -0.133 -0.141 -0.199 c -0.152 -0.125 -0.172 -0.094 -0.082 0.133 c 0.059 0.16 0.223 0.207 0.223 0.066 m -2.93 -0.629 c -0.047 0.004 -0.113 -0.035 -0.18 -0.008 c -0.078 0.031 0.098 0.406 0.207 0.41 c 0.098 0.004 0.383 -0.449 -0.027 -0.402 m 2.273 13.227 c 0.082 -0.082 0.313 0.379 0.313 0.527 c 0 0.18 -0.922 0.309 -0.992 0.125 c 0.305 -0.109 0.633 -0.406 0.68 -0.652 m 3.617 -0.879 c -0.148 -0.125 0.184 -0.5 0.082 -0.559 c -0.176 -0.098 -0.676 -0.645 -0.574 -0.746 c 0.027 -0.027 0.699 0.043 0.883 0.121 c 0.254 0.105 0.008 0.449 0.152 0.777 c 0.285 0.645 0.402 1.203 -0.543 0.406 m -1.883 -3.203 c 0.105 -0.063 0.352 -0.211 0.543 -0.348 c 0.242 -0.184 0.355 -0.207 0.395 -0.168 c 0.098 0.094 -0.395 0.52 -0.605 0.52 c -0.648 0.66 -1.625 0.762 -0.332 -0.004 m 5.086 -0.531 c -0.031 0.27 -0.371 -0.793 -0.57 -0.793 c -0.289 0 -0.461 -0.02 -0.578 -0.203 c -0.207 -0.316 -0.027 -0.391 0.242 -0.246 c 0.105 0.059 0.523 -0.094 0.605 -0.125 c 0.164 -0.066 0.746 0.695 0.746 0.902 c 0 0.145 -0.426 0.305 -0.445 0.465 m -13.641 -0.988 c -0.23 -0.246 -0.637 -1.031 -0.73 -1.41 c -0.047 -0.195 -0.105 -0.25 -0.219 -0.203 c -0.355 0.176 -0.438 -0.152 -0.199 -0.285 c 0.238 0 0.266 -0.141 0.129 -0.723 c -0.07 -0.305 -0.102 -0.602 -0.07 -0.652 c 0.031 -0.055 0.086 -0.309 0.117 -0.57 c 0.031 -0.262 0.105 -0.492 0.164 -0.512 c 0.07 -0.023 0.078 0.109 0.027 0.453 c -0.043 0.27 -0.055 0.523 -0.027 0.57 c 0.027 0.047 0.063 0.387 0.078 0.762 c 0.027 0.738 0.324 1.57 0.813 2.281 c 0.148 0.219 0.27 0.418 0.27 0.449 c 0 0.117 -0.164 0.043 -0.352 -0.16 m 8.328 0 c -0.125 -0.063 -0.246 -0.168 -0.266 -0.234 c -0.055 -0.164 0.395 -0.148 0.535 0.02 c 0.102 0.121 0.145 0.121 0.34 -0.008 c 0.121 -0.078 0.273 -0.129 0.34 -0.105 c 0.07 0.027 -0.016 0.125 -0.207 0.242 c -0.332 0.184 -0.531 0.191 -0.742 0.086 m 1.398 -0.023 c 0 -0.078 0.297 -0.648 0.348 -0.648 c 0.051 0 0.043 0.367 0.043 0.445 c 0 0.078 -0.246 0.344 -0.297 0.344 c -0.051 0 -0.094 -0.063 -0.094 -0.141 m 0.129 -0.84 c -0.027 -0.074 0.055 -0.434 0.09 -0.492 c 0.09 -0.148 0.254 0.324 0.188 0.496 c -0.125 0.145 -0.227 0.121 -0.277 -0.004 m -10.141 -0.848 c -0.094 -0.914 0.699 -0.508 0.449 0.148 c 0 0.047 -0.043 0.086 -0.094 0.086 c -0.051 0 -0.648 -0.617 -0.355 -0.234 m 1.16 0.059 c -0.063 -0.098 0.207 -0.344 0.289 -0.262 c 0.031 0.242 -0.098 0.426 -0.289 0.262 m 8.992 -0.387 c -0.078 -0.121 0.035 -0.297 0.148 -0.23 c 0.113 0.07 0.172 0.473 0.055 0.473 c -0.066 -0.012 -0.164 -0.207 -0.203 -0.242 m -0.094 -0.656 c -0.102 -0.102 -0.184 -0.891 -0.07 -0.82 c 0.113 0.07 0.332 0.914 0.215 0.914 c -0.047 0 0.102 0.152 0 0.055 m -12.898 -0.012 c -0.035 -0.059 -0.09 -1.039 -0.063 -1.066 c 0.074 -0.07 0.719 0.188 0.719 0.289 c 0 0.121 -0.578 0.898 -0.656 0.777 m -0.043 -1.598 c 0 -0.254 0.27 -0.789 0.395 -0.789 c 0.176 0.219 -0.164 0.398 0.023 0.559 c 0.199 0.168 0.512 0.34 0.234 0.465 c -0.32 0.148 -0.652 0.043 -0.652 -0.234 m 12.469 0.172 c -0.188 -0.211 -0.324 -0.68 -0.152 -0.68 c 0.07 0 0.156 0.094 0.184 0.207 c 0.074 0.273 0.156 0.68 -0.031 0.473 m -2.344 -0.691 c 0 -0.16 0.816 -0.469 1.074 -0.402 c 0.246 0.063 0.328 0.301 0.121 0.363 c -0.305 0.094 -1.195 0.125 -1.195 0.039 m -8.402 0.094 c -0.043 -0.156 0.176 -1.336 0.5 -1.305 c 0.223 0.023 0.094 0.742 -0.254 0.895 c 0.328 0.688 -0.18 0.703 -0.246 0.41 m -1.379 -0.707 c -0.113 -0.113 -0.063 -0.391 0.133 -0.727 c 0.211 -0.355 0.43 -0.656 0.625 -0.422 c 0.082 0.098 0.109 0.367 0.031 0.367 c -0.059 0 0.289 0.578 -0.199 0.246 c -0.156 0.344 -0.504 0.074 -0.309 0.375 c 0.137 0.211 0.137 0.223 -0.035 0.223 c -0.102 0 -0.211 -0.027 -0.246 -0.063 m 15.996 -0.199 c -0.027 -0.078 -0.906 0.262 -0.777 0.031 c 0.125 -0.23 0.344 -0.82 0.723 -1.012 c 0.465 -0.238 0.168 0.258 0.418 0.508 l 0.668 0.523 l -0.215 0.133 c -0.34 0.207 -0.734 0.023 -0.816 -0.184 m -15.465 -1.293 c -0.035 -0.09 0.039 -0.242 0.188 -0.395 c 0.242 -0.242 0.25 -0.242 0.574 -0.086 c 0.184 0.086 0.332 0.199 0.332 0.246 c 0 0.176 -0.191 0.203 -0.395 0.063 c -0.289 -0.203 -0.355 -0.188 -0.355 0.086 c 0 0.266 -0.25 0.328 -0.344 0.086 m 3.91 -0.031 c -0.453 -0.367 0.238 -0.594 0.449 -0.281 c 0.094 0.152 0.094 0.227 0.008 0.328 c -0.141 0.172 -0.18 0.168 -0.457 -0.047 m -1.957 -0.059 c 0.016 -0.094 0.09 -0.188 0.156 -0.211 c 0.082 -0.023 0.117 0.02 0.094 0.125 c -0.016 0.094 -0.203 0.77 -0.477 0.531 c -0.066 -0.055 0.203 -0.34 0.227 -0.445 m 0.828 -0.027 c 0 -0.094 0.082 -0.25 0.188 -0.34 c 0.313 -0.285 0.277 0.172 0.137 0.328 c -0.207 0.23 -0.324 0.234 -0.324 0.012 m 0.656 -0.563 c 0 -0.043 0.086 -0.156 0.191 -0.25 c 0.238 -0.219 0.48 -0.059 0.281 0.184 c -0.129 0.152 -0.473 0.199 -0.473 0.066 m -2.906 -0.191 c 0 -0.207 0.27 -0.344 0.406 -0.207 c 0.063 0.063 0.051 0.145 -0.027 0.238 c -0.168 0.199 -0.379 0.184 -0.379 -0.031 m 3.75 -0.422 c 0 -0.172 0.215 -0.25 0.383 -0.145 c 0.113 0.074 0.113 0.102 -0.008 0.18 c -0.164 0.07 -0.367 0.117 -0.375 -0.035 m 3.469 -0.109 c 0 -0.082 0.043 -0.121 0.094 -0.09 c 0.055 0.035 0.074 0.102 0.043 0.148 c -0.082 0.129 -0.137 0.105 -0.137 -0.059 m 2.297 -0.531 c 0.133 -0.121 0.539 0.047 0.438 0.246 c -0.055 0.031 -0.328 0.215 -0.363 0.16 m -2.484 -0.777 c 0.078 -0.082 0.133 -0.043 0.203 0.148 c 0.125 0.32 0.125 0.43 0.004 0.43 c -0.176 -0.105 -0.348 -0.434 -0.207 -0.578 m 0.582 0.297 c 0 -0.188 0.047 -0.281 0.141 -0.281 c 0.156 0 0.164 0.043 0.082 0.352 c -0.082 0.305 -0.223 0.262 -0.223 -0.07 m -3.68 0.059 c 0.043 -0.203 0.531 -0.418 0.566 -0.223 c 0.031 0.23 -0.594 0.383 -0.566 0.223 m 4.43 -0.434 c 0.066 -0.133 0.133 -0.09 0.141 0 c -0.078 0.109 -0.109 0.105 -0.141 0 m -7.574 -0.738 c -0.336 -0.301 -0.648 -0.266 -0.566 -0.414 c 0.078 -0.137 0.375 -0.449 -0.094 -0.988 c -0.418 -0.48 0.027 -0.621 0.5 -0.105 c 0.277 0.309 0.766 0.086 0.449 1 c -0.066 0.184 0.074 0.445 0.113 0.563 c 0.102 0.309 0.059 0.352 -0.402 -0.059 m 9.695 -0.113 c -0.234 -0.293 -0.355 -0.391 -0.355 -0.949 c 0.004 -0.293 -0.129 -0.59 0.121 -0.566 c 0.484 0.047 0.703 0.246 0.914 -0.578 c 0.055 -0.219 0.59 0.227 0.574 0.414 c -0.027 0.402 -0.168 0.422 -0.977 0.832 c -0.234 0.117 -0.18 0.969 -0.277 0.848 m -4.789 -1.195 c -0.09 -0.234 -0.445 -1.074 -0.344 -1.074 c 0.051 0 0.445 -0.121 0.523 -0.301 c 0.211 -0.508 0.18 -1.051 0.496 -0.164 c 0.219 0.613 -0.414 0.707 -0.375 1.031 c 0.098 0.734 -0.215 0.734 -0.301 0.508"/><path d="m 4.04 9.391 c -0.219 0.215 -0.277 0.242 -0.75 0.344 c -0.453 0.121 -0.57 0.086 -0.566 -0.262 c 0.004 -0.402 -0.086 -0.492 -0.609 -0.598 c -0.371 -0.082 0.148 -0.563 0.277 -0.602 c 0.246 -0.023 0.371 0.078 0.719 0.59 c 0.254 0.367 0.27 0.375 0.746 0.383 c 0.156 0.004 0.289 0.012 0.293 0.016 c 0.008 0.004 -0.043 0.063 -0.109 0.129"/><path d="m 4.371 14 c 0.051 0.305 0.039 0.367 -0.152 0.813 c -0.117 0.27 -0.195 0.43 -0.227 0.453 c -0.055 0.035 -0.102 0.016 -0.316 -0.145 c -0.324 -0.234 -0.453 -0.215 -0.836 0.152 c -0.055 0.051 -0.121 0.09 -0.145 0.082 c -0.176 -0.184 -0.27 -0.441 -0.188 -0.656 c 0.121 -0.215 0.277 -0.254 0.895 -0.246 c 0.449 0.008 0.461 0 0.746 -0.387 c 0.094 -0.125 0.176 -0.227 0.184 -0.23 c 0.008 -0.004 0.027 0.07 0.039 0.164"/><path d="m 7.02 17.875 c 0.145 0.227 0.156 0.281 0.164 0.715 c 0.008 0.258 0 0.418 -0.016 0.445 c -0.027 0.051 -0.07 0.051 -0.289 0.004 c -0.328 -0.074 -0.418 -0.008 -0.586 0.426 c -0.129 0.313 -0.438 -0.227 -0.453 -0.34 c 0.023 -0.219 0.125 -0.309 0.598 -0.527 c 0.344 -0.16 0.352 -0.172 0.438 -0.586 c 0.023 -0.133 0.051 -0.25 0.055 -0.254 c 0.008 -0.004 0.047 0.047 0.09 0.117"/><path d="m 11.621 19.605 c 0.188 0.191 0.211 0.242 0.313 0.66 c 0.063 0.254 0.09 0.406 0.082 0.441 c -0.02 0.055 -0.059 0.063 -0.285 0.063 c -0.336 0 -0.41 0.086 -0.477 0.547 c -0.027 0.258 -0.316 0.047 -0.418 -0.051 c -0.281 -0.355 0.027 -0.578 0.168 -0.684 c 0.301 -0.23 0.508 -0.184 0.5 -0.813 c -0.004 -0.137 0 -0.254 0.004 -0.262 c 0.004 -0.004 0.055 0.039 0.109 0.098"/></g></svg>