<svg xmlns="http://www.w3.org/2000/svg" viewBox="0 0 24 24"><path d="m 0.188 10.348 c 0.883 -13.691 19.789 -11.91 22.656 -4.844 c 2.25 7.824 1.773 17.344 -6.559 18.16 c -8.336 0.82 -16.98 0.371 -16.1 -13.32" fill="#acd7e5"/><path d="m 5.723 16.16 l -2.141 -3.672 l 0.242 -0.316 c 0.477 -0.641 4.125 -6.906 4.125 -7.09 c 0 -0.059 1.711 -0.094 4.297 -0.094 h 4.301 l 0.754 1.297 c 1.766 3.03 2.84 4.895 3.148 5.477 l 0.328 0.625 l -0.273 0.547 c -0.363 0.715 -1.652 2.973 -2.906 5.082 c -0.973 1.637 -1.016 1.691 -1.387 1.754 c -0.207 0.035 -2.172 0.063 -4.363 0.063 l -3.984 0.004 l -2.141 -3.672 m 11.461 1.715 c 1.215 -2.02 3.07 -5.281 3.07 -5.398 c 0 -0.055 -0.137 -0.316 -0.305 -0.578 c -0.168 -0.266 -1 -1.668 -1.855 -3.121 c -0.855 -1.457 -1.652 -2.777 -1.773 -2.941 l -0.219 -0.293 l -3.332 -0.035 c -1.836 -0.02 -3.613 -0.004 -3.949 0.031 l -0.617 0.066 l -0.707 1.191 c -0.391 0.652 -1.273 2.164 -1.961 3.359 l -1.25 2.172 l 0.613 1.105 c 0.34 0.605 1.211 2.121 1.938 3.367 l 1.32 2.266 l 2.188 0.051 c 1.203 0.031 3.051 0.066 4.109 0.082 l 1.922 0.027 l 0.813 -1.352" fill="#282f35"/><path d="m 10.195 19.09 l -2 -0.027 l -0.254 -0.453 c -0.137 -0.246 -1 -1.758 -1.926 -3.359 l -1.676 -2.906 l 0.172 -0.289 c 0.094 -0.16 0.973 -1.668 1.953 -3.355 l 1.781 -3.066 l 1.168 -0.047 c 0.641 -0.027 2.402 -0.027 3.91 0 c 2.355 0.043 2.762 0.07 2.875 0.203 c 0.145 0.168 3.563 5.879 3.824 6.387 l 0.164 0.32 l -0.582 1.066 c -0.316 0.586 -1.172 2.074 -1.898 3.309 l -1.32 2.242 l -2.094 0.004 c -1.148 0.004 -2.992 -0.008 -4.094 -0.027" fill="#25a4de"/><g fill="#282f35"><path d="m 8.523 17.414 c -0.887 -1.313 -2.773 -4.645 -2.746 -4.848 c 0.098 -0.688 0.598 0.023 2.918 4.176 c 0.285 0.512 0.52 1 0.52 1.094 c 0 0.336 -0.309 0.145 -0.691 -0.422"/><path d="m 9.137 7.352 c -0.238 -0.047 -0.27 -0.113 -0.168 -0.379 c 0.055 -0.141 0.418 -0.16 3.03 -0.156 c 1.629 0 3.066 0.027 3.191 0.063 c 0.125 0.031 0.23 0.141 0.23 0.238 c 0 0.133 -0.117 0.191 -0.473 0.242 c -0.516 0.07 -5.438 0.063 -5.809 -0.008"/><path d="m 15.352 18.07 c -0.16 0.184 -0.23 0.176 -0.41 -0.047 c -0.094 -0.117 0.07 -0.438 1.379 -2.695 c 0.82 -1.41 1.566 -2.637 1.66 -2.73 c 0.09 -0.094 0.234 -0.129 0.32 -0.078 c 0.117 0.066 0.109 0.195 -0.027 0.531 c -0.199 0.48 -2.672 4.734 -2.922 5.02"/><path d="m 12.348 11.848 c -0.066 -0.047 -0.047 -0.313 -0.004 -0.438 c 0.023 -0.07 0.172 -0.039 0.926 0.203 c 0.469 0.148 0.813 0.52 0.848 0.551 c 0.105 0.137 -0.066 0.383 -0.172 0.379 c -0.152 -0.012 -1.496 -0.625 -1.598 -0.695"/><path d="m 10.68 13.281 c -0.008 -0.082 0.211 -0.234 0.336 -0.285 c 0.07 -0.023 0.141 0.109 0.434 0.844 c 0.188 0.457 0.121 0.961 0.121 1 c -0.039 0.172 -0.34 0.195 -0.402 0.109 c -0.09 -0.121 -0.477 -1.547 -0.488 -1.672"/></g><path d="m 10.215 13.547 c -1.387 -0.008 -2.508 -1.102 -2.5 -2.449 c 0.008 -1.344 1.137 -2.43 2.523 -2.426 c 1.387 0.004 2.508 1.098 2.504 2.445 c 0 1.344 -1.129 2.434 -2.516 2.43 v -2.438" fill="#ff2300"/><g fill="#fff"><path d="m 15.12 14.05 c -0.887 -0.008 -1.598 -0.691 -1.594 -1.531 c 0.004 -0.844 0.723 -1.52 1.605 -1.52 c 0.883 0.004 1.598 0.688 1.598 1.527 c -0.004 0.844 -0.723 1.523 -1.605 1.523 v -1.527"/><path d="m 11.879 17.285 c -0.883 -0.004 -1.594 -0.691 -1.59 -1.531 c 0.004 -0.84 0.723 -1.52 1.605 -1.52 c 0.883 0.004 1.598 0.688 1.594 1.527 c 0 0.844 -0.719 1.523 -1.602 1.523 v -1.523"/></g></svg>