<svg xmlns="http://www.w3.org/2000/svg" viewBox="0 0 24 24"><path d="m 6.04 2.563 c 12.641 -8.59 24.406 7.277 13.973 17.402 c -9.828 9.539 -24.09 0.695 -19.01 -11.172 c 1.059 -2.477 2.719 -4.652 5.04 -6.23" fill="#d7bfd7"/><path d="m 16.09 17.59 c -3.617 2.789 -8.352 2.617 -10.578 -0.383 c -2.223 -3 -1.094 -7.691 2.523 -10.48 c 3.617 -2.785 8.352 -2.617 10.578 0.383 c 2.223 3 1.094 7.691 -2.523 10.48" fill="#ff8c00"/><path d="m 9.113 20.08 c -0.945 -0.207 -2.121 -0.758 -2.926 -1.367 c -1.199 -0.91 -2.102 -2.539 -2.359 -4.254 c -0.105 -0.695 -0.047 -1.844 0.129 -2.469 c 0.25 -1.047 0.691 -2.07 1.215 -2.969 c 0.523 -0.891 1.684 -2.133 2.539 -2.723 c 1.277 -0.977 2.891 -1.582 4.34 -1.891 c 0.457 -0.09 0.914 -0.113 1.773 -0.086 c 1.371 0.027 2.371 0.32 3.516 0.965 c 1.359 0.762 2.336 2.01 2.867 3.668 c 0.641 2 0.5 4.277 -0.871 6.422 c -0.578 0.832 -3.23 3.613 -4.23 3.742 c -1.695 0.766 -4.125 1.313 -5.992 0.961 m 6.984 -2.676 c 1.406 -0.984 2.391 -2.395 3.09 -3.836 c 0.285 -0.582 0.547 -1.887 0.543 -2.73 c -0.023 -1.906 -0.957 -3.461 -2.27 -4.535 c -2.617 -1.59 -4.957 -1.492 -7.488 -0.523 c -0.938 0.379 -1.781 1.078 -2.266 1.484 c -1.504 1.395 -3.137 3.773 -2.918 5.859 c 0.473 2.887 1.375 4.195 3.891 5.457 c 1.672 0.426 4.809 0.422 7.418 -1.176" fill="#3c1a10"/><path d="m 9.207 18.457 c -2.523 -1.266 -4.078 -2.785 -4.074 -5.254 c 2.176 -0.219 3.637 -0.313 5.211 -0.652 c 0.414 0.371 0.766 0.445 0.363 1.207 c -0.469 1.652 -0.691 2.211 -1.5 4.699" fill="#6f2f84"/><path d="m 14.01 10.938 c 0.363 0.691 -0.051 1.625 -0.922 2.086 c -0.875 0.461 -1.879 0.27 -2.242 -0.422 c -0.363 -0.695 0.051 -1.629 0.926 -2.09 c 0.871 -0.457 1.875 -0.27 2.238 0.426" fill="#fff"/><path d="m 15.367 5.602 c 1.977 0.637 3.453 2.289 3.82 3.965 l 0.156 0.723 c -1.945 0.203 -3.414 0.32 -4.824 0.629 c -0.371 -0.34 -0.973 -0.531 -0.613 -1.23 c 0.711 -2.258 0.789 -2.297 1.461 -4.086" fill="#2e8b56"/><path d="m 17.93 14.691 c -1.09 2.035 -3.043 3.082 -5.207 3.496 c 0.121 -1.969 0.227 -3.223 0.152 -4.598 c 0.316 -0.328 0.75 -0.727 1.152 -0.438 c 1.402 0.375 1.785 0.895 3.902 1.539" fill="#c14292"/><path d="m 6.734 9.324 c 1 -1.902 2.508 -2.949 4.352 -3.184 c 0.176 1.625 0.219 2.926 0.488 4.105 c -0.293 0.309 -0.352 0.57 -0.957 0.27 c -1.305 -0.352 -1.918 -0.586 -3.883 -1.191" fill="#efe58c"/><path d="m 13.508 11.199 c 0.234 0.461 -0.031 1.082 -0.594 1.391 c -0.566 0.305 -1.215 0.18 -1.449 -0.281 c -0.234 -0.465 0.035 -1.086 0.598 -1.391 c 0.563 -0.309 1.211 -0.184 1.445 0.281" fill="#d7bfd7"/></svg>