<svg xmlns="http://www.w3.org/2000/svg" viewBox="0 0 24 24"><path d="m 1.102 17.73 c 4.727 11.242 23.02 6.227 22.895 -6.02 c 0.184 -11.129 -14.355 -15.348 -20.73 -7.422 c -3.191 3.43 -4.305 9.109 -2.164 13.441" fill="#546a2f" fill-opacity="0.996"/><path d="m 15.355 17.742 c 0.047 -0.109 -0.305 -1.52 -0.5 -2 c -0.031 -0.078 0.227 -0.102 1.098 -0.102 c 1.035 0 1.172 -0.016 1.453 -0.18 c 0.586 -0.34 0.633 -0.527 0.633 -2.477 v -1.738 l 0.309 -0.113 c 0.305 -0.109 0.309 -0.113 0.371 -0.793 c 0.035 -0.375 0.035 -0.719 0 -0.77 c -0.035 -0.051 -0.184 -0.063 -0.359 -0.035 l -0.301 0.051 l -0.035 -0.758 c -0.035 -0.848 -0.168 -1.094 -0.723 -1.34 c -0.273 -0.125 -0.605 -0.141 -2.57 -0.141 c -2.656 -0.098 -4.484 -0.023 -5.781 0.004 c -2.66 0.004 -2.832 0.035 -3.059 0.602 c -0.188 0.473 -0.184 6.754 0.008 7.148 c 0.207 0.434 0.566 0.539 1.828 0.539 c 0.609 0 1.062 0.031 1.062 0.078 c 0 0.039 -0.129 0.488 -0.285 0.992 c -0.156 0.508 -0.262 0.977 -0.234 1.043 c 0.066 0.148 0.926 0.168 1.039 0.023 c 0.043 -0.055 0.219 -0.547 0.398 -1.098 l 0.32 -1 c 2.281 0.078 1.992 -0.039 3.594 -0.039 l 0.199 0.66 c 0.109 0.359 0.27 0.855 0.355 1.094 l 0.152 0.438 l 0.484 0.027 c 0.387 0.02 0.492 -0.004 0.543 -0.117 m -8.656 -2.945 l -0.203 -0.121 v -3.172 c 0 -2.359 0.027 -3.191 0.109 -3.266 c 0.086 -0.07 1.367 -0.094 5.211 -0.094 c 4.629 0 5.113 0.012 5.227 0.133 c 0.086 0.09 0.125 0.359 0.125 0.855 v 0.727 l -1.141 0.34 c -0.629 0.188 -1.23 0.414 -1.336 0.5 l -0.199 0.164 l -2.082 -0.844 c -1.145 -0.461 -2.117 -0.84 -2.164 -0.84 c -0.125 0 -0.262 0.277 -0.188 0.383 c 0.035 0.051 1.012 0.473 2.168 0.938 c 1.156 0.461 2.145 0.898 2.195 0.973 c 0.211 0.305 0.508 0.5 0.754 0.5 c 0.145 0 0.625 -0.105 1.07 -0.238 c 0.445 -0.129 0.844 -0.219 0.887 -0.195 c 0.094 0.051 0.109 2.598 0.023 2.98 c -0.035 0.156 -0.137 0.285 -0.254 0.324 c -0.105 0.039 -2.398 0.07 -5.094 0.074 c -4.297 0.004 -4.93 -0.012 -5.109 -0.117" fill="#fff"/></svg>