<svg xmlns="http://www.w3.org/2000/svg" viewBox="0 0 24 24"><path d="m 19.832 3.637 c 18.758 24.867 -32.867 28.398 -16.301 3.02 c 3.777 -5.789 11.332 -9.605 16.301 -3.02" fill="#9370db"/><path d="m 10.41 19.2 c -1.301 -0.141 -3.078 -0.688 -3.969 -1.219 c -3.25 -1.945 -3.805 -6.27 -1.121 -8.781 c 0.785 -0.734 2.324 -1.5 3.68 -1.836 c 1.477 -0.363 4.109 -0.402 5.734 -0.086 c 2.676 0.52 4.34 1.57 5.273 3.336 c 0.422 0.797 0.535 1.188 0.598 2.066 c 0.266 3.609 -2.23 5.992 -6.84 6.52 c -1.438 0.164 -1.836 0.164 -3.355 0 m 2.855 -4.117 c 0 -0.523 0.371 -0.551 0.945 -0.078 c 0.93 0.762 1.371 0.469 0.496 -0.332 c -0.313 -0.285 -0.57 -0.59 -0.57 -0.668 c 0 -0.082 0.254 -0.383 0.566 -0.668 c 0.809 -0.738 1.023 -0.613 1.023 0.594 c 0 1.309 0.223 1.516 1.559 1.465 l 0.973 -0.039 l 0.043 -1.32 c 0.035 -1.113 0.008 -1.32 -0.18 -1.32 c -0.176 0 -0.223 0.168 -0.223 0.754 c 0 0.887 -0.172 1.242 -0.68 1.422 c -0.281 0.102 -0.457 0.082 -0.715 -0.078 c -0.309 -0.188 -0.344 -0.309 -0.344 -1.152 v -0.945 h -0.422 c -0.23 0 -0.512 -0.031 -0.621 -0.07 c -0.109 -0.039 -0.504 0.117 -0.875 0.348 c -0.375 0.23 -0.746 0.383 -0.828 0.336 c -0.082 -0.047 -0.148 -0.449 -0.148 -0.891 c 0 -0.625 -0.047 -0.805 -0.215 -0.805 c -0.184 0 -0.219 0.301 -0.219 1.895 c 0 1.594 0.035 1.895 0.219 1.895 c 0.137 0 0.215 -0.129 0.215 -0.344 m -5.961 -0.313 c 0.141 -0.164 0.18 -0.754 0.145 -2.32 c -0.055 -2.699 -0.316 -2.77 -0.375 -0.102 c -0.039 1.887 -0.051 1.938 -0.414 2.219 c -0.215 0.164 -0.332 0.355 -0.273 0.445 c 0.133 0.195 0.668 0.055 0.918 -0.242 m 3.328 -1.836 c 0.059 -1.402 -0.109 -1.594 -1.336 -1.539 c -0.664 0.031 -0.875 0.09 -0.875 0.242 c 0 0.152 0.168 0.203 0.648 0.203 c 0.836 0 0.922 0.359 0.117 0.484 c -0.723 0.109 -0.984 0.344 -0.984 0.879 c 0 0.707 0.309 0.891 1.426 0.836 l 0.961 -0.051 m -1.66 -0.523 c -0.25 -0.277 -0.086 -0.586 0.363 -0.691 c 0.254 -0.059 0.453 -0.02 0.602 0.117 c 0.199 0.184 0.188 0.238 -0.086 0.492 c -0.359 0.336 -0.633 0.363 -0.879 0.082 m 3.18 -0.887 c -0.055 -1.496 -0.637 -1.449 -0.691 0.027 c -0.047 1.199 0.191 2.398 0.426 2.176 c 0.086 -0.078 0.289 -1.539 0.266 -2.203 m -0.156 -2.297 c -0.07 -0.168 -0.426 -0.16 -0.445 0.105 c -0.012 0.121 -0.117 0.254 -0.063 0.387 c 0.07 0.168 0.266 0.32 0.383 0.211 c 0.086 -0.082 0.34 -0.668 0.125 -0.703" fill="#fff"/></svg>