<svg xmlns="http://www.w3.org/2000/svg" viewBox="0 0 24 24"><path d="m 8.098 1.148 c 11.945 -4.656 18.07 8.395 15.03 16.523 c -2.125 5.672 -10.594 8.496 -17.441 4.469 c -8.637 -5.082 -6.801 -17.398 2.414 -20.992" fill="#d970d6"/><g transform="scale(0.09375)"><g stroke-width="2.154"><path d="m 178.63 134.83 c -1.958 -1.958 -4.292 -8.625 -6.083 -17.13 c -0.833 -4.04 -1.875 -7.375 -2.333 -7.375 c -1.458 0 -3.083 2.583 -5.708 9 c -3.25 8.125 -6.958 12.292 -8.625 9.625 c -0.25 -0.458 -0.875 -2.583 -1.375 -4.75 c -0.875 -3.75 -0.833 -4.125 0.75 -6.417 c 2.167 -3.458 2.792 -7.708 4.04 -11.208 c 3.25 -9.375 -2.375 -14.08 1.042 -19.833 c 1.458 -2.417 2.375 -4.792 2.25 -5.833 c -0.167 -1.625 -0.625 -1.875 -4.125 -2.333 c -12.75 -1.667 -19.458 -2.792 -22.625 -3.75 c -2.958 -0.917 -3.583 -1.417 -3.583 -2.792 c 0 -1.458 0.583 -1.792 5.458 -2.958 c 5.208 -1.25 5.833 -1.25 15.667 -0.042 c 7.167 0.917 10.417 1.042 10.958 0.5 c 0.542 -0.542 0.5 -1.75 -0.083 -4.125 c -0.75 -3.042 -0.708 -3.667 0.792 -6.667 c 2.083 -4.167 5.125 -6 9.875 -5.958 c 4.458 0.042 7.375 1.542 9.708 4.958 c 2.958 4.375 2.375 7.583 -2.292 12.5 c -1.375 1.458 -2.292 3 -2.042 3.417 c 0.292 0.458 3.625 3.167 7.458 6.083 c 10.04 7.667 20.21 18.417 20.21 21.333 c 0 3.208 -7.375 0.167 -16.833 -6.958 c -5.917 -4.458 -8.708 -5.083 -8.04 -1.917 c 0.208 1.083 0.917 7.542 1.583 14.292 c 2.042 10.583 5.417 25.21 -1.458 29 c -0.708 1.125 -3.125 0.792 -4.583 -0.667" fill="#ffd600" stroke="#ffd600"/><path d="m 186.92 202.42 c -0.542 -1.083 -1.208 -3.667 -1.458 -5.708 c -0.708 -5.292 0.792 -25.21 2.458 -32.833 c 1.5 -6.958 1.792 -11.167 0.75 -11.167 c -0.375 0 -3.042 1.25 -5.958 2.833 c -0.917 1.167 -25.17 10.125 -19.08 6.792 c 0.583 -6.75 -10.375 3.333 6.292 -9.667 c 2.958 -2.458 8.04 -6.25 11.333 -8.333 c 6.167 -4.04 7.333 -5.917 4.458 -7.417 c -1.958 -1.583 -1.333 -3.958 -2.25 -6.04 c 2.792 -13.833 10.792 -14.08 16.625 -3.458 l 1.708 -15.08 c 1 -8.583 3.208 -8.125 5.583 -8.708 c 1.75 -0.417 1.917 -0.208 2.667 2.75 c 1.167 4.625 1 10.875 -0.542 18.833 c -1.458 7.5 -3.792 14.13 -5.625 16.208 c -1.333 1.458 -1.125 2.25 3 12.13 c 3.292 7.917 5.542 18.13 5.25 23.875 c -0.167 3.833 -0.375 4.375 -1.75 4.583 c -1.833 0.25 -4.458 -2.875 -6.625 -7.958 c -1.625 -3.75 -3.333 -4.417 -4.375 -1.667 c -0.333 0.958 -1.333 5.708 -2.208 10.583 c -1 2.292 -5.5 28.583 -10.25 19.458" fill="#7e70eb" stroke="#7e70eb"/><path d="m 80.08 131.42 c -0.75 -0.917 -0.958 -4.875 -0.958 -18.12 c 0.042 -14.542 0.25 -17.5 1.375 -20.833 l 1.333 -3.917 l -1.625 -1.292 c -1.875 -1.5 -2.458 -1.292 -10.833 4.167 c -5.917 3.792 -12.833 10.458 -13.75 6.542 c 2.292 -9.708 16.667 -16.5 28.04 -23.04 c 0.125 -0.667 -0.917 -2.5 -2.333 -4.083 c -4.292 -4.75 -4.458 -10.292 -0.375 -13.75 c 4.25 -3.583 9.75 -3.333 12.792 0.542 c 2.208 2.792 2.583 5.04 1.542 9.08 c -1.5 5.792 -1.083 5.917 12.75 4.833 c 11.04 -0.833 22.792 -4.792 22.75 0.125 c 0 5.708 -16.08 5.292 -25.458 6.04 c -3.375 0.25 -6.542 0.792 -7 1.208 c -1.292 1.042 -1.125 3.292 0.542 8.167 c 0.833 2.333 2.625 8.917 4 14.625 c 2.333 9.625 2.5 10.958 2.042 17.417 c -0.333 4.417 -0.792 7 -1.292 7 c -1.958 0 -6 -8.708 -9.25 -19.75 c -1.375 -4.667 -1.958 -5.75 -3.208 -5.958 c -2.25 -0.333 -2.917 1.417 -4.875 13.292 c -1.833 11 -3.542 17.833 -4.583 18.5 c -0.375 0.208 -1.083 -0.167 -1.625 -0.792" fill="#6f0a03" stroke="#6f0a03"/></g><path d="m 102.83 149.38 c -5.375 0.625 -11.375 -16.5 -1.458 -22.25 c 4.667 -2 10 -0.667 14.542 -4.208 c 2.333 -1.958 4.167 -7.125 4.875 -13.833 c 0.667 -6.125 2 -14.208 11.08 -16.292 c 15.542 -3.5 24 -3.833 27.667 0 c 1.542 1.583 1.875 10.292 1.792 14.958 c -0.083 6.792 -2.708 12.833 -3.667 19.17 c -0.958 6.375 -3.75 19.292 -7.458 21.21 c -3.792 2 -12.167 1.542 -15.417 -1.292 c -3.458 -3 -4.958 -6.292 -4.208 -9.208 c 1 -4.083 6.875 -10.708 10.625 -12 c 5.333 -1.875 8.833 2.125 9.833 -0.75 c 1.333 -3.625 -0.625 -11.458 -2.25 -13.167 c -1.667 -1.792 -17.417 -1.792 -20 -0.042 c -1.042 0.708 -2.083 3.125 -2.667 6.25 c -2.917 15.04 -5.208 22.583 -7.792 25.917 c -4.5 5.708 -7.542 6.792 -15.5 5.542" stroke="#000" stroke-width="2.824"/><path d="m 110.67 202.29 c 0.917 -5.833 2.833 -14.792 4.208 -19.958 c 1.375 -5.125 2.5 -10.583 2.5 -12.04 c 0 -2.292 -0.25 -2.708 -1.625 -2.75 c -0.875 0 -4.958 -0.333 -9.08 -0.75 c -8.375 -0.792 -14.167 -2.375 -16.583 -4.458 l -1.625 -1.417 l 2.417 -1.042 c 1.708 -0.708 6.333 -1.042 15.13 -1.083 c 7 -0.042 12.917 -0.292 13.25 -0.625 c 0.292 -0.333 -0.167 -2.167 -1.042 -4.04 c -4.04 -8.958 0.333 -16.458 9.583 -16.458 c 3.917 0 6.667 1.375 9.208 4.625 c 2.833 3.583 2.5 9.417 -0.75 12.833 c -1.542 1.708 -1.125 3.958 0.875 4.792 c 1.042 0.417 6.583 0.792 12.375 0.833 c 5.792 0.042 11.333 0.292 12.292 0.583 c 2.25 0.5 1.25 2.833 -0.375 3.958 c -2.333 1.625 -5.333 0.375 -15.25 2.167 c -4.417 0.833 -8.5 1.917 -9.08 2.417 c -1.5 1.333 -1.333 3.375 0.708 8.792 c 1.792 4.875 4.917 20.13 5.792 28.542 c 0.792 5.292 -1.375 6.125 -5.583 5.292 c -2 -0.417 -2.583 -1.083 -3.917 -4.5 c -1.833 -4.625 -3.375 -10.458 -4.583 -17.208 c -0.458 -2.625 -1.333 -5.208 -1.917 -5.75 c -7.542 8.208 -7.04 15.792 -10.292 27.792 c -10.667 4.5 -7.833 -3.125 -6.625 -10.542" fill="#2d5be6" stroke="#2d5be6" stroke-width="2.225"/><path d="m 65.29 197.38 c -1.208 -2.25 -3.167 -7.417 -4.417 -11.458 c -2.042 -6.667 -2.417 -7.375 -4 -7.375 c -1.083 0 -2.5 0.917 -3.875 2.625 c -1.917 2.333 -2.333 2.542 -3.375 1.667 c -1.042 -0.917 -1.167 -2.542 -0.833 -14.667 c 0.208 -8.208 0.792 -15.875 1.5 -19.17 c 1.167 -5.708 1.042 -6.917 -1.375 -12.458 c -1.042 -2.417 -1.167 -4.208 -0.792 -11.292 c 0.75 -14.08 3.208 -26.792 5.083 -26.17 c 0.5 0.167 0.917 3.875 1.125 10.25 c 0.208 5.5 -1.125 17.375 -0.833 17.833 c 0.333 0.5 4.25 -5.583 6.625 -4.917 c 9.208 2.583 11.958 10.417 6.04 17.333 c -3.833 4.5 -3.5 5.375 3.417 8.125 c 11.208 4.458 21.792 10.625 18.333 10.708 c -0.75 0 -1.083 0.417 -0.833 1.042 c 0.333 0.833 -0.292 0.833 -4.167 0.042 c -2.5 -0.542 -6.875 -1.833 -9.75 -2.833 c -6.417 -2.333 -9.04 -2.208 -9.333 0.375 c -0.125 1 0.625 5.375 1.625 9.708 c 4.04 17.04 5.333 34.75 2.542 34.75 c -0.292 0 -1.5 -1.833 -2.708 -4.125" fill="#7c9c1c" stroke="#7c9c1c" stroke-width="2.154"/></g></svg>