<svg xmlns="http://www.w3.org/2000/svg" viewBox="0 0 24 24"><path d="m 12.145 23.738 c -15.887 1.727 -15.902 -23.621 0.066 -23.277 c 14.844 -0.793 16.422 24.703 -0.066 23.277" fill="#b2a39f"/><path d="m 66.833 72.08 h 124 c 0.667 0 1.167 0.5 1.167 1.125 v 125.08 c 0 0.625 -0.5 1.125 -1.167 1.125 h -124 c -0.625 0 -1.167 -0.5 -1.167 -1.125 v -125.08 c 0 -0.625 0.542 -1.125 1.167 -1.125" transform="scale(0.09375)" fill="#f6f6f6" stroke="#684236" stroke-width="0.709"/><g transform="matrix(0.06591 0 0 0.06149 3.579 3.987)"><path d="m 36.548 244.52 c -1.126 -0.826 -1.363 -15.626 -1.304 -93.31 c 0 -57.742 0.415 -93.06 1.01 -94.14 c 0.533 -1.016 2.43 -2.16 4.149 -2.541 c 6.104 -1.334 5.867 -4.955 5.986 83.72 c 0.119 99.35 -0.119 90.33 2.43 92.87 c 2.074 2.033 2.43 2.033 79.95 2.033 c 75.09 0 77.876 -0.064 79.71 -1.906 c 1.837 -1.779 1.897 -4.891 2.074 -87.978 c 0.237 -95.41 -0.178 -89.95 6.519 -88.55 c 1.778 0.318 3.675 1.397 4.208 2.414 c 1.185 2.223 1.363 185.93 0.178 187.14 c -1.245 1.27 -183.19 1.525 -184.91 0.318" fill="#0b0b0b" stroke="#0b0b0b"/><path d="m 35.36 43.977 c 0.593 -6.797 1.363 -12.704 1.719 -13.09 c 1.067 -1.143 172.64 -1.842 179.81 -0.762 l 6.104 0.953 v 25.22 h -188.59" fill="#473f84" stroke="#473f84" stroke-width="1.055"/></g><g fill="#684236" stroke="#684236" stroke-width="0.716" transform="matrix(0.09375 0 0 0.09375 -0.379 0.285)"><path d="m 93.38 174.42 c -0.875 -6.958 -0.208 -31.417 0.917 -32.542 c 0.417 -0.417 7.125 -0.792 14.875 -0.792 c 11.458 0 14.292 0.292 15.08 1.5 c 0.542 0.875 0.875 9.167 0.708 19.21 l -0.25 17.667 l -30.667 0.583 m 21.875 -9.375 c 1.542 -1.5 1.667 -18.292 0.167 -21.04 c -0.833 -1.583 -2.125 -1.958 -6.292 -1.958 c -7.833 0.042 -8.25 0.542 -8.667 10.958 c -0.458 12.08 0.25 13.292 7.792 13.292 c 3.167 0 6.333 -0.542 7.04 -1.208"/><path d="m 95.13 126.59 c -1.625 -1 -2.833 -28.08 -1.542 -34 c 0.75 -3.333 1.375 -4.083 3.583 -4.375 c 2.333 -0.25 2.75 0.125 3.333 3.125 c 0.333 1.875 0.458 10.292 0.292 18.792 c -0.25 12.292 -0.625 15.583 -1.833 16.333 c -1.875 1.167 -2.208 1.167 -3.833 0.125"/><path d="m 118.38 124.67 c -1 -2.458 -0.917 -34.25 0.125 -35.29 c 1 -1 26.75 -1.125 29.21 -0.125 c 1.583 0.667 1.792 2.5 1.792 17.375 c 0 9.125 -0.292 17.333 -0.625 18.208 c -0.542 1.375 -2.833 1.583 -15.208 1.583 c -12.917 0 -14.625 -0.167 -15.292 -1.75 m 21.792 -6.542 c 0.792 -0.75 1.25 -4.625 1.25 -10.5 c 0 -11.167 -0.875 -12.542 -7.917 -12.5 c -7.25 0 -7.708 0.625 -8.125 10.958 c -0.458 12.08 0.25 13.292 7.792 13.292 c 3.167 0 6.333 -0.583 7.04 -1.25"/><path d="m 167.92 126.59 c -1 -0.625 -1.25 -5.208 -1.042 -19.417 l 0.292 -18.625 l 2.417 -0.333 c 1.333 -0.208 2.792 0.25 3.25 1 c 1.417 2.208 1.125 35.584 -0.333 37 c -1.375 1.417 -2.792 1.542 -4.583 0.375"/><path d="m 168.29 179.72 c -1.5 -1.083 -1.667 -3.458 -1.417 -19.917 l 0.292 -18.708 h 6.04 l 0.292 18.917 c 0.25 17.625 0.125 18.958 -1.625 19.917 c -1.333 0.708 -2.417 0.625 -3.583 -0.208"/><path d="m 144.29 180.26 c -1.333 -0.292 -1.708 -2.542 -2.208 -13.208 c -0.333 -7.04 -0.292 -15.792 0.083 -19.417 c 0.667 -5.875 1 -6.583 3.167 -6.875 c 1.292 -0.208 2.792 0.25 3.25 1 c 0.458 0.75 0.875 9.417 0.875 19.25 c 0 16.04 -0.167 18 -1.75 18.75 c -0.958 0.5 -2.5 0.708 -3.417 0.5"/></g></svg>