<svg xmlns="http://www.w3.org/2000/svg" xmlns:xlink="http://www.w3.org/1999/xlink" viewBox="0 0 24 24"><defs><g id="3" clip-path="url(#2)"><path d="m 52.583 98.67 c 6.375 0 12.75 0 19.12 0 c 0 -6.708 0 -13.375 0 -20.04 c 6.833 0 13.667 0 20.5 0 c 0 -5.75 0 -11.5 0 -17.208 c 34.5 0 69 0 103.5 0 c -0.042 43.5 -1.375 91.96 -0.125 126.63 c -47.667 0.458 -95.33 0.458 -143 0.458 c 0 -29.917 0 -59.875 0 -89.83" transform="scale(0.09375)" fill="#fff" stroke="#fff" stroke-width="0.014"/></g><clipPath id="2"><path d="M 0,0 H24 V24 H0 z"/></clipPath><filter id="0" filterUnits="objectBoundingBox" x="0" y="0" width="24" height="24"><feColorMatrix type="matrix" in="SourceGraphic" values="0 0 0 0 1 0 0 0 0 1 0 0 0 0 1 0 0 0 1 0"/></filter><mask id="1"><g filter="url(#0)"><path fill-opacity="0.988" d="M 0,0 H24 V24 H0 z"/></g></mask></defs><path d="m 4.891 22.15 c 9.586 6.816 23.602 -6.707 17.711 -16.758 c -4.313 -8.598 -17.348 -6.117 -21.03 1.801 c -2.887 4.883 -1.934 12.11 3.32 14.957" fill="#ccf"/><use xlink:href="#3" mask="url(#1)"/><path d="m 169.13 325.33 c 0.042 -24.708 0.25 -45.33 0.458 -45.833 c 0.208 -0.458 1.417 -1.667 2.625 -2.625 c 2.125 -1.708 2.583 -1.833 8.208 -2.208 c 6.04 -0.417 10.375 -1.583 10.333 -2.792 c 0 -0.375 -0.375 -1.667 -0.833 -2.833 c -0.458 -1.208 -0.875 -3.417 -0.875 -4.917 c 0 -2.167 0.292 -3.042 1.583 -4.458 c 1.583 -1.75 1.792 -1.792 8.08 -2.333 c 3.75 -0.333 7.5 -1 9 -1.583 c 2.208 -0.917 2.5 -1.208 2.125 -2.25 c -1.042 -3.042 -1.625 -8 -1.125 -9.667 c 0.833 -2.708 2.917 -3.75 8.583 -4.333 c 2.708 -0.25 23.292 -0.417 45.917 -0.333 c 37.75 0.125 41.13 0.208 43.25 1.125 c 4.917 -0.625 -3.875 -0.5 9.708 -0.625 c 0 6.083 -0.083 5.292 -1.292 6.083 c -1.792 1.167 -5.333 1.083 -8.08 -0.208 c -2.208 -1.083 -3.458 -1.083 -46 -1.083 c -27.17 0 -44.13 0.208 -44.792 0.5 c -0.708 0.375 -1.167 1.458 -1.458 3.458 c -0.208 1.625 -0.75 3.375 -1.208 3.958 c -1.333 1.625 -1 2.625 1.292 3.625 c 1.792 0.792 3.75 0.958 12.333 0.917 c 6.083 -0.042 10.625 0.167 11.292 0.5 c 1.5 0.75 1.5 2.417 0 3.792 c -1.125 1.042 -1.958 1.083 -21.375 1.083 c -22.625 0 -20.875 -0.333 -21.708 4.04 c -0.208 1.167 -1.042 3.042 -1.792 4.167 c -0.792 1.125 -1.417 2.125 -1.417 2.25 c 0 0.125 0.875 0.542 1.917 0.917 c 1.333 0.5 6.792 0.75 18 0.917 c 9.917 0.125 16.417 0.417 16.875 0.75 c 1.292 1 0.875 3.125 -0.792 3.708 c -0.875 0.292 -11.542 0.5 -26.12 0.5 c -14.917 0 -25 0.208 -25.667 0.542 c -0.583 0.292 -1.375 1.292 -1.708 2.25 c -0.458 1.208 -0.667 14.75 -0.667 44.833 v 43.17 h -4.667 m 102.5 -25.04 c 0 -18.708 -0.167 -25.17 -0.708 -25.667 c -1 -0.917 -3.292 -0.75 -5.04 0.375 c -2.5 1.625 -4.958 1.875 -8.792 0.875 c -3.292 -0.875 -3.708 -0.875 -6.5 0 c -1.917 0.583 -3.625 0.792 -4.875 0.542 c -2.125 -0.458 -5.583 -2.333 -6.875 -3.792 c -1.625 -1.792 -4.417 -2.417 -10.958 -2.417 c -7.708 0 -14.625 1.083 -18.917 2.917 c -1.792 0.792 -3.583 1.417 -4 1.417 c -2.375 0.583 -4.25 1.792 -6.75 2.167 c -0.75 0 -2 0.583 -2.75 1.333 c -1.667 1.667 -3.25 1.75 -4.125 0.208 c -0.875 -1.458 -0.5 -1.75 4.417 -3.417 c 2.25 -0.792 4.625 -1.875 5.25 -2.417 c 0.667 -0.542 2.25 -1.5 3.542 -2.167 c 1.292 -0.625 4.875 -2.583 7.917 -4.375 c 6.083 -3.5 9.583 -5.167 13.167 -6.167 c 2.042 -0.583 2.375 -0.917 2.792 -2.792 c 0.25 -1.167 1.042 -3.292 1.75 -4.708 c 1.708 -3.417 3.292 -4 12.292 -4.417 c 4.875 -0.25 9.458 -0.875 14.167 -1.917 c 3.833 -0.875 7.917 -1.625 9.08 -1.625 c 4.792 -0.125 6.708 -1.833 5.458 -4.833 c -0.5 -1.208 -0.833 -1.375 -2.917 -1.167 c -1.792 0.125 -2.5 0.5 -2.958 1.5 c -0.75 1.5 -2.042 1.75 -1.75 0.333 c 0.125 -0.5 1.5 -1.708 3.042 -2.625 c 1.583 -0.958 3.292 -2.417 3.875 -3.292 c 1.292 -1.958 2.958 -3.167 9.708 -7.083 c 6.542 -3.792 6.792 -3.917 8.583 -5.083 c 0.792 -0.542 2.542 -1 3.917 -1.042 c 2.042 -0.083 2.625 -0.333 3.292 -1.542 c 0.833 -1.458 4.917 -4.292 10.167 -7.083 c 3.542 -1.875 6.875 -4.875 8.125 -7.208 c 0.542 -1.042 1.167 -1.917 1.458 -1.917 c 0.25 0 0.458 10.792 0.458 23.917 c -0.042 21.13 -0.125 23.792 -0.875 22.875 c -0.5 -0.583 -0.875 -1.375 -0.875 -1.708 c 0 -0.375 -1.958 -2.208 -4.375 -4.083 c -2.667 -1.417 -4.333 -4.125 -6.083 -6 c -0.917 -0.958 -2.083 -2.5 -2.625 -3.458 c -0.5 -0.917 -2.125 -2.792 -3.583 -4.167 c -3.25 -3.083 -5.208 -3.292 -9.125 -0.875 c -1.458 0.875 -2.833 1.583 -3.083 1.583 c -0.25 0.042 -1.875 0.958 -3.583 2.125 c -3.542 2.417 -3.875 3.25 -3.875 9.75 c 0 5.625 -0.667 6.167 -8.875 7.583 c -3.417 0.542 -9.08 1.917 -12.625 2.958 c -5.333 1.625 -6.792 1.875 -8.708 1.5 c -1.292 -0.25 -4.625 -0.292 -7.417 -0.125 c -5.583 0.375 -7.25 1.208 -8.667 4.375 c -0.667 1.375 -0.542 1.708 0.958 3.167 c 0.917 0.917 3.542 2.667 5.792 3.917 l 4.083 2.292 l 10.833 -0.083 c 5.958 0 12.458 -0.083 14.375 -0.125 c 1.917 -0.083 4.292 0.167 5.292 0.5 c 2.625 0.958 14.08 2.167 17.17 1.792 c 1.5 -0.167 3.792 -0.792 5.083 -1.375 c 3.833 -1.667 7.917 -1.833 11.458 -0.458 c 4.083 1.625 5.458 1.208 7.292 -2.125 c 0.833 -1.5 1.625 -2.708 1.75 -2.708 c 0.167 0 0.292 13.75 0.292 30.542 v 30.5 h -12.292 c -10.542 0 -26.833 0.083 -26.833 -0.583 c 0 -0.458 -3.5 -2.5 -2.833 -3.125 c 0.958 -0.917 20.13 0 22.21 0.333 c 3.042 0.5 9.542 0.5 11.708 -0.042 l 1.625 -0.375 l -0.167 -22.792 l -0.167 -22.833 l -2.083 -0.875 c -1.125 -0.5 -2.417 -1.292 -2.833 -1.792 c -1.208 -1.333 -4.167 -1.042 -6 0.625 l -1.667 1.458 v 18.333 c 0 19.333 0.75 26.5 -1.208 28.458 c -1.375 1.333 -3.5 1.208 -4.125 -2 c -0.667 -0.708 -0.833 -5 -1 -21.583 c -0.167 -20.625 -0.167 -20.708 -1.375 -20.708 c -0.667 0 -2.083 -0.5 -3.125 -1.083 c -1.042 -0.625 -3.167 -1.25 -4.708 -1.458 c -2.333 -0.292 -2.917 -0.167 -3.583 0.667 c -0.625 0.792 -0.792 5.708 -0.792 25.17 v 24.21 h -5.292 m 40.25 -87.25 c -0.417 -4.542 -1.167 -7.75 -0.958 -11.583 c 0.167 -3.875 -1.333 -6.5 -1.625 -6.875 c -0.417 -0.542 -1.167 -0.458 -3.583 0.458 c -2.875 1.125 -3 1.25 -3 3.208 c 0 1.125 0.25 2.208 0.583 2.417 c 0.875 0.5 0.667 2.792 -0.292 3.167 c -1.417 0.5 -1.042 2 1 3.875 c 1.042 0.917 2.917 2.708 4.083 3.958 c 2.375 2.375 3.25 2.708 3.792 1.375 m -127.5 44.08 c -1.25 -0.708 -0.292 -2.208 1.417 -2.208 c 1.708 0 2.667 1.5 1.417 2.208 c -0.458 0.292 -1.083 0.5 -1.417 0.5 c -0.333 0 -0.958 -0.208 -1.417 -0.5 m 3.458 -12.875 c -7.583 -0.125 -7.5 -1.875 -7.375 -2.75 c 0.458 -3.333 9.292 -2.5 16.417 -2.667 c 5.125 -0.125 6.625 2 5.875 3.792 c -1 2.458 -11.5 1.667 -14.917 1.625 m -6.75 -15.958 c -1.792 -0.333 -2.667 -2.458 -1.458 -3.583 c 0.875 -0.792 10.875 -1.917 27.708 -1.917 h 18.875 v 1.583 c 0 1.25 -0.917 3.708 -2.042 4 c -1.583 0.417 -33.792 0.5 -36.04 0.083 m 44.542 -14.792 c -0.167 -0.5 -0.417 -1.208 -0.542 -1.625 c -0.417 -1.292 3.625 -12.12 5.542 -14.625 c 2.833 -3.833 11.708 -12.13 14.13 -13.292 c 2.5 -1.167 4.917 -1.333 7.333 -0.458 c 0.917 0.333 5.667 0.917 10.5 1.292 c 7.917 0.667 9.25 0.917 12.458 2.417 c 2.583 1.208 5.208 2.792 5.208 3.542 c 0 1.583 -3.667 1 -8.667 0 c -2.375 -0.5 -7.792 -1.208 -11.958 -1.625 c -4.208 -0.375 -8.708 -0.875 -10.04 -1.083 c -2.375 -0.375 -2.375 -0.333 -7.667 4.417 c -6.417 5.75 -9.25 9.5 -9.792 12.833 c -0.25 1.375 -1 3.125 -1.75 3.958 c -0.75 0.833 -1.708 2.208 -2.167 3.083 c -0.958 1.833 -2.167 2.375 -2.583 1.167 m 21.542 -4.458 c -1.292 -0.5 -2 -2.25 -1.333 -3.375 c 1.042 -1.792 8 -4.375 7.875 -2.875 c -0.042 0.375 -0.125 1.5 -0.167 2.542 c -0.125 3.125 -3.208 4.875 -6.375 3.708" transform="matrix(0.09375 0 0 0.09375 -11.293 -17.07)" fill="#9393c3" stroke="#9393c3"/></svg>