<svg xmlns="http://www.w3.org/2000/svg" viewBox="0 0 24 24"><path d="m 20.949 3.609 c 13.727 21.13 -23.766 29.31 -20.777 7.57 c 1.215 -8.863 15.527 -15.652 20.777 -7.57" fill="#ff8c00"/><g fill="#ff0" stroke="#000" transform="matrix(0.03746 0 0 0.03456 2.252 0.577)"><path d="m 113.74 233.23 h 35.25 l 85.83 183.69 v -183.69 h 25.343 v 219.53 h -35.25 l -85.73 -183.69 v 183.69 h -25.447 v -219.53" stroke-width="1.272"/><path d="m 398.97 373.97 c 0 -19.1 -3.963 -34.03 -11.889 -44.877 c -7.822 -10.965 -18.564 -16.391 -32.33 -16.391 c -13.662 0 -24.508 5.426 -32.434 16.391 c -7.717 10.852 -11.681 25.773 -11.681 44.877 c 0 19.1 3.963 34.03 11.681 44.99 c 7.926 10.739 18.772 16.16 32.434 16.16 c 13.766 0 24.508 -5.426 32.33 -16.16 c 7.926 -10.965 11.889 -25.886 11.889 -44.99 m -88.33 -55.16 c 5.423 -9.382 12.306 -16.391 20.65 -20.913 c 8.343 -4.635 18.251 -6.895 29.827 -6.895 c 19.19 0 34.833 7.574 46.722 22.834 c 11.993 15.261 18.04 35.27 18.04 60.14 c 0 24.756 -6.05 44.764 -18.04 60.02 c -11.889 15.261 -27.533 22.834 -46.722 22.834 c -11.576 0 -21.484 -2.261 -29.827 -6.782 c -8.343 -4.522 -15.226 -11.53 -20.65 -20.913 v 23.626 h -26.07 v -219.41 h 26.07 v 85.46" stroke-width="1.3"/></g></svg>