<svg xmlns="http://www.w3.org/2000/svg" viewBox="0 0 24 24"><path d="m 18.17 2.02 c 21.13 17.914 -22.313 35.14 -17.848 7.434 c 0.98 -6.074 12.156 -12.262 17.848 -7.434" fill="#e5e5fa"/><path d="m 11.266 18.656 c -0.375 -0.145 -0.887 -0.578 -0.887 -0.754 c 0 -0.094 -0.043 -0.113 -0.172 -0.07 c -0.301 0.098 -0.895 0.148 -1.098 0.094 c -0.297 -0.078 -0.711 -0.508 -0.852 -0.887 c -0.07 -0.184 -0.148 -0.559 -0.176 -0.828 l -0.047 -0.488 l -0.41 -0.203 c -0.941 -0.457 -1.57 -1.402 -1.641 -2.461 c -0.031 -0.488 -0.059 -0.574 -0.164 -0.539 c -0.066 0.027 -0.316 0.121 -0.547 0.211 c -0.848 0.332 -1.727 0.176 -2.363 -0.422 c -0.539 -0.512 -0.77 -1.047 -0.77 -1.809 c -0.004 -0.715 0.148 -1.078 0.574 -1.387 c 0.375 -0.273 0.762 -0.242 1.371 0.102 c 0.656 0.375 0.91 0.371 1.391 0 c 0.887 -0.688 1.121 -0.773 1.66 -0.617 c 0.359 0.102 0.84 0.555 1.059 0.992 c 0.141 0.277 0.168 0.293 0.684 0.336 c 0.293 0.027 0.699 0.125 0.898 0.223 c 0.602 0.289 1.477 1.27 1.34 1.508 c -0.059 0.105 0.16 0.172 0.578 0.172 c 0.461 0 0.621 -0.063 0.566 -0.215 c -0.023 -0.066 0.047 -0.242 0.148 -0.387 c 0.602 -0.844 1.207 -1.223 2.07 -1.297 c 0.551 -0.047 0.586 -0.063 0.688 -0.297 c 0.133 -0.313 0.527 -0.77 0.785 -0.91 c 0.574 -0.316 1.086 -0.223 1.746 0.328 c 0.625 0.52 0.832 0.543 1.539 0.176 c 0.68 -0.355 1.063 -0.387 1.441 -0.113 c 0.426 0.309 0.574 0.672 0.574 1.387 c -0.004 0.711 -0.215 1.254 -0.668 1.711 c -0.676 0.68 -1.512 0.848 -2.488 0.496 c -0.328 -0.121 -0.617 -0.219 -0.637 -0.219 c -0.02 0 -0.039 0.207 -0.039 0.453 c 0 0.98 -0.645 2.035 -1.531 2.496 l -0.461 0.238 l -0.043 0.508 c -0.121 1.379 -0.84 2 -1.926 1.664 c -0.617 -0.195 -1.523 -0.918 -1.363 -1.094 c 0.027 -0.027 0.383 0.082 0.789 0.246 c 0.879 0.352 1.219 0.375 1.477 0.098 c 0.207 -0.219 0.375 -0.773 0.336 -1.113 c -0.02 -0.199 -0.063 -0.227 -0.449 -0.285 c -0.75 -0.113 -1.383 -0.563 -1.844 -1.305 c -0.324 -0.52 -0.527 -1.32 -0.438 -1.746 c 0.047 -0.238 0.043 -0.242 -0.27 -0.242 h -0.32 l 0.051 0.281 c 0.07 0.414 -0.16 1.27 -0.48 1.77 c -0.445 0.695 -1.082 1.137 -1.809 1.254 c -0.391 0.063 -0.43 0.145 -0.352 0.723 c 0.031 0.211 0.141 0.477 0.258 0.625 c 0.195 0.25 0.219 0.258 0.672 0.211 c 0.258 -0.023 0.727 -0.156 1.047 -0.293 c 0.316 -0.137 0.605 -0.23 0.637 -0.207 c 0.121 0.078 -0.098 0.348 -0.527 0.652 l -0.441 0.313 l 0.266 0.148 c 0.145 0.082 0.441 0.191 0.66 0.242 c 0.344 0.078 0.457 0.066 0.852 -0.082 c 0.727 -0.277 0.723 -0.277 0.723 -0.152 c 0 0.18 -0.379 0.535 -0.773 0.723 c -0.406 0.199 -0.473 0.203 -0.895 0.043 m -1.938 -3.863 c 0.199 -0.066 0.465 -0.258 0.719 -0.527 c 0.414 -0.441 0.516 -0.695 0.586 -1.469 l 0.039 -0.398 l -0.242 0.023 c -0.242 0.027 -0.242 0.027 -0.223 0.469 c 0.023 0.43 0.008 0.461 -0.406 1.016 l -0.434 0.574 h -1.379 l -0.43 -0.59 c -0.234 -0.324 -0.43 -0.621 -0.43 -0.656 c 0 -0.117 0.219 -1.191 0.273 -1.336 c 0.043 -0.129 1.094 -0.734 1.27 -0.734 c 0.043 0 0.383 0.148 0.754 0.332 c 0.414 0.207 0.727 0.313 0.82 0.281 c 0.137 -0.047 0.129 -0.074 -0.109 -0.34 c -1.059 -1.191 -2.867 -0.754 -3.289 0.793 c -0.449 1.637 0.922 3.055 2.48 2.563 m 6.203 -0.098 c 0.875 -0.434 1.289 -1.449 1.012 -2.465 c -0.422 -1.547 -2.23 -1.984 -3.289 -0.793 c -0.246 0.277 -0.25 0.293 -0.094 0.348 c 0.113 0.035 0.375 -0.055 0.824 -0.285 c 0.363 -0.184 0.73 -0.336 0.813 -0.336 c 0.242 0 1.219 0.559 1.262 0.723 c 0.023 0.082 0.098 0.402 0.16 0.711 c 0.141 0.652 0.125 0.699 -0.398 1.363 l -0.344 0.434 h -1.445 l -0.402 -0.539 c -0.383 -0.516 -0.398 -0.559 -0.371 -0.973 l 0.023 -0.434 l -0.281 -0.027 l -0.281 -0.023 l 0.039 0.398 c 0.07 0.773 0.172 1.027 0.59 1.469 c 0.219 0.234 0.52 0.469 0.672 0.52 c 0.477 0.16 1.082 0.125 1.512 -0.09 m -6.789 -0.797 c 0.125 0 0.27 0.055 0.32 0.125 c 0.121 0.156 0.234 0.086 0.238 -0.152 c 0 -0.223 0.25 -0.551 0.418 -0.551 c 0.188 0 0.238 -0.242 0.074 -0.371 c -0.113 -0.086 -0.141 -0.215 -0.137 -0.574 c 0.004 -0.441 -0.004 -0.461 -0.168 -0.414 c -0.215 0.055 -0.656 -0.176 -0.656 -0.344 c 0 -0.172 -0.211 -0.152 -0.305 0.031 c -0.09 0.184 -0.469 0.367 -0.672 0.328 c -0.121 -0.023 -0.141 0.031 -0.145 0.402 c 0 0.297 -0.043 0.477 -0.145 0.594 c -0.152 0.18 -0.117 0.348 0.078 0.348 c 0.156 0 0.406 0.328 0.41 0.543 c 0.004 0.254 0.086 0.301 0.285 0.16 c 0.098 -0.07 0.277 -0.125 0.402 -0.125 m 5.703 0.082 c 0.023 -0.043 0.184 -0.082 0.352 -0.082 c 0.168 0 0.305 0.039 0.305 0.082 c 0 0.047 0.07 0.082 0.16 0.082 c 0.113 0 0.152 -0.043 0.137 -0.156 c -0.035 -0.215 0.293 -0.672 0.48 -0.672 c 0.188 0 0.191 -0.066 0.008 -0.285 c -0.168 -0.195 -0.273 -0.68 -0.164 -0.75 c 0.043 -0.027 0.074 -0.109 0.074 -0.18 c 0 -0.094 -0.047 -0.113 -0.195 -0.074 c -0.23 0.063 -0.48 -0.063 -0.703 -0.352 l -0.164 -0.215 l -0.09 0.184 c -0.113 0.227 -0.484 0.438 -0.719 0.41 c -0.129 -0.016 -0.168 0.016 -0.145 0.102 c 0.07 0.258 0.004 0.781 -0.109 0.852 c -0.152 0.09 -0.152 0.309 -0.004 0.309 c 0.168 0 0.504 0.43 0.504 0.641 c 0 0.191 0.184 0.262 0.273 0.105 m -3.035 2.559 c -0.301 -0.09 -0.645 -0.512 -0.645 -0.785 c 0 -0.113 0.086 -0.297 0.191 -0.41 c 0.168 -0.176 0.258 -0.203 0.738 -0.203 c 0.48 0 0.574 0.027 0.738 0.203 c 0.105 0.113 0.191 0.258 0.191 0.328 c 0 0.578 -0.645 1.039 -1.215 0.867"/></svg>