<svg xmlns="http://www.w3.org/2000/svg" viewBox="0 0 24 24"><path d="m 21.508 5.637 c 7.887 8.813 -4.551 22.379 -14.961 16.895 c -10.523 -5.547 -7.719 -23.898 5.207 -22.336 c 3.844 0.465 7.184 2.563 9.754 5.438" fill="#2f4e4e" fill-opacity="0.882"/><path d="m 11.711 18.836 c -1.414 -0.004 1.238 -0.02 -1.344 -0.043 l -0.289 -0.934 l -0.531 -0.285 c -0.684 -0.367 -0.895 -0.367 -1.324 0.004 c -0.195 0.168 -0.406 0.305 -0.473 0.305 c -0.18 0 -1.621 -1.457 -1.703 -1.727 c -0.051 -0.16 0.027 -0.34 0.234 -0.563 c 0.379 -0.406 0.383 -0.539 0.012 -1.395 c -0.266 -0.613 -0.328 -0.68 -0.656 -0.68 c -0.75 0 -0.824 -0.125 -0.824 -1.434 c 0 -0.758 0.051 -1.234 0.145 -1.328 c 0.078 -0.082 0.344 -0.148 0.594 -0.148 c 0.434 0 0.461 -0.023 0.742 -0.68 c 0.367 -0.848 0.367 -0.953 0 -1.402 c -0.164 -0.195 -0.297 -0.414 -0.297 -0.48 c 0 -0.184 1.551 -1.797 1.727 -1.797 c 0.082 0 0.309 0.137 0.5 0.301 c 0.195 0.168 0.398 0.305 0.453 0.305 c 0.055 0 0.422 -0.133 0.813 -0.297 c 0.676 -0.281 0.711 -0.32 0.773 -0.785 c 0.039 -0.27 0.109 -0.531 0.16 -0.582 c 0.051 -0.051 0.559 -0.113 1.133 -0.137 c 0.934 -0.035 1.07 -0.012 1.293 0.215 c 0.137 0.141 0.246 0.41 0.246 0.605 c 0 0.316 0.078 0.395 0.668 0.668 c 0.824 0.387 0.996 0.391 1.344 0.008 c 0.152 -0.164 0.355 -0.301 0.445 -0.301 c 0.094 0 0.508 0.336 0.926 0.746 c 0.828 0.813 0.957 1.211 0.523 1.617 c -0.309 0.285 -0.301 0.492 0.055 1.316 c 0.273 0.633 0.324 0.684 0.691 0.684 c 0.645 0 0.789 0.277 0.789 1.484 c 0 1.191 -0.125 1.422 -0.77 1.422 c -0.445 0 -0.48 0.043 -0.844 0.945 l -0.254 0.641 l 0.281 0.344 c 0.461 0.559 0.379 0.852 -0.473 1.688 c -0.418 0.41 -0.836 0.746 -0.926 0.746 c -0.094 0 -0.293 -0.137 -0.445 -0.305 c -0.152 -0.164 -0.359 -0.301 -0.461 -0.301 c -0.258 0 -1.195 0.379 -1.195 0.484 c 0 0.047 -0.371 0.57 -0.348 1.074 c -2.684 0.02 -0.934 -0.008 -1.391 0 m 0.766 -5.586 c 0.461 -0.391 0.625 -1.242 0.34 -1.766 c -0.211 -0.387 -0.781 -0.75 -1.176 -0.75 c -0.789 -0.004 -1.504 0.828 -1.328 1.543 c 0.098 0.402 0.539 1 0.828 1.133 c 0.289 0.129 1.113 0.031 1.336 -0.16" fill="#e6e7e7"/></svg>