<svg xmlns="http://www.w3.org/2000/svg" viewBox="0 0 24 24"><path d="m 4.945 21.66 c 18.05 11.996 29.16 -26.26 5.832 -21.2 c -9.637 2.16 -15.488 15.691 -5.832 21.2" fill="#2e8b56"/><g fill="#ef4c31"><path d="m 14.816 17.281 c -0.344 -0.094 -0.43 -0.191 -1.145 -1.266 c -0.547 -0.82 -0.941 -1.348 -1.547 -2.07 c -0.254 -0.301 -0.445 -0.566 -0.434 -0.59 c 0.395 -0.559 0.793 -1.082 1.156 -1.719 c 0.297 -0.531 2.57 -3.602 3.043 -4.109 c 0.195 -0.211 0.207 -0.215 0.523 -0.215 c 0.176 0 0.379 0.02 0.445 0.047 c 0.301 0.117 0.207 0.273 -2.035 3.316 c -0.637 0.867 -1.172 1.605 -1.184 1.641 c -0.016 0.035 0.648 0.969 1.473 2.07 c 1.918 2.57 2.047 2.781 1.762 2.855 c -0.188 0.047 -1.906 0.082 -2.059 0.039"/><path d="m 7.309 17.48 c -0.23 -0.039 -0.316 -0.086 -0.316 -0.176 c 0 -0.102 0.484 -0.801 1.984 -2.859 l 1.383 -1.902 l -0.082 -0.164 c -0.043 -0.09 -0.434 -0.645 -0.867 -1.234 c -2.531 -3.457 -2.48 -3.387 -2.387 -3.484 c 0.105 -0.105 0.441 -0.145 1.285 -0.145 c 0.727 0 0.883 0.012 1.047 0.09 c 0.242 0.117 0.227 0.098 0.953 1.164 c 0.621 0.914 0.895 1.277 1.617 2.156 l 0.43 0.52 c -0.516 0.664 -1.02 1.422 -1.371 2.039 c -0.199 0.352 -2.297 3.188 -2.859 3.871 c -0.102 0.121 -0.492 0.184 -0.816 0.125"/></g></svg>