<svg xmlns="http://www.w3.org/2000/svg" viewBox="0 0 24 24"><path d="m 21.938 5.03 c -4.551 -8.262 -18.813 -5.05 -21.22 1.746 c -2.875 8.105 4.605 23.496 17.277 14.48 c 4.27 -3.148 8.492 -7.965 3.941 -16.227"/><g fill-rule="evenodd"><path d="m 124.5 204.8 c -1.708 -2.25 -4.125 -6.542 -5.333 -9.542 c -2.625 -6.583 -9.417 -17.917 -14.917 -25.04 c -2.25 -2.875 -8.875 -9.917 -14.75 -15.667 c -15.292 -14.958 -21 -25.375 -22 -40.25 c -0.583 -8.667 0.042 -9 5.75 -2.875 c 4.542 4.875 10.04 8.75 12.333 8.75 c 0.833 0 2.333 -1.292 3.333 -2.875 c 0.958 -1.583 2.625 -3.625 3.625 -4.542 c 1.833 -1.667 1.875 -1.667 3.083 0 c 0.708 0.958 1.667 3.292 2.167 5.208 c 1.333 5 2.208 5.708 6.875 5.708 c 3.792 0 4.417 -0.333 8.04 -4.208 c 7.208 -7.708 8.333 -11.625 5.75 -19.875 c -2.667 -8.5 -2.375 -14.417 1.292 -26.833 c 1.667 -5.75 4.167 -13.167 5.542 -16.542 l 2.458 -6.083 l 4.833 -12.542 c 1.042 -2.792 6.04 12.13 6.04 12.292 c 0 0.125 1.417 4.167 3.125 8.958 c 4.125 11.417 6.25 18.833 7.292 25.333 c 0.75 4.417 0.583 6.458 -0.875 12.08 c -0.958 3.75 -1.708 8.208 -1.708 9.958 c 0 4.292 3.667 11.458 7.875 15.208 c 5.667 5.125 9.875 3.708 12.75 -4.292 c 2.125 -5.792 3.75 -5.917 7.083 -0.458 c 1.625 2.583 3.333 4.375 4.25 4.375 c 3.083 -0.042 8.542 -4.083 13.542 -10 c 2.792 -3.375 5.5 -6.083 6.04 -6.083 c 2.25 0 2.75 2.917 1.625 9.708 c -2.958 17.583 -6.583 23.625 -25.21 42.04 c -15.5 15.333 -23.958 26.75 -27.417 37 c -1.125 3.333 -3.292 8.167 -4.875 10.667 l -2.792 4.583 h -11.667" transform="matrix(0.09375 0 0 0.09375 -0.734 0.081)" fill="#fff" stroke="#fff" stroke-width="0.994"/><path d="m 135.89 81.69 c 0 6.277 -2.896 11.381 -6.464 11.381 c -3.568 0 -6.464 -5.105 -6.464 -11.381 c 0 -6.277 2.896 -11.381 6.464 -11.381 c 3.568 0 6.464 5.105 6.464 11.381" transform="matrix(0.11059 0 0 0.10331 -2.583 -1.127)" fill="#5f9d9f" stroke="#000"/></g></svg>