<svg xmlns="http://www.w3.org/2000/svg" viewBox="0 0 24 24"><path d="m 2.383 19.05 c -11.734 -25.695 25.66 -22.516 21.2 -5.832 c -2.16 9.637 -15.695 15.488 -21.2 5.832" fill="#abc836"/><g fill="#fff"><path d="m 9.129 4.801 c -0.688 0 -1.266 0.563 -1.266 1.23 v 3.152 c 0 0.668 0.578 1.227 1.266 1.227 h 1.625 v 1.473 c -0.406 0.188 -0.723 0.52 -0.875 0.934 h -2.73 v 1.402 h 2.871 c 1.543 -0.023 1.539 -0.008 2.93 0 h 2.871 v -1.402 h -2.73 c -0.152 -0.414 -0.469 -0.746 -0.875 -0.934 v -1.473 h 1.625 c 0.691 0 1.27 -0.559 1.27 -1.227 v -3.152 c 0 -0.668 -0.578 -1.23 -1.27 -1.23 m -4.531 1.402 h 4.352 v 2.805 h -4.352"/><path d="m 7.148 13.348 h 0.746 v 2.773 h -0.746"/><path d="m 11.11 13.348 h 0.746 v 2.773 h -0.746"/><path d="m 15.07 13.348 h 0.746 v 2.773 h -0.746"/><path d="m 6.574 15.863 c -0.277 0 -0.512 0.227 -0.512 0.492 v 1.27 c 0 0.27 0.234 0.496 0.512 0.496 h 1.895 c 0.277 0 0.508 -0.227 0.508 -0.496 v -1.27 c 0 -0.266 -0.23 -0.492 -0.508 -0.492 m -1.824 0.563 h 1.75 v 1.129 h -1.75"/><path d="m 10.535 15.863 c -0.277 0 -0.508 0.227 -0.508 0.492 v 1.27 c 0 0.27 0.23 0.496 0.508 0.496 h 1.898 c 0.277 0 0.508 -0.227 0.508 -0.496 v -1.27 c 0 -0.266 -0.23 -0.492 -0.508 -0.492 m -1.824 0.563 h 1.75 v 1.129 h -1.75"/><path d="m 14.5 15.863 c -0.277 0 -0.512 0.227 -0.512 0.492 v 1.27 c 0 0.27 0.234 0.496 0.512 0.496 h 1.895 c 0.277 0 0.512 -0.227 0.512 -0.496 v -1.27 c 0 -0.266 -0.234 -0.492 -0.512 -0.492 m -1.824 0.563 h 1.754 v 1.129 h -1.754"/></g></svg>