<svg xmlns="http://www.w3.org/2000/svg" viewBox="0 0 24 24"><path d="m 1.75 18.17 c 18.13 21.13 35.566 -22.313 7.523 -17.848 c -6.148 0.98 -12.41 12.156 -7.523 17.848" fill="#ff4500"/><g fill="#fff"><path d="m 12.348 15.527 c 0 -0.172 0.051 -0.199 0.387 -0.238 c 0.211 -0.023 0.418 -0.094 0.457 -0.156 c 0.105 -0.168 0.094 -6.535 -0.012 -6.73 c -0.07 -0.125 -0.176 -0.16 -0.5 -0.16 c -0.402 0 -0.414 -0.008 -0.414 -0.25 v -0.25 h 1.16 c 1.152 0 1.16 0 1.184 0.195 c 0.027 0.203 3.891 6.125 4 6.125 c 0.098 0 0.074 -5.473 -0.023 -5.66 c -0.066 -0.125 -0.176 -0.16 -0.457 -0.16 c -0.359 0 -0.375 -0.012 -0.375 -0.25 v -0.25 h 2.414 v 0.25 c 0 0.234 -0.02 0.25 -0.328 0.25 c -0.613 0 -0.586 -0.168 -0.586 3.871 v 3.613 h -0.832 l -2.219 -3.328 c -1.219 -1.828 -2.25 -3.324 -2.289 -3.324 c -0.043 0 -0.063 1.328 -0.051 3 c 0.023 2.859 0.031 3 0.188 3.117 c 0.086 0.066 0.301 0.117 0.477 0.117 c 0.281 0 0.316 0.023 0.316 0.211 v 0.207 h -2.496"/><path d="m 4.699 15.527 c 0 -0.172 0.047 -0.199 0.383 -0.238 c 0.211 -0.023 0.418 -0.094 0.457 -0.156 c 0.039 -0.063 0.07 -1.578 0.07 -3.371 c 0.004 -3.648 0.023 -3.52 -0.586 -3.52 c -0.309 0 -0.324 -0.016 -0.324 -0.25 v -0.25 h 2.992 v 0.25 c 0 0.238 -0.016 0.25 -0.367 0.25 c -0.621 0 -0.629 0.027 -0.629 1.875 v 1.617 h 0.273 c 0.258 0 0.363 -0.105 1.559 -1.574 c 0.707 -0.867 1.285 -1.641 1.285 -1.727 c 0 -0.117 -0.074 -0.156 -0.352 -0.176 c -0.332 -0.023 -0.355 -0.043 -0.355 -0.273 v -0.242 h 2.496 v 0.25 c 0 0.215 -0.031 0.25 -0.23 0.25 c -0.125 0 -0.309 0.023 -0.41 0.051 c -0.156 0.039 -2.605 2.844 -2.605 2.984 c 0 0.023 0.602 0.922 1.332 1.988 c 1.367 2 1.41 2.043 1.977 2.043 c 0.23 0 0.27 0.031 0.27 0.211 v 0.207 h -1.039 c -1.023 0 -1.039 -0.004 -1.043 -0.188 c 0 -0.105 -0.488 -0.891 -1.102 -1.766 l -1.102 -1.582 l -0.477 -0.023 l -0.477 -0.027 v 1.418 c 0 1.309 0.012 1.434 0.164 1.586 c 0.113 0.109 0.277 0.164 0.5 0.164 c 0.301 0 0.332 0.023 0.332 0.211 v 0.207 h -2.992"/></g></svg>