<svg xmlns="http://www.w3.org/2000/svg" viewBox="0 0 24 24"><defs><clipPath id="0"><path d="m 0 0 h 23 v 23 h -23"/></clipPath><clipPath id="1"><path d="m 22.457 11.453 c 0 5.855 -4.938 10.605 -11.03 10.605 c -6.09 0 -11.03 -4.75 -11.03 -10.605 c 0 -5.859 4.941 -10.609 11.03 -10.609 c 6.094 0 11.03 4.75 11.03 10.609"/></clipPath></defs><path d="m 14.617 0.074 c 1.41 0.129 2.953 0.484 4.094 0.949 c 3.98 1.625 5.836 4.926 5.113 9.09 c -0.391 2.242 -1.504 4.777 -3.273 7.461 c -2.109 3.199 -5.375 5.625 -8.398 6.242 c -0.637 0.129 -1.844 0.176 -2.488 0.094 c -2.152 -0.27 -3.945 -1.438 -5.59 -3.633 c -1.574 -2.102 -2.738 -4.238 -3.395 -6.227 c -1.355 -4.094 -0.535 -7.742 2.328 -10.383 c 2.01 -1.855 4.738 -3.039 8.08 -3.512 c 0.504 -0.07 3.01 -0.129 3.531 -0.086" fill="#31cd31"/><path d="m 13.285 12.859 c -0.016 -0.031 -0.211 -0.512 -0.434 -1.07 c -0.305 -0.754 -0.402 -1.023 -0.383 -1.047 c 0.066 -0.082 1.785 -1.406 1.801 -1.391 c 0.027 0.027 0.844 2.07 0.844 2.113 c 0 0.02 -0.387 0.34 -0.863 0.707 c -0.473 0.371 -0.879 0.691 -0.902 0.707 c -0.035 0.031 -0.043 0.027 -0.063 -0.02" fill="#db6b6b"/><g clip-path="url(#0)"><g clip-path="url(#1)"><path d="m 2.133 22.508 c -0.586 -0.117 -1.207 -0.48 -1.566 -0.914 c -0.297 -0.363 -0.496 -0.762 -0.586 -1.168 c -0.047 -0.223 -0.047 -0.461 -0.039 -8.996 l 0.004 -8.77 l 0.059 -0.191 c 0.285 -0.961 1.023 -1.672 2.02 -1.945 l 0.199 -0.055 l 9.121 -0.004 c 8.852 -0.008 9.125 -0.008 9.352 0.039 c 0.594 0.117 1.211 0.469 1.57 0.898 c 0.309 0.367 0.512 0.766 0.602 1.187 c 0.047 0.219 0.047 0.48 0.039 8.996 l -0.004 8.77 l -0.059 0.191 c -0.285 0.961 -1.023 1.668 -2.02 1.941 l -0.199 0.055 l -9.137 0.008 c -8.746 0.004 -9.148 0 -9.355 -0.043" fill="#31cd31"/></g></g><path d="m 8.691 16.07 c 0.945 -0.168 2.086 -0.367 2.527 -0.445 l 0.809 -0.141 l 1.344 0.359 c 0.738 0.195 1.488 0.398 1.672 0.445 c 0.348 0.094 0.441 0.098 0.574 0.02 c 0.039 -0.023 0.098 -0.078 0.133 -0.121 c 0.066 -0.082 0.047 -0.012 1.098 -3.922 c 0.262 -0.969 0.652 -2.422 0.867 -3.227 c 0.219 -0.816 0.395 -1.512 0.398 -1.57 c 0 -0.129 -0.094 -0.293 -0.207 -0.359 c -0.105 -0.063 -5.32 -1.457 -5.449 -1.457 c -0.125 0 -0.23 0.047 -0.328 0.145 c -0.094 0.094 -0.109 0.152 -0.43 1.371 c -0.117 0.469 -0.227 0.84 -0.234 0.832 c -0.016 -0.016 -0.246 -1.293 -0.297 -1.645 c -0.035 -0.234 -0.23 -0.414 -0.453 -0.414 c -0.102 0.004 -0.898 0.141 -4.398 0.758 c -0.563 0.098 -1.063 0.195 -1.105 0.219 c -0.141 0.063 -0.266 0.246 -0.266 0.395 c 0 0.078 1.5 8.602 1.535 8.727 c 0.051 0.184 0.242 0.336 0.414 0.336 c 0.039 0 0.848 -0.137 1.797 -0.305" fill="#e5e5e5"/><path d="m 7.281 16.801 c -0.055 -0.02 -0.125 -0.074 -0.16 -0.113 c -0.07 -0.082 -0.125 -0.242 -0.09 -0.277 c 0.012 -0.012 0.332 -0.074 0.711 -0.141 c 0.379 -0.066 1.473 -0.262 2.43 -0.43 c 0.953 -0.168 1.773 -0.309 1.82 -0.309 c 0.043 0 0.25 0.047 0.457 0.102 c 1.68 0.457 2.844 0.762 2.918 0.762 c 0.129 0 0.289 -0.086 0.363 -0.195 c 0.051 -0.07 0.199 -0.594 0.781 -2.766 c 0.711 -2.641 1.285 -4.777 1.473 -5.469 l 0.094 -0.355 l 0.098 0.031 c 0.191 0.066 0.277 0.145 0.324 0.301 c 0.035 0.117 0.043 0.074 -0.262 1.211 c -0.125 0.473 -0.418 1.563 -0.645 2.418 c -1.01 3.777 -1.328 4.973 -1.355 5.03 c -0.035 0.09 -0.168 0.191 -0.281 0.223 c -0.121 0.031 0.055 0.07 -1.867 -0.445 c -0.852 -0.227 -1.57 -0.414 -1.598 -0.414 c -0.023 0 -0.738 0.121 -1.582 0.27 c -0.848 0.152 -1.969 0.348 -2.492 0.441 c -0.523 0.094 -0.973 0.168 -1 0.168 c -0.023 0 -0.086 -0.02 -0.137 -0.043 m 4.16 -8.813 c -0.039 -0.152 -0.254 -1.426 -0.242 -1.438 c 0.023 -0.023 0.188 0.043 0.262 0.109 c 0.09 0.074 0.137 0.195 0.18 0.449 c 0.023 0.164 0.023 0.176 -0.078 0.555 c -0.078 0.277 -0.109 0.367 -0.121 0.324" fill="#0f0"/><path d="m 5.188 6.926 l 5.66 -1.051 c 0.172 -0.031 0.332 0.078 0.363 0.246 l 1.547 8.934 c 0.027 0.168 -0.086 0.328 -0.258 0.359 l -5.66 1.051 c -0.172 0.035 -0.336 -0.074 -0.363 -0.242 l -1.551 -8.938 c -0.027 -0.164 0.09 -0.324 0.262 -0.359" fill="#fff" fill-rule="evenodd"/><g fill="#d65151"><path d="m 13.355 12.711 c -0.129 -0.281 -0.824 -2.055 -0.82 -2.082 c 0.012 -0.039 1.828 -1.461 1.859 -1.453 c 0.031 0.012 0.887 2.141 0.879 2.184 c -0.008 0.039 -1.801 1.449 -1.844 1.449 c -0.016 0 -0.051 -0.043 -0.074 -0.098"/><path d="m 9 12.605 c -0.895 -0.523 -1.195 -0.777 -1.422 -1.195 c -0.285 -0.531 -0.324 -1.023 -0.094 -1.215 c 0.148 -0.129 0.371 -0.164 0.699 -0.113 c 0.172 0.023 0.297 0.086 0.414 0.207 c 0.031 0.035 0.07 0.063 0.086 0.063 c 0.02 0 0.063 -0.063 0.102 -0.133 c 0.117 -0.227 0.375 -0.398 0.684 -0.457 c 0.406 -0.082 0.656 0.234 0.656 0.844 c 0 0.527 -0.098 0.82 -0.461 1.348 c -0.172 0.246 -0.539 0.699 -0.566 0.699 c -0.008 0 -0.055 -0.02 -0.098 -0.047"/></g></svg>