<svg xmlns="http://www.w3.org/2000/svg" viewBox="0 0 24 24"><path d="m 14.723 0.402 c 22.301 4.645 -1.641 36.598 -12.973 17.402 c -4.859 -7.453 1.504 -19.789 12.973 -17.402" fill="#51449c"/><path d="m 5.957 17.633 c -0.582 -0.582 -1.059 -1.09 -1.059 -1.133 c 0 -0.047 0.691 -0.793 1.531 -1.664 c 0.84 -0.867 1.527 -1.613 1.527 -1.652 c 0 -0.039 -0.203 -0.297 -0.449 -0.574 l -0.453 -0.504 l 0.227 -0.262 c 0.125 -0.141 0.844 -0.883 1.602 -1.645 l 1.375 -1.391 l -0.516 -0.559 l -0.52 -0.563 l 1.684 -1.672 l 1.688 -1.676 l 2.422 2.398 c 1.332 1.32 2.82 2.828 3.309 3.352 l 0.887 0.949 l -1.215 1.238 c -0.668 0.684 -1.414 1.41 -1.664 1.617 l -0.453 0.375 l -0.5 -0.438 c -0.277 -0.238 -0.531 -0.434 -0.566 -0.434 c -0.039 0 -0.773 0.66 -1.637 1.469 c -0.867 0.809 -1.621 1.469 -1.684 1.469 c -0.063 0 -0.305 -0.176 -0.539 -0.391 c -0.234 -0.215 -0.48 -0.391 -0.543 -0.391 c -0.066 0 -0.633 0.492 -1.262 1.102 c -0.629 0.605 -1.367 1.309 -1.637 1.563 l -0.496 0.465" fill="#fff" fill-opacity="0.969"/></svg>