<svg xmlns="http://www.w3.org/2000/svg" viewBox="0 0 24 24"><path d="m 4.949 21.66 c 18.04 11.996 29.16 -26.26 5.828 -21.2 c -9.637 2.16 -15.488 15.691 -5.828 21.2" fill="#707f8f"/><path d="m 7.578 7.43 c -0.031 0.004 -0.066 0.012 -0.086 0.035 c 0 0 -1.059 1.031 -1.059 1.031 c -0.043 0.043 -0.047 0.109 -0.016 0.164 c 0 0 1.234 1.988 1.234 1.988 c -0.223 0.363 -0.398 0.746 -0.523 1.156 c 0 0 -2.266 0.461 -2.266 0.461 c -0.063 0.012 -0.109 0.07 -0.109 0.133 c 0 0 0 1.457 0 1.457 c 0 0.063 0.047 0.117 0.109 0.129 c 0 0 2.195 0.523 2.195 0.523 c 0.117 0.473 0.301 0.926 0.539 1.34 c 0 0 -1.273 1.895 -1.273 1.895 c -0.035 0.055 -0.027 0.125 0.02 0.168 c 0 0 1.055 1.031 1.055 1.031 c 0.043 0.043 0.113 0.051 0.164 0.02 c 0 0 1.996 -1.184 1.996 -1.184 c 0.391 0.219 0.816 0.398 1.262 0.516 c 0 0 0.465 2.188 0.465 2.188 c 0.012 0.063 0.066 0.105 0.129 0.105 c 0 0 1.492 0 1.492 0 c 0.063 0 0.117 -0.039 0.133 -0.102 c 0 0 0.551 -2.195 0.551 -2.195 c 0.461 -0.125 0.895 -0.305 1.297 -0.535 c 0 0 1.965 1.262 1.965 1.262 c 0.055 0.035 0.125 0.027 0.172 -0.016 c 0 0 1.051 -1.031 1.051 -1.031 c 0.043 -0.043 0.055 -0.109 0.023 -0.164 c 0 0 -0.719 -1.156 -0.719 -1.156 c 0 0 -0.305 0.07 -0.324 0.043 c 0 0 -0.453 -0.652 -1.047 -1.5 c -0.707 1.352 -2.145 2.277 -3.805 2.277 c -2.359 0 -4.273 -1.871 -4.273 -4.176 c 0 -1.699 1.035 -3.156 2.523 -3.809 c 0 0 0 -1.078 0 -1.078 c -0.273 0.094 -0.531 0.207 -0.781 0.34 c 0 0 0 -0.008 0 -0.008 c 0 0 -2.01 -1.289 -2.01 -1.289 c -0.027 -0.016 -0.059 -0.02 -0.086 -0.016" fill="#f2f2f2"/><path d="m 16.969 3.559 c 0.313 0.465 0.5 1.027 0.5 1.633 c 0 1.453 -1.066 2.66 -2.445 2.859 v 3.766 c 0 1.027 0.941 1.816 1.953 1.816 v 0.082 h -4.727 v -0.082 c 1.012 0 1.957 -0.789 1.957 -1.816 v -3.766 c -1.383 -0.199 -2.445 -1.406 -2.445 -2.859 c 0 -0.605 0.184 -1.168 0.496 -1.633 c 2.363 0.023 2.363 0.012 4.711 0" fill="#fff"/></svg>