<svg xmlns="http://www.w3.org/2000/svg" viewBox="0 0 24 24"><path d="m 1.047 16.516 c -9.02 -28.965 39.42 -14.477 16.77 5.367 c -4.539 3.977 -14.34 2.445 -16.77 -5.367" fill="#474c00"/><g transform="scale(0.09375)"><path d="m 66.21 63.13 h 114.58 v 120.54 h -114.58" fill="#7c7a08" stroke="#7c7a08" stroke-width="1.185"/><path d="m 57.958 57.58 h 113.42 v 117.54 h -113.42" fill="#fdec66" stroke="#fdec66" stroke-width="1.164"/></g><g fill="#474c00" stroke="#fdec66" stroke-width="1.036"><path d="m 101.72 91.5 c 0 7.555 -6.298 13.695 -14.02 13.695 c -7.76 0 -14.06 -6.14 -14.06 -13.695 c 0 -7.555 6.298 -13.695 14.06 -13.695 c 7.722 0 14.02 6.14 14.02 13.695" transform="matrix(0.10421 0 0 0.10497 3.99 3.848)"/><path d="m 101.72 91.48 c 0 7.592 -6.26 13.695 -14.02 13.695 c -7.76 0 -14.02 -6.103 -14.02 -13.695 c 0 -7.555 6.26 -13.658 14.02 -13.658 c 7.76 0 14.02 6.103 14.02 13.658" transform="matrix(0.10421 0 0 0.10497 -1.303 -1.591)"/><path d="m 101.71 91.51 c 0 7.555 -6.26 13.658 -14.02 13.658 c -7.76 0 -14.02 -6.103 -14.02 -13.658 c 0 -7.555 6.26 -13.695 14.02 -13.695 c 7.76 0 14.02 6.14 14.02 13.695" transform="matrix(0.10421 0 0 0.10497 4.03 -1.567)"/><path d="m 101.72 91.51 c 0 7.555 -6.26 13.658 -14.02 13.658 c -7.76 0 -14.02 -6.103 -14.02 -13.658 c 0 -7.555 6.26 -13.695 14.02 -13.695 c 7.76 0 14.02 6.14 14.02 13.695" transform="matrix(0.10421 0 0 0.10497 -1.342 3.863)"/></g></svg>