<svg xmlns="http://www.w3.org/2000/svg" viewBox="0 0 24 24"><path d="m 9.289 23.547 c -22.2 -4.629 1.633 -36.453 12.918 -17.336 c 4.84 7.43 -1.5 19.715 -12.918 17.336" fill="#c08092"/><path d="m 11.11 20.234 c -0.496 -0.102 -1 -0.398 -1.184 -0.688 c -0.203 -0.336 -0.156 -6.754 0.059 -7.375 c 0.223 -0.656 0.48 -1.352 0.688 -1.863 c 0.094 -0.238 0.285 -0.895 0.422 -1.457 c 0.219 -0.918 0.238 -1.211 0.188 -2.746 c -0.039 -1.242 -0.02 -1.758 0.074 -1.855 c 0.215 -0.23 0.875 -0.289 1.113 -0.098 c 0.184 0.148 0.207 0.309 0.207 1.543 c 0 1.813 0.32 3.266 1.094 4.945 c 0.297 0.652 1.086 3.293 1.09 3.652 c 0 0.066 -0.152 0.305 -0.34 0.539 c -0.379 0.473 -0.383 0.488 -0.34 2.758 l 0.023 1.406 l 0.328 0.148 c 0.496 0.227 0.449 0.566 -0.109 0.813 c -0.715 0.32 -2.418 0.461 -3.313 0.277 m 2.102 -5.688 c 0.207 -0.52 0.098 -0.852 -0.328 -0.98 c -0.492 -0.148 -0.754 0 -0.754 0.441 c 0 0.266 0.086 0.43 0.352 0.668 c 0.191 0.172 0.402 0.301 0.465 0.285 c 0.063 -0.02 0.184 -0.207 0.266 -0.414" fill="#1c1611"/></svg>