<svg xmlns="http://www.w3.org/2000/svg" viewBox="0 0 24 24"><path d="m 14.723 0.402 c 22.301 4.645 -1.641 36.598 -12.973 17.402 c -4.859 -7.453 1.504 -19.789 12.973 -17.402" fill="#dcdcdc"/><path d="m 9.504 18.09 c -1.805 -0.422 -3.445 -1.969 -3.898 -3.672 c -0.414 -1.57 -0.223 -4.207 0.395 -5.359 c 0.871 -1.633 3.809 -3.449 5.598 -3.461 c 3.523 -0.02 6.223 2.387 6.836 6.098 c 0.297 1.781 -0.344 4.152 -1.41 5.215 c -0.75 0.746 -1.215 0.945 -2.844 1.207 c -2.242 0.359 -3.035 0.355 -4.676 -0.027 m 8.684 -6.01 c -0.07 -0.258 -0.129 -0.047 -0.129 0.469 c 0 0.512 0.059 0.723 0.129 0.469 c 0.07 -0.258 0.07 -0.68 0 -0.938" fill="#f3e492"/><path d="m 9.719 18.02 c -1.676 -0.508 -3.715 -2.359 -4.105 -3.734 c -0.684 -2.391 0.031 -5.082 1.691 -6.375 c 0.566 -0.441 1.102 -0.738 1.184 -0.656 c 0.082 0.078 -0.117 0.586 -0.449 1.125 c -0.328 0.539 -0.535 1.039 -0.461 1.113 c 0.074 0.07 0.289 -0.23 0.477 -0.672 c 0.191 -0.441 0.574 -0.875 0.859 -0.961 c 0.285 -0.086 0.75 -0.445 1.035 -0.797 c 0.707 -0.875 1.879 -1.047 2.723 -0.402 c 0.367 0.277 0.855 0.438 1.082 0.355 c 0.641 -0.238 2.01 1.199 2.895 3.03 c 0.855 1.773 0.945 2.398 0.531 3.684 c -0.148 0.449 -0.336 1.148 -0.418 1.551 c -0.195 0.934 -1.188 1.426 -3.355 1.668 c -1.309 0.145 -1.887 0.09 -2.551 -0.242 c -0.473 -0.238 -0.859 -0.539 -0.859 -0.676 c 0 -0.133 -0.375 -0.496 -0.828 -0.813 c -0.457 -0.313 -0.828 -0.496 -0.828 -0.406 c 0 0.309 2.27 2.316 2.859 2.523 c 0.465 0.164 3.199 0.199 4.074 0.051 c 0.469 -0.078 2.027 -1.898 2.512 -2.934 c 0.414 -0.891 0.508 -1.527 0.398 -2.676 l -0.141 -1.504 l 0.289 1.398 c 0.379 1.805 -0.066 3.414 -1.336 4.852 c -0.801 0.906 -1.215 1.121 -2.852 1.484 c -2.273 0.5 -2.793 0.5 -4.426 0.012 m -2.18 -7.695 c -0.219 -0.211 -0.305 -0.141 -0.305 0.25 c 0 0.707 0.387 1.082 0.512 0.496 c 0.051 -0.25 -0.043 -0.586 -0.207 -0.746 m 5.906 -3.945 c -0.875 -0.324 -1.785 -0.461 -2.484 -0.383 c -1.035 0.117 -1.055 0.105 -0.328 -0.168 c 1 -0.375 2.898 -0.09 3.777 0.57 c 0.828 0.625 0.789 0.625 -0.965 -0.02" fill="#ecd98e"/><path d="m 9.875 18.1 c -0.715 -0.184 -1.621 -0.789 -2.664 -1.777 c -1.484 -1.41 -1.586 -1.594 -1.758 -3.102 c -0.23 -2.031 0.316 -3.629 1.711 -5.02 c 1.129 -1.121 1.738 -1.332 1.094 -0.383 c -0.668 0.992 -1.113 2.742 -0.898 3.562 c 0.172 0.664 0.227 0.699 0.469 0.285 c 0.148 -0.262 0.238 -0.742 0.191 -1.066 c -0.207 -1.535 1.961 -3.941 3.547 -3.934 c 0.941 0.008 2.453 0.512 3.43 1.148 c 1.43 0.934 3.043 5.145 2.172 5.668 c -0.152 0.09 -0.273 0.449 -0.273 0.797 c 0 1.563 -0.906 2.16 -3.672 2.438 l -1.813 0.18 l -1.637 -1.512 c -0.898 -0.832 -1.762 -1.898 -1.918 -2.375 c -0.238 -0.711 -0.293 -0.758 -0.316 -0.25 c -0.059 1.262 1.738 3.676 3.34 4.488 c 0.41 0.211 1.246 0.379 1.863 0.379 c 1.402 0 1.457 0.41 0.082 0.633 c -1.277 0.203 -1.586 0.188 -2.949 -0.164 m 3.43 -6.352 c 0 -0.145 -0.184 -0.266 -0.414 -0.266 c -0.227 0 -0.414 0.121 -0.414 0.266 c 0 0.148 0.188 0.27 0.414 0.27 c 0.23 0 0.414 -0.121 0.414 -0.27 m 4.887 1.605 c 0.086 -0.809 0.203 -1.52 0.258 -1.582 c 0.191 -0.215 0.043 1.723 -0.188 2.383 c -0.148 0.434 -0.172 0.148 -0.07 -0.801 m -0.152 -2.406 c 0 -0.367 0.063 -0.52 0.141 -0.336 c 0.078 0.184 0.078 0.484 0 0.668 c -0.078 0.184 -0.141 0.035 -0.141 -0.332 m -7.285 -5.176 c 0.563 -0.156 1.328 -0.152 2.07 0.012 c 1.105 0.246 1.055 0.262 -0.898 0.25 c -1.75 -0.008 -1.93 -0.051 -1.172 -0.262" fill="#ead05c"/><path d="m 10.824 18.25 c -1.582 -0.508 -2.848 -1.301 -3.926 -2.469 c -1.059 -1.137 -1.281 -1.578 -1.441 -2.824 c -0.16 -1.234 -0.09 -1.672 0.43 -2.684 c 0.664 -1.289 1.945 -2.664 1.488 -1.602 c -0.125 0.293 -0.281 1.391 -0.348 2.43 c -0.102 1.559 -0.02 2.086 0.449 2.945 c 1.246 2.281 3.297 3.852 5.02 3.852 c 0.648 0 1.125 0.043 1.063 0.094 c -0.227 0.191 -2.328 0.387 -2.734 0.258 m -0.855 -2.84 c -1.691 -1.512 -1.855 -1.879 -1.855 -4.129 c 0 -1.531 0.113 -2.07 0.559 -2.617 c 0.305 -0.375 0.695 -0.641 0.867 -0.586 c 0.172 0.059 0.441 -0.148 0.598 -0.453 c 0.375 -0.73 2.043 -0.93 2.414 -0.289 c 0.172 0.293 0.465 0.395 0.871 0.297 c 0.754 -0.184 2.352 1.285 2.473 2.27 c 0.043 0.352 0.293 1.105 0.555 1.676 c 0.539 1.164 0.422 1.758 -0.379 1.961 c -0.43 0.109 -0.488 0.242 -0.273 0.625 c 0.453 0.828 0.301 1.488 -0.438 1.871 c -0.547 0.281 -0.824 0.297 -1.219 0.059 c -0.402 -0.246 -0.543 -0.23 -0.664 0.078 c -0.098 0.246 -0.531 0.383 -1.195 0.379 c -0.836 -0.008 -1.297 -0.238 -2.313 -1.141 m 3.211 -4.082 c -0.473 -0.34 -0.59 -0.336 -0.965 0.031 c -0.387 0.379 -0.375 0.457 0.113 0.809 c 0.473 0.34 0.59 0.336 0.965 -0.035 c 0.387 -0.379 0.375 -0.457 -0.113 -0.805 m 5 2.023 c 0.094 -0.66 0.211 -1.254 0.266 -1.313 c 0.207 -0.234 0.051 1.469 -0.184 1.98 c -0.164 0.359 -0.191 0.137 -0.082 -0.668 m -6.395 -7.488 l -1.105 -0.191 l 0.969 -0.02 c 0.531 -0.008 1.211 0.086 1.516 0.211 c 0.648 0.273 0.18 0.273 -1.379 0" fill="#f6c920"/><path d="m 12.977 17.984 c 0.199 -0.078 0.438 -0.07 0.531 0.02 c 0.09 0.09 -0.07 0.152 -0.363 0.141 c -0.32 -0.012 -0.387 -0.078 -0.168 -0.16 m -3.01 -2.574 c -1.691 -1.512 -1.855 -1.879 -1.855 -4.129 c 0 -1.531 0.113 -2.07 0.559 -2.613 c 0.305 -0.379 0.695 -0.645 0.867 -0.59 c 0.172 0.059 0.441 -0.148 0.598 -0.453 c 0.375 -0.73 2.043 -0.93 2.414 -0.289 c 0.172 0.297 0.465 0.395 0.871 0.297 c 0.754 -0.184 2.352 1.285 2.473 2.27 c 0.043 0.352 0.293 1.105 0.555 1.676 c 0.539 1.164 0.422 1.758 -0.379 1.961 c -0.43 0.109 -0.488 0.242 -0.273 0.625 c 0.453 0.828 0.301 1.488 -0.438 1.871 c -0.547 0.281 -0.824 0.297 -1.219 0.059 c -0.402 -0.246 -0.543 -0.23 -0.664 0.078 c -0.098 0.25 -0.531 0.387 -1.195 0.379 c -0.836 -0.008 -1.297 -0.238 -2.313 -1.141 m 3.211 -4.082 c -0.473 -0.34 -0.59 -0.336 -0.965 0.031 c -0.387 0.379 -0.375 0.457 0.113 0.809 c 0.473 0.34 0.59 0.336 0.965 -0.031 c 0.387 -0.383 0.375 -0.461 -0.113 -0.809 m -7.73 1.578 c -0.152 -1.18 -0.078 -1.633 0.445 -2.648 c 0.801 -1.551 1.191 -1.801 0.969 -0.621 c -0.094 0.5 -0.25 1.762 -0.348 2.801 c -0.223 2.336 -0.793 2.586 -1.066 0.469 m 12.734 0.445 c 0.09 -0.66 0.211 -1.254 0.266 -1.313 c 0.207 -0.234 0.051 1.473 -0.184 1.98 c -0.164 0.359 -0.191 0.137 -0.082 -0.668 m -5.98 -7.488 c -0.555 -0.172 -0.582 -0.215 -0.141 -0.219 c 0.305 -0.004 0.801 0.094 1.105 0.219 c 0.703 0.293 -0.023 0.293 -0.965 0" fill="#c9ad45"/><path d="m 12.977 17.984 c 0.199 -0.078 0.438 -0.07 0.531 0.02 c 0.09 0.09 -0.07 0.152 -0.363 0.141 c -0.32 -0.012 -0.387 -0.078 -0.168 -0.16 m -2.246 -2.137 c -0.398 -0.387 -0.121 -1.066 0.789 -1.949 c 0.73 -0.703 0.957 -0.813 0.957 -0.457 c 0 0.258 -0.254 0.734 -0.566 1.059 c -0.309 0.324 -0.508 0.797 -0.438 1.059 c 0.121 0.457 -0.371 0.648 -0.742 0.289 m -5.184 -2.875 c -0.039 -1.594 0.023 -2.113 0.27 -2.293 c 0.098 -0.074 0.398 -0.555 0.668 -1.07 l 0.484 -0.938 l -0.137 0.938 c -0.074 0.516 -0.219 1.785 -0.316 2.828 c -0.129 1.34 -0.289 1.895 -0.559 1.895 c -0.266 0 -0.387 -0.402 -0.41 -1.359 m 3.363 1.07 c -0.176 -0.207 -0.395 -0.82 -0.488 -1.363 c -0.145 -0.867 -0.102 -0.977 0.359 -0.891 c 0.418 0.078 0.531 0.352 0.563 1.367 c 0.043 1.398 0.031 1.426 -0.434 0.887 m 9.109 -0.043 c 0.012 -0.313 0.078 -0.375 0.164 -0.164 c 0.082 0.195 0.07 0.426 -0.02 0.512 c -0.094 0.09 -0.156 -0.066 -0.145 -0.348 m 0.309 -1.316 c 0.004 -0.441 0.066 -0.59 0.137 -0.328 c 0.07 0.258 0.063 0.621 -0.012 0.801 c -0.074 0.18 -0.133 -0.031 -0.125 -0.473 m -4.469 -0.77 c 0 -0.203 -0.188 -0.52 -0.414 -0.699 c -0.523 -0.422 -0.52 -1.582 0.004 -2.254 c 0.395 -0.504 0.41 -0.504 1.023 0 c 0.969 0.797 1.027 0.965 0.609 1.75 c -0.215 0.406 -0.316 0.922 -0.227 1.152 c 0.117 0.297 -0.004 0.418 -0.418 0.418 c -0.316 0 -0.578 -0.164 -0.578 -0.367 m 0.551 -1.77 c 0 -0.148 -0.125 -0.27 -0.277 -0.27 c -0.152 0 -0.273 0.121 -0.273 0.27 c 0 0.145 0.121 0.266 0.273 0.266 c 0.152 0 0.277 -0.121 0.277 -0.266 m -5.887 0.891 c -0.301 -0.289 -0.211 -1.563 0.133 -1.895 c 0.242 -0.234 0.578 -0.133 1.375 0.414 c 0.582 0.398 1.059 0.859 1.063 1.027 c 0.008 0.492 -2.137 0.871 -2.57 0.453 m 2.934 -2.023 c -0.625 -0.781 -0.664 -1.098 -0.066 -0.547 c 0.355 0.328 0.574 0.66 0.492 0.742 c -0.086 0.082 -0.277 -0.008 -0.426 -0.195" fill="#e5b21e"/><path d="m 10.73 15.848 c -0.398 -0.387 -0.121 -1.066 0.793 -1.949 c 0.727 -0.703 0.953 -0.813 0.953 -0.457 c 0 0.258 -0.254 0.73 -0.566 1.055 c -0.309 0.324 -0.508 0.801 -0.438 1.059 c 0.121 0.457 -0.371 0.652 -0.742 0.293 m -1.82 -1.805 c -0.176 -0.207 -0.395 -0.82 -0.488 -1.363 c -0.145 -0.867 -0.102 -0.977 0.359 -0.891 c 0.418 0.078 0.531 0.352 0.563 1.363 c 0.043 1.402 0.031 1.43 -0.434 0.891 m 4.949 -2.129 c 0 -0.203 -0.188 -0.52 -0.414 -0.703 c -0.523 -0.418 -0.52 -1.578 0.004 -2.25 c 0.395 -0.508 0.41 -0.508 1.023 0 c 0.969 0.793 1.027 0.965 0.609 1.75 c -0.215 0.402 -0.316 0.922 -0.227 1.152 c 0.117 0.297 -0.004 0.418 -0.418 0.418 c -0.316 0 -0.578 -0.164 -0.578 -0.367 m 0.551 -1.77 c 0 -0.148 -0.125 -0.27 -0.277 -0.27 c -0.152 0 -0.273 0.121 -0.273 0.27 c 0 0.145 0.121 0.266 0.273 0.266 c 0.152 0 0.277 -0.121 0.277 -0.266 m -5.887 0.891 c -0.301 -0.293 -0.211 -1.563 0.133 -1.895 c 0.242 -0.234 0.578 -0.133 1.375 0.414 c 0.582 0.395 1.059 0.859 1.063 1.023 c 0.008 0.496 -2.137 0.875 -2.57 0.457 m 2.934 -2.023 c -0.625 -0.781 -0.664 -1.102 -0.066 -0.547 c 0.355 0.324 0.574 0.66 0.492 0.742 c -0.086 0.078 -0.277 -0.008 -0.426 -0.195" fill="#bb9c42"/></svg>