<svg xmlns="http://www.w3.org/2000/svg" viewBox="0 0 24 24"><path d="m 18.992 1.414 c -35.75 -10.426 -12.961 41.09 3.035 15.246 c 2.922 -4.746 3.125 -12.809 -3.035 -15.246" fill="#778799"/><path d="m 7.477 16.867 c -0.867 -0.508 -0.945 -6 -0.09 -6.215 c 0.555 -0.141 0.551 -0.609 0.551 -1.813 c 0 -1.684 1.75 -3.375 3.656 -3.461 c 2.16 -0.094 3.688 1.855 3.707 3.488 c 0 0.941 0.188 1.516 0.551 1.652 c 0.703 0.27 0.797 5.617 0.109 6.301 c -0.551 0.551 -7.555 0.586 -8.484 0.047 m 5.414 -6.375 c 1.316 0 1.305 -0.293 1.305 -1.188 c 0 -1.445 -0.98 -2.324 -2.59 -2.324 c -1.492 0 -1.969 0.391 -2.332 1.906 c -0.254 1.063 0.035 1.707 1.547 1.57 c 0.285 -0.023 1.277 0.035 2.07 0.035" fill="#5f5f5f"/></svg>