<svg xmlns="http://www.w3.org/2000/svg" viewBox="0 0 24 24"><path d="m 3.73 19.262 c -16.285 -25.426 32.398 -25.17 16.949 0.426 c -3.094 5.125 -12.559 6.426 -16.949 -0.426" fill="#dcdcdc"/><path d="m 15.352 22.277 c -0.605 -0.297 -0.742 -0.531 -0.742 -1.289 c 0 -0.398 0.066 -0.855 0.176 -1.23 c 0.117 -0.406 0.156 -0.695 0.117 -0.906 c -0.047 -0.258 -0.031 -0.309 0.082 -0.309 c 0.074 0 0.227 0.086 0.34 0.191 c 0.254 0.238 0.266 0.598 0.07 1.707 c -0.156 0.887 -0.121 1.16 0.219 1.664 c 0.137 0.203 0.223 0.367 0.188 0.363 c -0.035 0 -0.238 -0.09 -0.453 -0.191 m -5.555 -0.215 c 0.195 -0.59 0.148 -0.695 -0.715 -1.59 c -0.809 -0.84 -1.18 -1.563 -1.234 -2.41 c -0.031 -0.555 -0.012 -0.664 0.191 -1.055 c 0.125 -0.238 0.297 -0.469 0.387 -0.516 c 0.195 -0.098 0.199 -0.039 0.035 0.398 c -0.32 0.855 -0.125 1.484 0.949 3.01 c 1.02 1.445 1.121 1.75 0.715 2.133 c -0.273 0.254 -0.406 0.266 -0.328 0.031 m 0.941 -0.789 c 0.039 -0.305 0.004 -0.391 -0.34 -0.848 c -1.656 -2.195 -1.836 -2.625 -1.422 -3.395 c 0.063 -0.117 0.191 -0.254 0.289 -0.305 c 0.168 -0.082 0.172 -0.074 0.113 0.254 c -0.141 0.762 -0.055 0.984 0.824 2.133 c 0.813 1.066 1.113 1.98 0.766 2.34 c -0.223 0.234 -0.273 0.191 -0.227 -0.18 m 6.06 0.059 c -0.609 -0.484 -0.723 -1.094 -0.484 -2.672 c 0.129 -0.887 0.098 -1.043 -0.305 -1.434 c -0.141 -0.141 -0.234 -0.277 -0.207 -0.305 c 0.027 -0.027 0.227 0.027 0.437 0.125 c 0.828 0.375 1.012 1.051 0.727 2.613 c -0.191 1.035 -0.148 1.391 0.199 1.605 c 0.113 0.07 0.207 0.156 0.207 0.195 c 0 0.141 -0.328 0.066 -0.574 -0.129 m -5.176 -0.148 c 0.246 -0.609 0.246 -0.703 -0.02 -1.348 c -0.305 -0.738 -0.316 -0.891 -0.086 -1.164 c 0.238 -0.285 0.301 -0.262 0.363 0.129 c 0.027 0.184 0.133 0.457 0.23 0.609 c 0.098 0.148 0.207 0.371 0.242 0.492 c 0.09 0.289 -0.125 0.961 -0.387 1.203 c -0.219 0.207 -0.418 0.254 -0.344 0.078 m 1.441 -0.16 c 0.18 -0.406 0.148 -0.891 -0.09 -1.367 c -0.254 -0.516 -0.262 -0.793 -0.035 -1.066 c 0.234 -0.277 0.297 -0.262 0.359 0.102 c 0.027 0.168 0.168 0.512 0.309 0.766 c 0.277 0.492 0.281 0.758 0.02 1.246 c -0.297 0.559 -0.793 0.84 -0.563 0.32 m 5.18 -0.508 c -0.164 -0.094 -0.328 -0.297 -0.449 -0.563 c -0.184 -0.398 -0.188 -0.449 -0.09 -1.141 c 0.145 -1.016 0.082 -1.152 -0.805 -1.859 c -0.898 -0.707 -1.156 -1.145 -0.828 -1.398 c 0.102 -0.082 0.133 -0.07 0.176 0.047 c 0.141 0.418 0.254 0.539 0.891 0.926 c 1.25 0.758 1.359 1.02 1.195 2.844 l -0.063 0.711 l 0.262 0.207 c 0.145 0.117 0.262 0.246 0.262 0.293 c 0 0.129 -0.266 0.098 -0.551 -0.066 m -11.832 -0.156 c -0.23 -0.301 -0.367 -0.93 -0.375 -1.699 c -0.012 -0.762 0.102 -0.992 0.902 -1.848 c 0.625 -0.668 0.973 -1.25 0.973 -1.625 c 0 -0.383 0.145 -0.391 0.254 -0.012 c 0.133 0.465 0 0.992 -0.527 2.059 c -0.41 0.832 -0.418 0.867 -0.367 1.383 c 0.059 0.605 0.223 1.09 0.477 1.426 c 0.27 0.355 0.152 0.441 -0.203 0.148 c -0.348 -0.289 -0.68 -0.836 -0.766 -1.281 c -0.063 -0.305 -0.156 -0.371 -0.242 -0.164 c -0.09 0.227 -0.051 1.102 0.066 1.473 c 0.137 0.418 0.059 0.473 -0.191 0.141 m 12.863 -1.313 c -0.035 -0.031 -0.063 -0.223 -0.066 -0.418 c 0 -0.531 -0.285 -1.09 -1.207 -2.387 c -0.777 -1.102 -0.82 -1.18 -0.773 -1.488 c 0.023 -0.176 0.102 -0.379 0.172 -0.441 c 0.113 -0.109 0.133 -0.098 0.184 0.109 c 0.133 0.563 0.254 0.781 0.867 1.547 c 0.895 1.129 1.098 1.527 1.094 2.176 c -0.004 0.516 -0.152 1.012 -0.27 0.902 m -8.27 -0.613 c 0 -0.059 0.078 -0.266 0.168 -0.453 c 0.191 -0.402 0.215 -0.695 0.055 -0.695 c -0.191 0 -0.543 0.305 -0.773 0.672 c -0.25 0.398 -0.344 0.434 -0.418 0.145 c -0.086 -0.313 0.105 -0.777 0.418 -1.035 c 1.078 -0.891 2.754 -0.953 4.145 -0.16 c 0.43 0.246 0.84 0.645 0.75 0.73 c -0.023 0.02 -0.188 -0.031 -0.367 -0.117 c -0.316 -0.152 -0.793 -0.215 -0.793 -0.102 c 0 0.031 0.121 0.172 0.266 0.313 c 0.254 0.246 0.258 0.262 0.082 0.262 c -0.102 0 -0.324 -0.055 -0.488 -0.121 c -0.406 -0.156 -0.441 -0.094 -0.105 0.191 c 0.152 0.133 0.254 0.262 0.227 0.289 c -0.082 0.078 -0.633 -0.117 -0.883 -0.316 c -0.125 -0.098 -0.32 -0.223 -0.434 -0.277 c -0.184 -0.094 -0.219 -0.082 -0.379 0.105 c -0.223 0.262 -0.25 0.258 -0.379 -0.027 c -0.133 -0.305 -0.215 -0.301 -0.383 0.02 c -0.246 0.449 -0.707 0.828 -0.707 0.582 m -5.789 -0.625 c -0.348 -0.277 -0.418 -0.492 -0.418 -1.285 c 0 -0.887 0.086 -1.059 1.059 -2.074 c 0.355 -0.367 0.715 -0.805 0.805 -0.969 c 0.191 -0.344 0.363 -0.316 0.281 0.051 c -0.094 0.395 -0.594 1.297 -0.949 1.691 c -0.719 0.813 -0.941 1.691 -0.609 2.398 c 0.191 0.41 0.16 0.449 -0.168 0.188 m 15.13 -0.273 c -0.152 -0.426 -0.523 -0.969 -1.25 -1.828 c -0.641 -0.754 -0.977 -1.414 -0.977 -1.906 c 0 -0.207 0.035 -0.375 0.078 -0.375 c 0.043 0 0.137 0.172 0.211 0.387 c 0.09 0.246 0.313 0.566 0.617 0.883 c 1.203 1.25 1.77 2.262 1.633 2.91 c -0.078 0.355 -0.168 0.336 -0.313 -0.07 m -16.07 -0.133 c -0.227 -0.324 -0.32 -0.91 -0.289 -1.84 l 0.027 -0.891 l -0.414 -0.148 c -0.629 -0.227 -1.289 -0.879 -1.555 -1.531 c -0.121 -0.305 0.031 -0.242 0.582 0.23 c 0.742 0.645 1.391 0.898 1.922 0.758 c 0.422 -0.117 1.055 -0.613 1.492 -1.176 c 0.379 -0.48 0.402 -0.5 0.426 -0.297 c 0.039 0.313 -0.238 0.793 -0.863 1.496 c -0.301 0.34 -0.688 0.867 -0.855 1.18 c -0.281 0.52 -0.305 0.617 -0.313 1.27 c 0 0.391 0.023 0.805 0.059 0.926 c 0.082 0.27 -0.039 0.281 -0.219 0.023 m 1.371 -0.039 c -0.125 -0.219 -0.105 -0.672 0.043 -1.01 c 0.07 -0.16 0.34 -0.551 0.598 -0.875 c 0.258 -0.32 0.598 -0.844 0.754 -1.16 c 0.297 -0.605 0.324 -0.328 0.418 -0.055 c 0.16 0.473 -0.297 1.344 -0.891 1.875 c -0.414 0.371 -0.672 0.805 -0.672 1.137 c 0 0.27 -0.121 0.313 -0.25 0.086 m 4.391 -1.031 c -0.371 -0.102 -0.738 -0.488 -0.668 -0.703 c 0.074 -0.215 0.516 -0.473 0.816 -0.473 c 0.27 0 0.301 0.117 0.063 0.234 c -0.344 0.176 -0.109 0.582 0.391 0.676 c 0.414 0.078 0.922 -0.102 1.328 -0.469 c 0.602 -0.539 0.484 -0.48 -0.922 -1.359 c -0.805 -0.5 -0.91 -0.898 -0.848 -1.48 c 0.02 -0.219 0.145 -0.605 0.27 -0.867 c 0.129 -0.258 0.23 -0.586 0.227 -0.73 c -0.008 -0.301 0.125 -0.301 0.305 0 c 0.113 0.188 0.094 0.262 -0.223 1.01 c -0.188 0.445 -0.324 0.855 -0.301 0.914 c 0.059 0.145 0.297 0.137 0.781 -0.027 c 0.344 -0.113 0.445 -0.117 0.734 -0.027 c 0.266 0.082 0.395 0.082 0.645 0.004 c 0.207 -0.063 0.512 -0.078 0.887 -0.043 c 0.566 0.051 0.914 -0.023 0.914 -0.199 c 0 -0.043 -0.184 -0.266 -0.406 -0.488 c -0.223 -0.227 -0.453 -0.488 -0.508 -0.59 c -0.152 -0.273 -0.148 -0.781 0.008 -0.926 c 0.121 -0.117 0.137 -0.094 0.188 0.227 c 0.055 0.328 0.176 0.523 0.727 1.164 c 0.234 0.273 0.309 0.871 0.141 1.109 c -0.07 0.098 -0.359 0.563 -0.828 0.93 c -0.477 0.379 -1.016 0.672 -1.047 0.777 c -0.121 0.406 1.02 1.027 1.887 1.027 c 0.484 0 0.633 -0.125 0.551 -0.469 c -0.047 -0.203 -0.031 -0.238 0.117 -0.238 c 0.094 0 0.238 0.094 0.316 0.207 c 0.129 0.184 0.129 0.227 0.02 0.414 c -0.309 0.523 -1.227 0.625 -2.254 0.242 c -0.344 -0.129 -0.684 -0.234 -0.754 -0.234 c -0.07 0 -0.391 0.105 -0.711 0.234 c -0.613 0.246 -1.301 0.305 -1.844 0.156 m 2.688 -1.844 c 0.195 -0.387 0.656 -0.75 0.957 -0.75 c 0.164 0 0.277 -0.055 0.34 -0.164 c 0.051 -0.09 0.074 -0.18 0.051 -0.199 c -0.098 -0.094 -0.906 0.395 -1.188 0.715 c -0.254 0.289 -0.641 0.18 -0.813 0.004 c -0.305 -0.324 -0.566 -0.457 -0.566 -0.281 c 0 0.121 0.844 0.949 0.969 0.949 c 0.063 0 0.176 -0.121 0.25 -0.273 m 8.129 1.313 c -0.066 -0.371 -0.383 -0.824 -1.137 -1.613 c -0.695 -0.73 -0.988 -1.176 -1.063 -1.617 c -0.07 -0.414 0.074 -0.43 0.293 -0.031 c 0.09 0.164 0.32 0.438 0.512 0.609 c 0.48 0.434 1.301 1.379 1.551 1.789 c 0.219 0.359 0.254 0.637 0.125 0.961 c -0.117 0.285 -0.223 0.25 -0.285 -0.098 m -11.688 -0.883 c -0.289 -0.27 -0.145 -0.496 0.18 -0.281 c 0.137 0.09 0.305 0.109 0.66 0.074 c 0.313 -0.031 0.496 -0.016 0.535 0.043 c 0.035 0.055 -0.016 0.09 -0.137 0.09 c -0.105 0.004 -0.289 0.055 -0.402 0.117 c -0.297 0.16 -0.641 0.141 -0.836 -0.039 m 5.648 0.078 c -0.09 -0.039 -0.277 -0.07 -0.418 -0.074 c -0.441 -0.129 0.828 -0.141 0.965 -0.281 c 0.145 -0.164 0.332 -0.148 0.332 0.035 c 0 0.332 -0.445 0.492 -0.879 0.32 m 1.676 -0.34 c -0.133 -0.297 0.035 -0.684 0.594 -1.367 c 0.57 -0.699 0.867 -1.203 0.871 -1.465 c 0 -0.234 0.195 -0.105 0.273 0.18 c 0.102 0.363 -0.305 1.117 -0.941 1.758 c -0.27 0.27 -0.543 0.613 -0.609 0.762 c -0.105 0.23 -0.137 0.25 -0.188 0.133 m -8.23 -0.359 c -0.043 -0.121 -0.262 -0.41 -0.477 -0.641 c -0.77 -0.813 -1.129 -1.469 -1.129 -2.055 c 0 -0.488 0.145 -0.48 0.305 0.016 c 0.063 0.191 0.32 0.613 0.578 0.938 c 0.867 1.109 1.43 1.16 1.43 1.52 c 0 0.391 -0.582 0.551 -0.707 0.223 m 1.125 -0.016 c -0.258 -0.191 -0.281 -0.43 -0.086 -0.969 c 0.18 -0.488 0.324 -0.371 0.328 0.266 c 0 0.262 0.047 0.508 0.105 0.563 c 0.137 0.133 0.129 0.305 -0.012 0.305 c -0.063 0 -0.215 -0.074 -0.336 -0.164 m 5.305 -0.059 c 0 -0.039 0.156 -0.184 0.344 -0.324 c 0.367 -0.277 0.367 -0.273 0.172 -0.984 c -0.145 -0.523 -0.02 -0.465 0.332 0.16 c 0.223 0.398 0.316 0.645 0.277 0.754 c -0.086 0.258 -1.125 0.621 -1.125 0.395 m 6.551 -0.68 c -0.145 -0.195 -0.5 -0.52 -0.793 -0.727 c -0.621 -0.441 -1.57 -1.316 -1.57 -1.445 c 0 -0.063 0.063 -0.051 0.188 0.035 c 0.387 0.258 1.125 0.703 1.563 0.941 c 0.551 0.301 1.012 0.883 1.012 1.277 c 0 0.148 -0.031 0.27 -0.066 0.27 c -0.039 0 -0.188 -0.16 -0.332 -0.352 m -17.656 -0.203 c -0.602 -0.176 -1.434 -0.867 -1.574 -1.316 c -0.082 -0.25 0.027 -0.219 0.496 0.148 c 0.824 0.637 1.586 0.84 2.172 0.578 c 0.336 -0.148 0.602 -0.449 0.512 -0.582 c -0.086 -0.133 -0.379 -0.098 -0.438 0.055 c -0.031 0.074 -0.094 0.164 -0.145 0.195 c -0.16 0.102 -1.051 0.063 -1.363 -0.063 c -0.668 -0.262 -1.43 -0.941 -1.25 -1.113 c 0.027 -0.023 0.199 0.082 0.387 0.234 c 0.371 0.297 1.141 0.609 1.496 0.605 c 0.172 0 0.109 -0.047 -0.262 -0.188 c -0.52 -0.203 -0.621 -0.262 -1.051 -0.633 c -0.273 -0.234 -0.574 -0.672 -0.461 -0.672 c 0.031 0 0.23 0.105 0.441 0.23 c 1.266 0.766 1.98 0.891 2.957 0.52 c 0.711 -0.27 0.816 -0.238 0.813 0.25 c 0 0.652 -0.461 1.332 -1.113 1.648 c -0.313 0.152 -1.242 0.211 -1.613 0.102 m 4.723 -0.527 c -0.488 -0.426 -1.195 -1.391 -1.332 -1.82 c -0.102 -0.32 -0.074 -0.766 0.043 -0.742 c 0.043 0.012 0.145 0.215 0.223 0.457 c 0.078 0.238 0.199 0.516 0.266 0.613 c 0.188 0.266 0.668 0.688 0.785 0.688 c 0.172 0 0.367 -0.328 0.313 -0.527 c -0.055 -0.211 0.137 -0.254 0.305 -0.066 c 0.117 0.137 0.031 1.773 -0.098 1.773 c -0.043 0 -0.27 -0.172 -0.504 -0.375 m 7.922 0.512 c -0.027 -0.078 -0.07 -0.477 -0.18 -0.617 c -0.312 -0.398 -0.137 -0.965 -0.023 -1.289 c 0.113 -0.324 0.25 -0.363 0.25 -0.074 c 0 0.234 0.242 0.664 0.375 0.66 c 0.047 0 0.219 -0.203 0.379 -0.453 c 0.277 -0.426 0.293 -0.484 0.27 -1.059 c -0.012 -0.336 -0.004 -0.609 0.02 -0.609 c 0.07 0 0.355 0.574 0.414 0.824 c 0.086 0.375 -0.133 0.984 -0.574 1.602 c -0.465 0.652 -0.855 1.211 -0.93 1.016 m -1.699 -1.676 c -0.305 -0.242 -0.551 -0.883 -0.48 -1.246 c 0.063 -0.305 0.27 -0.496 0.867 -0.797 c 0.656 -0.328 0.715 -0.816 0.105 -0.902 c -0.246 -0.035 -0.289 -0.086 -0.461 -0.535 c -0.105 -0.27 -0.344 -0.676 -0.531 -0.902 c -0.188 -0.227 -0.309 -0.422 -0.27 -0.438 c 0.09 -0.027 0.582 0.258 1.043 0.605 c 0.453 0.344 1.223 1.27 1.223 1.473 c 0 0.094 0.113 0.301 0.25 0.469 c 0.141 0.164 0.277 0.375 0.301 0.473 c 0.066 0.242 -0.23 0.75 -0.586 1.01 c -0.164 0.117 -0.324 0.301 -0.352 0.41 c -0.066 0.25 -0.234 0.203 -0.27 -0.078 c -0.016 -0.137 0.051 -0.309 0.188 -0.48 c 0.211 -0.129 0.168 -0.504 0.301 -0.707 c 0.125 -0.074 0.102 -0.273 -0.039 -0.324 c -0.133 -0.047 -0.844 0.242 -0.938 0.383 c -0.031 0.047 -0.273 0.34 -0.188 0.398 c 0.148 0.102 1.332 -0.293 1.164 0.016 c -0.098 0.184 -1.102 0.18 -1.051 0.539 c 0.031 0.223 0.109 0.484 0.176 0.578 c 0.156 0.227 0.152 0.258 -0.039 0.258 c -0.09 0 -0.273 -0.09 -0.414 -0.199 m -4.809 -0.434 c -0.055 -0.387 -0.352 -0.535 -0.691 -0.535 c -0.242 -0.004 -1.02 0.133 -0.852 -0.285 c 0.371 -0.07 0.844 -0.031 1.188 -0.125 c 0.207 -0.074 -0.113 -0.301 -0.445 -0.387 c -0.477 -0.125 -0.68 -0.102 -0.68 0.074 c 0 0.082 -0.039 0.172 -0.086 0.199 c -0.164 0.098 -0.078 0.203 0.371 0.473 c 0.758 0.453 0.758 0.621 0 0.309 c -0.797 -0.328 -1.207 -0.777 -1.207 -1.32 c 0 -0.414 0.125 -0.648 0.629 -1.18 c 0.273 -0.289 0.512 -0.633 0.59 -0.855 c 0.121 -0.336 0.52 -0.77 0.711 -0.77 c 0.113 0 0.105 0.031 -0.172 0.645 c -0.191 0.426 -0.25 0.672 -0.25 1.066 c 0 0.453 -0.016 0.504 -0.148 0.453 c -0.324 -0.125 -0.41 -0.121 -0.555 0.031 c -0.262 0.27 -0.117 0.453 0.418 0.512 c 0.258 0.027 0.547 0.09 0.645 0.141 c 0.32 0.16 1.145 1 1.145 1.164 c 0 0.09 -0.125 0.289 -0.277 0.449 l -0.281 0.285 l -0.051 -0.348 m 9.906 0.184 c -0.449 -0.164 -0.984 -0.66 -1.758 -1.637 c -0.313 -0.391 -0.859 -0.957 -1.211 -1.254 c -0.355 -0.301 -0.605 -0.559 -0.555 -0.574 c 0.156 -0.047 0.746 0.211 1.395 0.609 c 0.699 0.434 1.25 0.547 2.02 0.406 c 0.633 -0.117 0.918 -0.281 1.117 -0.648 c 0.207 -0.383 0.379 -0.313 0.293 0.121 c -0.113 0.582 -0.797 1.055 -1.641 1.141 c -0.25 0.027 -0.453 0.082 -0.449 0.129 c 0.02 0.152 0.5 0.305 1.059 0.34 c 0.488 0.027 0.629 0 1.031 -0.184 c 0.414 -0.191 0.492 -0.27 0.727 -0.715 c 0.148 -0.277 0.32 -0.504 0.387 -0.504 c 0.188 0 0.059 0.719 -0.215 1.203 c -0.254 0.441 -0.508 0.602 -1.238 0.773 c -0.508 0.121 -0.531 0.137 -0.375 0.227 c 0.172 0.102 1.059 0.094 1.277 -0.012 c 0.102 -0.047 0.289 -0.18 0.414 -0.289 c 0.156 -0.137 0.262 -0.176 0.316 -0.125 c 0.133 0.125 -0.375 0.777 -0.738 0.945 c -0.434 0.199 -1.375 0.223 -1.855 0.047 m -15.91 -0.172 c -0.602 -0.168 -1.254 -0.641 -1.422 -1.027 c -0.156 -0.352 -0.051 -0.367 0.344 -0.047 c 0.531 0.426 1.043 0.633 1.582 0.637 c 0.438 0 0.82 -0.078 0.738 -0.156 c -0.02 -0.02 -0.328 -0.086 -0.68 -0.152 c -0.355 -0.063 -0.805 -0.184 -1 -0.266 c -0.379 -0.16 -0.973 -0.684 -0.875 -0.773 c 0.027 -0.027 0.328 0.082 0.664 0.242 c 0.746 0.355 1.543 0.5 2.043 0.371 c 0.359 -0.094 1.371 -0.809 1.215 -0.859 c -0.047 -0.016 -0.184 0.031 -0.305 0.105 c -0.242 0.148 -0.328 0.125 -0.246 -0.074 c 0.082 -0.203 1.105 -0.859 1.254 -0.805 c 0.176 0.063 0.09 0.617 -0.211 1.336 c -0.305 0.73 -0.594 1.043 -1.207 1.316 c -0.422 0.188 -0.617 0.227 -1.098 0.219 c -0.324 -0.004 -0.684 -0.031 -0.797 -0.066 m 6.082 -1.348 c -0.398 -0.328 -0.723 -0.813 -0.723 -1.07 c 0 -0.195 0.309 -0.652 0.438 -0.652 c 0.074 0 0.098 0.102 0.078 0.332 c -0.02 0.254 0.023 0.406 0.172 0.613 c 0.285 0.395 0.5 0.395 0.691 0 c 0.188 -0.391 0.328 -0.371 0.359 0.043 c 0.027 0.352 -0.277 1 -0.488 1.039 c -0.074 0.012 -0.309 -0.125 -0.527 -0.305 m 3.57 -0.012 c -0.414 -0.422 -0.637 -0.953 -0.469 -1.113 c 0.035 -0.031 0.18 0.078 0.32 0.238 c 0.219 0.242 0.297 0.281 0.48 0.238 c 0.172 -0.043 0.234 -0.117 0.281 -0.344 c 0.031 -0.16 0.02 -0.379 -0.031 -0.492 c -0.047 -0.109 -0.113 -0.266 -0.148 -0.344 c -0.117 -0.262 0.313 -0.117 0.523 0.176 c 0.32 0.445 0.223 0.906 -0.32 1.523 c -0.297 0.34 -0.402 0.359 -0.637 0.117 m -9.316 -0.246 c 0 -0.016 0.148 -0.172 0.332 -0.344 c 0.453 -0.426 0.449 -0.453 -0.164 -0.871 c -0.445 -0.301 -0.559 -0.195 -0.18 0.172 c 0.477 0.465 0.266 0.68 -0.664 0.68 c -0.695 0 -1.5 -0.316 -1.5 -0.59 c 0 -0.066 0.141 -0.051 0.477 0.055 c 0.469 0.152 0.965 0.141 1.07 -0.016 c 0.027 -0.043 -0.172 -0.18 -0.441 -0.309 c -0.273 -0.125 -0.609 -0.355 -0.75 -0.508 c -0.445 -0.473 -0.477 -0.887 -0.043 -0.508 c 0.363 0.32 0.617 0.441 1.074 0.52 l 0.426 0.07 l -0.004 -0.441 c -0.012 -0.57 0.191 -0.898 0.809 -1.297 c 0.395 -0.258 0.566 -0.316 0.98 -0.344 c 0.527 -0.035 0.711 0.09 0.273 0.191 c -0.395 0.09 -1 0.406 -1.18 0.621 c -0.371 0.441 -0.262 1.047 0.246 1.395 c 0.219 0.148 0.219 0.148 0.703 -0.094 c 0.484 -0.242 0.898 -0.305 1.129 -0.164 c 0.137 0.078 0.168 0.063 -0.438 0.238 c -0.316 0.09 -0.488 0.25 -0.961 0.891 c -0.297 0.398 -0.711 0.68 -1.01 0.68 c -0.105 0 -0.188 -0.012 -0.188 -0.027 m 7.441 -0.992 c -0.27 -0.477 -0.504 -0.754 -0.918 -1.102 c -0.574 -0.48 -0.809 -0.84 -0.711 -1.082 c 0.055 -0.125 0.074 -0.117 0.223 0.059 c 0.344 0.414 0.605 0.621 1.094 0.867 l 0.504 0.254 l 0.492 -0.504 c 0.348 -0.355 0.488 -0.563 0.492 -0.723 c 0.004 -0.168 0.039 -0.215 0.152 -0.195 c 0.277 0.051 0.219 0.457 -0.152 1.047 c -0.215 0.34 -0.418 0.816 -0.535 1.238 c -0.102 0.379 -0.207 0.711 -0.234 0.734 c -0.023 0.023 -0.207 -0.242 -0.406 -0.594 m 6.539 -0.234 c -0.57 -0.102 -1.07 -0.289 -1.688 -0.637 c -0.445 -0.246 -0.582 -0.367 -0.656 -0.586 c -0.125 -0.355 -0.035 -0.891 0.191 -1.121 c 0.266 -0.273 0.414 -0.23 0.348 0.098 c -0.066 0.324 -0.008 0.34 0.516 0.152 c 0.25 -0.09 0.395 -0.105 0.5 -0.051 c 0.133 0.07 0.117 0.094 -0.117 0.207 c -0.191 0.094 -0.266 0.184 -0.266 0.328 c 0 0.191 0.004 0.191 0.246 0.074 c 0.266 -0.129 0.508 -0.156 0.504 -0.059 c 0 0.031 -0.055 0.145 -0.121 0.254 c -0.188 0.309 -0.156 0.543 0.082 0.629 c 0.375 0.133 0.762 -0.102 0.844 -0.516 c 0.113 -0.559 -0.27 -1.07 -1.027 -1.387 c -0.488 -0.203 -0.523 -0.301 -0.109 -0.301 c 0.305 0 0.34 -0.016 0.297 -0.152 c -0.031 -0.09 0.035 -0.313 0.172 -0.559 l 0.227 -0.406 l -0.188 -0.402 c -0.102 -0.223 -0.203 -0.449 -0.23 -0.504 c -0.023 -0.055 -0.008 -0.098 0.039 -0.098 c 0.137 0 0.762 0.684 0.82 0.898 c 0.09 0.328 -0.043 1.063 -0.219 1.227 c -0.156 0.148 -0.152 0.156 0.215 0.391 c 0.48 0.309 0.625 0.586 0.664 1.242 c 0.039 0.684 0.027 0.645 0.16 0.645 c 0.223 0 0.547 -0.398 0.602 -0.742 c 0.055 -0.359 0.164 -0.578 0.246 -0.504 c 0.027 0.027 0.074 0.301 0.102 0.605 c 0.039 0.449 0.02 0.598 -0.098 0.762 c -0.281 0.406 -1.262 0.648 -2.055 0.512 m -15.13 -1.02 c -0.453 -0.258 -0.676 -0.738 -0.578 -1.23 c 0.07 -0.348 0.23 -0.316 0.324 0.07 c 0.051 0.195 0.18 0.367 0.402 0.531 c 0.535 0.402 0.41 0.945 -0.148 0.629 m 2.703 0.09 c -0.031 -0.047 0.02 -0.105 0.113 -0.137 c 0.246 -0.07 0.137 -0.172 -0.246 -0.234 c -0.18 -0.027 -0.375 -0.102 -0.426 -0.164 c -0.086 -0.094 -0.027 -0.109 0.363 -0.109 c 0.254 0 0.531 -0.027 0.613 -0.055 c 0.117 -0.043 0.094 -0.07 -0.137 -0.145 c -0.445 -0.141 -0.391 -0.246 0.164 -0.309 c 0.605 -0.063 1.117 0.051 1.395 0.313 c 0.238 0.223 0.254 0.43 0.047 0.668 c -0.133 0.156 -0.246 0.184 -0.992 0.215 c -0.543 0.023 -0.859 0.008 -0.895 -0.043 m 2.57 -0.66 c 0.016 -0.316 -0.27 -0.512 -1.18 -0.813 c -1.574 -0.52 -1.801 -0.617 -2.121 -0.902 c -0.34 -0.305 -0.434 -0.656 -0.227 -0.852 c 0.148 -0.137 0.234 -0.113 0.234 0.059 c 0 0.281 1.066 0.867 2.01 1.105 c 0.504 0.129 1.164 0.445 1.445 0.691 c 0.246 0.215 0.301 0.535 0.145 0.809 c -0.141 0.246 -0.316 0.188 -0.305 -0.098 m 6.723 -0.148 c -0.32 -0.508 -0.004 -1.199 0.867 -1.891 c 0.695 -0.559 0.82 -0.937 0.504 -1.523 c -0.199 -0.371 -0.156 -0.438 0.148 -0.227 c 0.477 0.328 0.668 1.102 0.398 1.594 c -0.066 0.125 -0.422 0.484 -0.785 0.805 c -0.77 0.676 -0.887 0.848 -0.813 1.215 c 0.07 0.348 -0.109 0.363 -0.32 0.027 m -11.621 -0.129 c -0.328 -0.352 -0.41 -0.777 -0.223 -1.16 c 0.137 -0.277 0.207 -0.25 0.266 0.098 c 0.031 0.172 0.16 0.414 0.305 0.566 c 0.227 0.238 0.242 0.281 0.141 0.43 c -0.152 0.215 -0.328 0.238 -0.488 0.066 m 15.789 -0.219 c -0.098 -0.141 -0.117 -0.262 -0.074 -0.414 c 0.039 -0.121 0.063 -0.438 0.059 -0.707 c -0.008 -0.453 0.004 -0.488 0.145 -0.414 c 0.195 0.098 0.508 0.691 0.508 0.973 c 0 0.305 -0.223 0.758 -0.371 0.758 c -0.07 0 -0.191 -0.09 -0.266 -0.195 m -8.238 -0.219 c 0 -0.105 -0.227 -0.438 -0.551 -0.801 c -0.945 -1.07 -1.133 -1.504 -0.883 -2.063 c 0.059 -0.133 0.195 -0.281 0.309 -0.328 c 0.23 -0.098 0.238 -0.09 0.113 0.168 c -0.164 0.336 0.043 0.793 0.668 1.457 c 0.309 0.332 0.609 0.68 0.664 0.777 c 0.137 0.242 0.121 0.699 -0.035 0.844 c -0.184 0.172 -0.285 0.152 -0.285 -0.055 m 3.281 -0.059 c -0.25 -0.375 -0.313 -0.742 -0.195 -1.176 c 0.086 -0.305 0.078 -0.41 -0.035 -0.668 c -0.152 -0.344 -0.113 -0.699 0.102 -0.922 c 0.184 -0.191 0.277 -0.18 0.277 0.035 c 0 0.098 0.063 0.258 0.137 0.359 c 0.105 0.141 0.156 0.156 0.25 0.086 c 0.242 -0.191 0.098 -1.07 -0.215 -1.309 c -0.25 -0.191 0.02 -0.098 0.336 0.113 c 0.387 0.258 0.75 0.844 0.75 1.211 c 0 0.289 -0.145 0.527 -0.57 0.938 c -0.383 0.375 -0.516 0.633 -0.59 1.156 l -0.063 0.453 m -5.59 -0.363 c -0.129 -0.129 -0.563 -0.441 -0.961 -0.691 c -1.543 -0.977 -1.883 -1.324 -1.695 -1.719 c 0.113 -0.23 0.227 -0.227 0.293 0.012 c 0.047 0.184 0.676 0.668 1.805 1.395 c 0.582 0.371 0.926 0.766 0.926 1.063 c 0 0.242 -0.074 0.23 -0.367 -0.059 m -4.777 -0.09 c -0.168 -0.223 -0.18 -0.926 -0.016 -0.926 c 0.066 0 0.141 0.09 0.172 0.195 c 0.027 0.109 0.164 0.273 0.301 0.371 c 0.289 0.199 0.316 0.34 0.086 0.453 c -0.246 0.125 -0.402 0.102 -0.543 -0.094 m 7.777 -0.242 c -0.004 -0.328 -0.082 -0.574 -0.355 -1.109 c -0.434 -0.848 -0.477 -1.352 -0.148 -1.66 c 0.195 -0.184 0.469 -0.262 0.461 -0.137 c 0 0.035 -0.055 0.129 -0.125 0.215 c -0.184 0.227 -0.148 0.441 0.141 0.871 c 0.551 0.82 0.719 1.656 0.402 2.031 c -0.27 0.32 -0.371 0.262 -0.375 -0.211 m -2.289 -0.313 c -0.109 -0.168 -0.441 -0.41 -0.93 -0.68 c -0.418 -0.23 -0.816 -0.492 -0.883 -0.582 c -0.188 -0.254 -0.148 -0.996 0.055 -0.996 c 0.039 0 0.074 0.109 0.074 0.242 c 0 0.387 0.129 0.523 1 1.055 c 0.793 0.48 1.09 0.781 1.09 1.098 c 0 0.211 -0.23 0.133 -0.41 -0.137 m 3.34 -0.039 c 0 -0.121 -0.078 -0.418 -0.168 -0.664 c -0.195 -0.516 -0.207 -0.746 -0.07 -1.176 c 0.094 -0.289 0.539 -0.75 0.637 -0.656 c 0.027 0.023 -0.02 0.156 -0.102 0.297 c -0.141 0.242 -0.141 0.289 -0.016 0.684 c 0.156 0.488 0.172 0.941 0.051 1.355 c -0.109 0.363 -0.332 0.469 -0.332 0.16"/></svg>