<svg xmlns="http://www.w3.org/2000/svg" viewBox="0 0 24 24"><path d="m 4.211 4.254 c -12.03 9.695 5.582 27.2 16.23 16.02 c 10.668 -9.621 -5.984 -28.29 -16.23 -16.02" fill="#d62017"/><g fill="#f4f31f" stroke="#f4f31f" stroke-width="0.682" transform="scale(0.09375)"><path d="m 82.25 198.46 c -1.25 -0.75 -1.5 -2.333 -1.75 -11.667 c -0.167 -6.167 -0.375 -9.333 -0.708 -9.625 c -0.75 -0.792 -2.167 0.25 -4.5 3.333 c -2.667 3.625 -7.792 8.833 -11.125 11.375 c -1.917 1.417 -2.75 1.833 -3.875 1.833 c -1.708 0 -2.958 -1.042 -2.958 -2.458 c 0 -0.833 0.208 -1.083 1.042 -1.25 c 1.417 -0.292 12.667 -11.125 13.583 -13.04 c 0.375 -0.792 1.333 -2.458 2.208 -3.708 c 1.958 -2.917 3 -5.667 2.708 -7.083 c -0.292 -1.208 -4.458 -7.833 -5.417 -8.583 c -1.083 -0.833 -1.458 -0.542 -2.583 2.083 c -1.875 4.5 -3.542 7.625 -4.417 8.208 c -1 0.708 -3 0.792 -3.667 0.167 c -0.75 -0.792 -0.542 -3.875 0.333 -4.708 c 1.125 -1 2.958 -5.208 4.708 -10.625 c 0.792 -2.5 1.792 -5.375 2.208 -6.417 c 1.125 -2.833 1.958 -7.5 1.333 -7.833 c -0.25 -0.167 -1.583 -0.417 -2.917 -0.5 c -3.25 -0.292 -5.333 -1 -6 -2 c -0.458 -0.708 -0.417 -0.917 0.375 -1.833 l 0.917 -1.042 l 8.125 -0.333 c 11 -0.417 12.583 -0.958 11.208 -4.083 c -0.792 -1.75 -0.75 -6.875 0.083 -7.708 c 0.542 -0.542 4.375 -0.708 4.875 -0.167 c 0.417 0.375 0.417 4.625 0 8.04 c -0.292 2.458 -0.25 2.75 0.375 3 c 0.417 0.167 4.75 0.5 9.708 0.792 c 10.75 0.625 12.13 1 10.917 3.25 c -0.458 0.917 -2.542 1.833 -4 1.833 c -1.667 0 -3.542 1.125 -3.792 2.25 c -0.125 0.542 -0.458 2 -0.75 3.167 c -0.75 2.917 -0.792 7.125 -0.083 8.5 c 0.292 0.625 0.833 1.625 1.167 2.25 c 0.333 0.625 0.875 1.625 1.167 2.25 c 0.792 1.708 2.625 4.875 3.458 6.083 c 0.667 0.958 0.667 1.125 0.167 2.042 c -0.292 0.542 -1 1.25 -1.542 1.542 c -1.375 0.792 -2.667 0.083 -4.04 -2.125 c -2.375 -3.833 -3.75 -5.625 -4.292 -5.625 c -0.292 0 -1.25 1.125 -2.125 2.458 c -0.875 1.375 -2.042 3.042 -2.542 3.75 c -0.917 1.208 -0.917 1.333 -0.417 2.958 c 0.292 0.958 1 2.417 1.583 3.25 c 0.583 0.875 1.417 2.167 1.833 2.875 c 1.792 3.167 8.292 10.292 11 12.04 c 1.042 0.708 2.292 1.667 2.792 2.208 l 0.875 0.958 l -1.333 0.792 c -2.917 1.792 -4.875 0.667 -13.167 -7.708 c -2.792 -2.833 -5.292 -5.167 -5.542 -5.167 c -0.583 0 -0.875 3.083 -0.917 10.08 c -0.083 8.375 -0.333 10.292 -1.667 11.417 c -1.125 1 -1.583 1.083 -2.625 0.5 m -1.375 -41.17 c 0.375 -0.458 0.375 -1.083 0.042 -2.75 c -0.208 -1.208 -0.458 -5 -0.542 -8.458 c -0.125 -6.708 -0.375 -7.75 -2 -8.125 c -1.833 -0.458 -3 1.417 -4.375 7.167 l -0.75 3.292 l 1.958 3.667 c 2.125 4 2.792 4.958 3.958 5.417 c 1.083 0.417 1.167 0.417 1.708 -0.208 m 7.833 -2.958 c 1.042 -1.625 2.417 -5.125 2.417 -6.083 c 0 -0.292 0.458 -1.542 1 -2.792 c 0.667 -1.542 1 -2.958 1.042 -4.667 l 0.042 -2.458 l -1.458 -0.292 c -1.792 -0.375 -4.25 0.208 -4.625 1.125 c -0.375 0.917 -1 14.04 -0.75 15.542 c 0.292 1.708 1.125 1.583 2.333 -0.375"/><path d="m 198 197.88 c -3.042 -1.958 -5.125 -4.667 -6.958 -8.958 c -0.583 -1.417 -1.542 -3.125 -2.083 -3.792 l -1.042 -1.25 l -5.833 5.583 c -7.333 7.04 -8.04 7.542 -10 7.125 c -0.792 -0.208 -1.542 -0.458 -1.667 -0.583 c -0.125 -0.125 -0.458 -2.208 -0.667 -4.583 c -0.25 -2.417 -0.542 -4.458 -0.667 -4.583 c -0.625 -0.625 -2.458 0.583 -6.792 4.375 c -7.083 6.25 -10.125 7.875 -12.333 6.5 c -0.625 -0.375 -2.042 -2.167 -3.167 -4 c -1.167 -1.833 -4.167 -6.04 -6.667 -9.375 c -2.5 -3.333 -5.208 -7.04 -6 -8.292 c -1.583 -2.458 -2.75 -2.958 -5.375 -2.5 c -1.208 0.25 -1.417 0.542 -2.958 3.75 c -0.917 1.917 -2.708 4.875 -3.958 6.542 c -3.125 4.125 -12.12 12.875 -14.375 13.958 l -1.75 0.833 l -1.292 -1.417 c -0.75 -0.75 -1.333 -1.542 -1.333 -1.708 c 0 -0.208 1 -1.125 2.208 -2.083 c 5.917 -4.625 14.917 -14.625 14.917 -16.583 c 0 -0.25 0.292 -0.958 0.625 -1.583 c 0.583 -1 0.625 -1.167 0.125 -1.5 c -0.833 -0.5 -2.75 -0.417 -3.625 0.167 c -0.417 0.292 -1.417 0.708 -2.208 0.917 c -1.333 0.375 -1.542 0.333 -2.333 -0.458 c -0.708 -0.667 -0.917 -1.458 -1.125 -3.667 c -0.375 -3.833 -0.083 -49.958 0.292 -50.33 c 0.125 -0.167 2.417 -0.417 5 -0.542 c 7.708 -0.458 7.875 -0.583 6.083 -4 c -0.75 -1.417 -0.958 -2.333 -0.958 -4.458 c 0 -5.583 -0.958 -6.625 -5.75 -6.167 c -3.167 0.292 -4.292 0.792 -3.917 1.667 c 0.667 1.625 0.583 2.292 -0.5 3.5 c -1.125 1.25 -1.125 1.25 -6 1.583 c -2.708 0.167 -9 0.667 -14.04 1.083 c -10.292 0.875 -22.75 1.417 -26.292 1.125 c -1.542 -0.125 -2.542 -0.375 -2.75 -0.75 c -0.5 -0.75 -0.5 -2.167 0 -2.458 c 0.208 -0.125 3.667 -0.583 7.667 -1 c 12.292 -1.25 14 -1.667 13.958 -3.5 c 0 -2.167 -1.292 -2.583 -8.917 -2.917 c -6.583 -0.292 -7.833 -0.542 -8.542 -1.875 c -1.083 -2.042 0 -2.417 8.667 -2.708 c 6.75 -0.208 7.375 -0.292 8.125 -1.042 c 0.75 -0.708 0.75 -0.917 0.333 -2.458 l -0.5 -1.708 l -8.917 -0.125 c -8.292 -0.125 -8.958 -0.208 -9.458 -0.875 c -0.708 -1 -0.667 -1.25 0.458 -2 c 1.458 -0.958 16.708 -1.458 30.625 -1.042 l 10.917 0.333 l 1.042 1.042 c 0.958 1 1 1.125 0.417 1.708 c -0.542 0.542 -1.917 0.625 -9.25 0.792 l -8.625 0.208 l -0.667 1.542 c -0.708 1.542 -0.583 2.5 0.5 3.125 c 0.25 0.167 3.708 0.417 7.667 0.5 c 6.708 0.208 7.292 0.292 8.417 1.083 c 1.667 1.167 2.292 1.083 4.792 -0.833 c 1.583 -1.208 3.458 -2.083 6.833 -3.25 c 5.667 -1.917 11.625 -4.792 14.708 -7.083 c 3.167 -2.333 5.04 -2.167 5.875 0.5 c 0.542 1.75 0.208 1.708 23.08 2.042 c 21.667 0.292 26.667 0.5 27.583 1.083 c 0.667 0.417 0.25 1.75 -0.625 2.125 c -0.375 0.167 -7.833 0.417 -16.625 0.542 c -16.833 0.208 -17.25 0.25 -17.25 1.917 c 0 2.833 0.958 3.083 14.04 3.458 c 6.167 0.167 14.625 0.292 18.792 0.333 c 9.292 0 10.458 0.167 10.458 1.333 c 0 0.458 -0.292 1.208 -0.667 1.667 c -0.583 0.708 -1.292 0.875 -5.417 1.167 c -2.625 0.208 -5.083 0.375 -5.5 0.375 c -1.583 0.042 -1.792 0.542 -2.333 5.667 c -0.292 2.75 -0.667 5.333 -0.875 5.708 c -0.458 0.833 -1.958 1.167 -5.5 1.167 c -3.333 0.042 -5.583 0.5 -6.208 1.375 c -0.667 0.917 -0.625 3.75 0.083 4.292 c 0.417 0.375 1.083 0.333 2.917 0 c 2.833 -0.542 12.08 -0.667 15.25 -0.208 c 1.292 0.167 2.5 0.583 2.917 1 c 1.083 1.083 1.292 4.167 1.042 15.75 c -0.208 8.417 -0.375 11.08 -0.917 12.75 c -0.458 1.5 -0.625 3.25 -0.542 6.417 c 0.042 4.792 1.083 19.17 1.5 21.292 c 0.417 1.917 1.25 1.667 1.833 -0.542 c 0.25 -1.042 0.792 -2.208 1.167 -2.583 c 0.75 -0.75 2.917 -1.417 4.667 -1.417 l 0.958 -0.042 l -0.25 20.333 l -1.042 0.875 c -1.75 1.5 -2.042 1.542 -3.542 0.625 m -46.17 -9 c 0.042 -0.042 0.167 -14.25 0.292 -31.542 c 0.167 -26.667 0.292 -31.458 0.75 -31.75 c 0.292 -0.208 1.667 -0.542 3.042 -0.792 c 4.958 -0.917 9.333 -3.167 10.458 -5.333 c 1.167 -2.25 -0.5 -2.75 -5.708 -1.708 c -1.458 0.292 -4.75 0.667 -7.292 0.833 l -4.667 0.25 v 13.333 c -0.042 15.875 -0.583 40.708 -0.958 41.875 c -0.417 1.333 -1.667 1.375 -3.667 0.083 c -1.167 -0.75 -2.167 -1.125 -2.833 -1.042 c -0.917 0.125 -1.083 0.292 -1.208 1.5 c -0.083 1.167 0.208 1.75 1.833 3.792 c 1.042 1.333 2.667 3.542 3.583 4.917 c 2.167 3.292 5.792 6.458 6.375 5.583 m 9.292 -3.583 c 1 -0.75 2.542 -1.958 3.375 -2.667 c 0.875 -0.667 2.167 -1.375 2.875 -1.5 c 1.75 -0.292 3 -1.125 3 -2 c 0 -0.833 -1.667 -2.708 -2.417 -2.708 c -0.875 0 -6.792 1.167 -8.125 1.583 c -1.5 0.458 -2 1.917 -2 5.667 c 0 3.583 0.417 3.792 3.292 1.625 m 17.667 0.292 c 0.958 -0.583 1.958 -1.417 2.25 -1.833 c 0.833 -1.208 3.417 -2.375 5.125 -2.375 c 0.958 0 1.75 -0.25 2.042 -0.583 c 0.792 -0.917 0.583 -2.542 -0.417 -3.333 c -0.792 -0.625 -1.292 -0.708 -3.583 -0.5 c -6.625 0.583 -8.125 1.208 -8.167 3.583 c 0 0.583 -0.25 1.458 -0.542 1.958 c -0.667 1.167 -0.75 3.125 -0.125 3.75 c 0.708 0.667 1.542 0.542 3.417 -0.667 m -9.667 -12.875 c 0.667 -0.417 1.292 -2.417 1.083 -3.375 c -0.333 -1.25 -2.667 -1.75 -7.667 -1.583 c -5.542 0.208 -6.583 1 -4.583 3.542 c 0.708 0.833 1.333 1.167 2.75 1.375 c 2.625 0.375 7.875 0.417 8.417 0.042 m 15.833 -0.042 c 1.75 -0.417 2.5 -1.25 2.5 -2.708 c 0 -1.792 -0.792 -2.083 -6.083 -2.083 c -4.292 0 -4.958 0.125 -5.667 0.75 c -1.875 1.708 0.125 3.5 4.417 4 c 1.417 0.167 2.75 0.292 2.958 0.333 c 0.208 0.042 1.083 -0.125 1.875 -0.292 m -41.833 -6.875 c -0.208 -4.708 -0.542 -7.208 -1.083 -7.75 c -0.292 -0.292 -1.417 -0.625 -2.542 -0.792 c -2.542 -0.375 -18.708 -0.375 -20.292 -0.042 c -1.083 0.25 -1.25 0.458 -1.583 2.25 c -0.375 1.917 -0.583 4.917 -0.458 7.375 c 0 0.917 0.208 1.25 0.875 1.375 c 0.458 0.083 6.333 0.125 13 0.125 l 12.167 -0.042 m 26.292 -5.542 c 0.583 -1.167 0.583 -5.667 0 -7.958 c -0.542 -2.042 -0.958 -2.167 -5.792 -2.25 c -4.542 -0.042 -5.04 0.125 -5.458 1.833 c -0.792 3.042 -1.167 6.25 -0.792 6.708 c 0.667 0.75 2.333 1.333 6.292 2.042 c 4.583 0.875 5.125 0.833 5.75 -0.375 m 16.208 -0.375 c 0.875 -0.708 1 -1.083 0.958 -2.958 c 0 -3.292 -0.542 -5.458 -1.542 -6.25 c -0.75 -0.625 -1.375 -0.708 -4.167 -0.583 c -3.917 0.167 -4.875 0.75 -4.875 3 c 0 0.75 -0.25 2.042 -0.542 2.875 c -0.625 1.75 -0.333 2.75 1.125 3.875 c 0.875 0.708 1.5 0.833 4.542 0.833 c 2.958 0 3.625 -0.125 4.5 -0.792 m -44.25 -10.5 l 2.042 -0.25 l -0.208 -3.042 c -0.292 -4.542 -0.917 -6.667 -2.125 -7.208 c -1.125 -0.5 -20.08 -0.625 -21.792 -0.167 c -1.375 0.417 -1.708 1.167 -2.167 5.04 c -0.458 4.208 -0.25 5.417 1.083 5.625 c 1.708 0.25 21 0.25 23.17 0 m 46.25 -4.583 c 2 -1.125 1.208 -5.708 -1.125 -6.542 c -2.375 -0.833 -12.25 -1.208 -19.17 -0.792 c -8.08 0.542 -8.792 0.667 -9.208 1.708 c -0.5 1.292 -0.833 4.917 -0.5 5.417 c 0.5 0.708 2.292 0.792 16.08 0.75 c 9.667 -0.042 13.333 -0.208 13.917 -0.542 m -46.583 -11.792 l 2.083 -0.292 l -0.042 -3.208 c -0.042 -4.083 -0.583 -5.875 -2.167 -6.75 c -1.042 -0.542 -2.375 -0.625 -10.5 -0.625 c -5.125 0.042 -9.958 0.167 -10.75 0.333 c -1.833 0.333 -2.042 0.917 -2.375 6.25 l -0.292 4.167 l 1.292 0.208 c 2.875 0.5 18.542 0.417 22.75 -0.083 m 46.46 -0.917 c 0.833 -0.583 1 -0.958 1 -2.208 c 0 -3.375 -1.417 -4.125 -8.708 -4.542 c -2.833 -0.167 -5.583 -0.5 -6.125 -0.75 c -0.542 -0.25 -1.25 -1 -1.542 -1.667 c -0.292 -0.667 -0.833 -1.25 -1.292 -1.292 c -0.875 -0.125 -11.375 5.208 -12.667 6.417 c -0.875 0.833 -1.042 2.5 -0.292 3.5 c 0.708 1 5.5 1.333 17.917 1.25 c 9.5 -0.042 10.792 -0.125 11.708 -0.708 m -37.583 -22.13 c 0.583 -0.25 0.667 -0.583 0.458 -2 c -0.125 -0.917 -0.542 -2.417 -0.958 -3.333 l -0.708 -1.625 l -2.958 -0.25 c -1.583 -0.167 -6 -0.208 -9.75 -0.125 c -7.708 0.208 -6.958 -0.125 -8.583 3.875 c -0.833 2 -0.833 2.25 -0.292 2.792 c 0.333 0.333 1.333 0.75 2.208 0.917 c 2.083 0.333 19.625 0.167 20.583 -0.25 m 29.08 -0.042 c 0.292 -0.25 -0.667 -5.917 -1.083 -6.333 c -0.625 -0.625 -4.208 -0.958 -10.875 -1 c -7.875 -0.042 -9.958 0.208 -10.667 1.292 c -0.75 1.167 -1.292 4.333 -0.875 5.375 c 0.292 0.833 0.542 0.875 4.417 1 c 4.417 0.125 18.833 -0.125 19.08 -0.333 m -73.54 -5.292 c 4 -0.667 4.708 -1 5.083 -2.333 c 0.333 -1.375 -0.542 -1.917 -3.583 -2.25 c -3.583 -0.375 -15.5 0.375 -16.292 1.042 c -1.792 1.5 -1.208 3.958 1.083 4.25 c 2.083 0.292 10.167 -0.125 13.708 -0.708 m 44.17 -7.875 c 1.208 -1.375 1.167 -2.375 -0.125 -3.208 c -0.875 -0.583 -2.125 -0.708 -8.667 -0.792 c -11.5 -0.208 -14.208 0.417 -14.208 3.375 c 0 0.625 0.292 1.25 0.667 1.5 c 0.417 0.25 4.083 0.375 11.04 0.292 l 10.375 -0.125"/><path d="m 55.08 84.92 c -1.083 -1.167 -0.542 -2.458 1.542 -3.792 c 2.25 -1.458 4.5 -3.625 5.625 -5.375 c 0.458 -0.75 1.125 -1.583 1.458 -1.875 c 0.333 -0.292 0.625 -0.708 0.625 -1 c 0 -0.292 0.583 -1.75 1.333 -3.25 c 0.708 -1.542 1.333 -3 1.333 -3.25 c 0 -0.542 1.458 -1.667 2.208 -1.667 c 0.333 0 1.208 0.708 2 1.542 l 1.458 1.542 l 25.458 -0.125 c 25.375 -0.083 25.417 -0.083 26.25 -0.917 c 1.167 -1.125 0.667 -2.25 -1.5 -3.333 c -2.667 -1.333 -4.917 -3.125 -5.75 -4.5 c -0.917 -1.5 -0.958 -1.917 -0.125 -2.75 c 1.292 -1.292 3.833 0.083 10.708 5.667 c 1.958 1.583 3.667 2.875 3.833 2.875 c 0.125 0 0.792 0.5 1.5 1.125 c 0.667 0.583 1.667 1.208 2.25 1.333 c 0.542 0.167 12.458 0.417 26.458 0.583 c 31.25 0.417 32.708 0.458 33.5 1.292 c 0.542 0.5 0.542 0.792 0.167 2.125 c -0.375 1.208 -1.5 2.458 -5.958 6.5 c -6.667 6.125 -8.208 7.167 -10.25 7.167 c -1.708 0 -2.333 -0.292 -2.458 -1.125 c -0.208 -1.333 0.083 -1.833 1.5 -2.792 c 2.125 -1.375 6.458 -5.542 6.458 -6.167 c 0 -1.042 -1.792 -1.375 -9.04 -1.75 c -11.417 -0.583 -103.79 -0.125 -105.17 0.542 c -0.542 0.25 -1.5 1.25 -2.125 2.208 c -2.083 3.167 -5.25 6.833 -7.083 8.167 c -2.375 1.75 -5.125 2.167 -6.208 1"/></g></svg>