<svg xmlns="http://www.w3.org/2000/svg" viewBox="0 0 24 24" xmlns:xlink="http://www.w3.org/1999/xlink"><defs><path id="0" d="m 5.957 15.91 v -2.121 h 1.688 v -0.848 h -0.844 v -0.852 h -0.844 v -0.848 h 1.688 v 0.848 h 0.844 v -0.848 h 3.375 v 0.848 h 0.844 v -1.695 h -0.844 v -1.695 h -0.844 v -1.699 h 0.844 v -0.848 h 0.844 v 0.848 h -0.844 v 1.699 h 1.688 v -2.547 h 4.223 v 5.09 h -0.844 v -0.848 h -1.687 v 0.848 h 0.844 v 2.547 h 0.844 v 1.695 h 0.844 v 2.547 h -0.844 v -0.848 h -1.687 v 0.848 h -0.848 v -0.848 h 0.848 v -0.852 h 0.844 v -0.848 h -0.844 v -0.848 h 0.844 v -0.848 h -1.691 v 0.848 h -1.688 v 0.848 h 1.688 v 0.848 h -0.844 v 0.852 h -2.531 v -0.852 h -0.844 v 1.699 h -4.219 m 3.375 -2.121 v -1.273 h -2.531 v 2.547 h 2.531 m -1.688 -1.273 v -0.426 h 0.844 v 0.848 h -0.844 m 4.219 -1.27 v -0.426 h 0.844 v -0.848 h 0.844 v -0.848 h 1.691 v -1.699 h -0.848 v -0.848 h -0.844 v -0.848 h -0.844 v 0.848 h 0.844 v 1.695 h -0.844 v 0.852 h -1.688 v -0.852 h -2.531 v 0.852 h 0.844 v 0.848 h 1.688 v 1.695 h 0.844 m 5.066 -7.211 v -1.273 h -2.535 v 2.547 h 2.535 m -1.691 -1.273 v -0.426 h 0.848 v 0.852 h -0.848 m 1.691 3.816 v -0.426 h 0.844 v 0.852 h -0.844 m -10.977 -4.668 v -2.121 h 4.223 v 3.395 h 0.844 v 0.848 h -5.066 m 3.379 -2.121 v -1.273 h -2.531 v 2.547 h 2.531 m -1.688 -1.273 v -0.426 h 0.844 v 0.852 h -0.844" fill="#e6c0c0"/></defs><path d="m 0.352 9.504 c 1.859 -12.363 20.363 -12.734 23.16 -0.715 c 2.879 9.73 -7.547 17.684 -15.34 14.496 c -5.223 -1.504 -9.438 -7.672 -7.82 -13.781" fill="#cf4f4f"/><use xlink:href="#0"/><use xlink:href="#0"/><use xlink:href="#0"/><use xlink:href="#0"/><use xlink:href="#0"/><use xlink:href="#0"/><use xlink:href="#0"/><use xlink:href="#0"/></svg>