<svg xmlns="http://www.w3.org/2000/svg" viewBox="0 0 24 24"><path d="m 0.258 6.676 c -2.379 34.35 43.531 9.844 13.301 -5.629 c -4.656 -2.145 -11.605 -0.867 -13.301 5.629" fill="#d41919"/><path d="m 6.602 18.406 c -0.234 -0.047 -0.43 -0.281 -0.398 -0.484 c 0.035 -0.246 0.332 -0.363 0.922 -0.363 c 0.723 0 0.754 -0.055 0.754 -1.328 v -0.996 c -0.273 -0.117 -0.586 -0.145 -0.848 -0.148 c -0.492 0 -0.609 -0.094 -0.609 -0.48 c 0 -0.379 0.203 -0.473 1.078 -0.484 c 0.52 -0.004 0.828 -0.043 0.891 -0.102 c 0.125 -0.121 0.156 -2.879 0.035 -2.996 c -0.059 -0.055 -0.172 -0.039 -0.383 0.055 c -0.477 0.207 -0.59 0.102 -0.656 -0.609 c -0.051 -0.543 -0.043 -0.594 0.113 -0.715 c 0.09 -0.074 0.262 -0.133 0.383 -0.133 c 0.375 0 0.457 -0.156 0.457 -0.914 c 0 -0.645 -0.012 -0.688 -0.23 -0.93 c -0.293 -0.324 -0.293 -0.504 0 -0.789 c 0.125 -0.121 0.23 -0.297 0.23 -0.387 c 0 -0.16 0.461 -0.66 0.977 -1.066 c 0.191 -0.148 0.25 -0.254 0.25 -0.445 c 0 -0.539 0.723 -0.805 1.172 -0.426 c 0.082 0.07 0.133 0.219 0.133 0.387 c 0 0.234 0.047 0.309 0.309 0.496 c 0.523 0.371 0.996 0.852 0.996 1.01 c 0.051 0.195 0.238 0.305 0.336 0.461 c 0.176 0.289 0.184 0.328 0.078 0.523 c -0.105 0.199 -0.102 0.23 0.043 0.41 c 0.164 0.168 0.145 0.422 0.27 0.59 c 0.285 0.371 -0.02 1.07 -0.52 1.188 c -0.199 0.047 -0.215 0.074 -0.191 0.352 c 0.023 0.293 0.035 0.305 0.484 0.484 c 0.355 0.191 0.793 0.141 1.148 0.285 c 0.188 0.078 0.266 0.074 0.441 -0.012 c 0.273 -0.133 0.406 -0.055 1.141 0.648 c 0.625 0.598 0.902 0.832 0.996 0.832 c 0.387 0.152 0.66 0.484 1.09 0.578 c 0.352 0.066 1.277 0.621 1.406 0.844 c 0.063 0.105 0.18 0.289 0.262 0.414 c 0.563 1.016 0.586 2.113 -0.051 3.03 c -0.598 0.762 -0.844 0.828 -1.602 1.23 l -5.371 0.016 c -2.953 0.004 -5.445 -0.004 -5.535 -0.023 m 7.492 -1.664 c 0 -0.117 -0.191 -0.348 -0.422 -0.219 c -0.285 0.16 -0.531 0.387 -0.805 0.137 c -0.289 -0.266 -0.355 -0.238 -0.574 -0.078 c -0.313 0.23 -0.234 0.227 0.164 0.664 c 0.223 0.246 0.496 0.52 0.574 0.52 c 0.395 -0.281 0.816 -0.605 1.063 -1.023 m -1.996 0.691 c 0 -0.07 -0.496 -0.613 -1.102 -1.211 c -1.082 -1.063 -1.105 -1.082 -1.484 -1.117 c -0.688 -0.063 -0.711 -0.023 -0.711 1.148 c 0 0.559 0.035 1.078 0.078 1.16 c 0.074 0.137 0.176 0.145 1.648 0.145 c 1.422 0 1.57 -0.012 1.57 -0.125 m 5.199 -0.008 c 0.484 -0.16 1.074 -0.625 1.141 -0.902 c 0.254 -0.516 0.355 -1.145 0.105 -1.648 c -0.211 -0.391 -0.746 -0.879 -1.133 -1.027 c -0.387 -0.148 -1.055 -0.121 -1.496 0.063 l -0.293 0.125 l 0.125 0.23 c 0.207 0.395 -0.035 0.82 -0.469 0.82 c -0.328 0.012 -0.547 0.281 -0.77 0.422 c -0.477 0.297 -0.516 0.449 -0.184 0.691 c 0.285 0.203 0.313 0.582 0.066 0.906 c -0.316 0.418 -0.219 0.453 1.215 0.449 c 1.012 0 1.375 -0.027 1.691 -0.129 m -4.109 -1.16 c 0.051 -0.145 0.012 -1 -0.047 -1.094 c -0.07 -0.113 -1.195 -0.113 -1.195 -0.004 c 0 0.082 1.066 1.168 1.16 1.184 c 0.027 0.004 0.066 -0.035 0.082 -0.086 m -1.672 -1.898 c 0.105 -0.039 0.121 -0.227 0.121 -1.34 c 0 -0.941 -0.023 -1.313 -0.094 -1.363 c -0.699 -0.098 -0.906 -0.32 -1.5 -0.434 c -0.141 -0.027 -0.305 -0.129 -0.375 -0.23 c -0.109 -0.168 -0.109 -0.215 0.051 -0.625 c 0.184 -0.48 0.133 -0.754 -0.145 -0.754 c -0.227 0 -0.305 0.16 -0.328 0.676 c -0.023 0.441 -0.043 0.496 -0.254 0.629 l -0.23 0.148 l 0.012 1.539 c 0.004 0.844 0.016 1.578 0.02 1.629 c 0.004 0.066 0.344 0.098 1.293 0.113 c 0.707 0.016 1.289 0.031 1.297 0.039 c 0.008 0.012 0.066 0 0.133 -0.027 m 4.453 -1.453 c 0.145 0 0.285 -0.027 0.309 -0.066 c 0.055 -0.086 -0.324 -0.398 -0.641 -0.527 c -0.211 -0.086 -0.277 -0.082 -0.496 0.035 c -0.313 0.164 -1.047 0.129 -1.262 -0.063 c -0.078 -0.07 -0.27 -0.125 -0.43 -0.125 c -0.438 0.004 -0.781 -0.324 -1.195 -0.34 c -0.105 0.063 -0.105 2.266 0 2.297 c 0.711 0.031 1.254 0.016 2 0.012 c 0.449 -0.605 1.051 -1.195 1.711 -1.223 m -0.969 -1.141 c 0.023 -0.176 -0.004 -0.207 -0.168 -0.207 c -0.113 0 -0.297 -0.094 -0.43 -0.223 c -0.355 -0.34 -0.395 -0.313 -0.5 0.344 l -0.047 0.305 l 0.559 -0.004 c 0.453 0.223 0.563 -0.012 0.586 -0.215 m -3.676 -1.656 c 0.047 -0.055 0.063 -0.199 0.039 -0.324 c -0.066 -0.316 0.102 -0.441 0.668 -0.496 c 0.266 -0.027 0.508 -0.094 0.543 -0.145 c 0.109 -0.168 0.066 -0.48 -0.086 -0.613 c -0.082 -0.07 -0.16 -0.219 -0.176 -0.328 c -0.035 -0.297 -0.301 -0.383 -1.184 -0.387 c -0.906 0 -0.871 -0.031 -0.871 0.797 c 0 0.523 0.016 0.574 0.223 0.762 c 0.262 0.191 0.215 0.613 0.469 0.742 c 0.184 0.078 0.289 0.094 0.375 -0.008 m -0.238 -1.434 c -0.133 -0.285 0.023 -0.559 0.32 -0.559 c 0.383 0 0.582 0.488 0.277 0.691 c -0.191 0.125 -0.508 0.059 -0.598 -0.133 m 0.836 -1.859 c 0.02 -0.02 -0.188 -0.258 -0.469 -0.531 l -0.504 -0.488 c -0.449 0 -0.898 0 -1.344 0 l -0.441 0.379 c -0.441 0.379 -0.559 0.637 -0.313 0.68 c 0.898 -0.113 2.238 0.207 3.07 -0.039 m -8.301 5.078 c -0.129 -0.055 -0.32 -0.105 -0.426 -0.105 c -0.293 -0.004 -0.383 -0.141 -0.383 -0.582 c 0 -0.637 0.293 -0.813 1.039 -0.613 c 0.457 0.121 0.574 0.258 0.574 0.66 c -0.004 0.656 -0.285 0.879 -0.805 0.641 m 1.727 -0.895 c -0.152 -0.09 -0.078 -0.383 0.133 -0.539 c 0.254 -0.18 0.676 -0.398 0.777 -0.398 c 0.109 0 0.621 0.73 0.621 0.895 c 0 0.172 -0.676 0.68 -0.91 0.68 c -0.32 -0.117 -0.383 -0.402 -0.621 -0.637" fill="#fff"/></svg>