<svg xmlns="http://www.w3.org/2000/svg" viewBox="0 0 24 24"><defs><linearGradient id="1" gradientUnits="userSpaceOnUse" x1="152.67" y1="-49.861" x2="170.33" y2="-44.734" gradientTransform="matrix(-0.8102 0.19667 0.19799 0.8102 300.26 -45.645)"><stop stop-color="#f4f4f4"/><stop offset="1" stop-color="#f4f4f4" stop-opacity="0"/></linearGradient><radialGradient id="0" gradientUnits="userSpaceOnUse" cx="15.636" cy="10.22" r="13.13" gradientTransform="matrix(0.643 -0.11895 0.0884 0.514 0.608 0.948)"><stop stop-color="#ffefff"/><stop offset="1" stop-color="#ffc8ff"/></radialGradient></defs><path d="m 2.293 18.367 c -13.06 -23.855 34.645 -24.98 18.227 -0.391 c -4.336 6.328 -14.711 9.414 -18.227 0.391" fill="#ffd2bf"/><path d="m 5.973 13.195 c 0.023 -0.039 0.059 -0.074 0.121 -0.102 c 0.02 -0.145 0.063 -0.27 0.207 -0.32 c 0.063 -0.172 0.133 -0.199 0.199 -0.211 c 0.02 -0.039 0.102 -0.285 0.309 -0.305 c 0.105 -0.277 0.328 -0.258 0.445 -0.074 c 0.105 -0.008 0.215 -0.02 0.301 0.191 c 0.109 0.004 0.188 0.082 0.242 0.25 c 0.133 0.039 0.188 0.141 0.203 0.273 c 0.172 0.074 0.18 0.301 0.184 0.371 c 0.086 0.074 0.152 0.164 0.102 0.391 c 0.121 0.109 0.086 0.242 0.055 0.375 c 0.41 -0.262 0.863 -0.43 1.551 -0.039 l 0.121 -0.004 c 0.484 -0.293 1.512 -0.223 1.859 0.766 c 0.188 0.156 0.305 0.309 0.438 0.461 c 0.625 0.465 0.633 1.227 0.59 1.402 c 0.047 0.316 0.078 0.648 0.02 1.035 c 0.145 0.477 0.086 0.875 -0.09 1.207 c 0 0.008 -0.004 0.012 -0.008 0.016 c -0.172 0.336 -0.461 0.602 -0.926 0.738 c -0.281 0.262 -0.563 0.414 -0.848 0.547 c -0.117 0.133 -0.734 0.543 -1.453 0.254 c -0.195 -0.031 -0.383 -0.051 -0.613 -0.129 c -0.988 0.242 -1.602 -0.613 -1.633 -1.191 l -0.066 -0.109 c -0.688 -0.387 -0.797 -0.871 -0.813 -1.367 c -0.09 0.098 -0.176 0.203 -0.336 0.156 c -0.152 0.168 -0.262 0.16 -0.367 0.125 c -0.063 0.035 -0.246 0.152 -0.398 0.043 c -0.117 0.063 -0.23 0.066 -0.336 -0.027 c -0.164 0.043 -0.27 0.02 -0.332 -0.074 c -0.215 0.039 -0.266 -0.059 -0.32 -0.156 c -0.215 0 -0.348 -0.184 -0.184 -0.43 c -0.094 -0.188 0.059 -0.395 0.078 -0.43 c -0.027 -0.066 -0.043 -0.141 0.063 -0.289 c -0.039 -0.152 0.039 -0.262 0.145 -0.355 c -0.035 -0.203 0.102 -0.246 0.191 -0.336 c 0.035 -0.199 0.129 -0.199 0.203 -0.266 c 0.059 -0.207 0.172 -0.219 0.305 -0.258 l 0.055 -0.105 c 0.305 -0.191 0.703 -0.148 0.898 -0.105 c -0.141 -0.145 -0.395 -0.465 -0.406 -0.84 l 0.055 -0.102 c -0.039 -0.137 -0.094 -0.242 0.043 -0.406 c 0.012 -0.102 -0.039 -0.184 0.102 -0.324 c 0.016 -0.082 0.004 -0.172 0.047 -0.246"/><g fill="#75a928"><path d="m 6.969 13.03 c -0.016 0.953 0.059 1.559 0.188 1.941 c 0.535 0.141 0.891 -0.484 0.996 -0.723 c -0.043 0.035 -0.09 0.063 -0.137 0.051 c -0.012 -0.078 0.133 -0.266 0.129 -0.453 c -0.039 0.047 -0.063 0.066 -0.117 0.07 c 0.031 -0.16 0.07 -0.324 0.047 -0.453 c -0.023 0.051 -0.039 0.098 -0.109 0.137 c 0 -0.16 0.016 -0.316 -0.027 -0.473 c -0.035 0.063 -0.07 0.129 -0.102 0.137 c -0.008 -0.148 -0.031 -0.285 -0.074 -0.41 c -0.035 0.098 -0.063 0.129 -0.09 0.141 c -0.039 -0.129 -0.055 -0.277 -0.129 -0.387 c -0.012 0.078 -0.035 0.145 -0.09 0.168 c -0.051 -0.063 -0.023 -0.207 -0.129 -0.359 c -0.031 0.07 -0.063 0.148 -0.082 0.156 c -0.109 -0.102 -0.152 -0.199 -0.199 -0.293 c -0.078 0.148 -0.191 0.371 -0.199 0.355 l -0.043 -0.141 c -0.113 0.121 -0.145 0.293 -0.172 0.418 c -0.059 0.031 -0.082 -0.047 -0.098 -0.133 c -0.047 0.133 -0.078 0.262 -0.094 0.383 c -0.074 0.027 -0.074 -0.09 -0.098 -0.156 c -0.066 0.207 -0.059 0.316 -0.051 0.422 c -0.086 0.027 -0.102 -0.051 -0.129 -0.117 c -0.023 0.172 0.004 0.281 0.027 0.398 c -0.047 0.008 -0.094 0.031 -0.148 -0.063 c 0.004 0.133 0.027 0.246 0.074 0.344 c -0.07 0.043 -0.113 -0.012 -0.16 -0.039 c 0.027 0.152 0.082 0.27 0.125 0.398 c -0.02 0.012 -0.066 0.004 -0.137 -0.02 c 0.105 0.383 0.512 1.074 1.016 0.688 c -0.121 -0.633 -0.102 -1.301 0.012 -1.988"/><path d="m 4.898 16.996 c 0.762 -0.539 1.289 -0.805 1.672 -0.898 c 0.406 0.387 0.094 1.035 -0.039 1.258 c 0.004 -0.059 0 -0.113 -0.035 -0.148 c -0.07 0.035 -0.141 0.262 -0.293 0.363 c 0.016 -0.063 0.02 -0.094 -0.008 -0.141 c -0.113 0.113 -0.227 0.238 -0.34 0.285 c 0.023 -0.047 0.059 -0.082 0.047 -0.168 c -0.125 0.086 -0.246 0.188 -0.395 0.234 c 0.031 -0.063 0.066 -0.129 0.055 -0.164 c -0.125 0.074 -0.246 0.129 -0.371 0.16 c 0.059 -0.082 0.07 -0.125 0.066 -0.152 c -0.129 0.035 -0.254 0.105 -0.387 0.098 c 0.059 -0.055 0.098 -0.109 0.09 -0.172 c -0.078 -0.004 -0.18 0.098 -0.363 0.086 c 0.043 -0.066 0.09 -0.133 0.082 -0.156 c -0.145 -0.039 -0.242 -0.023 -0.344 -0.012 c 0.074 -0.148 0.195 -0.371 0.176 -0.367 l -0.137 0.039 c 0.039 -0.164 0.16 -0.289 0.246 -0.379 c -0.012 -0.066 -0.082 -0.043 -0.16 -0.012 c 0.078 -0.113 0.164 -0.211 0.254 -0.289 c -0.02 -0.082 -0.109 -0.02 -0.18 0 c 0.133 -0.172 0.223 -0.227 0.316 -0.277 c -0.023 -0.086 -0.098 -0.059 -0.164 -0.047 c 0.125 -0.113 0.227 -0.148 0.336 -0.191 c -0.023 -0.047 -0.027 -0.102 -0.133 -0.098 c 0.109 -0.07 0.215 -0.109 0.32 -0.125 c -0.008 -0.082 -0.074 -0.086 -0.121 -0.113 c 0.137 -0.059 0.262 -0.078 0.391 -0.113 c -0.004 -0.02 -0.035 -0.059 -0.094 -0.105 c 0.367 -0.121 1.148 -0.145 1.113 0.508 c -0.578 0.242 -1.105 0.625 -1.602 1.098"/></g><g fill="#bb1142"><path d="m 10.258 18.613 c 0.285 0.16 0.641 0.141 0.926 -0.059 c 0.289 -0.195 0.469 -0.539 0.469 -0.898 c 0.004 -0.359 -0.172 -0.676 -0.457 -0.836 c -0.285 -0.16 -0.637 -0.141 -0.926 0.059 c -0.289 0.195 -0.469 0.539 -0.469 0.898 c -0.004 0.359 0.172 0.676 0.457 0.836"/><path d="m 8.723 15.922 c 0.043 0.504 0.539 0.867 1.109 0.816 c 0.57 -0.055 1 -0.504 0.961 -1 c -0.039 -0.504 -0.535 -0.871 -1.109 -0.816 c -0.57 0.051 -1 0.5 -0.961 1"/><path d="m 8.16 16.898 c 0.426 -0.238 0.992 -0.008 1.262 0.52 c 0.27 0.523 0.145 1.145 -0.285 1.383 c -0.43 0.238 -0.992 0.008 -1.266 -0.516 c -0.27 -0.527 -0.141 -1.145 0.289 -1.387"/><path d="m 10.07 14.281 c -0.313 0.344 1.527 1.035 1.559 0.629 c -0.09 -0.516 -0.844 -1.086 -1.559 -0.629"/><path d="m 7.637 18.898 c 0.105 -0.457 1.668 0.762 1.359 1.012 c -0.465 0.203 -1.34 -0.141 -1.359 -1.012"/><path d="m 7.082 16.828 c -0.477 0.629 -0.379 1.426 0.355 1.809 c 0.289 0.133 -0.184 -2.039 -0.355 -1.809"/><path d="m 8.05 14.906 c 0.25 -0.754 0.945 -1.109 1.656 -0.68 c 0.266 0.18 -1.746 0.957 -1.656 0.68"/><path d="m 7.371 15.805 c 0.203 -0.418 0.715 -0.645 0.895 -0.547 c 0.215 0.121 0.266 0.574 0.016 1.063 c -0.254 0.496 -0.602 0.715 -0.824 0.59 c -0.254 -0.141 -0.281 -0.742 -0.086 -1.105"/><path d="m 11.773 18.309 c -0.203 0.352 -0.328 0.906 -0.16 1 c 0.16 0.098 0.758 -0.137 0.977 -0.57 c 0.25 -0.434 0.109 -1.078 -0.023 -1.145 c -0.184 -0.113 -0.617 0.352 -0.793 0.715"/><path d="m 11.469 16.422 c 0.164 0.422 0.625 0.832 0.891 0.703 c 0.223 -0.137 0.43 -0.652 0.129 -1.273 c -0.281 -0.465 -0.711 -0.664 -0.918 -0.566 c -0.273 0.164 -0.277 0.656 -0.102 1.137"/><path d="m 10.02 18.973 c 0.457 -0.102 1.105 0.066 1.184 0.371 c 0.043 0.273 -0.246 0.781 -0.961 0.875 c -0.488 0.086 -1.016 -0.328 -1.086 -0.574 c -0.051 -0.336 0.352 -0.547 0.863 -0.672"/></g><path d="m 13.195 7.695 c -0.488 2.086 -2.188 3.449 -3.789 3.047 c -1.605 -0.406 -2.508 -2.426 -2.02 -4.512 c 0.488 -2.086 2.188 -3.449 3.789 -3.043 c 1.605 0.406 2.508 2.422 2.02 4.508" fill="#faf"/><path d="m 11.203 3.273 c -1.227 -0.309 -2.512 0.426 -3.266 1.723 c 0.73 -0.5 1.566 -0.707 2.391 -0.5 c 1.676 0.422 2.676 2.395 2.406 4.551 c 0.211 -0.379 0.379 -0.805 0.488 -1.262 c 0.488 -2.086 -0.414 -4.105 -2.02 -4.512" fill="#f48ceb"/><path d="m 21.309 9.852 c -0.488 2.086 -2.188 3.449 -3.789 3.047 c -1.605 -0.406 -2.508 -2.426 -2.02 -4.512 c 0.488 -2.086 2.188 -3.449 3.789 -3.043 c 1.605 0.402 2.508 2.422 2.02 4.508" fill="#ffc8ff"/><path d="m 19.297 5.461 c -1.602 -0.406 -3.301 0.957 -3.789 3.043 c -0.043 0.172 -0.066 0.348 -0.09 0.52 c 0.102 -0.227 0.211 -0.441 0.332 -0.645 c -0.008 0.031 -0.012 0.059 -0.02 0.09 c -0.316 1.336 -0.078 2.648 0.531 3.57 c 0.98 -0.605 1.723 -1.555 2 -2.746 c 0.223 -0.941 0.121 -1.902 -0.234 -2.758 c 0.449 -0.121 0.922 -0.129 1.383 -0.012 c 0.887 0.223 1.586 0.887 2.01 1.773 c -0.168 -1.398 -0.961 -2.543 -2.121 -2.836" fill="#faf"/><path d="m 17.898 9.168 c -0.555 2.348 -3.01 3.746 -5.484 3.121 c -2.477 -0.625 -4.04 -3.039 -3.484 -5.387 c 0.551 -2.348 3.01 -3.746 5.484 -3.121 c 2.48 0.629 4.04 3.039 3.488 5.387" fill="url(#0)"/><path d="m 10.441 10.855 c -0.703 0.18 -1.348 0.586 -2.117 0.527 c 0.109 -0.398 1.066 -1.125 1.648 -1.699 c 0.383 0.211 0.535 0.738 0.469 1.172" fill="#f4f4f4"/><path d="m 11.05 9.02 l -0.836 2.973 l -0.707 4.04 c 0.379 0.418 1.074 0.582 1.594 0.402 c 0.719 -2.113 1.789 -4.41 2.914 -6.527 c -0.063 -1 -2.254 -2.488 -2.965 -0.891" fill="#ffc8ff"/><path d="m 13.602 8.984 c -1.246 2.41 -2.43 5.02 -3.238 7.422 c 0.266 0.051 0.531 0.039 0.77 -0.043 c 0.715 -2.113 1.785 -4.41 2.914 -6.527 c -0.02 -0.273 -0.188 -0.578 -0.445 -0.852" fill="#faf"/><g fill="#f4f4f4"><path d="m 13.922 11.977 c 0.258 0.699 0.309 1.48 0.793 2.102 c 0.254 -0.324 0.281 -1.551 0.402 -2.375 c -0.422 -0.184 -0.879 -0.098 -1.195 0.273"/><path d="m 15.758 7.734 c -0.121 0.516 -0.609 0.832 -1.094 0.711 c -0.48 -0.121 -0.773 -0.637 -0.652 -1.152 c 0.121 -0.512 0.609 -0.832 1.09 -0.707 c 0.484 0.121 0.773 0.637 0.656 1.148"/></g><path d="m 14.973 7.816 c -0.043 0.176 -0.211 0.285 -0.375 0.246 c -0.164 -0.043 -0.266 -0.219 -0.223 -0.395 c 0.039 -0.18 0.207 -0.289 0.375 -0.246 c 0.164 0.043 0.266 0.219 0.223 0.395"/><path d="m 14.797 11.609 c -0.023 0 -0.043 -0.004 -0.066 -0.004 c 0.02 0.762 0.098 1.664 0.066 2.316 c 0.18 -0.457 0.211 -1.492 0.316 -2.219 c -0.105 -0.047 -0.211 -0.082 -0.316 -0.094" fill="#d6d6d6"/><path d="m 155.61 -69.37 c 1.643 -0.399 3.269 -0.407 4.785 -0.081 c 0.644 -0.545 1.389 -0.952 2.227 -1.156 c 3.472 -0.838 7.156 1.994 8.215 6.34 c 0.965 3.955 -0.567 7.789 -3.472 9.08 c 0.72 0.643 1.321 1.237 1.44 1.66 c -1.397 0.098 -2.617 -0.488 -3.87 -0.895 c -0.22 0.212 -0.457 0.407 -0.686 0.602 l 0.449 1.554 l 1.524 8.432 c -0.821 0.879 -2.329 1.213 -3.455 0.838 c -0.965 -2.751 -2.236 -5.64 -3.65 -8.497 c -0.932 0.146 -1.846 0.187 -2.744 0.098 c -0.347 1.205 -0.584 2.45 -1.431 3.483 c -0.449 -0.553 -0.559 -2.336 -0.728 -3.907 c -0.728 -0.228 -1.406 -0.553 -2.041 -0.928 c -0.813 1.172 -1.939 2.035 -3.303 2.368 c -3.481 0.846 -7.156 -1.994 -8.223 -6.34 c -1.059 -4.346 0.898 -8.554 4.378 -9.4 c 1.533 -0.374 3.108 -0.024 4.472 0.846 c 1.38 -1.953 3.506 -3.467 6.114 -4.102" transform="matrix(-0.46125 0 0 0.47996 86.19 37.1)" fill="none" stroke="#bc3caf" stroke-linejoin="round" stroke-width="0.685"/><path d="m 10.43 6.246 c -0.121 0.516 0.172 1.031 0.652 1.152 c 0.48 0.121 0.969 -0.195 1.09 -0.711 c 0.121 -0.512 -0.172 -1.027 -0.652 -1.148 c -0.48 -0.125 -0.969 0.195 -1.09 0.707" fill="#f4f4f4"/><path d="m 11.09 6.695 c -0.039 0.18 0.063 0.355 0.227 0.398 c 0.164 0.039 0.332 -0.07 0.375 -0.246 c 0.043 -0.176 -0.059 -0.352 -0.227 -0.395 c -0.164 -0.043 -0.332 0.066 -0.375 0.242"/><path d="m 155.8 -68.908 c 1.575 -0.383 3.244 -0.423 4.7 -0.114 c 0.61 -0.521 1.321 -0.903 2.117 -1.099 c 3.328 -0.806 6.851 1.904 7.868 6.06 c 0.923 3.784 -0.754 7.398 -3.531 8.643 c 0.686 0.61 1.186 1.172 1.296 1.579 c -1.338 0.09 -2.219 -0.602 -3.421 -1 c -0.203 0.203 -0.805 0.757 -1.033 0.944 l 0.5 1.856 l 1.524 8.122 c -0.881 0.57 -1.685 1.058 -2.761 0.692 c -0.932 -2.629 -2.439 -5.884 -3.786 -8.619 c -0.889 0.146 -2.431 0.073 -3.286 -0.008 c -0.339 1.148 -0.203 2.23 -0.999 3.215 c -0.212 -0.749 -0.161 -1.978 -0.322 -3.491 c -0.694 -0.212 -2.049 -0.814 -2.659 -1.172 c -0.771 1.123 -1.838 2.214 -3.142 2.531 c -3.328 0.806 -6.8 -1.921 -7.817 -6.08 c -1.016 -4.151 0.686 -7.992 4.01 -8.798 c 1.465 -0.358 3.193 -0.008 4.505 0.83 c 1.313 -1.872 3.743 -3.483 6.242 -4.094" transform="matrix(-0.46125 0 0 0.47996 86.19 37.1)" fill="none" stroke="url(#1)" stroke-linejoin="round" stroke-width="0.437"/></svg>