<svg xmlns="http://www.w3.org/2000/svg" viewBox="0 0 24 24"><path d="m 3.03 20.387 c -13.727 -21.12 23.766 -29.3 20.781 -7.566 c -1.219 8.863 -15.527 15.648 -20.781 7.566" fill="#dea118"/><g fill="#959595"><path d="m 9.01 20.41 c -0.059 -0.066 -0.16 -0.121 -0.223 -0.121 c -0.305 0 -1.078 -0.871 -1.457 -1.637 c -0.473 -0.957 -0.652 -1.703 -0.734 -3.03 l -0.063 -1.02 c 0.227 -1.027 -0.016 -0.348 0.375 -1.801 c 0.496 -1.887 1.383 -3.723 2.484 -5.16 c 0.605 -0.789 1.629 -1.852 2.215 -2.301 l 0.496 -0.379 l 2.32 -0.051 c 1.789 -0.039 2.547 -0.098 3.316 -0.246 c 1.184 -0.23 1.641 -0.246 1.832 -0.055 c 0.086 0.086 0.164 0.426 0.203 0.875 c 0.035 0.414 0.145 0.891 0.246 1.094 c 0.234 0.465 0.23 1.234 -0.012 2.145 c -0.102 0.387 -0.188 0.926 -0.188 1.195 c 0 0.27 -0.027 0.746 -0.059 1.059 l -0.059 0.57 l -1.293 0.801 c -1.246 0.777 -1.891 1.082 -3.266 1.555 c -0.359 0.125 -0.703 0.266 -0.77 0.32 c -0.383 0.316 -0.938 -1.371 -0.57 -1.738 c 0.391 -0.391 -0.051 -0.328 -1.609 0.215 c -0.73 0.258 -1.508 0.52 -1.73 0.586 c -1.293 0.379 -2.219 2.824 -1.645 4.34 c 0.207 0.551 0.402 0.77 0.91 1.039 c 0.453 0.242 0.512 0.246 0.781 0.035 c 0.301 -0.176 0.148 -0.297 0.023 -0.578 c -0.242 -0.531 -0.238 -0.82 0.012 -0.992 c 0.277 -0.195 0.684 -0.039 1.012 0.391 c 0.219 0.285 0.262 0.449 0.289 1.055 c 0.027 0.625 0.004 0.762 -0.188 1.043 c -0.309 0.453 -0.93 0.738 -1.813 0.836 c -0.574 0.066 -0.762 0.055 -0.84 -0.043"/><path d="m 19.605 18.09 c -0.41 -1.188 -1.055 -2.492 -1.727 -3.492 c -0.336 -0.5 -0.613 -0.953 -0.613 -1.01 c 0 -0.055 0.129 -0.125 0.281 -0.156 c 0.156 -0.031 0.711 -0.289 1.234 -0.57 l 0.949 -0.52 l 0.363 0.574 c 0.156 0.25 -0.316 1.715 -0.27 3.199 c 0.047 1.484 0.074 2.707 0.063 2.719 c -0.008 0.008 -0.137 -0.324 -0.281 -0.746"/></g><path d="m 4.965 14.316 c -0.531 -0.078 -0.816 -0.238 -0.574 -0.324 c 0.074 -0.023 0.582 -0.109 1.129 -0.188 c 1.762 -0.246 2.023 -0.313 2.836 -0.707 c 0.863 -0.418 1 -0.449 1.375 -0.277 c 0.313 0.141 0.305 0.199 -0.055 0.5 c -0.996 0.836 -2.953 1.25 -4.711 0.996" fill="#fff"/><path d="m 10.727 9.621 c -0.164 -0.18 -0.117 -0.379 0.156 -0.664 c 0.215 -0.227 0.418 -0.313 0.617 -0.258 c 0.188 0.055 0.246 0.109 0.285 0.266 c 0.047 0.215 -0.141 0.484 -0.457 0.652 c -0.34 0.18 -0.445 0.18 -0.602 0.004" fill="#191919"/></svg>