<svg xmlns="http://www.w3.org/2000/svg" viewBox="0 0 24 24"><path d="m 19.797 20.555 c 18.922 -24.711 -33.15 -28.22 -16.438 -2.996 c 3.809 5.75 11.426 9.543 16.438 2.996" fill="#000603"/><path d="m 11.5 18.664 c -1.688 -4.938 -3.227 -7.082 -7.117 -9.926 l -0.613 -0.449 l 0.75 0.152 c 2.41 0.488 5.242 2.676 6.168 4.77 c 0.797 1.805 1.066 1.191 0.879 -2.035 c -0.086 -1.551 -0.191 -2.613 -0.273 -2.82 c -0.109 -0.285 -0.84 -1.199 0.344 -0.621 c 0.344 0.168 0.723 -0.066 0.52 -0.27 c -1.336 -1.336 0.27 -2.027 0.422 -2.168 c 0.07 -0.066 1.559 0.836 0.332 2.352 c -0.348 0.43 0.098 0.445 1.77 0.586 c 0.988 0.082 1.883 0.406 1.965 0.535 c 0.738 0.375 1.309 0.633 1.879 1.074 c 1.355 1.066 0.035 3.723 -2.086 4.395 c -2.434 0.77 -3.555 1.207 -0.5 -1.41 c 1.047 -0.902 1.039 -1.047 0.914 -2.18 c -0.16 -1.414 -0.648 -1.52 -2.074 -1.703 l -1.043 -0.133 l -0.16 2.066 c -0.086 1.137 -0.16 3.383 -0.16 4.992 c -0.004 2.707 -0.23 3.777 -0.602 2.813 c -0.086 -0.219 -0.152 -2.641 -0.152 -5.383 c 0 -2.746 0.109 -4.996 -0.203 -4.988 c -0.422 0.008 -0.305 2.516 -0.297 5.434 c 0.008 4.02 0.047 5.188 -0.188 5.27 c -0.172 0.059 -0.387 -0.102 -0.473 -0.352" fill="#558419"/></svg>