<svg xmlns="http://www.w3.org/2000/svg" viewBox="0 0 24 24"><path d="m 21.484 18.395 c 8.527 -12.203 -7.219 -24.566 -17.266 -14.625 c -9.465 9.367 -0.688 23.922 11.09 19.371 c 2.457 -0.949 4.613 -2.508 6.176 -4.746" fill="#689e02"/><path d="m 106.6 220.02 c -35.23 -7.868 -61.945 -28.755 -74.31 -58.15 c -4.084 -9.778 -4.368 -13.02 -3.063 -34.772 l 0.624 -10.472 h 42.37 c 20.989 -0.116 41.921 0 62.796 -1.273 l 1.475 -4.05 c 0.794 -2.256 5.05 -16.489 9.473 -31.705 c 7.942 -27.02 11 -35.466 13.444 -36.45 c 20.762 2.488 42.37 16.836 54.4 29.912 c 11.515 12.613 16.394 22.506 20.819 41.888 c 3.29 14.696 3.46 30.2 0.397 41.31 c -8.282 30.14 -33.36 52.823 -69.15 62.49 c -21.1 3.01 -38.29 5.844 -59.28 1.273" transform="matrix(0.06886 0 0 0.06752 3.245 3.578)" fill="#cdef00" stroke="#a3ce00" stroke-width="2.526"/><path d="m 55.29 114.5 c 0.042 -8.875 1.5 -15.708 4.708 -21.833 c 2.667 -5.083 5.167 -8.417 9.625 -12.75 c 10.417 -10.167 25.917 -17.333 42.708 -19.708 c 5.667 -0.792 13.208 -1.125 18.292 -0.792 c 4.208 0.292 6.583 0.667 7.667 1.25 c 2.167 5 1.458 7.917 2.25 14.292 c 0.083 0.667 -0.458 2.917 -2.125 8.542 c -2.792 9.375 -8 26.08 -9.292 29.917 c -0.958 2.708 -1.042 2.833 -1.875 3.042 c -0.458 0.125 -15.833 0.292 -36.417 0.333 l -35.542 0.125" transform="scale(0.09375)" fill="#009ae3" stroke="#ffd2bf" stroke-width="0.647"/></svg>