<svg xmlns="http://www.w3.org/2000/svg" viewBox="0 0 24 24"><path d="m 22.953 8.199 c 4.66 11.945 -8.395 18.07 -16.52 15.03 c -5.672 -2.125 -8.5 -10.594 -4.473 -17.441 c 5.086 -8.637 17.402 -6.801 20.992 2.414" fill="#45381e"/><path d="m 113.04 200.25 c -3.083 -3.833 -3.5 -5.25 -3.083 -10.333 l 0.5 -5.917 l 29.458 -26.17 c 28.08 -25 29.5 -26.417 29.875 -30.792 c 1.042 -12.667 13.667 -22.917 26.833 -21.833 c 1.958 0.167 3.833 0.667 4.208 1.083 c 0.333 0.417 -2.792 4.375 -6.958 8.792 c -5.75 6.04 -7.458 8.625 -7.04 10.583 c 0.667 3.417 4.25 8.208 7.917 10.625 c 2.875 1.917 3.25 1.75 12 -4.708 l 9.04 -6.708 l -0.042 4.708 c 0 6.792 -2.5 12.417 -7.583 17.04 c -4.583 4.208 -7.542 5.5 -16.04 7.04 c -5.625 1.042 -8.583 3.208 -39.25 29.25 c -11 9.333 -21.875 18.208 -24.21 19.708 c -6.125 3.958 -11.167 3.208 -15.625 -2.375 m 13.625 -2.042 c 3.042 -2.708 3.667 -7.875 1.333 -11.08 c -3.667 -5.083 -13 -2.125 -13.542 4.333 c -0.583 6.958 7.125 11.25 12.208 6.75" transform="scale(0.09375)" fill="#efef63" stroke="#ddbb3b" stroke-width="1.339"/><g fill-rule="evenodd"><path d="m 16.332 5.703 c -0.211 0.023 -0.348 0.121 -0.563 0.238 c -0.211 0.121 -0.461 0.277 -0.715 0.43 c -0.258 0.152 -0.516 0.301 -0.738 0.41 c -0.219 0.113 -0.414 0.176 -0.477 0.18 c -0.297 0.004 -0.535 -0.074 -0.906 -0.164 c -0.371 -0.09 -0.863 -0.188 -1.621 -0.188 c -1.168 0 -2.34 0.414 -3.223 1.203 c -0.887 0.789 -1.48 1.965 -1.48 3.438 c 0 0.68 0.191 1.332 0.477 1.941 c -0.867 0.594 -1.605 1.164 -2.09 1.605 c -0.262 0.238 -0.461 0.441 -0.598 0.609 c -0.07 0.086 -0.121 0.16 -0.164 0.242 c -0.039 0.078 -0.105 0.18 -0.027 0.352 c 0.043 0.094 0.129 0.145 0.188 0.164 c 0.059 0.023 0.105 0.023 0.152 0.023 c 0.09 0 0.176 -0.016 0.281 -0.043 c 0.211 -0.051 0.484 -0.145 0.816 -0.277 c 0.637 -0.246 1.52 -0.648 2.516 -1.129 c 1.012 1.066 2.355 1.805 3.664 1.797 c 1.43 -0.008 2.457 -0.262 3.141 -0.832 c 0.684 -0.57 0.961 -1.438 0.926 -2.508 c -0.016 -0.543 -0.207 -1.164 -0.703 -1.645 c -0.496 -0.48 -1.285 -0.813 -2.438 -0.836 c -0.84 -0.016 -1.785 0.348 -2.539 0.703 c -0.609 0.281 -0.895 0.469 -1.059 0.57 c -0.094 -0.203 -0.207 -0.512 -0.207 -0.969 c 0 -0.52 0.305 -1.121 0.766 -1.59 c 0.465 -0.465 1.078 -0.789 1.617 -0.813 c 0.238 -0.012 0.738 0.055 1.18 0.164 c 0.223 0.055 0.434 0.121 0.594 0.188 c 0.164 0.066 0.285 0.148 0.293 0.156 c 0.035 0.043 0.113 0.176 0.18 0.348 c 0.07 0.168 0.137 0.375 0.207 0.57 c 0.066 0.199 0.137 0.391 0.215 0.547 c 0.039 0.082 0.078 0.152 0.141 0.223 c 0.059 0.066 0.156 0.148 0.297 0.148 c 0.145 0 0.254 -0.102 0.305 -0.176 c 0.047 -0.078 0.074 -0.152 0.098 -0.23 c 0.047 -0.164 0.082 -0.355 0.117 -0.57 c 0.074 -0.434 0.16 -0.953 0.316 -1.336 c 0.156 -0.383 0.543 -0.984 0.867 -1.504 c 0.16 -0.258 0.309 -0.496 0.41 -0.691 c 0.051 -0.098 0.094 -0.184 0.121 -0.273 c 0.012 -0.047 0.023 -0.094 0.023 -0.156 c 0 -0.063 -0.02 -0.164 -0.098 -0.238 l -0.016 -0.016 l -0.016 -0.012 c -0.094 -0.066 -0.176 -0.059 -0.23 -0.055 m -3.84 7.117 c 0.395 -0.004 0.723 0.051 0.914 0.16 c 0.191 0.105 0.277 0.227 0.277 0.52 c 0 0.258 -0.152 0.469 -0.406 0.641 c -0.25 0.168 -0.594 0.266 -0.852 0.262 c -0.895 -0.016 -1.504 -0.262 -1.891 -0.5 c -0.199 -0.117 -0.188 -0.141 -0.273 -0.223 c 0.176 -0.098 0.297 -0.172 0.66 -0.344 c 0.551 -0.262 1.23 -0.512 1.57 -0.516" fill-opacity="0.098"/><path d="m 35.31 12.549 c -0.73 0.079 -4.03 2.49 -5.207 2.561 c -1.444 0.024 -2.214 -0.714 -5.272 -0.714 c -4.607 0 -9.222 3.188 -9.222 8.866 c 0 1.435 0.414 2.839 1.103 4.132 c -3.983 2.617 -6.327 4.901 -6.14 5.281 c 0.178 0.389 3.35 -0.841 7.778 -2.95 c 2.036 2.236 4.899 3.743 7.535 3.727 c 5.807 -0.032 8.04 -2.07 7.908 -6.217 c -0.065 -1.975 -1.387 -4.417 -5.994 -4.504 c -3.139 -0.056 -7.714 2.783 -7.714 2.783 c 0 0 -0.722 -1.158 -0.722 -2.712 c 0 -2.522 2.863 -5.305 5.467 -5.432 c 1.233 -0.056 4.153 0.595 4.721 1.213 c 0.681 0.745 1.176 3.553 1.76 3.553 c 0.519 0 0.503 -2.625 1.233 -4.362 c 0.73 -1.737 3.212 -4.885 2.879 -5.21 c -0.024 -0.016 -0.065 -0.016 -0.114 -0.016 m -8.04 13.362 c 1.744 -0.032 3.03 0.42 3.03 1.919 c 0 1.499 -1.841 2.403 -3.163 2.379 c -3.91 -0.056 -5.467 -2.117 -5.467 -2.117 c 0 0 3.78 -2.157 5.605 -2.181" transform="matrix(0.4816 0 0 0.49258 -1.126 -0.705)" fill="#cdcdcd" stroke="#efef63" stroke-width="1.094"/></g></svg>