<svg xmlns="http://www.w3.org/2000/svg" viewBox="0 0 24 24"><path d="m 21.707 5.633 c 13.06 23.855 -34.645 24.98 -18.227 0.391 c 4.336 -6.324 14.711 -9.414 18.227 -0.391" fill="#d1b38c"/><path d="m 4.602 12.148 c -0.695 -0.023 -1.266 0.457 -1.207 0.965 c -0.008 1.777 -0.031 3.555 -0.031 5.332 c 0.027 0.504 0.687 0.883 1.348 0.844 c 4 0.008 6.387 0.031 10.391 0.031 c 0.684 -0.023 1.16 -0.535 1.082 -1.02 c 0.008 -1.762 0.027 -3.531 0.031 -5.297 c -0.023 -0.508 -0.691 -0.867 -1.348 -0.82 m -9.871 1.156 l 1.602 0.004 l -0.008 1.191 l -1.602 -0.004 m 2.41 -1.184 l 1.602 0.004 l -0.008 1.191 l -1.602 -0.004 m 2.41 -1.184 l 1.602 0.004 l -0.004 1.191 l -1.605 -0.004 m 2.41 -1.184 l 1.605 0.004 l -0.008 1.191 l -1.602 -0.004 m -6.414 0.574 l 1.602 0.004 l -0.004 1.191 l -1.605 -0.008 m 2.41 -1.18 l 1.605 0.004 l -0.008 1.191 l -1.602 -0.008 m 2.41 -1.18 l 1.602 0.004 l -0.008 1.191 l -1.602 -0.008 m 2.41 -1.18 l 1.602 0.004 l -0.008 1.191 l -1.602 -0.008 m -8.02 0.57 l 1.605 0.004 l -0.008 1.191 l -1.602 -0.004 m 2.41 -1.184 l 4.805 0.016 l -0.008 1.188 l -4.805 -0.012 m 5.613 -1.172 l 1.602 0.004 l -0.004 1.188 l -1.605 -0.004" fill="#493922"/><path d="m 12.23 17.215 c -1.473 -0.324 -2.57 -1.09 -3.23 -2.258 c -0.359 -0.629 -0.402 -0.84 -0.387 -2.031 c 0.016 -1.133 -0.016 -1.328 -0.223 -1.328 c -0.777 0 -1.773 -1.105 -1.773 -1.973 c 0 -1.01 1.01 -1.973 2.059 -1.973 c 0.492 0 0.539 -0.043 0.777 -0.719 c 0.746 -2.102 3.164 -3.105 5.699 -2.371 c 1.332 0.387 2.207 1.313 2.668 2.824 c 0.059 0.195 0.238 0.266 0.652 0.266 c 0.398 0 0.75 0.137 1.176 0.457 c 0.605 0.453 0.609 0.461 0.609 1.43 c 0 0.816 -0.059 1.047 -0.367 1.426 c -0.207 0.254 -0.602 0.508 -0.898 0.582 l -0.531 0.129 l -0.02 1.289 c -0.027 2.109 -0.766 3.199 -2.703 3.996 c -0.789 0.32 -2.598 0.453 -3.508 0.254" fill="#e0b269"/><path d="m 10.547 16.633 c -0.641 -0.395 -1.316 -1.297 -1.512 -1.57 c -0.289 -0.469 -0.438 -0.891 -0.543 -1.504 c -0.07 -0.422 -0.066 -0.563 0.027 -1.07 c 0.063 -0.32 0.117 -0.676 0.121 -0.789 c 0.004 -0.113 0.063 -0.266 0.129 -0.34 c 0.137 -0.148 0.098 -0.332 -0.066 -0.332 c -0.215 0 -0.637 -0.313 -0.789 -0.594 c -0.223 -0.398 -0.215 -0.969 0.02 -1.34 c 0.187 -0.305 0.32 -0.395 0.777 -0.539 c 0.547 -0.168 0.461 -0.516 -0.125 -0.516 c -1.016 0 -1.77 0.75 -1.77 1.762 c 0 0.523 0.113 0.816 0.469 1.207 c 0.156 0.172 1.887 0.746 1.574 0.762 c -1.93 0.105 -2.211 -0.766 -2.324 -0.996 c -0.207 -0.418 -0.262 -1.156 -0.176 -1.543 c 0.145 -0.664 0.605 -0.996 1.109 -1.301 c 0.445 -0.266 0.98 -0.379 1.336 -0.281 c 0.285 0.078 0.391 0.051 0.391 -0.102 c 0 -0.18 0.266 -0.93 0.457 -1.285 c 0.262 -0.488 0.965 -1.145 1.512 -1.406 c 1.547 -0.742 3.703 -0.68 5.098 0.148 c 0.699 0.414 1.332 1.273 1.543 2.094 c 0.152 0.605 0.102 0.555 0.508 0.512 c 0.645 -0.066 1.461 0.273 1.836 0.77 c 0.164 0.219 0.785 0.473 0.535 1.441 c -0.078 0.492 -0.289 1 -0.629 1.34 c -0.32 0.32 -0.535 0.172 -0.254 -0.133 c 0.316 -0.344 0.418 -0.633 0.418 -1.203 c 0 -0.613 -0.133 -0.926 -0.543 -1.281 c -0.313 -0.27 -0.738 -0.418 -0.875 -0.305 c -0.148 0.125 -0.105 0.379 0.094 0.566 c 0.328 0.313 0.418 0.516 0.422 0.961 c 0.004 0.316 -0.031 0.477 -0.148 0.691 c -0.145 0.27 -0.145 0.293 -0.051 0.523 c 0.055 0.133 0.758 0.07 0.832 0.098 c 0.141 0.051 0.227 0.195 -0.629 0.391 c -0.156 0.035 -0.266 0.141 -0.484 0.141 c -0.426 0 -0.457 0.07 -0.309 0.652 c 0.156 0.594 0.129 1.324 -0.07 1.938 c -0.195 0.602 -0.605 1.32 -0.926 1.609 c -0.719 0.754 -1.84 1.188 -2.574 1.379 c -2.547 0.273 -3.332 0.027 -4.41 -0.555 m 4.469 -0.543 c 1.281 -0.344 2.34 -1.152 2.809 -2.141 c 0.184 -0.387 0.203 -0.477 0.195 -1.039 c -0.008 -1.023 -0.301 -1.543 -1.078 -1.914 c -0.266 -0.129 -0.48 -0.254 -0.48 -0.277 c 0 -0.027 0.055 -0.195 0.121 -0.375 c 0.285 -0.766 0.25 -1.895 -0.082 -2.445 c -0.516 -0.867 -1.879 -0.945 -2.605 -0.148 c -0.148 0.16 -0.301 0.289 -0.344 0.289 c -0.047 0 -0.16 -0.102 -0.258 -0.227 c -0.57 -0.719 -1.766 -0.883 -2.41 -0.324 c -0.434 0.375 -0.551 0.715 -0.555 1.59 c -0.004 0.613 0.023 0.824 0.145 1.184 c 0.082 0.242 0.129 0.461 0.109 0.492 c -0.016 0.035 -0.215 0.125 -0.438 0.207 c -0.785 0.285 -1.09 0.828 -1.094 1.938 c -0.004 0.563 0.016 0.672 0.188 1.051 c 0.535 1.172 1.977 2.09 3.621 2.297 c 0.473 0.059 1.684 -0.027 2.156 -0.156 m -2.734 -5.691 c 0 -0.176 0.262 -0.41 0.461 -0.41 c 0.191 0 0.406 0.215 0.352 0.355 c -0.02 0.055 -0.102 0.098 -0.184 0.098 c -0.082 0 -0.254 0.02 -0.387 0.043 c -0.211 0.035 -0.242 0.023 -0.242 -0.086 m 1.973 0.063 c -0.145 -0.016 -0.262 -0.07 -0.285 -0.129 c -0.047 -0.133 0.203 -0.344 0.41 -0.344 c 0.184 0 0.41 0.211 0.41 0.391 c 0 0.133 -0.012 0.137 -0.535 0.082 m -2.348 -1.016 c -0.363 -0.207 -0.508 -0.73 -0.273 -1.023 c 0.176 -0.223 0.547 -0.406 0.73 -0.359 c 0.254 0.063 0.488 0.293 0.566 0.555 c 0.176 0.598 -0.48 1.129 -1.023 0.828 m 2.551 -0.023 c -0.215 -0.133 -0.313 -0.34 -0.313 -0.664 c 0 -0.207 0.043 -0.285 0.227 -0.453 c 0.289 -0.254 0.473 -0.297 0.758 -0.18 c 0.246 0.105 0.43 0.387 0.43 0.66 c 0 0.563 -0.637 0.93 -1.102 0.637" fill="#9f6c1b"/><g fill="#493922"><path d="m 10.832 12.855 c -0.258 -0.07 -0.477 -0.277 -0.516 -0.488 c -0.02 -0.098 -0.02 -0.191 -0.004 -0.215 c 0.016 -0.02 0.199 0.012 0.402 0.078 c 0.535 0.16 5.281 0.168 5.73 0.008 c 0.34 -0.125 0.418 -0.066 0.305 0.227 c -0.16 0.422 -0.137 0.418 -3.059 0.43 c -1.469 0.008 -2.758 -0.012 -2.859 -0.039"/><path d="m 12.01 9.465 c -0.324 -0.125 -0.547 -0.621 -0.406 -0.906 c 0.105 -0.211 0.355 -0.395 0.586 -0.434 c 0.355 -0.063 0.727 0.297 0.73 0.699 c 0 0.43 -0.512 0.789 -0.91 0.641"/><path d="m 14.484 9.395 c -0.094 -0.063 -0.195 -0.16 -0.23 -0.223 c -0.066 -0.133 -0.086 -0.578 -0.027 -0.672 c 0.09 -0.156 0.48 -0.395 0.641 -0.395 c 0.258 0 0.523 0.211 0.617 0.492 c 0.074 0.223 0.07 0.254 -0.027 0.445 c -0.215 0.418 -0.633 0.566 -0.973 0.352"/></g></svg>