<svg xmlns="http://www.w3.org/2000/svg" viewBox="0 0 24 24"><path d="m 22.25 5.828 c -18.13 -21.12 -35.566 22.313 -7.523 17.848 c 6.148 -0.98 12.41 -12.156 7.523 -17.848" fill="#f4deb2"/><path d="m 17.863 12.516 c 0 -3.02 -2.578 -5.473 -5.762 -5.473 c -3.184 0 -5.762 2.449 -5.762 5.473 c 0 3.02 2.578 5.477 5.762 5.477 c 3.184 0 5.762 -2.453 5.762 -5.477" fill="#fff"/><path d="m 11.336 19.215 c -0.82 -0.082 -1.57 -0.281 -2.379 -0.617 c -0.84 -0.348 -1.41 -0.355 -2.609 -0.023 c -0.641 0.176 -0.918 0.219 -1.023 0.152 c -0.246 -0.148 -0.219 -0.602 0.078 -1.398 c 0.371 -0.992 0.371 -1.43 0.008 -2.297 c -0.848 -2.01 -0.688 -4.152 0.449 -6.02 c 0.652 -1.07 2.023 -2.234 3.25 -2.758 c 1.762 -0.758 4.207 -0.758 5.969 0 c 1.223 0.523 2.594 1.688 3.246 2.758 c 1.32 2.16 1.32 4.727 0 6.887 c -0.652 1.066 -2.023 2.234 -3.246 2.758 c -1.051 0.453 -2.578 0.68 -3.742 0.555 m 0.703 -3.773 c 0.094 -0.234 0.059 -0.863 -0.055 -0.973 c -0.074 -0.074 -0.594 -0.102 -1.766 -0.102 c -1.172 0 -1.691 0.027 -1.766 0.102 c -0.113 0.109 -0.145 0.738 -0.055 0.973 c 0.047 0.117 0.293 0.137 1.82 0.137 c 1.527 0 1.773 -0.02 1.82 -0.137 m 3.695 -2.566 c 0.059 -0.059 0.105 -0.27 0.105 -0.469 c 0 -0.695 0.316 -0.641 -3.746 -0.641 c -4.066 0 -3.746 -0.055 -3.746 0.641 c 0 0.199 0.047 0.41 0.105 0.469 c 0.152 0.148 7.125 0.148 7.281 0 m 0.051 -2.719 c 0.094 -0.238 0.059 -0.863 -0.051 -0.973 c -0.156 -0.152 -7.129 -0.152 -7.281 0 c -0.059 0.055 -0.105 0.266 -0.105 0.469 c 0 0.695 -0.32 0.641 3.746 0.641 c 3.234 0 3.645 -0.016 3.691 -0.137" fill="#f8b201"/></svg>