<svg xmlns="http://www.w3.org/2000/svg" viewBox="0 0 24 24" xmlns:xlink="http://www.w3.org/1999/xlink"><defs><linearGradient id="6" gradientUnits="userSpaceOnUse" x1="126" y1="41.881" x2="113.39" y2="33.05" gradientTransform="matrix(0.38061 0 0 0.20719 -28.56 0.1)"><stop stop-color="#181400"/><stop offset="1" stop-color="#5f5c5b"/></linearGradient><linearGradient id="7" gradientUnits="userSpaceOnUse" x1="24.09" y1="77.51" x2="0.805" y2="61.21" gradientTransform="matrix(0.16508 0 0 0.15098 4.843 2.121)" xlink:href="#6"/><linearGradient id="9" gradientUnits="userSpaceOnUse" x1="-1453.17" y1="-179.47" x2="-1488.61" y2="-204.28" gradientTransform="matrix(0.11681 0.00029 -0.00055 0.11111 182.8 37.618)" xlink:href="#6"/><linearGradient id="8" gradientUnits="userSpaceOnUse" x1="46.45" y1="34.08" x2="25.305" y2="19.279" gradientTransform="matrix(0.21281 0 0 0.15648 1.783 2.876)" xlink:href="#6"/><linearGradient id="5" gradientUnits="userSpaceOnUse" y1="53.655" x2="0" y2="73.839" gradientTransform="matrix(0.11211 0 0 0.11395 5 4.644)" xlink:href="#1"/><linearGradient id="A" gradientUnits="userSpaceOnUse" x1="126.73" y1="108.07" x2="112.73" y2="98.27" gradientTransform="matrix(0.24697 0 0 0.14426 -11.867 0.998)" xlink:href="#6"/><linearGradient id="2" gradientUnits="userSpaceOnUse" y1="47.763" x2="0" y2="68.11" gradientTransform="matrix(0.11211 0 0 0.11395 5 4.644)" xlink:href="#1"/><linearGradient id="1" gradientUnits="userSpaceOnUse" y1="53.49" x2="0" y2="68.11" gradientTransform="matrix(0.11211 0 0 0.11395 5 4.644)"><stop stop-color="#ec008c"/><stop offset="1" stop-color="#c3008c"/></linearGradient><linearGradient id="3" gradientUnits="userSpaceOnUse" y1="47.819" x2="0" y2="68.11" gradientTransform="matrix(0.11211 0 0 0.11395 5 4.644)" xlink:href="#1"/><linearGradient id="4" gradientUnits="userSpaceOnUse" y1="47.821" x2="0" y2="68.13" gradientTransform="matrix(0.11211 0 0 0.11395 5 4.644)" xlink:href="#1"/><radialGradient id="0" gradientUnits="userSpaceOnUse" cx="63.955" cy="63.931" r="62.05"><stop stop-color="#fafafa"/><stop offset="0.311" stop-color="#f4f4f4"/><stop offset="0.726" stop-color="#e3e3e3"/><stop offset="1" stop-color="#d4d4d4"/></radialGradient></defs><path d="m 18.262 22.11 c -10.133 5.938 -22.535 -5.02 -16.98 -15.477 c 5.617 -10.574 23.668 -7.855 22.625 5.137 c -0.34 4.223 -0.523 6.219 -3.438 8.836" fill="#7f7f7f"/><path d="m 18.841 1.854 h 90.24 c 9.338 0 16.898 7.576 16.898 16.935 v 90.29 c 0 9.359 -7.561 16.935 -16.898 16.935 h -90.24 c -9.338 0 -16.933 -7.61 -16.933 -16.935 v -90.29 c 0 -9.359 7.595 -16.935 16.933 -16.935" transform="matrix(0.11211 0 0 0.11395 5 4.644)" fill="url(#0)" stroke="#b2b2b2" stroke-width="2"/><path d="m 12.758 12.406 h -0.324 v -1 c 0 -0.121 -0.031 -0.215 -0.09 -0.273 c -0.059 -0.063 -0.137 -0.094 -0.234 -0.094 c -0.094 0 -0.172 0.031 -0.238 0.09 c -0.066 0.063 -0.098 0.148 -0.098 0.262 v 1.02 h -0.328 v -1 c 0 -0.121 -0.027 -0.215 -0.09 -0.273 c -0.059 -0.063 -0.141 -0.094 -0.238 -0.094 c -0.094 0 -0.176 0.027 -0.238 0.086 c -0.066 0.07 -0.102 0.16 -0.102 0.281 v 1 h -0.316 v -1.648 h 0.316 v 0.168 c 0.109 -0.125 0.254 -0.188 0.434 -0.188 c 0.207 0 0.359 0.082 0.461 0.242 c 0.125 -0.16 0.297 -0.242 0.508 -0.242 c 0.172 0 0.309 0.051 0.406 0.152 c 0.117 0.109 0.172 0.262 0.172 0.461" fill="url(#1)"/><path d="m 13.598 10.438 h -0.348 v -0.352 h 0.348 m -0.012 2.32 h -0.324 v -1.645 h 0.324" fill="url(#2)"/><path d="m 14.742 12.406 h -0.203 c -0.145 0 -0.258 -0.047 -0.34 -0.137 c -0.07 -0.078 -0.105 -0.184 -0.105 -0.32 v -1.855 h 0.328 v 1.836 c 0 0.129 0.059 0.191 0.176 0.191 h 0.145" fill="url(#3)"/><path d="m 16.52 12.406 h -0.406 l -0.449 -0.758 l -0.238 0.277 v 0.48 h -0.328 v -2.313 h 0.328 v 1.426 l 0.629 -0.762 h 0.395 l -0.563 0.645" fill="url(#4)"/><path d="m 18.07 10.758 l -0.719 1.977 c -0.031 0.086 -0.07 0.156 -0.117 0.203 c -0.078 0.082 -0.188 0.121 -0.332 0.121 h -0.133 v -0.297 h 0.086 c 0.063 0 0.109 -0.012 0.145 -0.035 c 0.031 -0.023 0.063 -0.07 0.086 -0.141 l 0.09 -0.258 l -0.563 -1.57 h 0.344 l 0.387 1.152 l 0.379 -1.152" fill="url(#5)"/><path d="m 17.234 18.414 h -10.133 c -0.957 0 -1.75 -0.723 -1.879 -1.66 v 0.273 c 0 1.066 0.848 1.93 1.895 1.93 h 10.117 c 1.047 0 1.898 -0.863 1.898 -1.93 v -0.547 c 0 1.066 -0.852 1.934 -1.898 1.934" fill="#b2b2b2"/><path d="m 19 7 c 0 -0.426 0.016 -0.496 0.016 -0.926 c -0.262 0.129 -2.559 0.211 -2.996 0.141 c -1.246 -0.207 -1 1.492 -0.125 2.035 c 0.875 0.543 0.5 0.813 0.25 1.426 c -0.25 0.609 0.871 0.746 1.496 0.066 c 0.426 -0.465 0.852 -0.676 1.359 -0.652 c 0 -0.707 0 -1.406 0 -2.09" fill="url(#6)"/><path d="m 7.148 15.05 c 0.484 -0.301 0.063 -1.383 1.41 -1.438 c 1.348 -0.051 0.77 -2.098 0.039 -1.648 c -0.73 0.449 -0.262 -1.398 -1.305 -2.238 c -1.043 -0.844 -1.32 0.316 -1.168 1.285 c 0.066 0.418 -0.348 0.719 -0.789 0.926 c 0 0.98 0 1.879 0 2.781 c 0.629 0.227 1.516 0.512 1.813 0.332" fill="url(#7)"/><path d="m 10.5 5.551 c -0.555 0.324 -2.992 -0.082 -3.547 0.57 c -0.555 0.652 -0.332 1.223 0.996 1.547 c 1.332 0.328 0.555 1.711 1.441 1.711 c 0.887 0 0.555 -0.73 1.664 -1.223 c 1.105 -0.488 1.883 -0.895 1.551 -1.465 c -0.332 -0.57 -1.551 -1.469 -2.105 -1.141" fill="url(#8)"/><path d="m 9.527 17.355 c 0.578 -0.152 2.285 1.023 3.01 0.543 c 0.723 -0.477 0.809 -1.121 -0.078 -1.867 c -0.887 -0.742 0.336 -1.891 -0.352 -2.168 c -0.691 -0.277 -0.762 0.563 -1.84 0.703 c -1.082 0.141 -1.863 0.309 -1.863 0.984 c 0.004 0.676 0.547 1.957 1.125 1.805" fill="url(#9)"/><path d="m 19 16.836 c 0 -0.543 0.059 -1.965 -0.004 -3.531 c -0.574 0.105 -1.184 0.328 -1.184 0.805 c 0 0.902 -1.414 0.152 -1.801 1.203 c -0.387 1.051 1.027 1.504 0.258 2.18 c -0.402 0.352 -0.383 0.641 -0.129 0.859 c 1.641 0.098 2.121 0.035 2.598 -0.586" fill="url(#A)"/></svg>