<svg xmlns="http://www.w3.org/2000/svg" viewBox="0 0 24 24"><path d="m 1.828 4.91 c -6.816 9.582 6.707 23.598 16.762 17.707 c 8.594 -4.313 6.117 -17.344 -1.801 -21.03 c -4.883 -2.883 -12.11 -1.934 -14.961 3.324" fill="#f1468e"/><g fill="#fff"><path d="m 8.305 5.156 c -0.789 0.016 -1.461 0.277 -1.941 0.809 c -0.895 0.984 -0.945 2.691 -0.301 4.594 c 0.293 -0.438 0.656 -0.855 1.078 -1.238 c -0.586 -1.633 -0.641 -2.953 -0.016 -3.527 c 0.777 -0.719 2.402 -0.102 4.18 1.414 c 0.172 0.141 0.34 0.293 0.512 0.453 c 0.738 0.688 1.488 1.52 2.207 2.461 c 1 1.316 1.801 2.668 2.336 3.895 c 0.395 -0.684 0.602 -1.457 0.566 -2.262 c 0 -0.016 0 -0.031 -0.004 -0.047 c -0.535 -0.977 -1.227 -1.957 -2.066 -2.875 c -0.266 -0.297 -0.543 -0.578 -0.82 -0.84 c -0.387 -0.367 -0.781 -0.699 -1.176 -0.996 c -1.602 -1.215 -3.238 -1.867 -4.555 -1.84 m -0.82 5.03 c -0.023 0.043 -0.047 0.086 -0.07 0.129 c -0.352 0.645 -0.539 1.363 -0.52 2.113 c 0 0.02 0 0.043 0 0.063 c 0.004 0.031 0.004 0.059 0.008 0.09 c 0.012 -0.023 0.023 -0.047 0.035 -0.07 c 0.25 -0.473 0.543 -0.949 0.867 -1.426 c 0.02 -0.031 0.043 -0.066 0.066 -0.098 c -0.141 -0.27 -0.27 -0.535 -0.387 -0.801 m 0.699 1.391 c -0.324 0.586 -0.582 1.172 -0.762 1.734 c 0.441 0.684 0.957 1.355 1.543 2 c 0.324 0.355 0.66 0.691 0.996 1 c 0.344 0.316 0.695 0.605 1.047 0.867 c 2.551 1.914 5.176 2.402 6.453 0.996 c 0.895 -0.984 0.945 -2.695 0.297 -4.598 c -0.293 0.441 -0.652 0.863 -1.074 1.25 c 0.586 1.629 0.633 2.949 0.012 3.523 c -0.773 0.711 -2.383 0.105 -4.152 -1.391 c -0.145 -0.125 -0.289 -0.254 -0.438 -0.387 c 0 0 -0.004 0 -0.004 0 l -0.043 -0.043 c -0.754 -0.699 -1.523 -1.543 -2.262 -2.512 c -0.621 -0.816 -1.164 -1.645 -1.613 -2.445" fill-opacity="0.392"/><path d="m 15.785 5.32 c -1.23 0.012 -2.816 0.707 -4.414 1.941 c 0.133 0.113 0.262 0.23 0.391 0.352 c 1.727 -1.152 3.418 -1.402 4.332 -0.465 c 1.01 1.039 0.762 3.227 -0.457 5.422 c -0.363 0.656 -0.816 1.316 -1.352 1.945 c -0.707 0.828 -1.469 1.508 -2.227 2.02 c -0.027 0.016 -0.055 0.035 -0.078 0.051 c -1.672 1.09 -3.301 1.328 -4.207 0.457 c -0.016 -0.016 -0.031 -0.031 -0.043 -0.047 c -0.148 -0.148 -0.266 -0.324 -0.359 -0.516 c -0.602 -0.32 -1.102 -0.734 -1.473 -1.234 c -0.137 0.664 -0.164 1.277 -0.066 1.797 c 0.082 0.445 0.258 0.84 0.527 1.141 c 1.211 1.328 3.965 0.531 6.629 -1.738 c 0.52 -0.445 1.035 -0.945 1.535 -1.492 c 0.531 -0.586 1.01 -1.188 1.43 -1.793 c 0.355 -0.516 0.699 -0.938 0.969 -1.449 c 1.254 -2.359 1.52 -4.66 0.539 -5.742 c -0.406 -0.445 -0.984 -0.652 -1.676 -0.645 m -4.109 2.352 c -0.348 0.027 -0.684 0.086 -1.01 0.172 c -0.465 0.406 -0.926 0.859 -1.371 1.352 c -0.531 0.582 -1.01 1.184 -1.43 1.789 c -0.352 0.508 -0.66 1.02 -0.93 1.523 c -0.012 0.023 -0.023 0.047 -0.035 0.07 c 0.031 0.488 0.148 0.949 0.344 1.375 c 0.047 -0.211 0.105 -0.426 0.176 -0.645 c 0.18 -0.563 0.438 -1.148 0.762 -1.734 c 0.363 -0.66 0.816 -1.316 1.352 -1.945 c 0.68 -0.797 1.41 -1.457 2.141 -1.957"/><path d="m 13.273 6.984 c -0.137 0 -0.273 0.004 -0.414 0.012 c 0.395 0.297 0.789 0.633 1.176 0.996 c 1.633 0.617 2.797 2.01 2.887 3.715 c 0.004 0.016 0.004 0.035 0.004 0.051 c 0.035 0.805 -0.172 1.574 -0.566 2.258 c -0.805 1.402 -2.391 2.422 -4.254 2.559 c 0.148 0.137 0.293 0.266 0.438 0.387 c 0.004 0 0.008 0 0.008 0 c 1.633 -0.375 3.07 -1.152 4.133 -2.133 c 0.422 -0.387 0.781 -0.809 1.074 -1.25 c 0.629 -0.949 0.93 -1.996 0.789 -3.02 c -0.293 -2.18 -2.496 -3.574 -5.273 -3.578 m -1.969 0.223 c -0.02 0.004 -0.043 0.008 -0.066 0.016 c -1.617 0.371 -3.039 1.133 -4.098 2.098 c -0.422 0.383 -0.785 0.801 -1.078 1.238 c -0.648 0.961 -0.961 2.023 -0.82 3.063 c 0.082 0.605 0.309 1.152 0.66 1.621 c 0.367 0.5 0.867 0.914 1.469 1.234 c 0.992 0.523 2.254 0.785 3.637 0.707 c -0.352 -0.266 -0.703 -0.555 -1.047 -0.871 c -1.23 -0.414 -2.219 -1.266 -2.715 -2.359 c -0.195 -0.426 -0.313 -0.887 -0.344 -1.375 c -0.004 -0.031 -0.004 -0.059 -0.008 -0.09 c 0 -0.02 0 -0.043 0 -0.063 c -0.023 -0.801 0.191 -1.566 0.59 -2.238 c 0.656 -1.113 1.801 -1.977 3.184 -2.344 c 0.324 -0.086 0.66 -0.145 1.01 -0.172 c 0.012 0 0.031 -0.004 0.043 -0.004 c 0.035 -0.004 0.066 -0.004 0.098 -0.008 c -0.016 -0.016 -0.035 -0.031 -0.055 -0.047 c -0.129 -0.121 -0.258 -0.238 -0.387 -0.352 c -0.023 -0.016 -0.047 -0.039 -0.07 -0.055" fill-opacity="0.588"/><g fill-opacity="0.392"><path d="m 7.184 10.809 c -0.02 0.043 -0.035 0.086 -0.051 0.129 c -0.012 0.035 -0.023 0.07 -0.035 0.105 c 0.012 -0.035 0.023 -0.07 0.035 -0.105 c 0.016 -0.043 0.031 -0.086 0.051 -0.129"/><path d="m 6.98 11.484 c -0.008 0.039 -0.016 0.078 -0.023 0.113 c -0.008 0.043 -0.016 0.082 -0.02 0.125 c 0.004 -0.043 0.012 -0.082 0.02 -0.125 c 0.008 -0.039 0.016 -0.074 0.023 -0.113"/><path d="m 7.148 12.13 c -0.027 0.043 -0.051 0.086 -0.074 0.129 c 0.023 -0.043 0.047 -0.086 0.074 -0.129"/></g></g></svg>