<svg xmlns="http://www.w3.org/2000/svg" xmlns:xlink="http://www.w3.org/1999/xlink" viewBox="0 0 24 24"><defs><g id="B" clip-path="url(#A)"><path d="m 10.539 8.281 v 5.93 h -4.785 v -4.449 l 1.199 -1.48" fill="#fff" fill-rule="evenodd"/><path d="m 10.582 8.395 v 5.875 h -4.723 v -4.406 l 1.18 -1.469" fill="url(#2)" fill-rule="evenodd"/><path d="m 10.613 8.375 c 0 1.977 0 3.953 0 5.934 c -1.594 0 -3.191 0 -4.789 0 c 0 -1.488 0 -2.977 0 -4.461 c 0.398 -0.496 0.801 -0.996 1.199 -1.492 c 1.199 0 2.395 0 3.59 0 c 0 0.004 0 0.016 0 0.02" fill="url(#3)" fill-rule="evenodd"/><path d="m 10.652 8.336 c 0 2 0 4.01 0 6.01 c -1.621 0 -3.242 0 -4.863 0 c 0 -1.508 0 -3.01 0 -4.516 c 0.406 -0.504 0.813 -1.012 1.219 -1.516 c 1.215 0 2.43 0 3.645 0 c 0 0.004 0 0.016 0 0.02" fill="url(#4)" fill-rule="evenodd"/><path d="m 52.36 45.33 v 63.29 h -51.04 v -47.46 l 12.75 -15.833" transform="matrix(0.09375 0 0 0.09375 5.63 4.04)" stroke-opacity="0.365" fill="url(#5)" fill-rule="evenodd" stroke="#000" stroke-width="0.173"/><path d="m 10.172 8.73 v 5.141 h -4.07 l -0.02 -4.137 l 0.918 -1" fill="#459f45" fill-rule="evenodd"/><path d="m 10.172 8.719 v 2.539 c -1.43 0.363 -2.211 -0.91 -4.082 0.09 l -0.012 -1.621 l 0.855 -1.01" fill="#9cb8d1" fill-rule="evenodd"/><path d="m 10.01 9.391 c 0.012 -0.57 -0.48 -0.512 -1.688 -0.512 c -1.207 0 -2.062 0.176 -2.137 0.844 c -0.074 0.672 2.613 1.102 3.293 1.129 c 0.68 0.031 0.516 -0.875 0.531 -1.461" fill="url(#6)" fill-rule="evenodd"/><path d="m 9.391 11.414 c -0.391 -0.004 -1.324 -0.352 -1.984 -0.34 c -0.656 0.016 -1.207 0.25 -1.262 0.363 c -0.055 0.109 -0.02 0.57 -0.02 0.57 l 4.04 -0.008 l -0.008 -0.688 c -0.301 0.105 -0.359 0.109 -0.77 0.102" fill="url(#7)" fill-rule="evenodd"/><path d="m 10.08 12.191 c 0 0 -0.539 0.91 -1.055 0.941 c -0.531 0.035 -0.863 -0.055 -1.293 0.43 c -0.434 0.484 -1.5 0.293 -1.445 -0.238 c 0.055 -0.531 1.102 -0.688 1.426 -0.504 c 0.324 0.184 1.863 -0.145 1.988 -0.445 c 0.125 -0.301 0.461 -0.41 0.371 -0.168" fill="url(#8)" fill-rule="evenodd"/><path d="m 48.32 49.992 v 54.833 h -43.37 l -0.208 -45.667 l 7.958 -9.167 h 35.667" transform="matrix(0.09375 0 0 0.09375 5.63 4.04)" fill="none" stroke="#fff" stroke-width="0.688"/><path d="m 5.754 9.77 c 0.359 -0.121 0.828 -0.105 1.18 -0.035 c -0.059 -0.441 -0.066 -0.996 0.016 -1.449" fill="url(#9)" fill-rule="evenodd"/></g><g id="M" clip-path="url(#L)"><path d="m 12.77 8.699 v 7.441 h -6 v -5.582 l 1.5 -1.859" fill="#fff" fill-rule="evenodd"/><path d="m 12.82 8.844 v 7.367 h -5.922 v -5.527 l 1.48 -1.84" fill="url(#D)" fill-rule="evenodd"/><path d="m 12.863 8.816 c 0 2.48 0 4.961 0 7.441 c -2 0 -4 0 -6.01 0 c 0 -1.863 0 -3.727 0 -5.594 c 0.5 -0.621 1 -1.246 1.504 -1.871 c 1.5 0 3 0 4.504 0 c 0 0.008 0 0.023 0 0.023" fill="url(#E)" fill-rule="evenodd"/><path d="m 12.91 8.77 c 0 2.512 0 5.02 0 7.539 c -2.035 0 -4.066 0 -6.098 0 c 0 -1.887 0 -3.773 0 -5.66 c 0.508 -0.637 1.02 -1.27 1.527 -1.902 c 1.523 0 3.047 0 4.57 0 c 0 0.004 0 0.02 0 0.023" fill="url(#F)" fill-rule="evenodd"/><path d="m 76.11 49.825 v 79.38 h -64 v -59.54 l 16 -19.833" transform="matrix(0.09375 0 0 0.09375 5.63 4.04)" stroke-opacity="0.365" fill="url(#G)" fill-rule="evenodd" stroke="#000" stroke-width="0.217"/><path d="m 12.305 9.266 v 6.445 h -5.102 l -0.023 -5.188 l 1.148 -1.258" fill="#459f45" fill-rule="evenodd"/><path d="m 12.305 9.246 v 3.191 c -1.789 0.453 -2.77 -1.148 -5.117 0.109 l -0.012 -2.031 l 1.07 -1.27" fill="#9cb8d1" fill-rule="evenodd"/><path d="m 12.11 10.09 c 0.02 -0.715 -0.598 -0.645 -2.113 -0.645 c -1.516 0 -2.586 0.223 -2.684 1.063 c -0.094 0.84 3.277 1.379 4.133 1.414 c 0.852 0.039 0.645 -1.098 0.664 -1.832" fill="url(#H)" fill-rule="evenodd"/><path d="m 11.328 12.633 c -0.488 -0.012 -1.664 -0.445 -2.488 -0.426 c -0.824 0.016 -1.516 0.313 -1.582 0.453 c -0.066 0.141 -0.023 0.715 -0.023 0.715 l 5.066 -0.012 l -0.004 -0.863 c -0.379 0.137 -0.453 0.141 -0.969 0.133" fill="url(#I)" fill-rule="evenodd"/><path d="m 12.191 13.602 c 0 0 -0.68 1.145 -1.324 1.184 c -0.664 0.043 -1.082 -0.066 -1.621 0.539 c -0.543 0.609 -1.883 0.367 -1.812 -0.297 c 0.066 -0.664 1.383 -0.863 1.789 -0.633 c 0.406 0.23 2.336 -0.184 2.492 -0.559 c 0.16 -0.375 0.578 -0.516 0.465 -0.207" fill="url(#J)" fill-rule="evenodd"/><path d="m 71.07 55.7 v 68.75 h -54.42 l -0.25 -57.29 l 9.958 -11.458 h 44.75" transform="matrix(0.09375 0 0 0.09375 5.63 4.04)" fill="none" stroke="#fff" stroke-width="0.863"/><path d="m 6.766 10.57 c 0.453 -0.152 1.039 -0.133 1.48 -0.047 c -0.074 -0.555 -0.086 -1.25 0.02 -1.816" fill="url(#K)" fill-rule="evenodd"/></g><g id="X" clip-path="url(#W)"><path d="m 12.762 8.281 v 5.934 h 4.785 v -4.449 l -1.199 -1.484" fill="#fff" fill-rule="evenodd"/><path d="m 12.719 8.398 v 5.871 h 4.723 v -4.402 l -1.18 -1.469" fill="url(#O)" fill-rule="evenodd"/><path d="m 12.684 8.379 c 0 1.977 0 3.953 0 5.93 c 1.598 0 3.195 0 4.793 0 c 0 -1.484 0 -2.973 0 -4.457 c -0.398 -0.5 -0.801 -0.996 -1.199 -1.492 c -1.199 0 -2.395 0 -3.594 0 c 0 0.004 0 0.016 0 0.02" fill="url(#P)" fill-rule="evenodd"/><path d="m 12.648 8.34 c 0 2 0 4.01 0 6.01 c 1.621 0 3.242 0 4.863 0 c 0 -1.504 0 -3.01 0 -4.512 c -0.406 -0.504 -0.813 -1.012 -1.219 -1.516 c -1.215 0 -2.43 0 -3.645 0 c 0 0.004 0 0.016 0 0.02" fill="url(#Q)" fill-rule="evenodd"/><path d="m 76.07 45.37 v 63.29 h 51.04 v -47.46 l -12.75 -15.833" transform="matrix(0.09375 0 0 0.09375 5.63 4.04)" stroke-opacity="0.365" fill="url(#R)" fill-rule="evenodd" stroke="#000" stroke-width="0.173"/><path d="m 13.13 8.734 v 5.141 h 4.07 l 0.02 -4.137 l -0.918 -1" fill="#459f45" fill-rule="evenodd"/><path d="m 13.13 8.719 v 2.543 c 1.43 0.363 2.211 -0.914 4.082 0.09 l 0.012 -1.621 l -0.855 -1.012" fill="#9cb8d1" fill-rule="evenodd"/><path d="m 13.289 9.395 c -0.012 -0.57 0.48 -0.516 1.688 -0.516 c 1.207 0 2.063 0.18 2.137 0.848 c 0.074 0.672 -2.613 1.102 -3.293 1.129 c -0.68 0.031 -0.516 -0.875 -0.531 -1.461" fill="url(#S)" fill-rule="evenodd"/><path d="m 13.91 11.418 c 0.391 -0.008 1.324 -0.355 1.984 -0.34 c 0.656 0.016 1.207 0.25 1.262 0.363 c 0.055 0.109 0.02 0.57 0.02 0.57 l -4.04 -0.012 l 0.008 -0.688 c 0.301 0.109 0.359 0.113 0.77 0.105" fill="url(#T)" fill-rule="evenodd"/><path d="m 13.223 12.191 c 0 0 0.539 0.914 1.055 0.945 c 0.531 0.031 0.863 -0.055 1.293 0.43 c 0.434 0.484 1.5 0.293 1.445 -0.238 c -0.055 -0.531 -1.102 -0.688 -1.426 -0.504 c -0.324 0.184 -1.863 -0.148 -1.988 -0.445 c -0.125 -0.301 -0.461 -0.41 -0.371 -0.168" fill="url(#U)" fill-rule="evenodd"/><path d="m 80.07 50.03 v 54.833 h 43.42 l 0.208 -45.667 l -7.958 -9.167" transform="matrix(0.09375 0 0 0.09375 5.63 4.04)" fill="none" stroke="#fff" stroke-width="0.688"/><path d="m 17.547 9.773 c -0.359 -0.121 -0.828 -0.105 -1.18 -0.035 c 0.059 -0.441 0.066 -0.996 -0.016 -1.449" fill="url(#V)" fill-rule="evenodd"/></g><g id="i" clip-path="url(#h)"><path d="m 10.609 8.652 v 7.438 h 6 v -5.578 l -1.5 -1.859" fill="#fff" fill-rule="evenodd"/><path d="m 10.559 8.797 v 7.367 h 5.922 v -5.527 l -1.48 -1.84" fill="url(#Z)" fill-rule="evenodd"/><path d="m 10.516 8.77 c 0 2.48 0 4.961 0 7.441 c 2 0 4 0 6.01 0 c 0 -1.863 0 -3.727 0 -5.594 c -0.5 -0.621 -1 -1.246 -1.504 -1.871 c -1.504 0 -3 0 -4.504 0 c 0 0.004 0 0.023 0 0.023" fill="url(#a)" fill-rule="evenodd"/><path d="m 10.469 8.723 c 0 2.512 0 5.02 0 7.539 c 2.035 0 4.066 0 6.098 0 c 0 -1.887 0 -3.773 0 -5.664 c -0.508 -0.633 -1.02 -1.266 -1.527 -1.898 c -1.523 0 -3.047 0 -4.57 0 c 0 0.004 0 0.02 0 0.023" fill="url(#b)" fill-rule="evenodd"/><path d="m 53.11 49.33 v 79.38 h 64 v -59.54 l -16 -19.833" transform="matrix(0.09375 0 0 0.09375 5.63 4.04)" stroke-opacity="0.365" fill="url(#c)" fill-rule="evenodd" stroke="#000" stroke-width="0.217"/><path d="m 11.07 9.219 v 6.445 h 5.102 l 0.027 -5.188 l -1.148 -1.258" fill="#459f45" fill-rule="evenodd"/><path d="m 11.07 9.199 v 3.188 c 1.793 0.457 2.773 -1.145 5.121 0.113 l 0.012 -2.035 l -1.07 -1.266" fill="#9cb8d1" fill-rule="evenodd"/><path d="m 11.273 10.05 c -0.02 -0.715 0.598 -0.645 2.113 -0.645 c 1.516 0 2.586 0.223 2.68 1.063 c 0.098 0.84 -3.277 1.375 -4.129 1.414 c -0.852 0.035 -0.648 -1.098 -0.664 -1.832" fill="url(#d)" fill-rule="evenodd"/><path d="m 12.05 12.582 c 0.488 -0.008 1.66 -0.441 2.488 -0.426 c 0.824 0.02 1.516 0.316 1.582 0.457 c 0.066 0.137 0.023 0.715 0.023 0.715 l -5.07 -0.012 l 0.008 -0.863 c 0.379 0.137 0.453 0.141 0.969 0.129" fill="url(#e)" fill-rule="evenodd"/><path d="m 11.188 13.555 c 0 0 0.68 1.145 1.324 1.184 c 0.664 0.043 1.078 -0.066 1.621 0.539 c 0.543 0.609 1.879 0.367 1.813 -0.297 c -0.066 -0.668 -1.383 -0.867 -1.789 -0.633 c -0.406 0.23 -2.336 -0.184 -2.496 -0.563 c -0.156 -0.375 -0.574 -0.512 -0.461 -0.207" fill="url(#f)" fill-rule="evenodd"/><path d="m 58.15 55.2 v 68.75 h 54.42 l 0.292 -57.29 l -10 -11.458" transform="matrix(0.09375 0 0 0.09375 5.63 4.04)" fill="none" stroke="#fff" stroke-width="0.863"/><path d="m 16.609 10.52 c -0.449 -0.152 -1.035 -0.129 -1.48 -0.043 c 0.078 -0.555 0.086 -1.25 -0.02 -1.816" fill="url(#g)" fill-rule="evenodd"/></g><g id="t" clip-path="url(#s)"><path d="m 15.957 10.656 c 0 2.438 -1.895 4.418 -4.23 4.418 c -2.336 0 -4.227 -1.98 -4.227 -4.418 c 0 -2.441 1.891 -4.418 4.227 -4.418 c 2.336 0 4.23 1.977 4.23 4.418" fill="url(#0)"/><use xlink:href="#B" mask="url(#C)"/><use xlink:href="#M" mask="url(#N)"/><use xlink:href="#X" mask="url(#Y)"/><use xlink:href="#i" mask="url(#j)"/><path d="m 8.164 9.121 v 9.242 h 7.145 v -6.93 l -1.785 -2.313" fill="#fff" fill-rule="evenodd"/><path d="m 8.102 9.301 v 9.152 h 7.05 v -6.867 l -1.762 -2.285" fill="url(#k)" fill-rule="evenodd"/><path d="m 8.05 9.27 c 0 3.082 0 6.164 0 9.242 c 2.383 0 4.77 0 7.156 0 c 0 -2.316 0 -4.633 0 -6.949 c -0.598 -0.773 -1.195 -1.551 -1.793 -2.324 c -1.789 0 -3.574 0 -5.363 0 c 0 0.008 0 0.027 0 0.031" fill="url(#l)" fill-rule="evenodd"/><path d="m 7.996 9.207 c 0 3.125 0 6.246 0 9.367 c 2.422 0 4.844 0 7.262 0 c 0 -2.344 0 -4.688 0 -7.04 c -0.605 -0.785 -1.211 -1.574 -1.82 -2.359 c -1.813 0 -3.625 0 -5.441 0 c 0 0.004 0 0.023 0 0.027" fill="url(#m)" fill-rule="evenodd"/><path d="m 27.03 54.37 v 98.58 h 76.25 v -73.917 l -19.04 -24.667" transform="matrix(0.09375 0 0 0.09375 5.63 4.04)" stroke-opacity="0.365" fill="url(#n)" fill-rule="evenodd" stroke="#000" stroke-width="0.263"/><path d="m 8.715 9.824 v 8.01 h 6.074 l 0.031 -6.445 l -1.367 -1.563" fill="#459f45" fill-rule="evenodd"/><path d="m 8.715 9.801 v 3.961 c 2.129 0.566 3.301 -1.422 6.098 0.141 l 0.012 -2.527 l -1.273 -1.574" fill="#9cb8d1" fill-rule="evenodd"/><path d="m 8.953 10.852 c -0.02 -0.887 0.715 -0.801 2.516 -0.801 c 1.805 0 3.082 0.277 3.195 1.32 c 0.113 1.043 -3.902 1.715 -4.918 1.758 c -1.016 0.047 -0.773 -1.363 -0.793 -2.277" fill="url(#o)" fill-rule="evenodd"/><path d="m 9.879 14.01 c 0.582 -0.012 1.98 -0.555 2.965 -0.531 c 0.98 0.023 1.805 0.391 1.883 0.563 c 0.082 0.176 0.027 0.891 0.027 0.891 l -6.04 -0.016 l 0.008 -1.07 c 0.453 0.168 0.539 0.172 1.152 0.164" fill="url(#p)" fill-rule="evenodd"/><path d="m 8.852 15.215 c 0 0 0.809 1.418 1.578 1.469 c 0.789 0.051 1.285 -0.082 1.93 0.672 c 0.648 0.754 2.238 0.453 2.16 -0.375 c -0.082 -0.824 -1.648 -1.07 -2.133 -0.785 c -0.484 0.289 -2.781 -0.227 -2.969 -0.695 c -0.188 -0.465 -0.688 -0.637 -0.555 -0.258" fill="url(#q)" fill-rule="evenodd"/><path d="m 33.03 61.66 v 85.42 h 64.833 l 0.333 -71.17 l -11.917 -14.25" transform="matrix(0.09375 0 0 0.09375 5.63 4.04)" fill="none" stroke="#fff" stroke-width="1.05"/><path d="m 15.313 11.445 c -0.539 -0.191 -1.238 -0.164 -1.766 -0.055 c 0.094 -0.691 0.105 -1.555 -0.02 -2.258" fill="url(#r)" fill-rule="evenodd"/></g><clipPath id="L"><path d="M 0,0 H24 V24 H0 z"/></clipPath><clipPath id="W"><path d="M 0,0 H24 V24 H0 z"/></clipPath><clipPath id="h"><path d="M 0,0 H24 V24 H0 z"/></clipPath><clipPath id="A"><path d="M 0,0 H24 V24 H0 z"/></clipPath><clipPath id="s"><path d="M 0,0 H24 V24 H0 z"/></clipPath><filter id="1" filterUnits="objectBoundingBox" x="0" y="0" width="24" height="24"><feColorMatrix type="matrix" in="SourceGraphic" values="0 0 0 0 1 0 0 0 0 1 0 0 0 0 1 0 0 0 1 0"/></filter><linearGradient id="b" gradientUnits="userSpaceOnUse" x1="201.39" y1="843.21" x2="547.81" y2="383.77" gradientTransform="matrix(0.01286 0 0 0.01595 8.199 2.637)" xlink:href="#2"/><linearGradient id="c" gradientUnits="userSpaceOnUse" x1="728.97" y1="230.07" x2="351.71" y2="689.86" gradientTransform="matrix(0.13528 0 0 0.16769 10.934 27.426)" xlink:href="#5"/><linearGradient id="Z" gradientUnits="userSpaceOnUse" x1="207.87" y1="836.03" x2="544.79" y2="389.19" gradientTransform="matrix(0.01284 0 0 0.01597 8.199 2.637)" xlink:href="#2"/><linearGradient id="T" gradientUnits="userSpaceOnUse" x1="-35.703" y1="-357.06" x2="-35.492" y2="-426.31" gradientTransform="matrix(0.07553 0 0 0.0174 18.09 17.986)" xlink:href="#6"/><linearGradient id="a" gradientUnits="userSpaceOnUse" x1="204.63" y1="839.62" x2="546.3" y2="386.48" gradientTransform="matrix(0.01285 0 0 0.01596 8.199 2.637)" xlink:href="#2"/><linearGradient id="U" gradientUnits="userSpaceOnUse" x1="-99.99" y1="-140.38" x2="-53.733" y2="-199.84" gradientTransform="matrix(0.05318 0 0 0.02471 18.09 17.986)" xlink:href="#0"/><linearGradient id="d" gradientUnits="userSpaceOnUse" x1="242.42" y1="787.27" x2="148.12" y2="490.8" gradientTransform="matrix(0.02079 0 0 0.01073 8.938 2.213)" xlink:href="#6"/><linearGradient id="V" gradientUnits="userSpaceOnUse" x1="741.64" y1="169.44" x2="622.33" y2="287.74" gradientTransform="matrix(0.01011 0 0 0.01254 9.609 6.653)" xlink:href="#5"/><linearGradient id="f" gradientUnits="userSpaceOnUse" x1="-99.99" y1="-140.38" x2="-53.733" y2="-199.84" gradientTransform="matrix(0.0667 0 0 0.031 17.288 20.821)" xlink:href="#0"/><linearGradient id="o" gradientUnits="userSpaceOnUse" x1="242.42" y1="787.27" x2="148.12" y2="490.8" gradientTransform="matrix(0.02476 0 0 0.01333 6.172 1.122)" xlink:href="#6"/><linearGradient id="e" gradientUnits="userSpaceOnUse" x1="-35.703" y1="-357.06" x2="-35.492" y2="-426.31" gradientTransform="matrix(0.09473 0 0 0.02183 17.288 20.821)" xlink:href="#6"/><linearGradient id="p" gradientUnits="userSpaceOnUse" x1="-35.703" y1="-357.06" x2="-35.492" y2="-426.31" gradientTransform="matrix(0.11283 0 0 0.02711 16.12 24.24)" xlink:href="#6"/><linearGradient id="r" gradientUnits="userSpaceOnUse" x1="741.64" y1="169.44" x2="622.33" y2="287.74" gradientTransform="matrix(0.0151 0 0 0.01953 3.454 6.581)" xlink:href="#5"/><linearGradient id="q" gradientUnits="userSpaceOnUse" x1="-99.99" y1="-140.38" x2="-53.733" y2="-199.84" gradientTransform="matrix(0.07945 0 0 0.03851 16.12 24.24)" xlink:href="#0"/><linearGradient id="n" gradientUnits="userSpaceOnUse" x1="728.97" y1="230.07" x2="351.71" y2="689.86" gradientTransform="matrix(0.16113 0 0 0.20833 -23.21 27.15)" xlink:href="#5"/><linearGradient id="S" gradientUnits="userSpaceOnUse" x1="242.42" y1="787.27" x2="148.12" y2="490.8" gradientTransform="matrix(0.01658 0 0 0.00855 11.429 3.149)" xlink:href="#6"/><linearGradient id="m" gradientUnits="userSpaceOnUse" x1="201.39" y1="843.21" x2="547.81" y2="383.77" gradientTransform="matrix(0.01531 0 0 0.01981 5.292 1.649)" xlink:href="#2"/><linearGradient id="g" gradientUnits="userSpaceOnUse" x1="741.64" y1="169.44" x2="622.33" y2="287.74" gradientTransform="matrix(0.01268 0 0 0.01572 6.655 6.607)" xlink:href="#5"/><linearGradient id="l" gradientUnits="userSpaceOnUse" x1="204.63" y1="839.62" x2="546.3" y2="386.48" gradientTransform="matrix(0.0153 0 0 0.01983 5.292 1.649)" xlink:href="#2"/><linearGradient id="k" gradientUnits="userSpaceOnUse" x1="207.87" y1="836.03" x2="544.79" y2="389.19" gradientTransform="matrix(0.01529 0 0 0.01984 5.292 1.649)" xlink:href="#2"/><linearGradient id="R" gradientUnits="userSpaceOnUse" x1="728.97" y1="230.07" x2="351.71" y2="689.86" gradientTransform="matrix(0.10787 0 0 0.1337 42.44 27.914)" xlink:href="#5"/><linearGradient id="F" gradientUnits="userSpaceOnUse" x1="201.39" y1="843.21" x2="547.81" y2="383.77" gradientTransform="matrix(-0.01286 0 0 0.01595 15.18 2.684)" xlink:href="#2"/><linearGradient id="8" gradientUnits="userSpaceOnUse" x1="-99.99" y1="-140.38" x2="-53.733" y2="-199.84" gradientTransform="matrix(-0.05318 0 0 0.02471 5.214 17.983)" xlink:href="#0"/><linearGradient id="E" gradientUnits="userSpaceOnUse" x1="204.63" y1="839.62" x2="546.3" y2="386.48" gradientTransform="matrix(-0.01285 0 0 0.01596 15.18 2.684)" xlink:href="#2"/><linearGradient id="9" gradientUnits="userSpaceOnUse" x1="741.64" y1="169.44" x2="622.33" y2="287.74" gradientTransform="matrix(-0.01011 0 0 0.01254 13.692 6.649)" xlink:href="#5"/><linearGradient id="7" gradientUnits="userSpaceOnUse" x1="-35.703" y1="-357.06" x2="-35.492" y2="-426.31" gradientTransform="matrix(-0.07553 0 0 0.0174 5.214 17.983)" xlink:href="#6"/><linearGradient id="2" gradientUnits="userSpaceOnUse" x1="207.87" y1="836.03" x2="544.79" y2="389.19" gradientTransform="matrix(-0.01023 0 0 0.01273 12.461 3.484)"><stop stop-color="#000" stop-opacity="0.07"/><stop offset="1" stop-color="#000" stop-opacity="0"/></linearGradient><linearGradient id="6" gradientUnits="userSpaceOnUse" x1="242.42" y1="787.27" x2="148.12" y2="490.8" gradientTransform="matrix(-0.01658 0 0 0.00855 11.872 3.146)"><stop stop-color="#fff" stop-opacity="0"/><stop offset="1" stop-color="#fff"/></linearGradient><linearGradient id="3" gradientUnits="userSpaceOnUse" x1="204.63" y1="839.62" x2="546.3" y2="386.48" gradientTransform="matrix(-0.01024 0 0 0.01272 12.461 3.484)" xlink:href="#2"/><linearGradient id="5" gradientUnits="userSpaceOnUse" x1="728.97" y1="230.07" x2="351.71" y2="689.86" gradientTransform="matrix(-0.10787 0 0 0.1337 85.99 27.877)"><stop stop-color="#d9d9d9"/><stop offset="0.349" stop-color="#f1f1f1"/><stop offset="1" stop-color="#efefef"/></linearGradient><linearGradient id="4" gradientUnits="userSpaceOnUse" x1="201.39" y1="843.21" x2="547.81" y2="383.77" gradientTransform="matrix(-0.01025 0 0 0.01271 12.461 3.484)" xlink:href="#2"/><linearGradient id="D" gradientUnits="userSpaceOnUse" x1="207.87" y1="836.03" x2="544.79" y2="389.19" gradientTransform="matrix(-0.01284 0 0 0.01597 15.18 2.684)" xlink:href="#2"/><linearGradient id="G" gradientUnits="userSpaceOnUse" x1="728.97" y1="230.07" x2="351.71" y2="689.86" gradientTransform="matrix(-0.13528 0 0 0.16769 118.32 27.933)" xlink:href="#5"/><linearGradient id="J" gradientUnits="userSpaceOnUse" x1="-99.99" y1="-140.38" x2="-53.733" y2="-199.84" gradientTransform="matrix(-0.0667 0 0 0.031 6.09 20.869)" xlink:href="#0"/><linearGradient id="O" gradientUnits="userSpaceOnUse" x1="207.87" y1="836.03" x2="544.79" y2="389.19" gradientTransform="matrix(0.01023 0 0 0.01273 10.839 3.487)" xlink:href="#2"/><linearGradient id="Q" gradientUnits="userSpaceOnUse" x1="201.39" y1="843.21" x2="547.81" y2="383.77" gradientTransform="matrix(0.01025 0 0 0.01271 10.839 3.487)" xlink:href="#2"/><linearGradient id="P" gradientUnits="userSpaceOnUse" x1="204.63" y1="839.62" x2="546.3" y2="386.48" gradientTransform="matrix(0.01024 0 0 0.01272 10.839 3.487)" xlink:href="#2"/><linearGradient id="K" gradientUnits="userSpaceOnUse" x1="741.64" y1="169.44" x2="622.33" y2="287.74" gradientTransform="matrix(-0.01268 0 0 0.01572 16.723 6.655)" xlink:href="#5"/><linearGradient id="I" gradientUnits="userSpaceOnUse" x1="-35.703" y1="-357.06" x2="-35.492" y2="-426.31" gradientTransform="matrix(-0.09473 0 0 0.02183 6.09 20.869)" xlink:href="#6"/><linearGradient id="H" gradientUnits="userSpaceOnUse" x1="242.42" y1="787.27" x2="148.12" y2="490.8" gradientTransform="matrix(-0.02079 0 0 0.01073 14.44 2.261)" xlink:href="#6"/><mask id="j"><g filter="url(#1)"><use xlink:href="#i"/></g></mask><mask id="C"><g filter="url(#1)"><use xlink:href="#B"/></g></mask><mask id="N"><g filter="url(#1)"><use xlink:href="#M"/></g></mask><mask id="Y"><g filter="url(#1)"><use xlink:href="#X"/></g></mask><radialGradient id="0" gradientUnits="userSpaceOnUse" cx="90.43" cy="47.761" r="56.05" gradientTransform="matrix(0.07544 0 0 0.07883 4.905 6.89)"><stop stop-color="#fff"/><stop offset="1" stop-color="#fff" stop-opacity="0"/></radialGradient></defs><path d="m 22.25 5.922 c -18.13 -21.02 -35.566 22.2 -7.523 17.754 c 6.148 -0.973 12.41 -12.09 7.523 -17.754" fill="#006300"/><use xlink:href="#t"/></svg>