<svg xmlns="http://www.w3.org/2000/svg" viewBox="0 0 24 24"><path d="m 21.551 18.32 c 8.551 -12.199 -7.242 -24.563 -17.32 -14.621 c -9.492 9.367 -0.691 23.922 11.121 19.371 c 2.465 -0.949 4.629 -2.508 6.199 -4.746" fill="#ff8c00"/><path d="m 133.88 194.25 c -0.75 -0.708 -1.125 -11.958 -0.542 -15.04 c 3.417 -6 7.125 -9.542 12.375 -15.583 c 0.708 -0.667 6.667 -0.083 7.625 0.208 c 7.917 6.625 -1.25 25.375 -5.292 29.583 c -3 0.5 -11.458 1.917 -14.167 0.833" transform="scale(0.09375)" fill="#f4f4f4" stroke="#f4f4f4" stroke-width="0.577"/><g transform="matrix(0.09375 0 0 0.09375 0.283 0.142)"><path d="m 96.19 120.48 c -6.792 -8.458 -9.292 -14.583 1.458 -11.583 c 2.042 2.375 7.958 5.417 14.75 5.458 h 5.667 c 14.25 -6.917 2.458 4.708 2.417 5.708 c 0 1.292 -2.625 3.292 -12.833 3.292 c -10.375 0 -11.458 -1.5 -11.458 -2.875" fill="#ce812d" stroke="#ce812d" stroke-width="1.516"/><g fill="#e8c095" stroke="#e8c095"><path d="m 109.23 143.69 c -19.708 -2.542 -34.08 -9.958 -40.792 -23.5 c -2.833 -5.792 -10.04 -8.125 -10.04 -14.625 c 0.042 -6.25 -0.25 -5.542 -0.625 -11.08 c -1.333 -19.08 55.38 -28.12 86.79 -21.5 c 23.792 5 54.29 12.08 53.667 25 c -1.083 23 3.708 42.75 -16.17 39.42 c -24.583 -4.083 -66.37 7.125 -72.833 6.292" stroke-width="1.639"/><path d="m 93.27 191.11 c -0.208 -1.333 -21.04 3.75 -27.29 1.5 c -3.458 -1.25 -6.5 -11.5 -6.458 -14.75 c 0 -3.167 -3.875 -11.625 -2.417 -14.5 c 7.917 -15.75 18.542 -0.083 32.375 0.042 c 12.25 0.125 19.583 -5.04 30.833 -2.25 c 2.625 4.667 5.625 32.542 -2.667 36.5 c -5.333 0.75 -23.25 0.042 -24.375 -6.542" stroke-width="1.042"/></g></g><path d="m 8.848 18.539 v -0.465 l -0.203 0.016 c -0.188 0.02 -0.203 0.035 -0.23 0.223 l -0.027 0.199 h -1.059 c -0.363 -0.078 -1.023 0.254 -1.086 -0.199 c -0.023 -0.18 -0.047 -0.207 -0.219 -0.23 c -0.34 -0.004 -0.207 -0.43 -0.215 -0.691 l -0.027 -0.664 l -0.203 -0.02 l -0.207 -0.016 v -1.832 l 0.422 -0.02 l 0.422 -0.016 c 0.02 -0.133 0.035 -0.27 0.055 -0.402 h 1.25 c 0.016 0.133 0.035 0.27 0.055 0.402 l 0.406 0.031 l 0.406 0.027 l 0.027 0.203 c 0.027 0.184 0.043 0.199 0.219 0.199 c 0.176 0 0.191 -0.016 0.215 -0.199 c 0.07 -0.328 0.406 -0.188 0.41 -0.461 c 0 -0.188 -0.016 -0.207 -0.191 -0.23 c -0.25 -0.082 -0.215 -0.199 -0.246 -0.434 l -0.406 -0.027 c -0.285 -0.02 -0.395 0.051 -0.434 -0.23 c -0.098 -0.129 -0.605 -0.688 -0.652 -0.695 c -0.168 -0.023 -0.191 -0.051 -0.219 -0.23 c -0.301 -0.477 -0.387 0.012 -0.434 -0.691 l -0.027 -0.43 l -0.188 -0.031 c -0.172 -0.023 -0.195 -0.051 -0.219 -0.23 c -0.066 -0.32 -0.398 -0.195 -0.434 -0.461 c -0.027 -0.184 -0.043 -0.203 -0.23 -0.219 c -0.438 -0.004 -0.207 -0.832 -0.207 -1.164 c 0.09 -0.367 -0.27 -1.121 0.207 -1.16 l 0.203 -0.02 l 0.027 -0.434 c -0.008 -0.441 0.02 -0.43 0.434 -0.461 l 0.406 -0.027 l 0.027 -0.203 c -0.004 -0.344 0.387 -0.215 0.652 -0.23 l 0.625 -0.027 l 0.027 -0.434 c 0.02 -0.277 -0.063 -0.418 0.219 -0.461 c 0.105 -0.16 0.641 -0.648 0.648 -0.691 c -0.004 -0.285 0.191 -0.211 0.438 -0.23 c 0.285 -0.016 0.395 0.055 0.434 -0.23 c -0.004 -0.285 0.188 -0.211 0.434 -0.23 l 0.406 -0.027 l 0.02 -0.215 c -0.012 -0.445 0.766 -0.219 1.094 -0.219 c 0.965 0.293 1.043 -0.496 1.117 0.434 l 0.621 0.027 c 0.32 0.043 0.605 -0.117 0.652 0.23 c -0.004 0.289 0.191 0.215 0.438 0.23 c 0.285 0.02 0.395 -0.051 0.434 0.23 c 0.559 0.129 0.605 0.688 0.652 0.691 c 0.316 0.074 0.168 0.422 0.434 0.461 c 0.316 0.074 0.168 0.422 0.434 0.461 c 0.168 0.027 0.195 0.055 0.219 0.23 l 0.027 0.203 l 0.625 0.027 c 0.316 0.043 0.602 -0.117 0.648 0.23 c 0.027 0.18 0.051 0.207 0.219 0.23 c 0.316 0.074 0.172 0.422 0.434 0.461 c 0.172 0.027 0.195 0.055 0.219 0.23 c 0.023 0.188 0.043 0.203 0.23 0.223 l 0.203 0.016 v 3.215 l -0.203 0.016 l -0.203 0.02 v 1.324 l 0.203 0.02 c 0.434 0.348 0.684 3.129 0 3.246 c -0.188 0.02 -0.207 0.035 -0.23 0.223 c -0.066 0.32 -0.398 0.195 -0.434 0.461 c -0.066 0.32 -0.398 0.195 -0.438 0.461 c 0.004 0.285 -0.188 0.211 -0.434 0.23 l -0.406 0.027 l -0.027 0.203 c 0.023 0.426 -1.344 0.223 -1.738 0.23 l -1.711 0.027 c -0.012 0.145 -0.023 0.289 -0.035 0.434 h -4.773 m 2.293 -0.559 c 0.191 -0.031 0.199 -0.047 0.234 -0.309 c 0.02 -0.152 0.02 -0.422 -0.004 -0.602 l -0.035 -0.324 l -0.594 -0.953 l -0.641 0.039 c 0 0.48 -0.523 0.457 -0.578 0.715 c -0.035 0.227 0.129 1.18 -0.035 1.184 c -0.164 0 -0.117 0.219 0.055 0.246 c 0.242 0.039 1.383 0.043 1.598 0.004 m 2.473 -0.375 c 0.051 -0.328 0.543 -0.395 0.559 -0.691 c 0 -0.063 0.039 -0.105 0.098 -0.105 c 0.191 0 0.23 -0.117 0.23 -0.754 c 0 -0.336 -0.016 -0.734 -0.035 -0.879 c -0.004 -0.438 -0.781 -0.332 -0.781 -0.105 c 0 0.086 -0.035 0.211 -0.078 0.273 c -0.066 0.121 -0.082 0.25 -0.176 0.313 c -0.125 0 -0.344 0.227 -0.344 0.355 c 0 0.078 -0.043 0.105 -0.152 0.105 c -0.254 0 -0.281 0.082 -0.281 0.809 c 0 0.441 0.02 0.691 0.063 0.734 c 0.039 0.039 0.219 0.07 0.418 0.07 c 0.289 0 0.375 -0.023 0.48 -0.125 m -4.383 -0.219 c 0 -0.156 -0.086 -0.902 -0.23 -0.902 c -0.145 0 -0.383 0.238 -0.098 0.902 c 0.063 0.141 0.02 0.172 0.164 0.172 c 0.145 0 0.164 -0.02 0.164 -0.172 m -1.738 -0.02 c 0 -0.164 0.094 -0.27 0.246 -0.27 c 0.152 0 0.188 -0.25 0.188 -1.363 v -0.828 h -0.324 c 0.25 0.668 -0.379 1.25 -0.598 0.941 l -0.559 0.004 l -0.555 0.008 l -0.02 0.152 c -0.016 0.141 0.004 0.156 0.191 0.176 l 0.207 0.016 l 0.012 0.348 c 0.008 0.188 0.027 0.48 0.047 0.648 l 0.031 0.301 h 0.566 c 0.555 0 0.566 -0.004 0.566 -0.133 m 9.18 -1.363 c 0.023 -0.18 0.047 -0.207 0.215 -0.23 l 0.191 -0.031 v -1.785 l -0.191 -0.027 l -0.188 -0.031 l -0.027 -0.43 l -0.027 -0.434 l -0.406 -0.027 l -0.41 -0.031 l -0.027 -0.199 c -0.023 -0.188 -0.039 -0.203 -0.215 -0.203 c -0.176 0 -0.195 0.016 -0.219 0.203 l -0.027 0.199 l -0.406 0.031 l -0.41 0.027 c -0.008 0.363 -0.184 0.414 -0.461 0.434 l -0.406 0.027 v 0.203 c 0 0.184 0.016 0.203 0.191 0.23 c 0.133 0.094 0.637 0.648 0.641 0.699 c 0.016 0.203 0.027 0.215 0.215 0.23 l 0.203 0.02 l 0.016 0.605 c 0.008 0.332 0.023 0.637 0.039 0.676 c 0.02 0.059 0.219 0.07 0.852 0.059 l 0.832 -0.016 m -7.02 -0.301 c 0.02 -0.121 0.035 -0.289 0.035 -0.375 c 0 -0.137 -0.02 -0.16 -0.164 -0.16 c -0.141 0 -0.16 0.023 -0.16 0.16 c 0 0.352 0.066 0.59 0.16 0.59 c 0.066 0 0.105 -0.063 0.129 -0.215 m 1.773 -0.359 c 0 -0.156 -0.02 -0.176 -0.164 -0.176 c -0.145 0 -0.16 0.02 -0.16 0.176 c 0 0.152 0.039 0.48 0.184 0.48 c 0.145 0 0.141 -0.328 0.141 -0.48 m -5.215 -0.461 c 0 -0.156 -0.02 -0.176 -0.164 -0.176 c -0.145 0 -0.16 0.02 -0.16 0.176 c 0 0.152 0.063 0.391 0.207 0.391 c 0.145 0 0.117 -0.238 0.117 -0.391 m 4.543 0.02 c 0 -0.152 -0.215 -0.195 -0.359 -0.195 c -0.145 0 -0.297 0.063 -0.297 0.219 c 0 0.152 0.152 0.438 0.297 0.438 c 0.145 0 0.359 -0.309 0.359 -0.461 m -3.672 -0.48 c 0 -0.156 -0.02 -0.176 -0.164 -0.176 c -0.145 0 -0.316 0.176 -0.316 0.328 c 0 0.152 0.191 0.527 0.336 0.527 c 0.148 0 0.145 -0.527 0.145 -0.68 m 5.641 -1.844 c 0.023 -0.199 0.098 -0.281 0.27 -0.301 c 0.25 -0.105 0.18 -0.418 0.441 -0.461 c 0.102 -0.012 0.141 -0.059 0.156 -0.172 c 0.02 -0.184 0.094 -0.262 0.281 -0.289 l 0.133 -0.02 v -3.051 l -0.133 -0.02 c -0.133 -0.063 -0.711 -0.723 -0.715 -0.762 l -0.02 -0.141 l -1.652 -0.016 c -1.063 -0.012 -1.676 -0.039 -1.723 -0.078 c -0.035 -0.031 -0.074 -0.129 -0.086 -0.215 l -0.016 -0.152 h -0.57 c -0.566 0 -0.57 0 -0.59 0.141 c -0.023 0.195 -0.105 0.289 -0.25 0.289 c -0.117 0 -0.121 0.031 -0.156 0.598 c -0.039 0.715 -0.063 0.781 -0.25 0.824 c -0.234 0.09 -0.203 0.379 -0.418 0.449 c -0.141 0.043 -0.176 0.09 -0.203 0.258 c -0.043 0.273 -0.043 1.305 0 1.637 c 0.031 0.23 0.055 0.27 0.156 0.27 c 0.145 0 0.227 0.09 0.254 0.285 c 0.012 0.109 0.055 0.152 0.164 0.164 c 0.172 0.02 0.242 0.102 0.27 0.297 l 0.02 0.145 l 0.781 0.016 c 0.82 0.02 0.93 0.051 0.93 0.27 c 0 0.07 0.016 0.148 0.035 0.168 c 0.023 0.023 0.676 0.031 1.453 0.023 l 1.418 -0.016 m -1.297 -2.262 c -0.016 -0.055 -0.012 -0.371 0.008 -0.703 l 0.039 -0.605 l 0.391 -0.051 c 0.566 -0.074 0.582 -0.055 0.547 0.719 c -0.016 0.34 -0.043 0.645 -0.066 0.68 c -0.02 0.039 -0.211 0.063 -0.465 0.063 c -0.359 0 -0.43 -0.016 -0.453 -0.102 m -2.988 -0.445 c -0.059 -0.168 -0.035 -0.809 0.031 -0.883 c 0.168 -0.094 0.367 -0.051 0.371 -0.23 c 0 -0.199 0.086 -0.297 0.273 -0.297 c 0.238 0 0.285 0.117 0.242 0.602 c -0.031 0.258 0.059 0.418 -0.211 0.445 c -0.148 0.016 -0.176 0.043 -0.199 0.219 c -0.059 0.273 -0.352 0.293 -0.508 0.145 m 9.04 2.102 c 0 -0.219 0.191 -0.344 0.535 -0.344 c 0.305 0 0.313 -0.004 0.363 -0.188 c 0.039 -0.141 0.098 -0.199 0.23 -0.242 l 0.176 -0.055 v -2.949 l -0.176 -0.055 c -0.129 -0.039 -0.191 -0.102 -0.227 -0.234 c -0.086 -0.25 -0.375 -0.25 -0.438 -0.469 l -0.051 -0.188 h -0.969 c -0.93 0 -0.965 0.004 -0.965 0.113 c 0 0.16 -0.191 0.348 -0.352 0.348 c -0.109 0 -0.137 0.027 -0.137 0.137 c 0 0.16 -0.086 0.246 -0.273 0.277 c -0.117 0.016 -0.141 0.055 -0.172 0.305 c -0.047 0.383 -0.055 1.938 -0.008 2.383 c 0.031 0.324 0.047 0.355 0.16 0.355 c 0.152 0 0.348 0.188 0.348 0.332 c 0 0.07 0.063 0.125 0.176 0.16 c 0.133 0.043 0.191 0.102 0.23 0.242 l 0.051 0.188 h 0.75 c 0.711 0 0.746 -0.004 0.746 -0.117 m -1.629 -0.883 c 0 -0.211 -0.066 -0.27 -0.305 -0.27 h -0.133 l 0.016 -0.934 l 0.016 -0.938 l 0.164 -0.027 c 0.27 -0.102 0.188 -0.426 0.461 -0.473 c 0.102 -0.012 0.141 -0.063 0.164 -0.191 c 0 -0.281 0.266 -0.172 0.488 -0.172 c 0.293 0.012 0.461 -0.113 0.461 0.199 v 0.203 l -0.406 0.059 c -0.383 0.055 -0.41 0.066 -0.41 0.203 c 0 0.109 0.035 0.148 0.137 0.16 c 0.195 0.031 0.273 0.117 0.273 0.297 c -0.004 0.344 -0.395 0.23 -0.426 0.473 c -0.02 0.184 -0.098 0.262 -0.281 0.289 c -0.129 0.016 -0.137 0.035 -0.137 0.391 c 0 0.363 0.004 0.379 0.145 0.395 c 0.191 0.023 0.277 0.137 0.254 0.34 c -0.016 0.145 -0.039 0.164 -0.25 0.18 c -0.23 0.016 -0.23 0.016 -0.23 -0.184 m -9.609 -1.664 c 0.004 -0.199 0.02 -0.477 0.043 -0.621 c 0.031 -0.242 0.047 -0.262 0.227 -0.289 l 0.188 -0.027 l 0.016 -0.445 c 0.016 -0.445 0.02 -0.449 0.164 -0.449 c 0.211 0 0.273 -0.059 0.293 -0.285 c 0.016 -0.172 0.039 -0.207 0.168 -0.223 c 0.117 -0.012 0.148 -0.047 0.148 -0.156 c 0 -0.133 -0.02 -0.141 -0.316 -0.141 c -0.309 0 -0.316 0.004 -0.367 0.188 c -0.074 0.258 -0.371 0.25 -0.434 0.469 c -0.039 0.129 -0.098 0.195 -0.223 0.23 c -0.148 0.047 -0.176 0.09 -0.227 0.348 c -0.039 0.195 -0.043 0.434 -0.008 0.723 c 0.027 0.238 0.051 0.57 0.051 0.738 c 0 0.281 0.012 0.301 0.137 0.301 c 0.133 0 0.137 -0.016 0.141 -0.359" fill="#643101"/><g fill="#ff7f7f" stroke="#ff7f7f" stroke-width="2"><path d="m 139.83 124.22 c -0.017 2.394 -2.362 4.333 -5.258 4.359 c -2.919 -0.021 -5.264 -1.975 -5.257 -4.333 c -0.016 -2.405 2.329 -4.344 5.258 -4.359 c 2.886 0.01 5.241 1.928 5.257 4.333" transform="matrix(0.10817 -0.03281 0.03012 0.09931 -5.852 3.853)"/><path d="m 139.84 124.23 c -0.026 2.392 -2.367 4.312 -5.299 4.323 c -2.894 -0.007 -5.248 -1.917 -5.239 -4.35 c -0.012 -2.374 2.367 -4.312 5.261 -4.306 c 2.894 0.007 5.248 1.917 5.277 4.332" transform="matrix(0.08646 0.03761 -0.03498 0.08043 0.923 -4.059)"/></g></svg>