<svg xmlns="http://www.w3.org/2000/svg" viewBox="0 0 24 24"><path d="m 3.043 6.289 c -8.488 9.59 4.074 19.738 11.438 17.242 c 7.359 -2.492 12.305 -9.535 7.496 -15.707 c -4.805 -6.176 -9.531 -12.13 -18.02 -2.543" fill="#0a0a0a"/><g fill="#d7d7d7"><path d="m 7.207 16.652 c -0.281 -0.219 -0.289 -0.258 -0.227 -0.93 c 0.16 -1.703 0.141 -1.637 0.785 -2.313 c 0.758 -0.793 1.254 -1.414 1.668 -2.105 c 0.18 -0.297 0.586 -0.871 0.906 -1.273 c 0.527 -0.664 0.594 -0.809 0.711 -1.527 c 0.145 -0.902 0.414 -1.805 0.539 -1.805 c 0.047 0 0.688 -0.59 0.754 0.031 c 0.039 0.402 -0.035 0.707 0.02 1.016 c 0.109 0.609 0.195 0.652 0.156 1.828 c -0.031 0.848 0.098 0.883 0.039 2.109 c -0.051 1.094 -0.195 0.84 -0.199 2.066 c -0.004 1.309 0.195 1.348 0.211 1.887 l 0.203 0.609 l -0.406 0.332 c -0.156 0.125 -0.371 0.227 -0.625 0.234 c -0.355 0.012 -0.43 -0.031 -0.703 -0.438 c -0.398 -0.586 -0.629 -0.582 -1.855 0.027 c -1.082 0.539 -1.539 0.598 -1.98 0.25"/><path d="m 15.352 16.816 c -0.406 -0.258 -0.836 -0.543 -1.23 -0.719 c -0.324 -0.145 -0.719 -0.418 -0.883 -0.613 c -0.281 -0.332 -0.289 -0.387 -0.227 -1.094 c 0.039 -0.41 -0.137 -1.094 -0.102 -1.648 c 0.078 -1.219 0.383 -1.484 0.832 -1.48 c 0.297 0 0.418 0.105 0.988 0.832 c 0.422 0.543 0.91 1.012 1.395 1.352 c 0.98 0.621 0.957 1.043 1.031 2.027 c 0.07 0.996 0.059 1.078 -0.152 1.289 c -0.457 0.242 -1.246 0.254 -1.652 0.055"/></g></svg>