<svg xmlns="http://www.w3.org/2000/svg" xmlns:xlink="http://www.w3.org/1999/xlink" viewBox="0 0 24 24"><defs><g id="5" clip-path="url(#4)"><path d="m 5.816 6.973 v 6.98 l 6.09 -0.754 v -7.656" fill="url(#0)"/><path d="m 5.816 13.953 l 6.082 5.633 l 6.086 -5.637 l -6.082 -0.75" fill="url(#0)" fill-rule="evenodd"/><path d="m 11.906 5.543 l 6.078 1.43 v 6.973 l -6.078 -0.75" fill="url(#0)" fill-rule="evenodd"/><path d="m 5.816 6.973 l 6.082 4.938 l 6.086 -4.938 l -6.082 -1.43" fill="url(#1)"/><path d="m 11.898 11.914 v 7.672 l 6.086 -5.637 v -6.977" fill="url(#0)" fill-rule="evenodd"/><path d="m 5.816 6.973 l 6.082 4.938 v 7.676 l -6.082 -5.633" fill="url(#0)" fill-rule="evenodd"/><path d="m 2.479 283.98 l 14.452 12.924 l 14.461 -12.933 l -14.452 -1.891" transform="matrix(0.42084 0 0 0.43585 4.773 -109.82)" fill="none" stroke="url(#2)" stroke-linejoin="round" stroke-width="0.265"/><path d="m 2.479 267.97 l 14.452 11.167 l 14.461 -11.167 l -14.452 -3.28" transform="matrix(0.42084 0 0 0.43585 4.773 -109.82)" fill="none" stroke="url(#2)" stroke-width="0.265"/><path d="m 16.931 279.14 v 17.772 l 14.461 -12.942 v -15.998" transform="matrix(0.42084 0 0 0.43585 4.773 -109.82)" fill="none" stroke="url(#2)" stroke-linejoin="round" stroke-width="0.265"/><path d="m 2.479 267.97 l 14.452 11.167 v 17.772 l -14.452 -12.924" transform="matrix(0.42084 0 0 0.43585 4.773 -109.82)" fill="none" stroke="url(#2)" stroke-linejoin="round" stroke-width="0.265"/><path d="m 6.875 7.914 v 7.02 l 0.523 0.488 v -6.324 l 4.5 3.492 l 4.5 -3.492 v 6.324 l 0.523 -0.488 v -7.02 l -5.02 3.902" fill="#3e2c47" fill-rule="evenodd" fill-opacity="0.345"/><path d="m 7.398 15.418 v -6.324 l 4.5 3.492 l 4.5 -3.492 v 6.324 l -2.25 2.09 v -3.758 l -2.25 2.332 l -2.25 -2.332 v 3.758" fill="url(#3)" fill-rule="evenodd"/><path d="m 9.715 17.566 v -3.648 l 2.184 2.262 l 2.184 -2.262 v 3.648 l 0.133 -0.125 v -3.859 l -2.316 2.402 l -2.316 -2.402 v 3.859 m -2.117 -8.211 l 4.434 3.441 l 4.434 -3.441 v 6.25 l 0.133 -0.109 v -6.418 l -4.566 3.547 l -4.566 -3.547 v 6.402 l 0.133 0.125" fill="#fff" fill-rule="evenodd"/></g><clipPath id="4"><path d="M 0,0 H24 V24 H0 z"/></clipPath><linearGradient id="3" gradientUnits="userSpaceOnUse" x1="9.934" y1="25.772" x2="39.46" y2="25.987" gradientTransform="matrix(0.28484 0 0 0.295 5.058 5.487)"><stop stop-color="#fff" stop-opacity="0.525"/><stop offset="0.446" stop-color="#fff" stop-opacity="0.737"/><stop offset="0.476" stop-color="#fff"/><stop offset="0.503" stop-color="#fff" stop-opacity="0.718"/><stop offset="1" stop-color="#fff" stop-opacity="0.494"/></linearGradient><linearGradient id="2" gradientUnits="userSpaceOnUse" x1="16.721" y1="296.2" x2="17.09" y2="265.98"><stop stop-color="#fff" stop-opacity="0.025"/><stop offset="1" stop-color="#fff" stop-opacity="0.112"/></linearGradient><linearGradient id="1" gradientUnits="userSpaceOnUse" x1="16.907" y1="265.03" x2="17.03" y2="278.56" gradientTransform="matrix(0.42084 0 0 0.43585 4.773 -109.82)"><stop stop-color="#691262" stop-opacity="0.612"/><stop offset="1" stop-color="#d65cea" stop-opacity="0.98"/></linearGradient><linearGradient id="0" gradientUnits="userSpaceOnUse" x1="16.791" y1="294.05" x2="16.839" y2="271.45" gradientTransform="matrix(0.42084 0 0 0.43585 4.773 -109.82)"><stop stop-color="#fd53b9"/><stop offset="1" stop-color="#712f97" stop-opacity="0.996"/></linearGradient></defs><path d="m 3.043 17.871 c -8.488 -9.59 4.074 -19.738 11.438 -17.242 c 7.359 2.492 12.305 9.535 7.496 15.707 c -4.805 6.176 -9.531 12.13 -18.02 2.543" fill="#d970d6"/><use xlink:href="#5"/></svg>