<svg xmlns="http://www.w3.org/2000/svg" xmlns:xlink="http://www.w3.org/1999/xlink" viewBox="0 0 24 24"><defs><g id="3" clip-path="url(#2)"><path d="m 123.26 312.08 c 0 130.89 -105.96 237.14 -236.86 237.37 c -130.9 0.35 -237.33 -105.32 -237.92 -236.2 c -0.588 -130.89 104.79 -237.6 235.68 -238.54 c 130.9 -0.934 237.8 104.27 239.09 235.15" transform="matrix(0.03321 0 0 0.03346 15.597 1.618)" fill="#e5e5e5" stroke="#aaa" stroke-width="2.999"/></g><g id="6" clip-path="url(#5)"><path d="m 304.3 252.87 c 0 81.88 -66.3 148.31 -148.25 148.52 c -81.85 0.216 -148.47 -65.891 -148.9 -147.77 c -0.432 -81.985 65.54 -148.74 147.5 -149.28 c 81.955 -0.648 148.79 65.13 149.66 147.12" transform="matrix(0.03618 0 0 0.03616 6.265 3.02)" stroke-opacity="0.867" fill="#fff" stroke="#ddd" stroke-linejoin="round" stroke-width="4.657"/></g><clipPath id="2"><path d="M 0,0 H24 V24 H0 z"/></clipPath><clipPath id="5"><path d="M 0,0 H24 V24 H0 z"/></clipPath><filter id="0" filterUnits="objectBoundingBox" x="0" y="0" width="24" height="24"><feColorMatrix type="matrix" in="SourceGraphic" values="0 0 0 0 1 0 0 0 0 1 0 0 0 0 1 0 0 0 1 0"/></filter><mask id="4"><g filter="url(#0)"><path fill-opacity="0.988" d="M 0,0 H24 V24 H0 z"/></g></mask><mask id="1"><g filter="url(#0)"><path fill-opacity="0.988" d="M 0,0 H24 V24 H0 z"/></g></mask></defs><path d="m 1.504 17.645 c 4.906 11.137 22.75 6.168 22.34 -5.961 c -0.082 -11.02 -14.465 -15.203 -20.535 -7.352 c -3.051 3.398 -4.01 9.02 -1.805 13.313" fill="#9f522d" fill-opacity="0.996"/><use xlink:href="#3" mask="url(#1)"/><path d="m 19.328 12.07 c 0 4.141 -3.352 7.5 -7.496 7.508 c -4.141 0.012 -7.512 -3.332 -7.531 -7.473 c -0.02 -4.141 3.316 -7.516 7.457 -7.547 c 4.145 -0.031 7.531 3.297 7.57 7.438" fill="#fff" fill-opacity="0.988"/><g fill="#ccc"><path d="m 4.598 11.938 h 14.383 c 0.016 0 0.031 0.008 0.031 0.02 v 0.203 c 0 0.012 -0.016 0.02 -0.031 0.02 h -14.383 c -0.016 0 -0.027 -0.008 -0.027 -0.02 v -0.203 c 0 -0.012 0.012 -0.02 0.027 -0.02"/><path d="m 11.91 4.859 v 14.398 c 0 0.012 -0.004 0.02 -0.012 0.02 h -0.219 c -0.004 0 -0.012 -0.008 -0.012 -0.02 v -14.398 c 0 -0.012 0.008 -0.02 0.012 -0.02 h 0.219 c 0.008 0 0.012 0.008 0.012 0.02"/><path d="m 6.637 17.11 l 10.184 -10.184 c 0.008 -0.008 0.016 -0.008 0.02 -0.004 l 0.156 0.156 c 0.004 0.004 0.004 0.012 -0.004 0.02 l -10.188 10.18 c -0.008 0.008 -0.016 0.012 -0.02 0.008 l -0.156 -0.156 c -0.004 -0.004 0 -0.012 0.008 -0.02"/><path d="m 6.816 6.938 l 10.168 10.168 c 0.012 0.012 0.016 0.027 0.008 0.031 l -0.145 0.145 c -0.008 0.008 -0.023 0.004 -0.035 -0.008 l -10.168 -10.164 c -0.012 -0.012 -0.016 -0.027 -0.008 -0.035 l 0.145 -0.145 c 0.008 -0.008 0.023 -0.004 0.035 0.008"/><path d="m 4.617 12.59 l 14.324 -1.254 c 0.016 0 0.031 0.004 0.031 0.016 l 0.02 0.203 c 0 0.012 -0.012 0.02 -0.031 0.02 l -14.324 1.254 c -0.016 0 -0.031 -0.004 -0.031 -0.016 l -0.02 -0.203 c 0 -0.012 0.012 -0.02 0.031 -0.02"/><path d="m 11.281 4.91 l 1.254 14.32 c 0.004 0.02 -0.004 0.031 -0.016 0.031 l -0.203 0.02 c -0.008 0 -0.02 -0.012 -0.02 -0.027 l -1.254 -14.32 c 0 -0.02 0.004 -0.031 0.016 -0.031 l 0.203 -0.02 c 0.012 0 0.02 0.012 0.02 0.027"/><path d="m 7.094 17.566 l 9.262 -11.03 c 0.008 -0.008 0.016 -0.012 0.02 -0.008 l 0.168 0.141 c 0.004 0.004 0.004 0.016 -0.004 0.023 l -9.258 11.03 c -0.008 0.008 -0.016 0.008 -0.02 0.004 l -0.168 -0.141 c -0.004 -0.004 -0.004 -0.012 0 -0.02"/><path d="m 6.387 7.418 l 11.02 9.238 c 0.016 0.012 0.02 0.027 0.012 0.035 l -0.129 0.156 c -0.008 0.008 -0.023 0.004 -0.035 -0.008 l -11.02 -9.238 c -0.016 -0.012 -0.02 -0.027 -0.012 -0.035 l 0.129 -0.156 c 0.008 -0.008 0.023 -0.004 0.035 0.008"/><path d="m 4.711 13.172 l 14.164 -2.496 c 0.016 0 0.031 0.004 0.031 0.016 l 0.035 0.199 c 0.004 0.012 -0.008 0.02 -0.027 0.023 l -14.16 2.496 c -0.016 0.004 -0.031 -0.004 -0.035 -0.012 l -0.035 -0.203 c 0 -0.008 0.012 -0.02 0.027 -0.023"/><path d="m 10.684 4.945 l 2.496 14.156 c 0.004 0.016 0 0.031 -0.012 0.031 l -0.203 0.035 c -0.008 0.004 -0.02 -0.008 -0.02 -0.023 l -2.5 -14.16 c 0 -0.016 0.004 -0.031 0.016 -0.031 l 0.199 -0.035 c 0.012 -0.004 0.02 0.012 0.023 0.027"/><path d="m 7.621 17.906 l 8.25 -11.777 c 0.008 -0.012 0.023 -0.02 0.031 -0.012 l 0.168 0.117 c 0.008 0.004 0.008 0.02 -0.004 0.035 l -8.246 11.773 c -0.012 0.016 -0.023 0.02 -0.031 0.016 l -0.168 -0.117 c -0.008 -0.008 -0.008 -0.023 0 -0.035"/><path d="m 6.02 7.867 l 11.781 8.242 c 0.016 0.012 0.02 0.027 0.016 0.035 l -0.117 0.164 c -0.008 0.012 -0.023 0.008 -0.035 0 l -11.781 -8.246 c -0.012 -0.008 -0.02 -0.023 -0.016 -0.031 l 0.117 -0.168 c 0.008 -0.008 0.023 -0.008 0.035 0.004"/><path d="m 4.84 13.813 l 13.891 -3.723 c 0.016 -0.004 0.031 0 0.035 0.012 l 0.051 0.195 c 0.004 0.012 -0.008 0.023 -0.023 0.027 l -13.891 3.719 c -0.016 0.004 -0.031 0 -0.031 -0.008 l -0.055 -0.199 c -0.004 -0.008 0.008 -0.02 0.023 -0.023"/><path d="m 10.07 5.094 l 3.719 13.887 c 0.008 0.016 0 0.031 -0.008 0.031 l -0.199 0.055 c -0.008 0 -0.02 -0.008 -0.023 -0.027 l -3.723 -13.883 c -0.004 -0.016 0 -0.031 0.012 -0.035 l 0.195 -0.051 c 0.012 -0.004 0.023 0.008 0.027 0.023"/><path d="m 8.152 18.273 l 7.191 -12.449 c 0.008 -0.016 0.023 -0.023 0.031 -0.02 l 0.176 0.102 c 0.012 0.008 0.012 0.023 0 0.035 l -7.188 12.449 c -0.008 0.016 -0.023 0.023 -0.031 0.02 l -0.176 -0.102 c -0.012 -0.008 -0.012 -0.023 -0.004 -0.035"/><path d="m 5.688 8.41 l 12.453 7.188 c 0.016 0.008 0.023 0.023 0.016 0.031 l -0.102 0.176 c -0.004 0.008 -0.02 0.008 -0.035 0 l -12.453 -7.188 c -0.016 -0.008 -0.023 -0.023 -0.016 -0.031 l 0.102 -0.176 c 0.004 -0.008 0.02 -0.008 0.035 0"/><path d="m 5.219 14.957 l 13.03 -6.074 c 0.016 -0.008 0.031 -0.004 0.035 0.004 l 0.09 0.184 c 0.004 0.012 -0.008 0.023 -0.023 0.031 l -13.03 6.074 c -0.016 0.008 -0.031 0.004 -0.035 -0.004 l -0.086 -0.184 c -0.004 -0.012 0.004 -0.023 0.02 -0.031"/><path d="m 8.855 5.465 l 6.078 13.03 c 0.008 0.016 0.004 0.031 -0.004 0.035 l -0.184 0.086 c -0.012 0.004 -0.023 -0.004 -0.031 -0.02 l -6.078 -13.03 c -0.004 -0.016 -0.004 -0.031 0.004 -0.035 l 0.188 -0.086 c 0.008 -0.004 0.02 0.004 0.027 0.02"/><path d="m 9.258 18.777 l 4.918 -13.508 c 0.004 -0.016 0.016 -0.027 0.027 -0.023 l 0.191 0.07 c 0.008 0.004 0.012 0.02 0.008 0.035 l -4.922 13.508 c -0.004 0.016 -0.016 0.023 -0.027 0.02 l -0.191 -0.066 c -0.008 -0.004 -0.012 -0.02 -0.004 -0.035"/><path d="m 5.113 9.492 l 13.512 4.914 c 0.016 0.008 0.027 0.02 0.023 0.031 l -0.07 0.191 c -0.004 0.008 -0.02 0.012 -0.035 0.004 l -13.512 -4.914 c -0.016 -0.008 -0.027 -0.02 -0.023 -0.027 l 0.07 -0.191 c 0.004 -0.012 0.02 -0.016 0.035 -0.008"/><path d="m 5.508 15.539 l 12.457 -7.188 c 0.012 -0.008 0.027 -0.008 0.035 0.004 l 0.102 0.176 c 0.004 0.008 -0.004 0.023 -0.02 0.031 l -12.453 7.188 c -0.016 0.008 -0.031 0.008 -0.035 0 l -0.102 -0.18 c -0.004 -0.008 0.004 -0.02 0.016 -0.031"/><path d="m 8.305 5.766 l 7.191 12.449 c 0.008 0.016 0.008 0.031 0 0.035 l -0.18 0.102 c -0.008 0.008 -0.02 0 -0.027 -0.016 l -7.191 -12.449 c -0.008 -0.016 -0.008 -0.031 0 -0.035 l 0.176 -0.102 c 0.012 -0.004 0.023 0.004 0.031 0.016"/><path d="m 9.863 18.992 l 3.723 -13.887 c 0.004 -0.016 0.016 -0.027 0.027 -0.023 l 0.195 0.055 c 0.012 0 0.016 0.016 0.012 0.031 l -3.723 13.887 c -0.004 0.016 -0.016 0.027 -0.027 0.023 l -0.195 -0.051 c -0.012 -0.004 -0.016 -0.02 -0.012 -0.035"/><path d="m 4.926 10.11 l 13.891 3.719 c 0.02 0.004 0.027 0.016 0.027 0.027 l -0.055 0.195 c -0.004 0.012 -0.016 0.016 -0.035 0.012 l -13.891 -3.723 c -0.016 -0.004 -0.023 -0.016 -0.023 -0.023 l 0.055 -0.199 c 0 -0.008 0.016 -0.012 0.031 -0.008"/><path d="m 5.844 16.03 l 11.777 -8.246 c 0.016 -0.012 0.031 -0.012 0.035 -0.004 l 0.117 0.168 c 0.008 0.008 0 0.023 -0.012 0.031 l -11.781 8.246 c -0.012 0.012 -0.031 0.012 -0.035 0.004 l -0.117 -0.168 c -0.004 -0.008 0 -0.023 0.016 -0.031"/><path d="m 7.777 6.05 l 8.246 11.773 c 0.012 0.016 0.012 0.031 0.004 0.035 l -0.168 0.117 c -0.008 0.008 -0.023 0 -0.031 -0.016 l -8.25 -11.773 c -0.008 -0.016 -0.012 -0.031 0 -0.035 l 0.164 -0.117 c 0.012 -0.008 0.023 0 0.035 0.016"/><path d="m 10.48 19.09 l 2.5 -14.156 c 0 -0.02 0.012 -0.031 0.023 -0.027 l 0.199 0.035 c 0.012 0 0.016 0.016 0.012 0.031 l -2.496 14.16 c -0.004 0.016 -0.012 0.027 -0.023 0.023 l -0.199 -0.035 c -0.012 0 -0.016 -0.016 -0.016 -0.031"/><path d="m 4.789 10.664 l 14.16 2.496 c 0.02 0.004 0.031 0.016 0.027 0.023 l -0.035 0.203 c 0 0.008 -0.016 0.016 -0.031 0.012 l -14.164 -2.496 c -0.016 -0.004 -0.027 -0.016 -0.027 -0.023 l 0.039 -0.203 c 0 -0.008 0.016 -0.016 0.031 -0.012"/><path d="m 6.23 16.555 l 11.02 -9.242 c 0.012 -0.012 0.027 -0.012 0.035 -0.004 l 0.129 0.156 c 0.008 0.008 0.004 0.023 -0.008 0.031 l -11.02 9.242 c -0.012 0.012 -0.027 0.012 -0.031 0.004 l -0.133 -0.156 c -0.008 -0.008 0 -0.023 0.012 -0.031"/><path d="m 7.285 6.441 l 9.246 11.01 c 0.008 0.016 0.012 0.031 0.004 0.035 l -0.156 0.133 c -0.008 0.004 -0.023 0 -0.035 -0.012 l -9.242 -11.01 c -0.012 -0.012 -0.012 -0.027 -0.004 -0.035 l 0.156 -0.133 c 0.008 -0.004 0.02 0 0.031 0.012"/><path d="m 11.12 19.2 l 1.254 -14.32 c 0.004 -0.016 0.012 -0.027 0.02 -0.027 l 0.207 0.02 c 0.008 0 0.016 0.012 0.016 0.031 l -1.254 14.32 c -0.004 0.016 -0.012 0.027 -0.023 0.027 l -0.203 -0.02 c -0.008 0 -0.016 -0.012 -0.016 -0.031"/><path d="m 4.711 11.301 l 14.328 1.254 c 0.016 0 0.027 0.008 0.027 0.02 l -0.016 0.203 c -0.004 0.012 -0.016 0.016 -0.035 0.016 l -14.324 -1.254 c -0.016 0 -0.027 -0.008 -0.027 -0.02 l 0.016 -0.203 c 0.004 -0.012 0.016 -0.016 0.031 -0.016"/><path d="m 5.355 8.852 l 13.04 6.074 c 0.016 0.008 0.023 0.02 0.02 0.031 l -0.086 0.184 c -0.004 0.008 -0.02 0.012 -0.035 0.004 l -13.04 -6.074 c -0.016 -0.008 -0.023 -0.023 -0.02 -0.031 l 0.086 -0.184 c 0.004 -0.012 0.02 -0.012 0.035 -0.004"/><path d="m 14.969 5.535 l -6.074 13.03 c -0.008 0.016 -0.023 0.023 -0.031 0.02 l -0.184 -0.086 c -0.012 -0.004 -0.012 -0.02 -0.004 -0.035 l 6.078 -13.03 c 0.004 -0.016 0.02 -0.023 0.027 -0.02 l 0.184 0.086 c 0.012 0.004 0.012 0.02 0.004 0.035"/><path d="m 5.03 14.398 l 13.512 -4.918 c 0.016 -0.008 0.031 -0.004 0.035 0.008 l 0.07 0.191 c 0.004 0.008 -0.008 0.02 -0.023 0.027 l -13.512 4.914 c -0.016 0.008 -0.031 0.004 -0.035 -0.004 l -0.07 -0.191 c -0.004 -0.012 0.008 -0.023 0.023 -0.027"/><path d="m 9.477 5.258 l 4.918 13.508 c 0.008 0.016 0.004 0.031 -0.004 0.035 l -0.191 0.066 c -0.012 0.004 -0.023 -0.004 -0.027 -0.02 l -4.922 -13.508 c -0.004 -0.016 0 -0.031 0.008 -0.035 l 0.191 -0.07 c 0.012 -0.004 0.023 0.008 0.027 0.023"/><path d="m 5.098 9.449 l 13.512 4.914 c 0.016 0.008 0.027 0.02 0.023 0.027 l -0.07 0.191 c -0.004 0.012 -0.02 0.016 -0.035 0.008 l -13.512 -4.914 c -0.016 -0.008 -0.027 -0.02 -0.023 -0.027 l 0.07 -0.195 c 0.004 -0.008 0.02 -0.012 0.035 -0.004"/><path d="m 14.383 5.305 l -4.918 13.512 c -0.004 0.016 -0.016 0.023 -0.027 0.02 l -0.191 -0.07 c -0.008 -0.004 -0.012 -0.016 -0.008 -0.035 l 4.922 -13.508 c 0.004 -0.016 0.016 -0.023 0.027 -0.02 l 0.191 0.07 c 0.008 0 0.012 0.016 0.004 0.031"/><path d="m 5.25 15 l 13.04 -6.074 c 0.016 -0.008 0.031 -0.004 0.035 0.004 l 0.086 0.184 c 0.004 0.012 -0.004 0.023 -0.02 0.031 l -13.04 6.074 c -0.016 0.008 -0.031 0.008 -0.035 -0.004 l -0.086 -0.184 c -0.004 -0.008 0.004 -0.023 0.02 -0.031"/><path d="m 8.891 5.508 l 6.074 13.03 c 0.008 0.016 0.008 0.031 -0.004 0.035 l -0.184 0.086 c -0.008 0.004 -0.023 -0.004 -0.027 -0.02 l -6.078 -13.03 c -0.008 -0.016 -0.008 -0.031 0.004 -0.035 l 0.184 -0.086 c 0.008 -0.004 0.023 0.004 0.031 0.02"/></g><path d="m 17.75 12.148 c 0 3.23 -2.613 5.852 -5.844 5.859 c -3.23 0.008 -5.855 -2.602 -5.871 -5.828 c -0.02 -3.23 2.586 -5.863 5.813 -5.887 c 3.23 -0.023 5.871 2.57 5.902 5.801" fill="#fff" fill-opacity="0.988"/><use xlink:href="#6" mask="url(#4)"/><g fill="#784420"><path d="m 16.559 11.445 c 0 2.438 -2.125 4.418 -4.742 4.418 c -2.621 0 -4.746 -1.98 -4.746 -4.418 c 0 -2.441 2.125 -4.418 4.746 -4.418 c 2.602 0 4.719 1.949 4.742 4.375"/><path d="m 8.648 10.465 c 0 0.695 -0.652 1.258 -1.461 1.258 c -0.809 0 -1.465 -0.563 -1.465 -1.258 c 0 -0.695 0.656 -1.254 1.465 -1.254 c 0.801 0 1.453 0.555 1.461 1.242"/><path d="m 17.898 10.527 c 0 0.691 -0.656 1.254 -1.465 1.254 c -0.809 0 -1.461 -0.563 -1.461 -1.254 c 0 -0.695 0.652 -1.258 1.461 -1.258 c 0.805 0 1.457 0.555 1.465 1.242"/><path d="m 9.414 7.824 l 1.238 -2.082 v 1.473"/><path d="m 10.469 7.301 l 1.809 -1.633 l -0.441 1.406"/><path d="m 11.434 7.094 l 2.141 -1.195 l -0.754 1.273"/></g><g fill="#fff"><path d="m 10.742 11.03 c 0 0.836 -0.355 1.516 -0.797 1.516 c -0.438 0.004 -0.797 -0.672 -0.801 -1.508 c 0 -0.836 0.355 -1.516 0.793 -1.523 c 0.441 -0.004 0.801 0.668 0.805 1.504"/><path d="m 14.199 11.04 c 0 0.836 -0.355 1.516 -0.797 1.52 c -0.438 0 -0.797 -0.676 -0.801 -1.512 c 0 -0.836 0.355 -1.516 0.793 -1.523 c 0.441 -0.004 0.801 0.668 0.805 1.504"/></g><path d="m 8.676 11.391 h 6.422 c 0.016 0 0.023 0.008 0.023 0.016 v 2.309 c 0 0.008 -0.008 0.016 -0.023 0.016 h -6.422 c -0.016 0 -0.027 -0.008 -0.027 -0.016 v -2.309 c 0 -0.008 0.012 -0.016 0.027 -0.016" fill="#784420"/><g fill="#e8c6af"><path d="m 16.273 14.426 c 0 1.137 -1.984 2.063 -4.43 2.063 c -2.449 0 -4.434 -0.926 -4.434 -2.063 c 0 -1.137 1.984 -2.063 4.434 -2.063 c 2.43 0 4.406 0.914 4.43 2.043"/><path d="m 12.773 12.199 c 0 0.457 -0.43 0.824 -0.961 0.824 c -0.535 0 -0.965 -0.367 -0.965 -0.824 c 0 -0.453 0.43 -0.824 0.965 -0.824 c 0.527 0 0.957 0.363 0.961 0.816"/></g><path d="m 11.789 12.07 c 0 0.141 -0.121 0.258 -0.266 0.258 c -0.148 0 -0.266 -0.117 -0.266 -0.262 c 0 -0.141 0.117 -0.258 0.266 -0.258 c 0.145 0 0.266 0.113 0.266 0.258"/><path d="m 12.496 12.09 c 0 0.145 -0.117 0.258 -0.266 0.258 c -0.145 0 -0.266 -0.117 -0.266 -0.258 c 0 -0.145 0.121 -0.262 0.266 -0.262 c 0.148 0 0.266 0.117 0.266 0.258"/><path d="m 32.07 1016.69 c 12.773 3.319 27.75 2.323 39.01 0" transform="matrix(0.16484 0 0 0.16478 3.546 -153.2)" stroke-opacity="0.941" fill="none" stroke="#00000f" stroke-linejoin="round" stroke-linecap="round" stroke-width="0.979"/></svg>