<svg xmlns="http://www.w3.org/2000/svg" viewBox="0 0 24 24"><path d="m 1.324 7.684 c -8.938 28.563 39.09 14.277 16.629 -5.293 c -4.5 -3.918 -14.219 -2.41 -16.629 5.293"/><g fill="#fff" stroke="#fff" stroke-width="0.954" transform="scale(0.09375)"><path d="m 36.75 185.63 c -1 -0.625 -1.667 -5.625 -1.75 -13.5 c -0.042 -7.04 0 -7.5 0.958 -8.5 c 1 -1 1.083 -1 2.458 -0.167 c 1.417 0.833 3.208 3.292 6.292 8.708 c 2.875 5.04 4.542 4.833 7.875 -1.083 c 3.5 -6.25 6.292 -9.08 7.75 -7.875 c 0.583 0.458 0.708 2.333 0.708 9.458 c -0.042 8.667 -0.375 12 -1.417 13.04 c -0.75 0.75 -1.5 -0.208 -2.625 -3.375 c -0.625 -1.75 -1.292 -2.792 -1.833 -2.875 c -0.958 -0.167 -3.375 2.167 -4.917 4.708 c -1.417 2.375 -2.708 2.333 -4.208 -0.125 c -1.458 -2.5 -4.833 -5.833 -5.5 -5.458 c -0.25 0.167 -0.583 1.167 -0.75 2.25 c -0.375 2.292 -1.542 5.208 -2.083 5.167 c -0.208 0 -0.625 -0.167 -0.958 -0.375"/><path d="m 68.25 183.42 c -0.625 -1.5 -1.458 -9.917 -1.458 -14.12 c 0 -1.792 0.25 -4.292 0.542 -5.458 c 0.583 -4.458 8.583 -1.958 12.25 -1.875 c 6.417 0.167 12 0.458 12.375 0.625 c 1.208 0.458 1.625 2.292 1.625 7.25 c 0 3.667 -0.125 4.792 -0.75 5.292 c -0.5 0.417 -3.167 0.75 -7.792 1 c -12 0.625 -12.417 0.792 -13.04 4.708 c -0.208 1.333 -0.625 2.708 -0.958 3.083 c -0.875 1.042 -2.333 0.792 -2.792 -0.5 m 18.458 -13.667 c 0.958 -1 -1.083 -1.583 -6 -1.708 c -5.875 -0.208 -7 -0.375 -6.458 1.667 c 0.5 1.958 2 1.875 6.292 1.792 c 3.958 -0.833 6.25 0.875 6.167 -1.75"/><path d="m 99.38 184.17 c -1.208 -1.208 -1.667 -4.833 -1.708 -12.917 c 0 -9.208 -0.458 -8.792 9.458 -9.208 c 4.333 -0.208 9.625 -0.208 11.792 0 c 3.375 0.292 4.04 0.5 4.667 1.417 c 0.833 1.292 0.5 2.875 -0.708 3.5 c -0.417 0.208 -4.542 0.542 -9.125 0.75 c -4.583 0.167 -8.583 0.417 -8.958 0.583 c -0.958 0.375 -1.792 3.417 -1.833 6.875 c -0.042 4.833 -0.042 4.833 9.917 5.208 c 8.167 0.292 10.875 0.792 10.875 1.958 c -0.042 2.208 -2.375 2.667 -14.458 2.708 c -8.25 0.042 -9.08 -0.042 -9.917 -0.875"/><path d="m 129.88 176.21 c -1.375 -0.25 -2.042 -1.583 -1.708 -3.333 c 0.125 -0.792 0.75 -0.875 6.833 -0.875 c 2.875 0.417 6.583 -1.667 6.875 1.708 c 0.083 1.292 -0.083 1.792 -0.708 2.042 c -1.083 0.417 -9.542 0.75 -11.292 0.458"/><path d="m 154.13 185.92 c -2.958 -0.167 -3.75 -1.292 -4 -1.583 c -1.333 -1.292 -2 -20.04 -0.792 -21.25 c 1.458 -1.458 21.417 -1.5 24.292 -0.083 c 1.667 0.875 1.917 7.833 -1.708 10.333 c -1.167 0.75 8.08 6.458 1.25 11.208 c -6 0.708 -13.667 1.583 -19.04 1.375 m 14 -6.625 c 0.583 -0.5 0.042 -0.417 0 -1.25 c -0.125 -1.792 -1.708 -1.958 -6.208 -2 c -5.292 -0.042 -6.708 -0.583 -6.458 2.042 c -0.458 2.25 0.042 2.417 6.208 2.083 c 3.25 -0.208 5.458 1.292 6.458 -0.875 m -0.375 -8.208 c 0.417 -1 0.583 -1.875 0.125 -2.292 c -0.625 -0.625 -9.375 -1.125 -11.292 -0.625 c -1.375 0.333 -1.417 4.208 -0.167 4.542 c 1.667 0.417 10.292 0.917 11.333 -1.625"/><path d="m 182.38 183.54 c -1.042 -2.542 -1.583 -15.625 -0.75 -18.458 c 0.833 -2.708 1.917 -2.958 13.792 -3 l 10.375 -0.083 c 2.542 6 -3.042 5.125 -7.875 5.583 c -4.5 0.125 -9.04 0.333 -9.125 0.917 c -0.75 3.5 0.083 3.792 7.958 2.917 c 4.292 -0.458 8.292 -0.458 8.833 -0.167 c 0.5 0.292 1.083 1.167 1.25 2 c 0.583 2.542 -0.167 2.833 -9.667 3.583 c -8.542 0.667 -8.833 -0.5 -9.167 2.417 c -0.292 3.125 4.625 1.375 8.667 1.667 c 2.458 0.208 12.667 -1.667 9.542 3.125 c -0.75 0.75 -2 0.917 -8.5 1.167 c -4.833 0.25 -9.667 0.333 -14.458 0.333 c -0.292 -0.667 -0.583 -1.333 -0.875 -2"/></g><path d="m 3.711 11.277 h 2.332 v 1.578 h -2.332" fill="#63b2cf"/><path d="m 6.875 9.09 h 2.336 v 3.742 h -2.336" fill="#7093cf"/><path d="m 10.121 7.359 h 2.332 v 5.449 h -2.332" fill="#948cd7"/><path d="m 13.363 5.293 h 2.332 v 7.535 h -2.332" fill="#e6a3b8"/><path d="m 16.551 7.16 h 2.332 v 5.676 h -2.332" fill="#fcb71b"/></svg>