<svg xmlns="http://www.w3.org/2000/svg" viewBox="0 0 24 24"><path d="m 2.98 19.586 c -5.84 -8.812 -1.129 -16.84 5.484 -18.746 c 8.898 -2.563 20.973 4.172 13.02 18.05 c -3.164 5.516 -14.34 6.977 -18.5 0.699" fill="#5c80f5"/><g fill="#fff" stroke="#fff" stroke-width="1.273" transform="scale(0.09375)"><path d="m 117.5 194.21 c -12.958 -3.625 -24.708 -13.417 -30 -24.875 c -4.75 -10.375 -5.04 -9.917 7.333 -10.25 l 10.708 -0.25 l 1.25 3 c 2.375 5.75 12.333 12.292 20.17 13.208 c 8.667 1.042 20.625 -5.125 24.708 -12.792 l 1.792 -3.375 h 10.417 c 10.25 0 10.375 0.042 10.375 2.292 c 0 4.208 -6 14.542 -12 20.583 c -4.083 4.125 -8.125 7 -13.5 9.583 c -6.917 3.375 -8.5 3.75 -16.875 4.04 c -6.167 0.208 -10.917 -0.167 -14.375 -1.167"/><path d="m 97.63 135.67 c -33.21 -0.542 -33.29 -0.583 -38.833 -7.333 c -3.75 -4.542 -5.917 -10.917 -4.125 -12 c 2.333 -1.458 46.38 -2.25 96.92 -1.75 c 27.583 0.292 50.917 0.875 51.875 1.25 c 2.167 0.875 1.625 3.917 -1.792 9.833 c -3.083 5.292 -6.833 7.875 -13.12 9 c -6.375 1.125 -51.33 1.625 -90.92 1"/><path d="m 103.42 92.63 c -0.542 -0.208 -2.625 -0.667 -4.667 -1 c -4.708 -0.792 -10.958 -6.417 -13.458 -12.08 c -3.125 -7.04 -4.583 -6.833 44.12 -6.833 c 46.833 0 46.833 0 44.833 5.333 c -1.667 4.333 -5.5 8.958 -9.875 11.875 l -3.875 2.583 l -28.08 0.25 c -15.417 0.125 -28.5 0.083 -29 -0.125"/></g></svg>