<svg xmlns="http://www.w3.org/2000/svg" viewBox="0 0 24 24"><path d="m 21.07 18.2 c -19.758 21.17 -32.21 -22.523 -5.977 -17.707 c 6.918 2.379 12.32 10.91 5.977 17.707" fill="#6990c0"/><path d="m 5.652 16.449 c 0 -0.18 0.773 -4.477 1.289 -7.152 c 0.184 -0.957 0.395 -1.859 0.469 -2 c 0.191 -0.367 0.617 -0.645 1.145 -0.742 c 0.754 -0.141 0.699 -0.191 3.508 3.211 c 1.523 1.848 1.891 2.25 1.973 2.168 c 0.023 -0.027 0.195 -0.875 0.379 -1.887 c 0.188 -1.016 0.398 -2.059 0.473 -2.32 c 0.148 -0.508 0.5 -0.914 0.934 -1.078 c 0.305 -0.117 1.074 -0.137 1.141 -0.031 c 0.023 0.039 -0.25 1.66 -0.605 3.602 c -1.07 5.828 -1.027 5.664 -1.629 6.113 c -0.262 0.195 -0.965 0.313 -1.336 0.219 c -0.156 -0.039 -0.945 -0.934 -2.434 -2.758 c -1.207 -1.484 -2.234 -2.699 -2.277 -2.699 c -0.043 0 -0.121 0.223 -0.176 0.496 c -0.863 4.406 -0.871 4.434 -1.379 4.766 c -0.133 0.086 -0.52 0.18 -0.855 0.207 c -0.535 0.043 -0.617 0.031 -0.617 -0.109 m 7.996 -2.219 c 0.066 -0.305 0.051 -0.434 -0.055 -0.559 c -0.078 -0.094 -1.094 -1.332 -2.254 -2.754 c -1.383 -1.695 -2.145 -2.555 -2.203 -2.496 c -0.051 0.051 -0.113 0.277 -0.137 0.504 l -0.043 0.41 l 2.199 2.68 c 1.211 1.473 2.246 2.664 2.305 2.645 c 0.055 -0.02 0.141 -0.211 0.188 -0.43" fill="#fff"/></svg>