<svg xmlns="http://www.w3.org/2000/svg" viewBox="0 0 24 24" xmlns:xlink="http://www.w3.org/1999/xlink"><defs><linearGradient id="6" gradientUnits="userSpaceOnUse" y1="23.568" x2="0" y2="19.17"><stop stop-color="#b37002"/><stop offset="1" stop-color="#6a4301"/></linearGradient><linearGradient id="5" gradientUnits="userSpaceOnUse" x1="14.681" y1="7.219" x2="38.694" y2="57.47"><stop stop-color="#fff"/><stop offset="1" stop-color="#fff" stop-opacity="0"/></linearGradient><linearGradient id="3" gradientUnits="userSpaceOnUse" x1="26.598" y1="16.853" x2="21.07" y2="-3.195" gradientTransform="matrix(0.30015 0 0 0.29942 4.123 5)"><stop stop-color="#fff" stop-opacity="0.573"/><stop offset="1" stop-color="#fff" stop-opacity="0"/></linearGradient><linearGradient id="1" gradientUnits="userSpaceOnUse" x1="9.804" y1="-2.423" x2="35.826" y2="37.941" gradientTransform="matrix(0.9413 0 0 0.95119 1.513 1.013)"><stop stop-color="#fff" stop-opacity="0.49"/><stop offset="1" stop-color="#fff" stop-opacity="0.185"/></linearGradient><linearGradient id="7" gradientUnits="userSpaceOnUse" y1="36.681" x2="0" y2="32.28" xlink:href="#6"/><linearGradient id="2" gradientUnits="userSpaceOnUse" x1="36.589" y1="10.541" x2="25.339" y2="25.988" gradientTransform="matrix(0.3308 0 0 0.32303 4.073 4.347)"><stop stop-color="#8c4003"/><stop offset="1" stop-color="#9f4d0a" stop-opacity="0"/></linearGradient><radialGradient id="4" gradientUnits="userSpaceOnUse" cx="25.502" cy="30.812" fx="27.733" fy="26.358" r="11.683" gradientTransform="matrix(-0.3224 0.25661 -0.15707 -0.18817 27.774 12.1)"><stop stop-color="#7f3003" stop-opacity="0"/><stop offset="1" stop-color="#7f3003" stop-opacity="0.502"/></radialGradient><radialGradient id="0" gradientUnits="userSpaceOnUse" cx="2.211" cy="9.609" fx="1.669" fy="8.871" r="12.333" gradientTransform="matrix(-1.40685 -0.02719 -0.02615 1.35303 28.408 13.1)"><stop stop-color="#7c2f03"/><stop offset="1" stop-color="#ff962f"/></radialGradient></defs><path d="m 18.273 22.316 c -11.164 5.836 -19.676 -5.398 -17.984 -17.07 c 1.199 -8.699 25.14 -6.293 23.531 6.328 c -0.527 6.262 -1.961 7.793 -5.547 10.742" fill="#ffa400"/><g stroke-linecap="round" stroke-width="1.09"><path d="m 24.631 27.483 c -0.234 0.678 0.182 1.252 0.872 1.618 c 1.393 0.757 2.915 -0.17 3.371 -1.657 c 0.781 -2.635 -0.247 -4.71 -2.447 -5.792 c -4.217 -2.061 -8.459 1.461 -9.917 5.388 c -2.212 5.936 2.212 12.472 8.355 14.01 c 9.214 2.322 18.12 -4.566 20.16 -13.19 c 2.928 -12.407 -6.559 -24.605 -18.741 -26.849 c -8.811 -1.618 -19.11 1.135 -25.899 7.06 c 1 9.993 7.757 15.434 15.253 19.426" transform="matrix(0.30015 0 0 0.29942 4.123 5)" fill="url(#0)" stroke="#582902"/><path d="m 25.738 28.02 c 0.495 0.496 1.51 0.378 1.978 -0.718 c 0.495 -1.135 0.495 -3.431 -1.614 -4.566 c -3.397 -1.84 -7.744 1.044 -8.902 5.623 c -1.223 4.827 2.993 10.593 7.952 11.676 c 8.733 1.892 16.737 -4.136 18.78 -12.485 c 2.746 -11.246 -5.466 -22.739 -17.648 -25.414 c -7.171 -1.592 -18.18 0.535 -24.793 6.471 c 1.132 8.858 7.613 14.168 14.264 17.808" transform="matrix(0.30015 0 0 0.29942 4.123 5)" fill="none" stroke="url(#1)"/></g><path d="m 11.332 5.902 c 0.598 1.496 0.898 3.293 0.297 5.086 c 0.387 0.199 0.906 0.391 1.047 0.586 c 0.746 -2.688 0.453 -4.477 -1.344 -5.672 m -3.289 0.223 c 0.992 1.129 2.352 3.141 2.316 5.01 c 0.457 -0.109 0.738 -0.32 1.156 -0.164 c -0.164 -2.262 -1.324 -4.52 -3.473 -4.844 m 5.984 0.676 c -0.117 2 -0.449 3.438 -1.199 4.938 c 0.176 0.297 0.434 0.586 0.363 0.918 c -0.016 0.055 -0.039 0.121 -0.074 0.18 c 0 0.004 -0.008 0.008 -0.012 0.012 l -0.227 0.656 c -0.008 0.004 -0.02 0.016 -0.031 0.02 c -0.004 0.004 -0.016 0.008 -0.02 0.012 l -0.602 0.453 c 1.203 0.148 4.199 -0.898 4.797 -2.695 c -1.215 0.922 -2.176 1.289 -3.453 1.797 c 0.902 -0.57 2.859 -2.105 2.711 -4.199 c -0.828 1.512 -1.898 2.633 -2.875 3.605 c 0.77 -1.211 2.121 -3.301 0.621 -5.695" fill="url(#2)" fill-rule="evenodd"/><path d="m 10.01 5.363 c -2.066 0.078 -4.059 0.781 -5.59 2.113 c 0.059 0.574 1.035 2.816 1.637 3.566 c 3.453 0.898 3.957 -6.5 11.01 -1.559 c -1.051 -1.949 -2.32 -3.266 -4.574 -3.863 c -0.66 -0.176 -1.793 -0.285 -2.484 -0.258" fill="url(#3)"/><g fill-rule="evenodd"><path d="m 9.555 14.836 c 1.891 2.609 8.02 0.145 7.547 -4.359 c 0.637 2.512 -0.449 4.758 -2.199 5.809 c -1.84 1.105 -4.32 0.957 -5.348 -1.449" fill="url(#4)"/><path d="m 10.619 11.622 v 31.01 h 29.01 v -31.01 l -4.01 -3.995 h -20.99" transform="matrix(0.21829 0 0 0.21317 9.858 9.343)" fill="#c17d11" stroke="#444328" stroke-linejoin="round" stroke-linecap="round"/><g fill="#e8b96e"><path d="m 13.1 11.1 l -0.813 0.813 l 0.262 0.051 h 5.633 l 0.219 -0.051 l -0.844 -0.813"/><path d="m 15.02 28.829 h 20.471 c 0.143 0 0.251 0.128 0.251 0.275 v 9.511 c 0 0.147 -0.107 0.275 -0.251 0.275 h -20.471 c -0.161 0 -0.268 -0.128 -0.268 -0.275 v -9.511 c 0 -0.147 0.107 -0.275 0.268 -0.275" transform="matrix(0.21829 0 0 0.21317 9.858 9.343)" stroke="#e8b96e" stroke-linejoin="round" stroke-linecap="round"/></g><path d="m 14.842 28.481 h 20.471 c 0.143 0 0.251 0.11 0.251 0.257 v 9.529 c 0 0.147 -0.107 0.275 -0.251 0.275 h -20.471 c -0.143 0 -0.268 -0.128 -0.268 -0.275 v -9.529 c 0 -0.147 0.125 -0.257 0.268 -0.257" transform="matrix(0.21829 0 0 0.21317 9.858 9.343)" fill="#b57610" stroke="#7a4f0a" stroke-linejoin="round" stroke-linecap="round"/></g><path d="m 11.675 12.06 v 29.595 h 26.895 v -29.595 l -3.4 -3.408 h -20.08 l -3.4 3.408" transform="matrix(0.21829 0 0 0.21317 9.858 9.343)" fill="none" stroke="url(#5)"/><g fill-rule="evenodd" stroke-linejoin="round" stroke-linecap="round" transform="matrix(0.21829 0 0 0.21317 9.858 9.343)"><path d="m 15.02 15.709 h 20.471 c 0.143 0 0.251 0.128 0.251 0.275 v 9.529 c 0 0.147 -0.107 0.257 -0.251 0.257 h -20.471 c -0.161 0 -0.268 -0.11 -0.268 -0.257 v -9.529 c 0 -0.147 0.107 -0.275 0.268 -0.275" fill="#e8b96e" stroke="#e8b96e"/><g stroke="#7a4f0a"><path d="m 14.842 15.361 h 20.471 c 0.143 0 0.251 0.128 0.251 0.275 v 9.511 c 0 0.147 -0.107 0.275 -0.251 0.275 h -20.471 c -0.143 0 -0.268 -0.128 -0.268 -0.275 v -9.511 c 0 -0.147 0.125 -0.275 0.268 -0.275" fill="#b57610"/><path d="m 21.821 21.573 h 6.585 c 0.054 0 0.089 0.037 0.089 0.092 v 3.628 c 0 0.055 -0.036 0.092 -0.089 0.092 h -6.585 c -0.036 0 -0.072 -0.037 -0.072 -0.092 v -3.628 c 0 -0.055 0.036 -0.092 0.072 -0.092" fill="url(#6)"/><path d="m 21.821 34.675 h 6.585 c 0.054 0 0.089 0.055 0.089 0.11 v 3.628 c 0 0.055 -0.036 0.092 -0.089 0.092 h -6.585 c -0.036 0 -0.072 -0.037 -0.072 -0.092 v -3.628 c 0 -0.055 0.036 -0.11 0.072 -0.11" fill="url(#7)"/></g></g></svg>