<svg xmlns="http://www.w3.org/2000/svg" viewBox="0 0 24 24"><path d="m 3.03 3.609 c -13.727 21.13 23.766 29.31 20.781 7.57 c -1.219 -8.863 -15.527 -15.652 -20.781 -7.57" fill="#2fa4f1"/><g fill="#fff" stroke="#fff" transform="scale(0.09375)"><path d="m 81.54 186.96 c -11.583 -2 -19.417 -6.083 -26.958 -14.08 c -11.08 -11.708 -15 -25.917 -11.125 -40.33 c 2.208 -8.208 4.875 -12.833 11 -19.17 c 4.625 -4.75 7.458 -6.625 16.417 -10.958 c 9.75 -4.625 11.417 -5.833 16.625 -11.667 c 13.333 -14.917 25.542 -20.792 43.29 -20.792 c 14.542 0 26.667 4.625 36.667 13.875 c 6.333 5.875 9.875 11.542 14.583 23.458 c 2.708 6.75 3.583 8 7.417 10.542 c 13.917 9.125 20.08 18 20.792 29.875 c 0.958 16.208 -6.708 29.417 -20.458 35.29 c -6.75 2.875 -16.04 4.833 -23.21 4.833 l -5.5 0.042 l -14 -13.5 c -15.375 -14.792 -18 -17.958 -16.25 -19.667 c 16.17 0.208 17.04 0.25 18.583 -3.417 c 1.875 -1.5 1.792 -6.75 -0.167 -8.333 c -2.417 -1.917 -38.875 -2.333 -41.5 -0.458 c -1.75 1.25 -1.917 2.708 -2.333 21.917 c -0.375 15.167 -0.833 20.917 -1.708 21.792 c -1.5 1.417 -15.5 1.875 -22.17 0.75 m 98.12 -15.25 c 13.958 -4.958 19.917 -18.17 13.542 -30 c -3.125 -5.75 -6.375 -8.667 -13.542 -12.12 c -3.125 -1.5 -6.417 -3.583 -7.375 -4.542 c -0.917 -1 -2.75 -5.667 -4.04 -10.375 c -2.792 -10.04 -6.208 -15.625 -13.417 -21.833 c -7.417 -6.333 -15.08 -9.167 -25.08 -9.125 c -6.208 0 -8.75 0.417 -12.542 2.167 c -7.667 3.5 -14.208 9.25 -19.958 17.542 c -5.667 8.292 -7.375 9.542 -15.5 11.333 c -7.667 1.708 -13.458 4.875 -17.875 9.667 c -4.75 5.25 -5.875 9.04 -5.875 19.583 c 0 6.458 0.417 8.917 2 11.917 c 3.083 5.875 9.08 11.5 15.375 14.542 c 7 3.375 10.833 3.625 11.958 0.708 c 0.417 -1.125 1 -10.583 1.25 -21.04 c 0.333 -15.75 0.667 -19.25 1.917 -20.458 c 1.333 -1.25 5.125 -1.458 28.792 -1.458 c 30.458 0 35.833 0.458 40.25 3.333 c 4.792 3.125 8.5 8.917 9.04 14.13 c 0.542 5.75 -0.875 9.875 -5 14.542 c -3.833 4.292 -4.04 5.833 -1.375 9.458 c 3.25 4.375 9.04 5.083 17.458 2.042" stroke-width="1.937"/><path d="m 118.58 186.58 c 0.417 -6.25 0.875 -10.917 0.958 -14.583 c 0.167 -8.417 -0.042 -3.958 12.667 8.25 c 4.5 4.292 7.875 5.875 6.792 6.583 c -4.5 0.583 -16.12 1.25 -20.417 -0.25" stroke-width="1.796"/></g></svg>