<svg xmlns="http://www.w3.org/2000/svg" viewBox="0 0 24 24"><path d="m 19.04 22.594 c -35.38 10.355 -12.828 -40.801 3 -15.14 c 2.895 4.715 3.094 12.719 -3 15.14" fill="#4581b3"/><g fill="#b0c3de"><path d="m 5.309 12.508 c -0.004 0.086 -0.016 0.168 -0.016 0.254 c 0 3.953 3.102 7.133 6.957 7.133 c 3.852 0 6.957 -3.18 6.957 -7.133 c 0 -0.086 -0.012 -0.168 -0.016 -0.254 c -0.129 3.832 -3.172 6.879 -6.941 6.879 c -3.77 0 -6.813 -3.047 -6.945 -6.879" fill-opacity="0.2"/><path d="m 19.16 12.906 v -0.895 c 0 -3.691 -3.02 -6.684 -6.754 -6.684 h -0.398 c -3.73 0 -6.758 2.992 -6.758 6.684 v 0.895 c 0 3.691 3.03 6.684 6.758 6.684 h 0.398 c 3.73 0 6.754 -2.992 6.754 -6.684"/></g><path d="m 12.203 7.621 c -2.746 0 -4.969 2.277 -4.969 5.094 c 0.004 2.613 1.934 4.801 4.473 5.063 v 0.031 h 0.496 c 2.742 0 4.969 -2.281 4.969 -5.094 c 0 -2.816 -2.227 -5.094 -4.969 -5.094 m 0.496 1.055 c 0.031 0.004 0.063 0.008 0.094 0.012 c 0.031 0.055 0.34 0.598 0.641 1.422 c -0.227 0.02 -0.473 0.035 -0.734 0.043 m -0.992 -1.477 v 1.477 c -0.266 -0.008 -0.508 -0.023 -0.734 -0.043 c 0.301 -0.828 0.609 -1.371 0.641 -1.422 c 0.031 -0.004 0.063 -0.008 0.094 -0.012 m 2.43 0.48 c 0.324 0.188 0.621 0.418 0.883 0.688 c -0.148 0.039 -0.348 0.082 -0.566 0.125 c -0.105 -0.305 -0.211 -0.57 -0.316 -0.813 m -3.871 0.004 c -0.102 0.242 -0.211 0.504 -0.313 0.809 c -0.219 -0.043 -0.418 -0.082 -0.57 -0.125 c 0.262 -0.266 0.559 -0.496 0.883 -0.684 m -1.52 1.551 c 0.18 0.059 0.48 0.145 0.93 0.234 c -0.09 0.398 -0.156 0.82 -0.188 1.258 h -1.227 c 0.066 -0.523 0.23 -1.031 0.484 -1.492 m 6.914 0 c 0.254 0.461 0.414 0.969 0.48 1.492 h -1.227 c -0.027 -0.438 -0.094 -0.859 -0.184 -1.258 c 0.445 -0.09 0.746 -0.176 0.93 -0.234 m -4.992 0.391 c 0.313 0.035 0.664 0.059 1.035 0.07 v 1.031 h -1.215 c 0.031 -0.379 0.098 -0.75 0.18 -1.102 m 3.066 0 c 0.086 0.352 0.152 0.723 0.184 1.102 h -1.219 v -1.031 c 0.371 -0.012 0.727 -0.035 1.035 -0.07 m -5.469 2.121 h 1.227 c 0.031 0.48 0.109 0.938 0.211 1.367 c -0.363 0.105 -0.652 0.215 -0.855 0.305 c -0.313 -0.508 -0.512 -1.078 -0.582 -1.672 m 2.223 0 h 1.219 v 1.035 c -0.371 0.016 -0.715 0.055 -1.027 0.109 c -0.09 -0.363 -0.16 -0.746 -0.191 -1.145 m 2.211 0 h 1.219 c -0.035 0.398 -0.102 0.781 -0.191 1.145 c -0.313 -0.055 -0.656 -0.094 -1.027 -0.113 v -1.031 m 2.215 0 h 1.227 c -0.07 0.594 -0.273 1.164 -0.586 1.672 c -0.203 -0.094 -0.488 -0.199 -0.852 -0.305 c 0.102 -0.43 0.18 -0.887 0.211 -1.367 m -3.207 2.055 v 1.477 c -0.031 -0.004 -0.066 -0.008 -0.098 -0.016 c -0.027 -0.051 -0.332 -0.582 -0.629 -1.395 c 0.223 -0.031 0.465 -0.055 0.727 -0.066 m 0.992 0 c 0.262 0.012 0.5 0.035 0.727 0.066 c -0.301 0.816 -0.605 1.348 -0.633 1.398 c -0.031 0.004 -0.063 0.008 -0.094 0.012 m -2.715 -1.199 c 0.094 0.27 0.191 0.5 0.285 0.719 c -0.273 -0.156 -0.527 -0.348 -0.758 -0.566 c 0.133 -0.051 0.293 -0.102 0.473 -0.152 m 4.434 0 c 0.184 0.051 0.344 0.102 0.477 0.152 c -0.23 0.219 -0.484 0.406 -0.758 0.563 c 0.094 -0.219 0.191 -0.449 0.281 -0.715" fill-rule="evenodd" fill-opacity="0.2"/><g fill="none" stroke="#fff" stroke-width="4" transform="matrix(0.24842 0 0 0.25472 4.253 4.308)"><path d="m 27.993 48.999 c 0 0 -5 -8.01 -5 -16.992 c 0 -9 5 -17.01 5 -17.01"/><path d="m 35.997 48.999 c 0 0 5 -8.01 5 -16.992 c 0 -9 -5 -17.01 -5 -17.01"/><path d="m 18.01 21.993 c 0 0 4.985 2.01 13.995 2.01 c 8.995 0 13.995 -2.01 13.995 -2.01"/><path d="m 18.01 43 c 0 0 4.985 -3.01 13.995 -3.01 c 8.995 0 13.995 3.01 13.995 3.01"/><path d="m 32 14 v 35.992"/><path d="m 13.998 32.01 h 36.01"/></g><g fill="#fff"><path d="m 12.203 7.363 c -2.746 0 -4.969 2.281 -4.969 5.098 c 0 2.813 2.223 5.094 4.969 5.094 c 2.742 0 4.969 -2.281 4.969 -5.094 c 0 -2.816 -2.227 -5.098 -4.969 -5.098 m 0 1.02 c 2.195 0 3.973 1.824 3.973 4.078 c 0 2.25 -1.777 4.074 -3.973 4.074 c -2.195 0 -3.977 -1.824 -3.977 -4.074 c 0 -2.254 1.781 -4.078 3.977 -4.078"/><path d="m 12.203 5.328 c -3.855 0 -6.957 3.18 -6.957 7.133 c 0 0.027 0.004 0.055 0.004 0.082 c 0.09 -3.871 3.156 -6.961 6.953 -6.961 c 3.797 0 6.863 3.09 6.949 6.961 c 0.004 -0.027 0.008 -0.055 0.008 -0.082 c 0 -3.953 -3.105 -7.133 -6.957 -7.133" fill-opacity="0.102"/></g><g stroke="#fff"><path d="m 155.12 158.63 c 0 30.435 -24.286 55.07 -54.23 55.07 c -29.899 0 -54.19 -24.631 -54.19 -55.07 c 0 -30.435 24.286 -55.07 54.19 -55.07 c 29.948 0 54.23 24.631 54.23 55.07" transform="matrix(0.07865 0 0 0.07739 -0.294 4.247)" fill="#ff4500" stroke-width="2.802"/><path d="m 194.51 281.13 c -4.01 -1.186 -6.143 -2.193 -6.143 -2.964 c 0 -0.237 1.095 -1.719 2.372 -3.26 c 3.041 -3.557 5.231 -4.149 15.753 -4.149 c 5.657 0.83 9.184 -0.356 13.989 -2.845 c 8.515 -4.327 15.936 -12.508 19.402 -21.459 c 1.703 -4.979 2.311 -25.02 -2.98 -24.24 c -2.676 -0.296 -4.744 1.067 -13.14 8.477 l -7.542 6.698 c -3.467 -3.379 -10.766 -7.232 -11.86 -11.915 c 0 -0.474 2.98 -3.912 6.569 -7.647 c 8.698 -9.01 9.123 -9.662 8.089 -12.745 c -0.487 -1.541 -1.703 -2.964 -3.528 -4.209 c -10.218 -4.861 -28.28 -0.059 -37.04 9.425 c -2.311 2.668 -5.474 7.05 -6.995 9.781 c -3.649 4.802 -2.737 9.662 -2.737 15.412 c 0 10.314 -0.061 10.374 -1.825 12.804 c -2.129 2.727 -4.136 3.616 -5.596 2.43 c -1.886 -1.601 -3.893 -9.899 -3.832 -15.946 c 0.182 -15.06 8.15 -30.17 20.254 -38.35 c 6.143 -4.209 15.08 -7.588 22.504 -8.536 c 10.04 -1.304 21.835 1.838 31.871 8.536 c 8.515 5.631 14.05 12.33 17.76 25.43 c 2.555 8.951 2.859 17.902 0.304 25.25 c -3.345 9.662 -6.326 14.879 -12.834 21.4 c -5.778 5.809 -12.712 9.899 -20.315 11.974 c -5.474 1.482 -18.13 1.838 -22.504 0.652" transform="matrix(0.06422 0 0 0.0659 -5.523 1.029)" fill="#fff" stroke-width="0.667"/></g></svg>