<svg xmlns="http://www.w3.org/2000/svg" viewBox="0 0 24 24"><path d="m 4.098 19.895 c -12.18 -9.828 5.648 -27.574 16.426 -16.238 c 10.797 9.758 -6.06 28.691 -16.426 16.238" fill="#54a8db"/><path d="m 197.72 208.57 c -1.189 -1.253 -5.307 -5.941 -9.15 -10.397 c -3.843 -4.456 -13.862 -14.25 -22.28 -21.769 c -8.418 -7.519 -22.92 -20.841 -32.3 -29.613 c -25.574 -24.04 -29.463 -26.875 -38.567 -27.942 c -5.03 -0.603 -7.823 0.464 -11.346 4.27 c -3.98 4.27 -4.117 5.059 -3.202 17.452 c 0.503 6.312 0.732 11.604 0.549 11.79 c -0.686 0.696 -2.882 -3.76 -5.627 -11.325 c -3.66 -10.07 -4.255 -11.186 -6.313 -11.186 c -0.915 0 -6.405 1.114 -12.215 2.506 c -5.764 1.346 -10.705 2.274 -10.98 1.996 c -0.732 -0.743 3.111 -4.317 6.222 -5.756 c 13.222 -6.03 24.75 -12.254 27.541 -14.853 c 2.699 -2.46 3.34 -3.62 3.34 -5.941 c 0 -2.924 -2.15 -6.452 -4.804 -7.891 c -0.778 -0.418 -7.05 -1.717 -13.908 -2.831 c -13.405 -2.274 -23.1 -4.642 -26.535 -6.498 c -1.921 -1.021 0.549 -1.16 21.731 -1.207 c 25.94 0 29.646 -0.464 30.469 -3.667 c 0.274 -1.068 -0.32 -7.01 -1.281 -13.14 c -1.144 -7.148 -1.647 -12.764 -1.327 -15.596 c 0.457 -4.456 3.98 -15.967 5.261 -17.22 c 0.366 -0.371 0.915 3.342 1.189 8.216 c 0.64 10.49 2.425 21.444 4.255 25.993 c 1.464 3.667 5.307 7.287 7.732 7.287 c 0.869 0 2.653 -0.557 3.98 -1.207 c 3.02 -1.578 3.843 -4.734 3.065 -11.65 c -0.961 -8.865 -0.778 -15.364 0.549 -17.963 c 1.784 -3.435 2.516 -2.971 3.111 1.857 c 0.274 2.367 1.784 7.426 3.34 11.279 c 3.797 9.515 4.163 12.3 2.242 17.267 c -2.01 5.199 -1.281 7.612 3.111 10.07 c 3.157 1.764 3.797 1.81 21.411 1.578 c 11.575 -0.186 18.208 0 18.254 0.511 c 0 0.418 -2.974 1.578 -6.679 2.506 c -16.561 4.224 -30.606 11.882 -33.763 18.334 c -3.34 6.869 -1.921 10.304 8.601 21.12 c 10.02 10.211 26.901 25.11 31.659 27.896 c 3.614 2.135 3.889 2.135 25.574 2.785 c 12.08 0.371 24.659 0.882 27.999 1.207 l 6.085 0.511 l -2.836 1.207 c -4.163 1.764 -14.14 3.342 -21.04 3.388 c -7.411 0.046 -19.17 1.439 -21.18 2.553 c -2.059 1.068 -1.693 1.625 9.516 14.06 c 13.542 15.13 15.738 18.705 13.13 21.305 c -1.418 1.439 -2.15 1.253 -4.575 -1.3" transform="matrix(0.08538 0 0 0.08416 0.481 0.685)" fill="#fff" stroke="#fff" stroke-width="0.529"/></svg>