<svg xmlns="http://www.w3.org/2000/svg" viewBox="0 0 24 24"><path d="m 0.188 14.707 c 1.152 9.719 14.277 12.32 20.352 5.383 c 5.316 -5.156 4.379 -15.02 -1.805 -18.406 c -7.082 -4.523 -17.82 1.07 -18.707 10.08 c -0.094 0.984 -0.043 1.984 0.156 2.941" fill="#34a24c"/><path d="m 11.91 18.371 c 3.371 0 6.105 -2.719 6.105 -6.07 c 0 -3.355 -2.734 -6.07 -6.105 -6.07 c -3.375 0 -6.109 2.715 -6.109 6.07 c 0 3.352 2.734 6.07 6.109 6.07" fill="#e4e4e4"/><path d="m 17.824 8.32 l -6.855 7.324 c -0.031 0.035 -0.09 0.039 -0.129 0.004 l -3.145 -2.973 c -0.027 -0.023 -0.031 -0.066 -0.012 -0.102 l 0.848 -1.32 c 0.031 -0.047 0.098 -0.055 0.141 -0.016 l 1.883 1.785 c 0.027 0.023 0.074 0.023 0.098 -0.008 l 5.277 -6.582 c 0.031 -0.039 0.086 -0.047 0.125 -0.02 c 0.695 0.504 1.297 1.113 1.777 1.805 c 0.023 0.031 0.02 0.074 -0.008 0.102" fill="#0abe5b"/><path d="m 11.91 5.555 c -3.75 0 -6.789 3.02 -6.789 6.742 c 0 3.723 3.043 6.746 6.789 6.746 c 3.746 0 6.785 -3.02 6.785 -6.746 c 0 -0.844 -0.156 -1.656 -0.441 -2.402 c -0.023 -0.059 -0.102 -0.074 -0.145 -0.027 l -1.289 1.113 c 0.117 0.43 0.18 0.871 0.18 1.316 c 0 2.797 -2.281 5.059 -5.09 5.059 c -2.813 0 -5.094 -2.262 -5.094 -5.059 c 0 -2.793 2.281 -5.059 5.094 -5.059 c 0.625 0.004 1.246 0.121 1.832 0.348 l 0.969 -1.324 c 0.031 -0.043 0.016 -0.105 -0.031 -0.129 c -0.934 -0.477 -1.648 -0.582 -2.77 -0.582" fill="#3e3e3e"/></svg>