<svg xmlns="http://www.w3.org/2000/svg" viewBox="0 0 24 24"><path d="m 22.598 18.844 c 10.332 -35.27 -40.711 -12.785 -15.11 2.992 c 4.703 2.883 12.688 3.082 15.11 -2.992" fill="#382f68"/><path d="m 9.242 17.203 c -0.074 -0.012 -0.145 -0.074 -0.16 -0.133 c -0.211 -0.906 -0.605 -2.66 -0.645 -2.883 c -0.027 -0.16 -0.063 -0.344 -0.074 -0.406 c -0.023 -0.098 0.012 -0.109 0.34 -0.109 c 0.496 0.016 0.992 0.184 1.465 0.188 c 0.57 0.004 0.676 0.055 0.754 0.383 c 0.078 0.34 0.008 0.539 -0.23 0.648 c -0.227 0.105 -0.227 0.164 -0.023 1.188 c 0.18 0.898 0.172 1.07 -0.063 1.133 c -0.168 0.039 -1.137 0.039 -1.363 -0.008" fill="#6f6e72"/><path d="m 6.73 13.188 c -0.18 -0.055 -0.297 -0.113 -0.336 -0.16 c -0.145 -0.184 -0.145 -2.207 0 -2.391 c 0.039 -0.051 0.156 -0.105 0.344 -0.164 c 0.156 -0.051 0.293 -0.09 0.305 -0.09 c 0.012 0 0.02 0.652 0.02 1.449 c 0 0.797 -0.012 1.449 -0.027 1.449 c -0.016 -0.004 -0.152 -0.043 -0.305 -0.094" fill="#d5d4d1"/><g fill="#6f6e72"><path d="m 6.777 12.949 c -0.227 -0.074 -0.34 -0.203 -0.34 -0.379 c 0 -0.16 0.148 -0.238 0.461 -0.242 c 0.238 -0.004 0.262 0.008 0.297 0.141 c 0.023 0.078 0.027 0.234 0.016 0.344 c -0.098 0.25 -0.273 0.188 -0.434 0.137"/><path d="m 6.566 12.05 c -0.059 -0.02 -0.082 -0.082 -0.082 -0.238 c 0 -0.191 0.016 -0.215 0.148 -0.246 c 0.34 -0.082 0.367 -0.063 0.367 0.242 v 0.277 c -0.145 -0.004 -0.289 -0.008 -0.434 -0.035"/><path d="m 6.629 11.246 c -0.16 -0.051 -0.23 -0.254 -0.145 -0.41 c 0.063 -0.105 0.395 -0.258 0.574 -0.258 c 0.137 0.23 0.078 0.41 0.078 0.715 c -0.172 0.004 -0.348 -0.008 -0.508 -0.047"/></g><path d="m 17.05 10.742 c -0.008 -0.207 -0.023 -0.293 -0.012 -0.16 c 0.07 0.035 0.324 0.113 0.598 0.246 c 0.652 0.32 0.656 0.328 0.656 0.969 c 0 0.633 -0.008 0.645 -0.621 0.957 c -0.293 0.145 -0.547 0.266 -0.566 0.266 c -0.066 -0.746 -0.031 -1.465 -0.055 -2.277" fill="#878589"/><path d="m 15.891 15.848 c -0.246 -0.223 -1.73 -0.891 -2.77 -1.25 c -0.949 -0.324 -2.34 -0.688 -2.34 -0.609 c -0.25 -0.043 -0.555 -0.098 -0.789 -0.109 c -0.824 -0.047 -0.727 0.117 -0.762 -1.297 c -0.023 -0.977 -0.039 -1.953 -0.051 -2.93 l 0.289 0.023 c 0.762 0.059 2.551 -0.328 4.03 -0.871 c 0.586 -0.215 1.816 -0.762 2.242 -0.996 l 0.25 -0.141 c 0.074 5.434 0.059 0.691 -0.02 8.23 c -0.008 0.008 -0.043 -0.016 -0.078 -0.051" fill="#e7e6e5"/><g fill="#ea3b37"><path d="m 7.965 13.859 c -0.668 -0.063 -0.762 -0.125 -0.891 -0.609 c -0.219 -0.609 -0.055 -1.594 -0.07 -2.367 c -0.008 -0.387 0.066 -0.797 0.18 -1 c 0.109 -0.199 0.316 -0.242 1.23 -0.242 c 0.461 -0.004 0.855 0.008 0.871 0.027 c 0.016 0.016 0.039 0.961 0.047 2.105 l 0.02 2.078 l -0.477 -0.016 c -0.266 -0.012 -0.492 0 -0.512 0.02 c -0.016 0.023 -0.191 0.027 -0.398 0.008"/><path d="m 16.11 16.801 c -0.473 -0.121 -0.457 0.039 -0.43 -5.168 l 0.027 -4.738 l 0.23 -0.133 c 0.305 -0.176 0.539 -0.168 0.848 0.027 l 0.25 0.156 v 1.828 c 0.059 1.27 0.059 2.305 0.043 3.16 c 0.035 0.563 0 4.711 -0.082 4.773 c -0.164 0.117 -0.621 0.16 -0.887 0.094"/></g></svg>