<svg xmlns="http://www.w3.org/2000/svg" viewBox="0 0 24 24"><path d="m 22.953 8.199 c 4.66 11.945 -8.395 18.07 -16.52 15.03 c -5.672 -2.125 -8.5 -10.594 -4.473 -17.441 c 5.086 -8.637 17.402 -6.801 20.992 2.414" fill="#312f2e"/><path d="m 11.801 20.707 c 0.012 -0.238 -0.016 -0.422 -0.07 -0.477 c -1.457 -0.012 -2.59 -0.57 -3.676 -1.219 c -0.176 -0.055 -0.641 0.141 -0.961 0.398 c -0.68 0.41 -1.469 -0.004 -1.828 -0.262 c -0.336 -0.242 -0.703 -0.793 -0.746 -1.129 c -0.07 -0.5 0.027 -0.93 0.262 -1.188 c 0.117 -0.129 0.25 -0.352 0.293 -0.504 c 0.082 -0.266 0.078 -0.273 -0.215 -0.543 c -0.445 -0.539 -0.801 -2 -0.836 -2.57 c -0.055 -0.875 -0.07 -0.895 -0.629 -0.895 h -0.461 v -1.094 c 0 -1.027 0.008 -1.094 0.145 -1.137 c 0.074 -0.023 0.156 -0.113 0.176 -0.199 c 0.129 -0.543 0.234 -1.129 0.523 -1.605 c 0.184 -0.563 0.5 -0.875 0.715 -1.355 c 0 -0.184 1.258 -1.555 1.832 -1.996 c 0.266 -0.246 0.629 -0.379 0.895 -0.617 c 0.363 -0.266 0.785 -0.313 1.168 -0.562 c 0.422 -0.363 1.473 -0.215 1.664 -0.617 c 0.07 -0.152 0.102 -0.16 1.16 -0.16 h 1.094 l -0.043 0.391 c -0.059 0.57 0.031 0.645 0.887 0.734 c 1.02 0.012 2.098 0.805 2.836 1.023 c 0.371 0.156 0.684 0.457 0.977 0.645 c 0.66 0.43 1.438 1.215 1.668 1.688 c 0.27 0.559 0.43 0.828 0.586 0.996 c 0.41 0.738 0.797 1.824 0.855 2.473 c 0.035 0.379 0.102 0.738 0.148 0.797 c 0.055 0.066 0.219 0.102 0.465 0.102 h 0.383 v 1.07 c 0 0.891 -0.02 1.086 -0.113 1.152 c -0.059 0.047 -0.168 0.336 -0.238 0.645 c -0.098 0.602 -0.41 1.086 -0.613 1.59 c -0.41 0.891 -1.02 1.688 -1.707 2.336 c -0.867 0.809 -1.238 1.066 -2.074 1.453 c -0.512 0.262 -1.066 0.523 -1.598 0.637 c -0.367 0.07 -0.605 0.16 -0.68 0.25 c -0.109 0.125 -0.215 0.137 -1.188 0.137 h -1.07 m 1.176 -1.469 c 0.793 -0.105 0.566 -0.621 0.355 -0.738 c -0.063 -0.035 -0.695 -0.055 -1.41 -0.043 c -0.707 0.121 -2.484 -0.52 -2.84 -0.871 c -0.234 -0.242 -0.555 -0.27 -0.676 -0.207 c -0.078 0.043 -0.145 0.148 -0.145 0.23 c 0 0.16 0.188 0.578 0.309 0.578 c 0.613 0.422 1.277 0.723 1.961 0.969 c 0.688 0.117 1.281 0.234 2.445 0.082 m 1.961 -0.609 c 0.566 -0.059 1.418 -0.578 2.086 -1.031 c 0.547 -0.371 1.199 -1.102 1.457 -1.637 c 0.441 -0.613 0.813 -1.574 1.035 -2.176 c 0.336 -0.883 0.145 -2.492 -0.086 -3.535 c -0.145 -0.711 -0.016 -0.785 -0.605 -1.559 c -0.613 -0.633 -0.77 -0.016 -0.469 0.723 c 0.547 1.297 0.531 1.582 0.48 2.633 c -0.012 1.199 -0.742 2.496 -1.094 3.184 c -0.109 0.395 -1.754 2.02 -2.172 2.141 c -0.598 0.395 -0.563 0.453 -1.074 0.531 c -0.422 0.066 -0.277 0.301 -0.234 0.477 c 0.109 0.434 0.375 0.355 0.676 0.25 m 0.844 -2.238 c 0.309 -0.355 1.238 -1.152 1.352 -1.504 c 0.48 -0.84 1.047 -2.293 1.066 -2.883 c -0.227 -1.055 -0.168 -2.723 -1.063 -3.367 c -0.215 -0.348 -0.676 -0.621 -0.809 -0.902 c -0.344 -0.328 -0.762 -0.883 -1.105 -1.031 c -0.242 -0.086 -1.133 -0.574 -1.328 -0.715 c -1.148 -0.32 -2.594 -0.395 -3.484 -0.102 c -0.785 0.148 -1.223 0.578 -1.75 0.805 c -1.383 1.105 -1.703 1.688 -2.379 3.047 c -0.34 0.68 -0.566 1.57 -0.273 2.602 c 0.059 0.836 0.902 1.988 1.051 2.66 c 0 0.098 0.285 0.438 0.766 0.91 c 0.566 0.563 1.609 1.387 2.32 1.508 c 1.902 0.523 4.18 0.402 5.637 -1.027 m -3.68 0.023 c -0.129 -0.051 -0.223 -0.254 -0.297 -0.66 c -0.063 -0.332 -0.238 -0.773 -0.57 -1.449 c -0.523 -1.063 -1.93 -2.051 -3.379 -2.375 c -0.449 -0.098 -0.586 -0.262 -0.582 -0.703 c 0 -0.461 0.188 -1.199 0.379 -1.488 c 0.75 -1.332 1.953 -2.457 3.402 -2.73 c 0.965 -0.172 1.141 -0.051 1.254 0.848 c 0.035 0.289 0.141 0.695 0.23 0.906 c 0.094 0.207 0.188 0.477 0.215 0.598 c 0.047 0.219 0.785 1.031 1.223 1.352 c 0.32 0.23 1.586 0.664 2.242 0.766 c 0.156 0.023 0.352 0.121 0.453 0.219 c 0.168 0.168 0.176 0.211 0.137 0.688 c -0.051 0.566 -0.211 1.145 -0.359 1.313 c -0.707 1.297 -1.492 1.625 -2.395 2.395 c -0.254 0.223 -1.633 0.453 -1.949 0.324 m -5.754 -1.164 c -0.406 -1.102 -0.672 -0.66 -0.91 -0.465 c -0.125 0.098 0.191 0.969 0.512 0.863 c 0.168 -0.098 0.328 -0.238 0.398 -0.398 m -1.01 -1.457 c 0.277 -0.082 0.41 -0.43 0.27 -0.543 c -0.199 -0.395 -0.285 -1.344 -0.621 -1.379 c -0.707 0.063 -0.363 1.023 -0.156 1.508 c 0.199 0.465 0.164 0.516 0.508 0.414 m 10.57 -7.918 c 0.133 -0.156 0.016 -0.313 -0.324 -0.43 c -0.441 -0.277 -0.875 -0.609 -1.246 -0.68 c -0.469 -0.086 -1.035 -0.297 -1.457 -0.375 c -0.477 -0.09 -0.82 0.344 -0.504 0.66 c 0.055 0.055 0.688 0.188 0.934 0.238 c 0.707 0.082 1.426 0.258 1.875 0.699 c 0.238 0.238 0.574 0.07 0.723 -0.113" fill="#adfccd"/><g fill="#03774c"><path d="m 7.426 17.781 c 0 0.668 -0.508 1.211 -1.129 1.211 c -0.625 0 -1.129 -0.543 -1.129 -1.211 c 0 -0.664 0.504 -1.207 1.129 -1.207 c 0.621 0 1.129 0.543 1.129 1.207"/><path d="m 11.707 14.08 c -0.555 -0.324 -0.988 -0.855 -1.27 -1.227 c -0.242 -0.32 -0.344 -0.395 -0.207 -0.793 c 0.488 -0.762 0.953 -1.047 1.449 -1.41 c 0.223 -0.172 0.359 -0.285 0.57 -0.113 c 0.078 0.066 0.254 0.195 0.395 0.289 c 0.285 0.188 0.938 0.844 1.121 1.117 c 0.141 0.215 0.133 0.27 -0.051 0.66 c -0.27 0.57 -1.059 1.109 -1.473 1.414 c -0.273 0.125 -0.309 0.094 -0.535 0.063 m 0.602 -1.031 c 0.156 -0.113 0.469 -0.473 0.563 -0.648 c 0.082 -0.16 0.012 -0.289 -0.352 -0.652 c -0.191 -0.191 -0.395 -0.363 -0.457 -0.383 c -0.156 -0.055 -0.281 0.012 -0.641 0.363 c -0.371 0.359 -0.43 0.5 -0.309 0.75 c 0.098 0.199 0.57 0.652 0.727 0.699 c 0.219 0.016 0.344 -0.039 0.469 -0.129"/><path d="m 17.273 8.602 c -0.246 -0.199 -1.051 -1.031 -1.184 -1.227 c -0.188 -0.273 -0.188 -0.305 0.016 -0.496 c 0.094 -0.09 0.242 -0.258 0.324 -0.371 c 0.34 -0.461 0.535 -0.438 1.164 0.148 c 0.535 0.504 0.93 1.117 0.871 1.352 c -0.289 0.262 -0.664 0.551 -0.969 0.73 c -0.027 0 -0.129 -0.063 -0.223 -0.137"/></g></svg>