<svg xmlns="http://www.w3.org/2000/svg" viewBox="0 0 24 24"><path d="m 18.12 20.332 c 22.648 -25.402 -32.05 -27.301 -14.355 -2.211 c 3.117 5.5 8.711 8.703 14.355 2.211" fill="#6395ec"/><path d="m 7.848 14.93 c -2.305 -2.313 -4.176 -4.246 -4.16 -4.293 c 0.02 -0.047 0.953 -1.02 2.074 -2.164 l 2.047 -2.078 h 8.473 l 2.051 2.078 c 1.125 1.141 2.063 2.109 2.074 2.152 c 0.031 0.086 -4.883 5.129 -7.02 7.203 l -1.355 1.309" fill="#01f9fc"/><path d="m 7.848 14.852 c -3.742 -3.762 -4.168 -4.211 -3.992 -4.258 c 0.105 -0.031 0.996 -0.055 1.977 -0.055 c 1.617 0 2.094 0.105 2.219 -0.031 c 0.121 -0.129 -0.168 -0.52 -0.168 -2.145 c 0 -1.031 0.035 -1.895 0.074 -1.918 c 0.039 -0.023 1.926 -0.07 4.188 -0.098 l 4.117 -0.055 l 2.059 2.086 c 1.133 1.148 2.074 2.121 2.086 2.164 c 0.031 0.09 -4.883 5.133 -7.02 7.203 l -1.355 1.313" fill="#00c9fc"/><path d="m 9.988 14.883 c -1.113 -2.258 -2.02 -4.121 -2.02 -4.141 c 0 -0.02 1.813 -0.039 4.03 -0.039 c 3.797 0 4.04 -0.008 4.164 -0.148 c 0.121 -0.133 0.137 -0.398 0.137 -1.984 c 0 -1.01 0.035 -1.852 0.074 -1.879 c 0.039 -0.023 0.965 0.855 2.059 1.953 l 1.984 2 l -2.852 2.906 c -2.793 2.855 -5.41 5.438 -5.504 5.438 c -0.027 0 -0.957 -1.848 -2.07 -4.105" fill="#009cfc"/><path d="m 12.621 17.973 c 0.879 -1.922 3.609 -7.27 3.75 -7.348 c 0.203 -0.109 3.629 -0.117 3.801 -0.008 c 0.098 0.063 -0.367 0.578 -2.176 2.422 c -2.586 2.637 -5.504 5.527 -5.59 5.531 c -0.031 0 0.066 -0.27 0.215 -0.598" fill="#0077fc"/><path d="m 12.18 6.477 c 1.496 -0.086 2.844 -0.023 4.367 -0.023 c 0.012 1.328 -0.387 2.711 -0.223 4.152 c -0.387 -0.723 -4.371 -3.602 -4.145 -4.129" fill="#00b2ff" fill-opacity="0.996"/><path d="m 12.191 6.359 c -1.48 -0.086 -2.809 -0.023 -4.309 -0.023 c -0.012 1.305 -0.227 3.277 0.035 4.395 c 0.383 -0.711 4.496 -3.852 4.273 -4.371" fill="#00dcff"/></svg>