<svg xmlns="http://www.w3.org/2000/svg" viewBox="0 0 24 24"><g fill-opacity="0.969"><path d="m 9.277 23.586 c -22.301 -4.645 1.641 -36.594 12.977 -17.402 c 4.859 7.457 -1.508 19.789 -12.977 17.402" fill="#fc313f"/><path d="m 10.617 18.316 c -1.586 -0.438 -3.145 -1.742 -3.906 -3.273 c -0.84 -1.684 -0.82 -3.77 0.047 -5.488 c 0.785 -1.559 2.379 -2.84 3.988 -3.211 c 0.801 -0.188 2.648 -0.082 3.422 0.191 c 1.789 0.637 3.27 2.313 3.785 4.293 c 0.199 0.77 0.223 2.254 0.047 3.01 c -0.477 2.01 -2.367 3.965 -4.344 4.48 c -0.73 0.188 -2.348 0.188 -3.039 0 m 3.309 -1.914 c 1.625 -0.785 2.652 -2.879 2.332 -4.766 c -0.223 -1.32 -1.059 -2.605 -2.09 -3.211 c -0.645 -0.379 -1.617 -0.586 -2.426 -0.52 c -2.586 0.215 -4.379 2.941 -3.688 5.605 c 0.395 1.512 1.313 2.574 2.633 3.043 c 0.824 0.293 2.473 0.215 3.238 -0.152" fill="#ffeff4"/></g></svg>