<svg xmlns="http://www.w3.org/2000/svg" viewBox="0 0 24 24"><path d="m 18.17 2.02 c 21.13 17.914 -22.313 35.14 -17.848 7.434 c 0.98 -6.074 12.156 -12.262 17.848 -7.434" fill="#df5914"/><path d="m 17.348 12.09 c 0.527 3.711 -2.098 7.137 -5.863 7.66 c -3.766 0.52 -7.246 -2.066 -7.777 -5.777 c -0.527 -3.707 2.098 -7.137 5.863 -7.66 c 3.766 -0.52 7.25 2.066 7.777 5.773" fill="#aa460f"/><g fill="#fff"><path d="m 17.01 15.516 c -0.422 -0.074 -1.195 -0.234 -1.34 -0.281 c -0.207 -0.066 -0.211 -0.094 -0.043 -0.91 c 0.387 -1.879 1.84 -7.711 1.918 -7.687 c 0.738 0.191 1.328 0.301 2.098 0.512 c 0.008 0.008 -0.023 0.129 -0.066 0.27 c -0.043 0.145 -0.371 1.395 -0.727 2.781 c -0.813 3.148 -1.137 4.375 -1.301 4.922 c -0.141 0.465 -0.137 0.461 -0.539 0.395"/><path d="m 17.277 17.715 c 0.102 0.801 -0.484 1.531 -1.313 1.633 c -0.824 0.098 -1.578 -0.473 -1.68 -1.273 c -0.105 -0.805 0.484 -1.535 1.309 -1.637 c 0.828 -0.098 1.582 0.473 1.684 1.277"/><path d="m 7.441 13.43 l 0.016 -3.504 l 0.445 -0.02 c 0.273 -0.012 0.48 0.008 0.535 0.055 c 0.07 0.059 0.094 0.258 0.094 0.801 c 0 0.398 0.02 1.078 0.043 1.512 l 0.039 0.785 h 3.602 l 0.043 -0.594 c 0.023 -0.324 0.043 -1.035 0.043 -1.582 v -0.992 h 1.102 v 6.98 h -1.102 l -0.004 -0.793 c 0 -0.434 -0.016 -1.031 -0.039 -1.324 l -0.043 -0.531 h -3.602 l -0.043 0.395 c -0.02 0.219 -0.039 0.785 -0.039 1.254 c 0 0.473 -0.02 0.906 -0.039 0.961 c -0.031 0.082 -0.145 0.102 -0.555 0.102 h -0.512"/></g><path d="m 9.98 9.941 c -0.129 -0.055 -1.145 -1.074 -1.246 -1.254 c -0.07 -0.121 0.266 -0.398 0.781 -0.641 c 0.59 -0.277 0.906 -0.348 1.645 -0.352 c 1.016 -0.047 1.73 0.57 1.648 1.031 c -1.363 0.211 -1.766 0.406 -2.57 1.254 c -0.063 0.012 -0.18 -0.008 -0.258 -0.039" fill="#fdab45"/><g fill="#fda847"><path d="m 7.152 8.06 c -0.242 -0.289 0.961 -0.813 1.758 -1.078 c 0.57 -0.188 1.641 -0.281 2.074 -0.273 c 0.355 0.004 0.711 0.07 -0.012 0.285 c -0.555 0.164 -1.582 0.426 -2.434 0.93 c -0.352 0.211 -0.68 0.379 -0.73 0.379 c -0.199 -0.039 -0.516 -0.109 -0.656 -0.242"/><path d="m 5.781 9.84 c -0.117 -0.141 -0.109 -0.273 0.02 -0.535 c 0.223 -0.438 0.57 -0.621 1.055 -0.555 c 0.465 0.066 0.563 0.219 0.367 0.582 c -0.34 0.625 -1.117 0.898 -1.441 0.508"/><path d="m 6.172 11.605 c -0.059 0.586 -0.5 1.102 -0.984 1.148 c -0.488 0.047 -0.832 -0.391 -0.773 -0.98 c 0.059 -0.586 0.5 -1.102 0.984 -1.148 c 0.488 -0.047 0.832 0.391 0.773 0.98"/></g></svg>