<svg xmlns="http://www.w3.org/2000/svg" viewBox="0 0 24 24"><path d="m 19.16 2.434 c -18.04 -11.883 -29.16 26.01 -5.832 20.996 c 9.641 -2.137 15.488 -15.547 5.832 -20.996" fill="#365473"/><path d="m 12.301 6.16 c -0.629 0.086 -1.215 0.43 -1.605 0.93 c -0.387 0.504 -0.566 1.16 -0.492 1.789 c -0.066 -0.449 -0.27 -0.871 -0.578 -1.199 c -0.309 -0.328 -0.723 -0.559 -1.164 -0.648 c -0.711 -0.148 -1.492 0.086 -2 0.602 c -0.516 0.512 -0.75 1.293 -0.602 2 c 0.211 1.328 0.914 2.57 1.941 3.441 c 1.227 1.035 2.891 1.516 4.492 1.371 c 1.598 -0.145 3.125 -0.895 4.277 -2.02 c 0.703 -0.684 1.285 -1.535 1.453 -2.5 c 0.086 -0.484 0.063 -0.988 -0.094 -1.453 c -0.156 -0.465 -0.449 -0.887 -0.848 -1.176 c -0.344 -0.25 -0.766 -0.395 -1.191 -0.406 c -0.426 -0.016 -0.855 0.098 -1.219 0.324 c -0.254 -0.379 -0.613 -0.684 -1.031 -0.871 c -0.414 -0.188 -0.883 -0.254 -1.336 -0.191" fill="#fffced"/><g fill="#ececec"><path d="m 10.04 16.574 c 0 0.668 -0.539 1.207 -1.207 1.207 c -0.664 0 -1.203 -0.539 -1.203 -1.207 c 0 -0.664 1.203 -1.996 1.203 -1.996 c 0 0 1.207 1.332 1.207 1.996"/><path d="m 13.207 18 c 0 0.668 -0.539 1.207 -1.207 1.207 c -0.664 0 -1.207 -0.539 -1.207 -1.207 c 0 -0.664 1.207 -2 1.207 -2 c 0 0 1.207 1.336 1.207 2"/></g><path d="m 16.957 15.398 c 0 0.668 -0.539 1.207 -1.207 1.207 c -0.664 0 -1.207 -0.539 -1.207 -1.207 c 0 -0.664 1.207 -2 1.207 -2 c 0 0 1.207 1.336 1.207 2" fill="#fffced"/></svg>