<svg xmlns="http://www.w3.org/2000/svg" viewBox="0 0 24 24"><path d="m 4.04 4.426 c -12.02 9.672 5.578 27.13 16.215 15.977 c 10.66 -9.598 -5.977 -28.23 -16.215 -15.977" fill="#f44700"/><g fill="#fff"><path d="m 12.02 4.598 l 2.285 3.785 l 2.281 3.781 l -4.566 2.84 l -4.563 -2.84 l 2.281 -3.781" fill-opacity="0.2"/><path d="m 12.02 4.125 l 2.285 3.785 l 2.281 3.781 l -4.566 2.836 l -4.563 -2.836 l 2.281 -3.781"/><path d="m 12.02 19.73 l 2.285 -3.309 l 2.281 -3.313 l -4.566 2.84 l -4.563 -2.84 l 2.281 3.313" fill-opacity="0.2"/><path d="m 12.02 19.258 l 2.285 -3.309 l 2.281 -3.313 l -4.566 2.84 l -4.563 -2.84 l 2.281 3.313"/></g></svg>