<svg xmlns="http://www.w3.org/2000/svg" viewBox="0 0 24 24"><path d="m 4.344 2.625 c 14.398 -11.168 29.34 16.648 11.52 20.715 c -11.223 4.168 -22.19 -12.438 -11.52 -20.715" fill="#663"/><path d="m 9.793 6.715 l -2.945 2.113 v 6.766 l 2.945 2.113 v -6.484 l 4.906 6.484 l 2.945 -2.113 v -6.766 l -2.945 -2.113 v 6.555 l -4.906 -6.555" fill-opacity="0.102"/><path d="m 17.16 8.406 l -2.945 -2.113 v 10.992 l 2.945 -2.113" fill="#6aa53e"/><path d="m 6.355 8.406 l 2.945 -2.113 v 10.992 l -2.945 -2.113" fill="#42afe5"/><path d="m 9.301 6.293 c -0.598 1.473 -0.484 2.98 0 4.508 l 4.91 6.484 c 0.313 -1.48 0.676 -2.961 0 -4.438" fill="#95c96a"/><path d="m 14.211 12.848 v 4.438 l 2.207 -1.586" fill="#559d40"/><path d="m 9.301 6.293 l -2.215 1.586 l 2.215 2.922" fill="#70be62"/></svg>