<svg xmlns="http://www.w3.org/2000/svg" viewBox="0 0 24 24"><path d="m 17.836 22.01 c -30.883 12.719 -16.375 -40.77 3.793 -14.797 c 3.516 4.66 3.785 12.484 -3.793 14.797" fill="#4e4e4e"/><path d="m 13.957 6.04 c -2.234 0 -2.652 3.121 -1.395 3.121 c 1.254 0 3.625 -3.121 1.395 -3.121 m -3.43 0.48 c -0.035 0 -0.074 0.004 -0.113 0.008 c -1.277 0.164 -0.828 2.352 -0.148 2.395 c 0.66 0.039 1.379 -2.398 0.262 -2.402 m -2.332 0.48 c -0.031 0 -0.059 0 -0.09 0.004 c -0.066 0.004 -0.133 0.02 -0.211 0.047 c -1.191 0.434 -0.18 2.227 0.488 2.105 c 0.609 -0.109 0.695 -2.113 -0.188 -2.156 m -1.66 1.68 c -0.105 0 -0.223 0.023 -0.344 0.09 c -0.984 0.516 0.328 1.766 0.906 1.574 c 0.508 -0.172 0.184 -1.645 -0.563 -1.664 m 4.664 0.961 c -1.691 -0.027 -3.926 0.828 -4.305 2.539 c -0.414 1.855 1.699 4.43 3.898 4.43 c 1.086 0 2.336 -1.055 2.566 -2.301 c 0.086 -0.453 -0.441 -0.617 -1.012 -0.582 c -0.617 0.039 -1.281 0.313 -1.238 0.641 c 0.066 0.516 -0.125 0.793 -0.512 0.801 c -0.527 -0.063 -0.926 -0.293 -0.996 -0.734 c -0.094 -1.16 3.797 -1.984 3.496 -3.781 c -0.109 -0.656 -0.883 -0.992 -1.898 -1.012" fill-opacity="0.2"/><path d="m 13.914 5.184 c -2.332 0 -2.77 3.305 -1.457 3.305 c 1.313 0 3.789 -3.305 1.457 -3.305 m -3.582 0.508 c -0.035 0 -0.078 0.004 -0.117 0.008 c -1.336 0.176 -0.867 2.492 -0.156 2.535 c 0.688 0.039 1.441 -2.539 0.273 -2.543 m -2.438 0.508 c -0.031 0 -0.063 0 -0.094 0.004 c -0.066 0.008 -0.141 0.023 -0.219 0.051 c -1.25 0.461 -0.188 2.355 0.512 2.227 c 0.633 -0.113 0.723 -2.234 -0.199 -2.281 m -1.734 1.781 c -0.113 -0.004 -0.234 0.023 -0.359 0.094 c -1.027 0.547 0.344 1.867 0.949 1.664 c 0.527 -0.18 0.191 -1.738 -0.59 -1.758 m 4.875 1.016 c -1.77 -0.031 -4.102 0.871 -4.5 2.684 c -0.43 1.965 1.773 4.684 4.074 4.684 c 1.133 0 2.438 -1.113 2.684 -2.43 c 0.09 -0.48 -0.465 -0.656 -1.059 -0.617 c -0.645 0.039 -1.34 0.332 -1.293 0.68 c 0.066 0.543 -0.133 0.836 -0.535 0.844 c -0.551 -0.063 -0.969 -0.309 -1.039 -0.777 c -0.102 -1.223 3.965 -2.098 3.648 -4 c -0.113 -0.695 -0.918 -1.047 -1.98 -1.066" fill="#fff"/><g fill-rule="evenodd"><path d="m 18.652 15.801 c 0 2.125 -1.797 3.848 -4.02 3.848 c -2.219 0 -4.02 -1.723 -4.02 -3.848 c 0 -2.121 1.801 -3.844 4.02 -3.844 c 2.219 0 4.02 1.723 4.02 3.844" fill-opacity="0.2"/><path d="m 18.652 15.563 c 0 2.121 -1.797 3.844 -4.02 3.844 c -2.219 0 -4.02 -1.723 -4.02 -3.844 c 0 -2.125 1.801 -3.844 4.02 -3.844 c 2.219 0 4.02 1.719 4.02 3.844" fill="#0093dd"/></g><path d="m 13.508 13.676 c -1.043 0 -1.883 0.809 -1.883 1.805 c 0 0.992 0.84 1.801 1.883 1.801 c 0.895 0 1.664 -0.605 1.84 -1.441 h 1.047 v 0.719 h 0.754 v -0.719 h 0.5 v -0.723 h -2.297 c -0.18 -0.836 -0.949 -1.441 -1.844 -1.441 m 0 0.723 c 0.621 0 1.129 0.484 1.129 1.082 c 0 0.594 -0.508 1.078 -1.129 1.078 c -0.625 0 -1.133 -0.484 -1.133 -1.078 c 0 -0.598 0.508 -1.082 1.133 -1.082" fill="#fff"/></svg>