<svg xmlns="http://www.w3.org/2000/svg" viewBox="0 0 24 24"><path d="m 19.648 3.641 c 18.68 24.656 -32.73 28.16 -16.23 2.988 c 3.762 -5.734 11.281 -9.52 16.23 -2.988" fill="#89a238"/><g fill="#333"><path d="m 12.648 9.27 c 0 1.539 1.242 2.789 2.777 2.789 c 1.535 0 2.777 -1.25 2.777 -2.789 c 0 -1.543 -1.242 -2.793 -2.777 -2.793 c -1.535 0 -2.777 1.25 -2.777 2.793"/><path d="m 5.613 16.336 c 0 1.543 1.246 2.789 2.777 2.789 c 1.535 0 2.777 -1.246 2.777 -2.789 c 0 -1.539 -1.242 -2.789 -2.777 -2.789 c -1.531 0 -2.777 1.25 -2.777 2.789"/></g><g fill="#fff"><path d="m 5.613 9.27 c 0 1.539 1.246 2.789 2.777 2.789 c 1.535 0 2.777 -1.25 2.777 -2.789 c 0 -1.543 -1.242 -2.793 -2.777 -2.793 c -1.531 0 -2.777 1.25 -2.777 2.793"/><path d="m 12.648 16.336 c 0 1.543 1.242 2.789 2.777 2.789 c 1.535 0 2.777 -1.246 2.777 -2.789 c 0 -1.539 -1.242 -2.789 -2.777 -2.789 c -1.535 0 -2.777 1.25 -2.777 2.789"/></g></svg>