<svg xmlns="http://www.w3.org/2000/svg" viewBox="0 0 24 24"><path d="m 0.305 14.801 c 4.688 22.359 36.926 -1.645 17.559 -13.01 c -7.523 -4.875 -19.969 1.508 -17.559 13.01" fill="#e86a21"/><path d="m 9.578 17.875 l -0.887 -0.902 h -1.336 c -1.535 0 -1.633 -0.023 -1.84 -0.484 c -0.109 -0.238 -0.113 -0.438 -0.113 -4.883 c -0.301 -4.047 -0.207 -5.395 3.691 -5.348 c 1.941 0.008 3.01 0.035 2.918 0.07 c -0.461 0.168 -1.473 0.762 -1.902 1.117 c -0.16 0.133 -0.375 0.301 -0.48 0.371 c -0.281 0.195 -0.891 0.996 -1.145 1.496 c -0.395 0.781 -0.484 1.773 -0.242 2.621 c 0.215 0.758 0.938 1.895 1.453 2.285 c 0.105 0.078 0.309 0.234 0.449 0.34 c 0.582 0.441 1.383 0.715 2.105 0.715 c 1.617 0 2.875 -0.906 3.246 -2.348 c 0.152 -0.594 0.102 -1.559 -0.109 -2.02 c -0.328 -0.719 -0.871 -1.09 -1.648 -1.133 c -0.641 -0.035 -0.914 0.051 -1.25 0.387 c -0.305 0.305 -0.418 0.59 -0.418 1.059 c 0 0.266 0.027 0.328 0.219 0.543 c 0.344 0.383 0.723 0.496 1.066 0.316 c 0.262 -0.133 0.355 -0.551 0.152 -0.688 c -0.094 -0.066 -0.313 -0.055 -0.359 0.02 c -0.023 0.035 0.004 0.09 0.055 0.121 c 0.121 0.066 0.125 0.141 0.004 0.188 c -0.129 0.051 -0.309 -0.063 -0.348 -0.219 c -0.082 -0.332 0.227 -0.625 0.656 -0.625 c 0.512 0 0.828 0.453 0.762 1.094 c -0.105 1.027 -1.219 1.605 -2.457 1.281 c -0.969 -0.254 -1.516 -0.82 -1.688 -1.754 c -0.215 -1.176 0.496 -2.492 1.648 -3.043 c 0.598 -0.289 1.168 -0.406 2.02 -0.41 c 0.855 -0.008 1.246 0.086 2.02 0.469 c 0.91 0.453 1.668 1.281 2.102 2.301 c 0.742 1.746 0.301 3.895 -1.148 5.598 c -0.508 0.598 -0.363 0.563 -2.492 0.563 h -1.863 l -0.887 0.91 c -0.488 0.5 -0.93 0.906 -0.977 0.902 c -0.051 -0.004 -0.488 -0.414 -0.973 -0.91" fill="#fff"/></svg>