<svg xmlns="http://www.w3.org/2000/svg" viewBox="0 0 24 24"><defs><linearGradient id="0" gradientUnits="userSpaceOnUse" y1="47" x2="0" y2="1" gradientTransform="matrix(0.31013 0 0 0.32743 4.199 4.181)"><stop stop-color="#055f9a"/><stop offset="1" stop-color="#066bad"/></linearGradient></defs><path d="m 4.945 21.68 c 18.05 11.891 29.16 -26.04 5.832 -21.02 c -9.637 2.141 -15.488 15.559 -5.832 21.02" fill="#4581b3"/><path d="m 15.461 5.82 c 1.816 1.328 3 3.543 3 6.05 c 0 4.07 -3.125 7.367 -6.98 7.367 c -2.375 0 -4.477 -1.254 -5.734 -3.172 c 0.32 0.598 0.715 1.145 1.172 1.629 c 1.266 1.215 2.949 1.953 4.797 1.953 c 3.941 0 7.133 -3.371 7.133 -7.531 c 0 -1.949 -0.699 -3.727 -1.852 -5.066 c -0.453 -0.48 -0.977 -0.898 -1.539 -1.234 m 1.539 1.234 c 1.195 1.348 1.93 3.156 1.93 5.148 c 0 4.16 -3.195 7.531 -7.133 7.531 c -1.887 0 -3.602 -0.773 -4.875 -2.035 c 1.289 1.355 3.066 2.199 5.03 2.199 c 3.938 0 7.133 -3.371 7.133 -7.531 c 0 -2.074 -0.801 -3.949 -2.086 -5.313" fill-opacity="0.051"/><path d="m 17 7.05 c 1.152 1.34 1.852 3.117 1.852 5.066 c 0 4.16 -3.191 7.531 -7.133 7.531 c -1.848 0 -3.531 -0.738 -4.797 -1.953 c 1.273 1.262 2.988 2.035 4.875 2.035 c 3.938 0 7.133 -3.371 7.133 -7.531 c 0 -1.992 -0.734 -3.801 -1.93 -5.148" fill-opacity="0.102"/><path d="m 13.891 4.961 c 2.672 1.031 4.574 3.738 4.574 6.918 c 0 4.066 -3.125 7.367 -6.977 7.367 c -3.01 0 -5.574 -2.01 -6.551 -4.832 c 1.082 3.52 4.422 5.688 7.883 5.117 c 3.461 -0.57 6.02 -3.711 6.04 -7.406" fill-opacity="0.2"/><path d="m 11.641 4.508 c 3.941 0 7.133 3.371 7.133 7.531 c 0 4.16 -3.191 7.531 -7.133 7.531 c -3.938 0 -7.133 -3.371 -7.133 -7.531 c 0 -4.16 3.195 -7.531 7.133 -7.531" fill="url(#0)"/><path d="m 15.445 14.496 c -0.914 1.668 -2.773 2.48 -4.535 1.984 c -1.766 -0.5 -2.988 -2.188 -2.988 -4.113 c 0 -1.926 1.223 -3.613 2.988 -4.113 c 1.762 -0.496 3.621 0.316 4.535 1.984 l -3.492 2.129" fill-opacity="0.098"/><path d="m 15.13 14.168 c -0.91 1.668 -2.773 2.48 -4.535 1.984 c -1.762 -0.5 -2.988 -2.188 -2.988 -4.113 c 0 -1.926 1.227 -3.613 2.988 -4.109 c 1.762 -0.5 3.625 0.313 4.535 1.98 l -3.492 2.129" fill="#f9f9f9"/></svg>