<svg xmlns="http://www.w3.org/2000/svg" viewBox="0 0 24 24"><path d="m 14.473 23.652 c 12.258 -1.852 12.629 -20.277 0.711 -23.06 c -9.648 -2.867 -17.535 7.512 -14.375 15.277 c 1.496 5.195 7.609 9.395 13.664 7.785" fill="#a4a487"/><g transform="matrix(0.13406 0 0 0.12629 5.09 6.105)"><path d="m 91.99 24.996 v 57.01 l -32.984 17.01 l -50 -17.01 l 0.991 -57.01 l 49.01 11.01" fill="#212121" stroke="#878787"/><g stroke="#212121"><path d="m 9.995 24.996 l -9 -15 l 37 -6 l 9 14.01 l 6 -15 l 44.988 5.01 l -6 16.981 l -32.984 11.01" fill="#878787"/><path d="m 9.995 24.996 l 37 -6.99 l 44.988 6.99 l -32.984 11.01" fill="#333"/></g><path d="m 59 37.987 v 59.02" fill="none" stroke="#444" stroke-width="1.5"/></g><path d="m 5.223 11.281 l 1.207 -2.02 l 6.57 1.391 l 4.422 -1.391 l 0.941 2.148 l -4.426 1.641 l -0.938 -2.398 l -1.074 2.523" fill="#666"/><path d="m 7.504 12.547 c -0.137 0 -0.27 0 -0.402 0.125 c -0.27 0.125 -0.402 0.633 -0.137 1.137 c 0.137 0.379 0.941 0.504 0.941 1.012 c 0 0.379 -0.402 0.504 -0.672 0.25 c -0.402 -0.379 -0.535 -0.25 -0.535 -0.25 c -0.27 0.125 0.402 0.758 0.805 0.758 c 0.535 0 0.805 -0.254 0.805 -0.758 c 0 -0.508 -0.27 -0.758 -0.539 -0.887 c -0.266 -0.125 -0.535 -0.379 -0.535 -0.629 c 0 -0.254 0.27 -0.508 0.535 -0.254 c 0.27 0.254 0.402 0.254 0.539 0.125 c 0.133 -0.25 -0.137 -0.379 -0.137 -0.379 c -0.266 -0.125 -0.402 -0.25 -0.668 -0.25 m 1.609 0.504 c -0.27 0 -0.27 0 -0.27 0.254 v 2.523 c 0 0.254 0 0.254 0.27 0.254 c 0.266 0 0.266 0 0.266 -0.254 v -0.883 l 0.672 0.254 c 0 0 0.133 0 0.133 -0.254 c 0 -0.254 -0.133 -0.254 -0.133 -0.254 l -0.672 -0.25 v -0.887 l 0.938 0.379 c 0.137 0 0.137 -0.504 -0.133 -0.504 m 1.207 0.254 c -0.133 0 -0.27 0 -0.402 0.125 c -0.27 0.254 -0.402 0.758 -0.133 1.137 c 0.133 0.254 0.938 0.379 0.938 1.012 c 0 0.379 -0.402 0.504 -0.672 0.25 c -0.402 -0.379 -0.535 -0.25 -0.535 -0.25 c -0.402 0.125 0.402 0.758 0.805 0.758 c 0.535 0 0.805 -0.254 0.805 -0.758 c 0 -0.633 -0.27 -0.887 -0.535 -1.012 c -0.27 -0.125 -0.539 -0.254 -0.539 -0.504 c 0 -0.379 0.27 -0.508 0.539 -0.254 c 0.133 0.125 0.402 0.379 0.535 0.125 c 0.133 -0.25 -0.133 -0.379 -0.133 -0.379 c -0.27 -0.125 -0.539 -0.25 -0.672 -0.25" fill="#b1b090"/></svg>