<svg xmlns="http://www.w3.org/2000/svg" viewBox="0 0 24 24"><path d="m 18.17 2.02 c 21.13 17.914 -22.313 35.14 -17.848 7.434 c 0.98 -6.074 12.156 -12.262 17.848 -7.434" fill="#d85b5b"/><path d="m 5.445 16.672 v -8.473 h 3.543 v 8.473" fill="#9fd9a6"/><path d="m 9.75 17.535 c -0.035 -0.055 -0.063 -2.297 -0.063 -4.977 l -0.004 -4.879 l 4.04 0.027 c 4.398 0.027 4.336 0.023 4.699 0.512 c 0.168 0.23 0.176 0.336 0.199 3.848 l 0.027 3.613 c -0.668 0.66 -1.332 1.324 -2 1.984 l -3 0.023 c -1.156 -0.027 -2.801 -0.105 -3.895 -0.152" fill="#7fffd4"/><path d="m 7 17.496 c -1.18 -0.039 -1.32 -0.082 -1.574 -0.465 c -0.164 -0.254 -0.238 -2.277 -0.215 -5.895 c 0.027 -3.828 -0.133 -3.574 2.289 -3.645 c 0.883 -0.027 1.609 -0.043 1.613 -0.035 c 0.008 0.004 0.031 2.281 0.059 5.05 l 0.051 5.05 c -0.754 -0.016 -1.543 -0.043 -2.223 -0.066 m 1.668 -1.09 c 0.082 -0.309 0.063 -0.559 0.066 -0.883 h -2.977 l -0.043 0.262 c -0.063 0.391 0.012 0.676 0.188 0.711 c 0.078 0.02 0.719 0.027 1.422 0.023 c 1.055 -0.012 1.289 -0.031 1.344 -0.113 m 0 -1.496 c 0.082 -0.309 0.063 -0.559 0.066 -0.883 h -2.977 c -0.051 0.23 -0.086 0.48 -0.047 0.707 c 0.055 0.297 0.066 0.301 1.648 0.289 c 1.023 -0.008 1.254 -0.031 1.309 -0.113 m 0 -1.496 c 0.082 -0.305 0.063 -0.559 0.066 -0.883 h -2.977 c -0.051 0.23 -0.086 0.48 -0.047 0.711 c 0.055 0.293 0.066 0.297 1.648 0.285 c 1.023 -0.008 1.254 -0.027 1.309 -0.113 m 0 -1.496 c 0.035 -0.055 0.063 -0.277 0.063 -0.492 c 0.109 -0.738 -0.84 -0.391 -1.488 -0.391 h -1.492 l -0.043 0.289 c -0.059 0.395 0.047 0.645 0.285 0.684 c 0.105 0.02 0.734 0.027 1.402 0.023 c 0.984 -0.012 1.219 -0.031 1.273 -0.113 m 0 -1.496 c 0.035 -0.055 0.063 -0.277 0.063 -0.492 l 0.004 -0.391 h -2.984 c -0.031 0.242 -0.102 0.527 -0.016 0.762 c 0.086 0.23 0.195 0.246 1.691 0.23 c 0.957 -0.008 1.188 -0.027 1.242 -0.109 m -0.398 -1.492 c 0.133 -0.168 0.082 -0.359 -0.133 -0.469 c -0.367 -0.188 -1.68 -0.148 -1.934 0.055 c -0.168 0.137 -0.129 0.43 0.063 0.516 c 0.203 0.09 0.91 0.137 1.41 0.09 c 0.371 -0.031 0.496 -0.07 0.594 -0.191" fill="#09a38b"/><g fill="#368f75"><path d="m 10.668 8.762 h 6.543 v 0.984 h -6.543"/><path d="m 10.578 14.543 h 1.031 v 0.984 h -1.031"/><path d="m 10.531 15.934 h 1.031 v 0.984 h -1.031"/></g><g fill="#9fd9a6"><path d="m 10.621 10.465 h 6.547 v 2.105 h -6.547"/><path d="m 10.531 13.11 h 4.168 v 1.074 h -4.168"/></g></svg>