<svg xmlns="http://www.w3.org/2000/svg" viewBox="0 0 24 24"><path d="m 15.297 23.22 c -12.504 4.48 -18.586 -11.621 -13.496 -17.672 c 5.094 -6.05 13.82 -8.117 18.207 -1.266 c 4.391 6.852 7.797 14.457 -4.711 18.938" fill="#0b7879"/><g fill-rule="evenodd"><path d="m 10.914 5.715 c -2.988 0 -5.41 2.496 -5.41 5.586 c 0 3.086 2.422 5.586 5.41 5.586 c 0.824 0 1.602 -0.188 2.305 -0.523 l 2.027 2.094 c 0.953 0.992 0.965 0.992 1.926 0 c 0.953 -0.984 0.953 -0.996 0 -1.984 l -1.859 -1.922 c 0.633 -0.922 1.012 -2.035 1.012 -3.25 c 0 -3.09 -2.418 -5.586 -5.41 -5.586 m -0.082 2.793 c 0.73 -0.023 1.441 0.262 1.965 0.785 c 0.527 0.527 0.824 1.25 0.824 2.01 c 0 1.543 -1.211 2.789 -2.707 2.789 c -1.492 0 -2.703 -1.246 -2.703 -2.789 c -0.004 -1.508 1.16 -2.746 2.621 -2.793" fill="#29a197"/><path d="m 8.211 11.301 c 0 1.539 1.211 2.793 2.703 2.793 c 1.496 0 2.707 -1.254 2.707 -2.793 c 0 -1.543 -1.211 -2.793 -2.707 -2.793 c -1.492 0 -2.703 1.25 -2.703 2.793" fill="#fff"/><path d="m 8.211 11.301 c 0 1.539 1.211 2.793 2.703 2.793 c 1.496 0 2.707 -1.254 2.707 -2.793 c 0 -1.543 -1.211 -2.793 -2.707 -2.793 c -1.492 0 -2.703 1.25 -2.703 2.793" fill="#29a197" fill-opacity="0.102"/></g></svg>