<svg xmlns="http://www.w3.org/2000/svg" viewBox="0 0 24 24"><path d="m 21.305 5.03 c 12.613 17.84 -24.836 28.832 -20.762 5.766 c 1.75 -9.531 14.922 -15.316 20.762 -5.766" fill="#7f007f"/><path d="m 10.637 15.691 c -0.949 -0.137 -1.938 -0.531 -2.508 -1 c -0.355 -0.293 -0.672 -0.777 -0.75 -1.156 c -0.074 -0.328 -0.141 0.102 0.68 -4.277 c 0.348 -1.863 0.512 -2.645 0.602 -2.836 c 0.262 -0.563 1 -1.102 1.82 -1.328 c 0.551 -0.152 1.574 -0.152 2.133 0.004 c 0.59 0.16 1.086 0.434 1.422 0.777 c 0.359 0.363 0.535 0.738 0.602 1.277 c 0.059 0.438 0.449 2.648 0.836 4.699 c 0.266 1.41 0.27 1.684 0.039 2.129 c -0.375 0.715 -1.441 1.371 -2.656 1.637 c -0.461 0.102 -1.742 0.145 -2.219 0.074" fill="#b93f56"/><path d="m 10.773 15.633 c -1.461 -0.156 -2.777 -0.863 -3.188 -1.715 c -0.195 -0.406 -0.203 -0.766 -0.027 -1.656 c 0.07 -0.352 0.328 -1.742 0.578 -3.082 c 0.344 -1.863 0.484 -2.508 0.582 -2.727 c 0.258 -0.551 0.844 -1 1.617 -1.254 c 0.328 -0.105 0.477 -0.121 1.199 -0.121 c 0.727 0 0.871 0.016 1.203 0.121 c 1.098 0.359 1.746 1.031 1.832 1.906 c 0.039 0.371 -0.055 0.602 -0.359 0.918 c -1.047 1.082 -3.57 1.246 -4.918 0.32 c -0.148 -0.102 -0.293 -0.176 -0.328 -0.16 c -0.055 0.02 -0.594 2.816 -0.664 3.445 l -0.031 0.27 l 0.477 -0.254 c 0.836 -0.441 1.633 -0.625 2.762 -0.625 c 0.793 0.004 1.426 0.094 2.039 0.293 c 1.324 0.434 2.137 1.293 2.023 2.141 c -0.09 0.695 -0.84 1.406 -1.855 1.762 c -1.328 0.469 -1.813 0.539 -2.941 0.418" fill="#d60a2f"/><path d="m 11.313 15.531 c -1.152 -0.152 -2.184 -0.621 -2.766 -1.254 c -0.496 -0.543 -0.621 -0.988 -0.488 -1.715 c 0.051 -0.262 0.109 -0.516 0.129 -0.559 c 0.059 -0.117 0.969 -0.59 1.379 -0.719 c 0.875 -0.266 2.164 -0.344 3.105 -0.188 c 1.52 0.258 2.645 1 2.871 1.895 c 0.277 1.098 -1.043 2.223 -2.953 2.523 c -0.523 0.082 -0.754 0.086 -1.277 0.016" fill="#860119"/><path d="m 10.566 18.07 c -0.625 -0.066 -1.719 -0.379 -2.223 -0.637 c -0.883 -0.449 -1.566 -1.207 -1.707 -1.895 c -0.047 -0.223 -0.055 -1.262 -0.012 -1.289 c 0.016 -0.012 0.098 0.113 0.184 0.273 c 0.465 0.879 1.437 1.508 2.906 1.887 c 0.488 0.129 0.898 0.168 1.684 0.168 c 1.129 0 1.715 -0.082 2.508 -0.359 c 1.043 -0.367 1.766 -0.906 2.184 -1.625 c 0.18 -0.305 0.199 -0.328 0.23 -0.25 c 0.043 0.117 0 0.996 -0.063 1.293 c -0.07 0.332 -0.227 0.613 -0.5 0.918 c -0.762 0.84 -2.063 1.395 -3.57 1.52 c -0.523 0.043 -1.223 0.043 -1.621 0" fill="#9b9b9b"/></svg>