<svg xmlns="http://www.w3.org/2000/svg" viewBox="0 0 24 24"><path d="m 4.344 21.387 c 14.398 11.121 29.34 -16.578 11.52 -20.625 c -11.223 -4.152 -22.19 12.383 -11.52 20.625" fill="#a42929"/><path d="m 9.633 16.941 c -3.523 -2.371 -3.574 -2.41 -3.672 -2.855 c -0.047 -0.215 -0.125 -1.629 -0.172 -3.141 c -0.078 -2.605 -0.07 -2.762 0.145 -2.93 c 0.277 -0.219 5.832 -2.461 6.098 -2.461 c 0.215 0 5.598 2.164 6.03 2.426 c 0.238 0.141 0.27 0.254 0.27 0.945 c 0 1.035 -0.363 5.41 -0.461 5.574 c -0.195 0.324 -5.488 3.969 -5.762 3.969 c -0.109 0 -1.223 -0.688 -2.473 -1.527 m 1.98 -2.391 v -2.461 l -2.223 -1.313 c -1.223 -0.723 -2.332 -1.344 -2.469 -1.375 c -0.246 -0.063 -0.246 -0.047 -0.16 2.117 c 0.047 1.199 0.129 2.258 0.184 2.359 c 0.109 0.195 4.387 3.133 4.562 3.133 c 0.059 0 0.105 -1.109 0.105 -2.461 m 3.379 0.91 c 1.516 -1.063 2.02 -1.477 2.062 -1.695 c 0.031 -0.16 0.09 -0.898 0.129 -1.641 c 0.039 -0.742 0.102 -1.641 0.141 -1.992 c 0.055 -0.535 0.035 -0.648 -0.117 -0.648 c -0.199 0 -4.402 2.43 -4.543 2.629 c -0.109 0.152 -0.125 4.719 -0.016 4.82 c 0.105 0.098 0.09 0.105 2.344 -1.473 m -0.57 -5.555 c 1.18 -0.695 2.168 -1.32 2.191 -1.387 c 0.047 -0.133 -4.293 -1.961 -4.621 -1.945 c -0.387 0.02 -4.398 1.734 -4.398 1.879 c 0 0.168 4.219 2.711 4.496 2.711 c 0.102 0.004 1.148 -0.566 2.332 -1.258" fill="#fff"/></svg>