<svg xmlns="http://www.w3.org/2000/svg" viewBox="0 0 24 24"><path d="m 21.21 19.836 c 5.84 -8.977 1.129 -17.16 -5.48 -19.1 c -8.891 -2.609 -20.961 4.25 -13.01 18.387 c 3.16 5.617 14.328 7.105 18.488 0.711" fill="#353535"/><path d="m 11.01 6.176 v 1.449 l -4.734 2.648 l 1.246 0.938 v 5.473 l 1.5 -0.77 l 4.98 2.797 v -1.445 l 4.734 -2.605 l -1.246 -0.957 v -5.473 l -1.496 0.699 m -3.555 -0.504 l 3.555 1.996 v 4.113 l -3.418 1.902 l -3.555 -2.063 l -0.004 -4.01" fill-opacity="0.098"/><path d="m 15.496 14.07 v -5.625 l 1.492 -0.695 v 5.473" fill="#e84345"/><path d="m 12.02 15.988 l 4.965 -2.766 l 1.246 0.957 l -4.734 2.605" fill="#a961ac"/><path d="m 8.516 9.793 l 0.008 5.641 l -1.504 0.766 v -5.473" fill="#67c960"/><path d="m 11.988 7.914 l -4.969 2.812 l -1.246 -0.934 l 4.738 -2.652" fill="#f4e034"/><path d="m 15.496 9.938 l -4.984 -2.797 v -1.445 l 4.984 2.75" fill="#f19d45"/><path d="m 8.516 13.891 l 4.984 2.895 v 1.445 l -4.977 -2.797" fill="#759dd0"/></svg>