<svg xmlns="http://www.w3.org/2000/svg" viewBox="0 0 24 24"><path d="m 6.164 21.91 c 5.098 4.438 10.645 1.117 14.887 -3.426 c 3.453 -3.695 3.637 -7.02 1.398 -10.465 c -5.844 -8.992 -13.504 -12.547 -21.879 1.285 c -2.023 4.77 2.324 10.11 5.594 12.605" fill="#fbb03f"/><path d="m 142.96 371.03 c -2.02 -0.771 -4.945 -2.312 -6.51 -3.442 c -5.702 -4.161 -92.19 -91.81 -93.96 -95.25 c -2.372 -4.624 -2.372 -13.409 0 -17.981 c 2.422 -4.778 90.93 -93.45 96.58 -96.79 c 6.207 -3.75 13.776 -3.75 19.983 0 c 5.652 3.339 94.16 92.01 96.58 96.79 c 1.11 2.106 1.817 5.651 1.817 8.991 c 0 3.339 -0.706 6.884 -1.817 8.991 c -2.321 4.521 -90.78 93.4 -96.13 96.59 c -5.097 3.03 -11.808 3.853 -16.552 2.106 m 11.404 -9.813 c 2.876 -1.49 91.08 -89.7 92.55 -92.58 c 1.564 -2.98 1.463 -7.86 -0.303 -11.1 c -1.716 -3.237 -89.12 -90.47 -92.24 -92.06 c -2.775 -1.439 -7.822 -1.49 -10.597 -0.051 c -3.129 1.593 -90.53 88.83 -92.24 92.12 c -1.716 3.237 -1.867 8.117 -0.303 11.1 c 1.463 2.928 87.5 89.34 91.34 91.76 c 3.381 2.158 8.528 2.517 11.808 0.822 m -34.11 -51.07 c -0.908 -0.925 -1.211 -12.69 -1.211 -46.905 c 0 -38.634 0.252 -45.827 1.463 -46.854 c 2.321 -1.952 48.747 -0.976 54.35 1.13 c 10.547 3.956 17.11 11.457 19.13 21.937 c 2.372 11.919 -0.959 23.07 -9.134 30.414 c -6.762 6.01 -12.11 7.552 -29.773 8.323 l -14.533 0.668 l -0.252 14.899 c -0.151 8.939 -0.706 15.464 -1.362 16.286 c -1.463 1.695 -16.955 1.798 -18.671 0.103 m 49.907 -55.742 c 2.372 -2.363 2.927 -3.75 2.927 -7.552 c 0 -9.196 -6.207 -12.07 -24.525 -11.354 l -8.02 0.36 l -0.252 10.737 l -0.303 10.737 h 27.25" transform="matrix(0.07741 0 0 0.07603 0.41 -8.02)" fill="#020220" stroke="#020220"/></svg>