<svg xmlns="http://www.w3.org/2000/svg" viewBox="0 0 24 24"><path d="m 3.03 20.289 c -13.527 -20.82 23.418 -28.875 20.477 -7.457 c -1.203 8.734 -15.301 15.422 -20.477 7.457" fill="#ede7aa"/><path d="m 11.156 5.711 c -0.305 0 -0.555 0.246 -0.555 0.555 v 1.309 c -0.465 0.117 -0.906 0.305 -1.309 0.543 l -0.926 -0.926 c -0.215 -0.219 -0.566 -0.219 -0.781 0 l -0.91 0.91 c -0.219 0.215 -0.219 0.566 0 0.781 l 0.926 0.93 c -0.242 0.398 -0.426 0.84 -0.543 1.309 h -1.313 c -0.305 0 -0.551 0.246 -0.551 0.551 v 1.289 c 0 0.309 0.246 0.555 0.551 0.555 h 1.313 c 0.117 0.465 0.301 0.906 0.543 1.309 l -0.926 0.926 c -0.219 0.219 -0.219 0.566 0 0.785 l 0.91 0.91 c 0.215 0.215 0.566 0.215 0.781 0 l 0.926 -0.93 c 0.402 0.242 0.844 0.426 1.309 0.543 v 1.313 c 0 0.305 0.25 0.555 0.555 0.555 h 1.289 c 0.309 0 0.555 -0.25 0.555 -0.555 v -1.313 c 0.465 -0.117 0.906 -0.301 1.309 -0.543 l 0.926 0.93 c 0.219 0.215 0.566 0.215 0.785 0 l 0.906 -0.91 c 0.219 -0.219 0.219 -0.566 0 -0.785 l -0.926 -0.926 c 0.242 -0.402 0.426 -0.844 0.543 -1.309 h 1.313 c 0.305 0 0.555 -0.246 0.555 -0.555 v -1.289 c 0 -0.305 -0.25 -0.551 -0.555 -0.551 h -1.313 c -0.117 -0.469 -0.301 -0.906 -0.543 -1.309 l 0.926 -0.93 c 0.219 -0.215 0.219 -0.566 0 -0.781 l -0.906 -0.91 c -0.219 -0.219 -0.566 -0.219 -0.785 0 l -0.926 0.926 c -0.402 -0.238 -0.844 -0.426 -1.309 -0.543 v -1.309 c 0 -0.309 -0.246 -0.555 -0.555 -0.555 m -0.645 4.348 c 1.25 0 2.258 1.012 2.258 2.258 c 0 1.25 -1.01 2.262 -2.258 2.262 c -1.246 0 -2.258 -1.012 -2.258 -2.262 c 0 -1.246 1.012 -2.258 2.258 -2.258" fill="#fff"/><path d="m 163.57 127.99 c 0 19.663 -15.95 35.567 -35.567 35.567 c -19.617 0 -35.567 -15.905 -35.567 -35.567 c 0 -19.617 15.95 -35.522 35.567 -35.522 c 19.617 0 35.567 15.905 35.567 35.522" transform="matrix(0.08523 0 0 0.08523 0.892 1.408)" fill="none" stroke="#bcb76a" stroke-width="17.6"/></svg>