<svg xmlns="http://www.w3.org/2000/svg" viewBox="0 0 24 24"><path d="m 22.953 8.199 c 4.66 11.945 -8.395 18.07 -16.52 15.03 c -5.672 -2.125 -8.5 -10.594 -4.473 -17.441 c 5.086 -8.637 17.402 -6.801 20.992 2.414" fill="#707f8f"/><path d="m 5.707 7 h 11.672 c 0.105 0 0.188 0.086 0.188 0.188 v 10.43 c 0 0.105 -0.082 0.188 -0.188 0.188 h -11.672 c -0.105 0 -0.188 -0.082 -0.188 -0.188 v -10.43 c 0 -0.102 0.082 -0.188 0.188 -0.188" fill="#4a4a4e"/><g fill-rule="evenodd" fill-opacity="0.149"><path d="m 11.336 7 h 0.414 v 10.805 h -0.414"/><path d="m 17.566 12.18 v 0.453 h -12.05 v -0.453"/></g><path d="m 5.934 7 c -0.23 0 -0.414 0.199 -0.414 0.449 v 4.953 h 6.02 v -5.402" fill="#628df4"/><g fill="#fff" fill-rule="evenodd"><path d="m 6.859 8.129 h 3.551 c 0.051 0 0.094 0.043 0.094 0.094 v 2.965 c 0 0.051 -0.043 0.094 -0.094 0.094 h -3.551 c -0.051 0 -0.094 -0.043 -0.094 -0.094 v -2.965 c 0 -0.051 0.043 -0.094 0.094 -0.094" fill-opacity="0.502"/><path d="m 12.676 13.531 h 3.551 c 0.051 0 0.094 0.043 0.094 0.094 v 2.965 c 0 0.051 -0.043 0.094 -0.094 0.094 h -3.551 c -0.051 0 -0.094 -0.043 -0.094 -0.094 v -2.965 c 0 -0.051 0.043 -0.094 0.094 -0.094" fill-opacity="0.149"/></g></svg>