<svg xmlns="http://www.w3.org/2000/svg" viewBox="0 0 24 24" xmlns:xlink="http://www.w3.org/1999/xlink"><defs><linearGradient id="6" gradientUnits="userSpaceOnUse" y1="17.2" x2="0" y2="17.1" xlink:href="#0"/><linearGradient id="5" gradientUnits="userSpaceOnUse" x1="6.4" x2="6.44" xlink:href="#0"/><linearGradient id="7" gradientUnits="userSpaceOnUse" x1="6.11" y1="18.31" x2="6.07" y2="18.35" xlink:href="#0"/><linearGradient id="4" gradientUnits="userSpaceOnUse" x1="6.56" y1="17.98" x2="6.57" y2="18" xlink:href="#0"/><linearGradient id="3" gradientUnits="userSpaceOnUse" x1="5.86" y1="17.4" x2="5.83" y2="17.38" xlink:href="#0"/><linearGradient id="0" gradientUnits="userSpaceOnUse" y1="18" x2="0" y2="18.1"><stop style="stop-color:#000;stop-opacity:0.05"/><stop offset="1" style="stop-color:#000;stop-opacity:0"/></linearGradient><linearGradient id="2" gradientUnits="userSpaceOnUse" x1="5.34" y1="16.96" x2="5.29" y2="16.97"><stop style="stop-color:#000;stop-opacity:0.12"/><stop offset="1" style="stop-color:#000;stop-opacity:0"/></linearGradient><linearGradient id="1" gradientUnits="userSpaceOnUse" x1="5.54" y1="16.73" x2="5.55" y2="17.92"><stop style="stop-color:#fbfbfb"/><stop offset="1" style="stop-color:#f1f1f1"/></linearGradient></defs><path d="m 15.91 1.16 c -11.95 -4.66 -18.1 8.4 -15 16.52 c 2.13 5.67 10.59 8.49 17.44 4.47 c 8.63 -5.08 6.8 -17.4 -2.41 -20.99" style="fill:#546a2f"/><path d="m 4.56 5.96 h 14.39 v 12.25 h -14.39" style="fill:#7fff5b"/><g transform="matrix(0.126 0 0 0.134 3.77 4.28)" style="fill:#546a2f;stroke:#546a2f;stroke-width:1.6"><path d="m 63.3 39 c 1.09 0 1.98 -0.93 1.98 -2.03 v -14.21 c 0 -1.13 -0.9 -2.03 -1.98 -2.03 c -1.12 0 -2 0.9 -2 2.03 v 14.21 c 0 1.1 0.9 2.03 2 2.03"/><path d="m 63.3 65 c -1.12 0 -2 0.9 -2 2 v 14.24 c 0 1.1 0.9 2.03 2 2.03 c 1.09 0 1.98 -0.93 1.98 -2.03 v -14.24 c 0 -1.1 -0.9 -2 -1.98 -2"/><path d="m 93.9 50 h -14.51 c -1.12 0 -2.05 0.87 -2.05 1.95 c 0 1.08 0.93 1.95 2.05 1.95 h 14.51 c 1.15 0 2.08 -0.87 2.08 -1.95 c 0 -1.08 -0.93 -1.95 -2.08 -1.95"/><path d="m 34.1 53.97 h 14.51 c 1.15 0 2.08 -0.87 2.08 -1.98 c 0 -1.08 -0.93 -1.95 -2.08 -1.95 h -14.51 c -1.15 0 -2.05 0.87 -2.05 1.95 c 0 1.1 0.9 1.98 2.05 1.98"/><path d="m 75.3 41.61 c 0.5 0 0.96 -0.2 1.36 -0.55 l 9.49 -9.3 c 0.74 -0.73 0.74 -1.92 0 -2.67 c -0.74 -0.73 -1.95 -0.73 -2.7 0 l -9.52 9.3 c -0.74 0.73 -0.74 1.92 0 2.67 c 0.37 0.35 0.87 0.55 1.36 0.55"/><path d="m 50.1 41 c 0.37 0.38 0.87 0.55 1.36 0.55 c 0.5 0 0.99 -0.17 1.36 -0.55 c 0.74 -0.73 0.74 -1.92 0 -2.67 l -9.49 -9.3 c -0.78 -0.73 -1.98 -0.73 -2.73 0 c -0.74 0.76 -0.74 1.92 0 2.67"/><path d="m 93.9 53.97 h -14.51 c -1.12 0 -2.05 -0.87 -2.05 -1.98 c 0 -1.08 0.93 -1.95 2.05 -1.95 h 14.51 c 1.15 0 2.08 0.87 2.08 1.95 c 0 1.1 -0.93 1.98 -2.08 1.98"/><path d="m 34.1 50 h 14.51 c 1.15 0 2.08 0.87 2.08 1.95 c 0 1.08 -0.93 1.95 -2.08 1.95 h -14.51 c -1.15 0 -2.05 -0.87 -2.05 -1.95 c 0 -1.08 0.9 -1.95 2.05 -1.95"/><path d="m 75.3 62.4 c 0.5 0 0.96 0.17 1.36 0.55 l 9.49 9.3 c 0.74 0.73 0.74 1.92 0 2.67 c -0.74 0.73 -1.95 0.73 -2.7 0 l -9.52 -9.3 c -0.74 -0.73 -0.74 -1.92 0 -2.67 c 0.37 -0.38 0.87 -0.55 1.36 -0.55"/><path d="m 50.1 62.95 c 0.37 -0.38 0.87 -0.55 1.36 -0.55 c 0.5 0 0.99 0.17 1.36 0.55 c 0.74 0.73 0.74 1.92 0 2.67 l -9.49 9.3 c -0.78 0.73 -1.98 0.73 -2.73 0 c -0.74 -0.76 -0.74 -1.92 0 -2.67"/></g><path d="m 4.56 16.1 h 14.39 v 3.04 h -14.39" style="fill:#63aa2f"/><g style="fill:#fff"><path d="m 14.45 17.59 c 0 0.28 -0.2 0.51 -0.45 0.51 c -0.25 0 -0.45 -0.23 -0.45 -0.51 c 0 -0.28 0.2 -0.5 0.45 -0.5 c 0.25 0 0.45 0.23 0.45 0.5"/><path d="m 16.25 17.59 c 0 0.28 -0.2 0.51 -0.45 0.51 c -0.25 0 -0.45 -0.23 -0.45 -0.51 c 0 -0.28 0.2 -0.5 0.45 -0.5 c 0.25 0 0.45 0.23 0.45 0.5"/><path d="m 18.1 17.59 c 0 0.28 -0.2 0.51 -0.45 0.51 c -0.25 0 -0.45 -0.23 -0.45 -0.51 c 0 -0.28 0.2 -0.5 0.45 -0.5 c 0.25 0 0.45 0.23 0.45 0.5"/></g><path d="m 5.55 17.92 l 0.82 0.36 l 0.8 0.07 c -0.45 -0.52 0 0 -0.45 -0.52 l -0.31 0.27" style="fill:#e5e5e5"/><path d="m 5.55 17.92 l 0.5 0.37 l 0.26 0.22 l 0.07 -0.23 l 0.04 -0.21" style="fill:#f5f5f5"/><path d="m 5.54 17.92 l 0.43 0.53 l 0.33 0.05 l 0.1 -0.4" style="fill:url(#0)"/><path d="m 5.75 18.5 l 0.29 -0.22 l 0.26 0.22" style="fill:#eaeaea"/><path d="m 5.85 16.66 h -0.57 l 0.06 0.3 l 0.21 0.96 l 0.55 -0.88" style="fill:url(#1)"/><path d="m 5.28 16.66 l -0.11 0.35 l 0.17 -0.04" style="fill:#fbfbfb"/><path d="m 6.1 17 l 0.3 1.05 l -0.86 -0.18 l 0.55 -0.88" style="fill:#333"/><path d="m 6.4 18.1 l 0.88 -1.03 l -1.18 -0.02 l -0.55 0.88" style="fill:#ececec"/><path d="m 5.54 17.92 l 0.86 0.18 l 1.07 -0.86 l -1.38 -0.2 l -0.55 0.88" style="fill:#f1f1f1"/><path d="m 5.28 16.66 l -0.11 0.35 l 0.17 -0.04" style="fill:url(#2)"/><path d="m 5.96 16.73 h -0.64 l 0.23 1.19 l 0.55 -0.88" style="fill:url(#3)"/><path d="m 6.4 18.1 l 0.06 0.06 l 0.32 -0.21 l -0.06 -0.1" style="fill:url(#4)"/><path d="m 6.4 18.1 l -0.03 0.18 l 0.05 0.02 l 0.04 -0.14" style="fill:url(#5)"/><path d="m 6.1 17 l 1.18 0.02 l -0.11 0.13" style="fill:url(#6)"/><path d="m 5.75 18.5 l 0.29 -0.22 l 0.26 0.22" style="fill:url(#7)"/></svg>