<svg xmlns="http://www.w3.org/2000/svg" viewBox="0 0 24 24"><path d="m 0.207 11.789 c -2.098 -10.492 12.273 -14.477 20.08 -9.93 c 6.219 3.621 4.441 16.03 -3.953 20.66 c -8.395 4.625 -14.445 -2.309 -16.12 -10.73" fill="#9370db"/><path d="m 49.08 94.09 c 7.708 -7.125 29.333 -27.17 48.04 -44.46 c 18.708 -17.333 34.04 -31.792 34.08 -32.12 c 0.208 -1.333 -10.667 -11.125 -19.375 -17.458 c -40.21 -29.17 -92.83 -33.875 -137.17 -12.292 c -3.375 1.667 -6.167 3.208 -6.167 3.5 c -0.083 0.875 64.917 115.04 65.75 115.46 c 0.458 0.208 7.125 -5.458 14.833 -12.625 m -17.25 -5.333 c -5.792 -9.875 -50.958 -89.87 -52.21 -92.46 c -1.042 -2.25 -1 -2.292 4.875 -4.833 c 14.375 -6.125 32.458 -9.875 48.21 -9.917 c 11.125 -0.042 29.583 2.958 40.17 6.5 c 15.08 5.04 31.625 14.5 43.04 24.542 l 4.917 4.333 l -2.167 2.417 c -3.792 4.25 -81.71 76.04 -82.37 75.917 c -0.375 -0.042 -2.375 -3 -4.458 -6.542" transform="matrix(0.09375 0 0 0.09375 7.488 8.436)" fill="#fff" stroke="#fff"/></svg>