<svg xmlns="http://www.w3.org/2000/svg" viewBox="0 0 24 24"><path d="m 20.992 3.758 c 13.727 20.82 -23.766 28.879 -20.777 7.461 c 1.219 -8.738 15.527 -15.426 20.777 -7.461" fill="#acd7e5"/><g fill="#778799"><path d="m 11.07 19.715 c -0.102 -0.023 -0.414 -0.086 -0.691 -0.145 c -2.234 -0.453 -4.406 -2.324 -5.281 -4.555 c -1.609 -4.113 0.715 -8.73 4.996 -9.922 c 3.891 -1.086 7.953 1.211 9.129 5.16 c 0.215 0.727 0.254 1.027 0.254 2.035 c 0 1.01 -0.039 1.309 -0.254 2.035 c -0.754 2.531 -2.672 4.449 -5.168 5.164 c -0.68 0.195 -2.52 0.336 -2.98 0.23 m 3.03 -1.129 c 1.781 -0.598 3.074 -1.734 3.883 -3.414 c 0.531 -1.109 0.66 -1.672 0.656 -2.934 c -0.004 -1.855 -0.59 -3.254 -1.938 -4.605 c -0.684 -0.688 -0.953 -0.887 -1.707 -1.25 c -1.16 -0.559 -2.184 -0.773 -3.352 -0.695 c -3 0.195 -5.422 2.277 -6.066 5.215 c -0.219 0.984 -0.152 2.488 0.145 3.371 c 0.801 2.379 2.527 3.941 4.973 4.508 c 0.906 0.207 2.477 0.121 3.406 -0.191"/><path d="m 10.93 15.02 c -0.711 -0.277 -1.426 -1.01 -1.691 -1.719 c -0.566 -1.512 0.09 -3.141 1.547 -3.859 c 0.688 -0.336 1.777 -0.332 2.508 0.016 c 1.922 0.914 2.371 3.43 0.875 4.883 c -0.598 0.578 -1.184 0.828 -2.01 0.855 c -0.547 0.02 -0.828 -0.02 -1.227 -0.176 m 2.039 -0.828 c 0.211 -0.094 0.535 -0.348 0.719 -0.563 c 0.59 -0.691 0.707 -1.527 0.328 -2.344 c -0.652 -1.398 -2.465 -1.707 -3.539 -0.605 c -0.676 0.699 -0.785 1.848 -0.254 2.711 c 0.539 0.871 1.789 1.238 2.746 0.801"/><path d="m 11.566 17.223 c -0.145 -1.184 -0.262 -2.227 -0.262 -2.313 c 0 -0.09 0.285 -0.16 0.633 -0.16 c 0.531 0 0.621 0.066 0.555 0.402 c -0.047 0.223 -0.164 1.129 -0.266 2.01 c -0.098 0.887 -0.23 1.746 -0.289 1.914 c -0.063 0.164 -0.227 -0.668 -0.371 -1.855"/><path d="m 11.543 13.43 c -0.105 -0.047 -0.32 -0.215 -0.477 -0.379 c -0.25 -0.266 -0.281 -0.367 -0.281 -0.871 c 0 -0.535 0.02 -0.59 0.348 -0.891 c 0.406 -0.371 0.703 -0.469 1.164 -0.383 c 0.945 0.18 1.387 1.336 0.797 2.082 c -0.367 0.465 -1.035 0.656 -1.551 0.441"/><path d="m 11.406 9.375 c 0.012 -0.367 0.586 -4.059 0.602 -3.887 c 0.02 0.199 0.469 3.102 0.566 3.676 c 0.074 0.43 0.027 0.473 -0.547 0.473 c -0.406 0 -0.629 -0.094 -0.621 -0.262"/><path d="m 14.336 12.223 c 0 -0.926 0.051 -1.164 0.254 -1.168 c 0.547 -0.008 4.41 1.074 4.41 1.074 c 0.059 0.098 -0.969 0.418 -2.277 0.715 l -2.387 0.539"/><path d="m 7.266 12.766 c -2.566 -0.598 -2.57 -0.656 -0.113 -1.172 c 0.961 -0.203 1.863 -0.418 2 -0.477 c 0.238 -0.098 0.254 -0.031 0.254 1.012 c 0 0.762 -0.043 1.113 -0.141 1.094 c -0.078 -0.016 -0.98 -0.223 -2 -0.457"/></g></svg>