<svg xmlns="http://www.w3.org/2000/svg" viewBox="0 0 24 24"><path d="m 3.03 20.426 c -13.727 -20.91 23.766 -29 20.781 -7.492 c -1.219 8.773 -15.527 15.492 -20.781 7.492" fill="#acd7e5"/><path d="m 5.18 9.664 l -0.055 0.094 c -0.074 0.137 -0.043 0.324 0.078 0.43 l 1.09 0.953 c 0.012 -0.148 0.027 -0.301 0.051 -0.445 l -1.141 -1 c -0.012 -0.008 -0.016 -0.02 -0.023 -0.031 m 13.223 0 c -0.008 0.012 -0.012 0.023 -0.023 0.031 l -1.141 1 c 0.023 0.145 0.039 0.297 0.051 0.445 l 1.09 -0.953 c 0.121 -0.105 0.156 -0.293 0.078 -0.43 l -0.055 -0.094 m -12.11 2.09 c -0.004 0.082 -0.008 0.164 -0.008 0.246 c 0 0.125 0.004 0.246 0.016 0.367 l 0.047 -0.043 c -0.027 -0.188 -0.043 -0.379 -0.055 -0.57 m 11 0 c -0.008 0.191 -0.023 0.383 -0.055 0.57 l 0.051 0.043 c 0.008 -0.121 0.016 -0.242 0.016 -0.367 c 0 -0.082 -0.008 -0.164 -0.012 -0.246 m -12.11 2.09 c -0.098 0.105 -0.125 0.273 -0.051 0.398 l 1.375 2.383 c 0.082 0.133 0.262 0.199 0.41 0.148 l 1.434 -0.484 c 0.43 0.344 0.922 0.625 1.441 0.828 l 0.289 1.469 c 0.031 0.156 0.18 0.277 0.336 0.281 h 2.758 c 0.156 -0.004 0.305 -0.125 0.332 -0.281 l 0.289 -1.469 c 0.523 -0.203 1.012 -0.484 1.445 -0.828 l 1.43 0.484 c 0.148 0.051 0.328 -0.016 0.41 -0.148 l 1.379 -2.383 c 0.07 -0.125 0.043 -0.293 -0.055 -0.398 l -1.324 2.289 c -0.082 0.137 -0.262 0.203 -0.41 0.148 l -1.434 -0.48 c -0.43 0.344 -0.918 0.621 -1.441 0.824 l -0.289 1.473 c -0.031 0.152 -0.176 0.273 -0.336 0.277 h -2.754 c -0.16 -0.004 -0.305 -0.125 -0.336 -0.277 l -0.289 -1.473 c -0.523 -0.203 -1.012 -0.48 -1.441 -0.824 l -1.434 0.48 c -0.148 0.051 -0.328 -0.016 -0.41 -0.148 l -1.324 -2.293" fill-opacity="0.2"/><path d="m 10.383 4.887 c -0.148 0.016 -0.277 0.133 -0.305 0.277 l -0.289 1.473 c -0.523 0.203 -1.012 0.48 -1.441 0.824 l -1.434 -0.48 c -0.148 -0.051 -0.328 0.012 -0.41 0.148 l -1.375 2.383 c -0.078 0.137 -0.047 0.324 0.074 0.43 l 1.141 0.996 c -0.039 0.27 -0.063 0.539 -0.063 0.816 c 0 0.277 0.023 0.547 0.063 0.816 l -1.141 0.996 c -0.121 0.102 -0.152 0.293 -0.074 0.43 l 1.375 2.383 c 0.082 0.133 0.262 0.199 0.41 0.148 l 1.434 -0.48 c 0.43 0.344 0.922 0.621 1.441 0.824 l 0.293 1.473 c 0.027 0.152 0.176 0.273 0.332 0.277 h 2.758 c 0.156 -0.004 0.301 -0.125 0.332 -0.277 l 0.289 -1.473 c 0.523 -0.203 1.016 -0.48 1.445 -0.824 l 1.43 0.48 c 0.148 0.051 0.332 -0.016 0.41 -0.148 l 1.379 -2.383 c 0.078 -0.137 0.043 -0.328 -0.074 -0.43 l -1.145 -0.996 c 0.043 -0.27 0.066 -0.539 0.066 -0.816 c 0 -0.277 -0.023 -0.547 -0.066 -0.816 l 1.145 -0.996 c 0.117 -0.105 0.152 -0.293 0.074 -0.43 l -1.379 -2.383 c -0.078 -0.137 -0.262 -0.203 -0.41 -0.148 l -1.43 0.48 c -0.43 -0.344 -0.922 -0.621 -1.445 -0.824 l -0.289 -1.473 c -0.031 -0.152 -0.176 -0.277 -0.332 -0.277 h -2.758 c -0.012 0 -0.023 0 -0.031 0" fill="#18b3d8"/><path d="m 11.793 9.05 c -1.633 0 -2.953 1.32 -2.953 2.945 v 4.145 c 0.297 0.188 0.617 0.352 0.949 0.484 l 0.289 1.469 c 0.023 0.121 0.121 0.219 0.238 0.258 v -3.813 c 0.434 0.254 0.938 0.398 1.477 0.398 c 1.629 0 2.953 -1.316 2.953 -2.941 c 0 -1.625 -1.324 -2.945 -2.953 -2.945 m 0 1.473 c 0.813 0 1.477 0.66 1.477 1.473 c 0 0.813 -0.664 1.469 -1.477 1.469 c -0.816 0 -1.477 -0.656 -1.477 -1.469 c 0 -0.813 0.66 -1.473 1.477 -1.473" fill-opacity="0.2"/><g fill="#fff"><path d="m 11.793 8.813 c -1.633 0 -2.953 1.316 -2.953 2.941 v 4.637 c 0.297 0.188 0.617 0.352 0.949 0.48 l 0.289 1.473 c 0.023 0.121 0.121 0.219 0.238 0.258 v -4.301 c 0.434 0.25 0.938 0.395 1.477 0.395 c 1.629 0 2.953 -1.316 2.953 -2.941 c 0 -1.625 -1.324 -2.941 -2.953 -2.941 m 0 1.469 c 0.813 0 1.477 0.66 1.477 1.473 c 0 0.813 -0.664 1.473 -1.477 1.473 c -0.816 0 -1.477 -0.66 -1.477 -1.473 c 0 -0.813 0.66 -1.473 1.477 -1.473"/><path d="m 10.383 4.887 c -0.148 0.016 -0.277 0.137 -0.305 0.277 l -0.289 1.473 c -0.523 0.203 -1.012 0.48 -1.441 0.824 l -1.434 -0.48 c -0.148 -0.051 -0.328 0.012 -0.41 0.148 l -1.375 2.383 c -0.051 0.086 -0.051 0.195 -0.016 0.289 c 0.004 -0.016 0.004 -0.031 0.016 -0.043 l 1.375 -2.383 c 0.082 -0.137 0.262 -0.203 0.41 -0.148 l 1.434 0.48 c 0.43 -0.344 0.918 -0.621 1.441 -0.824 l 0.289 -1.473 c 0.027 -0.145 0.156 -0.262 0.305 -0.277 c 0.008 0 0.02 0 0.031 0 h 2.754 c 0.16 0 0.305 0.125 0.336 0.277 l 0.289 1.469 c 0.523 0.207 1.012 0.484 1.445 0.828 l 1.43 -0.48 c 0.148 -0.055 0.328 0.012 0.41 0.148 l 1.379 2.383 c 0.008 0.012 0.008 0.027 0.016 0.043 c 0.035 -0.094 0.035 -0.203 -0.016 -0.289 l -1.379 -2.383 c -0.082 -0.137 -0.262 -0.199 -0.41 -0.148 l -1.43 0.48 c -0.434 -0.344 -0.922 -0.621 -1.445 -0.824 l -0.289 -1.473 c -0.031 -0.152 -0.176 -0.273 -0.336 -0.277 h -2.754 c -0.012 0 -0.023 0 -0.031 0 m -4.066 6.273 c -0.023 0.195 -0.039 0.391 -0.039 0.594 c 0 0.043 0.004 0.082 0.008 0.121 c 0.004 -0.234 0.023 -0.465 0.059 -0.691 m 10.922 -0.023 l -0.027 0.023 c 0.035 0.227 0.055 0.457 0.063 0.691 c 0 -0.039 0.004 -0.078 0.004 -0.121 c 0 -0.203 -0.016 -0.398 -0.039 -0.594 m -10.949 1.434 l -1.113 0.973 c -0.109 0.094 -0.141 0.254 -0.09 0.387 c 0.02 -0.055 0.047 -0.102 0.09 -0.141 l 1.141 -0.996 c -0.012 -0.074 -0.02 -0.148 -0.027 -0.223 m 10.949 0 c -0.008 0.074 -0.016 0.148 -0.027 0.223 l 1.145 0.996 c 0.043 0.039 0.07 0.086 0.09 0.141 c 0.047 -0.133 0.016 -0.293 -0.09 -0.387" fill-opacity="0.2"/></g></svg>