<svg xmlns="http://www.w3.org/2000/svg" viewBox="0 0 24 24"><path d="m 4.289 4.285 c -11.926 9.594 5.535 26.914 16.09 15.848 c 10.578 -9.52 -5.93 -28 -16.09 -15.848" fill="#b0c3de"/><g transform="matrix(0.09375 0 0 0.09375 0.492 1.805)"><g fill="#3d4567" stroke="#5c647e" stroke-width="1.333"><path d="m 46.5 102.29 c -1.208 -0.875 -1.292 -1.833 -1.292 -14.708 c 0 -16.625 -0.375 -15.917 8.375 -15.5 c 6.625 0.292 9.417 1.583 11.417 5.167 c 1.708 3.125 1.333 8.08 -0.792 10.333 c -1.625 1.75 -5.417 3.333 -9.458 4 c -2.667 0.417 -2.833 0.708 -3.542 6 c -0.75 5.542 -1.958 6.75 -4.708 4.708 m 11.917 -18.208 c 0.75 -0.708 1.125 -1.792 1 -3.125 c -0.208 -1.708 -0.625 -2.167 -2.958 -2.958 c -4.04 -1.417 -4.917 -0.792 -4.917 3.458 c 0 1.958 0.208 3.792 0.5 4.083 c 0.708 0.75 5 -0.25 6.375 -1.458"/><path d="m 70.46 102.58 c -1.833 -0.708 -2.25 -3.083 -2.25 -11.917 c 0 -9.875 0.25 -10.25 7.167 -10.958 c 6.04 -0.625 7.708 -0.042 7.333 2.5 c -0.125 0.917 -0.958 1.583 -2.5 2.042 c -4.625 1.333 -5.25 2.542 -6.04 11.25 c -0.542 6.417 -1.375 8 -3.708 7.083"/><path d="m 90.33 102.54 c -4.375 -2.208 -6.375 -5.292 -6.708 -10.25 c -0.417 -6.833 2.667 -11.25 9.08 -13 c 3.792 -1 8 0.75 10.375 4.417 c 2.417 3.667 2.75 5.667 1.292 7.5 c -1.083 1.292 -2.125 1.583 -8.08 2.042 c -3.792 0.292 -7 0.667 -7.167 0.833 c -0.167 0.208 0.792 1.292 2.167 2.5 c 2.458 2.167 2.458 2.167 7.708 1.708 c 2.792 0.083 5.458 -2 5.083 1.417 c -0.458 3.708 -8.667 5.417 -13.75 2.833 m 8.375 -15.583 c 0.75 -0.75 -1.958 -2.375 -4.04 -2.375 c -1.042 0 -2.542 0.333 -3.292 0.75 c -1.417 0.75 -2.042 1.875 -0.792 2.833 c 1.292 0.958 6.917 1.75 8.125 -1.208"/><path d="m 117.71 102.58 c -0.833 -0.333 -2.208 -2.042 -3.083 -3.792 c -2.042 -4.04 -5.583 -13.958 -5.875 -16.583 c -0.208 -1.75 -0.042 -1.958 1.75 -1.958 c 1.875 0 2.208 0.417 5.167 6.5 c 1.708 3.583 3.375 6.5 3.708 6.5 c 0.292 0 1.542 -2.333 2.708 -5.25 c 2.792 -6.75 3.75 -8.08 5.875 -8.08 c 1.667 0 1.708 0.125 1.333 3.167 c -0.583 4.833 -5.417 16.917 -7.458 18.667 c -1.917 1.667 -2 1.667 -4.125 0.833"/><path d="m 141.63 101.88 c -4.375 -2.208 -6.333 -5.292 -6.667 -10.25 c -0.417 -6.833 2.625 -11.25 9.04 -13 c 3.833 -1 8 0.75 10.417 4.417 c 2.375 3.667 2.75 5.667 1.25 7.5 c -1.042 1.292 -2.083 1.583 -8.08 2.042 c -3.75 0.292 -6.958 0.667 -7.167 0.833 c -0.167 0.208 0.833 1.292 2.167 2.5 c 2.458 2.167 2.458 2.167 7.75 1.708 l 5.25 -0.458 l -0.208 1.875 c -0.417 3.708 -8.667 5.417 -13.75 2.833 m 8.417 -15.583 c 0.75 -0.75 -2 -2.375 -4.04 -2.375 c -1.042 0 -2.542 0.333 -3.333 0.75 c -1.375 0.75 -1.375 2.083 -0.125 3.042 c 1.292 0.958 6.917 0.667 7.5 -1.417"/></g><g stroke-width="1.367"><g fill="#3b4762" stroke="#4b546f"><path d="m 179.92 101 c -0.708 -0.667 -0.875 -1.625 -1.417 -8.167 c -0.458 -5.75 -0.875 -7.417 -1.958 -8.25 c -1.792 -1.333 -5 -1.042 -6.958 0.583 c -1.75 1.458 -2.958 3.125 -2.125 8.375 c 0.958 7.167 2.583 9.958 -4.125 8.917 c -1.625 -5.875 -0.333 -15.917 -0.625 -21.333 l 2.458 -1.917 c 2.125 -1.625 10.08 -0.708 12.208 -0.167 c 1.083 0.25 4.583 3.833 5.5 5.583 c 0.917 1.792 1.833 8.958 1.667 13.958 c -0.208 5.083 -3.125 3.917 -4.625 2.417"/><path d="m 192.38 102.17 c -3.292 -0.792 -2.792 -1.5 -3.208 -9 c -0.167 -3 -1 -9.667 -1.708 -10.667 c -2.167 -3.292 -0.208 -4.25 0.958 -7.208 c 1.458 -3.667 3.583 -2.792 4.792 0.833 c 0.375 1.167 1 2.375 1.333 2.667 c 0.333 0.333 1.667 0.792 2.917 1.083 c 2.75 0.542 3.5 1.167 2.667 2 c -0.458 0.458 -1.292 0.625 -3.583 0.708 l -3 0.125 v 6.375 c 0 3.5 0.167 6.958 0.333 7.625 c 2.083 2.958 3 1.333 5.583 2.333 c 2.417 4.167 -0.542 4.125 -3.375 3.75"/></g><g fill="#3d4567" stroke="#93a3bb"><path d="m 101.96 149.46 c -1.25 -0.625 -1.667 -1.625 -2.042 -4.708 c -0.375 -3.458 -0.417 -18 0 -21.417 c 0.333 -2.958 0.667 -3.75 1.917 -4.5 c 0.875 -0.5 1.375 -0.542 6.583 -0.542 c 4.04 0 5.917 0.083 6.667 0.375 c 1.583 0.542 4.292 3.208 5.125 5.083 c 1.417 3.167 1.375 6.375 -0.125 9.167 c -1.125 2.125 -1 2.917 1.042 6.958 c 2.25 4.375 3 6.458 3 8.08 c 0 1.208 -0.083 1.417 -0.625 1.667 c -0.417 0.167 -1.167 0.208 -1.917 0.125 c -1.792 -0.292 -3.083 -1.583 -5.5 -5.583 c -2.625 -4.292 -3.458 -5.208 -5.208 -5.708 c -2 -0.542 -4.458 -0.75 -4.458 -0.333 c 0 0.167 -0.125 2.25 -0.292 4.625 c -0.292 4.542 -0.583 6.04 -1.167 6.542 c -0.667 0.542 -2.125 0.625 -3 0.167 m 9.458 -18.208 c 1.542 -0.542 3.042 -2 3.083 -2.958 c 0.125 -2.667 -0.958 -3.708 -4.125 -4.125 c -2.083 -0.25 -3 0.167 -3.542 1.542 c -0.542 1.333 -0.542 3.792 -0.042 4.833 c 0.458 0.875 1.875 1.625 2.708 1.375 c 0.292 -0.083 1.167 -0.375 1.917 -0.667"/><path d="m 131.13 149.63 c -1.333 -0.25 -2.208 -0.708 -2.542 -1.333 c -0.667 -1.25 -0.958 -5.583 -0.917 -14.292 c 0 -12.25 0.292 -14.25 2.417 -15.333 c 1.042 -0.542 14.04 -0.583 16.17 -0.042 c 2.417 0.625 3.5 2.625 2.042 3.792 c -1.167 0.917 -3.042 1.375 -7.667 1.75 c -2.542 0.25 -4.75 0.542 -5.04 0.75 c -0.667 0.417 -0.958 1.708 -0.708 3.042 c 0.25 1.292 1.083 1.667 4.75 2 c 4.708 0.458 7 0.833 7.667 1.25 c 0.667 0.417 1.042 1.875 0.75 2.792 c -0.333 1.083 -2.167 1.625 -7.04 2.042 c -2.5 0.208 -4.792 0.5 -5.125 0.667 c -0.875 0.375 -1.125 1.292 -1.125 4.25 v 2.667 l 3.708 0.167 c 5.667 0.292 8.292 0.792 9.583 1.792 c 0.958 0.75 1.25 1.625 0.917 2.625 c -0.5 1.375 -1.042 1.5 -9.25 1.542 c -4.125 0.042 -8 -0.042 -8.583 -0.125"/><path d="m 160.63 150.67 c -3.083 -0.417 -5.917 -1.458 -6.958 -2.583 c -0.875 -1.333 -0.792 -2.458 -0.25 -3.875 c 0.292 -0.208 1.833 -0.25 6.292 -0.125 c 4.375 0.167 6.125 0.125 6.667 -0.125 c 0.917 -0.375 1.958 -2.042 1.958 -3.083 c 0 -1.5 -3.292 -3.917 -5.375 -3.917 c -3.542 0 -8.292 -2.917 -9.833 -6.083 c -0.958 -1.917 -1.167 -4.583 -0.542 -6.5 c 0.917 -2.708 3.917 -5.125 7.583 -6.083 c 2.958 -0.792 8.583 -0.375 10.75 0.75 c 1.042 0.542 1.208 0.875 1.375 3.542 c 0.583 3 -0.958 2.083 -3.458 1.833 c -6.833 -0.625 -8.833 -0.333 -9.75 1.5 c -0.625 1.167 -0.542 1.75 0.417 2.708 c 0.833 0.833 2.292 1.333 6.25 2.25 c 3.417 0.792 7.125 2.875 7.833 5.542 c 0.5 2 2.375 7.292 -0.125 9.5 c -1.625 1.5 -2 2.083 -4.333 3.25 c -2.667 1.375 -5.583 1.875 -8.5 1.5"/><path d="m 91.79 149.5 c -1.125 -0.708 -2.167 -1.958 -3.125 -3.833 c -1.125 -2.292 -1.625 -2.458 -6.708 -2.5 c -3.25 -0.958 -5.167 2.292 -5.5 7.25 c -1.833 1.875 -5.04 1.25 -5 -1.583 c -0.208 -12.167 0.125 -20.375 6.667 -29.08 c 0.125 -0.667 0.708 -1.625 2.583 -1.458 c 3.083 0.25 4.792 0.292 6.333 3.333 c 2.917 5.875 8.375 24.417 8.375 26.875 c 0 1.333 -2.125 1.917 -3.625 1 m -7.875 -12.708 c 0.875 -0.458 0.542 -2.792 -0.792 -5.875 c -0.583 -1.375 -1.167 -1.958 -1.583 -1.667 c -0.75 0.5 -2.25 4.667 -2.25 6.292 c 0 0.375 0.167 0.833 0.417 1 c 0.875 0.75 3 0.833 4.208 0.25"/></g></g></g></svg>