<svg xmlns="http://www.w3.org/2000/svg" viewBox="0 0 24 24"><defs><linearGradient id="0" gradientUnits="userSpaceOnUse" x1="57.738" y1="20.07" x2="12.02" y2="25.307"><stop stop-color="#0062ad"/><stop offset="1" stop-color="#4d8cbb"/></linearGradient><linearGradient id="1" gradientUnits="userSpaceOnUse" x1="56.41" y1="47.859" x2="33.25" y2="27.926"><stop stop-color="#ffd642"/><stop offset="1" stop-color="#ffe772"/></linearGradient></defs><path d="m 20.949 20.402 c 13.727 -21.06 -23.766 -29.21 -20.777 -7.543 c 1.215 8.832 15.527 15.594 20.777 7.543" fill="#2c2631"/><g stroke-width="0.649"><path d="m 64.32 8.826 c 0 3.091 1.93 14.938 -8.179 14.938 h -15.2 c -7.648 0 -13.03 3.442 -13.03 10.864 v 7.68 h -6.393 c -3.136 0 -9.337 -2.06 -9.337 -16.483 c 0 -8.804 2.316 -16.998 12.135 -16.998" transform="matrix(0.16191 0 0 0.16684 4.062 5.43)" fill="url(#0)" stroke="#305687"/><path d="m 61.26 53.03 c 0 4.8 -6.948 4.776 -6.948 -0.117 c 0 -4.917 6.948 -4.683 6.948 0.117 m -12.69 25.825 l -17.636 -25.427 v -15.734 c 0 -5.9 1.737 -10.536 10.543 -10.536 h 14.11 c 9.53 0 12.497 -7.68 12.497 -12.479 l 0.024 -5.853 l 5.356 -0.117 c 6.9 0.117 9.94 4.495 9.94 16.834 c 0 12.924 -3.571 16.624 -9.94 16.624 h -26.18 v 3.84 h 17.491 l 0.241 7.773" transform="matrix(0.16191 0 0 0.16684 4.062 5.43)" fill="url(#1)" fill-rule="evenodd" stroke="#cfb346"/></g></svg>