<svg xmlns="http://www.w3.org/2000/svg" viewBox="0 0 24 24"><path d="m 14.723 23.586 c 22.301 -4.645 -1.641 -36.594 -12.973 -17.402 c -4.859 7.457 1.504 19.789 12.973 17.402" fill="#f4f4f4"/><path d="m 9.492 18.438 c -1.395 -0.484 -2.652 -1.445 -3.449 -2.625 c -0.676 -1 -0.766 -1.234 -1.086 -2.754 c -0.168 -0.805 -0.176 -1.117 -0.051 -1.828 c 0.258 -1.434 0.477 -2.031 1.027 -2.828 c 1.01 -1.465 2.406 -2.504 3.879 -2.879 c 1.5 -0.383 4.152 -0.211 5.05 0.328 c 2.191 1.316 2.867 2.105 3.812 4.457 c 0.266 0.664 0.238 2.773 -0.047 3.559 c -0.676 1.852 -1.891 3.352 -3.355 4.129 c -1.621 0.863 -4.04 1.047 -5.785 0.441 m 1.508 -1.863 c 0 -0.746 -0.031 -0.852 -0.262 -0.887 c -0.773 -0.113 -0.871 -0.168 -0.828 -0.457 c 0.031 -0.23 0.141 -0.297 0.531 -0.328 c 0.57 -0.047 0.664 -0.25 0.598 -1.273 l -0.039 -0.645 l -0.984 -0.035 l -0.984 -0.039 l -0.152 0.395 c -0.195 0.516 -0.547 0.52 -0.652 0.008 c -0.078 -0.391 -0.082 -0.395 -0.98 -0.395 c -1 0 -1 0.004 -0.723 0.934 c 0.223 0.734 0.996 1.859 1.688 2.457 c 0.574 0.488 2.09 1.172 2.527 1.137 c 0.23 -0.023 0.262 -0.117 0.262 -0.871 m 2.496 0.797 c 0.07 -0.063 0.359 -0.188 0.648 -0.277 c 0.91 -0.281 2.672 -1.914 2.684 -2.48 c 0.004 -0.109 0.09 -0.324 0.199 -0.477 c 0.105 -0.152 0.207 -0.473 0.227 -0.715 l 0.035 -0.438 h -2.094 l -0.066 0.457 c -0.117 0.801 -0.781 0.66 -0.785 -0.168 v -0.363 l -0.953 0.035 l -0.949 0.039 l -0.039 0.762 c -0.047 0.867 0.102 1.129 0.629 1.129 c 0.199 0 0.434 0.09 0.523 0.199 c 0.242 0.285 -0.043 0.563 -0.633 0.609 l -0.48 0.043 l -0.039 0.699 c -0.023 0.387 -0.012 0.785 0.027 0.883 c 0.078 0.199 0.867 0.246 1.066 0.063 m -5.609 -5.84 c 0.262 -0.066 0.297 -0.16 0.297 -0.785 c 0 -0.508 0.055 -0.727 0.195 -0.781 c 0.34 -0.129 0.59 0.211 0.59 0.793 c 0 0.301 0.07 0.613 0.156 0.699 c 0.086 0.086 0.496 0.156 0.914 0.156 c 0.941 0 1.027 -0.125 1.027 -1.543 c 0 -1.293 -0.063 -1.457 -0.531 -1.457 c -0.348 0 -0.781 -0.285 -0.781 -0.516 c 0 -0.199 0.332 -0.375 0.789 -0.418 c 0.387 -0.039 0.457 -0.094 0.457 -0.371 c 0 -0.484 -0.438 -0.48 -1.473 0.02 c -1.086 0.52 -1.645 0.98 -2.34 1.93 c -0.527 0.715 -0.953 1.938 -0.777 2.223 c 0.09 0.145 1 0.18 1.477 0.051 m 6.16 0 c 0.203 -0.055 0.297 -0.176 0.297 -0.398 c 0 -0.414 0.223 -0.824 0.449 -0.824 c 0.203 0 0.336 0.281 0.336 0.727 c 0 0.41 0.352 0.578 1.219 0.578 c 1.121 0 1.223 -0.344 0.516 -1.758 c -0.547 -1.098 -1.602 -2.109 -2.652 -2.543 c -0.18 -0.074 -0.43 -0.191 -0.555 -0.266 c -0.355 -0.203 -1.145 -0.16 -1.234 0.066 c -0.113 0.297 0.199 0.586 0.629 0.586 c 0.695 0 0.645 0.805 -0.055 0.891 c -0.563 0.066 -0.648 0.301 -0.602 1.59 c 0.035 0.875 0.098 1.215 0.242 1.309 c 0.223 0.141 0.969 0.164 1.41 0.043" fill="#ff4500"/></svg>