<svg xmlns="http://www.w3.org/2000/svg" viewBox="0 0 24 24"><path d="m 2.465 18.906 c -11.852 -17.816 25.945 -28.785 20.941 -5.758 c -2.133 9.516 -15.504 15.293 -20.941 5.758" fill="#ffcf81"/><path d="m 12.566 5.059 c -0.148 -0.004 -0.301 -0.004 -0.453 0.004 c -4.082 0.172 -7.262 3.527 -7.125 7.52 c 0.137 3.992 3.535 7.133 7.621 7.04 c 4.086 -0.09 7.336 -3.379 7.285 -7.371 l -0.012 -0.301 c -0.207 -3.816 -3.402 -6.824 -7.316 -6.891 m -0.406 0.977 c 0.094 -0.004 0.188 -0.004 0.281 0 v 5.188 c -0.016 0 -0.035 0 -0.051 0 c -0.012 0.004 -0.023 0.004 -0.035 0.004 l -2.703 -4.574 c 0.785 -0.367 1.637 -0.578 2.508 -0.617 m 0.777 0.016 c 0.961 0.074 1.895 0.355 2.73 0.828 l -2.656 4.496 c -0.023 -0.016 -0.051 -0.027 -0.074 -0.039 m -3.727 -4.457 l 2.66 4.496 c -0.027 0.012 -0.051 0.027 -0.074 0.043 l -4.68 -2.641 c 0.543 -0.777 1.262 -1.43 2.094 -1.898 m 6.879 0.258 c 0.797 0.531 1.461 1.234 1.945 2.047 l -4.605 2.598 c -0.016 -0.023 -0.027 -0.047 -0.043 -0.07 l 2.699 -4.574 m -9.234 2.051 l 4.602 2.594 c -0.016 0.023 -0.027 0.047 -0.043 0.074 h -5.41 c 0.078 -0.941 0.367 -1.852 0.852 -2.668 m 11.41 0.43 c 0.371 0.746 0.582 1.555 0.633 2.383 l 0.008 0.262 c 0 0.023 -0.004 0.051 -0.004 0.078 h -5.316 c 0.004 -0.004 0.004 -0.008 0.004 -0.016 l -0.004 -0.043 c 0 -0.008 0 -0.016 0 -0.023 m -7.594 0.082 h 5.313 c 0 0.012 -0.004 0.023 -0.004 0.035 c 0.004 0.016 0.004 0.031 0.004 0.047 l -4.68 2.641 c -0.387 -0.785 -0.605 -1.641 -0.637 -2.512 c 0 -0.07 0 -0.141 0.004 -0.211 m 7.48 0.484 h 5.41 c -0.074 0.941 -0.367 1.852 -0.848 2.668 l -4.602 -2.594 c 0.012 -0.023 0.027 -0.047 0.039 -0.074 m -2.02 0.074 c 0.016 0.023 0.031 0.047 0.047 0.07 l -2.707 4.574 c -0.793 -0.531 -1.457 -1.234 -1.941 -2.051 m 6.234 -2.23 l 4.684 2.641 c -0.547 0.777 -1.262 1.426 -2.098 1.898 l -2.656 -4.496 c 0.023 -0.012 0.047 -0.027 0.07 -0.043 m -1.215 0.043 c 0.027 0.016 0.051 0.027 0.074 0.039 v 5.289 c -0.961 -0.074 -1.895 -0.359 -2.727 -0.832 m 3.309 -4.348 l 2.703 4.574 c -0.824 0.387 -1.723 0.602 -2.641 0.621 c -0.047 0 -0.098 0 -0.148 -0.004 v -5.188 c 0.012 0 0.02 0 0.027 0 c 0.02 0 0.039 -0.004 0.059 -0.004" fill-opacity="0.098"/><g fill="#636363"><path d="m 10.949 11.371 v 0.484 h -5.965 v -0.484"/><path d="m 11.941 5.059 h 0.496 v 5.824 h -0.496"/><path d="m 15.422 5.969 l 0.43 0.242 l -2.98 5.05 l -0.434 -0.242"/><path d="m 11.445 12.828 h 0.496 v 5.824 h -0.496"/><path d="m 17.969 8.457 l 0.25 0.418 l -5.168 2.914 l -0.246 -0.418"/><path d="m 11.02 12.453 l 0.43 0.242 l -2.984 5.05 l -0.43 -0.242"/><path d="m 18.902 11.855 v 0.484 h -5.965 v -0.484"/><path d="m 10.832 11.922 l 0.25 0.418 l -5.168 2.914 l -0.246 -0.422"/><path d="m 17.969 15.254 l -0.25 0.422 l -5.164 -2.914 l 0.25 -0.422"/><path d="m 11.328 10.949 l -0.246 0.422 l -5.168 -2.914 l 0.25 -0.422"/><path d="m 15.422 17.742 l -0.43 0.242 l -2.984 -5.05 l 0.43 -0.242"/><path d="m 11.875 10.77 l -0.43 0.246 l -2.984 -5.05 l 0.434 -0.242"/></g><g fill="#333"><path d="m 11.617 4.578 c -4.086 0.172 -7.262 3.527 -7.125 7.52 c 0.133 3.988 3.535 7.129 7.621 7.04 c 4.086 -0.09 7.336 -3.379 7.285 -7.375 l -0.012 -0.297 c -0.219 -3.988 -3.684 -7.06 -7.77 -6.887 m 0.043 0.969 c 3.539 -0.148 6.543 2.512 6.734 5.969 l 0.008 0.258 c 0.047 3.461 -2.77 6.312 -6.313 6.391 c -3.543 0.078 -6.488 -2.641 -6.605 -6.098 c -0.117 -3.461 2.637 -6.367 6.176 -6.52"/><path d="m 13.09 11.84 c 0.008 0.613 -0.492 1.117 -1.117 1.133 c -0.629 0.012 -1.148 -0.469 -1.168 -1.082 c -0.023 -0.609 0.465 -1.125 1.09 -1.152 c 0.629 -0.027 1.16 0.445 1.191 1.059"/></g></svg>