<svg xmlns="http://www.w3.org/2000/svg" viewBox="0 0 24 24"><defs><linearGradient id="0" gradientUnits="userSpaceOnUse" x1="0.652" y1="34.517" x2="64.43" y2="31.28" gradientTransform="matrix(0.22708 0 0 0.23034 4.276 3.104)"><stop stop-color="#e60000"/><stop offset="1" stop-color="#ff019f"/></linearGradient></defs><path d="m 19.66 19.754 c -9.605 12.08 -26.945 -5.609 -15.867 -16.301 c 9.531 -10.719 28.04 6.01 15.867 16.301" fill="#218b21"/><path d="m 11.543 6.289 c -0.066 0 -0.129 0 -0.195 0.004 c -0.09 0.008 -0.18 0.02 -0.27 0.035 c -0.09 0.016 -0.176 0.035 -0.266 0.059 c -0.086 0.027 -0.172 0.055 -0.258 0.09 c -0.086 0.031 -0.168 0.07 -0.25 0.113 c -0.078 0.039 -0.16 0.086 -0.234 0.137 c -0.078 0.051 -0.152 0.102 -0.223 0.16 c -0.07 0.059 -0.137 0.117 -0.203 0.184 c -0.066 0.063 -0.129 0.129 -0.188 0.199 c -0.059 0.07 -0.113 0.145 -0.164 0.223 c -0.051 0.074 -0.098 0.152 -0.141 0.234 c -0.047 0.082 -0.086 0.164 -0.121 0.25 c -0.035 0.082 -0.066 0.172 -0.094 0.258 c -0.023 0.09 -0.047 0.18 -0.066 0.27 c -0.016 0.09 -0.031 0.18 -0.039 0.273 c -0.012 0.09 -0.016 0.184 -0.016 0.273 c 0 0.066 0.004 0.133 0.008 0.195 c 0.008 0.094 0.016 0.184 0.031 0.273 c 0.016 0.094 0.035 0.184 0.063 0.273 c 0.023 0.086 0.051 0.176 0.086 0.262 c 0.031 0.086 0.07 0.168 0.109 0.25 c 0.043 0.082 0.086 0.164 0.137 0.242 c 0.047 0.074 0.102 0.152 0.156 0.223 c 0.059 0.07 0.117 0.141 0.18 0.207 c 0.066 0.066 0.133 0.129 0.199 0.188 c 0.07 0.063 0.145 0.117 0.219 0.168 c 0.074 0.055 0.152 0.102 0.23 0.145 c 0.082 0.043 0.164 0.086 0.246 0.121 c 0.086 0.035 0.168 0.066 0.258 0.094 c 0.086 0.027 0.172 0.051 0.262 0.07 c 0.09 0.016 0.18 0.031 0.27 0.039 c 0.09 0.012 0.184 0.016 0.273 0.016 c 0.063 0 0.129 -0.004 0.191 -0.008 c 0.09 -0.008 0.18 -0.02 0.27 -0.035 c 0.09 -0.016 0.18 -0.035 0.27 -0.059 c 0.086 -0.023 0.172 -0.055 0.258 -0.086 c 0.082 -0.035 0.168 -0.07 0.246 -0.113 c 0.082 -0.043 0.16 -0.09 0.238 -0.137 c 0.074 -0.051 0.148 -0.105 0.219 -0.16 c 0.074 -0.059 0.141 -0.121 0.207 -0.184 c 0.063 -0.066 0.125 -0.133 0.184 -0.203 c 0.059 -0.07 0.113 -0.145 0.168 -0.219 c 0.051 -0.078 0.098 -0.156 0.141 -0.238 c 0.043 -0.078 0.082 -0.164 0.117 -0.246 c 0.035 -0.086 0.066 -0.172 0.094 -0.262 c 0.027 -0.086 0.051 -0.176 0.07 -0.266 c 0.016 -0.09 0.031 -0.184 0.039 -0.273 c 0.008 -0.094 0.012 -0.184 0.012 -0.277 c 0 -0.066 0 -0.129 -0.004 -0.195 c -0.008 -0.09 -0.02 -0.184 -0.035 -0.273 c -0.016 -0.09 -0.035 -0.18 -0.059 -0.27 c -0.023 -0.09 -0.055 -0.176 -0.086 -0.262 c -0.031 -0.086 -0.07 -0.172 -0.109 -0.254 c -0.043 -0.082 -0.09 -0.16 -0.137 -0.238 c -0.051 -0.078 -0.102 -0.152 -0.16 -0.227 c -0.055 -0.07 -0.113 -0.141 -0.18 -0.207 c -0.063 -0.066 -0.129 -0.129 -0.199 -0.188 c -0.066 -0.059 -0.141 -0.113 -0.215 -0.168 c -0.074 -0.051 -0.152 -0.098 -0.234 -0.145 c -0.078 -0.043 -0.16 -0.082 -0.246 -0.121 c -0.082 -0.035 -0.168 -0.066 -0.254 -0.094 c -0.086 -0.027 -0.176 -0.051 -0.266 -0.066 c -0.086 -0.02 -0.176 -0.035 -0.27 -0.043 c -0.09 -0.008 -0.18 -0.012 -0.27 -0.012" fill="#a30000"/><path d="m 11.543 4.02 c -2.77 0 -4.996 2.258 -4.996 5.07 c 0 3.684 4.996 7.832 4.996 7.832 c 0 0 4.996 -4.148 4.996 -7.832 c 0 -2.813 -2.227 -5.07 -4.996 -5.07 m 0 2.996 c 0.066 0 0.137 0.004 0.203 0.012 c 0.066 0.004 0.137 0.016 0.203 0.031 c 0.066 0.012 0.133 0.027 0.195 0.051 c 0.066 0.02 0.129 0.043 0.195 0.07 c 0.063 0.027 0.121 0.055 0.184 0.09 c 0.059 0.031 0.117 0.07 0.172 0.109 c 0.059 0.039 0.113 0.078 0.164 0.125 c 0.051 0.043 0.102 0.09 0.148 0.141 c 0.047 0.051 0.094 0.102 0.137 0.156 c 0.043 0.055 0.082 0.109 0.117 0.168 c 0.039 0.059 0.07 0.117 0.102 0.18 c 0.031 0.063 0.059 0.125 0.086 0.188 c 0.023 0.066 0.043 0.133 0.063 0.199 c 0.02 0.066 0.031 0.133 0.043 0.203 c 0.012 0.066 0.02 0.137 0.027 0.203 c 0.004 0.051 0.004 0.098 0.004 0.148 c 0 0.066 -0.004 0.137 -0.012 0.207 c -0.004 0.066 -0.016 0.137 -0.027 0.203 c -0.016 0.066 -0.031 0.137 -0.051 0.203 c -0.023 0.063 -0.043 0.129 -0.07 0.191 c -0.027 0.066 -0.059 0.129 -0.09 0.188 c -0.031 0.063 -0.066 0.121 -0.105 0.176 c -0.039 0.059 -0.082 0.113 -0.125 0.168 c -0.043 0.051 -0.09 0.102 -0.141 0.148 c -0.047 0.051 -0.098 0.094 -0.152 0.137 c -0.055 0.043 -0.109 0.086 -0.164 0.121 c -0.059 0.039 -0.117 0.074 -0.18 0.105 c -0.059 0.031 -0.121 0.059 -0.188 0.082 c -0.063 0.027 -0.125 0.047 -0.191 0.066 c -0.066 0.02 -0.133 0.035 -0.199 0.047 c -0.066 0.012 -0.137 0.02 -0.203 0.023 c -0.047 0.004 -0.098 0.004 -0.145 0.004 c -0.07 0 -0.137 0 -0.203 -0.008 c -0.07 -0.008 -0.137 -0.02 -0.203 -0.031 c -0.066 -0.016 -0.133 -0.031 -0.199 -0.051 c -0.063 -0.023 -0.129 -0.047 -0.191 -0.074 c -0.063 -0.023 -0.125 -0.055 -0.184 -0.09 c -0.059 -0.031 -0.117 -0.066 -0.176 -0.105 c -0.055 -0.039 -0.109 -0.082 -0.16 -0.125 c -0.055 -0.047 -0.102 -0.094 -0.152 -0.145 c -0.047 -0.047 -0.09 -0.102 -0.133 -0.152 c -0.043 -0.055 -0.082 -0.113 -0.117 -0.172 c -0.039 -0.055 -0.074 -0.117 -0.102 -0.18 c -0.031 -0.059 -0.059 -0.125 -0.086 -0.188 c -0.023 -0.063 -0.047 -0.129 -0.063 -0.195 c -0.02 -0.066 -0.035 -0.137 -0.047 -0.203 c -0.012 -0.07 -0.02 -0.137 -0.023 -0.207 c -0.004 -0.047 -0.004 -0.098 -0.004 -0.145 c 0 -0.07 0.004 -0.141 0.008 -0.207 c 0.008 -0.07 0.02 -0.137 0.031 -0.207 c 0.016 -0.066 0.031 -0.133 0.051 -0.199 c 0.02 -0.066 0.043 -0.133 0.07 -0.195 c 0.027 -0.063 0.055 -0.125 0.09 -0.188 c 0.031 -0.059 0.066 -0.117 0.105 -0.176 c 0.039 -0.059 0.078 -0.113 0.125 -0.164 c 0.043 -0.055 0.09 -0.105 0.137 -0.152 c 0.051 -0.047 0.102 -0.094 0.156 -0.137 c 0.051 -0.043 0.105 -0.082 0.164 -0.121 c 0.059 -0.035 0.117 -0.07 0.18 -0.102 c 0.059 -0.031 0.121 -0.063 0.184 -0.086 c 0.063 -0.023 0.129 -0.047 0.195 -0.066 c 0.066 -0.016 0.133 -0.031 0.199 -0.043 c 0.066 -0.012 0.133 -0.02 0.203 -0.027 c 0.047 -0.004 0.094 -0.004 0.145 -0.004" fill="url(#0)"/><path d="m 88.54 980.78 h 74.58 c 6.958 0 12.583 4.375 12.583 9.75 c 0 5.375 -5.625 9.75 -12.583 9.75 h -74.58 c -6.958 0 -12.625 -4.375 -12.625 -9.75 c 0 -5.375 5.667 -9.75 12.625 -9.75" transform="matrix(0.09375 0 0 0.09375 0 -74.66)" fill="#86cefa" stroke="#86cefa" stroke-width="1.183"/></svg>