<svg xmlns="http://www.w3.org/2000/svg" viewBox="0 0 24 24"><path d="m 15.301 23.22 c -12.508 4.48 -18.59 -11.621 -13.5 -17.672 c 5.094 -6.05 13.82 -8.117 18.211 -1.266 c 4.391 6.852 7.793 14.457 -4.715 18.938" fill="#8ebb8e"/><g transform="matrix(0.02031 0 0 0.02138 4.356 4.698)"><g fill-rule="evenodd"><path d="m 181.87 57.08 l 557.49 147.47 l -96.92 450.44 l -715.18 -232.25" fill="#195319" stroke="#00af00" stroke-linejoin="round" stroke-linecap="round" stroke-width="6.107"/><g stroke="#000" stroke-width="0.353"><path d="m 143.41 371.2 l -0.962 -11.147 l 14.04 -23.21 l 86.92 26.314 l 3.077 8.954 l -14.23 26.314" fill="#acacac"/><path d="m 252.45 527.8 l -0.962 -21.2 l 15.192 -30.334 l 35.576 10.416 l 0.385 18.456 l -16.73 35.816" fill="#c6c6c6"/><path d="m 178.6 501.12 l 21.346 -38.01 l 16.15 5.117 v 17.18 l -15 30.15 l -7.115 7.127 l -11.154 -4.02 l -4.04 -6.03" fill="#c9c9c9"/><path d="m 124.18 473.16 l 18.269 -32.34 l 40.19 12.426 l -1.538 28.507 l -13.461 25.765 l -41.35 -15.167" fill="#d8d8d8"/><path d="m 127.06 474.63 l 36.15 12.06 l 0.385 14.801 l -35.38 -13.157"/><path d="m 411.1 490.34 l 2.115 -24.12 l 90.77 -225.31 l 19.23 4.02 l -0.962 22.294 l -87.88 230.24" fill="#c1c1c1"/><path d="m 461.67 507.52 l 4.04 -24.12 l 83.84 -231.34 l 19.23 6.944 l -4.04 23.39 l -78.84 232.25" fill="#bebebe"/><g fill="#ccc"><path d="m 514.17 521.77 l 5 -21.2 l 75.77 -234.45 l 18.269 4.02 l -3.077 16.263 l -74.81 243.4"/><path d="m 564.75 536.94 l 5.961 -20.283 l 67.69 -237.37 l 21.15 5.117 l -71.73 261.49"/></g><path d="m 253.98 507.34 l 31.538 11.512 l -0.962 18.456 l -29.999 -12.609"/></g></g><g stroke="#000"><g fill="none" stroke-linejoin="round" stroke-linecap="round" stroke-width="3.286"><path d="m 426.29 467.13 l 82.88 -217.09"/><path d="m 478.79 484.31 l 75.77 -219.1"/><path d="m 530.32 504.59 l 70.77 -226.41"/><path d="m 582.82 515.56 l 63.65 -225.13"/></g><g fill-rule="evenodd" stroke-width="0.353"><path d="m 182.83 503.5 l -0.962 8.04 l 5.769 7.127 l 7.308 -4.02 l -1.154 -7.675"/><path d="m 668.78 359.14 l 28.27 -120.24 l 23.269 6.03 l -28.461 120.24" fill="#e4e4e4"/></g></g><g fill-rule="evenodd"><path d="m 635.32 477.18 l 21.346 5.117 l 29.23 -120.24 l -22.307 -4.934" stroke="#404040" stroke-linejoin="round" stroke-width="3.286"/><g stroke="#000" stroke-width="0.353"><path d="m 423.21 128.71 v -17.18 l 3.077 -10.05 l 114.23 29.24 l -1.154 16.263 l -10 14.07" fill="#1e1e1e"/><path d="m 558.59 179.33 v -11.147 l 10.192 -29.24 l 6.923 2.924 l -0.962 7.127 l 100 24.12 l 0.962 -2.924 l 7.115 2.01 l -8.08 37.28" fill="#e4e4e4"/><path d="m 277.06 455.62 l 74.42 20.1 l 105.57 -244.32 l -69.999 -17.18" fill="#3f3f3f"/></g></g><g stroke="#000"><g stroke-linejoin="round"><g fill="none" stroke-linecap="round" stroke-width="3.06"><path d="m 298.6 444.29 l 95.77 -212.89"/><path d="m 314.37 449.96 l 97.11 -214.16"/><path d="m 337.06 455.62 l 94.42 -217.09"/></g><path d="m 237.25 175.31 l 91.54 24.304 l -42.884 91.55 l -94.42 -29.968" fill="#121212" fill-rule="evenodd" stroke-width="7.348"/></g><g fill-rule="evenodd"><path d="m -31.396 432.78 l -2.885 -21.38 l 18.653 -24.304 l 18.461 5.847 l 5.769 21.38 l -15.769 27.04" fill="#dedede" stroke-width="0.353"/><path d="m -15.627 425.65 c 0 3.289 -1.923 5.847 -4.423 5.847 c -2.308 0 -4.231 -2.558 -4.231 -5.847 c 0 -3.106 1.923 -5.665 4.231 -5.665 c 2.5 0 4.423 2.558 4.423 5.665" fill-opacity="0.749" stroke-width="1.41"/></g></g></g></svg>