<svg xmlns="http://www.w3.org/2000/svg" viewBox="0 0 24 24"><path d="m 19.5 20.773 c -14.203 11.934 -28.945 -14.559 -11.363 -19.703 c 11.07 -4.824 21.891 10.863 11.363 19.703" fill="#0b4751"/><path d="m 8.645 18.234 c -2.316 -0.078 -2.98 -0.195 -3.57 -0.621 c -0.809 -0.578 -1 -1.602 -1 -5.348 c 0 -3.645 0.172 -4.648 0.914 -5.293 c 0.531 -0.465 1.09 -0.582 3.035 -0.645 c 0.617 -0.02 1.344 -0.051 1.617 -0.066 l 0.5 -0.035 l 0.141 -0.449 c 0.129 -0.418 0.789 -0.848 1.242 -0.977 c 0.988 -0.273 1.793 0.09 2.266 0.875 c 0.109 0.18 0.184 0.48 0.195 0.512 c 0.012 0.035 0.68 0.086 1.543 0.117 c 2.52 0.09 3 0.18 3.563 0.668 c 0.73 0.637 0.914 1.703 0.914 5.293 c 0 3.648 -0.195 4.727 -0.973 5.332 c -0.52 0.406 -0.836 0.488 -2.262 0.578 c -1.402 0.086 -6.297 0.121 -8.125 0.059 m 4.824 -12.03 c 0 -0.121 -0.266 -0.602 -0.504 -0.754 c -0.543 -0.27 -1.176 -0.16 -1.652 0.066 c -0.328 0.16 -0.566 0.473 -0.566 0.66 c 0 0.063 0.113 0.055 1.324 0.055 c 0.836 0 1.398 0.004 1.398 -0.027" fill="#a5c0c7"/><path d="m 8.02 17.938 c -1.133 -0.055 -1.473 -0.098 -1.949 -0.246 c -0.875 -0.273 -1.328 -1.094 -1.477 -2.676 c -0.063 -0.66 -0.063 -4.77 0 -5.426 c 0.141 -1.5 0.535 -2.285 1.336 -2.648 c 0.391 -0.18 0.992 -0.242 2.957 -0.309 l 1.223 -0.043 l 0.016 0.352 c 0.02 0.344 0.023 0.352 0.191 0.352 c 0.184 0 0.176 0.012 0.293 -0.52 l 0.039 -0.164 h 1.41 c 1.336 0 1.414 0.004 1.473 0.113 c 0.035 0.063 0.063 0.191 0.063 0.285 c 0 0.207 0.094 0.316 0.273 0.316 c 0.156 0 0.219 -0.164 0.188 -0.484 l -0.02 -0.203 l 1.148 0.016 c 1.586 0.02 2.613 0.109 2.941 0.258 c 1.195 0.535 1.449 1.48 1.449 5.391 c 0 3.613 -0.207 4.586 -1.109 5.203 c -0.352 0.238 -0.598 0.305 -1.359 0.379 c -0.766 0.074 -7.844 0.117 -9.09 0.055 m 0.895 -3.285 c 0.168 -0.063 0.219 -0.152 0.148 -0.273 c -0.039 -0.07 0.008 -0.23 0.176 -0.582 c 0.238 -0.504 0.52 -1.504 0.535 -1.914 c 0.008 -0.184 -0.039 -0.316 -0.207 -0.578 c -0.195 -0.434 -0.41 -0.344 -0.852 -0.344 c -0.578 0 -1.305 0.074 -1.563 0.152 c -0.137 0.043 -0.402 0.625 -0.648 1.426 c -0.289 0.93 -0.309 1.086 -0.172 1.406 c 0.18 0.426 0.219 0.441 1.09 0.441 h 0.77 l 0.113 0.199 c 0.102 0.176 0.133 0.191 0.301 0.156 c 0.102 -0.023 0.238 -0.063 0.309 -0.09 m -1.418 -1.086 c -0.102 -0.074 -0.094 -0.117 0.082 -0.867 c 0.219 -0.91 0.277 -0.984 0.75 -0.953 l 0.285 0.02 l -0.004 0.27 c -0.004 0.344 -0.141 0.98 -0.234 1.113 c -0.074 0.102 -0.082 0.102 -0.191 0 c -0.094 -0.086 -0.148 -0.094 -0.277 -0.043 c -0.145 0.055 -0.16 0.082 -0.125 0.262 c 0.027 0.156 0.016 0.211 -0.059 0.238 c -0.117 0.047 -0.102 0.051 -0.227 -0.039 m 3.871 0.684 c 0.031 -0.031 0.121 -0.375 0.203 -0.766 c 0.184 -0.887 0.234 -1 0.461 -1.02 c 0.488 -0.043 0.551 -0.07 0.598 -0.27 c 0.074 -0.305 0.07 -0.309 -0.305 -0.34 c -0.395 -0.035 -0.383 -0.012 -0.297 -0.551 l 0.047 -0.285 l -0.316 0.008 c -0.582 0.012 -0.66 0.051 -0.75 0.352 c -0.152 0.527 -0.156 0.535 -0.449 0.535 c -0.297 0 -0.438 0.141 -0.461 0.457 c -0.012 0.168 -0.008 0.168 0.266 0.148 c 0.215 -0.016 0.289 0.004 0.316 0.074 c 0.02 0.055 -0.02 0.398 -0.086 0.766 c -0.07 0.371 -0.125 0.75 -0.125 0.844 v 0.172 l 0.422 -0.035 c 0.23 -0.02 0.445 -0.059 0.477 -0.09" fill="#397886"/><path d="m 73.04 492.88 c -8.414 -0.425 -18.536 -1.215 -22.56 -1.823 c -8.78 -1.215 -17.865 -5.348 -21.04 -9.541 c -5.975 -7.778 -9.268 -19.932 -10.304 -37.615 c -3.78 -25.948 -1.951 -56.635 0.61 -79.97 c 3.11 -26.92 11.463 -37.37 31.584 -39.499 l 6.28 -0.668 l 31.22 31.05 l 31.28 31.11 l -2.256 1.641 c -1.585 1.155 -2.622 3.221 -3.415 6.684 c -1.037 4.74 -1.28 4.983 -3.963 4.983 c -4.939 0.061 -7.134 1.094 -8.414 4.071 l -2.561 12.336 l -0.793 -0.304 c -0.061 -3.403 1.28 -19.689 -0.732 -23.21 c -4.451 -7.657 -5.183 -7.9 -20.975 -7.292 c -17.987 0.729 -22.07 1.823 -24.755 6.624 c -3.841 6.745 -10.06 24.975 -11.829 34.577 c -0.732 4.071 3.293 13.977 6.402 15.678 c 1.158 0.608 6.524 1.033 13.475 1.094 h 11.524 l 1.829 2.795 c 3.597 4.132 8.658 2.735 13.475 0.365 c 3.475 -1.762 3.658 -2.066 3.171 -5.04 c -0.366 -2.309 -1.646 -3.585 0.366 -7.778 c 1.463 -3.16 5.488 -10.33 6.768 -14.645 c 1.28 -4.254 2.317 -7.05 2.317 -6.198 c 0.061 2.01 2.866 2.795 6.951 2.066 c 1.768 -0.365 3.232 -0.365 3.232 0 c 0 0.304 -0.854 5.348 -1.89 11.12 c -0.976 5.53 -1.829 10.938 -1.341 16.468 c 5.731 -0.547 10.975 -0.365 16.402 -2.248 c 1.463 -0.79 1.768 -1.945 3.293 -9.662 c 3.902 -18.899 6.219 -16.711 12.317 -17.683 l 6.707 -1.094 l 8.475 8.447 c 4.695 4.618 8.536 8.933 8.536 9.601 c 0 0.608 -2.5 5.773 -5.549 11.485 c -3.11 5.651 -5.671 11.12 -5.792 12.03 c -0.427 3.889 2.622 2.127 11.402 -6.381 l 9.146 -8.994 l 25.975 25.826 c 18.11 18.05 25.731 26.13 25.06 26.798 c -0.549 0.547 -5.914 1.398 -11.951 1.945 c -13.902 1.215 -117.31 1.823 -137.68 0.851 m -12.439 -66.24 c -2.317 -3.889 5.731 -20.6 7.683 -24.12 c 3.11 -0.79 6.463 -0.486 9.695 -0.486 l 0.183 4.74 c 0.366 8.933 -0.854 14.159 -3.658 14.159 c -1.402 0 -5.244 -1.884 -6.402 -1.519 c -4.085 2.491 -0.671 11.546 -7.5 7.231" transform="matrix(0.06406 0 0 0.06428 3.563 -13.875)" fill="#004d61" stroke="#004d61" stroke-width="5.777"/><path d="m 18.59 11.258 c -0.289 -0.035 -0.504 -0.117 -1.73 -0.676 l -1.023 -0.469 l 0.34 -0.113 c 0.188 -0.059 0.637 -0.18 0.996 -0.266 l 0.66 -0.156 l 0.492 0.773 c 0.273 0.426 0.492 0.809 0.492 0.852 c -0.004 0.063 -0.043 0.074 -0.227 0.055" fill="#f96340"/><g fill="#81be9f"><path d="m 12.582 15.902 c 0 -0.07 1.488 -2.836 1.793 -3.324 l 0.207 -0.34 l 0.289 0.234 c 0.16 0.129 0.375 0.336 0.477 0.461 l 0.188 0.23 l -0.652 0.648 c -2.176 2.184 -2.301 2.297 -2.301 2.09"/><path d="m 14.16 11.59 c -2.047 -1.84 -2.836 -2.594 -2.746 -2.621 c 0.082 -0.023 1.016 0.266 3.219 0.988 l 0.711 0.234 v 1.211 c 0 0.664 -0.008 1.207 -0.02 1.207 c -0.012 0 -0.535 -0.457 -1.164 -1.02"/><path d="m 15.605 10.234 l 0.82 0.406 l 0.816 0.41 l -0.277 0.348 c -0.398 0.5 -1.262 1.438 -1.324 1.438 c -0.004 -1.105 -0.137 -1.922 -0.035 -2.602"/></g></svg>