<svg xmlns="http://www.w3.org/2000/svg" viewBox="0 0 24 24"><g fill-opacity="0.969"><path d="m 3.559 5.77 c -15.715 23.68 30.777 24.797 17.77 0.387 c -3.453 -6.277 -13.215 -9.344 -17.77 -0.387" fill="#b0c3de"/><path d="m 7.961 15.07 c -0.113 -0.488 0.512 -5.715 0.625 -6.207 c 0.805 -1.781 1.77 -1.363 3.508 -1.363 c 4.03 0.535 4.484 1.59 4.531 4.04 l -0.227 3.578 c -1.863 0.926 -6.176 1.871 -8.438 -0.051" fill="#fff"/></g><path d="m 7.102 17.852 c -0.277 -0.105 -0.648 -0.715 -0.801 -1.055 c -0.199 -0.449 -0.121 -0.484 0.223 -0.094 c 0.164 0.184 0.32 0.297 0.52 0.379 c 0.281 0.109 0.32 0.113 4.93 0.109 c 5.18 -0.004 4.922 0.012 5.34 -0.379 c 0.191 -0.18 0.441 -0.598 0.52 -0.871 c 0.051 -0.188 0.129 -0.086 0.129 0.172 c 0 0.566 -0.199 1.551 -0.676 1.707 l -0.555 0.184 l -4.605 -0.055 c -4.258 -0.055 -4.824 -0.023 -5.02 -0.098 m 0.168 -1.039 c -0.711 -0.18 -1.129 -1.121 -0.926 -2.074 c 0.258 -1.145 0.543 -2.324 0.781 -3.355 c 0.227 -1 0.5 -2.121 0.707 -3.02 c 0.27 -1.156 0.387 -1.461 0.664 -1.703 c 0.379 -0.328 0.355 -0.328 3.535 -0.328 c 2.586 0 2.918 0.012 3.113 0.09 c 0.277 0.113 0.563 0.352 0.688 0.566 c 0.098 0.172 0.379 1.328 0.863 3.539 c 0.395 1.328 0.555 3.074 0.938 4.25 c 0.105 0.324 0.094 0.543 -0.059 1.027 c -0.102 0.328 -0.18 0.473 -0.355 0.66 c -0.395 0.418 -0.148 0.398 -5.266 0.395 c -2.488 -0.004 -4.598 -0.023 -4.684 -0.047 m 6.141 -1.293 c 0.93 -0.23 1.742 -0.457 1.805 -0.5 c 0.137 -0.094 0.148 -0.156 0.633 -2.941 c 0.055 -0.32 0.145 -0.813 0.199 -1.086 c 0.051 -0.273 0.082 -0.555 0.066 -0.629 c -0.035 -0.137 -0.297 -0.352 -1.613 -1.301 c -0.418 -0.301 -0.938 -0.676 -1.156 -0.836 c -0.219 -0.16 -0.453 -0.309 -0.52 -0.324 c -0.105 -0.027 -0.988 0.168 -1.961 0.437 c -0.586 0.168 -1.129 0.238 -1.719 0.441 c -0.238 0.086 -0.258 0.105 -0.34 0.371 c -0.051 0.156 -0.121 0.492 -0.164 0.75 c -0.074 0.48 -0.254 1.492 -0.438 2.473 c -0.16 0.875 -0.176 1.156 -0.063 1.289 c 0.129 0.152 3.051 2.27 3.176 2.305 c 0.141 0.039 0.184 0.031 2.094 -0.449 m -1.492 -0.504 c -0.02 -0.043 0.02 -0.352 0.078 -0.68 c 0.063 -0.328 0.156 -0.852 0.211 -1.16 c 0.203 -1.168 0.262 -1.441 0.32 -1.496 c 0.035 -0.027 0.547 -0.176 1.145 -0.328 c 1.641 -0.414 1.512 -0.391 1.594 -0.305 c 0.063 0.066 0.059 0.145 -0.027 0.582 c -0.09 0.457 -0.254 1.367 -0.41 2.305 c -0.035 0.215 -0.098 0.395 -0.152 0.449 c -0.082 0.074 -2.457 0.719 -2.664 0.719 c -0.035 0 -0.078 -0.039 -0.094 -0.086 m -1.66 -0.652 c -0.402 -0.402 -1.035 -0.609 -1.391 -1.066 c -0.098 -0.129 -0.094 -0.16 0.098 -1.219 c 0.121 -0.676 0.293 -1.652 0.332 -1.906 c 0.035 -0.25 0.133 -0.34 0.273 -0.258 c 0.203 0.113 1.949 1.402 2.074 1.527 c 0.238 0.645 -0.137 1.664 -0.273 2.457 c -0.074 0.41 -0.145 0.801 -0.156 0.867 c -0.043 0.215 -0.227 0.137 -0.957 -0.402 m 1.453 -3.789 c -1.699 -1.219 -1.633 -1.164 -1.527 -1.266 c 0.039 -0.043 0.438 -0.164 0.883 -0.273 c 0.441 -0.109 0.926 -0.234 1.066 -0.273 c 0.496 -0.145 0.563 -0.125 1.297 0.41 c 0.367 0.266 0.82 0.594 1.01 0.73 c 0.195 0.137 0.34 0.281 0.34 0.332 c 0 0.094 -0.078 0.117 -1.465 0.461 c -0.289 0.07 -0.613 0.152 -0.711 0.184 c -0.309 0.086 -0.375 0.063 -0.891 -0.305" fill="#1f86de"/></svg>