<svg xmlns="http://www.w3.org/2000/svg" viewBox="0 0 24 24"><path d="m 1.133 7.539 c -9.02 29.18 39.42 14.586 16.77 -5.406 c -4.539 -4 -14.34 -2.461 -16.77 5.406" fill="#f37220"/><g fill="#fff"><path d="m 8.859 17.43 c -1.5 -6.625 -0.992 -9.348 2.176 -12.918 c 3.715 3.562 3.973 5.789 3.184 12.801"/><path d="m 6.344 18.52 c 0.063 -1.281 7.04 -1.273 11.559 -1.723 c -3.547 0.965 -7.91 1.652 -9.379 3.328 c -0.125 -0.711 -1.02 -1.199 -2.176 -1.605"/><path d="m 9.863 19.898 c 2.074 -1.313 3.98 -1.57 5.918 -2.01 c -2.895 1.305 -3.59 2.125 -4.469 2.984 c -0.055 -1.094 -0.832 -0.895 -1.449 -0.977"/></g></svg>