<svg xmlns="http://www.w3.org/2000/svg" viewBox="0 0 24 24"><path d="m 23.695 9.254 c -4.688 -22.492 -36.926 1.652 -17.559 13.09 c 7.523 4.902 19.969 -1.52 17.559 -13.09" fill="#b78989"/><path d="m 13.68 18.332 c -0.168 -0.227 -0.273 -0.266 -0.703 -0.266 c -0.77 0 -0.777 -0.012 -1.027 -2.01 c -0.035 -0.297 0 -0.437 0.164 -0.684 c 0.117 -0.172 0.289 -0.535 0.387 -0.805 c 0.098 -0.27 0.273 -0.574 0.398 -0.672 c 0.234 -0.191 0.293 -0.582 0.113 -0.766 c -0.059 -0.063 -0.223 -0.145 -0.363 -0.188 c -0.141 -0.039 -0.453 -0.23 -0.688 -0.422 c -0.844 -0.68 -2.203 -1.066 -4.102 -1.172 c -1.637 -0.09 -3.199 0.188 -5.422 0.965 c -1.219 0.426 -1.215 0.426 -0.973 0.211 c 0.332 -0.281 1.668 -0.859 2.891 -1.242 c 2.027 -0.641 4.125 -0.98 6.668 -1.094 c 1.184 -0.051 1.66 -0.121 2.566 -0.379 c 1.469 -0.418 2.145 -0.477 2.785 -0.234 c 0.652 0.242 0.719 0.168 0.793 -0.867 c 0.07 -1.07 0.25 -1.5 0.738 -1.801 c 0.488 -0.301 1.152 -0.328 2.223 -0.102 c 0.445 0.098 0.84 0.176 0.875 0.176 c 0.035 0.004 0.141 0.098 0.234 0.211 c 0.141 0.176 0.152 0.258 0.074 0.531 c -0.113 0.402 -0.242 0.488 -0.887 0.582 c -0.613 0.094 -1.332 0.406 -1.523 0.668 c -0.078 0.102 -0.293 0.578 -0.48 1.055 c -0.27 0.676 -0.426 0.938 -0.723 1.195 c -0.406 0.352 -0.52 0.602 -0.602 1.336 c -0.047 0.43 -0.027 0.488 0.336 0.988 c 0.211 0.293 0.387 0.605 0.387 0.691 c 0 0.09 -0.102 0.441 -0.227 0.785 c -0.277 0.762 -0.586 1.023 -0.98 0.82 c -0.137 -0.066 -0.246 -0.195 -0.246 -0.285 c 0 -0.215 0.25 -0.441 0.492 -0.445 c 0.219 -0.004 0.551 -0.57 0.473 -0.809 c -0.066 -0.211 -0.195 -0.176 -0.418 0.121 c -0.23 0.305 -0.719 0.359 -0.891 0.102 c -0.145 -0.215 -0.031 -0.344 0.344 -0.387 c 0.242 -0.027 0.305 -0.082 0.328 -0.285 c 0.031 -0.289 -0.105 -0.43 -0.426 -0.43 c -0.121 -0.004 -0.273 -0.074 -0.332 -0.16 c -0.129 -0.195 -0.375 -0.207 -0.488 -0.027 c -0.047 0.07 -0.137 0.32 -0.195 0.551 c -0.07 0.266 -0.34 0.719 -0.738 1.234 c -0.629 0.813 -0.629 0.813 -0.629 1.402 c 0 0.648 0.109 0.797 0.43 0.586 c 0.191 -0.129 0.598 -0.063 0.598 0.094 c 0 0.051 -0.078 0.117 -0.172 0.148 c -0.262 0.082 -0.203 0.41 0.145 0.77 c 0.422 0.438 0.328 0.57 -0.41 0.57 c -0.527 0 -0.621 -0.031 -0.797 -0.262 m -0.648 -1.699 c -0.078 -0.254 -0.063 -0.387 0.098 -0.809 c 0.234 -0.621 0.145 -0.773 -0.188 -0.316 c -0.195 0.27 -0.25 0.445 -0.25 0.813 c 0 0.289 0.051 0.531 0.141 0.637 c 0.195 0.246 0.313 0.055 0.199 -0.324" fill="#9b0000"/></svg>