<svg xmlns="http://www.w3.org/2000/svg" viewBox="0 0 24 24"><path d="m 19.711 3.742 c 18.641 24.512 -32.66 27.996 -16.199 2.973 c 3.754 -5.703 11.262 -9.465 16.199 -2.973" fill="#a9a9a9"/><path d="m 13.08 5.707 c -3.289 0 -5.953 2.656 -5.953 5.93 c 0 3.273 2.664 5.93 5.953 5.93 c 3.285 0 5.953 -2.656 5.953 -5.93 c 0 -3.273 -2.668 -5.93 -5.953 -5.93 m 0 4.934 c 0.555 0 1 0.445 1 0.996 c 0 0.551 -0.445 0.996 -1 0.996 c -0.555 0 -1 -0.445 -1 -0.996 c 0 -0.551 0.449 -0.996 1 -0.996" fill="#fff"/><path d="m 140 893.56 c -13.491 0 -24.444 10.952 -24.444 24.451 c 0 13.499 10.953 24.451 24.444 24.451 c 13.491 0 24.444 -10.952 24.444 -24.451 c 0 -13.499 -10.953 -24.451 -24.444 -24.451 m 0 14.348 c 5.582 0 10.11 4.5 10.11 10.1 c 0 5.603 -4.525 10.1 -10.11 10.1 c -5.582 0 -10.11 -4.5 -10.11 -10.1 c 0 -5.603 4.525 -10.1 10.11 -10.1" transform="matrix(0.09237 0 0 0.09202 0.205 -72.958)" fill="#c0c0c0" stroke="#7f7f7f" stroke-width="6"/><path d="m 5.543 12.77 v 5.84 c 0 0.563 0.43 1.016 0.961 1.016 h 5.82 v -2.129 c -0.117 -0.039 -0.309 -0.023 -0.633 0.234 c -0.102 0.082 -0.316 0.199 -0.52 0.223 c -0.004 0 -0.008 0 -0.012 0 c -0.27 0 -0.512 -0.168 -0.676 -0.422 c -0.168 -0.258 -0.266 -0.605 -0.266 -0.988 c 0 -0.379 0.098 -0.727 0.266 -0.984 c 0.164 -0.258 0.406 -0.43 0.676 -0.43 c 0.098 0.004 0.199 0.047 0.293 0.094 c 0.09 0.043 0.176 0.09 0.227 0.121 c 0.004 0.004 0.008 0.004 0.012 0.008 c 0.324 0.262 0.516 0.277 0.633 0.238 v -2.82 h -3.551 c -0.039 0.125 -0.023 0.328 0.219 0.672 c 0.074 0.105 0.191 0.332 0.215 0.551 c 0 0.004 0 0.008 0 0.012 c 0 0.285 -0.164 0.543 -0.402 0.719 c -0.242 0.176 -0.57 0.281 -0.93 0.281 c -0.359 0 -0.688 -0.105 -0.926 -0.281 c -0.242 -0.176 -0.402 -0.434 -0.402 -0.719 c 0.004 -0.105 0.043 -0.211 0.086 -0.309 c 0.043 -0.098 0.086 -0.188 0.113 -0.242 c 0.004 -0.004 0.008 -0.008 0.012 -0.012 c 0.242 -0.344 0.258 -0.547 0.219 -0.672" fill="#333" fill-opacity="0.933"/></svg>