<svg xmlns="http://www.w3.org/2000/svg" viewBox="0 0 24 24"><path d="m 0.277 14.738 c 1.488 9.688 14.707 12.281 20.543 5.363 c 5.137 -5.137 3.855 -14.973 -2.445 -18.344 c -7.238 -4.512 -17.781 1.066 -18.359 10.05 c -0.059 0.984 0.027 1.977 0.262 2.934" fill="#efb01f"/><path d="m 11.969 3.875 c -1.184 0.035 -2.348 0.32 -3.418 0.836 c 0.352 0.098 0.684 0.246 0.992 0.445 c 0.066 0.039 0.133 0.086 0.199 0.129 c 0.023 0.016 0.043 0.035 0.066 0.051 c 0.301 -0.102 0.605 -0.188 0.918 -0.25 c 0.027 -0.035 0.051 -0.066 0.078 -0.098 c 0.063 -0.074 0.129 -0.148 0.195 -0.223 c 0.297 -0.328 0.621 -0.625 0.969 -0.891 m 0.523 0 c 0.352 0.266 0.676 0.563 0.969 0.891 c 0.07 0.074 0.133 0.148 0.195 0.223 c 0.027 0.031 0.055 0.063 0.082 0.098 c 0.309 0.063 0.613 0.148 0.914 0.25 c 0.023 -0.016 0.047 -0.035 0.066 -0.051 c 0.066 -0.043 0.133 -0.09 0.203 -0.129 c 0.305 -0.199 0.637 -0.348 0.988 -0.445 c -1.07 -0.516 -2.234 -0.801 -3.418 -0.836 m -0.262 0.098 c -0.383 0.277 -0.738 0.598 -1.059 0.949 c -0.27 0.297 -0.512 0.613 -0.723 0.953 c -0.027 0.047 -0.059 0.094 -0.086 0.148 c -0.027 0.051 -0.055 0.098 -0.082 0.148 c -0.332 0.629 -0.563 1.371 -0.512 2.199 c -0.637 -0.77 -1.273 -1.117 -1.891 -1.203 c -0.051 -0.008 -0.105 -0.012 -0.16 -0.016 c -0.047 -0.004 -0.094 -0.004 -0.141 -0.004 h -0.023 c -0.277 0.008 -0.555 0.055 -0.82 0.148 c -0.609 0.203 -1.191 0.594 -1.719 1.01 c 0.289 0.004 0.574 0.051 0.848 0.141 c 0.41 0.137 0.801 0.324 1.164 0.563 c 0.145 -0.082 0.293 -0.152 0.445 -0.215 c 0.051 -0.023 0.105 -0.043 0.16 -0.063 c 0.051 -0.02 0.105 -0.035 0.16 -0.055 c 0.262 -0.078 0.531 -0.121 0.805 -0.121 c 0.523 0 1.035 0.16 1.465 0.461 c 0.047 0.035 0.098 0.07 0.145 0.105 c 0.047 0.035 0.094 0.074 0.137 0.109 c 0.027 0.023 0.055 0.047 0.082 0.074 c 0 -0.023 0 -0.043 0.004 -0.063 c 0 -0.023 0 -0.043 0.004 -0.066 c 0 -0.031 0.004 -0.066 0.008 -0.098 c 0.004 -0.035 0.008 -0.066 0.012 -0.102 c 0.008 -0.063 0.02 -0.137 0.027 -0.203 c 0.082 -0.559 0.273 -1.102 0.559 -1.59 c 0.031 -0.055 0.066 -0.109 0.098 -0.16 c 0.023 -0.031 0.043 -0.063 0.063 -0.094 c 0.016 -0.02 0.027 -0.039 0.039 -0.055 c 0.422 -0.59 0.855 -0.859 0.871 -0.871 l 0.121 -0.074 l 0.121 0.074 c 0.02 0.012 0.449 0.281 0.871 0.871 c 0.012 0.016 0.027 0.035 0.039 0.055 c 0.02 0.031 0.043 0.063 0.063 0.094 c 0.035 0.051 0.066 0.105 0.098 0.16 c 0.285 0.488 0.477 1.031 0.559 1.59 c 0.012 0.066 0.02 0.141 0.027 0.203 h 0.004 c 0.004 0.035 0.008 0.066 0.008 0.102 c 0.004 0.031 0.008 0.066 0.008 0.102 c 0.004 0.02 0.004 0.039 0.008 0.063 c 0 0.02 0 0.039 0 0.063 c 0.027 -0.027 0.055 -0.051 0.086 -0.07 c 0.043 -0.039 0.086 -0.078 0.133 -0.113 c 0.051 -0.035 0.098 -0.07 0.145 -0.105 c 0.43 -0.301 0.941 -0.461 1.465 -0.461 c 0.273 0 0.547 0.043 0.809 0.125 c 0.051 0.016 0.105 0.031 0.16 0.051 c 0.051 0.02 0.105 0.039 0.16 0.063 c 0.152 0.063 0.297 0.133 0.441 0.215 c 0.363 -0.238 0.754 -0.426 1.164 -0.563 c 0.273 -0.09 0.563 -0.137 0.848 -0.141 c -0.527 -0.414 -1.105 -0.805 -1.715 -1.01 c -0.266 -0.094 -0.543 -0.141 -0.824 -0.148 h -0.023 c -0.047 0 -0.094 0.004 -0.141 0.004 c -0.051 0.004 -0.105 0.008 -0.16 0.016 c -0.617 0.086 -1.25 0.434 -1.887 1.203 c 0.047 -0.828 -0.18 -1.57 -0.516 -2.199 c -0.027 -0.051 -0.055 -0.098 -0.082 -0.148 c -0.027 -0.055 -0.055 -0.102 -0.086 -0.148 c -0.211 -0.34 -0.453 -0.656 -0.723 -0.953 c -0.316 -0.352 -0.672 -0.672 -1.059 -0.949 m 4.059 0.93 c 0.172 0.367 0.305 0.754 0.398 1.148 c 0.031 0.121 0.063 0.246 0.09 0.371 c 0.004 0.023 0.008 0.043 0.012 0.063 c 0.191 0.148 0.375 0.305 0.555 0.473 c 0.023 0.004 0.047 0.008 0.066 0.012 c 0.133 0.027 0.266 0.063 0.395 0.105 c 0.691 0.23 1.316 0.68 1.785 1.047 l 0.023 0.016 c -0.793 -1.363 -1.941 -2.484 -3.324 -3.234 m -8.117 0 c -1.383 0.75 -2.531 1.871 -3.324 3.234 l 0.023 -0.016 c 0.469 -0.367 1.098 -0.816 1.789 -1.047 c 0.129 -0.043 0.258 -0.078 0.391 -0.105 c 0.023 -0.004 0.047 -0.008 0.07 -0.012 c 0.176 -0.164 0.359 -0.324 0.555 -0.473 c 0.004 -0.02 0.008 -0.039 0.012 -0.059 c 0.023 -0.129 0.055 -0.254 0.086 -0.375 c 0.094 -0.395 0.23 -0.781 0.398 -1.148 m 0.297 0.121 c -0.164 0.355 -0.293 0.727 -0.387 1.105 c -0.066 0.262 -0.121 0.535 -0.168 0.809 c 0.574 0.078 1.121 0.363 1.633 0.852 c 0.059 -0.609 0.238 -1.195 0.531 -1.73 c 0.012 -0.02 0.02 -0.039 0.031 -0.059 c -0.23 -0.211 -0.477 -0.402 -0.738 -0.566 c -0.277 -0.18 -0.582 -0.32 -0.902 -0.41 m 7.523 0 c -0.32 0.09 -0.621 0.23 -0.898 0.41 c -0.266 0.164 -0.512 0.355 -0.738 0.566 c 0.008 0.02 0.02 0.039 0.027 0.059 c 0.293 0.535 0.473 1.125 0.535 1.73 c 0.512 -0.488 1.059 -0.773 1.629 -0.852 c -0.047 -0.273 -0.102 -0.547 -0.168 -0.809 c -0.094 -0.379 -0.223 -0.75 -0.387 -1.102 m -3.762 1.176 c 0 0 -0.449 0.277 -0.867 0.898 c -0.035 0.055 -0.066 0.105 -0.102 0.164 c -0.035 0.055 -0.07 0.117 -0.105 0.18 c -0.195 0.371 -0.336 0.766 -0.414 1.18 c -0.012 0.066 -0.023 0.141 -0.035 0.207 c -0.012 0.07 -0.02 0.137 -0.023 0.203 c -0.031 0.285 -0.035 0.57 -0.02 0.855 c 0 -0.004 -0.004 -0.004 -0.004 -0.008 c 0 0.004 0 0.004 0 0.008 c -0.02 -0.023 -0.039 -0.047 -0.063 -0.074 c -0.039 -0.047 -0.082 -0.094 -0.125 -0.137 c -0.043 -0.047 -0.09 -0.094 -0.133 -0.137 c -0.023 -0.02 -0.047 -0.043 -0.07 -0.063 c -0.023 -0.02 -0.047 -0.043 -0.07 -0.063 c -0.023 -0.02 -0.051 -0.039 -0.074 -0.063 c -0.047 -0.035 -0.094 -0.07 -0.141 -0.105 c -0.023 -0.016 -0.047 -0.035 -0.074 -0.051 c -0.023 -0.016 -0.051 -0.035 -0.074 -0.051 c -0.367 -0.234 -0.797 -0.359 -1.234 -0.363 c -0.27 0.004 -0.535 0.047 -0.793 0.129 c -0.051 0.02 -0.105 0.035 -0.16 0.059 c -0.051 0.02 -0.102 0.039 -0.156 0.063 c -0.082 0.035 -0.16 0.074 -0.242 0.117 c -0.039 0.02 -0.074 0.039 -0.113 0.063 c -0.039 0.02 -0.074 0.043 -0.113 0.066 c -0.508 0.316 -0.961 0.715 -1.344 1.18 c 1.707 0.133 2.637 0.539 3.156 1.047 c -0.047 0.035 -0.094 0.074 -0.141 0.109 c -0.578 0.469 -1.055 1.047 -1.387 1.703 l 0.23 0.199 l 1.566 -1.336 l 1.566 1.336 l 1.555 -1.328 l 0.004 -0.004 l 0.004 0.004 l 1.559 1.328 l 1.563 -1.336 l 1.566 1.336 l 0.234 -0.199 c -0.34 -0.672 -0.828 -1.262 -1.426 -1.73 c -0.004 -0.004 -0.004 -0.004 -0.004 -0.004 c -0.035 -0.027 -0.07 -0.055 -0.102 -0.078 c 0.52 -0.508 1.449 -0.914 3.156 -1.047 c -0.383 -0.465 -0.836 -0.863 -1.344 -1.18 c -0.035 -0.023 -0.074 -0.047 -0.109 -0.066 c -0.039 -0.023 -0.078 -0.043 -0.117 -0.063 c -0.082 -0.043 -0.16 -0.082 -0.242 -0.117 c -0.051 -0.023 -0.105 -0.043 -0.156 -0.066 c -0.055 -0.02 -0.105 -0.035 -0.16 -0.055 c -0.254 -0.082 -0.523 -0.125 -0.793 -0.129 c -0.438 0.004 -0.863 0.129 -1.234 0.363 h 0.004 c -0.027 0.016 -0.055 0.035 -0.078 0.051 c -0.027 0.016 -0.051 0.035 -0.074 0.051 c -0.047 0.035 -0.094 0.07 -0.141 0.105 c -0.023 0.02 -0.047 0.043 -0.07 0.063 c -0.023 0.02 -0.051 0.039 -0.074 0.063 c -0.023 0.02 -0.043 0.043 -0.066 0.063 c -0.047 0.043 -0.09 0.09 -0.137 0.133 c -0.043 0.047 -0.086 0.094 -0.125 0.141 c -0.02 0.027 -0.043 0.051 -0.063 0.074 c 0 -0.004 0 -0.004 0 -0.008 c 0 0.004 0 0.004 -0.004 0.008 c 0.02 -0.285 0.012 -0.57 -0.016 -0.855 c -0.008 -0.066 -0.016 -0.133 -0.027 -0.203 c -0.012 -0.066 -0.023 -0.141 -0.035 -0.207 c -0.078 -0.414 -0.219 -0.809 -0.414 -1.18 c -0.035 -0.063 -0.07 -0.125 -0.105 -0.18 c -0.031 -0.059 -0.066 -0.113 -0.102 -0.164 c -0.418 -0.621 -0.867 -0.898 -0.867 -0.898 m -7.602 2.336 c -0.625 1.223 -0.953 2.578 -0.953 3.953 c 0 4.762 3.832 8.621 8.555 8.621 c 4.727 0 8.555 -3.859 8.555 -8.621 c 0 -1.375 -0.324 -2.73 -0.953 -3.953 h -0.383 c -0.246 0.004 -0.488 0.043 -0.723 0.113 l -0.027 0.008 c 0.68 1.16 1.035 2.484 1.035 3.832 c 0 1.93 -0.73 3.789 -2.047 5.191 v -2.137 c 0 -0.246 -0.016 -0.484 -0.051 -0.723 l -0.715 0.609 l -1.566 -1.336 l -1.563 1.336 l -1.563 -1.332 l -1.559 1.332 l -1.566 -1.336 l -1.566 1.336 l -0.711 -0.609 c -0.035 0.238 -0.055 0.477 -0.055 0.723 v 2.137 c -1.313 -1.402 -2.047 -3.262 -2.047 -5.191 c 0 -1.348 0.359 -2.672 1.035 -3.832 l -0.023 -0.008 c -0.234 -0.07 -0.48 -0.109 -0.727 -0.113 m 4.094 3.949 l -1.418 1.207 c -0.086 0.074 -0.215 0.074 -0.301 0 l -0.184 -0.16 c -0.145 0.328 -0.258 0.668 -0.328 1.023 l 0.664 0.566 l 1.414 -1.207 c 0.047 -0.039 0.098 -0.055 0.152 -0.055 c 0.055 0 0.105 0.016 0.148 0.055 l 1.418 1.207 l 1.41 -1.203 c 0.043 -0.039 0.094 -0.055 0.148 -0.055 c 0.055 0 0.105 0.016 0.152 0.055 l 1.41 1.203 l 1.414 -1.207 c 0.043 -0.039 0.098 -0.055 0.148 -0.055 c 0.055 0 0.109 0.016 0.152 0.055 l 1.414 1.207 l 0.664 -0.566 c -0.07 -0.355 -0.184 -0.695 -0.328 -1.02 l -0.184 0.156 c -0.086 0.074 -0.215 0.074 -0.301 0 l -1.418 -1.207 l -1.414 1.207 c -0.086 0.074 -0.211 0.074 -0.297 0 l -1.414 -1.203 l -1.41 1.203 c -0.09 0.074 -0.215 0.074 -0.301 0 m 1.324 2.223 c 0.008 0 0.016 0 0.023 0.004 c 0.176 0.102 0.176 3.305 0 3.406 c -0.176 0.105 -2.93 -1.496 -2.93 -1.703 c 0 -0.199 2.582 -1.707 2.906 -1.707 m 3.059 0 c 0.012 0 0.02 0 0.023 0.004 c 0.176 0.102 0.176 3.305 0 3.406 c -0.172 0.105 -2.926 -1.496 -2.926 -1.703 c 0 -0.199 2.582 -1.707 2.902 -1.707" fill="#fff"/></svg>