<svg xmlns="http://www.w3.org/2000/svg" viewBox="0 0 24 24"><path d="m 19.656 21.375 c -14.398 11.168 -29.34 -16.645 -11.52 -20.715 c 11.223 -4.168 22.19 12.438 11.52 20.715" fill="#4b0081"/><path d="m 9.637 17.355 c -0.289 -0.117 -0.383 -0.34 -0.383 -0.91 c 0 -0.488 -0.012 -0.539 -0.156 -0.684 c -0.09 -0.09 -0.164 -0.148 -0.172 -0.141 c -0.172 0.23 -0.414 0.629 -0.414 0.68 c 0 0.039 0.113 0.234 0.25 0.438 c 0.27 0.398 0.305 0.523 0.156 0.578 c -0.289 0.113 -0.527 0.027 -0.699 -0.246 c -0.23 -0.309 -0.219 -0.098 -0.445 0.18 c -0.129 0.156 -0.629 0.129 -0.629 -0.039 c 0.16 -0.332 0.336 -0.559 0.555 -0.879 c -0.18 -0.301 -0.406 -0.59 -0.555 -0.91 c 0 -0.102 0.262 -0.184 0.465 -0.145 c 0.152 0.027 0.238 0.094 0.328 0.246 c 0.141 0.27 0.215 0.188 0.336 -0.004 c 0.145 -0.219 0.164 -0.227 0.648 -0.234 l 0.301 -0.004 c 0.012 -0.195 0.031 -0.453 0.191 -0.516 c 0.168 -0.066 0.383 -0.023 0.453 0.086 c 0.059 0.207 0.063 0.383 0.242 0.438 c 0.152 0.043 0.203 0.094 0.215 0.223 c 0.027 0.207 -0.078 0.34 -0.27 0.34 c -0.141 0 -0.145 0.008 -0.129 0.465 c 0.02 0.445 0.027 0.469 0.168 0.488 c 0.219 0.027 0.305 0.117 0.305 0.316 c 0 0.133 -0.039 0.191 -0.156 0.234 c -0.184 0.07 -0.43 0.07 -0.605 0 m 2.602 -0.031 c -0.34 -0.18 -0.465 -0.535 -0.313 -0.895 c 0.105 -0.25 0.348 -0.391 0.766 -0.441 c 0.18 -0.02 0.289 -0.063 0.277 -0.102 c -0.035 -0.102 -0.223 -0.117 -0.477 -0.031 c -0.211 0.07 -0.246 0.066 -0.414 -0.059 c -0.16 -0.117 -0.195 -0.125 -0.258 -0.047 c -0.039 0.047 -0.16 0.102 -0.273 0.125 c -0.344 0.063 -0.367 0.113 -0.367 0.754 c 0 0.371 -0.027 0.605 -0.074 0.652 c -0.086 0.09 -0.316 0.094 -0.473 0.012 c -0.105 -0.059 -0.117 -0.137 -0.117 -0.996 v -0.93 l 0.164 -0.063 c 0.211 -0.102 0.434 0.102 0.621 0.004 c 0.063 -0.031 0.211 -0.059 0.332 -0.059 c 0.168 0 0.227 0.027 0.25 0.121 c 0.039 0.145 0.027 0.145 0.289 -0.008 c 0.246 -0.145 0.887 -0.176 1.125 -0.051 c 0.316 0.16 0.348 0.266 0.348 1.156 c 0.004 0.613 -0.016 0.828 -0.07 0.836 c -0.043 0.008 -0.211 0.016 -0.379 0.023 c -0.352 -0.047 -0.695 0.121 -0.957 -0.004 m 0.711 -0.605 c 0.137 -0.133 0.117 -0.207 -0.051 -0.207 c -0.223 0 -0.336 0.063 -0.336 0.188 c 0 0.145 0.25 0.156 0.387 0.02 m 1.523 0.609 c -0.441 -0.156 -0.605 -0.445 -0.602 -1.063 c 0.008 -0.539 0.27 -0.91 0.711 -1 c 0.293 -0.059 0.734 0.012 0.883 0.148 c 0.098 0.09 0.109 0.09 0.145 0 c 0.02 -0.055 0.074 -0.102 0.121 -0.102 c 0.047 0 0.086 -0.059 0.086 -0.133 c 0 -0.379 0.188 -0.531 0.508 -0.41 c 0.121 0.047 0.152 0.102 0.152 0.266 c 0 0.188 0.02 0.207 0.211 0.246 c 0.199 0.035 0.211 0.051 0.211 0.27 c 0 0.238 -0.066 0.305 -0.305 0.305 c -0.102 0 -0.117 0.047 -0.117 0.387 c 0 0.5 0.035 0.574 0.25 0.574 c 0.133 0 0.188 0.039 0.234 0.16 c 0.094 0.238 0.02 0.371 -0.223 0.418 c -0.285 0.055 -0.66 -0.066 -0.781 -0.25 c -0.066 -0.102 -0.109 -0.336 -0.129 -0.723 c -0.023 -0.48 -0.047 -0.582 -0.145 -0.633 c -0.082 -0.043 -0.148 -0.035 -0.246 0.035 c -0.098 0.066 -0.207 0.082 -0.418 0.055 c -0.387 -0.051 -0.469 0.023 -0.469 0.43 c 0 0.488 0.117 0.563 0.637 0.414 c 0.172 -0.047 0.484 0.215 0.43 0.359 c -0.051 0.129 -0.5 0.336 -0.734 0.332 c -0.102 0 -0.285 -0.039 -0.41 -0.082 m 3.109 0.02 c -0.406 -0.117 -0.668 -0.656 -0.594 -1.227 c 0.074 -0.598 0.383 -0.879 0.973 -0.879 c 0.582 0 0.902 0.309 0.965 0.93 c 0.094 0.883 -0.52 1.414 -1.344 1.176 m 0.543 -0.613 c 0.133 -0.094 0.191 -0.496 0.105 -0.719 c -0.055 -0.137 -0.102 -0.164 -0.273 -0.164 c -0.191 0 -0.215 0.02 -0.27 0.219 c -0.137 0.496 0.125 0.895 0.438 0.664 m -12.77 0.582 c -0.059 -0.023 -0.074 -0.34 -0.074 -1.293 v -1.258 l 0.152 -0.059 c 0.203 -0.078 1.238 -0.074 1.441 0 c 0.223 0.164 0.141 0.305 0.121 0.574 l -0.512 0.027 c -0.477 0.027 -0.516 0.043 -0.531 0.168 c -0.02 0.125 0.004 0.133 0.301 0.137 c 0.551 0 0.598 0.031 0.578 0.352 l -0.016 0.277 c -0.289 0.031 -0.844 -0.012 -0.844 0.242 v 0.18 c 0.34 0.02 0.68 0.039 1.023 0.059 c 0.02 0.195 0.039 0.422 -0.043 0.578 c -0.082 0.055 -1.469 0.066 -1.598 0.016 m 13.906 0 c -0.055 -0.023 -0.074 -0.281 -0.074 -0.992 c 0 -0.953 0 -0.957 0.145 -1.023 c 0.223 -0.094 0.402 0.074 0.602 0.012 c 0.145 -0.148 0.598 -0.031 0.547 0.141 c -0.012 0.035 -0.035 0.141 -0.055 0.234 c -0.063 0.215 -0.25 0.156 -0.418 0.23 c -0.141 0.066 -0.148 0.098 -0.168 0.695 c -0.016 0.473 -0.043 0.641 -0.113 0.684 c -0.148 0.039 -0.328 0.07 -0.465 0.02 m -11.93 -4.285 c -0.086 -0.16 -0.086 -2.379 -0.004 -2.539 c 0.055 -0.098 0.125 -0.117 0.379 -0.113 c 0.172 0 0.445 -0.012 0.613 -0.031 c 0.566 -0.063 0.871 0.293 0.871 1.02 c 0 0.453 -0.094 0.719 -0.328 0.938 c -0.133 0.125 -0.227 0.148 -0.535 0.152 l -0.371 0.008 c -0.02 0.215 -0.039 0.434 -0.059 0.648 l -0.254 0.02 c -0.137 -0.004 -0.266 -0.012 -0.313 -0.102 m 1.105 -1.281 c 0.105 -0.152 0.125 -0.543 0.031 -0.715 c -0.035 -0.063 -0.125 -0.113 -0.207 -0.113 c -0.227 0 -0.332 0.152 -0.332 0.48 c 0 0.445 0.297 0.648 0.508 0.348 m 2.203 0.629 c -0.324 -0.168 -0.367 -0.293 -0.16 -0.473 c 0.113 -0.102 0.207 -0.137 0.27 -0.109 c 0.16 0.074 0.629 0.105 0.59 0.039 c -0.02 -0.031 -0.199 -0.117 -0.398 -0.188 c -0.426 -0.156 -0.605 -0.352 -0.605 -0.668 c 0 -0.266 0.16 -0.492 0.422 -0.602 c 0.254 -0.105 0.809 -0.051 1.012 0.102 c 0.23 0.172 0.234 0.297 0.012 0.43 c -0.164 0.102 -0.211 0.105 -0.406 0.039 c -0.219 -0.074 -0.43 -0.055 -0.336 0.031 c 0.027 0.023 0.191 0.09 0.363 0.148 c 0.961 0.309 0.758 1.355 -0.262 1.355 c -0.16 0 -0.387 -0.047 -0.5 -0.105 m 1.984 0.004 c -0.348 -0.18 -0.48 -0.449 -0.48 -0.945 c 0 -0.703 0.262 -1.051 0.828 -1.105 c 0.406 -0.039 0.703 0.07 0.902 0.332 c 0.141 0.184 0.168 0.285 0.184 0.672 c 0.02 0.508 -0.082 0.773 -0.371 0.992 c -0.227 0.168 -0.785 0.195 -1.063 0.055 m 0.688 -0.594 c 0.059 -0.063 0.094 -0.203 0.094 -0.387 c 0 -0.328 -0.105 -0.484 -0.332 -0.484 c -0.184 0 -0.27 0.16 -0.27 0.504 c 0 0.293 0.109 0.461 0.301 0.461 c 0.063 0 0.156 -0.043 0.207 -0.094 m 1.309 0.574 c -0.262 -0.164 -0.387 -0.477 -0.387 -0.969 c -0.004 -0.711 0.363 -1.125 0.941 -1.063 c 0.301 0.055 0.277 0.031 0.277 -0.25 c 0 -0.387 0.094 -0.5 0.395 -0.473 l 0.238 0.02 v 2.766 l -0.332 0.012 c -0.402 -0.051 -0.836 0.125 -1.133 -0.043 m 0.715 -0.543 c 0.156 -0.219 0.227 -0.664 0.023 -0.863 c -0.281 -0.109 -0.449 0.051 -0.449 0.422 c 0.07 0.383 0.152 0.578 0.426 0.441 m 1.504 0.535 c -0.281 -0.172 -0.344 -0.266 -0.43 -0.641 c -0.18 -0.777 0.238 -1.395 0.938 -1.395 c 0.297 0 0.539 0.094 0.707 0.277 c 0.129 0.145 0.254 0.641 0.203 0.832 c -0.035 0.148 -0.047 0.152 -0.609 0.152 c -0.426 0 -0.57 0.02 -0.57 0.078 c 0 0.203 0.352 0.297 0.605 0.16 c 0.129 -0.07 0.445 0.055 0.496 0.195 c -0.07 0.453 -1.039 0.504 -1.34 0.34 m 0.723 -1.34 c 0 -0.105 -0.164 -0.168 -0.313 -0.125 c -0.199 0.066 -0.242 0.285 -0.016 0.301 c 0.391 0.02 0.328 -0.121 0.328 -0.176 m -12.254 1.332 c -0.035 -0.898 -0.012 -1.586 0 -2.539 c 0.563 0 1.125 0 1.688 0 l 0.02 0.238 c 0.027 0.324 -0.082 0.391 -0.637 0.391 c -0.426 0 -0.445 0.008 -0.426 0.137 c 0.016 0.121 0.059 0.137 0.434 0.164 c 0.453 0.035 0.52 0.094 0.469 0.426 c -0.027 0.191 -0.133 0.234 -0.602 0.234 c -0.313 0.004 -0.32 0.008 -0.301 0.168 c 0.02 0.16 0.031 0.164 0.41 0.18 c 0.656 0.027 0.672 0.035 0.648 0.363 l -0.016 0.285 c -0.484 0.043 -1.254 0.172 -1.688 -0.047 m 4.199 0.008 c -0.051 -0.055 -0.074 -0.336 -0.074 -0.961 c 0 -0.992 0.02 -1.035 0.402 -1 c 0.453 -0.02 0.23 0.684 0.23 1.012 v 0.992 c -0.184 0.016 -0.398 0.039 -0.559 -0.039 m 0.023 -2.148 c -0.207 -0.23 -0.059 -0.551 0.262 -0.551 c 0.203 0 0.316 0.125 0.316 0.344 c 0 0.289 -0.379 0.426 -0.578 0.207 m -4.117 -2.715 c -0.133 -0.055 -0.133 -0.066 -0.133 -1.32 v -1.262 c 0.293 -0.082 0.617 -0.063 0.875 -0.051 c 0.566 0.031 0.797 0.109 0.973 0.344 c 0.207 0.273 0.129 0.93 -0.137 1.137 c -0.082 0.066 -0.148 0.133 -0.148 0.152 c 0 0.02 0.109 0.203 0.242 0.41 c 0.289 0.457 0.301 0.566 0.066 0.617 c -0.328 0.074 -0.477 -0.016 -0.793 -0.484 c -0.168 -0.246 -0.328 -0.445 -0.359 -0.445 c -0.125 0.266 0.047 0.801 -0.211 0.902 c -0.184 0.07 -0.195 0.07 -0.375 0 m 1.098 -1.773 c -0.086 -0.285 -0.277 -0.199 -0.57 -0.219 c 0 0.145 0 0.289 0 0.434 c 0.25 -0.012 0.57 -0.008 0.57 -0.215 m 1.195 1.738 c -0.305 -0.152 -0.324 -0.359 -0.047 -0.508 c 0.172 -0.074 0.855 0.086 0.781 -0.055 c -0.02 -0.031 -0.176 -0.098 -0.352 -0.148 c -0.391 -0.113 -0.582 -0.309 -0.625 -0.629 c -0.031 -0.219 -0.012 -0.266 0.176 -0.453 c 0.129 -0.129 0.293 -0.223 0.441 -0.25 c 0.438 -0.082 1.063 0.184 0.973 0.414 c -0.02 0.051 -0.105 0.141 -0.191 0.195 c -0.223 0.133 -0.344 -0.008 -0.578 -0.035 c -0.223 0 -0.113 0.105 0.242 0.234 c 0.43 0.156 0.605 0.352 0.605 0.676 c 0 0.172 -0.047 0.281 -0.176 0.426 c -0.16 0.184 -0.203 0.195 -0.617 0.215 c -0.211 -0.008 -0.461 0.004 -0.633 -0.082 m 1.785 -0.016 c -0.258 -0.141 -0.281 -0.336 -0.047 -0.477 c 0.168 -0.109 0.961 0.102 0.797 -0.07 c -0.031 -0.027 -0.199 -0.094 -0.371 -0.152 c -0.535 -0.172 -0.746 -0.57 -0.531 -0.988 c 0.102 -0.191 0.469 -0.367 0.773 -0.363 c 0.246 0 0.695 0.203 0.746 0.336 c 0.055 0.145 -0.258 0.406 -0.426 0.352 c -0.07 -0.023 -0.219 -0.055 -0.332 -0.074 c -0.5 0.168 0.738 0.336 0.813 0.773 c 0.078 0.477 -0.246 0.773 -0.848 0.773 c -0.242 0 -0.434 -0.035 -0.574 -0.109" fill="#cfcfcf"/></svg>