<svg xmlns="http://www.w3.org/2000/svg" viewBox="0 0 24 24"><path d="m 18.17 2.02 c 21.13 17.914 -22.313 35.14 -17.848 7.434 c 0.98 -6.074 12.156 -12.262 17.848 -7.434" fill="#ceeed0"/><path d="m 9.871 19.551 c -2.797 -0.574 -5.207 -2.859 -5.875 -5.563 c -0.273 -1.117 -0.184 -2.891 0.203 -3.973 c 1.051 -2.941 3.723 -4.867 6.957 -5.02 c 1.492 -0.07 2.574 0.148 3.895 0.781 c 1.297 0.625 2.719 2 3.359 3.25 c 1.512 2.957 0.957 6.203 -1.449 8.508 c -1.918 1.832 -4.461 2.555 -7.09 2.01 m 0.438 -3.922 l 1.23 -0.547 l 1.223 0.547 c 0.672 0.297 1.27 0.543 1.328 0.543 c 0.059 0 0.027 -0.617 -0.074 -1.367 l -0.18 -1.371 l 0.758 -0.754 c 1.387 -1.387 1.387 -1.246 0.012 -1.488 c -0.66 -0.113 -1.313 -0.254 -1.457 -0.305 c -0.141 -0.055 -0.547 -0.605 -0.898 -1.223 c -0.355 -0.617 -0.676 -1.125 -0.719 -1.125 c -0.039 0 -0.375 0.52 -0.742 1.16 c -0.75 1.297 -0.488 1.145 -2.691 1.555 c -0.441 0.082 -0.805 0.184 -0.805 0.227 c 0 0.047 0.383 0.441 0.848 0.879 c 0.465 0.438 0.898 0.891 0.965 1 c 0.105 0.184 0.02 1.227 -0.199 2.473 c -0.035 0.184 -0.008 0.336 0.055 0.336 c 0.066 0 0.672 -0.246 1.348 -0.547" fill="#45c551"/></svg>