<svg xmlns="http://www.w3.org/2000/svg" viewBox="0 0 24 24"><path d="m 19.04 22.605 c -35.406 10.277 -12.836 -40.492 3 -15.03 c 2.898 4.68 3.098 12.625 -3 15.03" fill="#6a8e22"/><path d="m 11.613 20.277 c -1.969 -0.02 -2.793 -0.043 -2.867 -0.086 c -0.371 -0.207 -2.492 -2.813 -2.891 -3.555 l -0.215 -0.402 l 0.012 -1.988 l 0.016 -1.988 l 0.512 -0.055 c 0.668 -0.246 0.945 -0.16 1.336 -0.367 l 0.008 -0.543 c 0.008 -0.449 0.09 -0.559 0.359 -0.902 c 0.168 -0.219 0.254 -0.406 0.383 -0.848 c 0.215 -0.727 0.488 -1.223 0.887 -1.613 c 0.406 -0.391 0.848 -0.672 1.945 -1.238 l 0.887 -0.453 l -0.016 -0.367 c -0.016 -0.273 0.004 -0.406 0.074 -0.531 c 0.125 -0.227 0.18 -0.543 -0.199 -0.855 c -0.465 -0.379 -0.465 -0.828 -0.469 -0.988 c 0 -0.086 0.031 -0.07 0.199 0.082 c 0.559 0.508 0.508 0.703 1.059 0.359 c 0.449 -0.277 0.555 -0.586 0.555 -0.559 c 0 0.027 0.07 0.355 -0.047 0.602 c -0.27 0.555 -0.621 0.641 -0.605 1.305 c 0.004 0.117 0.07 0.344 0.09 0.516 c 0.02 0.168 0.063 0.336 0.09 0.367 c 0.027 0.035 0.246 0.137 0.484 0.223 c 0.809 0.297 1.195 0.52 1.734 0.996 c 0.742 0.656 1 1.062 1.273 1.965 c 0.086 0.293 0.223 0.633 0.305 0.762 c 0.34 0.527 0.438 0.719 0.469 0.926 c 0.02 0.121 0.074 0.266 0.121 0.32 c 0.102 0.117 0.906 0.504 1.324 0.637 c 0.199 0.063 0.285 0.121 0.309 0.199 c 0.016 0.063 0.02 1.117 0.012 2.344 l -0.016 2.227 l -0.172 0.449 c -0.48 1.063 -1.242 1.871 -2.344 2.945 c -0.34 0.168 -0.34 0.168 -1.09 0.156 c -0.414 -0.008 -1.992 -0.023 -3.512 -0.039" fill="#fff"/><g fill="#6a8e22"><path d="m 9.02 15.02 h 6.609 v 0.391 h -6.609"/><path d="m 15.742 15.223 v 5.383 h -0.344 v -5.383"/><path d="m 9.406 15.223 v 5.383 h -0.395 v -5.383"/><path d="m 5.973 12.543 l 3.59 2.605 l -0.234 0.32 l -3.59 -2.605"/><path d="m 18.422 12.59 l -3.129 2.691 l 0.203 0.332 l 3.133 -2.691"/><path d="m 11.5 12.805 c -0.703 -0.105 -1.59 -0.406 -2.289 -0.773 c -1.098 -0.574 -1.133 -0.609 -0.984 -0.996 l 0.125 -0.328 l 0.848 0.43 c 1.18 0.594 2.57 0.824 3.984 0.66 c 1.035 -0.121 2.32 -0.543 2.82 -0.926 c 0.352 -0.27 0.387 -0.262 0.539 0.129 c 0.121 0.324 0.109 0.348 -0.34 0.629 c -0.633 0.395 -1.695 0.855 -2.32 1.01 c -0.609 0.148 -1.914 0.238 -2.383 0.168"/><path d="m 13.855 19.543 c 0 1.465 -0.648 2.652 -1.449 2.652 c -0.801 0 -1.449 -1.188 -1.449 -2.652 c 0 -1.465 0.648 -2.652 1.449 -2.652 c 0.801 0 1.449 1.188 1.449 2.652"/></g></svg>