<svg xmlns="http://www.w3.org/2000/svg" viewBox="0 0 24 24"><path d="m 20.922 3.797 c 13.609 20.77 -23.566 28.809 -20.602 7.441 c 1.207 -8.715 15.395 -15.387 20.602 -7.441" fill="#00bf00"/><g stroke-linejoin="round" stroke-linecap="round"><g fill="none"><g stroke="#ff0" transform="matrix(0.25573 0 0 0.24219 4.481 5.04)"><g stroke-width="8.125"><path d="m 53.32 53.11 h -46.635"/><path d="m 29.999 52.962 v -10.742"/></g><path d="m 33.375 52.575 c 0 1.855 -1.512 3.371 -3.376 3.371 c -1.864 0 -3.376 -1.516 -3.376 -3.371 c 0 -1.871 1.512 -3.371 3.376 -3.371 c 1.864 0 3.376 1.5 3.376 3.371" stroke-width="6.875"/><path d="m 17.412 5.51 l -8.218 30.903 c 19.598 -3.516 19.751 13.79 33.529 9.419 l 8.08 -30.42 c -13.01 4.774 -16.314 -14.919 -33.392 -9.903" stroke-width="8.125"/></g><g stroke="#00bf00" stroke-width="3.183" transform="matrix(0.25106 0 0 0.23777 4.464 5.05)"><path d="m 54.38 54.06 h -47.5"/><path d="m 30.624 53.914 v -10.942"/></g></g><g stroke="#00bf00"><g fill-rule="evenodd"><path d="m 34.06 53.5 c 0 1.906 -1.54 3.45 -3.439 3.45 c -1.898 0 -3.439 -1.544 -3.439 -3.45 c 0 -1.889 1.54 -3.434 3.439 -3.434 c 1.898 0 3.439 1.544 3.439 3.434" transform="matrix(0.25106 0 0 0.23777 4.464 5.05)" fill="#00bf00" stroke-width="1.91"/><g stroke-width="1.875" transform="matrix(0.23718 0 0 0.22463 -6.339 4.787)"><path d="m 83 11.971 l -4.282 16.14 c -6.03 -8.747 -18.479 -5.634 -18.479 -5.634 l 3.492 -12.834 c 0.791 0 -0.774 -4.278 5.649 -3.304 c 9.733 0.383 13.62 5.634 13.62 5.634" fill="#acff2f"/><g fill="#ff0"><path d="m 78.62 28.21 l -4.282 16.14 c -7.131 -6 -18.759 -3.426 -18.479 -5.634 l 3.92 -16.14 c 12.467 -3.982 18.841 5.634 18.841 5.634"/><path d="m 73.14 42.926 l 4.776 -16.381 c 5.912 9.373 18.12 8.243 18.12 8.243 l -4.084 15.199 c -8.482 5.03 -18.808 -7.078 -18.808 -7.078"/><path d="m 77.75 27.15 l 4.908 -16.09 c 6.04 7.843 17.985 7.947 17.985 7.947 l -3.673 12.469 c -0.791 -0.087 0.708 4.348 -5.698 2.713 c -9.717 -1.391 -13.538 -7.04 -13.538 -7.04"/></g></g></g><path d="m 64.38 7.07 l -8.844 33.32 c 21.13 -3.791 21.278 14.869 36.15 10.156 l 8.696 -32.798 c -14.03 5.147 -17.589 -16.09 -36 -10.678" transform="matrix(0.23718 0 0 0.22463 -6.339 4.787)" fill="none" stroke-width="3.369"/></g></g><g fill="none" stroke="#00bf00" stroke-width="2.695" transform="matrix(0.23718 0 0 0.22463 -6.339 4.787)"><path d="m 82.85 11.415 l -8.992 32.21"/><path d="m 60.22 22.301 c 9.124 -1.896 12.912 0.243 17.77 5.095 c 4.628 4.626 11.611 8.886 18.479 6.521" stroke-linejoin="round"/></g></svg>