<svg xmlns="http://www.w3.org/2000/svg" viewBox="0 0 24 24"><path d="m 18.17 1.75 c 21.13 18.13 -22.313 35.566 -17.848 7.523 c 0.98 -6.148 12.156 -12.41 17.848 -7.523" fill="#f4f4f4"/><g stroke="#ce8d02" transform="matrix(0.09375 0 0 0.09375 -0.059 0.296)"><path d="m 157.17 135.51 c -5.125 -1.375 -9 -1.583 -10.958 -0.542 c -1.333 0.75 -1.375 0.625 -0.917 -3.583 c 0.625 -5.958 -0.375 -7.167 -6.75 -8.208 l -4.708 -0.792 l 0.208 -2.458 c 0.125 -2.042 -0.167 -2.75 -1.917 -4.208 c -2.708 -2.292 -7.25 -2.5 -9.125 -0.417 c -1.333 1.458 -1.667 4.875 -0.667 7 c 0.542 1.25 0.333 1.292 -4.083 0.833 c -2.542 -0.25 -5.04 -0.792 -5.542 -1.208 c -0.458 -0.417 -0.875 -2.042 -0.875 -3.667 c 0 -2 -0.375 -3.375 -1.25 -4.25 c -0.833 -0.833 -1.083 -1.583 -0.708 -2.208 c 0.333 -0.5 0.625 -2 0.625 -3.292 c 0 -3.583 1.458 -5.167 5.208 -5.708 c 5 -0.708 5.458 -0.958 6.25 -3.333 c 0.542 -1.625 0.542 -2.792 0 -4.208 c -0.917 -2.417 -1.5 -2.792 -5.583 -3.333 c -4.375 -0.625 -5.875 -2.167 -5.875 -6.083 c 0 -2.125 -0.333 -3.208 -1 -3.458 c -0.833 -0.333 -0.667 -0.667 0.667 -1.708 c 1.333 -1.083 1.667 -1.958 1.667 -4.25 c 0 -3.583 0.708 -4.167 5.25 -4.583 c 4.75 -0.458 6.167 -1.792 6.417 -6.167 l 0.208 -3.5 l 4.04 -0.417 c 5.208 -0.583 48.542 -0.542 54.792 0 l 4.75 0.417 v 2.875 c 0.042 4.083 2.833 6.958 6.875 6.958 c 2.375 0 3.083 0.292 4.04 1.75 c 1.042 1.583 1.042 1.958 0.167 3.542 c -0.792 1.458 -0.292 3.875 -3 4.208 c -1.875 0.25 -6.125 -0.958 -7.875 -0.167 c -2.833 1.333 -3.875 1.458 -9.875 1.042 c -8.542 -0.542 -9.08 -0.25 -9.958 5.292 c -0.833 5.04 -0.875 5.083 -11.625 5.208 c -9.458 0.125 -10.08 0.417 -10.667 5.125 c -0.583 4.458 -1.667 5.417 -7.04 6.125 c -6.292 0.833 -7.583 3.708 -3.583 8 l 1.792 1.917 l 7.417 -0.417 c 9.583 -0.542 10.5 -0.125 11.583 5.292 c 0.458 2.167 1.167 4.208 1.667 4.5 c 0.458 0.292 2.458 0.708 4.417 0.958 c 3.167 0.417 3.792 0.75 5.04 2.75 c 1.167 1.917 1.292 2.542 0.625 3.833 c -0.917 1.792 -4.792 6 -5.333 5.875 c -0.208 -0.042 -2.375 -0.667 -4.792 -1.333 m -14.583 -35.17 c 1.875 -2.208 1.875 -3.542 -0.042 -6.542 c -1.5 -2.417 -5.917 -2.292 -8.208 0.25 c -1.958 2.208 -1.917 3.75 0.25 6.292 c 2.417 2.917 5.542 2.875 8 0 m 22.625 -10.375 c 1.208 -1.208 1.25 -4.958 0.083 -7.125 c -0.75 -1.458 -1.083 -1.5 -9.75 -1.292 c -6.333 0.167 -9.333 0.542 -10.125 1.167 c -1.458 1.208 -1.458 5.708 0 6.917 c 2.375 2 17.875 2.25 19.792 0.333 m 22.875 -11.333 c 2.625 -2.458 1.875 -5.208 -2.083 -7.583 c -1.042 -0.625 -3.667 -0.792 -9.417 -0.583 c -7.917 0.333 -7.958 0.333 -8.958 2.25 c -1.25 2.458 -1.25 4 0.083 5.875 c 1 1.458 1.5 1.5 9.917 1.5 c 8.208 0 9 -0.083 10.458 -1.458" fill="#c88801" stroke-width="0.072"/><path d="m 171.96 133.47 c -1.625 -0.5 -3.208 -2.333 -3.792 -4.375 c -0.917 -3.167 -3.167 -4.625 -8.917 -5.75 l -1.875 -0.375 l -1.083 -3.5 c -0.583 -1.958 -1.458 -3.917 -1.917 -4.5 c -1.292 -1.542 -2.708 -1.75 -10.583 -1.75 h -7.167 l -1.375 -1.75 c -2.125 -2.708 -2.417 -3.417 -1.792 -4.292 c 0.708 -1 2.167 -1.708 5.5 -2.625 c 5.04 -1.417 6.04 -2.333 6.792 -6.208 c 0.75 -3.917 1.542 -4.25 10.417 -4.917 c 11.292 -0.833 10.5 -0.375 12.583 -7.167 c 0.917 -3.042 0.792 -3 9.125 -3.25 c 4.667 -0.167 7 -0.375 8.917 -0.875 c 3.375 -0.875 3.875 -0.875 2.792 0 c -1.417 1.083 -1.75 3.292 -1.5 10.333 c 0.25 7.167 0.625 9.375 1.75 10.125 c 0.458 0.292 2.125 0.625 3.958 0.792 c 3.333 0.25 4.208 0.625 5.458 2.292 c 0.875 1.167 1.083 3.167 0.417 4.417 c -0.875 1.708 -2.292 2.458 -5.625 2.958 c -3.042 0.458 -4.208 0.917 -5.833 2.25 l -0.917 0.792 l 0.417 6.958 c 0.625 11 0.792 10.792 -8.583 10.75 c -3.417 -0.042 -6.625 -0.167 -7.167 -0.333" fill="#ff9682" stroke-width="0.036"/></g><path d="m 9.613 20.01 c -0.164 -0.078 -0.164 -0.09 -0.172 -0.926 c -0.008 -1.137 0.016 -1.117 -1.129 -1.098 c -0.949 0.02 -1.027 -0.012 -1.027 -0.406 c 0 -0.32 0.188 -0.488 0.496 -0.441 c 0.211 0.035 0.273 0.016 0.414 -0.121 c 0.16 -0.152 0.168 -0.188 0.168 -0.961 c 0 -0.77 -0.008 -0.805 -0.168 -0.961 c -0.141 -0.133 -0.203 -0.152 -0.414 -0.117 c -0.309 0.047 -0.496 -0.121 -0.496 -0.441 c 0 -0.395 0.078 -0.426 1.027 -0.406 c 1.148 0.02 1.133 0.035 1.109 -1.082 l -0.012 -0.828 l 0.172 -0.109 c 0.133 -0.086 0.223 -0.094 0.414 -0.051 c 0.238 0.059 0.242 0.063 0.273 0.43 c 0.055 0.566 0.145 0.613 1.16 0.613 c 0.781 0 0.824 -0.008 0.98 -0.156 c 0.121 -0.117 0.16 -0.223 0.16 -0.43 c 0 -0.41 -0.105 -0.512 -0.57 -0.543 c -0.367 -0.027 -0.402 -0.043 -0.512 -0.242 c -0.102 -0.184 -0.105 -0.238 -0.035 -0.406 c 0.16 -0.371 0.59 -0.434 0.93 -0.137 c 0.191 0.164 0.203 0.195 0.141 0.371 c -0.098 0.266 -0.008 0.336 0.414 0.336 c 0.25 0 0.387 0.039 0.52 0.137 c 0.176 0.137 0.18 0.152 0.145 0.59 c -0.023 0.246 -0.059 0.602 -0.082 0.785 c -0.039 0.297 -0.027 0.355 0.109 0.496 c 0.152 0.156 0.16 0.156 0.961 0.113 l 0.805 -0.043 l 0.066 0.172 c 0.203 0.512 0.008 0.906 -0.414 0.828 c -0.195 -0.035 -0.258 -0.016 -0.402 0.121 c -0.16 0.156 -0.168 0.191 -0.168 0.961 c 0 0.773 0.008 0.809 0.168 0.965 c 0.141 0.133 0.207 0.152 0.414 0.117 c 0.309 -0.047 0.5 0.121 0.5 0.441 c 0 0.395 -0.078 0.426 -1.027 0.406 c -1.152 -0.02 -1.133 -0.035 -1.113 1.078 c 0.016 0.914 -0.016 0.988 -0.422 0.988 c -0.332 0 -0.508 -0.184 -0.457 -0.48 c 0.035 -0.199 0.016 -0.262 -0.125 -0.398 c -0.16 -0.156 -0.195 -0.16 -0.992 -0.16 c -0.801 0 -0.836 0.004 -0.996 0.16 c -0.141 0.137 -0.16 0.199 -0.125 0.398 c 0.031 0.188 0.016 0.262 -0.078 0.344 c -0.172 0.148 -0.422 0.191 -0.609 0.094 m 2.77 -1.945 c 0.117 -0.09 0.16 -0.203 0.188 -0.492 l 0.035 -0.371 l 0.383 -0.031 c 0.586 -0.051 0.637 -0.141 0.637 -1.113 c 0 -0.969 -0.051 -1.059 -0.637 -1.109 l -0.383 -0.031 l -0.035 -0.375 c -0.051 -0.563 -0.145 -0.609 -1.148 -0.609 c -1.01 0 -1.098 0.047 -1.152 0.609 l -0.031 0.375 l -0.387 0.031 c -0.582 0.051 -0.633 0.141 -0.633 1.109 c 0 0.973 0.051 1.063 0.633 1.113 l 0.387 0.031 l 0.031 0.371 c 0.055 0.566 0.145 0.613 1.152 0.613 c 0.695 0 0.828 -0.016 0.961 -0.121 m -1.758 -1.012 c -0.07 -0.012 -0.152 -0.047 -0.184 -0.074 c -0.082 -0.078 -0.07 -1.773 0.012 -1.855 c 0.043 -0.039 0.43 -0.066 0.969 -0.066 c 0.539 0 0.922 0.027 0.965 0.066 c 0.09 0.09 0.094 1.781 0.004 1.867 c -0.063 0.059 -1.488 0.109 -1.766 0.063 m -3.168 -4.176 c -0.121 -0.078 -0.145 -0.156 -0.145 -0.434 c 0 -0.434 -0.121 -0.547 -0.57 -0.547 c -0.488 0 -0.656 -0.23 -0.484 -0.664 l 0.063 -0.164 l 1.434 0.02 l 1.43 0.016 l 0.063 0.234 c 0.047 0.184 0.035 0.27 -0.051 0.398 c -0.098 0.141 -0.16 0.16 -0.461 0.16 c -0.453 0 -0.57 0.113 -0.57 0.559 c 0 0.262 -0.027 0.344 -0.145 0.422 c -0.082 0.055 -0.207 0.102 -0.281 0.102 c -0.074 0 -0.199 -0.047 -0.281 -0.102 m -2.141 -2.047 c -0.07 -0.078 -0.109 -0.23 -0.109 -0.438 c 0 -0.414 -0.125 -0.527 -0.578 -0.527 c -0.273 0 -0.355 -0.027 -0.438 -0.141 c -0.059 -0.078 -0.102 -0.199 -0.102 -0.273 c 0 -0.07 0.043 -0.195 0.102 -0.27 c 0.082 -0.117 0.164 -0.145 0.449 -0.145 c 0.449 0 0.566 -0.113 0.566 -0.551 c 0 -0.469 0.238 -0.629 0.684 -0.465 l 0.172 0.063 v 2.738 l -0.172 0.059 c -0.254 0.094 -0.453 0.078 -0.574 -0.051 m 4.527 0.051 l -0.395 -0.031 v -2.797 l 0.41 -0.031 c 0.461 -0.035 0.477 -0.023 0.477 0.418 c 0 0.391 0.16 0.535 0.586 0.535 c 0.375 0 0.531 0.141 0.531 0.477 c 0 0.336 -0.156 0.477 -0.531 0.477 c -0.434 0 -0.586 0.145 -0.586 0.555 c 0 0.168 -0.023 0.332 -0.051 0.367 c -0.027 0.035 -0.215 0.051 -0.441 0.031 m 8.301 -0.258 c -0.156 -0.09 -0.145 -0.23 0.023 -0.316 c 0.188 -0.098 0.391 0.074 0.281 0.238 c -0.09 0.137 -0.164 0.156 -0.305 0.078 m -1.402 -0.723 c -0.121 -0.121 -0.16 -0.223 -0.16 -0.449 c 0 -0.398 0.207 -0.602 0.605 -0.602 c 0.156 0 0.316 0.023 0.359 0.047 c 0.148 0.094 0.227 0.414 0.184 0.754 c -0.047 0.363 -0.105 0.402 -0.574 0.402 c -0.18 0.004 -0.297 -0.043 -0.414 -0.152 m -9.402 -0.066 c -0.355 -0.34 -0.105 -0.922 0.398 -0.922 c 0.32 0 0.559 0.23 0.559 0.539 c 0 0.156 -0.051 0.277 -0.16 0.383 c -0.113 0.109 -0.234 0.156 -0.398 0.156 c -0.164 0 -0.285 -0.047 -0.398 -0.156 m 5.336 -0.047 c -0.355 -0.309 -0.164 -0.813 0.305 -0.813 c 0.273 0.004 0.355 0.055 0.441 0.277 c 0.102 0.262 0.086 0.348 -0.09 0.52 c -0.203 0.195 -0.441 0.199 -0.656 0.016 m 1.75 -0.938 c -0.813 -0.035 -0.867 -0.063 -0.867 -0.43 c 0 -0.383 0.137 -0.441 1.023 -0.426 c 0.43 0.008 0.805 0.016 0.832 0.02 c 0.023 0.004 0.082 0.121 0.125 0.262 c 0.063 0.207 0.059 0.273 -0.027 0.402 c -0.133 0.199 -0.199 0.207 -1.086 0.172 m -8.168 -1.18 c -0.172 -0.438 0 -0.664 0.504 -0.664 c 0.43 0 0.551 -0.121 0.551 -0.559 c 0 -0.262 0.027 -0.344 0.145 -0.422 c 0.082 -0.055 0.207 -0.098 0.281 -0.098 c 0.074 0 0.199 0.043 0.281 0.098 c 0.121 0.082 0.145 0.16 0.145 0.434 c 0 0.434 0.121 0.547 0.57 0.547 c 0.488 0 0.656 0.23 0.484 0.664 l -0.063 0.16 h -2.836 m 9.445 -0.098 c -0.148 -0.145 -0.133 -0.508 0.031 -0.668 c 0.125 -0.117 0.188 -0.129 0.609 -0.094 c 0.258 0.023 0.57 0.012 0.688 -0.02 c 0.184 -0.055 0.238 -0.043 0.41 0.098 c 0.324 0.262 0.352 0.363 0.156 0.586 l -0.168 0.195 h -0.813 c -0.648 0 -0.832 -0.02 -0.914 -0.098"/></svg>