<svg xmlns="http://www.w3.org/2000/svg" viewBox="0 0 24 24"><path d="m 0.414 12.285 c -2.066 10.41 12.1 14.363 19.793 9.852 c 6.129 -3.594 4.379 -15.906 -3.898 -20.496 c -8.273 -4.586 -14.238 2.293 -15.895 10.645" fill="#dcdcdc"/><g stroke="#696969"><g fill="#696969"><path d="m 54 937.07 h 74.917 c 0.125 0 0.208 0.125 0.208 0.25 v 9.958 c 0 0.125 -0.083 0.25 -0.208 0.25 h -74.917 c -0.125 0 -0.25 -0.125 -0.25 -0.25 v -9.958 c 0 -0.125 0.125 -0.25 0.25 -0.25" transform="matrix(0.09375 0 0 0.09375 0 -74.66)" stroke-width="2.707"/><path d="m 848.11 -137.5 h 94.17 c 0.125 0 0.25 0.125 0.25 0.25 v 4.04 c 0 0.125 -0.125 0.25 -0.25 0.25 h -94.17 c -0.125 0 -0.25 -0.125 -0.25 -0.25 v -4.04 c 0 -0.125 0.125 -0.25 0.25 -0.25" transform="matrix(0 0.09375 -0.09375 0 0 -74.66)" stroke-width="1.995"/></g><path d="m 16.66 24.852 c 0 3.039 -2.288 5.498 -5.106 5.498 c -2.83 0 -5.118 -2.459 -5.118 -5.498 c 0 -3.03 2.288 -5.485 5.118 -5.485 c 2.818 0 5.106 2.459 5.106 5.485" transform="matrix(0.32439 0 0 0.30337 8.834 6.144)" fill="#a9a9a9" fill-rule="evenodd" stroke-width="0.362"/><g fill="#696969"><path d="m 54.21 974.99 h 104.17 c 0.125 0 0.208 0.083 0.208 0.25 v 9.5 c 0 0.125 -0.083 0.25 -0.208 0.25 h -104.17 c -0.125 0 -0.25 -0.125 -0.25 -0.25 v -9.5 c 0 -0.167 0.125 -0.25 0.25 -0.25" transform="matrix(0.09375 0 0 0.09375 0 -74.66)" stroke-width="3.125"/><path d="m 879.49 -169 h 94.21 c 0.125 0 0.208 0.125 0.208 0.25 v 4 c 0 0.167 -0.083 0.25 -0.208 0.25 h -94.21 c -0.125 0 -0.208 -0.083 -0.208 -0.25 v -4 c 0 -0.125 0.083 -0.25 0.208 -0.25" transform="matrix(0 0.09375 -0.09375 0 0 -74.66)" stroke-width="1.995"/></g><g fill="#a9a9a9" fill-rule="evenodd" stroke-width="0.362"><path d="m 16.657 24.853 c 0 3.039 -2.288 5.498 -5.106 5.498 c -2.818 0 -5.106 -2.459 -5.106 -5.498 c 0 -3.03 2.288 -5.485 5.106 -5.485 c 2.818 0 5.106 2.459 5.106 5.485" transform="matrix(0.32439 0 0 0.30337 11.929 9.574)"/><path d="m 16.655 24.856 c 0 3.039 -2.288 5.485 -5.106 5.485 c -2.818 0 -5.106 -2.446 -5.106 -5.485 c 0 -3.03 2.288 -5.485 5.106 -5.485 c 2.818 0 5.106 2.459 5.106 5.485" transform="matrix(0.32439 0 0 0.30337 5.566 2.334)"/><path d="m 16.657 24.864 c 0 3.03 -2.288 5.485 -5.106 5.485 c -2.818 0 -5.106 -2.459 -5.106 -5.485 c 0 -3.039 2.288 -5.498 5.106 -5.498 c 2.818 0 5.106 2.459 5.106 5.498" transform="matrix(0.32439 0 0 0.30337 11.858 0.395)"/></g></g></svg>