<svg xmlns="http://www.w3.org/2000/svg" viewBox="0 0 24 24"><path d="m 11.04 23.832 c 14.258 1.363 18.1 -21.625 3.457 -23.41 c -13.461 -2.211 -20.395 18.625 -7.02 22.793 c 1.129 0.457 2.367 0.449 3.562 0.617" fill="#d1b77d"/><path d="m 12.266 12 h 4.055 v 1.43 h -4.055" fill="#cfd7dc"/><g fill="#f00"><path d="m 11.566 5.16 c -0.309 0 -0.555 0.309 -0.555 0.691 v 6.914 c 0 0.383 0.246 0.691 0.555 0.691 h 1.113 c 0.309 0 0.555 -0.309 0.555 -0.691 v -6.914 c 0 -0.383 -0.246 -0.691 -0.555 -0.691"/><path d="m 9.898 6.594 c -2.59 0.883 -4.449 3.262 -4.449 6.05 c 0 3.547 2.992 6.426 6.672 6.426 c 3.684 0 6.672 -2.879 6.672 -6.426 c 0 -2.797 -1.855 -5.172 -4.445 -6.05 v 2.375 c 1.328 0.742 2.223 2.098 2.223 3.68 c 0 0.887 -0.281 1.711 -0.758 2.395 c -0.801 1.141 -2.156 1.891 -3.691 1.891 c -2.453 0 -4.445 -1.918 -4.445 -4.285 c 0 -1.582 0.895 -2.938 2.223 -3.68"/></g></svg>