<svg xmlns="http://www.w3.org/2000/svg" viewBox="0 0 24 24"><path d="m 17.473 21.68 c -20.01 11.887 -24.859 -26.03 -2.363 -21.01 c 9.285 2.141 12.922 15.555 2.363 21.01" fill="#213352"/><g fill="#fff"><path d="m 10.859 18.625 c -0.176 -0.168 -0.223 -0.391 -0.219 -0.961 c 0.008 -0.41 0.047 -0.82 0.09 -0.91 c 0.047 -0.094 0.457 -0.16 1 -0.16 c 0.793 0 0.938 0.039 1.043 0.285 c 0.145 0.344 0.156 1.34 0.02 1.609 c -0.148 0.301 -1.652 0.406 -1.934 0.137"/><path d="m 10.816 15.512 c -0.07 -0.082 -0.16 -0.695 -0.207 -1.367 l -0.086 -1.215 l -1.145 -1.277 l -1.148 -1.273 v -1.797 c 0 -1.758 0.004 -1.797 0.289 -2.063 c 0.25 -0.23 0.457 -0.277 1.531 -0.344 c 1.805 -0.109 3.66 -0.094 4.117 0.039 c 0.215 0.063 0.52 0.23 0.668 0.371 c 0.258 0.242 0.273 0.332 0.273 1.813 v 1.555 l -0.32 0.125 c -0.336 0.129 -1.402 0.063 -1.563 -0.102 c -0.055 -0.051 -0.129 -0.629 -0.172 -1.285 l -0.078 -1.191 h -2.648 l 0.004 1.254 v 1.254 l 1.117 1.219 c 0.617 0.672 1.168 1.344 1.223 1.492 c 0.145 0.379 0.133 2.441 -0.016 2.715 c -0.102 0.191 -0.25 0.227 -0.918 0.227 c -0.508 0 -0.844 -0.055 -0.922 -0.148"/></g></svg>