<svg xmlns="http://www.w3.org/2000/svg" xmlns:xlink="http://www.w3.org/1999/xlink" viewBox="0 0 24 24"><defs><g id="3" clip-path="url(#2)"><path d="m 7.742 17.14 v 1.012 h 7.66 l 0.957 -1.012"/><path d="m 7.742 15.11 v 1.016 h 9.574 l 0.957 -1.016"/><path d="m 16.359 18.15 l 2.871 -3.043 v 3.043"/><path d="m 12.05 5.469 l -4.309 8.625 h 3.352 l 0.957 -2.805 l -1.914 -1.762 h 2.395 l 0.957 -3.043 l 0.957 3.043 h 2.512 l -2.035 -4.059 m 2.035 4.059 l -2.035 1.777 l 0.957 2.789 h 3.352 m -3.352 0 l -2.391 -1.824 l -2.395 1.824"/></g><clipPath id="2"><path d="M 0,0 H24 V24 H0 z"/></clipPath><filter id="0" filterUnits="objectBoundingBox" x="0" y="0" width="24" height="24"><feColorMatrix type="matrix" in="SourceGraphic" values="0 0 0 0 1 0 0 0 0 1 0 0 0 0 1 0 0 0 1 0"/></filter><mask id="1"><g filter="url(#0)"><path fill-opacity="0.102" d="M 0,0 H24 V24 H0 z"/></g></mask></defs><path d="m 23.961 9.469 c -0.129 -1.414 -0.484 -2.957 -0.949 -4.098 c -1.625 -3.98 -4.926 -5.836 -9.09 -5.109 c -2.242 0.387 -4.777 1.5 -7.461 3.27 c -3.199 2.113 -5.625 5.375 -6.238 8.398 c -0.133 0.641 -0.176 1.844 -0.098 2.488 c 0.273 2.152 1.438 3.945 3.633 5.59 c 2.102 1.574 4.238 2.738 6.23 3.398 c 4.09 1.352 7.738 0.531 10.379 -2.332 c 1.855 -2.01 3.039 -4.734 3.512 -8.08 c 0.07 -0.5 0.133 -3.01 0.086 -3.527" fill="#666"/><use xlink:href="#3" mask="url(#1)"/><g fill="#ffcd33"><path d="m 7.266 16.633 v 1.012 h 7.656 l 0.957 -1.012"/><path d="m 7.266 14.602 v 1.016 h 9.574 l 0.957 -1.016"/></g><path d="m 15.879 17.645 l 2.875 -3.043 v 3.043" fill="#b22828"/><path d="m 11.574 4.961 l -4.309 8.625 h 3.348 l 0.961 -2.805 l -1.918 -1.762 h 2.395 l 0.957 -3.043 l 0.957 3.043 h 2.516 l -2.035 -4.059 m 2.035 4.059 l -2.035 1.777 l 0.957 2.789 h 3.352 m -3.352 0 l -2.395 -1.82 l -2.395 1.82" fill="#ffcd33"/></svg>