<svg xmlns="http://www.w3.org/2000/svg" viewBox="0 0 24 24"><path d="m 2.09 6.348 c -6.457 8.621 3.875 19.15 12.199 17.324 c 8.195 -1.074 13.145 -13.535 6.805 -19.863 c -4.637 -4.559 -12.547 -6.082 -19 2.543" fill="#b29b90"/><path d="m 7.441 6.898 h 3.641 l 3.637 1.648 l -2.078 -1.648 h 4.16 l 0.52 0.547 v 11.539 l -1.559 0.551 v -1.098 l -2.602 0.547 l 0.52 -1.648 l -3.117 2.199 l -2.082 -0.551 l 1.039 -1.648 l -2.598 1.102 v -10.992" fill-opacity="0.102"/><path d="m 7.441 6.348 h 3.641 l 3.637 1.648 l -2.078 -1.648 h 4.16 l 0.52 0.551 v 11.539 l -1.559 0.547 v -1.098 l -2.602 0.551 l 0.52 -1.648 l -3.117 2.195 l -2.082 -0.547 l 1.039 -1.648 l -2.598 1.098 v -10.988" fill="#493833"/><path d="m 5.883 9.645 v 6.594 h 3.637 l 1.043 -1.098 v -4.398 l -1.043 -1.098 m 2.602 0 l -1.039 1.098 v 4.398 l 1.039 1.098 h 2.598 l 1.043 -1.098 v -4.398 l -1.043 -1.098 m 2.082 0 v 6.594 h 1.559 v -6.594 m -10.918 1.648 h 1.039 l 0.52 0.551 v 2.195 l -0.52 0.551 h -1.039 m 5.719 -3.297 h 0.52 l 0.52 0.551 v 2.195 l -0.52 0.551 h -0.52 l -0.52 -0.551 v -2.195" fill-opacity="0.102"/><path d="m 5.883 9.09 v 6.594 h 3.637 l 1.043 -1.098 v -4.395 l -1.043 -1.102 m 2.602 0 l -1.039 1.102 v 4.395 l 1.039 1.098 h 2.598 l 1.043 -1.098 v -4.395 l -1.043 -1.102 m 2.082 0 v 6.594 h 1.559 v -6.594 m -10.918 1.648 h 1.039 l 0.52 0.551 v 2.199 l -0.52 0.547 h -1.039 m 5.719 -3.297 h 0.52 l 0.52 0.551 v 2.199 l -0.52 0.547 h -0.52 l -0.52 -0.547 v -2.199" fill="#efefea"/></svg>