<svg xmlns="http://www.w3.org/2000/svg" xmlns:xlink="http://www.w3.org/1999/xlink" viewBox="0 0 24 24"><defs><g id="3" clip-path="url(#2)"><path d="m 7.715 6.93 v 8.555 l 2.41 2.516 h 5.301 l -2.41 -2.516 h -2.891 v -6.04 h 4.816 l -2.406 -2.516" fill="#0b0b0b" fill-rule="evenodd"/><path d="m 12.535 9.445 v 6.04 h -2.41 v -6.04" fill="#0b0b0b" fill-rule="evenodd"/><path d="m 12.535 6.93 h 1.926 l 2.41 2.516 h -1.93" fill="#0b0b0b" fill-rule="evenodd"/><path d="m 13.02 15.484 h 1.926 l 2.41 2.516 h -1.926" fill="#0b0b0b" fill-rule="evenodd"/></g><clipPath id="2"><path d="M 0,0 H24 V24 H0 z"/></clipPath><filter id="0" filterUnits="objectBoundingBox" x="0" y="0" width="24" height="24"><feColorMatrix type="matrix" in="SourceGraphic" values="0 0 0 0 1 0 0 0 0 1 0 0 0 0 1 0 0 0 1 0"/></filter><mask id="1"><g filter="url(#0)"><path fill-opacity="0.102" d="M 0,0 H24 V24 H0 z"/></g></mask></defs><path d="m 21.527 18.359 c 8.629 -12.273 -7.309 -24.711 -17.473 -14.711 c -9.578 9.426 -0.699 24.07 11.219 19.488 c 2.488 -0.953 4.672 -2.523 6.254 -4.777" fill="#2f4e4e"/><use xlink:href="#3" mask="url(#1)"/><g fill-rule="evenodd"><path d="m 7.273 6.469 v 8.555 l 2.41 2.516 h 5.301 l -2.41 -2.516 h -2.891 v -6.04 h 4.816 l -2.406 -2.516" fill="#ec0000"/><g fill="#900"><path d="m 12.09 8.984 v 6.04 h -2.41 v -6.04"/><path d="m 12.09 6.469 h 1.926 l 2.41 2.516 h -1.93"/><path d="m 12.574 15.02 h 1.926 l 2.41 2.516 h -1.926"/></g></g></svg>