<svg xmlns="http://www.w3.org/2000/svg" viewBox="0 0 24 24"><path d="m 18.992 22.586 c -35.75 10.426 -12.961 -41.09 3.035 -15.246 c 2.922 4.746 3.125 12.805 -3.035 15.246" fill="#ffbe28"/><path d="m 11.609 5.191 h 0.855 c 0.391 0 0.711 0.316 0.711 0.711 v 8.727 c 0 0.395 -0.32 0.711 -0.711 0.711 h -0.855 c -0.395 0 -0.711 -0.316 -0.711 -0.711 v -8.727 c 0 -0.395 0.316 -0.711 0.711 -0.711" fill="#ffd600"/><g fill="#93edff"><path d="m 11.234 16.336 h 4.09 c 0.391 0 0.711 0.316 0.711 0.711 v 1.766 c 0 0.395 -0.32 0.711 -0.711 0.711 h -4.09 c -0.391 0 -0.711 -0.316 -0.711 -0.711 v -1.766 c 0 -0.395 0.32 -0.711 0.711 -0.711"/><path d="m 16.324 19.1 c -0.145 -0.59 -0.117 -2.027 0.113 -2.555 c 0.109 -0.23 0.188 -0.195 0.668 0.293 c 0.477 0.48 0.633 0.566 0.895 0.488 c 0.074 -0.02 0.34 -0.238 0.594 -0.488 c 0.477 -0.461 0.617 -0.535 0.703 -0.363 c 0.066 0.125 0.168 2.586 0.086 2.719 c -0.578 0.344 -2.438 0.496 -3.059 -0.098"/><path d="m 5.18 19.477 c -0.293 -0.68 -0.418 -2.586 0.055 -3.051 c 1.141 0.078 5.285 -0.496 5 0.398 c 0.055 0.473 -0.957 0.223 -0.953 1.055 c 0.008 0.992 0.039 1.281 -0.039 1.438 c -0.473 0.488 -3.273 0.191 -4.063 0.16"/></g><g fill="#ffd600"><path d="m 5.477 14.961 c -0.113 -0.109 -0.137 -0.262 -0.113 -0.734 c 0.043 -0.781 0.121 -0.867 0.793 -0.867 c 0.469 0 0.633 -0.211 0.75 -0.387 c 1.656 -1.121 1.332 -1.914 1.895 -2.867 l 0.488 -0.402 l 0.043 -2.01 c 0.031 -1.535 -0.078 -2.086 0.012 -2.191 c 0.137 -0.164 0.613 -0.156 0.734 -0.012 c 0.102 0.121 0.109 5.172 0.027 5.668 c -0.043 0.262 0.145 0.391 -0.082 0.496 c 0.109 1.41 -1.52 2.863 -2.293 2.949 c -0.145 0 -0.32 0.094 -0.473 0.25 c -0.234 0.238 -0.277 0.25 -0.941 0.25 c -0.539 0 -0.73 -0.035 -0.84 -0.141"/><path d="m 16.258 14.707 c -0.336 0 -1.211 -1.09 -1.211 -1.461 c -0.824 -0.48 -0.598 -1.57 -0.68 -1.605 c -0.383 -0.121 -0.297 -0.219 -0.297 -1.383 c 0 -2.422 -0.164 -4.719 -0.043 -4.84 c 0.148 -0.148 0.645 -0.086 0.793 0.063 c 0.219 0.219 -0.016 0.59 0.016 2.203 l 0.043 2.043 l 0.445 0.285 c 0.5 0.473 0.027 1.07 0.406 1.566 c 0.258 0.578 0.574 1.102 1.211 1.246 c 0.441 0.207 0.793 0.473 1.148 0.473 c 0.676 0 0.746 0.176 0.746 1 c 0.027 0.777 -0.234 0.984 -1.102 0.797 c -0.711 0.27 -0.949 -0.375 -1.477 -0.391"/></g><path d="m 4.43 19.13 v -0.637 l 0.164 -0.039 c 0.227 -0.059 0.313 -0.141 0.313 -0.301 c 0 -0.145 -0.199 -0.316 -0.371 -0.316 c -0.094 0 -0.105 -0.066 -0.105 -0.645 c 0 -0.605 0.008 -0.641 0.121 -0.641 c 0.066 0 0.238 -0.105 0.379 -0.238 l 0.262 -0.234 l 5.949 -0.004 l 5.945 -0.004 l 0.258 0.246 c 0.352 0.336 0.598 0.34 0.945 0.008 l 0.246 -0.234 l 1.164 -0.039 v 3.715 h -9.492 l 0.016 -1.047 c 0.016 -1.125 -0.008 -1.234 -0.273 -1.234 c -0.27 0 -0.293 0.109 -0.277 1.234 l 0.016 1.047 h -5.258 m 2.01 -0.535 l 0.613 -0.008 l 0.328 -0.34 c 0.379 -0.387 0.406 -0.523 0.164 -0.828 c -0.09 -0.113 -0.211 -0.289 -0.266 -0.391 c -0.094 -0.164 -0.129 -0.18 -0.402 -0.18 c -0.223 0 -0.332 -0.031 -0.422 -0.117 c -0.152 -0.152 -0.148 -0.211 0.027 -0.324 c 0.199 -0.129 1.551 -0.074 1.711 0.066 c 0.113 0.102 0.176 0.547 0.191 1.406 c 0.012 0.605 0.07 0.723 0.367 0.723 c 0.289 0 0.355 -0.121 0.363 -0.668 c 0.008 -0.73 0.09 -1.336 0.191 -1.449 c 0.063 -0.07 0.176 -0.105 0.367 -0.105 c 0.152 0 0.309 -0.031 0.348 -0.07 c 0.094 -0.09 0.094 -0.309 -0.004 -0.383 c -0.043 -0.035 -0.887 -0.055 -2.191 -0.051 l -2.121 0.008 l -0.371 0.316 c -0.203 0.172 -0.367 0.344 -0.367 0.379 c 0 0.035 0.152 0.215 0.34 0.395 c 0.324 0.309 0.367 0.332 0.684 0.355 c 0.188 0.016 0.383 0.059 0.434 0.102 c 0.094 0.078 0.125 0.434 0.055 0.613 c -0.074 0.188 -0.363 0.277 -0.84 0.258 c -0.367 -0.016 -0.461 0 -0.512 0.078 c -0.047 0.074 -0.043 0.121 0.016 0.195 c 0.066 0.078 0.145 0.09 0.387 0.063 c 0.164 -0.02 0.574 -0.039 0.91 -0.043 m 6.418 -0.059 c 0.047 -0.07 0.039 -0.125 -0.02 -0.191 c -0.066 -0.082 -0.148 -0.09 -0.484 -0.059 c -0.652 0.063 -0.887 -0.082 -0.887 -0.547 c 0 -0.332 0.102 -0.391 0.711 -0.402 c 0.281 -0.004 0.559 -0.012 0.613 -0.016 c 0.176 -0.008 0.25 -0.223 0.133 -0.398 c -0.098 -0.145 -0.113 -0.148 -0.539 -0.113 c -0.477 0.039 -0.699 -0.012 -0.766 -0.172 c -0.074 -0.199 0.113 -0.285 0.691 -0.316 c 0.434 -0.023 0.559 -0.051 0.609 -0.129 c 0.047 -0.078 0.047 -0.133 0 -0.207 c -0.059 -0.09 -0.168 -0.102 -1.043 -0.086 c -0.77 0.012 -0.992 0.031 -1.063 0.102 c -0.145 0.141 -0.191 0.871 -0.082 1.285 c 0.063 0.242 0.078 0.473 0.051 0.734 c -0.055 0.539 -0.016 0.563 0.887 0.574 c 0.395 0.008 0.727 0.027 0.746 0.043 c 0.063 0.063 0.383 -0.008 0.441 -0.102 m 2.863 0 c 0.047 -0.07 0.039 -0.125 -0.02 -0.191 c -0.066 -0.082 -0.148 -0.09 -0.488 -0.059 c -0.648 0.063 -0.883 -0.082 -0.883 -0.547 c 0 -0.332 0.102 -0.391 0.707 -0.402 c 0.285 -0.004 0.559 -0.012 0.617 -0.016 c 0.176 -0.008 0.25 -0.223 0.133 -0.398 c -0.098 -0.145 -0.117 -0.148 -0.539 -0.113 c -0.477 0.039 -0.703 -0.012 -0.766 -0.172 c -0.078 -0.199 0.113 -0.285 0.691 -0.316 c 0.434 -0.023 0.559 -0.051 0.609 -0.129 c 0.047 -0.078 0.047 -0.133 0 -0.207 c -0.063 -0.09 -0.172 -0.102 -1.043 -0.086 c -1.246 0.016 -1.219 -0.008 -1.156 0.891 c 0.023 0.336 0.047 0.84 0.051 1.117 c 0.008 0.293 0.039 0.543 0.082 0.59 c 0.055 0.063 0.25 0.086 0.801 0.098 c 0.398 0.004 0.742 0.023 0.758 0.043 c 0.066 0.063 0.387 -0.008 0.445 -0.102 m 1.422 -0.027 c 0.063 -0.059 0.109 -0.18 0.109 -0.293 c 0 -0.16 -0.039 -0.219 -0.211 -0.328 c -0.273 -0.172 -0.332 -0.379 -0.152 -0.523 c 0.188 -0.148 0.254 -0.137 0.539 0.098 c 0.141 0.113 0.313 0.207 0.391 0.207 c 0.074 0 0.25 -0.094 0.387 -0.207 c 0.285 -0.234 0.352 -0.246 0.539 -0.098 c 0.18 0.145 0.121 0.352 -0.152 0.523 c -0.164 0.105 -0.207 0.168 -0.207 0.316 c 0 0.246 0.148 0.398 0.387 0.398 c 0.266 0 0.387 -0.148 0.375 -0.469 c -0.008 -0.145 0.02 -0.648 0.059 -1.125 c 0.035 -0.477 0.051 -0.902 0.035 -0.949 c -0.02 -0.047 -0.086 -0.102 -0.152 -0.121 c -0.098 -0.031 -0.215 0.059 -0.578 0.438 c -0.422 0.438 -0.473 0.473 -0.691 0.473 c -0.223 0 -0.273 -0.035 -0.703 -0.48 c -0.387 -0.402 -0.48 -0.473 -0.563 -0.422 c -0.164 0.102 -0.18 0.301 -0.102 1.277 c 0.039 0.512 0.059 0.965 0.043 1.01 c -0.02 0.043 0.012 0.148 0.066 0.227 c 0.113 0.176 0.41 0.199 0.582 0.051 m 0.066 -3.578 c -0.074 -0.012 -0.215 -0.117 -0.316 -0.234 c -0.156 -0.188 -0.211 -0.215 -0.449 -0.215 c -0.27 -0.004 -0.281 -0.008 -1.137 -0.848 c -0.82 -0.805 -0.859 -0.852 -0.824 -1.031 c 0.031 -0.164 0.004 -0.227 -0.207 -0.449 c -0.219 -0.234 -0.246 -0.293 -0.246 -0.559 c 0 -0.238 -0.023 -0.313 -0.117 -0.363 c -0.086 -0.043 -0.156 -0.043 -0.238 0 c -0.191 0.102 -0.25 0.27 -0.207 0.633 c 0.02 0.184 0.039 0.895 0.047 1.582 l 0.012 1.254 l -0.145 0.109 c -0.129 0.098 -0.258 0.109 -1.289 0.109 c -1.031 0 -1.16 -0.012 -1.289 -0.109 l -0.141 -0.109 l 0.008 -1.254 c 0.008 -0.688 0.027 -1.398 0.051 -1.582 c 0.039 -0.363 -0.016 -0.531 -0.211 -0.633 c -0.082 -0.043 -0.152 -0.043 -0.234 0 c -0.098 0.051 -0.121 0.125 -0.121 0.363 c 0 0.266 -0.023 0.324 -0.246 0.559 c -0.211 0.223 -0.238 0.285 -0.207 0.449 c 0.035 0.18 0 0.227 -0.824 1.031 c -0.855 0.84 -0.863 0.844 -1.133 0.848 c -0.242 0 -0.297 0.027 -0.457 0.219 l -0.184 0.219 h -0.941 c -1.32 0 -1.227 0.105 -1.223 -1.406 c 0.008 -1.488 -0.043 -1.414 0.953 -1.363 l 0.684 0.039 l 0.25 -0.258 c 0.227 -0.234 0.277 -0.258 0.547 -0.266 c 0.363 -0.004 0.48 -0.125 0.43 -0.445 c -0.031 -0.195 -0.012 -0.238 0.242 -0.48 l 0.273 -0.27 l -0.039 -0.438 c -0.043 -0.426 -0.039 -0.441 0.117 -0.57 c 0.426 -0.348 0.387 -0.066 0.387 -2.82 v -2.488 h 6.617 v 4.98 l 0.156 0.129 c 0.406 0.332 0.395 0.305 0.352 0.773 l -0.043 0.434 l 0.277 0.27 c 0.25 0.242 0.27 0.285 0.238 0.48 c -0.051 0.32 0.066 0.441 0.434 0.445 c 0.266 0.008 0.316 0.031 0.543 0.266 l 0.25 0.258 l 0.691 -0.039 c 0.992 -0.051 0.949 -0.113 0.945 1.391 c -0.004 1.457 0.066 1.363 -1.098 1.395 c -0.445 0.012 -0.867 0.012 -0.938 0 m -9.855 -0.715 c 0.215 -0.23 0.25 -0.246 0.445 -0.211 c 0.238 0.043 0.211 0.063 0.988 -0.797 c 0.379 -0.426 0.402 -0.465 0.371 -0.668 c -0.035 -0.195 -0.016 -0.234 0.215 -0.441 l 0.246 -0.227 l -0.039 -0.367 l -0.035 -0.371 l 0.242 -0.094 c 0.422 -0.16 0.441 -0.273 0.367 -2.09 c -0.031 -0.855 -0.066 -2.105 -0.074 -2.781 c -0.012 -1.086 -0.023 -1.238 -0.117 -1.328 c -0.141 -0.137 -0.375 -0.133 -0.52 0.008 c -0.109 0.102 -0.117 0.207 -0.117 1.332 c -0.004 0.668 -0.02 1.598 -0.043 2.062 l -0.035 0.852 l -0.266 0.242 l -0.266 0.246 l 0.012 0.598 c 0.008 0.586 0.004 0.602 -0.148 0.711 c -0.125 0.09 -0.156 0.16 -0.156 0.363 c 0 0.223 -0.023 0.27 -0.223 0.414 c -0.125 0.09 -0.301 0.254 -0.391 0.359 c -0.148 0.172 -0.207 0.195 -0.461 0.195 c -0.266 0 -0.301 0.016 -0.48 0.238 l -0.195 0.242 l -0.48 -0.027 c -0.438 -0.023 -0.488 -0.016 -0.613 0.109 c -0.113 0.113 -0.137 0.195 -0.137 0.508 c 0 0.207 -0.02 0.496 -0.039 0.641 c -0.031 0.23 -0.016 0.289 0.105 0.406 c 0.137 0.133 0.18 0.141 0.875 0.137 l 0.734 -0.008 m 5.852 -0.141 c 0.094 -0.117 0.109 -0.195 0.078 -0.422 c -0.02 -0.152 -0.063 -0.734 -0.09 -1.289 c -0.031 -0.555 -0.074 -1.156 -0.094 -1.332 c -0.035 -0.266 -0.02 -0.363 0.086 -0.563 c 0.125 -0.238 0.129 -0.262 0.066 -1.754 c -0.031 -0.832 -0.066 -2.078 -0.074 -2.766 c -0.008 -0.813 -0.035 -1.277 -0.078 -1.336 c -0.102 -0.133 -1.445 -0.133 -1.547 0 c -0.043 0.059 -0.07 0.523 -0.078 1.336 c -0.008 0.688 -0.043 1.934 -0.074 2.766 c -0.063 1.492 -0.063 1.516 0.066 1.754 c 0.105 0.199 0.121 0.297 0.086 0.563 c -0.02 0.176 -0.063 0.777 -0.094 1.332 c -0.027 0.555 -0.07 1.141 -0.094 1.297 c -0.031 0.254 -0.02 0.305 0.105 0.426 c 0.133 0.133 0.176 0.141 0.879 0.137 c 0.707 -0.008 0.742 -0.016 0.855 -0.148 m 5.727 -0.004 c 0.094 -0.113 0.109 -0.195 0.082 -0.398 c -0.023 -0.141 -0.039 -0.426 -0.039 -0.633 c 0 -0.313 -0.02 -0.395 -0.137 -0.508 c -0.125 -0.125 -0.176 -0.133 -0.613 -0.109 l -0.48 0.027 l -0.195 -0.242 c -0.18 -0.223 -0.215 -0.238 -0.48 -0.238 c -0.254 0 -0.313 -0.023 -0.457 -0.195 c -0.094 -0.105 -0.27 -0.27 -0.395 -0.359 c -0.195 -0.145 -0.223 -0.191 -0.223 -0.414 c 0 -0.203 -0.031 -0.273 -0.156 -0.363 c -0.152 -0.109 -0.156 -0.125 -0.148 -0.711 l 0.012 -0.598 l -0.266 -0.246 l -0.266 -0.242 l -0.035 -0.852 c -0.02 -0.465 -0.039 -1.395 -0.039 -2.062 c -0.004 -1.125 -0.012 -1.23 -0.121 -1.332 c -0.145 -0.141 -0.379 -0.145 -0.52 -0.008 c -0.094 0.09 -0.105 0.242 -0.117 1.328 c -0.008 0.676 -0.043 1.926 -0.074 2.781 c -0.074 1.816 -0.055 1.93 0.367 2.09 l 0.242 0.094 l -0.035 0.371 l -0.039 0.367 l 0.25 0.227 c 0.227 0.207 0.246 0.246 0.211 0.441 c -0.031 0.203 -0.008 0.242 0.371 0.668 c 0.773 0.859 0.75 0.84 0.984 0.797 c 0.188 -0.035 0.23 -0.016 0.465 0.219 l 0.258 0.258 l 0.734 -0.004 c 0.707 -0.008 0.746 -0.016 0.859 -0.152" fill="#141311"/></svg>