<svg xmlns="http://www.w3.org/2000/svg" viewBox="0 0 24 24"><path d="m 0.352 14.496 c 1.859 12.363 20.363 12.734 23.16 0.715 c 2.879 -9.73 -7.547 -17.684 -15.34 -14.496 c -5.223 1.504 -9.438 7.672 -7.82 13.781" fill="#ffa400"/><g fill="#fff"><path d="m 13.195 18.09 c 0.352 -0.238 0.348 -0.199 0.328 -4.086 c -0.016 -3.488 -0.02 -3.555 -0.145 -3.813 c -0.07 -0.145 -0.25 -0.387 -0.402 -0.543 l -0.273 -0.281 v -0.469 c -0.004 -0.703 -0.273 -1.227 -0.734 -1.414 c -0.227 -0.098 -4.793 -0.098 -5.02 0 c -0.461 0.188 -0.73 0.711 -0.73 1.414 l -0.004 0.469 l -0.273 0.281 c -0.148 0.156 -0.332 0.398 -0.402 0.543 c -0.125 0.258 -0.129 0.324 -0.145 3.813 c -0.02 3.902 -0.023 3.852 0.34 4.09 c 0.156 0.102 0.48 0.109 3.738 0.109 c 3.25 -0.004 3.578 -0.012 3.727 -0.113 m -7.03 -0.582 l -0.133 -0.039 v -3.41 c 0 -3.285 0.004 -3.414 0.117 -3.621 c 0.066 -0.117 0.207 -0.27 0.313 -0.344 c 0.188 -0.125 0.305 -0.129 2.992 -0.129 c 2.688 0 2.809 0.004 2.992 0.129 c 0.109 0.074 0.25 0.227 0.313 0.344 c 0.117 0.207 0.121 0.336 0.121 3.625 c 0 3.195 -0.008 3.414 -0.105 3.441 c -0.156 0.047 -6.457 0.051 -6.609 0.004 m 3.398 -1.379 c 0.074 -0.137 0.211 -0.383 0.301 -0.551 c 0.09 -0.168 0.219 -0.32 0.293 -0.34 c 0.07 -0.023 0.363 -0.043 0.648 -0.043 h 0.516 l 0.395 -0.711 c 0.215 -0.395 0.391 -0.73 0.391 -0.746 c 0 -0.02 -0.18 -0.363 -0.395 -0.762 l -0.398 -0.723 l -0.543 -0.004 c -0.297 -0.004 -0.59 -0.027 -0.648 -0.051 c -0.055 -0.027 -0.23 -0.281 -0.391 -0.57 l -0.285 -0.52 h -1.652 l -0.375 0.688 c -0.207 0.375 -0.375 0.73 -0.375 0.781 c 0 0.055 0.121 0.32 0.266 0.59 c 0.148 0.27 0.27 0.52 0.27 0.555 c 0 0.039 -0.121 0.289 -0.27 0.559 c -0.145 0.27 -0.262 0.547 -0.262 0.621 c 0 0.07 0.168 0.426 0.371 0.785 l 0.371 0.652 l 0.816 0.02 l 0.816 0.016 m -1.355 -0.902 c -0.063 -0.098 -0.16 -0.277 -0.215 -0.398 c -0.102 -0.215 -0.102 -0.219 0.098 -0.586 l 0.199 -0.371 l 0.906 -0.039 l 0.184 0.332 c 0.23 0.406 0.23 0.539 0.008 0.934 l -0.18 0.309 h -0.441 c -0.414 0 -0.449 -0.012 -0.559 -0.18 m 1.934 -1.09 c -0.07 -0.086 -0.184 -0.266 -0.246 -0.398 l -0.117 -0.238 l 0.172 -0.359 c 0.184 -0.387 0.316 -0.48 0.676 -0.48 c 0.371 0.004 0.48 0.066 0.664 0.402 c 0.219 0.391 0.223 0.445 0.027 0.793 c -0.219 0.391 -0.301 0.441 -0.695 0.441 c -0.289 0 -0.367 -0.027 -0.48 -0.16 m -2.055 -1.426 l -0.203 -0.379 l 0.406 -0.75 l 0.914 -0.039 l 0.18 0.313 c 0.098 0.172 0.18 0.387 0.18 0.477 c 0 0.09 -0.082 0.305 -0.18 0.48 l -0.18 0.313 l -0.914 -0.039 m -1.273 -4.469 c -0.023 -0.434 0.086 -0.633 0.391 -0.727 c 0.297 -0.09 4.078 -0.09 4.375 0 c 0.121 0.035 0.262 0.133 0.313 0.211 c 0.09 0.141 0.129 0.77 0.051 0.855 c -0.023 0.023 -1.18 0.035 -2.574 0.027 l -2.535 -0.02"/><path d="m 17.637 10.883 c 0.234 0 0.43 -0.277 1.172 -1.641 c 0.637 -1.172 0.711 -1.422 0.469 -1.59 c -0.074 -0.051 -0.273 -0.082 -0.445 -0.07 l -0.305 0.023 l -0.098 -0.215 c -0.121 -0.273 -0.324 -0.371 -0.633 -0.309 l -0.246 0.051 l -0.102 -0.219 c -0.125 -0.281 -0.324 -0.379 -0.637 -0.313 l -0.246 0.051 l -0.117 -0.23 c -0.148 -0.289 -0.336 -0.383 -0.594 -0.297 c -0.16 0.051 -0.254 0.156 -0.43 0.477 c -0.121 0.223 -0.262 0.43 -0.309 0.457 c -0.063 0.035 -0.953 -0.355 -2.938 -1.289 c -2.691 -1.262 -2.855 -1.332 -3.047 -1.273 c -0.184 0.059 -0.199 0.082 -0.195 0.293 l 0.004 0.227 l 2.801 1.414 c 1.539 0.777 2.824 1.457 2.852 1.508 c 0.035 0.059 -0.035 0.254 -0.191 0.543 c -0.277 0.508 -0.27 0.699 0.035 0.848 c 0.105 0.051 0.305 0.082 0.445 0.074 c 0.246 -0.016 0.266 -0.008 0.324 0.16 c 0.082 0.219 0.355 0.355 0.676 0.332 c 0.23 -0.02 0.25 -0.008 0.309 0.152 c 0.082 0.215 0.359 0.355 0.668 0.332 c 0.23 -0.02 0.25 -0.008 0.348 0.211 c 0.113 0.25 0.168 0.289 0.43 0.293"/><path d="m 18.41 17.211 c 0.285 -0.207 0.621 -0.758 0.672 -1.102 c 0.07 -0.445 -0.059 -1.082 -0.395 -2 c -0.43 -1.156 -0.891 -2.238 -0.953 -2.234 c -0.066 0.004 -0.723 1.816 -0.996 2.742 c -0.223 0.762 -0.289 1.254 -0.219 1.629 c 0.066 0.34 0.422 0.855 0.711 1.027 c 0.328 0.195 0.863 0.168 1.184 -0.063"/></g></svg>