<svg xmlns="http://www.w3.org/2000/svg" viewBox="0 0 24 24"><path d="m 23.809 6.961 c 2.387 34.512 -43.652 8.645 -13.34 -6.02 c 4.672 -2.02 11.637 -0.543 13.34 6.02" fill="#02030d"/><g stroke="#f90000"><g fill="#f90000"><g stroke-width="0.02"><path d="m 158.92 114 c -0.583 -0.208 -11.292 0.042 -14.708 -0.625 c -7.458 -1.458 -2.792 -6.25 -2.083 -9.25 c 1.833 -8.167 5.208 -15.5 18.667 -25.542 c 8.958 -6.667 11 -6.583 15.625 0.5 c 2.417 3.833 2.542 3.5 9.333 8.75 l -3.833 5.25 c -4.708 6.5 -19.708 21.458 -20.833 21.375 c -0.583 -0.042 -1.583 -0.25 -2.167 -0.458 m 6.04 -13.208 c 1.708 -1 3.625 -3.167 4.333 -4.833 c 2.375 -5.75 -1.417 -6.958 -7.958 -2.542 c -4.375 3 -5.25 6.25 -2.125 8.04 c 2.417 1.417 2.125 1.458 5.75 -0.667" transform="scale(0.09375)"/><path d="m 192.93 78.54 c -6.125 -6.333 -10.125 -11.333 -9.917 -12.375 c 0.583 -3.083 10.875 -4.958 17.375 -1.708 c 8.583 4.25 16.25 19.13 13.208 22.17 c -0.542 0.542 -3.083 1.292 -5.708 1.708 l -6.417 1.792" transform="matrix(0.09375 0 0 0.09375 -0.814 0.203)"/><path d="m 149.67 190.75 c -10.625 -10.833 -14.08 -16.625 -14.25 -24.08 c -0.083 -4.125 -1.208 -7.125 0.375 -9.208 c 2 -2.667 5.5 -2.542 11.917 -2.75 c 13.958 -0.458 12.375 3.083 15 9.208 c 1.125 2.583 4.25 8.04 6.958 12.08 c 4.75 7.04 6.208 8.08 4.375 10.208 c -4.458 5.417 -4.875 4.04 -9.667 8.542 c -1.667 2.417 -3.833 4.417 -4.75 4.417 c -0.958 0 -5.458 -3.792 -9.958 -8.417 m 10.125 -12.292 c 0.875 -3.292 -1.208 -8.208 -4.292 -10.208 c -7.25 -4.792 -7.75 5.292 -0.542 11.125 c 2.417 1.958 4.167 1.667 4.833 -0.917" transform="scale(0.09375)"/><path d="m 172.97 204.87 c -2.25 -2.292 -0.667 -5.958 3.75 -8.792 c 2.542 -1.583 7.458 -5.25 10.917 -8.125 c 3.458 -2.917 7.167 -5.25 8.25 -5.25 c 3.792 0 8.708 2.375 9.417 4.542 c 0.875 2.792 -3.917 12.667 -11.292 16.708 c -5.208 2.792 -19.458 2.542 -21.04 0.917" transform="matrix(0.09375 0 0 0.09375 -0.814 0.203)"/></g><g transform="matrix(0.09375 0 0 0.09375 -0.814 0.203)"><path d="m 120.72 166.83 c -8.917 -0.917 -11.542 -2.708 -11.08 -7.5 c -0.333 -5.458 9.833 -3.25 14.333 -3.5 c 9.75 -0.5 14.417 -0.375 15.208 0.458 c 1.458 3.875 0.833 6.875 0.625 11.125 l -5.583 0.125 c -3.042 0.083 -9.125 -0.208 -13.5 -0.708" stroke-width="0.017"/><path d="m 126.72 97.75 c -6.292 0.292 -7.583 0.042 -9.417 -2.083 c -2.417 -2.667 -3.208 -5.833 -1.792 -7.167 c 2.333 -2.25 29 -1.833 32.21 0.5 c 1.333 1 1.417 3.375 0.333 9 c -4.667 2.667 -14.292 -0.542 -21.333 -0.25" stroke-width="0.018"/></g></g><g fill="#ff7f4f" transform="matrix(0.09375 0 0 0.09375 -0.814 0.203)"><path d="m 194.3 158.16 c -3.167 -2.375 -8.667 -2.458 -10.458 -0.208 c -1.167 1.417 -1.625 1.458 -3.125 0.375 c -2.125 -1.625 -2.375 -11.167 -0.333 -14.792 c 1.583 -2.875 5.792 -3.75 7.625 -1.625 c 1.958 2.333 6.625 3 8.25 1.208 c 2.375 -2.583 4.333 -1.75 6.833 2.917 l 2.417 4.458 l -2.167 3.542 c -1.167 1.917 -3.083 4.083 -4.292 4.75 c -1.833 1.083 -2.542 0.958 -4.75 -0.625" stroke-width="0.019"/><path d="m 195.47 128.71 c -2.417 -2.125 -2.5 -2.125 -5.875 -0.458 c -3.292 1.667 -3.458 1.667 -5.5 -0.125 c -3.833 -3.375 -1.792 -16.292 2.542 -16.292 c 1.167 0 2.125 0.417 2.125 0.958 c 0 2.125 5.75 3 9.958 1.583 c 4.583 -1.625 5.208 -1.25 7.917 4.417 c 1.458 3.125 1.5 3.833 0.083 6.208 c -1.5 2.542 -6 5.833 -7.917 5.833 c -0.5 0 -2 -0.958 -3.333 -2.125" stroke-width="0.018"/></g><g stroke-width="0.02"><path d="m 234 173.08 c -20 -6.708 -24.17 -10.25 -27.75 -23.542 c -2.875 -10.708 -2.917 -10.417 0.5 -18.792 c 4.708 -11.542 6.792 -15 10.292 -16.792 c 4 -2.083 19.417 -5.458 29.625 -6.458 l 7.5 -0.75 l -0.667 13.917 c -0.708 15.04 -3.708 34.417 -7.208 47.04 c -1.167 4.333 -2.333 8.04 -2.5 8.208 c -0.167 0.208 -4.583 -1.083 -9.792 -2.833" transform="scale(0.09375)" fill="#6767c3"/><path d="m 140.47 147.46 c -28.958 -4.458 -38.958 -5.792 -48.583 -6.458 c -9.458 -0.625 -11.08 -1.042 -14.667 -3.833 c -2.208 -1.708 -6.292 -4.833 -9.04 -6.917 c -8.833 -6.667 -8.375 -8.167 4.292 -14.375 c 10.917 -5.333 14.75 -5.625 36 -2.875 c 29.667 -1 38.958 2.292 64.75 2.917 c 3.542 11.542 2.208 21.833 -0.25 32.792 l -11.375 0.167 c -6.25 0.042 -15.75 -0.583 -21.12 -1.417" transform="matrix(0.09375 0 0 0.09375 -0.814 0.203)" fill="#f90000"/></g></g><path d="m 105.35 106.88 l 16.336 -0.001 c 3.276 0.007 5.965 2.683 5.979 5.945 l -0.032 1.887 c 0.014 3.263 -2.672 5.944 -5.949 5.937 l -16.336 0.001 c -3.276 -0.007 -5.961 -2.641 -5.979 -5.945 l 0.032 -1.887 c -0.014 -3.263 2.672 -5.944 5.949 -5.937" transform="matrix(0.09301 0.01172 -0.00879 0.09334 -0.814 0.203)" fill="#ff0" stroke="#ff0" stroke-width="0.019"/><g fill="#04d01a" transform="matrix(0.09375 0 0 0.09375 -0.814 0.203)"><path d="m 94.8 95.04 c -6.333 -4.417 2.292 -8.875 12.375 -6.417 c 4.875 1.208 5.083 3.708 0.625 6.667 c -4.417 2.875 -8.708 2.792 -13 -0.25" stroke="#04d01a" stroke-width="0.026"/><path d="m 92.3 165.41 c -5.04 -1.583 -6.375 -5.333 -2.625 -7.292 c 3.5 -1.833 11.375 -1.042 14.958 1.458 c 5 3.542 -4.833 8.208 -12.333 5.833" stroke="#00de19" stroke-width="0.024"/></g></svg>