<svg xmlns="http://www.w3.org/2000/svg" viewBox="0 0 24 24"><g fill="#0044a4"><path d="m 8.477 17.328 c -0.148 -0.129 -0.664 -0.922 -1.148 -1.766 c -0.484 -0.84 -0.98 -1.652 -1.102 -1.805 c -0.137 -0.172 -0.91 -0.582 -2.074 -1.098 c -2.094 -0.93 -2.375 -1.129 -2.316 -1.641 c 0.051 -0.469 0.262 -0.566 3.211 -1.473 c 1.348 -0.41 3.52 -1.078 4.832 -1.48 c 1.309 -0.402 2.523 -0.73 2.703 -0.73 c 0.367 0 0.719 0.289 0.719 0.598 c 0 0.117 -0.438 1.32 -0.973 2.68 c -0.531 1.359 -1.145 2.922 -1.359 3.473 c -0.73 1.863 -1.285 3.109 -1.469 3.297 c -0.254 0.254 -0.707 0.23 -1.023 -0.055"/><path d="m 5.03 21.695 c 17.883 11.887 28.895 -26.02 5.781 -21 c -9.555 2.137 -15.352 15.551 -5.781 21"/></g><path d="m 12.09 19.488 c -0.18 -0.18 -0.816 -1.293 -1.41 -2.469 c -0.594 -1.176 -1.203 -2.313 -1.348 -2.523 c -0.168 -0.242 -1.117 -0.813 -2.547 -1.535 c -2.566 -1.301 -2.914 -1.578 -2.844 -2.297 c 0.066 -0.656 0.324 -0.793 3.941 -2.059 c 1.652 -0.578 4.32 -1.508 5.926 -2.07 c 1.605 -0.563 3.098 -1.02 3.316 -1.02 c 0.453 0 0.883 0.402 0.883 0.832 c 0 0.16 -0.535 1.848 -1.191 3.75 c -0.656 1.902 -1.406 4.086 -1.672 4.855 c -0.891 2.605 -1.57 4.352 -1.801 4.609 c -0.313 0.355 -0.863 0.324 -1.254 -0.074" fill="#fff"/></svg>