<svg xmlns="http://www.w3.org/2000/svg" viewBox="0 0 24 24"><path d="m 0.352 14.566 c 1.859 12.27 20.363 12.637 23.16 0.711 c 2.879 -9.66 -7.547 -17.555 -15.34 -14.391 c -5.223 1.496 -9.438 7.613 -7.82 13.68" fill="#363636" fill-opacity="0.502"/><path d="m 17.887 12.254 c 0 3.094 -2.547 5.605 -5.695 5.605 c -3.145 0 -5.695 -2.512 -5.695 -5.605 c 0 -3.098 2.551 -5.609 5.695 -5.609 c 3.148 0 5.695 2.512 5.695 5.609" fill="#fff"/><path d="m 11.184 19.328 c -0.836 -0.102 -2.01 -0.512 -2.793 -0.984 c -0.855 -0.512 -1.93 -1.59 -2.438 -2.449 c -2.137 -3.617 -0.793 -8.168 2.977 -10.08 c 1.566 -0.793 3.668 -0.938 5.332 -0.367 c 1.871 0.641 3.277 1.887 4.156 3.684 c 0.629 1.285 0.848 2.48 0.699 3.832 c -0.371 3.437 -3.223 6.187 -6.641 6.402 c -0.367 0.02 -0.949 0.008 -1.293 -0.035 m 1.762 -5.617 v -3.344 h 2.27 v -1.574 h -6.184 v 1.574 h 2.191 v 6.687 h 1.723" fill="#353635"/><path d="m 11.07 22.301 c -1.754 -0.215 -3.438 -0.793 -4.652 -1.598 c -2 -1.328 -3.594 -3.555 -4.203 -5.883 c -0.152 -0.578 -0.352 -1.891 -0.355 -2.316 c 0 -0.082 0.25 -0.113 0.965 -0.113 h 0.965 l 0.055 0.734 c 0.07 0.969 0.332 1.855 0.805 2.773 c 1.348 2.594 3.863 4.297 6.645 4.492 l 0.754 0.055 l 0.027 0.957 l 0.023 0.957 l -0.379 -0.016 c -0.211 -0.004 -0.504 -0.027 -0.648 -0.043" fill="#68bc5c"/><path d="m 1.898 11.613 c 0.195 -2.023 0.797 -3.68 1.91 -5.254 c 0.91 -1.293 2.59 -2.703 3.742 -3.145 c 1.945 -0.75 2.832 -0.969 3.926 -0.969 h 0.613 v 1.844 l -0.734 0.051 c -2.059 0.152 -4.074 1.141 -5.469 2.688 c -1.219 1.348 -2.07 3.352 -2.074 4.875 v 0.512 h -1.973" fill="#3d6fb5"/><path d="m 20.277 11.719 c 0 -2.059 -1.355 -4.555 -3.25 -5.977 c -1.234 -0.926 -3.152 -1.625 -4.465 -1.625 h -0.387 v -1.871 h 0.539 c 0.934 0 1.992 0.27 3.824 0.969 c 1.148 0.441 2.828 1.852 3.742 3.145 c 1.113 1.574 1.715 3.23 1.91 5.254 l 0.059 0.602 h -1.973" fill="#f9b235"/><path d="m 12.266 21.434 c 0 -1.074 -0.086 -0.977 0.98 -1.078 c 0.719 -0.07 1.996 -0.488 2.754 -0.902 c 2.383 -1.305 4.063 -3.805 4.25 -6.328 l 0.055 -0.734 h 1.945 l -0.063 0.602 c -0.254 2.563 -1.242 4.695 -2.977 6.434 c -1.668 1.664 -3.777 2.625 -6.344 2.887 l -0.602 0.059" fill="#fb5443"/></svg>