<svg xmlns="http://www.w3.org/2000/svg" viewBox="0 0 24 24"><path d="m 18.242 22.14 c 20.875 -17.809 -22.05 -34.934 -17.637 -7.391 c 0.965 6.04 12.01 12.191 17.637 7.391" fill="#144680"/><path d="m 11.844 18.484 c -0.227 -0.273 -0.301 -0.563 -0.395 -1.551 c -0.039 -0.426 -0.051 -0.441 -0.254 -0.547 c -0.273 -0.137 -0.66 -0.367 -0.699 -0.578 c -0.035 -0.172 -0.262 -0.109 -0.621 -0.363 c -0.105 -0.07 -0.113 -0.137 -0.258 -0.297 c -0.234 -0.258 -0.102 -0.379 0.09 -0.211 c 0.387 0.34 0.531 0.363 2.211 0.363 c 1.68 -0.004 2.184 -0.07 2.668 -0.371 c 0.301 -0.184 0.379 -0.297 0.594 -0.859 c 0.223 -0.59 0.227 -1.234 0.008 -1.535 c -0.23 -0.438 -1.094 -0.648 -1.277 -0.941 c -0.25 -0.453 -0.305 0.453 -0.309 0.672 c 0 0.27 -0.418 0.371 -0.609 0.371 c -0.145 0 -0.145 -0.078 0.008 -0.492 l 0.121 -0.332 l -0.199 -0.211 c -0.148 -0.152 -0.344 -0.254 -0.723 -0.379 c -0.73 -0.238 -1.258 -0.523 -1.465 -1.109 c -0.266 -0.594 -0.191 0.098 -0.195 -0.797 c 0 -0.461 0.016 -0.563 0.098 -0.594 c 0.137 -0.055 0.199 0.066 0.199 0.379 c 0.004 0.352 0.195 0.98 0.395 1.281 c 0.199 0.301 0.281 0.316 0.242 0.043 c -0.07 -0.484 -0.094 -1.152 -0.039 -1.238 c 0.57 -0.063 0.297 0.797 0.395 0.926 c 0.137 0.223 0.223 0.133 0.449 0.059 c 0.172 -0.059 0.426 -0.105 0.563 -0.105 c 0.871 0.188 2.875 -2.477 1.617 1.316 c 0.219 0.176 0.113 0.484 0.32 0.535 c 0.301 0.07 0.32 0.086 0.32 0.242 c 1.148 1.109 0.594 -0.34 0.484 0.863 c 0.055 0.215 0.078 0.23 0.344 0.266 c 0.156 0.023 0.473 0.035 0.703 0.027 c 0.773 -0.02 1.164 0.316 1.348 1.152 c 0.145 0.648 0.07 1.078 -0.477 2.777 c -0.098 0.313 -0.207 0.684 -0.242 0.832 c -0.102 0.434 -0.227 0.48 -1.297 0.508 l -0.91 0.023 l -0.434 -0.422 c -0.168 -0.164 -0.266 -1.211 -0.449 -1.195 c -0.215 0.016 0.125 0.746 0.141 1.074 c 0.02 0.301 -0.238 0.484 -0.406 0.484 c -0.453 0.148 -0.836 0.039 -1.18 0.043 c -0.676 0 -0.801 -0.016 -0.879 -0.109 m 0.574 -0.816 c 0.188 -0.207 0.191 -0.246 0.059 -0.398 c -0.195 -0.23 -0.68 -0.094 -0.68 0.188 c 0 0.176 0.176 0.387 0.324 0.387 c 0.074 0 0.207 -0.078 0.297 -0.176 m 3.141 0.035 c 0.258 -0.184 0.254 -0.336 -0.016 -0.469 c -0.191 -0.098 -0.23 -0.098 -0.375 -0.016 c -0.195 0.117 -0.238 0.34 -0.094 0.504 c 0.133 0.156 0.242 0.152 0.484 -0.02 m -3.887 -1.758 c 0.336 -0.18 0.148 -0.301 -0.602 -0.395 c -0.367 -0.043 -0.477 0.02 -0.305 0.18 c 0.289 0.277 0.637 0.359 0.906 0.215 m 3.488 -0.238 c 0.137 -0.074 0.148 -0.18 0.039 -0.336 c -0.078 -0.109 -0.09 -0.109 -0.285 -0.004 c -0.266 0.141 -0.422 0.285 -0.383 0.352 c 0.047 0.078 0.488 0.07 0.629 -0.012 m -7.746 -4.141 c -0.113 -0.063 -0.254 -0.117 -0.313 -0.117 c -0.313 -0.078 -0.59 -0.57 -0.906 -0.633 c -0.496 -0.094 -0.527 -0.211 -0.664 -0.488 c -0.23 -0.32 0.383 -0.16 0.586 -0.156 c 0.41 0 0.703 -0.082 0.855 0.273 c 0.156 0.371 0.238 0.277 0.211 -0.246 c -0.016 -0.387 -0.008 -0.441 0.074 -0.41 c 0.051 0.02 0.191 0.211 0.309 0.426 c 0.117 0.211 0.242 0.434 0.281 0.492 c 0.055 0.078 0.055 0.137 0.004 0.25 c -0.105 0.246 -0.156 0.469 -0.227 0.727 c -0.07 -0.039 -0.141 -0.078 -0.211 -0.117" fill="#19141f"/><g fill="#8c9593" stroke="#8c9593" stroke-width="0.311" transform="matrix(0.08709 0 0 0.08709 1.137 0.995)"><path d="m 142.95 115.38 c -1.076 -0.449 -0.807 -1.076 1.256 -2.781 c 3.095 -2.602 4.171 -4.082 5.966 -8.477 c 0.628 -1.48 1.121 -2.781 1.121 -2.871 c -6.06 1.301 -13.232 4.127 -18.838 4.799 c -1.39 0.135 -3.768 0.673 -5.293 1.166 c -1.704 0.583 -2.422 1.301 -3.588 -0.045 c -1.346 -1.615 -2.153 -3.543 -2.915 -7.177 c -3.768 -14.04 -2.646 5.472 -2.288 8.657 c 0.179 1.66 0.269 3.14 0.135 3.229 c -0.359 0.359 -2.198 -1.929 -3.364 -4.216 c -3.01 -6.19 -2.871 -10.899 -4.261 -17.269 c -0.224 -3.01 0.628 -5.831 2.02 -7.535 c 3.588 -9.464 7.984 -10 15.25 -7.221 c 2.377 0.942 2.646 0.987 9.02 1.211 c 4.261 -0.179 8.477 0.852 12.424 1.884 c 4.485 1.166 8.567 3.992 10.451 7.266 c 0.897 1.615 2.108 5.158 1.615 4.844 c -1.121 -0.673 -3.454 -0.942 -5.02 5.248 c -2.02 7.849 -3.095 10.541 -6.01 14.847 c -1.57 2.377 -2.826 3.499 -4.71 4.261 c -1.256 0.538 -1.929 0.583 -2.915 0.179 m 5.607 -24.355 c 1.39 -3.274 -2.96 -4.485 -6.279 -5.517 c -1.57 -0.359 -6.324 -2.871 -8.432 -2.198 c -3.274 1.032 -5.293 3.185 -5.293 5.562 c 0.359 3.05 1.48 5.158 4.127 6.28 c 4.934 0.404 12.559 0.135 15.878 -4.127 m -31.532 -2.602 c 2.781 -4.71 3.857 -6.369 5.472 -8.118 c 2.288 -2.602 2.198 -3.947 -0.224 -3.095 c -3.319 1.121 -5.248 3.543 -6.728 8.432 c -1.39 4.485 -0.493 6.145 1.48 2.781"/><path d="m 56.784 115.51 c -4.082 -1.032 -10.63 -4.127 -12.38 -6.818 c -3.185 -4.396 -4.62 -7.715 -4.934 -11.483 c -0.269 -3.543 0.673 -7.266 2.781 -10.765 c 1.749 -2.915 7.177 -6.952 10.09 -7.491 c 0.807 -0.135 1.749 -0.359 2.063 -0.449 c 0.583 -0.179 2.646 -0.135 2.02 0.897 c -1.032 2.063 -2.422 3.095 -0.583 3.229 c 0.897 -0.179 1.525 0.179 0.942 0.583 c -0.718 1.884 -2.243 2.512 -3.768 2.646 c -2.602 0.224 -3.14 0.673 -4.04 3.05 c -0.942 2.512 -0.718 5.607 0.493 6.907 c 2.332 2.422 10.316 4.261 13.905 3.185 c 2.108 -1.974 -0.987 -6.06 2.332 -3.588 c 1.256 1.48 2.153 3.274 3.454 4.53 c 1.211 1.211 1.256 1.256 0.673 1.66 c -0.583 0.404 -0.628 0.807 -0.628 5.293 c 0 4.934 -0.179 6.1 -0.852 5.293 c -3.947 -8.388 -8.926 -5.786 -19.06 -5.248 c 0 0.045 0.449 0.942 1.032 1.974 c 3.902 5.876 9.33 4.396 13.546 6.907 c -2.467 0.673 -4.934 0.045 -7.087 -0.314"/></g><path d="m 104.9 146.92 c -8.07 -1.868 -10.609 -3.176 -10.935 -5.667 c -0.325 -2.117 0.13 -2.242 4.621 -1.495 c 2.734 0.436 13.02 1.183 22.911 1.619 c 15.947 0.747 19.331 0.498 29.55 -1.931 c 6.314 -1.557 12.367 -3.114 13.343 -3.55 c 1.822 -0.747 1.822 -0.685 0.195 1.806 c -0.846 1.37 -3.775 4.11 -6.379 6.103 l -4.817 3.612 l -21.674 0.374 c -11.976 0.187 -24.02 -0.187 -26.816 -0.872" transform="matrix(0.06002 0 0 0.06272 3.392 4.328)" fill="#ff0" stroke="#ff0" stroke-width="1.085"/><g transform="scale(0.09375)"><path d="m 63.63 96.92 c -2.917 -0.375 -4.083 -0.917 -4.083 -1.792 c 0 -0.208 0.875 -0.917 1.875 -1.542 c 1.625 -1.375 4.708 -3.042 3.958 -4.75 c -0.292 -0.083 -0.167 -0.167 0.292 -0.167 c 1.083 -0.042 1.042 -0.667 -0.042 -0.667 c -0.458 0 -0.917 0.167 -1.042 0.333 c -0.083 0.167 -0.583 0.292 -1.042 0.292 c -0.708 -0.042 -0.792 -0.25 -1 -0.75 c -0.833 -0.625 -0.25 -1.708 2.25 -4.292 c 2.125 -2.125 2.667 -2.917 4.417 -6.417 c 4.708 -9.333 10.542 -15.417 15.667 -16.375 c 1.208 -0.25 2.042 -0.667 3.042 -1.5 c 1.5 -1.25 -0.083 -3.833 2.125 -2.625 c 1.333 0.75 3.542 3.333 5.25 2.583 c 2.333 -0.417 3.875 0.875 6.458 1.417 c 1.958 0.417 5.167 1.917 7.458 3.542 c 3.042 2.167 4 3.625 5.333 8.25 c 0.75 2.75 2.042 5.458 2.5 8.208 c 0.833 4.25 -3.5 5.583 -3.042 9.167 c -0.292 3.083 -5.542 4.75 -6.625 4.458 c -2.708 -1.042 -3.792 -2.917 -6.292 -4.625 c -1.458 -0.083 -1.292 0.708 -3.5 0.042 c -4.417 -1.208 -6.917 -1.542 -8.208 -1.167 c -6 1.917 -11.667 4.04 -13.958 5.208 c -2.917 1.542 -7.917 3.667 -8.458 3.625 c -1.25 -0.167 -2.292 -0.333 -3.333 -0.458 m 8.708 -6.667 c 1.417 -0.75 3.75 -2.792 4.333 -3.75 c 0.917 -2.417 1.375 -5.125 2.208 -7.417 c 1.292 -3.375 1.542 -5.458 0.708 -5.792 c -1.042 -0.417 -2.333 1.292 -3.333 4.375 c -0.333 1.125 -0.917 2.5 -1.292 3.083 c -0.917 3 -0.167 4.25 -2.333 6.375 c -2.25 1.417 -3.417 4.75 -0.292 3.125 m 38.792 -4.5 c 0.417 -0.75 -1.542 -3.375 -2.208 -3.375 c -0.667 0 -0.875 4.375 -0.875 5.5 c 0 0.667 0.125 0.792 0.792 0.708 c 0.417 -0.083 2.125 -2.583 2.292 -2.833 m -16.458 -11.25 c 1.292 -1.458 3.083 -5.708 3.083 -7.5 c 0 -4.292 -2.875 -5.583 -3.833 -1.708 c -0.5 1.958 -1.125 6.875 -1.167 8.583 c 0 1.958 0.833 1.458 1.917 0.625 m -10.625 -4.875 c 1.083 -1.25 -0.125 -3.708 0.167 -4.792 c 0.333 -1.125 -0.792 -0.875 -1.833 0.375 c -1.583 1.875 -2.917 5.292 -2.083 5.292 c 0.167 0 3.167 -0.208 3.75 -0.875" fill="#fff362" stroke="#fdec5b" stroke-width="0.295"/><path d="m 92 117.25 c -3.25 -0.708 -8.333 -4.875 -10.125 -8.333 c -0.833 -1.583 -1.125 -3.75 0 -4.125 c 10.958 0.583 5.833 -3.208 2.75 -4.125 c -4.833 -1.833 -0.875 11.167 -5.208 4.458 c -0.208 -0.333 -1.792 -2.833 -2.792 -3.333 c -1.917 -0.958 -4.292 -3.417 -4.292 -4.5 c 0 -0.292 0.5 -1.083 1.083 -1.708 c 0.875 -0.917 0.625 -2 4.083 -3.417 c 4.417 -1.833 11.04 -3.833 11.917 -4.458 c 0.583 -0.417 1.333 -0.25 7.208 1.5 c 4.625 1.375 6.04 0.917 7.333 2.167 c 1.792 1.75 3.875 2.583 5.958 3.083 l -0.167 3.208 c -0.625 10.04 -1.625 13.833 -4.667 17.208 c -2.083 2.292 -2.125 3.583 -7.292 3.667 c -2.458 0.042 -5.25 -1.167 -5.833 -1.292 m 3.958 -3.792 c 0.667 -0.042 5.958 -1.75 3.5 -3.042 c -1.25 -0.75 -10.458 -0.833 -9.667 0.125 c 0.417 0.5 2.375 3.208 6.167 2.917 m 3.583 -10.833 c 2.375 -0.667 -1.208 -3.417 -3.583 -3.417 c -1.708 -0.333 -2.583 2.5 -2.417 2.833 c 1.333 2.417 3.167 1.417 6 0.583" fill="#ffb980" stroke="#ffb980" stroke-width="0.289"/><g fill="#d61301" stroke="#d61301" stroke-width="0.538"><path d="m 112.83 163.08 c -4.25 -0.5 -5.083 -0.833 -7.708 -2.875 c -1.083 -0.875 -2.167 -1.417 -2.375 -1.25 c -0.5 0.542 -3.208 -4.375 -4.5 -8.25 c -0.667 -1.917 -2.083 -5.333 -3.208 -7.542 c -2.208 -4.417 -5.125 -7.167 -9.708 -9.25 c -1.875 -0.875 -2.792 -1.708 -3.542 -3.208 c -1.125 -2.875 -3.042 -2.292 -5.333 -1.75 c -3.917 0.875 -8.792 1.333 -10.333 -1.375 c -0.667 -1.208 -2.542 -3.583 -4.125 -5.333 c -1.625 -1.708 -3.375 -5.708 -3.375 -5.958 c 0 -0.625 9.04 2.542 12.167 3.5 c 1.583 0.458 3.25 1.333 3.75 1.917 c 2.292 1.625 4.792 2.542 7.417 3.583 c 0.042 -0.083 0.833 -2.375 1.708 -5.125 c 1.5 -4.708 1.625 -4.917 2.458 -3.958 c 0.5 0.542 2.292 1.708 4 2.542 c 2.75 1.417 3.625 1.583 8.125 1.583 c 3.458 0.292 4.708 0.333 6.833 -2.167 c 3.75 -4.417 5.208 -9.25 5.292 -17.583 c 0 -2.875 0.208 -5.25 0.458 -5.25 c 0.208 0 0.375 -0.375 0.375 -0.792 c 0 -0.875 2.042 -2.208 2.583 -1.667 c -0.375 3.667 -2.208 9.5 -0.458 13.167 c 2.75 1 2.625 0.375 4 3.333 c 1.875 4.04 4.625 7.208 7.583 8.667 c 0.917 0.458 3.792 1.708 6.458 2.75 c 3.042 1.25 5.542 2.667 6.75 3.875 l 2 1.917 l -1.25 3.833 c -0.667 2.125 -1.083 4.167 -0.917 4.542 c 0.958 2.542 6.875 -1.083 7.458 -5.167 c 0.458 -3.083 0.5 -7.04 1.292 -7.04 c 0.333 0 1.208 0.708 1.958 1.583 c 0.75 0.917 2.917 2.375 4.833 3.292 c 4.375 2.083 9.542 7 10.04 9.583 c 0.917 4.625 0 10.333 -2.667 16.25 c -2.25 5.04 -5.625 7.417 -12.625 8.833 c -4.583 0.917 -29.833 1.5 -35.417 0.792 m 23.792 -19.21 c 3.708 -2.542 7.625 -7.708 5.917 -7.708 c -0.25 0 -2.125 0.5 -4.167 1.083 c -11.375 3.292 -14.333 3.542 -29.5 2.458 c -6.75 -0.458 -12.458 -0.708 -12.75 -0.542 c -0.75 0.458 -0.625 3.792 0.167 4.417 c 2.792 1.167 5.417 1.417 8.458 1.958 c 0.75 0.167 7.75 0.167 15.583 0 c 5.458 -0.708 11.625 1.583 16.292 -1.667"/><path d="m 163.25 132.54 c -1.292 -3.917 -6.25 -5.917 -6.333 -6.958 c 0 -0.792 -0.833 -2.375 -1.875 -3.667 c -1.792 -2.208 -2.458 -4 -1.417 -4 c 0.833 0 4.375 -11.708 4.667 -15.458 c 0.458 -5.75 0.583 -6.083 2.25 -6.04 c 1.292 0.042 1.708 0.542 3.5 4.25 c 1.833 3.833 4.5 7.125 8.417 10.375 c 0.875 0.75 1.125 1.542 1.125 4 c 0 4.04 3.583 9.458 -1.042 14.542 c -5.5 4.583 -3.458 8.542 -9.292 2.958"/></g></g></svg>