<svg xmlns="http://www.w3.org/2000/svg" viewBox="0 0 24 24"><path d="m 11.04 23.832 c 14.258 1.363 18.1 -21.625 3.457 -23.41 c -13.461 -2.211 -20.395 18.625 -7.02 22.793 c 1.129 0.457 2.367 0.449 3.562 0.617" fill="#66cdaa"/><g fill="#fff"><path d="m 15.383 16.758 c -0.281 -0.184 -1.039 -0.785 -1.688 -1.332 c -0.648 -0.551 -1.242 -1 -1.32 -1 c -0.078 0.004 -0.566 0.574 -1.09 1.273 c -0.742 0.992 -1.012 1.273 -1.223 1.273 c -0.359 0 -0.98 -0.535 -0.98 -0.84 c 0 -0.379 0.832 -1.41 2.488 -3.086 c 0.844 -0.852 1.512 -1.57 1.484 -1.598 c -0.027 -0.027 -0.367 0.016 -0.758 0.098 c -0.805 0.168 -1.02 0.09 -1.188 -0.422 c -0.203 -0.617 0.289 -0.816 2.844 -1.16 c 2.871 -0.387 4.27 -0.113 5.02 0.98 c 0.605 0.879 -0.258 2.164 -1.922 2.871 c -0.316 0.133 -0.977 0.316 -1.469 0.41 c -0.492 0.094 -0.922 0.195 -0.953 0.227 c -0.031 0.031 0.168 0.23 0.438 0.438 c 0.805 0.625 1.582 1.422 1.582 1.625 c 0 0.227 -0.355 0.57 -0.59 0.57 c -0.09 0 -0.398 -0.148 -0.676 -0.328 m 1.254 -4.168 c 1.676 -0.656 1.535 -1.613 -0.254 -1.73 l -0.824 -0.051 l -0.887 0.938 c -0.488 0.516 -0.891 0.996 -0.891 1.07 c 0 0.227 2.133 0.059 2.855 -0.227"/><path d="m 7.02 13.918 c -0.328 -0.129 -0.699 -0.523 -0.699 -0.738 c 0 -0.406 1.09 -1.75 2.73 -3.371 c 0.508 -0.504 0.926 -0.934 0.926 -0.957 c 0 -0.027 -0.305 -0.012 -0.676 0.027 c -0.371 0.039 -0.965 0.074 -1.324 0.078 c -0.637 0.008 -0.652 0 -0.773 -0.25 c -0.168 -0.355 -0.043 -0.852 0.25 -0.988 c 0.73 -0.348 7.285 -0.746 7.621 -0.465 c 0.34 0.289 -0.008 1.363 -0.488 1.5 c -0.117 0.031 -0.789 0.063 -1.488 0.07 c -1.082 0.004 -1.301 0.031 -1.453 0.16 c -0.367 0.32 -1.484 1.676 -3.438 4.176 c -0.68 0.871 -0.77 0.926 -1.191 0.758"/></g></svg>