<svg xmlns="http://www.w3.org/2000/svg" viewBox="0 0 24 24"><path d="m 0.277 14.672 c 1.488 9.758 14.707 12.367 20.543 5.402 c 5.137 -5.172 3.855 -15.07 -2.445 -18.465 c -7.238 -4.543 -17.781 1.07 -18.359 10.113 c -0.059 0.988 0.027 1.992 0.262 2.953" fill="#c84300"/><g transform="matrix(0.09333 0 0 0.09055 0.107 0.103)"><path d="m 94.06 139.11 c 11.133 7.809 13.435 10.785 8.454 10.785 c -1.465 0 -3.976 0.518 -5.608 1.122 c -3.474 1.294 -3.223 3.279 1.59 13.676 c 4.939 10.699 12.974 19.414 22.1 23.987 c 9.417 4.702 12.346 4.832 20.424 0.992 c 8.998 -4.228 18.624 -14.539 25.488 -27.18 l 5.608 -10.397 h 7.324 c 9.542 0.043 10.672 0.777 9.04 5.824 c -2.134 6.342 -9.124 16.221 -16.11 22.649 c -11.3 10.397 -24.316 15.315 -40.555 15.315 c -26.28 0 -43.861 -11.174 -55.29 -35.03 c -4.729 -9.966 -5.566 -10.915 -9.417 -10.958 c -1.507 0 -2.469 -0.69 -2.469 -1.769 c 0 -2.373 14.15 -16.825 16.448 -16.825 c 1 0 6.864 3.494 12.974 7.809" fill="#1e8fff" stroke="#1e8fff" stroke-width="3.285"/><path d="m 117.38 228.11 c -31.31 -1.726 -62.02 -25.928 -73.827 -58.15 c -7.157 -19.629 -8.496 -43.831 -3.432 -62.814 c 8.747 -32.96 34.11 -58.37 67.34 -67.34 c 15.778 -2.33 26.03 -4.832 43.32 -0.475 c 31.598 8.283 54.617 29.638 65.959 61.3 c 4.52 12.511 5.608 20.967 4.897 37.32 c -0.879 20.233 -5.315 34.858 -15.36 50.39 c -9.835 15.272 -28.627 30.16 -45.744 36.32 c -10.296 3.667 -22.14 4.616 -43.15 3.451 m 29.21 -17.86 c 17.327 -3.494 35.407 -15.747 45.45 -30.76 c 16.03 -23.857 17.452 -59.707 3.432 -85.98 c -8.496 -15.919 -22.18 -27.697 -40.22 -34.599 c -17.16 -4.659 -36.29 -5.867 -51.48 -0.043 c -27.748 10.57 -45.16 33.05 -49.34 63.68 c -2.846 20.751 3.474 45.3 16.03 62.38 c 4.185 5.695 16.783 15.617 25.11 19.716 c 13.476 6.687 34.486 8.973 51.02 5.608" fill="#00267c" stroke="#222a66" fill-opacity="0.824" stroke-width="3.271"/><path d="m 166.26 127.85 c -11.133 -7.852 -13.435 -10.785 -8.454 -10.785 c 1.465 0 4.02 -0.518 5.608 -1.122 c 3.474 -1.337 3.264 -3.279 -1.549 -13.676 c -4.98 -10.742 -13.02 -19.414 -22.14 -23.987 c -9.375 -4.702 -12.346 -4.875 -20.424 -1.035 c -8.956 4.271 -18.624 14.582 -25.446 27.22 l -5.65 10.397 l -7.324 -0.043 c -9.542 0 -10.672 -0.733 -8.998 -5.781 c 2.093 -6.342 9.08 -16.221 16.07 -22.649 c 11.3 -10.397 24.316 -15.358 40.555 -15.358 c 26.28 0 43.903 11.174 55.29 35.07 c 4.729 9.922 5.566 10.915 9.417 10.915 c 1.507 0 2.469 0.69 2.469 1.769 c 0 2.373 -14.15 16.868 -16.448 16.868 c -1 0 -6.864 -3.494 -12.974 -7.809" stroke-opacity="0.937" fill="#f8a300" stroke="#f8a300" stroke-width="3.285"/></g></svg>