<svg xmlns="http://www.w3.org/2000/svg" xmlns:xlink="http://www.w3.org/1999/xlink" viewBox="0 0 24 24"><defs><g id="3" clip-path="url(#2)"><path d="m 11.594 10.867 h 0.605 c 0.168 0 0.305 0.129 0.305 0.289 v 5.207 c 0 0.16 -0.137 0.289 -0.305 0.289 h -0.605 c -0.164 0 -0.301 -0.129 -0.301 -0.289 v -5.207 c 0 -0.16 0.137 -0.289 0.301 -0.289"/><path d="m 14.02 10.867 h 0.605 c 0.164 0 0.301 0.129 0.301 0.289 v 5.207 c 0 0.16 -0.137 0.289 -0.301 0.289 h -0.605 c -0.168 0 -0.305 -0.129 -0.305 -0.289 v -5.207 c 0 -0.16 0.137 -0.289 0.305 -0.289"/><path d="m 9.172 10.867 h 0.605 c 0.168 0 0.305 0.129 0.305 0.289 v 5.207 c 0 0.16 -0.137 0.289 -0.305 0.289 h -0.605 c -0.164 0 -0.301 -0.129 -0.301 -0.289 v -5.207 c 0 -0.16 0.137 -0.289 0.301 -0.289"/></g><clipPath id="2"><path d="M 0,0 H24 V24 H0 z"/></clipPath><filter id="0" filterUnits="objectBoundingBox" x="0" y="0" width="24" height="24"><feColorMatrix type="matrix" in="SourceGraphic" values="0 0 0 0 1 0 0 0 0 1 0 0 0 0 1 0 0 0 1 0"/></filter><mask id="1"><g filter="url(#0)"><path fill-opacity="0.4" d="M 0,0 H24 V24 H0 z"/></g></mask></defs><path d="m 20.922 3.797 c 13.609 20.77 -23.566 28.809 -20.602 7.441 c 1.207 -8.715 15.395 -15.387 20.602 -7.441" fill="#6a8e22"/><path d="m 7.961 7.973 h 7.875 c 0.332 0 0.605 0.266 0.605 0.598 v 8.934 c 0 0.328 -0.273 0.594 -0.605 0.594 h -7.875 c -0.332 0 -0.605 -0.266 -0.605 -0.594 v -8.934 c 0 -0.332 0.273 -0.598 0.605 -0.598" fill="#51803f"/><path d="m 7.05 7.105 h 9.688 c 0.336 0 0.605 0.258 0.605 0.578 v 1.156 c 0 0.32 -0.27 0.578 -0.605 0.578 h -9.688 c -0.336 0 -0.605 -0.258 -0.605 -0.578 v -1.156 c 0 -0.32 0.27 -0.578 0.605 -0.578" fill="#629c4c"/><use xlink:href="#3" mask="url(#1)"/><path d="m 10.08 6.816 h 3.633 v 1.156 h -3.633" fill="#629c4c"/><path d="m 7.05 7.105 c -0.336 0 -0.605 0.258 -0.605 0.578 v 0.289 c 0 -0.32 0.27 -0.578 0.605 -0.578 h 9.688 c 0.336 0 0.605 0.258 0.605 0.578 v -0.289 c 0 -0.32 -0.27 -0.578 -0.605 -0.578" fill="#fff" fill-opacity="0.2"/><g fill-opacity="0.302"><path d="m 6.449 8.551 v 0.289 c 0 0.32 0.27 0.578 0.605 0.578 h 9.688 c 0.336 0 0.605 -0.258 0.605 -0.578 v -0.289 c 0 0.32 -0.27 0.578 -0.605 0.578 h -9.688 c -0.336 0 -0.605 -0.258 -0.605 -0.578"/><path d="m 7.355 17.215 v 0.289 c 0 0.328 0.27 0.594 0.605 0.594 h 7.875 c 0.336 0 0.605 -0.266 0.605 -0.594 v -0.289 c 0 0.328 -0.27 0.594 -0.605 0.594 h -7.875 c -0.336 0 -0.605 -0.266 -0.605 -0.594"/></g><path d="m 10.08 6.816 v 0.289 h 3.633 v -0.289" fill="#fff" fill-opacity="0.102"/></svg>