<svg xmlns="http://www.w3.org/2000/svg" viewBox="0 0 24 24"><path d="m 11.04 23.832 c 14.258 1.363 18.1 -21.625 3.457 -23.41 c -13.461 -2.211 -20.395 18.625 -7.02 22.793 c 1.129 0.457 2.367 0.449 3.562 0.617" fill="#12705b"/><g fill="#cef6ec" fill-rule="evenodd"><path d="m 10.01 7.723 h 3.656 c 1.734 0 3.141 0.484 3.141 1.078 c 0 0.598 -1.406 1.082 -3.141 1.082 h -3.656 c -1.738 0 -3.145 -0.484 -3.145 -1.082 c 0 -0.594 1.406 -1.078 3.145 -1.078"/><path d="m 11.277 11.48 h 3.656 c 1.734 0 3.145 0.484 3.145 1.082 c 0 0.598 -1.41 1.078 -3.145 1.078 h -3.656 c -1.734 0 -3.141 -0.48 -3.141 -1.078 c 0 -0.598 1.406 -1.082 3.141 -1.082"/><path d="m 9.914 15.14 h 3.656 c 1.734 0 3.145 0.484 3.145 1.078 c 0 0.598 -1.41 1.082 -3.145 1.082 h -3.656 c -1.734 0 -3.141 -0.484 -3.141 -1.082 c 0 -0.594 1.406 -1.078 3.141 -1.078"/></g></svg>