<svg xmlns="http://www.w3.org/2000/svg" viewBox="0 0 24 24"><path d="m 2.473 18.402 c -8.629 -12.176 7.309 -24.52 17.473 -14.594 c 9.578 9.348 0.699 23.875 -11.219 19.336 c -2.488 -0.949 -4.668 -2.504 -6.254 -4.742" fill="#ff5b00"/><g fill="#fbe000"><path d="m 11.957 19.34 c -0.105 -0.105 -0.191 -0.363 -0.191 -0.578 c 0 -0.211 -0.891 -0.859 -0.988 -1.133 c -0.262 -0.734 0.594 -0.984 0.945 -1.445 c 0.313 -0.41 0.32 -0.574 0.098 -1.645 c -0.063 -0.293 -0.023 -0.418 0.18 -0.602 c 0.297 -0.273 0.375 -0.348 0.961 -0.934 c 0.418 -0.426 0.426 -0.449 0.262 -0.77 c -0.223 -0.43 -0.219 -0.645 0.02 -0.734 c 0.168 -0.066 0.18 -0.223 0.117 -1.23 c -0.082 -1.23 -0.242 -1.766 -0.641 -2.121 c -0.25 -0.219 -0.254 -0.219 -0.801 0.387 c -0.301 0.332 -0.746 0.715 -0.988 0.852 c -0.25 0.141 -0.52 0.422 -0.629 0.652 c -0.223 0.469 0.563 0.266 1.32 1.316 c 0.332 0.461 -0.316 1.047 -0.371 1.32 c -0.039 0.191 -0.094 0.367 -0.121 0.398 c -0.121 0.121 -0.434 -0.117 -0.66 -0.504 c -0.168 -0.285 -0.426 -0.492 -0.824 -0.664 c -0.402 -0.172 -0.668 -0.387 -0.867 -0.695 c -0.348 -0.555 -1.051 0.496 -1.508 0.977 c -0.27 0.281 -1.332 -0.105 -1.203 0.336 c 0.117 0.398 -0.227 -1.113 0.004 -1.418 c 0.777 -1.043 1.094 -0.953 1.824 -0.891 c 0.363 0.035 0.832 0.098 1.039 0.141 c 0.34 0.074 0.379 0.051 0.449 -0.254 c 0.098 -0.41 0.766 -1.125 1.402 -1.5 c 0.449 -0.262 0.727 -0.668 1.082 -1.598 c 0.07 -0.172 0.246 -0.395 0.398 -0.496 c 0.34 -0.223 1.496 -0.449 1.625 -0.32 c 0.055 0.051 0.152 0.406 0.223 0.789 c 0.066 0.379 0.172 0.848 0.23 1.035 c 0.086 0.277 0.059 0.391 -0.129 0.594 c -0.277 0.293 -0.297 0.758 -0.051 1.234 c 0.125 0.242 0.16 0.504 0.109 0.84 c -0.063 0.418 -0.031 0.527 0.199 0.738 c 0.164 0.148 0.508 0.277 0.871 0.324 l 0.598 0.074 l 0.656 -1.012 c 0.359 -0.555 0.66 -1.098 0.664 -1.199 c 0.004 -0.102 0.023 -0.477 0.039 -0.828 c 0.016 -0.352 0.086 -0.781 0.156 -0.953 c 0.121 -0.285 0.203 -0.316 1.035 -0.395 c 1.492 -0.141 1.793 0.145 1.398 1.305 l -0.18 0.527 l 0.402 0.164 c 0.777 0.328 1.727 0.113 2.109 -0.477 c 0.199 -0.297 0.195 -0.352 -0.035 -1.32 c -0.133 -0.555 -0.277 -1.141 -0.324 -1.301 c -0.074 -0.285 -0.074 -0.289 0.113 -0.059 c 0.371 0.453 1.227 2.344 1.531 3.383 c 0.383 1.313 0.508 3.621 0.273 4.965 l -0.156 0.871 l -0.086 -0.527 c -0.605 -0.066 -1.355 -0.832 -1.227 -1.723 c 0.141 -0.77 0.957 -0.633 1.066 -0.844 c 0.098 -0.188 0.176 -0.629 0.176 -0.98 c 0 -0.637 -0.004 -0.645 -0.398 -0.715 c -0.441 -0.086 -0.746 0.043 -1.328 0.547 c -0.211 0.184 -0.43 0.332 -0.484 0.332 c -0.055 0 -0.207 -0.18 -0.336 -0.402 c -0.176 -0.293 -0.348 -0.422 -0.645 -0.477 c -0.535 -0.102 -1.398 0.277 -1.68 0.742 c -0.258 0.418 -1.086 1.125 -1.672 1.422 c -0.465 0.238 -0.641 -0.395 -0.641 0.117 c 0 0.488 0.176 0.828 0.438 0.828 c 0.176 0.895 -1.277 1.285 -1.664 0.855 c -0.203 -0.246 -0.43 -0.207 -0.641 0.117 c -0.234 0.352 -1.086 0.832 -0.438 1.305 c 0.75 0.391 0.504 0.871 -0.004 0.906 c -0.293 0.004 -0.52 0.855 -0.656 1.113 c -0.188 0.348 -0.152 0.434 0.285 0.691 c 0.695 0.41 0.559 0.527 -0.77 0.656 c -0.629 0.063 -0.809 0.039 -0.965 -0.113"/><path d="m 7.391 22.477 c -0.543 -0.277 -0.602 -0.348 -0.809 -1.012 c -0.125 -0.395 -0.352 -0.832 -0.504 -0.973 c -0.262 -0.242 -0.27 -0.277 -0.105 -0.59 c 0.098 -0.18 0.363 -0.477 0.594 -0.652 c 0.602 -0.473 0.547 -0.707 -0.254 -1.074 c -0.93 -0.426 -1.164 -0.676 -1.68 -1.781 c -0.406 -0.871 -0.48 -0.965 -0.777 -0.965 c -0.438 0 -0.664 -0.184 -0.992 -0.816 c -0.363 -0.691 -0.598 -0.688 -0.645 0.016 l -0.035 0.543 l -0.687 -0.016 l -0.691 -0.016 l -0.23 -0.758 c -0.645 -2.148 -0.637 -4.648 0.027 -6.48 l 0.168 -0.465 l 0.086 0.465 c 0.047 0.258 0.195 0.586 0.324 0.73 c 0.359 0.391 0.703 2.645 0.477 3.086 c -0.215 0.426 -0.203 0.594 0.082 0.953 c 0.328 0.422 0.637 0.398 0.797 -0.059 c 0.125 -0.359 0.137 -0.363 0.727 -0.293 c 0.699 0.082 1.039 -0.059 1.586 -0.664 c 0.258 -0.281 0.52 -0.438 0.82 -0.488 c 0.242 -0.043 0.543 -0.102 0.672 -0.137 c 0.227 -0.063 1.164 -0.02 0.922 0.25 c -0.805 0.895 -2.059 2.691 -1.609 3.859 c 0.086 0.227 0.547 0.793 1.723 2.129 c 0.781 0.887 1 1.422 1 2.441 c 0.004 0.941 0.07 1.207 0.309 1.207 c 0.262 0 0.184 0.305 -0.129 0.512 c -0.371 0.242 -0.676 0.832 -0.582 1.125 c 0.086 0.273 0.129 0.281 -0.586 -0.082 m -2.742 -7.918 c 0 -0.094 0.465 -0.84 -0.168 -0.859 c -1.711 -0.051 -0.328 0.852 -0.219 0.961 c 0.141 0.141 0.387 0.074 0.387 -0.102"/></g><path d="m 17.285 16.309 h 2.172 c 0.605 0 1.098 0.523 1.098 1.172 v 1.746 c 0 0.648 -0.492 1.172 -1.098 1.172 h -2.172 c -0.605 0 -1.098 -0.523 -1.098 -1.172 v -1.746 c 0 -0.648 0.492 -1.172 1.098 -1.172" fill="#696969"/><path d="m 16.723 15.746 h 2.172 c 0.605 0 1.098 0.523 1.098 1.172 v 1.746 c 0 0.648 -0.492 1.172 -1.098 1.172 h -2.172 c -0.609 0 -1.102 -0.523 -1.102 -1.172 v -1.746 c 0 -0.648 0.492 -1.172 1.102 -1.172" fill="#c1dfea"/><path d="m 5.391 5.227 h 2.168 c 0.609 0 1.102 0.523 1.102 1.172 v 1.746 c 0 0.648 -0.492 1.172 -1.102 1.172 h -2.168 c -0.609 0 -1.102 -0.523 -1.102 -1.172 v -1.746 c 0 -0.648 0.492 -1.172 1.102 -1.172" fill="#696969"/><path d="m 4.828 4.664 h 2.168 c 0.609 0 1.102 0.523 1.102 1.172 v 1.746 c 0 0.648 -0.492 1.172 -1.102 1.172 h -2.168 c -0.609 0 -1.102 -0.523 -1.102 -1.172 v -1.746 c 0 -0.648 0.492 -1.172 1.102 -1.172" fill="#ffba00"/></svg>