<svg xmlns="http://www.w3.org/2000/svg" viewBox="0 0 24 24"><path d="m 16.375 0.422 c -33.809 -4.168 -5.789 43.754 6.629 13.09 c 1.906 -5.387 0.254 -11.445 -6.629 -13.09" fill="#ffa400"/><path d="m 9.273 9.41 l -2.422 -2.5 c 0 1.465 0 2.93 1.418 4.395 c -1.418 0 -2.84 -0.977 -2.84 -0.977 c 0 0 0 2.445 2.367 3.422 h -2.367 c 0 0 0 1.465 3.316 2.441 c -0.949 0.492 -1.895 0.492 -1.895 0.492 c 0 0 1.184 1.215 3.316 1.727 c 0.012 0.488 0.488 1.203 1.895 1.203 c 1.402 0 1.879 -0.715 1.891 -1.203 c 2.133 -0.512 3.32 -1.727 3.32 -1.727 c 0 0 -0.949 0 -1.898 -0.492 c 3.316 -0.977 3.316 -2.441 3.316 -2.441 h -2.367 c 2.367 -0.977 2.367 -3.422 2.367 -3.422 c 0 0 -1.418 0.977 -2.84 0.977 c 1.422 -1.465 1.422 -2.93 1.422 -4.395 l -2.426 2.5" fill-opacity="0.102"/><path d="m 6.852 6.418 c 0 1.469 0 2.934 1.418 4.398 c -1.418 0 -2.84 -0.977 -2.84 -0.977 c 0 0 0 2.445 2.367 3.422 h -2.367 c 0 0 0 1.465 3.316 2.441 c -0.949 0.492 -1.895 0.492 -1.895 0.492 c 0 0 1.895 1.953 5.211 1.953 c 3.313 0 5.211 -1.953 5.211 -1.953 c 0 0 -0.949 0 -1.898 -0.492 c 3.316 -0.977 3.316 -2.441 3.316 -2.441 h -2.367 c 2.367 -0.977 2.367 -3.422 2.367 -3.422 c 0 0 -1.418 0.977 -2.84 0.977 c 1.422 -1.465 1.422 -2.93 1.422 -4.398 l -5.211 5.379" fill="#f4f4f4"/><path d="m 12.06 11.305 l -1.895 0.98 v 5.617 c 0 0.488 0.473 1.223 1.895 1.223 c 1.418 0 1.895 -0.734 1.895 -1.223 v -5.617" fill="#464646"/><path d="m 10.168 9.352 v 2.934 c 0.199 0.137 0.813 0.488 1.895 0.488 c 1.078 0 1.695 -0.352 1.895 -0.488 v -2.934" fill="#f99c2e"/><path d="m 14.902 8.375 c 0 1.617 -1.273 2.93 -2.84 2.93 c -1.57 0 -2.844 -1.313 -2.844 -2.93 c 0 -1.621 1.273 -2.934 2.844 -2.934 c 1.566 0 2.84 1.313 2.84 2.934" fill="#c3c3c3"/></svg>