<svg xmlns="http://www.w3.org/2000/svg" viewBox="0 0 24 24"><path d="m 19.797 3.48 c 18.922 24.973 -33.15 28.52 -16.438 3.03 c 3.809 -5.813 11.426 -9.645 16.438 -3.03" fill="#ff8c00"/><g fill="#fff"><path d="m 6.215 6.23 h 3.195 c 0.051 0 0.094 0.043 0.094 0.094 v 3.406 c 0 0.051 -0.043 0.094 -0.094 0.094 h -3.195 c -0.055 0 -0.094 -0.043 -0.094 -0.094 v -3.406 c 0 -0.051 0.039 -0.094 0.094 -0.094" fill-opacity="0.2"/><path d="m 10.727 6.23 h 3.195 c 0.051 0 0.094 0.043 0.094 0.094 v 3.406 c 0 0.051 -0.043 0.094 -0.094 0.094 h -3.195 c -0.055 0 -0.094 -0.043 -0.094 -0.094 v -3.406 c 0 -0.051 0.039 -0.094 0.094 -0.094" fill-opacity="0.502"/><path d="m 15.238 6.23 h 3.195 c 0.051 0 0.094 0.043 0.094 0.094 v 3.406 c 0 0.051 -0.043 0.094 -0.094 0.094 h -3.195 c -0.055 0 -0.094 -0.043 -0.094 -0.094 v -3.406 c 0 -0.051 0.039 -0.094 0.094 -0.094" fill-opacity="0.4"/><path d="m 6.215 11.02 h 3.195 c 0.051 0 0.094 0.043 0.094 0.094 v 3.402 c 0 0.051 -0.043 0.094 -0.094 0.094 h -3.195 c -0.055 0 -0.094 -0.043 -0.094 -0.094 v -3.402 c 0 -0.051 0.039 -0.094 0.094 -0.094" fill-opacity="0.902"/><path d="m 10.727 11.02 h 3.195 c 0.051 0 0.094 0.043 0.094 0.094 v 3.402 c 0 0.051 -0.043 0.094 -0.094 0.094 h -3.195 c -0.055 0 -0.094 -0.043 -0.094 -0.094 v -3.402 c 0 -0.051 0.039 -0.094 0.094 -0.094" fill-opacity="0.302"/><path d="m 15.238 11.02 h 3.195 c 0.051 0 0.094 0.043 0.094 0.094 v 3.402 c 0 0.051 -0.043 0.094 -0.094 0.094 h -3.195 c -0.055 0 -0.094 -0.043 -0.094 -0.094 v -3.402 c 0 -0.051 0.039 -0.094 0.094 -0.094" fill-opacity="0.8"/><path d="m 6.215 15.805 h 3.195 c 0.051 0 0.094 0.043 0.094 0.094 v 3.406 c 0 0.051 -0.043 0.094 -0.094 0.094 h -3.195 c -0.055 0 -0.094 -0.043 -0.094 -0.094 v -3.406 c 0 -0.051 0.039 -0.094 0.094 -0.094"/><path d="m 10.727 15.805 h 3.195 c 0.051 0 0.094 0.043 0.094 0.094 v 3.406 c 0 0.051 -0.043 0.094 -0.094 0.094 h -3.195 c -0.055 0 -0.094 -0.043 -0.094 -0.094 v -3.406 c 0 -0.051 0.039 -0.094 0.094 -0.094" fill-opacity="0.702"/><path d="m 15.238 15.805 h 3.195 c 0.051 0 0.094 0.043 0.094 0.094 v 3.406 c 0 0.051 -0.043 0.094 -0.094 0.094 h -3.195 c -0.055 0 -0.094 -0.043 -0.094 -0.094 v -3.406 c 0 -0.051 0.039 -0.094 0.094 -0.094" fill-opacity="0.6"/></g></svg>