<svg xmlns="http://www.w3.org/2000/svg" viewBox="0 0 24 24"><path d="m 22.898 17.676 c -4.727 11.336 -23.02 6.281 -22.898 -6.07 c -0.184 -11.223 14.359 -15.48 20.734 -7.484 c 3.191 3.457 4.305 9.184 2.16 13.555" fill="#00e2fb"/><path d="m 10.5 19.07 c -3.25 -0.703 -5.707 -3.785 -5.703 -7.148 c 0.004 -2.043 0.672 -3.66 2.105 -5.121 c 1.562 -1.586 3.52 -2.336 5.691 -2.176 c 6.254 0.461 9.09 8.03 4.668 12.465 c -1.789 1.797 -4.258 2.52 -6.762 1.98 m 3.242 -2.891 c 0.813 -0.359 1.648 -1.176 2.055 -2 c 0.328 -0.676 0.344 -0.785 0.383 -2.969 l 0.039 -2.27 l -0.313 -0.313 c -0.395 -0.398 -0.746 -0.402 -1.137 -0.012 c -0.297 0.297 -0.305 0.352 -0.309 2.273 c 0 1.645 -0.039 2.047 -0.23 2.461 c -0.277 0.605 -0.668 0.984 -1.281 1.242 c -0.656 0.273 -1.191 0.238 -1.922 -0.129 c -0.52 -0.258 -0.695 -0.434 -0.957 -0.957 c -0.297 -0.605 -0.316 -0.746 -0.316 -2.613 c 0 -1.926 -0.004 -1.977 -0.305 -2.277 c -0.383 -0.387 -0.738 -0.387 -1.125 0 c -0.297 0.301 -0.305 0.348 -0.305 2.344 c 0 2.313 0.141 3 0.777 3.836 c 0.934 1.223 2.063 1.766 3.5 1.691 c 0.52 -0.027 1.102 -0.148 1.445 -0.305" fill="#0090fd"/></svg>