<svg xmlns="http://www.w3.org/2000/svg" viewBox="0 0 24 24"><path d="m 18.17 1.75 c 21.13 18.13 -22.313 35.566 -17.848 7.523 c 0.98 -6.148 12.156 -12.41 17.848 -7.523" fill="#14203f"/><path d="m 159.63 144.64 c 0 36.13 -30.625 65.42 -68.33 65.42 c -37.75 0 -68.33 -29.29 -68.33 -65.42 c 0 -36.17 30.583 -65.46 68.33 -65.46 c 37.708 0 68.33 29.29 68.33 65.46" transform="matrix(0.09375 0 0 0.09375 1.722 -1.4)" fill="#3686c3" stroke="#3686c3" stroke-width="0.494"/><g stroke="#235c20"><g fill="#235c20" stroke-width="0.567" transform="scale(0.09375)"><path d="m 80.04 179 c -1.208 -1.958 -3.083 -7 -4.167 -11.167 c -1.083 -4.208 -3.833 -11.04 -6.083 -15.292 c -4.125 -7.625 -4.125 -7.667 -2.333 -12.625 c 1.292 -3.458 2.542 -5.04 4.292 -5.333 c 3.417 -0.5 13.708 4.375 18.875 8.958 c 5 4.375 4.958 5.208 -1.167 18.375 c -2.167 4.75 -4.25 11.333 -4.583 14.667 c -0.333 3.333 -1.083 6.04 -1.625 6.04 c -0.542 0 -2 -1.625 -3.208 -3.625"/><path d="m 134.25 167.04 c -1.958 -1.208 -3.75 -9.333 -3.792 -16.833 c 0 -12.792 -2.708 -17.833 -9.583 -17.833 c -6.917 0 -8.333 -7.292 -3.292 -16.625 c 3.083 -5.667 3.208 -5.75 7.708 -5.125 c 2.542 0.333 5.167 0.958 5.792 1.333 c 0.667 0.417 1.958 0.292 2.875 -0.25 c 1.333 -0.833 1 -1.667 -1.708 -4.5 c -1.875 -1.958 -4.542 -3.5 -6.04 -3.5 c -3.792 0 -4.375 -2.75 -1.583 -7.292 c 1.333 -2.167 2.417 -4.708 2.417 -5.625 c 0 -3.042 3.417 -4.792 8.625 -4.458 c 5.25 0.292 8.667 -0.958 12.792 -4.708 c 1.625 -1.5 3.292 -2 4.833 -1.542 c 3.5 1.125 12.04 11.167 16.917 19.875 l 4.292 7.625 l -2.208 6.375 c -2.292 6.625 -3.208 7.125 -9.08 5.292 c -1.875 -0.583 -2.792 0.208 -4.792 4.208 c -1.375 2.708 -2.875 6.208 -3.292 7.792 c -0.458 1.583 -1.75 4.208 -2.917 5.792 c -3.583 5.125 -3.75 8.25 -0.667 12.75 c 1.792 2.625 2.458 4.708 1.833 5.667 c -0.75 1.25 -1.125 1.167 -1.708 -0.417 c -1.083 -2.75 -3.375 -2.458 -4.792 0.625 c -1.542 3.458 -6.958 9.792 -9.417 11.125 c -1.042 0.583 -2.5 0.667 -3.167 0.25"/></g><path d="m 213.83 18.279 c 5.726 -0.029 10.358 3.483 10.372 7.833 l 0.019 24.481 c 0 4.311 -4.646 7.826 -10.387 7.817 c -5.741 -0.009 -10.358 -3.483 -10.372 -7.833 l 0.02 -24.496 c 0 -4.311 4.646 -7.826 10.348 -7.802" transform="matrix(0.08715 0.03456 -0.03262 0.08789 0 0)" fill="#666" stroke-width="0.266"/><path d="m 218.29 49.922 l 12.582 0.005 c 8.783 -0.014 15.894 3.514 15.906 7.84 l -0.019 67.955 c 0.012 4.326 -7.122 7.816 -15.866 7.815 l -12.582 -0.005 c -8.783 0.014 -15.879 -3.475 -15.891 -7.801 l 0.004 -67.994 c -0.012 -4.326 7.122 -7.816 15.866 -7.815" transform="matrix(0.08756 0.03349 -0.03366 0.0875 0 0)" fill="#64a135" stroke-width="0.562"/><path d="m 224.9 60.27 c 7.383 -0.002 13.424 3.501 13.416 7.803 l -0.017 34.08 c -0.008 4.302 -5.979 7.803 -13.401 7.819 c -7.383 0.002 -13.424 -3.501 -13.416 -7.803 l 0.017 -34.08 c -0.007 -4.341 6.02 -7.817 13.401 -7.819" transform="matrix(0.08781 0.03283 -0.03434 0.08723 0 0)" fill="#c1d180" stroke-width="0.337"/></g><g fill="#555c2f" stroke="#555c2f" stroke-width="0.494"><path d="m 161.17 189.91 c 0 1.417 -0.708 2.708 -1.917 3.417 c -1.208 0.708 -2.708 0.708 -3.958 0 c -1.208 -0.708 -1.917 -2 -1.917 -3.417 c 0 -1.417 0.708 -2.708 1.917 -3.417 c 1.25 -0.708 2.75 -0.708 3.958 0 c 1.208 0.708 1.917 2 1.917 3.417" transform="matrix(0.09375 0 0 0.09375 0 -0.133)"/><path d="m 161.16 189.93 c 0 1.375 -0.708 2.708 -1.917 3.417 c -1.208 0.708 -2.708 0.708 -3.917 0 c -1.25 -0.708 -1.958 -2.042 -1.958 -3.417 c 0 -1.417 0.708 -2.708 1.958 -3.417 c 1.208 -0.708 2.708 -0.708 3.917 0 c 1.208 0.708 1.917 2 1.917 3.417" transform="matrix(0.09375 0 0 0.09375 1.723 0.53)"/><path d="m 161.14 189.92 c 0.042 1.375 -0.708 2.708 -1.917 3.417 c -1.208 0.708 -2.708 0.708 -3.917 0 c -1.208 -0.708 -1.958 -2.042 -1.917 -3.417 c -0.042 -1.417 0.708 -2.708 1.917 -3.417 c 1.208 -0.708 2.708 -0.708 3.917 0 c 1.208 0.708 1.958 2 1.917 3.417" transform="matrix(0.09375 0 0 0.09375 0.861 0.265)"/></g><path d="m 60.833 129.92 c -1.208 -2 -3.083 -7.04 -4.208 -11.208 c -1.083 -4.167 -3.583 -11.167 -6.083 -15.25 c -3.25 -5.375 -0.208 -7.208 3 -11.04 c 2.417 -2.833 8.04 -10.167 17.5 -16.5 c 0.958 -0.667 12.333 -4.542 18.458 0.5 c 3.542 2.958 0.208 13.667 2.083 15.333 c 5 4.375 -10.458 13.75 -21.333 21.08 c -4.292 2.917 -4.25 11.292 -4.583 14.625 c -0.375 3.333 1.583 9.25 1 9.25 c -0.542 0 -4.625 -4.792 -5.833 -6.792" transform="scale(0.09375)" fill="#235c20" stroke="#235c20" stroke-width="0.567"/></svg>