<svg xmlns="http://www.w3.org/2000/svg" viewBox="0 0 24 24" xmlns:xlink="http://www.w3.org/1999/xlink"><defs><linearGradient id="0" gradientUnits="userSpaceOnUse" x1="-37.555" x2="-25.701" gradientTransform="matrix(1.1231 0 0 1.03997 47.35 -407.92)"><stop stop-color="#2e90cc"/><stop offset="1" stop-color="#6eb9ff"/></linearGradient><linearGradient id="1" gradientUnits="userSpaceOnUse" x1="-27.28" y1="407.16" x2="-27.338" y2="410.26" gradientTransform="matrix(1.1231 0 0 1.03997 47.35 -407.92)" xlink:href="#0"/><linearGradient id="2" gradientUnits="userSpaceOnUse" x1="-33.999" x2="-29.573" gradientTransform="matrix(1.1231 0 0 1.03997 47.35 -407.92)"><stop stop-color="#e0e5e8" stop-opacity="0.749"/><stop offset="1" stop-color="#fff" stop-opacity="0.749"/></linearGradient></defs><path d="m 21.66 19.05 c 11.996 -18.05 -26.26 -29.16 -21.2 -5.832 c 2.16 9.637 15.691 15.488 21.2 5.832" fill="#6395ec"/><path d="m 5.168 6.992 h 13.313 v 8.512 h -13.313" fill="url(#0)"/><path d="m 14.996 18.734 l 3.484 -3.227 h -3.484" fill="url(#1)"/><path d="m 11.09 11.684 h 1.113 v -1.031 h -1.113 v 1.031 m -1.93 0 h 1.016 v -1.031 h -1.016 v -0.848 h 1.016 v -1.41 h 0.914 v 1.41 h 1.113 v -1.41 h 0.914 v 1.41 h 1.016 v 0.848 h -1.016 v 1.031 h 1.016 v 0.844 h -1.016 v 1.41 h -0.914 v -1.41 h -1.113 v 1.41 h -0.914 v -1.41 h -1.016 v -0.844" fill="url(#2)"/></svg>