<svg xmlns="http://www.w3.org/2000/svg" viewBox="0 0 24 24"><path d="m 4.945 21.656 c 18.05 11.996 29.16 -26.26 5.832 -21.19 c -9.637 2.156 -15.488 15.691 -5.832 21.19" fill="#754f7a"/><path d="m 10.594 19.06 c -0.254 -0.059 -0.355 -0.117 -0.336 -0.188 c 0.016 -0.059 0.027 -0.281 0.031 -0.496 c 0 -0.52 -0.242 -1.055 -0.645 -1.418 c -0.438 -0.395 -0.773 -0.523 -1.383 -0.527 c -0.5 -0.004 -0.863 0.121 -1.363 0.469 c -0.105 0.07 -0.16 0.051 -0.344 -0.121 c -0.266 -0.25 -0.789 -1 -1.063 -1.531 c -0.195 -0.379 -0.492 -1.148 -0.453 -1.18 c 0.008 -0.008 0.164 -0.086 0.344 -0.176 c 0.645 -0.309 1 -0.766 1.156 -1.469 c 0.098 -0.449 -0.031 -1.016 -0.324 -1.449 c -0.199 -0.293 -0.734 -0.688 -1.035 -0.762 c -0.141 -0.035 -0.164 -0.07 -0.121 -0.227 c 0.172 -0.676 0.836 -1.848 1.441 -2.531 l 0.246 -0.277 l 0.25 0.18 c 0.777 0.574 1.867 0.555 2.602 -0.047 c 0.43 -0.355 0.828 -1.281 0.715 -1.672 c -0.023 -0.082 -0.063 -0.207 -0.082 -0.281 c -0.035 -0.113 0.023 -0.148 0.344 -0.227 c 0.504 -0.121 2.309 -0.125 2.793 -0.008 l 0.371 0.09 l -0.031 0.453 c -0.078 1.191 0.781 2.105 1.977 2.105 c 0.508 0 0.891 -0.125 1.277 -0.406 l 0.242 -0.18 l 0.219 0.203 c 0.512 0.473 1.371 1.938 1.48 2.52 c 0.043 0.238 0.035 0.25 -0.281 0.379 c -0.402 0.156 -0.84 0.559 -1.027 0.938 c -0.211 0.426 -0.238 1.215 -0.055 1.617 c 0.207 0.453 0.602 0.852 1.039 1.051 c 0.348 0.16 0.371 0.188 0.332 0.379 c -0.113 0.551 -0.863 1.852 -1.445 2.504 l -0.25 0.281 l -0.238 -0.195 c -0.379 -0.313 -0.719 -0.426 -1.277 -0.43 c -0.414 0 -0.582 0.035 -0.875 0.184 c -0.777 0.391 -1.152 1.012 -1.125 1.852 l 0.02 0.512 l -0.359 0.09 c -0.453 0.113 -2.27 0.109 -2.762 -0.008 m 2.176 -5.133 c 0.383 -0.156 0.832 -0.574 1.035 -0.969 c 0.141 -0.27 0.176 -0.449 0.176 -0.859 c -0.004 -0.82 -0.363 -1.418 -1.066 -1.766 c -0.477 -0.238 -1.371 -0.25 -1.813 -0.02 c -0.348 0.18 -0.77 0.598 -0.953 0.945 c -0.199 0.379 -0.188 1.297 0.023 1.68 c 0.41 0.762 0.969 1.098 1.809 1.098 c 0.305 0 0.637 -0.047 0.789 -0.109" fill="#dc4612"/></svg>