<svg xmlns="http://www.w3.org/2000/svg" viewBox="0 0 24 24"><path d="m 4.633 2.785 c -11.469 8.516 0.891 26.09 13 19.859 c 11.41 -5.863 5.98 -23.707 -5.984 -22.512 c -2.496 0.25 -4.914 1.09 -7.02 2.656" fill="#170a1b"/><g fill="#6f6f6f"><path d="m 16.18 11.855 c -0.098 -0.051 -1.437 -0.945 -1.984 -1.32 c -0.199 -0.137 -0.313 -0.23 -0.313 -0.262 c 0 -0.129 0.27 -0.688 0.449 -0.926 c 0.074 -0.102 0.027 -0.102 0.754 -0.004 c 0.691 0.09 1.059 0.191 1.484 0.406 c 0.32 0.16 0.508 0.309 2.023 1.609 l 0.594 0.512 l -0.582 0.016 c -0.316 0.008 -0.973 0.016 -1.453 0.02 c -0.832 0 -0.879 0 -0.973 -0.051"/><path d="m 7.5 9.676 c -0.691 -0.156 -1.211 -0.281 -1.211 -0.297 c 0 -0.016 0.672 -0.535 1.023 -0.789 c 0.438 -0.316 0.645 -0.395 1.227 -0.453 l 0.344 -0.035 l 0.25 0.109 c 0.309 0.141 0.563 0.285 0.691 0.391 c 0.172 0.141 0.434 0.492 0.371 0.492 c -0.008 0 -0.254 0.035 -0.543 0.078 c -0.832 0.121 -0.918 0.145 -1.539 0.422 c -0.176 0.078 -0.336 0.141 -0.352 0.137 c -0.016 0 -0.133 -0.023 -0.262 -0.055"/><path d="m 15.527 13.859 c -0.488 -0.098 -1.941 -0.395 -1.988 -0.41 c -0.039 -0.012 -0.039 -0.027 -0.027 -0.203 c 0.027 -0.359 0.086 -0.852 0.102 -0.867 c 0.016 -0.016 1.082 0.375 1.895 0.688 l 0.121 0.047 l 0.141 0.383 c 0.074 0.207 0.145 0.391 0.148 0.406 c 0.016 0.035 -0.016 0.031 -0.391 -0.043"/><path d="m 11.617 11.504 c -0.188 -0.18 -0.223 -0.25 -0.313 -0.633 c -0.109 -0.457 -0.109 -0.453 0.223 -0.363 c 0.32 0.09 0.637 0.113 1.137 0.086 c 0.367 -0.016 0.461 -0.031 0.762 -0.121 c 0.059 -0.016 0.113 -0.027 0.125 -0.02 c 0.055 0.035 -0.047 0.59 -0.148 0.797 c -0.055 0.113 -0.359 0.434 -0.375 0.387 c -0.004 -0.012 0.016 -0.09 0.047 -0.172 c 0.066 -0.191 0.102 -0.355 0.102 -0.484 c 0 -0.082 -0.012 -0.113 -0.074 -0.172 l -0.07 -0.074 l -0.18 0.012 c -0.188 0.016 -0.242 0.035 -0.176 0.07 c 0.031 0.02 0.035 0.055 0.035 0.215 c 0 0.281 -0.004 0.293 -0.133 0.293 h -0.109 v -0.469 l 0.066 -0.02 c 0.121 -0.043 0.07 -0.066 -0.148 -0.066 c -0.117 0 -0.301 -0.008 -0.41 -0.02 l -0.199 -0.02 l -0.074 0.07 l -0.07 0.07 l 0.012 0.176 c 0.012 0.109 0.043 0.262 0.086 0.391 c 0.043 0.121 0.066 0.215 0.059 0.215 c -0.008 0 -0.086 -0.066 -0.172 -0.148"/><path d="m 12.793 11.309 c -0.02 -0.02 -0.02 -0.375 0 -0.441 c 0.012 -0.043 0.027 -0.051 0.094 -0.051 c 0.137 0 0.164 0.051 0.152 0.273 c -0.008 0.102 -0.02 0.195 -0.027 0.211 c -0.016 0.023 -0.195 0.031 -0.219 0.008"/><path d="m 12.12 11.08 c 0 -0.277 0.016 -0.301 0.137 -0.262 c 0.078 0.023 0.078 0.027 0.094 0.168 c 0.008 0.082 0.012 0.191 0.012 0.242 v 0.094 h -0.242"/><path d="m 11.805 11.293 c -0.008 -0.016 -0.02 -0.109 -0.027 -0.207 c -0.016 -0.164 -0.012 -0.18 0.031 -0.223 c 0.035 -0.035 0.07 -0.047 0.129 -0.043 l 0.082 0.008 l 0.004 0.246 l 0.008 0.25 h -0.109 c -0.07 0 -0.109 -0.012 -0.117 -0.031"/><path d="m 11.906 13.977 c -0.027 -0.027 -0.031 -0.059 -0.02 -0.156 c 0.012 -0.121 0.129 -0.434 0.168 -0.457 c 0.023 -0.016 0.012 0.414 -0.016 0.578 c -0.012 0.082 -0.07 0.098 -0.133 0.035"/><path d="m 12.11 13.977 c -0.008 -0.008 -0.016 -0.086 -0.016 -0.176 v -0.16 h 0.285 l -0.004 0.168 l -0.008 0.172 l -0.121 0.008 c -0.066 0.004 -0.129 0 -0.137 -0.012"/><path d="m 12.457 13.969 c -0.004 -0.012 -0.016 -0.09 -0.023 -0.176 l -0.012 -0.152 h 0.293 l -0.008 0.172 l -0.004 0.168 l -0.117 0.004 c -0.063 0.004 -0.121 -0.004 -0.129 -0.016"/><path d="m 12.77 13.801 c -0.008 -0.121 -0.02 -0.27 -0.027 -0.336 l -0.012 -0.125 l 0.047 0.051 c 0.105 0.121 0.195 0.516 0.133 0.59 c -0.016 0.02 -0.051 0.035 -0.078 0.035 c -0.047 0 -0.051 -0.012 -0.063 -0.215"/><path d="m 12.457 9.523 c -0.023 -0.063 0.035 -1.574 0.059 -1.574 c 0.012 0 0.344 0.176 0.449 0.242 l 0.113 0.066 l -0.063 0.16 c -0.031 0.086 -0.066 0.184 -0.07 0.215 c -0.008 0.031 0.004 0.219 0.023 0.418 c 0.027 0.293 0.031 0.371 0.012 0.395 c -0.023 0.027 -0.195 0.07 -0.418 0.102 c -0.078 0.012 -0.098 0.008 -0.105 -0.023"/><path d="m 12.13 10.492 c -0.617 -0.074 -0.773 -0.109 -0.848 -0.188 c -0.039 -0.043 -0.258 -0.43 -0.559 -0.992 l -0.102 -0.188 l 0.148 -0.172 c 0.199 -0.23 0.207 -0.234 0.332 -0.164 c 0.121 0.066 0.203 0.176 0.203 0.266 c 0 0.035 -0.02 0.148 -0.043 0.25 c -0.063 0.266 -0.059 0.387 0.012 0.473 c 0.082 0.098 0.301 0.238 0.703 0.449 c 0.191 0.102 0.371 0.199 0.398 0.215 c 0.043 0.027 0.055 0.027 0.09 -0.004 c 0.02 -0.02 0.184 -0.109 0.363 -0.199 c 0.363 -0.188 0.578 -0.324 0.707 -0.449 c 0.086 -0.086 0.086 -0.086 0.07 -0.219 c -0.008 -0.074 -0.027 -0.195 -0.047 -0.27 c -0.066 -0.297 -0.031 -0.402 0.18 -0.527 l 0.098 -0.055 l 0.117 0.129 c 0.156 0.172 0.234 0.262 0.234 0.281 c 0 0.012 -0.145 0.285 -0.324 0.609 l -0.32 0.594 l -0.145 0.043 c -0.281 0.09 -0.984 0.152 -1.27 0.117"/><path d="m 13.18 9.328 c -0.047 -0.176 -0.074 -0.582 -0.047 -0.68 c 0.027 -0.098 0.145 -0.348 0.164 -0.348 c 0.027 0 0.406 0.184 0.406 0.199 c 0 0.004 -0.059 0.082 -0.133 0.164 c -0.156 0.188 -0.207 0.289 -0.242 0.484 c -0.016 0.094 -0.047 0.172 -0.078 0.207 l -0.051 0.059"/><path d="m 13.668 8.367 c -0.07 -0.035 -0.348 -0.168 -0.613 -0.297 l -0.484 -0.234 l 0.176 -0.078 c 0.508 -0.223 2.129 -0.891 2.164 -0.891 c 0.016 0 0.09 0.141 0.09 0.164 c 0 0 -0.039 0.027 -0.094 0.055 l -0.094 0.051 v 0.344 c 0 0.316 -0.004 0.355 -0.051 0.465 c -0.027 0.062 -0.086 0.145 -0.125 0.176 c -0.109 0.098 -0.508 0.25 -0.77 0.297 c -0.043 0.008 -0.105 -0.008 -0.195 -0.051 m 0.555 -0.188 c 0.199 -0.082 0.273 -0.223 0.285 -0.535 c 0.012 -0.262 0.004 -0.27 -0.164 -0.207 c -0.266 0.102 -0.887 0.391 -0.887 0.41 c 0 0.031 0.16 0.188 0.254 0.25 c 0.172 0.113 0.363 0.145 0.512 0.082"/><path d="m 14.219 8.891 c -0.039 -0.039 -0.109 -0.121 -0.16 -0.184 l -0.094 -0.113 l 0.074 -0.043 c 0.039 -0.023 0.203 -0.117 0.367 -0.207 c 0.164 -0.086 0.324 -0.176 0.355 -0.199 c 0.074 -0.051 0.121 -0.215 0.152 -0.527 c 0.012 -0.125 0.027 -0.262 0.031 -0.297 c 0.012 -0.066 0.082 -0.164 0.121 -0.164 c 0.027 0 0.367 0.875 0.348 0.891 c -0.004 0.004 -0.156 0.094 -0.336 0.199 c -0.375 0.219 -0.422 0.258 -0.621 0.523 c -0.078 0.105 -0.148 0.195 -0.16 0.195 c -0.008 0 -0.043 -0.035 -0.078 -0.074"/><path d="m 13.77 7.164 c 0 -0.066 0.238 -0.527 0.313 -0.602 c 0.039 -0.043 0.125 -0.117 0.191 -0.168 l 0.117 -0.09 l 0.176 0.188 c 0.168 0.184 0.172 0.188 0.125 0.223 c -0.023 0.016 -0.242 0.133 -0.484 0.258 c -0.332 0.176 -0.438 0.219 -0.438 0.191"/><path d="m 10.258 8.773 c -0.18 -0.266 -0.262 -0.34 -0.586 -0.539 c -0.266 -0.16 -0.281 -0.176 -0.273 -0.223 c 0.035 -0.141 0.297 -0.828 0.316 -0.828 c 0.066 0 0.094 0.082 0.121 0.383 c 0.031 0.32 0.07 0.504 0.121 0.559 c 0.035 0.039 0.215 0.156 0.504 0.324 c 0.117 0.07 0.219 0.133 0.223 0.145 c 0.012 0.02 -0.258 0.367 -0.281 0.367 c -0.012 0 -0.074 -0.082 -0.145 -0.188"/><path d="m 11.559 9.363 c -0.02 -0.023 -0.059 -0.129 -0.078 -0.23 c -0.051 -0.234 -0.078 -0.281 -0.242 -0.473 c -0.074 -0.086 -0.133 -0.16 -0.133 -0.164 c 0 -0.016 0.332 -0.168 0.387 -0.176 c 0.035 -0.008 0.059 0.023 0.113 0.137 c 0.066 0.129 0.07 0.16 0.07 0.34 c 0 0.262 -0.031 0.559 -0.059 0.586 c -0.012 0.016 -0.035 0.008 -0.059 -0.02"/><path d="m 12.11 10.191 c -0.141 -0.047 -0.297 -0.137 -0.484 -0.273 c -0.246 -0.184 -0.281 -0.23 -0.262 -0.367 c 0.008 -0.063 0.02 -0.121 0.027 -0.137 c 0.012 -0.02 0.109 0.023 0.313 0.137 c 0.289 0.156 0.43 0.207 0.586 0.207 h 0.074 v 0.172 c -0.004 0.234 -0.02 0.277 -0.098 0.285 c -0.039 0 -0.105 -0.008 -0.156 -0.023 m -0.102 -0.195 c -0.102 -0.074 -0.238 -0.184 -0.309 -0.246 c -0.07 -0.059 -0.137 -0.102 -0.141 -0.094 c -0.027 0.023 0.035 0.188 0.086 0.234 c 0.09 0.086 0.488 0.273 0.527 0.246 c 0.012 -0.004 -0.063 -0.07 -0.164 -0.141"/><path d="m 12.496 10.191 c -0.027 -0.035 -0.059 -0.305 -0.039 -0.375 c 0.012 -0.047 0.027 -0.055 0.152 -0.066 c 0.113 -0.012 0.195 -0.043 0.473 -0.184 c 0.184 -0.094 0.34 -0.164 0.348 -0.156 c 0.008 0.008 0.02 0.078 0.023 0.152 l 0.012 0.141 l -0.109 0.09 c -0.191 0.164 -0.473 0.34 -0.617 0.383 c -0.164 0.051 -0.211 0.055 -0.242 0.016 m 0.449 -0.16 c 0.09 -0.039 0.191 -0.105 0.227 -0.141 c 0.063 -0.063 0.113 -0.207 0.082 -0.238 c -0.008 -0.004 -0.059 0.031 -0.109 0.078 c -0.055 0.051 -0.191 0.156 -0.301 0.238 c -0.109 0.082 -0.195 0.152 -0.195 0.156 c 0 0.027 0.145 -0.02 0.297 -0.094"/><path d="m 6.02 11.883 l -0.461 -0.012 l 0.535 -0.457 c 1.664 -1.418 1.766 -1.496 2.121 -1.676 c 0.48 -0.242 0.941 -0.348 1.996 -0.461 l 0.156 -0.016 l 0.148 0.227 c 0.152 0.227 0.332 0.613 0.355 0.758 c 0.008 0.07 -0.004 0.086 -0.176 0.199 c -0.102 0.07 -0.629 0.426 -1.176 0.793 l -0.996 0.672 l -1.02 -0.008 c -0.563 -0.004 -1.23 -0.012 -1.484 -0.02"/><path d="m 7.527 13.176 c 0.137 -0.184 0.672 -0.637 1.387 -1.164 c 1.023 -0.762 1.988 -1.453 2.02 -1.453 c 0.012 0 0.039 0.109 0.059 0.246 c 0.043 0.309 0.125 1.016 0.125 1.082 c 0 0.078 -0.902 0.531 -2.01 1.012 c -0.367 0.16 -0.512 0.203 -0.867 0.262 c -0.234 0.039 -0.5 0.07 -0.59 0.07 c -0.148 0 -0.16 -0.004 -0.121 -0.055"/><path d="m 8.867 13.828 c 0.008 -0.023 0.074 -0.199 0.145 -0.387 c 0.066 -0.188 0.137 -0.355 0.156 -0.375 c 0.027 -0.027 1.059 -0.426 1.703 -0.656 l 0.309 -0.109 l 0.031 0.285 c 0.031 0.301 0.07 0.785 0.063 0.797 c -0.012 0.02 -2.309 0.488 -2.391 0.488 c -0.02 0 -0.027 -0.016 -0.016 -0.043"/><path d="m 12.12 15.492 c -0.465 -0.16 -0.465 -0.16 -0.492 -0.25 c -0.047 -0.168 -0.137 -1.023 -0.266 -2.535 c -0.051 -0.563 -0.098 -1.086 -0.105 -1.164 l -0.016 -0.141 l 0.066 0.07 c 0.039 0.039 0.113 0.137 0.172 0.223 l 0.105 0.148 l 0.031 1.258 c 0.02 0.738 0.043 1.297 0.063 1.363 c 0.031 0.121 0.066 0.141 0.355 0.207 c 0.102 0.023 0.199 0.055 0.211 0.07 c 0.035 0.035 -0.035 0.766 -0.07 0.762 c -0.016 0 -0.039 -0.008 -0.055 -0.012"/><path d="m 12.08 13.16 c -0.137 -0.07 -0.195 -0.262 -0.266 -0.855 c -0.059 -0.496 -0.078 -0.441 0.203 -0.578 c 0.203 -0.102 0.242 -0.113 0.266 -0.082 c 0.027 0.043 0.031 1.281 0.004 1.434 c -0.016 0.086 -0.031 0.102 -0.082 0.109 c -0.035 0.004 -0.09 -0.008 -0.125 -0.027"/><path d="m 12.398 13.172 c -0.023 -0.043 -0.047 -1.031 -0.027 -1.305 l 0.02 -0.27 l 0.508 0.234 l -0.016 0.211 c -0.027 0.371 -0.094 0.789 -0.137 0.914 c -0.031 0.078 -0.074 0.141 -0.133 0.176 c -0.086 0.059 -0.188 0.078 -0.215 0.035"/><path d="m 12.473 15.387 c -0.035 -0.289 -0.059 -0.629 -0.051 -0.648 c 0.008 -0.012 0.066 -0.027 0.133 -0.039 c 0.18 -0.027 0.375 -0.098 0.41 -0.141 c 0.055 -0.074 0.074 -0.352 0.105 -1.527 c 0.023 -0.98 0.035 -1.188 0.07 -1.25 c 0.059 -0.105 0.262 -0.371 0.273 -0.359 c 0.035 0.039 -0.285 3.457 -0.352 3.762 l -0.031 0.137 l -0.203 0.074 c -0.348 0.129 -0.336 0.133 -0.355 -0.008"/><path d="m 16.746 13.11 c -0.336 -0.035 -0.711 -0.117 -0.934 -0.199 c -0.281 -0.105 -1.547 -0.672 -1.953 -0.875 l -0.258 -0.129 l 0.012 -0.129 c 0.023 -0.266 0.102 -0.883 0.133 -1.043 l 0.031 -0.172 l 0.242 0.168 c 0.137 0.09 0.781 0.551 1.434 1.016 c 1.066 0.766 1.285 0.938 1.652 1.285 l 0.105 0.098 l -0.18 -0.004 c -0.102 0 -0.23 -0.008 -0.285 -0.016"/><path d="m 16.723 9.684 c -0.621 -0.293 -0.883 -0.367 -1.699 -0.484 c -0.273 -0.039 -0.504 -0.078 -0.516 -0.086 c -0.027 -0.023 0.188 -0.305 0.352 -0.457 c 0.102 -0.09 0.258 -0.184 0.535 -0.32 c 0.438 -0.219 0.422 -0.215 0.895 -0.16 c 0.305 0.035 0.566 0.102 0.734 0.188 c 0.074 0.039 0.402 0.273 0.734 0.52 c 0.559 0.426 0.684 0.527 0.66 0.543 c -0.027 0.02 -1.473 0.352 -1.5 0.348 c -0.004 0 -0.094 -0.043 -0.195 -0.09"/><path d="m 16.77 8.098 c -0.105 -0.031 -0.34 -0.086 -0.52 -0.113 c -0.18 -0.031 -0.352 -0.063 -0.375 -0.07 c -0.039 -0.016 -0.027 -0.043 0.098 -0.207 c 0.082 -0.105 0.195 -0.301 0.258 -0.434 c 0.059 -0.133 0.129 -0.285 0.152 -0.336 l 0.043 -0.094 l 0.73 0.41 c 0.398 0.227 0.727 0.418 0.727 0.426 c 0 0.016 -0.875 0.484 -0.902 0.48 c -0.012 0 -0.105 -0.027 -0.211 -0.063"/><path d="m 15.441 7.813 c -0.027 -0.051 -0.125 -0.27 -0.219 -0.488 c -0.293 -0.672 -0.301 -0.684 -0.363 -0.684 c -0.074 0 -0.137 -0.07 -0.402 -0.434 c -0.375 -0.512 -0.559 -0.789 -0.543 -0.82 c 0.027 -0.078 0.73 -0.527 0.824 -0.527 c 0.016 0 0.09 0.117 0.168 0.254 c 0.078 0.141 0.148 0.258 0.156 0.258 c 0.031 0 0.398 -0.23 0.566 -0.352 c 0.105 -0.078 0.363 -0.316 0.574 -0.531 l 0.387 -0.387 l 0.02 0.117 c 0.035 0.211 0.02 0.84 -0.027 1.152 c -0.172 1.125 -0.59 2.191 -0.961 2.465 c -0.055 0.039 -0.109 0.074 -0.117 0.074 c -0.012 0 -0.039 -0.043 -0.066 -0.098 m 0.316 -0.277 c 0.305 -0.414 0.563 -1.129 0.723 -1.992 c 0.07 -0.391 0.117 -1.109 0.07 -1.078 c -0.02 0.008 -0.086 0.113 -0.148 0.23 c -0.199 0.355 -0.414 0.621 -0.727 0.891 c -0.328 0.285 -0.5 0.461 -0.594 0.617 c -0.098 0.168 -0.074 0.273 0.195 0.879 c 0.234 0.523 0.289 0.625 0.332 0.625 c 0.012 0 0.078 -0.078 0.148 -0.172"/><path d="m 10.813 6.367 c -0.063 -0.039 -0.168 -0.109 -0.234 -0.156 c -0.105 -0.078 -0.113 -0.094 -0.09 -0.141 c 0.063 -0.121 0.57 -0.961 0.617 -1.02 l 0.051 -0.063 l 0.191 0.117 c 0.102 0.066 0.254 0.168 0.332 0.23 c 0.078 0.059 0.16 0.109 0.18 0.109 c 0.066 0 0.191 -0.168 0.328 -0.453 c 0.074 -0.156 0.141 -0.281 0.148 -0.281 c 0.004 0 0.066 0.121 0.137 0.27 c 0.078 0.168 0.168 0.316 0.234 0.383 l 0.102 0.109 l 0.207 -0.152 c 0.313 -0.238 0.488 -0.336 0.527 -0.301 c 0.016 0.02 0.176 0.27 0.352 0.563 l 0.324 0.531 l -0.063 0.047 c -0.109 0.086 -0.402 0.277 -0.422 0.277 c -0.012 0 -0.047 -0.082 -0.078 -0.18 c -0.102 -0.309 -0.152 -0.32 -0.898 -0.227 c -0.414 0.055 -0.441 0.055 -0.738 0.016 c -0.168 -0.023 -0.422 -0.051 -0.566 -0.059 l -0.258 -0.016 l -0.07 0.078 c -0.039 0.039 -0.094 0.145 -0.121 0.23 c -0.023 0.086 -0.051 0.156 -0.063 0.156 c -0.008 0 -0.066 -0.035 -0.129 -0.07"/><path d="m 12.633 7.535 c -0.059 -0.137 -0.035 -0.43 0.055 -0.719 c 0.082 -0.262 0.082 -0.27 0.051 -0.477 c -0.016 -0.117 -0.023 -0.219 -0.012 -0.23 c 0.031 -0.031 0.605 -0.02 0.688 0.02 c 0.098 0.039 0.137 0.133 0.137 0.332 c 0 0.137 -0.004 0.148 -0.117 0.254 c -0.152 0.152 -0.199 0.234 -0.285 0.488 c -0.078 0.23 -0.098 0.25 -0.352 0.348 l -0.133 0.055"/><path d="m 12.234 7.664 l -0.082 -0.094 l 0.016 -0.293 c 0.016 -0.281 0.016 -0.305 -0.059 -0.547 c -0.078 -0.246 -0.105 -0.527 -0.059 -0.559 c 0.012 -0.008 0.074 0.02 0.141 0.063 c 0.066 0.039 0.129 0.074 0.145 0.074 c 0.012 0 0.078 -0.031 0.145 -0.074 c 0.063 -0.039 0.125 -0.07 0.137 -0.063 c 0.051 0.031 0.02 0.328 -0.059 0.566 c -0.074 0.234 -0.074 0.254 -0.059 0.535 c 0.016 0.277 0.012 0.297 -0.039 0.363 c -0.098 0.125 -0.137 0.129 -0.227 0.027"/><path d="m 11.844 7.543 c -0.215 -0.09 -0.258 -0.125 -0.293 -0.246 c -0.09 -0.293 -0.141 -0.395 -0.289 -0.547 l -0.148 -0.16 l 0.008 -0.18 c 0.016 -0.238 0.066 -0.293 0.313 -0.316 c 0.152 -0.02 0.492 0 0.516 0.023 c 0.004 0.008 -0.004 0.105 -0.02 0.223 c -0.031 0.207 -0.031 0.215 0.047 0.465 c 0.043 0.141 0.086 0.313 0.094 0.383 c 0.016 0.125 -0.023 0.379 -0.063 0.402 c -0.012 0.008 -0.082 -0.016 -0.164 -0.047"/><path d="m 10.531 6.949 c -0.598 -0.313 -0.559 -0.262 -0.359 -0.48 l 0.164 -0.184 l 0.109 0.074 c 0.172 0.117 0.293 0.273 0.41 0.527 c 0.063 0.129 0.109 0.246 0.105 0.262 c -0.004 0.012 -0.199 -0.078 -0.43 -0.199"/><path d="m 9.141 7.891 c -0.355 -0.125 -0.828 -1.203 -1.027 -2.355 c -0.078 -0.449 -0.098 -1.023 -0.047 -1.355 l 0.012 -0.086 l 0.375 0.379 c 0.207 0.207 0.445 0.434 0.531 0.504 c 0.176 0.141 0.586 0.391 0.625 0.375 c 0.016 -0.004 0.086 -0.117 0.16 -0.25 c 0.074 -0.133 0.148 -0.238 0.164 -0.238 c 0.102 0 0.828 0.473 0.828 0.535 c 0 0.047 -0.695 1.027 -0.832 1.172 c -0.035 0.039 -0.09 0.07 -0.121 0.07 c -0.063 0 -0.078 0.023 -0.395 0.762 c -0.109 0.258 -0.207 0.477 -0.219 0.484 c -0.008 0.008 -0.035 0.012 -0.055 0.004 m 0.02 -0.301 c 0.031 -0.055 0.152 -0.32 0.27 -0.586 c 0.223 -0.504 0.254 -0.625 0.188 -0.754 c -0.074 -0.145 -0.234 -0.324 -0.512 -0.57 c -0.457 -0.402 -0.637 -0.617 -0.867 -1.043 c -0.051 -0.098 -0.109 -0.18 -0.121 -0.18 c -0.039 0 0 0.668 0.063 1.016 c 0.113 0.656 0.293 1.254 0.52 1.699 c 0.125 0.254 0.328 0.543 0.371 0.527 c 0.02 -0.004 0.059 -0.055 0.09 -0.109"/><path d="m 7.34 7.996 c -0.172 -0.094 -0.371 -0.199 -0.438 -0.238 l -0.125 -0.07 l 0.363 -0.215 c 0.352 -0.211 1.086 -0.629 1.102 -0.629 c 0 0 0.066 0.137 0.141 0.309 c 0.082 0.188 0.195 0.391 0.289 0.527 c 0.133 0.18 0.152 0.219 0.117 0.234 c -0.023 0.012 -0.188 0.043 -0.371 0.07 c -0.18 0.027 -0.414 0.078 -0.516 0.113 c -0.105 0.035 -0.203 0.066 -0.219 0.066 c -0.012 0 -0.168 -0.078 -0.344 -0.168"/><path d="m 10.707 8.367 c -0.418 -0.113 -0.641 -0.242 -0.734 -0.426 c -0.055 -0.109 -0.059 -0.152 -0.059 -0.477 v -0.355 l -0.094 -0.051 c -0.094 -0.055 -0.094 -0.055 -0.055 -0.129 c 0.02 -0.039 0.039 -0.078 0.043 -0.082 c 0.016 -0.012 2.324 0.938 2.367 0.973 c 0.008 0.008 -1.188 0.562 -1.25 0.578 c -0.027 0.008 -0.125 -0.004 -0.219 -0.031 m 0.219 -0.23 c 0.125 -0.059 0.344 -0.246 0.344 -0.289 c 0 -0.031 -0.422 -0.242 -0.805 -0.398 c -0.262 -0.105 -0.27 -0.098 -0.246 0.203 c 0.016 0.25 0.078 0.387 0.211 0.477 c 0.113 0.078 0.348 0.082 0.496 0.008"/><path d="m 13.824 7.906 c -0.039 -0.027 -0.07 -0.063 -0.07 -0.078 c 0 -0.023 0.402 -0.223 0.453 -0.223 c 0.074 0 -0.008 0.281 -0.094 0.328 c -0.082 0.043 -0.215 0.031 -0.289 -0.027"/><path d="m 10.543 7.922 c -0.07 -0.047 -0.117 -0.176 -0.098 -0.254 c 0.012 -0.059 0.016 -0.059 0.109 -0.027 c 0.148 0.051 0.359 0.164 0.359 0.191 c 0 0.012 -0.031 0.047 -0.074 0.074 c -0.086 0.063 -0.219 0.07 -0.297 0.016"/><path d="m 11.938 9.5 c -0.078 -0.016 -0.152 -0.043 -0.168 -0.059 c -0.016 -0.023 -0.016 -0.102 0 -0.32 c 0.039 -0.441 0.035 -0.523 -0.035 -0.715 c -0.059 -0.152 -0.063 -0.168 -0.027 -0.188 c 0.113 -0.074 0.52 -0.285 0.527 -0.277 c 0.004 0.008 0.02 0.289 0.031 0.633 c 0.012 0.34 0.023 0.695 0.027 0.789 l 0.004 0.172 l -0.105 -0.004 c -0.059 0 -0.172 -0.016 -0.254 -0.031"/></g><g fill="#fff"><path d="m 5.82 19.574 c -0.078 -0.027 -0.598 -0.383 -0.684 -0.465 c -0.375 -0.379 -0.469 -0.711 -0.453 -1.656 c 0.008 -0.391 0.016 -0.484 0.047 -0.504 c 0.043 -0.027 0.254 -0.008 0.289 0.027 c 0.012 0.012 0.031 0.313 0.043 0.664 c 0.02 0.699 0.031 0.766 0.176 0.973 c 0.109 0.164 0.383 0.375 0.426 0.332 c 0.012 -0.008 0.023 -0.457 0.031 -0.996 l 0.012 -0.984 l 0.082 -0.023 c 0.043 -0.012 0.117 -0.016 0.168 -0.004 l 0.086 0.016 l 0.016 0.5 c 0.023 0.637 0.055 0.922 0.121 1.063 c 0.059 0.125 0.27 0.332 0.406 0.398 l 0.082 0.043 l 0.02 -0.145 c 0.008 -0.082 0.012 -0.5 0.004 -0.934 c -0.012 -0.719 -0.02 -0.793 -0.063 -0.855 l -0.047 -0.07 l 0.09 -0.016 c 0.051 -0.012 0.156 -0.008 0.234 0.004 l 0.145 0.023 l 0.008 1.137 l 0.004 1.137 l -0.09 0.18 c -0.07 0.137 -0.102 0.18 -0.133 0.172 c -0.023 -0.008 -0.203 -0.113 -0.395 -0.234 c -0.191 -0.121 -0.359 -0.219 -0.371 -0.219 c -0.012 0 -0.027 0.039 -0.035 0.082 c -0.023 0.129 -0.172 0.371 -0.219 0.355"/><path d="m 7.789 19.395 l -0.145 -0.145 l -0.016 -1.078 c -0.016 -1.01 -0.02 -1.086 -0.063 -1.141 c -0.051 -0.063 -0.051 -0.063 0.008 -0.086 c 0.074 -0.027 0.371 -0.008 0.406 0.027 c 0.051 0.051 0.023 2.57 -0.027 2.57 c -0.012 0 -0.082 -0.066 -0.164 -0.148"/><path d="m 9.148 19.625 c -0.07 -0.008 -0.082 -0.02 -0.094 -0.09 c -0.008 -0.043 -0.02 -0.527 -0.027 -1.07 c -0.008 -0.543 -0.016 -0.992 -0.02 -0.996 c -0.008 -0.004 -0.148 -0.02 -0.32 -0.031 c -0.168 -0.016 -0.316 -0.031 -0.332 -0.039 c -0.016 -0.012 -0.027 -0.113 -0.027 -0.23 v -0.215 h 0.332 c 0.223 0 0.328 -0.012 0.328 -0.027 c 0 -0.039 0.387 0.32 0.422 0.391 c 0.02 0.039 0.02 0.18 0.008 0.461 c -0.012 0.223 -0.02 0.652 -0.023 0.953 c 0 0.301 -0.008 0.621 -0.016 0.715 c -0.016 0.156 -0.02 0.168 -0.082 0.176 c -0.039 0.008 -0.105 0.008 -0.148 0.004"/><path d="m 9.805 17.281 c -0.172 -0.145 -0.285 -0.266 -0.285 -0.309 c 0 -0.012 0.133 -0.02 0.289 -0.02 h 0.293 l 0.016 0.453 l -0.07 0.008 c -0.051 0.008 -0.105 -0.02 -0.242 -0.133"/><path d="m 10.785 18.203 c -0.207 -0.223 -0.207 -0.219 -0.219 -0.676 c -0.008 -0.277 -0.023 -0.434 -0.047 -0.48 c -0.02 -0.035 -0.035 -0.074 -0.035 -0.082 c 0 -0.008 0.32 -0.012 0.711 -0.012 h 0.707 v 0.215 c 0 0.188 -0.004 0.219 -0.047 0.242 c -0.027 0.012 -0.207 0.027 -0.398 0.027 c -0.195 0.004 -0.387 0.012 -0.43 0.02 l -0.074 0.016 l -0.008 0.375 c -0.004 0.207 -0.016 0.398 -0.027 0.426 c -0.016 0.051 -0.027 0.043 -0.133 -0.07"/><path d="m 11.84 19.645 c -0.016 -0.027 -0.742 -0.508 -0.926 -0.617 c -0.063 -0.035 -0.137 -0.09 -0.168 -0.125 c -0.07 -0.074 -0.137 -0.227 -0.137 -0.313 c 0 -0.063 0 -0.063 0.078 -0.023 c 0.113 0.059 0.297 0.203 0.438 0.344 c 0.172 0.168 0.305 0.227 0.598 0.262 l 0.242 0.027 l 0.008 0.168 c 0.004 0.09 -0.004 0.195 -0.016 0.234 c -0.027 0.066 -0.09 0.09 -0.117 0.043"/><path d="m 13.824 20.09 c 0 0 -0.016 -0.332 -0.031 -0.734 c -0.016 -0.402 -0.043 -0.742 -0.055 -0.754 c -0.02 -0.02 -0.395 -0.082 -0.852 -0.141 l -0.113 -0.016 l -0.02 0.25 c -0.008 0.137 -0.016 0.391 -0.016 0.57 c 0 0.367 -0.008 0.383 -0.211 0.371 c -0.105 -0.008 -0.105 -0.012 -0.121 -0.125 c -0.012 -0.063 -0.02 -0.629 -0.02 -1.258 c -0.004 -1.129 -0.004 -1.148 -0.055 -1.215 c -0.031 -0.039 -0.047 -0.078 -0.039 -0.086 c 0.023 -0.023 0.367 -0.02 0.426 0.004 c 0.039 0.012 0.047 0.063 0.047 0.496 c 0 0.438 0.004 0.484 0.043 0.496 c 0.043 0.012 0.574 0.094 0.82 0.129 c 0.148 0.02 0.148 0.027 0.152 -0.547 c 0 -0.242 0.008 -0.473 0.02 -0.504 c 0.02 -0.078 0.125 -0.113 0.262 -0.09 l 0.098 0.016 l -0.008 1.336 l -0.008 1.34 l -0.066 0.145 c -0.09 0.191 -0.227 0.363 -0.254 0.316"/><path d="m 15.574 19.617 c -0.332 -0.055 -0.668 -0.371 -0.84 -0.797 l -0.082 -0.203 l -0.012 -0.781 c -0.012 -0.574 -0.023 -0.789 -0.047 -0.813 c -0.016 -0.016 -0.031 -0.039 -0.031 -0.051 c 0 -0.012 0.293 -0.02 0.645 -0.02 h 0.645 l 0.016 0.176 c 0.012 0.098 0.012 0.188 0.004 0.203 c -0.012 0.016 -0.16 0.027 -0.406 0.027 h -0.387 l -0.016 0.133 c -0.02 0.168 -0.02 0.309 0 0.359 c 0.012 0.035 0.063 0.039 0.293 0.039 h 0.281 l -0.016 0.137 c -0.012 0.07 -0.02 0.18 -0.02 0.238 v 0.109 h -0.207 c -0.352 0 -0.367 0.016 -0.277 0.281 c 0.129 0.379 0.285 0.504 0.652 0.539 l 0.074 0.004 l 0.008 0.203 c 0.008 0.258 0 0.266 -0.277 0.219"/><path d="m 18.02 19.773 c -0.152 -0.109 -0.449 -0.434 -0.793 -0.859 c -0.438 -0.539 -0.508 -0.547 -0.508 -0.059 c 0 0.148 -0.008 0.379 -0.016 0.516 l -0.02 0.246 h -0.371 v -1.285 c 0 -1.129 -0.004 -1.293 -0.039 -1.332 c -0.039 -0.039 -0.016 -0.043 0.332 -0.063 c 0.355 -0.016 1.074 0.004 1.102 0.031 c 0.016 0.016 0.008 0.582 -0.012 0.684 c -0.008 0.043 -0.094 0.191 -0.191 0.332 c -0.098 0.137 -0.188 0.277 -0.195 0.309 c -0.02 0.082 0.086 0.242 0.527 0.805 c 0.332 0.422 0.379 0.492 0.379 0.574 c 0 0.195 -0.043 0.215 -0.195 0.102 m -1 -1.902 c 0.164 -0.184 0.336 -0.438 0.324 -0.473 c -0.004 -0.016 -0.113 -0.027 -0.297 -0.027 h -0.289 l -0.02 0.152 c -0.012 0.086 -0.012 0.23 -0.004 0.324 c 0.016 0.168 0.016 0.172 0.086 0.172 c 0.055 0 0.102 -0.035 0.199 -0.148"/></g><g fill="#ff3434"><path d="m 18.52 19.527 c -0.117 -0.113 -0.059 -0.523 0.121 -0.844 c 0.051 -0.09 0.215 -0.309 0.371 -0.48 c 0.309 -0.352 0.492 -0.633 0.492 -0.746 c 0 -0.141 -0.172 -0.293 -0.324 -0.293 c -0.09 0 -0.258 0.156 -0.332 0.309 c -0.074 0.145 -0.078 0.148 -0.172 0.086 c -0.09 -0.063 -0.148 -0.027 -0.238 0.141 c -0.074 0.133 -0.082 0.141 -0.094 0.078 c -0.031 -0.203 0.129 -0.613 0.324 -0.828 c 0.148 -0.164 0.242 -0.207 0.484 -0.238 c 0.285 -0.035 0.504 0.109 0.688 0.441 c 0.039 0.07 0.078 0.129 0.09 0.129 c 0.016 0 0.094 -0.07 0.176 -0.152 c 0.18 -0.184 0.18 -0.172 -0.039 0.352 c -0.191 0.457 -0.293 0.602 -0.738 1.082 c -0.391 0.422 -0.434 0.504 -0.27 0.539 c 0.055 0.008 0.191 0.016 0.309 0.016 c 0.117 0 0.281 0.008 0.371 0.02 l 0.156 0.02 v 0.43 h -0.66 c -0.617 0 -0.66 -0.004 -0.715 -0.059"/><path d="m 11.125 18.785 c -0.199 -0.09 -0.254 -0.133 -0.664 -0.492 c -0.23 -0.203 -0.691 -0.656 -0.902 -0.887 c -0.082 -0.09 -0.266 -0.273 -0.406 -0.406 c -0.246 -0.23 -0.789 -0.852 -0.766 -0.875 c 0.012 -0.012 0.328 0.199 0.5 0.34 c 0.063 0.051 0.262 0.234 0.445 0.41 c 0.18 0.18 0.398 0.379 0.48 0.449 c 0.234 0.191 0.668 0.641 0.723 0.742 c 0.051 0.102 0.309 0.359 0.613 0.613 c 0.109 0.09 0.199 0.172 0.199 0.184 c 0 0.027 0.016 0.031 -0.223 -0.078"/><path d="m 12.598 20.719 c -0.207 -0.141 -0.461 -0.293 -0.563 -0.332 c -0.102 -0.039 -0.242 -0.109 -0.313 -0.16 c -0.195 -0.129 -0.469 -0.41 -0.492 -0.504 c -0.012 -0.043 -0.207 -0.227 -0.43 -0.406 c -0.449 -0.363 -0.797 -0.727 -0.727 -0.758 c 0.063 -0.023 0.395 0.211 0.738 0.52 c 0.156 0.137 0.301 0.254 0.32 0.254 c 0.02 0 0.051 0.023 0.066 0.055 c 0.09 0.176 0.828 0.738 0.984 0.746 c 0.109 0.008 0.934 0.852 0.828 0.852 c -0.02 0 -0.207 -0.121 -0.414 -0.262"/></g></svg>