<svg xmlns="http://www.w3.org/2000/svg" viewBox="0 0 24 24"><path d="m 19.656 21.375 c -14.398 11.168 -29.34 -16.645 -11.52 -20.715 c 11.223 -4.168 22.19 12.438 11.52 20.715" fill="#0b4751"/><path d="m 144.31 50.46 c 0.671 0.023 1.179 1.65 1.219 3.694 l -0.039 38.838 c 0.04 2.045 -0.535 3.727 -1.207 3.704 c -0.668 0.018 -1.221 -1.646 -1.219 -3.694 l -0.003 -38.834 c 0.002 -2.048 0.58 -3.689 1.248 -3.707" transform="matrix(0.09337 0.00841 -0.00755 0.09345 0 0)" fill="#121a1a" stroke="#121a1a" stroke-width="0.078"/><path d="m 99.38 187.91 c -7.333 -0.417 -7.792 -0.625 -7.792 -3.875 c -0.792 -4.75 -4.167 -5.083 -4.417 -8.792 c 4.417 -9.708 9.375 -8.04 1.25 -21.667 c 1.292 -3.708 -1.083 -7.208 5.04 -7.792 l 1.792 -7.958 l 0.542 -10.417 c 0.667 -12.542 -0.625 -19.08 -1.125 -19.08 c -3.292 -1.958 -5 -4.542 -9.167 -4.542 c -4.917 0.792 -2.958 -4.25 -2.958 -7.958 l 2.708 -5.542 l 18.292 -11.25 c 34.667 1.667 17.417 9.08 18.417 14.542 c -1.25 3.25 -1.792 4.667 0.125 6.125 c 4.25 0.458 5.083 0.708 6.875 2.208 c 1 0.833 2.958 1.417 7 2.083 l 1.5 0.208 l 0.167 8.542 c 0.208 9.292 0.583 11.208 2.542 11.958 c 0.542 0.208 1.125 0.583 1.292 0.875 c 0.458 0.75 1 11.667 0.625 13.208 c -0.333 1.5 -1.583 3.042 -6.292 7.625 c -3.542 3.458 -4.083 3.75 -6.875 3.792 c -3.833 0 -2.875 -2.792 -2.75 -0.292 l 0.292 5.667 l 8.75 -0.375 c 3.292 0.958 9.833 -1.583 12 1.625 c 2.833 2 6.083 9.25 8.583 8.5 c 1.25 1.708 3.083 2.625 4.208 4.458 c 0.292 0.75 0.792 1.333 1.083 1.333 c 0.25 0 2.292 -1.167 4.5 -2.667 c 2.583 -2.292 4.333 -2.667 7.583 -2.667 c 8.08 0.042 13.208 2.667 16.13 8.208 c 0.958 1.833 4.958 5.333 6.917 6 c 0.833 0.292 2.25 0.542 3.167 0.583 c 0.917 0 2 0.25 2.458 0.583 c 1.625 2 -4.5 6.708 -6.25 6.25 c -2.417 -3.25 -3.875 -3.5 -6.625 -3.708 c -3.5 -0.292 -5.25 -0.958 -6.542 -2.458 c -0.833 -0.958 -1.208 -1.083 -4.333 -1.167 c -7.625 -0.25 -7.917 -0.167 -10.167 1.917 c -1.292 1.083 -2.75 1.958 -3.458 3.25 c -0.75 1.792 -2.833 2.625 -7.333 3 c -4.083 0.292 -4.875 -0.042 -5.583 -2.333 c -1.5 -4.167 -8 -4.958 -8.792 -8.583 c -0.208 -1.292 -0.542 -1.792 -1.292 -2.083 c -4.792 0.917 -13.958 -2.333 -17.208 2.042 c -0.667 1.208 -1.167 1.417 -5.5 2.5 c -9.75 7.917 -5.083 9.125 -19.375 8.125 m 28.08 -32.04 c 0.792 -0.917 0.375 -5.542 -1.208 -6.208 c -1.292 -0.5 -7.75 0.583 -8.625 1.125 c -1.208 1.167 -1 2 -1 3.542 h 2.208 c 3.375 0.292 5.667 3.333 8.625 1.542 m -30.917 -63.42 c 0.25 -1.75 -4.5 -1.542 -5.125 0.125 c -0.417 1.083 0.542 3.708 2.167 3.583 c 1.167 -0.083 2.833 -3 2.958 -3.708" transform="matrix(0.09375 0 0 0.09375 -0.125 0.376)" fill="#fccd9c" stroke="#1b8e1b" stroke-width="0.031"/><g fill="#440505" stroke="#440505"><g stroke-width="0.058" transform="scale(0.09375)"><path d="m 70.875 83.13 c 0.75 -2.625 4.333 -0.708 4.75 -3.208 c 0.208 -1.667 0.5 -1.708 10.292 -1.917 c 9.958 -0.208 11.667 -2.625 11.917 -0.917 c 13.667 -0.333 -1.25 4.583 14.04 4.542 c 8.04 0 9.958 -0.458 10.583 -2.375 c 0.542 -1.75 2.333 -1.875 2.958 -0.208 c 0.25 0.667 3.417 1.458 3.417 3.125 c 13.208 7.167 -5.25 16.208 -9.958 9.167 c -5.625 -4.458 -13.792 -4 -14.208 -1.917 c -5.583 3.625 -33.75 -4.333 -33.792 -6.292"/><path d="m 109.71 74.58 c -0.25 -1.667 -0.625 -1.75 -8.458 -1.958 c -7.417 -0.167 -8.208 -0.333 -8.208 -1.625 c 0 -0.875 0.708 -1.583 1.833 -1.875 c 1.042 -0.25 2.083 -1.167 2.375 -2.042 c 1.875 -2.167 4.958 -6.04 6.417 -6.04 c 3.542 0 6.04 -1.292 6.292 -3.208 c 0.375 -2.583 2.917 -2.833 2.917 -0.292 c 0 1.375 0.583 2.25 1.875 2.833 c 2.292 1.208 2.625 4.04 4.5 5.25 c 1.5 0 2.042 1.667 2.042 6.542 v 4.125 h -5.667 c -5.333 0 -5.708 -0.083 -5.917 -1.708"/></g><path d="m 112.5 125.28 c 0.708 -12.458 2.292 -23.458 3.542 -24.375 c 4.083 -3.083 13.08 -1.875 14.375 1.875 c 0.708 2.042 1.25 7.292 1.25 11.625 c 0 6.958 -0.667 7.958 -5.125 7.958 c -4.625 0 -5.167 0.958 -5.167 9.125 c 0 12.04 -1.125 11.04 -5.792 11.04 c -3.583 0 -4.292 3.833 -3.083 -17.25" transform="matrix(0.09375 0 0 0.09375 -0.125 0.376)" stroke-width="0.166"/></g><g stroke="#1b8e1b"><path d="m 158.67 87.7 c -0.792 -2.917 -4.542 -2.083 -5.417 -4.5 c -1.042 -2.917 -2.333 -3.5 -8.04 -3.5 h -5 l 0.083 -4.5 c 0.25 -11 2.833 -18.08 4.5 -12.167 c 0.75 2.708 3.167 3.458 11.375 3.458 c 10.625 1.333 5.708 4.708 15.667 4.708 c 7.417 0 8.333 0.208 8 1.667 c -0.167 0.917 -1.375 1.792 -2.667 1.958 c -2.125 0.25 -2.375 0.833 -2.375 5.417 c 0.042 4.04 1.167 5.083 -3.375 5.125 c -7.208 -0.375 -11.25 7.167 -12.75 2.333" transform="matrix(0.09375 0 0 0.09375 -0.125 0.376)" fill="#1b8e1b" stroke-width="0.076"/><g stroke-width="0.058" transform="scale(0.09375)"><path d="m 115.38 152.13 c -1.458 -0.292 -1.708 -0.833 -1.708 -3.333 c 0 -2.542 0.25 -3 1.583 -3 c 5.583 -2.333 3.125 -6.958 3 -11.458 c 0 -1.125 1.583 -10.458 2.958 -10.458 c 2.417 -7.708 1.292 -6.458 1.625 -8.25 c 0.458 -2.5 1.917 -5.917 2.917 -6.208 c 1.292 -0.417 1.583 -2.625 7.458 -4.25 c 6.958 1.667 24.958 13.75 14.333 15 c -1.417 4.833 -0.625 5.5 -0.25 8.708 c 5.833 0.333 -0.792 8.542 -0.792 9.667 c -2.625 2.792 -3.625 4.167 -4.208 7 c -4.708 8.292 -7.708 9.04 -17.958 8.917 c -5.75 -0.042 -8 -2.125 -8.958 -2.333" fill="#6a8e22"/><path d="m 105.71 80.71 c -1.75 2.083 -7.875 -6.708 -10 -3.625 c -0.25 0.417 -1.208 0.75 -2.167 0.75 c -1.542 0 -1.625 -0.292 -1.333 -4.375 c 0.208 -2.417 0.458 -3.667 0.625 -2.792 c 0.292 1.792 3.75 2.583 11.333 2.583 c 3.25 0 4.25 0.292 4.875 1.458 c 0.625 1.167 2.167 3.375 6.708 2 c 7.667 -2.333 10.5 1.667 8.833 3.542 c -1.083 1.167 -5.375 0.625 -9.833 0.625 c -6.458 0.625 -3.417 0.042 -9.04 -0.167" fill="#1b8e1b"/></g></g></svg>