<svg xmlns="http://www.w3.org/2000/svg" viewBox="0 0 24 24"><path d="m 4.945 21.656 c 18.05 11.996 29.16 -26.26 5.832 -21.19 c -9.637 2.156 -15.488 15.691 -5.832 21.19" fill="#754f7a"/><g fill="#fff"><path d="m 7.555 17.805 c -0.098 -0.059 -0.23 -0.18 -0.289 -0.273 c -0.105 -0.16 -0.113 -0.242 -0.098 -1.824 l 0.016 -1.656 l 0.184 -0.348 c 0.293 -0.563 0.91 -1.078 1.602 -1.332 l 0.273 -0.102 l 0.184 0.129 c 0.586 0.414 1.254 0.602 2.117 0.598 c 0.836 -0.004 1.457 -0.176 1.996 -0.559 c 0.238 -0.164 0.379 -0.156 0.824 0.059 c 0.703 0.332 1.203 0.855 1.41 1.488 c 0.09 0.27 0.102 0.492 0.102 1.844 c 0 1.441 -0.004 1.547 -0.109 1.703 c -0.059 0.094 -0.191 0.215 -0.289 0.273 c -0.176 0.098 -0.285 0.102 -3.961 0.102 c -3.676 0 -3.785 -0.004 -3.961 -0.102 m 3.18 -5.797 c -0.453 -0.137 -0.746 -0.313 -1.102 -0.66 c -0.496 -0.488 -0.711 -0.992 -0.711 -1.676 c 0 -1.371 1.129 -2.43 2.594 -2.43 c 1.469 0 2.594 1.055 2.594 2.434 c 0 1.09 -0.719 2.01 -1.813 2.332 c -0.453 0.129 -1.133 0.129 -1.563 0"/><path d="m 178.84 98.83 l -13.548 -23.24 l -13.378 -23.355 l 26.927 -0.113 l 26.87 0.113 l -13.378 23.355" transform="matrix(0.06891 0 0 0.06891 4.442 1.963)" stroke="#fff" stroke-width="3.035"/></g></svg>