<svg xmlns="http://www.w3.org/2000/svg" viewBox="0 0 24 24"><path d="m 21.527 18.387 c 8.629 -12.215 -7.309 -24.59 -17.473 -14.637 c -9.578 9.375 -0.699 23.945 11.219 19.391 c 2.488 -0.949 4.672 -2.512 6.254 -4.754" fill="#00bfff"/><g fill="#fff" stroke="#fff" transform="scale(0.09375)"><path d="m 120.42 156.25 c -4.75 -4.167 -5.125 -5.292 -5.833 -17.292 c -0.917 -15.167 1 -20.958 8.458 -25.458 c 5.792 -3.542 13.625 -4.125 16.5 -1.292 c 3.208 3.167 4.208 0.125 4.875 -15.333 l 0.667 -14.875 h 15.667 v 28.333 h 43.29 v 15.75 h -22.875 c -15.04 0.042 -24.17 0.708 -26.792 2 c -3.792 1.875 -5.417 5.667 -8.792 20.583 c -2.625 11.625 -16 15.625 -25.17 7.583 m 18.958 -12.25 c 1.708 -2.542 2.167 -5.458 1.417 -9.208 c -1.292 -6.833 -6 -10.375 -11.833 -8.833 c -3.417 0.917 -4.5 2.333 -5.292 7.167 c -1.833 11.04 1.583 16.792 9.125 15.375 c 2.25 -0.417 5.208 -2.458 6.583 -4.5" stroke-width="0.332"/><path d="m 83.958 67.21 c -9.708 5.458 -10.792 15.708 -4 37.08 c 1.542 21.17 0.375 32.708 1.75 52.46 c 6.167 0 12.875 0.417 19.08 0.417 c 0 -16.5 0 -33.04 0 -49.542 l 6.375 -5.708 c 7.25 -6.5 9.292 -13.625 7.04 -24.917 c -2.583 -13 -16.5 -17.542 -30.25 -9.792 m 19 8 c 5 1.708 5.5 10.958 0.792 15.208 c -7.375 6.625 -19.458 1.542 -19.458 -8.167 c 0 -2.875 1.125 -5.958 2.5 -6.833 c 3 -1.917 10.833 -2 16.17 -0.208" stroke-width="0.341"/><path d="m 60.792 182.08 l -7.917 -9.792 v -70.37 c 9.542 0.625 2.958 -0.417 13.333 0.125 c 0.417 72.875 -3.667 63.75 6.208 73.54 l 5.75 5.708 h 86.5 l -2.167 -14.667 c -2.792 -19.04 5.958 -23.417 15.333 -23.417 c 6.958 0 14.25 3.458 15.292 14.792 c 1.458 15.708 -3.917 22.708 -9.125 28.833 l -4.5 5.375 l -110.75 -0.333 m 117 -26.04 c 1.292 -4 -1.667 -8.625 -3.708 -11.417 c -3.583 -5.04 -11.5 1.583 -11.5 9.625 c 0 5.625 3 9.08 7.875 9.08 c 3.208 0 6.333 -4.25 7.333 -7.292" stroke-width="2.265"/></g></svg>