<svg xmlns="http://www.w3.org/2000/svg" viewBox="0 0 24 24" xmlns:xlink="http://www.w3.org/1999/xlink"><defs><linearGradient id="4" gradientUnits="userSpaceOnUse" y1="30" x2="0" y2="27.375" gradientTransform="matrix(-1.40029 0 0 1.10899 43.25 -21.485)" xlink:href="#1"/><linearGradient id="7" gradientUnits="userSpaceOnUse" x1="6.342" y1="7.789" x2="22.22" y2="25.884"><stop stop-color="#9f9f9f"/><stop offset="1" stop-color="#fff"/></linearGradient><linearGradient id="3" gradientUnits="userSpaceOnUse" y1="30" x2="0" y2="27.375" gradientTransform="matrix(-1.40029 0 0 1.10899 45.43 -21.391)" xlink:href="#1"/><linearGradient id="1" gradientUnits="userSpaceOnUse" y1="30" x2="0" y2="27.375" gradientTransform="matrix(-1.40029 0 0 1.10899 47.546 -21.422)"><stop stop-color="#fbe84e"/><stop offset="1" stop-color="#fbe84e" stop-opacity="0"/></linearGradient><radialGradient id="8" gradientUnits="userSpaceOnUse" cx="27.577" cy="16.213" r="4.767" gradientTransform="matrix(1.62834 0 0 1.66841 -16.179 2.065)"><stop stop-color="#ee2828"/><stop offset="1" stop-color="#ee2828" stop-opacity="0"/></radialGradient><radialGradient id="6" gradientUnits="userSpaceOnUse" cx="11.902" cy="10.05" r="29.29"><stop stop-color="#fffffc"/><stop offset="1" stop-color="#cacac8"/></radialGradient><radialGradient id="5" gradientUnits="userSpaceOnUse" cx="16.673" cy="11.557" r="29.89" gradientTransform="matrix(1.80067 0 0 1 -13.772 0)"><stop stop-color="#9496b2"/><stop offset="1" stop-color="#4c3f59"/></radialGradient><radialGradient id="2" gradientUnits="userSpaceOnUse" cx="31.11" cy="19.01" r="8.662" gradientTransform="matrix(-0.54011 0 0 0.22908 26.866 13.613)"><stop stop-color="#000"/><stop offset="1" stop-color="#000" stop-opacity="0"/></radialGradient><radialGradient id="0" gradientUnits="userSpaceOnUse" cx="25" cy="27.75" r="4.75" gradientTransform="matrix(-3.07149 0 0 2.72257 91.14 -62.691)"><stop stop-color="#626262"/><stop offset="1" stop-color="#000"/></radialGradient><radialGradient id="9" gradientUnits="userSpaceOnUse" cx="27.577" cy="14.969" r="4.767" xlink:href="#8"/></defs><path d="m 0.207 11.789 c -2.098 -10.492 12.273 -14.477 20.08 -9.93 c 6.219 3.621 4.441 16.03 -3.953 20.66 c -8.395 4.625 -14.445 -2.309 -16.12 -10.73" fill="#9370db"/><g fill-rule="evenodd"><path d="m 15.73 3.816 c 0.777 0 1.379 0.449 1.379 0.996 v 0.898 h 1.203 c 0.781 0 1.418 0.445 1.418 0.992 v 5.164 c 0 0.547 -0.637 0.992 -1.418 0.992 h -7.922 c -0.777 0 -1.414 -0.445 -1.414 -0.992 v -5.164 c 0 -0.547 0.637 -0.992 1.414 -0.992 h 1.207 v -0.898 c 0 -0.547 0.598 -0.996 1.379 -0.996" fill="url(#0)"/><path d="m 17.84 9.629 h -0.801 c -0.164 0 -0.301 0.105 -0.301 0.23 v 1.758 c 0 0.129 0.137 0.23 0.301 0.23 h 0.801 c 0.164 0 0.301 -0.102 0.301 -0.23 v -1.758 c 0 -0.125 -0.137 -0.23 -0.301 -0.23" fill="url(#1)"/><path d="m 5.383 17.969 c 0 1.094 2.094 1.984 4.68 1.984 c 2.582 0 4.676 -0.891 4.676 -1.984 c 0 -1.098 -2.094 -1.984 -4.676 -1.984 c -2.586 0 -4.68 0.887 -4.68 1.984" fill="url(#2)"/><path d="m 15.723 9.66 h -0.797 c -0.168 0 -0.301 0.102 -0.301 0.23 v 1.758 c 0 0.125 0.133 0.23 0.301 0.23 h 0.797 c 0.168 0 0.301 -0.105 0.301 -0.23 v -1.758 c 0 -0.129 -0.133 -0.23 -0.301 -0.23" fill="url(#3)"/><path d="m 13.547 9.563 h -0.797 c -0.168 0 -0.301 0.105 -0.301 0.23 v 1.758 c 0 0.129 0.133 0.23 0.301 0.23 h 0.797 c 0.168 0 0.301 -0.102 0.301 -0.23 v -1.758 c 0 -0.125 -0.133 -0.23 -0.301 -0.23" fill="url(#4)"/><g stroke-linejoin="round" stroke-linecap="round"><path d="m 31.16 16.907 c 0.051 5.361 -2.781 10.324 -7.421 13.02 c -4.627 2.687 -10.341 2.687 -14.98 0 c -4.627 -2.7 -7.459 -7.662 -7.421 -13.02 c -0.038 -5.348 2.794 -10.324 7.421 -13.01 c 4.639 -2.687 10.354 -2.687 14.98 0 c 4.639 2.687 7.471 7.662 7.421 13.01" transform="matrix(-0.309 0 0 0.30384 15.07 9.633)" fill="url(#5)" stroke="#605672" stroke-width="1.146"/><path d="m 31.16 16.908 c 0.048 5.362 -2.787 10.335 -7.423 13.02 c -4.635 2.689 -10.353 2.689 -14.988 0 c -4.619 -2.689 -7.454 -7.662 -7.407 -13.02 c -0.048 -5.346 2.787 -10.318 7.407 -13.01 c 4.635 -2.689 10.353 -2.689 14.988 0 c 4.635 2.689 7.47 7.662 7.423 13.01" transform="matrix(-0.24524 0 0 0.24115 14.05 10.673)" fill="url(#6)" stroke="url(#7)" stroke-width="1.196"/><path d="m 16.407 17.284 c 0 0.673 -0.545 1.218 -1.216 1.218 c -0.68 0 -1.225 -0.546 -1.225 -1.218 c 0 -0.673 0.545 -1.218 1.225 -1.218 c 0.671 0 1.216 0.546 1.216 1.218" transform="matrix(-0.43688 0 0 0.42959 16.609 7.376)" fill="#f3f3f3" stroke="#000" stroke-width="0.811"/></g></g><path d="m 26.02 37.27 l 1.765 -2.669" transform="matrix(-0.3542 0 0 0.34829 20.2 3.285)" fill="none" stroke="#000" stroke-linecap="round" stroke-width="2"/><path d="m 9.637 12.996 c -0.012 0.113 0.055 0.223 0.164 0.281 c 0.113 0.063 0.258 0.063 0.367 0 c 0.113 -0.059 0.18 -0.168 0.168 -0.281 c 0.012 -0.113 -0.055 -0.223 -0.168 -0.285 c -0.109 -0.059 -0.254 -0.059 -0.367 0 c -0.109 0.063 -0.176 0.172 -0.164 0.285" fill="#b5b9b1" fill-rule="evenodd"/><path d="m 28.762 30.633 l 0.203 -9.249" transform="matrix(-0.34669 0 0 0.29945 19.882 5.581)" fill="none" stroke="#000" stroke-linecap="round" stroke-width="2.207"/><g fill="#b5b9b1" fill-rule="evenodd"><path d="m 9.637 17.844 c -0.012 0.113 0.055 0.223 0.164 0.285 c 0.113 0.059 0.258 0.059 0.367 0 c 0.113 -0.063 0.18 -0.172 0.168 -0.285 c 0.012 -0.113 -0.055 -0.223 -0.168 -0.281 c -0.109 -0.059 -0.254 -0.059 -0.367 0 c -0.109 0.059 -0.176 0.168 -0.164 0.281"/><path d="m 12.445 15.418 c -0.012 0.117 0.051 0.227 0.164 0.285 c 0.113 0.059 0.254 0.059 0.367 0 c 0.113 -0.059 0.176 -0.168 0.168 -0.285 c 0.008 -0.113 -0.055 -0.223 -0.168 -0.281 c -0.113 -0.059 -0.254 -0.059 -0.367 0 c -0.113 0.059 -0.176 0.168 -0.164 0.281"/><path d="m 6.828 15.418 c -0.008 0.117 0.055 0.227 0.168 0.285 c 0.113 0.059 0.254 0.059 0.367 0 c 0.113 -0.059 0.176 -0.168 0.168 -0.285 c 0.008 -0.113 -0.055 -0.223 -0.168 -0.281 c -0.113 -0.059 -0.254 -0.059 -0.367 0 c -0.113 0.059 -0.176 0.168 -0.168 0.281"/></g><g fill="none" stroke-miterlimit="10"><path d="m 34.15 33.11 c 0 3.06 -2.422 5.561 -5.431 5.561 c -2.997 0 -5.42 -2.501 -5.42 -5.561 c 0 -3.072 2.422 -5.573 5.42 -5.573 c 3.01 0 5.431 2.501 5.431 5.573" transform="matrix(-0.34669 0 0 0.32804 19.882 4.058)" stroke="url(#8)" stroke-width="2.842"/><path d="m 30.911 18.605 c 0.02 1.204 -0.61 2.327 -1.65 2.935 c -1.04 0.609 -2.327 0.609 -3.368 0 c -1.04 -0.609 -1.671 -1.731 -1.65 -2.935 c -0.02 -1.204 0.61 -2.327 1.65 -2.935 c 1.04 -0.609 2.327 -0.609 3.368 0 c 1.04 0.609 1.671 1.731 1.65 2.935" transform="matrix(-1.92673 0 0 1.8231 63.06 -18.957)" stroke="url(#9)" stroke-width="0.506"/></g></svg>