<svg xmlns="http://www.w3.org/2000/svg" viewBox="0 0 24 24"><path d="m 11.398 0.34 c -32.535 14.461 15.195 40.453 12.488 8.234 c -0.633 -4.852 -5.645 -9.945 -12.488 -8.234" fill="#e069dd"/><path d="m 6.113 17 c -0.023 -0.074 -0.07 -0.523 -0.109 -0.996 c -0.082 -0.984 -0.242 -1.73 -0.379 -1.73 c -0.051 0 -0.207 -0.27 -0.344 -0.602 l -0.246 -0.602 l 0.391 -0.352 c 0.215 -0.195 0.535 -0.43 0.703 -0.523 c 0.699 -0.375 1.863 -1.082 1.918 -1.16 c 0.125 -0.188 0.617 -0.305 0.813 -0.195 c 0.313 0.184 0.453 0.043 0.613 -0.605 c 0.148 -0.602 0.145 -0.617 -0.113 -0.789 c -0.484 -0.316 -1.219 -1.168 -1.383 -1.598 c -0.09 -0.234 -0.219 -0.543 -0.285 -0.684 c -0.07 -0.145 -0.105 -0.281 -0.078 -0.301 c 0.023 -0.023 0.359 -0.148 0.742 -0.277 l 0.699 -0.23 l 0.117 0.301 c 0.066 0.168 0.188 0.484 0.273 0.707 c 0.367 0.953 0.551 0.992 0.781 0.172 c 0.086 -0.316 0.191 -0.602 0.234 -0.633 c 0.043 -0.031 0.168 -0.277 0.281 -0.547 l 0.207 -0.488 h 0.762 c 0.512 0 0.848 0.059 1.031 0.184 c 0.309 0.211 0.332 0.309 0.133 0.527 c -0.074 0.086 -0.262 0.402 -0.41 0.699 c -0.152 0.301 -0.313 0.547 -0.355 0.547 c -0.047 0 -0.137 0.109 -0.207 0.242 c -0.199 0.391 0.027 0.496 0.477 0.223 c 0.621 -0.387 1.395 -0.426 2.199 -0.121 c 0.641 0.242 0.691 0.246 0.82 0.063 c 0.262 -0.367 0.457 0.219 0.473 1.414 c 0.016 1.133 -0.066 1.43 -0.5 1.785 c -0.145 0.117 -0.332 0.289 -0.418 0.379 c -0.25 0.262 -0.695 0.395 -1.336 0.395 c -0.633 0 -1.047 -0.145 -1.48 -0.52 c -0.543 -0.469 -0.68 -0.648 -0.742 -0.984 c -0.039 -0.195 -0.137 -0.34 -0.23 -0.34 c -0.141 0 -0.152 0.164 -0.086 1.09 l 0.078 1.09 l -0.297 0.074 c -0.293 0.078 -1.094 0.008 -1.574 -0.133 c -0.184 -0.055 -0.25 -0.027 -0.25 0.109 c 0 0.242 -0.352 0.242 -0.836 0.004 c -0.355 -0.176 -0.383 -0.176 -0.699 0.086 c -0.344 0.285 -0.438 0.68 -0.203 0.879 c 0.152 0.125 0.566 0.008 0.688 -0.195 c 0.105 -0.184 0.719 -0.152 0.789 0.043 c 0.047 0.125 0.129 0.141 0.336 0.055 c 0.379 -0.148 0.961 -0.133 1.121 0.031 c 0.207 0.215 0.156 0.828 -0.09 1.102 c -0.266 0.301 -0.277 0.441 -0.047 0.535 c 0.254 0.098 0.27 0.09 0.27 -0.141 c 0 -0.113 0.043 -0.254 0.094 -0.316 c 0.055 -0.059 0.184 -0.488 0.293 -0.953 c 0.176 -0.766 0.215 -0.84 0.426 -0.777 c 0.129 0.035 0.273 0.063 0.32 0.066 c 0.043 0 0.082 0.051 0.082 0.113 c 0 0.23 0.461 1.383 0.555 1.383 c 0.055 0 0.066 -0.441 0.031 -0.984 l -0.07 -0.988 l 0.367 0.035 c 0.332 0.035 0.383 0.094 0.59 0.695 c 0.227 0.676 0.609 1.074 0.469 0.496 c -0.039 -0.16 -0.102 -0.531 -0.141 -0.824 l -0.07 -0.535 l 0.434 0.086 c 0.484 0.094 0.707 0.246 0.707 0.48 c 0 0.094 0.113 0.16 0.277 0.16 c 0.254 0 0.273 0.039 0.273 0.516 c 0 0.617 0.293 0.746 0.402 0.176 c 0.047 -0.242 0.133 -0.348 0.277 -0.348 c 0.117 0 0.238 -0.074 0.273 -0.168 c 0.152 -0.41 0.816 -0.32 0.816 0.109 c 0 0.27 -0.188 0.406 -0.563 0.406 c -0.117 0 -0.211 0.055 -0.211 0.125 c 0 0.176 0.617 0.047 1.16 -0.242 c 0.59 -0.313 1 -0.293 1.313 0.059 c 0.141 0.156 0.281 0.289 0.313 0.289 c 0.031 0 0.152 -0.34 0.266 -0.754 c 0.199 -0.727 0.219 -0.754 0.648 -0.863 c 0.242 -0.063 0.652 -0.188 0.91 -0.277 c 0.258 -0.094 0.469 -0.121 0.469 -0.066 c 0 0.133 -0.676 1.199 -0.793 1.25 c -0.051 0.02 -0.09 0.082 -0.09 0.133 c 0 0.27 -0.73 1.383 -0.906 1.383 c -0.234 0 -0.262 0.211 -0.039 0.301 c 0.41 0.164 0.242 0.852 -0.211 0.852 c -0.504 0 -0.801 -0.566 -0.418 -0.793 c 0.129 -0.078 0.156 -0.152 0.082 -0.23 c -0.07 -0.074 -0.258 -0.035 -0.543 0.109 c -0.238 0.125 -0.465 0.18 -0.496 0.125 c -0.109 -0.172 -0.672 -0.23 -0.672 -0.074 c 0 0.188 -0.445 0.309 -0.609 0.168 c -0.082 -0.07 -0.199 -0.047 -0.336 0.059 c -0.297 0.234 -0.367 0.219 -0.512 -0.113 c -0.066 -0.156 -0.195 -0.289 -0.285 -0.289 c -0.113 0 -0.141 0.082 -0.09 0.289 c 0.063 0.25 0.031 0.289 -0.207 0.289 c -0.25 0 -0.281 -0.047 -0.281 -0.449 c 0 -0.246 -0.07 -0.59 -0.16 -0.77 c -0.152 -0.313 -0.16 -0.293 -0.191 0.535 c -0.031 0.84 -0.039 0.855 -0.34 0.895 c -0.277 0.031 -0.332 -0.023 -0.539 -0.551 c -0.297 -0.738 -0.453 -0.746 -0.363 -0.023 c 0.074 0.559 0.074 0.559 -0.285 0.633 c -0.504 0.105 -0.551 0.098 -0.551 -0.098 c 0 -0.105 -0.102 -0.172 -0.273 -0.172 c -0.203 0 -0.277 -0.063 -0.277 -0.23 c 0 -0.18 -0.074 -0.23 -0.328 -0.23 c -0.262 0 -0.344 0.063 -0.398 0.289 c -0.039 0.156 -0.043 0.363 -0.008 0.461 c 0.043 0.113 -0.004 0.172 -0.141 0.172 c -0.109 0 -0.352 0.031 -0.535 0.07 c -0.309 0.063 -0.34 0.039 -0.414 -0.313 c -0.094 -0.438 -0.289 -0.68 -0.555 -0.68 c -0.152 0 -0.172 0.07 -0.113 0.402 c 0.043 0.238 0.027 0.402 -0.035 0.402 c -0.059 0 -0.176 0.066 -0.254 0.145 c -0.207 0.203 -0.848 0.5 -1.305 0.605 c -0.215 0.047 -0.414 0.129 -0.445 0.18 c -0.105 0.176 -1 0.332 -1.047 0.184 m 2.465 -1.891 c -0.031 -0.395 -0.059 -0.43 -0.352 -0.406 c -0.43 0.031 -0.461 0.09 -0.191 0.395 c 0.129 0.141 0.234 0.301 0.234 0.352 c 0 0.051 0.078 0.094 0.172 0.094 c 0.133 0 0.164 -0.102 0.137 -0.434 m 7.641 -0.402 c -0.004 -0.484 -0.148 -0.598 -0.539 -0.418 c -0.438 0.203 -0.434 0.367 0.016 0.523 c 0.523 0.18 0.527 0.176 0.523 -0.105 m 1.66 0.145 c 0 -0.063 0.199 -0.145 0.441 -0.188 c 0.469 -0.078 0.609 -0.273 0.191 -0.273 c -0.648 0.004 -1.074 0.148 -1.074 0.359 c 0 0.141 0.078 0.215 0.219 0.215 c 0.121 0 0.223 -0.051 0.223 -0.113 m -8.23 -0.418 c 0.156 -0.25 0.164 -0.32 0.039 -0.402 c -0.23 -0.16 -0.586 -0.066 -0.625 0.164 c -0.105 0.563 0.281 0.723 0.586 0.238 m 1.883 -0.016 c -0.148 -0.621 -0.5 -0.637 -0.5 -0.02 c 0 0.289 0.043 0.336 0.285 0.336 c 0.262 0 0.281 -0.031 0.215 -0.316 m 6.285 -0.387 c -0.078 -0.129 -0.379 -0.133 -0.379 -0.004 c 0 0.16 0.121 0.234 0.285 0.172 c 0.086 -0.035 0.125 -0.109 0.094 -0.168 m -4.57 -3.523 c 0.332 -0.105 0.973 -0.199 1.43 -0.199 l 0.828 -0.008 l 0.035 -0.391 c 0.051 -0.566 -0.063 -0.934 -0.293 -0.934 c -0.105 0 -0.242 0.047 -0.301 0.109 c -0.059 0.059 -0.324 0.16 -0.594 0.223 c -0.426 0.098 -0.535 0.082 -0.809 -0.121 c -0.348 -0.258 -1.273 -0.449 -1.148 -0.238 c 0.039 0.07 -0.023 0.16 -0.145 0.199 c -0.246 0.082 -0.52 0.848 -0.41 1.148 c 0.066 0.172 0.426 0.383 0.688 0.398 c 0.066 0.004 0.391 -0.078 0.719 -0.188" fill="#fff" fill-rule="evenodd"/></svg>