<svg xmlns="http://www.w3.org/2000/svg" viewBox="0 0 24 24"><defs><linearGradient id="0" gradientUnits="userSpaceOnUse" x1="230.86" y1="113.76" x2="265.36" y2="268.32" gradientTransform="matrix(0.05802 0 0 0.05988 -3.09 2.156)"><stop stop-color="#fff" stop-opacity="0.918"/><stop offset="1" stop-color="#fff" stop-opacity="0"/></linearGradient></defs><path d="m 18.766 20.547 c 20.977 -24.773 -30.1 -28.29 -15.953 -3 c 3.227 5.766 10.395 9.566 15.953 3" fill="#7f0000"/><path d="m 10.473 17.953 c -0.02 -0.02 -0.035 -1.094 -0.035 -2.383 v -2.344 l -2.07 -3.234 c -1.582 -2.469 -2.055 -3.254 -2.01 -3.313 c 0.09 -0.113 3 -0.113 3.109 0.004 c 0.039 0.043 0.594 0.918 1.227 1.945 c 0.633 1.027 1.168 1.871 1.188 1.871 c 0.02 0 0.547 -0.832 1.172 -1.844 c 0.629 -1.016 1.18 -1.891 1.227 -1.949 c 0.078 -0.094 0.23 -0.105 1.598 -0.105 c 1.27 0 1.516 0.016 1.543 0.09 c -0.156 0.328 -0.004 0.063 -0.434 0.824 l -1.809 2.828 l -1.809 2.824 v 2.34 c 0 1.742 -0.02 2.359 -0.07 2.414 c -0.074 0.078 -2.754 0.109 -2.828 0.031" fill="#cc1f36"/><path d="m 10.66 12.938 c 0.613 1.152 0.484 -1.02 2.352 0.031 c 1.293 -2.023 2.664 -4.082 3.957 -6.109 c -0.84 0 -1.676 0 -2.516 0 c -0.813 1.301 -1.605 2.629 -2.434 3.91 c -0.395 0.141 -0.559 -0.434 -0.75 -0.734 c -0.68 -1.039 -1.316 -2.121 -1.98 -3.176 c -0.836 0 -1.672 0 -2.508 0 c 1.293 2.027 2.586 4.051 3.879 6.078" fill="url(#0)"/></svg>