<svg xmlns="http://www.w3.org/2000/svg" viewBox="0 0 48 48"><path d="m 37.2 5.13 c -24.1 -17.2 -49.82 14.55 -30.37 34.8 c 18.33 19.1 48.1 1.39 39.59 -22.35 c -1.77 -4.95 -4.79 -9.3 -9.21 -12.45" style="fill:#f60"/><path d="m 13.82 14.21 h 10.29 l 1.36 2.05 h 9.47 c 1.27 0 2.29 1.05 2.29 2.36 v 10.34 c 0 1.3 -1.02 2.36 -2.29 2.36 h -21.1 c -1.27 0 -2.29 -1.05 -2.29 -2.36 v -12.39 c 0 -1.3 1.02 -2.36 2.29 -2.36" style="fill:#edb4ab"/><path d="m 13.82 17.79 h 21.1 c 1.27 0 2.29 1.03 2.29 2.29 v 11.75 c 0 1.27 -1.03 2.29 -2.29 2.29 h -21.1 c -1.27 0 -2.29 -1.03 -2.29 -2.29 v -11.75 c 0 -1.27 1.03 -2.29 2.29 -2.29" style="fill:#fff"/><g transform="matrix(0.188 0 0 0.188 -0.66 -147.5)" style="fill:#f60;stroke:#fff"><path d="m 100.2 945.7 l -8.38 -14.1 l 2.65 -4.52 c 2.56 -4.38 2.6 -4.56 0.98 -5.71 c -1.46 -1.06 -0.54 -1.19 7.38 -0.96 l 9 0.25 l 1.56 3 c 0.88 1.67 2.44 4.67 3.46 6.67 l 1.9 3.67 h -2.15 c -1.54 0 -2.69 0.88 -4 3.06 c -1 1.69 -1.83 3.23 -1.83 3.44 c 0 0.23 4.15 0.4 9.21 0.4 h 9.21 l -0.5 18.5 l -10.1 0.25 l -10.1 0.23 l -8.38 -14.1" style="stroke-width:1.33"/><path d="m 111.1 914.6 c -4.63 -2.52 -8.4 -4.88 -8.38 -5.21 c 0.02 -0.56 4.65 -8.38 9.13 -15.44 l 1.9 -2.96 l 18.23 0.02 h 18.23 l 2.88 4.52 c 1.58 2.5 3.44 4.54 4.08 4.56 c 1.75 0.02 1.6 0.44 -2.75 7.38 l -3.94 6.31 h -8.54 c -4.69 0 -8.52 -0.21 -8.52 -0.46 c 0 -0.27 0.52 -1.25 1.15 -2.23 c 0.94 -1.42 0.81 -2.35 -0.69 -5 c -1.02 -1.79 -2.29 -3.25 -2.83 -3.25 c -0.54 0 -2.79 2.98 -5 6.63 c -6.65 10.88 -5.29 10.42 -14.94 5.13" style="stroke-width:1.44"/><path d="m 142.4 954 c -1.9 -2.9 -3.44 -5.58 -3.44 -6 c 0 -0.4 1.81 -3.58 4 -7.1 c 4 -6.29 4.06 -6.31 5.33 -4.13 c 1.08 1.83 1.96 2.19 5.6 2.19 c 5.56 0 5.54 -0.98 -0.06 -8.67 c -2.4 -3.27 -4.58 -6.46 -4.83 -7.1 c -0.29 -0.67 1.75 -2.23 5.08 -3.94 c 3.06 -1.56 7 -3.65 8.75 -4.63 c 1.75 -0.98 3.29 -1.63 3.46 -1.46 c 0.15 0.19 2.88 4.23 6.1 8.98 l 5.81 8.67 l -9.19 13.9 l -9.21 13.9 l -14 0.54" style="stroke-width:1.4"/></g></svg>