<svg xmlns="http://www.w3.org/2000/svg" viewBox="0 0 48 48"><path d="m 11.281 5.129 c 24.551 -17.188 49.43 14.555 29.422 34.801 c -18.848 19.07 -48.13 1.391 -38.973 -22.348 c 1.906 -4.953 5.04 -9.297 9.551 -12.453" fill="#f60"/><path d="m 32.922 19.828 h -7.828 l -1.957 -2.031 h -5.867 c -1.078 0 -1.949 0.914 -1.949 2.031 l -0.008 12.18 c 0 1.113 0.879 2.027 1.957 2.027 h 15.652 c 1.074 0 1.953 -0.914 1.953 -2.027 v -10.148 c 0 -1.117 -0.879 -2.031 -1.953 -2.031 m -19.566 2.031 h -1.957 v 5.074 h 0.012 l -0.012 9.133 c 0 1.117 0.883 2.031 1.957 2.031 h 17.609 v -2.031 h -17.609" fill="#f8f8f8"/></svg>