<svg xmlns="http://www.w3.org/2000/svg" xmlns:xlink="http://www.w3.org/1999/xlink" viewBox="0 0 48 48"><defs><g id="3" clip-path="url(#2)"><path d="m 79.875 1012.18 c -1.021 -1.093 -2.375 -3.03 -3 -4.286 c -1.5 -3 -12.979 -37.13 -17.833 -52.927 l -3.813 -12.481 h -12.396 c -11.854 0 -12.375 -0.126 -12.375 -2.752 c 0 -2.668 0.292 -2.71 14.792 -2.122 c 17.521 0.735 19.354 1.66 22.542 11.409 c 1.229 3.803 3.75 10.506 5.563 14.918 c 3.125 7.522 3.563 8.01 7.333 8.01 c 3.813 0 4.125 -0.357 5.958 -6.724 c 1.042 -3.698 4.333 -17.523 7.313 -30.74 c 2.958 -13.216 6.229 -25.739 7.25 -27.861 c 3.896 -8.152 8.354 -3.698 18.833 18.826 c 4.229 9.08 8.562 17.292 9.625 18.259 c 3.188 2.837 7.542 -0.735 11.625 -9.518 c 4.458 -9.623 6.542 -12.208 9.854 -12.208 c 4.04 0 5.958 3.215 16.5 27.714 l 9.854 22.881 l 12.08 0.378 c 11.1 0.336 12.08 0.567 12.08 2.879 c 0 2.353 -0.875 2.521 -14.167 2.521 c -7.792 0 -15.04 -0.357 -16.12 -0.819 c -1.063 -0.441 -4.813 -6.976 -8.333 -14.519 c -5.667 -12.187 -9.979 -17.986 -13.354 -17.965 c -0.521 0 -3.333 5.04 -6.292 11.199 c -5.125 10.779 -5.5 11.22 -9.396 11.22 c -3.958 0 -4.271 -0.399 -11.979 -15.443 c -9.292 -18.11 -13.813 -25.529 -14.625 -24.06 c -1.021 1.849 -5.708 20.654 -12.208 49.1 c -6.75 29.563 -8.208 34.627 -10.417 36.14 c -2.042 1.408 -2.813 1.24 -4.896 -1.01" transform="matrix(0.1875 0 0 0.18591 0 -147.65)" fill="#fff" fill-rule="evenodd" stroke="#fff" stroke-width="1.409"/></g><clipPath id="2"><path d="M 0,0 H48 V48 H0 z"/></clipPath><filter id="0" filterUnits="objectBoundingBox" x="0" y="0" width="48" height="48"><feColorMatrix type="matrix" in="SourceGraphic" values="0 0 0 0 1 0 0 0 0 1 0 0 0 0 1 0 0 0 1 0"/></filter><mask id="1"><g filter="url(#0)"><path fill-opacity="0.639" d="M 0,0 H48 V48 H0 z"/></g></mask></defs><path d="m 11.281 5.313 c 24.551 -17.11 49.43 14.492 29.422 34.652 c -18.848 18.992 -48.13 1.383 -38.973 -22.254 c 1.906 -4.93 5.04 -9.258 9.551 -12.398" fill="#007f7f"/><use xlink:href="#3" mask="url(#1)"/><path d="m 77.81 1004.83 c -0.979 -0.988 -2.229 -2.689 -2.813 -3.803 c -1.417 -2.647 -12.167 -32.778 -16.708 -46.75 l -3.583 -11.03 h -11.625 c -11.1 0 -11.604 -0.105 -11.604 -2.416 c 0 -2.353 0.292 -2.395 13.854 -1.87 c 16.458 0.651 18.17 1.471 21.15 10.09 c 1.167 3.341 3.521 9.266 5.229 13.153 c 2.917 6.661 3.333 7.081 6.875 7.081 c 3.563 0 3.854 -0.315 5.563 -5.946 c 1 -3.257 4.083 -15.485 6.875 -27.15 c 2.771 -11.661 5.833 -22.734 6.771 -24.604 c 3.688 -7.207 7.854 -3.278 17.667 16.62 c 3.979 8.03 8.02 15.275 9.02 16.12 c 2.979 2.521 7.083 -0.63 10.896 -8.384 c 4.188 -8.51 6.146 -10.779 9.25 -10.779 c 3.792 0 5.583 2.816 15.458 24.478 l 9.229 20.19 l 11.333 0.336 c 10.417 0.294 11.333 0.504 11.333 2.542 c 0 2.08 -0.813 2.227 -13.271 2.227 c -7.313 0 -14.1 -0.315 -15.1 -0.714 c -1 -0.399 -4.521 -6.156 -7.813 -12.838 c -5.333 -10.758 -9.375 -15.885 -12.521 -15.864 c -0.5 0 -3.146 4.454 -5.896 9.896 c -4.833 9.518 -5.167 9.896 -8.833 9.896 c -3.687 0 -3.979 -0.336 -11.229 -13.615 c -8.708 -16.01 -12.938 -22.545 -13.688 -21.263 c -0.979 1.639 -5.354 18.238 -11.458 43.37 c -6.333 26.12 -7.708 30.592 -9.771 31.916 c -1.917 1.24 -2.625 1.093 -4.583 -0.903" transform="matrix(0.1875 0 0 0.18591 0 -147.65)" fill="#fff" fill-rule="evenodd" stroke="#fff" stroke-width="1.282"/></svg>