<svg xmlns="http://www.w3.org/2000/svg" viewBox="0 0 48 48"><path d="m 11.594 5.129 c 24.34 -17.188 49.01 14.551 29.17 34.797 c -18.688 19.08 -47.719 1.391 -38.645 -22.344 c 1.895 -4.953 5 -9.301 9.473 -12.453" fill="#d8c031"/><g fill="#fff" stroke="#ff4500" transform="scale(0.1875)"><path d="m 49.29 200.4 c -2.333 -2.354 -2.417 -4.083 -2.417 -44.646 v -42.19 l 3.188 -2.542 c 2.917 -2.333 4.792 -2.542 22.417 -2.542 c 18.792 0 19.292 0.063 22.19 3.02 c 2.167 2.188 2.979 4.333 2.979 7.958 v 4.958 h 34.875 c 33.458 0 35.02 0.104 38.08 2.542 l 3.167 2.542 v 34.21 c 0 32.583 -0.104 34.35 -2.417 36.688 c -2.354 2.375 -4.02 2.438 -61.02 2.438 c -57 0 -58.687 -0.063 -61.04 -2.438 m 71.52 -8.417 c 5.583 -2.417 13.646 -10.521 15.542 -15.625 c 0.646 -1.708 1.167 -6.646 1.167 -11.02 c 0 -10.979 -4.563 -19.396 -13.896 -25.625 c -2.854 -1.896 -5.708 -2.417 -13.292 -2.417 c -8.813 0 -10.125 0.313 -14.729 3.667 c -9.813 7.146 -13.604 16.896 -11.917 30.604 c 0.688 5.604 1.688 7.667 6.208 12.771 c 8.396 9.458 20.08 12.354 30.917 7.646" stroke-width="0.097"/><path d="m 102.96 169.69 c -1.708 -4.313 -0.125 -9.08 3.792 -11.417 c 5.063 -3.02 12.08 5.104 9.125 10.521 c -2.375 4.313 -11.333 4.938 -12.917 0.896" stroke-width="0.155"/></g></svg>