<svg xmlns="http://www.w3.org/2000/svg" viewBox="0 0 256 256"><path d="m 253.02 156.52 c -15.875 104.05 -156.87 131.89 -219.1 57.62 -54.798 -55.17 -41.16 -160.78 26.05 -196.99 77.21 -48.44 189.69 11.446 195.83 107.88 0.632 10.565 -0.26 21.245 -2.771 31.493 z" fill="#ff8c00" color="#000"/><g fill="#fff" stroke-width="1.375"><path d="m 10.01 -1 a 2.687 2.262 0 0 1 2.523 1.491 c 0.073 0.128 0.14 0.263 0.194 0.411 2.04 5.661 6.191 18.07 6.191 18.07 0 0 -7.602 -11.12 -11.07 -16.331 -0.029 -0.043 -0.051 -0.085 -0.077 -0.128 A 2.687 2.262 0 0 1 7.326 1.259 2.687 2.262 0 0 1 10.01 -1 z m -0.004 1.146 A 1.295 1.091 0 0 0 8.714 1.234 1.295 1.091 0 0 0 10.01 2.324 1.295 1.091 0 0 0 11.305 1.234 1.295 1.091 0 0 0 10.01 0.143 z M 6.819 3.164 C 7.549 4.26 8.512 5.688 9.493 7.141 5.893 12.527 1.484 18.997 1.484 18.997 c 0 0 3.213 -9.641 5.335 -15.832 z" fill="#fff" stroke-width="0.944" transform="matrix(7.98543 0 0 6.7339 44.28 67.63)"/></g></svg>