<svg xmlns="http://www.w3.org/2000/svg" viewBox="0 0 256 256"><path d="m 196.12 224.04 c 73.991 -83.7 78.37 -164.94 11.944 -195.83 -91.63 -42.606 -235.01 -44.38 -199.5 90.74 35.809 112.39 122.35 178.85 187.56 105.09 z" fill="#ff8c00" color="#000"/><g transform="matrix(3.58462 0 0 3.21818 41.03 47.33)"><g fill="#ffd700"><circle transform="matrix(-0.26805 0.84075 -0.71752 -0.31188 16.883 128.35)" cx="-110" cy="49" r="4"/><circle transform="matrix(-0.26805 0.80051 -0.71752 -0.29695 43.33 130.48)" cx="-110" cy="49" r="4"/></g><g transform="translate(0 -0.515)" fill="#fff"><path d="M 42.849,31.15 37.645,13.205 38.482,13.4 c -0.068,0.338 0.11,0.677 0.401,0.761 0.294,0.084 0.591,-0.123 0.664,-0.464 0.073,-0.34 -0.107,-0.684 -0.401,-0.769 -0.254,-0.073 -0.511,0.074 -0.622,0.335 L 31.464,10.853 24.862,8.599 24.8,7.292 c 0.704,-0.03 1.268,-0.698 1.268,-1.521 10e-4,-0.842 -0.589,-1.524 -1.316,-1.524 -0.727,0 -1.316,0.682 -1.316,1.524 0,0.744 0.46,1.362 1.069,1.496 L 24.447,8.491 17.905,6.967 10.553,5.255 C 10.563,4.961 10.393,4.689 10.137,4.615 9.843,4.531 9.546,4.739 9.473,5.079 9.4,5.419 9.58,5.764 9.873,5.848 10.167,5.932 10.464,5.725 10.537,5.385 L 11.252,5.629 6.086,23.507 H 4.158 c 0,0 1.124,2.858 7.05,2.858 5.928,0 6.655,-2.858 6.655,-2.858 H 16.594 L 11.429,5.69 l 6.289,2.147 6.652,2.271 -1.428,30.2 c 0,0 0.056,1.363 -1.794,1.688 -1.85,0.325 -4.204,0.454 -5.325,1.168 -1.121,0.714 -1.289,1.558 -1.289,1.558 h 20.237 c 0,0 -0.168,-0.844 -1.289,-1.558 -1.121,-0.714 -3.476,-0.844 -5.326,-1.168 -1.85,-0.325 -1.794,-1.688 -1.794,-1.688 l -1.423,-30.07 6.338,1.476 6.255,1.457 -5.192,17.972 h -1.411 c 0,0 1.124,2.858 7.05,2.858 5.928,0 6.655,-2.858 6.655,-2.858 H 42.849 z M 16.169,23.507 H 6.508 L 11.33,6.816 16.169,23.507 z m 16.593,7.643 4.822,-16.691 4.839,16.691 h -9.662 z" stroke="#fff"/><path d="M 42.621,31.05 37.417,13.105 38.254,13.3 c -0.068,0.338 0.11,0.677 0.401,0.761 0.294,0.084 0.591,-0.123 0.664,-0.464 0.073,-0.34 -0.107,-0.684 -0.401,-0.769 -0.254,-0.073 -0.511,0.074 -0.622,0.335 L 31.236,10.753 24.634,8.499 24.572,7.192 C 25.276,7.162 25.84,6.494 25.84,5.671 25.841,4.829 25.251,4.147 24.524,4.147 c -0.727,0 -1.316,0.682 -1.316,1.524 0,0.744 0.46,1.362 1.069,1.496 L 24.219,8.391 17.677,6.867 10.325,5.155 C 10.335,4.861 10.165,4.589 9.909,4.515 9.615,4.431 9.318,4.639 9.245,4.979 9.172,5.319 9.352,5.664 9.645,5.748 9.939,5.832 10.236,5.625 10.309,5.285 L 11.024,5.529 5.858,23.407 H 3.93 c 0,0 1.124,2.858 7.05,2.858 5.928,0 6.655,-2.858 6.655,-2.858 H 16.366 L 11.201,5.59 l 6.289,2.147 6.652,2.271 -1.428,30.2 c 0,0 0.056,1.363 -1.794,1.688 -1.85,0.325 -4.204,0.454 -5.325,1.168 -1.121,0.714 -1.289,1.558 -1.289,1.558 h 20.237 c 0,0 -0.168,-0.844 -1.289,-1.558 -1.121,-0.714 -3.476,-0.844 -5.326,-1.168 -1.85,-0.325 -1.794,-1.688 -1.794,-1.688 l -1.423,-30.07 6.338,1.476 6.255,1.457 -5.192,17.972 h -1.411 c 0,0 1.124,2.858 7.05,2.858 5.928,0 6.655,-2.858 6.655,-2.858 H 42.621 z M 15.941,23.407 H 6.28 l 4.822,-16.691 4.839,16.691 z m 16.593,7.643 4.822,-16.691 4.839,16.691 h -9.662 z"/></g></g></svg>