<svg xmlns="http://www.w3.org/2000/svg" viewBox="0 0 256 256"><g fill="#ff8c00" color="#000"><path d="m -1363.8 1650.47 c 92.76 -229.28 -405.65 -114.61 -172.57 42.475 46.699 31.473 147.56 19.349 172.57 -42.475 z" transform="matrix(1.03665 0 0 -1.35742 1657.69 2320.79)"/></g><g fill="#fff"><path d="m 115.88 178.61 c -1.677 -0.746 -11.703 -10.506 -25.673 -24.993 -19.371 -20.09 -23.07 -24.304 -23.909 -27.23 -1.924 -6.736 -1.268 -7.688 21.694 -31.522 11.446 -11.881 20.811 -22.02 20.811 -22.529 c 0 -0.51 -3.969 -5.091 -8.82 -10.18 l -8.82 -9.253 l 5.177 -5.358 c 4.383 -4.536 5.404 -5.229 6.658 -4.517 0.815 0.462 17.1 17.07 36.2 36.912 29.799 30.964 34.855 36.561 35.703 39.53 1.929 6.752 1.48 7.382 -24.23 34 -13.153 13.619 -24.493 24.697 -25.916 25.318 -3.21 1.4 -5.413 1.354 -8.871 -0.185 z m 40.886 -56.689 c 0 -1.432 -34.733 -37.24 -36.12 -37.24 -1.41 0 -36.21 35.759 -36.21 37.21 0 0.831 7.314 1.041 36.17 1.041 28.28 0 36.17 -0.22 36.17 -1.01 z m 27.662 55.864 c -8.556 -4.413 -10.737 -13.68 -5.671 -24.1 2.749 -5.655 11.347 -17.731 12.625 -17.731 1.312 0 8.52 10.05 11.72 16.339 3.66 7.195 4.548 11.575 3.203 15.793 -2.024 6.347 -8.897 11.757 -14.986 11.796 -1.537 0.01 -4.638 -0.933 -6.891 -2.095 z"/><path d="m 105.62 200.31 h 101.78 v 16.643 h -101.78 z"/></g></svg>