<svg xmlns="http://www.w3.org/2000/svg" viewBox="0 0 256 256"><path d="m 65.748 21.2 c 329.42 -135.66 174.65 434.9 -40.478 157.85 c -37.47 -49.706 -40.36 -133.17 40.478 -157.85 z" fill="#ff8c00" color="#000"/><g transform="matrix(12.0282 0 0 11.48588 26.35 43.706)"><path d="M 3,2 2,3 2,4 2,4.3125 6,9.96875 6,10 6,12 7,12.5 7,11 7,10 7,9.625 3,4 3,3 7.25,3 9,3 13,3 13,4 10.875,7 12.09375,7 14,4.3125 14,3 13,2 9,2 7.25,2 3,2 z" fill="#fff" color="#4d4d4d"/><path d="m 8.99 8 l -0.99 0.99 l 2.01 2.01 l -2.01 2.01 l 0.99 0.99 l 2.01 -2.01 l 2.01 2.01 l 0.99 -0.99 l -2.01 -2.01 l 2.01 -2.01 l -0.99 -0.99 l -2.01 2.01 l -2.01 -2.01 z" fill="#ff4500"/></g></svg>