<svg xmlns="http://www.w3.org/2000/svg" viewBox="0 0 256 256"><defs><clipPath id="0"><path fill="#bebebe" color="#000" d="m 312 876.36 h 16 v 16 h -16 z"/></clipPath></defs><g color="#000" fill="#ff8c00"><path d="M 219.27,843.52 C 378.99,1071.5 -36.39,1144.06 4.81,901.81 26.646,805.46 155.29,752.19 219.27,843.52 z" transform="matrix(1 0 0 0.99576 0 -791.9)"/></g><g transform="matrix(-9.46102 0 0 8.3865 3156.46 -7278.41)" fill="#fff"><g color="#000"><path d="m 314 877.36 c -0.554 0 -1 0.446 -1 1 v 10 c 0 0.554 0.446 1 1 1 h 12 c 0.554 0 1 -0.446 1 -1 v -9.969 c -0.406 0.49 -0.791 0.942 -1.125 1.313 -0.302 0.335 -0.595 0.65 -0.875 0.938 h -0.031 c -0.895 0.949 -2.263 2.273 -3.969 3.719 0.072 0.505 0.1 1.038 -0.156 1.531 -0.308 0.593 -0.906 1.063 -1.656 1.25 -0.645 0.161 -1.371 0.265 -2.063 0.219 -0.346 -0.023 -0.681 -0.071 -1.031 -0.219 -0.351 -0.147 -0.801 -0.472 -0.938 -1.031 a 1.01 1.01 0 0 1 0.969 -1.25 c 0.195 0 0.204 -0.026 0.25 -0.063 0.046 -0.037 0.124 -0.152 0.219 -0.344 0.189 -0.384 0.26 -1.148 1.125 -1.719 0.377 -0.249 0.808 -0.317 1.219 -0.313 1.01 -1.432 2.119 -2.958 3.313 -4.281 -0.001 0.001 0.029 -0.028 0.031 -0.031 0.011 -0.019 0.034 -0.075 0.156 -0.219 a 1.01 1.01 0 0 1 0.031 -0.031 c 0.133 -0.144 0.245 -0.214 0.313 -0.281 0.013 -0.015 0.018 -0.017 0.031 -0.031 0.078 -0.086 0.121 -0.117 0.188 -0.188 h -9 z"/><path d="m 314.38 890.36 l -0.281 0.563 a 1.01 1.01 0 1 0 1.813 0.875 l 0.72 -1.44 z m 9 0 l 0.719 1.438 a 1.01 1.01 0 1 0 1.813 -0.875 l -0.28 -0.56 z"/></g><path d="m 330.03 872.36 c -1.8 1.299 -4.185 3.312 -6.094 5.344 -0.173 0.184 -0.368 0.347 -0.531 0.531 -0.103 0.108 -0.209 0.201 -0.313 0.313 -0.065 0.077 -0.124 0.173 -0.188 0.25 -1.305 1.442 -2.588 3.126 -3.656 4.688 -0.31 -0.151 -0.684 -0.177 -1.094 0.094 -0.754 0.498 -0.604 2.282 -2.156 2.281 0.147 0.602 1.739 0.581 2.813 0.313 1.013 -0.253 1.318 -1.133 1.125 -1.875 -0.027 -0.105 -0.093 -0.207 -0.156 -0.313 1.978 -1.639 3.415 -3.01 4.375 -4.03 0.24 -0.246 0.522 -0.581 0.844 -0.938 1.204 -1.335 2.913 -3.427 5.03 -6.656 z" clip-path="url(#0)"/></g></svg>