<svg xmlns="http://www.w3.org/2000/svg" viewBox="0 0 256 256"><path d="m 48.975 207.86 c -208.91 -277.89 364.85 -273.96 158.16 -1.131 -37.36 47.887 -114.97 71.47 -158.16 1.131 z" fill="#ff8c00" color="#000"/><path d="m 108.77 184.3 c -17.995 -17 -17.725 -16.587 -17.346 -26.527 l 0.225 -5.901 l 5.752 -0.218 c 9.01 -0.342 10.317 0.276 19.941 9.442 l 8.437 8.03 l 8.511 -8.04 c 9.696 -9.164 10.98 -9.772 19.915 -9.434 l 5.752 0.218 l 0.21 6.244 c 0.329 9.779 0.306 9.815 -17.784 26.675 -8.635 8.05 -16.14 14.622 -16.68 14.607 -0.539 -0.015 -8.159 -6.809 -16.934 -15.1 z m -35.22 -57.24 c -3.896 -2.124 -25.865 -24.05 -27.21 -27.16 -2.838 -6.558 -0.58 -10.963 10.221 -19.938 36.16 -30.05 73.36 -36.21 110.58 -18.324 c 10.485 5.04 18.834 10.582 29.35 19.486 8.02 6.789 10.275 10.302 9.626 14.976 -0.626 4.507 -2.577 7.01 -14.998 19.243 -13.636 13.43 -15.302 14.411 -20.942 12.331 -4.597 -1.695 -20.21 -17.07 -21.289 -20.96 -0.979 -3.531 -0.191 -6.388 2.75 -9.974 1.211 -1.476 2.201 -2.891 2.201 -3.144 0 -0.628 -9.297 -4.655 -15.459 -6.697 -7.158 -2.372 -18.01 -2.372 -25.17 0 -5.801 1.922 -15.459 6.06 -15.459 6.617 0 0.209 1.104 1.777 2.453 3.484 5.397 6.826 4.444 9.787 -6.685 20.769 -10.975 10.83 -14.308 12.379 -19.977 9.288 z" fill="#fff"/></svg>