<svg xmlns="http://www.w3.org/2000/svg" viewBox="0 0 256 256"><path d="m 253.7 118.32 c 14.54 152.08 -230.68 193.02 -249.72 36.856 c -23.602 -143.59 198.67 -217.54 243.12 -74.864 c 4.871 12.06 4.777 25.25 6.594 38.01 z" fill="#ff8c00" color="#000"/><path d="m 90.52 207.98 c 0.096 -6.211 1.919 -12.476 4.399 -15.12 3.549 -3.778 2.172 -4.311 -13.303 -5.143 -15.222 -0.818 -20.615 -2.699 -27.843 -9.71 -9.418 -9.134 -9.402 -9.06 -9.402 -44.15 0 -30.15 0.062 -31.03 2.486 -35.57 3.413 -6.391 10.297 -13.02 16.336 -15.72 3.415 -1.529 8.108 -2.412 14.535 -2.735 l 9.492 -0.477 v 9.207 v 9.207 l -7.692 0.55 c -15.241 1.09 -16.452 3.949 -15.975 37.707 0.371 26.21 0.735 28.06 6.072 30.757 3.555 1.797 17.889 3.191 22.77 2.215 4.226 -0.845 4.368 -2.313 0.741 -7.658 -2.151 -3.17 -2.691 -5.16 -2.441 -8.997 l 0.321 -4.927 l 5.643 -0.326 c 3.447 -0.199 6.824 0.292 8.678 1.262 3.732 1.952 31.781 28.636 31.781 30.23 0 1.187 -16.959 17.936 -26.576 26.25 -4.866 4.205 -6.176 4.765 -12.746 5.451 l -7.322 0.764 l 0.047 -3.069 z" fill="#ffdead"/><path d="m 165.32 179.16 v -10.32 l 3.39 -0.678 c 1.864 -0.373 5.062 -0.678 7.105 -0.678 4.451 0 9.628 -2.486 11.168 -5.364 0.679 -1.269 1.117 -12.559 1.117 -28.818 v -26.731 l -3.07 -3.07 c -2.347 -2.347 -4.533 -3.253 -9.288 -3.847 -6.156 -0.769 -15.383 -0.25 -16.565 0.933 -0.337 0.337 0.419 1.924 1.681 3.528 1.829 2.325 2.293 4.424 2.293 10.362 v 7.447 l -6.237 -0.004 c -4.287 -0.003 -7.331 -0.671 -9.735 -2.137 -3.573 -2.179 -27.397 -24.474 -31.08 -29.09 l -2.036 -2.55 l 11.257 -10.871 c 6.191 -5.979 14.09 -13.267 17.55 -16.196 6.117 -5.176 6.49 -5.325 13.288 -5.325 h 6.995 v 7.155 c 0 5.539 -0.517 7.88 -2.288 10.368 -1.258 1.767 -2.082 3.419 -1.83 3.67 0.252 0.252 6.412 0.901 13.69 1.443 10.814 0.806 14.303 1.51 19.09 3.851 6.478 3.169 12.246 8.938 16.04 16.04 2.427 4.545 2.488 5.419 2.488 35.574 0 34.982 0.037 34.806 -9.229 44.35 -6.652 6.854 -14.46 10.05 -26.17 10.721 l -9.621 0.549 v -10.32 z" fill="#fff"/></svg>