<svg xmlns="http://www.w3.org/2000/svg" viewBox="0 0 256 256"><path d="m 3.74 950.97 c 19.829 131.87 217.21 135.83 247.04 7.636 30.702 -103.78 -80.47 -188.63 -163.63 -154.63 -55.684 16.07 -100.67 81.83 -83.41 146.99 z" fill="#ff8c00" color="#000" transform="translate(0 -796.36)"/><g fill="#fff"><path d="m 5.775 330.94 c -3.054 -1.723 -4.24 -4.495 -3.325 -7.771 1.444 -5.17 7.03 -16.479 9.614 -19.473 1.531 -1.772 3.213 -4.78 3.739 -6.684 0.526 -1.904 3.314 -6.839 6.196 -10.967 l 5.24 -7.506 l -0.534 -6.658 c -0.473 -5.894 -0.936 -7.08 -4.03 -10.31 -1.924 -2.01 -3.83 -4.777 -4.235 -6.152 -1.231 -4.18 -5.188 -10.325 -9.02 -14.01 -6.848 -6.583 -8.853 -14.635 -4.518 -18.15 2.904 -2.352 9.822 -3.255 14.756 -1.926 4.665 1.256 12.301 8.783 12.301 12.12 0 2.372 1.761 6.097 3.4 7.191 3.615 2.414 10.938 -1.944 12.09 -7.194 0.351 -1.598 2.433 -4.945 4.628 -7.438 4.469 -5.077 8.02 -6.258 15.46 -5.143 6.02 0.902 8.421 3.388 8.421 8.7 0 3.623 -0.565 4.687 -4.379 8.25 -2.408 2.25 -4.899 5.72 -5.535 7.711 -0.636 1.991 -3.211 6.266 -5.723 9.5 -5.925 7.628 -6.982 9.8 -7.836 16.1 -0.623 4.602 -0.328 6.05 2.476 12.13 1.766 3.831 4.439 7.835 6 8.991 1.551 1.147 3.131 3.5 3.51 5.229 1.15 5.235 5.466 14.14 8.563 17.668 3.912 4.455 4.122 11.145 0.466 14.802 -2.874 2.874 -9.876 3.381 -14.345 1.04 -4.253 -2.228 -8.926 -7.766 -9.715 -11.513 -1.028 -4.883 -5.993 -12.527 -9.04 -13.914 -3.868 -1.762 -5.376 -0.287 -8.114 7.938 -1.789 5.373 -3.776 8.892 -7.246 12.829 -4.649 5.276 -4.943 5.434 -10.685 5.767 -3.973 0.23 -6.781 -0.153 -8.585 -1.171 z m -67.41 -30.498 c -4.235 -0.966 -5.179 -1.67 -7.03 -5.247 -1.134 -2.193 -1.475 -4.845 -1.168 -9.09 0.376 -5.201 0.853 -6.363 3.624 -8.84 3.158 -2.822 3.322 -2.851 15.925 -2.827 7 0.013 14.534 0.44 16.734 0.949 6.979 1.614 10.936 9.147 8.57 16.315 -1.776 5.38 -5.02 7.769 -11.198 8.245 -12.372 0.953 -22.567 1.149 -25.459 0.49 z" fill="#fff" transform="matrix(1.03994 0 0 1.05859 115.8 -163.84)"/></g></svg>