<svg xmlns="http://www.w3.org/2000/svg" viewBox="0 0 256 256"><defs><clipPath><path d="m 74 56.824 h 129 v 139.69 h -129 Z"/></clipPath><clipPath><path transform="matrix(15.33333 0 0 11.5 415 -125.5)" d="m -24 13 c 0 1.105 -0.672 2 -1.5 2 -0.828 0 -1.5 -0.895 -1.5 -2 0 -1.105 0.672 -2 1.5 -2 0.828 0 1.5 0.895 1.5 2 z"/></clipPath><clipPath><path d="m 27.707 56.824 h 82.29 v 139.69 h -82.29 Z"/></clipPath><clipPath><path d="m 148 97 h 77.63 v 24 h -77.62 Z"/></clipPath><clipPath><path d="m 171 132 h 54.625 v 24 h -54.625 Z"/></clipPath></defs><g fill="#71706e" color="#000"><path d="M 205.08,1023.89 C 51.53,1143.02 -107.87,846.34 82.23,802.95 201.95,758.49 318.87,935.6 205.08,1023.89 z" transform="matrix(0 -1 1 0 -795.91 251.44)"/></g><g stroke="#fff"><rect width="63.798" height="91.18" x="145.07" y="83.64" rx="16.938" fill="#eef3f6" stroke-width="1.094"/><g transform="matrix(0.93919 0 0 1.034 -60.882 -15.567)" fill="#fff"><path d="m 250.32 189.31 c 0 12.447 -27.667 22.538 -61.797 22.538 -34.13 0 -61.797 -10.09 -61.797 -22.538 0 -12.447 27.667 -22.538 61.797 -22.538 34.13 0 61.797 10.09 61.797 22.538 z"/><rect width="125.13" height="109.64" x="125.36" y="87.51" ry="14.336" rx="15.783" stroke-width="1.144"/><path d="m 190.48 89.51 c 0 12.447 -27.667 22.538 -61.797 22.538 -34.13 0 -61.797 -10.09 -61.797 -22.538 0 -12.447 27.667 -22.538 61.797 -22.538 34.13 0 61.797 10.09 61.797 22.538 z" transform="translate(59.841 0.106)"/></g></g><path d="m 125.77 146.7 c -7.581 5.892 -17.304 13.395 -21.606 16.672 l -7.822 5.959 l -0.297 -32.602 c -0.163 -17.931 -0.079 -32.823 0.186 -33.09 0.377 -0.383 38.34 27.834 42.39 31.503 0.514 0.466 -5.269 5.668 -12.85 11.561 z" fill="#71706e" stroke="#71706e" stroke-width="1.126"/></svg>