<svg xmlns="http://www.w3.org/2000/svg" viewBox="0 0 256 256"><path d="m 3.254 157.3 c 49.98 239.91 393.86 -17.645 187.29 -139.59 c -80.25 -52.27 -213 16.199 -187.29 139.59" fill="#ff8c00"/><path d="m 118.83 212.62 c -10.184 -13.68 -10.309 -13.77 -14.617 -10.836 c -1.414 0.961 -3.094 1.555 -3.738 1.32 c -0.641 -0.238 -4.645 -4.633 -8.898 -9.77 c -4.953 -5.98 -8.48 -9.516 -9.82 -9.84 c -2.473 -0.594 -2.98 -0.207 -4.195 3.184 c -1.73 4.832 -3.113 3.684 -10.125 -8.398 c -3.652 -6.293 -7.527 -11.996 -8.613 -12.676 c -1.758 -1.102 -2.457 -1.105 -6.516 -0.023 c -2.5 0.664 -5.03 0.926 -5.613 0.578 c -1.195 -0.707 -0.816 -3.395 2.68 -19.02 c 1.656 -7.395 1.836 -9.375 1.012 -11.11 c -0.961 -2.02 -1.297 -2.105 -7.805 -2.105 c -5.04 0 -6.918 -0.293 -7.254 -1.129 c -0.555 -1.375 2.719 -7.699 12.01 -23.2 c 3.891 -6.492 7.309 -12.934 7.598 -14.313 c 0.32 -1.543 -0.004 -3.777 -0.844 -5.781 c -2.484 -5.941 -1.465 -10.32 3.414 -14.652 c 3.664 -3.254 7.254 -4.68 13.477 -5.344 c 3.121 -0.332 5.813 -1 5.977 -1.48 c 0.168 -0.484 -1.227 -2.715 -3.098 -4.961 c -4.523 -5.438 -4.465 -6.684 0.324 -6.684 c 2.051 0 6.68 0.539 10.289 1.199 c 3.605 0.66 6.75 1.02 6.98 0.797 c 0.234 -0.219 -0.219 -3.03 -1.01 -6.246 c -1.477 -6.04 -1.75 -8.883 -0.934 -9.664 c 0.258 -0.25 4.625 1.145 9.703 3.098 c 5.074 1.949 9.816 3.547 10.531 3.547 c 1.242 0 4.059 -3.871 9.996 -13.73 c 1.469 -2.441 3.234 -4.441 3.922 -4.441 c 0.688 0 2.453 2 3.926 4.441 c 5.934 9.859 8.754 13.73 9.992 13.73 c 0.719 0 5.5 -1.613 10.629 -3.586 c 8.01 -3.078 9.402 -3.402 9.848 -2.293 c 0.441 1.105 -0.391 6.438 -2.027 12.945 c -0.406 1.613 -0.137 1.816 2.379 1.805 c 1.563 -0.004 5.117 -0.539 7.906 -1.18 c 2.785 -0.645 6.301 -1.184 7.809 -1.199 c 3.91 -0.043 3.609 2.121 -1.055 7.602 c -2.09 2.453 -3.801 4.777 -3.801 5.164 c 0 0.383 2.648 0.914 5.887 1.172 c 14.547 1.168 22.781 10.203 18.18 19.953 c -0.98 2.078 -1.309 4.047 -0.957 5.73 c 0.297 1.414 3.723 7.879 7.613 14.371 c 9.285 15.496 12.559 21.82 12.01 23.2 c -0.336 0.836 -2.215 1.129 -7.254 1.129 c -6.512 0 -6.844 0.09 -7.805 2.105 c -0.824 1.734 -0.645 3.715 1.01 11.11 c 3.5 15.629 3.875 18.316 2.68 19.02 c -0.586 0.348 -3.113 0.086 -5.613 -0.578 c -4.059 -1.082 -4.758 -1.078 -6.516 0.023 c -1.082 0.68 -4.957 6.383 -8.609 12.676 c -7.02 12.08 -8.398 13.23 -10.129 8.398 c -1.215 -3.391 -1.719 -3.777 -4.195 -3.184 c -1.336 0.324 -4.867 3.859 -9.82 9.84 c -4.25 5.137 -8.254 9.531 -8.898 9.77 c -0.645 0.234 -2.285 -0.332 -3.652 -1.262 c -4.434 -3.02 -4.504 -2.969 -13.809 9.563 c -2.453 3.301 -4.922 6.145 -5.488 6.316 c -0.57 0.176 -2.848 -2.121 -5.07 -5.102 m 15.813 -34.07 c 3.723 -1.781 6.77 -6.793 5.398 -8.875 c -0.516 -0.785 -2.797 -1.82 -5.07 -2.305 c -2.27 -0.484 -5.344 -1.484 -6.832 -2.223 c -1.488 -0.734 -3.5 -1.34 -4.477 -1.34 c -0.973 0 -2.988 0.605 -4.477 1.34 c -1.484 0.738 -4.559 1.738 -6.832 2.223 c -5.48 1.168 -6.523 2.797 -4.316 6.746 c 2.535 4.531 6.05 5.844 15.625 5.844 c 5.949 0 8.789 -0.363 10.98 -1.41 m -19.359 -17.383 c 1.566 -1.012 3.426 -2.848 4.137 -4.086 c 1.238 -2.168 1.195 -2.324 -1.246 -4.262 c -1.395 -1.102 -3.391 -2.691 -4.434 -3.523 c -1.281 -1.023 -1.898 -2.398 -1.887 -4.203 c 0.023 -4.887 0.543 -5.109 11.809 -5.109 c 11.262 0 11.789 0.227 11.813 5.094 c 0.008 2.145 -0.734 3.324 -3.789 5.98 c -2.09 1.82 -3.801 3.93 -3.801 4.691 c 0 3.605 6.473 7.902 10.465 6.941 c 1.141 -0.273 3.965 -2.789 6.352 -5.656 c 2.793 -3.359 6.914 -6.879 11.789 -10.07 c 4.98 -3.262 7.93 -5.797 8.801 -7.559 c 1.418 -2.879 2.727 -9.301 3.59 -17.641 c 0.824 -7.945 -0.254 -9.66 -11.977 -19.07 c -25.777 -20.691 -31.16 -23.13 -40.77 -18.477 c -4.348 2.105 -15.898 10.484 -28.26 20.492 c -9.08 7.355 -10.191 9.41 -9.398 17.438 c 0.816 8.277 2.629 16.203 4.246 18.563 c 0.773 1.129 4.512 4.01 8.309 6.398 c 7.06 4.449 12.359 9.371 12.359 11.48 c 0 2.113 3.238 4.414 6.211 4.414 c 1.555 0 4.113 -0.828 5.68 -1.836 m -12.566 -37.906 c -0.57 -0.547 -2.641 -1.734 -4.602 -2.637 c -3.637 -1.676 -9.414 -7.984 -8.813 -9.621 c 1.066 -2.902 15.13 2.059 17.469 6.16 c 1.125 1.977 1.125 2.461 0 4.379 c -1.512 2.574 -2.656 3.059 -4.055 1.719 m 38.01 -0.043 c -0.484 -0.559 -1.137 -1.996 -1.453 -3.195 c -0.773 -2.957 2.234 -5.555 9.68 -8.348 c 5.734 -2.152 8.504 -2.355 9.09 -0.672 c 0.566 1.617 -5.152 7.813 -8.848 9.59 c -1.984 0.957 -4.055 2.164 -4.605 2.688 c -1.289 1.234 -2.758 1.211 -3.863 -0.063 m -62.727 -27.66 c 1.082 -1.035 0.988 -1.605 -0.75 -4.629 c -2.844 -4.949 -3.453 -5.555 -7.215 -7.191 c -4.215 -1.836 -12.09 -2.027 -12.777 -0.313 c -1.047 2.613 6.25 10.629 11.867 13.04 c 2.945 1.262 7.05 0.844 8.875 -0.906 m 103.49 -1.035 c 4.063 -2.707 9.07 -8.793 8.715 -10.586 c -0.438 -2.215 -8.707 -2.16 -13.305 0.086 c -3.984 1.949 -8.996 8.66 -8.113 10.863 c 1.305 3.25 7.551 3.07 12.703 -0.363 m -96.21 -12.656 c 1.141 -1.09 2.07 -2.535 2.07 -3.211 c 0 -3.27 -12.789 -5.633 -20.16 -3.723 c -4.344 1.125 -3.871 1.816 2.43 3.559 c 2.555 0.707 6.164 2.191 8.02 3.297 c 4.238 2.52 5.074 2.531 7.641 0.078 m 84.77 -0.406 c 2.723 -1.313 6.707 -2.813 8.859 -3.332 c 5.211 -1.254 5.512 -2.09 1.16 -3.219 c -7.301 -1.887 -20.08 0.496 -20.08 3.746 c 0 1.16 3.594 5.191 4.629 5.191 c 0.27 0 2.711 -1.074 5.434 -2.387" fill="#fff"/></svg>