<svg xmlns="http://www.w3.org/2000/svg" viewBox="0 0 256 256"><path d="m 148.26 252.51 c -34.69 -5.666 -79.946 -30.488 -107.85 -59.16 -22.12 -22.731 -33.26 -42.46 -37.429 -66.26 -5.83 -33.32 6.432 -59.968 38.692 -84.09 37.76 -27.04 92.2 -52.55 132.81 -37.55 c 16.11 6.01 27 12.936 38.17 24.27 22.829 23.17 37.15 56.656 40.759 95.28 2.047 21.884 0.601 39.15 -4.97 59.45 -9.492 34.595 -29.543 57.41 -58.46 66.53 -9.1 2.868 -29.07 3.604 -41.732 1.536 z" fill="#fe8b01"/><path d="m 148.72 177.16 l -39.951 -13.43 l 9.617 -8.684 c 5.289 -4.776 9.626 -8.835 9.637 -9.02 0.011 -0.184 -7.585 -9 -16.88 -19.595 -9.295 -10.593 -19.452 -22.22 -22.572 -25.843 l -5.672 -6.582 l 11.663 -10.647 c 6.415 -5.856 11.886 -10.641 12.159 -10.633 c 0.273 0.008 10.617 11.557 22.987 25.666 12.37 14.11 22.643 25.613 22.83 25.565 0.187 -0.048 4.758 -4.091 10.158 -8.984 6.09 -5.518 9.889 -8.652 10 -8.252 0.101 0.355 3.922 19.1 8.492 41.667 4.569 22.562 8.397 41.32 8.506 41.683 0.109 0.364 -0.077 0.629 -0.413 0.59 -0.336 -0.039 -18.589 -6.114 -40.562 -13.501 z" fill="#fff"/></svg>