<svg xmlns="http://www.w3.org/2000/svg" viewBox="0 0 256 256"><defs><clipPath><path d="m 74 56.824 h 129 v 139.69 h -129"/></clipPath><clipPath><path d="m 27.707 56.824 h 82.29 v 139.69 h -82.29"/></clipPath><clipPath><path d="m 171 132 h 54.625 v 24 h -54.625"/></clipPath><clipPath><path d="m 148 97 h 77.63 v 24 h -77.62"/></clipPath></defs><g transform="translate(0 -796.36)"><g color="#000"><g transform="matrix(0.96449 0 0 0.97987 4.04 28.03)" fill="#9370db"><path d="m 227.81 835.11 c 87.44 109.22 -44.799 274.52 -174.02 173.86 -122.38 -95.33 -16.907 -263.65 126.43 -211.07 c 19.694 7.226 34.821 21.251 47.595 37.21 z"/><path d="m 75.11 855.5 h 54.86 l 7.272 10.965 h 50.52 c 6.776 0 12.231 5.63 12.231 12.624 v 55.38 c 0 6.994 -5.455 12.624 -12.231 12.624 h -112.65 c -6.776 0 -12.231 -5.63 -12.231 -12.624 v -66.35 c 0 -6.994 5.455 -12.624 12.231 -12.624 z"/><rect width="137.11" height="84.74" x="65.02" y="882.61" rx="12.231"/></g><rect rx="12.231" y="696.18" x="230.73" height="84.74" width="137.11" transform="matrix(1.02947 0 0 1.04768 -173.37 156.48)" fill="#fff"/></g><path d="m 66.764 83.79 c 0.447 -9.344 0.593 -9.827 3.844 -12.732 3.357 -2.999 3.472 -3.02 17.349 -3.02 14.861 -0.039 28.955 -0.689 43.742 -1.366 2.743 3.949 5.486 7.897 8.23 11.846 l 25.969 0.04 c 14.746 0.023 27.29 0.503 29.03 1.112 3.713 1.3 7.811 6.994 7.811 10.854 v 2.822 c -57.03 -1.6 -97.14 -1.649 -136.44 0.161 0.155 -3.238 0.31 -6.475 0.464 -9.713 z" transform="translate(0 796.36)" fill="#d8bfd8" stroke="#d8bfd8" stroke-width="2.119"/></g></svg>