<svg xmlns="http://www.w3.org/2000/svg" viewBox="0 0 24 24"><path d="M 19.832031 3.617188 C 38.59375 28.484375 -13.035156 32.019531 3.535156 6.632812 C 7.3125 0.847656 14.863281 -2.96875 19.832031 3.617188 Z M 19.832031 3.617188 " fill="#ff8c00"/><g stroke="#fff" stroke-linejoin="round" stroke-linecap="round" stroke-width="5"><g fill-rule="evenodd" transform="matrix(0.29 0 0 0.265 3 4.95)"><path d="M 5.621539 21.319423 C 5.621539 20.936432 5.931511 20.627092 6.308868 20.627092 L 22.360011 20.627092 C 22.737368 20.627092 23.04734 20.936432 23.04734 21.319423 L 23.04734 37.360871 C 23.04734 37.743862 22.737368 38.053202 22.360011 38.053202 L 6.308868 38.053202 C 5.931511 38.053202 5.621539 37.743862 5.621539 37.360871 Z M 5.621539 21.319423 " fill="#ffe4c3"/><path d="M 32.629509 13.674325 C 32.629509 13.114569 33.074251 12.672655 33.626809 12.672655 L 53.370659 12.672655 C 53.923218 12.672655 54.36796 13.114569 54.36796 13.674325 L 54.36796 37.125184 C 54.36796 37.684941 53.923218 38.126854 53.370659 38.126854 L 33.626809 38.126854 C 33.074251 38.126854 32.629509 37.684941 32.629509 37.125184 Z M 32.629509 13.674325 " fill="#fff"/></g><path d="M 4.495614 48.898576 L 53.255512 48.898576 " transform="matrix(0.29 0 0 0.265 3.33 4.66)" fill="none"/></g></svg>