<svg xmlns="http://www.w3.org/2000/svg" viewBox="0 0 24 24"><path d="m 12.996 0.262 c -14.258 -1.867 -18.1 20.988 -3.457 23.289 c 13.461 2.688 20.395 -17.906 7.02 -22.547 c -1.129 -0.496 -2.367 -0.531 -3.563 -0.742" fill="#ff8c00"/><path d="m 19.04 12.164 c 0 -3.922 -3.168 -7.102 -7.07 -7.102 c -3.906 0 -7.07 3.18 -7.07 7.102 c 0 3.922 3.168 7.102 7.07 7.102 c 3.906 0 7.07 -3.18 7.07 -7.102 m -1.414 0 c 0 3.137 -2.535 5.684 -5.66 5.684 c -3.125 0 -5.66 -2.547 -5.66 -5.684 c 0 -3.137 2.535 -5.68 5.66 -5.68 c 3.125 0 5.66 2.543 5.66 5.68 m -4.246 -3.551 l -3.539 3.551 l 3.539 3.551" fill="#fff"/></svg>