<svg xmlns="http://www.w3.org/2000/svg" viewBox="0 0 24 24"><path d="m 3.656 4.336 c 24.762 -18.602 28.28 32.586 3 16.16 c -5.766 -3.746 -9.563 -11.234 -3 -16.16" fill="#ff8c00"/><path d="m 11.844 18.238 c -0.406 -0.113 -0.66 -0.313 -2.23 -1.73 l -1.453 -1.32 h -1.031 c -0.945 0 -1.043 -0.012 -1.246 -0.125 c -0.383 -0.223 -0.391 -0.305 -0.391 -3.047 c 0 -2.719 0.008 -2.785 0.363 -3.03 c 0.219 -0.148 0.258 -0.152 1.309 -0.18 l 1.082 -0.031 l 1.387 -1.266 c 0.766 -0.695 1.5 -1.344 1.637 -1.441 c 0.703 -0.496 1.387 -0.414 1.547 0.18 c 0.086 0.32 0.07 11.344 -0.016 11.598 c -0.125 0.371 -0.496 0.52 -0.957 0.391 m 3.598 -5.488 c -0.961 0 -1.195 -0.051 -1.398 -0.297 c -0.223 -0.27 -0.203 -0.625 0.047 -0.906 c 0.266 -0.379 0.777 -0.227 1.195 -0.234 c 2.199 0.023 0.695 -0.012 3.316 -0.012 c 0.516 0 0.98 0.027 1.082 0.063 c 0.32 0.117 0.449 0.699 0.238 1.07 c -0.145 0.258 -0.375 0.309 -1.352 0.313 c -2.547 -0.02 -0.457 0.004 -3.129 0.004" fill="#fff"/></svg>