<svg xmlns="http://www.w3.org/2000/svg" viewBox="0 0 24 24"><path d="m 17 23.72 c -33.85 2.36 -8.48 -43.1 5.9 -13.18 c 2.27 5.18 0.73 12.79 -5.9 13.18" style="fill:#ff8c00"/><g style="stroke-linecap:round"><g transform="matrix(0.094 0 0 0.094 0 -74.7)"><path d="m 91.5 998.2 c -3.74 -0.71 -6.82 -2.58 -9.52 -5.82 c -2.91 -3.45 -4.24 -6.4 -5.32 -11.97 c -1.33 -6.73 -7.56 -49.62 -12.13 -83.7 l -2.2 -16.41 c 1.25 -1.5 2.7 -2.95 4.24 -3.99 c 1.99 -1.29 22.69 -6.73 51.2 -13.38 c 10.56 -2.49 21.78 -5.15 24.98 -5.98 c 1.7 -1.58 9.64 -0.08 5.98 0.33 c -3.24 2.08 -67.2 17.66 -76.96 20.86 c -7.65 4.28 -0.71 7.94 3.62 11.1 l 6.27 -0.04 c 7.4 0 6.77 0.12 45.71 -9.52 c 31.46 -7.81 39.64 -9.56 41.76 -8.98 c 0.71 0.17 1.66 1.12 2.16 2.08 c 0.46 1 2.12 9.64 3.7 19.24 c 1.54 9.64 3.66 22.73 4.74 29.1 c 3.49 21.28 7.6 48.95 7.6 51.3 c 0 2.16 -0.12 2.37 -2.33 3.28 c -3.16 1.37 -26.8 8 -56.3 15.87 c -25.52 6.82 -31.1 7.81 -37.2 6.61" style="fill:#0336be;stroke:#0336be;stroke-width:0.81"/><g style="fill:#f8ed00"><path d="m 133 969.1 c -1.62 -1.91 -2.45 -5.61 -4.61 -19.86 c -1.16 -7.69 -2.49 -14.54 -2.91 -15.29 c -1.08 -1.87 -4.9 -0.29 -12.1 1.66 c -6.27 1.7 -9.1 0.42 -10 -0.87 c -0.37 -0.46 -0.58 -1.91 -0.5 -3.2 c 0.21 -2.99 2.24 -4.45 8.48 -6.19 c 3.49 -1.25 10.72 -2.04 11 -5.65 c 0.08 -1.25 -0.46 -4.86 -1.29 -7.98 c -1.79 -7.23 -2.95 -15.25 -1.29 -16.41 c 8.19 -5.65 12.47 -0.58 13.59 6.48 c 1.37 4.9 0.46 11.22 2.7 15.71 c 1.29 0.87 5.49 0.58 10.64 -0.75 c 6 -1.54 7.65 -1.37 9.14 0.75 c 1 1.45 1.04 1.87 0.42 3.53 c -1.08 2.74 -3.2 4.07 -9.39 5.86 c -5.82 1.66 -9.64 3.41 -10.1 4.65 c -0.12 0.42 0.75 7.81 1.99 16.5 c 1.29 8.69 2.29 16.37 2.29 17.1 c -0.87 3.66 -5.86 6.36 -8.1 3.95" style="stroke:#f8ed00;stroke-width:0.82"/><path d="m 68.4 879.7 c 0.83 -0.58 6.23 -2.33 12 -3.91 c 11.55 -3.16 65.74 -16.87 66.7 -16.87 c 0.21 6.11 4.95 10.51 17.33 12.67 c -26.3 7.11 -58.3 17.2 -83.4 18.45 c -9.93 1.95 -17.2 -7.36 -12.67 -10.35" style="stroke:#0336be;stroke-width:0.83"/></g><path d="m 193.5 901.2 h 2.7 c 12.13 0 22 9.35 22 20.82 v 79.6 c 0 11.47 -9.89 20.78 -22 20.78 h -2.7 c -12.18 0 -22 -9.31 -22 -20.78 v -79.6 c 0 -11.47 9.85 -20.82 22 -20.82" style="fill:#13203e;stroke:#ff8c00;stroke-width:4.63"/></g><g style="stroke:#fff;stroke-width:1.4"><path d="m 229.9 189.8 c 0 19.71 -16.45 35.69 -36.58 35.69 c -20.22 0 -36.58 -15.98 -36.58 -35.69 c 0 -19.71 16.36 -35.6 36.58 -35.6 c 20.1 0 36.58 15.89 36.58 35.6" transform="matrix(0.043 0 0 0.044 10.12 10.5)" style="fill:#30cd30"/><path d="m 229.9 189.8 c 0 19.71 -16.36 35.69 -36.58 35.69 c -20.22 0 -36.58 -15.98 -36.58 -35.69 c 0 -19.71 16.36 -35.6 36.58 -35.6 c 20.22 0 36.58 15.89 36.58 35.6" transform="matrix(0.043 0 0 0.044 10.1 7.15)" style="fill:#ff0"/><path d="m 229.9 189.9 c 0 19.71 -16.45 35.6 -36.58 35.6 c -20.22 0 -36.58 -15.89 -36.58 -35.6 c 0 -19.71 16.36 -35.69 36.58 -35.69 c 20.1 0 36.58 15.98 36.58 35.69" transform="matrix(0.043 0 0 0.044 10.12 3.72)" style="fill:#ff4500"/></g></g></svg>