<svg xmlns="http://www.w3.org/2000/svg" viewBox="0 0 24 24"><path d="m 5.137 20.09 c 18.04 15.5 29.16 -20.523 5.832 -20.02 c -9.641 0.273 -15.488 12.645 -5.832 20.02" fill="#ff8c00"/><g transform="scale(0.09375)"><path d="m 126 211.79 c -16.583 -21.542 -32.417 -48.25 -41 -69.12 c -5.417 -13.167 -9.5 -28.625 -9.125 -42.04 c 0.375 -9.208 2.208 -16.417 6.25 -24.833 c 7.5 -15.583 20.958 -27.708 36.75 -33.08 c 32.13 -10.917 68.46 14.417 76.79 46.33 c 0.833 3.458 1.667 10.792 1.667 14.583 c 0 25.17 -18.5 63.5 -50.667 104.96 c -5.04 6.542 -11.125 13.625 -11.625 13.625 c -3.5 -2.833 -6.5 -7.125 -9.04 -10.417" fill="#fff" stroke="#fff" stroke-width="3.297"/><g fill="#ff8c00" stroke="#ff8c00"><path d="m 134.29 170.75 c -0.667 -0.458 -2.958 -2.833 -5.125 -5.208 l -3.958 -4.292 v -60.58 h 8.25 c 4.542 0 9.375 0.125 10.75 0.333 l 2.542 0.333 v 60.46 l -3.25 3.5 c -6.083 6.583 -6.958 7.125 -9.208 5.458" stroke-width="4.485"/><path d="m 131.04 88.75 l -5.875 -0.167 l 0.125 -6.708 c 0.25 -9.458 -0.167 -9.125 10.708 -9.125 c 10.792 0 10.333 -0.417 10.625 9.375 l 0.25 7.04 l -4.958 -0.125 c -2.75 -0.042 -7.625 -0.167 -10.875 -0.292" stroke-width="4.507"/></g></g></svg>