<svg xmlns="http://www.w3.org/2000/svg" viewBox="0 0 24 24"><path d="m 21.41 4.51 c 8.2 10.35 -4.2 26 -16.31 16.47 c -11.47 -9 -1.59 -24.98 11.85 -20 c 1.85 0.68 3.27 2 4.46 3.53" style="fill:#f60"/><path d="m 7.1 6.7 h 5.14 l 0.68 1.02 h 4.73 c 0.64 0 1.15 0.52 1.15 1.18 v 5.17 c 0 0.66 -0.51 1.18 -1.15 1.18 h -10.56 c -0.63 0 -1.14 -0.52 -1.14 -1.18 v -6.2 c 0 -0.65 0.51 -1.18 1.14 -1.18" style="fill:#edb4ab"/><path d="m 6.97 8.93 h 10.78 c 0.63 0 1.15 0.51 1.15 1.14 v 5.63 c 0 0.63 -0.52 1.14 -1.15 1.14 h -10.78 c -0.63 0 -1.15 -0.51 -1.15 -1.14 v -5.63 c 0 -0.63 0.52 -1.14 1.15 -1.14" style="fill:#fff"/><path d="m 14.73 19.35 c -0.4 -0.16 -0.69 -0.29 -0.73 -0.34 c -0.09 -0.11 -0.08 -0.27 0.06 -0.61 l 0.13 -0.31 l -0.37 -0.36 l -0.38 -0.36 l -0.32 0.14 c -0.34 0.15 -0.5 0.17 -0.61 0.07 c -0.1 -0.08 -0.62 -1.29 -0.62 -1.43 c 0 -0.15 0.09 -0.23 0.47 -0.4 l 0.31 -0.14 v -0.52 l -0.01 -0.52 l -0.34 -0.14 c -0.37 -0.15 -0.46 -0.23 -0.46 -0.39 c 0 -0.16 0.48 -1.36 0.57 -1.44 c 0.11 -0.09 0.27 -0.07 0.62 0.06 l 0.32 0.13 l 0.11 -0.13 c 0.06 -0.07 0.22 -0.24 0.36 -0.37 l 0.25 -0.23 l -0.15 -0.35 c -0.08 -0.2 -0.15 -0.39 -0.15 -0.43 c 0 -0.04 0.04 -0.11 0.08 -0.16 c 0.11 -0.12 1.26 -0.63 1.42 -0.63 c 0.16 0 0.23 0.07 0.4 0.45 l 0.14 0.32 h 1.05 l 0.12 -0.31 c 0.14 -0.36 0.24 -0.48 0.4 -0.48 c 0.16 0 1.39 0.5 1.46 0.59 c 0.08 0.12 0.06 0.26 -0.07 0.6 l -0.12 0.31 l 0.74 0.73 l 0.33 -0.14 c 0.38 -0.16 0.51 -0.17 0.62 -0.05 c 0.1 0.11 0.61 1.27 0.61 1.4 c 0 0.14 -0.1 0.23 -0.47 0.4 l -0.34 0.16 l 0.02 0.18 c 0.02 0.1 0.02 0.33 0.02 0.52 v 0.34 l 0.29 0.1 c 0.38 0.13 0.51 0.24 0.51 0.4 c 0 0.14 -0.43 1.27 -0.54 1.41 c -0.11 0.14 -0.28 0.13 -0.66 -0.02 l -0.32 -0.13 l -0.05 0.09 c -0.03 0.05 -0.19 0.21 -0.35 0.38 l -0.3 0.29 l 0.14 0.31 c 0.16 0.37 0.18 0.52 0.05 0.63 c -0.12 0.11 -1.26 0.61 -1.41 0.61 c -0.16 0 -0.23 -0.08 -0.4 -0.45 l -0.14 -0.32 h -1.04 l -0.08 0.21 c -0.14 0.37 -0.22 0.51 -0.32 0.56 c -0.05 0.03 -0.12 0.05 -0.15 0.05 c -0.02 0 -0.34 -0.12 -0.71 -0.26 m 1.97 -2.94 c 0.28 -0.05 0.55 -0.2 0.75 -0.4 c 0.3 -0.32 0.41 -0.62 0.39 -1.08 c -0.01 -0.24 -0.03 -0.34 -0.12 -0.52 c -0.43 -0.89 -1.63 -1.09 -2.31 -0.36 c -0.65 0.69 -0.46 1.82 0.36 2.23 c 0.32 0.16 0.59 0.2 0.93 0.14" style="fill:#8b008b"/></svg>