<svg xmlns="http://www.w3.org/2000/svg" viewBox="0 0 24 24"><path d="m 0.352 9.504 c 1.859 -12.363 20.363 -12.734 23.16 -0.715 c 2.879 9.73 -7.547 17.684 -15.34 14.496 c -5.223 -1.504 -9.438 -7.672 -7.82 -13.781" fill="#ff8c00"/><g fill="#fff"><path d="m 5.363 13.746 h 4.703 v 4.871 h -4.703" fill-rule="evenodd"/><path d="m 4.422 15.695 h 15.05 v 0.973 h -15.05"/><path d="m 11 6.914 h 1.879 l 0.008 2.93 h 1.879 l -2.82 2.91 l -2.82 -2.91 h 1.879"/><g fill-rule="evenodd"><path d="m 5.363 4.977 h 2.824 v 4.871 h -2.824"/><path d="m 15.711 4.977 h 2.824 v 4.871 h -2.824"/><path d="m 4.422 6.926 h 2.824 v 0.973 h -2.824"/><path d="m 16.652 6.926 h 2.82 v 0.973 h -2.82"/><path d="m 13.832 13.746 h 4.703 v 4.871 h -4.703"/></g></g></svg>