<svg xmlns="http://www.w3.org/2000/svg" viewBox="0 0 24 24"><path d="m 18.293 20.21 c 6.938 -8.766 7.348 -16.516 1.121 -18.695 c -8.59 -3.01 -22.03 -1.57 -18.703 10.84 c 3.355 10.25 11.469 15.578 17.582 7.855" fill="#ff8c00"/><path d="m 15.284 3.065 c -3.558 3.01 -8.142 5.087 -12.814 5.249 c 0.453 8.997 6.084 16.698 13.528 21.312 c 7.458 -4.608 13.08 -12.315 13.535 -21.312 c -4.977 -0.225 -9.932 -2.445 -13.535 -5.939" transform="matrix(0.52584 0 0 0.55444 3.346 2.929)" fill="#fff" stroke="#fff" stroke-width="0.75"/><path d="m 11.785 18.203 c 0 0 3.359 -2.445 4.609 -4.887 c 1.25 -2.441 1.473 -4.953 1.473 -4.953 c 0 0 -1.398 -0.07 -3.602 -1.184 c -2.207 -1.117 -2.426 -1.676 -2.48 -1.676 c -0.055 0 -0.273 0.559 -2.48 1.676 c -2.207 1.113 -3.602 1.184 -3.602 1.184 c 0 0 0.219 2.512 1.469 4.953 c 1.25 2.441 4.609 4.887 4.609 4.887" fill="#ff8c00"/><g fill="#fff"><path d="m 14.336 7.211 c -0.918 1.23 -3.531 4.762 -5.879 7.93 c 1.469 1.699 3.328 3.059 3.328 3.059 c 0 0 3.355 -2.438 4.605 -4.879 c 1.25 -2.441 1.473 -4.965 1.473 -4.965 c 0 0 -1.367 -0.063 -3.531 -1.145"/><path d="m 6.852 9.508 h 4.03 v 1.035 h -4.03"/></g><path d="m 11.629 11.906 h 4.04 v 1.039 h -4.04" fill="#ff8c00"/><path d="m 9.332 7.992 v 4.254 h -0.98 v -4.254" fill="#fff"/></svg>