<svg xmlns="http://www.w3.org/2000/svg" viewBox="0 0 24 24"><path d="m 23.941 14.613 c -0.129 1.414 -0.484 2.957 -0.949 4.094 c -1.625 3.98 -4.926 5.836 -9.09 5.113 c -2.242 -0.391 -4.777 -1.5 -7.461 -3.27 c -3.199 -2.113 -5.625 -5.379 -6.238 -8.402 c -0.133 -0.637 -0.18 -1.844 -0.098 -2.484 c 0.273 -2.152 1.438 -3.945 3.633 -5.59 c 2.102 -1.574 4.238 -2.742 6.23 -3.398 c 4.09 -1.352 7.738 -0.535 10.379 2.328 c 1.855 2.01 3.039 4.738 3.512 8.08 c 0.07 0.5 0.133 3.01 0.086 3.527" fill="#5da1be"/><g fill="#fff" fill-rule="evenodd"><path d="m 12.219 12 c 0 2.246 -1.77 4.066 -3.953 4.066 c -2.18 0 -3.949 -1.82 -3.949 -4.066 c 0 -2.246 1.77 -4.066 3.949 -4.066 c 2.184 0 3.953 1.82 3.953 4.066"/><path d="m 15.742 8.852 c 0 1.801 -1.418 3.262 -3.164 3.262 c -1.75 0 -3.168 -1.461 -3.168 -3.262 c 0 -1.797 1.418 -3.258 3.168 -3.258 c 1.746 0 3.164 1.461 3.164 3.258"/><path d="m 20.84 12.863 c 0 2.508 -2.582 4.543 -5.762 4.543 c -3.184 0 -5.766 -2.035 -5.766 -4.543 c 0 -2.508 2.582 -4.539 5.766 -4.539 c 3.18 0 5.762 2.031 5.762 4.539"/><path d="m 20.934 9.27 c 0 0.984 -0.648 1.785 -1.449 1.785 c -0.805 0 -1.453 -0.801 -1.453 -1.785 c 0 -0.984 0.648 -1.781 1.453 -1.781 c 0.801 0 1.449 0.797 1.449 1.781"/><path d="m 5.598 10.609 c 0 0.582 -0.418 1.059 -0.93 1.059 c -0.512 0 -0.93 -0.477 -0.93 -1.059 c 0 -0.586 0.418 -1.059 0.93 -1.059 c 0.512 0 0.93 0.473 0.93 1.059"/></g><g fill="#5da1be" stroke="#5da1be" transform="scale(0.09375)"><path d="m 184.46 142.13 c -4.542 -1.958 -7.125 -6.125 -7.417 -12 c -0.417 -7.292 2 -12.167 7.125 -14.583 c 8.208 -3.792 16.292 1.875 16.292 11.5 l 0.042 2.375 h -19.583 l 0.042 1.375 c 0.042 3.333 1.958 6.583 4.75 8 c 2.167 1.167 7.875 1 11.125 -0.25 l 2.625 -1.042 v 1.917 c 0 1.875 0 1.875 -2.875 2.708 c -3.667 1 -9.792 1.042 -12.12 0 m 11.958 -18 c -0.833 -4.542 -3.5 -6.583 -8 -6.125 c -3.125 0.292 -4.875 1.5 -6.375 4.417 c -2.083 4.04 -2.208 4 6.833 4 h 7.958"/><path d="m 69.17 142.25 c -2.167 -0.583 -2.292 -0.667 -2.417 -2.667 l -0.167 -2.083 l 2.5 0.958 c 5.208 1.958 10.708 1.667 12.333 -0.667 c 1.125 -1.583 0.958 -4.167 -0.292 -5.333 c -0.583 -0.542 -2.958 -1.5 -5.25 -2.083 c -6.917 -1.833 -8.833 -3.583 -8.833 -7.958 c 0 -4.917 3 -7.542 9.04 -7.917 c 1.875 -0.083 4.458 0.125 5.833 0.458 c 2.417 0.625 2.542 0.75 2.667 2.5 l 0.167 1.833 l -2.375 -0.708 c -4.708 -1.417 -10.583 -0.625 -11.417 1.583 c -0.583 1.542 -0.292 3.583 0.667 4.458 c 0.542 0.5 2.958 1.417 5.417 2.125 c 7.375 2.042 9.667 4.417 9 9.292 c -0.625 4.583 -4.292 6.917 -10.583 6.833 c -2.25 0 -5.083 -0.292 -6.292 -0.625"/><path d="m 93.21 123.38 v -19.04 h 4 v 11.333 c 0 6.833 0.208 11.25 0.5 11.167 c 0.25 -0.125 3.25 -2.833 6.708 -6.083 c 6.167 -5.792 6.292 -5.875 8.625 -5.875 h 2.375 l -4.958 4.667 c -2.708 2.542 -5.875 5.458 -6.958 6.5 l -2 1.792 l 14.5 14.583 h -5.167 l -6.5 -6.75 c -3.542 -3.708 -6.625 -6.75 -6.792 -6.75 c -0.167 0 -0.333 3.042 -0.333 6.75 v 6.75 h -4"/><path d="m 119.29 151.21 c 0 -1.708 0.042 -1.75 1.875 -1.75 c 2.667 0 3.833 -1 5.083 -4.375 l 1.083 -2.917 l -5.25 -13.542 l -5.25 -13.5 l 1.792 -0.167 c 1 -0.083 1.958 0.042 2.125 0.25 c 0.208 0.208 2.167 5.208 4.333 11.04 c 2.167 5.833 4.04 10.5 4.208 10.375 c 0.125 -0.167 2.083 -5.04 4.292 -10.875 l 4 -10.625 l 1.875 -0.167 c 1.042 -0.083 1.875 0.083 1.875 0.333 c 0 0.667 -11.792 31.708 -12.708 33.542 c -1.458 2.792 -3.583 4.125 -6.625 4.125 h -2.708"/><path d="m 147.83 133.92 v -19.04 h 4.04 v 4.75 l 1.333 -1.708 c 2.583 -3.292 7.5 -4.417 11.08 -2.583 c 4.04 2.083 6.167 6.083 6.5 12.375 c 0.458 8.417 -3.167 14.583 -8.917 15.13 c -3.917 0.375 -5.833 -0.208 -8.04 -2.5 l -1.958 -2.042 v 14.667 h -4.04 m 15.542 -14.417 c 2.417 -1.75 3.292 -4.375 3.292 -9.875 c 0 -4.375 -0.167 -5.292 -1.208 -7.083 c -1.458 -2.583 -3.375 -3.708 -6.25 -3.708 c -4.875 0 -7.75 4.958 -7.208 12.333 c 0.417 5.292 2.333 8.458 5.625 9.375 c 1.625 0.458 4.417 -0.083 5.75 -1.042"/></g></svg>