<svg xmlns="http://www.w3.org/2000/svg" viewBox="0 0 24 24"><g fill="#fff"><path d="M 15.875 8.5625 C 15.875 9.714844 14.941406 10.644531 13.789062 10.644531 C 12.640625 10.644531 11.707031 9.714844 11.707031 8.5625 C 11.707031 7.414062 12.640625 6.480469 13.789062 6.480469 C 14.941406 6.480469 15.875 7.414062 15.875 8.5625 Z M 15.875 8.5625 "/><path d="M 16.121094 15.878906 C 16.121094 17.03125 15.1875 17.964844 14.039062 17.964844 C 12.886719 17.964844 11.957031 17.03125 11.957031 15.878906 C 11.957031 14.730469 12.886719 13.796875 14.039062 13.796875 C 15.1875 13.796875 16.121094 14.730469 16.121094 15.878906 Z M 16.121094 15.878906 "/><path d="M 8.132812 11.878906 C 8.132812 13.027344 7.199219 13.960938 6.050781 13.960938 C 4.898438 13.960938 3.964844 13.027344 3.964844 11.878906 C 3.964844 10.726562 4.898438 9.796875 6.050781 9.796875 C 7.199219 9.796875 8.132812 10.726562 8.132812 11.878906 Z M 8.132812 11.878906 "/></g><path d="M 12.066406 0.300781 C 27.980469 -1.503906 27.757812 24.304688 11.785156 24 C -3.074219 24.851562 -4.414062 -1.105469 12.066406 0.300781 Z M 12.066406 0.300781 " fill="#ff8c00"/><g stroke-linejoin="round" stroke-linecap="round" transform="matrix(0.196 0 0 0.201 6.07 5.87)"><g fill="none" stroke="#fff" stroke-width="8.41"><path d="M 3.001248 1.246607 C 2.024902 1.246607 1.24781 2.024279 1.24781 2.996368 L 1.24781 14.894742 C 1.24781 15.866832 2.024902 16.663945 3.001248 16.663945 L 14.89673 16.663945 C 15.873077 16.663945 16.650168 15.866832 16.650168 14.894742 L 16.650168 2.996368 C 16.650168 2.024279 15.873077 1.246607 14.89673 1.246607 Z M 3.001248 1.246607 "/><path d="M 24.042503 1.246607 C 23.086083 1.246607 22.289065 2.024279 22.289065 2.996368 L 22.289065 14.894742 C 22.289065 15.866832 23.086083 16.663945 24.042503 16.663945 L 35.937986 16.663945 C 36.914332 16.663945 37.711349 15.866832 37.711349 14.894742 L 37.711349 2.996368 C 37.711349 2.024279 36.914332 1.246607 35.937986 1.246607 Z M 24.042503 1.246607 "/><path d="M 45.103684 1.246607 C 44.127338 1.246607 43.350246 2.024279 43.350246 2.996368 L 43.350246 14.894742 C 43.350246 15.866832 44.127338 16.663945 45.103684 16.663945 L 56.999166 16.663945 C 57.975512 16.663945 58.752604 15.866832 58.752604 14.894742 L 58.752604 2.996368 C 58.752604 2.024279 57.975512 1.246607 56.999166 1.246607 Z M 45.103684 1.246607 "/><path d="M 3.001248 22.302063 C 2.024902 22.302063 1.24781 23.079735 1.24781 24.051824 L 1.24781 35.950198 C 1.24781 36.922287 2.024902 37.699959 3.001248 37.699959 L 14.89673 37.699959 C 15.873077 37.699959 16.650168 36.922287 16.650168 35.950198 L 16.650168 24.051824 C 16.650168 23.079735 15.873077 22.302063 14.89673 22.302063 Z M 3.001248 22.302063 "/><path d="M 24.042503 22.302063 C 23.086083 22.302063 22.289065 23.079735 22.289065 24.051824 L 22.289065 35.950198 C 22.289065 36.922287 23.086083 37.699959 24.042503 37.699959 L 35.937986 37.699959 C 36.914332 37.699959 37.711349 36.922287 37.711349 35.950198 L 37.711349 24.051824 C 37.711349 23.079735 36.914332 22.302063 35.937986 22.302063 Z M 24.042503 22.302063 "/><path d="M 45.103684 22.302063 C 44.127338 22.302063 43.350246 23.079735 43.350246 24.051824 L 43.350246 35.950198 C 43.350246 36.922287 44.127338 37.699959 45.103684 37.699959 L 56.999166 37.699959 C 57.975512 37.699959 58.752604 36.922287 58.752604 35.950198 L 58.752604 24.051824 C 58.752604 23.079735 57.975512 22.302063 56.999166 22.302063 Z M 45.103684 22.302063 "/><path d="M 3.001248 43.338077 C 2.024902 43.338077 1.24781 44.115749 1.24781 45.087838 L 1.24781 56.986212 C 1.24781 57.958301 2.024902 58.755415 3.001248 58.755415 L 14.89673 58.755415 C 15.873077 58.755415 16.650168 57.958301 16.650168 56.986212 L 16.650168 45.087838 C 16.650168 44.115749 15.873077 43.338077 14.89673 43.338077 Z M 3.001248 43.338077 "/><path d="M 24.042503 43.338077 C 23.086083 43.338077 22.289065 44.115749 22.289065 45.087838 L 22.289065 56.986212 C 22.289065 57.958301 23.086083 58.755415 24.042503 58.755415 L 35.937986 58.755415 C 36.914332 58.755415 37.711349 57.958301 37.711349 56.986212 L 37.711349 45.087838 C 37.711349 44.115749 36.914332 43.338077 35.937986 43.338077 Z M 24.042503 43.338077 "/><path d="M 45.103684 43.338077 C 44.127338 43.338077 43.350246 44.115749 43.350246 45.087838 L 43.350246 56.986212 C 43.350246 57.958301 44.127338 58.755415 45.103684 58.755415 L 56.999166 58.755415 C 57.975512 58.755415 58.752604 57.958301 58.752604 56.986212 L 58.752604 45.087838 C 58.752604 44.115749 57.975512 43.338077 56.999166 43.338077 Z M 45.103684 43.338077 "/></g><g fill="#fff" fill-rule="evenodd" stroke="#ff8c00" stroke-width="2.81"><g stroke-dasharray="2.80484 2.80484"><path d="M 3.001248 1.246607 C 2.024902 1.246607 1.24781 2.024279 1.24781 2.996368 L 1.24781 14.894742 C 1.24781 15.866832 2.024902 16.663945 3.001248 16.663945 L 14.89673 16.663945 C 15.873077 16.663945 16.650168 15.866832 16.650168 14.894742 L 16.650168 2.996368 C 16.650168 2.024279 15.873077 1.246607 14.89673 1.246607 Z M 3.001248 1.246607 "/><path d="M 24.042503 1.246607 C 23.086083 1.246607 22.289065 2.024279 22.289065 2.996368 L 22.289065 14.894742 C 22.289065 15.866832 23.086083 16.663945 24.042503 16.663945 L 35.937986 16.663945 C 36.914332 16.663945 37.711349 15.866832 37.711349 14.894742 L 37.711349 2.996368 C 37.711349 2.024279 36.914332 1.246607 35.937986 1.246607 Z M 24.042503 1.246607 "/><path d="M 45.103684 1.246607 C 44.127338 1.246607 43.350246 2.024279 43.350246 2.996368 L 43.350246 14.894742 C 43.350246 15.866832 44.127338 16.663945 45.103684 16.663945 L 56.999166 16.663945 C 57.975512 16.663945 58.752604 15.866832 58.752604 14.894742 L 58.752604 2.996368 C 58.752604 2.024279 57.975512 1.246607 56.999166 1.246607 Z M 45.103684 1.246607 "/></g><g stroke-dasharray="2.80485 2.80485"><path d="M 3.001248 22.302063 C 2.024902 22.302063 1.24781 23.079735 1.24781 24.051824 L 1.24781 35.950198 C 1.24781 36.922287 2.024902 37.699959 3.001248 37.699959 L 14.89673 37.699959 C 15.873077 37.699959 16.650168 36.922287 16.650168 35.950198 L 16.650168 24.051824 C 16.650168 23.079735 15.873077 22.302063 14.89673 22.302063 Z M 3.001248 22.302063 "/><path d="M 24.042503 22.302063 C 23.086083 22.302063 22.289065 23.079735 22.289065 24.051824 L 22.289065 35.950198 C 22.289065 36.922287 23.086083 37.699959 24.042503 37.699959 L 35.937986 37.699959 C 36.914332 37.699959 37.711349 36.922287 37.711349 35.950198 L 37.711349 24.051824 C 37.711349 23.079735 36.914332 22.302063 35.937986 22.302063 Z M 24.042503 22.302063 "/><path d="M 45.103684 22.302063 C 44.127338 22.302063 43.350246 23.079735 43.350246 24.051824 L 43.350246 35.950198 C 43.350246 36.922287 44.127338 37.699959 45.103684 37.699959 L 56.999166 37.699959 C 57.975512 37.699959 58.752604 36.922287 58.752604 35.950198 L 58.752604 24.051824 C 58.752604 23.079735 57.975512 22.302063 56.999166 22.302063 Z M 45.103684 22.302063 "/><path d="M 3.001248 43.338077 C 2.024902 43.338077 1.24781 44.115749 1.24781 45.087838 L 1.24781 56.986212 C 1.24781 57.958301 2.024902 58.755415 3.001248 58.755415 L 14.89673 58.755415 C 15.873077 58.755415 16.650168 57.958301 16.650168 56.986212 L 16.650168 45.087838 C 16.650168 44.115749 15.873077 43.338077 14.89673 43.338077 Z M 3.001248 43.338077 "/><path d="M 24.042503 43.338077 C 23.086083 43.338077 22.289065 44.115749 22.289065 45.087838 L 22.289065 56.986212 C 22.289065 57.958301 23.086083 58.755415 24.042503 58.755415 L 35.937986 58.755415 C 36.914332 58.755415 37.711349 57.958301 37.711349 56.986212 L 37.711349 45.087838 C 37.711349 44.115749 36.914332 43.338077 35.937986 43.338077 Z M 24.042503 43.338077 "/><path d="M 45.103684 43.338077 C 44.127338 43.338077 43.350246 44.115749 43.350246 45.087838 L 43.350246 56.986212 C 43.350246 57.958301 44.127338 58.755415 45.103684 58.755415 L 56.999166 58.755415 C 57.975512 58.755415 58.752604 57.958301 58.752604 56.986212 L 58.752604 45.087838 C 58.752604 44.115749 57.975512 43.338077 56.999166 43.338077 Z M 45.103684 43.338077 "/></g></g></g></svg>