<svg xmlns="http://www.w3.org/2000/svg" viewBox="0 0 24 24"><path d="m 18.992 22.586 c -35.75 10.426 -12.961 -41.09 3.035 -15.246 c 2.922 4.746 3.125 12.805 -3.035 15.246" fill="#ff8c00"/><path d="m 11.508 4.145 v 0.84 h 0.781 v -0.84 m -0.41 1.184 c -0.156 0 -0.301 0.086 -0.441 0.254 l -2.605 2.938 l -4.52 0.801 c -0.359 0.063 -0.477 0.516 -0.188 0.742 l 3.379 2.633 l -0.891 6.01 c -0.047 0.301 0.234 0.543 0.527 0.469 l 4.758 -1.258 l 4.758 1.258 c 0.293 0.078 0.574 -0.168 0.531 -0.469 l -0.895 -6.01 l 3.379 -2.633 c 0.289 -0.227 0.172 -0.68 -0.188 -0.742 l -4.516 -0.801 l -2.609 -2.938 c -0.168 -0.172 -0.328 -0.254 -0.48 -0.254 m 0.02 1.01 l 2.527 2.848 c 0.063 0.07 0.148 0.121 0.246 0.137 l 3.734 0.66 l -2.832 2.211 c -0.121 0.09 -0.18 0.238 -0.156 0.387 l 0.832 5.625 l -4.191 -1.109 c -0.055 -0.016 -0.109 -0.016 -0.164 -0.008 c 0 0 -0.004 0 -0.004 0 c -0.051 -0.008 -0.102 -0.004 -0.152 0.008 l -4.191 1.109 l 0.832 -5.625 c 0.023 -0.148 -0.039 -0.297 -0.156 -0.387 l -2.836 -2.211 l 3.742 -0.66 c 0.094 -0.016 0.18 -0.066 0.242 -0.137 m 2.137 -2.207 v 0.844 h 0.781 v -0.844 m -0.781 1.504 v 0.844 h 0.781 v -0.844 m -0.781 1.504 v 0.844 h 0.781 v -0.844 m -0.781 1.504 v 0.844 h 0.781 v -0.844 m -0.781 1.504 v 0.84 h 0.781 v -0.84 m -0.781 1.504 v 0.844 h 0.781 v -0.844 m -0.781 1.504 v 0.84 h 0.781 v -0.84 m -0.781 2.266 v 0.844 h 0.781 v -0.844 m -0.781 1.258 v 0.84 h 0.781 v -0.84" fill="#fff"/></svg>