<svg xmlns="http://www.w3.org/2000/svg" viewBox="0 0 24 24"><path d="m 11.04 23.832 c 14.258 1.363 18.1 -21.625 3.457 -23.41 c -13.461 -2.211 -20.395 18.625 -7.02 22.793 c 1.129 0.457 2.367 0.449 3.562 0.617" fill="#ff8c00"/><path d="m 6.531 10.594 c -0.426 0 -0.773 0.777 -0.773 1.746 v 3.492 c 0 0.965 0.348 1.746 0.773 1.746 h 10.836 c 0.426 0 0.773 -0.781 0.773 -1.746 v -3.492 c 0 -0.969 -0.348 -1.746 -0.773 -1.746 c -0.43 0 -0.773 0.777 -0.773 1.746 v 1.746 h -9.289 v -1.746 c 0 -0.969 -0.344 -1.746 -0.773 -1.746" fill="#fff"/></svg>