
<svg xmlns="http://www.w3.org/2000/svg" xmlns:xlink="http://www.w3.org/1999/xlink" width="24px" height="24px" viewBox="0 0 24 24" version="1.1">
<g id="surface1">
<path style=" stroke:none;fill-rule:nonzero;fill:rgb(100%,54.901961%,0%);fill-opacity:1;" d="M 23.71875 9.324219 C 22.230469 -0.429688 9.015625 -3.039062 3.179688 3.921875 C -1.957031 9.09375 -0.679688 18.996094 5.621094 22.390625 C 12.859375 26.933594 23.40625 21.316406 23.980469 12.277344 C 24.039062 11.285156 23.957031 10.285156 23.722656 9.324219 Z M 23.71875 9.324219 "/>
<path style=" stroke:none;fill-rule:nonzero;fill:rgb(100%,100%,100%);fill-opacity:1;" d="M 6.371094 5.808594 C 6.007812 5.835938 5.730469 6.144531 5.730469 6.519531 C 5.730469 6.910156 6.039062 7.226562 6.421875 7.226562 C 6.800781 7.226562 7.109375 6.910156 7.109375 6.519531 C 7.109375 6.128906 6.800781 5.8125 6.421875 5.808594 C 6.402344 5.808594 6.386719 5.808594 6.371094 5.808594 Z M 11.886719 5.808594 C 11.550781 5.835938 11.28125 6.101562 11.246094 6.449219 C 11.246094 6.472656 11.242188 6.496094 11.242188 6.519531 C 11.242188 6.882812 11.511719 7.1875 11.863281 7.222656 C 11.886719 7.222656 11.910156 7.226562 11.933594 7.226562 C 12.3125 7.226562 12.625 6.910156 12.625 6.519531 C 12.625 6.125 12.3125 5.808594 11.933594 5.808594 C 11.917969 5.808594 11.902344 5.808594 11.886719 5.808594 Z M 17.398438 5.808594 C 17.117188 5.832031 16.875 6.027344 16.789062 6.308594 C 16.78125 6.332031 16.777344 6.351562 16.769531 6.375 C 16.761719 6.421875 16.757812 6.46875 16.757812 6.519531 C 16.757812 6.535156 16.757812 6.550781 16.761719 6.566406 C 16.761719 6.589844 16.765625 6.617188 16.769531 6.640625 C 16.828125 6.976562 17.113281 7.226562 17.445312 7.226562 C 17.828125 7.226562 18.136719 6.910156 18.136719 6.519531 C 18.136719 6.125 17.828125 5.808594 17.445312 5.808594 C 17.429688 5.808594 17.414062 5.808594 17.398438 5.808594 Z M 14.675781 6.050781 C 14.492188 6.050781 14.316406 6.125 14.1875 6.257812 C 14.058594 6.390625 13.984375 6.570312 13.984375 6.757812 C 13.984375 7.152344 14.292969 7.46875 14.675781 7.46875 C 15.054688 7.464844 15.363281 7.148438 15.363281 6.757812 C 15.363281 6.570312 15.292969 6.390625 15.164062 6.257812 C 15.035156 6.125 14.859375 6.050781 14.675781 6.050781 Z M 9.179688 6.25 C 8.800781 6.25 8.492188 6.566406 8.492188 6.957031 C 8.492188 7.144531 8.5625 7.324219 8.691406 7.460938 C 8.820312 7.59375 8.996094 7.667969 9.179688 7.667969 C 9.363281 7.667969 9.539062 7.59375 9.671875 7.460938 C 9.800781 7.324219 9.871094 7.144531 9.871094 6.957031 C 9.871094 6.566406 9.5625 6.25 9.179688 6.25 Z M 13.761719 8.019531 C 13.367188 8.019531 13.050781 8.328125 13.050781 8.707031 C 13.050781 9.089844 13.367188 9.398438 13.761719 9.398438 C 14.152344 9.394531 14.46875 9.089844 14.46875 8.707031 C 14.46875 8.328125 14.152344 8.023438 13.761719 8.019531 Z M 16.640625 8.222656 C 16.453125 8.21875 16.273438 8.292969 16.136719 8.421875 C 16.003906 8.550781 15.929688 8.726562 15.929688 8.910156 C 15.929688 9.289062 16.25 9.597656 16.640625 9.597656 C 17.03125 9.597656 17.351562 9.289062 17.351562 8.910156 C 17.351562 8.53125 17.03125 8.222656 16.640625 8.222656 Z M 6.632812 8.398438 C 6.238281 8.398438 5.921875 8.707031 5.921875 9.085938 C 5.921875 9.464844 6.238281 9.773438 6.632812 9.773438 C 6.820312 9.773438 7 9.703125 7.132812 9.574219 C 7.265625 9.445312 7.34375 9.269531 7.34375 9.085938 C 7.34375 8.902344 7.265625 8.726562 7.132812 8.597656 C 7 8.46875 6.820312 8.398438 6.632812 8.398438 Z M 9.175781 8.578125 C 8.785156 8.578125 8.46875 8.886719 8.464844 9.265625 C 8.464844 9.449219 8.539062 9.625 8.675781 9.753906 C 8.808594 9.882812 8.988281 9.957031 9.175781 9.957031 C 9.363281 9.957031 9.546875 9.882812 9.679688 9.753906 C 9.8125 9.625 9.886719 9.449219 9.886719 9.265625 C 9.886719 8.886719 9.566406 8.578125 9.175781 8.578125 Z M 11.621094 9.09375 C 11.433594 9.09375 11.253906 9.164062 11.121094 9.292969 C 10.984375 9.425781 10.910156 9.597656 10.910156 9.78125 C 10.914062 10.164062 11.230469 10.46875 11.621094 10.46875 C 12.011719 10.46875 12.332031 10.164062 12.332031 9.78125 C 12.332031 9.601562 12.257812 9.425781 12.125 9.296875 C 11.992188 9.164062 11.808594 9.09375 11.621094 9.09375 Z M 15.175781 10.25 C 14.785156 10.25 14.46875 10.558594 14.46875 10.9375 C 14.46875 11.316406 14.785156 11.621094 15.175781 11.625 C 15.566406 11.625 15.886719 11.316406 15.886719 10.9375 C 15.886719 10.753906 15.8125 10.578125 15.679688 10.449219 C 15.542969 10.320312 15.363281 10.25 15.175781 10.25 Z M 7.644531 11.101562 C 7.253906 11.101562 6.9375 11.410156 6.9375 11.792969 C 6.9375 12.171875 7.253906 12.476562 7.644531 12.476562 C 8.039062 12.480469 8.355469 12.171875 8.359375 11.792969 C 8.359375 11.609375 8.28125 11.433594 8.148438 11.304688 C 8.015625 11.175781 7.835938 11.101562 7.644531 11.101562 Z M 17.164062 11.386719 C 16.773438 11.386719 16.457031 11.691406 16.453125 12.066406 C 16.449219 12.25 16.523438 12.429688 16.660156 12.558594 C 16.792969 12.6875 16.972656 12.761719 17.164062 12.761719 C 17.351562 12.761719 17.53125 12.6875 17.664062 12.558594 C 17.800781 12.425781 17.875 12.25 17.871094 12.066406 C 17.867188 11.691406 17.550781 11.386719 17.164062 11.386719 Z M 10.605469 11.476562 C 10.214844 11.476562 9.898438 11.78125 9.898438 12.164062 C 9.898438 12.542969 10.214844 12.851562 10.605469 12.851562 C 10.996094 12.847656 11.3125 12.542969 11.3125 12.164062 C 11.308594 11.785156 10.996094 11.476562 10.605469 11.476562 Z M 13.457031 12.222656 C 13.265625 12.222656 13.085938 12.292969 12.953125 12.421875 C 12.820312 12.554688 12.742188 12.726562 12.742188 12.910156 C 12.746094 13.292969 13.0625 13.597656 13.457031 13.597656 C 13.847656 13.597656 14.164062 13.292969 14.164062 12.910156 C 14.164062 12.726562 14.089844 12.554688 13.957031 12.425781 C 13.824219 12.292969 13.644531 12.222656 13.457031 12.222656 Z M 8.503906 13.382812 C 8.320312 13.382812 8.144531 13.457031 8.015625 13.589844 C 7.886719 13.722656 7.8125 13.90625 7.8125 14.09375 C 7.8125 14.484375 8.121094 14.800781 8.503906 14.800781 C 8.882812 14.800781 9.191406 14.484375 9.191406 14.09375 C 9.191406 13.703125 8.882812 13.382812 8.503906 13.382812 Z M 6.421875 13.757812 C 6.03125 13.757812 5.714844 14.066406 5.714844 14.449219 C 5.714844 14.828125 6.03125 15.136719 6.421875 15.136719 C 6.609375 15.136719 6.792969 15.0625 6.925781 14.933594 C 7.058594 14.804688 7.132812 14.628906 7.132812 14.449219 C 7.132812 14.265625 7.058594 14.089844 6.925781 13.960938 C 6.792969 13.832031 6.609375 13.757812 6.421875 13.757812 Z M 16.636719 13.820312 C 16.246094 13.820312 15.929688 14.128906 15.929688 14.507812 C 15.929688 14.886719 16.246094 15.195312 16.636719 15.195312 C 17.027344 15.195312 17.347656 14.886719 17.347656 14.507812 C 17.347656 14.324219 17.273438 14.148438 17.140625 14.019531 C 17.007812 13.890625 16.824219 13.820312 16.636719 13.820312 Z M 14.234375 14.417969 C 13.851562 14.417969 13.546875 14.734375 13.542969 15.125 C 13.542969 15.515625 13.851562 15.832031 14.234375 15.832031 C 14.417969 15.832031 14.59375 15.757812 14.722656 15.625 C 14.851562 15.492188 14.921875 15.3125 14.921875 15.125 C 14.921875 14.734375 14.613281 14.414062 14.234375 14.417969 Z M 11.011719 14.722656 C 10.621094 14.722656 10.304688 15.03125 10.304688 15.410156 C 10.304688 15.792969 10.621094 16.101562 11.011719 16.101562 C 11.203125 16.101562 11.382812 16.027344 11.515625 15.898438 C 11.648438 15.769531 11.726562 15.59375 11.726562 15.410156 C 11.726562 15.230469 11.648438 15.054688 11.515625 14.925781 C 11.382812 14.792969 11.203125 14.722656 11.011719 14.722656 Z M 8.605469 16.144531 C 8.222656 16.144531 7.914062 16.460938 7.914062 16.851562 C 7.914062 17.039062 7.984375 17.21875 8.117188 17.351562 C 8.246094 17.484375 8.421875 17.558594 8.605469 17.558594 C 8.984375 17.558594 9.292969 17.242188 9.292969 16.851562 C 9.289062 16.460938 8.984375 16.144531 8.605469 16.144531 Z M 6.421875 16.816406 C 6.039062 16.8125 5.730469 17.128906 5.730469 17.523438 C 5.730469 17.914062 6.039062 18.230469 6.421875 18.230469 C 6.800781 18.230469 7.109375 17.914062 7.109375 17.523438 C 7.109375 17.132812 6.800781 16.816406 6.421875 16.816406 Z M 11.933594 16.816406 C 11.554688 16.8125 11.242188 17.128906 11.242188 17.523438 C 11.242188 17.914062 11.554688 18.230469 11.933594 18.230469 C 12.3125 18.230469 12.625 17.914062 12.625 17.523438 C 12.625 17.128906 12.3125 16.8125 11.933594 16.816406 Z M 14.691406 16.816406 C 14.308594 16.816406 14.003906 17.132812 14 17.523438 C 14.003906 17.914062 14.308594 18.230469 14.691406 18.230469 C 15.070312 18.230469 15.378906 17.914062 15.378906 17.523438 C 15.378906 17.128906 15.070312 16.8125 14.691406 16.816406 Z M 17.445312 16.816406 C 17.066406 16.816406 16.757812 17.132812 16.757812 17.523438 C 16.757812 17.914062 17.066406 18.230469 17.445312 18.230469 C 17.828125 18.230469 18.136719 17.914062 18.136719 17.523438 C 18.136719 17.128906 17.828125 16.8125 17.445312 16.816406 Z M 17.445312 16.816406 "/>
</g>
</svg>
