<svg xmlns="http://www.w3.org/2000/svg" viewBox="0 0 24 24"><path d="m 17.1 23.91 c -34.52 2.38 -8.64 -43.66 6 -13.34 c 2 4.67 0.54 11.64 -6 13.34" style="fill:#218b21"/><g transform="matrix(0.101 0 0 0.086 -1.13 0.72)" style="fill:#f4f4f4;stroke:#fff;stroke-linecap:round"><g style="stroke-width:1.08"><path d="m 65.76 204.9 c -1.51 -0.59 -1.74 -1.22 -1.74 -5.2 v -4.53 l 4.71 -0.5 c 6 -0.63 52.2 -0.63 56 0 l 2.86 0.5 v 4.8 c 0 4.3 -0.15 4.84 -1.7 5.25 c -2.78 0.72 -58.3 0.45 -60.2 -0.32"/><path d="m 70.4 185.2 c 0 -4.89 0.5 -5.57 4.17 -5.57 h 3.24 l 0.5 -30.77 c 0.35 -22.35 0.27 -31 -0.35 -31.77 c -0.5 -0.59 -2.2 -1.04 -3.86 -1.04 c -4.4 -0.23 -2.97 -4 -2.97 -7.69 c 10.58 -0.09 22.2 0.05 31.52 1 l -0.23 3.17 c -0.23 3.08 -0.27 3.12 -3.4 3.35 c -2.86 0.23 -3.21 0.5 -3.63 2.58 c -0.62 3.12 -0.62 55.71 0 58.78 c 0.39 1.99 0.85 2.4 2.63 2.4 c 3.86 0 4.56 0.68 4.56 4.3 v 3.39 c -10.97 -0.18 -22.79 0.45 -32.2 1"/><path d="m 112.5 187.4 c -1.66 -0.54 -1.89 -1 -1.74 -3.57 c 0.19 -3.35 1.08 -4.16 4.52 -4.21 h 2.39 l 0.58 -30.41 c 0.35 -19.5 0.31 -30.82 -0.19 -31.59 c -0.42 -0.72 -2.09 -1.31 -3.94 -1.45 c -3.32 0 -3.17 -0.23 -3.17 -3.53 c 0 -3.12 0.15 -3.35 2.39 -3.8 c 3.13 -0.63 23.52 -0.63 26.69 0 c 2.32 0.45 2.39 0.63 2.2 3.67 c -0.23 3.08 -0.31 3.12 -3.28 3.39 c -1.7 0.14 -3.32 0.63 -3.63 1.13 c -0.31 0.5 -0.58 5.79 -0.58 11.81 l -0.04 10.91 l -2.94 3.89 c -4.44 5.88 -4.83 7.78 -5.29 25.75 c -0.19 8.91 -0.66 16.61 -0.97 17.2 c -0.7 1.13 -10.2 1.72 -13 0.86"/><path d="m 159.1 135.8 c -0.46 -6.83 -0.66 -12 -1.04 -19.37 c -2.2 -0.23 -7.18 0.18 -7.38 -2.13 c -0.23 -2.99 0.12 -4.66 1.08 -5.29 c 1.12 -0.72 24.6 -0.81 28 -0.14 c 2.24 0.45 2.39 0.68 2.39 3.85 c 0.31 3.71 -0.15 3.35 -3.44 3.35 h -3.44 c 0.12 6.79 -0.46 14.1 -1 19.91 c -5.29 -0.27 -10.66 0.18 -15.22 -0.18"/></g><path d="m 63.4 103.1 c -0.81 -1.13 58.94 -54.4 60.98 -54.4 c 1.78 0 61.5 52.76 61.5 54.3 c 0 0.91 -121.9 1 -122.5 0.09" style="stroke-width:1.16"/></g><path d="m 13.42 13 h 5.21 c 0.52 0 0.95 0.43 0.95 0.95 v 5.43 c 0 0.52 -0.43 0.95 -0.95 0.95 h -5.21 c -0.52 0 -0.95 -0.43 -0.95 -0.95 v -5.43 c 0 -0.52 0.43 -0.95 0.95 -0.95" style="fill:#fff"/><g transform="matrix(0.086 0 0 0.075 0.59 3.61)" style="fill:#218b21;stroke:#218b21"><path d="m 186.8 147 c 0.18 0 1.96 0.83 4 1.82 c 6.33 3.06 10.79 7.47 13.97 13.75 c 0.86 1.82 1.73 3.58 2.23 5.5 c 7.1 0 14.1 0 21.2 0 c 0.64 2.49 2.41 8.87 0 15.57 c -7.1 0.05 -14.2 0.05 -21.3 0.05 l -1.91 4 c -3.23 6.69 -7.6 11.1 -14.16 14.32 c -2.05 0.99 -3.82 1.82 -4 1.82 c 0.36 -19.82 -0.14 -35.2 0 -56.83"/><path d="m 173.3 147.3 c -0.18 0 -2 0.83 -4.05 1.82 c -6.28 3.06 -10.79 7.47 -13.93 13.75 c -0.91 1.82 -1.78 3.58 -2.28 5.5 c -7.1 0 -14.1 0 -21.2 0 c -0.59 2.49 -2.41 8.87 0 15.57 c 7.1 0.05 14.2 0.05 21.3 0.05 l 1.96 4 c 3.19 6.69 7.56 11.1 14.1 14.32 c 2.05 0.99 3.87 1.82 4.05 1.82 c -0.41 -19.82 0.14 -35.2 0 -56.83"/></g></svg>