<svg xmlns="http://www.w3.org/2000/svg" viewBox="0 0 24 24"><path d="m 0.352 9.566 c 1.859 -12.309 20.363 -12.68 23.16 -0.711 c 2.879 9.688 -7.547 17.609 -15.34 14.434 c -5.223 -1.5 -9.438 -7.641 -7.82 -13.723" fill="#ff8c00"/><path d="m 4.785 4.879 c -0.004 0 -0.008 0.004 -0.008 0.008 v 14.02 c 0 0.004 0.004 0.008 0.008 0.008 h 14.43 c 0.004 0 0.008 -0.004 0.008 -0.008 v -14.02 c 0 -0.004 -0.004 -0.008 -0.008 -0.008 m -7.43 1.105 c 0.23 -0.008 0.457 0 0.684 0.016 l -0.031 0.406 c -0.211 -0.016 -0.422 -0.02 -0.637 -0.012 m -0.695 -0.352 l 0.063 0.406 c -0.207 0.031 -0.418 0.074 -0.621 0.125 l -0.109 -0.395 c 0.223 -0.059 0.445 -0.102 0.668 -0.137 m 2.039 0.043 c 0.223 0.043 0.445 0.098 0.66 0.164 l -0.125 0.391 c -0.199 -0.059 -0.406 -0.113 -0.617 -0.152 m -3.273 -0.102 l 0.152 0.379 c -0.098 0.039 -0.195 0.078 -0.293 0.121 c -0.098 0.043 -0.191 0.09 -0.285 0.137 l -0.195 -0.363 c 0.098 -0.051 0.203 -0.102 0.305 -0.145 c 0.105 -0.047 0.211 -0.09 0.316 -0.129 m 1.996 0.012 l 0.02 0.41 c -0.195 0.004 -0.391 0.023 -0.586 0.051 l -0.063 -0.402 c 0.211 -0.031 0.422 -0.051 0.633 -0.059 m 0.633 0.012 c 0.211 0.016 0.422 0.043 0.629 0.078 l -0.078 0.406 c -0.191 -0.035 -0.387 -0.063 -0.582 -0.074 m 2.055 -0.34 c 0.211 0.09 0.414 0.191 0.609 0.301 l -0.211 0.355 c -0.184 -0.102 -0.371 -0.195 -0.566 -0.277 m -3.746 -0.277 l 0.109 0.395 c -0.094 0.027 -0.188 0.055 -0.281 0.086 c -0.094 0.031 -0.184 0.063 -0.277 0.098 l -0.152 -0.383 c 0.098 -0.039 0.199 -0.074 0.297 -0.105 c 0.102 -0.031 0.203 -0.063 0.305 -0.09 m 3.137 0.059 c 0.203 0.059 0.402 0.133 0.598 0.215 l -0.172 0.371 c -0.18 -0.074 -0.363 -0.141 -0.551 -0.195 m -1.785 -0.203 c 0.199 -0.012 0.395 -0.008 0.586 0.004 l -0.027 0.41 c -0.176 -0.012 -0.355 -0.016 -0.535 -0.008 l -0.02 -0.406 m -0.586 0.059 l 0.066 0.402 c -0.086 0.016 -0.176 0.031 -0.262 0.051 c -0.09 0.02 -0.176 0.039 -0.262 0.063 l -0.113 -0.395 c 0.094 -0.027 0.188 -0.051 0.285 -0.07 c 0.094 -0.02 0.191 -0.035 0.289 -0.051 m 1.746 0.016 c 0.195 0.031 0.383 0.078 0.57 0.133 l -0.121 0.395 c -0.172 -0.051 -0.344 -0.094 -0.523 -0.125 m -4.266 -0.305 l 0.234 0.34 c -0.176 0.117 -0.344 0.242 -0.504 0.375 l -0.273 -0.313 c 0.172 -0.141 0.352 -0.277 0.543 -0.402 m 0.77 0.031 l 0.199 0.363 c -0.176 0.09 -0.344 0.188 -0.504 0.297 l -0.238 -0.34 c 0.172 -0.117 0.355 -0.223 0.543 -0.32 m 5.477 0.098 c 0.184 0.105 0.363 0.215 0.535 0.34 l -0.254 0.328 c -0.156 -0.113 -0.32 -0.215 -0.492 -0.313 m 1.01 -0.34 c 0.184 0.133 0.359 0.273 0.527 0.426 l -0.289 0.297 c -0.156 -0.141 -0.316 -0.27 -0.488 -0.391 m -5.328 -0.289 l 0.156 0.383 c -0.168 0.063 -0.332 0.137 -0.488 0.219 l -0.199 -0.359 c 0.172 -0.09 0.348 -0.168 0.531 -0.242 m 3.996 0.039 c 0.18 0.074 0.355 0.16 0.527 0.254 l -0.207 0.355 c -0.156 -0.086 -0.32 -0.164 -0.484 -0.234 m -2.098 -0.324 l 0.023 0.41 c -0.082 0.004 -0.164 0.008 -0.246 0.016 c -0.082 0.012 -0.16 0.02 -0.238 0.031 l -0.066 -0.406 c 0.086 -0.012 0.176 -0.023 0.262 -0.035 c 0.09 -0.008 0.18 -0.012 0.266 -0.016 m 0.535 0.004 c 0.18 0.012 0.355 0.031 0.531 0.063 l -0.074 0.406 c -0.16 -0.031 -0.32 -0.051 -0.484 -0.059 m -1.559 -0.25 l 0.109 0.395 c -0.156 0.043 -0.309 0.094 -0.457 0.148 l -0.16 -0.379 c 0.164 -0.063 0.336 -0.117 0.508 -0.164 m 2.637 0.023 c 0.168 0.051 0.336 0.109 0.5 0.176 l -0.164 0.379 c -0.148 -0.063 -0.305 -0.117 -0.461 -0.164 m -1.242 -0.148 c 0.082 0 0.16 0.004 0.242 0.008 l -0.023 0.406 c -0.07 0 -0.145 -0.004 -0.219 -0.004 c -0.051 0 -0.102 0.004 -0.156 0.004 l 0.016 0.336 c 0.027 0 0.063 -0.004 0.09 -0.004 c 0.105 0 0.207 0.004 0.309 0.012 l 0.023 -0.34 c 0.125 0.008 0.25 0.023 0.371 0.043 l 0.07 -0.402 c 0.16 0.027 0.32 0.063 0.473 0.105 l -0.117 0.395 c -0.121 -0.035 -0.242 -0.063 -0.367 -0.086 l -0.063 0.332 c 0.133 0.027 0.262 0.055 0.387 0.094 l 0.102 -0.328 c 0.121 0.035 0.238 0.078 0.352 0.125 l 0.164 -0.375 c 0.148 0.059 0.293 0.125 0.434 0.203 l -0.203 0.359 c -0.109 -0.059 -0.223 -0.113 -0.336 -0.16 l -0.141 0.313 c 0.125 0.051 0.242 0.105 0.355 0.172 l 0.176 -0.297 c 0.109 0.063 0.215 0.125 0.316 0.195 l 0.242 -0.332 c 0.133 0.094 0.258 0.191 0.379 0.293 l -0.285 0.309 c -0.09 -0.082 -0.188 -0.16 -0.289 -0.23 l -0.207 0.273 c 0.109 0.074 0.211 0.156 0.309 0.246 l 0.238 -0.25 c 0.09 0.082 0.176 0.168 0.262 0.258 l 0.313 -0.27 c 0.105 0.113 0.207 0.238 0.301 0.367 l -0.344 0.238 c -0.074 -0.102 -0.152 -0.195 -0.234 -0.289 l -0.262 0.219 c 0.09 0.098 0.172 0.199 0.246 0.309 l 0.289 -0.195 c 0.07 0.102 0.137 0.203 0.195 0.313 l 0.367 -0.199 c 0.078 0.137 0.148 0.277 0.211 0.422 l -0.391 0.16 c -0.047 -0.113 -0.102 -0.223 -0.16 -0.328 l -0.305 0.156 c 0.063 0.113 0.117 0.23 0.168 0.352 l 0.324 -0.125 c 0.047 0.113 0.086 0.227 0.121 0.344 l 0.402 -0.109 c 0.047 0.148 0.082 0.301 0.109 0.457 l -0.418 0.066 c -0.02 -0.121 -0.051 -0.238 -0.082 -0.355 l -0.332 0.086 c 0.035 0.129 0.059 0.254 0.082 0.379 l 0.344 -0.051 c 0.008 0.07 0.02 0.141 0.027 0.211 c 0.004 0.051 0.008 0.102 0.012 0.152 l 0.418 -0.023 c 0.004 0.078 0.004 0.156 0.004 0.234 c 0 0.078 0 0.156 -0.004 0.234 l -0.422 -0.02 c 0.004 -0.07 0.008 -0.141 0.008 -0.211 c 0 -0.051 -0.004 -0.102 -0.004 -0.152 l -0.348 0.012 c 0.008 0.129 0.004 0.262 -0.004 0.387 l 0.348 0.023 c -0.008 0.121 -0.023 0.242 -0.043 0.363 l 0.41 0.066 c -0.023 0.156 -0.063 0.313 -0.105 0.461 l -0.406 -0.113 c 0.035 -0.117 0.063 -0.234 0.086 -0.355 l -0.34 -0.063 c -0.023 0.129 -0.059 0.254 -0.098 0.375 l 0.336 0.098 c -0.035 0.117 -0.078 0.23 -0.125 0.344 l 0.387 0.156 c -0.063 0.148 -0.133 0.289 -0.211 0.426 l -0.371 -0.199 c 0.063 -0.105 0.117 -0.215 0.168 -0.328 l -0.32 -0.133 c -0.055 0.117 -0.113 0.23 -0.18 0.344 l 0.305 0.172 c -0.063 0.105 -0.129 0.207 -0.203 0.305 l 0.344 0.234 c -0.094 0.129 -0.195 0.254 -0.305 0.367 l -0.313 -0.273 c 0.086 -0.09 0.16 -0.184 0.234 -0.281 l -0.277 -0.199 c -0.078 0.102 -0.164 0.203 -0.254 0.297 l 0.258 0.23 c -0.086 0.09 -0.176 0.176 -0.27 0.254 l 0.281 0.305 c -0.121 0.105 -0.246 0.203 -0.379 0.293 l -0.242 -0.336 c 0.102 -0.07 0.199 -0.145 0.293 -0.223 l -0.227 -0.254 c -0.098 0.086 -0.203 0.16 -0.313 0.234 l 0.199 0.281 c -0.105 0.07 -0.211 0.133 -0.324 0.191 l 0.207 0.359 c -0.141 0.074 -0.285 0.141 -0.438 0.203 l -0.16 -0.379 c 0.117 -0.047 0.227 -0.098 0.336 -0.156 l -0.164 -0.297 c -0.113 0.059 -0.234 0.113 -0.359 0.16 l 0.129 0.32 c -0.117 0.043 -0.234 0.082 -0.355 0.117 l 0.117 0.391 c -0.152 0.043 -0.313 0.078 -0.473 0.102 l -0.066 -0.402 c 0.121 -0.02 0.246 -0.047 0.363 -0.078 l -0.09 -0.328 c -0.129 0.035 -0.262 0.063 -0.391 0.082 l 0.055 0.336 c -0.07 0.008 -0.145 0.02 -0.219 0.023 c -0.051 0.008 -0.102 0.008 -0.152 0.012 l 0.02 0.406 c -0.078 0.008 -0.16 0.008 -0.242 0.008 c -0.078 0 -0.16 -0.004 -0.238 -0.008 l 0.02 -0.406 c 0.074 0.004 0.145 0.004 0.219 0.004 c 0.051 0 0.105 0 0.156 -0.004 l -0.012 -0.336 c -0.133 0.008 -0.266 0.004 -0.398 -0.004 l -0.027 0.34 c -0.125 -0.008 -0.25 -0.023 -0.371 -0.043 l -0.07 0.398 c -0.16 -0.023 -0.316 -0.063 -0.469 -0.105 l 0.113 -0.391 c 0.121 0.031 0.242 0.059 0.367 0.082 l 0.063 -0.332 c -0.129 -0.023 -0.262 -0.055 -0.387 -0.094 l -0.102 0.328 c -0.121 -0.035 -0.238 -0.078 -0.352 -0.125 l -0.16 0.379 c -0.152 -0.063 -0.297 -0.129 -0.438 -0.207 l 0.207 -0.359 c 0.109 0.059 0.219 0.113 0.336 0.164 l 0.137 -0.313 c -0.121 -0.055 -0.238 -0.109 -0.355 -0.176 l -0.176 0.297 c -0.105 -0.059 -0.211 -0.125 -0.313 -0.195 l -0.246 0.332 c -0.129 -0.09 -0.258 -0.191 -0.375 -0.293 l 0.281 -0.305 c 0.094 0.078 0.191 0.156 0.289 0.227 l 0.207 -0.27 c -0.105 -0.078 -0.207 -0.16 -0.309 -0.246 l -0.234 0.25 c -0.094 -0.082 -0.18 -0.168 -0.266 -0.262 l -0.309 0.273 c -0.109 -0.117 -0.211 -0.242 -0.305 -0.367 l 0.348 -0.238 c 0.07 0.098 0.148 0.191 0.23 0.285 l 0.262 -0.219 c -0.086 -0.098 -0.168 -0.199 -0.246 -0.305 l -0.289 0.191 c -0.07 -0.098 -0.133 -0.203 -0.195 -0.313 l -0.367 0.199 c -0.078 -0.137 -0.148 -0.277 -0.211 -0.422 l 0.391 -0.156 c 0.047 0.109 0.102 0.219 0.16 0.324 l 0.305 -0.156 c -0.059 -0.113 -0.117 -0.23 -0.164 -0.352 l -0.328 0.129 c -0.047 -0.113 -0.086 -0.23 -0.121 -0.348 l -0.402 0.113 c -0.043 -0.148 -0.082 -0.305 -0.105 -0.461 l 0.414 -0.066 c 0.023 0.121 0.051 0.242 0.082 0.355 l 0.332 -0.086 c -0.035 -0.125 -0.059 -0.254 -0.082 -0.379 l -0.344 0.051 c -0.008 -0.066 -0.02 -0.141 -0.027 -0.211 c -0.004 -0.051 -0.008 -0.102 -0.012 -0.152 l -0.418 0.023 c -0.004 -0.078 -0.004 -0.156 -0.004 -0.234 c 0 -0.078 0 -0.156 0.004 -0.234 l 0.422 0.02 c -0.004 0.07 -0.008 0.141 -0.008 0.215 c 0 0.051 0.004 0.102 0.004 0.152 l 0.344 -0.016 c -0.004 -0.129 0 -0.258 0.008 -0.387 l -0.348 -0.023 c 0.008 -0.121 0.023 -0.242 0.047 -0.363 l -0.414 -0.066 c 0.023 -0.156 0.063 -0.309 0.105 -0.457 l 0.406 0.109 c -0.035 0.117 -0.063 0.234 -0.086 0.355 l 0.344 0.063 c 0.023 -0.125 0.055 -0.25 0.094 -0.371 l -0.336 -0.102 c 0.035 -0.117 0.078 -0.23 0.125 -0.344 l -0.387 -0.156 c 0.063 -0.145 0.133 -0.285 0.211 -0.422 l 0.367 0.199 c -0.059 0.105 -0.113 0.215 -0.164 0.324 l 0.32 0.137 c 0.055 -0.117 0.113 -0.234 0.18 -0.348 l -0.305 -0.168 c 0.063 -0.105 0.129 -0.207 0.203 -0.309 l -0.344 -0.234 c 0.094 -0.129 0.195 -0.25 0.305 -0.367 l 0.313 0.273 c -0.082 0.09 -0.16 0.188 -0.234 0.285 l 0.281 0.199 c 0.078 -0.105 0.16 -0.203 0.25 -0.301 l -0.254 -0.23 c 0.082 -0.09 0.172 -0.172 0.266 -0.254 l -0.281 -0.305 c 0.121 -0.102 0.246 -0.203 0.379 -0.293 l 0.246 0.336 c -0.102 0.07 -0.203 0.145 -0.297 0.227 l 0.227 0.254 c 0.098 -0.086 0.203 -0.164 0.316 -0.238 l -0.199 -0.281 c 0.102 -0.07 0.207 -0.133 0.316 -0.191 l -0.203 -0.355 c 0.141 -0.078 0.285 -0.145 0.438 -0.207 l 0.16 0.379 c -0.117 0.047 -0.227 0.102 -0.336 0.156 l 0.164 0.301 c 0.113 -0.063 0.234 -0.117 0.359 -0.164 l -0.129 -0.316 c 0.117 -0.047 0.234 -0.086 0.355 -0.117 l -0.117 -0.395 c 0.156 -0.043 0.313 -0.078 0.473 -0.102 l 0.07 0.402 c -0.125 0.023 -0.246 0.047 -0.367 0.078 l 0.09 0.328 c 0.129 -0.035 0.262 -0.063 0.391 -0.082 l -0.055 -0.336 c 0.074 -0.008 0.145 -0.02 0.219 -0.023 c 0.051 -0.008 0.102 -0.012 0.152 -0.012 l -0.02 -0.406 c 0.078 -0.008 0.16 -0.008 0.242 -0.008 m -3.695 0.02 l 0.273 0.312 c -0.148 0.125 -0.289 0.258 -0.422 0.398 l -0.309 -0.281 c -0.141 0.148 -0.277 0.301 -0.398 0.461 l -0.34 -0.242 c 0.137 -0.18 0.281 -0.348 0.438 -0.512 l 0.309 0.281 c -0.004 0.004 -0.004 0.008 -0.008 0.012 c 0.141 -0.152 0.297 -0.293 0.457 -0.43 m 0.711 0.004 l 0.242 0.336 c -0.148 0.098 -0.289 0.207 -0.422 0.32 l -0.281 -0.305 c 0.148 -0.125 0.301 -0.242 0.461 -0.352 m 6.05 0.055 c 0.156 0.113 0.309 0.234 0.453 0.359 l -0.285 0.305 c -0.133 -0.117 -0.27 -0.227 -0.414 -0.328 l 0.246 -0.332 m -5.324 0.039 l 0.199 0.359 c -0.141 0.074 -0.277 0.156 -0.414 0.246 l -0.238 -0.336 c 0.145 -0.098 0.297 -0.188 0.453 -0.27 m 6.113 0.035 c 0.152 0.137 0.301 0.289 0.441 0.445 l -0.324 0.266 c -0.125 -0.145 -0.262 -0.281 -0.406 -0.41 m -1.219 -0.289 c 0.156 0.086 0.305 0.18 0.449 0.281 l -0.246 0.332 c -0.133 -0.094 -0.27 -0.18 -0.41 -0.258 m 2.484 -0.18 c 0.148 0.168 0.285 0.34 0.414 0.523 l -0.348 0.234 c -0.117 -0.172 -0.25 -0.336 -0.387 -0.492 l 0.324 -0.266 m -7.762 0.367 l 0.277 0.309 c -0.121 0.102 -0.238 0.211 -0.344 0.328 l -0.313 -0.277 c 0.117 -0.125 0.246 -0.246 0.379 -0.359 m -0.727 0.063 l 0.313 0.277 c -0.121 0.129 -0.234 0.262 -0.34 0.402 l -0.344 -0.238 c 0.117 -0.152 0.238 -0.301 0.371 -0.441 m 7.07 0 c 0.129 0.117 0.254 0.242 0.371 0.371 l -0.316 0.27 c -0.105 -0.117 -0.219 -0.23 -0.34 -0.336 m 1 -0.234 c 0.129 0.145 0.25 0.293 0.359 0.449 l -0.344 0.234 c -0.105 -0.145 -0.215 -0.281 -0.332 -0.41 m -8.168 -0.191 l 0.336 0.242 c -0.117 0.152 -0.223 0.313 -0.32 0.477 l -0.363 -0.203 c -0.105 0.172 -0.199 0.352 -0.285 0.535 l -0.387 -0.164 c 0.094 -0.203 0.195 -0.398 0.309 -0.59 l 0.367 0.203 c 0 0.004 -0.004 0.012 -0.004 0.016 c 0.105 -0.18 0.219 -0.352 0.344 -0.516 m 9.238 0.164 c 0.117 0.168 0.23 0.344 0.328 0.527 l -0.371 0.191 c -0.094 -0.168 -0.195 -0.332 -0.305 -0.488 m 1.059 0.117 c 0.051 0.098 0.102 0.199 0.148 0.297 c 0.047 0.102 0.09 0.207 0.133 0.309 l -0.395 0.148 c -0.035 -0.094 -0.074 -0.191 -0.121 -0.285 c -0.043 -0.094 -0.09 -0.188 -0.141 -0.277 m -8.867 -0.156 l 0.344 0.242 c -0.098 0.129 -0.184 0.262 -0.266 0.398 l -0.367 -0.203 c 0.09 -0.148 0.184 -0.297 0.289 -0.438 m 7.766 0.082 c 0.102 0.141 0.195 0.289 0.277 0.441 l -0.371 0.195 c -0.074 -0.141 -0.16 -0.273 -0.254 -0.402 m -8.109 -0.094 l 0.367 0.199 c -0.09 0.152 -0.168 0.309 -0.238 0.469 l -0.391 -0.16 c 0.078 -0.172 0.164 -0.344 0.262 -0.508 m 9.141 0.082 c 0.094 0.164 0.176 0.336 0.25 0.516 l -0.395 0.152 c -0.066 -0.164 -0.141 -0.32 -0.227 -0.473 l 0.375 -0.195 m -9.789 0.215 l 0.387 0.164 c -0.078 0.172 -0.148 0.352 -0.207 0.535 l -0.402 -0.121 c 0.063 -0.195 0.137 -0.391 0.223 -0.578 m 10.457 0.188 c 0.039 0.094 0.074 0.191 0.105 0.289 c 0.035 0.098 0.066 0.195 0.094 0.297 l -0.406 0.105 c -0.027 -0.094 -0.055 -0.184 -0.086 -0.273 c -0.031 -0.094 -0.066 -0.184 -0.102 -0.27 m -9.254 0.047 l 0.387 0.16 c -0.062 0.145 -0.117 0.293 -0.168 0.445 l -0.402 -0.117 c 0.051 -0.168 0.113 -0.332 0.18 -0.488 m -1.43 0.059 l 0.402 0.121 c -0.063 0.195 -0.117 0.398 -0.156 0.598 l -0.414 -0.078 c 0.043 -0.215 0.102 -0.43 0.168 -0.641 m 10.23 0.031 c 0.063 0.16 0.121 0.324 0.168 0.492 l -0.406 0.109 c -0.043 -0.156 -0.098 -0.305 -0.156 -0.449 m 1.859 0.055 c 0.059 0.215 0.105 0.434 0.137 0.648 l -0.414 0.063 c -0.031 -0.203 -0.078 -0.406 -0.133 -0.605 m -10.48 -0.039 l 0.402 0.117 c -0.051 0.168 -0.09 0.336 -0.121 0.508 l -0.418 -0.07 c 0.035 -0.188 0.078 -0.371 0.137 -0.555 m 10.04 0.094 c 0.023 0.09 0.047 0.184 0.07 0.277 c 0.02 0.094 0.035 0.188 0.055 0.281 l -0.418 0.063 c -0.016 -0.086 -0.031 -0.172 -0.051 -0.258 c -0.02 -0.086 -0.039 -0.172 -0.066 -0.254 l 0.41 -0.105 m -10.598 0.332 l 0.414 0.078 c -0.035 0.188 -0.063 0.375 -0.078 0.566 l -0.418 -0.031 c -0.016 0.199 -0.023 0.398 -0.016 0.602 l -0.422 0.016 c -0.008 -0.223 -0.004 -0.445 0.016 -0.664 l 0.422 0.031 c 0 0.004 0 0.012 0 0.016 c 0.016 -0.207 0.043 -0.41 0.082 -0.613 m 0.879 0.199 l 0.418 0.074 c -0.031 0.152 -0.051 0.309 -0.063 0.469 l -0.422 -0.027 c 0.012 -0.176 0.035 -0.348 0.066 -0.516 m 10.285 0 c 0.031 0.207 0.051 0.41 0.059 0.617 l -0.418 0.016 c -0.008 -0.191 -0.027 -0.379 -0.059 -0.57 l 0.418 -0.059 m -0.898 0.094 c 0.016 0.086 0.023 0.172 0.035 0.258 c 0.008 0.086 0.016 0.172 0.02 0.258 l -0.422 0.02 c -0.004 -0.078 -0.012 -0.156 -0.02 -0.238 c -0.008 -0.078 -0.016 -0.156 -0.027 -0.234 m -9.5 0.332 l 0.422 0.023 c -0.012 0.176 -0.016 0.348 -0.008 0.523 l -0.418 0.02 c -0.012 -0.191 -0.008 -0.379 0.004 -0.57 m 10.43 0.098 c 0.012 0.191 0.008 0.383 -0.004 0.57 l -0.422 -0.027 c 0.012 -0.172 0.012 -0.348 0.004 -0.52 l 0.422 -0.02 m 0.867 0.027 c 0.008 0.223 0.004 0.441 -0.016 0.664 l -0.422 -0.035 c 0 -0.004 0 -0.008 0 -0.012 c -0.016 0.203 -0.043 0.41 -0.082 0.609 l -0.418 -0.074 c 0.039 -0.188 0.066 -0.379 0.078 -0.566 l 0.422 0.031 c 0.016 -0.203 0.02 -0.402 0.016 -0.605 m -10.902 0.387 c 0.008 0.188 0.027 0.379 0.059 0.57 l -0.418 0.059 c -0.031 -0.203 -0.051 -0.41 -0.059 -0.613 m 1.324 -0.016 c 0.004 0.078 0.012 0.156 0.02 0.234 c 0.008 0.082 0.02 0.156 0.031 0.234 l -0.418 0.066 c -0.016 -0.086 -0.027 -0.172 -0.035 -0.258 c -0.008 -0.086 -0.016 -0.172 -0.02 -0.258 m 9.09 0.07 l 0.418 0.027 c -0.012 0.172 -0.031 0.344 -0.063 0.516 l -0.418 -0.074 c 0.031 -0.156 0.051 -0.309 0.063 -0.469 m -9.07 0.457 c 0.016 0.086 0.031 0.172 0.051 0.258 c 0.02 0.086 0.043 0.168 0.066 0.254 l -0.406 0.105 c -0.027 -0.09 -0.051 -0.184 -0.07 -0.273 c -0.023 -0.094 -0.039 -0.188 -0.055 -0.281 l 0.414 -0.066 m -0.863 0.074 c 0.031 0.199 0.074 0.402 0.129 0.605 l -0.406 0.102 c -0.059 -0.215 -0.105 -0.43 -0.141 -0.648 m 10.75 -0.043 l 0.418 0.074 c -0.035 0.188 -0.082 0.371 -0.141 0.555 l -0.402 -0.117 c 0.051 -0.168 0.094 -0.336 0.125 -0.512 m 0.84 0.211 l 0.414 0.078 c -0.043 0.219 -0.102 0.434 -0.168 0.641 l -0.402 -0.117 c 0.063 -0.199 0.117 -0.398 0.156 -0.602 m -9.746 0.09 c 0.043 0.152 0.094 0.301 0.156 0.445 l -0.391 0.156 c -0.066 -0.16 -0.125 -0.324 -0.172 -0.492 m 8.742 -0.023 l 0.406 0.117 c -0.051 0.168 -0.113 0.328 -0.184 0.488 l -0.387 -0.16 c 0.063 -0.145 0.117 -0.293 0.168 -0.445 m -9.223 0.109 c 0.027 0.09 0.055 0.184 0.086 0.273 c 0.031 0.094 0.066 0.18 0.102 0.27 l -0.395 0.148 c -0.039 -0.094 -0.074 -0.191 -0.105 -0.289 c -0.035 -0.098 -0.066 -0.195 -0.094 -0.297 m 10.477 0.074 l 0.406 0.121 c -0.066 0.195 -0.137 0.391 -0.223 0.578 l -0.387 -0.164 c 0.078 -0.176 0.148 -0.352 0.207 -0.535 m -9.465 0.246 c 0.066 0.164 0.145 0.32 0.227 0.473 l -0.371 0.195 c -0.09 -0.164 -0.172 -0.336 -0.246 -0.516 m 9.262 -0.07 l 0.391 0.16 c -0.078 0.172 -0.164 0.344 -0.262 0.508 l -0.367 -0.199 c 0.09 -0.152 0.168 -0.309 0.238 -0.469 m -9.695 0.172 c 0.039 0.094 0.078 0.191 0.125 0.285 c 0.043 0.094 0.09 0.188 0.141 0.277 l -0.375 0.191 c -0.055 -0.098 -0.105 -0.199 -0.152 -0.297 c -0.047 -0.102 -0.09 -0.203 -0.133 -0.305 m 1.855 -0.148 c 0.074 0.137 0.16 0.273 0.254 0.402 l -0.348 0.234 c -0.102 -0.145 -0.195 -0.289 -0.277 -0.445 m 7.965 -0.117 l 0.367 0.203 c -0.09 0.152 -0.188 0.297 -0.289 0.438 l -0.344 -0.242 c 0.098 -0.129 0.184 -0.258 0.266 -0.398 m 1.41 0.137 l 0.387 0.164 c -0.09 0.203 -0.195 0.398 -0.309 0.59 l -0.367 -0.203 c 0.105 -0.18 0.203 -0.363 0.289 -0.551 m -9.82 0.168 c 0.09 0.168 0.195 0.332 0.305 0.488 l -0.352 0.23 c -0.117 -0.168 -0.227 -0.344 -0.328 -0.527 m 9.547 -0.027 l 0.367 0.203 c -0.105 0.18 -0.223 0.352 -0.348 0.52 l -0.34 -0.246 c 0.117 -0.152 0.223 -0.313 0.32 -0.477 m -8.484 0.117 c 0.105 0.145 0.215 0.281 0.336 0.414 l -0.32 0.27 c -0.129 -0.145 -0.246 -0.293 -0.359 -0.449 m 8.176 -0.16 l 0.344 0.238 c -0.117 0.156 -0.238 0.301 -0.371 0.445 l -0.313 -0.277 c 0.121 -0.129 0.234 -0.266 0.34 -0.406 m -7.152 0.039 c 0.109 0.121 0.219 0.23 0.34 0.336 l -0.285 0.305 c -0.129 -0.117 -0.254 -0.238 -0.371 -0.371 m 6.785 -0.203 l 0.313 0.277 c -0.121 0.125 -0.246 0.246 -0.379 0.363 l -0.281 -0.309 c 0.125 -0.105 0.238 -0.215 0.348 -0.332 m -7.891 0.25 c 0.117 0.172 0.246 0.336 0.383 0.488 l -0.32 0.27 c -0.148 -0.168 -0.285 -0.344 -0.414 -0.531 l 0.348 -0.227 m 9.242 0.188 l 0.34 0.246 c -0.137 0.176 -0.281 0.348 -0.438 0.508 l -0.309 -0.277 c 0.004 -0.004 0.004 -0.012 0.008 -0.016 c -0.141 0.152 -0.297 0.297 -0.457 0.43 l -0.273 -0.313 c 0.148 -0.121 0.289 -0.254 0.422 -0.395 l 0.309 0.277 c 0.141 -0.145 0.277 -0.301 0.398 -0.461 m -8.523 0.043 c 0.129 0.148 0.266 0.285 0.41 0.414 l -0.289 0.301 c 0.152 0.137 0.313 0.266 0.477 0.383 l -0.25 0.332 c -0.184 -0.133 -0.359 -0.273 -0.527 -0.426 l 0.289 -0.301 c 0.004 0.004 0.008 0.008 0.012 0.012 c -0.152 -0.141 -0.301 -0.289 -0.441 -0.445 m 1.746 -0.18 c 0.133 0.094 0.266 0.18 0.41 0.258 l -0.211 0.355 c -0.152 -0.086 -0.305 -0.18 -0.449 -0.281 m -0.438 -0.297 c 0.133 0.117 0.273 0.23 0.418 0.332 l -0.246 0.328 c -0.16 -0.109 -0.309 -0.23 -0.457 -0.355 m 5.996 -0.285 l 0.238 0.336 c -0.145 0.098 -0.297 0.188 -0.453 0.27 l -0.199 -0.359 c 0.141 -0.074 0.277 -0.16 0.414 -0.25 m 0.691 0.047 l 0.277 0.309 c -0.145 0.121 -0.301 0.242 -0.461 0.352 l -0.242 -0.336 c 0.148 -0.102 0.289 -0.207 0.426 -0.324 m -4.867 0.367 c 0.148 0.063 0.301 0.117 0.457 0.164 l -0.121 0.391 c -0.172 -0.047 -0.34 -0.105 -0.504 -0.176 m 3.488 -0.344 l 0.156 0.379 c -0.164 0.066 -0.332 0.121 -0.508 0.168 l -0.109 -0.395 c 0.156 -0.043 0.313 -0.094 0.461 -0.152 m -3.98 0.148 c 0.156 0.086 0.316 0.164 0.484 0.234 l -0.168 0.375 c -0.18 -0.074 -0.355 -0.156 -0.527 -0.25 m -0.539 -0.32 c 0.16 0.113 0.324 0.215 0.492 0.313 l -0.211 0.355 c 0.18 0.098 0.363 0.191 0.555 0.273 l -0.172 0.375 c -0.207 -0.086 -0.41 -0.188 -0.609 -0.301 l 0.215 -0.355 c 0.004 0.004 0.008 0.004 0.012 0.008 c -0.184 -0.105 -0.359 -0.215 -0.531 -0.34 m 5.645 -0.324 l 0.199 0.363 c -0.172 0.09 -0.348 0.172 -0.531 0.242 l -0.156 -0.379 c 0.168 -0.066 0.332 -0.141 0.488 -0.223 m -3.055 0.043 c 0.16 0.027 0.32 0.047 0.484 0.059 l -0.027 0.406 c -0.18 -0.008 -0.359 -0.031 -0.531 -0.063 m 1.527 -0.391 l 0.066 0.406 c -0.086 0.012 -0.176 0.027 -0.266 0.035 c -0.09 0.008 -0.176 0.012 -0.266 0.016 l -0.02 -0.406 c 0.082 -0.004 0.164 -0.012 0.242 -0.02 c 0.082 -0.008 0.164 -0.02 0.242 -0.031 m 3 0.02 l 0.273 0.313 c -0.172 0.145 -0.348 0.277 -0.539 0.402 l -0.238 -0.34 c 0.004 -0.004 0.008 -0.008 0.012 -0.012 c -0.172 0.117 -0.355 0.223 -0.547 0.32 l -0.195 -0.363 c 0.176 -0.09 0.344 -0.188 0.504 -0.293 l 0.238 0.336 c 0.172 -0.113 0.336 -0.234 0.492 -0.363 m -5.059 0.289 c 0.172 0.051 0.348 0.094 0.523 0.125 l -0.074 0.402 c -0.191 -0.035 -0.383 -0.078 -0.57 -0.133 m 2.781 -0.367 l 0.109 0.395 c -0.094 0.023 -0.188 0.047 -0.281 0.066 c -0.098 0.02 -0.195 0.039 -0.289 0.055 l -0.066 -0.406 c 0.09 -0.012 0.176 -0.031 0.266 -0.051 c 0.086 -0.02 0.176 -0.039 0.262 -0.059 m -1.602 0.16 c 0.176 0.008 0.355 0.012 0.539 0.004 l 0.02 0.41 c -0.199 0.008 -0.395 0.004 -0.586 -0.008 m -1.75 -0.395 c 0.176 0.074 0.363 0.141 0.551 0.199 l -0.125 0.391 c -0.203 -0.063 -0.402 -0.133 -0.598 -0.215 m 4.18 -0.305 l 0.156 0.383 c -0.098 0.035 -0.199 0.07 -0.301 0.102 c -0.098 0.035 -0.199 0.063 -0.301 0.09 l -0.109 -0.395 c 0.094 -0.023 0.188 -0.055 0.281 -0.082 c 0.094 -0.031 0.184 -0.063 0.277 -0.098 m 0.719 0.133 l 0.195 0.363 c -0.102 0.051 -0.203 0.102 -0.309 0.148 c -0.105 0.047 -0.207 0.086 -0.313 0.129 l -0.152 -0.383 c 0.098 -0.039 0.195 -0.078 0.293 -0.121 c 0.094 -0.043 0.191 -0.09 0.285 -0.137 m -3.609 0.133 c 0.191 0.035 0.387 0.063 0.582 0.074 l -0.031 0.41 c 0.203 0.016 0.41 0.02 0.617 0.016 l 0.016 0.406 c -0.227 0.008 -0.457 0.004 -0.68 -0.012 l 0.031 -0.41 c 0.004 0 0.008 0 0.016 0 c -0.211 -0.016 -0.426 -0.043 -0.633 -0.082 m 1.836 -0.371 l 0.063 0.406 c -0.211 0.031 -0.422 0.051 -0.633 0.059 l -0.016 -0.41 c 0.195 -0.008 0.391 -0.023 0.586 -0.055 m -2.465 0.219 c 0.203 0.063 0.406 0.113 0.617 0.152 l -0.078 0.402 c -0.227 -0.039 -0.445 -0.098 -0.664 -0.16 m 3.262 -0.328 l 0.109 0.398 c -0.223 0.055 -0.445 0.102 -0.668 0.133 l -0.063 -0.406 c 0.207 -0.027 0.414 -0.07 0.621 -0.125" fill="#fff"/></svg>