<svg xmlns="http://www.w3.org/2000/svg" viewBox="0 0 24 24"><path d="m 0.02 9.395 c 0.125 -1.414 0.484 -2.957 0.949 -4.098 c 1.625 -3.98 4.922 -5.832 9.09 -5.109 c 2.238 0.387 4.777 1.5 7.457 3.27 c 3.203 2.113 5.629 5.375 6.242 8.398 c 0.129 0.641 0.176 1.844 0.094 2.488 c -0.27 2.152 -1.434 3.945 -3.633 5.59 c -2.102 1.574 -4.238 2.738 -6.227 3.398 c -4.09 1.352 -7.738 0.531 -10.379 -2.332 c -1.855 -2.01 -3.039 -4.734 -3.512 -8.08 c -0.07 -0.5 -0.133 -3.01 -0.086 -3.527" fill="#ffa300"/><g fill="#fff"><path d="m 8.234 7.344 c -2.809 0 -5.07 2.332 -5.07 5.227 c 0 2.895 2.262 5.223 5.07 5.223 c 2.809 0 5.07 -2.328 5.07 -5.223 c 0 -2.895 -2.262 -5.227 -5.07 -5.227 m 0 1.395 c 2.059 0 3.719 1.707 3.719 3.832 c 0 2.121 -1.66 3.832 -3.719 3.832 c -2.059 0 -3.719 -1.711 -3.719 -3.832 c 0 -2.125 1.66 -3.832 3.719 -3.832"/><path d="m 14.316 7.344 c -0.883 0 -1.715 0.234 -2.438 0.641 c 1.016 0.859 1.738 2.07 1.996 3.457 c 0.137 -0.059 0.285 -0.09 0.441 -0.09 c 0.656 0 1.184 0.543 1.184 1.219 c 0 0.676 -0.527 1.219 -1.184 1.219 c -0.156 0 -0.305 -0.035 -0.441 -0.09 c -0.258 1.387 -0.98 2.594 -1.996 3.453 c 0.723 0.41 1.555 0.641 2.438 0.641 c 2.809 0 5.07 -2.328 5.07 -5.223 c 0 -2.895 -2.262 -5.227 -5.07 -5.227"/><path d="m 8.234 11.352 c 0.652 0 1.184 0.543 1.184 1.219 c 0 0.672 -0.531 1.219 -1.184 1.219 c -0.652 0 -1.184 -0.547 -1.184 -1.219 c 0 -0.676 0.531 -1.219 1.184 -1.219"/></g></svg>