
<svg xmlns="http://www.w3.org/2000/svg" xmlns:xlink="http://www.w3.org/1999/xlink" width="24px" height="24px" viewBox="0 0 24 24" version="1.1">
<g id="surface1">
<path style=" stroke:none;fill-rule:nonzero;fill:rgb(100%,54.901961%,0%);fill-opacity:1;" d="M 0.351562 14.496094 C 2.210938 26.859375 20.714844 27.230469 23.511719 15.210938 C 26.390625 5.480469 15.964844 -2.472656 8.171875 0.714844 C 2.949219 2.21875 -1.265625 8.386719 0.351562 14.496094 Z M 0.351562 14.496094 "/>
<path style=" stroke:none;fill-rule:nonzero;fill:rgb(94.117647%,1.568627%,2.745098%);fill-opacity:1;" d="M 7.941406 18.589844 C 7.710938 18.414062 7.613281 18.273438 7.585938 18.078125 C 7.515625 17.628906 7.320312 14.9375 7.269531 13.773438 C 7.21875 12.605469 7.035156 10.476562 6.957031 10.136719 C 6.847656 9.675781 6.679688 9.691406 11.882812 9.691406 C 17.085938 9.691406 16.917969 9.675781 16.808594 10.136719 C 16.730469 10.472656 16.546875 12.601562 16.496094 13.773438 C 16.445312 14.9375 16.246094 17.628906 16.179688 18.078125 C 16.152344 18.273438 16.050781 18.414062 15.824219 18.589844 L 15.507812 18.832031 L 8.253906 18.832031 L 7.9375 18.589844 Z M 9.773438 17.5625 L 9.960938 17.351562 L 10 14.316406 C 10.027344 12.390625 10.011719 11.210938 9.964844 11.089844 C 9.859375 10.820312 9.496094 10.667969 9.214844 10.769531 C 8.808594 10.921875 8.800781 11.015625 8.84375 14.316406 L 8.886719 17.351562 L 9.070312 17.5625 C 9.171875 17.675781 9.332031 17.769531 9.421875 17.769531 C 9.515625 17.769531 9.671875 17.675781 9.773438 17.5625 Z M 12.234375 17.5625 L 12.421875 17.351562 L 12.460938 14.316406 C 12.484375 12.390625 12.472656 11.210938 12.421875 11.089844 C 12.316406 10.820312 11.957031 10.667969 11.671875 10.769531 C 11.269531 10.921875 11.257812 11.015625 11.304688 14.316406 L 11.34375 17.351562 L 11.53125 17.5625 C 11.632812 17.675781 11.792969 17.769531 11.882812 17.769531 C 11.972656 17.769531 12.132812 17.675781 12.234375 17.5625 Z M 14.691406 17.5625 L 14.878906 17.351562 L 14.917969 14.316406 C 14.945312 12.390625 14.929688 11.210938 14.882812 11.089844 C 14.777344 10.820312 14.414062 10.667969 14.132812 10.769531 C 13.726562 10.921875 13.71875 11.015625 13.761719 14.316406 L 13.804688 17.351562 L 13.988281 17.5625 C 14.09375 17.675781 14.25 17.769531 14.339844 17.769531 C 14.433594 17.769531 14.589844 17.675781 14.691406 17.5625 Z M 6.4375 8.820312 C 6.410156 8.792969 6.386719 8.476562 6.386719 8.125 C 6.386719 7.550781 6.40625 7.460938 6.574219 7.28125 C 6.761719 7.082031 6.777344 7.082031 8.191406 7.082031 C 9.601562 7.082031 9.621094 7.078125 9.683594 6.898438 C 9.71875 6.796875 9.730469 6.667969 9.710938 6.609375 C 9.636719 6.40625 9.773438 6.101562 9.996094 5.980469 C 10.324219 5.796875 13.4375 5.796875 13.765625 5.980469 C 13.988281 6.101562 14.125 6.40625 14.050781 6.609375 C 14.03125 6.667969 14.042969 6.796875 14.078125 6.898438 C 14.144531 7.078125 14.160156 7.082031 15.570312 7.082031 C 16.984375 7.082031 17 7.082031 17.1875 7.28125 C 17.355469 7.460938 17.375 7.550781 17.375 8.132812 C 17.375 8.777344 17.296875 8.988281 17.125 8.804688 C 17.011719 8.683594 6.726562 8.671875 6.65625 8.792969 C 6.601562 8.890625 6.511719 8.898438 6.4375 8.820312 Z M 6.4375 8.820312 "/>
</g>
</svg>
