<svg xmlns="http://www.w3.org/2000/svg" viewBox="0 0 32 32"><path d="m 7.695 3.457 c 16.16 -11.359 32.531 9.621 19.367 23 c -12.406 12.609 -31.68 0.918 -25.652 -14.77 c 1.254 -3.273 3.32 -6.148 6.285 -8.234" fill="#404040"/><path d="m 30.348 15.891 c -0.047 -0.063 -0.512 -0.25 -1.039 -0.41 c -2.363 -0.719 -4.438 -1.844 -6.188 -3.367 c -2.258 -1.965 -3.633 -4.195 -4.277 -6.938 c -0.266 -1.121 -0.441 -4.086 -0.246 -4.086 c 0.32 0 2.266 0.672 3.207 1.109 c 3.047 1.418 5.469 3.688 7.05 6.609 c 1.07 1.984 1.547 3.617 1.656 5.68 c 0.074 1.414 0.043 1.711 -0.164 1.402" fill="#ffdeac"/><path d="m 89.66 206.24 c -14.908 -7.344 -27.474 -24.11 -32.32 -43.12 c -4.843 -19.04 2.595 -40.911 17.915 -52.667 c 18.928 -14.561 42.984 -12.954 59.949 4 c 12.598 12.544 17.662 29.19 13.389 43.999 c -2.754 9.582 -7.343 17.11 -23.486 38.641 c -8.641 11.504 -11.08 13.427 -17.82 14.09 c -6.425 0.567 -12.566 -2.49 -17.63 -4.948 m -5.856 -65.37 c 5.03 -5.484 8.831 -15.633 3.83 -20.707 c -3.197 -3.183 -5.697 -3.057 -9.812 0.473 c -6.077 5.169 -8.42 15.728 -4.431 19.951 c 2.532 2.711 7.185 2.805 10.414 0.284" transform="matrix(0.12341 0 0 0.12394 0.271 0.068)" fill="#fff" stroke="#fff" stroke-width="3.245"/></svg>