
<svg xmlns="http://www.w3.org/2000/svg" xmlns:xlink="http://www.w3.org/1999/xlink" width="32px" height="32px" viewBox="0 0 32 32" version="1.1">
<g id="surface1">
<path style=" stroke:none;fill-rule:nonzero;fill:rgb(100%,40%,0%);fill-opacity:1;" d="M 7.519531 3.296875 C 23.886719 -8.207031 40.472656 13.039062 27.136719 26.597656 C 14.570312 39.367188 -4.949219 27.527344 1.152344 11.636719 C 2.425781 8.320312 4.515625 5.410156 7.519531 3.296875 Z M 7.519531 3.296875 "/>
<path style="fill-rule:nonzero;fill:rgb(100%,100%,100%);fill-opacity:1;stroke-width:0.632;stroke-linecap:butt;stroke-linejoin:miter;stroke:rgb(100%,100%,100%);stroke-opacity:1;stroke-miterlimit:4;" d="M 411.526775 231.853484 C 410.033501 231.013787 408.605152 229.495871 407.826053 227.94566 C 406.592479 225.458863 406.560017 224.037835 406.560017 183.312492 C 406.560017 142.554852 406.592479 141.198417 407.858516 138.711619 C 408.670077 137.06452 410.033501 135.611197 411.624162 134.771499 C 414.026385 133.415064 414.675635 133.382768 436.100867 133.382768 C 456.292526 133.382768 458.305199 133.479656 460.317873 134.545426 C 464.115982 136.547783 465.089856 138.453251 465.349556 144.331135 L 465.576793 149.595395 L 505.148548 149.756875 C 543.973666 149.918356 544.752766 149.950652 546.473277 151.210198 C 547.447151 151.920712 548.843037 153.277147 549.589674 154.213733 C 550.855711 155.925424 550.888173 156.70053 551.082948 190.611403 C 551.24526 224.360796 551.212798 225.361974 549.946762 227.913364 C 549.1352 229.592759 547.771776 231.013787 546.181115 231.88578 L 543.681504 233.242215 L 478.78902 233.242215 L 413.928998 233.209919 Z M 462.233158 210.44119 C 474.731211 207.114695 485.054277 204.304937 485.184127 204.208049 C 485.281515 204.11116 482.489742 198.846901 478.91887 192.484575 C 475.38046 186.12225 472.4913 180.664214 472.4913 180.341253 C 472.4913 180.018292 475.25061 179.372371 478.594245 178.952522 C 485.34644 178.080528 493.332208 178.468081 499.142991 179.9537 C 503.492962 181.051767 510.829481 184.701223 512.809692 186.735875 L 514.238041 188.221494 L 511.770893 188.867416 C 504.077287 190.837476 498.720979 192.064726 497.909417 192.064726 C 497.390017 192.064726 495.474731 189.674817 493.656833 186.768171 L 490.313198 181.43932 L 487.002026 181.503912 C 485.184127 181.536208 482.19758 181.76228 480.379681 181.988353 L 477.068509 182.375906 L 482.976679 192.678352 C 486.190464 198.330164 489.144549 202.980798 489.469174 202.980798 C 491.514309 202.980798 536.474835 190.449923 536.474835 189.90089 C 536.474835 188.673639 530.534202 183.506268 526.476393 181.213247 C 519.172337 177.07935 506.34966 173.623671 494.890407 172.751677 C 489.209474 172.299532 474.276736 172.880861 470.446164 173.688263 C 468.887966 174.011224 468.563341 173.720559 466.615592 170.264879 C 465.252168 167.810378 464.083519 166.486239 463.336883 166.486239 C 461.778684 166.486239 453.273516 168.359411 453.273516 168.714668 C 453.273516 168.876148 454.150003 170.717024 455.253727 172.783973 C 456.324988 174.883217 457.104088 176.659501 457.0067 176.756389 C 456.87685 176.820982 454.734327 177.951344 452.169792 179.243187 C 445.287747 182.731162 439.769127 187.995422 436.815042 193.808714 C 434.510206 198.36246 434.412819 198.814605 434.412819 204.821674 C 434.412819 210.118229 434.672519 211.539257 435.938555 214.090646 C 437.009817 216.189891 437.756454 216.964996 438.470628 216.77122 C 439.054952 216.609739 449.735106 213.767685 462.233158 210.44119 Z M 450.741443 198.943789 C 450.741443 193.873306 451.61793 191.386509 454.572015 188.09231 C 456.552226 185.896177 460.15556 183.57086 460.707422 184.087597 C 461.161897 184.572038 468.076404 199.072974 467.881629 199.202158 C 467.784241 199.299046 464.375682 200.138744 460.317873 201.07533 C 456.292526 202.011916 452.461954 202.916206 451.845167 203.077686 C 450.871293 203.336055 450.741443 202.851614 450.741443 198.943789 Z M 450.741443 198.943789 " transform="matrix(0.120331,0,0,0.120951,-41.28125,-5.96875)"/>
</g>
</svg>
