<svg xmlns="http://www.w3.org/2000/svg" viewBox="0 0 16 16"><path d="M 15.484375 5.800781 C 18.46875 14.140625 7.734375 18.195312 3.699219 14.800781 C -0.332031 11.40625 -1.710938 5.585938 2.859375 2.660156 C 7.425781 -0.265625 12.496094 -2.535156 15.484375 5.800781 Z M 15.484375 5.800781 " fill="#ff8c00"/><g stroke-linejoin="round"><g fill="none" stroke="#fff"><path d="M 6.682955 4.69517 C 5.586989 4.69517 4.685862 5.58654 4.685862 6.689023 L 4.685862 53.321711 C 4.685862 54.424194 5.586989 55.315563 6.682955 55.315563 L 53.322383 55.315563 C 54.418349 55.315563 55.319476 54.424194 55.319476 53.321711 L 55.319476 6.689023 C 55.319476 5.58654 54.418349 4.69517 53.322383 4.69517 Z M 6.682955 4.69517 " transform="matrix(0.16 0 0 0.167 3.36 3.14)" stroke-linecap="round" stroke-width="8.13"/><path d="M 13.101272 9.339424 C 12.518881 9.339424 12.04238 9.828231 12.04238 10.394219 L 12.04238 34.963213 C 12.04238 35.5292 12.518881 36.018008 13.101272 36.018008 L 37.826413 36.018008 C 38.435276 36.018008 38.885305 35.5292 38.885305 34.963213 L 38.885305 10.394219 C 38.885305 9.828231 38.435276 9.339424 37.826413 9.339424 Z M 13.101272 9.339424 " transform="matrix(0.148 0 0 0.152 3.23 3.43)" stroke-width="8.19"/></g><g stroke="#ff8c00"><path d="M 12.067221 7.835486 C 11.447743 7.835486 10.940897 8.355423 10.940897 8.98482 L 10.940897 35.091121 C 10.940897 35.693153 11.447743 36.21309 12.067221 36.21309 L 38.395052 36.21309 C 39.014531 36.21309 39.521377 35.693153 39.521377 35.091121 L 39.521377 8.98482 C 39.521377 8.355423 39.014531 7.835486 38.395052 7.835486 Z M 12.067221 7.835486 " transform="matrix(0.139 0 0 0.143 3.49 3.73)" fill="#fff" fill-rule="evenodd" stroke-width="2.9"/><g fill="none" stroke-linecap="round" stroke-width="2.6" transform="matrix(0.154 0 0 0.16 3.5 3.29)"><path d="M 14.061608 14.610592 L 31.211084 14.610592 "/><path d="M 14.061608 19.815024 L 31.211084 19.815024 "/><path d="M 14.061608 25.019457 L 31.211084 25.019457 "/><path d="M 14.036239 30.22389 L 23.549631 30.22389 "/></g></g><path d="M 22.152266 23.993984 C 21.569875 23.993984 21.093373 24.457065 21.093373 25.048779 L 21.093373 49.592047 C 21.093373 50.183761 21.569875 50.646841 22.152266 50.646841 L 46.903878 50.646841 C 47.486269 50.646841 47.962771 50.183761 47.962771 49.592047 L 47.962771 25.048779 C 47.962771 24.457065 47.486269 23.993984 46.903878 23.993984 Z M 22.152266 23.993984 " transform="matrix(0.148 0 0 0.152 4.26 3.73)" fill="none" stroke="#fff" stroke-width="8.19"/><g stroke="#ff8c00"><path d="M 21.694595 23.422153 C 21.075116 23.422153 20.56827 23.914724 20.56827 24.544122 L 20.56827 50.650423 C 20.56827 51.27982 21.075116 51.772392 21.694595 51.772392 L 48.022426 51.772392 C 48.641905 51.772392 49.148751 51.27982 49.148751 50.650423 L 49.148751 24.544122 C 49.148751 23.914724 48.641905 23.422153 48.022426 23.422153 Z M 21.694595 23.422153 " transform="matrix(0.139 0 0 0.143 4.52 4)" fill="#fff" fill-rule="evenodd" stroke-width="2.9"/><g fill="none" stroke-linecap="round"><path d="M 3.648761 1.577574 C 2.434744 1.577574 1.436553 2.564956 1.436553 3.786192 L 1.436553 55.441879 C 1.436553 56.663116 2.434744 57.650498 3.648761 57.650498 L 55.311914 57.650498 C 56.525931 57.650498 57.524122 56.663116 57.524122 55.441879 L 57.524122 3.786192 C 57.524122 2.564956 56.525931 1.577574 55.311914 1.577574 Z M 3.648761 1.577574 " transform="matrix(0.145 0 0 0.15 3.9 3.68)" stroke-dasharray="3.46155 3.46155" stroke-width="3.46"/><g stroke-width="2.6" transform="matrix(0.154 0 0 0.16 3.6 3.39)"><path d="M 28.82068 29.763691 L 45.970156 29.763691 "/><path d="M 28.82068 34.968123 L 45.970156 34.968123 "/><path d="M 28.82068 40.19699 L 45.970156 40.19699 "/><path d="M 28.795311 45.401423 L 38.308703 45.401423 "/></g></g></g></g></svg>