<svg xmlns="http://www.w3.org/2000/svg" viewBox="0 0 16 16"><g fill="#ff7f4e"><path d="m 3.297 1.563 c 12.03 -8 19.438 17.504 3.891 14.13 c -6.43 -1.441 -10.328 -10.465 -3.891 -14.13"/><path d="m 12.621 8.137 c 0 0.008 0 0.016 0 0.023 c -0.004 0.09 -0.047 0.18 -0.109 0.223 l -1.789 1.305 l -1.793 1.309 c -0.066 0.047 -0.148 0.047 -0.215 -0.004 c -0.066 -0.047 -0.109 -0.141 -0.109 -0.234 v -1.453 h -4.07 c -0.273 0 -0.492 -0.223 -0.492 -0.492 v -1.328 c 0 -0.273 0.219 -0.492 0.492 -0.492 h 4.07 v -1.453 c 0 -0.098 0.043 -0.191 0.109 -0.238 c 0.066 -0.047 0.148 -0.047 0.215 0 l 1.793 1.305 l 1.789 1.305 c 0.063 0.047 0.105 0.133 0.109 0.227"/><path d="m 12.621 8.137 c 0 0.008 0 0.016 -0.004 0.023 c 0 0.094 -0.043 0.18 -0.105 0.227 l -1.789 1.305 l -1.793 1.305 c -0.066 0.047 -0.148 0.047 -0.215 -0.004 c -0.066 -0.047 -0.109 -0.141 -0.109 -0.234 v -1.453 h -4.074 c -0.27 0 -0.488 -0.223 -0.488 -0.492 v -0.68 h 8.578 c 0 0 0 0 0 0.004"/></g><g fill="#fff" stroke="#fff"><path d="m 99.87 546.26 c -7.05 0 -12.886 5.798 -12.886 12.885 v 474.59 c 0 4.51 2.674 8.805 6.807 11.167 c 4.133 2.147 8.996 1.933 13.13 -0.644 l 149.04 -99.21 l 32.579 21.689 c 0.972 -1.288 1.945 -2.577 2.917 -3.651 l 25.771 -25.77 l -53 -53.04 c -7.78 -7.731 -9.968 -19.11 -7.05 -30.06 c -2.674 -0.215 -5.349 0.215 -7.537 1.503 l -80.23 46.17 v -270.8 h 173.35 v 171.8 c 0.486 0.429 0.729 0.644 1.216 1.074 l 53.24 53.47 l 27.716 -27.702 v -270.58 c 0 -7.087 -5.592 -12.885 -12.642 -12.885" transform="matrix(0.01607 0 0 0.01819 3.79 -6.245)" fill-rule="evenodd" stroke-width="1.092"/><g stroke-width="3.762"><path d="m -398.62 652.26 c 20.64 0.011 37.11 49.14 37.24 109.44 l 0.027 69.823 c -0.039 60.47 -16.626 109.56 -37.27 109.55 c -20.316 -0.031 -37.11 -49.14 -37.07 -109.62 l 0.125 -69.67 c -0.113 -60.63 16.626 -109.56 36.943 -109.53" transform="matrix(0.01136 0.01286 -0.01136 0.01286 23.752 5.691)"/><path d="m -796.67 -543.03 c 20.488 0.141 37.15 55.679 37.2 124.05 l -0.214 40.785 c 0.217 68.55 -16.497 124.11 -36.985 123.97 c -20.468 0.183 -37.13 -55.35 -37.03 -123.88 l -0.11 -40.805 c 0.107 -68.53 16.669 -123.94 37.14 -124.12" transform="matrix(0.01136 -0.01286 0.01136 0.01286 23.752 5.691)"/></g></g></svg>