<svg xmlns="http://www.w3.org/2000/svg" viewBox="0 0 16 16"><path d="M 12.664062 14.371094 C 0.855469 22.257812 -6.421875 -2.898438 8.847656 0.433594 C 15.15625 1.851562 18.984375 10.75 12.664062 14.371094 Z M 12.664062 14.371094 " fill="#ff8c00"/><g stroke="#fff" stroke-linejoin="round" stroke-linecap="round"><g transform="matrix(0.252 0 0 0.231 -1.9 -0.7)"><g fill="#ffdeac" fill-rule="evenodd" stroke-width="2.19"><path d="M 17.586716 19.616859 C 17.46292 19.616859 17.354598 19.735125 17.354598 19.887182 L 17.354598 42.594353 C 17.354598 42.74641 17.46292 42.864676 17.586716 42.864676 L 22.755204 42.864676 C 22.879001 42.864676 22.987322 42.74641 22.987322 42.594353 L 22.987322 19.887182 C 22.987322 19.735125 22.879001 19.616859 22.755204 19.616859 Z M 17.586716 19.616859 "/><path d="M 26.902375 30.294635 C 26.778579 30.294635 26.685732 30.362216 26.685732 30.446692 L 26.685732 42.966048 C 26.685732 43.050524 26.778579 43.118105 26.902375 43.118105 L 32.086338 43.118105 C 32.19466 43.118105 32.302981 43.050524 32.302981 42.966048 L 32.302981 30.446692 C 32.302981 30.362216 32.19466 30.294635 32.086338 30.294635 Z M 26.902375 30.294635 "/><path d="M 36.218034 24.83748 C 36.094238 24.83748 36.001391 25.006433 36.001391 25.209175 L 36.001391 42.577458 C 36.001391 42.7802 36.094238 42.949152 36.218034 42.949152 L 41.401997 42.949152 C 41.525794 42.949152 41.634115 42.7802 41.634115 42.577458 L 41.634115 25.209175 C 41.634115 25.006433 41.525794 24.83748 41.401997 24.83748 Z M 36.218034 24.83748 "/></g><path d="M 16.936786 16.727777 L 16.936786 43.16879 L 43.212516 43.16879 " fill="none" stroke-width="2.74"/></g><g stroke-width="2.5"><path d="M 39.448266 17.95199 L 53.914225 17.95199 L 53.914225 31.049506 L 39.448266 31.049506 Z M 39.448266 17.95199 " transform="matrix(0.221 0 0 0.203 1.66 5.92)" fill="#ffdeac"/><g fill="none" transform="matrix(0.221 0 0 0.203 1.26 6.92)"><path d="M 45.577413 17.514815 L 49.899559 17.514815 "/><path d="M 47.094574 21.636681 L 51.399079 21.636681 "/></g></g></g></svg>