<svg xmlns="http://www.w3.org/2000/svg" viewBox="0 0 16 16"><path d="m 0.203 9.832 c 3.125 14.992 24.617 -1.102 11.707 -8.727 c -5.02 -3.266 -13.313 1.016 -11.707 8.727" fill="#ff8c00"/><g fill="#fff"><path d="m 10.93 4.18 c -0.059 0 -0.121 0.012 -0.18 0.031 l -2.117 0.105 c -0.02 0 -0.035 0 -0.055 0 c -0.75 0.07 -0.645 1.16 0.105 1.086 l 0.871 -0.043 c -4.57 4.887 0 0 -4.57 4.887 l -0.039 -0.848 c -0.012 -0.355 -0.359 -0.605 -0.711 -0.512 c -0.258 0.07 -0.43 0.305 -0.41 0.566 l 0.098 2.039 c -0.094 0.418 0.313 0.773 0.727 0.645 l 2.109 -0.102 c 0.746 -0.039 0.695 -1.125 -0.055 -1.09 l -0.875 0.043 c 4.574 -4.891 0 0 4.574 -4.891 l 0.043 0.855 c 0.035 0.723 1.156 0.668 1.121 -0.055 l -0.098 -1.996 c 0.129 -0.359 -0.148 -0.727 -0.539 -0.723"/><path d="m 3.926 11.625 l 0.559 -0.027 l 0.027 0.547 l -0.563 0.023"/><path d="m 10.871 4.207 l 0.559 -0.027 l 0.027 0.543 l -0.559 0.027"/><path d="m 3.793 8.906 l 0.563 -0.023 l 0.023 0.543 l -0.559 0.027 m 2.906 2.039 l 0.563 -0.027 l 0.023 0.543 l -0.559 0.027 m 4.246 -5.109 l 0.563 -0.027 l 0.027 0.543 l -0.563 0.027 m -2.961 -3.125 l 0.563 -0.027 l 0.027 0.543 l -0.563 0.027"/></g></svg>