<svg xmlns="http://www.w3.org/2000/svg" viewBox="0 0 16 16"><path d="m 6.168 0.203 c -14.992 3.125 1.102 24.617 8.727 11.707 c 3.266 -5.02 -1.016 -13.313 -8.727 -11.707" fill="#ff8c00"/><g stroke="#fff"><g fill="#191919"><path d="m 33.597 1034.39 h 1.794 c 0.039 0 0.065 0.025 0.065 0.063 v 8.941 c 0 0.025 -0.026 0.05 -0.065 0.05 h -1.794 c -0.026 0 -0.052 -0.025 -0.052 -0.05 v -8.941 c 0 -0.038 0.026 -0.063 0.052 -0.063" transform="matrix(0.30046 0 0 0.31062 0.823 -310.94)"/><path d="m 1038.02 -39.03 h 1.786 c 0.038 0 0.063 0.026 0.063 0.065 v 8.932 c 0 0.039 -0.025 0.065 -0.063 0.065 h -1.786 c -0.038 0 -0.063 -0.026 -0.063 -0.065 v -8.932 c 0 -0.039 0.025 -0.065 0.063 -0.065" transform="matrix(0 0.31062 -0.30046 0 0.823 -310.94)"/></g><g transform="matrix(0.30046 0 0 0.31062 0.823 -310.94)"><path d="m 12.211 1012.58 c -1.079 0 -1.95 0.729 -1.95 1.635 l 0.065 15.192 c 0.013 0.905 0.884 1.61 1.95 1.597 l 22.14 -0.075 c 1.066 0 1.911 -0.717 1.898 -1.61 l -0.065 -15.192 c 0 -0.905 -0.845 -1.635 -1.911 -1.635 m -20.762 1.22 l 19.358 -0.063 c 0.949 0 1.716 0.629 1.716 1.421 l 0.052 13.305 c 0 0.792 -0.754 1.434 -1.703 1.434 l -19.358 0.075 c -0.936 0 -1.703 -0.629 -1.716 -1.421 l -0.052 -13.305 c 0 -0.792 0.767 -1.434 1.703 -1.434" fill="#fffafa" stroke-width="1.08"/><g fill="#fff"><path d="m 24.12 1021.45 v -4.905 h 2.301 v 2.037 c 0 1.195 0.052 2.037 0.104 2.037 c 0.052 0 0.559 -0.402 1.118 -0.893 l 1.014 -0.88 h 1.56 c 1.014 0 1.534 0.038 1.495 0.101 c -0.039 0.05 -0.897 0.83 -1.911 1.735 c -1.027 0.893 -1.859 1.685 -1.859 1.748 c 0 0.075 0.845 0.943 1.885 1.937 c 1.04 0.981 1.898 1.836 1.924 1.886 c 0.013 0.05 -0.676 0.088 -1.521 0.088 h -1.56 l -1.04 -1.031 c -0.572 -0.578 -1.079 -1.044 -1.118 -1.044 c -0.052 0 -0.091 0.465 -0.091 1.044 v 1.031 h -2.301" stroke-width="0.042"/><path d="m 17.359 1026.22 c -1.17 -0.365 -1.963 -1.22 -2.379 -2.528 c -0.299 -0.943 -0.208 -2.867 0.182 -3.722 c 0.39 -0.893 0.884 -1.434 1.625 -1.823 c 0.546 -0.277 0.754 -0.314 1.625 -0.314 c 0.806 0 1.105 0.05 1.547 0.264 c 1.365 0.654 2.158 2.1 2.158 3.961 c 0 2.05 -0.949 3.634 -2.483 4.112 c -0.572 0.176 -1.807 0.201 -2.275 0.05 m 1.742 -2.427 c 0.026 0 0.13 -0.226 0.26 -0.503 c 0.234 -0.541 0.286 -1.71 0.091 -2.238 c -0.208 -0.566 -0.533 -0.855 -1.014 -0.855 c -0.936 0 -1.417 1.258 -1.066 2.716 c 0.195 0.817 0.689 1.157 1.365 0.968 c 0.182 -0.05 0.351 -0.088 0.364 -0.088" stroke-width="0.045"/></g></g></g><g fill="#fff"><path d="m 9.793 11.352 h 2.801 c 0 0 0 0 0 0.004 v 0.742 h -2.801 v -0.742 c 0 -0.004 0 -0.004 0 -0.004"/><path d="m 11.566 10.324 v 2.801 h -0.746 v -2.801"/></g></svg>