<svg xmlns="http://www.w3.org/2000/svg" viewBox="0 0 16 16"><path d="m 15.793 8.449 c -9.645 21.504 -26.969 -10.04 -5.492 -8.258 c 3.234 0.422 6.629 3.734 5.492 8.258" fill="#ffa400"/><g fill="#fff"><path d="m 5.953 12.574 c -0.027 -0.004 -0.16 -0.117 -0.293 -0.25 c -0.223 -0.223 -0.238 -0.242 -0.23 -0.336 c 0.004 -0.082 -0.008 -0.109 -0.098 -0.195 c -0.055 -0.055 -0.102 -0.117 -0.102 -0.141 c 0 -0.023 0.035 -0.074 0.074 -0.113 c 0.043 -0.043 0.078 -0.086 0.078 -0.098 c 0 -0.016 -0.051 -0.082 -0.113 -0.148 c -0.113 -0.117 -0.117 -0.125 -0.117 -0.289 v -0.168 l 0.281 -0.297 v -0.504 l -0.141 -0.141 c -0.078 -0.074 -0.141 -0.152 -0.141 -0.168 c 0 -0.02 0.039 -0.078 0.086 -0.129 l 0.086 -0.094 l -0.109 -0.133 c -0.063 -0.07 -0.113 -0.137 -0.113 -0.148 c 0 -0.012 0.074 -0.098 0.168 -0.195 c 0.164 -0.176 0.164 -0.176 0.164 -0.324 c 0 -0.078 -0.016 -0.16 -0.031 -0.176 c -0.016 -0.016 -0.082 -0.031 -0.148 -0.031 c -0.066 0 -0.133 -0.012 -0.145 -0.031 c -0.016 -0.02 -0.031 -0.34 -0.043 -0.77 c -0.02 -0.965 -0.012 -0.922 -0.172 -1.02 c -0.16 -0.094 -0.371 -0.32 -0.488 -0.516 c -0.27 -0.457 -0.781 -2.039 -0.82 -2.527 c -0.031 -0.359 0.047 -0.465 0.375 -0.52 c 0.672 -0.105 0.937 -0.125 1.906 -0.125 c 0.965 0 1.195 0.012 1.891 0.113 c 0.352 0.051 0.402 0.074 0.465 0.223 c 0.059 0.137 0.043 0.355 -0.066 0.785 c -0.168 0.684 -0.512 1.656 -0.711 2.023 c -0.086 0.16 -0.344 0.449 -0.441 0.504 l -0.066 0.035 l -0.008 2.508 c -0.008 1.906 -0.016 2.527 -0.039 2.582 c -0.031 0.07 -0.617 0.703 -0.707 0.766 c -0.063 0.039 -0.16 0.063 -0.23 0.047 m 1.125 -8.301 c 0.211 -0.027 0.402 -0.059 0.422 -0.066 c 0.07 -0.027 0.109 -0.141 0.109 -0.328 c 0 -0.254 -0.039 -0.305 -0.246 -0.34 c -0.461 -0.078 -0.68 -0.094 -1.445 -0.094 c -0.766 0 -1.063 0.023 -1.523 0.105 c -0.125 0.023 -0.172 0.109 -0.172 0.328 c 0 0.184 0.039 0.301 0.105 0.328 c 0.059 0.02 0.563 0.09 0.84 0.117 c 0.414 0.035 1.469 0.008 1.91 -0.051"/><path d="m 9.848 3.02 c -0.031 0.008 -0.16 0.121 -0.293 0.25 c -0.223 0.227 -0.238 0.246 -0.23 0.336 c 0.004 0.086 -0.008 0.109 -0.098 0.199 c -0.059 0.055 -0.102 0.117 -0.102 0.141 c 0 0.023 0.031 0.074 0.074 0.113 c 0.043 0.039 0.078 0.086 0.078 0.098 c 0 0.016 -0.055 0.078 -0.117 0.148 c -0.109 0.117 -0.113 0.125 -0.113 0.289 v 0.168 l 0.141 0.148 l 0.141 0.145 v 0.508 l -0.141 0.137 c -0.078 0.078 -0.141 0.156 -0.141 0.172 c 0 0.02 0.039 0.078 0.086 0.129 l 0.086 0.094 l -0.109 0.129 c -0.063 0.074 -0.113 0.141 -0.113 0.152 c 0 0.012 0.074 0.098 0.164 0.195 c 0.164 0.172 0.168 0.176 0.168 0.32 c 0 0.082 -0.016 0.164 -0.031 0.18 c -0.016 0.016 -0.086 0.031 -0.148 0.031 c -0.066 0 -0.133 0.012 -0.145 0.031 c -0.016 0.02 -0.035 0.34 -0.043 0.77 c -0.02 0.965 -0.016 0.922 -0.172 1.02 c -0.16 0.094 -0.375 0.32 -0.488 0.516 c -0.27 0.457 -0.785 2.039 -0.824 2.527 c -0.027 0.355 0.051 0.465 0.379 0.516 c 0.672 0.109 0.937 0.129 1.902 0.129 c 0.969 0 1.195 -0.012 1.895 -0.113 c 0.352 -0.051 0.402 -0.074 0.465 -0.223 c 0.059 -0.141 0.039 -0.355 -0.066 -0.785 c -0.168 -0.684 -0.512 -1.656 -0.711 -2.023 c -0.09 -0.16 -0.344 -0.449 -0.445 -0.504 l -0.066 -0.035 l -0.004 -2.512 c -0.008 -1.902 -0.016 -2.523 -0.039 -2.578 c -0.031 -0.07 -0.617 -0.703 -0.711 -0.766 c -0.059 -0.043 -0.156 -0.063 -0.227 -0.051 m 1.125 8.305 c 0.211 0.027 0.398 0.059 0.422 0.066 c 0.07 0.027 0.109 0.141 0.109 0.328 c 0 0.254 -0.039 0.305 -0.246 0.34 c -0.461 0.078 -0.68 0.094 -1.449 0.094 c -0.762 0 -1.059 -0.023 -1.52 -0.105 c -0.125 -0.023 -0.172 -0.109 -0.172 -0.328 c 0 -0.184 0.039 -0.301 0.105 -0.328 c 0.055 -0.02 0.563 -0.09 0.836 -0.117 c 0.418 -0.035 1.473 -0.008 1.914 0.051"/></g></svg>