<svg xmlns="http://www.w3.org/2000/svg" viewBox="0 0 16 16"><path d="m 14.11 5.309 c 0.75 0.945 1.5 2.73 1.598 3.797 c 0.145 1.539 -0.383 3.301 -1.301 4.363 c -1.227 1.418 -3.707 2.352 -6.191 2.332 c -1.781 -0.016 -4.172 -0.551 -5.391 -1.207 c -1.039 -0.559 -1.785 -1.375 -2.195 -2.41 c -0.555 -1.402 -0.586 -2.777 -0.09 -4.137 c 0.805 -2.91 2.645 -4.867 4.293 -6.434 c 4.184 -3.496 6.988 0.758 9.273 3.695" fill="#ff8c00"/><g fill="#fff"><path d="m 7.957 3.199 c -0.094 0.004 -0.188 0.063 -0.336 0.156 l -1.625 0.996 l -1.617 0.996 c -0.355 0.203 -0.309 0.113 -0.336 0.504 v 0.723 c 0 0.035 0.023 0.063 0.047 0.063 h 0.512 v 4.582 h -0.129 c -0.238 0 -0.43 0.219 -0.43 0.484 v 0.66 h 5.328 c -0.199 -0.348 -0.301 -0.742 -0.305 -1.145 c 0.004 -0.191 0.027 -0.387 0.074 -0.574 h -0.633 v -3.438 h 1.676 v 2.031 c 0.34 -0.203 0.727 -0.309 1.117 -0.313 v -2.289 h 0.512 c 0.027 0 0.047 -0.027 0.047 -0.063 v -0.703 c 0 -0.418 -0.008 -0.32 -0.348 -0.531 l -1.605 -0.988 l -1.617 -0.992 c -0.148 -0.117 -0.242 -0.168 -0.332 -0.16 m -2.238 4.01 h 1.672 v 3.438 h -1.672"/><path d="m 11.672 9.363 c -1.094 0 -1.98 0.906 -1.98 2.023 c 0 1.121 0.887 2.023 1.98 2.023 c 1.094 0 1.98 -0.906 1.98 -2.023 c 0 -1.117 -0.887 -2.023 -1.98 -2.023 m -0.141 0.563 c 0.02 -0.004 0.043 0 0.063 0 c 0 0.008 -0.016 0.043 -0.035 0.09 c -0.137 0.309 -0.145 0.668 -0.02 0.859 c 0.023 0.035 0.047 0.066 0.047 0.07 c 0 0.004 -0.027 0.008 -0.055 0.008 c -0.066 0 -0.129 -0.039 -0.258 -0.141 c -0.055 -0.047 -0.129 -0.086 -0.156 -0.094 c -0.047 -0.008 -0.059 -0.004 -0.117 0.055 c -0.055 0.055 -0.07 0.086 -0.07 0.137 c 0 0.191 0.223 0.344 0.637 0.434 c 0.563 0.121 0.699 0.23 0.715 0.531 c 0.02 0.379 -0.176 0.668 -0.609 0.887 c -0.051 0.027 -0.082 0.035 -0.105 0.047 c -0.008 -0.004 -0.016 0 -0.027 0 c -0.004 -0.012 -0.008 -0.039 -0.008 -0.09 c 0 -0.203 -0.078 -0.41 -0.195 -0.527 c -0.031 -0.031 -0.117 -0.094 -0.191 -0.145 c -0.078 -0.047 -0.152 -0.102 -0.168 -0.125 c -0.031 -0.039 -0.031 -0.063 -0.012 -0.137 c 0.039 -0.133 0.086 -0.203 0.18 -0.289 c 0.047 -0.043 0.094 -0.078 0.105 -0.082 c 0.008 0 -0.063 -0.023 -0.168 -0.043 c -0.109 -0.023 -0.266 -0.07 -0.344 -0.102 c -0.148 -0.055 -0.348 -0.168 -0.426 -0.254 c -0.004 0 -0.008 -0.004 -0.008 -0.008 c 0.109 -0.445 0.414 -0.809 0.82 -0.984 c 0.086 -0.035 0.172 -0.063 0.266 -0.082 c 0.047 -0.008 0.094 -0.012 0.141 -0.02 m 1.324 0.68 c 0.035 0.023 0.16 0.301 0.195 0.434 c 0.047 0.176 0.043 0.48 0 0.652 c -0.016 0.066 -0.035 0.129 -0.043 0.137 c -0.008 0.004 -0.031 -0.039 -0.063 -0.094 c -0.031 -0.051 -0.125 -0.168 -0.203 -0.25 c -0.227 -0.246 -0.262 -0.375 -0.168 -0.57 c 0.047 -0.098 0.258 -0.324 0.281 -0.309"/></g></svg>