
<svg xmlns="http://www.w3.org/2000/svg" xmlns:xlink="http://www.w3.org/1999/xlink" width="16px" height="16px" viewBox="0 0 16 16" version="1.1">
<g id="surface1">
<path style=" stroke:none;fill-rule:nonzero;fill:rgb(100%,54.901961%,0%);fill-opacity:1;" d="M 0.234375 9.664062 C 1.472656 17.90625 13.808594 18.152344 15.671875 10.140625 C 17.59375 3.652344 10.644531 -1.648438 5.445312 0.476562 C 1.964844 1.480469 -0.84375 5.589844 0.234375 9.664062 Z M 0.234375 9.664062 "/>
<path style=" stroke:none;fill-rule:nonzero;fill:rgb(100%,100%,100%);fill-opacity:1;" d="M 9.902344 11.539062 C 9.707031 11.484375 9.417969 11.351562 9.261719 11.242188 C 9.109375 11.132812 8.960938 11.042969 8.9375 11.042969 C 8.804688 11.042969 8.132812 10.328125 7.980469 10.023438 C 7.882812 9.828125 7.730469 9.53125 7.640625 9.367188 C 7.5 9.09375 7.480469 8.964844 7.460938 8.09375 C 7.4375 7.003906 7.511719 6.511719 7.746094 6.230469 C 7.828125 6.128906 7.949219 5.925781 8.007812 5.777344 C 8.144531 5.441406 8.527344 5.035156 8.871094 4.859375 C 9.019531 4.785156 9.214844 4.648438 9.308594 4.5625 C 9.53125 4.347656 10.152344 4.242188 10.878906 4.292969 C 11.5 4.335938 11.78125 4.464844 12.261719 4.9375 C 12.582031 5.25 12.632812 5.546875 12.414062 5.820312 C 12.246094 6.03125 11.816406 6.027344 11.460938 5.808594 C 11.269531 5.695312 11.074219 5.648438 10.699219 5.625 C 10.246094 5.601562 10.148438 5.621094 9.765625 5.796875 C 9.238281 6.042969 9.167969 6.121094 8.929688 6.714844 C 8.761719 7.140625 8.742188 7.261719 8.746094 7.957031 L 8.746094 8.730469 L 9.027344 9.242188 C 9.179688 9.527344 9.34375 9.785156 9.386719 9.820312 C 9.429688 9.855469 9.628906 9.9375 9.824219 10.003906 C 10.253906 10.144531 11.179688 10.113281 11.582031 9.941406 C 11.84375 9.832031 12.195312 9.804688 12.316406 9.886719 C 12.4375 9.96875 12.542969 10.21875 12.542969 10.425781 C 12.542969 10.707031 12.347656 10.921875 11.785156 11.265625 C 11.34375 11.535156 11.238281 11.570312 10.777344 11.601562 C 10.417969 11.628906 10.152344 11.609375 9.902344 11.539062 Z M 2.980469 9.433594 C 2.738281 9.335938 2.558594 9.039062 2.558594 8.738281 C 2.558594 8.402344 2.761719 8.039062 2.96875 7.996094 C 3.332031 7.921875 5.03125 7.90625 5.183594 7.976562 C 5.410156 8.082031 5.535156 8.363281 5.535156 8.765625 C 5.535156 9.054688 5.503906 9.140625 5.339844 9.304688 L 5.148438 9.5 L 4.132812 9.496094 C 3.574219 9.492188 3.058594 9.464844 2.980469 9.433594 Z M 2.980469 9.433594 "/>
</g>
</svg>
