<svg xmlns="http://www.w3.org/2000/svg" viewBox="0 0 16 16"><path d="m 6.336 0.434 c -8.242 1.223 -8.488 13.402 -0.477 15.246 c 6.488 1.891 11.789 -4.969 9.664 -10.1 c -1 -3.437 -5.113 -6.215 -9.188 -5.148" fill="#ff8c00"/><path d="m 2.652 11.715 c -0.012 -0.035 -0.02 -1.703 -0.012 -3.703 l 0.016 -3.641 h 10.5 v 7.379 l -5.238 0.016 c -4.168 0.012 -5.246 0 -5.266 -0.051 m 8.992 -1.059 c 0.125 -0.262 0.176 -0.316 0.434 -0.441 l 0.289 -0.145 v -4.02 l -0.289 -0.145 c -0.258 -0.125 -0.309 -0.176 -0.434 -0.438 l -0.141 -0.297 h -7.199 l -0.141 0.297 c -0.125 0.262 -0.176 0.313 -0.434 0.438 l -0.289 0.145 v 4.02 l 0.289 0.145 c 0.258 0.125 0.309 0.18 0.434 0.441 l 0.141 0.297 h 7.199 m -4.094 -0.906 c -0.391 -0.109 -0.656 -0.262 -0.93 -0.539 c -0.789 -0.801 -0.789 -2.09 0 -2.895 c 1.156 -1.176 3.109 -0.543 3.41 1.105 c 0.191 1.066 -0.516 2.121 -1.57 2.352 c -0.344 0.074 -0.578 0.066 -0.91 -0.023 m -3.137 -1.641 c -0.016 -0.039 -0.02 -0.219 -0.012 -0.402 l 0.016 -0.328 h 0.762 v 0.773 l -0.367 0.016 c -0.281 0.012 -0.375 -0.004 -0.398 -0.059 m 6.492 0 c -0.012 -0.039 -0.02 -0.219 -0.012 -0.402 l 0.016 -0.328 h 0.762 v 0.773 l -0.367 0.016 c -0.281 0.012 -0.375 -0.004 -0.398 -0.059" fill="#fff"/></svg>