<svg xmlns="http://www.w3.org/2000/svg" viewBox="0 0 16 16"><path d="m 1.219 3.379 c -4.543 6.336 4.473 15.602 11.172 11.707 c 5.73 -2.852 4.078 -11.465 -1.199 -13.902 c -3.254 -1.906 -8.07 -1.277 -9.973 2.195" fill="#ff8c00"/><path d="m 4.84 3.273 l -0.359 0.555 l -1.055 -0.516 l -0.234 0.664 l 3.059 1.496 l 0.543 0.496 l 0.559 1.598 c -0.133 -0.078 -0.227 -0.176 -0.379 -0.242 l -0.207 0.684 c 0.469 0.195 0.758 0.438 0.988 0.699 l 0.02 0.055 l 0.234 0.848 l -0.195 -0.102 l -0.246 0.66 l 0.691 0.363 l 0.012 0.031 l 0.031 -0.012 l 0.129 0.07 l 0.484 1.371 l 0.563 -0.277 l -0.238 -0.672 l 3.594 1.887 l 0.246 -0.66 l -4.18 -2.195 l -0.145 -0.41 l 0.195 -0.082 c -0.086 -0.281 -0.191 -0.559 -0.34 -0.828 c -0.074 -0.137 -0.203 -0.254 -0.301 -0.383 l -0.371 -1.355 l 0.66 0.602 l 0.051 -0.078 c 0.172 0.398 0.316 0.801 0.645 1.176 c 0.211 0.25 0.465 0.484 0.77 0.707 l 0.32 -0.613 c -0.266 -0.195 -0.484 -0.398 -0.664 -0.609 c -0.395 -0.453 -0.613 -0.93 -0.777 -1.43 l -0.184 0.082 l -0.359 -0.328 l 0.113 0.055 l 0.234 -0.668 l -1.281 -0.625 l -0.391 -1.43 l -0.582 0.223 l 0.234 0.844 l -0.168 -0.078 m -1.289 3.809 l -0.527 0.367 c 0.242 0.488 0.363 1.078 0.539 1.73 c 0.098 0.359 0.215 0.734 0.391 1.113 l 0.535 -0.344 c -0.148 -0.32 -0.254 -0.652 -0.344 -0.992 c -0.168 -0.617 -0.293 -1.262 -0.594 -1.875" fill="#fff"/></svg>