
<svg xmlns="http://www.w3.org/2000/svg" xmlns:xlink="http://www.w3.org/1999/xlink" width="16px" height="16px" viewBox="0 0 16 16" version="1.1">
<g id="surface1">
<path style=" stroke:none;fill-rule:nonzero;fill:rgb(100%,54.901961%,0%);fill-opacity:1;" d="M 1.167969 12.113281 C 13.253906 26.199219 24.878906 -2.757812 6.183594 0.214844 C 2.082031 0.867188 -2.089844 8.320312 1.167969 12.113281 Z M 1.167969 12.113281 "/>
<path style="fill-rule:nonzero;fill:rgb(100%,87.058824%,67.843137%);fill-opacity:1;stroke-width:1;stroke-linecap:butt;stroke-linejoin:miter;stroke:rgb(100%,87.058824%,67.843137%);stroke-opacity:1;stroke-miterlimit:4;" d="M 437.961494 645.815405 C 437.961494 723.514923 374.168418 786.378612 295.439661 786.378612 C 216.837478 786.378612 153.044402 723.514923 153.044402 645.815405 C 153.044402 568.241614 216.837478 505.377926 295.439661 505.377926 C 374.168418 505.377926 437.961494 568.241614 437.961494 645.815405 Z M 437.961494 645.815405 " transform="matrix(0.0308615,0,0,0.0310692,-0.980992,-12.342317)"/>
<path style="fill-rule:nonzero;fill:rgb(100%,100%,100%);fill-opacity:1;stroke-width:1;stroke-linecap:butt;stroke-linejoin:miter;stroke:rgb(100%,87.058824%,67.843137%);stroke-opacity:1;stroke-miterlimit:4;" d="M 327.405617 937.762611 C 425.16914 937.762611 504.403475 859.58385 504.403475 763.175065 C 504.403475 666.76628 425.16914 588.762808 327.405617 588.762808 Z M 327.405617 937.762611 " transform="matrix(0.0221357,0,0,0.0222847,0.873746,-9.284445)"/>
</g>
</svg>
