<svg xmlns="http://www.w3.org/2000/svg" viewBox="0 0 16 16"><path d="m 14.13 12.277 c 5.926 -8.102 -4.246 -16.309 -11.133 -9.707 c -6.484 6.219 -0.984 15.879 6.93 12.859 c 1.652 -0.629 3.117 -1.664 4.203 -3.152" fill="#ff8c00"/><path d="m 4.625 11.746 c -0.453 -0.41 -0.551 -0.512 -0.574 -0.613 c -0.039 -0.195 0.012 -0.348 0.16 -0.48 c 0.238 -0.211 0.563 -0.199 0.848 0.027 l 0.145 0.117 l 0.715 -0.629 c 0.801 -0.707 0.879 -0.75 1.18 -0.672 c 0.191 0.051 0.383 0.223 0.414 0.371 c 0.059 0.277 0.059 0.277 -1.16 1.363 c -0.625 0.551 -1.141 1 -1.152 1 c -0.012 0 -0.27 -0.219 -0.574 -0.488 m 3.5 -0.262 c -0.012 -0.023 -0.016 -0.25 -0.008 -0.508 l 0.008 -0.465 h 4.04 v 1 l -2.01 0.008 c -1.625 0.008 -2.01 0 -2.027 -0.035 m -3.5 -2.316 c -0.453 -0.41 -0.551 -0.512 -0.574 -0.613 c -0.039 -0.191 0.012 -0.348 0.16 -0.48 c 0.238 -0.211 0.563 -0.199 0.848 0.027 l 0.145 0.117 l 0.715 -0.629 c 0.801 -0.707 0.879 -0.75 1.18 -0.672 c 0.191 0.051 0.383 0.223 0.414 0.375 c 0.059 0.277 0.059 0.277 -1.16 1.359 c -0.625 0.555 -1.141 1.01 -1.152 1.01 c -0.012 0 -0.27 -0.223 -0.574 -0.492 m 3.5 -0.258 c -0.012 -0.023 -0.016 -0.254 -0.008 -0.508 l 0.008 -0.469 h 4.04 v 1 l -2.01 0.008 c -1.625 0.008 -2.01 0 -2.027 -0.031 m -3.5 -2.32 c -0.453 -0.406 -0.551 -0.512 -0.574 -0.613 c -0.039 -0.191 0.012 -0.344 0.16 -0.477 c 0.238 -0.211 0.563 -0.203 0.848 0.027 l 0.145 0.113 l 0.699 -0.613 c 0.383 -0.336 0.75 -0.637 0.813 -0.664 c 0.313 -0.141 0.727 0.047 0.797 0.359 c 0.059 0.266 0.051 0.273 -1.16 1.352 c -0.625 0.555 -1.141 1.01 -1.152 1.01 c -0.012 0 -0.27 -0.223 -0.574 -0.492 m 3.5 -0.258 c -0.012 -0.023 -0.016 -0.254 -0.008 -0.508 l 0.008 -0.469 h 4.04 v 1 l -2.01 0.008 c -1.625 0.008 -2.01 0 -2.027 -0.031" fill="#fff"/></svg>