<svg xmlns="http://www.w3.org/2000/svg" viewBox="0 0 16 16"><path d="m 8.03 0.195 c 10.555 -1.199 10.406 15.996 -0.187 15.793 c -9.855 0.566 -10.746 -16.73 0.187 -15.793" fill="#ff8c00"/><path d="m 5.535 3.617 c -0.605 0 -1.094 0.59 -1.094 1.32 v 6.586 c 0 0.73 0.488 1.316 1.094 1.316 h 1.637 c 0.602 0 1.09 -0.586 1.09 -1.316 v -6.586 c 0 -0.73 -0.488 -1.32 -1.09 -1.32 m 2.727 0 c -0.605 0 -1.09 0.59 -1.09 1.32 v 1.316 c 0 0.73 0.484 1.316 1.09 1.316 h 1.09 c 0.605 0 1.094 -0.586 1.094 -1.316 v -1.316 c 0 -0.73 -0.488 -1.32 -1.094 -1.32 m -5.453 0.66 h 1.637 c 0.301 0 0.543 0.293 0.543 0.66 v 6.586 c 0 0.367 -0.242 0.66 -0.543 0.66 h -1.637 c -0.305 0 -0.547 -0.293 -0.547 -0.66 v -6.586 c 0 -0.367 0.242 -0.66 0.547 -0.66 m 4.363 0 h 1.09 c 0.305 0 0.547 0.293 0.547 0.66 v 1.316 c 0 0.363 -0.242 0.66 -0.547 0.66 h -1.09 c -0.301 0 -0.547 -0.297 -0.547 -0.66 v -1.316 c 0 -0.367 0.246 -0.66 0.547 -0.66 m 0 4.613 c -0.605 0 -1.09 0.586 -1.09 1.316 v 1.316 c 0 0.73 0.484 1.316 1.09 1.316 h 1.09 c 0.605 0 1.094 -0.586 1.094 -1.316 v -1.316 c 0 -0.73 -0.488 -1.316 -1.094 -1.316 m -1.09 0.656 h 1.09 c 0.305 0 0.547 0.293 0.547 0.66 v 1.316 c 0 0.367 -0.242 0.66 -0.547 0.66 h -1.09 c -0.301 0 -0.547 -0.293 -0.547 -0.66 v -1.316 c 0 -0.367 0.246 -0.66 0.547 -0.66" fill="#fff"/></svg>