<svg xmlns="http://www.w3.org/2000/svg" viewBox="0 0 32 32"><path d="m 30.527 23.566 c -6.297 15.12 -30.688 8.375 -30.527 -8.09 c -0.242 -14.969 19.15 -20.645 27.648 -9.984 c 4.25 4.613 5.734 12.25 2.879 18.08" fill="#ef0306" fill-opacity="0.996"/><path d="m 123.72 60.13 v 61.03 l -28.06 -28.531 c -3.03 -3.063 -8.5 -8.625 -8.5 -8.625 l -6.03 6.125 l 38.719 39.34 l -38.719 39.38 l 6.03 6.125 c 0 0 5.469 -5.563 8.5 -8.656 l 28.06 -28.531 v 61 h 8.531 l 34.06 -34.656 l -34.06 -34.656 l 34.06 -34.656 l -34.06 -34.688 m 0 12.281 l 22.03 22.406 l -22.03 22.406 m -93.72 3.563 c -4.688 0 -8.5 3.906 -8.5 8.688 c 0 4.781 3.813 8.656 8.5 8.656 c 4.719 0 8.531 -3.875 8.531 -8.656 c 0 -4.781 -3.813 -8.688 -8.531 -8.688 m 34.09 0 c -4.719 0 -8.531 3.906 -8.531 8.688 c 0 4.781 3.813 8.656 8.531 8.656 c 4.688 0 8.5 -3.875 8.5 -8.656 c 0 -4.781 -3.813 -8.688 -8.5 -8.688 m 119.25 17.344 c -9.438 0 -17.03 7.719 -17.03 17.344 v 17.313 h -8.531 v 26 h 51.13 v -26 h -8.531 v -17.313 c 0 -9.625 -7.594 -17.344 -17.03 -17.344 m -59.62 3.594 l 22.03 22.406 l -22.03 22.438 m 59.63 -39.781 c 4.719 0 8.531 3.875 8.531 8.688 v 17.313 h -17.03 v -17.313 c 0 -4.813 3.781 -8.688 8.5 -8.688" transform="scale(0.125)" fill="#fff" stroke="#fff"/></svg>