<svg xmlns="http://www.w3.org/2000/svg" viewBox="0 0 32 32"><path d="m 2.473 7.988 c 24 -27.828 47.08 29.387 9.961 23.508 c -8.141 -1.289 -16.43 -16.01 -9.961 -23.508" fill="#ef0306"/><g fill="#fff"><path d="m 9.09 9.68 c -1.203 0 -2.168 0.98 -2.168 2.195 v 8.793 c 0 1.219 0.965 2.199 2.168 2.199 h 11.941 v -2.199 h -10.855 v -8.793 h 10.855 v 1.102 h 3.258 v -1.102 c 0 -1.215 -0.969 -2.195 -2.172 -2.195 m -7.598 0.547 h 2.168 v 0.551 h -2.168"/><path d="m 22.12 14.07 v 4.566 l 0.367 2.285 h 2.219 l 0.367 -2.285 v -4.566 m -2.953 7.992 v 2.281 h 2.953 v -2.281"/></g></svg>