<svg xmlns="http://www.w3.org/2000/svg" viewBox="0 0 32 32"><path d="m 24.23 29.695 c 28.16 -23.891 -29.75 -46.863 -23.797 -9.914 c 1.305 8.102 16.207 16.352 23.797 9.914" fill="#696969"/><path d="m 13.668 24.602 c -0.379 -0.41 -0.375 -1.145 -0.051 -1.566 c 0.449 -0.375 1.258 -0.172 1.445 0.234 c 0.219 0.477 0.188 1.09 -0.066 1.422 c -0.41 0.23 -1.055 0.125 -1.328 -0.09 m 0.355 -3.375 c -0.379 -0.402 -0.438 -1.309 -0.113 -1.73 c 0.336 -0.504 1.172 0.063 1.656 0.207 c 0.613 0.238 1.344 0.152 1.633 0.789 c 0.215 0.477 0.188 1.09 -0.07 1.422 c -0.387 0.27 -1.109 -0.023 -1.582 -0.16 c -0.773 -0.223 -1.457 -0.457 -1.523 -0.527 m -0.328 -3.527 c -0.379 -0.398 -0.441 -1.305 -0.117 -1.727 c 0.305 -0.535 2.285 0.395 2.891 0.582 c 0.828 0.445 2.457 0.258 2.863 1.16 c 0.219 0.477 0.188 1.09 -0.066 1.422 c -0.305 0.535 -2.215 -0.359 -2.816 -0.535 c -1.449 -0.426 -2.688 -0.832 -2.754 -0.902 m -1.316 -3.82 c -0.379 -0.398 -0.438 -1.309 -0.117 -1.727 c 0.316 -0.547 2.73 0.531 3.387 0.727 c 0.895 0.477 2.941 0.398 3.355 1.313 c 0.219 0.477 0.188 1.09 -0.07 1.422 c -0.344 0.379 -2.656 -0.492 -3.309 -0.684 c -1.719 -0.512 -3.18 -0.984 -3.246 -1.051 m -1.313 -3.824 c -0.383 -0.395 -0.441 -1.305 -0.117 -1.727 c 0.371 -0.559 4.047 0.93 4.863 1.176 c 1.066 0.52 4.422 0.859 4.832 1.758 c 0.219 0.477 0.188 1.09 -0.066 1.426 c -0.367 0.559 -3.98 -0.895 -4.789 -1.133 c -2.531 -0.758 -4.66 -1.43 -4.723 -1.5" fill="#f5f5f5"/></svg>