<svg xmlns="http://www.w3.org/2000/svg" viewBox="0 0 32 32"><path d="m 0.391 12.676 c 2.102 -16.25 26.766 -16.738 30.859 -0.941 c 4.133 12.789 -9.52 23.24 -20.01 19.05 c -7.01 -1.977 -12.816 -10.08 -10.848 -18.11" fill="#d6366f"/><g stroke="#fff"><path d="m 60.41 46.852 c 4.916 -5.547 11.971 -8.73 19.378 -8.73 c 14.298 0 25.896 11.596 25.896 25.895 c 0 14.299 -11.598 25.884 -25.896 25.884 c -6.683 0 -13.1 -2.583 -17.919 -7.204" transform="matrix(0.35599 0 0 0.35842 -12.166 -6.769)" fill="none" stroke-width="4.511"/><g fill="#fff" stroke-width="0.96"><g transform="matrix(0.50017 0 0 0.63235 -26.876 -58.2)"><path d="m 67.68 110.06 h 9.481 c 0.344 0 0.617 0.272 0.617 0.612 v 4.88 c 0 0.34 -0.273 0.618 -0.617 0.618 h -9.481 c -0.344 0 -0.625 -0.278 -0.625 -0.618 v -4.88 c 0 -0.34 0.281 -0.612 0.625 -0.612"/><path d="m 81.73 110.06 h 9.481 c 0.344 0 0.617 0.272 0.617 0.612 v 4.88 c 0 0.34 -0.273 0.618 -0.617 0.618 h -9.481 c -0.344 0 -0.625 -0.278 -0.625 -0.618 v -4.88 c 0 -0.34 0.281 -0.612 0.625 -0.612"/></g><g transform="matrix(0.50017 0 0 0.63235 -26.876 -52.51)"><path d="m 67.68 110.06 h 9.481 c 0.344 0 0.617 0.278 0.617 0.618 v 4.874 c 0 0.34 -0.273 0.618 -0.617 0.618 h -9.481 c -0.344 0 -0.625 -0.278 -0.625 -0.618 v -4.874 c 0 -0.34 0.281 -0.618 0.625 -0.618"/><path d="m 81.73 110.06 h 9.481 c 0.344 0 0.617 0.278 0.617 0.618 v 4.874 c 0 0.34 -0.273 0.618 -0.617 0.618 h -9.481 c -0.344 0 -0.625 -0.278 -0.625 -0.618 v -4.874 c 0 -0.34 0.281 -0.618 0.625 -0.618"/></g></g></g></svg>