<svg xmlns="http://www.w3.org/2000/svg" viewBox="0 0 22 22"><path d="m 4.59 1.297 c 32.773 -9.559 11.883 37.66 -2.781 13.977 c -2.68 -4.355 -2.867 -11.742 2.781 -13.977" fill="#170a1b"/><path d="m 9.418 3.852 l -0.012 0.473 c -0.004 0.285 -0.027 0.496 -0.055 0.52 c -0.031 0.027 -0.141 0.047 -0.289 0.047 h -0.238 l -1.133 1.18 c -0.625 0.652 -1.133 1.203 -1.133 1.223 c 0 0.07 0.859 0.824 0.938 0.824 c 0.074 0 1.211 -0.301 1.352 -0.359 c 0.063 -0.027 0.074 -0.059 0.059 -0.133 c -0.02 -0.07 -0.008 -0.105 0.031 -0.117 c 0.035 -0.008 0.324 -0.043 0.645 -0.078 c 0.426 -0.043 0.598 -0.051 0.645 -0.023 c 0.109 0.063 0.172 0.863 0.109 1.414 c -0.164 1.52 -0.914 2.621 -2.293 3.371 l -0.332 0.18 l 0.082 0.223 c 0.172 0.465 0.504 1.492 0.504 1.57 c 0 0.074 -0.016 0.078 -0.297 0.09 c -0.34 0.016 -0.438 0.066 -0.438 0.223 c 0 0.059 0.031 0.129 0.074 0.168 c 0.098 0.082 0.051 0.133 -0.129 0.133 c -0.18 0 -0.313 0.098 -0.313 0.223 c 0 0.137 0.082 0.203 0.297 0.242 c 0.254 0.043 0.379 0.141 0.379 0.293 c 0 0.16 -0.133 0.254 -0.422 0.297 c -0.273 0.039 -0.402 0.102 -0.512 0.242 c -0.223 0.285 -0.012 0.656 0.43 0.746 c 0.141 0.031 0.168 0.055 0.207 0.16 c 0.051 0.145 0.23 0.293 0.41 0.332 c 0.172 0.043 5.598 0.043 5.777 0.004 c 0.195 -0.043 0.379 -0.188 0.43 -0.336 c 0.035 -0.109 0.066 -0.129 0.25 -0.176 c 0.348 -0.09 0.52 -0.316 0.449 -0.59 c -0.051 -0.219 -0.27 -0.359 -0.609 -0.391 c -0.246 -0.027 -0.391 -0.133 -0.391 -0.289 c 0 -0.152 0.125 -0.25 0.383 -0.293 c 0.215 -0.039 0.297 -0.105 0.297 -0.242 c 0 -0.125 -0.137 -0.223 -0.316 -0.223 c -0.18 0 -0.223 -0.051 -0.125 -0.133 c 0.094 -0.082 0.098 -0.25 0.004 -0.32 c -0.047 -0.035 -0.164 -0.059 -0.355 -0.07 c -0.16 -0.008 -0.301 -0.027 -0.313 -0.043 c -0.016 -0.016 0.047 -0.254 0.133 -0.523 c 0.371 -1.148 0.547 -2.133 0.578 -3.266 c 0.027 -0.93 -0.012 -1.379 -0.18 -2.031 c -0.426 -1.66 -1.426 -2.723 -3.172 -3.375 l -0.43 -0.156 m -1.262 0.801 c 0.035 0 0.07 0.008 0.121 0.035 c 0.129 0.066 0.133 0.164 0.008 0.23 c -0.109 0.059 -0.113 0.059 -0.215 0.016 c -0.105 -0.047 -0.094 -0.215 0.016 -0.262 c 0.023 -0.012 0.047 -0.02 0.07 -0.02" fill="#fff"/><path d="m 9.59 4.297 l -0.008 0.027 c -0.008 0.281 -0.055 0.516 -0.055 0.516 l 0.527 0.016 m 0.883 0.223 c 4.191 2.301 1.813 7.137 1.215 9.07 h 1.027 c -0.016 -0.004 -0.027 -0.008 -0.031 -0.012 c -0.012 -0.016 0.043 -0.25 0.121 -0.52 c 0.332 -1.141 0.488 -2.117 0.516 -3.242 c 0.023 -0.926 -0.012 -1.367 -0.16 -2.02 c -0.367 -1.59 -1.219 -2.629 -2.688 -3.281 m -3 9.605 c -0.027 0.012 -0.066 0.02 -0.125 0.02 c -0.16 0 -0.281 0.094 -0.281 0.223 c 0 0.133 0.074 0.203 0.266 0.238 c 0.012 0.004 0.02 0.004 0.031 0.008 v -0.012 h 6.07 c 0.172 -0.039 0.242 -0.105 0.242 -0.234 c 0 -0.129 -0.121 -0.223 -0.281 -0.223 c -0.059 0 -0.098 -0.008 -0.125 -0.02 m -5.906 1.051 c -0.023 0.008 -0.047 0.012 -0.07 0.016 c -0.246 0.039 -0.359 0.098 -0.457 0.238 c -0.199 0.285 -0.008 0.652 0.387 0.742 c 0.02 0.008 0.039 0.012 0.055 0.016 h 6.184 c 0.027 -0.008 0.059 -0.02 0.102 -0.031 c 0.309 -0.09 0.461 -0.313 0.402 -0.586 c -0.043 -0.199 -0.215 -0.332 -0.48 -0.379 h -6.121" fill-opacity="0.322"/></svg>