<svg xmlns="http://www.w3.org/2000/svg" viewBox="0 0 16 16"><path d="m 15.797 6.168 c -3.125 -14.992 -24.613 1.102 -11.707 8.727 c 5.02 3.266 13.313 -1.016 11.707 -8.727" fill="#2f4d4d"/><path d="m 9.926 3.777 l 0.016 0.012 l 0.047 -0.012 m 0.52 0.457 l 3.199 2.531 v -2.531" fill-opacity="0.196"/><path d="m 9.926 1.246 l 3.781 2.988 h -3.199 c -0.285 0 -0.582 -0.238 -0.582 -0.457 v -2.531" fill="#fff" fill-opacity="0.392"/><g fill="#ff4500"><path d="m 4.168 5.836 v -0.188 c 0 -0.023 0.023 -0.039 0.047 -0.039 h 4.691 c 0.027 0 0.047 0.016 0.047 0.039 v 0.188 c 0 0.023 -0.02 0.039 -0.047 0.039 h -4.691 c -0.023 0 -0.047 -0.016 -0.047 -0.039"/><path d="m 7.078 7.609 h 4.03 c 0.016 0 0.027 0.012 0.027 0.027 v 2.379 c 0 0.012 -0.012 0.02 -0.027 0.02 h -4.03 c -0.012 0 -0.027 -0.008 -0.027 -0.02 v -2.379 c 0 -0.016 0.016 -0.027 0.027 -0.027"/><path d="m 4.168 12.195 v -0.156 c 0 -0.02 0.02 -0.035 0.039 -0.035 h 4.98 c 0.02 0 0.035 0.016 0.035 0.035 v 0.156 c 0 0.02 -0.016 0.035 -0.035 0.035 h -4.98 c -0.02 0 -0.039 -0.016 -0.039 -0.035"/><path d="m 6.613 12.06 h 0.219 c 0.023 0 0.047 0.016 0.047 0.039 v 2.336 c 0 0.02 -0.023 0.039 -0.047 0.039 h -0.219 c -0.023 0 -0.047 -0.02 -0.047 -0.039 v -2.336 c 0 -0.023 0.023 -0.039 0.047 -0.039"/><path d="m 8.922 3.664 h 0.215 c 0.023 0 0.047 0.02 0.047 0.039 v 8.434 c 0 0.02 -0.023 0.039 -0.047 0.039 h -0.215 c -0.027 0 -0.047 -0.02 -0.047 -0.039 v -8.434 c 0 -0.02 0.02 -0.039 0.047 -0.039"/><path d="m 4.105 5.609 h 0.18 c 0.023 0 0.043 0.016 0.043 0.031 v 6.531 c 0 0.02 -0.02 0.035 -0.043 0.035 h -0.18 c -0.023 0 -0.039 -0.016 -0.039 -0.035 v -6.531 c 0 -0.016 0.016 -0.031 0.039 -0.031"/><path d="m 4.137 10.684 l -1.199 -1.828 c -0.004 -0.008 -0.004 -0.016 0 -0.027 l 1.285 -1.785 c 0.008 -0.008 0.016 -0.008 0.023 0.004 l 1.195 1.824 c 0.008 0.008 0.008 0.02 0 0.023 l -1.289 1.789 c -0.008 0.008 -0.012 0.008 -0.016 0"/></g></svg>