<svg xmlns="http://www.w3.org/2000/svg" viewBox="0 0 16 16"><path d="m 0.266 9.77 c 3.125 14.992 24.613 -1.102 11.707 -8.727 c -5.02 -3.266 -13.313 1.016 -11.707 8.727" fill="#b0c2de"/><path d="m 9.734 4.152 l 0.02 0.016 l 0.043 -0.016 m 0.5 0.477 l 3.094 2.637 v -2.637" fill-opacity="0.196"/><path d="m 9.734 1.516 l 3.656 3.113 h -3.094 c -0.27 0 -0.563 -0.242 -0.563 -0.477" fill="#fff" fill-opacity="0.392"/><path d="m 49.679 38.34 c 0 0 -4.44 -5.02 -14.953 -4.553 c -15.368 0.067 -24.516 10.227 -24.516 10.227" transform="matrix(0.16013 0 0 0.17417 2.986 3.467)" fill="none" stroke="#fff" stroke-linejoin="round" stroke-linecap="round" stroke-width="0.702"/><path d="m 5.129 5.902 v 0.258 l 0.184 0.023 c 0.395 0.063 0.496 0.234 0.496 0.91 v 3.254 c 0 0.68 -0.102 0.852 -0.496 0.91 l -0.184 0.027 v 0.258 h 1.875 v -0.258 l -0.266 -0.027 c -0.387 -0.043 -0.492 -0.238 -0.492 -0.91 v -3.824 l 1.625 2.887 c 0.219 -0.031 0.437 -0.063 0.676 -0.063 c 0.078 -0.004 0.125 0.016 0.199 0.016 l -1.922 -3.461 m 1.723 0 v 0.258 l 0.266 0.023 c 0.387 0.043 0.496 0.238 0.496 0.91 v 2.316 c 0.148 0.023 0.301 0.031 0.43 0.07 v -2.387 c 0 -0.676 0.098 -0.848 0.492 -0.91 l 0.191 -0.023 v -0.258" fill="#fff"/></svg>