<svg xmlns="http://www.w3.org/2000/svg" viewBox="0 0 16 16"><path d="m 3.363 0.965 c 23.719 -6.852 8.602 27.01 -2.02 10.02 c -1.941 -3.121 -2.074 -8.422 2.02 -10.02" fill="#86cefa"/><g fill="#fff"><path d="m 11.207 7.984 c 0 1.738 0 1.949 0 3.453 h -6.711 c 0 -1.734 0 -1.949 0 -3.453 m 6.04 0.496 h -3.02 v 0.984 h 3.02 m -3.691 -0.984 h -1.676 v 0.984 h 1.676 m 3.691 0.492 h -3.02 v 0.984 h 3.02 m -3.691 -0.984 h -1.676 v 0.984 h 1.676"/><path d="m 11.207 5.01 c 0 1.734 0 1.945 0 3.449 h -6.711 c 0 -1.738 0 -1.949 0 -3.449 m 6.04 0.488 h -3.02 v 0.988 h 3.02 m -3.691 -0.988 h -1.676 v 0.988 h 1.676 m 3.691 0.492 h -3.02 v 0.988 h 3.02 m -3.691 -0.988 h -1.676 v 0.988 h 1.676"/></g><path d="m 11 3.988 l 0.016 0.016 l 0.043 -0.016 m 0.453 0.496 l 2.793 2.711 v -2.711" fill-opacity="0.196"/><path d="m 11 1.277 l 3.305 3.207 h -2.793 c -0.25 0 -0.512 -0.254 -0.512 -0.496 v -2.711" fill="#fff" fill-opacity="0.392"/></svg>