<svg xmlns="http://www.w3.org/2000/svg" viewBox="0 0 22 22"><path d="m 10.965 21.918 c -14.766 1.664 -14.559 -22.18 0.262 -21.898 c 13.781 -0.785 15.03 23.2 -0.262 21.898" fill="#ff8c00"/><g fill="#fff"><path d="m 7.531 5.328 c -0.605 0 -1.09 0.484 -1.09 1.082 v 0.363 h 8.711 v -0.363 c 0 -0.598 -0.484 -1.082 -1.09 -1.082 m -7.621 2.891 v 1.441 h 8.711 v -1.441 m -8.711 2.887 v 1.445 h 8.711 v -1.445 m -8.711 2.887 v 1.445 h 5.809 c 0 -0.508 0.137 -1 0.391 -1.445"/><g fill-opacity="0.302"><path d="m 6.441 6.773 v 1.445 h 8.711 v -1.445 m -8.711 2.887 v 1.445 h 8.711 v -1.445 m -8.711 2.891 v 1.441 h 6.199 c 0.52 -0.891 1.477 -1.441 2.512 -1.441 m -8.711 2.887 v 0.359 c 0 0.602 0.484 1.086 1.09 1.086 h 5.109 c -0.258 -0.441 -0.391 -0.938 -0.395 -1.445"/><path d="m 13.699 5.328 v 7.613 c 0.441 -0.258 0.945 -0.391 1.453 -0.391 v -6.141 c 0 -0.598 -0.484 -1.082 -1.09 -1.082"/></g><path d="m 15.15 13.27 c -1.203 0 -2.176 0.973 -2.176 2.168 c 0 1.195 0.973 2.164 2.176 2.164 c 1.203 0 2.18 -0.969 2.18 -2.164 c 0 -1.195 -0.977 -2.168 -2.18 -2.168 m 0 0.723 c 0.801 0 1.453 0.648 1.453 1.445 c 0 0.797 -0.652 1.445 -1.453 1.445 c -0.801 0 -1.453 -0.648 -1.453 -1.445 c 0 -0.797 0.652 -1.445 1.453 -1.445"/></g></svg>