<svg xmlns="http://www.w3.org/2000/svg" viewBox="0 0 22 22"><path d="m 19.398 14.832 c 1.031 -1.297 2.063 -3.75 2.199 -5.215 c 0.199 -2.117 -0.527 -4.543 -1.789 -6 c -1.688 -1.949 -5.098 -3.23 -8.512 -3.203 c -2.449 0.02 -5.734 0.754 -7.414 1.656 c -1.43 0.77 -2.453 1.895 -3.02 3.316 c -0.766 1.93 -0.809 3.816 -0.129 5.687 c 1.109 4 3.637 6.695 5.902 8.848 c 5.758 4.805 9.609 -1.043 12.758 -5.086" fill="#ff8c00"/><path d="m 6.711 4.813 v 0.723 h 3.457 v 9.371 h -2.074 v 1.441 h 5.531 v -1.441 h -2.074 v -9.371 h 3.457 v -0.723 m -8.297 0.738 l -2.047 5.03 h -0.023 c 0 0.016 0 0.027 0.004 0.047 l -0.012 0.027 l 0.016 0.008 c 0.039 1.156 0.945 2.078 2.066 2.078 c 1.117 0 2.023 -0.922 2.062 -2.078 l 0.016 -0.008 l -0.012 -0.027 c 0.004 -0.02 0.008 -0.031 0.008 -0.047 h -0.027 l -2.047 -5.03 m 8.293 0 l -2.051 5.03 h -0.023 c 0 0.016 0.004 0.027 0.004 0.047 l -0.012 0.027 l 0.016 0.008 c 0.043 1.156 0.949 2.078 2.066 2.078 c 1.117 0 2.023 -0.922 2.066 -2.078 l 0.016 -0.008 l -0.012 -0.027 c 0 -0.02 0.004 -0.031 0.004 -0.047 h -0.023 m -10.348 -3.188 l 1.301 3.188 h -2.598 m 9.594 -3.188 l 1.297 3.188 h -2.598" fill="#fff"/></svg>