<svg xmlns="http://www.w3.org/2000/svg" viewBox="0 0 22 22"><path d="m 19.1 17.43 c 8.76 -9.21 -5.24 -22.97 -14.92 -14.87 c -10.84 8.89 2.8 26.32 13.74 16.42" style="fill:#ff8c00"/><g style="stroke:#fff;stroke-linecap:round"><path d="m 6.53 4.72 h 46.93 c 1.59 0 2.85 1.23 2.85 2.74 v 45.1 c 0 1.52 -1.28 2.74 -2.85 2.74 h -46.93 c -1.59 0 -2.85 -1.23 -2.85 -2.74 v -45.1 c 0 -1.52 1.28 -2.74 2.85 -2.74" transform="matrix(0.204 0 0 0.217 4.98 4.55)" style="stroke-dasharray:3.18524 3.18524;fill:none;stroke-linejoin:round;stroke-width:3.19"/><path d="m 124.2 174.2 c -1.96 -0.68 -3.78 -2.36 -4.96 -4.54 c -0.86 -1.59 -0.91 -2.32 -1.09 -15.77 l -0.23 -14.1 l -13.24 -0.23 l -13.24 -0.18 l -1.73 -1.14 c -3.32 -2.18 -4.78 -4.86 -4.82 -9 c 0 -4.36 2 -7.77 5.51 -9.45 c 1.23 -0.55 3.55 -0.68 14.47 -0.86 l 13 -0.23 l 0.23 -14.1 l 0.18 -14.1 l 1.18 -1.95 c 4.05 -6.95 13.24 -6.45 17.29 0.91 c 0.45 0.82 0.64 4.27 0.77 15.1 l 0.23 14.1 l 13 0.23 c 12.33 0.18 13.1 0.23 14.7 1.09 c 3.59 1.95 5.28 4.91 5.28 9.36 c 0 3.86 -1.59 7 -4.41 8.77 l -2.05 1.27 l -13.29 0.18 l -13.29 0.23 l -0.18 14.1 c -0.23 13.49 -0.27 14.1 -1.14 15.77 c -2.32 4.41 -7.42 6.27 -12.28 4.54" transform="scale(0.086)" style="fill:#fff;stroke-width:0.58"/></g></svg>