<svg xmlns="http://www.w3.org/2000/svg" viewBox="0 0 22 22"><path d="m 0.254 13.449 c 1.367 8.945 13.48 11.336 18.828 4.953 c 4.711 -4.742 3.539 -13.816 -2.238 -16.93 c -6.633 -4.16 -16.301 0.984 -16.828 9.273 c -0.055 0.906 0.023 1.824 0.238 2.707" fill="#ff8c00"/><g fill="#fff"><path d="m 8.668 5.04 v 0.785 h -3.125 v 10.984 h 3.125 v 0.785 h 1.563 v -0.785 h 6.254 v -10.984 h -6.254 v -0.785 m -3.125 2.352 h 1.562 v 1.57 h -1.562 m 3.125 -1.57 h 4.691 c 0 2.355 0 5.141 0 7.848 h -4.691 m -3.125 -4.707 h 1.562 v 1.57 h -1.562 m 0 1.566 h 1.562 v 1.57 h -1.562"/><path d="m 13.359 14.457 l -3.129 -3.137 l 3.129 -3.141"/></g></svg>