<svg xmlns="http://www.w3.org/2000/svg" viewBox="0 0 22 22"><path d="M 19.175781 3.480469 C 31.652344 22.519531 -2.421875 29.886719 0.292969 10.300781 C 1.398438 2.3125 14.40625 -3.804688 19.175781 3.480469 Z M 19.175781 3.480469 " fill="#ff8c00"/><path d="M 54.378594 7.421089 C 54.378594 6.416513 53.577478 5.627203 52.58562 5.627203 L 7.41795 5.627203 C 6.426093 5.627203 5.624977 6.416513 5.624977 7.421089 L 5.624977 52.591124 C 5.624977 53.577761 6.426093 54.367071 7.41795 54.367071 L 52.58562 54.367071 C 53.577478 54.367071 54.378594 53.577761 54.378594 52.591124 Z M 54.378594 7.421089 " transform="matrix(0.205 0 0 0.218 4.9 4.7)" fill="none" stroke="#fff" stroke-linejoin="round" stroke-linecap="round" stroke-width="10"/><g fill="#fff" fill-rule="evenodd"><path d="M 16.039062 6.316406 L 16.039062 16.152344 C 16.039062 16.367188 15.875 16.539062 15.671875 16.539062 L 6.421875 16.539062 C 6.21875 16.539062 6.054688 16.367188 6.054688 16.152344 L 6.054688 6.316406 C 6.054688 6.097656 6.21875 5.925781 6.421875 5.925781 L 15.671875 5.925781 C 15.875 5.925781 16.039062 6.097656 16.039062 6.316406 Z M 16.039062 6.316406 "/><g stroke="#ff8c00" stroke-linejoin="round" stroke-linecap="round" stroke-width="3.34" transform="matrix(0.191 0 0 0.204 5.24 5)"><path d="M 50.199904 55.922926 C 48.241475 49.860137 45.079428 43.989209 39.877351 40.765954 C 34.654873 40.535722 28.065575 40.765954 21.70068 40.765954 C 16.070197 43.758977 12.642946 49.725835 10.500914 55.922926 "/><path d="M 46.487049 28.928168 C 46.487049 37.849676 39.265342 45.082813 30.350409 45.082813 C 21.435476 45.082813 14.213769 37.849676 14.213769 28.928168 C 14.213769 20.025845 21.435476 12.792708 30.350409 12.792708 C 39.265342 12.792708 46.487049 20.025845 46.487049 28.928168 Z M 46.487049 28.928168 "/></g></g><path d="M 6.250269 -56.214998 C 5.17585 -56.214998 4.331665 -55.358185 4.331665 -54.297369 L 4.331665 -5.969051 C 4.331665 -4.908235 5.17585 -4.071822 6.250269 -4.071822 L 54.560717 -4.071822 C 55.615949 -4.071822 56.479321 -4.908235 56.479321 -5.969051 L 56.479321 -54.297369 C 56.479321 -55.358185 55.615949 -56.214998 54.560717 -56.214998 Z M 6.250269 -56.214998 " transform="matrix(0 0.204 -0.191 0 5.28 5)" stroke-dasharray="5.34763 5.34763" fill="none" stroke="#ff8c00" stroke-linejoin="round" stroke-linecap="round" stroke-width="5.35"/></svg>