<svg xmlns="http://www.w3.org/2000/svg" viewBox="0 0 22 22"><path d="m 2.625 17.766 c -13.477 -25.93 35.1 -20.543 13.656 -0.039 c -4.406 3.855 -10.836 6.227 -13.656 0.039" fill="#ff8c00"/><path d="m 8.672 16.527 c -0.328 0 -0.598 -0.246 -0.598 -0.551 v -1.656 h -2.391 c -0.66 0 -1.195 -0.492 -1.195 -1.102 l 0.008 -6.613 c 0 -0.609 0.527 -1.102 1.188 -1.102 h 9.559 c 0.66 0 1.195 0.492 1.195 1.102 v 6.613 c 0 0.609 -0.535 1.102 -1.195 1.102 l -3.641 0.004 l -2.215 2.043 c -0.113 0.105 -0.266 0.16 -0.414 0.16 h -0.301 m 4.184 -4.41 v -0.551 c 0 -0.734 -1.594 -1.102 -2.391 -1.102 c -0.797 0 -2.391 0.367 -2.391 1.102 v 0.551 h 4.781 m -2.391 -4.41 c -0.66 0 -1.195 0.496 -1.195 1.105 c 0 0.605 0.535 1.102 1.195 1.102 c 0.66 0 1.195 -0.496 1.195 -1.102 c 0 -0.609 -0.535 -1.105 -1.195 -1.105" fill="#fff"/></svg>