<svg xmlns="http://www.w3.org/2000/svg" viewBox="0 0 22 22"><path d="m 15.324 21.449 c -2.301 -0.184 -4.301 -1.75 -5.07 -3.969 c -0.238 -0.68 -0.289 -1.027 -0.285 -1.973 c 0 -0.754 0.016 -0.922 0.105 -1.289 c 0.563 -2.305 2.289 -3.996 4.582 -4.484 c 0.645 -0.137 1.688 -0.137 2.328 0 c 1.961 0.418 3.559 1.75 4.297 3.578 c 0.52 1.289 0.566 2.848 0.121 4.145 c -0.305 0.883 -0.793 1.66 -1.465 2.324 c -1.23 1.207 -2.875 1.805 -4.613 1.668 m 1.531 -2.285 c 0.473 -0.098 0.973 -0.344 1.496 -0.738 c 0.438 -0.332 0.863 -0.742 0.863 -0.832 c 0 -0.078 -0.168 -0.051 -0.563 0.086 c -0.945 0.336 -1.633 0.441 -2.859 0.441 c -1.078 0.004 -1.367 -0.035 -2.32 -0.313 c -0.418 -0.117 -0.801 -0.219 -0.855 -0.219 c -0.09 0 -0.098 0.016 -0.059 0.09 c 0.105 0.191 0.574 0.645 0.883 0.855 c 0.406 0.273 0.977 0.543 1.32 0.629 c 0.379 0.09 1.652 0.09 2.094 0 m 1.898 -3.988 c 0.391 -0.164 0.641 -0.551 0.637 -1 c 0 -0.328 -0.09 -0.559 -0.309 -0.813 c -0.234 -0.262 -0.453 -0.355 -0.844 -0.355 c -0.406 0 -0.691 0.129 -0.965 0.438 c -0.684 0.781 0.02 1.922 1.121 1.813 c 0.121 -0.012 0.281 -0.047 0.359 -0.078 m -5 -0.117 c 0.246 -0.125 0.32 -0.191 0.438 -0.387 c 0.453 -0.754 -0.008 -1.629 -0.906 -1.723 c -1.051 -0.109 -1.715 0.996 -1.078 1.801 c 0.391 0.492 0.961 0.605 1.547 0.309" fill="#ff4500"/></svg>