<svg xmlns="http://www.w3.org/2000/svg" viewBox="0 0 22 22"><path d="m 19.734 16.895 c 7.91 -11.11 -6.699 -22.363 -16.02 -13.313 c -8.777 8.527 -0.641 21.777 10.285 17.637 c 2.281 -0.863 4.281 -2.285 5.734 -4.324" fill="#ff8c00"/><g fill="#fff"><path d="m 3.652 6.57 h 3.336 v 2.461 h -3.336"/><path d="m 3.652 10.504 h 3.336 v 2.461 h -3.336"/><path d="m 3.652 14.438 h 11.434 v 0.984 h -11.434"/><path d="m 12.01 6.57 v 3.102 h 3.078 c 0 -1.711 -1.379 -3.102 -3.078 -3.102"/><path d="m 11.563 7.02 c -1.699 0 -3.078 1.383 -3.078 3.098 c 0 1.711 1.375 3.098 3.078 3.098 c 1.699 0 3.078 -1.387 3.078 -3.098 h -3.078"/><path d="m 232.27 922 l -20.545 -12.182 l -20.5 -12.136 l -0.227 23.955 l -0.227 24 l 20.773 -11.818" transform="matrix(0.08594 0 0 0.08594 0 -68.44)" stroke="#fff" stroke-linejoin="bevel" stroke-linecap="round" stroke-width="4.889"/></g></svg>