<svg xmlns="http://www.w3.org/2000/svg" viewBox="0 0 22 22"><path d="m 0.42 7.33 c -3.82 31.1 40.1 3.98 12 -6.46 c -4.93 -1.58 -11.22 -0.15 -12 6.46" style="fill:#eb6606"/><path d="m 12.66 5.86 c 0.09 0.03 0.18 0.07 0.24 0.15 l 5 4.96 c 0.09 0.1 0.13 0.23 0.13 0.36 c -0.01 0.14 -0.07 0.26 -0.16 0.34 l -4.82 4.33 c -0.09 0.09 -0.21 0.14 -0.32 0.15 h -7.63 c -0.14 0.01 -0.28 -0.04 -0.38 -0.13 c -0.11 -0.1 -0.16 -0.23 -0.16 -0.37 v -9.3 c 0 -0.13 0.05 -0.26 0.15 -0.35 c 0.09 -0.1 0.22 -0.15 0.36 -0.14 h 7.48 c 0.02 0 0.04 0 0.06 0 c 0.02 0 0.04 0 0.06 0 m -1.28 2.1 l -1.75 1.64 l -1.72 -1.64 l -1.43 1.38 l 1.69 1.66 l -1.69 1.72 l 1.42 1.32 l 1.72 -1.64 l 1.75 1.64 l 1.38 -1.35 l -1.69 -1.69 l 1.69 -1.66 l -1.38 -1.38" style="fill:#fff"/></svg>