<svg xmlns="http://www.w3.org/2000/svg" viewBox="0 0 22 22"><path d="m 2.266 16.828 c -7.91 -11.25 6.699 -22.652 16.02 -13.484 c 8.781 8.641 0.641 22.06 -10.285 17.863 c -2.281 -0.875 -4.281 -2.313 -5.734 -4.375" fill="#ff8c00"/><g fill="#fff"><path d="m 18.04 16.324 c -0.02 0.102 -0.055 0.203 -0.102 0.293 c -0.004 0.004 -0.004 0.008 -0.008 0.012 c -0.047 0.09 -0.105 0.168 -0.18 0.23 c -0.07 0.066 -0.152 0.117 -0.238 0.152 c -0.004 0 -0.004 0 -0.008 0 c -0.09 0.039 -0.188 0.055 -0.281 0.055 h -11.422 c -0.105 0 -0.215 -0.023 -0.316 -0.074 c -0.098 -0.043 -0.184 -0.109 -0.258 -0.191 c 0 -0.004 -0.004 -0.004 -0.004 -0.004 c -0.07 -0.082 -0.129 -0.176 -0.168 -0.281 c 0 -0.008 -0.004 -0.012 -0.008 -0.016 c -0.039 -0.109 -0.059 -0.23 -0.059 -0.348 v -10.957 c 0 -0.121 0.02 -0.242 0.063 -0.355 c 0.039 -0.109 0.098 -0.207 0.172 -0.289 l 0.004 -0.004 c 0.074 -0.078 0.16 -0.145 0.254 -0.188 c 0.004 -0.004 0.008 -0.008 0.012 -0.008 c 0.098 -0.047 0.203 -0.07 0.309 -0.07 h 9.332 c 0.105 0 0.211 0.02 0.313 0.063 h 0.004 c 0 0 0 0.004 0 0.004 c 0.102 0.043 0.191 0.109 0.27 0.191 l 2.09 2.34 c 0.078 0.086 0.137 0.188 0.172 0.301 c 0.043 0.113 0.059 0.234 0.059 0.355 v 8.617 c 0 0.027 0 0.059 0 0.086 c 0 0.027 0 0.055 0 0.086 m -0.816 -0.719 v -6.211 c 0 -0.305 -0.219 -0.547 -0.488 -0.547 h -1.594 v -0.008 c -0.191 -0.023 -0.336 -0.188 -0.355 -0.402 h -0.008 v -2.695 c 0 -0.305 -0.219 -0.547 -0.492 -0.547 h -7.992 c -0.273 0 -0.488 0.242 -0.488 0.547 v 9.863 c 0 0.301 0.215 0.547 0.488 0.547 h 6.363 c 0.027 0 0.055 -0.012 0.082 -0.02 c 0.027 0.008 0.051 0.02 0.078 0.02 h 3.918 c 0.27 0 0.488 -0.246 0.488 -0.547 m 0 -7.672 l -1.633 -1.824 v 0.91 c 0 0.914 0 0.914 0.816 0.914"/><path d="m 9.879 7.934 v 3.652 l 3.266 -1.824"/><path d="m 7.02 13.414 h 8.973 c 0.227 0 0.41 0.203 0.41 0.457 c 0 0.25 -0.184 0.457 -0.41 0.457 h -8.973 c -0.223 0 -0.406 -0.207 -0.406 -0.457 c 0 -0.254 0.184 -0.457 0.406 -0.457" fill-opacity="0.482"/><path d="m 7.02 13.414 h 4.895 c 0.227 0 0.41 0.203 0.41 0.457 c 0 0.25 -0.184 0.457 -0.41 0.457 h -4.895 c -0.223 0 -0.406 -0.207 -0.406 -0.457 c 0 -0.254 0.184 -0.457 0.406 -0.457" fill-opacity="0.969"/></g></svg>