<svg xmlns="http://www.w3.org/2000/svg" viewBox="0 0 22 22"><path d="m 0.58 10.54 c 13.1 -29.84 36.57 13.93 7.45 11.45 c -4.39 -0.58 -8.99 -5.18 -7.45 -11.45" style="fill:#ff8c00"/><g transform="scale(0.086)" style="fill:#fff;stroke:#fff"><path d="m 100.6 192.2 c -14.42 -3.04 -23.62 -15.23 -24.8 -32.55 c -1.04 -14.73 4.58 -27.7 14.78 -34.1 c 8.52 -5.35 13.6 -6.35 34.68 -6.89 l 19.95 -0.54 l -0.59 -6.35 c -0.63 -7.43 -4.49 -14.82 -9.52 -18.41 c -10.34 -7.34 -29.47 -7.1 -46.3 0.59 l -5.71 2.58 v -15.82 l 5.98 -2.31 c 28.2 -10.74 54.5 -5.21 64.83 13.74 c 5.85 10.7 6.44 15.78 6.98 58.5 l 0.5 39.3 h -16.46 l -0.05 -8.93 c -0.09 -8.7 -0.14 -8.89 -1.86 -6.26 c -3.99 5.98 -12.83 13.6 -18.22 15.46 c -6.62 2.36 -17.86 3.22 -24.2 1.9 m 21.76 -15.23 c 13 -3.58 22.53 -19.99 22.53 -38.76 v -5.89 l -18.22 0.41 c -16.82 0.36 -18.59 0.59 -24.2 3.22 c -4.99 2.36 -6.48 3.72 -8.43 7.66 c -4.49 9.34 -2.58 23.48 3.99 29.47 c 4.99 4.49 15.87 6.26 24.3 3.9" style="stroke-width:0.43"/><path d="m 181.4 215.9 c -5.67 -1.41 -6.57 -2.09 -6.94 -5.44 c -0.5 -4.4 -0.14 -4.53 6.94 -1.81 c 14.19 5.49 27.43 0.18 25 -9.88 c -0.91 -3.81 -5.12 -6.21 -16.91 -9.66 c -10.15 -2.95 -13.96 -7.12 -13.96 -15 c 0 -11.38 6.39 -16.46 20.81 -16.46 c 11.92 0 15.91 1.59 15.91 6.39 c 0 2.99 -0.5 3.49 -2.31 2.67 c -9.2 -4.08 -22.85 -3.26 -26.2 1.59 c -4.53 6.66 -0.95 10.93 12.65 15.1 c 13.83 4.22 17.82 7.98 17.82 16.77 c 0 13.83 -13.74 20.4 -32.78 15.69" style="stroke-width:0.54"/></g></svg>