<svg xmlns="http://www.w3.org/2000/svg" viewBox="0 0 22 22"><path d="m 0.254 13.449 c 1.367 8.945 13.48 11.336 18.828 4.953 c 4.711 -4.742 3.539 -13.816 -2.238 -16.93 c -6.633 -4.16 -16.301 0.984 -16.828 9.273 c -0.055 0.906 0.023 1.824 0.238 2.707" fill="#ff8c00"/><g fill="#fff"><path d="m 10.727 4.863 v 5.688 h -5.863 v 0.711 h 5.863 v 5.688 h 0.734 v -5.688 h 5.863 v -0.711 h -5.863 v -5.688" fill-opacity="0.102"/><path d="m 5.598 5.574 v 4.977 h 5.129 v -4.977 m 0.734 0 v 4.977 h 5.129 v -4.977 m -10.992 5.687 v 4.977 h 5.129 v -4.977 m 0.734 0 v 4.977 h 5.129 v -4.977" fill-opacity="0.502"/><path d="m 4.863 4.863 v 12.09 h 12.461 v -12.09 m -10.996 1.422 h 9.531 v 9.242 h -9.531"/></g></svg>