<svg xmlns="http://www.w3.org/2000/svg" viewBox="0 0 22 22"><path d="m 19.742 17.293 c 7.879 -10.805 -6.668 -22.895 -15.949 -14.238 c -8.742 8.16 -0.637 21.934 10.242 18.309 c 2.27 -0.758 4.262 -2.086 5.707 -4.07" fill="#ff8c00"/><g fill="#fff" stroke="#fff" stroke-width="0.844" transform="scale(0.08594)"><path d="m 106.73 173.05 c -1.636 -2.5 -1.818 -6.955 -1.773 -42.727 c 0.045 -35.27 0.227 -40.27 1.818 -42.682 c 2.227 -3.409 6.864 -3.636 10.182 -0.545 c 2.364 2.227 2.364 2.455 2.364 43.14 v 40.955 l -2.5 2.318 c -3.455 3.273 -7.818 3.091 -10.09 -0.455"/><path d="m 137.59 174.09 c -2.091 -2.545 -2.682 -81.909 -0.636 -85.955 c 1.773 -3.409 7.591 -4.273 10.636 -1.545 c 1.955 1.818 2.091 3.955 2.091 43.909 v 42 l -2.409 1.682 c -3.182 2.182 -7.773 2.136 -9.682 -0.091"/></g></svg>