<svg xmlns="http://www.w3.org/2000/svg" viewBox="0 0 22 22"><path d="m 3.922 16.82 c -1.324 -1.063 -2.91 -3.273 -3.375 -4.703 c -0.676 -2.066 -0.496 -4.645 0.438 -6.387 c 1.25 -2.324 4.379 -4.375 7.801 -5.117 c 2.457 -0.531 5.91 -0.539 7.797 -0.02 c 1.602 0.441 2.879 1.332 3.766 2.625 c 1.199 1.75 1.664 3.621 1.406 5.641 c -0.211 4.234 -2.133 7.492 -3.918 10.148 c -4.684 6.09 -9.855 1.133 -13.914 -2.188" fill="#ff8c00"/><g fill="#fff"><path d="m 5.758 4.867 l -3.707 5.793 h 11.12 l 3.703 -5.793" fill-opacity="0.6"/><path d="m 13.168 11.629 v 1.926 h -1.852 v 1.93 h 1.852 v 1.93 h 1.852 v -1.93 h 1.852 v -1.93 h -1.852 v -1.926"/></g></svg>