<svg xmlns="http://www.w3.org/2000/svg" xmlns:xlink="http://www.w3.org/1999/xlink" viewBox="0 0 22 22"><defs><g id="3" clip-path="url(#2)"><path d="m 10.05 5.613 c -0.125 0.008 -0.238 0.066 -0.309 0.16 c -0.074 0.094 -0.094 0.207 -0.059 0.316 l 0.359 1.145 c -0.359 0.086 -0.707 0.199 -1.039 0.344 l -0.855 -1.316 c -0.074 -0.117 -0.211 -0.188 -0.363 -0.191 c -0.152 0 -0.293 0.074 -0.367 0.191 c -0.074 0.117 -0.074 0.258 0.004 0.375 l 0.852 1.309 c -0.281 0.16 -0.555 0.336 -0.816 0.523 l -1.051 -0.934 c -0.164 -0.145 -0.43 -0.145 -0.59 0 c -0.164 0.145 -0.164 0.379 -0.004 0.523 l 1.023 0.91 c -0.227 0.188 -0.449 0.387 -0.664 0.59 l -0.602 -0.535 c -0.164 -0.148 -0.43 -0.148 -0.594 0 c -0.164 0.145 -0.164 0.379 0 0.523 l 0.641 0.566 c -0.742 0.801 -1.18 1.449 -1.18 1.449 c 0 0 0.73 1.078 1.902 2.176 l 0.93 -0.824 c -0.75 -0.695 -1.16 -1.352 -1.16 -1.352 c 0 0 1.789 -2.977 5.03 -2.977 c 0.316 0 0.617 0.035 0.906 0.09 l 1.227 -1.094 c -0.211 -0.094 -0.43 -0.176 -0.656 -0.246 l 0.48 -1.223 c 0.059 -0.129 0.031 -0.273 -0.066 -0.379 c -0.102 -0.105 -0.258 -0.152 -0.406 -0.125 c -0.152 0.027 -0.273 0.125 -0.32 0.258 l -0.5 1.281 c -0.219 -0.031 -0.441 -0.047 -0.664 -0.051 c -0.09 0 -0.176 0.016 -0.262 0.02 l -0.383 -1.227 c -0.051 -0.176 -0.238 -0.293 -0.441 -0.277 m 6.937 3.297 c -0.105 0.004 -0.211 0.043 -0.285 0.109 l -0.605 0.539 c -0.051 -0.051 -0.109 -0.098 -0.16 -0.148 l -0.918 0.816 c 0.438 0.406 0.82 0.852 1.141 1.336 c 0 0 -1.785 2.977 -5.02 2.977 c -0.309 0 -0.602 -0.035 -0.879 -0.086 l -1.242 1.102 c 0.668 0.285 1.379 0.473 2.121 0.473 c 3.699 0 6.699 -4.465 6.699 -4.465 c 0 0 -0.441 -0.648 -1.18 -1.449 l 0.641 -0.566 c 0.121 -0.105 0.16 -0.27 0.09 -0.41 c -0.066 -0.141 -0.223 -0.23 -0.398 -0.227 m -5.852 0.422 c -1.387 0 -2.512 0.996 -2.512 2.23 c 0 0.047 0.012 0.09 0.012 0.133 l 1.543 -1.367 c 0.055 -0.172 0.207 -0.309 0.402 -0.355 l 0.707 -0.625 c -0.055 0 -0.102 -0.016 -0.152 -0.016 m 2.5 2.121 l -2.625 2.328 c 0.043 0.004 0.082 0.012 0.125 0.012 c 1.387 0 2.512 -1 2.512 -2.23 c 0 -0.035 -0.012 -0.07 -0.012 -0.109" fill="#fff"/><path d="m 16.184 6.375 v 0.004 c -0.02 0 -0.035 0 -0.051 0 c -0.219 0.004 -0.426 0.086 -0.578 0.223 l -10.01 8.895 c -0.207 0.176 -0.297 0.434 -0.238 0.684 v 0.59 h 0.742 c 0.254 0.02 0.504 -0.063 0.68 -0.223 l 10.02 -8.891 c 0.16 -0.141 0.254 -0.336 0.25 -0.535 v -0.746" fill="#fff"/></g><clipPath id="2"><path d="M 0,0 H22 V22 H0 z"/></clipPath><filter id="0" filterUnits="objectBoundingBox" x="0" y="0" width="22" height="22"><feColorMatrix type="matrix" in="SourceGraphic" values="0 0 0 0 1 0 0 0 0 1 0 0 0 0 1 0 0 0 1 0"/></filter><mask id="1"><g filter="url(#0)"><path fill-opacity="0.502" d="M 0,0 H22 V22 H0 z"/></g></mask></defs><path d="m 3.32 4.129 c -13.727 19.508 21.973 25.719 18.43 4.988 c -1.875 -8.246 -12.93 -12.805 -18.43 -4.988" fill="#e62969"/><use xlink:href="#3" mask="url(#1)"/></svg>