<svg xmlns="http://www.w3.org/2000/svg" viewBox="0 0 22 22"><g fill="#fff"><path d="M 14.550781 7.847656 C 14.550781 8.90625 13.695312 9.757812 12.640625 9.757812 C 11.585938 9.757812 10.730469 8.902344 10.730469 7.847656 C 10.730469 6.792969 11.585938 5.941406 12.640625 5.941406 C 13.695312 5.941406 14.550781 6.796875 14.550781 7.847656 Z M 14.550781 7.847656 "/><path d="M 14.777344 14.558594 C 14.777344 15.613281 13.921875 16.464844 12.867188 16.464844 C 11.8125 16.464844 10.960938 15.613281 10.960938 14.558594 C 10.960938 13.503906 11.8125 12.648438 12.867188 12.648438 C 13.921875 12.648438 14.777344 13.503906 14.777344 14.558594 Z M 14.777344 14.558594 "/><path d="M 7.453125 10.886719 C 7.453125 11.941406 6.601562 12.796875 5.546875 12.796875 C 4.492188 12.796875 3.636719 11.941406 3.636719 10.886719 C 3.636719 9.832031 4.492188 8.980469 5.546875 8.980469 C 6.601562 8.980469 7.453125 9.832031 7.453125 10.886719 Z M 7.453125 10.886719 "/></g><path d="M 16.664062 2.734375 C 36.144531 20.84375 -4.066406 32.253906 0.367188 8.210938 C 2.554688 1.867188 10.40625 -3.082031 16.664062 2.734375 Z M 16.664062 2.734375 " fill="#ff8c00"/><g stroke-linejoin="round"><path d="M 20.432052 19.110802 C 19.620647 19.110802 18.989554 19.769946 18.989554 20.56092 L 18.989554 54.06431 C 18.989554 54.855284 19.620647 55.495596 20.432052 55.495596 L 54.186493 55.495596 C 54.979866 55.495596 55.62899 54.855284 55.62899 54.06431 L 55.62899 20.56092 C 55.62899 19.769946 54.979866 19.110802 54.186493 19.110802 Z M 20.432052 19.110802 " transform="matrix(0.217 0 0 0.207 0.77 1.12)" fill="none" stroke="#fff" stroke-width="8.43"/><g stroke="#ff8c00"><path d="M 40.874426 1.16944 C 39.750688 1.16944 38.876669 2.056224 38.876669 3.151664 L 38.876669 49.525281 C 38.876669 50.646803 39.750688 51.533587 40.874426 51.533587 L 87.621925 51.533587 C 88.720691 51.533587 89.619682 50.646803 89.619682 49.525281 L 89.619682 3.151664 C 89.619682 2.056224 88.720691 1.16944 87.621925 1.16944 Z M 40.874426 1.16944 " transform="matrix(0.156 0 0 0.15 -1.2 4.91)" fill="#fff" fill-rule="evenodd" stroke-width="3.89"/><g stroke-dasharray="2.5 2.5" fill="none" stroke-linecap="round" stroke-width="2.5" transform="matrix(0.244 0 0 0.232 4 4.07)"><path d="M 22.705111 4.449491 C 25.024065 5.139152 27.295041 11.278816 27.151106 12.086224 "/><path d="M 13.861098 5.004584 C 10.726512 7.527734 9.239182 16.930672 9.718966 17.468944 "/></g></g></g><g fill="#fff" fill-rule="evenodd"><path d="M 5.9375 7.394531 L 11.371094 6.917969 C 11.5 6.90625 11.613281 6.996094 11.625 7.117188 L 11.976562 10.753906 C 11.988281 10.875 11.894531 10.984375 11.765625 10.996094 L 6.328125 11.476562 C 6.199219 11.484375 6.085938 11.394531 6.074219 11.273438 L 5.726562 7.636719 C 5.714844 7.515625 5.808594 7.40625 5.9375 7.394531 Z M 5.9375 7.394531 "/><g stroke="#ff8c00" stroke-linejoin="round" stroke-linecap="round" stroke-width="1.88" transform="matrix(0.244 0 0 0.232 4 4.07)"><path d="M 16.915721 25.997191 C 15.092543 27.225124 14.21294 29.395033 13.653192 31.615405 L 27.454969 30.236083 C 26.527387 28.234384 25.359914 26.283148 23.472764 25.341172 C 21.585615 25.442098 19.218683 25.761697 16.915721 25.997191 Z M 16.915721 25.997191 "/><path d="M 25.247964 20.849965 C 25.551827 24.079597 23.200887 26.955988 20.002329 27.275587 C 16.787779 27.595186 13.925069 25.223425 13.605214 21.993793 C 13.301351 18.764161 15.636298 15.88777 18.850848 15.568171 C 22.065399 15.248572 24.928108 17.620333 25.247964 20.849965 Z M 25.247964 20.849965 "/></g></g><g stroke-linejoin="round"><g fill="none"><path d="M 7.783838 14.323417 C 7.256076 14.37388 6.872249 14.844868 6.920228 15.366319 L 8.343586 31.02667 C 8.391564 31.548121 8.855355 31.935004 9.383117 31.901362 L 31.64508 29.832379 C 32.172842 29.781916 32.556669 29.310928 32.50869 28.789477 L 31.069339 13.129126 C 31.021361 12.607675 30.55757 12.220792 30.029808 12.271255 Z M 7.783838 14.323417 " transform="matrix(0.244 0 0 0.232 4 4.07)" stroke="#ff8c00" stroke-width="1.88"/><path d="M 5.827265 4.497707 C 5.012434 4.497707 4.378676 5.140653 4.378676 5.953792 L 4.378676 39.595034 C 4.378676 40.389262 5.030541 41.032209 5.827265 41.032209 L 39.724257 41.032209 C 40.539089 41.032209 41.172847 40.389262 41.172847 39.595034 L 41.172847 5.953792 C 41.172847 5.140653 40.520982 4.497707 39.724257 4.497707 Z M 5.827265 4.497707 " transform="matrix(0.216 0 0 0.207 8.52 8.51)" stroke="#fff" stroke-width="8.46"/></g><g stroke="#ff8c00"><g transform="matrix(0.216 0 0 0.207 8.52 8.51)"><path d="M 5.827265 4.497707 C 5.012434 4.497707 4.378676 5.140653 4.378676 5.953792 L 4.378676 39.595034 C 4.378676 40.389262 5.030541 41.032209 5.827265 41.032209 L 39.724257 41.032209 C 40.539089 41.032209 41.172847 40.389262 41.172847 39.595034 L 41.172847 5.953792 C 41.172847 5.140653 40.520982 4.497707 39.724257 4.497707 Z M 5.827265 4.497707 " fill="#fff" fill-rule="evenodd" stroke-width="2.82"/><path d="M 10.317892 11.834863 L 35.269845 11.834863 " fill="none" stroke-linecap="round" stroke-width="3.53"/></g><g fill="none" stroke-linecap="round" stroke-width="3.99" transform="matrix(0.18 0 0 0.193 9.38 8.81)"><path d="M 7.545368 18.929157 L 37.461455 18.929157 "/><path d="M 7.545368 26.746301 L 37.461455 26.746301 "/><path d="M 7.50198 34.563445 L 24.07623 34.563445 "/></g></g><g stroke-linecap="round"><path d="M 23.148839 31.021411 C 25.81012 7.498704 46.221414 9.090852 47.539846 9.219251 L 47.539846 2.182983 L 57.818739 12.352188 L 47.539846 22.521394 L 47.539846 15.562165 C 46.001675 15.382406 31.57216 13.944337 23.148839 31.021411 Z M 23.148839 31.021411 " transform="matrix(0.16 0 0 -0.152 1.25 17.25)" fill="none" stroke="#fff" stroke-width="12.4"/><path d="M 26.21721 28.889132 C 28.450983 9.166667 45.583406 10.481498 46.690046 10.589271 L 46.690046 4.683309 L 55.317737 13.218933 L 46.690046 21.754557 L 46.690046 15.913259 C 45.378472 15.762376 33.287408 14.555318 26.21721 28.889132 Z M 26.21721 28.889132 " transform="matrix(0.191 0 0 -0.181 -0.04 17.76)" fill="#ff8c00" fill-rule="evenodd" stroke="#ff8c00" stroke-width="4"/></g></g></svg>