<svg xmlns="http://www.w3.org/2000/svg" viewBox="0 0 22 22"><path d="m 14.609 0.961 c -11.04 -4.27 -16.707 7.695 -13.895 15.14 c 1.965 5.199 9.797 7.789 16.13 4.098 c 7.984 -4.66 6.285 -15.949 -2.23 -19.242" fill="#ff8c00"/><g fill="#fff"><path d="m 6.387 5.457 c -0.672 0 -1.207 0.547 -1.207 1.227 v 9 c 0 0.68 0.535 1.227 1.207 1.227 h 8.855 c 0.668 0 1.207 -0.547 1.207 -1.227 v -9 c 0 -0.68 -0.539 -1.227 -1.207 -1.227 m -8.855 0.82 h 8.855 c 0.234 0 0.402 0.168 0.402 0.406 v 9 c 0 0.242 -0.168 0.41 -0.402 0.41 h -8.855 c -0.238 0 -0.402 -0.168 -0.402 -0.41 v -9 c 0 -0.238 0.164 -0.406 0.402 -0.406"/><path d="m 6.184 6.277 c -0.117 0 -0.199 0.168 -0.199 0.406 v 9 c 0 0.242 0.082 0.41 0.199 0.41 h 4.414 c 0.117 0 0.199 -0.168 0.199 -0.41 v -9 c 0 -0.238 -0.082 -0.406 -0.199 -0.406" fill-opacity="0.502"/></g></svg>