<svg xmlns="http://www.w3.org/2000/svg" viewBox="0 0 22 22"><path d="m 2.293 5.137 c -7.258 8.188 4.191 20.781 13.773 15.688 c 9.688 -5.148 7.105 -22.19 -4.793 -20.738 c -3.539 0.434 -6.613 2.383 -8.98 5.05" fill="#ff8c00"/><g fill="#fff"><path d="m 4.863 4.891 v 12.535 h 12.727 v -12.535 m -11.82 0.895 h 10.91 v 10.746 h -10.91"/><g fill-opacity="0.196"><path d="m 6.68 6.684 h 9.09 v 8.953 h -9.09"/><path d="m 7.59 7.578 h 7.27 v 7.16 h -7.27"/><path d="m 8.5 8.473 h 5.453 v 5.371 h -5.453"/><path d="m 9.406 9.367 h 3.637 v 3.582 h -3.637"/><path d="m 10.316 10.262 h 1.816 v 1.793 h -1.816"/></g><g stroke-opacity="0.149" stroke="#efefef" stroke-linecap="round" transform="matrix(0.90899 0 0 0.89528 3.953 3.996)"><path d="m 3.502 3.499 l 8.999 9"/><path d="m 3.502 12.5 l 8.999 -9"/></g></g></svg>