<svg xmlns="http://www.w3.org/2000/svg" viewBox="0 0 22 22"><g style="fill:#ff8c00"><path d="M 5.34375 1.847656 C -14.023438 18.269531 25.792969 34.0625 21.703125 8.660156 C 20.804688 3.09375 10.5625 -2.578125 5.34375 1.847656 Z M 5.34375 1.847656 "/><g style="stroke:#fff"><g style="stroke-linejoin:round"><g style="fill-rule:evenodd"><path d="M 21.041859 10.655421 C 20.299112 11.000964 19.704914 11.938869 19.704914 12.745137 L 19.704914 36.834469 C 19.704914 37.657192 20.299112 38.035645 21.041859 37.690101 L 33.4705 31.848767 C 34.213247 31.503224 34.807445 30.565319 34.807445 29.742596 L 34.807445 5.669719 C 34.807445 4.846996 34.213247 4.468543 33.4705 4.814087 Z M 21.041859 10.655421 " transform="matrix(0.237 0 0 0.237 3.91 5.17)" style="stroke-width:3.13"/><path d="M -25.796576 13.719145 C -24.780239 14.191969 -23.967169 15.475349 -23.967169 16.578605 L -23.967169 49.541205 C -23.967169 50.666977 -24.780239 51.184832 -25.796576 50.712008 L -42.803288 42.719028 C -43.819625 42.246204 -44.632695 40.962824 -44.632695 39.859567 L -44.632695 6.896967 C -44.632695 5.771195 -43.819625 5.25334 -42.803288 5.726164 Z M -25.796576 13.719145 " transform="matrix(0.173 0 0 0.173 12.74 5.32)" style="stroke-width:4.28"/></g><g style="stroke-linecap:round"><g style="stroke-width:3.59"><g transform="matrix(-0.124 -0.057 0 0.124 2.74 0.24)"><path d="M -40.088899 48.297194 L -25.723991 48.29789 "/><path d="M -40.088899 53.301496 L -25.723991 53.302193 "/><path d="M -40.088899 58.305799 L -34.469221 58.298601 "/></g><g transform="matrix(-0.124 -0.057 0 0.124 2.74 2.26)"><path d="M -40.088899 48.29079 L -25.723991 48.291487 "/><path d="M -40.088899 53.295093 L -25.723991 53.295789 "/><path d="M -40.088899 58.299396 L -34.469221 58.292197 "/></g></g><path d="M 25.289457 25.54517 L 25.289457 14.856486 C 25.289457 13.350166 25.713067 12.132729 26.517927 11.204175 C 27.343967 10.234353 28.508895 9.759759 30.033892 9.759759 C 31.558889 9.759759 32.723817 10.234353 33.549857 11.204175 C 34.375897 12.132729 34.799508 13.350166 34.799508 14.856486 L 34.799508 25.54517 L 45.368584 25.54517 C 46.914761 25.54517 48.122051 25.978495 49.011632 26.82451 C 49.922394 27.629257 50.388366 28.78479 50.388366 30.29111 C 50.388366 31.818065 49.922394 32.994233 49.011632 33.840248 C 48.122051 34.686264 46.914761 35.098954 45.368584 35.098954 L 34.799508 35.098954 L 34.799508 45.767003 C 34.799508 47.293958 34.375897 48.511395 33.549857 49.460583 C 32.702637 50.389137 31.537709 50.863731 30.033892 50.863731 C 28.530076 50.863731 27.365147 50.389137 26.517927 49.460583 C 25.713067 48.511395 25.289457 47.293958 25.289457 45.767003 L 25.289457 35.098954 L 14.741561 35.098954 C 13.237745 35.098954 12.030456 34.644995 11.077332 33.737076 C 10.16657 32.787888 9.72178 31.652989 9.72178 30.29111 C 9.72178 28.78479 10.16657 27.629257 11.056152 26.82451 C 11.966914 25.978495 13.195384 25.54517 14.741561 25.54517 Z M 25.289457 25.54517 " transform="matrix(0.184 0 0 0.189 8.38 8.99)" style="stroke-width:5.69"/></g></g><path d="M 25.289457 25.54517 L 25.289457 14.856486 C 25.289457 13.350166 25.713067 12.132729 26.517927 11.204175 C 27.343967 10.234353 28.508895 9.759759 30.033892 9.759759 C 31.558889 9.759759 32.723817 10.234353 33.549857 11.204175 C 34.375897 12.132729 34.799508 13.350166 34.799508 14.856486 L 34.799508 25.54517 L 45.368584 25.54517 C 46.914761 25.54517 48.122051 25.978495 49.011632 26.82451 C 49.922394 27.629257 50.388366 28.78479 50.388366 30.29111 C 50.388366 31.818065 49.922394 32.994233 49.011632 33.840248 C 48.122051 34.686264 46.914761 35.098954 45.368584 35.098954 L 34.799508 35.098954 L 34.799508 45.767003 C 34.799508 47.293958 34.375897 48.511395 33.549857 49.460583 C 32.702637 50.389137 31.537709 50.863731 30.033892 50.863731 C 28.530076 50.863731 27.365147 50.389137 26.517927 49.460583 C 25.713067 48.511395 25.289457 47.293958 25.289457 45.767003 L 25.289457 35.098954 L 14.741561 35.098954 C 13.237745 35.098954 12.030456 34.644995 11.077332 33.737076 C 10.16657 32.787888 9.72178 31.652989 9.72178 30.29111 C 9.72178 28.78479 10.16657 27.629257 11.056152 26.82451 C 11.966914 25.978495 13.195384 25.54517 14.741561 25.54517 Z M 25.289457 25.54517 " transform="matrix(0.184 0 0 0.189 8.38 8.99)"/><g style="stroke-linecap:round;stroke-linejoin:round;stroke-width:3.59"><g transform="matrix(0.124 -0.057 0 0.124 14.44 0.24)"><path d="M -40.076265 48.30298 L -25.711358 48.303676 "/><path d="M -40.076265 53.307282 L -25.711358 53.307979 "/><path d="M -40.076265 58.311585 L -34.456587 58.304387 "/></g><g transform="matrix(0.124 -0.057 0 0.124 14.44 2.26)"><path d="M -40.076265 48.296576 L -25.711358 48.297273 "/><path d="M -40.076265 53.300879 L -25.711358 53.301575 "/><path d="M -40.076265 58.305181 L -34.456587 58.297983 "/></g></g></g></g></svg>