<svg xmlns="http://www.w3.org/2000/svg" viewBox="0 0 22 22"><path d="m 0.402 7.34 c -3.82 31.12 40.11 3.984 12 -6.473 c -4.938 -1.586 -11.219 -0.148 -12 6.473" fill="#ff8c00"/><g fill="#fff"><path d="m 6.629 8.262 c 0.84 0 1.52 -0.664 1.52 -1.484 c 0 -0.82 -0.68 -1.484 -1.52 -1.484 c -0.836 0 -1.516 0.664 -1.516 1.484 c 0 0.82 0.68 1.484 1.516 1.484"/><path d="m 6.629 13.172 c 0.84 0 1.52 -0.664 1.52 -1.484 c 0 -0.816 -0.68 -1.484 -1.52 -1.484 c -0.836 0 -1.516 0.668 -1.516 1.484 c 0 0.82 0.68 1.484 1.516 1.484"/><path d="m 6.629 18.08 c 0.84 0 1.52 -0.664 1.52 -1.484 c 0 -0.816 -0.68 -1.48 -1.52 -1.48 c -0.836 0 -1.516 0.664 -1.516 1.48 c 0 0.82 0.68 1.484 1.516 1.484"/><path d="m 17.1 13.938 l -7.305 -2.469 l 7.305 -2.473"/></g></svg>