<svg xmlns="http://www.w3.org/2000/svg" viewBox="0 0 22 22"><path d="m 2.789 16.383 c -7.781 -8.789 3.734 -18.09 10.484 -15.809 c 6.746 2.289 11.277 8.742 6.871 14.402 c -4.406 5.66 -8.734 11.12 -16.516 2.328" fill="#ff8c00"/><path d="m 7.641 4.773 l -2.859 7.941 h 1.43 l 0.605 -1.703 h 2.789 l 0.609 1.703 h 1.59 l -3.02 -7.941 m -0.574 2.27 l 1 2.836 h -2 m 6.133 -2.125 v 0.992 h 2.504 c 0.215 0 0.5 0.305 0.5 0.496 v 0.496 h -2.504 c -0.457 0 -0.867 0.191 -1.125 0.48 c -0.258 0.289 -0.379 0.648 -0.375 1.01 c 0.004 0.355 0.137 0.723 0.391 1.01 c 0.262 0.285 0.66 0.48 1.109 0.48 h 3.504 v -0.418 c 0.008 -0.047 0 -0.078 0 -0.078 v -2.977 c 0 -0.813 -0.66 -1.488 -1.5 -1.488 m -2 2.977 h 2.504 v 0.992 h -2.504 c -0.199 0 -0.281 -0.055 -0.359 -0.141 c -0.074 -0.086 -0.137 -0.219 -0.141 -0.355 c 0 -0.141 0.055 -0.273 0.125 -0.355 c 0.082 -0.082 0.172 -0.141 0.375 -0.141 m -5.504 3.965 l 3 3.969 l 3 -3.969" fill="#fff"/></svg>