<svg xmlns="http://www.w3.org/2000/svg" viewBox="0 0 16 16"><path d="m 3.762 1.648 c 8.184 -5.754 16.473 4.871 9.805 11.648 c -6.281 6.387 -16.04 0.469 -12.988 -7.48 c 0.633 -1.656 1.68 -3.113 3.184 -4.168" fill="#2d9900"/><g fill="#fff"><path d="m 5.891 9 h -0.883 v 0.98 c 0 0.176 -0.141 0.32 -0.32 0.32 c -0.18 0 -0.324 -0.145 -0.324 -0.32 v -3.582 c 0 -0.176 0.145 -0.32 0.324 -0.32 c 0.18 0 0.32 0.145 0.32 0.32 v 0.98 h 0.883"/><path d="m 11.07 12.348 c 0 0.152 -0.121 0.273 -0.273 0.273 h -4.961 c -0.152 0 -0.273 -0.121 -0.273 -0.273 v -8.316 c 0 -0.152 0.121 -0.273 0.273 -0.273 h 4.961 c 0.152 0 0.273 0.121 0.273 0.273 m -0.723 7.785 v -7.254 h -4.063 v 7.254"/></g></svg>