<svg xmlns="http://www.w3.org/2000/svg" viewBox="0 0 16 16"><path d="m 0.184 9.781 c 0.992 6.504 9.805 8.246 13.695 3.602 c 3.426 -3.445 2.574 -10.05 -1.629 -12.313 c -4.824 -3.03 -11.855 0.719 -12.238 6.742 c -0.039 0.664 0.016 1.328 0.172 1.969" fill="#ff8c00"/><path d="m 14.246 8.504 c 0 3.098 -2.574 5.609 -5.754 5.609 c -3.176 0 -5.75 -2.512 -5.75 -5.609 c 0 -3.098 2.574 -5.605 5.75 -5.605 c 3.18 0 5.754 2.508 5.754 5.605" fill-opacity="0.102"/><path d="m 13.863 8.133 c 0 3.094 -2.574 5.605 -5.754 5.605 c -3.176 0 -5.754 -2.512 -5.754 -5.605 c 0 -3.098 2.578 -5.609 5.754 -5.609 c 3.18 0 5.754 2.512 5.754 5.609" fill="#ff9b12"/><path d="m 13.1 8.133 c 0 2.684 -2.234 4.859 -4.988 4.859 c -2.754 0 -4.984 -2.176 -4.984 -4.859 c 0 -2.687 2.23 -4.863 4.984 -4.863 c 2.754 0 4.988 2.176 4.988 4.863" fill="#f9f9f9"/><path d="m 8.109 8.133 v 4.484 c 1.223 0 2.391 -0.473 3.254 -1.316" fill="#b1dfd6"/><path d="m 8.109 3.645 v 4.488 l 3.254 -3.172" fill="#fcef00"/><path d="m 11.363 4.961 l -3.254 3.172 h 4.605" fill="#b1db1c"/><path d="m 8.109 8.133 l 3.254 3.168 c 0.863 -0.84 1.348 -1.98 1.352 -3.168" fill="#63ac28"/><path d="m 8.879 5.516 c -1.918 0 -3.453 2.242 -3.453 2.242 h 3.453 c 0 0 1.531 0 1.531 -1.121 c 0 -0.75 -0.609 -1.121 -1.531 -1.121 m -1.855 2.598 c -0.277 0 -0.449 0.02 -0.449 0.02 l 2.191 2.602 c 0 0 0.973 1.156 1.863 0.441 c 0.594 -0.473 0.5 -1.172 -0.082 -1.867 c -0.914 -1.082 -2.691 -1.203 -3.523 -1.195" fill-opacity="0.102"/><path d="m 5.04 7.383 c 0 0 1.531 -2.242 3.449 -2.242 c 0.922 0 1.535 0.375 1.535 1.121 c 0 1.121 -1.535 1.121 -1.535 1.121" fill="#fcb313"/><path d="m 6.191 7.758 c 0 0 2.754 -0.266 3.969 1.18 c 0.586 0.691 0.676 1.391 0.086 1.867 c -0.891 0.711 -1.863 -0.445 -1.863 -0.445" fill="#fa9000"/></svg>