<svg xmlns="http://www.w3.org/2000/svg" viewBox="0 0 16 16"><path d="m 14.535 11.84 c 8.336 -20.313 -26.723 -10.77 -9.699 2.492 c 3.055 2.313 8.184 2.492 9.699 -2.492" fill="#acd7e5"/><path d="m 10.902 12.727 c -0.039 -0.039 -0.23 -0.293 -0.43 -0.559 c -0.199 -0.266 -0.543 -0.723 -0.766 -1.016 c -0.582 -0.762 -0.918 -1.215 -0.988 -1.324 l -0.059 -0.094 l 0.047 -0.07 c 0.027 -0.039 0.254 -0.277 0.5 -0.531 l 0.449 -0.457 h 2.691 l 0.207 0.191 c 0.34 0.309 0.785 0.766 0.801 0.82 c 0.027 0.082 0.066 0.023 -1.672 2.34 c -0.621 0.824 -0.645 0.844 -0.781 0.699" fill="#fff"/><path d="m 10.207 12.184 c -0.285 -0.375 -0.586 -0.781 -0.668 -0.902 l -0.152 -0.215 h -2.352 c -2.563 -0.004 -2.77 -0.031 -2.953 -0.434 c -0.059 -0.129 -0.086 -1.086 -0.086 -3.062 c 0 -3.188 0.004 -3.219 0.473 -3.418 c 0.199 -0.082 0.816 -0.102 2.996 -0.102 c 2.434 0.004 2.777 0.02 2.988 0.133 c 0.449 0.238 0.477 0.391 0.477 2.504 v 1.902 h 1.625 l 0.395 0.445 c 0.676 0.766 0.766 0.598 -0.117 1.711 c -1.66 2.09 -1.625 2.117 -1.871 2.117 c -0.477 -0.195 -0.52 -0.375 -0.754 -0.68 m 1.055 0.242 c 0.109 -0.156 0.605 -0.809 1.102 -1.445 c 0.492 -0.633 0.898 -1.195 0.902 -1.242 c 0 -0.047 -0.227 -0.293 -0.5 -0.543 l -0.5 -0.457 h -2.641 l -0.477 0.477 c -0.262 0.262 -0.477 0.504 -0.477 0.543 c 0 0.039 0.41 0.59 0.914 1.23 c 0.5 0.641 0.992 1.289 1.098 1.445 c 0.105 0.156 0.234 0.281 0.285 0.281 c 0.051 0 0.184 -0.129 0.293 -0.289"/><path d="m 4.613 10.453 c -0.277 -0.305 -0.297 -0.52 -0.297 -2.816 c 0.008 -3.445 -0.195 -3.238 3.141 -3.238 c 2.203 0 2.605 0.039 2.816 0.25 c 0.199 0.207 0.246 0.594 0.262 2.102 l 0.059 1.684 l -0.82 0.023 c -0.418 0.012 -0.547 0.363 -0.863 0.703 l -0.535 0.566 c 0.152 0.301 0.559 0.801 0.781 0.957 c 0 0.051 -0.953 0.098 -2.121 0.098 c -1.992 0 -2.141 -0.02 -2.422 -0.328" fill="#f00"/><path d="m 7.598 7.371 v -1.262 h 0.73 v 2.523 h -0.73"/><path d="m 8.949 6.977 v -1.262 h 0.73 v 2.527 h -0.73"/><g fill="#00bfff"><path d="m 11.09 11.922 v -0.348 l 0.422 -0.855 l 0.418 -0.855 h 1.01 l -0.043 0.074 c -0.023 0.039 -0.117 0.16 -0.211 0.266 c -0.094 0.105 -0.188 0.227 -0.207 0.262 c -0.043 0.086 -0.281 0.41 -0.5 0.684 c -0.09 0.109 -0.191 0.246 -0.23 0.301 c -0.039 0.055 -0.082 0.105 -0.094 0.113 c -0.016 0.012 -0.137 0.164 -0.27 0.348 c -0.137 0.18 -0.258 0.336 -0.27 0.344 c -0.016 0.012 -0.023 -0.098 -0.023 -0.332"/><path d="m 11.59 9.277 l -0.289 -0.441 l 0.18 -0.027 c 0.207 -0.035 0.844 0 0.879 0.047 c 0.012 0.02 -0.008 0.09 -0.051 0.176 c -0.121 0.234 -0.391 0.684 -0.41 0.684 c -0.012 0 -0.148 -0.195 -0.309 -0.438"/><path d="m 10.648 11.797 c -0.34 -0.891 -0.594 -1.602 -0.621 -1.715 c -0.023 -0.102 -0.004 -0.117 0.145 -0.148 c 0.094 -0.02 0.301 -0.02 0.461 0 l 0.289 0.035 v 1.141 c 0 0.68 -0.016 1.148 -0.043 1.168 c -0.02 0.02 -0.125 -0.199 -0.23 -0.48"/><path d="m 9.05 9.703 c -0.066 -0.035 -0.031 -0.086 0.281 -0.453 c 0.195 -0.227 0.375 -0.414 0.398 -0.414 c 0.023 -0.004 0.191 0.188 0.371 0.418 c 0.32 0.402 0.328 0.422 0.242 0.449 c -0.133 0.047 -1.199 0.043 -1.293 0"/><path d="m 10.469 9.652 c 0.012 -0.023 0.145 -0.227 0.297 -0.445 c 0.176 -0.246 0.301 -0.398 0.332 -0.398 c 0.047 0 0.051 0.023 0.039 0.406 c -0.004 0.223 -0.016 0.418 -0.031 0.434 c -0.012 0.016 -0.164 0.031 -0.34 0.039 c -0.266 0.012 -0.316 0.004 -0.297 -0.035"/></g></svg>