<svg xmlns="http://www.w3.org/2000/svg" viewBox="0 0 16 16"><path d="m 4.574 15.941 c 23.01 1.59 5.762 -29.11 -4.01 -8.895 c -1.348 3.113 -0.363 7.758 4.01 8.895" fill="#8f70d6"/><g fill="#fff" stroke="#fff"><path d="m 263.35 106.12 c -9.325 -4.242 -10.738 -7.365 -9.947 -21.565 l 0.509 -10.252 l 6.16 -5.539 c 4.917 -4.419 6.33 -6.422 6.839 -9.84 c 3.052 -19.857 6.726 -28.11 17.351 -38.594 c 12.434 -12.315 24.529 -17.264 42.28 -17.264 c 17.294 0 28.654 4.36 41.14 15.909 c 9.834 9.02 16.05 20.505 17.86 32.937 c 1.526 10.783 2.543 12.963 7.799 16.734 c 5.652 4.125 6.952 8.308 6.443 20.917 c -0.339 8.603 -0.735 10.252 -3.052 12.609 c -3.674 3.771 -14.299 7.954 -16.05 6.246 c -0.848 -0.884 -1.582 -8.956 -2.091 -24.22 c -0.904 -25.513 -2.204 -35.883 -5.369 -42.954 c -6.895 -15.14 -22.494 -26.515 -40.693 -29.579 c -6.05 -1.061 -8.421 -0.943 -14.695 0.589 c -22.15 5.421 -38.38 22.1 -41.26 42.36 c -0.622 4.125 -1.356 17.559 -1.752 29.697 c -0.565 20.387 -1.3 25.04 -3.787 25.04 c -0.396 0 -3.843 -1.414 -7.686 -3.241" transform="matrix(0.06912 0 0 0.0663 -14.635 4)" stroke-width="0.443"/><path d="m 122.39 198.76 c -10.908 -1.414 -22.21 -10.252 -27.637 -21.624 c -5.256 -11.02 -4.691 -27.458 1.3 -37 c 3.504 -5.656 12.886 -13.906 18.707 -16.557 c 7.856 -3.535 23.568 -3.3 31.763 0.471 c 6.895 3.182 14.921 9.427 18.538 16.09 c 2.091 3.948 5.143 9.958 5.143 20.799 c 0 12.138 -3.956 16.03 -5.878 19.974 c -4.804 10.193 -14.695 15.968 -27.355 17.794 c -4.01 0.589 -7.573 1 -7.912 0.943 c -0.283 -0.059 -3.278 -0.471 -6.669 -0.884 m 13.847 -14.554 c 4.352 -4.36 4.521 -5.656 1.187 -10.547 c -3.956 -5.951 -10.964 -5.656 -14.864 0.648 c -2.882 4.714 -2.148 7.306 3.052 10.901 c 5.2 3.476 6.217 3.417 10.625 -1 m -19.05 -16.969 c 3.504 -2.475 4.974 -7.483 3.222 -10.724 c -1.752 -3.359 -6.16 -5.833 -8.986 -5.126 c -6.895 1.709 -9.495 9.545 -5.03 15.202 c 2.713 3.476 6.5 3.712 10.795 0.648 m 36.849 -0.53 c 5.595 -5.951 1.922 -15.08 -6.104 -15.08 c -7.686 0 -10.851 9.251 -5.143 14.966 c 3.674 3.653 7.912 3.712 11.247 0.118 m -18.09 -18.737 c 3.674 -3.83 3.73 -8.131 0.226 -11.666 c -5.426 -5.421 -14.02 -2.121 -14.02 5.48 c 0 3.123 0.678 4.714 2.939 6.658 c 3.956 3.359 7.291 3.241 10.851 -0.471" transform="matrix(0.06912 0 0 0.0663 -1.065 -0.962)" stroke-width="0.437"/></g></svg>