<svg xmlns="http://www.w3.org/2000/svg" viewBox="0 0 16 16"><path d="m 1.7 5.42 c -0.75 0.98 -1.5 2.82 -1.58 3.91 c -0.12 1.57 0.45 3.37 1.41 4.44 c 1.28 1.43 3.84 2.34 6.39 2.28 c 1.83 -0.05 4.27 -0.63 5.52 -1.32 c 1.05 -0.59 1.8 -1.44 2.21 -2.5 c 0.55 -1.45 0.55 -2.84 0.03 -4.23 c -0.88 -2.96 -2.79 -4.93 -4.51 -6.5 c -4.36 -3.5 -7.16 0.89 -9.46 3.93" style="fill:#281030"/><path d="m 8.21 2.38 c -0.47 1.13 -0.75 1.86 -1.28 2.95 c 0.6 0.14 0.95 0.26 1.36 1.16 c -0.57 -0.44 -1.1 -0.44 -1.6 -0.57 c -0.67 1.36 -1.63 3.04 -3.76 6.78 c 0.63 -0.36 4.2 -1.27 3.87 -2.1 c -0.09 -0.2 -0.12 -0.32 -0.39 -0.41 c 0.18 -2.54 3.68 -2.64 3.8 -0.02 c -1.77 0.97 2.41 2.2 3.27 2.53 c -0.32 -0.59 -0.61 -1.11 -0.89 -1.62 c -0.44 -0.33 -0.84 -0.55 -1.77 -1.01 c 0.57 -0.02 0.98 0.17 1.4 0.34 c -2.82 -5.13 -3.05 -5.81 -4 -8" style="fill:#a1064e"/><g style="fill:#281030"><path d="m 10.5 7.1 c -0.05 -0.1 -0.15 -0.38 -0.2 -0.47 c -0.45 0.07 -0.86 0.36 -1.06 0.67 c -0.09 0.14 -0.23 0.4 -0.22 0.41 c 0.41 -0.36 1.04 -0.46 1.48 -0.62"/><path d="m 4.16 10.41 c 0.21 -0.46 0.12 -0.56 0.64 -0.34 c 0.25 0.11 0.45 0.29 0.62 0.54 c 0.09 0.14 0.23 0.4 0.22 0.41 c -0.41 -0.36 -1.04 -0.46 -1.48 -0.62"/><path d="m 4.94 8.13 c 0.17 0.52 0.09 0.57 0.68 0.43 c 0.29 -0.07 0.54 -0.22 0.75 -0.45 c 0.13 -0.13 0.31 -0.36 0.3 -0.37 c -0.51 0.29 -1.21 0.31 -1.73 0.39"/><path d="m 10 4.72 c -0.17 0.52 -0.09 0.57 -0.67 0.43 c -0.29 -0.07 -0.54 -0.22 -0.75 -0.45 c -0.13 -0.13 -0.31 -0.37 -0.3 -0.38 c 0.51 0.29 1.21 0.31 1.73 0.4"/><path d="m 12.16 8 c 0.18 0.52 0.27 0.5 -0.28 0.75 c -0.28 0.12 -0.56 0.15 -0.87 0.1 c -0.18 -0.03 -0.47 -0.11 -0.47 -0.12 c 0.58 -0.07 1.15 -0.48 1.62 -0.73"/></g></svg>