<svg xmlns="http://www.w3.org/2000/svg" viewBox="0 0 16 16"><path d="m 1.992 3.914 c 13.172 -14.172 21.469 15.07 3.984 11.848 c -4.613 -1.59 -8.215 -7.301 -3.984 -11.848" fill="#546a2f"/><path d="m 5.738 8.148 c -0.363 -0.477 -0.898 -1.211 -1.359 -1.473 c -0.211 -0.121 -0.781 -0.688 -0.781 -0.781 c 0 -0.027 0.371 -0.242 0.68 -0.395 c 0.266 -0.133 0.414 -0.152 0.531 -0.074 c 0.094 0.063 0.27 0.273 0.484 0.586 c 0.176 0.258 0.344 0.434 0.453 0.484 c 0.332 -0.031 0.438 -0.613 0.621 -1.039 c 0.102 -0.234 0.223 -0.461 0.594 -1.074 c 0.32 -0.535 0.379 -0.613 0.918 -1.219 c 0.422 -0.473 0.652 -0.684 0.734 -0.684 c 0.188 0.18 0.254 1.164 0.164 1.402 c -0.016 0.027 -0.113 0.137 -0.215 0.242 c -0.73 0.746 -1.191 1.355 -1.613 2.125 c -0.25 0.414 -0.504 0.859 -0.695 1.27 c -0.137 0.293 -0.27 0.563 -0.297 0.605 c -0.066 0.094 -0.152 0.102 -0.219 0.023" fill="#359f2c"/><path d="m 10.734 13.168 c 0 -0.016 0.043 -0.074 0.09 -0.133 c 0.156 -0.188 0.426 -0.719 0.477 -0.934 c 0.07 -0.309 0.137 -1.012 0.133 -1.395 c -0.004 -0.387 0.145 -1.434 0.238 -1.66 c 0.156 -0.375 0.449 -0.773 0.594 -0.805 c 0.117 -0.027 0.137 0.047 0.082 0.297 c -0.027 0.125 -0.051 0.676 -0.055 1.266 c -0.012 1.277 -0.07 1.594 -0.434 2.219 c -0.246 0.281 -0.727 1.086 -1.125 1.145" fill="#f6961a"/><path d="m 9.05 13.531 c -0.023 -0.031 0.082 -0.465 0.215 -0.906 c 0.063 -0.195 0.078 -0.469 0.094 -1.438 c 0.008 -0.656 0 -1.402 -0.023 -1.66 c -0.047 -0.555 -0.016 -0.805 0.176 -1.328 c 0.277 -0.777 0.703 -1.375 0.844 -1.184 c 0.012 0.016 -0.008 0.281 -0.047 0.586 c -0.094 0.77 -0.063 1.746 0.086 2.484 c 0.129 0.828 0.391 0.945 0.273 1.707 c -0.18 0.953 -0.375 1.129 -1.086 1.641 c -0.172 0.121 -0.336 0.16 -0.531 0.098" fill="#fdd939"/><g fill="#f6961a"><path d="m 8.434 10.379 c -0.055 -0.102 -0.203 -0.371 -0.332 -0.598 c -0.477 -0.84 -0.652 -1.965 -0.484 -3.121 c 0.094 -0.648 0.23 -0.992 0.426 -1.098 c 0.145 -0.078 0.176 0.023 0.215 0.691 c 0.063 1.094 0.156 1.523 0.457 2.105 c 0.27 0.648 0 1.445 -0.152 2.074 c -0.031 0.211 -0.066 0.07 -0.129 -0.055"/><path d="m 8.219 13.02 c -0.117 -0.938 -0.332 -1.402 -0.945 -2.039 c -0.27 -0.277 -0.566 -0.594 -0.66 -0.703 c -0.172 -0.191 -0.871 -1.313 -0.871 -1.395 c 0 -0.254 2.645 1.832 2.91 2.301 c 0.125 0.215 0.242 0.828 0.242 1.273 c 0 0.414 -0.281 0.918 -0.508 0.918 c -0.199 -0.016 -0.156 -0.246 -0.168 -0.355"/></g></svg>