<svg xmlns="http://www.w3.org/2000/svg" viewBox="0 0 16 16"><path d="m 14.777 3.895 c -11.938 -13.906 -23.418 14.688 -4.953 11.75 c 4.047 -0.645 8.168 -8 4.953 -11.75" fill="#b31117"/><g fill="#fc9549" stroke="#fd9549" stroke-width="2.418" transform="scale(0.0625)"><path d="m 83.81 176.38 c -0.25 -1.5 -0.75 -20.5 -1.063 -42.25 l -0.563 -39.5 l 2.125 -0.563 c 1.188 -0.25 12.25 -0.375 24.625 -0.25 c 16.438 0.188 22.75 0.563 23.5 1.313 c 1.625 1.563 1.25 9.5 -0.5 10.75 c -0.875 0.625 -6.813 1.25 -16.12 1.625 c -8.125 0.313 -15 1 -15.313 1.438 c -0.25 0.438 -0.688 4.625 -0.938 9.313 c -0.563 11.313 -1.125 10.875 15.75 11.438 c 7.25 0.25 13.688 0.75 14.25 1.063 c 1.438 0.938 1.438 10.188 0 11.313 c -0.563 0.438 -7.125 1.063 -14.563 1.375 c -9.438 0.438 -13.875 0.938 -14.688 1.688 c -0.875 0.813 -1.25 5 -1.563 15.688 c -0.563 18.19 -0.625 18.25 -8.625 18.25 h -5.813"/><path d="m 142.19 167.63 c -0.938 -19.813 -0.688 -51.688 0.438 -52.875 c 0.625 -0.563 3.375 -1 6.313 -1 c 4.563 0 5.438 0.25 6.313 1.813 c 0.688 1.25 0.875 8.813 0.75 25.375 c -0.125 12.938 -0.188 24.13 -0.125 24.813 c 0.25 2.25 4.063 3.313 12.625 3.375 c 13.375 0.188 15.313 1.125 14.25 6.875 l -0.625 3.063 h -39.37"/></g></svg>