<svg xmlns="http://www.w3.org/2000/svg" viewBox="0 0 16 16"><g fill="#2c3d4f"><path d="m 15.172 11.336 c -4.367 8.867 -17.336 3.926 -14.859 -5.07 c 2.332 -8.473 14.18 -8.23 15.559 -0.016 c 0.289 1.715 0.105 3.457 -0.699 5.086"/><path d="m 4.04 3.777 h 8.121 v 8.965 h -8.121"/></g><path d="m 4.04 3.777 h 1.672 v 8.965 h -1.672" fill="#3497db"/><path d="m 8.938 6.242 c -1.188 0 -2.148 0.902 -2.148 2.02 c 0 0.012 0.004 0.023 0.004 0.035 c 0 0.016 -0.004 0.027 -0.004 0.043 c 0 0.18 0.035 0.355 0.098 0.516 c 0.266 0.824 1.082 1.422 2.051 1.422 c 1.191 0 2.152 -0.898 2.152 -2.02 c 0 -1.117 -0.961 -2.02 -2.152 -2.02 m 0 0.449 c 0.926 0 1.672 0.699 1.672 1.57 c 0 0.863 -0.734 1.555 -1.648 1.566 c 0.566 -0.168 1 -0.609 1.125 -1.16 c -0.305 0.332 -0.754 0.539 -1.258 0.539 c -0.715 0 -1.32 -0.418 -1.559 -1 c 0.035 -0.844 0.766 -1.512 1.672 -1.512" fill="#eceff1"/></svg>