<svg xmlns="http://www.w3.org/2000/svg" viewBox="0 0 16 16"><path d="m 1.168 12.11 c 12.09 14.09 23.711 -14.871 5.02 -11.898 c -4.102 0.652 -8.273 8.105 -5.02 11.898" fill="#ffc0ca"/><path d="m 6.074 6.164 c 0 0 -0.453 -0.406 -0.906 -0.406 c -0.68 0 -1.129 0.203 -1.129 0.605 c 0 0.945 0 1.891 0 2.832 c 0 0.813 0.223 1.418 1.129 1.418 c 0.453 0 0.906 -0.605 0.906 -0.605" fill="#e33633"/><path d="m 8.555 10.41 l 0.227 1.211 c 0 0 0 0.406 1.129 0.406 c 0.68 0 0.902 -0.406 0.902 -0.406 l 0.453 -2.02" fill="#e53735"/><path d="m 5.391 8.59 c 0.004 -1.012 0.07 -2.027 0.227 -3.03 c 0.227 -1.418 0.68 -2.023 2.488 -2.023 c 2.258 0 2.934 1.414 3.16 3.637 c 0.105 1.016 0.438 2.719 -0.449 3.035 c -1.133 0.406 -2.262 0.406 -2.262 0.406 l -0.449 1.211 c 0 0 -0.227 0.605 -1.129 0.605 c -1.355 0 -1.355 -0.605 -1.355 -0.605 c 0 0 -0.23 -2.156 -0.227 -3.234" fill="#e57272"/><path d="m 7.203 6.363 c -0.063 -0.805 0 -1.613 2.031 -1.613 c 0.98 0 2.488 0.203 2.488 1.414 c 0 1.211 -1.508 1.414 -2.488 1.414 c -1.355 0 -1.977 -0.484 -2.031 -1.215" fill="#28b5f4"/><path d="m 8.586 5.203 c 0.086 0.098 -0.023 0.293 -0.242 0.434 c -0.211 0.145 -0.453 0.18 -0.535 0.082 c -0.082 -0.098 0.027 -0.297 0.242 -0.438 c 0.215 -0.145 0.457 -0.18 0.539 -0.078" fill="#80d4fa"/><path d="m 5.848 4.75 l -0.039 0.008 c -0.078 0.23 -0.141 0.496 -0.188 0.801 c -0.16 1 -0.227 2.02 -0.227 3.03 c -0.004 1.082 0.227 3.238 0.227 3.238 c 0 0 0 0.605 1.355 0.605 c 0.902 0 1.129 -0.605 1.129 -0.605 l 0.449 -1.215 c 0 0 1.129 0 2.262 -0.406 c 0.617 -0.219 0.645 -1.105 0.566 -1.961 c 0 0 -0.566 1.355 -2.602 1.355 c -1.129 0 -1.621 0.105 -2.031 -0.406 c -1.129 -1.613 -0.902 -4.445 -0.902 -4.445" fill="#ee534f"/></svg>