<svg xmlns="http://www.w3.org/2000/svg" viewBox="0 0 16 16"><defs><linearGradient id="0" gradientUnits="userSpaceOnUse" y1="14.368" x2="0" y2="33.78" gradientTransform="matrix(0.341 0 0 0.33519 -0.214 -0.258)"><stop stop-color="#2786f4"/><stop offset="1" stop-color="#268bef"/></linearGradient></defs><path d="m 0.234 6.336 c 1.238 -8.242 13.574 -8.488 15.438 -0.477 c 1.922 6.488 -5.03 11.789 -10.227 9.664 c -3.48 -1 -6.289 -5.113 -5.211 -9.188" fill="#258cf5"/><path d="m 7.375 12.707 l -0.234 -0.645 c -0.113 -0.316 -0.355 -0.57 -0.668 -0.695 l -0.027 -0.012 c -0.137 -0.051 -0.285 -0.078 -0.434 -0.078 c -0.176 0 -0.355 0.039 -0.516 0.113 l -0.629 0.293 l -0.84 -0.828 l 0.297 -0.621 c 0.148 -0.301 0.156 -0.648 0.027 -0.957 c -0.133 -0.309 -0.387 -0.551 -0.707 -0.664 l -0.656 -0.23 v -1.172 l 0.656 -0.23 c 0.32 -0.113 0.574 -0.352 0.707 -0.66 c 0.129 -0.309 0.117 -0.66 -0.027 -0.961 l -0.297 -0.621 l 0.84 -0.828 l 0.629 0.293 c 0.16 0.078 0.34 0.117 0.516 0.117 c 0.148 0 0.297 -0.027 0.434 -0.082 l 0.027 -0.008 c 0.313 -0.129 0.555 -0.383 0.668 -0.695 l 0.234 -0.648 h 1.191 l 0.23 0.648 c 0.113 0.313 0.359 0.566 0.672 0.695 c 0.148 0.059 0.301 0.09 0.461 0.09 c 0.176 0 0.355 -0.039 0.516 -0.117 l 0.629 -0.293 l 0.84 0.828 l -0.297 0.621 c -0.148 0.301 -0.156 0.652 -0.027 0.961 c 0.129 0.309 0.387 0.547 0.707 0.66 l 0.656 0.23 v 1.176 l -0.656 0.227 c -0.32 0.113 -0.578 0.355 -0.707 0.664 c -0.129 0.309 -0.121 0.656 0.027 0.957 l 0.297 0.621 l -0.84 0.828 l -0.633 -0.293 c -0.16 -0.074 -0.336 -0.117 -0.512 -0.117 c -0.156 0 -0.313 0.031 -0.457 0.094 c -0.313 0.129 -0.559 0.383 -0.676 0.699 l -0.23 0.645 h -1.191" fill="#78baf5"/><path d="m 8.473 3.02 l 0.199 0.559 c 0.125 0.348 0.398 0.629 0.746 0.773 l 0.047 0.02 h 0.004 c 0.148 0.051 0.301 0.078 0.461 0.078 c 0.195 0 0.395 -0.043 0.57 -0.125 l 0.543 -0.254 l 0.711 0.699 l -0.258 0.535 c -0.156 0.32 -0.172 0.684 -0.047 1.016 v 0.004 l 0.02 0.047 c 0.141 0.34 0.426 0.609 0.781 0.734 l 0.57 0.199 v 0.988 l -0.57 0.199 c -0.352 0.125 -0.641 0.391 -0.781 0.734 l -0.023 0.047 v 0.004 c -0.121 0.328 -0.105 0.695 0.051 1.016 l 0.258 0.535 l -0.711 0.699 l -0.547 -0.258 c -0.176 -0.082 -0.371 -0.125 -0.566 -0.125 c -0.176 0 -0.348 0.035 -0.508 0.102 c -0.352 0.141 -0.621 0.426 -0.75 0.777 l -0.199 0.555 h -1 l -0.199 -0.559 c -0.129 -0.352 -0.398 -0.633 -0.746 -0.773 l -0.051 -0.02 h -0.004 c -0.145 -0.055 -0.301 -0.082 -0.457 -0.082 c -0.195 0 -0.395 0.043 -0.57 0.129 l -0.547 0.254 l -0.707 -0.699 l 0.258 -0.535 c 0.152 -0.32 0.172 -0.688 0.047 -1.016 v -0.004 l -0.02 -0.047 c -0.145 -0.344 -0.43 -0.609 -0.785 -0.734 l -0.566 -0.199 v -0.988 l 0.566 -0.199 c 0.355 -0.125 0.641 -0.395 0.785 -0.734 l 0.02 -0.047 v -0.004 c 0.125 -0.332 0.105 -0.699 -0.047 -1.016 l -0.258 -0.539 l 0.707 -0.699 l 0.547 0.258 c 0.176 0.082 0.375 0.125 0.57 0.125 c 0.156 0 0.313 -0.027 0.457 -0.078 h 0.004 l 0.051 -0.023 c 0.348 -0.141 0.617 -0.422 0.746 -0.77 l 0.199 -0.563 h 1 m 0.188 -0.258 h -1.379 l -0.266 0.734 c -0.102 0.277 -0.316 0.504 -0.594 0.617 c -0.133 0.055 -0.27 0.078 -0.41 0.078 c -0.156 0 -0.313 -0.031 -0.457 -0.102 l -0.715 -0.332 l -0.973 0.961 l 0.336 0.703 c 0.133 0.266 0.141 0.578 0.023 0.852 c -0.113 0.277 -0.344 0.488 -0.629 0.59 l -0.742 0.262 v 1.355 l 0.746 0.262 c 0.281 0.098 0.512 0.313 0.625 0.586 c 0.117 0.277 0.109 0.586 -0.02 0.855 l -0.34 0.703 l 0.973 0.961 l 0.715 -0.336 c 0.145 -0.066 0.301 -0.102 0.457 -0.102 c 0.141 0 0.277 0.027 0.41 0.082 c 0.277 0.113 0.492 0.336 0.594 0.617 l 0.266 0.734 h 1.379 l 0.262 -0.73 c 0.102 -0.281 0.32 -0.508 0.602 -0.625 c 0.129 -0.051 0.27 -0.078 0.406 -0.078 c 0.152 0 0.309 0.031 0.453 0.102 l 0.719 0.336 l 0.973 -0.961 l -0.34 -0.703 c -0.129 -0.27 -0.137 -0.578 -0.023 -0.855 c 0.117 -0.273 0.348 -0.488 0.629 -0.586 l 0.746 -0.262 v -1.355 l -0.746 -0.262 c -0.281 -0.102 -0.512 -0.313 -0.625 -0.59 c -0.117 -0.273 -0.109 -0.586 0.02 -0.852 l 0.34 -0.703 l -0.973 -0.961 l -0.715 0.332 c -0.145 0.07 -0.301 0.102 -0.457 0.102 c -0.141 0 -0.277 -0.023 -0.41 -0.078 c -0.277 -0.113 -0.496 -0.34 -0.598 -0.617" fill="#fff"/><path d="m 11.281 7.809 c 0 1.797 -1.484 3.254 -3.313 3.254 c -1.828 0 -3.309 -1.457 -3.309 -3.254 c 0 -1.797 1.48 -3.254 3.309 -3.254 c 1.828 0 3.313 1.457 3.313 3.254" fill="url(#0)"/><path d="m 7.969 4.883 c -1.645 0 -2.977 1.313 -2.977 2.93 c 0 1.617 1.332 2.926 2.977 2.926 c 1.648 0 2.98 -1.309 2.98 -2.926 c 0 -1.617 -1.332 -2.93 -2.98 -2.93 m 0 5.637 c -0.18 0 -0.355 -0.02 -0.523 -0.051 c 0.715 -0.195 1.562 -0.684 1.965 -1.461 c 0 0 0.828 -1.332 -0.57 -2.531 c 0 0 0.359 0.555 0.371 1.113 c 0 0 0.082 0.738 -0.578 1.199 c -0.977 0.676 -2.496 0.371 -3.145 0.195 c -0.176 -0.355 -0.273 -0.754 -0.273 -1.172 c 0 -0.629 0.219 -1.207 0.586 -1.668 c 0.18 0.855 0.555 1.57 0.805 1.836 c 0.332 0.355 0.824 0.73 1.457 0.574 c 0.633 -0.152 0.762 -0.832 0.762 -0.832 c 0.141 -0.578 -0.059 -1.266 -0.07 -1.281 c -0.012 -0.012 -0.105 -0.027 -0.105 -0.027 c 0.098 0.91 -0.145 1.313 -0.145 1.313 c -0.355 0.711 -0.875 0.492 -0.875 0.492 c -0.578 -0.289 -0.551 -1.105 -0.551 -1.105 c -0.016 -0.551 0.195 -1.441 0.605 -1.996 c 0.094 -0.008 0.191 -0.012 0.285 -0.012 c 0.371 0 0.723 0.07 1.043 0.199 c -0.34 0.281 -0.867 0.809 -0.867 0.809 c -0.852 0.777 -0.688 1.434 -0.688 1.434 c 0.133 0.684 0.559 0.223 0.559 0.223 c 0.441 -0.453 0.41 -1.352 0.41 -1.352 c -0.18 0.027 -0.293 0.125 -0.293 0.125 c -0.023 0.602 -0.383 0.973 -0.383 0.973 c -0.141 0.152 -0.238 0.008 -0.238 0.008 c -0.074 -0.109 0.07 -0.184 0.07 -0.184 c 0.207 -0.18 0.27 -0.48 0.266 -0.594 c -0.004 -0.113 0.059 -0.145 0.059 -0.145 c 0.289 -0.219 0.582 -0.352 0.582 -0.352 c 0.391 -0.191 1.082 -0.227 1.082 -0.227 c 0.164 0.008 0.324 0 0.457 -0.012 c 0.434 0.48 0.695 1.109 0.695 1.801 c 0 1.492 -1.234 2.707 -2.754 2.707" fill="#fff"/></svg>