<svg xmlns="http://www.w3.org/2000/svg" viewBox="0 0 16 16"><path d="m 1.961 11.914 c -5.695 -6.453 2.738 -13.289 7.676 -11.609 c 4.941 1.68 8.258 6.422 5.03 10.578 c -3.227 4.156 -6.395 8.164 -12.09 1.711" fill="#696969"/><g fill="#fff"><path d="m 8.117 13.664 c -0.688 -0.426 -1.633 -1.223 -2.188 -1.844 c -0.77 -0.863 -1.258 -1.613 -1.863 -2.859 l -0.305 -0.629 l 0.043 -0.227 c 0.176 -0.895 0.77 -1.445 1.672 -1.551 c 0.211 -0.023 0.203 -0.004 -0.074 0.18 c -0.234 0.152 -0.531 0.453 -0.691 0.703 c -0.121 0.184 -0.25 0.438 -0.25 0.484 c 0 0.063 0.184 0.004 0.543 -0.168 c 0.566 -0.273 0.965 -0.387 1.387 -0.387 c 0.313 0 0.477 0.055 0.602 0.199 c 0.199 0.227 0.285 0.516 0.336 1.125 c 0.047 0.613 0.059 0.703 0.074 0.734 c 0.012 0.02 0.188 0.059 0.395 0.09 c 0.574 0.086 0.555 0.078 0.957 0.441 c 0.277 0.25 0.422 0.313 0.773 0.328 c 0.469 0.02 0.508 -0.016 0.676 -0.613 c 0.094 -0.336 0.086 -0.387 -0.066 -0.363 c -0.262 0.035 -0.477 0.051 -0.539 0.035 c -0.082 -0.023 -0.168 -0.168 -0.219 -0.371 c -0.035 -0.137 -0.035 -0.172 0 -0.293 c 0.094 -0.332 0.625 -0.82 0.957 -0.879 c 0.191 -0.039 0.438 0.137 0.551 0.383 c 0.078 0.168 0.078 0.227 0.004 0.43 c -0.133 0.375 0.031 0.332 0.621 -0.168 c 0.488 -0.414 0.512 -0.438 0.566 -0.566 c 0.07 -0.16 0.063 -0.25 -0.043 -0.477 c -0.121 -0.258 -0.27 -0.461 -0.445 -0.613 c -0.078 -0.066 -0.242 -0.215 -0.359 -0.324 c -0.137 -0.191 -0.398 -0.242 -0.551 -0.406 c -0.035 -0.039 -0.137 -0.125 -0.223 -0.188 c -0.113 -0.082 -0.184 -0.16 -0.262 -0.297 c -0.277 -0.48 -0.629 -0.73 -1.391 -0.996 c -0.168 -0.059 -0.391 -0.117 -0.496 -0.137 c -0.262 -0.039 -1.043 -0.012 -1.484 0.059 c -0.363 0.059 -0.461 0.055 -0.664 -0.027 c -0.168 -0.066 -0.371 -0.078 -0.719 -0.051 c -0.207 0.02 -0.375 0.047 -0.41 0.07 c -0.082 0.051 -0.078 0.152 0.008 0.445 c 0.035 0.125 0.063 0.25 0.051 0.277 c -0.008 0.023 -0.059 0.07 -0.113 0.102 c -0.438 0.238 -1.207 1.016 -1.805 1.816 c -0.164 0.223 -0.305 0.402 -0.309 0.402 c -0.035 0 -0.074 -0.188 -0.109 -0.512 c -0.051 -0.512 -0.051 -0.535 0.027 -0.535 c 0.035 0 0.145 -0.027 0.242 -0.059 l 0.176 -0.055 v -0.145 c 0 -0.078 -0.035 -0.359 -0.078 -0.625 c -0.051 -0.32 -0.066 -0.5 -0.051 -0.531 c 0.031 -0.066 0.633 -0.469 1.035 -0.695 c 0.973 -0.551 2.086 -0.918 3.121 -1.035 c 0.332 -0.035 1.035 -0.035 1.395 0 c 0.785 0.082 1.598 0.297 2.379 0.633 c 0.445 0.191 1.426 0.727 1.668 0.965 l 0.254 0.246 c -0.195 1.125 -0.445 2.156 -0.785 3.238 c -0.645 2.023 -1.52 3.152 -2.961 4.539 c -0.387 0.375 -0.785 0.734 -0.855 0.773 c -0.035 0.016 -0.09 -0.004 -0.203 -0.074"/><path d="m 9.77 6.348 c -0.117 -0.121 -0.371 -0.512 -0.34 -0.527 c 0.082 -0.031 0.559 0.246 0.652 0.379 c 0.039 0.051 0.031 0.07 -0.063 0.137 c -0.133 0.094 -0.164 0.094 -0.25 0.012"/><path d="m 5.477 5.164 c -0.094 -0.133 -0.184 -0.391 -0.145 -0.434 c 0.023 -0.027 0.875 0.055 0.965 0.094 c 0.09 0.039 0.047 0.078 -0.223 0.203 c -0.109 0.055 -0.262 0.137 -0.336 0.188 c -0.074 0.047 -0.141 0.086 -0.148 0.086 c -0.008 0 -0.059 -0.063 -0.113 -0.137"/></g></svg>