<svg xmlns="http://www.w3.org/2000/svg" xmlns:xlink="http://www.w3.org/1999/xlink" viewBox="0 0 16 16"><defs><g id="3" clip-path="url(#2)"><path d="m 8.992 2.398 c 1.828 0.113 2.953 0.512 3.93 1.656 c 1.188 1.363 1.664 3.789 1.238 5.098 c -0.348 1.047 -0.953 2.039 -1.813 2.965 c -0.594 0.641 -0.906 0.883 -0.465 0.359 c 0.824 -0.977 1.375 -2.348 1.465 -3.648 c 0.125 -1.801 -0.426 -2.957 -1.5 -4.156 c -2.246 -1.73 -4.188 -0.766 -4.164 -0.469 c 2.641 0.148 4.77 1.828 4.648 4.867 c -0.563 1.66 -0.027 -0.84 -1.383 -2.246 c -0.711 -0.91 -1.375 -1.34 -2.332 -1.387 c -0.531 -0.02 -0.602 -0.012 -0.906 0.133 c -0.402 0.195 -0.773 0.555 -0.969 0.949 c -0.176 0.352 -0.211 1.02 -0.07 1.273 l 0.082 0.148 l 0.035 -0.18 c 0.023 -0.098 0.043 -0.27 0.047 -0.387 c 0.012 -0.336 0.27 -0.809 0.566 -1.031 c 0.641 -0.492 1.492 -0.398 2.098 0.223 c 0.352 0.363 0.473 0.645 0.504 1.172 c 0.023 0.465 -0.094 1.066 -0.227 1.152 c -0.203 0.719 -0.801 0.844 -1.152 1.055 c -1 0.512 -2.441 -0.051 -3.102 -1.215 c -0.223 -0.391 -0.336 -0.734 -0.441 -1.305 l -0.059 -0.336 l -0.199 0.23 c -0.109 0.125 -0.113 0.965 -0.094 1.055 l 0.254 1.332 c -1.043 -1.281 -1.156 -2.688 -0.801 -3.988 c 0.414 -1.523 1.449 -2.551 3.01 -3.066 c 0.516 -0.168 1.434 -0.277 1.797 -0.254" fill="#d970d6"/></g><clipPath id="2"><path d="M 0,0 H16 V16 H0 z"/></clipPath><filter id="0" filterUnits="objectBoundingBox" x="0" y="0" width="16" height="16"><feColorMatrix type="matrix" in="SourceGraphic" values="0 0 0 0 1 0 0 0 0 1 0 0 0 0 1 0 0 0 1 0"/></filter><mask id="1"><g filter="url(#0)"><path fill-opacity="0.812" d="M 0,0 H16 V16 H0 z"/></g></mask></defs><path d="m 14.352 12.238 c 5.754 -8.18 -4.871 -16.473 -11.648 -9.805 c -6.387 6.281 -0.465 16.04 7.48 12.992 c 1.656 -0.637 3.113 -1.684 4.168 -3.188" fill="#9a1cc3"/><path d="m 8.07 13.813 c -1.973 -0.121 -3.184 -0.543 -4.234 -1.754 c -1.281 -1.445 -1.797 -4.02 -1.336 -5.402 c 0.375 -1.113 1.027 -2.164 1.949 -3.145 c 0.641 -0.68 0.98 -0.938 0.504 -0.383 c -0.891 1.039 -1.484 2.492 -1.582 3.871 c -0.133 1.906 0.465 3.133 1.621 4.402 c 2.418 1.836 4.512 0.809 4.488 0.496 c -2.848 -0.156 -5.141 -1.938 -5.01 -5.156 c 0.605 -1.762 0.031 0.891 1.492 2.383 c 0.766 0.961 1.48 1.418 2.512 1.465 c 0.574 0.023 0.648 0.012 0.977 -0.141 c 0.434 -0.203 0.832 -0.586 1.047 -1.01 c 0.188 -0.371 0.227 -1.078 0.074 -1.348 l -0.086 -0.156 l -0.043 0.191 c -0.02 0.102 -0.043 0.285 -0.047 0.41 c -0.012 0.355 -0.289 0.855 -0.609 1.094 c -0.695 0.516 -1.613 0.422 -2.262 -0.238 c -0.379 -0.383 -0.512 -0.68 -0.543 -1.242 c -0.027 -0.492 0.098 -1.133 0.242 -1.223 c 0.219 -0.758 0.863 -0.895 1.242 -1.117 c 1.086 -0.539 2.633 0.059 3.344 1.289 c 0.238 0.414 0.363 0.777 0.477 1.383 l 0.063 0.355 l 0.215 -0.242 c 0.117 -0.137 0.121 -1.023 0.102 -1.121 l -0.273 -1.41 c 1.121 1.359 1.242 2.848 0.863 4.227 c -0.445 1.613 -1.566 2.703 -3.25 3.25 c -0.555 0.18 -1.543 0.293 -1.934 0.27" fill="#2f2fec"/><use xlink:href="#3" mask="url(#1)"/></svg>