<svg xmlns="http://www.w3.org/2000/svg" viewBox="0 0 16 16"><path d="m 0.234 6.445 c 1.238 -8.152 13.574 -8.398 15.438 -0.473 c 1.922 6.414 -5.03 11.66 -10.227 9.555 c -3.48 -0.992 -6.289 -5.05 -5.211 -9.08" fill="#5485b4"/><path d="m 13.82 8.125 c 0 3.199 -2.648 5.793 -5.914 5.793 c -3.266 0 -5.914 -2.594 -5.914 -5.793 c 0 -3.195 2.648 -5.789 5.914 -5.789 c 3.266 0 5.914 2.594 5.914 5.789" fill="#fff"/><path d="m 7.258 13.27 c -0.707 -0.09 -1.598 -0.434 -2.219 -0.859 c -0.156 -0.105 -0.457 -0.363 -0.672 -0.578 c -1.781 -1.758 -2.039 -4.535 -0.613 -6.629 c 0.266 -0.395 0.898 -1.027 1.281 -1.289 c 1.523 -1.039 3.41 -1.188 5.04 -0.395 c 0.563 0.273 0.902 0.516 1.363 0.969 c 1.563 1.543 1.977 3.887 1.035 5.883 c -0.277 0.582 -0.578 1.012 -1.035 1.461 c -0.461 0.453 -0.801 0.695 -1.363 0.969 c -0.891 0.434 -1.848 0.59 -2.82 0.469 m 0.582 -2.945 c 1.203 -0.586 1.469 -0.594 1.777 -0.066 c 0.25 0.434 0.816 0.457 1.086 0.047 c 0.074 -0.117 0.07 -0.117 -0.324 -0.371 c -0.262 -0.168 -0.336 -0.258 -0.641 -0.77 c -0.289 -0.484 -0.66 -0.438 -1.957 0.25 c -0.863 0.457 -0.93 0.465 -1.051 0.129 c -0.043 -0.125 -0.141 -0.285 -0.219 -0.355 c -0.184 -0.176 -0.297 -0.148 -0.887 0.219 c -0.621 0.383 -0.988 0.523 -1.457 0.555 c -0.301 0.02 -0.371 0.035 -0.371 0.098 c 0.004 0.164 0.547 0.41 0.91 0.41 c 0.102 0 0.387 -0.07 0.629 -0.156 c 0.602 -0.211 0.691 -0.207 0.875 0.027 c 0.375 0.477 0.617 0.477 1.629 -0.016 m 0.762 -2.562 c 0.941 -0.461 1.352 -0.605 1.688 -0.613 c 0.301 -0.004 0.43 0.086 0.652 0.441 c 0.34 0.551 0.816 0.652 1.277 0.27 c 0.262 -0.219 0.25 -0.297 -0.086 -0.477 c -0.355 -0.191 -0.707 -0.539 -0.859 -0.852 c -0.168 -0.336 -0.316 -0.527 -0.469 -0.609 c -0.32 -0.168 -0.883 -0.023 -1.785 0.461 c -1.336 0.715 -1.438 0.758 -1.598 0.656 c -0.027 -0.02 -0.105 -0.168 -0.164 -0.328 c -0.266 -0.68 -0.512 -0.711 -1.352 -0.16 c -0.723 0.473 -1.32 0.695 -1.965 0.738 c -0.227 0.016 -0.426 0.043 -0.438 0.066 c -0.043 0.066 0.102 0.195 0.398 0.355 c 0.234 0.129 0.332 0.152 0.656 0.168 c 0.406 0.023 0.531 -0.004 1.195 -0.258 c 0.574 -0.215 0.609 -0.207 0.973 0.254 c 0.211 0.266 0.379 0.34 0.738 0.316 c 0.266 -0.016 0.387 -0.063 1.137 -0.43" fill="#5485b4"/></svg>