<svg xmlns="http://www.w3.org/2000/svg" viewBox="0 0 16 16"><path d="m 1.559 3.301 c -7.996 12.03 17.508 19.438 14.13 3.887 c -1.441 -6.426 -10.465 -10.328 -14.13 -3.887" fill="#ffd600"/><path d="m 12.563 12.949 c -0.168 -0.168 -0.605 -0.34 -1.266 -0.492 c -0.371 -0.082 -0.797 -0.168 -0.945 -0.184 c -0.148 -0.016 -0.352 -0.055 -0.449 -0.086 c -0.098 -0.035 -0.574 -0.137 -1.059 -0.227 c -1.078 -0.203 -1.316 -0.266 -1.652 -0.441 c -0.461 -0.242 -0.84 -0.773 -0.945 -1.324 c -0.047 -0.25 -0.066 -0.293 -0.145 -0.27 c -0.051 0.016 -0.137 0.039 -0.191 0.055 c -0.145 0.039 -0.133 -0.039 0.078 -0.566 c 0.363 -0.898 0.391 -1.098 0.223 -1.508 c -0.141 -0.34 -0.32 -0.531 -0.5 -0.531 c -0.172 0 -0.262 -0.09 -0.41 -0.406 c -0.199 -0.426 -0.23 -0.438 -1.266 -0.398 c -0.695 0.027 -0.898 0.02 -0.93 -0.023 c -0.063 -0.09 0.145 -0.211 0.605 -0.352 c 0.34 -0.109 0.492 -0.129 0.969 -0.129 c 0.352 -0.004 0.59 -0.023 0.625 -0.059 c 0.156 -0.141 -0.438 -0.668 -0.961 -0.848 c -0.156 -0.055 -0.457 -0.109 -0.688 -0.121 c -0.344 -0.02 -0.445 -0.008 -0.652 0.074 c -0.133 0.055 -0.254 0.09 -0.266 0.078 c -0.059 -0.051 0.402 -0.379 0.727 -0.523 c 0.465 -0.199 0.836 -0.234 1.438 -0.129 c 0.637 0.109 0.73 0.098 1.078 -0.109 c 0.574 -0.34 1.266 -0.406 1.906 -0.188 c 1.199 0.406 2.844 2.305 3.598 4.145 c 0.309 0.75 0.445 1.215 0.793 2.715 c 0.215 0.934 0.379 1.609 0.434 1.809 c 0.039 0.145 -0.023 0.164 -0.145 0.039 m -5.938 -7.887 c 0.152 -0.109 0.156 -0.254 0.016 -0.383 c -0.141 -0.129 -0.301 -0.125 -0.418 0.016 c -0.207 0.234 0.141 0.551 0.402 0.367" fill="#122e43"/></svg>