<svg xmlns="http://www.w3.org/2000/svg" viewBox="0 0 16 16"><path d="m 13.703 13.07 c 9.984 -14.188 -15.977 -18.707 -13.402 -3.629 c 1.363 5.996 9.406 9.313 13.402 3.629" fill="#e74676"/><path d="m 9.824 2.578 c -0.059 0 -0.109 0.031 -0.145 0.074 l -1.418 1.809 c -0.016 0.02 -0.027 0.039 -0.035 0.063 h -0.375 c -0.004 -0.004 -0.012 -0.008 -0.02 -0.012 l -2.051 -1.176 c -0.031 -0.02 -0.07 -0.031 -0.109 -0.027 c -0.086 0.004 -0.16 0.063 -0.18 0.145 c -0.02 0.082 0.02 0.168 0.094 0.207 l 1.504 0.863 h -3.266 c -0.109 0 -0.195 0.086 -0.195 0.191 v 6.559 c 0 0.105 0.086 0.191 0.195 0.191 h 0.93 c 0.012 0.383 0.348 0.691 0.75 0.691 c 0.398 0 0.734 -0.309 0.746 -0.691 h 3.645 c 0.012 0.383 0.348 0.691 0.75 0.691 c 0.398 0 0.734 -0.309 0.746 -0.691 h 0.934 c 0.109 0 0.195 -0.086 0.195 -0.191 v -6.559 c 0 -0.105 -0.086 -0.191 -0.195 -0.191 h -3.625 l 1.289 -1.641 c 0.043 -0.055 0.055 -0.133 0.023 -0.195 c -0.031 -0.066 -0.098 -0.109 -0.168 -0.109 c -0.008 0 -0.012 0 -0.02 0 m -5.809 2.324 h 8.117 v 6.184 h -8.117 m 0.582 -5.797 c -0.105 0 -0.191 0.082 -0.191 0.188 v 5.04 c 0 0.105 0.086 0.188 0.191 0.188 h 6.949 c 0.109 0 0.195 -0.082 0.195 -0.188 v -5.04 c 0 -0.105 -0.086 -0.188 -0.195 -0.188 m -6.754 0.375 h 6.562 v 4.664 h -6.562 m 4.309 -3.406 c -0.09 0 -0.168 0.063 -0.188 0.148 c -0.016 0.082 0.027 0.172 0.105 0.211 l 1.031 0.508 c 0.094 0.047 0.211 0.008 0.258 -0.086 c 0.047 -0.09 0.012 -0.207 -0.086 -0.254 l -1.027 -0.508 c -0.031 -0.016 -0.063 -0.023 -0.094 -0.02 m -2.059 0.004 c -0.031 0 -0.063 0.008 -0.086 0.023 l -1.031 0.496 c -0.063 0.031 -0.105 0.09 -0.113 0.16 c -0.004 0.07 0.027 0.137 0.09 0.172 c 0.059 0.039 0.133 0.043 0.195 0.008 l 1.031 -0.5 c 0.078 -0.035 0.125 -0.125 0.102 -0.211 c -0.02 -0.086 -0.098 -0.148 -0.188 -0.148 m 1.027 1.387 c -0.105 0.004 -0.191 0.09 -0.187 0.191 c 0 0.172 -0.055 0.32 -0.129 0.422 c -0.078 0.098 -0.164 0.145 -0.25 0.145 c -0.09 0 -0.176 -0.047 -0.25 -0.145 c -0.074 -0.102 -0.129 -0.25 -0.129 -0.422 c 0 -0.051 -0.02 -0.098 -0.059 -0.137 c -0.035 -0.035 -0.086 -0.055 -0.137 -0.055 c -0.109 0.004 -0.191 0.09 -0.191 0.191 c 0 0.246 0.074 0.473 0.207 0.648 c 0.129 0.172 0.328 0.297 0.559 0.297 c 0.227 0 0.426 -0.125 0.559 -0.297 c 0.004 -0.008 0.008 -0.016 0.016 -0.023 c 0.004 0.008 0.008 0.016 0.016 0.023 c 0.129 0.172 0.328 0.297 0.559 0.297 c 0.227 0 0.426 -0.125 0.559 -0.297 c 0.129 -0.176 0.203 -0.402 0.203 -0.648 c 0.004 -0.066 -0.031 -0.133 -0.094 -0.168 c -0.059 -0.035 -0.137 -0.035 -0.195 0 c -0.063 0.035 -0.098 0.102 -0.094 0.168 c 0 0.172 -0.055 0.32 -0.133 0.422 c -0.074 0.098 -0.16 0.145 -0.246 0.145 c -0.09 0 -0.176 -0.047 -0.25 -0.145 c -0.074 -0.102 -0.129 -0.25 -0.129 -0.422 c 0 -0.098 -0.078 -0.184 -0.18 -0.191 c -0.008 0 -0.016 0 -0.023 0 m -2.984 3.152 h 0.832 c -0.012 0.199 -0.188 0.363 -0.414 0.363 c -0.23 0 -0.406 -0.164 -0.418 -0.363 m 5.141 0 h 0.832 c -0.012 0.199 -0.188 0.363 -0.418 0.363 c -0.227 0 -0.402 -0.164 -0.414 -0.363" fill="#ec88a4" fill-opacity="0.8"/><path d="m 2.973 4.746 c 0 0 -0.508 0.238 -0.879 0.445 c 0.301 0.832 0.684 4.902 0.684 4.902 c 0 0 2.832 -0.105 2.637 -1.109 c -0.195 -1 -2.289 -0.844 -2.289 -0.844 m 5.801 -3.387 c 0 0 -0.508 0.242 -0.879 0.445 c 0.301 0.836 0.684 4.906 0.684 4.906 c 0 0 2.832 -0.109 2.637 -1.113 c -0.195 -1 -2.289 -0.844 -2.289 -0.844 m -2.32 -2.754 l -0.73 0.043 l 0.551 4.098 l 0.465 -0.008 m 5.648 -4.133 l -0.727 0.043 l 0.551 4.098 l 0.461 -0.008 m -7.488 -3.121 l -0.313 0.047 l 0.176 0.824 l 0.223 -0.035 m 0.047 -0.836 l 0.098 0.82 l 0.211 -0.012 l 0.047 -0.801 m 5.445 -0.008 l -0.309 0.047 l 0.176 0.824 l 0.223 -0.035 m 0.043 -0.836 l 0.098 0.82 l 0.215 -0.012 l 0.043 -0.801 m -4.445 0.027 l -0.313 0.004 l 0.066 0.84 l 0.227 -0.004 m 5.957 -0.84 l -0.316 0.004 l 0.07 0.84 l 0.223 -0.004 m -5.781 -0.824 l -0.012 0.824 l 0.215 0.02 l 0.148 -0.785 m 5.586 -0.059 l -0.012 0.824 l 0.211 0.02 l 0.148 -0.785 m -7.793 0.93 l -0.754 0.109 l 0.48 2.148 l 0.504 -0.043 m 5.707 -2.215 l -0.758 0.109 l 0.48 2.148 l 0.508 -0.043 m -4.332 -2.109 l -0.762 0.004 l 0.191 2.195 l 0.508 0.023 m 6 -2.223 l -0.762 0.004 l 0.191 2.195 l 0.508 0.023 m -10.215 -1.117 l 0.871 0.363 l -0.746 0.594 m 5.828 -0.949 l 0.871 0.363 l -0.746 0.598" fill="#eaeaef" fill-rule="evenodd"/></svg>