<svg xmlns="http://www.w3.org/2000/svg" viewBox="0 0 16 16"><path d="m 15.266 11.785 c -3.152 7.559 -15.344 4.184 -15.266 -4.047 c -0.121 -7.484 9.574 -10.32 13.824 -4.992 c 2.125 2.305 2.867 6.125 1.441 9.04" fill="#100904"/><path d="m 14.617 11.461 c -2.844 6.852 -13.852 3.797 -13.781 -3.668 c -0.109 -6.785 8.645 -9.359 12.48 -4.527 c 1.922 2.09 2.59 5.555 1.301 8.195" fill="#f45c03"/><g fill="#100904" stroke="#100904" stroke-width="0.956" transform="matrix(0.05914 0 0 0.07158 0.286 -1.029)"><path d="m 57.982 143.44 c -2.312 -1.146 -8.256 -3.984 -13.143 -6.276 c -9.18 -4.366 -12.615 -7.422 -12.615 -11.296 c 0 -2.51 2.444 -4.366 11.426 -8.622 c 2.906 -1.364 8.718 -4.147 12.879 -6.167 c 4.161 -2.074 8.19 -3.711 8.85 -3.711 c 1.717 0 1.585 5.785 -0.264 8.349 c -0.793 1.201 -2.18 2.183 -3.104 2.183 c -2.113 0 -10.699 4.911 -12.945 7.422 c -2.972 3.383 -1.651 5.184 5.878 7.967 c 10.04 3.711 11.822 5.075 11.492 8.786 c -0.396 3.82 -2.576 4.202 -8.454 1.364"/><path d="m 90.21 151.29 c -4.491 -3.547 3.5 -6.221 3.038 -7.749 l -3.699 -0.6 l -0.991 -8.24 l 6.803 -11.569 c 5.35 -9.06 7.463 -9.932 6.671 -12.77 c -1.189 -4.584 -10.11 -4.857 -13.407 -1.473 c -0.925 0.982 -1.915 2.02 -3.566 4.475 c -3.368 4.911 -4.161 5.239 -6.406 3 c -2.378 -2.347 -1.849 -4.857 1.849 -8.95 c 6.142 -6.767 14.07 -8.568 22.06 -4.911 c 5.218 2.347 8.454 3.984 8.454 9.714 c 0 5.457 -2.246 8.404 -7.793 14.68 c -6.803 7.531 -7.463 9.441 -6.076 16.535 c 0.132 0.6 -4.227 -0.491 -3.633 -0.109 c 5.812 3.765 4.557 6.876 4.293 7.531 c -0.66 1.746 -5.416 2.128 -7.595 0.437"/><path d="m 131.29 150.58 c -1.915 -2.183 -11.294 -37.491 -11.36 -43.06 c -0.066 -4.529 1.783 -7.313 4.359 -6.33 c 1.651 0.655 5.02 10.205 6.01 17.03 c 1.255 8.786 3.104 11.842 6.473 10.532 c 1.651 -0.655 4.623 -7.367 6.869 -15.662 c 2.246 -8.459 3.831 -11.351 6.539 -12.06 c 4.425 -1.091 5.944 0.873 10.11 13.37 c 6.208 18.664 9.18 19.209 13.08 2.456 c 1.255 -5.512 2.774 -11.187 3.302 -12.606 c 1.255 -3.056 4.161 -4.257 6.274 -2.51 c 2.113 1.746 1.255 7.531 -3.897 26.631 c -6.406 23.684 -7.331 25.321 -12.945 22.975 c -3.302 -1.364 -3.963 -2.838 -7.727 -17.627 c -1.585 -6.276 -3.368 -12.01 -3.963 -12.715 c -1.321 -1.583 -4.095 -1.583 -5.35 -0.055 c -0.991 1.201 -6.076 18.12 -7.397 24.394 c -0.66 3.274 -4.425 6.931 -7.133 6.931 c -0.925 0 -2.378 -0.764 -3.236 -1.692"/><path d="m 193.57 144.14 c -0.925 -2.074 -0.859 -3.056 0.264 -5.075 c 1.123 -2.02 3.17 -3.165 9.643 -5.239 c 6.274 -2.02 8.388 -3.165 8.784 -4.639 c 0.727 -2.783 -2.84 -6.06 -10.369 -9.55 c -3.434 -1.637 -6.671 -3.711 -7.199 -4.693 c -1.189 -2.237 -1.189 -7.585 0 -7.585 c 0.859 0 11.558 5.02 15.785 7.422 c 1.057 0.6 4.623 2.237 7.859 3.602 c 7.992 3.438 9.511 5.184 8.322 9.714 c -0.925 3.984 -0.198 3.493 -18.03 11.897 c -6.869 3.22 -12.813 6 -13.143 6.221 c -1.123 -0.6 -1.519 -1.255 -1.915 -2.074"/></g></svg>