<svg xmlns="http://www.w3.org/2000/svg" viewBox="0 0 16 16"><defs><linearGradient id="0" gradientUnits="userSpaceOnUse" x1="3.838" y1="1027.4" x2="44.27" y2="1026.62" gradientTransform="matrix(0.2085 0 0 0.19826 2.834 -195.82)"><stop stop-color="#202835"/><stop offset="1" stop-color="#52596a"/></linearGradient><linearGradient id="1" gradientUnits="userSpaceOnUse" x1="11" x2="37" gradientTransform="matrix(0.2085 0 0 0.19826 2.834 -195.82)"><stop stop-color="#225fa3"/><stop offset="1" stop-color="#3193d6"/></linearGradient><linearGradient id="2" gradientUnits="userSpaceOnUse" x1="0.004" x2="47.996" gradientTransform="matrix(0.11296 0 0 -0.05669 5.127 -48.42)"><stop stop-color="#225fa3"/><stop offset="1" stop-color="#2d7ec1"/></linearGradient></defs><path d="m 13.965 2.406 c 9.152 14.09 -15.844 19.539 -13.852 5.05 c 0.813 -5.91 10.352 -10.434 13.852 -5.05" fill="#ffa400"/><path d="m 4 4.094 c -0.187 0 -0.336 0.141 -0.336 0.32 v 7.289 c 0 0.18 0.148 0.32 0.336 0.32 h 7.668 c 0.188 0 0.336 -0.141 0.336 -0.32 v -7.289 c 0 -0.18 -0.148 -0.32 -0.336 -0.32 m -7.602 0.336 h 0.586 c 0.063 0 0.109 0.047 0.109 0.102 v 0.559 c 0 0.059 -0.047 0.105 -0.109 0.105 h -0.586 c -0.063 0 -0.109 -0.047 -0.109 -0.105 v -0.559 c 0 -0.055 0.047 -0.102 0.109 -0.102 m 6.949 0 h 0.586 c 0.063 0 0.109 0.047 0.109 0.102 v 0.559 c 0 0.059 -0.047 0.105 -0.109 0.105 h -0.586 c -0.063 0 -0.109 -0.047 -0.109 -0.105 v -0.559 c 0 -0.055 0.047 -0.102 0.109 -0.102 m -6.949 1.301 h 0.586 c 0.063 0 0.109 0.047 0.109 0.102 v 0.555 c 0 0.059 -0.047 0.102 -0.109 0.102 h -0.586 c -0.063 0 -0.109 -0.043 -0.109 -0.102 v -0.555 c 0 -0.055 0.047 -0.102 0.109 -0.102 m 6.949 0 h 0.586 c 0.063 0 0.109 0.047 0.109 0.102 v 0.555 c 0 0.059 -0.047 0.102 -0.109 0.102 h -0.586 c -0.063 0 -0.109 -0.043 -0.109 -0.102 v -0.555 c 0 -0.055 0.047 -0.102 0.109 -0.102 m -6.949 1.297 h 0.586 c 0.063 0 0.109 0.051 0.109 0.109 v 0.551 c 0 0.059 -0.047 0.102 -0.109 0.102 h -0.586 c -0.063 0 -0.109 -0.043 -0.109 -0.102 v -0.551 c 0 -0.059 0.047 -0.109 0.109 -0.109 m 6.949 0 h 0.586 c 0.063 0 0.109 0.051 0.109 0.109 v 0.551 c 0 0.059 -0.047 0.102 -0.109 0.102 h -0.586 c -0.063 0 -0.109 -0.043 -0.109 -0.102 v -0.551 c 0 -0.059 0.047 -0.109 0.109 -0.109 m -6.949 1.301 h 0.586 c 0.063 0 0.109 0.047 0.109 0.102 v 0.555 c 0 0.059 -0.047 0.105 -0.109 0.105 h -0.586 c -0.063 0 -0.109 -0.047 -0.109 -0.105 v -0.555 c 0 -0.055 0.047 -0.102 0.109 -0.102 m 6.949 0 h 0.586 c 0.063 0 0.109 0.047 0.109 0.102 v 0.555 c 0 0.059 -0.047 0.105 -0.109 0.105 h -0.586 c -0.063 0 -0.109 -0.047 -0.109 -0.105 v -0.555 c 0 -0.055 0.047 -0.102 0.109 -0.102 m -6.949 1.301 h 0.586 c 0.063 0 0.109 0.047 0.109 0.102 v 0.555 c 0 0.059 -0.047 0.102 -0.109 0.102 h -0.586 c -0.063 0 -0.109 -0.043 -0.109 -0.102 v -0.555 c 0 -0.055 0.047 -0.102 0.109 -0.102 m 6.949 0 h 0.586 c 0.063 0 0.109 0.047 0.109 0.102 v 0.555 c 0 0.059 -0.047 0.102 -0.109 0.102 h -0.586 c -0.063 0 -0.109 -0.043 -0.109 -0.102 v -0.555 c 0 -0.055 0.047 -0.102 0.109 -0.102 m -6.949 1.297 h 0.586 c 0.063 0 0.109 0.043 0.109 0.102 v 0.559 c 0 0.059 -0.047 0.102 -0.109 0.102 h -0.586 c -0.063 0 -0.109 -0.043 -0.109 -0.102 v -0.559 c 0 -0.059 0.047 -0.102 0.109 -0.102 m 6.949 0 h 0.586 c 0.063 0 0.109 0.043 0.109 0.102 v 0.559 c 0 0.059 -0.047 0.102 -0.109 0.102 h -0.586 c -0.063 0 -0.109 -0.043 -0.109 -0.102 v -0.559 c 0 -0.059 0.047 -0.102 0.109 -0.102" fill="url(#0)"/><path d="m 5.242 4.879 h 5.191 c 0.063 0 0.113 0.051 0.113 0.113 v 2.5 c 0 0.059 -0.051 0.109 -0.113 0.109 h -5.191 c -0.063 0 -0.117 -0.051 -0.117 -0.109 v -2.5 c 0 -0.063 0.055 -0.113 0.117 -0.113" fill="url(#1)"/><path d="m 5.242 11.238 h 5.191 c 0.063 0 0.113 -0.051 0.113 -0.113 v -2.5 c 0 -0.059 -0.051 -0.109 -0.113 -0.109 h -5.191 c -0.063 0 -0.117 0.051 -0.117 0.109 v 2.5 c 0 0.063 0.055 0.113 0.117 0.113" fill="url(#2)"/><path d="m 4.086 12.02 c 3.75 -0.199 3.75 -0.199 7.504 0" fill-opacity="0.349"/><path d="m 4.086 4.094 c 3.75 0.199 3.75 0.199 7.504 0" fill="#fff" fill-opacity="0.749"/></svg>