<svg xmlns="http://www.w3.org/2000/svg" viewBox="0 0 16 16"><path d="m 7.973 15.941 c -10.734 1.199 -10.586 -15.996 0.191 -15.793 c 10.02 -0.566 10.93 16.727 -0.191 15.793" fill="#d11353"/><g fill="#fff"><g fill-rule="evenodd"><path d="m 11.121 8 v 4.176 c 0 0.223 -0.16 0.402 -0.355 0.402 h -5.453 c -0.195 0 -0.355 -0.18 -0.355 -0.402 v -4.176"/><path d="m 247.31 478.23 c -34.36 0 -62.1 18.847 -62.1 42.46 v 55.24 h -21.353 c -9.818 0 -19.39 3.899 -24.299 9.748 c -5.154 5.849 -4.909 13.431 0 19.28 l 84.43 100.3 c 4.909 5.849 14.727 9.748 24.544 9.748 c 9.818 0 19.39 -3.899 24.299 -9.748 l 84.68 -100.3 c 4.909 -5.849 4.909 -13.431 0 -19.28 c -4.909 -5.849 -14.727 -9.748 -24.544 -9.748 h -21.353 v -55.24 c 0 -23.612 -27.735 -42.46 -61.851 -42.46" transform="matrix(0.01592 0 0 0.01803 4.01 -5.217)" stroke="#d11353"/></g><path d="m 4.742 7.988 l -0.563 1.34 h 7.91 l -0.703 -1.34"/></g></svg>