<svg xmlns="http://www.w3.org/2000/svg" viewBox="0 0 16 16"><path d="m 12.266 14.332 c -5.953 5.277 -15.11 -3.047 -11.41 -10.02 c 3.746 -7.05 16.14 -5.168 15.08 3.484 c -0.313 2.574 -1.73 4.809 -3.672 6.531" fill="#6395ec"/><path d="m 5.902 11.555 c -0.672 -0.082 -1.246 -0.531 -1.602 -1.25 c -0.141 -0.281 -0.176 -0.465 -0.203 -1.012 c -0.109 -2.215 1.145 -4.109 3.188 -4.816 c 0.781 -0.273 1.309 -0.336 2.402 -0.293 c 0.824 0.031 1.805 0.164 1.898 0.254 c 0.016 0.012 -0.164 1.148 -0.398 2.523 c -0.41 2.426 -0.563 3.547 -0.563 4.164 v 0.305 h -1.965 l 0.035 -0.359 c 0.02 -0.199 0.051 -0.496 0.07 -0.66 c 0.035 -0.332 -0.031 -0.379 -0.203 -0.129 c -0.063 0.09 -0.234 0.293 -0.383 0.445 c -0.645 0.668 -1.379 0.938 -2.277 0.828 m 1.613 -1.621 c 0.484 -0.211 0.973 -0.848 1.207 -1.574 c 0.156 -0.484 0.512 -2.01 0.539 -2.313 c 0.02 -0.18 -0.008 -0.23 -0.141 -0.297 c -0.227 -0.113 -0.637 -0.102 -1.02 0.02 c -0.441 0.145 -1.113 0.789 -1.391 1.336 c -0.406 0.809 -0.516 2.043 -0.227 2.527 c 0.117 0.195 0.48 0.418 0.672 0.418 c 0.055 0 0.219 -0.055 0.359 -0.117" fill="#fff"/></svg>