<svg xmlns="http://www.w3.org/2000/svg" viewBox="0 0 16 16"><path d="m 8.207 15.914 c -1.637 -0.125 -3.555 -0.902 -4.891 -1.984 c -1.625 -1.313 -2.813 -3.332 -3.133 -5.316 c -0.383 -2.625 1.152 -5.445 2.883 -6.785 c 0.871 -0.652 2.023 -1.172 3.102 -1.398 c 2.812 -0.59 5.742 0.527 7.754 2.957 c 1.203 1.457 1.828 2.926 1.98 4.664 c 0.184 2.082 -0.648 4.316 -2.16 5.82 c -1.719 1.418 -3.492 2.188 -5.535 2.043" fill="#721200"/><g fill="#fff"><path d="m 6.172 11.832 c -0.023 -0.117 -0.047 -0.699 -0.047 -1.289 c 0 -0.59 -0.02 -1.418 -0.043 -1.84 l -0.047 -0.766 l -0.574 -0.035 c -0.313 -0.02 -0.602 -0.066 -0.637 -0.102 c -0.039 -0.035 -0.059 -0.234 -0.047 -0.438 l 0.023 -0.371 l 0.645 -0.055 c 0.984 -0.086 3 -0.031 3.148 0.082 c 0.129 0.102 0.16 0.59 0.051 0.758 c -0.039 0.059 -0.227 0.109 -0.484 0.125 c -0.816 0.051 -0.727 -0.184 -0.754 2 c -0.02 1.492 -0.047 1.938 -0.121 2.027 c -0.074 0.086 -0.223 0.113 -0.582 0.113 h -0.488"/><path d="m 9.563 11.965 c -0.109 -0.105 -0.125 -4.812 -0.016 -4.973 c 0.074 -0.113 0.941 -0.152 1.055 -0.047 c 0.09 0.086 0.117 4.691 0.027 4.914 c -0.07 0.176 -0.102 0.188 -0.527 0.188 c -0.258 0 -0.492 -0.035 -0.539 -0.082"/></g><path d="m 0.762 4.891 c 0.516 -1.371 1.715 -2.848 2.906 -3.582 c 3.207 -1.984 7.04 -1.422 9.738 1.422 c 0.582 0.617 1.184 1.43 1.469 1.988 l 0.172 0.344 h -14.352" fill="#666"/><g fill="#fff"><path d="m 3.188 4.336 c -0.074 -0.074 -0.051 -0.289 0.063 -0.555 c 0.051 -0.117 0.133 -0.324 0.18 -0.457 c 0.102 -0.277 0.172 -0.383 0.281 -0.43 c 0.191 -0.082 0.367 0.102 0.527 0.555 c 0.039 0.41 0.484 1.152 0.078 0.945 c -0.094 -0.008 -0.246 -0.066 -0.352 -0.105 c -0.281 -0.113 -0.195 -0.125 -0.426 -0.008 c -0.227 0.113 -0.285 0.125 -0.352 0.055 m 0.785 -0.543 c -0.027 -0.074 -0.031 -0.148 -0.059 -0.227 c -0.059 -0.168 -0.219 -0.109 -0.219 0.078 c 0 0.105 -0.074 0.191 -0.004 0.191 c 0.043 0 0.328 0.086 0.281 -0.043"/><path d="m 5.05 4.426 c -0.227 -0.074 -0.289 -0.156 -0.332 -0.41 c -0.047 -0.293 0.02 -0.801 0.133 -1 c 0.078 -0.141 0.199 -0.164 0.25 -0.051 c 0.008 0.023 0.082 0.102 0.082 0.289 c 0.004 0.305 -0.07 0.664 -0.027 0.723 c 0.156 0.059 0.574 -0.109 0.578 0.172 c 0 0.207 -0.086 0.195 -0.156 0.195 c -0.176 0.133 -0.336 0.121 -0.527 0.086"/><path d="m 6.664 4.363 c -0.055 -0.059 -0.086 -0.137 -0.125 -0.301 c -0.031 -0.145 -0.07 -0.219 -0.109 -0.219 c -0.043 0 -0.086 0.066 -0.176 0.27 c -0.086 0.191 -0.152 0.277 -0.219 0.277 c -0.07 0 -0.082 -0.074 -0.059 -0.48 c 0.02 -0.367 0.066 -0.727 0.113 -0.875 c 0.066 -0.203 0.273 -0.211 0.398 -0.02 c 0.027 0.043 0.07 0.148 0.09 0.234 c 0.07 0.273 0.148 0.258 0.438 -0.082 c 0.09 -0.109 0.191 -0.219 0.223 -0.238 c 0.098 -0.066 0.234 0.012 0.277 0.16 c 0.035 0.133 0.027 0.883 -0.012 1.051 c -0.016 0.07 -0.043 0.148 -0.059 0.168 c -0.066 0.094 -0.156 0.016 -0.254 -0.223 c -0.078 -0.187 -0.117 -0.211 -0.18 -0.113 c -0.027 0.039 -0.066 0.129 -0.09 0.203 c -0.07 0.234 -0.156 0.297 -0.258 0.188"/><path d="m 8.41 4.391 c -0.105 -0.02 -0.387 -0.188 -0.512 -0.297 c -0.203 -0.246 -0.172 -0.59 0.047 -0.816 c 0.223 -0.23 0.437 -0.355 0.598 -0.352 c 0.457 0.012 0.785 0.648 0.586 1.141 c -0.055 0.141 -0.102 0.191 -0.25 0.262 c -0.129 0.063 -0.34 0.094 -0.469 0.063 m 0.27 -0.391 c 0.082 -0.094 0.145 -0.176 0.145 -0.297 c 0.004 -0.129 -0.066 -0.273 -0.168 -0.371 c -0.18 -0.109 -0.434 0.039 -0.488 0.25 c -0.02 0.09 0.051 0.25 0.176 0.398 c 0.113 0.113 0.246 0.109 0.336 0.02"/><path d="m 9.543 4.387 c -0.098 -0.051 -0.152 -0.125 -0.152 -0.215 c 0 -0.074 0.039 -0.102 0.164 -0.121 c 0.133 -0.023 0.191 -0.055 0.219 -0.117 c 0.035 -0.094 -0.016 -0.172 -0.219 -0.328 c -0.293 -0.23 -0.313 -0.305 -0.129 -0.512 c 0.152 -0.164 0.285 -0.219 0.543 -0.219 c 0.359 0 0.656 0.215 0.387 0.422 c -0.055 0.043 -0.477 0.02 -0.328 0.238 c 0.008 0.023 0.156 0.039 0.234 0.098 c 0.16 0.125 0.223 0.219 0.223 0.348 c -0.043 0.215 -0.227 0.332 -0.379 0.387 c -0.184 0.039 -0.402 0.098 -0.566 0.02"/><path d="m 11.289 4.434 c -0.059 -0.066 -0.082 -0.176 -0.098 -0.512 c -0.02 -0.461 -0.035 -0.492 -0.238 -0.582 c -0.137 -0.063 -0.258 -0.16 -0.258 -0.211 c 0 -0.148 0.324 -0.246 0.742 -0.223 c 0.41 0.02 0.641 0.113 0.641 0.258 c 0 0.078 -0.039 0.113 -0.207 0.184 c -0.137 0.055 -0.227 0.145 -0.266 0.27 c -0.012 0.039 -0.031 0.176 -0.039 0.305 c -0.02 0.281 0.047 0.352 -0.012 0.43 c -0.074 0.066 -0.215 0.09 -0.266 0.082"/></g></svg>