<svg xmlns="http://www.w3.org/2000/svg" viewBox="0 0 16 16"><defs><linearGradient id="0" gradientUnits="userSpaceOnUse" y1="33.603" x2="0" y2="23.582" gradientTransform="matrix(0 0.5226 -0.69549 0 28.07 19.495)"><stop stop-color="#1f7ecf"/><stop offset="1" stop-color="#2fc0e5"/></linearGradient></defs><path d="m 3.297 14.438 c 12.03 8 19.438 -17.504 3.891 -14.13 c -6.43 1.441 -10.328 10.461 -3.891 14.13" fill="#86cefa"/><path d="m 8.188 3.789 l -3.48 1.68 l 0.008 0.391 v 0.652 l -0.008 5.359 c 0 0.215 0.23 0.391 0.52 0.391 h 5.91 c 0.289 0 0.52 -0.172 0.52 -0.391 l 0.012 -5.359 v -0.652 l -0.012 -0.391 m -3.469 -1.148 c 0.332 0 0.605 0.234 0.605 0.527 c 0 0.293 -0.273 0.531 -0.605 0.531 c -0.336 0 -0.605 -0.238 -0.605 -0.531 c 0 -0.293 0.27 -0.527 0.605 -0.527" fill="url(#0)"/><path d="m 8.08 2.547 h 0.219 c 0.113 0 0.207 0.082 0.207 0.184 v 1.523 c 0 0.102 -0.094 0.184 -0.207 0.184 h -0.219 c -0.113 0 -0.207 -0.082 -0.207 -0.184 v -1.523 c 0 -0.102 0.094 -0.184 0.207 -0.184" fill="#353535"/><g fill="#fff" fill-opacity="0.059"><path d="m 8.02 2.547 h 0.051 c 0.031 0 0.055 0.02 0.055 0.047 v 1.664 c 0 0.023 -0.023 0.047 -0.055 0.047 h -0.051 c -0.031 0 -0.055 -0.023 -0.055 -0.047 v -1.664 c 0 -0.027 0.023 -0.047 0.055 -0.047"/><path d="m 8.305 2.547 h 0.051 c 0.031 0 0.055 0.02 0.055 0.047 v 1.664 c 0 0.023 -0.023 0.047 -0.055 0.047 h -0.051 c -0.031 0 -0.055 -0.023 -0.055 -0.047 v -1.664 c 0 -0.027 0.023 -0.047 0.055 -0.047"/></g><path d="m 7.711 3.789 h 0.953 c 0.086 0 0.156 0.063 0.156 0.141 c 0 0.078 -0.07 0.137 -0.156 0.137 h -0.953 c -0.086 0 -0.156 -0.059 -0.156 -0.137 c 0 -0.078 0.07 -0.141 0.156 -0.141" fill="#353535"/><path d="m 8.727 3.93 c 0 0.039 -0.039 0.07 -0.082 0.07 h -0.914 c -0.047 0 -0.082 -0.031 -0.082 -0.07 c 0 -0.039 0.035 -0.07 0.082 -0.07 h 0.914 c 0.043 0 0.082 0.031 0.082 0.07" fill="#fff" fill-opacity="0.059"/><g fill-rule="evenodd"><path d="m 7.398 8.102 v 1.918 c 0.004 0.176 -0.117 0.371 -0.371 0.496 c -0.348 0.172 -0.715 0.09 -0.852 -0.109 c -0.133 -0.199 -0.035 -0.516 0.316 -0.688 c 0.234 -0.117 0.477 -0.117 0.652 -0.043 v -2.508 l 2.563 -0.492 v 3.098 c 0 0.176 -0.121 0.371 -0.371 0.496 c -0.352 0.172 -0.719 0.086 -0.852 -0.113 c -0.137 -0.199 -0.035 -0.512 0.313 -0.684 c 0.234 -0.117 0.48 -0.117 0.652 -0.043 v -1.723" fill-opacity="0.141"/><path d="m 7.398 8.27 v 1.918 c 0.004 0.176 -0.117 0.371 -0.371 0.496 c -0.348 0.172 -0.715 0.09 -0.852 -0.109 c -0.133 -0.199 -0.035 -0.516 0.316 -0.688 c 0.234 -0.117 0.477 -0.117 0.652 -0.043 v -2.508 l 2.563 -0.492 v 3.098 c 0 0.176 -0.121 0.371 -0.371 0.496 c -0.352 0.172 -0.719 0.086 -0.852 -0.113 c -0.137 -0.199 -0.035 -0.512 0.313 -0.684 c 0.234 -0.117 0.48 -0.117 0.652 -0.043 v -1.723" fill="#fff"/></g></svg>