<svg xmlns="http://www.w3.org/2000/svg" viewBox="0 0 16 16"><path d="m 15.246 4.395 c -3.957 -8.781 -17.242 -3.129 -14.992 5.77 c 2.125 8.387 14.41 7.375 15.637 -0.742 c 0.254 -1.695 0.082 -3.418 -0.645 -5.03" fill="#d970d6"/><path d="m 8 4.547 c -0.848 0 -1.621 0.266 -2.191 0.707 c -0.57 0.445 -0.941 1.082 -0.941 1.789 v 0.258 c -0.566 0.285 -0.957 1.039 -0.957 1.922 c 0 1.129 0.641 2.043 1.469 2.043 v -4.223 c 0 -0.531 0.273 -1.016 0.746 -1.383 c 0.469 -0.367 1.137 -0.602 1.875 -0.602 c 0.742 0 1.406 0.234 1.875 0.602 c 0.473 0.367 0.746 0.852 0.746 1.383 v 4.223 c 0.828 0 1.469 -0.914 1.469 -2.043 c 0 -0.883 -0.391 -1.637 -0.957 -1.922 v -0.258 c 0 -0.707 -0.371 -1.344 -0.941 -1.789 c -0.57 -0.441 -1.344 -0.707 -2.191 -0.707 m -2.43 2.691 v 4.03 c 0.129 0 0.258 -0.063 0.32 -0.191 v -3.707 c -0.063 -0.063 -0.191 -0.129 -0.32 -0.129 m 4.859 0 c -0.129 0 -0.258 0.066 -0.32 0.129 v 3.707 c 0.063 0.129 0.191 0.191 0.32 0.191" fill="#fff"/></svg>