<svg xmlns="http://www.w3.org/2000/svg" viewBox="0 0 16 16"><path d="m 12.12 1.988 c 14.172 13.172 -15.07 21.469 -11.848 3.984 c 1.59 -4.613 7.301 -8.215 11.848 -3.984" fill="#8b008b"/><path d="m 4.156 13.25 c -0.078 -0.031 -0.18 -0.098 -0.23 -0.148 c -0.191 -0.199 -0.188 -0.156 -0.188 -2.871 v -2.523 h -0.195 c -0.168 0 -0.203 -0.012 -0.27 -0.105 c -0.07 -0.098 -0.07 -0.152 -0.07 -1.277 c 0 -1.164 0 -1.172 0.082 -1.277 c 0.063 -0.082 0.121 -0.113 0.266 -0.129 l 0.188 -0.02 v -0.316 c 0 -0.176 0.02 -0.371 0.047 -0.445 c 0.176 -0.469 0.895 -0.582 1.242 -0.191 c 0.152 0.172 0.211 0.367 0.211 0.715 c 0 0.246 0 0.25 0.102 0.25 c 0.148 0 0.324 0.078 0.363 0.16 c 0.023 0.043 0.035 0.566 0.035 1.27 v 1.195 l -0.082 0.086 c -0.059 0.066 -0.125 0.086 -0.25 0.086 h -0.168 v 2.449 c 0 1.664 -0.012 2.504 -0.039 2.609 c -0.105 0.426 -0.605 0.66 -1.043 0.484 m 3.03 0.012 c -0.184 -0.078 -0.293 -0.188 -0.371 -0.367 c -0.066 -0.152 -0.074 -0.246 -0.074 -0.82 v -0.645 h -0.18 c -0.133 0 -0.199 -0.023 -0.25 -0.082 c -0.07 -0.078 -0.07 -0.133 -0.07 -1.313 c 0 -1.414 -0.012 -1.363 0.32 -1.398 l 0.176 -0.02 l 0.012 -2.207 l 0.008 -2.207 l 0.098 -0.16 c 0.133 -0.227 0.309 -0.313 0.637 -0.313 c 0.328 0 0.504 0.086 0.637 0.313 l 0.098 0.16 l 0.008 2.207 l 0.012 2.207 l 0.176 0.02 c 0.332 0.035 0.32 -0.016 0.32 1.398 c 0 1.18 0 1.234 -0.07 1.313 c -0.051 0.059 -0.121 0.082 -0.246 0.082 h -0.18 l -0.012 0.691 c -0.008 0.672 -0.012 0.695 -0.105 0.852 c -0.051 0.09 -0.156 0.195 -0.23 0.238 c -0.164 0.086 -0.555 0.113 -0.711 0.051 m 3 -0.016 c -0.18 -0.07 -0.359 -0.285 -0.41 -0.484 c -0.023 -0.098 -0.035 -0.809 -0.035 -1.984 l -0.004 -1.828 h -0.125 c -0.141 0 -0.262 -0.059 -0.328 -0.156 c -0.031 -0.047 -0.043 -0.383 -0.043 -1.25 c -0.004 -1.137 0 -1.188 0.07 -1.289 c 0.063 -0.086 0.105 -0.105 0.25 -0.105 h 0.176 v -0.867 c 0 -0.512 0.02 -0.938 0.043 -1.031 c 0.16 -0.652 1.121 -0.738 1.418 -0.125 c 0.051 0.105 0.063 0.273 0.07 1.074 l 0.016 0.949 h 0.172 c 0.145 0 0.184 0.02 0.246 0.105 c 0.07 0.102 0.074 0.152 0.074 1.281 v 1.18 l -0.105 0.117 c -0.078 0.09 -0.137 0.117 -0.246 0.117 h -0.145 l -0.012 1.91 c -0.012 2.105 -0.004 2.035 -0.242 2.262 c -0.195 0.184 -0.555 0.238 -0.84 0.125" fill="#d970d6"/></svg>