<svg xmlns="http://www.w3.org/2000/svg" viewBox="0 0 16 16"><path d="m 15.391 9.504 c -1.605 10.773 -18.12 7.094 -15 -3.332 c 2.098 -9.906 19 -7.223 15 3.332" fill="#7a68ed"/><g fill="#fff"><path d="m 10.148 10.66 v 2.473 h 2.246 v -2.473"/><path d="m 6.957 10.66 v 2.473 h 2.246 v -2.473"/><path d="m 3.742 10.598 v 2.469 h 2.246 v -2.469"/><g fill-rule="evenodd" stroke="#fff" transform="scale(0.0625)"><path d="m 73.56 146.19 c -3.625 -0.938 -7.06 -2 -7.625 -2.375 c -0.625 -0.375 -1.125 -3.688 -1.125 -7.438 v -6.813 l 7.625 3 c 5.75 2.25 9.875 3 16.938 3.063 c 11 0.125 14.438 -1.875 14.438 -8.25 c 0 -5 -2.563 -6.625 -15.625 -9.688 c -13.5 -3.188 -19.06 -6.375 -22.12 -12.375 c -5.625 -11.125 -0.875 -23.375 10.938 -28.375 c 5.5 -2.313 21.25 -2.563 32 -0.438 l 8.25 1.563 v 7 c 0 6.188 -0.25 6.938 -2.125 6.188 c -11.875 -4.438 -28.938 -5.188 -32.813 -1.5 c -2.438 2.375 -2.5 7.563 -0.125 9.875 c 1 1 7.5 3.063 14.375 4.625 c 15.375 3.5 20.19 6.188 23.375 13.06 c 4.75 10.25 0.5 22.688 -9.438 27.625 c -6.313 3.188 -27.06 3.875 -36.938 1.25" stroke-width="1.364"/><path d="m 135.19 111.69 v -36.31 h 15.625 v 28.563 h 25.06 v -28.563 h 15.688 v 72.63 h -15.688 v -30.938 h -25.06 v 30.938 h -15.625" stroke-width="1.273"/></g></g></svg>