<svg xmlns="http://www.w3.org/2000/svg" viewBox="0 0 16 16"><path d="m 13.1 14.25 c -9.594 7.445 -19.559 -11.1 -7.676 -13.809 c 7.48 -2.781 14.789 8.289 7.676 13.809" fill="#696969"/><path d="m 4.801 11.551 c -0.039 -0.047 -0.063 -0.262 -0.063 -0.566 v -0.496 l 0.207 0.039 l 0.211 0.039 l 2 -2.371 c 1.098 -1.301 2 -2.402 2 -2.441 c 0 -0.168 -0.219 -0.195 -1.703 -0.195 h -1.512 l -0.578 0.563 c -0.32 0.305 -0.59 0.559 -0.602 0.559 c -0.012 0 -0.023 -0.59 -0.023 -1.309 v -1.305 l 0.137 0.152 c 0.078 0.082 0.188 0.18 0.246 0.215 c 0.074 0.047 0.898 0.066 2.758 0.066 h 2.648 l 0.23 -0.18 c 0.129 -0.098 0.254 -0.164 0.281 -0.145 c 0.031 0.023 0.051 0.281 0.051 0.605 v 0.566 l -2.051 2.445 c -1.129 1.344 -2.078 2.5 -2.105 2.566 c -0.031 0.066 -0.039 0.152 -0.02 0.188 c 0.043 0.082 3.18 0.113 3.23 0.031 c 0.016 -0.027 0.094 -0.105 0.176 -0.176 c 0.086 -0.07 0.258 -0.352 0.395 -0.645 c 0.133 -0.285 0.262 -0.527 0.285 -0.539 c 0.191 -0.25 0.09 1.012 0.09 1.105 v 1.297 h -3.113 c -2.359 0 -3.133 -0.02 -3.18 -0.07" fill="#e3e3e3"/></svg>