<svg xmlns="http://www.w3.org/2000/svg" viewBox="0 0 16 16"><path d="m 12.12 1.988 c 14.172 13.172 -15.07 21.469 -11.848 3.984 c 1.59 -4.613 7.301 -8.215 11.848 -3.984" fill="#2f4e4e"/><g fill="#fff" fill-rule="evenodd"><path d="m 7.148 12.75 c -0.824 -0.152 -1.641 -0.555 -2.203 -1.078 c -0.23 -0.215 -0.258 -0.273 -0.227 -0.445 c 0.043 -0.215 0.246 -0.422 0.414 -0.422 c 0.059 0 0.363 0.172 0.676 0.383 c 0.652 0.438 1.18 0.625 1.883 0.68 c 0.988 0.074 1.887 -0.27 2.605 -0.992 c 0.715 -0.715 1.047 -1.523 1.047 -2.523 c -0.004 -1.059 -0.324 -1.855 -1.043 -2.586 c -1.648 -1.672 -4.457 -1.188 -5.492 0.945 c -0.141 0.293 -0.273 0.664 -0.289 0.816 c -0.031 0.273 -0.027 0.281 0.156 0.281 c 0.102 0 0.238 0.039 0.305 0.086 c 0.113 0.082 0.105 0.109 -0.156 0.59 c -0.355 0.652 -0.813 1.363 -0.879 1.363 c -0.059 0 -0.629 -0.902 -0.91 -1.445 c -0.207 -0.402 -0.207 -0.531 0 -0.531 c 0.223 0 0.375 -0.215 0.516 -0.73 c 0.227 -0.84 0.582 -1.453 1.207 -2.074 c 0.906 -0.902 1.676 -1.258 2.871 -1.32 c 1.176 -0.059 2.031 0.195 2.953 0.887 c 0.758 0.566 1.422 1.555 1.668 2.473 c 0.156 0.578 0.156 1.809 0.004 2.324 c -0.504 1.695 -1.949 3.03 -3.609 3.324 c -0.582 0.105 -0.914 0.102 -1.496 -0.004"/><path d="m 8.922 9.773 c -0.309 -0.254 -0.742 -0.617 -0.961 -0.813 l -0.398 -0.355 v -0.797 c 0.004 -1.066 0.109 -2.301 0.207 -2.402 c 0.164 -0.164 0.242 0.02 0.301 0.719 c 0.035 0.383 0.094 1.035 0.133 1.453 c 0.074 0.852 0.023 0.746 0.871 1.824 c 0.496 0.629 0.609 0.828 0.469 0.828 c -0.031 0 -0.313 -0.207 -0.621 -0.457"/></g></svg>