<svg xmlns="http://www.w3.org/2000/svg" viewBox="0 0 16 16"><path d="m 7.785 15.914 c 1.648 -0.129 3.582 -0.914 4.926 -2.01 c 1.637 -1.332 2.836 -3.371 3.156 -5.387 c 0.383 -2.66 -1.16 -5.516 -2.902 -6.875 c -0.879 -0.66 -2.039 -1.184 -3.125 -1.414 c -2.832 -0.602 -5.785 0.535 -7.809 2.996 c -1.215 1.477 -1.844 2.965 -1.996 4.727 c -0.184 2.109 0.648 4.375 2.172 5.898 c 1.734 1.434 3.52 2.215 5.578 2.066" fill="#0195d2"/><path d="m 125.13 42.625 c -27.813 0.188 -55 13.688 -71.75 38.563 c -26.625 39.625 -16 92.56 23.875 119.44 c 18.06 12.188 46.75 15 64.56 12.06 c 29.375 -8.75 43.06 -17.75 54.38 -33.31 c 18.688 -25.438 21.625 -60.875 7.313 -89.19 c -5.813 -11.375 -16.375 -23.688 -26.813 -31.12 c -15.688 -11.25 -33.75 -16.563 -51.563 -16.438 m -1.25 9.688 c 16.13 -0.313 32.375 4.438 45.75 13.625 c 42.25 29 44.5 90.75 4.5 122.69 c -7.875 6.25 -19.875 12.25 -29.563 14.688 c -8.25 2.063 -21.25 2.813 -29.06 1.75 c -20.12 -2.813 -39.31 -13.938 -51.44 -29.813 c -4.688 -6.188 -10.438 -17.625 -12.938 -26 c -3.813 -14.5 -4.25 -26.875 0 -40.813 c 2.25 -7.5 7.25 -18 11.125 -23.313 c 2.938 -4.188 3 -4.125 1.5 1.563 c -0.625 2.313 -1.125 6.25 -1.125 8.813 c 0 3.625 -0.375 5.375 -1.75 7.75 c -1 1.625 -2.875 6.06 -4.125 9.813 c -3.375 12.875 -3.063 25 0.875 36.19 c 9.438 26.625 26 43.06 49.813 49.38 c 5.313 1.438 8 1.688 18 1.625 c 10.25 -0.063 12.75 -0.313 19.13 -2 c 26.06 -6.813 42.875 -24.438 49.875 -52.25 c 2.313 -9.125 3.375 -16.813 3.375 -25.19 c 0 -6.375 -0.125 -6.875 -1.438 -6.875 c -1.125 0 -1.563 -0.688 -1.875 -2.75 c -1.188 -7.563 -3.563 -15.688 -6.06 -20.625 c -2.875 -5.688 -5.063 -7.25 -4.813 -3.375 c 0.125 2 -0.063 1.875 -4.25 -2.313 c -5.375 -5.375 -11.188 -8.375 -20.12 -10.313 c -8.125 -1.75 -16.563 -2 -16.563 -0.438 c 0 0.688 1.25 1.438 3.125 1.875 c 6.25 1.625 10.5 2.938 11.5 3.563 c 1.063 0.688 0.5 0.875 -5.938 1.938 c -1.5 0.25 -2.875 0.938 -3.063 1.5 c -0.5 1.188 -0.438 1.25 4.688 2.813 c 8.313 2.625 15.313 7.75 19.813 14.438 c 3.375 5 3.625 6.188 1.313 6.06 c -1.313 -0.063 -1.625 0.313 -1.438 1.375 c 0.125 0.813 0.313 5.813 0.375 11.125 c 0.125 10.313 -0.5 12.438 -2.875 10.125 c -0.688 -0.688 -1.75 -1.125 -2.438 -1 c -0.938 0.188 -1.125 1 -0.938 4.313 c 0.313 5.625 -1.188 15.75 -2.875 19.19 l -1.375 2.938 l 0.375 -3 c 0.625 -4.188 -0.875 -4.875 -3.313 -1.688 c -10.06 13.375 -20.313 18 -32.875 14.938 c -5.25 -1.25 -13.563 -5.313 -13.5 -6.625 c 0 -0.375 0.75 -0.813 1.688 -0.875 c 5.75 -0.625 9.75 -2.063 14.938 -5.313 c 3.188 -2 6.563 -3.625 7.5 -3.625 c 4.688 0 6 -3.5 2.563 -6.688 c -4.813 -4.438 -9.875 -4.938 -18.813 -1.688 c -5.25 1.875 -6.06 2 -9.06 1.188 c -4.375 -1.188 -9.688 -4.875 -10.813 -7.563 c -2 -4.75 1.063 -8.313 5.938 -7 c 4.375 1.188 4.938 0.563 4.375 -5.125 l -0.5 -5 l 5.75 -3.688 c 6.625 -4.25 7.375 -4.938 7.938 -8 c 0.688 -3.375 -1.563 -4.563 -8.625 -4.563 c -5 0 -5.875 -0.25 -7.875 -1.875 c -1.375 -1.188 -2.25 -2.563 -2.25 -3.688 c 0 -2.625 2.438 -7 5.438 -9.625 c 3.25 -2.875 3.438 -4.5 0.375 -4.5 c -3.188 0 -10.125 2.563 -13.563 5.063 c -2.875 2 -3.25 2.063 -11.563 2.125 l -8.563 0.063 l -2.063 -2.375 c -1.188 -1.313 -2.5 -3.5 -3.063 -4.875 c -0.5 -1.438 -1.25 -3.188 -1.688 -3.875 c -0.875 -1.75 0.188 -2.938 7.875 -8.688 c 6.75 -5.125 18.06 -10.688 26.06 -12.875 c 6.06 -1.688 12.375 -2.5 18.625 -2.625" transform="scale(0.0625)" stroke="#0195d2" stroke-width="0.479"/></svg>