<svg xmlns="http://www.w3.org/2000/svg" viewBox="0 0 16 16"><path d="m 4.664 0.418 c 23.01 -3.566 5.672 28.992 -4.102 8.609 c -1.348 -3.141 -0.273 -7.465 4.102 -8.609" fill="#dc133c"/><path d="m 4.879 3.418 c -0.379 0 -0.684 0.309 -0.684 0.691 v 4.141 c 0 0.031 0.004 0.063 0.008 0.094 c 0 0 0 0 0 0.004 c -0.004 0.059 -0.008 0.113 -0.008 0.176 c 0 1.938 1.871 3.512 4.18 3.512 c 2.309 0 4.18 -1.57 4.18 -3.512 c 0 -1.941 -1.871 -3.516 -4.18 -3.516 c -1.086 0 -2.07 0.348 -2.816 0.918 v -1.816 c 0 -0.383 -0.301 -0.691 -0.68 -0.691 m 3.496 2.734 c 1.555 0 2.82 1.059 2.82 2.367 c 0 1.313 -1.262 2.375 -2.82 2.375 c -1.559 0 -2.816 -1.063 -2.816 -2.375 c 0 -1.309 1.258 -2.367 2.816 -2.367 m -1.418 1.691 c -0.438 0 -0.793 0.301 -0.793 0.668 c 0 0.371 0.355 0.672 0.793 0.672 c 0.441 0 0.797 -0.301 0.797 -0.672 c 0 -0.367 -0.359 -0.668 -0.797 -0.668" fill="#fff"/></svg>