<svg xmlns="http://www.w3.org/2000/svg" viewBox="0 0 16 16"><path d="m 0.184 9.781 c 0.992 6.504 9.805 8.246 13.695 3.602 c 3.426 -3.445 2.574 -10.05 -1.629 -12.313 c -4.824 -3.03 -11.855 0.719 -12.238 6.742 c -0.039 0.664 0.016 1.328 0.172 1.969" fill="#003e4e"/><g fill="#fff"><path d="m 5.633 12.156 c -0.313 -0.039 -0.563 -0.215 -0.625 -0.453 c -0.031 -0.113 -0.051 -1.047 -0.051 -2.371 v -2.188 l -0.188 -0.215 c -0.102 -0.117 -0.215 -0.238 -0.25 -0.266 c -0.105 -0.086 -0.082 -0.102 0.156 -0.102 c 0.195 0 0.227 0.008 0.281 0.102 c 0.035 0.059 0.094 0.121 0.129 0.141 c 0.035 0.023 0.113 0.102 0.172 0.176 c 0.102 0.137 0.102 0.184 0.102 2.445 c 0 2.242 0.004 2.313 0.102 2.379 c 0.051 0.035 0.172 0.074 0.266 0.086 c 0.09 0.012 1.215 0.016 2.492 0.012 c 2.207 -0.008 2.336 -0.016 2.438 -0.078 c 0.105 -0.066 0.105 -0.07 0.105 -2.387 c 0 -2.195 0.004 -2.328 0.09 -2.418 c 0.055 -0.051 0.172 -0.176 0.266 -0.277 c 0.16 -0.164 0.191 -0.18 0.363 -0.18 c 0.105 0 0.188 0.012 0.188 0.027 c 0 0.016 -0.094 0.129 -0.215 0.254 l -0.215 0.223 l -0.047 4.688 l -0.125 0.125 c -0.066 0.07 -0.203 0.164 -0.301 0.207 l -0.172 0.082 l -2.379 0.008 c -1.305 0 -2.465 -0.008 -2.582 -0.02"/><path d="m 5.914 9.41 v -2.121 h 4.34 v 4.238 h -4.34"/><path d="m 10.01 6.363 c 0 0.359 -0.313 0.652 -0.707 0.664 c -0.395 0.012 -0.73 -0.258 -0.758 -0.617 c -0.031 -0.355 0.262 -0.668 0.652 -0.707 c 0.395 -0.035 0.75 0.215 0.805 0.57"/><path d="m 7.05 6.492 c 0 0.234 -0.207 0.43 -0.469 0.438 c -0.258 0.008 -0.48 -0.172 -0.5 -0.41 c -0.016 -0.234 0.176 -0.441 0.434 -0.465 c 0.262 -0.027 0.496 0.141 0.531 0.375"/><path d="m 7.707 5.203 c 0 0.219 -0.191 0.398 -0.434 0.406 c -0.238 0.008 -0.445 -0.16 -0.461 -0.379 c -0.016 -0.215 0.16 -0.406 0.398 -0.43 c 0.242 -0.023 0.457 0.133 0.492 0.348"/><path d="m 8.07 6.266 c 0 0.129 -0.109 0.234 -0.254 0.238 c -0.141 0.004 -0.262 -0.094 -0.27 -0.223 c -0.012 -0.129 0.094 -0.238 0.234 -0.254 c 0.141 -0.012 0.27 0.078 0.289 0.203"/><path d="m 9.797 5.03 c 0 0.129 -0.113 0.234 -0.254 0.238 c -0.145 0.004 -0.262 -0.094 -0.273 -0.223 c -0.008 -0.125 0.094 -0.238 0.234 -0.254 c 0.145 -0.012 0.27 0.078 0.289 0.207"/><path d="m 7.688 3.473 c 0 0.129 -0.109 0.234 -0.254 0.238 c -0.141 0.004 -0.262 -0.094 -0.27 -0.219 c -0.012 -0.129 0.094 -0.242 0.234 -0.254 c 0.141 -0.016 0.27 0.074 0.289 0.203"/><path d="m 8.66 4.652 c 0 0.156 -0.137 0.281 -0.309 0.289 c -0.172 0.004 -0.316 -0.113 -0.328 -0.27 c -0.012 -0.156 0.113 -0.289 0.285 -0.309 c 0.168 -0.016 0.324 0.094 0.348 0.25"/></g></svg>