<svg xmlns="http://www.w3.org/2000/svg" viewBox="0 0 16 16"><path d="m 14.258 3.02 c 7.402 9.465 -11.03 19.289 -13.727 7.57 c -2.762 -7.379 8.242 -14.586 13.727 -7.57" fill-opacity="0.992"/><path d="m 6.082 10.797 c -0.02 -0.238 0.016 -0.422 0.031 -0.676 c -0.293 -0.055 -0.547 -0.07 -0.801 -0.07 c -0.695 -0.004 -0.715 -0.016 -0.645 -0.418 c 0.074 -0.41 0.121 -0.504 0.281 -0.539 c 0.219 -0.051 0.25 -0.098 0.215 -0.359 c -0.035 -0.297 -0.207 -1.094 -0.324 -1.512 c -0.133 -0.465 -0.203 -0.449 -0.559 0.109 c -0.324 0.512 -0.73 1.234 -0.816 1.441 c -0.07 0.172 -0.051 0.219 0.125 0.305 c 0.141 0.07 0.145 0.113 0.063 0.555 c -0.078 0.406 -0.039 0.391 -1.047 0.406 c -0.516 0.008 -0.91 -0.004 -0.945 -0.031 c -0.051 -0.035 -0.012 -0.125 0.207 -0.5 c 0.418 -0.715 1.473 -2.434 1.895 -3.094 l 0.383 -0.602 l 0.617 -0.008 c 0.34 -0.008 0.637 0.004 0.664 0.02 c 0.023 0.02 0.129 0.352 0.227 0.742 c 0.199 0.785 0.23 0.867 0.324 0.867 c 0.086 0 0.133 -0.145 0.277 -0.844 c 0.07 -0.328 0.133 -0.641 0.145 -0.691 c 0.02 -0.082 0.059 -0.098 0.277 -0.113 c 0.148 -0.012 0.207 -0.02 0.246 -0.055 c 0.141 -0.355 0.18 -0.68 0.258 -1.07 l 0.258 -0.012 c 0.102 -0.008 0.203 0.004 0.223 0.023 c 0.031 0.313 -0.109 0.578 -0.082 0.906 c 0.012 0.125 0.031 0.148 0.16 0.176 c 0.082 0.02 0.223 0.023 0.313 0.008 c 0.199 -0.031 0.238 -0.117 0.355 -0.691 c 0.078 -0.398 0.102 -0.43 0.332 -0.43 c 0.184 0 0.289 0.047 0.219 0.395 c -0.078 0.391 -0.098 0.582 -0.023 0.645 c 0.031 0.027 0.141 0.078 0.34 0.09 c 0.469 0.035 0.734 0.125 1 0.336 l 0.223 0.172 l 0.316 -0.156 c 0.574 -0.285 0.641 -0.293 2.105 -0.316 c 0.734 -0.012 1.352 -0.004 1.371 0.016 c 0.035 0.039 -0.098 0.793 -0.148 0.848 c -0.02 0.02 -0.617 0.051 -1.336 0.07 l -1.305 0.035 l -0.289 0.203 c -0.461 0.32 -0.625 0.602 -0.656 1.121 l -0.023 0.344 l 0.184 0.207 c 0.332 0.375 0.375 0.387 1.613 0.43 c 0.598 0.02 1.152 0.035 1.23 0.035 l 0.145 0.004 l -0.031 0.215 c -0.012 0.121 -0.055 0.32 -0.09 0.441 l -0.063 0.223 l -0.289 0.035 c -0.383 0.043 -2.242 -0.016 -2.453 -0.074 c -0.094 -0.027 -0.32 -0.129 -0.504 -0.223 c -0.188 -0.094 -0.363 -0.172 -0.398 -0.172 c -0.035 0 -0.18 0.066 -0.324 0.148 c -0.348 0.199 -0.648 0.289 -1.105 0.324 c -0.477 0.035 -0.332 0.109 -0.5 0.469 l -0.066 0.313 l -0.25 -0.016 c -0.258 0 -0.273 -0.023 -0.219 -0.348 c 0.039 -0.258 0.039 -0.285 -0.035 -0.344 c -0.051 -0.039 -0.191 -0.063 -0.367 -0.063 h -0.285 c -0.043 0.266 -0.121 0.539 -0.184 0.754 h -0.18 c -0.07 0 -0.219 0.008 -0.281 -0.004 m 2.809 -1.824 c 0.047 -0.055 0.113 -0.156 0.148 -0.223 c 0.059 -0.113 0.059 -0.137 0 -0.234 c -0.117 -0.188 -0.207 -0.203 -1.047 -0.207 c -0.988 -0.004 -1.02 0.008 -1.02 0.41 c 0 0.203 0.016 0.27 0.074 0.305 c 0.043 0.027 0.426 0.047 0.918 0.047 c 0.824 0.004 0.848 0 0.926 -0.098 m 0.301 -1.621 c 0.16 -0.188 0.152 -0.379 -0.02 -0.512 c -0.113 -0.09 -0.176 -0.094 -0.926 -0.094 c -0.906 0 -0.895 -0.008 -0.98 0.344 c -0.102 0.398 -0.031 0.426 1.039 0.418 l 0.762 -0.008" fill="#f29c03"/></svg>