<svg xmlns="http://www.w3.org/2000/svg" viewBox="0 0 16 16"><path d="m 14.25 13.1 c 7.445 -9.594 -11.1 -19.559 -13.809 -7.676 c -2.781 7.48 8.289 14.789 13.809 7.676" fill="#0b4751"/><path d="m 11.27 10.305 c -0.215 -0.234 -0.125 -0.301 0.414 -0.32 l 0.422 -0.012 l 0.031 -0.176 c 0.02 -0.094 0.02 -0.523 0 -0.953 l -0.027 -0.777 c -0.105 -0.027 -0.207 -0.055 -0.309 -0.082 c 0.008 -0.156 0.016 -0.313 0.023 -0.469 l 0.32 -0.012 l 0.32 -0.016 l 0.238 0.277 l 0.234 0.277 v 1.84 l -0.234 0.266 l -0.238 0.262 l -0.543 0.008 c -0.539 0.008 -0.543 0.008 -0.652 -0.113 m -0.301 -0.867 c -0.125 -0.129 -0.242 -0.285 -0.262 -0.348 c -0.02 -0.059 -0.027 -0.324 -0.012 -0.59 l 0.027 -0.484 l 0.234 -0.262 c 0.203 -0.234 0.25 -0.266 0.367 -0.25 l 0.137 0.012 l 0.012 0.773 c 0.012 0.832 -0.129 0.934 0.234 0.934 c 0.148 0 0.168 0.164 0.035 0.32 c -0.098 0.117 -0.145 0.133 -0.332 0.133 c -0.207 0 -0.23 -0.012 -0.441 -0.238 m -7.887 0.059 c -0.016 -0.031 -0.035 -2.062 -0.02 -2.687 c 0 -0.027 0.141 -0.039 0.395 -0.031 l 0.395 0.012 v 2.727 l -0.371 0.016 c -0.223 0.008 -0.383 -0.008 -0.398 -0.035 m 1.098 -0.027 c -0.043 -0.125 -0.027 -0.371 0.027 -0.422 c 0.027 -0.027 0.09 -0.035 0.141 -0.023 c 0.047 0.016 0.148 0 0.23 -0.027 c 0.141 -0.055 0.145 -0.059 0.145 -0.301 c 0 -0.289 -0.07 -0.352 -0.34 -0.328 l -0.168 0.012 c -0.008 -0.141 -0.016 -0.285 -0.023 -0.43 h 0.199 c 0.313 0 0.332 -0.016 0.332 -0.32 c 0 -0.164 -0.02 -0.281 -0.051 -0.301 c -0.027 -0.023 -0.152 -0.047 -0.273 -0.063 c -0.223 -0.023 -0.223 -0.023 -0.23 -0.18 c -0.012 -0.32 -0.016 -0.32 0.465 -0.32 h 0.43 l 0.234 0.262 l 0.234 0.258 v 0.301 c 0 0.262 -0.012 0.316 -0.102 0.406 c -0.125 0.133 -0.125 0.16 0 0.328 c 0.082 0.113 0.102 0.184 0.102 0.414 c 0 0.273 0 0.273 -0.238 0.539 l -0.234 0.266 h -0.426 c -0.355 0 -0.434 -0.012 -0.453 -0.07 m 1.844 -0.219 l -0.25 -0.293 v -0.484 c 0 -0.281 0.02 -0.527 0.047 -0.582 c 0.027 -0.055 0.137 -0.199 0.246 -0.32 c 0.191 -0.211 0.207 -0.219 0.406 -0.203 l 0.211 0.012 l 0.035 0.199 c 0.027 0.172 0.051 0.254 -0.051 0.328 c -0.168 0.125 -0.195 0.195 -0.195 0.543 c 0 0.23 0.043 0.465 0.148 0.492 c 0.043 0.012 0.043 0.188 0.051 0.328 l 0.012 0.246 l -0.203 0.016 c -0.203 0.012 -0.207 0.012 -0.457 -0.281 m 0.949 0.219 c -0.055 -0.16 -0.023 -0.305 0.098 -0.422 c 0.121 -0.117 0.188 -0.133 0.188 -0.625 c 0 -0.477 -0.07 -0.477 -0.168 -0.52 c -0.105 -0.043 -0.172 -0.277 -0.125 -0.449 c 0.023 -0.086 0.059 -0.094 0.297 -0.094 h 0.27 l 0.215 0.246 l 0.215 0.25 v 1.164 l -0.234 0.262 c -0.234 0.258 -0.234 0.258 -0.484 0.258 c -0.188 0 -0.25 -0.016 -0.27 -0.07 m 1.379 -0.004 c -0.016 -0.016 -0.027 -0.484 -0.027 -1.043 c 0 -0.879 0.008 -1.012 0.063 -1.035 c 0.094 -0.043 0.637 -0.035 0.695 0.008 c 0.039 0.027 0.051 0.273 0.043 1.059 l -0.012 1.02 l -0.367 0.012 c -0.199 0.008 -0.379 0 -0.395 -0.02 m 1.293 -0.996 c -0.016 -0.039 -0.027 -0.129 -0.027 -0.195 c 0 -0.16 -0.035 -0.215 -0.172 -0.25 c -0.148 -0.043 -0.082 -0.07 -0.07 -0.461 c 0.004 -0.148 0.207 -0.07 0.41 -0.07 c 0.223 0 0.242 0.012 0.391 0.188 c 0.082 0.102 0.172 0.23 0.199 0.285 c 0.066 0.125 0.066 0.449 0.004 0.52 c -0.027 0.035 -0.176 0.055 -0.379 0.055 c -0.266 0 -0.336 -0.016 -0.355 -0.07" fill="#27b827"/></svg>