<svg xmlns="http://www.w3.org/2000/svg" viewBox="0 0 16 16"><path d="m 4.16 14.688 c 20.5 8.406 10.867 -26.953 -2.52 -9.781 c -2.332 3.078 -2.512 8.25 2.52 9.781"/><path d="m 4 12.07 c -0.129 -0.125 -0.203 -0.168 -0.32 -0.184 c -0.242 0.219 -0.371 -0.027 -0.152 -0.203 c 0 -0.188 0 -0.188 0.141 -0.227 c 0.207 -0.063 0.234 -0.055 0.434 0.078 c 0.102 0.063 0.223 0.133 0.273 0.145 c 0.215 0.07 0.469 0.004 0.734 -0.18 c 0.16 -0.113 0.332 -0.098 0.484 0.047 c 0.18 0.164 0.223 0.102 0.387 -0.543 c 0.137 -0.531 0.281 -1.051 0.352 -1.266 c 0.043 -0.125 0.098 -0.32 0.125 -0.426 c 0.324 -1.332 0.473 -1.637 0.941 -1.914 c 0.125 -0.07 0.305 -0.145 0.395 -0.16 c 0.465 -0.082 0.441 -0.082 0.48 0.023 c 0.02 0.051 0.039 0.156 0.039 0.234 c 0 0.191 -0.102 0.285 -0.301 0.285 c -0.184 0 -0.449 0.152 -0.574 0.328 c -0.176 0.371 -0.258 0.738 -0.379 1.148 c -0.086 0.309 -0.242 0.906 -0.328 1.266 c -0.113 0.313 -0.148 0.602 -0.266 0.902 c -0.055 0.102 -0.012 0.113 0.172 0.043 c 0.188 -0.07 0.258 -0.055 0.48 0.098 c 0.281 0.191 0.637 0.172 0.926 -0.051 c 0.168 -0.129 0.316 -0.121 0.492 0.02 c 0.063 0.051 0.137 0.094 0.164 0.094 c 0.066 0 0.129 -0.113 0.129 -0.23 c 0 -0.141 0.074 -0.262 0.188 -0.301 c 0.137 -0.047 0.363 -0.27 0.363 -0.355 c 0.043 -0.137 0.258 -0.391 0.047 -0.344 c -0.125 0.031 -0.277 -0.07 -0.262 -0.172 c 0.012 -0.063 0.047 -0.082 0.188 -0.102 c 0.18 -0.059 0.492 -0.141 0.32 -0.332 c -0.098 -0.086 -0.09 -0.176 0.02 -0.246 c 0.082 -0.051 0.094 -0.086 0.094 -0.25 c 0 -0.23 -0.051 -0.277 -0.172 -0.152 c -0.172 0.125 -0.258 0 -0.125 -0.117 c 0.063 -0.035 0.074 -0.074 0.074 -0.285 c 0 -0.207 -0.016 -0.277 -0.117 -0.465 c -0.078 -0.141 -0.156 -0.234 -0.215 -0.254 c -0.121 -0.047 -0.219 -0.137 -0.219 -0.203 c 0 -0.031 0.082 -0.137 0.184 -0.238 l 0.188 -0.18 l -0.094 -0.086 c -0.113 -0.102 -0.117 -0.164 -0.02 -0.215 c 0.125 -0.066 0.152 -0.156 0.09 -0.324 c -0.066 -0.188 -0.023 -0.359 0.113 -0.418 c 0.102 -0.043 0.109 -0.078 0.047 -0.246 c -0.039 -0.098 -0.035 -0.125 0.008 -0.152 c 0.027 -0.016 0.063 -0.023 0.078 -0.012 c 0.016 0.008 0.063 0 0.098 -0.02 c 0.055 -0.027 0.074 -0.09 0.09 -0.285 c 0.02 -0.266 0.066 -0.359 0.18 -0.359 c 0.086 0 0.141 -0.113 0.07 -0.137 c -0.027 -0.008 -0.109 -0.07 -0.188 -0.137 c -0.129 -0.113 -0.148 -0.117 -0.418 -0.117 c -0.27 0 -0.293 0.004 -0.391 0.105 c -0.086 0.09 -0.125 0.105 -0.207 0.086 c -0.234 -0.051 -0.395 -0.316 -0.227 -0.52 c 0.039 -0.051 0.176 -0.063 0.176 -0.086 c 0 -0.027 0.035 -0.066 0.074 -0.086 c 0.074 -0.039 0.094 -0.027 0.199 0.121 c 0.012 0.031 0.652 -0.59 0.469 -0.078 c -0.051 0.133 0 0.184 0.156 0.156 c 0.277 -0.051 0.426 -0.469 0.223 -0.637 c -0.059 -0.051 -0.102 -0.137 -0.117 -0.238 c -0.027 -0.16 -0.027 -0.16 -0.195 -0.172 c -0.273 -0.016 -0.328 -0.035 -0.328 -0.129 c 0 -0.047 0.027 -0.094 0.059 -0.105 c 0.125 -0.047 0.418 -0.023 0.535 0.047 c 0.07 0.035 0.215 0.082 0.324 0.105 c 0.246 0.043 0.531 0.148 0.629 0.227 c 0.102 0.086 0.094 0.348 -0.023 0.707 c -0.078 0.242 -0.094 0.332 -0.07 0.504 c 0.031 0.297 0.113 0.504 -0.227 0.836 c -0.129 0.129 -0.172 0.305 -0.211 0.465 c -0.027 0.133 -0.098 0.383 -0.148 0.559 c -0.082 0.313 -0.117 0.543 -0.25 0.809 l 0.258 0.258 c 0.336 0.328 0.461 0.574 0.48 0.957 c 0.012 0.203 -0.004 0.336 -0.059 0.516 c -0.074 0.23 -0.125 0.488 -0.195 0.707 c -0.102 0.324 -0.191 0.668 -0.273 0.977 c -0.113 0.414 -0.113 0.469 -0.012 0.563 c 0.242 0.219 0.598 0.203 0.965 -0.039 c 0.176 -0.113 0.27 -0.117 0.43 -0.012 c 0.07 0.043 0.27 0.152 0.445 0.238 c 0.176 0.086 0.328 0.176 0.34 0.199 c 0.016 0.109 -0.008 0.191 -0.023 0.301 h -0.348 c -0.371 0 -0.422 -0.02 -0.488 -0.195 c -0.035 -0.086 -0.188 -0.133 -0.188 -0.059 c 0 0.02 -0.043 0.082 -0.094 0.145 c -0.094 0.105 -0.105 0.109 -0.402 0.109 c -0.238 0 -0.309 -0.012 -0.324 -0.055 c -0.027 -0.07 -0.168 -0.07 -0.195 0 c -0.031 0.074 -0.148 0.066 -0.234 -0.016 c -0.043 -0.039 -0.105 -0.074 -0.141 -0.074 c -0.035 0 -0.129 0.035 -0.211 0.074 c -0.121 0.059 -0.215 0.07 -0.613 0.07 c -0.262 0 -0.473 -0.016 -0.473 -0.035 c 0 -0.016 -0.059 -0.051 -0.129 -0.074 c -0.133 -0.043 -0.387 0.008 -0.387 0.074 c 0 0.02 -0.195 0.035 -0.438 0.035 c -0.383 0 -0.457 -0.012 -0.57 -0.074 c -0.145 -0.086 -0.344 -0.074 -0.441 0.02 c -0.039 0.043 -0.16 0.055 -0.516 0.055 c -0.258 0 -0.465 -0.016 -0.465 -0.035 c 0 -0.07 -0.246 -0.113 -0.402 -0.07 c -0.082 0.023 -0.148 0.059 -0.148 0.074 c -0.168 0.039 -0.387 0.063 -0.527 -0.023 c -0.012 -0.027 -0.047 -0.055 -0.074 -0.055 c -0.031 0 -0.082 0.027 -0.109 0.055 c -0.09 0.086 -0.145 0.066 -0.324 -0.109 m 5.586 -0.816 c -0.012 -0.016 -0.031 -0.273 -0.242 -0.09 c -0.016 0.012 0.109 -0.027 -0.129 0.129 c -0.238 0.156 0.055 0.27 0.078 0.27 c 0.02 0 0.5 -0.016 0.293 -0.309 m 0.457 -2.965 c 0.094 -0.188 -0.277 -0.559 -0.48 -0.469 c -0.094 0.039 0.047 0.215 0.047 0.234 c 0 0.02 0.309 0.375 0.121 0.152 c -0.02 -0.023 0.211 0.281 0.313 0.082 m 2.461 3.473 c -0.086 -0.199 0.117 -0.391 0.348 -0.336 c 0.094 0.023 0.215 0.063 0.215 0.277 c -0.016 0.316 -0.457 0.297 -0.563 0.059 m -3.457 -1.043 c -0.066 -0.082 -0.027 -0.18 0.074 -0.18 c 0.066 0 0.098 0.023 0.105 0.078 c 0.012 0.105 -0.113 0.176 -0.176 0.102 m 0.164 -0.832 c -0.023 -0.074 0.074 -0.477 0.133 -0.516 c 0.059 -0.035 0.105 0.367 0.105 0.457 c 0 0.129 -0.199 0.176 -0.238 0.059 m -1.852 -0.043 c -0.105 -0.094 -0.137 -0.215 -0.086 -0.359 c 0.023 -0.066 0.09 -0.297 0.145 -0.512 c 0.137 -0.504 0.164 -0.563 0.285 -0.656 c 0.121 -0.09 0.219 -0.074 0.344 0.059 c 0.074 0.082 0.082 0.117 0.063 0.27 c -0.047 0.305 -0.168 0.559 -0.223 0.863 c -0.023 0.133 -0.137 0.324 -0.223 0.383 c -0.07 0.051 -0.227 0.027 -0.305 -0.047 m 1.18 -1.945 c -0.07 -0.078 0.09 -0.227 0.191 -0.227 c 0.055 0 0.098 0.027 0.113 0.074 c 0.023 0.078 -0.035 0.176 -0.113 0.176 c -0.023 0 -0.168 0.004 -0.191 -0.023 m -0.168 -0.98 c 0 -0.082 0.254 -0.41 0.277 -0.469 c 0.105 -0.305 0.262 0.094 0.262 0.156 c 0 0.07 -0.113 0.496 -0.16 0.496 c -0.094 -0.031 -0.359 -0.094 -0.379 -0.184 m 0.402 -0.84 c -0.133 -0.105 -0.172 -0.152 -0.164 -0.223 c 0.012 -0.074 0.035 -0.09 0.148 -0.102 c 0.195 -0.016 0.359 0.078 0.359 0.199 c 0 0.102 -0.09 0.258 -0.145 0.258 c -0.016 0 -0.105 -0.059 -0.199 -0.133 m 0.613 -0.305 c -0.016 -0.023 -0.031 -0.094 -0.031 -0.156 c 0 -0.141 -0.059 -0.168 -0.109 -0.055 c -0.047 0.105 -0.305 0.113 -0.402 0.012 c -0.102 -0.109 -0.02 -0.219 0.164 -0.219 c 0.121 0 0.156 -0.016 0.191 -0.086 c 0.059 -0.133 0.16 -0.113 0.328 0.059 c 0.16 0.168 0.172 0.223 0.082 0.352 c -0.102 0.145 -0.172 0.172 -0.223 0.094 m -0.227 -1.668 c -0.043 -0.016 -0.09 -0.055 -0.102 -0.086 c -0.027 -0.07 0.047 -0.16 0.133 -0.16 c 0.039 0 -0.047 -0.133 0.012 -0.184 c 0.125 -0.098 0.383 -0.012 0.441 0.082 c 0.031 0.051 0.012 0.086 -0.109 0.199 c -0.164 0.156 -0.254 0.191 -0.375 0.148" fill="#fff"/></svg>