<svg xmlns="http://www.w3.org/2000/svg" viewBox="0 0 16 16"><defs><clipPath id="0"><path d="m 4 4 h 8 v 8 h -8"/></clipPath><clipPath id="1"><path d="m 2.703 1.223 h 11.02 c 0.641 0 1.16 0.543 1.16 1.215 v 11.531 c 0 0.668 -0.52 1.215 -1.16 1.215 h -11.02 c -0.641 0 -1.16 -0.547 -1.16 -1.215 v -11.531 c 0 -0.672 0.52 -1.215 1.16 -1.215"/></clipPath></defs><path d="m 3.297 14.438 c 12.03 8 19.438 -17.504 3.891 -14.13 c -6.43 1.441 -10.328 10.465 -3.891 14.13" fill="#1e8fff"/><g clip-path="url(#0)"><g clip-path="url(#1)"><path d="m 8.566 4.273 c -0.152 -0.023 -0.336 -0.047 -0.574 -0.078 c -0.883 -0.113 -0.883 -0.113 -1.094 -0.086 c -0.434 0.063 -0.914 0.305 -1.234 0.602 c -0.348 0.324 -0.625 0.707 -0.695 1.207 c -0.031 0.238 -0.23 1.672 -0.355 2.57 c -0.219 1.945 0.785 2.648 1.66 2.82 c 0.188 0.027 2.586 0.355 2.871 0.398 c 1.113 0.059 2.145 -0.891 2.281 -1.66 l 0.148 -1.074 c 0.125 -0.891 0.168 -1.199 0.09 -1.332 c -0.086 -0.141 -0.152 -0.207 -0.457 -0.25 c -0.297 -0.043 -0.406 -0.043 -0.492 -0.133 c -0.113 -0.113 -0.133 -0.207 -0.113 -0.488 c 0.07 -1 -0.41 -1.883 -1.254 -2.293 c -0.207 -0.102 -0.332 -0.145 -0.781 -0.211 m -1.371 1.656 l 1.266 0.176 c 0.254 0.035 0.43 0.277 0.391 0.543 c -0.035 0.27 -0.262 0.395 -0.516 0.359 l -1.266 -0.176 c -0.254 -0.035 -0.438 -0.219 -0.402 -0.484 c 0.039 -0.266 0.273 -0.453 0.527 -0.418 m -0.375 2.707 l 2.531 0.348 c 0.254 0.035 0.438 0.219 0.398 0.484 c -0.035 0.266 -0.27 0.453 -0.523 0.418 l -2.531 -0.348 c -0.254 -0.035 -0.43 -0.277 -0.391 -0.547 c 0.035 -0.266 0.262 -0.391 0.516 -0.355" fill="#ffffef"/></g></g></svg>