<svg xmlns="http://www.w3.org/2000/svg" viewBox="0 0 16 16"><path d="m 4.164 1.891 c 3.695 -3.652 7.105 -0.977 9.91 1.93 c 2.281 2.363 2.383 4.559 0.871 6.887 c -3.949 6.074 -9.08 8.324 -14.445 -1.098 c -1.324 -3.105 1.469 -5.996 3.664 -7.719" fill="#86942f"/><g transform="matrix(0.02407 0 0 0.02362 7.154 6.351)"><g fill="#ffd733"><path d="m 36.948 -144.34 h -0.974 l 211.33 213.67 l -211.33 222.43 l 2.11 1.158 l -222.52 -211.35" stroke="#fff"/><path d="m 36.461 -124.33 l 3.895 2.977 l 187.14 191.01 l -172.37 181.42 l -19.802 19.68 l -199.96 -190.02" stroke="#000" stroke-width="12.715"/></g><path d="m 34.35 -57.18 c 0 0 64.6 89.14 62.976 96.58 c -1.461 6.119 -43.661 0 -43.661 0 c 0 0 7.466 38.2 15.906 55.4 c 9.252 19.18 37.17 53.58 37.17 53.58 l -14.12 19.18 c 0 0 -31.16 -34.73 -36.519 -32.745 c -8.602 3.308 -4.869 58.54 -4.869 58.54 h -41.23 l -0.162 -153.97 c 0 0 -36.03 4.631 -38.954 0 c -3.895 -6.119 63.46 -96.58 63.46 -96.58" stroke="#fff" stroke-width="1.915"/></g><path d="m 8.04 3.215 l 0.227 0.223 l -5.066 5 l -0.227 -0.223"/></svg>