<svg xmlns="http://www.w3.org/2000/svg" viewBox="0 0 16 16"><path d="m 15.484 5.801 c 2.984 8.34 -7.75 12.395 -11.785 9 c -4.03 -3.395 -5.41 -9.215 -0.84 -12.141 c 4.566 -2.926 9.637 -5.195 12.625 3.141" fill="#ff8c00"/><path d="m 389.25 260.25 c -30.722 1.085 -32.34 -15.289 -38.949 -15.1 c -8.349 0.189 -5.188 16.422 -35.18 15.336" transform="matrix(0.09638 0 0 0.08278 -25.973 -8.43)" fill="#ffdeac" fill-rule="evenodd" stroke="#fff" stroke-width="3.02"/><g fill="#fff"><path d="m 5.488 11.367 c -0.582 -0.188 -0.957 -0.5 -1.176 -0.98 c -0.125 -0.277 -0.168 -1.02 -0.078 -1.332 c 0.156 -0.555 0.563 -0.973 1.145 -1.184 c 0.57 -0.203 1.457 -0.172 2.01 0.07 c 0.148 0.066 0.148 0.074 0.148 0.484 v 0.414 l -0.273 -0.145 c -0.746 -0.395 -1.574 -0.258 -1.859 0.309 c -0.133 0.273 -0.133 0.926 0.004 1.199 c 0.277 0.551 1.098 0.688 1.84 0.309 l 0.293 -0.148 v 0.836 l -0.348 0.121 c -0.285 0.102 -0.426 0.125 -0.867 0.133 c -0.449 0.012 -0.566 0 -0.832 -0.086"/><path d="m 8.363 9.648 v -1.828 l 0.727 0.004 c 1.367 0 1.902 0.113 2.344 0.48 c 0.93 0.793 0.395 2.516 -0.313 2.875 c -0.379 0.195 -0.727 0.246 -1.781 0.273 l -0.977 0.023 m 1.977 -0.898 c 0.422 -0.168 0.578 -0.465 0.543 -1.035 c -0.027 -0.438 -0.109 -0.598 -0.398 -0.77 c -0.191 -0.113 -0.82 -0.227 -0.988 -0.176 c -0.078 0.023 -0.09 0.156 -0.09 1.043 v 1.02 h 0.363 c 0.25 0 0.426 -0.027 0.57 -0.082"/><g fill-rule="evenodd"><path d="m 11.125 4.082 c 0 -0.332 0 -0.719 0 -1.055 c 0 -0.195 -0.113 -0.414 -0.215 -0.551 c -0.301 -0.395 -0.652 -0.504 -1.195 -0.504 c 0 0 0 0.605 0 0.754 c 0.109 0 0.219 0 0.379 0 c 0.109 0 0.328 0.102 0.328 0.301 c 0 0.301 0 1.055 0 1.055"/><path d="m 8.414 4.082 c 0 -0.332 0 -0.719 0 -1.055 c 0 -0.195 0.113 -0.414 0.219 -0.551 c 0.297 -0.395 0.648 -0.504 1.191 -0.504 c 0 0 0 0.605 0 0.754 c -0.109 0 -0.215 0 -0.379 0 c -0.109 0 -0.324 0.102 -0.324 0.301 c 0 0.301 0 1.055 0 1.055"/></g><path d="m 6.254 5.539 v -1.375 h 3.453 v 2.746 h -3.453 m 1.961 -0.32 c 0.039 -0.016 0.047 -0.078 0.047 -0.391 v -0.371 l 0.098 -0.063 c 0.234 -0.16 0.289 -0.543 0.113 -0.766 c -0.277 -0.352 -0.902 -0.305 -1.109 0.082 c -0.105 0.195 -0.031 0.531 0.152 0.66 l 0.09 0.063 v 0.371 c 0 0.32 0.008 0.375 0.055 0.402 c 0.059 0.031 0.473 0.043 0.555 0.012"/></g></svg>