<svg xmlns="http://www.w3.org/2000/svg" viewBox="0 0 16 16"><path d="m 3.734 1.727 c 5.953 -5.254 15.11 3.035 11.41 9.977 c -3.746 7.02 -16.14 5.145 -15.08 -3.473 c 0.313 -2.562 1.73 -4.789 3.672 -6.504" fill="#9370db"/><g fill="#fff"><path d="m 4.492 3.039 v 0.789 h -1.043 c -0.207 0 -0.348 0.164 -0.348 0.328 v 8.734 c 0 0.168 0.172 0.332 0.348 0.332 h 9.04 c 0.172 0 0.348 -0.164 0.348 -0.328 v -8.738 c 0 -0.164 -0.176 -0.328 -0.348 -0.328 h -1.043 v -0.789 c 0 -0.328 0 -0.328 -0.348 -0.328 h -0.902 c -0.348 0 -0.348 0 -0.348 0.328 v 0.66 h -3.754 v -0.66 c 0 -0.328 0 -0.328 -0.348 -0.328 h -0.902 c -0.348 0 -0.348 0 -0.348 0.328 m 0.461 0.109 h 0.676 v 1.316 c 0 0.547 -0.676 0.547 -0.676 0 m 5.352 -1.316 h 0.672 v 1.316 c 0 0.547 -0.672 0.547 -0.672 0 m -6.508 1.531 h 8.34 v 6.566 h -8.34"/><path d="m 6.777 11.469 l 1.762 -2.949 h -2.277 v -0.641 h 3.418 v 0.477 l -1.809 3.113"/></g></svg>