<svg xmlns="http://www.w3.org/2000/svg" viewBox="0 0 16 16"><path d="m 1.563 3.297 c -8 12.03 17.504 19.438 14.13 3.891 c -1.441 -6.426 -10.465 -10.328 -14.13 -3.891" fill="#778799"/><path d="m 7.918 3.703 c 2.305 0 4.176 1.918 4.176 4.277 c 0 2.363 -1.871 4.281 -4.176 4.281 c -2.309 0 -4.18 -1.918 -4.18 -4.281 c 0 -2.359 1.871 -4.277 4.18 -4.277" fill="#bcc2c7"/><g fill-rule="evenodd"><path d="m 7.914 5.844 c -0.547 0 -1.09 0.23 -1.477 0.625 c -0.383 0.398 -0.609 0.953 -0.609 1.512 c 0 0.562 0.227 1.117 0.609 1.516 c 0.387 0.395 0.93 0.625 1.477 0.625 c 0.547 0 1.09 -0.23 1.48 -0.625 c 0.387 -0.398 0.609 -0.953 0.609 -1.516 c 0 -0.559 -0.223 -1.113 -0.609 -1.512 c -0.391 -0.395 -0.934 -0.625 -1.48 -0.625" fill="#4c4c4c"/><path d="m 7.637 6.699 v 1.57 h 1.531 v -0.574 h -0.973 v -0.996" fill="#bcc2c7"/></g></svg>