<svg xmlns="http://www.w3.org/2000/svg" viewBox="0 0 16 16"><path d="m 6.238 0.23 c -6.426 0.98 -8.145 9.688 -3.559 13.531 c 3.406 3.383 9.93 2.543 12.164 -1.609 c 2.992 -4.77 -0.707 -11.715 -6.66 -12.09 c -0.652 -0.039 -1.312 0.02 -1.945 0.172" fill="#f9731e"/><path d="m 10.414 7.914 c 0.008 1.312 -0.695 2.531 -1.848 3.191 c -1.152 0.66 -2.57 0.66 -3.723 0 c -1.152 -0.66 -1.855 -1.879 -1.848 -3.191 c -0.008 -1.313 0.695 -2.531 1.848 -3.191 c 1.152 -0.656 2.57 -0.656 3.723 0 c 1.152 0.66 1.855 1.879 1.848 3.191" fill="#dcdcdc"/><path d="m 150.69 154.88 v -61.31 l 48.625 9.188 v 73 c 0 0 -6.25 11.06 -26.19 6.125 c -9.938 -2.438 -9.938 -14.75 1.25 -17.188 c 6.25 -1.25 14.938 0 18.688 2.438 v -51.563 l -36.12 -9.875 v 56.56 c 0 0 -5 13.5 -24.938 7.375 c -7.438 -2.5 -12.438 -13.563 -1.25 -17.25 c 7.5 -2.438 15 0 19.938 2.5" transform="scale(0.0625)" fill="#212121" stroke="#666" stroke-width="1.237"/><path d="m 7.723 7.938 c 0 0.559 -0.469 1.012 -1.043 1.012 c -0.574 0 -1.043 -0.453 -1.043 -1.012 c 0 -0.555 0.469 -1.01 1.043 -1.01 c 0.574 0 1.043 0.453 1.043 1.01" fill="#f9731e"/></svg>