<svg xmlns="http://www.w3.org/2000/svg" viewBox="0 0 16 16"><path d="m 12.12 1.988 c 14.172 13.172 -15.07 21.469 -11.848 3.984 c 1.59 -4.613 7.301 -8.215 11.848 -3.984" fill="#8b0000"/><path d="m 7.801 6.73 c -0.68 0 -1.68 0.035 -1.977 0.047 c -0.328 0.027 -0.445 0.039 -0.625 0.18 c -0.273 0.219 -0.336 0.652 -0.336 1.313 v 0.629 c 0 0.75 0.109 1.133 0.293 1.273 c 0.207 0.164 0.348 0.176 0.484 0.195 c 0.055 0.008 0.438 0.07 2.133 0.07 c 1.059 0 1.969 -0.047 2.063 -0.055 c 0.148 -0.02 0.363 -0.043 0.531 -0.211 c 0.242 -0.25 0.293 -0.668 0.293 -1.27 v -0.734 c 0 -0.391 -0.023 -0.941 -0.293 -1.172 c -0.203 -0.156 -0.277 -0.203 -0.695 -0.223 c -0.117 -0.004 -1.152 -0.043 -1.871 -0.043 m -0.621 1.059 l 1.449 0.793 l -1.449 0.797" fill-opacity="0.2"/><path d="m 11.816 11.762 v -6.621 c 0 -0.219 -0.195 -0.398 -0.434 -0.398 h -7.246 c -0.238 0 -0.434 0.18 -0.434 0.398 v 6.621 c 0 0.219 0.195 0.398 0.434 0.398 h 7.246 c 0.238 0 0.434 -0.18 0.434 -0.398" fill="#c13529"/><path d="m 4.137 4.742 c -0.238 0 -0.434 0.18 -0.434 0.398 v 0.133 c 0 -0.223 0.195 -0.398 0.434 -0.398 h 7.246 c 0.242 0 0.434 0.176 0.434 0.398 v -0.133 c 0 -0.219 -0.191 -0.398 -0.434 -0.398" fill="#fff" fill-opacity="0.102"/><path d="m 3.703 11.762 v 0.133 c 0 0.219 0.195 0.398 0.434 0.398 h 7.246 c 0.242 0 0.434 -0.18 0.434 -0.398 v -0.133 c 0 0.223 -0.191 0.398 -0.434 0.398 h -7.246 c -0.238 0 -0.434 -0.176 -0.434 -0.398" fill-opacity="0.2"/><path d="m 7.801 6.598 c -0.68 0 -1.68 0.039 -1.977 0.047 c -0.328 0.027 -0.445 0.043 -0.625 0.18 c -0.273 0.219 -0.336 0.652 -0.336 1.312 v 0.629 c 0 0.754 0.109 1.137 0.293 1.273 c 0.207 0.164 0.348 0.176 0.484 0.195 c 0.055 0.008 0.438 0.07 2.133 0.07 c 1.059 0 1.969 -0.047 2.063 -0.055 c 0.148 -0.02 0.363 -0.043 0.531 -0.211 c 0.242 -0.25 0.293 -0.664 0.293 -1.27 v -0.734 c 0 -0.391 -0.023 -0.941 -0.293 -1.172 c -0.203 -0.156 -0.277 -0.199 -0.695 -0.219 c -0.117 -0.008 -1.152 -0.047 -1.871 -0.047 m -0.621 1.059 l 1.449 0.793 l -1.449 0.797" fill="#f9f9f9"/><g fill="#ff4500"><path d="m 12.391 10.293 c -0.066 1.047 -1.02 1.867 -2.168 1.867 c -1.137 0 -2.082 -0.805 -2.168 -1.84 c -0.004 0.039 -0.004 0.078 -0.004 0.117 c 0 1.098 0.973 1.988 2.172 1.988 c 1.203 0 2.176 -0.891 2.176 -1.988 c 0 -0.047 -0.004 -0.098 -0.008 -0.145" fill-opacity="0.2"/><path d="m 12.398 10.305 c 0 1.098 -0.973 1.988 -2.176 1.988 c -1.199 0 -2.172 -0.891 -2.172 -1.988 c 0 -1.098 0.973 -1.984 2.172 -1.984 c 1.203 0 2.176 0.887 2.176 1.984"/></g><path d="m 10.805 9.246 l 0.723 0.66 h -0.289 l -0.652 0.598 c 0.363 0.332 0 0.531 0 0.531 l -0.434 -0.398 l -0.797 0.727 h -0.145 v -0.129 l 0.797 -0.73 l -0.438 -0.398 c 0 0 0.219 -0.328 0.582 0 l 0.652 -0.594" fill="#fff"/></svg>