<svg xmlns="http://www.w3.org/2000/svg" viewBox="0 0 16 16"><defs><linearGradient id="0" gradientUnits="userSpaceOnUse" y1="-0.505" x2="0" y2="199.84" gradientTransform="matrix(0.04455 0 0 0.04279 3.62 3.701)"><stop stop-color="#db8451"/><stop offset="1" stop-color="#c85b28"/></linearGradient></defs><path d="m 12.629 14.15 c -10.164 7.395 -18.715 -11.02 -6.629 -13.715 c 7.695 -2.758 14.16 8.234 6.629 13.715" fill="#cc6431"/><path d="m 12.969 7.98 c 0 2.598 -2.191 4.699 -4.895 4.699 c -2.703 0 -4.895 -2.102 -4.895 -4.699 c 0 -2.598 2.191 -4.703 4.895 -4.703 c 2.703 0 4.895 2.105 4.895 4.703" fill="#fff"/><path d="m 12.531 7.98 c 0 2.363 -1.996 4.277 -4.457 4.277 c -2.461 0 -4.453 -1.914 -4.453 -4.277 c 0 -2.363 1.992 -4.281 4.453 -4.281 c 2.461 0 4.457 1.918 4.457 4.281" fill="url(#0)"/><g fill="#fff"><path d="m 7.613 8.277 c -0.324 0 -0.586 0.254 -0.586 0.566 v 2.156 c 0 0.313 0.262 0.563 0.586 0.563 h 0.867 c 0.324 0 0.586 -0.25 0.586 -0.563 v -2.156 c 0 -0.313 -0.262 -0.566 -0.586 -0.566 m -0.742 0.391 h 0.645 c 0.199 0 0.359 0.156 0.359 0.344 v 0.133 c 0 0.188 -0.16 0.34 -0.359 0.34 h -0.645 c -0.199 0 -0.359 -0.152 -0.359 -0.34 v -0.133 c 0 -0.188 0.16 -0.344 0.359 -0.344 m 0 1.223 h 0.645 c 0.199 0 0.359 0.152 0.359 0.344 v 0.543 c 0 0.191 -0.16 0.344 -0.359 0.344 h -0.645 c -0.199 0 -0.359 -0.152 -0.359 -0.344 v -0.543 c 0 -0.191 0.16 -0.344 0.359 -0.344"/><path d="m 9.512 4.414 l -0.055 0.059 l 0.555 0.52 l 0.074 -0.074 h 0.004 l 0.004 -0.004 l 0.086 -0.082 l 0.012 -0.008 l 0.055 -0.051 c -0.23 -0.141 -0.477 -0.262 -0.734 -0.359 m -2.703 0.176 l -0.57 0.508 l 0.012 0.012 l 0.086 0.094 l 0.008 0.008 l 0.09 0.109 l 0.082 0.102 l 0.008 0.008 l 0.082 0.109 v 0.004 l 0.008 0.004 l 0.066 0.098 l 0.641 -0.422 l -0.074 -0.105 l -0.004 -0.004 v -0.004 l -0.098 -0.125 l -0.004 -0.004 l -0.004 -0.008 l -0.094 -0.117 l -0.004 -0.008 l -0.004 -0.004 l -0.098 -0.113 l -0.008 -0.008 l -0.102 -0.113 h -0.004 l -0.004 -0.004 m 2.102 0.484 l -0.016 0.02 v 0.004 l -0.004 0.004 l -0.094 0.129 l -0.004 0.008 l -0.004 0.004 l -0.09 0.137 l -0.004 0.004 v 0.004 l -0.09 0.141 l -0.004 0.008 l -0.004 0.004 l -0.086 0.148 v 0.004 l -0.004 0.004 l -0.035 0.059 l 0.691 0.348 l 0.031 -0.059 l 0.078 -0.129 l 0.004 -0.008 l 0.078 -0.125 l 0.004 -0.008 l 0.078 -0.121 l 0.008 -0.008 l 0.082 -0.113 l 0.004 -0.008 l 0.012 -0.012 m -1.816 0.387 l -0.699 0.328 l 0.133 0.266 v 0.008 h 0.004 l 0.066 0.152 l 0.004 0.012 l 0.063 0.156 l 0.02 0.059 l 0.734 -0.254 l -0.02 -0.055 l -0.004 -0.004 v -0.008 l -0.074 -0.176 v -0.008 l -0.004 -0.004 l -0.074 -0.168 l -0.004 -0.008 v -0.004 l -0.078 -0.164 l -0.004 -0.008 l -0.004 -0.004 m 0.348 0.457 l -0.035 0.086 v 0.012 l -0.07 0.184 v 0.004 l -0.004 0.004 l -0.063 0.191 l -0.004 0.004 v 0.004 l -0.063 0.199 v 0.004 l -0.004 0.004 l -0.012 0.055 l 0.75 0.195 l 0.012 -0.047 l 0.004 -0.008 l 0.055 -0.176 l 0.004 -0.012 l 0.063 -0.18 l 0.059 -0.164 l 0.004 -0.012 l 0.031 -0.078 m -0.57 0.625 l -0.574 0.148 l -0.176 0.043 v 0.008 l 0.051 0.191 v 0.012 l 0.047 0.199 v 0.008 l 0.043 0.215 l 0.766 -0.141 l -0.047 -0.223 v -0.012 l -0.047 -0.215 l -0.004 -0.004 v -0.008 l -0.055 -0.211 v -0.008"/></g></svg>