<svg xmlns="http://www.w3.org/2000/svg" viewBox="0 0 16 16"><path d="m 15.301 5.465 c 3.105 7.965 -5.594 12.05 -11.01 10.02 c -3.781 -1.418 -5.668 -7.06 -2.98 -11.625 c 3.387 -5.762 11.598 -4.535 13.996 1.605" fill="#fc3566"/><path d="m 7.48 12.313 c -0.898 -0.074 -1.957 -0.691 -2.566 -1.5 c -0.238 -0.32 -0.379 -0.594 -0.559 -1.102 c -0.078 -0.223 -0.16 -0.41 -0.18 -0.418 c -0.074 -0.023 -0.113 0.137 -0.137 0.582 c -0.027 0.496 -0.047 0.547 -0.25 0.688 c -0.23 0.156 -0.633 0.031 -0.965 -0.305 c -0.32 -0.324 -0.461 -0.73 -0.434 -1.285 c 0.031 -0.594 0.148 -0.816 0.621 -1.18 c 0.324 -0.25 0.379 -0.324 0.438 -0.605 c 0.109 -0.543 0.406 -1.223 0.754 -1.746 c 0.238 -0.355 0.977 -1.078 1.293 -1.262 c 0.453 -0.266 1.01 -0.5 1.469 -0.625 c 0.219 -0.063 0.328 -0.07 0.891 -0.07 c 0.887 0 1.082 0.043 1.863 0.406 c 0.559 0.258 0.777 0.406 1.191 0.809 c 0.566 0.547 0.781 0.852 1.094 1.566 c 0.148 0.344 0.199 0.492 0.34 1.02 c 0.035 0.137 0.078 0.207 0.195 0.316 c 0.598 0.566 0.664 0.633 0.723 0.773 c 0.184 0.426 0.16 1.117 -0.055 1.555 c -0.234 0.477 -0.891 0.824 -1.219 0.648 c -0.195 -0.102 -0.223 -0.172 -0.25 -0.637 c -0.023 -0.43 -0.066 -0.598 -0.164 -0.617 c -0.035 -0.008 -0.066 0.047 -0.117 0.219 c -0.113 0.375 -0.195 0.594 -0.285 0.773 c -0.414 0.82 -1.371 1.609 -2.273 1.875 c -0.387 0.113 -0.941 0.16 -1.418 0.121 m 3.527 -3.02 c 0.105 -0.066 0.125 -0.195 0.039 -0.266 c -0.039 -0.031 -0.105 -0.059 -0.145 -0.059 c -0.184 0 -0.398 -0.191 -0.395 -0.348 c 0.004 -0.148 0.098 -0.25 0.309 -0.34 c 0.25 -0.105 0.262 -0.113 0.262 -0.215 c 0 -0.148 -0.094 -0.203 -0.309 -0.184 c -0.453 0.039 -0.691 0.336 -0.652 0.809 c 0.031 0.352 0.145 0.496 0.484 0.609 c 0.215 0.074 0.281 0.074 0.406 -0.008 m -3.668 -0.008 c 0.152 -0.07 0.309 -0.238 0.363 -0.398 c 0.027 -0.074 0.043 -0.266 0.043 -0.508 c 0 -0.344 -0.004 -0.387 -0.059 -0.43 c -0.066 -0.047 -0.172 -0.031 -0.227 0.039 c -0.02 0.023 -0.043 0.184 -0.055 0.359 c -0.012 0.172 -0.043 0.367 -0.07 0.434 c -0.074 0.184 -0.273 0.246 -0.426 0.125 c -0.121 -0.094 -0.16 -0.25 -0.137 -0.535 c 0.023 -0.277 -0.012 -0.395 -0.129 -0.422 c -0.055 -0.016 -0.098 0 -0.145 0.047 c -0.059 0.063 -0.066 0.098 -0.063 0.402 c 0.004 0.543 0.105 0.773 0.387 0.895 c 0.148 0.066 0.363 0.063 0.516 -0.008 m -2.539 -0.012 c 0.027 -0.02 0.086 -0.121 0.125 -0.227 c 0.07 -0.176 0.078 -0.188 0.172 -0.184 c 0.051 0.004 0.141 0.035 0.191 0.074 l 0.094 0.066 l 0.129 -0.066 c 0.145 -0.074 0.184 -0.055 0.188 0.082 c 0 0.105 0.063 0.258 0.113 0.277 c 0.082 0.031 0.164 -0.016 0.191 -0.102 c 0.012 -0.047 0.023 -0.324 0.023 -0.621 c 0 -0.625 -0.008 -0.645 -0.234 -0.629 l -0.141 0.008 l -0.117 0.234 c -0.063 0.129 -0.133 0.238 -0.156 0.242 c -0.051 0.012 -0.164 -0.094 -0.32 -0.297 c -0.129 -0.172 -0.254 -0.246 -0.355 -0.215 c -0.09 0.031 -0.098 0.074 -0.121 0.5 c -0.023 0.445 0.008 0.781 0.074 0.848 c 0.055 0.059 0.078 0.059 0.145 0.008 m 3.895 -0.008 c 0.09 -0.027 0.199 -0.09 0.254 -0.145 c 0.145 -0.145 0.133 -0.25 -0.078 -0.527 c -0.094 -0.125 -0.172 -0.25 -0.172 -0.273 c 0 -0.027 0.039 -0.09 0.082 -0.141 c 0.121 -0.145 0.094 -0.219 -0.09 -0.258 c -0.207 -0.039 -0.387 0.023 -0.48 0.168 c -0.133 0.195 -0.094 0.328 0.168 0.598 c 0.074 0.078 0.133 0.156 0.133 0.18 c 0 0.023 -0.074 0.09 -0.172 0.152 c -0.191 0.121 -0.223 0.207 -0.086 0.258 c 0.129 0.047 0.258 0.043 0.441 -0.012 m 0.984 -0.027 c 0.012 -0.02 0.02 -0.32 0.023 -0.668 v -0.637 l -0.18 0.012 l -0.18 0.008 l -0.012 0.516 c -0.012 0.668 0.004 0.77 0.113 0.809 c 0.094 0.035 0.195 0.016 0.234 -0.039 m 1.98 -1.41 c 0.16 -0.246 -0.129 -1.262 -0.547 -1.906 c -0.266 -0.414 -0.762 -0.926 -1.133 -1.164 c -0.629 -0.406 -1.258 -0.582 -2.094 -0.582 c -0.883 0 -1.582 0.207 -2.219 0.66 c -0.297 0.211 -0.746 0.676 -0.949 0.977 c -0.492 0.75 -0.789 1.664 -0.633 1.965 c 0.027 0.055 0.07 0.094 0.09 0.09 c 0.02 -0.008 0.082 -0.141 0.133 -0.297 c 0.18 -0.52 0.633 -1.258 1 -1.621 c 0.766 -0.754 1.965 -1.152 3.047 -1.016 c 0.738 0.098 1.223 0.32 1.934 0.895 c 0.449 0.359 0.957 1.129 1.145 1.734 c 0.121 0.379 0.137 0.398 0.227 0.266" fill="#fff"/></svg>