<svg xmlns="http://www.w3.org/2000/svg" viewBox="0 0 16 16"><path d="m 15.301 5.465 c 3.105 7.965 -5.594 12.05 -11.01 10.02 c -3.781 -1.418 -5.668 -7.06 -2.98 -11.625 c 3.387 -5.762 11.598 -4.535 13.996 1.605" fill="#778799"/><path d="m 10.266 12.703 c -0.328 -0.09 -0.605 -0.32 -0.746 -0.539 c -0.293 -0.465 -0.508 -1.289 -0.508 -1.941 c 0 -0.414 -0.273 -0.297 -0.328 0.137 c -0.051 0.414 -0.102 0.746 -0.281 0.523 c -0.055 -0.066 -0.25 -0.594 -0.27 -0.574 c -0.02 0.023 -0.055 0.742 -0.098 1.203 c -0.063 0.695 -0.086 0.855 -0.148 0.914 c -0.16 0.156 -0.34 0.027 -0.379 -0.273 c -0.059 -0.418 -0.41 -2.566 -0.465 -2.836 c -0.039 -0.203 -0.129 -0.121 -0.266 0.254 c -0.16 0.434 -0.223 0.488 -0.512 0.453 c -0.289 -0.035 -0.652 0.184 -0.648 -0.195 c 0.008 -0.246 0.379 -0.109 0.453 -0.125 c 0.254 -0.051 0.27 -0.074 0.438 -0.543 c 0.09 -0.25 0.188 -0.516 0.219 -0.59 l 0.059 -0.133 l 0.16 0.141 c 0.086 0.078 0.215 0.168 0.281 0.203 c 0.141 0.07 0.137 0.055 0.273 0.887 c 0.129 0.773 0.137 0.824 0.184 0.824 c 0.055 0 0.082 -0.141 0.137 -0.719 c 0.055 -0.605 0.105 -0.719 0.293 -0.676 c 0.094 0.023 0.125 0.07 0.195 0.305 l 0.086 0.277 l 0.277 0.016 c 0.305 0.016 0.422 -0.035 0.422 -0.191 c 0 -0.16 0.203 -0.777 0.352 -1.066 c 0.082 -0.156 0.219 -0.359 0.309 -0.453 c 0.195 -0.207 0.203 -0.277 0.082 -0.852 c -0.172 -0.84 -0.469 -1.477 -0.938 -2.01 c -0.102 -0.113 -0.164 -0.215 -0.145 -0.23 c 0.023 -0.012 0.184 -0.039 0.363 -0.063 c 0.18 -0.023 0.395 -0.051 0.477 -0.066 c 0.141 -0.02 0.152 -0.012 0.293 0.191 c 0.207 0.305 0.379 0.652 0.504 1.012 c 0.109 0.32 0.105 0.395 -0.035 0.508 c -0.078 0.063 -0.23 0.543 -0.23 0.719 c 0 0.07 0.039 0.246 0.09 0.391 c 0.086 0.254 0.086 0.27 0.016 0.309 c -0.152 0.082 -0.402 0.328 -0.5 0.492 c -0.266 0.438 -0.441 1.242 -0.391 1.766 c 0.016 0.156 0.031 0.262 0.035 0.238 c 0.172 -1.207 0.457 -1.953 0.848 -2.23 c 0.191 -0.137 0.242 -0.141 0.414 -0.039 c 0.07 0.043 0.199 0.09 0.281 0.105 c 0.246 0.043 0.52 0.445 0.695 1.023 c 0.109 0.359 0.184 0.465 0.145 0.199 c -0.059 -0.367 -0.199 -0.809 -0.332 -1.02 l -0.137 -0.219 l 0.121 -0.043 c 0.113 -0.039 0.125 -0.031 0.242 0.168 c 0.172 0.289 0.281 0.586 0.379 1.016 c 0.113 0.484 0.09 1.41 -0.047 1.867 c -0.129 0.418 -0.375 0.922 -0.551 1.109 c -0.293 0.316 -0.785 0.477 -1.168 0.379 m -6.496 -0.594 c -0.383 -0.301 -0.563 -0.555 -0.73 -1.016 c -0.348 -0.965 -0.152 -2.207 0.449 -2.84 c 0.176 -0.188 0.535 -0.414 0.656 -0.414 c 0.129 0 0.188 -0.113 0.219 -0.41 c 0.086 -0.953 0.434 -1.934 0.91 -2.586 c 0.289 -0.395 0.723 -0.758 1.152 -0.961 c 0.426 -0.203 0.672 -0.262 1.16 -0.262 c 0.367 0 0.395 0.02 0.359 0.23 c -0.016 0.078 -0.035 0.082 -0.332 0.063 c -0.414 -0.023 -0.746 0.039 -1.105 0.211 c -0.32 0.152 -0.813 0.563 -0.945 0.789 c -0.059 0.102 0.008 0.055 0.273 -0.191 c 0.559 -0.52 1.227 -0.781 1.836 -0.715 l 0.258 0.027 l 0.027 0.152 c 0.051 0.289 0.023 0.309 -0.41 0.324 c -0.344 0.016 -0.422 0.035 -0.695 0.168 c -0.895 0.43 -1.504 1.508 -1.723 3.043 c -0.047 0.336 -0.047 0.352 0.051 0.543 c 0.27 0.516 0.379 1.25 0.32 2.164 c -0.059 0.977 -0.227 1.504 -0.563 1.773 c -0.148 0.117 -0.219 0.145 -0.418 0.156 c -0.297 0.035 -0.539 -0.086 -0.75 -0.25 m 0.371 -1.547 c -0.035 -0.461 -0.027 -0.691 0.059 -1.578 c 0.023 -0.227 0.02 -0.234 -0.039 -0.141 c -0.035 0.055 -0.094 0.234 -0.129 0.398 c -0.094 0.387 -0.063 1.348 0.051 1.711 c 0.094 0.313 0.109 0.219 0.059 -0.391 m -0.785 0.223 c -0.152 -0.793 0.063 -1.801 0.508 -2.379 c 0.059 -0.078 0.098 -0.148 0.09 -0.156 c -0.039 -0.039 -0.309 0.16 -0.406 0.305 c -0.441 0.617 -0.563 1.727 -0.266 2.398 c 0.105 0.238 0.137 0.168 0.074 -0.168" fill="#1e1e1e"/><path d="m 7.23 8.789 c -0.336 -0.234 -0.445 -0.375 -0.488 -0.695 c -0.086 -0.633 0.363 -1.039 0.988 -1.109 l 0.32 -0.035 l 0.047 -0.734 c 0.051 -0.766 -0.074 -1.535 0.094 -2.285 c -0.059 -0.148 -0.098 -0.141 1.918 -0.477 c 0.945 -0.16 1.805 -0.309 1.914 -0.332 l 0.199 -0.043 l -0.004 2.285 c 0 2.559 0.008 2.52 -0.535 2.934 c -0.391 0.34 -0.703 0.074 -1.047 -0.039 c -0.09 0 -0.457 -0.383 -0.5 -0.691 c -0.078 -0.543 -0.004 -0.656 0.176 -0.977 c 0.152 -0.277 0.695 -0.27 1.059 -0.27 c 0.172 0 0.207 -0.035 0.246 -0.254 c 0.059 -0.301 0.012 -1.227 -0.063 -1.301 c -0.031 -0.027 -0.352 -0.012 -0.715 0.035 c -0.621 0.152 -1.332 0.074 -1.93 0.32 l -0.195 0.086 l -0.004 1.398 c -0.004 1.687 -0.051 1.973 -0.352 2.242 c -0.32 0.289 -0.66 0.273 -1.129 -0.059 m 3.699 -0.984 c -0.078 -0.125 -0.141 -0.348 -0.141 -0.492 c 0 -0.219 0.047 -0.305 0.266 -0.484 c 0.18 -0.176 0.391 -0.223 0.051 -0.223 c -0.387 0 -0.691 0.508 -0.578 0.957 c 0.055 0.301 0.754 0.84 0.402 0.242 m -0.633 -3.711 c 0.43 -0.125 1.039 -0.043 1.43 -0.246 c 0 -0.246 0.078 -0.227 -0.109 -0.191 c -0.109 0.023 -0.711 0.141 -1.559 0.285 c -2.441 0.465 -1.734 0.414 0.238 0.152" fill="#9acd31"/></svg>