<svg xmlns="http://www.w3.org/2000/svg" viewBox="0 0 16 16"><path d="m 2.305 3.266 c -3.438 4.34 -2.547 8.656 1.344 10.75 c 5.742 3.258 13.937 2.703 12.04 -5.656 c -1.953 -6.973 -6.547 -10.418 -11.867 -6.578 l -0.832 0.672" fill="#bceff9"/><path d="m 12.574 11.52 c -0.016 -0.008 -0.777 -0.078 -1.688 -0.16 c -4.324 -0.375 -7.543 -0.676 -7.652 -0.715 c -0.215 -0.07 -0.234 -0.121 -0.227 -0.625 c 0.008 -0.574 0.016 -0.586 0.422 -0.605 c 0.324 -0.016 1.484 0.078 1.934 0.156 c 0.164 0.027 0.594 0.066 0.953 0.086 c 0.363 0.02 0.906 0.063 1.207 0.09 c 0.301 0.031 0.73 0.07 0.953 0.09 c 1.086 0.094 1.965 0.18 1.984 0.195 c 0.012 0.008 0.652 0.07 1.426 0.141 c 1.453 0.133 1.633 0.156 1.676 0.238 c 0.016 0.023 0.027 0.289 0.027 0.586 v 0.543 l -0.492 -0.004 c -0.27 0 -0.508 -0.008 -0.523 -0.016" fill="#45a1b0"/><path d="m 5.316 10.512 c -0.402 -0.105 -0.836 -0.355 -0.934 -0.543 c -0.063 -0.121 -0.066 -0.184 -0.023 -0.371 c 0.031 -0.125 0.055 -0.348 0.055 -0.496 c 0 -0.164 0.027 -0.293 0.074 -0.34 c 0.082 -0.082 0.305 -0.031 0.328 0.078 c 0.211 0.906 0.57 1.25 1.316 1.25 c 0.625 0 1.012 -0.23 1.074 -0.645 c 0.074 -0.484 -0.293 -0.875 -1.289 -1.363 c -0.582 -0.285 -1.051 -0.605 -1.207 -0.824 c -0.281 -0.398 -0.246 -0.883 0.098 -1.246 c 0.313 -0.332 0.641 -0.457 1.301 -0.488 c 0.602 -0.031 0.992 0.047 1.359 0.266 l 0.168 0.102 v 0.445 c 0 0.41 -0.008 0.445 -0.105 0.461 c -0.078 0.016 -0.133 -0.043 -0.23 -0.25 c -0.258 -0.543 -0.543 -0.715 -1.129 -0.672 c -0.418 0.031 -0.57 0.125 -0.723 0.449 c -0.18 0.383 0.047 0.625 1.113 1.168 c 0.766 0.387 1.098 0.629 1.313 0.934 c 0.188 0.27 0.285 0.695 0.219 0.957 c -0.152 0.621 -0.324 0.828 -0.863 1.047 c -0.402 0.16 -1.441 0.203 -1.914 0.082 m 3.41 -0.063 c -0.043 -0.145 0.012 -0.246 0.156 -0.293 c 0.074 -0.023 0.184 -0.098 0.242 -0.164 c 0.105 -0.121 0.109 -0.164 0.109 -1.203 c 0 -1.207 -0.004 -1.223 -0.359 -1.316 c -0.145 -0.035 -0.191 -0.074 -0.191 -0.164 c 0 -0.105 0.051 -0.117 0.613 -0.164 c 0.336 -0.027 0.641 -0.035 0.68 -0.016 c 0.039 0.016 0.066 0.105 0.066 0.195 c 0.004 0.336 0.07 0.352 0.313 0.09 c 0.246 -0.273 0.426 -0.34 0.797 -0.293 c 0.391 0.047 0.539 0.371 0.301 0.668 c -0.164 0.203 -0.488 0.203 -0.684 -0.004 c -0.191 -0.199 -0.258 -0.188 -0.461 0.094 c -0.242 0.332 -0.266 0.441 -0.266 1.227 c 0.004 0.82 0.043 0.957 0.313 1.051 c 0.152 0.055 0.191 0.094 0.191 0.211 v 0.141 l -0.898 0.016 c -0.766 0.016 -0.898 0.004 -0.922 -0.074" fill="#0a0b0c"/></svg>