<svg xmlns="http://www.w3.org/2000/svg" viewBox="0 0 16 16"><path d="m 14.379 12.234 c 8.879 -17.836 -23.609 -14.836 -11.285 1.27 c 2.469 3.227 8.891 3.539 11.285 -1.27" fill="#e51a18"/><path d="m 89.31 172.5 c -2.875 -3.375 -24.313 -79.75 -23 -81.87 c 1.375 -2.188 13.25 -1.875 14.625 0.313 c 1.5 2.375 13.13 44.44 14.875 53.625 c 0.688 3.75 1.938 7.25 2.75 7.75 c 1.438 0.938 6.75 -17.12 12.13 -41.25 c 4.25 -19.12 6.375 -21.938 16.563 -21.938 c 10.938 0 12.13 2.063 19.5 34.813 c 3.25 14.563 6.563 27.19 7.313 28 c 0.688 0.813 4.438 -9.5 8.188 -22.875 c 10.563 -37.37 9.938 -35.813 16.313 -38 c 3.125 -1.063 8.938 -1.938 12.813 -1.938 c 7.125 0 7.188 0 7.188 7.313 c 0 5.813 -0.688 7.313 -3.313 7.313 c -8.25 0 -10.813 4.75 -18.875 34.625 c -4.688 17.375 -9.375 30.875 -11.5 33.06 c -4.563 4.875 -16.375 5.125 -20.625 0.5 c -1.688 -1.875 -5.625 -13.938 -8.75 -26.938 c -5.813 -24.12 -7.938 -30.12 -9.625 -27.25 c -0.563 0.875 -3.313 11.688 -6.125 24.06 c -2.875 12.375 -6.688 24.938 -8.563 27.938 c -2.875 4.75 -4.438 5.5 -11.5 5.5 c -4.875 0 -9 -1.125 -10.375 -2.75" transform="scale(0.0625)" fill="#fff" stroke="#fff" stroke-width="3.837"/></svg>