<svg xmlns="http://www.w3.org/2000/svg" viewBox="0 0 16 16"><path d="m 8.191 15.957 c -1.648 -0.129 -3.578 -0.918 -4.926 -2.01 c -1.637 -1.332 -2.836 -3.375 -3.156 -5.387 c -0.383 -2.66 1.16 -5.52 2.902 -6.875 c 0.879 -0.66 2.039 -1.188 3.125 -1.418 c 2.832 -0.598 5.785 0.535 7.812 3 c 1.211 1.477 1.84 2.965 1.992 4.723 c 0.184 2.113 -0.648 4.375 -2.172 5.898 c -1.734 1.438 -3.52 2.219 -5.578 2.07" fill="#f34700"/><path d="m 61.769 259.46 c 22.794 -12.525 45.589 -28.3 65.53 -38.814 c -0.238 -1.772 18.569 0.118 20.83 0.177 c 16.426 0.532 20.06 1.241 14.76 3.01 c -1.25 0.414 -10.832 5.553 -21.19 11.402 c -17.855 10.04 -32.26 17.782 -44.46 24.04 c -1.845 2.954 -25.949 0.295 -35.471 0.177" transform="matrix(0.06563 0 0 0.06612 0.79 -7.464)" fill="#ffb48f" stroke="#f34700" stroke-width="1.633"/><g fill="#fff" stroke="#ff4500" fill-opacity="0.992" stroke-width="1.679" transform="scale(0.0625)"><path d="m 76.31 153.88 c -0.938 -1.125 -1.125 -8.5 -1 -41.19 c 0 -21.875 0.25 -39.938 0.5 -40.19 c 0.688 -0.688 7.25 2.563 20.375 10.188 c 7.06 4.125 17.75 10.25 23.75 13.625 c 18.438 10.438 26.625 15.5 27.438 17.06 c -8.125 5.438 -14.938 9.75 -21.875 13.813 c -6.375 3.75 -15.938 9.25 -21.25 12.25 c -5.375 3.063 -12.25 7.188 -15.375 9.313 c -5.125 3.438 -10.25 6.438 -11.125 6.438 c -0.188 0 -0.813 -0.625 -1.438 -1.313"/><path d="m 175.5 193.5 c -17.5 -9.688 -52.688 -30.12 -57.19 -33.19 c -2.5 -1.688 -4.625 -3.438 -4.625 -3.813 c 0 -0.375 1.563 -1.25 3.438 -1.938 c 4.063 -1.563 46.875 -26.25 58 -33.5 c 5.125 -3.25 8.5 -4.938 9.688 -4.813 c 1.688 0.25 1.875 0.813 2.313 6.313 c 0.75 8.625 0.813 35.19 0.188 57.06 c -0.438 16.5 -0.688 18.75 -1.813 18.75 c -0.75 0 -5.188 -2.188 -10 -4.875"/></g></svg>