<svg xmlns="http://www.w3.org/2000/svg" viewBox="0 0 16 16"><path d="m 14.15 2.91 c 3.895 5.953 0.75 11.375 -3.656 12.66 c -5.93 1.73 -13.984 -2.816 -8.676 -12.188 c 2.105 -3.727 9.559 -4.711 12.332 -0.473" fill="#6395ec"/><path d="m 4.789 7.492 c 0 1.961 1.656 3.547 3.703 3.547 c 2.043 0 3.703 -1.586 3.703 -3.547 c 0 -1.961 -1.66 -3.551 -3.703 -3.551 c -2.047 0 -3.703 1.59 -3.703 3.551" fill="#ff8c00"/><path d="m 5.57 7.629 c 0 1.547 1.285 2.801 2.871 2.801 c 1.582 0 2.867 -1.254 2.867 -2.801 c 0 -1.551 -1.285 -2.805 -2.867 -2.805 c -1.586 0 -2.871 1.254 -2.871 2.805" fill="#ffde6e"/><path d="m 7.57 6.328 c 1.258 0 2.277 1.012 2.277 2.258 c 0 0.168 -0.02 0.332 -0.059 0.496 c 0.02 -0.004 0.039 -0.004 0.059 -0.004 c 0.766 0 1.387 0.613 1.387 1.375 c 0 0.719 -0.563 1.32 -1.289 1.371 v 0.004 h -4.457 v -0.004 c -1 -0.055 -1.781 -0.871 -1.781 -1.863 c 0 -0.938 0.699 -1.727 1.637 -1.848 c 0.227 -1.039 1.152 -1.785 2.227 -1.785" fill-opacity="0.2"/><g fill="#fff"><path d="m 7.57 6.133 c 1.258 0 2.277 1.012 2.277 2.258 c 0 0.168 -0.02 0.332 -0.059 0.496 c 0.02 -0.004 0.039 -0.004 0.059 -0.004 c 0.766 0 1.387 0.613 1.387 1.375 c 0 0.719 -0.563 1.316 -1.289 1.371 h -4.457 v -0.004 c -1 -0.051 -1.781 -0.867 -1.781 -1.859 c 0 -0.938 0.699 -1.727 1.637 -1.848 c 0.227 -1.043 1.152 -1.785 2.227 -1.785"/><g fill-opacity="0.2"><path d="m 8.461 3.973 c 2.086 0 3.762 1.664 3.762 3.73 c 0 0.031 -0.004 0.066 -0.004 0.098 c -0.051 -2.02 -1.707 -3.633 -3.758 -3.633 c -2.051 0 -3.707 1.613 -3.758 3.633 c -0.004 -0.031 -0.008 -0.066 -0.008 -0.098 c 0 -2.066 1.68 -3.73 3.766 -3.73"/><path d="m 8.461 4.758 c 1.645 0 2.969 1.313 2.969 2.945 c 0 0.031 -0.004 0.066 -0.004 0.098 c -0.051 -1.586 -1.352 -2.848 -2.965 -2.848 c -1.613 0 -2.914 1.262 -2.969 2.848 c 0 -0.031 -0.004 -0.066 -0.004 -0.098 c 0 -1.633 1.324 -2.945 2.973 -2.945"/><path d="m 7.57 6.133 c 1.258 0 2.277 1.012 2.277 2.258 c 0 0.023 -0.004 0.051 -0.004 0.078 c -0.066 -1.199 -1.063 -2.141 -2.273 -2.141 c -1.074 0 -2 0.746 -2.227 1.785 c -0.898 0.117 -1.586 0.855 -1.633 1.75 c -0.004 -0.031 -0.004 -0.066 -0.004 -0.098 c 0 -0.938 0.699 -1.727 1.637 -1.848 c 0.227 -1.043 1.152 -1.785 2.227 -1.785 m 2.277 2.75 c 0.766 0 1.387 0.613 1.387 1.375 c 0 0.027 -0.004 0.059 -0.004 0.09 c -0.059 -0.719 -0.66 -1.27 -1.383 -1.27 c -0.02 0 -0.039 0 -0.059 0.004 c 0.016 -0.066 0.027 -0.133 0.035 -0.199 c 0.008 0 0.016 0 0.023 0"/></g></g></svg>