<svg xmlns="http://www.w3.org/2000/svg" viewBox="0 0 16 16"><path d="m 2.879 14.13 c 5.949 3.895 11.371 0.75 12.656 -3.66 c 1.73 -5.93 -2.816 -13.98 -12.188 -8.676 c -3.723 2.109 -4.711 9.559 -0.473 12.336" fill="#b2b2b3"/><path d="m 13.09 8.094 c 0 2.59 -2.172 4.688 -4.855 4.688 c -2.68 0 -4.855 -2.098 -4.855 -4.688 c 0 -2.59 2.176 -4.688 4.855 -4.688 c 2.684 0 4.855 2.098 4.855 4.688" fill="#ededed"/><path d="m 6.04 3.047 h 1.617 c 0.125 0 0.23 0.102 0.23 0.227 v 10.234 c 0 0.125 -0.105 0.23 -0.23 0.23 h -1.617 c -0.125 0 -0.23 -0.105 -0.23 -0.23 v -10.234 c 0 -0.125 0.105 -0.227 0.23 -0.227" fill="#999"/><path d="m 7.902 9.875 c 0 -0.301 0.016 -0.691 0.031 -0.863 l 0.031 -0.32 l 0.559 -0.023 c 0.898 -0.043 1.48 -0.297 1.801 -0.781 c 0.207 -0.313 0.27 -0.508 0.27 -0.824 v -0.258 h 1.781 v 0.207 c 0 0.309 -0.168 0.91 -0.348 1.25 c -0.281 0.531 -0.977 1.148 -1.695 1.512 c -0.598 0.297 -1.457 0.551 -2.109 0.617 l -0.32 0.031" fill="#b01613"/><path d="m 7.902 3.891 c 0 0.301 0.016 0.691 0.031 0.863 l 0.031 0.32 l 0.559 0.023 c 0.898 0.043 1.48 0.297 1.801 0.781 c 0.207 0.313 0.27 0.508 0.27 0.824 v 0.258 h 1.781 v -0.207 c 0 -0.309 -0.168 -0.91 -0.348 -1.25 c -0.281 -0.531 -0.977 -1.148 -1.695 -1.512 c -0.598 -0.297 -1.457 -0.551 -2.109 -0.617 l -0.32 -0.031" fill="#d43939"/><g fill="#fff"><path d="m 7.086 4.227 v -0.945 h 1.117 v 1.82 l -0.363 0.035 c -0.199 0.016 -0.449 0.031 -0.559 0.031 h -0.195"/><path d="m 7.086 9.527 v -0.938 h 1.254 v 1.805 l -0.445 0.035 c -0.246 0.02 -0.527 0.035 -0.629 0.035 h -0.18"/></g></svg>