<svg xmlns="http://www.w3.org/2000/svg" viewBox="0 0 16 16"><path d="m 0.133 9.805 c 0.793 6.48 9.555 8.215 13.582 3.59 c 3.531 -3.438 2.879 -10.01 -1.254 -12.266 c -4.734 -3.02 -11.879 0.711 -12.445 6.715 c -0.059 0.66 -0.023 1.324 0.117 1.961" fill="#fffafa"/><path d="m 3.516 10.27 c 0.074 -0.512 0.324 -1.848 0.563 -2.961 l 0.426 -2.031 h 0.906 c 0.852 0 0.957 0.07 1.68 1.098 c 0.422 0.602 0.883 1.098 1.02 1.098 c 0.137 0 0.586 -0.496 1 -1.098 c 0.707 -1.023 0.816 -1.098 1.656 -1.098 h 0.895 l 0.34 1.699 c 0.184 0.938 0.457 2.246 0.605 2.91 c 0.148 0.66 0.191 1.234 0.102 1.273 c -0.09 0.039 -0.457 -0.094 -0.813 -0.289 c -0.695 -0.383 -1.234 -1.449 -1.238 -2.461 c -0.004 -0.336 -0.086 -0.746 -0.188 -0.914 c -0.148 -0.25 -0.277 -0.199 -0.668 0.25 c -0.676 0.781 -0.785 1.187 -1.188 1.66 c -0.559 0.66 -0.66 0.578 -1.566 -0.73 c -0.457 -0.652 -0.93 -1.23 -1.051 -1.285 c -0.133 -0.059 -0.371 0.563 -0.586 1.531 c -0.34 1.523 -0.41 1.652 -1.094 1.957 c -0.398 0.176 -0.773 0.324 -0.832 0.324 c -0.059 0 -0.043 -0.422 0.027 -0.934" fill="#e33b37"/><g fill="#c83533"><path d="m 5 7.129 c -0.352 -0.441 -0.652 -0.824 -0.664 -0.844 c 0.008 -0.332 0.109 -0.613 0.203 -0.961 c 0.484 0.605 0.891 1.422 1.375 2.027 c -0.078 0.168 -0.164 0.336 -0.234 0.508 c -0.031 0.07 -0.098 -0.004 -0.68 -0.73"/><path d="m 10.582 7.75 c 0 -0.109 -0.145 -0.367 -0.223 -0.395 c 0.41 -0.645 0.707 -1.141 1.293 -2.01 c 0.07 0.293 0.133 0.59 0.188 0.883 l -0.629 0.789 c -0.344 0.434 -0.629 0.762 -0.629 0.73"/></g></svg>