<svg xmlns="http://www.w3.org/2000/svg" viewBox="0 0 16 16" xmlns:xlink="http://www.w3.org/1999/xlink"><defs><linearGradient id="4" gradientUnits="userSpaceOnUse" y1="53.37" x2="0" y2="31.634" xlink:href="#3"/><linearGradient id="2" gradientUnits="userSpaceOnUse" y1="117.23" x2="0" y2="15.833"><stop stop-color="#907f6e"/><stop offset="1" stop-color="#cab9a9"/></linearGradient><linearGradient id="3" gradientUnits="userSpaceOnUse" y1="5.906" x2="0" y2="22.698" gradientTransform="matrix(5.83557 0 0 5.83558 -151.26 -17.85)"><stop stop-color="#fff" stop-opacity="0.6"/><stop offset="1" stop-color="#fff" stop-opacity="0"/></linearGradient><linearGradient id="1" gradientUnits="userSpaceOnUse" y1="21.823" x2="0" y2="117.35"><stop stop-color="#fff4e8"/><stop offset="1" stop-color="#e6d6c5"/></linearGradient><linearGradient id="5" gradientUnits="userSpaceOnUse" y1="42.664" x2="0" y2="5.2" xlink:href="#2"/><radialGradient id="0" gradientUnits="userSpaceOnUse" cx="10.471" cy="20.15" r="9.215" gradientTransform="matrix(0.42521 0 0 0.14925 2.48 8.203)"><stop stop-color="#000" stop-opacity="0.302"/><stop offset="1" stop-color="#000" stop-opacity="0"/></radialGradient></defs><path d="m 1.559 12.703 c -7.996 -12.03 17.508 -19.438 14.13 -3.891 c -1.441 6.43 -10.465 10.328 -14.13 3.891" fill="#d1b38c"/><g fill-rule="evenodd"><path d="m 10.852 11.211 c 0 0.758 -1.754 1.375 -3.918 1.375 c -2.164 0 -3.918 -0.617 -3.918 -1.375 c 0 -0.762 1.754 -1.375 3.918 -1.375 c 2.164 0 3.918 0.613 3.918 1.375" fill="url(#0)"/><path d="m 59.17 18.499 l -50.677 52.49 l 44.03 43.491 l 51.969 -50.626 v -45.35 m -23.975 15.997 c 4.403 0 7.992 3.59 7.992 7.998 c 0 4.408 -3.589 7.998 -7.992 7.998 c -4.403 0 -7.992 -3.59 -7.992 -7.998 c 0 -4.408 3.589 -7.998 7.992 -7.998" transform="matrix(0.08163 0 0 0.08596 3.01 2.5)" fill="url(#1)" stroke="url(#2)"/></g><g fill="none"><path d="m 59.65 19.499 c 0 0 -49.672 51.49 -49.672 51.49 c 0 0 42.494 41.991 42.494 41.991 c 0 0 51.01 -49.671 51.01 -49.671 c 0 0 0 -43.809 0 -43.809 c 0 0 -43.834 0 -43.834 0" transform="matrix(0.08163 0 0 0.08596 3.01 2.5)" stroke="url(#3)"/><path d="m 80.46 33.496 c 5.647 -0.182 10.336 5.817 8.709 11.225 c -1.196 5.363 -7.752 8.407 -12.586 5.862 c -4.977 -2.181 -6.747 -9.18 -3.302 -13.452 c 1.627 -2.272 4.403 -3.636 7.178 -3.636" transform="matrix(0.08163 0 0 0.08596 3.01 2.5)" stroke="url(#4)"/><path d="m 82.66 39.994 c 5.934 -3.136 13.638 -4.09 20.96 -4.272 c 3.302 -0.045 6.604 0.636 9.858 -0.136 c 4.068 -1 6.891 -3.999 6.46 -6.771 c -0.526 -3.681 -5.503 -6.408 -10.145 -8.362 c -4.115 -1.727 -7.322 -4.817 -8.997 -8.089 c -0.861 -1.636 0.622 -3.363 3.01 -3.908 c 2.153 -0.454 4.403 -0.682 6.604 -0.182 c 3.35 0.773 7.322 1.681 8.853 4.045" transform="matrix(0.08163 0 0 0.08596 3.01 2.5)" stroke="url(#5)"/></g></svg>