<svg xmlns="http://www.w3.org/2000/svg" viewBox="0 0 16 16"><defs><radialGradient id="0" gradientUnits="userSpaceOnUse" cx="12.5" cy="36.24" r="10.852" gradientTransform="matrix(0.27562 0 0 0.25729 8.102 0.316)"><stop stop-color="#75de75"/><stop offset="1" stop-color="#53cc53"/></radialGradient></defs><path d="m 13.703 3 c 9.984 14.188 -15.977 18.703 -13.402 3.625 c 1.363 -5.996 9.406 -9.309 13.402 -3.625" fill="#9da2a6"/><path d="m 4.738 4.543 h 6.898 c 0.051 0 0.09 0.043 0.09 0.094 v 6.984 c 0 0.051 -0.039 0.094 -0.09 0.094 h -6.898 c -0.051 0 -0.094 -0.043 -0.094 -0.094 v -6.984 c 0 -0.051 0.043 -0.094 0.094 -0.094" fill="#fff"/><path d="m 7.414 13.965 c -2.703 -0.336 -4.793 -2.297 -5.234 -4.906 c -0.117 -0.688 -0.078 -1.719 0.09 -2.352 c 0.297 -1.121 0.785 -1.977 1.578 -2.754 c 0.789 -0.781 1.66 -1.262 2.793 -1.555 c 0.578 -0.148 1.637 -0.199 2.25 -0.113 c 2.539 0.367 4.508 2.203 5.05 4.715 c 0.117 0.547 0.117 1.691 0 2.23 c -0.523 2.398 -2.324 4.176 -4.719 4.656 c -0.465 0.094 -1.371 0.133 -1.809 0.078 m 2.863 -2.93 c 0.309 -0.148 0.605 -0.441 0.758 -0.746 l 0.121 -0.242 v -3.891 l -0.137 -0.27 c -0.156 -0.316 -0.438 -0.586 -0.758 -0.73 c -0.219 -0.102 -0.289 -0.105 -2.203 -0.105 h -1.977 l -0.273 0.133 c -0.32 0.156 -0.594 0.434 -0.742 0.75 c -0.102 0.215 -0.105 0.301 -0.117 2.066 c -0.02 2.039 -0.004 2.156 0.285 2.543 c 0.18 0.242 0.516 0.48 0.797 0.566 c 0.152 0.051 0.648 0.063 2.102 0.055 l 1.902 -0.012 m -2.391 -1.578 c -0.301 -0.098 -0.473 -0.195 -0.676 -0.398 c -0.598 -0.582 -0.602 -1.566 -0.004 -2.152 c 0.594 -0.586 1.602 -0.586 2.191 0.004 c 0.102 0.102 0.242 0.305 0.313 0.449 c 0.168 0.352 0.172 0.867 0.012 1.23 c -0.137 0.309 -0.492 0.656 -0.809 0.793 c -0.293 0.129 -0.762 0.164 -1.027 0.074 m 0.613 -0.75 c 0.371 -0.102 0.633 -0.547 0.531 -0.914 c -0.059 -0.219 -0.383 -0.512 -0.609 -0.555 c -0.219 -0.039 -0.57 0.086 -0.703 0.25 c -0.258 0.324 -0.242 0.687 0.039 0.98 c 0.242 0.254 0.441 0.32 0.742 0.238" fill="#212e3d"/><path d="m 7.492 8.48 c -0.375 -0.414 -0.082 -1.07 0.5 -1.129 c 0.18 -0.016 0.262 0 0.387 0.078 c 0.09 0.055 0.164 0.109 0.164 0.117 c 0 0.012 -0.098 0.105 -0.215 0.211 c -0.309 0.277 -0.469 0.441 -0.625 0.633 c -0.133 0.16 -0.141 0.168 -0.211 0.09" fill="#6eb92e"/><path d="m 7.785 8.719 c -0.082 -0.035 -0.145 -0.098 -0.145 -0.137 c 0 -0.086 0.66 -0.781 0.848 -0.891 l 0.141 -0.082 l 0.066 0.133 c 0.117 0.223 0.09 0.504 -0.059 0.711 c -0.219 0.301 -0.539 0.402 -0.852 0.266" fill="#4592d6"/><path d="m 9.582 9.906 c 0.215 -0.063 0.301 0.418 0.402 0.617 c 0.086 0.148 0.184 0.453 0.395 0.164 c 0.836 -1.215 1.719 -2.41 2.746 -3.496 c 0.309 -0.281 0.648 -0.309 1.191 -0.293 c 0.23 0.004 -0.199 0.496 -0.336 0.633 c -1.285 1.434 -2.488 2.977 -3.586 4.535 c -0.109 0.113 -0.441 0.082 -0.762 0.086 c -0.25 -0.008 -0.398 -0.414 -0.508 -0.633 c -0.121 -0.348 -0.273 -0.688 -0.32 -1.051 c 0.047 -0.289 0.305 -0.43 0.578 -0.5 l 0.133 -0.039" fill="url(#0)"/><path d="m 4.996 37 c 0.609 -0.234 0.921 1.703 1.29 2.499 c 0.312 0.578 0.666 1.812 1.431 0.64 c 3.03 -4.858 6.236 -9.637 9.963 -13.979 c 1.12 -1.109 2.353 -1.234 4.323 -1.171 c 0.836 0.016 -0.723 1.984 -1.219 2.546 c -4.663 5.732 -9.03 11.902 -13.01 18.12 c -0.397 0.453 -1.602 0.328 -2.764 0.344 c -0.907 -0.031 -1.446 -1.656 -1.842 -2.53 c -0.439 -1.375 -0.992 -2.749 -1.162 -4.202 c 0.17 -1.156 1.105 -1.718 2.098 -1.999 l 0.482 -0.156" transform="matrix(0.27562 0 0 0.25009 8.252 0.648)" stroke-opacity="0.702" fill="none" stroke="#007f33"/></svg>