<svg xmlns="http://www.w3.org/2000/svg" viewBox="0 0 16 16"><path d="m 8.03 15.941 c 10.555 1.199 10.406 -15.996 -0.187 -15.793 c -9.855 -0.566 -10.746 16.727 0.187 15.793" fill="#95bed9"/><path d="m 5.848 4.141 v 8.125 h 4.727 c 0.219 0 0.391 -0.184 0.391 -0.406 v -7.313 c 0 -0.223 -0.172 -0.406 -0.391 -0.406" fill="#22a4dc"/><path d="m 5.086 4.141 c -0.215 0 -0.391 0.184 -0.391 0.406 v 7.313 c 0 0.223 0.176 0.406 0.391 0.406 h 0.785 v -8.125" fill="#6a3e3e"/><g fill-opacity="0.2"><path d="m 5.086 4.141 c -0.215 0 -0.391 0.184 -0.391 0.406 v 0.203 c 0 -0.223 0.176 -0.406 0.391 -0.406 h 5.488 c 0.219 0 0.391 0.184 0.391 0.406 v -0.203 c 0 -0.223 -0.172 -0.406 -0.391 -0.406" fill="#fff"/><path d="m 4.695 11.859 v 0.203 c 0 0.223 0.176 0.406 0.391 0.406 h 5.488 c 0.219 0 0.391 -0.184 0.391 -0.406 v -0.203 c 0 0.223 -0.172 0.406 -0.391 0.406 h -5.488 c -0.215 0 -0.391 -0.184 -0.391 -0.406"/><path d="m 9.789 8.406 l -2.742 1.625 v -3.25"/></g><path d="m 9.789 8.203 l -2.742 1.625 v -3.25" fill="#fff"/></svg>