<svg xmlns="http://www.w3.org/2000/svg" viewBox="0 0 16 16"><path d="m 13.1 1.945 c -9.594 -7.344 -19.559 10.945 -7.676 13.621 c 7.48 2.742 14.789 -8.18 7.676 -13.621" fill="#ff2342"/><g fill="#fff"><path d="m 3.168 9.367 c -0.129 -0.109 -0.133 -0.164 -0.117 -1 l 0.02 -0.891 l 0.219 -0.016 c 0.387 -0.031 0.5 0.18 0.387 0.773 c -0.141 0.434 0.055 1.082 -0.207 1.16 c -0.023 0.016 -0.227 0.039 -0.301 -0.023"/><path d="m 3.688 10.04 c -0.18 -0.184 -0.117 -0.348 0.191 -0.512 c 0.25 -0.133 0.258 -0.184 0.312 -1.84 l 0.043 -1.301 l 0.332 0.027 c 0.371 -0.074 0.145 1.078 0.18 1.434 l -0.148 1.953 l -0.195 0.172 c -0.223 0.195 -0.563 0.227 -0.715 0.066"/><path d="m 5.195 7.801 c 0.039 -0.293 0.063 -0.332 0.207 -0.348 c 0.262 -0.031 0.352 0.125 0.402 0.68 c 0.059 0.66 0.02 1.129 -0.18 1.273 l -0.227 0.168 c -0.277 -0.535 -0.266 -1.238 -0.203 -1.773"/><path d="m 6.512 8.977 c -0.535 -0.098 0.313 -0.504 0.211 -0.988 c -0.02 -0.051 -0.129 -0.086 -0.254 -0.086 c -0.223 0 -0.227 -0.004 -0.227 -0.297 c -0.047 -0.359 0.281 -0.406 0.352 -0.695 c 0.066 -0.324 0.266 -0.523 0.512 -0.523 c 0.246 0 0.246 0.016 0.047 0.516 c -0.133 0.34 -0.109 0.449 0.105 0.527 c 0.148 0.055 0.188 0.109 0.188 0.258 c 0 0.105 -0.043 0.246 -0.094 0.316 c -0.121 0.168 -0.121 0.453 0.004 0.559 c 0.246 0.375 -0.121 0.43 -0.289 0.434 c -0.184 -0.004 -0.371 0.004 -0.555 -0.02"/><path d="m 6.07 10.1 c -0.078 -0.227 0.164 -0.367 0.172 -0.629 c 0.273 -0.219 0.527 -0.117 0.949 -0.117 v 0.223 c 0 0.344 -0.285 0.57 -0.715 0.563 c -0.18 -0.004 -0.363 -0.02 -0.406 -0.039"/><g stroke="#ff2342" transform="matrix(0.0595 0 0 0.06199 0.234 -0.009)"><path d="m 123.88 162.35 c -4.267 -3.151 0.788 -10.649 8.07 -11.91 l 4.136 -0.693 v -15.313 c 0 -15.25 0 -15.313 -2.429 -15.313 c -4.398 0 -7.156 -2.899 -7.156 -7.499 v -4.222 c 8.928 0 17.791 0 26.719 0 l 2.166 5.923 c 2.429 6.806 -3.414 4.285 -4.924 5.167 c -1.182 0.63 -2.495 1.638 -2.954 2.206 c -0.394 0.567 -0.788 7.373 -0.788 15.12 v 14.05 l 5.318 0.693 c 6.434 0.63 5.318 0.126 5.318 6.301 c 0.263 4.915 0.656 5.419 -4 6.238 c -7.681 1.26 -27.376 0.756 -29.476 -0.756" stroke-width="3.087"/><path d="m 171.08 162.03 c -0.985 -1.134 -1.576 -5.545 -1.838 -12.666 l -0.46 -10.902 l -4.202 -0.567 c -5.121 -0.63 -4.727 -0.315 -5.646 -5.23 c -1.116 -4.348 -0.788 -3.97 3.414 -3.97 c 5.515 0 8.272 -2.079 7.418 -5.545 c -0.394 -1.449 -1.838 -3.151 -3.348 -3.844 c -2.889 -1.323 -4.333 -5.23 -3.348 -9.137 c 1.247 -4.852 13.655 -9.01 16.478 -5.545 c 0.722 0.819 3.873 1.827 7.02 2.206 c 8.206 0.63 7.747 4.978 9.125 11.217 c 1.641 7.877 1.707 8 6.762 10.649 c 7.681 4.096 9.979 10.145 8.6 22.433 c -1.05 8.633 -3.676 11.658 -10.832 12.351 c -4.53 0.441 -5.777 0.126 -7.681 -1.701 c -3.873 -3.907 -2.954 -6.05 3.348 -7.688 l 5.58 -1.512 l 0.263 -5.293 c 0.394 -7.94 -0.263 -8.444 -11.292 -8.885 l -9.519 -0.378 l -0.525 3.02 c -0.328 1.701 -0.919 7.436 -1.313 12.855 l -0.722 9.83 c -2.363 0.063 -5.711 0.126 -7.287 -1.701 m 16.02 -34.91 c 0.656 -0.819 1.116 -2.836 0.919 -4.474 c -0.328 -2.458 -0.985 -3.088 -3.414 -3.34 c -3.479 -0.441 -4.858 1.071 -4.924 5.293 c 0 3.97 4.858 5.608 7.418 2.521" stroke-width="1.029"/></g><path d="m 12.316 6.941 c 0 -0.355 0.008 -0.363 0.219 -0.34 c 0.16 0.016 0.242 0.078 0.301 0.227 c 0.07 0.176 0.055 0.227 -0.109 0.344 c -0.316 0.23 -0.41 0.18 -0.41 -0.23"/></g></svg>