<svg xmlns="http://www.w3.org/2000/svg" viewBox="0 0 16 16"><path d="m 2.027 11.914 c -5.66 -6.391 2.719 -13.16 7.625 -11.496 c 4.906 1.664 8.203 6.359 5 10.473 c -3.207 4.117 -6.355 8.09 -12.02 1.695" fill="#3672fc"/><g fill="#fff"><path d="m 7.625 12.637 c -0.48 -0.242 -1.871 -1.305 -2.473 -1.887 c -0.281 -0.27 -0.563 -0.609 -0.629 -0.75 c -0.188 -0.395 -0.559 -3.168 -0.598 -4.492 l -0.02 -0.566 l 0.238 -0.199 c 0.617 -0.516 2.828 -0.855 4.723 -0.727 c 1.063 0.074 1.5 0.152 2.293 0.406 c 0.914 0.293 0.93 0.313 0.871 1.547 c -0.07 1.543 -0.391 3.695 -0.617 4.133 c -0.121 0.234 -1.039 1.098 -1.656 1.559 c -0.754 0.563 -1.504 1.063 -1.66 1.105 c -0.082 0.023 -0.277 -0.031 -0.473 -0.129 m 0.77 -1.055 c 0.43 -0.262 1.469 -1.066 1.852 -1.434 c 0.441 -0.422 0.523 -0.633 0.742 -1.91 c 0.094 -0.555 0.141 -1.152 0.148 -1.895 l 0.008 -1.086 l -0.359 -0.117 c -0.586 -0.195 -1.676 -0.273 -3.227 -0.23 c -1.512 0.039 -2.152 0.117 -2.535 0.301 l -0.238 0.117 l 0.012 0.641 c 0.016 0.855 0.188 2.285 0.375 3.098 c 0.145 0.645 0.156 0.668 0.551 1.055 c 0.219 0.219 0.762 0.668 1.207 1 c 0.887 0.66 1.055 0.715 1.465 0.461"/><path d="m 7.348 9.07 c -0.512 -0.531 -1.352 -1.5 -1.434 -1.656 c -0.043 -0.074 -0.055 -0.156 -0.035 -0.18 c 0.023 -0.02 0.414 0.156 0.871 0.398 c 0.453 0.242 0.891 0.438 0.973 0.438 c 0.176 0 0.469 -0.191 1.621 -1.059 c 0.457 -0.348 0.859 -0.633 0.895 -0.633 c 0.211 0 -0.039 0.352 -1.449 2.02 c -0.48 0.566 -0.922 1.027 -0.984 1.027 c -0.063 0 -0.27 -0.16 -0.457 -0.355"/></g></svg>