<svg xmlns="http://www.w3.org/2000/svg" viewBox="0 0 16 16"><path d="m 0.32 9.836 c 0.98 6.445 9.68 8.172 13.516 3.57 c 3.383 -3.418 2.543 -9.961 -1.605 -12.207 c -4.762 -3 -11.703 0.711 -12.08 6.684 c -0.039 0.656 0.016 1.316 0.172 1.953" fill="#2f4e4e"/><g fill="#fff" fill-opacity="0.988"><path d="m 2.695 9.855 c -0.105 -0.031 -0.203 -0.137 -0.23 -0.25 c -0.066 -0.242 -0.082 -2.762 -0.02 -3.152 l 0.047 -0.293 h 2.855 v 0.316 c 0 0.402 -0.074 0.434 -1.199 0.508 l -0.867 0.059 v 1.785 h 0.645 c 1.113 0.004 1.422 0.148 1.422 0.68 c 0 0.211 -0.039 0.277 -0.191 0.34 c -0.211 0.086 -2.176 0.09 -2.461 0.008"/><path d="m 6.176 9.871 c -0.25 -0.055 -0.34 -0.293 -0.238 -0.617 c 0.102 -0.328 0.32 -0.41 1.309 -0.48 c 0.77 -0.055 0.781 -0.18 0.016 -0.184 c -0.668 -0.004 -0.996 -0.07 -1.176 -0.246 c -0.137 -0.137 -0.152 -0.242 -0.152 -1.168 v -1.016 h 2.875 v 0.316 c 0 0.391 -0.07 0.426 -1.055 0.527 c -1.234 0.125 -1.109 0.371 0.23 0.461 l 0.816 0.051 l 0.051 0.496 c 0.066 0.684 0.012 1.648 -0.102 1.773 c -0.07 0.07 -0.422 0.102 -1.254 0.113 c -0.633 0.008 -1.23 -0.004 -1.32 -0.027"/><path d="m 9.559 7.602 c -0.172 -0.125 -0.207 -0.414 -0.082 -0.664 c 0.113 -0.227 0.465 -0.199 0.617 0.051 c 0.152 0.246 0.102 0.434 -0.168 0.602 c -0.188 0.117 -0.223 0.121 -0.367 0.012"/><path d="m 9.563 9.02 c -0.32 -0.234 -0.148 -0.816 0.238 -0.816 c 0.188 0 0.262 0.129 0.262 0.469 c 0 0.473 -0.172 0.594 -0.5 0.348"/><path d="m 10.887 9.867 c -0.246 -0.051 -0.352 -0.348 -0.238 -0.645 c 0.117 -0.293 0.371 -0.379 1.316 -0.449 c 0.82 -0.059 0.758 -0.18 -0.098 -0.188 c -1.18 -0.012 -1.34 -0.219 -1.25 -1.621 l 0.047 -0.805 h 2.863 v 0.309 c 0 0.391 -0.082 0.438 -0.867 0.504 c -0.805 0.07 -1.051 0.129 -1.051 0.246 c 0 0.141 0.223 0.191 1.117 0.246 l 0.785 0.051 l 0.055 0.82 c 0.027 0.449 0.023 0.965 -0.012 1.141 c -0.055 0.277 -0.102 0.336 -0.289 0.379 c -0.246 0.055 -2.117 0.066 -2.379 0.012"/></g></svg>