<svg xmlns="http://www.w3.org/2000/svg" viewBox="0 0 16 16"><path d="m 0.063 7.973 c -1.215 -10.734 16.13 -10.586 15.922 0.191 c 0.574 10.02 -16.867 10.93 -15.922 -0.191" fill="#cfcfcf"/><path d="m 8.07 11.77 c -0.25 -0.453 -0.082 -0.676 -0.18 -1.215 c -0.066 -0.066 -1.512 0.027 -2.391 0.148 c -0.199 0.031 -0.359 0.156 -0.578 0.469 c -0.207 0.297 -0.547 0.582 -0.684 0.582 c -0.098 0 -0.266 -0.148 -0.309 -0.266 c -0.031 -0.094 0.074 -0.328 0.289 -0.652 c 0.215 -0.324 0.262 -0.57 0.246 -1.258 c -0.008 -0.273 0.02 -0.766 0.059 -1.102 c 0.152 -1.324 0.172 -1.789 0.098 -2.305 c 0 -0.309 -0.152 -0.598 -0.238 -0.852 c -0.078 -0.254 -0.078 -0.266 0.008 -0.344 c 0.309 -0.285 0.563 -0.074 0.883 0.727 c 0.266 0.672 0.395 0.758 1.328 0.891 c 0.734 0.105 1.09 0.109 1.188 0.016 c 0.086 -0.082 0.086 -0.117 0.031 -0.504 c -0.055 -0.359 -0.188 -0.547 -0.52 -0.75 c -0.508 -0.309 -0.723 -0.617 -0.563 -0.805 c 0.109 -0.125 0.277 -0.125 0.5 0.008 c 0.664 0.383 0.621 0.375 1.441 0.375 c 0.578 0.004 0.793 -0.012 0.957 -0.07 c 0.59 -0.207 0.652 -0.219 0.77 -0.168 c 0.148 0.066 0.199 0.258 0.109 0.402 c -0.078 0.121 -0.207 0.191 -1.02 0.563 c -0.508 0.23 -0.543 0.254 -0.641 0.453 c -0.059 0.117 -0.105 0.281 -0.105 0.367 c 0.602 0.398 2.09 -0.148 2.816 0.234 c 0.195 0.109 0.203 0.199 0.039 0.379 c -0.262 0.313 -1.047 0.141 -1.457 0.137 c -1.609 -0.016 -1.543 -0.035 -1.527 0.465 c 0.004 0.203 0.031 0.355 0.066 0.383 c 0.039 0.031 0.543 0.047 1.387 0.043 l 1.332 -0.008 c 0.277 0.262 0.406 0.41 0.027 0.605 c -0.875 0.23 -1.844 0.035 -2.707 0.121 c -0.09 0.066 -0.102 0.895 -0.016 0.977 c 0.078 0.07 1.402 0.07 1.957 0 c 0.363 -0.047 0.434 -0.043 0.625 0.027 c 0.387 0.141 0.445 0.402 0.133 0.598 c -0.973 0.234 -1.508 -0.086 -2.703 0.113 c -0.098 0.391 0.051 0.895 -0.152 1.211 c -0.223 0.227 -0.383 0.148 -0.5 0.004 m -0.141 -1.973 c 0.051 -0.133 0.027 -0.852 -0.031 -0.93 c -0.055 -0.074 -0.125 -0.074 -1.156 -0.008 c -0.934 0.063 -1.117 0.086 -1.246 0.164 c -0.27 0.156 -0.176 0.406 0.219 0.598 c 0.273 0.137 0.977 0.234 1.688 0.242 c 0.414 0.004 0.504 -0.004 0.527 -0.066 m -0.051 -1.691 c 0.129 -0.289 0.066 -0.457 0.055 -0.82 l -0.77 0.008 c -0.73 0.004 -1.563 0.098 -1.727 0.195 c -0.094 0.055 -0.023 0.238 0.137 0.352 c 0.172 0.121 0.68 0.234 1.238 0.277 c 0.707 0.051 0.98 0.051 1.066 -0.012" fill="#2f2f2f"/></svg>