<svg xmlns="http://www.w3.org/2000/svg" viewBox="0 0 16 16"><path d="m 0.129 8.094 c -0.516 10.555 16.672 10.41 15.777 -0.188 c -0.07 -9.855 -17.426 -10.742 -15.777 0.188" fill="#ffd6ca"/><path d="m 9.117 12.12 c -0.16 -0.059 -0.367 -0.281 -0.434 -0.465 c -0.043 -0.113 -0.102 -0.18 -0.176 -0.195 c -0.059 -0.012 -1.184 -0.02 -2.496 -0.012 l -2.387 0.012 v -0.633 l 2.414 0.012 c 1.324 0.008 3.187 -0.004 4.137 -0.023 l 1.727 -0.031 l -0.004 -1.043 c 0 -0.645 -0.023 -1.078 -0.059 -1.133 c -0.031 -0.051 -0.082 -0.336 -0.113 -0.633 c -0.035 -0.301 -0.094 -0.746 -0.133 -0.996 c -0.043 -0.25 -0.063 -0.496 -0.047 -0.547 c 0.016 -0.051 -0.02 -0.207 -0.078 -0.344 c -0.195 -0.453 0.207 -0.414 -4.078 -0.418 l -3.766 -0.004 v -0.637 l 3.754 0.004 c 2.063 0.004 3.793 0.008 3.84 0.012 c 0.152 0.016 0.477 0.309 0.617 0.563 c 0.445 0.801 0.688 2.039 0.82 4.207 c 0.008 0.434 0.16 0.855 -0.063 1.246 c -0.094 0.168 -0.176 0.242 -0.352 0.32 c -0.215 0.094 -0.301 0.102 -1.121 0.102 h -0.891 l -0.055 0.172 c -0.105 0.328 -0.363 0.508 -0.723 0.504 c -0.125 0 -0.277 -0.02 -0.336 -0.039" fill="#f53e39"/><g fill="#f00" fill-opacity="0.557"><path d="m 11.836 8.746 c -0.02 -0.016 -0.41 -0.051 -0.871 -0.074 c -1.277 -0.066 -1.441 -0.199 -1.402 -1.141 c 0.035 -0.809 0.207 -0.941 1.289 -0.996 c 0.578 -0.027 0.699 -0.051 0.703 -0.125 c 0.129 0.672 0.145 1.285 0.293 2.027 c 0.063 0.301 0.059 0.375 -0.012 0.309"/><path d="m 3.699 8.551 c -0.023 -0.023 -0.043 -0.484 -0.043 -1.023 c 0 -0.949 0.004 -0.98 0.133 -1.043 c 0.195 -0.098 2.461 -0.027 2.691 0.082 c 0.352 0.172 0.41 0.285 0.434 0.875 c 0.016 0.438 0 0.582 -0.086 0.73 c -0.211 0.367 -0.277 0.379 -1.75 0.402 c -0.734 0.008 -1.355 -0.004 -1.379 -0.023"/></g></svg>