<svg xmlns="http://www.w3.org/2000/svg" viewBox="0 0 16 16"><path d="m 13.27 2.738 c 8.117 6.551 -3.766 18.383 -10.949 10.824 c -7.199 -6.504 4.04 -19.12 10.949 -10.824" fill="#ffa400"/><g fill="#fff"><path d="m 6.828 11.594 l -1.152 -0.656 l 1.156 -0.004 c 0.633 -0.004 1.672 -0.004 2.309 0 l 1.152 0.004 l -1.148 0.652 c -0.629 0.359 -1.152 0.652 -1.156 0.656 c -0.008 0 -0.531 -0.293 -1.16 -0.652"/><path d="m 7.805 10.395 c -0.254 -0.285 -0.426 -0.621 -0.57 -1.121 c -0.156 -0.547 -0.234 -1.188 -0.23 -1.945 v -0.477 l 0.484 -0.559 l 0.488 -0.555 l 0.5 0.555 l 0.5 0.559 l -0.012 0.582 c -0.016 0.812 -0.078 1.309 -0.246 1.871 c -0.102 0.344 -0.23 0.641 -0.391 0.879 c -0.105 0.16 -0.309 0.383 -0.348 0.383 c -0.012 0 -0.09 -0.078 -0.176 -0.172"/><path d="m 4.309 9.457 c -0.777 -0.738 -1.098 -1.055 -1.09 -1.082 c 0.008 -0.063 0.801 -2.996 0.809 -3 c 0.008 -0.008 0.48 0.043 1.055 0.109 c 0.574 0.07 1.07 0.125 1.102 0.125 c 0.043 0 0.23 -0.172 0.922 -0.844 c 0.477 -0.461 0.875 -0.84 0.883 -0.836 c 0.008 0.004 0.402 0.379 0.875 0.836 c 0.602 0.586 0.871 0.832 0.91 0.84 c 0.027 0 0.527 -0.051 1.109 -0.117 c 0.578 -0.07 1.055 -0.121 1.059 -0.121 c 0.012 0.016 0.813 3.02 0.805 3.039 c 0 0.016 -0.496 0.492 -1.094 1.063 l -1.094 1.035 h -0.387 c -0.211 -0.004 -0.43 -0.012 -0.484 -0.02 l -0.098 -0.016 l 1.16 -1.07 c 0.637 -0.59 1.156 -1.082 1.156 -1.09 c 0 -0.012 -0.602 -2.094 -0.613 -2.117 c -0.004 -0.008 -0.422 0.047 -0.926 0.113 l -0.922 0.129 l -0.203 -0.195 c -0.109 -0.105 -0.438 -0.422 -0.73 -0.703 l -0.531 -0.512 l -0.051 0.051 c -0.031 0.031 -0.359 0.348 -0.73 0.707 l -0.676 0.652 l -0.859 -0.121 c -0.477 -0.063 -0.895 -0.117 -0.93 -0.117 c -0.063 -0.004 -0.063 0 -0.125 0.215 c -0.035 0.121 -0.172 0.59 -0.305 1.043 c -0.133 0.449 -0.238 0.832 -0.238 0.852 c 0 0.02 0.52 0.512 1.156 1.098 l 1.156 1.07 l -0.098 0.012 c -0.051 0.008 -0.27 0.016 -0.484 0.016 l -0.395 0.004"/><path d="m 6.98 10.316 c -0.332 -0.289 -1.742 -1.605 -2.258 -2.109 l -0.055 -0.055 l 0.152 -0.629 c 0.086 -0.344 0.16 -0.637 0.168 -0.645 c 0.008 -0.012 0.297 0.016 0.637 0.063 c 0.344 0.043 0.629 0.078 0.633 0.078 c 0.008 0 0.02 0.145 0.027 0.324 c 0.043 1.102 0.32 2.133 0.785 2.918 c 0.07 0.125 0.129 0.227 0.125 0.23 c -0.004 0.004 -0.102 -0.074 -0.215 -0.176"/><path d="m 8.883 10.285 c 0.473 -0.789 0.793 -1.984 0.793 -2.973 c 0 -0.191 0.008 -0.293 0.02 -0.293 c 0.012 0 0.305 -0.035 0.648 -0.078 c 0.344 -0.047 0.629 -0.078 0.633 -0.07 c 0.008 0.012 0.301 1.184 0.313 1.25 c 0.008 0.063 -2.176 2.125 -2.484 2.344 c -0.047 0.035 -0.031 0.004 0.078 -0.18"/></g></svg>