<svg xmlns="http://www.w3.org/2000/svg" xmlns:xlink="http://www.w3.org/1999/xlink" viewBox="0 0 16 16"><defs><g id="A" clip-path="url(#9)"><path d="m 139.99 80.987 l 0.009 0.585 c 0.33 0.309 0.474 0.433 0.524 0.933 l 8.995 -0.008 c 0.003 -0.497 0.1 -0.579 0.486 -0.91 l -0.009 -0.585" transform="matrix(0.07465 0.06782 -0.05454 0.07913 1.213 -8.05)" fill="url(#5)" fill-rule="evenodd" stroke="url(#6)"/></g><g id="D" clip-path="url(#C)"><path d="m 139.99 83.997 l -0.009 -0.585 c 0.332 -0.334 0.483 -0.414 0.518 -0.938 l 8.995 -0.008 c 0.051 0.499 0.117 0.59 0.502 0.902 l -0.023 0.612" transform="matrix(0.07465 0.06782 -0.05454 0.07913 1.213 -8.05)" fill="url(#5)" fill-rule="evenodd" stroke="url(#6)"/></g><g id="G" clip-path="url(#F)"><path d="m 139.99 81.01 l 0.009 0.585 c 0.33 0.309 0.451 0.403 0.502 0.902 l 8.995 -0.008 c 0.026 -0.466 0.122 -0.549 0.508 -0.88 l -0.009 -0.585" transform="matrix(0.07465 0.06782 -0.05454 0.07913 0.886 -7.576)" fill="url(#5)" fill-rule="evenodd" stroke="url(#6)"/></g><g id="J" clip-path="url(#I)"><path d="m 139.97 83.987 l 0.046 -0.582 c 0.332 -0.334 0.428 -0.416 0.486 -0.91 l 8.995 -0.008 c 0.029 0.469 0.117 0.59 0.502 0.902 l 0.009 0.585 l -10.01 -0.015" transform="matrix(0.07465 0.06782 -0.05454 0.07913 0.886 -7.576)" fill="url(#5)" fill-rule="evenodd" stroke="url(#6)"/></g><g id="M" clip-path="url(#L)"><path d="m 139.97 80.997 l 0.009 0.585 c 0.353 0.339 0.474 0.433 0.524 0.933 l 8.995 -0.008 c 0.058 -0.494 0.132 -0.607 0.486 -0.91 l 0.023 -0.612" transform="matrix(0.07465 0.06782 -0.05454 0.07913 0.559 -7.101)" fill="url(#5)" fill-rule="evenodd" stroke="url(#6)"/></g><g id="P" clip-path="url(#O)"><path d="m 140 83.979 l -0.009 -0.585 c 0.332 -0.334 0.483 -0.414 0.486 -0.91 l 8.995 -0.008 c 0.051 0.499 0.15 0.563 0.524 0.933 l 0.009 0.585" transform="matrix(0.07465 0.06782 -0.05454 0.07913 0.559 -7.101)" fill="url(#5)" fill-rule="evenodd" stroke="url(#6)"/></g><clipPath id="9"><path d="M 0,0 H16 V16 H0 z"/></clipPath><clipPath id="C"><path d="M 0,0 H16 V16 H0 z"/></clipPath><clipPath id="F"><path d="M 0,0 H16 V16 H0 z"/></clipPath><clipPath id="L"><path d="M 0,0 H16 V16 H0 z"/></clipPath><clipPath id="O"><path d="M 0,0 H16 V16 H0 z"/></clipPath><clipPath id="I"><path d="M 0,0 H16 V16 H0 z"/></clipPath><filter id="7" filterUnits="objectBoundingBox" x="0" y="0" width="16" height="16"><feColorMatrix type="matrix" in="SourceGraphic" values="0 0 0 0 1 0 0 0 0 1 0 0 0 0 1 0 0 0 1 0"/></filter><linearGradient id="0" gradientUnits="userSpaceOnUse" y1="95.8" x2="0" y2="108.34" gradientTransform="matrix(0.07006 0.02155 -0.02095 0.08977 1.089 -2.182)"><stop stop-color="#fff" stop-opacity="0.302"/><stop offset="1" stop-color="#fff" stop-opacity="0"/></linearGradient><linearGradient id="3" gradientUnits="userSpaceOnUse" x1="131.29" x2="153.85" gradientTransform="matrix(0.75761 -0.03553 3.0115 0.75761 -178.97 22.299)"><stop stop-color="#9a2f2f"/><stop offset="1" stop-color="#5b1b1b"/></linearGradient><linearGradient id="2" gradientUnits="userSpaceOnUse" x1="168.29" y1="80.59" x2="168.97" y2="82.16" gradientTransform="matrix(0.06893 0.06262 -0.05454 0.07913 2.01 -7.314)"><stop stop-color="#000"/><stop offset="1" stop-color="#000" stop-opacity="0"/></linearGradient><linearGradient id="4" gradientUnits="userSpaceOnUse" x1="131.29" x2="153.85" gradientTransform="matrix(0.75761 -0.03553 3.0115 0.75761 -178.97 22.299)"><stop stop-color="#ac1616"/><stop offset="1" stop-color="#4c0a0a"/></linearGradient><linearGradient id="1" gradientUnits="userSpaceOnUse" y1="95.8" x2="0" y2="108.34" gradientTransform="matrix(-0.07006 -0.02155 -0.02862 0.12262 22.11 0.947)"><stop stop-color="#fff" stop-opacity="0.404"/><stop offset="1" stop-color="#fff" stop-opacity="0"/></linearGradient><linearGradient id="5" gradientUnits="userSpaceOnUse" x1="141.5" x2="150.58"><stop stop-color="#947256"/><stop offset="1" stop-color="#a3a3a3"/></linearGradient><linearGradient id="6" gradientUnits="userSpaceOnUse" x1="141.77" x2="150.31"><stop stop-color="#707070"/><stop offset="1" stop-color="#000" stop-opacity="0"/></linearGradient><mask id="K"><g filter="url(#7)"><path fill-opacity="0.2" d="M 0,0 H16 V16 H0 z"/></g></mask><mask id="N"><g filter="url(#7)"><path fill-opacity="0.302" d="M 0,0 H16 V16 H0 z"/></g></mask><mask id="H"><g filter="url(#7)"><path fill-opacity="0.302" d="M 0,0 H16 V16 H0 z"/></g></mask><mask id="E"><g filter="url(#7)"><path fill-opacity="0.2" d="M 0,0 H16 V16 H0 z"/></g></mask><mask id="B"><g filter="url(#7)"><path fill-opacity="0.302" d="M 0,0 H16 V16 H0 z"/></g></mask><mask id="8"><g filter="url(#7)"><path fill-opacity="0.2" d="M 0,0 H16 V16 H0 z"/></g></mask></defs><path d="m 3.305 14.438 c 12.03 8 19.438 -17.504 3.887 -14.13 c -6.426 1.441 -10.324 10.465 -3.887 14.13" fill="#acd7e5"/><path d="m 3.992 4.797 h 1.473 v 7.313 h -1.473" fill="#e64c3c"/><path d="m 5.492 4.797 h 1.422 c 0.016 0 0.023 0.016 0.023 0.031 v 7.254 c 0 0.016 -0.008 0.027 -0.023 0.027 h -1.422 c -0.016 0 -0.027 -0.012 -0.027 -0.027 v -7.254 c 0 -0.016 0.012 -0.031 0.027 -0.031" fill="#f39c12"/><path d="m 6.938 4.797 h 1.477 v 7.313 h -1.477" fill="#f1c30f"/><path d="m 8.34 4.797 h 1.473 v 7.313 h -1.473" fill="#2ecc70"/><path d="m 9.813 4.797 h 1.547 v 7.313 h -1.547" fill="#3497db"/><path d="m 3.98 4.801 l 7.379 -0.004 v 0.008 c -3.484 0.188 -3.496 0.18 -7.379 -0.004" fill="#fff" fill-opacity="0.749"/><g fill-rule="evenodd"><path d="m 4.523 11.234 c 0.996 -0.102 0.711 -0.465 1.676 -1.863 c 0.352 -0.512 0.992 0.188 0.707 0.602 c -0.863 1.254 -1.273 1.398 -2.383 1.262"/><path d="m 6.391 9.164 c -0.172 0.336 -0.266 0.523 -0.699 1.176 c 0.203 -0.258 0.68 -0.957 0.77 -0.977 c -0.238 0.367 -0.508 0.734 -0.762 1.102 c -0.172 0.254 0.5 -0.613 0.516 -0.633 c 0.086 -0.125 0.184 -0.246 0.27 -0.375 c 0.051 -0.074 -0.078 0.172 -0.121 0.254 c -0.223 0.402 -0.5 0.75 -0.789 1.086 c -0.402 0.465 -0.098 0.172 0.113 -0.086 c 0.18 -0.223 0.375 -0.395 0.539 -0.637 c 0.145 -0.207 0.488 -0.789 0.379 -0.531 c -0.211 0.5 -0.543 0.977 -0.895 1.355 c -0.027 0.031 -0.059 0.063 -0.09 0.094 c -0.055 0.055 0.102 -0.125 0.152 -0.188 c 0.305 -0.355 0.516 -0.652 0.785 -1.039 c 0.371 -0.301 -0.563 1 -0.711 1.156 c 0.293 -0.32 0.465 -0.563 0.688 -0.855 c 0.113 -0.16 0.344 -0.621 0.285 -0.445 c -0.07 0.191 -0.32 0.648 -0.535 0.953 c -0.309 0.449 0.234 -0.332 0.266 -0.379 c 0.004 -0.008 0.625 -0.906 0.316 -0.465 c -0.199 0.293 0.035 0.125 -0.688 1.063 c 0.273 -0.258 0.656 -0.824 0.777 -1 c 0.027 -0.043 0.051 -0.066 0.035 -0.117 c -0.176 -0.258 -0.281 -0.547 -0.602 -0.512" fill="url(#0)"/><path d="m 6.832 9.398 c -0.012 -0.012 -0.023 -0.023 -0.039 -0.031 c -0.086 -0.059 -0.199 -0.086 -0.313 -0.125 c -0.023 0.031 -0.086 0.121 -0.164 0.234 c -0.16 0.234 -0.375 0.543 -0.379 0.547 c 0 0.004 -0.031 0.051 -0.039 0.059 c 0.227 -0.293 0.457 -0.57 0.578 -0.688 c 0.012 -0.012 0.02 -0.016 0.027 -0.02 c 0.004 -0.008 0.012 -0.012 0.016 -0.012 c 0.004 0 0.004 -0.004 0.008 -0.004 c 0 0.004 0.004 0.008 0.004 0.012 c 0 0.004 -0.004 0.008 -0.008 0.012 c 0 0.004 -0.004 0.012 -0.008 0.02 c -0.02 0.027 -0.063 0.082 -0.117 0.152 c -0.105 0.137 -0.254 0.32 -0.332 0.43 c -0.359 0.594 -0.832 1.262 -0.105 0.219 c 0.145 -0.203 0.277 -0.383 0.355 -0.469 c 0.023 -0.023 0.039 -0.043 0.055 -0.051 c 0.008 -0.008 0.012 -0.012 0.02 -0.012 c 0.004 -0.004 0.012 -0.004 0.016 0 c 0.004 0.008 0.004 0.016 0 0.023 c 0 0.008 0 0.016 -0.004 0.027 c -0.004 0.02 -0.016 0.051 -0.031 0.09 c 0 0.004 0 0.004 -0.004 0.004 c -0.07 0.105 -0.133 0.203 -0.195 0.301 c 0.129 -0.168 0.266 -0.332 0.406 -0.48 c 0.016 -0.016 0.027 -0.027 0.035 -0.035 c 0.012 -0.008 0.016 -0.016 0.023 -0.02 c 0.004 0 0.004 -0.004 0.012 0 c 0 0 0.004 0.004 0.004 0.004 c 0 0.004 0 0.004 0 0.008 c 0 0.008 -0.004 0.012 -0.008 0.023 c -0.023 0.035 -0.074 0.109 -0.141 0.203 c -0.133 0.184 -0.32 0.434 -0.414 0.578 c -1.324 2.402 -0.898 1.246 0.34 -0.355 c 0.039 -0.051 0.117 -0.145 0.176 -0.215 c 0.031 -0.035 0.055 -0.066 0.07 -0.078 c 0.004 -0.004 0.004 -0.008 0.008 -0.008 c 0 -0.004 0 0 0.004 -0.004 c 0 0 0.004 0 0.004 0 c 0 0 0.004 0.004 0.004 0.004 c 0 0 0.004 0 0.004 0 c 0 0 -0.004 0.004 -0.004 0.004 c 0 0 0.004 0.004 0.004 0.004 c 0 0.004 0 0.008 -0.004 0.008 c 0 0.004 0 0 0 0.004 c -0.004 0.004 -0.008 0.012 -0.012 0.016 c -0.242 0.391 -0.504 0.754 -0.809 1.086 c -0.52 0.789 0.832 -1.027 0.895 -1.113 c 0 0 0 0 0 -0.004 c 0.004 0 0.004 0 0.004 0 c 0.004 0 0.004 0 0.004 0 c 0.004 0 0.004 0 0.004 0 s 0 0.004 0.004 0.004 c 0 0 0 0.004 -0.004 0.004 c 0 0.02 -0.012 0.051 -0.031 0.09 c -0.199 0.398 -0.52 0.688 -0.75 1.055 c 0.488 -0.586 0.688 -0.805 0.969 -1.141 c 0 -0.184 -0.051 -0.289 -0.137 -0.359 m -0.367 -0.164 c -0.02 -0.008 -0.039 -0.012 -0.059 -0.02 c -0.023 0 -0.035 0.008 -0.051 0.023 c -0.016 0.016 -0.031 0.039 -0.051 0.07 c -0.148 0.211 -0.543 0.859 -0.801 1.332 c 0.238 -0.465 0.559 -0.848 0.855 -1.258 c 0.055 -0.078 0.086 -0.125 0.105 -0.148" fill="url(#1)"/><path d="m 4.523 11.234 c 0.996 -0.102 0.711 -0.465 1.676 -1.863 c 0.352 -0.512 0.992 0.188 0.707 0.602 c -0.863 1.254 -1.273 1.398 -2.383 1.262" fill="url(#2)"/><g stroke-linecap="square"><path d="m 142.58 66.31 c 5.204 -0.003 13.151 13.62 10.457 18.16 c -2.554 4.544 -18.361 4.546 -20.928 -0.002 c -2.649 -4.541 5.21 -18.17 10.471 -18.16" transform="matrix(0.02914 0.02647 -0.21227 0.30799 21.47 -21.774)" fill="url(#3)" stroke="url(#4)" stroke-width="0.758"/><path d="m 140.52 78.5 l -0.033 2.891 c 0.308 0.279 0.488 0.668 0.494 1.107 c 0.007 0.439 -0.172 0.839 -0.494 1.114 l 0.012 3.741 c 0.308 0.279 0.51 0.698 0.484 1.164 c 0.007 0.439 -0.172 0.839 -0.494 1.114 l 0.012 3.741 c 0.308 0.279 0.488 0.668 0.494 1.107 c 0.007 0.439 -0.204 0.866 -0.526 1.142 l 0.006 1.871 l 9.02 0.023 l -0.006 -1.871 c -0.308 -0.279 -0.51 -0.698 -0.484 -1.164 c -0.007 -0.439 0.172 -0.839 0.494 -1.114 l -0.012 -3.741 c -0.308 -0.279 -0.488 -0.668 -0.494 -1.107 c 0.026 -0.466 0.204 -0.866 0.526 -1.142 l -0.012 -3.741 c -0.308 -0.279 -0.51 -0.698 -0.517 -1.137 c -0.007 -0.439 0.204 -0.866 0.494 -1.114 l 0.033 -2.891" transform="matrix(0.07465 0.06782 -0.05454 0.07913 1.213 -8.05)" fill="url(#5)" stroke="url(#6)" stroke-width="1.354"/></g></g><use xlink:href="#A" mask="url(#8)"/><use xlink:href="#D" mask="url(#B)"/><use xlink:href="#G" mask="url(#E)"/><use xlink:href="#J" mask="url(#H)"/><use xlink:href="#M" mask="url(#K)"/><use xlink:href="#P" mask="url(#N)"/><path d="m 4 12.12 l 7.348 -0.02 l 0.012 0.012 c -3.484 -0.172 -3.477 -0.156 -7.359 0.008" fill-opacity="0.502"/></svg>