<svg xmlns="http://www.w3.org/2000/svg" viewBox="0 0 16 16"><path d="m 3.227 14.04 c 6.273 5.594 15.594 -1.973 11.773 -9.34 c -2.789 -6.223 -11.395 -5.953 -13.871 -1.043 c -1.93 2.965 -1.348 7.914 2.098 10.383" fill="#4489ff"/><g fill="#fff"><path d="m 6.125 12.539 c -1.012 -0.25 -1.914 -0.777 -2.543 -1.484 c -0.629 -0.703 -1.086 -1.723 -1.105 -2.477 l -0.016 -0.484 h 3.598 l 0.227 0.387 c 0.168 0.285 0.316 0.438 0.578 0.59 l 0.348 0.203 l -0.031 0.305 c -0.016 0.168 -0.078 0.863 -0.133 1.551 c -0.059 0.684 -0.121 1.316 -0.137 1.398 c -0.039 0.18 -0.102 0.184 -0.785 0.012"/><path d="m 2.469 7.117 c 0.004 -0.309 0.488 -1.398 0.891 -1.984 c 0.309 -0.457 1.039 -1.156 1.586 -1.523 c 0.789 -0.531 2.637 -1.172 2.824 -0.98 c 0.043 0.039 0.012 0.605 -0.082 1.566 c -0.191 1.957 -0.164 1.852 -0.461 1.902 c -0.32 0.051 -0.711 0.383 -0.902 0.758 l -0.148 0.297 l -1.855 0.016 c -1.199 0.012 -1.852 -0.008 -1.852 -0.051"/><path d="m 11.457 7.145 c -0.918 -0.023 -1.691 -0.047 -1.715 -0.051 c -0.023 -0.008 -0.152 -0.164 -0.285 -0.352 c -0.133 -0.188 -0.375 -0.434 -0.539 -0.551 l -0.301 -0.215 v -0.441 c 0 -0.242 0.047 -0.926 0.102 -1.516 c 0.059 -0.594 0.086 -1.16 0.063 -1.266 c -0.023 -0.102 -0.031 -0.188 -0.02 -0.188 c 0.129 0 1.094 0.238 1.375 0.336 c 1.355 0.48 2.563 1.734 2.914 3.035 c 0.113 0.41 0.191 1.203 0.121 1.23 c -0.023 0.008 -0.793 -0.004 -1.715 -0.023"/><path d="m 10.1 11.844 c -0.465 -0.469 -1.121 -1.156 -1.461 -1.535 l -0.617 -0.688 l 0.676 -0.605 c 0.961 -0.867 1.086 -0.953 1.246 -0.863 c 0.07 0.039 0.738 0.703 1.484 1.473 l 1.355 1.398 l -0.484 0.461 c -0.266 0.254 -0.68 0.629 -0.918 0.832 l -0.438 0.375"/></g></svg>