<svg xmlns="http://www.w3.org/2000/svg" xmlns:xlink="http://www.w3.org/1999/xlink" viewBox="0 0 16 16"><defs><g id="5" clip-path="url(#4)"><path d="m 8.438 7.359 h 2.309 c 0.348 0 0.633 0.313 0.633 0.699 v 3.336 c 0 0.387 -0.285 0.699 -0.633 0.699 h -2.309 c -0.352 0 -0.633 -0.313 -0.633 -0.699 v -3.336 c 0 -0.387 0.281 -0.699 0.633 -0.699"/><path d="m 10.484 10.715 c 0 0.543 -0.398 0.984 -0.895 0.984 c -0.492 0 -0.891 -0.441 -0.891 -0.984 c 0 -0.547 0.398 -0.988 0.891 -0.988 c 0.496 0 0.895 0.441 0.895 0.988"/><path d="m 10.129 8.543 c 0 0.328 -0.242 0.594 -0.539 0.594 c -0.293 0 -0.535 -0.266 -0.535 -0.594 c 0 -0.324 0.242 -0.59 0.535 -0.59 c 0.297 0 0.539 0.266 0.539 0.59"/></g><clipPath id="9"><path d="m 7 5 h 3 v 3 h -3"/></clipPath><clipPath id="6"><path d="m 5 4 h 7 v 9 h -7"/></clipPath><clipPath id="8"><path d="m 6 8 h 4 v 4 h -4"/></clipPath><clipPath id="7"><path d="m 15.18 8.73 c 0 4.125 -3.156 7.469 -7.04 7.469 c -3.887 0 -7.04 -3.344 -7.04 -7.469 c 0 -4.129 3.152 -7.469 7.04 -7.469 c 3.887 0 7.04 3.34 7.04 7.469"/></clipPath><clipPath id="4"><path d="M 0,0 H16 V16 H0 z"/></clipPath><clipPath id="0"><path d="m 5 4 h 9 v 11 h -9"/></clipPath><clipPath id="1"><path d="m 13.523 9.531 c 0 2.508 -1.844 4.535 -4.109 4.535 c -2.27 0 -4.113 -2.027 -4.113 -4.535 c 0 -2.508 1.844 -4.539 4.113 -4.539 c 2.266 0 4.109 2.031 4.109 4.539"/></clipPath><filter id="2" filterUnits="objectBoundingBox" x="0" y="0" width="16" height="16"><feColorMatrix type="matrix" in="SourceGraphic" values="0 0 0 0 1 0 0 0 0 1 0 0 0 0 1 0 0 0 1 0"/></filter><mask id="3"><g filter="url(#2)"><path fill-opacity="0.102" d="M 0,0 H16 V16 H0 z"/></g></mask></defs><path d="m 5.301 15.531 c 20.91 4.684 5.676 -28.688 -4.078 -9.258 c -1.684 3.473 -0.961 8.641 4.078 9.258" fill="#d2d2d2"/><g clip-path="url(#0)"><g clip-path="url(#1)"><use xlink:href="#5" mask="url(#3)"/></g></g><g clip-path="url(#6)"><g clip-path="url(#7)"><path d="m 6.16 4.832 h 3.953 c 0.598 0 1.086 0.516 1.086 1.152 v 5.492 c 0 0.633 -0.488 1.148 -1.086 1.148 h -3.953 c -0.598 0 -1.082 -0.516 -1.082 -1.148 v -5.492 c 0 -0.637 0.484 -1.152 1.082 -1.152" fill="#ff6636"/></g></g><g clip-path="url(#8)"><g clip-path="url(#7)"><path d="m 9.668 10.352 c 0 0.898 -0.684 1.625 -1.531 1.625 c -0.844 0 -1.531 -0.727 -1.531 -1.625 c 0 -0.895 0.688 -1.621 1.531 -1.621 c 0.848 0 1.531 0.727 1.531 1.621" fill="#f9f9f9"/></g></g><g clip-path="url(#9)"><g clip-path="url(#7)"><path d="m 9.05 6.781 c 0 0.539 -0.41 0.973 -0.918 0.973 c -0.504 0 -0.918 -0.434 -0.918 -0.973 c 0 -0.539 0.414 -0.973 0.918 -0.973 c 0.508 0 0.918 0.434 0.918 0.973" fill="#f9f9f9"/></g></g></svg>