<svg xmlns="http://www.w3.org/2000/svg" viewBox="0 0 16 16"><path d="m 2.578 3.145 c -6.371 6 1.188 13.926 6.246 12.637 c 5.05 -1.289 8.883 -5.766 6.207 -10.176 c -2.672 -4.414 -6.082 -8.461 -12.453 -2.461" fill="#d1b38c"/><g transform="scale(0.0625)"><g fill="#955301" stroke="#955301" stroke-width="0.097"><path d="m 150.44 89.94 l -6.188 -0.188 v -41.938 l 2.688 -0.188 l 2.75 -0.188 l 0.188 -3.313 l 0.188 -3.375 h 6.313 v 7 h 5.688 v 42.06 h -1.813 c -1.063 0 -2.25 0.063 -2.75 0.188 c -0.438 0.063 -3.625 0.063 -7.06 -0.063"/><path d="m 97 89.94 l -6.25 -0.188 v -41.938 l 2.688 -0.188 l 2.75 -0.188 l 0.188 -3.313 l 0.188 -3.375 h 6.25 l 0.188 3.375 l 0.188 3.313 l 5.375 0.375 v 41.875 l -2.688 0.188 c -1.5 0.125 -5.5 0.125 -8.875 0.063"/><path d="m 96.5 144.56 v -21 h 12.06 v 42 h -12.06"/><path d="m 150 144.56 v -20.938 l 3.625 -0.188 l 3.688 -0.188 l 0.188 -5.938 l 0.188 -5.875 h 4.375 v 54.13 h -12.06"/></g><path d="m 156.31 197.81 h 21.938 v 6.563 h -21.938" stroke="#000" stroke-width="0.167"/><path d="m 163.38 207.94 c -0.375 -25.375 -0.125 -37.625 0 -56.37 v -52.875 h 5.563 l 0.375 3.625 c 0.25 2 0.438 27.25 0.375 56.06 l -0.063 52.44 h -6.25" fill="#999" stroke="#999" stroke-width="0.097"/><path d="m 81.63 198.56 h 21.19 v 6.563 h -21.19" stroke="#000" stroke-width="0.167"/><path d="m 89.81 154.13 v -56.06 h 6.375 v 112.06 h -6.375" fill="#999" stroke="#999" stroke-width="0.116"/><g fill="#fff" stroke="#fff"><path d="m 111.81 219.69 c 0 -2.875 0.25 -3.125 3.313 -3.125 c 3.063 0 3.313 0.25 3.313 3.125 c 0 2.938 -0.25 3.188 -3.313 3.188 c -3.063 0 -3.313 -0.25 -3.313 -3.188" stroke-width="0.153"/><path d="m 130.88 207 c 0 -3.813 0 -3.813 2.688 -3.813 c 2.688 0 2.688 0 2.688 3.813 c 0 3.75 0 3.75 -2.688 3.75 c -2.688 0 -2.688 0 -2.688 -3.75" stroke-width="0.123"/><path d="m 123.25 193.94 v -4.125 h 8.25 v 8.25 h -8.25" stroke-width="0.133"/><path d="m 144.25 220 c 0 -3.438 0.063 -3.438 3.5 -3.438 c 3.5 0 3.5 0 3.5 3.438 c 0 3.5 0 3.5 -3.5 3.5 c -3.438 0 -3.5 0 -3.5 -3.5" stroke-width="0.134"/><path d="m 155.44 208.44 c 0 -3.313 0 -3.375 3.313 -3.375 c 3.313 0 3.313 0.063 3.313 3.375 c 0 3.313 0 3.313 -3.313 3.313 c -3.313 0 -3.313 0 -3.313 -3.313" stroke-width="0.128"/><path d="m 150 174.81 c 0 -3.375 0.125 -3.5 3.938 -3.5 c 3.875 0 4 0.125 4 3.5 c 0 3.375 -0.125 3.5 -4 3.5 c -3.813 0 -3.938 -0.125 -3.938 -3.5" stroke-width="0.147"/><path d="m 127.13 165.75 c 0 -3.625 0.313 -3.938 4.063 -3.938 c 3.75 0 4.125 0.313 4.125 3.938 c 0 3.625 -0.375 3.938 -4.125 3.938 c -3.75 0 -4.063 -0.313 -4.063 -3.938" stroke-width="0.189"/><path d="m 123.25 136.75 c 0 -3.25 0.125 -3.313 3.938 -3.313 c 3.875 0 4 0.063 4 3.313 c 0 3.25 -0.125 3.313 -4 3.313 c -3.813 0 -3.938 -0.063 -3.938 -3.313" stroke-width="0.143"/><path d="m 104.13 170.69 c 0 -3.813 0.063 -3.813 3.5 -3.813 c 3.5 0 3.5 0 3.5 3.813 c 0 3.75 0 3.813 -3.5 3.813 c -3.438 0 -3.5 -0.063 -3.5 -3.813" stroke-width="0.14"/><path d="m 96.5 182.44 v -2.875 h 6.375 v 5.75 h -6.375" stroke-width="0.097"/></g><g stroke-width="0.056"><g fill="#c108ff" stroke="#c108ff"><path d="m 96.75 109.44 v -5.5 h 3.438 c 3.438 0 3.5 0 3.875 -0.938 c 0.188 -0.5 0.375 -1.625 0.375 -2.5 v -1.625 l 4 -0.25 v 16.313 h -11.688"/><path d="m 144.31 107.13 v -8.313 h 11.688 v 1.875 c 0 2.938 0.313 3.25 3.313 3.25 h 2.563 v 5.875 h -2.5 c -1.438 0 -2.688 0.188 -2.938 0.438 c -0.25 0.25 -0.438 1.375 -0.438 2.563 v 2.125 h -1.75 c -0.938 0 -3.563 0.125 -5.813 0.25 l -4.125 0.25"/></g><path d="m 144.13 152.94 c -0.125 -0.313 -0.25 -5.938 -0.313 -12.563 l -0.063 -12.06 l -13.375 -0.125 c -12.188 -0.063 -13.375 -0.063 -13.813 0.563 c -0.313 0.375 -0.438 2.313 -0.438 6.188 v 5.625 h -6.25 v -29.31 h 6.25 v 12.375 l 1.125 0.25 c 1.875 0.375 17.375 0.25 18.438 -0.125 l 0.938 -0.375 v -12.12 h 6.188 v 2.375 c 0 2.813 0.375 3.125 3.438 3.125 h 2 l 0.25 5.938 c 0.125 3.313 0.188 11.5 0.125 18.19 l -0.125 12.313 l -2.125 0.063 c -1.438 0.125 -2.125 0 -2.25 -0.375" fill="#f00" stroke="#f00"/></g><g fill="#f00" stroke="#f00"><path d="m 116.5 153.5 c -0.188 -0.313 -0.188 -3.188 -0.125 -6.438 l 0.125 -5.875 h 5.625 v 12.625 l -2.688 0.063 c -1.938 0.125 -2.813 0 -2.938 -0.375" stroke-width="0.067"/><path d="m 109.94 159.81 v -6 h 6.188 v 12 h -6.188" stroke-width="0.058"/><path d="m 116.75 186 c -0.063 -0.313 -0.125 -5.063 -0.063 -10.563 l 0.125 -9.938 h 5.25 l 0.25 21 h -2.688 c -1.688 0 -2.688 -0.188 -2.875 -0.5" stroke-width="0.065"/><g stroke-width="0.056"><path d="m 110.13 203.63 c -0.125 -0.188 -0.25 -4 -0.25 -8.625 v -8.375 h 6.25 v 17.25 h -2.875 c -1.563 0 -2.938 -0.125 -3.125 -0.25"/><path d="m 137.56 165.88 v -12.06 h 6.25 v 24.13 h -6.25"/></g><path d="m 142.69 182.63 v -4.5 h 6.625 v 9 h -6.625" stroke-width="0.082"/><path d="m 149.94 203.38 c -0.063 -0.25 -0.125 -4.063 -0.063 -8.5 l 0.125 -8.06 h 6.188 l 0.125 3.313 c 0.063 1.813 0 5.625 -0.125 8.5 l -0.25 5.188 h -2.938 c -2 0 -2.938 -0.125 -3.063 -0.438" stroke-width="0.056"/></g><g stroke="#000"><path d="m 96.75 119.69 v -2.938 h 11.75 l -0.125 2.813 l -0.125 2.875 l -5.75 0.063 l -5.75 0.125" stroke-width="0.056"/><path d="m 102.88 94.81 l 0.125 -3.438 l 2.75 -0.125 l 2.688 -0.125 v 7.125 h -5.688" stroke-width="0.07"/><path d="m 144.63 94.38 v -3.563 h 11.688 v 7.125 h -11.688" stroke-width="0.062"/><path d="m 150 122.38 c -0.125 -0.125 -0.188 -1.438 -0.188 -2.938 v -2.688 h 6.188 v 5.875 h -2.875 c -1.563 0 -2.938 -0.125 -3.125 -0.25" stroke-width="0.056"/></g><g stroke-width="0.049"><g fill="#f00" stroke="#f00"><path d="m 171 100.13 c 0 -3.313 -0.125 -3.375 -4.5 -3.375 c -4.625 0 -4.75 0.063 -4.75 3 v 2.375 h -4.125 v -11.125 h 17.5 l -0.063 5.688 l -0.063 5.625 l -2 0.125 l -2 0.063"/><path d="m 97.75 100.13 c 0 -3.313 -0.125 -3.375 -4.5 -3.375 c -4.625 0 -4.75 0.063 -4.75 3 v 2.375 h -4.125 v -11.125 h 17.563 l -0.125 5.688 l -0.063 5.625 l -2 0.125 l -2 0.063"/></g><path d="m 117.19 117.94 v -6.563 h -7.313 v -12.75 h 7.313 v -6.688 h 19.13 v 6.688 h 7 v 12.75 h -7 v 13.06 h -19.12" fill="#0606ff" stroke="#0606ff"/></g></g></svg>