<svg xmlns="http://www.w3.org/2000/svg" viewBox="0 0 16 16"><path d="m 11.477 0.195 c -22.766 -1.59 -5.703 29.1 3.969 8.891 c 1.332 -3.113 0.359 -7.758 -3.969 -8.891" fill="#f1e5de"/><path d="m 7.754 4.195 c -1.441 0 -2.598 1.164 -2.598 2.605 v 1.301 c 0 0.113 0.008 0.219 0.02 0.328 h -0.02 v 2.277 h 0.324 v 1.301 h 0.973 v -0.324 h -0.648 v -0.977 h 0.973 v 1.301 h 0.977 v -0.324 h -0.648 v -0.977 h 0.973 v 1.301 h 0.977 v -0.324 h -0.652 v -0.977 h 0.977 v 1.301 h 0.973 v -0.324 h -0.648 v -0.977 h 0.973 v -2.277 h -0.02 c 0.012 -0.109 0.02 -0.215 0.02 -0.328 v -0.02 c 0.441 0.098 0.945 0.207 1.52 0.324 c 0.063 0.023 0.105 0.023 0.105 0.023 c 0 0 0.648 0 0.648 -1.305 c 0 -1.301 -0.648 -1.301 -0.648 -1.301 c 0 0 -0.117 0.008 -0.254 0.105 c -0.52 0.215 -0.98 0.414 -1.383 0.598 c -0.137 -1.313 -1.238 -2.332 -2.586 -2.332" fill-opacity="0.102"/><path d="m 5.332 3.871 h 4.52 c 0.277 0 0.5 0.223 0.5 0.5 v 5.512 c 0 0.273 -0.223 0.5 -0.5 0.5 h -4.52 c -0.277 0 -0.5 -0.227 -0.5 -0.5 v -5.512 c 0 -0.277 0.223 -0.5 0.5 -0.5" fill="#e3db2f"/><path d="m 5.156 10.05 v 1.629 h 0.973 v -0.324 h -0.648 v -1.305 m 0.973 0 v 1.629 h 0.977 v -0.324 h -0.652 v -1.305 m 0.977 0 v 1.629 h 0.973 v -0.324 h -0.648 v -1.305 m 0.977 0 v 1.629 h 0.973 v -0.324 h -0.648 v -1.305" fill="#2d2d2d"/><path d="m 4.832 8.102 h 5.52 v 2.281 h -5.52" fill="#538d3d"/><g fill="#2d2d2d"><path d="m 8.08 6.148 c 0 0.18 -0.145 0.328 -0.324 0.328 c -0.18 0 -0.324 -0.148 -0.324 -0.328 c 0 -0.18 0.145 -0.324 0.324 -0.324 c 0.18 0 0.324 0.145 0.324 0.324"/><path d="m 9.379 6.148 c 0 0.18 -0.148 0.328 -0.324 0.328 c -0.18 0 -0.328 -0.148 -0.328 -0.328 c 0 -0.18 0.148 -0.324 0.328 -0.324 c 0.176 0 0.324 0.145 0.324 0.324"/></g><path d="m 11.977 5.5 c -1.625 0.648 -2.922 1.301 -2.922 1.301 v 0.652 c 0 0 1.297 0.324 2.922 0.648" fill="#e3db2f"/><path d="m 12.625 6.801 c 0 -1.301 -0.648 -1.301 -0.648 -1.301 c 0 0 -0.648 0 -0.648 1.301 c 0 1.301 0.648 1.301 0.648 1.301 c 0 0 0.648 0 0.648 -1.301" fill="#b9b119"/><g fill="#2d2d2d"><path d="m 4.832 8.43 h 5.52 v 0.324 h -5.52"/><path d="m 4.832 9.406 h 5.52 v 0.324 h -5.52"/></g></svg>