<svg xmlns="http://www.w3.org/2000/svg" viewBox="0 0 16 16"><path d="m 7.973 15.938 c -10.734 1.215 -10.586 -16.13 0.191 -15.922 c 10.02 -0.574 10.93 16.867 -0.191 15.922" fill="#47d0cc"/><path d="m 4.242 4.676 v 7.93 h 7.984 v -7.93 m -1.664 3.965 c 0.402 0.203 0.746 0.418 1 0.59 v 2.715 h -6.656 v -2.715 c 0.254 -0.172 0.602 -0.387 1 -0.59 c 0 1.277 1.043 2.313 2.328 2.313 c 1.285 0 2.328 -1.035 2.328 -2.313" fill-opacity="0.102"/><path d="m 3.91 4.344 v 7.93 h 7.984 v -7.93 m -1.664 3.965 c 0.398 0.203 0.746 0.422 0.996 0.59 v 2.715 h -6.652 v -2.715 c 0.254 -0.168 0.598 -0.387 1 -0.59 c 0 1.277 1.043 2.313 2.328 2.313 c 1.285 0 2.328 -1.035 2.328 -2.313" fill="#2f2f2f"/><path d="m 4.574 5 v 3.09 c 0.32 -0.199 0.715 -0.414 1.152 -0.605 c 0.344 -0.898 1.207 -1.492 2.176 -1.492 c 0.969 0 1.832 0.594 2.176 1.492 c 0.438 0.191 0.832 0.406 1.148 0.605 v -3.09" fill="#86aade"/><path d="m 7.902 6.656 c -0.441 0 -0.867 0.176 -1.18 0.488 c 0.383 -0.098 0.777 -0.156 1.18 -0.156 c 0.402 0 0.797 0.059 1.176 0.156 c -0.313 -0.313 -0.734 -0.488 -1.176 -0.488" fill="#d25f5f"/><path d="m 7.902 7.648 c -0.551 0 -1.113 0.145 -1.633 0.348 c -0.023 0.102 -0.031 0.207 -0.031 0.312 c 0 0.914 0.742 1.652 1.664 1.652 c 0.918 0 1.66 -0.738 1.66 -1.652 c 0 -0.105 -0.008 -0.211 -0.031 -0.312 c -0.516 -0.203 -1.082 -0.348 -1.629 -0.348 m 0 0.328 c 0.367 0 0.664 0.297 0.664 0.66 c 0 0.367 -0.297 0.664 -0.664 0.664 c -0.371 0 -0.668 -0.297 -0.668 -0.664 c 0 -0.363 0.297 -0.66 0.668 -0.66" fill="#f9f9f9"/></svg>