<svg xmlns="http://www.w3.org/2000/svg" viewBox="0 0 16 16"><path d="m 2.844 14.219 c 5.984 3.891 11.438 0.75 12.73 -3.656 c 1.738 -5.926 -2.836 -13.973 -12.258 -8.672 c -3.746 2.109 -4.738 9.555 -0.473 12.324" fill="#b93737"/><path d="m 1.543 9.965 c -0.023 -0.078 -0.039 -0.883 -0.027 -1.785 l 0.012 -1.641 l 0.672 -0.055 c 0.625 -0.055 0.695 -0.016 0.992 0.543 c 0.441 0.84 0.43 1.777 -0.039 2.52 c -0.297 0.473 -0.449 0.563 -0.961 0.563 c -0.332 0 -0.625 -0.063 -0.648 -0.145 m 1.215 -1.051 c 0.234 -0.375 0.176 -1.273 -0.102 -1.508 c -0.355 -0.305 -0.48 -0.078 -0.48 0.883 c 0 0.695 0.043 0.855 0.219 0.855 c 0.121 0 0.281 -0.102 0.363 -0.23 m 1.113 1.012 c -0.148 -0.156 -0.156 -0.254 -0.031 -0.535 c 0.281 -0.629 0.305 -0.848 0.152 -1.301 c -0.082 -0.25 -0.117 -0.539 -0.074 -0.645 c 0.078 -0.207 1.473 -0.188 1.602 0.02 c 0.156 0.254 -0.078 0.691 -0.402 0.75 c -0.477 0.086 -0.547 0.832 -0.098 1.012 c 0.215 0.082 0.305 0.234 0.277 0.457 c -0.027 0.25 -0.184 0.344 -0.641 0.379 c -0.332 0.027 -0.688 -0.035 -0.785 -0.137 m 1.922 0.098 c -0.105 -0.168 -0.008 -3.238 0.109 -3.426 c 0.168 -0.266 0.43 -0.004 0.672 0.668 c 0.211 0.586 0.238 0.602 0.363 0.258 c 0.496 -1.332 0.918 -1.313 0.887 0.047 c -0.012 0.496 0.02 1.223 0.074 1.617 c 0.086 0.664 0.07 0.727 -0.215 0.844 c -0.344 0.137 -0.715 -0.227 -0.621 -0.605 c 0.035 -0.145 -0.074 -0.27 -0.27 -0.316 c -0.285 -0.066 -0.328 -0.012 -0.324 0.414 c 0 0.383 -0.066 0.504 -0.305 0.547 c -0.168 0.031 -0.336 0.012 -0.371 -0.047 m 2.445 -0.18 c -0.109 -0.207 -0.074 -0.332 0.164 -0.582 c 0.246 -0.254 0.305 -0.477 0.305 -1.113 c 0 -0.516 -0.07 -0.875 -0.199 -1.027 c -0.313 -0.363 -0.078 -0.676 0.504 -0.676 c 0.621 0 0.82 0.332 0.441 0.734 c -0.367 0.387 -0.367 1.613 0.004 2 c 0.172 0.184 0.234 0.391 0.184 0.602 c -0.098 0.414 -1.195 0.461 -1.402 0.059 m 2.109 0.086 c -0.039 -0.098 -0.004 -0.578 0.078 -1.063 c 0.113 -0.688 0.117 -1.023 0.004 -1.492 c -0.078 -0.332 -0.113 -0.676 -0.078 -0.766 c 0.035 -0.09 0.352 -0.164 0.703 -0.164 c 0.523 0 0.688 0.086 0.922 0.484 c 0.238 0.402 0.266 0.57 0.168 1.012 c -0.066 0.301 -0.285 0.656 -0.508 0.824 c -0.297 0.223 -0.359 0.352 -0.254 0.52 c 0.262 0.418 0.023 0.824 -0.488 0.824 c -0.262 0 -0.512 -0.078 -0.547 -0.18 m 1.203 -2.328 c 0 -0.418 -0.473 -0.359 -0.523 0.063 c -0.031 0.277 0.02 0.34 0.242 0.289 c 0.152 -0.035 0.281 -0.191 0.281 -0.352 m 0.996 2.305 c -0.254 -0.242 -0.277 -0.926 -0.039 -1.07 c 0.094 -0.059 0.316 0.043 0.492 0.227 c 0.246 0.258 0.348 0.281 0.461 0.102 c 0.164 -0.262 -0.066 -0.59 -0.422 -0.594 c -0.109 -0.004 -0.313 -0.227 -0.445 -0.5 c -0.195 -0.398 -0.219 -0.582 -0.117 -0.941 c 0.234 -0.816 1.039 -1.051 1.523 -0.441 c 0.207 0.258 0.367 0.777 0.152 0.91 c -0.145 0.09 -0.309 0.332 -0.094 0.793 l 0.203 0.34 l 0.004 0.473 l -0.195 0.281 c -0.262 0.379 -0.359 0.539 -0.777 0.578 c -0.293 0.023 -0.629 -0.047 -0.746 -0.156 m 1 -2.402 c -0.16 -0.309 -0.484 -0.395 -0.484 -0.129 c 0 0.266 0.148 0.418 0.398 0.418 c 0.055 0 0.324 0.289 0.445 0.309 c 0.125 0.02 0.047 -0.348 0.047 -0.379 c 0.004 -0.043 -0.352 -0.113 -0.406 -0.219"/></svg>