<svg xmlns="http://www.w3.org/2000/svg" viewBox="0 0 16 16"><path d="m 0.379 6.121 c 3.051 -14.66 24.07 1.078 11.441 8.531 c -4.902 3.191 -13.02 -0.992 -11.441 -8.531" fill="#abcee4"/><path d="m 64.13 149.94 c -5.313 -27.12 11.563 -59.938 31.688 -68.875 c 8 -5.25 26.313 -14.5 26.938 -24.938 c 0.5 -7.75 20.563 16.688 45.5 26.813 c 22 12.75 31.5 46.5 27.938 66.63 c -18.75 68.938 -117.19 63.938 -132.06 0.375" transform="scale(0.0625)" fill="#fff" stroke="#fff" stroke-width="0.971"/><path d="m 7.313 12.68 c -0.75 -0.168 -1.289 -0.418 -1.883 -0.863 c -1.156 -0.871 -1.832 -2.395 -1.641 -3.703 c 0.094 -0.652 0.152 -0.863 0.387 -1.355 c 0.383 -0.813 0.996 -1.48 1.789 -1.938 c 1.078 -0.629 1.301 -0.785 1.438 -1.012 c 0.078 -0.129 0.141 -0.297 0.141 -0.375 c 0 -0.164 0.148 -0.395 0.254 -0.395 c 0.039 0 0.188 0.141 0.32 0.309 c 0.352 0.434 0.691 0.684 1.496 1.098 c 0.844 0.434 1.152 0.652 1.613 1.141 c 0.777 0.82 1.18 1.848 1.184 3 c 0.004 1.617 -0.828 2.969 -2.277 3.695 c -0.434 0.215 -0.535 0.25 -1.207 0.398 c -0.441 0.098 -1.172 0.094 -1.613 -0.004 m 2.75 -0.684 c 0.254 -0.121 0.34 -0.383 0.273 -0.449 c -0.148 -0.223 -0.281 -0.031 -0.484 0.051 c -0.68 0.25 -1.121 0.309 -1.773 -0.047 c -0.375 -0.191 -0.691 0.281 -0.367 0.508 c 0.219 0.152 0.496 0.203 1.23 0.188 c 0.531 -0.008 0.887 -0.137 1.121 -0.25 m -1.207 -0.68 c 0.234 -0.281 0.98 0.137 1.246 -0.121 c 0.133 0 0.07 -0.344 -0.086 -0.488 c -0.223 -0.207 -0.844 -0.336 -1.164 -0.113 c -0.133 0.094 -0.426 0.449 -0.438 0.504 c -0.027 0.133 0.211 0.387 0.441 0.219 m -1.23 -0.426 c 0.129 -0.051 0.555 -0.27 0.949 -0.488 c 0.816 -0.453 0.992 -0.516 1.203 -0.434 c 0.086 0.031 0.363 0.246 0.617 0.473 c 0.477 0.43 0.656 0.551 0.801 0.551 c 0.156 0 0.543 -0.461 0.641 -0.758 c 0.234 -0.719 0.156 -1.27 -0.199 -1.418 c -0.238 -0.098 -0.449 -0.027 -1.02 0.328 c -0.941 0.59 -1.027 0.598 -1.695 0.152 c -0.711 -0.469 -1.168 -0.672 -1.598 -0.699 c -0.32 -0.02 -0.41 0 -0.734 0.16 c -0.621 0.301 -0.965 0.91 -0.836 1.477 c 0.074 0.324 0.16 0.453 0.387 0.594 c 0.367 0.227 1 0.254 1.484 0.063 m -2.512 -4.336 c 0.145 -0.051 0.496 -0.227 0.781 -0.395 c 0.926 -0.543 1.648 -1.227 1.648 -1.563 c 0.063 -0.313 0.453 -0.66 0.297 -0.965 c -0.055 -0.094 -0.07 -0.082 -0.148 0.102 c -0.121 0.289 -0.547 0.648 -1.281 1.074 c -0.348 0.203 -0.777 0.484 -0.957 0.621 c -0.359 0.277 -0.738 0.723 -0.742 0.867 c 0 0.051 -0.016 0.148 -0.035 0.219 c -0.043 0.16 0.063 0.168 0.438 0.039" fill="#0075bc"/><path d="m 252.45 304.89 c -16.577 -2.595 -29.03 -8.672 -41 -20.14 c -4.195 -4.03 -8.931 -9.697 -10.487 -12.565 l -5.48 -12.838 l 8.255 7.102 c 1.421 1.229 7.849 9.902 16.847 9.902 c 3.789 0 8.255 0.683 10.487 1.639 c 2.842 1.161 6.02 1.502 12.382 1.229 c 8.255 -0.41 8.931 -0.615 20.501 -6.829 c 21.989 -11.745 23.21 -12.292 25.914 -11.609 c 1.353 0.341 6.089 3.961 10.42 7.99 c 9.811 9.219 13.194 11.131 17.253 9.697 c 2.571 -0.888 2.774 -0.819 1.962 0.683 c -0.474 0.956 -2.842 3.551 -5.277 5.804 c -9.811 9.219 -17.592 13.862 -29.3 17.208 c -6.36 1.844 -10.08 2.527 -20.501 3.619 c -1.894 0.273 -7.307 -0.205 -11.976 -0.888 m 41.27 -9.355 c 5.548 -2.731 6.698 -3.688 6.698 -5.736 c 0 -3.551 -2.165 -3.892 -7.172 -1.229 c -3.789 1.98 -5.751 2.322 -15.359 2.322 c -8.593 0 -11.908 -0.41 -15.16 -1.912 c -5.345 -2.39 -9.337 -1.571 -9.337 1.912 c 0 1.502 1.015 3.073 2.571 4.097 c 5.345 3.483 9.743 4.439 20.501 4.166 c 9.608 -0.273 11.1 -0.615 17.253 -3.619 m -18.201 -15.774 c 5.616 -3.892 10.758 -4.234 14.615 -1.024 c 5.345 4.507 8.796 2.663 6.292 -3.414 c -1.894 -4.575 -4.601 -5.941 -11.638 -5.941 c -5.48 0 -6.698 0.41 -10.42 3.209 c -5.548 4.302 -6.698 6.146 -5.01 8.194 c 1.691 2.049 1.827 2.049 6.157 -1.024 m 55.55 -30.388 c -1.015 -6.146 -3.248 -9.833 -7.172 -11.677 c -4.533 -2.185 -8.796 -0.888 -19.08 5.804 c -11.976 7.853 -18.539 9.833 -21.313 6.487 c -0.947 -1.093 0.068 -2.253 5.142 -5.873 c 7.916 -5.668 17.998 -15.638 22.395 -22.19 c 6.089 -9.01 8.863 -21.92 6.428 -30.32 c -1.083 -3.824 -0.812 -3.961 1.962 -0.956 c 3.518 3.688 8.796 13.931 11.57 22.33 c 2.3 6.965 2.639 9.628 2.706 22.466 c 0.068 15.02 -1.353 22.33 -2.639 13.931" transform="matrix(0.05773 0 0 0.0572 -7.03 -4.874)" fill="#01558b" stroke="#01558b"/></svg>