<svg xmlns="http://www.w3.org/2000/svg" viewBox="0 0 16 16"><path d="m 0.227 8.898 c 0.184 6.543 8.535 9.277 12.875 5.133 c 3.742 -3.01 3.707 -9.637 -0.105 -12.359 c -4.324 -3.547 -11.605 -0.656 -12.703 5.258 c -0.117 0.648 -0.145 1.316 -0.066 1.969" fill="#2e972e"/><g fill="#fff" stroke="#fff" stroke-width="0.105" transform="scale(0.0625)"><path d="m 111.75 195.44 c -2 -1.5 -2.063 -3.25 -2.063 -47.12 c 0 -39.12 0.188 -45.813 1.625 -47.19 c 1.688 -1.625 16.75 -2.313 44.06 -1.938 l 13.188 0.188 l 0.75 7.875 c 1 9.875 2.875 14.625 6.188 15.375 c 1.375 0.313 5.438 0.688 9 0.875 l 6.5 0.25 l 0.75 9 c 0.438 4.875 0.375 20.938 0 35.563 c -0.625 21.625 -1.125 26.813 -2.375 27.625 c -0.938 0.563 -17.688 1 -38.563 1 c -30.19 0.063 -37.31 -0.25 -39.06 -1.5 m 65.19 -14.563 c 5.313 -0.688 5.438 -0.75 5.438 -4.438 c 0 -3.5 -0.313 -3.813 -4.375 -4.75 c -5.5 -1.188 -40.44 -0.125 -48 1.5 c -4.375 0.938 -5.688 1.688 -5.688 3.25 c 0 4.5 2.875 3.063 19.688 4.25 c 15.813 1.063 26.13 1.125 32.938 0.188 m 2.313 -14.938 c 1.813 -0.438 2.438 -1.688 2.938 -5.625 c 1 -7.438 -1 -26.19 -2.938 -28.19 c -1.25 -1.25 -4.438 -1.625 -12.813 -1.688 c -14.5 -0.125 -16.688 0.5 -17.563 4.875 c -1.313 6.313 -0.813 27.875 0.625 28.75 c 3.375 2.063 24.13 3.438 29.75 1.938 m -39.688 -2.75 c 0.5 -0.813 0.375 -2.063 -0.25 -2.813 c -1.563 -1.875 -10.813 -1.813 -13.313 0.063 c -1.938 1.375 -0.125 1 0.563 3.313 c 1.125 3.563 11.563 1.813 13 -0.563 m 0.5 -15.625 c 0 -1.875 -0.875 -2.188 -6.563 -2.5 c -4.563 -0.188 -7.125 0.188 -8.625 1.375 c -3.375 2.563 -0.25 5.188 8.125 4.875 c 6.25 -0.25 7.06 -1.813 7.06 -3.75 m -2.25 -11.75 c 1.25 -0.938 1.75 -2.188 1.375 -3.25 c -0.938 -2.375 -11.813 -2.563 -13.688 -0.25 c -3 3.625 7.938 6.688 12.313 3.5"/><path d="m 155.5 158.5 c -1.125 -0.75 -1.75 -3.5 -2.063 -9.125 c -0.313 -7.06 -0.125 -8.375 1.875 -10.375 c 1.938 -1.875 3.625 -2.25 10.313 -2.25 c 9.563 0 10.875 1.063 10.875 9.06 c 0.063 7.938 -1.125 11.438 -4.313 12.688 c -3.563 1.313 -14.625 1.313 -16.688 0"/><path d="m 60.44 119.75 c 0.063 -25.25 0.438 -47.12 0.875 -48.563 l 0.75 -2.75 l 25.688 -0.25 c 24.5 -0.313 27.313 -0.5 29.375 1.625 c 1.625 1.625 1.188 5.625 1.188 9.938 c 0 3.125 -0.063 4.875 0.125 6.125 c 0.563 3.5 -0.125 2.438 -5.563 3.625 c -6.938 1.563 -10.75 5.313 -11.313 12 c -0.438 6.313 -0.375 27.19 -0.125 32.563 c 0.313 5.5 -3.375 5.375 -12.375 5.5 c -12.875 0.125 -17.875 2 -17.875 6.75 c -0.063 3.938 3.563 3.063 14.438 2.938 c 5.75 -0.063 14.813 -0.625 15.75 0.25 c 0.875 0.875 0.25 6.563 0 9.188 v 6.563 l -21.813 0.063 l -19.25 0.25 m 31.19 -31.688 c 0.813 -0.688 1.313 -2.25 1.125 -3.5 c -0.25 -1.688 -1.438 -2.438 -5.188 -3.063 c -6 -1.125 -13.5 -0.188 -15.188 1.875 c -1.688 2.063 0.313 5.688 3.5 6.375 c 3.75 0.813 14.06 -0.313 15.75 -1.688 m 1.75 -15.25 c 2.188 -3.438 -1.563 -5.625 -10.563 -6.06 c -8.625 -0.438 -11.813 1.063 -10.75 5.188 c 0.688 2.75 2.375 3.125 12.13 2.938 c 6.313 -0.125 8.25 -0.563 9.188 -2.063 m -4.25 -11.625 c 2.125 -0.813 2.75 -1.813 2.75 -4.25 c 0 -2.688 -0.563 -3.438 -3.813 -4.5 c -5.313 -1.75 -14.313 -0.438 -15.75 2.375 c -1.438 2.625 -0.438 6.06 2 6.688 c 3.5 0.938 12 0.75 14.813 -0.313"/></g></svg>