<svg xmlns="http://www.w3.org/2000/svg" viewBox="0 0 16 16"><path d="m 14.332 3.734 c 5.277 5.953 -3.047 15.11 -10.02 11.41 c -7.05 -3.746 -5.168 -16.14 3.484 -15.08 c 2.574 0.313 4.809 1.73 6.531 3.672" fill="#473d8b"/><path d="m 37.688 934.49 v -30.31 h 45.38 v -38.25 h 8.188 c 6.688 0 8.375 0.25 8.813 1.438 c 0.313 0.813 0.563 17.625 0.563 37.31 v 35.875 h 11.125 v -36.37 h 7.875 c 6.375 0 7.875 0.25 7.875 1.375 c 0 0.813 0.375 1.438 0.875 1.438 c 0.625 0 0.938 6.188 0.938 16.75 v 16.813 h 11.125 v -36.37 h 38.875 c 34 0 38.938 0.188 38.938 1.375 c 0 0.813 0.375 1.438 0.875 1.438 c 0.625 0 0.938 10.06 0.938 28.313 c 0 32.06 0.688 29.5 -7.938 29.5 h -5 v -38.25 h -19.438 v 18 c 0 12.75 -0.375 18.375 -1.125 19.13 c -0.625 0.625 -3.563 1.125 -6.5 1.125 h -5.375 v -38.25 h -17.563 l -0.25 18.875 l -0.25 18.938 l -59.5 0.188 l -59.44 0.25 m 45.31 -28.938 v -9.313 h -28.688 v 18.688 h 28.688" transform="matrix(0.0625 0 0 0.0625 0 -49.773)" fill="#fff" fill-rule="evenodd" stroke="#fff" stroke-width="1.061"/></svg>