<svg xmlns="http://www.w3.org/2000/svg" viewBox="0 0 16 16"><path d="m 14.832 3.887 c -12.09 -14.09 -23.711 14.871 -5.02 11.898 c 4.102 -0.652 8.273 -8.105 5.02 -11.898" fill="#ba9e59"/><g fill="#11100c"><path d="m 5.133 12.469 c -0.574 -0.137 -1.043 -0.598 -1.18 -1.168 c -0.074 -0.305 -0.074 -5.133 0 -5.441 c 0.141 -0.578 0.605 -1.035 1.195 -1.172 c 0.313 -0.07 5.234 -0.07 5.547 0 c 0.59 0.137 1.055 0.594 1.195 1.172 c 0.074 0.309 0.074 5.137 0 5.441 c -0.141 0.578 -0.605 1.035 -1.195 1.172 c -0.301 0.07 -5.27 0.066 -5.562 -0.004 m 5.406 -0.656 c 0.035 -0.059 0.098 -1 0.105 -1.629 l 0.004 -0.305 l -0.176 -0.012 c -0.195 -0.012 -0.223 0.008 -0.281 0.16 c -0.215 0.582 -0.27 0.699 -0.402 0.867 c -0.078 0.098 -0.195 0.219 -0.262 0.262 c -0.25 0.168 -0.887 0.242 -1.402 0.168 c -0.563 -0.086 -0.574 -0.105 -0.594 -1.16 c 0.016 -0.453 -0.117 -0.945 -0.02 -1.352 l 0.023 -0.105 l 0.398 -0.004 c 0.625 -0.008 0.777 0.004 0.891 0.074 c 0.145 0.086 0.328 0.367 0.355 0.539 c 0.031 0.195 0.063 0.227 0.246 0.227 c 0.117 0 0.168 -0.016 0.191 -0.059 c 0.039 -0.074 0.02 -0.699 -0.023 -0.754 c -0.023 -0.027 -0.23 -0.18 -0.211 -0.211 c 0.055 -0.18 0.223 -0.223 0.258 -0.414 c 0.031 -0.152 0.031 -0.738 -0.121 -0.707 c -0.195 -0.004 -0.172 -0.055 -0.25 0.035 c -0.02 0.023 -0.074 0.137 -0.121 0.254 c -0.047 0.113 -0.133 0.254 -0.191 0.309 c -0.133 0.125 -0.324 0.152 -0.953 0.152 l -0.457 -0.004 l -0.023 -0.156 c -0.027 -0.215 -0.035 -1.484 -0.008 -1.664 c 0.016 -0.102 0.008 -0.172 -0.031 -0.246 c -0.035 -0.074 -0.043 -0.117 -0.02 -0.16 c 0.516 -0.027 1.164 -0.063 1.672 -0.066 c 0.105 -0.023 0.223 0.094 0.215 0.004 c -0.008 -0.074 0.102 -0.156 0.215 -0.152 c 0.188 0.004 0.188 0.172 0.039 0.23 c -0.191 0.094 -0.082 0.215 0.039 0.328 c 0.039 0.039 0.074 0.102 0.074 0.141 c 0 0.059 0.098 0.297 0.215 0.512 c 0.047 0.094 0.309 0.211 0.391 0.18 c 0.043 -0.016 0.051 -0.051 0.035 -0.188 c -0.039 -0.383 -0.039 -0.426 -0.012 -0.465 c 0.02 -0.023 0.02 -0.09 -0.004 -0.172 c -0.02 -0.086 -0.02 -0.16 -0.004 -0.211 c 0.035 -0.086 0.035 -0.355 0.004 -0.508 c -0.023 -0.105 -0.168 -0.414 -0.25 -0.219 c -0.984 0.043 -1.789 0.035 -2.43 0.035 c -0.77 0.004 -1.129 0.016 -1.145 0.039 c -0.383 0.004 -0.801 0.02 -1.078 0 l -0.227 0.059 l -0.023 0.082 c -0.035 0.137 0.027 0.172 0.316 0.199 c 0.426 0.035 0.438 0.07 0.422 1.105 c -0.016 0.828 -0.012 0.75 -0.008 1.762 c 0.004 0.988 -0.02 2.488 -0.043 2.586 c -0.027 0.109 -0.141 0.164 -0.41 0.188 c -0.133 0.012 -0.262 0.035 -0.281 0.055 c -0.059 0.043 -0.055 0.363 0.004 0.398 c 0.074 0.039 5.32 0.012 5.348 -0.027 m -3.645 -5.984 c -0.031 -0.051 0.066 -0.078 0.137 -0.039 c 0.031 0.02 0.352 0.277 0.141 0.246 c -0.086 0.145 -0.09 1.258 -0.176 1.145 c -0.078 -0.105 -0.09 -1.336 -0.102 -1.352 m -0.793 -0.063 c -0.16 -0.082 -0.09 -0.133 0.133 -0.094 c 0.094 0.02 0.305 -0.023 0.402 -0.012 c 0.184 0.023 0.188 0.426 0.016 0.445 c -0.051 0.004 -0.219 -0.305 -0.297 -0.297 c -0.105 0.012 -0.18 0 -0.254 -0.043"/><path d="m 6.738 7.738 c -0.18 -0.27 -0.203 -0.328 -0.203 -0.539 c 0 -0.18 -0.004 -0.859 -0.125 -0.793 c -0.004 0.016 -0.027 0.512 -0.031 0.891 c -0.008 0.809 0.008 0.879 0.219 0.922 c 0.141 0.031 0.277 -0.074 0.277 -0.215 c 0 -0.039 -0.063 -0.16 -0.137 -0.266"/></g></svg>