<svg xmlns="http://www.w3.org/2000/svg" xmlns:xlink="http://www.w3.org/1999/xlink" viewBox="0 0 16 16"><defs><g id="3" clip-path="url(#2)"><path d="m 80.31 72.69 h 110.56 c 1.188 0 2.188 1 2.188 2.188 v 110.56 c 0 1.25 -1 2.25 -2.188 2.25 h -110.56 c -1.188 0 -2.188 -1 -2.188 -2.25 v -110.56 c 0 -1.188 1 -2.188 2.188 -2.188" transform="scale(0.0625)" stroke-opacity="0.604" fill="#ff4500" fill-rule="evenodd" stroke="#ff9f79" stroke-width="5.474"/></g><g id="6" clip-path="url(#5)"><path d="m 120.97 200.57 c 0 -0.702 2.683 -4.098 5.892 -7.551 c 4.55 -4.917 5.717 -6.849 5.192 -8.956 c -0.933 -3.863 -30.976 -56.722 -34.418 -60.64 c -2.625 -2.985 -3.5 -3.278 -9.509 -2.927 c -3.733 0.234 -6.884 -0.117 -7.175 -0.761 c -0.35 -0.878 53.43 -33.658 65.16 -39.688 c 2.275 -1.229 6.359 4.04 8.692 11.18 c 2.625 8.08 1.167 9.6 -5.075 5.444 c -6.709 -4.507 -10.792 -4.098 -22.926 2.4 c -12.717 6.79 -14.992 8.722 -14.992 12.702 c 0 3.161 6.125 15.395 11.142 22.244 c 3.733 5.151 6.884 4.859 17.442 -1.405 c 11.259 -6.732 13.534 -9.01 14.409 -14.341 c 1.633 -9.893 3.15 -9.717 9.45 1.288 c 5.075 8.898 7 15.1 5.133 16.332 c -0.642 0.351 -3.208 -0.468 -5.717 -1.873 l -4.55 -2.517 l -5.775 2.459 c -7.759 3.278 -18.2 10.127 -19.659 12.995 c -0.992 1.815 -0.292 4.098 3.5 11.766 c 2.567 5.21 6.242 11.356 8.167 13.58 c 2.975 3.454 4.083 3.98 6.884 3.395 c 4.842 -0.937 22.401 -10.946 27.476 -15.629 c 5.658 -5.21 6.592 -7.02 7.759 -15.571 c 1.808 -13.11 5.833 -11.707 7.934 2.693 c 1.05 7.434 1.05 9.717 -0.117 11.122 c -2.567 3.22 -10.384 8.08 -33.08 20.78 c -12.25 6.849 -25.959 14.751 -30.451 17.561 c -8.225 5.21 -10.792 6.146 -10.792 3.922" transform="matrix(0.06696 0 0 0.06673 -0.89 -1.342)" stroke-opacity="0.604" fill="#4581b3" fill-rule="evenodd" stroke="#4581b3" stroke-width="6.321"/></g><clipPath id="2"><path d="M 0,0 H16 V16 H0 z"/></clipPath><clipPath id="5"><path d="M 0,0 H16 V16 H0 z"/></clipPath><filter id="0" filterUnits="objectBoundingBox" x="0" y="0" width="16" height="16"><feColorMatrix type="matrix" in="SourceGraphic" values="0 0 0 0 1 0 0 0 0 1 0 0 0 0 1 0 0 0 1 0"/></filter><mask id="4"><g filter="url(#0)"><path fill-opacity="0.922" d="M 0,0 H16 V16 H0 z"/></g></mask><mask id="1"><g filter="url(#0)"><path fill-opacity="0.922" d="M 0,0 H16 V16 H0 z"/></g></mask></defs><path d="m 8.141 0.137 c 6.996 -1.395 9.652 8.184 6.621 13.387 c -2.418 4.148 -10.691 2.961 -13.773 -2.633 c -3.086 -5.598 1.539 -9.633 7.152 -10.754" fill="#e73334"/><use xlink:href="#3" mask="url(#1)"/><use xlink:href="#6" mask="url(#4)"/></svg>