<svg xmlns="http://www.w3.org/2000/svg" viewBox="0 0 16 16"><path d="m 0.754 10.973 c -6.01 -19.449 26.28 -9.723 11.18 3.605 c -3.02 2.672 -9.559 1.641 -11.18 -3.605" fill="#cfcfd2"/><path d="m 5.02 10.363 c -0.941 -0.973 -1.711 -1.805 -1.711 -1.852 c 0 -0.047 0.035 -0.086 0.082 -0.086 c 0.043 0 0.832 0.77 1.754 1.711 c 1.523 1.551 1.699 1.707 1.914 1.707 c 0.219 0 0.426 -0.191 2.469 -2.289 c 1.227 -1.262 2.273 -2.293 2.32 -2.293 c 0.203 0 -0.16 0.418 -2.273 2.602 l -2.199 2.273 h -0.645 m -1.742 -2.676 c -1.172 -1.207 -1.75 -1.852 -1.75 -1.953 c 0 -0.086 0.066 -0.242 0.148 -0.348 c 0.18 -0.234 3.699 -2.949 3.957 -3.047 c 0.098 -0.039 0.27 -0.051 0.375 -0.023 c 0.168 0.043 0.188 0.078 0.168 0.316 c -0.016 0.207 0.008 0.273 0.102 0.297 c 0.082 0.016 0.137 -0.035 0.164 -0.148 c 0.023 -0.094 0.105 -0.211 0.188 -0.266 c 0.121 -0.078 0.164 -0.07 0.285 0.043 c 0.113 0.105 0.133 0.188 0.102 0.438 c -0.051 0.367 0.07 0.484 0.176 0.172 c 0.09 -0.266 0.309 -0.301 0.566 -0.086 c 0.133 0.113 0.148 0.16 0.078 0.234 c -0.125 0.129 -0.113 0.426 0.02 0.426 c 0.063 0 0.105 -0.066 0.105 -0.18 c 0 -0.344 0.379 -0.391 0.633 -0.078 c 0.078 0.098 0.07 0.141 -0.031 0.258 c -0.133 0.152 -0.098 0.398 0.051 0.348 c 0.051 -0.016 0.098 -0.102 0.113 -0.188 c 0.035 -0.254 0.266 -0.34 0.492 -0.188 c 0.105 0.07 0.23 0.172 0.285 0.223 c 0.051 0.055 0.148 0.098 0.219 0.098 c 0.07 0 0.211 0.066 0.313 0.148 c 0.395 0.32 0.375 0.348 -2.129 2.922 c -2.262 2.328 -2.32 2.383 -2.598 2.383 c -0.27 0 -0.332 -0.051 -2.031 -1.801 m 1.5 -0.34 c 0.102 -0.129 0.051 -0.523 -0.145 -1.098 c -0.207 -0.598 -0.082 -0.738 0.453 -0.508 c 0.285 0.121 0.379 0.055 0.254 -0.188 c -0.043 -0.082 -0.059 -0.23 -0.035 -0.328 c 0.055 -0.23 0.281 -0.23 1.113 0.012 c 0.352 0.102 0.758 0.176 0.898 0.164 c 0.215 -0.02 0.258 -0.051 0.273 -0.207 c 0.027 -0.23 -0.211 -0.797 -0.414 -0.984 l -0.152 -0.141 l 0.031 0.242 c 0.047 0.332 -0.105 0.402 -0.59 0.266 c -0.969 -0.273 -1.32 -0.344 -1.492 -0.301 c -0.164 0.043 -0.188 0.09 -0.207 0.395 l -0.023 0.344 h -0.301 c -0.41 0 -0.453 0.102 -0.285 0.684 c 0.074 0.266 0.156 0.625 0.18 0.801 l 0.039 0.316 l -0.223 -0.031 c -0.156 -0.027 -0.223 -0.008 -0.223 0.066 c 0 0.191 0.156 0.395 0.379 0.496 c 0.289 0.129 0.363 0.129 0.469 -0.004" fill="#70699a"/></svg>