<svg xmlns="http://www.w3.org/2000/svg" viewBox="0 0 16 16"><path d="m 8.152 15.914 c -1.652 -0.129 -3.582 -0.914 -4.93 -2.01 c -1.637 -1.332 -2.832 -3.371 -3.156 -5.387 c -0.383 -2.66 1.164 -5.516 2.906 -6.875 c 0.875 -0.66 2.035 -1.184 3.125 -1.414 c 2.832 -0.602 5.785 0.535 7.809 2.996 c 1.215 1.477 1.844 2.965 1.996 4.727 c 0.184 2.109 -0.652 4.375 -2.176 5.898 c -1.734 1.434 -3.516 2.215 -5.574 2.066" fill="#e5e7ec"/><path d="m 6.688 11.996 c -2.477 -1.035 -3.043 -1.289 -3.07 -1.391 c -0.043 -0.16 -0.027 -5.27 0.016 -5.297 c 0.039 -0.023 3.313 1.082 3.992 1.348 l 0.352 0.141 l 0.031 0.328 c 0.039 0.43 0.039 4.727 0 5.109 l -0.031 0.297" fill="#d1a443"/><path d="m 8.09 12.344 c 0.059 -0.273 0.043 -5.402 -0.02 -5.508 c 0.285 -0.121 0.309 -0.152 0.789 -0.328 c 0.352 -0.121 0.688 -0.211 0.75 -0.203 c 0.105 0.016 0.109 0.035 0.156 0.664 c 0.035 0.461 0.066 0.656 0.113 0.688 c 0.117 0.07 1.191 -0.313 1.242 -0.445 c 0.012 -0.039 0.039 -0.395 0.059 -0.793 l 0.031 -0.723 l 0.332 -0.121 c 0.52 -0.188 0.938 -0.309 0.965 -0.281 c 0.016 0.016 0.031 1.223 0.039 2.684 l 0.012 2.66 l -0.34 0.137 c -0.188 0.074 -1.176 0.484 -2.195 0.906 c -1.02 0.426 -1.879 0.781 -1.91 0.797 c -0.047 0.016 -0.051 -0.016 -0.023 -0.133 m 1.027 -0.766 c 0.699 -0.27 1.031 -0.434 1.113 -0.547 c 0.078 -0.113 0.094 -0.535 0.031 -0.816 c -0.027 -0.125 -0.051 -0.141 -0.184 -0.133 c -0.25 0.012 -1.5 0.543 -1.578 0.672 c -0.039 0.063 -0.043 0.875 -0.004 0.938 c 0.051 0.078 0.184 0.055 0.621 -0.113" fill="#e5be53"/><g fill="#edc65c"><path d="m 7.941 6.652 c -0.98 -0.352 -3.176 -1.086 -3.688 -1.234 c -0.543 -0.16 -0.609 -0.188 -0.504 -0.23 c 0.539 -0.184 0.957 -0.316 1.523 -0.5 l 0.926 0.316 c 0.676 0.168 3.508 1.313 3.422 1.27 c -0.035 0 -0.375 0.105 -0.754 0.23 l -0.684 0.234"/><path d="m 11.09 5.723 c -0.027 -0.078 -0.645 -0.32 -2.59 -1.027 c -0.773 -0.281 -1.586 -0.633 -1.586 -0.633 c 0.484 -0.148 0.711 -0.207 1.211 -0.383 l 2.168 0.758 c 1.195 0.414 2.172 0.766 2.172 0.781 c -0.48 0.148 -0.867 0.348 -1.375 0.504"/></g><path d="m 5.344 4.613 l 1.48 -0.426 c 1.164 0.383 1.039 0.352 1.867 0.66 c 2.055 0.766 2.234 0.738 2.25 0.93 c 0.004 0.043 -0.941 0.344 -1.242 0.398 c -1.215 -0.465 -2.699 -0.996 -4.355 -1.563" fill="#ffecc3"/><path d="m 9.758 6.188 c 0 0 0.047 -0.094 0.227 -0.125 c 0.875 -0.172 0.508 -0.141 1.117 -0.289 c 0.051 0.051 0.074 0.293 0.074 0.781 v 0.707 c -0.398 0.105 -0.781 0.301 -1.191 0.363 c -0.273 -0.41 -0.195 -0.973 -0.227 -1.438" fill="#f5e2ad"/><path d="m 8.492 11.477 c -0.043 -0.27 0.004 -0.676 0.082 -0.754 c 0.09 -0.086 0.984 -0.473 1.309 -0.563 c 0.246 -0.07 0.289 -0.07 0.328 -0.012 c 0.059 0.094 0.055 0.734 -0.008 0.848 c -0.055 0.102 -0.598 0.371 -1.16 0.574 c -0.48 0.172 -0.512 0.168 -0.551 -0.094" fill="#fff"/></svg>