<svg xmlns="http://www.w3.org/2000/svg" viewBox="0 0 16 16"><path d="m 11.891 14.699 c -20.59 8.332 -10.914 -26.723 2.531 -9.699 c 2.34 3.055 2.52 8.18 -2.531 9.699" fill="#e86a21"/><path d="m 4.781 5.383 c -0.332 0 -0.598 0.027 -0.828 0.109 c -0.23 0.082 -0.422 0.238 -0.527 0.426 c -0.215 0.375 -0.188 0.809 -0.195 1.406 v 1.895 c 0.008 0.598 -0.02 1.031 0.195 1.406 c 0.105 0.188 0.297 0.344 0.527 0.426 c 0.23 0.082 0.496 0.109 0.828 0.109 h 1.973 c 0.332 0 0.598 -0.027 0.828 -0.109 c 0.23 -0.086 0.418 -0.238 0.527 -0.426 c 0.188 -0.324 0.188 -0.719 0.191 -1.199 l 1.234 -0.004 l 0.355 -0.285 l 0.32 0.289 l 0.316 -0.289 l 0.316 0.289 l 0.316 -0.289 l 0.637 0.578 l 1.586 -1.441 l -1.27 -1.156 h -3.813 c 0 -0.484 -0.008 -0.875 -0.191 -1.199 c -0.109 -0.188 -0.297 -0.344 -0.527 -0.426 c -0.234 -0.082 -0.496 -0.109 -0.828 -0.109 m -1.973 0.578 h 1.973 c 0.289 0 0.48 0.031 0.594 0.07 c 0.113 0.043 0.156 0.078 0.199 0.156 c 0.09 0.152 0.117 0.543 0.125 1.141 v 0.367 h 4.176 l 0.637 0.578 l -0.691 0.625 l -0.633 -0.578 l -0.316 0.289 l -0.316 -0.289 l -0.32 0.289 l -0.289 -0.262 l -0.621 0.5 l -1.625 0.004 v 0.363 c -0.008 0.598 -0.035 0.988 -0.125 1.145 c -0.043 0.074 -0.086 0.113 -0.199 0.152 c -0.113 0.043 -0.305 0.074 -0.594 0.074 h -1.973 c -0.289 0 -0.48 -0.031 -0.594 -0.074 c -0.117 -0.039 -0.156 -0.074 -0.199 -0.152 c -0.09 -0.156 -0.117 -0.547 -0.125 -1.141 v -1.891 c 0.008 -0.598 0.035 -0.988 0.125 -1.141 c 0.043 -0.078 0.082 -0.113 0.199 -0.156 c 0.113 -0.039 0.305 -0.07 0.594 -0.07 m 0.352 1.734 c -0.352 0 -0.633 0.258 -0.633 0.578 c 0 0.316 0.281 0.574 0.633 0.574 c 0.352 0 0.633 -0.258 0.633 -0.574 c 0 -0.32 -0.281 -0.578 -0.633 -0.578" fill="#fff"/></svg>