<svg xmlns="http://www.w3.org/2000/svg" viewBox="0 0 16 16"><path d="m 2.801 13.695 c -12.613 -16.523 22.1 -18.867 10.961 -2 c -2.539 3.848 -7.617 6.383 -10.961 2" fill="#d7bfd7"/><g fill="#0f120b" stroke="#0f120b" stroke-width="1.01"><g transform="matrix(0.0625 0 0 0.0625 0.474 0.55)"><path d="m 106.05 194.01 c 0.125 -1.5 -0.375 -6.313 -1.188 -10.75 c -0.75 -4.375 -1.625 -14.438 -1.938 -22.25 c -0.438 -10.75 -0.938 -14.438 -1.813 -14.75 c -0.688 -0.25 -1.25 -1.125 -1.25 -1.875 c 0 -1.063 -1.125 -1.375 -5.438 -1.375 c -3 0 -6.313 0.438 -7.25 1 c -2.375 1.25 -9.375 -2 -11.438 -5.375 c -2.5 -4.125 -5.875 -7.375 -7.625 -7.375 c -4 0 -7.875 -3.375 -12.75 -11.188 c -1.375 -2.188 -1.5 -2.938 -0.563 -4.688 c 1.25 -2.313 0.125 -8.438 -2.563 -13.313 c -1.188 -2.25 -1.5 -5.375 -1.5 -15 c 0 -11.625 0.125 -12.563 2.938 -19.438 c 3.625 -9.125 6.563 -13.688 13.688 -21.438 c 9.375 -10.125 13.375 -11.06 4.438 -1 c -3.25 3.625 -6.875 9 -8.75 13 c -3 6.25 -3.25 7.563 -3.625 16.75 c -0.375 11.5 0.625 17.625 4.313 25.313 c 2.75 5.938 12.875 17.5 15.313 17.5 c 0.813 0 1.875 0.875 2.375 2 c 1 2.375 14.688 8 18.438 7.688 c 2.188 -0.188 2.313 -0.563 3.313 -9.875 c 1.063 -9.188 3.375 -16.875 5.625 -18.25 c 0.688 -0.438 1.938 1.25 3.438 4.625 c 1.875 4.188 2.438 7.06 2.813 14.5 c 0.5 11 0.25 10.875 12.06 6.375 c 8 -3 11.5 -5.438 19.313 -13.375 c 5.875 -5.938 7.875 -9.813 10.438 -19.875 c 2.375 -9.5 2.063 -22.875 -0.813 -30.813 c -3.125 -8.813 -10.313 -17.938 -19.313 -24.438 c -4.5 -3.25 0.25 -1.438 5.688 2.25 c 8.875 5.875 16.438 14.06 20.375 22.06 l 3.438 6.938 l 0.313 14.875 c 0.125 8.25 0.688 15.688 1.188 16.625 c 0.75 1.375 0.375 2.25 -1.875 4.563 c -3.813 4 -4.75 10.313 -2 13.13 c 2.188 2.188 2.188 2.188 -3 8.875 c -2.75 3.625 -4.563 5 -7.188 5.75 c -3.813 1 -8.688 5.188 -8.688 7.438 c 0 0.75 -2.313 2.813 -5.188 4.563 c -4.813 3.063 -5.25 3.188 -6.313 1.688 c -0.875 -1.188 -2.813 -1.625 -7.813 -1.938 c -11 -0.5 -10.563 -1.375 -10.375 19.563 c 0.125 12.938 -0.25 19.5 -1.25 24.06 c 0.938 16.375 -8.313 13.13 -8 7.25"/><path d="m 158.42 187.45 c -6.188 -4.625 -8.875 -9 -9.813 -15.688 c -0.563 -3.875 -0.375 -4.375 2.25 -6.75 c 5.938 -5.438 12.688 -8.75 18.563 -9.125 c 7.688 -0.5 12.25 1.438 12.25 5.125 c 0 1.875 -0.75 3.25 -2.313 4.375 c -19.19 13.688 -20.438 15.375 -14.188 19.625 c 1.875 1.25 4.313 2.313 5.438 2.313 c 1.125 0 2 0.438 2 0.938 c 0 0.563 0.813 0.75 1.813 0.375 c 3.063 -0.938 2 0.5 -1.313 1.875 c -5.375 2.25 -8.5 1.625 -14.688 -3.063 m 0.625 -12.563 c -0.375 -0.875 0.438 -1.813 0.125 -5.375 c -0.313 -3.563 -0.438 -3.938 -1 -6.938 c -4.375 0.563 -5 4.063 -4.938 8 c 0 2.625 1.563 5.625 3.938 7.438 c 2.25 1.688 2.688 -1.25 1.875 -3.125"/></g><g transform="matrix(0.0625 0 0 0.0625 0.302 0.121)"><path d="m 178.92 195.57 c -0.313 -0.563 -1.375 -0.813 -2.375 -0.563 c -1.438 0.375 -1.625 0.125 -1.188 -1.5 c 0.813 -2.813 4.875 -6.125 7.125 -5.813 c 3.188 0.438 3 4.625 -0.25 6.938 c -1.813 1.313 -2.875 1.625 -3.313 0.938"/><path d="m 179.42 155.82 c 0 -3.938 2.313 -8.313 5.313 -10.125 c 3.125 -1.813 4.625 -1.875 6.813 -0.313 c 1.5 1.125 1.5 1.375 0.188 3.875 c -1.875 3.688 -8.313 9.375 -10.5 9.375 c -1.438 0 -1.813 -0.625 -1.813 -2.813"/></g><g transform="matrix(0.0625 0 0 0.0625 0.474 0.55)"><path d="m 153.36 151.26 c -0.313 -1.188 -0.375 -3.313 -0.25 -4.75 c 0.25 -2.063 0.75 -2.625 2.563 -2.625 c 1.813 0 2.313 0.563 2.563 2.563 c 0.313 2.563 -1.875 6.938 -3.438 6.938 c -0.5 0 -1.125 -0.938 -1.438 -2.125"/><path d="m 162.55 146.38 c -0.313 -1.125 -0.375 -3.313 -0.25 -4.688 c 0.25 -2.125 0.75 -2.625 2.563 -2.625 c 1.813 0 2.313 0.5 2.563 2.563 c 0.25 2.563 -1.875 6.938 -3.5 6.938 c -0.438 0 -1.063 -1 -1.375 -2.188"/><path d="m 144.17 158.01 c -0.313 -1.188 -0.375 -3.313 -0.25 -4.75 c 0.25 -2.063 0.75 -2.563 2.563 -2.563 c 1.813 0 2.313 0.5 2.563 2.5 c 0.313 2.625 -1.875 6.938 -3.438 6.938 c -0.5 0 -1.125 -0.938 -1.438 -2.125"/></g></g><g fill="#fa201b" stroke="#fa201b" stroke-width="0.54"><path d="m 91.73 184.01 c -0.188 -3.063 -0.313 -10.938 -0.313 -17.5 v -11.938 l 1.938 -1 c 2.875 -1.438 3.75 -1.313 4.25 0.875 c 0.25 1 0.625 3.813 0.813 6.313 c 0.438 7 0.563 7.25 2.75 7.813 c -0.438 7.25 -2.25 13.25 -5.75 17.375 l -3.375 3.625" transform="matrix(0.0625 0 0 0.0625 0.302 0.121)"/><path d="m 122.49 181.76 c -0.188 -0.25 -0.438 -2.375 -0.625 -4.813 c -0.438 -6 -1.125 -8.625 -2.75 -10.688 c -2 -2.125 -1 -3.938 -0.125 -6.06 c 0.688 -1.688 1.563 -5.125 1.938 -7.625 c 0.438 -3.313 0.875 -4.75 1.5 -5.25 c 1.125 -0.813 4.313 -0.438 5.875 0.813 l 1.25 0.938 l -0.063 8.375 c -0.125 9.438 -0.813 15.688 -2.063 18.563 c -1.063 2.313 -4.563 6.438 -4.938 5.75" transform="matrix(0.0625 0 0 0.0625 0.474 0.55)"/><g transform="matrix(0.0625 0 0 0.0625 0.302 0.121)"><path d="m 124.11 132.01 c -0.188 -0.438 -0.313 -4.188 -0.313 -8.438 v -7.688 l 12 0.063 c 6.563 0 12.438 0.188 13.06 0.313 c 1.063 0.313 1 0.438 -1.375 2.75 l -2.438 2.375 l -5.5 -0.125 c -6.875 -0.125 -7.25 0.063 -7.75 5.125 c -0.188 1.875 -0.563 3.625 -0.875 3.875 c -0.5 0.375 -5.875 2.5 -6.375 2.5 c -0.063 0 -0.313 -0.313 -0.438 -0.75"/><path d="m 94.42 131.51 c -2.438 -0.875 -3 -1.938 -3 -5.438 c 0 -4 -0.75 -4.5 -7.375 -4.75 l -5.625 -0.25 l -2.25 -2.313 c -2.313 -2.313 -2.313 -2.375 -1.125 -2.625 c 1.625 -0.438 22 -0.125 22.438 0.313 c 0.438 0.5 0.875 12 0.5 14.13 c -0.375 1.938 -0.563 2 -3.563 0.938"/><path d="m 65.48 102.01 c -0.438 -1 -0.875 -2.563 -1 -3.438 c 0 -2.5 1.125 -2.875 2.938 -4.313 l -2.125 -2 c -2.063 -1.875 -2.125 -2.063 -2.125 -4.75 c -0.063 -2.75 0 -2.75 1.625 -3.188 c 3.438 -0.938 16.938 0.188 16.938 1.375 c 0 0.125 -0.75 2.063 -1.688 4.313 c -2.25 5.438 -2.188 6.313 0.125 7 c 1 0.25 3.625 0.5 5.75 0.5 c 3.5 0 4.125 -0.125 5.313 -1.188 l 1.375 -1.125 l 0.5 -14.313 c 0.313 -9.875 0.688 -14.438 1.063 -14.875 c 0.438 -0.438 1.563 -0.188 5.063 1.063 c 2.5 0.875 5 1.875 5.563 2.25 l 1.125 0.75 l -1 1.375 c -1.438 2.063 -1.875 6.188 -1.875 19.25 c -0.063 6.313 -0.25 11.688 -0.5 12.13 c -0.375 0.625 -3.063 0.75 -18.375 0.875 l -17.938 0.125"/><path d="m 128.05 103.82 c -3.875 -0.125 -7.188 -0.375 -7.313 -0.5 c -0.125 -0.125 -0.563 -5.375 -1 -11.625 c -1.063 -14.5 -1.438 -17.06 -3.188 -19.06 l -1.375 -1.563 l 2.688 -1.5 c 3.75 -2.188 9.375 -4.625 9.75 -4.188 c 0.125 0.125 0.438 6.688 0.625 14.563 c 0.188 7.875 0.438 14.813 0.625 15.375 c 0.375 1.563 3.063 2.375 6.813 2 c 3.375 -0.313 6.75 -1.5 7.188 -2.5 c 0.125 -0.438 -0.438 -2.688 -1.25 -5.125 c -1 -2.875 -1.313 -4.5 -1 -4.813 c 0.813 -0.813 5.438 -1.063 12.875 -0.688 l 7.06 0.375 v 1.25 c 0 3.5 -0.563 4.625 -2.688 6 c -2.625 1.625 -2.75 2.75 -0.438 4 c 1.875 1.063 1.938 1.375 0.813 4.813 c -0.625 1.813 -1.125 2.438 -2.063 2.688 c -1.813 0.5 -20.19 0.813 -28.12 0.5"/><path d="m 44.17 90.51 c -9 -0.438 -13.187 -1.063 -14.625 -2.125 c -1.5 -1.125 -2.563 -3.063 -1.938 -3.625 c 1.063 -1.125 23.812 -0.813 24.937 0.313 c 1 6.5 -2.438 5.625 -8.375 5.438"/><path d="m 171.48 89.94 c -0.188 -0.375 -0.313 -1.688 -0.313 -2.875 c 0 -1.563 0.188 -2.125 0.875 -2.313 c 1.688 -0.5 16.13 -0.875 19.438 -0.563 c 3.938 0.375 4.188 0.875 1.688 3.063 c -2.125 1.938 -3.875 2.313 -11.813 2.938 c -8.688 0.688 -9.563 0.688 -9.875 -0.25"/><path d="m 171.8 102.76 c -0.813 -0.875 -0.75 -4.063 0.125 -4.75 c 0.875 -0.75 11.06 -0.5 11.813 0.25 c 0.688 0.688 -0.938 2.875 -2.938 3.875 c -1.938 1 -8.25 1.438 -9 0.625"/><path d="m 40.797 103.32 c -1.438 -0.625 -3.688 -4.5 -2.875 -4.938 c 0.375 -0.188 3.375 -0.5 6.75 -0.688 c 7.313 -0.813 8.375 -0.688 8.25 5.25 c -2.375 -0.313 -4.313 0.813 -6.563 0.813 c -2.5 0 -4.938 -0.25 -5.563 -0.438"/></g></g></svg>