<svg xmlns="http://www.w3.org/2000/svg" viewBox="0 0 16 16"><path d="m 12.703 14.438 c -12.03 8 -19.438 -17.504 -3.891 -14.13 c 6.426 1.441 10.328 10.465 3.891 14.13" fill="#ffd9b9"/><path d="m 3.938 13.305 c -0.215 -0.254 1.582 -1.27 2.777 -1.57 c 0.52 -0.129 1.023 -0.258 1.121 -0.285 c 0.113 -0.031 0.176 -0.328 0.176 -0.84 c 0 -0.715 -0.062 -0.871 -0.656 -1.695 c -0.555 -0.766 -0.793 -0.965 -1.551 -1.305 c -1.129 -0.504 -1.684 -0.516 -2.125 -0.047 c -0.184 0.199 -0.387 0.328 -0.453 0.289 c -0.156 -0.098 -0.098 -1.469 0.082 -1.902 c 0.082 -0.191 0.328 -0.445 0.551 -0.559 c 0.223 -0.113 0.484 -0.297 0.578 -0.414 c 0.273 -0.324 0.465 0.07 0.277 0.559 c -0.129 0.34 -0.098 0.461 0.246 0.902 c 0.43 0.559 1.207 0.996 1.543 0.867 c 0.301 -0.113 0.148 -1.121 -0.277 -1.852 c -0.453 -0.766 -0.418 -0.93 0.07 -0.352 c 0.219 0.262 0.469 0.434 0.551 0.383 c 0.297 -0.18 0.348 -0.891 0.094 -1.273 c -0.199 -0.293 -0.211 -0.395 -0.063 -0.531 c 0.137 -0.129 0.191 -0.129 0.242 0.008 c 0.035 0.098 0.184 0.176 0.328 0.176 c 0.145 0 0.305 0.063 0.352 0.141 c 0.051 0.078 0.199 0.125 0.328 0.105 c 0.438 -0.07 0.242 0.379 -0.223 0.512 c -0.383 0.113 -0.496 0.246 -0.688 0.82 c -0.363 1.074 -0.211 2.109 0.438 3 c 0.289 0.395 0.578 0.719 0.648 0.719 c 0.273 0 0.977 -1.465 0.98 -2.039 c 0 -0.527 -0.266 -0.996 -0.461 -0.805 c -0.109 0.105 -0.672 -0.199 -0.672 -0.367 c 0 -0.074 0.094 -0.137 0.207 -0.137 c 0.113 0 0.266 -0.109 0.344 -0.242 c 0.074 -0.133 0.184 -0.195 0.242 -0.137 c 0.059 0.055 0.211 0.008 0.344 -0.109 c 0.184 -0.164 0.324 -0.184 0.613 -0.074 c 0.203 0.074 0.371 0.203 0.371 0.281 c 0 0.078 0.098 0.145 0.215 0.145 c 0.113 0 0.211 0.078 0.211 0.176 c 0 0.094 0.129 0.254 0.289 0.352 c 0.438 0.27 0.184 0.492 -0.453 0.391 c -0.484 -0.078 -0.566 -0.047 -0.672 0.23 c -0.285 0.738 0.359 0.707 1.199 -0.059 c 0.598 -0.543 0.637 -0.621 0.555 -1.102 c -0.098 -0.566 0.078 -0.805 0.355 -0.477 c 0.098 0.113 0.262 0.207 0.371 0.207 c 0.105 0 0.195 0.094 0.195 0.211 c 0 0.113 0.09 0.207 0.199 0.207 c 0.266 0 0.344 0.27 0.211 0.73 c -0.063 0.223 -0.051 0.418 0.031 0.465 c 0.086 0.055 0.074 0.16 -0.027 0.281 c -0.09 0.105 -0.129 0.289 -0.086 0.402 c 0.156 0.391 -0.234 0.398 -0.551 0.008 c -0.277 -0.344 -0.387 -0.383 -0.844 -0.309 c -1.098 0.176 -1.793 0.656 -2.363 1.629 c -0.691 1.18 -0.75 2.512 -0.105 2.512 c 0.547 0 2.137 0.586 2.828 1.047 c 0.402 0.266 0.797 0.484 0.879 0.484 c 0.082 0 0.07 0.086 -0.031 0.211 c -0.148 0.176 -0.816 0.207 -4.387 0.207 c -3.219 0 -4.242 -0.039 -4.355 -0.176 m 8.234 -6.453 c 0.262 -0.258 0.281 -0.426 0.066 -0.559 c -0.203 -0.125 -0.754 0.422 -0.629 0.621 c 0.133 0.215 0.301 0.191 0.563 -0.063 m -7.496 -0.039 c 0.152 -0.25 -0.359 -0.719 -0.781 -0.719 h -0.426 l 0.301 0.418 c 0.289 0.398 0.746 0.551 0.906 0.301 m 5.176 -0.648 c 0 -0.117 -0.098 -0.211 -0.215 -0.211 c -0.219 0 -0.281 0.164 -0.117 0.324 c 0.164 0.16 0.332 0.102 0.332 -0.113 m -6.648 -2.383 c 0 -0.125 0.129 -0.258 0.281 -0.297 c 0.219 -0.055 0.262 -0.148 0.195 -0.418 c -0.078 -0.297 -0.047 -0.336 0.234 -0.297 c 0.25 0.035 0.328 -0.023 0.348 -0.266 c 0.039 -0.465 0.211 -0.559 0.449 -0.246 c 0.285 0.383 0.145 1.184 -0.266 1.492 c -0.418 0.32 -1.242 0.336 -1.242 0.031" fill="#be8c6b"/><path d="m 4.203 13.348 c -0.43 -0.262 1.66 -1.371 3.043 -1.617 c 0.793 -0.141 0.906 -0.281 0.906 -1.098 c 0 -0.566 -0.094 -0.871 -0.437 -1.41 c -0.676 -1.059 -0.969 -1.32 -2.02 -1.809 c -0.594 -0.273 -0.906 -0.488 -0.805 -0.551 c 0.094 -0.055 0.277 -0.008 0.406 0.105 c 0.473 0.406 1.172 0.684 1.355 0.531 c 0.125 -0.105 0.336 0.102 0.801 0.789 c 0.348 0.508 0.707 0.949 0.797 0.977 c 0.199 0.059 0.852 -0.867 1.09 -1.547 c 0.152 -0.441 0.188 -0.465 0.438 -0.289 c 0.258 0.191 0.258 0.207 -0.094 0.578 c -0.199 0.211 -0.539 0.688 -0.754 1.055 c -0.316 0.547 -0.387 0.828 -0.371 1.516 c 0.012 0.461 0.051 0.891 0.086 0.949 c 0.039 0.059 0.324 0.145 0.637 0.195 c 1.355 0.211 3.543 1.359 3.105 1.625 c -0.105 0.063 -0.238 0.086 -0.301 0.047 c -0.063 -0.035 -1.77 -0.066 -3.793 -0.066 c -2.023 0 -3.727 0.031 -3.789 0.066 c -0.063 0.039 -0.195 0.016 -0.301 -0.047 m 8.199 -5.508 c -0.094 -0.109 -0.125 -0.273 -0.07 -0.363 c 0.055 -0.09 0.012 -0.215 -0.094 -0.281 c -0.133 -0.082 -0.02 -0.125 0.344 -0.125 c 0.324 0 0.504 0.055 0.449 0.137 c -0.047 0.078 -0.184 0.141 -0.301 0.141 c -0.188 0 -0.184 0.027 0.012 0.219 c 0.215 0.215 0.184 0.477 -0.055 0.477 c -0.063 0 -0.191 -0.09 -0.285 -0.203 m -9.281 -0.094 c -0.055 -0.09 0.016 -0.246 0.16 -0.352 c 0.23 -0.168 0.234 -0.188 0.02 -0.188 c -0.246 0 -0.324 -0.207 -0.121 -0.332 c 0.063 -0.039 0.246 -0.039 0.402 0 c 0.215 0.059 0.27 0.16 0.219 0.418 c -0.078 0.402 -0.527 0.699 -0.68 0.453 m 7.477 -0.453 c 0.574 -0.387 0.809 -0.453 0.809 -0.223 c 0 0.141 -0.266 0.27 -0.988 0.484 c -0.273 0.078 -0.227 0.016 0.18 -0.262 m -1.172 -0.574 c 0 -0.113 0.063 -0.207 0.141 -0.207 c 0.078 0 0.141 0.094 0.141 0.207 c 0 0.117 -0.063 0.211 -0.141 0.211 c -0.078 0 -0.141 -0.094 -0.141 -0.211 m 2.961 0.176 c -0.004 -0.02 -0.035 -0.234 -0.07 -0.48 c -0.047 -0.355 0 -0.461 0.242 -0.535 c 0.176 -0.059 0.34 -0.027 0.402 0.074 c 0.133 0.207 0.012 0.73 -0.199 0.867 c -0.152 0.102 -0.355 0.141 -0.375 0.074 m -9.09 -0.281 c -0.23 -0.164 -0.23 -0.207 -0.016 -0.629 c 0.25 -0.496 0.23 -0.484 0.547 -0.363 c 0.336 0.125 0.27 0.473 -0.086 0.473 c -0.242 0 -0.273 0.035 -0.141 0.164 c 0.191 0.191 0.227 0.531 0.055 0.531 c -0.063 0 -0.227 -0.078 -0.359 -0.176 m 7.121 -0.156 c 0 -0.109 0.102 -0.234 0.227 -0.281 c 0.262 -0.098 0.66 0.16 0.539 0.352 c -0.125 0.203 -0.766 0.141 -0.766 -0.07 m -3.73 -0.34 c -0.063 -0.18 -0.078 -0.363 -0.031 -0.406 c 0.145 -0.145 0.25 0.066 0.195 0.406 l -0.051 0.324 m 1.602 -0.223 c -0.352 -0.199 -0.309 -0.434 0.066 -0.379 c 0.176 0.023 0.34 0.152 0.367 0.289 c 0.051 0.273 -0.07 0.301 -0.434 0.09 m 1.652 0.027 c 0.043 -0.07 -0.121 -0.195 -0.367 -0.281 c -0.566 -0.191 -0.551 -0.195 -0.445 0.094 c 0.082 0.219 0.059 0.215 -0.215 -0.023 c -0.32 -0.273 -0.414 -0.641 -0.168 -0.641 c 0.078 0 0.145 0.063 0.145 0.141 c 0 0.078 0.066 0.141 0.148 0.141 c 0.082 0 0.113 -0.059 0.07 -0.125 c -0.156 -0.254 0.293 -0.445 0.699 -0.297 c 0.293 0.113 0.367 0.215 0.309 0.43 c -0.063 0.238 -0.039 0.258 0.129 0.117 c 0.316 -0.258 0.418 -0.023 0.129 0.289 c -0.254 0.281 -0.586 0.398 -0.434 0.156 m 2 -0.504 c 0.227 -0.34 0.484 -0.461 0.484 -0.23 c 0 0.137 -0.473 0.582 -0.617 0.582 c -0.055 0 0.008 -0.16 0.133 -0.352 m -7.91 -0.043 c -0.289 -0.32 -0.301 -0.5 -0.02 -0.395 c 0.125 0.051 0.211 0.004 0.211 -0.113 c 0 -0.281 0.293 -0.422 0.426 -0.211 c 0.148 0.238 0.02 0.555 -0.223 0.555 c -0.113 0 -0.16 0.086 -0.113 0.207 c 0.109 0.281 0.004 0.266 -0.281 -0.043 m 7.453 -0.094 c -0.043 -0.117 -0.039 -0.313 0.008 -0.434 c 0.129 -0.328 0.5 0.012 0.406 0.367 c -0.086 0.324 -0.297 0.359 -0.414 0.066 m -3.867 -1.113 c 0 -0.109 0.121 -0.266 0.273 -0.348 c 0.379 -0.199 0.563 0.113 0.215 0.367 c -0.336 0.242 -0.488 0.238 -0.488 -0.02 m -0.348 -0.246 c 0.121 -0.383 0.18 -0.457 0.289 -0.348 c 0.121 0.121 -0.078 0.66 -0.242 0.66 c -0.082 0 -0.102 -0.133 -0.047 -0.313 m -0.508 -0.117 c -0.121 -0.223 -0.121 -0.336 0 -0.453 c 0.168 -0.168 0.426 0.082 0.43 0.422 c 0.004 0.313 -0.266 0.332 -0.43 0.031 m -3.645 -0.363 c 0.027 -0.152 0.215 -0.281 0.473 -0.324 c 0.332 -0.059 0.367 -0.098 0.172 -0.172 c -0.285 -0.113 -0.336 -0.523 -0.059 -0.523 c 0.23 0 0.98 0.754 0.863 0.871 c -0.051 0.047 -0.18 0.051 -0.293 0.008 c -0.125 -0.047 -0.188 0 -0.164 0.113 c 0.031 0.133 -0.129 0.207 -0.5 0.238 c -0.457 0.035 -0.535 0.004 -0.492 -0.211 m 1.105 -0.949 c -0.137 -0.359 -0.059 -0.766 0.152 -0.766 c 0.172 0 0.414 0.484 0.414 0.824 c 0 0.406 -0.402 0.363 -0.566 -0.059" fill="#60c194"/><path d="m 4.203 13.348 c -0.43 -0.262 1.66 -1.371 3.043 -1.617 c 0.793 -0.141 0.906 -0.281 0.906 -1.098 c 0 -0.566 -0.094 -0.871 -0.437 -1.41 c -0.676 -1.059 -0.969 -1.32 -2.02 -1.809 c -0.594 -0.273 -0.906 -0.488 -0.805 -0.551 c 0.094 -0.055 0.277 -0.008 0.406 0.105 c 0.473 0.406 1.172 0.684 1.355 0.531 c 0.125 -0.105 0.336 0.102 0.801 0.789 c 0.348 0.508 0.707 0.949 0.797 0.977 c 0.199 0.059 0.852 -0.867 1.09 -1.547 c 0.152 -0.441 0.188 -0.465 0.438 -0.289 c 0.258 0.191 0.258 0.207 -0.094 0.578 c -0.199 0.211 -0.539 0.688 -0.754 1.055 c -0.316 0.547 -0.387 0.828 -0.371 1.516 c 0.012 0.461 0.051 0.891 0.086 0.949 c 0.039 0.059 0.324 0.145 0.637 0.195 c 1.355 0.211 3.543 1.359 3.105 1.625 c -0.105 0.063 -0.238 0.086 -0.301 0.047 c -0.063 -0.035 -1.77 -0.066 -3.793 -0.066 c -2.023 0 -3.727 0.031 -3.789 0.066 c -0.063 0.039 -0.195 0.016 -0.301 -0.047 m 6.395 -6.05 c 0.574 -0.387 0.809 -0.453 0.809 -0.223 c 0 0.141 -0.266 0.27 -0.988 0.484 c -0.273 0.078 -0.227 0.016 0.18 -0.262 m 1.684 -0.035 c -0.148 -0.156 -0.09 -0.191 0.328 -0.191 c 0.281 0 0.477 0.059 0.434 0.125 c -0.137 0.219 -0.582 0.258 -0.762 0.066 m -8.973 -0.008 c -0.258 -0.066 -0.324 -0.258 -0.129 -0.375 c 0.223 -0.137 0.715 0.078 0.637 0.277 c -0.078 0.203 -0.094 0.203 -0.508 0.098 m 6.117 -0.531 c 0 -0.113 0.063 -0.207 0.141 -0.207 c 0.078 0 0.145 0.094 0.145 0.207 c 0 0.117 -0.066 0.211 -0.145 0.211 c -0.078 0 -0.141 -0.094 -0.141 -0.211 m -2.738 -0.602 c -0.063 -0.18 -0.078 -0.363 -0.031 -0.406 c 0.145 -0.145 0.25 0.066 0.195 0.406 l -0.051 0.324 m 3.23 -0.254 c 0.043 -0.215 0.52 -0.566 0.625 -0.461 c 0.047 0.043 0.012 0.164 -0.078 0.27 c -0.086 0.105 -0.129 0.219 -0.098 0.254 c 0.035 0.035 -0.059 0.07 -0.207 0.082 c -0.152 0.012 -0.262 -0.055 -0.242 -0.145 m -0.961 -0.098 c -0.047 -0.078 -0.133 -0.113 -0.188 -0.078 c -0.059 0.031 -0.117 -0.09 -0.133 -0.277 c -0.016 -0.188 0.008 -0.34 0.051 -0.34 c 0.148 0 0.414 0.348 0.457 0.594 c 0.043 0.27 -0.051 0.32 -0.188 0.102 m 2.809 -0.219 c 0 -0.109 0.031 -0.168 0.066 -0.129 c 0.039 0.035 0.148 -0.043 0.25 -0.176 c 0.098 -0.133 0.223 -0.195 0.281 -0.141 c 0.055 0.059 0.027 0.188 -0.059 0.293 c -0.09 0.105 -0.133 0.219 -0.098 0.254 c 0.035 0.031 -0.051 0.07 -0.191 0.082 c -0.137 0.008 -0.25 -0.074 -0.25 -0.184 m -7.617 -0.059 c -0.047 -0.078 -0.133 -0.113 -0.191 -0.082 c -0.055 0.035 -0.109 -0.059 -0.121 -0.207 c -0.031 -0.434 0.422 -0.266 0.5 0.188 c 0.043 0.27 -0.047 0.32 -0.188 0.102 m 2.988 -1.469 c -0.047 -0.125 -0.023 -0.18 0.059 -0.133 c 0.074 0.047 0.137 -0.012 0.137 -0.133 c 0 -0.117 0.066 -0.215 0.145 -0.215 c 0.16 0 0.18 0.156 0.055 0.477 c -0.109 0.277 -0.285 0.281 -0.395 0.004 m -2.898 -0.727 c -0.32 -0.113 -0.723 -0.5 -0.723 -0.691 c 0 -0.195 0.313 -0.242 0.484 -0.074 c 0.059 0.059 0.18 0.105 0.27 0.105 c 0.09 0 0.164 0.063 0.168 0.137 c 0 0.078 0.051 0.215 0.109 0.305 c 0.125 0.199 -0.035 0.313 -0.309 0.219" fill="#db784d"/><path d="m 4.191 13.34 c -0.418 -0.254 1.703 -1.367 3.055 -1.609 c 0.793 -0.141 0.906 -0.281 0.906 -1.098 c 0 -0.566 -0.094 -0.871 -0.437 -1.41 c -0.676 -1.059 -0.969 -1.32 -2.02 -1.809 c -0.594 -0.273 -0.906 -0.488 -0.805 -0.551 c 0.094 -0.055 0.277 -0.008 0.406 0.105 c 0.473 0.406 1.172 0.684 1.352 0.531 c 0.129 -0.105 0.34 0.102 0.805 0.789 c 0.348 0.508 0.703 0.949 0.797 0.977 c 0.199 0.059 0.852 -0.867 1.09 -1.547 c 0.152 -0.441 0.188 -0.465 0.438 -0.289 c 0.258 0.191 0.258 0.207 -0.094 0.578 c -0.199 0.211 -0.539 0.688 -0.754 1.055 c -0.316 0.547 -0.387 0.828 -0.371 1.516 c 0.012 0.461 0.051 0.891 0.086 0.949 c 0.039 0.059 0.324 0.145 0.637 0.195 c 1.344 0.211 3.543 1.359 3.109 1.621 c -0.223 0.137 -0.543 0.035 -0.914 -0.293 c -0.707 -0.621 -1.637 -0.879 -3.184 -0.887 c -1.34 -0.004 -1.57 0.035 -2.359 0.391 c -0.48 0.219 -0.902 0.477 -0.941 0.574 c -0.086 0.223 -0.574 0.352 -0.801 0.211 m 6.406 -6.05 c 0.57 -0.387 0.809 -0.453 0.809 -0.223 c 0 0.141 -0.266 0.27 -0.992 0.484 c -0.27 0.078 -0.227 0.02 0.184 -0.262 m -1.172 -0.574 c 0 -0.113 0.063 -0.207 0.141 -0.207 c 0.078 0 0.141 0.094 0.141 0.207 c 0 0.117 -0.063 0.211 -0.141 0.211 c -0.078 0 -0.141 -0.094 -0.141 -0.211 m -2.742 -0.602 c -0.063 -0.18 -0.074 -0.363 -0.027 -0.406 c 0.145 -0.145 0.25 0.07 0.195 0.406 l -0.051 0.324" fill="#90705a"/></svg>