<svg xmlns="http://www.w3.org/2000/svg" viewBox="0 0 16 16"><path d="m 0.184 9.781 c 0.992 6.504 9.805 8.246 13.695 3.602 c 3.426 -3.445 2.574 -10.05 -1.629 -12.313 c -4.824 -3.03 -11.855 0.719 -12.238 6.742 c -0.039 0.664 0.016 1.328 0.172 1.969" fill="#2f4e4e"/><path d="m 10.449 12.508 c -0.402 0.027 -0.691 -0.156 -0.801 -0.504 c -0.105 -0.344 -0.043 -0.574 0.246 -0.898 c 0.141 -0.16 0.184 -0.18 0.691 -0.313 c 0.383 -0.098 0.551 -0.164 0.578 -0.215 c 0.043 -0.078 0.07 -0.52 0.051 -0.789 c -0.016 -0.199 -0.09 -0.23 -0.48 -0.219 c -0.277 0.012 -1.203 0.117 -1.422 0.164 c -0.352 0.164 -0.309 0.539 -0.395 0.816 c -0.051 0.172 -0.094 0.387 -0.09 0.477 c 0.008 0.293 -0.102 0.82 -0.215 1.012 c -0.156 0.266 -0.391 0.445 -0.73 0.563 c -0.461 0.152 -0.719 0.145 -0.977 -0.027 c -0.207 -0.137 -0.219 -0.152 -0.242 -0.383 c -0.066 -0.605 -0.066 -0.617 0.137 -0.805 c 0.297 -0.273 0.391 -0.328 0.789 -0.445 c 0.543 -0.156 0.547 -0.16 0.609 -0.414 c 0.031 -0.125 0.051 -0.25 0.047 -0.277 c 0.043 -0.164 0.098 -0.332 0.09 -0.492 c 0.152 -0.324 -0.055 -0.945 0.066 -1.242 c 0.125 -0.246 0.973 -0.293 0.707 0.539 c -0.473 0.176 1.793 -0.016 2.148 -0.203 c 0.344 -0.582 -0.293 -0.25 0.477 -0.391 c 0.152 -0.035 -2.594 0.277 -2.551 0.137 c -2.414 -0.219 2.609 -0.926 2.781 -0.281 c -0.02 0.066 -0.035 0.262 -0.031 0.43 c 0.008 0.293 -0.02 0.781 -0.07 1.238 c -0.012 0.121 -0.027 0.379 -0.031 0.574 c -0.02 1.055 -0.152 1.41 -0.621 1.684 c -0.313 0.18 -0.512 0.25 -0.762 0.266 m 0.895 -1.176 c 0.18 -0.309 -0.52 -0.492 -0.902 -0.242 c -0.066 0.043 -0.113 0.098 -0.105 0.121 c 0.012 0.059 0.23 0.113 0.52 0.125 c 0.125 0.004 0.258 0.031 0.293 0.059 c 0.09 0.066 0.121 0.055 0.195 -0.063 m -2.938 0.23 c 0.031 -0.047 0.051 -0.117 0.043 -0.156 c -0.02 -0.094 -0.32 -0.258 -0.461 -0.254 c -0.117 0.004 -0.66 0.188 -0.691 0.23 c -0.043 0.066 0.082 0.145 0.223 0.141 c 0.246 -0.008 0.449 0.031 0.559 0.102 c 0.121 0.078 0.254 0.051 0.328 -0.063 m -3.813 0.609 c -0.293 -0.016 -0.43 -0.063 -0.691 -0.242 c -0.543 -0.367 -0.699 -1.051 -0.465 -2.035 c 0.078 -0.336 0.133 -0.457 0.281 -0.625 c 0.234 -0.258 0.242 -0.266 0.414 -0.391 c 0.207 -0.156 0.254 -0.145 0.137 0.023 c -0.32 0.477 -0.484 1.094 -0.406 1.523 c 0.031 0.168 0.043 0.352 0.027 0.41 c -0.027 0.082 -0.004 0.18 0.082 0.391 c 0.137 0.332 0.266 0.488 0.535 0.652 c 0.203 0.121 0.383 0.297 0.316 0.301 c -0.02 0.004 -0.125 0 -0.23 -0.008 m 1.172 -0.852 c -0.406 -0.031 -0.777 -0.289 -0.957 -0.664 c -0.207 -0.438 -0.152 -1.141 0.121 -1.602 c 0.043 -0.074 0.105 -0.184 0.141 -0.246 c 0.094 -0.164 0.277 -0.363 0.348 -0.379 c 0.094 -0.02 0.098 0.09 0.012 0.246 c -0.125 0.215 -0.238 0.563 -0.273 0.824 c -0.051 0.363 0.105 1.035 0.297 1.285 c 0.156 0.199 0.414 0.324 0.594 0.285 c 0.129 -0.027 0.191 0.035 0.141 0.137 c -0.047 0.082 -0.207 0.129 -0.422 0.113 m 1.938 -4.422 c -0.32 -0.012 -0.543 -0.117 -0.719 -0.34 c -0.207 -0.266 -0.219 -0.391 -0.07 -0.723 c 0.086 -0.188 0.168 -0.281 0.383 -0.43 c 0.246 -0.172 0.695 -0.184 0.828 -0.16 c 0.199 0.035 -0.191 0.105 -0.367 0.242 c -0.082 0.059 -0.141 0.129 -0.137 0.152 c 0.129 0.09 0.918 0.402 0.965 0.137 c 0.023 -0.141 -0.109 -0.383 -0.332 -0.379 c -0.258 0.008 -0.383 -0.004 -0.211 -0.148 c 0.125 -0.102 0.285 -0.75 0.309 -1.234 c 0.004 -0.168 0.043 -0.355 0.078 -0.418 c 0.117 -0.227 -0.066 -0.629 0.141 -0.789 c 1.945 -0.453 0.188 0.223 0.32 0.672 c 0.078 0.211 1.109 0.129 1.688 -0.383 c -0.59 -0.66 -0.492 -0.191 -0.359 -0.332 c 0.039 -0.133 0.164 -0.223 0.309 -0.07 c 0.125 0.129 0.77 0.137 0.719 0.266 c -0.203 0.152 -1.039 0.734 -1.258 0.789 c -0.598 0.414 -0.539 0.328 -0.77 0.453 c -0.121 0.074 -0.32 0.598 -0.348 0.66 c -0.063 0.168 -0.094 0.828 -0.051 1.137 c 0.035 0.246 0.023 0.277 -0.121 0.457 c -0.152 0.188 -0.215 0.219 -0.738 0.402 c -0.074 0.023 -0.191 0.043 -0.258 0.039 m 0.965 -3.641 c -0.004 -0.582 1.344 -0.832 1.789 -0.613 c -0.078 0.094 -1.676 0.602 -1.789 0.613" fill="#11cefc"/><path d="m 4.734 12.03 c -0.289 -0.016 -0.426 -0.063 -0.688 -0.242 c -0.543 -0.367 -0.703 -1.051 -0.469 -2.035 c 0.082 -0.336 0.137 -0.457 0.285 -0.625 c 0.234 -0.258 0.242 -0.266 0.41 -0.391 c 0.211 -0.156 0.254 -0.148 0.141 0.023 c -0.32 0.477 -0.484 1.094 -0.406 1.523 c 0.031 0.168 0.043 0.352 0.023 0.41 c -0.023 0.082 0 0.18 0.086 0.391 c 0.137 0.332 0.266 0.488 0.535 0.652 c 0.203 0.121 0.383 0.297 0.316 0.301 c -0.023 0.004 -0.125 0 -0.234 -0.008 m 1.176 -0.852 c -0.406 -0.031 -0.781 -0.289 -0.957 -0.664 c -0.207 -0.438 -0.156 -1.141 0.117 -1.602 c 0.047 -0.074 0.109 -0.184 0.145 -0.246 c 0.094 -0.164 0.277 -0.363 0.348 -0.379 c 0.094 -0.02 0.098 0.09 0.012 0.246 c -0.125 0.215 -0.238 0.563 -0.273 0.824 c -0.051 0.363 0.102 1.035 0.297 1.285 c 0.152 0.199 0.41 0.324 0.594 0.285 c 0.125 -0.027 0.191 0.035 0.137 0.137 c -0.043 0.082 -0.207 0.129 -0.418 0.113 m 4.566 -3.578 c -0.059 -0.039 -0.09 -0.109 -0.094 -0.191 c -0.004 -0.188 -0.227 -0.691 -0.375 -0.844 c -0.074 -0.074 -0.227 -0.188 -0.344 -0.25 c -0.117 -0.066 -0.242 -0.156 -0.277 -0.199 c -0.074 -0.082 -0.082 -0.082 0.395 -0.066 c 0.219 0.008 0.633 0.23 0.797 0.43 c 0.25 0.301 0.441 0.949 0.316 1.074 c -0.082 0.082 -0.328 0.109 -0.418 0.047 m -1.445 0.113 c -0.063 -0.008 -0.133 -0.051 -0.156 -0.09 c -0.164 -0.289 -0.309 -0.414 -0.531 -0.469 c -0.262 -0.063 -0.285 -0.121 -0.078 -0.227 c 0.199 -0.098 0.438 -0.063 0.656 0.094 c 0.211 0.152 0.516 0.535 0.488 0.609 c -0.02 0.063 -0.227 0.109 -0.379 0.082" fill="#30be33"/></svg>