<svg xmlns="http://www.w3.org/2000/svg" viewBox="0 0 16 16"><path d="m 14.14 2.922 c 3.891 5.984 0.75 11.438 -3.656 12.73 c -5.926 1.738 -13.973 -2.836 -8.672 -12.258 c 2.109 -3.746 9.555 -4.738 12.324 -0.473" fill="#ffeed5"/><path d="m 6.07 12.508 c -0.141 -0.027 -0.328 -0.09 -0.414 -0.137 c -0.086 -0.047 -0.258 -0.086 -0.375 -0.086 c -0.121 0 -0.293 -0.031 -0.387 -0.07 c -0.09 -0.035 -0.254 -0.086 -0.367 -0.109 l -0.199 -0.043 v -0.863 c 0 -0.949 0.035 -1.035 0.41 -1.035 c 0.184 0 0.277 -0.059 0.422 -0.246 c 0.219 -0.289 0.227 -0.34 0.055 -0.34 c -0.07 0 -0.195 -0.047 -0.273 -0.105 c -0.082 -0.055 -0.242 -0.113 -0.363 -0.129 c -0.199 -0.02 -0.215 -0.047 -0.234 -0.379 c -0.016 -0.27 0.012 -0.395 0.117 -0.512 c 0.074 -0.086 0.215 -0.316 0.309 -0.512 c 0.094 -0.191 0.227 -0.383 0.289 -0.418 c 0.094 -0.051 0.113 -0.141 0.086 -0.43 c -0.07 -0.711 0.309 -1.105 0.82 -0.859 c 0.199 0.098 0.262 0.184 0.328 0.449 c 0.047 0.184 0.105 0.332 0.137 0.332 c 0.027 0 0.145 -0.133 0.258 -0.297 c 0.188 -0.277 0.199 -0.332 0.172 -0.895 c -0.082 -1.734 0.039 -2.184 0.684 -2.504 c 0.246 -0.125 1.352 -0.152 1.352 -0.035 c 0 0.039 0.059 0.07 0.129 0.07 c 0.203 0 0.582 0.449 0.742 0.867 c 0.086 0.23 0.141 0.559 0.141 0.836 c 0 0.484 0.188 1.121 0.426 1.445 c 0.766 1.055 1.313 2.086 1.313 2.48 c 0 0.113 -0.063 0.289 -0.141 0.387 c -0.137 0.18 -0.137 0.184 0 0.301 c 0.078 0.066 0.141 0.168 0.141 0.219 c 0 0.055 0.082 0.27 0.184 0.477 c 0.293 0.613 0.234 0.902 -0.234 1.195 c -0.152 0.09 -0.469 0.32 -0.707 0.508 c -0.594 0.461 -0.695 0.508 -1.137 0.504 c -0.309 0 -0.441 -0.043 -0.648 -0.203 c -0.254 -0.195 -0.281 -0.199 -0.918 -0.152 c -0.5 0.035 -0.703 0.082 -0.871 0.203 c -0.227 0.16 -0.703 0.195 -1.246 0.086 m 2.754 -1.109 c 0.277 -0.145 0.289 -0.168 0.289 -0.496 c 0 -0.191 0.051 -0.41 0.105 -0.488 c 0.059 -0.078 0.109 -0.238 0.109 -0.355 c 0.004 -0.121 0.07 -0.359 0.156 -0.531 c 0.125 -0.266 0.184 -0.316 0.359 -0.316 c 0.117 0 0.211 -0.02 0.211 -0.047 c 0 -0.117 -0.59 -1.109 -0.754 -1.266 c -0.168 -0.16 -0.219 -0.168 -0.73 -0.125 c -0.457 0.039 -0.895 0.121 -1.605 0.309 c -0.098 0.027 -0.016 0.414 0.125 0.582 c 0.129 0.16 0.047 0.422 -0.184 0.582 c -0.594 0.406 -0.566 0.367 -0.449 0.598 c 0.16 0.309 0.738 1.199 0.957 1.473 c 0.18 0.223 0.223 0.234 0.656 0.234 c 0.324 0 0.543 -0.043 0.75 -0.152 m -1.324 -1.504 c -0.082 -0.082 -0.055 -1.039 0.031 -1.09 c 0.129 -0.082 0.207 0.121 0.211 0.527 c 0 0.516 -0.086 0.719 -0.242 0.563 m -1.438 -1.27 c 0.016 -0.141 0.055 -0.293 0.094 -0.336 c 0.039 -0.051 0.012 -0.129 -0.086 -0.219 c -0.113 -0.102 -0.145 -0.195 -0.117 -0.363 l 0.035 -0.223 h -0.707 l -0.004 0.258 c 0 0.145 -0.027 0.309 -0.066 0.363 c -0.063 0.105 0.004 0.332 0.203 0.652 c 0.082 0.133 0.156 0.164 0.367 0.145 c 0.238 -0.02 0.262 -0.039 0.281 -0.277 m -0.637 -0.293 c 0 -0.039 0.031 -0.07 0.07 -0.07 c 0.039 0 0.074 0.031 0.074 0.07 c 0 0.043 -0.035 0.074 -0.074 0.074 c -0.039 0 -0.07 -0.031 -0.07 -0.074 m 2.152 -0.953 c 0.211 -0.121 0.645 -0.305 0.961 -0.41 c 0.66 -0.215 0.758 -0.293 0.609 -0.5 c -0.102 -0.141 -0.117 -0.137 -0.629 0.129 c -0.605 0.316 -0.656 0.32 -0.902 0.125 c -0.102 -0.078 -0.211 -0.145 -0.242 -0.145 c -0.09 0 -0.355 0.613 -0.355 0.828 c 0 0.25 0.078 0.246 0.559 -0.027 m 1.477 -2.391 c -0.07 -0.121 -0.078 -0.121 -0.078 0.023 c -0.004 0.168 0.09 0.301 0.129 0.184 c 0.012 -0.043 -0.012 -0.137 -0.051 -0.207 m -0.551 -0.168 c 0.023 -0.039 0.008 -0.074 -0.035 -0.074 c -0.039 0 -0.074 0.035 -0.074 0.074 c 0 0.039 0.016 0.074 0.031 0.074 c 0.02 0 0.051 -0.035 0.078 -0.074" fill="#ffd600"/><path d="m 6.285 12.465 c -0.051 -0.059 -0.148 -0.094 -0.215 -0.07 c -0.066 0.02 -0.195 -0.027 -0.285 -0.105 c -0.121 -0.105 -0.227 -0.129 -0.418 -0.098 c -0.246 0.039 -0.383 -0.043 -0.383 -0.227 c -0.004 -0.082 0.824 0 1.012 0.098 c 0.41 0.223 1.16 -0.027 1.16 -0.387 c 0 -0.156 0.027 -0.16 0.777 -0.168 c 0.43 -0.008 0.891 -0.023 1.027 -0.039 c 0.234 -0.023 0.254 -0.012 0.301 0.227 c 0.121 0.582 0.727 0.59 1.398 0.027 c 0.27 -0.23 0.902 -0.551 1.01 -0.516 c 0.047 0.016 0.008 0.086 -0.09 0.168 c -0.094 0.078 -0.273 0.223 -0.395 0.328 c -0.125 0.102 -0.398 0.313 -0.605 0.473 c -0.211 0.156 -0.383 0.313 -0.383 0.344 c 0 0.031 -0.164 0.059 -0.367 0.059 c -0.309 0 -0.414 -0.039 -0.621 -0.223 c -0.27 -0.238 -0.434 -0.258 -1.344 -0.156 c -0.352 0.039 -0.535 0.102 -0.656 0.215 c -0.207 0.199 -0.777 0.227 -0.922 0.051 m -0.215 -2.703 c -0.051 -0.063 -0.168 -0.113 -0.262 -0.113 c -0.199 0 -0.754 -0.211 -0.754 -0.285 c 0 -0.031 0.074 -0.125 0.168 -0.211 c 0.25 -0.238 0.832 -0.227 1.063 0.023 l 0.172 0.184 l -0.168 0.176 c -0.09 0.098 -0.141 0.211 -0.117 0.258 c 0.074 0.113 0 0.094 -0.102 -0.031 m 4.25 -0.09 c -0.219 -0.156 -0.27 -0.23 -0.238 -0.359 c 0.043 -0.168 -0.414 -1.078 -0.695 -1.391 c -0.219 -0.242 -0.703 -0.352 -1.125 -0.258 c -0.191 0.043 -0.582 0.121 -0.871 0.172 c -0.5 0.086 -0.527 0.102 -0.527 0.289 c 0 0.301 -0.066 0.422 -0.305 0.547 c -0.262 0.137 -0.352 0.051 -0.332 -0.301 c 0.008 -0.121 -0.043 -0.305 -0.109 -0.41 c -0.066 -0.105 -0.113 -0.27 -0.105 -0.367 c 0.02 -0.16 -0.008 -0.176 -0.379 -0.211 l -0.398 -0.039 l -0.02 -0.414 c -0.027 -0.488 0.129 -0.719 0.484 -0.719 c 0.309 0 0.516 0.207 0.563 0.57 c 0.027 0.176 0.082 0.309 0.133 0.309 c 0.051 0 0.195 -0.16 0.32 -0.359 l 0.227 -0.355 l -0.047 -0.98 c -0.035 -0.711 -0.023 -1.063 0.043 -1.273 c 0.094 -0.305 0.473 -0.762 0.629 -0.762 c 0.055 0 0.094 -0.035 0.094 -0.074 c 0 -0.043 0.254 -0.074 0.617 -0.074 c 0.363 0 0.617 0.031 0.617 0.074 c 0 0.039 0.039 0.074 0.09 0.074 c 0.164 0 0.559 0.422 0.695 0.746 c 0.074 0.172 0.152 0.578 0.172 0.898 c 0.055 0.77 0.211 1.156 0.863 2.125 c 0.301 0.445 0.59 0.941 0.641 1.098 c 0.047 0.16 0.117 0.32 0.152 0.359 c 0.133 0.141 0.066 0.617 -0.121 0.895 c -0.102 0.152 -0.223 0.301 -0.27 0.332 c -0.18 0.113 -0.531 0.051 -0.797 -0.141 m -2.867 -2.059 c 0.25 -0.199 0.559 -0.348 1.086 -0.531 c 0.473 -0.16 0.715 -0.32 0.715 -0.461 c 0 -0.043 -0.074 -0.176 -0.164 -0.289 l -0.164 -0.207 l -0.234 0.137 c -0.129 0.07 -0.23 0.156 -0.23 0.188 c -0.004 0.031 -0.063 0.055 -0.141 0.055 c -0.074 0 -0.152 0.066 -0.172 0.145 c -0.027 0.098 -0.098 0.148 -0.215 0.148 c -0.098 0 -0.234 -0.066 -0.309 -0.148 c -0.07 -0.078 -0.176 -0.145 -0.23 -0.145 c -0.117 0 -0.457 0.723 -0.457 0.977 c 0 0.281 0.246 0.344 0.516 0.133 m -1.781 -0.598 c 0.023 -0.039 -0.012 -0.074 -0.074 -0.074 c -0.066 0 -0.098 0.035 -0.074 0.074 c 0.027 0.039 0.059 0.074 0.074 0.074 c 0.016 0 0.047 -0.035 0.074 -0.074 m 2.563 -1.137 c 0.211 -0.102 0.477 -0.207 0.59 -0.227 c 0.168 -0.035 0.219 -0.094 0.254 -0.285 c 0.055 -0.293 -0.008 -0.516 -0.156 -0.574 c -0.086 -0.035 -0.098 -0.012 -0.055 0.121 c 0.031 0.09 0.059 0.262 0.059 0.383 c 0.004 0.211 -0.008 0.219 -0.348 0.242 c -0.254 0.016 -0.391 -0.012 -0.488 -0.102 c -0.117 -0.109 -0.137 -0.109 -0.137 -0.016 c 0 0.176 -0.207 0.32 -0.309 0.215 c -0.121 -0.121 -0.199 -0.105 -0.199 0.047 c 0 0.094 0.215 0.301 0.402 0.379 c 0.004 0 0.176 -0.082 0.387 -0.184 m -0.535 -1.031 c -0.121 -0.184 -0.258 -0.203 -0.309 -0.039 c -0.02 0.047 0.016 0.086 0.07 0.086 c 0.059 0 0.148 0.086 0.207 0.195 c 0.082 0.152 0.109 0.168 0.125 0.066 c 0.016 -0.066 -0.027 -0.207 -0.094 -0.309 m 0.93 -0.16 c -0.141 -0.035 -0.316 0.121 -0.316 0.281 c 0 0.109 0.035 0.098 0.211 -0.066 c 0.152 -0.137 0.18 -0.199 0.105 -0.215 m -1.113 4.664 c 0 -0.273 0.027 -0.426 0.074 -0.398 c 0.039 0.027 0.07 0.227 0.07 0.445 c 0 0.219 -0.031 0.398 -0.07 0.398 c -0.039 0 -0.074 -0.195 -0.074 -0.445 m -2.695 -0.805 c -0.172 -0.102 -0.16 -0.398 0.023 -0.699 c 0.195 -0.32 0.355 -0.324 0.355 -0.004 c 0 0.137 -0.023 0.27 -0.055 0.301 c -0.031 0.031 -0.055 0.141 -0.055 0.242 c 0 0.215 -0.086 0.27 -0.27 0.16" fill="#b8860a"/><path d="m 7.445 11.891 v -0.266 h 0.648 c 0.355 0 0.668 -0.031 0.691 -0.074 c 0.023 -0.039 0.09 -0.07 0.148 -0.07 c 0.074 0 0.105 0.086 0.105 0.293 v 0.293 h -0.527 c -0.289 0 -0.645 0.02 -0.797 0.047 l -0.27 0.043 m 3.07 -2.551 c -0.262 -0.137 -0.395 -0.305 -0.34 -0.441 c 0.02 -0.059 -0.012 -0.16 -0.07 -0.23 c -0.059 -0.066 -0.164 -0.238 -0.234 -0.379 c -0.07 -0.145 -0.25 -0.441 -0.402 -0.668 c -0.176 -0.27 -0.25 -0.438 -0.203 -0.484 c 0.043 -0.047 0.039 -0.141 -0.02 -0.27 c -0.074 -0.164 -0.07 -0.215 0.027 -0.313 c 0.109 -0.109 0.105 -0.141 -0.027 -0.406 c -0.09 -0.184 -0.125 -0.34 -0.09 -0.445 c 0.082 -0.258 0.027 -1.023 -0.09 -1.203 c -0.078 -0.125 -0.172 -0.164 -0.383 -0.164 c -0.305 0 -0.402 0.078 -0.48 0.383 c -0.055 0.219 -0.324 0.293 -0.324 0.09 c 0 -0.172 -0.219 -0.473 -0.348 -0.473 c -0.063 0 -0.203 0.086 -0.316 0.195 c -0.184 0.18 -0.203 0.184 -0.25 0.059 c -0.066 -0.172 0.082 -0.879 0.23 -1.109 c 0.063 -0.094 0.223 -0.23 0.363 -0.297 c 0.137 -0.063 0.25 -0.145 0.25 -0.18 c 0 -0.031 0.211 -0.059 0.469 -0.059 c 0.258 0 0.473 0.027 0.473 0.059 c 0 0.035 0.109 0.113 0.246 0.18 c 0.465 0.227 0.766 0.805 0.766 1.477 c 0 0.59 0.191 1.203 0.523 1.688 c 0.641 0.938 0.832 1.262 1.02 1.707 c 0.238 0.563 0.246 0.754 0.035 1.059 c -0.09 0.129 -0.164 0.238 -0.164 0.242 c 0 0.004 -0.102 0.027 -0.223 0.051 c -0.137 0.027 -0.309 0 -0.438 -0.066 m -5.137 -0.176 c -0.023 -0.039 -0.023 -0.137 0 -0.219 c 0.039 -0.117 0.105 -0.137 0.387 -0.125 c 0.313 0.016 0.34 0.031 0.363 0.215 c 0.02 0.199 0.012 0.203 -0.34 0.203 c -0.199 0 -0.383 -0.035 -0.41 -0.074 m 0.961 -0.996 c -0.027 -0.023 -0.027 -0.137 -0.008 -0.246 c 0.023 -0.113 0.004 -0.227 -0.039 -0.254 c -0.043 -0.027 -0.078 -0.129 -0.078 -0.227 c 0 -0.098 -0.063 -0.242 -0.141 -0.32 c -0.121 -0.125 -0.125 -0.152 -0.035 -0.23 c 0.082 -0.07 0.129 -0.07 0.191 -0.004 c 0.047 0.047 0.117 0.082 0.16 0.082 c 0.098 0 0.672 -0.863 0.703 -1.055 c 0.023 -0.137 0.031 -0.137 0.156 -0.008 c 0.074 0.074 0.105 0.152 0.066 0.18 c -0.094 0.063 -0.426 0.824 -0.488 1.113 c -0.027 0.137 -0.082 0.285 -0.117 0.328 c -0.039 0.051 -0.035 0.164 0.008 0.285 c 0.055 0.145 0.055 0.227 -0.004 0.301 c -0.086 0.105 -0.297 0.137 -0.379 0.055 m -1.57 -0.145 c 0 -0.105 0.238 -0.543 0.297 -0.543 c 0.09 0 0.082 0.156 -0.027 0.391 c -0.078 0.168 -0.27 0.277 -0.27 0.152 m 0.543 -1.496 c -0.066 -0.203 0.145 -0.508 0.348 -0.508 c 0.195 0 0.484 0.191 0.484 0.32 c 0 0.109 -0.34 0.285 -0.438 0.227 c -0.035 -0.023 -0.129 -0.008 -0.207 0.035 c -0.117 0.063 -0.148 0.047 -0.188 -0.074 m 1.703 -1.148 c 0 -0.191 0.027 -0.238 0.145 -0.238 c 0.105 0 0.145 -0.047 0.145 -0.184 c 0 -0.203 0.148 -0.242 0.285 -0.074 c 0.094 0.113 0.047 0.258 -0.086 0.258 c -0.043 0 -0.172 0.105 -0.281 0.238 l -0.203 0.238 m 1.441 -0.586 c -0.07 -0.09 -0.07 -0.133 0 -0.219 c 0.133 -0.164 0.258 -0.137 0.352 0.074 c 0.047 0.105 0.086 0.203 0.086 0.223 c 0 0.082 -0.355 0.02 -0.438 -0.078"/></svg>