<svg xmlns="http://www.w3.org/2000/svg" viewBox="0 0 16 16"><path d="m 0.301 6.301 c 3.133 -14.719 24.691 1.082 11.742 8.563 c -5.03 3.207 -13.352 -0.992 -11.742 -8.563" fill="#40acf8"/><g fill="#fff"><path d="m 10.313 9.75 c -0.102 -0.102 -0.582 -1.254 -0.961 -2.309 c -0.145 -0.387 -0.152 -0.375 0.309 -0.375 c 0.434 0 0.453 0.02 0.742 0.82 c 0.242 0.668 0.297 0.77 0.387 0.715 c 0.031 -0.02 0.176 -0.355 0.324 -0.754 c 0.152 -0.395 0.285 -0.727 0.297 -0.742 c 0.012 -0.012 0.18 -0.027 0.367 -0.035 c 0.316 -0.012 0.355 -0.004 0.434 0.07 c 0.066 0.063 0.078 0.109 0.063 0.188 c -0.035 0.129 -0.879 2.285 -0.953 2.426 c -0.055 0.105 -0.055 0.105 -0.477 0.105 c -0.418 0 -0.426 0 -0.531 -0.109"/><path d="m 4.203 9.773 c -0.086 -0.086 -0.086 -0.117 -0.086 -0.93 c -0.004 -0.461 -0.012 -0.879 -0.027 -0.926 c -0.012 -0.047 -0.098 -0.129 -0.195 -0.184 c -0.191 -0.109 -0.223 -0.18 -0.203 -0.461 c 0.012 -0.184 0.016 -0.188 0.164 -0.211 c 0.168 -0.027 0.211 -0.07 0.242 -0.266 c 0.113 -0.621 0.285 -0.754 1.055 -0.809 l 0.473 -0.035 l 0.109 0.105 c 0.102 0.094 0.113 0.129 0.102 0.316 l -0.012 0.211 l -0.297 0.039 c -0.324 0.043 -0.43 0.098 -0.43 0.227 c 0.004 0.141 0.063 0.184 0.316 0.211 c 0.301 0.035 0.352 0.09 0.352 0.391 c 0 0.266 -0.043 0.301 -0.367 0.301 c -0.332 0 -0.34 0.02 -0.344 0.918 c 0 0.41 -0.016 0.844 -0.027 0.957 l -0.027 0.211 l -0.355 0.012 c -0.328 0.012 -0.363 0.004 -0.441 -0.078"/><path d="m 6.617 9.863 c -0.238 -0.094 -0.375 -0.219 -0.516 -0.469 c -0.172 -0.309 -0.133 -0.801 0.09 -1.039 c 0.035 -0.039 0.152 -0.113 0.254 -0.168 c 0.164 -0.078 0.273 -0.098 0.742 -0.121 c 0.301 -0.02 0.566 -0.051 0.59 -0.074 c 0.063 -0.059 0.023 -0.164 -0.098 -0.254 c -0.098 -0.066 -0.156 -0.078 -0.457 -0.07 c -0.188 0.008 -0.43 0.035 -0.535 0.066 c -0.395 0.117 -0.488 0.047 -0.488 -0.367 v -0.254 l 0.305 -0.051 c 0.438 -0.078 1.152 -0.07 1.43 0.012 c 0.262 0.078 0.641 0.391 0.73 0.602 c 0.074 0.176 0.145 1.352 0.109 1.82 l -0.027 0.363 h -0.348 c -0.277 0 -0.383 -0.016 -0.508 -0.078 l -0.156 -0.078 l -0.172 0.098 c -0.242 0.141 -0.68 0.168 -0.945 0.063 m 0.895 -0.695 c 0.18 -0.117 0.297 -0.277 0.297 -0.398 c 0 -0.184 -0.559 -0.168 -0.75 0.02 c -0.133 0.129 -0.141 0.234 -0.031 0.387 c 0.105 0.145 0.246 0.145 0.484 -0.008"/></g></svg>