<svg xmlns="http://www.w3.org/2000/svg" viewBox="0 0 16 16"><path d="m 12.148 1.344 c 13.961 11.945 -14.746 23.43 -11.797 4.957 c 0.648 -4.051 8.04 -8.176 11.797 -4.957" fill="#ebc7c7"/><path d="m 5.438 11.477 c 0 -0.266 0.016 -0.434 0.063 -0.563 c 0.07 -0.207 0.129 -0.781 0.078 -0.816 c -0.039 -0.023 -0.246 0.043 -0.941 0.301 c -0.492 0.184 -0.539 0.195 -0.688 0.152 c -0.203 -0.055 -0.398 -0.18 -0.453 -0.285 c -0.063 -0.125 0.047 -0.262 0.242 -0.293 c 0.242 -0.043 1.445 -0.293 1.602 -0.336 c 0.074 -0.023 0.18 -0.051 0.238 -0.063 c 0.184 -0.168 0.133 -0.367 0.074 -0.641 c -0.059 -0.039 -0.309 0.055 -0.422 0.156 c -0.063 0.055 -0.148 0.098 -0.191 0.098 c -0.094 0 -0.309 -0.258 -0.336 -0.398 c -0.047 -0.246 -0.379 -1.281 -0.461 -1.445 c -0.098 -0.191 -0.113 -0.305 -0.055 -0.402 c 0.027 -0.047 0.102 -0.059 0.309 -0.051 c 0.199 0.008 0.383 -0.02 0.715 -0.109 c 0.246 -0.066 0.465 -0.145 0.48 -0.172 c 0.043 -0.074 0.035 -0.328 -0.012 -0.375 c -0.023 -0.027 -0.141 -0.035 -0.297 -0.023 c -0.441 0.031 -0.672 -0.141 -0.465 -0.352 c 0.043 -0.047 0.121 -0.082 0.172 -0.082 c 0.156 0 0.453 -0.086 0.527 -0.152 c 0.051 -0.047 0.066 -0.125 0.066 -0.328 c 0 -0.277 -0.074 -0.559 -0.227 -0.863 c -0.105 -0.207 -0.105 -0.367 0 -0.426 c 0.172 -0.094 0.453 0.035 0.824 0.375 c 0.141 0.129 0.172 0.313 0.086 0.484 c -0.059 0.113 -0.109 0.387 -0.082 0.457 c 0.023 0.066 0.09 0.066 0.227 -0.008 c 0.215 -0.07 0.531 -0.105 0.688 0.031 c 0.082 0.074 0.098 0.117 0.078 0.195 c -0.02 0.082 -0.07 0.121 -0.242 0.188 c -0.211 0.121 -0.727 0.109 -0.824 0.336 c -0.031 0.082 0.023 0.414 0.066 0.41 c 0.086 -0.004 0.355 -0.066 0.531 -0.125 c 0.102 -0.035 0.242 -0.051 0.316 -0.039 c 0.172 0.031 0.488 0.242 0.594 0.398 l 0.086 0.125 l -0.141 0.281 c -0.125 0.25 -0.211 0.547 -0.316 1.109 c -0.113 0.594 -0.324 0.813 -0.582 0.602 c -0.07 -0.059 -0.156 -0.082 -0.301 -0.082 c -0.281 0 -0.328 0.059 -0.316 0.398 c 0.016 0.309 -0.02 0.297 0.473 0.141 c 0.309 -0.098 0.363 -0.102 0.516 -0.059 c 0.207 0.059 0.309 0.145 0.309 0.27 c 0 0.109 -0.07 0.152 -0.348 0.211 c -0.707 0.148 -0.891 0.195 -0.918 0.246 c -0.02 0.031 -0.035 0.508 -0.035 1.055 c -0.004 0.914 -0.008 1.01 -0.078 1.152 c -0.07 0.145 -0.176 0.242 -0.258 0.238 c -0.344 -0.141 -0.367 -0.699 -0.371 -0.922 m 0.125 -2.98 c 0.141 -0.102 0.199 -0.336 0.086 -0.434 c -0.043 -0.039 -0.148 -0.082 -0.23 -0.098 c -0.297 -0.051 -0.289 -0.262 0.008 -0.344 c 0.09 -0.023 0.191 -0.074 0.23 -0.109 c 0.105 -0.098 0.078 -0.41 -0.039 -0.41 c -0.078 0 -0.637 0.168 -0.676 0.203 c -0.027 0.027 0.219 1.156 0.273 1.258 c 0.023 0.039 0.207 0.004 0.348 -0.066 m 1.152 -0.316 c 0.117 -0.172 0.129 -0.387 0.176 -0.574 c 0.094 -0.383 0.102 -0.605 0.027 -0.703 c -0.07 -0.09 -0.078 -0.09 -0.332 -0.043 c -0.309 0.063 -0.418 0.152 -0.379 0.313 c 0.035 0.164 0.043 0.172 0.203 0.172 c 0.133 0 0.27 0.078 0.27 0.156 c 0 0.07 -0.117 0.18 -0.273 0.258 c -0.148 0.078 -0.168 0.102 -0.18 0.242 c -0.02 0.238 0.004 0.266 0.219 0.266 c 0.148 0 0.211 -0.02 0.27 -0.086 m 0.461 3.43 c -0.223 -0.09 -0.34 -0.305 -0.219 -0.402 c 0.063 -0.051 0.414 -0.117 0.891 -0.172 c 0.188 -0.105 0.988 0 1.082 -0.191 c 0.016 -0.039 0.02 -0.258 0.012 -0.492 c -0.039 -0.332 0.113 -0.43 -0.234 -0.406 c -0.34 0.02 -0.727 -0.148 -0.727 -0.316 c 0 -0.117 0.098 -0.164 0.41 -0.199 c 0.328 -0.035 0.773 -0.141 1.277 -0.301 c 0.34 -0.109 0.5 -0.109 0.754 0.004 c 0.137 0.059 0.211 0.199 0.16 0.305 c -0.035 0.066 -0.422 0.203 -0.711 0.254 c -0.285 0.047 -0.301 0.078 -0.363 0.902 c -0.016 0.203 -0.008 0.203 0.867 0.02 c 0.594 -0.121 0.695 -0.133 0.855 -0.094 c 0.32 0.082 0.656 0.336 0.656 0.504 c 0 0.176 -0.113 0.203 -0.977 0.23 c -0.441 0.012 -1.027 0.043 -1.301 0.066 c -0.566 0.047 -1.68 0.215 -1.836 0.277 c -0.188 0.016 -0.418 0.07 -0.598 0.012 m 1 -2.492 c -0.305 -0.418 -0.59 -0.844 -0.617 -0.914 c -0.023 -0.063 0.012 -0.18 0.113 -0.422 c 0.238 -0.566 0.324 -0.871 0.328 -1.195 c 0.004 -0.328 0.043 -0.383 0.23 -0.348 c 0.184 0.035 0.477 0.379 0.477 0.559 c 0 0.035 -0.055 0.133 -0.125 0.215 c -0.227 0.277 -0.344 0.582 -0.551 0.875 c -0.137 0.195 -0.117 0.277 0.113 0.43 c 0.293 0.199 0.449 0.398 0.449 0.582 c 0 0.316 -0.254 0.449 -0.418 0.219 m 1.172 -0.371 c -0.051 -0.043 -0.172 -0.191 -0.27 -0.332 c -0.094 -0.137 -0.223 -0.301 -0.289 -0.367 c -0.152 -0.152 -0.152 -0.281 0 -0.551 c 0.18 -0.32 0.301 -0.734 0.301 -1.031 c 0.004 -0.395 0.09 -0.484 0.344 -0.348 c 0.141 0.078 0.348 0.371 0.348 0.496 c 0 0.055 -0.059 0.172 -0.125 0.262 c -0.301 0.391 -0.605 0.895 -0.582 0.965 c 0.191 0.203 0.5 0.223 0.613 0.488 c 0.059 0.148 0.016 0.359 -0.09 0.449 c -0.082 0.07 -0.137 0.063 -0.25 -0.031 m 0.91 -0.512 c -0.391 -0.422 -0.438 -0.484 -0.438 -0.617 c 0 -0.086 0.031 -0.184 0.078 -0.25 c 0.043 -0.055 0.16 -0.281 0.254 -0.496 c 0.152 -0.332 0.184 -0.441 0.199 -0.711 c 0.02 -0.297 0.031 -0.324 0.109 -0.336 c 0.121 -0.02 0.375 0.145 0.488 0.313 c 0.133 0.203 0.125 0.348 -0.035 0.523 c -0.152 0.168 -0.672 0.883 -0.672 0.926 c 0.176 0.25 0.469 0.234 0.664 0.492 c 0.16 0.223 0.07 0.629 -0.141 0.629 c -0.047 0 -0.246 -0.184 -0.508 -0.473 m -1.906 -2.375 c -0.156 -0.051 -0.219 -0.117 -0.219 -0.23 c 0 -0.066 0.031 -0.105 0.102 -0.133 c 0.504 -0.164 1.063 -0.211 1.547 -0.383 c 0.625 -0.223 0.867 -0.262 1.09 -0.164 c 0.133 0.059 0.195 0.176 0.156 0.297 c -0.039 0.133 -0.141 0.168 -1.57 0.535 c -0.379 0.094 -0.938 0.137 -1.105 0.078" fill="#ed0909"/></svg>