<svg xmlns="http://www.w3.org/2000/svg" viewBox="0 0 16 16"><path d="m 14.14 13.223 c 3.891 -5.984 0.75 -11.438 -3.656 -12.73 c -5.926 -1.738 -13.973 2.832 -8.672 12.258 c 2.109 3.746 9.555 4.734 12.324 0.473" fill="#ffdeac"/><path d="m 6.785 11.723 l -2.66 -0.723 l -0.152 -1.477 c -0.082 -0.813 -0.125 -1.992 -0.098 -2.625 l 0.098 -1.266 l 1.137 -0.527 l 1.184 -0.645 l 2.562 0.367 c 1.406 0.203 2.648 0.402 2.758 0.441 c 0.125 0.043 0.152 0.965 0.078 2.547 l -0.117 2.48 l -0.93 1.094 c -0.516 0.598 -0.996 1.082 -1.066 1.07 c -0.074 -0.012 -1.332 -0.344 -2.793 -0.738" fill="#d4a36a"/><g fill="#644f35"><path d="m 4.605 11.137 c -0.434 0.004 -0.02 -0.223 0.063 -0.414 c 0.109 -0.262 0.148 -0.258 1.57 0.137 l 0.301 0.082 l 0.016 0.246 c 0.008 0.133 0.02 0.449 0 0.449 c -1.199 -0.32 -1.102 -0.316 -1.949 -0.5"/><path d="m 7.01 10.766 c -2.52 -0.617 -3.063 -0.547 -2.859 -0.848 c -0.07 -0.238 0.5 0.098 1.063 0.234 c 0.563 0.133 1.203 0.273 1.43 0.305 c 0.227 0.031 0.727 0.145 1.109 0.254 c 0.383 0.105 0.996 0.262 1.359 0.348 c 0.363 0.082 0.738 0.176 0.828 0.203 c 0.207 0.066 0.223 0.195 0.027 0.195 c -0.078 -0.004 -1.41 -0.313 -2.957 -0.691"/><path d="m 10.08 8.98 c -0.074 -0.137 0.188 -1.906 0.289 -2.223 c 0.066 -0.199 0.656 -0.715 0.801 -0.695 c 0.25 -0.156 0.063 -0.035 0.395 -0.398 c 0.063 -0.066 0.129 -0.121 0.148 -0.121 c 0.063 0 0.137 3.211 0.07 3.277 c -0.066 0.348 -0.051 0.879 -0.102 1.125 l -0.086 0.242 c -0.066 0.188 -0.18 0.34 -0.496 0.668 c -0.227 0.23 -0.41 0.445 -0.41 0.477 c -0.32 0.313 -0.336 0.91 -0.727 0.648 c -0.063 -0.664 0.09 -1.848 0.117 -3"/><path d="m 6.98 8.59 c -2.77 -0.594 -3.156 -0.543 -2.961 -0.812 c 0.027 -0.008 -0.008 -0.059 0.609 0.074 c 0.617 0.129 1.699 0.41 1.945 0.441 c 0.25 0.031 0.797 0.141 1.219 0.242 c 0.422 0.105 1.094 0.254 1.492 0.336 c 0.402 0.082 0.809 0.168 0.91 0.195 c 0.227 0.063 0.246 0.188 0.027 0.188 c -0.082 0 -1.543 -0.301 -3.242 -0.664"/><path d="m 7.07 8.316 c -0.008 -2 0.02 -2.434 0.129 -2.289 c 0.012 0.016 0.176 0.094 0.18 0.539 c 0 0.445 -0.125 1.254 -0.105 1.43 c 0.023 0.176 0.031 0.574 0.02 0.879 c -0.012 0.305 -0.016 0.793 -0.008 1.082 c 0.004 0.285 0.004 0.582 0 0.656 c -0.016 0.164 -0.133 0.195 -0.18 0.043 c -0.016 -0.059 -0.031 -1.113 -0.035 -2.34"/></g><path d="m 8.883 6.48 c -0.77 -0.148 -1.672 -0.313 -2 -0.363 c -2.246 -0.355 -2.957 -0.488 -2.891 -0.531 c 0.035 -0.027 0.52 -0.285 1.078 -0.578 l 1.012 -0.531 l 0.879 0.121 c 3.539 0.492 4.629 0.664 4.672 0.727 c 0.063 0.086 0.027 0.223 -0.082 0.344 c -0.281 0.465 -0.047 0.484 -0.387 0.395 c -0.145 -0.02 -0.578 0.289 -0.777 0.559 l -0.102 0.133" fill="#b28758"/><g fill="#644f35"><path d="m 7.445 5.906 c -0.012 -0.035 -0.016 -0.063 -0.008 -0.07 c 0.008 -0.004 0.078 -0.047 0.156 -0.094 c 0.168 -0.102 0.184 -0.203 0.039 -0.262 c -0.059 -0.023 -0.352 -0.094 -0.652 -0.156 c -0.297 -0.063 -0.621 -0.137 -0.715 -0.164 l -0.168 -0.051 l 0.113 -0.031 c 0.07 -0.02 0.355 -0.004 0.789 0.051 c 0.375 0.047 0.824 0.094 1 0.105 c 0.301 0.023 0.336 0.016 0.59 -0.094 c 0.148 -0.066 0.289 -0.117 0.309 -0.117 c 0.063 0 0.051 0.066 -0.02 0.105 c -0.031 0.016 -0.055 0.063 -0.047 0.105 c 0.012 0.055 0.125 0.102 0.551 0.223 c 0.297 0.086 0.551 0.168 0.563 0.18 c 0.043 0.043 -0.352 0.027 -0.883 -0.035 c -0.727 -0.086 -0.977 -0.043 -1.348 0.23 c -0.16 0.117 -0.242 0.141 -0.27 0.074"/><path d="m 7.441 11.875 c -0.434 0.004 -0.02 -0.223 0.063 -0.414 c 0.109 -0.262 0.148 -0.258 1.57 0.137 l 0.301 0.082 l 0.016 0.242 c 0.008 0.137 0.02 0.453 0 0.449 c -1.199 -0.316 -1.102 -0.313 -1.949 -0.496"/></g></svg>