<svg xmlns="http://www.w3.org/2000/svg" viewBox="0 0 16 16"><path d="m 2.027 11.914 c -5.66 -6.391 2.719 -13.16 7.625 -11.496 c 4.906 1.664 8.203 6.359 5 10.473 c -3.207 4.117 -6.355 8.09 -12.02 1.695" fill="#d7bfd7"/><path d="m 7.961 3.203 c -0.219 -0.008 -0.438 0.047 -0.629 0.148 l -3.52 1.914 c -0.371 0.203 -0.598 0.574 -0.598 0.977 v 3.832 c 0 0.402 0.227 0.773 0.598 0.973 l 3.52 1.918 c 0.371 0.199 0.828 0.199 1.199 0 l 3.52 -1.918 c 0.371 -0.199 0.598 -0.57 0.598 -0.973 v -3.832 c 0 -0.402 -0.227 -0.773 -0.598 -0.977 l -3.52 -1.914 c -0.176 -0.094 -0.371 -0.145 -0.57 -0.148" fill-opacity="0.2"/><path d="m 7.961 2.953 c -0.219 -0.004 -0.438 0.047 -0.629 0.152 l -3.52 1.914 c -0.371 0.199 -0.598 0.574 -0.598 0.977 v 3.828 c 0 0.402 0.227 0.773 0.598 0.977 l 3.52 1.914 c 0.371 0.203 0.828 0.203 1.199 0 l 3.52 -1.914 c 0.371 -0.203 0.598 -0.574 0.598 -0.977 v -3.828 c 0 -0.402 -0.227 -0.777 -0.598 -0.977 l -3.52 -1.914 c -0.176 -0.094 -0.371 -0.148 -0.57 -0.152" fill="#734069"/><path d="m 7.961 2.953 c -0.219 -0.004 -0.438 0.047 -0.629 0.152 l -3.52 1.914 c -0.371 0.199 -0.598 0.574 -0.598 0.977 v 0.246 c 0 -0.402 0.227 -0.773 0.598 -0.977 l 3.52 -1.914 c 0.191 -0.102 0.41 -0.156 0.629 -0.148 c 0.199 0.004 0.395 0.055 0.57 0.148 l 3.52 1.914 c 0.371 0.203 0.602 0.574 0.602 0.977 v -0.246 c 0 -0.402 -0.23 -0.777 -0.602 -0.977 l -3.52 -1.914 c -0.176 -0.094 -0.371 -0.148 -0.57 -0.152" fill="#fff" fill-opacity="0.102"/><path d="m 7.953 3.945 c -0.172 -0.004 -0.34 0.039 -0.488 0.121 l -2.738 1.531 c -0.289 0.16 -0.465 0.457 -0.465 0.781 v 3.063 c 0 0.324 0.176 0.621 0.465 0.781 l 2.738 1.531 c 0.289 0.16 0.645 0.16 0.93 0 l 2.742 -1.531 c 0.285 -0.16 0.465 -0.457 0.465 -0.781 v -3.063 c 0 -0.324 -0.18 -0.621 -0.465 -0.781 l -2.742 -1.531 c -0.133 -0.078 -0.285 -0.117 -0.441 -0.121 m -0.008 0.246 h 0.004 c 0.109 0.004 0.219 0.035 0.312 0.086 l 2.738 1.531 c 0.207 0.117 0.34 0.332 0.34 0.57 v 3.063 c 0 0.238 -0.133 0.453 -0.34 0.566 l -2.738 1.531 c -0.207 0.117 -0.457 0.117 -0.664 0 l -2.738 -1.531 c -0.207 -0.113 -0.336 -0.332 -0.336 -0.566 v -3.063 c 0 -0.238 0.129 -0.453 0.336 -0.57 l 2.738 -1.531 c 0.105 -0.059 0.227 -0.086 0.348 -0.086" fill="#ff4531" fill-opacity="0.702"/><path d="m 6.926 6.422 l -0.012 0.453 l 0.148 0.109 l -0.18 0.168 l 0.098 1.105 l -0.051 3.91 c 0.098 0.52 1 1.441 1 1.441 c 0 0 0.902 -0.922 1 -1.441 l -0.051 -3.91 l 0.098 -1.105 l -0.18 -0.168 l 0.148 -0.109 l -0.012 -0.453 h -1" fill-opacity="0.2"/><path d="m 6.926 6.176 l -0.012 0.449 l 0.148 0.113 l -0.18 0.164 l 0.098 1.105 l -0.051 3.91 c 0.098 0.523 1 1.445 1 1.445 c 0 0 0.906 -0.922 1 -1.445 l -0.051 -3.91 l 0.098 -1.105 l -0.18 -0.164 l 0.148 -0.113 l -0.016 -0.449 h -1" fill="#fde4d1"/><path d="m 6.926 6.176 l -0.012 0.449 l 0.148 0.113 l -0.18 0.164 l 0.098 1.105 l -0.051 3.91 c 0.098 0.523 1 1.445 1 1.445 v -7.188" fill-opacity="0.2"/><path d="m 7.633 2.707 l -0.488 0.43 l 0.395 0.422 l -0.359 0.246 l 0.063 0.387 h 1.379 l 0.063 -0.387 l -0.363 -0.246 l 0.398 -0.422 l -0.488 -0.43 h -0.301 m 0 2.73 l -0.582 0.461 l -0.293 0.023 l -0.277 -0.176 l -0.328 0.145 l -0.09 0.258 l 0.059 0.332 l 0.348 0.129 l 0.242 -0.184 h 0.34 l 0.586 0.445 l 0.582 -0.445 h 0.344 l 0.238 0.184 l 0.348 -0.129 l 0.059 -0.332 l -0.09 -0.258 l -0.324 -0.145 l -0.281 0.176 l -0.293 -0.023" fill-opacity="0.102"/><path d="m 7.406 3.945 v 1.734 h 1.051 v -1.734" fill="#d7bab2"/><g fill="#977d85"><path d="m 7.93 5.188 l -0.582 0.465 l -0.293 0.02 l -0.277 -0.176 l -0.328 0.145 l -0.09 0.258 l 0.059 0.336 l 0.348 0.125 l 0.242 -0.184 h 0.34 l 0.582 0.445 l 0.586 -0.445 h 0.34 l 0.242 0.184 l 0.348 -0.125 l 0.059 -0.336 l -0.09 -0.258 l -0.328 -0.145 l -0.277 0.176 l -0.293 -0.02"/><path d="m 7.633 2.457 l -0.488 0.43 l 0.395 0.422 l -0.359 0.246 l 0.063 0.391 h 1.379 l 0.063 -0.391 l -0.363 -0.246 l 0.398 -0.422 l -0.488 -0.43 l -0.301 0.004"/></g></svg>