<svg xmlns="http://www.w3.org/2000/svg" viewBox="0 0 16 16"><path d="m 14.352 12.238 c 5.754 -8.18 -4.871 -16.473 -11.648 -9.805 c -6.387 6.281 -0.465 16.04 7.48 12.992 c 1.656 -0.637 3.113 -1.684 4.168 -3.188" fill="#ffa400"/><path d="m 253.47 127.78 c 0 53.38 -43.28 96.74 -96.75 96.74 c -53.4 0 -96.75 -43.36 -96.75 -96.74 c 0 -53.46 43.36 -96.82 96.75 -96.82 c 53.48 0 96.75 43.36 96.75 96.82" transform="matrix(0.04901 0 0 0.04838 0.35 1.975)" fill="#fbfb3f" stroke="#ff0" stroke-linejoin="round" stroke-width="5.071"/><path d="m 7.477 13.219 c -1.984 -0.223 -3.668 -1.535 -4.332 -3.383 c -0.957 -2.66 0.504 -5.605 3.23 -6.52 c 0.551 -0.184 1.02 -0.258 1.66 -0.262 c 0.891 0 1.605 0.168 2.395 0.57 c 1.414 0.723 2.367 1.977 2.707 3.547 c 0.094 0.457 0.098 1.492 0 1.93 c -0.453 2.078 -2.01 3.621 -4.063 4.03 c -0.488 0.102 -1.152 0.137 -1.598 0.086 m 1.492 -0.391 c 0.945 -0.18 1.836 -0.656 2.523 -1.344 c 1.648 -1.656 1.867 -4.203 0.52 -6.098 c -0.414 -0.578 -1.125 -1.188 -1.77 -1.508 c -0.305 -0.152 -0.863 -0.34 -1.258 -0.426 c -0.418 -0.086 -1.363 -0.102 -1.777 -0.023 c -1.082 0.207 -1.961 0.68 -2.707 1.465 c -1.672 1.758 -1.773 4.344 -0.246 6.246 c 0.75 0.938 1.938 1.586 3.184 1.75 c 0.379 0.047 1.109 0.02 1.531 -0.063 m -1.738 -0.207 c -0.637 -0.113 -1.551 -0.48 -1.551 -0.617 c 0 -0.063 1.586 -2.602 1.648 -2.641 c 0.016 -0.012 0.129 0.012 0.25 0.047 c 0.313 0.09 0.902 0.059 1.176 -0.063 c 0.164 -0.074 0.215 -0.082 0.254 -0.039 c 0.074 0.074 1.629 2.516 1.629 2.555 c 0 0.09 -0.648 0.426 -1.137 0.586 c -0.688 0.227 -1.605 0.297 -2.27 0.176 m 0.496 -3.684 c -0.316 -0.168 -0.477 -0.43 -0.477 -0.777 c 0 -0.367 0.18 -0.648 0.504 -0.785 c 0.688 -0.285 1.387 0.504 1.043 1.176 c -0.074 0.145 -0.305 0.359 -0.445 0.41 c -0.168 0.063 -0.484 0.051 -0.625 -0.023 m -3.078 -0.676 c -0.668 -0.012 -1.223 -0.027 -1.227 -0.031 c -0.031 -0.027 -0.004 -0.504 0.051 -0.82 c 0.168 -0.969 0.609 -1.801 1.324 -2.5 c 0.332 -0.324 0.473 -0.43 0.855 -0.66 c 0.238 -0.145 0.289 -0.16 0.336 -0.113 c 0.07 0.074 1.344 2.605 1.344 2.668 c 0 0.027 -0.09 0.145 -0.203 0.258 c -0.234 0.242 -0.438 0.629 -0.496 0.945 c -0.023 0.121 -0.051 0.238 -0.066 0.258 c -0.012 0.02 -0.176 0.035 -0.359 0.027 c -0.188 -0.004 -0.887 -0.02 -1.559 -0.031 m 4.934 -0.133 c -0.012 -0.031 -0.047 -0.137 -0.082 -0.238 c -0.125 -0.355 -0.398 -0.699 -0.781 -0.973 l -0.121 -0.082 l 0.633 -1.414 c 0.453 -1.02 0.648 -1.41 0.699 -1.41 c 0.09 0 0.613 0.289 0.902 0.5 c 1.016 0.742 1.766 2.094 1.797 3.234 l 0.008 0.332 l -0.414 0.023 c -0.227 0.016 -0.91 0.039 -1.516 0.051 c -0.859 0.02 -1.109 0.016 -1.125 -0.023"/></svg>