<svg xmlns="http://www.w3.org/2000/svg" viewBox="0 0 16 16"><path d="m 14.09 13.1 c 3.895 -5.953 0.75 -11.375 -3.656 -12.66 c -5.934 -1.73 -13.984 2.816 -8.68 12.188 c 2.109 3.727 9.559 4.711 12.336 0.473" fill="#938987"/><g fill="#262323" stroke="#262323" transform="scale(0.0625)"><g stroke-width="0.948"><path d="m 54.13 114 c -0.25 -0.625 -0.563 -6.06 -0.813 -12 c -0.313 -9.875 -0.563 -11 -2.438 -12.25 c -2.688 -1.75 -2.563 -3.5 0.438 -7.125 c 1.313 -1.688 3.375 -4.5 4.5 -6.313 c 2.688 -4.25 6.625 -5.813 8.938 -3.438 c 1.563 1.563 1.563 1.688 -0.125 2.625 c -3.125 1.75 -5.5 4.688 -5.188 6.313 c 0.25 1.25 1.938 1.813 7.563 2.438 l 7.188 0.813 l 0.625 6.313 c 1.063 11.313 0.75 22.625 -0.688 23.19 c -2.625 1 -3.438 -1.125 -4.25 -11.438 c -0.875 -11.125 -1.813 -13.563 -5.375 -13.563 c -3.5 0 -4.438 2.313 -5.25 12.875 c -0.75 9.375 -1.813 12.75 -3.938 12.75 c -0.438 0 -1 -0.5 -1.188 -1.188"/><path d="m 92.13 114 c -1.625 -1.25 -10.06 -24 -10.06 -27.313 c 0 -1.188 0.625 -1.813 1.813 -1.813 c 1.375 0 3.938 1.188 6.625 7.938 c 1.938 4.813 2.563 10 3.125 10.563 c 1.188 1.188 1.938 -2.875 5.938 -11.625 c 1.625 -3.625 4.75 -5.875 5.563 -6.688 c 3.125 -3.063 2.688 1.438 -1.313 14 c -4.75 15.06 -7.188 18.19 -11.688 14.938"/><path d="m 70.25 78.5 c -1.5 -2 -1.563 -2.813 -0.25 -4.5 c 1.188 -1.625 3.625 -1.75 4.375 -0.25 c 0.688 1.563 -0.313 5.125 -1.688 5.875 c -0.625 0.313 -1.75 -0.188 -2.438 -1.125"/></g><g stroke-width="0.628"><path d="m 121.88 114.63 c -2.563 -0.75 -7.375 -4.938 -8.75 -7.625 c -1.875 -3.688 -1.688 -11.813 0.375 -15.313 c 1.625 -2.813 7 -6.875 10 -7.625 c 3 -0.688 8.5 1 10.938 3.438 c 3.813 3.813 5.625 10.25 3.688 12.938 c -0.688 0.938 -2.188 1.25 -7.375 1.688 c -7.875 0.625 -10.5 1.063 -10.938 1.75 c -0.188 0.313 0.313 1.313 1.063 2.25 l 1.313 1.75 l 8.25 -0.25 l 8.188 -0.25 l 0.188 1.688 c 0.375 2.75 -0.875 4.188 -4.375 5.188 c -3.438 1.063 -9.75 1.25 -12.563 0.375 m 8.563 -19.25 c 1.375 -1.313 1.25 -3.813 -0.25 -4.625 c -1.875 -1 -5.813 -0.75 -8.188 0.563 c -4.25 2.25 -1.938 5.063 4.188 5.063 c 2.125 0 3.625 -0.313 4.25 -1"/><path d="m 165.5 114.31 c -2.938 -1.313 -3.75 -3.75 -4.5 -14.12 c -0.375 -4.938 -1 -9.438 -1.313 -10.125 c -0.313 -0.625 -0.625 -1.75 -0.625 -2.5 c 0 -2.438 3.188 -11.75 4.125 -12.12 c 1.188 -0.438 3.25 1.813 3.75 4.063 c 0.438 1.813 1.813 3.188 5.25 5.063 c 3.125 1.75 2.5 4.313 -1.375 5.25 c -0.938 0.25 -2 0.938 -2.313 1.563 c -0.813 1.5 -0.813 13.563 0 15.06 c 0.313 0.625 1.438 1.375 2.5 1.563 c 1.063 0.25 2.313 1.063 2.813 1.75 c 1.25 1.813 1.25 4.625 0 5.125 c -1.75 0.625 -6.188 0.375 -8.313 -0.563"/><path d="m 188 114.56 c -9.25 -1.813 -13.375 -14.12 -7.875 -23.5 c 4.938 -8.438 13.313 -9.5 20.75 -2.688 c 4.125 3.75 4.938 6 4.563 12.375 c -0.438 7.438 -3.688 12.313 -9.125 13.875 c -2.688 0.688 -4.375 0.688 -8.313 -0.063 m 7.688 -8.25 c 3.25 -2.25 4.5 -6.875 3 -10.875 c -1 -2.563 -4.438 -5.313 -6.625 -5.313 c -3.938 0 -7.875 4.063 -7.875 8.25 c 0 2.438 1.438 6.188 3 7.75 c 2.375 2.375 5.25 2.438 8.5 0.188"/><path d="m 70.31 172.06 c -2.875 -1.563 -3.688 -4.063 -4.313 -13.375 c -0.313 -4.688 -1 -9.875 -1.5 -11.5 c -0.875 -2.813 -0.188 -2.938 1.063 -9 c 1.438 -6.938 2.125 -9.563 3.25 -9.438 c 0.938 0.125 1.938 4.938 3.125 7.313 c 1.438 2.813 2.375 3.75 4.563 4.875 c 1.563 0.688 3 1.75 3.188 2.313 c 0.5 1.25 -1.375 3.25 -3.563 3.75 c -2.438 0.5 -3.125 2.625 -3.125 9.625 c 0 6.938 0.625 8.375 4.063 9.5 c 2.563 0.875 4.188 4.375 2.813 6 c -1 1.25 -7.25 1.188 -9.563 -0.063"/><path d="m 86.75 171.75 c -1.375 -1.375 -1.375 -1.563 -0.938 -14.313 c 0.5 -14.75 1.375 -25.06 2.313 -27.5 c 1.125 -3 3.875 -2.188 4.5 3.688 c 0.813 8.313 -0.625 9.875 4.25 8.375 c 5.125 -1.563 9.563 1.063 11.25 6.5 c 0.688 2.5 0.813 18.438 0.125 21.75 c -0.5 2.25 -2.75 2.938 -3.75 1.063 c -0.375 -0.625 -0.813 -4.375 -1.063 -8.375 c -0.5 -9.438 -1.313 -13.625 -2.813 -14.375 c -2.313 -1.25 -4.813 -0.75 -6.5 1.313 c -1.625 1.875 -1.625 2.125 -1.688 10.813 c 0 9.563 -0.563 11.875 -2.938 12.25 c -0.75 0.125 -1.938 -0.438 -2.75 -1.188"/><path d="m 117.94 172.06 c -0.75 -0.75 -0.938 -2.375 -0.938 -7.06 c 0 -7.25 1.563 -22.06 2.375 -22.875 c 0.438 -0.438 1.813 -0.313 3.875 0.188 c 2.875 0.75 3.438 0.688 5.313 -0.313 c 3.438 -1.813 6 -0.375 5.188 2.875 c -0.313 1.188 -1.125 1.75 -3.375 2.438 c -1.75 0.563 -3.438 1.625 -4.125 2.563 c -1.375 1.875 -2.313 8.125 -2.313 16.06 c -0.063 4.625 -0.188 5.25 -1.438 6.125 c -1.813 1.25 -3.313 1.25 -4.563 0"/><path d="m 144.25 172.25 c -5.813 -2.25 -9.375 -8 -9.313 -14.875 c 0.063 -9.75 5.938 -16.06 14.688 -16 c 6.375 0.063 10.25 2.875 12.563 9.125 c 1.375 3.813 2.938 3.688 5.188 -0.375 c 5.188 -9.688 15.625 -12 22.875 -5.063 c 2.938 2.875 4 5.75 4 11.188 v 3.625 l -6.125 0.063 c -7.313 0 -12.5 0.688 -13.5 1.688 c -0.563 0.625 -0.438 1.063 0.688 2.188 c 1.25 1.25 2.125 1.438 10.125 1.688 c 10.438 0.375 11.375 0.813 8.188 4.125 c -2.625 2.688 -5.125 3.438 -11.313 3.438 c -6 -0.063 -8.938 -1.313 -12.313 -5.438 c -3 -3.563 -4 -5.313 -4 -7 c 0 -2.25 -1.625 -2.938 -4.438 -1.75 c -1.438 0.563 -4.438 1 -7.06 1 c -5.688 0.063 -10.375 0.813 -11.313 1.813 c -0.625 0.625 -0.375 1.125 1 2.313 c 1.625 1.438 2.188 1.5 9.5 1.5 c 4.313 0 8.25 0.188 8.813 0.375 c 2.625 1.063 -0.625 5.313 -5 6.5 c -3.25 0.875 -10.75 0.813 -13.25 -0.125 m 10.438 -19.563 c 0.875 -0.375 1.563 -1.063 1.563 -1.563 c 0 -1.125 -2.625 -3.063 -5.063 -3.75 c -2.188 -0.625 -5.938 0.375 -7.875 2.125 c -3.563 3.25 5.563 5.875 11.375 3.188 m 29.19 0.813 c 4.875 -1.188 5.125 -3.125 0.75 -5.375 c -2.625 -1.313 -5.375 -1.188 -8.125 0.438 c -3.688 2.188 -2.875 4.063 2.375 5.25 c 2.063 0.438 2.125 0.438 5 -0.313"/></g></g></svg>