<svg xmlns="http://www.w3.org/2000/svg" viewBox="0 0 16 16"><path d="m 14.352 12.266 c 5.754 -8.125 -4.871 -16.363 -11.648 -9.738 c -6.387 6.238 -0.465 15.93 7.48 12.902 c 1.656 -0.633 3.113 -1.672 4.168 -3.164" fill="#ff8c00"/><path d="m 4.93 11.711 c -0.352 -0.137 -0.492 -0.27 -0.703 -0.664 c -0.191 -0.352 -0.195 -0.613 -0.012 -1 c 0.277 -0.578 0.965 -0.824 1.598 -0.566 c 0.098 0.039 0.105 -0.074 0.105 -1.898 c 0 -1.707 0.012 -1.953 0.098 -2.074 c 0.055 -0.074 0.34 -0.25 0.641 -0.383 c 0.895 -0.41 1.813 -0.547 2.934 -0.438 c 0.789 0.074 1.02 0.145 1.063 0.313 c 0.02 0.07 0.023 1.25 0.016 2.621 c -0.02 2.461 -0.02 2.5 -0.156 2.785 c -0.18 0.383 -0.281 0.484 -0.637 0.648 c -0.887 0.406 -1.938 -0.18 -1.953 -1.086 c -0.004 -0.371 0.219 -0.785 0.543 -1.01 c 0.215 -0.145 0.313 -0.172 0.625 -0.176 c 0.203 0 0.43 0.02 0.504 0.047 l 0.133 0.047 v -2.094 l -0.277 -0.039 c -0.512 -0.074 -1.559 0.016 -2.086 0.176 l -0.484 0.152 l -0.02 1.844 l -0.02 1.848 l -0.18 0.344 c -0.148 0.281 -0.234 0.371 -0.48 0.5 c -0.414 0.219 -0.859 0.254 -1.25 0.105 m 1.137 -0.332 c 0.141 -0.066 0.25 -0.18 0.34 -0.363 c 0.133 -0.254 0.137 -0.332 0.156 -2.133 l 0.016 -1.871 l 0.152 -0.117 c 0.086 -0.066 0.371 -0.188 0.637 -0.273 c 0.441 -0.141 0.57 -0.156 1.465 -0.16 c 0.543 -0.004 1.031 0.016 1.09 0.039 c 0.094 0.035 0.102 0.156 0.102 1.352 c 0 1.477 0.012 1.441 -0.445 1.273 c -0.313 -0.117 -0.77 -0.09 -1 0.059 c -0.336 0.215 -0.461 0.879 -0.238 1.262 c 0.242 0.41 0.965 0.574 1.496 0.336 c 0.203 -0.09 0.285 -0.172 0.387 -0.391 c 0.129 -0.273 0.133 -0.32 0.133 -2.801 v -2.523 l -0.27 -0.051 c -0.145 -0.027 -0.641 -0.051 -1.098 -0.059 c -0.996 -0.008 -1.543 0.094 -2.277 0.43 l -0.492 0.223 v 2.094 c 0 2.348 0.02 2.254 -0.422 2.059 c -0.332 -0.145 -0.832 -0.125 -1.063 0.039 c -0.418 0.301 -0.477 1.094 -0.105 1.434 c 0.328 0.301 0.969 0.363 1.441 0.145" fill="#ff0"/></svg>