<svg xmlns="http://www.w3.org/2000/svg" viewBox="0 0 16 16"><path d="m 1.598 11.941 c -8.664 -15.727 21.949 -15.891 12.668 0.281 c -2.875 4.168 -10.336 5.668 -12.668 -0.281" fill="#012537"/><path d="m 112.44 176.5 c 0 -8.563 -0.438 -16.25 -1 -17.12 c -0.563 -0.875 -2 -1.375 -3.188 -1.188 c -1.938 0.375 -2.25 1.938 -2.75 15.13 l -0.625 14.625 l -22.313 -22.875 l -22.375 -22.875 l -0.063 -29.75 v -29.813 l 4.375 4.063 c 2.375 2.25 11.75 11.563 20.875 20.75 l 16.563 16.688 l 0.313 16.06 c 0.313 14.625 0.5 16.06 2.5 16.438 c 3.5 0.688 4.188 -1.875 4.188 -16.25 v -13.563 l 4.375 -1.875 c 2.438 -1.063 5.813 -2.188 7.563 -2.625 c 4.375 -2.75 11.313 -2.563 11.375 -5.938 c 0 -2.625 -0.5 -2.938 -4.125 -2.938 c -4.25 -0.063 -5.5 3.563 -8.813 2.875 c -2.125 -0.438 -4.25 -0.063 -5.938 1.125 c -4.813 3.375 -7.25 2.313 -15.25 -6.688 c -4.188 -4.625 -14.188 -14.563 -22.25 -22 c -10.563 -9.688 -14.06 -13.563 -12.563 -13.875 c 1.125 -0.25 2.563 -0.875 3.125 -1.438 c 11.25 -2.688 22.06 -8.688 32.31 -10.125 c 6.06 -1.188 16.75 -7.125 21.438 -7.375 c 1.438 0 2.938 -0.563 3.313 -1.188 c 2.375 -1.688 5.5 -1.688 8 -2.938 c 6.25 -3.313 10.75 -2.313 18 4 c 9.625 7.563 20.13 15.563 28 22.438 c 14.875 13 15.5 14.25 7.313 15.813 c -3.563 0.375 -6.688 2.625 -9.813 3.375 c -4 0.938 1 5 4.688 6.688 c 2.625 1.188 -2.688 0.813 -6.188 2.313 c -4.875 2.188 -8.688 5.875 -8.688 8.375 c -3.563 9.688 -1 13.813 8.375 13.875 c 5.063 0 6.625 -0.625 11 -4.188 c 4.5 -3.75 5.063 -4.75 5 -9.125 c 0 -6 -0.438 -6.563 -6.688 -9.688 c -5.625 -2.813 -5 -3.625 3.938 -5.125 l 4.813 -0.813 l 0.75 8.813 c 0.375 4.813 0.75 19.06 0.75 31.75 c 0 25.688 0.25 24.875 -8.625 26.563 c -3 -0.125 -5.063 2.875 -7.625 2.875 c -8.438 2 -15.938 5.875 -23.938 8.375 c -4.25 -0.063 -7.875 4.5 -11.313 4.563 c -2.75 0 -12.938 3.563 -14.375 5 c -3.313 1.438 -7.25 0.438 -10.25 2.625 c -1.25 0.938 -2.688 1.75 -3.25 1.75 c -0.5 0 -0.938 -7 -0.938 -15.563 m 26.5 1.375 c 4.375 -4.125 4.938 -5.313 4.938 -9.875 c 0 -4.563 -0.5 -5.563 -4.063 -8.313 c -3.875 -3.813 -5 -2.75 -9.625 -0.75 c -5.063 1.375 -6.313 5.563 -9.438 8.813 c -0.75 0.688 -1.313 3.813 -1.313 6.875 c 0 6.625 1.563 7.938 9.313 8 c 4.5 0 5.875 -0.688 10.188 -4.75 m 43.5 -13.688 c 3 -3.563 6.813 -10.938 6.813 -13.188 c 0 -1.188 -1.375 -3.813 -3 -5.813 c -2.5 -2.938 -3.938 -3.625 -7.875 -3.625 c -4.188 0 -5.5 0.75 -10.938 6.125 c -6.938 6.938 -7.938 11.188 -3.563 15.813 c 2.063 2.313 3.688 2.75 9.688 2.75 c 5.375 0 7.563 -0.5 8.875 -2.063 m -22.688 -11.438 c 1.813 -2.188 4.5 -5.625 6 -7.625 c 4.875 -5.438 -1.875 -6 -2.125 -11.313 c 0 -2.375 -9.125 -2.063 -14.313 0.5 c -5.375 2.625 -8.938 9 -8.938 15.875 c -0.375 7.625 3.063 6.625 8.813 6.688 c 6.813 0 7.438 -0.25 10.563 -4.125 m -68.938 -7.125 c 4.938 -14.625 -0.438 -17.438 -6.25 -22.25 c -2.875 -4.375 -8.5 -5 -10.5 -0.25 c -0.625 1.438 -1.813 3.5 -2.563 4.625 c -1 2.938 3.5 12.06 5.125 15.13 c 2.375 4.313 2.875 4.563 8 4.563 c 3.938 0 5.688 -0.5 6.188 -1.813 m 47.19 -4.063 c 6 -9.625 7.875 -18.75 -4.375 -18.75 c -8.625 0 -8.938 0.125 -13.25 4.375 c -3.875 3.813 -4.438 5 -4.438 9.875 c 0 7.06 3.563 10.375 11.188 10.375 c 4.438 0 5.625 -0.625 10.875 -5.875 m 5.25 -27.12 c 5.188 -0.313 10.5 -4.375 14.813 -4.5 c 3.063 0.063 5.063 -2.25 7.625 -2.938 c 4.688 -1.188 6.438 -2.938 4.813 -4.875 c -1.813 -2.188 -7.938 -2.063 -8.75 0.125 c -4.25 3 -18.06 3.688 -20.19 5.875 c -0.813 1 -2.75 1.75 -4.25 1.75 c -3.688 0 -5 3.375 -2.125 5.5 c 2.125 1.563 5.875 1.125 8 -0.938 m -22.19 -2.813 c 3.688 -1.313 7.125 -2.813 9.563 -5.313 c 4.438 -4.375 1.688 -9.188 -3.625 -10.938 c -1.875 -0.563 -5 -1.688 -6.938 -2.563 c -3.25 -1.438 -3 -1.563 5.25 -1.625 c 4.813 -0.063 9.813 -0.375 11.125 -0.75 c 3.375 -0.938 7.188 -8.25 5.563 -10.875 c -1.688 -2.813 -10.813 -7.06 -15.188 -7.125 c -6.875 -0.125 -17.75 6.375 -17.75 10.563 c 0 1.125 1.25 3.875 3.5 5.063 l 7.625 3.813 c 3.063 1.5 -10.563 2.688 -14.06 2.75 c -5.625 2.25 -9.06 8.875 -4.875 12.188 c 3.563 2.688 11.938 6.438 14.75 6.563 c 1.875 -0.375 3.625 -1 5.063 -1.75 m 27.313 -43.25 c 2.938 -2.938 3 -3.25 1.313 -6.313 c -2.063 -3.75 -9.625 -8.25 -14 -8.375 c -5.438 -0.188 -16.188 6.5 -16.188 10 c 0 2.188 7 7.188 11.06 7.875 c 7.813 1.25 14.625 0.063 17.813 -3.188" transform="scale(0.0625)" fill="#fff" stroke="#fff" stroke-width="0.089"/></svg>