<svg xmlns="http://www.w3.org/2000/svg" viewBox="0 0 16 16"><path d="m 12.238 1.648 c -8.184 -5.754 -16.473 4.871 -9.805 11.648 c 6.281 6.387 16.04 0.469 12.988 -7.48 c -0.633 -1.656 -1.68 -3.113 -3.184 -4.168" fill="#22c866"/><path d="m 8.219 12.578 c -0.098 -0.098 -0.094 -0.332 0.004 -0.406 c 0.086 -0.066 5.05 -2.145 5.129 -2.145 c 0.059 0 0.055 0.449 -0.004 0.543 c -0.055 0.086 -4.805 2.082 -4.957 2.082 c -0.051 0 -0.129 -0.031 -0.172 -0.074 m -0.063 -1.336 l 0.02 -0.285 l 1.875 -0.781 c 1.031 -0.43 2.207 -0.918 2.609 -1.086 l 0.734 -0.305 v 0.332 c 0 0.297 -0.016 0.34 -0.141 0.371 c -0.074 0.02 -1.219 0.484 -2.539 1.039 c -1.32 0.551 -2.441 1 -2.488 1 c -0.066 0 -0.082 -0.074 -0.07 -0.285 m -2.594 -1.957 c -1.426 -0.598 -2.531 -1.094 -2.578 -1.164 c -0.094 -0.125 -0.121 -0.441 -0.039 -0.492 c 0.043 -0.027 4.93 1.984 5.121 2.105 c 0.086 0.055 0.113 0.609 0.031 0.602 c -0.023 -0.004 -1.168 -0.477 -2.535 -1.051 m -0.137 -1.254 l -2.5 -1.047 l -0.02 -0.234 c -0.012 -0.133 0.008 -0.266 0.039 -0.297 c 0.059 -0.059 4.727 1.836 5.059 2.051 c 0.184 0.117 0.211 0.59 0.031 0.582 c -0.059 -0.004 -1.234 -0.477 -2.609 -1.055 m 0.781 -3.992 c 0 -0.313 0.023 -0.582 0.051 -0.598 c 0.066 -0.039 1.699 0.469 1.699 0.531 c 0 0.023 -0.355 0.164 -0.797 0.309 c -0.438 0.145 -0.832 0.277 -0.875 0.293 c -0.059 0.023 -0.078 -0.109 -0.078 -0.535" fill="#5c5553"/><g fill="#ede7aa" stroke="#ede7aa" stroke-width="0.154" transform="scale(0.0625)"><path d="m 130.44 172.25 c -0.125 -1 -0.25 -4.938 -0.25 -8.813 l -0.063 -7.06 l -6.563 -3.25 c -3.625 -1.75 -19.75 -8.625 -35.875 -15.25 c -42.625 -17.625 -43.31 -18 -41.44 -22.938 c 0.75 -1.875 3.938 -0.75 45.06 16.188 c 18.375 7.563 34.688 13.875 36.13 13.938 c 2.25 0.188 2.75 -0.313 3 -2.563 c 0.75 -6.125 0.25 -6.438 -35.625 -21.12 c -48.5 -19.938 -48.938 -20.12 -48.938 -24.5 c 0 -4.625 1.563 -5.313 54.875 -23.375 c 13.813 -4.625 25.75 -8.438 26.5 -8.438 c 1.063 0 1.375 2.75 1.375 13.438 c 0 7.438 0.313 15.688 0.625 18.313 c 0.875 5.938 -1.188 5 42.688 20.19 c 44.06 15.25 40.44 13.563 40.44 19 v 4.5 l -16.375 6.813 c -29.875 12.438 -64.5 26.688 -64.938 26.688 c -0.25 0 -0.5 -0.75 -0.625 -1.75"/><path d="m 130.06 192.13 c -1.438 -2.375 0.625 -5.75 4.813 -7.938 c 2.375 -1.188 20.688 -8.938 40.688 -17.188 c 34.375 -14.12 36.31 -14.813 36.875 -12.813 c 1.375 5 0.5 5.5 -40.44 22.5 c -21.875 9.06 -40.06 16.5 -40.5 16.5 c -0.438 0 -1.063 -0.5 -1.438 -1.063"/></g></svg>