<svg xmlns="http://www.w3.org/2000/svg" viewBox="0 0 16 16"><path d="m 0.234 9.664 c 1.238 8.242 13.574 8.488 15.438 0.477 c 1.922 -6.488 -5.03 -11.789 -10.227 -9.664 c -3.48 1 -6.289 5.113 -5.211 9.188" fill="#f4f4f4"/><g fill="#141414"><g stroke="#141414"><path d="m 42.13 97.69 h 166.69 v 8.813 h -166.69" transform="scale(0.0625)" stroke-width="0.859"/><path d="m 55.19 -98.87 h 151.5 v 8.813 h -151.5" transform="matrix(0 0.0625 -0.0625 0 0 0)" stroke-width="0.821"/></g><path d="m 127.62 108.36 c 0 15.262 -13.806 27.601 -30.829 27.601 c -17.02 0 -30.829 -12.339 -30.829 -27.601 c 0 -15.208 13.806 -27.601 30.829 -27.601 c 17.02 0 30.829 12.393 30.829 27.601" transform="matrix(0.06677 0 0 0.07218 -0.549 -1.454)" stroke="#fff"/><g stroke="#141414"><path d="m 42.13 156.44 h 166.13 v 8.813 h -166.12" transform="scale(0.0625)" stroke-width="0.858"/><path d="m 55.688 -161.44 h 151.56 v 8.813 h -151.56" transform="matrix(0 0.0625 -0.0625 0 0 0)" stroke-width="0.821"/></g></g><path d="m 127.6 108.36 c 0.058 15.262 -13.747 27.601 -30.771 27.601 c -17.08 0 -30.829 -12.339 -30.829 -27.601 c 0 -15.208 13.747 -27.601 30.829 -27.601 c 17.02 0 30.829 12.393 30.771 27.601" transform="matrix(0.06677 0 0 0.07218 3.304 2.331)" fill="#fff" stroke="#141414"/></svg>