<svg xmlns="http://www.w3.org/2000/svg" viewBox="0 0 16 16"><path d="m 14.738 4.203 c 8.379 20.344 -26.859 10.785 -9.75 -2.5 c 3.07 -2.313 8.227 -2.492 9.75 2.5" fill="#466075"/><g fill="#4aabec"><path d="m 4.258 11.625 h 8.449 c 0.031 0 0.059 0.031 0.059 0.07 v 0.496 c 0 0.039 -0.027 0.07 -0.059 0.07 h -8.449 c -0.031 0 -0.059 -0.031 -0.059 -0.07 v -0.496 c 0 -0.039 0.027 -0.07 0.059 -0.07"/><path d="m 10.527 9.129 v 2.41 c 0 0.031 -0.031 0.059 -0.07 0.059 h -0.582 c -0.039 0 -0.07 -0.027 -0.07 -0.059 v -2.41 c 0 -0.031 0.031 -0.059 0.07 -0.059 h 0.582 c 0.039 0 0.07 0.027 0.07 0.059"/><path d="m 6.891 10.867 v 0.801 c 0 0.031 -0.031 0.059 -0.07 0.059 h -0.492 c -0.039 0 -0.07 -0.027 -0.07 -0.059 v -0.801 c 0 -0.031 0.031 -0.059 0.07 -0.059 h 0.492 c 0.039 0 0.07 0.027 0.07 0.059"/></g><path d="m 5.695 10.93 c -0.324 -0.012 -0.613 -0.027 -0.645 -0.039 c -0.063 -0.023 -0.07 -0.078 -0.023 -0.176 c 0.047 -0.086 0.094 -0.102 0.414 -0.129 c 0.148 -0.012 0.305 -0.035 0.348 -0.055 c 0.082 -0.035 0.141 -0.133 0.141 -0.25 c 0 -0.055 -0.008 -0.066 -0.063 -0.066 c -0.031 0 -0.449 -0.008 -0.926 -0.02 l -0.867 -0.02 c -0.074 -0.086 -0.152 -0.168 -0.23 -0.254 l 0.008 -1.695 c 0.008 -1.855 0.012 -1.867 0.129 -1.953 c 0.086 -0.063 0.371 -0.074 2.094 -0.094 l 1.352 -0.016 v -0.059 c 0.004 -0.273 0.047 -1.188 0.063 -1.262 c 0.02 -0.105 0.07 -0.184 0.164 -0.25 c 0.059 -0.047 0.074 -0.047 2.395 -0.051 c 1.496 -0.004 2.402 0 2.52 0.016 c 0.195 0.023 0.262 0.055 0.32 0.145 c 0.035 0.055 0.039 0.18 0.047 1.824 l 0.004 1.766 l -0.117 0.113 c -0.242 0.242 -0.699 0.129 -1.023 0.133 c -0.5 0.012 -0.914 0.023 -0.914 0.023 c -0.004 0 -0.008 0.035 -0.008 0.082 c 0 0.203 0.098 0.258 0.492 0.289 c 0.313 0.023 0.367 0.047 0.418 0.184 c 0.027 0.066 0.027 0.082 0 0.098 c -0.035 0.023 -0.266 0.039 -0.816 0.059 c -0.254 0.008 -0.461 0.02 -0.461 0.031 c 0 0.012 -0.137 0.02 -0.305 0.02 c -0.188 0 -0.305 -0.008 -0.305 -0.023 c 0 -0.012 -0.102 -0.02 -0.258 -0.02 c -0.305 0 -0.273 -0.031 -0.297 0.309 c -0.02 0.355 -0.066 0.457 -0.246 0.555 c -0.07 0.035 -0.152 0.039 -0.914 0.051 c -0.922 0.012 -0.934 0.012 -0.934 0.141 c 0 0.168 0.145 0.234 0.543 0.262 c 0.258 0.016 0.289 0.027 0.352 0.125 c 0.066 0.117 0.055 0.164 -0.051 0.18 c -0.152 0.027 -1.77 0.043 -2.398 0.027 m 3.77 -2.086 c 0.059 -0.031 0.098 -0.172 0.066 -0.234 c -0.031 -0.059 -0.121 -0.063 -0.152 -0.004 c -0.023 0.047 -0.031 0.223 -0.008 0.246 c 0.02 0.02 0.047 0.02 0.094 -0.008" fill="#adc2c7"/><path d="m 5.598 12.363 c -0.082 -0.09 -0.094 -0.715 -0.012 -0.793 c 0.047 -0.047 0.184 -0.055 1 -0.051 c 0.691 0 0.961 0.012 0.992 0.039 c 0.027 0.027 0.043 0.168 0.043 0.406 c 0 0.32 -0.008 0.371 -0.07 0.414 c -0.055 0.039 -0.25 0.047 -0.984 0.047 c -0.832 0 -0.922 -0.004 -0.973 -0.063 m 3.613 -0.008 c -0.059 -0.055 -0.07 -0.113 -0.07 -0.359 c 0 -0.473 -0.023 -0.453 0.57 -0.477 c 0.281 -0.012 0.723 -0.012 0.988 0 c 0.57 0.023 0.559 0.016 0.547 0.473 c -0.008 0.465 0.063 0.434 -1.043 0.434 c -0.871 0 -0.926 -0.004 -0.992 -0.07 m -4.957 -2.551 c -0.07 -0.066 -0.074 -0.113 -0.074 -1.613 c 0 -1.457 0.004 -1.551 0.066 -1.605 c 0.059 -0.051 0.273 -0.055 2.348 -0.055 c 1.727 0 2.293 0.008 2.324 0.039 c 0.031 0.031 0.043 0.441 0.043 1.637 c 0 1.543 0 1.598 -0.07 1.633 c -0.043 0.023 -0.836 0.035 -2.316 0.035 c -2.203 0 -2.25 -0.004 -2.32 -0.07 m 5.105 -1.625 c -0.027 -0.031 -0.043 -0.273 -0.043 -0.867 c 0 -0.676 -0.008 -0.84 -0.055 -0.926 c -0.09 -0.172 -0.227 -0.203 -0.871 -0.203 h -0.57 v -0.613 c 0 -0.43 0.012 -0.625 0.043 -0.656 c 0.031 -0.031 0.598 -0.039 2.332 -0.039 c 2.172 0 2.289 0.004 2.348 0.063 c 0.051 0.055 0.059 0.219 0.059 1.602 c 0 1.496 -0.004 1.543 -0.074 1.609 c -0.066 0.07 -0.117 0.07 -1.598 0.07 c -1.141 0 -1.535 -0.012 -1.57 -0.039" fill="#708696"/></svg>