<svg xmlns="http://www.w3.org/2000/svg" viewBox="0 0 16 16"><path d="m 14.332 3.734 c 5.277 5.953 -3.047 15.11 -10.02 11.41 c -7.05 -3.746 -5.168 -16.14 3.484 -15.08 c 2.574 0.313 4.809 1.73 6.531 3.672" fill="#a8caec"/><path d="m 3.293 12.1 c -0.5 -0.422 -0.793 -1.113 -0.984 -2.328 c -0.277 -1.762 -0.125 -3.84 0.371 -5.03 c 0.258 -0.617 0.941 -1.273 1.328 -1.273 c 0.344 0 0.969 0.285 1.215 0.555 c 0.285 0.313 0.371 0.613 0.289 1.02 c -0.086 0.434 -0.336 0.441 -0.672 0.023 c -0.203 -0.254 -0.32 -0.316 -0.633 -0.336 c -0.344 -0.023 -0.406 0.004 -0.629 0.289 c -0.793 1.023 -0.793 4.914 -0.004 5.934 c 0.199 0.258 0.301 0.313 0.582 0.313 c 0.664 0 0.703 -0.078 0.672 -1.328 l -0.031 -1.117 l -0.309 -0.043 c -0.289 -0.039 -0.313 -0.07 -0.344 -0.441 c -0.043 -0.52 0.09 -0.637 0.711 -0.637 c 0.727 0 0.824 0.113 0.824 0.965 v 0.707 l 0.305 -0.055 c 0.168 -0.027 0.387 -0.016 0.484 0.027 c 0.121 0.051 0.246 0.047 0.375 -0.016 c 0.164 -0.082 0.234 -0.055 0.449 0.152 l 0.258 0.25 l 0.191 -0.188 c 0.242 -0.23 0.539 -0.238 0.781 -0.02 c 0.188 0.164 0.188 0.164 0.426 -0.043 c 0.332 -0.285 0.652 -0.27 0.801 0.043 c 0.137 0.289 0.238 0.316 0.328 0.082 c 0.039 -0.09 0.16 -0.207 0.273 -0.254 c 0.117 -0.051 0.258 -0.199 0.316 -0.336 c 0.145 -0.328 0.379 -0.277 0.551 0.121 c 0.176 0.406 0.164 0.402 0.563 0.281 c 0.313 -0.094 0.355 -0.086 0.496 0.086 c 0.199 0.238 0.277 0.234 0.422 -0.023 c 0.168 -0.289 0.613 -0.285 0.703 0.008 c 0.051 0.152 0.008 0.262 -0.152 0.398 c -0.195 0.164 -0.219 0.285 -0.219 1.066 c 0 0.93 -0.078 1.094 -0.414 0.852 c -0.18 -0.129 -0.199 -0.129 -0.301 0.023 c -0.094 0.145 -0.199 0.16 -0.793 0.141 c -0.375 -0.016 -0.707 -0.047 -0.738 -0.07 c -0.031 -0.023 -0.051 -0.438 -0.039 -0.918 c 0.008 -0.484 -0.027 -0.875 -0.078 -0.875 c -0.051 0 -0.117 0.344 -0.148 0.766 c -0.063 0.875 -0.129 1.059 -0.387 1.059 c -0.359 0 -0.438 -0.207 -0.398 -1.078 c 0.02 -0.516 -0.004 -0.82 -0.066 -0.805 c -0.16 0.043 -0.238 0.383 -0.25 1.074 c -0.008 0.512 -0.047 0.656 -0.176 0.699 c -0.234 0.07 -0.355 -0.129 -0.293 -0.473 c 0.027 -0.16 0.008 -0.402 -0.047 -0.539 c -0.086 -0.215 -0.102 -0.172 -0.109 0.297 c -0.008 0.457 -0.047 0.574 -0.246 0.727 c -0.289 0.215 -0.457 0.227 -0.711 0.043 c -0.145 -0.105 -0.219 -0.113 -0.332 -0.039 c -0.25 0.164 -0.32 -0.047 -0.32 -0.945 c -0.004 -0.48 -0.047 -0.84 -0.105 -0.855 c -0.16 -0.039 -0.238 0.293 -0.25 1.078 c -0.004 0.398 -0.051 0.742 -0.102 0.766 c -0.207 0.102 -0.316 -0.211 -0.344 -0.973 c -0.043 -1.109 -0.227 -1.07 -0.289 0.063 c -0.035 0.582 -0.094 0.914 -0.172 0.938 c -0.066 0.016 -0.152 -0.047 -0.188 -0.141 c -0.098 -0.242 -0.195 -0.211 -0.516 0.156 c -0.293 0.34 -0.695 0.504 -1.227 0.504 c -0.23 0 -0.418 -0.09 -0.699 -0.324 m 8.168 -1.418 c -0.004 -0.852 -0.102 -1.078 -0.309 -0.711 c -0.09 0.156 -0.086 0.266 0.012 0.453 c 0.098 0.195 0.098 0.316 0.004 0.547 c -0.098 0.23 -0.094 0.324 0.004 0.422 c 0.242 0.23 0.289 0.113 0.289 -0.711 m -3.246 0 c 0 -0.523 -0.027 -0.625 -0.18 -0.648 c -0.16 -0.023 -0.184 0.051 -0.184 0.648 c 0 0.598 0.023 0.672 0.184 0.648 c 0.152 -0.023 0.18 -0.125 0.18 -0.648 m 4.02 -0.055 c 0.066 -0.582 0.047 -0.66 -0.129 -0.57 c -0.207 0.102 -0.344 0.652 -0.23 0.895 c 0.176 0.367 0.289 0.266 0.359 -0.324 m -2.141 -1.742 c -0.039 -0.031 -0.07 -0.141 -0.07 -0.246 c 0 -0.246 0.371 -0.27 0.465 -0.031 c 0.105 0.262 -0.176 0.457 -0.395 0.277 m 0.055 -0.988 c -0.219 -0.121 -0.227 -0.18 -0.227 -1.535 c 0 -0.816 0.043 -1.48 0.105 -1.57 c 0.199 -0.301 1.352 -0.152 1.773 0.227 c 0.281 0.246 0.531 1.082 0.465 1.531 c -0.082 0.578 -0.41 1.113 -0.758 1.254 c -0.484 0.199 -1.102 0.242 -1.359 0.094 m 1.082 -0.645 c 0.242 -0.168 0.289 -0.273 0.324 -0.738 c 0.055 -0.68 -0.113 -1.121 -0.473 -1.23 c -0.504 -0.152 -0.539 -0.078 -0.539 1.027 c 0 0.566 0.031 1.051 0.066 1.082 c 0.129 0.102 0.332 0.055 0.621 -0.141 m -5.195 0.508 c -0.031 -0.102 -0.043 -0.816 -0.027 -1.59 c 0.023 -1.223 0.051 -1.41 0.207 -1.488 c 0.293 -0.148 0.59 0.164 0.668 0.699 c 0.035 0.246 0.109 0.496 0.164 0.555 c 0.211 0.211 0.363 0.102 0.41 -0.293 c 0.086 -0.727 0.563 -1.219 0.863 -0.895 c 0.223 0.242 0.219 2.965 -0.004 3.113 c -0.293 0.195 -0.469 -0.043 -0.469 -0.625 c 0 -0.289 -0.047 -0.547 -0.102 -0.574 c -0.059 -0.031 -0.105 0.027 -0.105 0.125 c 0 0.262 -0.188 0.496 -0.402 0.496 c -0.27 0 -0.406 -0.16 -0.488 -0.582 c -0.066 -0.32 -0.082 -0.34 -0.16 -0.168 c -0.051 0.105 -0.063 0.363 -0.027 0.574 c 0.07 0.434 -0.082 0.84 -0.313 0.84 c -0.086 0 -0.184 -0.086 -0.215 -0.188 m 2.91 0.055 c -0.031 -0.07 -0.063 -0.777 -0.063 -1.566 c 0 -1.48 0.063 -1.711 0.418 -1.535 c 0.121 0.059 0.16 0.355 0.184 1.484 c 0.035 1.414 -0.031 1.75 -0.336 1.75 c -0.074 0 -0.168 -0.059 -0.203 -0.133 m 3.676 0.016 c -0.082 -0.078 -0.109 -0.57 -0.09 -1.594 c 0.027 -1.375 0.043 -1.484 0.223 -1.512 c 0.109 -0.016 0.234 0.02 0.285 0.082 c 0.141 0.184 0.113 2.922 -0.035 3.039 c -0.16 0.129 -0.234 0.125 -0.383 -0.016" fill="#c14c59"/></svg>