<svg xmlns="http://www.w3.org/2000/svg" viewBox="0 0 16 16" xmlns:xlink="http://www.w3.org/1999/xlink"><defs><path id="T" d="m 11.895 8.34 c 0.574 0.469 0.379 1.336 -0.191 1.738 c -0.438 0.41 -1.063 0.641 -1.699 0.617 c -0.293 0.02 -0.82 -0.063 -0.957 0.176 c 0.637 0.273 1.34 0.563 2.066 0.48 c 0.898 -0.156 1.852 -0.477 2.398 -1.168 c 0.453 -0.652 0.457 -1.5 0.156 -2.203 c -0.309 -0.586 -0.867 -1.047 -1.531 -1.301 c -0.586 -0.25 -1.129 -0.578 -1.547 -1.031 c -0.332 -0.332 -0.691 -0.695 -1.215 -0.766 c -0.559 -0.113 -1.148 0.047 -1.563 0.391 c -0.016 0.008 -0.078 0.047 -0.094 0.055"/><path id="U" d="m 6.152 5.652 h 3.336 v 0.969 h -3.336"/><linearGradient id="A" gradientUnits="userSpaceOnUse" x1="23.339" y1="13.365" x2="28.847" y2="17.66" gradientTransform="matrix(0.19864 0 0 0.56601 75.69 66.63)"><stop stop-color="#fff" stop-opacity="0.749"/><stop offset="1" stop-color="#fff" stop-opacity="0"/></linearGradient><linearGradient id="S" gradientUnits="userSpaceOnUse" x1="139.29" y1="134.8" x2="135.95" y2="137.95" gradientTransform="matrix(0.3222 0 0 0.34896 -103.18 248.48)" xlink:href="#B"/><linearGradient id="C" gradientUnits="userSpaceOnUse" x1="31.06" y1="37.32" x2="35.802" y2="36.918" gradientTransform="matrix(0.21835 0 0 0.51493 75.69 66.63)" xlink:href="#6"/><linearGradient id="D" gradientUnits="userSpaceOnUse" x1="18.368" y1="22.09" x2="25.475" y2="26.2" gradientTransform="matrix(0.22592 0 0 0.49766 75.69 66.63)" xlink:href="#8"/><linearGradient id="J" gradientUnits="userSpaceOnUse" x1="71.47" y1="33.452" x2="36.39" y2="22.576" gradientTransform="matrix(0.29814 0 0 0.37712 75.69 66.63)" xlink:href="#0"/><linearGradient id="M" gradientUnits="userSpaceOnUse" x1="-0.152" y1="0.331" x2="5.236" y2="7.092" gradientTransform="matrix(0.0647 0 0 0.06037 17.05 15.196)" xlink:href="#B"/><linearGradient id="R" gradientUnits="userSpaceOnUse" x1="138.45" y1="135.62" x2="136.04" y2="137.84" gradientTransform="matrix(0.32196 0 0 0.34922 -57.666 228.87)" xlink:href="#B"/><linearGradient id="N" gradientUnits="userSpaceOnUse" x1="35.688" y1="28.98" x2="41.485" y2="22.966" gradientTransform="matrix(0.05905 0 0 0.06615 17.05 15.196)" xlink:href="#B"/><linearGradient id="O" gradientUnits="userSpaceOnUse" x1="-0.152" y1="0.331" x2="6.841" y2="3.586" gradientTransform="matrix(0.0647 0 0 0.06037 17.05 15.196)" xlink:href="#B"/><linearGradient id="E" gradientUnits="userSpaceOnUse" x1="15.261" y1="45.91" x2="16.768" y2="51.06" gradientTransform="matrix(0.47838 0 0 0.23503 75.69 66.63)" xlink:href="#A"/><linearGradient id="5" gradientUnits="userSpaceOnUse" x1="25.862" y1="42.547" x2="25.443" y2="44.515" gradientTransform="matrix(0.05769 0 0 0.06771 17.05 15.196)"><stop stop-color="#2f2f2f" stop-opacity="0.749"/><stop offset="1" stop-color="#2f2f2f" stop-opacity="0"/></linearGradient><linearGradient id="9" gradientUnits="userSpaceOnUse" x1="10.972" y1="30.985" x2="12.291" y2="32.529" gradientTransform="matrix(0.06721 0 0 0.05812 17.05 15.196)" xlink:href="#0"/><linearGradient id="0" gradientUnits="userSpaceOnUse" x1="69.27" y1="37.946" x2="39.04" y2="26.945" gradientTransform="matrix(0.05335 0 0 0.07321 17.05 15.196)"><stop stop-color="#000"/><stop offset="1" stop-color="#ba7733"/></linearGradient><linearGradient id="1" gradientUnits="userSpaceOnUse" x1="20.981" y1="64.1" x2="17.13" y2="61.98" gradientTransform="matrix(0.46647 0 0 0.24103 75.69 66.63)"><stop stop-color="#fff" stop-opacity="0.122"/><stop offset="1" stop-color="#fff" stop-opacity="0"/></linearGradient><linearGradient id="4" gradientUnits="userSpaceOnUse" x1="19.614" y1="41.668" x2="19.972" y2="43.598" gradientTransform="matrix(0.38351 0 0 0.29317 75.69 66.63)"><stop stop-color="#000" stop-opacity="0.749"/><stop offset="1" stop-color="#000" stop-opacity="0"/></linearGradient><linearGradient id="8" gradientUnits="userSpaceOnUse" x1="7.923" y1="23.07" x2="12.685" y2="26.423" gradientTransform="matrix(0.28927 0 0 0.38868 75.69 66.63)"><stop stop-color="#fff"/><stop offset="1" stop-color="#ba7733"/></linearGradient><linearGradient id="7" gradientUnits="userSpaceOnUse" x1="39.742" y1="38.624" x2="42.44" y2="41.949" gradientTransform="matrix(0.23594 0 0 0.47653 75.69 66.63)"><stop stop-color="#202020" stop-opacity="0"/><stop offset="1" stop-color="#202020" stop-opacity="0.749"/></linearGradient><linearGradient id="6" gradientUnits="userSpaceOnUse" x1="26.22" y1="41.67" x2="29.611" y2="39.32" gradientTransform="matrix(0.24281 0 0 0.46305 75.69 66.63)"><stop stop-color="#fff" stop-opacity="0.749"/><stop offset="1" stop-color="#ba7733" stop-opacity="0.749"/></linearGradient><radialGradient id="B" gradientUnits="userSpaceOnUse" cx="47.592" cy="30.352" fx="47.854" fy="30.576" r="11.526" gradientTransform="matrix(0.05706 0 0 0.06846 17.05 15.196)"><stop stop-color="#fff"/><stop offset="1" stop-color="#fff" stop-opacity="0"/></radialGradient><radialGradient id="P" gradientUnits="userSpaceOnUse" cx="12.584" cy="10.69" fx="10.535" fy="12.968" r="8.64" gradientTransform="matrix(0.34166 0 0 0.32908 75.69 66.63)" xlink:href="#B"/><radialGradient id="Q" gradientUnits="userSpaceOnUse" cx="16.723" cy="27.07" r="4.821" gradientTransform="matrix(0.10897 0 0 0.03585 17.05 15.196)" xlink:href="#5"/><radialGradient id="2" gradientUnits="userSpaceOnUse" cx="16.649" cy="53.24" fx="15.778" fy="53.56" r="6.803" gradientTransform="matrix(0.08166 0 0 0.04784 17.05 15.196)"><stop stop-color="#2f2f2f"/><stop offset="1" stop-color="#2f2f2f" stop-opacity="0"/></radialGradient><radialGradient id="3" gradientUnits="userSpaceOnUse" cx="19.592" cy="42.564" fx="19.636" r="6.503" gradientTransform="matrix(0.34778 0 0 0.32329 75.69 66.63)" xlink:href="#2"/><radialGradient id="G" gradientUnits="userSpaceOnUse" cx="16.723" cy="25.953" r="4.821" gradientTransform="matrix(0.10897 0 0 0.03585 17.05 15.196)" xlink:href="#5"/><radialGradient id="F" gradientUnits="userSpaceOnUse" cx="34.516" cy="-0.514" fx="34.25" fy="-0.067" r="11.526" gradientTransform="matrix(0.05706 0 0 0.06846 17.05 15.196)" xlink:href="#B"/><radialGradient id="H" gradientUnits="userSpaceOnUse" cx="35.04" cy="2.17" fx="35.824" fy="2.394" r="7.849" gradientTransform="matrix(0.05706 0 0 0.06846 17.05 15.196)" xlink:href="#B"/><radialGradient id="K" gradientUnits="userSpaceOnUse" cx="10.861" cy="13.697" fy="13.868" r="7.618" gradientTransform="matrix(0.06793 0 0 0.05751 17.05 15.196)" xlink:href="#B"/><radialGradient id="L" gradientUnits="userSpaceOnUse" cx="17.288" cy="9.25" fy="9.592" r="6.864" gradientTransform="matrix(0.06793 0 0 0.05751 17.05 15.196)" xlink:href="#B"/><radialGradient id="I" gradientUnits="userSpaceOnUse" cx="42.17" cy="30.06" fy="30.29" r="11.989" gradientTransform="matrix(0.28803 0 0 0.39035 75.69 66.63)" xlink:href="#B"/></defs><path d="m 12.703 1.563 c -12.03 -8 -19.438 17.504 -3.891 14.13 c 6.43 -1.441 10.328 -10.461 3.891 -14.13" fill="#f4deb2"/><g fill-rule="evenodd"><path d="m 5.316 10.949 c 0.113 0.047 0.113 0.168 0.086 0.262 c -0.223 0.305 0.074 0.566 0.438 0.469 c 0.359 -0.094 0.723 -0.074 0.422 0.328 c -0.297 0.406 -0.148 0.855 0.328 0.938 c 0.465 0.242 0.492 0.723 0.336 1.035 c 0.391 -0.18 0.613 -0.648 0.512 -1.047 c 0.293 0.145 0.207 0.367 0.125 0.559 c -0.211 0.238 0.191 0.121 0.258 -0.129 c 0.164 -0.238 -0.047 -0.363 0.234 -0.555 c 0.391 -0.227 0.594 -0.578 0.254 -0.813 c 0.371 0.477 0.441 -0.555 1.211 -0.93 c 0.508 0.195 1.191 -1.414 1.055 -2.445 c 0.453 -0.648 -0.676 -3.668 -1.199 -3.738 c -0.141 -0.027 -0.281 -0.039 -0.422 -0.035 c -0.418 0.012 -0.828 0.168 -1.195 0.434 c -0.738 -0.324 -1.563 -0.07 -2.152 0.301 c -0.523 0.313 -0.957 0.832 -1.633 0.867 c -0.473 -0.016 -0.813 -0.457 -0.824 -0.848 c -0.074 -0.566 0.371 -1.207 0.988 -1.375 c 0.563 -0.156 1.18 -0.172 1.75 -0.227 c 0.438 -0.039 -0.438 -0.359 -0.684 -0.387 c -0.16 -0.02 -0.316 -0.027 -0.473 -0.027 c -0.465 0.008 -0.898 0.113 -1.355 0.316 c -0.68 0.297 -0.883 0.57 -1.117 1.152 c -0.219 0.539 -0.223 1.215 0.047 1.75 c 0.305 0.578 0.98 0.988 1.703 0.969 c 0.063 0 0.254 -0.004 0.313 -0.008 l 0.02 -0.012 c -0.078 0.16 -0.156 0.324 -0.227 0.48 c -0.113 0.242 -0.746 0.645 -0.141 0.641 c 0.492 -0.074 1.027 -0.117 1.422 -0.422 c 0.113 -0.078 0.027 0.129 0.051 0.363 c 0.012 0.043 0.031 0.078 0.059 0.109 c 0.023 0.035 -0.098 0.246 -0.352 0.164 c -0.223 -0.172 -0.516 0.047 -0.508 0.273 c -0.043 0.297 0.18 0.559 0.43 0.727 c 0.07 0.055 0.145 0.105 0.219 0.152 c 0.004 0.043 0.023 0.082 0.035 0.125 h -0.008 c -0.047 0.168 -0.59 0.262 -0.293 0.43 c 0.293 0.172 0.566 0.176 0.723 0.164" fill="url(#0)"/><path d="m 7.703 5.289 c -0.684 -0.332 -1.508 -0.078 -2.102 0.293 c -0.52 0.313 -0.957 0.832 -1.629 0.867 c -0.473 -0.016 -0.813 -0.457 -0.824 -0.848 c -0.074 -0.566 0.371 -1.207 0.988 -1.375 c 0.563 -0.156 1.18 -0.172 1.75 -0.227 c 0.438 -0.039 -0.438 -0.359 -0.684 -0.387 c -0.645 -0.078 -1.223 0.02 -1.832 0.289 c -0.676 0.301 -0.883 0.57 -1.117 1.152 c -0.215 0.539 -0.219 1.215 0.051 1.75 c 0.301 0.578 0.98 0.988 1.703 0.969 c 0.059 0 0.254 0 0.313 -0.008" fill="#2f2f2f"/><path d="m 31.701 36.06 c -0.748 1.138 -2.618 7.518 -7.07 7.429 c -2.028 -0.112 -3.799 -1.606 -5.906 -1.071 c -0.787 0.089 -2.165 0.067 -3.662 -0.915 c -1.476 -0.959 1.26 -1.517 1.496 -2.454" transform="matrix(0.19843 0 0 0.17509 2.034 3.529)" fill="url(#1)" stroke="#000" stroke-linejoin="round" stroke-linecap="round" stroke-width="0.634"/><path d="m 8.324 9.844 c 0.426 -0.359 1.949 0.156 -0.324 1.914 c -0.602 0.465 -1.98 -0.125 -2.16 -0.078 c -0.363 0.098 -0.66 -0.164 -0.438 -0.473 c 0.199 -0.168 -0.672 -0.578 -0.379 -0.41 c 0.297 0.172 0.57 0.176 0.727 0.16 c 0.422 -0.094 0.77 0.168 1.172 0.188 c 0.887 0.012 1.254 -1.102 1.402 -1.301" fill="url(#2)"/></g><g stroke-linecap="round" transform="matrix(0.19843 0 0 0.17509 2.034 3.529)"><g fill="none"><g stroke-linejoin="bevel" stroke-width="2.536"><path d="m 24.338 35.706 c 0.866 2.119 -0.236 4.529 -1.555 5.488 c -1.575 1.249 -3.977 1.049 -5.335 -0.513 c -0.571 -0.625 -0.945 -1.45 -1.043 -2.343" stroke="#000"/><path d="m 25.48 36.38 c 0.886 2.119 -0.236 4.529 -1.536 5.488 c -1.595 1.249 -3.996 1.049 -5.355 -0.491 c -0.571 -0.647 -0.945 -1.472 -1.024 -2.365" stroke="url(#3)"/></g><g stroke-linejoin="round"><path d="m 24.18 35.24 c 1.102 2.9 -0.079 4.997 -1.398 5.957 c -1.575 1.249 -3.977 1.049 -5.335 -0.513 c -0.571 -0.625 -0.945 -1.45 -1.043 -2.343" stroke="#f8e519" stroke-width="1.268"/><path d="m 24.653 34.747 c 1.654 4.105 -0.709 7.808 -4.469 7.719" stroke="#baba00" stroke-width="0.476"/></g></g><path d="m 25.736 34.948 c 0.532 -0.803 -0.689 -1.696 -1.26 -0.892 c -0.61 0.446 -1.083 1.049 -1.673 1.539" fill="url(#4)" fill-rule="evenodd" stroke="#000" stroke-linejoin="round" stroke-width="0.634"/></g><path d="m 6.504 12.43 c 0.148 0.375 0.84 -0.277 0.676 -0.461 c -0.277 -0.207 -0.574 -0.219 -0.656 -0.328 c -0.359 0.098 -0.109 0.559 -0.02 0.789" fill="url(#5)" fill-rule="evenodd"/><g stroke="#000" stroke-linejoin="round" stroke-linecap="round" stroke-width="0.634" transform="matrix(0.19843 0 0 0.17509 2.034 3.529)"><path d="m 25.932 48.2 c -1.614 -2.075 -4.449 -1.696 -6.752 -1.651 c -1.831 0.558 -3.327 -0.937 -2.205 -2.699 c 0.118 -0.513 0.138 -1.205 -0.433 -1.472" fill="none"/><g fill-rule="evenodd"><path d="m 21.306 48.42 c -1.496 2.32 -0.748 4.886 1.654 5.354 c 2.343 1.383 2.5 4.15 1.693 5.912 c 1.969 -1.026 3.091 -3.703 1.673 -5.644 c -0.059 -0.089 -0.118 -0.178 -0.177 -0.268" fill="url(#6)"/><path d="m 31.641 48.36 c 1.693 1.339 0.669 3.324 -1.299 4.64 c -1.417 1.071 -0.354 1.807 -1.181 3.168 c -0.335 1.406 -2.362 2.097 -1.299 0.736 c 0.413 -1.093 0.847 -2.365 0.276 -3.503" fill="url(#7)"/></g><path d="m 42.725 31.981 c 0.847 3.146 -0.551 6.448 -2.697 8.879 c -2.205 2.499 -6.122 4.551 -6.615 8.08" fill="none"/></g><g fill-rule="evenodd"><g fill="#2f2f2f"><use xlink:href="#T"/><path d="m 6.395 5.281 h 2.652 v 1.027 h -2.652"/></g><path d="m 20.46 16.185 c -2.244 0.982 -5.177 0.58 -6.418 3.123 c -1.457 2.298 -2.54 5.04 -3.583 7.563 c -0.551 1.383 -3.74 3.681 -0.689 3.659 c 2.48 -0.424 5.177 -0.669 7.146 -2.409 c 0.61 -0.446 1.083 -1.026 1.634 -1.539" transform="matrix(0.19843 0 0 0.17509 2.034 3.529)" fill="url(#8)" stroke="#000" stroke-linejoin="round" stroke-linecap="round" stroke-width="0.634"/><path d="m 3.922 8.828 c 0.727 -0.566 1.465 -0.172 1.844 -1.426 c -0.023 -0.008 0.23 0.59 -0.055 0.781 c -0.105 0.09 -0.199 0.191 -0.32 0.27 c -0.395 0.305 -0.93 0.348 -1.422 0.422" fill="url(#9)"/><path d="m 22.881 15.538 c -2.126 -0.022 -3.681 1.606 -4.37 3.503 c -0.827 1.986 1.28 3.659 0.768 5.644 c -0.335 1.986 -2.264 3.436 -2.087 5.511 c 0.039 0.245 0.157 0.446 0.276 0.625" transform="matrix(0.19843 0 0 0.17509 2.034 3.529)" fill="url(#A)" stroke="#000" stroke-linejoin="round" stroke-linecap="round" stroke-width="0.634"/><use fill="url(#B)" xlink:href="#T"/><g stroke="#000"><path d="m 24.08 49.07 c 0.236 1.138 -1.378 1.718 -1.024 2.856 c 0.532 1.361 2.323 1.852 2.599 3.346" transform="matrix(0.19843 0 0 0.17509 2.034 3.529)" fill="url(#C)" stroke-linejoin="round" stroke-linecap="round" stroke-width="0.634"/><g stroke-width="1.25"><path d="m 142.21 134.83 c 0 1.485 -1.289 2.664 -2.852 2.664 c -1.563 0 -2.813 -1.179 -2.813 -2.664 c 0 -1.485 1.25 -2.708 2.813 -2.708 c 1.563 0 2.852 1.223 2.852 2.708" transform="matrix(-0.09998 0 0 0.08943 22.16 -4.305)"/><path d="m 142.18 134.82 c 0 1.472 -1.264 2.709 -2.803 2.709 c -1.594 0 -2.858 -1.236 -2.858 -2.709 c 0 -1.472 1.264 -2.65 2.858 -2.65 c 1.539 0 2.803 1.178 2.803 2.65" transform="matrix(-0.07106 0 0 0.06634 15.913 -1.217)"/></g></g><g fill="#fff"><path d="m 8.02 7.695 c 0 0.051 0.047 0.09 0.102 0.09 c 0.055 0 0.102 -0.039 0.102 -0.09 c 0 -0.051 -0.047 -0.09 -0.102 -0.09 c -0.055 0 -0.102 0.039 -0.102 0.09"/><path d="m 5.855 7.664 c 0 0.035 0.031 0.066 0.074 0.066 c 0.039 0 0.074 -0.031 0.074 -0.066 c 0 -0.035 -0.035 -0.066 -0.074 -0.066 c -0.043 0 -0.074 0.031 -0.074 0.066"/></g></g><g stroke-linejoin="round" stroke-linecap="round" transform="matrix(0.19843 0 0 0.17509 2.034 3.529)"><path d="m 16.11 37.714 c -0.236 0.669 -0.157 1.16 0.059 1.562" fill="none" stroke="#fff" stroke-width="0.476"/><g fill-rule="evenodd" stroke="#000" stroke-width="0.634"><path d="m 22.17 21.07 c 0.453 1.294 0.354 2.744 -0.689 3.726 c -1.24 1.517 -1.969 3.369 -2.894 5.087 c -0.433 1.138 -1.595 2.343 -2.894 1.874 c -1.102 -1 -2.579 0.268 -2.54 1.562 c -0.236 1.696 0.906 3.19 2.165 4.15 c 1.221 1.071 2.618 1.963 4.213 2.298" fill="url(#D)"/><path d="m 28.866 34.502 c 0.984 -2.276 -1.142 -4.529 -3.425 -4.217 c -1.969 0.178 -3.13 2.075 -4.862 2.811 c -0.689 0.424 -1.358 0.848 -2.106 1.115" fill="url(#E)"/></g><g fill="none"><path d="m 24.1 37.07 c 0 1.785 -0.551 3.101 -1.713 3.882 c -1.043 0.714 -2.48 0.803 -3.839 -0.022" stroke="#fff" stroke-width="0.476"/><path d="m 9.514 30.26 c 3.662 -3.235 7.382 -0.982 9.292 -8.143" stroke="#000" stroke-width="0.634"/></g></g><g fill-rule="evenodd"><use fill="url(#F)" xlink:href="#T"/><use fill="url(#G)" xlink:href="#U"/><use fill="url(#H)" xlink:href="#T"/><g fill-opacity="0.184"><path d="m 11.941 9.926 c 0.219 0.051 -0.027 -0.066 0.359 0.168 c 0.289 0.168 0.434 0.094 0.273 -0.188 c -0.395 -0.543 -0.84 -0.039 -0.633 0.02"/><path d="m 10.48 9.06 c 0.32 0.355 0.023 0.004 0.07 0.418 c -0.723 -0.461 -1.047 -1.258 -1.027 -1.887"/></g><g stroke="#000" stroke-linejoin="round" stroke-linecap="round" stroke-width="0.634"><path d="m 49.694 27.474 c 2.894 2.677 1.91 7.63 -0.965 9.928 c -2.205 2.343 -5.355 3.659 -8.563 3.525 c -1.476 0.112 -4.134 -0.357 -4.823 1 c 3.209 1.562 6.752 3.213 10.414 2.744 c 4.528 -0.892 9.331 -2.722 12.09 -6.671 c 2.284 -3.726 2.303 -8.567 0.787 -12.583 c -1.555 -3.346 -4.37 -5.979 -7.717 -7.429 c -2.953 -1.428 -5.689 -3.302 -7.796 -5.89 c -1.673 -1.896 -3.484 -3.971 -6.122 -4.373 c -2.815 -0.647 -5.788 0.268 -7.874 2.231 c -0.079 0.045 -0.394 0.268 -0.472 0.312" transform="matrix(0.19843 0 0 0.17509 2.034 3.529)" fill="url(#I)"/><path d="m 34.772 15.895 c 4.685 -0.937 9.725 1.316 12.363 5.332 c 1.614 2.01 2.047 4.663 2.323 7.161 c 0.157 1.472 0.906 2.744 1.398 4.06 c 0.453 1.182 2.106 1.829 1.89 3.257 c -1.24 0.558 -2.165 -0.781 -3.189 -1.182 c -2.677 -1.071 -5.65 -1.651 -7.973 -3.48 c -2.874 -2.276 -3.937 -6.158 -3.839 -9.727" transform="matrix(0.19843 0 0 0.17509 2.034 3.529)" fill="url(#J)"/></g><path d="m 7.703 5.402 c -0.684 -0.332 -1.508 -0.078 -2.102 0.293 c -0.52 0.309 -0.957 0.828 -1.629 0.863 c -0.473 -0.012 -0.813 -0.453 -0.824 -0.844 c -0.074 -0.566 0.371 -1.211 0.988 -1.379 c 0.563 -0.152 1.18 -0.172 1.75 -0.223 c 0.438 -0.043 -0.438 -0.359 -0.684 -0.391 c -0.645 -0.078 -1.223 0.023 -1.832 0.293 c -0.676 0.297 -0.883 0.57 -1.117 1.152 c -0.215 0.539 -0.219 1.211 0.051 1.746 c 0.301 0.582 0.98 0.988 1.703 0.969 c 0.059 0 0.254 0 0.313 -0.004" fill="url(#K)"/><path d="m 7.703 5.402 c -0.684 -0.332 -1.508 -0.078 -2.102 0.293 c -0.52 0.309 -0.957 0.828 -1.629 0.863 c -0.473 -0.012 -0.813 -0.453 -0.824 -0.844 c -0.074 -0.566 0.371 -1.211 0.988 -1.379 c 0.563 -0.152 1.18 -0.172 1.75 -0.223 c 0.438 -0.043 -0.438 -0.359 -0.684 -0.391 c -0.645 -0.078 -1.223 0.023 -1.832 0.293 c -0.676 0.297 -0.883 0.57 -1.117 1.152 c -0.215 0.539 -0.219 1.211 0.051 1.746 c 0.301 0.582 0.98 0.988 1.703 0.969 c 0.059 0 0.254 0 0.313 -0.004" fill="url(#L)"/><path d="m 3.148 5.602 c -0.074 -0.566 0.371 -1.211 0.988 -1.379 c 0.563 -0.152 1.18 -0.168 1.75 -0.223 c 0.438 -0.039 -0.438 -0.359 -0.684 -0.391 c -0.645 -0.078 -1.223 0.023 -1.832 0.293 c -0.676 0.297 -0.883 0.57 -1.117 1.152 c -0.215 0.539 -0.219 1.215 0.051 1.75" fill="url(#M)"/><path d="m 8.934 6.313 c 0.93 -0.164 1.93 0.23 2.453 0.934 c 0.32 0.352 0.406 0.816 0.461 1.254 c 0.031 0.258 0.18 0.48 0.277 0.711 c 0.09 0.207 0.418 0.32 0.375 0.57 c -0.246 0.098 -0.43 -0.137 -0.633 -0.207 c -0.531 -0.188 -1.121 -0.289 -1.582 -0.609 c -0.57 -0.398 -0.781 -1.078 -0.762 -1.703" fill="url(#N)"/><path d="m 3.148 5.602 c -0.074 -0.566 0.371 -1.211 0.988 -1.379 c 0.563 -0.152 1.18 -0.168 1.75 -0.223 c 0.438 -0.039 -0.438 -0.359 -0.684 -0.391 c -0.645 -0.078 -1.223 0.023 -1.832 0.293 c -0.676 0.297 -0.883 0.57 -1.117 1.152 c -0.215 0.539 -0.219 1.215 0.051 1.75" fill="url(#O)"/><path d="m 28.57 10.05 c -3.445 -1.896 -7.599 -0.446 -10.591 1.673 c -2.618 1.785 -4.823 4.752 -8.209 4.953 c -2.382 -0.089 -4.095 -2.61 -4.154 -4.841 c -0.374 -3.235 1.87 -6.894 4.981 -7.853 c 2.835 -0.892 5.945 -0.982 8.819 -1.294 c 2.205 -0.223 -2.205 -2.053 -3.445 -2.209 c -3.248 -0.446 -6.162 0.112 -9.233 1.651 c -3.406 1.718 -4.449 3.257 -5.63 6.581 c -1.083 3.079 -1.102 6.938 0.256 9.995 c 1.516 3.302 4.941 5.644 8.583 5.533 c 0.295 0 1.28 0 1.575 -0.045" transform="matrix(0.19843 0 0 0.17509 2.034 3.529)" fill="url(#P)" stroke="#000" stroke-linejoin="round" stroke-linecap="round" stroke-width="0.634"/><g fill="url(#G)"><use xlink:href="#U"/><use xlink:href="#U"/><use xlink:href="#U"/></g><path d="m 6.152 5.762 h 3.336 v 0.969 h -3.336" fill="url(#Q)"/></g><g fill="none"><path d="m 142.19 134.84 c 0 1.489 -1.277 2.668 -2.831 2.668 c -1.554 0 -2.831 -1.179 -2.831 -2.668 c 0 -1.489 1.277 -2.73 2.831 -2.73 c 1.554 0 2.831 1.241 2.831 2.73" transform="matrix(-0.07038 0 0 0.06296 18.04 -0.736)" stroke="url(#R)" stroke-width="0.938"/><path d="m 142.18 134.85 c 0 1.481 -1.261 2.679 -2.838 2.679 c -1.514 0 -2.775 -1.199 -2.775 -2.679 c 0 -1.481 1.261 -2.679 2.775 -2.679 c 1.577 0 2.838 1.199 2.838 2.679" transform="matrix(-0.06194 0 0 0.05541 14.63 0.263)" stroke="url(#S)" stroke-width="0.723"/><g stroke="#000" stroke-linejoin="round" stroke-linecap="round" transform="matrix(0.19843 0 0 0.17509 2.034 3.529)"><path d="m 33.866 23.771 c -1.122 -0.759 -1.831 -0.982 -3.209 -1.026 c -0.472 0.022 -1.083 -0.112 -1.437 0.29" stroke-width="0.634"/><path d="m 21.542 23.391 c -0.807 -0.469 -1.496 -0.602 -2.421 -0.491 c -0.276 0.223 -0.177 -0.022 -0.433 0.201" stroke-width="0.476"/></g></g></svg>