<svg xmlns="http://www.w3.org/2000/svg" viewBox="0 0 16 16"><path d="m 0.324 9.715 c 0.984 6.461 9.719 8.191 13.574 3.578 c 3.395 -3.426 2.551 -9.984 -1.613 -12.234 c -4.785 -3.01 -11.754 0.711 -12.133 6.699 c -0.039 0.656 0.016 1.32 0.172 1.957" fill="#fbacb1"/><path d="m 6.246 3.172 h 3.77 c 0.82 0 1.484 0.719 1.484 1.605 v 6.879 c 0 0.887 -0.664 1.605 -1.484 1.605 h -3.77 c -0.82 0 -1.484 -0.719 -1.484 -1.605 v -6.879 c 0 -0.887 0.664 -1.605 1.484 -1.605" fill="#ff2d30" fill-opacity="0.961"/><g fill="#ff8586" fill-opacity="0.996"><path d="m 10.746 4.488 c 0 0.309 -0.258 0.555 -0.582 0.555 c -0.32 0 -0.582 -0.246 -0.582 -0.555 c 0 -0.305 0.262 -0.551 0.582 -0.551 c 0.324 0 0.582 0.246 0.582 0.551"/><path d="m 6.531 4.438 c 0 0.305 -0.246 0.551 -0.555 0.551 c -0.305 0 -0.555 -0.246 -0.555 -0.551 c 0 -0.309 0.25 -0.555 0.555 -0.555 c 0.309 0 0.555 0.246 0.555 0.555"/><path d="m 6.516 12.07 c 0 0.305 -0.254 0.551 -0.566 0.551 c -0.316 0 -0.57 -0.246 -0.57 -0.551 c 0 -0.309 0.254 -0.555 0.57 -0.555 c 0.313 0 0.566 0.246 0.566 0.555"/><path d="m 10.695 12.13 c 0 0.305 -0.254 0.551 -0.566 0.551 c -0.316 0 -0.57 -0.246 -0.57 -0.551 c 0 -0.309 0.254 -0.555 0.57 -0.555 c 0.313 0 0.566 0.246 0.566 0.555"/></g><g fill-opacity="0.925"><path d="m 10.91 8.172 c 0 1.52 -1.246 2.75 -2.785 2.75 c -1.535 0 -2.781 -1.23 -2.781 -2.75 c 0 -1.52 1.246 -2.754 2.781 -2.754 c 1.539 0 2.785 1.234 2.785 2.754" fill="#fff"/><path d="m 7.73 10.07 c -0.555 -0.082 -0.871 -0.469 -1.098 -0.688 c -0.5 -0.555 -0.641 -1.203 -0.418 -1.746 c 0.219 -0.527 0.359 -0.938 1.02 -1.273 c 0.434 -0.223 0.652 -0.223 1.086 -0.223 c 0.418 0 0.563 0.02 0.711 0.148 c 0.113 0.102 0.906 0.223 0.434 0.762 c -0.098 0.113 -0.492 0.109 -0.863 -0.105 c -0.301 -0.176 -0.496 -0.094 -0.754 0.031 c -0.148 0.074 -0.355 0.242 -0.461 0.371 c -0.508 0.629 -0.543 0.938 -0.156 1.5 c 0.305 0.445 0.59 0.637 0.945 0.637 c 0.371 0 0.465 -0.156 0.371 -0.602 c -0.07 -0.328 -0.066 -0.344 0.105 -0.492 c 0.207 -0.184 0.535 -0.207 0.801 -0.051 c 0.504 0.289 0.34 1.023 -0.328 1.473 c -0.32 0.215 -1.109 0.363 -1.395 0.258" fill="#2f282f"/></g></svg>