<svg xmlns="http://www.w3.org/2000/svg" xmlns:xlink="http://www.w3.org/1999/xlink" viewBox="0 0 16 16"><defs><g id="6" clip-path="url(#5)"><path d="m 10.598 8.344 c -1.316 0 -2.387 0.719 -2.387 1.605 c 0 0.883 1.07 1.602 2.387 1.602 c 1.32 0 2.391 -0.719 2.391 -1.602 c 0 -0.887 -1.07 -1.605 -2.391 -1.605 m -0.211 0.227 c 0.066 -0.004 0.141 0 0.211 0 c 1.137 0 2.055 0.613 2.055 1.379 c 0 0.762 -0.918 1.375 -2.055 1.375 c -1.133 0 -2.051 -0.613 -2.051 -1.375 c 0 -0.719 0.801 -1.309 1.84 -1.379" fill="url(#4)"/></g><g id="C" clip-path="url(#B)"><path d="m 10.598 7.656 c -1.316 0 -2.387 0.719 -2.387 1.602 c 0 0.887 1.07 1.605 2.387 1.605 c 1.32 0 2.391 -0.719 2.391 -1.605 c 0 -0.883 -1.07 -1.602 -2.391 -1.602 m -0.211 0.227 c 0.066 -0.004 0.141 0 0.211 0 c 1.137 0 2.055 0.613 2.055 1.375 c 0 0.766 -0.918 1.379 -2.055 1.379 c -1.133 0 -2.051 -0.613 -2.051 -1.379 c 0 -0.715 0.801 -1.305 1.84 -1.375" fill="url(#A)"/></g><g id="I" clip-path="url(#H)"><path d="m 10.598 6.969 c -1.316 0 -2.387 0.719 -2.387 1.602 c 0 0.887 1.07 1.605 2.387 1.605 c 1.32 0 2.391 -0.719 2.391 -1.605 c 0 -0.883 -1.07 -1.602 -2.391 -1.602 m -0.211 0.227 c 0.066 -0.004 0.141 0 0.211 0 c 1.137 0 2.055 0.613 2.055 1.375 c 0 0.766 -0.918 1.379 -2.055 1.379 c -1.133 0 -2.051 -0.613 -2.051 -1.379 c 0 -0.715 0.801 -1.305 1.84 -1.375" fill="url(#G)"/></g><g id="O" clip-path="url(#N)"><path d="m 5.824 8.113 c -1.32 0 -2.391 0.719 -2.391 1.605 c 0 0.887 1.07 1.605 2.391 1.605 c 1.316 0 2.387 -0.719 2.387 -1.605 c 0 -0.887 -1.07 -1.605 -2.387 -1.605 m -0.215 0.23 c 0.066 -0.004 0.141 0 0.215 0 c 1.133 0 2.051 0.613 2.051 1.375 c 0 0.762 -0.918 1.375 -2.051 1.375 c -1.137 0 -2.055 -0.613 -2.055 -1.375 c 0 -0.715 0.801 -1.305 1.84 -1.375" fill="url(#M)"/></g><g id="U" clip-path="url(#T)"><path d="m 5.824 7.426 c -1.32 0 -2.391 0.719 -2.391 1.605 c 0 0.887 1.07 1.605 2.391 1.605 c 1.316 0 2.387 -0.719 2.387 -1.605 c 0 -0.887 -1.07 -1.605 -2.387 -1.605 m -0.215 0.23 c 0.066 -0.004 0.141 0 0.215 0 c 1.133 0 2.051 0.613 2.051 1.375 c 0 0.762 -0.918 1.375 -2.051 1.375 c -1.137 0 -2.055 -0.613 -2.055 -1.375 c 0 -0.715 0.801 -1.305 1.84 -1.375" fill="url(#S)"/></g><g id="a" clip-path="url(#Z)"><path d="m 5.824 6.738 c -1.32 0 -2.391 0.719 -2.391 1.605 c 0 0.887 1.07 1.605 2.391 1.605 c 1.316 0 2.387 -0.719 2.387 -1.605 c 0 -0.887 -1.07 -1.605 -2.387 -1.605 m -0.215 0.23 c 0.066 -0.004 0.141 0 0.215 0 c 1.133 0 2.051 0.609 2.051 1.375 c 0 0.762 -0.918 1.375 -2.051 1.375 c -1.137 0 -2.055 -0.613 -2.055 -1.375 c 0 -0.715 0.801 -1.305 1.84 -1.375" fill="url(#Y)"/></g><g id="g" clip-path="url(#f)"><path d="m 5.824 6.05 c -1.32 0 -2.391 0.719 -2.391 1.605 c 0 0.887 1.07 1.602 2.391 1.602 c 1.316 0 2.387 -0.715 2.387 -1.602 c 0 -0.887 -1.07 -1.605 -2.387 -1.605 m -0.215 0.23 c 0.066 -0.004 0.141 0 0.215 0 c 1.133 0 2.051 0.609 2.051 1.375 c 0 0.762 -0.918 1.375 -2.051 1.375 c -1.137 0 -2.055 -0.613 -2.055 -1.375 c 0 -0.715 0.801 -1.305 1.84 -1.375" fill="url(#e)"/></g><g id="m" clip-path="url(#l)"><path d="m 5.824 5.363 c -1.32 0 -2.391 0.719 -2.391 1.605 c 0 0.887 1.07 1.602 2.391 1.602 c 1.316 0 2.387 -0.715 2.387 -1.602 c 0 -0.887 -1.07 -1.605 -2.387 -1.605 m -0.215 0.23 c 0.066 -0.004 0.141 0 0.215 0 c 1.133 0 2.051 0.609 2.051 1.375 c 0 0.762 -0.918 1.375 -2.051 1.375 c -1.137 0 -2.055 -0.613 -2.055 -1.375 c 0 -0.715 0.801 -1.305 1.84 -1.375" fill="url(#k)"/></g><g id="s" clip-path="url(#r)"><path d="m 5.824 4.676 c -1.32 0 -2.391 0.719 -2.391 1.605 c 0 0.887 1.07 1.602 2.391 1.602 c 1.316 0 2.387 -0.715 2.387 -1.602 c 0 -0.887 -1.07 -1.605 -2.387 -1.605 m -0.215 0.23 c 0.066 -0.004 0.141 0 0.215 0 c 1.133 0 2.051 0.609 2.051 1.375 c 0 0.762 -0.918 1.375 -2.051 1.375 c -1.137 0 -2.055 -0.613 -2.055 -1.375 c 0 -0.715 0.801 -1.305 1.84 -1.375" fill="url(#q)"/></g><g id="y" clip-path="url(#x)"><path d="m 5.824 3.988 c -1.32 0 -2.391 0.719 -2.391 1.605 c 0 0.887 1.07 1.602 2.391 1.602 c 1.316 0 2.387 -0.715 2.387 -1.602 c 0 -0.887 -1.07 -1.605 -2.387 -1.605 m -0.215 0.23 c 0.066 -0.004 0.141 0 0.215 0 c 1.133 0 2.051 0.609 2.051 1.375 c 0 0.762 -0.918 1.375 -2.051 1.375 c -1.137 0 -2.055 -0.613 -2.055 -1.375 c 0 -0.715 0.801 -1.305 1.84 -1.375" fill="url(#w)"/></g><clipPath id="H"><path d="M 0,0 H16 V16 H0 z"/></clipPath><clipPath id="N"><path d="M 0,0 H16 V16 H0 z"/></clipPath><clipPath id="B"><path d="M 0,0 H16 V16 H0 z"/></clipPath><clipPath id="Z"><path d="M 0,0 H16 V16 H0 z"/></clipPath><clipPath id="l"><path d="M 0,0 H16 V16 H0 z"/></clipPath><clipPath id="r"><path d="M 0,0 H16 V16 H0 z"/></clipPath><clipPath id="f"><path d="M 0,0 H16 V16 H0 z"/></clipPath><clipPath id="T"><path d="M 0,0 H16 V16 H0 z"/></clipPath><clipPath id="5"><path d="M 0,0 H16 V16 H0 z"/></clipPath><clipPath id="x"><path d="M 0,0 H16 V16 H0 z"/></clipPath><filter id="2" filterUnits="objectBoundingBox" x="0" y="0" width="16" height="16"><feColorMatrix type="matrix" in="SourceGraphic" values="0 0 0 0 1 0 0 0 0 1 0 0 0 0 1 0 0 0 1 0"/></filter><linearGradient id="S" gradientUnits="userSpaceOnUse" y1="78" x2="0" y2="60" gradientTransform="matrix(0.29855 0 0 0.22919 -13.285 -7.242)" xlink:href="#4"/><linearGradient id="q" gradientUnits="userSpaceOnUse" y1="78" x2="0" y2="60" gradientTransform="matrix(0.29855 0 0 0.22919 -13.285 -9.992)" xlink:href="#4"/><linearGradient id="e" gradientUnits="userSpaceOnUse" y1="78" x2="0" y2="60" gradientTransform="matrix(0.29855 0 0 0.22919 -13.285 -8.617)" xlink:href="#4"/><linearGradient id="0" gradientUnits="userSpaceOnUse" x1="56" x2="72" gradientTransform="matrix(0.29855 0 0 0.22919 -8.508 -6.325)"><stop stop-color="#d5b742"/><stop offset="0.188" stop-color="#f4e5aa"/><stop offset="0.375" stop-color="#dfbf54"/><stop offset="1" stop-color="#896e23"/></linearGradient><linearGradient id="b" gradientUnits="userSpaceOnUse" x1="56" x2="72" gradientTransform="matrix(0.29855 0 0 0.22919 -13.285 -8.617)" xlink:href="#0"/><linearGradient id="V" gradientUnits="userSpaceOnUse" x1="56" x2="72" gradientTransform="matrix(0.29855 0 0 0.22919 -13.285 -7.929)" xlink:href="#0"/><linearGradient id="h" gradientUnits="userSpaceOnUse" x1="56" x2="72" gradientTransform="matrix(0.29855 0 0 0.22919 -13.285 -9.304)" xlink:href="#0"/><linearGradient id="n" gradientUnits="userSpaceOnUse" x1="56" x2="72" gradientTransform="matrix(0.29855 0 0 0.22919 -13.285 -9.992)" xlink:href="#0"/><linearGradient id="k" gradientUnits="userSpaceOnUse" y1="78" x2="0" y2="60" gradientTransform="matrix(0.29855 0 0 0.22919 -13.285 -9.304)" xlink:href="#4"/><linearGradient id="P" gradientUnits="userSpaceOnUse" x1="56" x2="72" gradientTransform="matrix(0.29855 0 0 0.22919 -13.285 -7.242)" xlink:href="#0"/><linearGradient id="D" gradientUnits="userSpaceOnUse" x1="56" x2="72" gradientTransform="matrix(0.29855 0 0 0.22919 -8.508 -7.7)" xlink:href="#0"/><linearGradient id="4" gradientUnits="userSpaceOnUse" y1="78" x2="0" y2="60" gradientTransform="matrix(0.29855 0 0 0.22919 -8.508 -6.325)"><stop stop-color="#8e7127"/><stop offset="1" stop-color="#8e7127" stop-opacity="0"/></linearGradient><linearGradient id="7" gradientUnits="userSpaceOnUse" x1="56" x2="72" gradientTransform="matrix(0.29855 0 0 0.22919 -8.508 -7.01)" xlink:href="#0"/><linearGradient id="Y" gradientUnits="userSpaceOnUse" y1="78" x2="0" y2="60" gradientTransform="matrix(0.29855 0 0 0.22919 -13.285 -7.929)" xlink:href="#4"/><linearGradient id="A" gradientUnits="userSpaceOnUse" y1="78" x2="0" y2="60" gradientTransform="matrix(0.29855 0 0 0.22919 -8.508 -7.01)" xlink:href="#4"/><linearGradient id="w" gradientUnits="userSpaceOnUse" y1="78" x2="0" y2="60" gradientTransform="matrix(0.29855 0 0 0.22919 -13.285 -10.679)" xlink:href="#4"/><linearGradient id="t" gradientUnits="userSpaceOnUse" x1="56" x2="72" gradientTransform="matrix(0.29855 0 0 0.22919 -13.285 -10.679)" xlink:href="#0"/><linearGradient id="M" gradientUnits="userSpaceOnUse" y1="78" x2="0" y2="60" gradientTransform="matrix(0.29855 0 0 0.22919 -13.285 -6.554)" xlink:href="#4"/><linearGradient id="G" gradientUnits="userSpaceOnUse" y1="78" x2="0" y2="60" gradientTransform="matrix(0.29855 0 0 0.22919 -8.508 -7.7)" xlink:href="#4"/><linearGradient id="J" gradientUnits="userSpaceOnUse" x1="56" x2="72" gradientTransform="matrix(0.29855 0 0 0.22919 -13.285 -6.554)" xlink:href="#0"/><mask id="p"><g filter="url(#2)"><path fill-opacity="0.502" d="M 0,0 H16 V16 H0 z"/></g></mask><mask id="j"><g filter="url(#2)"><path fill-opacity="0.502" d="M 0,0 H16 V16 H0 z"/></g></mask><mask id="v"><g filter="url(#2)"><path fill-opacity="0.502" d="M 0,0 H16 V16 H0 z"/></g></mask><mask id="9"><g filter="url(#2)"><path fill-opacity="0.502" d="M 0,0 H16 V16 H0 z"/></g></mask><mask id="F"><g filter="url(#2)"><path fill-opacity="0.502" d="M 0,0 H16 V16 H0 z"/></g></mask><mask id="L"><g filter="url(#2)"><path fill-opacity="0.502" d="M 0,0 H16 V16 H0 z"/></g></mask><mask id="X"><g filter="url(#2)"><path fill-opacity="0.502" d="M 0,0 H16 V16 H0 z"/></g></mask><mask id="R"><g filter="url(#2)"><path fill-opacity="0.502" d="M 0,0 H16 V16 H0 z"/></g></mask><mask id="3"><g filter="url(#2)"><path fill-opacity="0.502" d="M 0,0 H16 V16 H0 z"/></g></mask><mask id="d"><g filter="url(#2)"><path fill-opacity="0.502" d="M 0,0 H16 V16 H0 z"/></g></mask><radialGradient id="K" gradientUnits="userSpaceOnUse" cx="64" cy="68.802" r="8" gradientTransform="matrix(0.37698 0 0 0.24268 -18.304 -7.62)" xlink:href="#1"/><radialGradient id="u" gradientUnits="userSpaceOnUse" cx="64" cy="68.802" r="8" gradientTransform="matrix(0.37698 0 0 0.24268 -18.304 -11.746)" xlink:href="#1"/><radialGradient id="E" gradientUnits="userSpaceOnUse" cx="64" cy="68.802" r="8" gradientTransform="matrix(0.37698 0 0 0.24268 -13.528 -8.766)" xlink:href="#1"/><radialGradient id="8" gradientUnits="userSpaceOnUse" cx="64" cy="68.802" r="8" gradientTransform="matrix(0.37698 0 0 0.24268 -13.528 -8.08)" xlink:href="#1"/><radialGradient id="i" gradientUnits="userSpaceOnUse" cx="64" cy="68.802" r="8" gradientTransform="matrix(0.37698 0 0 0.24268 -18.304 -10.371)" xlink:href="#1"/><radialGradient id="1" gradientUnits="userSpaceOnUse" cx="64" cy="68.802" r="8" gradientTransform="matrix(0.37698 0 0 0.24268 -13.528 -7.391)"><stop stop-color="#f8edc2"/><stop offset="0.7" stop-color="#efd57a"/><stop offset="1" stop-color="#dcb73f"/></radialGradient><radialGradient id="Q" gradientUnits="userSpaceOnUse" cx="64" cy="68.802" r="8" gradientTransform="matrix(0.37698 0 0 0.24268 -18.304 -8.308)" xlink:href="#1"/><radialGradient id="W" gradientUnits="userSpaceOnUse" cx="64" cy="68.802" r="8" gradientTransform="matrix(0.37698 0 0 0.24268 -18.304 -8.995)" xlink:href="#1"/><radialGradient id="c" gradientUnits="userSpaceOnUse" cx="64" cy="68.802" r="8" gradientTransform="matrix(0.37698 0 0 0.24268 -18.304 -9.683)" xlink:href="#1"/><radialGradient id="o" gradientUnits="userSpaceOnUse" cx="64" cy="68.802" r="8" gradientTransform="matrix(0.37698 0 0 0.24268 -18.304 -11.06)" xlink:href="#1"/></defs><path d="m 11.891 14.676 c -20.59 8.477 -10.914 -27.18 2.531 -9.867 c 2.34 3.105 2.52 8.324 -2.531 9.867" fill="#5d7249"/><path d="m 10.598 8.801 c -1.082 0 -1.992 0.484 -2.285 1.148 h -0.102 v 0.457 c 0 0.887 1.07 1.605 2.387 1.605 c 1.32 0 2.391 -0.719 2.391 -1.605 v -0.457 h -0.102 c -0.293 -0.664 -1.203 -1.148 -2.289 -1.148" fill="url(#0)"/><path d="m 12.988 9.949 c 0 0.883 -1.07 1.602 -2.391 1.602 c -1.316 0 -2.387 -0.719 -2.387 -1.602 c 0 -0.887 1.07 -1.605 2.387 -1.605 c 1.32 0 2.391 0.719 2.391 1.605" fill="url(#1)"/><use xlink:href="#6" mask="url(#3)"/><path d="m 8.535 9.863 c 0 0.027 -0.008 0.055 -0.008 0.086 c 0 0.77 0.926 1.387 2.07 1.387 c 1.148 0 2.074 -0.617 2.074 -1.387 c 0 -0.031 -0.008 -0.059 -0.012 -0.086 c -0.105 0.703 -0.988 1.246 -2.063 1.246 c -1.074 0 -1.953 -0.543 -2.063 -1.246" fill="#fdfdfd" fill-opacity="0.4"/><path d="m 10.598 8.113 c -1.082 0 -1.992 0.484 -2.285 1.145 h -0.102 v 0.461 c 0 0.887 1.07 1.605 2.387 1.605 c 1.32 0 2.391 -0.719 2.391 -1.605 v -0.461 h -0.102 c -0.293 -0.66 -1.203 -1.145 -2.289 -1.145" fill="url(#7)"/><path d="m 12.988 9.258 c 0 0.887 -1.07 1.605 -2.391 1.605 c -1.316 0 -2.387 -0.719 -2.387 -1.605 c 0 -0.883 1.07 -1.602 2.387 -1.602 c 1.32 0 2.391 0.719 2.391 1.602" fill="url(#8)"/><use xlink:href="#C" mask="url(#9)"/><path d="m 8.535 9.176 c 0 0.027 -0.008 0.055 -0.008 0.086 c 0 0.77 0.926 1.387 2.07 1.387 c 1.148 0 2.074 -0.617 2.074 -1.387 c 0 -0.031 -0.008 -0.059 -0.012 -0.086 c -0.105 0.703 -0.988 1.246 -2.063 1.246 c -1.074 0 -1.953 -0.543 -2.063 -1.246" fill="#fdfdfd" fill-opacity="0.4"/><path d="m 10.598 7.426 c -1.082 0 -1.992 0.484 -2.285 1.145 h -0.102 v 0.461 c 0 0.887 1.07 1.605 2.387 1.605 c 1.32 0 2.391 -0.719 2.391 -1.605 v -0.461 h -0.102 c -0.293 -0.66 -1.203 -1.145 -2.289 -1.145" fill="url(#D)"/><path d="m 12.988 8.57 c 0 0.887 -1.07 1.605 -2.391 1.605 c -1.316 0 -2.387 -0.719 -2.387 -1.605 c 0 -0.883 1.07 -1.602 2.387 -1.602 c 1.32 0 2.391 0.719 2.391 1.602" fill="url(#E)"/><use xlink:href="#I" mask="url(#F)"/><path d="m 8.535 8.488 c 0 0.027 -0.008 0.055 -0.008 0.086 c 0 0.77 0.926 1.387 2.07 1.387 c 1.148 0 2.074 -0.617 2.074 -1.387 c 0 -0.031 -0.008 -0.059 -0.012 -0.086 c -0.105 0.703 -0.988 1.246 -2.063 1.246 c -1.074 0 -1.953 -0.543 -2.063 -1.246" fill="#fdfdfd" fill-opacity="0.4"/><path d="m 5.824 8.57 c -1.086 0 -1.996 0.484 -2.289 1.148 h -0.102 v 0.457 c 0 0.887 1.07 1.605 2.391 1.605 c 1.316 0 2.387 -0.719 2.387 -1.605 v -0.457 h -0.102 c -0.293 -0.664 -1.203 -1.148 -2.285 -1.148" fill="url(#J)"/><path d="m 8.211 9.719 c 0 0.887 -1.07 1.605 -2.387 1.605 c -1.32 0 -2.391 -0.719 -2.391 -1.605 c 0 -0.887 1.07 -1.605 2.391 -1.605 c 1.316 0 2.387 0.719 2.387 1.605" fill="url(#K)"/><use xlink:href="#O" mask="url(#L)"/><path d="m 3.758 9.633 c 0 0.027 -0.008 0.059 -0.008 0.086 c 0 0.77 0.926 1.391 2.07 1.391 c 1.148 0 2.074 -0.621 2.074 -1.391 c 0 -0.027 -0.008 -0.059 -0.012 -0.086 c -0.105 0.703 -0.984 1.246 -2.063 1.246 c -1.074 0 -1.953 -0.543 -2.059 -1.246" fill="#fdfdfd" fill-opacity="0.4"/><path d="m 5.824 7.883 c -1.086 0 -1.996 0.484 -2.289 1.148 h -0.102 v 0.457 c 0 0.887 1.07 1.605 2.391 1.605 c 1.316 0 2.387 -0.719 2.387 -1.605 v -0.457 h -0.102 c -0.293 -0.664 -1.203 -1.148 -2.285 -1.148" fill="url(#P)"/><path d="m 8.211 9.03 c 0 0.887 -1.07 1.605 -2.387 1.605 c -1.32 0 -2.391 -0.719 -2.391 -1.605 c 0 -0.887 1.07 -1.605 2.391 -1.605 c 1.316 0 2.387 0.719 2.387 1.605" fill="url(#Q)"/><use xlink:href="#U" mask="url(#R)"/><path d="m 3.758 8.945 c 0 0.027 -0.008 0.059 -0.008 0.086 c 0 0.77 0.926 1.391 2.07 1.391 c 1.148 0 2.074 -0.621 2.074 -1.391 c 0 -0.027 -0.008 -0.059 -0.012 -0.086 c -0.105 0.703 -0.984 1.246 -2.063 1.246 c -1.074 0 -1.953 -0.543 -2.059 -1.246" fill="#fdfdfd" fill-opacity="0.4"/><path d="m 5.824 7.195 c -1.086 0 -1.996 0.484 -2.289 1.148 h -0.102 v 0.457 c 0 0.887 1.07 1.605 2.391 1.605 c 1.316 0 2.387 -0.719 2.387 -1.605 v -0.457 h -0.102 c -0.293 -0.664 -1.203 -1.148 -2.285 -1.148" fill="url(#V)"/><path d="m 8.211 8.344 c 0 0.887 -1.07 1.605 -2.387 1.605 c -1.32 0 -2.391 -0.719 -2.391 -1.605 c 0 -0.887 1.07 -1.605 2.391 -1.605 c 1.316 0 2.387 0.719 2.387 1.605" fill="url(#W)"/><use xlink:href="#a" mask="url(#X)"/><path d="m 3.758 8.258 c 0 0.027 -0.008 0.059 -0.008 0.086 c 0 0.77 0.926 1.391 2.07 1.391 c 1.148 0 2.074 -0.621 2.074 -1.391 c 0 -0.027 -0.008 -0.059 -0.012 -0.086 c -0.105 0.703 -0.984 1.246 -2.063 1.246 c -1.074 0 -1.953 -0.543 -2.059 -1.246" fill="#fdfdfd" fill-opacity="0.4"/><path d="m 5.824 6.508 c -1.086 0 -1.996 0.484 -2.289 1.148 h -0.102 v 0.457 c 0 0.887 1.07 1.605 2.391 1.605 c 1.316 0 2.387 -0.719 2.387 -1.605 v -0.457 h -0.102 c -0.293 -0.664 -1.203 -1.148 -2.285 -1.148" fill="url(#b)"/><path d="m 8.211 7.656 c 0 0.887 -1.07 1.602 -2.387 1.602 c -1.32 0 -2.391 -0.715 -2.391 -1.602 c 0 -0.887 1.07 -1.605 2.391 -1.605 c 1.316 0 2.387 0.719 2.387 1.605" fill="url(#c)"/><use xlink:href="#g" mask="url(#d)"/><path d="m 3.758 7.57 c 0 0.027 -0.008 0.059 -0.008 0.086 c 0 0.77 0.926 1.391 2.07 1.391 c 1.148 0 2.074 -0.621 2.074 -1.391 c 0 -0.027 -0.008 -0.059 -0.012 -0.086 c -0.105 0.703 -0.984 1.246 -2.063 1.246 c -1.074 0 -1.953 -0.543 -2.059 -1.246" fill="#fdfdfd" fill-opacity="0.4"/><path d="m 5.824 5.82 c -1.086 0 -1.996 0.484 -2.289 1.148 h -0.102 v 0.457 c 0 0.887 1.07 1.605 2.391 1.605 c 1.316 0 2.387 -0.719 2.387 -1.605 v -0.457 h -0.102 c -0.293 -0.664 -1.203 -1.148 -2.285 -1.148" fill="url(#h)"/><path d="m 8.211 6.969 c 0 0.887 -1.07 1.602 -2.387 1.602 c -1.32 0 -2.391 -0.715 -2.391 -1.602 c 0 -0.887 1.07 -1.605 2.391 -1.605 c 1.316 0 2.387 0.719 2.387 1.605" fill="url(#i)"/><use xlink:href="#m" mask="url(#j)"/><path d="m 3.758 6.883 c 0 0.027 -0.008 0.059 -0.008 0.086 c 0 0.77 0.926 1.391 2.07 1.391 c 1.148 0 2.074 -0.621 2.074 -1.391 c 0 -0.027 -0.008 -0.059 -0.012 -0.086 c -0.105 0.703 -0.984 1.246 -2.063 1.246 c -1.074 0 -1.953 -0.543 -2.059 -1.246" fill="#fdfdfd" fill-opacity="0.4"/><path d="m 5.824 5.133 c -1.086 0 -1.996 0.484 -2.289 1.148 h -0.102 v 0.457 c 0 0.887 1.07 1.605 2.391 1.605 c 1.316 0 2.387 -0.719 2.387 -1.605 v -0.457 h -0.102 c -0.293 -0.664 -1.203 -1.148 -2.285 -1.148" fill="url(#n)"/><path d="m 8.211 6.281 c 0 0.887 -1.07 1.602 -2.387 1.602 c -1.32 0 -2.391 -0.715 -2.391 -1.602 c 0 -0.887 1.07 -1.605 2.391 -1.605 c 1.316 0 2.387 0.719 2.387 1.605" fill="url(#o)"/><use xlink:href="#s" mask="url(#p)"/><path d="m 3.758 6.195 c 0 0.027 -0.008 0.059 -0.008 0.086 c 0 0.77 0.926 1.391 2.07 1.391 c 1.148 0 2.074 -0.621 2.074 -1.391 c 0 -0.027 -0.008 -0.059 -0.012 -0.086 c -0.105 0.703 -0.984 1.246 -2.063 1.246 c -1.074 0 -1.953 -0.543 -2.059 -1.246" fill="#fdfdfd" fill-opacity="0.4"/><path d="m 5.824 4.445 c -1.086 0 -1.996 0.484 -2.289 1.148 h -0.102 v 0.457 c 0 0.887 1.07 1.605 2.391 1.605 c 1.316 0 2.387 -0.719 2.387 -1.605 v -0.457 h -0.102 c -0.293 -0.664 -1.203 -1.148 -2.285 -1.148" fill="url(#t)"/><path d="m 8.211 5.594 c 0 0.887 -1.07 1.602 -2.387 1.602 c -1.32 0 -2.391 -0.715 -2.391 -1.602 c 0 -0.887 1.07 -1.605 2.391 -1.605 c 1.316 0 2.387 0.719 2.387 1.605" fill="url(#u)"/><use xlink:href="#y" mask="url(#v)"/><path d="m 3.758 5.508 c 0 0.027 -0.008 0.059 -0.008 0.086 c 0 0.77 0.926 1.391 2.07 1.391 c 1.148 0 2.074 -0.621 2.074 -1.391 c 0 -0.027 -0.008 -0.059 -0.012 -0.086 c -0.105 0.703 -0.984 1.246 -2.063 1.246 c -1.074 0 -1.953 -0.543 -2.059 -1.246" fill="#fdfdfd" fill-opacity="0.4"/><path d="m 4.656 4.918 c -0.012 0.125 -0.023 0.246 -0.059 0.516 c -0.055 0.035 -0.063 0.047 -0.063 0.074 c 0 0.031 0.039 0.055 0.094 0.055 c 0.055 0 0.102 -0.027 0.102 -0.063 c 0 -0.008 -0.008 -0.02 -0.008 -0.031 c 0.074 -0.039 0.176 -0.055 0.277 -0.055 c 0.188 0 0.281 0.086 0.281 0.258 c 0 0.188 -0.109 0.293 -0.309 0.293 c -0.109 0 -0.215 -0.039 -0.215 -0.07 c 0 -0.012 0.008 -0.016 0.027 -0.023 c 0.098 -0.031 0.133 -0.063 0.133 -0.113 c 0 -0.078 -0.078 -0.121 -0.207 -0.121 c -0.145 0 -0.242 0.059 -0.242 0.156 c 0 0.156 0.227 0.258 0.57 0.258 c 0.406 0 0.68 -0.156 0.68 -0.387 c 0 -0.203 -0.258 -0.359 -0.617 -0.359 c -0.113 0 -0.188 0.012 -0.352 0.059 l 0.035 -0.199 c 0.117 0.016 0.211 0.027 0.309 0.027 c 0.207 0 0.371 -0.047 0.465 -0.121 c 0.051 -0.039 0.086 -0.102 0.086 -0.137 c 0 -0.012 -0.008 -0.016 -0.02 -0.016 c -0.008 0 -0.023 -0.004 -0.035 0 c -0.082 0.012 -0.258 0.031 -0.449 0.031 c -0.207 0 -0.332 -0.012 -0.484 -0.031 m 1.875 0 c -0.371 0 -0.645 0.242 -0.645 0.566 c 0 0.328 0.273 0.566 0.645 0.566 c 0.363 0 0.645 -0.242 0.645 -0.559 c 0 -0.184 -0.07 -0.32 -0.215 -0.438 c -0.117 -0.09 -0.266 -0.137 -0.43 -0.137 m 0 0.078 c 0.074 0 0.129 0.031 0.156 0.082 c 0.035 0.051 0.059 0.219 0.059 0.406 c 0 0.16 -0.023 0.332 -0.047 0.387 c -0.027 0.063 -0.086 0.102 -0.168 0.102 c -0.078 0 -0.141 -0.027 -0.168 -0.078 c -0.031 -0.055 -0.047 -0.223 -0.047 -0.41 c 0 -0.16 0.016 -0.332 0.035 -0.387 c 0.027 -0.063 0.094 -0.102 0.18 -0.102" fill="#907328" fill-opacity="0.502"/><path d="m 5.582 5.05 c -0.008 0.008 -0.012 0.016 -0.02 0.023 c -0.094 0.078 -0.262 0.121 -0.469 0.121 c -0.094 0 -0.191 -0.012 -0.305 -0.027 l -0.039 0.199 c 0.012 -0.004 0.016 -0.004 0.027 -0.008 l 0.012 -0.063 c 0.078 0.012 0.145 0.016 0.215 0.02 c 0.031 0 0.063 -0.008 0.102 -0.008 c 0.043 0 0.09 0.004 0.129 0.008 c 0.004 0 0.008 0 0.012 0 c 0.137 -0.016 0.246 -0.055 0.316 -0.113 c 0.047 -0.039 0.082 -0.102 0.082 -0.137 c 0 -0.008 -0.004 -0.016 -0.016 -0.016 c -0.012 0 -0.023 0 -0.039 0 c 0 0 -0.008 0 -0.008 0 m 0.949 0 c -0.055 0 -0.105 0.012 -0.156 0.023 c -0.008 0.008 -0.016 0.02 -0.02 0.027 c -0.023 0.055 -0.039 0.227 -0.039 0.387 c 0 0.023 0 0.043 0 0.066 c 0.004 -0.141 0.02 -0.277 0.039 -0.324 c 0.027 -0.063 0.09 -0.098 0.176 -0.098 c 0.074 0 0.133 0.027 0.16 0.078 c 0.027 0.043 0.043 0.184 0.047 0.344 c 0 -0.023 0.008 -0.043 0.008 -0.066 c 0 -0.188 -0.023 -0.355 -0.055 -0.406 c -0.004 -0.004 -0.008 -0.012 -0.012 -0.016 c -0.047 -0.008 -0.094 -0.016 -0.148 -0.016 m -1.426 0.387 c -0.117 0 -0.191 0.012 -0.355 0.059 l 0.012 -0.035 c -0.016 0.004 -0.027 0.008 -0.039 0.016 c 0.004 0.008 0.008 0.02 0.008 0.027 c 0 0.035 -0.047 0.063 -0.102 0.063 c -0.012 0 -0.02 -0.004 -0.027 -0.004 c 0 0.004 0 0.004 0 0.004 c -0.055 0.035 -0.066 0.047 -0.066 0.074 c 0 0.012 0.008 0.027 0.02 0.035 c 0.039 -0.02 0.094 -0.035 0.16 -0.035 c 0.004 0 0.012 0 0.016 0 c 0 -0.004 0 -0.004 0 -0.008 c 0 -0.008 -0.004 -0.02 -0.008 -0.027 c 0.074 -0.039 0.18 -0.059 0.281 -0.059 c 0.16 0 0.25 0.07 0.27 0.199 c 0.004 -0.023 0.008 -0.043 0.008 -0.07 c 0 -0.117 -0.047 -0.199 -0.141 -0.238 c -0.012 0 -0.023 0 -0.035 0 m 0.793 0.117 c -0.004 0.02 -0.008 0.039 -0.008 0.063 c 0 0.328 0.27 0.566 0.641 0.566 c 0.367 0 0.645 -0.238 0.645 -0.559 c 0 -0.023 -0.008 -0.047 -0.008 -0.07 c -0.027 0.242 -0.219 0.426 -0.484 0.48 c -0.031 0.043 -0.082 0.07 -0.152 0.07 c -0.07 0 -0.125 -0.027 -0.156 -0.07 c -0.262 -0.055 -0.449 -0.238 -0.477 -0.48 m -0.188 0.199 c -0.051 0.16 -0.254 0.27 -0.539 0.293 c -0.051 0.035 -0.117 0.051 -0.199 0.051 c -0.109 0 -0.211 -0.039 -0.211 -0.07 c 0 -0.004 0.008 -0.004 0.008 -0.008 c -0.141 -0.031 -0.242 -0.078 -0.281 -0.152 c -0.008 0.02 -0.02 0.039 -0.02 0.059 c 0 0.156 0.227 0.258 0.57 0.258 c 0.406 0 0.68 -0.156 0.68 -0.387 c 0 -0.016 -0.004 -0.027 -0.008 -0.043 m -0.82 0.07 c -0.02 0.02 -0.055 0.039 -0.102 0.051 c -0.023 0.008 -0.027 0.012 -0.027 0.023 c 0 0.023 0.047 0.051 0.121 0.063 c 0 0.004 0.004 0 0.008 0 c 0.023 -0.016 0.027 -0.043 0.027 -0.07 c 0 -0.027 -0.012 -0.047 -0.027 -0.066" fill="#fdfdfd" fill-opacity="0.302"/><path d="m 9.434 7.898 c -0.012 0.125 -0.023 0.246 -0.059 0.516 c -0.055 0.035 -0.063 0.047 -0.063 0.07 c 0 0.035 0.039 0.059 0.09 0.059 c 0.055 0 0.105 -0.031 0.105 -0.063 c 0 -0.008 -0.008 -0.02 -0.012 -0.031 c 0.074 -0.039 0.18 -0.055 0.281 -0.055 c 0.188 0 0.281 0.086 0.281 0.258 c 0 0.188 -0.109 0.293 -0.309 0.293 c -0.113 0 -0.215 -0.039 -0.215 -0.074 c 0 -0.008 0.004 -0.012 0.027 -0.02 c 0.098 -0.031 0.133 -0.063 0.133 -0.117 c 0 -0.074 -0.082 -0.121 -0.207 -0.121 c -0.145 0 -0.242 0.063 -0.242 0.16 c 0 0.156 0.227 0.258 0.57 0.258 c 0.406 0 0.68 -0.156 0.68 -0.387 c 0 -0.207 -0.258 -0.359 -0.617 -0.359 c -0.117 0 -0.191 0.012 -0.355 0.059 l 0.039 -0.203 c 0.117 0.016 0.211 0.031 0.309 0.031 c 0.207 0 0.371 -0.047 0.465 -0.125 c 0.047 -0.039 0.086 -0.102 0.086 -0.133 c 0 -0.012 -0.008 -0.016 -0.02 -0.016 c -0.012 0 -0.023 -0.004 -0.039 0 c -0.082 0.012 -0.254 0.027 -0.445 0.027 c -0.207 0 -0.332 -0.008 -0.484 -0.027 m 1.875 0 c -0.375 0 -0.645 0.238 -0.645 0.566 c 0 0.324 0.27 0.566 0.645 0.566 c 0.363 0 0.641 -0.242 0.641 -0.559 c 0 -0.188 -0.066 -0.32 -0.211 -0.438 c -0.117 -0.09 -0.266 -0.137 -0.43 -0.137 m 0 0.078 c 0.074 0 0.129 0.031 0.156 0.078 c 0.035 0.055 0.059 0.223 0.059 0.41 c 0 0.16 -0.027 0.332 -0.047 0.387 c -0.027 0.063 -0.086 0.102 -0.168 0.102 c -0.078 0 -0.141 -0.031 -0.168 -0.082 c -0.031 -0.051 -0.047 -0.223 -0.047 -0.406 c 0 -0.16 0.016 -0.332 0.035 -0.387 c 0.027 -0.063 0.09 -0.102 0.18 -0.102" fill="#907328" fill-opacity="0.502"/><path d="m 10.359 8.03 c -0.008 0.008 -0.012 0.016 -0.02 0.023 c -0.094 0.074 -0.262 0.121 -0.469 0.121 c -0.094 0 -0.191 -0.016 -0.309 -0.031 l -0.035 0.203 c 0.012 -0.004 0.016 -0.004 0.027 -0.008 l 0.008 -0.063 c 0.082 0.008 0.148 0.016 0.215 0.02 c 0.035 -0.004 0.066 -0.008 0.105 -0.008 c 0.043 0 0.09 0.004 0.129 0.008 c 0.004 0 0.008 0 0.012 0 c 0.137 -0.016 0.246 -0.059 0.316 -0.113 c 0.047 -0.039 0.082 -0.102 0.082 -0.137 c 0 -0.012 -0.004 -0.016 -0.02 -0.016 c -0.008 0 -0.02 -0.004 -0.035 0 c -0.004 0 -0.008 0 -0.008 0 m 0.949 0 c -0.055 0 -0.105 0.012 -0.156 0.023 c -0.008 0.008 -0.016 0.016 -0.02 0.027 c -0.023 0.055 -0.039 0.227 -0.039 0.387 c 0 0.023 0 0.043 0 0.066 c 0.004 -0.141 0.02 -0.277 0.039 -0.324 c 0.027 -0.063 0.09 -0.102 0.176 -0.102 c 0.074 0 0.133 0.031 0.16 0.078 c 0.027 0.047 0.043 0.188 0.047 0.348 c 0 -0.023 0.008 -0.043 0.008 -0.066 c 0 -0.188 -0.023 -0.355 -0.055 -0.406 c -0.004 -0.008 -0.008 -0.012 -0.012 -0.016 c -0.047 -0.008 -0.098 -0.016 -0.148 -0.016 m -1.426 0.387 c -0.117 0 -0.191 0.012 -0.355 0.059 l 0.008 -0.035 c -0.012 0.004 -0.023 0.008 -0.035 0.012 c 0 0.012 0.008 0.023 0.008 0.031 c 0 0.035 -0.047 0.063 -0.102 0.063 c -0.012 0 -0.02 -0.004 -0.027 -0.008 c 0 0.004 0 0.004 0 0.008 c -0.055 0.035 -0.066 0.047 -0.066 0.074 c 0 0.012 0.008 0.023 0.02 0.035 c 0.039 -0.023 0.094 -0.035 0.156 -0.035 c 0.008 0 0.012 0 0.02 0 c 0 -0.004 0 -0.008 0 -0.008 c 0 -0.008 -0.008 -0.02 -0.008 -0.031 c 0.074 -0.039 0.176 -0.055 0.281 -0.055 c 0.16 0 0.25 0.07 0.27 0.199 c 0.004 -0.023 0.008 -0.047 0.008 -0.07 c 0 -0.121 -0.047 -0.199 -0.141 -0.238 c -0.012 0 -0.023 0 -0.035 0 m 0.793 0.117 c -0.004 0.02 -0.012 0.039 -0.012 0.063 c 0 0.328 0.273 0.566 0.645 0.566 c 0.367 0 0.645 -0.242 0.645 -0.559 c 0 -0.027 -0.008 -0.047 -0.008 -0.074 c -0.027 0.246 -0.219 0.43 -0.488 0.48 c -0.027 0.047 -0.078 0.074 -0.148 0.074 c -0.07 0 -0.125 -0.027 -0.156 -0.074 c -0.266 -0.051 -0.449 -0.234 -0.477 -0.48 m -0.188 0.203 c -0.051 0.16 -0.254 0.266 -0.543 0.293 c -0.047 0.031 -0.113 0.051 -0.195 0.051 c -0.109 0 -0.215 -0.039 -0.215 -0.074 c 0 0 0.008 -0.004 0.012 -0.004 c -0.141 -0.031 -0.242 -0.078 -0.281 -0.152 c -0.008 0.02 -0.02 0.035 -0.02 0.059 c 0 0.156 0.227 0.258 0.57 0.258 c 0.406 0 0.68 -0.156 0.68 -0.387 c 0 -0.016 -0.004 -0.027 -0.008 -0.043 m -0.82 0.07 c -0.02 0.02 -0.055 0.035 -0.102 0.051 c -0.023 0.008 -0.031 0.012 -0.031 0.023 c 0 0.023 0.051 0.051 0.121 0.063 c 0.004 0 0.008 0 0.012 0 c 0.023 -0.02 0.027 -0.043 0.027 -0.07 c 0 -0.027 -0.012 -0.047 -0.027 -0.066" fill="#fdfdfd" fill-opacity="0.302"/></svg>