<svg xmlns="http://www.w3.org/2000/svg" viewBox="0 0 16 16"><path d="m 6.461 0.32 c -1.461 0.621 -3.488 1.539 -3.672 1.656 c -0.109 0.074 -0.293 0.258 -0.41 0.414 c -0.336 0.438 -2.133 3.574 -2.211 3.855 c -0.074 0.258 -0.039 1.203 0.07 2.059 c 0.25 2.527 0.125 2.469 0.457 3.01 c 0.07 0.148 0.785 0.984 1.59 1.859 c 1.547 1.68 1.711 1.816 2.363 1.945 c 1.758 0.301 2.867 0.676 4.445 0.77 c 1.402 -0.602 2.914 -1.227 4.242 -1.977 c 0.207 -0.176 0.516 -0.641 1.203 -1.82 c 1.418 -2.414 1.301 -2.148 1.293 -2.992 c -0.141 -1.316 -0.133 -3.508 -0.59 -4.437 c -0.156 -0.297 -2.219 -2.621 -2.867 -3.242 c -0.324 -0.309 -0.648 -0.449 -1.402 -0.605 c -0.766 -0.281 -2.555 -0.578 -3.168 -0.688 c -0.355 -0.086 -0.77 -0.055 -1.344 0.191" fill="#f4f4f4"/><path d="m 6.73 13.01 c -1.348 -0.156 -2.543 -0.746 -3.41 -1.684 c -0.551 -0.594 -0.645 -0.754 -0.699 -1.18 c -0.047 -0.395 0.023 -0.473 0.324 -0.355 c 0.148 0.059 0.188 0.133 0.219 0.414 c 0.02 0.191 0.082 0.375 0.137 0.41 c 0.184 0.121 1.281 0.438 1.383 0.398 c 0.066 -0.027 0.102 -0.152 0.102 -0.375 v -0.332 l 0.27 0.043 c 0.422 0.074 0.445 0.09 0.445 0.344 c 0 0.301 0.047 0.371 0.332 0.523 c 0.297 0.152 1.051 0.336 1.148 0.273 c 0.043 -0.027 0.086 -0.23 0.098 -0.449 l 0.023 -0.398 h 1.641 l 0.02 0.398 c 0.012 0.219 0.059 0.422 0.098 0.449 c 0.098 0.063 0.855 -0.121 1.148 -0.273 c 0.289 -0.152 0.336 -0.223 0.336 -0.523 c 0 -0.254 0.023 -0.27 0.445 -0.344 l 0.27 -0.043 v 0.332 c 0 0.223 0.031 0.348 0.102 0.375 c 0.102 0.039 1.199 -0.277 1.383 -0.398 c 0.055 -0.035 0.113 -0.219 0.137 -0.41 c 0.031 -0.281 0.07 -0.355 0.219 -0.414 c 0.301 -0.117 0.371 -0.039 0.324 0.355 c -0.055 0.434 -0.148 0.59 -0.727 1.203 c -0.777 0.832 -1.637 1.316 -2.738 1.551 c -0.684 0.145 -2.246 0.203 -3.03 0.109 m -0.5 -2.16 c -0.297 -0.109 -0.305 -0.121 -0.305 -0.43 c 0 -0.176 -0.039 -0.344 -0.09 -0.379 c -0.109 -0.07 -0.93 -0.227 -1.246 -0.234 c -0.227 -0.004 -0.23 0 -0.23 0.324 c 0 0.367 -0.023 0.375 -0.426 0.211 c -0.277 -0.113 -0.289 -0.133 -0.289 -0.441 c 0 -0.23 -0.039 -0.355 -0.141 -0.445 c -0.133 -0.117 -0.145 -0.215 -0.145 -1.371 v -1.246 l -0.391 -0.398 c -0.215 -0.219 -0.391 -0.43 -0.391 -0.473 c 0 -0.102 1.082 -1.207 1.18 -1.207 c 0.039 0 0.184 0.113 0.316 0.254 c 0.133 0.141 0.285 0.258 0.344 0.258 c 0.125 0 1.105 -0.551 1.211 -0.68 c 0.055 -0.066 0.047 -0.27 -0.02 -0.711 c -0.055 -0.34 -0.078 -0.645 -0.051 -0.672 c 0.082 -0.086 1.094 -0.422 1.152 -0.383 c 0.031 0.02 0.156 0.215 0.277 0.434 l 0.223 0.402 h 1.422 l 0.223 -0.402 c 0.121 -0.219 0.246 -0.414 0.277 -0.434 c 0.059 -0.039 1.07 0.297 1.148 0.383 c 0.027 0.027 0.004 0.328 -0.051 0.668 c -0.07 0.449 -0.074 0.645 -0.02 0.711 c 0.105 0.133 1.09 0.684 1.215 0.684 c 0.055 0 0.211 -0.117 0.344 -0.258 c 0.133 -0.141 0.277 -0.254 0.32 -0.254 c 0.094 0 1.176 1.109 1.176 1.211 c 0 0.039 -0.176 0.25 -0.391 0.469 l -0.391 0.398 v 1.246 c 0 1.156 -0.012 1.254 -0.145 1.371 c -0.102 0.09 -0.141 0.215 -0.141 0.445 c 0 0.309 -0.016 0.328 -0.289 0.441 c -0.406 0.164 -0.426 0.156 -0.426 -0.211 c 0 -0.324 -0.004 -0.328 -0.23 -0.324 c -0.316 0.008 -1.137 0.164 -1.246 0.234 c -0.051 0.035 -0.09 0.203 -0.09 0.379 c 0 0.313 -0.008 0.32 -0.336 0.434 c -0.184 0.063 -0.344 0.117 -0.355 0.117 c -0.012 0 -0.023 -0.129 -0.023 -0.289 c 0 -0.535 0.047 -0.516 -1.281 -0.516 c -1.332 0 -1.285 -0.02 -1.285 0.516 c 0 0.32 0.012 0.32 -0.406 0.168 m 2.086 -1.156 c 0.16 -0.16 0.176 -0.238 0.176 -0.801 c 0 -0.711 -0.082 -0.945 -0.359 -1.066 c -0.238 -0.102 -0.449 -0.043 -0.641 0.168 c -0.121 0.129 -0.141 0.258 -0.141 0.836 c 0 0.629 0.016 0.699 0.176 0.863 c 0.109 0.113 0.254 0.18 0.395 0.18 c 0.137 0 0.285 -0.066 0.395 -0.18 m -2.496 -0.383 c 0.609 -0.168 0.984 -1.02 0.742 -1.68 c -0.164 -0.445 -0.715 -0.82 -1.203 -0.824 c -0.875 -0.004 -1.523 1.078 -1.117 1.875 c 0.141 0.285 0.496 0.594 0.746 0.652 c 0.293 0.102 0.594 0.039 0.832 -0.023 m 5.238 -0.063 c 0.508 -0.266 0.809 -0.941 0.652 -1.477 c -0.113 -0.395 -0.34 -0.668 -0.684 -0.828 c -0.922 -0.43 -1.934 0.324 -1.801 1.336 c 0.113 0.859 1.066 1.367 1.832 0.969" fill="#4c4c4c"/><g fill="#1e8fff"><path d="m 6.27 8 c 0.078 0.465 -0.262 0.898 -0.754 0.973 c -0.492 0.07 -0.957 -0.246 -1.031 -0.711 c -0.078 -0.465 0.262 -0.898 0.754 -0.969 c 0.492 -0.074 0.957 0.246 1.031 0.707"/><path d="m 11.391 7.973 c 0.078 0.465 -0.262 0.898 -0.754 0.973 c -0.496 0.07 -0.957 -0.246 -1.031 -0.711 c -0.078 -0.465 0.262 -0.898 0.754 -0.969 c 0.492 -0.074 0.953 0.246 1.031 0.707"/></g></svg>