<svg xmlns="http://www.w3.org/2000/svg" viewBox="0 0 16 16"><path d="m 2.402 2.988 c 16.508 -12.238 18.855 21.445 2 10.637 c -3.844 -2.465 -6.375 -7.395 -2 -10.637" fill="#546a2f"/><g fill="#fff" fill-rule="evenodd" stroke="#fff"><g stroke-width="0.931" transform="scale(0.0625)"><path d="m 132.94 126.69 c -3.813 -1.188 -4.063 -3 -4.063 -28.938 c 0 -19 0.25 -24.438 1.125 -25.25 c 0.875 -0.875 8.313 -1 39.438 -0.688 c 35.06 0.375 38.5 0.563 39.813 1.813 c 0.813 0.75 1.063 1.438 0.563 1.438 c -0.5 0 -0.875 1.063 -0.875 2.438 c 0 1.875 0.25 2.375 1.25 2 c 1.063 -0.375 1.25 2.375 1.188 21.688 c 0 12.875 -0.313 22.563 -0.813 23.313 c -0.438 0.625 -0.813 0.813 -0.813 0.438 c 0 -0.438 -0.75 0 -1.75 1 l -1.688 1.75 l -35.625 -0.125 c -19.563 -0.063 -36.563 -0.438 -37.75 -0.875 m -2.688 -7.188 c -0.188 -0.563 -0.375 -0.125 -0.375 1 c 0 1.063 0.188 1.5 0.375 1 c 0.25 -0.563 0.25 -1.438 0 -2 m 1.688 0.063 c -0.25 -0.688 -0.438 -0.5 -0.5 0.438 c 0 0.875 0.188 1.313 0.438 1.063 c 0.313 -0.25 0.313 -0.938 0.063 -1.5 m 77 -36.938 c 0 -0.188 -0.375 -0.563 -0.875 -0.813 c -0.438 -0.25 -0.813 -0.125 -0.813 0.375 c 0 0.438 0.375 0.813 0.813 0.813 c 0.5 0 0.875 -0.125 0.875 -0.375 m -78.62 -5.375 c -0.188 -1 -0.375 -0.375 -0.375 1.375 c 0 1.75 0.125 2.563 0.375 1.813 c 0.188 -0.75 0.188 -2.188 0 -3.188 m 1.625 0.375 c -0.188 -0.75 -0.375 -0.125 -0.375 1.375 c 0 1.563 0.188 2.188 0.375 1.438 c 0.25 -0.813 0.25 -2.063 0 -2.813 m 72 -2.563 c 0 -0.438 -0.438 -0.813 -0.938 -0.813 c -0.438 0 -0.625 0.375 -0.375 0.813 c 0.313 0.438 0.688 0.75 0.938 0.75 c 0.188 0 0.375 -0.313 0.375 -0.75"/><path d="m 66.38 188.44 c -1.063 -1.125 -1.313 -5.625 -1.688 -26.19 l -0.438 -24.875 l 2.75 -1 c 1.5 -0.563 2.688 -1.313 2.688 -1.688 c 0 -0.375 13.813 -0.625 30.625 -0.563 c 17.875 0 29.938 0.313 29 0.688 c -1.625 0.688 -1.625 0.688 0.125 0.75 c 1 0.063 1.938 -0.25 2.063 -0.625 c 0.563 -1.438 74.06 -1.563 74.06 -0.125 c 0 0.438 0.813 0.813 1.688 0.813 c 1.25 0 1.875 0.688 2.25 2.625 c 0.563 2.5 0.563 2.5 1.188 0.563 c 0.313 -1.063 0.5 9.5 0.438 23.563 c -0.125 20.19 -0.313 25.438 -1.188 25.25 c -0.563 -0.063 -1.313 0.375 -1.563 1 c -0.438 1.063 -8.813 1.25 -70.62 1.188 c -64.69 0 -70.25 -0.125 -71.37 -1.375 m 6.625 -1.75 c 0 -0.438 -0.75 -0.813 -1.688 -0.813 c -0.938 0 -1.5 0.375 -1.188 0.813 c 0.25 0.438 1.063 0.75 1.688 0.75 c 0.688 0 1.188 -0.313 1.188 -0.75 m 49 -10.938 c -0.75 -0.188 -2.25 -0.188 -3.313 0 c -1.063 0.188 -0.375 0.313 1.438 0.375 c 1.813 0 2.688 -0.188 1.875 -0.375 m 20 0.063 c -0.25 -0.25 -1 -0.313 -1.625 -0.063 c -0.625 0.25 -0.438 0.438 0.5 0.5 c 0.938 0 1.375 -0.188 1.125 -0.438 m 16.25 -0.063 c -0.563 -0.188 -1.5 -0.188 -2.063 0 c -0.563 0.25 -0.125 0.438 1.063 0.438 c 1.125 0 1.625 -0.188 1 -0.438 m -14.5 -1.25 c 0.625 -4.688 0.625 -6.06 0 -5.688 c -0.375 0.25 -0.688 -0.313 -0.688 -1.188 c 0 -1.375 0.313 -1.5 2.563 -0.875 c 2.5 0.688 5.688 3.563 5.75 5.25 c 0 0.5 0.625 1.125 1.313 1.438 c 0.75 0.25 1.125 0.75 0.938 1.063 c -0.25 0.313 1.375 0.625 3.563 0.625 h 4 l -1.313 -2.625 c -0.688 -1.438 -1.563 -2.563 -1.938 -2.563 c -0.375 0 -2.25 -1.438 -4.188 -3.188 c -2 -1.75 -3.875 -3.188 -4.25 -3.188 c -0.938 0 -0.75 -3.063 0.25 -3.625 c 0.438 -0.25 0.813 0.188 0.875 1 c 0 1.063 0.25 0.938 0.938 -0.563 c 0.5 -1.125 0.938 -2.313 1 -2.625 c 0.125 -1.125 2.375 -2.063 3.688 -1.563 c 0.813 0.313 1.063 0.125 0.625 -0.5 c -0.313 -0.5 0 -1.5 0.688 -2.188 c 2.313 -2.188 1.625 -3.5 -1.813 -3.5 c -2.813 0 -3.438 0.375 -5.25 3.125 c -1.625 2.563 -5 4.813 -7.125 4.813 c -0.75 0 -0.25 -3.938 0.5 -4.375 c 0.563 -0.313 0.563 -1 -0.063 -2.063 c -0.625 -1.188 -1.563 -1.563 -3.438 -1.375 l -2.625 0.25 l 0.125 11.563 c 0.063 6.375 0.125 11.813 0.125 12.13 c 0.063 0.313 1.25 0.688 2.75 0.875 c 1.5 0.188 2.75 0.375 2.813 0.438 c 0 0.063 0.125 -0.313 0.188 -0.875 m -17.5 -0.688 c 1.438 -0.438 2.625 -1.375 2.625 -2 c 0 -0.563 0.563 -1.063 1.25 -1.063 c 0.688 0 1.25 -0.75 1.25 -1.625 c 0 -0.875 0.375 -1.625 0.875 -1.625 c 1.188 0 1 -9.25 -0.25 -11.25 c -2.938 -4.813 -4.563 -5.688 -10.875 -6.06 c -6 -0.375 -6.125 -0.375 -9.188 2.313 c -1.75 1.5 -3.688 3.75 -4.313 5 c -1.438 2.563 -1.688 8.438 -0.438 8.438 c 0.5 0 0.875 0.625 0.875 1.375 c 0 0.688 1.5 2.688 3.375 4.375 c 3.063 2.688 3.875 3 7.813 3 c 2.438 0 5.563 -0.375 7 -0.875 m -4.688 -25.19 c -1 -0.188 -2.688 -0.188 -3.75 0 c -1 0.188 -0.188 0.375 1.875 0.375 c 2.063 0 2.938 -0.188 1.875 -0.375 m 20.06 0.063 c -0.625 -0.25 -1.563 -0.25 -2.125 0 c -0.563 0.188 -0.063 0.375 1.063 0.375 c 1.125 0 1.625 -0.188 1.063 -0.375 m 15.813 0 c -0.563 -0.25 -1.5 -0.25 -2.063 0 c -0.563 0.188 -0.125 0.375 1 0.375 c 1.188 0 1.625 -0.188 1.063 -0.375 m -89 -6.625 c 0.25 -0.375 0.063 -0.938 -0.375 -1.25 c -0.5 -0.25 -0.875 0.063 -0.875 0.75 c 0 1.438 0.5 1.625 1.25 0.5 m 4.188 -4 c 0.25 -0.5 -0.313 -0.813 -1.25 -0.813 c -1 0 -1.563 0.375 -1.25 0.813 c 0.25 0.438 0.813 0.75 1.25 0.75 c 0.375 0 0.938 -0.313 1.25 -0.75 m 131.88 -0.5 c -0.25 -0.25 -1 -0.313 -1.563 -0.063 c -0.688 0.25 -0.5 0.438 0.5 0.5 c 0.875 0 1.375 -0.188 1.063 -0.438 m -50.813 -3.188 c -0.313 -0.25 -1 -0.313 -1.625 -0.063 c -0.625 0.25 -0.438 0.438 0.5 0.438 c 0.875 0.063 1.375 -0.125 1.125 -0.375"/><path d="m 68.875 127.06 c -0.688 -0.25 -1.75 -1.125 -2.375 -1.938 c -0.563 -0.813 -1.625 -1.438 -2.25 -1.438 c -1.063 0 -1.25 -3.625 -1.25 -24.12 v -24.12 l 2.75 -2 l 2.688 -2 l 25.25 0.25 l 25.313 0.188 l 1.125 2.563 c 0.688 1.438 1.25 2.063 1.25 1.375 c 0.063 -0.75 0.313 -0.625 0.688 0.438 c 0.313 0.875 0.438 12.188 0.25 25.13 c -0.188 12.938 -0.563 22.625 -0.938 21.5 c -0.563 -1.688 -0.688 -1.75 -0.75 -0.375 c -0.063 0.938 -0.813 2.438 -1.75 3.438 c -1.688 1.688 -2.063 1.75 -25.25 1.688 c -12.938 -0.063 -24.06 -0.313 -24.75 -0.563 m -4.375 -37.06 c -0.188 -5.813 -0.25 -1.063 -0.25 10.563 c 0 11.625 0.063 16.375 0.25 10.563 c 0.125 -5.813 0.125 -15.313 0 -21.12 m 3.5 30 c 0 -0.625 -0.375 -1 -0.813 -0.688 c -0.5 0.25 -0.625 0.813 -0.375 1.188 c 0.688 1.125 1.188 0.938 1.188 -0.5 m 32.13 -8.313 c -1.625 -0.688 -1.625 -0.688 0.063 -0.75 c 2.75 -0.063 5.375 -3.563 5.375 -7.125 c 0 -4.563 1.938 -6.25 -0.75 -6.25 c -1.313 0 -5.25 0.25 -5.5 -0.188 c -0.938 -1.438 -2.813 -0.875 -3.375 0.938 c -0.438 1.25 -0.125 2.125 1.188 3.125 c 1.063 0.875 1.063 1.75 0.563 3.25 l -0.563 1.875 l -4.438 -0.563 c -3.75 -0.5 -3.25 0 -3.25 -0.875 c 0 -0.625 -0.625 -2.313 -1.375 -3.063 c -1.75 -1.688 -1.875 -5 -0.188 -6.75 c 0.625 -0.688 2 -1.813 2.625 -2.563 c 0.875 -1 1.375 -1.25 5.188 -0.938 c 4.625 0.313 6.625 -0.063 6.625 -1.813 c 0 -1.313 -0.813 -3.563 -1.938 -3.563 c -0.875 0 -2.75 -0.688 -3 -1.125 c -0.313 -0.438 -1.875 0.063 -2.813 0.063 c -1.875 0 -9.875 3.313 -9.875 4.063 c 0 0.25 -0.938 1.563 -2.063 2.813 c -1.75 1.938 -2.125 3.125 -2.125 7.313 c 0 4.75 0.188 5.125 3.375 8.188 c 1.813 1.75 3.875 3.188 4.563 3.188 c 0.688 0 1.25 0.313 1.25 0.75 c 0 0.5 2.563 0.813 6.06 0.75 c 4.125 0 5.5 -0.25 4.375 -0.75 m -31.25 -33.12 c 0 -0.625 -0.375 -1.125 -0.875 -1.125 c -0.438 0 -0.813 0.688 -0.813 1.625 c 0 0.875 0.375 1.438 0.813 1.125 c 0.5 -0.25 0.875 -1 0.875 -1.625 m 4.188 -3.563 c 0 -0.438 -0.75 -0.75 -1.688 -0.75 c -0.938 0 -1.688 0.313 -1.688 0.75 c 0 0.438 0.75 0.813 1.688 0.813 c 0.938 0 1.688 -0.375 1.688 -0.813 m 42.875 0 c 0.313 -0.438 -0.25 -0.75 -1.25 -0.75 c -0.938 0 -1.5 0.313 -1.25 0.75 c 0.313 0.438 0.875 0.813 1.25 0.813 c 0.438 0 1 -0.375 1.25 -0.813"/></g><path d="m 125.28 164.31 c 0 1.414 -0.843 2.705 -2.362 3.442 c -1.518 0.676 -3.374 0.676 -4.807 0 c -1.518 -0.738 -2.446 -2.028 -2.446 -3.442 c 0 -1.414 0.928 -2.766 2.446 -3.442 c 1.434 -0.738 3.289 -0.738 4.807 0 c 1.518 0.676 2.362 2.028 2.362 3.442" transform="matrix(0.04631 0 0 0.06355 1.905 -0.282)"/></g></svg>