<svg xmlns="http://www.w3.org/2000/svg" xmlns:xlink="http://www.w3.org/1999/xlink" viewBox="0 0 16 16"><defs><g id="3" clip-path="url(#2)"><path d="m 6.289 9.32 v 0.059 h 0.703 c 0.004 -0.02 0.008 -0.039 0.012 -0.059" fill="#19227e"/><path d="m 6.289 10.402 c -0.727 0 -1.316 -0.598 -1.332 -1.34 c 0 0.012 0 0.02 0 0.027 c 0 0.758 0.594 1.371 1.332 1.371 c 0.766 0 1.273 -0.555 1.273 -1.34 c 0 -0.004 -0.004 -0.012 -0.004 -0.016 c -0.016 0.762 -0.516 1.297 -1.27 1.297 m 0.508 -1.988 c -0.137 -0.137 -0.313 -0.207 -0.508 -0.207 c -0.438 0 -0.789 0.379 -0.789 0.828 c 0 0.008 0 0.02 0 0.027 c 0.016 -0.434 0.359 -0.797 0.789 -0.797 c 0.195 0 0.371 0.066 0.508 0.203 l 0.406 -0.418 c -0.008 -0.008 -0.02 -0.016 -0.027 -0.027 l -0.379 0.391" fill="#19227e"/></g><clipPath id="2"><path d="M 0,0 H16 V16 H0 z"/></clipPath><filter id="0" filterUnits="objectBoundingBox" x="0" y="0" width="16" height="16"><feColorMatrix type="matrix" in="SourceGraphic" values="0 0 0 0 1 0 0 0 0 1 0 0 0 0 1 0 0 0 1 0"/></filter><mask id="1"><g filter="url(#0)"><path fill-opacity="0.2" d="M 0,0 H16 V16 H0 z"/></g></mask></defs><path d="m 7.785 15.914 c 1.648 -0.129 3.582 -0.914 4.926 -2.01 c 1.637 -1.332 2.836 -3.371 3.156 -5.387 c 0.383 -2.66 -1.16 -5.516 -2.902 -6.875 c -0.879 -0.66 -2.039 -1.184 -3.125 -1.414 c -2.832 -0.602 -5.785 0.535 -7.809 2.996 c -1.215 1.477 -1.844 2.965 -1.996 4.727 c -0.184 2.109 0.648 4.375 2.172 5.898 c 1.734 1.434 3.52 2.215 5.578 2.066" fill="#ff8c00"/><path d="m 10.699 9.402 c 0 0.141 -0.109 0.254 -0.246 0.254 h -5.254 c -0.137 0 -0.25 -0.113 -0.25 -0.254 v -5.305 c 0 -0.137 0.113 -0.254 0.25 -0.254 h 5.254 c 0.137 0 0.246 0.117 0.246 0.254" fill="#0b9c58"/><g fill-opacity="0.2"><g fill="#004c3f"><path d="m 8.746 4.949 l 1.977 0.543 v -0.281"/><path d="m 7.922 4.121 l -2.98 1.367 l 3.293 -1.234 v -0.004 c -0.059 -0.125 -0.199 -0.188 -0.313 -0.133"/></g><path d="m 10.453 3.844 h -5.254 c -0.137 0 -0.246 0.113 -0.246 0.254 v 0.055 c 0 -0.137 0.109 -0.254 0.246 -0.254 h 5.254 c 0.137 0 0.246 0.117 0.246 0.254 v -0.055 c 0 -0.141 -0.109 -0.254 -0.246 -0.254" fill="#fff"/></g><path d="m 6.227 9.238 c -0.035 0.137 0.035 0.273 0.156 0.309 l 4.863 1.348 c 0.125 0.031 0.254 -0.051 0.289 -0.188 l 1.145 -4.402 c 0.035 -0.137 -0.035 -0.277 -0.156 -0.309 l -4.863 -1.348 c -0.125 -0.035 -0.254 0.051 -0.289 0.188" fill="#ea4335"/><g fill-opacity="0.2"><g fill="#3d2722"><path d="m 11.867 9.492 l -0.258 0.984 v -2.59"/><path d="m 9 5.078 l 0.145 0.988 l -0.375 -1.051"/></g><path d="m 12.523 5.996 l -4.863 -1.348 c -0.125 -0.035 -0.254 0.051 -0.285 0.188 l -1.148 4.402 c 0 0.008 -0.004 0.016 -0.004 0.02 l 1.137 -4.367 c 0.035 -0.137 0.164 -0.223 0.285 -0.188 l 4.867 1.348 c 0.113 0.031 0.184 0.156 0.16 0.285 l 0.008 -0.031 c 0.035 -0.137 -0.035 -0.277 -0.156 -0.309" fill="#fff"/></g><path d="m 10.06 8.695 c 0.047 0.133 -0.012 0.277 -0.133 0.32 l -5.133 1.926 c -0.117 0.043 -0.254 -0.027 -0.301 -0.16 l -1.516 -4.285 c -0.047 -0.129 0.012 -0.277 0.133 -0.32 l 5.133 -1.922 c 0.117 -0.047 0.254 0.027 0.301 0.16" fill="#ffc106"/><path d="m 2.996 6.551 c -0.047 -0.133 0.012 -0.277 0.133 -0.32 l 5.133 -1.926 c 0.117 -0.043 0.25 0.027 0.301 0.156 l -0.02 -0.047 c -0.047 -0.133 -0.18 -0.207 -0.301 -0.16 l -5.133 1.922 c -0.117 0.043 -0.176 0.191 -0.129 0.32 l 1.512 4.285 c 0 0 0.004 0.004 0.004 0.004" fill="#fff" fill-opacity="0.2"/><path d="m 11.586 11.781 c 0 0.141 -0.113 0.254 -0.25 0.254 h -7.02 c -0.137 0 -0.25 -0.113 -0.25 -0.254 v -5.465 c 0 -0.141 0.113 -0.254 0.25 -0.254 h 7.02 c 0.137 0 0.25 0.113 0.25 0.254" fill="#4285f4"/><path d="m 10.246 8.223 h -2.102 v -0.566 h 2.102 c 0.063 0 0.109 0.051 0.109 0.113 v 0.34 c 0 0.063 -0.047 0.113 -0.109 0.113 m 0 2.164 h -2.102 v -0.57 h 2.102 c 0.063 0 0.109 0.051 0.109 0.113 v 0.344 c 0 0.063 -0.047 0.113 -0.109 0.113 m 0.332 -1.082 h -2.434 v -0.566 h 2.434 c 0.063 0 0.109 0.051 0.109 0.113 v 0.34 c 0 0.063 -0.047 0.113 -0.109 0.113" fill="#fff"/><g fill-opacity="0.2"><path d="m 11.336 11.98 h -7.02 c -0.137 0 -0.25 -0.117 -0.25 -0.258 v 0.059 c 0 0.141 0.113 0.254 0.25 0.254 h 7.02 c 0.137 0 0.25 -0.113 0.25 -0.254 v -0.059 c 0 0.141 -0.113 0.258 -0.25 0.258" fill="#19227e"/><path d="m 4.316 6.121 h 7.02 c 0.137 0 0.25 0.113 0.25 0.254 v -0.055 c 0 -0.141 -0.113 -0.258 -0.25 -0.258 h -7.02 c -0.137 0 -0.25 0.117 -0.25 0.258 v 0.055 c 0 -0.141 0.113 -0.254 0.25 -0.254" fill="#fff"/></g><path d="m 6.266 8.793 v 0.512 h 0.715 c -0.059 0.313 -0.328 0.539 -0.715 0.539 c -0.434 0 -0.785 -0.375 -0.785 -0.824 c 0 -0.445 0.352 -0.824 0.785 -0.824 c 0.195 0 0.371 0.07 0.508 0.203 l 0.379 -0.387 c -0.23 -0.223 -0.527 -0.355 -0.887 -0.355 c -0.734 0 -1.328 0.609 -1.328 1.363 c 0 0.754 0.594 1.367 1.328 1.367 c 0.766 0 1.27 -0.555 1.27 -1.336 c 0 -0.09 -0.008 -0.176 -0.02 -0.258" fill="#fff"/><use xlink:href="#3" mask="url(#1)"/><path d="m 10.355 8.168 v -0.059 c 0 0.063 -0.051 0.113 -0.109 0.113 h -2.102 v 0.059 h 2.102 c 0.059 0 0.109 -0.051 0.109 -0.113 m -0.109 2.219 h -2.102 v 0.055 h 2.102 c 0.059 0 0.109 -0.051 0.109 -0.113 v -0.055 c 0 0.063 -0.051 0.113 -0.109 0.113 m 0.332 -1.082 h -2.434 v 0.055 h 2.434 c 0.059 0 0.109 -0.051 0.109 -0.113 v -0.055 c 0 0.063 -0.051 0.113 -0.109 0.113" fill="#19227e" fill-opacity="0.2"/></svg>