<svg xmlns="http://www.w3.org/2000/svg" viewBox="0 0 16 16"><path d="m 14.219 12.168 c 5.699 -8.137 -4.828 -16.379 -11.543 -9.75 c -6.324 6.246 -0.461 15.949 7.414 12.914 c 1.641 -0.633 3.082 -1.672 4.129 -3.164" fill="#86ceeb"/><path d="m 8.125 10.402 c -0.051 -0.055 -0.031 -0.422 0.043 -0.762 c 0.16 -0.773 0.621 -1.5 1.313 -2.078 c 0.336 -0.285 0.34 -0.285 0.332 -0.504 c -0.004 -0.121 -0.051 -0.332 -0.105 -0.469 c -0.133 -0.344 -0.164 -0.875 -0.074 -1.227 c 0.133 -0.508 0.559 -1.047 0.887 -1.117 c 0.07 -0.016 0.129 -0.047 0.129 -0.07 c 0 -0.027 0.117 -0.047 0.258 -0.047 c 0.496 0 1.012 0.398 1.246 0.957 c 0.113 0.273 0.129 0.367 0.129 0.785 c 0 0.426 -0.016 0.504 -0.137 0.773 c -0.203 0.453 -0.172 0.566 0.25 0.918 c 0.188 0.156 0.453 0.422 0.594 0.59 c 0.441 0.543 0.809 1.48 0.781 1.992 l -0.012 0.266 l -2.801 0.016 c -1.539 0.004 -2.813 -0.004 -2.832 -0.023" fill="#4581b3"/><path d="m 1.844 10.813 c -0.051 -0.055 -0.031 -0.426 0.039 -0.766 c 0.156 -0.785 0.602 -1.516 1.273 -2.102 c 0.324 -0.285 0.328 -0.289 0.32 -0.512 c -0.004 -0.121 -0.051 -0.332 -0.102 -0.473 c -0.129 -0.344 -0.16 -0.879 -0.07 -1.234 c 0.129 -0.516 0.539 -1.055 0.855 -1.129 c 0.07 -0.016 0.125 -0.047 0.125 -0.074 c 0 -0.023 0.113 -0.043 0.25 -0.043 c 0.48 0 0.98 0.398 1.207 0.965 c 0.109 0.277 0.125 0.371 0.125 0.793 c 0 0.43 -0.016 0.508 -0.133 0.781 c -0.195 0.457 -0.164 0.57 0.242 0.926 c 0.184 0.16 0.441 0.426 0.574 0.598 c 0.43 0.547 0.785 1.492 0.758 2.01 l -0.012 0.266 l -2.711 0.016 c -1.492 0.008 -2.727 -0.004 -2.742 -0.023" fill="#b954d2"/><path d="m 4.418 11.652 c -0.063 -0.066 -0.039 -0.477 0.047 -0.855 c 0.191 -0.871 0.738 -1.688 1.563 -2.34 c 0.398 -0.316 0.402 -0.32 0.395 -0.566 c -0.004 -0.137 -0.059 -0.375 -0.125 -0.527 c -0.16 -0.387 -0.195 -0.98 -0.086 -1.379 c 0.156 -0.57 0.664 -1.172 1.051 -1.254 c 0.086 -0.016 0.152 -0.055 0.152 -0.082 c 0 -0.027 0.141 -0.047 0.309 -0.047 c 0.59 0 1.203 0.445 1.48 1.074 c 0.137 0.309 0.156 0.41 0.156 0.879 c 0 0.48 -0.02 0.566 -0.16 0.871 c -0.242 0.508 -0.207 0.637 0.297 1.031 c 0.223 0.176 0.539 0.477 0.703 0.664 c 0.523 0.609 0.961 1.66 0.93 2.238 l -0.016 0.301 l -3.332 0.016 c -1.828 0.008 -3.344 -0.004 -3.363 -0.023" fill="#00bfff"/><g fill="#ffd600" fill-rule="evenodd" stroke="#ffd600"><path d="m 154.78 95.43 c 0 14.508 -10.521 26.18 -23.488 26.18 c -12.91 0 -23.431 -11.672 -23.431 -26.18 c 0 -14.454 10.521 -26.18 23.431 -26.18 c 12.967 0 23.488 11.727 23.488 26.18" transform="matrix(0.06868 0 0 0.07162 -1.244 -0.471)"/><path d="m 154.76 95.48 c 0 14.414 -10.47 26.16 -23.456 26.16 c -12.918 0 -23.456 -11.747 -23.456 -26.16 c 0 -14.477 10.538 -26.22 23.456 -26.22 c 12.986 0 23.456 11.747 23.456 26.22" transform="matrix(0.05745 0 0 0.06152 3.374 -0.179)"/><path d="m 154.73 95.42 c 0 14.458 -10.455 26.24 -23.399 26.24 c -12.944 0 -23.47 -11.778 -23.47 -26.24 c 0 -14.458 10.526 -26.17 23.47 -26.17 c 12.944 0 23.399 11.716 23.399 26.17" transform="matrix(0.05492 0 0 0.06268 -2.631 0.202)"/></g></svg>