<svg xmlns="http://www.w3.org/2000/svg" viewBox="0 0 16 16"><path d="m 1.168 3.887 c 12.09 -14.09 23.711 14.871 5.02 11.898 c -4.102 -0.652 -8.273 -8.105 -5.02 -11.898" fill="#684545"/><path d="m 4.914 11.914 c 0 -0.059 0.008 -0.508 0.063 -0.527 c 0.055 -0.02 0.52 -0.035 1.031 -0.035 c 0.648 0 0.961 -0.023 1.012 -0.07 c 0.102 -0.098 0.09 -0.43 -0.016 -0.516 c -0.098 -0.074 -2.215 -0.055 -2.602 0.027 l -0.199 0.043 v -3.203 c 0 -1.766 0.02 -3.203 0.047 -3.199 c 0.164 0.023 0.266 -0.027 0.297 -0.152 l 0.039 -0.148 c 1.02 0 2.039 0 3.059 0 v 0.203 c 0 0.164 0.039 0.219 0.211 0.324 c 0.117 0.066 0.289 0.215 0.387 0.324 l 0.172 0.203 l 0.984 -0.055 c 0.953 -0.051 0.988 -0.051 1.23 0.074 c 0.211 0.113 0.246 0.16 0.262 0.355 c 0.02 0.199 0.051 0.234 0.277 0.336 c 0.141 0.059 0.359 0.109 0.484 0.113 c 0.453 0 0.418 -0.184 0.418 2.375 v 2.301 l -0.211 0.035 c -0.113 0.016 -0.473 0.016 -0.797 -0.004 c -0.512 -0.027 -0.605 -0.02 -0.711 0.074 c -0.148 0.129 -0.16 0.34 -0.023 0.465 c 0.074 0.074 0.199 0.094 0.574 0.078 c 0.484 -0.016 0.652 0.051 0.676 0.227 c 0.102 0.707 -0.477 0.527 -3.281 0.527 c -3.246 0 -3.383 -0.066 -3.383 -0.176 m 4.789 -0.961 c -0.008 -0.453 0.148 -0.703 -1.168 -0.672 c -1.047 0.027 -0.988 0.488 -0.852 0.773 c 0.078 0.16 2.023 0.305 2.02 -0.102 m -3.379 -1.242 c 0.051 -0.191 0.027 -1.414 0 -1.855 c -0.039 -0.543 -0.027 -0.656 0.051 -0.723 c 0.145 -0.113 4.461 -0.094 4.582 0.02 c 0.059 0.055 0.094 0.297 0.109 0.805 c 0.027 0.746 -0.23 2.117 0.258 1.984 c 0.117 -0.031 0.125 -1.266 0.141 -2.246 c 0.008 -0.645 -0.008 -0.945 -0.059 -0.992 c -0.055 -0.051 -0.773 -0.066 -2.762 -0.059 c -2.477 0.012 -2.695 0.02 -2.77 0.113 c -0.105 0.141 -0.098 3.062 0.016 3.191 c 0.121 0.145 0.352 0.074 0.434 -0.238 m -1.051 -3.668 l 0.18 -0.227 l 2.426 0.043 c 1.707 0.027 2.445 0.02 2.504 -0.023 c 0.086 -0.137 0.031 -0.234 -0.012 -0.383 h -1.297 c -0.871 0 -1.324 -0.02 -1.367 -0.066 c -0.039 -0.035 -0.078 -0.176 -0.086 -0.313 c -0.035 -0.43 -0.066 -0.438 -1.438 -0.461 c -0.988 -0.016 -1.234 -0.004 -1.332 0.066 c -0.113 0.082 -0.121 0.156 -0.109 1.371 c 0.004 0.703 0.039 1.598 0.074 1.984 c 0.035 0.387 -0.039 1.523 -0.039 1.629 c 0.004 0.23 -0.012 0.355 0.266 0.219 c 0.348 -0.016 0.156 -2.824 0.23 -3.844" fill="#9c8edd"/></svg>