<svg xmlns="http://www.w3.org/2000/svg" viewBox="0 0 16 16"><path d="m 12.156 1.25 c 13.926 12.02 -14.703 23.578 -11.762 4.988 c 0.645 -4.078 8.01 -8.227 11.762 -4.988" fill="#9782c1"/><g transform="matrix(0.04502 0 0 0.04433 2.452 2.677)"><path d="m 103.02 214.12 c 0 -1.498 20.22 -29.08 32.623 -44.42 c 9.457 -11.721 12.928 -18.242 9.718 -18.331 c -10.846 3.613 -18.915 6.874 -30.28 11.192 l -26.463 14.277 c -4.078 2.203 5.987 -14.717 7.462 -16.13 c 0.954 -0.969 25.596 -13.924 41.13 -21.503 c 18.654 -5.905 55.44 -30.845 70.887 -31.902 c 5.466 0 5.987 0.264 6.334 3.525 c 0.26 2.644 -1.301 5.464 -6.594 11.368 c -8.243 9.342 -31.409 28.2 -32.797 26.703 c -17.09 15.334 -5.726 6.962 -19.956 18.771 c -13.535 11.1 -22.472 19.917 -39.825 39.745 c -4.078 4.583 -7.982 7.755 -9.544 7.755 c -1.475 0 -2.69 -0.441 -2.69 -1.058" fill="#ec2033" stroke="#ec2033" stroke-width="1.733"/><path d="m 199.59 80.25 l 0.781 -7.843 c 0.521 -4.318 1.388 -11.192 2.082 -15.422 c 0.781 -4.847 0.694 -8.108 -0.087 -9.253 c -0.868 -1.146 2.516 -31.29 4.772 -33.665 c 4.078 -4.054 2.343 25.821 4.338 37.19 c 2.776 16.215 5.726 27.584 8.156 31.99 c 4.599 10.487 -15.791 -0.969 -20.04 -2.996" fill="#75ef2a" stroke="#75ef2a" stroke-width="1.761"/></g><g transform="scale(0.0625 0.0625)"><g fill="#04315f" stroke="#04315f" stroke-width="1.228"><path d="m 165.12 118.06 c 4.437 -2.062 15.375 -6.75 15.687 -7.562 c 0.375 -0.937 -0.937 -3.062 -3.625 -6 c -4.687 -5 -6.875 -8.5 -5.937 -9.437 c 0.312 -0.375 2.625 1.062 5.5 2.062 c 28.437 12.75 49.562 0.562 43.12 9.75 c -1.437 2.25 -24.5 27.25 -25.875 27.25 c -0.437 0 2.312 -8.687 2.312 -10.937 c 0 -3.062 -1.625 -5.312 -4.562 -6.312 c -3.812 -1.375 -5.312 -0.375 -15.437 4.375 c -4.875 2.25 -20.312 9.562 -20.437 9.562 c -2.875 -6.875 2.375 -9.562 9.25 -12.75"/><path d="m 107.49 149.87 c -0.937 -0.625 -0.5 -1.375 1.937 -3.187 c 9.375 -7.125 40.31 -23.5 46.937 -24.812 c 13.12 -0.25 3.937 7.06 2.562 7.75 c -3.687 1.687 -18.25 8.06 -23.19 10.437 c -23.19 11.06 -25.19 11.75 -28.25 9.812"/></g><path d="m 55.05 135.12 l 0.187 -41.06 l 16.937 -17 l 17 -17 h 96.31 l -0.25 2.187 l -0.188 2.187 l -46.06 0.125 l -46.06 0.187 l -0.437 1.437 c -0.625 1.937 -0.625 21.625 0 24.375 l 0.437 2.125 h 70.19 l 7 -7.125 c 3.875 -3.937 8.562 -8.875 10.5 -10.937 l 3.437 -3.812 l 0.125 3.937 c 0.062 2.187 0.125 4.375 0.125 4.812 c 0.063 0.437 -0.437 0.75 -1 0.625 c -1.25 -0.187 -10.562 8.375 -10.562 9.687 c -3.5 6.625 -4.25 3.437 -1.75 3.812 c -1.812 0.625 -0.875 3.625 2.437 7.937 l 2.812 6 l -3.312 -0.125 c -1.5 -0.062 -4.125 -0.687 -6.875 -0.437 l -5.062 0.375 l 0.125 -9.75 l -32.19 -0.187 c -17.687 -0.063 -33.12 0.125 -34.31 0.437 l -2.125 0.5 l -0.063 6.25 c -0.063 5.75 1.687 7.937 -0.875 9.437 l -3.375 4 l -0.188 -6.625 c -0.125 -2.437 -0.437 -6.312 -0.437 -8.625 c 0 -3.375 -0.25 -4.25 -1.312 -4.812 c -1.375 -0.75 -21.937 -0.937 -24.5 -0.25 l -1.5 0.375 v 33.375 c 0 19 0.25 34.31 0.625 35.562 c 0.5 1.75 0.437 2.312 -0.375 2.625 c -0.562 0.187 -2.062 1.75 -3.312 3.375 l -2.312 3.062 m 116.81 -72.62 l -1.312 -3.812 c -1.625 -4.812 -2.687 -5.812 -3.625 -3.375 c -0.75 1.937 -0.875 8.5 -0.187 9.187 c 2.375 0.625 3.312 -0.562 5.125 -2 m -85.19 -11.25 c 0.875 -0.375 1 -2 1 -11.625 c 0 -6.687 -0.25 -11.25 -0.625 -11.25 c -0.812 0 -15.875 14.562 -19.375 18.687 c -1.5 1.75 -2.5 3.562 -2.312 3.937 c 0.5 0.687 19.437 0.937 21.312 0.25" fill="#202020" stroke="#202020" stroke-width="0.864"/></g><path d="m -3.269 233.15 c -3.731 -1.498 9.544 -19.564 17.01 -34.546 c 11.626 -23.09 22.646 -30.492 21.691 -14.541 c -0.26 5.376 0 6.081 2.95 6.081 c 1.822 0 8.937 -3.349 15.791 -7.491 c 9.631 -5.816 14.403 -7.755 21.431 -8.548 c 10.151 -1.234 18.13 0 13.969 3.084 c -1.475 1.058 -14.49 6.257 -23.687 11.457 c -21.865 12.338 -22.298 12.778 -15.618 16.13 c 4.338 2.203 9.284 3.789 8.07 6.081 c -2.169 4.23 -17.18 9.342 -26.03 11.1 c -11.193 2.115 -33.404 12.162 -35.573 11.192" transform="matrix(0.04502 0 0 0.04433 2.452 2.677)" fill="#ec2033" stroke="#ec2033" stroke-width="1.936"/><path d="m 85.93 200.31 c -19.25 -0.063 -19.562 -0.125 -16.687 -1.25 c 4.062 -3.812 10.187 -3.375 13.375 -2.937 c 4.062 0.562 16.375 0.5 23.875 -0.187 c 15.75 0.312 26.5 -0.125 35.687 -0.062 h 19.312 l -0.188 -13 c -0.187 -10.625 -0.375 -13.12 -1.187 -13.625 c -0.562 -0.312 -2.875 -0.625 -5.187 -0.625 c -2.312 0 -10.06 -0.25 -10 -0.5 c 3.312 -2.562 6.5 -6.312 9.125 -5.5 c 1.312 0.437 7.375 -0.187 7.375 -1.625 c 0 -0.5 -0.375 -5.937 0.687 -7.125 l 3 -3.437 l 1 8.625 c 0.437 4.375 -0.25 4.375 13.437 4.125 c 6.812 -0.125 12.625 -0.5 12.875 -0.75 c 0.312 -0.25 0.562 -5.937 0.625 -12.562 l 0.125 -12.06 l 1.937 -1.562 c 1.062 -0.812 2.125 -1.562 2.375 -1.562 c 0.25 0 0.5 7.06 0.5 15.687 v 15.687 l -12.562 13.12 c -6.937 7.187 -14.312 14.75 -16.437 16.812 l -3.937 3.75 l -23.5 0.437 c -27.5 -0.5 -44.875 0.312 -55.625 0.125 m 90.5 -17.75 c 9.75 -10.437 11.375 -12.5 10.5 -13.375 c -0.812 -0.812 -19.12 -0.562 -19.937 0.312 c -0.687 0.625 -1.187 19.937 -0.625 21.5 c 0.562 1.5 1.562 0.687 10.06 -8.437" transform="scale(0.0625 0.0625)" fill="#202020" stroke="#202020" stroke-width="0.864"/><path d="m 58.767 174.55 c -18.307 -1.498 -19 -1.674 -19 -5.552 c 0 -1.939 1.822 -8.548 3.904 -14.717 c 5.987 -17.18 33.06 -59.49 34.879 -56.31 c 0.347 0.529 -6.334 10.928 -7.982 18.419 c -4.165 18.859 -4.512 23.53 -1.649 24.15 c 1.301 0.176 4.859 -1.322 7.982 -3.525 c 3.037 -2.203 13.449 -8.813 23.08 -14.717 c 17.787 -10.928 30.11 -16.215 53.794 -22.913 c 7.375 -2.115 14.06 -4.23 14.75 -4.671 c 0.781 -0.441 27.418 -1.234 24.294 0.176 l -22.993 10.84 l -12.147 5.111 c -12.06 2.379 -21.431 10.311 -31.24 15.775 c -19.696 10.752 -38.437 23.18 -37.743 25.2 c 5.553 3.261 10.325 10.487 15.184 12.867 c 1.909 0.793 5.293 2.908 7.375 4.583 l 3.818 3.084 l -18.394 1.586 c -17.44 1.41 -26.2 1.586 -37.916 0.617" transform="matrix(0.04502 0 0 0.04433 2.452 2.677)" fill="#75ef2a" stroke="#75ef2a" stroke-width="1.718"/></svg>