<svg xmlns="http://www.w3.org/2000/svg" viewBox="0 0 16 16"><path d="m 12.11 1.344 c 14.09 11.945 -14.871 23.43 -11.898 4.957 c 0.652 -4.051 8.105 -8.176 11.898 -4.957" fill="#009cdf"/><path d="m 6.406 12.945 c -0.734 -0.074 -1.398 -0.262 -1.84 -0.52 c -0.332 -0.195 -0.719 -0.605 -0.922 -0.977 c -0.359 -0.668 -0.512 -1.309 -0.582 -2.445 c -0.055 -0.852 -0.012 -1.895 0.109 -2.543 c 0.258 -1.43 0.965 -2.203 2.301 -2.531 c 1.031 -0.25 3.02 -0.281 4.18 -0.063 c 1.363 0.258 2.098 0.852 2.465 2 c 0.391 1.215 0.371 3.73 -0.039 4.918 c -0.043 0.129 -0.164 0.402 -0.266 0.605 c -0.242 0.488 -0.68 0.922 -1.152 1.145 c -0.387 0.184 -1.09 0.355 -1.668 0.41 c -0.5 0.051 -2.105 0.051 -2.586 0 m 2.07 -1.695 c 1.086 -0.23 1.988 -1.02 2.367 -2.07 c 0.105 -0.297 0.125 -0.41 0.141 -0.867 c 0.016 -0.453 0.004 -0.578 -0.07 -0.859 c -0.242 -0.93 -0.883 -1.695 -1.754 -2.102 c -0.441 -0.203 -0.781 -0.281 -1.215 -0.289 l -0.359 -0.004 l -0.313 0.828 c -0.172 0.453 -0.305 0.836 -0.293 0.848 c 0.012 0.012 0.148 0.02 0.301 0.02 c 0.453 0 0.688 0.148 0.688 0.438 c 0 0.125 -0.789 2.336 -0.871 2.438 c -0.055 0.07 -0.738 0.066 -0.77 -0.008 c -0.012 -0.027 0.176 -0.559 0.418 -1.176 c 0.238 -0.621 0.426 -1.141 0.418 -1.156 c -0.012 -0.016 -0.105 -0.027 -0.215 -0.027 c -0.148 0 -0.199 0.016 -0.223 0.066 c -0.016 0.039 -0.207 0.559 -0.43 1.16 c -0.223 0.598 -0.422 1.109 -0.449 1.141 c -0.031 0.035 -0.141 0.047 -0.391 0.039 c -0.289 -0.008 -0.348 -0.023 -0.359 -0.078 c -0.008 -0.035 0.141 -0.465 0.328 -0.953 c 0.621 -1.605 1.281 -3.355 1.281 -3.398 c 0 -0.07 -0.082 -0.051 -0.43 0.113 c -0.867 0.406 -1.512 1.168 -1.754 2.082 c -0.102 0.375 -0.109 1.02 -0.02 1.426 c 0.223 1.027 1.027 1.91 2.07 2.281 c 0.164 0.059 0.301 0.098 0.309 0.09 c 0.031 -0.031 0.762 -1.895 1.406 -3.578 c 0.176 -0.461 0.34 -0.852 0.367 -0.867 c 0.027 -0.016 0.359 -0.031 0.734 -0.031 c 0.523 0 0.711 0.012 0.809 0.059 c 0.145 0.066 0.266 0.238 0.27 0.375 c 0 0.113 -0.754 2.156 -0.844 2.289 c -0.105 0.156 -0.285 0.199 -0.809 0.199 h -0.48 l -0.289 0.813 c -0.16 0.445 -0.289 0.824 -0.289 0.84 c 0 0.035 0.383 -0.004 0.719 -0.078 m 0.84 -3.035 c 0.188 -0.492 0.34 -0.91 0.34 -0.926 c 0 -0.016 -0.09 -0.027 -0.203 -0.027 c -0.246 0 -0.156 -0.184 -0.871 1.727 l -0.055 0.148 l 0.227 -0.012 l 0.223 -0.012" fill="#fff"/></svg>