<svg xmlns="http://www.w3.org/2000/svg" viewBox="0 0 16 16"><path d="m 2.105 13.527 c -9.07 -13.848 15.707 -19.21 13.734 -4.961 c -0.805 5.809 -10.266 10.258 -13.734 4.961" fill="#218b21"/><g stroke-linejoin="round"><g fill="none" stroke="#fff" transform="matrix(0.16321 0 0 0.16188 3.137 2.741)"><path d="m 14.427 50.27 v 5.622 h 24.24 v -5.622" stroke-linecap="round" stroke-width="6.868"/><path d="m 6.745 17.379 c -1.101 0 -1.986 0.893 -1.986 2 v 33.735 c 0 1.11 0.886 2 1.986 2 h 2.369 c 1.125 0 2.01 -0.893 2.01 -2 v -3.113 h 41.979 c 1.197 0 2.154 -0.965 2.154 -2.148 v -23.72 c 0 -1.207 -0.957 -2.172 -2.154 -2.172 h -41.979 v -2.582 c 0 -1.11 -0.886 -2 -2.01 -2" stroke-width="8.117"/></g><g fill="#fff" fill-rule="evenodd" stroke="#218b21" transform="matrix(0.15403 0 0 0.15277 3.388 2.979)"><path d="m 13.689 51.712 v 5.958 h 25.665 v -5.958" stroke-linecap="round" stroke-width="1.985"/><g stroke-width="3.308"><path d="m 10.01 21.719 c -1.268 0 -2.282 1.023 -2.282 2.276 v 25.16 c 0 1.278 1.014 2.301 2.282 2.301 h 44.634 c 1.268 0 2.282 -1.023 2.282 -2.301 v -25.16 c 0 -1.253 -1.014 -2.276 -2.282 -2.276"/><path d="m 5.523 16.835 c -1.167 0 -2.105 0.946 -2.105 2.122 v 35.772 c 0 1.176 0.938 2.122 2.105 2.122 h 2.511 c 1.192 0 2.13 -0.946 2.13 -2.122 v -35.772 c 0 -1.176 -0.938 -2.122 -2.13 -2.122"/></g></g></g><g fill="none" stroke="#218b21" stroke-width="2.108" transform="matrix(0.15403 0 0 0.15277 3.408 2.979)"><path d="m 18.803 51.43 v 6.213"/><path d="m 23.85 51.994 v 5.395"/><path d="m 28.897 51.994 v 5.395"/><path d="m 33.943 51.994 v 4.858"/></g><path d="m 11.266 6.352 c 0 -1.461 -1.191 -2.645 -2.664 -2.645 c -1.473 0 -2.668 1.184 -2.668 2.645 c 0 1.461 1.195 2.645 2.668 2.645 c 1.473 0 2.664 -1.184 2.664 -2.645" fill="#fff" fill-rule="evenodd"/><path d="m 33.478 4.372 c -9.789 0 -17.758 7.939 -17.758 17.736 c 0 9.797 7.97 17.736 17.758 17.736 c 9.789 0 17.735 -7.939 17.735 -17.736 c 0 -9.797 -7.946 -17.736 -17.735 -17.736 m -0.335 4.923 c 1.125 0 2.202 0.169 3.183 0.507 c 0.981 0.338 1.843 0.82 2.609 1.472 c 0.742 0.627 1.34 1.424 1.747 2.341 c 0.431 0.917 0.622 1.955 0.622 3.089 c 0 2.027 -0.479 3.571 -1.508 4.705 c -1.01 1.11 -2.393 1.834 -4.188 2.196 v 0.652 c 0 0.531 -0.12 0.989 -0.335 1.375 c -0.215 0.386 -0.527 0.7 -0.933 0.917 c -0.383 0.217 -0.814 0.338 -1.316 0.338 c -0.503 0 -0.933 -0.121 -1.34 -0.338 c -0.383 -0.217 -0.694 -0.531 -0.909 -0.917 c -0.215 -0.386 -0.335 -0.845 -0.335 -1.375 v -2.654 c 0 -0.555 0.12 -0.989 0.335 -1.279 c 0.215 -0.29 0.503 -0.483 0.838 -0.579 c 0.311 -0.121 0.814 -0.241 1.46 -0.338 c 1.675 -0.314 2.513 -1.158 2.513 -2.534 c 0 -0.579 -0.239 -1.062 -0.694 -1.52 c -0.431 -0.434 -1.029 -0.652 -1.747 -0.652 c -0.67 0 -1.197 0.121 -1.58 0.386 c -0.383 0.241 -0.742 0.627 -1.125 1.134 c -0.359 0.483 -0.718 0.845 -1.053 1.11 c -0.335 0.241 -0.814 0.362 -1.388 0.362 c -0.646 0 -1.221 -0.265 -1.675 -0.748 c -0.479 -0.507 -0.694 -1.086 -0.694 -1.762 c 0 -1.182 0.383 -2.244 1.149 -3.137 c 0.79 -0.893 1.747 -1.568 2.896 -2.027 c 1.173 -0.483 2.322 -0.724 3.47 -0.724 m -0.168 20.463 c 0.503 0 0.981 0.121 1.436 0.41 c 0.431 0.265 0.766 0.603 1.029 1.062 c 0.263 0.434 0.407 0.917 0.407 1.448 c 0 0.531 -0.144 1.013 -0.407 1.472 c -0.263 0.434 -0.598 0.772 -1.053 1.038 c -0.455 0.265 -0.909 0.386 -1.412 0.386 c -0.479 0 -0.957 -0.121 -1.412 -0.386 c -0.431 -0.265 -0.814 -0.603 -1.077 -1.038 c -0.263 -0.458 -0.383 -0.941 -0.383 -1.472 c 0 -0.531 0.12 -1.013 0.383 -1.448 c 0.263 -0.458 0.646 -0.796 1.077 -1.062 c 0.431 -0.29 0.909 -0.41 1.412 -0.41" transform="matrix(0.16321 0 0 0.16188 3.137 2.741)" fill="none" stroke="#fff" stroke-linejoin="round" stroke-width="7.492"/><g fill-rule="evenodd" stroke="#218b21" transform="matrix(0.16305 0 0 0.16172 3.143 2.742)"><path d="m 33.481 4.375 c -9.798 0 -17.776 7.947 -17.776 17.754 c 0 9.807 7.978 17.754 17.776 17.754 c 9.798 0 17.752 -7.947 17.752 -17.754 c 0 -9.807 -7.954 -17.754 -17.752 -17.754" fill="#fff" stroke-width="2.5"/><path d="m 33.15 8.988 c 1.126 0 2.204 0.169 3.186 0.507 c 0.982 0.338 1.845 0.797 2.611 1.449 c 0.743 0.652 1.342 1.425 1.749 2.367 c 0.431 0.918 0.647 1.957 0.647 3.068 c 0 2.029 -0.503 3.599 -1.533 4.71 c -1.01 1.111 -2.396 1.86 -4.169 2.222 v 0.652 c 0 0.507 -0.12 0.966 -0.359 1.377 c -0.216 0.386 -0.527 0.676 -0.934 0.918 c -0.383 0.217 -0.815 0.314 -1.318 0.314 c -0.503 0 -0.934 -0.097 -1.342 -0.314 c -0.383 -0.242 -0.671 -0.531 -0.91 -0.918 c -0.216 -0.411 -0.311 -0.87 -0.311 -1.377 v -2.657 c 0 -0.556 0.096 -0.99 0.311 -1.28 c 0.24 -0.29 0.503 -0.483 0.839 -0.604 c 0.311 -0.097 0.815 -0.217 1.461 -0.338 c 1.677 -0.314 2.516 -1.159 2.516 -2.536 c 0 -0.556 -0.24 -1.063 -0.695 -1.498 c -0.431 -0.459 -1.03 -0.676 -1.749 -0.676 c -0.671 0 -1.198 0.121 -1.581 0.386 c -0.383 0.266 -0.743 0.652 -1.102 1.135 c -0.383 0.483 -0.743 0.87 -1.078 1.111 c -0.335 0.266 -0.815 0.362 -1.39 0.362 c -0.647 0 -1.198 -0.242 -1.677 -0.749 c -0.479 -0.507 -0.695 -1.087 -0.695 -1.763 c 0 -1.184 0.383 -2.222 1.15 -3.116 c 0.791 -0.894 1.749 -1.57 2.899 -2.053 c 1.174 -0.483 2.324 -0.7 3.474 -0.7 m -0.168 20.459 c 0.527 0 0.982 0.145 1.437 0.411 c 0.431 0.266 0.767 0.628 1.03 1.087 c 0.264 0.435 0.407 0.918 0.407 1.425 c 0 0.531 -0.144 1.039 -0.407 1.498 c -0.264 0.435 -0.599 0.773 -1.054 1.039 c -0.455 0.242 -0.91 0.386 -1.413 0.386 c -0.479 0 -0.958 -0.145 -1.413 -0.386 c -0.431 -0.266 -0.791 -0.604 -1.078 -1.039 c -0.264 -0.459 -0.383 -0.966 -0.383 -1.498 c 0 -0.507 0.12 -0.99 0.383 -1.425 c 0.264 -0.459 0.647 -0.821 1.078 -1.087 c 0.455 -0.266 0.91 -0.411 1.413 -0.411" fill="#218b21" stroke-linejoin="round" stroke-width="1.25"/></g></svg>