<svg xmlns="http://www.w3.org/2000/svg" viewBox="0 0 16 16"><path d="m 0.184 6.242 c 0.992 -6.484 9.805 -8.219 13.695 -3.59 c 3.426 3.438 2.574 10.02 -1.629 12.277 c -4.824 3.02 -11.855 -0.711 -12.238 -6.723 c -0.039 -0.66 0.016 -1.324 0.172 -1.965" fill="#9ca1a4"/><path d="m 101.28 194.57 c 0.259 -1.051 0.453 -17.734 0.453 -37.18 l 0.065 -35.27 l 1.747 -0.591 c 4.01 -1.379 7.892 0.985 8.539 5.254 c 0.259 1.379 0.453 16.16 0.518 32.971 l 0.129 30.476 l -1.553 2.233 c -1.682 2.43 -4.787 3.941 -8.151 3.941 c -2.01 0 -2.135 -0.066 -1.747 -1.839 m 49.42 0.985 c -2.458 -1.248 -3.687 -3.153 -5.175 -5.32 l 0.129 -30.476 c 0.065 -16.814 0.259 -31.592 0.453 -32.971 c 0.712 -4.269 4.593 -6.634 8.539 -5.254 l 1.811 0.591 l 0.065 35.27 c 0 19.441 0.194 36.12 0.388 37.18 c 0.453 1.773 0.323 1.839 -1.811 1.839 c -1.488 -0.197 -3.04 -0.328 -4.399 -0.854 m -85.07 -58.19 c -1.941 -3.218 -3.17 -4.466 -5.693 -5.78 c -6.663 -3.481 -8.798 -5.846 -8.863 -9.852 c -0.065 -1.445 0.518 -2.562 2.07 -4.01 c 4.852 -4.598 5.693 -8.67 2.976 -14.06 c -0.97 -1.773 -1.682 -4.335 -1.682 -5.714 c 0 -3.02 1.682 -8.341 2.911 -9.195 c 11.903 -15.763 19.925 -33.3 39.07 -37.569 c 22.706 -12.151 44.38 -7.159 63.27 -2.496 c 12.162 4.86 20.83 15.369 29.887 24.1 c 4.464 4.992 7.698 11.691 11.256 15.96 c 1.294 0.854 2.976 6.174 2.976 9.195 c 0 1.379 -0.776 3.941 -1.682 5.714 c -2.717 5.386 -1.876 9.458 2.976 14.06 c 1.488 1.445 2.07 2.562 2.07 4.01 c -0.065 4.01 -2.199 6.371 -8.927 9.852 c -2.458 1.314 -3.687 2.562 -5.628 5.78 c -3.687 5.846 -7.504 11.494 -11.644 16.09 l -0.518 -3.941 c -0.582 -5.32 0.129 -9.13 2.135 -11.297 c 1.423 -1.905 2.523 -4.01 4.01 -5.451 c 2.976 -2.824 3.429 -4.466 2.394 -8.21 c -1.035 -3.678 -0.582 -4.992 2.911 -8.801 l 2.782 -3.02 v -5.583 c 0 -5.32 -0.065 -5.648 -2.199 -8.276 c -7.116 -12.09 -17.725 -23.514 -28.593 -29.16 c -11.45 -7.03 -26.26 -7.75 -34.803 -7.816 c -10.997 0 -13.391 0.197 -16.884 1.248 c -11.709 2.43 -22.965 8.735 -30.28 15.369 c -7.763 5.451 -11.386 14.384 -16.237 20.361 c -2.07 2.627 -2.199 2.956 -2.199 8.276 v 5.583 l 2.846 3.02 c 3.493 3.809 3.946 5.123 2.911 8.801 c -1.035 3.612 -0.582 5.517 1.876 7.75 c 2.135 1.839 3.429 4.466 5.175 6.699 c 1.423 1.839 2.135 7.947 1.294 11.757 l -0.582 2.496 c -4.528 -5.123 -7.892 -10.246 -11.386 -15.895 m -3.04 -12.742 c 0.712 -0.328 1.294 -1.117 1.294 -1.773 c 0 -5.189 -4.916 -3.415 -5.305 -0.788 c -0.453 2.956 1.1 3.941 4.01 2.562 m 138.63 -2.167 c 0 -1.773 -2.782 -3.941 -4.01 -4.072 c -1.941 -0.263 -2.846 2.956 -2.846 4.466 c 0 1.314 1.876 2.43 3.752 2.233 c 1.035 -0.066 3.105 -0.92 3.105 -2.627" transform="matrix(0.06038 0 0 0.05947 0.24 0.729)" fill="#34495f" stroke="#34495f"/><g fill="#f4c60d"><path d="m 9.867 10.08 c 0 -2.09 0.02 -2.215 0.344 -2.215 c 0.68 0 0.926 0.715 0.793 2.32 c -0.129 1.559 -0.344 2.102 -0.832 2.102 c -0.273 0 -0.305 -0.211 -0.305 -2.211"/><path d="m 5.512 11.988 c -0.172 -0.191 -0.305 -0.816 -0.375 -1.742 c -0.125 -1.617 0.074 -2.258 0.723 -2.352 c 0.379 -0.051 0.383 -0.031 0.383 2.172 c 0 2.324 -0.109 2.617 -0.73 1.922"/></g></svg>