<svg xmlns="http://www.w3.org/2000/svg" viewBox="0 0 16 16"><path d="m 14.15 13.156 c 3.895 -5.949 0.75 -11.371 -3.656 -12.66 c -5.93 -1.73 -13.984 2.816 -8.676 12.191 c 2.105 3.723 9.559 4.707 12.332 0.469" fill="#fffacd"/><path d="m 8.297 13.844 c -0.063 -0.023 -0.211 -0.043 -0.336 -0.043 c -0.25 -0.008 -0.422 -0.047 -0.422 -0.098 c 0 -0.016 0.227 -0.055 0.5 -0.082 c 0.711 -0.07 0.758 -0.082 1.305 -0.355 c 0.566 -0.281 0.996 -0.633 1.301 -1.055 c 0.203 -0.281 0.504 -0.895 0.504 -1.027 c 0 -0.117 -0.082 -0.07 -0.109 0.07 c -0.016 0.074 -0.059 0.16 -0.094 0.191 c -0.035 0.027 -0.063 0.074 -0.063 0.098 c 0 0.039 -0.148 0.27 -0.246 0.387 c -0.023 0.027 -0.102 0.121 -0.172 0.203 c -0.207 0.242 -0.188 0.121 0.027 -0.191 c 0.383 -0.563 0.539 -1.09 0.535 -1.84 c 0 -0.445 -0.02 -0.59 -0.117 -0.906 c -0.285 -0.902 -0.957 -1.598 -1.828 -1.891 c -0.309 -0.105 -0.445 -0.121 -0.898 -0.125 c -0.469 0 -0.574 0.012 -0.863 0.121 c -0.461 0.172 -0.688 0.324 -1.035 0.68 c -0.492 0.512 -0.75 1.152 -0.75 1.859 c 0 0.742 0.238 1.309 0.84 1.988 c 0.379 0.43 0.586 0.773 0.648 1.082 c 0.133 0.633 -1.18 0.77 -1.82 0.188 c -0.453 -0.414 -0.898 -1.164 -1.117 -1.887 c -0.145 -0.469 -0.199 -1.344 -0.117 -1.871 c 0.246 -1.637 1.434 -2.992 3.01 -3.445 c 0.516 -0.148 1.578 -0.148 2.098 0 c 1.137 0.324 2.09 1.133 2.582 2.191 c 0.242 0.523 0.316 0.801 0.383 1.398 c 0.105 0.918 -0.148 1.922 -0.688 2.742 c -0.246 0.379 -0.625 0.746 -1.074 1.055 c -0.398 0.273 -0.602 0.367 -1.113 0.516 c -0.215 0.059 -0.75 0.09 -0.871 0.047 m -2.563 -8.863 c -0.555 -0.121 -1.258 -0.363 -1.391 -0.484 l -0.113 -0.098 l 0.105 -0.16 c 0.188 -0.281 0.48 -0.684 0.52 -0.707 c 0.02 -0.012 0.258 0.039 0.523 0.113 c 1.164 0.324 1.898 0.434 2.852 0.43 c 0.805 -0.004 1.199 -0.055 1.938 -0.254 c 0.555 -0.152 0.973 -0.32 1.496 -0.598 c 0.449 -0.242 0.547 -0.234 0.281 0.02 c -0.668 0.637 -1.93 1.328 -2.914 1.598 c -0.887 0.242 -2.5 0.313 -3.297 0.141" fill="#2e2e2e"/></svg>