<svg xmlns="http://www.w3.org/2000/svg" viewBox="0 0 16 16"><path d="m 3.855 1.719 c 6.04 -5.03 13.08 3.453 11.957 11.07 c -0.801 5.676 -16.758 3.391 -15.688 -4.852 c 0.316 -2.453 1.758 -4.578 3.73 -6.219" fill="#c71485"/><path d="m 5.348 3.5 c -0.184 0 -0.355 0.191 -0.355 0.398 v 8.332 c 0 0.191 0.184 0.395 0.355 0.395 h 5.707 c 0.172 0 0.355 -0.203 0.355 -0.395 v -6.152 l -2.316 -2.578" fill="#e5e5e5"/><g fill-opacity="0.2"><path d="m 5.348 3.5 c -0.184 0 -0.355 0.191 -0.355 0.398 v 0.199 c 0 -0.203 0.172 -0.395 0.355 -0.395 h 3.746 l 2.316 2.578 v -0.203 l -2.316 -2.578" fill="#fff"/><path d="m 4.992 12.03 v 0.199 c 0 0.195 0.184 0.398 0.355 0.398 h 5.707 c 0.172 0 0.355 -0.203 0.355 -0.398 v -0.199 c 0 0.191 -0.184 0.395 -0.355 0.395 h -5.707 c -0.172 0 -0.355 -0.203 -0.355 -0.395"/></g><path d="m 10.25 4.789 l -1.043 1.164 l 2.207 2.527 v -2.402" fill="#ccc"/><path d="m 5.379 4.746 v -0.234 c 0 -0.316 0.258 -0.574 0.582 -0.574 h 2.348 c 0.32 0 0.582 0.258 0.582 0.574 v 0.234 c 0 0.316 -0.262 0.574 -0.582 0.574 h -2.348 c -0.324 0 -0.582 -0.258 -0.582 -0.574" fill="#272934"/><path d="m 6.848 4.188 c -0.074 0 -0.141 0.031 -0.195 0.09 l 0.035 0.141 c 0.047 -0.043 0.09 -0.063 0.133 -0.063 c 0.055 0 0.09 0.039 0.09 0.098 c 0 0.094 -0.09 0.211 -0.238 0.375 v 0.133 h 0.402 v -0.164 h -0.195 c 0.121 -0.129 0.18 -0.25 0.18 -0.371 c 0 -0.145 -0.082 -0.238 -0.211 -0.238 m 0.477 0 c -0.066 0 -0.133 0.023 -0.195 0.066 l 0.031 0.145 c 0.051 -0.031 0.098 -0.047 0.137 -0.047 c 0.051 0 0.082 0.027 0.082 0.07 c 0 0.051 -0.039 0.082 -0.102 0.082 h -0.039 v 0.145 h 0.039 c 0.082 0 0.133 0.035 0.133 0.09 c 0 0.047 -0.035 0.07 -0.098 0.07 c -0.051 0 -0.105 -0.012 -0.152 -0.039 l -0.035 0.148 c 0.063 0.039 0.113 0.055 0.18 0.055 c 0.152 0 0.254 -0.09 0.254 -0.223 c 0 -0.098 -0.047 -0.172 -0.121 -0.191 c 0.055 -0.02 0.09 -0.082 0.09 -0.168 c 0 -0.125 -0.074 -0.203 -0.203 -0.203 m -1.336 0.012 l -0.262 0.527 v 0.098 h 0.258 v 0.145 h 0.141 v -0.145 h 0.098 v -0.16 h -0.098 v -0.465 m 0.352 0 l -0.23 0.152 l 0.055 0.137 l 0.117 -0.066 v 0.539 h 0.141 v -0.762 m 1.305 0 l -0.262 0.527 v 0.098 h 0.258 v 0.145 h 0.141 v -0.145 h 0.098 v -0.16 h -0.098 v -0.465 m 0.18 0 l -0.016 0.445 c 0.035 -0.008 0.082 -0.012 0.117 -0.012 c 0.082 0 0.133 0.035 0.133 0.098 c 0 0.051 -0.035 0.078 -0.098 0.078 c -0.051 0 -0.105 -0.016 -0.145 -0.043 l -0.039 0.148 c 0.055 0.039 0.117 0.059 0.184 0.059 c 0.148 0 0.246 -0.098 0.246 -0.262 c 0 -0.148 -0.078 -0.227 -0.215 -0.227 c -0.012 0 -0.023 0 -0.031 0 l 0.004 -0.121 h 0.211 v -0.164 m -2.547 0.211 v 0.254 h -0.117 m 1.992 -0.254 v 0.254 h -0.117" fill="#35b9a2"/><path d="m 5.727 3.781 c -0.184 0 -0.332 0.32 -0.332 0.711 v 0.246 c 0 -0.395 0.148 -0.711 0.332 -0.711 h 2.836 c 0.184 0 0.328 0.316 0.328 0.711 v -0.246 c 0 -0.391 -0.145 -0.711 -0.328 -0.711" fill-opacity="0.502"/><path d="m 9.09 3.5 l 2.316 2.578 h -1.961 c -0.172 0 -0.355 -0.203 -0.355 -0.395" fill="#f4f4f4"/><path d="m 5.832 7.434 h 3.43 v 1.273 h -3.43" fill="#fff"/><path d="m 5.578 7.637 h -0.172 c -0.066 0.043 -0.125 0.066 -0.223 0.086 v 0.145 h 0.16 v 0.453 h -0.184 v 0.188 h 0.57 v -0.188 h -0.152 m 0.727 -0.684 h -0.172 c -0.063 0.043 -0.125 0.066 -0.223 0.086 v 0.145 h 0.16 v 0.453 h -0.18 v 0.188 h 0.566 v -0.188 h -0.152 m 0.727 -0.684 h -0.168 c -0.066 0.043 -0.129 0.066 -0.227 0.086 v 0.145 h 0.164 v 0.453 h -0.184 v 0.188 h 0.566 v -0.188 h -0.152 m 0.586 -0.699 c -0.188 0 -0.316 0.148 -0.316 0.449 c 0 0.297 0.129 0.453 0.316 0.453 c 0.191 0 0.32 -0.156 0.32 -0.453 c 0 -0.297 -0.129 -0.449 -0.32 -0.449 m 0 0.723 c -0.051 0 -0.098 -0.043 -0.098 -0.273 c 0 -0.234 0.047 -0.27 0.098 -0.27 c 0.055 0 0.102 0.035 0.102 0.27 c 0 0.23 -0.047 0.273 -0.102 0.273 m 0.73 -0.723 c -0.191 0 -0.32 0.148 -0.32 0.449 c 0 0.297 0.129 0.453 0.32 0.453 c 0.188 0 0.316 -0.156 0.316 -0.453 c 0 -0.297 -0.129 -0.449 -0.316 -0.449 m 0 0.723 c -0.055 0 -0.102 -0.043 -0.102 -0.273 c 0 -0.234 0.047 -0.27 0.102 -0.27 c 0.055 0 0.098 0.035 0.098 0.27 c 0 0.23 -0.043 0.273 -0.098 0.273 m 0.727 -0.723 c -0.188 0 -0.316 0.148 -0.316 0.449 c 0 0.297 0.129 0.453 0.316 0.453 c 0.188 0 0.316 -0.156 0.316 -0.453 c 0 -0.297 -0.129 -0.449 -0.316 -0.449 m 0 0.723 c -0.055 0 -0.102 -0.043 -0.102 -0.273 c 0 -0.234 0.047 -0.27 0.102 -0.27 c 0.055 0 0.098 0.035 0.098 0.27 c 0 0.23 -0.043 0.273 -0.098 0.273" fill="#b8174c" fill-rule="evenodd"/><path d="m 12.891 11.863 l -2.688 -1.875 c -0.191 -0.133 -0.43 -0.148 -0.629 -0.063 c 0.512 -1.051 0.203 -2.352 -0.777 -3.035 c -1.078 -0.75 -2.566 -0.473 -3.316 0.617 c -0.363 0.527 -0.5 1.168 -0.387 1.801 c 0.109 0.633 0.461 1.18 0.984 1.543 c 0.52 0.363 1.152 0.5 1.781 0.383 c 0.512 -0.094 0.965 -0.348 1.313 -0.723 c -0.008 0.219 0.09 0.434 0.281 0.566 l 2.691 1.875 c 0.297 0.207 0.703 0.129 0.91 -0.172 c 0.207 -0.301 0.133 -0.711 -0.164 -0.918 m -4.09 -2.039 c -0.523 0.762 -1.563 0.953 -2.313 0.43 c -0.754 -0.523 -0.938 -1.57 -0.418 -2.332 c 0.523 -0.762 1.563 -0.953 2.316 -0.43 c 0.363 0.254 0.605 0.637 0.684 1.078 c 0.078 0.438 -0.016 0.883 -0.27 1.254" fill-opacity="0.302"/><path d="m 12.898 11.555 l -2.691 -1.875 c -0.191 -0.133 -0.426 -0.148 -0.625 -0.063 c 0.512 -1.051 0.199 -2.352 -0.777 -3.035 c -1.082 -0.75 -2.57 -0.473 -3.316 0.617 c -0.363 0.527 -0.504 1.168 -0.391 1.801 c 0.113 0.633 0.465 1.18 0.984 1.543 c 0.523 0.363 1.156 0.5 1.781 0.383 c 0.512 -0.094 0.969 -0.348 1.316 -0.723 c -0.008 0.219 0.09 0.434 0.281 0.566 l 2.688 1.875 c 0.297 0.207 0.707 0.129 0.914 -0.172 c 0.207 -0.301 0.133 -0.711 -0.164 -0.918 m -4.09 -2.039 c -0.523 0.762 -1.562 0.953 -2.316 0.426 c -0.75 -0.523 -0.938 -1.566 -0.414 -2.328 c 0.523 -0.762 1.563 -0.957 2.313 -0.43 c 0.363 0.254 0.609 0.637 0.688 1.074 c 0.078 0.441 -0.02 0.887 -0.27 1.258" fill="#272934"/><path d="m 7.445 6.984 c -1.172 -0.035 -1.84 0.719 -1.746 1.66 c 0 0.098 0.109 0.188 0.125 0.285 c 1.238 -2.16 3.086 -0.672 3.223 0.078 c 0.027 -0.117 0.043 -0.242 0.043 -0.375 c 0 -0.91 -0.738 -1.648 -1.645 -1.648" fill="#abc0c7" fill-opacity="0.4"/></svg>