<svg xmlns="http://www.w3.org/2000/svg" viewBox="0 0 16 16"><path d="m 7.996 0.137 c 10.555 -1.199 10.41 15.996 -0.188 15.793 c -9.855 0.566 -10.742 -16.73 0.188 -15.793" fill="#b9c5e5"/><g stroke="#fff"><path d="m 119.06 199.25 c -2.375 -0.438 -2.813 -1.438 -3.313 -8.06 c -0.313 -3.875 -0.813 -6.06 -1.5 -6.875 c -0.875 -1 -14.875 -6.75 -16.5 -6.75 c -0.313 0 -2.5 1.188 -4.813 2.75 c -2.313 1.5 -4.625 2.75 -5.125 2.75 c -1.25 0 -10.688 -8.5 -13.563 -12.12 c -2.438 -3.188 -2.438 -3.25 1.875 -8.188 c 1.563 -1.813 2.875 -3.438 2.875 -3.688 c 0 -1.375 -7.125 -15.75 -8.25 -16.688 c -0.875 -0.688 -2.375 -1.063 -4.438 -1.063 c -3.063 0 -5.938 -1 -7.25 -2.625 c -0.813 -0.938 0.063 -19.313 0.938 -20.19 c 0.25 -0.25 2.75 -0.813 5.5 -1.25 c 2.75 -0.375 5.375 -1 5.75 -1.375 c 1.313 -1.188 7.06 -15.688 6.688 -16.813 c -0.25 -0.563 -1.625 -2.813 -3.125 -4.938 c -2.313 -3.313 -2.625 -4.063 -2 -5.188 c 1 -1.938 12.875 -13.188 14.375 -13.625 c 1 -0.313 2.563 0.375 5.75 2.438 c 5.125 3.313 4.375 3.375 14.938 -1 c 8.25 -3.375 7.875 -2.938 8.688 -9.438 c 0.625 -5.063 1.188 -5.25 12.813 -5.063 c 11.125 0.188 11.06 0.188 11.625 6.563 c 0.313 3.625 0.625 4.563 1.688 5.25 c 3 1.813 16.313 6.563 17.625 6.188 c 0.813 -0.188 2.813 -1.438 4.563 -2.813 c 1.75 -1.313 3.625 -2.438 4.125 -2.438 c 1.125 0 10.75 8.25 13.5 11.563 c 1.125 1.375 2 2.938 2 3.438 c 0 0.5 -1.25 2.625 -2.813 4.688 c -1.563 2.063 -2.813 4.125 -2.813 4.563 c 0 1.063 5.438 14.375 6.563 16 c 0.688 1 1.938 1.438 6.06 1.938 c 3.688 0.5 5.438 1 6 1.75 c 1.438 1.875 0.75 19.625 -0.75 21.13 c -0.313 0.313 -2.875 0.938 -5.625 1.375 l -5 0.813 l -2.313 4.313 c -1.313 2.313 -3 6.06 -3.75 8.313 l -1.438 4.063 l 2.938 4.063 c 1.625 2.188 2.938 4.625 2.938 5.375 c 0 0.875 -2.125 3.438 -6.438 7.625 c -3.625 3.438 -7.125 6.625 -7.813 6.938 c -1.063 0.563 -1.938 0.25 -5.813 -2.375 c -2.5 -1.688 -4.75 -3 -5.063 -3 c -1.188 0 -16.625 6.188 -17.06 6.875 c -0.313 0.438 -0.375 2.75 -0.188 5.125 c 0.25 2.438 0.25 5.375 0 6.563 c -0.375 1.875 -0.688 2.188 -2.75 2.5 c -3.375 0.5 -18.313 0.938 -20.313 0.625" transform="scale(0.0625)" fill="#fff" stroke-width="1.962"/><path d="m 164.97 134.95 c 0 13.821 -11.776 25.03 -26.28 25.03 c -14.502 0 -26.24 -11.212 -26.24 -25.03 c 0 -13.821 11.74 -25.03 26.24 -25.03 c 14.502 0 26.28 11.212 26.28 25.03" transform="matrix(0.10748 0 0 0.11079 -6.828 -6.783)" fill="#b9c5e5" stroke-width="3.159"/></g></svg>