<svg xmlns="http://www.w3.org/2000/svg" viewBox="0 0 16 16"><path d="m 7.688 15.824 c -2.66 -0.508 -5.238 -2.508 -6.594 -5.125 c -1.137 -2.191 -1.313 -4.328 -0.512 -6.211 c 0.602 -1.414 1.969 -2.734 3.664 -3.543 c 1.809 -0.859 3.492 -1.055 5.23 -0.609 c 4.289 1.098 7.438 6.84 6.156 11.246 c -0.625 2.156 -2.281 3.613 -4.719 4.152 c -1.063 0.09 -2.184 0.273 -3.227 0.09" fill="#613969"/><g fill="#fff"><path d="m 2.926 7.73 c 0.004 -0.035 0.285 -0.605 0.621 -1.266 l 0.617 -1.203 l 0.262 -0.004 c 0.383 -0.004 2.82 0.285 3 0.355 l 0.156 0.063 l -0.516 0.25 c -0.57 0.281 -3.227 1.512 -3.742 1.738 c -0.371 0.156 -0.41 0.164 -0.398 0.066"/><path d="m 7.367 9.992 c -0.469 -0.449 -2.281 -2.34 -2.281 -2.379 c 0 -0.078 2.488 -1.258 2.652 -1.258 c 0.051 0 0.086 2.258 0.055 3.184 l -0.031 0.828"/><path d="m 8.414 7.01 c 0 2.117 0.004 2.266 0.055 2.293 c 0.664 0.348 4.711 2.352 4.883 2.422 c 0.086 0.035 0.164 0.055 0.172 0.043 c 0.012 -0.016 -2.52 -3.504 -4.414 -6.078 l -0.695 -0.945"/></g></svg>