<svg xmlns="http://www.w3.org/2000/svg" viewBox="0 0 16 16"><path d="m 7.93 0.2 c 10.54 -1.2 10.61 16 0.02 15.79 c -9.85 0.57 -10.96 -16.73 -0.02 -15.79" style="fill:#19abec"/><path d="m 4.59 10.24 c -0.71 -0.21 -1.31 -0.7 -1.67 -1.36 c -0.34 -0.77 -0.34 -1.65 0 -2.3 c 0.29 -0.54 0.89 -1.07 1.46 -1.27 c 0.72 -0.23 1.52 -0.18 2.07 0.06 c 0.34 0.15 0.64 0.37 1.05 0.74 l 0.57 0.52 l 0.61 -0.54 c 0.82 -0.73 1.31 -0.94 2.13 -0.94 c 0.52 0 0.65 0.03 1.05 0.2 c 1.79 0.77 2.2 2.95 0.8 4.25 c -0.55 0.54 -1.35 0.71 -1.86 0.71 c -0.89 0 -1.27 -0.16 -2.11 -0.93 l -0.62 -0.55 l -0.57 0.52 c -0.78 0.71 -1.28 0.95 -2.03 0.97 c -0.36 0.01 -0.68 -0.02 -0.89 -0.08" style="fill:#fff"/><g style="fill:#56cd22"><path d="m 4.89 8.96 c -0.27 -0.09 -0.66 -0.47 -0.76 -0.74 c -0.19 -0.5 -0.07 -1.04 0.32 -1.4 c 0.3 -0.27 0.51 -0.36 0.88 -0.36 c 0.23 0 0.38 0.04 0.61 0.16 c 0.32 0.16 0.8 0.59 1.02 0.93 c 0.12 0.18 0.12 0.2 0.05 0.34 c -0.12 0.22 -0.82 0.86 -1.1 0.99 c -0.28 0.14 -0.77 0.18 -1.03 0.09"/><path d="m 10.27 8.91 c -0.22 -0.11 -1.18 -1.02 -1.18 -1.12 c 0 -0.21 0.81 -1.04 1.21 -1.23 c 0.6 -0.29 1.34 -0.03 1.68 0.59 c 0.15 0.28 0.15 0.84 0.01 1.12 c -0.22 0.45 -0.63 0.71 -1.16 0.73 c -0.26 0.01 -0.39 -0.01 -0.57 -0.1"/></g></svg>