<svg xmlns="http://www.w3.org/2000/svg" viewBox="0 0 16 16"><path d="m 15.824 8.613 c -0.293 -2.117 -1.766 -4.793 -3.508 -6.383 c -1.383 -1.258 -2.598 -1.852 -4.074 -1.992 c -2.074 -0.203 -3.762 0.684 -5.324 2.797 c -1.758 2.465 -3.445 5.953 -2.578 8.391 c 0.344 0.969 0.758 1.605 1.449 2.242 c 1.406 1.301 3.477 2.023 5.883 2.063 c 1.363 0.02 2.445 -0.152 3.723 -0.594 c 2.18 -0.754 3.641 -2.102 4.262 -3.934 c 0.195 -0.578 0.277 -1.816 0.168 -2.59" fill="#fd8b01"/><path d="m 6.5 11.766 v -0.16 h -2.055 c -1.828 0 -2.051 -0.008 -2.078 -0.074 c -0.02 -0.219 -0.07 -1.102 0.047 -1.156 c 0.039 -0.016 0.973 -0.027 2.078 -0.027 h 2.01 v -0.184 c 0 -0.152 0.027 -0.215 0.156 -0.344 c 0.207 -0.188 0.309 -0.137 0.559 -0.102 c 0 -0.18 0 -0.359 0 -0.539 h -1.934 c -0.168 -0.152 -0.359 -0.41 -0.258 -0.582 c -0.059 -1.316 -0.059 -2.703 0 -4.172 c -0.113 -0.242 0.121 -0.434 0.27 -0.586 h 5.211 c 0.109 0.113 0.219 0.227 0.328 0.34 v 4.68 c -0.098 0.109 -0.199 0.215 -0.301 0.32 h -2.066 c 0 0.176 0 0.348 0 0.523 c 0.207 -0.047 0.367 0.02 0.469 0.117 c 0.129 0.129 0.156 0.191 0.156 0.344 v 0.184 h 2 c 1.102 0 2.047 0.012 2.102 0.027 c 0.125 0.145 0.184 1 0.035 1.164 c -0.051 0.055 -0.395 0.066 -2.098 0.066 h -2.039 v 0.168 c 0 0.191 -0.137 0.383 -0.332 0.457 c -0.68 0.066 -1.191 0.047 -1.914 0.047 c -0.148 -0.145 -0.344 -0.332 -0.344 -0.512 m 3.789 -3.133 c 0.039 -0.039 0.051 -0.574 0.051 -2.129 c 0 -2.01 0 -2.078 -0.086 -2.121 c -0.129 -0.074 -4.66 -0.066 -4.73 0.004 c -0.078 0.082 -0.078 4.238 0.004 4.27 c 0.031 0.016 1.102 0.027 2.383 0.027 c 1.75 0.004 2.336 -0.008 2.379 -0.051 m -4.148 -1.562 c 0.121 0 0.238 0 0.359 0 c 0 -0.371 0 -0.746 0 -1.121 c -0.121 0 -0.238 0 -0.359 0 c 0 -0.254 0 -0.508 0 -0.762 h 0.785 c 0.621 0 0.801 0.012 0.848 0.063 c 0.074 0.074 0.094 0.566 0.02 0.566 c -0.023 0 -0.043 0.027 -0.043 0.066 c 0 0.051 -0.051 0.066 -0.203 0.066 h -0.199 v 1.121 c 0.145 -0.004 0.305 -0.004 0.426 0.066 c 0.074 0.074 0.094 0.563 0.02 0.563 c -0.023 0 -0.043 0.031 -0.043 0.066 c 0 0.059 -0.121 0.07 -0.805 0.07 h -0.805 c 0 -0.254 0 -0.512 0 -0.766 m 1.832 0.629 c 0.023 -0.137 0.023 -0.445 0.023 -1.207 c 0 -0.977 -0.055 -1.188 -0.004 -1.242 c 0.094 -0.094 1.129 -0.09 1.355 0.008 c 0.43 0.18 0.625 0.609 0.52 1.137 c -0.047 0.234 -0.387 0.574 -0.656 0.652 c -0.125 0.039 -0.273 0.07 -0.328 0.07 c -0.098 0 -0.105 0.016 -0.105 0.27 c 0 0.371 -0.078 0.449 -0.469 0.449 c -0.211 0.023 -0.246 -0.043 -0.336 -0.137 m 1.141 -1.559 c 0.016 -0.129 -0.031 -0.289 -0.23 -0.309 c -0.273 -0.035 -0.223 0.184 -0.223 0.301 c 0 0.164 0.129 0.18 0.219 0.168 c 0.074 -0.012 0.223 -0.066 0.234 -0.16" fill="#fdfdfd"/></svg>