<svg xmlns="http://www.w3.org/2000/svg" viewBox="0 0 16 16"><path d="m 15.484 5.801 c 2.984 8.34 -7.75 12.395 -11.785 9 c -4.03 -3.395 -5.41 -9.215 -0.84 -12.141 c 4.566 -2.926 9.637 -5.195 12.625 3.141" fill="#f4f4f4"/><g fill="#222"><path d="m 4.531 10.563 c -0.605 -0.117 -1.031 -0.652 -0.84 -1.066 c 0.117 -0.262 0.434 -0.27 0.836 -0.02 c 0.434 0.27 0.551 0.301 0.688 0.164 c 0.266 -0.266 0.109 -0.453 -0.473 -0.582 c -0.426 -0.098 -0.762 -0.359 -0.91 -0.719 c -0.078 -0.191 -0.066 -0.277 0.078 -0.578 c 0.094 -0.191 0.312 -0.477 0.484 -0.633 c 0.305 -0.277 0.324 -0.281 0.98 -0.281 c 0.66 0 0.676 0.004 0.988 0.285 c 0.379 0.344 0.461 0.59 0.281 0.859 c -0.18 0.277 -0.52 0.262 -0.863 -0.039 c -0.414 -0.363 -0.984 -0.281 -0.906 0.133 c 0.02 0.105 0.152 0.164 0.52 0.23 c 0.578 0.102 0.707 0.195 0.906 0.641 c 0.121 0.273 0.133 0.391 0.066 0.637 c -0.078 0.293 -0.445 0.711 -0.754 0.863 c -0.238 0.117 -0.754 0.168 -1.082 0.105"/><path d="m 7.633 10.387 c -0.438 -0.301 -0.578 -0.641 -0.539 -1.309 c 0.039 -0.691 0.355 -1.391 0.852 -1.895 c 0.355 -0.355 0.598 -0.438 1.18 -0.398 l 0.352 0.023 l 0.105 -0.355 c 0.152 -0.516 0.207 -0.59 0.445 -0.617 c 0.328 -0.039 0.621 0.188 0.578 0.445 c -0.289 1.641 -0.84 3.969 -0.977 4.117 c -0.082 0.082 -0.34 0.125 -0.918 0.145 c -0.746 0.027 -0.832 0.016 -1.078 -0.156 m 1.141 -0.906 c 0.223 -0.238 0.305 -0.582 0.309 -1.289 c 0.004 -0.496 -0.004 -0.516 -0.199 -0.539 c -0.27 -0.031 -0.453 0.188 -0.59 0.707 c -0.277 1.035 -0.012 1.652 0.48 1.121"/><path d="m 10.906 10.461 c -0.188 -0.117 -0.199 -0.172 -0.152 -0.574 c 0.09 -0.789 0.496 -2.488 0.648 -2.73 c 0.168 -0.262 0.469 -0.344 0.68 -0.184 c 0.113 0.086 0.125 0.219 0.078 0.813 c -0.07 0.875 -0.48 2.426 -0.695 2.645 c -0.195 0.195 -0.293 0.199 -0.559 0.031"/><path d="m 10.441 11.891 c -0.262 -0.309 0 -0.977 0.387 -0.977 c 0.191 0 0.531 0.387 0.531 0.602 c 0 0.418 -0.656 0.688 -0.918 0.375"/></g><g fill="#e0e0e0"><path d="m 5.941 15.801 c -0.898 -0.195 -1.879 -0.723 -2.609 -1.402 c -0.543 -0.5 -1.512 -1.625 -1.719 -1.992 c -0.055 -0.098 0.867 -0.113 6.578 -0.113 h 6.645 l -0.238 0.301 c -1.188 1.496 -2.988 2.602 -5.066 3.109 c -0.898 0.223 -2.797 0.273 -3.59 0.098"/><path d="m 1.602 3.762 c 0.586 -0.609 1.801 -1.434 3.441 -2.344 c 0.703 -0.387 2.055 -0.945 2.77 -1.137 c 0.883 -0.238 2.414 -0.258 3.063 -0.035 c 1.246 0.43 2.082 1.094 2.992 2.395 c 0.336 0.48 0.797 1.285 0.797 1.402 c 0 0.023 -3.01 0.043 -6.687 0.043 h -6.688"/></g></svg>