<svg xmlns="http://www.w3.org/2000/svg" viewBox="0 0 16 16"><path d="m 3.383 14.387 c 11.813 7.891 19.09 -17.266 3.816 -13.934 c -6.309 1.418 -10.137 10.316 -3.816 13.934" fill="#4581b3"/><path d="m 64.13 861.8 h 126.38 c 0.063 0 0.063 0 0.063 0.063 v 127.19 c 0 0.063 0 0.063 -0.063 0.063 h -126.37 c -0.063 0 -0.063 0 -0.063 -0.063 v -127.19 c 0 -0.063 0 -0.063 0.063 -0.063" transform="matrix(0.0625 0 0 0.0625 0 -49.773)" fill="#ff0" stroke="#ff0"/><path d="m 3.957 10.922 c 0 -1.027 0.012 -1.195 0.098 -1.227 c 0.055 -0.023 0.59 -0.039 1.188 -0.039 h 1.09 v -0.316 h -1.09 c -0.598 0 -1.133 -0.016 -1.188 -0.035 c -0.086 -0.035 -0.098 -0.199 -0.098 -1.188 c 0 -0.992 0.012 -1.156 0.098 -1.191 c 0.055 -0.02 0.59 -0.035 1.188 -0.035 h 1.09 v -0.316 h -1.09 c -0.598 0 -1.133 -0.016 -1.188 -0.039 c -0.086 -0.031 -0.098 -0.203 -0.098 -1.258 v -1.219 h 1.211 c 1.047 0 1.215 0.016 1.25 0.102 c 0.02 0.055 0.039 0.59 0.039 1.191 v 1.098 h 0.313 v -1.098 c 0 -0.602 0.016 -1.137 0.035 -1.191 c 0.035 -0.086 0.199 -0.102 1.184 -0.102 c 0.984 0 1.145 0.016 1.18 0.102 c 0.02 0.055 0.039 0.59 0.039 1.191 v 1.098 h 0.313 v -1.098 c 0 -0.602 0.016 -1.137 0.035 -1.191 c 0.035 -0.086 0.199 -0.102 1.219 -0.102 h 1.184 v 1.219 c 0 1.055 -0.016 1.227 -0.102 1.258 c -0.055 0.023 -0.574 0.039 -1.156 0.039 h -1.055 v 0.316 h 1.055 c 0.582 0 1.102 0.016 1.156 0.035 c 0.086 0.035 0.102 0.199 0.102 1.191 c 0 0.988 -0.016 1.152 -0.102 1.188 c -0.055 0.02 -0.574 0.035 -1.156 0.035 h -1.055 v 0.316 h 1.055 c 0.582 0 1.102 0.016 1.156 0.039 c 0.086 0.031 0.102 0.199 0.102 1.227 v 1.188 h -1.184 c -1.02 0 -1.184 -0.016 -1.219 -0.102 c -0.02 -0.055 -0.035 -0.578 -0.035 -1.16 v -1.066 h -0.313 v 1.066 c 0 0.582 -0.02 1.105 -0.039 1.16 c -0.035 0.086 -0.195 0.102 -1.18 0.102 c -0.984 0 -1.148 -0.016 -1.184 -0.102 c -0.02 -0.055 -0.035 -0.578 -0.035 -1.16 v -1.066 h -0.313 v 1.066 c 0 0.582 -0.02 1.105 -0.039 1.16 c -0.035 0.086 -0.203 0.102 -1.25 0.102 h -1.211 m 5.125 -2.609 v -0.16 h -2.188 v 0.316 h 2.188 m -2.313 -1.539 v -1.102 h -0.313 v 2.199 h 0.313 m 2.75 -1.098 v -1.102 h -0.313 v 2.199 h 0.313 m -0.438 -2.484 v -0.156 h -2.188 v 0.316 h 2.188" fill="#f6ec42"/><path d="m 3.957 10.914 v -1.195 h 1.117 c 0.938 0 1.137 0.016 1.219 0.098 c 0.082 0.082 0.102 0.285 0.102 1.195 v 1.098 h -2.437 m 2.91 -0.102 c -0.02 -0.055 -0.035 -0.547 -0.035 -1.094 c 0 -0.824 0.016 -1.016 0.098 -1.098 c 0.145 -0.145 1.969 -0.145 2.113 0 c 0.082 0.082 0.102 0.273 0.102 1.098 c 0 0.547 -0.02 1.039 -0.039 1.094 c -0.035 0.086 -0.191 0.102 -1.117 0.102 c -0.93 0 -1.086 -0.016 -1.121 -0.102 m 2.711 -0.996 c 0 -0.91 0.02 -1.113 0.102 -1.195 c 0.082 -0.082 0.277 -0.098 1.188 -0.098 h 1.086 v 2.391 h -2.375 m -5.547 -2.871 c -0.055 -0.023 -0.078 -0.309 -0.078 -1.121 c 0 -0.934 0.016 -1.094 0.102 -1.129 c 0.055 -0.02 0.559 -0.035 1.121 -0.035 c 0.844 0 1.039 0.016 1.117 0.098 c 0.145 0.145 0.145 1.984 0 2.129 c -0.082 0.082 -0.27 0.098 -1.141 0.094 c -0.57 -0.004 -1.074 -0.02 -1.121 -0.035 m 2.898 -0.059 c -0.148 -0.145 -0.148 -1.984 0 -2.129 c 0.145 -0.145 1.969 -0.145 2.113 0 c 0.145 0.145 0.145 1.984 0 2.129 c -0.145 0.145 -1.969 0.145 -2.113 0 m 2.75 0 c -0.148 -0.145 -0.148 -1.984 0 -2.129 c 0.078 -0.082 0.27 -0.098 1.086 -0.098 c 0.547 0 1.035 0.016 1.09 0.035 c 0.086 0.035 0.098 0.195 0.098 1.129 c 0 0.93 -0.012 1.09 -0.098 1.125 c -0.055 0.02 -0.543 0.035 -1.09 0.035 c -0.816 0 -1.01 -0.016 -1.086 -0.098 m -5.727 -3.895 v -1.227 h 2.438 v 1.129 c 0 0.941 -0.016 1.145 -0.098 1.227 c -0.082 0.082 -0.281 0.098 -1.219 0.098 h -1.121 m 2.977 -0.098 c -0.082 -0.082 -0.102 -0.277 -0.102 -1.129 c 0 -0.566 0.02 -1.07 0.039 -1.125 c 0.035 -0.086 0.191 -0.102 1.117 -0.102 c 0.93 0 1.086 0.016 1.121 0.102 c 0.02 0.055 0.035 0.559 0.035 1.125 c 0 0.852 -0.016 1.047 -0.098 1.129 c -0.145 0.145 -1.969 0.145 -2.113 0 m 2.75 0 c -0.082 -0.082 -0.102 -0.285 -0.102 -1.227 v -1.129 h 2.375 v 2.453 h -1.086 c -0.91 0 -1.105 -0.016 -1.188 -0.098" fill="#e3d554"/><path d="m 3.957 10.945 v -1.164 h 1.109 c 0.785 0 1.137 0.023 1.188 0.074 c 0.055 0.055 0.078 0.402 0.078 1.164 v 1.09 h -2.375 m 2.937 -1.043 c 0 -0.598 0.027 -1.094 0.063 -1.164 c 0.059 -0.109 0.141 -0.121 1.031 -0.121 c 0.887 0 0.969 0.012 1.027 0.121 c 0.035 0.07 0.066 0.566 0.066 1.164 v 1.043 h -2.188 m 2.75 -1.09 c 0 -0.762 0.02 -1.109 0.074 -1.164 c 0.051 -0.051 0.398 -0.074 1.156 -0.074 h 1.082 v 2.328 h -2.313 m -5.688 -3.996 v -1.098 h 1.066 c 0.613 0 1.117 0.027 1.188 0.063 c 0.109 0.063 0.121 0.141 0.121 1.035 c 0 0.898 -0.012 0.977 -0.121 1.039 c -0.07 0.035 -0.574 0.063 -1.188 0.063 h -1.066 m 3.035 -0.098 c -0.145 -0.145 -0.145 -1.859 0 -2 c 0.145 -0.145 1.844 -0.145 1.988 0 c 0.145 0.145 0.145 1.859 0 2 c -0.145 0.145 -1.844 0.145 -1.988 0 m 2.762 0.031 c -0.098 -0.059 -0.109 -0.176 -0.109 -1.035 c 0 -0.895 0.008 -0.973 0.121 -1.035 c 0.066 -0.035 0.559 -0.063 1.156 -0.063 h 1.035 v 2.199 h -1.047 c -0.598 -0.004 -1.098 -0.031 -1.156 -0.066 m -5.797 -3.895 v -1.195 h 2.375 v 1.121 c 0 0.785 -0.023 1.141 -0.078 1.195 c -0.051 0.051 -0.402 0.074 -1.188 0.074 h -1.109 m 3 -0.121 c -0.035 -0.07 -0.063 -0.578 -0.063 -1.195 v -1.074 h 2.188 v 1.074 c 0 0.617 -0.027 1.125 -0.066 1.195 c -0.059 0.109 -0.141 0.121 -1.027 0.121 c -0.891 0 -0.973 -0.012 -1.031 -0.121 m 2.762 0.047 c -0.055 -0.055 -0.074 -0.41 -0.074 -1.195 v -1.121 h 2.313 v 2.391 h -1.082 c -0.758 0 -1.105 -0.023 -1.156 -0.074" fill="#c2b171"/><path d="m 3.957 10.977 v -1.133 h 1.078 c 0.758 0 1.105 0.023 1.156 0.078 c 0.055 0.051 0.078 0.391 0.078 1.129 v 1.059 h -2.312 m 3 -1.059 c 0 -0.738 0.02 -1.078 0.074 -1.129 c 0.102 -0.105 1.809 -0.105 1.91 0 c 0.055 0.051 0.078 0.391 0.078 1.129 v 1.059 h -2.063 m 2.75 -1.059 c 0 -0.738 0.02 -1.078 0.074 -1.129 c 0.051 -0.055 0.391 -0.078 1.125 -0.078 h 1.051 v 2.266 h -2.25 m -5.75 -3.996 v -1.035 h 1.078 c 0.758 0 1.105 0.023 1.156 0.074 c 0.105 0.105 0.105 1.82 0 1.926 c -0.051 0.051 -0.398 0.074 -1.156 0.074 h -1.078 m 3.074 -0.074 c -0.105 -0.105 -0.105 -1.82 0 -1.926 c 0.102 -0.105 1.809 -0.105 1.91 0 c 0.105 0.105 0.105 1.82 0 1.926 c -0.102 0.105 -1.809 0.105 -1.91 0 m 2.75 0 c -0.105 -0.105 -0.105 -1.82 0 -1.926 c 0.051 -0.051 0.391 -0.074 1.125 -0.074 h 1.051 v 2.074 h -1.051 c -0.734 0 -1.074 -0.023 -1.125 -0.074 m -5.824 -3.855 v -1.164 h 2.312 v 1.09 c 0 0.762 -0.023 1.109 -0.078 1.16 c -0.051 0.055 -0.398 0.078 -1.156 0.078 h -1.078 m 3.074 -0.078 c -0.055 -0.051 -0.074 -0.398 -0.074 -1.16 v -1.09 h 2.063 v 1.09 c 0 0.762 -0.023 1.109 -0.078 1.16 c -0.102 0.105 -1.809 0.105 -1.91 0 m 2.75 0 c -0.055 -0.051 -0.074 -0.398 -0.074 -1.16 v -1.09 h 2.25 v 2.328 h -1.051 c -0.734 0 -1.074 -0.023 -1.125 -0.078" fill="#9a8296"/><path d="m 3.957 11.01 v -1.102 l 2.219 0.031 l 0.031 2.172 h -2.25 m 3.074 -1.086 l 0.02 -1.086 h 1.875 l 0.031 2.172 h -1.941 m 2.766 -1.086 l 0.02 -1.086 l 2.156 -0.031 v 2.203 h -2.191 m -5.809 -3.992 v -0.98 l 1.109 0.02 l 1.109 0.016 v 1.887 l -1.109 0.016 l -1.109 0.02 m 3.09 -0.082 c -0.02 -0.047 -0.023 -0.48 -0.016 -0.961 l 0.02 -0.879 h 1.875 v 1.887 l -0.926 0.016 c -0.719 0.016 -0.93 0 -0.953 -0.063 m 2.75 -0.004 c -0.02 -0.043 -0.023 -0.477 -0.016 -0.957 l 0.02 -0.879 l 1.078 -0.016 l 1.078 -0.02 v 1.953 h -1.066 c -0.816 0 -1.07 -0.02 -1.094 -0.082 m -5.84 -3.816 v -1.133 h 2.25 l -0.016 1.117 l -0.02 1.117 l -2.219 0.031 v -1.133 m 3.109 1.09 c -0.023 -0.023 -0.043 -0.531 -0.043 -1.133 v -1.09 h 1.938 l -0.031 2.234 l -0.91 0.016 c -0.504 0.008 -0.93 -0.004 -0.953 -0.027 m 2.746 0 c -0.023 -0.023 -0.039 -0.531 -0.039 -1.133 v -1.09 h 2.188 v 2.266 h -1.055 c -0.578 0 -1.07 -0.02 -1.094 -0.043" fill="#6f54bc"/><path d="m 3.957 11.04 v -1.07 l 1.078 0.016 l 1.078 0.02 l 0.016 1.051 l 0.016 1.055 h -2.187 m 3.137 -1.055 l 0.02 -1.051 h 1.75 l 0.016 1.051 l 0.016 1.055 h -1.816 m 2.766 -1.055 l 0.02 -1.051 l 1.047 -0.02 l 1.047 -0.016 v 2.141 h -2.129 m -5.871 -3.992 v -0.918 l 1.078 0.02 l 1.078 0.016 v 1.762 l -1.078 0.016 l -1.078 0.02 m 3.152 -0.086 c -0.02 -0.043 -0.023 -0.449 -0.016 -0.895 l 0.02 -0.816 h 1.75 v 1.762 l -0.863 0.016 c -0.672 0.016 -0.867 0 -0.891 -0.066 m 2.75 0 c -0.02 -0.047 -0.023 -0.449 -0.016 -0.895 l 0.02 -0.816 l 1.047 -0.016 l 1.047 -0.02 v 1.828 h -1.035 c -0.793 0 -1.039 -0.02 -1.063 -0.082 m -5.902 -3.785 v -1.102 h 2.187 l -0.031 2.172 l -2.156 0.031 m 3.168 -0.043 c -0.023 -0.023 -0.043 -0.52 -0.043 -1.102 v -1.059 h 1.813 l -0.031 2.172 l -0.848 0.016 c -0.469 0.012 -0.867 0 -0.891 -0.027 m 2.746 0 c -0.023 -0.023 -0.039 -0.52 -0.039 -1.102 v -1.059 h 2.125 v 2.203 h -1.023 c -0.563 0 -1.039 -0.02 -1.063 -0.043" fill="#4c2fdb"/><path d="m 3.957 11.07 v -1.039 h 2.125 v 2.078 h -2.125 m 3.148 -0.102 c 0.02 -0.055 0.035 -0.52 0.035 -1.035 v -0.941 h 1.688 v 0.941 c 0 0.516 0.02 0.98 0.039 1.035 c 0.035 0.09 -0.066 0.102 -0.883 0.102 c -0.813 0 -0.914 -0.012 -0.879 -0.102 m 2.785 -0.938 v -1.039 h 2.063 v 2.078 h -2.063 m -5.938 -3.996 c 0 -0.816 0.012 -0.918 0.102 -0.887 c 0.055 0.023 0.531 0.039 1.063 0.039 h 0.961 v 1.699 h -0.961 c -0.531 0 -1.01 0.016 -1.063 0.039 c -0.09 0.031 -0.102 -0.07 -0.102 -0.891 m 6.922 0.867 l -0.984 -0.02 v -1.695 h 0.934 c 0.512 0 0.977 -0.016 1.031 -0.039 c 0.09 -0.031 0.098 0.07 0.098 0.883 c 0 0.504 -0.02 0.91 -0.047 0.902 c -0.023 -0.008 -0.488 -0.02 -1.031 -0.031 m -3.734 -0.867 v -0.848 h 1.688 v 1.699 h -1.688 m -3.188 -3.836 v -1.07 h 2.125 v 2.137 h -2.125 m 3.188 -0.969 c 0 -0.531 -0.016 -1.012 -0.035 -1.066 c -0.035 -0.09 0.066 -0.102 0.883 -0.102 c 0.813 0 0.914 0.012 0.879 0.102 c -0.02 0.055 -0.035 0.535 -0.035 1.066 v 0.969 h -1.688 v -0.969 m 2.746 -0.098 v -1.07 h 2.063 v 2.137 h -2.063" fill="#3517ef"/></svg>