<svg xmlns="http://www.w3.org/2000/svg" viewBox="0 0 16 16"><path d="m 8.672 15.891 c -9.504 0.906 -12.06 -14.418 -2.305 -15.609 c 8.977 -1.477 13.598 12.418 4.68 15.195 c -0.754 0.305 -1.578 0.297 -2.375 0.41" fill="#010101"/><path d="m 4.82 11.609 c -1.336 -0.348 -2.18 -1.215 -2.512 -2.621 c -0.48 -2.02 1.348 -3.828 3.582 -2.988 c 3.641 2.711 2.516 5.398 -1.07 5.609" fill="#fff"/><path d="m 4.23 10.191 c -0.23 -0.086 -0.352 -0.207 -0.406 -0.41 c -0.078 -0.281 0.246 -0.395 0.434 -0.156 c 0.09 0.117 0.16 0.141 0.383 0.141 c 0.379 0 0.469 -0.137 0.434 -0.648 c -0.027 -0.445 -0.105 -0.523 -0.52 -0.523 c -0.32 0 -0.418 -0.066 -0.418 -0.289 c 0 -0.117 0.074 -0.219 0.305 -0.418 c 0.168 -0.145 0.293 -0.285 0.277 -0.309 c -0.016 -0.027 -0.203 -0.047 -0.414 -0.047 c -0.422 0 -0.578 -0.09 -0.547 -0.301 c 0.02 -0.152 0.27 -0.195 1.195 -0.199 c 0.578 -0.004 0.699 0.012 0.805 0.098 c 0.195 0.156 0.113 0.355 -0.254 0.625 c -0.168 0.125 -0.293 0.254 -0.277 0.281 c 0.02 0.031 0.109 0.094 0.195 0.137 c 0.09 0.047 0.227 0.195 0.305 0.328 c 0.277 0.473 0.152 1.391 -0.223 1.637 c -0.203 0.133 -0.977 0.168 -1.273 0.055" fill="#0c559d"/><path d="m 4.84 11.988 c -0.504 -0.055 -0.926 -0.262 -1.527 -0.758 c -0.969 -0.801 -1.465 -1.688 -1.543 -2.766 c -0.063 -0.91 0.168 -1.613 0.727 -2.195 c 0.617 -0.641 1.023 -0.813 1.914 -0.809 c 0.738 0.008 1.094 0.125 1.914 0.637 c 0.313 0.199 0.621 0.359 0.68 0.359 c 0.063 0 0.316 -0.148 0.563 -0.328 c 0.641 -0.543 1.473 -0.766 2.457 -0.164 c 0.18 0.145 0.465 0.379 0.633 0.52 l 0.309 0.254 l 0.48 -0.141 c 0.543 -0.164 0.645 -0.145 1.055 0.184 c 0.141 0.109 0.273 0.203 0.297 0.203 c 0.02 0 0.199 -0.063 0.398 -0.137 c 0.426 -0.164 0.703 -0.129 0.93 0.109 c 0.121 0.129 0.156 0.234 0.145 0.453 c -0.016 0.426 -0.164 0.648 -0.73 1.078 c -0.484 0.367 -0.523 0.418 -0.77 0.973 c -0.449 1.02 -0.773 1.387 -1.629 1.836 c -0.359 0.191 -0.566 0.254 -0.898 0.277 c -0.652 0.047 -1.48 -0.082 -2.035 -0.309 c -0.551 -0.227 -0.473 -0.246 -1.258 0.289 c -0.52 0.355 -0.633 0.391 -1.418 0.457 c -0.145 0.012 -0.453 0 -0.691 -0.023 m 1.324 -0.793 c 0.305 -0.086 1.016 -0.543 1.105 -0.715 c 0.691 0.191 0.102 -1.266 -0.059 -1.645 c -0.148 -0.313 -0.23 -0.41 -0.375 -0.445 c -0.695 -0.207 -0.738 -0.727 -0.191 -1.063 c 0.461 -0.273 0.438 -0.34 -0.313 -0.82 c -0.988 -0.629 -1.512 -0.754 -2.273 -0.539 c -0.484 0.137 -0.848 0.391 -1.105 0.777 c -1 1.488 -0.109 3.762 1.723 4.395 c 0.371 0.129 1.121 0.156 1.488 0.055" fill="#059fea"/><path d="m 9.363 7.465 c 0 0.398 -0.332 0.723 -0.746 0.723 c -0.41 0 -0.746 -0.324 -0.746 -0.723 c 0 -0.398 0.336 -0.723 0.746 -0.723 c 0.414 0 0.746 0.324 0.746 0.723" fill="#170a14"/><path d="m 7.332 8.715 c 1.574 1.238 1.949 1.742 1.648 2.227 c -0.188 0.176 0.219 0.543 0.051 0.547 c -1.816 0.535 -2.309 -2.777 -1.699 -2.773" fill="#c5d8f2"/><path d="m 8.742 7.277 c 0 0.172 -0.148 0.313 -0.336 0.313 c -0.184 0 -0.336 -0.141 -0.336 -0.313 c 0 -0.172 0.152 -0.313 0.336 -0.313 c 0.188 0 0.336 0.141 0.336 0.313" fill="#fff"/><path d="m 6.609 8.391 c -0.16 -0.063 -0.355 -0.195 -0.449 -0.305 c -0.176 -0.207 -0.008 -0.547 0.395 -0.816 c 0.246 -0.164 0.453 -0.355 0.43 -0.211 c -0.215 0.473 0.191 1.145 0.172 1.648 c 0.469 0.133 -0.203 0.012 -0.547 -0.316" fill="#fda500"/></svg>