<svg xmlns="http://www.w3.org/2000/svg" viewBox="0 0 16 16"><path d="m 10.199 15.48 c -8.34 2.988 -12.395 -7.746 -9 -11.781 c 3.395 -4.03 9.215 -5.41 12.141 -0.844 c 2.926 4.57 5.195 9.641 -3.141 12.625" fill="#9d9d9d"/><path d="m 6.629 11.973 c -0.094 -0.035 -0.293 -0.156 -0.441 -0.273 c -0.184 -0.141 -0.426 -0.203 -0.73 -0.188 c -1.172 0.055 -1.297 -0.207 -1.297 -2.633 c 0 -1.727 0.016 -1.863 0.234 -2.082 c 0.168 -0.168 0.301 -0.211 0.477 -0.152 c 0.133 0.043 0.469 0.086 0.742 0.094 c 0.41 0.008 0.512 -0.027 0.547 -0.199 c 0.063 -0.316 -0.195 -0.418 -0.891 -0.34 c -0.602 0.063 -0.641 0.051 -0.926 -0.285 c -0.566 -0.676 -0.297 -1.01 0.816 -1.01 c 0.418 0 1 -0.07 1.297 -0.16 c 0.297 -0.09 0.688 -0.133 0.871 -0.098 c 0.285 0.059 0.391 0.004 0.719 -0.352 c 0.34 -0.367 0.434 -0.41 0.742 -0.352 c 0.555 0.113 0.98 0.586 0.98 1.094 c 0 0.457 0 0.457 0.758 0.43 c 0.395 -0.016 0.535 0.039 0.813 0.316 c 0.434 0.43 0.426 0.754 -0.027 1.18 c -0.313 0.293 -0.406 0.516 -0.637 1.504 c -0.188 0.816 -0.234 1.215 -0.156 1.34 c 0.063 0.102 0.352 0.313 0.648 0.473 c 0.293 0.16 0.578 0.363 0.633 0.449 c 0.18 0.285 0.102 0.637 -0.195 0.871 c -0.445 0.348 -0.961 0.297 -1.625 -0.16 c -0.316 -0.215 -0.613 -0.391 -0.66 -0.391 c -0.051 0 -0.512 0.195 -1.027 0.438 c -1 0.465 -1.398 0.582 -1.664 0.484 m 0.855 -0.805 c 0.258 -0.113 0.738 -0.391 1.066 -0.609 c 0.328 -0.223 0.672 -0.402 0.758 -0.402 c 0.086 0 0.426 0.25 0.75 0.559 c 0.586 0.551 0.754 0.625 1.105 0.492 c 0.305 -0.117 0.195 -0.27 -0.355 -0.504 c -0.539 -0.23 -1.152 -0.719 -1.152 -0.922 c 0 -0.063 0.105 -0.328 0.23 -0.59 c 0.129 -0.262 0.313 -0.891 0.41 -1.402 c 0.211 -1.121 0.27 -1.254 0.578 -1.297 c 0.281 -0.043 0.297 -0.125 0.082 -0.418 c -0.141 -0.191 -0.199 -0.199 -0.539 -0.078 c -0.625 0.227 -1.66 0.164 -1.66 -0.098 c 0 -0.055 0.113 -0.332 0.246 -0.617 l 0.246 -0.52 l -0.262 -0.211 c -0.145 -0.113 -0.313 -0.195 -0.371 -0.176 c -0.059 0.023 -0.281 0.559 -0.488 1.195 c -0.211 0.637 -0.438 1.227 -0.508 1.309 c -0.273 0.332 -0.352 0.148 -0.285 -0.672 c 0.063 -0.734 0.047 -0.844 -0.152 -1.027 c -0.172 -0.152 -0.258 -0.168 -0.355 -0.07 c -0.082 0.082 -0.527 0.133 -1.176 0.133 c -0.855 0 -1.047 0.031 -1.047 0.168 c 0 0.133 0.176 0.168 0.891 0.168 c 1.254 0 1.242 -0.008 1.242 0.914 v 0.781 l -1.059 -0.039 l -1.063 -0.039 l -0.031 1.621 c -0.047 2.152 0.102 2.426 1.012 1.855 c 0.234 -0.148 0.789 -0.449 1.234 -0.672 c 0.449 -0.227 0.785 -0.457 0.746 -0.516 c -0.105 -0.168 -0.27 -0.137 -1.203 0.238 c -0.477 0.191 -0.945 0.316 -1.039 0.281 c -0.133 -0.051 -0.168 -0.281 -0.168 -1.105 c 0 -0.66 0.051 -1.09 0.137 -1.176 c 0.215 -0.215 1.219 -0.164 1.688 0.09 l 0.418 0.223 l 0.301 -0.336 c 0.23 -0.258 0.332 -0.305 0.449 -0.207 c 0.082 0.066 0.152 0.23 0.152 0.359 c 0.004 0.133 0.129 0.539 0.281 0.91 c 0.152 0.367 0.277 0.727 0.277 0.801 c 0 0.184 -0.848 0.891 -1.543 1.285 c -0.324 0.184 -0.617 0.383 -0.652 0.438 c -0.105 0.168 0.316 0.109 0.809 -0.113 m 1.277 -3.02 c -0.129 -0.426 -0.242 -0.965 -0.258 -1.199 l -0.023 -0.426 h 1.234 l -0.012 0.617 c -0.016 0.742 -0.336 1.781 -0.555 1.781 c -0.094 0 -0.246 -0.301 -0.387 -0.773 m -2.051 0.887 c 0.477 -0.285 0.461 -0.527 -0.039 -0.738 c -0.359 -0.148 -0.43 -0.148 -0.672 0.008 c -0.293 0.191 -0.336 0.398 -0.152 0.738 c 0.145 0.273 0.402 0.273 0.863 -0.008" fill="#35465c"/></svg>