<svg xmlns="http://www.w3.org/2000/svg" viewBox="0 0 16 16"><defs><linearGradient id="0" gradientUnits="userSpaceOnUse" x1="186.48" y1="376.24" x2="383.67" y2="137.32" gradientTransform="matrix(0.01644 0 -0.00441 0.01786 4.99 3.127)"><stop stop-color="#239dff"/><stop offset="1" stop-color="#2777ff"/></linearGradient></defs><path d="m 0.754 10.973 c -6.01 -19.449 26.28 -9.723 11.18 3.605 c -3.02 2.672 -9.559 1.641 -11.18 -3.605" fill="#2877fd"/><path d="m 9.199 3.129 c 2.324 0 3.703 2.047 3.082 4.57 c -0.625 2.523 -3.02 4.57 -5.34 4.57 c -2.324 0 -3.703 -2.047 -3.078 -4.57 c 0.621 -2.523 3.01 -4.57 5.336 -4.57" fill="url(#0)"/><path d="m 9.332 5.707 c -0.238 -0.09 -0.535 -0.184 -0.734 -0.184 c -0.23 0 -0.332 -0.027 -0.527 -0.145 c -0.172 -0.102 -0.27 -0.195 -0.328 -0.32 c -0.055 -0.125 -0.082 -0.297 -0.082 -0.574 v -0.504 l -0.375 -0.172 c -1.086 -0.496 -2.195 -0.664 -4.281 -0.648 c -0.297 0.004 -0.52 0.004 -0.676 0.004 c -0.156 0.004 -0.242 0.004 -0.285 0.012 c -0.004 0 -0.012 0 -0.016 0 c -0.004 0 -0.008 0.004 -0.016 0.004 c -0.086 0.063 -0.059 0.137 -0.004 0.195 c 0.012 0.008 0.016 0.008 0.023 0.008 c 0.02 0.004 0.043 0.008 0.082 0.012 c 0.078 0.008 0.203 0.016 0.371 0.027 c 1.996 0.141 3.234 0.359 4.266 0.762 l 0.094 0.035 l -0.387 0.016 c -1.785 0.082 -3.129 0.23 -4.297 0.477 c -0.352 0.074 -0.563 0.121 -0.684 0.156 c -0.063 0.02 -0.102 0.031 -0.137 0.051 c -0.082 0.082 -0.07 0.156 0.008 0.223 c 0.008 0 0.012 0.004 0.016 0.004 c 0.012 0 0.016 0 0.023 0 c 0.078 0 0.164 -0.012 0.23 -0.02 c 0.145 -0.016 0.34 -0.039 0.555 -0.074 c 1.109 -0.164 2.152 -0.273 3.035 -0.316 c 0.402 -0.02 0.949 -0.016 1.398 0 c 0.047 0.004 0.074 0.008 0.121 0.008 c -0.934 0.18 -2.449 0.754 -3.402 1.305 c -0.277 0.16 -0.547 0.336 -0.746 0.484 c -0.098 0.074 -0.18 0.137 -0.234 0.191 c -0.027 0.027 -0.051 0.051 -0.07 0.078 c -0.008 0.016 -0.02 0.027 -0.027 0.059 c 0 0.078 0.016 0.121 0.09 0.145 c 0.012 0 0.016 -0.004 0.023 -0.004 c 0.027 -0.008 0.059 -0.023 0.082 -0.035 c 0.051 -0.02 0.117 -0.055 0.195 -0.098 c 0.16 -0.082 0.375 -0.203 0.613 -0.336 c 1.375 -0.719 2.543 -1.234 4.191 -1.316 c 0.023 0.059 0.055 0.133 0.086 0.219 l 0.145 0.387 c -1.375 1.012 -0.941 3.34 0.57 3.633 c 0.199 0.039 0.426 0.063 0.688 0.074 c 0.793 0.035 1.078 0.129 1.605 0.508 c 0.395 0.285 0.738 0.707 1.012 1.238 c 0.105 0.211 0.238 0.559 0.34 0.879 c 0.051 0.164 0.094 0.32 0.125 0.449 c 0.043 0.148 0.039 0.313 0.066 0.453 c 0.016 0.074 0.07 0.102 0.121 0.125 c 0.16 -0.063 0.121 -0.281 0.109 -0.418 c -0.016 -0.191 -0.055 -0.434 -0.105 -0.676 c -0.172 -0.813 -0.629 -1.656 -1.199 -2.23 c 0.742 0.289 1.344 0.938 1.563 1.695 c 0.027 0.105 0.109 0.164 0.207 0.113 c 0.055 -0.082 0.027 -0.176 0.012 -0.258 c -0.02 -0.09 -0.051 -0.199 -0.094 -0.316 c -0.082 -0.234 -0.195 -0.492 -0.305 -0.664 c -0.395 -0.629 -1.234 -1.145 -2.18 -1.371 c -0.227 -0.055 -0.738 -0.145 -1.16 -0.145 c -0.031 0 -0.445 -0.043 -0.594 -0.059 c -1.508 -0.152 -1.406 -2.672 0.133 -2.672 c 0.219 0 0.355 0.012 0.559 0.078 c 0.199 0.07 0.473 0.195 0.938 0.426 c 0.203 0.102 0.32 0.164 0.379 0.211 c 0.059 0.047 0.063 0.063 0.082 0.133 c 0.02 0.082 0.023 0.199 0.086 0.266 c 0.059 0.066 0.316 0.168 0.43 0.242 c 0.195 0.133 0.293 0.211 0.461 0.469 c 0.184 -0.27 0.258 -0.277 0.473 -0.359 c -0.32 -0.043 -0.742 -0.422 -0.527 -0.461 c -0.195 -0.203 -0.238 -0.563 -0.332 -0.625 c -0.023 -0.02 -0.047 -0.035 -0.074 -0.047 l -0.391 -0.047 c -0.418 -0.289 -1.027 -0.645 -1.336 -0.758 m 1.746 0.727 c 0 -0.039 -0.012 -0.055 -0.02 -0.066 c -0.004 -0.016 -0.012 -0.027 -0.02 -0.039 c -0.016 -0.023 -0.035 -0.047 -0.059 -0.074 c -0.535 -0.594 -1.199 -1.051 -1.887 -1.332 c -0.086 -0.039 -0.16 -0.055 -0.242 -0.016 c -0.035 0.051 -0.035 0.09 -0.016 0.145 c 0.008 0.012 0.012 0.016 0.012 0.02 c 0.008 0.008 0.012 0.012 0.016 0.016 c 0.043 0.031 0.094 0.063 0.133 0.09 c 0.535 0.297 0.957 0.496 1.383 0.906 c 0.148 0.125 0.184 0.258 0.352 0.289" fill="#fff"/></svg>