<svg xmlns="http://www.w3.org/2000/svg" viewBox="0 0 16 16"><path d="m 3.734 1.668 c 5.953 -5.277 15.11 3.047 11.41 10.02 c -3.746 7.05 -16.14 5.168 -15.08 -3.484 c 0.313 -2.574 1.73 -4.809 3.672 -6.531" fill="#aaca2a" fill-opacity="0.914"/><g fill="#292929"><path d="m 3.641 12.512 c -0.137 -0.059 -0.227 -0.168 -0.352 -0.453 c -0.113 -0.262 -0.117 -0.277 -0.102 -1.098 l 0.012 -0.836 l 0.145 -0.273 c 0.086 -0.164 0.18 -0.285 0.238 -0.309 c 0.059 -0.023 1.336 -0.031 3.133 -0.02 c 1.988 -0.012 3.812 -0.035 5.43 -0.004 c 0.816 -0.059 0.848 -0.047 1.043 0.395 l 0.141 0.313 v 0.789 c 0 0.754 -0.004 0.801 -0.113 1.047 c -0.168 0.383 -0.273 0.465 -0.578 0.461 c -0.324 0 -4.184 -0.008 -5.195 -0.004 c -0.426 0 -1.305 -0.004 -1.957 -0.012 c -0.652 -0.004 -1.316 0.004 -1.473 0.016 c -0.156 0.016 -0.324 0.008 -0.371 -0.012 m 1.754 -0.664 c 0.012 -0.02 -0.027 -0.066 -0.09 -0.105 c -0.063 -0.039 -0.164 -0.176 -0.227 -0.305 c -0.098 -0.199 -0.113 -0.289 -0.117 -0.656 c 0 -0.402 -0.004 -0.426 -0.102 -0.469 c -0.059 -0.023 -0.117 -0.043 -0.129 -0.043 c -0.035 0 0.02 1.172 0.059 1.262 c 0.129 0.102 0.242 0.211 0.34 0.324 c 0.066 0.039 0.234 0.039 0.266 -0.008 m 0.832 0.004 c 0.016 -0.02 -0.023 -0.078 -0.082 -0.133 c -0.086 -0.074 -0.129 -0.086 -0.207 -0.055 l -0.094 0.039 l 0.094 0.094 c 0.098 0.09 0.246 0.117 0.289 0.055 m 4.961 -0.102 c 0.25 -0.32 0.754 -1.648 0.57 -1.648 c -0.398 -0.004 -1.199 1.664 -1.199 1.746 c 0 0.023 0.117 0.039 0.262 0.039 c 0.246 0 0.27 -0.012 0.367 -0.137 m -2.277 -0.055 c 0.211 -0.148 0.301 -0.313 0.508 -0.918 c 0.102 -0.293 0.223 -0.559 0.27 -0.598 c 0.047 -0.039 0.066 -0.078 0.047 -0.09 c -0.02 -0.012 -1.043 -0.027 -2.27 -0.035 c -1.609 -0.008 -2.242 0 -2.254 0.035 c 0.086 0.547 -0.051 1.301 0.285 1.289 c 0.574 -0.023 0.813 -0.004 1.789 -0.082 c 0.07 -0.039 0.199 0.133 0.199 0.395 c 0 0.105 0.012 0.109 0.215 0.109 c 0.195 0 0.234 -0.016 0.41 -0.176 c 0.125 -0.113 0.262 -0.313 0.387 -0.559 c 0.109 -0.211 0.215 -0.383 0.234 -0.383 c 0.023 0 0.027 0.184 0.008 0.426 c -0.023 0.371 -0.043 0.438 -0.137 0.531 c -0.059 0.059 -0.105 0.129 -0.105 0.16 c 0 0.082 0.238 0.023 0.414 -0.105 m 1.367 -0.223 c 0.242 -0.379 0.68 -1.25 0.68 -1.348 c 0 -0.047 -0.07 -0.063 -0.324 -0.063 c -0.316 0 -0.426 0.039 -0.426 0.156 c 0 0.117 -0.484 1.27 -0.59 1.398 c -0.168 0.207 -0.148 0.234 0.164 0.219 l 0.273 -0.012 m 1.551 -0.285 c -0.051 0.137 -0.059 0.293 0.012 0.363 c 0.07 0.066 0.305 0.039 0.344 0.02 c 0.445 -0.191 0.059 -0.445 -0.141 -0.488 m -4.906 0.313 c 0 -0.063 -0.07 -0.125 -0.191 -0.164 c -0.098 -0.035 -0.148 0.074 -0.074 0.16 c 0.07 0.078 0.266 0.082 0.266 0.004 m -2.945 -0.355 c 0.094 -0.059 0.035 -0.086 -0.23 -0.113 c -0.238 -0.023 -0.285 0 -0.273 0.113 c 0.02 0.215 0.488 0.094 0.574 0.043 m 8.98 -0.086 c 0 -0.023 -0.082 -0.18 -0.152 -0.18 c -0.074 0 -0.41 0.012 -0.379 0.18 c 0.004 0.023 0.316 0.145 0.391 0.145 c 0.07 0 0.141 -0.121 0.141 -0.145 m -9.105 -0.77 c 0.141 -0.027 0.164 -0.16 0.008 -0.188 c -0.137 -0.02 -0.371 -0.023 -0.465 0.063 c -0.063 0.152 0.098 0.195 0.457 0.125 m 9.105 -0.059 c 0 -0.023 -0.07 -0.043 -0.152 -0.043 c -0.086 0 -0.398 0.008 -0.402 0.074 c -0.004 0.188 0.316 0.168 0.402 0.168 c 0.082 0 0.152 -0.176 0.152 -0.199 m -6.57 -0.582 c 0.762 -0.023 1.441 0.004 1.418 -0.141 c 0.027 -0.129 -2.523 -0.07 -3.02 -0.059 c -0.445 0.016 -0.461 0.02 -0.477 0.113 c -0.016 0.098 -0.012 0.098 0.352 0.07 c 0.203 -0.012 0.969 0.039 1.727 0.016 m 1.23 -1.988 c -1 -0.199 -1.898 -0.871 -2.211 -1.668 c -0.09 -0.23 -0.129 -0.648 -0.059 -0.648 c 0.02 0 0.059 0.066 0.09 0.145 c 0.082 0.148 0.391 0.816 0.695 0.566 c 0.016 -0.016 -0.238 -0.496 -0.336 -0.645 c -0.18 -0.281 -0.242 -0.5 -0.113 -0.398 c 0.039 0.027 0.066 0.074 0.066 0.102 c 0 0.086 0.473 0.59 0.734 0.777 c 0.402 0.293 0.512 0.328 0.289 0.102 c -0.102 -0.105 -0.188 -0.199 -0.188 -0.211 c 0 -0.008 0.113 -0.051 0.254 -0.086 c 0.582 -0.16 1.203 -0.566 1.281 -0.84 c 0.102 -0.34 0.027 -0.891 -0.137 -1.031 c -0.141 -0.223 -0.008 -0.02 -0.164 -0.27 c 0.059 -0.09 0.262 0.086 0.383 0.332 c 0.098 0.207 0.113 0.289 0.113 0.668 c 0 0.277 -0.027 0.527 -0.074 0.691 c -0.09 0.309 -0.09 0.328 -0.008 0.266 c 0.035 -0.031 0.105 -0.156 0.16 -0.285 c 0.117 -0.426 0.289 -1.609 -0.086 -1.766 c -0.086 -0.027 -0.129 -0.141 -0.074 -0.195 c 0.063 -0.059 0.617 0.059 0.91 0.191 c 0.809 0.363 1.395 1.066 1.535 1.84 c 0.145 0.789 -0.387 1.719 -1.215 2.125 c -0.668 0.324 -1.113 0.383 -1.848 0.238 m -2.281 -2.508 c -0.234 -0.262 0.125 -1.246 0.508 -1.594 c 0.906 -0.586 1.961 -0.398 2.168 -0.344 c 0.309 0.074 -0.383 0.18 -0.422 0.188 c -0.191 0.039 -1.063 0.254 -1.309 0.465 c -0.449 0.395 -0.918 1.316 -0.945 1.285"/><path d="m -176.86 19.56 c 0 -3.309 -2.071 -11.12 -3.882 -12.84 c 4.853 -0.993 7.959 0.265 17.794 -3.508 c 7.506 -2.912 14.364 -12.576 15.4 -21.709 c 0.582 -5.03 0.647 -4.633 0.776 3.574 c 0.129 5.03 -0.129 15.355 -0.518 22.835 l -0.647 13.701 l -14.494 0.066 c -13.459 0 -14.429 -0.132 -14.429 -2.118" transform="matrix(0.06037 0 0 0.05902 20.03 7.814)" stroke="#292929" stroke-width="1.405"/></g></svg>