<svg xmlns="http://www.w3.org/2000/svg" viewBox="0 0 16 16"><path d="m 13.633 2.871 c -16.508 -12.613 -18.855 22.1 -2 10.957 c 3.84 -2.539 6.375 -7.617 2 -10.957" fill="#7f7f7f"/><path d="m 9.551 8.59 h -2.191 l 0.008 -0.625 l 0.012 -0.625 h 4.344 l 0.023 1.25 m -2.844 2.324 c -0.836 0.859 -1.551 1.566 -1.582 1.566 c -0.09 0 -4.383 -4.43 -4.383 -4.523 c 0 -0.102 4.207 -4.438 4.336 -4.473 c 0.082 -0.02 0.289 0.176 1.605 1.527 c 0.832 0.852 1.512 1.566 1.512 1.582 c 0 0.016 -0.266 0.031 -0.59 0.031 h -0.586 l -0.918 -0.941 c -0.508 -0.52 -0.945 -0.941 -0.977 -0.941 c -0.031 0 -0.754 0.715 -1.605 1.586 c -1.262 1.297 -1.539 1.605 -1.52 1.672 c 0.016 0.043 0.703 0.773 1.527 1.625 c 1.055 1.086 1.523 1.543 1.586 1.543 c 0.059 0 0.379 -0.297 1.02 -0.941 l 0.938 -0.941 h 0.582 c 0.32 0 0.582 0.016 0.582 0.031 c 0 0.016 -0.688 0.734 -1.523 1.598" fill="#fff"/></svg>