<svg xmlns="http://www.w3.org/2000/svg" viewBox="0 0 16 16"><g fill="#9370db"><path d="m 13.16 2.465 c 12.504 16.516 -21.914 18.859 -10.867 2 c 2.52 -3.844 7.555 -6.375 10.867 -2"/><g stroke="#fff" stroke-width="3.214"><g transform="matrix(0.15774 -0.0898 0.0982 0.15231 12.566 0.948)"><path d="m -45.03 19.03 c 3.055 -14.254 6.03 -17.4 6.03 -17.4" stroke-dasharray="3.21355 3.21355" stroke-linejoin="round" stroke-linecap="round"/><path d="m -61.9 18.601 l 33.82 0.012 l 0.019 17.631 l -33.832 0.007" fill-rule="evenodd"/></g><g fill-rule="evenodd" stroke-linejoin="round"><path d="m -51.822 29.22 c -0.012 6.661 -5.41 12.07 -12.07 12.07 c -6.642 0.008 -12.05 -5.386 -12.06 -12.06 c 0.012 -6.661 5.398 -12.05 12.07 -12.07 c 6.648 0.021 12.06 5.415 12.06 12.06" transform="matrix(0.15774 -0.0898 0.0982 0.15231 18.715 -2.553)"/><path d="m -51.823 29.22 c 0.006 6.672 -5.41 12.07 -12.07 12.07 c -6.642 0.008 -12.05 -5.386 -12.06 -12.06 c 0.012 -6.661 5.398 -12.05 12.07 -12.07 c 6.66 0.002 12.06 5.415 12.06 12.06" transform="matrix(0.15774 -0.0898 0.0982 0.15231 12.567 0.947)"/></g></g></g><g fill="#fff" fill-rule="evenodd"><g stroke="#fff" stroke-linejoin="round" stroke-width="1.323"><g transform="matrix(0.03839 -0.16691 0.17639 0.04057 3.851 4.831)"><path d="m -8.592 42.09 c -0.982 0.967 -2.536 0.928 -3.496 -0.036 c -0.938 -0.97 -0.923 -2.545 0.064 -3.491 c 0.965 -0.941 2.536 -0.928 3.479 0.062 c 0.938 0.97 0.918 2.524 -0.047 3.465"/><path d="m 0.158 50.838 c -0.982 0.967 -2.536 0.928 -3.496 -0.036 c -0.943 -0.991 -0.923 -2.545 0.064 -3.491 c 0.965 -0.941 2.536 -0.928 3.474 0.041 c 0.943 0.991 0.923 2.545 -0.042 3.486"/><path d="m -8.595 50.839 c -0.982 0.967 -2.536 0.928 -3.474 -0.041 c -0.965 -0.986 -0.945 -2.54 0.042 -3.486 c 0.965 -0.941 2.536 -0.928 3.474 0.041 c 0.965 0.986 0.923 2.545 -0.042 3.486"/><path d="m 0.161 42.09 c -0.982 0.967 -2.536 0.928 -3.496 -0.036 c -0.938 -0.97 -0.923 -2.545 0.064 -3.491 c 0.965 -0.941 2.536 -0.928 3.479 0.062 c 0.938 0.97 0.918 2.524 -0.047 3.465"/></g><path d="m 20.87 9.124 c -0.379 -0.405 -1.037 -0.416 -1.455 -0.016 l -3.29 3.219 l -3.215 -3.309 c -0.379 -0.405 -1.037 -0.416 -1.455 -0.016 l -2.104 2.03 c -0.395 0.396 -0.403 1.04 -0.018 1.466 l 3.21 3.288 l -3.29 3.219 c -0.417 0.401 -0.425 1.045 -0.023 1.445 l 2.033 2.104 c 0.401 0.4 1.06 0.412 1.455 0.016 l 3.295 -3.197 l 3.21 3.288 c 0.407 0.421 1.065 0.433 1.46 0.037 l 2.099 -2.051 c 0.417 -0.401 0.425 -1.045 0.023 -1.445 l -3.215 -3.309 l 3.317 -3.202 c 0.395 -0.396 0.403 -1.04 0.018 -1.466" transform="matrix(0.03839 -0.16691 0.17639 0.04057 1.949 13.176)"/></g><path d="m 6.387 4.566 c -0.082 -0.152 0.121 -0.727 0.262 -0.844 c 0.102 -0.086 0.301 -0.055 0.41 0.059 c 0.102 0.113 0.059 0.344 -0.133 0.711 c -0.16 0.309 -0.406 0.32 -0.539 0.074"/><path d="m 6.898 3.387 c 0.008 -0.172 0.477 -0.563 0.656 -0.59 c 0.133 -0.02 0.289 0.109 0.32 0.262 c 0.031 0.145 -0.125 0.324 -0.477 0.539 c -0.293 0.184 -0.512 0.07 -0.5 -0.211"/></g></svg>