<svg xmlns="http://www.w3.org/2000/svg" viewBox="0 0 16 16"><defs><linearGradient id="0" gradientUnits="userSpaceOnUse" y1="78.75" x2="0" y2="10" gradientTransform="matrix(0.97271 0 0 0.71354 2.882 13.902)"><stop stop-color="#c1c1c1"/><stop offset="1" stop-color="#fff"/></linearGradient></defs><path d="m 13.223 2.414 c 12.508 16.578 -21.914 18.934 -10.867 2.01 c 2.52 -3.855 7.555 -6.402 10.867 -2.01" fill="#ff8c00"/><g stroke="#fff" transform="matrix(0.09273 0 0 0.11088 3.622 3.085)"><path d="m 40.594 46.3 c -10.279 1.268 -5.266 26.352 -19.757 18.284 c -14.154 -7.892 17.14 -33.398 5.266 -40.691 c -17.1 -10.499 -7.372 15.748 -27.297 15.01" fill="none" stroke-linecap="round" stroke-width="12.09"/><g fill-rule="evenodd"><path d="m 74 46.44 c 0.126 15.325 6.361 26.28 -8.509 26.458 c -10.489 0.106 -25.781 -14.832 -25.823 -26.18 c 0 -11.344 16.682 -26.28 27.21 -26.387 c 13.185 -0.141 6.993 10.78 7.119 26.11" fill="#fff"/><path d="m 74.38 19.984 v 52.25 c 0 4.404 7.583 6.412 13.606 3.77 v -59.785 c -6.277 -2.466 -13.606 -0.458 -13.606 3.77" fill="url(#0)" stroke-width="2.438"/></g></g></svg>