<svg xmlns="http://www.w3.org/2000/svg" viewBox="0 0 16 16"><path d="m 1.59 12.703 c -7.824 -17.13 17.11 -15.01 14.13 -3.891 c -1.438 6.43 -10.461 10.328 -14.13 3.891" fill="#abc836"/><g fill="#fff"><path d="m 6.086 3.203 c -0.461 0 -0.844 0.371 -0.844 0.816 v 2.102 c 0 0.445 0.383 0.82 0.844 0.82 h 1.082 v 0.98 c -0.27 0.125 -0.48 0.348 -0.582 0.625 h -1.82 v 0.934 h 1.914 c 1.027 -0.016 1.027 -0.004 1.953 0 h 1.914 v -0.934 h -1.82 c -0.102 -0.277 -0.313 -0.5 -0.582 -0.625 v -0.98 h 1.082 c 0.461 0 0.844 -0.375 0.844 -0.82 v -2.102 c 0 -0.445 -0.383 -0.816 -0.844 -0.816 m -3.02 0.934 h 2.906 v 1.871 h -2.906"/><path d="m 4.766 8.898 h 0.496 v 1.848 h -0.496"/><path d="m 7.41 8.898 h 0.496 v 1.848 h -0.496"/><path d="m 10.05 8.898 h 0.496 v 1.848 h -0.496"/><path d="m 4.383 10.574 c -0.188 0 -0.34 0.152 -0.34 0.332 v 0.844 c 0 0.18 0.152 0.328 0.34 0.328 h 1.262 c 0.188 0 0.34 -0.148 0.34 -0.328 v -0.844 c 0 -0.18 -0.152 -0.332 -0.34 -0.332 m -1.215 0.379 h 1.168 v 0.75 h -1.168"/><path d="m 7.02 10.574 c -0.184 0 -0.34 0.152 -0.34 0.332 v 0.844 c 0 0.18 0.156 0.328 0.34 0.328 h 1.266 c 0.184 0 0.34 -0.148 0.34 -0.328 v -0.844 c 0 -0.18 -0.156 -0.332 -0.34 -0.332 m -1.219 0.379 h 1.172 v 0.75 h -1.172"/><path d="m 9.668 10.574 c -0.188 0 -0.34 0.152 -0.34 0.332 v 0.844 c 0 0.18 0.152 0.328 0.34 0.328 h 1.262 c 0.188 0 0.34 -0.148 0.34 -0.328 v -0.844 c 0 -0.18 -0.156 -0.332 -0.34 -0.332 m -1.215 0.379 h 1.168 v 0.75 h -1.168"/></g></svg>