<svg xmlns="http://www.w3.org/2000/svg" viewBox="0 0 16 16"><path d="m 12.1 1.55 c -6 -5.09 -13.1 3.5 -11.96 11.2 c 0.8 5.75 16.75 3.44 15.69 -4.91 c -0.32 -2.48 -1.76 -4.64 -3.73 -6.29" style="fill:#f3e6f5"/><g style="fill:#cd93db"><path d="m 4.09 11.91 c 1.47 -0.2 2.95 -0.64 4.29 -0.92 c 1.67 -0.4 4.14 -1.18 4.83 -1.11 c 0.1 0.03 -0.43 0.27 -0.8 0.36 c -0.98 0.26 -2 0.58 -2.89 0.83 c -2 0.57 -4 1.23 -5.8 1.8 c -0.62 -0.48 -0.09 -0.96 0.38 -0.96"/><path d="m 4 10.92 c -0.02 -0.04 0.18 -0.71 0.43 -1.5 c 0.83 -2.57 1.02 -3.32 1.18 -4.59 c 0.04 -0.28 0.09 -0.54 0.12 -0.58 c 0.08 -0.11 0.44 -0.04 0.56 0.1 c 0.13 0.17 0.09 0.69 -0.14 1.57 c -0.25 0.95 -0.21 0.97 0.46 0.36 c 0.84 -0.77 1.53 -1.24 2.58 -1.78 c 0.88 -0.45 1.06 -0.41 0.34 0.07 c -1.15 0.77 -2.41 1.91 -2.65 2.4 c -0.11 0.23 -0.11 0.29 -0.09 0.87 c 0.05 0.92 0.21 1.52 0.44 1.58 c 0.18 0.05 0.29 -0.02 0.43 -0.23 c 0.14 -0.21 0.48 -1.18 0.48 -1.36 c 0 -0.06 0.04 -0.16 0.09 -0.22 c 0.09 -0.11 0.11 -0.11 0.25 -0.05 c 0.15 0.06 0.18 0.05 0.51 -0.18 c 0.41 -0.29 0.55 -0.29 0.68 -0.03 c 0.08 0.16 0.09 0.26 0.06 0.78 c -0.03 0.57 -0.03 0.6 0.07 0.6 c 0.07 0 0.2 -0.2 0.56 -0.89 c 0.26 -0.49 0.2 -0.85 0.52 -0.93 c 0.04 -0.01 0.31 -0.05 0.62 -0.07 c 0.56 -0.04 1.03 -0.14 1.41 -0.29 c 0.11 -0.05 0.21 -0.07 0.22 -0.05 c 0.04 0.04 -0.52 0.45 -0.81 0.58 c -0.38 0.17 -0.41 0.22 -0.34 0.54 c 0.07 0.33 0.07 0.67 0 0.92 c -0.13 0.42 -0.65 0.85 -0.96 0.79 c -0.15 -0.04 -0.39 -0.23 -0.48 -0.41 c -0.09 -0.16 -0.28 -0.06 -0.52 0.25 c -0.14 0.19 -0.27 0.3 -0.39 0.34 c -0.34 0.12 -0.43 -0.1 -0.33 -0.86 c 0.1 -0.78 -0.01 -1.07 -0.29 -0.76 c -0.18 0.19 -0.26 0.45 -0.63 1.89 c -0.06 0.25 -0.17 0.28 -0.37 0.12 c -0.09 -0.07 -0.19 -0.13 -0.21 -0.13 c -0.03 0 -0.13 0.09 -0.24 0.2 c -0.18 0.2 -0.21 0.21 -0.48 0.21 c -0.24 0 -0.32 -0.02 -0.4 -0.12 c -0.2 -0.21 -0.37 -0.7 -0.45 -1.26 c -0.04 -0.3 -0.1 -0.56 -0.12 -0.59 c -0.14 -0.15 -0.53 0.5 -0.98 1.63 c -0.16 0.39 -0.32 0.77 -0.36 0.83 c -0.17 0.27 -0.69 0.43 -0.76 0.24 m 7.46 -2.25 c 0.11 -0.14 0.14 -0.25 0.16 -0.53 c 0.03 -0.46 0 -0.58 -0.2 -0.71 c -0.15 -0.1 -0.17 -0.1 -0.26 -0.02 c -0.15 0.14 -0.39 0.58 -0.39 0.74 c 0 0.16 0.22 0.63 0.31 0.67 c 0.19 0.04 0.3 -0.05 0.38 -0.15"/></g></svg>