
<svg xmlns="http://www.w3.org/2000/svg" xmlns:xlink="http://www.w3.org/1999/xlink" width="16px" height="16px" viewBox="0 0 16 16" version="1.1">
<g id="surface1">
<path style=" stroke:none;fill-rule:nonzero;fill:rgb(100%,54.901961%,0%);fill-opacity:1;" d="M 4.574219 15.941406 C 27.582031 17.527344 10.335938 -13.164062 0.5625 7.046875 C -0.785156 10.160156 0.199219 14.804688 4.574219 15.941406 Z M 4.574219 15.941406 "/>
<path style="fill:none;stroke-width:2.61194;stroke-linecap:round;stroke-linejoin:round;stroke:rgb(100%,100%,100%);stroke-opacity:1;stroke-dasharray:2.61194,2.61194;stroke-miterlimit:4;" d="M 24.036367 15.106857 L 36.124183 27.191649 " transform="matrix(0.155115,0,0,0.169376,3.771602,3.663916)"/>
<path style="fill:none;stroke-width:2.61194;stroke-linecap:round;stroke-linejoin:round;stroke:rgb(100%,100%,100%);stroke-opacity:1;stroke-dasharray:2.61194,2.61194;stroke-miterlimit:4;" d="M 13.736541 29.198093 L 18.193923 38.630688 " transform="matrix(0.155115,0,0,0.169376,3.771602,3.663916)"/>
<path style="fill:none;stroke-width:2.5;stroke-linecap:round;stroke-linejoin:round;stroke:rgb(100%,100%,100%);stroke-opacity:1;stroke-dasharray:2.5,2.5;stroke-miterlimit:4;" d="M 37.517702 40.645868 L 28.792168 44.773741 " transform="matrix(0.16206,0,0,0.17696,3.583933,3.483085)"/>
<path style="fill-rule:evenodd;fill:rgb(100%,54.901961%,0%);fill-opacity:1;stroke-width:2.5;stroke-linecap:round;stroke-linejoin:round;stroke:rgb(100%,100%,100%);stroke-opacity:1;stroke-miterlimit:4;" d="M 5.728363 3.506379 C 4.519581 3.506379 3.537446 4.475008 3.537446 5.697324 L 3.537446 6.919641 C 3.537446 8.141958 4.519581 9.110586 5.728363 9.110586 L 21.971366 9.110586 C 23.180147 9.110586 24.162282 8.141958 24.162282 6.919641 L 24.162282 5.697324 C 24.162282 4.475008 23.180147 3.506379 21.971366 3.506379 Z M 5.728363 3.506379 " transform="matrix(0.155115,0,0,0.169376,3.771602,3.663916)"/>
<path style="fill:none;stroke-width:2.61194;stroke-linecap:round;stroke-linejoin:round;stroke:rgb(100%,100%,100%);stroke-opacity:1;stroke-miterlimit:4;" d="M 5.728363 3.506379 C 4.519581 3.506379 3.537446 4.475008 3.537446 5.697324 L 3.537446 26.914898 C 3.537446 28.137214 4.519581 29.105843 5.728363 29.105843 L 21.971366 29.105843 C 23.180147 29.105843 24.162282 28.137214 24.162282 26.914898 L 24.162282 5.697324 C 24.162282 4.475008 23.180147 3.506379 21.971366 3.506379 Z M 5.728363 3.506379 " transform="matrix(0.155115,0,0,0.169376,3.771602,3.663916)"/>
<path style="fill-rule:nonzero;fill:rgb(100%,100%,100%);fill-opacity:1;stroke-width:1;stroke-linecap:butt;stroke-linejoin:miter;stroke:rgb(100%,100%,100%);stroke-opacity:1;stroke-miterlimit:4;" d="M 94.950936 56.055607 L 96.118002 139.154821 C 95.826235 155.988424 121.20991 154.919623 120.918144 139.422021 L 119.751078 55.788407 L 160.306605 55.788407 C 172.852559 55.521207 174.311391 29.068402 160.306605 28.801202 L 52.061278 28.801202 C 40.390623 28.801202 41.265922 55.254007 52.061278 55.521207 Z M 94.950936 56.055607 " transform="matrix(0.0133883,0,0,0.0146192,4.463145,5.090668)"/>
<path style="fill-rule:nonzero;fill:rgb(100%,100%,100%);fill-opacity:1;stroke-width:2;stroke-linecap:butt;stroke-linejoin:miter;stroke:rgb(100%,100%,100%);stroke-opacity:1;stroke-miterlimit:4;" d="M 59.647204 57.124407 C 59.063671 57.124407 58.188372 57.391607 57.604839 57.926007 L 46.517717 69.148409 C 45.934184 69.682809 45.642418 70.484409 45.642418 71.018809 C 45.642418 71.553209 45.934184 72.087609 45.934184 72.622009 C 45.934184 72.622009 58.188372 92.394813 58.771905 93.463613 C 56.72954 97.204414 54.978942 100.945214 53.811876 104.953215 C 52.644811 105.220415 30.470566 110.030016 30.470566 110.030016 C 29.011734 110.030016 28.136435 111.366016 28.136435 112.434816 L 28.136435 128.466819 C 28.136435 129.535619 29.011734 130.871619 30.1788 131.138819 C 30.1788 131.138819 51.769512 136.21562 52.936577 136.48282 C 54.103643 141.292421 55.854241 145.834822 58.188372 150.110023 C 57.604839 151.178823 45.058885 170.150026 45.058885 170.150026 C 44.767119 170.417226 44.767119 170.951626 44.767119 171.486026 C 44.767119 172.287626 45.058885 172.822026 45.350651 173.356427 L 56.72954 184.578828 C 57.604839 185.647629 59.063671 185.647629 59.93897 185.113228 C 59.93897 185.113228 79.487318 173.089226 80.654383 172.554826 C 84.447346 174.692427 88.532076 176.562827 92.908571 177.631627 C 93.200338 178.967627 97.576833 200.878031 97.576833 200.878031 C 97.8686 201.946831 99.035665 203.015632 100.494497 203.015632 L 116.249882 203.015632 C 117.416947 203.015632 118.584013 201.946831 118.875779 200.878031 L 124.41934 177.898827 C 128.795836 176.562827 132.880565 174.959627 136.673528 172.822026 C 137.548827 173.089226 145.134753 177.898827 150.970081 181.372428 C 153.887745 183.242828 157.388941 185.647629 157.388941 185.647629 C 158.556007 186.449229 160.014839 186.182029 160.890138 185.380429 L 172.269027 174.158027 C 172.852559 173.356427 173.144326 172.020426 172.560793 170.951626 C 172.560793 170.951626 172.560793 170.951626 172.560793 170.684426 C 172.560793 170.684426 172.560793 170.417226 172.269027 170.150026 C 172.269027 170.150026 171.393727 168.814026 171.101961 168.546826 L 164.974867 158.126024 C 164.683101 157.858824 164.391334 157.591624 164.099568 157.591624 C 161.765437 154.118023 159.431306 150.644423 159.13954 150.110023 C 161.473671 146.102022 163.224269 141.559621 164.391334 136.75002 C 165.850166 136.48282 187.149112 131.138819 187.149112 131.138819 C 188.316178 130.871619 189.191477 129.802819 189.191477 128.734019 L 189.191477 112.702016 C 189.191477 111.366016 188.316178 110.297216 187.149112 110.030016 C 187.149112 110.030016 164.974867 105.487615 163.516035 105.220415 C 162.34897 101.212414 160.598371 97.471614 158.556007 93.730813 C 159.13954 92.662013 171.393727 72.622009 171.393727 72.622009 C 171.685494 72.354809 171.685494 71.820409 171.685494 71.286009 C 171.685494 70.751609 171.393727 69.950009 171.101961 69.415609 L 159.723072 58.193207 C 158.847773 57.391607 157.388941 57.124407 156.513642 57.926007 C 156.513642 57.926007 136.673528 70.751609 135.506463 71.553209 C 133.172332 70.217209 130.546434 69.148409 127.628771 68.079609 C 127.337004 68.079609 127.045238 68.079609 126.461705 68.346809 C 126.169939 68.614009 126.169939 68.881209 126.169939 69.415609 L 126.169939 80.905211 C 126.169939 81.439611 126.461705 81.974011 126.753471 82.241211 C 142.800622 89.188412 153.012446 105.220415 153.012446 122.588418 C 153.012446 129.535619 151.261847 136.21562 148.344183 142.094021 C 148.344183 142.094021 148.052417 142.361221 148.052417 142.361221 C 140.466491 157.324424 125.29464 166.409225 108.663956 166.409225 C 96.993301 166.409225 85.906178 161.866825 77.444953 153.583623 C 68.983728 145.300422 64.607233 134.07802 64.607233 122.321218 C 64.607233 104.953215 74.819056 89.188412 90.57444 81.974011 C 91.157973 81.706811 91.449739 81.172411 91.449739 80.905211 L 91.449739 69.148409 C 91.449739 68.614009 91.157973 68.346809 90.866207 68.079609 C 90.57444 67.812409 89.990908 67.812409 89.699141 67.812409 C 87.073244 68.881209 84.447346 69.950009 81.821449 71.286009 C 80.94615 70.484409 61.106036 57.658807 61.106036 57.658807 C 60.522503 57.391607 60.230737 57.124407 59.647204 57.124407 Z M 59.647204 57.124407 " transform="matrix(0.0133883,0,0,0.0146192,4.463145,5.090668)"/>
<path style="fill:none;stroke-width:2.5;stroke-linecap:round;stroke-linejoin:round;stroke:rgb(100%,100%,100%);stroke-opacity:1;stroke-miterlimit:4;" d="M 39.783448 11.618313 C 38.602368 11.618313 37.686428 12.545428 37.686428 13.71536 L 37.686428 41.219797 C 37.686428 42.367655 38.602368 43.29477 39.783448 43.29477 L 55.306221 43.29477 C 56.463198 43.29477 57.403241 42.367655 57.403241 41.219797 L 57.403241 13.71536 C 57.403241 12.545428 56.463198 11.618313 55.306221 11.618313 Z M 39.783448 11.618313 " transform="matrix(0.16206,0,0,0.17696,3.583933,3.483085)"/>
<path style="fill:none;stroke-width:2.5;stroke-linecap:round;stroke-linejoin:round;stroke:rgb(100%,100%,100%);stroke-opacity:1;stroke-miterlimit:4;" d="M 39.393532 17.920052 L 51.252545 17.920052 " transform="matrix(0.16206,0,0,0.17696,3.865873,4.13746)"/>
<path style="fill:none;stroke-width:2.5;stroke-linecap:round;stroke-linejoin:round;stroke:rgb(100%,100%,100%);stroke-opacity:1;stroke-miterlimit:4;" d="M 39.393532 21.760961 L 49.010902 21.760961 " transform="matrix(0.16206,0,0,0.17696,3.865873,4.13746)"/>
<path style="fill:none;stroke-width:2.5;stroke-linecap:round;stroke-linejoin:round;stroke:rgb(100%,100%,100%);stroke-opacity:1;stroke-miterlimit:4;" d="M 39.393532 25.601869 L 46.431808 25.601869 " transform="matrix(0.16206,0,0,0.17696,3.865873,4.13746)"/>
<path style="fill:none;stroke-width:2.5;stroke-linecap:round;stroke-linejoin:round;stroke:rgb(100%,100%,100%);stroke-opacity:1;stroke-miterlimit:4;" d="M 39.393532 29.464852 L 51.879241 29.464852 " transform="matrix(0.16206,0,0,0.17696,3.865873,4.13746)"/>
<path style="fill:none;stroke-width:2.5;stroke-linecap:round;stroke-linejoin:round;stroke:rgb(100%,100%,100%);stroke-opacity:1;stroke-miterlimit:4;" d="M 10.545679 37.842446 C 9.364599 37.842446 8.448659 38.769562 8.448659 39.91742 L 8.448659 53.62549 C 8.448659 54.795422 9.364599 55.722538 10.545679 55.722538 L 26.068452 55.722538 C 27.225429 55.722538 28.165472 54.795422 28.165472 53.62549 L 28.165472 39.91742 C 28.165472 38.769562 27.225429 37.842446 26.068452 37.842446 Z M 10.545679 37.842446 " transform="matrix(0.16206,0,0,0.17696,3.583933,3.483085)"/>
<path style="fill:none;stroke-width:2.5;stroke-linecap:round;stroke-linejoin:round;stroke:rgb(100%,100%,100%);stroke-opacity:1;stroke-miterlimit:4;" d="M 11.715777 45.8127 L 24.201485 45.8127 " transform="matrix(0.16206,0,0,0.17696,3.6404,3.666418)"/>
<path style="fill:none;stroke-width:2.5;stroke-linecap:round;stroke-linejoin:round;stroke:rgb(100%,100%,100%);stroke-opacity:1;stroke-miterlimit:4;" d="M 11.715777 49.653609 L 22.610642 49.653609 " transform="matrix(0.16206,0,0,0.17696,3.6404,3.666418)"/>
<path style="fill-rule:evenodd;fill:rgb(100%,54.901961%,0%);fill-opacity:1;stroke-width:2.5;stroke-linecap:round;stroke-linejoin:round;stroke:rgb(100%,100%,100%);stroke-opacity:1;stroke-miterlimit:4;" d="M 39.518308 11.55209 C 38.361331 11.55209 37.421287 12.479206 37.421287 13.649138 L 37.421287 14.81907 C 37.421287 15.989002 38.361331 16.916117 39.518308 16.916117 L 55.065184 16.916117 C 56.222161 16.916117 57.162205 15.989002 57.162205 14.81907 L 57.162205 13.649138 C 57.162205 12.479206 56.222161 11.55209 55.065184 11.55209 Z M 39.518308 11.55209 " transform="matrix(0.16206,0,0,0.17696,3.583933,3.483085)"/>
<path style="fill-rule:evenodd;fill:rgb(100%,54.901961%,0%);fill-opacity:1;stroke-width:2.5;stroke-linecap:round;stroke-linejoin:round;stroke:rgb(100%,100%,100%);stroke-opacity:1;stroke-miterlimit:4;" d="M 11.051857 37.732075 C 9.89488 37.732075 8.954836 38.681265 8.954836 39.829123 L 8.954836 41.021129 C 8.954836 42.168987 9.89488 43.118177 11.051857 43.118177 L 26.574629 43.118177 C 27.731606 43.118177 28.67165 42.168987 28.67165 41.021129 L 28.67165 39.829123 C 28.67165 38.681265 27.731606 37.732075 26.574629 37.732075 Z M 11.051857 37.732075 " transform="matrix(0.16206,0,0,0.17696,3.583933,3.483085)"/>
</g>
</svg>
