<svg xmlns="http://www.w3.org/2000/svg" viewBox="0 0 16 16"><path d="m 14.832 3.887 c -12.09 -14.09 -23.711 14.871 -5.02 11.898 c 4.102 -0.652 8.273 -8.105 5.02 -11.898" fill="#fb0"/><path d="m 7.473 12.805 c -0.102 -0.008 -0.184 -0.027 -0.184 -0.047 c 0 -0.016 -0.039 -0.031 -0.086 -0.031 c -0.25 0 -0.871 -0.203 -1.313 -0.426 c -1.203 -0.605 -2.043 -1.707 -2.355 -3.098 c -0.09 -0.398 -0.082 -1.227 0.016 -1.684 c 0.527 -2.434 2.902 -3.949 5.324 -3.402 c 0.137 0.035 0.258 0.078 0.266 0.102 c 0.012 0.023 -0.449 0.887 -1.02 1.918 c -0.57 1.027 -1.031 1.883 -1.02 1.902 c 0.012 0.016 0.461 0.027 1 0.027 c 0.539 0 0.988 0.016 1 0.031 c 0.008 0.016 -0.09 0.203 -0.215 0.422 l -0.234 0.395 h -1.621 c -1.113 0 -1.625 -0.012 -1.633 -0.039 c -0.004 -0.02 0.48 -0.914 1.078 -1.992 c 0.598 -1.074 1.09 -1.977 1.09 -2 c 0 -0.066 -0.02 -0.066 -0.398 0.012 c -1.484 0.309 -2.613 1.484 -2.852 2.98 c -0.066 0.406 -0.027 1.137 0.082 1.523 c 0.18 0.645 0.488 1.168 0.961 1.629 c 1.988 1.93 5.324 1 6.01 -1.668 c 0.039 -0.145 0.07 -0.301 0.07 -0.344 v -0.082 h -1.305 l -1.113 1.156 c -0.613 0.637 -1.121 1.156 -1.133 1.156 c -0.02 0 0.094 -0.203 1.016 -1.863 l 0.723 -1.293 l 1.344 -0.008 l 1.34 -0.012 l -0.02 0.457 c -0.027 0.664 -0.164 1.203 -0.457 1.793 c -0.426 0.867 -1.203 1.637 -2.063 2.043 c -0.301 0.141 -0.84 0.316 -1.082 0.352 c -0.094 0.012 -0.188 0.035 -0.207 0.051 c -0.043 0.031 -0.762 0.063 -1.01 0.043 m 3.254 -6.461 c -0.039 -0.016 -0.121 -0.086 -0.184 -0.152 c -0.094 -0.109 -0.109 -0.152 -0.109 -0.309 c 0 -0.551 0.695 -0.742 0.961 -0.273 c 0.137 0.246 0.07 0.531 -0.164 0.691 c -0.121 0.082 -0.363 0.102 -0.504 0.043" fill="#e50012"/></svg>