<svg xmlns="http://www.w3.org/2000/svg" viewBox="0 0 16 16"><path d="m 0.129 8.04 c -1.203 -10.555 15.992 -10.41 15.789 0.188 c 0.566 9.852 -16.727 10.742 -15.789 -0.188" fill="#5a5a55"/><path d="m 64.52 2.998 l -0.411 21.01 l 20.719 0.392 l -0.228 71.41 l -73.06 0.196 v -94.83 l 51.48 -0.392" transform="matrix(0.0856 0 0 0.07975 3.735 4.159)" fill="#ebebd9" stroke="#5d5d5d" stroke-width="3"/><g fill="#333"><path d="m 7.414 8.707 c 0 -0.488 -0.418 -0.879 -0.941 -0.879 c -0.52 0 -0.941 0.391 -0.941 0.879 c 0 0.484 0.422 0.875 0.941 0.875 c 0.523 0 0.941 -0.391 0.941 -0.875"/><path d="m 9.77 8.305 c 0 -0.242 -0.211 -0.438 -0.469 -0.438 c -0.262 0 -0.473 0.195 -0.473 0.438 c 0 0.242 0.211 0.441 0.473 0.441 c 0.258 0 0.469 -0.199 0.469 -0.441"/><path d="m 7.586 9.184 l 1.113 -0.32 c 0.129 -0.039 0.258 -0.039 0.172 0.16 l -0.387 0.641 c -0.043 0.117 -0.086 0.117 -0.086 0.039 l -0.813 -0.199 c -0.172 -0.082 0 -0.16 0 -0.16"/></g><path d="m 42.02 75 c 0.958 2.988 7.986 4.02 10.998 0.98 c 2.464 -2.498 2.464 -4.996 2.464 -4.996 c 0 0 2.01 3.037 6.02 3.037 c 6.48 0 6.48 -7 6.48 -7" transform="matrix(0.0856 0 0 0.07975 3.735 4.159)" fill="none" stroke="#333" stroke-linecap="round" stroke-width="3"/><path d="m 7.07 8.707 c 0 -0.199 -0.172 -0.359 -0.387 -0.359 c -0.211 0 -0.383 0.16 -0.383 0.359 c 0 0.195 0.172 0.355 0.383 0.355 c 0.215 0 0.387 -0.16 0.387 -0.355" fill="#ebebd9"/><path d="m 64.11 3.341 v 19.05 h 18.665" transform="matrix(0.0856 0 0 0.07975 3.735 4.159)" fill="#fff" stroke="#5d5d5d" stroke-width="2.973"/></svg>