<svg xmlns="http://www.w3.org/2000/svg" viewBox="0 0 16 16"><path d="m 2.402 3.063 c -11.578 18.313 23.348 15.934 10.629 -0.371 c -2.488 -2.867 -7.293 -4.09 -10.629 0.371" fill="#033737"/><path d="m 7.313 12.895 c -0.27 -0.078 -0.578 -0.262 -2.195 -1.277 l -1.883 -1.184 v -2.105 c 0 -1.949 0.008 -2.109 0.074 -2.184 c 0.043 -0.043 0.914 -0.605 1.938 -1.246 c 1.703 -1.07 1.891 -1.18 2.191 -1.262 l 0.332 -0.094 l 0.332 0.094 c 0.305 0.082 0.492 0.191 2.195 1.262 c 1.023 0.641 1.895 1.203 1.934 1.246 c 0.07 0.074 0.074 0.234 0.074 2.184 v 2.105 l -1.879 1.184 c -1.676 1.055 -1.914 1.195 -2.207 1.277 c -0.402 0.117 -0.512 0.117 -0.906 0" fill="#01fafa"/><path d="m 5.191 11.438 l -1.773 -1.125 l -0.012 -1.613 c -0.008 -1.301 0 -1.609 0.043 -1.598 c 0.082 0.027 3.508 2.199 3.543 2.242 c 0.039 0.051 0.039 3.227 0 3.223 c -0.016 -0.004 -0.828 -0.512 -1.801 -1.129 m 3.25 -0.473 c 0 -1.477 0.004 -1.605 0.074 -1.656 c 0.148 -0.109 3.488 -2.215 3.52 -2.215 c 0.02 0 0.027 0.723 0.023 1.609 l -0.012 1.609 l -1.773 1.125 c -0.973 0.617 -1.785 1.125 -1.801 1.129 c -0.02 0 -0.031 -0.719 -0.031 -1.602 m -1.262 -3.039 c -0.27 -0.172 -0.488 -0.328 -0.488 -0.348 c 0 -0.047 0.965 -0.648 1.039 -0.648 c 0.078 0 1.043 0.602 1.043 0.648 c 0 0.043 -0.988 0.672 -1.055 0.668 c -0.027 -0.004 -0.27 -0.145 -0.539 -0.32 m -1.238 -0.781 c -0.242 -0.152 -0.461 -0.301 -0.492 -0.324 c -0.043 -0.039 0.051 -0.113 0.465 -0.371 c 0.285 -0.18 0.539 -0.324 0.566 -0.324 c 0.086 0 1.055 0.641 1.016 0.672 c -0.133 0.113 -1 0.633 -1.055 0.629 c -0.035 0 -0.262 -0.129 -0.5 -0.281 m 2.539 -0.02 c -0.262 -0.164 -0.492 -0.313 -0.512 -0.328 c -0.039 -0.031 0.934 -0.672 1.016 -0.672 c 0.043 0 0.93 0.535 1.055 0.633 c 0.039 0.031 -0.934 0.672 -1.023 0.672 c -0.027 0 -0.27 -0.137 -0.535 -0.305 m -3.824 -0.797 c -0.281 -0.176 -0.508 -0.336 -0.508 -0.352 c 0 -0.031 0.91 -0.621 1.016 -0.656 c 0.059 -0.02 1.066 0.598 1.066 0.656 c 0 0.035 -0.98 0.668 -1.035 0.668 c -0.016 0 -0.258 -0.141 -0.539 -0.316 m 2.555 -0.004 c -0.273 -0.176 -0.5 -0.332 -0.5 -0.348 c 0 -0.02 0.23 -0.176 0.512 -0.355 l 0.508 -0.32 l 0.512 0.32 c 0.281 0.18 0.512 0.336 0.512 0.355 c 0 0.027 -0.992 0.672 -1.027 0.668 c -0.008 0 -0.238 -0.145 -0.516 -0.32 m 2.523 0.008 c -0.262 -0.168 -0.484 -0.324 -0.492 -0.348 c -0.016 -0.039 0.957 -0.68 1.031 -0.68 c 0.059 0 1.043 0.637 1.043 0.672 c 0 0.043 -1 0.672 -1.059 0.668 c -0.027 -0.004 -0.262 -0.145 -0.523 -0.313 m -3.816 -0.824 c -0.273 -0.176 -0.496 -0.328 -0.496 -0.344 c 0.008 -0.043 0.953 -0.637 1.02 -0.641 c 0.051 0 0.922 0.52 1.055 0.633 c 0.039 0.031 -0.934 0.672 -1.02 0.668 c -0.031 0 -0.281 -0.145 -0.559 -0.316 m 2.551 0.023 c -0.246 -0.16 -0.469 -0.305 -0.488 -0.324 c -0.047 -0.039 0.98 -0.711 1.055 -0.691 c 0.098 0.027 0.988 0.613 0.988 0.652 c -0.004 0.055 -0.969 0.66 -1.047 0.656 c -0.031 0 -0.258 -0.133 -0.508 -0.293 m -1.27 -0.805 c -0.281 -0.18 -0.508 -0.336 -0.508 -0.355 c 0 -0.039 0.98 -0.668 1.043 -0.668 c 0.063 0 1.039 0.629 1.039 0.672 c 0 0.031 -0.906 0.617 -1.012 0.652 c -0.027 0.012 -0.281 -0.125 -0.563 -0.301" fill="#040606"/></svg>