<svg xmlns="http://www.w3.org/2000/svg" viewBox="0 0 16 16"><path d="m 2.027 4.195 c -5.66 6.391 2.719 13.156 7.625 11.492 c 4.906 -1.66 8.203 -6.355 5 -10.473 c -3.207 -4.117 -6.355 -8.09 -12.02 -1.691" fill="#2f4e4e"/><path d="m 7.941 14.04 c -0.352 -0.184 -0.555 -0.336 -0.602 -0.449 c -0.023 -0.055 -0.063 -0.508 -0.094 -1 c -0.117 -2.086 -0.176 -2.313 -0.816 -3.246 c -0.445 -0.645 -0.469 -0.766 -0.238 -1.117 c 0.313 -0.48 0.578 -0.578 1.434 -0.531 c 0.602 0.031 0.621 0.027 0.672 -0.066 c 0.031 -0.055 0.051 -0.188 0.043 -0.293 l -0.016 -0.191 l -0.504 -0.027 c -0.273 -0.016 -0.566 -0.051 -0.645 -0.082 c -0.379 -0.145 -0.648 -0.492 -0.715 -0.91 c -0.035 -0.25 0.082 -1.086 0.219 -1.523 c 0.113 -0.379 0.805 -1.887 0.859 -1.887 c 0.02 0 0.125 0.16 0.234 0.359 c 0.207 0.375 0.703 0.977 1.461 1.777 c 0.25 0.262 0.508 0.578 0.574 0.703 c 0.293 0.547 0.039 1.105 -0.645 1.406 c -0.145 0.063 -0.309 0.117 -0.359 0.117 c -0.176 0 -0.23 0.074 -0.254 0.336 c -0.027 0.301 -0.043 0.297 0.613 0.188 c 0.59 -0.102 0.863 -0.09 1.059 0.035 c 0.16 0.102 0.16 0.105 0.16 0.441 c -0.004 0.215 -0.043 0.477 -0.113 0.703 c -0.211 0.691 -0.195 1.996 0.047 3.84 c 0.129 0.988 0.141 0.918 -0.188 1.129 c -0.152 0.098 -0.41 0.234 -0.57 0.297 c -0.262 0.105 -0.363 0.117 -0.836 0.117 c -0.5 0 -0.559 -0.008 -0.781 -0.125 m 1.316 -0.133 c 0.145 -0.043 0.391 -0.16 0.551 -0.262 c 0.34 -0.215 0.328 -0.152 0.203 -1.227 c -0.238 -2.031 -0.238 -2.93 0 -3.75 c 0.227 -0.777 0.215 -0.832 -0.176 -0.855 c -0.223 -0.012 -0.309 0.016 -0.754 0.227 c -0.664 0.32 -0.883 0.328 -1.555 0.047 c -0.254 -0.105 -0.508 -0.191 -0.563 -0.191 c -0.379 0 -0.758 0.504 -0.66 0.879 c 0.02 0.059 0.148 0.27 0.289 0.465 c 0.645 0.902 0.754 1.301 0.844 3.063 c 0.027 0.539 0.066 1.047 0.086 1.133 c 0.031 0.125 0.09 0.184 0.34 0.328 c 0.488 0.277 0.82 0.313 1.395 0.145 m -0.973 -6.992 c 0.035 -0.09 -0.086 -0.434 -0.305 -0.848 c -0.176 -0.336 -0.191 -0.398 -0.094 -0.398 c 0.07 0 0.395 0.637 0.531 1.035 c 0.102 0.289 0.168 0.301 0.594 0.098 c 0.523 -0.25 0.75 -0.629 0.625 -1.059 c -0.047 -0.168 -0.398 -0.609 -1.012 -1.27 c -0.355 -0.383 -0.824 -0.973 -0.961 -1.215 c -0.113 -0.195 -0.156 -0.152 -0.438 0.457 c -0.309 0.656 -0.488 1.254 -0.559 1.828 c -0.055 0.438 -0.051 0.516 0.02 0.734 c 0.094 0.273 0.367 0.551 0.594 0.598 c 0.074 0.016 0.199 0.047 0.277 0.066 c 0.078 0.02 0.27 0.039 0.422 0.043 c 0.211 0 0.281 -0.016 0.305 -0.07"/><path d="m 7.621 6.91 c -0.176 -0.055 -0.379 -0.301 -0.418 -0.504 c -0.055 -0.313 0.176 -1.676 0.34 -2 c 0.063 -0.121 0.031 -0.145 0.379 0.32 c 0.105 0.141 0.379 0.465 0.605 0.719 c 0.227 0.25 0.461 0.531 0.523 0.625 c 0.133 0.203 0.129 0.434 0.027 0.598 c -0.125 0.195 -0.406 0.266 -0.484 0.219 c -0.031 -0.02 -0.156 -0.238 -0.242 -0.449 c -0.168 -0.422 -0.289 -0.695 -0.387 -0.777 c -0.074 -0.066 -0.121 -0.074 -0.172 0.012 c -0.031 0.047 0.051 0.121 0.234 0.566 c 0.141 0.34 0.234 0.637 0.234 0.66 c 0 0.051 -0.461 0.07 -0.641 0.016" fill="#fdf213"/><path d="m 7.473 6.891 c -0.352 -0.074 -0.539 -0.219 -0.707 -0.543 l -0.133 -0.258 l 0.043 -0.406 c 0.051 -0.461 0.191 -1.035 0.344 -1.43 c 0.168 -0.426 0.488 -1.078 0.531 -1.078 c 0.02 0 0.055 0.035 0.078 0.078 c 0.109 0.199 0.516 0.699 1.285 1.574 c 0.594 0.676 0.723 0.875 0.723 1.109 c 0 0.285 -0.059 0.469 -0.441 0.738 c -0.32 0.219 -0.18 -0.055 -0.129 -0.129 c 0.078 -0.109 0.074 -0.313 -0.004 -0.465 c -0.031 -0.066 -0.266 -0.344 -0.516 -0.617 c -0.25 -0.273 -0.555 -0.629 -0.672 -0.785 c -0.117 -0.156 -0.23 -0.285 -0.25 -0.285 c -0.168 0 -0.488 1.637 -0.395 1.988 c 0.055 0.195 0.27 0.41 0.441 0.449 c 0.07 0.012 0.137 0.047 0.145 0.074 c 0.02 0.059 -0.016 0.055 -0.344 -0.016" fill="#ffa400"/><path d="m 8.379 13.941 c -0.246 -0.066 -0.594 -0.242 -0.715 -0.355 c -0.125 -0.117 -0.133 -0.164 -0.211 -1.359 c -0.113 -1.742 -0.188 -2.02 -0.77 -2.891 c -0.156 -0.238 -0.309 -0.496 -0.336 -0.566 c -0.066 -0.195 0 -0.406 0.195 -0.621 c 0.246 -0.266 0.328 -0.273 0.859 -0.086 c 0.652 0.23 0.695 0.238 0.977 0.219 c 0.195 -0.016 0.367 -0.074 0.727 -0.23 c 0.395 -0.176 0.508 -0.211 0.699 -0.211 c 0.16 0 0.246 0.02 0.293 0.07 c 0.066 0.066 0.063 0.094 -0.055 0.57 c -0.07 0.273 -0.148 0.621 -0.176 0.773 c -0.066 0.414 -0.02 1.879 0.102 2.953 c 0.133 1.188 0.133 1.168 -0.035 1.309 c -0.219 0.176 -0.605 0.352 -0.934 0.418 c -0.355 0.074 -0.387 0.074 -0.621 0.008" fill="#c3c3c3"/><path d="m 7.738 13.594 c -0.059 -0.039 -0.113 -0.094 -0.125 -0.129 c -0.051 -0.168 -0.098 -0.723 -0.133 -1.48 c -0.059 -1.391 -0.176 -1.781 -0.824 -2.797 c -0.375 -0.59 -0.387 -0.707 -0.109 -1.027 c 0.234 -0.27 0.422 -0.324 1.039 -0.016 c 0.316 0.156 0.363 0.156 0.328 0.223 c -0.023 0.043 -0.063 0.902 -0.086 1.945 c -0.02 0.98 -0.047 2.086 -0.059 2.457 c 0.039 0.262 0.168 0.941 -0.031 0.824" fill="#fff"/></svg>