<svg xmlns="http://www.w3.org/2000/svg" viewBox="0 0 16 16"><path d="m 12.11 14.832 c 14.09 -12.09 -14.871 -23.711 -11.898 -5.02 c 0.652 4.102 8.105 8.273 11.898 5.02" fill="#2f2f2f"/><g fill="#cecece"><path d="m 0.953 11.04 c -0.043 -0.051 -0.113 -0.23 -0.156 -0.398 c -0.047 -0.172 -0.129 -0.355 -0.188 -0.41 c -0.055 -0.059 -0.121 -0.23 -0.148 -0.387 c -0.023 -0.156 -0.063 -0.367 -0.082 -0.465 c -0.035 -0.164 -0.016 -0.156 0.262 0.094 c 0.293 0.262 0.305 0.27 0.91 0.27 c 0.902 0 1.031 -0.047 1.527 -0.512 c 0.332 -0.313 0.441 -0.465 0.445 -0.629 c 0.012 -0.281 0.141 -0.246 0.207 0.059 c 0.027 0.133 0.07 0.328 0.098 0.441 c 0.043 0.18 -0.012 0.258 -0.508 0.742 c -0.305 0.297 -0.555 0.594 -0.555 0.656 c 0 0.23 -0.176 0.477 -0.387 0.551 c -0.316 0.113 -1.332 0.102 -1.426 -0.012"/><path d="m 1.031 8.641 c -0.539 -0.484 -0.57 -0.563 -0.332 -0.906 c 0.25 -0.363 0.633 -0.656 0.852 -0.652 c 0.094 0 0.301 0.082 0.461 0.18 c 0.164 0.102 0.352 0.184 0.422 0.184 c 0.246 0 0.102 0.723 -0.219 1.102 c -0.176 0.207 -0.559 0.434 -0.738 0.434 c -0.039 0 -0.238 -0.152 -0.445 -0.34"/><path d="m 0.656 5.152 c 0 -1.137 0.012 -1.246 0.168 -1.516 l 0.164 -0.293 l 0.766 -0.016 c 0.422 -0.004 0.867 -0.012 0.996 -0.016 c 0.164 -0.004 0.332 -0.102 0.598 -0.34 c 0.488 -0.438 0.516 -0.543 0.238 -0.973 c -0.125 -0.195 -0.227 -0.402 -0.227 -0.461 c 0 -0.148 0.211 -0.324 0.469 -0.383 c 0.184 -0.043 0.254 -0.008 0.527 0.258 c 0.406 0.398 0.516 0.707 0.363 1 c -0.059 0.121 -0.555 0.656 -1.102 1.191 c -1.117 1.102 -1.152 1.164 -1.086 2.047 c 0.055 0.684 -0.035 0.781 -0.434 0.477 c -0.324 -0.25 -0.605 -0.238 -0.961 0.031 c -0.48 0.363 -0.48 0.363 -0.48 -1.01 m 1.254 -0.211 c 0.168 -0.152 0.172 -0.375 0.012 -0.551 c -0.258 -0.285 -0.754 -0.082 -0.754 0.313 c 0 0.336 0.469 0.484 0.742 0.234"/><path d="m 7.04 6.098 c -0.609 -0.641 -0.773 -0.77 -1.012 -0.813 c -0.387 -0.07 -0.801 -0.508 -1.145 -1.219 c -0.332 -0.676 -0.352 -0.949 -0.09 -1.07 c 0.305 -0.137 0.449 -0.098 0.754 0.191 c 0.207 0.199 0.297 0.355 0.332 0.578 c 0.082 0.527 0.262 0.609 1.375 0.609 c 1.082 0 1.16 0.047 0.824 0.484 c -0.199 0.262 -0.203 0.289 -0.188 1.133 c 0.012 0.523 -0.012 0.867 -0.051 0.867 c -0.039 0 -0.398 -0.344 -0.801 -0.762"/><path d="m 5.668 7.82 c -0.297 -0.18 -0.695 -0.641 -0.695 -0.805 c 0 -0.313 0.711 -1.031 1.016 -1.031 c 0.059 0 0.281 0.176 0.496 0.391 c 0.559 0.559 0.512 0.836 -0.223 1.418 c -0.254 0.199 -0.313 0.199 -0.594 0.027"/><path d="m 5.367 11.02 c -0.375 -0.109 -0.422 -0.223 -0.402 -0.973 l 0.02 -0.672 l -0.297 -0.359 c -0.18 -0.219 -0.281 -0.41 -0.262 -0.48 c 0.066 -0.199 -0.035 -0.348 -0.301 -0.434 c -0.223 -0.074 -0.246 -0.109 -0.246 -0.355 c 0 -0.152 0.043 -0.336 0.102 -0.414 c 0.098 -0.133 0.109 -0.133 0.398 0.059 c 0.27 0.18 0.445 0.504 0.449 0.828 c 0 0.043 0.078 0.148 0.172 0.238 c 0.145 0.137 0.285 0.168 0.895 0.207 l 0.727 0.043 l 0.574 -0.559 c 0.316 -0.305 0.602 -0.539 0.637 -0.516 c 0.145 0.086 0.059 0.313 -0.145 0.383 c -0.18 0.063 -0.215 0.121 -0.258 0.445 c -0.039 0.305 -0.094 0.406 -0.301 0.57 l -0.254 0.203 v 0.77 c 0 1.031 -0.047 1.098 -0.754 1.09 c -0.289 -0.004 -0.629 -0.039 -0.754 -0.074 m 0.934 -0.918 c 0.289 -0.262 0.078 -0.609 -0.367 -0.609 c -0.469 0 -0.68 0.285 -0.426 0.566 c 0.18 0.199 0.598 0.223 0.793 0.043"/><path d="m 8.492 9.18 c -0.348 -0.289 -0.371 -0.332 -0.375 -0.641 c 0 -0.313 0.023 -0.352 0.41 -0.676 c 0.227 -0.191 0.445 -0.344 0.488 -0.344 c 0.152 0 0.625 0.379 0.816 0.652 c 0.25 0.363 0.199 0.559 -0.258 0.988 c -0.445 0.418 -0.605 0.422 -1.082 0.02"/><path d="m 10.703 7.148 c -0.387 -0.309 -0.535 -0.508 -0.539 -0.742 c -0.004 -0.438 0.34 -0.484 0.914 -0.133 c 0.691 0.43 0.742 1.098 0.086 1.098 c -0.098 0 -0.305 -0.102 -0.461 -0.223"/><path d="m 8.766 6.266 c -0.246 -0.246 -0.172 -0.926 0.156 -1.469 c 0.234 -0.387 0.277 -0.418 0.523 -0.422 c 0.379 0 0.5 0.191 0.5 0.813 v 0.488 l -0.41 0.371 c -0.223 0.207 -0.453 0.375 -0.512 0.375 c -0.055 0 -0.172 -0.07 -0.258 -0.156"/><path d="m 9.473 3.195 c -0.324 -0.281 -0.375 -0.477 -0.223 -0.84 c 0.176 -0.43 0.531 -0.758 0.809 -0.758 c 0.129 0 0.266 0.039 0.309 0.09 c 0.129 0.16 0.168 0.52 0.098 0.895 c -0.055 0.289 -0.129 0.418 -0.344 0.605 c -0.152 0.129 -0.301 0.234 -0.332 0.234 c -0.031 0 -0.176 -0.102 -0.316 -0.227"/><path d="m 10.797 4.91 c -0.07 -0.07 -0.055 -1.285 0.016 -1.402 c 0.055 -0.082 0.113 -0.086 0.332 -0.012 c 0.336 0.109 0.41 0.254 0.41 0.805 c 0 0.441 -0.004 0.449 -0.254 0.551 c -0.277 0.117 -0.43 0.133 -0.504 0.059"/><path d="m 11.527 3.449 c -0.027 -0.027 -0.047 -0.188 -0.047 -0.359 c 0 -0.238 0.047 -0.359 0.211 -0.535 c 0.23 -0.246 0.34 -0.273 0.625 -0.141 c 0.23 0.102 0.285 0.293 0.203 0.68 c -0.043 0.219 -0.102 0.301 -0.238 0.34 c -0.242 0.066 -0.691 0.074 -0.754 0.016"/><path d="m 12.551 4.461 c -0.137 -0.152 -0.156 -0.426 -0.051 -0.699 c 0.137 -0.363 0.871 -0.559 1.023 -0.27 c 0.063 0.117 0.008 0.219 -0.34 0.621 c -0.23 0.266 -0.438 0.48 -0.465 0.48 c -0.027 0 -0.102 -0.059 -0.168 -0.133"/><path d="m 11.527 5.977 c -0.242 -0.188 -0.242 -0.289 -0.004 -0.574 c 0.215 -0.258 0.48 -0.293 0.762 -0.105 c 0.418 0.281 0.469 0.52 0.152 0.707 c -0.289 0.168 -0.676 0.16 -0.91 -0.027"/><path d="m 13.711 9.422 c -0.176 -0.07 -0.844 -0.77 -0.844 -0.879 c 0 -0.043 0.141 -0.227 0.309 -0.41 c 0.309 -0.336 0.617 -0.543 0.816 -0.543 c 0.184 0 0.922 0.73 0.922 0.91 c 0 0.211 -0.23 0.508 -0.605 0.781 c -0.309 0.223 -0.367 0.234 -0.598 0.141"/><path d="m 10.82 9.816 c -0.105 -0.281 -0.09 -1.461 0.02 -1.551 c 0.156 -0.133 0.758 -0.184 1.035 -0.094 c 0.215 0.07 0.266 0.133 0.309 0.348 c 0.066 0.367 -0.027 1.352 -0.137 1.422 c -0.051 0.035 -0.332 0.059 -0.625 0.063 c -0.504 0 -0.535 -0.012 -0.602 -0.188"/><path d="m 13.266 13.152 c -0.094 -0.055 -0.129 -0.172 -0.129 -0.418 c 0 -0.191 -0.027 -0.387 -0.059 -0.434 c -0.031 -0.051 -0.246 -0.156 -0.477 -0.234 c -0.586 -0.203 -0.605 -0.223 -0.328 -0.387 c 0.527 -0.313 0.648 -0.73 0.305 -1.047 c -0.105 -0.098 -0.223 -0.18 -0.254 -0.18 c -0.035 0 -0.063 -0.063 -0.063 -0.137 c 0 -0.195 0.184 -0.227 1.316 -0.227 l 0.988 -0.004 l 0.387 -0.387 c 0.242 -0.25 0.41 -0.492 0.461 -0.676 c 0.082 -0.309 0.184 -0.473 0.293 -0.473 c 0.07 0 0.051 0.109 -0.176 0.98 c -0.117 0.457 -0.211 0.645 -0.457 0.922 c -0.195 0.219 -0.328 0.453 -0.363 0.629 c -0.066 0.367 -0.156 0.469 -0.41 0.469 c -0.262 0 -0.59 0.277 -0.602 0.512 c -0.004 0.102 0.016 0.297 0.047 0.438 c 0.043 0.219 0.02 0.297 -0.152 0.492 c -0.16 0.191 -0.227 0.223 -0.328 0.16"/><path d="m 8.977 15.648 c -0.082 -0.102 -0.223 -0.156 -0.402 -0.16 c -0.516 -0.02 -0.934 0.023 -1.035 0.105 c -0.129 0.109 -0.348 0.078 -1.078 -0.141 c -0.934 -0.277 -1.559 -0.57 -1.66 -0.77 c -0.063 -0.125 -0.203 -0.207 -0.488 -0.285 c -0.223 -0.059 -0.512 -0.176 -0.645 -0.262 c -0.207 -0.133 -0.223 -0.164 -0.125 -0.246 c 0.164 -0.133 0.141 -0.297 -0.07 -0.516 c -0.176 -0.184 -0.18 -0.203 -0.074 -0.406 c 0.063 -0.117 0.113 -0.301 0.113 -0.406 c 0 -0.223 -0.234 -0.547 -0.441 -0.613 c -0.34 -0.105 -0.004 -0.18 0.82 -0.18 c 0.723 0 0.871 0.016 0.84 0.102 c -0.188 0.484 -0.211 0.707 -0.125 1.02 c 0.078 0.285 0.074 0.352 -0.023 0.496 c -0.305 0.434 -0.039 0.648 0.805 0.648 c 0.801 0 0.977 -0.07 0.977 -0.391 c 0 -0.289 -0.098 -0.391 -0.395 -0.426 l -0.215 -0.023 l -0.016 -0.586 c -0.008 -0.32 -0.035 -0.637 -0.063 -0.703 c -0.078 -0.18 0.164 -0.211 1.176 -0.16 l 0.891 0.043 l 0.148 -0.246 c 0.219 -0.355 0.199 -0.73 -0.047 -1.027 c -0.18 -0.211 -0.203 -0.309 -0.227 -0.844 c -0.023 -0.566 -0.016 -0.609 0.117 -0.609 c 0.113 0 0.156 0.066 0.195 0.309 c 0.027 0.168 0.098 0.41 0.156 0.539 l 0.113 0.23 l 0.645 -0.035 c 0.355 -0.02 0.73 -0.016 0.832 0.008 c 0.203 0.051 0.344 0.355 0.344 0.754 c 0 0.328 0.168 0.723 0.352 0.82 c 0.082 0.047 0.426 0.082 0.762 0.082 c 0.34 0 0.633 0.016 0.652 0.035 c 0.023 0.023 -0.07 0.156 -0.207 0.301 c -0.375 0.398 -0.301 0.68 0.242 0.91 l 0.332 0.141 l -0.191 0.227 c -0.105 0.125 -0.188 0.273 -0.188 0.332 c 0 0.133 0.426 0.32 0.746 0.324 l 0.238 0.004 l -0.461 0.422 c -0.547 0.504 -1.258 0.941 -1.621 1 c -0.141 0.02 -0.371 0.09 -0.512 0.152 c -0.141 0.063 -0.438 0.129 -0.656 0.148 c -0.344 0.031 -0.422 0.016 -0.531 -0.117 m -2.105 -0.695 c 0.141 -0.172 0.023 -0.543 -0.188 -0.598 c -0.266 -0.066 -0.996 0.043 -1.145 0.172 c -0.156 0.145 -0.16 0.227 -0.004 0.398 c 0.156 0.176 1.195 0.195 1.336 0.027 m 2.492 0.027 c 0.188 -0.098 0.18 -0.324 -0.016 -0.52 c -0.145 -0.145 -0.203 -0.152 -0.895 -0.109 c -0.578 0.035 -0.758 0.07 -0.828 0.172 c -0.098 0.133 -0.055 0.391 0.082 0.477 c 0.125 0.086 1.496 0.066 1.656 -0.02 m 2.063 0 c 0.539 -0.148 0.191 -0.652 -0.449 -0.652 c -0.383 0 -0.836 0.195 -0.871 0.375 c -0.059 0.324 0.633 0.469 1.32 0.277 m -0.547 -0.988 c 0.215 -0.148 0.215 -0.512 0.004 -0.738 c -0.09 -0.094 -0.199 -0.168 -0.25 -0.168 c -0.113 0 -0.176 -0.172 -0.176 -0.488 c 0 -0.438 -0.102 -0.539 -0.531 -0.531 c -0.605 0.012 -0.746 0.074 -0.77 0.34 c -0.016 0.129 0.008 0.352 0.047 0.496 c 0.055 0.199 0.047 0.324 -0.035 0.52 c -0.098 0.234 -0.098 0.281 0.004 0.434 c 0.102 0.152 0.18 0.176 0.68 0.199 c 0.313 0.012 0.637 0.031 0.715 0.039 c 0.082 0.008 0.223 -0.039 0.313 -0.102 m -2.496 -0.887 c 0.008 -0.594 -0.016 -0.918 -0.074 -0.961 c -0.125 -0.102 -1.187 -0.246 -1.43 -0.195 c -0.168 0.039 -0.215 0.09 -0.238 0.289 c -0.047 0.402 0.063 0.672 0.309 0.773 c 0.215 0.09 0.219 0.102 0.172 0.457 c -0.066 0.496 0.047 0.578 0.738 0.551 l 0.516 -0.023"/><path d="m 1.555 12.254 c -0.281 -0.336 -0.203 -0.402 0.496 -0.426 c 0.555 -0.02 0.668 0.035 0.383 0.184 c -0.109 0.059 -0.301 0.195 -0.422 0.313 l -0.223 0.207"/><path d="m 6.477 3.27 c -0.359 -0.332 -0.406 -0.402 -0.406 -0.66 c 0 -0.246 0.055 -0.34 0.387 -0.684 c 0.215 -0.223 0.449 -0.402 0.527 -0.402 c 0.074 0 0.313 0.18 0.523 0.402 c 0.543 0.559 0.527 0.77 -0.109 1.441 c -0.145 0.152 -0.316 0.277 -0.387 0.277 c -0.07 0 -0.309 -0.168 -0.535 -0.375"/><path d="m 8.684 1.344 c -0.109 -0.211 -0.02 -0.945 0.109 -0.895 c 0.055 0.02 0.371 0.133 0.707 0.254 l 0.609 0.219 l -0.367 0.027 c -0.293 0.02 -0.406 0.082 -0.551 0.293 c -0.207 0.305 -0.387 0.34 -0.508 0.102"/><path d="m 6.578 0.855 c -0.039 -0.102 0.035 -0.242 0.293 -0.566 c 0.055 -0.07 0.188 -0.125 0.293 -0.125 c 0.172 0 0.195 0.027 0.195 0.254 c 0 0.16 -0.059 0.313 -0.148 0.402 c -0.172 0.172 -0.57 0.195 -0.633 0.035"/><path d="m 4.434 0.797 c -0.07 -0.105 -0.125 -0.223 -0.125 -0.254 c 0 -0.035 0.188 -0.109 0.41 -0.168 c 0.227 -0.055 0.473 -0.121 0.547 -0.145 c 0.109 -0.035 0.137 0.012 0.137 0.254 c 0 0.395 -0.121 0.512 -0.52 0.512 c -0.254 0 -0.359 -0.047 -0.453 -0.199"/><path d="m 13.168 5.449 c 0 -0.176 0.43 -0.793 0.785 -1.121 c 0.348 -0.32 0.547 -0.258 0.547 0.176 c 0 0.434 -0.633 1.082 -1.055 1.082 c -0.195 0 -0.277 -0.043 -0.277 -0.137"/><path d="m 15.188 6.645 l 0.406 -0.164 l -0.125 -0.371 c -0.07 -0.203 -0.195 -0.484 -0.281 -0.621 l -0.152 -0.254 l -0.406 0.309 c -0.457 0.344 -0.512 0.531 -0.27 0.922 c 0.203 0.34 0.352 0.371 0.828 0.18"/><path d="m 3.43 5.793 c -0.172 -0.172 -0.176 -0.297 -0.004 -0.547 c 0.234 -0.336 0.43 -0.391 0.684 -0.188 c 0.246 0.195 0.309 0.582 0.125 0.77 c -0.148 0.148 -0.645 0.129 -0.805 -0.035"/><path d="m 1.656 2.637 c -0.09 -0.043 -0.164 -0.109 -0.164 -0.145 c 0 -0.105 0.5 -0.672 0.844 -0.961 l 0.313 -0.262 l 0.109 0.23 c 0.105 0.215 0.102 0.254 -0.031 0.512 c -0.137 0.27 -0.66 0.719 -0.824 0.711 c -0.043 -0.004 -0.156 -0.043 -0.246 -0.086"/><path d="m 12.352 7.43 c -0.266 -0.281 -0.27 -0.43 -0.004 -0.848 c 0.238 -0.379 0.527 -0.43 0.84 -0.152 c 0.461 0.41 0.52 0.762 0.168 1.039 c -0.32 0.25 -0.746 0.234 -1 -0.039"/></g></svg>