<svg xmlns="http://www.w3.org/2000/svg" viewBox="0 0 16 16"><path d="m 1.715 11.934 c 11.508 14.605 23.14 -15.902 4.395 -11.355 c -4.672 1.133 -8.289 6.414 -4.395 11.355" fill="#473d8b"/><path d="m 7.813 3.602 c -2.211 0 -4 1.895 -4 4.23 c 0 2.34 1.801 4.301 4 4.301 c 1.441 0.043 4.246 -0.988 4.051 -3.832 c -0.117 0.059 -0.445 1.332 -1.059 1.965 c -0.262 0.316 -1.328 1.016 -2.188 1.027 c -1.465 0 -2.66 -1.148 -2.66 -2.695 c 0 -0.523 0.133 -0.973 0.367 -1.348 c 0.188 0.078 0.363 0.203 0.492 0.422 c 0.02 0.031 0.031 0.063 0.051 0.09 c 0.105 0.137 0.219 0.172 0.336 0.176 c 0.242 0.008 0.355 -0.184 0.367 -0.441 c 0 -0.023 0 -0.012 0 -0.031 c -0.008 -0.172 -0.246 -0.797 -0.641 -0.875 c 0.07 -0.055 0.145 -0.105 0.219 -0.156 c 0.258 -0.16 0.805 -0.348 1.563 -0.227 c 0.383 0.063 0.699 0.148 1.184 0.313 c 0.563 0.191 0.879 0.457 1.309 0.508 c 0.383 0.047 1.035 -0.336 0.836 -0.93 c -0.008 0.121 -0.184 0.465 -0.313 0.469 c -0.141 0.008 -0.438 -0.207 -0.316 -0.465 c 0.211 -0.117 0.504 -0.039 0.582 0.27 c -0.012 -0.129 0.238 -0.199 0.004 -0.523 c -0.09 -0.406 -0.063 -0.133 -0.227 0.008 c -0.09 0 -0.16 -0.094 -0.16 -0.207 c 0 -0.117 0.07 -0.207 0.16 -0.207 c 0.004 0 0.012 0 0.02 0.004 c 0.008 -0.168 0.008 -0.484 -0.066 -0.637 c -0.102 -0.215 -0.18 -0.305 -0.711 -0.609 c -0.531 -0.305 -1 -0.137 -1 -0.137 c 0 0 -0.105 -0.09 -0.156 -0.152 c -0.051 -0.059 -0.098 -0.113 -0.18 -0.109 c -0.063 0.008 -0.125 0.141 -0.152 0.199 c -0.52 -0.258 -1.098 -0.402 -1.707 -0.402 m 2.836 1.508 c 0.168 0 0.301 0.141 0.301 0.32 c 0 0.047 -0.012 0.094 -0.031 0.137 c -0.051 0.109 -0.156 0.18 -0.27 0.18 c -0.168 0 -0.301 -0.141 -0.301 -0.316 c 0 -0.098 0.039 -0.188 0.109 -0.246 c 0.051 -0.047 0.121 -0.074 0.191 -0.074" fill="#fff" fill-opacity="0.749"/></svg>