<svg xmlns="http://www.w3.org/2000/svg" viewBox="0 0 16 16"><path d="m 14.438 12.703 c 8 -12.03 -17.504 -19.438 -14.13 -3.891 c 1.441 6.43 10.461 10.328 14.13 3.891" fill="#c0c0c0"/><path d="m 4.305 3.09 c -0.203 0 -0.395 0.191 -0.395 0.391 v 8.223 c 0 0.191 0.203 0.391 0.395 0.391 h 6.277 c 0.191 0 0.395 -0.199 0.395 -0.391 v -6.066 l -2.551 -2.547" fill="#e5e5e5"/><g fill-opacity="0.2"><path d="m 4.305 3.09 c -0.203 0 -0.395 0.191 -0.395 0.391 v 0.203 c 0 -0.203 0.191 -0.395 0.395 -0.395 h 4.121 l 2.551 2.547 v -0.199 l -2.551 -2.547" fill="#fff"/><path d="m 3.91 11.504 v 0.199 c 0 0.191 0.203 0.391 0.395 0.391 h 6.277 c 0.191 0 0.395 -0.199 0.395 -0.391 v -0.199 c 0 0.188 -0.203 0.391 -0.395 0.391 h -6.277 c -0.191 0 -0.395 -0.203 -0.395 -0.391"/></g><path d="m 9.699 4.363 l -1.152 1.145 l 2.43 2.496 v -2.367" fill="#ccc"/><path d="m 8.422 3.09 l 2.551 2.547 h -2.156 c -0.191 0 -0.395 -0.203 -0.395 -0.391" fill="#f4f4f4"/><path d="m 7.828 9.06 v 3.16 c 0 0.293 0.281 0.496 0.539 0.504 h 3.719 c 0.258 0 0.535 -0.211 0.535 -0.504 v -3.16" fill="#fff"/><path d="m 8.371 8.129 c -0.527 0 -0.543 -0.004 -0.543 0.934 h 4.793 c 0 -0.922 0.012 -0.934 -0.516 -0.934 m -3.469 0.32 c 0.086 0 0.152 0.066 0.152 0.148 c 0 0.082 -0.066 0.145 -0.152 0.145 c -0.082 0 -0.148 -0.066 -0.148 -0.145 c 0 -0.082 0.066 -0.148 0.148 -0.148 m 3.199 0 c 0.078 0 0.145 0.063 0.145 0.141 c 0 0.078 -0.066 0.141 -0.145 0.141 c -0.078 0 -0.145 -0.063 -0.145 -0.141 c 0 -0.078 0.066 -0.141 0.145 -0.141" fill="#d41717"/><g fill-opacity="0.302"><path d="m 8.371 8.129 c -0.527 0 -0.543 -0.004 -0.543 0.934 c 0.004 -0.824 0.039 -0.828 0.543 -0.828 h 3.73 c 0.508 0 0.52 0.016 0.52 0.828 c 0 -0.922 0.012 -0.934 -0.52 -0.934" fill="#fffcfc"/><path d="m 7.828 12.1 v 0.125 c 0 0.293 0.281 0.496 0.539 0.504 h 3.719 c 0.258 0 0.535 -0.211 0.535 -0.504 v -0.125 c 0 0.297 -0.277 0.508 -0.535 0.508 h -3.719 c -0.258 -0.008 -0.539 -0.211 -0.539 -0.508"/></g><g fill="#272934"><path d="m 11.27 10.902 h 0.555 c 0.141 0 0.258 0.133 0.258 0.293 v 0.473 c 0 0.16 -0.117 0.293 -0.258 0.293 h -0.555 c -0.141 0 -0.258 -0.133 -0.258 -0.293 v -0.473 c 0 -0.16 0.117 -0.293 0.258 -0.293"/><path d="m 9.93 10.891 h 0.555 c 0.141 0 0.258 0.133 0.258 0.293 v 0.473 c 0 0.164 -0.117 0.293 -0.258 0.293 h -0.555 c -0.145 0 -0.258 -0.129 -0.258 -0.293 v -0.473 c 0 -0.16 0.113 -0.293 0.258 -0.293"/><path d="m 8.547 10.895 h 0.555 c 0.141 0 0.258 0.133 0.258 0.293 v 0.473 c 0 0.164 -0.117 0.293 -0.258 0.293 h -0.555 c -0.145 0 -0.258 -0.129 -0.258 -0.293 v -0.473 c 0 -0.16 0.113 -0.293 0.258 -0.293"/><path d="m 8.531 9.559 h 0.555 c 0.145 0 0.258 0.133 0.258 0.293 v 0.473 c 0 0.164 -0.113 0.293 -0.258 0.293 h -0.555 c -0.141 0 -0.258 -0.129 -0.258 -0.293 v -0.473 c 0 -0.16 0.117 -0.293 0.258 -0.293"/><path d="m 9.898 9.531 h 0.555 c 0.141 0 0.258 0.133 0.258 0.293 v 0.473 c 0 0.16 -0.117 0.293 -0.258 0.293 h -0.555 c -0.145 0 -0.258 -0.133 -0.258 -0.293 v -0.473 c 0 -0.16 0.113 -0.293 0.258 -0.293"/><path d="m 11.242 9.563 h 0.555 c 0.141 0 0.258 0.133 0.258 0.293 v 0.473 c 0 0.16 -0.117 0.293 -0.258 0.293 h -0.555 c -0.141 0 -0.258 -0.133 -0.258 -0.293 v -0.473 c 0 -0.16 0.117 -0.293 0.258 -0.293"/></g></svg>