<svg xmlns="http://www.w3.org/2000/svg" viewBox="0 0 16 16"><path d="m 1.324 4.109 c -8.477 20.59 27.18 10.914 9.867 -2.531 c -3.105 -2.34 -8.324 -2.52 -9.867 2.531" fill="#707f8f"/><g transform="matrix(0.0625 0 0 0.0625 6.193 7.668)"><path d="m -8.34 81.82 c -0.188 -0.188 -0.375 -0.875 -0.375 -1.5 c 0 -1.75 -2.875 -5.5 -4.938 -6.438 c -1.375 -0.563 -3.875 -0.813 -10.438 -0.813 c -8.375 0 -8.688 0 -10 -1.25 c -1.25 -1.188 -1.438 -1.813 -1.438 -5.375 c 0 -2.812 -0.25 -4.562 -0.875 -5.5 c -1.375 -2.188 -4.625 -4 -7.563 -4.313 l -2.688 -0.313 c 0 -2.125 0 -4.25 0 -6.375 l 2.75 -0.313 c 3 -0.313 5.25 -1.625 7.125 -4.188 c 1 -1.375 1.25 -2.5 1.25 -5.125 c 0 -1.875 -0.25 -3.938 -0.625 -4.688 c -1 -2 -4.813 -4.25 -7.813 -4.563 l -2.688 -0.25 c 0 -2.188 0 -4.313 0 -6.438 l 2.688 -0.25 c 3 -0.313 6.125 -2.125 7.5 -4.375 c 1.25 -2.063 1.313 -7.938 0.063 -9.938 c -1.375 -2.125 -4.625 -4 -7.563 -4.313 l -2.688 -0.25 c 0 -2.125 0 -4.25 0 -6.375 l 2.75 -0.313 c 3 -0.313 5.188 -1.625 7.188 -4.313 c 1.25 -1.75 1.313 -2.063 1.125 -10.563 l -0.188 -8.813 l -1.938 -2.188 c -1.938 -2.25 -4.25 -3.125 -7.625 -2.875 c -3.125 -0.75 -1.375 -4.188 0.5 -4.25 c 3.438 0 5.375 -1.563 8.188 -6.625 c 2.313 -4.188 2.625 -4.5 4.25 -4.5 c 1.813 0 2.25 0.438 5.313 5.813 c 0.75 1.313 1.938 3.25 2.75 4.25 c 1.813 2.313 1.75 4 -0.188 5.75 c -1.563 1.5 -2.375 2.5 -3.688 4.938 c -1 1.813 -0.813 18.19 0.25 23.13 c 0.688 3.188 0.688 4.25 0 7.438 c -0.438 2.063 -0.813 6 -0.875 8.813 c -0.063 4.125 0.125 5.625 1.188 8.125 c 1.625 3.875 1.625 8.375 0.125 14.5 c -1.375 5.5 -1.438 6.938 -0.188 10.75 c 0.688 2.375 0.813 4.188 0.5 8.688 c -0.313 5.188 -0.25 5.75 0.813 7 c 1.563 1.875 3.563 2.187 12 2.062 c 9.938 -0.25 10.938 -0.188 17.563 0.563 c 5.188 0.563 6.563 0.563 11.688 -0.25 c 6.625 -1 10.625 -1.125 13.5 -0.375 c 3.188 0.875 10.75 0.75 14.687 -0.188 c 4.188 -1.063 10.938 -1.125 15.813 -0.25 c 4 0.688 5.375 0.75 8.938 0.25 c 2.625 -0.375 3 -0.625 7.438 -5 c 1.188 -1.188 4.438 -1.688 4.438 -0.688 c 0 0.75 3.75 4.312 5.563 5.312 c 6.188 3.313 6.375 3.5 6.375 5.125 c 0 1.438 -0.375 1.813 -4.688 3.938 c -5.188 2.5 -6.5 3.688 -7 6.313 c -1.563 3.75 -4.625 0.688 -5.313 -1.75 c -0.375 -1.375 -1.313 -2.688 -2.563 -3.563 c -1.688 -1.25 -2.688 -1.5 -6.875 -1.813 c -4.125 -0.313 -5.25 -0.188 -6.813 0.563 c -2.188 1.125 -4.313 3.875 -4.875 6.25 c -1.125 3 -7 2.375 -7.5 0.125 c -0.5 -2.5 -1.563 -3.875 -4.063 -5.563 c -2 -1.375 -2.875 -1.625 -5.875 -1.625 c -3 0 -3.875 0.25 -5.875 1.625 c -2.5 1.688 -3.5 3.063 -4.063 5.563 c -1.25 2.813 -6.938 2.25 -7.438 0 c -0.563 -2.5 -1.563 -3.875 -4.125 -5.563 c -2 -1.375 -2.813 -1.625 -5.875 -1.625 c -3 0 -3.875 0.25 -5.875 1.625 c -2.5 1.688 -3.5 3.063 -4.063 5.563 c -1.562 2.563 -3.938 2.125 -7 1.563 m 41.563 -69.813 c 0.563 -0.375 2.563 -5.5 3.875 -9.875 c 0.813 -2.625 -2.313 -9 0.375 -13.563 c 5.063 -10.25 6.875 -3.813 11.75 -10.125 c 2 -0.75 9.188 -10.563 9.188 -11.625 c 2.813 -1.813 9.25 -10.563 16.5 -5.313 c 2.688 4.25 -6.563 14.06 -13.188 22.313 c -2.25 5.75 -12.06 -1.25 -13.875 17.375 c -0.813 4.625 -1.938 13.688 -3.438 15 c -0.688 0.563 -50.06 48.44 -52.625 45.75 c -3.75 -2.375 -12.625 0.375 -11.06 -2.938 c 5.063 -10.938 41.25 -31.75 52.5 -47.06" fill="#543eb3" stroke="#543eb3" stroke-width="0.928"/><path d="m 49.41 49.945 c -1.313 -1.438 -4 -4.375 -6.125 -6.563 c -4.75 -4.188 -7.125 -12 -13.312 -14.25 c -1.313 -0.438 -2.563 -2.125 -3.375 -4.438 c -1.563 -4.625 -8.5 -11.125 -11.938 -11.125 c -1.313 0 -4.25 1.313 -6.563 3 c -10.438 7.563 -19.19 12.563 -21.938 12.563 c -3.25 0 -7.125 -2.875 -6.625 -4.938 c 0.313 -1.563 8.688 -7.563 18.875 -13.625 c 3.563 -2.188 7.75 -4.75 9.25 -5.813 c 3.563 -2.5 12 -3.188 17.06 -1.313 c 5.875 1.75 5 7.188 9.5 9.875 c 4.688 6.688 9.938 11.875 13.813 18.438 c 3.125 5.375 8.875 9.563 13.13 9.563 c 0.938 0 5.063 -2.938 9.188 -6.5 c 6.625 -5.813 10.125 -8.25 11.688 -8.25 c 0.313 0 1.25 0.625 2.125 1.375 c 3.313 2.813 1.875 5.063 -9.375 15 l -10.938 9.625 h -6.06 c -5.563 0 -6.25 -0.188 -8.375 -2.625" fill="#ff0ce4" stroke="#ff0ce4" stroke-width="1.866"/></g></svg>