<svg xmlns="http://www.w3.org/2000/svg" viewBox="0 0 16 16"><path d="m 14.15 13.156 c 3.895 -5.949 0.75 -11.371 -3.656 -12.66 c -5.93 -1.73 -13.984 2.816 -8.676 12.191 c 2.105 3.723 9.559 4.707 12.332 0.469" fill="#c8597e"/><path d="m 5.32 4.242 h 6.176 c 0.066 0 0.125 0.055 0.125 0.125 v 8.04 c 0 0.07 -0.059 0.125 -0.125 0.125 h -6.176 c -0.066 0 -0.125 -0.055 -0.125 -0.125 v -8.04 c 0 -0.07 0.059 -0.125 0.125 -0.125" fill-opacity="0.102"/><path d="m 5.84 3.926 l -0.645 4.141 l 0.645 4.145 h 4.816 c 0.355 0 0.641 -0.285 0.641 -0.641 v -7.01 c 0 -0.355 -0.285 -0.637 -0.641 -0.637 h -0.32 l -0.645 0.316 l -0.641 -0.316" fill="#c9d6de"/><path d="m 5.52 3.926 c -0.359 0 -0.645 0.281 -0.645 0.637 v 7.01 c 0 0.355 0.285 0.641 0.645 0.641 h 0.32 v -8.285" fill="#7794a2"/><path d="m 9.371 3.926 h 1.285 v 3.824 l -0.641 -0.641 l -0.645 0.641" fill-opacity="0.102"/><path d="m 9.05 3.926 h 1.285 v 3.504 l -0.645 -0.637 l -0.641 0.637" fill="#f16f7f"/><path d="m 8.891 8.703 c -0.266 0 -0.484 0.215 -0.484 0.48 c 0 0.297 0.297 0.719 0.297 0.719 l -0.469 0.715 h -0.629 c -0.266 0 -0.48 0.215 -0.48 0.477 c 0 0.266 0.215 0.477 0.48 0.477 c 0.32 0 0.555 -0.316 0.801 -0.637 h 0.965 c 0.246 0.32 0.48 0.637 0.805 0.637 c 0.266 0 0.48 -0.211 0.48 -0.477 c 0 -0.262 -0.215 -0.477 -0.48 -0.477 h -0.633 l -0.469 -0.715 c 0 0 0.297 -0.426 0.297 -0.719 c 0 -0.266 -0.215 -0.48 -0.48 -0.48 m 0 0.32 c 0.086 0 0.16 0.07 0.16 0.16 c 0 0.156 -0.16 0.398 -0.16 0.398 c 0 0 -0.16 -0.242 -0.16 -0.398 c 0 -0.09 0.07 -0.16 0.16 -0.16 m 0 1.195 l 0.25 0.398 h -0.504 m -1.031 0.316 h 0.387 c 0 0 -0.227 0.32 -0.387 0.32 c -0.09 0 -0.16 -0.07 -0.16 -0.16 c 0 -0.086 0.07 -0.16 0.16 -0.16 m 2.184 0 h 0.387 c 0.086 0 0.16 0.074 0.16 0.16 c 0 0.09 -0.074 0.16 -0.16 0.16 c -0.16 0 -0.387 -0.32 -0.387 -0.32" fill-opacity="0.102"/><path d="m 8.57 8.387 c -0.27 0 -0.484 0.211 -0.484 0.477 c 0 0.297 0.297 0.719 0.297 0.719 l -0.469 0.715 h -0.629 c -0.266 0 -0.484 0.215 -0.484 0.48 c 0 0.262 0.219 0.477 0.484 0.477 c 0.32 0 0.555 -0.32 0.801 -0.637 h 0.965 c 0.246 0.316 0.48 0.637 0.801 0.637 c 0.27 0 0.484 -0.215 0.484 -0.477 c 0 -0.266 -0.215 -0.48 -0.484 -0.48 h -0.629 l -0.469 -0.715 c 0 0 0.297 -0.422 0.297 -0.719 c 0 -0.266 -0.215 -0.477 -0.48 -0.477 m 0 0.316 c 0.086 0 0.16 0.074 0.16 0.16 c 0 0.16 -0.16 0.398 -0.16 0.398 c 0 0 -0.164 -0.238 -0.164 -0.398 c 0 -0.086 0.074 -0.16 0.164 -0.16 m 0 1.195 l 0.25 0.398 h -0.504 m -1.031 0.32 h 0.387 c 0 0 -0.227 0.316 -0.387 0.316 c -0.09 0 -0.16 -0.07 -0.16 -0.156 c 0 -0.09 0.07 -0.16 0.16 -0.16 m 2.18 0 h 0.387 c 0.09 0 0.164 0.07 0.164 0.16 c 0 0.086 -0.074 0.156 -0.164 0.156 c -0.16 0 -0.387 -0.316 -0.387 -0.316" fill="#536e79"/></svg>