<svg xmlns="http://www.w3.org/2000/svg" viewBox="0 0 16 16"><path d="m 0.203 9.832 c 3.125 14.992 24.617 -1.102 11.707 -8.727 c -5.02 -3.266 -13.313 1.016 -11.707 8.727" fill="#fff"/><path d="m 7.121 12.203 c -0.961 -0.078 -1.758 -0.289 -2.293 -0.605 c -0.164 -0.098 -0.395 -0.301 -0.473 -0.418 c -0.125 -0.195 -0.117 0.027 -0.113 -2.867 l 0.004 -2.609 l 0.066 -0.125 c 0.211 -0.402 0.836 -0.746 1.734 -0.949 c 2 -0.453 4.555 0.027 5.04 0.949 l 0.066 0.125 l 0.004 2.609 c 0.004 2.57 0.004 2.613 -0.031 2.711 c -0.203 0.551 -1.207 1 -2.586 1.156 c -0.281 0.031 -1.141 0.043 -1.414 0.023" fill="#ebedef"/><path d="m 7.383 12.199 c -1.473 -0.051 -2.727 -0.496 -3.051 -1.082 c -0.09 -0.156 -0.094 -0.215 -0.094 -0.938 c 0 -0.672 0.004 -0.676 0.035 -0.586 c 0.137 0.398 0.707 0.766 1.523 0.98 c 0.48 0.125 1.016 0.203 1.512 0.219 c 0.168 0.004 0.324 0.012 0.348 0.016 l 0.039 0.008 v 1.047 l 0.188 -0.004 c 0.922 -0.02 1.773 -0.191 2.41 -0.484 c 0.348 -0.16 0.672 -0.418 0.785 -0.621 c 0.047 -0.086 0.059 -0.098 0.066 -0.066 c 0.031 0.109 -0.012 0.305 -0.094 0.449 c -0.07 0.121 -0.293 0.328 -0.477 0.441 c -0.707 0.43 -1.91 0.668 -3.191 0.621 m -0.145 -1.758 c -0.039 -0.004 -0.168 -0.012 -0.281 -0.023 c -1.23 -0.105 -2.273 -0.512 -2.602 -1.012 c -0.109 -0.172 -0.117 -0.242 -0.117 -0.988 c 0 -0.652 0 -0.664 0.031 -0.582 c 0.047 0.125 0.121 0.227 0.254 0.355 c 0.484 0.473 1.586 0.797 2.898 0.852 l 0.273 0.012 v 1.055 l 0.273 -0.012 c 1.098 -0.043 2.02 -0.266 2.609 -0.629 c 0.223 -0.133 0.414 -0.32 0.496 -0.473 l 0.059 -0.117 l 0.016 0.082 c 0.016 0.102 -0.016 0.246 -0.078 0.375 c -0.277 0.543 -1.348 0.969 -2.715 1.082 c -0.215 0.02 -1 0.035 -1.117 0.023 m -0.102 -1.766 c -0.992 -0.082 -1.785 -0.293 -2.309 -0.613 c -0.324 -0.199 -0.523 -0.426 -0.57 -0.656 c -0.012 -0.063 -0.02 -0.348 -0.02 -0.762 c 0.004 -0.559 0.008 -0.648 0.023 -0.594 c 0.059 0.164 0.188 0.332 0.363 0.473 c 0.539 0.422 1.602 0.715 2.75 0.75 l 0.32 0.012 v 1.051 h 0.168 c 0.211 0 0.566 -0.023 0.844 -0.059 c 1.191 -0.148 2.113 -0.555 2.375 -1.055 l 0.051 -0.098 l 0.016 0.066 c 0.02 0.094 -0.02 0.27 -0.086 0.395 c -0.109 0.207 -0.422 0.457 -0.762 0.617 c -0.473 0.215 -1.078 0.363 -1.785 0.441 c -0.238 0.023 -1.18 0.047 -1.379 0.031" fill="#94a3a4"/><path d="m 7.184 12.12 c -0.609 -0.043 -1.184 -0.145 -1.621 -0.285 c -0.215 -0.07 -0.566 -0.223 -0.73 -0.32 c -0.191 -0.113 -0.43 -0.34 -0.5 -0.473 c -0.063 -0.125 -0.094 -0.27 -0.082 -0.391 l 0.012 -0.086 l 0.063 0.117 c 0.078 0.145 0.289 0.348 0.48 0.461 c 0.625 0.371 1.555 0.602 2.582 0.637 l 0.309 0.012 v 0.34 l -0.219 -0.004 c -0.121 0 -0.254 -0.004 -0.293 -0.008 m 0.063 -1.758 c -0.797 -0.043 -1.527 -0.199 -2.082 -0.441 c -0.645 -0.285 -0.953 -0.633 -0.91 -1.031 l 0.008 -0.082 l 0.055 0.105 c 0.063 0.125 0.316 0.367 0.5 0.477 c 0.285 0.172 0.766 0.352 1.195 0.453 c 0.406 0.094 1.035 0.176 1.355 0.176 c 0.078 0 0.184 0.004 0.234 0.012 l 0.094 0.008 v 0.344 l -0.109 -0.004 c -0.063 0 -0.215 -0.008 -0.34 -0.016 m -0.137 -1.766 c -1.547 -0.113 -2.742 -0.648 -2.852 -1.277 c -0.008 -0.055 -0.012 -0.141 -0.008 -0.188 l 0.012 -0.082 l 0.063 0.113 c 0.113 0.207 0.422 0.453 0.777 0.617 c 0.586 0.27 1.434 0.445 2.313 0.48 l 0.281 0.012 v 0.344 l -0.191 -0.004 c -0.105 0 -0.285 -0.008 -0.391 -0.016" fill="#7e8b8c"/></svg>