<svg xmlns="http://www.w3.org/2000/svg" viewBox="0 0 16 16"><defs><clipPath id="7"><path d="m 4 7 h 3 v 2 h -3"/></clipPath><clipPath id="B"><path d="m 4 8 h 3 v 4 h -3"/></clipPath><clipPath id="8"><path d="m 5 5 h 3 v 3 h -3"/></clipPath><clipPath id="A"><path d="m 10 7 h 3 v 5 h -3"/></clipPath><clipPath id="9"><path d="m 8 5 h 3 v 3 h -3"/></clipPath><clipPath id="6"><path d="m 5 8 h 2 v 1 h -2"/></clipPath><clipPath id="0"><path d="m 3 3 h 9 v 9 h -9"/></clipPath><clipPath id="5"><path d="m 9 6 h 3 v 2 h -3"/></clipPath><clipPath id="1"><path d="m 3.547 4.273 l 7.988 -1 l 0.984 7.848 l -7.988 1 l -0.984 -7.844"/></clipPath><clipPath id="3"><path d="m 7 7 h 2 v 2 h -2"/></clipPath><clipPath id="4"><path d="m 9 7 h 2 v 2 h -2"/></clipPath><clipPath id="2"><path d="m 7 8 h 3 v 4 h -3"/></clipPath></defs><path d="m 13.445 13.594 c 10.465 -14.09 -14.02 -19.539 -13.383 -5.05 c 0.262 5.91 9.379 10.434 13.383 5.05" fill="#727259"/><g clip-path="url(#0)"><g clip-path="url(#1)"><path d="m 11.441 6 l 0.012 0.008 c 0 0 -0.051 -2.09 -0.285 -2.27 c -0.215 -0.164 -1.406 0.312 -1.621 0.402 c -0.539 -0.191 -1.195 -0.262 -1.98 -0.16 c -0.781 0.098 -1.398 0.324 -1.875 0.645 c -0.223 -0.031 -1.504 -0.203 -1.672 0.008 c -0.184 0.234 0.285 2.273 0.285 2.273 l 0.008 -0.016 c -0.086 0.547 -0.082 1.125 -0.012 1.691 c 0.145 1.137 0.965 1.938 1.922 2.395 c -0.152 -1.324 -0.828 -2.742 -1.652 -2.637 c -0.098 0.012 -0.172 0.035 -0.234 0.066 c 0.043 -0.164 0.168 -0.27 0.43 -0.301 c 0.891 -0.113 1.609 1.563 1.672 2.973 c 0.711 0.297 1.469 0.406 2.063 0.332 c 0.594 -0.074 1.301 -0.367 1.918 -0.828 c -0.293 -1.387 -0.008 -3.184 0.887 -3.297 c 0.258 -0.031 0.41 0.039 0.492 0.188 c -0.07 -0.016 -0.148 -0.02 -0.25 -0.008 c -0.824 0.102 -1.129 1.641 -0.945 2.969 c 0.813 -0.68 1.41 -1.656 1.27 -2.801 c -0.074 -0.566 -0.207 -1.129 -0.43 -1.633" fill="#ffcc4c"/></g></g><g clip-path="url(#2)"><g clip-path="url(#1)"><path d="m 8.113 8.313 c -0.465 0.059 -0.797 0.477 -0.738 0.934 l 0.156 1.238 c 0.055 0.453 0.48 0.777 0.941 0.719 c 0.465 -0.059 0.797 -0.477 0.738 -0.93 l -0.156 -1.238 c -0.055 -0.457 -0.48 -0.781 -0.941 -0.723" fill="#282f33"/></g></g><g clip-path="url(#3)"><g clip-path="url(#1)"><path d="m 7.957 7.07 c 0.629 -0.078 0.645 0.023 0.668 0.23 c 0.027 0.207 -0.238 0.66 -0.551 0.699 c -0.316 0.039 -0.684 -0.336 -0.711 -0.539 c -0.023 -0.207 -0.039 -0.313 0.594 -0.391" fill="#67757f"/></g></g><g clip-path="url(#4)"><g clip-path="url(#1)"><path d="m 10.605 7.898 l -1.031 0.336 c -0.055 0.02 -0.086 0.078 -0.066 0.133 c 0.016 0.047 0.066 0.078 0.113 0.07 c 0.008 0 0.016 -0.004 0.02 -0.004 l 0.863 -0.285 c 0.031 -0.09 0.063 -0.172 0.102 -0.254" fill="#9aaab3"/></g></g><g clip-path="url(#5)"><g clip-path="url(#1)"><path d="m 11.305 7.285 c 0 0 0.004 0 0.004 0 l 0.32 -0.152 c 0.051 -0.023 0.074 -0.086 0.047 -0.137 c -0.023 -0.055 -0.086 -0.074 -0.141 -0.051 l -1.813 0.855 c -0.055 0.027 -0.074 0.09 -0.051 0.141 c 0.02 0.043 0.066 0.063 0.109 0.059 c 0.012 -0.004 0.02 -0.004 0.031 -0.012 l 1.094 -0.516 c 0.117 -0.102 0.25 -0.172 0.398 -0.188" fill="#9aaab3"/></g></g><g clip-path="url(#6)"><g clip-path="url(#1)"><path d="m 6.676 8.602 l -1.086 -0.074 c 0.059 0.066 0.113 0.137 0.164 0.219 l 0.906 0.063 c 0.004 0 0.012 0 0.02 0 c 0.051 -0.008 0.09 -0.047 0.094 -0.098 c 0.004 -0.059 -0.039 -0.105 -0.098 -0.109" fill="#9aaab3"/></g></g><g clip-path="url(#7)"><g clip-path="url(#1)"><path d="m 6.426 8.215 l -1.969 -0.383 c -0.059 -0.008 -0.113 0.027 -0.125 0.082 c -0.012 0.059 0.023 0.113 0.082 0.125 l 0.348 0.066 c 0.152 -0.02 0.293 0.012 0.43 0.082 l 1.191 0.23 c 0.012 0.004 0.023 0.004 0.035 0.004 c 0.043 -0.008 0.082 -0.039 0.09 -0.082 c 0.012 -0.059 -0.023 -0.113 -0.082 -0.125" fill="#9aaab3"/></g></g><g clip-path="url(#8)"><g clip-path="url(#1)"><path d="m 5.605 6.461 c -0.117 0.68 0.184 1.297 0.676 1.375 c 0.488 0.078 0.98 -0.41 1.094 -1.09 c 0.117 -0.68 -0.184 -1.297 -0.672 -1.375 c -0.488 -0.078 -0.98 0.41 -1.098 1.09" fill="#f4f8fa"/></g></g><g clip-path="url(#9)"><g clip-path="url(#1)"><path d="m 10.08 5.898 c 0.281 0.633 0.141 1.301 -0.313 1.5 c -0.457 0.199 -1.051 -0.152 -1.332 -0.785 c -0.281 -0.629 -0.141 -1.301 0.313 -1.5 c 0.457 -0.195 1.051 0.156 1.332 0.785" fill="#f4f8fa"/></g></g><g clip-path="url(#A)"><g clip-path="url(#1)"><path d="m 11.797 7.469 c -0.07 -0.016 -0.152 -0.02 -0.25 -0.004 c -0.973 0.121 -1.227 2.25 -0.793 3.664 l 1.359 -0.172 c -0.586 -1.402 -0.02 -2.953 -0.316 -3.488" fill="#fbab3f"/></g></g><g clip-path="url(#B)"><g clip-path="url(#1)"><path d="m 4.57 8.34 c -0.098 0.012 -0.172 0.035 -0.234 0.066 c 0.008 -0.039 0.023 -0.074 0.043 -0.105 c -0.332 0.523 0.742 1.969 0.512 3.563 l 1.355 -0.172 c 0.07 -1.469 -0.699 -3.477 -1.676 -3.352" fill="#fbab3f"/></g></g></svg>