<svg xmlns="http://www.w3.org/2000/svg" viewBox="0 0 16 16"><path d="m 0.883 10.973 c -5.887 -19.277 25.73 -9.637 10.945 3.57 c -2.961 2.645 -9.359 1.625 -10.945 -3.57" fill="#a2a3a2"/><g fill="#309030" stroke="#309030" stroke-width="1.124" transform="scale(0.0625)"><path d="m 160.44 131.88 l -1.875 -3.813 l 5.125 -8.188 c 9 -14.25 11.813 -20.938 8.813 -20.938 c -0.688 0 -6.875 2.625 -13.813 5.813 l -12.563 5.813 l -7.125 -1.438 c -2.688 -0.563 -1.688 -5.625 -1.438 -6.06 c 0.25 -0.375 9.875 -4.438 18.19 -8 c 8.25 -3.625 16.375 -7.438 18.06 -8.563 c 4.25 -2.938 5 -1.563 9.06 17 c 3.375 15.5 2.875 15.875 2.813 19.813 c -0.063 4.125 -4.188 5.688 -6.125 6.313 c -6.06 1.938 -8.875 5 -15.12 7.875 c -0.625 0 -3 -3.563 -4 -5.625"/><path d="m 71.938 163.69 c -6.188 -13.313 -12.563 -28.813 -12.06 -29.12 c 0.188 -0.125 3.188 -1.125 6.625 -2.25 c 3.438 -1.188 16.875 -6.25 29.938 -11.375 c 13 -5.063 24.625 -10.75 25.19 -10.438 c 1.313 3.438 0.375 8.25 0.375 12.13 l -7.375 3.438 c -4.125 1.875 -12.06 5.25 -17.688 7.438 c -9.563 3.813 -13.438 6.125 -13.438 8.06 c 0 0.5 8 2 17.813 3.375 c 9.813 1.375 18.5 3 19.313 3.625 c 0.25 4.75 -0.688 7.875 -0.75 11.688 l -11.188 4.688 c -15.688 6.625 -24.625 11.75 -28.813 11.75 c -2.688 0 -3.25 -2.75 -7.938 -13"/></g><g transform="matrix(0.05049 0 0 0.04626 0.07 1.246)"><path d="m 69.865 145.07 c -2.94 -10.05 -3.481 -34.28 -0.851 -41.29 c 5.957 -15.705 28.625 -29.3 77.29 -46.1 c 29.94 -10.301 47.19 -11.483 55.47 -3.715 c 4.874 4.56 11.992 23.389 13.616 29.21 c 1.702 6.079 -0.619 5.319 -11.45 11.314 c -28.393 15.789 -123.32 58.18 -130.51 58.34 c -0.696 0 -2.244 -3.546 -3.559 -7.768" fill="#fde33c" stroke="#fde33c" stroke-width="1.47"/><path d="m 148.78 186.36 v -19.505 l -5.416 -1.604 c -3.02 -0.844 -11.992 -2.533 -19.883 -3.715 c -7.891 -1.267 -15.09 -2.955 -15.86 -3.8 c -1.01 -1.098 -0.696 -0.929 0.774 -1.604 c 4.332 -1.689 37.986 -16.465 39.998 -19.251 c 1.238 -1.689 1.625 -5.235 1.16 -10.808 c -1.857 -23.14 -2.321 -37.658 -1.16 -37.658 c 1.083 0 8.05 9.71 20.11 28.29 c 5.338 8.106 8.123 8.19 23.751 0.422 c 6.499 -3.293 12.07 -5.657 12.456 -5.319 c 0.309 0.338 -2.863 6.924 -7.118 14.607 c -4.255 7.684 -8.05 14.945 -8.433 16.212 c -1.083 3.377 2.244 10.892 8.588 19.589 c 3.172 4.306 5.725 8.444 5.725 9.288 c 0 1.52 -3.404 1.351 -23.906 -1.182 l -7.736 -0.929 l -3.559 5.826 c -2.01 3.209 -6.963 11.399 -10.986 18.238 c -4.1 6.755 -7.659 12.412 -7.969 12.412 c -0.309 0 -0.542 -8.781 -0.542 -19.505" fill="#f4f4f4" stroke="#f4f4f4" stroke-width="1.453"/></g><path d="m 94 195.25 c -4.5 -3.25 -10.188 -9.688 -12.625 -14.313 c -1.563 -2.875 -4.25 -4 13.25 -8.625 c 6.125 -1.563 14.06 -5.813 18.19 -7.875 c 4.125 -2.063 7.813 -3.688 8.125 -3.688 c 0.313 0 0.25 4.188 -0.125 9.375 c -0.625 7.875 -0.5 9.375 0.938 9.375 c 2.25 0 5.125 -3.313 12.438 -14.375 c 10.625 -16.06 9.06 -14.938 19.375 -13.438 c 4.813 0.688 10.688 1.563 13 1.938 c 6.125 1.063 6.563 -1.438 1.625 -9.25 c -3.625 -5.813 -3.75 -6.375 -1.875 -7.06 c 1.188 -0.438 5.25 -2.75 9.188 -5.188 c 11.25 -7 11.563 -6.938 11.375 4.375 c -0.188 10.188 -1.125 12.938 -7 20.25 c -4.75 5.875 -12.188 11.125 -32.438 22.938 c -21.12 12.375 -33.12 17.563 -42.12 18.313 c -6.125 0.5 -7.125 0.25 -11.313 -2.75" transform="scale(0.0625)" fill="#b73746" stroke="#b73746" stroke-width="1.113"/></svg>