<svg xmlns="http://www.w3.org/2000/svg" viewBox="0 0 16 16"><path d="m 14.281 12.195 c 5.703 -8.07 -4.824 -16.242 -11.539 -9.668 c -6.328 6.195 -0.461 15.816 7.41 12.809 c 1.645 -0.625 3.086 -1.656 4.129 -3.141" fill="#ffc0ca"/><path d="m 6.574 13.08 c -0.902 -0.266 -1.535 -0.648 -2.238 -1.359 c -1.613 -1.621 -1.98 -3.93 -0.953 -5.977 c 0.387 -0.77 1.426 -1.82 2.191 -2.211 c 2.031 -1.031 4.324 -0.66 5.934 0.961 c 2.051 2.066 2.051 5.16 0 7.227 c -1.043 1.051 -2.215 1.543 -3.648 1.527 c -0.398 -0.004 -0.98 -0.078 -1.285 -0.168 m -1 -3.23 c 0.254 -0.219 0.262 -0.262 0.293 -1.266 c 0.027 -0.98 0.043 -1.047 0.266 -1.223 c 0.305 -0.242 0.59 -0.238 0.898 0.004 c 0.234 0.188 0.242 0.234 0.246 1.102 c 0 1 0.102 1.309 0.48 1.492 c 0.289 0.141 0.664 0.027 0.805 -0.238 c 0.055 -0.098 0.125 -0.613 0.16 -1.152 c 0.051 -0.793 0.098 -1.012 0.254 -1.184 c 0.262 -0.293 0.711 -0.281 0.992 0.023 c 0.195 0.207 0.227 0.352 0.273 1.25 c 0.031 0.652 0.098 1.07 0.18 1.168 c 0.18 0.219 0.711 0.199 0.945 -0.039 c 0.18 -0.18 0.191 -0.281 0.164 -1.434 c -0.027 -1.172 -0.043 -1.266 -0.285 -1.629 c -0.586 -0.895 -1.844 -1.219 -2.805 -0.73 l -0.441 0.227 l -0.422 -0.227 c -0.547 -0.289 -1.441 -0.313 -1.957 -0.047 c -0.449 0.234 -0.902 0.715 -1.082 1.152 c -0.18 0.438 -0.199 2.379 -0.023 2.605 c 0.309 0.406 0.695 0.457 1.059 0.145" fill="#fb95d4"/><path d="m 4.656 9.777 l -0.227 -0.223 l 0.031 -1.137 c 0.027 -0.98 0.051 -1.172 0.191 -1.437 c 0.207 -0.398 0.852 -0.973 1.207 -1.078 c 0.461 -0.137 1.328 -0.059 1.754 0.164 l 0.367 0.188 l 0.48 -0.215 c 0.426 -0.191 0.547 -0.215 1.043 -0.188 c 0.355 0.016 0.672 0.082 0.859 0.172 c 0.395 0.191 0.898 0.715 1.01 1.055 c 0.055 0.156 0.094 0.75 0.102 1.414 c 0.008 1.141 0.008 1.148 -0.18 1.289 c -0.223 0.176 -0.688 0.195 -0.82 0.035 c -0.078 -0.094 -0.277 -1.52 -0.293 -2.07 c 0 -0.074 -0.102 -0.234 -0.219 -0.352 c -0.168 -0.168 -0.285 -0.219 -0.504 -0.215 c -0.539 0.004 -0.648 0.195 -0.766 1.336 c -0.109 1.094 -0.176 1.301 -0.445 1.414 c -0.176 0.07 -0.262 0.066 -0.477 -0.039 c -0.34 -0.16 -0.406 -0.363 -0.465 -1.457 c -0.051 -0.867 -0.059 -0.898 -0.27 -1.074 c -0.305 -0.258 -0.676 -0.246 -0.945 0.023 c -0.199 0.199 -0.211 0.246 -0.262 1.203 c -0.055 0.984 -0.059 1 -0.281 1.207 c -0.301 0.285 -0.598 0.277 -0.891 -0.016" fill="#f8f8ff"/></svg>