<svg xmlns="http://www.w3.org/2000/svg" viewBox="0 0 16 16"><path d="m 2.898 14.25 c 9.594 7.445 19.559 -11.1 7.676 -13.809 c -7.48 -2.781 -14.789 8.289 -7.676 13.809" fill="#a4a4a4"/><path d="m 5.859 4.602 c 1.438 0.055 4.227 0.039 5.668 0.09 c -0.027 0.73 -0.809 1.855 -1.402 2.73 c -1.441 -0.051 -4.348 -0.133 -5.785 -0.184 c 0.023 -0.73 1.188 -1.797 1.52 -2.637" fill="#7fd0ff"/><path d="m 3.617 11.605 c -0.113 -0.047 -0.164 -0.137 -0.137 -0.227 c 0.012 -0.047 0.141 -0.262 0.285 -0.48 l 0.262 -0.395 l 2.148 0.082 c 1.18 0.043 2.195 0.086 2.254 0.086 c 0.34 0.02 1.492 -0.004 1.59 -0.031 c 0.137 -0.039 0.398 -0.195 0.516 -0.309 c 0.047 -0.043 0.344 -0.5 0.664 -1.02 c 0.57 -0.918 0.586 -0.938 0.703 -0.945 c 0.145 -0.008 0.254 0.082 0.25 0.203 c 0 0.047 -0.215 0.426 -0.477 0.844 c -0.258 0.418 -0.527 0.852 -0.594 0.961 c -0.484 0.785 -0.742 1.188 -0.789 1.234 c -0.031 0.035 -0.145 0.094 -0.246 0.137 l -0.184 0.074 l -3.086 -0.09 c -1.699 -0.051 -3.121 -0.105 -3.16 -0.125 m -0.031 -1.395 c -0.125 -0.094 -0.09 -0.211 0.207 -0.66 l 0.277 -0.422 l 2.168 0.09 c 1.195 0.047 2.211 0.086 2.258 0.086 c 0.344 0.012 1.508 -0.012 1.582 -0.031 c 0.125 -0.031 0.441 -0.211 0.539 -0.309 c 0.043 -0.043 0.32 -0.473 0.613 -0.953 c 0.293 -0.48 0.566 -0.91 0.605 -0.953 c 0.059 -0.063 0.094 -0.074 0.164 -0.055 c 0.141 0.039 0.215 0.129 0.188 0.23 c -0.023 0.102 -1.703 2.824 -1.836 2.98 c -0.133 0.125 -0.277 0.184 -0.441 0.258 l -3.121 -0.102 c -2.797 -0.094 -3.133 -0.109 -3.203 -0.16 m 0.063 -1.402 c -0.109 -0.109 -0.094 -0.145 0.234 -0.645 l 0.242 -0.371 l 2.832 0.098 c 2.01 0.066 2.895 0.086 3.047 0.063 c 0.262 -0.039 0.563 -0.215 0.707 -0.402 c 0.059 -0.074 0.352 -0.535 0.652 -1.023 c 0.301 -0.484 0.57 -0.891 0.598 -0.902 c 0.086 -0.027 0.234 0.047 0.289 0.145 c 0.047 0.086 0.02 0.137 -0.824 1.496 c -0.477 0.777 -0.91 1.465 -0.961 1.531 c -0.137 0.148 -0.293 0.219 -0.469 0.305 l -6.266 -0.203 m -0.055 -1.414 c -0.121 -0.125 -0.219 0.043 1.262 -2.223 c 0.613 -0.934 0.746 -1.078 1.059 -1.125 c 0.121 -0.02 1.281 0.004 3.141 0.063 c 3.223 0.102 3.168 0.098 3.16 0.289 c -0.004 0.113 -1.707 2.891 -1.863 3.043 c -0.055 0.051 -0.164 0.125 -0.246 0.164 c -0.145 0.07 -0.145 0.07 -3.293 -0.035 c -3.121 -0.102 -3.148 -0.102 -3.219 -0.176 m 6.402 -0.184 c 0 -0.02 -0.02 -0.141 -0.051 -0.145 c -0.266 -0.008 -0.449 0.176 -0.199 0.262 c 0.039 0.012 0.25 -0.074 0.25 -0.117 m -1.566 -0.398 c -0.02 -0.008 -0.016 -0.035 -0.039 -0.035 c -0.02 0 -0.277 0.168 -0.301 0.172 c -0.266 0.035 0.238 0.109 0.25 0.109 c 0.008 0 0.496 -0.09 0.09 -0.246 m 0.164 -0.293 c 0.016 -0.012 0.008 -0.055 -0.02 -0.094 c -0.023 -0.039 -0.043 -0.129 -0.047 -0.199 c -0.004 -0.098 -0.125 -0.297 -0.035 -0.375 c 0.059 -0.055 0.258 0.012 0.266 -0.043 c 0.012 -0.07 0.047 -0.113 0.117 -0.141 c 0.121 -0.051 0.422 -0.203 0.309 -0.207 c -0.047 -0.004 -0.348 0.008 -0.344 -0.035 c 0.008 -0.031 0 -0.086 -0.016 -0.121 c -0.012 -0.031 0.309 -0.164 0.32 -0.191 c 0.012 -0.027 -0.316 0.023 -0.332 0.012 c -0.02 -0.012 -0.035 -0.059 -0.031 -0.105 c 0 -0.07 -0.016 -0.086 -0.098 -0.086 c -0.055 -0.004 -0.414 0.246 -0.492 0.281 c -0.188 0.086 -0.199 -0.066 -0.328 -0.07 c -0.125 -0.004 -0.52 0.023 -0.523 0.141 c -0.117 0.293 -0.461 0.051 -0.023 0.492 c 0 0.02 -0.016 0.031 -0.031 0.031 c -0.016 0 -0.102 0.059 -0.184 0.129 c -0.199 0.16 -0.184 0.238 0.043 0.246 c 0.09 0.004 0.207 -0.016 0.266 -0.043 c 0.121 -0.055 0.34 -0.23 0.336 -0.098 c -0.008 0.215 0.008 0.766 0.242 0.422 c 0.188 -0.277 0.395 0.004 0.438 0.031 c 0.078 0.047 0.133 0.055 0.168 0.023 m 1.465 -0.238 c 0.051 -0.047 0.043 -0.133 0.016 -0.18 c -0.133 -0.23 -0.336 -0.09 -0.336 -0.023 c -0.004 0.035 0.039 0.266 0.051 0.277 c 0.039 0.039 0.219 -0.031 0.27 -0.074 m -4.277 -0.195 c 0.109 -0.078 0.25 -0.148 0.254 -0.27 c 0.004 -0.078 -0.273 -0.203 -0.293 -0.215 c -0.133 -0.086 -0.461 0.348 -0.352 0.461 c 0.043 0.047 0.266 0.113 0.391 0.023 m 4.926 -0.16 c 0.363 -0.668 -0.121 -0.18 -0.25 -0.156 c -0.125 0.02 -0.031 0.207 0.074 0.234 c 0.094 0.023 0.137 -0.008 0.176 -0.078 m -5.359 -0.395 c 0.004 -0.047 -0.016 -0.063 -0.059 -0.063 c -0.227 0.012 -0.285 0.27 -0.195 0.273 c 0.051 0.004 0.254 -0.16 0.254 -0.211" fill="#2c2d2f"/></svg>