<svg xmlns="http://www.w3.org/2000/svg" viewBox="0 0 16 16"><path d="m 11.1 14.168 c -0.934 0.777 -2.719 1.559 -3.797 1.672 c -1.563 0.16 -3.371 -0.363 -4.484 -1.293 c -1.484 -1.238 -2.473 -3.465 -2.543 -6 c -0.051 -1.82 0.355 -4.57 0.977 -5.824 c 1.332 -2.48 4.359 -3.141 6.57 -2.395 c 2.984 0.797 5.04 2.656 6.695 4.328 c 3.703 4.246 -0.516 7.148 -3.418 9.512" fill="#9370db"/><path d="m 4.422 11.746 c -0.305 -0.734 -0.211 -6.941 0.113 -7.41 c 0.254 -0.371 0.453 -0.359 1.5 0.098 c 1.5 0.656 4.367 2.242 5.711 3.113 c 0.723 0.438 0.844 0.59 0.25 1 c -1.574 1.074 -6.465 3.66 -7.082 3.66 c -0.164 0 -0.387 -0.207 -0.492 -0.461" fill="#8d348e"/><path d="m 4.242 8.141 c -0.02 1.637 0.035 3.254 0.18 3.605 c 0.109 0.254 0.328 0.465 0.492 0.465 c 0.617 0 5.508 -2.59 7.082 -3.664 c 0.242 -0.168 0.359 -0.289 0.375 -0.406" fill-opacity="0.302"/><path d="m 6.629 9.492 c -0.109 -0.273 -0.078 -2.602 0.039 -2.777 c 0.09 -0.141 0.164 -0.133 0.535 0.035 c 0.535 0.246 1.559 0.844 2.039 1.168 c 0.258 0.164 0.305 0.223 0.09 0.375 c -0.563 0.402 -2.309 1.375 -2.527 1.375 c -0.059 0 -0.141 -0.078 -0.176 -0.176" fill="#fff"/></svg>