<svg xmlns="http://www.w3.org/2000/svg" viewBox="0 0 16 16"><path d="m 11.426 15.941 c -23.01 1.59 -5.762 -29.11 4.01 -8.895 c 1.348 3.113 0.363 7.758 -4.01 8.895" fill="#3b3b3b" fill-opacity="0.925"/><path d="m 3.875 11.945 c 0 -0.441 0.027 -0.508 0.195 -0.508 c 0.094 0 0.094 -0.004 0.109 -0.453 c 0.02 -0.457 0.039 -0.531 0.215 -0.82 c 0.066 -0.109 0.074 -0.188 0.074 -0.641 v -0.516 l -0.164 -0.207 c -0.156 -0.195 -0.168 -0.227 -0.168 -0.426 c 0 -0.273 0.051 -0.328 0.262 -0.273 l 0.145 0.035 v -1.277 l -0.102 -0.078 c -0.09 -0.066 -0.102 -0.098 -0.102 -0.289 c 0 -0.23 0.039 -0.297 0.172 -0.309 c 0.086 -0.004 0.086 -0.004 0.105 -0.707 c 0.02 -0.77 0.02 -0.77 0.289 -1.051 c 0.086 -0.086 0.086 -0.102 0.035 -0.156 c -0.16 -0.176 -0.219 -0.43 -0.145 -0.617 c 0.031 -0.078 0.145 -0.203 0.277 -0.305 c 0.066 -0.051 0.246 -0.059 0.246 -0.008 c 0 0.02 0.023 0.035 0.055 0.035 c 0.031 0 0.105 0.066 0.168 0.148 c 0.148 0.195 0.152 0.449 0.016 0.645 c -0.109 0.156 -0.113 0.203 -0.016 0.285 c 0.043 0.035 0.113 0.121 0.156 0.191 c 0.078 0.117 0.086 0.184 0.102 0.832 c 0.016 0.574 0.027 0.707 0.07 0.699 c 0.027 -0.008 0.09 0.016 0.137 0.043 c 0.074 0.047 0.09 0.086 0.09 0.25 c 0 0.164 -0.02 0.211 -0.113 0.313 l -0.109 0.121 v 1.215 l 0.16 -0.023 c 0.215 -0.031 0.285 0.035 0.285 0.266 c 0 0.168 -0.066 0.293 -0.285 0.543 c -0.082 0.094 -0.086 0.125 -0.086 0.613 v 0.512 l 0.137 0.234 c 0.137 0.234 0.141 0.246 0.152 0.672 l 0.016 0.43 h 0.582 l -0.086 -0.133 c -0.129 -0.199 -0.172 -0.348 -0.172 -0.605 c 0 -0.371 0.082 -0.547 0.387 -0.836 c 0.41 -0.391 1.031 -0.75 1.793 -1.039 c 0.637 -0.242 0.668 -0.262 0.668 -0.426 c 0 -0.102 -0.016 -0.141 -0.07 -0.156 c -0.129 -0.039 -0.262 -0.199 -0.262 -0.316 c 0 -0.145 0.078 -0.246 0.234 -0.316 c 0.207 -0.094 0.328 0.008 0.188 0.156 c -0.082 0.09 -0.172 0.344 0.133 0.32 c 0.363 -0.023 0.219 -0.23 0.133 -0.32 c -0.137 -0.145 -0.027 -0.246 0.18 -0.164 c 0.152 0.059 0.242 0.18 0.242 0.32 c 0 0.121 -0.051 0.191 -0.191 0.281 c -0.082 0.051 -0.105 0.09 -0.105 0.195 c 0 0.074 0.023 0.148 0.047 0.168 c 0.027 0.023 0.223 0.105 0.438 0.184 c 0.43 0.164 0.957 0.41 1.238 0.578 c 0.344 0.207 0.793 0.559 0.902 0.711 c 0.262 0.363 0.293 0.762 0.086 1.16 c -0.066 0.129 -0.117 0.242 -0.117 0.254 c 0 0.012 0.164 0.02 0.363 0.02 c 0.488 0 0.484 0 0.484 0.543 v 0.414 h -9.473 m 6.605 -1.887 c 0.191 -0.137 1.09 -0.91 0.984 -1.027 c -0.109 -0.113 -0.543 -0.328 -1.031 -0.516 c -0.496 -0.184 -0.664 -0.27 -0.719 -0.352 c -0.039 -0.063 -0.047 -0.063 -0.141 0.027 c -0.055 0.055 -0.324 0.184 -0.633 0.305 c -1.059 0.414 -1.672 0.73 -1.855 1.098 c -0.203 0.512 -0.043 0.391 0.305 0.551 c 0.934 0.508 2.141 0.523 3.09 -0.086 m -4.973 -4.086 c -0.051 -0.648 -0.047 -1.02 -0.297 -1.035 c -0.223 0.059 -0.336 0.594 -0.277 1.01 c 0.063 0.648 0.59 0.367 0.574 0.027" fill="#d6d6d6"/></svg>