<svg xmlns="http://www.w3.org/2000/svg" viewBox="0 0 16 16"><path d="m 1.453 3.938 c 13.547 -13.809 22.27 14.629 4.289 11.859 c -4.01 -0.641 -7.66 -8.422 -4.289 -11.859" fill="#696969"/><path d="m 4.52 3.863 h 7.465 c 0.238 0 0.43 0.227 0.43 0.512 v 7.395 c 0 0.281 -0.191 0.512 -0.43 0.512 h -7.465 c -0.234 0 -0.43 -0.23 -0.43 -0.512 v -7.395 c 0 -0.285 0.195 -0.512 0.43 -0.512" fill="#fff"/><path d="m 10.1 11.805 v -0.914 c 0 -0.504 0 -0.926 0 -0.938 c 0 -0.031 -1.609 -0.031 -1.641 0 c -0.008 0.012 -0.016 0.375 -0.012 0.809 c 0.004 0.504 -0.008 0.82 -0.035 0.875 c -0.043 0.082 -0.074 0.082 -1.875 0.082 c -1.797 0 -1.828 0 -1.871 -0.082 c -0.031 -0.059 -0.039 -0.531 -0.031 -1.473 l 0.012 -1.383 c 1.555 -1.895 1.883 -1.766 1.766 -4.086 c 0.004 -0.242 0.02 -0.457 0.039 -0.477 c 0.043 -0.047 5.445 -0.047 5.488 0 c 0.02 0.02 0.039 1.207 0.043 2.637 l 0.008 2.602 l 0.152 0.016 c 0.215 0.016 0.266 0.07 0.195 0.207 c -0.031 0.059 -0.484 0.547 -1.01 1.086 c -0.52 0.535 -0.949 0.988 -0.949 1.01 c -5.902 0.414 -5.887 0.355 -0.281 0.031 m -3.715 -0.348 c 0.023 -0.027 0.023 -1.48 0 -1.508 c -0.027 -0.027 -1.438 -0.027 -1.465 0 c -0.023 0.027 -0.023 1.469 0 1.512 c 0.02 0.031 1.43 0.031 1.465 -0.004 m 1.77 0 c 0.027 -0.027 0.023 -1.484 -0.004 -1.512 c -0.051 -0.055 -0.488 -0.035 -0.555 0.023 c -0.059 0.051 -0.09 0.055 -0.184 0.008 c -0.109 -0.051 -0.672 -0.078 -0.719 -0.031 c -0.027 0.027 -0.027 1.469 0 1.516 c 0.02 0.031 1.43 0.031 1.461 -0.004 m 1.773 -1.828 c 0.023 -0.023 0.023 -1.48 0 -1.508 c -0.027 -0.027 -1.438 -0.027 -1.465 0 c -0.023 0.027 -0.023 1.469 0 1.512 c 0.02 0.035 1.43 0.031 1.465 -0.004 m 1.215 -0.152 l 0.574 -0.02 v -0.656 c 0 -0.363 -0.008 -0.668 -0.02 -0.68 c -0.023 -0.027 -1.438 -0.027 -1.461 0 c -0.031 0.031 -0.023 1.473 0.004 1.523 c 0.02 0.027 0.082 0.012 0.176 -0.051 c 0.129 -0.082 0.215 -0.098 0.727 -0.117 m -1.215 -1.672 c 0.023 -0.027 0.023 -1.484 0 -1.508 c -0.027 -0.027 -1.438 -0.027 -1.465 0 c -0.023 0.023 -0.023 1.465 0 1.508 c 0.02 0.035 1.43 0.031 1.465 0 m 0 -1.828 c 0.023 -0.027 0.023 -1.48 0 -1.508 c -0.027 -0.027 -1.438 -0.027 -1.465 0 c -0.023 0.027 -0.023 1.469 0 1.512 c 0.02 0.031 1.43 0.031 1.465 -0.004 m 1.77 0 c 0.027 -0.027 0.027 -1.48 0 -1.508 c -0.023 -0.027 -1.438 -0.027 -1.461 0 c -0.027 0.027 -0.027 1.469 0 1.512 c 0.02 0.031 1.43 0.031 1.461 -0.004 m -3.516 -0.902 c -0.004 -0.324 -0.016 -0.594 -0.027 -0.605 c -0.027 -0.027 -1.437 -0.027 -1.465 0.004 c -0.012 0.012 -0.023 0.168 -0.023 0.344 v 0.324 l 0.504 0.02 c 0.461 0.02 0.516 0.031 0.668 0.133 c 0.09 0.063 0.195 0.168 0.234 0.238 c 0.039 0.07 0.082 0.129 0.094 0.129 c 0.012 0 0.02 -0.266 0.016 -0.586" fill="#d6d5d2"/><path d="m 4.398 12.512 c -0.277 -0.129 -0.414 -0.367 -0.363 -0.637 c 0.047 -0.25 0.078 -0.266 0.27 -0.133 l 0.172 0.125 h 7.5 l 0.172 -0.125 c 0.191 -0.133 0.223 -0.117 0.27 0.133 c 0.051 0.27 -0.086 0.508 -0.363 0.637 c -0.156 0.074 -0.348 0.078 -3.828 0.078 c -3.48 0 -3.672 -0.004 -3.828 -0.078 m 5.781 -1.59 c 0 -1.031 0.02 -1.109 0.32 -1.266 c 0.164 -0.082 0.25 -0.094 0.785 -0.098 c 0.906 -0.008 0.988 -0.004 0.988 0.055 c 0 0.043 -1.922 2.078 -2.043 2.16 c -0.039 0.027 -0.051 -0.152 -0.051 -0.852 m -3.258 -1.246 l -0.266 -0.012 l -0.023 -0.371 c -0.023 -0.402 -0.055 -0.52 -0.141 -0.52 c -0.043 0 -0.059 0.102 -0.066 0.445 l -0.012 0.445 h -1.527 l -0.023 -0.453 c -0.266 -2.172 1.367 -3.793 3.227 -3.492 c 0.063 0.148 0.07 0.375 0.082 2.059 l 0.016 1.887 c -0.719 0.008 -0.918 0.051 -1.266 0.012 m 3.277 -1.871 c -0.012 -0.027 -0.016 -0.387 -0.012 -0.797 l 0.012 -0.746 h 1.531 v 1.578 l -0.758 0.008 c -0.59 0.012 -0.758 0 -0.773 -0.043" fill="#c7c5c1"/><path d="m 4.363 12.473 c -0.223 -0.141 -0.371 -0.387 -0.316 -0.527 c 0.02 -0.051 0.047 -0.035 0.141 0.086 c 0.234 0.289 -0.039 0.27 4.04 0.27 c 4.078 0 3.805 0.02 4.04 -0.27 c 0.094 -0.121 0.121 -0.137 0.141 -0.086 c 0.031 0.086 -0.035 0.27 -0.145 0.391 c -0.203 0.223 -0.016 0.215 -4.04 0.215 c -3.566 0 -3.742 -0.004 -3.855 -0.078 m 2.258 -3.625 l -0.113 -0.156 l -1.098 -0.012 c -0.465 -0.027 -0.93 0.109 -1.316 -0.164 c -0.375 -0.27 -0.371 -0.25 -0.359 -1.543 c 0.012 -1.215 0.023 -1.293 0.25 -1.508 c 0.238 -0.223 0.23 -0.223 1.941 -0.223 c 1.281 0 1.613 0.012 1.723 0.059 c 0.152 0.066 0.359 0.285 0.426 0.445 c 0.066 0.156 0.082 2.355 0.02 2.473 c -0.051 0.098 -0.332 0.344 -0.484 0.426 c -0.094 0.051 -0.094 0.059 -0.082 0.641 c 0.012 0.496 0.004 0.59 -0.047 0.598 c -0.344 -0.305 -0.566 -0.633 -0.859 -1.035" fill="#4069e0"/></svg>