<svg xmlns="http://www.w3.org/2000/svg" viewBox="0 0 16 16"><defs><linearGradient id="0" gradientUnits="userSpaceOnUse" x1="10" y1="23" x2="25" y2="9" gradientTransform="matrix(0.31327 0 0 0.31473 0.699 0.874)"><stop stop-color="#000" stop-opacity="0.098"/><stop offset="1" stop-color="#000" stop-opacity="0"/></linearGradient><linearGradient id="1" gradientUnits="userSpaceOnUse" x1="10" y1="22" x2="25" y2="8" gradientTransform="matrix(0.31327 0 0 0.31473 0.699 0.874)"><stop stop-color="#4f2d7a"/><stop offset="1" stop-color="#4f2d7a" stop-opacity="0"/></linearGradient></defs><path d="m 8.152 15.914 c -1.652 -0.129 -3.582 -0.914 -4.93 -2.01 c -1.637 -1.332 -2.832 -3.371 -3.156 -5.387 c -0.383 -2.66 1.164 -5.516 2.906 -6.875 c 0.875 -0.66 2.035 -1.184 3.125 -1.414 c 2.832 -0.602 5.785 0.535 7.809 2.996 c 1.215 1.477 1.844 2.965 1.996 4.727 c 0.184 2.109 -0.652 4.375 -2.176 5.898 c -1.734 1.434 -3.516 2.215 -5.574 2.066" fill="#deadf4"/><path d="m 8.531 3.391 c -2.926 0 -5.01 2.379 -5.01 5.04 h 0.625 c 0 -2.434 1.965 -4.406 4.387 -4.406 c 0.172 0 0.313 -0.145 0.313 -0.316 c 0 -0.176 -0.141 -0.316 -0.313 -0.316" fill="url(#0)"/><path d="m 8.531 4.652 c -2.078 0 -3.758 1.691 -3.758 3.777 c 0 1.91 1.543 3.461 3.445 3.461 c 1.73 0 3.133 -1.41 3.133 -3.148 c 0 -1.563 -1.262 -2.832 -2.82 -2.832 c -1.383 0 -2.508 1.129 -2.508 2.52 c 0 1.215 0.984 2.203 2.195 2.203 c 1.035 0 1.879 -0.848 1.879 -1.891 c 0 -0.867 -0.703 -1.574 -1.566 -1.574 c -0.691 0 -1.254 0.566 -1.254 1.262 c 0 0.52 0.422 0.941 0.941 0.941 c 0.344 0 0.625 -0.281 0.625 -0.629 c 0 -0.348 -0.281 -0.629 -0.625 -0.629 c 0.172 0 0.313 0.141 0.313 0.316 c 0 0.172 -0.141 0.313 -0.313 0.313 c -0.176 0 -0.313 -0.141 -0.313 -0.313 c 0 -0.348 0.277 -0.633 0.625 -0.633 c 0.52 0 0.941 0.426 0.941 0.945 c 0 0.695 -0.563 1.258 -1.254 1.258 c -0.867 0 -1.566 -0.703 -1.566 -1.57 c 0 -1.043 0.84 -1.891 1.879 -1.891 c 1.211 0 2.191 0.988 2.191 2.203 c 0 1.391 -1.121 2.52 -2.504 2.52 c -1.559 0 -2.82 -1.27 -2.82 -2.832 c 0 -1.738 1.402 -3.148 3.133 -3.148 c 1.902 0 3.445 1.551 3.445 3.461 c 0 2.086 -1.684 3.777 -3.758 3.777 c -2.25 0 -4.074 -1.832 -4.074 -4.09 h -0.625 c 0 2.605 2.102 4.719 4.699 4.719 c 2.422 0 4.383 -1.973 4.383 -4.406 c 0 -2.258 -1.82 -4.09 -4.07 -4.09" fill-opacity="0.102"/><path d="m 8.531 4.336 c -2.078 0 -3.758 1.691 -3.758 3.777 c 0 1.91 1.543 3.461 3.445 3.461 c 1.73 0 3.133 -1.41 3.133 -3.145 c 0 -1.566 -1.262 -2.836 -2.82 -2.836 c -1.383 0 -2.508 1.129 -2.508 2.52 c 0 1.215 0.984 2.203 2.195 2.203 c 1.035 0 1.879 -0.848 1.879 -1.887 c 0 -0.871 -0.703 -1.574 -1.566 -1.574 c -0.691 0 -1.254 0.563 -1.254 1.258 c 0 0.52 0.422 0.945 0.941 0.945 c 0.344 0 0.625 -0.281 0.625 -0.629 c 0 -0.348 -0.281 -0.633 -0.625 -0.633 c 0.172 0 0.313 0.141 0.313 0.316 c 0 0.172 -0.141 0.316 -0.313 0.316 c -0.176 0 -0.313 -0.145 -0.313 -0.316 c 0 -0.348 0.277 -0.629 0.625 -0.629 c 0.52 0 0.941 0.422 0.941 0.945 c 0 0.691 -0.563 1.258 -1.254 1.258 c -0.867 0 -1.566 -0.707 -1.566 -1.574 c 0 -1.043 0.84 -1.887 1.879 -1.887 c 1.211 0 2.191 0.984 2.191 2.203 c 0 1.387 -1.121 2.516 -2.504 2.516 c -1.559 0 -2.82 -1.27 -2.82 -2.832 c 0 -1.738 1.402 -3.148 3.133 -3.148 c 1.902 0 3.445 1.551 3.445 3.465 c 0 2.082 -1.684 3.773 -3.758 3.773 c -2.25 0 -4.074 -1.832 -4.074 -4.09 l -0.312 -0.316 l -0.313 0.316 c 0 2.605 2.102 4.723 4.699 4.723 c 2.422 0 4.383 -1.977 4.383 -4.406 c 0 -2.262 -1.82 -4.094 -4.07 -4.094" fill="#4f2d7a"/><path d="m 8.531 3.078 c -2.926 0 -5.01 2.375 -5.01 5.04 h 0.625 c 0 -2.434 1.965 -4.406 4.387 -4.406 c 0.172 0 0.313 -0.141 0.313 -0.316 c 0 -0.172 -0.141 -0.313 -0.313 -0.313" fill="url(#1)"/></svg>