<svg xmlns="http://www.w3.org/2000/svg" viewBox="0 0 16 16"><path d="m 6.555 15.32 c -10.738 -1.59 -7.07 -17.926 3.32 -14.836 c 9.871 2.074 7.199 18.793 -3.32 14.836" fill="#0068c2"/><g fill="#fff"><path d="m 3.547 4.668 h 8.91 v 7.117 h -8.91"/><path d="m 7.445 7.777 h 5.617 v 4.461 h -5.617"/></g><path d="m 8.105 11.715 c -0.023 -0.043 -0.043 -0.148 -0.043 -0.23 v -0.145 h -1.969 c -1.906 0 -1.973 -0.004 -2.02 -0.082 c -0.066 -0.125 -0.059 -5.891 0.012 -5.984 c 0.047 -0.063 0.316 -0.07 3.867 -0.059 l 3.813 0.012 l 0.023 1.422 c 0.016 1.199 0.031 1.426 0.082 1.457 c 0.035 0.023 0.195 0.039 0.352 0.043 h 0.285 l -0.008 1.813 l -0.012 1.813 l -2.172 0.012 c -2.113 0.008 -2.172 0.008 -2.215 -0.07 m 2.957 -3.453 l 0.008 -2.312 h -3.113 c -2.465 0 -3.117 0.012 -3.117 0.055 c -0.012 1.086 0.004 4.52 0.023 4.551 c 0.016 0.023 1.188 0.035 3.105 0.027 l 3.082 -0.012" fill="#0068c2"/></svg>