<svg xmlns="http://www.w3.org/2000/svg" viewBox="0 0 16 16"><path d="m 14.04 12.11 c -13.172 14.168 -21.469 -15.07 -3.984 -11.848 c 4.613 1.59 8.215 7.297 3.984 11.848" fill="#4e90d9"/><path d="m 112.56 291.29 c -2.484 -2.847 -1.806 -5.58 4.403 -16.397 c 5.983 -10.704 7.338 -14.234 6.209 -16.17 c -0.564 -0.797 -7.225 -1.139 -23.595 -1.366 l -22.917 -0.342 l -3.838 -2.619 c -7.564 -5.01 -7.338 -3.644 -7.451 -59.55 c 0 -51.24 0.113 -53.18 4.064 -57.62 c 4.516 -5.124 4.967 -5.238 38.38 -5.693 l 31.05 -0.455 l 0.452 -32.794 l 0.452 -32.908 l 2.822 -3.53 c 5.419 -6.718 0.903 -6.377 74.848 -6.718 c 47.867 -0.114 67.74 0.114 70.45 0.797 c 4.403 1.253 8.806 5.58 10.273 10.134 c 0.677 2.277 1.016 17.991 1.016 51.81 c 0 55.34 0.113 53.974 -7.451 59.1 l -3.838 2.619 l -21.11 0.455 l -20.998 0.455 l -0.339 2.619 c -0.226 1.708 1.693 6.149 6.209 14.461 c 3.5 6.491 6.435 12.298 6.435 12.981 c 0 0.569 -0.79 2.05 -1.693 3.188 c -1.693 2.164 -2.484 2.277 -16.257 2.733 l -14.45 0.455 l -0.452 14.01 c -0.564 15.486 -1.355 18.11 -6.774 22.318 c -4.29 3.416 -10.386 4.327 -29.917 4.327 h -17.273 v 3.302 c 0 2.277 1.693 6.263 5.645 13.209 c 6.548 11.956 7.451 15.14 4.403 17.422 c -1.919 1.253 -6.096 1.48 -34.658 1.48 c -30.368 0 -32.739 -0.114 -34.09 -1.708 m 63.898 -4.213 c 0.226 -0.683 -2.145 -5.807 -5.306 -11.387 c -5.193 -9.223 -5.758 -10.704 -5.758 -15.6 c 0 -8.768 -0.564 -8.54 25.514 -9.11 c 20.547 -0.455 22.353 -0.569 24.272 -2.277 c 4.629 -4.327 4.516 -3.644 4.516 -54.43 c 0 -44.07 -0.113 -47.597 -1.693 -50.558 c -0.903 -1.708 -3.048 -3.985 -4.742 -4.896 c -2.935 -1.594 -6.548 -1.708 -69.54 -1.48 l -66.38 0.228 l -2.822 2.733 c -1.468 1.594 -3.161 4.441 -3.725 6.377 c -0.564 2.164 -0.79 20.496 -0.677 49.988 c 0.226 42.587 0.452 46.686 1.919 48.964 c 3.613 5.693 4.403 5.807 30.03 6.149 l 23.595 0.228 l 1.919 2.505 c 3.274 4.327 2.145 9.451 -4.967 21.749 c -4.403 7.743 -5.758 10.818 -4.967 11.273 c 0.677 0.455 13.999 0.797 29.691 0.797 c 23.14 0 28.675 -0.228 29.13 -1.253 m -98.33 -43.498 c -1.693 -1.822 -1.806 -3.188 -1.806 -49.42 v -47.597 l 2.484 -1.936 c 2.371 -1.936 3.048 -1.936 65.7 -1.936 c 63.56 0 66.16 0.114 68.07 3.188 c 0.452 0.569 0.677 22.546 0.677 48.85 l 0.113 47.711 l -2.032 1.48 c -1.806 1.253 -9.709 1.48 -66.72 1.48 c -63.45 0 -64.69 0 -66.49 -1.822 m 173.07 -33.591 c 0.226 -0.455 -2.145 -5.693 -5.419 -11.501 c -5.08 -9.223 -5.983 -11.387 -5.983 -15.372 c 0 -8.312 -0.452 -8.08 24.385 -8.654 c 23.82 -0.569 24.837 -0.797 28.336 -6.263 c 1.468 -2.277 1.581 -6.263 1.581 -50.22 c 0 -52.15 0.113 -51.81 -5.306 -55.796 l -2.822 -2.05 h -66.27 c -73.832 0 -70.22 -0.342 -73.38 6.377 c -1.355 2.847 -1.468 7.06 -1.242 33.933 l 0.226 30.631 h 4.516 l 0.564 -30.858 c 0.226 -16.966 0.564 -30.858 0.677 -30.972 c 0.113 -0.114 0.79 -0.797 1.581 -1.594 c 1.355 -1.366 8.58 -1.48 66.72 -1.48 c 64.01 0 65.25 0 67.06 1.822 c 1.693 1.822 1.806 3.188 1.806 49.08 c 0 45.889 -0.113 47.14 -1.806 48.964 c -1.806 1.822 -3.048 1.936 -30.14 1.936 c -15.466 0 -28.788 0.228 -29.578 0.569 c -1.355 0.455 -1.468 3.188 -1.468 20.838 c 0 11.159 0.226 20.496 0.564 20.838 c 0.903 1.025 24.837 0.797 25.401 -0.228" transform="matrix(0.0346 0 0 0.0343 1.363 2.179)" fill="#fff" stroke="#fff"/><path d="m 4.355 7.422 c 1.395 0 2.594 0 3.988 0 c 0.004 0.965 0.063 1.809 0.07 2.777 l -1.969 -0.02 h -2.105 c 0.004 -0.965 0.012 -1.793 0.016 -2.758 m 4.801 -0.016 c -0.016 -0.359 -0.09 -0.508 -0.309 -0.641 c -0.305 -0.195 -0.727 -0.102 -1.078 -0.105 l -0.926 -0.008 l 0.008 -0.945 l 0.008 -0.949 l 2.082 -0.008 l 2.086 -0.008 v 2.945 h -1.855" fill="#00bfff"/></svg>