<svg xmlns="http://www.w3.org/2000/svg" viewBox="0 0 16 16"><path d="m 0.039 8.668 c -0.922 -9.703 14.641 -12.316 15.852 -2.352 c 1.496 9.164 -12.609 13.883 -15.434 4.777 c -0.309 -0.77 -0.305 -1.609 -0.418 -2.426" fill="#696969"/><path d="m 118.86 138.23 c -0.017 5.914 -9.858 10.698 -21.996 10.722 c -12.1 -0.024 -21.94 -4.795 -21.923 -10.709 c 0.017 -5.914 9.828 -10.713 21.93 -10.689 c 12.139 -0.024 21.977 4.747 21.989 10.676" transform="matrix(0.09572 -0.03013 0.0736 0.05804 -12.289 3.636)" fill="#fff" stroke="#fff" stroke-width="1.01"/><path d="m 12.887 10.383 c -0.109 0.102 -0.242 0.191 -0.406 0.25 c -0.18 0.066 -0.395 0.109 -0.656 0.141 c -0.523 0.059 -1.219 0.059 -2.145 0.059 c -0.926 0 -1.621 0 -2.145 -0.059 c -0.262 -0.031 -0.477 -0.074 -0.656 -0.141 c -0.176 -0.063 -0.316 -0.148 -0.43 -0.262 c 0.152 -1.445 0.828 -2.68 1.805 -3.277 c -0.641 -0.082 -1.133 -0.57 -1.129 -1.148 c 0.008 -0.629 0.598 -1.125 1.324 -1.117 c 0.43 0.004 0.805 0.184 1.043 0.465 c 0.164 -0.668 0.629 -1.16 1.195 -1.176 c 0.141 -0.004 0.262 0.02 0.387 0.07 v 0.004 c 0.535 0.203 0.934 0.832 0.953 1.594 c 0.012 0.664 -0.258 1.242 -0.672 1.539 c 0.816 0.652 1.379 1.766 1.531 3.059 m -3.332 -3.832 c -0.035 0.051 -0.074 0.09 -0.117 0.137 c 0.047 -0.004 0.086 -0.008 0.133 -0.012 c 0.012 0 0.031 0 0.047 -0.004 c -0.02 -0.043 -0.047 -0.078 -0.063 -0.121" fill="#ececec"/><g fill="#2e3436"><path d="m 9.68 6.05 c -0.023 0.293 0.105 0.547 0.293 0.563 c 0.188 0.02 0.355 -0.207 0.379 -0.504 c 0.023 -0.297 -0.105 -0.547 -0.293 -0.566 c -0.184 -0.016 -0.355 0.211 -0.379 0.508"/><path d="m 8.773 6.04 c -0.023 0.199 0.023 0.398 0.121 0.512 c 0.098 0.113 0.234 0.125 0.352 0.031 c 0.113 -0.094 0.191 -0.273 0.199 -0.477 c 0.023 -0.195 -0.023 -0.391 -0.121 -0.508 c -0.098 -0.113 -0.234 -0.125 -0.348 -0.035 c -0.117 0.094 -0.195 0.277 -0.203 0.477"/></g><path d="m 10.914 7.227 c 0 0 -0.805 -0.496 -1.379 -0.434 c -0.57 0.059 -1.066 0.535 -1.066 0.535 c -0.332 0.77 0.012 1.949 0.902 1.797 c 0.871 -0.145 1.543 -1.898 1.543 -1.898" fill-opacity="0.2"/><path d="m 10.914 7.227 c 0 0 -0.805 -0.496 -1.379 -0.434 c -0.57 0.059 -1.066 0.535 -1.066 0.535 c 0 0 0.469 1.656 1.34 1.516 c 0.871 -0.145 1.105 -1.617 1.105 -1.617" fill="#ffb20a"/><path d="m 77.5 80.63 c 8.625 9.188 8.938 15.13 4.063 22.625 c -4.938 7.625 -1.563 36.13 -1.938 56.25 c 0.125 3.125 0.563 6.375 0.938 7.06 c 0.375 0.75 1.875 1.938 3.375 2.688 c 3.25 1.563 9.438 7.75 9.5 9.438 c 0.063 1.438 -1.875 4.563 -3.375 5.563 c -0.813 0.563 -1.688 0.188 -3.875 -1.563 c -4.875 -3.938 -10 -3.188 -11.625 1.688 c -1 2.938 -0.188 5.625 2.75 9.25 l 2.563 3.188 c -1.813 2.188 -3.625 4.313 -5.375 6.5 l -5.5 -5.688 c -6.25 -6.438 -7.375 -8.5 -7.5 -13.06 c -0.125 -3.438 0.688 -5.688 3.688 -10.438 c 1.813 -2.813 1.875 -3.188 1.688 -9 c -0.125 -29.12 -1.625 -31.813 -0.938 -46.25 c -0.188 -9.188 0.375 -7.938 -5.875 -12.625 c -1.5 -1.125 -6.438 -4.938 -6.563 -5.375 c 0.688 -0.125 0.688 -0.188 0.063 -0.125 c -1.75 0.063 -0.563 -4.563 2.25 -8.688 c 0.125 -0.125 1.063 0.5 2.188 1.5 c 6.313 5.5 12.938 8.563 12.875 -1.563 c 0 -3.563 -0.438 -7.188 -2.625 -9.313 c -1 -0.938 -1.813 -2.063 -1.813 -2.438 c -0.063 -1.188 3.5 -5.625 4.5 -5.625 c 0.5 -0.063 3.5 2.625 6.563 6" transform="scale(0.0625)" fill="#dcdcdc" stroke="#fff" stroke-width="0.635"/></svg>