<svg xmlns="http://www.w3.org/2000/svg" viewBox="0 0 16 16"><path d="m 12.699 14.441 c -12.03 7.984 -19.438 -17.477 -3.887 -14.11 c 6.426 1.434 10.328 10.445 3.887 14.11" fill="#eff8ff"/><path d="m 8.06 12.06 c -0.203 -0.055 -0.371 -0.156 -0.535 -0.309 c -0.219 -0.211 -0.313 -0.391 -0.34 -0.676 l -0.027 -0.238 l -1.012 -0.023 c -1.07 -0.027 -1.258 -0.055 -1.699 -0.258 c -0.52 -0.238 -0.984 -0.73 -1.191 -1.258 c -0.082 -0.215 -0.102 -0.34 -0.102 -0.719 c 0.004 -0.398 0.02 -0.496 0.117 -0.727 c 0.156 -0.359 0.309 -0.574 0.609 -0.84 c 0.281 -0.25 0.75 -0.484 1.137 -0.563 c 0.215 -0.047 0.25 -0.07 0.402 -0.273 c 0.387 -0.516 1.102 -0.98 1.762 -1.141 c 0.383 -0.094 1.113 -0.094 1.496 0 c 0.316 0.078 0.695 0.238 0.977 0.418 c 0.441 0.273 0.898 0.805 1.074 1.238 c 0.18 0.445 0.172 0.434 0.375 0.461 c 0.508 0.074 1.168 0.527 1.398 0.957 c 0.402 0.75 0.254 1.574 -0.383 2.145 c -0.477 0.426 -0.922 0.559 -1.863 0.563 h -0.555 l -0.027 0.227 c -0.059 0.445 -0.316 0.773 -0.75 0.957 c -0.23 0.098 -0.625 0.125 -0.863 0.059 m 0.777 -0.645 c 0.141 -0.117 0.234 -0.313 0.234 -0.477 v -0.121 h -1.32 v 0.109 c 0.004 0.18 0.16 0.441 0.316 0.531 c 0.207 0.117 0.602 0.094 0.77 -0.043 m -0.734 -1.895 c 0 -0.363 0.016 -0.469 0.07 -0.52 c 0.086 -0.078 0.43 -0.086 0.496 -0.012 c 0.027 0.031 0.055 0.258 0.063 0.512 l 0.012 0.457 l 1.012 0.012 c 0.625 0.008 1.086 -0.004 1.207 -0.031 c 0.809 -0.184 1.109 -1.078 0.559 -1.668 c -0.203 -0.219 -0.473 -0.309 -0.996 -0.332 l -0.461 -0.02 l -0.027 -0.281 c -0.059 -0.574 -0.254 -0.969 -0.66 -1.32 c -0.305 -0.266 -0.691 -0.438 -1.129 -0.504 c -0.898 -0.141 -1.812 0.309 -2.227 1.09 l -0.164 0.305 l -0.352 0.02 c -0.836 0.055 -1.402 0.57 -1.445 1.312 c -0.02 0.434 0.098 0.703 0.457 1.023 c 0.434 0.395 0.523 0.41 2.211 0.41 l 1.375 0.004 m 1.047 -0.281 c -0.066 -0.039 -0.078 -0.109 -0.078 -0.543 c 0 -0.551 -0.031 -0.652 -0.266 -0.832 c -0.172 -0.133 -0.516 -0.145 -0.734 -0.023 c -0.238 0.129 -0.293 0.277 -0.316 0.859 l -0.023 0.52 h -0.531 l -0.012 -0.559 c -0.016 -0.641 0.031 -0.809 0.289 -1.066 c 0.238 -0.242 0.496 -0.359 0.824 -0.383 c 0.547 -0.039 0.992 0.18 1.23 0.609 c 0.129 0.223 0.137 0.262 0.148 0.793 c 0.016 0.504 0.008 0.566 -0.063 0.613 c -0.094 0.063 -0.359 0.066 -0.469 0.012" fill="#3e4d62"/></svg>