<svg xmlns="http://www.w3.org/2000/svg" viewBox="0 0 16 16"><defs><clipPath id="0"><path d="m 8 3 h 4 v 10 h -4"/></clipPath><clipPath id="1"><path d="m 16 -0.371 h -16.367 c -0.953 0 -1.723 0.695 -1.723 1.559 v 14.805 c 0 0.859 0.77 1.559 1.723 1.559 h 16.367 c 0.953 0 1.723 -0.699 1.723 -1.559 v -14.805 c 0 -0.863 -0.77 -1.559 -1.723 -1.559"/></clipPath><clipPath id="2"><path d="m 4 3 h 4 v 10 h -4"/></clipPath></defs><path d="m 14.32 12.273 c 5.75 -8.184 -4.875 -16.477 -11.652 -9.809 c -6.383 6.281 -0.465 16.04 7.48 12.992 c 1.66 -0.637 3.113 -1.684 4.172 -3.184" fill="#92789e"/><g clip-path="url(#0)"><g clip-path="url(#1)"><path d="m 11.266 5.863 c 0 1.168 -0.43 1.945 -0.863 1.945 v 5.066 h -1.293 v -5.066 c -0.43 0 -0.859 -0.777 -0.859 -1.945 c 0 -1.172 0.43 -2.34 1.453 -2.34 c 1.133 0 1.563 1.168 1.563 2.34" fill="#fff" fill-rule="evenodd"/></g></g><g clip-path="url(#2)"><g clip-path="url(#1)"><path d="m 7.176 3.523 c 0.039 0 0.086 0.012 0.121 0.039 c 0 0 -0.004 0.008 0 0.012 c 0.031 0.055 0.066 0.109 0.094 0.168 v 3.289 c 0 0.391 -0.434 0.777 -0.863 0.777 v 5.066 h -1.293 v -5.066 c -0.43 0 -0.859 -0.387 -0.859 -0.777 c 0 0 0.02 -2.426 0 -3.313 c 0 -0.094 0.117 -0.191 0.215 -0.195 c 0.09 0.008 0.215 0.094 0.215 0.195 v 2.922 h 0.43 v -2.922 c 0 -0.094 0.117 -0.191 0.215 -0.195 c 0.102 0 0.219 0.102 0.219 0.195 v 2.922 h 0.43 v -2.922 c 0 -0.094 0.117 -0.191 0.215 -0.195 c 0.098 0 0.215 0.102 0.215 0.195 v 2.922 h 0.43 v -2.922 c 0 -0.094 0.121 -0.191 0.219 -0.195" fill="#fff" fill-rule="evenodd"/></g></g></svg>