<svg xmlns="http://www.w3.org/2000/svg" viewBox="0 0 16 16"><path d="m 3.734 14.332 c 5.953 5.277 15.11 -3.047 11.41 -10.02 c -3.746 -7.05 -16.14 -5.168 -15.08 3.484 c 0.313 2.574 1.73 4.809 3.672 6.531" fill="#dcdcdc"/><path d="m 4.176 12.367 c -0.184 -0.055 -0.41 -0.293 -0.461 -0.484 c -0.031 -0.109 -0.039 -1.445 -0.031 -4.176 l 0.012 -4.02 l 0.094 -0.148 c 0.051 -0.086 0.16 -0.195 0.242 -0.246 l 0.152 -0.098 h 7.516 l 0.152 0.098 c 0.082 0.051 0.191 0.16 0.242 0.246 l 0.094 0.148 l 0.012 2.801 c 0.008 1.93 0.027 2.801 0.055 2.801 c 0.055 0 0.637 -0.586 0.77 -0.777 c 0.055 -0.074 0.109 -0.117 0.117 -0.09 c 0.043 0.129 -0.484 0.977 -0.75 1.207 l -0.176 0.156 l -0.012 1.055 c -0.012 1.02 -0.016 1.059 -0.109 1.207 c -0.051 0.082 -0.16 0.195 -0.242 0.246 l -0.152 0.094 l -3.695 0.008 c -2.23 0.004 -3.75 -0.008 -3.828 -0.031 m 7.402 -0.383 c 0.23 -0.098 0.266 -0.234 0.266 -1.047 c 0 -0.48 -0.016 -0.703 -0.047 -0.727 c -0.043 -0.023 -0.137 0.063 -0.168 0.156 c -0.008 0.023 -0.113 0.055 -0.238 0.074 c -0.246 0.043 -0.434 0.082 -0.793 0.184 c -0.137 0.039 -0.289 0.059 -0.34 0.043 c -0.051 -0.012 -0.223 -0.031 -0.379 -0.043 c -0.156 -0.008 -0.352 -0.047 -0.434 -0.078 c -0.078 -0.035 -0.18 -0.063 -0.223 -0.063 c -0.113 0 -0.453 -0.18 -0.852 -0.453 c -0.191 -0.129 -0.395 -0.25 -0.449 -0.266 c -0.207 -0.063 -0.699 -0.359 -0.809 -0.492 c -0.227 -0.273 -0.68 -0.395 -0.91 -0.238 c -0.055 0.035 -0.273 0.234 -0.488 0.441 c -0.211 0.207 -0.457 0.418 -0.547 0.473 c -0.145 0.09 -0.176 0.094 -0.336 0.047 c -0.098 -0.023 -0.258 -0.047 -0.352 -0.047 c -0.199 0 -0.246 -0.023 -0.313 -0.152 c -0.027 -0.055 -0.066 -0.086 -0.09 -0.07 c -0.02 0.012 -0.039 0.414 -0.039 0.965 c 0 1.066 0.027 1.188 0.254 1.289 c 0.207 0.09 7.07 0.09 7.285 0.004 m 0.254 -5.352 c 0.012 -2.984 0.02 -2.91 -0.254 -3.02 c -0.117 -0.051 -0.508 -0.059 -2.383 -0.059 c -1.234 0 -2.25 0.008 -2.262 0.023 c -0.063 0.059 0.563 1.875 0.816 2.383 c 0.145 0.281 0.328 0.48 0.629 0.676 c 0.184 0.117 0.219 0.125 0.453 0.105 c 0.141 -0.008 0.348 -0.051 0.461 -0.094 c 0.195 -0.07 0.219 -0.07 0.414 -0.004 c 0.117 0.039 0.242 0.066 0.277 0.066 c 0.039 0 0.133 0.066 0.211 0.145 c 0.121 0.125 0.141 0.164 0.129 0.316 l -0.016 0.176 l -0.168 -0.012 c -0.203 -0.016 -0.711 0.203 -0.863 0.371 c -0.129 0.141 -0.082 0.227 0.203 0.395 c 0.121 0.066 0.359 0.238 0.531 0.383 c 0.414 0.34 1.555 0.879 1.77 0.836 c 0.027 -0.008 0.043 -0.941 0.051 -2.684 m -6.641 1.012 c -0.027 -0.027 -0.047 -0.082 -0.047 -0.125 c 0 -0.172 -0.113 -0.426 -0.25 -0.563 c -0.082 -0.078 -0.188 -0.23 -0.23 -0.336 c -0.047 -0.102 -0.141 -0.227 -0.211 -0.277 c -0.133 -0.098 -0.258 -0.305 -0.309 -0.512 c -0.016 -0.078 -0.039 -0.105 -0.066 -0.082 c -0.023 0.027 -0.035 0.41 -0.027 0.961 l 0.012 0.922 l 0.141 0.023 c 0.078 0.016 0.344 0.027 0.59 0.031 c 0.348 0.004 0.438 -0.004 0.398 -0.043" fill="#303030"/></svg>