<svg xmlns="http://www.w3.org/2000/svg" viewBox="0 0 16 16"><path d="m 15.188 4.492 c -3.906 -8.703 -17.02 -3.098 -14.801 5.723 c 2.098 8.313 14.227 7.313 15.438 -0.738 c 0.25 -1.68 0.082 -3.387 -0.637 -4.984" fill="#37374c"/><path d="m 8.04 4.168 c -0.84 0 -1.602 0.262 -2.164 0.703 c -0.563 0.441 -0.93 1.074 -0.93 1.773 v 0.254 c -0.559 0.285 -0.945 1.031 -0.945 1.906 c 0 1.117 0.633 2.027 1.449 2.027 v -4.188 c 0 -0.523 0.273 -1.01 0.738 -1.371 c 0.465 -0.363 1.121 -0.598 1.852 -0.598 c 0.73 0 1.387 0.234 1.852 0.598 c 0.465 0.363 0.734 0.848 0.734 1.371 v 4.188 c 0.816 0 1.453 -0.91 1.453 -2.027 c 0 -0.875 -0.387 -1.621 -0.949 -1.906 v -0.254 c 0 -0.699 -0.363 -1.332 -0.926 -1.773 c -0.566 -0.441 -1.328 -0.703 -2.164 -0.703 m -2.398 2.672 v 3.992 c 0.125 0 0.25 -0.063 0.313 -0.191 v -3.676 c -0.063 -0.063 -0.188 -0.125 -0.313 -0.125 m 4.797 0 c -0.129 0 -0.254 0.063 -0.316 0.125 v 3.676 c 0.063 0.129 0.188 0.191 0.316 0.191" fill="#fff"/></svg>