<svg xmlns="http://www.w3.org/2000/svg" viewBox="0 0 16 16"><path d="m 2.703 13.301 c -8.04 -6.469 3.73 -18.15 10.848 -10.688 c 7.129 6.418 -4 18.879 -10.848 10.688" fill="#002a3d"/><path d="m 4.578 4.699 v 1.332 h 1.332 c 2.219 0 4.01 1.789 4.01 4.01 v 1.332 h 1.332 v -1.332 c 0 -2.961 -2.379 -5.34 -5.34 -5.34 m -1.332 2.668 v 1.336 h 1.332 c 0.742 0 1.336 0.594 1.336 1.336 v 1.332 h 1.336 v -1.332 c 0 -1.48 -1.191 -2.672 -2.672 -2.672 m -0.555 2.449 c -0.434 0 -0.777 0.348 -0.777 0.777 c 0 0.434 0.344 0.777 0.777 0.777 c 0.43 0 0.777 -0.344 0.777 -0.777 c 0 -0.43 -0.348 -0.777 -0.777 -0.777" fill="#fff"/></svg>