<svg xmlns="http://www.w3.org/2000/svg" viewBox="0 0 16 16" xmlns:xlink="http://www.w3.org/1999/xlink"><defs><linearGradient id="0" gradientUnits="userSpaceOnUse" y1="4.434" x2="0" y2="19.16" gradientTransform="matrix(0.11719 0 0 0.33226 4.04 4.11)"><stop stop-color="#cf00c3"/><stop offset="1" stop-color="#4c005d"/></linearGradient><linearGradient id="1" gradientUnits="userSpaceOnUse" y1="4.173" x2="0" y2="24.341" gradientTransform="matrix(0.14156 0 0 0.27505 4.04 4.11)" xlink:href="#0"/><linearGradient id="2" gradientUnits="userSpaceOnUse" y1="2.056" x2="0" y2="32.655" gradientTransform="matrix(0.17142 0 0 0.22714 4.04 4.11)" xlink:href="#0"/></defs><path d="m 0.063 7.973 c -1.215 -10.734 16.13 -10.586 15.922 0.191 c 0.574 10.02 -16.867 10.93 -15.922 -0.191" fill="#dd9fdd"/><path d="m 10.148 8.891 c -0.086 -0.094 -0.141 -0.219 -0.141 -0.355 v -1.023 c 0 -0.137 0.055 -0.266 0.141 -0.355 c -0.086 -0.094 -0.141 -0.219 -0.141 -0.355 v -1.023 c 0 -0.289 0.238 -0.523 0.527 -0.523 h 0.902 c 0.289 0 0.523 0.234 0.523 0.523 v 1.023 c 0 0.137 -0.051 0.262 -0.141 0.355 c 0.09 0.09 0.141 0.219 0.141 0.355 v 1.023 c 0 0.137 -0.051 0.262 -0.141 0.355 c 0.09 0.094 0.141 0.219 0.141 0.355 v 1.023 c 0 0.289 -0.234 0.52 -0.523 0.52 h -0.902 c -0.289 0 -0.527 -0.23 -0.527 -0.52 v -1.023 c 0 -0.137 0.055 -0.262 0.141 -0.355" fill="url(#0)"/><g fill="#fff"><path d="m 10.492 7.359 h 1.023 c 0.039 0 0.07 0.031 0.07 0.07 v 1.223 c 0 0.039 -0.031 0.07 -0.07 0.07 h -1.023 c -0.039 0 -0.07 -0.031 -0.07 -0.07 v -1.223 c 0 -0.039 0.031 -0.07 0.07 -0.07"/><path d="m 10.492 9.05 h 1.023 c 0.039 0 0.07 0.031 0.07 0.07 v 1.223 c 0 0.043 -0.031 0.074 -0.07 0.074 h -1.023 c -0.039 0 -0.07 -0.031 -0.07 -0.074 v -1.223 c 0 -0.039 0.031 -0.07 0.07 -0.07"/></g><path d="m 8.109 4.887 h 2.898 c 0.09 0 0.164 0.074 0.164 0.164 v 5.941 c 0 0.094 -0.074 0.168 -0.164 0.168 h -2.898 c -0.09 0 -0.164 -0.074 -0.164 -0.168 v -5.941 c 0 -0.09 0.074 -0.164 0.164 -0.164" fill="url(#1)"/><path d="m 8.141 5.254 h 2.609 c 0.027 0 0.047 0.02 0.047 0.047 v 5.441 c 0 0.027 -0.02 0.047 -0.047 0.047 h -2.609 c -0.027 0 -0.047 -0.02 -0.047 -0.047 v -5.441 c 0 -0.027 0.02 -0.047 0.047 -0.047" fill="#fff"/><path d="m 8.656 10.05 v 1.922 l -4.617 -0.961 v -5.941 l 4.617 -0.961 v 1.77 h 1.316 v 0.371 h -1.316 v 0.391 h 1.316 v 0.371 h -1.316 v 0.391 h 1.316 v 0.367 h -1.316 v 0.391 h 1.316 v 0.371 h -1.316 v 0.391 h 1.316 v 0.371 h -1.316 v 0.391 h 1.316 v 0.367" fill="url(#2)"/><g fill="#fff"><path d="m 5.582 6.484 l 0.184 -0.012 l 1.164 2.102 l -0.039 1.035 l -1.125 -2.352 v 2.277 l -0.563 -0.035 v -2.992 l 0.199 -0.012 m 1.602 -0.098 l 0.602 -0.074 v 3.32 l -0.715 -0.035 l 0.035 -1.035"/><path d="m 10.492 5.625 h 1.023 c 0.039 0 0.07 0.031 0.07 0.07 v 1.223 c 0 0.039 -0.031 0.07 -0.07 0.07 h -1.023 c -0.039 0 -0.07 -0.031 -0.07 -0.07 v -1.223 c 0 -0.039 0.031 -0.07 0.07 -0.07"/></g></svg>