<svg xmlns="http://www.w3.org/2000/svg" viewBox="0 0 16 16"><path d="m 2.75 13.266 c -8.121 -6.5 3.766 -18.234 10.949 -10.738 c 7.199 6.453 -4.04 18.977 -10.949 10.738" fill="#006300"/><path d="m 6.707 12.457 c -0.559 -0.293 -0.68 -0.711 -1.051 -3.867 c -0.148 -1.254 -0.059 -1.465 0.141 -1.719 c 0.359 -0.449 0.102 -0.805 -0.449 -1.766 c -0.227 -0.395 -0.414 -0.961 -0.414 -1.258 c 0 -0.191 0.023 -0.18 0.355 0.137 c 0.195 0.188 0.617 0.703 0.934 1.137 c 0.32 0.438 0.629 0.816 0.688 0.84 c 0.059 0.023 0.203 -0.102 0.363 -0.145 c 0.371 -0.109 1.363 -0.105 1.738 0 c 0.176 0.051 0.281 0.156 0.367 0.113 c 0.082 -0.043 0.277 -0.391 0.434 -0.77 c 0.309 -0.734 0.926 -1.562 0.848 -1.137 c -0.063 0.578 -0.129 1.113 -0.398 1.641 c -0.133 0.258 -0.105 0.672 0.055 0.914 c 0.078 0.117 0.363 0.211 0.285 0.375 c -0.094 0.191 -0.273 -0.117 -0.305 -0.195 c -0.074 -0.191 -0.438 -0.184 -0.5 0.008 c -0.258 0.551 -0.363 1.316 -0.707 1.777 c -0.113 0.145 -0.219 0.434 -0.352 0.176 c -0.195 -0.391 -0.09 -0.852 0.258 -1.703 c 0.172 -0.414 0.289 -0.785 0.266 -0.828 c -0.102 -0.16 -1.215 -0.242 -1.816 -0.129 c -0.5 0.09 -0.535 -0.02 0.742 2.266 c 0.371 0.668 0.676 1.266 0.68 1.328 c 0 0.141 0.188 0.676 0.289 0.832 c 0.156 0.238 0 0.164 -0.387 -0.188 c -0.219 -0.199 -0.543 -0.574 -0.719 -0.836 c -0.418 -0.625 -0.875 -1.211 -1.273 -1.852 c -0.324 -0.527 -0.574 -0.82 -0.695 -0.82 c -0.184 0 -0.297 0.367 -0.238 0.77 c 0.031 0.215 0.156 1.191 0.273 2.164 c 0.117 0.977 0.258 1.879 0.313 2.01 c 0.176 0.434 0.605 0.609 1.602 0.652 c 0.777 0.035 0.93 0.016 1.25 -0.145 c 0.516 -0.262 0.625 -0.477 0.758 -1.492 c 0.094 -0.742 0.328 -4.199 0.531 -3.859 c 0.148 0.242 -0.277 4.062 -0.348 4.391 c -0.129 0.602 -0.371 0.934 -0.891 1.207 c -0.289 0.152 -2.324 0.129 -2.625 -0.027" fill="#fff"/></svg>