<svg xmlns="http://www.w3.org/2000/svg" viewBox="0 0 16 16"><path d="m 7.734 15.824 c -2.664 -0.508 -5.238 -2.508 -6.594 -5.125 c -1.141 -2.191 -1.316 -4.328 -0.516 -6.211 c 0.602 -1.414 1.969 -2.734 3.664 -3.543 c 1.809 -0.859 3.492 -1.055 5.23 -0.609 c 4.293 1.098 7.438 6.84 6.16 11.246 c -0.625 2.156 -2.281 3.613 -4.719 4.152 c -1.063 0.09 -2.184 0.273 -3.227 0.09" fill="#695acd"/><path d="m 12.438 9.953 c -0.352 0.754 -0.883 1.352 -1.594 1.801 c -0.707 0.453 -1.48 0.68 -2.32 0.68 c -0.582 0 -1.141 -0.113 -1.672 -0.34 c -0.531 -0.223 -0.988 -0.527 -1.375 -0.91 c -0.387 -0.383 -0.695 -0.836 -0.922 -1.363 c -0.227 -0.523 -0.344 -1.078 -0.344 -1.656 c 0 -0.566 0.109 -1.109 0.32 -1.621 c 0.219 -0.52 0.512 -0.965 0.879 -1.348 c 0.367 -0.379 0.809 -0.68 1.324 -0.91 c 0.512 -0.234 1.055 -0.363 1.629 -0.383 c 0.164 -0.008 0.277 0.063 0.34 0.215 c 0.07 0.152 0.039 0.285 -0.082 0.402 c -0.32 0.289 -0.57 0.625 -0.742 1.012 c -0.168 0.383 -0.25 0.785 -0.25 1.211 c 0 0.547 0.133 1.055 0.406 1.52 c 0.273 0.461 0.645 0.828 1.113 1.098 c 0.469 0.273 0.977 0.406 1.535 0.406 c 0.441 0 0.867 -0.094 1.277 -0.281 c 0.156 -0.07 0.289 -0.043 0.406 0.07 c 0.051 0.051 0.082 0.113 0.094 0.191 c 0.016 0.074 0.008 0.145 -0.02 0.211" fill="#fff"/></svg>