<svg xmlns="http://www.w3.org/2000/svg" viewBox="0 0 16 16"><path d="m 6.406 0.281 c -8.145 1.23 -8.391 13.492 -0.473 15.348 c 6.41 1.906 11.648 -5 9.547 -10.168 c -0.992 -3.457 -5.05 -6.254 -9.07 -5.18" fill="#546a2f"/><path d="m 5.05 3.566 h 6 c 0.523 0 0.949 0.453 0.949 1.012 v 6.652 c 0 0.559 -0.426 1.012 -0.949 1.012 h -6 c -0.523 0 -0.949 -0.453 -0.949 -1.012 v -6.652 c 0 -0.559 0.426 -1.012 0.949 -1.012" fill="#cfcfcf"/><path d="m 5.637 10.781 h 4.832 c 0.523 0 0.945 0.148 0.945 0.332 c 0 0.18 -0.422 0.328 -0.945 0.328 h -4.832 c -0.523 0 -0.945 -0.148 -0.945 -0.328 c 0 -0.184 0.422 -0.332 0.945 -0.332" fill="#84e758"/><g fill="#1f231e"><path d="m 4.543 12.223 c -0.148 -0.105 -0.32 -0.391 -0.375 -0.555 c -0.055 -0.176 -0.078 -0.277 -0.031 -0.277 c 0.02 0 0.148 0.074 0.148 0.105 c 0 0.09 0.172 0.355 0.277 0.426 c 0.086 0.059 0.555 0.066 3.57 0.066 c 3.879 0 3.586 0.027 3.75 -0.324 c 0.125 -0.27 0.117 -0.367 0.156 0.051 c -0.066 0.414 -0.098 0.414 -0.395 0.555 l -3.535 0.031 c -3.133 0.027 -3.473 -0.016 -3.566 -0.078 m 0.027 -0.813 c -0.199 -0.125 -0.43 -0.438 -0.457 -0.723 c -0.031 -0.309 -0.035 -0.715 0.016 -0.691 c 0.023 0.008 0.199 0.113 0.23 0.234 c 0.07 0.262 0.152 0.387 0.289 0.453 c 0.074 0.035 1.082 0.047 3.543 0.039 l 3.438 -0.012 c 0.094 -0.117 0.203 -0.246 0.23 -0.391 c 0.09 -0.535 0.172 -0.457 0.172 0.16 c 0.023 0.301 0.008 0.434 -0.129 0.652 c -0.238 0.383 0.063 0.355 -3.793 0.355 c -3.094 -0.004 -3.438 -0.012 -3.539 -0.078 m 0.668 -0.047 c 0.023 -0.012 0.121 -0.094 0.145 -0.152 c 0.105 -0.258 -0.27 -0.453 -0.391 -0.207 c -0.109 0.219 0.094 0.426 0.246 0.359 m 0.84 -0.07 c 0.082 -0.109 0.066 -0.215 -0.012 -0.324 c -0.109 -0.164 -0.367 -0.051 -0.367 0.164 c 0 0.121 0.098 0.262 0.18 0.262 c 0.035 0 0.16 -0.051 0.199 -0.102 m 0.73 0.016 c 0.121 -0.145 -0.023 -0.414 -0.184 -0.414 c -0.094 0 -0.199 0.125 -0.199 0.234 c 0 0.105 0.039 0.266 0.195 0.266 c 0.031 0 0.152 -0.043 0.188 -0.086 m 0.637 0.055 c 0.027 -0.012 0.113 -0.117 0.137 -0.176 c 0.102 -0.254 -0.262 -0.43 -0.383 -0.184 c -0.105 0.219 0.008 0.457 0.246 0.359 m 0.863 -0.082 c 0.082 -0.109 0 -0.191 -0.078 -0.305 c -0.109 -0.16 -0.32 -0.059 -0.32 0.156 c 0 0.121 0.094 0.262 0.176 0.262 c 0.035 0 0.184 -0.063 0.223 -0.113 m 0.684 0.027 c 0.125 -0.145 0.004 -0.414 -0.16 -0.414 c -0.094 0 -0.199 0.125 -0.199 0.234 c 0 0.105 0.117 0.266 0.195 0.266 c 0.031 0 0.133 -0.043 0.164 -0.086 m 0.664 0.055 c 0.02 -0.02 0.055 -0.082 0.078 -0.141 c 0.102 -0.258 -0.203 -0.465 -0.324 -0.219 c -0.109 0.219 0.082 0.5 0.246 0.359 m 0.77 -0.059 c 0.086 -0.109 0.09 -0.215 0.016 -0.328 c -0.113 -0.16 -0.391 -0.059 -0.391 0.156 c 0 0.121 0.16 0.262 0.242 0.262 c 0.035 0 0.098 -0.039 0.133 -0.09 m 0.801 -0.027 c 0.121 -0.148 -0.023 -0.383 -0.188 -0.383 c -0.09 0 -0.199 0.125 -0.199 0.234 c 0 0.105 0.121 0.266 0.199 0.266 c 0.031 0 0.152 -0.078 0.188 -0.117 m -3.285 -2.473 c -0.102 -0.207 -0.246 -0.426 -0.281 -0.457 c -0.094 -0.09 -0.043 -0.145 0.145 -0.145 c 0.438 0 -0.105 -0.063 0.629 -0.012 c 0.215 0.016 0.324 0.043 0.223 0.168 c -0.039 0.043 -0.238 0.242 -0.336 0.441 c -0.234 0.523 -0.207 0.363 -0.383 0.004"/><path d="m 8.04 9.957 c -0.477 -0.645 -0.473 -0.641 -0.297 -0.77 c 0.133 -0.098 0.172 -0.328 0.219 -1.262 c 0.035 -0.672 0.023 -1.141 -0.027 -1.141 c -0.047 0 -0.246 0.105 -0.438 0.238 c -0.441 0.301 -0.539 0.617 -0.27 0.887 c 0.109 0.105 0.199 0.316 0.199 0.469 c 0 0.242 -0.039 0.277 -0.355 0.313 c -0.574 0.07 -0.684 0.004 -0.684 -0.398 c 0 -0.215 0.051 -0.375 0.129 -0.406 c 0.07 -0.027 0.16 -0.199 0.191 -0.383 c 0.051 -0.262 0.191 -0.43 0.672 -0.809 l 0.613 -0.48 v -0.559 c 0 -0.473 -0.039 -0.598 -0.238 -0.797 c -0.129 -0.129 -0.234 -0.277 -0.234 -0.328 c 0 -0.184 0.305 -0.387 0.578 -0.387 c 0.637 0 0.848 0.395 0.41 0.77 c -0.383 0.336 -0.305 0.547 0.426 1.145 c 0.566 0.461 0.66 0.582 0.66 0.84 c 0 0.168 0.082 0.387 0.188 0.496 c 0.172 0.184 0.176 0.219 0.043 0.41 c -0.16 0.227 -0.59 0.281 -0.777 0.094 c -0.156 -0.156 -0.141 -0.406 0.027 -0.547 c 0.078 -0.066 0.145 -0.258 0.145 -0.426 c 0 -0.246 -0.07 -0.352 -0.359 -0.555 c -0.199 -0.137 -0.391 -0.246 -0.426 -0.246 c -0.035 0 -0.066 0.68 -0.066 1.508 c 0 1.449 0.008 1.512 0.188 1.512 c 0.105 0 0.191 0.035 0.191 0.078 c 0 0.074 -0.539 0.863 -0.59 0.863 c -0.016 0 -0.066 -0.059 -0.117 -0.129"/></g></svg>