<svg xmlns="http://www.w3.org/2000/svg" viewBox="0 0 16 16"><path d="m 0.184 9.813 c 0.992 6.473 9.805 8.203 13.695 3.586 c 3.426 -3.434 2.574 -10 -1.629 -12.254 c -4.824 -3.01 -11.855 0.711 -12.238 6.711 c -0.039 0.656 0.016 1.32 0.172 1.957" fill="#1f2e59"/><path d="m 7.328 3.527 v 1.953 h 1.953 v -1.953 m 0 1.953 v 1.953 h 1.953 v -1.953 m 0 1.953 v 1.957 h 1.957 v -1.957 m -1.957 1.957 h -1.953 v 1.953 h 1.953 m -1.953 0 h -1.953 v 1.953 h 1.953 m -1.953 -1.953 v -1.953 h -1.953 v 1.953 m 0 -1.953 v -1.957 h -1.957 v 1.957 m 1.957 -1.957 h 1.953 v -1.953 h -1.953" fill-opacity="0.102"/><path d="m 7 3.203 h 1.953 v 1.953 h -1.953" fill="#ff004c"/><path d="m 5.05 5.156 h 1.957 v 1.953 h -1.957" fill="#ffa300"/><path d="m 3.094 7.109 h 1.953 v 1.953 h -1.953" fill="#ffff27"/><path d="m 5.05 9.06 h 1.957 v 1.957 h -1.957" fill="#00e655"/><path d="m 7 11.02 h 1.953 v 1.953 h -1.953" fill="#28acff"/><path d="m 8.957 9.06 h 1.953 v 1.957 h -1.953" fill="#82769c"/><path d="m 10.91 7.109 h 1.953 v 1.953 h -1.953" fill="#ff77a8"/><path d="m 8.957 5.156 h 1.953 v 1.953 h -1.953" fill="#fca"/></svg>