<svg xmlns="http://www.w3.org/2000/svg" viewBox="0 0 16 16"><path d="m 7.363 15.891 c 9.504 0.906 12.06 -14.418 2.301 -15.609 c -8.973 -1.477 -13.594 12.418 -4.676 15.195 c 0.754 0.305 1.578 0.297 2.375 0.41" fill="#66cdaa"/><path d="m 7.813 3.145 c -0.605 0 -1.094 0.469 -1.094 1.051 v 0.492 c -0.473 0.16 -0.91 0.406 -1.289 0.719 l -0.445 -0.246 c -0.523 -0.293 -1.191 -0.121 -1.492 0.383 l -0.273 0.457 c -0.305 0.504 -0.125 1.141 0.398 1.434 l 0.441 0.246 c -0.043 0.234 -0.07 0.477 -0.07 0.719 c 0 0.238 0.027 0.48 0.07 0.719 l -0.441 0.242 c -0.523 0.293 -0.703 0.934 -0.398 1.438 l 0.273 0.453 c 0.301 0.504 0.969 0.676 1.492 0.383 l 0.441 -0.242 c 0.383 0.313 0.82 0.555 1.293 0.715 v 0.492 c 0 0.582 0.488 1.051 1.094 1.051 h 0.547 c 0.605 0 1.094 -0.469 1.094 -1.051 v -0.496 c 0.473 -0.16 0.91 -0.402 1.289 -0.715 l 0.445 0.246 c 0.523 0.293 1.191 0.121 1.492 -0.383 l 0.273 -0.453 c 0.305 -0.504 0.125 -1.145 -0.398 -1.438 l -0.441 -0.242 c 0.043 -0.238 0.07 -0.48 0.07 -0.719 c 0 -0.242 -0.027 -0.484 -0.07 -0.719 l 0.441 -0.246 c 0.523 -0.293 0.703 -0.93 0.398 -1.434 l -0.273 -0.457 c -0.301 -0.504 -0.969 -0.676 -1.492 -0.383 l -0.441 0.242 c -0.383 -0.313 -0.82 -0.555 -1.293 -0.715 v -0.492 c 0 -0.582 -0.488 -1.051 -1.094 -1.051" fill-opacity="0.2"/><path d="m 7.813 2.883 c -0.605 0 -1.094 0.469 -1.094 1.051 v 0.492 c -0.473 0.16 -0.91 0.402 -1.289 0.719 l -0.445 -0.246 c -0.523 -0.293 -1.191 -0.121 -1.492 0.383 l -0.273 0.453 c -0.305 0.504 -0.125 1.145 0.398 1.438 l 0.441 0.242 c -0.043 0.238 -0.07 0.48 -0.07 0.719 c 0 0.242 0.027 0.484 0.07 0.719 l -0.441 0.246 c -0.523 0.293 -0.703 0.93 -0.398 1.434 l 0.273 0.457 c 0.301 0.504 0.969 0.676 1.492 0.383 l 0.441 -0.242 c 0.383 0.313 0.82 0.555 1.293 0.715 v 0.492 c 0 0.582 0.488 1.051 1.094 1.051 h 0.547 c 0.605 0 1.094 -0.469 1.094 -1.051 v -0.496 c 0.473 -0.16 0.91 -0.402 1.289 -0.715 l 0.445 0.246 c 0.523 0.293 1.191 0.121 1.492 -0.383 l 0.273 -0.457 c 0.305 -0.504 0.125 -1.141 -0.398 -1.434 l -0.441 -0.246 c 0.043 -0.234 0.07 -0.477 0.07 -0.719 c 0 -0.238 -0.027 -0.48 -0.07 -0.719 l 0.441 -0.242 c 0.523 -0.293 0.703 -0.934 0.398 -1.438 l -0.273 -0.453 c -0.301 -0.504 -0.969 -0.676 -1.492 -0.383 l -0.441 0.242 c -0.383 -0.313 -0.82 -0.555 -1.293 -0.715 v -0.492 c 0 -0.582 -0.488 -1.051 -1.094 -1.051" fill="#e4e4e4"/><path d="m 7.813 2.883 c -0.605 0 -1.094 0.469 -1.094 1.051 v 0.262 c 0 -0.582 0.488 -1.051 1.094 -1.051 h 0.547 c 0.605 0 1.094 0.469 1.094 1.051 v -0.262 c 0 -0.582 -0.488 -1.051 -1.094 -1.051 m -1.641 1.543 c -0.473 0.16 -0.91 0.402 -1.289 0.719 l -0.445 -0.246 c -0.523 -0.293 -1.191 -0.121 -1.492 0.383 l -0.273 0.453 c -0.121 0.207 -0.164 0.434 -0.137 0.648 c 0.02 -0.133 0.063 -0.262 0.137 -0.383 l 0.273 -0.457 c 0.301 -0.504 0.969 -0.676 1.492 -0.383 l 0.445 0.246 c 0.379 -0.313 0.816 -0.559 1.289 -0.719 m 2.734 -0.262 v 0.262 c 0.473 0.16 0.91 0.402 1.293 0.719 l 0.441 -0.246 c 0.523 -0.293 1.191 -0.121 1.492 0.383 l 0.273 0.457 c 0.074 0.121 0.117 0.25 0.137 0.383 c 0.027 -0.215 -0.016 -0.441 -0.137 -0.648 l -0.273 -0.453 c -0.301 -0.504 -0.969 -0.676 -1.492 -0.383 l -0.441 0.242 c -0.383 -0.313 -0.82 -0.555 -1.293 -0.715 m 2.695 3.234 l -0.035 0.02 c 0.035 0.195 0.059 0.395 0.063 0.598 c 0.004 -0.047 0.004 -0.094 0.008 -0.145 c -0.004 -0.156 -0.016 -0.316 -0.035 -0.473 m -8.125 0 c -0.02 0.156 -0.031 0.316 -0.035 0.477 c 0 0.039 0.004 0.078 0.008 0.117 c 0.008 -0.191 0.027 -0.383 0.063 -0.574 m 8.09 1.191 c -0.008 0.082 -0.02 0.164 -0.035 0.246 l 0.445 0.242 c 0.309 0.176 0.496 0.473 0.535 0.789 c 0.059 -0.41 -0.141 -0.828 -0.535 -1.051 m -8.531 -0.223 l -0.406 0.223 c -0.395 0.223 -0.594 0.641 -0.535 1.051 c 0.039 -0.316 0.227 -0.613 0.535 -0.789 l 0.441 -0.242 c -0.012 -0.082 -0.027 -0.164 -0.035 -0.242" fill="#fff" fill-opacity="0.2"/><path d="m 8.09 6.04 c -1.359 0 -2.457 1.059 -2.457 2.363 v 2.879 c 0.332 0.238 0.699 0.43 1.09 0.566 v -1.484 c 0.406 0.262 0.879 0.398 1.367 0.402 c 1.359 0 2.457 -1.059 2.457 -2.363 c 0 -1.305 -1.098 -2.363 -2.457 -2.363 m 0 1.051 c 0.754 0 1.367 0.586 1.367 1.313 c 0 0.723 -0.613 1.313 -1.367 1.313 c -0.754 0 -1.367 -0.59 -1.367 -1.313 c 0 -0.727 0.613 -1.313 1.367 -1.313" fill-opacity="0.102"/><path d="m 8.09 5.77 c -1.359 0 -2.457 1.059 -2.457 2.363 v 3.145 c 0.332 0.238 0.699 0.43 1.09 0.566 v -1.746 c 0.406 0.262 0.879 0.398 1.367 0.398 c 1.359 0 2.457 -1.055 2.457 -2.363 c 0 -1.305 -1.098 -2.363 -2.457 -2.363 m 0 1.051 c 0.754 0 1.367 0.59 1.367 1.312 c 0 0.727 -0.613 1.316 -1.367 1.316 c -0.754 0 -1.367 -0.59 -1.367 -1.316 c 0 -0.723 0.613 -1.312 1.367 -1.312" fill="#2eb1b3"/></svg>