<svg xmlns="http://www.w3.org/2000/svg" viewBox="0 0 16 16"><path d="m 0.18 7.395 c -0.91 9.504 14.418 12.06 15.605 2.305 c 1.477 -8.977 -12.418 -13.598 -15.195 -4.68 c -0.305 0.754 -0.297 1.578 -0.41 2.375" fill="#db7093"/><path d="m 44.765 26 c 0 -10.323 -9.295 -18.686 -20.771 -18.686 c -11.459 0 -20.771 8.364 -20.771 18.686 c 0 10.306 9.312 18.686 20.771 18.686 c 11.476 0 20.771 -8.381 20.771 -18.686" transform="matrix(0.22737 0 0 0.22932 2.509 2.173)" fill="#fcdde5" stroke="#fac" stroke-width="2.462"/><g fill="#fac"><path d="m 8.84 7.141 c 0 0 2.344 0.762 1.816 2.789 c -0.273 1.039 -1.172 1.047 -1.578 0.625 c -0.34 -0.352 -0.34 -0.961 0.113 -1.258 c 1.309 -0.867 -0.352 -2.156 -0.352 -2.156"/><path d="m 7.094 7.141 c 0 0 -2.348 0.762 -1.816 2.789 c 0.27 1.039 1.168 1.047 1.578 0.625 c 0.336 -0.352 0.336 -0.961 -0.113 -1.258 c -1.313 -0.867 0.352 -2.156 0.352 -2.156"/></g></svg>