<svg xmlns="http://www.w3.org/2000/svg" viewBox="0 0 16 16"><path d="m 2.898 14.258 c 9.594 7.414 19.559 -11.05 7.676 -13.75 c -7.48 -2.77 -14.789 8.254 -7.676 13.75" fill="#d7bfd7"/><g fill="#fff"><path d="m 6.18 10.871 c 0.797 0.66 2.102 0.934 3.195 0.668 c 0.738 -0.176 1.223 -0.441 1.785 -0.969 c 1.539 -1.438 1.535 -3.652 -0.004 -5.098 c -0.73 -0.684 -1.598 -1.01 -2.676 -1.01 c -0.93 0 -1.754 0.27 -2.332 0.766 l -0.234 0.199 v 5.227"/><path d="m 7.434 11.379 c -1.207 0 -2.336 -1 -2.684 -2.395 c -0.074 -0.289 -0.094 -0.57 -0.078 -1.121 c 0.02 -0.695 0.031 -0.766 0.234 -1.234 c 0.477 -1.098 1.297 -1.789 2.305 -1.934 c 0.172 -0.023 0.367 -0.023 0.434 0 c 0.121 0.043 0.121 0.047 0.121 3.363 v 3.32"/></g></svg>