<svg xmlns="http://www.w3.org/2000/svg" viewBox="0 0 16 16"><path d="m 8.03 15.941 c 10.555 1.199 10.406 -15.996 -0.187 -15.793 c -9.855 -0.566 -10.746 16.73 0.187 15.793" fill="#86cefa"/><path d="m 4.402 12.11 c 0 0.41 0.883 0.41 0.883 0.41 h 3.961 c 0 0 0.438 0 0.438 -0.41 c 0 -0.414 -0.438 -0.414 -0.438 -0.414 c 0 0 -1.762 0 -1.762 -1.234 c 0 -1.648 2.199 -1.648 2.199 -1.648 c 0 0 0.883 0 0.883 -1.648 c 0 -2.059 -0.883 -2.469 -0.883 -2.469 c 0 0 -1.098 -0.414 -4.398 -0.414 c -0.441 0 -0.883 0 -0.883 0.414 c 0 0.41 0.441 0.41 0.883 0.41 c 0.438 0 0.438 0.824 0.438 0.824 v 5.05 c 0 0.719 -0.438 0.719 -0.438 0.719 c 0 0 -0.883 0 -0.883 0.414" fill-opacity="0.2"/><path d="m 4.402 11.906 c 0 0.414 0.883 0.414 0.883 0.414 h 3.961 c 0 0 0.438 0 0.438 -0.414 c 0 -0.41 -0.438 -0.41 -0.438 -0.41 c 0 0 -1.762 0 -1.762 -1.238 c 0 -1.645 2.199 -1.645 2.199 -1.645 c 0 0 0.883 0 0.883 -1.648 c 0 -2.063 -0.883 -2.473 -0.883 -2.473 c 0 0 -1.098 -0.414 -4.398 -0.414 c -0.441 0 -0.883 0 -0.883 0.414 c 0 0.41 0.441 0.41 0.883 0.41 c 0.438 0 0.438 0.824 0.438 0.824 v 5.05 c 0 0.723 -0.438 0.723 -0.438 0.723 c 0 0 -0.883 0 -0.883 0.41" fill="#ec3f3f"/><path d="m 7.04 8.406 c 0 0 2.641 0 2.641 -1.441 c 0 -1.441 -2.641 -1.441 -2.641 -1.441 c 0 0 0.441 0.824 0.441 1.441 c 0 0.617 -0.441 1.441 -0.441 1.441" fill-opacity="0.102"/><path d="m 7.04 8.199 c 0 0 2.641 0 2.641 -1.441 c 0 -1.441 -2.641 -1.441 -2.641 -1.441 c 0 0 0.441 0.824 0.441 1.441 c 0 0.617 -0.441 1.441 -0.441 1.441" fill="#4e4e4e"/><g fill-opacity="0.2"><path d="m 5.285 4.078 c -0.441 0 -0.883 0 -0.883 0.414 c 0 0.039 0.008 0.07 0.016 0.102 c 0.07 -0.305 0.465 -0.309 0.867 -0.309 c 3.301 0 4.398 0.414 4.398 0.414 c 0 0 0.84 0.402 0.875 2.355 c 0 -0.035 0.008 -0.059 0.008 -0.09 c 0 -2.063 -0.883 -2.473 -0.883 -2.473 c 0 0 -1.098 -0.414 -4.398 -0.414 m 2.207 6.281 c 0 0.035 -0.008 0.066 -0.008 0.105 c 0 1.234 1.762 1.234 1.762 1.234 c 0 0 0.355 0.004 0.426 0.313 c 0.004 -0.035 0.012 -0.066 0.012 -0.105 c 0 -0.41 -0.438 -0.41 -0.438 -0.41 c 0 0 -1.656 -0.004 -1.754 -1.137 m -1.77 0.414 c 0 0.723 -0.438 0.723 -0.438 0.723 c 0 0 -0.883 0 -0.883 0.41 c 0 0.039 0.016 0.074 0.027 0.105 c 0.137 -0.305 0.855 -0.309 0.855 -0.309 c 0 0 0.438 0 0.438 -0.723" fill="#fff"/><path d="m 12.547 10.672 c 0 1.25 -1.086 2.266 -2.422 2.266 c -1.336 0 -2.422 -1.016 -2.422 -2.266 c 0 -1.254 1.086 -2.266 2.422 -2.266 c 1.336 0 2.422 1.012 2.422 2.266"/></g><path d="m 12.547 10.465 c 0 1.25 -1.086 2.266 -2.422 2.266 c -1.336 0 -2.422 -1.016 -2.422 -2.266 c 0 -1.25 1.086 -2.266 2.422 -2.266 c 1.336 0 2.422 1.016 2.422 2.266" fill="#42a1cd"/><path d="m 10.125 9.434 c 0 0 -0.156 0 -0.316 0.074 c -0.164 0.078 -0.344 0.27 -0.344 0.547 h 0.441 c 0 -0.207 0.219 -0.207 0.219 -0.207 c 0 0 0.219 0 0.219 0.207 c 0 0.105 -0.027 0.168 -0.086 0.238 c -0.063 0.066 -0.156 0.137 -0.266 0.215 c -0.109 0.074 -0.234 0.16 -0.34 0.285 c -0.109 0.125 -0.188 0.297 -0.188 0.496 v 0.207 h 1.32 v -0.414 h -0.801 c 0.004 -0.008 0.004 -0.023 0.012 -0.031 c 0.059 -0.07 0.152 -0.137 0.262 -0.215 c 0.109 -0.078 0.234 -0.164 0.344 -0.289 c 0.105 -0.121 0.184 -0.293 0.184 -0.492 c 0 -0.277 -0.18 -0.469 -0.34 -0.547 c -0.164 -0.074 -0.32 -0.074 -0.32 -0.074" fill="#fff" fill-rule="evenodd"/></svg>