<svg xmlns="http://www.w3.org/2000/svg" viewBox="0 0 16 16"><path d="m 13.246 13.164 c -6.504 7.957 -18.246 -3.691 -10.746 -10.73 c 6.453 -7.05 18.98 3.957 10.746 10.73" fill="#a1a1a1"/><g fill="#363636"><path d="m 3.871 10.238 c -0.035 -0.129 -0.027 -0.727 0.012 -0.824 c 0.016 -0.051 0.07 -0.109 0.117 -0.125 c 0.105 -0.043 0.203 -0.16 0.535 -0.656 c 0.188 -0.281 0.273 -0.445 0.273 -0.516 c 0 -0.18 -0.652 -1.152 -0.797 -1.188 c -0.141 -0.035 -0.18 -0.188 -0.156 -0.617 c 0.012 -0.258 0.035 -0.387 0.066 -0.406 c 0.027 -0.02 0.348 -0.027 0.711 -0.023 c 0.543 0.008 0.668 0.02 0.695 0.063 c 0.016 0.031 0.031 0.207 0.031 0.395 c 0.004 0.289 -0.008 0.355 -0.07 0.434 c -0.094 0.125 -0.09 0.16 0.074 0.414 c 0.16 0.25 0.168 0.25 0.355 -0.012 c 0.105 -0.145 0.133 -0.332 0.063 -0.402 c -0.043 -0.043 -0.055 -0.816 -0.016 -0.855 c 0.012 -0.016 0.258 -0.031 0.543 -0.035 c 0.652 -0.016 0.648 -0.016 0.668 0.383 c 0.008 0.156 0.004 0.359 -0.012 0.445 c -0.02 0.148 -0.027 0.156 -0.195 0.211 c -0.141 0.051 -0.191 0.09 -0.293 0.242 c -0.465 0.711 -0.469 0.727 -0.328 1.012 c 0.176 0.348 0.652 1.035 0.758 1.09 c 0.055 0.031 0.113 0.078 0.125 0.109 c 0.012 0.035 0.02 0.238 0.02 0.461 c 0 0.297 -0.012 0.41 -0.047 0.441 c -0.035 0.027 -0.262 0.039 -0.75 0.031 l -0.699 -0.008 l -0.008 -0.375 c -0.012 -0.324 -0.004 -0.383 0.059 -0.469 c 0.098 -0.129 0.094 -0.188 -0.043 -0.434 c -0.137 -0.25 -0.207 -0.305 -0.289 -0.234 c -0.063 0.055 -0.301 0.445 -0.301 0.5 c 0 0.02 0.035 0.082 0.078 0.141 c 0.066 0.09 0.078 0.152 0.078 0.457 c 0.004 0.195 -0.008 0.367 -0.027 0.383 c -0.016 0.016 -0.293 0.035 -0.617 0.039 l -0.594 0.012"/><path d="m 7.852 10.293 c -0.012 -0.012 -0.023 -0.215 -0.023 -0.453 c 0 -0.395 0.008 -0.441 0.09 -0.57 c 0.125 -0.211 0.117 -0.52 -0.023 -0.969 c -0.172 -0.539 -0.445 -1.227 -0.543 -1.359 c -0.082 -0.113 -0.086 -0.148 -0.086 -0.551 c 0 -0.289 0.012 -0.445 0.039 -0.473 c 0.047 -0.047 0.855 -0.063 1.01 -0.02 c 0.082 0.02 0.082 0.02 0.078 0.703 c -0.008 0.672 0.02 0.895 0.117 1.031 c 0.082 0.109 0.152 0.039 0.223 -0.227 c 0.055 -0.199 0.063 -0.313 0.043 -0.563 c -0.012 -0.172 -0.023 -0.434 -0.027 -0.586 c -0.004 -0.363 0.02 -0.383 0.414 -0.383 c 0.168 0 0.328 0.016 0.359 0.035 c 0.043 0.027 0.051 0.121 0.051 0.473 c 0 0.414 -0.004 0.445 -0.09 0.582 c -0.098 0.145 -0.262 0.559 -0.48 1.219 c -0.105 0.313 -0.129 0.426 -0.129 0.684 c 0 0.277 0.008 0.324 0.086 0.426 c 0.082 0.109 0.086 0.148 0.086 0.535 c 0 0.336 -0.012 0.426 -0.051 0.453 c -0.063 0.039 -1.105 0.051 -1.141 0.012"/><path d="m 9.844 10.289 c -0.039 -0.027 -0.047 -0.148 -0.035 -0.543 l 0.012 -0.512 l 0.516 -1.102 c 0.285 -0.605 0.523 -1.145 0.527 -1.191 c 0.012 -0.086 0.004 -0.09 -0.219 -0.098 c -0.281 -0.016 -0.309 0.008 -0.336 0.305 l -0.023 0.219 h -0.449 v -0.711 c 0 -0.664 0.004 -0.711 0.066 -0.746 c 0.043 -0.02 0.445 -0.035 1.059 -0.035 c 1.176 0 1.074 -0.055 1.055 0.566 c -0.02 0.465 0.078 0.207 -0.75 1.988 c -0.434 0.934 -0.43 0.93 -0.063 0.926 c 0.129 0 0.254 -0.012 0.273 -0.023 c 0.023 -0.016 0.051 -0.129 0.059 -0.254 c 0.012 -0.125 0.039 -0.246 0.063 -0.266 c 0.051 -0.055 0.344 -0.047 0.398 0.008 c 0.059 0.059 0.051 1.379 -0.008 1.438 c -0.051 0.051 -2.074 0.078 -2.145 0.031"/></g></svg>