<svg xmlns="http://www.w3.org/2000/svg" viewBox="0 0 16 16"><path d="m 5.02 0.754 c 19.453 -6.01 9.727 26.29 -3.602 11.184 c -2.672 -3.03 -1.641 -9.563 3.602 -11.184" fill="#4069e0"/><path d="m 4.598 3.938 c -0.293 0 -0.531 0.223 -0.531 0.504 v 2.512 c 0 0.277 0.238 0.5 0.531 0.5 h 2.656 c 0.297 0 0.531 -0.223 0.531 -0.5 v -2.512 c 0 -0.281 -0.234 -0.504 -0.531 -0.504 m -2.125 1.508 h 1.594 v 1 h -1.594 m 3.723 -2.512 c -0.297 0 -0.535 0.223 -0.535 0.504 v 2.512 c 0 0.277 0.238 0.5 0.535 0.5 h 2.656 c 0.293 0 0.531 -0.223 0.531 -0.5 v -2.512 c 0 -0.281 -0.238 -0.504 -0.531 -0.504 m -2.125 1.508 h 1.594 v 1 h -1.594 m -4.785 1.508 c -0.293 0 -0.531 0.223 -0.531 0.5 v 2.512 c 0 0.281 0.238 0.504 0.531 0.504 h 2.656 c 0.297 0 0.531 -0.223 0.531 -0.504 v -2.512 c 0 -0.277 -0.234 -0.5 -0.531 -0.5 m -2.125 1.508 h 1.594 v 1 h -1.594 m 3.723 -2.512 c -0.297 0 -0.535 0.223 -0.535 0.5 v 2.512 c 0 0.281 0.238 0.504 0.535 0.504 h 2.656 c 0.293 0 0.531 -0.223 0.531 -0.504 v -2.512 c 0 -0.277 -0.238 -0.5 -0.531 -0.5 m -2.125 1.508 h 1.594 v 1 h -1.594" fill="#fff"/></svg>