<svg xmlns="http://www.w3.org/2000/svg" viewBox="0 0 16 16"><path d="m 12.652 2.438 c 13.566 16.508 -20.547 18.852 -10.684 2 c 2.246 -3.84 7.09 -6.371 10.684 -2" fill="#3d78c5"/><path d="m 4.609 9.957 c 0 -0.004 -0.117 -0.047 -0.266 -0.09 c -0.602 -0.18 -0.793 -0.766 -0.395 -1.203 c 0.207 -0.227 0.266 -0.246 0.82 -0.32 l 0.598 -0.082 l 0.523 -1.254 c 0.68 -1.617 1.215 -2.84 1.34 -3.03 c 0.242 -0.203 1.113 -0.254 1.414 -0.059 c 0.168 0.121 0.898 1.609 1.547 3.16 l 0.496 1.188 l 0.504 0.035 c 0.551 0.035 0.727 0.105 0.938 0.379 c 0.301 0.383 0.09 0.953 -0.434 1.176 l -0.301 0.133 l 0.266 0.762 c 0.145 0.418 0.246 0.785 0.23 0.816 c -0.039 0.063 -0.828 0.07 -1.258 0.012 c -0.336 -0.047 -0.301 0.016 -0.734 -1.18 l -0.188 -0.508 l -1.379 -0.02 c -0.762 -0.012 -1.703 -0.027 -1.859 -0.004 c -0.313 0.047 -0.066 -0.023 -0.578 1.363 l -0.141 0.391 c -0.516 0 -1.035 0 -1.551 0 c 0.117 -0.645 0.258 -0.961 0.406 -1.664 m 4.375 -1.727 c 0.09 -0.148 -0.82 -2.508 -0.973 -2.508 c -0.129 0 -0.199 0.152 -0.836 1.797 c -0.145 0.371 -0.262 0.699 -0.262 0.727 c 0.406 0.02 1.801 0.156 2.07 -0.016" fill="#fff"/><path d="m 4.816 8.832 h 6.348 c 0.281 0 0.504 0.137 0.504 0.305 c 0 0.172 -0.223 0.309 -0.504 0.309 h -6.348 c -0.281 0 -0.504 -0.137 -0.504 -0.309 c 0 -0.168 0.223 -0.305 0.504 -0.305" fill="#3d78c5"/></svg>