<svg xmlns="http://www.w3.org/2000/svg" viewBox="0 0 16 16"><path d="m 15.488 10.258 c 2.957 -8.25 -7.668 -12.262 -11.66 -8.902 c -3.988 3.359 -5.352 9.117 -0.832 12.01 c 4.52 2.898 9.535 5.145 12.492 -3.109" fill="#7cbbc6"/><g transform="scale(0.0625)"><path d="m 179 189.31 c 0.813 -7.875 -6.06 -5.625 3.625 -11.438 l 19.25 -19.25 c 7.563 -7.563 7.125 -18 7.125 -27.5 c 0.063 -17 -6.625 -27.563 -20.375 -32.31 c -6.188 -2.063 -16.188 -2.313 -19 -0.375 c -1.75 1.188 -2 1.188 -3.063 -0.313 c -0.688 -0.938 -1.313 -3.313 -1.5 -5.25 c -0.313 -3.625 -0.313 -3.625 4.688 -4.813 c 7.75 -1.813 19.688 -1 25.938 1.813 c 9.625 4.25 17.875 15.313 20.75 27.688 c 1.813 8 2.313 27.19 -0.563 36.19 c -4.125 13.06 -36.875 41.06 -36.875 35.563" stroke-opacity="0.957" fill="#138d59" stroke="#138d59" fill-opacity="0.957" stroke-width="1.93"/><g stroke-opacity="0.788" fill="#255993" stroke="#1e5186" fill-opacity="0.753"><path d="m 48.5 157.94 c -7.125 -3.5 -12.813 -16.12 -13.875 -30.75 c -0.313 -4.75 -1.375 -10.625 0.25 -18.75 c 4.875 -23.938 14 -37.12 27.938 -50.44 c 8.813 -8.438 13.75 -10.813 22.625 -10.938 c 5.5 -0.125 7.375 0.188 10.06 1.625 c 5.813 3.188 11.563 10.375 14.688 18.438 c 1.563 4 4.313 7.375 5.938 7.375 c 1.938 0 2 1.5 0.188 4.688 c -3.188 5.625 -3.813 6 -9.06 6 h -4.875 l 0.625 -3.875 c 1.063 -6.25 0.625 -9.125 -1.875 -12.438 c -5.125 -6.688 -11.938 -10.813 -17.875 -10.813 c -14 0 -30.75 17.438 -38.31 39.875 c -2.438 11.813 -4.125 34.438 1.063 42.563 c 6.375 9.688 16.438 9.813 25.06 0.438 c 5.063 -5.563 7.563 -9.75 9.688 -16.375 c 1.813 -5.813 4.563 -8 5.375 -5.75 c 4.875 2.563 10.5 1.125 2.5 9.625 c -0.375 0.438 -1.125 2.125 -1.625 3.75 c -4.563 12.688 -16.813 23.06 -23.25 26 c -4 1.438 -12.06 1.313 -15.25 -0.25" stroke-width="1.644"/><path d="m 58.813 123.94 c -4 -1.625 -5.063 -14.375 -1.938 -23.813 c 2.063 -6.438 7.813 -14.375 12.625 -17.625 c 4.813 -3.25 11.188 -3.313 14.875 -0.188 c 3.438 2.875 5.688 6.688 6.875 11.75 c 1.313 5.313 2.688 6.938 7.188 8.25 l 3.625 1 c -1.875 16.875 -17.375 9.688 -19.563 4.438 c -0.25 -1.063 -0.5 -2.75 -0.5 -3.75 c 0 -1 -1 -3 -2.188 -4.438 c -2.938 -3.438 -6.813 -3.5 -10.563 -0.188 c -2.938 2.688 -2.688 3.938 1 4.75 c 3.188 0.75 3.563 1.375 3.563 6.313 c 0 4.563 -0.875 6.438 -5 11.06 c -3.063 3.375 -5.938 4.125 -10 2.438" stroke-width="1.681"/></g></g><path d="m 122.68 68.17 c 0.841 -5.353 10.435 -9.367 21.342 -8.984 c 10.932 0.444 19.08 5.133 18.327 10.522 c -0.841 5.353 -10.35 9.402 -21.342 8.984 c -10.907 -0.383 -19.12 -5.05 -18.302 -10.461" transform="matrix(0.05524 0.02277 -0.0227 0.05539 2.768 -2.19)" stroke-opacity="0.957" fill="#fff" stroke="#fff" stroke-width="2"/><g transform="scale(0.0625)"><path d="m 179.38 167 c 3.688 1.25 11.563 -7.875 14.688 -16.938 c 2.063 -6.125 2.563 -15.688 1 -21.12 c -1.563 -5.375 -6 -9.375 -10.313 -9.25 c -4 0.063 -7.688 1.625 -11.375 4.688 c -3.875 3.25 -5.75 3.625 -9.625 1.875 l -3.063 -1.375 c -8.188 14 6.688 18 11.125 15.313 c 0.813 -0.625 1.938 -1.75 2.5 -2.563 c 0.563 -0.75 2.375 -1.625 4 -2 c 3.938 -0.875 6.75 1.5 7.438 6.313 c 0.625 3.875 -0.313 4.688 -3.313 3 c -2.625 -1.375 -3.25 -1.125 -6 2.625 c -2.563 3.5 -3 5.438 -2.688 11.5 c 0.25 4.438 1.813 6.75 5.625 8" fill="#188e5d" stroke="#188e5d" stroke-width="1.572"/><path d="m 133.13 181.63 c -4.063 -3.125 -5.438 -3.813 -6.813 -3.5 c -0.938 0.25 -4.688 0.625 -8.313 0.813 c -5.625 0.313 -7.188 0.125 -10.5 -1.125 c -5.563 -2.125 -9.5 -6 -14.875 -14.563 c -2.5 -4.063 -5.125 -7.5 -5.75 -7.688 c -0.625 -0.188 -2.875 -0.688 -5 -1.125 c -5.438 -1.188 -7.688 -2.125 -9.875 -4.125 c -2.313 -2.188 -2.438 -4.563 -0.313 -7.688 c 2.625 -3.875 4.688 -4.5 11.375 -3.5 c 3.313 0.5 3.813 0.438 5.375 -1.188 c 1.938 -2 4.188 -9 3.5 -11.125 c -0.25 -0.75 -1.938 -2.188 -3.813 -3.188 c -3.875 -2 -4.813 -3.375 -4.813 -7.188 c 0 -2.938 1.125 -7.75 1.938 -8.25 c 0.25 -0.188 3.125 0.313 6.313 1.063 c 7.438 1.813 8.5 1.5 10.375 -2.875 c 1.875 -4.438 1.875 -5.375 -0.188 -9.25 c -2.5 -4.813 -9.438 -7.813 -3.938 -12.375 c 1.438 -1.25 5.625 -0.375 10.188 -0.25 c 5.875 0.188 5.813 0.25 9.375 -6.813 c 4.938 -9.75 9.938 -14.5 15.188 -14.5 c 2.625 0 15.813 1.938 19.938 4.125 c 3.438 1.813 12.313 11.5 12.313 12.563 c 0 0.5 -9.06 -3.625 -10.313 -3 c -3.188 1.5 -4.188 2.938 -4.188 5.813 c 0 5 6.438 8.125 9.688 3.938 c 4.313 -5.625 -0.813 -11 3.813 -8.625 c 5.313 2.688 -0.75 10.375 -0.438 13.625 c 0.438 5.563 0.563 6 3.125 8.688 c 6.313 6.688 13.313 10.688 10.5 15.375 c -1.563 2.563 -8.563 3.375 -12.875 3.188 l -2.813 -0.188 c 2.063 8.938 -6.313 14.313 -6.563 17.625 c 0 2.563 0.813 3.5 5.688 6.313 c 3.5 2.063 6.813 6.25 6.813 8.625 c 0 0.813 -0.938 2.563 -2 3.875 c -1.938 2.375 -2.188 2.5 -6.75 2.5 c -2.625 0 -5.75 -0.25 -6.938 -0.563 c -4 -0.063 -7.125 2.25 -9.313 6.06 c -0.938 1.813 -0.938 2.125 0.625 4.938 c 5.688 10.563 5.938 11.75 2.438 15.563 c -2.938 3.25 -6.06 2.688 -12.188 -2 m 4.25 -104.62 c 2.188 -1.188 2.813 -2.375 2.813 -5.438 c 0 -2.438 -2.688 -5.563 -4.875 -5.563 c -2 0 -5.313 1.813 -5.813 3.25 c -1.188 3.063 0.375 6.875 3.313 8.06 c 2.063 0.875 2.313 0.875 4.563 -0.313" fill="#080b0c" stroke="#080b0c" stroke-width="1.401"/><path d="m 160 230.63 c -1.688 -0.875 -5.438 -4.125 -8.313 -7.313 c -3.313 -3.625 -5.875 -5.75 -7 -5.75 c -2.563 0 -11 -3.5 -15 -6.188 c -13.188 -8.938 -13.938 -31.75 -1.375 -42.19 c 5.688 -4.688 11.625 -6.625 20.5 -6.625 c 6.563 0 8.25 0.313 12.813 2.375 c 7.125 3.125 11.938 8.375 14.13 15.25 c 3 9.625 1.188 20.938 -4.438 27.5 c -1.313 1.5 -4.938 4.25 -8.125 6.125 c -7.5 4.438 -8.438 5.813 -5.313 8.125 c 1.25 0.938 3.938 2.313 5.875 3 c 3.75 1.375 5.063 3.875 3.063 6.188 c -1.313 1.563 -3.063 1.438 -6.813 -0.5 m -4.25 -20 c 4.688 -3.938 6.06 -8.5 6.06 -20.438 c 0 -12.438 -1.063 -16.875 -5.063 -21.06 c -3.063 -3.188 -3.438 -3.313 -8.125 -3.25 c -6.875 0.063 -10 1.875 -12.5 7.25 c -1.875 4 -2.063 5.375 -2.063 16.375 c 0 11.313 0.125 12.313 2.125 16.375 c 2.75 5.438 6.125 7.625 11.813 7.625 c 3.688 0 4.75 -0.375 7.75 -2.875" fill="#ec2623" stroke="#ec2623" stroke-width="1.655"/></g></svg>