<svg xmlns="http://www.w3.org/2000/svg" viewBox="0 0 16 16"><defs><linearGradient id="0" gradientUnits="userSpaceOnUse" x1="213.56" x2="591.31"><stop stop-color="#d52855"/><stop offset="1" stop-color="#d52855" stop-opacity="0"/></linearGradient></defs><path d="m 7.785 15.914 c 1.648 -0.129 3.582 -0.914 4.926 -2.01 c 1.637 -1.332 2.836 -3.371 3.156 -5.387 c 0.383 -2.66 -1.16 -5.516 -2.902 -6.875 c -0.879 -0.66 -2.039 -1.184 -3.125 -1.414 c -2.832 -0.602 -5.785 0.535 -7.809 2.996 c -1.215 1.477 -1.844 2.965 -1.996 4.727 c -0.184 2.109 0.648 4.375 2.172 5.898 c 1.734 1.434 3.52 2.215 5.578 2.066" fill="#ff8c00"/><path d="m 129.04 -41.17 l 450.35 0.102 l -0.105 479.58 l -450.29 0.126" transform="matrix(0.01459 0.00393 -0.00408 0.01598 3.555 3.577)" fill="#edff01" stroke="#d5ec55" stroke-linejoin="bevel" stroke-linecap="round" stroke-width="7.362"/><g stroke="url(#0)"><path d="m 474.75 451.4 c -0.448 11.983 -40.861 84.52 -97.06 127.73 c -12.09 -12.365 -7.948 -10.325 -21.83 -16.954 c 24.07 -45.38 93.48 -113.96 104.56 -118.04 c 6.941 -3.442 16.568 -3.697 14.329 7.139" transform="matrix(0.03489 0 0 0.03064 -4.48 -9.774)" fill="#050444"/><path d="m 377.69 578.62 c -2.239 2.167 -3.582 4.589 -6.157 5.609 c -4.03 -4.844 -13.546 -12.62 -19.255 -14.66 c 1.567 -2.167 1.567 -4.334 3.47 -6.884 c 7.724 -0.765 18.247 7.394 21.942 15.934" transform="matrix(0.03489 0 0 0.03064 -4.48 -9.774)" fill="#f8e50f"/><path d="m 371.87 584.48 c -29.11 34.673 -24.852 26.515 -44.555 51.5 c -8.172 -1.402 -12.538 -4.717 -16.344 -9.943 c 19.03 -25.11 20.04 -24.985 40.637 -55.834 c 5.262 -0.892 19.03 5.354 20.262 14.277" transform="matrix(0.03489 0 0 0.03064 -4.48 -9.774)"/><path d="m 328.44 634.07 c -8.732 13.257 -13.546 23.455 -20.15 26.77 c -17.24 13 -47.47 33.781 -3.582 -9.688 l -21.83 24.09 c -1.791 -2.549 14.441 -32.12 16.01 -34.801 c 2.02 -3.187 11.531 -13.257 13.658 -16.444 c 2.687 7.521 8.396 11.855 15.897 10.07" transform="matrix(0.03489 0 0 0.03064 -4.48 -9.774)" fill="#a5a8a4"/><path d="m 496.69 646.55 c -10.583 3.507 -81.77 31.56 -104.05 42.08 c -1.671 -18.1 -7.13 -19.909 -15.485 -30.655 c 67.62 -22.85 93.8 -39.818 107.73 -40.61 c 17.49 3.846 20.16 14.14 11.809 29.18" transform="matrix(0.03506 0 0 0.03453 -5.728 -12.46)" fill="#050444" stroke-width="0.855"/><path d="m 376.82 658.09 c 13.703 8.71 20.05 8.71 15.15 30.09 c -9.581 -5.995 -15.485 -16.18 -15.15 -30.09" transform="matrix(0.03506 0 0 0.03453 -5.728 -12.46)" fill="#050000"/><g fill="#f8e50f" transform="matrix(0.03506 0 0 0.03453 -5.728 -12.46)"><path d="m 402.78 684.45 c -3.899 1.81 -5.904 2.262 -9.135 4.185 c -2.01 -19.23 -6.239 -24.886 -16.265 -31.11 c 4.79 -2.036 5.01 -1.131 9.135 -2.828 c 5.459 -1.131 15.708 14.253 16.265 29.75" stroke-width="1.066"/><path d="m 410.68 676.87 c -5.904 -2.489 -6.127 -11.312 -6.35 -11.312 c 12.143 -1.018 54.922 -22.397 82.44 -33.596 c -3.676 -0.792 0.334 1.131 2.451 4.185"/></g></g></svg>