<svg xmlns="http://www.w3.org/2000/svg" viewBox="0 0 16 16"><path d="m 2.027 4.195 c -5.66 6.391 2.719 13.156 7.625 11.492 c 4.906 -1.66 8.203 -6.355 5 -10.473 c -3.207 -4.117 -6.355 -8.09 -12.02 -1.691" fill="#0d2e2f"/><g fill-opacity="0.145"><path d="m 5.602 4.813 l 4.098 2.652 c 0.063 0.043 0.078 0.125 0.039 0.188 l -0.219 0.332 c -0.043 0.063 -0.125 0.078 -0.188 0.039 l -4.098 -2.652 c -0.066 -0.043 -0.082 -0.125 -0.039 -0.188 l 0.215 -0.332 c 0.043 -0.063 0.129 -0.078 0.191 -0.039"/><path d="m 10.563 4.488 l -3.117 3.738 c -0.051 0.059 -0.137 0.066 -0.191 0.02 l -0.309 -0.254 c -0.059 -0.047 -0.066 -0.133 -0.02 -0.188 l 3.121 -3.742 c 0.047 -0.055 0.133 -0.063 0.191 -0.016 l 0.309 0.254 c 0.055 0.047 0.063 0.129 0.016 0.188"/></g><g fill="#ffdd54"><path d="m 5.582 4.699 l 4.102 2.656 c 0.063 0.039 0.078 0.125 0.039 0.188 l -0.219 0.328 c -0.043 0.063 -0.125 0.082 -0.188 0.043 l -4.102 -2.656 c -0.063 -0.039 -0.078 -0.125 -0.039 -0.188 l 0.219 -0.328 c 0.043 -0.063 0.125 -0.082 0.188 -0.043"/><path d="m 10.547 4.379 l -3.117 3.738 c -0.051 0.055 -0.137 0.066 -0.191 0.016 l -0.309 -0.25 c -0.059 -0.047 -0.066 -0.133 -0.02 -0.191 l 3.121 -3.738 c 0.047 -0.059 0.133 -0.066 0.191 -0.02 l 0.309 0.254 c 0.055 0.047 0.063 0.133 0.016 0.191"/></g><path d="m 4.766 6.23 h 6.512 c 0.516 0 0.938 0.387 0.938 0.867 v 4.137 c 0 0.48 -0.422 0.867 -0.938 0.867 h -6.512 c -0.516 0 -0.934 -0.387 -0.934 -0.867 v -4.137 c 0 -0.48 0.418 -0.867 0.934 -0.867" fill="#00cc5b"/><g fill="#edf3f5"><path d="m 6.18 7.352 c -0.27 0 -0.484 0.176 -0.484 0.395 c 0 0.219 0.215 0.395 0.484 0.395 h 3.668 c 0.266 0 0.48 -0.176 0.48 -0.395 c 0 -0.219 -0.215 -0.395 -0.48 -0.395 m -4.258 1.574 c -0.262 0 -0.473 0.176 -0.473 0.395 c 0 0.219 0.211 0.391 0.473 0.391 h 4.844 c 0.262 0 0.477 -0.172 0.477 -0.391 c 0 -0.219 -0.215 -0.395 -0.477 -0.395 m -4.305 1.574 c -0.238 0 -0.434 0.176 -0.434 0.395 c 0 0.215 0.195 0.391 0.434 0.391 c 0.242 0 0.438 -0.176 0.438 -0.391 c 0 -0.219 -0.195 -0.395 -0.438 -0.395 m 1.473 0 c -0.254 0 -0.457 0.176 -0.457 0.395 c 0 0.215 0.203 0.391 0.457 0.391 h 2.27 c 0.254 0 0.457 -0.176 0.457 -0.391 c 0 -0.219 -0.203 -0.395 -0.457 -0.395" fill-opacity="0.2"/><path d="m 5.297 8.875 h 5.41 c 0.105 0 0.191 0.078 0.191 0.176 v 0.438 c 0 0.098 -0.086 0.176 -0.191 0.176 h -5.41 c -0.105 0 -0.191 -0.078 -0.191 -0.176 v -0.438 c 0 -0.098 0.086 -0.176 0.191 -0.176"/><path d="m 7.328 10.449 h 2.816 c 0.102 0 0.184 0.078 0.184 0.176 v 0.438 c 0 0.098 -0.082 0.176 -0.184 0.176 h -2.816 c -0.102 0 -0.184 -0.078 -0.184 -0.176 v -0.438 c 0 -0.098 0.082 -0.176 0.184 -0.176"/><path d="m 5.859 10.449 h 0.52 c 0.094 0 0.172 0.078 0.172 0.176 v 0.438 c 0 0.098 -0.078 0.176 -0.172 0.176 h -0.52 c -0.098 0 -0.176 -0.078 -0.176 -0.176 v -0.438 c 0 -0.098 0.078 -0.176 0.176 -0.176"/><path d="m 5.871 7.305 h 4.246 c 0.105 0 0.195 0.078 0.195 0.172 v 0.438 c 0 0.098 -0.09 0.176 -0.195 0.176 h -4.246 c -0.105 0 -0.195 -0.078 -0.195 -0.176 v -0.438 c 0 -0.094 0.09 -0.172 0.195 -0.172"/></g></svg>