<svg xmlns="http://www.w3.org/2000/svg" viewBox="0 0 16 16"><defs><radialGradient id="0" gradientUnits="userSpaceOnUse" cx="31.22" cy="34.581" r="22.16" gradientTransform="matrix(0.16894 0.01131 -0.01153 0.1646 3.095 2.496)"><stop offset="0.758" stop-color="#000"/><stop offset="0.89" stop-color="#3e2812"/><stop offset="1" stop-color="#85715a"/></radialGradient><radialGradient id="1" gradientUnits="userSpaceOnUse" cx="19.922" cy="23.25" r="43.23" gradientTransform="matrix(0.16894 0.01131 -0.01153 0.1646 3.095 2.496)"><stop stop-color="#faba00"/><stop offset="0.231" stop-color="#ed7f00"/><stop offset="0.456" stop-color="#eb690a"/><stop offset="0.714" stop-color="#e65112"/><stop offset="0.929" stop-color="#8e3411"/><stop offset="0.995" stop-color="#ed7f00"/></radialGradient><radialGradient id="2" gradientUnits="userSpaceOnUse" cx="1153.12" cy="1035.16" r="30.3" gradientTransform="matrix(-0.00446 -0.03355 0.03443 -0.00433 -20.02 48.18)"><stop stop-color="#867d71"/><stop offset="1" stop-color="#000"/></radialGradient></defs><path d="m 3.887 14.848 c -14.09 -11.945 14.871 -23.434 11.898 -4.957 c -0.652 4.051 -8.105 8.176 -11.898 4.957" fill="#9acd31"/><path d="m 4.797 6.586 c 1.109 -1.707 3.426 -2.215 5.18 -1.133 c 1.75 1.078 2.273 3.336 1.164 5.04 c -1.105 1.707 -3.422 2.215 -5.176 1.137 c -1.75 -1.082 -2.273 -3.34 -1.168 -5.05" fill="url(#0)"/><path d="m 10.457 5.859 l -4.188 6.457 c 1.828 1.129 4.25 0.598 5.406 -1.188 c 1.16 -1.781 0.613 -4.141 -1.219 -5.27 m -5.508 -0.617 c -1.695 1.313 -1.977 3.715 -0.629 5.367 l 6.137 -4.75 c -1.348 -1.652 -3.813 -1.93 -5.508 -0.617" fill="url(#1)"/><g fill="#fbd6a3" fill-opacity="0.8"><path d="m 4.781 5.777 c -0.109 0.098 -0.219 0.207 -0.324 0.328 c -0.492 0.559 -0.687 1.707 0.5 0.285 c 0.059 -0.07 0.117 -0.137 0.18 -0.199 c -0.156 -0.109 -0.277 -0.254 -0.355 -0.414"/><path d="m 8.137 5.156 c 0 0 -0.523 -0.219 -1.246 -0.207 c 0.031 0.098 0.051 0.199 0.059 0.301 c 0.668 -0.145 1.187 -0.094 1.187 -0.094"/><path d="m 3.902 7.215 c 0.066 -0.012 0.129 0.035 0.137 0.102 c 0.008 0.063 -0.039 0.125 -0.105 0.133 c -0.066 0.008 -0.125 -0.039 -0.137 -0.102 c -0.008 -0.066 0.039 -0.125 0.105 -0.133"/></g><path d="m 8.992 4.75 c 0 0 -0.191 1.391 0.578 2.09 c 0.859 0.781 1.984 0.387 2.203 0.359 c 0 0 -0.344 -0.699 -1.039 -1.41 c -0.828 -0.848 -1.742 -1.039 -1.742 -1.039"/><path d="m 3.941 7.734 c 0.34 -0.52 1.043 -0.672 1.574 -0.344 c 0.531 0.328 0.691 1.012 0.355 1.531 c -0.336 0.52 -1.043 0.672 -1.574 0.344 c -0.531 -0.328 -0.691 -1.012 -0.355 -1.531"/><path d="m 7.172 6.234 c 0.211 -0.324 0.648 -0.418 0.98 -0.215 c 0.332 0.203 0.43 0.629 0.219 0.953 c -0.207 0.324 -0.648 0.418 -0.977 0.215 c -0.332 -0.203 -0.43 -0.633 -0.223 -0.953"/><path d="m 8.684 9.512 c 0.336 -0.52 1.043 -0.672 1.574 -0.344 c 0.531 0.328 0.691 1.016 0.355 1.531 c -0.336 0.52 -1.043 0.672 -1.574 0.344 c -0.531 -0.324 -0.691 -1.012 -0.355 -1.531"/><path d="m 7.828 4.902 c 0.391 0.242 0.891 0.172 1.203 -0.137 c -0.504 -0.227 -1.051 -0.344 -1.602 -0.352 c 0.07 0.195 0.203 0.367 0.398 0.488"/><path d="m 8.156 12.25 c -0.504 -0.313 -1.164 -0.188 -1.52 0.266 c 0.641 0.309 1.332 0.43 2.01 0.383 c -0.07 -0.258 -0.238 -0.492 -0.488 -0.648"/><path d="m 12.141 8.06 c -0.328 -0.039 -0.664 0.102 -0.852 0.391 c -0.258 0.402 -0.137 0.93 0.273 1.18 c 0.207 0.129 0.445 0.16 0.664 0.113 c 0.102 -0.566 0.07 -1.141 -0.086 -1.684"/><path d="m 5.199 6.234 c 0.535 0.328 1.238 0.176 1.574 -0.344 c 0.297 -0.453 0.207 -1.039 -0.18 -1.398 c -0.582 0.117 -1.145 0.367 -1.645 0.75 c -0.094 0.074 -0.18 0.148 -0.266 0.227 c 0.051 0.305 0.227 0.59 0.516 0.766"/><path d="m 12.707 5.254 c -0.035 -0.109 0.027 -0.219 0.133 -0.254 c 0.109 -0.035 0.227 0.023 0.262 0.129 c 0.031 0.109 -0.027 0.219 -0.137 0.254 c -0.109 0.035 -0.223 -0.023 -0.258 -0.129"/><path d="m 11.938 5.426 l -0.023 0.066 l 0.855 -0.266 l 0.027 -0.066"/><path d="m 11.25 3.738 c -0.105 -0.039 -0.156 -0.156 -0.113 -0.258 c 0.039 -0.105 0.16 -0.156 0.266 -0.113 c 0.105 0.039 0.16 0.156 0.117 0.262 c -0.043 0.102 -0.164 0.152 -0.27 0.109"/><path d="m 10.906 4.43 l 0.059 0.016 l 0.332 -0.813 l -0.059 -0.02"/><path d="m 4.781 5.777 c 0.078 0.16 0.199 0.305 0.355 0.414 c 0.551 -0.555 1.234 -0.82 1.813 -0.941 c -0.008 -0.102 -0.027 -0.203 -0.059 -0.301 c -0.625 0.012 -1.398 0.191 -2.109 0.828" fill="#ad9575"/><path d="m 9.672 4.586 c 0.5 -0.465 1.375 -0.371 1.953 0.215 c 0.578 0.586 0.645 1.441 0.145 1.91 c -0.496 0.465 -1.371 0.371 -1.949 -0.215 c -0.582 -0.586 -0.645 -1.441 -0.148 -1.91" fill="url(#2)"/></svg>