<svg xmlns="http://www.w3.org/2000/svg" viewBox="0 0 16 16"><path d="m 14.04 12.11 c -13.172 14.168 -21.469 -15.07 -3.984 -11.848 c 4.613 1.59 8.215 7.297 3.984 11.848" fill="#2095f2" fill-opacity="0.941"/><path d="m 4.914 12.246 c -1.188 -0.383 -1.566 -1.43 -0.703 -1.949 c 0.289 -0.172 0.895 -0.172 1.289 0.004 c 0.16 0.074 0.313 0.109 0.34 0.078 c 0.07 -0.07 0.203 -0.773 0.516 -2.742 c 0.27 -1.699 0.313 -2.285 0.191 -2.633 c -0.055 -0.156 -0.055 -0.227 0.008 -0.301 c 0.199 -0.238 1.965 -0.613 2.891 -0.613 c 0.758 0 1.172 0.211 1.441 0.73 c 0.457 0.887 -0.539 2.41 -2.254 3.434 l -0.18 0.109 l 0.137 0.273 c 0.273 0.531 0.828 1.316 1.164 1.641 c 0.184 0.18 0.336 0.363 0.336 0.402 c 0 0.047 -0.125 0.074 -0.316 0.074 c -0.621 0 -1.262 -0.449 -2.121 -1.488 c -0.133 -0.16 -0.254 -0.273 -0.273 -0.254 c -0.02 0.016 -0.125 0.48 -0.234 1.031 c -0.25 1.273 -0.473 1.75 -0.945 2.035 c -0.246 0.145 -0.406 0.195 -0.719 0.207 c -0.223 0.008 -0.477 -0.008 -0.566 -0.035 m 3.508 -5.223 c 0.504 -0.352 0.934 -0.766 1.203 -1.152 c 0.172 -0.246 0.242 -0.297 0.355 -0.266 c 0.102 0.023 0.082 0 -0.055 -0.078 c -0.336 -0.195 -1.805 -0.098 -1.988 0.133 c -0.07 0.09 -0.336 1.734 -0.289 1.809 c 0.035 0.055 0.172 -0.023 0.773 -0.445" fill-opacity="0.2"/><path d="m 4.914 11.973 c -1.188 -0.379 -1.566 -1.43 -0.703 -1.945 c 0.289 -0.176 0.895 -0.176 1.289 0 c 0.16 0.074 0.313 0.109 0.34 0.078 c 0.07 -0.07 0.203 -0.77 0.516 -2.742 c 0.27 -1.699 0.313 -2.285 0.191 -2.633 c -0.055 -0.156 -0.055 -0.227 0.008 -0.301 c 0.199 -0.238 1.965 -0.613 2.891 -0.613 c 0.758 0 1.172 0.211 1.441 0.73 c 0.457 0.887 -0.539 2.41 -2.254 3.434 l -0.18 0.109 l 0.137 0.273 c 0.273 0.531 0.828 1.316 1.164 1.641 c 0.184 0.184 0.336 0.363 0.336 0.402 c 0 0.047 -0.125 0.074 -0.316 0.074 c -0.621 0 -1.262 -0.449 -2.121 -1.488 c -0.133 -0.156 -0.254 -0.273 -0.273 -0.254 c -0.02 0.016 -0.125 0.48 -0.234 1.031 c -0.25 1.273 -0.473 1.75 -0.945 2.035 c -0.246 0.148 -0.406 0.195 -0.719 0.207 c -0.223 0.008 -0.477 -0.008 -0.566 -0.035 m 3.508 -5.219 c 0.504 -0.355 0.934 -0.77 1.203 -1.156 c 0.172 -0.246 0.242 -0.297 0.355 -0.266 c 0.102 0.023 0.082 0 -0.055 -0.078 c -0.336 -0.195 -1.805 -0.098 -1.988 0.137 c -0.07 0.086 -0.336 1.73 -0.289 1.805 c 0.035 0.055 0.172 -0.023 0.773 -0.441" fill="#fff"/></svg>