<svg xmlns="http://www.w3.org/2000/svg" viewBox="0 0 16 16"><path d="m 6.461 15.656 c -1.461 -0.625 -3.488 -1.539 -3.672 -1.66 c -0.109 -0.07 -0.293 -0.258 -0.41 -0.41 c -0.336 -0.441 -2.133 -3.578 -2.211 -3.855 c -0.074 -0.262 -0.039 -1.207 0.07 -2.062 c 0.25 -2.527 0.125 -2.469 0.457 -3.01 c 0.07 -0.145 0.785 -0.98 1.59 -1.855 c 1.547 -1.684 1.711 -1.82 2.363 -1.945 c 1.758 -0.305 2.867 -0.676 4.445 -0.77 c 1.402 0.598 2.914 1.227 4.242 1.977 c 0.207 0.176 0.516 0.641 1.203 1.82 c 1.418 2.41 1.301 2.148 1.293 2.992 c -0.141 1.316 -0.133 3.508 -0.59 4.438 c -0.156 0.293 -2.219 2.621 -2.867 3.242 c -0.324 0.309 -0.648 0.445 -1.402 0.602 c -0.766 0.285 -2.555 0.582 -3.168 0.691 c -0.355 0.082 -0.77 0.055 -1.344 -0.191" fill="#00707d"/><path d="m 5.402 12.75 c -0.023 -0.02 -0.496 -0.867 -1.051 -1.883 c -0.551 -1.02 -1.129 -2.078 -1.281 -2.355 l -0.281 -0.508 l 0.281 -0.504 c 0.152 -0.277 0.73 -1.336 1.281 -2.355 c 0.555 -1.016 1.027 -1.863 1.051 -1.883 c 0.023 -0.016 1.184 -0.031 2.574 -0.031 c 1.395 0 2.551 0.016 2.578 0.031 c 0.023 0.02 0.496 0.867 1.047 1.883 c 0.555 1.02 1.129 2.078 1.285 2.355 l 0.277 0.504 l -0.277 0.508 c -0.156 0.277 -0.734 1.336 -1.285 2.355 c -0.551 1.016 -1.023 1.863 -1.047 1.883 c -0.027 0.016 -1.184 0.031 -2.578 0.031 c -1.391 0 -2.551 -0.016 -2.574 -0.031" fill="#006984"/><path d="m 5.133 12.723 c -0.059 -0.09 -0.664 -1.168 -1.352 -2.398 c -0.684 -1.227 -1.262 -2.234 -1.281 -2.242 c -0.047 -0.02 -0.047 -0.176 0 -0.195 c 0.02 -0.008 0.598 -1.02 1.281 -2.246 c 0.684 -1.227 1.293 -2.305 1.352 -2.398 l 0.102 -0.168 h 5.453 l 0.105 0.168 c 0.059 0.094 0.664 1.172 1.352 2.398 c 0.684 1.227 1.262 2.238 1.281 2.246 c 0.047 0.02 0.047 0.176 0 0.195 c -0.02 0.008 -0.598 1.016 -1.281 2.242 c -0.688 1.23 -1.293 2.309 -1.352 2.398 l -0.105 0.168 h -5.453 m 2.426 -1.023 v -0.625 l -0.727 -0.004 c -0.398 0 -0.746 -0.012 -0.773 -0.031 c -0.023 -0.02 -0.207 -0.32 -0.402 -0.668 c -0.199 -0.352 -0.379 -0.637 -0.402 -0.637 c -0.051 0 -1.031 0.578 -1.031 0.609 c 0 0.008 0.25 0.457 0.551 1 l 0.551 0.98 h 2.234 m 3.391 -0.98 c 0.301 -0.543 0.547 -0.992 0.547 -1 c 0 -0.031 -0.973 -0.605 -1.023 -0.605 c -0.027 0 -0.211 0.285 -0.406 0.637 c -0.195 0.348 -0.379 0.648 -0.406 0.668 c -0.023 0.02 -0.371 0.031 -0.77 0.031 l -0.727 0.004 v 1.246 h 2.234 m -2.805 -2.309 l -0.016 -0.566 l -0.313 -0.016 l -0.316 -0.012 l -0.133 -0.246 c -0.074 -0.137 -0.164 -0.258 -0.195 -0.27 c -0.078 -0.035 -0.926 0.477 -0.926 0.559 c 0 0.059 0.469 0.922 0.574 1.066 c 0.031 0.039 0.223 0.055 0.688 0.055 h 0.648 m 2.125 -0.535 c 0.16 -0.281 0.293 -0.547 0.293 -0.586 c 0.004 -0.086 -0.836 -0.594 -0.926 -0.559 c -0.031 0.012 -0.117 0.133 -0.191 0.27 l -0.133 0.246 l -0.316 0.012 l -0.313 0.016 l -0.016 0.57 l -0.012 0.57 l 0.66 -0.016 l 0.66 -0.012 m -4.996 -1.047 c 0.246 -0.145 0.465 -0.285 0.488 -0.309 c 0.031 -0.031 -0.07 -0.25 -0.309 -0.676 c -0.195 -0.348 -0.352 -0.668 -0.352 -0.711 c 0 -0.043 0.156 -0.363 0.348 -0.707 c 0.195 -0.344 0.34 -0.645 0.324 -0.672 c -0.031 -0.051 -0.945 -0.586 -1 -0.586 c -0.051 0 -1.098 1.871 -1.098 1.965 c 0 0.098 1.051 1.961 1.105 1.961 c 0.027 0 0.25 -0.117 0.496 -0.266 m 7.914 -0.68 c 0.289 -0.523 0.527 -0.98 0.527 -1.016 c 0 -0.098 -1.047 -1.965 -1.102 -1.965 c -0.051 0 -0.93 0.516 -0.992 0.582 c -0.023 0.023 0.098 0.289 0.313 0.672 c 0.195 0.348 0.352 0.668 0.352 0.711 c 0 0.043 -0.156 0.363 -0.352 0.711 c -0.258 0.461 -0.34 0.645 -0.305 0.68 c 0.066 0.07 0.93 0.57 0.984 0.57 c 0.023 0 0.281 -0.426 0.574 -0.945 m -3.836 0.066 c 0.105 -0.125 0.598 -1.02 0.598 -1.082 c 0 -0.066 -0.492 -0.957 -0.598 -1.082 c -0.055 -0.066 -0.148 -0.078 -0.656 -0.078 c -0.512 0 -0.602 0.012 -0.66 0.078 c -0.105 0.125 -0.598 1.016 -0.598 1.082 c 0 0.063 0.492 0.957 0.598 1.082 c 0.059 0.066 0.148 0.078 0.66 0.078 c 0.508 0 0.602 -0.012 0.656 -0.078 m -2.598 -0.215 c 0.234 -0.137 0.426 -0.27 0.426 -0.293 c 0 -0.027 -0.066 -0.164 -0.141 -0.309 l -0.141 -0.266 l 0.141 -0.266 c 0.074 -0.145 0.141 -0.285 0.141 -0.309 c 0 -0.051 -0.828 -0.543 -0.914 -0.543 c -0.074 0 -0.645 0.988 -0.645 1.117 c 0 0.125 0.574 1.113 0.645 1.113 c 0.035 0 0.254 -0.109 0.488 -0.246 m 4.723 -0.27 c 0.16 -0.285 0.293 -0.555 0.293 -0.598 c 0 -0.125 -0.57 -1.117 -0.641 -1.117 c -0.09 0 -0.918 0.492 -0.918 0.543 c 0 0.023 0.063 0.164 0.141 0.309 l 0.141 0.262 l -0.152 0.289 c -0.082 0.16 -0.137 0.305 -0.121 0.32 c 0.074 0.074 0.84 0.508 0.902 0.508 c 0.039 0 0.184 -0.203 0.355 -0.516 m -3.84 -1.938 l 0.141 -0.246 l 0.316 -0.02 l 0.32 -0.023 l 0.023 -1.141 l -1.32 0.023 l -0.293 0.516 c -0.16 0.281 -0.293 0.543 -0.293 0.586 c -0.004 0.082 0.801 0.578 0.902 0.563 c 0.035 -0.008 0.125 -0.121 0.203 -0.258 m 2.793 0.02 c 0.273 -0.16 0.43 -0.277 0.43 -0.324 c 0 -0.039 -0.133 -0.305 -0.297 -0.586 l -0.293 -0.516 l -1.32 -0.023 l 0.016 0.57 l 0.012 0.57 l 0.313 0.012 l 0.313 0.016 l 0.117 0.207 c 0.148 0.27 0.188 0.324 0.242 0.324 c 0.02 0 0.234 -0.113 0.469 -0.25 m -3.941 -1.234 c 0.195 -0.352 0.379 -0.652 0.402 -0.668 c 0.027 -0.02 0.375 -0.035 0.773 -0.035 h 0.727 v -1.25 h -2.234 l -0.555 0.988 c -0.301 0.543 -0.535 1 -0.516 1.02 c 0.074 0.07 0.949 0.578 0.996 0.578 c 0.027 0.004 0.211 -0.285 0.406 -0.633 m 5.273 0.391 c 0.23 -0.137 0.457 -0.273 0.5 -0.305 c 0.074 -0.055 0.043 -0.125 -0.477 -1.051 l -0.555 -0.988 h -2.234 v 1.25 h 0.727 c 0.398 0 0.746 0.016 0.773 0.035 c 0.023 0.016 0.207 0.316 0.402 0.668 c 0.199 0.348 0.379 0.637 0.402 0.637 c 0.023 0 0.23 -0.113 0.461 -0.246" fill="#191919"/><g fill="#00a8d1" stroke="#00a8d1" stroke-width="1.088" transform="matrix(0.06368 0 0 0.06383 -0.247 -0.312)"><path d="m 119.88 147.43 c -0.981 -0.245 -5.521 -7.528 -8.588 -13.709 c -1.165 -2.326 -1.595 -3.794 -1.349 -4.59 c 0.491 -1.714 7.177 -13.525 8.649 -15.362 l 1.165 -1.53 h 18.341 l 1.165 1.53 c 1.472 1.836 8.158 13.648 8.649 15.362 c 0.429 1.346 -1.349 5.141 -6.01 13.04 c -1.902 3.244 -3.374 5.08 -4.171 5.263 c -1.349 0.367 -16.439 0.367 -17.85 0"/><path d="m 87.86 143.03 c -1.472 -2.326 -3.742 -6.243 -4.969 -8.629 l -2.208 -4.406 l 2.76 -5.386 c 4.171 -8.02 6.625 -11.383 8.158 -11.2 c 1.165 0.122 9.876 5.02 12.268 6.855 c 1.043 0.796 0.981 0.979 -1.165 5.325 l -2.208 4.468 l 2.147 4.284 c 1.779 3.488 2.024 4.406 1.472 5.08 c -0.797 0.979 -9.937 6.426 -12.08 7.222 c -1.411 0.551 -1.595 0.428 -4.171 -3.611"/><path d="m 104.11 110.35 c -1.963 -1.163 -4.723 -2.876 -6.134 -3.856 c -3.251 -2.264 -3.251 -2.264 2.147 -11.812 l 3.987 -7.099 l 5.03 -0.367 c 2.76 -0.184 7.422 -0.367 10.428 -0.367 h 5.398 l -0.307 1.714 c -0.184 0.918 -0.368 4.835 -0.368 8.629 v 6.977 l -4.969 0.428 c -4.785 0.367 -4.969 0.428 -5.827 1.958 c -1.84 3.366 -3.926 5.875 -4.846 5.875 c -0.552 0 -2.576 -0.918 -4.539 -2.081"/><path d="m 146.75 110.47 c -0.859 -1.346 -1.902 -3.182 -2.392 -3.978 c -1.043 -1.714 -2.76 -2.203 -7.606 -2.203 h -3.19 v -6.671 c 0 -3.672 -0.184 -7.589 -0.368 -8.752 l -0.307 -2.02 l 6.686 0.061 c 3.742 0.061 8.465 0.245 10.489 0.428 l 3.742 0.306 l 3.987 7.161 c 5.091 9.119 5.214 9.486 2.883 11.261 c -1.963 1.408 -11.532 6.916 -12.145 6.916 c -0.184 0 -0.981 -1.163 -1.779 -2.509"/><path d="m 164.23 145.84 c -4.355 -2.326 -9.14 -5.08 -10.244 -5.937 c -0.981 -0.796 -0.92 -0.979 1.227 -5.386 l 2.208 -4.651 l -1.84 -3.427 c -2.883 -5.508 -2.883 -5.325 0.981 -7.895 c 4.723 -3.06 10.121 -5.692 10.796 -5.263 c 0.92 0.551 5.398 7.895 7.606 12.363 l 2.024 4.223 l -0.981 2.326 c -1.349 3.06 -6.993 12.913 -8.158 14.08 c -0.859 0.918 -1.043 0.918 -3.619 -0.428"/><path d="m 133.43 164.81 c 0.123 -4.713 0.368 -8.752 0.491 -8.874 c 0.123 -0.122 2.331 -0.367 4.846 -0.551 l 4.662 -0.306 l 2.27 -3.794 c 1.902 -3.121 2.515 -3.794 3.558 -3.672 c 1.595 0.184 10.857 5.631 12.268 7.161 c 1.227 1.408 1.288 1.224 -4.11 11.08 l -3.803 6.916 h -8.588 c -4.785 0 -9.324 0.184 -10.244 0.367 l -1.595 0.306"/><path d="m 109.94 172.95 c -2.699 -0.122 -5.214 -0.428 -5.582 -0.734 c -0.613 -0.612 -5.459 -8.935 -7.79 -13.464 c -0.613 -1.346 -1.043 -2.693 -0.92 -3.121 c 0.675 -1.652 12.882 -8.813 13.924 -8.14 c 0.307 0.184 1.534 2.02 2.76 4.04 l 2.147 3.733 l 4.601 0.184 c 2.515 0.122 4.723 0.306 4.846 0.49 c 0.123 0.122 0.368 4.1 0.491 8.813 l 0.184 8.568 l -4.907 -0.122 c -2.699 -0.061 -7.116 -0.184 -9.753 -0.245"/></g><path d="m 231.46 97.04 c 0 21.383 -17.11 38.706 -38.29 38.706 c -21.12 0 -38.29 -17.323 -38.29 -38.706 c 0 -21.383 17.16 -38.763 38.29 -38.763 c 21.18 0 38.29 17.38 38.29 38.763" transform="matrix(0.06805 0 0 0.06832 -1.664 -0.732)" fill="#f00" stroke="#f00" stroke-width="6.87"/><g stroke="#000" stroke-width="2.956" transform="matrix(0.06019 0 0 0.05994 0.566 -0.353)"><path d="m 157.83 133.94 c -10.578 -9.645 -14.991 -19.224 -14.342 -31.15 c 0.649 -12.12 6.49 -22.352 16.743 -29.325 c 3.894 -2.607 12.784 -6.451 15.06 -6.451 c 1.428 0 3.31 2.15 3.569 4.171 c 0.26 2.02 -0.779 7.624 -2.01 11.01 c -2.985 4.627 -6.23 9.449 -8.826 13.88 c -3.439 5.93 -9.345 17.79 -10.318 20.723 c -0.584 1.759 -0.844 3.714 -0.844 6.256 c 0.26 5.93 2.206 7.69 3.894 13.229 c -0.065 0.13 -1.363 -0.912 -2.92 -2.346"/><path d="m 193.98 139.03 c 0 -0.195 0.973 -1.564 2.077 -2.998 c 14.15 -17.269 13.888 -30.3 0.519 -45.09 c -4.478 -4.887 -5.581 -6.582 -7.658 -11.274 c -0.973 -2.085 -2.855 -5.93 -4.348 -8.537 c -1.428 -2.607 -2.596 -5.02 -2.596 -5.344 c 0 -0.521 0.584 -0.521 3.05 -0.326 c 4.802 0.521 9.15 1.759 14.02 4.171 c 9.799 4.822 17.13 12.838 19.923 21.505 c 1.882 6.06 1.428 20.01 -0.909 26.523 c -1.882 5.539 -8.05 13.359 -13.498 17.269 c -4.608 3.258 -10.578 5.604 -10.578 4.105"/><path d="m 178.34 139.94 c -1.363 -0.586 -7.528 -7.299 -8.177 -8.928 c -0.844 -1.89 -4.153 -4.366 -2.077 -8.537 c 2.01 -4.105 4.413 -7.364 7.787 -10.427 c 9.475 -5.865 5.386 -8.993 7.01 -20.267 c 0.714 -0.717 2.985 11.209 2.985 12.838 c 0 1.694 -1.752 5.409 -4.737 10.231 c -4.932 7.95 -6.619 12.707 -5.646 16.03 c 0.584 1.825 3.245 5.083 4.153 5.083 c 0.973 0 1.752 -1.499 3.829 -7.429 c 1.038 -3.063 2.401 -6.386 2.985 -7.429 c 1.363 -2.281 4.997 -5.669 7.982 -7.299 l 2.271 -1.238 l -0.26 1.043 c -0.13 0.586 -1.622 3.584 -3.31 6.647 c -1.622 3.063 -3.764 7.624 -4.737 10.1 c -2.92 7.624 -4.088 9.123 -7.723 9.645 c -0.844 0.13 -1.882 0.13 -2.336 -0.065"/></g></svg>