<svg xmlns="http://www.w3.org/2000/svg" viewBox="0 0 16 16"><path d="m 14.04 12.141 c -13.172 14.07 -21.469 -14.969 -3.984 -11.77 c 4.613 1.582 8.215 7.25 3.984 11.77" fill="#f65256"/><g fill="#fff" stroke="#fff" stroke-width="0.177" transform="matrix(0.06512 0 0 0.0625 -0.147 0)"><path d="m 114.13 143.44 c -4.919 -3.875 -4.979 -11.438 -0.18 -16 c 2.16 -2 2.22 -2.438 2.22 -14.12 c 0 -13 0.36 -14.188 4.499 -14.188 c 2.999 0 3.479 1.938 3.479 15.813 c 0.06 10.125 0.12 10.375 2.699 13.375 c 2.1 2.438 2.58 3.938 2.58 7.25 c 0 3.625 -0.36 4.438 -3.119 6.875 c -3.779 3.313 -8.698 3.75 -12.178 0.938"/><path d="m 113.05 199.25 c -34.674 -3.563 -61.37 -37.5 -56.27 -71.44 c 3.239 -21.5 16.08 -39.938 34.19 -49.19 c 4.379 -2.25 11.1 -4.813 14.817 -5.75 c 8.098 -1.875 9.958 -3.438 9.118 -7.75 c -0.6 -3.313 -2.1 -4.125 -7.439 -4.125 c -5.04 0 -6.359 -1.313 -6.359 -6.125 c 0 -3.125 0.36 -4.5 1.38 -4.875 c 0.78 -0.313 9.178 -0.563 18.597 -0.563 h 17.217 v 11.563 h -12.418 v 10.5 l 4.979 1 c 8.158 1.75 14.517 4.188 22.736 8.938 c 4.619 2.688 8.218 4.188 8.878 3.813 c 0.6 -0.375 3.299 -2.563 6.06 -4.938 c 2.699 -2.313 5.339 -4.25 5.819 -4.25 c 1.02 0 6.479 5.5 6.479 6.563 c 0 0.375 -2.46 3.25 -5.459 6.375 c -4.679 4.938 -5.399 6 -4.499 7.375 c 2.4 3.813 8.158 15.938 9.478 19.813 c 4.02 12.06 3.479 29.875 -1.32 42.25 c -3.599 9.438 -7.02 14.438 -15.357 22.688 c -8.398 8.313 -13.977 11.75 -24.955 15.313 c -8.818 2.938 -16.377 3.75 -25.675 2.75 m 24.715 -14.375 c 32.394 -11.938 44.33 -52.75 23.636 -80.75 c -12.178 -16.5 -36.593 -24.625 -56.15 -18.75 c -12.418 3.813 -25.915 15.13 -31.434 26.313 c -5.159 10.625 -6.899 24.13 -4.559 35.5 c 2.999 14.5 13.857 28.5 27.475 35.19 c 9.478 4.688 13.14 5.438 25.2 5.063 c 7.679 -0.25 11.04 -0.813 15.837 -2.563"/></g></svg>