<svg xmlns="http://www.w3.org/2000/svg" viewBox="0 0 16 16"><path d="m 1.48 4.234 c -7.484 13.03 17.715 16.871 13.953 1.91 c -1.594 -6.176 -10.547 -8.801 -13.953 -1.91" fill="#707f8f"/><g transform="matrix(0.04992 0 0 0.04824 1.595 1.992)"><path d="m 113.9 161.96 c -51.33 -0.486 -51.643 -0.486 -53.991 -2.268 c -6.03 -4.535 -6.26 -5.264 -6.182 -15.954 c 0.078 -7.531 0.704 -13.04 2.895 -24.7 c 1.565 -8.26 3.365 -18.545 3.991 -22.918 c 0.626 -4.373 1.721 -10.933 2.426 -14.577 c 0.704 -3.644 1.956 -10.447 2.895 -15.14 c 1.878 -10.04 3.834 -13.12 10.642 -16.682 l 4.46 -2.348 l 43.584 -0.243 c 48.44 -0.324 56.808 0.162 63.07 3.563 c 5.634 2.996 7.668 6.56 9.468 17.01 c 0.861 4.697 1.721 8.746 1.956 9.151 c 0.156 0.324 1.487 8.098 2.817 17.249 c 1.33 9.151 2.895 18.464 3.521 20.813 c 1.565 5.75 4.304 25.591 4.304 30.692 c -0.078 6.317 -2.269 10.609 -7.199 14.172 l -4.147 2.996 l -16.432 -0.162 c -9.08 -0.162 -39.671 -0.405 -68.08 -0.648" fill="#445962" stroke="#445962" stroke-width="1.485"/><g stroke-width="1.464"><path d="m 66.953 199.14 c -1.721 -0.486 -4.147 -0.972 -5.321 -1.296 c -1.174 -0.243 -2.113 -0.972 -2.113 -1.539 c 0 -0.648 -0.469 -1.134 -1.095 -1.134 c -0.626 0 -1.33 -0.567 -1.565 -1.296 c -0.313 -0.729 -0.861 -9.313 -1.252 -19.11 c -0.469 -9.718 -1.017 -18.707 -1.252 -19.922 c 1.408 -2.51 4.617 3.32 8.06 5.426 c 2.426 1.296 137.32 1.296 139.75 0 c 0.939 -0.486 2.973 -2.106 4.46 -3.644 l 2.739 -2.672 l -0.235 19.03 l -0.313 19.11 l -2.66 2.753 c -1.408 1.539 -3.599 3.239 -4.851 3.806 c -2.66 1.215 -129.42 1.701 -134.35 0.486" fill="#778e9a" stroke="#778e9a"/><path d="m 182.68 188.2 c -2.817 -1.458 -4.225 -4.13 -4.225 -8.02 c 0 -2.025 0.626 -3.239 2.739 -5.183 c 3.521 -3.239 7.355 -3.401 11.03 -0.486 c 4.617 3.644 4.225 10.123 -0.861 13.362 c -3.052 1.944 -5.399 2.025 -8.685 0.324" fill="#66ca2f" stroke="#66ca2f"/><path d="m 124.39 116.29 c -4.93 -4.616 -12.13 -11.662 -15.962 -15.549 l -7.04 -7.207 l 8.372 -0.405 c 5.321 -0.243 8.764 -0.81 9.39 -1.458 c 0.782 -0.81 1.017 -6.479 0.939 -25.51 c 0 -13.443 -0.078 -27.534 -0.235 -31.26 c -0.078 -4.13 0.156 -7.207 0.704 -7.693 c 1.017 -1.053 23.865 -1.134 24.804 -0.162 c 0.313 0.324 0.548 14.739 0.391 31.907 c -0.156 20.08 0 31.745 0.548 32.555 c 0.548 0.891 2.895 1.296 9.546 1.539 l 8.685 0.243 l -7.277 7.693 c -4.069 4.211 -11.11 11.257 -15.649 15.63 l -8.294 8.02" fill="#01e2fa" stroke="#01e2fa"/></g></g></svg>