<svg xmlns="http://www.w3.org/2000/svg" viewBox="0 0 16 16"><path d="m 14.25 12.367 c 8.992 -12.797 -19.91 -18.434 -13.242 -2.539 c 2.133 5.23 10.332 9.211 13.242 2.539" fill="#b0dfe5"/><path d="m 1.809 8.602 c -0.094 -0.07 -0.102 -0.227 -0.086 -1.598 l 0.016 -1.52 h 0.848 c 0.844 0 0.848 0 0.98 0.168 c 0.188 0.234 0.254 0.828 0.129 1.152 c -0.07 0.18 -0.156 0.266 -0.359 0.363 c -0.148 0.07 -0.27 0.16 -0.27 0.203 c 0 0.047 0.113 0.25 0.254 0.457 c 0.484 0.711 0.48 0.707 0.344 0.785 c -0.227 0.129 -0.395 0.016 -0.688 -0.461 c -0.156 -0.25 -0.375 -0.578 -0.492 -0.734 c -0.207 -0.273 -0.211 -0.277 -0.25 -0.125 c -0.023 0.082 -0.043 0.414 -0.047 0.73 c -0.004 0.465 -0.023 0.586 -0.102 0.617 c -0.129 0.055 -0.164 0.051 -0.277 -0.039 m 1.01 -1.945 c 0.273 0 0.32 -0.02 0.379 -0.16 c 0.051 -0.117 0.051 -0.199 0 -0.316 c -0.063 -0.145 -0.098 -0.156 -0.48 -0.156 c -0.359 0 -0.422 0.016 -0.477 0.133 c -0.039 0.074 -0.051 0.227 -0.031 0.352 c 0.035 0.191 0.059 0.219 0.168 0.188 c 0.074 -0.023 0.27 -0.039 0.441 -0.039 m 1.492 1.941 c -0.313 -0.113 -0.414 -0.387 -0.414 -1.109 c 0 -0.664 0.09 -0.961 0.328 -1.078 c 0.18 -0.086 1.199 -0.094 1.406 -0.012 c 0.191 0.078 0.332 0.371 0.332 0.695 c 0 0.191 -0.043 0.305 -0.172 0.461 c -0.168 0.203 -0.184 0.207 -0.738 0.23 c -0.496 0.02 -0.566 0.035 -0.566 0.137 c 0 0.156 0.113 0.188 0.684 0.188 c 0.426 0 0.5 0.02 0.555 0.125 c 0.082 0.164 0.078 0.23 -0.031 0.348 c -0.113 0.121 -1.063 0.133 -1.383 0.016 m 1.051 -1.465 c 0.199 -0.199 -0.316 -0.371 -0.738 -0.25 c -0.137 0.039 -0.23 0.23 -0.168 0.34 c 0.047 0.082 0.809 0.008 0.906 -0.09" fill="#5d5d5d"/><g fill="#2f9bed"><path d="m 6.441 8.719 c -0.148 -0.031 -0.148 -0.016 -0.148 -1.605 c 0 -1.133 0.008 -1.504 0.039 -1.531 c 0.02 -0.02 0.102 -0.039 0.18 -0.039 c 0.262 0 0.25 -0.078 0.25 1.473 c 0 0.75 -0.012 1.43 -0.027 1.512 c -0.02 0.125 -0.035 0.148 -0.121 0.18 c -0.051 0.02 -0.098 0.031 -0.098 0.027 c -0.004 0 -0.035 -0.008 -0.074 -0.016"/><path d="m 7.309 6.145 c -0.109 -0.043 -0.125 -0.082 -0.125 -0.301 c 0 -0.242 0.039 -0.289 0.262 -0.289 c 0.215 0 0.27 0.055 0.27 0.273 c 0 0.137 -0.016 0.172 -0.098 0.254 c -0.098 0.102 -0.176 0.117 -0.309 0.063"/><path d="m 7.387 8.719 c -0.137 -0.031 -0.141 -0.059 -0.141 -1.215 c 0 -1.223 -0.016 -1.137 0.219 -1.137 c 0.098 0 0.133 0.016 0.18 0.082 c 0.051 0.078 0.055 0.184 0.055 1.125 c 0 0.883 -0.008 1.047 -0.047 1.082 c -0.055 0.055 -0.18 0.082 -0.266 0.063"/><path d="m 12.727 8.711 c -0.07 -0.016 -0.09 -0.035 -0.082 -0.082 c 0.004 -0.031 0.141 -0.258 0.305 -0.5 c 0.16 -0.238 0.301 -0.48 0.313 -0.531 c 0.023 -0.125 -0.027 -0.227 -0.336 -0.645 c -0.254 -0.344 -0.332 -0.48 -0.297 -0.512 c 0.008 -0.012 0.07 -0.031 0.137 -0.043 c 0.211 -0.039 0.313 0.016 0.605 0.313 c 0.152 0.156 0.297 0.281 0.32 0.281 c 0.051 0 0.309 -0.199 0.426 -0.328 c 0.156 -0.172 0.316 -0.266 0.453 -0.266 c 0.07 0 0.156 0.02 0.188 0.043 c 0.07 0.051 0.063 0.066 -0.316 0.59 c -0.215 0.301 -0.293 0.43 -0.293 0.5 c 0 0.109 0.063 0.223 0.391 0.707 c 0.129 0.191 0.234 0.375 0.234 0.406 c 0 0.043 -0.031 0.063 -0.125 0.078 c -0.191 0.031 -0.352 -0.059 -0.641 -0.352 c -0.137 -0.145 -0.273 -0.254 -0.309 -0.254 c -0.031 0 -0.172 0.113 -0.32 0.266 c -0.238 0.246 -0.414 0.363 -0.52 0.355 c -0.02 -0.004 -0.082 -0.016 -0.133 -0.027"/><path d="m 8.09 8.68 c -0.07 -0.047 -0.09 -0.309 -0.094 -1.289 v -0.926 l 0.117 -0.043 c 0.082 -0.027 0.301 -0.039 0.742 -0.039 c 0.617 0 0.625 0 0.797 0.086 c 0.098 0.047 0.246 0.16 0.336 0.254 c 0.262 0.207 0.164 0.535 0.164 0.844 c 0 0.633 -0.008 0.684 -0.078 0.879 c -0.043 0.117 -0.094 0.223 -0.117 0.238 c -0.07 0.043 -0.234 0.027 -0.309 -0.031 c -0.066 -0.055 -0.07 -0.094 -0.109 -0.789 c -0.02 -0.402 -0.051 -0.758 -0.063 -0.785 c -0.031 -0.082 -0.246 -0.129 -0.508 -0.105 c -0.25 0.02 -0.332 0.051 -0.379 0.141 c -0.031 0.063 -0.074 0.527 -0.113 1.23 l -0.02 0.363 h -0.16 c -0.09 0 -0.18 -0.012 -0.207 -0.027"/><path d="m 10.609 8.492 c -0.289 -0.27 -0.18 -0.66 -0.18 -1.027 c -0.004 -1 -0.008 -0.984 0.289 -1 l 0.203 -0.008 l 0.023 0.477 c 0.023 0.516 0.066 1.02 0.098 1.094 c 0.047 0.125 0.504 0.195 0.707 0.109 c 0.211 -0.086 0.223 -0.133 0.242 -0.914 c 0.016 -0.504 0.031 -0.707 0.063 -0.746 c 0.027 -0.035 0.098 -0.047 0.238 -0.047 h 0.199 v 1.859 l -0.172 0.211 l -0.176 0.211 l -0.676 -0.004 h -0.676"/></g></svg>