<svg xmlns="http://www.w3.org/2000/svg" viewBox="0 0 16 16"><path d="m 13.938 2.473 c 9.105 14.02 -15.766 19.441 -13.785 5.02 c 0.809 -5.883 10.301 -10.387 13.785 -5.02" fill="#ad88db"/><path d="m 7.277 7.91 c 0.266 1.016 0.887 3.297 1.176 3.527 c 0.348 0.238 1.426 -3.469 1.406 -3.555 c -0.457 -0.145 -1.777 -0.328 -2.582 0.027" fill="#fff"/><path d="m 8.566 10.961 c -0.078 -0.188 -0.078 -0.191 -0.086 -1.395 l -0.012 -1.207 l -0.074 -0.07 c -0.117 -0.09 -0.285 -0.082 -0.254 -0.203 l 0.027 -0.098 h 0.336 c 0.188 0 0.344 0.012 0.355 0.031 c 0.008 0.016 0 0.199 -0.02 0.406 c -0.039 0.395 -0.008 1.078 0.07 1.535 c 0.031 0.203 0.031 0.207 -0.102 0.57 c -0.074 0.199 -0.141 0.418 -0.148 0.488 l -0.016 0.129" fill="#be2528"/><path d="m 10.535 12.895 c -0.121 -0.02 -0.188 -0.148 -0.258 -0.508 c -0.109 -0.566 -0.023 -0.672 0.594 -0.758 l 0.355 -0.047 l 0.145 0.156 l 0.148 0.152 l 0.176 -0.113 c 0.387 -0.25 0.816 -0.852 1.066 -1.492 l 0.129 -0.34 l -0.184 -0.188 c -0.102 -0.105 -0.184 -0.219 -0.188 -0.258 c -0.012 -0.172 0.297 -0.891 0.418 -0.977 c 0.035 -0.023 0.117 -0.039 0.18 -0.031 c 0.148 0.02 0.531 0.258 0.617 0.383 c 0.199 0.297 -0.145 1.52 -0.691 2.453 c -0.359 0.609 -0.867 1.129 -1.293 1.313 c -0.398 0.176 -0.957 0.289 -1.215 0.254" fill="#ec1b23"/><path d="m 3.586 12.395 c -0.023 -0.031 0.176 -0.559 0.355 -1 c 0.293 -0.719 0.277 -0.613 0.281 -1.762 c 0 -0.563 0.012 -1.082 0.023 -1.16 c 0.004 -0.168 -0.016 -0.219 0.141 -0.234 c 0.109 -0.008 1.086 0.043 2.078 0.023 l 1.797 -0.039 c 0.059 0.055 0.117 0.113 0.176 0.168 l 0.012 1.207 l 0.012 1.203 l 0.254 0.652 c 0.137 0.355 0.262 0.691 0.25 0.738 l -0.039 0.18 c -1.883 0.059 -4.047 0.098 -5.34 0.023 m 3.293 -0.383 c 0.117 -0.07 0.059 -0.355 -0.078 -0.391 c -0.137 -0.031 -1 0 -1.043 0.039 c -0.02 0.02 -0.043 0.105 -0.051 0.188 c -0.016 0.168 -0.016 0.172 0.254 0.199 c 0.148 0.012 0.883 -0.012 0.918 -0.035" fill="#444"/><path d="m 7.98 7.953 c -0.078 -0.012 -0.195 -0.047 -0.266 -0.07 c -0.152 -0.059 -0.152 -0.063 -0.184 -0.711 c 0.023 -0.289 -0.039 -0.465 -0.184 -0.699 c -0.285 -0.477 -0.383 -0.801 -0.406 -1.359 c -0.02 -0.449 0.023 -0.688 0.168 -0.984 c 0.113 -0.227 0.398 -0.629 0.699 -0.691 c 0.461 -0.07 0.961 -0.227 1.387 -0.012 c 0.938 0.539 1.031 1.645 0.762 2.43 c -0.055 0.156 -0.176 0.418 -0.266 0.582 c -0.227 0.359 -0.164 0.637 -0.195 1.043 c -0.031 0.355 -0.055 0.387 -0.352 0.457 c -0.227 0.055 -0.914 0.066 -1.164 0.016" fill="#fdce9b"/><path d="m 8.73 11.129 c 0.32 -0.832 0.563 -2.277 1.113 -3.23 c 0.027 -0.023 0.113 -0.008 0.32 0.059 c 0.512 0.164 0.91 0.402 1.207 0.723 c 0.363 0.395 0.559 0.816 0.613 1.352 c 0.039 0.371 0.004 0.59 -0.109 0.695 c -0.242 0.227 -0.941 0.355 -2.266 0.426 c -0.855 0.043 -0.898 0.043 -0.879 -0.023" fill="#cfccca"/><path d="m 7.238 4.273 c -0.277 -0.027 -0.281 -0.051 -0.07 -0.379 c 0.164 -0.258 0.391 -0.461 0.68 -0.613 c 0.414 -0.129 0.793 -0.242 1.215 -0.039 c 0.348 0.176 0.801 0.477 0.871 0.914 l 0.055 0.355 c -0.535 -0.016 -1.082 -0.246 -1.535 -0.238 c -0.539 0.012 -0.934 0.324 -1.059 0.313" fill="#673534"/><path d="m 6.461 8.215 c 0.266 -0.113 0.551 -0.293 0.84 -0.316 c 0.027 0 0.211 0.336 0.188 0.344 c -0.363 -0.004 -0.637 -0.016 -1.027 -0.027" fill="#cfccca"/><path d="m 4.551 8.555 h 3.605 v 2.371 h -3.605" fill="#1c84c7"/><path d="m 8.309 7.449 c -0.41 -0.055 -0.801 -0.402 -0.957 -0.844 c -0.051 -0.148 -0.094 -0.293 -0.094 -0.32 c 0 -0.023 0.07 0.051 0.152 0.168 c 0.316 0.445 0.668 0.656 1.09 0.656 c 0.426 0 0.789 -0.227 1.109 -0.695 c 0.117 -0.168 0.137 -0.184 0.117 -0.094 c -0.164 0.777 -0.734 1.227 -1.418 1.129" fill="#dcab62"/></svg>