<svg xmlns="http://www.w3.org/2000/svg" viewBox="0 0 16 16"><path d="m 15.922 9.211 c -0.355 -2.137 -1.906 -4.93 -3.699 -6.652 c -1.418 -1.363 -2.652 -2.051 -4.141 -2.309 c -2.082 -0.359 -3.746 0.398 -5.254 2.387 c -1.691 2.328 -3.285 5.688 -2.348 8.195 c 0.375 0.992 0.809 1.664 1.516 2.352 c 1.449 1.41 3.543 2.293 5.957 2.516 c 1.367 0.125 2.445 0.039 3.715 -0.305 c 2.164 -0.586 3.59 -1.824 4.16 -3.609 c 0.176 -0.559 0.223 -1.793 0.094 -2.574" fill="#696969"/><path d="m 5.734 12.08 c -0.301 -0.051 -0.508 -0.207 -0.594 -0.453 c -0.047 -0.145 -0.051 -6.367 0 -6.547 c 0.074 -0.262 0.25 -0.402 0.578 -0.457 c 0.273 -0.047 2.238 -0.039 2.645 0.008 c 1.188 0.145 1.906 0.551 2.285 1.293 c 0.184 0.359 0.262 0.941 0.184 1.367 c -0.094 0.508 -0.426 1.02 -0.855 1.32 c -0.242 0.172 -0.332 0.258 -0.332 0.332 c 0 0.086 0.223 0.402 1.375 1.977 c 0.355 0.484 0.418 0.723 0.25 0.934 c -0.164 0.203 -0.672 0.301 -1.242 0.238 c -0.371 -0.039 -0.566 -0.125 -0.754 -0.332 c -0.07 -0.082 -0.453 -0.613 -0.852 -1.18 c -0.395 -0.57 -0.762 -1.07 -0.813 -1.113 c -0.07 -0.059 -0.133 -0.078 -0.23 -0.078 c -0.238 0 -0.23 -0.031 -0.242 1.148 c -0.012 0.996 -0.016 1.047 -0.078 1.164 c -0.125 0.227 -0.293 0.332 -0.609 0.383 c -0.234 0.035 -0.477 0.035 -0.715 -0.004 m 2.359 -4.383 c 0.438 -0.074 0.645 -0.266 0.691 -0.641 c 0.043 -0.336 -0.094 -0.598 -0.371 -0.723 c -0.172 -0.074 -0.59 -0.133 -0.937 -0.137 c -0.34 0 -0.336 -0.004 -0.336 0.754 c 0 0.656 0.012 0.73 0.137 0.781 c 0.074 0.031 0.535 0.012 0.816 -0.035" fill="#e7e7e7"/><path d="m 10.07 11.664 c -0.195 -0.004 -0.375 -0.023 -0.398 -0.043 c -0.035 -0.027 -1.273 -1.793 -1.707 -2.438 c -0.082 -0.121 -0.164 -0.227 -0.184 -0.238 c -0.02 -0.012 -0.297 -0.023 -0.617 -0.023 l -0.586 -0.004 l -0.031 2.727 l -0.508 0.008 c -0.398 0.004 -0.512 0 -0.512 -0.031 c 0 -0.023 0 -1.508 -0.004 -3.297 c 0 -2.199 0.008 -3.27 0.027 -3.293 c 0.059 -0.051 2.563 -0.012 2.906 0.047 c 1.039 0.18 1.598 0.602 1.785 1.336 c 0.063 0.23 0.066 0.691 0.016 0.906 c -0.086 0.363 -0.363 0.758 -0.68 0.969 c -0.16 0.109 -0.508 0.281 -0.676 0.332 c -0.066 0.02 -0.117 0.059 -0.117 0.078 c 0 0.023 0.063 0.129 0.145 0.238 c 0.211 0.285 1.859 2.566 1.902 2.633 c 0.051 0.086 -0.02 0.117 -0.23 0.113 c -0.094 -0.004 -0.336 -0.012 -0.531 -0.02 m -1.879 -3.547 c 0.719 -0.145 1.063 -0.563 1.023 -1.25 c -0.02 -0.355 -0.098 -0.551 -0.309 -0.742 c -0.305 -0.281 -0.617 -0.352 -1.617 -0.375 l -0.727 -0.016 v 2.426 l 0.18 0.012 c 0.348 0.027 1.211 -0.004 1.449 -0.055" fill="#5d5d5d"/></svg>