<svg xmlns="http://www.w3.org/2000/svg" viewBox="0 0 16 16"><path d="m 0.234 6.336 c 1.238 -8.242 13.574 -8.488 15.438 -0.477 c 1.922 6.488 -5.03 11.789 -10.227 9.664 c -3.48 -1 -6.289 -5.113 -5.211 -9.188" fill="#1f598e"/><path d="m 3.508 3.465 h 9.02 v 8.785 h -9.02" fill="#f8ebe0"/><g transform="matrix(0.2819 0 0 0.27453 3.509 3.466)"><path d="m 4.556 4.648 h 22.892 v 22.596 h -22.892" fill="#fff" stroke="#b2b2ed" stroke-width="0.709"/><g stroke="#000" stroke-width="0.5"><path d="m 2.948 2.784 c 0 0.142 -0.111 0.256 -0.249 0.256 c -0.139 0 -0.249 -0.114 -0.249 -0.256 c 0 -0.142 0.111 -0.242 0.249 -0.242 c 0.139 0 0.249 0.1 0.249 0.242"/><path d="m 29.512 2.784 c 0 0.142 -0.111 0.256 -0.249 0.256 c -0.139 0 -0.249 -0.114 -0.249 -0.256 c 0 -0.142 0.111 -0.242 0.249 -0.242 c 0.139 0 0.249 0.1 0.249 0.242"/><path d="m 2.948 28.923 c 0 0.142 -0.111 0.256 -0.249 0.256 c -0.139 0 -0.249 -0.114 -0.249 -0.256 c 0 -0.142 0.111 -0.242 0.249 -0.242 c 0.139 0 0.249 0.1 0.249 0.242"/><path d="m 29.512 28.923 c 0 0.142 -0.111 0.256 -0.249 0.256 c -0.139 0 -0.249 -0.114 -0.249 -0.256 c 0 -0.142 0.111 -0.242 0.249 -0.242 c 0.139 0 0.249 0.1 0.249 0.242"/><path d="m 2.519 15.889 c 0.069 0.085 0.069 0.199 0 0.27 c -0.083 0.071 -0.194 0.071 -0.263 0 c -0.069 -0.071 -0.069 -0.185 0 -0.27 c 0.069 -0.057 0.18 -0.057 0.263 0"/><path d="m 16.362 2.058 c 0.069 0.071 0.069 0.185 0 0.256 c -0.083 0.071 -0.194 0.071 -0.263 0 c -0.083 -0.071 -0.083 -0.185 0 -0.256 c 0.069 -0.071 0.18 -0.071 0.263 0"/><path d="m 16.13 29.52 c 0.083 0.071 0.083 0.185 0 0.256 c -0.069 0.071 -0.18 0.071 -0.249 0 c -0.083 -0.071 -0.083 -0.185 0 -0.256 c 0.069 -0.071 0.18 -0.071 0.249 0"/><path d="m 29.969 15.675 c 0.069 0.071 0.069 0.185 0 0.256 c -0.069 0.071 -0.18 0.071 -0.263 0 c -0.069 -0.071 -0.069 -0.185 0 -0.256 c 0.083 -0.071 0.194 -0.071 0.263 0"/></g><path d="m 0.149 0.151 h 31.691 v 31.688 h -31.691" fill="none" stroke="#222228" stroke-width="0.25"/><g fill="#266eb0" stroke="#266eb0"><path d="m 14.533 22.363 c -1.566 -0.683 -2.383 -1.978 -2.286 -3.657 c 0.166 -3.301 4.157 -4.71 6.346 -2.248 c 0.513 0.583 0.693 0.939 0.873 1.707 c 0.36 1.608 -0.499 3.372 -2.023 4.112 c -0.859 0.413 -2.065 0.455 -2.91 0.085" stroke-width="0.144"/><g stroke-width="0.162"><path d="m 13.757 11.592 c -0.374 -0.285 -0.679 -0.583 -0.679 -0.655 c 0 -0.057 0.624 -1.366 1.372 -2.888 l 1.358 -2.789 l 1.372 2.789 c 0.748 1.523 1.372 2.832 1.386 2.888 c 0.014 0.071 -0.277 0.37 -0.637 0.669 c -0.54 0.427 -0.693 0.512 -0.776 0.37 c -0.069 -0.085 -0.36 -0.953 -0.679 -1.921 c -0.319 -0.982 -0.596 -1.764 -0.637 -1.764 c -0.042 0 -0.333 0.811 -0.651 1.821 c -0.319 0.996 -0.624 1.864 -0.665 1.921 c -0.042 0.043 -0.388 -0.142 -0.762 -0.441"/><path d="m 5.997 25.24 c 0.014 -0.043 0.596 -1.224 1.275 -2.604 c 0.942 -1.907 1.289 -2.49 1.427 -2.433 c 0.097 0.043 0.236 0.071 0.291 0.071 c 0.222 0 0.097 0.242 -0.61 1.124 c -0.388 0.484 -0.679 0.939 -0.651 0.982 c 0.028 0.043 0.596 0.128 1.247 0.171 c 0.665 0.057 1.206 0.114 1.206 0.142 c 0 0.028 -0.305 0.64 -0.665 1.352 l -0.679 1.295 h -1.441 c -0.79 0 -1.427 -0.043 -1.4 -0.1"/><path d="m 22.403 24.14 c -0.374 -0.726 -0.665 -1.338 -0.637 -1.352 c 0.014 -0.014 0.568 -0.1 1.233 -0.171 c 0.651 -0.085 1.219 -0.171 1.261 -0.185 c 0.042 -0.028 0.402 0.64 0.818 1.494 l 0.734 1.537 h -2.744"/></g></g><path d="m 15.378 26.2 c -0.291 -0.896 -0.554 -1.608 -0.596 -1.608 c -0.055 0 -0.457 0.299 -0.915 0.669 c -0.457 0.37 -0.873 0.655 -0.915 0.626 c -0.055 -0.043 -0.139 -0.541 -0.18 -1.11 c -0.042 -0.583 -0.139 -1.053 -0.194 -1.053 c -0.069 0 -0.721 0.313 -1.441 0.683 c -0.734 0.384 -1.372 0.655 -1.4 0.626 c -0.028 -0.028 0.249 -0.669 0.624 -1.437 c 0.388 -0.754 0.665 -1.394 0.624 -1.437 c -0.042 -0.043 -0.54 -0.128 -1.122 -0.185 c -0.582 -0.071 -1.067 -0.128 -1.081 -0.142 c -0.014 -0.014 0.305 -0.441 0.693 -0.925 c 0.402 -0.498 0.707 -0.925 0.693 -0.953 c -0.028 -0.014 -0.693 -0.242 -1.483 -0.498 c -0.804 -0.256 -1.497 -0.498 -1.538 -0.541 c -0.055 -0.043 0.568 -0.299 1.386 -0.555 c 0.804 -0.256 1.51 -0.498 1.552 -0.541 c 0.042 -0.043 -0.236 -0.484 -0.637 -0.968 c -0.818 -1.01 -0.845 -0.968 0.651 -1.096 c 0.513 -0.057 0.928 -0.114 0.928 -0.157 c 0 -0.043 -0.305 -0.669 -0.679 -1.423 c -0.36 -0.74 -0.637 -1.366 -0.61 -1.409 c 0.042 -0.028 0.693 0.256 1.455 0.626 l 1.386 0.669 l 0.055 -0.327 c 0.042 -0.171 0.097 -0.697 0.139 -1.153 c 0.042 -0.47 0.111 -0.84 0.139 -0.84 c 0.028 0 0.416 0.313 0.873 0.683 c 0.443 0.37 0.859 0.683 0.928 0.683 c 0.055 0 0.319 -0.669 0.582 -1.494 c 0.249 -0.811 0.499 -1.48 0.54 -1.48 c 0.042 0 0.291 0.626 0.54 1.394 c 0.249 0.768 0.499 1.437 0.554 1.494 c 0.055 0.071 0.471 -0.199 0.956 -0.598 c 0.471 -0.384 0.873 -0.683 0.901 -0.655 c 0.028 0.028 0.291 1.964 0.291 2.22 c 0 0.057 0.651 -0.228 1.441 -0.64 c 0.804 -0.413 1.469 -0.74 1.51 -0.74 c 0.028 0 -0.263 0.655 -0.665 1.466 c -0.818 1.693 -0.873 1.551 0.693 1.679 l 0.984 0.085 l -0.721 0.896 c -0.388 0.498 -0.721 0.925 -0.721 0.968 c 0 0.043 0.721 0.313 1.594 0.598 l 1.607 0.526 l -1.538 0.498 c -0.831 0.285 -1.552 0.541 -1.594 0.583 c -0.055 0.057 0.249 0.498 0.651 0.996 l 0.748 0.896 l -1.164 0.128 c -0.624 0.071 -1.15 0.171 -1.15 0.213 c 0 0.057 0.291 0.711 0.665 1.451 c 0.36 0.74 0.665 1.38 0.665 1.409 c 0 0.043 -0.374 -0.114 -0.845 -0.356 c -0.457 -0.242 -1.136 -0.569 -1.483 -0.74 l -0.665 -0.285 l -0.083 1.096 c -0.042 0.612 -0.111 1.124 -0.152 1.153 c -0.055 0.028 -0.471 -0.256 -0.956 -0.626 c -0.471 -0.384 -0.901 -0.669 -0.928 -0.626 c -0.028 0.028 -0.291 0.754 -0.568 1.622 l -0.513 1.565 m 1.275 -4.653 c 1.663 -0.512 2.841 -1.864 3.132 -3.6 c 0.54 -3.145 -2.439 -5.862 -5.543 -5.05 c -1.372 0.37 -2.397 1.224 -2.993 2.547 c -0.263 0.569 -0.319 0.854 -0.319 1.793 c 0 0.953 0.055 1.209 0.346 1.85 c 0.942 2.077 3.215 3.116 5.377 2.462" fill="#fff" stroke="#778799" stroke-width="0.611"/></g></svg>