<svg xmlns="http://www.w3.org/2000/svg" viewBox="0 0 16 16" xmlns:xlink="http://www.w3.org/1999/xlink"><path d="m 15.484 10.336 c 2.984 -8.383 -7.75 -12.457 -11.785 -9.05 c -4.03 3.414 -5.41 9.262 -0.84 12.203 c 4.566 2.945 9.344 4.426 12.625 -3.156" fill="#ff8c00"/><path d="m 3.785 7.898 l 3.258 -3.582" fill="#000002" fill-rule="evenodd" fill-opacity="0.2" id="0"/><path d="m 10.301 4.316 l 3.258 3.582" fill="#000002" fill-rule="evenodd" fill-opacity="0.2" id="1"/><use xlink:href="#0"/><use xlink:href="#1"/><path d="m 12.336 4.988 c 0.602 1.348 -0.734 3.863 -2.98 5.609 c -2.25 1.746 -4.562 2.066 -5.164 0.715 c -0.605 -1.352 0.73 -3.863 2.98 -5.609 c 2.25 -1.746 4.563 -2.066 5.164 -0.715 m -0.867 7.102 c -1.469 0.504 -4.098 -0.852 -5.867 -3.03 c -1.773 -2.172 -2.02 -4.348 -0.547 -4.852 c 1.473 -0.504 4.102 0.852 5.871 3.02 c 1.77 2.176 2.02 4.348 0.543 4.855" fill="#fff" fill-rule="evenodd" fill-opacity="0.451"/><g fill="none" stroke="#000" stroke-width="11.1"><path d="m 148.8 80.3 c -0.013 38.14 -28.531 69.13 -63.756 69.1 c -35.22 -0.027 -63.781 -30.975 -63.768 -69.12 c -0.033 -38.21 28.531 -69.13 63.756 -69.1 c 35.22 0.027 63.781 30.975 63.768 69.12" transform="matrix(0.06386 -0.0496 0.01579 0.03542 1.354 9.525)"/><path d="m 148.83 80.33 c -0.002 38.11 -28.576 69.04 -63.8 68.989 c -35.24 0.033 -63.781 -30.923 -63.779 -69.03 c 0.019 -38.19 28.576 -69.04 63.768 -69.13 c 35.22 0.046 63.781 30.923 63.811 69.17" transform="matrix(0.05029 0.06175 -0.03854 0.01323 6.87 1.837)"/></g><path d="m 5.762 8.246 l 1.684 -1.359" fill="#000002" fill-rule="evenodd" fill-opacity="0.2" id="2"/><path d="m 9.129 6.887 l 1.688 1.359" fill="#000002" fill-rule="evenodd" fill-opacity="0.2" id="3"/><use xlink:href="#2"/><use xlink:href="#3"/><path d="m 47.957 56 h 60.4 c 2.781 0 4.995 2.203 4.995 4.871 v 23.6 c 0 2.725 -2.214 4.871 -4.995 4.871 h -60.4 c -2.725 0 -4.938 -2.145 -4.938 -4.871 v -23.6 c 0 -2.667 2.214 -4.871 4.938 -4.871" transform="matrix(0.06882 0 0 0.06737 2.692 3.219)" fill="#fff" fill-rule="evenodd" stroke="#000" stroke-width="2.516"/><path d="m 10.03 7.469 v 0.223 h -0.75 c -0.051 0 -0.094 0.012 -0.129 0.039 c -0.035 0.027 -0.051 0.066 -0.051 0.113 c 0 0.051 0.02 0.094 0.055 0.117 c 0.031 0.023 0.074 0.035 0.129 0.035 h 0.422 c 0.094 0 0.18 0.027 0.254 0.074 c 0.098 0.07 0.145 0.168 0.145 0.305 c 0 0.125 -0.047 0.227 -0.145 0.297 c -0.074 0.051 -0.156 0.078 -0.254 0.078 h -0.898 v -0.219 h 0.77 c 0.043 0 0.082 -0.016 0.121 -0.043 c 0.039 -0.031 0.055 -0.07 0.055 -0.113 c 0 -0.051 -0.016 -0.086 -0.055 -0.117 c -0.035 -0.027 -0.078 -0.043 -0.129 -0.043 h -0.426 c -0.094 0 -0.176 -0.023 -0.25 -0.074 c -0.098 -0.066 -0.145 -0.164 -0.145 -0.297 c 0 -0.133 0.047 -0.23 0.145 -0.297 c 0.07 -0.051 0.156 -0.078 0.25 -0.078 m -0.535 0.223 h -0.434 c -0.07 0 -0.125 0.008 -0.164 0.02 c -0.02 0.008 -0.039 0.012 -0.051 0.02 c -0.016 0.008 -0.031 0.02 -0.047 0.035 c -0.035 0.031 -0.066 0.074 -0.082 0.121 l -0.012 0.039 l -0.004 0.043 v 0.035 h 0.793 v 0.211 h -0.793 v 0.535 h -0.293 v -0.641 c 0 -0.055 0.004 -0.105 0.004 -0.145 c 0.004 -0.043 0.012 -0.082 0.02 -0.113 c 0.023 -0.105 0.074 -0.191 0.152 -0.258 c 0.051 -0.043 0.109 -0.074 0.18 -0.094 c 0.07 -0.02 0.156 -0.031 0.266 -0.031 h 0.465 m -2.227 1.281 h -0.293 v -1.281 h 0.367 l 0.559 0.938 h 0.008 v -0.938 h 0.293 v 1.281 h -0.371 l -0.559 -0.938 h -0.004"/></svg>