<svg xmlns="http://www.w3.org/2000/svg" viewBox="0 0 16 16"><path d="m 13.27 13.266 c 8.117 -6.555 -3.766 -18.383 -10.949 -10.828 c -7.199 6.504 4.04 19.13 10.949 10.828" fill="#365a97"/><path d="m 4.723 5.059 h 6.219 c 0.039 0 0.07 0.004 0.07 0.008 v 5.508 c 0 0.004 -0.031 0.008 -0.07 0.008 h -6.219 c -0.039 0 -0.07 -0.004 -0.07 -0.008 v -5.508 c 0 -0.004 0.031 -0.008 0.07 -0.008" fill="#fff"/><path d="m 4.723 5.078 h 6.219 c 0.039 0 0.07 0.004 0.07 0.008 v 5.508 c 0 0.004 -0.031 0.008 -0.07 0.008 h -6.219 c -0.039 0 -0.07 -0.004 -0.07 -0.008 v -5.508 c 0 -0.004 0.031 -0.008 0.07 -0.008" fill="#365a97"/><g fill="#fff"><path d="m 4.652 4.137 c -0.906 0 -0.906 0.922 -0.906 0.922 v 5.523 c 0 0.922 0.906 0.922 0.906 0.922 h 2.273 l -0.91 0.461 h -0.906 v 0.461 h 5.449 v -0.461 h -0.906 l -0.91 -0.461 h 2.27 c 0.91 0 0.91 -0.922 0.91 -0.922 v -5.523 c 0 -0.922 -0.91 -0.922 -0.91 -0.922 m -6.359 0.922 h 6.359 v 5.523 h -6.359"/><path d="m 6.574 6.094 c 0 0.285 -0.227 0.512 -0.508 0.512 c -0.277 0 -0.504 -0.23 -0.504 -0.512 c 0 -0.285 0.227 -0.512 0.504 -0.512 c 0.281 0 0.508 0.23 0.508 0.512"/><path d="m 6.574 7.84 c 0 0.285 -0.227 0.516 -0.508 0.516 c -0.277 0 -0.504 -0.23 -0.504 -0.516 c 0 -0.281 0.227 -0.512 0.504 -0.512 c 0.281 0 0.508 0.23 0.508 0.512"/><path d="m 6.574 9.59 c 0 0.281 -0.227 0.512 -0.508 0.512 c -0.277 0 -0.504 -0.23 -0.504 -0.512 c 0 -0.285 0.227 -0.516 0.504 -0.516 c 0.281 0 0.508 0.23 0.508 0.516"/><path d="m 8.34 7.84 c 0 0.285 -0.227 0.516 -0.508 0.516 c -0.277 0 -0.504 -0.23 -0.504 -0.516 c 0 -0.281 0.227 -0.512 0.504 -0.512 c 0.281 0 0.508 0.23 0.508 0.512"/><path d="m 8.34 6.094 c 0 0.285 -0.227 0.512 -0.508 0.512 c -0.277 0 -0.504 -0.23 -0.504 -0.512 c 0 -0.285 0.227 -0.512 0.504 -0.512 c 0.281 0 0.508 0.23 0.508 0.512"/><path d="m 10.11 7.84 c 0 0.285 -0.227 0.516 -0.508 0.516 c -0.277 0 -0.504 -0.23 -0.504 -0.516 c 0 -0.281 0.227 -0.512 0.504 -0.512 c 0.281 0 0.508 0.23 0.508 0.512"/><path d="m 10.11 6.094 c 0 0.285 -0.227 0.512 -0.508 0.512 c -0.277 0 -0.504 -0.23 -0.504 -0.512 c 0 -0.285 0.227 -0.512 0.504 -0.512 c 0.281 0 0.508 0.23 0.508 0.512"/><path d="m 10.09 9.598 c 0 0.285 -0.23 0.512 -0.508 0.512 c -0.281 0 -0.504 -0.227 -0.504 -0.512 c 0 -0.281 0.227 -0.512 0.504 -0.512 c 0.281 0 0.508 0.23 0.508 0.512"/><path d="m 8.406 9.586 c 0 0.285 -0.227 0.516 -0.504 0.516 c -0.281 0 -0.508 -0.23 -0.508 -0.516 c 0 -0.281 0.227 -0.512 0.508 -0.512 c 0.277 0 0.504 0.23 0.504 0.512"/></g></svg>