<svg xmlns="http://www.w3.org/2000/svg" viewBox="0 0 16 16"><path d="m 15.484 5.801 c 2.984 8.34 -7.75 12.395 -11.785 9 c -4.03 -3.395 -5.41 -9.215 -0.84 -12.141 c 4.566 -2.926 9.637 -5.195 12.625 3.141" fill="#4581b3"/><g stroke="#ff4500" transform="matrix(0.03581 0 0 0.0375 1.088 4.786)"><path d="m 327.84 68.64 c 0 -49.38 -42.43 -89.28 -94.69 -89.28 c -52.36 0 -94.79 39.9 -94.79 89.28 c 0 49.28 42.43 89.28 94.79 89.28 c 52.25 0 94.69 -40 94.69 -89.28" fill="#ff0" stroke-width="4.529"/><path d="m 195.74 191.78 c -21.49 -30.524 -58.906 -8.855 -82.69 2.188 c -19.417 8.02 -58.36 -8.334 -53.12 -44.588 c 3.273 -14.377 -0.982 -17.606 -6.327 -25.42 c -13.09 -21.04 -7.854 -39.692 13.199 -44.38 c 8.181 -1.042 28.798 -16.04 31.744 -17.398 c 26.726 -7.084 55.41 7.918 69.6 20.21 c 38.616 38.754 66.21 53.44 105.7 42.817 c 28.58 -28.962 19.308 -0.625 35.998 -4.688 c 13.417 -4.063 20.835 4.688 19.2 14.06 c -2.291 14.377 -14.836 22.19 -7.09 33.65 c 13.417 46.568 -120.43 34.9 -126.21 23.544" fill="#fff" stroke-width="5.292"/></g></svg>