<svg xmlns="http://www.w3.org/2000/svg" viewBox="0 0 16 16"><path d="m 15.332 6.496 c -1.594 -10.668 -17.98 -7.02 -14.883 3.301 c 2.082 9.809 18.852 7.152 14.883 -3.301" fill="#ff8c00"/><g fill="#fff" stroke="#7f7f7f" stroke-width="3.114" transform="scale(0.0625)"><path d="m 60 92.63 h 118.13 c 5.875 0 10.688 3.375 10.688 7.438 v 22 c 0 4.063 -4.813 7.438 -10.688 7.438 h -118.12 c -5.875 0 -10.688 -3.375 -10.688 -7.438 v -22 c 0 -4.063 4.813 -7.438 10.688 -7.438"/><path d="m 61.44 139.5 h 118.06 c 5.938 0 10.688 3.375 10.688 7.438 v 22 c 0 4.063 -4.75 7.438 -10.688 7.438 h -118.06 c -5.938 0 -10.688 -3.375 -10.688 -7.438 v -22 c 0 -4.063 4.75 -7.438 10.688 -7.438"/></g><g stroke="#000"><g stroke-width="1.879" transform="matrix(0.0625 0 0 0.0625 0 -0.059)"><path d="m 63.875 163.32 c -3.188 -2.563 -3.563 -6.25 -0.875 -8.938 c 2.5 -2.5 5.688 -2.5 8.25 0 c 2.938 2.938 2.375 7.25 -1.313 9.125 c -2.375 1.25 -4.375 1.188 -6.06 -0.188"/><path d="m 83.937 163.57 c -3.875 -1.75 -4.563 -5.938 -1.438 -9 c 3.063 -3.5 7.563 -1.563 9.438 1.688 c 2.5 4.688 -2.813 9.563 -8 7.313"/><path d="m 103.12 163.38 c -3.75 -2.563 -4.25 -6.06 -1.313 -9 c 2.563 -2.5 5.75 -2.5 8.25 0 c 3 2.938 2.375 7.25 -1.313 9.125 c -2.313 1.188 -3.75 1.188 -5.625 -0.125"/><path d="m 123.25 164.01 c -6 -2.938 -4.188 -11.438 2.438 -11.438 c 4.938 0 7.438 6.188 3.875 9.5 c -2.875 2.688 -4 3.063 -6.313 1.938"/><path d="m 142.25 163.51 c -2.5 -1.313 -3.438 -2.688 -3.438 -5 c 0 -2.438 3.563 -6.125 5.875 -6.125 c 2.063 0 5.063 2.188 6 4.438 c 1.875 4.5 -3.875 9.06 -8.438 6.688"/></g><path d="m 124.42 106.32 c 0 -5.796 -1.629 -7.808 4.154 -8.452 c 4.806 -0.563 8.471 0 9.774 1.449 c 0.489 0.644 0.733 3.864 0.57 7.808 c -0.163 5.313 -0.489 6.681 -1.466 6.681 c -0.814 0 -1.385 -1.207 -1.873 -3.622 c -1.303 -7.406 -1.792 -9.1 -2.688 -9.418 c -1.71 -0.563 -3.502 2.173 -3.991 6.04 c -0.896 6.681 -1.14 7.486 -2.851 7.486 c -1.548 0 -1.629 -0.563 -1.629 -7.969" transform="matrix(0.04796 0 0 0.04853 1.044 1.844)" stroke-width="2.434"/><g stroke-width="1.879" transform="matrix(0.0625 0 0 0.0625 0 -0.059)"><path d="m 87.87 123.7 c -2.313 -1.813 -1.5 -2.625 2.188 -2.125 c 2.063 0.25 3.375 0.188 4 -0.375 c 1.313 -1.063 0.563 -1.813 -1.938 -1.813 c -4.813 0 -8 -6 -5.625 -10.625 c 1.313 -2.5 2.875 -3.063 7.688 -2.688 c 5.688 -0.375 3.938 3.375 3.938 8.06 c 0 7.438 -0.063 7.875 -1.563 9.313 c -2 2 -6.313 2.125 -8.688 0.25 m 6.375 -9.375 c 1.25 -2.25 -0.125 -5.188 -2.5 -5.5 c -1.313 -0.125 -1.75 0.188 -2.313 1.75 c -1.563 4.5 2.625 7.75 4.813 3.75"/><path d="m 73.37 106.45 c 2.187 -1.375 5.25 -0.688 7.562 1.688 c 1.5 1.563 1.813 2.438 1.75 4.688 c -0.563 5.5 -5.625 7.625 -8.687 6.313 c -5.75 -2.813 -4.875 -9.75 -0.625 -12.688 m 5.187 9 c 0.938 -0.875 1 -3.875 0.125 -5.5 c -1.438 -2.625 -5.625 -0.375 -5.625 3 c 0 2.188 1.063 3.25 3.125 3.25 c 0.938 0 2 -0.313 2.375 -0.75"/></g><g transform="matrix(0.04796 0 0 0.04853 1.044 1.844)"><path d="m 57.88 116.3 c -1.385 -1.127 -1.792 -3.381 -1.71 -8.935 c 0.081 -11.592 1.303 -16.985 3.665 -17.307 c 1.873 -0.322 2.036 0.805 2.036 13.202 c 0 7.406 -0.489 13.685 -1.059 14.01 c -0.652 0.322 -1.955 -0.08 -2.932 -0.966" stroke-width="3.178"/><path d="m 113.51 111.64 c -0.326 -1.207 -0.244 -4.669 0.163 -7.808 c 1.303 -9.982 4.398 -7.245 4.398 3.864 c 0 5.876 0 6.04 -2.036 6.04 c -1.466 0 -2.118 -0.563 -2.525 -2.093" stroke-width="2.434"/><path d="m 114.24 93.28 c -1.792 -2.254 -0.489 -5.152 2.199 -4.83 c 1.14 0.161 1.466 0.644 1.629 2.093 c 0.326 3.3 -2.036 4.91 -3.828 2.737" stroke-width="1.767"/></g></g><g fill="#f00" stroke="#f00" transform="scale(0.0625)"><path d="m 177.25 207.69 c -4.125 -0.188 -10.06 -0.5 -13.12 -0.75 c -5.5 -0.313 -5.563 -0.375 -5.938 -1.563 c -0.188 -0.688 -0.313 -9.313 -0.313 -19.12 c 0 -13.813 0.125 -18 0.625 -18.5 c 0.75 -0.75 27.438 -1.063 45.938 -0.563 l 12.438 0.313 l -0.125 19.13 c -0.125 12.875 -0.313 19.25 -0.688 19.625 c -0.25 0.25 -2.188 0.688 -4.25 0.938 c -5.25 0.688 -25.5 0.938 -34.563 0.5" stroke-width="1.421"/><path d="m 165.94 168.31 c -1.563 -2.75 -1 -16.12 0.813 -21.375 c 1.313 -3.688 4.938 -7.25 9.313 -9.188 c 2.813 -1.313 4.375 -1.625 8.5 -1.875 c 13.25 -0.813 21.313 3.75 24.25 13.75 c 1.125 3.75 1.563 15.938 0.625 17.5 c -1.125 1.938 -2.438 2.438 -3.563 1.438 c -0.75 -0.688 -1.063 -2.563 -1.625 -8.688 c -0.75 -8.625 -1.75 -11.75 -4.813 -14.438 c -3.625 -3.188 -10.563 -4.438 -16.875 -2.938 c -4.313 1 -6.313 2.25 -8.06 5 c -1.813 2.938 -2.5 5.375 -3.438 13.13 c -0.438 3.625 -1 7 -1.313 7.563 c -0.75 1.25 -3.125 1.313 -3.813 0.125" stroke-width="1.589"/></g></svg>