<svg xmlns="http://www.w3.org/2000/svg" viewBox="0 0 16 16"><path d="m 0.195 7.973 c -1.199 -10.461 15.996 -10.316 15.793 0.188 c 0.566 9.77 -16.73 10.652 -15.793 -0.188" fill="#007f7f"/><path d="m 6.102 5.379 h 3.664 c 1.688 0 3.055 1.277 3.055 2.859 c 0 1.578 -1.367 2.859 -3.055 2.859 h -3.664 c -1.688 0 -3.055 -1.281 -3.055 -2.859 c 0 -1.578 1.367 -2.859 3.055 -2.859" fill="#3db29d"/><path d="m 9.766 6.234 c 1.18 0 2.137 0.898 2.137 2 c 0 1.105 -0.957 2 -2.137 2 c -1.18 0 -2.141 -0.895 -2.141 -2 c 0 -1.105 0.961 -2 2.141 -2" fill="#ebebeb"/></svg>