<svg xmlns="http://www.w3.org/2000/svg" viewBox="0 0 16 16"><path d="m 15.871 8.094 c 1.203 10.555 -15.992 10.41 -15.789 -0.188 c -0.566 -9.855 16.727 -10.742 15.789 0.188" fill="#cf4f4f"/><path d="m 3.121 10.742 c -0.293 -0.086 -0.523 -0.285 -0.633 -0.535 c -0.055 -0.129 -0.063 -0.41 -0.063 -1.91 c 0 -1.703 0.004 -1.766 0.086 -1.934 c 0.047 -0.098 0.152 -0.23 0.234 -0.297 c 0.309 -0.254 0.078 -0.242 5.484 -0.23 l 4.922 0.012 l 0.168 0.09 c 0.215 0.109 0.438 0.367 0.5 0.566 c 0.063 0.211 0.063 3.383 0 3.605 c -0.023 0.09 -0.125 0.242 -0.23 0.355 c -0.32 0.336 0.055 0.316 -5.48 0.313 c -2.688 -0.004 -4.934 -0.02 -4.988 -0.035 m 10.07 -0.352 c 0.078 -0.035 0.184 -0.121 0.23 -0.191 c 0.094 -0.125 0.094 -0.129 0.094 -1.902 v -1.781 l -0.141 -0.145 c -0.078 -0.078 -0.207 -0.164 -0.289 -0.184 c -0.094 -0.027 -1.801 -0.039 -5.05 -0.031 c -4.883 0.012 -4.91 0.012 -5.02 0.094 c -0.063 0.047 -0.152 0.133 -0.199 0.195 c -0.082 0.109 -0.082 0.156 -0.082 1.859 c 0 1.707 0 1.746 0.082 1.859 c 0.047 0.063 0.148 0.152 0.223 0.203 l 0.133 0.09 h 4.945 c 4.473 0 4.953 -0.004 5.078 -0.066 m -9.641 -0.82 c -0.086 -0.07 -0.105 -0.117 -0.105 -0.262 c 0 -0.285 0.23 -0.445 0.492 -0.34 c 0.148 0.063 0.199 0.148 0.199 0.34 c 0 0.297 -0.34 0.449 -0.586 0.262 m 1.184 -0.086 c -0.039 -0.23 -0.203 -0.543 -0.383 -0.734 c -0.16 -0.164 -0.582 -0.387 -0.73 -0.387 c -0.184 0 -0.219 -0.039 -0.219 -0.254 c 0.004 -0.309 0.02 -0.324 0.332 -0.27 c 0.562 0.098 1.055 0.43 1.293 0.875 c 0.129 0.242 0.254 0.648 0.254 0.832 c 0 0.102 -0.008 0.105 -0.258 0.105 h -0.262 m 0.992 -0.152 c -0.125 -0.789 -0.484 -1.379 -1.063 -1.75 c -0.258 -0.164 -0.727 -0.328 -1.074 -0.371 l -0.215 -0.031 v -0.527 l 0.316 0.023 c 0.965 0.074 1.82 0.617 2.211 1.402 c 0.176 0.352 0.301 0.773 0.352 1.176 l 0.027 0.23 h -0.531 m 3.121 -0.027 c -0.215 -0.023 -0.238 -0.055 -0.207 -0.246 l 0.027 -0.16 l 0.602 0.004 c 0.676 0.004 0.781 -0.023 0.781 -0.211 c 0 -0.063 -0.023 -0.137 -0.055 -0.16 c -0.031 -0.027 -0.285 -0.109 -0.563 -0.188 c -0.277 -0.078 -0.551 -0.176 -0.605 -0.215 c -0.234 -0.164 -0.316 -0.57 -0.176 -0.852 c 0.121 -0.234 0.313 -0.301 0.867 -0.301 c 0.262 0.004 0.59 0.016 0.738 0.035 l 0.266 0.027 l -0.031 0.359 h -0.609 c -0.344 0 -0.648 0.02 -0.691 0.043 c -0.094 0.051 -0.105 0.246 -0.02 0.316 c 0.031 0.027 0.266 0.105 0.52 0.172 c 0.781 0.207 0.891 0.301 0.891 0.762 c 0 0.508 -0.172 0.617 -1 0.625 c -0.313 0.004 -0.645 -0.004 -0.734 -0.012 m 2.184 -0.008 l -0.184 -0.023 l -0.012 -0.199 l -0.012 -0.195 l 0.441 0.023 c 0.492 0.031 0.898 -0.012 0.957 -0.098 c 0.066 -0.102 0.023 -0.254 -0.09 -0.309 c -0.059 -0.027 -0.289 -0.098 -0.512 -0.156 c -0.711 -0.184 -0.832 -0.293 -0.832 -0.738 c 0 -0.504 0.191 -0.629 0.957 -0.625 c 0.27 0.004 0.598 0.02 0.727 0.035 c 0.25 0.031 0.273 0.063 0.211 0.297 c -0.023 0.09 -0.039 0.09 -0.648 0.09 c -0.68 0 -0.727 0.016 -0.727 0.227 c 0 0.125 0.047 0.16 0.336 0.238 c 1.027 0.285 1.102 0.332 1.133 0.75 c 0.023 0.309 -0.059 0.496 -0.273 0.617 c -0.121 0.07 -0.223 0.082 -0.715 0.086 c -0.316 0.004 -0.656 -0.004 -0.754 -0.02 m -4.047 -1.133 v -1.129 h 0.441 l 0.027 0.164 c 0.027 0.16 0.031 0.164 0.117 0.102 c 0.18 -0.133 0.586 -0.305 0.781 -0.332 l 0.199 -0.027 l -0.027 0.195 c -0.016 0.105 -0.027 0.227 -0.027 0.27 c 0 0.059 -0.031 0.074 -0.195 0.074 c -0.105 0 -0.313 0.043 -0.457 0.094 l -0.266 0.09 l -0.012 0.813 l -0.012 0.816 h -0.57" fill="#f2f2f2" fill-opacity="0.702"/></svg>