<svg xmlns="http://www.w3.org/2000/svg" viewBox="0 0 16 16"><path d="m 3.762 1.711 c 8.184 -5.73 16.473 4.852 9.805 11.598 c -6.281 6.359 -16.04 0.465 -12.988 -7.449 c 0.633 -1.648 1.68 -3.098 3.184 -4.148" fill="#8b7600"/><path d="m 6 12.344 c -1.883 -0.637 -3.449 -2.5 -3.449 -4.102 c 0 -2.215 2.762 -4.5 5.438 -4.5 c 2.68 0 5.441 2.285 5.441 4.5 c 0 1.652 -1.711 3.609 -3.648 4.172 c -1.445 0.422 -2.379 0.402 -3.781 -0.07" fill="#ff0"/><path d="m 4.426 10.02 c -0.188 -0.477 0.113 -0.758 0.73 -0.695 c 0.855 0.086 0.852 -0.527 -0.004 -0.895 c -0.539 -0.234 -0.715 -0.449 -0.766 -0.941 c -0.086 -0.891 0.527 -1.398 1.59 -1.313 c 1.016 0.082 1.305 0.73 0.375 0.836 c -0.832 0.098 -0.848 0.461 -0.035 0.813 c 0.559 0.242 0.715 0.441 0.77 1 c 0.098 1 -0.434 1.5 -1.605 1.5 c -0.621 0 -0.977 -0.105 -1.055 -0.305 m 3.863 0.008 c -0.273 -0.195 -0.383 -0.555 -0.383 -1.254 c 0 -1.176 0.43 -1.695 1.41 -1.695 c 0.594 0 0.703 -0.082 0.797 -0.625 c 0.082 -0.453 0.23 -0.629 0.535 -0.629 c 0.398 0 0.426 0.145 0.426 2.191 v 2.191 l -1.203 0.047 c -0.727 0.027 -1.352 -0.059 -1.582 -0.227 m 1.719 -1.383 c 0 -0.59 -0.082 -0.727 -0.43 -0.727 c -0.281 0 -0.449 0.16 -0.496 0.484 c -0.102 0.703 0.121 1.125 0.551 1.043 c 0.27 -0.051 0.375 -0.27 0.375 -0.801" fill="#141400"/></svg>