<svg xmlns="http://www.w3.org/2000/svg" viewBox="0 0 16 16"><path d="m 13.703 3 c 9.984 14.188 -15.977 18.703 -13.402 3.625 c 1.363 -5.996 9.406 -9.309 13.402 -3.625" fill="#45693d"/><path d="m 4.25 11.809 c -0.137 -0.039 -0.234 -0.129 -0.293 -0.266 c -0.043 -0.098 -0.039 -0.184 0.004 -0.605 c 0.059 -0.551 0.102 -1.262 0.18 -3.02 c 0.082 -1.875 0.094 -1.98 0.199 -2.094 c 0.078 -0.086 0.09 -0.129 0.109 -0.508 c 0.031 -0.559 0.059 -0.652 0.23 -0.742 c 0.137 -0.066 0.195 -0.066 1.895 -0.059 l 1.754 0.008 l 0.211 0.086 c 0.207 0.086 0.227 0.086 1.52 0.105 c 1.641 0.02 1.551 -0.008 1.602 0.555 c 0.02 0.207 0.039 0.285 0.098 0.348 c 0.102 0.102 0.105 0.152 0.184 1.922 c 0.102 2.195 0.137 2.816 0.199 3.395 c 0.055 0.504 0.055 0.527 -0.008 0.637 c -0.039 0.059 -0.113 0.141 -0.164 0.184 l -0.102 0.07 l -3.758 0.008 c -2.07 0 -3.805 -0.008 -3.859 -0.027 m 3.703 -6.73 c 0.098 -0.066 0.102 -0.207 0.012 -0.254 c -0.102 -0.055 -2.91 -0.051 -2.965 0.004 c -0.066 0.066 -0.047 0.191 0.035 0.25 c 0.117 0.078 2.805 0.078 2.918 0" fill="#a3d695"/><g fill="#ff8c00" stroke="#ff8c00" stroke-width="0.461" transform="matrix(0.06926 0 0 0.07144 -0.636 -1.084)"><path d="m 102.36 156.07 l -20.587 -20.394 l 1.354 -1.476 c 3.215 -3.499 36.832 -34.17 39.14 -35.758 c 1.128 -0.711 1.354 -0.601 3.948 1.531 c 9.927 8.201 38.19 34.61 38.19 35.649 c 0 1.203 -39.708 40.843 -40.893 40.843 c -0.338 0 -9.814 -9.186 -21.15 -20.394 m 39.99 -4.757 l 15.455 -15.2 l -3.384 -3.499 c -5.922 -6.01 -26.961 -24.987 -29.781 -26.846 c -1.072 -0.711 -1.297 -0.656 -3.102 0.711 c -5.302 4.046 -29.443 25.862 -30.853 27.94 c -0.79 1.094 -0.79 1.258 0.451 2.843 c 0.677 0.93 8.179 8.584 16.639 17 l 15.342 15.364 l 1.861 -1.531 c 1.072 -0.82 8.855 -8.365 17.372 -16.786"/><path d="m 117.65 158.42 c -2.989 -2.734 -9.419 -8.967 -14.327 -13.888 l -8.912 -8.967 l 5.697 -5.413 c 3.159 -2.953 9.645 -8.912 14.439 -13.286 l 8.686 -7.928 l 2.087 1.64 c 2.82 2.242 13.932 12.466 21.15 19.41 l 5.922 5.741 l -4.117 4.155 c -5.528 5.686 -21.997 21.16 -23.802 22.417 l -1.41 1.039 m -3.553 -12.193 c 0.395 -0.929 1.015 -2.843 1.41 -4.21 c 0.677 -2.679 2.369 -5.304 3.102 -4.812 c 0.282 0.164 1.354 1.914 2.425 3.937 c 2.425 4.702 4.456 6.944 6.092 6.725 c 1.692 -0.273 1.749 -1.695 0.226 -5.632 c -2.82 -7.436 -5.415 -16.348 -4.794 -16.348 c 0.338 0 0.959 0.765 1.297 1.64 c 0.846 2.078 1.918 3.117 3.159 3.117 c 0.846 0 1.015 -0.383 1.015 -2.023 c 0 -2.624 -1.692 -5.14 -4.907 -7.327 c -3.948 -2.624 -6.599 -2.296 -10.435 1.367 c -1.072 1.039 -3.159 2.46 -4.682 3.226 c -1.974 0.929 -2.764 1.64 -2.764 2.406 c 0 1.422 1.466 1.531 5.471 0.273 c 1.861 -0.547 3.553 -0.875 3.835 -0.711 c 0.902 0.547 0 3.499 -2.031 6.944 c -1.918 3.171 -2.031 3.718 -2.031 7.381 c 0 2.132 0.169 4.319 0.395 4.812 c 0.564 1.586 2.425 1.148 3.215 -0.765 m 4.399 -28.541 c 0.902 -1.258 0.79 -2.624 -0.395 -3.827 c -2.538 -2.515 -7.332 0.219 -6.148 3.39 c 0.733 1.914 5.189 2.187 6.543 0.437"/></g></svg>