<svg xmlns="http://www.w3.org/2000/svg" viewBox="0 0 16 16"><path d="m 4.207 1.891 c 3.625 -3.652 6.973 -0.977 9.723 1.93 c 2.242 2.363 2.344 4.559 0.859 6.887 c -3.875 6.074 -8.91 8.324 -14.18 -1.098 c -1.297 -3.105 1.441 -5.996 3.598 -7.719" fill="#ff8c00"/><g stroke="#000" stroke-width="10"><path d="m 126.29 -67.12 l 122.01 0.028 l -0.001 121.9 l -121.96 0.018" transform="matrix(0.03977 0.04254 -0.04012 0.0422 0.483 0.359)" fill="#fff"/><path d="m 94.73 166.5 c 10.305 -12.158 18.711 -25.18 11.12 -25.18 c -2.644 0 -11.12 -4.451 -11.12 -9.368 c 15.322 -17.806 43.728 -34.814 58.642 -45.909 c 15.593 -11.427 37.965 -29.698 39.592 -17.34 c 0.814 6.245 -4.407 12.358 -15.932 23.984 c -26.372 26.509 -24.406 27.04 -6.03 37.27 c 6.576 3.654 2.373 8.703 -33.965 31.23 c -39.728 30.03 -89.29 59.26 -42.3 5.315" transform="matrix(0.05762 0 0 0.0588 0.483 0.359)" fill="#ff9400"/></g><path d="m 8.152 2.523 l 0.406 0.395 l -5.211 5.566 l -0.406 -0.395"/></svg>