<svg xmlns="http://www.w3.org/2000/svg" viewBox="0 0 16 16"><path d="m 2.801 13.68 c -12.613 -16.648 22.1 -19.02 10.961 -2.02 c -2.539 3.875 -7.617 6.43 -10.961 2.02" fill="#00bfff"/><path d="m 7.555 2.426 c -0.496 0.023 -1.051 0.168 -1.68 0.461 c -0.297 0.137 -0.453 0.473 -0.375 0.797 c 0.082 0.324 0.379 0.543 0.699 0.516 c 0 0 0.504 -0.012 0.762 0.078 c 0.129 0.043 0.125 0.078 0.105 0.027 c -0.023 -0.051 0.039 -0.016 -0.125 0.277 l -0.473 0.844 c -0.227 0.008 -0.438 0.137 -0.551 0.34 l -1.793 3.199 c -0.18 0.324 -0.07 0.742 0.242 0.934 l 1.074 0.641 c 0.316 0.188 0.719 0.074 0.906 -0.25 l 1.797 -3.199 c 0.117 -0.203 0.121 -0.457 0.012 -0.668 l 0.387 -0.691 c 0.063 0.102 0.145 0.184 0.242 0.242 l 0.492 0.293 c 0.316 0.188 0.723 0.074 0.906 -0.25 l 0.719 -1.289 c 0.184 -0.324 0.078 -0.742 -0.234 -0.934 l -0.484 -0.293 c -0.152 -0.09 -0.336 -0.117 -0.504 -0.07 l -0.063 0.016 c -0.172 -0.262 -0.418 -0.543 -0.801 -0.75 c -0.336 -0.176 -0.762 -0.293 -1.262 -0.27" fill="#2e8ed2" fill-opacity="0.051"/><path d="m 7.934 2.75 c -2.656 0 -4.809 2.234 -4.809 4.984 c 0 2.203 1.379 4.074 3.289 4.73 c 0.238 0.047 0.328 -0.105 0.328 -0.238 c 0 -0.121 -0.004 -0.434 -0.008 -0.848 c -1.336 0.301 -1.617 -0.668 -1.617 -0.668 c -0.219 -0.578 -0.535 -0.73 -0.535 -0.73 c -0.438 -0.309 0.031 -0.305 0.031 -0.305 c 0.484 0.035 0.738 0.516 0.738 0.516 c 0.43 0.762 1.125 0.543 1.398 0.414 c 0.043 -0.32 0.168 -0.543 0.305 -0.668 c -1.066 -0.125 -2.188 -0.551 -2.188 -2.461 c 0 -0.543 0.188 -0.992 0.492 -1.34 c -0.047 -0.125 -0.215 -0.633 0.047 -1.316 c 0 0 0.406 -0.137 1.324 0.508 c 0.383 -0.109 0.793 -0.164 1.203 -0.168 c 0.41 0.004 0.82 0.059 1.203 0.168 c 0.918 -0.645 1.32 -0.508 1.32 -0.508 c 0.262 0.684 0.098 1.191 0.051 1.316 c 0.305 0.352 0.492 0.797 0.492 1.34 c 0 1.914 -1.125 2.336 -2.195 2.457 c 0.172 0.156 0.328 0.461 0.328 0.926 c 0 0.664 -0.008 1.203 -0.008 1.367 c 0 0.133 0.086 0.289 0.332 0.238 c 1.906 -0.66 3.285 -2.527 3.285 -4.727 c 0 -2.754 -2.152 -4.988 -4.809 -4.988" fill="#fff" fill-rule="evenodd"/></svg>