<svg xmlns="http://www.w3.org/2000/svg" viewBox="0 0 16 16"><path d="m 13.703 2.949 c 9.984 14.246 -15.977 18.781 -13.402 3.641 c 1.363 -6.02 9.406 -9.352 13.402 -3.641" fill="#478594"/><g fill="#ecf9fc" stroke="#ecf9fc"><g stroke-width="1.01" transform="matrix(0.06226 0.00544 -0.00544 0.06226 0.564 -0.654)"><path d="m 124.33 176.62 c -0.01 -3.701 -0.842 -5.322 -2.726 -5.345 c -0.877 0.014 -2.288 -1.055 -3.149 -2.297 c -1.452 -2.257 -1.463 -2.382 0.659 -3.947 c 4.538 -3.345 5.204 -4.345 5.249 -7.423 c -0.022 -1.692 -0.204 -3.056 -0.516 -3.03 c -0.254 -0.04 -2.482 1.033 -5.01 2.257 l -4.501 2.338 l -1.617 -1.992 c -0.845 -1.055 -1.571 -2.184 -1.598 -2.495 c 0.013 -0.566 2.85 -2.57 9.337 -6.588 c 3.692 -2.268 5.385 -5.866 4.236 -8.965 c -0.724 -1.819 -2.405 -1.672 -7.507 0.97 c -6.01 3.035 -6.935 2.488 -6.929 -3.912 c 0 -6.462 -1.178 -7.739 -4.994 -5.461 c -2.92 1.761 -3.791 4.723 -3.814 13.07 l 0.024 4.578 l -3.01 0.012 c -3.452 -0.012 -4.04 -1.027 -4.03 -6.674 c -0.013 -4.453 -1.12 -4.921 -4.701 -2.099 c -1.64 1.335 -2.33 2.776 -2.532 5.491 c -0.267 3.411 -0.488 3.744 -2.849 4.01 c -1.738 0.215 -2.97 -0.242 -3.753 -1.303 c -0.997 -1.356 -1.506 -1.437 -4.242 -0.445 c -2.493 0.908 -3.432 0.927 -4.448 0.075 c -1.963 -1.648 -1.504 -3.57 1.538 -6.095 c 2.457 -2.034 2.606 -2.486 1.696 -4.289 c -0.9 -1.678 -0.829 -2.312 0.369 -3.671 c 1.488 -1.636 1.613 -1.647 4.9 0.074 c 3.417 1.772 5.347 1.603 8.089 -0.77 c 2.219 -1.888 1.989 -2.37 -2.455 -5.118 c -4.251 -2.703 -4.728 -3.853 -2.566 -5.673 c 1.175 -0.918 2.39 -0.648 7.965 2.127 l 6.558 3.254 l 3.481 -1.81 c 1.922 -0.984 3.499 -2.313 3.507 -2.942 c 0.002 -0.69 -2.248 -2.752 -4.918 -4.589 l -4.939 -3.395 l 2.162 -1.82 c 1.237 -0.924 3.637 -2.89 5.402 -4.236 c 3.705 -2.833 3.431 -3.813 -1.925 -6.231 l -3.333 -1.528 l -6.265 3.684 c -6.628 3.842 -8.19 3.915 -8.189 0.339 c -0.006 -1.505 0.954 -2.718 3.512 -4.322 c 4.04 -2.549 4.289 -3.324 1.546 -5.28 c -2.467 -1.667 -5.296 -1.733 -8.595 -0.002 c -2.403 1.214 -2.596 1.168 -3.885 -0.664 c -0.924 -1.237 -1.073 -2.228 -0.494 -2.78 c 1.618 -1.584 0.873 -3.652 -1.775 -5.24 c -1.457 -0.876 -2.63 -2.091 -2.622 -2.72 c -0.039 -1.879 1.997 -2.998 3.946 -2.227 c 3.187 1.29 5.848 0.869 7.49 -1.157 c 2.04 -2.5 3.53 -1.25 4.869 4.03 c 0.591 2.458 1.678 4.12 3.191 4.928 c 3.496 1.953 5.152 0.804 5.134 -3.711 c -0.018 -4.516 1.789 -6.807 3.956 -4.988 c 0.875 0.676 1.371 2.766 1.405 6.03 c 0.133 7.266 0.924 9.142 4.545 11.08 c 4.151 2.272 5.077 1.376 5.723 -5.582 c 0.242 -2.97 0.783 -5.401 1.224 -5.377 c 0.441 0.024 3.227 1.035 6.154 2.223 c 2.932 1.249 5.515 2.09 5.748 1.882 c 0.17 -0.203 0.551 -2.307 0.848 -4.654 l 0.502 -4.31 l -5.139 -2.813 c -7.376 -3.998 -8.459 -4.907 -7.735 -6.664 c 0.714 -1.882 2.344 -1.899 7.209 -0.065 c 4.351 1.69 5.423 1.032 5.478 -3.365 c -0.009 -2.258 -1.474 -3.949 -5.845 -6.579 c -1.587 -0.928 -1.592 -0.99 0.061 -2.891 c 0.977 -1.026 2.303 -1.644 3.02 -1.393 c 1.56 0.617 2.737 -0.992 2.757 -3.629 c 0.032 -1.069 0.654 -2.567 1.46 -3.39 c 1.845 -1.855 3.668 -0.383 3.989 3.29 c 0.253 2.174 0.816 2.877 2.874 3.45 c 2.312 0.614 3.943 2.039 4.01 3.539 c 0.027 0.311 -1.385 1.376 -3.058 2.338 c -2.801 1.688 -3.069 2.213 -3.065 5.852 c -0.039 4.583 0.414 4.732 6.087 2.166 c 3.378 -1.55 4.063 -1.61 5.162 -0.514 c 1.996 2.02 0.762 3.698 -5.525 7.133 l -5.738 3.262 l -0.022 4.77 c -0.021 2.637 0.414 4.732 0.855 4.756 c 0.504 0.019 3.116 -0.962 5.83 -2.203 c 2.72 -1.179 5.327 -2.222 5.706 -2.193 c 0.374 -0.033 0.976 2.55 1.315 5.72 c 0.34 3.17 0.964 6 1.427 6.275 c 0.463 0.273 2.371 -0.145 4.179 -0.993 l 3.321 -1.482 l 0.511 -7.07 c 0.495 -7.258 1.869 -10.201 4.401 -9.231 c 0.712 0.251 1.52 2.314 1.878 4.98 c 0.638 5.151 1.846 6.05 5.69 4.083 c 2.279 -1.203 2.655 -1.926 2.9 -5.586 c 0.237 -3.03 0.694 -4.264 1.747 -4.419 c 1.416 -0.312 3.837 1.547 4.436 3.377 c 0.252 0.731 1.543 0.43 4 -0.852 l 3.667 -1.826 l 1.289 1.832 c 1.65 2.365 1.187 3.535 -2.153 5.521 c -2.926 1.699 -3.172 2.473 -1.276 4.064 c 1.151 0.966 1.121 1.345 -0.126 3.587 l -1.48 2.451 l -3.479 -1.766 c -3.609 -1.818 -5.986 -1.735 -8.936 0.405 c -1.589 1.205 -1.442 1.444 2.842 4.52 c 3.951 2.854 4.447 3.501 3.638 5.01 c -1.561 2.96 -3.145 2.784 -9.622 -0.979 l -6.285 -3.717 l -3.437 2.308 c -1.9 1.233 -3.467 2.687 -3.491 3.128 c 0.038 0.436 2.137 2.197 4.791 3.848 c 2.597 1.718 4.945 3.458 5.232 3.872 c 0.293 0.476 -1.74 2.348 -4.519 4.285 c -2.723 1.869 -4.998 3.825 -4.955 4.323 c 0.038 0.436 1.522 1.624 3.301 2.597 l 3.293 1.783 l 6.956 -3.682 l 6.961 -3.62 l 1.373 2.076 c 1.671 2.614 1.214 3.846 -2.648 6.317 c -3.618 2.387 -3.891 4.293 -0.823 5.656 c 1.768 0.849 2.827 0.757 5.292 -0.463 c 4.04 -1.921 5.422 -1.854 6.551 0.306 c 0.675 1.259 0.705 2.322 -0.058 3.644 c -0.86 1.644 -0.754 2.136 0.651 3.143 c 3.076 2.178 4.717 3.728 4.653 4.424 c 0.033 0.374 -0.798 1.638 -1.764 2.789 c -1.761 2.099 -1.824 2.104 -4.902 0.617 c -3.073 -1.425 -3.198 -1.414 -4.483 0.392 c -0.95 1.338 -2.043 1.747 -4.068 1.548 c -2.659 -0.27 -2.805 -0.508 -3.226 -4.612 c -0.383 -3.668 -0.844 -4.632 -2.888 -5.77 c -2.174 -1.19 -2.486 -1.163 -3.265 -0.028 c -0.438 0.728 -0.865 3.02 -0.872 5.095 l 0.01 3.701 l -3.514 -0.007 l -3.508 0.056 l -0.038 -6.898 c 0.009 -4.204 -0.398 -7.431 -1.097 -8.248 c -1.2 -1.526 -5.14 -4.256 -6.079 -4.237 c -0.317 -0.035 -0.87 2.962 -1.183 6.565 c -0.717 7.591 -0.955 7.738 -7.586 4.365 c -5.513 -2.781 -6.918 -2.344 -6.905 2.109 c -0.017 3.389 0.191 3.622 6.081 7.123 c 6.878 4.04 7.436 4.683 6.703 7.07 c -0.841 2.583 -2.89 2.825 -6.629 0.956 c -4.728 -2.41 -6.16 -2.285 -6.169 0.476 c 0.009 2.258 3.598 6.712 6.181 7.553 c 2.266 0.806 -0.019 5.523 -2.81 5.892 c -1.992 0.174 -2.379 0.773 -2.9 4.143 c -0.602 3.88 -0.597 3.942 -4.048 3.93 c -3.265 -0.028 -3.468 -0.199 -3.488 -2.581 m -1.407 -47.683 c 2.392 -2.781 2.784 -4.76 1.467 -6.904 c -0.653 -1.01 -1.219 -1.023 -3.519 -0.069 c -4.12 1.678 -5.861 6.159 -3.386 8.64 c 1.652 1.675 2.995 1.244 5.438 -1.667 m 15.688 0.762 c 0.499 -3.62 -0.303 -5.62 -2.884 -7.151 c -3.241 -1.913 -4.375 -1.249 -4.36 2.514 c 0.04 4.765 6.561 9.03 7.244 4.637 m -21.276 -13.01 c 2.698 -1.428 2.137 -4.265 -1.056 -5.617 c -3.192 -1.352 -5.355 -0.975 -7.412 1.338 c -1.431 1.568 -1.415 1.755 0.05 3.446 c 1.731 1.856 5.719 2.261 8.417 0.833 m 29.914 -0.858 c 2.179 -1.633 2.173 -1.696 0.424 -3.048 c -2.827 -2.2 -5.813 -2.629 -8.325 -1.217 c -2.931 1.636 -3.25 3.735 -0.759 4.96 c 3.073 1.425 6.192 1.216 8.66 -0.694 m -11.08 -9.822 c 2.82 -2.191 4.069 -5.124 3.405 -7.701 c -1.15 -4.542 -8.205 0.152 -8.184 5.421 c -0.028 4.708 1.08 5.176 4.779 2.28 m -11.799 -2.921 c -0.056 -3.508 -0.297 -4.115 -2.726 -5.345 c -3.677 -1.874 -5.242 -1.11 -5.232 2.59 c -0.023 3.327 3.157 6.688 6.292 6.665 c 1.318 0.01 1.638 -0.645 1.666 -3.91"/><path d="m 76.49 196.99 c -0.287 -0.414 -0.778 -2.442 -1.077 -4.423 c -0.304 -2.044 -0.825 -3.692 -1.136 -3.665 c -0.317 -0.035 -1.689 0.775 -3.175 1.72 c -2.371 1.587 -2.682 1.615 -4.177 0.302 c -2.318 -2.119 -1.881 -4.29 1.286 -6.825 l 2.871 -2.321 l -2.984 -2.562 c -2.714 -2.335 -2.944 -2.817 -1.992 -4.845 c 1.158 -2.548 1.962 -2.681 5.509 -0.858 c 2.96 1.561 4.359 1.062 4.328 -1.445 c -0.007 -2.948 1.682 -5.166 3.939 -5.175 c 1.754 -0.028 2.244 0.557 2.722 3.15 c 0.705 3.765 2.146 4.455 5.778 2.946 c 2.544 -1.038 2.923 -1.01 4.478 0.989 l 1.752 2.105 l -3.274 2.733 l -3.212 2.728 l 3.239 2.603 c 3.036 2.432 3.125 2.738 2.127 4.959 c -1.214 2.616 -2.998 3.02 -6.529 1.386 c -2.746 -1.266 -3.206 -0.786 -3.905 3.415 c -0.491 2.992 -0.832 3.398 -3.323 3.616 c -1.494 0.131 -2.959 -0.118 -3.246 -0.532"/></g><path d="m 114.65 157.54 c -0.551 -2.236 -1.232 -2.617 -4.689 -2.603 c -4.685 -0.023 -4.968 -0.809 -1.435 -4.146 l 2.529 -2.437 l -2.793 -2.33 c -2.093 -1.729 -2.525 -2.575 -1.671 -3.536 c 0.861 -0.888 1.66 -0.812 3.333 0.218 c 1.906 1.23 2.4 1.112 3.693 -0.625 c 0.77 -1.101 1.432 -2.634 1.441 -3.372 c -0.017 -2.726 2.772 -1.28 3.399 1.834 c 0.542 2.973 0.841 3.094 4.17 2.428 c 3.758 -0.705 4.651 0.469 2.031 2.693 c -0.808 0.662 -1.553 2.055 -1.537 3.086 c 0.01 0.957 0.707 2.369 1.562 3.103 c 2.488 2.136 1.646 3.243 -1.945 2.532 c -3.078 -0.609 -3.494 -0.425 -4.466 2.537 c -1.326 3.877 -2.749 4.078 -3.621 0.619" transform="matrix(0.05422 0.00474 -0.00463 0.053 4.775 3.654)" stroke-width="0.232"/></g></svg>