<svg xmlns="http://www.w3.org/2000/svg" viewBox="0 0 16 16"><path d="m 14.14 13.223 c 3.891 -5.984 0.75 -11.438 -3.656 -12.73 c -5.926 -1.738 -13.973 2.832 -8.672 12.258 c 2.109 3.746 9.555 4.734 12.324 0.473" fill="#d2d2d2"/><path d="m 4.445 12.547 v -0.297 l 0.199 -0.012 l 0.199 -0.016 v -0.277 c 0 -0.273 0.004 -0.277 0.141 -0.266 c 0.23 0.02 0.277 -0.074 0.25 -0.523 c -0.012 -0.266 0 -0.406 0.035 -0.41 c 0.031 -0.004 0.117 -0.008 0.188 -0.012 c 0.133 -0.004 0.133 -0.008 0.148 -0.465 l 0.016 -0.457 h 0.184 c 0.176 0 0.188 -0.008 0.188 -0.152 v -0.148 h 0.797 v -0.316 c 0 -0.18 -0.023 -0.332 -0.055 -0.348 c -0.031 -0.016 -0.141 -0.016 -0.242 0 c -0.152 0.023 -0.188 0.047 -0.18 0.121 c 0.02 0.18 0 0.203 -0.121 0.18 c -0.164 -0.031 -0.242 0.02 -0.262 0.172 c -0.016 0.109 -0.039 0.125 -0.16 0.113 c -0.16 -0.016 -0.219 0.039 -0.227 0.203 c -0.004 0.094 -0.035 0.113 -0.191 0.133 l -0.188 0.02 l -0.016 0.434 l -0.012 0.438 l -0.172 0.012 c -0.152 0.012 -0.176 0.031 -0.199 0.164 c -0.02 0.113 -0.055 0.148 -0.133 0.152 c -0.059 0.004 -0.137 0.008 -0.172 0.012 c -0.047 0.004 -0.066 0.098 -0.066 0.305 v 0.293 l -0.203 0.016 c -0.18 0.012 -0.199 0.023 -0.199 0.141 c 0 0.113 -0.016 0.129 -0.16 0.129 c -0.16 0 -0.16 0 -0.16 -0.258 v -0.254 l 0.188 -0.023 l 0.188 -0.02 l 0.016 -0.289 l 0.016 -0.285 l 0.172 -0.012 c 0.148 -0.012 0.172 -0.031 0.195 -0.164 c 0.023 -0.129 0.047 -0.148 0.172 -0.148 c 0.078 -0.004 0.16 -0.016 0.18 -0.031 c 0.02 -0.016 0.031 -0.223 0.027 -0.457 l -0.012 -0.426 l 0.203 -0.012 c 0.184 -0.012 0.203 -0.027 0.219 -0.148 c 0.016 -0.121 0.039 -0.141 0.188 -0.152 c 0.148 -0.012 0.172 -0.027 0.188 -0.152 c 0.016 -0.125 0.031 -0.137 0.199 -0.137 c 0.172 0 0.184 -0.008 0.184 -0.148 c 0 -0.137 0.012 -0.145 0.199 -0.16 c 0.195 -0.012 0.199 -0.016 0.199 -0.184 v -0.168 l -0.387 -0.016 l -0.387 -0.012 v -0.145 c 0 -0.148 -0.066 -0.191 -0.297 -0.191 c -0.09 0 -0.125 -0.023 -0.121 -0.078 c 0.023 -0.191 -0.004 -0.223 -0.195 -0.223 c -0.172 0 -0.184 -0.012 -0.184 -0.129 v -0.129 h 0.684 l 0.02 0.141 c 0.012 0.125 0.031 0.141 0.211 0.152 c 0.188 0.012 0.199 0.023 0.215 0.172 c 0.016 0.152 0.02 0.156 0.227 0.156 c 0.215 0 0.215 0 0.215 -0.172 c 0 -0.164 -0.004 -0.172 -0.199 -0.184 l -0.195 -0.012 l -0.016 -0.309 c -0.016 -0.27 -0.027 -0.309 -0.121 -0.313 c -0.059 -0.004 -0.137 -0.008 -0.172 -0.012 c -0.051 -0.004 -0.07 -0.195 -0.082 -0.738 l -0.016 -0.738 l -0.172 -0.012 l -0.172 -0.016 v -0.977 c 0 -0.535 -0.016 -1 -0.035 -1.043 c -0.023 -0.055 0.012 -0.066 0.188 -0.066 c 0.215 0 0.219 -0.004 0.219 -0.148 c 0 -0.141 0.012 -0.152 0.164 -0.152 h 0.16 l -0.016 0.438 c -0.016 0.43 -0.016 0.438 -0.137 0.426 c -0.199 -0.023 -0.25 0.047 -0.246 0.332 c 0.004 0.145 0.02 0.27 0.035 0.281 c 0.016 0.012 0.098 0.027 0.18 0.031 l 0.152 0.012 l 0.055 2.133 h 0.211 c 0.203 0 0.215 -0.008 0.23 -0.141 c 0.016 -0.117 0.039 -0.137 0.164 -0.137 c 0.078 0 0.172 0.02 0.203 0.047 c 0.086 0.066 0.148 -0.035 0.07 -0.109 c -0.035 -0.035 -0.055 -0.105 -0.043 -0.156 c 0.012 -0.078 0.051 -0.098 0.203 -0.102 c 0.176 0 0.188 -0.008 0.203 -0.156 c 0.016 -0.148 0.027 -0.156 0.188 -0.152 c 0.16 0.008 0.168 0 0.184 -0.152 c 0.016 -0.145 0.031 -0.16 0.172 -0.16 c 0.133 0 0.156 0.02 0.168 0.141 c 0.016 0.125 0.035 0.141 0.219 0.152 c 0.18 0.012 0.199 0.023 0.199 0.137 v 0.129 h -0.398 c -0.336 0 -0.402 0.012 -0.402 0.066 c 0 0.063 0.066 0.07 0.52 0.051 c 0.285 -0.012 0.555 -0.031 0.598 -0.039 c 0.082 -0.016 0.09 0.016 0.102 0.391 l 0.008 0.215 h 0.367 l 0.016 0.285 l 0.016 0.289 l 0.227 0.012 l 0.227 0.016 v -0.152 c 0 -0.145 0.008 -0.152 0.188 -0.152 c 0.184 0 0.195 -0.012 0.207 -0.191 c 0.004 -0.066 0.055 -0.09 0.191 -0.109 l 0.188 -0.02 l 0.016 -0.461 c 0.016 -0.426 0.023 -0.461 0.113 -0.438 c 0.215 0.055 0.27 -0.012 0.27 -0.324 v -0.293 h 0.184 c 0.098 0 0.188 -0.023 0.199 -0.055 c 0.012 -0.027 0.008 -0.246 -0.008 -0.48 l -0.027 -0.426 l -0.16 -0.02 c -0.152 -0.023 -0.16 -0.031 -0.188 -0.301 c -0.023 -0.273 -0.027 -0.277 -0.195 -0.289 c -0.168 -0.016 -0.168 -0.016 -0.184 -0.289 l -0.02 -0.277 h 0.172 c 0.164 0 0.176 0.012 0.176 0.152 c 0 0.141 0.008 0.148 0.188 0.148 h 0.184 v 0.273 c 0 0.281 0.074 0.391 0.23 0.344 c 0.043 -0.016 0.094 -0.008 0.109 0.012 c 0.016 0.02 0.031 0.422 0.039 0.891 l 0.008 0.852 l -0.18 0.02 l -0.18 0.023 l -0.016 0.457 l -0.016 0.461 h -0.18 c -0.164 0 -0.184 0.012 -0.199 0.137 c -0.012 0.117 -0.035 0.141 -0.156 0.141 c -0.18 0 -0.227 0.035 -0.23 0.184 c 0 0.09 -0.027 0.117 -0.137 0.121 c -0.07 0.004 -0.16 0.008 -0.199 0.012 c -0.039 0 -0.066 0.063 -0.066 0.152 c 0 0.141 -0.008 0.148 -0.184 0.148 c -0.172 0 -0.184 0.008 -0.199 0.16 c -0.016 0.145 -0.031 0.16 -0.176 0.164 c -0.09 0.004 -0.18 0.008 -0.199 0.012 c -0.023 0.004 -0.039 0.082 -0.039 0.176 v 0.172 h 0.238 c 0.238 0 0.238 0 0.238 -0.148 c 0 -0.145 0.012 -0.148 0.188 -0.148 c 0.184 0 0.188 -0.004 0.188 -0.172 v -0.172 h 0.797 v -0.297 h 0.348 c 0.313 0 0.348 0.008 0.348 0.082 c 0 0.051 0 0.102 0 0.121 c 0.004 0.016 -0.074 0.039 -0.172 0.051 c -0.156 0.02 -0.176 0.035 -0.176 0.16 v 0.141 h -0.352 c -0.398 0 -0.508 0.055 -0.453 0.234 c 0.031 0.102 0.023 0.105 -0.18 0.105 c -0.207 0 -0.215 0.004 -0.215 0.148 v 0.148 l -0.57 0.012 l -0.574 0.012 v 0.344 l 1.938 0.023 l 0.016 0.137 c 0.016 0.102 0.047 0.141 0.125 0.145 c 0.059 0.004 0.137 0.008 0.168 0.008 c 0.035 0.004 0.074 0.07 0.082 0.145 c 0.016 0.121 0.039 0.141 0.191 0.152 l 0.172 0.016 l 0.008 1.125 c 0.004 0.621 0.012 1.156 0.012 1.184 c 0.004 0.031 -0.059 0.055 -0.152 0.055 h -0.16 l -0.016 -1.055 l -0.012 -1.055 l -0.176 -0.012 c -0.137 -0.012 -0.176 -0.035 -0.188 -0.121 c -0.027 -0.148 -0.105 -0.215 -0.258 -0.215 c -0.098 0 -0.125 -0.023 -0.125 -0.102 c 0 -0.18 -0.098 -0.199 -0.887 -0.188 l -0.738 0.012 v 0.344 l 0.758 0.012 c 0.707 0.008 0.762 0.016 0.762 0.09 c 0 0.164 0.059 0.219 0.246 0.219 h 0.18 v 2.391 h -0.184 c -0.191 0 -0.277 0.09 -0.215 0.227 c 0.027 0.051 -0.012 0.07 -0.172 0.078 c -0.191 0.016 -0.203 0.023 -0.219 0.176 l -0.016 0.16 h -1.113 v -0.254 l 0.773 -0.023 l 0.016 -0.16 c 0.016 -0.148 0.027 -0.156 0.211 -0.168 c 0.18 -0.012 0.199 -0.027 0.199 -0.145 c 0 -0.113 0.02 -0.129 0.184 -0.148 l 0.188 -0.02 v -1.836 l -0.188 -0.023 c -0.164 -0.02 -0.188 -0.035 -0.203 -0.16 l -0.016 -0.137 h -1.645 v 0.598 h -0.16 c -0.141 0 -0.16 -0.016 -0.16 -0.125 c 0 -0.07 -0.02 -0.137 -0.039 -0.148 c -0.023 -0.012 -0.219 -0.035 -0.434 -0.051 c -0.324 -0.027 -0.391 -0.02 -0.367 0.027 c 0.012 0.035 0.094 0.063 0.18 0.063 c 0.133 0 0.156 0.02 0.156 0.117 c 0 0.063 -0.02 0.117 -0.043 0.117 c -0.02 0 -0.184 0 -0.359 0 h -0.32 v -0.605 l -0.227 0.016 c -0.211 0.012 -0.227 0.02 -0.242 0.148 c -0.012 0.117 -0.039 0.137 -0.188 0.148 l -0.168 0.016 l -0.016 0.461 c -0.016 0.457 -0.016 0.465 -0.133 0.441 c -0.23 -0.047 -0.266 0.02 -0.273 0.469 l -0.004 0.422 l -0.188 0.02 l -0.188 0.023 v 0.57 l -0.184 0.012 c -0.176 0.012 -0.188 0.023 -0.203 0.176 c -0.016 0.145 -0.031 0.16 -0.176 0.16 h -0.156 m 3.531 -3.098 c -0.02 -0.063 -0.398 -0.051 -0.426 0.016 c -0.02 0.039 0.035 0.051 0.207 0.039 c 0.129 -0.004 0.227 -0.031 0.219 -0.055 m 0.359 -0.277 c 0 -0.023 -0.012 -0.043 -0.023 -0.043 c -0.012 0 -0.039 0.02 -0.055 0.043 c -0.02 0.023 -0.008 0.043 0.023 0.043 c 0.031 0 0.055 -0.02 0.055 -0.043 m 0 -0.938 c 0 -0.027 -0.223 -0.043 -0.555 -0.043 c -0.316 0 -0.574 0.016 -0.59 0.043 c -0.023 0.027 0.176 0.043 0.555 0.043 c 0.359 0 0.59 -0.02 0.59 -0.043 m -1.066 -0.32 c 0 -0.035 -0.023 -0.066 -0.051 -0.066 c -0.066 0 -0.113 0.066 -0.07 0.102 c 0.059 0.047 0.121 0.031 0.121 -0.035 m -0.414 -1.613 c -0.012 -0.02 -0.043 -0.023 -0.07 -0.008 c -0.059 0.027 -0.066 1.27 -0.008 1.316 c 0.039 0.031 0.113 -1.242 0.078 -1.309 m -2.762 0.656 c -0.012 -0.012 -0.02 -0.063 -0.02 -0.121 c 0 -0.094 0.02 -0.098 0.348 -0.098 h 0.352 l -0.016 0.117 c -0.02 0.113 -0.031 0.117 -0.328 0.117 c -0.172 0 -0.32 -0.008 -0.336 -0.016" fill="#020202"/></svg>