<svg xmlns="http://www.w3.org/2000/svg" viewBox="0 0 16 16"><path d="m 4.098 1.824 c 3.695 -3.656 7.105 -0.98 9.906 1.926 c 2.281 2.367 2.387 4.563 0.875 6.887 c -3.949 6.078 -9.08 8.328 -14.449 -1.094 c -1.32 -3.109 1.473 -6 3.668 -7.719" fill="#ffd600"/><g stroke="#000" stroke-width="2.169" transform="scale(0.0625)"><path d="m 95.56 200.88 c -4.875 -1.938 -5.063 -3.875 -5.563 -43.938 l -0.5 -37.938 l -8.875 -6.625 l -0.563 -12.375 c -0.313 -6.875 -0.313 -17.813 0 -24.375 c 0.5 -11.375 0.625 -11.938 3 -12.313 c 3.625 -0.5 4.563 3.438 4.563 18.875 v 13.5 h 7.625 l 0.063 -11.125 c 0.063 -6.125 0.438 -13.313 0.813 -16 c 0.625 -4.313 1.063 -4.875 3.438 -4.875 c 2.5 0 2.75 0.438 3.438 6.5 c 0.375 3.563 0.75 10.75 0.813 16 l 0.125 9.5 h 3.75 c 3.688 0 3.813 -0.188 3.938 -4.063 c 0.75 -21.375 1.563 -27.938 3.438 -28.313 c 4.688 -0.875 5.125 1.125 5 22.438 c -0.063 11.125 -0.438 21.688 -0.813 23.438 c -0.438 2.063 -2.313 4.375 -5.25 6.5 l -4.5 3.313 l -0.063 38.688 l -0.125 38.688 l -3.313 2.813 c -3.438 2.875 -6.313 3.375 -10.438 1.688"/><path d="m 159.69 199.38 c -1.875 -0.813 -3.688 -2.375 -4.125 -3.438 c -0.438 -1.125 -1.063 -12.625 -1.438 -25.625 l -0.625 -23.625 l -7.25 -1.375 v -76.37 l 2.938 -2.75 c 6.188 -5.75 11.438 -6.688 17.313 -3.125 c 7.25 4.438 7.06 2.25 6.688 70.69 c -0.375 60 -0.438 61.75 -2.563 63.813 c -3 2.938 -6.938 3.563 -10.938 1.813"/></g></svg>