<svg xmlns="http://www.w3.org/2000/svg" viewBox="0 0 16 16"><path d="m 8.06 15.863 c 10.555 1.203 10.41 -15.992 -0.188 -15.789 c -9.855 -0.566 -10.742 16.727 0.188 15.789" fill="#ffdeac"/><g fill="#f99d1f"><path d="m 9.426 5.371 c -0.02 -0.031 -0.16 -0.121 -0.316 -0.203 c -0.328 -0.172 -0.668 -0.375 -0.973 -0.547 l -0.305 -0.168 l -0.219 0.133 c -0.375 0.227 -0.742 0.414 -1.125 0.633 l -0.254 0.141 l -0.332 -0.168 c -0.43 -0.227 -0.852 -0.461 -1.246 -0.738 c 0.199 -0.09 0.406 -0.195 0.586 -0.293 c 0.695 -0.398 1.453 -0.801 2.117 -1.199 c 0.199 -0.117 0.414 -0.215 0.477 -0.215 c 0.105 0 0.492 0.203 1.406 0.73 c 0.387 0.223 0.809 0.453 1.133 0.637 c 0.684 0.387 0.688 0.395 0.246 0.637 c -0.125 0.07 -0.402 0.223 -0.621 0.34 c -0.215 0.121 -0.422 0.242 -0.465 0.277 c -0.043 0.031 -0.09 0.035 -0.109 0.004"/><path d="m 9.906 8.414 c -0.211 -0.266 -0.215 -0.266 -0.582 -0.238 c -0.199 0.016 -0.469 0.051 -0.594 0.074 c -0.516 0.094 -0.582 0.098 -0.621 0.035 c -0.02 -0.035 -0.16 -0.121 -0.313 -0.195 c -0.418 -0.207 -0.785 -0.449 -1.203 -0.664 c -0.152 -0.078 -0.273 -0.156 -0.273 -0.176 c 0 -0.02 0.34 -0.223 0.754 -0.449 c 0.762 -0.418 0.887 -0.445 1.133 -0.242 c 0.508 0.32 0.957 0.551 1.5 0.863 c 0.359 0.203 0.68 0.402 1.063 0.586 c 0.133 0.063 0.234 0.145 0.223 0.176 c -0.016 0.051 -0.789 0.496 -0.855 0.496 c -0.008 0 -0.113 -0.121 -0.23 -0.266"/></g><path d="m 6.254 6.301 c 0 -0.855 0.004 -0.887 0.145 -0.949 c 0.359 -0.184 0.695 -0.402 1.043 -0.582 l 0.375 -0.195 v 1.746 l -0.734 0.406 c -0.402 0.223 -0.754 0.418 -0.781 0.434 c -0.027 0.016 -0.047 -0.371 -0.047 -0.859" fill="#f15b25"/><path d="m 9.207 7.06 c -0.113 -0.059 -0.457 -0.246 -0.766 -0.422 l -0.559 -0.313 c 0.078 -0.563 0.047 -1.074 0.031 -1.754 c 0.016 0 0.246 0.125 0.508 0.277 c 0.262 0.152 0.59 0.336 0.727 0.406 c 0.137 0.07 0.262 0.16 0.277 0.199 c 0.016 0.039 0.02 0.441 0.008 0.891 l -0.02 0.824" fill="#f48131"/><path d="m 9.547 5.41 c 0.367 -0.203 0.742 -0.41 1.094 -0.617 c 0.207 -0.121 0.395 -0.223 0.41 -0.223 c 0.016 0 0.023 0.402 0.012 0.891 l -0.016 0.887 c -0.371 0.195 -0.75 0.406 -1.098 0.598 l -0.441 0.246 c 0.012 -0.594 0.027 -1.188 0.039 -1.781" fill="#f15b25"/><g fill="#f48131"><path d="m 4.621 6.332 c 0 -0.969 0.012 -1.762 0.027 -1.762 c 0.012 0 0.359 0.188 0.766 0.414 l 0.742 0.418 l 0.016 0.801 c 0.02 0.801 0.02 0.801 -0.105 0.645 c -0.102 -0.121 -0.188 -0.152 -0.402 -0.148 c -0.363 0.012 -0.527 0.176 -0.563 0.586 c -0.055 0.59 -0.16 0.809 -0.387 0.809 c -0.078 0 -0.094 -0.277 -0.094 -1.762"/><path d="m 7.59 9.832 c -0.07 -0.043 -0.242 -0.145 -0.379 -0.227 c -0.246 -0.148 -0.25 -0.156 -0.125 -0.242 c 0.07 -0.051 0.164 -0.184 0.211 -0.293 c 0.141 -0.34 -0.117 -0.711 -0.496 -0.715 c -0.125 0 -0.273 -0.066 -0.375 -0.16 c -0.148 -0.137 -0.172 -0.215 -0.172 -0.523 v -0.363 l 0.211 0.105 c 0.117 0.059 0.254 0.145 0.309 0.188 c 0.094 0.074 0.84 0.496 1.148 0.648 c 0.133 0.063 0.129 0.07 -0.066 0.199 c -0.277 0.188 -0.309 0.539 -0.078 0.871 c 0.09 0.133 0.152 0.297 0.141 0.371 c -0.016 0.07 -0.027 0.152 -0.031 0.18 c -0.008 0.07 -0.148 0.051 -0.297 -0.039"/></g><path d="m 10.785 10.465 c -0.504 -0.336 -0.684 -0.617 -0.691 -1.082 c -0.012 -0.551 0 -0.602 0.152 -0.676 c 0.082 -0.043 0.289 -0.156 0.461 -0.254 c 0.172 -0.098 0.328 -0.164 0.344 -0.148 c 0.016 0.016 0.023 0.547 0.012 1.18 l -0.016 1.152" fill="#f15b25"/><path d="m 8.699 10.473 l -0.719 -0.414 v -0.324 c 0 -0.215 -0.039 -0.367 -0.113 -0.449 c -0.059 -0.066 -0.117 -0.234 -0.125 -0.371 c -0.016 -0.195 0.016 -0.277 0.133 -0.371 c 0.168 -0.137 0.398 -0.16 0.504 -0.055 c 0.07 0.066 0.465 0.297 0.855 0.5 l 0.215 0.105 v 0.902 c 0 0.496 -0.008 0.898 -0.02 0.895 c -0.008 -0.004 -0.336 -0.191 -0.73 -0.418" fill="#9c9ea2"/><path d="m 7.898 12.746 c 0.012 -0.605 0.043 -0.902 0.094 -0.918 c 0.039 -0.016 0.094 0.031 0.113 0.098 c 0.082 0.262 0.574 0.355 0.863 0.164 c 0.203 -0.133 0.41 -0.59 0.367 -0.813 c -0.016 -0.098 0.012 -0.195 0.074 -0.246 c 0.086 -0.07 0.102 -0.246 0.102 -1.016 v -0.93 l 0.215 -0.102 l 0.211 -0.102 l 0.035 0.402 c 0.016 0.223 0.082 0.5 0.145 0.613 c 0.148 0.273 0.527 0.641 0.77 0.738 l 0.191 0.082 v 1.152 l -0.277 0.137 c -0.379 0.188 -0.723 0.395 -1.094 0.602 c -0.504 0.27 -1.047 0.59 -1.516 0.855 l -0.313 0.18" fill="#7f8185"/><path d="m 7.641 13.539 c -0.34 -0.219 -0.68 -0.371 -1.031 -0.586 c -0.359 -0.219 -0.754 -0.41 -1.105 -0.617 c -0.289 -0.172 -0.586 -0.328 -0.883 -0.484 v -0.867 c 0 -0.48 0.023 -0.867 0.051 -0.867 c 0.027 0.004 0.137 0.063 0.242 0.129 c 0.109 0.07 0.316 0.188 0.457 0.262 c 0.402 0.211 0.77 0.438 1.176 0.648 c 0.305 0.164 0.629 0.355 0.895 0.512 l 0.375 0.215 v 0.879 c 0 0.48 -0.008 0.875 -0.016 0.875 c -0.012 0 -0.082 -0.047 -0.16 -0.098" fill="#9c9ea2"/><path d="m 6.938 11.344 c -0.613 -0.367 -1.285 -0.77 -1.859 -1.086 c -0.195 -0.109 -0.355 -0.223 -0.348 -0.25 c 0.348 -0.266 0.781 -0.508 1.176 -0.711 l 0.336 -0.172 l 0.25 0.168 c 0.137 0.094 0.219 0.168 0.184 0.168 c -0.035 0 -0.105 0.063 -0.148 0.137 c -0.113 0.176 0.004 0.461 0.238 0.57 c 0.199 0.094 0.793 0.035 0.969 -0.027 c 0.16 -0.059 0.195 -0.055 0.617 0.223 c 0.539 0.297 0.828 0.387 0.957 0.531 c 0.07 0.082 -0.324 -0.129 -0.434 -0.129 c -0.207 0 -0.625 0.195 -0.746 0.348 c -0.145 0.195 -0.078 0.449 -0.164 0.637 c -0.027 0.004 -0.008 0.051 -0.086 0.063 c -0.305 -0.051 -0.629 -0.379 -0.941 -0.469" fill="#bbbec0"/><path d="m 6.602 9.273 c -0.109 -0.07 -0.406 -0.234 -0.652 -0.367 c -0.664 -0.359 -1.16 -0.633 -1.188 -0.656 c -0.012 -0.012 0.059 -0.09 0.156 -0.176 c 0.152 -0.129 0.191 -0.23 0.234 -0.602 c 0.066 -0.531 0.18 -0.684 0.512 -0.684 c 0.398 0 0.523 0.195 0.523 0.813 c 0 0.469 0.012 0.52 0.172 0.656 c 0.094 0.078 0.285 0.16 0.422 0.18 c 0.484 0.066 0.621 0.539 0.246 0.844 c -0.172 0.145 -0.176 0.145 -0.426 -0.008" fill="#9c9ea2"/><path d="m 9.211 8.871 c -0.238 -0.09 -0.133 -0.078 -0.691 -0.355 c -0.117 -0.051 -0.195 -0.094 -0.176 -0.094 c 0.02 -0.004 0.211 -0.035 0.422 -0.078 c 0.215 -0.039 0.477 -0.082 0.586 -0.09 c 0.422 -0.031 0.75 0.359 0.504 0.605 c -0.27 0.168 -0.453 0.125 -0.645 0.012" fill="#bbbec0"/><path d="m 8.219 11.969 c -0.137 -0.156 -0.059 -0.246 0.504 -0.563 l 0.531 -0.301 v 0.281 c 0 0.406 -0.207 0.723 -0.598 0.723 c -0.168 -0.004 -0.387 -0.082 -0.438 -0.141" fill="#f15b25"/><g fill="#f99d1f"><path d="m 6.824 10.11 c -0.145 -0.051 -0.313 -0.266 -0.313 -0.355 c 0 -0.043 0.066 -0.121 0.148 -0.172 c 0.129 -0.086 0.168 -0.082 0.344 0.02 c 0.105 0.066 0.32 0.184 0.477 0.266 l 0.285 0.152 l -0.184 0.078 c -0.195 0.082 -0.59 0.074 -0.758 0.012"/><path d="m 9.188 10.918 c 0.137 0.156 -0.031 0.188 -0.598 0.508 l -0.527 0.301 v -0.281 c 0 -0.406 0.27 -0.688 0.66 -0.684 c 0.172 0.004 0.414 0.098 0.465 0.156"/></g></svg>