<svg xmlns="http://www.w3.org/2000/svg" viewBox="0 0 16 16"><path d="m 13.199 2.32 c 12.613 16.648 -22.1 19.02 -10.961 2.02 c 2.539 -3.875 7.617 -6.43 10.961 -2.02" fill="#3d3d3d"/><g fill-rule="evenodd"><path d="m 12.527 8.758 c 0 2.48 -1.832 4.488 -4.09 4.488 c -2.258 0 -4.09 -2.01 -4.09 -4.488 c 0 -2.477 1.832 -4.488 4.09 -4.488 c 2.258 0 4.09 2.01 4.09 4.488" fill-opacity="0.102"/><path d="m 12.254 8.461 c 0 2.477 -1.828 4.484 -4.09 4.484 c -2.258 0 -4.09 -2.01 -4.09 -4.484 c 0 -2.48 1.832 -4.488 4.09 -4.488 c 2.262 0 4.09 2.01 4.09 4.488" fill="#d8d840"/><path d="m 6.391 5.094 c -1.094 0.695 -1.77 1.977 -1.77 3.367 h 2.453 c 0 0.426 0.207 0.82 0.543 1.035 l -1.227 2.332 c 1.098 0.695 2.449 0.695 3.547 0 l -1.227 -2.332 c 0.336 -0.215 0.543 -0.609 0.543 -1.035 h 2.457 c 0 -1.391 -0.676 -2.672 -1.773 -3.367 l -1.227 2.332 c -0.168 -0.105 -0.355 -0.16 -0.547 -0.16 c -0.191 0 -0.379 0.055 -0.547 0.16 m 0.547 0.438 c 0.301 0 0.547 0.266 0.547 0.598 c 0 0.328 -0.246 0.598 -0.547 0.598 c -0.301 0 -0.547 -0.27 -0.547 -0.598 c 0 -0.332 0.246 -0.598 0.547 -0.598" fill="#282828"/></g></svg>