<svg xmlns="http://www.w3.org/2000/svg" viewBox="0 0 16 16"><defs><clipPath id="0"><path d="m 4 3 h 7 v 10 h -7"/></clipPath><clipPath id="1"><path d="m 14.457 7.848 c 0 4.285 -3.316 7.754 -7.398 7.754 c -4.086 0 -7.402 -3.469 -7.402 -7.754 c 0 -4.281 3.316 -7.75 7.402 -7.75 c 4.082 0 7.398 3.469 7.398 7.75"/></clipPath><clipPath id="2"><path d="m 3 3 h 8 v 10 h -8"/></clipPath></defs><path d="m 11.891 14.676 c -20.59 8.477 -10.914 -27.18 2.531 -9.867 c 2.34 3.105 2.52 8.324 -2.531 9.867" fill="#c3e2dd"/><g clip-path="url(#0)"><g clip-path="url(#1)"><path d="m 7.305 3.805 c -1.375 2.355 -3.496 5.172 -3.094 6.66 c 1.809 2.734 4.324 2.867 6.324 0 c 0.469 -1.727 -1.875 -4.34 -3.23 -6.66" fill-opacity="0.102"/></g></g><g clip-path="url(#2)"><g clip-path="url(#1)"><path d="m 6.984 3.469 c -1.375 2.355 -3.496 5.168 -3.094 6.66 c 1.809 2.734 4.32 2.867 6.324 0 c 0.465 -1.73 -1.879 -4.344 -3.23 -6.66" fill="#0a1f20"/></g></g></svg>