<svg xmlns="http://www.w3.org/2000/svg" viewBox="0 0 16 16"><path d="m 0.203 6.168 c 3.125 -14.992 24.617 1.105 11.707 8.727 c -5.02 3.266 -13.313 -1.012 -11.707 -8.727" fill="#453330"/><path d="m 173.49 233.08 c -1.529 -1.158 -4.32 -3.449 -6.214 -5.148 l -3.394 -2.999 l 4.185 -4.51 c 4.525 -4.839 5.01 -6.887 3.356 -14.05 c -0.994 -4.43 -3.826 -7.519 -9.424 -10.369 l -4.301 -2.219 l 6.103 -9.889 c 14.09 -22.992 18.885 -39.436 14.06 -48.712 c -0.969 -1.899 -3.624 -5.188 -5.883 -7.428 l -4.138 -4.01 l 4.278 -3.635 c 6.66 -5.645 9.281 -9.15 9.305 -12.254 c 0.06 -3.606 -1.411 -5.05 -5.148 -5.05 c -2.042 0.021 -4.059 0.91 -6.308 2.934 c -3.061 2.668 -4.361 3.049 -21.385 5.892 c -9.984 1.642 -25.05 4.529 -33.564 6.312 c -8.466 1.86 -16.08 3.223 -16.867 3.075 c -0.918 -0.16 0.925 -1.862 4.556 -4.33 c 7.02 -4.744 8.483 -6.915 7.688 -11.326 c -0.786 -4.121 -3.395 -5.311 -11.683 -5.312 c -3.471 0.028 -6.388 -0.325 -6.382 -0.685 c 0.009 -1.372 15.02 -17.918 25.464 -28.11 c 6.863 -6.637 10.701 -11.11 11.145 -12.944 l 0.714 -2.821 l 17.07 -0.094 c 16.524 -0.074 17.15 -0.158 21.998 -2.583 c 6.514 -3.275 10.259 -6.961 14.831 -14.685 c 3.5 -5.804 3.92 -6.197 4.446 -4.124 c 0.781 2.82 0.77 18.784 0.029 22.398 c -0.618 2.686 -0.781 2.815 -5.407 2.515 c -6.388 -0.325 -10.221 1.474 -14.81 6.957 l -3.852 4.542 l -7.309 0.526 c -12.532 0.819 -18.329 5.897 -18.348 15.936 c 0.015 3.902 0.435 5.171 2.612 7.475 c 3.894 4.203 8.538 5.082 20.329 3.903 c 12.686 -1.238 15.96 -2.296 15.284 -4.961 c -1.165 -4.591 -1.667 -9.768 -0.986 -9.775 c 0.4 0.038 3.643 2.445 7.251 5.392 c 3.541 2.941 9.501 7.342 13.144 9.787 c 3.643 2.445 6.649 4.684 6.628 5.116 c 0.061 0.367 -1.704 1.353 -3.773 2.166 c -5.992 2.386 -13.393 7.671 -15.452 11.09 c -2.618 4.155 -1.177 7.4 3.883 8.897 c 1.912 0.617 4.33 2.077 5.245 3.249 c 2.417 3.122 4.813 13.971 3.754 17.482 c -0.453 1.546 -4.115 7.479 -8.147 13.232 c -8.04 11.365 -11.745 18.521 -12.64 24.21 c -0.395 2.924 0.064 4.991 2.318 9.903 c 2.523 5.588 2.795 6.915 2.303 11.635 c -0.765 6.717 0.539 10.96 4.263 13.341 c 4.541 3.037 5.058 4.82 2.056 7.205 c -1.446 1.089 -4.049 3.512 -5.869 5.432 c -1.754 1.927 -3.435 3.499 -3.701 3.473 c -0.267 -0.026 -1.772 -0.965 -3.316 -2.052" transform="matrix(-0.0575 0.00519 -0.01178 -0.05407 18.679 14.432)" fill="#f4f4f4" stroke="#f4f4f4" stroke-width="0.919"/></svg>