<svg xmlns="http://www.w3.org/2000/svg" xmlns:xlink="http://www.w3.org/1999/xlink" viewBox="0 0 16 16"><defs><g id="5" clip-path="url(#4)"><path d="m 10.414 8.488 c 0.613 0.012 0.098 -0.012 1.582 0.082 c 0.25 -0.148 0.426 -0.73 -0.016 -1.301 c -0.484 -0.641 -1.266 -0.363 -1.582 0.117 c -0.273 0.543 -0.086 0.82 0.016 1.098"/><path d="m 4.547 8.605 c 0.629 -0.055 0.625 -0.059 1.746 -0.141 c 0.121 -0.309 0.23 -0.492 -0.211 -1.066 c -0.488 -0.637 -1.266 -0.363 -1.586 0.117 c -0.27 0.543 -0.195 0.883 0.051 1.09"/><path d="m 4.504 8.637 v 0.02 c -0.008 0.023 -0.008 0.051 0 0.074 c 0.008 0.031 0.023 0.055 0.043 0.078 c 0.07 0.082 0.176 0.137 0.285 0.148 c 0.109 0.012 0.223 -0.012 0.32 -0.066 c 0.082 -0.043 0.156 -0.105 0.242 -0.152 c 0.082 -0.043 0.172 -0.066 0.27 -0.074 c 0.137 -0.004 0.27 0.031 0.41 0.016 c 0.066 -0.008 0.133 -0.027 0.191 -0.066 c 0.027 -0.02 0.051 -0.043 0.066 -0.07 c 0.02 -0.031 0.031 -0.063 0.035 -0.098 c 0.004 -0.039 -0.008 -0.082 -0.023 -0.117 c -0.02 -0.035 -0.047 -0.07 -0.074 -0.098 c -0.063 -0.059 -0.137 -0.098 -0.203 -0.145 c -0.039 -0.023 -0.078 -0.055 -0.121 -0.066 c -0.055 -0.016 -0.113 -0.004 -0.172 -0.012 c -0.059 -0.008 -0.113 -0.031 -0.172 -0.047 c -0.117 -0.035 -0.238 -0.035 -0.359 -0.016 c -0.117 0.023 -0.23 0.07 -0.336 0.137 c -0.098 0.059 -0.188 0.137 -0.23 0.242 c -0.008 0.02 -0.016 0.043 -0.023 0.063 c -0.035 0.09 -0.086 0.176 -0.148 0.25"/><path d="m 5.109 7.367 c 0 0.078 -0.082 0.141 -0.184 0.141 c -0.102 0 -0.188 -0.063 -0.188 -0.141 c 0 -0.074 0.086 -0.141 0.188 -0.141 c 0.102 0 0.184 0.066 0.184 0.141"/><path d="m 10.973 7.434 c 0 0.078 -0.082 0.141 -0.188 0.141 c -0.102 0 -0.184 -0.063 -0.184 -0.141 c 0 -0.074 0.082 -0.137 0.184 -0.137 c 0.105 0 0.188 0.063 0.188 0.137"/><path d="m 10.289 11.195 c 0 0.168 -0.855 0.305 -1.914 0.305 c -1.055 0 -1.91 -0.137 -1.91 -0.305 c 0 -0.172 0.852 -0.313 1.91 -0.313 c 1.055 0 1.914 0.141 1.914 0.313"/><path d="m 9.895 11.195 c 0 0.129 -0.625 0.238 -1.398 0.238 c -0.77 0 -1.395 -0.109 -1.395 -0.238 c 0 -0.137 0.625 -0.242 1.395 -0.242 c 0.773 0 1.398 0.105 1.398 0.242"/><path d="m 9.246 11.195 c 0 0.07 -0.336 0.125 -0.75 0.125 c -0.41 0 -0.746 -0.059 -0.746 -0.125 c 0 -0.074 0.336 -0.129 0.746 -0.129 c 0.414 0 0.75 0.055 0.75 0.129"/><path d="m 4.566 9.02 c 2.523 -0.117 5.05 -0.176 7.598 0 c -0.418 1.898 -1.953 1.918 -3.48 1.949 c -1.719 0.082 -3.812 -0.492 -4.117 -1.949"/><path d="m 5.246 9.605 c 0.027 0.141 -0.059 0.344 0.07 0.434 c 0.789 0.547 2.273 0.789 3.281 0.809 c 1.332 0.008 2.379 -0.109 2.738 -0.582 c 0.078 -0.105 0 -0.395 0.008 -0.551 l -0.723 -0.02 l 0.723 -0.07 l -0.07 -0.566 h -3.453 l -0.008 0.645 l -0.773 -0.023 l 0.031 -0.59 l -1.832 -0.063 l 0.008 0.516 l 0.57 0.02"/></g><clipPath id="8"><path d="m 4 7 h 3 v 2 h -3"/></clipPath><clipPath id="D"><path d="m 4 8 h 8 v 3 h -8"/></clipPath><clipPath id="9"><path d="m 4 6 h 1 v 2 h -1"/></clipPath><clipPath id="B"><path d="m 6 10 h 4 v 2 h -4"/></clipPath><clipPath id="C"><path d="m 7 10 h 2 v 2 h -2"/></clipPath><clipPath id="A"><path d="m 10 6 h 1 v 2 h -1"/></clipPath><clipPath id="7"><path d="m 4 6 h 3 v 3 h -3"/></clipPath><clipPath id="0"><path d="m 0 1 h 16 v 15 h -16"/></clipPath><clipPath id="6"><path d="m 9 6 h 3 v 3 h -3"/></clipPath><clipPath id="1"><path d="m 15.332 8.707 c 0 3.945 -3.262 7.137 -7.281 7.137 c -4.02 0 -7.285 -3.191 -7.285 -7.137 c 0 -3.941 3.266 -7.137 7.285 -7.137 c 4.02 0 7.281 3.195 7.281 7.137"/></clipPath><clipPath id="4"><path d="M 0,0 H16 V16 H0 z"/></clipPath><filter id="2" filterUnits="objectBoundingBox" x="0" y="0" width="16" height="16"><feColorMatrix type="matrix" in="SourceGraphic" values="0 0 0 0 1 0 0 0 0 1 0 0 0 0 1 0 0 0 1 0"/></filter><mask id="3"><g filter="url(#2)"><path fill-opacity="0.102" d="M 0,0 H16 V16 H0 z"/></g></mask></defs><path d="m 14.445 3.496 c 7.996 11.602 -17.508 18.75 -14.13 3.75 c 1.438 -6.199 10.461 -9.961 14.13 -3.75" fill="#d72c13"/><g clip-path="url(#0)"><g clip-path="url(#1)"><use xlink:href="#5" mask="url(#3)"/></g></g><g clip-path="url(#6)"><g clip-path="url(#1)"><path d="m 10.1 8.18 c 0.609 0.008 0.094 -0.012 1.582 0.078 c 0.25 -0.148 0.426 -0.727 -0.016 -1.301 c -0.484 -0.637 -1.266 -0.363 -1.582 0.121 c -0.273 0.539 -0.086 0.816 0.016 1.098"/></g></g><g clip-path="url(#7)"><g clip-path="url(#1)"><path d="m 4.23 8.297 c 0.629 -0.055 0.625 -0.063 1.742 -0.145 c 0.125 -0.305 0.234 -0.492 -0.207 -1.062 c -0.488 -0.641 -1.27 -0.363 -1.586 0.117 c -0.27 0.543 -0.195 0.883 0.051 1.09"/></g></g><g clip-path="url(#8)"><g clip-path="url(#1)"><path d="m 4.188 8.324 v 0.02 c -0.008 0.023 -0.008 0.051 0 0.074 c 0.004 0.031 0.023 0.055 0.043 0.082 c 0.066 0.082 0.176 0.133 0.285 0.145 c 0.109 0.016 0.219 -0.012 0.32 -0.063 c 0.082 -0.047 0.156 -0.109 0.242 -0.156 c 0.082 -0.043 0.172 -0.063 0.27 -0.07 c 0.133 -0.008 0.27 0.027 0.41 0.012 c 0.066 -0.004 0.133 -0.023 0.191 -0.063 c 0.023 -0.02 0.051 -0.043 0.066 -0.07 c 0.02 -0.031 0.031 -0.063 0.035 -0.098 c 0.004 -0.043 -0.008 -0.082 -0.027 -0.121 c -0.016 -0.035 -0.043 -0.066 -0.074 -0.094 c -0.059 -0.059 -0.133 -0.102 -0.199 -0.145 c -0.039 -0.027 -0.078 -0.055 -0.125 -0.066 c -0.051 -0.02 -0.109 -0.008 -0.168 -0.016 c -0.059 -0.004 -0.113 -0.027 -0.172 -0.043 c -0.117 -0.035 -0.238 -0.039 -0.359 -0.016 c -0.117 0.02 -0.23 0.07 -0.336 0.133 c -0.098 0.063 -0.188 0.141 -0.23 0.242 c -0.008 0.023 -0.016 0.043 -0.023 0.066 c -0.035 0.09 -0.086 0.172 -0.148 0.246" fill="#952f51"/></g></g><g clip-path="url(#9)"><g clip-path="url(#1)"><path d="m 4.793 7.06 c 0 0.074 -0.082 0.137 -0.184 0.137 c -0.102 0 -0.188 -0.063 -0.188 -0.137 c 0 -0.078 0.086 -0.141 0.188 -0.141 c 0.102 0 0.184 0.063 0.184 0.141" fill="#deffff"/></g></g><g clip-path="url(#A)"><g clip-path="url(#1)"><path d="m 10.656 7.125 c 0 0.078 -0.082 0.141 -0.188 0.141 c -0.102 0 -0.184 -0.063 -0.184 -0.141 c 0 -0.078 0.082 -0.141 0.184 -0.141 c 0.105 0 0.188 0.063 0.188 0.141" fill="#deffff"/></g></g><g clip-path="url(#B)"><g clip-path="url(#1)"><path d="m 9.973 10.883 c 0 0.172 -0.855 0.309 -1.914 0.309 c -1.055 0 -1.91 -0.137 -1.91 -0.309 c 0 -0.172 0.852 -0.309 1.91 -0.309 c 1.055 0 1.914 0.137 1.914 0.309" fill="#a31200"/><path d="m 9.578 10.883 c 0 0.133 -0.629 0.238 -1.398 0.238 c -0.77 0 -1.395 -0.105 -1.395 -0.238 c 0 -0.137 0.625 -0.242 1.395 -0.242 c 0.773 0 1.398 0.109 1.398 0.242" fill="#8e0f00"/></g></g><g clip-path="url(#C)"><g clip-path="url(#1)"><path d="m 8.926 10.883 c 0 0.07 -0.332 0.129 -0.746 0.129 c -0.414 0 -0.746 -0.059 -0.746 -0.129 c 0 -0.07 0.336 -0.129 0.746 -0.129 c 0.414 0 0.746 0.059 0.746 0.129" fill="#660800"/></g></g><g clip-path="url(#D)"><g clip-path="url(#1)"><path d="m 4.25 8.707 c 2.523 -0.117 5.05 -0.176 7.598 0 c -0.418 1.898 -1.953 1.918 -3.48 1.949 c -1.719 0.082 -3.813 -0.492 -4.117 -1.949"/><path d="m 4.93 9.293 c 0.027 0.141 -0.059 0.348 0.07 0.434 c 0.789 0.547 2.273 0.789 3.281 0.809 c 1.332 0.008 2.379 -0.105 2.738 -0.582 c 0.078 -0.105 0 -0.395 0.008 -0.547 l -0.723 -0.02 l 0.723 -0.07 l -0.07 -0.57 h -3.453 l -0.008 0.648 l -0.773 -0.023 l 0.031 -0.594 l -1.832 -0.059 l 0.008 0.512 l 0.57 0.02" fill="#fff4f3"/></g></g></svg>