<svg xmlns="http://www.w3.org/2000/svg" viewBox="0 0 16 16"><path d="m 12.12 14.04 c 14.172 -13.172 -15.07 -21.469 -11.848 -3.984 c 1.59 4.613 7.301 8.215 11.848 3.984" fill="#34393d"/><path d="m 7.945 3.313 l -1.203 0.891 h -1.809 l -0.602 0.594 h 2.711 l 0.902 -0.594 l 0.906 0.594 h 2.711 l -0.602 -0.594 h -1.809 m -1.207 0.895 c -1.66 0 -3.01 1.328 -3.01 2.969 c 0 1.641 1.352 2.973 3.01 2.973 c 1.664 0 3.02 -1.332 3.02 -2.973 c 0 -1.641 -1.352 -2.969 -3.02 -2.969 m -3.613 6.238 l 0.602 0.594 h 1.809 l 1.203 0.891 l 1.207 -0.891 h 1.809 l 0.602 -0.594 h -2.711 l -0.906 0.594 l -0.902 -0.594" fill-opacity="0.102"/><g fill="#8c8c8c"><path d="m 8.852 3.906 h 0.602 l 0.301 0.297 l 0.301 -0.297 h 0.605 l 0.602 0.594 h -2.711 l -0.906 -0.594 l -0.902 0.594 h -2.711 l 0.602 -0.594 h 1.809 l 1.203 -0.891 m -1.203 8.617 h -1.809 l -0.602 -0.594 h 2.711 l 0.902 0.594 l 0.906 -0.594 h 2.711 l -0.602 0.594 h -1.809 l -1.207 0.891"/><path d="m 10.66 7.77 c 0 1.641 -1.352 2.973 -3.02 2.973 c -1.664 0 -3.01 -1.332 -3.01 -2.973 c 0 -1.641 1.348 -2.973 3.01 -2.973 c 1.664 0 3.02 1.332 3.02 2.973"/></g><path d="m 10.05 7.918 c 0 -1.395 -1.078 -2.523 -2.41 -2.523 c -1.328 0 -2.41 1.129 -2.41 2.523 c 0 1.395 1.082 2.527 2.41 2.527 c 1.332 0 2.41 -1.133 2.41 -2.527" fill="#9b9b9b"/><path d="m 9.754 7.77 c 0 1.148 -0.941 2.082 -2.109 2.082 c -1.164 0 -2.105 -0.934 -2.105 -2.082 c 0 -1.148 0.941 -2.078 2.105 -2.078 c 1.168 0 2.109 0.93 2.109 2.078" fill="#5296d1"/><g fill="#fff" fill-opacity="0.251"><path d="m 9.453 7.77 c 0 0.984 -0.809 1.781 -1.809 1.781 c -0.996 0 -1.805 -0.797 -1.805 -1.781 c 0 -0.984 0.809 -1.781 1.805 -1.781 c 1 0 1.809 0.797 1.809 1.781"/><path d="m 9.152 7.77 c 0 0.82 -0.676 1.484 -1.508 1.484 c -0.832 0 -1.504 -0.664 -1.504 -1.484 c 0 -0.82 0.672 -1.484 1.504 -1.484 c 0.832 0 1.508 0.664 1.508 1.484"/><path d="m 8.852 7.77 c 0 0.656 -0.539 1.188 -1.207 1.188 c -0.664 0 -1.203 -0.531 -1.203 -1.188 c 0 -0.656 0.539 -1.188 1.203 -1.188 c 0.668 0 1.207 0.531 1.207 1.188"/><path d="m 8.551 7.77 c 0 0.492 -0.406 0.891 -0.906 0.891 c -0.496 0 -0.902 -0.398 -0.902 -0.891 c 0 -0.492 0.406 -0.891 0.902 -0.891 c 0.5 0 0.906 0.398 0.906 0.891"/></g></svg>