<svg xmlns="http://www.w3.org/2000/svg" viewBox="0 0 16 16"><path d="m 8.03 0.063 c 10.734 -1.215 10.586 16.13 -0.191 15.926 c -10.02 0.57 -10.93 -16.871 0.191 -15.926" fill="#4581b3"/><g stroke="#000" transform="matrix(0.05586 0 0 0.05272 -2.777 -6.05)"><g stroke-width="1.036"><g fill="none"><path d="m 108.39 310.48 l 81.33 46.899 c 0 0 81.54 -44.603 81.54 -47.05 c 0 -2.445 0 -93.28 0 -93.28 l -80.63 -46.529 l -81.47 47.05"/><path d="m 116.08 315.59 v -93.35 l 73.29 -42.38 l 73.921 42.75 v 91.87 l 0.07 1.185"/><path d="m 116.08 306.4 l 74.13 42.824 l 72.872 -42.08"/><path d="m 129.3 297.44 l 60.56 34.971 l 59.58 -34.378 l -60.07 -34.08"/><path d="m 129.3 231.2 l 60.56 34.897 l 59.58 -34.378 l -60.07 -34.01"/><path d="m 128.95 230.98 l 0.35 66.31"/><path d="m 189.51 266.17 l 0.21 65.867"/><path d="m 249.24 231.57 l 0.559 66.09"/></g><g fill-rule="evenodd"><path d="m 129.3 231.57 l -0.21 65.867 l 60.773 34.823 v -66.31" fill="#a00"/><path d="m 190.63 332.04 l 59.09 -34.23 l -0.909 -65.719 l -58.745 34.08" fill="#d40000"/><path d="m 130 231.2 l 59.51 34.6 l 59.51 -33.859 l -59.724 -33.934" fill="#7f0000"/></g><g fill="none"><path d="m 116.64 306.55 l 14.197 -8.15"/><path d="m 262.88 307.07 l -14.197 -8.15"/></g></g><g fill-rule="evenodd" stroke-linejoin="round" stroke-linecap="round" stroke-width="0.026"><path d="m 259.66 304.47 c -1.399 -0.815 -4.266 -2.445 -6.294 -3.63 c -3.01 -1.704 -3.637 -2.223 -3.287 -2.445 c 0.28 -0.222 0.28 -4.668 0.07 -33.04 c -0.21 -25.784 -0.21 -32.822 0.07 -33.19 c 0.14 -0.296 0.28 -0.593 0.21 -0.593 c -0.07 -0.074 -55.878 -31.711 -59.3 -33.637 l -1.748 -0.963 l -30.561 16.967 l -30.561 17.04 l 0.21 33.415 c 0.07 29.34 0.14 33.489 0.49 33.711 c 0.35 0.222 0.14 0.445 -1.119 1.185 c -2.867 1.778 -10.21 5.927 -10.56 6.075 c -0.35 0.148 -0.42 -4.742 -0.42 -41.34 v -41.565 l 36.3 -20.894 l 36.23 -20.968 l 36.646 21.19 l 36.646 21.12 v 41.565 c 0 22.82 -0.14 41.491 -0.21 41.491 c -0.14 0 -1.399 -0.667 -2.797 -1.482" fill="#00007f"/><path d="m 154.06 327.66 c -19.722 -11.484 -35.946 -20.894 -36.02 -20.968 c -0.14 -0.074 2.727 -1.778 6.224 -3.779 c 5.595 -3.26 6.434 -3.63 6.993 -3.408 c 0.839 0.37 11.959 6.742 36.995 21.19 c 19.722 11.41 21.82 12.521 22.24 12.225 c 0.979 -0.593 57.28 -33.19 57.63 -33.34 c 0.42 -0.148 13.637 7.483 13.358 7.705 c -0.35 0.222 -71.26 41.19 -71.4 41.12 c 0 0 -16.225 -9.335 -36.02 -20.745" fill="#9f5a2c"/><path d="m 263.93 268.39 v -46.23 l -37.28 -21.486 l -37.28 -21.56 l -36.856 21.338 l -36.926 21.264 l -0.14 92.02 l -3.147 -1.778 l -3.217 -1.852 v -6.89 c 0.07 -14.374 0.699 -85.28 0.839 -85.35 c 0 0 18.18 -10.521 40.35 -23.339 l 40.28 -23.19 l 0.769 0.37 c 0.42 0.222 18.393 10.595 40 23.04 l 39.23 22.672 l 0.07 46.31 l 0.07 46.38 l -0.979 0.741 c -1.049 0.815 -5.455 3.705 -5.665 3.705 c -0.07 0 -0.14 -20.82 -0.14 -46.16" fill="#3636c8"/><path d="m 153.36 335.67 l -36.37 -21.04 l -0.07 -3.482 l -0.07 -3.556 l 1.259 0.741 c 0.629 0.37 17.13 9.928 36.506 21.12 c 20.98 12.08 35.527 20.301 35.807 20.227 c 0.28 -0.074 60.703 -34.823 70.07 -40.31 l 2.168 -1.26 v 7.409 l -6.434 3.779 c -12.518 7.335 -34.897 20 -61.822 34.823 l -4.686 2.519" fill="#a40"/></g></g></svg>