<svg xmlns="http://www.w3.org/2000/svg" viewBox="0 0 16 16"><path d="m 14.566 12.289 c 5.34 -8.08 -5.703 -16.27 -12.145 -9.684 c -6.07 6.203 0.344 15.84 8.137 12.824 c 1.625 -0.625 3.03 -1.66 4.01 -3.141" fill="#007f7f"/><path d="m 5.539 11.957 c -0.531 -0.348 -0.996 -0.801 -1.34 -1.324 c -1.465 -2.41 -0.703 -3.746 -0.066 -4.812 c 0.348 -0.59 0.805 -1.051 1.477 -1.496 c 2.527 -1.281 3.543 -0.82 4.762 -0.008 c 0.676 0.449 1.168 0.953 1.512 1.543 c 1.203 2.266 0.68 3.156 -0.078 4.766 c -0.41 0.617 -0.91 1.074 -1.648 1.516 c -2.762 1.324 -3.266 0.688 -4.617 -0.184 m 1.352 -1.988 c 0.113 -0.133 0.336 -0.168 0.633 -0.094 c 0.352 0.086 0.59 0.086 0.926 0 c 0.293 -0.074 0.461 -0.055 0.625 0.074 c 0.102 0.078 0.125 0.078 0.238 0.023 c 0.066 -0.035 0.23 -0.176 0.359 -0.313 c 0.227 -0.234 0.234 -0.254 0.199 -0.406 c -0.02 -0.09 -0.031 -0.316 -0.023 -0.508 c 0.023 -0.641 0.02 -0.914 -0.016 -1.207 c -0.027 -0.289 0.066 -0.574 -0.055 -0.75 c -0.066 -0.094 -0.211 -0.238 -0.32 -0.324 c -0.18 -0.133 -0.219 -0.145 -0.379 -0.117 c -0.094 0.016 -0.27 0.027 -0.387 0.027 c -0.27 -0.008 -1.121 -0.008 -1.391 0 c -0.117 0 -0.289 -0.012 -0.387 -0.027 c -0.16 -0.027 -0.199 -0.016 -0.379 0.117 c -0.195 0.16 -0.465 0.426 -0.391 0.641 c 0.035 0.094 0.039 0.242 0.016 0.434 c -0.035 0.293 -0.035 0.566 -0.016 1.207 c 0.008 0.191 -0.004 0.418 -0.023 0.508 c -0.035 0.148 -0.023 0.172 0.18 0.387 c 0.191 0.207 0.434 0.391 0.508 0.391 c 0.016 0 0.051 -0.027 0.082 -0.063" fill="#e3e3e3"/><path d="m 7.223 12.879 c -0.379 -0.066 -0.801 -0.207 -0.918 -0.297 c -0.215 -0.164 -0.199 -0.25 0.23 -1.375 c 0.262 -0.688 0.434 -1.074 0.5 -1.125 c 0.105 -0.086 0.215 -0.086 0.664 0.016 c 0.207 0.051 0.305 0.051 0.551 0.004 c 0.586 -0.113 0.617 -0.113 0.727 0.008 c 0.152 0.16 0.895 2.129 0.855 2.262 c -0.074 0.238 -0.344 0.371 -0.996 0.492 c -0.398 0.074 -1.254 0.086 -1.613 0.016 m -3.734 -3.078 c -0.203 -0.203 -0.395 -1 -0.398 -1.672 c 0 -0.695 0.227 -1.641 0.43 -1.773 c 0.164 -0.105 0.402 -0.051 1.449 0.344 c 1.18 0.445 1.137 0.402 1.02 1.01 c -0.074 0.363 -0.078 0.445 -0.027 0.672 c 0.031 0.141 0.066 0.328 0.078 0.414 c 0.035 0.27 -0.074 0.34 -1.195 0.754 c -0.559 0.207 -1.063 0.375 -1.121 0.375 c -0.063 0 -0.164 -0.055 -0.234 -0.121 m 7.648 -0.254 c -0.707 -0.266 -1.027 -0.406 -1.098 -0.484 c -0.113 -0.125 -0.113 -0.172 -0.008 -0.703 c 0.047 -0.238 0.043 -0.328 -0.027 -0.668 c -0.121 -0.582 -0.156 -0.551 1.02 -0.992 c 1.016 -0.379 1.184 -0.426 1.367 -0.379 c 0.336 0.082 0.609 1.461 0.473 2.383 c -0.121 0.809 -0.332 1.223 -0.617 1.215 c -0.063 0 -0.563 -0.168 -1.109 -0.371 m -2.633 -3.406 c -0.211 -0.059 -0.594 -0.055 -1.191 0.012 c -0.195 0.023 -0.234 0.012 -0.316 -0.078 c -0.082 -0.09 -0.645 -1.496 -0.793 -1.98 c -0.121 -0.398 0.066 -0.563 0.844 -0.742 c 0.516 -0.117 1.453 -0.109 1.977 0.02 c 0.723 0.176 0.887 0.332 0.766 0.723 c -0.141 0.461 -0.707 1.891 -0.785 1.973 c -0.113 0.125 -0.234 0.145 -0.5 0.074" fill="#fb0355"/></svg>