<svg xmlns="http://www.w3.org/2000/svg" viewBox="0 0 16 16"><path d="m 0.754 5.03 c -6.01 19.449 26.28 9.723 11.18 -3.605 c -3.02 -2.672 -9.559 -1.641 -11.18 3.605" fill="#546a2f"/><g fill="#96d69f" fill-rule="evenodd"><path d="m 3.871 4.746 v 7.105 h 7.598 v -7.105 m -2.531 1.184 h 1.266 v 4.738 h -5.066 v -2.371 h 1.266 v 1.777 h 0.633 v -2.961 h 1.266 v 2.961 h 0.637"/><path d="m 8.938 4.152 v 0.594 h -0.637 v -0.594"/><path d="m 7.668 4.152 v 0.594 h -0.633 v -0.594"/><path d="m 6.402 4.152 v 0.594 h -0.633 v -0.594"/><path d="m 8.301 11.852 v 0.594 h -0.633 v -0.594"/><path d="m 7.04 11.852 v 0.594 h -0.633 v -0.594"/><path d="m 9.57 11.852 v 0.594 h -0.633 v -0.594"/><path d="m 3.871 8.891 h -0.633 v -0.594 h 0.633"/><path d="m 3.871 7.707 h -0.633 v -0.594 h 0.633"/><path d="m 3.871 10.07 h -0.633 v -0.59 h 0.633"/><path d="m 12.1 9.484 h -0.633 v -0.594 h 0.633"/><path d="m 12.1 8.297 h -0.633 v -0.59 h 0.633"/><path d="m 12.1 7.113 h -0.633 v -0.59 h 0.633"/></g></svg>