<svg xmlns="http://www.w3.org/2000/svg" viewBox="0 0 16 16"><path d="m 0.234 6.336 c 1.238 -8.242 13.574 -8.488 15.438 -0.477 c 1.922 6.488 -5.03 11.789 -10.227 9.664 c -3.48 -1 -6.289 -5.113 -5.211 -9.188" fill="#b0c3de"/><g fill="#3d77b8"><path d="m 3.848 7.793 c 0.461 -0.34 0.863 -0.559 1.469 -0.797 c 0.555 -0.215 0.668 -0.246 0.73 -0.195 c 0.031 0.023 0.078 0.117 0.105 0.203 c 0.074 0.211 0.043 0.246 -0.34 0.398 c -0.395 0.156 -0.684 0.309 -1.051 0.543 c -0.496 0.316 -0.691 0.434 -0.723 0.434 c -0.277 -0.207 -0.441 -0.402 -0.191 -0.586"/><path d="m 5.527 5.41 c -0.43 -0.152 -0.957 -0.371 -1.324 -0.559 c -0.246 -0.121 -0.645 -0.379 -0.645 -0.414 c 0 -0.051 0.289 -0.434 0.324 -0.434 c 0.027 0 0.398 0.18 0.828 0.395 c 0.484 0.258 0.984 0.461 1.5 0.629 c -0.043 0.156 -0.074 0.398 -0.211 0.48 c -0.082 0.047 -0.027 0.059 -0.473 -0.098"/><path d="m 6.918 5.727 c -0.031 -0.02 -0.027 -0.059 0.004 -0.156 c 0.078 -0.227 0.145 -0.293 0.461 -0.465 c 0.172 -0.094 0.395 -0.223 0.496 -0.289 c 0.102 -0.066 0.293 -0.168 0.418 -0.23 c 0.516 -0.137 1.055 -0.234 1.582 -0.027 c 0.113 0.047 0.203 0.102 0.203 0.129 c 0 0.078 -0.246 0.223 -0.438 0.258 c -0.098 0.016 -0.34 0.043 -0.539 0.055 c -0.414 0.027 -0.793 0.098 -0.941 0.176 c -0.055 0.027 -0.176 0.117 -0.273 0.199 c -0.25 0.215 -0.852 0.434 -0.973 0.352"/><path d="m 10.492 6.547 c -0.078 -0.043 -0.148 -0.09 -0.156 -0.098 c -0.055 -0.238 -0.055 -0.445 -0.086 -0.703 c -0.012 -0.082 0.02 -0.109 0.203 -0.203 c 0.375 -0.188 0.391 -0.168 0.391 0.477 c 0 0.613 -0.059 0.703 -0.352 0.527"/><path d="m 8.477 7.734 c -0.238 -0.055 -1.387 -0.613 -1.488 -0.727 c -0.031 -0.031 -0.063 -0.133 -0.074 -0.219 c -0.012 -0.125 -0.004 -0.164 0.043 -0.18 c 0.086 -0.035 0.344 0.047 0.82 0.27 c 0.668 0.305 0.758 0.324 1.371 0.297 c 0.48 -0.023 0.527 -0.02 0.664 0.047 c 0.082 0.039 0.18 0.098 0.215 0.129 c 0.07 0.051 0.07 0.055 -0.047 0.156 c -0.273 0.23 -0.992 0.34 -1.504 0.227"/></g><g fill="#ec9530"><path d="m 6.73 7.586 c -0.477 -0.434 -0.598 -1.52 -0.254 -2.27 c 0.141 -0.305 0.449 -0.75 0.559 -0.805 c 0.184 -0.09 0.574 -0.055 0.766 0.07 l 0.09 0.059 l -0.082 0.086 c -0.098 0.105 -0.227 0.176 -0.445 0.242 c -0.086 0.027 -0.211 0.098 -0.273 0.156 c -0.137 0.133 -0.266 0.371 -0.242 0.457 c 0.008 0.035 -0.004 0.07 -0.031 0.082 c -0.105 0.039 -0.039 1.098 0.082 1.348 c 0.051 0.102 0.117 0.152 0.379 0.281 c 0.387 0.191 0.445 0.238 0.395 0.301 c -0.051 0.063 -0.34 0.121 -0.594 0.121 c -0.188 0 -0.219 -0.012 -0.348 -0.129"/><path d="m 11.04 8.098 c -0.473 -0.48 -1.016 -0.91 -1.152 -0.91 c -0.324 -0.16 -0.652 -0.172 -0.922 -0.141 c -0.324 0.039 -0.398 0.039 -0.594 -0.012 c -0.383 -0.098 -0.402 -0.16 -0.094 -0.297 c 0.309 -0.141 0.621 -0.215 0.992 -0.238 c 0.773 -0.047 1.379 0.238 2.121 1.01 c 0.336 0.348 0.418 0.461 0.379 0.527 c -0.059 0.094 -0.367 0.34 -0.434 0.344 c -0.121 -0.105 -0.203 -0.188 -0.297 -0.281"/><path d="m 9.02 5.66 c -0.348 -0.051 -0.898 -0.238 -0.879 -0.305 c 0.027 -0.078 0.238 -0.191 0.402 -0.211 c 0.371 -0.059 0.789 0.059 1.125 -0.074 c 0.363 -0.148 0.734 -0.461 1.219 -1.031 c 0.199 -0.23 0.379 -0.426 0.402 -0.434 c 0.074 -0.027 0.504 0.293 0.504 0.375 c 0 0.059 -0.379 0.543 -0.641 0.82 c -0.137 0.145 -0.367 0.34 -0.508 0.438 c -0.211 0.184 -0.461 0.293 -0.688 0.355 c -0.34 0.086 -0.637 0.105 -0.938 0.066"/></g><g fill="#1f2020"><path d="m 6.01 12.559 c -0.043 -0.012 -0.082 -0.02 -0.082 -0.023 c -0.004 -0.004 -0.016 -0.504 -0.027 -1.109 l -0.02 -1.102 l -0.43 -0.012 l -0.426 -0.008 v -0.316 h 2.301 v 0.316 l -0.426 0.008 l -0.43 0.012 l -0.023 1.078 c -0.012 0.598 -0.039 1.098 -0.055 1.117 c -0.039 0.039 -0.273 0.063 -0.383 0.039"/><path d="m 7.852 12.555 c -0.113 -0.012 -0.121 -0.023 -0.145 -0.281 c -0.016 -0.148 -0.016 -0.723 0 -1.277 l 0.027 -1.01 h 0.582 v 2.559 h -0.109 c -0.117 0.004 -0.242 0.02 -0.355 0.008"/><path d="m 8.965 12.203 c 0 -0.207 0.012 -0.789 0.023 -1.293 l 0.023 -0.922 h 1.555 v 0.309 l -0.531 0.023 c -0.293 0.016 -0.531 0.027 -0.535 0.031 c 0 0.004 -0.012 0.156 -0.023 0.344 l -0.023 0.336 l 0.406 0.02 c 0.223 0.012 0.426 0.039 0.449 0.063 c 0.059 0.047 0.066 0.191 0.012 0.227 c -0.031 0.02 -0.574 0.078 -0.789 0.086 c -0.031 0 -0.043 0.102 -0.043 0.383 v 0.383 l 0.184 0.02 c 0.098 0.008 0.344 0.023 0.543 0.035 c 0.199 0.008 0.367 0.023 0.375 0.027 c 0.031 0.109 0.039 0.191 0.059 0.309 h -1.684"/></g></svg>