<svg xmlns="http://www.w3.org/2000/svg" viewBox="0 0 16 16"><path d="m 14.352 12.258 c 5.754 -8.148 -4.871 -16.406 -11.648 -9.766 c -6.387 6.254 -0.465 15.973 7.48 12.934 c 1.656 -0.633 3.113 -1.672 4.168 -3.168" fill="#696969"/><path d="m 14.168 7.965 c 0 3.426 -2.777 6.203 -6.203 6.203 c -3.426 0 -6.203 -2.777 -6.203 -6.203 c 0 -3.426 2.777 -6.203 6.203 -6.203 c 3.426 0 6.203 2.777 6.203 6.203" fill="#c0c0c0"/><path d="m 7.293 14.156 c -0.57 -0.105 -1.207 -0.227 -1.59 -0.453 c -1.797 -1.063 -3.25 0.039 -3.168 -2.137 c 1.32 -2.254 5.438 -8.02 5.66 -9.613 c 2.852 0.215 5.344 2.418 5.895 4.617 c 0.215 0.863 0.211 2.137 -0.004 2.945 c -0.594 2.199 -2.16 3.809 -4.332 4.449 c -0.465 0.137 -0.777 0.18 -1.441 0.199 c -0.465 0.012 -0.926 0.008 -1.016 -0.008" fill="#00c812"/><path d="m 13.219 7.355 c 0 2.266 -2.336 4.102 -5.219 4.102 c -2.883 0 -5.219 -1.836 -5.219 -4.102 c 0 -2.266 2.336 -4.102 5.219 -4.102 c 2.883 0 5.219 1.836 5.219 4.102" fill="#fff"/><path d="m 7.03 14.234 c -0.805 -0.129 -1.738 -0.48 -2.453 -0.926 c -0.238 -0.152 -0.258 -0.047 -0.656 -0.016 c -0.387 0.027 -0.566 0.004 -0.852 -0.141 c -0.504 -0.25 -0.832 -0.957 -0.699 -1.426 c 0.09 -0.324 0.199 -0.418 -0.051 -0.938 c -0.574 -1.281 -0.789 -2.461 -0.547 -3.887 c 0.461 -2.559 2.543 -4.609 5.145 -5.074 c 0.672 -0.117 1.758 -0.109 2.398 0.023 c 3.129 0.648 5.285 3.387 5.109 6.496 c -0.086 1.578 -0.672 2.898 -1.793 4.04 c -0.898 0.922 -1.969 1.508 -3.27 1.793 c -0.559 0.121 -1.742 0.148 -2.332 0.055 m 0.703 -0.469 c -0.016 -0.172 -0.023 -0.172 -0.367 -0.211 c -0.438 -0.051 -0.488 -0.031 -0.488 0.164 c 0 0.172 0.047 0.188 0.637 0.211 c 0.234 0.008 0.234 0.008 0.219 -0.164 m 1.172 0.117 c 0.02 -0.031 0.02 -0.117 0.004 -0.188 c -0.039 -0.141 -0.133 -0.156 -0.59 -0.094 c -0.234 0.031 -0.254 0.043 -0.254 0.184 c -0.039 0.25 0.215 0.152 0.402 0.152 c 0.227 0 0.418 -0.023 0.438 -0.055 m 0.773 -0.137 c 0.387 -0.109 0.422 -0.141 0.344 -0.316 c -0.043 -0.094 -0.098 -0.129 -0.16 -0.109 c -0.051 0.012 -0.23 0.063 -0.395 0.105 c -0.293 0.082 -0.301 0.09 -0.277 0.246 c 0.027 0.188 0.066 0.191 0.488 0.074 m -3.102 -0.051 c 0.078 -0.207 0.031 -0.262 -0.332 -0.387 c -0.348 -0.121 -0.363 -0.121 -0.434 -0.027 c -0.121 0.164 -0.051 0.25 0.313 0.371 c 0.43 0.145 0.41 0.145 0.453 0.043 m 4.191 -0.371 c 0.207 -0.102 0.379 -0.207 0.379 -0.23 c -0.043 -0.113 -0.113 -0.184 -0.191 -0.277 l -0.359 0.191 c -0.359 0.188 -0.359 0.191 -0.305 0.348 c 0.031 0.086 0.066 0.156 0.078 0.156 c 0.012 0 0.191 -0.082 0.398 -0.188 m -5.25 -0.129 c 0.055 -0.148 0.047 -0.164 -0.191 -0.293 c -0.289 -0.16 -0.277 -0.16 -0.402 -0.047 c -0.145 0.129 -0.129 0.164 0.156 0.34 c 0.316 0.195 0.367 0.195 0.438 0 m -1.137 -0.277 c 0.535 -0.438 0.688 -0.973 0.422 -1.5 c -0.207 -0.418 -0.477 -0.586 -0.98 -0.613 c -0.449 -0.02 -0.664 0.055 -0.938 0.332 c -0.207 0.215 -0.355 0.691 -0.301 0.996 c 0.055 0.316 0.309 0.664 0.605 0.82 c 0.227 0.121 0.305 0.133 0.648 0.113 c 0.305 -0.02 0.426 -0.051 0.539 -0.145 m -0.871 -0.695 c -0.168 -0.145 -0.156 -0.328 -0.027 -0.488 c 0.141 -0.18 0.379 -0.188 0.535 -0.027 c 0.137 0.148 0.137 0.262 -0.004 0.438 c -0.164 0.141 -0.387 0.172 -0.504 0.078 m 8.266 0.48 c 0.16 -0.121 0.293 -0.242 0.293 -0.27 c 0 -0.086 -0.109 -0.254 -0.168 -0.254 c -0.074 0 -0.641 0.426 -0.641 0.484 c 0 0.07 0.125 0.258 0.176 0.258 c 0.023 0 0.176 -0.098 0.34 -0.219 m 0.855 -0.805 c 0.137 -0.152 0.246 -0.309 0.246 -0.344 c 0 -0.035 -0.055 -0.102 -0.121 -0.148 c -0.113 -0.082 -0.129 -0.074 -0.301 0.117 c -0.34 0.387 -0.359 0.43 -0.25 0.551 c 0.051 0.055 0.113 0.105 0.137 0.105 c 0.023 0 0.152 -0.129 0.289 -0.281 m 0.738 -1.059 c 0.152 -0.297 0.152 -0.309 0.055 -0.363 c -0.172 -0.09 -0.25 -0.063 -0.344 0.117 c -0.047 0.094 -0.133 0.242 -0.184 0.324 c -0.098 0.148 -0.098 0.152 0.031 0.254 c 0.164 0.133 0.23 0.082 0.441 -0.332 m -10.34 -0.195 c -0.012 -0.078 -0.109 -0.348 -0.215 -0.598 c -0.277 -0.648 -0.363 -1.137 -0.363 -2.043 c 0 -0.781 0.039 -1.074 0.219 -1.66 c 0.633 -2.074 2.582 -3.652 4.777 -3.863 c 0.535 -0.055 0.617 -0.074 0.645 -0.164 c 0.063 -0.238 -0.008 -0.27 -0.504 -0.238 c -1.383 0.09 -3 0.859 -3.918 1.859 c -1.621 1.77 -2.078 4.176 -1.195 6.309 c 0.23 0.555 0.324 0.672 0.477 0.594 c 0.078 -0.039 0.098 -0.094 0.078 -0.195 m 10.773 -0.816 c 0.125 -0.402 0.102 -0.492 -0.113 -0.461 c -0.098 0.012 -0.148 0.09 -0.246 0.375 l -0.121 0.363 l 0.141 0.074 c 0.258 0.148 0.289 -0.191 0.34 -0.352 m -9.336 -0.758 c 0.434 -0.176 0.664 -0.719 0.621 -1.469 c -0.051 -0.805 -0.324 -1.176 -0.902 -1.211 c -0.422 -0.027 -0.633 0.094 -0.84 0.484 c -0.297 0.574 -0.238 1.535 0.117 1.953 c 0.254 0.297 0.645 0.391 1.01 0.242 m -0.605 -0.488 c -0.148 -0.188 -0.184 -0.398 -0.164 -0.977 c 0.027 -0.645 0.191 -0.875 0.559 -0.781 c 0.215 0.051 0.313 0.406 0.289 1.031 c -0.012 0.441 -0.035 0.563 -0.129 0.688 c -0.16 0.211 -0.406 0.227 -0.555 0.039 m 2.871 0.488 c 0.367 -0.152 0.57 -0.523 0.617 -1.121 c 0.051 -0.688 -0.129 -1.191 -0.527 -1.457 c -0.242 -0.16 -0.699 -0.145 -0.957 0.035 c -0.527 0.367 -0.617 1.816 -0.145 2.316 c 0.27 0.285 0.664 0.371 1.012 0.227 m -0.57 -0.445 c -0.16 -0.172 -0.215 -0.41 -0.219 -0.895 c 0 -0.551 0.105 -0.855 0.316 -0.906 c 0.348 -0.086 0.52 0.133 0.555 0.719 c 0.031 0.57 -0.023 0.895 -0.18 1.051 c -0.152 0.148 -0.355 0.16 -0.473 0.031 m 4.03 0.445 c 0.367 -0.152 0.57 -0.523 0.617 -1.121 c 0.055 -0.688 -0.129 -1.191 -0.527 -1.457 c -0.242 -0.16 -0.699 -0.145 -0.957 0.035 c -0.523 0.367 -0.613 1.816 -0.141 2.316 c 0.27 0.285 0.66 0.371 1.01 0.227 m -0.57 -0.445 c -0.16 -0.172 -0.215 -0.41 -0.215 -0.895 c 0 -0.551 0.105 -0.855 0.313 -0.906 c 0.352 -0.086 0.52 0.133 0.555 0.719 c 0.031 0.57 -0.023 0.895 -0.18 1.051 c -0.152 0.148 -0.352 0.16 -0.473 0.031 m 2.844 0.445 c 0.465 -0.191 0.711 -0.934 0.574 -1.727 c -0.07 -0.426 -0.211 -0.664 -0.488 -0.852 c -0.156 -0.105 -0.238 -0.121 -0.5 -0.105 c -0.371 0.027 -0.551 0.141 -0.742 0.473 c -0.121 0.215 -0.133 0.289 -0.133 0.875 c 0 0.582 0.012 0.664 0.137 0.906 c 0.23 0.438 0.703 0.613 1.152 0.43 m -0.613 -0.469 c -0.141 -0.148 -0.191 -0.395 -0.188 -0.895 c 0.008 -0.648 0.141 -0.906 0.473 -0.906 c 0.164 0 0.281 0.133 0.355 0.398 c 0.078 0.273 0.078 0.848 0.004 1.109 c -0.109 0.391 -0.418 0.531 -0.641 0.293 m -3.508 0.355 c 0.102 -0.223 0.004 -0.422 -0.219 -0.441 c -0.207 -0.02 -0.273 0.047 -0.277 0.266 c 0 0.242 0.055 0.309 0.25 0.309 c 0.145 0 0.199 -0.027 0.246 -0.133 m 5.684 -0.066 c 0.02 -0.109 0.035 -0.301 0.035 -0.426 c 0 -0.215 -0.008 -0.227 -0.164 -0.227 c -0.09 0 -0.16 0.02 -0.164 0.039 c 0 0.023 -0.023 0.195 -0.051 0.387 c -0.055 0.367 -0.027 0.426 0.195 0.426 c 0.09 0 0.121 -0.039 0.148 -0.199 m 0.035 -1.305 c -0.004 -0.461 -0.039 -0.535 -0.234 -0.488 c -0.16 0.039 -0.172 0.098 -0.109 0.598 c 0.031 0.262 0.043 0.277 0.188 0.277 c 0.234 0.004 0.156 -0.262 0.156 -0.387 m -5.715 0.047 c 0.07 -0.102 0.043 -0.34 -0.043 -0.43 c -0.102 -0.098 -0.301 -0.109 -0.391 -0.02 c -0.035 0.035 -0.066 0.156 -0.066 0.27 c 0 0.16 0.027 0.215 0.121 0.25 c 0.137 0.055 0.32 0.02 0.379 -0.07 m 5.531 -0.832 c 0.098 0 0.094 -0.051 -0.035 -0.484 c -0.113 -0.375 -0.172 -0.422 -0.348 -0.293 c -0.098 0.07 -0.098 0.082 -0.004 0.41 c 0.117 0.418 0.129 0.438 0.227 0.398 c 0.047 -0.016 0.117 -0.031 0.16 -0.031 m -0.305 -1.18 c 0 -0.074 -0.316 -0.672 -0.375 -0.707 c -0.133 0 -0.211 0.07 -0.324 0.141 l 0.191 0.367 c 0.102 0.203 0.195 0.367 0.211 0.367 c 0.117 -0.031 0.219 -0.082 0.297 -0.168 m -0.609 -0.98 c 0.031 -0.082 -0.402 -0.652 -0.5 -0.656 c -0.035 -0.004 -0.105 0.043 -0.156 0.102 c -0.09 0.098 -0.086 0.113 0.156 0.426 c 0.223 0.281 0.266 0.313 0.359 0.266 c 0.063 -0.031 0.121 -0.094 0.141 -0.137 m -0.754 -0.859 c 0.031 -0.082 -0.02 -0.137 -0.465 -0.48 l -0.18 -0.141 l -0.102 0.133 c -0.055 0.07 -0.098 0.145 -0.09 0.164 c 0.008 0.016 0.145 0.141 0.309 0.273 c 0.234 0.188 0.32 0.227 0.395 0.188 c 0.055 -0.027 0.113 -0.09 0.133 -0.137 m -0.988 -0.629 c 0.051 -0.078 0.086 -0.145 0.074 -0.156 c -0.055 -0.051 -0.586 -0.34 -0.676 -0.367 c -0.082 -0.027 -0.121 0 -0.172 0.105 c -0.035 0.078 -0.051 0.156 -0.035 0.172 c 0.043 0.039 0.645 0.375 0.684 0.379 c 0.02 0.004 0.074 -0.059 0.125 -0.133 m -1.01 -0.691 c -0.035 -0.031 -0.711 -0.238 -0.781 -0.238 c -0.105 0.059 -0.086 0.16 -0.094 0.273 c -0.008 0.063 0.5 0.246 0.703 0.254 c 0.156 -0.031 0.168 -0.148 0.172 -0.289 m -1.152 -0.113 c 0.02 -0.074 0.016 -0.156 -0.008 -0.18 c -0.023 -0.02 -0.234 -0.055 -0.469 -0.074 l -0.422 -0.035 l 0.02 0.176 c 0.016 0.168 0.027 0.176 0.285 0.207 c 0.535 0.063 0.555 0.059 0.594 -0.094" fill="#272827"/></svg>