<svg xmlns="http://www.w3.org/2000/svg" viewBox="0 0 16 16"><g fill="#fff"><path d="m 5.789 7.789 v 3.117 c 0 1.871 0.32 1.871 3.207 1.871 h 0.641 c 2.891 0 3.211 0 3.211 -1.871 v -3.117 c 0 -1.871 -0.32 -1.871 -3.211 -1.871 h -0.641 c -2.887 0 -3.207 0 -3.207 1.871 m 3.207 -1.246 h 0.641 c 2.566 0 2.566 0 2.566 1.246 v 2.184 c 0 1.246 0 1.246 -2.566 1.246 h -0.641 c -2.566 0 -2.566 0 -2.566 -1.246 v -2.184 c 0 -1.246 0 -1.246 2.566 -1.246"/><path d="m 7.07 10.03 v -1.211 l 1.125 -1.133 l 1.402 1.418 l 0.563 -0.57 l 1.402 1.418 v 0.078 c 0 0.566 -0.09 0.566 -1.121 0.566 h -2.246 c -1.027 0 -1.121 0 -1.121 -0.566"/><path d="m 11.563 7.789 c 0 0.344 -0.285 0.625 -0.641 0.625 c -0.355 0 -0.641 -0.281 -0.641 -0.625 c 0 -0.344 0.285 -0.621 0.641 -0.621 c 0.355 0 0.641 0.277 0.641 0.621"/><path d="m 7.715 4.672 c -2.891 0 -3.211 0 -3.211 1.871 v 3.117 c 0 1.016 0.098 1.48 0.645 1.691 v -4.809 c 0 -1.129 0.02 -1.234 1.922 -1.242 v -0.004 h 4.336 c -0.281 -0.625 -1.051 -0.625 -3.051 -0.625"/><path d="m 6.43 3.426 c -2.887 0 -3.207 0 -3.207 1.871 v 3.117 c 0 1.016 0.094 1.48 0.641 1.691 v -4.809 c 0 -1.129 0.02 -1.234 1.926 -1.246 v -0.004 h 4.332 c -0.281 -0.621 -1.047 -0.621 -3.051 -0.621"/></g><path d="m 13.152 13.688 c 12.508 -16.578 -21.91 -18.934 -10.863 -2.01 c 2.516 3.855 7.551 6.402 10.863 2.01" fill="#9acd31"/><g fill="#fff"><path d="m 4.523 11.484 c -0.438 -0.398 -1.051 -1.266 -1.187 -1.68 c -0.074 -0.223 -0.055 -0.293 0.203 -0.789 c 0.523 -0.988 0.559 -1.816 0.121 -2.711 l -0.191 -0.391 l 0.148 -0.285 c 0.223 -0.441 0.996 -1.43 1.297 -1.668 c 0.563 -0.441 0.547 -0.445 0.906 0.191 l 0.32 0.566 l -0.559 0.594 c -1.52 1.621 -1.613 3.316 -0.262 4.883 c 0.227 0.262 0.41 0.504 0.41 0.543 c 0 0.137 -0.609 1.129 -0.699 1.129 c -0.047 0 -0.277 -0.172 -0.508 -0.383"/><path d="m 7.691 10.531 c -0.914 -0.195 -1.656 -0.785 -2.055 -1.625 c -0.207 -0.438 -0.234 -0.559 -0.234 -1.145 c 0 -0.574 0.027 -0.707 0.215 -1.086 c 0.289 -0.594 1 -1.289 1.547 -1.508 c 0.336 -0.133 0.559 -0.168 1.113 -0.168 c 0.656 0 0.727 0.016 1.25 0.273 c 1 0.496 1.523 1.258 1.57 2.293 c 0.047 1.047 -0.23 1.688 -1.016 2.34 c -0.684 0.57 -1.57 0.805 -2.387 0.625 m -0.367 -2.914 c 0.348 -0.18 0.867 -0.684 1.023 -0.992 c 0.18 -0.352 0.184 -0.867 0.008 -1.082 c -0.188 -0.234 -0.742 -0.273 -1.176 -0.086 c -0.992 0.43 -1.578 1.641 -1.047 2.172 c 0.168 0.168 0.227 0.184 0.574 0.148 c 0.211 -0.023 0.488 -0.094 0.617 -0.16"/><path d="m 12.02 7.352 c -0.172 -0.855 -0.578 -1.621 -1.215 -2.285 c -0.863 -0.902 -1.953 -1.152 -3.43 -0.781 c -0.234 0.059 -0.434 0.094 -0.445 0.082 c -0.117 -0.117 -0.68 -1.109 -0.652 -1.152 c 0.02 -0.027 0.254 -0.145 0.523 -0.254 c 0.395 -0.164 0.637 -0.211 1.234 -0.234 c 0.41 -0.02 0.824 -0.012 0.922 0.012 c 0.105 0.027 0.324 0.25 0.551 0.551 c 0.656 0.887 1.52 1.379 2.418 1.383 h 0.488 l 0.398 0.793 c 0.406 0.805 0.695 1.563 0.695 1.813 c 0 0.184 -0.086 0.211 -0.824 0.27 l -0.613 0.051"/><path d="m 6.855 12.637 c -0.473 -0.098 -0.98 -0.293 -0.98 -0.379 c 0 -0.105 0.594 -1.055 0.684 -1.086 c 0.047 -0.02 0.324 0.016 0.617 0.074 c 0.723 0.152 1.676 0.145 2.277 -0.023 c 0.52 -0.145 1.188 -0.508 1.473 -0.809 c 0.301 -0.316 0.691 -1.035 0.848 -1.563 c 0.082 -0.281 0.188 -0.531 0.234 -0.563 c 0.043 -0.031 0.371 -0.055 0.723 -0.055 h 0.645 l -0.051 0.379 c -0.07 0.574 -0.215 1.02 -0.508 1.574 c -0.391 0.742 -0.484 0.805 -1.246 0.879 c -0.941 0.086 -1.563 0.363 -2.063 0.918 c -0.141 0.156 -0.301 0.391 -0.355 0.52 l -0.098 0.234 l -0.879 -0.008 c -0.484 -0.004 -1.078 -0.047 -1.32 -0.094"/></g></svg>