<svg xmlns="http://www.w3.org/2000/svg" viewBox="0 0 16 16"><path d="m 12.66 0.863 c -23.832 -6.949 -8.641 27.391 2.023 10.164 c 1.949 -3.164 2.086 -8.535 -2.023 -10.164" fill="#dcdcdc"/><path d="m 8.168 13.297 c 0.184 -0.078 0.387 -0.355 0.457 -0.621 c 0.035 -0.125 0.129 -0.832 0.211 -1.57 c 0.086 -0.734 0.18 -1.348 0.211 -1.359 c 0.027 -0.008 0.043 -0.129 0.031 -0.266 c -0.02 -0.199 0.008 -0.273 0.145 -0.41 c 0.211 -0.211 0.273 -0.152 0.32 0.289 c 0.051 0.512 0.07 0.535 0.23 0.301 c 0.078 -0.117 0.273 -0.297 0.434 -0.398 c 0.293 -0.188 0.422 -0.371 0.422 -0.594 c 0 -0.168 0.188 -0.25 0.574 -0.25 c 0.43 -0.004 0.617 -0.129 0.949 -0.633 c 0.191 -0.293 0.34 -0.445 0.566 -0.566 c 0.168 -0.09 0.328 -0.207 0.359 -0.262 c 0.063 -0.109 -0.262 -1.01 -0.582 -1.609 c -0.27 -0.504 -0.879 -1.074 -1.441 -1.34 c -0.25 -0.121 -0.555 -0.301 -0.676 -0.402 c -0.348 -0.297 -0.551 -0.305 -0.867 -0.039 c -0.148 0.125 -0.344 0.23 -0.434 0.234 c -0.094 0.004 -0.336 0.012 -0.543 0.023 c -0.207 0.008 -0.465 0.035 -0.578 0.059 c -0.133 0.031 -0.281 0.016 -0.445 -0.051 c -0.18 -0.07 -0.301 -0.082 -0.445 -0.039 c -0.336 0.094 -0.707 -0.012 -1.01 -0.297 c -0.211 -0.195 -0.438 -0.156 -0.781 0.129 c -0.133 0.113 -0.453 0.305 -0.711 0.43 c -0.832 0.41 -1.277 0.945 -1.723 2.078 c -0.32 0.828 -0.316 0.883 0.133 1.098 c 0.215 0.105 0.355 0.242 0.559 0.547 c 0.332 0.496 0.535 0.637 0.906 0.641 c 0.461 0 0.555 0.051 0.625 0.316 c 0.074 0.262 0.176 0.391 0.43 0.523 c 0.09 0.047 0.246 0.172 0.348 0.277 c 0.102 0.105 0.203 0.195 0.227 0.195 c 0.023 0 0.059 -0.156 0.074 -0.348 c 0.035 -0.438 0.125 -0.543 0.309 -0.355 c 0.129 0.129 0.199 0.402 0.277 1.078 c 0.18 1.535 0.344 2.645 0.422 2.793 c 0.047 0.094 0.148 0.227 0.219 0.293 c 0.145 0.129 0.598 0.191 0.797 0.105 m -0.703 -0.543 c -0.078 -0.113 -0.086 -0.234 -0.051 -0.539 c 0.023 -0.215 -0.227 -1.414 -0.156 -1.363 c 0.344 -0.09 0.344 0.527 0.426 0.824 c 0.047 0.16 0.137 0.137 0.289 0.066 c 0.098 -0.043 0.301 -1.016 0.527 -0.867 c 0.094 0.059 -0.23 1.855 -0.305 1.945 c -0.16 0.191 -0.59 0.152 -0.73 -0.066 m 0.578 0.008 c 0.059 -0.148 -0.066 -0.242 -0.258 -0.195 c -0.109 0.027 -0.156 0.078 -0.145 0.148 c 0.027 0.148 0.352 0.184 0.402 0.047 m -0.051 -0.641 c -0.012 -0.063 -0.074 -0.109 -0.145 -0.109 c -0.066 0 -0.133 0.047 -0.145 0.109 c -0.016 0.082 0.02 0.109 0.145 0.109 c 0.125 0 0.16 -0.027 0.145 -0.109 m 0.484 -1.688 c -0.059 -0.125 -0.395 -0.266 -0.637 -0.266 c -0.25 0 -0.559 0.125 -0.617 0.258 c -0.102 0.219 -0.188 0.137 -0.188 -0.18 c 0 -0.297 0 -0.297 0.188 -0.27 c 0.246 0.039 0.941 0.043 1.219 0.004 l 0.219 -0.031 l 0.02 0.332 c 0.016 0.254 0 0.328 -0.063 0.309 c -0.043 -0.012 -0.109 -0.082 -0.141 -0.156 m -1.375 -0.68 c -0.063 -0.023 -0.098 -0.113 -0.098 -0.25 v -0.211 h 0.746 c 0.41 0 0.789 -0.02 0.844 -0.039 c 0.078 -0.031 0.098 0.012 0.098 0.215 c 0 0.141 -0.031 0.266 -0.078 0.281 c -0.113 0.047 -1.395 0.051 -1.512 0.004 m 0.746 -0.742 c -0.207 0 -0.48 0.02 -0.609 0.047 l -0.234 0.051 v -0.313 c 0 -0.172 0.031 -0.453 0.066 -0.629 c 0.059 -0.262 0.098 -0.32 0.234 -0.359 c 0.215 -0.059 0.871 -0.063 1.082 0 c 0.18 0.047 0.191 0.094 0.281 0.941 l 0.039 0.363 l -0.242 -0.051 c -0.133 -0.027 -0.41 -0.051 -0.617 -0.051 m 0.625 -0.465 c 0.109 -0.184 -0.855 -0.301 -1.141 -0.141 c -0.246 0.137 -0.09 0.199 0.516 0.199 c 0.324 0 0.605 -0.027 0.625 -0.059 m 0.617 0.152 c 0.023 -0.051 0.059 -0.141 0.082 -0.199 c 0.031 -0.078 0.016 -0.094 -0.063 -0.066 c -0.156 0.063 -0.195 -0.059 -0.23 -0.672 c -0.031 -0.578 -0.105 -0.707 -0.215 -0.375 c -0.031 0.102 -0.066 0.195 -0.074 0.207 c -0.008 0.012 -0.156 -0.023 -0.332 -0.082 c -0.344 -0.113 -0.668 -0.094 -0.973 0.066 c -0.094 0.051 -0.18 0.082 -0.188 0.074 c -0.004 -0.008 -0.035 -0.113 -0.066 -0.23 c -0.035 -0.117 -0.098 -0.227 -0.141 -0.242 c -0.063 -0.02 -0.078 0.09 -0.066 0.465 c 0.016 0.582 -0.031 0.773 -0.199 0.773 c -0.141 0 -0.141 0 -0.059 0.215 c 0.07 0.188 0.016 0.203 -0.254 0.063 c -0.223 -0.113 -0.227 -0.156 -0.02 -0.59 c 0.152 -0.324 0.215 -0.828 0.141 -1.125 c -0.016 -0.066 0.031 -0.102 0.152 -0.113 c 0.098 -0.012 0.215 -0.086 0.273 -0.176 c 0.094 -0.141 0.09 -0.16 -0.012 -0.277 c -0.098 -0.105 -0.098 -0.121 -0.016 -0.121 c 0.117 0 0.203 -0.309 0.141 -0.504 c -0.035 -0.117 -0.074 -0.129 -0.27 -0.09 c -0.129 0.023 -0.242 0.055 -0.258 0.066 c 0.047 0.164 0.156 0.262 0.246 0.414 c 0 0.07 -0.707 0.051 -0.734 -0.02 c -0.02 -0.051 0.07 -0.367 0.18 -0.566 c 0.105 -0.203 0.367 -0.41 0.367 -0.484 c 0 -0.074 -0.109 -0.246 -0.25 -0.379 c -0.137 -0.137 -0.25 -0.289 -0.25 -0.34 c 0 -0.219 -0.414 -0.285 -0.785 -0.133 c -0.273 0.113 -1.754 1.602 -2.07 2.082 c -0.129 0.191 -0.242 0.316 -0.254 0.281 c -0.031 -0.098 0.273 -0.938 0.461 -1.254 c 0.344 -0.586 1.074 -1.215 1.246 -1.074 c 0.055 0.047 0.148 -0.016 0.34 -0.234 c 0.273 -0.313 0.648 -0.578 0.82 -0.578 c 0.141 0 0.43 0.238 0.43 0.359 c 0 0.055 0.051 0.145 0.109 0.199 c 0.098 0.094 0.133 0.09 0.461 -0.039 c 0.293 -0.121 0.387 -0.133 0.547 -0.078 c 0.227 0.078 0.211 0.152 -0.039 0.203 c -0.211 0.039 -0.531 0.281 -0.48 0.359 c 0.02 0.031 0.109 0.02 0.211 -0.035 c 0.094 -0.047 0.305 -0.121 0.465 -0.16 c 0.16 -0.043 0.289 -0.098 0.289 -0.129 c 0 -0.07 0.172 -0.074 0.199 -0.004 c 0.023 0.059 0.555 0.254 0.832 0.305 c 0.176 0.035 0.18 0.031 0.094 -0.074 c -0.051 -0.063 -0.215 -0.168 -0.367 -0.234 c -0.191 -0.086 -0.25 -0.141 -0.203 -0.188 c 0.098 -0.102 0.406 -0.07 0.723 0.07 c 0.238 0.105 0.469 0.004 0.473 -0.137 c 0 -0.172 0.258 -0.418 0.43 -0.418 c 0.168 0 0.551 0.266 0.797 0.551 c 0.156 0.184 0.266 0.262 0.344 0.242 c 0.254 -0.066 0.93 0.52 1.266 1.094 c 0.18 0.309 0.477 1.105 0.477 1.281 c 0 0.063 -0.109 -0.055 -0.242 -0.262 c -0.133 -0.207 -0.617 -0.758 -1.078 -1.223 c -0.652 -0.664 -0.902 -0.875 -1.137 -0.965 c -0.293 -0.113 -0.301 -0.113 -0.469 0.012 c -0.09 0.066 -0.195 0.184 -0.234 0.254 c -0.035 0.07 -0.152 0.211 -0.266 0.316 c -0.25 0.23 -0.043 0.414 0.203 0.875 c 0.105 0.203 0.18 0.469 0.16 0.52 c -0.027 0.074 -0.75 0.074 -0.75 0.004 c 0.09 -0.156 0.254 -0.313 0.273 -0.461 c -0.266 -0.043 -0.5 -0.031 -0.535 0.031 c -0.082 0.125 -0.055 0.402 0.047 0.504 c 0.078 0.078 0.082 0.117 0.016 0.219 c -0.063 0.105 -0.059 0.145 0.039 0.254 c 0.066 0.07 0.184 0.129 0.262 0.129 c 0.141 0 0.148 0.016 0.137 0.453 c -0.008 0.375 0.02 0.512 0.156 0.797 c 0.207 0.43 0.207 0.473 -0.004 0.59 c -0.223 0.121 -0.352 0.121 -0.305 0.004 m -0.523 -1.582 c 0 -0.094 -0.184 -0.266 -0.355 -0.332 c -0.258 -0.098 -0.648 -0.063 -0.871 0.074 c -0.207 0.129 -0.301 0.355 -0.121 0.285 c 0.453 -0.172 0.656 -0.172 1.207 -0.008 c 0.086 0.027 0.141 0.02 0.141 -0.02 m -0.063 -0.789 c 0 -0.121 -0.277 -0.332 -0.504 -0.379 c -0.25 -0.055 -0.59 0.066 -0.75 0.266 c -0.156 0.199 -0.074 0.246 0.184 0.113 c 0.234 -0.121 0.613 -0.125 0.82 -0.004 c 0.199 0.113 0.25 0.113 0.25 0.004 m 0.023 -1.203 c 0.023 -0.023 -0.008 -0.094 -0.063 -0.156 c -0.156 -0.172 -1.082 -0.168 -1.238 0.004 c -0.105 0.121 -0.098 0.121 0.512 0.117 c 0.344 -0.004 0.648 0.012 0.684 0.035 c 0.035 0.02 0.082 0.02 0.105 0 m 0.191 -0.402 c -0.066 -0.074 -0.211 -0.176 -0.32 -0.219 c -0.438 -0.188 -1.313 -0.047 -1.461 0.234 c -0.074 0.141 -0.078 0.141 0.238 0.027 c 0.281 -0.098 1.133 -0.086 1.41 0.02 c 0.25 0.098 0.266 0.086 0.133 -0.063"/><g stroke="#000" transform="matrix(-0.0625 0 0 0.0625 16.05 -0.016)"><path d="m 79.83 198.69 c -0.938 -0.938 11.5 -5.75 14.13 -12.375 c 1.313 -3.188 3.688 -9.813 5.375 -14.688 c 3 -9 4.313 -12 5.125 -11.938 c 0.938 0.063 4.313 2.875 5.25 4.375 c 0.938 1.5 0.875 1.75 -0.688 6.813 c -3.188 9.938 -8.688 19.438 -13.188 22.813 c -2.438 1.813 -15.06 5.938 -16 5" stroke-width="2.028"/><path d="m 180.14 200.5 c 1 -1 -7.875 -4.875 -10.563 -12.06 c -1.313 -3.438 -3.75 -10.625 -5.375 -15.938 c -3.063 -9.75 -4.438 -13 -5.313 -12.938 c -1 0.063 -4.688 3.063 -5.75 4.625 c -1 1.625 -1 1.875 0.625 7.375 c 3.188 10.813 8.938 21.19 13.688 24.813 c 2.563 2 11.625 5.125 12.688 4.125" stroke-width="2.184"/></g></svg>