<svg xmlns="http://www.w3.org/2000/svg" viewBox="0 0 16 16"><path d="m 0.52 5.801 c -2.988 8.34 7.746 12.395 11.781 9 c 4.03 -3.395 5.41 -9.215 0.844 -12.141 c -4.57 -2.926 -9.641 -5.195 -12.625 3.141" fill="#366b6b"/><path d="m 4.781 4.688 v 1.836 h 0.613 v 4.891 h 1.227 v -0.613 h -0.613 v -1.832 h 0.613 v -0.613 h -0.613 v -1.832 h 0.613 v -1.836 m 0.613 3.059 v 1.832 h 1.836 v -1.832 m 0.613 0.609 v 0.613 h 2.449 v -0.613 m -4.898 1.836 v 1.832 h 1.836 v -1.832 m 0.613 0.609 v 0.613 h 2.449 v -0.613" fill-opacity="0.102"/><path d="m 4.477 4.383 v 1.832 h 0.613 v 4.895 h 1.227 v -0.613 h -0.613 v -1.836 h 0.613 v -0.609 h -0.613 v -1.836 h 0.613 v -1.832 m 0.609 3.055 v 1.836 h 1.84 v -1.836 m 0.613 0.613 v 0.609 h 2.449 v -0.609 m -4.902 1.836 v 1.832 h 1.84 v -1.832 m 0.613 0.609 v 0.613 h 2.449 v -0.613" fill="#38e6a1"/></svg>