<svg xmlns="http://www.w3.org/2000/svg" xmlns:xlink="http://www.w3.org/1999/xlink" viewBox="0 0 16 16"><defs><g id="4" clip-path="url(#3)"><path d="m 5.066 5.984 h 6.48 c 0.672 0 1.215 0.559 1.215 1.246 v 3.73 c 0 0.688 -0.543 1.246 -1.215 1.246 h -6.48 c -0.672 0 -1.219 -0.559 -1.219 -1.246 v -3.73 c 0 -0.688 0.547 -1.246 1.219 -1.246"/><path d="m 5.25 6.813 h 6.113 c 0.324 0 0.59 0.273 0.59 0.605 v 3.355 c 0 0.336 -0.266 0.605 -0.59 0.605 h -6.113 c -0.328 0 -0.59 -0.27 -0.59 -0.605 v -3.355 c 0 -0.332 0.262 -0.605 0.59 -0.605"/><path d="m 9.117 5.984 c 0 0.457 -0.363 0.828 -0.813 0.828 c -0.445 0 -0.809 -0.371 -0.809 -0.828 c 0 -0.461 0.363 -0.832 0.809 -0.832 c 0.449 0 0.813 0.371 0.813 0.832"/><path d="m 23 17 l -1 -3 l -1 0.998 l -1 -1.996" transform="matrix(0.40513 0 0 0.41495 -1.417 -1.485)" stroke="#2d2d2d" stroke-width="0.5"/><path d="m 25 17 l 1.996 -4 l -1.996 4" transform="matrix(0.40513 0 0 0.41495 -1.417 -1.485)" stroke="#2d2d2d" stroke-width="0.5"/><path d="m 7.09 3.91 c 0 0.227 -0.18 0.414 -0.406 0.414 c -0.223 0 -0.402 -0.188 -0.402 -0.414 c 0 -0.23 0.18 -0.418 0.402 -0.418 c 0.227 0 0.406 0.188 0.406 0.418"/><path d="m 9.926 3.91 c 0 0.227 -0.18 0.414 -0.406 0.414 c -0.223 0 -0.402 -0.188 -0.402 -0.414 c 0 -0.23 0.18 -0.418 0.402 -0.418 c 0.227 0 0.406 0.188 0.406 0.418"/><path d="m 7.496 8.68 c 0 0.574 -0.273 1.039 -0.609 1.039 c -0.336 0 -0.605 -0.465 -0.605 -1.039 c 0 -0.57 0.27 -1.035 0.605 -1.035 c 0.336 0 0.609 0.465 0.609 1.035"/><path d="m 10.332 8.68 c 0 0.574 -0.273 1.039 -0.609 1.039 c -0.336 0 -0.605 -0.465 -0.605 -1.039 c 0 -0.57 0.27 -1.035 0.605 -1.035 c 0.336 0 0.609 0.465 0.609 1.035"/><path d="m 7.09 8.887 c 0 0.23 -0.09 0.418 -0.203 0.418 c -0.109 0 -0.203 -0.188 -0.203 -0.418 c 0 -0.227 0.094 -0.414 0.203 -0.414 c 0.113 0 0.203 0.188 0.203 0.414"/><path d="m 9.926 8.887 c 0 0.23 -0.09 0.418 -0.203 0.418 c -0.109 0 -0.203 -0.188 -0.203 -0.418 c 0 -0.227 0.094 -0.414 0.203 -0.414 c 0.113 0 0.203 0.188 0.203 0.414"/><path d="m 7.078 10.355 l -0.203 0.32 c 0.422 0.172 0.902 0.289 1.43 0.289 c 0.527 0 1.01 -0.113 1.43 -0.289 l -0.199 -0.32 c -0.375 0.121 -0.789 0.191 -1.23 0.191 c -0.441 0 -0.852 -0.07 -1.227 -0.191"/></g><clipPath id="A"><path d="m 5 3 h 2 v 1 h -2"/></clipPath><clipPath id="B"><path d="m 8 3 h 2 v 1 h -2"/></clipPath><clipPath id="G"><path d="m 6 9 h 4 v 2 h -4"/></clipPath><clipPath id="C"><path d="m 5 7 h 3 v 3 h -3"/></clipPath><clipPath id="E"><path d="m 6 8 h 1 v 1 h -1"/></clipPath><clipPath id="F"><path d="m 9 8 h 1 v 1 h -1"/></clipPath><clipPath id="D"><path d="m 8 7 h 2 v 3 h -2"/></clipPath><clipPath id="9"><path d="m 7 2 h 4 v 5 h -4"/></clipPath><clipPath id="0"><path d="m 17.219 8.06 c 0 5.273 -4.176 9.543 -9.316 9.543 c -5.145 0 -9.32 -4.27 -9.32 -9.543 c 0 -5.273 4.176 -9.543 9.32 -9.543 c 5.141 0 9.316 4.27 9.316 9.543"/></clipPath><clipPath id="3"><path d="M 0,0 H16 V16 H0 z"/></clipPath><clipPath id="8"><path d="m 5 2 h 4 v 5 h -4"/></clipPath><clipPath id="7"><path d="m 7 4 h 2 v 3 h -2"/></clipPath><clipPath id="5"><path d="m 3 5 h 10 v 7 h -10"/></clipPath><clipPath id="6"><path d="m 4 6 h 8 v 5 h -8"/></clipPath><filter id="1" filterUnits="objectBoundingBox" x="0" y="0" width="16" height="16"><feColorMatrix type="matrix" in="SourceGraphic" values="0 0 0 0 1 0 0 0 0 1 0 0 0 0 1 0 0 0 1 0"/></filter><mask id="2"><g filter="url(#1)"><path fill-opacity="0.102" d="M 0,0 H16 V16 H0 z"/></g></mask></defs><path d="m 14.68 12.703 c -3.059 5.531 -12.645 3.383 -14.266 -1.172 c -1.934 -5.426 3.098 -15.73 11.617 -9.691 c 2.867 2.105 5.711 5.332 2.648 10.863" fill="#b0c3de"/><g clip-path="url(#0)"><use xlink:href="#4" mask="url(#2)"/></g><g clip-path="url(#5)"><g clip-path="url(#0)"><path d="m 4.66 5.57 h 6.48 c 0.672 0 1.215 0.555 1.215 1.242 v 3.734 c 0 0.688 -0.543 1.246 -1.215 1.246 h -6.48 c -0.672 0 -1.215 -0.559 -1.215 -1.246 v -3.734 c 0 -0.688 0.543 -1.242 1.215 -1.242" fill="#2d2d2d"/></g></g><g clip-path="url(#6)"><g clip-path="url(#0)"><path d="m 4.844 6.398 h 6.113 c 0.328 0 0.59 0.27 0.59 0.602 v 3.359 c 0 0.332 -0.262 0.605 -0.59 0.605 h -6.113 c -0.324 0 -0.59 -0.273 -0.59 -0.605 v -3.359 c 0 -0.332 0.266 -0.602 0.59 -0.602" fill="#868686"/></g></g><g clip-path="url(#7)"><g clip-path="url(#0)"><path d="m 8.711 5.57 c 0 0.457 -0.363 0.828 -0.809 0.828 c -0.449 0 -0.813 -0.371 -0.813 -0.828 c 0 -0.461 0.363 -0.832 0.813 -0.832 c 0.445 0 0.809 0.371 0.809 0.832" fill="#2d2d2d"/></g></g><g clip-path="url(#8)"><g clip-path="url(#0)"><path d="m 23 16.996 l -1 -2.994 l -1 0.998 l -0.993 -2.01" transform="matrix(0.40513 0 0 0.41495 -1.823 -1.9)" fill="none" stroke="#2d2d2d" stroke-width="0.5"/></g></g><g clip-path="url(#9)"><g clip-path="url(#0)"><path d="m 24.998 16.996 l 2.01 -4 l -2.01 4" transform="matrix(0.40513 0 0 0.41495 -1.823 -1.9)" fill="none" stroke="#2d2d2d" stroke-width="0.5"/></g></g><g clip-path="url(#A)"><g clip-path="url(#0)"><path d="m 6.684 3.492 c 0 0.23 -0.18 0.418 -0.402 0.418 c -0.223 0 -0.406 -0.188 -0.406 -0.418 c 0 -0.227 0.184 -0.414 0.406 -0.414 c 0.223 0 0.402 0.188 0.402 0.414" fill="#2d2d2d"/></g></g><g clip-path="url(#B)"><g clip-path="url(#0)"><path d="m 9.52 3.492 c 0 0.23 -0.18 0.418 -0.402 0.418 c -0.223 0 -0.406 -0.188 -0.406 -0.418 c 0 -0.227 0.184 -0.414 0.406 -0.414 c 0.223 0 0.402 0.188 0.402 0.414" fill="#2d2d2d"/></g></g><g clip-path="url(#C)"><g clip-path="url(#0)"><path d="m 7.09 8.266 c 0 0.574 -0.273 1.039 -0.605 1.039 c -0.336 0 -0.609 -0.465 -0.609 -1.039 c 0 -0.57 0.273 -1.035 0.609 -1.035 c 0.332 0 0.605 0.465 0.605 1.035" fill="#f9f9f9"/></g></g><g clip-path="url(#D)"><g clip-path="url(#0)"><path d="m 9.926 8.266 c 0 0.574 -0.273 1.039 -0.605 1.039 c -0.336 0 -0.609 -0.465 -0.609 -1.039 c 0 -0.57 0.273 -1.035 0.609 -1.035 c 0.332 0 0.605 0.465 0.605 1.035" fill="#f9f9f9"/></g></g><g clip-path="url(#E)"><g clip-path="url(#0)"><path d="m 6.684 8.473 c 0 0.23 -0.09 0.414 -0.199 0.414 c -0.113 0 -0.203 -0.184 -0.203 -0.414 c 0 -0.227 0.09 -0.414 0.203 -0.414 c 0.109 0 0.199 0.188 0.199 0.414" fill="#444"/></g></g><g clip-path="url(#F)"><g clip-path="url(#0)"><path d="m 9.52 8.473 c 0 0.23 -0.09 0.414 -0.199 0.414 c -0.113 0 -0.203 -0.184 -0.203 -0.414 c 0 -0.227 0.09 -0.414 0.203 -0.414 c 0.109 0 0.199 0.188 0.199 0.414" fill="#444"/></g></g><g clip-path="url(#G)"><g clip-path="url(#0)"><path d="m 6.672 9.938 l -0.203 0.324 c 0.422 0.172 0.906 0.285 1.434 0.285 c 0.523 0 1.01 -0.113 1.43 -0.285 l -0.203 -0.324 c -0.375 0.125 -0.785 0.195 -1.227 0.195 c -0.441 0 -0.855 -0.07 -1.23 -0.195" fill="#2d2d2d"/></g></g></svg>