<svg xmlns="http://www.w3.org/2000/svg" viewBox="0 0 16 16"><path d="m 11.277 0.559 c -22.387 -4.313 -5.687 29.391 4.09 8.707 c 0.91 -3.926 0.355 -7.211 -4.09 -8.707" fill="#105331"/><g fill-rule="evenodd"><path d="m 3.145 7.27 c 0 2.504 1.969 4.531 4.395 4.531 c 2.426 0 4.395 -2.027 4.395 -4.531 c 0 -2.504 -1.969 -4.531 -4.395 -4.531 c -2.426 0 -4.395 2.027 -4.395 4.531" fill="#4fb2f5"/><path d="m 8.234 9.891 c 0 1.348 1.063 2.441 2.367 2.441 c 1.309 0 2.371 -1.094 2.371 -2.441 c 0 -1.348 -1.063 -2.441 -2.371 -2.441 c -1.305 0 -2.367 1.094 -2.367 2.441" fill="#9acd31"/><path d="m 10.969 8.852 c 0.16 0 0.289 0.133 0.289 0.301 v 0.887 h 0.504 c 0.059 0 0.117 0.039 0.148 0.094 c 0.027 0.055 0.02 0.125 -0.016 0.176 l -1.156 1.238 c -0.031 0.047 -0.082 0.074 -0.137 0.074 c -0.051 0 -0.102 -0.027 -0.133 -0.074 l -1.156 -1.238 c -0.035 -0.051 -0.043 -0.121 -0.016 -0.176 c 0.027 -0.055 0.09 -0.094 0.148 -0.094 h 0.5 v -0.887 c 0 -0.168 0.133 -0.301 0.293 -0.301" fill="#1c9cf3"/><path d="m 336.66 439.68 c 14.646 -3.935 47.11 -18.476 48.17 -19.332 c 0.706 -0.684 -6.529 -11.12 -16.234 -23.267 c -11.822 -14.884 -20.645 -22.924 -27.17 -25.15 c -10.234 -3.25 -31.409 -24.635 -39.879 -40.37 c -3.706 -7.01 -4.058 -9.923 -1.235 -12.66 c 2.823 -2.566 2.647 -4.106 -0.706 -6.159 c -5.294 -3.079 -9.352 -1.198 -9.352 4.619 c 0 5.988 -4.235 5.303 -10.587 -1.54 c -7.235 -7.699 -4.235 -28.06 5.647 -38.835 c 6.352 -6.843 9.881 -8.04 30.17 -8.896 c 12.528 -0.684 25.06 -2.908 27.527 -4.961 c 4.058 -3.25 4.058 -4.79 -0.353 -13.857 c -2.647 -5.646 -6.529 -10.265 -8.47 -10.265 c -4.235 -0.171 -13.234 -8.212 -13.234 -11.804 c 0 -1.369 8.293 -1.711 18.704 -0.855 l 18.704 1.711 l -2.117 -11.975 c -1.588 -9.409 -0.353 -16.252 5.823 -30.965 c 4.235 -10.436 7.764 -20.7 7.764 -22.582 c 0 -2.053 2.294 -7.699 4.941 -12.831 c 3.529 -6.501 16.587 -56.798 16.587 -65.52 c 0 -2.566 -41.467 -23.951 -61.759 -28.912 c -20.469 -4.961 -31.762 -5.817 -60.7 -4.79 c -33.35 1.026 -37.06 1.882 -58.41 11.804 c -23.998 11.12 -39.702 23.267 -39.702 30.623 c 0 2.395 4.411 12.66 9.705 22.753 c 8.47 15.91 9.705 21.04 8.999 37.979 c -0.529 15.226 0.706 22.24 5.647 30.965 c 3.529 6.33 5.47 13.686 4.588 16.595 c -1.235 3.593 -0.176 5.303 3.176 5.303 c 7.06 0 12.705 13.344 7.94 18.819 c -4.588 5.303 -0.529 14.03 9.705 20.872 c 5.999 3.935 6.882 7.356 6.882 23.609 c 0 14.542 0.882 18.13 3.882 15.739 c 2.647 -2.224 4.588 -0.855 6.882 4.961 c 1.588 4.277 3 9.751 3 11.804 c 0 10.09 10.764 21.385 24.704 26.17 c 7.94 2.737 16.587 4.961 19.06 4.961 c 2.647 0 5.47 2.053 6.529 4.619 c 2.47 6.501 2.647 6.33 -5.823 8.383 c -11.47 2.737 -29.11 21.21 -29.11 30.623 c -0.176 9.751 -11.822 37.808 -20.822 50.13 l -6.705 8.896 l 10.587 8.04 c 12.352 2.566 45.702 5.817 52.76 3.935" transform="matrix(-0.02214 0 0 0.02283 13.844 1.551)" fill="#ffffe6" stroke="#fff" stroke-width="3.435"/></g></svg>