<svg xmlns="http://www.w3.org/2000/svg" viewBox="0 0 16 16"><path d="m 7.973 15.941 c -10.734 1.195 -10.586 -15.906 0.191 -15.703 c 10.02 -0.563 10.93 16.633 -0.191 15.703" fill="#7a68ed"/><path d="m 59.48 69.5 h 138.41 c 2.144 0 3.859 3.943 3.859 8.746 v 122.15 c 0 4.803 -1.715 8.746 -3.859 8.746 h -138.41 c -2.144 0 -3.859 -3.943 -3.859 -8.746 v -122.15 c 0 -4.803 1.715 -8.746 3.859 -8.746" transform="matrix(0.05467 0 0 0.05449 0.921 0.873)" fill="#d7bfd7" stroke="#d7bfd7" stroke-width="3"/><g fill="#e43000"><path d="m 8.418 11.148 h 1.918 c 1.973 0 2.684 0.059 2.617 0.215 c -0.066 0.172 -0.613 0.23 -2.598 0.273 c -1.176 -0.039 -2.223 0.297 -1.938 -0.488"/><path d="m 8.914 10.832 c -0.227 -0.008 -0.445 -0.043 -0.488 -0.074 c -0.039 -0.027 -0.074 -0.137 -0.074 -0.242 c 0 -0.152 0.023 -0.195 0.133 -0.219 c 0.074 -0.016 0.664 -0.031 1.316 -0.031 c 1.023 0 1.188 0.012 1.219 0.078 c 0.059 0.137 0.039 0.359 -0.039 0.414 c -0.082 0.055 -1.445 0.105 -2.066 0.074"/><path d="m 8.445 9.938 c -0.051 -0.047 -0.094 -0.148 -0.094 -0.23 c 0 -0.273 0.086 -0.293 1.391 -0.293 c 1.32 0 1.309 0 1.313 0.332 c 0 0.133 -0.031 0.18 -0.152 0.223 c -0.082 0.027 -0.648 0.051 -1.258 0.051 c -0.93 0 -1.121 -0.016 -1.199 -0.082"/><path d="m 8.527 9.113 c -0.16 -0.074 -0.223 -0.309 -0.121 -0.441 c 0.086 -0.113 2.508 -0.113 2.59 0 c 0.074 0.094 0.074 0.305 0 0.402 c -0.078 0.105 -2.242 0.137 -2.469 0.039"/><path d="m 8.984 8.309 c -0.281 -0.02 -0.539 -0.059 -0.578 -0.09 c -0.035 -0.031 -0.055 -0.133 -0.043 -0.227 c 0.016 -0.152 0.039 -0.172 0.254 -0.203 c 0.129 -0.02 0.703 -0.039 1.273 -0.039 c 0.973 -0.004 1.047 0.004 1.102 0.094 c 0.074 0.121 0.078 0.309 0.008 0.402 c -0.063 0.082 -1.18 0.117 -2.02 0.063"/></g><g fill="#ff0"><path d="m 8.379 7.355 c -0.02 -0.066 -0.027 -0.184 -0.016 -0.266 c 0.016 -0.133 0.039 -0.145 0.371 -0.184 c 0.531 -0.059 3.707 0.047 3.996 0.133 c 0.301 0.09 0.332 0.203 0.074 0.285 c -0.258 0.078 -1.73 0.148 -3.203 0.148 l -1.188 0.004"/><path d="m 9.03 6.625 c -0.355 -0.02 -0.652 -0.039 -0.66 -0.043 c -0.063 -0.027 0.004 -0.375 0.078 -0.434 c 0.148 -0.109 2.473 -0.102 2.551 0.008 c 0.094 0.129 0.066 0.305 -0.059 0.418 c -0.105 0.094 -0.188 0.105 -0.691 0.098 c -0.316 -0.008 -0.863 -0.027 -1.219 -0.047"/><path d="m 8.793 5.754 l -0.41 -0.031 l -0.02 -0.172 c -0.035 -0.316 -0.008 -0.324 1.336 -0.324 c 0.867 0 1.234 0.02 1.285 0.063 c 0.086 0.078 0.09 0.277 0.008 0.41 c -0.055 0.094 -0.125 0.102 -0.926 0.094 c -0.473 -0.008 -1.047 -0.023 -1.273 -0.039"/></g><g fill="#9d17df"><path d="m 4.719 5.77 c -0.105 -0.105 -0.113 -0.191 -0.035 -0.316 c 0.047 -0.074 0.258 -0.094 1.16 -0.109 c 1.254 -0.02 1.426 0.016 1.426 0.273 c 0 0.164 -0.012 0.168 -0.359 0.207 c -0.199 0.02 -0.754 0.035 -1.23 0.035 c -0.711 0 -0.887 -0.016 -0.961 -0.09"/><path d="m 4.816 6.652 c -0.121 -0.027 -0.188 -0.199 -0.141 -0.348 c 0.027 -0.074 0.117 -0.113 0.344 -0.137 c 0.406 -0.047 1.715 -0.043 2.01 0.008 c 0.219 0.039 0.234 0.051 0.234 0.238 v 0.195 l -0.5 0.035 c -0.566 0.043 -1.801 0.047 -1.949 0.008"/><path d="m 4.676 7.383 c -0.078 -0.281 -0.004 -0.336 0.504 -0.371 c 0.68 -0.047 1.984 0.02 2.063 0.105 c 0.031 0.035 0.051 0.121 0.043 0.191 c -0.027 0.168 -0.176 0.191 -1.473 0.199 l -1.102 0.004"/><path d="m 5.223 8.348 c -0.496 -0.02 -0.512 -0.023 -0.551 -0.172 c -0.082 -0.324 -0.027 -0.34 1.234 -0.355 c 0.73 -0.012 1.199 0.004 1.273 0.043 c 0.168 0.094 0.156 0.398 -0.02 0.434 c -0.195 0.043 -1.355 0.07 -1.938 0.051"/></g><g fill="#9acd31"><path d="m 3.797 9.121 c -0.652 -0.039 -1.09 -0.129 -1.129 -0.234 c -0.078 -0.203 1.25 -0.332 3.207 -0.309 c 1.477 0.016 1.477 0.016 1.477 0.297 c 0.004 0.258 -0.078 0.27 -1.551 0.277 c -0.746 0.008 -1.648 -0.008 -2 -0.031"/><path d="m 4.723 9.961 c -0.043 -0.016 -0.074 -0.117 -0.074 -0.25 c 0 -0.199 0.02 -0.23 0.164 -0.277 c 0.172 -0.059 2.191 -0.031 2.379 0.031 c 0.129 0.043 0.199 0.266 0.121 0.371 c -0.035 0.047 -0.137 0.098 -0.23 0.113 c -0.203 0.039 -2.254 0.047 -2.359 0.012"/><path d="m 5.148 10.801 l -0.469 -0.027 c -0.012 -0.637 -0.043 -0.484 0.617 -0.52 c 0.871 -0.039 1.867 0.004 1.973 0.09 c 0.094 0.078 0.109 0.25 0.027 0.355 c -0.094 0.121 -1.031 0.168 -2.148 0.102"/><path d="m 3.738 11.617 c -0.668 -0.039 -1.113 -0.145 -1.07 -0.254 c 0.074 -0.195 0.988 -0.277 3.051 -0.277 c 1.586 0 1.637 0.008 1.633 0.281 c 0 0.266 0.008 0.262 -1.535 0.277 c -0.785 0.008 -1.723 -0.004 -2.078 -0.027"/></g><path d="m 7.883 4.934 c 0.113 0 0.207 0.211 0.207 0.473 v 6.313 c 0 0.262 -0.094 0.477 -0.207 0.477 c -0.113 0 -0.203 -0.215 -0.203 -0.477 v -6.313 c 0 -0.262 0.09 -0.473 0.203 -0.473" fill="#a9a9a9"/></svg>