<svg xmlns="http://www.w3.org/2000/svg" viewBox="0 0 16 16"><path d="m 0.336 9.77 c 0.98 6.418 9.672 8.137 13.508 3.555 c 3.379 -3.402 2.539 -9.922 -1.605 -12.156 c -4.758 -2.988 -11.695 0.707 -12.07 6.656 c -0.039 0.652 0.016 1.312 0.168 1.945" fill="#7f007f"/><g fill="#fff" stroke="#fff" stroke-width="0.752"><g transform="scale(0.0625)"><path d="m 189.81 166.31 c -6.5 -1.563 -13.563 -4.5 -17.313 -10.188 c -5.25 -7.313 -6 -16.313 -6 -22 c 0 -8.5 0.188 -10 2.063 -14.875 c 2.938 -7.625 8.375 -13.06 15.938 -15.875 c 4.625 -1.688 6.563 -2 13.625 -2 c 5.625 -0.188 11.5 1.25 16.188 3.438 c 3.938 1.875 4.125 2.063 4.125 4.813 c -0.063 3.563 -1.813 2.75 -3.875 1.063 c -9.06 -6.625 -24.06 -4.313 -29.31 -2 c -4.313 2.125 -7.813 6.438 -10.188 12.438 c -2.375 6.06 -2.5 18.938 -0.313 25.313 c 2 5.938 6.813 11.625 10.75 12.875 c 10.438 3.5 16.188 2.313 24.313 0.125 c 3.375 -0.938 5.875 -2.813 8.625 -4.813 c 0 2.313 0.25 5.75 -1.125 6.938 c -3.5 2.188 -6.875 3.313 -10 4.188 c -5.75 0.625 -11.813 1.438 -17.5 0.563"/><path d="m 46.875 101.38 h 10.313 c 16.563 0 25.438 2.063 29.375 6.938 c 2.938 5 4.063 10 1.625 15.938 c -0.938 2.063 -5.938 5.688 -7.813 5.688 c -2.375 0 -0.938 1.938 2.438 3.313 c 3.688 1.5 6.125 3.688 8.25 7.625 c 1.625 3 1.625 11.813 0 15.5 c -1.438 3.188 -5.813 6.875 -9.563 8.06 c -3.688 1.125 -17.625 2.375 -26.813 2.375 h -7.75 c 0 -22.75 0 -42.12 0 -65.44 m 32.688 57.813 c 3.75 -1.375 5.625 -5.438 5.625 -12.12 c 0 -5.188 -0.125 -5.813 -2.313 -8.313 c -3.125 -3.625 -5.813 -4.25 -17.813 -4.25 l -9.938 -0.063 c 0 8.563 0 17.06 0 25.625 c 7.875 -0.875 17.75 1.125 24.438 -0.875 m -2.313 -31.813 c 3.75 -1.563 4.938 -3.813 4.938 -9.06 c -0.063 -5.563 -1.063 -7.5 -4.875 -9.438 c -8.5 -2.375 -12.5 -1.5 -22.19 -1.5 c 0 7 0 14.06 0 21.06 c 7.06 -0.813 15.438 1.563 22.13 -1.063"/></g><path d="m 107.21 896.51 h 10.313 c 16.563 0 25.438 2.063 29.375 6.938 c 2.875 5 4.063 10 1.563 15.938 c -0.938 2.063 -5.875 5.688 -7.75 5.688 c -2.438 0 -1 1.938 2.438 3.313 c 3.688 1.5 6.06 3.688 8.188 7.625 c 1.688 3 1.688 11.813 0 15.5 c -1.375 3.188 -5.75 6.875 -9.5 8.06 c -3.75 1.125 -17.688 2.375 -26.875 2.375 h -7.75 c 0 -22.75 0 -42.12 0 -65.44 m 32.688 57.813 c 3.75 -1.375 5.688 -5.438 5.688 -12.12 c 0 -5.188 -0.188 -5.813 -2.375 -8.313 c -3.063 -3.625 -5.75 -4.25 -17.75 -4.25 l -9.938 -0.063 c 0 8.563 0 17.06 0 25.625 c 7.813 -0.875 17.688 1.125 24.375 -0.875 m -2.313 -31.813 c 3.75 -1.563 5 -3.813 4.938 -9.06 c 0 -5.563 -1 -7.5 -4.813 -9.438 c -8.563 -2.375 -12.563 -1.5 -22.19 -1.5 c 0 7 0 14.06 0 21.06 c 7 -0.813 15.438 1.563 22.06 -1.063" transform="matrix(0.0625 0 0 0.0625 0.155 -49.743)"/></g></svg>