<svg xmlns="http://www.w3.org/2000/svg" viewBox="0 0 16 16"><defs><clipPath id="0"><path d="m 2 1 h 14 v 13 h -14"/></clipPath><clipPath id="1"><path d="m 3.75 1.43 h 10.41 c 0.605 0 1.098 0.473 1.098 1.055 v 10.04 c 0 0.582 -0.492 1.055 -1.098 1.055 h -10.41 c -0.605 0 -1.098 -0.473 -1.098 -1.055 v -10.04 c 0 -0.582 0.492 -1.055 1.098 -1.055"/></clipPath><clipPath id="2"><path d="m 5 5 h 8 v 5 h -8"/></clipPath></defs><path d="m 14.43 3.59 c 7.984 12.371 -17.48 18.684 -14.11 3.277 c 1.438 -6.363 10.445 -9.875 14.11 -3.277" fill="#38513e"/><g clip-path="url(#0)"><g clip-path="url(#1)"><path d="m 10.723 6.774 c 0 2.18 -1.766 3.95 -3.951 3.95 c -2.181 0 -3.947 -1.77 -3.947 -3.95 c 0 -2.184 1.766 -3.95 3.947 -3.95 c 2.185 0 3.951 1.766 3.951 3.95" transform="matrix(0.97077 0 0 0.9355 2.38 0.901)" fill="none" stroke="#c7e740" stroke-width="0.564"/></g></g><g clip-path="url(#2)"><g clip-path="url(#1)"><path d="m 7.465 5.125 c -0.336 0.047 -0.645 0.121 -0.938 0.219 l 0.328 0.723 c -0.531 0.219 -0.969 0.531 -1.285 0.906 c -0.098 0.121 -0.18 0.25 -0.254 0.375 c 0.043 0.766 0.301 1.465 0.695 2.051 l 0.723 -0.211 l 1.352 -0.391 l 1.082 -0.313 l -0.375 -0.75 l -0.695 -1.371 c 0.035 -0.008 0.074 -0.02 0.113 -0.027 c 1.738 -0.328 2.695 0.18 3.215 0.723 l -1.328 0.34 l -0.551 -0.941 c -0.316 -0.02 -0.684 0.004 -1.105 0.078 l 0.59 1.137 l 0.27 0.512 l 0.117 0.219 l 2.445 -0.707 l 0.91 -0.273 c 0.008 -0.109 0.016 -0.227 0.016 -0.336 c 0 -0.152 -0.008 -0.301 -0.023 -0.445 c -0.461 -0.355 -1.137 -0.656 -1.871 -0.813 c -0.93 -0.23 -1.941 -0.219 -2.973 -0.051 c -0.035 0.004 -0.078 0.012 -0.113 0.016 l -0.344 -0.672 m -0.328 1.57 l 0.598 1.32 l -1.328 0.34 c -0.121 -0.582 -0.027 -1.227 0.73 -1.66" fill="#c7e740" fill-rule="evenodd"/></g></g><g transform="matrix(0.09668 -0.00768 -0.00805 -0.10334 -3.808 17.936)"><g stroke-linecap="round" stroke-width="3.212"><path d="m 94.64 67.61 l -5.373 -3.872 c -9.523 9.855 -18.279 29.406 -18.279 29.406 c -2.11 3.294 0.812 4.891 3.219 2.747 c 0 0 14.784 -15.576 20.433 -28.28" fill="#d9d961" stroke="#d9d961"/><path d="m 104.64 49.93 l -3.206 -2.105 l -9.534 11.179 l -0.243 0.963 l -1.393 0.255 c 0.849 1.94 4.553 5.18 6.95 4.851 l -0.32 -1.413 l 0.796 -0.626" fill="#ffa400" stroke="#ffa400"/></g><path d="m 121.92 34.21 c -13.378 1.902 -23.696 1.724 -24.3 11.936 c -0.445 8.236 10.858 10.533 15.208 2.612 c 4.175 -7.606 9.09 -14.548 9.09 -14.548" fill="#d9d961" stroke="#d9d961"/></g></svg>