<svg xmlns="http://www.w3.org/2000/svg" viewBox="0 0 16 16"><path d="m 14.418 12.246 c 5.754 -8.184 -4.871 -16.477 -11.648 -9.809 c -6.387 6.281 -0.465 16.04 7.48 12.992 c 1.656 -0.637 3.113 -1.684 4.168 -3.184" fill="#b0c3de"/><path d="m 5.781 3.5 h 4.355 c 0.34 0 0.617 0.293 0.617 0.652 v 8.359 c 0 0.359 -0.277 0.652 -0.617 0.652 h -4.355 c -0.344 0 -0.621 -0.293 -0.621 -0.652 v -8.359 c 0 -0.359 0.277 -0.652 0.621 -0.652" fill="#2f4e4e"/><g fill="#dcdcdc"><path d="m 9.238 8.504 v -0.559 c 0 -0.035 0.004 -0.063 0.012 -0.063 h 0.621 c 0.008 0 0.012 0.027 0.012 0.063 v 0.559 c 0 0.035 -0.004 0.063 -0.012 0.063 h -0.621 c -0.008 0 -0.012 -0.027 -0.012 -0.063"/><path d="m 8.473 8.504 v -0.559 c 0 -0.035 0.004 -0.063 0.012 -0.063 h 0.625 c 0.004 0 0.008 0.027 0.008 0.063 v 0.559 c 0 0.035 -0.004 0.063 -0.008 0.063 h -0.625 c -0.008 0 -0.012 -0.027 -0.012 -0.063"/><path d="m 7.664 8.504 v -0.559 c 0 -0.035 0.008 -0.063 0.012 -0.063 h 0.625 c 0.004 0 0.012 0.027 0.012 0.063 v 0.559 c 0 0.035 -0.008 0.063 -0.012 0.063 h -0.625 c -0.004 0 -0.012 -0.027 -0.012 -0.063"/><path d="m 6.859 8.504 v -0.559 c 0 -0.035 0.004 -0.063 0.012 -0.063 h 0.625 c 0.004 0 0.008 0.027 0.008 0.063 v 0.559 c 0 0.035 -0.004 0.063 -0.008 0.063 h -0.625 c -0.008 0 -0.012 -0.027 -0.012 -0.063"/><path d="m 6.05 8.504 v -0.559 c 0 -0.035 0.008 -0.063 0.012 -0.063 h 0.625 c 0.004 0 0.012 0.027 0.012 0.063 v 0.559 c 0 0.035 -0.008 0.063 -0.012 0.063 h -0.625 c -0.004 0 -0.012 -0.027 -0.012 -0.063"/><path d="m 6.098 9.609 v -0.559 c 0 -0.035 0.004 -0.063 0.012 -0.063 h 0.621 c 0.008 0 0.012 0.027 0.012 0.063 v 0.559 c 0 0.035 -0.004 0.063 -0.012 0.063 h -0.621 c -0.008 0 -0.012 -0.027 -0.012 -0.063"/><path d="m 9.211 9.66 v -0.559 c 0 -0.035 0.004 -0.063 0.008 -0.063 h 0.625 c 0.008 0 0.012 0.027 0.012 0.063 v 0.559 c 0 0.035 -0.004 0.063 -0.012 0.063 h -0.625 c -0.004 0 -0.008 -0.027 -0.008 -0.063"/><path d="m 7.383 9.797 v -0.703 c 0 -0.043 0.012 -0.082 0.02 -0.082 h 1.121 c 0.012 0 0.02 0.039 0.02 0.082 v 0.703 c 0 0.047 -0.008 0.082 -0.02 0.082 h -1.121 c -0.008 0 -0.02 -0.035 -0.02 -0.082"/><path d="m 9.238 7.578 v -0.559 c 0 -0.035 0.004 -0.063 0.012 -0.063 h 0.621 c 0.008 0 0.012 0.027 0.012 0.063 v 0.559 c 0 0.035 -0.004 0.063 -0.012 0.063 h -0.621 c -0.008 0 -0.012 -0.027 -0.012 -0.063"/><path d="m 8.473 7.578 v -0.559 c 0 -0.035 0.004 -0.063 0.012 -0.063 h 0.625 c 0.004 0 0.008 0.027 0.008 0.063 v 0.559 c 0 0.035 -0.004 0.063 -0.008 0.063 h -0.625 c -0.008 0 -0.012 -0.027 -0.012 -0.063"/><path d="m 7.664 7.578 v -0.559 c 0 -0.035 0.008 -0.063 0.012 -0.063 h 0.625 c 0.004 0 0.012 0.027 0.012 0.063 v 0.559 c 0 0.035 -0.008 0.063 -0.012 0.063 h -0.625 c -0.004 0 -0.012 -0.027 -0.012 -0.063"/><path d="m 6.859 7.578 v -0.559 c 0 -0.035 0.004 -0.063 0.012 -0.063 h 0.625 c 0.004 0 0.008 0.027 0.008 0.063 v 0.559 c 0 0.035 -0.004 0.063 -0.008 0.063 h -0.625 c -0.008 0 -0.012 -0.027 -0.012 -0.063"/><path d="m 6.05 7.578 v -0.559 c 0 -0.035 0.008 -0.063 0.012 -0.063 h 0.625 c 0.004 0 0.012 0.027 0.012 0.063 v 0.559 c 0 0.035 -0.008 0.063 -0.012 0.063 h -0.625 c -0.004 0 -0.012 -0.027 -0.012 -0.063"/><path d="m 9.238 6.652 v -0.559 c 0 -0.035 0.004 -0.063 0.012 -0.063 h 0.621 c 0.008 0 0.012 0.027 0.012 0.063 v 0.559 c 0 0.035 -0.004 0.063 -0.012 0.063 h -0.621 c -0.008 0 -0.012 -0.027 -0.012 -0.063"/><path d="m 8.473 6.652 v -0.559 c 0 -0.035 0.004 -0.063 0.012 -0.063 h 0.625 c 0.004 0 0.008 0.027 0.008 0.063 v 0.559 c 0 0.035 -0.004 0.063 -0.008 0.063 h -0.625 c -0.008 0 -0.012 -0.027 -0.012 -0.063"/><path d="m 7.664 6.652 v -0.559 c 0 -0.035 0.008 -0.063 0.012 -0.063 h 0.625 c 0.004 0 0.012 0.027 0.012 0.063 v 0.559 c 0 0.035 -0.008 0.063 -0.012 0.063 h -0.625 c -0.004 0 -0.012 -0.027 -0.012 -0.063"/><path d="m 6.859 6.652 v -0.559 c 0 -0.035 0.004 -0.063 0.012 -0.063 h 0.625 c 0.004 0 0.008 0.027 0.008 0.063 v 0.559 c 0 0.035 -0.004 0.063 -0.008 0.063 h -0.625 c -0.008 0 -0.012 -0.027 -0.012 -0.063"/><path d="m 6.05 6.652 v -0.559 c 0 -0.035 0.008 -0.063 0.012 -0.063 h 0.625 c 0.004 0 0.012 0.027 0.012 0.063 v 0.559 c 0 0.035 -0.008 0.063 -0.012 0.063 h -0.625 c -0.004 0 -0.012 -0.027 -0.012 -0.063"/><path d="m 9.211 5.777 v -0.559 c 0 -0.035 0.004 -0.063 0.012 -0.063 h 0.625 c 0.004 0 0.008 0.027 0.008 0.063 v 0.559 c 0 0.035 -0.004 0.063 -0.008 0.063 h -0.625 c -0.008 0 -0.012 -0.027 -0.012 -0.063"/><path d="m 8.445 5.777 v -0.559 c 0 -0.035 0.008 -0.063 0.012 -0.063 h 0.625 c 0.008 0 0.012 0.027 0.012 0.063 v 0.559 c 0 0.035 -0.004 0.063 -0.012 0.063 h -0.625 c -0.004 0 -0.012 -0.027 -0.012 -0.063"/><path d="m 7.641 5.777 v -0.559 c 0 -0.035 0.004 -0.063 0.012 -0.063 h 0.621 c 0.008 0 0.012 0.027 0.012 0.063 v 0.559 c 0 0.035 -0.004 0.063 -0.012 0.063 h -0.621 c -0.008 0 -0.012 -0.027 -0.012 -0.063"/><path d="m 6.832 5.777 v -0.559 c 0 -0.035 0.008 -0.063 0.012 -0.063 h 0.625 c 0.008 0 0.012 0.027 0.012 0.063 v 0.559 c 0 0.035 -0.004 0.063 -0.012 0.063 h -0.625 c -0.004 0 -0.012 -0.027 -0.012 -0.063"/><path d="m 6.03 5.777 v -0.559 c 0 -0.035 0.004 -0.063 0.012 -0.063 h 0.621 c 0.008 0 0.012 0.027 0.012 0.063 v 0.559 c 0 0.035 -0.004 0.063 -0.012 0.063 h -0.621 c -0.008 0 -0.012 -0.027 -0.012 -0.063"/></g><path d="m 9.953 4.316 c 0 0.195 -0.16 0.352 -0.355 0.352 c -0.199 0 -0.359 -0.156 -0.359 -0.352 c 0 -0.195 0.16 -0.352 0.359 -0.352 c 0.195 0 0.355 0.156 0.355 0.352 h -0.355" fill="#ff6246"/><path d="m 6.902 11.922 h 2.02 v 0.289 h -2.02" fill="#dcdcdc"/></svg>