<svg xmlns="http://www.w3.org/2000/svg" viewBox="0 0 16 16"><path d="m 8.03 0.195 c 10.555 -1.199 10.406 15.996 -0.187 15.793 c -9.855 0.566 -10.746 -16.73 0.187 -15.793" fill="#3d8fdf"/><path d="m 214.98 478.8 c -50.02 -9.283 -91.89 -33.24 -127.95 -73.07 c -41.44 -45.818 -63.1 -111.1 -56.853 -171.29 c 5.525 -52.26 23.555 -94.18 56.707 -131.17 c 19.629 -21.861 39.4 -37.583 62.814 -50.16 c 112.54 -60.19 251.55 -14.824 308.55 100.62 c 17.303 35.19 23.41 62.14 23.264 102.87 c -0.291 35.34 -6.543 63.04 -21.81 95.08 c -12.505 26.652 -26.463 46.27 -46.529 66.03 c -52.49 51.51 -126.5 74.42 -198.18 61.09 m 21.52 -49.41 v -19.615 l -18.757 -4.642 c -55.98 -13.925 -96.84 -53.904 -114.29 -111.55 c -6.107 -20.06 -6.689 -55.55 -1.309 -77.26 c 9.887 -39.529 35.478 -76.51 66.59 -96.28 l 11.923 -7.487 v -22.01 c 0 -11.979 -0.436 -21.861 -1.163 -21.861 c -2.908 0 -28.935 14.824 -38.532 22.01 c -51.18 38.03 -78.81 89.989 -81.86 153.63 c -2.617 55.701 18.03 108.56 57.43 147.64 c 30.24 29.947 64.27 48.06 102.36 54.802 c 18.902 3.294 17.594 4.642 17.594 -17.369 m 74.883 11.38 c 62.38 -18.717 113.41 -72.02 131.01 -137.16 c 6.689 -24.26 7.997 -62.59 3.199 -87.29 c -10.324 -53.01 -37.95 -96.28 -80.989 -127.12 c -8.579 -6.139 -34.46 -20.513 -36.932 -20.513 c -0.582 0 -1.163 9.882 -1.163 21.861 v 21.861 l 11.341 7.04 c 37.514 23.658 63.54 64.984 70.23 111.4 c 11.778 81.01 -43.621 159.47 -123.88 175.79 l -13.377 2.695 v 40.13 l 11.196 -1.647 c 6.252 -0.749 19.484 -4.04 29.371 -7.04 m -33.879 -59.44 c 0.145 -1.497 0.291 -21.861 0.436 -45.22 l 0.291 -42.524 l 10.178 0.449 c 5.525 0.299 15.12 2.695 21.374 5.091 c 6.252 2.545 14.249 4.492 17.739 4.492 c 12.214 0 17.885 -11.979 10.76 -23.21 c -3.199 -5.091 -3.053 -5.241 4.944 -6.588 c 4.653 -0.749 9.887 -3.294 11.778 -5.39 c 7.416 -8.685 4.653 -23.21 -5.525 -29.797 c -4.217 -2.695 -5.525 -4.342 -3.199 -4.342 c 8.288 0 15.994 -20.21 10.76 -28.15 c -3.926 -5.84 -12.795 -9.882 -21.81 -9.882 h -9.742 l 5.671 -5.091 c 23.701 -20.813 4.362 -51.51 -24.573 -38.931 c -3.78 1.797 -11.341 8.235 -16.721 14.524 l -9.887 11.38 l 0.872 -10.481 c 1.018 -15.273 -5.089 -31.594 -14.1 -37.882 c -9.306 -6.439 -17.01 -6.439 -26.17 0 c -9.742 6.738 -14.831 17.818 -14.977 32.941 v 12.278 l -6.979 -8.09 c -14.977 -17.668 -35.915 -22.31 -47.838 -10.781 c -8.87 8.834 -5.525 26.952 6.834 36.685 c 3.78 2.995 3.344 3.294 -5.816 3.294 c -20.21 0.15 -30.68 19.465 -18.03 32.642 c 2.908 2.995 6.543 5.54 7.997 5.54 c 1.454 0 0.291 1.647 -2.617 3.743 c -10.03 6.888 -13.232 15.722 -9.306 26.353 c 1.599 4.342 11.778 10.182 17.885 10.182 c 4.217 0 4.217 0.15 0.727 7.936 c -3.344 7.187 -3.344 8.685 -0.436 14.07 c 4.217 7.786 13.522 8.685 28.935 2.695 c 6.543 -2.545 16.431 -4.941 21.956 -5.241 l 10.03 -0.449 l 0.291 42.524 c 0.145 23.358 0.291 43.722 0.436 45.22 c 0.291 2.096 6.689 2.845 23.991 2.845 c 17.303 0 23.555 -0.749 23.846 -2.845" transform="matrix(0.02687 0 0 0.02609 1.115 1.294)" fill="#fff" stroke="#fff" stroke-width="1.969"/></svg>