<svg xmlns="http://www.w3.org/2000/svg" viewBox="0 0 16 16"><path d="m 11.891 14.691 c -20.59 8.371 -10.914 -26.836 2.531 -9.738 c 2.34 3.066 2.52 8.215 -2.531 9.738" fill="#00ac82"/><path d="m 3.148 11.637 c -0.582 -0.098 -0.992 -0.535 -0.992 -1.059 c 0 -0.305 1.402 -4.91 1.574 -5.168 c 0.125 -0.184 0.406 -0.379 0.672 -0.457 c 0.391 -0.117 0.922 -0.016 1.215 0.234 c 0.105 0.09 0.484 0.629 0.957 1.359 c 0.762 1.176 0.891 1.352 0.938 1.313 c 0.012 -0.012 0.383 -0.574 0.824 -1.25 c 0.441 -0.68 0.875 -1.301 0.965 -1.383 c 0.559 -0.508 1.555 -0.41 1.953 0.191 c 0.18 0.266 1.566 4.836 1.566 5.152 c 0 0.297 -0.09 0.492 -0.332 0.719 c -0.523 0.5 -1.418 0.461 -1.891 -0.086 c -0.148 -0.172 -0.176 -0.242 -0.633 -1.75 c -0.109 -0.355 -0.211 -0.645 -0.23 -0.645 c -0.051 0 -0.961 1.391 -1.023 1.566 c -0.363 0.984 -1.84 1.109 -2.363 0.199 c -0.059 -0.102 -0.121 -0.23 -0.141 -0.285 c -0.031 -0.086 -0.879 -1.383 -0.938 -1.438 c -0.047 -0.039 -0.086 0.063 -0.352 0.949 c -0.156 0.504 -0.313 1 -0.352 1.109 c -0.188 0.496 -0.832 0.828 -1.414 0.727" fill="#cafdef"/><path d="m 3 11.52 c -0.488 -0.148 -0.855 -0.656 -0.773 -1.063 c 0.059 -0.285 1.43 -4.75 1.508 -4.906 c 0.09 -0.184 0.375 -0.422 0.602 -0.508 c 0.223 -0.078 0.703 -0.07 0.93 0.02 c 0.258 0.105 0.504 0.355 0.719 0.734 c 0.098 0.176 0.391 0.652 0.648 1.059 c 0.258 0.406 0.52 0.828 0.578 0.938 c 0.098 0.176 0.125 0.195 0.246 0.184 c 0.125 -0.012 0.18 -0.078 0.625 -0.77 c 0.27 -0.418 0.637 -1 0.816 -1.297 c 0.375 -0.613 0.441 -0.688 0.762 -0.832 c 0.574 -0.258 1.289 -0.051 1.578 0.465 c 0.039 0.066 0.391 1.176 0.785 2.465 c 0.754 2.457 0.789 2.629 0.641 2.938 c -0.184 0.383 -0.59 0.613 -1.074 0.613 c -0.355 0 -0.609 -0.094 -0.844 -0.309 c -0.195 -0.176 -0.227 -0.25 -0.66 -1.641 c -0.34 -1.086 -0.828 -2.512 -0.941 -2.754 l -0.078 -0.16 l -0.148 0.145 c -0.078 0.078 -0.383 0.398 -0.676 0.707 c -0.434 0.461 -0.523 0.578 -0.496 0.652 c 0.016 0.051 0.234 0.426 0.48 0.832 c 0.449 0.734 0.453 0.742 0.453 1.027 c 0 0.246 -0.023 0.32 -0.145 0.516 c -0.258 0.398 -0.676 0.602 -1.164 0.566 c -0.625 -0.047 -1.117 -0.523 -1.113 -1.082 c 0 -0.277 0 -0.273 0.586 -1.23 c 0.219 -0.363 0.414 -0.695 0.43 -0.742 c 0.02 -0.059 -0.012 -0.121 -0.105 -0.207 c -0.074 -0.066 -0.371 -0.359 -0.664 -0.652 c -0.289 -0.293 -0.543 -0.539 -0.563 -0.547 c -0.074 -0.027 -0.574 1.391 -1.125 3.176 c -0.184 0.59 -0.383 1.145 -0.445 1.242 c -0.148 0.227 -0.426 0.402 -0.723 0.457 c -0.305 0.059 -0.348 0.059 -0.648 -0.035" fill="#97fde7"/><path d="m 3.148 11.555 c -0.359 -0.063 -0.711 -0.324 -0.848 -0.633 c -0.121 -0.273 -0.063 -0.527 0.586 -2.648 c 0.801 -2.621 0.832 -2.711 1.059 -2.934 c 0.434 -0.438 1.242 -0.434 1.68 0.008 c 0.309 0.309 0.387 0.621 0.258 1.02 c -0.039 0.109 -0.375 1.195 -0.75 2.41 c -0.461 1.504 -0.715 2.254 -0.789 2.348 c -0.262 0.344 -0.73 0.512 -1.195 0.43 m 8.04 -0.051 c -0.219 -0.07 -0.508 -0.293 -0.609 -0.473 c -0.047 -0.082 -0.199 -0.512 -0.332 -0.949 c -0.133 -0.441 -0.461 -1.508 -0.73 -2.371 c -0.266 -0.859 -0.484 -1.641 -0.484 -1.734 c 0 -0.094 0.043 -0.25 0.094 -0.348 c 0.457 -0.855 1.773 -0.836 2.145 0.031 c 0.207 0.488 1.457 4.688 1.461 4.898 c 0 0.559 -0.504 1 -1.129 0.996 c -0.141 0 -0.328 -0.023 -0.414 -0.051 m -3.934 -0.395 c -0.352 -0.059 -0.664 -0.266 -0.828 -0.551 c -0.152 -0.289 -0.129 -0.469 -0.133 -0.785 l 0.559 -0.875 c 0.391 -0.617 0.578 -0.871 0.629 -0.863 c 0.039 0.008 0.313 0.391 0.609 0.855 c 0.512 0.797 0.539 0.855 0.559 1.109 c 0.012 0.215 -0.004 0.316 -0.086 0.484 c -0.223 0.449 -0.781 0.715 -1.309 0.625" fill="#81fdd0"/><path d="m 3.148 11.555 c -0.359 -0.063 -0.711 -0.324 -0.848 -0.633 c -0.117 -0.273 -0.066 -0.5 0.59 -2.66 c 0.359 -1.168 0.664 -2.125 0.68 -2.125 c 0.016 0 0.063 0.082 0.105 0.18 c 0.043 0.102 0.395 0.656 0.777 1.234 c 0.387 0.578 0.699 1.078 0.699 1.109 c 0 0.172 -0.711 2.34 -0.809 2.469 c -0.262 0.34 -0.73 0.508 -1.195 0.426 m 8.04 -0.051 c -0.219 -0.07 -0.508 -0.293 -0.609 -0.473 c -0.09 -0.152 -0.754 -2.273 -0.754 -2.406 c 0 -0.035 0.309 -0.535 0.688 -1.105 c 0.379 -0.566 0.723 -1.121 0.766 -1.23 c 0.043 -0.105 0.09 -0.207 0.105 -0.219 c 0.031 -0.031 0.035 -0.023 0.758 2.348 c 0.387 1.266 0.59 2 0.59 2.141 c 0 0.559 -0.504 1 -1.129 0.996 c -0.141 0 -0.328 -0.023 -0.414 -0.051" fill="#86fdb5"/><path d="m 7.03 11.129 c -0.531 -0.203 -0.844 -0.707 -0.738 -1.199 c 0.055 -0.25 1.148 -1.965 1.227 -1.926 c 0.094 0.051 1.125 1.695 1.18 1.883 c 0.141 0.484 -0.16 1.01 -0.695 1.223 c -0.242 0.098 -0.746 0.105 -0.973 0.02" fill="#28fdd4"/></svg>