<svg xmlns="http://www.w3.org/2000/svg" viewBox="0 0 16 16"><path d="m 3.297 1.563 c 12.03 -8 19.438 17.504 3.891 14.13 c -6.43 -1.441 -10.328 -10.461 -3.891 -14.13" fill="#acd7e5"/><g fill="#fff"><path d="m 10.434 4.336 h 1.129 c 0.07 0 0.129 0.059 0.129 0.129 v 7.242 c 0 0.07 -0.059 0.129 -0.129 0.129 h -1.129 c -0.07 0 -0.129 -0.059 -0.129 -0.129 v -7.242 c 0 -0.07 0.059 -0.129 0.129 -0.129"/><path d="m 4.613 4.414 h 1.129 c 0.07 0 0.129 0.059 0.129 0.129 v 7.242 c 0 0.07 -0.059 0.129 -0.129 0.129 h -1.129 c -0.07 0 -0.129 -0.059 -0.129 -0.129 v -7.242 c 0 -0.07 0.059 -0.129 0.129 -0.129"/><path d="m 7.66 6.965 h 1.129 c 0.07 0 0.129 0.059 0.129 0.133 v 4.605 c 0 0.074 -0.059 0.133 -0.129 0.133 h -1.129 c -0.07 0 -0.129 -0.059 -0.129 -0.133 v -4.605 c 0 -0.074 0.059 -0.133 0.129 -0.133"/><path d="m 13 9.324 h 1.129 c 0.07 0 0.129 0.02 0.129 0.047 v 2.422 c 0 0.023 -0.059 0.043 -0.129 0.043 h -1.129 c -0.07 0 -0.129 -0.02 -0.129 -0.043 v -2.422 c 0 -0.027 0.059 -0.047 0.129 -0.047"/></g></svg>