<svg xmlns="http://www.w3.org/2000/svg" viewBox="0 0 16 16"><path d="m 2.879 1.887 c 5.949 -3.895 11.371 -0.754 12.656 3.656 c 1.73 5.93 -2.816 13.98 -12.188 8.676 c -3.723 -2.109 -4.711 -9.559 -0.473 -12.332" fill="#fc8600"/><path d="m 11.195 11.785 c -0.313 -0.289 -0.586 -0.523 -0.605 -0.523 c -0.023 0 -0.141 0.059 -0.258 0.133 c -0.488 0.305 -0.969 0.434 -1.605 0.434 c -0.828 0 -1.453 -0.234 -2.047 -0.773 c -0.605 -0.547 -0.887 -1.176 -0.887 -1.973 c 0 -0.797 0.281 -1.43 0.887 -1.977 c 0.594 -0.535 1.219 -0.77 2.047 -0.77 c 0.828 0 1.453 0.234 2.047 0.77 c 0.605 0.547 0.891 1.18 0.891 1.977 c 0 0.594 -0.141 1.043 -0.465 1.5 c -0.078 0.109 -0.141 0.219 -0.141 0.242 c 0 0.023 0.23 0.258 0.52 0.523 c 0.285 0.266 0.535 0.508 0.551 0.539 c 0.023 0.039 -0.016 0.098 -0.168 0.238 l -0.199 0.188 m -2.48 -1.105 c 0.828 -0.184 1.523 -0.836 1.719 -1.605 c 0.031 -0.125 0.055 -0.359 0.055 -0.52 c 0 -0.621 -0.211 -1.102 -0.68 -1.539 c -0.469 -0.441 -0.984 -0.641 -1.648 -0.641 c -0.66 0 -1.18 0.199 -1.645 0.641 c -0.469 0.438 -0.684 0.918 -0.684 1.539 c 0 0.16 0.027 0.395 0.059 0.52 c 0.191 0.762 0.887 1.418 1.699 1.602 c 0.293 0.066 0.828 0.07 1.125 0.004 m -0.848 -0.438 c -0.258 -0.039 -0.555 -0.164 -0.805 -0.34 c -0.344 -0.246 -0.359 -0.242 1.098 -0.242 c 1.461 0 1.445 -0.004 1.098 0.242 c -0.258 0.184 -0.547 0.301 -0.84 0.344 c -0.27 0.043 -0.273 0.043 -0.551 -0.004 m -3.57 1.055 c -0.617 -0.07 -0.941 -0.199 -1.152 -0.457 c -0.066 -0.082 -0.164 -0.262 -0.207 -0.398 c -0.082 -0.242 -0.082 -0.258 -0.082 -2.719 c 0 -2.457 0 -2.473 0.082 -2.715 c 0.156 -0.461 0.48 -0.723 1.027 -0.816 c 0.375 -0.066 6.832 -0.066 7.211 0 c 0.547 0.094 0.871 0.355 1.027 0.816 c 0.082 0.242 0.082 0.258 0.082 2.699 c 0 2.289 -0.008 2.473 -0.07 2.688 c -0.07 0.242 -0.246 0.512 -0.328 0.512 c -0.027 0 -0.199 -0.141 -0.379 -0.313 l -0.332 -0.313 l 0.164 -0.301 c 0.129 -0.23 0.188 -0.305 0.262 -0.32 l 0.09 -0.02 v -2.16 c 0 -1.672 -0.012 -2.195 -0.047 -2.309 c -0.074 -0.227 -0.211 -0.344 -0.488 -0.414 c -0.223 -0.055 -0.508 -0.059 -3.586 -0.059 c -3.078 0 -3.367 0.004 -3.586 0.059 c -0.281 0.07 -0.418 0.188 -0.488 0.414 c -0.039 0.113 -0.051 0.637 -0.051 2.309 v 2.164 l 0.652 0.008 c 0.465 0.008 0.664 0.023 0.688 0.051 c 0.02 0.023 0.074 0.129 0.117 0.234 c 0.148 0.332 0.418 0.699 0.754 1.02 c 0.176 0.172 0.324 0.324 0.324 0.34 c 0 0.023 -1.465 0.027 -1.684 0" fill="#fff"/></svg>