<svg xmlns="http://www.w3.org/2000/svg" viewBox="0 0 16 16"><path d="m 15.813 6.219 c -0.992 -6.504 -9.805 -8.246 -13.691 -3.602 c -3.426 3.445 -2.574 10.05 1.629 12.309 c 4.824 3.03 11.855 -0.715 12.238 -6.742 c 0.039 -0.66 -0.016 -1.328 -0.176 -1.969" fill="#696969"/><path d="m 53.36 193.87 c 0.28 -6.472 0.35 -6.613 3.146 -6.613 c 2.447 0 3.705 -1.337 3.705 -4.01 c 0 -1.126 0.419 -1.407 2.377 -1.407 h 2.377 v 16.954 h -11.885 m 129.13 -2.884 c -0.21 -2.673 -0.35 -2.884 -2.377 -3.095 c -2.936 -0.281 -3.356 -1.055 -3.915 -6.753 l -0.489 -4.924 l 6.01 0.141 l 5.943 0.211 l 0.35 2.744 c 0.35 2.603 0.419 2.673 3.216 2.884 l 2.866 0.211 v 4.643 c 0 2.532 0.21 5.135 0.419 5.698 c 0.35 0.985 -0.419 1.126 -5.733 1.126 h -6.082 m -116.12 -20.682 c 0 -2.04 0.21 -2.392 1.538 -2.392 c 2.377 0 3.775 -1.407 3.985 -4.08 l 0.21 -2.321 l 11.955 -0.211 l 12.02 -0.141 v 5.346 c 0 4.221 -0.21 5.417 -1.119 5.768 c -0.559 0.211 -7.271 0.422 -14.821 0.422 h -13.773 m 98.51 -2.181 c 0 -0.844 -0.21 -3.166 -0.419 -5.135 l -0.419 -3.517 h 2.027 c 1.888 0 2.097 0.211 2.447 2.814 c 1.049 6.683 0.979 6.964 -1.468 7.175 c -1.888 0.211 -2.167 0 -2.167 -1.337 m -68.02 -12.451 c 0.21 -2.603 0.28 -2.673 3.146 -2.884 c 1.538 -0.141 3.01 -0.563 3.146 -0.985 c 0.21 -0.492 0.07 -4.924 -0.21 -9.989 l -0.489 -9.145 l -2.657 -0.352 c -2.517 -0.281 -2.727 -0.492 -2.936 -2.673 c -0.28 -3.095 -1.189 -4.08 -3.566 -4.08 h -1.958 v -5.065 c 0 -4.432 -0.14 -5.135 -1.468 -6.05 c -0.839 -0.633 -2.377 -1.055 -3.356 -1.055 c -1.748 0 -1.818 -0.141 -2.237 -5.276 c -0.489 -6.331 -0.909 -7.246 -3.566 -7.457 c -1.958 -0.211 -2.027 -0.352 -2.447 -4.362 c -0.559 -5.346 -0.559 -20.19 0 -25.536 c 0.419 -3.939 0.559 -4.15 2.237 -4.15 c 2.936 0 3.426 -1.126 3.426 -7.527 v -5.909 l 6.432 -0.422 l 0.28 -5.768 l 0.35 -5.768 l 11.466 -0.703 l 0.21 -2.814 l 0.21 -2.884 l 5.873 -0.141 l 5.873 -0.211 l 0.419 -5.768 l 20.694 0.141 l 20.694 0.211 l 0.35 2.673 c 0.35 2.603 0.489 2.744 3.076 3.095 c 2.517 0.281 2.657 0.422 3.01 3.02 c 0.35 2.603 0.419 2.744 3.146 2.884 c 2.796 0.211 2.866 0.281 3.076 3.095 l 0.21 2.814 l 6.292 0.422 l 0.21 2.814 c 0.21 2.884 0.21 2.884 3.076 3.095 l 2.866 0.211 v 6.261 c 0 3.447 0.28 6.542 0.629 6.894 c 0.35 0.352 0.419 4.221 0.21 8.653 l -0.35 7.949 l -2.796 -0.211 l -2.727 -0.141 l 0.21 -8.231 c 0.28 -9.145 0.28 -9.145 -4.265 -9.708 c -2.657 -0.352 -2.727 -0.492 -2.936 -3.236 l -0.21 -2.884 h -14.332 c -10.766 0 -14.612 0.211 -15.1 0.844 c -0.419 0.422 -0.909 3.869 -1.119 7.598 c -0.21 3.728 -0.559 8.653 -0.769 10.974 l -0.419 4.291 h -7.83 c -5.593 0 -8.389 0.281 -9.578 0.985 c -0.909 0.563 -2.447 0.985 -3.426 0.985 l -1.748 0.07 l -0.489 8.231 c -0.419 8.864 -0.21 9.778 2.866 10.13 c 1.538 0.211 1.818 0.633 2.097 2.955 c 0.35 2.673 0.419 2.744 3.426 3.02 l 3.01 0.352 l 0.699 29.827 l 5.803 0.563 l 5.873 0.563 l 0.489 4.291 c 0.629 6.261 0.419 6.753 -2.727 6.753 h -2.727 l -0.419 -5.909 l -11.256 0.352 c -6.152 0.211 -11.745 0.563 -12.374 0.844 c -0.839 0.281 -1.258 1.688 -1.608 5.487 c -0.28 2.744 -0.699 5.135 -0.979 5.346 c -0.28 0.141 -2.657 0.492 -5.383 0.774 l -4.824 0.422 m 43.42 -3.377 l 0.21 -2.603 l 6.082 -0.07 c 3.286 -0.07 8.389 0 11.256 0.211 l 5.243 0.352 v 4.643 h -23 m 24.12 -6.613 c -0.21 -0.281 -0.14 -4.221 0.07 -8.793 l 0.35 -8.231 l 6.01 -0.422 l 5.943 -0.492 v -5.839 l -6.082 -0.492 l -6.152 -0.422 l 0.21 -2.533 l 0.21 -2.462 l 4.404 -0.141 c 7.551 -0.281 7.341 -0.07 7.551 -6.05 c 0.21 -5.98 0.28 -6.05 6.712 -6.683 l 4.544 -0.422 l 0.419 -4.854 c 0.21 -2.673 0.35 -6.683 0.21 -8.934 l -0.21 -4.08 l -2.377 -0.281 c -2.237 -0.352 -2.377 -0.492 -2.587 -3.306 l -0.21 -2.884 l 3.286 0.211 c 3.076 0.211 3.216 0.281 3.426 2.392 c 0.21 1.829 0.489 2.181 1.888 2.181 c 2.237 0 2.377 1.126 2.167 14.28 l -0.21 11.11 l -2.377 0.281 c -3.01 0.281 -4.055 1.126 -4.055 3.588 c 0 1.688 -0.21 1.899 -1.888 1.899 c -1.119 0 -2.307 0.422 -2.727 0.915 c -0.419 0.492 -0.769 4.502 -0.909 9.286 l -0.21 8.442 l -5.03 0.703 c -2.796 0.352 -5.383 0.915 -5.873 1.196 c -0.419 0.281 -0.979 2.955 -1.258 5.909 l -0.489 5.417 h -2.237 c -1.189 0 -2.377 -0.211 -2.517 -0.492 m 0.21 -57.966 c 0 -2.814 -0.979 -3.869 -3.845 -3.869 c -2.097 0 -2.167 -0.141 -2.167 -2.392 v -2.321 h 5.313 c 2.936 0 5.523 0.281 5.803 0.633 c 0.21 0.422 0.21 2.814 -0.07 5.417 l -0.489 4.784 h -2.237 c -2.097 0 -2.307 -0.141 -2.307 -2.251" transform="matrix(0.05587 0 0 0.05553 0.573 1.254)" stroke="#000"/></svg>