<svg xmlns="http://www.w3.org/2000/svg" viewBox="0 0 16 16"><path d="m 10.734 15.461 c -21.32 4.102 -5.078 -28.453 4.352 -9.04 c 1.625 3.473 0.773 8.551 -4.352 9.04" fill="#616161"/><g fill="#fff" stroke="#fff"><path d="m 232.74 87.03 c -1.453 -0.405 -2.443 -1.824 -2.443 -3.581 c 0 -2.5 1.387 -2.973 11.622 -4.054 c 12.745 -1.284 114.51 -1.216 117.28 0.338 c 4.226 2.365 6.207 6.081 -3.896 7.03 c -11.953 1.149 -118.73 1.351 -122.56 0.27" transform="matrix(0.05915 0 0 0.05781 -9.607 7.582)" stroke-width="1.305"/><g stroke-width="1.085"><g transform="matrix(0.05915 0 0 0.05781 0.531 0.495)"><path d="m 83.73 195.83 l -18.952 -0.676 c 0 -2.5 0 -5.068 0 -7.567 l 9.773 -0.878 c 11.953 -1.081 107.37 -0.541 108.56 0.608 c 0.858 0.811 1.123 6.959 0.33 7.703 c -0.858 0.811 -80.56 1.419 -99.71 0.811"/><path d="m 104.34 181.57 c -2.179 -1.351 -3.038 -13.649 -3.038 -41.756 c 0 -25.878 0.858 -40 2.707 -41.824 c 0.726 -0.743 2.509 -0.946 4.424 -0.541 c 4.292 0.946 4.49 2.23 5.283 31.01 c 0.528 19.865 -0.594 51.42 -1.915 52.5 c -1.255 1.081 -6.075 1.486 -7.462 0.608"/><path d="m 71.58 181.91 c -2.84 -0.743 -3.566 -9.662 -3.566 -44.26 c 0.066 -34.12 0.528 -39.12 3.83 -40.13 c 2.906 -0.946 6.075 0.203 7.07 2.5 c 2.179 5.338 1.519 78.986 -0.792 81.01 c -0.858 0.743 -4.887 1.284 -6.538 0.878"/><path d="m 139.33 181.84 c -1.519 -0.27 -2.707 -1.486 -3.236 -3.311 c -1.057 -3.784 -1.057 -73.58 0 -77.36 c 0.792 -2.973 4.623 -4.73 7.66 -3.581 c 0.858 0.338 1.849 2.095 2.245 3.919 c 1.123 5.608 0.726 75.74 -0.396 77.84 c -1.255 2.365 -2.972 3.041 -6.273 2.5"/><path d="m 172.48 181.84 c -2.774 -0.608 -3.104 -2.703 -4.03 -23.04 c -1.057 -23.581 0.066 -57.837 2.047 -60.2 c 1.783 -2.095 5.877 -2.095 7.66 0 c 2.84 3.446 3.236 73.72 0.462 81.01 c -0.726 1.892 -3.302 2.838 -6.141 2.23"/><path d="m 72.37 91.7 c -7.594 -0.676 -7.594 -0.676 -7.594 -3.919 v -3.311 l 11.887 -0.811 c 13.603 -1.014 105.33 -0.473 106.45 0.608 c 0.925 0.946 0.858 6.081 -0.066 7.03 c -36.782 -0.27 -73.961 2.77 -110.68 0.405"/></g><path d="m 235.91 -46.42 c -3.17 -0.27 -5.745 -0.811 -5.745 -1.351 c 0 -0.878 19.877 -4.797 47.22 -12.09 c 19.283 -5.068 17.301 -5.54 39.622 0.676 c 17.5 4.865 42.593 10.27 43.19 10.878 c 0.33 0.27 0.198 0.878 -0.264 1.284 c -0.858 0.811 -113.71 1.351 -124.02 0.608" transform="matrix(0.05915 0 0 0.05781 -9.607 7.582)"/></g></g></svg>