<svg xmlns="http://www.w3.org/2000/svg" viewBox="0 0 16 16"><path d="m 13.965 2.406 c 9.152 14.09 -15.844 19.539 -13.852 5.05 c 0.813 -5.91 10.352 -10.434 13.852 -5.05" fill="#7f7f7f"/><path d="m 3.699 11.293 c 0 -0.496 0.113 -0.734 0.719 -1.469 c 0.262 -0.316 0.477 -0.625 0.477 -0.684 c 0 -0.059 -0.215 -0.191 -0.48 -0.297 c -0.266 -0.102 -0.543 -0.266 -0.621 -0.359 c -0.266 -0.332 -0.004 -0.508 1.918 -1.289 c 0.359 -0.145 0.805 -0.484 1.305 -0.992 l 0.762 -0.77 l 0.762 -0.078 c 0.879 -0.086 1.207 -0.258 1.957 -1.047 c 0.297 -0.309 0.621 -0.566 0.719 -0.566 c 0.191 0 0.336 0.301 0.535 1.098 c 0.066 0.266 0.191 0.512 0.277 0.543 c 0.289 0.113 0.176 0.695 -0.262 1.359 c -0.332 0.504 -0.75 0.777 -1.027 1.93 c -0.195 0.801 -0.211 1.918 -0.352 2.289 l -0.254 0.672 l -3.219 0.027 l -3.215 0.031" fill="#010101"/></svg>