<svg xmlns="http://www.w3.org/2000/svg" viewBox="0 0 16 16"><defs><clipPath id="0"><path d="m 3 4 h 9 v 8 h -9"/></clipPath><clipPath id="1"><path d="m 2.102 0.09 h 10.684 c 0.621 0 1.125 0.664 1.125 1.484 v 14.1 c 0 0.82 -0.504 1.488 -1.125 1.488 h -10.684 c -0.621 0 -1.121 -0.668 -1.121 -1.488 v -14.1 c 0 -0.82 0.5 -1.484 1.121 -1.484"/></clipPath></defs><path d="m 14.445 12.703 c 7.996 -12.03 -17.504 -19.438 -14.13 -3.891 c 1.438 6.43 10.461 10.328 14.13 3.891" fill="#4c75a3"/><g clip-path="url(#0)"><g clip-path="url(#1)"><path d="m 7.355 11.566 h 0.504 c 0 0 0.152 -0.023 0.23 -0.141 c 0.07 -0.105 0.066 -0.305 0.066 -0.305 c 0 0 -0.008 -0.941 0.305 -1.078 c 0.309 -0.137 0.707 0.906 1.129 1.309 c 0.316 0.301 0.555 0.234 0.555 0.234 l 1.125 -0.02 c 0 0 0.59 -0.051 0.309 -0.695 c -0.02 -0.051 -0.16 -0.473 -0.836 -1.344 c -0.707 -0.91 -0.613 -0.762 0.242 -2.336 c 0.516 -0.961 0.719 -1.547 0.66 -1.797 c -0.063 -0.238 -0.445 -0.176 -0.445 -0.176 l -1.266 0.012 c 0 0 -0.094 -0.02 -0.164 0.039 c -0.07 0.059 -0.113 0.188 -0.113 0.188 c 0 0 -0.203 0.742 -0.469 1.375 c -0.563 1.332 -0.789 1.402 -0.883 1.32 c -0.219 -0.195 -0.16 -0.777 -0.16 -1.187 c 0 -1.293 0.141 -1.828 -0.273 -1.969 c -0.141 -0.047 -0.242 -0.078 -0.594 -0.082 c -0.449 -0.008 -0.836 0.004 -1.051 0.148 c -0.145 0.102 -0.254 0.316 -0.188 0.332 c 0.082 0.016 0.273 0.07 0.375 0.258 c 0.129 0.25 0.121 0.801 0.121 0.801 c 0 0 0.078 1.516 -0.172 1.703 c -0.172 0.133 -0.406 -0.133 -0.91 -1.34 c -0.258 -0.617 -0.453 -1.305 -0.453 -1.305 c 0 0 -0.035 -0.125 -0.102 -0.195 c -0.082 -0.082 -0.195 -0.109 -0.195 -0.109 l -1.203 0.012 c 0 0 -0.184 0.008 -0.25 0.117 c -0.059 0.098 -0.004 0.297 -0.004 0.297 c 0 0 0.941 3.066 2.01 4.609 c 0.977 1.418 2.09 1.324 2.09 1.324" fill="#fff" fill-rule="evenodd"/></g></g></svg>