<svg xmlns="http://www.w3.org/2000/svg" viewBox="0 0 16 16"><path d="m 7.363 15.891 c 9.504 0.906 12.06 -14.418 2.301 -15.609 c -8.973 -1.477 -13.594 12.418 -4.676 15.195 c 0.754 0.305 1.578 0.297 2.375 0.41" fill="#105331"/><path d="m 8.07 2.992 c -1.617 0 -3.145 0.734 -4.141 1.988 c 0.645 0.172 1.098 0.316 1.234 0.359 c 0 -0.082 0.016 -0.816 0.016 -0.816 c 0 0 0 -0.016 0.008 -0.023 c 0.012 -0.012 0.031 -0.008 0.031 -0.008 c 0.168 0.023 3.77 0.547 5.285 1.418 c 0.188 0.105 0.281 0.223 0.395 0.336 c 0.422 0.43 0.973 2.203 1.035 2.566 c 0 0.016 -0.016 0.031 -0.023 0.035 c -0.043 0.035 -0.09 0.07 -0.137 0.098 c -0.359 0.238 -1.188 0.809 -2.25 0.715 c -0.953 -0.082 -2.199 -0.621 -3.699 -1.594 c 0.148 0.34 0.293 0.68 0.438 1.023 c 0.219 0.109 2.316 1.16 3.352 1.141 c 0.836 -0.016 1.727 -0.418 2.086 -0.629 c 0 0 0.078 -0.047 0.109 -0.02 c 0.039 0.027 0.027 0.07 0.02 0.117 c -0.023 0.098 -0.07 0.281 -0.105 0.371 l -0.027 0.07 c -0.043 0.105 -0.082 0.207 -0.156 0.27 c -0.211 0.188 -0.547 0.336 -1.074 0.563 c -0.813 0.348 -2.129 0.57 -3.355 0.563 c -0.438 -0.008 -0.859 -0.059 -1.234 -0.098 c -0.762 -0.086 -1.383 -0.156 -1.762 0.113 c 0.996 1.125 2.438 1.773 3.957 1.777 c 2.902 0 5.258 -2.316 5.258 -5.168 c 0 -2.855 -2.355 -5.168 -5.258 -5.168 m 1.172 2.996 c -0.41 -0.012 -0.805 0.133 -1.105 0.406 c -0.301 0.277 -0.473 0.652 -0.488 1.055 c -0.027 0.836 0.641 1.539 1.488 1.566 c 0.41 0.016 0.805 -0.129 1.105 -0.406 c 0.297 -0.273 0.469 -0.648 0.488 -1.051 c 0.027 -0.836 -0.641 -1.539 -1.488 -1.57 m -0.012 0.449 c 0.594 0.02 1.055 0.508 1.035 1.09 c -0.008 0.281 -0.129 0.543 -0.336 0.734 c -0.211 0.195 -0.484 0.293 -0.773 0.285 c -0.59 -0.02 -1.055 -0.512 -1.035 -1.094 c 0.008 -0.281 0.129 -0.543 0.34 -0.734 c 0.207 -0.195 0.48 -0.293 0.77 -0.285 m 0.176 0.531 c -0.266 0 -0.477 0.141 -0.477 0.313 c 0 0.172 0.211 0.313 0.477 0.313 c 0.262 0 0.477 -0.141 0.477 -0.313 c 0 -0.172 -0.215 -0.313 -0.477 -0.313" fill="#72b925"/></svg>