<svg xmlns="http://www.w3.org/2000/svg" viewBox="0 0 16 16"><path d="m 2.797 3.035 c 6.504 -8.426 18.246 2.926 10.746 10.383 c -6.457 7.473 -18.988 -3.207 -10.746 -10.383" fill="#5b6e85"/><path d="m 5.559 10.07 c -0.066 -0.074 -0.406 -0.129 -1.059 -0.168 c -0.941 -0.012 -1.613 -0.156 -1.691 -1.281 c 0 -0.078 0.059 -0.25 0.129 -0.383 c 0.109 -0.211 0.172 -0.238 0.492 -0.238 c 0.199 0 0.598 0.059 0.887 0.129 c 0.824 0.207 1.801 0.129 2.457 -0.195 c 0.285 -0.145 0.516 -0.285 0.516 -0.32 c 0 -0.035 -0.109 -0.105 -0.246 -0.152 c -0.203 -0.074 -0.746 -0.406 -0.746 -0.602 c 0 -0.484 1.254 -0.566 1.75 -0.309 c 0.129 0.066 0.309 0.012 0.934 -0.285 c 0.715 -0.34 0.816 -0.367 1.426 -0.367 c 0.523 0 0.73 0.039 1.012 0.184 c 0.195 0.098 0.375 0.246 0.402 0.324 c 0.027 0.082 0.191 0.234 0.367 0.344 c 0.363 0.223 0.496 0.414 0.496 0.719 c 0 0.172 -0.086 0.246 -0.5 0.453 c -0.289 0.141 -0.781 0.504 -1.152 0.848 c -0.617 0.574 -0.664 0.605 -1.039 0.605 c -0.215 0 -0.563 0.047 -0.777 0.109 c -0.383 0.109 -0.711 0.195 -1.578 0.41 c -0.246 0.059 -0.484 0.148 -0.535 0.195 c -0.328 0.07 -1.313 0.176 -1.543 -0.02" fill="#704f2a"/><path d="m 6.605 9.1 c 0 -0.063 0.313 -0.484 0.555 -0.75 c 0.273 -0.281 0.449 -0.656 0.754 -0.891 c 0.133 -0.102 0.359 -0.273 0.504 -0.391 c 0.289 -0.227 0.785 -0.395 1.164 -0.395 c 0.441 0.066 0.551 0.379 0.867 0.68 c 0.496 0.352 -0.215 0.703 -0.664 0.766 c -2.086 0.281 -1.648 0.852 -3.18 0.98" fill="#ffdb23"/><path d="m 3.609 9.477 c -0.586 -0.09 -0.938 -1.566 0.059 -1.184 c 0.871 0.34 0.352 0.242 1.395 0.219 c 1.09 -0.02 1.012 -0.191 1.383 -0.125 c -0.23 0.793 -0.914 0.734 -1.328 1.059 c -0.23 0.195 -0.309 0.219 -0.813 0.215 c -0.5 0 -0.574 -0.02 -0.695 -0.184 m 4.691 -0.18 c -0.152 -0.262 0.277 -0.875 0.477 -1.105 c 0.348 -0.402 0.391 -0.852 0.887 -0.418 c 0.262 0.23 -0.023 0.742 -0.313 1.137 c -0.254 0.348 -0.934 0.586 -1.051 0.387 m -1.738 -2.516 c 0.078 -0.309 1.563 -0.273 1.676 0.012 c 0.07 0.18 -0.352 0.668 -0.699 0.668 c -0.211 0.004 -1.031 -0.457 -0.977 -0.68 m 4.258 0.34 c -0.316 -0.203 -0.508 -0.586 -0.672 -0.645 c -0.137 -0.047 -0.152 -0.355 -0.051 -0.414 c 0.035 -0.02 0.488 0.051 0.715 0.02 c 0.316 -0.055 0.934 0.289 0.98 0.52 c 0.031 0.172 0.383 0.348 0.531 0.406 c 0.223 0.363 -1.16 0.273 -1.504 0.113" fill="#290903"/><g fill="#f4f4f4"><path d="m 6.344 9.844 c -0.543 -0.121 -0.949 -0.223 -0.691 -0.27 c 0.121 -0.02 0.98 0.023 1.051 -0.004 c 0.555 -0.426 2.047 -0.168 0.789 0.035 c -0.121 0.012 -0.27 0.051 -0.336 0.086 c -0.332 0.176 -0.59 0.227 -0.813 0.152"/><path d="m 10.145 8.473 c 0.484 -0.152 0.52 -0.289 0.945 -0.418 c 0.449 -0.496 1.367 -0.355 0.891 -0.285 c -0.355 0.199 -0.922 0.648 -1.309 0.938 c -0.738 0.719 -0.82 0.117 -0.527 -0.234"/></g></svg>