<svg xmlns="http://www.w3.org/2000/svg" viewBox="0 0 16 16"><path d="m 3.305 14.438 c 12.03 8 19.438 -17.504 3.887 -14.13 c -6.426 1.441 -10.324 10.461 -3.887 14.13" fill="#f4f4f4"/><path d="m 8.441 2.855 c -0.566 0 -1.102 0.219 -1.504 0.617 l -3 2.977 c -0.402 0.398 -0.621 0.93 -0.621 1.492 c 0 0.563 0.219 1.09 0.621 1.488 l 1.879 1.863 c 0.148 -0.652 0.676 -1.199 1.395 -1.352 c 0.395 -0.086 0.789 -0.035 1.129 0.113 l -2.449 -4.211 c 1.238 -1.504 2.652 -1.73 3.941 -0.754 c 0.754 0.566 1.629 0.863 2.453 0.707 l -2.344 -2.324 c -0.398 -0.398 -0.934 -0.617 -1.5 -0.617 m 4.23 3.328 c -0.711 0.328 -1.574 0.305 -2.742 0.074 c -1.207 -0.242 -2.02 0.168 -2.32 0.598 l 1.602 4.01 c 0.043 0.086 0.078 0.176 0.109 0.273 l 0.004 0.012 h -0.004 c 0.012 0.039 0.023 0.074 0.031 0.113 c 0.148 0.672 -0.133 1.34 -0.66 1.742 c 0.473 -0.055 0.91 -0.266 1.25 -0.602 l 3 -2.977 c 0.402 -0.398 0.625 -0.926 0.625 -1.488 c 0 -0.563 -0.223 -1.094 -0.625 -1.492" fill-rule="evenodd"/></svg>