<svg xmlns="http://www.w3.org/2000/svg" viewBox="0 0 16 16"><path d="m 0.184 9.781 c 0.992 6.504 9.805 8.246 13.695 3.602 c 3.426 -3.445 2.574 -10.05 -1.629 -12.313 c -4.824 -3.03 -11.855 0.719 -12.238 6.742 c -0.039 0.664 0.016 1.328 0.172 1.969" fill="#efffef"/><g transform="matrix(0.05975 0 0 0.06046 -7.085 3.477)"><path d="m 189.05 141.11 c -0.784 -0.517 -1.569 -1.034 -1.765 -1.228 c -1.177 -1.098 -1.438 -12.599 -1.634 -62.735 l -0.196 -54.852 l 1.111 -2.972 c 1.111 -2.778 3.857 -6.073 7.322 -8.657 c 1.111 -0.84 4.772 -0.905 59.16 -0.905 c 45.5 0 58.12 0.129 58.771 0.646 c 3.726 2.778 6.537 6.073 7.583 8.787 c 1.111 3.037 1.111 3.101 1.111 56.14 c 0 35.21 -0.131 54.14 -0.523 55.951 c -0.327 1.551 -0.654 3.876 -0.784 5.104 c -0.588 3.037 -1.961 3.812 -4.184 5.686 h -62.24 c -58.57 -0.065 -62.3 -0.129 -63.739 -0.969 m 118.78 -3.23 c 2.746 -0.775 5.949 -3.553 7.322 -6.267 c 1.111 -2.197 1.111 -2.52 1.111 -55.628 v -53.43 l -1.373 -2.649 c -1.896 -3.618 -3.661 -5.298 -6.864 -6.396 c -2.484 -0.84 -6.276 -0.905 -55.31 -0.905 h -52.56 l -2.68 1.163 c -3.596 1.615 -4.445 2.455 -6.211 6.073 l -1.504 3.101 v 106.47 l 1.569 2.714 c 1.7 2.843 3.792 4.587 6.864 5.621 c 2.68 0.969 106.49 1.034 109.63 0.129 m -105.38 -2.326 c -0.85 -0.129 -1.504 -0.517 -1.504 -0.84 c 0 -1.551 5.361 -13.568 6.01 -13.438 c 0.392 0.065 1.961 0.452 3.596 0.905 c 4.38 1.228 80.54 1.163 84.92 0 c 1.569 -0.452 3.203 -0.84 3.596 -0.905 c 0.654 -0.129 6.01 11.888 6.01 13.374 c 0 0.323 -0.915 0.775 -2.027 0.905 c -2.157 0.388 -98.26 0.323 -100.61 0 m -9.545 -12.663 c -0.131 -0.388 -0.131 -23.324 0.065 -50.911 c 0.196 -36.891 0.392 -50.46 0.85 -50.847 c 0.85 -0.84 2.223 -0.323 4.968 2.067 l 2.419 2 l -0.915 2.455 c -0.784 2.261 -0.915 6.719 -1.046 43.09 l -0.131 40.574 l 1.438 3.037 c 0.784 1.68 1.373 3.23 1.177 3.489 c -0.327 0.517 -6.93 5.04 -7.91 5.427 c -0.392 0.129 -0.85 0 -0.915 -0.388 m 115.52 -2 c -2.157 -1.421 -3.988 -2.843 -4.184 -3.101 c -0.131 -0.258 0.392 -1.874 1.177 -3.489 l 1.504 -2.972 l -0.196 -40.832 c -0.131 -39.799 -0.196 -40.897 -1.242 -43.29 c -0.654 -1.421 -0.915 -2.649 -0.654 -2.907 c 3.269 -2.584 5.622 -4.2 6.276 -4.2 c 2.223 0 2.223 1.034 2.223 53.24 c 0 33.984 -0.131 49.878 -0.523 50.01 c -0.327 0.065 -2.288 -1.034 -4.38 -2.455 m -107.34 -101.37 c -5.295 -4.01 -8.302 -3.812 51.32 -3.941 c 32.752 -0.065 52.691 0.065 53.21 0.388 c 0.654 0.388 0.458 0.775 -1.046 2 c -3.399 2.778 -3.922 2.907 -6.668 1.68 c -2.419 -1.098 -2.615 -1.098 -44.846 -1.098 c -42.17 0 -42.493 0 -44.912 1.098 c -1.307 0.581 -2.484 1.292 -2.68 1.551 c -0.523 0.84 -1.569 0.452 -4.38 -1.68" fill="#7f7f7f" stroke="#7f7f7f"/><g fill="#5da50a" stroke="#5da50a"><path d="m 238.4 106.93 c -3.399 -1.744 -6.93 -4.975 -9.414 -8.593 c -6.799 -11.242 -4.707 -27.14 2.811 -35.47 c 6.145 -6.719 15.04 -9.497 24.19 -7.624 c 11.702 2.455 18.37 10.08 19.678 22.613 l 0.654 6.59 h -42.493 l 0.915 4.07 c 2.68 11.953 14.578 16.604 30.01 11.759 c 4.119 -1.292 7.779 -2.067 8.172 -1.68 c 0.327 0.388 0.654 1.938 0.654 3.424 c 0 4.781 -4.903 6.784 -17.978 7.301 c -10.46 0.388 -12.356 0.129 -17.193 -2.391 m 27.26 -29.914 c 1.177 -1.098 -2.288 -8.464 -5.165 -11.05 c -6.145 -5.362 -18.762 -3.037 -23.273 4.264 c -3.01 4.91 -3.073 6.655 -0.327 7.43 c 7.845 0.581 20.985 0.905 28.764 -0.646" stroke-width="1.208"/><path d="m 246.12 47.49 c -1.046 -0.258 -1.961 -0.905 -1.961 -1.421 c 0 -1.357 9.348 -14.601 10.264 -14.601 c 0.392 0 1.177 -1.098 1.765 -2.391 c 0.915 -2.197 1.373 -2.326 6.211 -2.132 c 8.04 0.258 8.172 -0.065 -4.968 14.343 c -5.23 5.75 -7.518 6.978 -11.31 6.202" stroke-width="0.895"/></g></g></svg>