<svg xmlns="http://www.w3.org/2000/svg" viewBox="0 0 16 16"><path d="m 15.266 11.785 c -3.152 7.559 -15.344 4.184 -15.266 -4.047 c -0.121 -7.484 9.574 -10.32 13.824 -4.992 c 2.125 2.305 2.867 6.125 1.441 9.04" fill="#2e2e2e"/><g fill="#fff" stroke="#fff" stroke-width="4.163" transform="scale(0.0625)"><path d="m 157 193.25 c -6 -1.563 -9.625 -5.813 -13.875 -16.313 l -4 -9.875 l 15.25 -36.563 c 8.375 -20.12 17.06 -40.688 19.25 -45.688 l 4 -9.06 l 8.5 10.438 c 15.188 18.563 20.75 41.13 15.438 62 c -7.688 29.813 -27.25 49.688 -44.563 45.06"/><path d="m 119.13 205.56 c -17.188 -3 -28.625 -8.813 -40.75 -20.813 c -23.438 -23.25 -28.938 -54.12 -14.75 -83.56 c 6.688 -13.813 11.75 -20.25 15.06 -19 c 1.438 0.563 12 24.625 23.563 53.44 c 11.563 28.813 23.313 56.31 26.19 61.06 c 2.813 4.75 4.688 9.125 4.063 9.688 c -1.188 1.25 -1.938 1.188 -13.375 -0.813"/><path d="m 113.81 102.69 c -7.25 -18.12 -13.188 -33.875 -13.188 -35.12 c 0 -2.75 10.563 -5.938 24.313 -7.375 c 10.125 -1 28.375 2 30.19 5 c 0.75 1.125 -25.563 67.5 -27.688 69.813 c -0.25 0.313 -6.375 -14.25 -13.625 -32.31"/></g></svg>