<svg xmlns="http://www.w3.org/2000/svg" viewBox="0 0 16 16"><path d="m 0.203 9.832 c 3.125 14.992 24.617 -1.102 11.707 -8.727 c -5.02 -3.266 -13.313 1.016 -11.707 8.727" fill="#b9a9b7"/><path d="m 170.39 140.8 c 0.098 17.258 -8.939 33.24 -23.724 41.918 c -14.833 8.68 -33.06 8.68 -47.889 0 c -14.784 -8.68 -23.822 -24.661 -23.724 -41.918 c -0.098 -17.309 8.939 -33.29 23.724 -41.969 c 14.833 -8.629 33.06 -8.629 47.889 0 c 14.784 8.68 23.822 24.661 23.724 41.969" transform="matrix(0.07953 0 0 0.07651 -2.145 -2.772)" fill="#fff" stroke="#fff" stroke-width="2.04"/><path d="m 7.285 12.367 c -0.508 -0.07 -0.703 -0.109 -1 -0.203 c -1.965 -0.613 -3.234 -2.535 -2.996 -4.535 c 0.113 -0.969 0.551 -1.859 1.25 -2.543 c 0.98 -0.961 2.355 -1.406 3.719 -1.207 c 0.938 0.141 1.742 0.539 2.414 1.199 c 0.863 0.848 1.285 1.848 1.285 3.03 c 0 1.176 -0.426 2.188 -1.27 3.02 c -0.797 0.781 -1.766 1.195 -2.91 1.242 c -0.207 0.012 -0.43 0.012 -0.488 0.004 m -0.281 -1.492 c 0.684 -0.91 3.313 -4.578 3.324 -4.641 c 0.02 -0.109 -0.055 -0.188 -0.18 -0.188 c -0.094 0 -0.16 0.086 -0.75 0.934 c -0.633 0.906 -0.652 0.93 -0.719 0.863 c -0.035 -0.035 -0.352 -0.445 -0.695 -0.906 l -0.633 -0.836 h -1.27 c -0.898 0 -1.277 0.012 -1.289 0.039 c -0.004 0.023 0.195 0.289 0.449 0.59 c 0.469 0.563 2.195 2.785 2.227 2.875 c 0.012 0.027 -0.168 0.297 -0.395 0.602 c -0.23 0.305 -0.438 0.59 -0.461 0.633 c -0.063 0.113 0.008 0.223 0.141 0.223 c 0.09 0 0.137 -0.035 0.25 -0.188" fill="#252323"/><path d="m 115.19 212.62 c -16.813 -1.187 -34.813 -8.375 -48.31 -19.19 c -14.813 -11.937 -25.438 -29.25 -29.375 -47.812 c -1.688 -8 -1.688 -25.375 -0.063 -33.25 c 5.625 -26.12 22.875 -48 46.813 -59 c 38.19 -17.687 83.938 -7.06 108.44 25.19 c 5.125 6.75 12.188 21.06 14.313 28.937 c 3.438 13.06 3.063 32.5 -0.938 45.31 c -9.375 30.25 -35.31 52.937 -66.75 58.5 c -10.25 1.812 -14 2.062 -24.13 1.312 m 14.625 -14.937 c 20.938 -2.562 37.75 -12.562 50.06 -29.75 c 15.563 -21.75 15.563 -54.56 0 -76.31 c -10.438 -14.562 -23.625 -23.687 -41.25 -28.625 c -4.313 -1.187 -8.75 -1.562 -17.688 -1.5 c -10.5 0 -12.813 0.313 -19.438 2.437 c -10 3.312 -15 5.875 -22.875 11.812 c -12.313 9.375 -21.06 22.75 -24.875 38.06 c -1.563 6.187 -1.813 9.312 -1.5 18.562 c 0.313 9.5 0.813 12.187 3.063 18.75 c 8.313 23.812 27.563 40.44 52.813 45.75 c 9.5 1.937 11.875 2.062 21.688 0.812" transform="scale(0.0625 0.0625)" fill="#d4294d" stroke="#d4294d" stroke-width="1.801"/></svg>