<svg xmlns="http://www.w3.org/2000/svg" xmlns:xlink="http://www.w3.org/1999/xlink" viewBox="0 0 16 16"><defs><g id="4" clip-path="url(#3)"><path d="m 5.234 7.656 l -0.391 -0.578 l -0.531 0.027 l -0.707 0.578 l -0.313 0.777 l -0.027 1.078 l 0.246 0.832 l 0.363 0.477 l 0.363 0.023 l 0.34 -0.125 l 1.262 -1.859"/><path d="m 12.09 8.197 c -1.043 -1.775 -2.337 -5.107 -3.856 -4.844 c -12.05 1.951 -8.802 21.808 -2.926 21.786 c 3.675 -0.197 4.514 -4.493 6.556 -7.079" transform="matrix(0.1722 0 0 0.17822 3.243 6.422)" stroke="#000"/><path d="m 32.751 9.118 c 2.563 1.359 4.945 2.236 8.303 5.326 c 0.181 2.214 -0.567 3.901 -2.155 4.318 c -4.174 1.052 -5.422 0.022 -7.849 -0.088" transform="matrix(0.1722 0 0 0.17822 3.243 6.422)" stroke="#000"/><path d="m 8.84 8.125 l 0.238 1.621 c 0.152 0.043 0.281 0.031 0.406 0.012 c 0.047 -0.594 -0.02 -0.875 -0.117 -1.367"/><path d="m 7.215 6.379 c -0.102 0 -0.211 0.008 -0.316 0.016 c -1.477 0.59 -1.684 1.133 -2.238 1.688 l -0.215 1.816 c 0.352 0.957 0.766 1.094 1.699 0.797 c -0.125 0.586 0.766 0.715 1.168 0.438 l 0.344 -0.371 c 0.363 0.008 0.566 0.137 0.793 -0.547 c 0.328 0.125 0.625 -0.129 0.641 -0.363 c 0.035 -0.629 0.129 -1.352 -0.355 -1.836 l 2.465 0.039 c 1.027 -0.188 1.289 -1.551 0.742 -1.578 c -1.625 0.207 -3.164 -0.145 -4.727 -0.098"/><path d="m 4.711 10.492 c -0.371 -0.277 -0.262 -1.145 -0.242 -1.754 c -0.246 0.637 -0.422 1.359 -0.039 2.047"/><path d="m 5.902 6.941 c -0.484 0.297 -0.805 0.863 -1.105 1.223 c -0.59 0.645 -1.277 0.645 -1.125 -0.406 c -0.188 0.258 -0.254 0.547 -0.32 0.832 c -0.012 0.328 -0.043 0.602 0.039 1.176 c 0.188 0.57 0.262 0.867 0.59 1.02 c 0.27 0.141 0.531 -0.055 0.715 -0.32 l 0.551 0.398 l 0.641 -0.059 l 0.297 -0.215 l 0.078 0.543 l 0.449 0.098 c 0.332 0.164 0.516 -0.074 0.75 -0.289 l 0.133 -0.156 h 0.488 c 0.242 -0.332 0.453 -0.664 0.938 -0.641 l 0.113 -0.992 c -0.355 -0.379 -0.773 -0.52 -1.238 -0.699 c 0.297 0.379 0.508 0.789 0.578 1.246 c -0.629 -0.523 -1.105 -0.84 -1.426 -0.797 c 0.477 0.465 0.676 0.719 0.477 1.121 c -0.824 -1.293 -1.867 -0.367 -2.164 -1.453 c -0.094 -0.352 0.363 -1.184 0.543 -1.629"/><path d="m -14.473 1.115 c 3.221 -3.112 4.423 -6.159 13.02 -9.469 c 9.686 -0.614 19.19 1.71 29.26 0.46 c 3.176 0.132 1.656 7.825 -4.31 8.855 l -14.337 -0.219 c 2.813 2.718 2.291 6.795 2.087 10.323 c -0.091 1.293 -1.837 2.718 -3.743 2.02 c -1.293 3.836 -2.473 3.112 -4.582 3.068 l -1.996 2.082 c -2.337 1.556 -7.509 0.833 -6.783 -2.477 c -5.422 1.666 -7.803 0.899 -9.868 -4.449" transform="matrix(0.1722 0 0 0.17822 7.156 7.918)" stroke="url(#2)"/><path d="m -0.227 5.805 c 2.881 1.293 2.904 5.699 2.926 10.17" transform="matrix(0.1722 0 0 0.17822 7.156 7.918)" stroke="#000" stroke-linecap="round"/><path d="m 4.083 2.956 c 3.312 2.082 3.607 6.356 3.471 9.951" transform="matrix(0.1722 0 0 0.17822 7.156 7.918)" stroke="#000" stroke-linecap="round"/><path d="m -2.223 13.13 c -1.86 -0.504 -2.994 0.022 -3.63 2.389" transform="matrix(0.1722 0 0 0.17822 7.156 7.918)" stroke="#000" stroke-linecap="round"/><path d="m 4.57 9.422 c 0.004 0.723 0.43 1.094 1.246 1.305 c -0.852 0.23 -1.305 -0.219 -1.246 -1.305"/></g><g id="7" clip-path="url(#6)"><path d="m 5.234 7.5 l -0.391 -0.578 l -0.531 0.023 l -0.707 0.578 l -0.313 0.781 l -0.027 1.078 l 0.246 0.828 l 0.363 0.48 l 0.363 0.023 l 0.34 -0.125 l 1.262 -1.859"/><path d="m 12.09 8.201 c -1.043 -1.775 -2.337 -5.107 -3.856 -4.844 c -12.05 1.951 -8.802 21.808 -2.926 21.786 c 3.675 -0.197 4.514 -4.493 6.556 -7.079" transform="matrix(0.1722 0 0 0.17822 3.243 6.265)" stroke="#000"/><path d="m 32.751 9.121 c 2.563 1.337 4.945 2.236 8.303 5.326 c 0.181 2.214 -0.567 3.901 -2.155 4.296 c -4.174 1.074 -5.422 0.044 -7.849 -0.066" transform="matrix(0.1722 0 0 0.17822 3.243 6.265)" stroke="#000"/><path d="m 8.84 7.969 l 0.238 1.621 c 0.152 0.043 0.281 0.031 0.406 0.008 c 0.047 -0.59 -0.02 -0.871 -0.117 -1.363"/><path d="m 7.215 6.223 c -0.102 0 -0.211 0.008 -0.316 0.016 c -1.477 0.59 -1.684 1.133 -2.238 1.688 l -0.215 1.816 c 0.352 0.953 0.766 1.09 1.699 0.797 c -0.125 0.586 0.766 0.715 1.168 0.438 l 0.344 -0.371 c 0.363 0.008 0.566 0.137 0.793 -0.547 c 0.328 0.125 0.625 -0.129 0.641 -0.363 c 0.035 -0.629 0.129 -1.352 -0.355 -1.836 l 2.465 0.039 c 1.027 -0.188 1.289 -1.555 0.742 -1.578 c -1.625 0.207 -3.164 -0.145 -4.727 -0.098"/><path d="m 4.711 10.336 c -0.371 -0.277 -0.262 -1.145 -0.242 -1.758 c -0.246 0.641 -0.422 1.363 -0.039 2.051"/><path d="m 5.902 6.785 c -0.484 0.297 -0.805 0.863 -1.105 1.223 c -0.59 0.645 -1.277 0.645 -1.125 -0.41 c -0.188 0.262 -0.254 0.551 -0.32 0.836 c -0.012 0.328 -0.043 0.602 0.039 1.176 c 0.188 0.57 0.262 0.867 0.59 1.02 c 0.27 0.137 0.531 -0.055 0.715 -0.32 l 0.551 0.398 l 0.641 -0.059 l 0.297 -0.215 l 0.078 0.543 l 0.449 0.098 c 0.332 0.164 0.516 -0.078 0.75 -0.289 l 0.133 -0.156 h 0.488 c 0.242 -0.332 0.453 -0.664 0.938 -0.641 l 0.113 -0.992 c -0.355 -0.379 -0.773 -0.52 -1.238 -0.699 c 0.297 0.379 0.508 0.789 0.578 1.242 c -0.629 -0.523 -1.105 -0.836 -1.426 -0.793 c 0.477 0.465 0.676 0.719 0.477 1.121 c -0.824 -1.293 -1.867 -0.367 -2.164 -1.453 c -0.094 -0.352 0.363 -1.184 0.543 -1.629"/><path d="m -14.473 1.119 c 3.221 -3.112 4.423 -6.159 13.02 -9.469 c 9.686 -0.614 19.19 1.688 29.26 0.46 c 3.176 0.132 1.656 7.825 -4.31 8.855 l -14.337 -0.219 c 2.813 2.718 2.291 6.795 2.087 10.323 c -0.091 1.293 -1.837 2.718 -3.743 2.02 c -1.293 3.836 -2.473 3.112 -4.582 3.068 l -1.996 2.082 c -2.337 1.534 -7.509 0.833 -6.783 -2.477 c -5.422 1.666 -7.803 0.899 -9.868 -4.471" transform="matrix(0.1722 0 0 0.17822 7.156 7.762)" stroke="url(#2)"/><path d="m -0.227 5.809 c 2.881 1.293 2.904 5.677 2.926 10.17" transform="matrix(0.1722 0 0 0.17822 7.156 7.762)" stroke="#000" stroke-linecap="round"/><path d="m 4.083 2.96 c 3.312 2.082 3.607 6.356 3.471 9.951" transform="matrix(0.1722 0 0 0.17822 7.156 7.762)" stroke="#000" stroke-linecap="round"/><path d="m -2.223 13.13 c -1.86 -0.504 -2.994 0.022 -3.63 2.389" transform="matrix(0.1722 0 0 0.17822 7.156 7.762)" stroke="#000" stroke-linecap="round"/><path d="m 4.57 9.266 c 0.004 0.719 0.43 1.094 1.246 1.305 c -0.852 0.23 -1.305 -0.219 -1.246 -1.305"/></g><clipPath id="6"><path d="M 0,0 H16 V16 H0 z"/></clipPath><clipPath id="3"><path d="M 0,0 H16 V16 H0 z"/></clipPath><filter id="0" filterUnits="objectBoundingBox" x="0" y="0" width="16" height="16"><feColorMatrix type="matrix" in="SourceGraphic" values="0 0 0 0 1 0 0 0 0 1 0 0 0 0 1 0 0 0 1 0"/></filter><linearGradient id="A" gradientUnits="userSpaceOnUse" x1="16.11" y1="28.13" x2="19.266" y2="6.886" gradientTransform="matrix(0.1722 0 0 0.17822 3.243 6.148)"><stop stop-color="#696969"/><stop offset="1" stop-color="#7d7d7d" stop-opacity="0"/></linearGradient><linearGradient id="9" gradientUnits="userSpaceOnUse" x1="6.846" y1="27.04" x2="7.119" y2="13.695" gradientTransform="matrix(0.1722 0 0 0.17822 3.243 6.148)"><stop stop-color="#404040"/><stop offset="1" stop-color="#404040" stop-opacity="0"/></linearGradient><linearGradient id="8" gradientUnits="userSpaceOnUse" x1="34.35" y1="14.975" x2="36.04" y2="14.812" gradientTransform="matrix(0.1722 0 0 0.17822 3.243 6.148)"><stop stop-color="#2d2d2d"/><stop offset="1" stop-color="#2d2d2d" stop-opacity="0"/></linearGradient><linearGradient id="2" gradientUnits="userSpaceOnUse" x1="-11.698" y1="5.927" x2="-14.296" y2="5.585"><stop stop-color="#000"/><stop offset="1" stop-color="#000" stop-opacity="0"/></linearGradient><linearGradient id="B" gradientUnits="userSpaceOnUse" x1="8.446" y1="24.507" x2="11.786" y2="20.964" gradientTransform="matrix(0.1722 0 0 0.17822 3.243 6.148)"><stop stop-color="#f4f4f4"/><stop offset="1" stop-color="#f4f4f4" stop-opacity="0"/></linearGradient><mask id="1"><g filter="url(#0)"><path fill-opacity="0.102" d="M 0,0 H16 V16 H0 z"/></g></mask><mask id="5"><g filter="url(#0)"><path fill-opacity="0.2" d="M 0,0 H16 V16 H0 z"/></g></mask></defs><path d="m 0.293 5.086 c -2.781 22.539 29.17 3.855 8.73 -4.422 c -3.59 -1.27 -7.633 -0.168 -8.73 4.422" fill="#4c54b1"/><use xlink:href="#4" mask="url(#1)"/><use xlink:href="#7" mask="url(#5)"/><path d="m 5.234 7.383 l -0.391 -0.578 l -0.531 0.023 l -0.707 0.578 l -0.313 0.781 l -0.027 1.078 l 0.246 0.828 l 0.363 0.48 l 0.363 0.023 l 0.34 -0.125 l 1.262 -1.859" fill="#f4f4f4"/><g stroke="#000" transform="matrix(0.1722 0 0 0.17822 3.243 6.148)"><path d="m 12.09 8.202 c -1.043 -1.775 -2.337 -5.107 -3.856 -4.844 c -12.05 1.951 -8.802 21.808 -2.926 21.786 c 3.675 -0.197 4.514 -4.493 6.556 -7.079" fill="none"/><path d="m 32.751 9.123 c 2.563 1.337 4.945 2.236 8.303 5.326 c 0.181 2.214 -0.567 3.901 -2.155 4.296 c -4.174 1.074 -5.422 0.044 -7.849 -0.066" fill="#d6d6d6"/></g><path d="m 8.84 7.852 l 0.238 1.621 c 0.152 0.043 0.281 0.031 0.406 0.008 c 0.047 -0.59 -0.02 -0.871 -0.117 -1.363" fill="url(#8)"/><path d="m 7.215 6.102 c -0.102 0.004 -0.211 0.012 -0.316 0.02 c -1.477 0.59 -1.684 1.129 -2.238 1.688 l -0.215 1.816 c 0.352 0.953 0.766 1.09 1.699 0.793 c -0.125 0.59 0.766 0.719 1.168 0.441 l 0.344 -0.371 c 0.363 0.008 0.566 0.137 0.793 -0.547 c 0.328 0.125 0.625 -0.129 0.641 -0.363 c 0.035 -0.629 0.129 -1.352 -0.355 -1.836 l 2.465 0.039 c 1.027 -0.188 1.289 -1.555 0.742 -1.578 c -1.625 0.207 -3.164 -0.145 -4.727 -0.102" fill="#f4f4f4"/><path d="m 4.711 10.219 c -0.371 -0.281 -0.262 -1.145 -0.242 -1.758 c -0.246 0.641 -0.422 1.363 -0.039 2.051" fill="url(#9)"/><path d="m 5.902 6.668 c -0.484 0.297 -0.805 0.863 -1.105 1.223 c -0.59 0.645 -1.277 0.645 -1.125 -0.41 c -0.188 0.262 -0.254 0.551 -0.32 0.836 c -0.012 0.328 -0.043 0.602 0.039 1.176 c 0.188 0.57 0.262 0.867 0.59 1.02 c 0.27 0.137 0.531 -0.055 0.715 -0.32 l 0.551 0.398 l 0.641 -0.059 l 0.297 -0.215 l 0.078 0.543 l 0.449 0.098 c 0.332 0.164 0.516 -0.078 0.75 -0.293 l 0.133 -0.152 h 0.488 c 0.242 -0.332 0.453 -0.664 0.938 -0.641 l 0.113 -0.992 c -0.355 -0.379 -0.773 -0.52 -1.238 -0.699 c 0.297 0.379 0.508 0.789 0.578 1.242 c -0.629 -0.523 -1.105 -0.836 -1.426 -0.793 c 0.477 0.465 0.676 0.719 0.477 1.121 c -0.824 -1.293 -1.867 -0.371 -2.164 -1.453 c -0.094 -0.352 0.363 -1.184 0.543 -1.633" fill="url(#A)"/><g fill="none"><path d="m -14.473 1.12 c 3.221 -3.112 4.423 -6.159 13.02 -9.469 c 9.686 -0.614 19.19 1.688 29.26 0.46 c 3.176 0.132 1.656 7.825 -4.31 8.855 l -14.337 -0.219 c 2.813 2.718 2.291 6.773 2.087 10.323 c -0.091 1.293 -1.837 2.718 -3.743 2.02 c -1.293 3.836 -2.473 3.112 -4.582 3.068 l -1.996 2.082 c -2.337 1.534 -7.509 0.833 -6.783 -2.477 c -5.422 1.666 -7.803 0.899 -9.868 -4.471" transform="matrix(0.1722 0 0 0.17822 7.156 7.644)" stroke="url(#2)"/><g stroke="#000" stroke-linecap="round" transform="matrix(0.1722 0 0 0.17822 7.156 7.644)"><path d="m -0.227 5.811 c 2.881 1.293 2.904 5.677 2.926 10.17"/><path d="m -2.223 13.13 c -1.86 -0.504 -2.994 0.022 -3.63 2.389"/></g></g><path d="m 4.57 9.148 c 0.004 0.719 0.43 1.094 1.246 1.301 c -0.852 0.234 -1.305 -0.215 -1.246 -1.301" fill="url(#B)"/></svg>