<svg xmlns="http://www.w3.org/2000/svg" viewBox="0 0 22 22"><path d="m 21.16 19.391 c 1.328 -7.02 1.379 -17.379 -7.293 -18.797 c -5.188 -0.695 -11.551 -0.051 -13.246 5.68 c -1.73 9.08 3.563 13.05 8.879 14.531 c 2.957 0.625 9.809 2.684 11.66 -1.414" fill="#bb8e8e"/><path d="m 17.531 10.75 c 0 3.594 -2.957 6.508 -6.605 6.508 c -3.652 0 -6.609 -2.914 -6.609 -6.508 c 0 -3.594 2.957 -6.508 6.609 -6.508 c 3.648 0 6.605 2.914 6.605 6.508" fill="#f44700"/><path d="m 116.18 180.68 c -13.545 -2.545 -22.773 -11.409 -26.818 -25.864 c -1.273 -4.545 -1.318 -5.864 -1.5 -38.14 l -0.227 -33.409 h 16.182 l 0.227 30.409 c 0.318 32.727 0.5 34.909 3.636 41.727 c 2.091 4.545 4.227 6.727 8.682 8.909 l 4 2 l 12 -0.091 c 6.591 -0.045 12.818 -0.318 13.818 -0.636 l 1.773 -0.591 l 0.182 -40.864 l 0.136 -40.864 h 16.182 v 93.5 l -1.636 0.364 c -0.909 0.227 -2.591 0.591 -3.773 0.909 c -11.818 2.909 -34.05 4.273 -42.864 2.636" transform="scale(0.08594)" fill="#fff" stroke="#fff" stroke-width="1.104"/><path d="m 16.848 12.75 l 1.57 5.664 l -2.836 -0.734 l -2.836 -0.73 l 2.051 -2.102" fill="#f44700"/></svg>