<svg xmlns="http://www.w3.org/2000/svg" viewBox="0 0 22 22"><path d="m 18.512 18.512 c -23.613 16.11 -24.883 -30.949 -2.148 -14.93 c 5.18 3.652 8.402 10.664 2.148 14.93" fill="#194e80"/><path d="m 7.01 5.316 c -0.277 -0.004 -0.543 0.098 -0.742 0.285 c -0.199 0.191 -0.309 0.449 -0.309 0.719 v 9.156 c 0 0.355 0.195 0.688 0.512 0.867 c 0.316 0.18 0.707 0.18 1.023 0 l 8.117 -4.578 c 0.316 -0.18 0.512 -0.512 0.512 -0.867 c 0 -0.359 -0.195 -0.691 -0.512 -0.867 l -8.117 -4.578 c -0.148 -0.086 -0.313 -0.129 -0.484 -0.137 m 1.129 2.926 l 4.707 2.656 l -4.707 2.66 m 6.535 -0.57 v 2.094 h -1.453 l 2.539 2.789 l 2.543 -2.789 h -1.453 v -2.094" fill="#fff"/></svg>