<svg xmlns="http://www.w3.org/2000/svg" viewBox="0 0 22 22"><path d="m 5.727 2.602 c 5.078 -5.03 9.77 -1.348 13.625 2.648 c 3.137 3.254 3.277 6.273 1.199 9.469 c -5.43 8.355 -12.48 11.453 -19.863 -1.504 c -1.82 -4.273 2.02 -8.246 5.04 -10.613" fill="#b199c3"/><path d="m 10.531 19.789 c -0.156 -0.109 -0.164 -0.164 -0.164 -1.102 c 0 -1.164 0.035 -1.23 0.645 -1.23 c 0.551 0 0.605 0.109 0.605 1.242 c 0 0.813 -0.02 0.926 -0.148 1.059 c -0.18 0.184 -0.703 0.199 -0.938 0.031 m -4.25 -2.879 c -0.328 -0.332 -0.324 -0.559 0.008 -0.898 c 0.336 -0.336 0.559 -0.34 0.887 -0.008 c 0.332 0.332 0.332 0.602 0.008 0.918 c -0.324 0.32 -0.578 0.316 -0.902 -0.012 m 3.516 -0.344 c -1.465 -0.387 -2.824 -1.477 -3.496 -2.797 c -0.469 -0.918 -0.637 -1.617 -0.637 -2.617 c 0 -1.551 0.527 -2.836 1.613 -3.934 c 1.086 -1.098 2.359 -1.633 3.898 -1.633 c 1.535 0 2.813 0.535 3.898 1.629 c 1.086 1.098 1.613 2.387 1.613 3.937 c 0 1.547 -0.527 2.828 -1.617 3.934 c -1.09 1.109 -2.359 1.633 -3.926 1.625 c -0.555 -0.004 -0.984 -0.047 -1.348 -0.145 m 2.586 -1.719 c 0.613 -0.203 1.035 -0.473 1.512 -0.949 c 0.754 -0.766 1.105 -1.605 1.113 -2.668 c 0.008 -1.5 -0.66 -2.703 -1.922 -3.473 c -0.715 -0.434 -1.918 -0.602 -2.828 -0.391 c -0.898 0.207 -1.938 0.977 -2.402 1.785 c -0.551 0.945 -0.68 2.238 -0.332 3.25 c 0.301 0.871 0.949 1.668 1.742 2.137 c 0.863 0.516 2.125 0.641 3.117 0.309 m -2.238 -0.656 c -0.492 -0.18 -1.109 -0.598 -1.402 -0.957 c -0.516 -0.621 -0.914 -1.918 -0.648 -2.09 c 0.059 -0.035 0.758 -0.066 1.555 -0.066 h 1.453 v -1.465 c 0 -0.809 0.031 -1.512 0.066 -1.57 c 0.105 -0.168 0.805 -0.055 1.379 0.223 c 1.406 0.676 2.109 2.309 1.652 3.832 c -0.293 0.977 -1.039 1.75 -2.02 2.098 c -0.563 0.199 -1.48 0.195 -2.039 -0.004 m 5.844 2.379 c -0.258 -0.105 -0.504 -0.434 -0.504 -0.672 c 0 -0.246 0.254 -0.566 0.527 -0.676 c 0.336 -0.129 0.84 0.305 0.84 0.723 c 0 0.211 -0.328 0.582 -0.57 0.645 c -0.078 0.023 -0.211 0.012 -0.293 -0.02 m -13.23 -5.43 c -0.219 -0.129 -0.254 -0.215 -0.254 -0.594 c -0.004 -0.602 0.176 -0.684 1.395 -0.645 c 0.949 0.027 1.027 0.082 1.027 0.656 c 0 0.586 -0.066 0.629 -1.113 0.648 c -0.598 0.016 -0.957 -0.008 -1.055 -0.066 m 14.906 0.008 c -0.195 -0.078 -0.262 -0.297 -0.23 -0.742 c 0.035 -0.449 0.184 -0.512 1.188 -0.516 c 1.07 0 1.223 0.082 1.227 0.68 c 0 0.289 -0.035 0.375 -0.195 0.5 c -0.168 0.137 -0.289 0.156 -1.01 0.152 c -0.449 -0.004 -0.891 -0.035 -0.98 -0.074 m -11.09 -5.191 c -0.223 -0.086 -0.543 -0.5 -0.543 -0.703 c 0 -0.188 0.355 -0.594 0.586 -0.668 c 0.176 -0.055 0.539 0.129 0.695 0.352 c 0.184 0.262 0.141 0.52 -0.125 0.773 c -0.285 0.273 -0.41 0.32 -0.613 0.246 m 8.582 -0.242 c -0.313 -0.328 -0.309 -0.586 0.016 -0.914 c 0.324 -0.324 0.512 -0.316 0.863 0.035 c 0.344 0.348 0.355 0.516 0.055 0.859 c -0.305 0.355 -0.605 0.359 -0.934 0.02 m -4.668 -1 c -0.102 -0.113 -0.121 -0.309 -0.121 -1.109 c 0 -0.922 0.008 -0.98 0.164 -1.09 c 0.234 -0.168 0.758 -0.148 0.938 0.035 c 0.129 0.133 0.148 0.246 0.148 1.059 c 0 1.141 -0.051 1.242 -0.617 1.242 c -0.285 0 -0.422 -0.039 -0.512 -0.137" fill="#fff"/></svg>