<svg xmlns="http://www.w3.org/2000/svg" viewBox="0 0 16 16"><path d="m 12.11 1.168 c 14.09 12.09 -14.871 23.711 -11.898 5.02 c 0.652 -4.102 8.105 -8.273 11.898 -5.02" fill="#9782c1"/><g fill="#fff" stroke="#fff" stroke-width="1.01" transform="matrix(0.0625 0 0 0.0625 -0.068 0)"><path d="m 56.4 87.19 c -1 6.375 -0.188 12.438 7.875 9.875 c 6.5 0 12.938 0 19.438 0 c 0 26 0 52 0 78 c 3.563 0.563 14.813 3.625 13.688 -3 c 0 -25 0 -50 0 -75 c 9 -0.5 18.75 1 27.19 -0.688 c 0.688 -5.5 1.125 -12.625 -6.75 -10 c -20.19 0 -40.37 0 -60.62 0 l -0.688 0.75"/><path d="m 167.71 106.56 c -7.125 0.25 -13.375 4.625 -17.75 10 c 2.375 -7.938 -3.313 -9.125 -9.938 -7.938 c -4.188 2.938 -0.625 11.75 -1.813 16.938 c 0 16.5 0 33 0 49.5 c 4.188 1.438 14.313 2.813 11.625 -5.063 c 0.875 -13.938 -0.875 -28.25 1.875 -42 c 1.813 -6.75 8.125 -11.375 15.25 -10.125 c 7.563 -0.75 10.875 8 10.375 14.25 c 0.563 14.313 0.188 28.625 0.313 42.938 c 3.313 0.625 14.06 3.563 12.688 -3 c -0.75 -17.813 1.813 -36.12 -2.688 -53.56 c -2.688 -8.06 -11.938 -12.313 -19.938 -11.938"/></g></svg>