<svg xmlns="http://www.w3.org/2000/svg" viewBox="0 0 16 16"><path d="m 12.11 1.168 c 14.09 12.09 -14.871 23.711 -11.898 5.02 c 0.652 -4.102 8.105 -8.273 11.898 -5.02" fill="#9782c1"/><g fill="#fff" stroke="#fff"><path d="m 57.44 86.13 c 0 29.31 0 58.63 0 87.94 c 3.313 0.625 14 3.5 12.688 -3 c 0.188 -23.25 0.313 -46.44 0.5 -69.62 c 4.813 13.875 9.563 27.75 14.375 41.563 c 3.625 0.938 10 1.875 11.313 -3.313 c 4.938 -12.5 8.688 -25.438 13.188 -38.12 c 0.125 24.19 0.313 48.31 0.5 72.5 c 3.313 0.625 14 3.5 12.688 -3.063 c 0 -28.313 0 -56.625 0 -84.87 c -5.125 -1.813 -11.688 0.188 -17.313 -0.25 c -6 13.13 -9.75 29.375 -15.563 41.875 c -5.188 -13.875 -9.125 -28.563 -15 -41.875 c -5.563 0.438 -12.375 -1.625 -17.375 0.25" transform="scale(0.0625)" stroke-width="1.01"/><path d="m 165.88 105.71 c -15.375 -0.063 -29.375 12.25 -30.813 27.688 c -3.438 16.438 3.813 37.5 21.5 42.06 c 11.25 1.188 23.75 2 34 -3.5 c 2.375 -2.875 1.563 -7.5 0.938 -10.875 c -10.375 2.813 -21.813 7.75 -32.688 3.438 c -8.375 -2.688 -11.813 -12.438 -11.375 -20.563 c 15.688 0 31.375 0 47 0 c 2.25 -8.313 -0.688 -18.13 -4.563 -25.938 c -4.875 -8.25 -14.625 -12.688 -24 -12.313 m 0.75 10.438 c 9.25 -0.375 16.625 9.188 15.938 17.938 c -11.438 1.5 -23.438 0.25 -35.12 0.688 c 1.063 -9.75 9 -18.625 19.19 -18.625" transform="matrix(0.0625 0 0 0.0625 -0.137 -0.044)" stroke-width="1.087"/></g></svg>