<svg xmlns="http://www.w3.org/2000/svg" viewBox="0 0 16 16"><path d="m 12.152 1.941 c -6.05 -5.355 -13.09 2.75 -11.961 10.422 c 0.801 5.723 16.758 4.301 15.688 -4 c -0.316 -2.469 -1.754 -4.676 -3.727 -6.422" fill="#ff8c00"/><path d="m 9.363 12.559 l -0.176 -0.148 l -0.02 -0.98 c -0.02 -1.133 0.016 -1.32 0.281 -1.469 c 0.176 -0.098 0.18 -0.102 0.211 -0.578 c 0.051 -0.688 0.254 -1.027 0.762 -1.246 c 0.254 -0.113 0.711 -0.125 0.957 -0.027 c 0.258 0.102 0.512 0.32 0.641 0.559 c 0.09 0.16 0.121 0.328 0.141 0.703 l 0.023 0.496 l 0.172 0.078 c 0.098 0.043 0.203 0.133 0.234 0.203 c 0.082 0.164 0.086 2.168 0.008 2.305 c -0.129 0.23 -0.289 0.254 -1.715 0.254 h -1.344 m 2.094 -3.25 c 0 -0.621 -0.219 -0.91 -0.684 -0.91 c -0.512 0 -0.766 0.301 -0.766 0.918 c 0 0.184 0.016 0.348 0.035 0.367 c 0.02 0.02 0.344 0.031 0.723 0.031 h 0.691 m -9.703 1.871 c -0.051 -0.074 9.133 -8.742 9.211 -8.695 c 0.066 0.039 0.094 3.852 0.027 4.01 c -0.02 0.055 -0.102 0.078 -0.254 0.078 c -1.086 0 -2.066 0.836 -2.164 1.844 c -0.027 0.262 -0.066 0.387 -0.164 0.492 c -0.289 0.324 -0.336 0.52 -0.336 1.395 c -0.004 0.566 -0.023 0.832 -0.066 0.875 c -0.09 0.086 -6.199 0.09 -6.254 0.004" fill="#fff"/></svg>