<svg xmlns="http://www.w3.org/2000/svg" viewBox="0 0 16 16"><path d="m 1.656 3.789 c -5.75 8.109 4.871 16.324 11.652 9.719 c 6.383 -6.227 0.465 -15.895 -7.48 -12.875 c -1.66 0.633 -3.113 1.668 -4.172 3.156" fill="#ff4500"/><path d="m 12 2.816 c 0 0 0.242 0.133 0.242 0.305 v 8.801 c 0 0.336 -0.219 0.605 -0.488 0.605 h -3.914 c -0.273 0 -0.492 -0.27 -0.492 -0.605 v -7.285 c 0 -0.336 0.219 -0.605 0.492 -0.605 h 3.426 v -0.91 c 0 -0.168 0.242 -0.305 0.242 -0.305 m 0 2.426 h -3.426 c -0.133 0 -0.242 0.137 -0.242 0.305 v 1.82 c 0 0.168 0.109 0.305 0.242 0.305 h 3.426 c 0.137 0 0.246 -0.137 0.246 -0.305 v -1.82 c 0 -0.168 -0.109 -0.305 -0.246 -0.305 m 0.246 3.035 h -0.98 v 0.609 h 0.98 m -1.469 -0.609 h -0.977 v 0.609 h 0.977 m -1.469 -0.609 h -0.977 v 0.609 h 0.977 m 2.938 0.605 h -0.98 v 0.605 h 0.98 m -1.469 -0.605 h -0.977 v 0.605 h 0.977 m -1.469 -0.605 h -0.977 v 0.605 h 0.977 m 2.938 0.609 h -0.98 v 0.605 h 0.98 m -1.469 -0.605 h -0.977 v 0.605 h 0.977 m -1.469 -0.605 h -0.977 v 0.605 h 0.977" fill="#fff"/><g fill="#ec4e27" stroke="#fff" stroke-linejoin="round" stroke-linecap="round" stroke-width="6.668" transform="matrix(0.19543 0 0 0.19895 -0.513 3.868)"><path d="m 15.555 15.568 l 16.89 16.866"/><path d="m 32.445 15.568 l -16.89 16.866"/></g></svg>