<svg xmlns="http://www.w3.org/2000/svg" viewBox="0 0 16 16"><path d="m 4.574 15.941 c 23.01 1.59 5.762 -29.11 -4.01 -8.895 c -1.348 3.113 -0.363 7.758 4.01 8.895" fill="#613969"/><g fill="#fff"><path d="m 7.992 3.18 c -1.727 0 -3.129 1.418 -3.129 3.168 c 0.004 0.082 0.008 0.164 0.012 0.242 h -0.012 v 0.246 h -0.66 c -0.266 0 -0.477 0.211 -0.477 0.473 v 3.316 c 0 0.262 0.211 0.473 0.477 0.473 h 0.66 v 1.34 c 0 0.273 0.215 0.488 0.48 0.488 h 1.688 l 0.719 -1.219 h 0.48 l 0.723 1.219 h 1.684 c 0.266 0 0.48 -0.215 0.48 -0.488 v -1.34 h 0.664 c 0.262 0 0.473 -0.211 0.473 -0.473 v -3.316 c 0 -0.262 -0.211 -0.473 -0.473 -0.473 h -0.664 v -0.246 h -0.008 c 0.004 -0.078 0.008 -0.16 0.008 -0.242 c 0 -1.75 -1.398 -3.168 -3.125 -3.168 m 0 1.219 c 1.098 0 1.988 0.609 1.988 2.422 c 0 0.012 0 0.02 0 0.031 l -3.98 -0.004 c 0 -0.008 0 -0.016 0 -0.027 c 0 -1.813 0.891 -2.422 1.992 -2.422 m -1.422 1.219 v 0.609 h 0.566 v -0.609 m 1.707 0 v 0.609 h 0.566 v -0.609 m -3.691 2.438 c 0.469 0 0.852 0.41 0.852 0.914 c 0 0.504 -0.383 0.914 -0.852 0.914 c -0.473 0 -0.855 -0.41 -0.855 -0.914 c 0 -0.504 0.383 -0.914 0.855 -0.914 m 2.273 0 c 0.469 0 0.852 0.41 0.852 0.914 c 0 0.504 -0.383 0.914 -0.852 0.914 c -0.473 0 -0.855 -0.41 -0.855 -0.914 c 0 -0.504 0.383 -0.914 0.855 -0.914 m 2.273 0 c 0.469 0 0.852 0.41 0.852 0.914 c 0 0.504 -0.383 0.914 -0.852 0.914 c -0.473 0 -0.855 -0.41 -0.855 -0.914 c 0 -0.504 0.383 -0.914 0.855 -0.914" fill-opacity="0.302"/><path d="m 5.434 8.664 v 0.609 h 0.566 v -0.609 m 1.707 0 v 0.609 h 0.566 v -0.609 m 1.707 0 v 0.609 h 0.566 v -0.609"/></g></svg>