<svg xmlns="http://www.w3.org/2000/svg" viewBox="0 0 16 16"><path d="m 1.527 3.758 c -8.703 15.902 23.1 16.652 12.152 0.258 c -2.891 -4.219 -9.809 -6.277 -12.152 -0.258" fill="#d7bfd7"/><path d="m 7.598 13.08 c -0.102 -0.047 -0.242 -0.148 -0.313 -0.227 c -0.117 -0.133 -0.125 -0.242 -0.145 -2.336 c -0.02 -2.438 -0.004 -2.598 0.32 -2.793 c 0.188 -0.117 0.328 -0.121 2.438 -0.121 c 2.461 -0.004 2.508 0.004 2.699 0.375 c 0.086 0.16 0.098 0.504 0.082 2.465 l -0.02 2.281 l -0.203 0.203 l -0.207 0.203 l -2.23 0.016 c -1.766 0.012 -2.273 -0.004 -2.422 -0.07 m 2.844 -1.066 v -0.219 h -1.063 v 0.438 h 1.063 m 0 -2.531 v -1.219 h -1.063 v 2.438 h 1.063 m -4.344 0.723 c -0.137 -0.043 -0.445 -0.172 -0.688 -0.293 c -0.602 -0.293 -1.484 -1.164 -1.777 -1.758 c -0.176 -0.352 -0.254 -0.441 -0.48 -0.551 c -0.32 -0.156 -0.496 -0.359 -0.594 -0.688 c -0.129 -0.437 0.074 -0.957 0.473 -1.191 c 0.164 -0.098 0.223 -0.18 0.254 -0.371 c 0.059 -0.352 0.473 -1.156 0.809 -1.574 c 0.535 -0.672 1.422 -1.242 2.25 -1.453 c 0.535 -0.137 1.344 -0.121 1.969 0.039 l 0.52 0.129 l 0.234 -0.129 c 0.816 -0.461 1.762 0.277 1.555 1.211 c -0.066 0.301 -0.059 0.328 0.129 0.629 c 0.211 0.344 0.5 1.102 0.504 1.324 c 0 0.16 -0.168 0.223 -0.531 0.191 c -0.258 -0.023 -0.254 -0.016 -0.5 -0.629 c -0.207 -0.52 -0.371 -0.734 -0.551 -0.734 c -0.195 0 -0.215 0.023 -0.719 0.734 l -0.453 0.641 h -0.723 c -0.715 0 -0.723 0 -0.902 0.184 c -0.141 0.141 -0.184 0.238 -0.184 0.434 c 0 0.176 -0.031 0.27 -0.109 0.309 c -0.059 0.035 -0.477 0.094 -0.922 0.137 c -0.863 0.086 -1.094 0.137 -1.094 0.258 c 0 0.039 -0.066 0.164 -0.152 0.27 l -0.148 0.199 l 0.164 0.324 c 0.359 0.695 0.93 1.18 1.742 1.488 c 0.234 0.086 0.445 0.191 0.473 0.23 c 0.055 0.09 0.063 0.492 0.008 0.633 c -0.043 0.113 -0.211 0.117 -0.555 0.012 m -0.563 -4.578 l 1 -0.102 l 0.188 -0.207 c 0.238 -0.262 0.438 -0.379 0.734 -0.43 c 0.207 -0.039 0.273 -0.105 0.66 -0.664 c 0.527 -0.762 0.535 -0.875 0.051 -1.039 c -0.484 -0.168 -1.387 -0.152 -1.93 0.031 c -0.836 0.285 -1.523 0.898 -1.895 1.68 c -0.094 0.195 -0.184 0.461 -0.199 0.594 c -0.031 0.234 -0.027 0.238 0.176 0.238 c 0.117 0 0.664 -0.047 1.215 -0.102" fill="#ff4500"/></svg>