<svg xmlns="http://www.w3.org/2000/svg" viewBox="0 0 16 16"><path d="m 0.184 9.824 c 0.992 6.461 9.805 8.188 13.695 3.578 c 3.426 -3.426 2.574 -9.98 -1.629 -12.23 c -4.824 -3.01 -11.855 0.711 -12.238 6.699 c -0.039 0.652 0.016 1.316 0.172 1.953" fill="#fc561f"/><path d="m 9.547 6.16 c 1.66 -2.32 1.547 -2 0.844 -2.371 c -0.613 -0.32 -1.484 -0.563 -2.01 -0.563 h -0.184 v 0.246 c 0 0.137 -0.027 1.242 -0.063 2.457 c -0.031 1.215 -0.055 2.219 -0.047 2.227 c 0.008 0.004 0.664 -0.891 1.457 -1.996" fill="#fff"/></svg>